<?xml version="1.0" encoding="UTF-8" standalone="no"?>
<!-- Created with Inkscape (http://www.inkscape.org/) -->

<svg
   xmlns:dc="http://purl.org/dc/elements/1.1/"
   xmlns:cc="http://creativecommons.org/ns#"
   xmlns:rdf="http://www.w3.org/1999/02/22-rdf-syntax-ns#"
   xmlns:svg="http://www.w3.org/2000/svg"
   xmlns="http://www.w3.org/2000/svg"
   xmlns:xlink="http://www.w3.org/1999/xlink"
   xmlns:sodipodi="http://sodipodi.sourceforge.net/DTD/sodipodi-0.dtd"
   xmlns:inkscape="http://www.inkscape.org/namespaces/inkscape"
   width="96"
   height="96"
   id="svg2"
   version="1.1"
   inkscape:version="0.48.1 r9760"
   sodipodi:docname="templat-ikon-96x96.svg">
  <defs
     id="defs4">
    <filter
       color-interpolation-filters="sRGB"
       inkscape:collect="always"
       id="filter6279">
      <feGaussianBlur
         inkscape:collect="always"
         stdDeviation="0.8"
         id="feGaussianBlur6281" />
    </filter>
    <linearGradient
       inkscape:collect="always"
       xlink:href="#linearGradient11774"
       id="linearGradient3112"
       gradientUnits="userSpaceOnUse"
       gradientTransform="translate(-0.02999997,-956.33218)"
       x1="48"
       y1="1052.3622"
       x2="48"
       y2="902.36218" />
    <linearGradient
       inkscape:collect="always"
       id="linearGradient11774">
      <stop
         style="stop-color:#3771c8;stop-opacity:1"
         offset="0"
         id="stop11776" />
      <stop
         style="stop-color:#afc6e9;stop-opacity:1"
         offset="1"
         id="stop11778" />
    </linearGradient>
    <linearGradient
       inkscape:collect="always"
       xlink:href="#linearGradient3715-4"
       id="linearGradient3118"
       gradientUnits="userSpaceOnUse"
       gradientTransform="matrix(1.0466993,0,0,1.058053,18.743984,23.42849)"
       x1="25.070999"
       y1="4.7143002"
       x2="35.095001"
       y2="44.5" />
    <linearGradient
       x1="25.070999"
       y1="4.7143002"
       gradientTransform="matrix(1.5027,0,0,1.519,11.131,11.166)"
       x2="35.095001"
       gradientUnits="userSpaceOnUse"
       y2="44.5"
       id="linearGradient3715-4">
      <stop
         offset="0"
         style="stop-color:#eaedf1"
         id="stop3721-7" />
      <stop
         offset="1"
         style="stop-color:#c1ccdb"
         id="stop3723-6" />
    </linearGradient>
    <linearGradient
       inkscape:collect="always"
       xlink:href="#linearGradient11508-5"
       id="linearGradient3113"
       gradientUnits="userSpaceOnUse"
       gradientTransform="matrix(0.60359173,0.12620713,-0.19244863,0.39584696,37.158564,35.302506)"
       x1="43.700001"
       y1="82.473999"
       x2="77.924004"
       y2="16.212" />
    <linearGradient
       id="linearGradient11508-5">
      <stop
         offset="0"
         id="stop11510-6" />
      <stop
         offset="1"
         style="stop-opacity:0"
         id="stop11512-9" />
    </linearGradient>
    <linearGradient
       inkscape:collect="always"
       xlink:href="#linearGradient11508-5"
       id="linearGradient3109"
       gradientUnits="userSpaceOnUse"
       gradientTransform="matrix(0.58818414,0.08449797,-0.09015392,0.55127418,29.339141,24.146629)"
       x1="43.700001"
       y1="82.473999"
       x2="87.732002"
       y2="6.2082" />
    <linearGradient
       id="linearGradient3164">
      <stop
         offset="0"
         id="stop3166" />
      <stop
         offset="1"
         style="stop-opacity:0"
         id="stop3168" />
    </linearGradient>
    <linearGradient
       inkscape:collect="always"
       xlink:href="#linearGradient10400-3"
       id="linearGradient3106"
       gradientUnits="userSpaceOnUse"
       gradientTransform="matrix(0.56714845,0,0,0.56714845,22.758874,26.414582)"
       x1="60.898998"
       y1="35.605999"
       x2="68.223"
       y2="39.534" />
    <linearGradient
       x1="60.898998"
       y1="35.605999"
       gradientTransform="matrix(0.81423,0,0,0.81423,16.895,15.453)"
       x2="68.223"
       gradientUnits="userSpaceOnUse"
       y2="39.534"
       id="linearGradient10400-3">
      <stop
         offset="0"
         style="stop-color:#1a1a1a"
         id="stop10396-7" />
      <stop
         offset=".35185"
         style="stop-color:#636363"
         id="stop10404-4" />
      <stop
         offset=".5"
         style="stop-color:#c7c7c7"
         id="stop10402-5" />
      <stop
         offset="0.65"
         style="stop-color:#636363"
         id="stop10406-2" />
      <stop
         offset="1"
         id="stop10398-5" />
    </linearGradient>
    <linearGradient
       inkscape:collect="always"
       xlink:href="#linearGradient8183-5"
       id="linearGradient3102"
       gradientUnits="userSpaceOnUse"
       gradientTransform="matrix(0.41146351,-0.11020747,0.11048609,0.41217399,37.648932,36.7757)"
       x1="24.249001"
       y1="77.501999"
       x2="13.406"
       y2="67.674004" />
    <linearGradient
       x1="24.249001"
       y1="77.501999"
       gradientTransform="matrix(0.59072,-0.15822,0.15862,0.59174,38.272,30.328)"
       x2="13.406"
       gradientUnits="userSpaceOnUse"
       y2="67.674004"
       id="linearGradient8183-5">
      <stop
         offset="0"
         style="stop-color:#c38125"
         id="stop6533-4" />
      <stop
         offset=".62963"
         style="stop-color:#c68d31"
         id="stop10377-7" />
      <stop
         offset="1"
         style="stop-color:#fffce6"
         id="stop6535-4" />
    </linearGradient>
    <linearGradient
       inkscape:collect="always"
       xlink:href="#linearGradient10392-4"
       id="linearGradient3097"
       gradientUnits="userSpaceOnUse"
       gradientTransform="matrix(0.56714845,0,0,0.56714845,22.758874,26.414582)"
       x1="58.652"
       y1="68.171997"
       x2="47.451"
       y2="57.993" />
    <linearGradient
       x1="58.652"
       y1="68.171997"
       gradientTransform="matrix(0.81423,0,0,0.81423,16.895,15.453)"
       x2="47.451"
       gradientUnits="userSpaceOnUse"
       y2="57.993"
       id="linearGradient10392-4">
      <stop
         offset="0"
         style="stop-color:#fff"
         id="stop10388-3" />
      <stop
         offset="1"
         style="stop-color:#fff;stop-opacity:0"
         id="stop10390-0" />
    </linearGradient>
    <radialGradient
       inkscape:collect="always"
       xlink:href="#radialGradient10416-7"
       id="radialGradient3094"
       gradientUnits="userSpaceOnUse"
       gradientTransform="matrix(0.26264651,-0.50266921,0.06283365,0.03283081,41.657619,75.345989)"
       cx="59.852001"
       cy="41.703999"
       r="18.183001" />
    <radialGradient
       r="18.183001"
       gradientTransform="matrix(1,0,0,0.125,0,36.491)"
       cx="59.852001"
       cy="41.703999"
       gradientUnits="userSpaceOnUse"
       id="radialGradient10416-7">
      <stop
         offset="0"
         style="stop-color:#fff"
         id="stop10412-8" />
      <stop
         offset="1"
         style="stop-color:#fff;stop-opacity:0"
         id="stop10414-4" />
    </radialGradient>
    <radialGradient
       r="18.183001"
       cy="41.703999"
       cx="59.852001"
       gradientTransform="matrix(0.26264651,-0.50266921,0.06283365,0.03283081,41.657619,75.345989)"
       gradientUnits="userSpaceOnUse"
       id="radialGradient3205"
       xlink:href="#radialGradient10416-7"
       inkscape:collect="always" />
  </defs>
  <sodipodi:namedview
     id="base"
     pagecolor="#ffffff"
     bordercolor="#666666"
     borderopacity="1.0"
     inkscape:pageopacity="0.0"
     inkscape:pageshadow="2"
     inkscape:zoom="3.959798"
     inkscape:cx="28.389459"
     inkscape:cy="57.490015"
     inkscape:document-units="px"
     inkscape:current-layer="layer1"
     showgrid="false"
     inkscape:window-width="1280"
     inkscape:window-height="725"
     inkscape:window-x="0"
     inkscape:window-y="25"
     inkscape:window-maximized="1" />
  <metadata
     id="metadata7">
    <rdf:RDF>
      <cc:Work
         rdf:about="">
        <dc:format>image/svg+xml</dc:format>
        <dc:type
           rdf:resource="http://purl.org/dc/dcmitype/StillImage" />
        <dc:title></dc:title>
      </cc:Work>
    </rdf:RDF>
  </metadata>
  <g
     inkscape:label="Layer 1"
     inkscape:groupmode="layer"
     id="layer1"
     transform="translate(0,-956.36217)">
    <g
       transform="translate(-3.8418579e-8,956.36217)"
       id="g3123">
      <rect
         y="8.0300026"
         x="7.9700003"
         height="80"
         width="80"
         id="rect9283"
         style="fill:#000000;fill-opacity:1;stroke:none;filter:url(#filter6279)"
         rx="5"
         ry="5" />
      <rect
         ry="5"
         rx="5"
         style="fill:url(#linearGradient3112);fill-opacity:1;stroke:none"
         id="rect9285"
         width="80"
         height="80"
         x="7.9700003"
         y="8.0300131" />
      <path
         inkscape:connector-curvature="0"
         id="path5556"
         style="fill:url(#linearGradient3118);fill-rule:evenodd"
         d="m 23.528557,67.336645 c -0.02508,-10.02608 14.481186,-38.994721 21.232804,-39.147265 3.376854,-0.07592 8.435866,6.335084 12.691064,14.623282 4.255198,8.287501 7.706582,18.45289 7.868877,25.884337 0,0 -16.336087,-31.910851 -20.410184,-32.005581 -4.149323,-0.09473 -15.411771,22.482407 -14.072314,24.997634 1.308113,2.45602 25.585519,-5.462312 25.585519,-5.462312 -0.523106,0.8066 -16.373004,11.286131 -28.260254,13.754689 -1.794302,-0.05015 -4.485755,-0.02508 -4.635512,-2.644784 z" />
      <path
         inkscape:connector-curvature="0"
         id="path3738"
         style="opacity:0.6;fill:#ffffff;fill-rule:evenodd"
         d="m 44.076657,29.603368 c -0.341377,0.0077 -1.067805,0.299654 -1.980837,1.023087 -0.913032,0.723362 -1.980976,1.830313 -3.090922,3.221524 -2.219961,2.782491 -4.632796,6.663644 -6.834855,10.861934 -2.20206,4.198151 -4.204281,8.727719 -5.637702,12.777436 -1.422556,4.018511 -2.278053,7.605583 -2.285506,9.773233 0.04896,0.791903 0.194357,0.818581 0.761881,1.023087 0.535129,0.192831 1.464697,0.233733 2.32911,0.261204 0.08689,-0.0185 0.173788,-0.04589 0.261205,-0.0653 -0.46553,-0.03704 -0.897987,-0.08808 -1.197223,-0.195903 -0.56749,-0.204492 -0.712915,-0.231142 -0.761882,-1.023087 0.0075,-2.167511 0.86302,-5.754861 2.285506,-9.773233 1.433352,-4.04923 3.435573,-8.579354 5.637702,-12.777436 2.20206,-4.198151 4.614894,-8.079234 6.834855,-10.861934 1.109946,-1.391211 2.17789,-2.498162 3.090922,-3.221524 0.511195,-0.405028 0.946676,-0.66679 1.306024,-0.827149 -0.297425,-0.126771 -0.539127,-0.199908 -0.718139,-0.195729 z m 1.545495,5.681167 c -0.261413,-0.0059 -0.510066,0.01494 -0.74008,0.0653 1.01431,0.228195 1.621698,0.949322 2.394377,1.763096 0.921808,0.970846 1.928456,2.274571 3.003853,3.80927 2.150794,3.069398 4.591421,7.08805 6.900122,11.101546 2.535705,4.407811 3.159462,5.723168 4.788752,8.79389 -0.441471,-1.84299 -1.00233,-3.743306 -1.632564,-5.659434 -0.483598,-0.873817 -1.030958,-1.861658 -1.763097,-3.134456 -2.309049,-4.013496 -4.749745,-8.031869 -6.900679,-11.101546 -1.075466,-1.53449 -2.081975,-2.838424 -3.003505,-3.809409 -0.922227,-0.970288 -1.599269,-1.794998 -3.025795,-1.827736 a 1.4235306,1.4235306 0 0 0 -0.02177,0 z m 0.84895,25.162715 c -1.283176,0.370507 -1.316471,0.439987 -2.677382,0.805346 -3.139332,0.84289 -6.329024,1.612295 -8.880959,2.024302 -0.84491,0.136432 -1.607836,0.23803 -2.307308,0.282971 0.124222,0.0095 0.240086,0.01872 0.37004,0.02177 0.948208,0.02225 2.054392,-0.09871 3.330325,-0.304738 2.517316,-0.40647 5.652399,-1.173123 8.750008,-2.002569 0.03334,-0.01828 0.0756,-0.02526 0.108835,-0.04353 0.523266,-0.287625 0.81064,-0.501632 1.306023,-0.783614 z" />
      <path
         inkscape:connector-curvature="0"
         id="path3743"
         style="opacity:0.1;fill-rule:evenodd"
         d="m 44.751609,28.188684 c -6.752314,0.152543 -21.248128,29.111433 -21.223052,39.137513 0.149527,2.619848 2.842046,2.60522 4.636348,2.655581 11.88725,-2.468698 27.730183,-12.950876 28.253289,-13.756779 0,0 -24.267655,7.919725 -25.576464,5.463565 -1.338761,-2.515226 9.912543,-25.083309 14.062562,-24.988579 4.074096,0.09403 20.41715,31.997223 20.41715,31.997223 C 65.159146,61.265761 61.697314,51.104552 57.442116,42.816354 53.186221,34.528156 48.127906,28.112969 44.751749,28.188893 z m 0.02159,0.65336 c 1.27252,-0.0287 3.336106,1.365856 5.50703,3.939802 2.170994,2.573945 4.484292,6.227606 6.595453,10.339525 3.614655,7.039988 6.503648,15.374158 7.400799,22.202396 -1.508718,-2.88161 -3.887422,-7.368061 -7.074119,-12.908386 -2.30278,-4.002352 -4.730939,-8.001918 -6.856797,-11.035374 -1.062928,-1.516868 -2.041436,-2.800184 -2.916785,-3.722202 -0.875349,-0.921948 -1.578024,-1.589308 -2.503246,-1.610762 -0.814332,-0.01854 -1.55079,0.449718 -2.307308,1.110155 -0.756518,0.660402 -1.547307,1.56277 -2.372574,2.655581 -1.650535,2.185621 -3.412935,5.10366 -5.006423,8.097344 -1.593487,2.993684 -3.016391,6.071441 -3.961604,8.575871 -0.472606,1.25239 -0.824431,2.356972 -1.023086,3.265059 -0.198613,0.908086 -0.327997,1.585408 0.02177,2.242041 0.196008,0.367964 0.530566,0.54821 0.870682,0.653012 0.340116,0.104802 0.723084,0.142269 1.153619,0.152369 0.86107,0.0202 1.949144,-0.08104 3.199792,-0.282971 2.501226,-0.403872 5.667723,-1.184964 8.79389,-2.024302 4.406279,-1.183083 6.518345,-1.883529 8.685229,-2.568512 -1.721582,1.115866 -4.060583,2.506241 -6.747787,3.983406 -5.449634,2.995495 -12.28846,6.197307 -18.088596,7.422391 -0.898475,-0.02518 -1.949493,-0.0564 -2.699115,-0.326506 -0.748717,-0.269779 -1.188447,-0.628716 -1.262489,-1.676028 -1.4e-5,-0.0057 3e-6,-0.01604 0,-0.02177 -5.8e-4,-0.0091 5.23e-4,-0.01259 0,-0.02177 0.0027,-2.351469 0.865876,-5.984443 2.307307,-10.056728 1.448467,-4.091858 3.462529,-8.634381 5.681167,-12.864503 2.218637,-4.229775 4.653831,-8.149586 6.921923,-10.992189 1.134047,-1.421441 2.215991,-2.572692 3.199792,-3.352126 0.983801,-0.779435 1.86535,-1.16156 2.481445,-1.175421 z" />
      <path
         inkscape:connector-curvature="0"
         id="path10456"
         style="opacity:0.3;fill:url(#linearGradient3113)"
         d="m 73.802443,52.98223 c -2.567328,1.393509 -5.074126,2.778033 -7.337413,4.324504 -3.040422,2.077378 -5.171434,4.157543 -6.150011,5.742393 -0.0045,0.0073 -0.0133,0.0105 -0.01772,0.01772 -0.595721,0.357133 -4.866974,2.934199 -7.036505,4.430867 -2.368256,1.633957 -6.362737,5.813302 -6.362737,5.813302 l 0.460807,0.283577 c 3.925453,-1.830313 11.821774,-3.651014 11.821774,-3.651014 l 0.265851,-0.07089 -0.07089,-0.177237 c 0,0 -0.03458,-0.07396 0,-0.301297 0.03458,-0.227339 0.151582,-0.584932 0.443086,-1.063417 0.633411,-1.039664 2.233753,-2.136932 3.314304,-2.800323 2.492171,-0.615203 6.017877,-2.255902 9.305155,-4.501775 0.466867,-0.31899 0.914704,-0.644597 1.364673,-0.974816 v -7.071332 z" />
      <path
         inkscape:connector-curvature="0"
         id="path10430"
         style="opacity:0.2;fill:url(#linearGradient3109)"
         d="m 73.802443,35.276733 c -4.060722,5.06556 -8.761152,9.161667 -12.370652,14.019377 -2.356972,3.171791 -3.859142,6.236035 -4.413175,8.472086 -0.0025,0.01021 -0.01523,0.02526 -0.01773,0.03545 -0.472948,0.555293 -3.851341,4.523577 -5.529737,6.805809 -1.832612,2.490848 -4.608347,8.577265 -4.608347,8.577265 l 0.496254,0.319025 c 3.233365,-2.965195 10.138223,-6.451407 10.138223,-6.451407 l 0.230404,-0.124062 -0.08861,-0.230403 c 0,0 -0.05222,-0.101459 -0.07089,-0.40764 -0.01868,-0.30618 -0.0041,-0.796639 0.159509,-1.471035 0.355503,-1.465462 1.60916,-3.137172 2.463543,-4.164995 2.174825,-1.157798 5.073012,-3.802234 7.620907,-7.230842 2.190218,-2.947363 4.016422,-6.148548 5.990502,-9.446553 v -8.701946 z" />
      <path
         inkscape:connector-curvature="0"
         id="path10375"
         style="fill:url(#linearGradient3106);stroke:#000000;stroke-width:0.69654578"
         d="m 63.27694,50.162613 c -2.820731,5.747129 -6.801142,9.834529 -8.250584,9.055791 -1.545705,-0.830422 -0.79845,-6.127095 2.095836,-12.023773 2.893591,-5.895633 7.402192,-11.005423 10.365994,-17.58778 0.564753,-1.254479 1.658406,-3.107848 3.211146,-2.320612 1.609439,0.815934 1.172774,2.342832 0.322459,4.077161 -3.283656,6.697636 -4.92423,13.052571 -7.744892,18.79977 z" />
      <path
         inkscape:connector-curvature="0"
         id="path4343"
         style="fill:none;stroke:#2e3436;stroke-width:1.37148404;stroke-linecap:round"
         d="m 58.246713,56.016871 a 2.3239618,1.8275974 29.389036 1 1 -3.934865,1.053893 2.3239618,1.8275974 29.389036 1 1 3.934865,-1.053893 z" />
      <path
         inkscape:connector-curvature="0"
         id="path4341"
         style="fill:url(#linearGradient3102);fill-rule:evenodd;stroke:#c17d11;stroke-width:0.69654578"
         d="m 47.114989,73.250319 c 0,0 1.676934,-6.540496 2.982191,-9.232715 1.305188,-2.692427 4.391094,-8.048586 4.391094,-8.048586 0,0 0.890325,-1.331795 2.327578,-0.623415 1.437252,0.70838 1.02239,2.069019 1.02239,2.069019 0,0 -2.167442,3.264292 -2.347778,5.783072 -0.103945,1.451879 0.236408,2.045197 0.236408,2.045197 0,0 -5.969119,4.488262 -8.612092,8.00749 z" />
      <path
         inkscape:connector-curvature="0"
         id="path6537"
         style="fill-opacity:0.6;stroke:#c17d11;stroke-width:0.23310734;stroke-linecap:round"
         d="m 51.484087,63.967748 a 0.37941865,0.86546278 27.632558 0 1 -0.699241,-0.299507 0.37941865,0.86546278 27.632558 1 1 0.699241,0.299507 z" />
      <path
         inkscape:connector-curvature="0"
         id="path8007"
         style="fill:#c17d11;fill-rule:evenodd;stroke:#c17d11;stroke-width:0.23890126"
         d="m 47.148423,73.085237 c 1.183292,-3.050243 2.027854,-5.619243 3.507526,-8.436562" />
      <path
         inkscape:connector-curvature="0"
         id="path10381"
         style="fill:url(#linearGradient3097);fill-rule:evenodd"
         d="m 56.610998,56.278981 c -0.124132,0.10079 -0.206756,0.2056 -0.212684,0.212683 -3.5e-5,6.1e-5 -0.01769,-7e-5 -0.01772,0 -0.04279,0.07427 -3.068284,5.348706 -4.324504,7.939925 -0.428035,0.882942 -0.937203,2.308075 -1.400127,3.77507 1.915083,-1.723742 3.558026,-2.959066 4.005487,-3.296543 -0.08545,-0.420177 -0.144645,-1.007553 -0.08862,-1.790053 0.106955,-1.493951 0.740707,-3.00044 1.329288,-4.182757 0.532746,-1.070173 0.952178,-1.69978 1.045654,-1.843269 0.0063,-0.02499 0.03079,-0.11975 0,-0.301298 -0.02854,-0.168285 -0.06003,-0.332656 -0.336745,-0.513981 z" />
      <path
         inkscape:connector-curvature="0"
         id="path10408"
         style="fill:url(#radialGradient3205)"
         d="m 64.773391,37.489876 a 1.2890193,10.312495 27.587233 1 1 -9.55114,18.279566 1.2890193,10.312495 27.587233 1 1 9.55114,-18.279566 z" />
    </g>
  </g>
</svg>
