<?xml version="1.0" encoding="UTF-8" standalone="no"?>
<!-- Created with Inkscape (http://www.inkscape.org/) -->
<svg id="svg2" xmlns:rdf="http://www.w3.org/1999/02/22-rdf-syntax-ns#" xmlns="http://www.w3.org/2000/svg" height="96" width="96" version="1.1" xmlns:cc="http://creativecommons.org/ns#" xmlns:xlink="http://www.w3.org/1999/xlink" xmlns:dc="http://purl.org/dc/elements/1.1/">
 <defs id="defs4">
  <filter id="filter6279" color-interpolation-filters="sRGB">
   <feGaussianBlur id="feGaussianBlur6281" stdDeviation="0.8"/>
  </filter>
  <linearGradient id="linearGradient3112" y2="902.36" gradientUnits="userSpaceOnUse" x2="48" gradientTransform="translate(-0.03 -956.33)" y1="1052.4" x1="48">
   <stop id="stop11776" style="stop-color:#3771c8" offset="0"/>
   <stop id="stop11778" style="stop-color:#afc6e9" offset="1"/>
  </linearGradient>
  <linearGradient id="linearGradient3118" y2="44.5" gradientUnits="userSpaceOnUse" x2="35.095" gradientTransform="matrix(1.0467 0 0 1.0581 18.744 23.428)" y1="4.7143" x1="25.071">
   <stop id="stop3721-7" style="stop-color:#eaedf1" offset="0"/>
   <stop id="stop3723-6" style="stop-color:#c1ccdb" offset="1"/>
  </linearGradient>
  <linearGradient id="linearGradient3113" y2="16.212" xlink:href="#linearGradient11508-5" gradientUnits="userSpaceOnUse" x2="77.924" gradientTransform="matrix(.60359 .12621 -.19245 .39585 37.159 35.303)" y1="82.474" x1="43.7"/>
  <linearGradient id="linearGradient11508-5">
   <stop id="stop11510-6" offset="0"/>
   <stop id="stop11512-9" style="stop-opacity:0" offset="1"/>
  </linearGradient>
  <linearGradient id="linearGradient3109" y2="6.2082" xlink:href="#linearGradient11508-5" gradientUnits="userSpaceOnUse" x2="87.732" gradientTransform="matrix(.58818 .084498 -.090154 .55127 29.339 24.147)" y1="82.474" x1="43.7"/>
  <linearGradient id="linearGradient3106" y2="39.534" gradientUnits="userSpaceOnUse" x2="68.223" gradientTransform="matrix(.56715 0 0 .56715 22.759 26.415)" y1="35.606" x1="60.899">
   <stop id="stop10396-7" style="stop-color:#1a1a1a" offset="0"/>
   <stop id="stop10404-4" style="stop-color:#636363" offset=".35185"/>
   <stop id="stop10402-5" style="stop-color:#c7c7c7" offset=".5"/>
   <stop id="stop10406-2" style="stop-color:#636363" offset=".65"/>
   <stop id="stop10398-5" offset="1"/>
  </linearGradient>
  <linearGradient id="linearGradient3102" y2="67.674" gradientUnits="userSpaceOnUse" x2="13.406" gradientTransform="matrix(.41146 -.11021 .11049 .41217 37.649 36.776)" y1="77.502" x1="24.249">
   <stop id="stop6533-4" style="stop-color:#c38125" offset="0"/>
   <stop id="stop10377-7" style="stop-color:#c68d31" offset=".62963"/>
   <stop id="stop6535-4" style="stop-color:#fffce6" offset="1"/>
  </linearGradient>
  <linearGradient id="linearGradient3097" y2="57.993" gradientUnits="userSpaceOnUse" x2="47.451" gradientTransform="matrix(.56715 0 0 .56715 22.759 26.415)" y1="68.172" x1="58.652">
   <stop id="stop10388-3" style="stop-color:#fff" offset="0"/>
   <stop id="stop10390-0" style="stop-color:#fff;stop-opacity:0" offset="1"/>
  </linearGradient>
  <radialGradient id="radialGradient3205" gradientUnits="userSpaceOnUse" cy="41.704" cx="59.852" gradientTransform="matrix(.26265 -.50267 .062834 .032831 41.658 75.346)" r="18.183">
   <stop id="stop10412-8" style="stop-color:#fff" offset="0"/>
   <stop id="stop10414-4" style="stop-color:#fff;stop-opacity:0" offset="1"/>
  </radialGradient>
 </defs>
 <metadata id="metadata7">
  <rdf:RDF>
   <cc:Work rdf:about="">
    <dc:format>image/svg+xml</dc:format>
    <dc:type rdf:resource="http://purl.org/dc/dcmitype/StillImage"/>
    <dc:title/>
   </cc:Work>
  </rdf:RDF>
 </metadata>
 <g id="layer1" transform="translate(0 -956.36)">
  <g id="g3123" transform="translate(-3.8419e-8 956.36)">
   <rect id="rect9283" style="filter:url(#filter6279)" rx="5" ry="5" height="80" width="80" y="8.03" x="7.97"/>
   <rect id="rect9285" style="fill:url(#linearGradient3112)" rx="5" ry="5" height="80" width="80" y="8.03" x="7.97"/>
   <path id="path5556" d="m23.529 67.337c-0.02508-10.026 14.481-38.995 21.233-39.147 3.3769-0.07592 8.4359 6.3351 12.691 14.623 4.2552 8.2875 7.7066 18.453 7.8689 25.884 0 0-16.336-31.911-20.41-32.006-4.1493-0.09473-15.412 22.482-14.072 24.998 1.3081 2.456 25.586-5.4623 25.586-5.4623-0.52311 0.8066-16.373 11.286-28.26 13.755-1.7943-0.05015-4.4858-0.02508-4.6355-2.6448z" style="fill:url(#linearGradient3118);fill-rule:evenodd"/>
   <path id="path3738" d="m44.077 29.603c-0.34138 0.0077-1.0678 0.29965-1.9808 1.0231-0.91303 0.72336-1.981 1.8303-3.0909 3.2215-2.22 2.7825-4.6328 6.6636-6.8349 10.862-2.2021 4.1982-4.2043 8.7277-5.6377 12.777-1.4226 4.0185-2.2781 7.6056-2.2855 9.7732 0.04896 0.7919 0.19436 0.81858 0.76188 1.0231 0.53513 0.19283 1.4647 0.23373 2.3291 0.2612 0.08689-0.0185 0.17379-0.04589 0.2612-0.0653-0.46553-0.03704-0.89799-0.08808-1.1972-0.1959-0.56749-0.20449-0.71292-0.23114-0.76188-1.0231 0.0075-2.1675 0.86302-5.7549 2.2855-9.7732 1.4334-4.0492 3.4356-8.5794 5.6377-12.777 2.2021-4.1982 4.6149-8.0792 6.8349-10.862 1.1099-1.3912 2.1779-2.4982 3.0909-3.2215 0.5112-0.40503 0.94668-0.66679 1.306-0.82715-0.29742-0.12677-0.53913-0.19991-0.71814-0.19573zm1.5455 5.6812c-0.26141-0.0059-0.51007 0.01494-0.74008 0.0653 1.0143 0.2282 1.6217 0.94932 2.3944 1.7631 0.92181 0.97085 1.9285 2.2746 3.0039 3.8093 2.1508 3.0694 4.5914 7.088 6.9001 11.102 2.5357 4.4078 3.1595 5.7232 4.7888 8.7939-0.44147-1.843-1.0023-3.7433-1.6326-5.6594-0.4836-0.87382-1.031-1.8617-1.7631-3.1345-2.309-4.0135-4.7497-8.0319-6.9007-11.102-1.0755-1.5345-2.082-2.8384-3.0035-3.8094-0.92223-0.97029-1.5993-1.795-3.0258-1.8277a1.4235 1.4235 0 0 0 -0.02177 0zm0.84895 25.163c-1.2832 0.37051-1.3165 0.43999-2.6774 0.80535-3.1393 0.84289-6.329 1.6123-8.881 2.0243-0.84491 0.13643-1.6078 0.23803-2.3073 0.28297 0.12422 0.0095 0.24009 0.01872 0.37004 0.02177 0.94821 0.02225 2.0544-0.09871 3.3303-0.30474 2.5173-0.40647 5.6524-1.1731 8.75-2.0026 0.03334-0.01828 0.0756-0.02526 0.10884-0.04353 0.52327-0.28762 0.81064-0.50163 1.306-0.78361z" style="opacity:.6;fill:#fff;fill-rule:evenodd"/>
   <path id="path3743" d="m44.752 28.189c-6.7523 0.15254-21.248 29.111-21.223 39.138 0.14953 2.6198 2.842 2.6052 4.6363 2.6556 11.887-2.4687 27.73-12.951 28.253-13.757 0 0-24.268 7.9197-25.576 5.4636-1.3388-2.5152 9.9125-25.083 14.063-24.989 4.0741 0.09403 20.417 31.997 20.417 31.997-0.163-7.432-3.625-17.593-7.88-25.882-4.256-8.288-9.314-14.703-12.69-14.627zm0.02159 0.65336c1.2725-0.0287 3.3361 1.3659 5.507 3.9398 2.171 2.5739 4.4843 6.2276 6.5955 10.34 3.6147 7.04 6.5036 15.374 7.4008 22.202-1.5087-2.8816-3.8874-7.3681-7.0741-12.908-2.3028-4.0024-4.7309-8.0019-6.8568-11.035-1.0629-1.5169-2.0414-2.8002-2.9168-3.7222-0.87535-0.92195-1.578-1.5893-2.5032-1.6108-0.81433-0.01854-1.5508 0.44972-2.3073 1.1102-0.75652 0.6604-1.5473 1.5628-2.3726 2.6556-1.6505 2.1856-3.4129 5.1037-5.0064 8.0973-1.5935 2.9937-3.0164 6.0714-3.9616 8.5759-0.47261 1.2524-0.82443 2.357-1.0231 3.2651-0.19861 0.90809-0.328 1.5854 0.02177 2.242 0.19601 0.36796 0.53057 0.54821 0.87068 0.65301 0.34012 0.1048 0.72308 0.14227 1.1536 0.15237 0.86107 0.0202 1.9491-0.08104 3.1998-0.28297 2.5012-0.40387 5.6677-1.185 8.7939-2.0243 4.4063-1.1831 6.5183-1.8835 8.6852-2.5685-1.7216 1.1159-4.0606 2.5062-6.7478 3.9834-5.4496 2.9955-12.288 6.1973-18.089 7.4224-0.89848-0.02518-1.9495-0.0564-2.6991-0.32651-0.74872-0.26978-1.1884-0.62872-1.2625-1.676-0.000014-0.0057 0.000003-0.01604 0-0.02177-0.00058-0.0091 0.000523-0.01259 0-0.02177 0.0027-2.3515 0.86588-5.9844 2.3073-10.057 1.4485-4.0919 3.4625-8.6344 5.6812-12.865 2.2186-4.2298 4.6538-8.1496 6.9219-10.992 1.134-1.4214 2.216-2.5727 3.1998-3.3521 0.9838-0.77944 1.8654-1.1616 2.4814-1.1754z" style="opacity:.1;fill-rule:evenodd"/>
   <path id="path10456" d="m73.802 52.982c-2.5673 1.3935-5.0741 2.778-7.3374 4.3245-3.0404 2.0774-5.1714 4.1575-6.15 5.7424-0.0045 0.0073-0.0133 0.0105-0.01772 0.01772-0.59572 0.35713-4.867 2.9342-7.0365 4.4309-2.3683 1.634-6.3627 5.8133-6.3627 5.8133l0.46081 0.28358c3.9255-1.8303 11.822-3.651 11.822-3.651l0.26585-0.07089-0.07089-0.17724s-0.03458-0.07396 0-0.3013 0.15158-0.58493 0.44309-1.0634c0.63341-1.0397 2.2338-2.1369 3.3143-2.8003 2.4922-0.6152 6.0179-2.2559 9.3052-4.5018 0.46687-0.31899 0.9147-0.6446 1.3647-0.97482v-7.0713z" style="opacity:.3;fill:url(#linearGradient3113)"/>
   <path id="path10430" d="m73.802 35.277c-4.0607 5.0656-8.7612 9.1617-12.371 14.019-2.357 3.1718-3.8591 6.236-4.4132 8.4721-0.0025 0.01021-0.01523 0.02526-0.01773 0.03545-0.47295 0.55529-3.8513 4.5236-5.5297 6.8058-1.8326 2.4908-4.6083 8.5773-4.6083 8.5773l0.49625 0.31902c3.2334-2.9652 10.138-6.4514 10.138-6.4514l0.2304-0.12406-0.08861-0.2304s-0.05222-0.10146-0.07089-0.40764c-0.01868-0.30618-0.0041-0.79664 0.15951-1.471 0.3555-1.4655 1.6092-3.1372 2.4635-4.165 2.1748-1.1578 5.073-3.8022 7.6209-7.2308 2.1902-2.9474 4.0164-6.1485 5.9905-9.4466v-8.7019z" style="opacity:.2;fill:url(#linearGradient3109)"/>
   <path id="path10375" d="m63.277 50.163c-2.8207 5.7471-6.8011 9.8345-8.2506 9.0558-1.5457-0.83042-0.79845-6.1271 2.0958-12.024 2.8936-5.8956 7.4022-11.005 10.366-17.588 0.56475-1.2545 1.6584-3.1078 3.2111-2.3206 1.6094 0.81593 1.1728 2.3428 0.32246 4.0772-3.2837 6.6976-4.9242 13.053-7.7449 18.8z" style="stroke:#000;stroke-width:.69655;fill:url(#linearGradient3106)"/>
   <path id="path4343" d="m58.247 56.017a2.324 1.8276 29.389 1 1 -3.9349 1.0539 2.324 1.8276 29.389 1 1 3.9349 -1.0539z" style="stroke:#2e3436;stroke-width:1.3715;stroke-linecap:round;fill:none"/>
   <path id="path4341" d="m47.115 73.25s1.6769-6.5405 2.9822-9.2327c1.3052-2.6924 4.3911-8.0486 4.3911-8.0486s0.89032-1.3318 2.3276-0.62342 1.0224 2.069 1.0224 2.069-2.1674 3.2643-2.3478 5.7831c-0.10394 1.4519 0.23641 2.0452 0.23641 2.0452s-5.9691 4.4883-8.6121 8.0075z" style="stroke:#c17d11;stroke-width:.69655;fill:url(#linearGradient3102);fill-rule:evenodd"/>
   <path id="path6537" d="m51.484 63.968a0.37942 0.86546 27.633 0 1 -0.69924 -0.29951 0.37942 0.86546 27.633 1 1 0.69924 0.29951z" style="stroke:#c17d11;stroke-width:.23311;stroke-linecap:round;fill-opacity:.6"/>
   <path id="path8007" d="m47.148 73.085c1.1833-3.0502 2.0279-5.6192 3.5075-8.4366" style="stroke:#c17d11;stroke-width:.23890;fill:#c17d11;fill-rule:evenodd"/>
   <path id="path10381" d="m56.611 56.279c-0.12413 0.10079-0.20676 0.2056-0.21268 0.21268-0.000035 0.000061-0.01769-0.00007-0.01772 0-0.04279 0.07427-3.0683 5.3487-4.3245 7.9399-0.42804 0.88294-0.9372 2.3081-1.4001 3.7751 1.9151-1.7237 3.558-2.9591 4.0055-3.2965-0.08545-0.42018-0.14464-1.0076-0.08862-1.7901 0.10696-1.494 0.74071-3.0004 1.3293-4.1828 0.53275-1.0702 0.95218-1.6998 1.0457-1.8433 0.0063-0.02499 0.03079-0.11975 0-0.3013-0.02854-0.16828-0.06003-0.33266-0.33674-0.51398z" style="fill:url(#linearGradient3097);fill-rule:evenodd"/>
   <path id="path10408" d="m64.773 37.49a1.289 10.312 27.587 1 1 -9.5511 18.28 1.289 10.312 27.587 1 1 9.5511 -18.28z" style="fill:url(#radialGradient3205)"/>
  </g>
 </g>
</svg>
