<?xml version="1.0" encoding="UTF-8" standalone="no"?>
<!-- Created with Inkscape (http://www.inkscape.org/) -->
<svg id="svg2" xmlns:rdf="http://www.w3.org/1999/02/22-rdf-syntax-ns#" xmlns="http://www.w3.org/2000/svg" height="96" width="96" version="1.1" xmlns:cc="http://creativecommons.org/ns#" xmlns:xlink="http://www.w3.org/1999/xlink" xmlns:dc="http://purl.org/dc/elements/1.1/">
 <defs id="defs4">
  <filter id="filter6279" color-interpolation-filters="sRGB">
   <feGaussianBlur id="feGaussianBlur6281" stdDeviation="0.8"/>
  </filter>
  <linearGradient id="linearGradient5734" y2="902.36" gradientUnits="userSpaceOnUse" x2="48" gradientTransform="translate(0 -2008.7)" y1="1052.4" x1="48">
   <stop id="stop3124" style="stop-color:#c4875e" offset="0"/>
   <stop id="stop3126" style="stop-color:#c4875e;stop-opacity:0" offset="1"/>
  </linearGradient>
  <linearGradient id="linearGradient8675" y2="5.9877" gradientUnits="userSpaceOnUse" x2="48" gradientTransform="matrix(1.0172 0 0 1.0172 -104.97 951.64)" y1="90" x1="48">
   <stop id="stop3189-8" style="stop-color:#cda060" offset="0"/>
   <stop id="stop3191-6" style="stop-color:#dbbb8e" offset="1"/>
  </linearGradient>
  <linearGradient id="linearGradient8677" y2="28" xlink:href="#linearGradient3238" gradientUnits="userSpaceOnUse" x2="21" gradientTransform="matrix(1.125 0 0 1 .375 -4)" y1="28" x1="5"/>
  <linearGradient id="linearGradient3238">
   <stop id="stop3240" style="stop-color:#784421" offset="0"/>
   <stop id="stop3242" style="stop-color:#784421;stop-opacity:0" offset="1"/>
  </linearGradient>
  <linearGradient id="linearGradient8679" y2="27" xlink:href="#linearGradient3250" gradientUnits="userSpaceOnUse" x2="21" gradientTransform="matrix(1.125 0 0 1 .375 -10)" y1="27" x1="5"/>
  <linearGradient id="linearGradient3250">
   <stop id="stop3252" style="stop-color:#c4875e" offset="0"/>
   <stop id="stop3254" style="stop-color:#c4875e;stop-opacity:0" offset="1"/>
  </linearGradient>
  <linearGradient id="linearGradient8693" y2="64" gradientUnits="userSpaceOnUse" x2="11.227" gradientTransform="translate(-102.86 937.42)" y1="64" x1="5">
   <stop id="stop3296" style="stop-color:#72401f" offset="0"/>
   <stop id="stop3298-4" style="stop-color:#72401f;stop-opacity:0" offset="1"/>
  </linearGradient>
  <linearGradient id="linearGradient3203" y2="138.66" gradientUnits="userSpaceOnUse" y1="20.221" x2="48" x1="48">
   <stop id="stop3739-2" style="stop-color:#fff" offset="0"/>
   <stop id="stop3741-12" style="stop-color:#fff;stop-opacity:0" offset="1"/>
  </linearGradient>
  <clipPath id="clipPath3613-07">
   <rect id="rect3615-31" style="fill:#fff" rx="6" ry="6" height="84" width="84" y="6" x="6"/>
  </clipPath>
  <filter id="filter3794-190" width="1.384" y="-.192" x="-.192" height="1.384" color-interpolation-filters="sRGB">
   <feGaussianBlur id="feGaussianBlur3796-56" stdDeviation="5.28"/>
  </filter>
 </defs>
 <metadata id="metadata7">
  <rdf:RDF>
   <cc:Work rdf:about="">
    <dc:format>image/svg+xml</dc:format>
    <dc:type rdf:resource="http://purl.org/dc/dcmitype/StillImage"/>
    <dc:title/>
   </cc:Work>
  </rdf:RDF>
 </metadata>
 <g id="layer1" transform="translate(0 -956.36)">
  <g id="g6505" transform="translate(0,-1e-5)">
   <rect id="rect9283" ry="5" style="filter:url(#filter6279)" rx="5" transform="translate(0 -.0000078516)" height="80" width="80" y="964.36" x="8"/>
   <rect id="rect9285" style="opacity:.5;fill:url(#linearGradient5734)" rx="5" transform="scale(1,-1)" ry="5" width="80" y="-1044.4" x="8" height="80"/>
   <g id="g8654" transform="matrix(.64881 0 0 .64881 84.18 355.13)">
    <rect id="rect2419" style="fill:url(#linearGradient8675)" rx="6" ry="6" height="84" width="84" y="958.74" x="-97.862"/>
    <path id="rect3170" style="fill:#a05a2c" d="m-91.862 958.74c-3.324 0-6 2.676-6 6v72c0 3.324 2.676 6 6 6h12v-84h-12z"/>
    <g id="g3903" transform="translate(-103.86 954.74)">
     <rect id="rect3236" style="fill:url(#linearGradient8677)" height="2" width="18" y="20" x="6"/>
     <rect id="rect3246" style="fill:url(#linearGradient8679)" height="2" width="18" y="16" x="6"/>
    </g>
    <g id="g3907" transform="translate(-103.86 972.74)">
     <rect id="rect3909" style="fill:url(#linearGradient8677)" height="2" width="18" y="20" x="6"/>
     <rect id="rect3911" style="fill:url(#linearGradient8679)" height="2" width="18" y="16" x="6"/>
    </g>
    <g id="g3917" transform="translate(-103.86 1008.7)">
     <rect id="rect3919" style="fill:url(#linearGradient8677)" height="2" width="18" y="20" x="6"/>
     <rect id="rect3921" style="fill:url(#linearGradient8679)" height="2" width="18" y="16" x="6"/>
    </g>
    <g id="g3927" transform="translate(-103.86 990.74)">
     <rect id="rect3929" style="fill:url(#linearGradient8677)" height="2" width="18" y="20" x="6"/>
     <rect id="rect3931" style="fill:url(#linearGradient8679)" height="2" width="18" y="16" x="6"/>
    </g>
    <path id="path3292" style="fill:url(#linearGradient8693)" d="m-91.862 958.74c-3.324 0-6 2.676-6 6v72c0 3.324 2.676 6 6 6h9.125v-84h-9.125z"/>
    <rect id="rect3941" style="opacity:.1;fill:#fff" height="84" width="1" y="958.74" x="-79.862"/>
    <rect id="rect3943" style="opacity:.1" height="84" width="1" y="958.74" x="-80.862"/>
    <path id="path3189" style="opacity:.55870;fill:#784421;fill-rule:evenodd" d="m-75.862 962.74v6.1984h5.0573v4.1426h-1.4984v-2.6164h-3.5588v3.6132h2.5599v53.325h-2.5599v3.6442h3.5588v-2.6475h1.4984v4.1426h-5.0573v6.198h6.0562v-5.2017h4.2456v1.6508h-2.6535v3.5508h3.6525v-2.554h35.399v2.554h3.6837v-3.5508h-2.6847v-1.6508h4.2456v5.2017h6.0557v-6.1984h-5.0573v-4.1426h1.5297v2.6476h3.5276v-3.6442h-2.5286v-53.325h2.5286v-3.6132h-3.5276v2.6164h-1.5297v-4.1426h5.0573v-6.198h-6.0562v5.2017h-4.2456v-1.6508h2.6847v-3.5508h-3.6837v2.5853h-35.399v-2.5853h-3.6525v3.5508h2.6535v1.6508h-4.2456v-5.2017h-6.0565zm0.99896 0.99672h4.0583v4.2049h-4.0583v-4.2049zm7.6483 0h1.6545v1.5885h-1.6545v-1.5885zm39.051 0h1.6857v1.5885h-1.6857v-1.5885zm5.2445 0h4.0583v4.2049h-4.0583v-4.2049zm-41.642 2.5541h35.399v1.6508h-2.5911v3.5508h3.5901v-2.5541h4.2456v4.1426h-2.6535v3.5508h3.6525v-2.5541h1.5297v53.325h-1.5297v-2.5541h-3.6525v3.5508h2.6535v4.1426h-4.2456v-2.554h-3.5901v3.5508h2.5911v1.6508h-35.399v-1.6508h2.6223v-3.5508h-3.6213v2.554h-4.2456v-4.1426h2.6847v-3.5508h-3.6837v2.5541h-1.4984v-53.325h1.4984v2.5541h3.6837v-3.5508h-2.6847v-4.1426h4.2456v2.5541h3.6213v-3.5508h-2.6223v-1.6508zm0 2.6475h1.6233v1.5885h-1.6233v-1.5885zm33.806 0h1.5921v1.5885h-1.5921v-1.5885zm-44.108 2.4918h1.5609v1.6508h-1.5609v-1.6508zm54.472 0h1.5297v1.6508h-1.5297v-1.6508zm-49.415 2.6475h1.6857v1.5885h-1.6857v-1.5885zm44.233 0h1.6545v1.5885h-1.6545v-1.5885zm-44.233 51.767h1.6857v1.5574h-1.6857v-1.5574zm44.233 0h1.6545v1.5574h-1.6545v-1.5574zm-49.29 2.5541h1.5609v1.6508h-1.5609v-1.6508zm54.472 0h1.5297v1.6508h-1.5297v-1.6508zm-44.171 2.5852h1.6233v1.5574h-1.6233v-1.5574zm33.806 0h1.5921v1.5574h-1.5921v-1.5574zm-44.108 2.5541h4.0583v4.2049h-4.0583v-4.2049zm51.944 0h4.0583v4.2049h-4.0583v-4.2049zm-44.296 2.6475h1.6545v1.5574h-1.6545v-1.5574zm39.051 0h1.6857v1.5574h-1.6857v-1.5574z"/>
    <path id="text3202" style="fill:#784421" d="m-58.256 982.46h-1.0168l-5.5682 14.114c-0.48419 1.2589-0.58103 1.4284-0.94417 1.8157-0.38735 0.45998-1.0652 0.75049-1.7189 0.75049h-0.09684v1.1378h6.4155v-1.1378h-0.48419c-1.3073 0-1.961-0.45998-1.961-1.3799 0-0.29051 0.07263-0.62944 0.21788-1.0168l0.79891-2.1304h6.4155l1.3073 3.2441c0.14526 0.36314 0.19367 0.53261 0.19367 0.65365 0 0.38735-0.60523 0.62944-1.501 0.62944h-1.0168v1.1378h7.5049v-1.1378h-0.33893c-1.2105 0-1.4768-0.19368-2.0336-1.5494l-6.173-15.131m-1.1863 3.9703 2.7357 6.8755h-5.4229l2.6872-6.8755m13.888-3.9945-4.164 0.2663v1.041h0.84733c0.89575 0 1.041 0.16947 1.041 1.2105v9.4174c0 3.2441-0.12105 4.8177-0.43577 6.246h0.91996l1.1863-1.8883c0.99258 1.3073 2.1304 1.9125 3.6314 1.9125 2.9777 0 5.205-2.5904 5.205-6.0766 0-3.4861-2.0336-5.9313-4.9387-5.9313-1.4768 0-2.3725 0.5084-3.2925 1.8883v-8.0859m2.8567 7.4323c1.8157 0 2.8325 1.7673 2.8325 4.9387 0 3.0504-0.99259 4.7935-2.7599 4.7935-1.9125 0-3.0504-1.7673-3.0504-4.745 0-3.2198 1.041-4.9871 2.9778-4.9871m15.631 6.8513c-0.7747 1.7431-1.5978 2.4451-2.8567 2.4451-1.9367 0-3.1472-1.7673-3.1472-4.5998 0-2.9293 1.1863-4.8903 2.9778-4.8903 0.72628 0 1.3557 0.33893 1.3557 0.72628 0 0.0726-0.0484 0.14526-0.14526 0.29051-0.38734 0.45998-0.48418 0.70207-0.48418 1.1136 0 0.79891 0.60524 1.3557 1.4526 1.3557 0.84732 0 1.4768-0.67786 1.4768-1.6462 0-1.622-1.622-2.8809-3.7767-2.8809-3.1472 0-5.3987 2.5904-5.3987 6.1976 0 3.4377 2.0578 5.8102 5.0598 5.8102 2.1546 0 3.3893-0.99258 4.4303-3.5588l-0.94417-0.36314"/>
   </g>
   <g id="layer5" transform="translate(0 956.36)">
    <rect id="rect3171" style="opacity:.1;filter:url(#filter3794-190);stroke:#fff;stroke-linecap:round;stroke-width:.5;fill:url(#linearGradient3203)" clip-path="url(#clipPath3613-07)" rx="12" ry="12" height="66" width="66" y="15" x="15"/>
   </g>
  </g>
 </g>
</svg>
