<?xml version="1.0" encoding="UTF-8" standalone="no"?>
<!-- Created with Inkscape (http://www.inkscape.org/) -->

<svg
   xmlns:dc="http://purl.org/dc/elements/1.1/"
   xmlns:cc="http://creativecommons.org/ns#"
   xmlns:rdf="http://www.w3.org/1999/02/22-rdf-syntax-ns#"
   xmlns:svg="http://www.w3.org/2000/svg"
   xmlns="http://www.w3.org/2000/svg"
   xmlns:xlink="http://www.w3.org/1999/xlink"
   xmlns:sodipodi="http://sodipodi.sourceforge.net/DTD/sodipodi-0.dtd"
   xmlns:inkscape="http://www.inkscape.org/namespaces/inkscape"
   width="96"
   height="96"
   id="svg2"
   version="1.1"
   inkscape:version="0.48.1 r9760"
   sodipodi:docname="accessories-dictionary.svg">
  <defs
     id="defs4">
    <filter
       color-interpolation-filters="sRGB"
       inkscape:collect="always"
       id="filter6279">
      <feGaussianBlur
         inkscape:collect="always"
         stdDeviation="0.8"
         id="feGaussianBlur6281" />
    </filter>
    <linearGradient
       inkscape:collect="always"
       xlink:href="#linearGradient3122-9"
       id="linearGradient5734"
       gradientUnits="userSpaceOnUse"
       gradientTransform="translate(0,-2008.7244)"
       x1="48"
       y1="1052.3622"
       x2="48"
       y2="902.36218" />
    <linearGradient
       id="linearGradient3122-9">
      <stop
         id="stop3124"
         style="stop-color:#c4875e"
         offset="0" />
      <stop
         id="stop3126"
         style="stop-color:#c4875e;stop-opacity:0"
         offset="1" />
    </linearGradient>
    <linearGradient
       inkscape:collect="always"
       xlink:href="#linearGradient3617-33"
       id="linearGradient8675"
       gradientUnits="userSpaceOnUse"
       gradientTransform="matrix(1.0172,0,0,1.0172,-104.96513,951.63994)"
       x1="48"
       y1="90"
       x2="48"
       y2="5.9877" />
    <linearGradient
       id="linearGradient3617-33"
       y2="5.9877"
       gradientUnits="userSpaceOnUse"
       x2="48"
       gradientTransform="matrix(1.0172,0,0,1.0172,-1.1034,-1.1034)"
       y1="90"
       x1="48">
      <stop
         id="stop3189-8"
         style="stop-color:#cda060"
         offset="0" />
      <stop
         id="stop3191-6"
         style="stop-color:#dbbb8e"
         offset="1" />
    </linearGradient>
    <linearGradient
       inkscape:collect="always"
       xlink:href="#linearGradient3238"
       id="linearGradient8677"
       gradientUnits="userSpaceOnUse"
       gradientTransform="matrix(1.125,0,0,1,0.375,-4)"
       x1="5"
       y1="28"
       x2="21"
       y2="28" />
    <linearGradient
       id="linearGradient3238">
      <stop
         id="stop3240"
         style="stop-color:#784421"
         offset="0" />
      <stop
         id="stop3242"
         style="stop-color:#784421;stop-opacity:0"
         offset="1" />
    </linearGradient>
    <linearGradient
       inkscape:collect="always"
       xlink:href="#linearGradient3250"
       id="linearGradient8679"
       gradientUnits="userSpaceOnUse"
       gradientTransform="matrix(1.125,0,0,1,0.375,-10)"
       x1="5"
       y1="27"
       x2="21"
       y2="27" />
    <linearGradient
       id="linearGradient3250">
      <stop
         id="stop3252"
         style="stop-color:#c4875e"
         offset="0" />
      <stop
         id="stop3254"
         style="stop-color:#c4875e;stop-opacity:0"
         offset="1" />
    </linearGradient>
    <linearGradient
       inkscape:collect="always"
       xlink:href="#linearGradient3238"
       id="linearGradient8681"
       gradientUnits="userSpaceOnUse"
       gradientTransform="matrix(1.125,0,0,1,0.375,-4)"
       x1="5"
       y1="28"
       x2="21"
       y2="28" />
    <linearGradient
       id="linearGradient5737">
      <stop
         id="stop5739"
         style="stop-color:#784421"
         offset="0" />
      <stop
         id="stop5741"
         style="stop-color:#784421;stop-opacity:0"
         offset="1" />
    </linearGradient>
    <linearGradient
       inkscape:collect="always"
       xlink:href="#linearGradient3250"
       id="linearGradient8683"
       gradientUnits="userSpaceOnUse"
       gradientTransform="matrix(1.125,0,0,1,0.375,-10)"
       x1="5"
       y1="27"
       x2="21"
       y2="27" />
    <linearGradient
       id="linearGradient5744">
      <stop
         id="stop5746"
         style="stop-color:#c4875e"
         offset="0" />
      <stop
         id="stop5748"
         style="stop-color:#c4875e;stop-opacity:0"
         offset="1" />
    </linearGradient>
    <linearGradient
       inkscape:collect="always"
       xlink:href="#linearGradient3238"
       id="linearGradient8685"
       gradientUnits="userSpaceOnUse"
       gradientTransform="matrix(1.125,0,0,1,0.375,-4)"
       x1="5"
       y1="28"
       x2="21"
       y2="28" />
    <linearGradient
       id="linearGradient5751">
      <stop
         id="stop5753"
         style="stop-color:#784421"
         offset="0" />
      <stop
         id="stop5755"
         style="stop-color:#784421;stop-opacity:0"
         offset="1" />
    </linearGradient>
    <linearGradient
       inkscape:collect="always"
       xlink:href="#linearGradient3250"
       id="linearGradient8687"
       gradientUnits="userSpaceOnUse"
       gradientTransform="matrix(1.125,0,0,1,0.375,-10)"
       x1="5"
       y1="27"
       x2="21"
       y2="27" />
    <linearGradient
       id="linearGradient5758">
      <stop
         id="stop5760"
         style="stop-color:#c4875e"
         offset="0" />
      <stop
         id="stop5762"
         style="stop-color:#c4875e;stop-opacity:0"
         offset="1" />
    </linearGradient>
    <linearGradient
       inkscape:collect="always"
       xlink:href="#linearGradient3238"
       id="linearGradient8689"
       gradientUnits="userSpaceOnUse"
       gradientTransform="matrix(1.125,0,0,1,0.375,-4)"
       x1="5"
       y1="28"
       x2="21"
       y2="28" />
    <linearGradient
       id="linearGradient5765">
      <stop
         id="stop5767"
         style="stop-color:#784421"
         offset="0" />
      <stop
         id="stop5769"
         style="stop-color:#784421;stop-opacity:0"
         offset="1" />
    </linearGradient>
    <linearGradient
       inkscape:collect="always"
       xlink:href="#linearGradient3250"
       id="linearGradient8691"
       gradientUnits="userSpaceOnUse"
       gradientTransform="matrix(1.125,0,0,1,0.375,-10)"
       x1="5"
       y1="27"
       x2="21"
       y2="27" />
    <linearGradient
       id="linearGradient5772">
      <stop
         id="stop5774"
         style="stop-color:#c4875e"
         offset="0" />
      <stop
         id="stop5776"
         style="stop-color:#c4875e;stop-opacity:0"
         offset="1" />
    </linearGradient>
    <linearGradient
       inkscape:collect="always"
       xlink:href="#linearGradient3300"
       id="linearGradient8693"
       gradientUnits="userSpaceOnUse"
       gradientTransform="translate(-102.86173,937.42234)"
       x1="5"
       y1="64"
       x2="11.227"
       y2="64" />
    <linearGradient
       id="linearGradient3300"
       y2="64"
       gradientUnits="userSpaceOnUse"
       x2="11.227"
       gradientTransform="translate(1,-15.321)"
       y1="64"
       x1="5">
      <stop
         id="stop3296"
         style="stop-color:#72401f"
         offset="0" />
      <stop
         id="stop3298-4"
         style="stop-color:#72401f;stop-opacity:0"
         offset="1" />
    </linearGradient>
    <linearGradient
       y2="138.66"
       x2="48"
       y1="20.221001"
       x1="48"
       gradientUnits="userSpaceOnUse"
       id="linearGradient3203"
       xlink:href="#linearGradient3737-96"
       inkscape:collect="always" />
    <linearGradient
       id="linearGradient3737-96">
      <stop
         id="stop3739-2"
         style="stop-color:#fff"
         offset="0" />
      <stop
         id="stop3741-12"
         style="stop-color:#fff;stop-opacity:0"
         offset="1" />
    </linearGradient>
    <clipPath
       id="clipPath3613-07">
      <rect
         id="rect3615-31"
         style="fill:#ffffff"
         rx="6"
         ry="6"
         height="84"
         width="84"
         y="6"
         x="6" />
    </clipPath>
    <filter
       id="filter3794-190"
       height="1.3839999"
       width="1.3839999"
       color-interpolation-filters="sRGB"
       y="-0.192"
       x="-0.192">
      <feGaussianBlur
         id="feGaussianBlur3796-56"
         stdDeviation="5.28" />
    </filter>
  </defs>
  <sodipodi:namedview
     id="base"
     pagecolor="#ffffff"
     bordercolor="#666666"
     borderopacity="1.0"
     inkscape:pageopacity="0.0"
     inkscape:pageshadow="2"
     inkscape:zoom="3.959798"
     inkscape:cx="28.389459"
     inkscape:cy="57.490015"
     inkscape:document-units="px"
     inkscape:current-layer="layer1"
     showgrid="false"
     inkscape:window-width="1280"
     inkscape:window-height="725"
     inkscape:window-x="0"
     inkscape:window-y="25"
     inkscape:window-maximized="1" />
  <metadata
     id="metadata7">
    <rdf:RDF>
      <cc:Work
         rdf:about="">
        <dc:format>image/svg+xml</dc:format>
        <dc:type
           rdf:resource="http://purl.org/dc/dcmitype/StillImage" />
        <dc:title></dc:title>
      </cc:Work>
    </rdf:RDF>
  </metadata>
  <g
     inkscape:label="Layer 1"
     inkscape:groupmode="layer"
     id="layer1"
     transform="translate(0,-956.36217)">
    <g
       transform="translate(0,-1e-5)"
       id="g6505">
      <rect
         transform="translate(0,-7.8515622e-6)"
         y="964.36218"
         x="8"
         height="80"
         width="80"
         id="rect9283"
         style="fill:#000000;fill-opacity:1;stroke:none;filter:url(#filter6279)"
         rx="5"
         ry="5" />
      <rect
         transform="scale(1,-1)"
         ry="5"
         rx="5"
         style="opacity:0.5;fill:url(#linearGradient5734);fill-opacity:1;stroke:none"
         id="rect9285"
         width="80"
         height="80"
         x="8"
         y="-1044.3622" />
      <g
         transform="matrix(0.64880952,0,0,0.64880952,84.179624,355.13437)"
         id="g8654">
        <rect
           x="-97.861732"
           y="958.74335"
           width="84"
           height="84"
           ry="6"
           rx="6"
           style="fill:url(#linearGradient8675)"
           id="rect2419" />
        <path
           inkscape:connector-curvature="0"
           d="m -91.86173,958.74334 c -3.324,0 -6,2.676 -6,6 v 71.99996 c 0,3.324 2.676,6 6,6 h 12 v -83.99996 h -12 z"
           style="fill:#a05a2c"
           id="rect3170" />
        <g
           transform="translate(-103.86173,954.74334)"
           id="g3903">
          <rect
             x="6"
             y="20"
             width="18"
             height="2"
             style="fill:url(#linearGradient8677)"
             id="rect3236" />
          <rect
             x="6"
             y="16"
             width="18"
             height="2"
             style="fill:url(#linearGradient8679)"
             id="rect3246" />
        </g>
        <g
           transform="translate(-103.86173,972.74334)"
           id="g3907">
          <rect
             x="6"
             y="20"
             width="18"
             height="2"
             style="fill:url(#linearGradient8681)"
             id="rect3909" />
          <rect
             x="6"
             y="16"
             width="18"
             height="2"
             style="fill:url(#linearGradient8683)"
             id="rect3911" />
        </g>
        <g
           transform="translate(-103.86173,1008.7433)"
           id="g3917">
          <rect
             x="6"
             y="20"
             width="18"
             height="2"
             style="fill:url(#linearGradient8685)"
             id="rect3919" />
          <rect
             x="6"
             y="16"
             width="18"
             height="2"
             style="fill:url(#linearGradient8687)"
             id="rect3921" />
        </g>
        <g
           transform="translate(-103.86173,990.74334)"
           id="g3927">
          <rect
             x="6"
             y="20"
             width="18"
             height="2"
             style="fill:url(#linearGradient8689)"
             id="rect3929" />
          <rect
             x="6"
             y="16"
             width="18"
             height="2"
             style="fill:url(#linearGradient8691)"
             id="rect3931" />
        </g>
        <path
           inkscape:connector-curvature="0"
           d="m -91.86173,958.74334 c -3.324,0 -6,2.676 -6,6 v 71.99996 c 0,3.324 2.676,6 6,6 h 9.125 v -83.99996 h -9.125 z"
           style="fill:url(#linearGradient8693)"
           id="path3292" />
        <rect
           x="-79.861732"
           y="958.74335"
           width="1"
           height="84"
           style="opacity:0.1;fill:#ffffff"
           id="rect3941" />
        <rect
           x="-80.861732"
           y="958.74335"
           width="1"
           height="84"
           style="opacity:0.1"
           id="rect3943" />
        <path
           inkscape:connector-curvature="0"
           d="m -75.86173,962.74334 v 0.49836 5.2016 0.49836 h 0.49948 4.5578 v 4.1426 h -1.4984 v -2.118 -0.49836 h -0.49948 -2.5598 -0.49948 v 0.49836 2.6164 0.49836 h 0.49948 2.0604 v 53.32498 h -2.0604 -0.49948 v 0.4984 2.6475 0.4983 h 0.49948 2.5598 0.49948 v -0.4983 -2.1492 h 1.4984 v 4.1426 h -4.5578 -0.49948 v 0.498 5.202 0.498 h 0.49948 5.0572 0.49948 v -0.4984 -4.7033 h 4.2456 v 1.6508 h -2.154 -0.49948 v 0.4984 2.5541 0.4983 h 0.49948 2.6535 0.49948 v -0.4983 -2.0557 h 35.399 v 2.0557 0.4983 h 0.49948 2.6847 0.49948 v -0.4983 -2.5541 -0.4984 h -0.49948 -2.1852 v -1.6508 h 4.2456 v 4.7033 0.4984 h 0.49948 5.0572 0.499 v -0.498 -5.202 -0.4984 h -0.49948 -4.5578 v -4.1426 h 1.5297 v 2.1492 0.4984 h 0.49948 2.5286 0.49948 v -0.4984 -2.6475 -0.4983 h -0.49948 -2.0291 v -53.32504 h 2.0291 0.49948 v -0.49836 -2.6164 -0.49836 h -0.49948 -2.5286 -0.49948 v 0.49836 2.118 h -1.5297 v -4.1426 h 4.5578 0.49948 v -0.498 -5.202 -0.498 h -0.49948 -5.0572 -0.49948 v 0.49836 4.7033 h -4.2456 v -1.6508 h 2.1852 0.49948 v -0.46721 -2.5852 -0.49836 h -0.49948 -2.6847 -0.49948 v 0.49836 2.0869 h -35.399 v -2.0869 -0.49836 h -0.49948 -2.6535 -0.49948 v 0.49836 2.5852 0.46721 h 0.49948 2.154 v 1.6508 h -4.2456 v -4.7033 -0.49836 h -0.49948 -5.058 -0.499 z m 0.99896,0.99672 h 4.0583 v 4.2049 h -4.0583 v -4.2049 z m 7.6483,0 h 1.6545 v 1.5885 h -1.6545 v -1.5885 z m 39.051,0 h 1.6857 v 1.5885 h -1.6857 v -1.5885 z m 5.2445,0 h 4.0583 v 4.2049 h -4.0583 v -4.2049 z m -41.642,2.5541 h 35.399 v 1.6508 h -2.0916 -0.49948 v 0.49836 2.5852 0.46721 h 0.49948 2.5911 0.49948 v -0.46721 -2.0869 h 4.2456 v 4.1426 h -2.154 -0.49948 v 0.49836 2.5852 0.46721 h 0.49948 2.6535 0.49948 v -0.46721 -2.0869 h 1.5297 v 53.32502 h -1.5297 v -2.0557 -0.4984 h -0.49948 -2.6535 -0.49948 v 0.4984 2.5541 0.4983 h 0.49948 2.154 v 4.1426 h -4.2456 v -2.0557 -0.4983 h -0.49948 -2.5911 -0.49948 v 0.4983 2.5541 0.4984 h 0.49948 2.0916 v 1.6508 h -35.399 v -1.6508 h 2.1228 0.49948 v -0.4984 -2.5541 -0.4983 h -0.49948 -2.6223 -0.49948 v 0.4983 2.0557 h -4.2456 v -4.1426 h 2.1852 0.49948 v -0.4983 -2.5541 -0.4984 h -0.49948 -2.6847 -0.49948 v 0.4984 2.0557 h -1.4984 v -53.32502 h 1.4984 v 2.0869 0.46721 h 0.49948 2.6847 0.49948 v -0.46721 -2.5852 -0.49836 h -0.49948 -2.1852 v -4.1426 h 4.2456 v 2.0869 0.46721 h 0.49948 2.6223 0.49948 v -0.46721 -2.5852 -0.49836 h -0.49948 -2.1228 v -1.6508 z m 0,2.6475 h 1.6233 v 1.5885 h -1.6233 v -1.5885 z m 33.806,0 h 1.5921 v 1.5885 h -1.5921 v -1.5885 z m -44.108,2.4918 h 1.5609 v 1.6508 h -1.5609 v -1.6508 z m 54.472,0 h 1.5297 v 1.6508 h -1.5297 v -1.6508 z m -49.415,2.6475 h 1.6857 v 1.5885 h -1.6857 v -1.5885 z m 44.233,0 h 1.6545 v 1.5885 h -1.6545 v -1.5885 z m -44.233,51.76704 h 1.6857 v 1.5574 h -1.6857 v -1.5574 z m 44.233,0 h 1.6545 v 1.5574 h -1.6545 v -1.5574 z m -49.29,2.5541 h 1.5609 v 1.6508 h -1.5609 v -1.6508 z m 54.472,0 h 1.5297 v 1.6508 h -1.5297 v -1.6508 z m -44.171,2.5852 h 1.6233 v 1.5574 h -1.6233 v -1.5574 z m 33.806,0 h 1.5921 v 1.5574 h -1.5921 v -1.5574 z m -44.108,2.5541 h 4.0583 v 4.2049 h -4.0583 v -4.2049 z m 51.944,0 h 4.0583 v 4.2049 h -4.0583 v -4.2049 z m -44.296,2.6475 h 1.6545 v 1.5574 h -1.6545 v -1.5574 z m 39.051,0 h 1.6857 v 1.5574 h -1.6857 v -1.5574 z"
           style="opacity:0.55870002;fill:#784421;fill-rule:evenodd"
           id="path3189" />
        <path
           inkscape:connector-curvature="0"
           d="m -58.25573,982.46434 h -1.0168 l -5.5682,14.114 c -0.48419,1.2589 -0.58103,1.4284 -0.94417,1.8157 -0.38735,0.45998 -1.0652,0.75049 -1.7189,0.75049 h -0.09684 v 1.13777 h 6.4155 v -1.13777 h -0.48419 c -1.3073,0 -1.961,-0.45998 -1.961,-1.3799 0,-0.29051 0.07263,-0.62944 0.21788,-1.0168 l 0.79891,-2.1304 h 6.4155 l 1.3073,3.2441 c 0.14526,0.36314 0.19367,0.53261 0.19367,0.65365 0,0.38735 -0.60523,0.62944 -1.501,0.62944 h -1.0168 v 1.13778 h 7.5049 v -1.13778 h -0.33893 c -1.2105,0 -1.4768,-0.19368 -2.0336,-1.5494 l -6.173,-15.131 m -1.1863,3.9703 2.7357,6.8755 h -5.4229 l 2.6872,-6.8755 m 13.888,-3.9945 -4.164,0.2663 v 1.041 h 0.84733 c 0.89575,0 1.041,0.16947 1.041,1.2105 v 9.4174 c 0,3.2441 -0.12105,4.8177 -0.43577,6.24598 h 0.91996 l 1.1863,-1.88828 c 0.99258,1.30728 2.1304,1.91248 3.6314,1.91248 2.9777,0 5.205,-2.59038 5.205,-6.07658 0,-3.4861 -2.0336,-5.9313 -4.9387,-5.9313 -1.4768,0 -2.3725,0.5084 -3.2925,1.8883 v -8.0859 m 2.8567,7.4323 c 1.8157,0 2.8325,1.7673 2.8325,4.9387 0,3.0504 -0.99259,4.7935 -2.7599,4.7935 -1.9125,0 -3.0504,-1.7673 -3.0504,-4.745 0,-3.2198 1.041,-4.9871 2.9778,-4.9871 m 15.631,6.8513 c -0.7747,1.7431 -1.5978,2.4451 -2.8567,2.4451 -1.9367,0 -3.1472,-1.7673 -3.1472,-4.5998 0,-2.9293 1.1863,-4.8903 2.9778,-4.8903 0.72628,0 1.3557,0.33893 1.3557,0.72628 0,0.0726 -0.0484,0.14526 -0.14526,0.29051 -0.38734,0.45998 -0.48418,0.70207 -0.48418,1.1136 0,0.79891 0.60524,1.3557 1.4526,1.3557 0.84732,0 1.4768,-0.67786 1.4768,-1.6462 0,-1.622 -1.622,-2.8809 -3.7767,-2.8809 -3.1472,0 -5.3987,2.5904 -5.3987,6.1976 0,3.4377 2.0578,5.81019 5.0598,5.81019 2.1546,0 3.3893,-0.99258 4.4303,-3.55879 l -0.94417,-0.36314"
           style="fill:#784421"
           id="text3202" />
      </g>
      <g
         id="layer5"
         transform="translate(0,956.36218)">
        <rect
           x="15"
           y="15"
           width="66"
           height="66"
           ry="12"
           rx="12"
           clip-path="url(#clipPath3613-07)"
           style="opacity:0.1;fill:url(#linearGradient3203);stroke:#ffffff;stroke-width:0.5;stroke-linecap:round;filter:url(#filter3794-190)"
           id="rect3171" />
      </g>
    </g>
  </g>
</svg>
