<?xml version="1.0" encoding="UTF-8" standalone="no"?>
<!-- Created with Inkscape (http://www.inkscape.org/) -->

<svg
   xmlns:dc="http://purl.org/dc/elements/1.1/"
   xmlns:cc="http://creativecommons.org/ns#"
   xmlns:rdf="http://www.w3.org/1999/02/22-rdf-syntax-ns#"
   xmlns:svg="http://www.w3.org/2000/svg"
   xmlns="http://www.w3.org/2000/svg"
   xmlns:xlink="http://www.w3.org/1999/xlink"
   xmlns:sodipodi="http://sodipodi.sourceforge.net/DTD/sodipodi-0.dtd"
   xmlns:inkscape="http://www.inkscape.org/namespaces/inkscape"
   width="96"
   height="96"
   id="svg2"
   version="1.1"
   inkscape:version="0.48.1 r9760"
   sodipodi:docname="templat-ikon-96x96.svg">
  <defs
     id="defs4">
    <filter
       color-interpolation-filters="sRGB"
       inkscape:collect="always"
       id="filter6279">
      <feGaussianBlur
         inkscape:collect="always"
         stdDeviation="0.8"
         id="feGaussianBlur6281" />
    </filter>
    <linearGradient
       inkscape:collect="always"
       xlink:href="#linearGradient3700-9"
       id="linearGradient3045"
       gradientUnits="userSpaceOnUse"
       gradientTransform="translate(-0.02999997,-956.33218)"
       x1="48"
       y1="1052.3622"
       x2="48"
       y2="902.36218" />
    <linearGradient
       id="linearGradient3700-9">
      <stop
         id="stop3702-5"
         style="stop-color:#970303;stop-opacity:1"
         offset="0" />
      <stop
         id="stop3704-0-6"
         style="stop-color:#f31d0c;stop-opacity:1"
         offset="1" />
    </linearGradient>
    <radialGradient
       r="42"
       fy="-14.78724"
       fx="48"
       cy="-14.78724"
       cx="48"
       gradientTransform="matrix(0,0.99292131,-1.0017097,0,33.187478,-41.553843)"
       gradientUnits="userSpaceOnUse"
       id="radialGradient3948"
       xlink:href="#linearGradient3826"
       inkscape:collect="always" />
    <linearGradient
       id="linearGradient3826">
      <stop
         id="stop3828-8"
         style="stop-color:#ff3920;stop-opacity:1"
         offset="0" />
      <stop
         id="stop3830-3"
         style="stop-color:#ff3920;stop-opacity:0"
         offset="1" />
    </linearGradient>
    <linearGradient
       y2="138.66119"
       x2="48"
       y1="20.220806"
       x1="48"
       gradientUnits="userSpaceOnUse"
       id="linearGradient3973"
       xlink:href="#linearGradient3737-11"
       inkscape:collect="always" />
    <linearGradient
       id="linearGradient3737-11">
      <stop
         id="stop3739-5-3"
         style="stop-color:#ffffff;stop-opacity:1"
         offset="0" />
      <stop
         id="stop3741-9-8"
         style="stop-color:#ffffff;stop-opacity:0"
         offset="1" />
    </linearGradient>
    <clipPath
       id="clipPath3613-5">
      <rect
         width="84"
         height="84"
         rx="6"
         ry="6"
         x="6"
         y="6"
         id="rect3615-0-2"
         style="fill:#ffffff;fill-opacity:1;fill-rule:nonzero;stroke:none" />
    </clipPath>
    <filter
       x="-0.192"
       y="-0.192"
       width="1.3839999"
       height="1.3839999"
       color-interpolation-filters="sRGB"
       id="filter3794-7-5">
      <feGaussianBlur
         id="feGaussianBlur3796-7-9"
         stdDeviation="5.28" />
    </filter>
  </defs>
  <sodipodi:namedview
     id="base"
     pagecolor="#ffffff"
     bordercolor="#666666"
     borderopacity="1.0"
     inkscape:pageopacity="0.0"
     inkscape:pageshadow="2"
     inkscape:zoom="3.959798"
     inkscape:cx="28.389459"
     inkscape:cy="57.490015"
     inkscape:document-units="px"
     inkscape:current-layer="layer1"
     showgrid="false"
     inkscape:window-width="1280"
     inkscape:window-height="725"
     inkscape:window-x="0"
     inkscape:window-y="25"
     inkscape:window-maximized="1" />
  <metadata
     id="metadata7">
    <rdf:RDF>
      <cc:Work
         rdf:about="">
        <dc:format>image/svg+xml</dc:format>
        <dc:type
           rdf:resource="http://purl.org/dc/dcmitype/StillImage" />
        <dc:title></dc:title>
      </cc:Work>
    </rdf:RDF>
  </metadata>
  <g
     inkscape:label="Layer 1"
     inkscape:groupmode="layer"
     id="layer1"
     transform="translate(0,-956.36217)">
    <g
       transform="translate(0,956.36217)"
       style="enable-background:new"
       id="g3884">
      <rect
         y="8.0300026"
         x="7.9700003"
         height="80"
         width="80"
         id="rect9283"
         style="fill:#000000;fill-opacity:1;stroke:none;filter:url(#filter6279)"
         rx="5"
         ry="5" />
      <rect
         ry="5"
         rx="5"
         style="fill:url(#linearGradient3045);fill-opacity:1;stroke:none"
         id="rect9285"
         width="80"
         height="80"
         x="7.9700003"
         y="8.0300131" />
      <path
         d="M 12,6 C 8.676,6 6,8.676 6,12 l 0,36 84,0 0,-36 C 90,8.676 87.324,6 84,6 L 12,6 z"
         inkscape:connector-curvature="0"
         id="rect3819"
         style="opacity:0.8;fill:url(#radialGradient3948);fill-opacity:1;fill-rule:nonzero;stroke:none;enable-background:new" />
      <rect
         width="66"
         height="66"
         rx="12"
         ry="12"
         x="15"
         y="15"
         clip-path="url(#clipPath3613-5)"
         id="rect3171"
         style="opacity:0.1;fill:url(#linearGradient3973);fill-opacity:1;fill-rule:nonzero;stroke:#ffffff;stroke-width:0.5;stroke-linecap:round;stroke-linejoin:miter;stroke-miterlimit:4;stroke-opacity:1;stroke-dasharray:none;stroke-dashoffset:0;filter:url(#filter3794-7-5);enable-background:new" />
      <g
         transform="translate(102.86689,-806.10305)"
         id="g23557">
        <path
           style="opacity:0.3;fill:#640000;fill-opacity:1;fill-rule:evenodd;stroke:none;display:inline"
           id="path4144-7"
           inkscape:connector-curvature="0"
           d="m -44.844128,827.41101 c -2.51198,5.53015 -4.41548,11.21898 -5.67844,16.95176 -0.65554,0.52169 -1.32166,1.00914 -2.00415,1.50315 -7.78651,5.63611 -17.12688,9.31881 -25.887,9.10211 l 0,4.1754 c 7.75168,0.7319 12.81626,3.3853 15.78271,7.3486 2.68291,3.5844 3.79656,8.4678 3.50728,14.3631 l 2.67221,0 c 0.28564,-6.2789 -0.86691,-11.7527 -4.00832,-15.9498 -2.76239,-3.6906 -6.96965,-6.2744 -12.69297,-7.5991 7.65373,-1.0247 15.25307,-4.4277 21.79518,-9.102 -1.88674,10.9562 -1.5792,22.0827 0.75155,32.6509 l 18.45494,0 c -9.2215,-8.361 -13.2106,-23.3484 -13.19403,-37.4944 5.1999,-4.84061 9.24085,-10.3905 11.35688,-15.94972 l -2.83921,0 c -1.75935,4.07219 -4.70819,8.25108 -8.43416,12.10845 0.22687,-4.26201 0.9068,-8.34168 1.83714,-12.10845 l -1.41961,0 z" />
        <g
           transform="matrix(0.69495866,0,0,0.69495866,-88.290338,820.33096)"
           id="layer3-8"
           style="display:inline;enable-background:new">
          <path
             inkscape:connector-curvature="0"
             d="m 44.09375,12.96875 c -1.911928,-0.161166 -3.518698,0.765663 -4.5,2.09375 -1.019235,1.379426 -1.521531,3.127442 -1.5625,4.75 l 0.03125,0 c -0.650029,5.85122 0.609251,11.584234 2.03125,17.0625 -3.107633,10.107152 -7.828362,19.692653 -13.28125,28.78125 -0.777589,-0.173832 -1.564053,-0.201065 -2.28125,0 -0.956263,0.268086 -1.812972,0.788093 -2.625,1.375 -1.624056,1.173815 -3.081997,2.677408 -4.25,3.4375 A 0.86023224,0.86023224 0 0 0 17.5,70.59375 c -1.317175,1.323537 -2.924352,2.953457 -4.0625,4.84375 -1.138148,1.890293 -1.793728,4.127785 -1.03125,6.4375 A 0.86023224,0.86023224 0 0 0 12.5,82.0625 c 2.408682,3.535344 7.62327,3.73184 10.75,1.125 0.01839,-0.01348 0.04416,-0.01772 0.0625,-0.03125 C 28.936481,79.007772 32.158139,72.78199 35.75,67.3125 43.727178,64.887377 51.905362,63.127 60.1875,62.21875 65.99536,64.974299 72.567369,67.676715 79.375,66.75 a 0.86023224,0.86023224 0 0 0 0.03125,0 c 1.718005,-0.312428 3.026226,-1.302193 3.78125,-2.59375 0.755024,-1.291557 0.98196,-2.855541 0.75,-4.375 -0.322689,-2.315143 -1.903586,-3.784599 -3.71875,-4.625 C 78.403586,54.315849 76.312874,54.00121 74.625,53.8125 70.500962,53.413032 66.383883,53.667997 62.34375,53.90625 56.614669,50.857332 52.236452,45.509726 50,39.375 a 0.86023224,0.86023224 0 0 0 -0.09375,-0.1875 c -1.520566,-2.256078 -0.836965,-4.834306 -0.5625,-7.8125 10e-4,-0.01106 -10e-4,-0.02017 0,-0.03125 0.386198,-3.567353 0.242361,-7.27597 0.40625,-10.5625 0.53443,-1.845512 0.385207,-3.822703 -0.53125,-5.375 -0.925025,-1.56681 -2.692331,-2.619484 -4.90625,-2.4375 -0.07707,0.0063 -0.14061,-0.0094 -0.21875,0 z m 1.09375,35.1875 c 1.712346,2.873896 3.813311,5.478217 6.28125,7.75 -3.841711,0.84796 -7.626267,1.919615 -11.34375,3.21875 1.862601,-3.553689 3.588945,-7.207543 5.0625,-10.96875 z"
             id="path3717-6"
             style="opacity:0.05;fill:#000000;fill-opacity:1;fill-rule:nonzero;stroke:none" />
          <path
             d="M 44.1875,13.8125 C 40.786367,13.375428 38.992048,16.940988 38.918653,19.847747 38.263955,25.618415 39.552553,31.352166 41,36.90625 37.80615,47.383335 32.903087,57.270588 27.25,66.625 c -3.365861,-1.443661 -6.514163,2.842945 -9.140497,4.552062 -2.625855,2.638539 -6.222925,6.38288 -4.892878,10.41189 2.092917,3.071879 6.79197,3.228554 9.526687,0.901923 5.540741,-4.062403 8.761202,-10.320119 12.475438,-15.928375 8.192496,-2.508197 16.603134,-4.301747 25.125,-5.21875 5.830294,2.775613 12.321176,5.456648 18.909325,4.559811 2.968821,-0.539895 4.24881,-3.312603 3.838666,-5.999256 -0.55654,-3.992911 -5.243269,-4.88403 -8.55754,-5.254576 C 70.393895,54.248685 66.234973,54.505817 62.09375,54.75 56.07413,51.605851 51.498864,46.03789 49.172759,39.657241 47.414262,37.048142 48.24231,34.179791 48.504834,31.294581 48.885719,27.805386 48.750012,24.090016 48.917154,20.738245 50.021701,17.361038 48.243325,13.323916 44.1875,13.8125 z m 0.84375,32.53125 c 2.040067,3.810076 4.771601,7.25842 8.09375,10.03125 -5.003495,1.029229 -9.935514,2.423021 -14.71875,4.21875 2.475226,-4.61751 4.821921,-9.323998 6.625,-14.25 z"
             inkscape:connector-curvature="0"
             id="path3711-5"
             style="opacity:0.1;fill:#000000;fill-opacity:1;fill-rule:nonzero;stroke:none" />
          <path
             inkscape:connector-curvature="0"
             d="m 44.1875,14.84375 c -0.586982,0 -0.994751,0.01781 -1.4375,0.125 -0.442749,0.107191 -0.848183,0.36172 -1.125,0.59375 -0.814165,0.682431 -1.164742,1.675913 -1.4375,2.90625 -0.272758,1.230337 -0.40897,2.731692 -0.40625,4.5 0.0056,3.641764 0.561834,7.131427 1.6875,11.5625 l 0.59375,2.375 L 41.5,38.6875 c -2.062515,6.590899 -5.058605,13.464797 -9.5,21.75 -1.760538,3.284196 -3.397431,6.109313 -4.9375,8.5625 0.07059,-0.09391 0.131561,-0.167802 0.1875,-0.4375 0.03617,-0.174405 0.05291,-0.445027 -0.09375,-0.75 -0.146657,-0.304973 -0.437669,-0.516099 -0.65625,-0.59375 -0.437163,-0.155303 -0.607411,-0.0636 -0.75,-0.03125 -0.285178,0.0647 -0.458461,0.138583 -0.6875,0.25 -0.916157,0.445669 -2.348116,1.366392 -3.9375,2.5625 -3.249659,2.445568 -5.896018,5.470189 -6.84375,8.15625 -0.306991,0.870078 -0.550706,1.56519 -0.375,2.375 0.175706,0.80981 0.845576,1.417427 1.5,1.75 0.994202,0.505245 1.87149,0.806819 2.78125,0.84375 0.90976,0.03693 1.748998,-0.221437 2.625,-0.65625 3.57511,-1.774549 7.554752,-6.714294 12.125,-14.28125 0.727441,-1.204423 1.213914,-1.939077 1.5,-2.3125 0.109502,-0.142931 0.157739,-0.188933 0.1875,-0.21875 0.07576,-0.0159 0.155982,-0.03924 0.25,-0.0625 0.188035,-0.04652 0.435159,-0.109607 0.71875,-0.1875 0.567182,-0.155785 1.30966,-0.357455 2.09375,-0.59375 6.122861,-1.845197 13.484697,-3.374461 20.71875,-4.25 l 2.09375,-0.25 0.96875,0.46875 c 3.31048,1.660703 7.767194,3.236194 11.1875,3.90625 1.186797,0.2325 2.505843,0.346281 3.6875,0.375 1.181657,0.02872 2.130536,0.04294 2.96875,-0.25 0.454578,-0.158863 0.921116,-0.410772 1.375,-0.6875 0.226942,-0.138364 0.456951,-0.303522 0.65625,-0.46875 0.09965,-0.08261 0.201037,-0.144402 0.3125,-0.28125 0.111463,-0.136848 0.312471,-0.324889 0.3125,-0.84375 A 1.1433381,1.1433381 0 0 0 81.75,61.875 c 0.01614,-0.02018 0.08099,-0.01228 0.09375,-0.03125 0.154054,-0.229063 0.21611,-0.411082 0.25,-0.5625 C 82.16153,60.978414 82.13778,60.710337 82.125,60.4375 82.099441,59.891826 82.045349,59.353458 81.6875,58.75 80.719871,57.118255 78.696072,56.376456 76,55.875 73.65645,55.439117 68.852011,55.336513 64.9375,55.59375 l -3.09375,0.1875 -0.90625,-0.5 C 60.92414,55.27315 60.91958,55.25809 60.90625,55.25 54.064869,51.096517 50.598958,46.615122 47.28125,37.625 c -0.2499,-0.677168 -0.349422,-1.023402 -0.375,-1.1875 -0.02558,-0.164098 -0.01517,-0.223925 0.0625,-0.625 0.32811,-1.694347 0.590934,-4.9868 0.75,-8 0.07953,-1.5066 0.122993,-2.918936 0.125,-4 10e-4,-0.540532 -0.0036,-1.008782 -0.03125,-1.375 -0.01384,-0.183109 -0.02634,-0.324652 -0.0625,-0.5 -0.01808,-0.08767 -0.0396,-0.180333 -0.09375,-0.3125 -0.04493,-0.109675 -0.169886,-0.307674 -0.40625,-0.5 0.193674,-0.100674 0.431829,-0.14275 0.53125,-0.28125 0.198842,-0.276999 0.213963,-0.474325 0.25,-0.65625 0.07207,-0.36385 0.10493,-0.720568 0.125,-1.25 0.04713,-1.243229 -0.06203,-2.317591 -0.84375,-3.125 -0.781721,-0.807409 -1.87729,-0.96875 -3.125,-0.96875 z m 0.625,3.8125 c 0.395231,0.34061 0.673077,0.809758 0.78125,1.71875 a 1.1433381,1.1433381 0 0 0 0.3125,0.6875 1.1433381,1.1433381 0 0 0 -0.46875,0.6875 c -0.326258,1.461489 -0.612783,2.767304 -0.90625,4.1875 -0.13658,-1.300506 -0.207333,-2.745131 -0.15625,-4.0625 0.05761,-1.485734 0.28969,-2.823519 0.4375,-3.21875 z m 0.0625,25.3125 c 0.180334,0.361599 0.336202,0.712908 0.53125,1.09375 2.664441,5.20244 5.727245,8.879165 9.75,11.875 -6.536967,1.181795 -13.813162,3.367498 -18.8125,5.46875 4.096307,-7.357606 6.892487,-13.389804 8.53125,-18.4375 z M 70.21875,59.625 c 1.464928,-0.08527 2.98927,-0.115547 4.375,0 1.455017,0.121325 2.776935,0.375739 3.6875,0.75 0.910565,0.374261 1.322508,0.792658 1.4375,1.1875 a 1.1433381,1.1433381 0 0 0 0,0.0625 c -0.837274,0.20935 -1.852116,0.213547 -3.0625,-0.03125 -1.47894,-0.299112 -3.090595,-0.855091 -4.53125,-1.28125 -0.0066,-0.0021 -0.02455,0.0021 -0.03125,0 -0.455722,-0.144181 -1.21031,-0.444344 -1.875,-0.6875 z M 26.75,69.4375 c -1.28038,2.01132 -2.510194,3.833794 -3.625,5.25 -1.895572,2.408061 -3.442472,3.633312 -4.6875,4.3125 0.02811,-0.05733 3.83e-4,-0.06599 0.03125,-0.125 0.406688,-0.777457 1.024058,-1.720304 1.78125,-2.71875 1.514383,-1.996892 3.60782,-4.226729 5.78125,-6.0625 0.304537,-0.257225 0.533038,-0.464018 0.71875,-0.65625 z"
             id="path3707-5"
             style="opacity:0.15;fill:#000000;fill-opacity:1;fill-rule:nonzero;stroke:none" />
          <path
             d="m 44.196002,15.999996 c -1.137928,0 -1.362376,0.0532 -1.820133,0.436895 -0.911322,0.763868 -1.430662,3.114283 -1.425405,6.531569 0.0054,3.533302 0.48922,6.896094 1.600839,11.271874 l 0.701738,2.730589 -0.657879,2.053403 c -2.089546,6.67728 -5.119003,13.626365 -9.583112,21.953939 -6.765538,12.620775 -11.99409,19.246351 -15.635602,19.835007 -0.585915,0.09472 -0.614021,0.0703 -0.614021,-0.349516 -10e-7,-2.130031 4.038833,-7.456177 8.530504,-11.250033 2.294431,-1.937974 -0.375629,-0.64277 -3.464832,1.682043 -3.113131,2.342822 -5.691881,5.380573 -6.491078,7.645657 -0.56829,1.610657 -0.448076,2.180145 0.592091,2.70875 1.858511,0.944479 2.804286,0.981631 4.385863,0.196598 3.074376,-1.526003 7.140156,-6.355462 11.666398,-13.849557 1.46763,-2.429951 1.928167,-3.036415 2.302578,-3.036415 0.131932,10e-7 1.51892,-0.384476 3.070104,-0.851944 6.199731,-1.868363 13.64416,-3.376402 20.942498,-4.259721 l 2.434155,-0.305825 1.228041,0.611651 c 3.198169,1.604362 7.654433,3.161082 10.9208,3.800981 2.209176,0.43279 5.085944,0.512551 6.052493,0.174758 0.609016,-0.212835 1.877743,-0.964905 1.877757,-1.21206 -2.479082,1.162682 -6.215744,-0.273989 -9.026716,-1.103479 -1.853359,-0.583892 -5.932076,-2.178545 -6.162138,-2.40292 4.938369,-0.955846 14.201624,-1.167838 15.197018,2.250006 0.291634,-10e-7 0.216688,-1.372022 -0.109646,-1.922334 -0.611203,-1.030692 -2.382313,-1.862766 -4.934095,-2.337385 -2.065995,-0.38426 -6.961454,-0.491829 -10.789227,-0.240292 l -3.399044,0.218447 -1.228042,-0.74272 C 53.316212,51.972374 49.586812,47.160263 46.2135,38.019469 c -0.506216,-1.37172 -0.540276,-1.559924 -0.372799,-2.424763 0.589659,-3.044973 1.136873,-13.333024 0.723668,-13.587414 -0.752577,3.371203 -1.361186,6.743105 -2.127144,9.786433 -0.158218,0 -0.621801,-2.372162 -0.98682,-5.133508 -0.397139,-3.004344 -0.252915,-7.068679 0.285081,-8.453905 0.215588,-0.555085 0.496778,-1.060881 0.635951,-1.11408 1.379024,0.395523 2.14654,1.487716 2.346437,3.167484 0.195667,0 0.245907,-0.321005 0.285081,-1.354373 0.08616,-2.272756 -0.52292,-2.905347 -2.806953,-2.905347 z m 0.548233,25.077734 c 0.07815,-0.02488 0.122599,0.143832 0.219293,0.415048 0.119034,0.333881 0.785276,1.700894 1.469264,3.036417 2.943012,5.746362 6.202052,9.515079 10.898871,12.604401 0.237953,0.156512 0.384976,0.334908 0.32894,0.393204 -0.05604,0.0583 -1.012083,0.264093 -2.105214,0.458739 -7.454331,1.327344 -16.734741,4.119712 -21.249509,6.378656 -0.07182,0.03594 -0.131575,-0.03462 -0.131575,-0.152913 1e-6,-0.118293 0.443784,-1.042859 1.008747,-2.053403 4.255372,-7.611529 7.114792,-13.763456 8.727869,-18.830144 0.51172,-1.607315 0.703059,-2.208546 0.833314,-2.250005 z"
             inkscape:connector-curvature="0"
             id="path3703-8"
             style="opacity:0.3;fill:#000000;fill-opacity:1;fill-rule:nonzero;stroke:none" />
          <path
             d="m 44.196002,14.999996 c -1.137928,0 -1.362376,0.0532 -1.820133,0.436895 -0.911322,0.763868 -1.430662,3.114283 -1.425405,6.531569 0.0054,3.533302 0.48922,6.896094 1.600839,11.271874 l 0.701738,2.730589 -0.657879,2.053403 c -2.089546,6.67728 -5.119003,13.626365 -9.583112,21.953939 -6.765538,12.620775 -11.99409,19.246351 -15.635602,19.835007 -0.585915,0.09472 -0.614021,0.0703 -0.614021,-0.349516 -10e-7,-2.130031 4.038833,-7.456177 8.530504,-11.250033 2.294431,-1.937974 -0.375629,-0.64277 -3.464832,1.682043 -3.113131,2.342822 -5.691881,5.380573 -6.491078,7.645657 -0.56829,1.610657 -0.448076,2.180145 0.592091,2.70875 1.858511,0.944479 2.804286,0.981631 4.385863,0.196598 3.074376,-1.526003 7.140156,-6.355462 11.666398,-13.849557 1.46763,-2.429951 1.928167,-3.036415 2.302578,-3.036415 0.131932,10e-7 1.51892,-0.384476 3.070104,-0.851944 6.199731,-1.868363 13.64416,-3.376402 20.942498,-4.259721 l 2.434155,-0.305825 1.228041,0.611651 c 3.198169,1.604362 7.654433,3.161082 10.9208,3.800981 2.209176,0.43279 5.085944,0.512551 6.052493,0.174758 0.609016,-0.212835 1.877743,-0.964905 1.877757,-1.21206 -2.479082,1.162682 -6.215744,-0.273989 -9.026716,-1.103479 -1.853359,-0.583892 -5.932076,-2.178545 -6.162138,-2.40292 4.938369,-0.955846 14.201624,-1.167838 15.197018,2.250006 0.291634,-10e-7 0.216688,-1.372022 -0.109646,-1.922334 -0.611203,-1.030692 -2.382313,-1.862766 -4.934095,-2.337385 -2.065995,-0.38426 -6.961454,-0.491829 -10.789227,-0.240292 l -3.399044,0.218447 -1.228042,-0.74272 C 53.316212,50.972374 49.586812,46.160263 46.2135,37.019469 c -0.506216,-1.37172 -0.540276,-1.559924 -0.372799,-2.424763 0.589659,-3.044973 1.136873,-13.333024 0.723668,-13.587414 -0.752577,3.371203 -1.361186,6.743105 -2.127144,9.786433 -0.158218,0 -0.621801,-2.372162 -0.98682,-5.133508 -0.397139,-3.004344 -0.252915,-7.068679 0.285081,-8.453905 0.215588,-0.555085 0.496778,-1.060881 0.635951,-1.11408 1.379024,0.395523 2.14654,1.487716 2.346437,3.167484 0.195667,0 0.245907,-0.321005 0.285081,-1.354373 0.08616,-2.272756 -0.52292,-2.905347 -2.806953,-2.905347 z m 0.548233,25.077734 c 0.07815,-0.02488 0.122599,0.143832 0.219293,0.415048 0.119034,0.333881 0.785276,1.700894 1.469264,3.036417 2.943012,5.746362 6.202052,9.515079 10.898871,12.604401 0.237953,0.156512 0.384976,0.334908 0.32894,0.393204 -0.05604,0.0583 -1.012083,0.264093 -2.105214,0.458739 -7.454331,1.327344 -16.734741,4.119712 -21.249509,6.378656 -0.07182,0.03594 -0.131575,-0.03462 -0.131575,-0.152913 1e-6,-0.118293 0.443784,-1.042859 1.008747,-2.053403 4.255372,-7.611529 7.114792,-13.763456 8.727869,-18.830144 0.51172,-1.607315 0.703059,-2.208546 0.833314,-2.250005 z"
             inkscape:connector-curvature="0"
             id="rect3364-3"
             style="fill:#ffffff;fill-opacity:1;fill-rule:nonzero;stroke:none" />
        </g>
      </g>
    </g>
  </g>
</svg>
