<?xml version="1.0" encoding="UTF-8" standalone="no"?>
<!-- Created with Inkscape (http://www.inkscape.org/) -->

<svg
   xmlns:dc="http://purl.org/dc/elements/1.1/"
   xmlns:cc="http://creativecommons.org/ns#"
   xmlns:rdf="http://www.w3.org/1999/02/22-rdf-syntax-ns#"
   xmlns:svg="http://www.w3.org/2000/svg"
   xmlns="http://www.w3.org/2000/svg"
   xmlns:xlink="http://www.w3.org/1999/xlink"
   xmlns:sodipodi="http://sodipodi.sourceforge.net/DTD/sodipodi-0.dtd"
   xmlns:inkscape="http://www.inkscape.org/namespaces/inkscape"
   width="96"
   height="96"
   id="svg2"
   version="1.1"
   inkscape:version="0.48.1 r9760"
   sodipodi:docname="adobe-air.svg">
  <defs
     id="defs4">
    <filter
       color-interpolation-filters="sRGB"
       inkscape:collect="always"
       id="filter6221">
      <feGaussianBlur
         inkscape:collect="always"
         stdDeviation="1.2"
         id="feGaussianBlur6223" />
    </filter>
    <linearGradient
       inkscape:collect="always"
       xlink:href="#linearGradient3688"
       id="linearGradient5387"
       gradientUnits="userSpaceOnUse"
       gradientTransform="matrix(0.95238095,0,0,0.95238095,2.2857041,958.6479)"
       x1="48"
       y1="90"
       x2="47.998997"
       y2="-59.097267" />
    <linearGradient
       id="linearGradient3688">
      <stop
         id="stop3690-0"
         style="stop-color:#ad0d0d;stop-opacity:1"
         offset="0" />
      <stop
         id="stop3692-9"
         style="stop-color:#e02f11;stop-opacity:1"
         offset="1" />
    </linearGradient>
    <linearGradient
       inkscape:collect="always"
       xlink:href="#linearGradient3694-0"
       id="linearGradient5502"
       gradientUnits="userSpaceOnUse"
       gradientTransform="matrix(0.59136097,-0.15844727,-0.15844727,-0.59136097,-32.61164,954.44126)"
       x1="-73.494293"
       y1="72.699486"
       x2="-50.243786"
       y2="159.47563" />
    <linearGradient
       id="linearGradient3694-0">
      <stop
         id="stop3696-7"
         style="stop-color:#e6e6e6;stop-opacity:1"
         offset="0" />
      <stop
         id="stop3698-2"
         style="stop-color:#f5f5f5;stop-opacity:1"
         offset="1" />
    </linearGradient>
    <linearGradient
       inkscape:collect="always"
       xlink:href="#linearGradient3694-0"
       id="linearGradient5504"
       gradientUnits="userSpaceOnUse"
       gradientTransform="matrix(0.59136097,-0.15844727,-0.15844727,-0.59136097,-32.61164,955.44126)"
       x1="-73.494293"
       y1="72.699486"
       x2="-50.243786"
       y2="159.47563" />
    <linearGradient
       id="linearGradient5411">
      <stop
         id="stop5413"
         style="stop-color:#e6e6e6;stop-opacity:1"
         offset="0" />
      <stop
         id="stop5415"
         style="stop-color:#f5f5f5;stop-opacity:1"
         offset="1" />
    </linearGradient>
    <linearGradient
       inkscape:collect="always"
       xlink:href="#linearGradient4085-5"
       id="linearGradient5506"
       gradientUnits="userSpaceOnUse"
       gradientTransform="translate(-135.96571,846.14137)"
       x1="58"
       y1="19"
       x2="58"
       y2="120" />
    <linearGradient
       id="linearGradient4085-5">
      <stop
         id="stop4087-8"
         style="stop-color:#782121;stop-opacity:1"
         offset="0" />
      <stop
         id="stop4089-4"
         style="stop-color:#782121;stop-opacity:0"
         offset="1" />
    </linearGradient>
    <linearGradient
       y2="138.66119"
       x2="48"
       y1="20.220806"
       x1="48"
       gradientUnits="userSpaceOnUse"
       id="linearGradient3060-9"
       xlink:href="#linearGradient3737-62"
       inkscape:collect="always" />
    <linearGradient
       id="linearGradient3737-62">
      <stop
         id="stop3739-17"
         style="stop-color:#ffffff;stop-opacity:1"
         offset="0" />
      <stop
         id="stop3741-85"
         style="stop-color:#ffffff;stop-opacity:0"
         offset="1" />
    </linearGradient>
    <clipPath
       id="clipPath3613-7">
      <rect
         width="84"
         height="84"
         rx="6"
         ry="6"
         x="6"
         y="6"
         id="rect3615-4"
         style="fill:#ffffff;fill-opacity:1;fill-rule:nonzero;stroke:none" />
    </clipPath>
    <filter
       x="-0.192"
       y="-0.192"
       width="1.3839999"
       height="1.3839999"
       color-interpolation-filters="sRGB"
       id="filter3794-18">
      <feGaussianBlur
         id="feGaussianBlur3796-5"
         stdDeviation="5.28" />
    </filter>
    <linearGradient
       y2="138.66119"
       x2="48"
       y1="20.220806"
       x1="48"
       gradientUnits="userSpaceOnUse"
       id="linearGradient5441"
       xlink:href="#linearGradient3737-62"
       inkscape:collect="always" />
  </defs>
  <sodipodi:namedview
     id="base"
     pagecolor="#ffffff"
     bordercolor="#666666"
     borderopacity="1.0"
     inkscape:pageopacity="0.0"
     inkscape:pageshadow="2"
     inkscape:zoom="3.959798"
     inkscape:cx="28.389459"
     inkscape:cy="57.490015"
     inkscape:document-units="px"
     inkscape:current-layer="layer1"
     showgrid="false"
     inkscape:window-width="1280"
     inkscape:window-height="725"
     inkscape:window-x="0"
     inkscape:window-y="25"
     inkscape:window-maximized="1" />
  <metadata
     id="metadata7">
    <rdf:RDF>
      <cc:Work
         rdf:about="">
        <dc:format>image/svg+xml</dc:format>
        <dc:type
           rdf:resource="http://purl.org/dc/dcmitype/StillImage" />
        <dc:title></dc:title>
      </cc:Work>
    </rdf:RDF>
  </metadata>
  <g
     inkscape:label="Layer 1"
     inkscape:groupmode="layer"
     id="layer1"
     transform="translate(0,-956.36217)">
    <g
       transform="translate(-1.0754402e-8,-1.0135559e-5)"
       id="g5416">
      <g
         style="display:inline"
         id="layer5"
         transform="translate(126.5,968.36218)" />
      <rect
         transform="translate(-1.7480468e-7,-5.2343748e-6)"
         y="964.54077"
         x="8"
         height="80"
         width="80"
         id="rect10662"
         style="fill:#000000;fill-opacity:1;stroke:none;filter:url(#filter6221)"
         rx="5"
         ry="5" />
      <rect
         width="80"
         height="80"
         rx="5"
         ry="5"
         x="8"
         y="964.36218"
         id="rect2419"
         style="fill:url(#linearGradient5387);fill-opacity:1;fill-rule:nonzero;stroke:none" />
      <g
         transform="matrix(0.6691358,0,0,0.6691358,112.60404,448.47083)"
         id="g20803" />
      <g
         transform="translate(-167.44501,25.15255)"
         id="g5495">
        <g
           id="g9987"
           transform="matrix(0.83300302,0,0,0.83300302,288.62746,234.31404)">
          <path
             d="m -60.502091,905.7186 c -0.1751,-0.23693 -0.45245,-0.56999 -0.76469,-0.89019 -3.24854,-3.33364 -5.674837,-7.26972 -6.981966,-11.62947 -0.06,-0.20265 -0.119999,-0.4053 -0.173876,-0.60856 -0.05633,-0.20449 -0.105305,-0.41326 -0.155508,-0.62081 -1.046315,-4.42648 -0.918358,-9.05072 0.233263,-13.55986 0,0 0.175712,-0.74448 0.221018,-1.05121 0.967948,-5.69749 -2.539565,-11.29824 -8.23032,-12.82394 -5.802182,-1.55447 -11.748853,1.69896 -13.646179,7.31074 -0.07837,0.20938 -0.238161,0.73836 -0.239998,0.74631 -1.247129,4.42036 -3.41384,8.43359 -6.475032,11.71886 -3.477511,3.65016 -7.898491,6.24544 -12.855171,7.57339 -6.03789,1.61753 -9.625,7.83481 -8.00685,13.87515 1.6206,6.03912 7.82808,9.62623 13.87026,8.00624 4.508523,-1.15101 9.132758,-1.28141 13.561078,-0.23571 0.206324,0.0514 0.413873,0.10224 0.619585,0.15796 0.206325,0.0551 0.410812,0.1151 0.6153,0.17326 4.357912,1.30836 8.298278,3.73282 11.627017,6.9832 0.408975,0.40959 0.762237,0.69795 1.092233,0.93121 4.47485,3.41016 10.842126,3.14873 14.922086,-0.93121 4.14118,-4.13873 4.38118,-10.67806 0.76775,-15.12536 z m -27.437464,2.04672 c -5.911161,-1.58386 -9.420511,-7.66217 -7.83665,-13.57333 1.585085,-5.91177 7.662162,-9.42112 13.573323,-7.83726 5.913609,1.58509 9.421735,7.66155 7.837262,13.57332 -1.584473,5.91178 -7.660325,9.42174 -13.573935,7.83727 z"
             inkscape:connector-curvature="0"
             id="path3860-6"
             style="fill:url(#linearGradient5502);fill-opacity:1" />
          <path
             d="m -79.59071,863.14137 c -4.638502,0.13193 -8.864673,3.15918 -10.40625,7.71875 -0.07837,0.20939 -0.248163,0.71079 -0.25,0.71875 -1.247129,4.42036 -3.407558,8.43348 -6.46875,11.71875 -3.47751,3.65016 -7.88707,6.26581 -12.84375,7.59375 -5.15747,1.38167 -8.51054,6.10187 -8.375,11.21875 0.29599,-4.72289 3.55575,-8.92769 8.375,-10.21875 4.95668,-1.32794 9.36624,-3.94359 12.84375,-7.59375 3.061192,-3.28527 5.221621,-7.29839 6.46875,-11.71875 0.0018,-0.008 0.17163,-0.50936 0.25,-0.71875 1.897326,-5.61178 7.854068,-8.86697 13.65625,-7.3125 4.871375,1.30602 8.10978,5.59231 8.34375,10.375 0.208379,-5.17482 -3.13409,-9.97828 -8.34375,-11.375 -1.087909,-0.29146 -2.179576,-0.43669 -3.25,-0.40625 z m 10.3125,22.78125 c 0.0099,2.03925 0.217627,4.07468 0.6875,6.0625 0.0502,0.20755 0.09992,0.38926 0.15625,0.59375 0.05388,0.20326 0.1275,0.42235 0.1875,0.625 1.307129,4.35975 3.72021,8.29136 6.96875,11.625 0.31224,0.3202 0.60615,0.63806 0.78125,0.875 1.580876,1.94569 2.429514,4.31717 2.53125,6.6875 0.125969,-2.70808 -0.724535,-5.46385 -2.53125,-7.6875 -0.1751,-0.23694 -0.46901,-0.5548 -0.78125,-0.875 -3.24854,-3.33364 -5.661621,-7.26525 -6.96875,-11.625 -0.06,-0.20265 -0.133623,-0.42174 -0.1875,-0.625 -0.05633,-0.20449 -0.106047,-0.3862 -0.15625,-0.59375 -0.392368,-1.65993 -0.617454,-3.36345 -0.6875,-5.0625 z m -4.71875,10.78125 c -0.04416,0.73502 -0.176941,1.47978 -0.375,2.21875 -1.584473,5.91177 -7.64889,9.42822 -13.5625,7.84375 -4.71561,-1.26352 -7.895301,-5.38258 -8.1875,-10 -0.142785,5.0142 3.131252,9.64521 8.1875,11 5.91361,1.58447 11.978027,-1.93198 13.5625,-7.84375 0.2886,-1.07679 0.408066,-2.15917 0.375,-3.21875 z"
             inkscape:connector-curvature="0"
             id="path4060-4"
             style="opacity:0.3;fill:#000000;fill-opacity:1" />
          <path
             d="m -67.99696,875.92262 c -0.01924,0.47788 -0.04317,0.95584 -0.125,1.4375 -0.04531,0.30673 -0.21875,1.0625 -0.21875,1.0625 -0.661116,2.58858 -0.979598,5.20725 -0.9375,7.8125 0.04515,-2.27301 0.36169,-4.55793 0.9375,-6.8125 0,0 0.173444,-0.75577 0.21875,-1.0625 0.139369,-0.82035 0.164354,-1.63304 0.125,-2.4375 z m -17.53125,10.0625 c -4.72032,0.18809 -8.962118,3.41543 -10.25,8.21875 -0.320341,1.19555 -0.417831,2.39184 -0.34375,3.5625 0.02414,-0.8478 0.114681,-1.70759 0.34375,-2.5625 1.585085,-5.91177 7.651339,-9.42761 13.5625,-7.84375 4.804807,1.28788 8.031239,5.5295 8.21875,10.25 0.262999,-5.10966 -3.076022,-9.87154 -8.21875,-11.25 -1.108343,-0.29697 -2.223195,-0.4184 -3.3125,-0.375 z m -32.40625,17.125 c -0.0748,1.19429 0.0172,2.43711 0.34375,3.65625 1.6206,6.03912 7.83282,9.61998 13.875,8 4.508523,-1.15101 9.13418,-1.2957 13.5625,-0.25 0.206324,0.0514 0.419288,0.10054 0.625,0.15625 0.206325,0.0551 0.420512,0.12934 0.625,0.1875 4.357912,1.30835 8.296261,3.71837 11.625,6.96875 0.408975,0.40959 0.763754,0.70424 1.09375,0.9375 4.47485,3.41017 10.82629,3.14245 14.90625,-0.9375 2.329414,-2.32804 3.443303,-5.38993 3.3125,-8.4375 -0.125969,2.70808 -1.24191,5.36813 -3.3125,7.4375 -4.07996,4.07995 -10.4314,4.34767 -14.90625,0.9375 -0.329996,-0.23326 -0.684775,-0.52791 -1.09375,-0.9375 -3.328739,-3.25038 -7.267088,-5.6604 -11.625,-6.96875 -0.204488,-0.0582 -0.418675,-0.1324 -0.625,-0.1875 -0.205712,-0.0557 -0.418676,-0.10482 -0.625,-0.15625 -4.42832,-1.0457 -9.053977,-0.90101 -13.5625,0.25 -6.04218,1.61998 -12.2544,-1.96088 -13.875,-8 -0.23595,-0.88079 -0.32061,-1.78275 -0.34375,-2.65625 z"
             inkscape:connector-curvature="0"
             id="path4069-5"
             style="opacity:0.4;fill:url(#linearGradient5504);fill-opacity:1" />
          <path
             d="m -79.59071,864.14137 c -4.638502,0.13193 -8.864673,3.15918 -10.40625,7.71875 -0.07837,0.20939 -0.248163,0.71079 -0.25,0.71875 -1.247129,4.42036 -3.407558,8.43348 -6.46875,11.71875 -3.47751,3.65016 -7.88707,6.26581 -12.84375,7.59375 -6.03789,1.61753 -9.6494,7.83466 -8.03125,13.875 1.6206,6.03912 7.83282,9.61998 13.875,8 4.508523,-1.15101 9.13418,-1.2957 13.5625,-0.25 0.206324,0.0514 0.419288,0.10054 0.625,0.15625 0.206325,0.0551 0.420512,0.12934 0.625,0.1875 4.357912,1.30835 8.296261,3.71837 11.625,6.96875 0.408975,0.40959 0.763754,0.70424 1.09375,0.9375 4.47485,3.41017 10.82629,3.14245 14.90625,-0.9375 4.14118,-4.13873 4.39468,-10.6777 0.78125,-15.125 -0.1751,-0.23694 -0.46901,-0.5548 -0.78125,-0.875 -3.24854,-3.33364 -5.661621,-7.26525 -6.96875,-11.625 -0.06,-0.20265 -0.133623,-0.42174 -0.1875,-0.625 -0.05633,-0.20449 -0.106047,-0.3862 -0.15625,-0.59375 -1.046315,-4.42648 -0.901621,-9.05336 0.25,-13.5625 0,0 0.173444,-0.75577 0.21875,-1.0625 0.967948,-5.69749 -2.527995,-11.2868 -8.21875,-12.8125 -1.087909,-0.29146 -2.179576,-0.43669 -3.25,-0.40625 z m 0.03125,1.0625 c 0.966465,-0.0263 1.9431,0.0773 2.9375,0.34375 5.186023,1.39038 8.380917,6.43979 7.5,11.625 a 1.0278728,1.0278728 0 0 0 -0.03125,0.0312 c -0.02479,0.16783 -0.177359,0.92261 -0.1875,0.96875 -3.16e-4,0.001 0,0.0312 0,0.0312 -1.181134,4.64295 -1.335704,9.43813 -0.25,14.03125 0.05187,0.21443 0.10259,0.39881 0.15625,0.59375 0.0029,0.011 -0.003,0.0203 0,0.0312 0.06431,0.23748 0.137529,0.45622 0.1875,0.625 1.358244,4.53024 3.865866,8.62179 7.21875,12.0625 0.299948,0.30759 0.609238,0.63306 0.71875,0.78125 a 1.0278728,1.0278728 0 0 0 0,0.0312 c 3.287681,4.04638 3.085662,9.97907 -0.6875,13.75 -3.718739,3.71873 -9.48118,3.95402 -13.5625,0.84375 a 1.0278728,1.0278728 0 0 0 -0.03125,-0.0312 c -0.280394,-0.1982 -0.595626,-0.43881 -0.96875,-0.8125 a 1.0278728,1.0278728 0 0 0 0,-0.0312 c -3.436971,-3.35606 -7.535009,-5.82823 -12.0625,-7.1875 a 1.0278728,1.0278728 0 0 0 0,-0.0312 c -0.157526,-0.0448 -0.382246,-0.12123 -0.625,-0.1875 -0.01118,-0.003 -0.01992,0.003 -0.03125,0 -0.219907,-0.0588 -0.439502,-0.11001 -0.625,-0.15625 -4.604755,-1.08737 -9.410729,-0.93758 -14.0625,0.25 a 1.0278728,1.0278728 0 0 0 -0.0312,0 c -5.50607,1.47625 -11.1172,-1.77891 -12.59375,-7.28125 -1.47362,-5.50086 1.81151,-11.12005 7.3125,-12.59375 5.13537,-1.37582 9.704829,-4.08822 13.3125,-7.875 a 1.0278728,1.0278728 0 0 0 0,-0.0312 c 3.181357,-3.41423 5.431536,-7.56256 6.71875,-12.125 a 1.0278728,1.0278728 0 0 0 0,-0.0625 c 9.18e-4,-0.004 0.01121,-0.007 0.0625,-0.15625 0.05129,-0.14908 0.126058,-0.32559 0.15625,-0.40625 a 1.0278728,1.0278728 0 0 0 0,-0.0312 c 1.295105,-3.83057 4.677893,-6.46325 8.5,-6.9375 0.31748,-0.0394 0.646595,-0.0537 0.96875,-0.0625 z m -6,19.75 c -0.398744,0.0145 -0.797335,0.0394 -1.1875,0.0937 -4.678291,0.6518 -8.734476,4.03852 -10.03125,8.875 -1.727793,6.44833 2.115935,13.11643 8.5625,14.84375 6.450472,1.72832 13.115894,-2.11576 14.84375,-8.5625 1.72837,-6.44866 -2.113923,-13.11527 -8.5625,-14.84375 -1.2056,-0.32303 -2.428767,-0.44988 -3.625,-0.40625 z m 0.03125,1.03125 c 1.089305,-0.0434 2.204157,0.078 3.3125,0.375 5.913609,1.58509 9.428223,7.65073 7.84375,13.5625 -1.584473,5.91177 -7.64889,9.42822 -13.5625,7.84375 -5.911161,-1.58386 -9.427611,-7.65134 -7.84375,-13.5625 1.287882,-4.80332 5.52968,-8.03066 10.25,-8.21875 z"
             inkscape:connector-curvature="0"
             id="path4078-1"
             style="opacity:0.25;fill:url(#linearGradient5506);fill-opacity:1" />
        </g>
      </g>
      <rect
         width="66"
         height="66"
         rx="12"
         ry="12"
         x="15"
         y="15"
         clip-path="url(#clipPath3613-7)"
         id="rect3171"
         style="opacity:0.1;fill:url(#linearGradient5441);fill-opacity:1;fill-rule:nonzero;stroke:#ffffff;stroke-width:0.5;stroke-linecap:round;stroke-linejoin:miter;stroke-miterlimit:4;stroke-opacity:1;stroke-dasharray:none;stroke-dashoffset:0;filter:url(#filter3794-18)"
         transform="translate(0,956.36218)" />
    </g>
  </g>
</svg>
