<?xml version="1.0" encoding="UTF-8" standalone="no"?>
<!-- Created with Inkscape (http://www.inkscape.org/) -->
<svg id="svg2" xmlns:rdf="http://www.w3.org/1999/02/22-rdf-syntax-ns#" xmlns="http://www.w3.org/2000/svg" height="96" width="96" version="1.1" xmlns:cc="http://creativecommons.org/ns#" xmlns:xlink="http://www.w3.org/1999/xlink" xmlns:dc="http://purl.org/dc/elements/1.1/">
 <defs id="defs4">
  <filter id="filter6279" color-interpolation-filters="sRGB">
   <feGaussianBlur id="feGaussianBlur6281" stdDeviation="0.8"/>
  </filter>
  <linearGradient id="linearGradient5801" y2="902.36" gradientUnits="userSpaceOnUse" x2="48" gradientTransform="translate(0 -.0000078516)" y1="1052.4" x1="48">
   <stop id="stop3660" style="stop-color:#373795" offset="0"/>
   <stop id="stop3662" style="stop-color:#7343bc" offset=".5"/>
   <stop id="stop3664" style="stop-color:#c83737" offset="1"/>
  </linearGradient>
  <clipPath id="clipPath3613-66">
   <rect id="rect3615-46" style="fill:#fff" rx="6" ry="6" height="84" width="84" y="6" x="6"/>
  </clipPath>
  <filter id="filter3794-28" width="1.384" y="-.192" x="-.192" height="1.384" color-interpolation-filters="sRGB">
   <feGaussianBlur id="feGaussianBlur3796-96" stdDeviation="5.28"/>
  </filter>
  <linearGradient id="linearGradient5702" y2="138.66" gradientUnits="userSpaceOnUse" y1="20.221" x2="48" x1="48">
   <stop id="stop3739-2" style="stop-color:#fff" offset="0"/>
   <stop id="stop3741-60" style="stop-color:#fff;stop-opacity:0" offset="1"/>
  </linearGradient>
 </defs>
 <metadata id="metadata7">
  <rdf:RDF>
   <cc:Work rdf:about="">
    <dc:format>image/svg+xml</dc:format>
    <dc:type rdf:resource="http://purl.org/dc/dcmitype/StillImage"/>
    <dc:title/>
   </cc:Work>
  </rdf:RDF>
 </metadata>
 <g id="layer1" transform="translate(0 -956.36)">
  <g id="g6586" transform="translate(0,-1e-5)">
   <rect id="rect9283" ry="5" style="filter:url(#filter6279)" rx="5" transform="translate(0 -.0000078516)" height="80" width="80" y="964.36" x="8"/>
   <rect id="rect9285" style="fill:url(#linearGradient5801)" rx="5" ry="5" height="80" width="80" y="964.36" x="8"/>
   <path id="path2909" style="fill-opacity:.45045;block-progression:tb;text-indent:0;color:#000000;text-transform:none;fill:#fff" d="m26.482 985.52c-0.21108 0-0.34544 0.12514-0.42968 0.22508-0.08424 0.0999-0.15665 0.20357-0.20461 0.32737-0.09592 0.24759-0.15993 0.55752-0.22507 0.96169-0.13028 0.80831-0.2158 1.939-0.28646 3.2942-0.14131 2.7105-0.19914 6.3223-0.24553 9.9235-0.04638 3.6014-0.07724 7.1905-0.20461 9.8829-0.06369 1.3459-0.15166 2.4847-0.26599 3.2533-0.04589 0.3085-0.09169 0.4963-0.14323 0.6753-0.02492-0.061-0.03726-0.084-0.06139-0.1638-0.11972-0.3957-0.22848-0.9907-0.30692-1.7187-0.15648-1.4561-0.22065-3.4179-0.28613-5.3815-0.06612-1.9636-0.14535-3.9356-0.26648-5.422-0.06025-0.7431-0.1172-1.3632-0.22458-1.8216-0.05369-0.22857-0.11589-0.41248-0.20481-0.57223-0.0444-0.0806-0.09919-0.15527-0.18412-0.22521-0.08492-0.0704-0.2164-0.14344-0.3683-0.14344-0.18421 0-0.33354 0.10195-0.40922 0.18412-0.07569 0.0826-0.12529 0.15425-0.16369 0.24549-0.07679 0.1829-0.11517 0.41615-0.16369 0.6958-0.09703 0.55923-0.17229 1.3251-0.22507 2.2508-0.10554 1.8516-0.14522 4.3187-0.20461 6.7726-0.05932 2.4542-0.13822 4.9055-0.30688 6.7316-0.08433 0.9133-0.19348 1.6625-0.32738 2.1693-0.04243 0.1603-0.09958 0.2448-0.14319 0.3476-0.02023-0.058-0.0398-0.1179-0.06142-0.184v1.0844h0.04092c0.15703 0 0.2889-0.068 0.38876-0.1434 0.09986-0.074 0.18688-0.1506 0.24553-0.2455 0.11733-0.1899 0.19093-0.4321 0.26603-0.7156 0.15014-0.5684 0.2621-1.3429 0.34787-2.2714 0.17148-1.8569 0.24743-4.3162 0.30688-6.7728 0.05946-2.4566 0.10017-4.9001 0.20461-6.7314 0.05219-0.916 0.11524-1.6749 0.20461-2.1897 0.0095-0.054 0.01043-0.0734 0.02046-0.12275 0.0911 0.40142 0.1467 0.98522 0.20461 1.6983 0.11858 1.4601 0.20003 3.4366 0.26599 5.4018 0.06595 1.9652 0.12589 3.9318 0.28646 5.4222 0.08027 0.7451 0.18704 1.3573 0.32738 1.821 0.07015 0.2319 0.15144 0.4308 0.26599 0.5933 0.11456 0.1626 0.31395 0.3273 0.59337 0.3273 0.21862 0 0.3714-0.1249 0.45014-0.225 0.07874-0.1 0.11936-0.2044 0.16369-0.3274 0.08864-0.2459 0.14458-0.5581 0.20461-0.9617 0.12007-0.807 0.22236-1.9395 0.28646-3.2941 0.1282-2.7099 0.15822-6.3226 0.20461-9.9235 0.04638-3.6011 0.10523-7.1912 0.24553-9.8829 0.07017-1.3456 0.1628-2.4656 0.28646-3.2328 0.03829-0.23754 0.05976-0.36926 0.1023-0.53199 0.03738 0.13776 0.08827 0.23776 0.12276 0.42968 0.12479 0.69437 0.20946 1.7035 0.28646 2.926 0.15399 2.4449 0.24425 5.7091 0.30692 8.9825 0.06266 3.2734 0.12303 6.5601 0.24553 9.0232 0.06124 1.2318 0.11812 2.253 0.22507 2.9875 0.05348 0.367 0.12648 0.6543 0.20461 0.8797 0.03907 0.1127 0.09244 0.2123 0.16369 0.3069 0.07126 0.095 0.18835 0.2251 0.40922 0.2251 0.23311 0 0.44014-0.1162 0.55245-0.2454 0.11231-0.1294 0.18086-0.2783 0.24553-0.4502 0.12934-0.344 0.23305-0.7979 0.30692-1.33 0.14772-1.064 0.19029-2.4551 0.26599-3.8467 0.07571-1.3913 0.15069-2.7817 0.28646-3.8057 0.06789-0.5119 0.17028-0.9414 0.26599-1.2072 0.0319 0.1032 0.07263 0.1747 0.10231 0.3274 0.1004 0.5164 0.16725 1.2886 0.22507 2.2097 0.11565 1.8424 0.17217 4.3068 0.22507 6.7728 0.05291 2.4658 0.08879 4.9236 0.24553 6.7728 0.07836 0.9245 0.20534 1.693 0.34784 2.2507 0.07125 0.2788 0.12934 0.5099 0.24553 0.6956 0.0581 0.093 0.13921 0.1723 0.24553 0.2456 0.10632 0.073 0.27263 0.1372 0.42968 0.1228 0.19575-0.018 0.32234-0.1259 0.40922-0.2251 0.08689-0.099 0.15164-0.2021 0.20461-0.3274 0.10594-0.2506 0.1727-0.5814 0.24553-0.9821 0.14566-0.8015 0.26734-1.9069 0.34784-3.2329 0.161-2.6519 0.19914-6.1529 0.24553-9.6576 0.04638-3.5047 0.09668-7.0151 0.20461-9.6374 0.05396-1.3112 0.12485-2.3974 0.22507-3.1509 0.0095-0.0714 0.01043-0.0989 0.02046-0.16373 0.01257 0.0816 0.04965 0.11285 0.06139 0.20461 0.10258 0.80253 0.17188 1.9669 0.22507 3.3761 0.10638 2.8182 0.12375 6.598 0.16369 10.374 0.03993 3.7758 0.10672 7.5572 0.26599 10.394 0.07964 1.4185 0.17965 2.5951 0.32738 3.4376 0.07386 0.4212 0.15681 0.7661 0.26599 1.023 0.05458 0.1284 0.10881 0.2258 0.20461 0.3274 0.0958 0.1019 0.26455 0.2135 0.4706 0.2046 0.1718-0.01 0.33105-0.076 0.42968-0.1638 0.09863-0.087 0.16641-0.1968 0.22507-0.3068 0.11732-0.2201 0.1905-0.4999 0.26599-0.8389 0.15099-0.6779 0.27086-1.6076 0.34784-2.7212 0.15396-2.2275 0.17448-5.1606 0.20461-8.1025 0.03013-2.9421 0.05676-5.8895 0.16369-8.0824 0.05346-1.0964 0.13896-2 0.24553-2.6191 0.04181-0.24299 0.05606-0.39407 0.10231-0.53201 0.02317 0.048 0.05892 0.0592 0.08185 0.12275 0.11323 0.31655 0.21243 0.81136 0.28645 1.412 0.14804 1.201 0.22708 2.8294 0.28646 4.4605s0.09882 3.2734 0.22507 4.5218c0.06312 0.6242 0.14798 1.1367 0.26599 1.5346 0.05901 0.1989 0.10358 0.3654 0.20461 0.5116 0.10103 0.1458 0.29489 0.3126 0.55245 0.3273 0.18547 0.01 0.34222-0.078 0.42968-0.1638 0.08746-0.086 0.13807-0.1862 0.18415-0.2864 0.09215-0.2 0.14331-0.4437 0.20461-0.7569 0.12259-0.6264 0.23287-1.4902 0.30692-2.5373 0.14809-2.094 0.21401-4.8848 0.28646-7.673 0.07245-2.7881 0.15279-5.5689 0.28646-7.6529 0.06683-1.0418 0.16151-1.9271 0.26599-2.5167 0.0085-0.0472 0.01175-0.0586 0.02046-0.10231 0.01617 0.081 0.02578 0.11068 0.04092 0.20462 0.10602 0.6575 0.20183 1.6253 0.26599 2.7827 0.12833 2.3146 0.18266 5.4083 0.24553 8.5119 0.06286 3.1033 0.13781 6.2249 0.28646 8.5733 0.07432 1.1742 0.13852 2.155 0.26599 2.8644 0.06374 0.355 0.15265 0.6355 0.24553 0.8594 0.04644 0.1121 0.08397 0.2146 0.16369 0.307 0.07972 0.093 0.23589 0.1906 0.42968 0.2046 0.25357 0.018 0.46978-0.1187 0.59337-0.266s0.21919-0.3291 0.28646-0.532c0.13454-0.4058 0.20105-0.9283 0.26599-1.5754 0.12988-1.2947 0.16534-3.0077 0.20461-4.7266 0.03926-1.7188 0.06961-3.4432 0.20461-4.7265 0.06751-0.6417 0.17115-1.1863 0.28646-1.5346 0.05765-0.1742 0.11705-0.2879 0.16369-0.3478 0.01165-0.015 0.01491-0.013 0.02046-0.02 0.0051 0 0.01103-0.01 0.02046 0 0.02358 0.015 0.07348 0.06 0.12277 0.1433 0.09858 0.1667 0.19877 0.4599 0.26599 0.8389 0.13445 0.758 0.16996 1.8146 0.20461 2.885 0.03465 1.0705 0.07787 2.1499 0.20461 2.9872 0.06336 0.4188 0.11996 0.7753 0.26599 1.0641 0.07302 0.1443 0.17319 0.2814 0.30692 0.3887 0.13373 0.1074 0.33367 0.1841 0.53199 0.1841 0.14893 0 0.27426-0.053 0.3683-0.1227 0.09404-0.07 0.17262-0.1597 0.22507-0.2456 0.10488-0.1715 0.16218-0.3654 0.22507-0.6139 0.1258-0.4965 0.22074-1.1791 0.28645-1.9846 0.13144-1.6109 0.17659-3.7446 0.22507-5.8723 0.04848-2.1279 0.08703-4.2514 0.22507-5.8314 0.06901-0.79 0.17033-1.4494 0.28646-1.8825 0.02352-0.0877 0.05703-0.11643 0.08185-0.18412 0.04659 0.15608 0.08029 0.29851 0.12277 0.55245 0.11626 0.69509 0.19828 1.7236 0.26599 2.9464 0.13542 2.4455 0.2129 5.7088 0.26599 8.9826 0.05309 3.2737 0.08855 6.5581 0.22507 9.0232 0.06826 1.2326 0.16315 2.2502 0.28645 2.9872 0.06165 0.3687 0.13344 0.6713 0.22507 0.9004 0.04581 0.1145 0.0813 0.2121 0.16369 0.3069 0.0824 0.095 0.24691 0.2047 0.45014 0.2047 0.23733 0 0.39266-0.1385 0.4706-0.2456 0.07795-0.1072 0.11728-0.231 0.16369-0.3682 0.09282-0.2747 0.17894-0.6239 0.24553-1.0844 0.13357-0.9207 0.22851-2.2328 0.30773-3.7845 0.1578-3.1036 0.20297-7.2219 0.26583-11.335 0.06286-4.114 0.12637-8.2068 0.24553-11.254 0.05958-1.5236 0.14536-2.7847 0.24553-3.6417 0.0195 0.10033 0.04572 0.17213 0.06139 0.30692 0.1138 0.98017 0.21335 2.3844 0.28645 4.0513 0.14621 3.3337 0.23067 7.749 0.30692 12.154 0.07624 4.4048 0.14917 8.7841 0.28646 12.072 0.06864 1.6439 0.15613 3.026 0.26599 3.9898 0.05494 0.482 0.10968 0.8471 0.18415 1.1254 0.03723 0.1391 0.07987 0.2609 0.14323 0.3682 0.03168 0.054 0.06977 0.1071 0.14322 0.1637 0.07346 0.057 0.20773 0.1148 0.34784 0.1024 0.19163-0.017 0.29654-0.118 0.3683-0.2046 0.07176-0.087 0.14319-0.1851 0.18415-0.2864 0.08193-0.203 0.12716-0.4604 0.18415-0.7776 0.11398-0.6345 0.21469-1.5107 0.28646-2.5577 0.14354-2.0936 0.20575-4.8634 0.28646-7.6316 0.08072-2.7686 0.1647-5.5384 0.30692-7.6116 0.07112-1.0367 0.1594-1.8831 0.26599-2.4758 0.02759-0.15343 0.07286-0.23438 0.1023-0.34784 0.08899 0.31461 0.14742 0.76315 0.20461 1.33 0.12154 1.2046 0.18781 2.8361 0.24553 4.4811 0.05772 1.6449 0.13302 3.3054 0.28646 4.5628 0.07672 0.6286 0.16429 1.1545 0.30692 1.5549 0.07132 0.2004 0.16436 0.3663 0.28645 0.5116 0.1221 0.1454 0.32277 0.2864 0.57291 0.2864 0.28944 0 0.49776-0.1749 0.61383-0.3478 0.11608-0.1727 0.17591-0.3846 0.24553-0.6342 0.13925-0.4992 0.23473-1.1784 0.30692-1.9848 0.14437-1.6125 0.20164-3.7438 0.24553-5.8722 0.04389-2.1285 0.08132-4.2505 0.20461-5.8315 0.06164-0.79051 0.13726-1.4482 0.24553-1.8825 0.0267-0.10715 0.03314-0.14813 0.06139-0.225 0.04167 0.11897 0.08407 0.22032 0.12277 0.40912 0.11568 0.56458 0.22289 1.4078 0.28646 2.4145 0.12713 2.0132 0.14486 4.7059 0.18415 7.4065 0.03929 2.7011 0.10752 5.409 0.24553 7.4479 0.069 1.0193 0.15253 1.8781 0.28646 2.4962 0.06696 0.3091 0.13905 0.5546 0.24553 0.757 0.05325 0.1008 0.10938 0.1832 0.20461 0.2661 0.09523 0.084 0.23973 0.1637 0.40922 0.1637 0.18048 0 0.33433-0.074 0.42968-0.1637 0.09534-0.089 0.17128-0.1969 0.22507-0.307 0.10757-0.2201 0.17646-0.4948 0.24553-0.8389 0.13814-0.6881 0.23631-1.641 0.30692-2.7827 0.1412-2.2834 0.19049-5.3195 0.22507-8.348 0.03457-3.0286 0.06251-6.0472 0.18415-8.3076 0.06083-1.1301 0.15095-2.0826 0.26599-2.7213 0.03878-0.21511 0.07993-0.33306 0.12277-0.47059 0.02991 0.0826 0.05359 0.13212 0.08185 0.24559 0.11725 0.47079 0.21734 1.1736 0.28646 2.0256 0.13823 1.7041 0.19704 3.9902 0.24553 6.2817 0.04848 2.2914 0.07334 4.5898 0.20461 6.3224 0.06563 0.8662 0.16168 1.5974 0.28645 2.128 0.06239 0.2653 0.12298 0.4747 0.22507 0.6547 0.05106 0.09 0.11185 0.1707 0.20461 0.2455 0.09277 0.074 0.23208 0.1432 0.38876 0.1432 0.23006 0 0.43402-0.1164 0.55245-0.2456 0.11843-0.1291 0.19764-0.2772 0.26599-0.4501 0.13669-0.3456 0.23045-0.7972 0.30692-1.3299 0.15292-1.0654 0.23537-2.4547 0.30692-3.8467s0.11659-2.7814 0.24553-3.8057c0.06447-0.5121 0.15239-0.9412 0.24553-1.2073 0.01023-0.029 0.01-0.037 0.02046-0.061 0.02674 0.063 0.07581 0.092 0.1023 0.1842 0.10405 0.3612 0.17608 0.9082 0.24553 1.5755 0.13891 1.3344 0.21494 3.1509 0.28646 4.9515 0.07152 1.8005 0.14422 3.5852 0.28645 4.9516 0.07113 0.6832 0.14314 1.2716 0.266 1.6983 0.06144 0.2133 0.1228 0.3796 0.22507 0.532s0.29722 0.3273 0.57291 0.3273c0.15984 0 0.3194-0.068 0.40922-0.1431 0.08981-0.075 0.13482-0.1564 0.18415-0.2457 0.09865-0.1783 0.183-0.3902 0.24553-0.6547 0.12506-0.529 0.21388-1.2618 0.28646-2.1278 0.14515-1.7321 0.19908-4.0307 0.26599-6.3225 0.06692-2.2919 0.13216-4.5754 0.26599-6.2816 0.06692-0.85321 0.16032-1.551 0.26599-2.0258 0.0085-0.0377 0.01175-0.0469 0.02046-0.0816 0.02528 0.1099 0.03852 0.16576 0.06139 0.30686 0.10376 0.64095 0.19102 1.5908 0.24553 2.7214 0.10903 2.2614 0.14486 5.2783 0.18415 8.3075 0.03929 3.029 0.08911 6.0641 0.24553 8.3482 0.07821 1.1421 0.17986 2.0936 0.32738 2.7827 0.07375 0.3446 0.15239 0.6181 0.26599 0.8389 0.0568 0.1105 0.12639 0.2186 0.22507 0.3068 0.09868 0.089 0.25195 0.1638 0.42968 0.1638v-0.8798c-0.05893-0.1414-0.1316-0.3005-0.1853-0.5527-0.13619-0.6357-0.22982-1.572-0.30708-2.7014-0.15452-2.2577-0.20625-5.2794-0.24553-8.307-0.03929-3.0275-0.07419-6.0671-0.18415-8.3482-0.05498-1.1405-0.13477-2.0782-0.24553-2.7623-0.05538-0.34204-0.11812-0.62321-0.20461-0.83883-0.04322-0.10786-0.0828-0.19493-0.16369-0.28648-0.08055-0.0907-0.23309-0.20431-0.42952-0.20431-0.16358 0-0.30228 0.0663-0.38876 0.14325-0.08648 0.0765-0.15821 0.17728-0.20461 0.26597-0.0928 0.1774-0.14587 0.39088-0.20461 0.65472-0.11749 0.52788-0.19809 1.2419-0.26599 2.1076-0.1358 1.7312-0.19909 4.0311-0.26599 6.3225s-0.12309 4.5762-0.26599 6.2816c-0.07145 0.8527-0.17454 1.5521-0.28645 2.0256-0.03139 0.1328-0.06965 0.1955-0.1023 0.2865-0.01766-0.048-0.0239-0.063-0.04092-0.1227-0.10411-0.3615-0.19643-0.9088-0.26583-1.5761-0.13881-1.3343-0.21476-3.1304-0.28678-4.9309-0.07138-1.8005-0.14404-3.6057-0.28613-4.9722-0.07138-0.6829-0.12244-1.2717-0.24553-1.6978-0.06155-0.21353-0.14339-0.37981-0.24553-0.53232-0.10227-0.15252-0.29722-0.32746-0.57291-0.32746-0.23634 0-0.40523 0.1362-0.51153 0.26598-0.1063 0.12988-0.18556 0.27883-0.24553 0.4501-0.11995 0.3428-0.21956 0.7783-0.28646 1.3097-0.13378 1.0626-0.17405 2.456-0.24553 3.8466-0.07149 1.3907-0.16027 2.7842-0.30692 3.8057-0.07332 0.5109-0.16197 0.9442-0.26599 1.2073-0.02254 0.057-0.05991 0.062-0.08185 0.1024-0.04243-0.099-0.06031-0.2103-0.1023-0.3888-0.11105-0.4721-0.20142-1.1732-0.26599-2.0256-0.12916-1.705-0.15611-3.9899-0.20461-6.2817-0.04849-2.2919-0.10492-4.589-0.24553-6.3225-0.07031-0.86676-0.17452-1.5962-0.30692-2.128-0.06619-0.26588-0.1376-0.47406-0.24553-0.65471-0.05396-0.0907-0.10891-0.17189-0.20461-0.2456-0.0956-0.0734-0.25535-0.14272-0.40922-0.14272-0.18724 0-0.32075 0.0938-0.40922 0.18422-0.08847 0.0907-0.1562 0.19777-0.20461 0.30685-0.09682 0.21818-0.16328 0.47539-0.22507 0.81845-0.12359 0.68621-0.20458 1.6416-0.26599 2.7826-0.12283 2.2823-0.14958 5.3203-0.18415 8.3482-0.03457 3.028-0.08538 6.0483-0.22507 8.3076-0.06984 1.1294-0.17911 2.0641-0.30691 2.7009-0.0478 0.2363-0.09167 0.3915-0.14339 0.5315-0.04322-0.1184-0.08185-0.2213-0.12309-0.4092-0.12178-0.563-0.19774-1.4083-0.26583-2.414-0.13619-2.0128-0.20625-4.7065-0.24553-7.4073-0.03929-2.7008-0.055-5.4096-0.18399-7.4479-0.06417-1.0188-0.15976-1.8588-0.28678-2.4756-0.06286-0.30911-0.12375-0.55593-0.22458-0.75757-0.05043-0.0999-0.11262-0.20226-0.20494-0.28606-0.09167-0.0836-0.25666-0.16373-0.42952-0.16373-0.14892 0-0.27428 0.0521-0.3683 0.12275-0.09403 0.0704-0.15247 0.15965-0.20461 0.24559-0.10429 0.17178-0.18363 0.36547-0.24553 0.61381-0.12381 0.49659-0.20318 1.1792-0.26599 1.9846-0.12562 1.6109-0.16073 3.745-0.20461 5.8725-0.04387 2.1276-0.10414 4.2521-0.24553 5.8314-0.0707 0.7895-0.16601 1.4505-0.28645 1.8824-0.04968 0.1781-0.11663 0.2817-0.16369 0.3683-0.03716-0.06-0.04038-0.1087-0.08184-0.225-0.11449-0.3216-0.2327-0.8242-0.30692-1.4323-0.14843-1.2163-0.20832-2.8786-0.26599-4.5218-0.05767-1.6435-0.12045-3.2823-0.24553-4.5219-0.06254-0.62-0.12626-1.1271-0.24553-1.5142-0.05962-0.1937-0.13632-0.36895-0.24553-0.51157-0.10921-0.14264-0.33686-0.2876-0.59337-0.26599-0.19184 0.0163-0.29626 0.11806-0.3683 0.20461-0.07204 0.0867-0.12268 0.18514-0.16369 0.28637-0.08202 0.20277-0.1476 0.4606-0.20461 0.77756-0.11401 0.63414-0.19421 1.5112-0.26599 2.5577-0.14356 2.0929-0.20575 4.8635-0.28646 7.6318-0.08072 2.7684-0.16473 5.5171-0.30692 7.5912-0.06878 1.0034-0.18456 1.8234-0.28646 2.4143-0.0203-0.1374-0.02226-0.2041-0.04125-0.3685-0.10672-0.9363-0.19774-2.3112-0.26583-3.9496-0.13684-3.2749-0.21018-7.6665-0.28678-12.072-0.07595-4.4052-0.15976-8.8274-0.30642-12.174-0.07399-1.6729-0.16958-3.0642-0.28678-4.0719-0.05827-0.50351-0.10672-0.90619-0.18399-1.2067-0.03864-0.1506-0.08643-0.27762-0.14339-0.38892-0.0571-0.11111-0.14058-0.24434-0.38876-0.30692-0.12156-0.0307-0.25571-0.011-0.34784 0.0409-0.09212 0.0518-0.14769 0.11105-0.18415 0.1637-0.07293 0.10527-0.106 0.19961-0.14323 0.32737-0.07446 0.25554-0.13213 0.62001-0.18415 1.064-0.10404 0.88791-0.18567 2.1528-0.24553 3.683-0.11973 3.0602-0.18272 7.1616-0.24553 11.274-0.06282 4.1125-0.10909 8.2283-0.26599 11.315-0.07845 1.5433-0.17884 2.838-0.30692 3.7239-0.04011 0.2775-0.09882 0.4225-0.14323 0.6139-0.02723-0.1175-0.05685-0.1781-0.08185-0.3275-0.11626-0.6951-0.19828-1.7235-0.26599-2.9464-0.13543-2.4454-0.19244-5.7086-0.24553-8.9826-0.05309-3.2737-0.10902-6.558-0.24553-9.0231-0.06826-1.2325-0.16315-2.2501-0.28645-2.9873-0.06165-0.36854-0.11298-0.67113-0.20461-0.90031-0.04581-0.11448-0.08129-0.21205-0.16369-0.30686-0.0824-0.0948-0.24691-0.20461-0.45014-0.20461-0.29324 0-0.48257 0.19604-0.59337 0.36823s-0.19924 0.36498-0.266 0.61383c-0.1335 0.49792-0.23651 1.1788-0.30692 1.9847-0.14081 1.6117-0.17657 3.7441-0.22507 5.8724-0.04848 2.1281-0.09608 4.2504-0.22507 5.8314-0.0645 0.7904-0.13551 1.448-0.24553 1.8824-0.04714 0.1866-0.09821 0.3012-0.14274 0.3876-0.0216-0.028-0.05761-0.034-0.08184-0.082-0.09233-0.1827-0.16631-0.512-0.22524-0.9001-0.11786-0.7774-0.16958-1.8537-0.20428-2.9261-0.03535-1.0718-0.05827-2.1398-0.20494-2.9668-0.07333-0.4138-0.18071-0.7608-0.34767-1.0437-0.08381-0.1414-0.19839-0.2697-0.34833-0.3679-0.14928-0.098-0.33392-0.1566-0.53166-0.1433-0.25372 0.017-0.4531 0.1733-0.57291 0.3273-0.11981 0.1538-0.21611 0.3195-0.28646 0.532-0.14068 0.425-0.21684 0.9956-0.28645 1.6572-0.13923 1.3236-0.18579 3.0481-0.22507 4.7674s-0.07868 3.4306-0.20461 4.6857c-0.06297 0.6274-0.13793 1.1487-0.24553 1.4731-0.01748 0.053-0.04328 0.061-0.06139 0.1022-0.05369-0.1544-0.11393-0.3352-0.16369-0.6134-0.11982-0.6666-0.21279-1.6395-0.28613-2.803-0.14797-2.3277-0.20363-5.4299-0.26648-8.5328-0.06286-3.1022-0.13619-6.1985-0.26583-8.5321-0.06482-1.1661-0.13292-2.1462-0.24553-2.8436-0.0563-0.34898-0.12179-0.62201-0.20428-0.8394-0.0419-0.10869-0.08774-0.21475-0.16369-0.30641-0.0766-0.0924-0.22393-0.20494-0.43017-0.20494-0.19455 0-0.3523 0.0971-0.42968 0.18414-0.07739 0.0871-0.12216 0.18594-0.16369 0.28646-0.08306 0.20103-0.12814 0.46148-0.18415 0.77752-0.11202 0.63207-0.19853 1.5059-0.26599 2.5576-0.13492 2.1033-0.21402 4.8852-0.28646 7.6731-0.07244 2.7877-0.13991 5.5802-0.28645 7.6528-0.07327 1.036-0.15255 1.896-0.26599 2.4757-0.03093 0.158-0.06945 0.2359-0.10231 0.3479-0.0062-0.018-0.01445-0.02-0.02046-0.041-0.09769-0.3293-0.18413-0.8251-0.24553-1.4323-0.12281-1.2144-0.16563-2.8484-0.22507-4.481-0.05945-1.6327-0.13336-3.2595-0.28646-4.5014-0.07655-0.621-0.16539-1.1392-0.30692-1.5347-0.07077-0.19778-0.16517-0.36763-0.28646-0.51148-0.12129-0.14395-0.32439-0.28657-0.57291-0.28657-0.18714 0-0.34398 0.0948-0.42968 0.18422-0.0857 0.0897-0.13832 0.18014-0.18415 0.28648-0.09167 0.21255-0.14731 0.48557-0.20461 0.81843-0.11461 0.66583-0.19155 1.5939-0.24553 2.7008-0.10796 2.214-0.13358 5.1417-0.16369 8.0822-0.03012 2.9406-0.05256 5.8824-0.20461 8.0824-0.07603 1.1-0.20927 2.0172-0.34784 2.6395-0.05494 0.2467-0.10491 0.4134-0.16369 0.5524-0.06613-0.182-0.14405-0.4308-0.20428-0.7759-0.14012-0.7981-0.22786-1.9682-0.30708-3.376-0.1578-2.816-0.22589-6.5789-0.26583-10.354-0.03995-3.7747-0.05696-7.5605-0.16369-10.394-0.05369-1.4169-0.11786-2.5797-0.22524-3.4171-0.05303-0.41839-0.1447-0.75238-0.22458-1.0024-0.0406-0.12509-0.06939-0.2456-0.14339-0.34764-0.07399-0.10216-0.23571-0.23907-0.47077-0.22531-0.22631 0.0132-0.36128 0.14711-0.42968 0.2456-0.0684 0.0979-0.10431 0.20695-0.14323 0.32735-0.07783 0.24079-0.1317 0.54685-0.18415 0.94118-0.10489 0.78867-0.17078 1.8933-0.22507 3.2123-0.10858 2.6382-0.15823 6.1339-0.20461 9.6374-0.04638 3.5033-0.08586 7.0072-0.24553 9.6373-0.07983 1.315-0.21027 2.4146-0.34784 3.1716-0.06221 0.3417-0.11589 0.597-0.18399 0.7765-0.04125-0.098-0.0825-0.169-0.12309-0.3275-0.12637-0.495-0.22916-1.2591-0.30642-2.1685-0.15452-1.8195-0.19315-4.2677-0.24553-6.7316-0.05303-2.4644-0.10803-4.9487-0.22524-6.8139-0.05827-0.9324-0.13553-1.7051-0.24553-2.2706-0.055-0.283-0.11655-0.5096-0.20428-0.6961-0.04452-0.093-0.10082-0.1847-0.18464-0.2659-0.08373-0.082-0.23557-0.1636-0.40922-0.1636-0.23559 0-0.42401 0.1365-0.53199 0.2659-0.10798 0.1296-0.18382 0.2788-0.24553 0.4501-0.12343 0.3428-0.17506 0.7781-0.24553 1.3095-0.14096 1.0631-0.25169 2.4557-0.32738 3.8468s-0.12396 2.7827-0.26599 3.8056c-0.06613 0.4766-0.15408 0.859-0.24553 1.1255-0.03666-0.1526-0.08904-0.2815-0.12244-0.5113-0.10148-0.698-0.16434-1.7234-0.22524-2.9465-0.12178-2.4474-0.18268-5.708-0.24553-8.9825-0.06221-3.2745-0.15125-6.5574-0.30708-9.0231-0.07725-1.2329-0.17416-2.2498-0.30642-2.9876-0.06678-0.36863-0.12833-0.67047-0.22524-0.9003-0.04846-0.11457-0.09887-0.21279-0.18398-0.30641-0.08577-0.0943-0.25077-0.20495-0.45047-0.20495z"/>
   <g id="g6557" transform="matrix(.94839 0 0 .94839 2.5202 56.559)">
    <path id="path3765" style="opacity:.3;color:#000000" d="m47.781 973.36c-1.9794 0.0197-3.9995 0.27647-6 0.8125-12.803 3.431-20.399 16.604-16.969 29.407l3.907-1.031c-0.446-1.66-0.719-3.388-0.719-5.188 0-11.046 8.954-20 20-20s20 8.9543 20 20c0 1.8003-0.27274 3.5281-0.71875 5.1875l3.9062 1.0312c1.0904-4.0693 1.0904-8.3682 0-12.438-2.894-10.802-12.717-17.888-23.406-17.781zm-17.531 32.031-4.8438 1.3125c-2.6756 0.7169-4.2482 3.4494-3.5312 6.125l2.5938 9.6562c0.71693 2.6756 3.4494 4.2482 6.125 3.5312l4.812-1.281-5.156-19.344zm35.625 0-5.1562 19.344 4.8125 1.2812c2.6756 0.7169 5.4081-0.8557 6.125-3.5312l2.593-9.656c0.71693-2.6756-0.85564-5.4081-3.5312-6.125l-4.844-1.313z"/>
    <path id="path3748" style="color:#000000;fill:#fff" d="m47.781 972.36c-1.9794 0.0197-3.9995 0.27647-6 0.8125-12.803 3.431-20.399 16.604-16.969 29.407l3.907-1.031c-0.446-1.71-0.719-3.44-0.719-5.24 0-11.046 8.954-20 20-20s20 8.9543 20 20c0 1.8003-0.27274 3.5281-0.71875 5.1875l3.9062 1.0312c1.0904-4.0693 1.0904-8.3682 0-12.438-2.894-10.802-12.717-17.888-23.406-17.781zm-17.531 32.031-4.8438 1.3125c-2.6756 0.7169-4.2482 3.4494-3.5312 6.125l2.5938 9.6562c0.71693 2.6756 3.4494 4.2482 6.125 3.5312l4.812-1.281-5.156-19.344zm35.625 0-5.1562 19.344 4.8125 1.2812c2.6756 0.7169 5.4081-0.8557 6.125-3.5312l2.593-9.656c0.71693-2.6756-0.85564-5.4081-3.5312-6.125l-4.844-1.313z"/>
   </g>
   <rect id="rect3171" style="opacity:.1;filter:url(#filter3794-28);stroke:#fff;stroke-linecap:round;stroke-width:.5;fill:url(#linearGradient5702)" transform="translate(0 956.36)" clip-path="url(#clipPath3613-66)" rx="12" ry="12" height="66" width="66" y="15" x="15"/>
  </g>
 </g>
</svg>
