<?xml version="1.0" encoding="UTF-8" standalone="no"?>
<!-- Created with Inkscape (http://www.inkscape.org/) -->

<svg
   xmlns:dc="http://purl.org/dc/elements/1.1/"
   xmlns:cc="http://creativecommons.org/ns#"
   xmlns:rdf="http://www.w3.org/1999/02/22-rdf-syntax-ns#"
   xmlns:svg="http://www.w3.org/2000/svg"
   xmlns="http://www.w3.org/2000/svg"
   xmlns:xlink="http://www.w3.org/1999/xlink"
   xmlns:sodipodi="http://sodipodi.sourceforge.net/DTD/sodipodi-0.dtd"
   xmlns:inkscape="http://www.inkscape.org/namespaces/inkscape"
   width="96"
   height="96"
   id="svg2"
   version="1.1"
   inkscape:version="0.48.1 r9760"
   sodipodi:docname="audacious.svg">
  <defs
     id="defs4">
    <filter
       color-interpolation-filters="sRGB"
       inkscape:collect="always"
       id="filter6279">
      <feGaussianBlur
         inkscape:collect="always"
         stdDeviation="0.8"
         id="feGaussianBlur6281" />
    </filter>
    <linearGradient
       inkscape:collect="always"
       xlink:href="#linearGradient3789"
       id="linearGradient5801"
       gradientUnits="userSpaceOnUse"
       gradientTransform="translate(0,-7.8515622e-6)"
       x1="48"
       y1="1052.3622"
       x2="48"
       y2="902.36218" />
    <linearGradient
       id="linearGradient3789">
      <stop
         id="stop3791-5"
         style="stop-color:#656565;stop-opacity:1"
         offset="0" />
      <stop
         id="stop3793-4"
         style="stop-color:#c1c1c1;stop-opacity:1"
         offset="1" />
    </linearGradient>
    <linearGradient
       x1="16"
       y1="48"
       x2="80"
       y2="48"
       id="linearGradient3863-3"
       xlink:href="#linearGradient3795-2"
       gradientUnits="userSpaceOnUse" />
    <linearGradient
       id="linearGradient3795-2">
      <stop
         id="stop3797-6"
         style="stop-color:#050505;stop-opacity:1"
         offset="0" />
      <stop
         id="stop3799-5"
         style="stop-color:#191919;stop-opacity:1"
         offset="1" />
    </linearGradient>
    <linearGradient
       x1="15"
       y1="48"
       x2="108.85714"
       y2="47.82143"
       id="linearGradient3814-2"
       xlink:href="#linearGradient3808-6"
       gradientUnits="userSpaceOnUse"
       gradientTransform="matrix(0,-1.030303,1.030303,0,-1.4545454,97.454545)" />
    <linearGradient
       id="linearGradient3808-6">
      <stop
         id="stop3810-5"
         style="stop-color:#ffffff;stop-opacity:1"
         offset="0" />
      <stop
         id="stop3812-8"
         style="stop-color:#ffffff;stop-opacity:0"
         offset="1" />
    </linearGradient>
    <linearGradient
       x1="49.714287"
       y1="69.964287"
       x2="49.714287"
       y2="34.946777"
       id="linearGradient3836-7"
       xlink:href="#linearGradient3838-9"
       gradientUnits="userSpaceOnUse"
       gradientTransform="matrix(1.0035883,0,0,0.98468749,-0.22247342,0.50531262)" />
    <linearGradient
       id="linearGradient3838-9">
      <stop
         id="stop3840-60"
         style="stop-color:#737373;stop-opacity:1"
         offset="0" />
      <stop
         id="stop3842-4"
         style="stop-color:#cecece;stop-opacity:1"
         offset="1" />
    </linearGradient>
    <linearGradient
       y2="12.880043"
       x2="50.59584"
       y1="63.175663"
       x1="50.59584"
       gradientUnits="userSpaceOnUse"
       id="linearGradient3207-7"
       xlink:href="#linearGradient3726-0"
       inkscape:collect="always" />
    <linearGradient
       id="linearGradient3726-0">
      <stop
         id="stop3728-4"
         style="stop-color:#ffffff;stop-opacity:1"
         offset="0" />
      <stop
         id="stop3730-8"
         style="stop-color:#ffffff;stop-opacity:0"
         offset="1" />
    </linearGradient>
    <linearGradient
       y2="138.66119"
       x2="48"
       y1="20.220806"
       x1="48"
       gradientUnits="userSpaceOnUse"
       id="linearGradient3229"
       xlink:href="#linearGradient3737-66"
       inkscape:collect="always" />
    <linearGradient
       id="linearGradient3737-66">
      <stop
         id="stop3739-46"
         style="stop-color:#ffffff;stop-opacity:1"
         offset="0" />
      <stop
         id="stop3741-289"
         style="stop-color:#ffffff;stop-opacity:0"
         offset="1" />
    </linearGradient>
    <clipPath
       id="clipPath3613-60">
      <rect
         width="84"
         height="84"
         rx="6"
         ry="6"
         x="6"
         y="6"
         id="rect3615-7"
         style="fill:#ffffff;fill-opacity:1;fill-rule:nonzero;stroke:none" />
    </clipPath>
    <filter
       x="-0.192"
       y="-0.192"
       width="1.3839999"
       height="1.3839999"
       color-interpolation-filters="sRGB"
       id="filter3794-01">
      <feGaussianBlur
         id="feGaussianBlur3796-01"
         stdDeviation="5.28" />
    </filter>
  </defs>
  <sodipodi:namedview
     id="base"
     pagecolor="#ffffff"
     bordercolor="#666666"
     borderopacity="1.0"
     inkscape:pageopacity="0.0"
     inkscape:pageshadow="2"
     inkscape:zoom="3.959798"
     inkscape:cx="28.389459"
     inkscape:cy="57.490015"
     inkscape:document-units="px"
     inkscape:current-layer="layer1"
     showgrid="false"
     inkscape:window-width="1280"
     inkscape:window-height="725"
     inkscape:window-x="0"
     inkscape:window-y="25"
     inkscape:window-maximized="1" />
  <metadata
     id="metadata7">
    <rdf:RDF>
      <cc:Work
         rdf:about="">
        <dc:format>image/svg+xml</dc:format>
        <dc:type
           rdf:resource="http://purl.org/dc/dcmitype/StillImage" />
        <dc:title></dc:title>
      </cc:Work>
    </rdf:RDF>
  </metadata>
  <g
     inkscape:label="Layer 1"
     inkscape:groupmode="layer"
     id="layer1"
     transform="translate(0,-956.36217)">
    <g
       transform="translate(0,-1e-5)"
       id="g6656">
      <g
         id="g6642">
        <rect
           ry="5"
           rx="5"
           style="fill:#000000;fill-opacity:1;stroke:none;filter:url(#filter6279)"
           id="rect9283"
           width="80"
           height="80"
           x="8"
           y="964.36218"
           transform="translate(0,-7.8515622e-6)" />
        <rect
           y="964.36218"
           x="8"
           height="80"
           width="80"
           id="rect9285"
           style="fill:url(#linearGradient5801);fill-opacity:1;stroke:none"
           rx="5"
           ry="5" />
        <g
           transform="matrix(0.80882353,0,0,0.80882353,9.0764706,965.53865)"
           id="layer4">
          <path
             inkscape:connector-curvature="0"
             d="m 80,48 a 32,32 0 1 1 -64,0 32,32 0 1 1 64,0 z"
             transform="matrix(0,-1.03125,1.03125,0,-1.5,97.5)"
             id="path3663"
             style="color:#000000;fill:url(#linearGradient3863-3);fill-opacity:1;fill-rule:nonzero;stroke:none;stroke-width:1.5;marker:none;visibility:visible;display:inline;overflow:visible;enable-background:accumulate" />
          <path
             d="M 14,48 C 14,66.777682 29.222318,82 48,82 66.777682,82 82,66.777682 82,48 82,29.222318 66.777682,14 48,14 29.222318,14 14,29.222318 14,48 z m 1.030303,0 C 15.030303,29.791339 29.791339,15.030303 48,15.030303 66.208661,15.030303 80.969697,29.791339 80.969697,48 80.969697,66.208661 66.208661,80.969697 48,80.969697 29.791339,80.969697 15.030303,66.208661 15.030303,48 z"
             inkscape:connector-curvature="0"
             id="path3801"
             style="opacity:0.3;color:#000000;fill:url(#linearGradient3814-2);fill-opacity:1;fill-rule:nonzero;stroke:none;stroke-width:1.5;marker:none;visibility:visible;display:inline;overflow:visible;enable-background:accumulate" />
          <path
             d="M 48,16 C 30.326888,16 16,30.326888 16,48 16,65.673112 30.326888,80 48,80 65.673112,80 80,65.673112 80,48 80,30.326888 65.673112,16 48,16 z m 0,1 C 65.120827,17 79,30.879173 79,48 79,65.120827 65.120827,79 48,79 30.879173,79 17,65.120827 17,48 17,30.879173 30.879173,17 48,17 z"
             inkscape:connector-curvature="0"
             id="path3816"
             style="opacity:0.6;color:#000000;fill:#000000;fill-opacity:1;fill-rule:nonzero;stroke:none;stroke-width:1.5;marker:none;visibility:visible;display:inline;overflow:visible;enable-background:accumulate" />
          <path
             d="M 48,16 C 30.326888,16 16,30.326888 16,48 16,65.673112 30.326888,80 48,80 65.673112,80 80,65.673112 80,48 80,30.326888 65.673112,16 48,16 z m 0,2 C 64.584659,18 78,31.415341 78,48 78,64.584659 64.584659,78 48,78 31.415341,78 18,64.584659 18,48 18,31.415341 31.415341,18 48,18 z m -0.0625,13.03125 c -1.473381,0.06395 -3.758316,0.06897 -6,0.40625 -2.225278,0.334808 -4.613809,0.949551 -6.21875,2.84375 -1.211318,1.429631 -1.368447,3.337318 -1.03125,4.9375 0.342438,1.625054 1.389607,3.488155 3.46875,3.875 0.759158,0.141249 1.532916,0.149462 2.3125,0.125 -3.190416,1.081981 -5.708442,2.721076 -7.125,5.0625 -1.5261,2.522485 -1.712379,5.610997 -0.8125,8.78125 1.298397,4.574223 5.726376,7.751729 10.5625,7.9375 a 0.99219516,0.99219516 0 0 0 0.03125,0 l 0.03125,0 c 4.194983,-0.0092 6.44002,-1.285396 7.59375,-2.0625 0.36926,-0.248718 0.567911,-0.369612 0.625,-0.40625 -0.01911,0.003 0.08026,-0.05332 0.8125,0.34375 0.873439,0.789109 1.897367,1.328433 3.03125,1.53125 1.328776,0.237678 2.862689,0.112276 4.09375,-0.84375 0.747886,-0.580797 2.162064,-1.190989 3.3125,-2.4375 0.611901,-0.663001 1.156691,-1.61249 1.1875,-2.75 0.02849,-1.051864 -0.397509,-2.074765 -1.03125,-3.0625 -0.0026,-0.01406 0.0049,-0.01628 0,-0.03125 0.0029,0.0187 -0.01639,0.02573 0,-0.09375 0.03114,-0.226979 0.249907,-0.888056 0.46875,-1.78125 0.434769,-1.774487 0.946368,-4.513238 0.65625,-8.625 C 63.61672,40.677817 62.017403,37.043088 59.21875,34.5625 56.421722,32.083352 52.539047,30.831541 47.9375,31.03125 z m 0.59375,20.65625 c 0.833387,0 1.09375,0.426875 1.09375,0.71875 0,0.283011 -0.293132,0.75 -1.09375,0.75 -0.785933,0 -1.15625,-0.561649 -1.15625,-0.75 0,-0.197494 0.337409,-0.71875 1.15625,-0.71875 z"
             inkscape:connector-curvature="0"
             id="path3857"
             style="opacity:0.2;color:#000000;fill:#000000;fill-opacity:1;fill-rule:nonzero;stroke:none;stroke-width:1.5;marker:none;visibility:visible;display:inline;overflow:visible;enable-background:accumulate" />
          <path
             inkscape:connector-curvature="0"
             d="m 47.96875,32.03125 c -1.520611,0.066 -3.736856,0.0533 -5.875,0.375 -2.138144,0.321698 -4.271666,0.934005 -5.625,2.53125 -0.954709,1.126774 -1.104857,2.675107 -0.8125,4.0625 0.292357,1.387393 1.129534,2.835125 2.6875,3.125 1.500915,0.279261 3.247381,0.07132 4.96875,-0.125 1.721369,-0.196322 3.428248,-0.403185 4.59375,-0.28125 0.693206,0.07252 0.859427,0.329091 0.875,0.375 0.01557,0.04591 0.102829,0.223272 -0.4375,0.59375 -0.486139,0.333323 -1.731345,0.56523 -3.0625,0.6875 -1.331155,0.12227 -2.710133,0.150006 -3.875,0.5 -3.393789,1.019692 -5.860521,2.661238 -7.21875,4.90625 -1.358229,2.245012 -1.533378,5.019992 -0.6875,8 1.168351,4.116073 5.203483,7.048905 9.625,7.21875 a 1.0035637,1.0035637 0 0 0 0.03125,0 c 4.009558,-0.0088 5.935764,-1.137127 7.03125,-1.875 0.547743,-0.368937 0.815843,-0.528665 1.03125,-0.5625 0.215407,-0.03384 0.602313,-0.0154 1.4375,0.4375 0.770093,0.757994 1.728574,1.254798 2.75,1.4375 1.136676,0.203317 2.367776,0.07741 3.3125,-0.65625 0.903224,-0.70143 2.213463,-1.28837 3.1875,-2.34375 0.487019,-0.52769 0.883451,-1.251989 0.90625,-2.09375 0.0228,-0.841761 -0.287495,-1.700483 -0.90625,-2.625 -0.105793,-0.158071 -0.14966,-0.248755 -0.09375,-0.65625 0.05591,-0.407495 0.257775,-1.045168 0.46875,-1.90625 0.421949,-1.722164 0.907386,-4.31032 0.625,-8.3125 C 62.631623,40.951537 61.142826,37.599574 58.5625,35.3125 55.982174,33.025426 52.369164,31.84027 47.96875,32.03125 z m 0.5625,18.65625 c 1.261558,0 2.09375,0.816699 2.09375,1.71875 0,0.902049 -0.844277,1.75 -2.09375,1.75 -1.249472,0 -2.15625,-0.87569 -2.15625,-1.75 0,-0.874311 0.894694,-1.71875 2.15625,-1.71875 z"
             id="path3848"
             style="opacity:0.6;fill:#000000;fill-opacity:1;stroke:none" />
          <path
             d="m 48.007543,33.019037 c -3.116149,0.135243 -8.651842,0.02585 -10.802203,2.56377 -1.314015,1.550837 -0.699416,5.164352 1.314214,5.539008 2.508548,0.466741 6.747224,-0.695893 9.465849,-0.411469 1.895575,0.198316 2.473267,1.726886 0.929567,2.78533 -1.634516,1.120711 -5.348658,0.798131 -7.222067,1.361013 -6.47696,1.946057 -8.79807,6.057096 -7.212155,11.644235 1.034113,3.643154 4.673142,6.345688 8.666246,6.499076 7.681365,-0.01688 6.269859,-3.891366 9.989192,-1.874453 1.224003,1.412743 3.69011,1.878922 4.968374,0.886241 2.055141,-1.595991 5.135028,-2.462601 2.948969,-5.728916 -1.046863,-1.564177 1.414685,-3.578848 0.865459,-11.36288 C 61.399289,37.554431 56.40394,32.65463 48.007543,33.019037 z m 0.522778,16.680328 c 1.730009,0 3.10924,1.214719 3.10924,2.722027 0,1.507307 -1.379231,2.722027 -3.10924,2.722027 -1.730008,0 -3.141294,-1.21472 -3.141294,-2.722027 0,-1.507308 1.411286,-2.722027 3.141294,-2.722027 z"
             inkscape:connector-curvature="0"
             id="path3821"
             style="fill:url(#linearGradient3836-7);fill-opacity:1;stroke:none" />
          <path
             d="M 49.53125,33 C 49.033308,32.98233 48.524775,33.0085 48,33.03125 c -3.116149,0.135243 -8.630889,0.02458 -10.78125,2.5625 -1.314015,1.550837 -0.70113,5.156594 1.3125,5.53125 2.508548,0.466741 6.750125,-0.690674 9.46875,-0.40625 1.895575,0.198316 2.44995,1.722806 0.90625,2.78125 -1.634516,1.120711 -5.345341,0.780868 -7.21875,1.34375 -6.47696,1.946057 -8.804665,6.069111 -7.21875,11.65625 1.034113,3.643154 4.694396,6.346612 8.6875,6.5 7.681365,-0.01688 6.249417,-3.891913 9.96875,-1.875 1.224003,1.412743 3.690486,1.867681 4.96875,0.875 2.055141,-1.595991 5.154809,-2.452435 2.96875,-5.71875 -1.046863,-1.564177 1.392976,-3.590968 0.84375,-11.375 C 61.419032,38.001037 57.000377,33.26502 49.53125,33 z m -1.5,1 c 4.001872,-0.173683 7.068617,0.906728 9.21875,2.8125 2.150133,1.905772 3.441997,4.676802 3.6875,8.15625 0.267066,3.785061 -0.194467,6.089099 -0.59375,7.71875 -0.199641,0.814826 -0.37928,1.472911 -0.46875,2.125 -0.08947,0.652089 -0.0381,1.382768 0.375,2 0.476378,0.711784 0.601751,1.204578 0.59375,1.5 -0.008,0.295422 -0.131578,0.48364 -0.40625,0.78125 -0.549343,0.595219 -1.789204,1.233251 -2.9375,2.125 -0.342441,0.265935 -1.021831,0.411497 -1.75,0.28125 -0.728169,-0.130247 -1.441178,-0.499283 -1.875,-1 a 0.97433367,0.97433367 0 0 0 -0.28125,-0.21875 c -1.021723,-0.554058 -1.862588,-0.812163 -2.65625,-0.6875 -0.793662,0.124663 -1.323979,0.556154 -1.84375,0.90625 -1.035482,0.697457 -2.263026,1.516855 -5.90625,1.53125 -0.01034,-3.97e-4 -0.02091,4.36e-4 -0.03125,0 -3.565251,-0.150453 -6.848828,-2.637695 -7.75,-5.8125 -0.741578,-2.612561 -0.564438,-4.698497 0.46875,-6.40625 1.033188,-1.707753 3.006056,-3.103526 6.09375,-4.03125 0.715187,-0.214884 2.099782,-0.308887 3.5,-0.4375 1.400218,-0.128613 2.861267,-0.250474 4,-1.03125 0.996628,-0.683342 1.532219,-1.827563 1.1875,-2.84375 -0.344719,-1.016187 -1.367546,-1.593733 -2.5625,-1.71875 -1.547478,-0.161898 -3.324817,0.08663 -5.03125,0.28125 -1.706433,0.194619 -3.328933,0.313817 -4.34375,0.125 -0.471717,-0.08777 -0.934505,-0.658498 -1.125,-1.5625 -0.190495,-0.904002 0.007,-1.940703 0.375,-2.375 0.805129,-0.950237 2.4987,-1.552045 4.4375,-1.84375 1.9388,-0.291705 4.030553,-0.3058 5.625,-0.375 z m 0.5,14.71875 c -2.184815,0 -4.125,1.565632 -4.125,3.6875 0,2.121867 1.928452,3.71875 4.125,3.71875 2.196549,0 4.0625,-1.623814 4.0625,-3.71875 0,-2.094937 -1.877684,-3.6875 -4.0625,-3.6875 z m 0,0.96875 c 1.730009,0 3.09375,1.211442 3.09375,2.71875 0,1.507307 -1.363741,2.75 -3.09375,2.75 -1.730008,0 -3.15625,-1.242693 -3.15625,-2.75 0,-1.507308 1.426242,-2.71875 3.15625,-2.71875 z"
             inkscape:connector-curvature="0"
             id="path3865"
             style="opacity:0.3;fill:url(#linearGradient3207-7);fill-opacity:1;stroke:none" />
        </g>
        <g
           transform="translate(0,956.36218)"
           id="layer5">
          <rect
             width="66"
             height="66"
             rx="12"
             ry="12"
             x="15"
             y="15"
             clip-path="url(#clipPath3613-60)"
             id="rect3171"
             style="opacity:0.05;fill:url(#linearGradient3229);fill-opacity:1;fill-rule:nonzero;stroke:#ffffff;stroke-width:0.5;stroke-linecap:round;stroke-linejoin:miter;stroke-miterlimit:4;stroke-opacity:1;stroke-dasharray:none;stroke-dashoffset:0;filter:url(#filter3794-01)" />
        </g>
      </g>
    </g>
  </g>
</svg>
