<?xml version="1.0" encoding="UTF-8" standalone="no"?>
<!-- Created with Inkscape (http://www.inkscape.org/) -->

<svg
   xmlns:dc="http://purl.org/dc/elements/1.1/"
   xmlns:cc="http://creativecommons.org/ns#"
   xmlns:rdf="http://www.w3.org/1999/02/22-rdf-syntax-ns#"
   xmlns:svg="http://www.w3.org/2000/svg"
   xmlns="http://www.w3.org/2000/svg"
   xmlns:xlink="http://www.w3.org/1999/xlink"
   xmlns:sodipodi="http://sodipodi.sourceforge.net/DTD/sodipodi-0.dtd"
   xmlns:inkscape="http://www.inkscape.org/namespaces/inkscape"
   width="96"
   height="96"
   id="svg2"
   version="1.1"
   inkscape:version="0.48.1 r9760"
   sodipodi:docname="awn-settings.svg">
  <defs
     id="defs4">
    <filter
       color-interpolation-filters="sRGB"
       inkscape:collect="always"
       id="filter6279">
      <feGaussianBlur
         inkscape:collect="always"
         stdDeviation="0.8"
         id="feGaussianBlur6281" />
    </filter>
    <linearGradient
       inkscape:collect="always"
       xlink:href="#linearGradient3733"
       id="linearGradient5801"
       gradientUnits="userSpaceOnUse"
       gradientTransform="translate(0,-7.8515622e-6)"
       x1="48"
       y1="1052.3622"
       x2="48"
       y2="902.36218" />
    <linearGradient
       id="linearGradient3733"
       y2="5.9877"
       gradientUnits="userSpaceOnUse"
       x2="48"
       y1="56.251999"
       x1="48">
      <stop
         id="stop1430"
         style="stop-color:#3465a4"
         offset="0" />
      <stop
         id="stop1432"
         style="stop-color:#729fcf"
         offset="1" />
    </linearGradient>
    <linearGradient
       y2="-9.8172998"
       x2="11.375"
       y1="22"
       x1="11.375"
       gradientUnits="userSpaceOnUse"
       id="linearGradient3326-5"
       xlink:href="#linearGradient3327-8"
       inkscape:collect="always" />
    <linearGradient
       id="linearGradient3327-8">
      <stop
         id="stop3330-7"
         offset="0" />
      <stop
         id="stop3333-0"
         style="stop-opacity:0"
         offset="1" />
    </linearGradient>
    <linearGradient
       y2="7.2536998"
       x2="-3.0608001"
       y1="27.257999"
       x1="-3.0608001"
       gradientTransform="translate(11.119,-6.2582)"
       gradientUnits="userSpaceOnUse"
       id="linearGradient3328"
       xlink:href="#ButtonColor-6"
       inkscape:collect="always" />
    <linearGradient
       id="ButtonColor-6"
       y2="0.9993"
       gradientUnits="userSpaceOnUse"
       x2="10.32"
       y1="21"
       x1="10.32">
      <stop
         id="stop3189-2"
         style="stop-color:#afafaf"
         offset="0" />
      <stop
         id="stop3191-6"
         style="stop-color:#d8d8d8"
         offset="1" />
    </linearGradient>
    <clipPath
       id="clipPath2849-2">
      <rect
         id="rect2851-4"
         style="fill:#ffffff;fill-rule:evenodd"
         rx="2"
         ry="2"
         height="20"
         width="20"
         y="1"
         x="1" />
    </clipPath>
    <filter
       id="filter3194-1"
       height="1.36"
       width="1.36"
       color-interpolation-filters="sRGB"
       y="-0.18000001"
       x="-0.18000001">
      <feGaussianBlur
         id="feGaussianBlur3196-4"
         stdDeviation="1.2" />
    </filter>
    <linearGradient
       y2="0.90025002"
       x2="5"
       y1="21"
       x1="5"
       gradientUnits="userSpaceOnUse"
       id="linearGradient3330"
       xlink:href="#linearGradient3764"
       inkscape:collect="always" />
    <linearGradient
       id="linearGradient3764"
       y2="5.4252"
       gradientUnits="userSpaceOnUse"
       x2="58.650002"
       gradientTransform="matrix(1.0172,0,0,1.0172,-1.1034,-1.1034)"
       y1="122"
       x1="58.650002">
      <stop
         id="stop3766"
         style="stop-color:#969696"
         offset="0" />
      <stop
         id="stop3768"
         style="stop-color:#cacaca"
         offset="1" />
    </linearGradient>
    <clipPath
       id="clipPath6183">
      <rect
         id="rect6185"
         style="fill:#ffffff;fill-rule:evenodd"
         rx="2"
         ry="2"
         height="20"
         width="20"
         y="1"
         x="1" />
    </clipPath>
    <clipPath
       id="clipPath3739">
      <path
         inkscape:connector-curvature="0"
         id="path3741"
         style="fill:#ffffff;fill-rule:evenodd"
         d="m 33,1 c -0.277,0 -0.54181,0.055313 -0.78125,0.15625 -0.37163,0.26346 -0.71445,0.58231 -1,0.9375 -0.138,0.2716 -0.219,0.5798 -0.219,0.9062 v 4.9688 c 0.89033,1.2931 2.3739,2.1563 4.0625,2.1562 2.727,0 4.938,-2.2106 4.938,-4.9375 0,-1.7705 -0.944,-3.316 -2.344,-4.1875 h -4.656 z m 7.5312,0 0.5625,0.84375 0.46875,-0.25 0.437,-0.0938 h 1.125 l 0.25,0.59375 -0.75,0.8125 -0.40625,0.25 -0.53125,0.15625 0.25,1.0938 0.5,-0.0625 0.46875,0.0625 1.0312,0.4375 V 5.5 L 42.9059,5.9688 42.4379,6 l -0.5,-0.03125 -0.25,1.125 0.531,0.1562 0.406,0.2188 0.75,0.8124 -0.25,0.5938 -1.125,0.0312 -0.438,-0.125 -0.468,-0.2812 -0.625,0.96875 0.375,0.3125 0.3125,0.40625 0.4375,1.0312 -0.469,0.469 -1.031,-0.438 -0.406,-0.25 -0.313,-0.438 -0.96875,0.65625 0.25,0.4375 0.15625,0.5 -0.03125,1.0625 -0.625,0.282 -0.781,-0.781 -0.281,-0.407 -0.094,-0.531 -1.125,0.25 0.03125,0.5 -0.0625,0.5 -0.4375,1 h -0.65625 l -0.46875,-1 -0.03125,-0.5 0.03125,-0.5 -1.125,-0.25 -0.094,0.531 -0.281,0.407 -0.781,0.781 -0.59375,-0.28125 -0.0625,-1.0625 0.15625,-0.5 0.25,-0.4375 -0.75,-0.5 v 8.281 c 0,1.108 0.892,2 2,2 h 6.8438 l 0.28125,-0.25 0.46875,-0.25 -0.46875,-1.1562 -0.53125,0.1875 -0.5,0.03125 -1.1562,-0.25 -0.15625,-0.6875 0.96875,-0.6875 0.5,-0.15625 0.53125,-0.0625 v -1.2188 l -0.53125,-0.03125 -0.5,-0.1875 -1,-0.65625 0.15625,-0.6875 1.1562,-0.25 h 0.5 l 0.53125,0.1875 0.46875,-1.1562 -0.5,-0.25 -0.40625,-0.3125 -0.625,-1 0.375,-0.59375 1.1562,0.1875 0.5,0.25 0.40625,0.34375 0.84375,-0.875 -0.34375,-0.40625 -0.21875,-0.46875 -0.21875,-1.1875 0.5625,-0.375 1,0.625 0.34375,0.375 0.28125,0.5 1.125,-0.46875 -0.188,-0.5308 -0.031,-0.5312 0.25,-1.1562 0.6875,-0.125 0.6875,0.96875 0.15625,0.46875 0.0625,0.5625 1.2188,-0.03125 0.03125,-0.53125 0.1875,-0.5 0.656,-0.9688 0.688,0.125 0.281,1.1563 -0.031,0.5312 -0.188,0.5 1.157,0.469 0.25,-0.469 0.281,-0.3438 V 3.0002 c 0,-1.108 -0.892,-2 -2,-2 h -8.4688 z m -5.5,0.3125 c 2.1217,0 3.8438,1.7221 3.8438,3.8438 C 38.875,7.2779 37.153,9 35.031,9 32.91,9 31.188,7.2779 31.188,5.1562 c 0,-2.1217 1.7221,-3.8438 3.8438,-3.8438 z m 0,1.7188 c -1.242,0 -2.25,0.95205 -2.25,2.125 0,1.17295 1.008,2.125 2.25,2.125 1.242,0 2.25,-0.95205 2.25,-2.125 0,-1.17295 -1.008,-2.125 -2.25,-2.125 z m 12.094,8.375 c -1.2762,0 -2.4599,0.44167 -3.4062,1.1562 L 45.5315,14.5 c 0.46114,-0.28724 1.0108,-0.4375 1.5938,-0.4375 0.29398,0 0.57511,0.04631 0.84375,0.125 l 1.2188,-2.375 c -0.642,-0.253 -1.334,-0.407 -2.064,-0.407 z M 50.219,12.3438 49,14.7188 c 0.68574,0.54448 1.1138,1.3722 1.125,2.3125 L 51,17.1873 v -4.219 c -0.24222,-0.22776 -0.50205,-0.44206 -0.78125,-0.625 z m -7.3438,1 c -0.87349,0.99394 -1.4062,2.2926 -1.4062,3.7188 0,0.63718 0.11756,1.2409 0.3125,1.8125 l 2.407,-1.094 c -0.056,-0.228 -0.063,-0.474 -0.063,-0.719 0,-0.66266 0.1992,-1.2839 0.5625,-1.7812 l -1.8125,-1.9375 z m 4.25,2.75 c -0.53504,0 -0.96875,0.43372 -0.96875,0.96875 0,0.53504 0.43372,0.96875 0.96875,0.96875 0.53504,0 0.96875,-0.43372 0.96875,-0.96875 0,-0.53504 -0.43372,-0.96875 -0.96875,-0.96875 z m 2.8125,2.0625 c -0.32204,0.82378 -1.0024,1.4646 -1.8438,1.75 l 0.156,1.094 h 0.75 c 1.108,0 2,-0.892 2,-2 v -0.65625 l -1.0625,-0.1875 z m -5.25,0.65625 -2.4375,1.125 c 0.23048,0.39031 0.49754,0.7398 0.8125,1.0625 h 4 l -0.125,-0.9375 c -0.93376,-0.05393 -1.7355,-0.53535 -2.25,-1.25 z" />
    </clipPath>
    <filter
       id="filter3743"
       color-interpolation-filters="sRGB">
      <feGaussianBlur
         id="feGaussianBlur3745"
         stdDeviation="0.8" />
    </filter>
    <linearGradient
       id="linearGradient4320"
       y2="-9.8172998"
       xlink:href="#linearGradient3327-8"
       gradientUnits="userSpaceOnUse"
       x2="11.375"
       y1="22"
       x1="11.375" />
    <linearGradient
       id="linearGradient5836">
      <stop
         id="stop5838"
         offset="0" />
      <stop
         id="stop5840"
         style="stop-opacity:0"
         offset="1" />
    </linearGradient>
    <linearGradient
       id="linearGradient4322"
       y2="7.2536998"
       xlink:href="#ButtonColor-6"
       gradientUnits="userSpaceOnUse"
       x2="-3.0608001"
       gradientTransform="translate(11.119,-6.2582)"
       y1="27.257999"
       x1="-3.0608001" />
    <linearGradient
       id="linearGradient5843"
       y2="0.9993"
       gradientUnits="userSpaceOnUse"
       x2="10.32"
       y1="21"
       x1="10.32">
      <stop
         id="stop5845"
         style="stop-color:#afafaf"
         offset="0" />
      <stop
         id="stop5847"
         style="stop-color:#d8d8d8"
         offset="1" />
    </linearGradient>
    <clipPath
       id="clipPath5849">
      <rect
         id="rect5851"
         style="fill:#ffffff;fill-rule:evenodd"
         rx="2"
         ry="2"
         height="20"
         width="20"
         y="1"
         x="1" />
    </clipPath>
    <filter
       id="filter5853"
       height="1.36"
       width="1.36"
       color-interpolation-filters="sRGB"
       y="-0.18000001"
       x="-0.18000001">
      <feGaussianBlur
         id="feGaussianBlur5855"
         stdDeviation="1.2" />
    </filter>
    <linearGradient
       id="linearGradient4324"
       y2="0.90025002"
       xlink:href="#linearGradient3764"
       gradientUnits="userSpaceOnUse"
       x2="5"
       y1="21"
       x1="5" />
    <linearGradient
       id="linearGradient5858"
       y2="5.4252"
       gradientUnits="userSpaceOnUse"
       x2="58.650002"
       gradientTransform="matrix(1.0172,0,0,1.0172,-1.1034,-1.1034)"
       y1="122"
       x1="58.650002">
      <stop
         id="stop5860"
         style="stop-color:#969696"
         offset="0" />
      <stop
         id="stop5862"
         style="stop-color:#cacaca"
         offset="1" />
    </linearGradient>
    <clipPath
       id="clipPath5864">
      <rect
         id="rect5866"
         style="fill:#ffffff;fill-rule:evenodd"
         rx="2"
         ry="2"
         height="20"
         width="20"
         y="1"
         x="1" />
    </clipPath>
    <clipPath
       id="clipPath5868">
      <path
         inkscape:connector-curvature="0"
         id="path5870"
         style="fill:#ffffff;fill-rule:evenodd"
         d="m 33,1 c -0.277,0 -0.54181,0.055313 -0.78125,0.15625 -0.37163,0.26346 -0.71445,0.58231 -1,0.9375 -0.138,0.2716 -0.219,0.5798 -0.219,0.9062 v 4.9688 c 0.89033,1.2931 2.3739,2.1563 4.0625,2.1562 2.727,0 4.938,-2.2106 4.938,-4.9375 0,-1.7705 -0.944,-3.316 -2.344,-4.1875 h -4.656 z m 7.5312,0 0.5625,0.84375 0.46875,-0.25 0.437,-0.0938 h 1.125 l 0.25,0.59375 -0.75,0.8125 -0.40625,0.25 -0.53125,0.15625 0.25,1.0938 0.5,-0.0625 0.46875,0.0625 1.0312,0.4375 V 5.5 L 42.9059,5.9688 42.4379,6 l -0.5,-0.03125 -0.25,1.125 0.531,0.1562 0.406,0.2188 0.75,0.8124 -0.25,0.5938 -1.125,0.0312 -0.438,-0.125 -0.468,-0.2812 -0.625,0.96875 0.375,0.3125 0.3125,0.40625 0.4375,1.0312 -0.469,0.469 -1.031,-0.438 -0.406,-0.25 -0.313,-0.438 -0.96875,0.65625 0.25,0.4375 0.15625,0.5 -0.03125,1.0625 -0.625,0.282 -0.781,-0.781 -0.281,-0.407 -0.094,-0.531 -1.125,0.25 0.03125,0.5 -0.0625,0.5 -0.4375,1 h -0.65625 l -0.46875,-1 -0.03125,-0.5 0.03125,-0.5 -1.125,-0.25 -0.094,0.531 -0.281,0.407 -0.781,0.781 -0.59375,-0.28125 -0.0625,-1.0625 0.15625,-0.5 0.25,-0.4375 -0.75,-0.5 v 8.281 c 0,1.108 0.892,2 2,2 h 6.8438 l 0.28125,-0.25 0.46875,-0.25 -0.46875,-1.1562 -0.53125,0.1875 -0.5,0.03125 -1.1562,-0.25 -0.15625,-0.6875 0.96875,-0.6875 0.5,-0.15625 0.53125,-0.0625 v -1.2188 l -0.53125,-0.03125 -0.5,-0.1875 -1,-0.65625 0.15625,-0.6875 1.1562,-0.25 h 0.5 l 0.53125,0.1875 0.46875,-1.1562 -0.5,-0.25 -0.40625,-0.3125 -0.625,-1 0.375,-0.59375 1.1562,0.1875 0.5,0.25 0.40625,0.34375 0.84375,-0.875 -0.34375,-0.40625 -0.21875,-0.46875 -0.21875,-1.1875 0.5625,-0.375 1,0.625 0.34375,0.375 0.28125,0.5 1.125,-0.46875 -0.188,-0.5308 -0.031,-0.5312 0.25,-1.1562 0.6875,-0.125 0.6875,0.96875 0.15625,0.46875 0.0625,0.5625 1.2188,-0.03125 0.03125,-0.53125 0.1875,-0.5 0.656,-0.9688 0.688,0.125 0.281,1.1563 -0.031,0.5312 -0.188,0.5 1.157,0.469 0.25,-0.469 0.281,-0.3438 V 3.0002 c 0,-1.108 -0.892,-2 -2,-2 h -8.4688 z m -5.5,0.3125 c 2.1217,0 3.8438,1.7221 3.8438,3.8438 C 38.875,7.2779 37.153,9 35.031,9 32.91,9 31.188,7.2779 31.188,5.1562 c 0,-2.1217 1.7221,-3.8438 3.8438,-3.8438 z m 0,1.7188 c -1.242,0 -2.25,0.95205 -2.25,2.125 0,1.17295 1.008,2.125 2.25,2.125 1.242,0 2.25,-0.95205 2.25,-2.125 0,-1.17295 -1.008,-2.125 -2.25,-2.125 z m 12.094,8.375 c -1.2762,0 -2.4599,0.44167 -3.4062,1.1562 L 45.5315,14.5 c 0.46114,-0.28724 1.0108,-0.4375 1.5938,-0.4375 0.29398,0 0.57511,0.04631 0.84375,0.125 l 1.2188,-2.375 c -0.642,-0.253 -1.334,-0.407 -2.064,-0.407 z M 50.219,12.3438 49,14.7188 c 0.68574,0.54448 1.1138,1.3722 1.125,2.3125 L 51,17.1873 v -4.219 c -0.24222,-0.22776 -0.50205,-0.44206 -0.78125,-0.625 z m -7.3438,1 c -0.87349,0.99394 -1.4062,2.2926 -1.4062,3.7188 0,0.63718 0.11756,1.2409 0.3125,1.8125 l 2.407,-1.094 c -0.056,-0.228 -0.063,-0.474 -0.063,-0.719 0,-0.66266 0.1992,-1.2839 0.5625,-1.7812 l -1.8125,-1.9375 z m 4.25,2.75 c -0.53504,0 -0.96875,0.43372 -0.96875,0.96875 0,0.53504 0.43372,0.96875 0.96875,0.96875 0.53504,0 0.96875,-0.43372 0.96875,-0.96875 0,-0.53504 -0.43372,-0.96875 -0.96875,-0.96875 z m 2.8125,2.0625 c -0.32204,0.82378 -1.0024,1.4646 -1.8438,1.75 l 0.156,1.094 h 0.75 c 1.108,0 2,-0.892 2,-2 v -0.65625 l -1.0625,-0.1875 z m -5.25,0.65625 -2.4375,1.125 c 0.23048,0.39031 0.49754,0.7398 0.8125,1.0625 h 4 l -0.125,-0.9375 c -0.93376,-0.05393 -1.7355,-0.53535 -2.25,-1.25 z" />
    </clipPath>
    <filter
       id="filter5872"
       color-interpolation-filters="sRGB">
      <feGaussianBlur
         id="feGaussianBlur5874"
         stdDeviation="0.8" />
    </filter>
    <linearGradient
       id="linearGradient3335"
       y2="-9.8172998"
       gradientUnits="userSpaceOnUse"
       x2="11.375"
       y1="22"
       x1="11.375">
      <stop
         id="stop3330-6"
         offset="0" />
      <stop
         id="stop3333-04"
         style="stop-opacity:0"
         offset="1" />
    </linearGradient>
    <linearGradient
       id="linearGradient3181"
       y2="7.2536998"
       gradientUnits="userSpaceOnUse"
       x2="-3.0608001"
       gradientTransform="translate(11.119,-6.2582)"
       y1="27.257999"
       x1="-3.0608001">
      <stop
         id="stop3189-8"
         style="stop-color:#a0a0a0"
         offset="0" />
      <stop
         id="stop3191-4"
         style="stop-color:#dcdcdc"
         offset="1" />
    </linearGradient>
    <linearGradient
       id="linearGradient3274"
       y2="105"
       gradientUnits="userSpaceOnUse"
       x2="51.484001"
       gradientTransform="matrix(0.19897,0,0,0.18111,-1.7338,-0.59153)"
       y1="23"
       x1="51.484001">
      <stop
         id="stop3270-8"
         style="stop-color:#414141"
         offset="0" />
      <stop
         id="stop3272"
         style="stop-color:#696969"
         offset="1" />
    </linearGradient>
    <linearGradient
       id="linearGradient3266-8"
       y2="22.99"
       gradientUnits="userSpaceOnUse"
       x2="45.987"
       gradientTransform="matrix(0.19897,0,0,0.18111,-1.7338,-0.59153)"
       y1="105"
       x1="45.987">
      <stop
         id="stop3300-5"
         style="stop-color:#c8c8c8"
         offset="0" />
      <stop
         id="stop3302-9"
         style="stop-color:#d9d9d9"
         offset="1" />
    </linearGradient>
    <linearGradient
       y2="62.264"
       x2="29.247"
       y1="41.248001"
       x1="29.247"
       gradientTransform="translate(21.201,-20.841)"
       gradientUnits="userSpaceOnUse"
       id="linearGradient3332"
       xlink:href="#linearGradient3660"
       inkscape:collect="always" />
    <linearGradient
       id="linearGradient3660">
      <stop
         id="stop3668-8"
         style="stop-color:#dcdcdc"
         offset="0" />
      <stop
         id="stop3670-9"
         style="stop-color:#fff"
         offset="1" />
    </linearGradient>
    <linearGradient
       id="linearGradient3639"
       y2="22.156"
       xlink:href="#linearGradient3633"
       gradientUnits="userSpaceOnUse"
       x2="54.071999"
       y1="42.659"
       x1="54.094002" />
    <linearGradient
       id="linearGradient3633">
      <stop
         id="stop3635"
         style="stop-opacity:.53906"
         offset="0" />
      <stop
         id="stop3637"
         style="stop-opacity:0"
         offset="1" />
    </linearGradient>
    <linearGradient
       y2="62.264"
       x2="29.247"
       y1="41.248001"
       x1="29.247"
       gradientTransform="translate(21.201,-20.841)"
       gradientUnits="userSpaceOnUse"
       id="linearGradient3334"
       xlink:href="#linearGradient3660"
       inkscape:collect="always" />
    <linearGradient
       id="linearGradient5897">
      <stop
         id="stop5899"
         style="stop-color:#dcdcdc"
         offset="0" />
      <stop
         id="stop5901"
         style="stop-color:#fff"
         offset="1" />
    </linearGradient>
    <linearGradient
       y2="20.778999"
       x2="53.633999"
       y1="42.659"
       x1="54.094002"
       gradientUnits="userSpaceOnUse"
       id="linearGradient3336"
       xlink:href="#linearGradient3633"
       inkscape:collect="always" />
    <linearGradient
       id="linearGradient5904">
      <stop
         id="stop5906"
         style="stop-opacity:.53906"
         offset="0" />
      <stop
         id="stop5908"
         style="stop-opacity:0"
         offset="1" />
    </linearGradient>
    <linearGradient
       id="linearGradient3657"
       y2="62.264"
       xlink:href="#linearGradient3660"
       gradientUnits="userSpaceOnUse"
       x2="29.247"
       gradientTransform="translate(21.201,-20.841)"
       y1="41.248001"
       x1="29.247" />
    <linearGradient
       id="linearGradient5911">
      <stop
         id="stop5913"
         style="stop-color:#dcdcdc"
         offset="0" />
      <stop
         id="stop5915"
         style="stop-color:#fff"
         offset="1" />
    </linearGradient>
    <linearGradient
       id="linearGradient3659"
       y2="20.778999"
       xlink:href="#linearGradient3633"
       gradientUnits="userSpaceOnUse"
       x2="53.633999"
       y1="42.659"
       x1="54.094002" />
    <linearGradient
       id="linearGradient5918">
      <stop
         id="stop5920"
         style="stop-opacity:.53906"
         offset="0" />
      <stop
         id="stop5922"
         style="stop-opacity:0"
         offset="1" />
    </linearGradient>
    <linearGradient
       y2="138.66"
       x2="48"
       y1="20.221001"
       x1="48"
       gradientUnits="userSpaceOnUse"
       id="linearGradient3388"
       xlink:href="#linearGradient3737-38"
       inkscape:collect="always" />
    <linearGradient
       id="linearGradient3737-38">
      <stop
         id="stop3739-04"
         style="stop-color:#fff"
         offset="0" />
      <stop
         id="stop3741-76"
         style="stop-color:#fff;stop-opacity:0"
         offset="1" />
    </linearGradient>
    <clipPath
       id="clipPath3613-89">
      <rect
         id="rect3615-06"
         style="fill:#ffffff"
         rx="6"
         ry="6"
         height="84"
         width="84"
         y="6"
         x="6" />
    </clipPath>
    <filter
       id="filter3794-87"
       height="1.3839999"
       width="1.3839999"
       color-interpolation-filters="sRGB"
       y="-0.192"
       x="-0.192">
      <feGaussianBlur
         id="feGaussianBlur3796-90"
         stdDeviation="5.28" />
    </filter>
  </defs>
  <sodipodi:namedview
     id="base"
     pagecolor="#ffffff"
     bordercolor="#666666"
     borderopacity="1.0"
     inkscape:pageopacity="0.0"
     inkscape:pageshadow="2"
     inkscape:zoom="3.959798"
     inkscape:cx="28.389459"
     inkscape:cy="57.490015"
     inkscape:document-units="px"
     inkscape:current-layer="layer1"
     showgrid="false"
     inkscape:window-width="1280"
     inkscape:window-height="725"
     inkscape:window-x="0"
     inkscape:window-y="25"
     inkscape:window-maximized="1" />
  <metadata
     id="metadata7">
    <rdf:RDF>
      <cc:Work
         rdf:about="">
        <dc:format>image/svg+xml</dc:format>
        <dc:type
           rdf:resource="http://purl.org/dc/dcmitype/StillImage" />
        <dc:title></dc:title>
      </cc:Work>
    </rdf:RDF>
  </metadata>
  <g
     inkscape:label="Layer 1"
     inkscape:groupmode="layer"
     id="layer1"
     transform="translate(0,-956.36217)">
    <g
       transform="translate(0,-1e-5)"
       id="g6788">
      <rect
         transform="translate(0,-7.8515622e-6)"
         y="964.36218"
         x="8"
         height="80"
         width="80"
         id="rect9283"
         style="fill:#000000;fill-opacity:1;stroke:none;filter:url(#filter6279)"
         rx="5"
         ry="5" />
      <rect
         ry="5"
         rx="5"
         style="fill:url(#linearGradient5801);fill-opacity:1;stroke:none"
         id="rect9285"
         width="80"
         height="80"
         x="8"
         y="964.36218" />
      <g
         id="layer6"
         transform="matrix(0.73825503,0,0,0.73825503,13.01745,957.4105)">
        <path
           d="M 22.065,76.686 15,84 29,83.865 22.065,76.686 z"
           style="fill:#ffffff;fill-opacity:0.67760004"
           id="path3886"
           inkscape:connector-curvature="0" />
        <g
           transform="translate(-80.75,21.5)"
           id="g4292">
          <g
             transform="translate(117.75,41.5)"
             id="g4294">
            <g
               id="g4296">
              <rect
                 x="0.5"
                 y="0.5"
                 width="21"
                 height="21.5"
                 ry="2.5"
                 rx="2.5"
                 style="opacity:0.3;fill:url(#linearGradient3326-5)"
                 id="rect4298" />
              <rect
                 x="1"
                 y="2"
                 width="20"
                 height="20"
                 ry="2.3255999"
                 rx="2.381"
                 style="opacity:0.5"
                 id="rect4300" />
            </g>
            <rect
               x="1"
               y="1"
               width="20"
               height="20"
               ry="2"
               rx="2"
               style="fill:url(#linearGradient3328);fill-rule:evenodd"
               id="rect4302" />
          </g>
          <g
             transform="translate(117.75,41.5)"
             id="g4304">
            <rect
               x="3"
               y="3"
               width="16"
               height="16"
               ry="2"
               rx="2"
               clip-path="url(#clipPath2849-2)"
               style="opacity:0.15;fill:#ffffff;filter:url(#filter3194-1)"
               id="rect4306" />
          </g>
          <path
             transform="translate(117.75,41.5)"
             clip-path="url(#clipPath6183)"
             d="m 4.75,-3.6562 -0.46875,1 -0.0312,0.4687 0.0312,0.5313 -1.125,0.2187 -0.0937,-0.4687 -0.2813,-0.4376 -0.7812,-0.7812 -0.5938,0.25 -0.0624,1.125 0.1562,0.4688 0.25,0.4375 -0.96875,0.625 -0.3125,-0.375 -0.375,-0.3125 -1.0625,-0.375 -0.46875,0.4375 0.4374,1.0312 0.28125,0.40625 0.40625,0.3125 L -0.9688,1.8438 -1.37505,1.5938 -1.84385,1.5 h -1.125 l -0.28125,0.59375 0.78125,0.8125 0.4375,0.25 0.5,0.15625 -0.25,1.0938 -0.5,-0.0625 -0.5,0.0625 -1,0.4375 v 0.65625 l 1,0.46875 0.5,0.03125 0.5,-0.03125 0.25,1.125 -0.5,0.15625 -0.4375,0.21875 -0.7813,0.8124 0.2812,0.5938 1.125,0.0312 0.4688,-0.125 0.40625,-0.2812 0.65625,0.9688 -0.40625,0.3124 -0.28125,0.4068 -0.4375,1.031 0.46875,0.469 1.0625,-0.438 0.375,-0.25 0.3125,-0.438 0.96875,0.657 -0.25,0.4375 -0.15625,0.5 0.0625,1.0625 0.5938,0.281 0.7812,-0.781 0.2813,-0.407 0.09375,-0.53125 1.125,0.25 -0.03125,0.5 0.03125,0.5 0.46875,1 h 0.65625 l 0.4375,-1 0.0625,-0.5 -0.03125,-0.5 1.1249,-0.25 0.0938,0.531 0.2812,0.407 0.7812,0.781 0.625,-0.28125 0.03125,-1.0625 -0.15625,-0.5 -0.25,-0.4375 0.9688,-0.657 0.3125,0.438 0.40625,0.25 1.0312,0.4375 0.46875,-0.46875 -0.4375,-1.0312 -0.3125,-0.40625 -0.375,-0.3125 0.625,-0.9688 0.468,0.2812 0.438,0.125 1.125,-0.0312 0.25,-0.5938 -0.75,-0.8124 -0.406,-0.2188 -0.531,-0.1562 0.25,-1.125 0.5,0.0312 0.468,-0.0312 1.032,-0.4688 V 4.84325 l -1.0312,-0.4375 -0.46875,-0.0625 -0.5,0.0625 -0.25,-1.0938 0.53125,-0.15625 0.40625,-0.25 0.75,-0.8125 -0.25,-0.5937 h -1.125 l -0.4375,0.09375 -0.46875,0.25 -0.625,-0.9375 0.375,-0.3125 0.3125,-0.40625 0.4375,-1.0312 -0.46875,-0.4375 -1.0312,0.375 -0.40625,0.3125 -0.3125,0.375 -0.96875,-0.625 0.25,-0.4375 0.1561,-0.4688 -0.0313,-1.125 -0.625,-0.25 -0.7812,0.7812 -0.2812,0.4376 -0.0938,0.4687 -1.125,-0.2187 0.0312,-0.5313 -0.0625,-0.46875 -0.4375,-1 H 4.7499 z M 5.0625,0.25 C 7.7894,0.25 10,2.4606 10,5.1875 10,7.9144 7.7894,10.125 5.0625,10.125 2.3356,10.125 0.125,7.9144 0.125,5.1875 0.125,2.4606 2.3356,0.25 5.0625,0.25 z M 5.0312,1.3125 C 2.9096,1.3125 1.1875,3.0346 1.1875,5.1562 1.1875,7.2779 2.9096,9 5.0312,9 7.1529,9 8.875,7.2779 8.875,5.1562 8.875,3.0346 7.1529,1.3125 5.0312,1.3125 z m 0,1.7188 c 1.242,0 2.25,0.95205 2.25,2.125 0,1.17295 -1.008,2.125 -2.25,2.125 -1.242,0 -2.25,-0.95205 -2.25,-2.125 0,-1.17295 1.008,-2.125 2.25,-2.125 z m 13.531,4.6562 -0.65625,0.96875 -0.1875,0.5 -0.03,0.5313 -1.219,0.0313 -0.063,-0.5626 -0.156,-0.4687 -0.688,-0.9687 -0.687,0.125 -0.25,1.1562 0.03125,0.53125 0.1875,0.53125 -1.125,0.46875 -0.28125,-0.5 -0.34375,-0.375 -1,-0.625 -0.5625,0.375 0.21875,1.1875 0.21875,0.46875 0.34375,0.40625 -0.84375,0.875 -0.407,-0.344 -0.5,-0.25 -1.1562,-0.1875 -0.375,0.59375 0.625,1 0.40625,0.3125 0.5,0.25 -0.46875,1.1562 -0.53125,-0.1875 h -0.5 l -1.1562,0.25 -0.15625,0.6875 1,0.65625 0.5,0.1875 0.53125,0.03125 v 1.2188 l -0.53125,0.0625 -0.5,0.15625 -0.96875,0.6875 0.15625,0.6875 1.1562,0.25 0.5,-0.03125 0.53125,-0.1875 0.46875,1.1562 -0.46875,0.25 -0.40625,0.34375 -0.625,1 0.40625,0.5625 1.1562,-0.1875 0.46875,-0.25 0.40625,-0.34375 0.875,0.84375 -0.34375,0.4375 -0.21875,0.46875 -0.21875,1.1562 0.59375,0.375 1,-0.625 0.34375,-0.40625 0.25,-0.5 1.125,0.46875 -0.15625,0.53125 -0.03125,0.5 0.25,1.1875 0.6875,0.125 0.6875,-1 0.15625,-0.46875 0.03125,-0.5625 h 1.25 l 0.03125,0.53125 0.1875,0.5 0.6875,0.96875 0.6875,-0.15625 0.25,-1.1562 -0.0625,-0.5 -0.15625,-0.53125 1.125,-0.46875 0.25,0.46875 0.34375,0.40625 1,0.625 0.59375,-0.40625 -0.21875,-1.1562 -0.25,-0.46875 -0.34375,-0.40625 0.875,-0.875 0.40625,0.34375 0.46875,0.21875 1.1875,0.21875 0.375,-0.59375 -0.65625,-1 -0.40625,-0.34375 -0.46875,-0.25 0.46875,-1.125 0.5,0.15625 0.53125,0.03125 1.1562,-0.25 0.126,-0.689 -0.969,-0.688 -0.5,-0.156 -0.531,-0.031 -0.03125,-1.25 0.5625,-0.03125 0.46875,-0.1875 0.96875,-0.6875 -0.125,-0.6875 -1.1562,-0.21875 -0.53125,0.03125 -0.5,0.15625 -0.5,-1.125 0.5,-0.25 0.375,-0.34375 0.625,-1 -0.375,-0.59375 -1.1875,0.21875 -0.4375,0.25 -0.4375,0.34375 -0.875,-0.875 0.344,-0.406 0.25,-0.469 0.187,-1.1562 -0.594,-0.4063 -0.969,0.6563 -0.343,0.4062 -0.25,0.469 -1.157,-0.469 0.188,-0.5 0.031,-0.5312 -0.281,-1.1563 -0.688,-0.125 z m -1.4375,3.7188 c 0.72958,0 1.4223,0.15408 2.0625,0.40625 l -1.2188,2.375 c -0.26864,-0.07869 -0.54977,-0.125 -0.84375,-0.125 -0.5829,0 -1.1326,0.15026 -1.5938,0.4375 l -1.8125,-1.9375 c 0.94634,-0.71458 2.13,-1.1562 3.4062,-1.1562 z m 3.0938,0.9375 c 1.5392,1.0085 2.5625,2.7419 2.5625,4.7188 0,0.14764 -0.02011,0.29269 -0.03125,0.4375 l -2.624,-0.469 c -0.011,-0.94 -0.439,-1.768 -1.125,-2.312 l 1.2188,-2.375 z m -7.3438,1 1.8125,1.9375 c -0.3633,0.49738 -0.5625,1.1186 -0.5625,1.7812 0,0.24463 0.0073,0.49099 0.0625,0.71875 l -2.405,1.093 c -0.19494,-0.57162 -0.3125,-1.1753 -0.3125,-1.8125 0,-1.4262 0.53276,-2.7248 1.4062,-3.7188 z m 4.25,2.75 c 0.53504,0 0.96875,0.43372 0.96875,0.96875 0,0.53504 -0.43372,0.96875 -0.96875,0.96875 -0.53504,0 -0.96875,-0.43372 -0.96875,-0.96875 0,-0.53504 0.43372,-0.96875 0.96875,-0.96875 z m 2.8125,2.0625 2.625,0.46875 c -0.55993,1.9369 -2.1538,3.463 -4.125,3.9375 l -0.34375,-2.6562 c 0.84138,-0.28535 1.5217,-0.92622 1.8438,-1.75 z m -5.25,0.65625 c 0.51451,0.71465 1.3162,1.1961 2.25,1.25 l 0.375,2.6562 c -0.05979,0.0019 -0.12725,-1e-6 -0.1875,0 -2.0715,1e-6 -3.8919,-1.1163 -4.875,-2.7812 l 2.4375,-1.125 z"
             style="fill:url(#linearGradient3330)"
             id="path4308"
             inkscape:connector-curvature="0" />
          <path
             d="m 128.44,42.719 -0.21875,0.1875 0.625,0.9375 0.46875,-0.25 0.4375,-0.09375 h 1.125 l 0.0937,0.25 0.15625,-0.15625 -0.25,-0.59375 h -1.125 l -0.4375,0.09375 -0.46875,0.25 -0.40625,-0.625 z m -5.6562,0.09375 c -2.1217,0 -3.8438,1.7221 -3.8438,3.8438 0,0.08492 0.0258,0.16645 0.0312,0.25 0.1303,-2.004 1.7758,-3.5938 3.8125,-3.5938 2.0368,0 3.6822,1.5897 3.8125,3.5938 0.005,-0.08355 0.0312,-0.16508 0.0312,-0.25 0,-2.1217 -1.7221,-3.8438 -3.8438,-3.8438 z m 6.75,2.4688 -0.0937,0.03125 0.25,1.0938 0.5,-0.0625 0.46875,0.0625 1.0312,0.4375 v -0.5 l -1.0312,-0.4375 -0.46875,-0.0625 -0.5,0.0625 -0.15625,-0.625 z m -8.9688,1.625 c -0.0101,0.08156 -0.0312,0.1659 -0.0312,0.25 0,1.173 1.008,2.125 2.25,2.125 1.242,0 2.25,-0.95205 2.25,-2.125 0,-0.0841 -0.0212,-0.16844 -0.0312,-0.25 -0.1305,1.056 -1.0658,1.875 -2.2188,1.875 -1.1529,0 -2.0882,-0.81904 -2.2188,-1.875 z m 7.1875,0.03125 c -0.13175,2.6092 -2.2955,4.6875 -4.9375,4.6875 -1.692,10e-7 -3.1709,-0.85784 -4.0625,-2.1562 v 0.5 c 0.89033,1.2931 2.3739,2.1563 4.0625,2.1562 2.7269,0 4.9375,-2.2106 4.9375,-4.9375 0,-0.08488 0.004,-0.16617 0,-0.25 z m 1.7812,1.6875 -0.0937,0.46875 0.53125,0.15625 0.40625,0.21875 0.59375,0.65625 0.15625,-0.34375 -0.75,-0.8125 -0.40625,-0.21875 -0.4375,-0.125 z m 6.7812,0.5625 -0.65625,0.96875 -0.1875,0.5 -0.0312,0.53125 -1.2188,0.03125 -0.0625,-0.5625 -0.15,-0.468 -0.6875,-0.96875 -0.6875,0.125 -0.25,1.1562 0.0312,0.40625 0.21875,-1.0625 0.6875,-0.125 0.6875,0.96875 0.15625,0.46875 0.0625,0.5625 1.2188,-0.03125 0.0312,-0.53125 0.1875,-0.5 0.65625,-0.96875 0.6875,0.125 0.25,1.0625 0.0312,-0.40625 -0.28,-1.157 -0.6875,-0.125 z m -6.875,1.625 -0.15625,0.09375 0.0937,0.4375 0.46875,-0.3125 1,0.625 0.34375,0.375 0.28125,0.5 1.125,-0.46875 -0.15625,-0.4375 -0.96875,0.40625 -0.28125,-0.5 -0.34375,-0.375 -0.4375,-0.28125 -0.65625,0.03125 -0.3125,-0.09375 z m -1,0.34375 -0.21875,0.3125 0.375,0.3125 0.3125,0.40625 0.28125,0.6875 0.15625,-0.15625 -0.4375,-1.0312 -0.3125,-0.40625 -0.15625,-0.125 z m 10.312,0 -0.28125,0.34375 -0.25,0.46875 -1,-0.40625 -0.15625,0.4375 1.1562,0.46875 0.25,-0.46875 0.28125,-0.34375 v -0.5 z m -11.594,1.9062 -0.375,0.59375 0.15625,0.25 0.21875,-0.34375 1.1562,0.1875 0.5,0.25 0.40625,0.34375 0.84375,-0.875 -0.21875,-0.28125 -0.625,0.65625 -0.28125,-0.21875 -0.0625,0.0625 -1.0312,-0.4375 -0.15625,-0.09375 -0.53125,-0.09375 z m -7.875,0.03125 -0.0312,0.0625 -0.15625,0.5 0.0312,0.40625 0.125,-0.40625 0.25,-0.4375 -0.21875,-0.125 z m 7.0938,0 -0.21875,0.125 0.25,0.4375 0.15625,0.46875 V 53.6565 l -0.15625,-0.5 -0.0312,-0.0625 z m 10.344,0.65625 -1,1.9375 c -0.26864,-0.07869 -0.54977,-0.125 -0.84375,-0.125 -0.58291,0 -1.1326,0.15026 -1.5938,0.4375 l -1.52,-1.625 c -0.0946,0.06312 -0.19087,0.11925 -0.28125,0.1875 l 1.8125,1.9375 c 0.46114,-0.28724 1.0108,-0.4375 1.5938,-0.4375 0.29398,0 0.57511,0.04631 0.84375,0.125 l 1.2188,-2.375 c -0.07,-0.028 -0.15,-0.038 -0.22,-0.063 z m -14.71,0.281 v 0.25 l 0.0312,-0.25 h -0.0312 z m 1.625,0 v 0.15625 l 0.0312,-0.15625 h -0.0312 z m 4.5312,1.5938 -0.3125,0.75 -0.53125,-0.1875 h -0.5 l -1.1562,0.25 -0.15625,0.6875 0.0937,0.0625 0.0625,-0.25 1.1562,-0.25 h 0.5 l 0.53125,0.1875 0.46875,-1.1562 -0.15625,-0.09375 z m 8.75,0.75 -0.15625,0.34375 c 0.68574,0.54448 1.1138,1.3722 1.125,2.3125 l 0.875,0.15625 v -0.5 l -0.875,-0.15625 c -0.0103,-0.86198 -0.38054,-1.615 -0.96875,-2.1562 z m -4.65,0.719 c -0.24217,0.43822 -0.375,0.93265 -0.375,1.4688 0,0.12232 -0.009,0.25436 0,0.375 0.0231,-0.61626 0.22181,-1.1898 0.5625,-1.6562 l -0.1875,-0.1875 z m -3,1.7188 c -0.004,0.08572 -0.0312,0.1633 -0.0312,0.25 0,0.63718 0.11756,1.2409 0.3125,1.8125 l 2.4062,-1.0938 c -0.0368,-0.15184 -0.0563,-0.3064 -0.0625,-0.46875 l -2.3438,1.0625 c -0.16894,-0.49522 -0.2547,-1.0182 -0.2813,-1.5625 z m 4.6875,0 c -0.0223,0.08151 -0.0312,0.16143 -0.0312,0.25 0,0.53504 0.43371,0.96875 0.96875,0.96875 0.53503,0 0.96875,-0.43372 0.96875,-0.96875 0,-0.08857 -0.009,-0.16849 -0.0312,-0.25 -0.11222,0.41087 -0.49104,0.71875 -0.9375,0.71875 -0.44647,0 -0.82528,-0.30788 -0.9375,-0.71875 z m -6.4062,0.40625 -0.53125,0.0625 -0.5,0.15625 -0.96875,0.6875 0.0937,0.4375 0.875,-0.625 0.5,-0.15625 0.53125,-0.0625 v -0.5 z m 2.72,2.593 -0.25,0.126 c 0.11547,0.19555 0.23738,0.38301 0.375,0.5625 h 0.4375 c -0.20566,-0.21224 -0.39189,-0.44548 -0.5625,-0.6875 z m 5.6562,0.0625 c -0.0221,0.0081 -0.0401,0.02366 -0.0625,0.03125 l 0.0625,0.59375 h 0.0937 l -0.0937,-0.625 z m -7.7188,0.21875 -0.3125,0.15625 -0.28125,0.25 h 0.75 l -0.15625,-0.40625 z"
             style="opacity:0.2"
             id="path4310"
             inkscape:connector-curvature="0" />
          <path
             transform="translate(87.75,41.5)"
             clip-path="url(#clipPath3739)"
             d="M 37.656,1 C 39.056,1.8715 40,3.417 40,5.1875 40,7.9144 37.789,10.125 35.062,10.125 33.374,10.125 31.89,9.2619 31,7.9688 v 2.75 l 0.75,0.5 -0.25,0.4375 -0.15625,0.5 0.0625,1.0625 0.594,0.281 0.78125,-0.78125 0.28125,-0.40625 0.09375,-0.53125 1.125,0.25 -0.03125,0.5 0.03125,0.5 0.46875,1 h 0.65625 l 0.4375,-1 0.0625,-0.5 -0.03125,-0.5 1.125,-0.25 0.09375,0.53125 0.28125,0.40625 0.78125,0.78125 0.625,-0.28125 0.03125,-1.0625 -0.15625,-0.5 -0.25,-0.4375 0.969,-0.657 0.313,0.438 0.40625,0.25 1.0312,0.4375 0.46875,-0.46875 -0.4375,-1.0312 -0.3125,-0.40625 -0.375,-0.3125 0.625,-0.9688 0.468,0.2812 0.438,0.125 1.125,-0.0312 0.25,-0.5938 -0.75,-0.8124 -0.406,-0.2188 -0.531,-0.1562 0.25,-1.125 0.5,0.0312 0.468,-0.0312 1.032,-0.4688 V 4.8433 l -1.0312,-0.4375 -0.46875,-0.0625 -0.5,0.0625 -0.25,-1.0938 0.53125,-0.15625 0.40625,-0.25 0.75,-0.8125 -0.25,-0.5937 h -1.125 l -0.438,0.0938 -0.468,0.25 -0.563,-0.8438 h -2.875 z m -5.4375,0.15625 c -0.45752,0.19287 -0.82314,0.55084 -1.0312,1 0.29499,-0.37574 0.64102,-0.72335 1.0312,-1 z M 35.031,1.3125 c -2.1217,0 -3.8438,1.7221 -3.8438,3.8438 0.002,2.1217 1.724,3.8438 3.845,3.8438 2.122,0 3.844,-1.7221 3.844,-3.8438 0,-2.1216 -1.722,-3.8437 -3.844,-3.8437 z m 0,1.7188 c 1.242,0 2.25,0.95205 2.25,2.125 0,1.17295 -1.008,2.125 -2.25,2.125 -1.242,0 -2.25,-0.95205 -2.25,-2.125 0,-1.17295 1.008,-2.125 2.25,-2.125 z m 13.531,4.6562 -0.65625,0.96875 -0.1875,0.5 -0.03,0.5313 -1.219,0.0313 -0.063,-0.5626 -0.156,-0.4687 -0.688,-0.9687 -0.687,0.125 -0.25,1.1562 0.03125,0.53125 0.1875,0.53125 -1.125,0.46875 -0.28125,-0.5 -0.34375,-0.375 -1,-0.625 -0.5625,0.375 0.21875,1.1875 0.21875,0.46875 0.34375,0.40625 -0.84375,0.875 -0.407,-0.344 -0.5,-0.25 -1.1562,-0.1875 -0.375,0.59375 0.625,1 0.40625,0.3125 0.5,0.25 -0.46875,1.1562 -0.53125,-0.1875 h -0.5 l -1.1562,0.25 -0.15625,0.6875 1,0.65625 0.5,0.1875 0.53125,0.03125 v 1.2188 l -0.53125,0.0625 -0.5,0.15625 -0.96875,0.6875 0.15625,0.6875 1.1562,0.25 0.5,-0.03125 0.532,-0.187 0.469,1.156 -0.469,0.25 -0.281,0.25 h 3.218 c -0.314,-0.323 -0.582,-0.672 -0.812,-1.062 l 2.4375,-1.125 c 0.51451,0.71465 1.3162,1.1961 2.25,1.25 l 0.124,0.937 h 1.188 l -0.156,-1.094 c 0.84138,-0.28535 1.5217,-0.92622 1.8438,-1.75 l 1.062,0.188 v -1.156 l -0.875,-0.157 c -0.011,-0.94 -0.439,-1.768 -1.125,-2.312 l 1.2188,-2.375 c 0.2792,0.18294 0.53903,0.39724 0.78125,0.625 v -3.3128 l -0.281,0.3438 -0.25,0.469 -1.157,-0.469 0.188,-0.5 0.031,-0.5312 -0.281,-1.1563 -0.688,-0.125 z m -1.4375,3.7188 c 0.72958,0 1.4223,0.15408 2.0625,0.40625 l -1.2188,2.375 c -0.26864,-0.07869 -0.54977,-0.125 -0.84375,-0.125 -0.5829,0 -1.1326,0.15026 -1.5938,0.4375 l -1.8125,-1.9375 c 0.94634,-0.71458 2.13,-1.1562 3.4062,-1.1562 z m -4.25,1.9375 1.8125,1.9375 c -0.3633,0.49738 -0.5625,1.1186 -0.5625,1.7812 0,0.24463 0.0073,0.49099 0.0625,0.71875 l -2.405,1.093 c -0.19494,-0.57162 -0.3125,-1.1753 -0.3125,-1.8125 0,-1.4262 0.53276,-2.7248 1.4062,-3.7188 z m 4.25,2.75 c 0.53504,0 0.96875,0.43372 0.96875,0.96875 0,0.53504 -0.43372,0.96875 -0.96875,0.96875 -0.53504,0 -0.96875,-0.43372 -0.96875,-0.96875 0,-0.53504 0.43372,-0.96875 0.96875,-0.96875 z"
             style="opacity:0.5;fill:#ffffff;filter:url(#filter3743)"
             id="path4312"
             inkscape:connector-curvature="0" />
          <g
             transform="translate(117.75,41.5)"
             id="g4314">
            <path
               d="M 3,1 C 1.892,1 1,1.892 1,3 V 4 C 1,2.892 1.892,2 3,2 h 16 c 1.108,0 2,0.892 2,2 V 3 C 21,1.892 20.108,1 19,1 H 3 z"
               style="opacity:0.4;fill:#ffffff;fill-rule:evenodd"
               id="path4316"
               inkscape:connector-curvature="0" />
            <path
               d="M 3,21 C 1.892,21 1,20.108 1,19 v -1 c 0,1.108 0.892,2 2,2 h 16 c 1.108,0 2,-0.892 2,-2 v 1 c 0,1.108 -0.892,2 -2,2 H 3 z"
               style="opacity:0.15;fill-rule:evenodd"
               id="path4318"
               inkscape:connector-curvature="0" />
          </g>
        </g>
        <g
           transform="translate(-54.75,21.5)"
           id="g4326">
          <g
             transform="translate(117.75,41.5)"
             id="g4328">
            <g
               id="g4330">
              <rect
                 x="0.5"
                 y="0.5"
                 width="21"
                 height="21.5"
                 ry="2.5"
                 rx="2.5"
                 style="opacity:0.3;fill:url(#linearGradient4320)"
                 id="rect4332" />
              <rect
                 x="1"
                 y="2"
                 width="20"
                 height="20"
                 ry="2.3255999"
                 rx="2.381"
                 style="opacity:0.5"
                 id="rect4334" />
            </g>
            <rect
               x="1"
               y="1"
               width="20"
               height="20"
               ry="2"
               rx="2"
               style="fill:url(#linearGradient4322);fill-rule:evenodd"
               id="rect4336" />
          </g>
          <g
             transform="translate(117.75,41.5)"
             id="g4338">
            <rect
               x="3"
               y="3"
               width="16"
               height="16"
               ry="2"
               rx="2"
               clip-path="url(#clipPath2849-2)"
               style="opacity:0.15;fill:#ffffff;filter:url(#filter3194-1)"
               id="rect4340" />
          </g>
          <path
             transform="translate(117.75,41.5)"
             clip-path="url(#clipPath6183)"
             d="m 4.75,-3.6562 -0.46875,1 -0.0312,0.4687 0.0312,0.5313 -1.125,0.2187 -0.0937,-0.4687 -0.2813,-0.4376 -0.7812,-0.7812 -0.5938,0.25 -0.0624,1.125 0.1562,0.4688 0.25,0.4375 -0.96875,0.625 -0.3125,-0.375 -0.375,-0.3125 -1.0625,-0.375 -0.46875,0.4375 0.4374,1.0312 0.28125,0.40625 0.40625,0.3125 L -0.9688,1.8438 -1.37505,1.5938 -1.84385,1.5 h -1.125 l -0.28125,0.59375 0.78125,0.8125 0.4375,0.25 0.5,0.15625 -0.25,1.0938 -0.5,-0.0625 -0.5,0.0625 -1,0.4375 v 0.65625 l 1,0.46875 0.5,0.03125 0.5,-0.03125 0.25,1.125 -0.5,0.15625 -0.4375,0.21875 -0.7813,0.8124 0.2812,0.5938 1.125,0.0312 0.4688,-0.125 0.40625,-0.2812 0.65625,0.9688 -0.40625,0.3124 -0.28125,0.4068 -0.4375,1.031 0.46875,0.469 1.0625,-0.438 0.375,-0.25 0.3125,-0.438 0.96875,0.657 -0.25,0.4375 -0.15625,0.5 0.0625,1.0625 0.5938,0.281 0.7812,-0.781 0.2813,-0.407 0.09375,-0.53125 1.125,0.25 -0.03125,0.5 0.03125,0.5 0.46875,1 h 0.65625 l 0.4375,-1 0.0625,-0.5 -0.03125,-0.5 1.1249,-0.25 0.0938,0.531 0.2812,0.407 0.7812,0.781 0.625,-0.28125 0.03125,-1.0625 -0.15625,-0.5 -0.25,-0.4375 0.9688,-0.657 0.3125,0.438 0.40625,0.25 1.0312,0.4375 0.46875,-0.46875 -0.4375,-1.0312 -0.3125,-0.40625 -0.375,-0.3125 0.625,-0.9688 0.468,0.2812 0.438,0.125 1.125,-0.0312 0.25,-0.5938 -0.75,-0.8124 -0.406,-0.2188 -0.531,-0.1562 0.25,-1.125 0.5,0.0312 0.468,-0.0312 1.032,-0.4688 V 4.84325 l -1.0312,-0.4375 -0.46875,-0.0625 -0.5,0.0625 -0.25,-1.0938 0.53125,-0.15625 0.40625,-0.25 0.75,-0.8125 -0.25,-0.5937 h -1.125 l -0.4375,0.09375 -0.46875,0.25 -0.625,-0.9375 0.375,-0.3125 0.3125,-0.40625 0.4375,-1.0312 -0.46875,-0.4375 -1.0312,0.375 -0.40625,0.3125 -0.3125,0.375 -0.96875,-0.625 0.25,-0.4375 0.1561,-0.4688 -0.0313,-1.125 -0.625,-0.25 -0.7812,0.7812 -0.2812,0.4376 -0.0938,0.4687 -1.125,-0.2187 0.0312,-0.5313 -0.0625,-0.46875 -0.4375,-1 H 4.7499 z M 5.0625,0.25 C 7.7894,0.25 10,2.4606 10,5.1875 10,7.9144 7.7894,10.125 5.0625,10.125 2.3356,10.125 0.125,7.9144 0.125,5.1875 0.125,2.4606 2.3356,0.25 5.0625,0.25 z M 5.0312,1.3125 C 2.9096,1.3125 1.1875,3.0346 1.1875,5.1562 1.1875,7.2779 2.9096,9 5.0312,9 7.1529,9 8.875,7.2779 8.875,5.1562 8.875,3.0346 7.1529,1.3125 5.0312,1.3125 z m 0,1.7188 c 1.242,0 2.25,0.95205 2.25,2.125 0,1.17295 -1.008,2.125 -2.25,2.125 -1.242,0 -2.25,-0.95205 -2.25,-2.125 0,-1.17295 1.008,-2.125 2.25,-2.125 z m 13.531,4.6562 -0.65625,0.96875 -0.1875,0.5 -0.03,0.5313 -1.219,0.0313 -0.063,-0.5626 -0.156,-0.4687 -0.688,-0.9687 -0.687,0.125 -0.25,1.1562 0.03125,0.53125 0.1875,0.53125 -1.125,0.46875 -0.28125,-0.5 -0.34375,-0.375 -1,-0.625 -0.5625,0.375 0.21875,1.1875 0.21875,0.46875 0.34375,0.40625 -0.84375,0.875 -0.407,-0.344 -0.5,-0.25 -1.1562,-0.1875 -0.375,0.59375 0.625,1 0.40625,0.3125 0.5,0.25 -0.46875,1.1562 -0.53125,-0.1875 h -0.5 l -1.1562,0.25 -0.15625,0.6875 1,0.65625 0.5,0.1875 0.53125,0.03125 v 1.2188 l -0.53125,0.0625 -0.5,0.15625 -0.96875,0.6875 0.15625,0.6875 1.1562,0.25 0.5,-0.03125 0.53125,-0.1875 0.46875,1.1562 -0.46875,0.25 -0.40625,0.34375 -0.625,1 0.40625,0.5625 1.1562,-0.1875 0.46875,-0.25 0.40625,-0.34375 0.875,0.84375 -0.34375,0.4375 -0.21875,0.46875 -0.21875,1.1562 0.59375,0.375 1,-0.625 0.34375,-0.40625 0.25,-0.5 1.125,0.46875 -0.15625,0.53125 -0.03125,0.5 0.25,1.1875 0.6875,0.125 0.6875,-1 0.15625,-0.46875 0.03125,-0.5625 h 1.25 l 0.03125,0.53125 0.1875,0.5 0.6875,0.96875 0.6875,-0.15625 0.25,-1.1562 -0.0625,-0.5 -0.15625,-0.53125 1.125,-0.46875 0.25,0.46875 0.34375,0.40625 1,0.625 0.59375,-0.40625 -0.21875,-1.1562 -0.25,-0.46875 -0.34375,-0.40625 0.875,-0.875 0.40625,0.34375 0.46875,0.21875 1.1875,0.21875 0.375,-0.59375 -0.65625,-1 -0.40625,-0.34375 -0.46875,-0.25 0.46875,-1.125 0.5,0.15625 0.53125,0.03125 1.1562,-0.25 0.126,-0.689 -0.969,-0.688 -0.5,-0.156 -0.531,-0.031 -0.03125,-1.25 0.5625,-0.03125 0.46875,-0.1875 0.96875,-0.6875 -0.125,-0.6875 -1.1562,-0.21875 -0.53125,0.03125 -0.5,0.15625 -0.5,-1.125 0.5,-0.25 0.375,-0.34375 0.625,-1 -0.375,-0.59375 -1.1875,0.21875 -0.4375,0.25 -0.4375,0.34375 -0.875,-0.875 0.344,-0.406 0.25,-0.469 0.187,-1.1562 -0.594,-0.4063 -0.969,0.6563 -0.343,0.4062 -0.25,0.469 -1.157,-0.469 0.188,-0.5 0.031,-0.5312 -0.281,-1.1563 -0.688,-0.125 z m -1.4375,3.7188 c 0.72958,0 1.4223,0.15408 2.0625,0.40625 l -1.2188,2.375 c -0.26864,-0.07869 -0.54977,-0.125 -0.84375,-0.125 -0.5829,0 -1.1326,0.15026 -1.5938,0.4375 l -1.8125,-1.9375 c 0.94634,-0.71458 2.13,-1.1562 3.4062,-1.1562 z m 3.0938,0.9375 c 1.5392,1.0085 2.5625,2.7419 2.5625,4.7188 0,0.14764 -0.02011,0.29269 -0.03125,0.4375 l -2.624,-0.469 c -0.011,-0.94 -0.439,-1.768 -1.125,-2.312 l 1.2188,-2.375 z m -7.3438,1 1.8125,1.9375 c -0.3633,0.49738 -0.5625,1.1186 -0.5625,1.7812 0,0.24463 0.0073,0.49099 0.0625,0.71875 l -2.405,1.093 c -0.19494,-0.57162 -0.3125,-1.1753 -0.3125,-1.8125 0,-1.4262 0.53276,-2.7248 1.4062,-3.7188 z m 4.25,2.75 c 0.53504,0 0.96875,0.43372 0.96875,0.96875 0,0.53504 -0.43372,0.96875 -0.96875,0.96875 -0.53504,0 -0.96875,-0.43372 -0.96875,-0.96875 0,-0.53504 0.43372,-0.96875 0.96875,-0.96875 z m 2.8125,2.0625 2.625,0.46875 c -0.55993,1.9369 -2.1538,3.463 -4.125,3.9375 l -0.34375,-2.6562 c 0.84138,-0.28535 1.5217,-0.92622 1.8438,-1.75 z m -5.25,0.65625 c 0.51451,0.71465 1.3162,1.1961 2.25,1.25 l 0.375,2.6562 c -0.05979,0.0019 -0.12725,-1e-6 -0.1875,0 -2.0715,1e-6 -3.8919,-1.1163 -4.875,-2.7812 l 2.4375,-1.125 z"
             style="fill:url(#linearGradient4324)"
             id="path4342"
             inkscape:connector-curvature="0" />
          <path
             d="m 128.44,42.719 -0.21875,0.1875 0.625,0.9375 0.46875,-0.25 0.4375,-0.09375 h 1.125 l 0.0937,0.25 0.15625,-0.15625 -0.25,-0.59375 h -1.125 l -0.4375,0.09375 -0.46875,0.25 -0.40625,-0.625 z m -5.6562,0.09375 c -2.1217,0 -3.8438,1.7221 -3.8438,3.8438 0,0.08492 0.0258,0.16645 0.0312,0.25 0.1303,-2.004 1.7758,-3.5938 3.8125,-3.5938 2.0368,0 3.6822,1.5897 3.8125,3.5938 0.005,-0.08355 0.0312,-0.16508 0.0312,-0.25 0,-2.1217 -1.7221,-3.8438 -3.8438,-3.8438 z m 6.75,2.4688 -0.0937,0.03125 0.25,1.0938 0.5,-0.0625 0.46875,0.0625 1.0312,0.4375 v -0.5 l -1.0312,-0.4375 -0.46875,-0.0625 -0.5,0.0625 -0.15625,-0.625 z m -8.9688,1.625 c -0.0101,0.08156 -0.0312,0.1659 -0.0312,0.25 0,1.173 1.008,2.125 2.25,2.125 1.242,0 2.25,-0.95205 2.25,-2.125 0,-0.0841 -0.0212,-0.16844 -0.0312,-0.25 -0.1305,1.056 -1.0658,1.875 -2.2188,1.875 -1.1529,0 -2.0882,-0.81904 -2.2188,-1.875 z m 7.1875,0.03125 c -0.13175,2.6092 -2.2955,4.6875 -4.9375,4.6875 -1.692,10e-7 -3.1709,-0.85784 -4.0625,-2.1562 v 0.5 c 0.89033,1.2931 2.3739,2.1563 4.0625,2.1562 2.7269,0 4.9375,-2.2106 4.9375,-4.9375 0,-0.08488 0.004,-0.16617 0,-0.25 z m 1.7812,1.6875 -0.0937,0.46875 0.53125,0.15625 0.40625,0.21875 0.59375,0.65625 0.15625,-0.34375 -0.75,-0.8125 -0.40625,-0.21875 -0.4375,-0.125 z m 6.7812,0.5625 -0.65625,0.96875 -0.1875,0.5 -0.0312,0.53125 -1.2188,0.03125 -0.0625,-0.5625 -0.15,-0.468 -0.6875,-0.96875 -0.6875,0.125 -0.25,1.1562 0.0312,0.40625 0.21875,-1.0625 0.6875,-0.125 0.6875,0.96875 0.15625,0.46875 0.0625,0.5625 1.2188,-0.03125 0.0312,-0.53125 0.1875,-0.5 0.65625,-0.96875 0.6875,0.125 0.25,1.0625 0.0312,-0.40625 -0.28,-1.157 -0.6875,-0.125 z m -6.875,1.625 -0.15625,0.09375 0.0937,0.4375 0.46875,-0.3125 1,0.625 0.34375,0.375 0.28125,0.5 1.125,-0.46875 -0.15625,-0.4375 -0.96875,0.40625 -0.28125,-0.5 -0.34375,-0.375 -0.4375,-0.28125 -0.65625,0.03125 -0.3125,-0.09375 z m -1,0.34375 -0.21875,0.3125 0.375,0.3125 0.3125,0.40625 0.28125,0.6875 0.15625,-0.15625 -0.4375,-1.0312 -0.3125,-0.40625 -0.15625,-0.125 z m 10.312,0 -0.28125,0.34375 -0.25,0.46875 -1,-0.40625 -0.15625,0.4375 1.1562,0.46875 0.25,-0.46875 0.28125,-0.34375 v -0.5 z m -11.594,1.9062 -0.375,0.59375 0.15625,0.25 0.21875,-0.34375 1.1562,0.1875 0.5,0.25 0.40625,0.34375 0.84375,-0.875 -0.21875,-0.28125 -0.625,0.65625 -0.28125,-0.21875 -0.0625,0.0625 -1.0312,-0.4375 -0.15625,-0.09375 -0.53125,-0.09375 z m -7.875,0.03125 -0.0312,0.0625 -0.15625,0.5 0.0312,0.40625 0.125,-0.40625 0.25,-0.4375 -0.21875,-0.125 z m 7.0938,0 -0.21875,0.125 0.25,0.4375 0.15625,0.46875 V 53.6565 l -0.15625,-0.5 -0.0312,-0.0625 z m 10.344,0.65625 -1,1.9375 c -0.26864,-0.07869 -0.54977,-0.125 -0.84375,-0.125 -0.58291,0 -1.1326,0.15026 -1.5938,0.4375 l -1.52,-1.625 c -0.0946,0.06312 -0.19087,0.11925 -0.28125,0.1875 l 1.8125,1.9375 c 0.46114,-0.28724 1.0108,-0.4375 1.5938,-0.4375 0.29398,0 0.57511,0.04631 0.84375,0.125 l 1.2188,-2.375 c -0.07,-0.028 -0.15,-0.038 -0.22,-0.063 z m -14.71,0.281 v 0.25 l 0.0312,-0.25 h -0.0312 z m 1.625,0 v 0.15625 l 0.0312,-0.15625 h -0.0312 z m 4.5312,1.5938 -0.3125,0.75 -0.53125,-0.1875 h -0.5 l -1.1562,0.25 -0.15625,0.6875 0.0937,0.0625 0.0625,-0.25 1.1562,-0.25 h 0.5 l 0.53125,0.1875 0.46875,-1.1562 -0.15625,-0.09375 z m 8.75,0.75 -0.15625,0.34375 c 0.68574,0.54448 1.1138,1.3722 1.125,2.3125 l 0.875,0.15625 v -0.5 l -0.875,-0.15625 c -0.0103,-0.86198 -0.38054,-1.615 -0.96875,-2.1562 z m -4.65,0.719 c -0.24217,0.43822 -0.375,0.93265 -0.375,1.4688 0,0.12232 -0.009,0.25436 0,0.375 0.0231,-0.61626 0.22181,-1.1898 0.5625,-1.6562 l -0.1875,-0.1875 z m -3,1.7188 c -0.004,0.08572 -0.0312,0.1633 -0.0312,0.25 0,0.63718 0.11756,1.2409 0.3125,1.8125 l 2.4062,-1.0938 c -0.0368,-0.15184 -0.0563,-0.3064 -0.0625,-0.46875 l -2.3438,1.0625 c -0.16894,-0.49522 -0.2547,-1.0182 -0.2813,-1.5625 z m 4.6875,0 c -0.0223,0.08151 -0.0312,0.16143 -0.0312,0.25 0,0.53504 0.43371,0.96875 0.96875,0.96875 0.53503,0 0.96875,-0.43372 0.96875,-0.96875 0,-0.08857 -0.009,-0.16849 -0.0312,-0.25 -0.11222,0.41087 -0.49104,0.71875 -0.9375,0.71875 -0.44647,0 -0.82528,-0.30788 -0.9375,-0.71875 z m -6.4062,0.40625 -0.53125,0.0625 -0.5,0.15625 -0.96875,0.6875 0.0937,0.4375 0.875,-0.625 0.5,-0.15625 0.53125,-0.0625 v -0.5 z m 2.72,2.593 -0.25,0.126 c 0.11547,0.19555 0.23738,0.38301 0.375,0.5625 h 0.4375 c -0.20566,-0.21224 -0.39189,-0.44548 -0.5625,-0.6875 z m 5.6562,0.0625 c -0.0221,0.0081 -0.0401,0.02366 -0.0625,0.03125 l 0.0625,0.59375 h 0.0937 l -0.0937,-0.625 z m -7.7188,0.21875 -0.3125,0.15625 -0.28125,0.25 h 0.75 l -0.15625,-0.40625 z"
             style="opacity:0.2"
             id="path4344"
             inkscape:connector-curvature="0" />
          <path
             transform="translate(87.75,41.5)"
             clip-path="url(#clipPath3739)"
             d="M 37.656,1 C 39.056,1.8715 40,3.417 40,5.1875 40,7.9144 37.789,10.125 35.062,10.125 33.374,10.125 31.89,9.2619 31,7.9688 v 2.75 l 0.75,0.5 -0.25,0.4375 -0.15625,0.5 0.0625,1.0625 0.594,0.281 0.78125,-0.78125 0.28125,-0.40625 0.09375,-0.53125 1.125,0.25 -0.03125,0.5 0.03125,0.5 0.46875,1 h 0.65625 l 0.4375,-1 0.0625,-0.5 -0.03125,-0.5 1.125,-0.25 0.09375,0.53125 0.28125,0.40625 0.78125,0.78125 0.625,-0.28125 0.03125,-1.0625 -0.15625,-0.5 -0.25,-0.4375 0.969,-0.657 0.313,0.438 0.40625,0.25 1.0312,0.4375 0.46875,-0.46875 -0.4375,-1.0312 -0.3125,-0.40625 -0.375,-0.3125 0.625,-0.9688 0.468,0.2812 0.438,0.125 1.125,-0.0312 0.25,-0.5938 -0.75,-0.8124 -0.406,-0.2188 -0.531,-0.1562 0.25,-1.125 0.5,0.0312 0.468,-0.0312 1.032,-0.4688 V 4.8433 l -1.0312,-0.4375 -0.46875,-0.0625 -0.5,0.0625 -0.25,-1.0938 0.53125,-0.15625 0.40625,-0.25 0.75,-0.8125 -0.25,-0.5937 h -1.125 l -0.438,0.0938 -0.468,0.25 -0.563,-0.8438 h -2.875 z m -5.4375,0.15625 c -0.45752,0.19287 -0.82314,0.55084 -1.0312,1 0.29499,-0.37574 0.64102,-0.72335 1.0312,-1 z M 35.031,1.3125 c -2.1217,0 -3.8438,1.7221 -3.8438,3.8438 0.002,2.1217 1.724,3.8438 3.845,3.8438 2.122,0 3.844,-1.7221 3.844,-3.8438 0,-2.1216 -1.722,-3.8437 -3.844,-3.8437 z m 0,1.7188 c 1.242,0 2.25,0.95205 2.25,2.125 0,1.17295 -1.008,2.125 -2.25,2.125 -1.242,0 -2.25,-0.95205 -2.25,-2.125 0,-1.17295 1.008,-2.125 2.25,-2.125 z m 13.531,4.6562 -0.65625,0.96875 -0.1875,0.5 -0.03,0.5313 -1.219,0.0313 -0.063,-0.5626 -0.156,-0.4687 -0.688,-0.9687 -0.687,0.125 -0.25,1.1562 0.03125,0.53125 0.1875,0.53125 -1.125,0.46875 -0.28125,-0.5 -0.34375,-0.375 -1,-0.625 -0.5625,0.375 0.21875,1.1875 0.21875,0.46875 0.34375,0.40625 -0.84375,0.875 -0.407,-0.344 -0.5,-0.25 -1.1562,-0.1875 -0.375,0.59375 0.625,1 0.40625,0.3125 0.5,0.25 -0.46875,1.1562 -0.53125,-0.1875 h -0.5 l -1.1562,0.25 -0.15625,0.6875 1,0.65625 0.5,0.1875 0.53125,0.03125 v 1.2188 l -0.53125,0.0625 -0.5,0.15625 -0.96875,0.6875 0.15625,0.6875 1.1562,0.25 0.5,-0.03125 0.532,-0.187 0.469,1.156 -0.469,0.25 -0.281,0.25 h 3.218 c -0.314,-0.323 -0.582,-0.672 -0.812,-1.062 l 2.4375,-1.125 c 0.51451,0.71465 1.3162,1.1961 2.25,1.25 l 0.124,0.937 h 1.188 l -0.156,-1.094 c 0.84138,-0.28535 1.5217,-0.92622 1.8438,-1.75 l 1.062,0.188 v -1.156 l -0.875,-0.157 c -0.011,-0.94 -0.439,-1.768 -1.125,-2.312 l 1.2188,-2.375 c 0.2792,0.18294 0.53903,0.39724 0.78125,0.625 v -3.3128 l -0.281,0.3438 -0.25,0.469 -1.157,-0.469 0.188,-0.5 0.031,-0.5312 -0.281,-1.1563 -0.688,-0.125 z m -1.4375,3.7188 c 0.72958,0 1.4223,0.15408 2.0625,0.40625 l -1.2188,2.375 c -0.26864,-0.07869 -0.54977,-0.125 -0.84375,-0.125 -0.5829,0 -1.1326,0.15026 -1.5938,0.4375 l -1.8125,-1.9375 c 0.94634,-0.71458 2.13,-1.1562 3.4062,-1.1562 z m -4.25,1.9375 1.8125,1.9375 c -0.3633,0.49738 -0.5625,1.1186 -0.5625,1.7812 0,0.24463 0.0073,0.49099 0.0625,0.71875 l -2.405,1.093 c -0.19494,-0.57162 -0.3125,-1.1753 -0.3125,-1.8125 0,-1.4262 0.53276,-2.7248 1.4062,-3.7188 z m 4.25,2.75 c 0.53504,0 0.96875,0.43372 0.96875,0.96875 0,0.53504 -0.43372,0.96875 -0.96875,0.96875 -0.53504,0 -0.96875,-0.43372 -0.96875,-0.96875 0,-0.53504 0.43372,-0.96875 0.96875,-0.96875 z"
             style="opacity:0.5;fill:#ffffff;filter:url(#filter3743)"
             id="path4346"
             inkscape:connector-curvature="0" />
          <g
             transform="translate(117.75,41.5)"
             id="g4348">
            <path
               d="M 3,1 C 1.892,1 1,1.892 1,3 V 4 C 1,2.892 1.892,2 3,2 h 16 c 1.108,0 2,0.892 2,2 V 3 C 21,1.892 20.108,1 19,1 H 3 z"
               style="opacity:0.4;fill:#ffffff;fill-rule:evenodd"
               id="path4350"
               inkscape:connector-curvature="0" />
            <path
               d="M 3,21 C 1.892,21 1,20.108 1,19 v -1 c 0,1.108 0.892,2 2,2 h 16 c 1.108,0 2,-0.892 2,-2 v 1 c 0,1.108 -0.892,2 -2,2 H 3 z"
               style="opacity:0.15;fill-rule:evenodd"
               id="path4352"
               inkscape:connector-curvature="0" />
          </g>
        </g>
        <rect
           x="10"
           y="42"
           width="24"
           height="6"
           ry="1"
           rx="1"
           style="opacity:0.4"
           id="rect4360" />
        <g
           transform="translate(11,51)"
           id="g3129">
          <g
             id="layer1-1">
            <g
               id="g3337">
              <rect
                 x="0.5"
                 y="0.5"
                 width="21"
                 height="21.5"
                 ry="2.5"
                 rx="2.5"
                 style="opacity:0.3;fill:url(#linearGradient3335)"
                 id="rect3371" />
              <rect
                 x="1"
                 y="2"
                 width="20"
                 height="20"
                 ry="2.3255999"
                 rx="2.381"
                 style="opacity:0.5"
                 id="rect2553" />
            </g>
            <rect
               x="1"
               y="1"
               width="20"
               height="20"
               ry="2"
               rx="2"
               style="fill:url(#linearGradient3181);fill-rule:evenodd"
               id="rect3173" />
            <path
               d="M 3,1 C 1.892,1 1,1.892 1,3 V 4 C 1,2.892 1.892,2 3,2 h 16 c 1.108,0 2,0.892 2,2 V 3 C 21,1.892 20.108,1 19,1 H 3 z"
               style="fill:#ececec;fill-rule:evenodd"
               id="rect3183"
               inkscape:connector-curvature="0" />
            <path
               d="M 3,21 C 1.892,21 1,20.108 1,19 v -1 c 0,1.108 0.892,2 2,2 h 16 c 1.108,0 2,-0.892 2,-2 v 1 c 0,1.108 -0.892,2 -2,2 H 3 z"
               style="fill:#8b8b8b;fill-rule:evenodd"
               id="path3188"
               inkscape:connector-curvature="0" />
          </g>
          <g
             id="layer2-0">
            <path
               d="m 4.1468,3.7509 h 0.79586 c 0.22045,0 0.39793,0.16155 0.39793,0.36223 v 13.765 c 0,0.20068 -0.17748,0.36223 -0.39793,0.36223 H 4.1468 c -0.22045,0 -0.39793,-0.16155 -0.39793,-0.36223 v -13.765 c 0,-0.20067 0.17748,-0.36223 0.39793,-0.36223 z m 5.9694,0.00433 h 0.79586 c 0.22045,0 0.39793,0.16155 0.39793,0.36223 v 13.765 c 0,0.20068 -0.17748,0.36223 -0.39793,0.36223 H 10.1162 c -0.22045,0 -0.39793,-0.16155 -0.39793,-0.36223 v -13.765 c 0,-0.20067 0.17748,-0.36223 0.39793,-0.36223 z M 16.1297,3.7509 h 0.79586 c 0.22045,0 0.39793,0.16155 0.39793,0.36223 v 13.765 c 0,0.20068 -0.17748,0.36223 -0.39793,0.36223 H 16.1297 c -0.22045,0 -0.39793,-0.16155 -0.39793,-0.36223 v -13.765 c 0,-0.20067 0.17748,-0.36223 0.39793,-0.36223 z"
               style="fill:url(#linearGradient3274);fill-rule:evenodd;stroke:url(#linearGradient3266-8);stroke-width:0.5;stroke-linejoin:round"
               id="rect3250"
               inkscape:connector-curvature="0" />
            <g
               transform="matrix(0.28552,0,0,0.27229,-4.6901,5.0203)"
               id="g3624">
              <rect
                 x="46.201"
                 y="20.159"
                 width="14"
                 height="22"
                 ry="2"
                 rx="2"
                 style="fill:url(#linearGradient3332);fill-rule:evenodd;stroke:url(#linearGradient3639);stroke-width:3.58640003;stroke-linejoin:round"
                 id="rect3630" />
              <path
                 d="M 47.948,31.541 H 58.455"
                 style="opacity:0.1;fill:none;stroke:#000000;stroke-width:3.58640003"
                 id="path3688"
                 inkscape:connector-curvature="0" />
            </g>
            <g
               transform="matrix(0.28552,0,0,0.27229,-10.69,0.014384)"
               id="g3641">
              <rect
                 x="46.201"
                 y="20.159"
                 width="14"
                 height="22"
                 ry="2"
                 rx="2"
                 style="fill:url(#linearGradient3334);fill-rule:evenodd;stroke:url(#linearGradient3336);stroke-width:3.58640003;stroke-linejoin:round"
                 id="rect3643" />
              <path
                 d="M 47.948,31.541 H 58.455"
                 style="opacity:0.1;fill:none;stroke:#000000;stroke-width:3.58640003"
                 id="path3645"
                 inkscape:connector-curvature="0" />
            </g>
            <g
               transform="matrix(0.28552,0,0,0.27229,1.3099,2.0144)"
               id="g3651">
              <rect
                 x="46.201"
                 y="20.159"
                 width="14"
                 height="22"
                 ry="2"
                 rx="2"
                 style="fill:url(#linearGradient3657);fill-rule:evenodd;stroke:url(#linearGradient3659);stroke-width:3.58640003;stroke-linejoin:round"
                 id="rect3653" />
              <path
                 d="M 47.948,31.541 H 58.455"
                 style="opacity:0.1;fill:none;stroke:#000000;stroke-width:3.58640003"
                 id="path3655"
                 inkscape:connector-curvature="0" />
            </g>
          </g>
        </g>
        <g
           style="fill:#ffffff"
           id="text3149">
          <path
             d="M 14.455,45.809 14.27871,45.30128 H 13.52136 L 13.34507,45.809 h -0.41605 l 0.72492,-1.9872 h 0.4908 l 0.7221,1.9872 h -0.41182 m -0.46541,-1.392 c -0.01128,-0.03291 -0.02257,-0.06581 -0.03385,-0.09872 -0.01034,-0.03385 -0.01975,-0.0644 -0.02821,-0.09167 -0.0075,-0.0282 -0.0141,-0.05124 -0.01974,-0.06911 -0.0047,-0.01786 -0.0075,-0.02773 -0.0085,-0.02962 -9.41e-4,0.0028 -0.0038,0.01317 -0.0085,0.03103 -0.0047,0.01787 -0.01128,0.04043 -0.01974,0.0677 -0.0075,0.02727 -0.01693,0.05783 -0.02821,0.09167 -0.01034,0.03291 -0.02116,0.06582 -0.03244,0.09872 l -0.19604,0.57119 h 0.57119 L 13.98953,44.417"
             id="path3154"
             inkscape:connector-curvature="0" />
          <path
             d="M 16.746,45.809 H 16.32713 L 16.08455,44.87818 C 16.07705,44.84903 16.0695,44.8166 16.06198,44.78087 16.05448,44.7442 16.04741,44.70988 16.04082,44.67791 l -0.02257,-0.11283 c -0.0085,0.03761 -0.01693,0.07522 -0.02539,0.11283 -0.0075,0.03197 -0.01551,0.06629 -0.02398,0.10296 -0.0085,0.03667 -0.01646,0.07005 -0.02398,0.10013 l -0.2454,0.928 h -0.41887 l -0.3949,-1.526 h 0.37233 l 0.19322,0.89698 c 0.0056,0.02539 0.01175,0.05406 0.01834,0.08603 0.0066,0.03103 0.01269,0.06018 0.01833,0.08744 0.0066,0.03197 0.01363,0.06394 0.02115,0.0959 0.0066,-0.03573 0.01316,-0.07052 0.01975,-0.10436 0.0056,-0.02915 0.01175,-0.05876 0.01834,-0.08885 0.0066,-0.03009 0.01222,-0.05547 0.01692,-0.07616 L 15.80387,44.283 h 0.42451 l 0.23412,0.89698 c 0.0066,0.02445 0.01316,0.05218 0.01975,0.08321 0.0066,0.03103 0.01269,0.06018 0.01833,0.08744 0.0066,0.03197 0.01316,0.06488 0.01975,0.09872 0.0075,-0.03385 0.01457,-0.06676 0.02116,-0.09872 0.0056,-0.02727 0.01175,-0.05641 0.01834,-0.08744 0.0066,-0.03103 0.01269,-0.05876 0.01833,-0.08321 L 16.77984,44.283 h 0.36669 l -0.40054,1.526"
             id="path3156"
             inkscape:connector-curvature="0" />
          <path
             d="m 18.329,45.809 v -0.85608 c -1e-6,-0.05923 -0.0047,-0.1133 -0.0141,-0.16219 -0.0094,-0.04983 -0.02492,-0.09214 -0.04654,-0.12693 -0.02163,-0.03573 -0.04983,-0.06346 -0.08462,-0.08321 -0.03479,-0.01974 -0.0771,-0.02962 -0.12693,-0.02962 -0.04795,2e-6 -0.09167,0.01081 -0.13116,0.03244 -0.03855,0.02069 -0.07193,0.05077 -0.10014,0.09026 -0.02821,0.03855 -0.0503,0.08509 -0.06629,0.13962 -0.01504,0.05359 -0.02257,0.11283 -0.02257,0.1777 v 0.818 h -0.39631 v -1.1847 c 0,-0.03291 -4.7e-4,-0.06676 -0.0014,-0.10154 -1e-6,-0.03479 -9.41e-4,-0.0677 -0.0028,-0.09872 -9.4e-4,-0.03197 -0.0019,-0.06017 -0.0028,-0.08462 -9.4e-4,-0.02538 -0.0024,-0.04419 -0.0042,-0.05641 h 0.37797 c 0.0019,0.01128 0.0038,0.02962 0.0056,0.055 0.0019,0.02445 0.0038,0.05171 0.0056,0.0818 0.0019,0.03009 0.0033,0.06018 0.0042,0.09026 0.0019,0.03009 0.0028,0.05548 0.0028,0.07616 h 0.0056 c 0.05359,-0.11659 0.12082,-0.20121 0.20168,-0.25386 0.08086,-0.05265 0.17723,-0.07898 0.28912,-0.07898 0.09214,2e-6 0.16971,0.01505 0.23271,0.04513 0.06393,0.03009 0.11565,0.07146 0.15514,0.12411 0.04043,0.05265 0.06958,0.11471 0.08744,0.18616 0.01786,0.07146 0.02679,0.14856 0.0268,0.2313 v 0.9689 h -0.3949"
             id="path3158"
             inkscape:connector-curvature="0" />
          <path
             d="m 21.52,45.237 c -2e-6,0.09026 -0.01646,0.17253 -0.04936,0.24681 -0.03291,0.07334 -0.08415,0.13633 -0.15373,0.18899 -0.06864,0.05265 -0.15702,0.09355 -0.26514,0.1227 -0.10719,0.02821 -0.23506,0.04231 -0.38361,0.04231 -0.13163,0 -0.24775,-0.01175 -0.34835,-0.03526 -0.1006,-0.02351 -0.18711,-0.05829 -0.2595,-0.10436 -0.07146,-0.04607 -0.12975,-0.10296 -0.17488,-0.17065 -0.04419,-0.06864 -0.07616,-0.14715 -0.0959,-0.23553 l 0.40195,-0.06629 c 0.01128,0.04419 0.02774,0.08462 0.04936,0.12129 0.02162,0.03667 0.05124,0.06864 0.08885,0.0959 0.03855,0.02633 0.08603,0.04701 0.14244,0.06206 0.05735,0.0141 0.12646,0.02116 0.20732,0.02115 0.14103,1e-6 0.24869,-0.02115 0.32297,-0.06346 0.07522,-0.04325 0.11283,-0.11048 0.11283,-0.20168 -1e-6,-0.05453 -0.01505,-0.09919 -0.04513,-0.13398 -0.03009,-0.03479 -0.07005,-0.06347 -0.11988,-0.08603 -0.04983,-0.02257 -0.10719,-0.04137 -0.17206,-0.05641 -0.06488,-0.01504 -0.13257,-0.02962 -0.20309,-0.04372 -0.05642,-0.01316 -0.11283,-0.0268 -0.16924,-0.0409 -0.05642,-0.0141 -0.11048,-0.03103 -0.16219,-0.05077 -0.05077,-0.01974 -0.09825,-0.04325 -0.14244,-0.07052 -0.04419,-0.02726 -0.08274,-0.06064 -0.11565,-0.10013 -0.03197,-0.04043 -0.05735,-0.08744 -0.07616,-0.14103 -0.01786,-0.05359 -0.0268,-0.11659 -0.0268,-0.18899 0,-0.09872 0.01974,-0.18334 0.05923,-0.25386 0.03949,-0.07052 0.09402,-0.12787 0.1636,-0.17206 0.07052,-0.04513 0.1542,-0.07804 0.25104,-0.09872 0.09684,-0.02068 0.20262,-0.03102 0.31733,-0.03103 0.12975,2e-6 0.2407,0.01034 0.33284,0.03103 0.09308,0.01975 0.17065,0.0503 0.23271,0.09167 0.06299,0.04137 0.11236,0.09355 0.14809,0.15655 0.03667,0.06206 0.06346,0.13492 0.08039,0.2186 l -0.40336,0.055 c -0.02069,-0.08556 -0.063,-0.14996 -0.12693,-0.19322 -0.063,-0.04325 -0.15373,-0.06487 -0.2722,-0.06488 -0.07334,2e-6 -0.13445,0.0066 -0.18334,0.01975 -0.04795,0.01222 -0.0865,0.02915 -0.11565,0.05077 -0.02821,0.02163 -0.04842,0.04701 -0.06065,0.07616 -0.01222,0.02821 -0.01834,0.0583 -0.01833,0.09026 -10e-7,0.04889 0.01175,0.08932 0.03526,0.12129 0.02351,0.03103 0.05641,0.05736 0.09872,0.07898 0.04231,0.02069 0.09261,0.03855 0.15091,0.05359 0.05923,0.0141 0.12411,0.02868 0.19463,0.04372 0.06205,0.01317 0.12364,0.02727 0.18476,0.04231 0.06111,0.0141 0.11941,0.03103 0.17488,0.05077 0.05547,0.01975 0.10718,0.04372 0.15514,0.07193 0.04795,0.02821 0.08932,0.063 0.12411,0.10437 0.03573,0.04043 0.06346,0.08885 0.08321,0.14526 0.02068,0.05641 0.03102,0.12317 0.03103,0.20027"
             id="path3160"
             inkscape:connector-curvature="0" />
          <path
             d="m 22.462,45.837 c -0.11001,0 -0.2092,-0.01598 -0.29758,-0.04795 -0.08744,-0.03291 -0.16219,-0.08227 -0.22424,-0.14809 -0.06205,-0.06676 -0.10954,-0.14997 -0.14244,-0.24963 -0.03291,-0.1006 -0.04936,-0.21813 -0.04936,-0.35259 -1e-6,-0.14573 0.01927,-0.26843 0.05782,-0.3681 0.03949,-0.09966 0.09214,-0.18005 0.15796,-0.24117 0.06676,-0.06205 0.14338,-0.10671 0.22988,-0.13398 0.0865,-0.02726 0.1777,-0.0409 0.27361,-0.0409 0.12035,10e-7 0.22283,0.02116 0.30745,0.06347 0.08556,0.04137 0.15561,0.09967 0.21014,0.17488 0.05453,0.07522 0.09449,0.16548 0.11988,0.27079 0.02538,0.10437 0.03808,0.22001 0.03808,0.34694 v 0.01128 h -0.97878 c 0,0.06394 0.0056,0.12364 0.01692,0.17911 0.01128,0.05453 0.02962,0.10202 0.055,0.14244 0.02538,0.03949 0.05829,0.07099 0.09872,0.09449 0.04043,0.02257 0.08932,0.03385 0.14668,0.03385 0.06958,10e-7 0.12646,-0.01457 0.17065,-0.04372 0.04419,-0.03009 0.07569,-0.07616 0.09449,-0.13821 l 0.37374,0.03244 c -0.01693,0.04325 -0.0409,0.08932 -0.07193,0.13821 -0.03009,0.04889 -0.07052,0.09402 -0.12129,0.13539 -0.05077,0.04043 -0.11424,0.07428 -0.1904,0.10154 -0.07522,0.02633 -0.16689,0.03949 -0.27502,0.03949 m 0,-1.3328 c -0.04043,1e-6 -0.07851,0.0071 -0.11424,0.02116 -0.03479,0.01317 -0.06535,0.03479 -0.09167,0.06488 -0.02539,0.02915 -0.04607,0.06723 -0.06206,0.11424 -0.01598,0.04701 -0.02492,0.10343 -0.0268,0.16924 h 0.59234 c -0.0075,-0.12317 -0.03714,-0.21531 -0.08885,-0.27643 -0.05171,-0.06205 -0.12129,-0.09308 -0.20873,-0.09308"
             id="path3162"
             inkscape:connector-curvature="0" />
          <path
             d="m 23.835,45.835 c -0.11659,0 -0.20638,-0.0315 -0.26938,-0.09449 -0.063,-0.06394 -0.09449,-0.16031 -0.09449,-0.28912 v -0.8998 h -0.19322 v -0.26796 h 0.21296 l 0.12411,-0.35823 h 0.24822 v 0.35823 h 0.28912 v 0.26796 H 23.8632 v 0.79261 c -10e-7,0.07428 0.0141,0.12928 0.04231,0.16501 0.02821,0.03479 0.07193,0.05218 0.13116,0.05218 0.02445,0 0.04654,-0.0019 0.06629,-0.0056 0.01974,-0.0038 0.04184,-0.0085 0.06629,-0.0141 v 0.2454 c -0.04889,0.01598 -0.10061,0.02774 -0.15514,0.03526 -0.05453,0.0085 -0.11424,0.01269 -0.17911,0.01269"
             id="path3164"
             inkscape:connector-curvature="0" />
          <path
             d="m 24.8,45.835 c -0.11659,0 -0.20638,-0.0315 -0.26938,-0.09449 -0.063,-0.06394 -0.09449,-0.16031 -0.09449,-0.28912 v -0.8998 h -0.19322 v -0.26796 h 0.21296 l 0.12411,-0.35823 h 0.24822 v 0.35823 h 0.28912 v 0.26796 H 24.8282 v 0.79261 c -10e-7,0.07428 0.0141,0.12928 0.04231,0.16501 0.02821,0.03479 0.07193,0.05218 0.13116,0.05218 0.02445,0 0.04654,-0.0019 0.06629,-0.0056 0.01974,-0.0038 0.04184,-0.0085 0.06629,-0.0141 v 0.2454 c -0.04889,0.01598 -0.10061,0.02774 -0.15514,0.03526 -0.05453,0.0085 -0.11424,0.01269 -0.17911,0.01269"
             id="path3166"
             inkscape:connector-curvature="0" />
          <path
             d="m 25.374,44.008 v -0.29194 h 0.39631 V 44.008 H 25.374 m 0,1.801 v -1.526 h 0.39631 v 1.526 H 25.374"
             id="path3168"
             inkscape:connector-curvature="0" />
          <path
             d="m 27.164,45.809 v -0.85608 c -1e-6,-0.05923 -0.0047,-0.1133 -0.0141,-0.16219 -0.0094,-0.04983 -0.02492,-0.09214 -0.04654,-0.12693 -0.02163,-0.03573 -0.04983,-0.06346 -0.08462,-0.08321 -0.03479,-0.01974 -0.0771,-0.02962 -0.12693,-0.02962 -0.04795,2e-6 -0.09167,0.01081 -0.13116,0.03244 -0.03855,0.02069 -0.07193,0.05077 -0.10013,0.09026 -0.02821,0.03855 -0.0503,0.08509 -0.06629,0.13962 -0.01505,0.05359 -0.02257,0.11283 -0.02257,0.1777 v 0.818 h -0.39631 v -1.1847 c 0,-0.03291 -4.7e-4,-0.06676 -0.0014,-0.10154 0,-0.03479 -9.41e-4,-0.0677 -0.0028,-0.09872 -9.4e-4,-0.03197 -0.0019,-0.06017 -0.0028,-0.08462 -9.4e-4,-0.02538 -0.0023,-0.04419 -0.0042,-0.05641 h 0.37797 c 0.0019,0.01128 0.0038,0.02962 0.0056,0.055 0.0019,0.02445 0.0038,0.05171 0.0056,0.0818 0.0019,0.03009 0.0033,0.06018 0.0042,0.09026 0.0019,0.03009 0.0028,0.05548 0.0028,0.07616 h 0.0056 c 0.05359,-0.11659 0.12082,-0.20121 0.20168,-0.25386 0.08086,-0.05265 0.17723,-0.07898 0.28912,-0.07898 0.09214,2e-6 0.16971,0.01505 0.23271,0.04513 0.06393,0.03009 0.11565,0.07146 0.15514,0.12411 0.04043,0.05265 0.06958,0.11471 0.08744,0.18616 0.01786,0.07146 0.02679,0.14856 0.0268,0.2313 v 0.9689 h -0.3949"
             id="path3170"
             inkscape:connector-curvature="0" />
          <path
             d="m 28.58,46.421 c -0.1006,-10e-7 -0.18946,-0.01034 -0.26656,-0.03103 -0.07616,-0.01975 -0.1415,-0.04795 -0.19604,-0.08462 -0.05359,-0.03573 -0.09684,-0.07898 -0.12975,-0.12975 -0.03197,-0.04983 -0.05406,-0.10484 -0.06629,-0.16501 l 0.39631,-0.04654 c 0.0141,0.06112 0.04419,0.10907 0.09026,0.14386 0.04701,0.03479 0.10813,0.05218 0.18334,0.05218 0.04701,-10e-7 0.08979,-0.0066 0.12834,-0.01975 0.03949,-0.01316 0.07287,-0.03573 0.10013,-0.0677 0.02821,-0.03103 0.04983,-0.0724 0.06488,-0.12411 0.01598,-0.05171 0.02397,-0.11565 0.02398,-0.19181 -1e-6,-0.02633 -1e-6,-0.05312 0,-0.08039 -1e-6,-0.02727 4.69e-4,-0.05218 0.0014,-0.07475 9.39e-4,-0.02633 0.0014,-0.05171 0.0014,-0.07616 h -0.0028 c -0.04607,0.09872 -0.11095,0.17018 -0.19463,0.21437 -0.08274,0.04419 -0.18146,0.06629 -0.29617,0.06629 -0.09684,0 -0.18052,-0.0188 -0.25104,-0.05641 -0.06958,-0.03855 -0.1274,-0.09167 -0.17347,-0.15937 -0.04607,-0.06864 -0.08039,-0.14997 -0.10296,-0.24399 -0.02163,-0.09496 -0.03244,-0.19933 -0.03244,-0.3131 0,-0.11753 0.01175,-0.22377 0.03526,-0.31874 0.02351,-0.0959 0.05923,-0.17817 0.10719,-0.24681 0.04889,-0.06864 0.11001,-0.12129 0.18334,-0.15796 0.07428,-0.03761 0.16219,-0.05641 0.26373,-0.05641 0.10154,2e-6 0.19228,0.02163 0.2722,0.06488 0.08086,0.04325 0.14385,0.1133 0.18898,0.21014 h 0.0071 c -1e-6,-0.01974 4.69e-4,-0.04231 0.0014,-0.0677 0.0019,-0.02632 0.0038,-0.05124 0.0056,-0.07475 0.0019,-0.02444 0.0038,-0.04607 0.0056,-0.06488 0.0028,-0.0188 0.0052,-0.0315 0.0071,-0.03808 h 0.37515 c -0.0019,0.03385 -0.0038,0.08133 -0.0056,0.14244 -0.0019,0.06112 -0.0028,0.13116 -0.0028,0.21014 v 1.1269 c -2e-6,0.11095 -0.01599,0.20732 -0.04795,0.28912 -0.03197,0.08274 -0.07898,0.15138 -0.14103,0.20591 -0.06112,0.05453 -0.1368,0.09543 -0.22706,0.1227 -0.08932,0.02727 -0.19134,0.0409 -0.30604,0.0409 m 0.33143,-1.3962 c -1e-6,-0.0959 -0.0094,-0.17582 -0.02821,-0.23976 -0.01881,-0.06393 -0.04325,-0.11518 -0.07334,-0.15373 -0.03009,-0.03855 -0.06488,-0.06582 -0.10437,-0.0818 -0.03855,-0.01598 -0.07757,-0.02398 -0.11706,-0.02398 -0.05077,10e-7 -0.0959,0.0099 -0.13539,0.02962 -0.03855,0.01975 -0.07146,0.0503 -0.09872,0.09167 -0.02727,0.04137 -0.04795,0.09402 -0.06206,0.15796 -0.0141,0.06394 -0.02116,0.1401 -0.02116,0.22848 0,0.16454 0.02633,0.28865 0.07898,0.37233 0.05265,0.08368 0.13116,0.12552 0.23553,0.12552 0.03949,0 0.07851,-0.0075 0.11706,-0.02257 0.03949,-0.01598 0.07475,-0.04325 0.10578,-0.0818 0.03103,-0.03949 0.05594,-0.09167 0.07475,-0.15655 0.0188,-0.06488 0.02821,-0.14667 0.02821,-0.2454"
             id="path3172"
             inkscape:connector-curvature="0" />
          <path
             d="m 30.993,45.364 c -2e-6,0.07334 -0.01552,0.13915 -0.04654,0.19745 -0.03009,0.05829 -0.07428,0.10813 -0.13257,0.1495 -0.05829,0.04043 -0.12975,0.07193 -0.21437,0.09449 -0.08462,0.02163 -0.18099,0.03244 -0.28912,0.03244 -0.09684,0 -0.18428,-0.0071 -0.26232,-0.02116 C 29.97004,45.80262 29.9014,45.77958 29.84217,45.74761 29.78388,45.7147 29.73498,45.67239 29.69549,45.62068 29.656,45.56897 29.62638,45.50503 29.60664,45.42887 l 0.34835,-0.05218 c 0.01128,0.04231 0.0268,0.07663 0.04654,0.10296 0.01974,0.02633 0.04419,0.04654 0.07334,0.06065 0.02915,0.0141 0.063,0.02351 0.10154,0.02821 0.03949,0.0047 0.08415,0.0071 0.13398,0.0071 0.04513,0 0.08697,-0.0023 0.12552,-0.0071 0.03949,-0.0056 0.07334,-0.01457 0.10154,-0.0268 0.02915,-0.01316 0.05171,-0.03103 0.0677,-0.05359 0.01598,-0.02351 0.02397,-0.05265 0.02398,-0.08744 -2e-6,-0.03949 -0.01175,-0.07052 -0.03526,-0.09308 -0.02257,-0.02351 -0.05406,-0.04231 -0.09449,-0.05641 -0.03949,-0.01504 -0.0865,-0.02774 -0.14103,-0.03808 -0.05359,-0.01128 -0.11095,-0.02398 -0.17206,-0.03808 -0.06394,-0.0141 -0.12693,-0.03103 -0.18898,-0.05077 -0.06206,-0.01974 -0.11753,-0.04654 -0.16642,-0.08039 -0.04889,-0.03385 -0.08838,-0.07663 -0.11847,-0.12834 -0.03009,-0.05265 -0.04513,-0.11894 -0.04513,-0.19886 0,-0.0724 0.0141,-0.1368 0.04231,-0.19322 0.02821,-0.05735 0.06958,-0.10578 0.12411,-0.14527 0.05453,-0.04043 0.12176,-0.07099 0.20168,-0.09167 0.08086,-0.02162 0.17347,-0.03244 0.27784,-0.03244 0.08274,2e-6 0.15984,0.008 0.2313,0.02398 0.07146,0.01505 0.13539,0.03949 0.19181,0.07334 0.05641,0.03291 0.10342,0.07522 0.14103,0.12693 0.03855,0.05171 0.06534,0.11424 0.08039,0.18758 l -0.35118,0.03667 c -0.0066,-0.03667 -0.01834,-0.06675 -0.03526,-0.09026 -0.01693,-0.02445 -0.03808,-0.04372 -0.06347,-0.05782 -0.02445,-0.0141 -0.05312,-0.0235 -0.08603,-0.02821 -0.03291,-0.0056 -0.06911,-0.0085 -0.1086,-0.0085 -0.09402,10e-7 -0.16454,0.01222 -0.21155,0.03667 -0.04701,0.02351 -0.07052,0.06347 -0.07052,0.11988 -1e-6,0.03479 0.0094,0.06253 0.02821,0.08321 0.01974,0.02069 0.04701,0.03808 0.0818,0.05218 0.03573,0.01316 0.07757,0.02492 0.12552,0.03526 0.04889,0.0094 0.10201,0.02116 0.15937,0.03526 0.07052,0.01504 0.13962,0.03291 0.20732,0.05359 0.06863,0.01975 0.12928,0.04748 0.18193,0.08321 0.05359,0.03479 0.09637,0.07992 0.12834,0.13539 0.03291,0.05547 0.04936,0.12599 0.04936,0.21155"
             id="path3174"
             inkscape:connector-curvature="0" />
        </g>
      </g>
      <g
         id="layer5"
         transform="translate(0,956.36218)">
        <rect
           x="15"
           y="15"
           width="66"
           height="66"
           ry="12"
           rx="12"
           clip-path="url(#clipPath3613-89)"
           style="opacity:0.1;fill:url(#linearGradient3388);stroke:#ffffff;stroke-width:0.5;stroke-linecap:round;filter:url(#filter3794-87)"
           id="rect3171" />
      </g>
    </g>
  </g>
</svg>
