<?xml version="1.0" encoding="UTF-8" standalone="no"?>
<!-- Created with Inkscape (http://www.inkscape.org/) -->
<svg id="svg2982" xmlns:rdf="http://www.w3.org/1999/02/22-rdf-syntax-ns#" xmlns="http://www.w3.org/2000/svg" height="96" width="96" version="1.1" xmlns:cc="http://creativecommons.org/ns#" xmlns:xlink="http://www.w3.org/1999/xlink" xmlns:dc="http://purl.org/dc/elements/1.1/">
 <defs id="defs2984">
  <filter id="filter6279-2-4" color-interpolation-filters="sRGB">
   <feGaussianBlur id="feGaussianBlur6281-1-0" stdDeviation="0.8"/>
  </filter>
  <linearGradient id="linearGradient6111" y2="902.36" gradientUnits="userSpaceOnUse" x2="48" gradientTransform="translate(0,-7.851562e-6)" y1="1052.4" x1="48">
   <stop id="stop3702-89" style="stop-color:#1a1818" offset="0"/>
   <stop id="stop3704-36" style="stop-color:#403d3d" offset="1"/>
  </linearGradient>
  <radialGradient id="radialGradient9366" xlink:href="#linearGradient3688-2" gradientUnits="userSpaceOnUse" cy="43.5" cx="4.993" gradientTransform="matrix(2.0038 0 0 1.4 27.988 -17.4)" r="2.5"/>
  <linearGradient id="linearGradient3688-2">
   <stop id="stop3690-6" offset="0"/>
   <stop id="stop3692-4" style="stop-opacity:0" offset="1"/>
  </linearGradient>
  <radialGradient id="radialGradient9368" xlink:href="#linearGradient3688-2" gradientUnits="userSpaceOnUse" cy="43.5" cx="4.993" gradientTransform="matrix(2.0038 0 0 1.4 -20.012 -104.4)" r="2.5"/>
  <linearGradient id="linearGradient9370" y2="39.999" gradientUnits="userSpaceOnUse" x2="25.058" y1="47.028" x1="25.058">
   <stop id="stop3704-1" style="stop-opacity:0" offset="0"/>
   <stop id="stop3710-2" offset=".5"/>
   <stop id="stop3706-8" style="stop-opacity:0" offset="1"/>
  </linearGradient>
  <radialGradient id="radialGradient9372" gradientUnits="userSpaceOnUse" cy="13.195" cx="12.011" gradientTransform="matrix(5.6342e-8 1.6801 -2.4235 1.0381e-8 51.251 962.75)" r="20">
   <stop id="stop3244-9" style="stop-color:#f89b7e" offset="0"/>
   <stop id="stop3246-2" style="stop-color:#e35d4f" offset=".26238"/>
   <stop id="stop3248-8" style="stop-color:#c6262e" offset=".66094"/>
   <stop id="stop3250-8" style="stop-color:#690b2c" offset="1"/>
  </radialGradient>
  <linearGradient id="linearGradient9374" y2="3.899" gradientUnits="userSpaceOnUse" x2="24" gradientTransform="translate(6.7726 969.65)" y1="44" x1="24">
   <stop id="stop2492" style="stop-color:#791235" offset="0"/>
   <stop id="stop2494" style="stop-color:#dd3b27" offset="1"/>
  </linearGradient>
  <linearGradient id="linearGradient9376" y2="44.024" gradientUnits="userSpaceOnUse" x2="23.97" gradientTransform="translate(6.7726 969.65)" y1="3.981" x1="23.97">
   <stop id="stop4248" style="stop-color:#fff" offset="0"/>
   <stop id="stop4250" style="stop-color:#dcdcdc" offset="1"/>
  </linearGradient>
  <linearGradient id="linearGradient9378" y2="43" gradientUnits="userSpaceOnUse" x2="24" gradientTransform="translate(6.7726 969.65)" y1="5" x1="24">
   <stop id="stop3310-1-4" style="stop-color:#fff" offset="0"/>
   <stop id="stop3312-5-3" style="stop-color:#fff;stop-opacity:0" offset="1"/>
  </linearGradient>
 </defs>
 <metadata id="metadata2987">
  <rdf:RDF>
   <cc:Work rdf:about="">
    <dc:format>image/svg+xml</dc:format>
    <dc:type rdf:resource="http://purl.org/dc/dcmitype/StillImage"/>
    <dc:title/>
   </cc:Work>
  </rdf:RDF>
 </metadata>
 <g id="layer1" transform="translate(0 -956.36)">
  <g id="g9380">
   <g id="g13851" transform="matrix(.49499 0 0 .49499 43.99 487.46)">
    <rect id="rect9283-4" ry="5" style="filter:url(#filter6279-2-4)" rx="5" transform="translate(0 -.0000078516)" height="80" width="80" y="964.36" x="8"/>
    <rect id="rect9285-9" style="fill:url(#linearGradient6111)" rx="5" ry="5" height="80" width="80" y="964.36" x="8"/>
    <g id="g13262">
     <path id="path3497" style="stroke:#fff;stroke-width:11.365;fill:none" d="m65.443 1003.2c0 12.222-9.9081 22.13-22.13 22.13s-22.13-9.9081-22.13-22.13 9.9081-22.13 22.13-22.13 22.13 9.9081 22.13 22.13z"/>
     <path id="rect4269" style="stroke-linejoin:round;stroke:#f00;stroke-linecap:round;stroke-width:9.2433;fill:#a00" d="m75.359 980.74h0.51945v47.498h-0.51945z"/>
    </g>
   </g>
   <g id="g9354" transform="translate(-2.7803 30.707)">
    <g id="g2036" transform="matrix(1.1 0 0 .44444 4.3726 993.79)">
     <g id="g3712" style="opacity:.4" transform="matrix(1.0526 0 0 1.2857 -1.2632 -13.429)">
      <rect id="rect2801" style="fill:url(#radialGradient9366)" height="7" width="5" y="40" x="38"/>
      <rect id="rect3696" style="fill:url(#radialGradient9368)" transform="scale(-1)" height="7" width="5" y="-47" x="-10"/>
      <rect id="rect3700" style="fill:url(#linearGradient9370)" height="7" width="28" y="40" x="10"/>
     </g>
    </g>
    <rect id="rect5505" style="stroke-linejoin:round;stroke:url(#linearGradient9374);stroke-linecap:round;fill:url(#radialGradient9372)" rx="2.2322" ry="2.2322" height="39" width="39" y="974.15" x="11.273"/>
    <path id="path6711" d="m34.585 974.65c-12.952 11.131-20.351 12.702-22.812 12.875v4c1.8577-0.25977 6.5271-1.1618 11.5-4.2812 6.3767-4 14-11.594 14-11.594-2.0908 4.1074-2.6996 18.271-2.74 37h13.365c1.0464 0 1.875-0.8286 1.875-1.875-2.4777-5.1179-4.0969-12.517-5.3125-19.125-1.0375-7.885 0.4945-14.779 1.0625-17h-10.938zm-22.812 19.394v4.4302c5.3772 0 13.644 6.4622 17.643 14.176h3.359c-1.879-7.0127-16.899-18.606-21.002-18.606z" style="fill:url(#linearGradient9376);fill-rule:evenodd"/>
    <path id="path6713" d="m11.773 994.65s30 4.5 39-5v-13.018c0-1.6013-0.71416-2.9643-2.9821-2.9643 0 0-21.018 13.839-36.018 12.411v8.5714z" style="opacity:.15;fill-rule:evenodd"/>
    <path id="path6715" d="m50.773 998.65c-3.6296 3.2222-8.0847 9.588-11.209 15.033l-3.9112-0.027c3.6497-7.655 9.5514-15.174 15.12-20.506v5.5z" style="opacity:.15;fill-rule:evenodd"/>
    <rect id="rect6741" style="opacity:.4;stroke-linejoin:round;stroke:url(#linearGradient9378);stroke-linecap:round;fill:none" rx="1.3652" ry="1.3652" height="37" width="37" y="975.15" x="12.273"/>
   </g>
  </g>
 </g>
</svg>
