<?xml version="1.0" encoding="UTF-8" standalone="no"?>
<!-- Created with Inkscape (http://www.inkscape.org/) -->

<svg
   xmlns:dc="http://purl.org/dc/elements/1.1/"
   xmlns:cc="http://creativecommons.org/ns#"
   xmlns:rdf="http://www.w3.org/1999/02/22-rdf-syntax-ns#"
   xmlns:svg="http://www.w3.org/2000/svg"
   xmlns="http://www.w3.org/2000/svg"
   xmlns:xlink="http://www.w3.org/1999/xlink"
   xmlns:sodipodi="http://sodipodi.sourceforge.net/DTD/sodipodi-0.dtd"
   xmlns:inkscape="http://www.inkscape.org/namespaces/inkscape"
   width="96"
   height="96"
   id="svg2"
   version="1.1"
   inkscape:version="0.48.1 r9760"
   sodipodi:docname="templat-ikon-96x96.svg">
  <defs
     id="defs4">
    <filter
       color-interpolation-filters="sRGB"
       inkscape:collect="always"
       id="filter6221">
      <feGaussianBlur
         inkscape:collect="always"
         stdDeviation="1.2"
         id="feGaussianBlur6223" />
    </filter>
    <linearGradient
       inkscape:collect="always"
       xlink:href="#linearGradient4949"
       id="linearGradient5482"
       gradientUnits="userSpaceOnUse"
       gradientTransform="matrix(0.95238095,0,0,0.95238095,2.2857041,958.6479)"
       x1="48"
       y1="90"
       x2="47.998997"
       y2="-59.097267" />
    <linearGradient
       id="linearGradient4949">
      <stop
         id="stop4951"
         style="stop-color:#ed6800;stop-opacity:1"
         offset="0" />
      <stop
         id="stop4953"
         style="stop-color:#fd9400;stop-opacity:1"
         offset="1" />
    </linearGradient>
    <linearGradient
       inkscape:collect="always"
       xlink:href="#linearGradient4949-5"
       id="linearGradient5514"
       gradientUnits="userSpaceOnUse"
       gradientTransform="matrix(0.51718979,0,0,0.51718979,14.95509,969.98499)"
       x1="79.464706"
       y1="52.145687"
       x2="79.464706"
       y2="94.974709" />
    <linearGradient
       id="linearGradient4949-5">
      <stop
         id="stop4951-8"
         style="stop-color:#ed6800;stop-opacity:1"
         offset="0" />
      <stop
         id="stop4953-4"
         style="stop-color:#fd9400;stop-opacity:1"
         offset="1" />
    </linearGradient>
    <linearGradient
       inkscape:collect="always"
       xlink:href="#linearGradient39155"
       id="linearGradient5510"
       gradientUnits="userSpaceOnUse"
       gradientTransform="matrix(0.90111483,0,0,0.91878448,27.49187,981.73129)"
       x1="31.1875"
       y1="18.875"
       x2="29.875"
       y2="34.375" />
    <linearGradient
       id="linearGradient39155">
      <stop
         id="stop39157"
         style="stop-color:#ffffff;stop-opacity:1"
         offset="0" />
      <stop
         id="stop39159"
         style="stop-color:#dadada;stop-opacity:1"
         offset="1" />
    </linearGradient>
    <linearGradient
       inkscape:collect="always"
       xlink:href="#linearGradient3564"
       id="linearGradient5506"
       gradientUnits="userSpaceOnUse"
       gradientTransform="matrix(0.07478585,0,0,0.0746278,45.73682,1007.0632)"
       x1="185.9903"
       y1="193.33229"
       x2="190.46461"
       y2="-458.05771" />
    <linearGradient
       id="linearGradient3564">
      <stop
         id="stop3566"
         style="stop-color:#ffffff;stop-opacity:1"
         offset="0" />
      <stop
         id="stop3568"
         style="stop-color:#ffffff;stop-opacity:0"
         offset="1" />
    </linearGradient>
    <radialGradient
       inkscape:collect="always"
       xlink:href="#linearGradient4941"
       id="radialGradient5502"
       gradientUnits="userSpaceOnUse"
       gradientTransform="matrix(0.51718979,0,0,0.47081922,14.95509,973.11069)"
       cx="78.563553"
       cy="67.408653"
       fx="78.563553"
       fy="67.408653"
       r="11.647734" />
    <linearGradient
       id="linearGradient4941">
      <stop
         id="stop4943"
         style="stop-color:#3f78c2;stop-opacity:1"
         offset="0" />
      <stop
         id="stop4945"
         style="stop-color:#2d578e;stop-opacity:1"
         offset="1" />
    </linearGradient>
    <linearGradient
       inkscape:collect="always"
       xlink:href="#linearGradient39171"
       id="linearGradient5499"
       gradientUnits="userSpaceOnUse"
       gradientTransform="matrix(0.51718979,0,0,0.51718979,14.95509,969.98499)"
       x1="75.44593"
       y1="27.258341"
       x2="75.44593"
       y2="87.235779" />
    <linearGradient
       id="linearGradient39171">
      <stop
         id="stop39173"
         style="stop-color:#ffffff;stop-opacity:1"
         offset="0" />
      <stop
         id="stop39175"
         style="stop-color:#ffffff;stop-opacity:0"
         offset="1" />
    </linearGradient>
    <linearGradient
       inkscape:collect="always"
       xlink:href="#linearGradient3737-62"
       id="linearGradient5486"
       gradientUnits="userSpaceOnUse"
       x1="48"
       y1="20.220806"
       x2="48"
       y2="138.66119" />
    <linearGradient
       id="linearGradient3737-62">
      <stop
         id="stop3739-17"
         style="stop-color:#ffffff;stop-opacity:1"
         offset="0" />
      <stop
         id="stop3741-85"
         style="stop-color:#ffffff;stop-opacity:0"
         offset="1" />
    </linearGradient>
    <clipPath
       id="clipPath3613-7">
      <rect
         width="84"
         height="84"
         rx="6"
         ry="6"
         x="6"
         y="6"
         id="rect3615-4"
         style="fill:#ffffff;fill-opacity:1;fill-rule:nonzero;stroke:none" />
    </clipPath>
    <filter
       x="-0.192"
       y="-0.192"
       width="1.3839999"
       height="1.3839999"
       color-interpolation-filters="sRGB"
       id="filter3794-18">
      <feGaussianBlur
         id="feGaussianBlur3796-5"
         stdDeviation="5.28" />
    </filter>
  </defs>
  <sodipodi:namedview
     id="base"
     pagecolor="#ffffff"
     bordercolor="#666666"
     borderopacity="1.0"
     inkscape:pageopacity="0.0"
     inkscape:pageshadow="2"
     inkscape:zoom="3.959798"
     inkscape:cx="28.389459"
     inkscape:cy="57.490015"
     inkscape:document-units="px"
     inkscape:current-layer="layer1"
     showgrid="false"
     inkscape:window-width="1280"
     inkscape:window-height="725"
     inkscape:window-x="0"
     inkscape:window-y="25"
     inkscape:window-maximized="1" />
  <metadata
     id="metadata7">
    <rdf:RDF>
      <cc:Work
         rdf:about="">
        <dc:format>image/svg+xml</dc:format>
        <dc:type
           rdf:resource="http://purl.org/dc/dcmitype/StillImage" />
        <dc:title></dc:title>
      </cc:Work>
    </rdf:RDF>
  </metadata>
  <g
     inkscape:label="Layer 1"
     inkscape:groupmode="layer"
     id="layer1"
     transform="translate(0,-956.36217)">
    <g
       transform="translate(-1.0754402e-8,-1.0135559e-5)"
       id="g5521">
      <g
         style="display:inline"
         id="layer5"
         transform="translate(126.5,968.36218)" />
      <rect
         transform="translate(-1.7480468e-7,-5.2343748e-6)"
         y="964.54077"
         x="8"
         height="80"
         width="80"
         id="rect10662"
         style="fill:#000000;fill-opacity:1;stroke:none;filter:url(#filter6221)"
         rx="5"
         ry="5" />
      <rect
         width="80"
         height="80"
         rx="5"
         ry="5"
         x="8"
         y="964.36218"
         id="rect2419"
         style="fill:url(#linearGradient5482);fill-opacity:1;fill-rule:nonzero;stroke:none" />
      <g
         transform="matrix(0.6691358,0,0,0.6691358,112.60404,448.47083)"
         id="g20803" />
      <path
         d="m 49.34187,982.04679 c -0.82585,0 -1.6558,0.2497 -2.35146,0.7363 -0.66103,0.4606 -1.09263,1.1145 -1.18761,1.829 -0.005,0.041 -0.0206,0.077 -0.0237,0.1187 -0.0115,0.1518 -7.6e-4,0.303 0.0237,0.4513 l 0,1.7339 c -0.004,0.032 -0.0213,0.062 -0.0237,0.095 -0.0115,0.1513 0.003,0.3027 0.0237,0.4513 0.0833,0.6011 0.41038,1.1669 0.92633,1.5914 l 0,0.024 c 0.56459,0.4448 1.1415,0.9011 1.71016,1.3539 l -14.22756,0 c -1.21398,0 -2.25453,0.2706 -3.04027,0.8313 -0.78575,0.5607 -1.28199,1.3939 -1.44889,2.3277 -0.0216,0.1207 -0.0417,0.2344 -0.0475,0.3563 -7.6e-4,0.016 4.9e-4,0.031 0,0.047 l 0,2.2327 c -0.007,0.1156 -0.007,0.2168 0,0.3326 l 0,0.2375 0.0237,0 c 0.20093,1.5368 1.53945,2.969 3.49157,2.969 1.44492,0 2.89695,1e-4 4.34665,0 l -12.46989,9.21591 c 0.002,-8e-4 -0.0247,0.012 -0.0712,0.047 -0.95124,0.7279 -1.59783,1.7016 -1.85267,2.7315 -0.0596,0.2409 -0.0825,0.4908 -0.095,0.7363 l -0.0237,0 0,0.3088 0,2.0189 c -0.005,0.1318 -0.008,0.2726 0,0.4038 l 0,0.1188 0.0237,0 c 0.0591,0.6126 0.26927,1.2039 0.66506,1.7101 1.37427,1.7568 4.11018,1.6916 6.03305,0.1426 l 8.147,-6.6744 c 0.0132,0.7787 0.21942,1.9957 0.5463,3.0402 0.67118,2.1354 1.82075,4.1084 3.39656,5.8431 1.61572,1.7791 3.60276,3.2163 5.89054,4.2279 2.407,1.0628 4.999,1.5957 7.69571,1.5914 2.69656,-0.01 5.31389,-0.5447 7.71946,-1.6152 2.28555,-1.021 4.27588,-2.4678 5.89054,-4.2516 1.57165,-1.7409 2.70189,-3.731 3.37281,-5.8668 0.33979,-1.0813 0.55311,-2.1754 0.6413,-3.2778 0.0593,-0.7575 0.0548,-1.5223 0,-2.2802 0.002,-0.032 -0.002,-0.063 0,-0.095 -0.002,-0.024 0.002,-0.047 0,-0.071 0.0697,-1.0289 0.0515,-2.0603 -0.095,-3.0878 -0.3001,-2.1144 -1.03723,-4.1096 -2.16145,-5.91441 -0.88111,-1.4154 -2.02242,-2.657 -3.30156,-3.7528 l 0.0475,-0.047 -0.68881,-0.5226 -15.13014,-11.591 c 7.6e-4,7e-4 -0.0194,-0.02 -0.0237,-0.024 -0.007,-0.01 -0.0271,-0.01 -0.0475,-0.024 -0.009,-0.01 -0.0151,-0.017 -0.0237,-0.024 -0.65714,-0.4923 -1.4651,-0.7376 -2.28021,-0.7363 z"
         inkscape:connector-curvature="0"
         id="path3709"
         style="font-size:medium;font-style:normal;font-variant:normal;font-weight:normal;font-stretch:normal;text-indent:0;text-align:start;text-decoration:none;line-height:normal;letter-spacing:normal;word-spacing:normal;text-transform:none;direction:ltr;block-progression:tb;writing-mode:lr-tb;text-anchor:start;color:#000000;fill:#ac4d00;fill-opacity:1;fill-rule:evenodd;stroke:none;stroke-width:2;marker:none;visibility:visible;display:inline;overflow:visible;enable-background:accumulate;font-family:Abandoned Bitplane;-inkscape-font-specification:Abandoned Bitplane" />
      <path
         d="m 38.64892,1008.2283 c 0.0107,0.6312 0.21548,1.8583 0.5167,2.8209 0.63783,2.0292 1.71843,3.91 3.22349,5.5668 1.54366,1.6998 3.44218,3.0679 5.63656,4.0382 2.30905,1.0195 4.80903,1.5404 7.40322,1.5363 2.59419,-0.01 5.09398,-0.5349 7.40195,-1.5618 2.19352,-0.9798 4.09202,-2.3513 5.6346,-4.0554 1.50168,-1.6633 2.5802,-3.5472 3.21797,-5.5776 0.32274,-1.0269 0.52306,-2.0677 0.60677,-3.114 0.0804,-1.0279 0.0461,-2.0613 -0.10072,-3.0904 -0.28513,-2.0089 -0.98301,-3.8927 -2.05384,-5.61181 -0.98218,-1.5778 -2.24594,-2.9599 -3.74789,-4.1227 0,0 0.002,0 0.002,0 0,0 -15.1664,-11.6226 -15.1664,-11.6226 -0.0129,-0.011 -0.0247,-0.021 -0.0387,-0.031 -0.99696,-0.7616 -2.67035,-0.7595 -3.76376,0.01 -1.10846,0.7724 -1.19745,1.9802 -0.21445,2.7889 2.08359,1.6414 4.15897,3.3578 6.25409,4.999 0,0 -19.24985,-0.013 -19.24985,-0.013 -2.18767,0 -3.4748,1.0374 -3.74584,2.554 -0.23918,1.3384 0.82028,2.9967 2.71997,2.9967 3.24263,0 6.51702,-0.01 9.7712,-0.014 0,0 -17.44026,12.87521 -17.44026,12.87521 -0.0225,0.017 -0.045,0.032 -0.0676,0.049 -1.64229,1.2568 -2.17506,3.3482 -1.14059,4.6714 1.05269,1.3457 3.28781,1.3468 4.95154,0.01 0,0 9.51717,-7.7728 9.51717,-7.7728 0,0 -0.13722,1.0505 -0.12759,1.6806 z"
         inkscape:connector-curvature="0"
         id="path2482"
         style="fill:url(#linearGradient5514);fill-opacity:1;fill-rule:evenodd;stroke:#ce5c00;stroke-width:1.52013934;stroke-linecap:butt;stroke-linejoin:miter;stroke-miterlimit:4;stroke-dasharray:none" />
      <path
         inkscape:connector-curvature="0"
         d="m 66.01453,1005.39 a 10.41914,9.3026928 0 0 1 -20.83827,0 10.41914,9.3026928 0 1 1 20.83827,0 z"
         id="path39153"
         style="fill:url(#linearGradient5510);fill-opacity:1;fill-rule:nonzero;stroke:none;stroke-width:1;marker:none;visibility:visible;display:inline;overflow:visible;enable-background:accumulate" />
      <path
         d="m 49.34061,984.07779 c -0.44403,6e-4 -0.89783,0.1376 -1.20125,0.3498 -7.6e-4,8e-4 -0.002,0 -0.002,0 -0.30731,0.2141 -0.36944,0.4028 -0.3786,0.5037 -0.009,0.101 -0.0145,0.1831 0.20801,0.3662 0.0208,0.017 0.0411,0.035 0.0607,0.054 0.13628,0.1106 6.2563,5.0771 6.2563,5.0771 0.40981,0.3328 0.56576,0.8867 0.38956,1.3838 -0.17617,0.4971 -0.64644,0.4189 -1.17481,0.4206 -6.17926,0.056 -19.31345,0.021 -19.31345,0.021 -1.04516,8e-4 -2.57438,0.5656 -2.64709,1.7356 -0.0697,1.1217 0.99729,1.5951 1.73096,1.5951 0,0 9.68477,-0.019 9.68477,-0.019 0.53562,-7e-4 1.01214,0.2424 1.185,0.7483 0.17286,0.5059 0.004,0.5818 -0.42078,0.9078 0,0 -17.43913,13.35831 -17.43913,13.35831 -0.002,0 -0.003,0 -0.005,0.01 -0.0702,0.053 -0.093,0.068 -0.0678,0.049 -0.60725,0.4647 -0.98281,1.0734 -1.11713,1.6161 -0.1343,0.5429 -0.0511,0.9659 0.20567,1.2943 0.52517,0.6714 1.94057,0.8013 3.1784,-0.1958 0,0 9.51183,-7.7683 9.51183,-7.7683 0.39698,-0.3237 0.95172,-0.3728 1.39958,-0.1239 0.44786,0.2489 0.69809,0.7454 0.63132,1.2526 0,0 -0.12338,1.0726 -0.11685,1.4996 0.21096,2.8854 1.58845,5.3791 3.41679,7.5677 3.15617,3.4725 7.51208,4.9866 12.11063,5.1657 4.61011,-0.048 8.97778,-1.8195 12.11064,-5.2076 5.72386,-6.989 4.3231,-14.626 -1.91638,-19.69251 -4.93143,-4.0043 -10.1047,-7.7499 -15.15816,-11.6233 -0.005,0 -0.009,-0.01 -0.0141,-0.012 -0.008,-0.01 -0.0156,-0.011 -0.0233,-0.016 -0.23091,-0.1764 -0.64121,-0.3154 -1.0844,-0.3148 z"
         inkscape:connector-curvature="0"
         id="path3562"
         style="opacity:0.4857143;fill:none;stroke:url(#linearGradient5506);stroke-width:1.14010453;stroke-linecap:butt;stroke-linejoin:miter;stroke-miterlimit:4;stroke-opacity:1;stroke-dasharray:none" />
      <path
         d="m 49.57102,1004.5736 c 0.0817,-1.4897 0.81082,-2.8047 1.90694,-3.7356 1.07867,-0.91521 2.52714,-1.47391 4.10939,-1.47391 1.58123,0 3.02971,0.5587 4.10814,1.47391 1.09731,0.9309 1.82559,2.2449 1.90821,3.7346 0.0846,1.5331 -0.52951,2.9567 -1.60593,4.0111 -1.09731,1.074 -2.66192,1.7484 -4.41042,1.7484 -1.74951,0 -3.31412,-0.6744 -4.41139,-1.7484 -1.07752,-1.0544 -1.68955,-2.478 -1.60494,-4.0101 z"
         inkscape:connector-curvature="0"
         id="path2478"
         style="fill:url(#radialGradient5502);fill-opacity:1;fill-rule:evenodd;stroke:none" />
      <path
         d="m 49.35762,984.08269 c -0.44402,6e-4 -0.93042,0.1298 -1.23384,0.342 -0.30732,0.2141 -0.36786,0.4121 -0.37701,0.513 -0.009,0.101 -0.0169,0.1932 0.20564,0.3762 0.0208,0.017 0.0489,0.016 0.0686,0.034 0.13628,0.1105 6.27205,5.0959 6.27205,5.0959 0.40981,0.3328 0.55319,0.871 0.37701,1.3681 -0.17618,0.497 -0.63694,0.4087 -1.1653,0.4104 -6.17926,0.056 -19.33026,0.034 -19.33026,0.034 -1.04517,7e-4 -2.56636,0.5743 -2.63906,1.7442 -0.0697,1.1218 1.01427,1.5733 1.74794,1.5733 0,0 9.66513,0 9.66513,0 0.53562,-7e-4 1.02672,0.2465 1.19958,0.7524 0.17286,0.5059 -0.0211,0.5632 -0.44556,0.8892 0,0 -17.41094,13.37271 -17.41094,13.37271 -0.002,0 -0.0328,0 -0.0343,0 -0.0702,0.053 -0.0594,0.053 -0.0343,0.034 -0.60725,0.4647 -0.99672,1.0988 -1.13103,1.6416 -0.1343,0.5428 -0.0512,0.937 0.20564,1.2654 0.52516,0.6714 1.94961,0.8262 3.18744,-0.1709 0,0 9.49376,-7.7637 9.49376,-7.7637 0.39697,-0.3237 0.95736,-0.3857 1.40522,-0.1368 0.44785,0.2489 0.68369,0.7582 0.61692,1.2654 0,0 -0.10934,1.0437 -0.10282,1.4707 0.10417,1.4247 0.49531,2.76 1.08473,4.0102 2.8772,5.0283 10.52273,-13.49861 28.52759,-11.7055 -0.92988,-1.62801 -2.23323,-3.11471 -3.87291,-4.44611 -4.93142,-4.0043 -10.1297,-7.755 -15.18316,-11.6284 -0.008,-0.01 -0.0265,-0.029 -0.0343,-0.034 -0.23092,-0.1764 -0.6193,-0.3084 -1.06248,-0.3078 z"
         inkscape:connector-curvature="0"
         id="path39166"
         style="opacity:0.51999996;fill:url(#linearGradient5499);fill-opacity:1;fill-rule:evenodd;stroke:none" />
      <g
         style="display:inline"
         id="layer5-9"
         transform="translate(-94,956.36218)">
        <rect
           transform="translate(94,0)"
           style="opacity:0.1;fill:url(#linearGradient5486);fill-opacity:1;fill-rule:nonzero;stroke:#ffffff;stroke-width:0.5;stroke-linecap:round;stroke-linejoin:miter;stroke-miterlimit:4;stroke-opacity:1;stroke-dasharray:none;stroke-dashoffset:0;filter:url(#filter3794-18)"
           id="rect3171"
           clip-path="url(#clipPath3613-7)"
           y="15"
           x="15"
           ry="12"
           rx="12"
           height="66"
           width="66" />
      </g>
    </g>
  </g>
</svg>
