<?xml version="1.0" encoding="UTF-8" standalone="no"?>
<!-- Created with Inkscape (http://www.inkscape.org/) -->

<svg
   xmlns:dc="http://purl.org/dc/elements/1.1/"
   xmlns:cc="http://creativecommons.org/ns#"
   xmlns:rdf="http://www.w3.org/1999/02/22-rdf-syntax-ns#"
   xmlns:svg="http://www.w3.org/2000/svg"
   xmlns="http://www.w3.org/2000/svg"
   xmlns:xlink="http://www.w3.org/1999/xlink"
   xmlns:sodipodi="http://sodipodi.sourceforge.net/DTD/sodipodi-0.dtd"
   xmlns:inkscape="http://www.inkscape.org/namespaces/inkscape"
   width="96"
   height="96"
   id="svg2"
   version="1.1"
   inkscape:version="0.48.1 r9760"
   sodipodi:docname="bluegriffon.svg">
  <defs
     id="defs4">
    <filter
       color-interpolation-filters="sRGB"
       inkscape:collect="always"
       id="filter6279">
      <feGaussianBlur
         inkscape:collect="always"
         stdDeviation="0.8"
         id="feGaussianBlur6281" />
    </filter>
    <linearGradient
       inkscape:collect="always"
       xlink:href="#linearGradient3700-45"
       id="linearGradient10902-1"
       gradientUnits="userSpaceOnUse"
       gradientTransform="translate(0,-9.6171873e-6)"
       x1="48"
       y1="1052.3622"
       x2="48"
       y2="902.36218" />
    <linearGradient
       id="linearGradient3700-45">
      <stop
         id="stop3702-9"
         style="stop-color:#dad7ed;stop-opacity:1"
         offset="0" />
      <stop
         id="stop3704-35"
         style="stop-color:#9e99c2;stop-opacity:1"
         offset="1" />
    </linearGradient>
    <linearGradient
       inkscape:collect="always"
       xlink:href="#linearGradient4335"
       id="linearGradient3090-8"
       gradientUnits="userSpaceOnUse"
       x1="-128"
       y1="64"
       x2="-67.417709"
       y2="38.740906" />
    <linearGradient
       id="linearGradient4335">
      <stop
         id="stop4337"
         style="stop-color:#000000;stop-opacity:1"
         offset="0" />
      <stop
         id="stop4339-0"
         style="stop-color:#19007b;stop-opacity:0.84705883"
         offset="1" />
    </linearGradient>
    <linearGradient
       y2="138.66119"
       x2="48"
       y1="20.220806"
       x1="48"
       gradientUnits="userSpaceOnUse"
       id="linearGradient3188-69"
       xlink:href="#linearGradient3737-2"
       inkscape:collect="always" />
    <linearGradient
       id="linearGradient3737-2">
      <stop
         id="stop3739-15"
         style="stop-color:#ffffff;stop-opacity:1"
         offset="0" />
      <stop
         id="stop3741-33"
         style="stop-color:#ffffff;stop-opacity:0"
         offset="1" />
    </linearGradient>
    <clipPath
       id="clipPath3613-82">
      <rect
         width="84"
         height="84"
         rx="6"
         ry="6"
         x="6"
         y="6"
         id="rect3615-8"
         style="fill:#ffffff;fill-opacity:1;fill-rule:nonzero;stroke:none" />
    </clipPath>
    <filter
       x="-0.192"
       y="-0.192"
       width="1.3839999"
       height="1.3839999"
       color-interpolation-filters="sRGB"
       id="filter3794-58">
      <feGaussianBlur
         id="feGaussianBlur3796-08"
         stdDeviation="5.28" />
    </filter>
  </defs>
  <sodipodi:namedview
     id="base"
     pagecolor="#ffffff"
     bordercolor="#666666"
     borderopacity="1.0"
     inkscape:pageopacity="0.0"
     inkscape:pageshadow="2"
     inkscape:zoom="3.959798"
     inkscape:cx="28.389459"
     inkscape:cy="57.490015"
     inkscape:document-units="px"
     inkscape:current-layer="layer1"
     showgrid="false"
     inkscape:window-width="1280"
     inkscape:window-height="725"
     inkscape:window-x="0"
     inkscape:window-y="25"
     inkscape:window-maximized="1" />
  <metadata
     id="metadata7">
    <rdf:RDF>
      <cc:Work
         rdf:about="">
        <dc:format>image/svg+xml</dc:format>
        <dc:type
           rdf:resource="http://purl.org/dc/dcmitype/StillImage" />
        <dc:title></dc:title>
      </cc:Work>
    </rdf:RDF>
  </metadata>
  <g
     inkscape:label="Layer 1"
     inkscape:groupmode="layer"
     id="layer1"
     transform="translate(0,-956.36217)">
    <g
       transform="translate(-182.1875,-40.40626)"
       id="g5979">
      <rect
         y="964.36218"
         x="8"
         height="80"
         width="80"
         id="rect9283"
         style="fill:#000000;fill-opacity:1;stroke:none;filter:url(#filter6279)"
         rx="5"
         ry="5"
         transform="translate(182.1875,40.40625)" />
      <rect
         ry="5"
         rx="5"
         style="fill:url(#linearGradient10902-1);fill-opacity:1;stroke:none"
         id="rect9285"
         width="80"
         height="80"
         x="8"
         y="964.36218"
         transform="translate(182.1875,40.40625)" />
      <g
         id="g6845">
        <g
           transform="matrix(0.74927764,0,0,0.74927764,195.47571,1008.9588)"
           id="g3107">
          <g
             transform="matrix(0.706098,0,0,0.706098,130.63254,20.2435)"
             id="g4345">
            <path
               d="m -93.21875,-5 c -0.701739,0.05093 -1.32386,0.399002 -1.875,1.0625 -0.62238,0.749266 -0.93515,1.759368 -0.84375,2.65625 0.13502,1.325258 0.52701,2.417639 2.125,5.59375 0.87829,1.745672 1.16603,2.444852 1.46875,3.84375 0.42751,1.97561 0.59675,3.706343 0.59375,6 -0.0032,2.112224 -0.1327,3.650165 -0.46875,5.65625 -0.29504,1.76132 -0.8001,3.87913 -0.90625,3.84375 -0.162,-0.054 -0.35435,-1.69724 -0.5,-4.09375 -0.17149,-2.821717 -0.31607,-3.950392 -0.5625,-5.0625 -0.65564,-2.958878 -2.11383,-4.209451 -4.53125,-3.84375 -0.67827,0.102606 -1.77316,0.43541 -1.875,0.5625 -0.0436,0.05437 0.20036,0.913528 0.875,2.84375 0.53005,1.516555 0.96871,2.78499 0.96875,2.8125 1.3e-4,0.09547 -0.38595,0.22495 -0.46875,0.15625 -0.04265,-0.03539 -0.42522,-0.579562 -0.84375,-1.1875 -0.88323,-1.28291 -1.3326,-1.906774 -1.9375,-2.625 -1.62721,-1.932077 -3.38917,-2.856245 -5.21875,-2.75 -0.66765,0.03877 -1.67213,0.258525 -1.84375,0.40625 -0.11903,0.102464 -0.0899,0.276019 2.1875,8.5625 l 2.34375,8.46875 -0.53125,5.1875 c -0.28764,2.86077 -0.56605,5.2662 -0.59375,5.34375 -0.0493,0.1379 -0.059,0.15625 -1,0.15625 -0.52915,0 -1.60216,-0.0384 -2.375,-0.0937 -1.70766,-0.12234 -3.83674,-0.13626 -4.5625,-0.0313 -0.73777,0.10675 -1.81055,0.37512 -2.8125,0.71875 -3.12922,1.07321 -5.86797,2.97015 -8.15625,5.6875 -2.10913,2.50461 -3.89736,5.69387 -5.65625,10.09375 -0.5279,1.32056 -1.66848,4.48619 -1.9375,5.34375 -0.66555,2.12159 -1.03385,4.37359 -1.09375,6.8125 -0.0533,2.17221 0.11172,3.95965 0.5625,5.78125 0.52879,2.13682 1.31646,3.79169 2.40625,5.1875 0.26089,0.33415 0.54197,0.62928 0.84375,0.9375 0.0104,0.0107 0.0208,0.0206 0.0313,0.0313 0.009,0.01 0.0218,0.0217 0.0313,0.0313 0.006,0.006 -0.006,0.0249 0,0.0313 1.40287,1.40657 2.92962,2.22856 4.875,2.625 1.3904,0.28335 3.8125,0.32956 3.8125,0.0625 0,-0.0446 -0.4207,-1.30134 -0.9375,-2.78125 -0.5168,-1.47991 -0.93732,-2.71245 -0.9375,-2.75 -3.7e-4,-0.0657 0.25943,-0.21875 0.375,-0.21875 0.0308,0 0.3575,0.45089 0.71875,1 1.45424,2.21052 2.57226,3.47656 3.84375,4.34375 0.75495,0.51491 1.74465,0.9106 2.53125,1.03125 0.48581,0.0745 1.64629,0.0693 2.125,-0.0313 0.59097,-0.12407 1.1774,-0.31874 1.25,-0.40625 0.009,-0.0114 -0.0412,-0.0716 -0.0625,-0.125 0.0103,0.0393 -0.0454,0.0625 -0.0937,0.0937 -0.0621,0.0401 -0.14877,0.0937 -0.375,0.15625 -0.12845,0.0355 -0.23844,0.0592 -0.375,0.0937 0.0198,-0.005 0.0434,-0.0263 0.0625,-0.0313 0.33517,-0.0878 0.6359,-0.18988 0.6875,-0.21875 0.0543,-0.0304 -0.29763,-0.65861 -1,-1.78125 0.32996,0.52658 0.78819,1.19289 0.875,1.34375 -0.0172,0 -0.006,0.0561 0.0313,0.125 0.0369,0.0689 0.0765,0.125 0.0937,0.125 0.0131,0 -0.011,-0.0474 -0.0313,-0.0937 0.007,0.0136 0.12404,0.1838 0.125,0.1875 -0.10052,-0.2518 -0.53852,-0.99519 -1.71875,-2.84375 -1.92758,-3.01907 -2.00895,-3.14727 -1.96875,-3.1875 0.0136,-0.0136 0.34184,0.20661 0.71875,0.5 2.46002,1.91496 4.96826,3.26554 7.25,3.90625 2.85756,0.80238 5.55016,0.41305 7.59375,-1.125 0.64668,-0.48671 1.31515,-1.14709 1.28125,-1.25 -0.01558,-0.0473 -2.38964,-1.05518 -5.28125,-2.25 -2.8916,-1.19481 -5.26775,-2.20935 -5.28125,-2.25 -0.0388,-0.11642 2.24262,0.0174 4.71875,0.28125 0.79274,0.0845 2.08225,0.22765 2.875,0.3125 2.54925,0.27286 3.12042,0.31344 4.875,0.3125 1.86273,-0.001 2.67853,-0.0769 4.09375,-0.375 2.2045,-0.46438 4.56691,-1.57621 6.5,-3.03125 0.78703,-0.59241 1.1712,-0.95647 1.125,-1.03125 -0.02533,-0.041 -3.1242,-0.0302 -9.125,0 -6.17774,0.0311 -8.98913,0.0118 -9.09375,-0.0313 -0.0173,-0.003 -0.0526,0.004 -0.0625,0 -0.0398,-0.0644 0.61915,-1.86605 0.71875,-1.96875 0.0285,-0.0294 0.25964,0.0447 0.5,0.1875 4.16124,2.47215 13.12473,1.83529 19.625,-1.40625 1.86524,-0.93016 3.09359,-1.80782 4.3125,-3.03125 1.45803,-1.46344 2.3184,-3.06228 2.4375,-4.59375 0.0351,-0.45169 0.0192,-0.46875 -0.09375,-0.46875 -0.13878,0 -2.41005,0.62255 -3.625,1 -0.44807,0.1392 -1.59741,0.50712 -2.5625,0.8125 -6.30376,1.99468 -8.9192,2.5298 -12.34375,2.59375 -1.9574,0.0366 -3.71255,-0.0812 -3.65625,-0.25 0.06364,-0.19092 2.7257,-1.10539 4.53125,-1.5625 1.54136,-0.39022 2.35258,-0.55732 5.9375,-1.28125 5.29944,-1.07015 7.21991,-1.56672 9.5625,-2.5 4.94058,-1.96832 7.74281,-5.17548 8.625,-9.84375 0.22963,-1.2145 0.36615,-3.34375 0.21875,-3.34375 -0.03081,0 -2.56666,1.43169 -5.65625,3.15625 -3.08981,1.72456 -5.6501,3.11687 -5.6875,3.09375 -0.08551,-0.0528 -0.44835,-0.86418 -0.40625,-0.90625 0.01709,-0.0171 0.41292,-0.23446 0.90625,-0.5 2.36944,-1.27538 4.17035,-2.61488 6.125,-4.5625 3.65295,-3.63981 5.79083,-7.84323 6.3125,-12.34375 0.14038,-1.21147 0.09561,-3.42116 -0.09375,-4.53125 -0.22428,-1.31484 -0.74788,-3.25971 -0.90625,-3.3125 -0.03585,-0.0119 -2.24473,3.17505 -4.875,7.0625 -5.53878,8.18614 -5.8314,8.6061 -5.875,8.5625 -0.09954,-0.0995 1.21984,-2.43512 3.4375,-6.125 0.96007,-1.59741 1.99248,-3.32674 2.28125,-3.84375 0.71049,-1.27202 1.71166,-3.38147 2.09375,-4.375 1.34231,-3.49033 1.53069,-6.452943 0.59375,-9.28125 -0.27208,-0.821313 -0.92696,-2.159548 -1.4375,-2.9375 -0.50619,-0.77133 -1.26495,-1.74502 -1.34375,-1.71875 -0.0356,0.01187 -1.55402,3.598518 -3.375,7.96875 l -3.3125,7.9375 -4.59375,7.84375 c -4.59423,7.85403 -4.79605,8.23519 -4.84375,8.1875 -0.03824,-0.0382 0.38166,-1.2152 0.8125,-2.28125 1.07774,-2.66676 2.18465,-4.79068 5.21875,-10 1.93777,-3.32699 2.8102,-4.88521 3.59375,-6.4375 2.44093,-4.835682 3.6161,-8.738738 3.90625,-13 0.0587,-0.866091 0.0588,-1.279734 0,-1.84375 -0.30668,-2.942092 -1.34262,-6.606092 -2.4375,-8.65625 -0.63612,-1.191129 -1.45973,-2.142662 -2.1875,-2.5 -0.32935,-0.161712 -0.43875,-0.1875 -0.96875,-0.1875 -0.54631,0 -0.64466,0.02292 -1.0625,0.21875 -1.01973,0.477927 -1.31313,1.227599 -1.3125,3.15625 3e-4,1.034299 0.07975,1.842931 0.40625,4.15625 l 0.21875,1.625 -0.03125,1.84375 c -0.03501,1.829126 -0.06126,2.418113 -0.25,4.125 -0.41512,3.754179 -1.43298,8.07279 -2.9375,12.65625 -0.56757,1.72908 -1.4068,4.13597 -1.5,4.28125 -0.21774,0.33933 0.31949,-2.14061 1.40625,-6.59375 1.78234,-7.303308 2.20745,-9.909888 2.28125,-13.59375 0.05097,-2.549335 -0.12028,-4.310363 -0.59385,-6.375 -0.28388,-1.237515 -0.39564,-1.560526 -0.8125,-2.4061 -1.16863,-2.370557 -3.20826,-4.88015 -4.875,-5.96875 -0.859165,-0.561147 -1.642011,-0.800928 -2.34375,-0.75 z"
               inkscape:connector-curvature="0"
               id="path4333"
               style="fill:url(#linearGradient3090-8);fill-opacity:1" />
            <path
               d="m -115.75,14.9375 c -0.60515,0.0073 -1.25259,0.06179 -1.625,0.125 -2.34424,0.397931 -4.21371,1.260803 -5.1875,2.4375 -0.76254,0.921442 -0.97744,2.073836 -0.59375,3.1875 0.0507,0.14793 0.0872,0.28775 0.0625,0.3125 -0.0247,0.0247 -2.32418,0.27112 -5.09375,0.5625 -2.2608,0.23785 -3.49975,0.40815 -4.15625,0.5 -0.0888,0.0124 -0.5232,0.0551 -0.5625,0.0625 -0.0261,0.005 -0.37249,0.0287 -0.375,0.0313 -0.006,0.006 0.0302,0.0996 0.0313,0.125 0.002,0.0365 -0.007,0.0559 0,0.0625 0.0251,0.2065 0.12314,0.65051 0.375,1.53125 0.44575,1.55802 0.53765,1.875 0.46875,1.875 -0.0151,0 -0.24774,-0.1628 -0.5,-0.34375 -1.04232,-0.7477 -1.98596,-1.10887 -3,-1.15625 -1.11962,-0.0523 -1.82805,0.25224 -2.625,1.03125 -0.0172,0.0168 -0.0452,0.0139 -0.0625,0.0313 -0.39978,0.40032 -0.55043,0.58654 -0.8125,1.125 -0.38185,0.78456 -0.5728,1.4813 -0.625,2.40625 -0.061,1.08043 0.17689,2.44739 0.5625,3.34375 l 0.125,0.3125 0.53125,0 c 0.3303,0 0.44513,0.005 0.5625,-0.0937 l -0.0625,0 c 0.0231,-0.0152 0.0629,-0.0253 0.0937,-0.0625 0.0427,-0.0517 0.0485,-0.0937 0.0313,-0.0937 l 0.125,-0.21875 c 0.074,-0.11331 0.16894,-0.20899 0.25,-0.3125 -0.0918,0.12036 -0.16975,0.24194 -0.25,0.375 l -0.15625,0.25 c 0.075,-0.08 0.17634,-0.16631 0.3125,-0.375 0.54896,-0.84138 1.53669,-1.4894 2.71875,-1.78125 0.8044,-0.19858 2.28321,-0.19799 3.28125,0 3.59637,0.71343 6.29212,3.15472 6.15625,5.59375 -0.0362,0.65037 -0.2671,1.0768 -0.84375,1.65625 -0.48068,0.48301 -1.10866,0.91121 -2.1875,1.5 -0.37913,0.20692 -1.00987,0.5642 -1.40625,0.78125 -0.39637,0.21705 -0.96184,0.55918 -1.25,0.75 -0.57094,0.3781 -1.28125,1.00589 -1.28125,1.15625 0,0.12954 0.35434,0.12462 1.875,-0.0313 0.65221,-0.0669 1.18782,-0.16975 1.75,-0.25 2.7268,-0.38926 4.54649,-0.91729 5.96875,-1.84375 1.35183,-0.88058 2.36841,-2.27876 2.75,-3.75 0.0619,-0.23879 0.11895,-0.40625 0.15625,-0.40625 0.0373,0 0.2839,0.12732 0.53125,0.28125 1.60533,0.99903 2.92542,1.35898 4.03125,1.125 0.98834,-0.20912 1.9396,-0.8042 3.6875,-2.3125 0.4635,-0.39996 0.86605,-0.75 0.90625,-0.75 0.0402,0 0.40438,0.79722 0.8125,1.75 0.40812,0.95278 0.79055,1.78003 0.84375,1.84375 0.0937,0.11214 0.1701,0.12346 1.65625,-0.125 0.84445,-0.14118 1.55975,-0.31161 1.59375,-0.34375 0.0868,-0.082 -0.2362,-1.17578 -0.53125,-1.875 -0.47544,-1.1267 -1.29574,-2.14373 -2.28125,-2.78125 -0.59067,-0.3821 -1.47814,-0.79803 -2.90625,-1.34375 -1.55478,-0.59412 -2.35838,-0.97604 -3.09375,-1.46875 -0.72849,-0.4881 -1.43325,-1.13503 -1.34375,-1.21875 0.0345,-0.0323 0.28676,-0.12307 0.5625,-0.21875 2.1963,-0.76212 3.7005,-2.20738 4.6875,-4.53125 0.40613,-0.95622 0.73627,-2.17838 1.28125,-4.59375 0.24726,-1.095849 0.56754,-2.333324 0.6875,-2.75 0.11999,-0.416676 0.2058,-0.79614 0.1875,-0.84375 -0.002,-0.0054 -0.0734,0.02682 -0.0937,0.03125 -0.21834,0.04752 -1.46883,0.624931 -4.53125,2.15625 -2.52038,1.260286 -4.62295,2.29235 -4.65625,2.28125 -0.0333,-0.0111 0.77086,-0.741045 1.78125,-1.625 1.0104,-0.883955 1.9224,-1.67689 2,-1.75 0.0499,-0.04702 0.0414,-0.09447 0.0625,-0.15625 0.0316,-0.09267 0.0625,-0.21781 0.0625,-0.5 0,-0.520896 -0.0187,-0.5545 -0.1875,-0.625 -0.1367,-0.05709 -0.6761,-0.06978 -1.28125,-0.0625 z"
               inkscape:connector-curvature="0"
               id="path4323"
               style="fill:#000000" />
            <path
               d="m -126.625,34.21875 c -0.49727,0.0386 -1.54152,0.20981 -2.65625,0.4375 -5.07501,1.03661 -9.13574,2.82673 -11.5,5.09375 -0.47774,0.45809 -1.125,1.21966 -1.125,1.3125 0,0.021 0.0194,0.0303 0.0625,0.0313 0.18406,0.004 15.24798,-4.20507 15.4375,-4.3125 -0.018,0 -3.39056,0.92787 -7.5,2.0625 -4.10945,1.13464 -7.55537,2.06847 -7.65625,2.09375 -0.004,-0.004 -0.0188,0.005 -0.0313,0 -0.0339,-0.0136 -0.0676,-0.009 -0.0937,0 0.008,0.0113 0.0162,0.0331 0.0625,0.0313 l -0.125,0.0313 0.0625,-0.0625 0.0937,-0.15625 c 0.0124,0 0.0625,-0.0309 0.0937,-0.0625 l -0.1875,0.21875 0.21875,-0.0625 c 0.11964,-0.0236 3.54064,-0.9655 7.625,-2.09375 l 7.4375,-2.03125 c -4.5e-4,7e-4 4.5e-4,0.0313 0,0.0313 7.2e-4,-4.1e-4 0.0622,2.9e-4 0.0625,0 0.11728,-0.11762 0.11709,-2.46552 0,-2.5625 -0.0228,-0.0189 -0.11549,-0.0129 -0.28125,0 z"
               inkscape:connector-curvature="0"
               id="path4223"
               style="fill:#ff0000" />
            <path
               d="m -158.71875,34.78125 c -0.0582,-0.0581 -1.26055,0.0962 -1.75,0.21875 -1.39057,0.34821 -2.22653,1.17963 -2.71875,2.6875 -0.0883,0.2706 -0.15625,0.52922 -0.15625,0.59375 0,0.14672 0.0492,0.1509 0.59375,0 1.1339,-0.31422 2.02765,-0.84435 2.75,-1.59375 0.591,-0.61313 1.39414,-1.79336 1.28125,-1.90625 z"
               inkscape:connector-curvature="0"
               id="path4217"
               style="fill:#000000;fill-opacity:0.48235294" />
            <path
               d="m -154.3125,35.28125 c -0.74609,0.0464 -1.70767,0.27527 -2.3125,0.5625 -1.72595,0.81965 -2.74005,2.30725 -3.21875,4.65625 -0.28011,1.37454 -0.32735,2.12786 -0.34375,5.78125 -0.009,1.9059 -0.0377,3.47574 -0.0625,3.5 -0.0248,0.0243 -0.11474,-0.0356 -0.21875,-0.15625 -0.38961,-0.45189 -0.89025,-1.25754 -1.59375,-2.65625 -0.25913,-0.51521 -0.46831,-0.85723 -0.6875,-1.25 -0.11807,-0.21158 -0.2821,-0.59409 -0.34375,-0.6875 -0.38174,-0.57838 -1.08502,-1.30557 -1.5625,-1.625 -0.40834,-0.27318 -1.02423,-0.5 -1.4375,-0.5 -1.19363,0 -2.24584,1.09346 -2.5625,2.65625 -0.30433,1.50194 0.28778,2.7474 1.53125,3.21875 0.20356,0.0772 0.51917,0.11303 1.125,0.125 0.46161,0.009 0.88215,0.0347 0.90625,0.0625 0.0241,0.0278 0.12415,0.28676 0.21875,0.5625 0.27666,0.8066 0.94767,2.13079 1.96875,3.84375 1.0789,1.80996 1.76777,3.12788 2.0625,3.9375 0.316,0.86805 1.79843,6.59281 2,7.71875 0.17541,0.97978 0.2211,1.8742 0.125,2.34375 -0.0423,0.2068 -0.23588,0.79723 -0.4375,1.28125 -0.55938,1.34286 -0.6017,1.84609 -0.21875,2.90625 0.7618,2.10901 2.10163,3.5418 4.03125,4.34375 0.48816,0.20288 0.5702,0.21465 0.6875,-0.0625 0.26277,-0.62089 0.60257,-1.97118 0.71875,-2.90625 0.1902,-1.53079 0.0505,-2.61984 -0.75,-6.15625 -0.37037,-1.63618 -0.66131,-3.625 -0.53125,-3.625 0.0303,4e-5 0.27293,0.16386 0.53125,0.375 0.25832,0.21114 1.11333,0.89548 1.90625,1.5 2.06943,1.57771 2.32566,1.79139 4.6875,4.125 0.89253,0.88187 1.53763,1.47656 2.09375,1.96875 1.10601,0.97886 1.76727,1.40149 2.6875,1.71875 0.49581,0.17093 0.70061,0.21812 1.125,0.21875 1.03585,0.001 1.5078,-0.43173 1.5625,-1.4375 0.0386,-0.70995 -0.17809,-1.52704 -0.75,-2.6875 -0.55922,-1.13471 -1.00752,-1.72979 -1.875,-2.5625 -1.00951,-0.96905 -1.94617,-1.6547 -4.96875,-3.59375 -2.57335,-1.65086 -3.7205,-2.49793 -4.71875,-3.5 -1.31565,-1.32067 -1.8744,-2.41637 -1.9375,-3.84375 -0.052,-1.17505 0.2404,-1.92465 1,-2.6875 0.77881,-0.78214 1.63831,-1.21743 4.15625,-2.09375 2.66039,-0.92589 3.65245,-1.50761 4.09375,-2.40625 0.15358,-0.31278 0.15638,-0.41302 0.15625,-0.9375 -1.5e-4,-0.504 2.2e-4,-0.63626 -0.125,-0.875 -0.57961,-1.10501 -2.32402,-1.77065 -5.15625,-1.9375 l -0.71875,-0.0313 -2.40625,2.40625 c -1.32228,1.32063 -2.4176,2.36363 -2.4375,2.34375 -0.0199,-0.0199 0.55592,-3.10352 1.28125,-6.875 0.72532,-3.77148 1.34375,-6.90494 1.34375,-6.96875 0,-0.10758 -0.0584,-0.12901 -0.625,-0.0937 z"
               inkscape:connector-curvature="0"
               id="path4209"
               style="fill:#240000;fill-opacity:0.87843137" />
            <path
               d="m -149.21875,39.6875 0.0313,0.21875 c 0.0393,0.42143 0.26001,1.4193 0.4375,1.90625 0.56027,1.5371 1.53229,2.47801 3.125,3 0.37851,0.12405 0.55235,0.13425 0.59375,0.0625 0.0592,-0.10259 -0.0952,-1.5674 -0.21875,-2.09375 -0.36618,-1.55971 -1.30385,-2.50075 -2.90625,-2.90625 -0.31261,-0.0791 -0.67463,-0.14414 -0.8125,-0.15625 l -0.25,-0.0313 z"
               inkscape:connector-curvature="0"
               id="path4147"
               style="fill:#000000;fill-opacity:0.48235294" />
            <path
               d="m -170.96875,46.1875 c -0.0657,0.0256 -0.0832,0.0863 -0.125,0.1875 -0.113,0.27347 -0.28125,1.31522 -0.28125,1.71875 0,1.06126 0.48448,1.93942 1.40625,2.5625 0.35695,0.24128 0.40825,0.24638 0.40625,0.0937 -0.003,-0.27215 -0.49595,-4.44289 -0.53125,-4.5 -0.0218,-0.0353 -0.22776,-0.0625 -0.46875,-0.0625 -0.21767,0 -0.34053,-0.0256 -0.40625,0 z"
               inkscape:connector-curvature="0"
               id="path4099"
               style="fill:#000000;fill-opacity:0.48235294" />
            <path
               d="m -137.53125,59.96875 c -0.10793,0 -0.67024,0.57495 -0.9375,0.96875 -0.73699,1.08592 -1.31161,2.70207 -1.65625,4.6875 -0.12234,0.70458 -0.123,1.03352 -0.125,2.5625 -0.002,1.93275 0.0407,2.37028 0.40625,3.46875 0.40281,1.2105 1.07121,2.01725 1.875,2.3125 0.12882,0.0473 0.35892,0.0921 0.53125,0.0937 1.00909,0.01 1.94317,-1.11018 2.375,-2.8125 0.36712,-1.44725 0.0929,-2.66498 -1.25,-5.5 -0.85945,-1.81446 -1.08414,-2.53028 -1.21875,-3.625 -0.0651,-0.52951 -0.0674,-1.05469 0.0313,-1.84375 0.0276,-0.22108 0.0147,-0.3125 -0.0313,-0.3125 z"
               inkscape:connector-curvature="0"
               id="path4027"
               style="fill:#000000;fill-opacity:0.48235294" />
            <path
               d="m -162.78125,71.875 c -0.0841,0 -0.0793,0.17879 0.0625,0.875 0.23134,1.13559 0.6423,1.81908 1.40625,2.21875 0.46923,0.24548 0.7653,0.31765 1.46875,0.4375 0.2585,0.044 0.50435,0.0902 0.53125,0.0937 0.1836,0.0241 0.0365,-0.71138 -0.28125,-1.375 -0.29389,-0.61387 -0.99444,-1.28547 -1.71875,-1.65625 -0.52708,-0.26981 -1.34388,-0.59375 -1.46875,-0.59375 z"
               inkscape:connector-curvature="0"
               id="path3937"
               style="fill:#000000;fill-opacity:0.48235294" />
            <path
               d="m -129.25284,25.510799 c 0,0 1.39127,-0.970054 2.64875,-0.918954 1.46564,0.05956 2.43253,1.351403 2.43253,1.351403 -3.24337,2.000077 -5.08128,-0.432449 -5.08128,-0.432449 z"
               inkscape:connector-curvature="0"
               id="path4343"
               style="fill:#ff0000;fill-opacity:1;stroke:none" />
          </g>
        </g>
        <g
           transform="translate(182.1875,996.76843)"
           id="layer5"
           style="display:inline">
          <rect
             width="66"
             height="66"
             rx="12"
             ry="12"
             x="15"
             y="15"
             clip-path="url(#clipPath3613-82)"
             id="rect3171"
             style="opacity:0.1;fill:url(#linearGradient3188-69);fill-opacity:1;fill-rule:nonzero;stroke:#ffffff;stroke-width:0.5;stroke-linecap:round;stroke-linejoin:miter;stroke-miterlimit:4;stroke-opacity:1;stroke-dasharray:none;stroke-dashoffset:0;filter:url(#filter3794-58)" />
        </g>
      </g>
    </g>
  </g>
</svg>
