<?xml version="1.0" encoding="UTF-8" standalone="no"?>
<!-- Created with Inkscape (http://www.inkscape.org/) -->

<svg
   xmlns:dc="http://purl.org/dc/elements/1.1/"
   xmlns:cc="http://creativecommons.org/ns#"
   xmlns:rdf="http://www.w3.org/1999/02/22-rdf-syntax-ns#"
   xmlns:svg="http://www.w3.org/2000/svg"
   xmlns="http://www.w3.org/2000/svg"
   xmlns:xlink="http://www.w3.org/1999/xlink"
   xmlns:sodipodi="http://sodipodi.sourceforge.net/DTD/sodipodi-0.dtd"
   xmlns:inkscape="http://www.inkscape.org/namespaces/inkscape"
   width="96"
   height="96"
   id="svg2"
   version="1.1"
   inkscape:version="0.48.1 r9760"
   sodipodi:docname="bluefish.svg">
  <defs
     id="defs4">
    <filter
       color-interpolation-filters="sRGB"
       inkscape:collect="always"
       id="filter6279">
      <feGaussianBlur
         inkscape:collect="always"
         stdDeviation="0.8"
         id="feGaussianBlur6281" />
    </filter>
    <linearGradient
       inkscape:collect="always"
       xlink:href="#linearGradient4206"
       id="linearGradient5801"
       gradientUnits="userSpaceOnUse"
       gradientTransform="translate(0,-7.8515622e-6)"
       x1="48"
       y1="1052.3622"
       x2="48"
       y2="902.36218" />
    <linearGradient
       id="linearGradient4206"
       y2="5.9877"
       gradientUnits="userSpaceOnUse"
       x2="48"
       y1="90"
       x1="48">
      <stop
         id="stop4086"
         style="stop-color:#537d6b"
         offset="0" />
      <stop
         id="stop4088"
         style="stop-color:#92bbaa"
         offset="1" />
    </linearGradient>
    <radialGradient
       inkscape:collect="always"
       xlink:href="#linearGradient556"
       id="radialGradient5826"
       gradientUnits="userSpaceOnUse"
       gradientTransform="scale(0.88763,1.1266)"
       cx="24.218"
       cy="13.492"
       r="10.214" />
    <linearGradient
       id="linearGradient556">
      <stop
         id="stop557"
         style="stop-color:#fff"
         offset="0" />
      <stop
         id="stop558"
         style="stop-color:#8f8f8f"
         offset="1" />
    </linearGradient>
    <radialGradient
       inkscape:collect="always"
       xlink:href="#linearGradient561"
       id="radialGradient5828"
       gradientUnits="userSpaceOnUse"
       gradientTransform="scale(1.0613,0.94223)"
       cx="31.638"
       cy="4.2912002"
       r="6.1138" />
    <linearGradient
       id="linearGradient561">
      <stop
         id="stop562"
         style="stop-color:#72a6db"
         offset="0" />
      <stop
         id="stop563"
         style="stop-color:#4974aa"
         offset="1" />
    </linearGradient>
    <linearGradient
       inkscape:collect="always"
       xlink:href="#linearGradient561"
       id="linearGradient5830"
       gradientUnits="userSpaceOnUse"
       gradientTransform="scale(0.57791,1.7304)"
       x1="66.897003"
       y1="9.7093"
       x2="68.417"
       y2="18.198999" />
    <linearGradient
       id="linearGradient5751">
      <stop
         id="stop5753"
         style="stop-color:#72a6db"
         offset="0" />
      <stop
         id="stop5755"
         style="stop-color:#4974aa"
         offset="1" />
    </linearGradient>
    <linearGradient
       inkscape:collect="always"
       xlink:href="#linearGradient635"
       id="linearGradient5832"
       gradientUnits="userSpaceOnUse"
       gradientTransform="scale(0.65313,1.5311)"
       x1="42.007999"
       y1="5.4559999"
       x2="56.889"
       y2="14.642" />
    <linearGradient
       id="linearGradient635">
      <stop
         id="stop636"
         style="stop-color:#fff"
         offset="0" />
      <stop
         id="stop637"
         style="stop-color:#fff;stop-opacity:.17647"
         offset="1" />
    </linearGradient>
    <radialGradient
       inkscape:collect="always"
       xlink:href="#radialGradient4066"
       id="radialGradient5834"
       gradientUnits="userSpaceOnUse"
       gradientTransform="scale(0.99284,1.0072)"
       cx="15.486"
       cy="16.135"
       r="27.532" />
    <radialGradient
       id="radialGradient4066"
       gradientUnits="userSpaceOnUse"
       cy="16.135"
       cx="15.486"
       gradientTransform="scale(0.99284,1.0072)"
       r="27.532">
      <stop
         id="stop565"
         style="stop-color:#3278c6"
         offset="0" />
      <stop
         id="stop566"
         style="stop-color:#264980"
         offset="1" />
    </radialGradient>
    <linearGradient
       inkscape:collect="always"
       xlink:href="#linearGradient4068"
       id="linearGradient5836"
       gradientUnits="userSpaceOnUse"
       gradientTransform="scale(0.99284,1.0072)"
       x1="40.971001"
       y1="41.884998"
       x2="23.981001"
       y2="21.709" />
    <linearGradient
       id="linearGradient4068"
       y2="21.709"
       gradientUnits="userSpaceOnUse"
       x2="23.981001"
       gradientTransform="scale(0.99284,1.0072)"
       y1="41.884998"
       x1="40.971001">
      <stop
         id="stop605"
         style="stop-opacity:.23922"
         offset="0" />
      <stop
         id="stop606"
         style="stop-opacity:0"
         offset="1" />
    </linearGradient>
    <radialGradient
       inkscape:collect="always"
       xlink:href="#linearGradient561"
       id="radialGradient5838"
       gradientUnits="userSpaceOnUse"
       gradientTransform="scale(1.122,0.89128)"
       cx="56.924999"
       cy="25.591"
       r="5.3431001" />
    <linearGradient
       id="linearGradient5770">
      <stop
         id="stop5772"
         style="stop-color:#72a6db"
         offset="0" />
      <stop
         id="stop5774"
         style="stop-color:#4974aa"
         offset="1" />
    </linearGradient>
    <linearGradient
       inkscape:collect="always"
       xlink:href="#linearGradient635"
       id="linearGradient5840"
       gradientUnits="userSpaceOnUse"
       gradientTransform="scale(0.95998,1.0417)"
       x1="25.033001"
       y1="15.336"
       x2="25.337999"
       y2="24.687" />
    <linearGradient
       id="linearGradient5777">
      <stop
         id="stop5779"
         style="stop-color:#fff"
         offset="0" />
      <stop
         id="stop5781"
         style="stop-color:#fff;stop-opacity:.17647"
         offset="1" />
    </linearGradient>
    <linearGradient
       inkscape:collect="always"
       xlink:href="#linearGradient556"
       id="linearGradient5842"
       gradientUnits="userSpaceOnUse"
       gradientTransform="scale(0.88763,1.1266)"
       x1="27.607"
       y1="16.386999"
       x2="28.115"
       y2="24.093" />
    <linearGradient
       id="linearGradient5784">
      <stop
         id="stop5786"
         style="stop-color:#fff"
         offset="0" />
      <stop
         id="stop5788"
         style="stop-color:#8f8f8f"
         offset="1" />
    </linearGradient>
    <radialGradient
       inkscape:collect="always"
       xlink:href="#linearGradient561"
       id="radialGradient5844"
       gradientUnits="userSpaceOnUse"
       gradientTransform="scale(1.0404,0.96117)"
       cx="32.368999"
       cy="3.3555"
       r="6.0570002" />
    <linearGradient
       id="linearGradient5791">
      <stop
         id="stop5793"
         style="stop-color:#72a6db"
         offset="0" />
      <stop
         id="stop5795"
         style="stop-color:#4974aa"
         offset="1" />
    </linearGradient>
    <linearGradient
       inkscape:collect="always"
       xlink:href="#linearGradient561"
       id="linearGradient5846"
       gradientUnits="userSpaceOnUse"
       gradientTransform="scale(1.5175,0.65899)"
       x1="36.830002"
       y1="47.909"
       x2="37.259998"
       y2="54.863998" />
    <linearGradient
       id="linearGradient5798">
      <stop
         id="stop5800"
         style="stop-color:#72a6db"
         offset="0" />
      <stop
         id="stop5802"
         style="stop-color:#4974aa"
         offset="1" />
    </linearGradient>
    <linearGradient
       inkscape:collect="always"
       xlink:href="#linearGradient4080"
       id="linearGradient5848"
       gradientUnits="userSpaceOnUse"
       gradientTransform="scale(1.8472,0.54137)"
       x1="29.954"
       y1="68.696999"
       x2="30.472"
       y2="63.223999" />
    <linearGradient
       id="linearGradient4080"
       y2="63.223999"
       gradientUnits="userSpaceOnUse"
       x2="30.472"
       gradientTransform="scale(1.8472,0.54137)"
       y1="68.696999"
       x1="29.954">
      <stop
         id="stop642"
         style="stop-opacity:.41569"
         offset="0" />
      <stop
         id="stop643"
         style="stop-opacity:0"
         offset="1" />
    </linearGradient>
    <linearGradient
       inkscape:collect="always"
       xlink:href="#linearGradient561"
       id="linearGradient5850"
       gradientUnits="userSpaceOnUse"
       gradientTransform="scale(1.9257,0.5193)"
       x1="29.049"
       y1="63.282001"
       x2="29.396"
       y2="68.898003" />
    <linearGradient
       id="linearGradient5809">
      <stop
         id="stop5811"
         style="stop-color:#72a6db"
         offset="0" />
      <stop
         id="stop5813"
         style="stop-color:#4974aa"
         offset="1" />
    </linearGradient>
    <linearGradient
       y2="138.66"
       x2="48"
       y1="20.221001"
       x1="48"
       gradientUnits="userSpaceOnUse"
       id="linearGradient3272"
       xlink:href="#linearGradient3737-047"
       inkscape:collect="always" />
    <linearGradient
       id="linearGradient3737-047">
      <stop
         id="stop3739-689"
         style="stop-color:#fff"
         offset="0" />
      <stop
         id="stop3741-06"
         style="stop-color:#fff;stop-opacity:0"
         offset="1" />
    </linearGradient>
    <clipPath
       id="clipPath3613-87">
      <rect
         id="rect3615-9"
         style="fill:#ffffff"
         rx="6"
         ry="6"
         height="84"
         width="84"
         y="6"
         x="6" />
    </clipPath>
    <filter
       id="filter3794-03"
       height="1.3839999"
       width="1.3839999"
       color-interpolation-filters="sRGB"
       y="-0.192"
       x="-0.192">
      <feGaussianBlur
         id="feGaussianBlur3796-33"
         stdDeviation="5.28" />
    </filter>
  </defs>
  <sodipodi:namedview
     id="base"
     pagecolor="#ffffff"
     bordercolor="#666666"
     borderopacity="1.0"
     inkscape:pageopacity="0.0"
     inkscape:pageshadow="2"
     inkscape:zoom="3.959798"
     inkscape:cx="28.389459"
     inkscape:cy="57.490015"
     inkscape:document-units="px"
     inkscape:current-layer="layer1"
     showgrid="false"
     inkscape:window-width="1280"
     inkscape:window-height="725"
     inkscape:window-x="0"
     inkscape:window-y="25"
     inkscape:window-maximized="1" />
  <metadata
     id="metadata7">
    <rdf:RDF>
      <cc:Work
         rdf:about="">
        <dc:format>image/svg+xml</dc:format>
        <dc:type
           rdf:resource="http://purl.org/dc/dcmitype/StillImage" />
        <dc:title></dc:title>
      </cc:Work>
    </rdf:RDF>
  </metadata>
  <g
     inkscape:label="Layer 1"
     inkscape:groupmode="layer"
     id="layer1"
     transform="translate(0,-956.36217)">
    <g
       transform="translate(0,-1e-5)"
       id="g6664">
      <rect
         transform="translate(0,-7.8515622e-6)"
         y="964.36218"
         x="8"
         height="80"
         width="80"
         id="rect9283"
         style="fill:#000000;fill-opacity:1;stroke:none;filter:url(#filter6279)"
         rx="5"
         ry="5" />
      <rect
         ry="5"
         rx="5"
         style="fill:url(#linearGradient5801);fill-opacity:1;stroke:none"
         id="rect9285"
         width="80"
         height="80"
         x="8"
         y="964.36218" />
      <g
         id="g2335"
         transform="matrix(1.3839577,0,0,1.3839577,-41.249264,880.43563)">
        <path
           inkscape:connector-curvature="0"
           id="path617"
           style="fill:url(#radialGradient5826);fill-rule:evenodd"
           d="m 30.267,20.252 a 5.6615,7.1857269 0 1 1 -11.323,0 5.6615,7.1857269 0 1 1 11.323,0 z"
           transform="translate(25.684,64.782)" />
        <path
           inkscape:connector-curvature="0"
           id="path618"
           style="fill:url(#radialGradient5828);fill-rule:evenodd;stroke-width:1pt"
           transform="translate(15.858,74.436)"
           d="m 40.968,10.542 c 0,3.3396 -6.81,-5.8722 -12.1,-2.7657 0,-3.3396 3.0212,-7.2688 7.344,-7.2688 5.5328,0.17288 4.7562,6.6949 4.7562,10.034 z" />
        <path
           inkscape:connector-curvature="0"
           id="path619"
           style="fill:url(#linearGradient5830);fill-rule:evenodd"
           transform="translate(40,65)"
           d="m 34.713,23.554 c -0.0815,-3.9113 0.8148,-8.1894 2.689,-12.467 1.3038,-2.3224 2.9743,-4.278 6.4782,-5.1336 -2.6891,4.6855 -1.589,8.6376 -2.0779,13.201 -0.8149,1.9149 -1.5075,3.2189 -1.8335,6.2338 0.1223,5.6633 1.9557,7.0487 4.4003,9.2895 -3.2187,0.8964 -5.4595,-1.3853 -7.3337,-2.689 -0.9779,-3.3817 -1.3446,-5.0522 -2.3224,-8.434 z" />
        <g
           id="g595"
           transform="matrix(0.71859,0,0,0.71858,2.1673,69.947)">
          <path
             inkscape:connector-curvature="0"
             id="path596"
             style="fill-rule:evenodd"
             d="m 64.476,21.173 a 2.0743,2.1607 0 1 1 -4.1486,0 2.0743,2.1607 0 1 1 4.1486,0 z"
             transform="translate(0,-0.12225)" />
          <path
             inkscape:connector-curvature="0"
             id="path597"
             style="fill:#808080;fill-rule:evenodd"
             d="m 63.958,20.395 a 0.77786,1.0372 0 1 1 -1.5557,0 0.77786,1.0372 0 1 1 1.5557,0 z" />
        </g>
        <path
           inkscape:connector-curvature="0"
           id="path630"
           style="fill:url(#linearGradient5832);fill-opacity:0.47183;fill-rule:evenodd"
           transform="translate(40,65)"
           d="m 35.691,19.887 c 1.263,-5.9486 1.5483,-6.7634 2.3224,-8.6783 0.8555,-1.589 1.3445,-2.9335 5.1336,-4.7669 -2.0372,1.7112 -3.0965,3.6668 -3.9113,6.2337 -0.4075,2.1186 -1.1816,4.2373 -0.7334,11.245 -0.6519,-1.0593 -2.1594,-2.9743 -2.8113,-4.0336 z" />
        <path
           inkscape:connector-curvature="0"
           id="path615"
           style="fill:url(#radialGradient5834);fill-rule:evenodd;stroke-width:1pt"
           transform="translate(40,65)"
           d="M 39.358,25.754 C 39.114,31.71 29.469,43.111 20.657,42.989 12.578,42.866 5.623,35.01 5.623,25.632 5.6226,16.254 11.722,9.009 20.535,8.764 29.958,8.8865 39.48,21.998 39.358,25.754 z" />
        <path
           inkscape:connector-curvature="0"
           id="path599"
           style="fill:url(#linearGradient5836);fill-rule:evenodd;stroke-width:1pt"
           transform="translate(40,65)"
           d="M 39.358,25.754 C 39.114,31.71 29.469,43.111 20.657,42.989 12.578,42.866 5.623,35.01 5.623,25.632 5.6226,16.254 11.722,9.009 20.535,8.764 29.958,8.8865 39.48,21.998 39.358,25.754 z" />
        <path
           inkscape:connector-curvature="0"
           id="path632"
           style="fill-opacity:0.19718;fill-rule:evenodd;stroke-width:1pt"
           transform="translate(40,65)"
           d="m 30.557,20.498 c 2.0779,3.1331 1.3797,5.7609 0.2514,7.5749 -1.1283,1.8142 -4.2791,2.7994 -5.9962,2.6924 -6.0078,-0.3667 -5.1336,-3.0235 -5.1336,-8.5562 0,-5.5326 3.6483,-10.878 7.0893,-10.878 2.5854,0.6112 3.7891,3.6347 3.7891,9.1673 z" />
        <path
           inkscape:connector-curvature="0"
           id="path624"
           style="fill:url(#radialGradient5838);fill-rule:evenodd"
           d="m 72.36,25.082 a 6.5395,5.1948589 0 1 1 -13.079,0 6.5395,5.1948589 0 1 1 13.079,0 z"
           transform="matrix(0.95249,0,0,1.1466,1.8795,60.007)" />
        <path
           inkscape:connector-curvature="0"
           id="path633"
           style="fill:url(#linearGradient5840);fill-rule:evenodd"
           d="m 30.069,22.209 a 5.745,6.233917 0 1 1 -11.49,0 5.745,6.233917 0 1 1 11.49,0 z"
           transform="matrix(1,0,0,0.93264,39.878,66.198)" />
        <path
           inkscape:connector-curvature="0"
           id="path552"
           style="fill:url(#linearGradient5842);fill-rule:evenodd"
           d="m 30.267,20.252 a 5.6615,7.1857269 0 1 1 -11.323,0 5.6615,7.1857269 0 1 1 11.323,0 z"
           transform="matrix(1.0324,0,0,1.0595,38.516,63.149)" />
        <path
           inkscape:connector-curvature="0"
           id="path600"
           style="fill:url(#radialGradient5844);fill-rule:evenodd;stroke-width:1pt"
           transform="translate(28.937,74.68)"
           d="M 40.89,10.542 C 39.913,9.6629 36.936,4.787 29.102,7.7454 c 0,-3.3396 1.32,-8.0934 5.6428,-8.0934 5.5328,0.17288 6.1449,7.5504 6.1449,10.89 z" />
        <g
           id="g611"
           transform="matrix(0.71859,0,0,0.71858,21.479,70.386)">
          <path
             inkscape:connector-curvature="0"
             id="path604"
             style="fill-rule:evenodd"
             d="m 64.476,21.173 a 2.0743,2.1607 0 1 1 -4.1486,0 2.0743,2.1607 0 1 1 4.1486,0 z"
             transform="translate(0,-0.12225)" />
          <path
             inkscape:connector-curvature="0"
             id="path605"
             style="fill:#808080;fill-rule:evenodd"
             d="m 63.958,20.395 a 0.77786,1.0372 0 1 1 -1.5557,0 0.77786,1.0372 0 1 1 1.5557,0 z" />
        </g>
        <path
           inkscape:connector-curvature="0"
           id="path623"
           style="fill:url(#linearGradient5846);fill-rule:evenodd"
           transform="translate(-1.1915,67.2)"
           d="m 47.792,31.621 c 0.2038,0.8556 6.2745,3.4224 15.89,-0.2445 0.387,-0.0408 2.2985,-2.1103 2.2908,-1.7026 -0.0187,1.1104 -0.8848,2.5877 -2.0123,3.8196 -2.404,2.9334 -6.5529,4.7278 -11.279,4.239 -2.2816,-0.2037 -4.0423,-1.3851 -5.1016,-3.178 -0.9051,-1.6907 -0.3172,-1.9963 0.2124,-2.9335 z" />
        <path
           inkscape:connector-curvature="0"
           id="path631"
           style="fill:url(#linearGradient5848);fill-rule:evenodd"
           transform="translate(-1.6541,65.384)"
           d="m 48.158,31.621 c 0.2038,0.8556 5.9078,3.7891 15.523,0.1222 1.2892,-0.662 2.1738,-0.0872 0.8556,1.9556 -2.4039,2.4446 -9.6969,3.4225 -11.978,3.0558 -2.2816,-0.2037 -5.0521,-1.0186 -5.5003,-2.4446 -0.3391,-1.2267 0.0815,-1.9963 1.1,-2.689 z" />
        <path
           inkscape:connector-curvature="0"
           id="path621"
           style="fill:url(#linearGradient5850);fill-rule:evenodd"
           transform="translate(-1.5582,65)"
           d="m 48.158,31.621 c 0.2038,0.8556 5.5953,4.9609 15.836,0.9816 0.6836,-0.2919 1.9301,-0.8606 2.1868,-0.8178 0.3767,0.0741 -0.4768,0.9707 -1.4874,1.9922 -2.4039,2.4445 -9.8532,3.3443 -12.135,2.9776 -2.2816,-0.2037 -5.0521,-1.0186 -5.5003,-2.4446 -0.3391,-1.2267 0.0815,-1.9963 1.1,-2.689 z" />
      </g>
      <g
         id="layer5"
         transform="translate(0,956.36218)">
        <rect
           x="15"
           y="15"
           width="66"
           height="66"
           ry="12"
           rx="12"
           clip-path="url(#clipPath3613-87)"
           style="opacity:0.1;fill:url(#linearGradient3272);stroke:#ffffff;stroke-width:0.5;stroke-linecap:round;filter:url(#filter3794-03)"
           id="rect3171" />
      </g>
    </g>
  </g>
</svg>
