<?xml version="1.0" encoding="UTF-8" standalone="no"?>
<!-- Created with Inkscape (http://www.inkscape.org/) -->
<svg id="svg2" xmlns:rdf="http://www.w3.org/1999/02/22-rdf-syntax-ns#" xmlns="http://www.w3.org/2000/svg" height="96" width="96" version="1.1" xmlns:cc="http://creativecommons.org/ns#" xmlns:xlink="http://www.w3.org/1999/xlink" xmlns:dc="http://purl.org/dc/elements/1.1/">
 <defs id="defs4">
  <filter id="filter6279" color-interpolation-filters="sRGB">
   <feGaussianBlur id="feGaussianBlur6281" stdDeviation="0.8"/>
  </filter>
  <linearGradient id="linearGradient5709" y2="902.36" gradientUnits="userSpaceOnUse" x2="48" gradientTransform="translate(0 -.0000078516)" y1="1052.4" x1="48">
   <stop id="stop3702-048" style="stop-color:#553025" offset="0"/>
   <stop id="stop3704-88" style="stop-color:#a55033" offset="1"/>
  </linearGradient>
  <linearGradient id="linearGradient5839" y2="138.66" gradientUnits="userSpaceOnUse" x2="48" y1="20.221" x1="48">
   <stop id="stop3739-40" style="stop-color:#fff" offset="0"/>
   <stop id="stop3741-04" style="stop-color:#fff;stop-opacity:0" offset="1"/>
  </linearGradient>
  <clipPath id="clipPath3613-62">
   <rect id="rect3615-67" style="fill:#fff" rx="6" ry="6" height="84" width="84" y="6" x="6"/>
  </clipPath>
  <filter id="filter3794-5" height="1.384" width="1.384" color-interpolation-filters="sRGB" y="-.192" x="-.192">
   <feGaussianBlur id="feGaussianBlur3796-69" stdDeviation="5.28"/>
  </filter>
  <linearGradient id="linearGradient5724" y2="12.541" gradientUnits="userSpaceOnUse" x2="47.264" gradientTransform="matrix(.78562 0 0 .78562 101.54 933.19)" y1="77.865" x1="47.264">
   <stop id="stop3714-2" style="stop-color:#e7cf93" offset="0"/>
   <stop id="stop3716-1" style="stop-color:#fefef4" offset="1"/>
  </linearGradient>
 </defs>
 <metadata id="metadata7">
  <rdf:RDF>
   <cc:Work rdf:about="">
    <dc:format>image/svg+xml</dc:format>
    <dc:type rdf:resource="http://purl.org/dc/dcmitype/StillImage"/>
    <dc:title/>
   </cc:Work>
  </rdf:RDF>
 </metadata>
 <g id="layer1" transform="translate(0 -956.36)">
  <g id="g5712" transform="translate(0,-1e-5)">
   <rect id="rect9283" ry="5" style="filter:url(#filter6279)" rx="5" transform="translate(0 -.0000078516)" height="80" width="80" y="964.36" x="8"/>
   <rect id="rect9285" style="fill:url(#linearGradient5709)" rx="5" ry="5" height="80" width="80" y="964.36" x="8"/>
   <g id="layer5" transform="translate(0 956.36)">
    <rect id="rect3171" style="opacity:.1;filter:url(#filter3794-5);stroke:#fff;stroke-linecap:round;stroke-width:.5;fill:url(#linearGradient5839)" clip-path="url(#clipPath3613-62)" rx="12" ry="12" height="66" width="66" y="15" x="15"/>
   </g>
   <g id="g5716" transform="translate(-91.35 35.1)">
    <path id="path3720" d="m140.99 944.17c-3.2736 5.4845-4.2988 8.146-3.1179 11.637 1.0705 3.1644 3.8954 4.8589 2.5042 12.177 2.2847-3.5656 4.0037-8.205 2.2095-11.858-1.8248-3.7153-2.7432-5.902-1.5958-11.956zm6.4077 2.3814c-2.2647 3.3496-2.8031 5.2658-1.7922 7.6107 1.0294 2.3876 2.187 2.708 0.83472 6.1867 2.4949-2.8136 2.6235-4.6442 1.5958-6.825-1.0484-2.2247-2.1324-3.0419-0.63831-6.9724zm-12.889 4.1245c-2.0547 3.5286-2.694 5.24-1.9149 7.4634 0.70622 2.0155 2.5081 3.0702 1.6694 7.758 2.5738-3.2472 2.4899-5.5557 1.3503-7.6107-1.111-2.0034-1.7964-3.7326-1.1048-7.6107zm-10.974 19.444v6.2849c0 6.9637 2.8031 12.57 6.2849 12.57h18.855c2.9378 0 5.3932-3.9972 6.0885-9.4274h4.9101c1.3057 0 2.3568-1.0512 2.3568-2.3568v-4.7137c0-1.3057-1.0512-2.3568-2.3568-2.3568h-4.7137-31.425zm3.1179 1.5467h1.5958v4.7382c0.0406 3.5053-0.42636 9.0382 3.1425 11.023h-1.1784c-3.62-1.7066-3.2652-7.6907-3.5598-11.023v-4.7382zm28.307 0.81017h3.2407c0.81606 0 1.473 0.65697 1.473 1.473v1.964c0 0.81606-0.65697 1.473-1.473 1.473h-3.2652c0.0127-0.32808 0.0246-0.64719 0.0246-0.98202v-3.9281zm-40.86 18.07c0 2.6114 5.6062 4.7137 12.57 4.7137h25.14c6.9637 0 12.57-2.1023 12.57-4.7137h-50.279z" style="opacity:.3;color:#000000;fill:#280b0b"/>
    <path id="rect3675" d="m140.99 943.38c-3.2736 5.4844-4.2988 8.146-3.1179 11.637 1.0705 3.1644 3.8954 4.8589 2.5042 12.177 2.2847-3.5656 4.0037-8.205 2.2095-11.858-1.8248-3.7153-2.7432-5.902-1.5958-11.956zm6.4077 2.3814c-2.2647 3.3496-2.8031 5.2658-1.7922 7.6107 1.0294 2.3876 2.187 2.708 0.83472 6.1867 2.4949-2.8136 2.6235-4.6442 1.5958-6.825-1.0484-2.2247-2.1324-3.0419-0.63831-6.9724zm-12.889 4.1245c-2.0547 3.5286-2.694 5.24-1.9149 7.4634 0.70622 2.0155 2.5081 3.0702 1.6694 7.758 2.5738-3.2472 2.4899-5.5557 1.3503-7.6107-1.111-2.0034-1.7964-3.7326-1.1048-7.6107zm-10.974 19.444v6.2849c0 6.9637 2.8031 12.57 6.2849 12.57h18.855c2.9378 0 5.3932-3.9972 6.0885-9.4274h4.9101c1.3057 0 2.3568-1.0512 2.3568-2.3568v-4.7137c0-1.3057-1.0512-2.3568-2.3568-2.3568h-4.7137-31.425zm3.1179 1.5467h1.5958v4.7382c0.0406 3.5053-0.42636 9.0382 3.1425 11.023h-1.1784c-3.62-1.7066-3.2652-7.6907-3.5598-11.023v-4.7382zm28.307 0.81017h3.2407c0.81606 0 1.473 0.65697 1.473 1.473v1.964c0 0.81606-0.65697 1.473-1.473 1.473h-3.2652c0.0127-0.32808 0.0246-0.64719 0.0246-0.98202v-3.9281zm-40.852 18.069c0 2.6114 5.6062 4.7137 12.57 4.7137h25.14c6.9637 0 12.57-2.1023 12.57-4.7137h-50.279z" style="color:#000000;fill:url(#linearGradient5724)"/>
    <path id="path3738" d="m140.99 943.38c-2.4945 4.1792-3.6822 6.7141-3.5844 9.231 0.1481-2.2118 1.2963-4.5807 3.4125-8.1508 0.0568-0.35677 0.0985-0.69327 0.17185-1.0802zm6.4077 2.3814c-1.6819 2.4876-2.4085 4.1739-2.2586 5.843 0.0957-1.2424 0.68848-2.5708 1.7676-4.2718 0.11722-0.47096 0.26294-0.97127 0.49101-1.5712zm-6.9232 2.7006c-0.0578 3.1017 0.7981 4.986 2.1113 7.6598 0.44496 0.90593 0.67876 1.8766 0.73652 2.8724 0.0355-1.2713-0.17584-2.5165-0.73652-3.658-1.1994-2.442-2.0243-4.2206-2.1113-6.8741zm6.2113 0.81016c-0.16244 1.7915 0.6032 2.662 1.3503 4.2472 0.31303 0.66422 0.50036 1.3026 0.56466 1.9395 0.0816-0.9138-0.12292-1.7878-0.56466-2.7251-0.62654-1.3295-1.2561-2.1727-1.3503-3.4616zm-12.177 0.61377c-1.621 2.7838-2.3519 4.4476-2.2095 6.1131 0.10623-1.3702 0.79551-2.86 2.0622-5.0574 0.0422-0.33995 0.0798-0.677 0.1473-1.0557zm-0.2455 3.1179c-0.0893 2.3403 0.4914 3.7297 1.3503 5.2784 0.40286 0.72642 0.66827 1.4877 0.73651 2.3078 0.0856-1.1307-0.20787-2.1401-0.73651-3.0934-0.7572-1.3653-1.2896-2.6151-1.3503-4.4928zm12.766 4.3946c-0.0579 0.57054-0.23629 1.2525-0.58921 2.1604 0.15368-0.1733 0.28135-0.32485 0.41736-0.49101 0.18034-0.68947 0.22665-1.2099 0.17185-1.6694zm-12.57 5.843c-0.0198 0.55383-0.071 1.1649-0.1964 1.8658 0.0547-0.069 0.095-0.12827 0.1473-0.1964 0.0699-0.62713 0.0732-1.1755 0.0491-1.6694zm6.2849 0.81017c-0.0288 0.92392-0.14177 1.951-0.36826 3.1425 0.0628-0.098 0.13451-0.19499 0.1964-0.2946 0.154-1.0732 0.1912-2.0116 0.17186-2.8479zm-17.21 5.2784v0.78562h31.425 4.7137c1.3057 0 2.3568 1.0512 2.3568 2.3568v-0.78562c0-1.3057-1.0512-2.3568-2.3568-2.3568h-4.7137-31.425zm36.138 5.7939c0 0.81606-0.65697 1.473-1.473 1.473h-3.2407c-0.003 0.26367-0.0144 0.52312-0.0246 0.78562h3.2652c0.81606 0 1.473-0.65697 1.473-1.473v-0.78562zm-33.02 0.49101v0.78562c0.29462 3.3325-0.0601 9.3166 3.5598 11.023h1.1784c-0.39312-0.21865-0.72988-0.48833-1.0311-0.78562h-0.1473c-3.62-1.7066-3.2652-7.6907-3.5598-11.023zm-12.545 14.141c0 0.26512 0.0607 0.53265 0.17185 0.78561h49.936c0.11112-0.25296 0.17185-0.52049 0.17185-0.78561h-50.279z" style="color:#000000;fill:#fff"/>
   </g>
  </g>
 </g>
</svg>
