<?xml version="1.0" encoding="UTF-8" standalone="no"?>
<!-- Created with Inkscape (http://www.inkscape.org/) -->

<svg
   xmlns:dc="http://purl.org/dc/elements/1.1/"
   xmlns:cc="http://creativecommons.org/ns#"
   xmlns:rdf="http://www.w3.org/1999/02/22-rdf-syntax-ns#"
   xmlns:svg="http://www.w3.org/2000/svg"
   xmlns="http://www.w3.org/2000/svg"
   xmlns:xlink="http://www.w3.org/1999/xlink"
   xmlns:sodipodi="http://sodipodi.sourceforge.net/DTD/sodipodi-0.dtd"
   xmlns:inkscape="http://www.inkscape.org/namespaces/inkscape"
   width="96"
   height="96"
   id="svg2"
   version="1.1"
   inkscape:version="0.48.1 r9760"
   sodipodi:docname="caffeine.svg">
  <defs
     id="defs4">
    <filter
       color-interpolation-filters="sRGB"
       inkscape:collect="always"
       id="filter6279">
      <feGaussianBlur
         inkscape:collect="always"
         stdDeviation="0.8"
         id="feGaussianBlur6281" />
    </filter>
    <linearGradient
       inkscape:collect="always"
       xlink:href="#linearGradient3700-6"
       id="linearGradient5709"
       gradientUnits="userSpaceOnUse"
       gradientTransform="translate(0,-7.8515622e-6)"
       x1="48"
       y1="1052.3622"
       x2="48"
       y2="902.36218" />
    <linearGradient
       id="linearGradient3700-6">
      <stop
         id="stop3702-048"
         style="stop-color:#553025;stop-opacity:1"
         offset="0" />
      <stop
         id="stop3704-88"
         style="stop-color:#a55033;stop-opacity:1"
         offset="1" />
    </linearGradient>
    <linearGradient
       inkscape:collect="always"
       xlink:href="#linearGradient3737-66"
       id="linearGradient5839"
       gradientUnits="userSpaceOnUse"
       x1="48"
       y1="20.220806"
       x2="48"
       y2="138.66119" />
    <linearGradient
       id="linearGradient3737-66">
      <stop
         id="stop3739-40"
         style="stop-color:#ffffff;stop-opacity:1"
         offset="0" />
      <stop
         id="stop3741-04"
         style="stop-color:#ffffff;stop-opacity:0"
         offset="1" />
    </linearGradient>
    <clipPath
       id="clipPath3613-62">
      <rect
         width="84"
         height="84"
         rx="6"
         ry="6"
         x="6"
         y="6"
         id="rect3615-67"
         style="fill:#ffffff;fill-opacity:1;fill-rule:nonzero;stroke:none" />
    </clipPath>
    <filter
       x="-0.192"
       y="-0.192"
       width="1.3839999"
       height="1.3839999"
       color-interpolation-filters="sRGB"
       id="filter3794-5">
      <feGaussianBlur
         id="feGaussianBlur3796-69"
         stdDeviation="5.28" />
    </filter>
    <linearGradient
       inkscape:collect="always"
       xlink:href="#linearGradient3712-6"
       id="linearGradient5724"
       gradientUnits="userSpaceOnUse"
       gradientTransform="matrix(0.78561674,0,0,0.78561674,101.5352,933.19498)"
       x1="47.2644"
       y1="77.865364"
       x2="47.2644"
       y2="12.540652" />
    <linearGradient
       id="linearGradient3712-6">
      <stop
         id="stop3714-2"
         style="stop-color:#e7cf93;stop-opacity:1"
         offset="0" />
      <stop
         id="stop3716-1"
         style="stop-color:#fefef4;stop-opacity:1"
         offset="1" />
    </linearGradient>
  </defs>
  <sodipodi:namedview
     id="base"
     pagecolor="#ffffff"
     bordercolor="#666666"
     borderopacity="1.0"
     inkscape:pageopacity="0.0"
     inkscape:pageshadow="2"
     inkscape:zoom="3.959798"
     inkscape:cx="28.389459"
     inkscape:cy="57.490015"
     inkscape:document-units="px"
     inkscape:current-layer="layer1"
     showgrid="false"
     inkscape:window-width="1280"
     inkscape:window-height="725"
     inkscape:window-x="0"
     inkscape:window-y="25"
     inkscape:window-maximized="1" />
  <metadata
     id="metadata7">
    <rdf:RDF>
      <cc:Work
         rdf:about="">
        <dc:format>image/svg+xml</dc:format>
        <dc:type
           rdf:resource="http://purl.org/dc/dcmitype/StillImage" />
        <dc:title></dc:title>
      </cc:Work>
    </rdf:RDF>
  </metadata>
  <g
     inkscape:label="Layer 1"
     inkscape:groupmode="layer"
     id="layer1"
     transform="translate(0,-956.36217)">
    <g
       transform="translate(0,-1e-5)"
       id="g5712">
      <rect
         transform="translate(0,-7.8515622e-6)"
         y="964.36218"
         x="8"
         height="80"
         width="80"
         id="rect9283"
         style="fill:#000000;fill-opacity:1;stroke:none;filter:url(#filter6279)"
         rx="5"
         ry="5" />
      <rect
         ry="5"
         rx="5"
         style="fill:url(#linearGradient5709);fill-opacity:1;stroke:none"
         id="rect9285"
         width="80"
         height="80"
         x="8"
         y="964.36218" />
      <g
         id="layer5"
         transform="translate(0,956.36218)">
        <rect
           style="opacity:0.1;fill:url(#linearGradient5839);fill-opacity:1;fill-rule:nonzero;stroke:#ffffff;stroke-width:0.5;stroke-linecap:round;stroke-linejoin:miter;stroke-miterlimit:4;stroke-opacity:1;stroke-dasharray:none;stroke-dashoffset:0;filter:url(#filter3794-5)"
           id="rect3171"
           clip-path="url(#clipPath3613-62)"
           y="15"
           x="15"
           ry="12"
           rx="12"
           height="66"
           width="66" />
      </g>
      <g
         transform="translate(-91.35007,35.10048)"
         id="g5716">
        <path
           style="opacity:0.3;color:#000000;fill:#280b0b;fill-opacity:1;fill-rule:nonzero;stroke:none;stroke-width:1;marker:none;visibility:visible;display:inline;overflow:visible;enable-background:accumulate"
           id="path3720"
           inkscape:connector-curvature="0"
           d="m 140.98789,944.16906 c -3.2736,5.48446 -4.29885,8.14605 -3.11792,11.63695 1.0705,3.16444 3.89535,4.85892 2.50416,12.17706 2.28469,-3.56559 4.0037,-8.205 2.20954,-11.8579 -1.82479,-3.71527 -2.74324,-5.90195 -1.59578,-11.95611 z m 6.40769,2.3814 c -2.26472,3.34964 -2.80314,5.26579 -1.79219,7.61067 1.02938,2.38763 2.18696,2.70795 0.83472,6.18673 2.49493,-2.81356 2.62353,-4.64424 1.59578,-6.82505 -1.04844,-2.2247 -2.1324,-3.04193 -0.63831,-6.97235 z m -12.88903,4.12449 c -2.05467,3.5286 -2.69401,5.23998 -1.91494,7.46336 0.70622,2.01546 2.50809,3.07022 1.66944,7.75797 2.57385,-3.24715 2.48991,-5.55574 1.35028,-7.61067 -1.11105,-2.00338 -1.79638,-3.7326 -1.10478,-7.61066 z m -10.97408,19.44402 0,6.28493 c 0,6.96371 2.80308,12.56987 6.28493,12.56987 l 18.8548,0 c 2.93782,0 5.3932,-3.99724 6.08853,-9.4274 l 4.91011,0 c 1.30569,0 2.35685,-1.05116 2.35685,-2.35685 l 0,-4.7137 c 0,-1.3057 -1.05116,-2.35685 -2.35685,-2.35685 l -4.7137,0 -31.42467,0 z m 3.11792,1.54668 1.59578,0 0,4.73825 c 0.0406,3.50527 -0.42636,9.03825 3.14247,11.02319 l -1.17843,0 c -3.61995,-1.70664 -3.2652,-7.69067 -3.55982,-11.02319 l 0,-4.73825 z m 28.30675,0.81017 3.24067,0 c 0.81606,0 1.47303,0.65697 1.47303,1.47303 l 0,1.96404 c 0,0.81606 -0.65697,1.47303 -1.47303,1.47303 l -3.26522,0 c 0.0127,-0.32808 0.0246,-0.64719 0.0246,-0.98202 l 0,-3.92808 z M 114.10507,990.545 c 0,2.61139 5.60616,4.7137 12.56987,4.7137 l 25.13973,0 c 6.96371,0 12.56987,-2.10231 12.56987,-4.7137 l -50.27947,0 z" />
        <path
           style="color:#000000;fill:url(#linearGradient5724);fill-opacity:1;fill-rule:nonzero;stroke:none;stroke-width:1;marker:none;visibility:visible;display:inline;overflow:visible;enable-background:accumulate"
           id="rect3675"
           inkscape:connector-curvature="0"
           d="m 140.98789,943.38345 c -3.2736,5.48445 -4.29885,8.14604 -3.11792,11.63695 1.0705,3.16443 3.89535,4.85892 2.50416,12.17705 2.28469,-3.56559 4.0037,-8.205 2.20954,-11.8579 -1.82479,-3.71527 -2.74324,-5.90195 -1.59578,-11.9561 z m 6.40769,2.3814 c -2.26472,3.34964 -2.80314,5.26578 -1.79219,7.61066 1.02938,2.38763 2.18696,2.70795 0.83472,6.18673 2.49493,-2.81356 2.62353,-4.64423 1.59578,-6.82504 -1.04844,-2.22471 -2.1324,-3.04193 -0.63831,-6.97235 z m -12.88903,4.12449 c -2.05467,3.52859 -2.69401,5.23998 -1.91494,7.46335 0.70622,2.01546 2.50809,3.07023 1.66944,7.75797 2.57385,-3.24715 2.48991,-5.55574 1.35028,-7.61066 -1.11105,-2.00339 -1.79638,-3.73261 -1.10478,-7.61066 z m -10.97408,19.44401 0,6.28493 c 0,6.96371 2.80308,12.56987 6.28493,12.56987 l 18.8548,0 c 2.93782,0 5.3932,-3.99724 6.08853,-9.4274 l 4.91011,0 c 1.30569,0 2.35685,-1.05115 2.35685,-2.35685 l 0,-4.7137 c 0,-1.30569 -1.05116,-2.35685 -2.35685,-2.35685 l -4.7137,0 -31.42467,0 z m 3.11792,1.54668 1.59578,0 0,4.73825 c 0.0406,3.50527 -0.42636,9.03825 3.14247,11.02319 l -1.17843,0 c -3.61995,-1.70664 -3.2652,-7.69066 -3.55982,-11.02319 l 0,-4.73825 z m 28.30675,0.81017 3.24067,0 c 0.81606,0 1.47303,0.65697 1.47303,1.47303 l 0,1.96404 c 0,0.81606 -0.65697,1.47303 -1.47303,1.47303 l -3.26522,0 c 0.0127,-0.32808 0.0246,-0.64719 0.0246,-0.98202 l 0,-3.92808 z m -40.85207,18.06919 c 0,2.61139 5.60616,4.7137 12.56987,4.7137 l 25.13973,0 c 6.96371,0 12.56987,-2.10231 12.56987,-4.7137 l -50.27947,0 z" />
        <path
           style="color:#000000;fill:#ffffff;fill-opacity:1;fill-rule:nonzero;stroke:none;stroke-width:1;marker:none;visibility:visible;display:inline;overflow:visible;enable-background:accumulate"
           id="path3738"
           inkscape:connector-curvature="0"
           d="m 140.98789,943.38345 c -2.49448,4.17916 -3.68222,6.71409 -3.58438,9.23099 0.1481,-2.21183 1.29633,-4.58072 3.41253,-8.15077 0.0568,-0.35677 0.0985,-0.69327 0.17185,-1.08022 z m 6.40769,2.3814 c -1.68189,2.4876 -2.40849,4.17389 -2.25865,5.84302 0.0957,-1.24235 0.68848,-2.57085 1.76764,-4.27179 0.11722,-0.47096 0.26294,-0.97127 0.49101,-1.57123 z m -6.92325,2.70056 c -0.0578,3.10166 0.7981,4.986 2.11134,7.65976 0.44496,0.90593 0.67876,1.87656 0.73652,2.87241 0.0355,-1.27133 -0.17584,-2.5165 -0.73652,-3.65803 -1.19941,-2.44201 -2.02434,-4.22062 -2.11134,-6.87414 z m 6.21128,0.81016 c -0.16244,1.79154 0.6032,2.662 1.35028,4.24724 0.31303,0.66422 0.50036,1.30257 0.56466,1.93949 0.0816,-0.9138 -0.12292,-1.78777 -0.56466,-2.7251 -0.62654,-1.32948 -1.25614,-2.17266 -1.35028,-3.46163 z m -12.17706,0.61377 c -1.62102,2.78385 -2.35193,4.44761 -2.20954,6.11308 0.10623,-1.37023 0.79551,-2.85996 2.06224,-5.05741 0.0422,-0.33995 0.0798,-0.677 0.1473,-1.05567 z m -0.2455,3.11791 c -0.0893,2.34029 0.4914,3.72969 1.35028,5.27836 0.40286,0.72642 0.66827,1.48769 0.73651,2.30775 0.0856,-1.13074 -0.20787,-2.14014 -0.73651,-3.09336 -0.7572,-1.36534 -1.28964,-2.61511 -1.35028,-4.49275 z m 12.76627,4.39455 c -0.0579,0.57054 -0.23629,1.25251 -0.58921,2.16044 0.15368,-0.1733 0.28135,-0.32485 0.41736,-0.49101 0.18034,-0.68947 0.22665,-1.2099 0.17185,-1.66943 z m -12.56987,5.84302 c -0.0198,0.55383 -0.071,1.16492 -0.1964,1.86584 0.0547,-0.069 0.095,-0.12827 0.1473,-0.1964 0.0699,-0.62713 0.0732,-1.17546 0.0491,-1.66944 z m 6.28494,0.81017 c -0.0288,0.92392 -0.14177,1.95104 -0.36826,3.14246 0.0628,-0.098 0.13451,-0.19499 0.1964,-0.2946 0.154,-1.07321 0.1912,-2.01165 0.17186,-2.84786 z m -17.20992,5.27836 0,0.78562 31.42467,0 4.7137,0 c 1.30569,0 2.35685,1.05115 2.35685,2.35685 l 0,-0.78562 c 0,-1.30569 -1.05116,-2.35685 -2.35685,-2.35685 l -4.7137,0 -31.42467,0 z m 36.13837,5.79392 c 0,0.81606 -0.65697,1.47303 -1.47303,1.47303 l -3.24067,0 c -0.003,0.26367 -0.0144,0.52312 -0.0246,0.78562 l 3.26522,0 c 0.81606,0 1.47303,-0.65697 1.47303,-1.47303 l 0,-0.78562 z m -33.02045,0.49101 0,0.78562 c 0.29462,3.33252 -0.0601,9.31655 3.55982,11.02319 l 1.17843,0 c -0.39312,-0.21865 -0.72988,-0.48833 -1.03113,-0.78562 l -0.1473,0 c -3.61995,-1.70664 -3.2652,-7.69066 -3.55982,-11.02319 z m -12.54532,14.14111 c 0,0.26512 0.0607,0.53265 0.17185,0.78561 l 49.93577,0 c 0.11112,-0.25296 0.17185,-0.52049 0.17185,-0.78561 l -50.27947,0 z" />
      </g>
    </g>
  </g>
</svg>
