<?xml version="1.0" encoding="UTF-8" standalone="no"?>
<!-- Created with Inkscape (http://www.inkscape.org/) -->
<svg id="svg2" xmlns:rdf="http://www.w3.org/1999/02/22-rdf-syntax-ns#" xmlns="http://www.w3.org/2000/svg" height="96" width="96" version="1.1" xmlns:cc="http://creativecommons.org/ns#" xmlns:xlink="http://www.w3.org/1999/xlink" xmlns:dc="http://purl.org/dc/elements/1.1/">
 <defs id="defs4">
  <filter id="filter6279" color-interpolation-filters="sRGB">
   <feGaussianBlur id="feGaussianBlur6281" stdDeviation="0.8"/>
  </filter>
  <linearGradient id="linearGradient5801" y2="902.36" gradientUnits="userSpaceOnUse" x2="48" gradientTransform="translate(0 -.0000078516)" y1="1052.4" x1="48">
   <stop id="stop2843" style="stop-color:#f0bf39" offset="0"/>
   <stop id="stop2845" style="stop-color:#f8e699" offset="1"/>
  </linearGradient>
  <clipPath id="clipPath4165">
   <rect id="rect4167" style="fill:#ff2a2a" rx="6" ry="6" height="84" width="84" y="6" x="6"/>
  </clipPath>
  <radialGradient id="radialGradient4393" xlink:href="#linearGradient3853" gradientUnits="userSpaceOnUse" cy="26.357" cx="24.821" r="8.0357"/>
  <linearGradient id="linearGradient3853">
   <stop id="stop3855-9" style="stop-color:#e88d01;stop-opacity:.18431" offset="0"/>
   <stop id="stop3863" style="stop-color:#e58907;stop-opacity:.41085" offset=".5"/>
   <stop id="stop4397-4" style="stop-color:#e48a0a;stop-opacity:.68217" offset=".75"/>
   <stop id="stop3859" style="stop-color:#e4870a" offset="1"/>
  </linearGradient>
  <radialGradient id="radialGradient4045" xlink:href="#linearGradient3853" gradientUnits="userSpaceOnUse" cy="30.464" cx="43.393" r="4.1071"/>
  <radialGradient id="radialGradient4047" xlink:href="#linearGradient3698" gradientUnits="userSpaceOnUse" cy="24.64" cx="53.542" r="2.1429"/>
  <linearGradient id="linearGradient3698">
   <stop id="stop3700" style="stop-color:#f0a801;stop-opacity:.18605" offset="0"/>
   <stop id="stop3711" style="stop-color:#f0a801;stop-opacity:.35659" offset=".5"/>
   <stop id="stop4395" style="stop-color:#e8a301;stop-opacity:.83721" offset=".75"/>
   <stop id="stop3703" style="stop-color:#e09201" offset="1"/>
  </linearGradient>
  <radialGradient id="radialGradient4049" xlink:href="#linearGradient3698" gradientUnits="userSpaceOnUse" cy="37.607" cx="62.679" r="5.3571"/>
  <radialGradient id="radialGradient4051" xlink:href="#linearGradient3698" gradientUnits="userSpaceOnUse" cy="62.283" cx="30.529" r="6.6071"/>
  <radialGradient id="radialGradient4053" xlink:href="#linearGradient3853" gradientUnits="userSpaceOnUse" cy="71.637" cx="65.731" r="8.2143"/>
  <radialGradient id="radialGradient4055" xlink:href="#linearGradient3698" gradientUnits="userSpaceOnUse" cy="56.426" cx="48.796" r="3.3929"/>
  <radialGradient id="radialGradient4125" xlink:href="#linearGradient3853" gradientUnits="userSpaceOnUse" cy="77.455" cx="12.211" r="7.8571"/>
  <radialGradient id="radialGradient4059" xlink:href="#linearGradient3698" gradientUnits="userSpaceOnUse" cy="87.036" cx="33.899" r="4.1071"/>
  <radialGradient id="radialGradient4061" xlink:href="#linearGradient3698" gradientUnits="userSpaceOnUse" cy="86.754" cx="50.864" r="5.3571"/>
  <radialGradient id="radialGradient4063" xlink:href="#linearGradient3853" gradientUnits="userSpaceOnUse" cy="13.679" cx="73.393" r="3.5714"/>
  <radialGradient id="radialGradient4065" xlink:href="#linearGradient3698" gradientUnits="userSpaceOnUse" cy="25.643" cx="80.714" r="9.2857"/>
  <radialGradient id="radialGradient4105" xlink:href="#linearGradient3853" gradientUnits="userSpaceOnUse" cy="79.565" cx="78.237" r="2.1429"/>
  <radialGradient id="radialGradient4102" xlink:href="#linearGradient3698" gradientUnits="userSpaceOnUse" cy="69.737" cx="82.598" r="4.8214"/>
  <radialGradient id="radialGradient4121" xlink:href="#linearGradient3698" gradientUnits="userSpaceOnUse" cy="34.283" cx="12.649" r="3.2143"/>
  <radialGradient id="radialGradient4073" xlink:href="#linearGradient3698" gradientUnits="userSpaceOnUse" cy="5.0426" cx="34.688" r="6.0714"/>
  <radialGradient id="radialGradient4119" xlink:href="#linearGradient3698" gradientUnits="userSpaceOnUse" cy="17.705" cx="3.023" gradientTransform="matrix(1 0 0 0.975 0 .37768)" r="7.1429"/>
  <radialGradient id="radialGradient4077" xlink:href="#linearGradient3698" gradientUnits="userSpaceOnUse" cy="7.8687" cx="60.239" r="2.7679"/>
  <linearGradient id="linearGradient3421-9" y2="138.66" gradientUnits="userSpaceOnUse" y1="20.221" x2="48" x1="48">
   <stop id="stop3739-31" style="stop-color:#fff" offset="0"/>
   <stop id="stop3741-801" style="stop-color:#fff;stop-opacity:0" offset="1"/>
  </linearGradient>
  <clipPath id="clipPath3613-7">
   <rect id="rect3615-9" style="fill:#fff" rx="6" ry="6" height="84" width="84" y="6" x="6"/>
  </clipPath>
  <filter id="filter3794-10" height="1.384" width="1.384" color-interpolation-filters="sRGB" y="-.192" x="-.192">
   <feGaussianBlur id="feGaussianBlur3796-35" stdDeviation="5.28"/>
  </filter>
 </defs>
 <metadata id="metadata7">
  <rdf:RDF>
   <cc:Work rdf:about="">
    <dc:format>image/svg+xml</dc:format>
    <dc:type rdf:resource="http://purl.org/dc/dcmitype/StillImage"/>
    <dc:title/>
   </cc:Work>
  </rdf:RDF>
 </metadata>
 <g id="layer1" transform="translate(0 -956.36)">
  <g id="g6857" transform="translate(0,-1e-5)">
   <rect id="rect9283" ry="5" style="filter:url(#filter6279)" rx="5" transform="translate(0 -.0000078516)" height="80" width="80" y="964.36" x="8"/>
   <rect id="rect9285" style="fill:url(#linearGradient5801)" rx="5" ry="5" height="80" width="80" y="964.36" x="8"/>
   <g id="layer3" transform="matrix(.65476 0 0 .65476 16.678 972.91)">
    <g id="g4127" clip-path="url(#clipPath4165)">
     <path id="path3620" d="m31.25 22.607a8.0357 8.0357 0 1 1 -16.071 0 8.0357 8.0357 0 1 1 16.071 0z" style="fill:url(#radialGradient4393)" transform="translate(2)"/>
     <path id="path3622" style="fill:url(#radialGradient4045)" d="m46.786 28.679a4.1071 4.1071 0 1 1 -8.2143 0 4.1071 4.1071 0 1 1 8.2143 0z"/>
     <path id="path3624" style="fill:url(#radialGradient4047)" d="m55.179 23.5a2.1429 2.1429 0 1 1 -4.2857 0 2.1429 2.1429 0 1 1 4.2857 0z"/>
     <path id="path3626" style="fill:url(#radialGradient4049)" d="m67.321 35.821a5.3571 5.3571 0 1 1 -10.714 0 5.3571 5.3571 0 1 1 10.714 0z"/>
     <path id="path3628" style="fill:url(#radialGradient4051)" d="m36.25 59.75a6.6071 6.6071 0 1 1 -13.214 0 6.6071 6.6071 0 1 1 13.214 0z"/>
     <path id="path3630" d="m72.679 67.964a8.2143 8.2143 0 1 1 -16.429 0 8.2143 8.2143 0 1 1 16.429 0z" style="fill:url(#radialGradient4053)" transform="matrix(1.1739 0 0 1.1739 -12.64 -13.248)"/>
     <path id="path3632" style="fill:url(#radialGradient4055)" d="m51.429 55.286a3.3929 3.3929 0 1 1 -6.7857 0 3.3929 3.3929 0 1 1 6.7857 0z"/>
     <path id="path3634" d="m18.929 74.036a7.8571 7.8571 0 1 1 -15.714 0 7.8571 7.8571 0 1 1 15.714 0z" style="fill:url(#radialGradient4125)" transform="translate(-1)"/>
     <path id="path3636" d="m37.5 85.643a4.1071 4.1071 0 1 1 -8.2143 0 4.1071 4.1071 0 1 1 8.2143 0z" style="fill:url(#radialGradient4059)" transform="translate(-1.4286 -2.1429)"/>
     <path id="path3638" d="m55.714 85.107a5.3571 5.3571 0 1 1 -10.714 0 5.3571 5.3571 0 1 1 10.714 0z" style="fill:url(#radialGradient4061)" transform="translate(1.4286 3.0357)"/>
     <path id="path3640" style="fill:url(#radialGradient4063)" d="m76.429 12.786a3.5714 3.5714 0 1 1 -7.1429 0 3.5714 3.5714 0 1 1 7.1429 0z"/>
     <path id="path3642" d="m88.929 22.071a9.2857 9.2857 0 1 1 -18.571 0 9.2857 9.2857 0 1 1 18.571 0z" style="fill:url(#radialGradient4065)" transform="translate(3.5714 6.6071)"/>
     <rect id="rect3644" style="fill:url(#radialGradient4105)" rx="6" ry="4.2857" height="4.2857" width="4.2857" y="76.536" x="75.714"/>
     <rect id="rect3646" style="fill:url(#radialGradient4102)" rx="6" ry="4.2857" height="9.6429" width="9.6429" y="63.143" x="77.143"/>
     <path id="path3648" d="m15.357 33.143a3.2143 3.2143 0 1 1 -6.4286 0 3.2143 3.2143 0 1 1 6.4286 0z" style="fill:url(#radialGradient4121)" transform="translate(2)"/>
     <path id="path3650" style="fill:url(#radialGradient4073)" d="m40 3.1429a6.0714 6.0714 0 1 1 -12.143 0 6.0714 6.0714 0 1 1 12.143 0z"/>
     <path id="path3652" d="m8.3929 15.107a7.1429 6.9643 0 1 1 -14.286 0 7.1429 6.9643 0 1 1 14.286 0z" style="fill:url(#radialGradient4119)" transform="translate(2 3.3929)"/>
     <path id="path3656" d="m62.5 6.9821a2.7679 2.7679 0 1 1 -5.5357 0 2.7679 2.7679 0 1 1 5.5357 0z" style="fill:url(#radialGradient4077)" transform="translate(5 -.71429)"/>
     <path id="path3989" d="m27.875 3.7812c-0.0076 0.12411-0.03125 0.24905-0.03125 0.375 0 3.3532 2.7406 6.0625 6.0938 6.0625s6.0625-2.7093 6.0625-6.0625c0-0.12595-0.02371-0.25089-0.03125-0.375-0.30994 3.0606-2.8877 5.4375-6.0312 5.4375-3.1436 0-5.7491-2.3769-6.0625-5.4375z" style="opacity:.5;fill:#fff"/>
     <path id="path3987" d="m62.031 6.8438c-0.0224 0.14297-0.0625 0.28836-0.0625 0.4375 0 1.5286 1.2214 2.75 2.75 2.75s2.7812-1.2214 2.7812-2.75c0-0.14914-0.03956-0.29453-0.0625-0.4375-0.26066 1.2578-1.3812 2.1875-2.7188 2.1875s-2.4328-0.92965-2.6875-2.1875z" style="opacity:.5;fill:#fff"/>
     <path id="path3985" d="m69.312 13.281c-0.02316 0.16461-0.03125 0.32884-0.03125 0.5 0 1.9724 1.5901 3.5625 3.5625 3.5625s3.5938-1.5901 3.5938-3.5625c0-0.17116-0.0077-0.33539-0.03125-0.5-0.24822 1.7324-1.7612 3.0625-3.5625 3.0625s-3.2876-1.3301-3.5312-3.0625z" style="opacity:.5;fill:#fff"/>
     <path id="path3983" d="m-3.875 19c-0.011957 0.16443-0.03125 0.33263-0.03125 0.5 0 3.8463 3.2114 6.9688 7.1562 6.9688 3.9449 0 7.1562-3.1225 7.1562-6.9688 0-0.16737-0.01929-0.33557-0.03125-0.5-0.26283 3.6143-3.3518 6.4688-7.125 6.4688s-6.8622-2.8544-7.125-6.4688z" style="opacity:.5;fill:#fff"/>
     <path id="path3981" d="m17.219 23.094c-0.01049 0.16819-0.03125 0.32915-0.03125 0.5 0 4.438 3.5932 8.0625 8.0312 8.0625s8.0312-3.6245 8.0312-8.0625c0-0.17085-0.02076-0.33181-0.03125-0.5-0.26209 4.2029-3.7328 7.5625-8 7.5625s-7.7379-3.3596-8-7.5625z" style="opacity:.5;fill:#fff"/>
     <path id="path3979" d="m50.969 24c-0.03759 0.16069-0.0625 0.32808-0.0625 0.5 0 1.1835 0.94153 2.1562 2.125 2.1562s2.1562-0.97278 2.1562-2.1562c0-0.17192-0.02378-0.33931-0.0625-0.5-0.22783 0.94548-1.0822 1.6562-2.0938 1.6562-1.0115 0-1.8413-0.71077-2.0625-1.6562z" style="opacity:.5;fill:#fff"/>
     <path id="path3977" d="m38.625 29.188c-0.01985 0.16316-0.0625 0.33172-0.0625 0.5 0 2.2683 1.8567 4.0938 4.125 4.0938s4.0938-1.8254 4.0938-4.0938c0-0.16828-0.04297-0.33684-0.0625-0.5-0.25193 2.0231-1.9376 3.5938-4.0312 3.5938s-3.8065-1.5706-4.0625-3.5938z" style="opacity:.5;fill:#fff"/>
     <path id="path3975" d="m73.969 29.188c-0.0091 0.16861-0.03125 0.3291-0.03125 0.5 0 5.1284 4.1529 9.2812 9.2812 9.2812 5.1284 0 9.2812-4.1529 9.2812-9.2812 0-0.1709-0.02214-0.33139-0.03125-0.5-0.26415 4.8912-4.2925 8.7812-9.25 8.7812s-8.9859-3.89-9.25-8.7812z" style="opacity:.5;fill:#fff"/>
     <path id="path3973" d="m11 33.656c-0.02537 0.16252-0.0625 0.33046-0.0625 0.5 0 1.7752 1.4435 3.1875 3.2188 3.1875 1.7752 0 3.1875-1.4123 3.1875-3.1875 0-0.16954-0.03765-0.33748-0.0625-0.5-0.23534 1.5343-1.5193 2.6875-3.125 2.6875s-2.916-1.1532-3.1562-2.6875z" style="opacity:.5;fill:#fff"/>
     <path id="path3971" d="m56.625 36.375c-0.01122 0.14103-0.03125 0.29355-0.03125 0.4375 0 2.9587 2.4163 5.375 5.375 5.375s5.3438-2.4163 5.3438-5.375c0-0.14395-0.02017-0.29647-0.03125-0.4375-0.27287 2.7033-2.5387 4.8125-5.3125 4.8125s-5.0674-2.1092-5.3438-4.8125z" style="opacity:.5;fill:#fff"/>
     <path id="path3969" d="m44.688 55.781c-0.02385 0.16294-0.03125 0.33009-0.03125 0.5 0 1.8738 1.5012 3.4062 3.375 3.4062s3.4062-1.5324 3.4062-3.4062c0-0.16991-0.0069-0.33706-0.03125-0.5-0.2438 1.6387-1.6711 2.9062-3.375 2.9062s-3.1046-1.2675-3.3438-2.9062z" style="opacity:.5;fill:#fff"/>
     <path id="path3967" d="m23.062 60.25c-0.0121 0.16287-0.03125 0.33401-0.03125 0.5 0 3.649 2.976 6.5938 6.625 6.5938s6.5938-2.9447 6.5938-6.5938c0-0.16599-0.01927-0.33713-0.03125-0.5-0.2513 3.4174-3.0795 6.0938-6.5625 6.0938s-6.3399-2.6763-6.5938-6.0938z" style="opacity:.5;fill:#fff"/>
     <path id="path3963" d="m77.156 68.5v1c0 2.3743 2.1414 4.2812 4.8125 4.2812s4.8125-1.907 4.8125-4.2812v-1c0 2.3743-2.1414 4.2812-4.8125 4.2812s-4.8125-1.907-4.8125-4.2812z" style="opacity:.5;fill:#fff"/>
     <path id="path3961" d="m2.25 74.531c-0.010235 0.16443-0.03125 0.33295-0.03125 0.5 0 4.3394 3.5044 7.875 7.8438 7.875s7.875-3.5356 7.875-7.875c0-0.16705-0.02093-0.33557-0.03125-0.5-0.25785 4.1089-3.6714 7.375-7.8438 7.375-4.1723 0-7.5569-3.2661-7.8125-7.375z" style="opacity:.5;fill:#fff"/>
     <path id="path3959" d="m75.781 79.188c-0.03747 0.16095-0.0625 0.32754-0.0625 0.5 0 1.1871 0.93786 2.125 2.125 2.125s2.1562-0.93786 2.1562-2.125c0-0.17246-0.0239-0.33905-0.0625-0.5-0.22711 0.94036-1.0791 1.625-2.0938 1.625s-1.842-0.68464-2.0625-1.625z" style="opacity:.5;fill:#fff"/>
     <path id="path3957" d="m27.906 84c-0.02136 0.16879-0.0625 0.32532-0.0625 0.5 0 2.2683 1.8567 4.0938 4.125 4.0938s4.0938-1.8254 4.0938-4.0938c0-0.17468-0.04148-0.33121-0.0625-0.5-0.25193 2.0231-1.9376 3.5938-4.0312 3.5938s-3.8065-1.5706-4.0625-3.5938z" style="opacity:.5;fill:#fff"/>
     <path id="path3658" d="m46.469 88.719c-0.01108 0.14117-0.03125 0.29355-0.03125 0.4375 0 2.9587 2.3851 5.3438 5.3438 5.3438s5.375-2.3851 5.375-5.3438c0-0.14395-0.02003-0.29633-0.03125-0.4375-0.2763 2.6999-2.57 4.7812-5.3438 4.7812s-5.0396-2.0814-5.3125-4.7812z" style="opacity:.5;fill:#fff"/>
     <path id="path3991" d="m53.438 67.031c-0.0089 0.16975-0.03125 0.32804-0.03125 0.5 0 5.3256 4.2994 9.6562 9.625 9.6562s9.6562-4.3306 9.6562-9.6562c0-0.17177-0.02238-0.33044-0.03125-0.5-0.25827 5.095-4.4658 9.1562-9.625 9.1562-5.159 0-9.3352-4.0615-9.5938-9.1562z" style="opacity:.5;fill:#fff"/>
    </g>
   </g>
   <g id="layer5" transform="translate(0 956.36)">
    <rect id="rect3171" style="opacity:.1;filter:url(#filter3794-10);stroke:#fff;stroke-linecap:round;stroke-width:.5;fill:url(#linearGradient3421-9)" clip-path="url(#clipPath3613-7)" rx="12" ry="12" height="66" width="66" y="15" x="15"/>
   </g>
  </g>
 </g>
</svg>
