<?xml version="1.0" encoding="UTF-8" standalone="no"?>
<!-- Created with Inkscape (http://www.inkscape.org/) -->

<svg
   xmlns:dc="http://purl.org/dc/elements/1.1/"
   xmlns:cc="http://creativecommons.org/ns#"
   xmlns:rdf="http://www.w3.org/1999/02/22-rdf-syntax-ns#"
   xmlns:svg="http://www.w3.org/2000/svg"
   xmlns="http://www.w3.org/2000/svg"
   xmlns:xlink="http://www.w3.org/1999/xlink"
   xmlns:sodipodi="http://sodipodi.sourceforge.net/DTD/sodipodi-0.dtd"
   xmlns:inkscape="http://www.inkscape.org/namespaces/inkscape"
   width="96"
   height="96"
   id="svg2"
   version="1.1"
   inkscape:version="0.48.1 r9760"
   sodipodi:docname="cheese.svg">
  <defs
     id="defs4">
    <filter
       color-interpolation-filters="sRGB"
       inkscape:collect="always"
       id="filter6279">
      <feGaussianBlur
         inkscape:collect="always"
         stdDeviation="0.8"
         id="feGaussianBlur6281" />
    </filter>
    <linearGradient
       inkscape:collect="always"
       xlink:href="#linearGradient2841"
       id="linearGradient5801"
       gradientUnits="userSpaceOnUse"
       gradientTransform="translate(0,-7.8515622e-6)"
       x1="48"
       y1="1052.3622"
       x2="48"
       y2="902.36218" />
    <linearGradient
       id="linearGradient2841">
      <stop
         id="stop2843"
         style="stop-color:#f0bf39;stop-opacity:1"
         offset="0" />
      <stop
         id="stop2845"
         style="stop-color:#f8e699;stop-opacity:1"
         offset="1" />
    </linearGradient>
    <clipPath
       id="clipPath4165">
      <rect
         width="84"
         height="84"
         rx="6"
         ry="6"
         x="6"
         y="6"
         id="rect4167"
         style="fill:#ff2a2a;fill-opacity:1;fill-rule:nonzero;stroke:none" />
    </clipPath>
    <radialGradient
       cx="24.821428"
       cy="26.357143"
       r="8.0357141"
       fx="24.821428"
       fy="26.357143"
       id="radialGradient4393"
       xlink:href="#linearGradient3853"
       gradientUnits="userSpaceOnUse" />
    <linearGradient
       id="linearGradient3853">
      <stop
         id="stop3855-9"
         style="stop-color:#e88d01;stop-opacity:0.18431373"
         offset="0" />
      <stop
         id="stop3863"
         style="stop-color:#e58907;stop-opacity:0.4108527"
         offset="0.5" />
      <stop
         id="stop4397-4"
         style="stop-color:#e48a0a;stop-opacity:0.68217057"
         offset="0.75" />
      <stop
         id="stop3859"
         style="stop-color:#e4870a;stop-opacity:1"
         offset="1" />
    </linearGradient>
    <radialGradient
       cx="43.392857"
       cy="30.464287"
       r="4.1071429"
       fx="43.392857"
       fy="30.464287"
       id="radialGradient4045"
       xlink:href="#linearGradient3853"
       gradientUnits="userSpaceOnUse" />
    <linearGradient
       id="linearGradient5852">
      <stop
         id="stop5854"
         style="stop-color:#e88d01;stop-opacity:0.18431373"
         offset="0" />
      <stop
         id="stop5856"
         style="stop-color:#e58907;stop-opacity:0.4108527"
         offset="0.5" />
      <stop
         id="stop5858"
         style="stop-color:#e48a0a;stop-opacity:0.68217057"
         offset="0.75" />
      <stop
         id="stop5860"
         style="stop-color:#e4870a;stop-opacity:1"
         offset="1" />
    </linearGradient>
    <radialGradient
       cx="53.542297"
       cy="24.639818"
       r="2.1428571"
       fx="53.542297"
       fy="24.639818"
       id="radialGradient4047"
       xlink:href="#linearGradient3698"
       gradientUnits="userSpaceOnUse" />
    <linearGradient
       id="linearGradient3698">
      <stop
         id="stop3700"
         style="stop-color:#f0a801;stop-opacity:0.18604651"
         offset="0" />
      <stop
         id="stop3711"
         style="stop-color:#f0a801;stop-opacity:0.35658914"
         offset="0.5" />
      <stop
         id="stop4395"
         style="stop-color:#e8a301;stop-opacity:0.83720928"
         offset="0.75" />
      <stop
         id="stop3703"
         style="stop-color:#e09201;stop-opacity:1"
         offset="1" />
    </linearGradient>
    <radialGradient
       cx="62.678574"
       cy="37.607143"
       r="5.3571429"
       fx="62.678574"
       fy="37.607143"
       id="radialGradient4049"
       xlink:href="#linearGradient3698"
       gradientUnits="userSpaceOnUse" />
    <linearGradient
       id="linearGradient5869">
      <stop
         id="stop5871"
         style="stop-color:#f0a801;stop-opacity:0.18604651"
         offset="0" />
      <stop
         id="stop5873"
         style="stop-color:#f0a801;stop-opacity:0.35658914"
         offset="0.5" />
      <stop
         id="stop5875"
         style="stop-color:#e8a301;stop-opacity:0.83720928"
         offset="0.75" />
      <stop
         id="stop5877"
         style="stop-color:#e09201;stop-opacity:1"
         offset="1" />
    </linearGradient>
    <radialGradient
       cx="30.529381"
       cy="62.282928"
       r="6.6071429"
       fx="30.529381"
       fy="62.282928"
       id="radialGradient4051"
       xlink:href="#linearGradient3698"
       gradientUnits="userSpaceOnUse" />
    <linearGradient
       id="linearGradient5880">
      <stop
         id="stop5882"
         style="stop-color:#f0a801;stop-opacity:0.18604651"
         offset="0" />
      <stop
         id="stop5884"
         style="stop-color:#f0a801;stop-opacity:0.35658914"
         offset="0.5" />
      <stop
         id="stop5886"
         style="stop-color:#e8a301;stop-opacity:0.83720928"
         offset="0.75" />
      <stop
         id="stop5888"
         style="stop-color:#e09201;stop-opacity:1"
         offset="1" />
    </linearGradient>
    <radialGradient
       cx="65.730751"
       cy="71.637032"
       r="8.2142859"
       fx="65.730751"
       fy="71.637032"
       id="radialGradient4053"
       xlink:href="#linearGradient3853"
       gradientUnits="userSpaceOnUse" />
    <linearGradient
       id="linearGradient5891">
      <stop
         id="stop5893"
         style="stop-color:#e88d01;stop-opacity:0.18431373"
         offset="0" />
      <stop
         id="stop5895"
         style="stop-color:#e58907;stop-opacity:0.4108527"
         offset="0.5" />
      <stop
         id="stop5897"
         style="stop-color:#e48a0a;stop-opacity:0.68217057"
         offset="0.75" />
      <stop
         id="stop5899"
         style="stop-color:#e4870a;stop-opacity:1"
         offset="1" />
    </linearGradient>
    <radialGradient
       cx="48.795593"
       cy="56.425529"
       r="3.3928571"
       fx="48.795593"
       fy="56.425529"
       id="radialGradient4055"
       xlink:href="#linearGradient3698"
       gradientUnits="userSpaceOnUse" />
    <linearGradient
       id="linearGradient5902">
      <stop
         id="stop5904"
         style="stop-color:#f0a801;stop-opacity:0.18604651"
         offset="0" />
      <stop
         id="stop5906"
         style="stop-color:#f0a801;stop-opacity:0.35658914"
         offset="0.5" />
      <stop
         id="stop5908"
         style="stop-color:#e8a301;stop-opacity:0.83720928"
         offset="0.75" />
      <stop
         id="stop5910"
         style="stop-color:#e09201;stop-opacity:1"
         offset="1" />
    </linearGradient>
    <radialGradient
       cx="12.211246"
       cy="77.45517"
       r="7.8571429"
       fx="12.211246"
       fy="77.45517"
       id="radialGradient4125"
       xlink:href="#linearGradient3853"
       gradientUnits="userSpaceOnUse" />
    <linearGradient
       id="linearGradient5913">
      <stop
         id="stop5915"
         style="stop-color:#e88d01;stop-opacity:0.18431373"
         offset="0" />
      <stop
         id="stop5917"
         style="stop-color:#e58907;stop-opacity:0.4108527"
         offset="0.5" />
      <stop
         id="stop5919"
         style="stop-color:#e48a0a;stop-opacity:0.68217057"
         offset="0.75" />
      <stop
         id="stop5921"
         style="stop-color:#e4870a;stop-opacity:1"
         offset="1" />
    </linearGradient>
    <radialGradient
       cx="33.899441"
       cy="87.035973"
       r="4.1071429"
       fx="33.899441"
       fy="87.035973"
       id="radialGradient4059"
       xlink:href="#linearGradient3698"
       gradientUnits="userSpaceOnUse" />
    <linearGradient
       id="linearGradient5924">
      <stop
         id="stop5926"
         style="stop-color:#f0a801;stop-opacity:0.18604651"
         offset="0" />
      <stop
         id="stop5928"
         style="stop-color:#f0a801;stop-opacity:0.35658914"
         offset="0.5" />
      <stop
         id="stop5930"
         style="stop-color:#e8a301;stop-opacity:0.83720928"
         offset="0.75" />
      <stop
         id="stop5932"
         style="stop-color:#e09201;stop-opacity:1"
         offset="1" />
    </linearGradient>
    <radialGradient
       cx="50.863728"
       cy="86.75354"
       r="5.3571429"
       fx="50.863728"
       fy="86.75354"
       id="radialGradient4061"
       xlink:href="#linearGradient3698"
       gradientUnits="userSpaceOnUse" />
    <linearGradient
       id="linearGradient5935">
      <stop
         id="stop5937"
         style="stop-color:#f0a801;stop-opacity:0.18604651"
         offset="0" />
      <stop
         id="stop5939"
         style="stop-color:#f0a801;stop-opacity:0.35658914"
         offset="0.5" />
      <stop
         id="stop5941"
         style="stop-color:#e8a301;stop-opacity:0.83720928"
         offset="0.75" />
      <stop
         id="stop5943"
         style="stop-color:#e09201;stop-opacity:1"
         offset="1" />
    </linearGradient>
    <radialGradient
       cx="73.392853"
       cy="13.678572"
       r="3.5714285"
       fx="73.392853"
       fy="13.678572"
       id="radialGradient4063"
       xlink:href="#linearGradient3853"
       gradientUnits="userSpaceOnUse" />
    <linearGradient
       id="linearGradient5946">
      <stop
         id="stop5948"
         style="stop-color:#e88d01;stop-opacity:0.18431373"
         offset="0" />
      <stop
         id="stop5950"
         style="stop-color:#e58907;stop-opacity:0.4108527"
         offset="0.5" />
      <stop
         id="stop5952"
         style="stop-color:#e48a0a;stop-opacity:0.68217057"
         offset="0.75" />
      <stop
         id="stop5954"
         style="stop-color:#e4870a;stop-opacity:1"
         offset="1" />
    </linearGradient>
    <radialGradient
       cx="80.714287"
       cy="25.642857"
       r="9.2857141"
       fx="80.714287"
       fy="25.642857"
       id="radialGradient4065"
       xlink:href="#linearGradient3698"
       gradientUnits="userSpaceOnUse" />
    <linearGradient
       id="linearGradient5957">
      <stop
         id="stop5959"
         style="stop-color:#f0a801;stop-opacity:0.18604651"
         offset="0" />
      <stop
         id="stop5961"
         style="stop-color:#f0a801;stop-opacity:0.35658914"
         offset="0.5" />
      <stop
         id="stop5963"
         style="stop-color:#e8a301;stop-opacity:0.83720928"
         offset="0.75" />
      <stop
         id="stop5965"
         style="stop-color:#e09201;stop-opacity:1"
         offset="1" />
    </linearGradient>
    <radialGradient
       cx="78.237083"
       cy="79.565102"
       r="2.1428571"
       fx="78.237083"
       fy="79.565102"
       id="radialGradient4105"
       xlink:href="#linearGradient3853"
       gradientUnits="userSpaceOnUse" />
    <linearGradient
       id="linearGradient5968">
      <stop
         id="stop5970"
         style="stop-color:#e88d01;stop-opacity:0.18431373"
         offset="0" />
      <stop
         id="stop5972"
         style="stop-color:#e58907;stop-opacity:0.4108527"
         offset="0.5" />
      <stop
         id="stop5974"
         style="stop-color:#e48a0a;stop-opacity:0.68217057"
         offset="0.75" />
      <stop
         id="stop5976"
         style="stop-color:#e4870a;stop-opacity:1"
         offset="1" />
    </linearGradient>
    <radialGradient
       cx="82.597511"
       cy="69.737335"
       r="4.8214288"
       fx="82.597511"
       fy="69.737335"
       id="radialGradient4102"
       xlink:href="#linearGradient3698"
       gradientUnits="userSpaceOnUse" />
    <linearGradient
       id="linearGradient5979">
      <stop
         id="stop5981"
         style="stop-color:#f0a801;stop-opacity:0.18604651"
         offset="0" />
      <stop
         id="stop5983"
         style="stop-color:#f0a801;stop-opacity:0.35658914"
         offset="0.5" />
      <stop
         id="stop5985"
         style="stop-color:#e8a301;stop-opacity:0.83720928"
         offset="0.75" />
      <stop
         id="stop5987"
         style="stop-color:#e09201;stop-opacity:1"
         offset="1" />
    </linearGradient>
    <radialGradient
       cx="12.649444"
       cy="34.282673"
       r="3.2142856"
       fx="12.649444"
       fy="34.282673"
       id="radialGradient4121"
       xlink:href="#linearGradient3698"
       gradientUnits="userSpaceOnUse" />
    <linearGradient
       id="linearGradient5990">
      <stop
         id="stop5992"
         style="stop-color:#f0a801;stop-opacity:0.18604651"
         offset="0" />
      <stop
         id="stop5994"
         style="stop-color:#f0a801;stop-opacity:0.35658914"
         offset="0.5" />
      <stop
         id="stop5996"
         style="stop-color:#e8a301;stop-opacity:0.83720928"
         offset="0.75" />
      <stop
         id="stop5998"
         style="stop-color:#e09201;stop-opacity:1"
         offset="1" />
    </linearGradient>
    <radialGradient
       cx="34.68845"
       cy="5.0425529"
       r="6.0714288"
       fx="34.68845"
       fy="5.0425529"
       id="radialGradient4073"
       xlink:href="#linearGradient3698"
       gradientUnits="userSpaceOnUse" />
    <linearGradient
       id="linearGradient6001">
      <stop
         id="stop6003"
         style="stop-color:#f0a801;stop-opacity:0.18604651"
         offset="0" />
      <stop
         id="stop6005"
         style="stop-color:#f0a801;stop-opacity:0.35658914"
         offset="0.5" />
      <stop
         id="stop6007"
         style="stop-color:#e8a301;stop-opacity:0.83720928"
         offset="0.75" />
      <stop
         id="stop6009"
         style="stop-color:#e09201;stop-opacity:1"
         offset="1" />
    </linearGradient>
    <radialGradient
       cx="3.0230496"
       cy="17.705017"
       r="7.1428571"
       fx="3.0230496"
       fy="17.705017"
       id="radialGradient4119"
       xlink:href="#linearGradient3698"
       gradientUnits="userSpaceOnUse"
       gradientTransform="matrix(1,0,0,0.97500003,0,0.37767813)" />
    <linearGradient
       id="linearGradient6012">
      <stop
         id="stop6014"
         style="stop-color:#f0a801;stop-opacity:0.18604651"
         offset="0" />
      <stop
         id="stop6016"
         style="stop-color:#f0a801;stop-opacity:0.35658914"
         offset="0.5" />
      <stop
         id="stop6018"
         style="stop-color:#e8a301;stop-opacity:0.83720928"
         offset="0.75" />
      <stop
         id="stop6020"
         style="stop-color:#e09201;stop-opacity:1"
         offset="1" />
    </linearGradient>
    <radialGradient
       cx="60.238728"
       cy="7.8686676"
       r="2.7678571"
       fx="60.238728"
       fy="7.8686676"
       id="radialGradient4077"
       xlink:href="#linearGradient3698"
       gradientUnits="userSpaceOnUse" />
    <linearGradient
       id="linearGradient6023">
      <stop
         id="stop6025"
         style="stop-color:#f0a801;stop-opacity:0.18604651"
         offset="0" />
      <stop
         id="stop6027"
         style="stop-color:#f0a801;stop-opacity:0.35658914"
         offset="0.5" />
      <stop
         id="stop6029"
         style="stop-color:#e8a301;stop-opacity:0.83720928"
         offset="0.75" />
      <stop
         id="stop6031"
         style="stop-color:#e09201;stop-opacity:1"
         offset="1" />
    </linearGradient>
    <linearGradient
       y2="138.66119"
       x2="48"
       y1="20.220806"
       x1="48"
       gradientUnits="userSpaceOnUse"
       id="linearGradient3421-9"
       xlink:href="#linearGradient3737-50"
       inkscape:collect="always" />
    <linearGradient
       id="linearGradient3737-50">
      <stop
         id="stop3739-31"
         style="stop-color:#ffffff;stop-opacity:1"
         offset="0" />
      <stop
         id="stop3741-801"
         style="stop-color:#ffffff;stop-opacity:0"
         offset="1" />
    </linearGradient>
    <clipPath
       id="clipPath3613-7">
      <rect
         width="84"
         height="84"
         rx="6"
         ry="6"
         x="6"
         y="6"
         id="rect3615-9"
         style="fill:#ffffff;fill-opacity:1;fill-rule:nonzero;stroke:none" />
    </clipPath>
    <filter
       x="-0.192"
       y="-0.192"
       width="1.3839999"
       height="1.3839999"
       color-interpolation-filters="sRGB"
       id="filter3794-10">
      <feGaussianBlur
         id="feGaussianBlur3796-35"
         stdDeviation="5.28" />
    </filter>
  </defs>
  <sodipodi:namedview
     id="base"
     pagecolor="#ffffff"
     bordercolor="#666666"
     borderopacity="1.0"
     inkscape:pageopacity="0.0"
     inkscape:pageshadow="2"
     inkscape:zoom="3.959798"
     inkscape:cx="28.389459"
     inkscape:cy="57.490015"
     inkscape:document-units="px"
     inkscape:current-layer="layer1"
     showgrid="false"
     inkscape:window-width="1280"
     inkscape:window-height="725"
     inkscape:window-x="0"
     inkscape:window-y="25"
     inkscape:window-maximized="1" />
  <metadata
     id="metadata7">
    <rdf:RDF>
      <cc:Work
         rdf:about="">
        <dc:format>image/svg+xml</dc:format>
        <dc:type
           rdf:resource="http://purl.org/dc/dcmitype/StillImage" />
        <dc:title></dc:title>
      </cc:Work>
    </rdf:RDF>
  </metadata>
  <g
     inkscape:label="Layer 1"
     inkscape:groupmode="layer"
     id="layer1"
     transform="translate(0,-956.36217)">
    <g
       transform="translate(0,-1e-5)"
       id="g6857">
      <rect
         transform="translate(0,-7.8515622e-6)"
         y="964.36218"
         x="8"
         height="80"
         width="80"
         id="rect9283"
         style="fill:#000000;fill-opacity:1;stroke:none;filter:url(#filter6279)"
         rx="5"
         ry="5" />
      <rect
         ry="5"
         rx="5"
         style="fill:url(#linearGradient5801);fill-opacity:1;stroke:none"
         id="rect9285"
         width="80"
         height="80"
         x="8"
         y="964.36218" />
      <g
         id="layer3"
         transform="matrix(0.6547619,0,0,0.6547619,16.678429,972.90861)">
        <g
           id="g4127"
           clip-path="url(#clipPath4165)">
          <path
             style="fill:url(#radialGradient4393);fill-opacity:1;stroke:none"
             id="path3620"
             transform="translate(2,0)"
             d="m 31.249999,22.607143 a 8.0357141,8.0357141 0 1 1 -16.071428,0 8.0357141,8.0357141 0 1 1 16.071428,0 z"
             inkscape:connector-curvature="0" />
          <path
             style="fill:url(#radialGradient4045);fill-opacity:1;stroke:none"
             id="path3622"
             d="m 46.785713,28.678572 a 4.107143,4.107143 0 1 1 -8.214286,0 4.107143,4.107143 0 1 1 8.214286,0 z"
             inkscape:connector-curvature="0" />
          <path
             style="fill:url(#radialGradient4047);fill-opacity:1;stroke:none"
             id="path3624"
             d="m 55.17857,23.5 a 2.1428571,2.1428571 0 1 1 -4.285714,0 2.1428571,2.1428571 0 1 1 4.285714,0 z"
             inkscape:connector-curvature="0" />
          <path
             style="fill:url(#radialGradient4049);fill-opacity:1;stroke:none"
             id="path3626"
             d="m 67.32143,35.82143 a 5.357143,5.357143 0 1 1 -10.714286,0 5.357143,5.357143 0 1 1 10.714286,0 z"
             inkscape:connector-curvature="0" />
          <path
             style="fill:url(#radialGradient4051);fill-opacity:1;stroke:none"
             id="path3628"
             d="m 36.25,59.75 a 6.607143,6.607143 0 1 1 -13.214286,0 6.607143,6.607143 0 1 1 13.214286,0 z"
             inkscape:connector-curvature="0" />
          <path
             style="fill:url(#radialGradient4053);fill-opacity:1;stroke:none"
             id="path3630"
             transform="matrix(1.173913,0,0,1.173913,-12.639752,-13.248447)"
             d="m 72.678573,67.964287 a 8.214286,8.214286 0 1 1 -16.428572,0 8.214286,8.214286 0 1 1 16.428572,0 z"
             inkscape:connector-curvature="0" />
          <path
             style="fill:url(#radialGradient4055);fill-opacity:1;stroke:none"
             id="path3632"
             d="m 51.42857,55.285713 a 3.3928571,3.3928571 0 1 1 -6.785714,0 3.3928571,3.3928571 0 1 1 6.785714,0 z"
             inkscape:connector-curvature="0" />
          <path
             style="fill:url(#radialGradient4125);fill-opacity:1;stroke:none"
             id="path3634"
             transform="translate(-1,0)"
             d="m 18.928571,74.035713 a 7.8571429,7.8571429 0 1 1 -15.7142856,0 7.8571429,7.8571429 0 1 1 15.7142856,0 z"
             inkscape:connector-curvature="0" />
          <path
             style="fill:url(#radialGradient4059);fill-opacity:1;stroke:none"
             id="path3636"
             transform="translate(-1.4285714,-2.1428571)"
             d="m 37.5,85.64286 a 4.107143,4.107143 0 1 1 -8.214286,0 4.107143,4.107143 0 1 1 8.214286,0 z"
             inkscape:connector-curvature="0" />
          <path
             style="fill:url(#radialGradient4061);fill-opacity:1;stroke:none"
             id="path3638"
             transform="translate(1.4285714,3.0357143)"
             d="m 55.714286,85.10714 a 5.357143,5.357143 0 1 1 -10.714286,0 5.357143,5.357143 0 1 1 10.714286,0 z"
             inkscape:connector-curvature="0" />
          <path
             style="fill:url(#radialGradient4063);fill-opacity:1;stroke:none"
             id="path3640"
             d="m 76.428568,12.785714 a 3.5714285,3.5714285 0 1 1 -7.142857,0 3.5714285,3.5714285 0 1 1 7.142857,0 z"
             inkscape:connector-curvature="0" />
          <path
             style="fill:url(#radialGradient4065);fill-opacity:1;stroke:none"
             id="path3642"
             transform="translate(3.5714286,6.6071429)"
             d="m 88.928575,22.071428 a 9.2857145,9.2857145 0 1 1 -18.571429,0 9.2857145,9.2857145 0 1 1 18.571429,0 z"
             inkscape:connector-curvature="0" />
          <rect
             style="fill:url(#radialGradient4105);fill-opacity:1;stroke:none"
             id="rect3644"
             y="76.535713"
             x="75.714287"
             ry="4.2857141"
             rx="6"
             height="4.2857141"
             width="4.2857141" />
          <rect
             style="fill:url(#radialGradient4102);fill-opacity:1;stroke:none"
             id="rect3646"
             y="63.142857"
             x="77.142853"
             ry="4.2857141"
             rx="6"
             height="9.6428576"
             width="9.6428576" />
          <path
             style="fill:url(#radialGradient4121);fill-opacity:1;stroke:none"
             id="path3648"
             transform="translate(2,0)"
             d="m 15.357143,33.142857 a 3.2142856,3.2142856 0 1 1 -6.4285711,0 3.2142856,3.2142856 0 1 1 6.4285711,0 z"
             inkscape:connector-curvature="0" />
          <path
             style="fill:url(#radialGradient4073);fill-opacity:1;stroke:none"
             id="path3650"
             d="m 39.999999,3.1428571 a 6.071429,6.071429 0 1 1 -12.142858,0 6.071429,6.071429 0 1 1 12.142858,0 z"
             inkscape:connector-curvature="0" />
          <path
             style="fill:url(#radialGradient4119);fill-opacity:1;stroke:none"
             id="path3652"
             transform="translate(2,3.3928571)"
             d="m 8.3928571,15.107142 a 7.1428571,6.9642859 0 1 1 -14.2857142,0 7.1428571,6.9642859 0 1 1 14.2857142,0 z"
             inkscape:connector-curvature="0" />
          <path
             style="fill:url(#radialGradient4077);fill-opacity:1;stroke:none"
             id="path3656"
             transform="translate(5,-0.71428571)"
             d="m 62.5,6.9821429 a 2.7678571,2.7678571 0 1 1 -5.535714,0 2.7678571,2.7678571 0 1 1 5.535714,0 z"
             inkscape:connector-curvature="0" />
          <path
             style="opacity:0.5;fill:#ffffff;fill-opacity:1;stroke:none"
             id="path3989"
             inkscape:connector-curvature="0"
             d="m 27.875,3.78125 c -0.0076,0.1241111 -0.03125,0.2490475 -0.03125,0.375 0,3.3531575 2.740592,6.0625 6.09375,6.0625 3.353158,0 6.0625,-2.7093425 6.0625,-6.0625 0,-0.1259525 -0.02371,-0.2508889 -0.03125,-0.375 -0.309937,3.0605739 -2.887664,5.4375 -6.03125,5.4375 -3.143586,0 -5.74913,-2.3769261 -6.0625,-5.4375 z" />
          <path
             style="opacity:0.5;fill:#ffffff;fill-opacity:1;stroke:none"
             id="path3987"
             inkscape:connector-curvature="0"
             d="m 62.03125,6.84375 c -0.0224,0.1429745 -0.0625,0.2883639 -0.0625,0.4375 0,1.5286453 1.221355,2.75 2.75,2.75 1.528645,0 2.78125,-1.2213547 2.78125,-2.75 0,-0.1491361 -0.03956,-0.2945255 -0.0625,-0.4375 -0.260656,1.2578478 -1.381186,2.1875 -2.71875,2.1875 -1.337564,0 -2.432826,-0.9296522 -2.6875,-2.1875 z" />
          <path
             style="opacity:0.5;fill:#ffffff;fill-opacity:1;stroke:none"
             id="path3985"
             inkscape:connector-curvature="0"
             d="m 69.3125,13.28125 c -0.02316,0.164608 -0.03125,0.328845 -0.03125,0.5 0,1.972446 1.590054,3.5625 3.5625,3.5625 1.972446,0 3.59375,-1.590054 3.59375,-3.5625 0,-0.171155 -0.0077,-0.335392 -0.03125,-0.5 -0.248222,1.732383 -1.761209,3.0625 -3.5625,3.0625 -1.801291,0 -3.287551,-1.330117 -3.53125,-3.0625 z" />
          <path
             style="opacity:0.5;fill:#ffffff;fill-opacity:1;stroke:none"
             id="path3983"
             inkscape:connector-curvature="0"
             d="m -3.875,19 c -0.011957,0.164429 -0.03125,0.332633 -0.03125,0.5 0,3.846269 3.211359,6.96875 7.15625,6.96875 3.944891,0 7.15625,-3.122481 7.15625,-6.96875 0,-0.167367 -0.01929,-0.335571 -0.03125,-0.5 -0.26283,3.614309 -3.3517676,6.46875 -7.125,6.46875 -3.7732324,0 -6.8621697,-2.854441 -7.125,-6.46875 z" />
          <path
             style="opacity:0.5;fill:#ffffff;fill-opacity:1;stroke:none"
             id="path3981"
             inkscape:connector-curvature="0"
             d="m 17.21875,23.09375 c -0.01049,0.168189 -0.03125,0.32915 -0.03125,0.5 0,4.438002 3.593248,8.0625 8.03125,8.0625 4.438002,0 8.03125,-3.624498 8.03125,-8.0625 0,-0.17085 -0.02076,-0.331811 -0.03125,-0.5 -0.262092,4.202923 -3.732848,7.5625 -8,7.5625 -4.267152,0 -7.737908,-3.359577 -8,-7.5625 z" />
          <path
             style="opacity:0.5;fill:#ffffff;fill-opacity:1;stroke:none"
             id="path3979"
             inkscape:connector-curvature="0"
             d="m 50.96875,24 c -0.03759,0.160694 -0.0625,0.328077 -0.0625,0.5 0,1.183467 0.941533,2.15625 2.125,2.15625 1.183467,0 2.15625,-0.972783 2.15625,-2.15625 0,-0.171923 -0.02378,-0.339306 -0.0625,-0.5 -0.227828,0.945478 -1.082206,1.65625 -2.09375,1.65625 -1.011544,0 -1.841305,-0.710772 -2.0625,-1.65625 z" />
          <path
             style="opacity:0.5;fill:#ffffff;fill-opacity:1;stroke:none"
             id="path3977"
             inkscape:connector-curvature="0"
             d="m 38.625,29.1875 c -0.01985,0.163158 -0.0625,0.331721 -0.0625,0.5 0,2.268312 1.856688,4.09375 4.125,4.09375 2.268312,0 4.09375,-1.825438 4.09375,-4.09375 0,-0.168279 -0.04297,-0.336842 -0.0625,-0.5 -0.251927,2.023112 -1.937615,3.59375 -4.03125,3.59375 -2.093635,0 -3.806473,-1.570638 -4.0625,-3.59375 z" />
          <path
             style="opacity:0.5;fill:#ffffff;fill-opacity:1;stroke:none"
             id="path3975"
             inkscape:connector-curvature="0"
             d="m 73.96875,29.1875 c -0.0091,0.168614 -0.03125,0.329102 -0.03125,0.5 0,5.128358 4.152892,9.28125 9.28125,9.28125 5.128358,0 9.28125,-4.152892 9.28125,-9.28125 0,-0.170898 -0.02214,-0.331386 -0.03125,-0.5 -0.264148,4.891202 -4.29254,8.78125 -9.25,8.78125 -4.95746,0 -8.985852,-3.890048 -9.25,-8.78125 z" />
          <path
             style="opacity:0.5;fill:#ffffff;fill-opacity:1;stroke:none"
             id="path3973"
             inkscape:connector-curvature="0"
             d="m 11,33.65625 c -0.02537,0.162523 -0.0625,0.330458 -0.0625,0.5 0,1.775201 1.443549,3.1875 3.21875,3.1875 1.775201,0 3.1875,-1.412299 3.1875,-3.1875 0,-0.169542 -0.03765,-0.337477 -0.0625,-0.5 -0.235343,1.534304 -1.519341,2.6875 -3.125,2.6875 -1.605659,0 -2.916023,-1.153196 -3.15625,-2.6875 z" />
          <path
             style="opacity:0.5;fill:#ffffff;fill-opacity:1;stroke:none"
             id="path3971"
             inkscape:connector-curvature="0"
             d="m 56.625,36.375 c -0.01122,0.141026 -0.03125,0.293549 -0.03125,0.4375 0,2.958668 2.416332,5.375 5.375,5.375 2.958668,0 5.34375,-2.416332 5.34375,-5.375 0,-0.143951 -0.02017,-0.296474 -0.03125,-0.4375 -0.272868,2.703333 -2.538749,4.8125 -5.3125,4.8125 -2.773751,0 -5.067449,-2.109167 -5.34375,-4.8125 z" />
          <path
             style="opacity:0.5;fill:#ffffff;fill-opacity:1;stroke:none"
             id="path3969"
             inkscape:connector-curvature="0"
             d="m 44.6875,55.78125 c -0.02385,0.162942 -0.03125,0.330089 -0.03125,0.5 0,1.873823 1.501177,3.40625 3.375,3.40625 1.873823,0 3.40625,-1.532427 3.40625,-3.40625 0,-0.169911 -0.0069,-0.337058 -0.03125,-0.5 -0.243805,1.638708 -1.671088,2.90625 -3.375,2.90625 -1.703912,0 -3.104631,-1.267542 -3.34375,-2.90625 z" />
          <path
             style="opacity:0.5;fill:#ffffff;fill-opacity:1;stroke:none"
             id="path3967"
             inkscape:connector-curvature="0"
             d="m 23.0625,60.25 c -0.0121,0.162867 -0.03125,0.334007 -0.03125,0.5 0,3.649024 2.975976,6.59375 6.625,6.59375 3.649024,0 6.59375,-2.944726 6.59375,-6.59375 0,-0.165993 -0.01927,-0.337133 -0.03125,-0.5 -0.251297,3.417444 -3.079469,6.09375 -6.5625,6.09375 -3.483031,0 -6.339863,-2.676306 -6.59375,-6.09375 z" />
          <path
             style="opacity:0.5;fill:#ffffff;fill-opacity:1;stroke:none"
             id="path3963"
             inkscape:connector-curvature="0"
             d="m 77.15625,68.5 0,1 c 0,2.374286 2.141428,4.28125 4.8125,4.28125 2.671072,0 4.8125,-1.906964 4.8125,-4.28125 l 0,-1 c 0,2.374286 -2.141428,4.28125 -4.8125,4.28125 -2.671072,0 -4.8125,-1.906964 -4.8125,-4.28125 z" />
          <path
             style="opacity:0.5;fill:#ffffff;fill-opacity:1;stroke:none"
             id="path3961"
             inkscape:connector-curvature="0"
             d="m 2.25,74.53125 c -0.010235,0.164426 -0.03125,0.332947 -0.03125,0.5 0,4.33938 3.5043698,7.875 7.84375,7.875 4.33938,0 7.875,-3.53562 7.875,-7.875 0,-0.167053 -0.02093,-0.335574 -0.03125,-0.5 -0.257849,4.108931 -3.671423,7.375 -7.84375,7.375 -4.1723269,0 -7.5568751,-3.266069 -7.8125,-7.375 z" />
          <path
             style="opacity:0.5;fill:#ffffff;fill-opacity:1;stroke:none"
             id="path3959"
             inkscape:connector-curvature="0"
             d="m 75.78125,79.1875 c -0.03747,0.160951 -0.0625,0.327543 -0.0625,0.5 0,1.187143 0.937857,2.125 2.125,2.125 1.187143,0 2.15625,-0.937857 2.15625,-2.125 0,-0.172457 -0.0239,-0.339049 -0.0625,-0.5 -0.227114,0.94036 -1.079064,1.625 -2.09375,1.625 -1.014686,0 -1.842019,-0.68464 -2.0625,-1.625 z" />
          <path
             style="opacity:0.5;fill:#ffffff;fill-opacity:1;stroke:none"
             id="path3957"
             inkscape:connector-curvature="0"
             d="m 27.90625,84 c -0.02136,0.168793 -0.0625,0.325323 -0.0625,0.5 0,2.268312 1.856688,4.09375 4.125,4.09375 2.268312,0 4.09375,-1.825438 4.09375,-4.09375 0,-0.174677 -0.04148,-0.331207 -0.0625,-0.5 -0.251927,2.023112 -1.937615,3.59375 -4.03125,3.59375 -2.093635,0 -3.806473,-1.570638 -4.0625,-3.59375 z" />
          <path
             style="opacity:0.5;fill:#ffffff;fill-opacity:1;stroke:none"
             id="path3658"
             inkscape:connector-curvature="0"
             d="m 46.46875,88.71875 c -0.01108,0.141167 -0.03125,0.293549 -0.03125,0.4375 0,2.958668 2.385082,5.34375 5.34375,5.34375 2.958668,0 5.375,-2.385082 5.375,-5.34375 0,-0.143951 -0.02003,-0.296333 -0.03125,-0.4375 -0.276301,2.6999 -2.569999,4.78125 -5.34375,4.78125 -2.773751,0 -5.039632,-2.08135 -5.3125,-4.78125 z" />
          <path
             style="opacity:0.5;fill:#ffffff;fill-opacity:1;stroke:none"
             id="path3991"
             inkscape:connector-curvature="0"
             d="m 53.4375,67.03125 c -0.0089,0.169747 -0.03125,0.328039 -0.03125,0.5 0,5.325603 4.299397,9.65625 9.625,9.65625 5.325603,0 9.65625,-4.330647 9.65625,-9.65625 0,-0.171771 -0.02238,-0.330438 -0.03125,-0.5 -0.258266,5.094995 -4.465822,9.15625 -9.625,9.15625 -5.159015,0 -9.335243,-4.061481 -9.59375,-9.15625 z" />
        </g>
      </g>
      <g
         id="layer5"
         transform="translate(0,956.36218)">
        <rect
           style="opacity:0.1;fill:url(#linearGradient3421-9);fill-opacity:1;fill-rule:nonzero;stroke:#ffffff;stroke-width:0.5;stroke-linecap:round;stroke-linejoin:miter;stroke-miterlimit:4;stroke-opacity:1;stroke-dasharray:none;stroke-dashoffset:0;filter:url(#filter3794-10)"
           id="rect3171"
           clip-path="url(#clipPath3613-7)"
           y="15"
           x="15"
           ry="12"
           rx="12"
           height="66"
           width="66" />
      </g>
    </g>
  </g>
</svg>
