<?xml version="1.0" encoding="UTF-8" standalone="no"?>
<!-- Created with Inkscape (http://www.inkscape.org/) -->

<svg
   xmlns:dc="http://purl.org/dc/elements/1.1/"
   xmlns:cc="http://creativecommons.org/ns#"
   xmlns:rdf="http://www.w3.org/1999/02/22-rdf-syntax-ns#"
   xmlns:svg="http://www.w3.org/2000/svg"
   xmlns="http://www.w3.org/2000/svg"
   xmlns:xlink="http://www.w3.org/1999/xlink"
   xmlns:sodipodi="http://sodipodi.sourceforge.net/DTD/sodipodi-0.dtd"
   xmlns:inkscape="http://www.inkscape.org/namespaces/inkscape"
   width="96"
   height="96"
   id="svg2"
   version="1.1"
   inkscape:version="0.48.1 r9760"
   sodipodi:docname="comix.svg">
  <defs
     id="defs4">
    <filter
       color-interpolation-filters="sRGB"
       inkscape:collect="always"
       id="filter6279">
      <feGaussianBlur
         inkscape:collect="always"
         stdDeviation="0.8"
         id="feGaussianBlur6281" />
    </filter>
    <linearGradient
       inkscape:collect="always"
       xlink:href="#linearGradient6782"
       id="linearGradient5801"
       gradientUnits="userSpaceOnUse"
       gradientTransform="translate(0,-7.8515622e-6)"
       x1="48"
       y1="1052.3622"
       x2="48"
       y2="902.36218" />
    <linearGradient
       id="linearGradient6782">
      <stop
         id="stop6784"
         style="stop-color:#fce94f;stop-opacity:1"
         offset="0" />
      <stop
         id="stop6786"
         style="stop-color:#a7cc5c;stop-opacity:1"
         offset="0.69999999" />
      <stop
         id="stop6788"
         style="stop-color:#789e2d;stop-opacity:1"
         offset="1" />
    </linearGradient>
    <radialGradient
       inkscape:collect="always"
       xlink:href="#linearGradient4487"
       id="radialGradient5932"
       gradientUnits="userSpaceOnUse"
       gradientTransform="matrix(0.89655172,0,0,0.29885057,5.0655173,1005.6725)"
       cx="48"
       cy="72"
       fx="48"
       fy="72"
       r="24" />
    <linearGradient
       id="linearGradient4487">
      <stop
         id="stop4489"
         style="stop-color:#000000;stop-opacity:1"
         offset="0" />
      <stop
         id="stop4495"
         style="stop-color:#000000;stop-opacity:0.13709678"
         offset="0.79462785" />
      <stop
         id="stop4491"
         style="stop-color:#000000;stop-opacity:0"
         offset="1" />
    </linearGradient>
    <radialGradient
       inkscape:collect="always"
       xlink:href="#linearGradient6782"
       id="radialGradient5924"
       gradientUnits="userSpaceOnUse"
       gradientTransform="matrix(2.7986752,0,0,-3.4159344,-833.39108,1606.7041)"
       cx="314.96875"
       cy="173.48248"
       fx="314.96875"
       fy="173.48248"
       r="9.03125" />
    <linearGradient
       id="linearGradient5869">
      <stop
         id="stop5871"
         style="stop-color:#fce94f;stop-opacity:1"
         offset="0" />
      <stop
         id="stop5873"
         style="stop-color:#a7cc5c;stop-opacity:1"
         offset="0.69999999" />
      <stop
         id="stop5875"
         style="stop-color:#789e2d;stop-opacity:1"
         offset="1" />
    </linearGradient>
    <clipPath
       id="clipPath11530">
      <path
         d="m 118.625,209.5 c 2.58333,-0.38773 5.16667,-0.51062 7.75,0.75 0,0 0.28209,5.48132 -1.625,5.625 -2.37827,0.17918 -6.125,-6.375 -6.125,-6.375 z"
         inkscape:connector-curvature="0"
         id="path11532"
         style="fill:none;stroke:#000000;stroke-width:0.0875215;stroke-linecap:butt;stroke-linejoin:miter;stroke-miterlimit:4;stroke-opacity:1;stroke-dasharray:none;stroke-dashoffset:0;marker:none;visibility:visible;display:inline;overflow:visible" />
    </clipPath>
    <linearGradient
       inkscape:collect="always"
       xlink:href="#linearGradient11579"
       id="linearGradient5820"
       gradientUnits="userSpaceOnUse"
       gradientTransform="matrix(0.0875215,0,0,0.0875215,302.93664,165.20034)"
       x1="182.1021"
       y1="187.81308"
       x2="183.49422"
       y2="191.96733" />
    <linearGradient
       id="linearGradient11579">
      <stop
         id="stop11581"
         style="stop-color:#000000;stop-opacity:1"
         offset="0" />
      <stop
         id="stop11583"
         style="stop-color:#000000;stop-opacity:0"
         offset="1" />
    </linearGradient>
    <clipPath
       id="clipPath5883">
      <path
         d="m 118.625,209.5 c 2.58333,-0.38773 5.16667,-0.51062 7.75,0.75 0,0 0.28209,5.48132 -1.625,5.625 -2.37827,0.17918 -6.125,-6.375 -6.125,-6.375 z"
         inkscape:connector-curvature="0"
         id="path5885"
         style="fill:none;stroke:#000000;stroke-width:0.0875215;stroke-linecap:butt;stroke-linejoin:miter;stroke-miterlimit:4;stroke-opacity:1;stroke-dasharray:none;stroke-dashoffset:0;marker:none;visibility:visible;display:inline;overflow:visible" />
    </clipPath>
    <linearGradient
       inkscape:collect="always"
       xlink:href="#linearGradient11579"
       id="linearGradient5822"
       gradientUnits="userSpaceOnUse"
       gradientTransform="matrix(0.0875215,0,0,0.0875215,302.92809,165.21598)"
       x1="182.1021"
       y1="187.81308"
       x2="183.49422"
       y2="191.96733" />
    <linearGradient
       id="linearGradient5888">
      <stop
         id="stop5890"
         style="stop-color:#000000;stop-opacity:1"
         offset="0" />
      <stop
         id="stop5892"
         style="stop-color:#000000;stop-opacity:0"
         offset="1" />
    </linearGradient>
    <linearGradient
       inkscape:collect="always"
       xlink:href="#linearGradient6005"
       id="linearGradient5824"
       gradientUnits="userSpaceOnUse"
       x1="312.3125"
       y1="175.375"
       x2="316.6875"
       y2="175.375" />
    <linearGradient
       id="linearGradient6005">
      <stop
         id="stop6007"
         style="stop-color:#ffffff;stop-opacity:1"
         offset="0" />
      <stop
         id="stop6009"
         style="stop-color:#ffffff;stop-opacity:0"
         offset="1" />
    </linearGradient>
    <clipPath
       id="clipPath5690">
      <path
         inkscape:connector-curvature="0"
         d="m 314.96875,169.4375 c -4.64751,0 -8.40625,3.75874 -8.40625,8.40625 0,4.64751 3.75874,8.40625 8.40625,8.40625 4.64751,0 8.40625,-3.75874 8.40625,-8.40625 0,-4.64751 -3.75874,-8.40625 -8.40625,-8.40625 z"
         transform="matrix(0.70852,0,0,0.709344,91.3497,52.938)"
         id="path5692"
         style="fill:#e9b96e;fill-opacity:1;fill-rule:nonzero;stroke:url(#radialGradient5694) #000000;stroke-width:0.61879402;stroke-linecap:round;stroke-linejoin:round;stroke-miterlimit:4;stroke-opacity:1;stroke-dasharray:none;stroke-dashoffset:0;marker:none;visibility:visible;display:inline;overflow:visible" />
    </clipPath>
    <radialGradient
       inkscape:collect="always"
       xlink:href="#linearGradient6005"
       id="radialGradient5906"
       gradientUnits="userSpaceOnUse"
       gradientTransform="matrix(0.24961207,0,0,0.13330662,12.821963,988.71892)"
       cx="140.19348"
       cy="273.69705"
       fx="140.19348"
       fy="273.69705"
       r="81.986084" />
    <linearGradient
       id="linearGradient5901">
      <stop
         id="stop5903"
         style="stop-color:#ffffff;stop-opacity:1"
         offset="0" />
      <stop
         id="stop5905"
         style="stop-color:#ffffff;stop-opacity:0"
         offset="1" />
    </linearGradient>
    <radialGradient
       inkscape:collect="always"
       xlink:href="#linearGradient6499"
       id="radialGradient5903"
       gradientUnits="userSpaceOnUse"
       gradientTransform="matrix(3.8465938,0,-1.398121e-4,-4.152413,-1163.8327,1728.8606)"
       cx="315.07254"
       cy="169.69044"
       fx="315.07254"
       fy="169.69044"
       r="8.6255913" />
    <linearGradient
       id="linearGradient6499">
      <stop
         id="stop6501"
         style="stop-color:#ffffff;stop-opacity:1"
         offset="0" />
      <stop
         id="stop6503"
         style="stop-color:#a7cc5c;stop-opacity:0.24193548"
         offset="1" />
    </linearGradient>
    <radialGradient
       inkscape:collect="always"
       xlink:href="#linearGradient6537"
       id="radialGradient5830"
       gradientUnits="userSpaceOnUse"
       gradientTransform="matrix(1,0,0,0.654798,0,24.0225)"
       cx="177.5556"
       cy="69.5896"
       fx="177.5556"
       fy="69.5896"
       r="9.4960012" />
    <linearGradient
       id="linearGradient6537">
      <stop
         id="stop6539"
         style="stop-color:#000000;stop-opacity:1"
         offset="0" />
      <stop
         id="stop6541"
         style="stop-color:#000000;stop-opacity:0"
         offset="1" />
    </linearGradient>
    <radialGradient
       inkscape:collect="always"
       xlink:href="#linearGradient6537"
       id="radialGradient5832"
       gradientUnits="userSpaceOnUse"
       gradientTransform="matrix(1,0,0,0.654798,0,24.0225)"
       cx="177.5556"
       cy="69.5896"
       fx="177.5556"
       fy="69.5896"
       r="9.4960012" />
    <linearGradient
       id="linearGradient5916">
      <stop
         id="stop5918"
         style="stop-color:#000000;stop-opacity:1"
         offset="0" />
      <stop
         id="stop5920"
         style="stop-color:#000000;stop-opacity:0"
         offset="1" />
    </linearGradient>
    <radialGradient
       inkscape:collect="always"
       xlink:href="#linearGradient6808"
       id="radialGradient5834"
       gradientUnits="userSpaceOnUse"
       gradientTransform="matrix(0.9215132,0.2781314,-1.3177176,3.5229476,249.73513,-518.24733)"
       cx="318.60828"
       cy="170.59293"
       fx="318.60828"
       fy="170.59293"
       r="0.82419753" />
    <linearGradient
       id="linearGradient6808">
      <stop
         id="stop6810"
         style="stop-color:#244206;stop-opacity:1"
         offset="0" />
      <stop
         id="stop6812"
         style="stop-color:#000000;stop-opacity:1"
         offset="1" />
    </linearGradient>
    <linearGradient
       inkscape:collect="always"
       xlink:href="#linearGradient6597"
       id="linearGradient5836"
       gradientUnits="userSpaceOnUse"
       x1="169.5137"
       y1="55.164879"
       x2="180.91669"
       y2="57.766956" />
    <linearGradient
       id="linearGradient6597">
      <stop
         id="stop6599"
         style="stop-color:#eeeeec;stop-opacity:0"
         offset="0" />
      <stop
         id="stop6605"
         style="stop-color:#ffffff;stop-opacity:1"
         offset="0.52820206" />
      <stop
         id="stop6601"
         style="stop-color:#eeeeec;stop-opacity:0"
         offset="1" />
    </linearGradient>
    <filter
       x="-0.31940347"
       y="-0.062722519"
       width="1.6388071"
       height="1.125445"
       color-interpolation-filters="sRGB"
       id="filter6531">
      <feGaussianBlur
         stdDeviation="0.6221794"
         id="feGaussianBlur6533" />
    </filter>
    <radialGradient
       inkscape:collect="always"
       xlink:href="#linearGradient4008"
       id="radialGradient5838"
       gradientUnits="userSpaceOnUse"
       gradientTransform="matrix(5.5457,0,0,5.2229,-825.952,-246.098)"
       cx="182.12123"
       cy="58.899124"
       fx="182.12123"
       fy="58.899124"
       r="2.3375301" />
    <linearGradient
       id="linearGradient4008">
      <stop
         id="stop4010-8"
         style="stop-color:#fff9e8;stop-opacity:1"
         offset="0" />
      <stop
         id="stop4012-8"
         style="stop-color:#a7cc5c;stop-opacity:1"
         offset="1" />
    </linearGradient>
    <filter
       x="-0.31940347"
       y="-0.062722519"
       width="1.6388071"
       height="1.125445"
       color-interpolation-filters="sRGB"
       id="filter5937">
      <feGaussianBlur
         stdDeviation="0.6221794"
         id="feGaussianBlur5939" />
    </filter>
    <radialGradient
       inkscape:collect="always"
       xlink:href="#linearGradient6537"
       id="radialGradient5840"
       gradientUnits="userSpaceOnUse"
       gradientTransform="matrix(1,0,0,0.654798,0,24.0225)"
       cx="177.5556"
       cy="69.5896"
       fx="177.5556"
       fy="69.5896"
       r="9.4960012" />
    <linearGradient
       id="linearGradient5942">
      <stop
         id="stop5944"
         style="stop-color:#000000;stop-opacity:1"
         offset="0" />
      <stop
         id="stop5946"
         style="stop-color:#000000;stop-opacity:0"
         offset="1" />
    </linearGradient>
    <radialGradient
       inkscape:collect="always"
       xlink:href="#linearGradient6537"
       id="radialGradient5842"
       gradientUnits="userSpaceOnUse"
       gradientTransform="matrix(1,0,0,0.654798,0,24.0225)"
       cx="177.5556"
       cy="69.5896"
       fx="177.5556"
       fy="69.5896"
       r="9.4960012" />
    <linearGradient
       id="linearGradient5949">
      <stop
         id="stop5951"
         style="stop-color:#000000;stop-opacity:1"
         offset="0" />
      <stop
         id="stop5953"
         style="stop-color:#000000;stop-opacity:0"
         offset="1" />
    </linearGradient>
    <radialGradient
       inkscape:collect="always"
       xlink:href="#linearGradient6820"
       id="radialGradient5844"
       gradientUnits="userSpaceOnUse"
       gradientTransform="matrix(0.9755308,0.2659644,-1.46191,3.5985779,257.06371,-527.35152)"
       cx="318.60828"
       cy="170.59293"
       fx="318.60828"
       fy="170.59293"
       r="0.82419753" />
    <linearGradient
       id="linearGradient6820">
      <stop
         id="stop6822"
         style="stop-color:#244206;stop-opacity:1"
         offset="0" />
      <stop
         id="stop6824"
         style="stop-color:#000000;stop-opacity:1"
         offset="1" />
    </linearGradient>
    <radialGradient
       inkscape:collect="always"
       xlink:href="#linearGradient6320"
       id="radialGradient5846"
       gradientUnits="userSpaceOnUse"
       gradientTransform="matrix(1.30576,0.343183,-2.81145,10.6971,110.55,-617.947)"
       cx="173.32843"
       cy="58.523705"
       fx="173.32843"
       fy="58.523705"
       r="4.8357935" />
    <linearGradient
       id="linearGradient6320">
      <stop
         id="stop6322"
         style="stop-color:#ffffff;stop-opacity:1"
         offset="0" />
      <stop
         id="stop6324"
         style="stop-color:#ffffff;stop-opacity:0"
         offset="1" />
    </linearGradient>
    <filter
       x="-0.26855683"
       y="-0.089254402"
       width="1.5371137"
       height="1.1785088"
       color-interpolation-filters="sRGB"
       id="filter6444">
      <feGaussianBlur
         stdDeviation="1.0822378"
         id="feGaussianBlur6446" />
    </filter>
    <radialGradient
       inkscape:collect="always"
       xlink:href="#linearGradient6814"
       id="radialGradient5848"
       gradientUnits="userSpaceOnUse"
       gradientTransform="matrix(5.5457,0,0,5.2229,-825.952,-246.098)"
       cx="182.12123"
       cy="58.899124"
       fx="182.12123"
       fy="58.899124"
       r="2.3375301" />
    <linearGradient
       id="linearGradient6814">
      <stop
         id="stop6816"
         style="stop-color:#a7cc5c;stop-opacity:1"
         offset="0" />
      <stop
         id="stop6818"
         style="stop-color:#a7cc5c;stop-opacity:0"
         offset="1" />
    </linearGradient>
    <filter
       x="-0.31940347"
       y="-0.062722519"
       width="1.6388071"
       height="1.125445"
       color-interpolation-filters="sRGB"
       id="filter5969">
      <feGaussianBlur
         stdDeviation="0.6221794"
         id="feGaussianBlur5971" />
    </filter>
    <radialGradient
       inkscape:collect="always"
       xlink:href="#linearGradient12297"
       id="radialGradient5850"
       gradientUnits="userSpaceOnUse"
       gradientTransform="matrix(1,0,0,0.492308,0,89.6458)"
       cx="142.75"
       cy="172.86737"
       fx="142.75"
       fy="172.86737"
       r="16.25" />
    <linearGradient
       id="linearGradient12297">
      <stop
         id="stop12299"
         style="stop-color:#fdfcbc;stop-opacity:1"
         offset="0" />
      <stop
         id="stop12301"
         style="stop-color:#fdfcbc;stop-opacity:0"
         offset="1" />
    </linearGradient>
    <filter
       x="-0.10702404"
       y="-0.081841066"
       width="1.2140481"
       height="1.1636821"
       color-interpolation-filters="sRGB"
       id="filter12325">
      <feGaussianBlur
         stdDeviation="1.4492839"
         id="feGaussianBlur12327" />
    </filter>
    <radialGradient
       inkscape:collect="always"
       xlink:href="#linearGradient12477"
       id="radialGradient5852"
       gradientUnits="userSpaceOnUse"
       gradientTransform="matrix(0.529412,-2.51372e-7,4.60027e-7,0.7,81.1764,34.5)"
       cx="172.5"
       cy="104.07143"
       fx="172.5"
       fy="104.07143"
       r="8.5" />
    <linearGradient
       id="linearGradient12477">
      <stop
         id="stop12479"
         style="stop-color:#616161;stop-opacity:1"
         offset="0" />
      <stop
         id="stop12481"
         style="stop-color:#000000;stop-opacity:1"
         offset="1" />
    </linearGradient>
    <radialGradient
       inkscape:collect="always"
       xlink:href="#linearGradient12495"
       id="radialGradient5854"
       gradientUnits="userSpaceOnUse"
       gradientTransform="matrix(1,0,0,2.64453,0,-212.81)"
       cx="175.625"
       cy="129.77148"
       fx="175.625"
       fy="129.77148"
       r="5.625" />
    <linearGradient
       id="linearGradient12495">
      <stop
         id="stop12497"
         style="stop-color:#616161;stop-opacity:1"
         offset="0" />
      <stop
         id="stop12499"
         style="stop-color:#616161;stop-opacity:0"
         offset="1" />
    </linearGradient>
    <filter
       x="-0.18306714"
       y="-0.15542249"
       width="1.3661343"
       height="1.310845"
       color-interpolation-filters="sRGB"
       id="filter12535">
      <feGaussianBlur
         stdDeviation="0.85812722"
         id="feGaussianBlur12537" />
    </filter>
    <radialGradient
       inkscape:collect="always"
       xlink:href="#linearGradient12297"
       id="radialGradient5856"
       gradientUnits="userSpaceOnUse"
       gradientTransform="matrix(1,0,0,0.492308,0,89.6458)"
       cx="142.75"
       cy="172.86737"
       fx="142.75"
       fy="172.86737"
       r="16.25" />
    <linearGradient
       id="linearGradient5990">
      <stop
         id="stop5992"
         style="stop-color:#fdfcbc;stop-opacity:1"
         offset="0" />
      <stop
         id="stop5994"
         style="stop-color:#fdfcbc;stop-opacity:0"
         offset="1" />
    </linearGradient>
    <filter
       x="-0.10702404"
       y="-0.081841066"
       width="1.2140481"
       height="1.1636821"
       color-interpolation-filters="sRGB"
       id="filter5996">
      <feGaussianBlur
         stdDeviation="1.4492839"
         id="feGaussianBlur5998" />
    </filter>
    <radialGradient
       inkscape:collect="always"
       xlink:href="#linearGradient12477"
       id="radialGradient5858"
       gradientUnits="userSpaceOnUse"
       gradientTransform="matrix(0.529412,-2.51372e-7,4.60027e-7,0.7,81.1764,34.5)"
       cx="172.5"
       cy="104.07143"
       fx="172.5"
       fy="104.07143"
       r="8.5" />
    <linearGradient
       id="linearGradient6001">
      <stop
         id="stop6003"
         style="stop-color:#616161;stop-opacity:1"
         offset="0" />
      <stop
         id="stop6005"
         style="stop-color:#000000;stop-opacity:1"
         offset="1" />
    </linearGradient>
    <radialGradient
       inkscape:collect="always"
       xlink:href="#linearGradient12495"
       id="radialGradient5860"
       gradientUnits="userSpaceOnUse"
       gradientTransform="matrix(1,0,0,2.64453,0,-212.81)"
       cx="175.625"
       cy="129.77148"
       fx="175.625"
       fy="129.77148"
       r="5.625" />
    <linearGradient
       id="linearGradient6008">
      <stop
         id="stop6010"
         style="stop-color:#616161;stop-opacity:1"
         offset="0" />
      <stop
         id="stop6012"
         style="stop-color:#616161;stop-opacity:0"
         offset="1" />
    </linearGradient>
    <filter
       x="-0.18306714"
       y="-0.15542249"
       width="1.3661343"
       height="1.310845"
       color-interpolation-filters="sRGB"
       id="filter6014">
      <feGaussianBlur
         stdDeviation="0.85812722"
         id="feGaussianBlur6016" />
    </filter>
    <radialGradient
       inkscape:collect="always"
       xlink:href="#linearGradient6537"
       id="radialGradient5862"
       gradientUnits="userSpaceOnUse"
       gradientTransform="matrix(1,0,0,0.654798,0,24.0225)"
       cx="177.5556"
       cy="69.5896"
       fx="177.5556"
       fy="69.5896"
       r="9.4960012" />
    <linearGradient
       id="linearGradient6019">
      <stop
         id="stop6021"
         style="stop-color:#000000;stop-opacity:1"
         offset="0" />
      <stop
         id="stop6023"
         style="stop-color:#000000;stop-opacity:0"
         offset="1" />
    </linearGradient>
    <radialGradient
       inkscape:collect="always"
       xlink:href="#linearGradient6537"
       id="radialGradient5864"
       gradientUnits="userSpaceOnUse"
       gradientTransform="matrix(1,0,0,0.654798,0,24.0225)"
       cx="177.5556"
       cy="69.5896"
       fx="177.5556"
       fy="69.5896"
       r="9.4960012" />
    <linearGradient
       id="linearGradient6026">
      <stop
         id="stop6028"
         style="stop-color:#000000;stop-opacity:1"
         offset="0" />
      <stop
         id="stop6030"
         style="stop-color:#000000;stop-opacity:0"
         offset="1" />
    </linearGradient>
    <radialGradient
       inkscape:collect="always"
       xlink:href="#linearGradient6537"
       id="radialGradient5866"
       gradientUnits="userSpaceOnUse"
       gradientTransform="matrix(1,0,0,0.654798,0,24.0225)"
       cx="177.5556"
       cy="69.5896"
       fx="177.5556"
       fy="69.5896"
       r="9.4960012" />
    <linearGradient
       id="linearGradient6033">
      <stop
         id="stop6035"
         style="stop-color:#000000;stop-opacity:1"
         offset="0" />
      <stop
         id="stop6037"
         style="stop-color:#000000;stop-opacity:0"
         offset="1" />
    </linearGradient>
    <radialGradient
       inkscape:collect="always"
       xlink:href="#linearGradient6537"
       id="radialGradient5868"
       gradientUnits="userSpaceOnUse"
       gradientTransform="matrix(1,0,0,0.654798,0,24.0225)"
       cx="177.5556"
       cy="69.5896"
       fx="177.5556"
       fy="69.5896"
       r="9.4960012" />
    <linearGradient
       id="linearGradient6040">
      <stop
         id="stop6042"
         style="stop-color:#000000;stop-opacity:1"
         offset="0" />
      <stop
         id="stop6044"
         style="stop-color:#000000;stop-opacity:0"
         offset="1" />
    </linearGradient>
  </defs>
  <sodipodi:namedview
     id="base"
     pagecolor="#ffffff"
     bordercolor="#666666"
     borderopacity="1.0"
     inkscape:pageopacity="0.0"
     inkscape:pageshadow="2"
     inkscape:zoom="3.959798"
     inkscape:cx="28.389459"
     inkscape:cy="57.490015"
     inkscape:document-units="px"
     inkscape:current-layer="layer1"
     showgrid="false"
     inkscape:window-width="1280"
     inkscape:window-height="725"
     inkscape:window-x="0"
     inkscape:window-y="25"
     inkscape:window-maximized="1" />
  <metadata
     id="metadata7">
    <rdf:RDF>
      <cc:Work
         rdf:about="">
        <dc:format>image/svg+xml</dc:format>
        <dc:type
           rdf:resource="http://purl.org/dc/dcmitype/StillImage" />
        <dc:title></dc:title>
      </cc:Work>
    </rdf:RDF>
  </metadata>
  <g
     inkscape:label="Layer 1"
     inkscape:groupmode="layer"
     id="layer1"
     transform="translate(0,-956.36217)">
    <g
       transform="translate(2.861023e-8,-9.737015e-6)"
       id="g5988">
      <rect
         transform="translate(0,-7.8515622e-6)"
         y="964.36218"
         x="8"
         height="80"
         width="80"
         id="rect9283"
         style="fill:#000000;fill-opacity:1;stroke:none;filter:url(#filter6279)"
         rx="5"
         ry="5" />
      <rect
         ry="5"
         rx="5"
         style="fill:url(#linearGradient5801);fill-opacity:1;stroke:none"
         id="rect9285"
         width="80"
         height="80"
         x="8"
         y="964.36218" />
      <g
         transform="matrix(1.7607569,0,0,1.7414948,-627.13443,714.61157)"
         id="g6024" />
      <g
         transform="matrix(4.0424863,0,0,4.9907791,-1241.9704,126.30585)"
         id="g6872"
         style="opacity:0.24630498" />
      <g
         id="g5934">
        <path
           style="opacity:0.76495726;fill:url(#radialGradient5932);fill-opacity:1;stroke:none"
           id="path4485"
           d="m 69.617241,1027.1898 a 21.517241,7.1724138 0 0 1 -43.034482,0 21.517241,7.1724138 0 1 1 43.034482,0 z"
           inkscape:connector-curvature="0" />
        <path
           style="opacity:0.3;fill:#000000;fill-opacity:1;fill-rule:nonzero;stroke:none;stroke-width:0.32387125;marker:none;visibility:visible;display:inline;overflow:visible"
           id="path4390"
           inkscape:connector-curvature="0"
           d="m 27.647414,979.58847 c -0.33727,0.005 -0.679065,0.15616 -0.784483,0.4763 -0.844475,2.55566 -0.662504,6.97355 1.625,9.60991 -2.897644,3.99034 -4.594828,8.89608 -4.594828,14.20472 0,13.3691 10.837797,24.2069 24.206897,24.2069 13.369099,0 24.206896,-10.8378 24.206896,-24.2069 0,-5.12194 -1.600215,-9.8727 -4.314655,-13.78446 2.694117,-2.66961 2.597424,-7.45833 1.428879,-10.08621 -0.271691,-0.61263 -1.492512,-0.53717 -1.596982,0.056 -0.386628,2.19417 -2.171323,4.3141 -3.950431,5.46336 -4.237929,-3.64759 -9.743563,-5.8556 -15.773707,-5.8556 -5.898781,0 -11.321863,2.09716 -15.521552,5.60344 -1.784522,-1.0553 -3.65832,-3.05982 -4.202586,-5.23922 -0.07434,-0.2977 -0.391179,-0.45313 -0.728448,-0.44828 z" />
        <path
           style="fill:url(#radialGradient5924);fill-opacity:1;fill-rule:nonzero;stroke:#42770c;stroke-width:0.89707196;stroke-linecap:round;stroke-linejoin:round;stroke-miterlimit:4;stroke-opacity:1;stroke-dasharray:none;stroke-dashoffset:0;marker:none;visibility:visible;display:inline;overflow:visible"
           id="path6824"
           d="m 71.730208,1002.7268 a 23.630208,23.630208 0 1 0 -47.260415,0 23.630208,23.630208 0 0 0 47.260415,0 z"
           inkscape:connector-curvature="0" />
        <g
           id="g2734"
           transform="matrix(1.1527094,0,0,1.1527094,19.52045,975.20311)">
          <g
             id="g5835"
             transform="matrix(-6.3250506,5.4648949,5.4648949,6.3250506,1037.8937,-2858.9753)">
            <g
               id="g5837"
               transform="matrix(-0.820668,0.571405,0.571405,0.820668,471.332,-148.098)">
              <path
                 style="fill:#a4ac9b;fill-opacity:1;fill-rule:nonzero;stroke:none;stroke-width:5;marker:none;visibility:visible;display:inline;overflow:visible"
                 id="path5839"
                 inkscape:connector-curvature="0"
                 d="m 313.21176,183.47929 c 0.22609,-0.0339 0.45219,-0.0447 0.67829,0.0657 0,0 0.0247,0.47973 -0.14223,0.4923 -0.20815,0.0157 -0.53606,-0.55795 -0.53606,-0.55795 z" />
              <path
                 style="opacity:0.6;fill:none;stroke:#000000;stroke-width:1.45190108;stroke-linecap:butt;stroke-linejoin:miter;stroke-miterlimit:4;stroke-opacity:1;stroke-dasharray:none;stroke-dashoffset:0;marker:none;visibility:visible;display:inline;overflow:visible"
                 id="path5841"
                 clip-path="url(#clipPath11530)"
                 transform="matrix(0.0875215,0,0,0.0875215,302.82958,165.14354)"
                 inkscape:connector-curvature="0"
                 d="m 118.625,209.5 c 2.58333,-0.38773 5.16667,-0.51062 7.75,0.75 0,0 0.28209,5.48132 -1.625,5.625 -2.37827,0.17918 -6.125,-6.375 -6.125,-6.375 z" />
              <path
                 style="fill:#ffffff;fill-opacity:1;fill-rule:nonzero;stroke:none;stroke-width:1;marker:none;visibility:visible;display:inline;overflow:visible"
                 id="path5843"
                 inkscape:connector-curvature="0"
                 d="m 313.70406,183.94972 c -0.15838,-0.088 -0.27148,-0.2666 -0.37196,-0.47043 l 0.22974,-0.0109 c 2.9e-4,0.17617 0.0545,0.33435 0.14222,0.48137 z" />
            </g>
            <path
               style="opacity:0.75247504;fill:url(#linearGradient5820);fill-opacity:1;fill-rule:nonzero;stroke:none;stroke-width:1;marker:none;visibility:visible;display:inline;overflow:visible"
               id="path5845"
               inkscape:connector-curvature="0"
               d="m 318.6134,181.89137 0.13151,0.18179 c 0.11446,-0.37326 0.24526,-0.49053 0.39066,-0.37905 l -0.004,-0.25142 c -0.18429,0.10922 -0.37372,0.20049 -0.5183,0.44868 z" />
          </g>
          <g
             id="g5823"
             transform="matrix(6.2400607,5.0819736,-5.0819736,6.2400607,-1030.7704,-2721.3999)">
            <g
               id="g5825"
               transform="matrix(-0.820668,0.571405,0.571405,0.820668,471.332,-148.098)">
              <path
                 style="fill:#a4ac9b;fill-opacity:1;fill-rule:nonzero;stroke:none;stroke-width:5;marker:none;visibility:visible;display:inline;overflow:visible"
                 id="path5827"
                 inkscape:connector-curvature="0"
                 d="m 313.2277,183.48724 c 0.22609,-0.0339 0.45219,-0.0447 0.67829,0.0656 0,0 0.0247,0.47973 -0.14223,0.4923 -0.20815,0.0157 -0.53606,-0.55795 -0.53606,-0.55795 z" />
              <path
                 style="opacity:0.6;fill:none;stroke:#000000;stroke-width:1.62595987;stroke-linecap:butt;stroke-linejoin:miter;stroke-miterlimit:4;stroke-opacity:1;stroke-dasharray:none;stroke-dashoffset:0;marker:none;visibility:visible;display:inline;overflow:visible"
                 id="path5829"
                 clip-path="url(#clipPath11530)"
                 transform="matrix(0.0875215,0,0,0.0875215,302.84552,165.15149)"
                 inkscape:connector-curvature="0"
                 d="m 118.625,209.5 c 2.58333,-0.38773 5.16667,-0.51062 7.75,0.75 0,0 0.28209,5.48132 -1.625,5.625 -2.37827,0.17918 -6.125,-6.375 -6.125,-6.375 z" />
              <path
                 style="fill:#ffffff;fill-opacity:1;fill-rule:nonzero;stroke:none;stroke-width:1;marker:none;visibility:visible;display:inline;overflow:visible"
                 id="path5831"
                 inkscape:connector-curvature="0"
                 d="m 313.72,183.95767 c -0.15838,-0.088 -0.27148,-0.2666 -0.37196,-0.47043 l 0.22974,-0.0109 c 2.9e-4,0.17617 0.0545,0.33435 0.14222,0.48137 z" />
            </g>
            <path
               style="opacity:0.38118801;fill:url(#linearGradient5822);fill-opacity:1;fill-rule:nonzero;stroke:none;stroke-width:1;marker:none;visibility:visible;display:inline;overflow:visible"
               id="path5833"
               inkscape:connector-curvature="0"
               d="m 318.60485,181.90701 0.13151,0.1818 c 0.11446,-0.37327 0.24526,-0.49054 0.39067,-0.37906 l -0.004,-0.25142 c -0.18429,0.10923 -0.37372,0.20049 -0.51831,0.44868 z" />
          </g>
        </g>
        <path
           style="fill:none;stroke:#000000;stroke-width:0.89699966;stroke-linecap:butt;stroke-linejoin:miter;stroke-miterlimit:4;stroke-opacity:1;stroke-dasharray:none"
           id="path2591"
           inkscape:connector-curvature="0"
           d="m 27.662834,1012.5245 40.920901,0" />
        <path
           style="opacity:0.8;fill:url(#linearGradient5824);fill-opacity:1;fill-rule:nonzero;stroke:none;stroke-width:0.46252999;marker:none;visibility:visible;display:inline;overflow:visible"
           id="path6826"
           clip-path="url(#clipPath5690)"
           transform="matrix(0,4.2639762,-7.403963,0,1346.4569,-350.67521)"
           d="m 316.6875,175.375 a 2.1875,2.1875 0 1 1 -4.375,0 2.1875,2.1875 0 1 1 4.375,0 z"
           inkscape:connector-curvature="0" />
        <path
           style="opacity:0.399015;fill:url(#radialGradient5906);fill-opacity:1;fill-rule:evenodd;stroke:none"
           id="path6840"
           inkscape:connector-curvature="0"
           d="m 27.354066,1003.346 c -0.399171,29.1985 41.493425,28.2981 40.920777,2.3501 -0.541084,24.6296 -40.32559,25.4028 -40.912977,-2.3501 l -0.0078,0 z" />
        <path
           style="fill:none;stroke:url(#radialGradient5903);stroke-width:0.69732875;stroke-linecap:round;stroke-linejoin:round;stroke-miterlimit:4;stroke-opacity:1;stroke-dasharray:none;stroke-dashoffset:0;marker:none;visibility:visible;display:inline;overflow:visible"
           id="path7025"
           d="m 48.097167,1025.6629 c -12.669796,0 -22.916675,-10.2469 -22.916675,-22.9167 0,-12.66976 10.246879,-22.91663 22.916675,-22.91663 12.669797,0 22.916676,10.24687 22.916676,22.91663 0,12.6698 -10.246879,22.9167 -22.916676,22.9167 z"
           inkscape:connector-curvature="0" />
        <g
           style="display:inline"
           id="g5880"
           transform="matrix(-3.7362362,1.8903016,1.8903016,3.7362362,897.09643,-253.25975)">
          <g
             id="g5882"
             transform="translate(-0.038229,-0.1623)">
            <path
               style="fill:url(#radialGradient5830);fill-opacity:1;fill-rule:nonzero;stroke:none;stroke-width:1;marker:none;visibility:visible;display:inline;overflow:visible"
               id="path5884"
               transform="matrix(0.08349323,0.02755453,-0.03453944,0.08152897,305.81145,160.84909)"
               d="m 187.0516,69.5896 a 9.4960012,6.2179646 0 1 1 -18.992,0 9.4960012,6.2179646 0 1 1 18.992,0 z"
               inkscape:connector-curvature="0" />
            <path
               style="opacity:0.60395998;fill:url(#radialGradient5832);fill-opacity:1;fill-rule:nonzero;stroke:none;stroke-width:1;marker:none;visibility:visible;display:inline;overflow:visible"
               id="path5886"
               transform="matrix(0.1027214,0.03699095,-0.04281278,0.1085284,303.09392,157.37857)"
               d="m 187.0516,69.5896 a 9.4960012,6.2179646 0 1 1 -18.992,0 9.4960012,6.2179646 0 1 1 18.992,0 z"
               inkscape:connector-curvature="0" />
          </g>
          <path
             style="fill:url(#radialGradient5834);fill-opacity:1;fill-rule:nonzero;stroke:none;stroke-width:0.43760699;marker:none;visibility:visible;display:inline;overflow:visible"
             id="path5888"
             inkscape:connector-curvature="0"
             d="m 317.56868,170.64923 c -0.50716,0.60775 0.94601,1.4143 1.34518,0.64672 0.44663,-0.85884 -0.0474,-2.02942 -0.56597,-2.54579 -0.11396,-0.11371 -0.36282,0.013 -0.33031,0.15591 0.1368,0.60141 -0.11676,1.34518 -0.4489,1.74316 z" />
          <path
             style="opacity:0.44554497;fill:url(#linearGradient5836);fill-opacity:1;fill-rule:nonzero;stroke:none;stroke-width:1;marker:none;visibility:visible;display:inline;overflow:visible;filter:url(#filter6531)"
             id="path5890"
             transform="matrix(0.08586584,-0.00220027,-0.00220027,0.08263014,303.25157,166.04882)"
             inkscape:connector-curvature="0"
             d="m 174.77724,40.6145 c 0.70089,7.224853 0.0346,13.617072 -5.26353,23.170447 1.29167,2.459055 2.65061,4.881692 6.54732,5.930312 5.59619,-12.023014 2.73915,-21.291555 -1.28379,-29.100759 z" />
          <path
             style="opacity:0.30693096;fill:url(#radialGradient5838);fill-opacity:1;fill-rule:nonzero;stroke:none;stroke-width:1;marker:none;visibility:visible;display:inline;overflow:visible;filter:url(#filter6531)"
             id="path5892"
             transform="matrix(0.08586584,-0.00220027,-0.00220027,0.08263014,303.31021,166.05581)"
             inkscape:connector-curvature="0"
             d="m 180.62153,46.373452 c 4.51286,9.999051 5.00169,18.586203 -1.25934,23.80693 1.60337,-8.459106 3.20867,-16.791152 1.25934,-23.80693 z" />
        </g>
        <g
           style="display:inline"
           id="g5865"
           transform="matrix(3.761415,1.5610043,-1.5610043,3.761415,-864.88022,-152.26921)">
          <g
             id="g5867"
             transform="translate(-0.038229,-0.1623)">
            <path
               style="fill:url(#radialGradient5840);fill-opacity:1;fill-rule:nonzero;stroke:none;stroke-width:1;marker:none;visibility:visible;display:inline;overflow:visible"
               id="path5869"
               transform="matrix(0.08207133,0.03209209,-0.03002257,0.08300587,305.57563,159.7882)"
               d="m 187.0516,69.5896 a 9.4960012,6.2179646 0 1 1 -18.992,0 9.4960012,6.2179646 0 1 1 18.992,0 z"
               inkscape:connector-curvature="0" />
            <path
               style="opacity:0.60395998;fill:url(#radialGradient5842);fill-opacity:1;fill-rule:nonzero;stroke:none;stroke-width:1;marker:none;visibility:visible;display:inline;overflow:visible"
               id="path5871"
               transform="matrix(0.1048998,0.04088923,-0.0408339,0.1120144,302.4214,156.37649)"
               d="m 187.0516,69.5896 a 9.4960012,6.2179646 0 1 1 -18.992,0 9.4960012,6.2179646 0 1 1 18.992,0 z"
               inkscape:connector-curvature="0" />
          </g>
          <path
             style="fill:url(#radialGradient5844);fill-opacity:1;fill-rule:nonzero;stroke:none;stroke-width:0.43760699;marker:none;visibility:visible;display:inline;overflow:visible"
             id="path5873"
             inkscape:connector-curvature="0"
             d="m 317.45948,170.57723 c -0.5499,0.62574 0.98217,1.41858 1.41991,0.63253 0.48978,-0.87949 -0.0158,-2.05871 -0.55861,-2.5736 -0.11928,-0.11337 -0.38617,0.0197 -0.35403,0.16407 0.13528,0.60793 -0.14716,1.36724 -0.50727,1.777 z" />
          <path
             style="opacity:0.66831701;fill:url(#radialGradient5846);fill-opacity:1;fill-rule:nonzero;stroke:none;stroke-width:1;marker:none;visibility:visible;display:inline;overflow:visible;filter:url(#filter6444)"
             id="path5876"
             transform="matrix(0.09137928,-0.00375159,-0.00375159,0.08389633,302.30788,166.16171)"
             inkscape:connector-curvature="0"
             d="m 174.77724,40.6145 c 0.70089,7.224853 0.0346,13.617072 -5.26353,23.170447 1.29167,2.459055 2.65061,4.881692 6.54732,5.930312 5.59619,-12.023014 2.73915,-21.291555 -1.28379,-29.100759 z" />
          <path
             style="opacity:0.66831701;fill:url(#radialGradient5848);fill-opacity:1;fill-rule:nonzero;stroke:none;stroke-width:1;marker:none;visibility:visible;display:inline;overflow:visible;filter:url(#filter6531)"
             id="path5878"
             transform="matrix(0.09137928,-0.00375159,-0.00375159,0.08389633,302.37014,166.16777)"
             inkscape:connector-curvature="0"
             d="m 180.62153,46.373452 c 4.51286,9.999051 5.00169,18.586203 -1.25934,23.80693 1.60337,-8.459106 3.20867,-16.791152 1.25934,-23.80693 z" />
        </g>
        <path
           style="opacity:0.99459498;fill:url(#radialGradient5850);fill-opacity:1;fill-rule:evenodd;stroke:none;display:inline;filter:url(#filter12325)"
           id="path3893"
           transform="matrix(0.17733996,0,0,-0.14917258,36.040878,1032.5002)"
           inkscape:connector-curvature="0"
           d="m 126.5,187 c 0,0 2.21085,-41.34679 15.5,-41.5 13.73126,-0.15831 17,42.5 17,42.5 -15.30721,-21.80794 -23.64549,-10.16504 -32.5,-1 z" />
        <g
           id="g2665"
           transform="matrix(1.1527094,0,0,1.1527094,34.279248,989.84863)">
          <g
             id="use12709"
             transform="matrix(0.300126,0,0,0.1287939,-28.672113,-2.6773104)">
            <path
               style="fill:url(#radialGradient5852);fill-opacity:1;fill-rule:nonzero;stroke:none;stroke-width:1;marker:none;visibility:visible;display:inline;overflow:visible"
               id="path13214"
               transform="matrix(0.9799806,0,0,1.1418151,4.7533844,-19.895539)"
               d="m 181,115 a 8.5,17 0 1 1 -17,0 8.5,17 0 1 1 17,0 z"
               inkscape:connector-curvature="0" />
            <path
               style="fill:url(#radialGradient5854);fill-opacity:1;fill-rule:evenodd;stroke:none;filter:url(#filter12535)"
               id="path13216"
               transform="matrix(0.9799806,0,0,0.9705433,1.8134427,-0.1992349)"
               inkscape:connector-curvature="0"
               d="m 170,119.75 c 0,0 0.97644,13.11621 5.25,13.25 4.2253,0.13228 6,-12.75 6,-12.75 -3.02555,4.18003 -4.52118,17.53959 -11.25,-0.5 z" />
          </g>
          <path
             style="fill:#eeeeec;fill-opacity:1;fill-rule:nonzero;stroke:none;stroke-width:1;marker:none;visibility:visible;display:inline;overflow:visible"
             id="path2658"
             transform="matrix(1.1401677,0,0,1.1291879,-348.81058,-54.748133)"
             d="m 326.9375,57.59375 a 0.40625,0.40625 0 1 1 -0.8125,0 0.40625,0.40625 0 1 1 0.8125,0 z"
             inkscape:connector-curvature="0" />
        </g>
        <path
           style="opacity:0.99459498;fill:url(#radialGradient5856);fill-opacity:1;fill-rule:evenodd;stroke:none;display:inline;filter:url(#filter12325)"
           id="path2762"
           transform="matrix(0.17733996,0,0,-0.14917258,9.5285634,1032.5002)"
           inkscape:connector-curvature="0"
           d="m 126.5,187 c 0,0 2.21085,-41.34679 15.5,-41.5 13.73126,-0.15831 17,42.5 17,42.5 -15.30721,-21.80794 -23.64549,-10.16504 -32.5,-1 z" />
        <g
           id="g2764"
           transform="matrix(1.1527094,0,0,1.1527094,6.6045697,989.84863)">
          <g
             id="g2766"
             transform="matrix(0.300126,0,0,0.1287939,-28.672113,-2.6773104)">
            <path
               style="fill:url(#radialGradient5858);fill-opacity:1;fill-rule:nonzero;stroke:none;stroke-width:1;marker:none;visibility:visible;display:inline;overflow:visible"
               id="path2768"
               transform="matrix(0.9799806,0,0,1.1418151,8.1132233,-19.895539)"
               d="m 181,115 a 8.5,17 0 1 1 -17,0 8.5,17 0 1 1 17,0 z"
               inkscape:connector-curvature="0" />
            <path
               style="fill:url(#radialGradient5860);fill-opacity:1;fill-rule:evenodd;stroke:none;filter:url(#filter12535)"
               id="path2770"
               transform="matrix(0.9799806,0,0,0.9705433,5.1732816,-0.1992349)"
               inkscape:connector-curvature="0"
               d="m 170,119.75 c 0,0 0.97644,13.11621 5.25,13.25 4.2253,0.13228 6,-12.75 6,-12.75 -3.02555,4.18003 -4.52118,17.53959 -11.25,-0.5 z" />
          </g>
          <path
             style="fill:#eeeeec;fill-opacity:1;fill-rule:nonzero;stroke:none;stroke-width:1;marker:none;visibility:visible;display:inline;overflow:visible"
             id="path2772"
             transform="matrix(1.1401677,0,0,1.1291879,-347.80221,-54.748133)"
             d="m 326.9375,57.59375 a 0.40625,0.40625 0 1 1 -0.8125,0 0.40625,0.40625 0 1 1 0.8125,0 z"
             inkscape:connector-curvature="0" />
        </g>
        <g
           id="g4394"
           transform="matrix(-3.7362362,1.8903016,1.8903016,3.7362362,896.93247,-253.93844)">
          <path
             style="fill:url(#radialGradient5862);fill-opacity:1;fill-rule:nonzero;stroke:none;stroke-width:1;marker:none;visibility:visible;display:inline;overflow:visible"
             id="path4396"
             transform="matrix(0.08349323,0.02755453,-0.03453944,0.08152897,305.81145,160.84909)"
             d="m 187.0516,69.5896 a 9.4960012,6.2179646 0 1 1 -18.992,0 9.4960012,6.2179646 0 1 1 18.992,0 z"
             inkscape:connector-curvature="0" />
          <path
             style="opacity:0.60395998;fill:url(#radialGradient5864);fill-opacity:1;fill-rule:nonzero;stroke:none;stroke-width:1;marker:none;visibility:visible;display:inline;overflow:visible"
             id="path4398"
             transform="matrix(0.1027214,0.03699095,-0.04281278,0.1085284,303.09392,157.37857)"
             d="m 187.0516,69.5896 a 9.4960012,6.2179646 0 1 1 -18.992,0 9.4960012,6.2179646 0 1 1 18.992,0 z"
             inkscape:connector-curvature="0" />
        </g>
        <g
           id="g4408"
           transform="matrix(3.761415,1.5610043,-1.5610043,3.761415,-864.77066,-152.93938)">
          <path
             style="fill:url(#radialGradient5866);fill-opacity:1;fill-rule:nonzero;stroke:none;stroke-width:1;marker:none;visibility:visible;display:inline;overflow:visible"
             id="path4410"
             transform="matrix(0.08207133,0.03209209,-0.03002257,0.08300587,305.57563,159.7882)"
             d="m 187.0516,69.5896 a 9.4960012,6.2179646 0 1 1 -18.992,0 9.4960012,6.2179646 0 1 1 18.992,0 z"
             inkscape:connector-curvature="0" />
          <path
             style="opacity:0.60395998;fill:url(#radialGradient5868);fill-opacity:1;fill-rule:nonzero;stroke:none;stroke-width:1;marker:none;visibility:visible;display:inline;overflow:visible"
             id="path4412"
             transform="matrix(0.1048998,0.04088923,-0.0408339,0.1120144,302.4214,156.37649)"
             d="m 187.0516,69.5896 a 9.4960012,6.2179646 0 1 1 -18.992,0 9.4960012,6.2179646 0 1 1 18.992,0 z"
             inkscape:connector-curvature="0" />
        </g>
      </g>
    </g>
  </g>
</svg>
