<?xml version="1.0" encoding="UTF-8" standalone="no"?>
<!-- Created with Inkscape (http://www.inkscape.org/) -->
<svg id="svg2" xmlns:rdf="http://www.w3.org/1999/02/22-rdf-syntax-ns#" xmlns="http://www.w3.org/2000/svg" height="96" width="96" version="1.1" xmlns:cc="http://creativecommons.org/ns#" xmlns:xlink="http://www.w3.org/1999/xlink" xmlns:dc="http://purl.org/dc/elements/1.1/">
 <defs id="defs4">
  <filter id="filter6279" color-interpolation-filters="sRGB">
   <feGaussianBlur id="feGaussianBlur6281" stdDeviation="0.8"/>
  </filter>
  <linearGradient id="linearGradient5801" y2="902.36" gradientUnits="userSpaceOnUse" x2="48" gradientTransform="translate(0 -.0000078516)" y1="1052.4" x1="48">
   <stop id="stop3926-1" style="stop-color:#033b62" offset="0"/>
   <stop id="stop3928-2" style="stop-color:#156c95" offset="1"/>
  </linearGradient>
  <clipPath id="clipPath3613-48">
   <rect id="rect3615-08" style="fill:#fff" rx="6" ry="6" height="84" width="84" y="6" x="6"/>
  </clipPath>
  <filter id="filter3794-10" width="1.384" y="-.192" x="-.192" height="1.384" color-interpolation-filters="sRGB">
   <feGaussianBlur id="feGaussianBlur3796-2" stdDeviation="5.28"/>
  </filter>
 </defs>
 <metadata id="metadata7">
  <rdf:RDF>
   <cc:Work rdf:about="">
    <dc:format>image/svg+xml</dc:format>
    <dc:type rdf:resource="http://purl.org/dc/dcmitype/StillImage"/>
    <dc:title/>
   </cc:Work>
  </rdf:RDF>
 </metadata>
 <g id="layer1" transform="translate(0 -956.36)">
  <g id="g6539" transform="translate(0,-1e-5)">
   <rect id="rect9283" ry="5" style="filter:url(#filter6279)" rx="5" transform="translate(0 -.0000078516)" height="80" width="80" y="964.36" x="8"/>
   <rect id="rect9285" style="fill:url(#linearGradient5801)" rx="5" ry="5" height="80" width="80" y="964.36" x="8"/>
   <g id="layer5" transform="translate(0 956.36)">
    <rect id="rect3171" style="opacity:.2;filter:url(#filter3794-10);stroke:#fff;stroke-linecap:round;stroke-width:.5;fill:#26d3ff" clip-path="url(#clipPath3613-48)" rx="12" ry="12" height="66" width="66" y="15" x="15"/>
   </g>
   <g id="layer3" transform="matrix(.91663 0 0 .91663 3.9619 960.22)">
    <path id="path3649" style="stroke-linejoin:round;stroke:#fff;stroke-width:4;fill:none" d="m48.094 36c-7.6084-0.0089-15.242 1.1907-22.562 3.5938l6.749 20.406c10.264-3.369 21.336-3.356 31.594 0.031l6.75-20.375c-7.315-2.42-14.923-3.647-22.531-3.656z"/>
    <path id="path3660" style="stroke-linejoin:round;stroke:#fff;stroke-width:2.6667;stroke-dashoffset:1;fill:none" transform="matrix(1.5,0,0,1.5,-24,-24)" d="m50 64a2 2 0 1 1 -4 0 2 2 0 1 1 4 0z"/>
    <path id="path3662" style="stroke:#fff;stroke-width:4;stroke-linecap:round;fill:none" d="m47.868 71.977-6.723-25.091"/>
    <path id="path3686" style="block-progression:tb;color:#000000;text-indent:0;text-transform:none;fill:#fff" d="m57.562 19.156-0.84375 0.21875-0.34375 0.84375 0.5 0.75 0.3125 0.15625 0.5625 0.09375 0.5625 0.15625 0.03125 0.03125h0.0625l0.5 0.21875 0.90625-0.0625 0.46875-0.75-0.3125-0.84375-0.3125-0.1875-0.59375-0.25-0.091-0.03-0.719-0.25h-0.125l-0.5625-0.09375zm-4.374 0.344-0.344 0.062-0.313 0.126-0.093 0.031-0.688 0.343-0.094 0.032l-0.656 0.406-0.0625 0.0625-0.125 0.0625-0.40625 0.8125 0.40625 0.8125 0.875 0.15625 0.34375-0.15625v-0.03125l0.09375-0.0625 0.5-0.28125 0.59375-0.3125 0.09375-0.03125 0.21875-0.0625 0.625-0.65625-0.156-0.906-0.812-0.406zm9.375 2.75-0.84375 0.34375-0.1875 0.875 0.125 0.3125 0.40625 0.65625h0.03125l0.25 0.5 0.1875 0.4375 0.6875 0.5625 0.875-0.15625 0.344-0.844-0.031-0.344-0.219-0.438v-0.0625l-0.375-0.6875-0.064-0.094-0.438-0.624-0.75-0.438zm-13.563 1.188-0.844 0.281-0.218 0.281l-0.21875 0.4375-0.03125 0.09375-0.28125 0.75-0.03125 0.09375-0.15625 0.6875 0.1875 0.875 0.8125 0.375 0.781-0.437 0.15625-0.3125 0.125-0.59375h0.03125l0.219-0.657 0.031-0.093 0.188-0.344-0.031-0.906-0.719-0.531zm14.719 4.593-0.657 0.594-0.062 0.375v2l0.40625 0.78125 0.875 0.15625 0.657-0.593 0.062-0.344v-2l-0.406-0.812-0.875-0.156zm-16 1.3125-0.65625 0.625-0.063 0.343v2l0.40625 0.78125 0.875 0.1875 0.65625-0.625 0.063-0.344v-2l-0.406-0.813-0.875-0.157zm0 6-0.65625 0.625-0.063 0.343v2l0.40625 0.78125 0.875 0.1875 0.65625-0.625 0.063-0.344v-2l-0.406-0.813-0.875-0.157zm0 6-0.65625 0.625-0.063 0.343v2l0.40625 0.78125 0.875 0.1875 0.65625-0.625 0.063-0.344v-2l-0.406-0.813-0.875-0.157zm0 6-0.65625 0.625-0.063 0.343v2l0.40625 0.78125 0.875 0.1875 0.65625-0.625 0.063-0.344v-2l-0.406-0.813-0.875-0.157z"/>
    <path id="path3689" style="block-progression:tb;color:#000000;text-indent:0;text-transform:none;fill:#fff" d="m38.438 19.156 0.84375 0.21875 0.34375 0.84375-0.5 0.75-0.3125 0.15625-0.5625 0.09375-0.5625 0.15625-0.03125 0.03125h-0.0625l-0.5 0.21875-0.90625-0.0625-0.46875-0.75 0.3125-0.84375 0.3125-0.1875 0.59375-0.25 0.091-0.03 0.719-0.25h0.125l0.5625-0.09375zm4.375 0.34375 0.34375 0.0625 0.3125 0.125 0.09375 0.03125 0.6875 0.34375 0.09375 0.03125 0.654 0.407 0.0625 0.0625 0.125 0.0625 0.40625 0.8125-0.40625 0.8125-0.875 0.15625l-0.345-0.154v-0.03125l-0.094-0.063-0.5-0.281-0.594-0.313-0.093-0.031-0.219-0.062-0.625-0.657 0.156-0.906 0.812-0.406zm-9.375 2.75 0.84375 0.34375 0.1875 0.875-0.125 0.3125-0.40625 0.65625h-0.03125l-0.25 0.5-0.1875 0.4375-0.6875 0.5625-0.876-0.157-0.344-0.844 0.031-0.343 0.219-0.438v-0.0625l0.375-0.6875 0.0625-0.09375 0.4375-0.625 0.75-0.4375zm13.562 1.188 0.844 0.281 0.218 0.281 0.21875 0.4375 0.03125 0.09375 0.28125 0.75 0.03125 0.09375 0.15625 0.6875-0.1875 0.875-0.8125 0.375-0.781-0.437-0.15625-0.3125-0.125-0.59375h-0.03125l-0.219-0.657-0.031-0.093-0.188-0.344 0.031-0.906 0.719-0.531zm-14.719 4.593 0.657 0.594 0.062 0.375v2l-0.40625 0.78125-0.875 0.15625-0.657-0.593-0.062-0.344v-2l0.40625-0.8125 0.875-0.15625zm16 1.3125 0.65625 0.625 0.0625 0.34375v2l-0.40625 0.78125-0.875 0.1875-0.65625-0.625-0.063-0.345v-2l0.40625-0.8125 0.875-0.15625zm0 6 0.65625 0.625 0.0625 0.34375v2l-0.40625 0.78125-0.875 0.1875-0.65625-0.625-0.063-0.345v-2l0.40625-0.8125 0.875-0.15625zm0 6 0.65625 0.625 0.0625 0.34375v2l-0.40625 0.78125-0.875 0.1875-0.65625-0.625-0.063-0.345v-2l0.40625-0.8125 0.875-0.15625zm0 6 0.65625 0.625 0.0625 0.34375v2l-0.40625 0.78125-0.875 0.1875-0.65625-0.625-0.063-0.345v-2l0.40625-0.8125 0.875-0.15625z"/>
   </g>
  </g>
 </g>
</svg>
