<?xml version="1.0" encoding="UTF-8" standalone="no"?>
<!-- Created with Inkscape (http://www.inkscape.org/) -->

<svg
   xmlns:dc="http://purl.org/dc/elements/1.1/"
   xmlns:cc="http://creativecommons.org/ns#"
   xmlns:rdf="http://www.w3.org/1999/02/22-rdf-syntax-ns#"
   xmlns:svg="http://www.w3.org/2000/svg"
   xmlns="http://www.w3.org/2000/svg"
   xmlns:xlink="http://www.w3.org/1999/xlink"
   xmlns:sodipodi="http://sodipodi.sourceforge.net/DTD/sodipodi-0.dtd"
   xmlns:inkscape="http://www.inkscape.org/namespaces/inkscape"
   width="96"
   height="96"
   id="svg2"
   version="1.1"
   inkscape:version="0.48.1 r9760"
   sodipodi:docname="computerjanitor.svg">
  <defs
     id="defs4">
    <filter
       color-interpolation-filters="sRGB"
       inkscape:collect="always"
       id="filter6279">
      <feGaussianBlur
         inkscape:collect="always"
         stdDeviation="0.8"
         id="feGaussianBlur6281" />
    </filter>
    <linearGradient
       inkscape:collect="always"
       xlink:href="#linearGradient3633"
       id="linearGradient5801"
       gradientUnits="userSpaceOnUse"
       gradientTransform="translate(0,-7.8515622e-6)"
       x1="48"
       y1="1052.3622"
       x2="48"
       y2="902.36218" />
    <linearGradient
       id="linearGradient3633"
       y2="48"
       gradientUnits="userSpaceOnUse"
       x2="90"
       gradientTransform="translate(-96,0)"
       y1="48"
       x1="6">
      <stop
         id="stop3926-1"
         style="stop-color:#033b62"
         offset="0" />
      <stop
         id="stop3928-2"
         style="stop-color:#156c95"
         offset="1" />
    </linearGradient>
    <clipPath
       id="clipPath3613-48">
      <rect
         id="rect3615-08"
         style="fill:#ffffff"
         rx="6"
         ry="6"
         height="84"
         width="84"
         y="6"
         x="6" />
    </clipPath>
    <filter
       id="filter3794-10"
       height="1.3839999"
       width="1.3839999"
       color-interpolation-filters="sRGB"
       y="-0.192"
       x="-0.192">
      <feGaussianBlur
         id="feGaussianBlur3796-2"
         stdDeviation="5.28" />
    </filter>
  </defs>
  <sodipodi:namedview
     id="base"
     pagecolor="#ffffff"
     bordercolor="#666666"
     borderopacity="1.0"
     inkscape:pageopacity="0.0"
     inkscape:pageshadow="2"
     inkscape:zoom="3.959798"
     inkscape:cx="28.389459"
     inkscape:cy="57.490015"
     inkscape:document-units="px"
     inkscape:current-layer="layer1"
     showgrid="false"
     inkscape:window-width="1280"
     inkscape:window-height="725"
     inkscape:window-x="0"
     inkscape:window-y="25"
     inkscape:window-maximized="1" />
  <metadata
     id="metadata7">
    <rdf:RDF>
      <cc:Work
         rdf:about="">
        <dc:format>image/svg+xml</dc:format>
        <dc:type
           rdf:resource="http://purl.org/dc/dcmitype/StillImage" />
        <dc:title></dc:title>
      </cc:Work>
    </rdf:RDF>
  </metadata>
  <g
     inkscape:label="Layer 1"
     inkscape:groupmode="layer"
     id="layer1"
     transform="translate(0,-956.36217)">
    <g
       transform="translate(0,-1e-5)"
       id="g6539">
      <rect
         transform="translate(0,-7.8515622e-6)"
         y="964.36218"
         x="8"
         height="80"
         width="80"
         id="rect9283"
         style="fill:#000000;fill-opacity:1;stroke:none;filter:url(#filter6279)"
         rx="5"
         ry="5" />
      <rect
         ry="5"
         rx="5"
         style="fill:url(#linearGradient5801);fill-opacity:1;stroke:none"
         id="rect9285"
         width="80"
         height="80"
         x="8"
         y="964.36218" />
      <g
         id="layer5"
         transform="translate(0,956.36218)">
        <rect
           x="15"
           y="15"
           width="66"
           height="66"
           ry="12"
           rx="12"
           clip-path="url(#clipPath3613-48)"
           style="opacity:0.2;fill:#26d3ff;stroke:#ffffff;stroke-width:0.5;stroke-linecap:round;filter:url(#filter3794-10)"
           id="rect3171" />
      </g>
      <g
         id="layer3"
         transform="matrix(0.91662763,0,0,0.91662763,3.9619183,960.22283)">
        <path
           d="m 48.094,36 c -7.6084,-0.0089 -15.242,1.1907 -22.562,3.5938 l 6.749,20.406 c 10.264,-3.369 21.336,-3.356 31.594,0.031 l 6.75,-20.375 c -7.315,-2.42 -14.923,-3.647 -22.531,-3.656 z"
           style="fill:none;stroke:#ffffff;stroke-width:4;stroke-linejoin:round"
           id="path3649"
           inkscape:connector-curvature="0" />
        <path
           transform="matrix(1.5,0,0,1.5,-24,-24)"
           d="m 50,64 a 2,2 0 1 1 -4,0 2,2 0 1 1 4,0 z"
           style="fill:none;stroke:#ffffff;stroke-width:2.66669989;stroke-linejoin:round;stroke-dashoffset:1"
           id="path3660"
           inkscape:connector-curvature="0" />
        <path
           d="M 47.868,71.977 41.1449,46.886"
           style="fill:none;stroke:#ffffff;stroke-width:4;stroke-linecap:round"
           id="path3662"
           inkscape:connector-curvature="0" />
        <path
           d="m 57.562,19.156 -0.84375,0.21875 -0.34375,0.84375 0.5,0.75 0.3125,0.15625 0.5625,0.09375 0.5625,0.15625 0.03125,0.03125 h 0.0625 l 0.5,0.21875 0.90625,-0.0625 0.46875,-0.75 -0.3125,-0.84375 -0.3125,-0.1875 -0.59375,-0.25 -0.091,-0.03 -0.719,-0.25 h -0.125 l -0.5625,-0.09375 z m -4.374,0.344 -0.344,0.062 -0.313,0.126 -0.093,0.031 -0.688,0.343 -0.094,0.032 L 51,20.5 l -0.0625,0.0625 -0.125,0.0625 -0.40625,0.8125 0.40625,0.8125 0.875,0.15625 0.34375,-0.15625 v -0.03125 l 0.09375,-0.0625 0.5,-0.28125 0.59375,-0.3125 0.09375,-0.03125 0.21875,-0.0625 0.625,-0.65625 -0.156,-0.906 -0.812,-0.406 z m 9.375,2.75 -0.84375,0.34375 -0.1875,0.875 0.125,0.3125 0.40625,0.65625 h 0.03125 l 0.25,0.5 0.1875,0.4375 0.6875,0.5625 0.875,-0.15625 L 64.438,24.9375 64.40675,24.59375 64.188,24.15625 v -0.0625 l -0.375,-0.6875 -0.064,-0.094 -0.438,-0.624 -0.75,-0.438 z M 49,23.438 48.156,23.719 47.938,24 l -0.21875,0.4375 -0.03125,0.09375 -0.28125,0.75 -0.03125,0.09375 -0.15625,0.6875 0.1875,0.875 0.8125,0.375 0.781,-0.437 0.15625,-0.3125 0.125,-0.59375 h 0.03125 l 0.219,-0.657 0.031,-0.093 0.188,-0.344 -0.031,-0.906 -0.719,-0.531 z M 63.719,28.031 63.062,28.625 63,29 v 2 l 0.40625,0.78125 0.875,0.15625 0.657,-0.593 0.062,-0.344 v -2 L 64.594,28.188 63.719,28.03175 z m -16,1.3125 -0.65625,0.625 -0.063,0.343 v 2 l 0.40625,0.78125 0.875,0.1875 0.65625,-0.625 0.063,-0.344 v -2 L 48.594,29.49875 47.719,29.3425 z m 0,6 -0.65625,0.625 -0.063,0.343 v 2 l 0.40625,0.78125 0.875,0.1875 0.65625,-0.625 0.063,-0.344 v -2 L 48.594,35.49875 47.719,35.3425 z m 0,6 -0.65625,0.625 -0.063,0.343 v 2 l 0.40625,0.78125 0.875,0.1875 0.65625,-0.625 0.063,-0.344 v -2 L 48.594,41.49875 47.719,41.3425 z m 0,6 -0.65625,0.625 -0.063,0.343 v 2 l 0.40625,0.78125 0.875,0.1875 0.65625,-0.625 0.063,-0.344 v -2 L 48.594,47.49875 47.719,47.3425 z"
           style="text-indent:0;text-transform:none;block-progression:tb;color:#000000;fill:#ffffff"
           id="path3686"
           inkscape:connector-curvature="0" />
        <path
           d="m 38.438,19.156 0.84375,0.21875 0.34375,0.84375 -0.5,0.75 -0.3125,0.15625 -0.5625,0.09375 -0.5625,0.15625 -0.03125,0.03125 h -0.0625 l -0.5,0.21875 -0.90625,-0.0625 -0.46875,-0.75 0.3125,-0.84375 0.3125,-0.1875 0.59375,-0.25 0.091,-0.03 0.719,-0.25 h 0.125 l 0.5625,-0.09375 z m 4.375,0.34375 0.34375,0.0625 0.3125,0.125 0.09375,0.03125 0.6875,0.34375 0.09375,0.03125 0.654,0.407 0.0625,0.0625 0.125,0.0625 0.40625,0.8125 -0.40625,0.8125 -0.875,0.15625 L 43.967,22.2505 v -0.03125 l -0.094,-0.063 -0.5,-0.281 -0.594,-0.313 -0.093,-0.031 -0.219,-0.062 -0.625,-0.657 0.156,-0.906 0.812,-0.406 z m -9.375,2.75 0.84375,0.34375 0.1875,0.875 -0.125,0.3125 -0.40625,0.65625 h -0.03125 l -0.25,0.5 -0.1875,0.4375 -0.6875,0.5625 L 31.90675,25.781 31.563,24.93725 31.59425,24.5935 31.813,24.156 v -0.0625 l 0.375,-0.6875 0.0625,-0.09375 0.4375,-0.625 0.75,-0.4375 z m 13.562,1.188 0.844,0.281 0.218,0.281 0.21875,0.4375 0.03125,0.09375 0.28125,0.75 0.03125,0.09375 0.15625,0.6875 -0.1875,0.875 -0.8125,0.375 -0.781,-0.437 -0.15625,-0.3125 -0.125,-0.59375 h -0.03125 l -0.219,-0.657 -0.031,-0.093 -0.188,-0.344 0.031,-0.906 0.719,-0.531 z m -14.719,4.593 0.657,0.594 0.062,0.375 v 2 l -0.40625,0.78125 -0.875,0.15625 -0.657,-0.593 -0.062,-0.344 v -2 l 0.40625,-0.8125 0.875,-0.15625 z m 16,1.3125 0.65625,0.625 0.0625,0.34375 v 2 l -0.40625,0.78125 -0.875,0.1875 -0.65625,-0.625 -0.063,-0.345 v -2 l 0.40625,-0.8125 0.875,-0.15625 z m 0,6 0.65625,0.625 0.0625,0.34375 v 2 l -0.40625,0.78125 -0.875,0.1875 -0.65625,-0.625 -0.063,-0.345 v -2 l 0.40625,-0.8125 0.875,-0.15625 z m 0,6 0.65625,0.625 0.0625,0.34375 v 2 l -0.40625,0.78125 -0.875,0.1875 -0.65625,-0.625 -0.063,-0.345 v -2 l 0.40625,-0.8125 0.875,-0.15625 z m 0,6 0.65625,0.625 0.0625,0.34375 v 2 l -0.40625,0.78125 -0.875,0.1875 -0.65625,-0.625 -0.063,-0.345 v -2 l 0.40625,-0.8125 0.875,-0.15625 z"
           style="text-indent:0;text-transform:none;block-progression:tb;color:#000000;fill:#ffffff"
           id="path3689"
           inkscape:connector-curvature="0" />
      </g>
    </g>
  </g>
</svg>
