<?xml version="1.0" encoding="UTF-8" standalone="no"?>
<!-- Created with Inkscape (http://www.inkscape.org/) -->

<svg
   xmlns:dc="http://purl.org/dc/elements/1.1/"
   xmlns:cc="http://creativecommons.org/ns#"
   xmlns:rdf="http://www.w3.org/1999/02/22-rdf-syntax-ns#"
   xmlns:svg="http://www.w3.org/2000/svg"
   xmlns="http://www.w3.org/2000/svg"
   xmlns:xlink="http://www.w3.org/1999/xlink"
   xmlns:sodipodi="http://sodipodi.sourceforge.net/DTD/sodipodi-0.dtd"
   xmlns:inkscape="http://www.inkscape.org/namespaces/inkscape"
   width="96"
   height="96"
   id="svg2"
   version="1.1"
   inkscape:version="0.48.1 r9760"
   sodipodi:docname="deadbeef.svg">
  <defs
     id="defs4">
    <filter
       color-interpolation-filters="sRGB"
       inkscape:collect="always"
       id="filter6279">
      <feGaussianBlur
         inkscape:collect="always"
         stdDeviation="0.8"
         id="feGaussianBlur6281" />
    </filter>
    <linearGradient
       inkscape:collect="always"
       xlink:href="#linearGradient3700-9-0"
       id="linearGradient11108"
       gradientUnits="userSpaceOnUse"
       gradientTransform="translate(0,-7.8515622e-6)"
       x1="48"
       y1="1052.3622"
       x2="48"
       y2="902.36218" />
    <linearGradient
       id="linearGradient3700-9-0">
      <stop
         id="stop3702-08"
         style="stop-color:#2d2d2d;stop-opacity:1"
         offset="0" />
      <stop
         id="stop3704-1"
         style="stop-color:#6b6b6b;stop-opacity:1"
         offset="1" />
    </linearGradient>
    <linearGradient
       inkscape:collect="always"
       xlink:href="#linearGradient3679"
       id="linearGradient6491"
       gradientUnits="userSpaceOnUse"
       gradientTransform="matrix(0.7125575,0,0,0.7125575,11.063259,969.66311)"
       x1="48"
       y1="80"
       x2="48"
       y2="16" />
    <linearGradient
       id="linearGradient3679">
      <stop
         id="stop3681"
         style="stop-color:#d8d5cc;stop-opacity:1"
         offset="0" />
      <stop
         id="stop3683-9"
         style="stop-color:#40474b;stop-opacity:1"
         offset="1" />
    </linearGradient>
    <linearGradient
       inkscape:collect="always"
       xlink:href="#linearGradient3737-33"
       id="linearGradient11149"
       gradientUnits="userSpaceOnUse"
       x1="48"
       y1="20.220806"
       x2="48"
       y2="138.66119" />
    <linearGradient
       id="linearGradient3737-33">
      <stop
         id="stop3739-38"
         style="stop-color:#ffffff;stop-opacity:1"
         offset="0" />
      <stop
         id="stop3741-51"
         style="stop-color:#ffffff;stop-opacity:0"
         offset="1" />
    </linearGradient>
    <clipPath
       id="clipPath3613-08">
      <rect
         width="84"
         height="84"
         rx="6"
         ry="6"
         x="6"
         y="6"
         id="rect3615-7"
         style="fill:#ffffff;fill-opacity:1;fill-rule:nonzero;stroke:none" />
    </clipPath>
    <filter
       x="-0.192"
       y="-0.192"
       width="1.3839999"
       height="1.3839999"
       color-interpolation-filters="sRGB"
       id="filter3794-63">
      <feGaussianBlur
         id="feGaussianBlur3796-50"
         stdDeviation="5.28" />
    </filter>
  </defs>
  <sodipodi:namedview
     id="base"
     pagecolor="#ffffff"
     bordercolor="#666666"
     borderopacity="1.0"
     inkscape:pageopacity="0.0"
     inkscape:pageshadow="2"
     inkscape:zoom="3.959798"
     inkscape:cx="28.389459"
     inkscape:cy="57.490015"
     inkscape:document-units="px"
     inkscape:current-layer="layer1"
     showgrid="false"
     inkscape:window-width="1280"
     inkscape:window-height="725"
     inkscape:window-x="0"
     inkscape:window-y="25"
     inkscape:window-maximized="1" />
  <metadata
     id="metadata7">
    <rdf:RDF>
      <cc:Work
         rdf:about="">
        <dc:format>image/svg+xml</dc:format>
        <dc:type
           rdf:resource="http://purl.org/dc/dcmitype/StillImage" />
        <dc:title></dc:title>
      </cc:Work>
    </rdf:RDF>
  </metadata>
  <g
     inkscape:label="Layer 1"
     inkscape:groupmode="layer"
     id="layer1"
     transform="translate(0,-956.36217)">
    <g
       transform="translate(0,-1e-5)"
       id="g12000">
      <rect
         transform="translate(0,-7.8515622e-6)"
         y="964.36218"
         x="8"
         height="80"
         width="80"
         id="rect9283"
         style="fill:#000000;fill-opacity:1;stroke:none;filter:url(#filter6279)"
         rx="5"
         ry="5" />
      <rect
         ry="5"
         rx="5"
         style="fill:url(#linearGradient11108);fill-opacity:1;stroke:none"
         id="rect9285"
         width="80"
         height="80"
         x="8"
         y="964.36218" />
      <g
         id="g6497">
        <path
           inkscape:connector-curvature="0"
           style="opacity:0.15;fill:#000000;fill-opacity:1;stroke:none"
           id="path3702"
           d="m 30.235509,978.97089 a 0.66548967,0.66548967 0 0 0 -0.601221,0.66802 l 0,26.36459 a 0.66548967,0.66548967 0 0 0 1.135639,0.4677 l 8.149876,-8.14992 8.773364,6.25712 -8.172143,5.8341 0,-8.6843 a 0.66548967,0.66548967 0 0 0 -1.135639,-0.4676 l -8.55069,8.5507 a 0.66548967,0.66548967 0 0 0 -0.200407,0.4676 l 0,19.239 a 0.66548967,0.66548967 0 0 0 1.046569,0.5345 l 35.627875,-24.9396 a 0.66548967,0.66548967 0 0 0 0,-1.0688 L 30.680857,979.1045 a 0.66548967,0.66548967 0 0 0 -0.445348,-0.13361 z m 3.562787,7.37052 26.052884,18.23699 -26.052884,18.237 0,-11.0891 1.55872,-1.5587 0,1.5364 c -1.32e-4,0.049 -0.0033,0.1956 0,0.2449 0.0033,0.049 0.03789,0.1738 0.04453,0.2227 0.0066,0.049 0.01228,0.1966 0.02227,0.245 0.01,0.048 0.05351,0.175 0.0668,0.2226 0.01329,0.048 0.05028,0.1984 0.0668,0.245 0.01652,0.047 0.06938,0.1773 0.08907,0.2227 0.01969,0.045 0.08858,0.1565 0.111337,0.2004 0.02275,0.044 0.08563,0.1804 0.111337,0.2226 0.02571,0.042 0.105056,0.1601 0.133605,0.2004 0.02855,0.04 0.102352,0.1399 0.133605,0.1782 0.03125,0.038 0.144332,0.1421 0.178139,0.1781 0.03381,0.036 0.119669,0.1445 0.155872,0.1782 0.0362,0.034 0.139712,0.1248 0.178139,0.1558 0.03843,0.031 0.159937,0.1276 0.200407,0.1559 0.04047,0.028 0.158085,0.086 0.200407,0.1113 0.04232,0.025 0.156433,0.1111 0.200407,0.1336 0.04397,0.023 0.177257,0.07 0.222674,0.089 0.04542,0.019 0.176027,0.073 0.222674,0.089 0.04664,0.016 0.175018,0.054 0.222674,0.067 0.04766,0.013 0.196502,0.057 0.244942,0.067 0.04844,0.01 0.173679,0.038 0.222674,0.044 0.049,0.01 0.195624,0.019 0.244942,0.022 0.04932,0 0.195533,4e-4 0.244941,0 0.04941,-4e-4 0.195676,-0.019 0.244942,-0.022 0.04927,0 0.173784,-0.015 0.222674,-0.022 0.04889,-0.01 0.196658,-0.034 0.244942,-0.045 0.04828,-0.01 0.175224,-0.031 0.222674,-0.044 0.04745,-0.014 0.198551,-0.072 0.244942,-0.089 0.04639,-0.017 0.177561,-0.069 0.222674,-0.089 0.04511,-0.02 0.156784,-0.066 0.200407,-0.089 0.04362,-0.023 0.180749,-0.1075 0.222674,-0.1336 0.0387,-0.024 0.131097,-0.1004 0.178139,-0.1336 l 0.02227,0 9.953537,-7.1256 c 0.03465,-0.025 0.145021,-0.084 0.17814,-0.1113 0.03312,-0.027 0.124402,-0.1049 0.155872,-0.1337 0.03147,-0.029 0.103895,-0.1252 0.133604,-0.1558 0.02971,-0.031 0.128028,-0.1236 0.155872,-0.1559 0.02785,-0.032 0.107723,-0.122 0.133605,-0.1559 0.02588,-0.034 0.08751,-0.1205 0.111337,-0.1558 0.02383,-0.035 0.08965,-0.1415 0.111337,-0.1782 0.02169,-0.037 0.06959,-0.1402 0.08907,-0.1781 0.01948,-0.038 0.07187,-0.1614 0.08907,-0.2004 0.01719,-0.039 0.07422,-0.1382 0.08907,-0.1782 0.01486,-0.04 0.05435,-0.1596 0.0668,-0.2004 0.01246,-0.041 0.03452,-0.1589 0.04453,-0.2004 0.01002,-0.041 0.03699,-0.1584 0.04454,-0.2004 0.0075,-0.042 0.03949,-0.1581 0.04453,-0.2004 0.0051,-0.042 0.01974,-0.1801 0.02227,-0.2227 0.0025,-0.043 0,-0.1577 0,-0.2004 0,-0.043 0.0025,-0.1578 0,-0.2004 -0.0025,-0.043 -0.01722,-0.1803 -0.02227,-0.2227 -0.0051,-0.042 -0.03699,-0.1584 -0.04453,-0.2004 -0.0075,-0.042 -0.03452,-0.1589 -0.04454,-0.2004 -0.01002,-0.041 -0.03208,-0.1596 -0.04453,-0.2004 -0.01246,-0.041 -0.05195,-0.1604 -0.0668,-0.2004 -0.01486,-0.04 -0.07187,-0.1391 -0.08907,-0.1781 -0.01719,-0.039 -0.06959,-0.1625 -0.08907,-0.2004 -0.01948,-0.038 -0.06738,-0.1415 -0.08907,-0.1782 -0.02169,-0.037 -0.08751,-0.1428 -0.111337,-0.1781 -0.02383,-0.035 -0.08546,-0.122 -0.111337,-0.1559 -0.02588,-0.034 -0.10576,-0.1236 -0.133605,-0.1558 -0.02785,-0.032 -0.126162,-0.1253 -0.155872,-0.1559 -0.02971,-0.031 -0.102135,-0.1271 -0.133604,-0.1559 -0.03147,-0.029 -0.122753,-0.1068 -0.155872,-0.1336 -0.03312,-0.027 -0.143488,-0.087 -0.17814,-0.1113 L 40.9016,994.62509 c -0.003,-0.002 -0.01868,0.003 -0.02227,0 -0.05864,-0.0415 -0.193614,-0.14744 -0.244941,-0.17814 -0.05447,-0.0326 -0.210078,-0.10595 -0.267209,-0.1336 -0.05713,-0.0276 -0.23013,-0.11111 -0.289477,-0.13361 -0.05935,-0.0225 -0.228376,-0.0719 -0.289476,-0.0891 -0.0611,-0.0172 -0.227099,-0.0551 -0.289477,-0.0668 -0.06238,-0.0117 -0.248575,-0.0384 -0.311744,-0.0445 -0.06317,-0.006 -0.248276,-0.0217 -0.311744,-0.0223 -0.06347,-5.9e-4 -0.248472,-0.005 -0.311743,0 -0.06327,0.005 -0.226894,0.034 -0.289477,0.0445 -0.06258,0.0106 -0.250338,0.0507 -0.311744,0.0668 -0.06141,0.0161 -0.229725,0.0677 -0.289476,0.0891 -0.05975,0.0214 -0.231847,0.0847 -0.289477,0.11134 -0.05763,0.0266 -0.212148,0.1243 -0.267209,0.15587 -0.05506,0.0316 -0.215147,0.11957 -0.267209,0.15588 -0.05206,0.0363 -0.196285,0.15965 -0.244942,0.2004 -0.04866,0.0408 -0.177801,0.15552 -0.222674,0.20041 l -2.583021,2.58302 0,-11.22278 z" />
        <path
           style="opacity:0.3;fill:#000000;fill-opacity:1;stroke:none"
           id="path3696"
           inkscape:connector-curvature="0"
           d="m 30.302311,979.63891 0,26.36459 8.55069,-8.55065 9.975805,7.12555 -9.975805,7.1256 0,-9.9758 -8.55069,8.5507 0,19.239 35.627875,-24.9395 -35.627875,-24.93949 z m 2.827963,5.43326 27.856544,19.50623 -27.856544,19.5063 0,-12.6256 2.894764,-2.8948 0,3.1397 a 2.8216706,2.8216706 0 0 0 4.475752,2.2935 l 9.975805,-7.1255 a 2.8216706,2.8216706 0 0 0 0,-4.5871 l -9.975805,-7.12559 a 2.8216706,2.8216706 0 0 0 -3.651857,0.28947 l -3.718659,3.71866 0,-14.09527 z" />
        <path
           style="fill:url(#linearGradient6491);fill-opacity:1;stroke:none"
           id="path3661"
           inkscape:connector-curvature="0"
           d="m 30.302311,978.92636 0,26.36464 8.55069,-8.55071 9.975805,7.12561 -9.975805,7.1255 0,-9.9758 -8.55069,8.5507 0,19.2391 35.627875,-24.9395 -35.627875,-24.93954 z m 2.827963,5.43325 27.856544,19.50629 -27.856544,19.5062 0,-12.6256 2.894764,-2.8948 0,3.1397 a 2.8216706,2.8216706 0 0 0 4.475752,2.2936 l 9.975805,-7.1256 a 2.8216706,2.8216706 0 0 0 0,-4.5871 l -9.975805,-7.12555 a 2.8216706,2.8216706 0 0 0 -3.651857,0.28948 l -3.718659,3.71866 0,-14.09528 z" />
        <path
           style="opacity:0.3;fill:#ffffff;fill-opacity:1;stroke:none"
           id="path3687"
           inkscape:connector-curvature="0"
           d="m 30.302311,978.92636 0,0.71255 35.115724,24.58319 0.512151,-0.3562 -35.627875,-24.93954 z m 8.328016,14.98597 a 2.8216706,2.8216706 0 0 0 -1.781394,0.8239 l -3.718659,3.71866 0,0.71255 3.718659,-3.71866 a 2.8216706,2.8216706 0 0 1 3.651857,-0.28947 l 9.975805,7.12559 a 2.8216706,2.8216706 0 0 1 1.157906,2.0041 2.8216706,2.8216706 0 0 0 -1.157906,-2.7167 l -9.975805,-7.12555 a 2.8216706,2.8216706 0 0 0 -1.870463,-0.53442 z m 0.222674,7.10327 -8.55069,8.5507 0,0.7126 8.55069,-8.5507 0,-0.7126 z m 9.485922,3.2065 -9.485922,6.7693 0,0.7126 9.975805,-7.1256 -0.489883,-0.3563 z m 12.135745,0 -27.344394,19.15 0,0.7126 27.856544,-19.5063 -0.51215,-0.3563 z" />
      </g>
      <g
         id="layer5"
         transform="translate(0,956.36218)">
        <rect
           style="opacity:0.1;fill:url(#linearGradient11149);fill-opacity:1;fill-rule:nonzero;stroke:#ffffff;stroke-width:0.5;stroke-linecap:round;stroke-linejoin:miter;stroke-miterlimit:4;stroke-opacity:1;stroke-dasharray:none;stroke-dashoffset:0;filter:url(#filter3794-63)"
           id="rect3171"
           clip-path="url(#clipPath3613-08)"
           y="15"
           x="15"
           ry="12"
           rx="12"
           height="66"
           width="66" />
      </g>
    </g>
  </g>
</svg>
