<?xml version="1.0" encoding="UTF-8" standalone="no"?>
<!-- Created with Inkscape (http://www.inkscape.org/) -->
<svg id="svg2" xmlns:rdf="http://www.w3.org/1999/02/22-rdf-syntax-ns#" xmlns="http://www.w3.org/2000/svg" height="96" width="96" version="1.1" xmlns:cc="http://creativecommons.org/ns#" xmlns:xlink="http://www.w3.org/1999/xlink" xmlns:dc="http://purl.org/dc/elements/1.1/">
 <defs id="defs4">
  <filter id="filter6279" color-interpolation-filters="sRGB">
   <feGaussianBlur id="feGaussianBlur6281" stdDeviation="0.8"/>
  </filter>
  <linearGradient id="linearGradient11108" y2="902.36" gradientUnits="userSpaceOnUse" x2="48" gradientTransform="translate(0 -.0000078516)" y1="1052.4" x1="48">
   <stop id="stop3702-08" style="stop-color:#2d2d2d" offset="0"/>
   <stop id="stop3704-1" style="stop-color:#6b6b6b" offset="1"/>
  </linearGradient>
  <linearGradient id="linearGradient6491" y2="16" gradientUnits="userSpaceOnUse" x2="48" gradientTransform="matrix(.71256 0 0 .71256 11.063 969.66)" y1="80" x1="48">
   <stop id="stop3681" style="stop-color:#d8d5cc" offset="0"/>
   <stop id="stop3683-9" style="stop-color:#40474b" offset="1"/>
  </linearGradient>
  <linearGradient id="linearGradient11149" y2="138.66" gradientUnits="userSpaceOnUse" x2="48" y1="20.221" x1="48">
   <stop id="stop3739-38" style="stop-color:#fff" offset="0"/>
   <stop id="stop3741-51" style="stop-color:#fff;stop-opacity:0" offset="1"/>
  </linearGradient>
  <clipPath id="clipPath3613-08">
   <rect id="rect3615-7" style="fill:#fff" rx="6" ry="6" height="84" width="84" y="6" x="6"/>
  </clipPath>
  <filter id="filter3794-63" height="1.384" width="1.384" color-interpolation-filters="sRGB" y="-.192" x="-.192">
   <feGaussianBlur id="feGaussianBlur3796-50" stdDeviation="5.28"/>
  </filter>
 </defs>
 <metadata id="metadata7">
  <rdf:RDF>
   <cc:Work rdf:about="">
    <dc:format>image/svg+xml</dc:format>
    <dc:type rdf:resource="http://purl.org/dc/dcmitype/StillImage"/>
    <dc:title/>
   </cc:Work>
  </rdf:RDF>
 </metadata>
 <g id="layer1" transform="translate(0 -956.36)">
  <g id="g12000" transform="translate(0,-1e-5)">
   <rect id="rect9283" ry="5" style="filter:url(#filter6279)" rx="5" transform="translate(0 -.0000078516)" height="80" width="80" y="964.36" x="8"/>
   <rect id="rect9285" style="fill:url(#linearGradient11108)" rx="5" ry="5" height="80" width="80" y="964.36" x="8"/>
   <g id="g6497">
    <path id="path3702" d="m30.236 978.97a0.66549 0.66549 0 0 0 -0.60122 0.66802v26.365a0.66549 0.66549 0 0 0 1.1356 0.4677l8.1499-8.1499 8.7734 6.2571-8.1721 5.8341v-8.6843a0.66549 0.66549 0 0 0 -1.1356 -0.4676l-8.5507 8.5507a0.66549 0.66549 0 0 0 -0.20041 0.4676v19.239a0.66549 0.66549 0 0 0 1.0466 0.5345l35.628-24.94a0.66549 0.66549 0 0 0 0 -1.0688l-35.629-25a0.66549 0.66549 0 0 0 -0.44535 -0.13361zm3.5628 7.3705 26.053 18.237-26.053 18.237v-11.089l1.5587-1.5587v1.5364c-0.000132 0.049-0.0033 0.1956 0 0.2449 0.0033 0.049 0.03789 0.1738 0.04453 0.2227 0.0066 0.049 0.01228 0.1966 0.02227 0.245 0.01 0.048 0.05351 0.175 0.0668 0.2226 0.01329 0.048 0.05028 0.1984 0.0668 0.245 0.01652 0.047 0.06938 0.1773 0.08907 0.2227 0.01969 0.045 0.08858 0.1565 0.11134 0.2004 0.02275 0.044 0.08563 0.1804 0.11134 0.2226 0.02571 0.042 0.10506 0.1601 0.1336 0.2004 0.02855 0.04 0.10235 0.1399 0.1336 0.1782 0.03125 0.038 0.14433 0.1421 0.17814 0.1781s0.11967 0.1445 0.15587 0.1782c0.0362 0.034 0.13971 0.1248 0.17814 0.1558s0.15994 0.1276 0.20041 0.1559c0.04047 0.028 0.15808 0.086 0.20041 0.1113 0.04232 0.025 0.15643 0.1111 0.20041 0.1336 0.04397 0.023 0.17726 0.07 0.22267 0.089 0.04542 0.019 0.17603 0.073 0.22267 0.089s0.17502 0.054 0.22267 0.067c0.04766 0.013 0.1965 0.057 0.24494 0.067s0.17368 0.038 0.22267 0.044c0.049 0.01 0.19562 0.019 0.24494 0.022 0.04932 0 0.19553 0.0004 0.24494 0s0.19568-0.019 0.24494-0.022c0.04927 0 0.17378-0.015 0.22267-0.022 0.04889-0.01 0.19666-0.034 0.24494-0.045 0.04828-0.01 0.17522-0.031 0.22267-0.044 0.04745-0.014 0.19855-0.072 0.24494-0.089s0.17756-0.069 0.22267-0.089 0.15678-0.066 0.20041-0.089c0.04362-0.023 0.18075-0.1075 0.22267-0.1336 0.0387-0.024 0.1311-0.1004 0.17814-0.1336h0.02227l9.9535-7.1256c0.03465-0.025 0.14502-0.084 0.17814-0.1113 0.03312-0.027 0.1244-0.1049 0.15587-0.1337 0.03147-0.029 0.1039-0.1252 0.1336-0.1558 0.02971-0.031 0.12803-0.1236 0.15587-0.1559 0.02785-0.032 0.10772-0.122 0.1336-0.1559 0.02588-0.034 0.08751-0.1205 0.11134-0.1558 0.02383-0.035 0.08965-0.1415 0.11134-0.1782 0.02169-0.037 0.06959-0.1402 0.08907-0.1781 0.01948-0.038 0.07187-0.1614 0.08907-0.2004 0.01719-0.039 0.07422-0.1382 0.08907-0.1782 0.01486-0.04 0.05435-0.1596 0.0668-0.2004 0.01246-0.041 0.03452-0.1589 0.04453-0.2004 0.01002-0.041 0.03699-0.1584 0.04454-0.2004 0.0075-0.042 0.03949-0.1581 0.04453-0.2004 0.0051-0.042 0.01974-0.1801 0.02227-0.2227 0.0025-0.043 0-0.1577 0-0.2004 0-0.043 0.0025-0.1578 0-0.2004-0.0025-0.043-0.01722-0.1803-0.02227-0.2227-0.0051-0.042-0.03699-0.1584-0.04453-0.2004-0.0075-0.042-0.03452-0.1589-0.04454-0.2004-0.01002-0.041-0.03208-0.1596-0.04453-0.2004-0.01246-0.041-0.05195-0.1604-0.0668-0.2004-0.01486-0.04-0.07187-0.1391-0.08907-0.1781-0.01719-0.039-0.06959-0.1625-0.08907-0.2004-0.01948-0.038-0.06738-0.1415-0.08907-0.1782-0.02169-0.037-0.08751-0.1428-0.11134-0.1781-0.02383-0.035-0.08546-0.122-0.11134-0.1559-0.02588-0.034-0.10576-0.1236-0.1336-0.1558-0.02785-0.032-0.12616-0.1253-0.15587-0.1559-0.02971-0.031-0.10214-0.1271-0.1336-0.1559-0.03147-0.029-0.12275-0.1068-0.15587-0.1336-0.03312-0.027-0.14349-0.087-0.17814-0.1113l-9.954-6.97c-0.003-0.002-0.01868 0.003-0.02227 0-0.05864-0.0415-0.19361-0.14744-0.24494-0.17814-0.05447-0.0326-0.21008-0.10595-0.26721-0.1336-0.05713-0.0276-0.23013-0.11111-0.28948-0.13361s-0.22838-0.0719-0.28948-0.0891-0.2271-0.0551-0.28948-0.0668-0.24858-0.0384-0.31174-0.0445c-0.06317-0.006-0.24828-0.0217-0.31174-0.0223-0.06347-0.00059-0.24847-0.005-0.31174 0s-0.22689 0.034-0.28948 0.0445c-0.06258 0.0106-0.25034 0.0507-0.31174 0.0668-0.06141 0.0161-0.22972 0.0677-0.28948 0.0891-0.05975 0.0214-0.23185 0.0847-0.28948 0.11134-0.05763 0.0266-0.21215 0.1243-0.26721 0.15587-0.05506 0.0316-0.21515 0.11957-0.26721 0.15588-0.05206 0.0363-0.19628 0.15965-0.24494 0.2004-0.04866 0.0408-0.1778 0.15552-0.22267 0.20041l-2.583 2.583v-11.223z" style="opacity:.15"/>
    <path id="path3696" d="m30.302 979.64v26.365l8.5507-8.5506 9.9758 7.1256-9.9758 7.1256v-9.9758l-8.5507 8.5507v19.239l35.628-24.94-35.628-24.939zm2.828 5.4333 27.857 19.506-27.857 19.506v-12.626l2.8948-2.8948v3.1397a2.8217 2.8217 0 0 0 4.4758 2.2935l9.9758-7.1255a2.8217 2.8217 0 0 0 0 -4.5871l-9.9758-7.1256a2.8217 2.8217 0 0 0 -3.6519 0.28947l-3.7187 3.7187v-14.095z" style="opacity:.3"/>
    <path id="path3661" d="m30.302 978.93v26.365l8.5507-8.5507 9.9758 7.1256-9.9758 7.1255v-9.9758l-8.5507 8.5507v19.239l35.628-24.94-35.628-24.94zm2.828 5.4332 27.857 19.506-27.857 19.506v-12.626l2.8948-2.8948v3.1397a2.8217 2.8217 0 0 0 4.4758 2.2936l9.9758-7.1256a2.8217 2.8217 0 0 0 0 -4.5871l-9.9758-7.1256a2.8217 2.8217 0 0 0 -3.6519 0.28948l-3.7187 3.7187v-14.095z" style="fill:url(#linearGradient6491)"/>
    <path id="path3687" d="m30.302 978.93v0.71255l35.116 24.583 0.51215-0.3562-35.628-24.94zm8.328 14.986a2.8217 2.8217 0 0 0 -1.7814 0.8239l-3.7187 3.7187v0.71255l3.7187-3.7187a2.8217 2.8217 0 0 1 3.6519 -0.28947l9.9758 7.1256a2.8217 2.8217 0 0 1 1.1579 2.0041 2.8217 2.8217 0 0 0 -1.1579 -2.7167l-9.9758-7.1256a2.8217 2.8217 0 0 0 -1.8705 -0.53442zm0.22267 7.1033-8.5507 8.5507v0.7126l8.5507-8.5507v-0.7126zm9.4859 3.2065-9.4859 6.7693v0.7126l9.9758-7.1256-0.48988-0.3563zm12.136 0-27.344 19.15v0.7126l27.857-19.506-0.51215-0.3563z" style="opacity:.3;fill:#fff"/>
   </g>
   <g id="layer5" transform="translate(0 956.36)">
    <rect id="rect3171" style="opacity:.1;filter:url(#filter3794-63);stroke:#fff;stroke-linecap:round;stroke-width:.5;fill:url(#linearGradient11149)" clip-path="url(#clipPath3613-08)" rx="12" ry="12" height="66" width="66" y="15" x="15"/>
   </g>
  </g>
 </g>
</svg>
