<?xml version="1.0" encoding="UTF-8" standalone="no"?>
<!-- Created with Inkscape (http://www.inkscape.org/) -->
<svg id="svg2" xmlns:rdf="http://www.w3.org/1999/02/22-rdf-syntax-ns#" xmlns="http://www.w3.org/2000/svg" height="96" width="96" version="1.1" xmlns:cc="http://creativecommons.org/ns#" xmlns:xlink="http://www.w3.org/1999/xlink" xmlns:dc="http://purl.org/dc/elements/1.1/">
 <defs id="defs4">
  <filter id="filter6279" color-interpolation-filters="sRGB">
   <feGaussianBlur id="feGaussianBlur6281" stdDeviation="0.8"/>
  </filter>
  <linearGradient id="linearGradient12028" y2="902.36" gradientUnits="userSpaceOnUse" x2="48" gradientTransform="translate(0 -.0000078516)" y1="1052.4" x1="48">
   <stop id="stop3702-08" style="stop-color:#2d2d2d" offset="0"/>
   <stop id="stop3704-1" style="stop-color:#6b6b6b" offset="1"/>
  </linearGradient>
  <linearGradient id="linearGradient12539" y2="138.66" gradientUnits="userSpaceOnUse" x2="48" y1="20.221" x1="48">
   <stop id="stop3739-48" style="stop-color:#fff" offset="0"/>
   <stop id="stop3741-70" style="stop-color:#fff;stop-opacity:0" offset="1"/>
  </linearGradient>
  <clipPath id="clipPath3613-86">
   <rect id="rect3615-24" style="fill:#fff" rx="6" ry="6" height="84" width="84" y="6" x="6"/>
  </clipPath>
  <filter id="filter3794-79" height="1.384" width="1.384" color-interpolation-filters="sRGB" y="-.192" x="-.192">
   <feGaussianBlur id="feGaussianBlur3796-392" stdDeviation="5.28"/>
  </filter>
  <radialGradient id="radialGradient3723" gradientUnits="userSpaceOnUse" cy="58.667" cx="48" gradientTransform="matrix(1,0,0,1.5,0,-24)" r="16">
   <stop id="stop3719-9" style="stop-color:#fff" offset="0"/>
   <stop id="stop3721-6" style="stop-color:#93a3aa" offset="1"/>
  </radialGradient>
  <linearGradient id="linearGradient3789" y2="46.271" gradientUnits="userSpaceOnUse" x2="48.353" y1="24.342" x1="48.353">
   <stop id="stop3784" style="stop-color:#697c84" offset="0"/>
   <stop id="stop3786" style="stop-color:#697c84;stop-opacity:0" offset="1"/>
  </linearGradient>
  <linearGradient id="linearGradient3750" y2="22.683" gradientUnits="userSpaceOnUse" x2="41.864" y1="71.088" x1="41.646">
   <stop id="stop3746-7" style="stop-color:#fff" offset="0"/>
   <stop id="stop3748-8" style="stop-color:#fff;stop-opacity:0" offset="1"/>
  </linearGradient>
  <radialGradient id="radialGradient3762" xlink:href="#linearGradient3756" gradientUnits="userSpaceOnUse" cy="46.454" cx="55.598" gradientTransform="matrix(.94969 -.31318 1.2097 3.6681 -53.397 -103.87)" r="2.6137"/>
  <linearGradient id="linearGradient3756">
   <stop id="stop3758-5" style="stop-color:#fff" offset="0"/>
   <stop id="stop3760" style="stop-color:#fff;stop-opacity:0" offset="1"/>
  </linearGradient>
  <radialGradient id="radialGradient3776" xlink:href="#linearGradient3756" gradientUnits="userSpaceOnUse" cy="46.454" cx="55.598" gradientTransform="matrix(.39510 -.13029 .50325 1.5261 6.3824 -26.002)" r="2.6137"/>
 </defs>
 <metadata id="metadata7">
  <rdf:RDF>
   <cc:Work rdf:about="">
    <dc:format>image/svg+xml</dc:format>
    <dc:type rdf:resource="http://purl.org/dc/dcmitype/StillImage"/>
    <dc:title/>
   </cc:Work>
  </rdf:RDF>
 </metadata>
 <g id="layer1" transform="translate(0 -956.36)">
  <g id="g12558" transform="translate(0,-1e-5)">
   <g id="g12541">
    <rect id="rect9283" style="filter:url(#filter6279)" transform="translate(0 -.0000078516)" rx="5" ry="5" height="80" width="80" y="964.36" x="8"/>
    <rect id="rect9285" style="fill:url(#linearGradient12028)" rx="5" ry="5" height="80" width="80" y="964.36" x="8"/>
    <g id="layer5" transform="translate(0 956.36)">
     <rect id="rect3171" style="opacity:.1;filter:url(#filter3794-79);stroke:#fff;stroke-linecap:round;stroke-width:.5;fill:url(#linearGradient12539)" clip-path="url(#clipPath3613-86)" rx="12" ry="12" height="66" width="66" y="15" x="15"/>
    </g>
    <g id="layer4" transform="translate(4.7868e-7 956.36)">
     <path id="path3663" style="color:#000000;fill:url(#radialGradient3723)" d="m48 24c-3.2512 8.4531-16 20.927-16 32 0 8.8366 7.1634 16 16 16s16-7.1634 16-16c0-9.32-15.567-22.03-16-32z"/>
     <path id="path3780" style="opacity:.8;color:#000000;fill:url(#linearGradient3789)" d="m48 24c-2.884 7.497-13.227 18.147-15.531 28.188h30.812c-3.073-8.784-14.904-19.516-15.281-28.188z"/>
     <path id="path3732" style="opacity:.4;fill:#6b7d85" d="m47.475 28.785c-6.306 9.531-16.643 22.631-13.22 30.129 4.114 2.411-3.262-5.926 13.22-30.129z"/>
     <path id="path3734" style="opacity:.6;fill:url(#linearGradient3750)" d="m47.316 27.425c-8.831 14.936-13.628 18.643-14.391 28.019 0.205 15.156 14.391 15.699 14.391 15.699l-1.4173-8.8308s-3.4563 0.80742-5.9962-8.2857c-1.3805-4.9422 7.4135-26.601 7.4135-26.601z"/>
     <path id="path3727" style="opacity:.3;color:#000000;fill:#697c84" d="m59.807 55.754c0 7.8754-6.0153 12.987-13.641 12.987-1.8712 0-3.6592-0.39331-5.2812-1.0625 2.1634 1.4167 4.7375 2.25 7.5312 2.25 7.6257 0 13.75-6.1243 13.75-13.75 0-3.4127-1.4977-6.154-7.4062-14.469 2.3384 5.5482 5.0472 6.1835 5.0472 14.044z"/>
     <path id="path3752" style="fill:#fff" d="m41.973 68.635-1.308-6.868c-7.086-3.489-3.598-13.737-3.598-13.737s-7.7406 13.301 4.906 20.605z"/>
     <path id="path3754" style="fill:url(#radialGradient3762)" d="m52.331 37.673c0.92985 4.8942 4.8817 8.6231 5.1142 11.497 0.7555 5.1272-2.499 2.8744-3.022 0.46611 0 0-1.511-5.438-2.0922-11.964z"/>
     <path id="path3766" style="opacity:.6;color:#000000;fill:#697c84" d="m60.156 51.562c0.23056 1.1939 0.40625 2.4724 0.40625 4.1875 0 6.911-4.5197 11.837-10.656 13.281 6.4901-0.74478 11.5-6.1412 11.5-12.844 0-1.4753-0.35588-2.7934-1.25-4.625z"/>
     <path id="path3769" style="opacity:.5;color:#000000;fill:#6a7d84" d="m48 24c-0.17598 0.45756-0.39689 0.92599-0.625 1.4062 2.417 9.549 15.625 21.006 15.625 29.594 0 8.837-7.163 16-16 16-4.162 0-7.935-1.614-10.781-4.219 2.925 3.197 7.106 5.219 11.781 5.219 8.837 0 16-7.163 16-16 0-9.32-15.567-22.03-16-32z"/>
     <path id="path3774" style="opacity:.5;fill:url(#radialGradient3776)" d="m50.368 32.886c0.38684 2.0361 2.0309 3.5875 2.1276 4.7833 0.31431 2.1331-1.0396 1.1958-1.2572 0.19392 0 0-0.62862-2.2624-0.8704-4.9772z"/>
    </g>
   </g>
  </g>
 </g>
</svg>
