<?xml version="1.0" encoding="UTF-8" standalone="no"?>
<!-- Created with Inkscape (http://www.inkscape.org/) -->

<svg
   xmlns:dc="http://purl.org/dc/elements/1.1/"
   xmlns:cc="http://creativecommons.org/ns#"
   xmlns:rdf="http://www.w3.org/1999/02/22-rdf-syntax-ns#"
   xmlns:svg="http://www.w3.org/2000/svg"
   xmlns="http://www.w3.org/2000/svg"
   xmlns:xlink="http://www.w3.org/1999/xlink"
   xmlns:sodipodi="http://sodipodi.sourceforge.net/DTD/sodipodi-0.dtd"
   xmlns:inkscape="http://www.inkscape.org/namespaces/inkscape"
   width="96"
   height="96"
   id="svg2"
   version="1.1"
   inkscape:version="0.48.1 r9760"
   sodipodi:docname="deluge.svg">
  <defs
     id="defs4">
    <filter
       color-interpolation-filters="sRGB"
       inkscape:collect="always"
       id="filter6279">
      <feGaussianBlur
         inkscape:collect="always"
         stdDeviation="0.8"
         id="feGaussianBlur6281" />
    </filter>
    <linearGradient
       inkscape:collect="always"
       xlink:href="#linearGradient3700-9-0"
       id="linearGradient12028"
       gradientUnits="userSpaceOnUse"
       gradientTransform="translate(0,-7.8515622e-6)"
       x1="48"
       y1="1052.3622"
       x2="48"
       y2="902.36218" />
    <linearGradient
       id="linearGradient3700-9-0">
      <stop
         id="stop3702-08"
         style="stop-color:#2d2d2d;stop-opacity:1"
         offset="0" />
      <stop
         id="stop3704-1"
         style="stop-color:#6b6b6b;stop-opacity:1"
         offset="1" />
    </linearGradient>
    <linearGradient
       inkscape:collect="always"
       xlink:href="#linearGradient3737-10"
       id="linearGradient12539"
       gradientUnits="userSpaceOnUse"
       x1="48"
       y1="20.220806"
       x2="48"
       y2="138.66119" />
    <linearGradient
       id="linearGradient3737-10">
      <stop
         id="stop3739-48"
         style="stop-color:#ffffff;stop-opacity:1"
         offset="0" />
      <stop
         id="stop3741-70"
         style="stop-color:#ffffff;stop-opacity:0"
         offset="1" />
    </linearGradient>
    <clipPath
       id="clipPath3613-86">
      <rect
         width="84"
         height="84"
         rx="6"
         ry="6"
         x="6"
         y="6"
         id="rect3615-24"
         style="fill:#ffffff;fill-opacity:1;fill-rule:nonzero;stroke:none" />
    </clipPath>
    <filter
       x="-0.192"
       y="-0.192"
       width="1.3839999"
       height="1.3839999"
       color-interpolation-filters="sRGB"
       id="filter3794-79">
      <feGaussianBlur
         id="feGaussianBlur3796-392"
         stdDeviation="5.28" />
    </filter>
    <radialGradient
       cx="48"
       cy="58.666668"
       r="16"
       fx="48"
       fy="58.666668"
       id="radialGradient3723"
       xlink:href="#linearGradient3717"
       gradientUnits="userSpaceOnUse"
       gradientTransform="matrix(1,0,0,1.5,0,-24)" />
    <linearGradient
       id="linearGradient3717">
      <stop
         id="stop3719-9"
         style="stop-color:#ffffff;stop-opacity:1"
         offset="0" />
      <stop
         id="stop3721-6"
         style="stop-color:#93a3aa;stop-opacity:1"
         offset="1" />
    </linearGradient>
    <linearGradient
       x1="48.353294"
       y1="24.342234"
       x2="48.353294"
       y2="46.270821"
       id="linearGradient3789"
       xlink:href="#linearGradient3782-2"
       gradientUnits="userSpaceOnUse" />
    <linearGradient
       id="linearGradient3782-2">
      <stop
         id="stop3784"
         style="stop-color:#697c84;stop-opacity:1"
         offset="0" />
      <stop
         id="stop3786"
         style="stop-color:#697c84;stop-opacity:0"
         offset="1" />
    </linearGradient>
    <linearGradient
       x1="41.646389"
       y1="71.088478"
       x2="41.864433"
       y2="22.682728"
       id="linearGradient3750"
       xlink:href="#linearGradient3744-1"
       gradientUnits="userSpaceOnUse" />
    <linearGradient
       id="linearGradient3744-1">
      <stop
         id="stop3746-7"
         style="stop-color:#ffffff;stop-opacity:1"
         offset="0" />
      <stop
         id="stop3748-8"
         style="stop-color:#ffffff;stop-opacity:0"
         offset="1" />
    </linearGradient>
    <radialGradient
       cx="55.598351"
       cy="46.454388"
       r="2.6136763"
       fx="55.598351"
       fy="46.454388"
       id="radialGradient3762"
       xlink:href="#linearGradient3756"
       gradientUnits="userSpaceOnUse"
       gradientTransform="matrix(0.94969259,-0.31318364,1.2096513,3.6681255,-53.396602,-103.87465)" />
    <linearGradient
       id="linearGradient3756">
      <stop
         id="stop3758-5"
         style="stop-color:#ffffff;stop-opacity:1"
         offset="0" />
      <stop
         id="stop3760"
         style="stop-color:#ffffff;stop-opacity:0"
         offset="1" />
    </linearGradient>
    <radialGradient
       cx="55.598351"
       cy="46.454388"
       r="2.6136763"
       fx="55.598351"
       fy="46.454388"
       id="radialGradient3776"
       xlink:href="#linearGradient3756"
       gradientUnits="userSpaceOnUse"
       gradientTransform="matrix(0.39510098,-0.13029391,0.5032517,1.5260517,6.3824423,-26.002402)" />
    <linearGradient
       id="linearGradient5736">
      <stop
         id="stop5738"
         style="stop-color:#ffffff;stop-opacity:1"
         offset="0" />
      <stop
         id="stop5740"
         style="stop-color:#ffffff;stop-opacity:0"
         offset="1" />
    </linearGradient>
  </defs>
  <sodipodi:namedview
     id="base"
     pagecolor="#ffffff"
     bordercolor="#666666"
     borderopacity="1.0"
     inkscape:pageopacity="0.0"
     inkscape:pageshadow="2"
     inkscape:zoom="3.959798"
     inkscape:cx="28.389459"
     inkscape:cy="57.490015"
     inkscape:document-units="px"
     inkscape:current-layer="layer1"
     showgrid="false"
     inkscape:window-width="1280"
     inkscape:window-height="725"
     inkscape:window-x="0"
     inkscape:window-y="25"
     inkscape:window-maximized="1" />
  <metadata
     id="metadata7">
    <rdf:RDF>
      <cc:Work
         rdf:about="">
        <dc:format>image/svg+xml</dc:format>
        <dc:type
           rdf:resource="http://purl.org/dc/dcmitype/StillImage" />
        <dc:title></dc:title>
      </cc:Work>
    </rdf:RDF>
  </metadata>
  <g
     inkscape:label="Layer 1"
     inkscape:groupmode="layer"
     id="layer1"
     transform="translate(0,-956.36217)">
    <g
       transform="translate(0,-1e-5)"
       id="g12558">
      <g
         id="g12541">
        <rect
           ry="5"
           rx="5"
           style="fill:#000000;fill-opacity:1;stroke:none;filter:url(#filter6279)"
           id="rect9283"
           width="80"
           height="80"
           x="8"
           y="964.36218"
           transform="translate(0,-7.8515622e-6)" />
        <rect
           y="964.36218"
           x="8"
           height="80"
           width="80"
           id="rect9285"
           style="fill:url(#linearGradient12028);fill-opacity:1;stroke:none"
           rx="5"
           ry="5" />
        <g
           transform="translate(0,956.36218)"
           id="layer5">
          <rect
             width="66"
             height="66"
             rx="12"
             ry="12"
             x="15"
             y="15"
             clip-path="url(#clipPath3613-86)"
             id="rect3171"
             style="opacity:0.1;fill:url(#linearGradient12539);fill-opacity:1;fill-rule:nonzero;stroke:#ffffff;stroke-width:0.5;stroke-linecap:round;stroke-linejoin:miter;stroke-miterlimit:4;stroke-opacity:1;stroke-dasharray:none;stroke-dashoffset:0;filter:url(#filter3794-79)" />
        </g>
        <g
           transform="translate(4.7867551e-7,956.36218)"
           id="layer4">
          <path
             d="m 48,24 c -3.251199,8.453116 -16,20.926817 -16,32 0,8.836554 7.163444,16 16,16 8.836556,0 16,-7.163446 16,-16 C 64,46.679898 48.433493,33.970342 48,24 z"
             inkscape:connector-curvature="0"
             id="path3663"
             style="color:#000000;fill:url(#radialGradient3723);fill-opacity:1;fill-rule:nonzero;stroke:none;stroke-width:0.5;marker:none;visibility:visible;display:inline;overflow:visible;enable-background:accumulate" />
          <path
             d="M 48,24 C 45.116393,31.497377 34.773423,42.146866 32.46875,52.1875 l 30.8125,0 C 60.208022,43.403591 48.377049,32.67212 48,24 z"
             inkscape:connector-curvature="0"
             id="path3780"
             style="opacity:0.8;color:#000000;fill:url(#linearGradient3789);fill-opacity:1;fill-rule:nonzero;stroke:none;stroke-width:0.5;marker:none;visibility:visible;display:inline;overflow:visible;enable-background:accumulate" />
          <path
             d="M 47.474705,28.784687 C 41.169207,38.315974 30.831727,51.416191 34.254702,58.913998 38.368811,61.324879 30.992764,52.987563 47.474705,28.784687 z"
             inkscape:connector-curvature="0"
             id="path3732"
             style="opacity:0.4;fill:#6b7d85;fill-opacity:1;stroke:none" />
          <path
             d="M 47.315533,27.425184 C 38.484754,42.361193 33.687788,46.06794 32.924634,55.443829 33.130246,70.600017 47.315533,71.142992 47.315533,71.142992 l -1.417286,-8.830779 c 0,0 -3.456313,0.807425 -5.996208,-8.28567 -1.380475,-4.942248 7.413494,-26.601359 7.413494,-26.601359 z"
             inkscape:connector-curvature="0"
             id="path3734"
             style="opacity:0.6;fill:url(#linearGradient3750);fill-opacity:1;stroke:none" />
          <path
             d="m 59.807442,55.75445 c 0,7.875442 -6.015279,12.986846 -13.640978,12.986846 -1.871169,0 -3.659178,-0.393314 -5.28125,-1.0625 2.163405,1.416699 4.737481,2.25 7.53125,2.25 7.625699,0 13.75,-6.124302 13.75,-13.75 0,-3.412684 -1.497712,-6.15404 -7.40625,-14.46875 2.338445,5.548231 5.047228,6.183513 5.047228,14.044404 z"
             inkscape:connector-curvature="0"
             id="path3727"
             style="opacity:0.3;color:#000000;fill:#697c84;fill-opacity:1;fill-rule:nonzero;stroke:none;stroke-width:0.5;marker:none;visibility:visible;display:inline;overflow:visible;enable-background:accumulate" />
          <path
             d="M 41.973457,68.635487 40.665193,61.767103 C 33.578765,58.2784 37.067468,48.030335 37.067468,48.030335 c 0,0 -7.740559,13.30068 4.905989,20.605152 z"
             inkscape:connector-curvature="0"
             id="path3752"
             style="fill:#ffffff;stroke:none" />
          <path
             d="m 52.330543,37.673248 c 0.929847,4.894168 4.881699,8.623058 5.114161,11.497411 0.755502,5.127224 -2.498965,2.874353 -3.022004,0.466111 0,0 -1.511002,-5.437964 -2.092157,-11.963522 z"
             inkscape:connector-curvature="0"
             id="path3754"
             style="fill:url(#radialGradient3762);fill-opacity:1;stroke:none" />
          <path
             d="m 60.15625,51.5625 c 0.230563,1.193889 0.40625,2.472396 0.40625,4.1875 0,6.910999 -4.519713,11.836947 -10.65625,13.28125 6.490123,-0.744782 11.5,-6.141205 11.5,-12.84375 0,-1.475328 -0.355885,-2.793428 -1.25,-4.625 z"
             inkscape:connector-curvature="0"
             id="path3766"
             style="opacity:0.6;color:#000000;fill:#697c84;fill-opacity:1;fill-rule:nonzero;stroke:none;stroke-width:0.5;marker:none;visibility:visible;display:inline;overflow:visible;enable-background:accumulate" />
          <path
             d="m 48,24 c -0.175985,0.457561 -0.396888,0.925988 -0.625,1.40625 C 49.791544,34.954811 63,46.412435 63,55 63,63.836554 55.836556,71 47,71 42.838065,71 39.06475,69.38578 36.21875,66.78125 39.144118,69.977834 43.325379,72 48,72 56.836556,72 64,64.836554 64,56 64,46.679898 48.433493,33.970342 48,24 z"
             inkscape:connector-curvature="0"
             id="path3769"
             style="opacity:0.5;color:#000000;fill:#6a7d84;fill-opacity:1;fill-rule:nonzero;stroke:none;stroke-width:0.5;marker:none;visibility:visible;display:inline;overflow:visible;enable-background:accumulate" />
          <path
             d="m 50.368148,32.885825 c 0.386844,2.036123 2.030935,3.587454 2.127646,4.783272 0.314312,2.133081 -1.039645,1.195819 -1.257246,0.193917 0,0 -0.628622,-2.262358 -0.8704,-4.977189 z"
             inkscape:connector-curvature="0"
             id="path3774"
             style="opacity:0.5;fill:url(#radialGradient3776);fill-opacity:1;stroke:none" />
        </g>
      </g>
    </g>
  </g>
</svg>
