<?xml version="1.0" encoding="UTF-8" standalone="no"?>
<!-- Created with Inkscape (http://www.inkscape.org/) -->

<svg
   xmlns:dc="http://purl.org/dc/elements/1.1/"
   xmlns:cc="http://creativecommons.org/ns#"
   xmlns:rdf="http://www.w3.org/1999/02/22-rdf-syntax-ns#"
   xmlns:svg="http://www.w3.org/2000/svg"
   xmlns="http://www.w3.org/2000/svg"
   xmlns:xlink="http://www.w3.org/1999/xlink"
   xmlns:sodipodi="http://sodipodi.sourceforge.net/DTD/sodipodi-0.dtd"
   xmlns:inkscape="http://www.inkscape.org/namespaces/inkscape"
   width="96"
   height="96"
   id="svg2"
   version="1.1"
   inkscape:version="0.48.1 r9760"
   sodipodi:docname="devhelp.svg">
  <defs
     id="defs4">
    <filter
       color-interpolation-filters="sRGB"
       inkscape:collect="always"
       id="filter6279">
      <feGaussianBlur
         inkscape:collect="always"
         stdDeviation="0.8"
         id="feGaussianBlur6281" />
    </filter>
    <linearGradient
       inkscape:collect="always"
       xlink:href="#linearGradient3633"
       id="linearGradient5801"
       gradientUnits="userSpaceOnUse"
       gradientTransform="translate(0,-7.8515622e-6)"
       x1="48"
       y1="1052.3622"
       x2="48"
       y2="902.36218" />
    <linearGradient
       id="linearGradient3633"
       y2="5.9794998"
       gradientUnits="userSpaceOnUse"
       x2="54.75"
       y1="90"
       x1="54.75"
       gradientTransform="translate(80.056537,29.173145)">
      <stop
         id="stop3629"
         style="stop-color:#a91c1c"
         offset="0" />
      <stop
         id="stop3631"
         style="stop-color:#dd2c2c"
         offset="1" />
    </linearGradient>
    <filter
       id="filter3850"
       color-interpolation-filters="sRGB">
      <feGaussianBlur
         id="feGaussianBlur3852"
         stdDeviation="0.46499996" />
    </filter>
    <linearGradient
       inkscape:collect="always"
       xlink:href="#linearGradient3646"
       id="linearGradient6583"
       gradientUnits="userSpaceOnUse"
       gradientTransform="matrix(0.55815975,0,0,0.65468716,17.151042,972.93343)"
       x1="16"
       y1="88"
       x2="16"
       y2="8" />
    <linearGradient
       id="linearGradient3646"
       y2="8"
       gradientUnits="userSpaceOnUse"
       x2="16"
       y1="88"
       x1="16">
      <stop
         id="stop3642"
         style="stop-color:#1a1a1a"
         offset="0" />
      <stop
         id="stop3644"
         style="stop-color:#2a2a2a"
         offset="1" />
    </linearGradient>
    <linearGradient
       inkscape:collect="always"
       xlink:href="#linearGradient3820"
       id="linearGradient6585"
       gradientUnits="userSpaceOnUse"
       gradientTransform="translate(-57.375,968.11217)"
       x1="84"
       y1="62"
       x2="84"
       y2="45.969002" />
    <linearGradient
       id="linearGradient3820"
       y2="45.969002"
       gradientUnits="userSpaceOnUse"
       x2="84"
       y1="62"
       x1="84">
      <stop
         id="stop3816"
         style="stop-color:#2499b6"
         offset="0" />
      <stop
         id="stop3818"
         style="stop-color:#57c3de"
         offset="1" />
    </linearGradient>
    <linearGradient
       inkscape:collect="always"
       xlink:href="#linearGradient3791-2"
       id="linearGradient6587"
       gradientUnits="userSpaceOnUse"
       gradientTransform="translate(-57.375,968.11217)"
       x1="83"
       y1="26"
       x2="83"
       y2="9.9687996" />
    <linearGradient
       id="linearGradient3791-2"
       y2="9.9687996"
       gradientUnits="userSpaceOnUse"
       x2="83"
       y1="26"
       x1="83">
      <stop
         id="stop3787"
         style="stop-color:#ff8e00"
         offset="0" />
      <stop
         id="stop3789-0"
         style="stop-color:#ffcc0a"
         offset="1" />
    </linearGradient>
    <linearGradient
       inkscape:collect="always"
       xlink:href="#linearGradient3812"
       id="linearGradient6589"
       gradientUnits="userSpaceOnUse"
       gradientTransform="translate(-57.375,968.11217)"
       x1="84"
       y1="44"
       x2="84"
       y2="28" />
    <linearGradient
       id="linearGradient3812"
       y2="28"
       gradientUnits="userSpaceOnUse"
       x2="84"
       y1="44"
       x1="84">
      <stop
         id="stop3808"
         style="stop-color:#4baa0c"
         offset="0" />
      <stop
         id="stop3810"
         style="stop-color:#66d819"
         offset="1" />
    </linearGradient>
    <linearGradient
       y2="138.66"
       x2="48"
       y1="20.221001"
       x1="48"
       gradientUnits="userSpaceOnUse"
       id="linearGradient3287"
       xlink:href="#linearGradient3737-51"
       inkscape:collect="always" />
    <linearGradient
       id="linearGradient3737-51">
      <stop
         id="stop3739-03"
         style="stop-color:#fff"
         offset="0" />
      <stop
         id="stop3741-78"
         style="stop-color:#fff;stop-opacity:0"
         offset="1" />
    </linearGradient>
    <clipPath
       id="clipPath3613-86">
      <rect
         id="rect3615-04"
         style="fill:#ffffff"
         rx="6"
         ry="6"
         height="84"
         width="84"
         y="6"
         x="6" />
    </clipPath>
    <filter
       id="filter3794-67"
       height="1.3839999"
       width="1.3839999"
       color-interpolation-filters="sRGB"
       y="-0.192"
       x="-0.192">
      <feGaussianBlur
         id="feGaussianBlur3796-60"
         stdDeviation="5.28" />
    </filter>
  </defs>
  <sodipodi:namedview
     id="base"
     pagecolor="#ffffff"
     bordercolor="#666666"
     borderopacity="1.0"
     inkscape:pageopacity="0.0"
     inkscape:pageshadow="2"
     inkscape:zoom="3.959798"
     inkscape:cx="28.389459"
     inkscape:cy="57.490015"
     inkscape:document-units="px"
     inkscape:current-layer="layer1"
     showgrid="false"
     inkscape:window-width="1280"
     inkscape:window-height="725"
     inkscape:window-x="0"
     inkscape:window-y="25"
     inkscape:window-maximized="1" />
  <metadata
     id="metadata7">
    <rdf:RDF>
      <cc:Work
         rdf:about="">
        <dc:format>image/svg+xml</dc:format>
        <dc:type
           rdf:resource="http://purl.org/dc/dcmitype/StillImage" />
        <dc:title></dc:title>
      </cc:Work>
    </rdf:RDF>
  </metadata>
  <g
     inkscape:label="Layer 1"
     inkscape:groupmode="layer"
     id="layer1"
     transform="translate(0,-956.36217)">
    <g
       transform="translate(0,-1e-5)"
       id="g6618">
      <rect
         transform="translate(0,-7.8515622e-6)"
         y="964.36218"
         x="8"
         height="80"
         width="80"
         id="rect9283"
         style="fill:#000000;fill-opacity:1;stroke:none;filter:url(#filter6279)"
         rx="5"
         ry="5" />
      <rect
         ry="5"
         rx="5"
         style="fill:url(#linearGradient5801);fill-opacity:1;stroke:none"
         id="rect9285"
         width="80"
         height="80"
         x="8"
         y="964.36218" />
      <g
         id="g3098"
         transform="matrix(1.3397681,0,0,1.3397681,-23.035634,940.18241)">
        <path
           id="path3854"
           style="opacity:0.3;fill:#ffaaaa;filter:url(#filter3850)"
           d="M 39.844,29.188 A 0.82494,0.82494 0 0 0 39.188,30 V 66 A 0.82494,0.82494 0 0 0 40,66.812 h 11.812 c 2.1121,0 4.0777,-0.41946 5.9062,-1.25 1.8505,-0.83386 3.4657,-2.0613 4.8125,-3.6875 1.3464,-1.6257 2.3985,-3.6219 3.1562,-5.9688 0.76401,-2.3842 1.125,-5.1232 1.125,-8.1875 -3.3e-5,-3.1316 -0.35941,-5.8448 -1.1562,-8.1875 a 0.82494,0.82494 0 0 0 0,-0.03125 c -0.79055,-2.3239 -1.9183,-4.2375 -3.375,-5.7812 -1.4541,-1.5409 -3.2169,-2.698 -5.2188,-3.4375 -1.9864,-0.73366 -4.1483,-1.0937 -6.5,-1.0938 h -10.562 a 0.82494,0.82494 0 0 0 -0.15625,0 z m 7.0625,7.4375 h 3.5312 c 1.304,2.8e-5 2.4633,0.20881 3.5,0.625 a 0.82494,0.82494 0 0 0 0,0.03125 c 1.0312,0.40914 1.9054,1.0259 2.6562,1.9062 0.73799,0.85019 1.353,1.997 1.7812,3.4062 0.43535,1.3908 0.65623,3.0872 0.65625,5.125 -2e-5,1.9863 -0.21053,3.7327 -0.625,5.1875 -0.40564,1.4696 -0.9827,2.6619 -1.6875,3.625 -0.69548,0.95203 -1.4822,1.6285 -2.4062,2.0938 -0.92289,0.47084 -1.9304,0.75001 -3.0312,0.75 h -4.375 v -22.75 z"
           inkscape:connector-curvature="0" />
        <path
           id="path3827"
           style="fill:#ffffff"
           d="m 66,47.732 c -3.2e-5,2.9979 -0.36574,5.638 -1.0971,7.9205 -0.73145,2.2654 -1.732,4.1647 -3.0016,5.6977 -1.2697,1.533 -2.7739,2.6913 -4.5127,3.4748 -1.7251,0.78353 -3.5881,1.1753 -5.5892,1.1753 h -11.799 v -36 h 10.557 c 2.2633,3.9e-5 4.3402,0.34924 6.2309,1.0476 1.8906,0.6984 3.5191,1.7715 4.8853,3.2193 1.3662,1.4479 2.4288,3.2875 3.1879,5.5188 C 65.6205,42.0174 66,44.6661 66,47.7321 m -6.1481,0 c -2.1e-5,-2.0951 -0.23462,-3.8921 -0.70382,-5.3911 -0.45543,-1.4989 -1.0972,-2.7253 -1.9252,-3.6792 -0.82805,-0.97087 -1.8217,-1.6863 -2.9809,-2.1462 -1.1455,-0.45987 -2.4151,-0.68982 -3.8089,-0.68985 h -4.3264 v 24.349 h 5.1752 c 1.2282,9e-6 2.3599,-0.26399 3.3949,-0.79205 1.0488,-0.52803 1.9527,-1.3116 2.7118,-2.3506 0.7728,-1.0561 1.3731,-2.3591 1.801,-3.9092 0.44159,-1.55 0.6624,-3.347 0.66242,-5.3911"
           inkscape:connector-curvature="0" />
      </g>
      <g
         transform="matrix(1.0007776,0,0,0.8775827,-0.0159409,123.0982)"
         id="g6574">
        <path
           inkscape:connector-curvature="0"
           d="m 23.848958,976.86155 c -1.855323,0 -3.348958,1.75184 -3.348958,3.92812 v 47.13753 c 0,2.176 1.493635,3.9281 3.348958,3.9281 h 6.697917 v -54.99375 h -6.697917 z"
           style="fill:url(#linearGradient6583)"
           id="rect3635" />
        <rect
           x="21.624996"
           y="1014.1122"
           width="8"
           height="16"
           ry="2"
           rx="2"
           style="color:#000000;fill:url(#linearGradient6585)"
           id="rect3779" />
        <path
           inkscape:connector-curvature="0"
           d="m 21.625,1027.1122 v 1 c 0,1.108 0.892,2 2,2 h 4 c 1.108,0 2,-0.892 2,-2 v -1 c 0,1.108 -0.892,2 -2,2 h -4 c -1.108,0 -2,-0.892 -2,-2 z"
           style="opacity:0.2;color:#000000"
           id="path3804" />
        <rect
           x="21.624996"
           y="978.11218"
           width="8"
           height="16"
           ry="2"
           rx="2"
           style="color:#000000;fill:url(#linearGradient6587)"
           id="rect3775" />
        <path
           inkscape:connector-curvature="0"
           d="m 21.625,991.11217 v 1 c 0,1.108 0.892,2 2,2 h 4 c 1.108,0 2,-0.892 2,-2 v -1 c 0,1.108 -0.892,2 -2,2 h -4 c -1.108,0 -2,-0.892 -2,-2 z"
           style="opacity:0.2;color:#000000"
           id="rect3793" />
        <rect
           x="21.624996"
           y="996.11218"
           width="8"
           height="16"
           ry="2"
           rx="2"
           style="color:#000000;fill:url(#linearGradient6589)"
           id="rect3777" />
        <path
           inkscape:connector-curvature="0"
           d="m 21.625,1009.1122 v 1 c 0,1.108 0.892,2 2,2 h 4 c 1.108,0 2,-0.892 2,-2 v -1 c 0,1.108 -0.892,2 -2,2 h -4 c -1.108,0 -2,-0.892 -2,-2 z"
           style="opacity:0.2;color:#000000"
           id="path3802" />
      </g>
      <g
         id="layer5"
         transform="translate(0,956.36218)">
        <rect
           x="15"
           y="15"
           width="66"
           height="66"
           ry="12"
           rx="12"
           clip-path="url(#clipPath3613-86)"
           style="opacity:0.1;fill:url(#linearGradient3287);stroke:#ffffff;stroke-width:0.5;stroke-linecap:round;filter:url(#filter3794-67)"
           id="rect3171" />
      </g>
    </g>
  </g>
</svg>
