<?xml version="1.0" encoding="UTF-8" standalone="no"?>
<!-- Created with Inkscape (http://www.inkscape.org/) -->

<svg
   xmlns:dc="http://purl.org/dc/elements/1.1/"
   xmlns:cc="http://creativecommons.org/ns#"
   xmlns:rdf="http://www.w3.org/1999/02/22-rdf-syntax-ns#"
   xmlns:svg="http://www.w3.org/2000/svg"
   xmlns="http://www.w3.org/2000/svg"
   xmlns:xlink="http://www.w3.org/1999/xlink"
   xmlns:sodipodi="http://sodipodi.sourceforge.net/DTD/sodipodi-0.dtd"
   xmlns:inkscape="http://www.inkscape.org/namespaces/inkscape"
   width="96"
   height="96"
   id="svg2"
   version="1.1"
   inkscape:version="0.48.1 r9760"
   sodipodi:docname="docky.svg">
  <defs
     id="defs4">
    <filter
       color-interpolation-filters="sRGB"
       inkscape:collect="always"
       id="filter6279">
      <feGaussianBlur
         inkscape:collect="always"
         stdDeviation="0.8"
         id="feGaussianBlur6281" />
    </filter>
    <linearGradient
       inkscape:collect="always"
       xlink:href="#linearGradient3708"
       id="linearGradient5801"
       gradientUnits="userSpaceOnUse"
       gradientTransform="translate(0,-2008.7244)"
       x1="48"
       y1="1052.3622"
       x2="48"
       y2="902.36218" />
    <linearGradient
       id="linearGradient3708"
       y2="5.9877"
       gradientUnits="userSpaceOnUse"
       x2="48"
       gradientTransform="translate(0,-96)"
       y1="90"
       x1="48">
      <stop
         id="stop4627"
         style="stop-color:#51cfee"
         offset="0" />
      <stop
         id="stop4629"
         style="stop-color:#49a3d2"
         offset=".26238" />
      <stop
         id="stop4631"
         style="stop-color:#3470b4"
         offset=".70495" />
      <stop
         id="stop4633"
         style="stop-color:#1b5699"
         offset="1" />
    </linearGradient>
    <linearGradient
       inkscape:collect="always"
       xlink:href="#linearGradient2928-7"
       id="linearGradient6517"
       gradientUnits="userSpaceOnUse"
       gradientTransform="matrix(0.26298148,0,0,0.27298386,14.907947,969.10763)"
       x1="116.3"
       y1="32.375"
       x2="116.3"
       y2="226.17999" />
    <linearGradient
       id="linearGradient2928-7"
       y2="226.17999"
       gradientUnits="userSpaceOnUse"
       x2="116.3"
       gradientTransform="matrix(0.32811,0,0,0.34059,93.880035,2.9557322)"
       y1="32.375"
       x1="116.3">
      <stop
         id="stop3204"
         style="stop-color:#fff"
         offset="0" />
      <stop
         id="stop3206"
         style="stop-color:#ced3d6"
         offset="1" />
    </linearGradient>
    <linearGradient
       y2="138.66"
       x2="48"
       y1="20.221001"
       x1="48"
       gradientUnits="userSpaceOnUse"
       id="linearGradient3143-8"
       xlink:href="#linearGradient3737-25"
       inkscape:collect="always" />
    <linearGradient
       id="linearGradient3737-25">
      <stop
         id="stop3739-89"
         style="stop-color:#fff"
         offset="0" />
      <stop
         id="stop3741-02"
         style="stop-color:#fff;stop-opacity:0"
         offset="1" />
    </linearGradient>
    <clipPath
       id="clipPath3613-47">
      <rect
         id="rect3615-657"
         style="fill:#ffffff"
         rx="6"
         ry="6"
         height="84"
         width="84"
         y="6"
         x="6" />
    </clipPath>
    <filter
       id="filter3794-13"
       height="1.3839999"
       width="1.3839999"
       color-interpolation-filters="sRGB"
       y="-0.192"
       x="-0.192">
      <feGaussianBlur
         id="feGaussianBlur3796-33"
         stdDeviation="5.28" />
    </filter>
  </defs>
  <sodipodi:namedview
     id="base"
     pagecolor="#ffffff"
     bordercolor="#666666"
     borderopacity="1.0"
     inkscape:pageopacity="0.0"
     inkscape:pageshadow="2"
     inkscape:zoom="3.959798"
     inkscape:cx="28.389459"
     inkscape:cy="57.490015"
     inkscape:document-units="px"
     inkscape:current-layer="layer1"
     showgrid="false"
     inkscape:window-width="1280"
     inkscape:window-height="725"
     inkscape:window-x="0"
     inkscape:window-y="25"
     inkscape:window-maximized="1" />
  <metadata
     id="metadata7">
    <rdf:RDF>
      <cc:Work
         rdf:about="">
        <dc:format>image/svg+xml</dc:format>
        <dc:type
           rdf:resource="http://purl.org/dc/dcmitype/StillImage" />
        <dc:title></dc:title>
      </cc:Work>
    </rdf:RDF>
  </metadata>
  <g
     inkscape:label="Layer 1"
     inkscape:groupmode="layer"
     id="layer1"
     transform="translate(0,-956.36217)">
    <g
       transform="translate(0,-1e-5)"
       id="g6546">
      <rect
         transform="translate(0,-7.8515622e-6)"
         y="964.36218"
         x="8"
         height="80"
         width="80"
         id="rect9283"
         style="fill:#000000;fill-opacity:1;stroke:none;filter:url(#filter6279)"
         rx="5"
         ry="5" />
      <rect
         transform="scale(1,-1)"
         ry="5"
         rx="5"
         style="fill:url(#linearGradient5801);fill-opacity:1;stroke:none"
         id="rect9285"
         width="80"
         height="80"
         x="8"
         y="-1044.3622" />
      <path
         inkscape:connector-curvature="0"
         d="m 48.282089,977.94549 c -3.250578,0 -5.878711,2.63326 -5.877669,5.87767 -7.29e-4,2.44803 1.538888,4.46926 3.673534,5.34964 v 1.99747 H 37.26141 c -0.390285,0 -0.734715,0.31977 -0.734715,0.73472 v 2.20413 c 0,0.41494 0.319134,0.73471 0.734715,0.73471 h 8.816544 v 27.18467 c 0,0.755 -1.259644,0.7706 -1.974505,0.8496 -1.047406,-0.01 -1.684201,-0.2738 -2.686321,-0.551 -2.263127,-0.6618 -4.423581,-1.5789 -6.497633,-2.6864 -0.873238,-0.4841 -1.725639,-0.956 -2.502617,-1.5843 -0.334883,-0.2856 -0.724383,-0.6987 -0.688796,-1.1709 0.0452,-0.3574 0.226241,-0.7381 0.619916,-0.8035 0.354809,-0.056 0.673519,0.1341 0.987292,0.2526 0.270468,0.1166 0.456537,-0.2115 0.413272,-0.4363 -0.04352,-0.5923 -0.244211,-1.1405 -0.551035,-1.6531 -0.638365,-1.0501 -1.62072,-1.8311 -2.640394,-2.5026 -1.088603,-0.6952 -2.249181,-1.4596 -2.938875,-2.5715 -0.137202,-0.2055 -0.289576,-0.5455 -0.596952,-0.4362 -0.427306,0.1386 -0.663181,0.5573 -0.872438,0.9183 -0.588857,1.1206 -0.882456,2.3295 -1.147994,3.5588 -0.218257,0.9781 -0.259912,2.0111 -0.18368,3.0077 0.07895,0.9972 0.14718,2.0076 0.551033,2.9389 0.254334,0.612 0.702102,1.1054 1.147995,1.5842 0.284518,-0.3008 0.581395,-0.6236 0.872437,-0.9183 0.377204,-0.3787 0.848472,-0.6246 1.400548,-0.5511 0.751378,0.097 1.429963,0.5521 2.020431,0.9873 0.831721,0.6468 1.609261,1.3237 2.456691,1.9516 1.340915,1.0248 2.820012,1.775 4.339422,2.5026 1.265896,0.5879 2.566577,1.175 3.880161,1.6531 0.23525,0.1028 0.495202,0.098 0.734715,0.1837 2.364277,0.9833 4.356014,2.1277 5.992526,4.1787 0.0024,0.028 -0.0024,0.087 0,0.1148 0.01883,-0.024 0.05001,-0.045 0.06885,-0.069 0.01883,0.024 0.05009,0.045 0.06885,0.069 0.01234,-0.057 -0.01218,-0.1268 0,-0.1837 1.631381,-2.0272 3.642595,-3.1325 5.992525,-4.1098 0.239514,-0.085 0.499457,-0.081 0.734715,-0.1837 1.313665,-0.4781 2.614346,-1.0652 3.880161,-1.6531 1.519411,-0.7277 2.998426,-1.4778 4.339423,-2.5026 0.84743,-0.628 1.624969,-1.3048 2.45669,-1.9516 0.590476,-0.4352 1.269101,-0.8906 2.020431,-0.9873 0.552052,-0.073 1.02336,0.1724 1.400548,0.5511 0.291075,0.2947 0.587952,0.6175 0.872437,0.9183 0.445885,-0.4788 0.893678,-0.9722 1.147995,-1.5843 0.403854,-0.9312 0.47211,-1.9416 0.551033,-2.9388 0.07622,-0.9966 0.03454,-2.0297 -0.18368,-3.0077 -0.265499,-1.2294 -0.559129,-2.4382 -1.147994,-3.5588 -0.209289,-0.361 -0.445163,-0.7798 -0.872438,-0.9184 -0.307376,-0.1092 -0.459758,0.2308 -0.596951,0.4362 -0.689695,1.112 -1.850193,1.8764 -2.938875,2.5715 -1.019594,0.6716 -2.001997,1.4526 -2.640395,2.5026 -0.306824,0.5127 -0.507505,1.0609 -0.551034,1.6531 -0.04328,0.2249 0.142812,0.5529 0.413271,0.4363 0.313741,-0.1185 0.632459,-0.3088 0.987293,-0.2525 0.393675,0.065 0.574678,0.4461 0.619915,0.8035 0.03559,0.4721 -0.353911,0.8853 -0.688796,1.1709 -0.776954,0.6282 -1.629377,1.1001 -2.502616,1.5843 -2.074053,1.1074 -4.234507,2.0245 -6.497633,2.6863 -1.002121,0.2773 -1.638915,0.5446 -2.686321,0.551 -0.899288,0.1596 -1.974104,-0.3293 -1.974104,-0.8504 v -27.18468 h 8.816544 c 0.339685,0 0.734715,-0.29448 0.734715,-0.73471 v -2.20414 c 0,-0.42721 -0.344648,-0.73418 -0.734979,-0.73418 h -8.816546 v -1.99747 c 2.134646,-0.88029 3.674336,-2.90161 3.673534,-5.34964 0.0016,-3.24529 -2.626529,-5.87823 -5.877429,-5.87823 z m -0.114799,2.86995 c 1.577922,0 2.870426,1.24906 2.869946,2.82402 4.73e-4,1.57495 -1.292024,2.86994 -2.869946,2.86994 -1.577921,0 -2.893429,-1.29499 -2.892948,-2.86994 -4.73e-4,-1.57496 1.314947,-2.82402 2.892948,-2.82402 z"
         style="fill:url(#linearGradient6517)"
         id="path1919" />
      <g
         id="layer5"
         transform="translate(0,956.36218)">
        <rect
           x="15"
           y="15"
           width="66"
           height="66"
           ry="12"
           rx="12"
           clip-path="url(#clipPath3613-47)"
           style="opacity:0.1;fill:url(#linearGradient3143-8);stroke:#ffffff;stroke-width:0.5;stroke-linecap:round;filter:url(#filter3794-13)"
           id="rect3171" />
      </g>
    </g>
  </g>
</svg>
