<?xml version="1.0" encoding="UTF-8" standalone="no"?>
<!-- Created with Inkscape (http://www.inkscape.org/) -->

<svg
   xmlns:dc="http://purl.org/dc/elements/1.1/"
   xmlns:cc="http://creativecommons.org/ns#"
   xmlns:rdf="http://www.w3.org/1999/02/22-rdf-syntax-ns#"
   xmlns:svg="http://www.w3.org/2000/svg"
   xmlns="http://www.w3.org/2000/svg"
   xmlns:xlink="http://www.w3.org/1999/xlink"
   xmlns:sodipodi="http://sodipodi.sourceforge.net/DTD/sodipodi-0.dtd"
   xmlns:inkscape="http://www.inkscape.org/namespaces/inkscape"
   width="96"
   height="96"
   id="svg2"
   version="1.1"
   inkscape:version="0.48.1 r9760"
   sodipodi:docname="dropbox.svg">
  <defs
     id="defs4">
    <filter
       color-interpolation-filters="sRGB"
       inkscape:collect="always"
       id="filter6279">
      <feGaussianBlur
         inkscape:collect="always"
         stdDeviation="0.8"
         id="feGaussianBlur6281" />
    </filter>
    <linearGradient
       inkscape:collect="always"
       xlink:href="#linearGradient3746-7"
       id="linearGradient5869"
       gradientUnits="userSpaceOnUse"
       gradientTransform="matrix(0.92788466,0,0,0.92788466,3.3213478,959.29604)"
       x1="47.917"
       y1="33.305"
       x2="76.624001"
       y2="33.305" />
    <linearGradient
       id="linearGradient3746-7"
       y2="33.305"
       gradientUnits="userSpaceOnUse"
       x2="76.624001"
       y1="33.305"
       x1="47.917">
      <stop
         id="stop3742-5"
         style="stop-color:#5cacf5"
         offset="0" />
      <stop
         id="stop3744-3"
         style="stop-color:#abd4f4"
         offset="1" />
    </linearGradient>
    <linearGradient
       inkscape:collect="always"
       xlink:href="#linearGradient3755"
       id="linearGradient5871"
       gradientUnits="userSpaceOnUse"
       gradientTransform="matrix(0.92788466,0,0,0.92788466,3.3213478,959.29604)"
       x1="19.288"
       y1="33.25"
       x2="47.994999"
       y2="33.25" />
    <linearGradient
       id="linearGradient3755"
       y2="33.25"
       gradientUnits="userSpaceOnUse"
       x2="47.994999"
       y1="33.25"
       x1="19.288">
      <stop
         id="stop3751"
         style="stop-color:#5aabf2"
         offset="0" />
      <stop
         id="stop3753-8"
         style="stop-color:#badaf5"
         offset="1" />
    </linearGradient>
    <linearGradient
       inkscape:collect="always"
       xlink:href="#linearGradient3707"
       id="linearGradient5873"
       gradientUnits="userSpaceOnUse"
       gradientTransform="matrix(0.92788466,0,0,0.92788466,3.3213478,959.29604)"
       x1="31"
       y1="47.979"
       x2="48.035"
       y2="47.979" />
    <linearGradient
       id="linearGradient3707">
      <stop
         id="stop3709"
         style="stop-color:#a8d4fb"
         offset="0" />
      <stop
         id="stop3711"
         style="stop-color:#dff0fa"
         offset="1" />
    </linearGradient>
    <linearGradient
       inkscape:collect="always"
       xlink:href="#linearGradient3724-3"
       id="linearGradient5875"
       gradientUnits="userSpaceOnUse"
       gradientTransform="matrix(0.92788466,0,0,0.92788466,3.3213478,959.29604)"
       x1="27.395"
       y1="59.064999"
       x2="48.112"
       y2="59.064999" />
    <linearGradient
       id="linearGradient3724-3">
      <stop
         id="stop3726-1"
         style="stop-color:#0d82e4"
         offset="0" />
      <stop
         id="stop3728-8"
         style="stop-color:#bcdbf7"
         offset="1" />
    </linearGradient>
    <linearGradient
       inkscape:collect="always"
       xlink:href="#linearGradient3707"
       id="linearGradient5877"
       gradientUnits="userSpaceOnUse"
       gradientTransform="matrix(0.92788466,0,0,0.92788466,3.3213478,959.29604)"
       x1="48.077"
       y1="47.979"
       x2="65.112"
       y2="47.979" />
    <linearGradient
       id="linearGradient5761">
      <stop
         id="stop5763"
         style="stop-color:#a8d4fb"
         offset="0" />
      <stop
         id="stop5765"
         style="stop-color:#dff0fa"
         offset="1" />
    </linearGradient>
    <linearGradient
       inkscape:collect="always"
       xlink:href="#linearGradient3724-3"
       id="linearGradient5879"
       gradientUnits="userSpaceOnUse"
       gradientTransform="matrix(0.92788466,0,0,0.92788466,3.3213478,959.29604)"
       x1="48"
       y1="59.064999"
       x2="69.017998"
       y2="59.064999" />
    <linearGradient
       id="linearGradient5768">
      <stop
         id="stop5770"
         style="stop-color:#0d82e4"
         offset="0" />
      <stop
         id="stop5772"
         style="stop-color:#bcdbf7"
         offset="1" />
    </linearGradient>
    <linearGradient
       inkscape:collect="always"
       xlink:href="#linearGradient3757"
       id="linearGradient5881"
       gradientUnits="userSpaceOnUse"
       gradientTransform="matrix(0.92788466,0,0,0.92788466,3.3213478,959.29604)"
       x1="47.917"
       y1="53.650002"
       x2="76.734001"
       y2="53.650002" />
    <linearGradient
       id="linearGradient3757">
      <stop
         id="stop3759"
         style="stop-color:#389bed"
         offset="0" />
      <stop
         id="stop3761"
         style="stop-color:#c2e5fc"
         offset="1" />
    </linearGradient>
    <linearGradient
       inkscape:collect="always"
       xlink:href="#linearGradient3757"
       id="linearGradient5883"
       gradientUnits="userSpaceOnUse"
       gradientTransform="matrix(0.92788466,0,0,0.92788466,3.3213478,959.29604)"
       x1="19.069"
       y1="53.650002"
       x2="47.886002"
       y2="53.650002" />
    <linearGradient
       id="linearGradient5779">
      <stop
         id="stop5781"
         style="stop-color:#389bed"
         offset="0" />
      <stop
         id="stop5783"
         style="stop-color:#c2e5fc"
         offset="1" />
    </linearGradient>
    <linearGradient
       inkscape:collect="always"
       xlink:href="#linearGradient3790"
       id="linearGradient5885"
       gradientUnits="userSpaceOnUse"
       gradientTransform="matrix(0.92788466,0,0,0.92788466,3.3213478,959.29604)"
       x1="31.084999"
       y1="59.064999"
       x2="48.112"
       y2="59.064999" />
    <linearGradient
       id="linearGradient3790"
       y2="59.064999"
       gradientUnits="userSpaceOnUse"
       x2="48.112"
       y1="59.064999"
       x1="31.084999">
      <stop
         id="stop3786"
         style="stop-color:#1b8cee"
         offset="0" />
      <stop
         id="stop3788-8"
         style="stop-color:#79b8e8"
         offset="1" />
    </linearGradient>
    <linearGradient
       inkscape:collect="always"
       xlink:href="#linearGradient3799"
       id="linearGradient5887"
       gradientUnits="userSpaceOnUse"
       gradientTransform="matrix(0.92788466,0,0,0.92788466,3.3213478,959.29604)"
       x1="48"
       y1="59.064999"
       x2="69.017998"
       y2="59.064999" />
    <linearGradient
       id="linearGradient3799"
       y2="59.064999"
       gradientUnits="userSpaceOnUse"
       x2="69.017998"
       y1="59.064999"
       x1="48">
      <stop
         id="stop3803-9"
         style="stop-color:#107cd9"
         offset="0" />
      <stop
         id="stop3805-7"
         style="stop-color:#79b8e8"
         offset="1" />
    </linearGradient>
    <linearGradient
       y2="138.66"
       x2="48"
       y1="20.221001"
       x1="48"
       gradientUnits="userSpaceOnUse"
       id="linearGradient5692"
       xlink:href="#linearGradient3737-25"
       inkscape:collect="always" />
    <linearGradient
       id="linearGradient3737-25">
      <stop
         id="stop3739-89"
         style="stop-color:#fff"
         offset="0" />
      <stop
         id="stop3741-02"
         style="stop-color:#fff;stop-opacity:0"
         offset="1" />
    </linearGradient>
    <clipPath
       id="clipPath3613-47">
      <rect
         id="rect3615-657"
         style="fill:#ffffff"
         rx="6"
         ry="6"
         height="84"
         width="84"
         y="6"
         x="6" />
    </clipPath>
    <filter
       id="filter3794-13"
       height="1.3839999"
       width="1.3839999"
       color-interpolation-filters="sRGB"
       y="-0.192"
       x="-0.192">
      <feGaussianBlur
         id="feGaussianBlur3796-33"
         stdDeviation="5.28" />
    </filter>
  </defs>
  <sodipodi:namedview
     id="base"
     pagecolor="#ffffff"
     bordercolor="#666666"
     borderopacity="1.0"
     inkscape:pageopacity="0.0"
     inkscape:pageshadow="2"
     inkscape:zoom="3.959798"
     inkscape:cx="28.389459"
     inkscape:cy="57.490015"
     inkscape:document-units="px"
     inkscape:current-layer="layer1"
     showgrid="false"
     inkscape:window-width="1280"
     inkscape:window-height="725"
     inkscape:window-x="0"
     inkscape:window-y="25"
     inkscape:window-maximized="1" />
  <metadata
     id="metadata7">
    <rdf:RDF>
      <cc:Work
         rdf:about="">
        <dc:format>image/svg+xml</dc:format>
        <dc:type
           rdf:resource="http://purl.org/dc/dcmitype/StillImage" />
        <dc:title></dc:title>
      </cc:Work>
    </rdf:RDF>
  </metadata>
  <g
     inkscape:label="Layer 1"
     inkscape:groupmode="layer"
     id="layer1"
     transform="translate(0,-956.36217)">
    <g
       transform="translate(0,-1e-5)"
       id="g5916">
      <rect
         transform="translate(0,-7.8515622e-6)"
         y="964.36218"
         x="8"
         height="80"
         width="80"
         id="rect9283"
         style="fill:#000000;fill-opacity:1;stroke:none;filter:url(#filter6279)"
         rx="5"
         ry="5" />
      <rect
         ry="5"
         rx="5"
         style="fill:#0084c8;fill-opacity:1;stroke:none"
         id="rect9285"
         width="80"
         height="80"
         x="8"
         y="964.36218" />
      <g
         transform="matrix(0.96659535,0,0,0.96659535,1.8790029,33.092019)"
         id="g5854">
        <path
           inkscape:connector-curvature="0"
           d="m 37.101917,980.02869 c -0.03022,0.007 7.77e-4,0.0204 -0.029,0.029 -0.02978,0.009 -0.02877,-0.0103 -0.05799,0 -0.02922,0.0103 -4.24e-4,0.017 -0.029,0.029 -0.02857,0.012 -0.0012,-0.0136 -0.029,0 -0.02783,0.0136 -0.002,0.0138 -0.029,0.029 -0.02698,0.0152 -0.003,-0.0168 -0.029,0 a 0.46393305,0.46393305 0 0 1 -0.029,0.029 l -16.006011,9.74279 c -0.02678,0.0163 -0.0032,-0.0179 -0.029,0 -0.02577,0.0179 -0.0044,0.01 -0.029,0.029 -0.02466,0.0194 -0.0055,0.008 -0.029,0.029 -0.02348,0.0208 -0.0068,0.007 -0.029,0.029 -0.02221,0.0222 -0.0082,0.006 -0.029,0.029 -0.02087,0.0234 -0.0095,0.004 -0.029,0.029 -0.01946,0.0246 -0.01102,0.003 -0.029,0.029 -0.01797,0.0257 0.01642,0.002 0,0.029 -0.01642,0.0267 -0.01418,0.001 -0.029,0.029 -0.01482,0.0276 -0.01583,0.0295 -0.029,0.058 -0.01317,0.0285 0.01146,-2e-4 0,0.029 -0.01146,0.0292 -0.01927,-8.3e-4 -0.029,0.029 -0.0097,0.0298 0.008,-0.001 0,0.029 -0.008,0.0303 0.0061,0.0272 0,0.058 -0.0061,0.0308 0.0044,-0.002 0,0.029 -0.0044,0.0311 -0.02652,-0.002 -0.029,0.029 -0.0025,0.0313 6.34e-4,0.0266 0,0.058 -6.34e-4,0.0314 -0.0012,-0.002 0,0.029 0.0012,0.0313 -0.0031,0.0268 0,0.058 0.0031,0.0312 0.0241,-0.002 0.029,0.029 0.0049,0.031 -0.0067,-0.002 0,0.029 0.0067,0.0306 -0.0085,0.0278 0,0.058 0.0085,0.0302 0.01872,-6.4e-4 0.029,0.029 0.01027,0.0296 -0.012,2e-5 0,0.029 0.012,0.029 0.01531,7.7e-4 0.029,0.029 0.01369,0.0282 -0.01533,0.0306 0,0.058 0.01533,0.0274 0.01208,0.003 0.029,0.029 0.01692,0.0264 0.01055,0.004 0.029,0.029 0.01845,0.0254 0.0091,0.005 0.029,0.029 0.0199,0.0242 -0.0213,0.006 0,0.029 0.0213,0.023 0.0064,0.007 0.029,0.029 0.02262,0.0217 0.0051,0.009 0.029,0.029 l 9.742789,8.23497 a 0.46393305,0.46393305 0 0 1 0,0.69592 l -9.916303,7.97423 c -0.02437,0.02 -0.0058,0.01 -0.029,0.029 -0.02318,0.021 -0.0071,0.01 -0.029,0.029 -0.0219,0.022 -0.0084,0.01 -0.029,0.029 -0.02055,0.024 -0.0099,0 -0.029,0.029 -0.01912,0.025 -0.01136,0 -0.029,0.029 -0.01764,0.026 0.01609,0.031 0,0.058 -0.01609,0.027 -0.0145,0 -0.029,0.029 -0.01449,0.028 -0.01616,5e-4 -0.029,0.029 -0.01283,0.029 0.01113,-2e-4 0,0.029 -0.01113,0.029 -0.0196,-8e-4 -0.029,0.029 -0.0094,0.03 0.0076,0.028 0,0.058 -0.0076,0.03 0.0058,0 0,0.029 -0.0058,0.031 0.004,0 0,0.029 -0.004,0.031 -0.02681,0.027 -0.029,0.058 -0.0022,0.031 3.51e-4,0 0,0.029 -3.51e-4,0.031 -0.0015,0.027 0,0.058 0.0015,0.031 0.02567,0 0.029,0.029 0.0033,0.031 -0.0051,0 0,0.029 0.0051,0.031 -0.007,0.027 0,0.058 0.007,0.03 -0.0087,0 0,0.029 0.0087,0.03 0.01852,-5e-4 0.029,0.029 0.01048,0.029 -0.01219,2e-4 0,0.029 0.01219,0.029 0.01513,0.03 0.029,0.058 0.01386,0.028 -0.01549,0 0,0.029 0.01549,0.027 0.01194,0 0.029,0.029 0.01705,0.026 0.01043,0 0.029,0.029 0.01857,0.025 0.009,0 0.029,0.029 0.02001,0.024 0.0076,0.01 0.029,0.029 0.0214,0.023 0.0063,0.01 0.029,0.029 0.0227,0.022 0.0051,0.01 0.029,0.029 0.02392,0.02 0.0039,0.01 0.029,0.029 0.01254,0.01 0.02736,0 0.029,0 l 10.583453,6.7272 a 0.46393305,0.46393305 0 0 1 0.202975,0.4059 l -0.029,1.2759 a 0.46393305,0.46393305 0 0 1 -0.02969,0.1735 c -0.0086,0.021 -0.0213,0.01 -0.029,0.029 -0.0077,0.021 0.0068,0.01 0,0.029 -0.0068,0.021 0.0058,0.01 0,0.029 -0.0058,0.022 0.0049,0.01 0,0.029 -0.0049,0.022 -0.02501,0.01 -0.029,0.029 -0.004,0.022 0.0031,0.01 0,0.029 -0.0031,0.022 0.0021,0.01 0,0.029 -0.0021,0.023 0.0011,0.01 0,0.029 -0.0011,0.023 1.75e-4,0.01 0,0.029 -1.74e-4,0.023 -7.84e-4,0.01 0,0.029 7.84e-4,0.023 -0.0018,0.01 0,0.029 0.0018,0.023 -0.0027,0.01 0,0.029 0.0027,0.022 -0.0036,0.01 0,0.029 0.0036,0.022 0.02441,0.01 0.029,0.029 0.0056,0.022 -0.0064,0.01 0,0.029 0.0064,0.022 -0.0073,0.01 0,0.029 0.0073,0.021 0.02074,0.01 0.029,0.029 0.0083,0.021 -0.0092,0.01 0,0.029 0.0092,0.021 -0.01001,0.01 0,0.029 0.01001,0.02 0.01813,0.01 0.029,0.029 0.01087,0.02 -0.01169,0.01 0,0.029 0.01169,0.019 0.0165,0.01 0.029,0.029 0.01329,0.018 0.01494,0.011 0.029,0.029 0.01406,0.018 0.01421,0.012 0.029,0.029 0.01479,0.017 -0.0155,0.013 0,0.029 0.01551,0.016 0.01282,-0.016 0.029,0 0.01618,0.016 0.01215,0.014 0.029,0.029 0.01684,0.015 -0.01746,0.015 0,0.029 0.01746,0.014 0.01094,-0.014 0.029,0 0.01806,0.014 0.01038,0.016 0.029,0.029 l 15.831568,11.1346 c 0.01669,0.012 0.01187,-0.011 0.029,0 0.01713,0.011 0.01145,0.019 0.029,0.029 0.01794,0.01 0.0107,0.02 0.029,0.029 0.0183,0.01 0.01037,-0.01 0.029,0 0.01863,0.01 0.01006,-0.01 0.029,0 0.01894,0.01 0.0098,0.022 0.029,0.029 0.01922,0.01 0.0095,-0.01 0.029,0 0.01969,0.01 0.0091,0.024 0.029,0.029 0.01989,0 0.0089,0 0.029,0 0.02005,0 0.0088,0 0.029,0 0.02018,0 0.0087,0 0.029,0 0.02029,0 0.0086,0 0.029,0 0.02037,0 0.0086,-8e-4 0.029,0 0.02041,8e-4 0.0085,0 0.029,0 0.02041,-8e-4 0.0086,0 0.029,0 0.02037,0 0.0087,0 0.029,0 0.02029,0 0.0088,0 0.029,0 0.02018,0 0.0089,0 0.029,0 0.02005,0 0.0091,0 0.029,0 0.01988,0 0.0093,-0.024 0.029,-0.029 0.01947,-0.01 0.0098,0.01 0.029,0 0.01922,-0.01 0.01006,-0.021 0.029,-0.029 0.01894,-0.01 0.01036,0.01 0.029,0 0.01863,-0.01 0.0107,0.01 0.029,0 0.0183,-0.01 0.01106,-0.019 0.029,-0.029 0.01755,-0.01 0.01187,-0.018 0.029,-0.029 0.01713,-0.011 0.0123,0.012 0.029,0 l 9.83001,-6.9591 a 0.46393305,0.46393305 0 0 1 0.029,0 0.46393305,0.46393305 0 0 1 0.05799,-0.058 0.46393305,0.46393305 0 0 1 0.029,0 l 0.05799,-0.029 5.712244,-4.0015 a 0.46393305,0.46393305 0 0 1 0.02876,-0.028 c 0.02105,-0.013 0.0085,0.014 0.029,0 0.02045,-0.014 0.0092,-0.014 0.029,-0.029 a 0.46393305,0.46393305 0 0 1 0.02876,-0.03 c 0.01697,-0.01 0.01239,0.01 0.029,0 0.0083,-0.01 0.02795,6e-4 0.029,0 0.001,-7e-4 -0.0081,-0.024 0,-0.029 0.01581,-0.011 0.01361,-0.017 0.029,-0.029 a 0.46393305,0.46393305 0 0 1 0.05753,-0.058 0.46393305,0.46393305 0 0 1 0.02876,-0.029 c 0.01714,-0.018 -0.0163,-0.011 0,-0.029 0.0163,-0.018 0.01357,-0.01 0.029,-0.029 0.01543,-0.019 0.01447,-0.01 0.029,-0.029 0.01359,-0.02 0.01637,-0.01 0.029,-0.029 0.01263,-0.021 -0.01164,-0.01 0,-0.029 0.01164,-0.022 0.01837,-0.01 0.029,-0.029 0.01062,-0.022 -0.0096,-0.01 0,-0.029 0.0096,-0.023 0.02047,-0.01 0.029,-0.029 0.0085,-0.023 -0.0074,-0.01 0,-0.029 0.0074,-0.023 -0.0064,-0.01 0,-0.029 0.0064,-0.024 -0.0053,0 0,-0.029 0.0053,-0.024 0.02486,0 0.029,-0.029 0.0042,-0.024 -0.003,0 0,-0.029 0.003,-0.024 -0.0019,0 0,-0.029 0.0019,-0.024 -7.41e-4,0 0,-0.029 l -0.02969,-1.8845 a 0.46393305,0.46393305 0 0 1 0.202975,-0.4059 l 10.265188,-6.5249 c 0.0017,0 0.01646,0.01 0.029,0 0.02506,-0.019 0.0051,-0.01 0.029,-0.029 0.02392,-0.02 0.0063,-0.01 0.029,-0.029 0.0227,-0.021 0.0076,-0.01 0.029,-0.029 0.0214,-0.023 0.009,0 0.029,-0.029 0.02001,-0.024 0.01043,0 0.029,-0.029 0.01857,-0.025 0.01194,0 0.029,-0.029 0.01705,-0.026 0.01351,0 0.029,-0.029 0.01549,-0.027 -0.01386,-9e-4 0,-0.029 0.01386,-0.028 0.0168,-0.029 0.029,-0.058 0.01219,-0.029 -0.01048,5e-4 0,-0.029 0.01048,-0.029 0.02026,0 0.029,-0.029 0.0087,-0.03 -0.007,0 0,-0.029 0.007,-0.03 -0.0051,-0.027 0,-0.058 0.0051,-0.031 -0.0033,0 0,-0.029 0.0033,-0.031 0.02751,0 0.029,-0.029 0.0015,-0.031 3.51e-4,-0.027 0,-0.058 -3.51e-4,-0.031 0.0022,0 0,-0.029 -0.0022,-0.031 -0.02498,-0.027 -0.029,-0.058 -0.004,-0.031 0.0058,0 0,-0.029 -0.0058,-0.031 0.0076,0 0,-0.029 -0.0076,-0.03 0.0094,-0.028 0,-0.058 -0.0094,-0.03 -0.01786,2e-4 -0.029,-0.029 -0.01113,-0.029 0.01283,-5e-4 0,-0.029 -0.01283,-0.029 -0.01451,0 -0.029,-0.029 -0.01448,-0.028 -0.01291,0 -0.029,-0.029 -0.01609,-0.027 0.01764,-0.032 0,-0.058 -0.01764,-0.026 -0.0099,0 -0.029,-0.029 -0.01913,-0.025 -0.0084,-0.01 -0.029,-0.029 -0.02055,-0.024 -0.0071,-0.01 -0.029,-0.029 -0.0219,-0.022 -0.0058,-0.01 -0.029,-0.029 -0.02317,-0.021 -0.0046,-0.01 -0.029,-0.029 l -9.800317,-7.88698 a 0.46393305,0.46393305 0 0 1 0,-0.69591 l 9.742789,-8.29297 c 0.02387,-0.0204 0.0064,-0.007 0.029,-0.029 0.02262,-0.0217 0.0077,-0.006 0.029,-0.029 0.0213,-0.023 -0.0199,-0.005 0,-0.029 0.0199,-0.0242 0.01055,-0.004 0.029,-0.029 0.01845,-0.0254 0.01208,-0.003 0.029,-0.029 0.01692,-0.0264 0.01367,-0.002 0.029,-0.029 0.01533,-0.0274 -0.01369,-0.0298 0,-0.058 0.01369,-0.0282 0.017,-2e-5 0.029,-0.029 0.012,-0.029 -0.01027,6.4e-4 0,-0.029 0.01027,-0.0296 0.02049,10e-4 0.029,-0.029 0.0085,-0.0302 -0.0067,-0.0274 0,-0.058 0.0067,-0.0306 -0.0049,0.002 0,-0.029 0.0049,-0.031 0.02594,0.002 0.029,-0.029 0.0031,-0.0312 -0.0012,-0.0267 0,-0.058 0.0012,-0.0313 6.34e-4,0.002 0,-0.029 -6.34e-4,-0.0314 0.0025,-0.0267 0,-0.058 -0.0025,-0.0313 -0.02467,0.002 -0.029,-0.029 -0.0044,-0.0311 0.0061,0.002 0,-0.029 -0.0061,-0.0308 0.008,-0.0277 0,-0.058 -0.008,-0.0303 0.0097,8.3e-4 0,-0.029 -0.0097,-0.0298 -0.01754,2e-4 -0.029,-0.029 -0.01146,-0.0292 0.01317,-5.3e-4 0,-0.029 -0.01317,-0.0285 -0.01418,-0.0303 -0.029,-0.058 -0.01482,-0.0276 -0.01257,-0.002 -0.029,-0.029 -0.01642,-0.0267 0.01797,-0.003 0,-0.029 -0.01797,-0.0257 -0.0095,-0.004 -0.029,-0.029 -0.01946,-0.0246 -0.0082,-0.006 -0.029,-0.029 -0.02087,-0.0234 -0.0068,-0.007 -0.029,-0.029 -0.02221,-0.0222 -0.0055,-0.008 -0.029,-0.029 -0.02349,-0.0208 -0.0044,-0.01 -0.029,-0.029 -0.02466,-0.0194 -0.0032,-0.0111 -0.029,-0.029 -0.02577,-0.0179 -0.0022,0.0163 -0.029,0 l -16.00601,-9.71402 c -0.01746,-0.0107 -0.01113,-0.019 -0.029,-0.029 -0.01786,-0.01 -0.01076,0.009 -0.029,0 -0.01823,-0.009 -0.01042,-0.0204 -0.029,-0.029 -0.01858,-0.009 -0.0101,0.008 -0.029,0 -0.01919,-0.007 -0.0095,-0.0226 -0.029,-0.029 -0.01945,-0.006 -0.0093,0.006 -0.029,0 -0.01968,-0.006 -0.0091,0.005 -0.029,0 -0.01988,-0.005 -0.0089,0.004 -0.029,0 -0.02006,-0.004 -0.0088,0.003 -0.029,0 -0.0202,-0.003 0.02031,-0.0264 0,-0.029 -0.02031,-0.003 -0.0086,0.002 -0.029,0 -0.0204,-0.002 -0.0085,10e-4 -0.029,0 -0.02045,-10e-4 -0.0085,2.1e-4 -0.029,0 -0.02048,-2.1e-4 -0.0085,-5.7e-4 -0.029,0 -0.02047,5.7e-4 -0.0085,-10e-4 -0.029,0 -0.02043,10e-4 -0.0086,-0.002 -0.029,0 -0.02037,0.002 -0.0087,-0.003 -0.029,0 -0.02027,0.003 -0.0088,0.0253 -0.029,0.029 -0.01998,0.004 -0.0092,-0.005 -0.029,0 -0.01979,0.005 -0.0094,-0.006 -0.029,0 -0.01958,0.006 -0.0097,0.0222 -0.029,0.029 -0.01933,0.007 -0.0099,-0.008 -0.029,0 -0.01906,0.008 -0.01024,-0.008 -0.029,0 -0.01875,0.008 0.01843,0.0201 0,0.029 -0.01843,0.009 -0.01093,-0.01 -0.029,0 -0.01807,0.01 -0.01131,-0.0103 -0.029,0 -0.01769,0.0103 -0.01173,0.018 -0.029,0.029 -0.01683,0.0117 -0.01262,0.0167 -0.029,0.029 -0.01638,0.0123 -0.01311,-0.0129 -0.029,0 l -9.83001,8.46695 a 0.46393305,0.46393305 0 0 1 -0.579928,0 l -9.916303,-8.52448 c -0.01969,-0.0165 -0.0085,0.0155 -0.029,0 -0.02046,-0.0155 -0.0078,-0.0145 -0.029,-0.029 -0.02118,-0.0145 -0.0071,-0.0155 -0.029,-0.029 -0.02186,-0.0135 -0.0065,0.0124 -0.029,0 -0.02249,-0.0124 -0.0059,-0.0177 -0.029,-0.029 -0.02306,-0.0113 -0.0054,0.0102 -0.029,0 -0.02358,-0.0102 -0.0049,-0.02 -0.029,-0.029 -0.02404,-0.009 -0.0045,0.008 -0.029,0 -0.02445,-0.008 -0.0042,0.007 -0.029,0 -0.0248,-0.007 -0.0039,-0.0235 -0.029,-0.029 -0.0251,-0.005 -0.0037,0.004 -0.029,0 -0.02533,-0.004 -0.0035,0.003 -0.029,0 -0.02551,-0.003 -0.0033,0.002 -0.029,0 -0.02562,-0.002 -0.03231,5.5e-4 -0.05799,0 -0.02568,-5.4e-4 -0.0033,-6.9e-4 -0.029,0 -0.0154,0.002 -0.02703,-2.7e-4 -0.029,0 -0.0019,2.7e-4 -0.01371,-0.003 -0.029,0 -0.03057,0.005 0.0012,-0.007 -0.029,0 z"
           style="color:#000000;fill:#0b5a9a"
           id="path2919" />
        <path
           inkscape:connector-curvature="0"
           d="m 47.82084,1006.6182 15.813011,11.1541 -15.813011,11.1541 -15.812082,-11.1541 15.812082,-11.1541 z"
           style="color:#000000;fill:#fdfffe"
           id="rect3683" />
        <path
           inkscape:connector-curvature="0"
           d="m 58.42285,980.73945 15.996732,9.7363 -10.824702,9.18327 -15.812083,-9.74279 10.640053,-9.17678 z"
           style="color:#000000;fill:url(#linearGradient5869)"
           id="rect3688" />
        <path
           inkscape:connector-curvature="0"
           d="m 37.215119,980.68842 -15.996732,9.73722 10.824703,9.18235 15.812082,-9.74279 -10.640053,-9.17678 z"
           style="color:#000000;fill:url(#linearGradient5871)"
           id="path3691" />
        <path
           inkscape:connector-curvature="0"
           d="m 32.085772,1017.7528 0.160116,-18.32946 15.646919,-9.54608 v 16.72324 l -15.807443,11.1523 z"
           style="fill:url(#linearGradient5873)"
           id="path3698" />
        <path
           inkscape:connector-curvature="0"
           d="m 47.82084,1028.7074 0.142895,-19.3789 -15.789814,-9.83278 v 18.30248 l 15.646919,10.9092 z"
           style="opacity:0.6;fill:url(#linearGradient5875)"
           id="path3700" />
        <path
           inkscape:connector-curvature="0"
           d="m 63.636634,1017.7528 -0.05846,-18.32946 -15.697953,-9.59618 v 16.97754 l 15.756409,10.9481 z"
           style="fill:url(#linearGradient5877)"
           id="path3702" />
        <path
           inkscape:connector-curvature="0"
           d="m 48.003634,1028.7074 -0.143823,-19.3789 15.789814,-9.83278 v 18.30248 l -15.646919,10.9092 z"
           style="opacity:0.6;fill:url(#linearGradient5879)"
           id="path3704" />
        <path
           inkscape:connector-curvature="0"
           d="m 63.59488,999.61356 10.926769,8.77594 -15.915077,10.1501 -10.823775,-9.1833 15.812083,-9.74274 z"
           style="color:#000000;fill:url(#linearGradient5881)"
           id="rect3693" />
        <path
           inkscape:connector-curvature="0"
           d="m 31.941022,999.61356 -10.925842,8.77594 15.91415,10.1501 10.824703,-9.1833 -15.813011,-9.74274 z"
           style="color:#000000;fill:url(#linearGradient5883)"
           id="path3696" />
        <path
           inkscape:connector-curvature="0"
           d="m 47.82084,1006.6182 15.813011,11.1541 -15.813011,11.1541 -15.812082,-11.1541 15.812082,-11.1541 z"
           style="opacity:0.2;color:#000000;fill:#fdfffe"
           id="path3775" />
        <path
           inkscape:connector-curvature="0"
           d="m 32.172993,999.74624 v 15.74526 l 4.755409,3.0446 10.815424,-9.1916 -15.570833,-9.59807 z"
           style="opacity:0.6;fill:url(#linearGradient5885)"
           id="path3777" />
        <path
           inkscape:connector-curvature="0"
           d="m 63.605086,999.60149 -12.033736,7.42311 -3.711539,2.2907 v 0.116 l 10.757895,9.1049 5.045373,-3.2187 v -15.65801 l -0.05799,-0.058 z"
           style="opacity:0.6;fill:url(#linearGradient5887)"
           id="path3792" />
      </g>
      <g
         id="layer5"
         transform="translate(0,956.36218)">
        <rect
           x="15"
           y="15"
           width="66"
           height="66"
           ry="12"
           rx="12"
           clip-path="url(#clipPath3613-47)"
           style="opacity:0.1;fill:url(#linearGradient5692);stroke:#ffffff;stroke-width:0.5;stroke-linecap:round;filter:url(#filter3794-13)"
           id="rect3171" />
      </g>
    </g>
  </g>
</svg>
