<?xml version="1.0" encoding="UTF-8" standalone="no"?>
<!-- Created with Inkscape (http://www.inkscape.org/) -->

<svg
   xmlns:dc="http://purl.org/dc/elements/1.1/"
   xmlns:cc="http://creativecommons.org/ns#"
   xmlns:rdf="http://www.w3.org/1999/02/22-rdf-syntax-ns#"
   xmlns:svg="http://www.w3.org/2000/svg"
   xmlns="http://www.w3.org/2000/svg"
   xmlns:xlink="http://www.w3.org/1999/xlink"
   xmlns:sodipodi="http://sodipodi.sourceforge.net/DTD/sodipodi-0.dtd"
   xmlns:inkscape="http://www.inkscape.org/namespaces/inkscape"
   width="96"
   height="96"
   id="svg2"
   version="1.1"
   inkscape:version="0.48.1 r9760"
   sodipodi:docname="eclipse.svg">
  <defs
     id="defs4">
    <filter
       color-interpolation-filters="sRGB"
       inkscape:collect="always"
       id="filter6279">
      <feGaussianBlur
         inkscape:collect="always"
         stdDeviation="0.8"
         id="feGaussianBlur6281" />
    </filter>
    <linearGradient
       inkscape:collect="always"
       xlink:href="#linearGradient3617-8"
       id="linearGradient5801"
       gradientUnits="userSpaceOnUse"
       gradientTransform="translate(0,-7.8515622e-6)"
       x1="48"
       y1="1052.3622"
       x2="48"
       y2="902.36218" />
    <linearGradient
       id="linearGradient3617-8"
       y2="5.9877"
       gradientUnits="userSpaceOnUse"
       x2="48"
       y1="90"
       x1="48">
      <stop
         id="stop3793-0"
         style="stop-color:#36326c"
         offset="0" />
      <stop
         id="stop3795-2"
         style="stop-color:#6d6aaf"
         offset="1" />
    </linearGradient>
    <radialGradient
       inkscape:collect="always"
       xlink:href="#linearGradient4281"
       id="radialGradient3079"
       gradientUnits="userSpaceOnUse"
       gradientTransform="matrix(2.1784,2.0857,-1.4669,1.6209,17.183,-13.814)"
       cx="10.367"
       cy="12.516"
       fx="8.0649004"
       fy="11.953"
       r="20.570999" />
    <linearGradient
       id="linearGradient4281">
      <stop
         id="stop4283"
         style="stop-color:#f6e5ed"
         offset="0" />
      <stop
         id="stop4285"
         style="stop-color:#9f275f"
         offset="1" />
    </linearGradient>
    <filter
       id="filter4039"
       color-interpolation-filters="sRGB">
      <feGaussianBlur
         id="feGaussianBlur4041"
         stdDeviation="2.4" />
    </filter>
    <radialGradient
       inkscape:collect="always"
       xlink:href="#radialGradient3965"
       id="radialGradient3109"
       gradientUnits="userSpaceOnUse"
       cx="26.785999"
       cy="27.25"
       r="16.964001" />
    <radialGradient
       id="radialGradient3965"
       gradientUnits="userSpaceOnUse"
       cy="27.25"
       cx="26.785999"
       r="16.964001">
      <stop
         id="stop3866"
         style="stop-color:#fff"
         offset="0" />
      <stop
         id="stop3872"
         style="stop-color:#fff;stop-opacity:.57364"
         offset=".24046" />
      <stop
         id="stop3874"
         style="stop-color:#fff;stop-opacity:.14729"
         offset=".68724" />
      <stop
         id="stop3878"
         style="stop-color:#fff;stop-opacity:.10853"
         offset=".74211" />
      <stop
         id="stop3868"
         style="stop-color:#fff;stop-opacity:0"
         offset="1" />
    </radialGradient>
    <radialGradient
       inkscape:collect="always"
       xlink:href="#linearGradient4281"
       id="radialGradient3128"
       gradientUnits="userSpaceOnUse"
       gradientTransform="matrix(2.1784,2.0857,-1.4669,1.6209,17.183,-13.814)"
       cx="10.367"
       cy="12.516"
       fx="8.0649004"
       fy="11.953"
       r="20.570999" />
    <linearGradient
       id="linearGradient5720">
      <stop
         id="stop5722"
         style="stop-color:#f6e5ed"
         offset="0" />
      <stop
         id="stop5724"
         style="stop-color:#9f275f"
         offset="1" />
    </linearGradient>
    <radialGradient
       inkscape:collect="always"
       xlink:href="#radialGradient4026"
       id="radialGradient3098"
       gradientUnits="userSpaceOnUse"
       gradientTransform="matrix(1.0929,-6.8394e-8,7.6056e-8,1.2153,-4.8295,-14.232)"
       cx="52"
       cy="66.105003"
       r="30" />
    <radialGradient
       id="radialGradient4026"
       gradientUnits="userSpaceOnUse"
       cy="66.105003"
       cx="52"
       gradientTransform="matrix(1.0929,-6.8394e-8,7.6056e-8,1.2153,-4.8295,-14.232)"
       r="30">
      <stop
         id="stop4018"
         style="stop-color:#8c7bbd"
         offset="0" />
      <stop
         id="stop4024"
         style="stop-color:#150641"
         offset="1" />
    </radialGradient>
    <linearGradient
       inkscape:collect="always"
       xlink:href="#linearGradient3737-53"
       id="linearGradient3094-7"
       gradientUnits="userSpaceOnUse"
       gradientTransform="matrix(0.93299,0,0,0.84906,3.4844,3.906)"
       x1="52"
       y1="19.253"
       x2="52"
       y2="52.814999" />
    <linearGradient
       id="linearGradient3737-53">
      <stop
         id="stop3739-88"
         style="stop-color:#fff"
         offset="0" />
      <stop
         id="stop3741-31"
         style="stop-color:#fff;stop-opacity:0"
         offset="1" />
    </linearGradient>
    <linearGradient
       inkscape:collect="always"
       xlink:href="#linearGradient3953"
       id="linearGradient3087"
       gradientUnits="userSpaceOnUse"
       gradientTransform="translate(0,2)"
       x1="6"
       y1="48"
       x2="56.040001"
       y2="48" />
    <linearGradient
       id="linearGradient3953"
       y2="48"
       gradientUnits="userSpaceOnUse"
       x2="56.040001"
       gradientTransform="translate(0,2)"
       y1="48"
       x1="6">
      <stop
         id="stop3017"
         offset="0" />
      <stop
         id="stop3019"
         style="stop-opacity:0"
         offset="1" />
    </linearGradient>
    <linearGradient
       inkscape:collect="always"
       xlink:href="#linearGradient3925"
       id="linearGradient3084-8"
       gradientUnits="userSpaceOnUse"
       x1="6"
       y1="48"
       x2="90"
       y2="48" />
    <linearGradient
       id="linearGradient3925"
       y2="48"
       gradientUnits="userSpaceOnUse"
       x2="90"
       y1="48"
       x1="6">
      <stop
         id="stop3921"
         style="stop-color:#aaf"
         offset="0" />
      <stop
         id="stop3923"
         style="stop-color:#aaf;stop-opacity:0"
         offset="1" />
    </linearGradient>
    <linearGradient
       y2="138.66"
       x2="48"
       y1="20.221001"
       x1="48"
       gradientUnits="userSpaceOnUse"
       id="linearGradient3351"
       xlink:href="#linearGradient3737-93"
       inkscape:collect="always" />
    <linearGradient
       id="linearGradient3737-93">
      <stop
         id="stop3739-78"
         style="stop-color:#fff"
         offset="0" />
      <stop
         id="stop3741-74"
         style="stop-color:#fff;stop-opacity:0"
         offset="1" />
    </linearGradient>
    <clipPath
       id="clipPath3613-19">
      <rect
         id="rect3615-09"
         style="fill:#ffffff"
         rx="6"
         ry="6"
         height="84"
         width="84"
         y="6"
         x="6" />
    </clipPath>
    <filter
       id="filter3794-88"
       height="1.3839999"
       width="1.3839999"
       color-interpolation-filters="sRGB"
       y="-0.192"
       x="-0.192">
      <feGaussianBlur
         id="feGaussianBlur3796-58"
         stdDeviation="5.28" />
    </filter>
  </defs>
  <sodipodi:namedview
     id="base"
     pagecolor="#ffffff"
     bordercolor="#666666"
     borderopacity="1.0"
     inkscape:pageopacity="0.0"
     inkscape:pageshadow="2"
     inkscape:zoom="3.959798"
     inkscape:cx="28.389459"
     inkscape:cy="57.490015"
     inkscape:document-units="px"
     inkscape:current-layer="layer1"
     showgrid="false"
     inkscape:window-width="1280"
     inkscape:window-height="725"
     inkscape:window-x="0"
     inkscape:window-y="25"
     inkscape:window-maximized="1" />
  <metadata
     id="metadata7">
    <rdf:RDF>
      <cc:Work
         rdf:about="">
        <dc:format>image/svg+xml</dc:format>
        <dc:type
           rdf:resource="http://purl.org/dc/dcmitype/StillImage" />
        <dc:title></dc:title>
      </cc:Work>
    </rdf:RDF>
  </metadata>
  <g
     inkscape:label="Layer 1"
     inkscape:groupmode="layer"
     id="layer1"
     transform="translate(0,-956.36217)">
    <g
       transform="translate(0,-1e-5)"
       id="g6557">
      <rect
         transform="translate(0,-7.8515622e-6)"
         y="964.36218"
         x="8"
         height="80"
         width="80"
         id="rect9283"
         style="fill:#000000;fill-opacity:1;stroke:none;filter:url(#filter6279)"
         rx="5"
         ry="5" />
      <rect
         ry="5"
         rx="5"
         style="fill:url(#linearGradient5801);fill-opacity:1;stroke:none"
         id="rect9285"
         width="80"
         height="80"
         x="8"
         y="964.36218" />
      <g
         id="g3225"
         transform="matrix(0.64285714,0,0,0.64285714,17.042857,974.07647)">
        <path
           inkscape:connector-curvature="0"
           d="m 74,48 a 30,30 0 0 1 -60,0 30,30 0 1 1 60,0 z"
           style="fill:url(#radialGradient3079);filter:url(#filter4039)"
           id="path3015" />
        <path
           inkscape:connector-curvature="0"
           d="m 43.75,27.25 a 16.9645,16.9645 0 0 1 -33.929,0 16.9645,16.9645 0 1 1 33.929,0 z"
           style="color:#000000;fill:url(#radialGradient3109)"
           id="path3862" />
        <path
           inkscape:connector-curvature="0"
           d="m 52.938,16.875 c -1.0058,-0.02935 -2.1809,-0.0089 -3.1875,0.0625 -1.0054,0.07136 -2.2244,0.20342 -3.2188,0.375 -0.97586,0.1684 -2.1369,0.41306 -3.125,0.6875 -0.98714,0.27416 -2.1072,0.67188 -3.0312,1.0312 -0.92497,0.35975 -2.0565,0.81675 -2.9688,1.2812 -0.91003,0.46336 -1.944,1.0872 -2.7812,1.625 -0.84923,0.5455 -1.8048,1.2486 -2.5938,1.875 -0.77696,0.61682 -1.7032,1.3803 -2.4375,2.0938 -0.72298,0.70249 -1.5377,1.6031 -2.1875,2.375 -0.64936,0.77134 -1.3689,1.7309 -1.9375,2.5625 -0.57003,0.83371 -1.2051,1.8663 -1.6875,2.75 -0.48762,0.89322 -1.0174,1.9857 -1.4062,2.9062 -0.39135,0.92647 -0.79574,2.0354 -1.0938,3 -0.29404,0.95173 -0.61031,2.0944 -0.8125,3.0938 -0.20422,1.0094 -0.33929,2.236 -0.4375,3.2188 -0.10001,1.0008 -0.15668,2.1777 -0.15625,3.1875 2.5e-4,0.97017 0.02602,2.1226 0.125,3.125 0.09862,0.99883 0.27807,2.1988 0.46875,3.1562 0.18961,0.95212 0.45713,2.0978 0.75,3.0625 0.28982,0.95469 0.68763,2.033 1.0625,2.9375 0.37821,0.91259 0.90688,1.9996 1.375,2.875 0.46836,0.87587 1.047,1.8696 1.5938,2.6875 0.54364,0.81333 1.2396,1.7885 1.875,2.5625 0.63583,0.77453 1.4655,1.6219 2.1562,2.3125 0.69035,0.69018 1.5373,1.5202 2.3125,2.1562 0.77366,0.63478 1.7485,1.3312 2.5625,1.875 0.81759,0.54618 1.811,1.1253 2.6875,1.5938 0.89335,0.47741 1.9819,0.97388 2.875,1.3438 0.90407,0.37441 1.9822,0.77276 2.9375,1.0625 0.94264,0.2859 2.0871,0.58726 3.0625,0.78125 0.97963,0.19483 2.1802,0.34138 3.1562,0.4375 0.97853,0.09636 2.1307,0.15625 3.125,0.15625 0.99434,0 2.1465,-0.05989 3.125,-0.15625 0.97609,-0.09612 2.1766,-0.24267 3.1562,-0.4375 0.97544,-0.19399 2.1199,-0.49535 3.0625,-0.78125 0.95533,-0.28974 2.0334,-0.68809 2.9375,-1.0625 0.8931,-0.36987 1.9816,-0.86634 2.875,-1.3438 0.87651,-0.46841 1.8699,-1.0476 2.6875,-1.5938 0.81397,-0.54376 1.7888,-1.2402 2.5625,-1.875 0.77515,-0.636 1.6221,-1.4661 2.3125,-2.1562 0.69077,-0.6906 1.5204,-1.538 2.1562,-2.3125 0.63536,-0.77395 1.3314,-1.7492 1.875,-2.5625 0.54672,-0.81794 1.1254,-1.8116 1.5938,-2.6875 0.46812,-0.87541 0.99679,-1.9624 1.375,-2.875 0.37487,-0.90452 0.77268,-1.9828 1.0625,-2.9375 0.29287,-0.96473 0.56039,-2.1104 0.75,-3.0625 0.194,-0.955 0.373,-2.155 0.472,-3.154 0.099,-1.002 0.125,-2.155 0.125,-3.125 0,-0.958 -0.031,-2.112 -0.125,-3.094 -0.09379,-0.97443 -0.25361,-2.1182 -0.4375,-3.0625 -0.18564,-0.9533 -0.47275,-2.0978 -0.75,-3.0312 -0.27299,-0.91914 -0.63094,-1.9957 -1,-2.9062 -0.37122,-0.91585 -0.90134,-1.9657 -1.3438,-2.8125 -0.44418,-0.85014 -0.99392,-1.8635 -1.5312,-2.6875 -0.53365,-0.81837 -1.2105,-1.7154 -1.8125,-2.4688 -0.6129,-0.76694 -1.3923,-1.6534 -2.0625,-2.3438 -0.65853,-0.67832 -1.4902,-1.4801 -2.25,-2.125 -0.74695,-0.63404 -1.6472,-1.3256 -2.4375,-1.875 -0.80374,-0.55869 -1.814,-1.1839 -2.6562,-1.6562 -0.8358,-0.46868 -1.8501,-0.97885 -2.75,-1.375 -0.90064,-0.39647 -1.9948,-0.82468 -2.9062,-1.125 -0.93245,-0.30725 -2.0324,-0.56997 -2.9688,-0.78125 -0.93565,-0.21112 -2.0873,-0.43942 -3.0625,-0.5625 -0.973,-0.123 -2.132,-0.191 -3.092,-0.219 z"
           style="opacity:0.1"
           id="path3908" />
        <g
           id="g3134">
          <path
             id="path4043"
             style="fill:url(#radialGradient3128)"
             d="m 74,48 a 30,30 0 0 1 -60,0 30,30 0 1 1 60,0 z"
             inkscape:connector-curvature="0" />
          <path
             id="path3898"
             style="opacity:0.3"
             d="m 82,49 a 30,30 0 0 1 -60,0 30,30 0 1 1 60,0 z"
             inkscape:connector-curvature="0" />
          <path
             id="path3904"
             style="opacity:0.15"
             d="m 52.906,17.938 c -0.964,-0.02813 -2.1318,-0.0058 -3.0938,0.0625 -0.96199,0.06827 -2.1434,0.211 -3.0938,0.375 -0.95036,0.164 -2.102,0.39817 -3.0312,0.65625 -0.92923,0.25808 -2.0387,0.65042 -2.9375,1 -0.89882,0.34958 -1.9843,0.81242 -2.8438,1.25 -0.85942,0.43758 -1.8761,1.0413 -2.6875,1.5625 -0.81143,0.52122 -1.7759,1.2129 -2.5312,1.8125 -0.75532,0.59964 -1.6521,1.3592 -2.3438,2.0312 -0.69167,0.67207 -1.5039,1.5435 -2.125,2.2812 -0.6211,0.73778 -1.3307,1.6726 -1.875,2.4688 -0.54432,0.79611 -1.1629,1.8098 -1.625,2.6562 -0.4621,0.84649 -0.96848,1.9241 -1.3438,2.8125 -0.37527,0.8884 -0.77782,1.9848 -1.0625,2.9062 -0.28468,0.92143 -0.59001,2.0547 -0.78125,3 -0.19124,0.94525 -0.3416,2.1341 -0.4375,3.0938 -0.09589,0.95963 -0.15666,2.1293 -0.15625,3.0938 2.44e-4,0.94642 0.03201,2.0894 0.125,3.0312 0.09299,0.94184 0.2839,2.1031 0.46875,3.0312 0.18485,0.92819 0.44383,2.0631 0.71875,2.9688 0.27492,0.90561 0.6689,1.9694 1.0312,2.8438 0.36235,0.8743 0.86622,1.9467 1.3125,2.7812 0.44628,0.83458 1.0366,1.8069 1.5625,2.5938 0.52593,0.78683 1.212,1.7372 1.8125,2.4688 0.60051,0.7315 1.3932,1.5809 2.0625,2.25 0.6693,0.66913 1.5183,1.4622 2.25,2.0625 0.73166,0.60032 1.6818,1.2868 2.4688,1.8125 0.78697,0.52572 1.759,1.1164 2.5938,1.5625 0.8347,0.44607 1.9069,0.91913 2.7812,1.2812 0.8744,0.36212 1.9381,0.75656 2.8438,1.0312 0.90568,0.27469 2.0405,0.56539 2.9688,0.75 0.92824,0.18461 2.0894,0.34475 3.0312,0.4375 0.94186,0.09275 2.0848,0.15625 3.0312,0.15625 0.94642,0 2.0894,-0.0635 3.0312,-0.15625 0.94186,-0.09275 2.103,-0.25289 3.0312,-0.4375 0.92824,-0.18461 2.0631,-0.47531 2.9688,-0.75 0.90568,-0.27469 1.9694,-0.66913 2.8438,-1.0312 0.8744,-0.36212 1.9466,-0.83518 2.7812,-1.2812 0.8347,-0.44607 1.8068,-1.0368 2.5938,-1.5625 0.78697,-0.52572 1.7371,-1.2122 2.4688,-1.8125 0.73166,-0.60032 1.5807,-1.3934 2.25,-2.0625 0.6693,-0.66913 1.462,-1.5185 2.0625,-2.25 0.60051,-0.7315 1.2866,-1.6819 1.8125,-2.4688 0.52593,-0.78683 1.1162,-1.7592 1.5625,-2.5938 0.44628,-0.83458 0.95015,-1.9069 1.3125,-2.7812 0.36235,-0.8743 0.75633,-1.9381 1.0312,-2.8438 0.27492,-0.90561 0.5339,-2.0406 0.71875,-2.9688 0.18485,-0.92819 0.37576,-2.0894 0.46875,-3.0312 0.09299,-0.94184 0.12476,-2.0848 0.125,-3.0312 3.95e-4,-0.92925 -0.03597,-2.075 -0.125,-3 -0.087,-0.926 -0.257,-2.026 -0.435,-2.939 -0.178,-0.912 -0.454,-2.046 -0.719,-2.937 -0.264,-0.891 -0.619,-1.951 -0.969,-2.813 -0.349,-0.861 -0.85,-1.895 -1.281,-2.718 -0.43,-0.824 -0.992,-1.816 -1.5,-2.594 -0.50757,-0.77838 -1.1699,-1.6803 -1.75,-2.4062 -0.58012,-0.72592 -1.3527,-1.5833 -2,-2.25 -0.64728,-0.66673 -1.4478,-1.4612 -2.1562,-2.0625 -0.70844,-0.60135 -1.612,-1.2821 -2.375,-1.8125 -0.76302,-0.53038 -1.752,-1.1393 -2.5625,-1.5938 -0.81052,-0.4545 -1.8058,-0.96936 -2.6562,-1.3438 -0.85049,-0.3744 -1.9299,-0.77168 -2.8125,-1.0625 -0.88257,-0.29082 -1.9685,-0.57671 -2.875,-0.78125 -0.90646,-0.20454 -2.0156,-0.41489 -2.9375,-0.53125 -0.92194,-0.11636 -2.0711,-0.19165 -3,-0.21875 z"
             inkscape:connector-curvature="0" />
          <path
             id="path3880"
             style="fill:url(#radialGradient3098)"
             d="m 82,48 a 30,30 0 0 1 -60,0 30,30 0 1 1 60,0 z"
             inkscape:connector-curvature="0" />
          <path
             id="path4028"
             style="opacity:0.15;fill:#ffffff"
             d="M 79.188,46.719 A 27.214,27.214 0 0 1 24.812,47.188 27.214,27.214 0 0 0 24.781,48 27.219,27.219 0 0 0 79.219,48 27.214,27.214 0 0 0 79.188,46.719 z"
             inkscape:connector-curvature="0" />
          <path
             id="path3955"
             style="opacity:0.8;fill:url(#linearGradient3094-7)"
             d="m 73.16,34.504 a 21.1605,14.248337 0 0 1 -42.321,0 21.1605,14.248337 0 1 1 42.321,0 z"
             inkscape:connector-curvature="0" />
          <path
             id="path4001"
             style="fill:#251650"
             d="M 52.875,18 A 30,30 0 0 0 22,48 30,30 0 0 0 82,48 30,30 0 0 0 52.875,18 z m -0.03125,1.25 a 28.741,28.741 0 0 1 27.906,28.75 28.75,28.75 0 0 1 -57.5,0 28.741,28.741 0 0 1 29.594,-28.75 z"
             inkscape:connector-curvature="0" />
          <path
             id="path3927"
             style="opacity:0.2;color:#000000;fill:url(#linearGradient3087)"
             d="m 6,38 v 1 H 90 V 38 H 6 z m 0,2 v 1 H 90 V 40 H 6 z m 0,4 v 1 H 90 V 44 H 6 z m 0,2 v 1 H 90 V 46 H 6 z m 0,4 v 1 H 90 V 50 H 6 z m 0,2 v 1 H 90 V 52 H 6 z m 0,4 v 1 H 90 V 56 H 6 z m 0,2 v 1 H 90 V 58 H 6 z"
             inkscape:connector-curvature="0" />
          <path
             id="rect3910"
             style="color:#000000;fill:url(#linearGradient3084-8)"
             d="m 6,39 v 1 H 90 V 39 H 6 z m 0,6 v 1 H 90 V 45 H 6 z m 0,6 v 1 H 90 V 51 H 6 z m 0,6 v 1 H 90 V 57 H 6 z"
             inkscape:connector-curvature="0" />
        </g>
      </g>
      <g
         id="layer5"
         transform="translate(0,956.36218)">
        <rect
           x="15"
           y="15"
           width="66"
           height="66"
           ry="12"
           rx="12"
           clip-path="url(#clipPath3613-19)"
           style="opacity:0.1;fill:url(#linearGradient3351);stroke:#ffffff;stroke-width:0.5;stroke-linecap:round;filter:url(#filter3794-88)"
           id="rect3171" />
      </g>
    </g>
  </g>
</svg>
