<?xml version="1.0" encoding="UTF-8" standalone="no"?>
<!-- Created with Inkscape (http://www.inkscape.org/) -->
<svg id="svg2" xmlns:rdf="http://www.w3.org/1999/02/22-rdf-syntax-ns#" xmlns="http://www.w3.org/2000/svg" height="96" width="96" version="1.1" xmlns:cc="http://creativecommons.org/ns#" xmlns:xlink="http://www.w3.org/1999/xlink" xmlns:dc="http://purl.org/dc/elements/1.1/">
 <defs id="defs4">
  <filter id="filter6279" color-interpolation-filters="sRGB">
   <feGaussianBlur id="feGaussianBlur6281" stdDeviation="0.8"/>
  </filter>
  <linearGradient id="linearGradient5801" y2="902.36" gradientUnits="userSpaceOnUse" x2="48" gradientTransform="translate(0 -.0000078516)" y1="1052.4" x1="48">
   <stop id="stop3702-4-8" style="stop-color:#2b930b" offset="0"/>
   <stop id="stop3704-4" style="stop-color:#67d441" offset="1"/>
  </linearGradient>
  <linearGradient id="linearGradient3106" y2="138.66" gradientUnits="userSpaceOnUse" y1="20.221" x2="48" x1="48">
   <stop id="stop3739-33" style="stop-color:#fff" offset="0"/>
   <stop id="stop3741-805" style="stop-color:#fff;stop-opacity:0" offset="1"/>
  </linearGradient>
  <clipPath id="clipPath3613-66">
   <rect id="rect3615-40" style="fill:#fff" rx="6" ry="6" height="84" width="84" y="6" x="6"/>
  </clipPath>
  <filter id="filter3794-04" width="1.384" y="-.192" x="-.192" height="1.384" color-interpolation-filters="sRGB">
   <feGaussianBlur id="feGaussianBlur3796-62" stdDeviation="5.28"/>
  </filter>
 </defs>
 <metadata id="metadata7">
  <rdf:RDF>
   <cc:Work rdf:about="">
    <dc:format>image/svg+xml</dc:format>
    <dc:type rdf:resource="http://purl.org/dc/dcmitype/StillImage"/>
    <dc:title/>
   </cc:Work>
  </rdf:RDF>
 </metadata>
 <g id="layer1" transform="translate(0 -956.36)">
  <g id="g6483" transform="translate(0,-1e-5)">
   <rect id="rect9283" ry="5" style="filter:url(#filter6279)" rx="5" transform="translate(0 -.0000078516)" height="80" width="80" y="964.36" x="8"/>
   <rect id="rect9285" style="fill:url(#linearGradient5801)" rx="5" ry="5" height="80" width="80" y="964.36" x="8"/>
   <g id="g5668" transform="matrix(1.0827 0 0 1.0827 -4.3416 -84.893)">
    <path id="path2990" style="fill:#fff" d="m30.595 984.18-7.117 11.533h14.261l-7.1434-11.533zm1.7923 0 7.1174 11.533 7.1174-11.533h-14.233zm16.027 0-7.1174 11.533h14.235l-7.1162-11.533zm1.7923 0 7.1174 11.533 7.1174-11.533h-14.233zm16.027 0-7.1434 11.533h14.261l-7.117-11.53zm-42.756 13.3 23.56 30.32-8.416-30.32h-15.144zm16.911 0 8.0265 30.288 8.0265-30.288h-16.052zm17.82 0-8.4162 30.288 23.561-30.288h-15.145z"/>
   </g>
   <g id="layer5" transform="translate(0 956.36)">
    <rect id="rect3171" style="opacity:.1;filter:url(#filter3794-04);stroke:#fff;stroke-linecap:round;stroke-width:.5;fill:url(#linearGradient3106)" clip-path="url(#clipPath3613-66)" rx="12" ry="12" height="66" width="66" y="15" x="15"/>
   </g>
  </g>
 </g>
</svg>
