<?xml version="1.0" encoding="UTF-8" standalone="no"?>
<!-- Created with Inkscape (http://www.inkscape.org/) -->

<svg
   xmlns:dc="http://purl.org/dc/elements/1.1/"
   xmlns:cc="http://creativecommons.org/ns#"
   xmlns:rdf="http://www.w3.org/1999/02/22-rdf-syntax-ns#"
   xmlns:svg="http://www.w3.org/2000/svg"
   xmlns="http://www.w3.org/2000/svg"
   xmlns:xlink="http://www.w3.org/1999/xlink"
   xmlns:sodipodi="http://sodipodi.sourceforge.net/DTD/sodipodi-0.dtd"
   xmlns:inkscape="http://www.inkscape.org/namespaces/inkscape"
   width="96"
   height="96"
   id="svg2"
   version="1.1"
   inkscape:version="0.48.1 r9760"
   sodipodi:docname="emesene.svg">
  <defs
     id="defs4">
    <filter
       color-interpolation-filters="sRGB"
       inkscape:collect="always"
       id="filter6279">
      <feGaussianBlur
         inkscape:collect="always"
         stdDeviation="0.8"
         id="feGaussianBlur6281" />
    </filter>
    <linearGradient
       inkscape:collect="always"
       xlink:href="#linearGradient3948"
       id="linearGradient5801"
       gradientUnits="userSpaceOnUse"
       gradientTransform="translate(0,-7.8515622e-6)"
       x1="48"
       y1="1052.3622"
       x2="48"
       y2="902.36218" />
    <linearGradient
       id="linearGradient3948"
       y2="5.9877"
       gradientUnits="userSpaceOnUse"
       x2="48"
       y1="90"
       x1="48"
       gradientTransform="translate(17.978799,-1.0176678)">
      <stop
         id="stop3189-9"
         style="stop-color:#95c2e6"
         offset="0" />
      <stop
         id="stop3191-1"
         style="stop-color:#d9ecfd"
         offset="1" />
    </linearGradient>
    <linearGradient
       inkscape:collect="always"
       xlink:href="#linearGradient4735"
       id="linearGradient6146"
       gradientUnits="userSpaceOnUse"
       gradientTransform="matrix(1.0146,0,0,1.0146,100.32523,953.47728)"
       x1="23.298"
       y1="46.91"
       x2="48.157001"
       y2="48.889999" />
    <linearGradient
       id="linearGradient4735"
       y2="48.889999"
       gradientUnits="userSpaceOnUse"
       x2="48.157001"
       y1="46.91"
       x1="23.298">
      <stop
         id="stop4539"
         style="stop-color:#59af3f"
         offset="0" />
      <stop
         id="stop4547"
         style="stop-color:#7dd06e"
         offset=".28080" />
      <stop
         id="stop4545"
         style="stop-color:#95db83"
         offset=".42996" />
      <stop
         id="stop4549"
         style="stop-color:#73b661"
         offset=".60335" />
      <stop
         id="stop4541"
         style="stop-color:#2f7829"
         offset="1" />
    </linearGradient>
    <linearGradient
       inkscape:collect="always"
       xlink:href="#linearGradient4737"
       id="linearGradient6148"
       gradientUnits="userSpaceOnUse"
       gradientTransform="matrix(1.0146,0,0,1.0146,100.32523,953.47728)"
       x1="45.076"
       y1="55.112"
       x2="29.773001"
       y2="34.606998" />
    <linearGradient
       id="linearGradient4737"
       y2="34.606998"
       gradientUnits="userSpaceOnUse"
       x2="29.773001"
       y1="55.112"
       x1="45.076">
      <stop
         id="stop4531"
         style="stop-color:#2b6128"
         offset="0" />
      <stop
         id="stop4533"
         style="stop-color:#59a24c"
         offset="1" />
    </linearGradient>
    <radialGradient
       inkscape:collect="always"
       xlink:href="#radialGradient4739"
       id="radialGradient6150"
       gradientUnits="userSpaceOnUse"
       gradientTransform="matrix(0.61597381,0,0,0.9184768,119.33985,958.00138)"
       cx="44.895"
       cy="57.701"
       r="13.273" />
    <radialGradient
       id="radialGradient4739"
       gradientUnits="userSpaceOnUse"
       cy="57.701"
       cx="44.895"
       gradientTransform="matrix(0.60711,0,0,0.90526,18.741,4.459)"
       r="13.273">
      <stop
         id="stop4583"
         style="stop-color:#2b6028"
         offset="0" />
      <stop
         id="stop4585"
         style="stop-color:#2b6028;stop-opacity:0"
         offset="1" />
    </radialGradient>
    <radialGradient
       inkscape:collect="always"
       xlink:href="#radialGradient4747"
       id="radialGradient6152"
       gradientUnits="userSpaceOnUse"
       gradientTransform="matrix(1.2136747,8.0008797e-8,-8.1362038e-8,1.2341595,93.398938,947.69985)"
       cx="35.381001"
       cy="26.462"
       r="7.2122002" />
    <radialGradient
       id="radialGradient4747"
       gradientUnits="userSpaceOnUse"
       cy="26.462"
       cx="35.381001"
       gradientTransform="matrix(1.1731,7.7334e-8,-7.8642e-8,1.1929,-6.123,-5.1046)"
       r="7.2122002">
      <stop
         id="stop4506"
         style="stop-color:#c7fbb5"
         offset="0" />
      <stop
         id="stop4512-3"
         style="stop-color:#7dd067"
         offset="0.4" />
      <stop
         id="stop4508"
         style="stop-color:#387633"
         offset="1" />
    </radialGradient>
    <linearGradient
       inkscape:collect="always"
       xlink:href="#linearGradient4749"
       id="linearGradient6154"
       gradientUnits="userSpaceOnUse"
       gradientTransform="matrix(1.0146,0,0,1.0146,100.32523,953.47728)"
       x1="42.437"
       y1="33.535"
       x2="31.99"
       y2="23.087999" />
    <linearGradient
       id="linearGradient4749"
       y2="23.087999"
       gradientUnits="userSpaceOnUse"
       x2="31.99"
       y1="33.535"
       x1="42.437">
      <stop
         id="stop4523"
         style="stop-color:#2b6028"
         offset="0" />
      <stop
         id="stop4525"
         style="stop-color:#2b6028;stop-opacity:0"
         offset="1" />
    </linearGradient>
    <linearGradient
       inkscape:collect="always"
       xlink:href="#linearGradient4717"
       id="linearGradient6156"
       gradientUnits="userSpaceOnUse"
       gradientTransform="matrix(1.0146,0,0,1.0146,69.887227,953.47728)"
       x1="72.556999"
       y1="47.439999"
       x2="98.411003"
       y2="49.747002" />
    <linearGradient
       id="linearGradient4717"
       y2="49.747002"
       gradientUnits="userSpaceOnUse"
       x2="98.411003"
       gradientTransform="translate(-30,0)"
       y1="47.439999"
       x1="72.556999">
      <stop
         id="stop4343"
         style="stop-color:#5aa6c8"
         offset="0" />
      <stop
         id="stop4351"
         style="stop-color:#8bcae9"
         offset=".21075" />
      <stop
         id="stop4349"
         style="stop-color:#8ad2eb"
         offset="0.4" />
      <stop
         id="stop4353"
         style="stop-color:#4e91bb"
         offset=".63987" />
      <stop
         id="stop4345-0"
         style="stop-color:#27649a"
         offset="1" />
    </linearGradient>
    <linearGradient
       inkscape:collect="always"
       xlink:href="#linearGradient4719"
       id="linearGradient6158"
       gradientUnits="userSpaceOnUse"
       gradientTransform="matrix(1.0146,0,0,1.0146,100.32523,953.47728)"
       x1="69.538002"
       y1="53.946999"
       x2="42.846001"
       y2="37.499001" />
    <linearGradient
       id="linearGradient4719"
       y2="37.499001"
       gradientUnits="userSpaceOnUse"
       x2="42.846001"
       y1="53.946999"
       x1="69.538002">
      <stop
         id="stop4365"
         style="stop-color:#1c508a"
         offset="0" />
      <stop
         id="stop4367"
         style="stop-color:#438dc6"
         offset="1" />
    </linearGradient>
    <linearGradient
       inkscape:collect="always"
       xlink:href="#linearGradient4721"
       id="linearGradient6160"
       gradientUnits="userSpaceOnUse"
       gradientTransform="matrix(1.0146,0,0,1.0146,100.32523,953.47728)"
       x1="55.476002"
       y1="59.936001"
       x2="54.166"
       y2="39.576" />
    <linearGradient
       id="linearGradient4721"
       y2="39.576"
       gradientUnits="userSpaceOnUse"
       x2="54.166"
       y1="59.936001"
       x1="55.476002">
      <stop
         id="stop4357-5"
         style="stop-color:#1a4a7f"
         offset="0" />
      <stop
         id="stop4359-1"
         style="stop-color:#1a4a7f;stop-opacity:0"
         offset="1" />
    </linearGradient>
    <radialGradient
       inkscape:collect="always"
       xlink:href="#radialGradient4729"
       id="radialGradient6162"
       gradientUnits="userSpaceOnUse"
       gradientTransform="matrix(1.198,-2.1543e-8,2.1342e-8,1.1868,-10.245,-4.5773)"
       cx="51.742001"
       cy="24.502001"
       r="9.5279999" />
    <radialGradient
       id="radialGradient4729"
       gradientUnits="userSpaceOnUse"
       cy="24.502001"
       cx="51.742001"
       gradientTransform="matrix(1.198,-2.1543e-8,2.1342e-8,1.1868,-10.245,-4.5773)"
       r="9.5279999">
      <stop
         id="stop4297-6"
         style="stop-color:#d8effd"
         offset="0" />
      <stop
         id="stop4303"
         style="stop-color:#80bee7"
         offset="0.4" />
      <stop
         id="stop4299"
         style="stop-color:#276296"
         offset="1" />
    </radialGradient>
    <linearGradient
       inkscape:collect="always"
       xlink:href="#linearGradient4731"
       id="linearGradient6164"
       gradientUnits="userSpaceOnUse"
       x1="70.929001"
       y1="33.646999"
       x2="57.424"
       y2="20.141001" />
    <linearGradient
       id="linearGradient4731"
       y2="20.141001"
       gradientUnits="userSpaceOnUse"
       x2="57.424"
       y1="33.646999"
       x1="70.929001">
      <stop
         id="stop4468"
         style="stop-color:#1f669e"
         offset="0" />
      <stop
         id="stop4470"
         style="stop-color:#1f669e;stop-opacity:0"
         offset="1" />
    </linearGradient>
    <linearGradient
       inkscape:collect="always"
       xlink:href="#linearGradient4733"
       id="linearGradient6166"
       gradientUnits="userSpaceOnUse"
       x1="71.873001"
       y1="32.917"
       x2="58.630001"
       y2="20.280001" />
    <linearGradient
       id="linearGradient4733"
       y2="20.280001"
       gradientUnits="userSpaceOnUse"
       x2="58.630001"
       y1="32.917"
       x1="71.873001">
      <stop
         id="stop4385"
         style="stop-color:#1b528b"
         offset="0" />
      <stop
         id="stop4387"
         style="stop-color:#267bc4;stop-opacity:.22481"
         offset="1" />
    </linearGradient>
    <linearGradient
       inkscape:collect="always"
       xlink:href="#linearGradient4918"
       id="linearGradient6168"
       gradientUnits="userSpaceOnUse"
       gradientTransform="matrix(1.0146,0,0,1.0146,100.32523,953.47728)"
       x1="19.018"
       y1="47.671001"
       x2="76.789001"
       y2="47.671001" />
    <linearGradient
       id="linearGradient4918"
       y2="47.671001"
       gradientUnits="userSpaceOnUse"
       x2="76.789001"
       y1="47.671001"
       x1="19.018">
      <stop
         id="stop4914"
         style="stop-color:#f9a842"
         offset="0" />
      <stop
         id="stop4916"
         style="stop-color:#f9be42"
         offset="1" />
    </linearGradient>
    <filter
       id="filter4920"
       color-interpolation-filters="sRGB">
      <feGaussianBlur
         id="feGaussianBlur4922"
         stdDeviation="0.4564276" />
    </filter>
    <linearGradient
       y2="138.66"
       x2="48"
       y1="20.221001"
       x1="48"
       gradientUnits="userSpaceOnUse"
       id="linearGradient5690"
       xlink:href="#linearGradient3737-25"
       inkscape:collect="always" />
    <linearGradient
       id="linearGradient3737-25">
      <stop
         id="stop3739-89"
         style="stop-color:#fff"
         offset="0" />
      <stop
         id="stop3741-02"
         style="stop-color:#fff;stop-opacity:0"
         offset="1" />
    </linearGradient>
    <clipPath
       id="clipPath3613-47">
      <rect
         id="rect3615-657"
         style="fill:#ffffff"
         rx="6"
         ry="6"
         height="84"
         width="84"
         y="6"
         x="6" />
    </clipPath>
    <filter
       id="filter3794-13"
       height="1.3839999"
       width="1.3839999"
       color-interpolation-filters="sRGB"
       y="-0.192"
       x="-0.192">
      <feGaussianBlur
         id="feGaussianBlur3796-33"
         stdDeviation="5.28" />
    </filter>
  </defs>
  <sodipodi:namedview
     id="base"
     pagecolor="#ffffff"
     bordercolor="#666666"
     borderopacity="1.0"
     inkscape:pageopacity="0.0"
     inkscape:pageshadow="2"
     inkscape:zoom="3.959798"
     inkscape:cx="28.389459"
     inkscape:cy="57.490015"
     inkscape:document-units="px"
     inkscape:current-layer="layer1"
     showgrid="false"
     inkscape:window-width="1280"
     inkscape:window-height="725"
     inkscape:window-x="0"
     inkscape:window-y="25"
     inkscape:window-maximized="1" />
  <metadata
     id="metadata7">
    <rdf:RDF>
      <cc:Work
         rdf:about="">
        <dc:format>image/svg+xml</dc:format>
        <dc:type
           rdf:resource="http://purl.org/dc/dcmitype/StillImage" />
        <dc:title></dc:title>
      </cc:Work>
    </rdf:RDF>
  </metadata>
  <g
     inkscape:label="Layer 1"
     inkscape:groupmode="layer"
     id="layer1"
     transform="translate(0,-956.36217)">
    <g
       transform="translate(0,-1e-5)"
       id="g7005">
      <rect
         transform="translate(0,-7.8515622e-6)"
         y="964.36218"
         x="8"
         height="80"
         width="80"
         id="rect9283"
         style="fill:#000000;fill-opacity:1;stroke:none;filter:url(#filter6279)"
         rx="5"
         ry="5" />
      <rect
         ry="5"
         rx="5"
         style="fill:url(#linearGradient5801);fill-opacity:1;stroke:none"
         id="rect9285"
         width="80"
         height="80"
         x="8"
         y="964.36218" />
      <g
         transform="matrix(0.91948027,0,0,0.91948027,-88.977235,88.89892)"
         id="g6127">
        <path
           id="path4620"
           style="fill:#f9ac42"
           d="m 177.80414,989.61226 c -4.07037,6.30904 -10.04363,8.46534 -10.04363,8.46534 l 0.86088,2.0087 c 0,0 8.97921,-5.0808 9.18274,-10.47374 z"
           inkscape:connector-curvature="0" />
        <path
           id="path4630"
           style="fill:#fcd298"
           d="m 174.83542,994.1567 c -2.76975,2.6192 -5.27044,3.8327 -6.24608,4.2486 l 0.31706,0.7609 c 0.66899,-0.4016 2.0986,-1.2741 3.83641,-2.7585 0.7724,-0.6597 1.42156,-1.4691 2.09261,-2.2511 z"
           inkscape:connector-curvature="0" />
        <path
           id="path4494"
           style="fill:url(#linearGradient6146);stroke:url(#linearGradient6148);stroke-width:1.00002015px"
           d="m 127.89699,1008.1216 c 0,0 -2.74957,0.7174 -3.32343,-0.4304 -1.29128,-15.35195 10.04363,-18.65244 10.04363,-18.65244 l 6.60007,0.28696 c 3.73048,-0.14349 10.1876,7.03056 10.1876,7.03056 l -6.16968,15.78312 c 0,0 -11.05102,3.1515 -16.93063,-0.4304 -1.24451,-3.0182 1.29128,-13.77425 1.29128,-13.77425"
           inkscape:connector-curvature="0" />
        <path
           id="path4571"
           style="fill:url(#radialGradient6150)"
           d="m 127.89699,1008.1216 c 0,0 -2.74957,0.7174 -3.32343,-0.4304 -1.29128,-15.35195 10.04363,-18.65244 10.04363,-18.65244 l 6.60007,0.28696 c 3.73048,-0.14349 10.1876,7.03056 10.1876,7.03056 l -6.16968,15.78312 c 0,0 -11.05102,3.1515 -16.93063,-0.4304 -1.24451,-3.0182 1.29128,-13.77425 1.29128,-13.77425"
           inkscape:connector-curvature="0" />
        <path
           id="path4492"
           style="color:#000000;fill:url(#radialGradient6152)"
           d="m 145.23488,982.3664 a 7.4616527,7.4616527 0 1 1 -4e-5,-0.0238"
           inkscape:connector-curvature="0" />
        <path
           id="path4514"
           style="color:#000000;fill:url(#linearGradient6154)"
           d="m 137.77006,974.9107 c -4.1211,0 -7.45102,3.32992 -7.45102,7.45102 0,4.12111 3.32992,7.48268 7.45102,7.48268 4.1211,0 7.45102,-3.36157 7.45102,-7.48268 v -0.0317 c -0.0132,-4.11218 -3.33905,-7.41977 -7.45123,-7.41977 z m 0.0317,0.91949 c 3.60062,0 6.48827,2.89556 6.49973,6.49973 v 0.0317 c 0,3.61249 -2.89221,6.53149 -6.49973,6.53149 -3.60751,0 -6.53148,-2.92398 -6.53148,-6.53149 0,-3.60751 2.92397,-6.53148 6.53148,-6.53148 z"
           inkscape:connector-curvature="0" />
        <path
           id="path4593"
           style="opacity:0.4;color:#000000;fill:#2b6128"
           d="m 134.63089,989.05119 c 0,0 -0.48614,0.16291 -1.10977,0.44388 1.20879,0.84341 2.66291,1.36342 4.24863,1.36342 1.62894,0 3.14841,-0.54093 4.37547,-1.42673 -0.32113,-0.0715 -0.62739,-0.10635 -0.91949,-0.0951 l -6.5949,-0.28535 z"
           inkscape:connector-curvature="0" />
        <path
           id="path4331"
           style="fill:url(#linearGradient6156)"
           d="m 157.20573,988.98828 c -0.48779,-0.0207 -0.9972,0.003 -1.5219,0.0317 -13.83914,-0.71225 -12.11128,21.46592 -12.11128,21.46592 0,0.7123 1.2366,0.6975 1.2366,0.6975 l 0.19023,-0.1585 c -0.0171,1.9955 0.147,3.8272 0.60242,5.1682 3.86685,4.8844 21.07629,2.6375 21.68708,0.6024 0.37855,-0.9464 0.13023,-2.0352 0.0951,-2.1877 1.12377,-0.034 2.22705,-0.3295 2.63167,-1.3634 0,0 2.31227,-23.61384 -12.80933,-24.25506 z"
           inkscape:connector-curvature="0" />
        <path
           id="path4291"
           style="fill:none;stroke:url(#linearGradient6158);stroke-width:1.00002015px"
           d="m 144.79413,1011.1928 c 0,0 -1.22107,0 -1.22107,-0.7123 0,0 -1.72989,-22.18322 12.10925,-21.47097 16.7896,-0.91619 14.34746,24.21847 14.34746,24.21847 -0.91618,2.3407 -5.49507,1.0177 -5.49507,1.0177 -0.20394,-10.9902 -3.45979,-16.5867 -3.45979,-16.5867"
           inkscape:connector-curvature="0" />
        <path
           id="path4293"
           style="fill:none;stroke:url(#linearGradient6160);stroke-width:1.00002015px"
           d="m 146.72694,997.4551 c 0,0 -2.95106,13.3308 -1.1193,18.7234 3.86684,4.8845 21.06411,2.6458 21.6749,0.6106 0.40703,-1.0175 0.10176,-2.2387 0.10176,-2.2387"
           inkscape:connector-curvature="0" />
        <path
           id="path4289-2"
           style="opacity:0.4;color:#000000;fill:#1a4a7f"
           d="m 157.20573,988.98828 c -0.48779,-0.0207 -0.9972,0.003 -1.5219,0.0317 -1.772,-0.0912 -3.29948,0.1962 -4.59735,0.76095 1.40167,0.8534 3.02665,1.36342 4.78769,1.36342 1.82689,0 3.54298,-0.5453 4.97783,-1.45849 -1.08765,-0.39164 -2.29401,-0.64021 -3.64647,-0.69805 z"
           inkscape:connector-curvature="0" />
        <g
           id="g4319"
           transform="matrix(1.0146,0,0,1.0146,90.179227,953.47728)">
          <path
             id="path4289"
             style="color:#000000;fill:url(#radialGradient6162)"
             d="m 63.888,26.596 a 9.528,9.528 0 1 1 -4.9e-5,-0.0304"
             transform="matrix(0.95789,0,0,0.95789,12.69,1.521)"
             inkscape:connector-curvature="0" />
          <path
             id="path4311"
             style="opacity:0.2;color:#000000;fill:url(#linearGradient6164)"
             d="m 64.781,17.875 c -5.0406,0 -9.125,4.0844 -9.125,9.125 0,5.0406 4.0844,9.125 9.125,9.125 5.0406,0 9.0938,-4.0844 9.0938,-9.125 v -0.03125 c -0.016,-5.029 -4.065,-9.094 -9.094,-9.094 z m 0,1.9062 c 3.9992,0 7.1747,3.1809 7.1875,7.1875 v 0.03125 c 0,4.0158 -3.1792,7.2188 -7.1875,7.2188 -4.0083,0 -7.2188,-3.2105 -7.2188,-7.2188 0,-4.0083 3.2105,-7.2188 7.2188,-7.2188 z"
             inkscape:connector-curvature="0" />
          <path
             id="path4305"
             style="color:#000000;fill:url(#linearGradient6166)"
             d="m 64.75,17.875 c -5.0406,0 -9.125,4.0844 -9.125,9.125 0,5.0406 4.0844,9.125 9.125,9.125 5.0406,0 9.125,-4.0844 9.125,-9.125 v -0.03125 c -0.016,-5.029 -4.096,-9.094 -9.125,-9.094 z m 0.03125,0.96875 c 4.489,0 8.0794,3.6322 8.0938,8.125 V 27 c 0,4.5031 -3.5946,8.125 -8.0938,8.125 -4.4991,0 -8.1562,-3.6259 -8.1562,-8.125 0,-4.4991 3.6571,-8.1562 8.1562,-8.1562 z"
             inkscape:connector-curvature="0" />
        </g>
        <path
           id="path4622"
           style="fill:url(#linearGradient6168)"
           d="m 125.00436,1007.6914 c 0,0 -5.53738,0.3549 -5.38012,-6.3793 0.1078,-4.61509 3.01813,-7.5692 13.49012,-7.32265 10.5975,0.24948 16.46899,11.38075 45.12028,15.71105 -30.16609,0.5053 -32.52909,-12.6358 -46.63,-13.34399 -7.83576,-0.39671 -9.91467,1.65988 -10.61779,4.59109 -0.70307,2.9318 2.1402,5.3105 4.16097,5.0218 l -0.14348,1.7218 z"
           inkscape:connector-curvature="0" />
        <path
           id="path4626"
           style="fill:#fde3c0;filter:url(#filter4920)"
           d="m 32.281,40.656 c -5.0903,-0.11984 -8.2522,0.58195 -10.062,1.7188 -1.3011,0.81705 -1.8275,1.949 -2.125,3.25 0.47046,-1.1717 1.1677,-2.2852 2.5312,-3 1.7544,-0.9197 4.3211,-1.2928 8.25,-1.0938 7.1747,0.36019 11.381,3.8661 17.344,7.0938 4.5194,2.4462 10.134,4.7691 19,5.6562 -8.8178,-2.1505 -14.914,-4.9587 -19.688,-7.4688 -6.3178,-3.3219 -10.281,-6.0393 -15.25,-6.1562 z M 20,49.469 c 0.38217,1.4706 1.1746,2.2485 1.9688,2.6875 0.6648,0.36754 1.2433,0.45567 1.6875,0.5 l 0.03125,-0.3125 c -1.0299,-0.12504 -2.0358,-0.54823 -2.8125,-1.375 -0.38704,-0.41196 -0.63782,-0.95564 -0.875,-1.5 z"
           inkscape:connector-curvature="0"
           transform="matrix(1.0146,0,0,1.0146,100.32523,953.47728)" />
      </g>
      <g
         id="layer5"
         transform="translate(0,956.36218)">
        <rect
           x="15"
           y="15"
           width="66"
           height="66"
           ry="12"
           rx="12"
           clip-path="url(#clipPath3613-47)"
           style="opacity:0.1;fill:url(#linearGradient5690);stroke:#ffffff;stroke-width:0.5;stroke-linecap:round;filter:url(#filter3794-13)"
           id="rect3171" />
      </g>
    </g>
  </g>
</svg>
