<?xml version="1.0" encoding="UTF-8" standalone="no"?>
<!-- Created with Inkscape (http://www.inkscape.org/) -->
<svg id="svg2" xmlns:rdf="http://www.w3.org/1999/02/22-rdf-syntax-ns#" xmlns="http://www.w3.org/2000/svg" height="96" width="96" version="1.1" xmlns:cc="http://creativecommons.org/ns#" xmlns:xlink="http://www.w3.org/1999/xlink" xmlns:dc="http://purl.org/dc/elements/1.1/">
 <defs id="defs4">
  <filter id="filter6279" color-interpolation-filters="sRGB">
   <feGaussianBlur id="feGaussianBlur6281" stdDeviation="0.8"/>
  </filter>
  <linearGradient id="linearGradient5711" y2="902.36" gradientUnits="userSpaceOnUse" x2="48" gradientTransform="translate(0 -2008.7)" y1="1052.4" x1="48">
   <stop id="stop4143" style="stop-color:#d3e0ef" offset="0"/>
   <stop id="stop4147" style="stop-color:#fbfcfd" offset=".69528"/>
   <stop id="stop4145-8" style="stop-color:#ecf2f8" offset="1"/>
  </linearGradient>
  <linearGradient id="linearGradient4192" y2="40.333" gradientUnits="userSpaceOnUse" x2="68.881" y1="40.333" x1="27.271">
   <stop id="stop4153" style="stop-color:#2759a1" offset="0"/>
   <stop id="stop4161" style="stop-color:#477ecc" offset=".41216"/>
   <stop id="stop4159" style="stop-color:#7ba2d4" offset=".76351"/>
   <stop id="stop4155" style="stop-color:#739fcf" offset="1"/>
  </linearGradient>
 </defs>
 <metadata id="metadata7">
  <rdf:RDF>
   <cc:Work rdf:about="">
    <dc:format>image/svg+xml</dc:format>
    <dc:type rdf:resource="http://purl.org/dc/dcmitype/StillImage"/>
    <dc:title/>
   </cc:Work>
  </rdf:RDF>
 </metadata>
 <g id="layer1" transform="translate(0 -956.36)">
  <g id="g6530" transform="translate(2.861e-8 -.0000097370)">
   <rect id="rect9283" ry="5" style="filter:url(#filter6279)" rx="5" transform="translate(0 -.0000078516)" height="80" width="80" y="964.36" x="8"/>
   <rect id="rect9285" style="fill:url(#linearGradient5711)" rx="5" transform="scale(1,-1)" ry="5" width="80" y="-1044.4" x="8" height="80"/>
   <g id="g3087" transform="matrix(1.2497 0 0 1.2497 -11.987 841.9)">
    <path id="path4184" style="color:#000000;fill:url(#linearGradient4192)" d="m68.881 40.333a20.805 20.805 0 1 1 -41.61 0 20.805 20.805 0 1 1 41.61 0z" transform="matrix(0 .96131 -.96131 0 86.772 83.784)"/>
    <rect id="rect4186" style="color:#000000;fill:#fff" height="6" width="3" y="122" x="40"/>
    <path id="path4188" style="color:#000000;fill:#fff" d="m35.281 130.72c2.648 4.96 6.068 8.28 12.719 8.28 6.6512 0 10.071-3.3195 12.719-8.2812-3.258 3.26-7.748 5.28-12.719 5.28-4.9706 0-9.4614-2.0239-12.719-5.2812z"/>
    <rect id="rect4190" style="color:#000000;fill:#fff" height="6" width="3" y="122" x="53"/>
   </g>
  </g>
 </g>
</svg>
