<?xml version="1.0" encoding="UTF-8" standalone="no"?>
<!-- Created with Inkscape (http://www.inkscape.org/) -->
<svg id="svg6307" xmlns:rdf="http://www.w3.org/1999/02/22-rdf-syntax-ns#" xmlns="http://www.w3.org/2000/svg" height="96" width="96" version="1.1" xmlns:cc="http://creativecommons.org/ns#" xmlns:xlink="http://www.w3.org/1999/xlink" xmlns:dc="http://purl.org/dc/elements/1.1/">
 <defs id="defs6309">
  <filter id="filter6279" color-interpolation-filters="sRGB">
   <feGaussianBlur id="feGaussianBlur6281" stdDeviation="0.8"/>
  </filter>
  <linearGradient id="linearGradient5662" y2="902.36" gradientUnits="userSpaceOnUse" x2="48" gradientTransform="translate(0 -.0000078516)" y1="1052.4" x1="48">
   <stop id="stop3742-4" style="stop-color:#536d98" offset="0"/>
   <stop id="stop3744-2" style="stop-color:#7990b6" offset="1"/>
  </linearGradient>
  <linearGradient id="linearGradient3089-2" y2="5.9877" xlink:href="#ButtonColor-6" gradientUnits="userSpaceOnUse" x2="48" y1="90" x1="48"/>
  <linearGradient id="ButtonColor-6" y2="5.4252" gradientUnits="userSpaceOnUse" x2="58.65" y1="122" x1="58.65">
   <stop id="stop3189-4" style="stop-color:#dcdcdc" offset="0"/>
   <stop id="stop3191-0" style="stop-color:#f5f5f5" offset="1"/>
  </linearGradient>
  <radialGradient id="radialGradient3083" gradientUnits="userSpaceOnUse" cy="89.689" cx="47.967" gradientTransform="matrix(1.3341 0 0 .95759 -16.026 2.1113)" r="42">
   <stop id="stop3739-1-78" style="stop-color:#fff" offset="0"/>
   <stop id="stop3741-0-5" style="stop-color:#fff;stop-opacity:0" offset="1"/>
  </radialGradient>
  <linearGradient id="linearGradient4073" y2="16.641" gradientUnits="userSpaceOnUse" x2="47.727" y1="78.923" x1="47.727">
   <stop id="stop3823" style="stop-color:#4d81cf" offset="0"/>
   <stop id="stop3825" style="stop-color:#9cb8e4" offset="1"/>
  </linearGradient>
  <clipPath id="clipPath4146">
   <rect id="rect4148" style="fill:#f0f" height="64" width="64" y="26" x="16"/>
  </clipPath>
  <linearGradient id="linearGradient3982" y2="29.471" xlink:href="#linearGradient3814-9" gradientUnits="userSpaceOnUse" x2="44.586" gradientTransform="matrix(-.96032 .27889 .27889 .96032 111.44 15.295)" y1="13.056" x1="39.819"/>
  <linearGradient id="linearGradient3814-9">
   <stop id="stop3816-9" style="stop-color:#fff" offset="0"/>
   <stop id="stop3818-8" style="stop-color:#fff;stop-opacity:0" offset="1"/>
  </linearGradient>
  <linearGradient id="linearGradient3980" y2="89.995" xlink:href="#linearGradient3814-9" gradientUnits="userSpaceOnUse" x2="35.838" gradientTransform="translate(-10,-3)" y1="56.924" x1="35.838"/>
  <linearGradient id="linearGradient3929-74" y2="48.086" xlink:href="#linearGradient3814-9" gradientUnits="userSpaceOnUse" x2="45.967" gradientTransform="translate(44.277 16.233)" y1="28.946" x1="45.967"/>
  <linearGradient id="linearGradient3926" y2="56.865" xlink:href="#linearGradient3814-9" gradientUnits="userSpaceOnUse" x2="76.758" gradientTransform="matrix(-1 0 0 1 80.942 38.325)" y1="27.41" x1="76.758"/>
  <linearGradient id="linearGradient3235-18" y2="76.55" gradientUnits="userSpaceOnUse" x2="75.918" gradientTransform="matrix(-1 0 0 1 85.594 12)" y1="63.139" x1="75.918">
   <stop id="stop3864-9" style="stop-color:#fff" offset="0"/>
   <stop id="stop3866-2" style="stop-color:#fff;stop-opacity:0" offset="1"/>
  </linearGradient>
  <linearGradient id="linearGradient4184" y2="27.219" xlink:href="#ButtonColor-6" gradientUnits="userSpaceOnUse" x2="49.191" y1="68.262" x1="49.191"/>
  <linearGradient id="linearGradient3206-4" y2="138.66" gradientUnits="userSpaceOnUse" y1="20.221" x2="48" x1="48">
   <stop id="stop3739-831" style="stop-color:#fff" offset="0"/>
   <stop id="stop3741-89" style="stop-color:#fff;stop-opacity:0" offset="1"/>
  </linearGradient>
  <clipPath id="clipPath3613-64">
   <rect id="rect3615-33" style="fill:#fff" rx="6" ry="6" height="84" width="84" y="6" x="6"/>
  </clipPath>
  <filter id="filter3794-38" height="1.384" width="1.384" color-interpolation-filters="sRGB" y="-.192" x="-.192">
   <feGaussianBlur id="feGaussianBlur3796-60" stdDeviation="5.28"/>
  </filter>
 </defs>
 <metadata id="metadata6312">
  <rdf:RDF>
   <cc:Work rdf:about="">
    <dc:format>image/svg+xml</dc:format>
    <dc:type rdf:resource="http://purl.org/dc/dcmitype/StillImage"/>
    <dc:title/>
   </cc:Work>
  </rdf:RDF>
 </metadata>
 <g id="layer1" transform="translate(0 -956.36)">
  <g id="g6570">
   <rect id="rect9283" ry="5" style="filter:url(#filter6279)" rx="5" transform="translate(0 -.0000078516)" height="80" width="80" y="964.36" x="8"/>
   <rect id="rect9285" style="fill:url(#linearGradient5662)" rx="5" ry="5" height="80" width="80" y="964.36" x="8"/>
   <g id="g3099" transform="matrix(.65476 0 0 .65476 16.571 972.93)">
    <path id="rect2419" d="m12 6c-3.1577 0-5.7192 2.4087-5.9688 5.5 2.4695 0.017 4.4688 2.027 4.4688 4.5 0 2.484-2.016 4.5-4.5 4.5v7c2.484 0 4.5 2.016 4.5 4.5s-2.016 4.5-4.5 4.5v7c2.484 0 4.5 2.016 4.5 4.5s-2.016 4.5-4.5 4.5v7c2.484 0 4.5 2.016 4.5 4.5s-2.016 4.5-4.5 4.5v7c2.484-0.000004 4.5 2.016 4.5 4.5 0 2.4734-1.9993 4.4829-4.4688 4.5 0.2496 3.091 2.8111 5.5 5.9688 5.5 0-2.484 2.016-4.5 4.5-4.5s4.5 2.016 4.5 4.5h7c0-2.484 2.016-4.5 4.5-4.5s4.5 2.016 4.5 4.5h7c0-2.484 2.016-4.5 4.5-4.5s4.5 2.016 4.5 4.5h7c0-2.484 2.016-4.5 4.5-4.5s4.5 2.016 4.5 4.5h7c-0.000004-2.484 2.016-4.5 4.5-4.5 2.4522 0 4.4493 1.9661 4.5 4.4062 2.689-0.445 4.746-2.647 4.969-5.406-2.47-0.017-4.469-2.027-4.469-4.5 0-2.484 2.016-4.5 4.5-4.5v-7c-2.484 0.000001-4.5-2.016-4.5-4.5s2.016-4.5 4.5-4.5v-7c-2.484 0.000001-4.5-2.016-4.5-4.5s2.016-4.5 4.5-4.5v-7c-2.484 0.000001-4.5-2.016-4.5-4.5s2.016-4.5 4.5-4.5v-7c-2.484 0.000001-4.5-2.016-4.5-4.5 0-2.4734 1.9993-4.4829 4.4688-4.5-0.223-2.7593-2.28-4.9611-4.969-5.4062-0.051 2.4401-2.048 4.4062-4.5 4.4062-2.484 0-4.5-2.016-4.5-4.5h-7c0.000001 2.484-2.016 4.5-4.5 4.5s-4.5-2.016-4.5-4.5h-7c0.000001 2.484-2.016 4.5-4.5 4.5s-4.5-2.016-4.5-4.5h-7c0.000001 2.484-2.016 4.5-4.5 4.5s-4.5-2.016-4.5-4.5h-7c0.000001 2.484-2.016 4.5-4.5 4.5s-4.5-2.016-4.5-4.5z" style="fill:url(#linearGradient3089-2)"/>
    <path id="path2901" d="m6.5312 9.5625c-0.266 0.6015-0.4444 1.2485-0.5 1.9375 2.1261 0.015 3.8906 1.507 4.3438 3.5 0.074-0.323 0.125-0.655 0.125-1 0-2.302-1.7373-4.172-3.9688-4.4375zm82.938 0c-2.232 0.2655-3.969 2.1355-3.969 4.4375 0 0.34535 0.05123 0.6769 0.125 1 0.45319-1.993 2.2177-3.4853 4.3438-3.5-0.05569-0.68982-0.23378-1.3361-0.5-1.9375zm-83.469 15.938v2c2.1387 0 3.9181 1.4991 4.375 3.5 0.07377-0.3231 0.125-0.65465 0.125-1 0-2.484-2.016-4.5-4.5-4.5zm84 0c-2.484 0-4.5 2.016-4.5 4.5 0 0.34535 0.05123 0.6769 0.125 1 0.45687-2.0009 2.2363-3.5 4.375-3.5v-2zm-84 16v2c2.1387 0 3.9181 1.4991 4.375 3.5 0.07377-0.3231 0.125-0.65465 0.125-1 0-2.484-2.016-4.5-4.5-4.5zm84 0c-2.484 0-4.5 2.016-4.5 4.5 0 0.34535 0.05123 0.6769 0.125 1 0.45687-2.0009 2.2363-3.5 4.375-3.5v-2zm-84 16v2c2.1387 0 3.9181 1.4991 4.375 3.5 0.07377-0.3231 0.125-0.65465 0.125-1 0-2.484-2.016-4.5-4.5-4.5zm84 0c-2.484 0-4.5 2.016-4.5 4.5 0 0.34535 0.05123 0.6769 0.125 1 0.45687-2.0009 2.2363-3.5 4.375-3.5v-2zm-84 16v2c2.1387-0.000003 3.9181 1.4991 4.375 3.5 0.07318-0.32183 0.125-0.65612 0.125-1 0-2.484-2.016-4.5-4.5-4.5zm84 0c-2.484 0-4.5 2.016-4.5 4.5 0 0.34388 0.05182 0.67817 0.125 1 0.45687-2.0009 2.2363-3.5 4.375-3.5v-2zm-73.5 10c-2.484 0-4.5 2.016-4.5 4.5-2.4543 0-4.5404-1.463-5.4688-3.562-0.1656 0.019-0.3293 0.061-0.5 0.062 0.2496 3.091 2.8111 5.5 5.9688 5.5 0-2.484 2.016-4.5 4.5-4.5s4.5 2.016 4.5 4.5h7c0-2.484 2.016-4.5 4.5-4.5s4.5 2.016 4.5 4.5h7c0-2.484 2.016-4.5 4.5-4.5s4.5 2.016 4.5 4.5h7c0-2.484 2.016-4.5 4.5-4.5s4.5 2.016 4.5 4.5h7c-0.000004-2.484 2.016-4.5 4.5-4.5 2.4522 0 4.4493 1.9661 4.5 4.4062 2.6885-0.44512 4.746-2.647 4.9688-5.4062-0.17068-0.0012-0.33432-0.04279-0.5-0.0625-0.799 1.804-2.453 3.134-4.469 3.468-0.051-2.44-2.048-4.406-4.5-4.406-2.484 0-4.5 2.016-4.5 4.5h-7c0-2.484-2.016-4.5-4.5-4.5s-4.5 2.016-4.5 4.5h-7c0-2.484-2.016-4.5-4.5-4.5s-4.5 2.016-4.5 4.5h-7c0-2.484-2.016-4.5-4.5-4.5s-4.5 2.016-4.5 4.5h-7c0-2.484-2.016-4.5-4.5-4.5z" style="opacity:.3;fill:url(#radialGradient3083)"/>
    <g id="layer3">
     <rect id="rect2411" style="fill:url(#linearGradient4073)" height="64" width="64" y="16" x="16"/>
     <g id="g3963" style="opacity:.8" transform="translate(0,-10)" clip-path="url(#clipPath4146)">
      <path id="path3870" style="color:#000000;fill:url(#linearGradient3982)" d="m63.176 37.577c1.3695-0.39771 2.8078 0.36799 3.2055 1.7375 0.26277 0.90483 0.01648 1.8361-0.58162 2.4793 0.58655 0.47866 1.0897 1.0561 1.5055 1.7105 0.67528-0.47186 1.3964-0.88205 2.1926-1.19-0.06956-0.13999-0.14562-0.27731-0.19075-0.43272-0.40846-1.4065 0.40358-2.8832 1.8101-3.2917 1.0305-0.29927 2.09 0.06539 2.7465 0.82944 0.71646-1.3394 1.9296-2.4116 3.4859-2.8997-0.36546-1.2584 0.35998-2.5777 1.6184-2.9431 1.1849-0.34412 2.4063 0.29254 2.8521 1.4171 0.32427-0.23589 0.70211-0.43169 1.1094-0.54996 1.8877-0.54819 3.8665 0.53996 4.4147 2.4276 0.01796 0.06184 0.0078 0.1268 0.02228 0.18878 0.5619-0.24483 1.1335-0.45935 1.7357-0.63424 1.6025-0.46537 3.1983-0.63221 4.7794-0.57446 0.79208-1.3548 2.0873-2.4285 3.7134-2.9007 3.3682-0.97815 6.8831 0.9547 7.8612 4.3229 0.14672 0.50522 0.22646 1.0197 0.24699 1.5228 2.1491-0.3304 4.2499 0.9638 4.8726 3.1082 0.12227 0.42102 0.17183 0.83567 0.16855 1.2527 0.2622 0.12185 0.51679 0.24917 0.76579 0.39589 0.63234-0.96454 1.5939-1.732 2.8112-2.0855 2.6279-0.76317 5.3354 0.66766 6.0663 3.1845 0.73092 2.5169-0.78897 5.1754-3.4169 5.9385-0.39479 0.11465-0.79196 0.1614-1.184 0.18113 0.12908 3.8894-2.3625 7.5197-6.2725 8.6552-1.2289 0.3569-2.4795 0.42203-3.669 0.252-1.92 2.7901-4.7482 4.9584-8.2544 5.9767-4.7374 1.3758-9.6028 0.33061-13.287-2.3892-0.58501 0.61766-1.3331 1.103-2.2091 1.3574-2.331 0.67695-4.7547-0.41753-5.8058-2.5117-0.02951 0.0088-0.06039 0.01754-0.09003 0.02614-3.47 1.0077-7.0196 0.12201-9.6027-2.0274-0.85466 1.6019-2.3363 2.8588-4.2177 3.4051-3.3969 0.98648-6.954-0.7078-8.3443-3.8572-0.39834 0.22718-0.80841 0.43002-1.2682 0.56353-3.1461 0.91365-6.4442-0.89994-7.3578-4.046-0.91365-3.1461 0.89994-6.4442 4.046-7.3578 0.32887-0.09551 0.65822-0.15163 0.98647-0.18886 0.33617-0.60813 0.87158-1.0666 1.5527-1.2644 0.70433-0.20454 1.4424-0.08217 2.0659 0.27864-0.12887-3.2244 1.9287-6.2548 5.1671-7.1953 0.70473-0.20466 1.4091-0.26407 2.1065-0.25381-0.06387-1.1722 0.66728-2.2764 1.843-2.6179z"/>
      <path id="path3739" style="color:#000000;fill:url(#linearGradient3980)" d="m20.5 50.312c-0.95045 0-1.8285 0.30559-2.5312 0.8125-0.58004-0.08942-1.1762-0.15625-1.7812-0.15625-2.6437 0-5.0504 0.91554-7 2.4062-0.2257-0.035-0.4522-0.062-0.688-0.062-2.3125 0-4.1875 1.7719-4.1875 3.9688 0 0.82384 0.26727 1.5839 0.71875 2.2188-0.268 0.97769-0.40625 1.9997-0.40625 3.0625 0 1.0735 0.13301 2.1073 0.40625 3.0938-0.6199-0.279-1.3073-0.437-2.0312-0.437-2.7365 0-4.9375 2.201-4.9375 4.9375s2.201 4.9688 4.9375 4.9688c0.36612 0 0.719-0.04965 1.0625-0.125-0.000643 0.04129 0 0.08355 0 0.125 0 4.3167 3.4958 7.8125 7.8125 7.8125 2.786 0 5.2097-1.4621 6.5938-3.6562 2.0411 1.841 4.7536 2.9688 7.7188 2.9688 4.015 0 7.533-2.072 9.5938-5.1875 1.2942 0.97115 2.8824 1.5625 4.625 1.5625 2.725 0 5.1192-1.4353 6.5-3.5625 0.69317 0.55616 1.5421 0.90625 2.5 0.90625 1.3093 0 2.4789-0.6295 3.2188-1.5938 0.32267 0.20323 0.71549 0.34375 1.125 0.34375 1.1563 0 2.0938-0.93749 2.0938-2.0938s-0.93749-2.0938-2.0938-2.0938c-0.18067 0-0.36401 0.01947-0.53125 0.0625-0.509-1.456-1.821-2.527-3.408-2.688-0.086-1.348-1.192-2.406-2.562-2.406-0.3812 0-0.73681 0.07047-1.0625 0.21875-1.4183-1.5835-3.4881-2.5938-5.7812-2.5938-1.0245 0-1.9799 0.20126-2.875 0.5625-0.22426-2.3734-2.2241-4.25-4.6562-4.25-0.28018 0-0.54588 0.04651-0.8125 0.09375 0.03207-0.21766 0.0625-0.42967 0.0625-0.65625 0-2.5052-2.0573-4.5312-4.5625-4.5312-0.93946 0-1.8073 0.2609-2.5312 0.75-0.12466-0.14758-0.24323-0.29637-0.375-0.4375 0.01212-0.12327 0.03125-0.24872 0.03125-0.375 0-2.1969-1.875-3.9688-4.1875-3.9688z"/>
      <path id="path3772" style="color:#000000;fill:url(#linearGradient3929-74)" d="m94.09 34.889c-1.7951 0-3.2871 1.3348-3.5312 3.0625-0.99024 0.39781-1.8962 0.90849-2.7188 1.5625-0.48316-0.50848-1.1494-0.84375-1.9062-0.84375-1.4646 0-2.6562 1.1917-2.6562 2.6562 0 0.01073-0.00013 0.02055 0 0.03125-1.0357 0.06809-2.0271 0.26679-2.9688 0.59375-0.55027-0.63705-1.3734-1.0312-2.2813-1.0312-1.6368 0-2.9673 1.3085-3 2.9375-0.04347-0.0022-0.08097-0.03125-0.125-0.03125-1.2037 0-2.2233 0.86986-2.4688 2-2.4536 0.16605-4.5626 1.5198-5.7812 3.5-0.4926-0.20835-1.0253-0.3125-1.5938-0.3125-2.274 0-4.125 1.851-4.125 4.125s1.851 4.0938 4.125 4.0938c0.53425 0 1.0316-0.09607 1.5-0.28125 1.2861 2.1833 3.6578 3.625 6.375 3.625 0.87777 0 1.7188-0.15691 2.5-0.4375 2.0858 2.4103 5.156 3.9375 8.5938 3.9375 3.5742 0 6.7584-1.6406 8.8438-4.2188 1.215 1.3833 2.9829 2.2812 4.9688 2.2812 1.5447 0 2.9666-0.55175 4.0938-1.4375 1.0575 0.54918 2.2573 0.875 3.5312 0.875 1.5489 0 2.9813-0.46094 4.1875-1.25 0.49805 0.25713 1.0571 0.40625 1.6562 0.40625 1.7433 0 3.213-1.236 3.5625-2.875 0.23611 1.5401 1.5501 2.7188 3.1562 2.7188 1.7729 0 3.2188-1.4146 3.2188-3.1875 0-1.6151-1.1974-2.9623-2.75-3.1875 0.0458-0.25866 0.0937-0.54069 0.0937-0.8125 0-2.5052-2.026-4.5312-4.5312-4.5312-0.84008 0-1.6378 0.25822-2.3125 0.65625-0.22398-0.31986-0.44981-0.65593-0.71875-0.9375 0.10594-0.25048 0.15625-0.52343 0.15625-0.8125 0-1.1563-0.93749-2.0938-2.0938-2.0938-0.0932 0-0.1913 0.01945-0.28125 0.03125-0.0172-1.7967-1.4805-3.25-3.2812-3.25-0.47744 0-0.93457 0.09784-1.3438 0.28125-1.4251-2.523-3.8275-4.4148-6.6875-5.1875-0.40134-1.5259-1.7544-2.6562-3.4062-2.6562z"/>
      <path id="path3671" style="opacity:.8;color:#000000;fill:url(#linearGradient3926)" d="m10.661 61.763c3.0264 0.30734 5.375 2.8925 5.375 6 0 0.50225-0.07128 0.97124-0.1875 1.4375 1.3556-0.82923 2.9508-1.3125 4.6562-1.3125 0.69713 0 1.3801 0.09893 2.0312 0.25 0.47506-1.3625 1.7568-2.3438 3.2812-2.3438 1.9271 0 3.4688 1.5729 3.4688 3.5 0 0.92305-0.35225 1.751-0.9375 2.375 0.19649-0.02238 0.39127 0 0.59375 0 2.8907 0 5.25 2.3281 5.25 5.2188s-2.3593 5.25-5.25 5.25c-0.40398 0-0.77855-0.06962-1.1562-0.15625-1.0117 1.427-2.4356 2.5193-4.0938 3.1562 0.0042 0.11543 0.03125 0.2273 0.03125 0.34375 0 5.2417-4.2583 9.4688-9.5 9.4688-1.5304 0-2.9698-0.3566-4.25-1-2.6246 1.7834-5.8064 2.8438-9.2188 2.8438-6.8387 0-12.693-4.2051-15.156-10.156-4.7852-0.59661-8.5-4.647-8.5-9.5938 0-5.3573 4.3302-9.7188 9.6875-9.7188 1.1595 0 2.2818 0.22061 3.3125 0.59375 0.85422-0.73119 1.7894-1.3932 2.7812-1.9375-0.0827-0.23333-0.15625-0.48833-0.15625-0.75 0-1.2333 1.0166-2.2188 2.25-2.2188 0.94828 0 1.7699 0.57244 2.0938 1.4062 1.0568-0.24278 2.1573-0.40621 3.2813-0.4375 0.31043-1.2856 1.4628-2.2188 2.8438-2.2188 1.1744 0 2.1886 0.6901 2.6562 1.6875 1.0788-1.0542 2.5545-1.6875 4.1875-1.6875 0.20716 0 0.42324-0.02049 0.625 0z"/>
      <path id="path3713" style="opacity:.8;color:#000000;fill:url(#linearGradient3235-18)" d="m7.6562 74.656c3.5005 0 6.464 2.1862 7.625 5.2812 2.9227 0.05208 5.2812 2.4399 5.2812 5.375 0 2.9677-2.4073 5.375-5.375 5.375-1.1753 0-2.2405-0.3911-3.125-1.0312-1.2736 0.82112-2.7782 1.3125-4.4062 1.3125-0.41217 0-0.82299-0.03481-1.2188-0.09375-0.4608 0.55836-1.157 0.9375-1.9375 0.9375-1.11 0-2.0426-0.72039-2.375-1.7188-0.573 0.1721-1.1834 0.28125-1.8125 0.28125-3.4688 0-6.2812-2.8125-6.2812-6.2812 0-2.9051 1.9776-5.3448 4.6562-6.0625-0.02473-0.15323-0.0625-0.30854-0.0625-0.46875 0-1.6188 1.3187-2.9062 2.9375-2.9062 0.86619 0 1.6509 0.37137 2.1875 0.96875 1.1569-0.62848 2.4971-0.96875 3.9062-0.96875z"/>
     </g>
     <path id="rect4183" style="opacity:.6;fill:#3365a8" d="m16.438 16c-0.03654 0.0073-0.06024 0.01707-0.09375 0.03125-0.07367 0.02998-0.13462 0.06872-0.1875 0.125-0.09518 0.1013-0.15946 0.22767-0.15625 0.375v62.906 0.03125c0.0019 0.05425 0.01433 0.10669 0.03125 0.15625 0.01558 0.04455 0.03654 0.08657 0.0625 0.125 0.01089 0.01749 0.01848 0.04637 0.03125 0.0625 0.0088 0.01017 0.02176 0.02176 0.03125 0.03125 0.05288 0.05628 0.11383 0.09502 0.1875 0.125 0.02947 0.01199 0.06172 0.02443 0.09375 0.03125 0.03461 0.0069 0.05711-0.000004 0.09375 0h16.062 3.8125 1.6562 27.969 13.438c0.07531-0.000007 0.12225-0.0036 0.1875-0.03125 0.19576-0.08281 0.34373-0.27407 0.34375-0.5 0.000591-0.0104-0.000001-0.02071 0-0.03125v-62.906c-0.000007-0.07531-0.0036-0.12225-0.03125-0.1875-0.08281-0.19576-0.27407-0.34373-0.5-0.34375h-13.438-27.969-1.6562-3.8125-16.062c-0.03777-0.004-0.05597-0.004-0.09375 0zm0.65625 1.0938h14.688 4.1562 1.125 30.75 11.094v61.812h-11.094-30.75-1.125-4.1562-14.688v-61.812z"/>
     <text id="text4150" style="font-size:48.752px;letter-spacing:0px;word-spacing:0px;font-family:Ubuntu;line-height:125%;fill:url(#linearGradient4184)" xml:space="preserve" transform="scale(1.0006 .99942)" y="61.580971" x="24.717358"><tspan id="tspan4152" y="61.580971" x="24.717358" style="fill:url(#linearGradient4184)">@</tspan></text>
    </g>
    <rect id="rect3171" style="opacity:.1;filter:url(#filter3794-38);stroke:#fff;stroke-linecap:round;stroke-width:.5;fill:url(#linearGradient3206-4)" clip-path="url(#clipPath3613-64)" rx="12" ry="12" height="66" width="66" y="15" x="15"/>
   </g>
  </g>
 </g>
</svg>
