<?xml version="1.0" encoding="UTF-8" standalone="no"?>
<!-- Created with Inkscape (http://www.inkscape.org/) -->
<svg id="svg2" xmlns:rdf="http://www.w3.org/1999/02/22-rdf-syntax-ns#" xmlns="http://www.w3.org/2000/svg" height="96" width="96" version="1.1" xmlns:cc="http://creativecommons.org/ns#" xmlns:xlink="http://www.w3.org/1999/xlink" xmlns:dc="http://purl.org/dc/elements/1.1/">
 <defs id="defs4">
  <filter id="filter6279" color-interpolation-filters="sRGB">
   <feGaussianBlur id="feGaussianBlur6281" stdDeviation="0.8"/>
  </filter>
  <linearGradient id="linearGradient6807" y2="902.36" gradientUnits="userSpaceOnUse" x2="48" gradientTransform="translate(0 -.000034766)" y1="1052.4" x1="48">
   <stop id="stop3827-2" style="stop-color:#333" offset="0"/>
   <stop id="stop3829-5" style="stop-color:#494949" offset="1"/>
  </linearGradient>
  <clipPath id="clipPath4095">
   <rect id="rect4097" style="fill:#f0f" rx="6.7488" ry="6.7488" height="94.483" width="94.483" y="8.4115" x="1.4663"/>
  </clipPath>
  <linearGradient id="linearGradient6810" y2="24.147" xlink:href="#linearGradient4321" gradientUnits="userSpaceOnUse" x2="97.732" gradientTransform="matrix(1.0777,0,0,1.0777,-5.3853,-3.7078)" y1="24.147" x1="48.917"/>
  <linearGradient id="linearGradient4321">
   <stop id="stop4323" style="stop-color:#848484" offset="0"/>
   <stop id="stop4325-5" style="stop-color:#454545" offset="1"/>
  </linearGradient>
  <linearGradient id="linearGradient6812" y2="24.147" xlink:href="#linearGradient4321" gradientUnits="userSpaceOnUse" x2="97.732" gradientTransform="matrix(.76208 .76208 -.76208 .76208 48.272 -29.567)" y1="24.147" x1="48.917"/>
  <linearGradient id="linearGradient6814" y2="23.509" xlink:href="#linearGradient4341" gradientUnits="userSpaceOnUse" x2="53.392" gradientTransform="matrix(.76208 .76208 -.76208 .76208 48.272 -29.567)" y1="22.625" x1="56.27"/>
  <linearGradient id="linearGradient4341">
   <stop id="stop4343" offset="0"/>
   <stop id="stop4345-9" style="stop-opacity:0" offset="1"/>
  </linearGradient>
  <linearGradient id="linearGradient6816" y2="24.147" xlink:href="#linearGradient4321" gradientUnits="userSpaceOnUse" x2="97.732" gradientTransform="matrix(0,1.0777,-1.0777,0,101.32,-7.344)" y1="24.147" x1="48.917"/>
  <linearGradient id="linearGradient6818" y2="23.509" xlink:href="#linearGradient4341" gradientUnits="userSpaceOnUse" x2="53.392" gradientTransform="matrix(0,1.0777,-1.0777,0,101.32,-7.344)" y1="22.625" x1="56.27"/>
  <linearGradient id="linearGradient6820" y2="24.147" xlink:href="#linearGradient4321" gradientUnits="userSpaceOnUse" x2="97.732" gradientTransform="matrix(-.76208 .76208 -.76208 -.76208 123.3 45.941)" y1="24.147" x1="48.917"/>
  <linearGradient id="linearGradient6822" y2="23.509" xlink:href="#linearGradient4341" gradientUnits="userSpaceOnUse" x2="53.392" gradientTransform="matrix(-.76208 .76208 -.76208 -.76208 123.3 45.941)" y1="22.625" x1="56.27"/>
  <linearGradient id="linearGradient6824" y2="24.147" xlink:href="#linearGradient4321" gradientUnits="userSpaceOnUse" x2="97.732" gradientTransform="matrix(-1.0777,0,0,-1.0777,102.59,101.76)" y1="24.147" x1="48.917"/>
  <linearGradient id="linearGradient6826" y2="23.509" xlink:href="#linearGradient4341" gradientUnits="userSpaceOnUse" x2="53.392" gradientTransform="matrix(-1.0777,0,0,-1.0777,102.59,101.76)" y1="22.625" x1="56.27"/>
  <linearGradient id="linearGradient6828" y2="24.147" xlink:href="#linearGradient4321" gradientUnits="userSpaceOnUse" x2="97.732" gradientTransform="matrix(-.76208 -.76208 .76208 -.76208 48.297 122.99)" y1="24.147" x1="48.917"/>
  <linearGradient id="linearGradient6830" y2="23.509" xlink:href="#linearGradient4341" gradientUnits="userSpaceOnUse" x2="53.392" gradientTransform="matrix(-.76208 -.76208 .76208 -.76208 48.297 122.99)" y1="22.625" x1="56.27"/>
  <linearGradient id="linearGradient6832" y2="24.147" xlink:href="#linearGradient4321" gradientUnits="userSpaceOnUse" x2="97.732" gradientTransform="matrix(0,-1.0777,1.0777,0,-6.7689,100.51)" y1="24.147" x1="48.917"/>
  <linearGradient id="linearGradient6834" y2="23.509" xlink:href="#linearGradient4341" gradientUnits="userSpaceOnUse" x2="53.392" gradientTransform="matrix(0,-1.0777,1.0777,0,-6.7689,100.51)" y1="22.625" x1="56.27"/>
  <linearGradient id="linearGradient6836" y2="24.147" xlink:href="#linearGradient4321" gradientUnits="userSpaceOnUse" x2="97.732" gradientTransform="matrix(.76208 -.76208 .76208 .76208 -27.993 47.228)" y1="24.147" x1="48.917"/>
  <linearGradient id="linearGradient6838" y2="23.509" xlink:href="#linearGradient4341" gradientUnits="userSpaceOnUse" x2="53.392" gradientTransform="matrix(.76208 -.76208 .76208 .76208 -27.993 47.228)" y1="22.625" x1="56.27"/>
  <linearGradient id="linearGradient6840" y2="23.509" xlink:href="#linearGradient4341" gradientUnits="userSpaceOnUse" x2="53.392" gradientTransform="matrix(1.0777,0,0,1.0777,-5.3853,-3.7078)" y1="22.625" x1="56.27"/>
  <linearGradient id="linearGradient6845" y2="48" gradientUnits="userSpaceOnUse" x2="90" gradientTransform="matrix(.65476 0 0 .65476 -1035.7 16.511)" y1="48" x1="6">
   <stop id="stop3817-8" offset="0"/>
   <stop id="stop3819-8" style="stop-opacity:0" offset="1"/>
  </linearGradient>
  <linearGradient id="linearGradient5690" y2="138.66" gradientUnits="userSpaceOnUse" y1="20.221" x2="48" x1="48">
   <stop id="stop3739-89" style="stop-color:#fff" offset="0"/>
   <stop id="stop3741-02" style="stop-color:#fff;stop-opacity:0" offset="1"/>
  </linearGradient>
  <clipPath id="clipPath3613-47">
   <rect id="rect3615-657" style="fill:#fff" rx="6" ry="6" height="84" width="84" y="6" x="6"/>
  </clipPath>
  <filter id="filter3794-13" width="1.384" y="-.192" x="-.192" height="1.384" color-interpolation-filters="sRGB">
   <feGaussianBlur id="feGaussianBlur3796-33" stdDeviation="5.28"/>
  </filter>
 </defs>
 <metadata id="metadata7">
  <rdf:RDF>
   <cc:Work rdf:about="">
    <dc:format>image/svg+xml</dc:format>
    <dc:type rdf:resource="http://purl.org/dc/dcmitype/StillImage"/>
    <dc:title/>
   </cc:Work>
  </rdf:RDF>
 </metadata>
 <g id="layer1" transform="translate(0 -956.36)">
  <g id="g6961" transform="translate(0,-1e-5)">
   <g id="g6902">
    <rect id="rect9283" style="filter:url(#filter6279)" transform="translate(0 -.0000078516)" rx="5" ry="5" height="80" width="80" y="964.36" x="8"/>
    <rect id="rect9285" style="fill:url(#linearGradient6807)" rx="5" ry="5" height="80" width="80" y="964.36" x="8"/>
    <g id="g6873">
     <path id="path2955" style="fill:#333" d="m63.728 999.51a15.56 15.56 0 0 1 -31.121 0 15.56 15.56 0 1 1 31.121 0z"/>
     <g id="g4592" clip-path="url(#clipPath4095)" transform="matrix(.58212 0 0 .58212 19.586 971.89)">
      <path id="path4319" style="fill:url(#linearGradient6810);fill-rule:evenodd" d="m63.746 52.942-18.232-65.8 54.43 4.549v60.162l-36.199 1.0887z"/>
      <path id="path4329" style="opacity:.2;fill:#fff;fill-rule:evenodd" d="m45.879-13.705 17.879 66.646 1.5326-0.64021-17.879-66.612-1.5326 0.60653z"/>
      <path id="path4424" style="fill:url(#linearGradient6812);fill-rule:evenodd" d="m57.098 59.374 31.706-54.916 37.206 37.202-42.545 42.541-26.367-24.827z"/>
      <path id="path4426" style="opacity:.2;fill:#fff;fill-rule:evenodd" d="m88.806 4.4407-31.698 54.941 1.695 0.538 31.674-54.917-1.671-0.5623z"/>
      <path id="path4428" style="opacity:.6;fill:url(#linearGradient6814);fill-rule:evenodd" d="m85.302 1.0891-31.243 55.245 3.1198 2.9292 31.626-54.822-3.5032-3.3516z"/>
      <path id="path4436" style="fill:url(#linearGradient6816);fill-rule:evenodd" d="m44.668 61.788 61.252-16.412v52.611h-60.162l-1.089-36.199z"/>
      <path id="path4438" style="opacity:.2;fill:#fff;fill-rule:evenodd" d="m105.93 45.364-61.263 16.436l0.03368 1.8359 61.229-16.436v-1.836z"/>
      <path id="path4440" style="opacity:.6;fill:url(#linearGradient6818);fill-rule:evenodd" d="m105.93 41.054-61.263 16.436 0.13472 4.2773 61.128-16.402v-4.311z"/>
      <path id="path4448" style="fill:url(#linearGradient6820);fill-rule:evenodd" d="m34.359 54.767 54.916 31.705-37.202 37.198-42.54-42.537 24.826-26.366z"/>
      <path id="path4450" style="opacity:.2;fill:#fff;fill-rule:evenodd" d="m89.292 86.474-54.941-31.698-1.0976 1.3924 54.917 31.674 1.1214-1.3686z"/>
      <path id="path4452" style="opacity:.6;fill:url(#linearGradient6822);fill-rule:evenodd" d="m92.341 83.426-54.942-31.698-2.9292 3.1198 54.822 31.626 3.0483-3.0483z"/>
      <path id="path4460" style="fill:url(#linearGradient6824);fill-rule:evenodd" d="m33.461 45.115 16.412 61.251h-52.611v-60.166l36.199-1.0887z"/>
      <path id="path4462" style="opacity:.2;fill:#fff;fill-rule:evenodd" d="m49.884 106.38-16.436-61.263-1.6843 0.48858 16.436 61.229 1.6843-0.4549z"/>
      <path id="path4464" style="opacity:.6;fill:url(#linearGradient6826);fill-rule:evenodd" d="m54.195 106.38-16.436-61.263-4.2773 0.13472 16.402 61.128h4.311z"/>
      <path id="path4472" style="fill:url(#linearGradient6828);fill-rule:evenodd" d="m39.472 34.048-31.706 54.916-37.202-37.202 42.541-42.541 26.367 24.827z"/>
      <path id="path4474" style="opacity:.2;fill:#fff;fill-rule:evenodd" d="m7.7642 88.981 31.698-54.941-1.392-1.193-31.674 54.917 1.3684 1.217z"/>
      <path id="path4476" style="opacity:.6;fill:url(#linearGradient6830);fill-rule:evenodd" d="m10.813 92.029 31.697-54.941-3.119-2.929-31.627 54.822l3.049 3.048z"/>
      <path id="path4484" style="fill:url(#linearGradient6832);fill-rule:evenodd" d="m-11.375-4.8125v52.594l61.25-16.406-1.0312-34.094-0.5625-2.0938h-59.656z"/>
      <path id="path4486" style="opacity:.2;fill:#fff;fill-rule:evenodd" d="m-11.383 47.805 61.263-16.436-0.48858-1.6843-61.229 16.436 0.4549 1.6843z"/>
      <path id="path4488" style="opacity:.6;fill:url(#linearGradient6834);fill-rule:evenodd" d="m-11.383 52.116 61.263-16.436l-0.13472-4.2773-61.128 16.402v4.311z"/>
      <path id="path4496" style="fill:url(#linearGradient6836);fill-rule:evenodd" d="m43.219-30.5-37.188 37.188 53.625 30.969-13.277-49.293h18.094l-21.254-18.864z"/>
      <path id="path4498" style="opacity:.2;fill:#fff;fill-rule:evenodd" d="m6.6532 5.1793-0.6532 1.5082l53.656 30.968-0.503-2.227-52.5-30.25z"/>
      <path id="path4500" style="opacity:.6;fill:url(#linearGradient6838);fill-rule:evenodd" d="m6 6.6875-3.0312 3.0625 54.937 31.688 2.156-2.282-0.406-1.531-53.656-30.938z"/>
      <path id="path4334" style="opacity:.6;fill:url(#linearGradient6840);fill-rule:evenodd" d="m41.635-13.544 17.803 66.482 1.4062-0.03125 1.9688-3.4375-16.865-63.013h-4.3125z"/>
     </g>
     <rect id="rect3813" style="opacity:.4;color:#000000;fill:url(#linearGradient6845)" transform="rotate(-90)" rx="3.9286" ry="3.9286" height="55" width="55" y="20.44" x="-1031.8"/>
    </g>
   </g>
   <g id="layer5" transform="translate(0 956.36)">
    <rect id="rect3171" style="opacity:.1;filter:url(#filter3794-13);stroke:#fff;stroke-linecap:round;stroke-width:.5;fill:url(#linearGradient5690)" clip-path="url(#clipPath3613-47)" rx="12" ry="12" height="66" width="66" y="15" x="15"/>
   </g>
  </g>
 </g>
</svg>
