<?xml version="1.0" encoding="UTF-8" standalone="no"?>
<!-- Created with Inkscape (http://www.inkscape.org/) -->

<svg
   xmlns:dc="http://purl.org/dc/elements/1.1/"
   xmlns:cc="http://creativecommons.org/ns#"
   xmlns:rdf="http://www.w3.org/1999/02/22-rdf-syntax-ns#"
   xmlns:svg="http://www.w3.org/2000/svg"
   xmlns="http://www.w3.org/2000/svg"
   xmlns:xlink="http://www.w3.org/1999/xlink"
   xmlns:sodipodi="http://sodipodi.sourceforge.net/DTD/sodipodi-0.dtd"
   xmlns:inkscape="http://www.inkscape.org/namespaces/inkscape"
   width="96"
   height="96"
   id="svg2"
   version="1.1"
   inkscape:version="0.48.1 r9760"
   sodipodi:docname="filezilla.svg">
  <defs
     id="defs4">
    <filter
       color-interpolation-filters="sRGB"
       inkscape:collect="always"
       id="filter6279">
      <feGaussianBlur
         inkscape:collect="always"
         stdDeviation="0.8"
         id="feGaussianBlur6281" />
    </filter>
    <linearGradient
       inkscape:collect="always"
       xlink:href="#linearGradient3441-5"
       id="linearGradient5801"
       gradientUnits="userSpaceOnUse"
       gradientTransform="translate(0,-7.8515622e-6)"
       x1="48"
       y1="1052.3622"
       x2="48"
       y2="902.36218" />
    <linearGradient
       id="linearGradient3441-5"
       y2="5.9877"
       gradientUnits="userSpaceOnUse"
       x2="48"
       y1="90"
       x1="48">
      <stop
         id="stop3189-9"
         style="stop-color:#a00000"
         offset="0" />
      <stop
         id="stop3191-7"
         style="stop-color:#ff0505"
         offset="1" />
    </linearGradient>
    <linearGradient
       y2="138.66"
       x2="48"
       y1="20.221001"
       x1="48"
       gradientUnits="userSpaceOnUse"
       id="linearGradient3157-6"
       xlink:href="#linearGradient2885-6"
       inkscape:collect="always" />
    <linearGradient
       id="linearGradient2885-6"
       y2="138.66"
       gradientUnits="userSpaceOnUse"
       x2="48"
       y1="20.221001"
       x1="48">
      <stop
         id="stop3739-3-0"
         style="stop-color:#fdff98"
         offset="0" />
      <stop
         id="stop3741-0-6"
         style="stop-color:#fff;stop-opacity:0"
         offset="1" />
    </linearGradient>
    <clipPath
       id="clipPath2880-4">
      <path
         inkscape:connector-curvature="0"
         id="path2882-0"
         style="fill:#ffffff"
         d="M 12,6 C 8.8423,6 6.2808,8.4087 6.0312,11.5 8.5007,11.517 10.5,13.527 10.5,16 c 0,2.484 -2.016,4.5 -4.5,4.5 v 7 c 2.484,0 4.5,2.016 4.5,4.5 0,2.484 -2.016,4.5 -4.5,4.5 v 7 c 2.484,0 4.5,2.016 4.5,4.5 0,2.484 -2.016,4.5 -4.5,4.5 v 7 c 2.484,0 4.5,2.016 4.5,4.5 0,2.484 -2.016,4.5 -4.5,4.5 v 7 c 2.484,-4e-6 4.5,2.016 4.5,4.5 0,2.4734 -1.9993,4.4829 -4.4688,4.5 C 6.2808,87.591 8.8423,90 12,90 c 0,-2.484 2.016,-4.5 4.5,-4.5 2.484,0 4.5,2.016 4.5,4.5 h 7 c 0,-2.484 2.016,-4.5 4.5,-4.5 2.484,0 4.5,2.016 4.5,4.5 h 7 c 0,-2.484 2.016,-4.5 4.5,-4.5 2.484,0 4.5,2.016 4.5,4.5 h 7 c 0,-2.484 2.016,-4.5 4.5,-4.5 2.484,0 4.5,2.016 4.5,4.5 h 7 c -4e-6,-2.484 2.016,-4.5 4.5,-4.5 2.4522,0 4.4493,1.9661 4.5,4.4062 2.689,-0.445 4.746,-2.647 4.969,-5.406 -2.47,-0.017 -4.469,-2.027 -4.469,-4.5 0,-2.484 2.016,-4.5 4.5,-4.5 v -7 c -2.484,10e-7 -4.5,-2.016 -4.5,-4.5 0,-2.484 2.016,-4.5 4.5,-4.5 v -7 c -2.484,10e-7 -4.5,-2.016 -4.5,-4.5 0,-2.484 2.016,-4.5 4.5,-4.5 v -7 c -2.484,10e-7 -4.5,-2.016 -4.5,-4.5 0,-2.484 2.016,-4.5 4.5,-4.5 v -7 c -2.484,1e-6 -4.5,-2.016 -4.5,-4.5 0,-2.4734 1.9993,-4.4829 4.4688,-4.5 -0.223,-2.7593 -2.28,-4.9611 -4.969,-5.4062 -0.051,2.4401 -2.048,4.4062 -4.5,4.4062 -2.484,0 -4.5,-2.016 -4.5,-4.5 h -7 c 1e-6,2.484 -2.016,4.5 -4.5,4.5 -2.484,0 -4.5,-2.016 -4.5,-4.5 h -7 c 10e-7,2.484 -2.016,4.5 -4.5,4.5 -2.484,0 -4.5,-2.016 -4.5,-4.5 h -7 c 10e-7,2.484 -2.016,4.5 -4.5,4.5 -2.484,0 -4.5,-2.016 -4.5,-4.5 h -7 c 1e-6,2.484 -2.016,4.5 -4.5,4.5 -2.484,0 -4.5,-2.016 -4.5,-4.5 z" />
    </clipPath>
    <filter
       id="filter3794-94"
       height="1.3839999"
       width="1.3839999"
       color-interpolation-filters="sRGB"
       y="-0.192"
       x="-0.192">
      <feGaussianBlur
         id="feGaussianBlur3796-546"
         stdDeviation="5.28" />
    </filter>
  </defs>
  <sodipodi:namedview
     id="base"
     pagecolor="#ffffff"
     bordercolor="#666666"
     borderopacity="1.0"
     inkscape:pageopacity="0.0"
     inkscape:pageshadow="2"
     inkscape:zoom="3.959798"
     inkscape:cx="28.389459"
     inkscape:cy="57.490015"
     inkscape:document-units="px"
     inkscape:current-layer="layer1"
     showgrid="false"
     inkscape:window-width="1280"
     inkscape:window-height="725"
     inkscape:window-x="0"
     inkscape:window-y="25"
     inkscape:window-maximized="1" />
  <metadata
     id="metadata7">
    <rdf:RDF>
      <cc:Work
         rdf:about="">
        <dc:format>image/svg+xml</dc:format>
        <dc:type
           rdf:resource="http://purl.org/dc/dcmitype/StillImage" />
        <dc:title></dc:title>
      </cc:Work>
    </rdf:RDF>
  </metadata>
  <g
     inkscape:label="Layer 1"
     inkscape:groupmode="layer"
     id="layer1"
     transform="translate(0,-956.36217)">
    <g
       transform="translate(0,-1e-5)"
       id="g6595">
      <rect
         transform="translate(0,-7.8515622e-6)"
         y="964.36218"
         x="8"
         height="80"
         width="80"
         id="rect9283"
         style="fill:#000000;fill-opacity:1;stroke:none;filter:url(#filter6279)"
         rx="5"
         ry="5" />
      <rect
         ry="5"
         rx="5"
         style="fill:url(#linearGradient5801);fill-opacity:1;stroke:none"
         id="rect9285"
         width="80"
         height="80"
         x="8"
         y="964.36218" />
      <path
         inkscape:connector-curvature="0"
         id="path3307"
         style="fill:#ffffff"
         d="M 32.559545,978.66497 22.02,1025.0141 h 8.563644 l 4.974573,-20.7414 h 23.376784 l -21.892179,19.4271 5.707023,6.5144 2.923198,-1.4932 c 5.527952,-2.8176 7.846403,-1.1701 12.040411,-0.017 4.080176,1.1225 7.915852,2.3239 15.874365,-2.2235 l -1.580262,-8.0266 c -8.685032,6.1215 -11.432986,0.6599 -17.618202,0.443 L 72.098432,1004.042 74.02,996.11175 H 36.924015 l 2.387898,-9.51748 h 24.314228 l 1.667406,-7.93011 H 32.559545 z" />
      <g
         id="layer4"
         transform="translate(0,956.36218)">
        <rect
           x="15"
           y="15"
           width="66"
           height="66"
           ry="12"
           rx="12"
           clip-path="url(#clipPath2880-4)"
           style="opacity:0.15;fill:url(#linearGradient3157-6);stroke:#ffffff;stroke-width:0.5;stroke-linecap:round;filter:url(#filter3794-94)"
           id="rect3171" />
      </g>
    </g>
  </g>
</svg>
