<?xml version="1.0" encoding="UTF-8" standalone="no"?>
<!-- Created with Inkscape (http://www.inkscape.org/) -->

<svg
   xmlns:dc="http://purl.org/dc/elements/1.1/"
   xmlns:cc="http://creativecommons.org/ns#"
   xmlns:rdf="http://www.w3.org/1999/02/22-rdf-syntax-ns#"
   xmlns:svg="http://www.w3.org/2000/svg"
   xmlns="http://www.w3.org/2000/svg"
   xmlns:xlink="http://www.w3.org/1999/xlink"
   xmlns:sodipodi="http://sodipodi.sourceforge.net/DTD/sodipodi-0.dtd"
   xmlns:inkscape="http://www.inkscape.org/namespaces/inkscape"
   width="96"
   height="96"
   id="svg2"
   version="1.1"
   inkscape:version="0.48.1 r9760"
   sodipodi:docname="flash.svg">
  <defs
     id="defs4">
    <filter
       color-interpolation-filters="sRGB"
       inkscape:collect="always"
       id="filter6221">
      <feGaussianBlur
         inkscape:collect="always"
         stdDeviation="1.2"
         id="feGaussianBlur6223" />
    </filter>
    <linearGradient
       inkscape:collect="always"
       xlink:href="#linearGradient3688-3"
       id="linearGradient5391"
       gradientUnits="userSpaceOnUse"
       gradientTransform="matrix(0.95238095,0,0,0.95238095,2.2857041,958.6479)"
       x1="48"
       y1="90"
       x2="47.998997"
       y2="-59.097267" />
    <linearGradient
       id="linearGradient3688-3">
      <stop
         id="stop3690-3-7"
         style="stop-color:#b30707;stop-opacity:1"
         offset="0" />
      <stop
         id="stop3692-40"
         style="stop-color:#e42c0d;stop-opacity:1"
         offset="1" />
    </linearGradient>
    <linearGradient
       inkscape:collect="always"
       xlink:href="#linearGradient3694-8"
       id="linearGradient5409"
       gradientUnits="userSpaceOnUse"
       gradientTransform="matrix(0.72904901,0,0,0.75582176,10.195226,969.6096)"
       x1="62.336792"
       y1="79.015236"
       x2="62.336792"
       y2="12.797539" />
    <linearGradient
       id="linearGradient3694-8">
      <stop
         id="stop3696-5"
         style="stop-color:#e6e6e6;stop-opacity:1"
         offset="0" />
      <stop
         id="stop3698-23"
         style="stop-color:#f5f5f5;stop-opacity:1"
         offset="1" />
    </linearGradient>
    <linearGradient
       inkscape:collect="always"
       xlink:href="#linearGradient3825"
       id="linearGradient5443"
       gradientUnits="userSpaceOnUse"
       gradientTransform="matrix(0.83333333,0,0,0.83333333,8.0000001,964.36941)"
       x1="55"
       y1="18"
       x2="55"
       y2="112" />
    <linearGradient
       id="linearGradient3825">
      <stop
         id="stop3827-5"
         style="stop-color:#501616;stop-opacity:1"
         offset="0" />
      <stop
         id="stop3829-1"
         style="stop-color:#501616;stop-opacity:0"
         offset="1" />
    </linearGradient>
    <linearGradient
       inkscape:collect="always"
       xlink:href="#linearGradient3737-62"
       id="linearGradient5441"
       gradientUnits="userSpaceOnUse"
       x1="48"
       y1="20.220806"
       x2="48"
       y2="138.66119" />
    <linearGradient
       id="linearGradient3737-62">
      <stop
         id="stop3739-17"
         style="stop-color:#ffffff;stop-opacity:1"
         offset="0" />
      <stop
         id="stop3741-85"
         style="stop-color:#ffffff;stop-opacity:0"
         offset="1" />
    </linearGradient>
    <clipPath
       id="clipPath3613-7">
      <rect
         width="84"
         height="84"
         rx="6"
         ry="6"
         x="6"
         y="6"
         id="rect3615-4"
         style="fill:#ffffff;fill-opacity:1;fill-rule:nonzero;stroke:none" />
    </clipPath>
    <filter
       x="-0.192"
       y="-0.192"
       width="1.3839999"
       height="1.3839999"
       color-interpolation-filters="sRGB"
       id="filter3794-18">
      <feGaussianBlur
         id="feGaussianBlur3796-5"
         stdDeviation="5.28" />
    </filter>
    <linearGradient
       y2="138.66119"
       x2="48"
       y1="20.220806"
       x1="48"
       gradientUnits="userSpaceOnUse"
       id="linearGradient5428"
       xlink:href="#linearGradient3737-62"
       inkscape:collect="always" />
  </defs>
  <sodipodi:namedview
     id="base"
     pagecolor="#ffffff"
     bordercolor="#666666"
     borderopacity="1.0"
     inkscape:pageopacity="0.0"
     inkscape:pageshadow="2"
     inkscape:zoom="3.959798"
     inkscape:cx="28.389459"
     inkscape:cy="57.490015"
     inkscape:document-units="px"
     inkscape:current-layer="layer1"
     showgrid="false"
     inkscape:window-width="1280"
     inkscape:window-height="725"
     inkscape:window-x="0"
     inkscape:window-y="25"
     inkscape:window-maximized="1" />
  <metadata
     id="metadata7">
    <rdf:RDF>
      <cc:Work
         rdf:about="">
        <dc:format>image/svg+xml</dc:format>
        <dc:type
           rdf:resource="http://purl.org/dc/dcmitype/StillImage" />
        <dc:title></dc:title>
      </cc:Work>
    </rdf:RDF>
  </metadata>
  <g
     inkscape:label="Layer 1"
     inkscape:groupmode="layer"
     id="layer1"
     transform="translate(0,-956.36217)">
    <g
       transform="translate(-1.0754402e-8,-1.0135559e-5)"
       id="g5462">
      <g
         style="display:inline"
         id="layer5"
         transform="translate(126.5,968.36218)" />
      <rect
         transform="translate(-1.7480468e-7,-5.2343748e-6)"
         y="964.54077"
         x="8"
         height="80"
         width="80"
         id="rect10662"
         style="fill:#000000;fill-opacity:1;stroke:none;filter:url(#filter6221)"
         rx="5"
         ry="5" />
      <rect
         width="80"
         height="80"
         rx="5"
         ry="5"
         x="8"
         y="964.36218"
         id="rect2419"
         style="fill:url(#linearGradient5391);fill-opacity:1;fill-rule:nonzero;stroke:none" />
      <g
         transform="matrix(0.6691358,0,0,0.6691358,112.60404,448.47083)"
         id="g20803" />
      <path
         d="m 67.893,979.34749 0,10.05842 c -10.042554,0.17646 -12.510638,9.97018 -12.510638,9.97018 l 7.574468,0 0,10.05841 -11.744681,0 C 44.148321,1031.2277 27.893,1029.2867 27.893,1029.2867 l 0,-10.0585 c 0,0 10.315007,1.9135 15.57447,-17.2934 C 50.046576,977.9087 67.893,979.34749 67.893,979.34749 z"
         inkscape:connector-curvature="0"
         id="path3727"
         style="fill:url(#linearGradient5409);fill-opacity:1;stroke:none" />
      <path
         d="m 67.21875,979.36941 c -3.505866,0.0531 -17.889116,1.58131 -23.645833,22.60419 C 38.313454,1021.1805 28,1019.2653 28,1019.2653 l 0,10.052 c 0,0 16.243463,1.9495 23.307292,-19.8437 l 11.744791,0 0,-10.05211 -7.552083,0 c 0,0 2.457446,-9.79749 12.5,-9.97396 l 0,-10.05208 c 0,0 -0.280412,-0.0336 -0.78125,-0.026 z m -0.05208,0.88542 0,8.46354 c -4.79721,0.35153 -7.97794,2.82014 -9.84375,5.28646 -1.975738,2.61162 -2.630209,5.20833 -2.630209,5.20833 a 0.8273187,0.8273187 0 0 0 0.807292,1.04164 l 6.71875,0 0,8.3855 -10.911458,0 a 0.8273187,0.8273187 0 0 0 -0.78125,0.5729 c -3.472338,10.7128 -9.10644,15.4561 -13.854167,17.6041 -4.055426,1.8349 -6.940024,1.7269 -7.838542,1.6667 l 0,-8.3854 c 0.340375,0.018 0.396829,0.065 0.963542,0 1.148948,-0.132 2.700308,-0.5368 4.427083,-1.5625 3.453549,-2.0514 7.488291,-6.6111 10.15625,-16.3542 3.238109,-11.82518 9.154025,-17.22112 14.244792,-19.76562 4.388195,-2.19333 7.592842,-2.19142 8.541667,-2.16145 z"
         inkscape:connector-curvature="0"
         id="path2902"
         style="opacity:0.25;fill:url(#linearGradient5443);fill-opacity:1;stroke:none" />
      <rect
         width="66"
         height="66"
         rx="12"
         ry="12"
         x="15"
         y="15"
         clip-path="url(#clipPath3613-7)"
         id="rect3171"
         style="opacity:0.1;fill:url(#linearGradient5428);fill-opacity:1;fill-rule:nonzero;stroke:#ffffff;stroke-width:0.5;stroke-linecap:round;stroke-linejoin:miter;stroke-miterlimit:4;stroke-opacity:1;stroke-dasharray:none;stroke-dashoffset:0;filter:url(#filter3794-18)"
         transform="translate(0,956.36218)" />
    </g>
  </g>
</svg>
