<?xml version="1.0" encoding="UTF-8" standalone="no"?>
<!-- Created with Inkscape (http://www.inkscape.org/) -->

<svg
   xmlns:dc="http://purl.org/dc/elements/1.1/"
   xmlns:cc="http://creativecommons.org/ns#"
   xmlns:rdf="http://www.w3.org/1999/02/22-rdf-syntax-ns#"
   xmlns:svg="http://www.w3.org/2000/svg"
   xmlns="http://www.w3.org/2000/svg"
   xmlns:xlink="http://www.w3.org/1999/xlink"
   xmlns:sodipodi="http://sodipodi.sourceforge.net/DTD/sodipodi-0.dtd"
   xmlns:inkscape="http://www.inkscape.org/namespaces/inkscape"
   width="96"
   height="96"
   id="svg2"
   version="1.1"
   inkscape:version="0.48.1 r9760"
   sodipodi:docname="flegita.svg">
  <defs
     id="defs4">
    <filter
       color-interpolation-filters="sRGB"
       inkscape:collect="always"
       id="filter6279">
      <feGaussianBlur
         inkscape:collect="always"
         stdDeviation="0.8"
         id="feGaussianBlur6281" />
    </filter>
    <linearGradient
       inkscape:collect="always"
       xlink:href="#linearGradient3617-24"
       id="linearGradient10902-1"
       gradientUnits="userSpaceOnUse"
       gradientTransform="translate(0,-9.6171873e-6)"
       x1="48"
       y1="1052.3622"
       x2="48"
       y2="902.36218" />
    <linearGradient
       id="linearGradient3617-24"
       y2="5.9877"
       gradientUnits="userSpaceOnUse"
       x2="48"
       y1="90"
       x1="48">
      <stop
         id="stop3702-06"
         style="stop-color:#b8b8b8"
         offset="0" />
      <stop
         id="stop3704-29"
         style="stop-color:#d0d0d0"
         offset="1" />
    </linearGradient>
    <linearGradient
       y2="138.66"
       x2="48"
       y1="20.221001"
       x1="48"
       gradientUnits="userSpaceOnUse"
       id="linearGradient3271"
       xlink:href="#linearGradient3613-74"
       inkscape:collect="always" />
    <linearGradient
       id="linearGradient3613-74"
       y2="138.66"
       gradientUnits="userSpaceOnUse"
       x2="48"
       y1="20.221001"
       x1="48">
      <stop
         id="stop3644"
         style="stop-color:#06f9ff"
         offset="0" />
      <stop
         id="stop3646-5"
         style="stop-color:#06f9ff;stop-opacity:0"
         offset="1" />
    </linearGradient>
    <clipPath
       id="clipPath3613-30">
      <rect
         id="rect3615-7"
         style="fill:#ffffff"
         rx="6"
         ry="6"
         height="84"
         width="84"
         y="6"
         x="6" />
    </clipPath>
    <filter
       id="filter3794-29"
       height="1.3839999"
       width="1.3839999"
       color-interpolation-filters="sRGB"
       y="-0.192"
       x="-0.192">
      <feGaussianBlur
         id="feGaussianBlur3796-93"
         stdDeviation="5.28" />
    </filter>
    <linearGradient
       inkscape:collect="always"
       xlink:href="#linearGradient3675"
       id="linearGradient6231"
       gradientUnits="userSpaceOnUse"
       gradientTransform="matrix(0.73344469,0,0,0.73344469,197.39999,1012.8254)"
       x1="48"
       y1="80"
       x2="48"
       y2="8" />
    <linearGradient
       id="linearGradient3675"
       y2="8"
       gradientUnits="userSpaceOnUse"
       x2="48"
       y1="80"
       x1="48">
      <stop
         id="stop3655"
         style="stop-color:#d4d4d4"
         offset="0" />
      <stop
         id="stop3657"
         style="stop-color:#ededed"
         offset="1" />
    </linearGradient>
    <linearGradient
       inkscape:collect="always"
       xlink:href="#linearGradient3613-74"
       id="linearGradient3235"
       gradientUnits="userSpaceOnUse"
       x1="48"
       y1="20.221001"
       x2="48"
       y2="138.66" />
    <linearGradient
       inkscape:collect="always"
       xlink:href="#linearGradient3675"
       id="linearGradient3237"
       gradientUnits="userSpaceOnUse"
       gradientTransform="matrix(0.73344469,0,0,0.73344469,197.39999,1012.8254)"
       x1="48"
       y1="80"
       x2="48"
       y2="8" />
  </defs>
  <sodipodi:namedview
     id="base"
     pagecolor="#ffffff"
     bordercolor="#666666"
     borderopacity="1.0"
     inkscape:pageopacity="0.0"
     inkscape:pageshadow="2"
     inkscape:zoom="3.959798"
     inkscape:cx="28.389459"
     inkscape:cy="57.490015"
     inkscape:document-units="px"
     inkscape:current-layer="layer1"
     showgrid="false"
     inkscape:window-width="1280"
     inkscape:window-height="725"
     inkscape:window-x="0"
     inkscape:window-y="25"
     inkscape:window-maximized="1" />
  <metadata
     id="metadata7">
    <rdf:RDF>
      <cc:Work
         rdf:about="">
        <dc:format>image/svg+xml</dc:format>
        <dc:type
           rdf:resource="http://purl.org/dc/dcmitype/StillImage" />
        <dc:title />
      </cc:Work>
    </rdf:RDF>
  </metadata>
  <g
     inkscape:label="Layer 1"
     inkscape:groupmode="layer"
     id="layer1"
     transform="translate(0,-956.36217)">
    <g
       transform="translate(-182.1875,-40.40626)"
       id="g6159">
      <rect
         y="964.36218"
         x="8"
         height="80"
         width="80"
         id="rect9283"
         style="fill:#000000;fill-opacity:1;stroke:none;filter:url(#filter6279)"
         rx="5"
         ry="5"
         transform="translate(182.1875,40.40625)" />
      <rect
         ry="5"
         rx="5"
         style="fill:url(#linearGradient10902-1);fill-opacity:1;stroke:none"
         id="rect9285"
         width="80"
         height="80"
         x="8"
         y="964.36218"
         transform="translate(182.1875,40.40625)" />
      <g
         id="g6054">
        <g
           id="g7053">
          <g
             id="layer5"
             transform="translate(182.1875,996.76843)">
            <rect
               x="15"
               y="15"
               width="66"
               height="66"
               ry="12"
               rx="12"
               clip-path="url(#clipPath3613-30)"
               style="opacity:0.1;fill:url(#linearGradient3235);stroke:#ffffff;stroke-width:0.5;stroke-linecap:round;filter:url(#filter3794-29)"
               id="rect3171" />
          </g>
          <g
             transform="matrix(1.0012684,0,0,1.0012684,-2.712877,-0.89166187)"
             id="g6194">
            <path
               d="m 209.13511,1017.2261 v 51.3411 c 0,1.6253 1.30846,2.9338 2.93377,2.9338 h 41.07291 c 1.62531,0 2.93378,-1.3085 2.93378,-2.9338 v -51.3411 h -46.94046 z"
               style="color:#000000;fill:url(#linearGradient3237)"
               id="rect3648"
               inkscape:connector-curvature="0" />
            <g
               transform="matrix(0.73344469,0,0,0.73344469,197.39999,1012.2788)"
               style="fill:#808080"
               id="text4048">
              <path
                 d="m 39.028,44.231 c -10e-7,0.06781 -0.01333,0.13029 -0.04,0.18743 -0.02591,0.05714 -0.06629,0.10667 -0.12115,0.14858 -0.05486,0.04115 -0.1242,0.07353 -0.20801,0.09715 -0.08305,0.02286 -0.18172,0.03429 -0.29601,0.03429 -0.20039,0 -0.35658,-0.03505 -0.46858,-0.10515 -0.112,-0.0701 -0.18324,-0.17143 -0.21372,-0.30401 L 37.89196,44.247 c 0.01067,0.04191 0.02705,0.08 0.04914,0.11429 0.0221,0.03429 0.05181,0.064 0.08915,0.08915 0.0381,0.02438 0.08495,0.04343 0.14058,0.05714 0.05562,0.01372 0.12229,0.02057 0.20001,0.02057 0.06476,0 0.12419,-0.0053 0.17829,-0.016 0.0541,-0.01143 0.10057,-0.02857 0.13943,-0.05143 0.03886,-0.02286 0.06895,-0.05219 0.09029,-0.088 0.02209,-0.03657 0.03314,-0.08 0.03314,-0.13029 -1e-6,-0.05257 -0.01219,-0.09524 -0.03657,-0.128 -0.02362,-0.03276 -0.05715,-0.05981 -0.10057,-0.08114 -0.04343,-0.02133 -0.09524,-0.03924 -0.15543,-0.05372 -0.06019,-0.01448 -0.12686,-0.03009 -0.2,-0.04686 -0.04496,-0.0099 -0.09029,-0.02057 -0.136,-0.032 -0.04495,-0.01219 -0.08838,-0.02629 -0.13029,-0.04229 -0.04115,-0.01676 -0.08,-0.03619 -0.11658,-0.05829 -0.03657,-0.0221 -0.06819,-0.04838 -0.09486,-0.07886 -0.02667,-0.03124 -0.04762,-0.06705 -0.06286,-0.10743 -0.01524,-0.04114 -0.02286,-0.08838 -0.02286,-0.14172 0,-0.07619 0.01524,-0.14134 0.04572,-0.19543 0.03124,-0.05486 0.07429,-0.09981 0.12915,-0.13486 0.05486,-0.03505 0.11962,-0.06057 0.19429,-0.07657 0.07467,-0.016 0.15543,-0.024 0.24229,-0.024 0.09981,10e-7 0.18515,0.008 0.25601,0.024 0.07086,0.01524 0.13067,0.03848 0.17943,0.06972 0.04876,0.03124 0.08762,0.0701 0.11658,0.11657 0.02971,0.04572 0.05333,0.09905 0.07086,0.16 l -0.21486,0.03771 c -0.01067,-0.03886 -0.02629,-0.07353 -0.04686,-0.104 -0.01981,-0.03048 -0.0461,-0.056 -0.07886,-0.07657 -0.03276,-0.02057 -0.07276,-0.03619 -0.12,-0.04686 -0.04648,-0.01067 -0.10134,-0.016 -0.16458,-0.016 -0.07467,1e-6 -0.13753,0.0069 -0.18858,0.02057 -0.05029,0.01295 -0.09105,0.03086 -0.12229,0.05372 -0.03048,0.02286 -0.05257,0.04991 -0.06629,0.08114 -0.01295,0.03048 -0.01943,0.06362 -0.01943,0.09943 0,0.048 0.01181,0.08762 0.03543,0.11886 0.02438,0.03048 0.05714,0.056 0.09829,0.07657 0.04114,0.02057 0.08876,0.03772 0.14286,0.05143 0.0541,0.01371 0.11162,0.02743 0.17258,0.04114 0.04952,0.01143 0.09867,0.02324 0.14743,0.03543 0.04952,0.01143 0.09676,0.02553 0.14172,0.04229 0.04495,0.016 0.08686,0.03505 0.12572,0.05714 0.03962,0.0221 0.07391,0.04914 0.10286,0.08114 0.02895,0.032 0.05143,0.06972 0.06743,0.11315 0.01676,0.04343 0.02514,0.09448 0.02514,0.15315"
                 id="path4053"
                 inkscape:connector-curvature="0" />
              <path
                 d="m 40.016,44.676 v -0.78402 c -10e-7,-0.06019 -0.0038,-0.11048 -0.01143,-0.15086 -0.0076,-0.04038 -0.02057,-0.07276 -0.03886,-0.09714 -0.01752,-0.02514 -0.04076,-0.04267 -0.06972,-0.05257 -0.02895,-0.01067 -0.06438,-0.016 -0.10629,-0.016 -0.04343,1e-6 -0.08267,0.0088 -0.11772,0.02629 -0.03505,0.01676 -0.06515,0.04153 -0.09029,0.07429 -0.02438,0.032 -0.04343,0.072 -0.05714,0.12 -0.01295,0.04724 -0.01943,0.10172 -0.01943,0.16343 v 0.71659 h -0.20458 v -0.9726 c 0,-0.0259 -3.81e-4,-0.05295 -0.0011,-0.08114 0,-0.02895 -3.81e-4,-0.056 -0.0011,-0.08114 -7.62e-4,-0.0259 -0.0015,-0.048 -0.0023,-0.06629 -7.62e-4,-0.01828 -0.0015,-0.03009 -0.0023,-0.03543 h 0.19429 c 7.62e-4,0.0038 0.0015,0.0141 0.0023,0.03086 7.62e-4,0.01676 0.0015,0.03619 0.0023,0.05829 0.0015,0.02134 0.0027,0.04343 0.0034,0.06629 7.61e-4,0.0221 0.0011,0.04076 0.0011,0.056 h 0.0034 c 0.01829,-0.03581 0.0381,-0.06819 0.05943,-0.09714 0.02133,-0.02895 0.0461,-0.05333 0.07429,-0.07314 0.02895,-0.02057 0.06171,-0.03619 0.09829,-0.04686 0.03733,-0.01143 0.08038,-0.01714 0.12915,-0.01714 0.09372,10e-7 0.16762,0.01867 0.22172,0.056 0.05486,0.03733 0.09295,0.09676 0.11429,0.17829 h 0.0034 c 0.01829,-0.03581 0.03886,-0.06819 0.06172,-0.09714 0.02286,-0.02895 0.04952,-0.05333 0.08,-0.07314 0.03048,-0.02057 0.06476,-0.03619 0.10286,-0.04686 0.03809,-0.01143 0.08152,-0.01714 0.13029,-0.01714 0.06248,10e-7 0.11619,0.0084 0.16115,0.02514 0.04571,0.01676 0.08305,0.04267 0.112,0.07772 0.02895,0.03505 0.05029,0.08038 0.064,0.136 0.01371,0.05486 0.02057,0.12038 0.02057,0.19658 v 0.82402 h -0.20343 v -0.78402 c -2e-6,-0.06019 -0.0038,-0.11048 -0.01143,-0.15086 -0.0076,-0.04038 -0.02057,-0.07276 -0.03886,-0.09714 -0.01753,-0.02514 -0.04077,-0.04267 -0.06972,-0.05257 -0.02895,-0.01067 -0.06438,-0.016 -0.10629,-0.016 -0.04343,1e-6 -0.08267,0.0084 -0.11772,0.02514 -0.03505,0.016 -0.06515,0.04 -0.09029,0.072 -0.02438,0.032 -0.04343,0.072 -0.05714,0.12 -0.01295,0.048 -0.01943,0.10362 -0.01943,0.16686 v 0.71659 h -0.20343"
                 id="path4055"
                 inkscape:connector-curvature="0" />
              <path
                 d="m 41.563,44.699 c -0.12419,0 -0.21753,-0.03276 -0.28001,-0.09829 -0.06248,-0.06553 -0.09372,-0.15543 -0.09372,-0.26972 0,-0.08153 0.01524,-0.14819 0.04572,-0.20001 0.03124,-0.05257 0.07162,-0.09372 0.12115,-0.12343 0.05029,-0.02971 0.10743,-0.05029 0.17143,-0.06172 0.064,-0.01143 0.12915,-0.0179 0.19543,-0.01943 l 0.27772,-0.0046 v -0.06743 c -1e-6,-0.05105 -0.0053,-0.09448 -0.016,-0.13029 -0.01067,-0.03581 -0.02705,-0.06476 -0.04914,-0.08686 -0.0221,-0.02209 -0.04991,-0.03809 -0.08343,-0.048 -0.03276,-0.01067 -0.07162,-0.016 -0.11657,-0.016 -0.03962,10e-7 -0.07543,0.003 -0.10743,0.0091 -0.032,0.0053 -0.05981,0.01562 -0.08343,0.03086 -0.02362,0.01448 -0.04267,0.03467 -0.05714,0.06057 -0.01448,0.02514 -0.024,0.05715 -0.02857,0.096 l -0.21486,-0.01943 c 0.0076,-0.04876 0.0221,-0.09333 0.04343,-0.13372 0.02133,-0.04114 0.05143,-0.07657 0.09029,-0.10629 0.03962,-0.02971 0.08876,-0.05257 0.14743,-0.06857 0.05943,-0.01676 0.13105,-0.02514 0.21486,-0.02514 0.15543,10e-7 0.27239,0.03581 0.35087,0.10743 0.07848,0.07086 0.11772,0.17372 0.11772,0.30858 v 0.53259 c -1e-6,0.06095 0.008,0.10705 0.024,0.13829 0.016,0.03048 0.04648,0.04572 0.09143,0.04572 0.01143,0 0.02286,-7.62e-4 0.03429,-0.0023 0.01143,-0.0015 0.02248,-0.0034 0.03314,-0.0057 v 0.128 c -0.02591,0.0061 -0.05181,0.01067 -0.07772,0.01371 -0.02515,0.003 -0.05219,0.0046 -0.08115,0.0046 -0.03886,0 -0.07238,-0.005 -0.10057,-0.01486 -0.02743,-0.01067 -0.04991,-0.02629 -0.06743,-0.04686 -0.01753,-0.02133 -0.03086,-0.04724 -0.04,-0.07772 -0.0091,-0.03124 -0.01486,-0.06743 -0.01714,-0.10857 h -0.0069 c -0.0221,0.03962 -0.04648,0.07543 -0.07314,0.10743 -0.02591,0.032 -0.05638,0.05943 -0.09143,0.08229 -0.03505,0.0221 -0.07505,0.03924 -0.12,0.05143 -0.04419,0.01219 -0.09524,0.01829 -0.15315,0.01829 m 0.04686,-0.15429 c 0.06553,0 0.12267,-0.01181 0.17143,-0.03543 0.04952,-0.02438 0.09029,-0.05524 0.12229,-0.09257 0.03276,-0.03733 0.05714,-0.0781 0.07314,-0.12229 0.016,-0.04419 0.024,-0.08648 0.024,-0.12686 v -0.10172 l -0.22515,0.0046 c -0.05029,7.63e-4 -0.09829,0.0046 -0.144,0.01143 -0.04495,0.0061 -0.08458,0.01867 -0.11886,0.03771 -0.03429,0.01905 -0.06172,0.04572 -0.08229,0.08 -0.01981,0.03429 -0.02972,0.07924 -0.02972,0.13486 0,0.06705 0.01791,0.11886 0.05372,0.15543 0.03657,0.03657 0.08838,0.05486 0.15543,0.05486"
                 id="path4057"
                 inkscape:connector-curvature="0" />
              <path
                 d="m 42.555,44.676 v -0.9486 c 0,-0.0259 -3.81e-4,-0.05219 -0.0011,-0.07886 0,-0.02743 -3.81e-4,-0.05371 -0.0011,-0.07886 -7.62e-4,-0.02514 -0.0015,-0.04876 -0.0023,-0.07086 -7.62e-4,-0.0221 -0.0015,-0.0419 -0.0023,-0.05943 h 0.19429 c 7.61e-4,0.01752 0.0015,0.03772 0.0023,0.06057 0.0015,0.0221 0.0027,0.04496 0.0034,0.06857 0.0015,0.02362 0.0023,0.04648 0.0023,0.06857 7.62e-4,0.02134 0.0011,0.03962 0.0011,0.05486 h 0.0046 c 0.01448,-0.04724 0.02971,-0.088 0.04572,-0.12229 0.01676,-0.03505 0.03619,-0.06362 0.05829,-0.08572 0.0221,-0.02286 0.04838,-0.03962 0.07886,-0.05029 0.03048,-0.01143 0.06743,-0.01714 0.11086,-0.01714 0.01676,1e-6 0.03276,0.0015 0.048,0.0046 0.01524,0.0023 0.02705,0.0046 0.03543,0.0069 v 0.18858 c -0.01372,-0.0038 -0.02972,-0.0065 -0.048,-0.008 -0.01829,-0.0023 -0.03886,-0.0034 -0.06172,-0.0034 -0.04724,10e-7 -0.08762,0.01067 -0.12115,0.032 -0.03276,0.02134 -0.05981,0.05105 -0.08114,0.08915 -0.02057,0.03733 -0.03581,0.08229 -0.04572,0.13486 -0.0099,0.05181 -0.01486,0.10858 -0.01486,0.17029 v 0.64459 h -0.20572"
                 id="path4059"
                 inkscape:connector-curvature="0" />
              <path
                 d="m 43.808,44.667 c -0.03124,0.0084 -0.06324,0.01486 -0.096,0.01943 -0.032,0.0053 -0.06934,0.008 -0.112,0.008 -0.16458,0 -0.24686,-0.09334 -0.24686,-0.28001 v -0.82516 h -0.14286 v -0.14972 h 0.15086 l 0.06057,-0.27658 h 0.13715 v 0.27658 h 0.22858 v 0.14972 h -0.22858 v 0.78059 c 0,0.05943 0.0095,0.10134 0.02857,0.12572 0.01981,0.02362 0.05371,0.03543 0.10172,0.03543 0.01981,0 0.03886,-0.0015 0.05714,-0.0046 0.01905,-0.003 0.03962,-0.0069 0.06172,-0.01143 v 0.152"
                 id="path4061"
                 inkscape:connector-curvature="0" />
              <path
                 d="m 45.278,44.231 c -10e-7,0.06781 -0.01333,0.13029 -0.04,0.18743 -0.02591,0.05714 -0.06629,0.10667 -0.12115,0.14858 -0.05486,0.04115 -0.1242,0.07353 -0.20801,0.09715 -0.08305,0.02286 -0.18172,0.03429 -0.29601,0.03429 -0.20039,0 -0.35658,-0.03505 -0.46858,-0.10515 -0.112,-0.0701 -0.18324,-0.17143 -0.21372,-0.30401 L 44.14196,44.247 c 0.01067,0.04191 0.02705,0.08 0.04914,0.11429 0.0221,0.03429 0.05181,0.064 0.08915,0.08915 0.0381,0.02438 0.08495,0.04343 0.14058,0.05714 0.05562,0.01372 0.12229,0.02057 0.2,0.02057 0.06476,0 0.12419,-0.0053 0.17829,-0.016 0.0541,-0.01143 0.10057,-0.02857 0.13943,-0.05143 0.03886,-0.02286 0.06895,-0.05219 0.09029,-0.088 0.02209,-0.03657 0.03314,-0.08 0.03314,-0.13029 -10e-7,-0.05257 -0.01219,-0.09524 -0.03657,-0.128 -0.02362,-0.03276 -0.05715,-0.05981 -0.10057,-0.08114 -0.04343,-0.02133 -0.09524,-0.03924 -0.15543,-0.05372 -0.06019,-0.01448 -0.12686,-0.03009 -0.2,-0.04686 -0.04495,-0.0099 -0.09029,-0.02057 -0.136,-0.032 -0.04495,-0.01219 -0.08838,-0.02629 -0.13029,-0.04229 -0.04115,-0.01676 -0.08,-0.03619 -0.11658,-0.05829 -0.03657,-0.0221 -0.06819,-0.04838 -0.09486,-0.07886 -0.02667,-0.03124 -0.04762,-0.06705 -0.06286,-0.10743 -0.01524,-0.04114 -0.02286,-0.08838 -0.02286,-0.14172 -1e-6,-0.07619 0.01524,-0.14134 0.04572,-0.19543 0.03124,-0.05486 0.07429,-0.09981 0.12915,-0.13486 0.05486,-0.03505 0.11962,-0.06057 0.19429,-0.07657 0.07467,-0.016 0.15543,-0.024 0.24229,-0.024 0.09981,10e-7 0.18515,0.008 0.25601,0.024 0.07086,0.01524 0.13067,0.03848 0.17943,0.06972 0.04876,0.03124 0.08762,0.0701 0.11658,0.11657 0.02971,0.04572 0.05333,0.09905 0.07086,0.16 l -0.21486,0.03771 c -0.01067,-0.03886 -0.02629,-0.07353 -0.04686,-0.104 -0.01981,-0.03048 -0.0461,-0.056 -0.07886,-0.07657 -0.03276,-0.02057 -0.07276,-0.03619 -0.12,-0.04686 -0.04648,-0.01067 -0.10134,-0.016 -0.16458,-0.016 -0.07467,1e-6 -0.13753,0.0069 -0.18858,0.02057 -0.05029,0.01295 -0.09105,0.03086 -0.12229,0.05372 -0.03048,0.02286 -0.05257,0.04991 -0.06629,0.08114 -0.01295,0.03048 -0.01943,0.06362 -0.01943,0.09943 -10e-7,0.048 0.01181,0.08762 0.03543,0.11886 0.02438,0.03048 0.05714,0.056 0.09829,0.07657 0.04114,0.02057 0.08876,0.03772 0.14286,0.05143 0.0541,0.01371 0.11162,0.02743 0.17258,0.04114 0.04952,0.01143 0.09867,0.02324 0.14743,0.03543 0.04952,0.01143 0.09676,0.02553 0.14172,0.04229 0.04495,0.016 0.08686,0.03505 0.12572,0.05714 0.03962,0.0221 0.07391,0.04914 0.10286,0.08114 0.02895,0.032 0.05143,0.06972 0.06743,0.11315 0.01676,0.04343 0.02514,0.09448 0.02514,0.15315"
                 id="path4063"
                 inkscape:connector-curvature="0" />
              <path
                 d="m 45.702,44.052 c 0,0.07086 0.005,0.136 0.01486,0.19543 0.01067,0.05943 0.02819,0.11086 0.05257,0.15429 0.02438,0.04267 0.05638,0.07581 0.096,0.09943 0.04038,0.02362 0.08991,0.03543 0.14858,0.03543 0.07314,0 0.1341,-0.01981 0.18286,-0.05943 0.04952,-0.03962 0.08,-0.10057 0.09143,-0.18286 l 0.20801,0.01371 c -0.0069,0.05105 -0.02172,0.10019 -0.04457,0.14743 -0.02286,0.04724 -0.0541,0.08877 -0.09372,0.12458 -0.03886,0.03581 -0.08648,0.06476 -0.14286,0.08686 -0.05638,0.02133 -0.12153,0.032 -0.19543,0.032 -0.09676,0 -0.17905,-0.01638 -0.24686,-0.04914 -0.06781,-0.03276 -0.12305,-0.07772 -0.16572,-0.13486 -0.04191,-0.05791 -0.07238,-0.12572 -0.09143,-0.20343 -0.01905,-0.07848 -0.02857,-0.16343 -0.02857,-0.25486 -10e-7,-0.08305 0.0069,-0.15619 0.02057,-0.21943 0.01372,-0.064 0.03276,-0.11962 0.05714,-0.16686 0.02514,-0.048 0.05448,-0.088 0.088,-0.12 0.03352,-0.03276 0.06972,-0.05867 0.10858,-0.07772 0.03962,-0.01981 0.08114,-0.0339 0.12457,-0.04229 0.04343,-0.0091 0.08724,-0.01371 0.13143,-0.01371 0.06933,10e-7 0.13105,0.0095 0.18515,0.02857 0.0541,0.01905 0.10057,0.04534 0.13943,0.07886 0.03962,0.03276 0.07162,0.07162 0.096,0.11657 0.02438,0.04496 0.04152,0.09334 0.05143,0.14515 l -0.21143,0.016 c -0.01067,-0.06857 -0.03772,-0.12305 -0.08114,-0.16343 -0.04343,-0.04038 -0.10515,-0.06057 -0.18515,-0.06057 -0.05867,10e-7 -0.10781,0.0099 -0.14743,0.02971 -0.03886,0.01905 -0.07048,0.04838 -0.09486,0.088 -0.02438,0.03886 -0.04191,0.088 -0.05257,0.14743 -0.0099,0.05943 -0.01486,0.12915 -0.01486,0.20915"
                 id="path4065"
                 inkscape:connector-curvature="0" />
              <path
                 d="m 47.031,44.699 c -0.12419,0 -0.21753,-0.03276 -0.28001,-0.09829 -0.06248,-0.06553 -0.09372,-0.15543 -0.09372,-0.26972 0,-0.08153 0.01524,-0.14819 0.04572,-0.20001 0.03124,-0.05257 0.07162,-0.09372 0.12115,-0.12343 0.05029,-0.02971 0.10743,-0.05029 0.17143,-0.06172 0.064,-0.01143 0.12914,-0.0179 0.19543,-0.01943 l 0.27772,-0.0046 v -0.06743 c -10e-7,-0.05105 -0.0053,-0.09448 -0.016,-0.13029 -0.01067,-0.03581 -0.02705,-0.06476 -0.04914,-0.08686 -0.0221,-0.02209 -0.04991,-0.03809 -0.08343,-0.048 -0.03276,-0.01067 -0.07162,-0.016 -0.11658,-0.016 -0.03962,10e-7 -0.07543,0.003 -0.10743,0.0091 -0.032,0.0053 -0.05981,0.01562 -0.08343,0.03086 -0.02362,0.01448 -0.04267,0.03467 -0.05714,0.06057 -0.01448,0.02514 -0.024,0.05715 -0.02857,0.096 l -0.21486,-0.01943 c 0.0076,-0.04876 0.0221,-0.09333 0.04343,-0.13372 0.02133,-0.04114 0.05143,-0.07657 0.09029,-0.10629 0.03962,-0.02971 0.08876,-0.05257 0.14743,-0.06857 0.05943,-0.01676 0.13105,-0.02514 0.21486,-0.02514 0.15543,10e-7 0.27239,0.03581 0.35087,0.10743 0.07848,0.07086 0.11772,0.17372 0.11772,0.30858 v 0.53259 c -1e-6,0.06095 0.008,0.10705 0.024,0.13829 0.016,0.03048 0.04648,0.04572 0.09143,0.04572 0.01143,0 0.02286,-7.62e-4 0.03429,-0.0023 0.01143,-0.0015 0.02248,-0.0034 0.03314,-0.0057 v 0.128 c -0.02591,0.0061 -0.05181,0.01067 -0.07772,0.01371 -0.02515,0.003 -0.05219,0.0046 -0.08114,0.0046 -0.03886,0 -0.07238,-0.005 -0.10058,-0.01486 -0.02743,-0.01067 -0.04991,-0.02629 -0.06743,-0.04686 -0.01752,-0.02133 -0.03086,-0.04724 -0.04,-0.07772 -0.0091,-0.03124 -0.01486,-0.06743 -0.01714,-0.10857 h -0.0069 c -0.0221,0.03962 -0.04648,0.07543 -0.07314,0.10743 -0.02591,0.032 -0.05638,0.05943 -0.09143,0.08229 -0.03505,0.0221 -0.07505,0.03924 -0.12,0.05143 -0.04419,0.01219 -0.09524,0.01829 -0.15315,0.01829 m 0.04686,-0.15429 c 0.06553,0 0.12267,-0.01181 0.17143,-0.03543 0.04952,-0.02438 0.09029,-0.05524 0.12229,-0.09257 0.03276,-0.03733 0.05714,-0.0781 0.07314,-0.12229 0.016,-0.04419 0.024,-0.08648 0.024,-0.12686 v -0.10172 l -0.22515,0.0046 c -0.05029,7.63e-4 -0.09829,0.0046 -0.144,0.01143 -0.04495,0.0061 -0.08457,0.01867 -0.11886,0.03771 -0.03429,0.01905 -0.06172,0.04572 -0.08229,0.08 -0.01981,0.03429 -0.02971,0.07924 -0.02971,0.13486 0,0.06705 0.0179,0.11886 0.05372,0.15543 0.03657,0.03657 0.08838,0.05486 0.15543,0.05486"
                 id="path4067"
                 inkscape:connector-curvature="0" />
              <path
                 d="m 48.803,44.676 v -0.78402 c -10e-7,-0.06019 -0.0046,-0.11048 -0.01371,-0.15086 -0.0084,-0.04038 -0.02248,-0.07276 -0.04229,-0.09714 -0.01981,-0.02514 -0.0461,-0.04267 -0.07886,-0.05257 -0.032,-0.01067 -0.072,-0.016 -0.12,-0.016 -0.04876,1e-6 -0.09296,0.0088 -0.13258,0.02629 -0.03886,0.01676 -0.07238,0.04153 -0.10057,0.07429 -0.02743,0.032 -0.04876,0.072 -0.064,0.12 -0.01524,0.04724 -0.02286,0.10172 -0.02286,0.16343 v 0.71659 h -0.20572 v -0.9726 c 0,-0.0259 -3.81e-4,-0.05295 -0.0011,-0.08114 0,-0.02895 -3.81e-4,-0.056 -0.0011,-0.08114 -7.62e-4,-0.0259 -0.0015,-0.048 -0.0023,-0.06629 -7.62e-4,-0.01828 -0.0015,-0.03009 -0.0023,-0.03543 h 0.19429 c 7.61e-4,0.0038 0.0015,0.0141 0.0023,0.03086 7.61e-4,0.01676 0.0015,0.03619 0.0023,0.05829 0.0015,0.02134 0.0027,0.04343 0.0034,0.06629 7.62e-4,0.0221 0.0011,0.04076 0.0011,0.056 h 0.0034 c 0.01981,-0.03581 0.04152,-0.06819 0.06514,-0.09714 0.02362,-0.02895 0.05105,-0.05333 0.08229,-0.07314 0.03124,-0.02057 0.06705,-0.03619 0.10743,-0.04686 0.04038,-0.01143 0.08724,-0.01714 0.14058,-0.01714 0.06857,10e-7 0.12762,0.0084 0.17715,0.02514 0.04952,0.01676 0.09029,0.04267 0.12229,0.07772 0.032,0.03505 0.05524,0.08038 0.06972,0.136 0.01524,0.05486 0.02286,0.12038 0.02286,0.19658 v 0.82402 H 48.803"
                 id="path4069"
                 inkscape:connector-curvature="0" />
              <path
                 d="m 50.223,43.244 v 0.59887 h 0.89831 v 0.18058 H 50.223 v 0.65259 h -0.21829 v -1.6103 h 1.144 v 0.17829 h -0.92574"
                 id="path4071"
                 inkscape:connector-curvature="0" />
              <path
                 d="M 52.449,44.676 52.265,44.20513 H 51.53127 L 51.34612,44.676 h -0.22629 l 0.65716,-1.6103 H 52.025 l 0.64688,1.6103 h -0.22286 m -0.45601,-1.1726 c -0.01219,-0.03048 -0.024,-0.06133 -0.03543,-0.09257 -0.01067,-0.03124 -0.02019,-0.05943 -0.02857,-0.08457 -0.0084,-0.0259 -0.01562,-0.04724 -0.02172,-0.064 -0.0053,-0.01752 -0.0084,-0.02819 -0.0091,-0.032 -0.0015,0.0038 -0.005,0.01448 -0.01029,0.032 -0.0053,0.01753 -0.01257,0.03924 -0.02172,0.06515 -0.0084,0.02591 -0.01829,0.05448 -0.02972,0.08572 -0.01067,0.03124 -0.02172,0.0621 -0.03314,0.09257 l -0.20572,0.52916 h 0.6023 l -0.20686,-0.53144"
                 id="path4073"
                 inkscape:connector-curvature="0" />
              <path
                 d="m 54.207,44.311 v 0.36458 H 54.01271 V 44.311 h -0.75888 v -0.16 l 0.73716,-1.0857 h 0.216 v 1.0835 h 0.22629 v 0.16229 h -0.22629 m -0.19429,-1.0137 c -0.0015,0.0038 -0.0053,0.01143 -0.01143,0.02286 -0.0061,0.01067 -0.01295,0.02286 -0.02057,0.03657 -0.0076,0.01372 -0.01562,0.02781 -0.024,0.04229 -0.0076,0.01372 -0.01448,0.02515 -0.02057,0.03429 l -0.41258,0.60802 c -0.0038,0.0061 -0.0095,0.0141 -0.01714,0.024 -0.0069,0.0099 -0.0141,0.02019 -0.02172,0.03086 -0.0076,0.0099 -0.01524,0.01981 -0.02286,0.02971 -0.0076,0.0099 -0.01372,0.01752 -0.01829,0.02286 H 54.0127 V 43.2974"
                 id="path4075"
                 inkscape:connector-curvature="0" />
              <path
                 d="m 54.621,44.676 v -0.14515 c 0.03886,-0.08915 0.0861,-0.16762 0.14172,-0.23544 0.05638,-0.06857 0.11543,-0.13029 0.17715,-0.18515 0.06171,-0.05562 0.12267,-0.10705 0.18286,-0.15429 0.06095,-0.04724 0.11581,-0.09448 0.16458,-0.14172 0.04876,-0.04724 0.088,-0.09676 0.11772,-0.14858 0.03048,-0.05181 0.04572,-0.11048 0.04572,-0.176 -10e-7,-0.04571 -0.0069,-0.08572 -0.02057,-0.12 -0.01372,-0.03505 -0.03353,-0.06438 -0.05943,-0.088 -0.02591,-0.02362 -0.05714,-0.04114 -0.09372,-0.05257 -0.03581,-0.01219 -0.07581,-0.01828 -0.12,-0.01829 -0.04115,2e-6 -0.08,0.0057 -0.11658,0.01714 -0.03581,0.01143 -0.06781,0.02857 -0.096,0.05143 -0.02819,0.02286 -0.05143,0.05143 -0.06972,0.08572 -0.01752,0.03353 -0.02895,0.07277 -0.03429,0.11772 l -0.21029,-0.01943 c 0.0069,-0.0579 0.02286,-0.11238 0.048,-0.16343 0.02514,-0.05105 0.05981,-0.09562 0.104,-0.13372 0.04419,-0.03886 0.09714,-0.06933 0.15886,-0.09143 0.06248,-0.02209 0.13448,-0.03314 0.21601,-0.03314 0.08,10e-7 0.15124,0.0095 0.21372,0.02857 0.06248,0.01905 0.11505,0.04724 0.15772,0.08457 0.04343,0.03733 0.07657,0.08343 0.09943,0.13829 0.02286,0.05486 0.03428,0.1181 0.03429,0.18972 -10e-7,0.0541 -0.0099,0.10553 -0.02972,0.15429 -0.01905,0.04877 -0.04496,0.09524 -0.07772,0.13943 -0.032,0.04419 -0.06934,0.08686 -0.112,0.128 -0.04267,0.04115 -0.08724,0.08153 -0.13372,0.12115 -0.04648,0.03886 -0.09334,0.07772 -0.14058,0.11658 -0.04724,0.0381 -0.09181,0.07657 -0.13372,0.11543 -0.04115,0.03886 -0.0781,0.07848 -0.11086,0.11886 -0.03276,0.03962 -0.05829,0.08114 -0.07657,0.12458 h 0.84002 V 44.676 h -1.0663"
                 id="path4077"
                 inkscape:connector-curvature="0" />
              <path
                 d="m 57.016,43.87 c -10e-7,0.15467 -0.01486,0.28496 -0.04457,0.39087 -0.02895,0.10515 -0.06896,0.19048 -0.12,0.25601 -0.05029,0.06476 -0.10972,0.11124 -0.17829,0.13943 -0.06857,0.02819 -0.14172,0.04229 -0.21943,0.04229 -0.07848,0 -0.15162,-0.0141 -0.21944,-0.04229 -0.06781,-0.02819 -0.12686,-0.07467 -0.17715,-0.13943 -0.04953,-0.06476 -0.08877,-0.14972 -0.11772,-0.25486 -0.02819,-0.10591 -0.04229,-0.23658 -0.04229,-0.39201 0,-0.16229 0.0141,-0.29639 0.04229,-0.4023 0.02895,-0.10667 0.06857,-0.19162 0.11886,-0.25486 0.05029,-0.06324 0.10972,-0.10743 0.17829,-0.13258 0.06857,-0.0259 0.14324,-0.03886 0.22401,-0.03886 0.07695,10e-7 0.14896,0.01295 0.21601,0.03886 0.06781,0.02515 0.12686,0.06934 0.17715,0.13258 0.05029,0.06324 0.08991,0.1482 0.11886,0.25486 0.02895,0.10591 0.04343,0.24001 0.04343,0.4023 m -0.20915,0 c -10e-7,-0.128 -0.0076,-0.23429 -0.02286,-0.31887 -0.01524,-0.08534 -0.03772,-0.15315 -0.06743,-0.20343 -0.02972,-0.05105 -0.06629,-0.08686 -0.10972,-0.10743 -0.04267,-0.02133 -0.09143,-0.032 -0.14629,-0.032 -0.05791,2e-6 -0.10896,0.01067 -0.15315,0.032 -0.04419,0.02134 -0.08153,0.05753 -0.112,0.10858 -0.02972,0.05029 -0.05219,0.1181 -0.06743,0.20343 -0.01524,0.08458 -0.02286,0.19048 -0.02286,0.31772 0,0.12343 0.0076,0.22744 0.02286,0.31201 0.016,0.08457 0.03886,0.15277 0.06857,0.20458 0.03048,0.05105 0.06743,0.088 0.11086,0.11086 0.04343,0.0221 0.09296,0.03314 0.14858,0.03314 0.0541,0 0.10286,-0.01105 0.14629,-0.03314 0.04343,-0.02286 0.08,-0.05981 0.10972,-0.11086 0.03048,-0.05181 0.05371,-0.12 0.06972,-0.20458 0.01676,-0.08457 0.02514,-0.18858 0.02514,-0.31201"
                 id="path4079"
                 inkscape:connector-curvature="0" />
              <path
                 d="m 58.319,43.87 c -2e-6,0.15467 -0.01486,0.28496 -0.04457,0.39087 -0.02895,0.10515 -0.06895,0.19048 -0.12,0.25601 -0.05029,0.06476 -0.10972,0.11124 -0.17829,0.13943 -0.06857,0.02819 -0.14172,0.04229 -0.21943,0.04229 -0.07848,0 -0.15162,-0.0141 -0.21944,-0.04229 -0.06781,-0.02819 -0.12686,-0.07467 -0.17715,-0.13943 -0.04953,-0.06476 -0.08876,-0.14972 -0.11772,-0.25486 -0.02819,-0.10591 -0.04229,-0.23658 -0.04229,-0.39201 0,-0.16229 0.0141,-0.29639 0.04229,-0.4023 0.02895,-0.10667 0.06857,-0.19162 0.11886,-0.25486 0.05029,-0.06324 0.10972,-0.10743 0.17829,-0.13258 0.06857,-0.0259 0.14324,-0.03886 0.22401,-0.03886 0.07695,10e-7 0.14896,0.01295 0.21601,0.03886 0.06781,0.02515 0.12686,0.06934 0.17715,0.13258 0.05029,0.06324 0.08991,0.1482 0.11886,0.25486 0.02895,0.10591 0.04343,0.24001 0.04343,0.4023 m -0.20915,0 c -10e-7,-0.128 -0.0076,-0.23429 -0.02286,-0.31887 -0.01524,-0.08534 -0.03772,-0.15315 -0.06743,-0.20343 -0.02972,-0.05105 -0.06629,-0.08686 -0.10972,-0.10743 -0.04267,-0.02133 -0.09143,-0.032 -0.14629,-0.032 -0.05791,2e-6 -0.10896,0.01067 -0.15315,0.032 -0.04419,0.02134 -0.08153,0.05753 -0.112,0.10858 -0.02972,0.05029 -0.05219,0.1181 -0.06743,0.20343 -0.01524,0.08458 -0.02286,0.19048 -0.02286,0.31772 -10e-7,0.12343 0.0076,0.22744 0.02286,0.31201 0.016,0.08457 0.03886,0.15277 0.06857,0.20458 0.03048,0.05105 0.06743,0.088 0.11086,0.11086 0.04343,0.0221 0.09295,0.03314 0.14858,0.03314 0.0541,0 0.10286,-0.01105 0.14629,-0.03314 0.04343,-0.02286 0.08,-0.05981 0.10972,-0.11086 0.03048,-0.05181 0.05372,-0.12 0.06972,-0.20458 0.01676,-0.08457 0.02514,-0.18858 0.02514,-0.31201"
                 id="path4081"
                 inkscape:connector-curvature="0" />
            </g>
            <rect
               x="221.60367"
               y="1061.2328"
               width="22.00334"
               height="2.2003341"
               ry="1.100167"
               rx="1.4668894"
               style="color:#000000;fill:#ffffff"
               id="rect4125" />
            <rect
               x="228.93811"
               y="1061.2328"
               width="0.73344469"
               height="2.2003341"
               style="opacity:0.15;color:#000000"
               id="rect4151" />
            <rect
               x="236.27255"
               y="1061.2328"
               width="0.73344469"
               height="2.2003341"
               style="opacity:0.15;color:#000000"
               id="rect4153" />
            <g
               style="fill:#666666"
               id="text4164"
               transform="matrix(0.73344469,0,0,0.73344469,197.39999,1012.8254)">
              <path
                 d="m 36.316,63.042 c -0.05859,10e-7 -0.1106,0.0098 -0.15601,0.0293 -0.04492,0.01953 -0.08276,0.04736 -0.11352,0.0835 -0.03027,0.03613 -0.05322,0.07959 -0.06885,0.13037 -0.01563,0.05078 -0.02344,0.10718 -0.02344,0.16919 0,0.06201 0.0083,0.1189 0.0249,0.17066 0.01709,0.05127 0.04126,0.09546 0.07251,0.13257 0.03174,0.03711 0.07031,0.06592 0.11572,0.08643 0.0459,0.02051 0.09741,0.03076 0.15454,0.03076 0.04004,10e-7 0.07642,-0.0051 0.10913,-0.01538 0.0332,-0.01074 0.06299,-0.02564 0.08936,-0.04468 0.02685,-0.01904 0.05078,-0.0415 0.07178,-0.06738 0.02099,-0.02637 0.03955,-0.05542 0.05566,-0.08716 l 0.11426,0.05713 c -0.01856,0.03857 -0.04151,0.07446 -0.06885,0.10767 -0.02734,0.0332 -0.05957,0.06201 -0.09668,0.08643 -0.03662,0.02441 -0.07837,0.0437 -0.12524,0.05786 -0.04639,0.01367 -0.09839,0.02051 -0.15601,0.02051 -0.0835,0 -0.15674,-0.01318 -0.21973,-0.03955 -0.0625,-0.02686 -0.11499,-0.06396 -0.15747,-0.11133 -0.04199,-0.04785 -0.07349,-0.10449 -0.09448,-0.16992 -0.021,-0.06543 -0.03149,-0.13696 -0.03149,-0.2146 -10e-7,-0.08057 0.01099,-0.15332 0.03296,-0.21826 0.02246,-0.06494 0.05493,-0.12012 0.09741,-0.16553 0.04297,-0.0459 0.0957,-0.08105 0.1582,-0.10547 0.0625,-0.0249 0.13379,-0.03735 0.21387,-0.03735 0.10986,10e-7 0.20166,0.02148 0.27539,0.06445 0.07373,0.04297 0.12793,0.10669 0.1626,0.19116 l -0.13257,0.04395 c -0.0098,-0.02441 -0.02295,-0.04761 -0.03955,-0.06958 -0.0166,-0.02246 -0.03735,-0.04223 -0.06226,-0.05933 -0.0249,-0.01709 -0.0542,-0.03076 -0.08789,-0.04101 -0.0332,-0.01025 -0.07129,-0.01538 -0.11426,-0.01538"
                 id="path4194"
                 inkscape:connector-curvature="0" />
              <path
                 d="m 37.915,63.454 c -10e-7,0.08057 -0.01172,0.15381 -0.03516,0.21973 -0.02295,0.06592 -0.0564,0.12231 -0.10034,0.16919 -0.04395,0.04687 -0.09766,0.08301 -0.16113,0.1084 -0.06348,0.02539 -0.1355,0.03809 -0.21606,0.03809 -0.08496,0 -0.15942,-0.01318 -0.22339,-0.03955 -0.06396,-0.02686 -0.11719,-0.06396 -0.15967,-0.11133 -0.04248,-0.04785 -0.07446,-0.10449 -0.09595,-0.16992 -0.02148,-0.06543 -0.03223,-0.13696 -0.03223,-0.2146 0,-0.08057 0.01123,-0.15332 0.03369,-0.21826 0.02246,-0.06494 0.05542,-0.12012 0.09888,-0.16553 0.04346,-0.0459 0.09692,-0.08105 0.1604,-0.10547 0.06396,-0.0249 0.13721,-0.03735 0.21973,-0.03735 0.08203,1e-6 0.15478,0.01245 0.21826,0.03735 0.06396,0.0249 0.11743,0.0603 0.1604,0.1062 0.04346,0.0459 0.07641,0.10132 0.09888,0.16626 0.02246,0.06494 0.03369,0.13721 0.03369,0.2168 m -0.14282,0 c -10e-7,-0.06201 -0.0081,-0.11841 -0.02417,-0.16919 -0.01563,-0.05078 -0.03906,-0.09424 -0.07031,-0.13037 -0.03076,-0.03613 -0.06909,-0.06396 -0.11499,-0.0835 -0.0459,-0.01953 -0.09888,-0.0293 -0.15894,-0.0293 -0.06152,1e-6 -0.11548,0.0098 -0.16186,0.0293 -0.04639,0.01953 -0.08521,0.04736 -0.11646,0.0835 -0.03076,0.03613 -0.05396,0.07959 -0.06958,0.13037 -0.01514,0.05078 -0.02271,0.10718 -0.02271,0.16919 0,0.06201 0.0078,0.1189 0.02344,0.17066 0.01611,0.05127 0.03955,0.0957 0.07031,0.1333 0.03125,0.03711 0.06982,0.06616 0.11572,0.08716 0.04639,0.02051 0.09961,0.03076 0.15967,0.03076 0.06445,0 0.11987,-0.0105 0.16626,-0.03149 0.04687,-0.021 0.0852,-0.05005 0.11499,-0.08716 0.03027,-0.0376 0.05249,-0.08227 0.06665,-0.13403 0.01465,-0.05176 0.02197,-0.10815 0.02197,-0.16919"
                 id="path4196"
                 inkscape:connector-curvature="0" />
              <path
                 d="m 38.907,63.253 c -10e-7,0.04492 -0.0076,0.08691 -0.02271,0.12598 -0.01465,0.03858 -0.03687,0.07227 -0.06665,0.10107 -0.0293,0.02832 -0.06616,0.05078 -0.1106,0.06738 -0.04443,0.0166 -0.09619,0.0249 -0.15527,0.0249 h -0.30322 v 0.4021 h -0.13989 v -1.032 h 0.43433 c 0.06103,10e-7 0.11426,0.0076 0.15967,0.02271 0.04541,0.01465 0.08325,0.03565 0.11352,0.06299 0.03027,0.02686 0.05298,0.05957 0.06811,0.09814 0.01514,0.03809 0.0227,0.08032 0.02271,0.12671 m -0.14062,0.0015 c 0,-0.06543 -0.02002,-0.11499 -0.06006,-0.14868 -0.04004,-0.03418 -0.1001,-0.05127 -0.18018,-0.05127 h -0.27759 v 0.40723 H 38.532 c 0.08057,0 0.13965,-0.01782 0.17725,-0.05347 0.03808,-0.03564 0.05713,-0.08691 0.05713,-0.15381"
                 id="path4198"
                 inkscape:connector-curvature="0" />
              <path
                 d="m 39.557,63.547 v 0.42773 H 39.41784 V 63.547 l -0.39697,-0.60425 h 0.15381 l 0.31421,0.49146 0.31274,-0.49146 h 0.15381 L 39.557,63.547"
                 id="path4200"
                 inkscape:connector-curvature="0" />
              <path
                 d="m 46.709,63.253 c -1e-6,0.04492 -0.0076,0.08691 -0.02271,0.12598 -0.01465,0.03858 -0.03687,0.07227 -0.06665,0.10107 -0.0293,0.02832 -0.06616,0.05078 -0.1106,0.06738 -0.04443,0.0166 -0.09619,0.0249 -0.15527,0.0249 h -0.30322 v 0.4021 h -0.13989 v -1.032 h 0.43433 c 0.06103,10e-7 0.11426,0.0076 0.15967,0.02271 0.04541,0.01465 0.08325,0.03565 0.11352,0.06299 0.03027,0.02686 0.05298,0.05957 0.06811,0.09814 0.01514,0.03809 0.0227,0.08032 0.02271,0.12671 m -0.14062,0.0015 c -10e-7,-0.06543 -0.02002,-0.11499 -0.06006,-0.14868 -0.04004,-0.03418 -0.1001,-0.05127 -0.18018,-0.05127 h -0.27759 v 0.40723 H 46.334 c 0.08057,0 0.13965,-0.01782 0.17725,-0.05347 0.03809,-0.03564 0.05713,-0.08691 0.05713,-0.15381"
                 id="path4202"
                 inkscape:connector-curvature="0" />
              <path
                 d="M 47.611,63.975 V 63.49673 H 47.05289 V 63.975 H 46.913 v -1.032 h 0.13989 v 0.43652 H 47.611 V 62.943 h 0.13989 v 1.032 H 47.611"
                 id="path4204"
                 inkscape:connector-curvature="0" />
              <path
                 d="m 48.969,63.454 c -1e-6,0.08057 -0.01172,0.15381 -0.03516,0.21973 -0.02295,0.06592 -0.0564,0.12231 -0.10034,0.16919 -0.04395,0.04687 -0.09766,0.08301 -0.16113,0.1084 -0.06348,0.02539 -0.1355,0.03809 -0.21606,0.03809 -0.08496,0 -0.15942,-0.01318 -0.22339,-0.03955 -0.06396,-0.02686 -0.11719,-0.06396 -0.15967,-0.11133 -0.04248,-0.04785 -0.07446,-0.10449 -0.09595,-0.16992 -0.02148,-0.06543 -0.03223,-0.13696 -0.03223,-0.2146 0,-0.08057 0.01123,-0.15332 0.03369,-0.21826 0.02246,-0.06494 0.05542,-0.12012 0.09888,-0.16553 0.04346,-0.0459 0.09692,-0.08105 0.1604,-0.10547 0.06396,-0.0249 0.13721,-0.03735 0.21973,-0.03735 0.08203,1e-6 0.15478,0.01245 0.21826,0.03735 0.06396,0.0249 0.11743,0.0603 0.1604,0.1062 0.04346,0.0459 0.07641,0.10132 0.09888,0.16626 0.02246,0.06494 0.03369,0.13721 0.03369,0.2168 m -0.14282,0 c -10e-7,-0.06201 -0.0081,-0.11841 -0.02417,-0.16919 -0.01563,-0.05078 -0.03906,-0.09424 -0.07031,-0.13037 -0.03076,-0.03613 -0.06909,-0.06396 -0.11499,-0.0835 -0.0459,-0.01953 -0.09888,-0.0293 -0.15894,-0.0293 -0.06152,1e-6 -0.11548,0.0098 -0.16186,0.0293 -0.04639,0.01953 -0.08521,0.04736 -0.11646,0.0835 -0.03076,0.03613 -0.05396,0.07959 -0.06958,0.13037 -0.01514,0.05078 -0.02271,0.10718 -0.02271,0.16919 0,0.06201 0.0078,0.1189 0.02344,0.17066 0.01611,0.05127 0.03955,0.0957 0.07031,0.1333 0.03125,0.03711 0.06982,0.06616 0.11572,0.08716 0.04639,0.02051 0.09961,0.03076 0.15967,0.03076 0.06445,0 0.11987,-0.0105 0.16626,-0.03149 0.04687,-0.021 0.0852,-0.05005 0.11499,-0.08716 0.03027,-0.0376 0.05249,-0.08227 0.06665,-0.13403 0.01465,-0.05176 0.02197,-0.10815 0.02197,-0.16919"
                 id="path4206"
                 inkscape:connector-curvature="0" />
              <path
                 d="m 49.567,63.057 v 0.91772 H 49.42784 V 63.057 h -0.35449 v -0.11426 h 0.84814 V 63.057 H 49.567"
                 id="path4208"
                 inkscape:connector-curvature="0" />
              <path
                 d="m 51.025,63.454 c -10e-7,0.08057 -0.01172,0.15381 -0.03516,0.21973 -0.02295,0.06592 -0.0564,0.12231 -0.10034,0.16919 -0.04395,0.04687 -0.09766,0.08301 -0.16113,0.1084 -0.06348,0.02539 -0.1355,0.03809 -0.21606,0.03809 -0.08496,0 -0.15942,-0.01318 -0.22339,-0.03955 -0.06397,-0.02686 -0.11719,-0.06396 -0.15967,-0.11133 -0.04248,-0.04785 -0.07446,-0.10449 -0.09595,-0.16992 -0.02148,-0.06543 -0.03223,-0.13696 -0.03223,-0.2146 -10e-7,-0.08057 0.01123,-0.15332 0.03369,-0.21826 0.02246,-0.06494 0.05542,-0.12012 0.09888,-0.16553 0.04346,-0.0459 0.09692,-0.08105 0.1604,-0.10547 0.06396,-0.0249 0.13721,-0.03735 0.21973,-0.03735 0.08203,1e-6 0.15478,0.01245 0.21826,0.03735 0.06396,0.0249 0.11743,0.0603 0.1604,0.1062 0.04346,0.0459 0.07641,0.10132 0.09888,0.16626 0.02246,0.06494 0.03369,0.13721 0.03369,0.2168 m -0.14282,0 c -10e-7,-0.06201 -0.0081,-0.11841 -0.02417,-0.16919 -0.01563,-0.05078 -0.03906,-0.09424 -0.07031,-0.13037 -0.03076,-0.03613 -0.06909,-0.06396 -0.11499,-0.0835 -0.0459,-0.01953 -0.09888,-0.0293 -0.15894,-0.0293 -0.06152,1e-6 -0.11548,0.0098 -0.16186,0.0293 -0.04639,0.01953 -0.08521,0.04736 -0.11646,0.0835 -0.03076,0.03613 -0.05396,0.07959 -0.06958,0.13037 -0.01514,0.05078 -0.02271,0.10718 -0.02271,0.16919 0,0.06201 0.0078,0.1189 0.02344,0.17066 0.01611,0.05127 0.03955,0.0957 0.07031,0.1333 0.03125,0.03711 0.06982,0.06616 0.11572,0.08716 0.04639,0.02051 0.09961,0.03076 0.15967,0.03076 0.06445,0 0.11987,-0.0105 0.16626,-0.03149 0.04687,-0.021 0.0852,-0.05005 0.11499,-0.08716 0.03027,-0.0376 0.05249,-0.08227 0.06665,-0.13403 0.01465,-0.05176 0.02197,-0.10815 0.02197,-0.16919"
                 id="path4210"
                 inkscape:connector-curvature="0" />
              <path
                 d="m 55.795,63.975 v -1.032 h 0.78296 v 0.11426 h -0.64307 v 0.33105 h 0.59912 v 0.11279 h -0.59912 v 0.35962 h 0.6731 v 0.11426 H 55.795"
                 id="path4212"
                 inkscape:connector-curvature="0" />
              <path
                 d="m 57.675,63.975 v -0.68848 c -10e-7,-0.0249 2.43e-4,-0.05029 7.32e-4,-0.07617 4.87e-4,-0.02588 0.0012,-0.04956 0.0022,-0.07105 9.76e-4,-0.0249 0.0022,-0.04907 0.0037,-0.07251 -0.0068,0.0249 -0.01392,0.04956 -0.02124,0.07397 -0.0063,0.021 -0.01343,0.04346 -0.02124,0.06738 -0.0073,0.02344 -0.01465,0.04468 -0.02197,0.06372 l -0.2666,0.70312 h -0.09814 l -0.27026,-0.70312 c -0.0029,-0.0073 -0.0061,-0.01587 -0.0095,-0.02564 -0.0029,-0.0098 -0.0063,-0.02002 -0.01025,-0.03076 -0.0034,-0.01123 -0.0071,-0.02246 -0.01099,-0.03369 -0.0034,-0.01172 -0.0068,-0.02319 -0.01025,-0.03442 -0.0083,-0.02588 -0.01636,-0.05273 -0.02417,-0.08057 4.88e-4,0.02734 0.0012,0.05444 0.0022,0.0813 9.76e-4,0.02295 0.0017,0.04712 0.0022,0.07251 4.88e-4,0.0249 7.33e-4,0.04687 7.33e-4,0.06592 v 0.68848 h -0.12451 v -1.032 h 0.18384 l 0.27466,0.71558 c 0.0034,0.0098 0.0076,0.02246 0.01245,0.03809 0.0049,0.01514 0.0095,0.03076 0.01392,0.04687 0.0044,0.01611 0.0083,0.03149 0.01172,0.04614 0.0039,0.01416 0.0066,0.02515 0.0081,0.03296 0.0015,-0.0078 0.0041,-0.01904 0.0081,-0.03369 0.0039,-0.01465 0.0083,-0.03003 0.01318,-0.04614 0.0054,-0.01611 0.0105,-0.03174 0.01538,-0.04687 0.0049,-0.01514 0.0093,-0.02759 0.01318,-0.03735 l 0.26953,-0.71558 h 0.17944 v 1.032 h -0.12598"
                 id="path4214"
                 inkscape:connector-curvature="0" />
              <path
                 d="M 58.78,63.975 58.66208,63.67324 H 58.19186 L 58.07321,63.975 h -0.14502 l 0.42114,-1.032 h 0.15894 l 0.41455,1.032 H 58.78 m -0.29224,-0.75146 c -0.0078,-0.01953 -0.01538,-0.0393 -0.02271,-0.05933 -0.0068,-0.02002 -0.01294,-0.03809 -0.01831,-0.0542 -0.0054,-0.0166 -0.01001,-0.03027 -0.01392,-0.04102 -0.0034,-0.01123 -0.0054,-0.01807 -0.0059,-0.02051 -9.77e-4,0.0024 -0.0032,0.0093 -0.0066,0.02051 -0.0034,0.01123 -0.0081,0.02515 -0.01392,0.04175 -0.0054,0.0166 -0.01172,0.03491 -0.01904,0.05493 -0.0068,0.02002 -0.01392,0.0398 -0.02124,0.05933 l -0.13184,0.33911 h 0.38599 L 58.4877,63.22353"
                 id="path4216"
                 inkscape:connector-curvature="0" />
              <path
                 d="m 59.066,63.975 v -1.032 h 0.13989 v 1.032 H 59.066"
                 id="path4218"
                 inkscape:connector-curvature="0" />
              <path
                 d="m 59.466,63.975 v -1.032 h 0.13989 v 0.91772 h 0.52148 v 0.11426 h -0.66138"
                 id="path4220"
                 inkscape:connector-curvature="0" />
            </g>
          </g>
        </g>
      </g>
    </g>
  </g>
</svg>
