<?xml version="1.0" encoding="UTF-8" standalone="no"?>
<!-- Created with Inkscape (http://www.inkscape.org/) -->
<svg id="svg2" xmlns:rdf="http://www.w3.org/1999/02/22-rdf-syntax-ns#" xmlns="http://www.w3.org/2000/svg" height="96" width="96" version="1.1" xmlns:cc="http://creativecommons.org/ns#" xmlns:xlink="http://www.w3.org/1999/xlink" xmlns:dc="http://purl.org/dc/elements/1.1/">
 <defs id="defs4">
  <filter id="filter6279" color-interpolation-filters="sRGB">
   <feGaussianBlur id="feGaussianBlur6281" stdDeviation="0.8"/>
  </filter>
  <linearGradient id="linearGradient5801" y2="902.36" gradientUnits="userSpaceOnUse" x2="48" gradientTransform="translate(0 -.0000078516)" y1="1052.4" x1="48">
   <stop id="stop3702-9" style="stop-color:#e1e1e1" offset="0"/>
   <stop id="stop3704-22" style="stop-color:#f5f5f5" offset="1"/>
  </linearGradient>
  <linearGradient id="linearGradient6553" y2="40" gradientUnits="userSpaceOnUse" x2="48" y1="40" x1="16">
   <stop id="stop3746-5" style="stop-color:#167fff" offset="0"/>
   <stop id="stop3748-5" style="stop-color:#0063db" offset="1"/>
  </linearGradient>
  <linearGradient id="linearGradient3144" y2="40" gradientUnits="userSpaceOnUse" y1="40" x2="48" x1="16">
   <stop id="stop3738-2" style="stop-color:#ff41a3" offset="0"/>
   <stop id="stop3740-9" style="stop-color:#ff0084" offset="1"/>
  </linearGradient>
  <linearGradient id="linearGradient3168-5" y2="138.66" gradientUnits="userSpaceOnUse" y1="20.221" x2="48" x1="48">
   <stop id="stop3739-91" style="stop-color:#fff" offset="0"/>
   <stop id="stop3741-54" style="stop-color:#fff;stop-opacity:0" offset="1"/>
  </linearGradient>
  <clipPath id="clipPath3613-92">
   <rect id="rect3615-57" style="fill:#fff" rx="6" ry="6" height="84" width="84" y="6" x="6"/>
  </clipPath>
  <filter id="filter3794-49" width="1.384" y="-.192" x="-.192" height="1.384" color-interpolation-filters="sRGB">
   <feGaussianBlur id="feGaussianBlur3796-94" stdDeviation="5.28"/>
  </filter>
 </defs>
 <metadata id="metadata7">
  <rdf:RDF>
   <cc:Work rdf:about="">
    <dc:format>image/svg+xml</dc:format>
    <dc:type rdf:resource="http://purl.org/dc/dcmitype/StillImage"/>
    <dc:title/>
   </cc:Work>
  </rdf:RDF>
 </metadata>
 <g id="layer1" transform="translate(0 -956.36)">
  <g id="g6582" transform="translate(0,-1e-5)">
   <rect id="rect9283" ry="5" style="filter:url(#filter6279)" rx="5" transform="translate(0 -.0000078516)" height="80" width="80" y="964.36" x="8"/>
   <rect id="rect9285" style="fill:url(#linearGradient5801)" rx="5" ry="5" height="80" width="80" y="964.36" x="8"/>
   <g id="g3107" transform="matrix(.80182 0 0 .80182 9.6726 965.18)">
    <path id="path2407" style="fill:#0063db" d="m17.986 67.983h-2.986v-3.6828h3.0536v-0.73846c0-4.0433 1.6473-5.452 4.8967-5.452 0.88012 0 1.854 0.15649 2.3729 0.26099l-0.24814 3.2345c-0.33841-0.13043-0.9739-0.20874-1.5831-0.20874-1.038 0-1.4442 0.83472-1.4442 2.1652v0.73858h3.1853v3.6828h-3.1853v10.003h-4.0618v-10.003z"/>
    <rect id="rect2409" style="fill:#0063db" height="20.061" width="4.0921" y="57.925" x="28.062"/>
    <rect id="rect2411" style="fill:#0063db" height="3.8049" width="4.0923" y="58.136" x="35.994"/>
    <rect id="rect2413" style="fill:#0063db" height="13.752" width="3.9933" y="64.235" x="35.994"/>
    <path id="path2415" style="fill:#0063db" d="m53.005 68.38c-0.75748-0.51615-1.515-0.74874-2.502-0.74874-1.7904 0-3.1677 1.3945-3.1677 3.7189 0 2.1435 1.6069 3.5378 3.3973 3.5378 0.94123 0 1.8825-0.23221 2.5709-0.64554l0.09182 3.4605c-1.0331 0.38766-2.2724 0.59419-3.3743 0.59419-3.9483 0-6.9552-2.5825-6.9552-7.0244 0-4.4678 3.0069-7.0502 6.9552-7.0502 1.2396 0 2.3412 0.23246 3.2824 0.74887l-0.2985 3.4086z"/>
    <path id="polygon2417" style="fill:#0063db" d="m69.739 64.136-5.0736 6.568 5.4613 7.2827h-5.337l-4.413-6.663h-0.05176v6.6627h-4.0578v-19.863h4.0578v12.065h0.05176l4.5694-6.0519h4.7942z"/>
    <path id="path2419" style="fill:#ff0084" d="m80.884 67.855c-0.4779-0.15468-0.95593-0.15468-1.4575-0.15468-2.0071 0-3.1303 1.5751-3.1303 4.2094v6.0773h-4.3009v-13.851h3.9186v2.4792h0.04785c0.74054-1.7045 1.8159-2.7891 3.6798-2.7891 0.5014 0 1.0272 0.0774 1.4577 0.15481l-0.21527 3.8737z"/>
    <path id="path3732" style="color:#000000;fill:url(#linearGradient6553)" transform="matrix(0 .9375 -.9375 0 68.5 4)" d="m48 40a16 16 0 1 1 -32 0 16 16 0 1 1 32 0z"/>
    <path id="path3734" style="color:#000000;fill:url(#linearGradient3144)" transform="matrix(0 .9375 -.9375 0 102.5 4)" d="m48 40a16 16 0 1 1 -32 0 16 16 0 1 1 32 0z"/>
   </g>
   <g id="layer5" transform="translate(0 956.36)">
    <rect id="rect3171" style="opacity:.1;filter:url(#filter3794-49);stroke:#fff;stroke-linecap:round;stroke-width:.5;fill:url(#linearGradient3168-5)" clip-path="url(#clipPath3613-92)" rx="12" ry="12" height="66" width="66" y="15" x="15"/>
   </g>
  </g>
 </g>
</svg>
