<?xml version="1.0" encoding="UTF-8" standalone="no"?>
<!-- Created with Inkscape (http://www.inkscape.org/) -->

<svg
   xmlns:dc="http://purl.org/dc/elements/1.1/"
   xmlns:cc="http://creativecommons.org/ns#"
   xmlns:rdf="http://www.w3.org/1999/02/22-rdf-syntax-ns#"
   xmlns:svg="http://www.w3.org/2000/svg"
   xmlns="http://www.w3.org/2000/svg"
   xmlns:xlink="http://www.w3.org/1999/xlink"
   xmlns:sodipodi="http://sodipodi.sourceforge.net/DTD/sodipodi-0.dtd"
   xmlns:inkscape="http://www.inkscape.org/namespaces/inkscape"
   width="96"
   height="96"
   id="svg2"
   version="1.1"
   inkscape:version="0.48.1 r9760"
   sodipodi:docname="fusion-icon.svg">
  <defs
     id="defs4">
    <filter
       color-interpolation-filters="sRGB"
       inkscape:collect="always"
       id="filter6279">
      <feGaussianBlur
         inkscape:collect="always"
         stdDeviation="0.8"
         id="feGaussianBlur6281" />
    </filter>
    <linearGradient
       inkscape:collect="always"
       xlink:href="#linearGradient3617-7"
       id="linearGradient5801"
       gradientUnits="userSpaceOnUse"
       gradientTransform="translate(0,-7.8515622e-6)"
       x1="48"
       y1="1052.3622"
       x2="48"
       y2="902.36218" />
    <linearGradient
       id="linearGradient3617-7"
       y2="5.9877"
       gradientUnits="userSpaceOnUse"
       x2="48"
       gradientTransform="matrix(1.0172,0,0,1.0172,-1.1034,-1.1034)"
       y1="90"
       x1="48">
      <stop
         id="stop3189-6"
         style="stop-color:#242424"
         offset="0" />
      <stop
         id="stop3191-4"
         style="stop-color:#505050"
         offset="1" />
    </linearGradient>
    <radialGradient
       id="radialGradient3744"
       gradientUnits="userSpaceOnUse"
       cy="67.782997"
       cx="99.944"
       gradientTransform="matrix(1,0,0,0.60345,0,26.88)"
       r="14.492">
      <stop
         id="stop3389-8"
         style="stop-color:#fdb377"
         offset="0" />
      <stop
         id="stop3391-2"
         style="stop-color:#fdb377;stop-opacity:.46875"
         offset=".82258" />
      <stop
         id="stop3393-9"
         style="stop-color:#fdb377;stop-opacity:0"
         offset="1" />
    </radialGradient>
    <clipPath
       id="clipPath2920">
      <path
         inkscape:connector-curvature="0"
         id="path2922"
         style="fill:#ff00ff;fill-rule:evenodd"
         d="M 34.312,6 C 31.437,6.0063 28.505,6.0263 25.5,6.0625 0.818,34.5585 25.318,52.9045 45.938,57.3445 24.114,43.1935 41.875,16.8045 60.188,6.0315 51.171,6.076 42.939,5.9815 34.312,6.0005 z M 50.906,38.469 C 72.73,52.619 53.401,80.428 25.562,89.781 37.584,89.72194 63.478,89.8634 75.5,89.7185 92.388,59.9795 71.5261,42.9075 50.906,38.4685 z" />
    </clipPath>
    <linearGradient
       id="linearGradient2916"
       y2="5.8126998"
       xlink:href="#linearGradient3319-9"
       spreadMethod="reflect"
       gradientUnits="userSpaceOnUse"
       x2="30.996"
       y1="31.705"
       x1="28.275" />
    <linearGradient
       id="linearGradient3319-9">
      <stop
         id="stop3321-6"
         style="stop-color:#fdb377"
         offset="0" />
      <stop
         id="stop3323-0"
         style="stop-color:#fdb377;stop-opacity:0"
         offset="1" />
    </linearGradient>
    <filter
       id="filter3795"
       height="1.2108999"
       width="1.2403001"
       color-interpolation-filters="sRGB"
       y="-0.10544"
       x="-0.12014">
      <feGaussianBlur
         id="feGaussianBlur3797"
         stdDeviation="2.2552138" />
    </filter>
    <linearGradient
       id="linearGradient2918-2"
       y2="89.625999"
       xlink:href="#linearGradient3319-9"
       spreadMethod="reflect"
       gradientUnits="userSpaceOnUse"
       x2="66.271004"
       y1="64.098999"
       x1="68.954002" />
    <linearGradient
       id="linearGradient5720">
      <stop
         id="stop5722"
         style="stop-color:#fdb377"
         offset="0" />
      <stop
         id="stop5724"
         style="stop-color:#fdb377;stop-opacity:0"
         offset="1" />
    </linearGradient>
    <filter
       id="filter3790"
       height="1.2108999"
       width="1.1928999"
       color-interpolation-filters="sRGB"
       y="-0.10544"
       x="-0.096450001">
      <feGaussianBlur
         id="feGaussianBlur3792"
         stdDeviation="2.2552138" />
    </filter>
    <linearGradient
       id="linearGradient3613-85"
       y2="138.66"
       xlink:href="#linearGradient3737-84"
       gradientUnits="userSpaceOnUse"
       x2="48"
       y1="20.221001"
       x1="48" />
    <linearGradient
       id="linearGradient3737-84">
      <stop
         id="stop3739-37"
         style="stop-color:#fff"
         offset="0" />
      <stop
         id="stop3741-13"
         style="stop-color:#fff;stop-opacity:0"
         offset="1" />
    </linearGradient>
    <clipPath
       id="clipPath3613-80">
      <rect
         id="rect3615-9"
         style="fill:#ffffff"
         rx="6"
         ry="6"
         height="84"
         width="84"
         y="6"
         x="6" />
    </clipPath>
    <filter
       id="filter3794-79"
       height="1.3839999"
       width="1.3839999"
       color-interpolation-filters="sRGB"
       y="-0.192"
       x="-0.192">
      <feGaussianBlur
         id="feGaussianBlur3796-93"
         stdDeviation="5.28" />
    </filter>
    <radialGradient
       id="radialGradient3619-24"
       xlink:href="#linearGradient3737-84"
       gradientUnits="userSpaceOnUse"
       cy="90.171997"
       cx="48"
       gradientTransform="matrix(1.1573,0,0,0.99591,-7.551,0.19713)"
       r="42" />
    <linearGradient
       id="linearGradient5737">
      <stop
         id="stop5739"
         style="stop-color:#fff"
         offset="0" />
      <stop
         id="stop5741"
         style="stop-color:#fff;stop-opacity:0"
         offset="1" />
    </linearGradient>
    <linearGradient
       y2="63.893002"
       x2="36.356998"
       y1="6"
       x1="36.356998"
       gradientUnits="userSpaceOnUse"
       id="linearGradient3246-2"
       xlink:href="#linearGradient3737-84"
       inkscape:collect="always" />
    <linearGradient
       id="linearGradient5744">
      <stop
         id="stop5746"
         style="stop-color:#fff"
         offset="0" />
      <stop
         id="stop5748"
         style="stop-color:#fff;stop-opacity:0"
         offset="1" />
    </linearGradient>
  </defs>
  <sodipodi:namedview
     id="base"
     pagecolor="#ffffff"
     bordercolor="#666666"
     borderopacity="1.0"
     inkscape:pageopacity="0.0"
     inkscape:pageshadow="2"
     inkscape:zoom="3.959798"
     inkscape:cx="28.389459"
     inkscape:cy="57.490015"
     inkscape:document-units="px"
     inkscape:current-layer="layer1"
     showgrid="false"
     inkscape:window-width="1280"
     inkscape:window-height="725"
     inkscape:window-x="0"
     inkscape:window-y="25"
     inkscape:window-maximized="1" />
  <metadata
     id="metadata7">
    <rdf:RDF>
      <cc:Work
         rdf:about="">
        <dc:format>image/svg+xml</dc:format>
        <dc:type
           rdf:resource="http://purl.org/dc/dcmitype/StillImage" />
        <dc:title></dc:title>
      </cc:Work>
    </rdf:RDF>
  </metadata>
  <g
     inkscape:label="Layer 1"
     inkscape:groupmode="layer"
     id="layer1"
     transform="translate(0,-956.36217)">
    <g
       transform="translate(0,-1e-5)"
       id="g6589">
      <rect
         transform="translate(0,-7.8515622e-6)"
         y="964.36218"
         x="8"
         height="80"
         width="80"
         id="rect9283"
         style="fill:#000000;fill-opacity:1;stroke:none;filter:url(#filter6279)"
         rx="5"
         ry="5" />
      <rect
         ry="5"
         rx="5"
         style="fill:url(#linearGradient5801);fill-opacity:1;stroke:none"
         id="rect9285"
         width="80"
         height="80"
         x="8"
         y="964.36218" />
      <g
         id="layer3"
         transform="matrix(0.65689121,0,0,0.65689121,16.469344,972.87112)">
        <path
           d="m 50.804,37.859 c -0.23886,0.04576 -0.4289,0.24402 -0.47656,0.48806 -0.04766,0.24403 0.05664,0.48484 0.25994,0.62116 5.3479,3.4676 8.112,7.7027 8.903,12.268 0.79105,4.5653 -0.39931,9.5198 -3.141,14.375 -5.4833,9.7114 -17.184,18.948 -30.976,23.582 -0.23951,0.09727 -0.38138,0.34066 -0.36825,0.59898 h 51.144 c 8.375,-14.894 7.397,-26.854 1.624,-35.539 -5.804,-8.732 -16.31,-14.151 -26.73,-16.394 -0.07861,-0.01645 -0.15967,-0.01645 -0.23828,0 z"
           style="fill-rule:evenodd"
           id="path3427"
           inkscape:connector-curvature="0" />
        <path
           d="m 24.702,6.0241 c -6.009,7.0399 -9.083,13.522 -9.943,19.367 -0.87583,5.9514 0.56545,11.224 3.4442,15.684 5.7576,8.9216 17.167,14.637 27.597,16.882 0.28575,0.04394 0.56332,-0.12493 0.67152,-0.39932 0.1082,-0.27439 0.01878,-0.58266 -0.21662,-0.75427 -5.3495,-3.4686 -8.1943,-7.6259 -9.2713,-12.09 -1.077,-4.4646 -0.36054,-9.2776 1.603,-14.043 3.927,-9.5302 12.859,-18.774 21.9,-24.092 0.19958,-0.11421 0.32334,-0.32876 0.32493,-0.55461 h -36.11 z"
           style="fill-rule:evenodd"
           id="path3309"
           inkscape:connector-curvature="0" />
        <path
           d="M 25.503,6.0685 C 0.821,34.5645 25.311,52.8985 45.93,57.3365 24.107,43.1865 41.871,16.7975 60.184,6.0245 48.162,6.0837 37.525,5.9241 25.503,6.069 z"
           style="fill:#e72121;fill-rule:evenodd"
           id="path3299"
           inkscape:connector-curvature="0" />
        <path
           transform="matrix(0.49015,0.50198,-0.49015,0.50198,32.614,-36.287)"
           d="m 114.44,67.783 a 14.492,8.7451 0 1 1 -28.984,0 14.492,8.7451 0 1 1 28.984,0 z"
           style="fill:#ee0000;stroke:#000000;stroke-width:1.42550004;stroke-linecap:square;stroke-linejoin:round"
           id="path3301"
           inkscape:connector-curvature="0" />
        <path
           d="M 41.858,51.701 C 29.01,41.697 43.762,15.96 58.636,9.182 37.04,24.561 33.599,44.248 41.858,51.701 z"
           style="opacity:0.3;fill:#ffffff;fill-rule:evenodd"
           id="path3351"
           inkscape:connector-curvature="0" />
        <path
           d="M 49.145,39.347 C 39.701,33.8923 37.855,38.0647 39.2862,45.1165 38.91453,41.4704 39.23871,35.8401 49.145,39.347 z"
           style="opacity:0.3;fill-rule:evenodd"
           id="path3353"
           inkscape:connector-curvature="0" />
        <path
           d="m 47.673,56.413 c 9.444,5.4547 11.29,1.2823 9.8588,-5.7695 0.37167,3.6461 0.04748,9.2764 -9.8588,5.7695 z"
           style="opacity:0.3;fill:#ffffff;fill-rule:evenodd"
           id="path3355"
           inkscape:connector-curvature="0" />
        <path
           d="M 31.959,53.302 C 13.139,47.74 3.222,26.685 20.136,10.538 5.26,31.277 17.329,46.897 31.959,53.302 z"
           style="opacity:0.3;fill-rule:evenodd"
           id="path3357"
           inkscape:connector-curvature="0" />
        <path
           transform="matrix(0.49739,0.50939,-0.49739,0.50939,32.382,-37.53)"
           d="m 114.44,67.783 a 14.492,8.7451 0 1 1 -28.984,0 14.492,8.7451 0 1 1 28.984,0 z"
           style="fill:url(#radialGradient3744)"
           id="path3367"
           inkscape:connector-curvature="0" />
        <path
           d="M 75.507,89.73 C 92.396,59.991 71.541,42.901 50.921,38.462 72.745,52.612 53.416,80.42 25.577,89.774 37.599,89.715 63.486,89.875 75.507,89.73 z"
           style="fill:#e72121;fill-rule:evenodd"
           id="path3399"
           inkscape:connector-curvature="0" />
        <path
           d="M 54.994,44.097 C 67.841,54.101 51.704,77.71 33.712,84.665 56.52,71.237 64.119,53.501 54.994,44.097 z"
           style="opacity:0.3;fill-rule:evenodd"
           id="path3405"
           inkscape:connector-curvature="0" />
        <path
           d="M 64.892,42.496 C 83.712,48.058 90.858,71.064 78.101,88.098 90.032,66.295 79.523,48.902 64.892,42.496 z"
           style="opacity:0.2;fill:#ffffff;fill-rule:evenodd"
           id="path3407"
           inkscape:connector-curvature="0" />
        <g
           clip-path="url(#clipPath2920)"
           style="opacity:0.8"
           id="g2912">
          <path
             d="M 52.406,8.4688 C 43.83,8.456 35.514,8.4081 26.688,8.5 c -5.4532,6.5207 -8.1412,12.35 -8.875,17.344 -0.7661,5.2129 0.4328,9.6333 2.9688,13.562 3.4215,5.3014 9.4941,9.449 16.062,12.312 -1.296,-2.001 -2.317,-4.098 -2.844,-6.28 -1.269,-5.261 -0.393,-10.737 1.75,-15.938 3.295,-7.998 9.57,-15.435 16.656,-21.031 z"
             style="fill:url(#linearGradient2916);fill-rule:evenodd;filter:url(#filter3795)"
             id="path2907"
             inkscape:connector-curvature="0" />
          <path
             d="m 59.094,43.312 c 1.6038,2.3295 2.6421,4.8626 3.0938,7.4688 0.9277,5.3536 -0.50079,10.931 -3.4688,16.188 -4.5425,8.0454 -12.742,15.47 -22.781,20.688 12.721,0.0024 28.507,0.03673 38.219,-0.0625 7.509,-13.836 6.457,-24.127 1.343,-31.813 -3.693,-5.551 -9.729,-9.708 -16.406,-12.469 z"
             style="fill:url(#linearGradient2918-2);fill-rule:evenodd;filter:url(#filter3790)"
             id="path2903"
             inkscape:connector-curvature="0" />
        </g>
      </g>
      <g
         id="layer5"
         transform="translate(0,956.36218)">
        <rect
           x="15"
           y="15"
           width="66"
           height="66"
           ry="12"
           rx="12"
           clip-path="url(#clipPath3613-80)"
           style="opacity:0.1;fill:url(#linearGradient3613-85);stroke:#ffffff;stroke-width:0.5;stroke-linecap:round;filter:url(#filter3794-79)"
           id="rect3171" />
        <path
           d="M 12,90 C 8.676,90 6,87.324 6,84 V 82 14 12 c 0,-0.33472 0.04135,-0.6507 0.09375,-0.96875 0.0487,-0.2956 0.09704,-0.59692 0.1875,-0.875 0.0099,-0.03 0.0209,-0.063 0.0313,-0.094 0.0989,-0.2873 0.2349,-0.547 0.375,-0.812 0.1446,-0.2735 0.3156,-0.5356 0.5,-0.7812 0.1844,-0.2457 0.3738,-0.4735 0.5937,-0.6876 0.44,-0.428 0.943,-0.8145 1.5,-1.0937 0.2786,-0.1396 0.5735,-0.2469 0.8748,-0.3437 -0.256,0.1002 -0.4865,0.2362 -0.7185,0.375 -0.00741,0.0044 -0.023866,-0.0045 -0.03125,0 -0.031933,0.0193 -0.062293,0.04251 -0.09375,0.0625 -0.1204,0.0767 -0.23102,0.16351 -0.34375,0.25 -0.10617,0.0808 -0.21328,0.16111 -0.3125,0.25 -0.1779,0.1614 -0.3474,0.3453 -0.5,0.5312 -0.1075,0.1303 -0.2183,0.2653 -0.3124,0.4063 -0.0251,0.0383 -0.0385,0.0858 -0.0626,0.125 -0.0647,0.103 -0.1302,0.2045 -0.1874,0.3124 -0.1011,0.1948 -0.2057,0.4158 -0.2813,0.625 -0.008,0.0219 -0.0236,0.0406 -0.0313,0.0626 -0.0318,0.0919 -0.0358,0.1868 -0.0624,0.2812 -0.0304,0.1066 -0.0704,0.203 -0.0938,0.3125 -0.0729,0.3415 -0.125,0.6985 -0.125,1.0625 v 2 68 2 c 0,2.7818 2.2182,5 5,5 h 2 68 2 c 2.7818,0 5,-2.2182 5,-5 v -2 -68 -2 c 0,-0.364 -0.052,-0.721 -0.125,-1.0625 -0.044,-0.2069 -0.088,-0.3977 -0.156,-0.5937 -0.008,-0.022 -0.024,-0.0407 -0.031,-0.0626 -0.063,-0.1737 -0.139,-0.3674 -0.219,-0.5312 -0.042,-0.0828 -0.079,-0.17 -0.125,-0.25 -0.055,-0.0972 -0.127,-0.1884 -0.188,-0.2812 -0.094,-0.141 -0.205,-0.276 -0.312,-0.4063 -0.143,-0.1745 -0.303,-0.347 -0.469,-0.5 -0.011,-0.0102 -0.02,-0.0211 -0.031,-0.0313 -0.139,-0.1255 -0.285,-0.2344 -0.438,-0.3437 -0.102,-0.0731 -0.204,-0.1534 -0.312,-0.2187 -0.0074,-0.0045 -0.02384,0.0044 -0.03125,0 -0.23204,-0.13873 -0.46255,-0.27478 -0.71875,-0.375 0.30153,0.0968 0.59646,0.20414 0.875,0.34375 0.55709,0.27922 1.0601,0.66569 1.5,1.0938 0.21997,0.21403 0.40937,0.44186 0.59375,0.6875 0.18438,0.24564 0.35541,0.50774 0.5,0.78125 0.14012,0.26505 0.27614,0.52473 0.375,0.8125 0.01041,0.03078 0.02133,0.06274 0.03125,0.09375 0.09046,0.27808 0.1388,0.5794 0.1875,0.875 0.053,0.318 0.094,0.634 0.094,0.969 v 2 68 2 c 0,3.324 -2.676,6 -6,6 h -72 z"
           style="opacity:0.2;fill:url(#radialGradient3619-24)"
           id="path3615"
           inkscape:connector-curvature="0" />
        <path
           d="M 12,6 C 8.676,6 6,8.676 6,12 v 2 68 2 c 0,0.33472 0.04135,0.6507 0.09375,0.96875 0.0487,0.2956 0.09704,0.59692 0.1875,0.875 0.00988,0.03038 0.020892,0.0636 0.03125,0.09375 0.098865,0.28777 0.23488,0.54745 0.375,0.8125 0.14459,0.27351 0.31562,0.53562 0.5,0.78125 0.18438,0.24564 0.37378,0.47347 0.59375,0.6875 0.43995,0.42806 0.94291,0.81453 1.5,1.0938 0.27854,0.13961 0.57347,0.24695 0.875,0.34375 -0.2562,-0.10022 -0.48671,-0.23627 -0.71875,-0.375 -0.00741,-0.0044 -0.023866,0.0045 -0.03125,0 C 9.374317,89.262 9.343957,89.23879 9.3125,89.2188 9.1921,89.1421 9.08148,89.05529 8.96875,88.9688 8.86258,88.888 8.75547,88.80769 8.65625,88.7188 c -0.1778,-0.162 -0.3473,-0.346 -0.4999,-0.531 -0.1075,-0.131 -0.2183,-0.266 -0.3124,-0.407 -0.0251,-0.038 -0.0385,-0.086 -0.0626,-0.125 -0.0647,-0.103 -0.1302,-0.204 -0.1874,-0.312 -0.1011,-0.195 -0.2057,-0.416 -0.2813,-0.625 -0.008,-0.022 -0.0236,-0.041 -0.0313,-0.063 -0.0318,-0.092 -0.0358,-0.187 -0.0624,-0.281 -0.0304,-0.107 -0.0704,-0.203 -0.0938,-0.313 -0.0729,-0.341 -0.125,-0.698 -0.125,-1.062 v -2 -68 -2 c 0,-2.782 2.2182,-5 5,-5 h 2 68 2 c 2.7818,0 5,2.2182 5,5 v 2 68 2 c 0,0.3643 -0.05212,0.72099 -0.125,1.0625 -0.04415,0.20689 -0.08838,0.39766 -0.15625,0.59375 -0.0077,0.02195 -0.0233,0.04069 -0.03125,0.0625 -0.06274,0.17374 -0.13838,0.36745 -0.21875,0.53125 -0.04158,0.0828 -0.07904,0.16995 -0.125,0.25 -0.0546,0.09721 -0.12677,0.18835 -0.1875,0.28125 -0.09411,0.14096 -0.20492,0.276 -0.3125,0.40625 -0.14317,0.17445 -0.30314,0.347 -0.46875,0.5 -0.01117,0.0102 -0.01998,0.02115 -0.03125,0.03125 -0.13839,0.12556 -0.28509,0.23444 -0.4375,0.34375 -0.10257,0.07315 -0.20432,0.15336 -0.3125,0.21875 -0.0074,0.0045 -0.02384,-0.0044 -0.03125,0 -0.23204,0.13873 -0.46255,0.27478 -0.71875,0.375 0.30153,-0.0968 0.59646,-0.20414 0.875,-0.34375 0.55709,-0.27922 1.0601,-0.66569 1.5,-1.0938 0.21997,-0.21403 0.40937,-0.44186 0.59375,-0.6875 0.18438,-0.24564 0.35541,-0.50774 0.5,-0.78125 0.14012,-0.26505 0.27614,-0.52473 0.375,-0.8125 0.01041,-0.03078 0.02133,-0.06274 0.03125,-0.09375 0.09046,-0.27808 0.1388,-0.5794 0.1875,-0.875 0.053,-0.318 0.094,-0.634 0.094,-0.969 v -2 -68 -2 c 0,-3.324 -2.676,-6 -6,-6 h -72 z"
           style="opacity:0.3;fill:url(#linearGradient3246-2)"
           id="rect3728"
           inkscape:connector-curvature="0" />
      </g>
    </g>
  </g>
</svg>
