<?xml version="1.0" encoding="UTF-8" standalone="no"?>
<!-- Created with Inkscape (http://www.inkscape.org/) -->

<svg
   xmlns:dc="http://purl.org/dc/elements/1.1/"
   xmlns:cc="http://creativecommons.org/ns#"
   xmlns:rdf="http://www.w3.org/1999/02/22-rdf-syntax-ns#"
   xmlns:svg="http://www.w3.org/2000/svg"
   xmlns="http://www.w3.org/2000/svg"
   xmlns:xlink="http://www.w3.org/1999/xlink"
   xmlns:sodipodi="http://sodipodi.sourceforge.net/DTD/sodipodi-0.dtd"
   xmlns:inkscape="http://www.inkscape.org/namespaces/inkscape"
   width="96"
   height="96"
   id="svg2982"
   version="1.1"
   inkscape:version="0.48.1 r9760"
   sodipodi:docname="gajim.svg">
  <defs
     id="defs2984">
    <filter
       color-interpolation-filters="sRGB"
       inkscape:collect="always"
       id="filter6279-2">
      <feGaussianBlur
         inkscape:collect="always"
         stdDeviation="0.8"
         id="feGaussianBlur6281-1" />
    </filter>
    <linearGradient
       inkscape:collect="always"
       xlink:href="#ButtonColor"
       id="linearGradient9181"
       gradientUnits="userSpaceOnUse"
       gradientTransform="translate(0,-7.8515622e-6)"
       x1="48"
       y1="1052.3622"
       x2="48"
       y2="902.36218" />
    <linearGradient
       x1="10.31979"
       y1="21"
       x2="10.31979"
       y2="0.99929649"
       id="ButtonColor"
       gradientUnits="userSpaceOnUse">
      <stop
         id="stop3189-94"
         style="stop-color:#5a9b0f;stop-opacity:1"
         offset="0" />
      <stop
         id="stop3191-6"
         style="stop-color:#8fe02f;stop-opacity:1"
         offset="1" />
    </linearGradient>
    <linearGradient
       y2="138.66119"
       x2="48"
       y1="20.220806"
       x1="48"
       gradientUnits="userSpaceOnUse"
       id="linearGradient3248-5"
       xlink:href="#linearGradient3737-2"
       inkscape:collect="always" />
    <linearGradient
       id="linearGradient3737-2">
      <stop
         id="stop3739-961"
         style="stop-color:#ffffff;stop-opacity:1"
         offset="0" />
      <stop
         id="stop3741-04"
         style="stop-color:#ffffff;stop-opacity:0"
         offset="1" />
    </linearGradient>
    <clipPath
       id="clipPath3613-22">
      <rect
         width="84"
         height="84"
         rx="6"
         ry="6"
         x="6"
         y="6"
         id="rect3615-20"
         style="fill:#ffffff;fill-opacity:1;fill-rule:nonzero;stroke:none" />
    </clipPath>
    <filter
       x="-0.19410552"
       y="-0.19410552"
       width="1.388211"
       height="1.388211"
       color-interpolation-filters="sRGB"
       id="filter4055">
      <feGaussianBlur
         id="feGaussianBlur4057"
         stdDeviation="5.3379019" />
    </filter>
    <radialGradient
       cx="24"
       cy="34.75"
       r="42"
       fx="24"
       fy="34.75"
       id="radialGradient5730"
       xlink:href="#linearGradient4285-7"
       gradientUnits="userSpaceOnUse"
       gradientTransform="matrix(0.5,0,0,0.52380952,12,17.797619)" />
    <linearGradient
       id="linearGradient4285-7">
      <stop
         id="stop4287-6"
         style="stop-color:#ffffff;stop-opacity:1"
         offset="0" />
      <stop
         id="stop5732"
         style="stop-color:#ffffff;stop-opacity:0.70866144"
         offset="0.5" />
      <stop
         id="stop4289-1"
         style="stop-color:#ffffff;stop-opacity:0"
         offset="1" />
    </linearGradient>
    <linearGradient
       x1="32"
       y1="16"
       x2="39"
       y2="6"
       id="linearGradient5782"
       xlink:href="#linearGradient4239-3"
       gradientUnits="userSpaceOnUse" />
    <linearGradient
       id="linearGradient4239-3">
      <stop
         id="stop5734"
         style="stop-color:#e2f39e;stop-opacity:0"
         offset="0" />
      <stop
         id="stop5736"
         style="stop-color:#e0f298;stop-opacity:0.29133859"
         offset="0.30000001" />
      <stop
         id="stop4243-2"
         style="stop-color:#e0f297;stop-opacity:0.16535433"
         offset="1" />
    </linearGradient>
    <linearGradient
       x1="42"
       y1="23"
       x2="70"
       y2="1"
       id="linearGradient5784"
       xlink:href="#linearGradient4239-3"
       gradientUnits="userSpaceOnUse" />
    <linearGradient
       id="linearGradient7006">
      <stop
         id="stop7008"
         style="stop-color:#e2f39e;stop-opacity:0"
         offset="0" />
      <stop
         id="stop7010"
         style="stop-color:#e0f298;stop-opacity:0.29133859"
         offset="0.30000001" />
      <stop
         id="stop7012"
         style="stop-color:#e0f297;stop-opacity:0.16535433"
         offset="1" />
    </linearGradient>
    <linearGradient
       x1="44"
       y1="36"
       x2="96"
       y2="24"
       id="linearGradient5770-9"
       xlink:href="#linearGradient4239-3"
       gradientUnits="userSpaceOnUse" />
    <linearGradient
       id="linearGradient7015">
      <stop
         id="stop7017"
         style="stop-color:#e2f39e;stop-opacity:0"
         offset="0" />
      <stop
         id="stop7019"
         style="stop-color:#e0f298;stop-opacity:0.29133859"
         offset="0.30000001" />
      <stop
         id="stop7021"
         style="stop-color:#e0f297;stop-opacity:0.16535433"
         offset="1" />
    </linearGradient>
    <linearGradient
       x1="42"
       y1="45"
       x2="96"
       y2="48"
       id="linearGradient5774"
       xlink:href="#linearGradient4239-3"
       gradientUnits="userSpaceOnUse" />
    <linearGradient
       id="linearGradient7024">
      <stop
         id="stop7026"
         style="stop-color:#e2f39e;stop-opacity:0"
         offset="0" />
      <stop
         id="stop7028"
         style="stop-color:#e0f298;stop-opacity:0.29133859"
         offset="0.30000001" />
      <stop
         id="stop7030"
         style="stop-color:#e0f297;stop-opacity:0.16535433"
         offset="1" />
    </linearGradient>
    <linearGradient
       x1="36"
       y1="51"
       x2="82"
       y2="76"
       id="linearGradient5776-7"
       xlink:href="#linearGradient4239-3"
       gradientUnits="userSpaceOnUse" />
    <linearGradient
       id="linearGradient7033">
      <stop
         id="stop7035"
         style="stop-color:#e2f39e;stop-opacity:0"
         offset="0" />
      <stop
         id="stop7037"
         style="stop-color:#e0f298;stop-opacity:0.29133859"
         offset="0.30000001" />
      <stop
         id="stop7039"
         style="stop-color:#e0f297;stop-opacity:0.16535433"
         offset="1" />
    </linearGradient>
    <linearGradient
       y2="72"
       x2="48"
       y1="56"
       x1="32"
       gradientUnits="userSpaceOnUse"
       id="linearGradient3226"
       xlink:href="#linearGradient4239-3"
       inkscape:collect="always" />
    <linearGradient
       id="linearGradient7042">
      <stop
         id="stop7044"
         style="stop-color:#e2f39e;stop-opacity:0"
         offset="0" />
      <stop
         id="stop7046"
         style="stop-color:#e0f298;stop-opacity:0.29133859"
         offset="0.30000001" />
      <stop
         id="stop7048"
         style="stop-color:#e0f297;stop-opacity:0.16535433"
         offset="1" />
    </linearGradient>
  </defs>
  <sodipodi:namedview
     id="base"
     pagecolor="#ffffff"
     bordercolor="#666666"
     borderopacity="1.0"
     inkscape:pageopacity="0.0"
     inkscape:pageshadow="2"
     inkscape:zoom="3.959798"
     inkscape:cx="36.39115"
     inkscape:cy="42.877139"
     inkscape:document-units="px"
     inkscape:current-layer="layer1"
     showgrid="false"
     inkscape:window-width="1280"
     inkscape:window-height="725"
     inkscape:window-x="0"
     inkscape:window-y="25"
     inkscape:window-maximized="1" />
  <metadata
     id="metadata2987">
    <rdf:RDF>
      <cc:Work
         rdf:about="">
        <dc:format>image/svg+xml</dc:format>
        <dc:type
           rdf:resource="http://purl.org/dc/dcmitype/StillImage" />
        <dc:title></dc:title>
      </cc:Work>
    </rdf:RDF>
  </metadata>
  <g
     inkscape:label="Layer 1"
     inkscape:groupmode="layer"
     id="layer1"
     transform="translate(0,-956.36218)">
    <g
       id="g6955">
      <rect
         transform="translate(0,-7.8515622e-6)"
         y="964.36218"
         x="8"
         height="80"
         width="80"
         id="rect9283"
         style="fill:#000000;fill-opacity:1;stroke:none;filter:url(#filter6279-2)"
         rx="5"
         ry="5" />
      <rect
         ry="5"
         rx="5"
         style="fill:url(#linearGradient9181);fill-opacity:1;stroke:none"
         id="rect9285"
         width="80"
         height="80"
         x="8"
         y="964.36218" />
      <g
         style="display:inline"
         id="layer5"
         transform="translate(0,956.36218)">
        <rect
           style="opacity:0.1;fill:url(#linearGradient3248-5);fill-opacity:1;fill-rule:nonzero;stroke:#ffffff;stroke-width:0.57973403;stroke-linecap:round;stroke-linejoin:miter;stroke-miterlimit:4;stroke-opacity:1;stroke-dasharray:none;stroke-dashoffset:0;filter:url(#filter4055)"
           id="rect3171"
           clip-path="url(#clipPath3613-22)"
           transform="matrix(1,0,0,0.74384496,0,3.8423256)"
           y="15"
           x="15"
           ry="12"
           rx="12"
           height="66"
           width="66" />
      </g>
      <g
         id="g3129"
         transform="translate(10.5,965.36218)">
        <path
           d="M 12,6 C 8.676,6 6,8.676 6,12 l 0,56 c 0,3.324 2.676,6 6,6 L 24,74 21,90 44,74 64,74 64,6 12,6 z"
           inkscape:connector-curvature="0"
           id="path3984-5"
           style="opacity:0.2;fill:url(#radialGradient5730);fill-opacity:1;fill-rule:nonzero;stroke:none" />
        <path
           d="m 22.0625,14.09375 c -0.309406,-0.01 -0.641762,-0.0076 -0.9375,0.03125 -0.943094,0.123944 -1.89608,0.103621 -2.84375,0.25 -1.815364,0.280343 -3.549663,0.850977 -5.25,1.53125 -0.619144,0.247669 -1.243778,0.522137 -1.84375,0.8125 -0.22328,0.108042 -0.539238,0.170359 -0.71875,0.34375 -0.09344,0.0904 -0.0824,0.316606 -0.09375,0.4375 -0.03157,0.340028 -0.09208,0.69144 -0.125,1.03125 -0.126988,1.311318 -0.219041,2.658086 -0.03125,3.96875 0.06078,0.423455 0.198294,1.168751 0.71875,1.25 0.800378,0.12525 1.419708,-0.831087 1.8125,-1.375 0.917387,-1.270367 1.964243,-2.463375 3.46875,-3.03125 1.771162,-0.668511 3.813728,-0.840232 5.6875,-0.96875 5.25706,-0.360286 11.002409,0.59666 14.875,4.46875 0.550738,0.550666 1.056665,1.138878 1.5,1.78125 1.733908,2.510673 2.652157,5.376396 3.09375,8.375 0.207615,1.407815 0.352369,2.816816 0.03125,4.21875 -0.557274,2.432254 -2.008491,4.5727 -3.6875,6.375 -1.149186,1.233553 -2.466591,2.330202 -3.8125,3.34375 -0.751381,0.565696 -1.574746,1.06909 -2.28125,1.6875 -0.813688,0.712294 -1.485644,1.580872 -2,2.53125 -1.38425,2.55903 -1.782149,5.643418 -1.375,8.5 0.08344,0.585518 0.179827,1.172541 0.3125,1.75 0.03965,0.172736 0.04449,0.483848 0.15625,0.625 0.209141,0.264006 0.774156,0.390784 1.09375,0.40625 0.333318,0.01612 0.543305,-0.23239 0.625,-0.53125 0.139863,-0.51211 0.08104,-1.078589 0,-1.59375 -0.166007,-1.055153 -0.328307,-2.116446 -0.28125,-3.1875 0.08671,-1.97765 0.848006,-3.816699 2.21875,-5.25 1.394055,-1.457697 3.290758,-2.310113 4.875,-3.53125 3.192884,-2.461008 6.026575,-5.767589 7.125,-9.71875 0.392575,-1.413043 0.523044,-2.920352 0.34375,-4.375 C 44.492175,32.410017 43.821459,30.576562 43.1875,28.84375 41.255345,23.561884 37.951096,18.541354 32.6875,16.125 30.598488,15.166126 28.418238,14.721227 26.15625,14.40625 25.095514,14.258563 24.036697,14.171833 22.96875,14.125 22.672151,14.11204 22.371906,14.103716 22.0625,14.09375 z M 18.78125,36 c -0.42164,0.04074 -0.816316,0.18037 -1.1875,0.40625 -0.667073,0.406247 -1.040858,1.115554 -1.25,1.84375 -0.415231,1.445934 -0.227875,3.110467 0.0625,4.5625 0.09281,0.464407 0.182223,0.919089 0.3125,1.375 0.04706,0.164459 0.08053,0.394454 0.1875,0.53125 0.18668,0.239174 0.626763,0.328301 0.90625,0.28125 0.838524,-0.140934 0.622289,-1.537957 0.59375,-2.125 -0.06688,-1.375141 -0.455072,-2.694765 -0.0625,-4.0625 0.166224,-0.578766 0.477995,-1.248628 1.0625,-1.5 0.527645,-0.227194 1.072327,0.04712 1.28125,0.5625 0.338307,0.834495 0.25656,1.819242 0.46875,2.6875 0.07211,0.295156 0.148141,0.568635 0.28125,0.84375 0.03856,0.07951 0.07574,0.26002 0.1875,0.25 C 21.896665,41.63142 22.296327,41.168163 22.5,41 c 0.657922,-0.543695 1.336268,-1.128923 2.09375,-1.53125 0.356411,-0.189291 0.948443,-0.478199 1.3125,-0.15625 0.09278,0.08212 0.152304,0.177346 0.21875,0.28125 0.427868,0.670253 -0.0031,1.175139 -0.28125,1.8125 -0.360114,0.824911 -0.728215,1.637874 -1.25,2.375 -0.448563,0.633877 -1.047857,1.213779 -1.40625,1.90625 -0.230708,0.445892 -0.37667,0.93432 -0.28125,1.4375 0.07734,0.4069 0.397486,0.626659 0.8125,0.53125 0.310661,-0.07145 0.510384,-0.316791 0.6875,-0.5625 0.315672,-0.438267 0.623789,-0.90374 0.9375,-1.34375 0.606944,-0.851049 1.333316,-1.647627 1.84375,-2.5625 0.615223,-1.102857 0.906925,-2.337543 0.90625,-3.59375 -3.92e-4,-1.026618 -0.366671,-2.597287 -1.5625,-2.8125 -0.225022,-0.0403 -0.49523,-0.03899 -0.71875,0 -0.277743,0.04836 -0.558698,0.158396 -0.8125,0.28125 -0.679925,0.328919 -1.276044,0.816492 -1.78125,1.375 -0.315215,0.348087 -0.594692,0.776711 -0.96875,1.0625 0,-0.758255 -0.121997,-1.582913 -0.5625,-2.21875 C 21.135509,36.484684 20.174049,36.034703 19.21875,36 19.075455,35.9948 18.921797,35.98642 18.78125,36 z M 13.25,48.28125 c -0.108898,-0.0084 -0.220607,0.01361 -0.34375,0.03125 -1.02588,0.146815 -1.345784,0.947276 -1.15625,1.875 0.242691,1.187157 1.199792,2.099335 2.125,2.8125 2.370481,1.827132 5.420983,2.818196 8.40625,2.6875 1.164871,-0.05097 2.430985,-0.255751 3.5,-0.75 0.573176,-0.264878 1.186824,-1.216575 0.40625,-1.625 -0.106968,-0.05598 -0.255811,-0.07415 -0.375,-0.09375 -0.340921,-0.05576 -0.708193,0.09471 -1.03125,0.1875 -0.569691,0.163588 -1.163535,0.312148 -1.75,0.40625 -1.752208,0.281432 -3.643053,-0.118088 -5.09375,-1.15625 -1.172692,-0.839506 -2.104594,-1.943306 -3,-3.0625 -0.479588,-0.599432 -0.925216,-1.253811 -1.6875,-1.3125 z M 12,54.0625 c -0.155118,0.0016 -0.313976,0.01502 -0.4375,0.03125 -0.260991,0.03442 -0.557731,0.02347 -0.78125,0.1875 -0.46621,0.342205 0.03595,1.031821 0.28125,1.34375 0.711275,0.903763 1.65913,1.651178 2.59375,2.3125 2.605525,1.843033 5.54458,2.907391 8.71875,3.125 0.912573,0.06252 1.847426,-0.006 2.75,-0.15625 0.330028,-0.05511 0.757502,-0.07629 1.0625,-0.21875 0.86312,-0.403633 0.614064,-2.012536 -0.15625,-2.375 -0.336368,-0.158142 -0.897293,0.04474 -1.25,0.09375 -0.834167,0.116319 -1.661041,0.114226 -2.5,0.09375 -2.198811,-0.0538 -4.552933,-0.712591 -6.46875,-1.78125 -0.753125,-0.420406 -1.415885,-0.930819 -2.0625,-1.5 C 13.356771,54.872624 12.947477,54.299915 12.4375,54.125 12.318769,54.084265 12.155118,54.060894 12,54.0625 z M 12.09375,59 c -0.371639,0.04161 -0.661816,0.224232 -0.90625,0.5 -0.168402,0.189945 -0.309522,0.35414 -0.40625,0.59375 -0.533309,1.319159 0.861878,2.564515 1.84375,3.1875 1.092739,0.693125 2.314965,1.223428 3.53125,1.65625 2.743231,0.976299 5.93236,1.591582 8.78125,0.71875 0.846802,-0.259215 1.696841,-0.734371 2.3125,-1.375 0.346803,-0.360938 0.573619,-0.893886 -0.0625,-1.125 C 26.810611,63.019455 26.373065,63.362333 26.03125,63.5 25.224316,63.825433 24.366191,64.082725 23.5,64.1875 22.359093,64.32582 21.349515,64.056365 20.25,63.78125 19.310827,63.546433 18.345541,63.307253 17.4375,62.96875 16.662807,62.679912 15.896692,62.354655 15.21875,61.875 15.016145,61.73167 14.791006,61.592928 14.625,61.40625 14.082323,60.795681 13.675641,60.080726 13.09375,59.5 c -0.251405,-0.250937 -0.615246,-0.542912 -1,-0.5 z"
           inkscape:connector-curvature="0"
           id="path26"
           style="fill:#ffffff;fill-opacity:1;stroke:none" />
      </g>
      <g
         id="g3151"
         transform="matrix(0.78452553,0,0,0.78452553,4.6596355,972.32749)">
        <path
           d="M 31.09375,6 21.625,36.3125 41.9375,6 31.09375,6 z"
           inkscape:connector-curvature="0"
           id="path5766"
           style="opacity:0.4;fill:url(#linearGradient5782);fill-opacity:1;stroke:none" />
        <path
           d="M 56.84375,6 28,36.875 74.9375,6 56.84375,6 z"
           inkscape:connector-curvature="0"
           id="path5764"
           style="opacity:0.5;fill:url(#linearGradient5784);fill-opacity:1;stroke:none" />
        <path
           d="M 90,15.09375 30.53125,39.4375 90,30.25 90,15.09375 z"
           inkscape:connector-curvature="0"
           id="path5762"
           style="opacity:0.5;fill:url(#linearGradient5770-9);fill-opacity:1;stroke:none" />
        <path
           d="M 31.6875,43.8125 90,55.40625 90,43.9375 31.6875,43.8125 z"
           inkscape:connector-curvature="0"
           id="path5760"
           style="opacity:0.5;fill:url(#linearGradient5774);fill-opacity:1;stroke:none" />
        <path
           d="M 27.84375,46.65625 69.125,74 84,74 c 2.621112,0 4.835344,-1.666493 5.65625,-4 L 27.84375,46.65625 z"
           inkscape:connector-curvature="0"
           id="path5758"
           style="opacity:0.4;fill:url(#linearGradient5776-7);fill-opacity:1;stroke:none" />
        <path
           d="M 28,50.3125 43.84375,74.09375 44,74 51.125,74 28,50.3125 z"
           inkscape:connector-curvature="0"
           id="path4224"
           style="opacity:0.3;fill:url(#linearGradient3226);fill-opacity:1;stroke:none" />
      </g>
    </g>
  </g>
</svg>
