<?xml version="1.0" encoding="UTF-8" standalone="no"?>
<!-- Created with Inkscape (http://www.inkscape.org/) -->

<svg
   xmlns:dc="http://purl.org/dc/elements/1.1/"
   xmlns:cc="http://creativecommons.org/ns#"
   xmlns:rdf="http://www.w3.org/1999/02/22-rdf-syntax-ns#"
   xmlns:svg="http://www.w3.org/2000/svg"
   xmlns="http://www.w3.org/2000/svg"
   xmlns:xlink="http://www.w3.org/1999/xlink"
   xmlns:sodipodi="http://sodipodi.sourceforge.net/DTD/sodipodi-0.dtd"
   xmlns:inkscape="http://www.inkscape.org/namespaces/inkscape"
   width="96"
   height="96"
   id="svg2"
   version="1.1"
   inkscape:version="0.48.1 r9760"
   sodipodi:docname="templat-ikon-96x96.svg">
  <defs
     id="defs4">
    <filter
       color-interpolation-filters="sRGB"
       inkscape:collect="always"
       id="filter6279">
      <feGaussianBlur
         inkscape:collect="always"
         stdDeviation="0.8"
         id="feGaussianBlur6281" />
    </filter>
    <linearGradient
       inkscape:collect="always"
       xlink:href="#linearGradient3617-24"
       id="linearGradient5801"
       gradientUnits="userSpaceOnUse"
       gradientTransform="translate(0,-7.8515622e-6)"
       x1="48"
       y1="1052.3622"
       x2="48"
       y2="902.36218" />
    <linearGradient
       id="linearGradient3617-24"
       y2="5.9877"
       gradientUnits="userSpaceOnUse"
       x2="48"
       y1="90"
       x1="48"
       gradientTransform="translate(-42.742049,2.7137809)">
      <stop
         id="stop3694"
         style="stop-color:#2f7d9e"
         offset="0" />
      <stop
         id="stop3696-0"
         style="stop-color:#54a8cc"
         offset="1" />
    </linearGradient>
    <linearGradient
       y2="138.66"
       x2="48"
       y1="20.221001"
       x1="48"
       gradientUnits="userSpaceOnUse"
       id="linearGradient3077-2"
       xlink:href="#linearGradient3737-17"
       inkscape:collect="always" />
    <linearGradient
       id="linearGradient3737-17">
      <stop
         id="stop3739-43"
         style="stop-color:#fff"
         offset="0" />
      <stop
         id="stop3741-14"
         style="stop-color:#fff;stop-opacity:0"
         offset="1" />
    </linearGradient>
    <clipPath
       id="clipPath3613-69">
      <rect
         id="rect3615-42"
         style="fill:#ffffff"
         rx="6"
         ry="6"
         height="84"
         width="84"
         y="6"
         x="6" />
    </clipPath>
    <filter
       id="filter3794-26"
       height="1.3839999"
       width="1.3839999"
       color-interpolation-filters="sRGB"
       y="-0.192"
       x="-0.192">
      <feGaussianBlur
         id="feGaussianBlur3796-41"
         stdDeviation="5.28" />
    </filter>
  </defs>
  <sodipodi:namedview
     id="base"
     pagecolor="#ffffff"
     bordercolor="#666666"
     borderopacity="1.0"
     inkscape:pageopacity="0.0"
     inkscape:pageshadow="2"
     inkscape:zoom="3.959798"
     inkscape:cx="28.389459"
     inkscape:cy="57.490015"
     inkscape:document-units="px"
     inkscape:current-layer="layer1"
     showgrid="false"
     inkscape:window-width="1280"
     inkscape:window-height="725"
     inkscape:window-x="0"
     inkscape:window-y="25"
     inkscape:window-maximized="1" />
  <metadata
     id="metadata7">
    <rdf:RDF>
      <cc:Work
         rdf:about="">
        <dc:format>image/svg+xml</dc:format>
        <dc:type
           rdf:resource="http://purl.org/dc/dcmitype/StillImage" />
        <dc:title></dc:title>
      </cc:Work>
    </rdf:RDF>
  </metadata>
  <g
     inkscape:label="Layer 1"
     inkscape:groupmode="layer"
     id="layer1"
     transform="translate(0,-956.36217)">
    <g
       transform="translate(0,-1e-5)"
       id="g9214">
      <rect
         transform="translate(0,-7.8515622e-6)"
         y="964.36218"
         x="8"
         height="80"
         width="80"
         id="rect9283"
         style="fill:#000000;fill-opacity:1;stroke:none;filter:url(#filter6279)"
         rx="5"
         ry="5" />
      <rect
         ry="5"
         rx="5"
         style="fill:url(#linearGradient5801);fill-opacity:1;stroke:none"
         id="rect9285"
         width="80"
         height="80"
         x="8"
         y="964.36218" />
      <g
         transform="matrix(1.2003983,0,0,1.2003983,-8.7717721,-201.57864)"
         id="g8401">
        <path
           d="m 43.804665,983.56629 c -0.226788,0.0134 -0.460513,0.0463 -0.680231,0.0878 a 0.15615636,0.15615636 0 0 1 -0.02194,0 c -0.11324,0.004 -0.18357,0.0415 -0.21943,0.0658 -0.03586,0.0243 -0.02177,0.0371 -0.02194,0.0439 -1.65e-4,0.007 -0.01475,0.0133 0.02194,0.0439 0.0367,0.0306 0.111154,0.0707 0.21943,0.0878 a 0.15615636,0.15615636 0 0 1 0.02194,0 0.15615636,0.15615636 0 0 1 0.02194,0 c 1.130781,0.49215 2.33241,0.90987 3.423096,1.55798 0.0085,0.005 0.0135,0.0169 0.02194,0.0219 0.699884,0.3163 1.277534,0.84472 1.711548,1.44823 0.502791,0.75709 0.534691,1.79062 0.219429,2.61125 a 0.15615636,0.15615636 0 0 1 -0.02194,0 c -0.539564,1.08261 -0.998982,2.2756 -1.843205,3.22564 -0.0067,0.008 -0.01515,0.0144 -0.02194,0.0219 -0.522466,0.74901 -1.364955,1.08198 -1.996841,1.5799 -0.0077,0.007 -0.01424,0.0154 -0.02194,0.0219 -0.483587,0.41231 -1.047783,0.77211 -1.426255,1.20689 -0.209725,0.3636 -0.439841,0.66184 -0.438858,1.03136 a 0.15615636,0.15615636 0 0 1 0,0.0219 0.15615636,0.15615636 0 0 1 0,0.0219 c -0.184953,0.71917 -0.06633,1.47836 0.175543,2.19429 0.169196,0.72507 0.569112,1.38587 1.119124,1.88707 0.0066,0 0.0153,0 0.02194,0 0.354387,0.099 0.8075,-0.017 1.228804,-0.1317 0.180831,-0.2957 0.395071,-0.5422 0.614402,-0.78988 0.316982,-0.37394 0.770916,-0.63242 1.228803,-0.78994 0.0063,-0.003 0.01563,0.003 0.02194,0 v -0.022 c 1.16624,-0.5571 2.43577,-0.40361 3.576731,-0.65828 0.321792,-0.10902 0.636928,-0.22882 0.855809,-0.43886 0.0056,-0.007 0.01645,-0.0149 0.02194,-0.0219 0.155033,-0.19875 0.256223,-0.47398 0.37303,-0.74606 0.120942,-0.28173 0.26578,-0.5719 0.504687,-0.81186 a 0.15615636,0.15615636 0 0 1 0.08777,-0.0439 0.15615636,0.15615636 0 0 1 0.02194,0 c 0.427406,-0.0108 0.771969,0.1881 1.075168,0.41691 0.28108,0.21208 0.534831,0.4459 0.789945,0.6144 0.0049,-0.0217 0.01897,-0.0173 0.02194,-0.0439 0.0098,-0.0879 0.0158,-0.18377 0.02194,-0.28526 0.0061,-0.10149 -0.0029,-0.19987 0.02194,-0.28526 a 0.15615636,0.15615636 0 0 1 0.02194,-0.0219 c 0.19269,-0.37537 0.426226,-0.83847 0.833831,-1.11912 0.0077,-0.007 0.01413,-0.0155 0.02194,-0.022 0.553172,-0.45652 1.33771,-0.53514 1.974862,-0.19748 v -0.022 c 0.340379,0.13895 0.608111,0.39409 0.877717,0.59246 0.269607,0.19837 0.536482,0.34881 0.833831,0.37303 0.268252,0.0508 0.513844,-0.0235 0.74606,-0.1536 0.232215,-0.13006 0.44548,-0.31151 0.658287,-0.50469 0.195134,-0.16089 0.420967,-0.43166 0.680231,-0.63634 0.25439,-0.20084 0.596321,-0.34831 0.965488,-0.21943 0.0065,0.002 0.01548,-0.002 0.02194,0 0.777868,0.25118 1.258997,0.91002 1.777342,1.40435 0.0072,0.007 0.01477,0.0152 0.02194,0.0219 0.559548,0.36225 1.096795,0.78299 1.711548,0.68023 a 0.15615636,0.15615636 0 0 1 0.02194,0 0.15615636,0.15615636 0 0 1 0.02194,0 c 0.825756,0.0885 1.645544,-0.41464 2.040657,-1.14103 0.155089,-0.28456 0.114391,-0.60235 -0.08777,-0.87772 a 0.15615636,0.15615636 0 0 1 -0.02177,-0.0456 0.15615636,0.15615636 0 0 1 0,-0.0218 c -0.05384,-0.37192 -0.37871,-0.67817 -0.548573,-1.11912 -0.0062,-0.0161 -0.01617,-0.0274 -0.02194,-0.0439 -1.003546,-1.65081 -2.532529,-2.92532 -4.01559,-4.19113 -0.0078,-0.007 -0.0141,-0.0153 -0.02194,-0.0219 -0.6389,-0.40239 -1.204929,-0.88909 -1.821297,-1.27269 -0.0056,-0.003 -0.01633,0.003 -0.02194,0 -1.045466,-0.57484 -2.023453,-1.21392 -3.115895,-1.62378 a 0.15615636,0.15615636 0 0 1 -0.04424,-0.0218 c -0.74627,-0.43018 -1.555665,-0.75891 -2.369835,-1.07517 -0.0068,-0.002 -0.01512,0.002 -0.02194,0 -0.76572,-0.20458 -1.468034,-0.54741 -2.194292,-0.74606 -1.080856,-0.25893 -2.15785,-0.49046 -3.247553,-0.72408 -1.412071,-0.26964 -2.866272,-0.26964 -4.32258,-0.37356 -0.0073,3e-5 -0.01464,-10e-6 -0.02194,0 -0.693747,10e-4 -1.389601,-0.0618 -2.062985,-0.0218 z m -2.216059,0.6144 c -1.031704,0.0564 -2.073589,0.32936 -3.115895,0.57052 a 0.26611673,0.26611673 0 0 1 -0.02194,0 c -1.409754,0.25644 -2.761929,0.81726 -4.059406,1.47021 -1.770811,0.81733 -3.405611,1.91413 -4.805534,3.26946 -0.97237,0.82611 -1.76695,1.86006 -2.479515,2.94035 -0.771759,1.05081 -1.292421,2.27624 -1.79932,3.51087 -0.0062,0.0152 -0.0157,0.0287 -0.02194,0.0439 l -0.219429,0.78994 c -0.293972,1.25598 -0.652804,2.46646 -0.680231,3.70826 0.0012,0.01 -0.0012,0.015 0,0.022 -1.38e-4,0.01 1.16e-4,0.015 0,0.022 0.20658,1.2277 0.598772,2.4499 1.316576,3.445 0.584447,0.9089 1.286733,1.7437 2.172384,2.326 a 0.26611673,0.26611673 0 0 1 0.02194,0.022 c 0.57449,0.4829 1.349226,0.6768 2.10652,1.0752 0.0071,0 0.01482,0 0.02194,0 0.01494,0.01 0.02896,0.014 0.04389,0.022 1.319384,0.2806 2.683356,0.467 3.949726,0.1317 a 0.26611673,0.26611673 0 0 1 0.08777,0 c -0.01743,0 0.0739,-0.011 0.175543,-0.044 0.10164,-0.033 0.233789,-0.076 0.351087,-0.1097 0.05865,-0.017 0.110283,-0.037 0.175543,-0.044 0.0355,0 0.08637,0.016 0.131658,0.022 0.655296,-0.888 1.277394,-1.8402 2.018748,-2.6991 a 0.26611673,0.26611673 0 0 1 0.02194,-0.022 c 0.580908,-0.5441 1.196644,-1.0879 1.930977,-1.4702 a 0.26611673,0.26611673 0 0 1 0.06583,-0.022 c 0.420146,-0.1033 0.746621,-0.3672 0.987396,-0.746 a 0.26611673,0.26611673 0 0 1 0.02194,-0.022 c 0.138027,-0.1468 0.208911,-0.3642 0.285258,-0.6144 0.07635,-0.2501 0.159155,-0.5347 0.394973,-0.7899 a 0.26611673,0.26611673 0 0 1 0.02194,-0.022 c 0.540666,-0.4506 1.314188,-0.5569 1.974863,-0.3511 a 0.26611673,0.26611673 0 0 1 -0.02317,-0.023 c -0.535449,-0.66857 -0.965278,-1.45258 -1.119124,-2.32594 -0.187635,-0.92736 -0.0288,-1.89664 0.438858,-2.72092 a 0.26611673,0.26611673 0 0 1 0.06601,-0.0653 c 0.143124,-0.13512 0.273272,-0.34 0.438858,-0.54857 0.147618,-0.18594 0.33738,-0.36357 0.592459,-0.48274 0.65076,-0.5365 1.422393,-0.88102 1.909069,-1.42626 a 0.26611673,0.26611673 0 0 1 0.02194,-0.0219 c 0.867606,-0.74768 1.474845,-1.74933 2.040657,-2.78679 0.0026,-0.006 -0.0026,-0.0156 0,-0.0219 0.225229,-0.55232 0.383639,-1.17123 0.482744,-1.77734 -3.57e-4,-0.007 3.78e-4,-0.0145 0,-0.0219 -0.02812,-0.55199 -0.131306,-1.09159 -0.482744,-1.44823 a 0.26611673,0.26611673 0 0 1 -0.02177,-0.0442 c -0.291254,-0.42961 -0.775059,-0.73132 -1.272689,-1.05327 -0.01526,-0.007 -0.02867,-0.0152 -0.04389,-0.0219 -0.922235,-0.40616 -1.758032,-0.91367 -2.655058,-1.2288 a 0.26611673,0.26611673 0 0 1 -0.066,-0.0218 c -0.36303,-0.23854 -0.816698,-0.26989 -1.338483,-0.39497 -0.01474,-0.004 -0.02905,0.004 -0.04389,0 z m 20.297026,11.54233 c -0.404234,0.21195 -0.738686,0.54234 -1.097146,0.89963 h -0.02194 c -0.321518,0.36438 -0.753432,0.61717 -1.250711,0.65828 a 0.26960653,0.26960653 0 0 1 -0.02194,0 c -0.398041,-0.002 -0.759401,-0.16166 -1.05326,-0.28525 a 0.26960653,0.26960653 0 0 1 -0.08777,-0.0449 c -0.278061,-0.27455 -0.625637,-0.48591 -1.009726,-0.65794 a 0.26960653,0.26960653 0 0 1 -0.0653,-0.0442 c -0.210652,-0.17414 -0.482393,-0.22329 -0.789945,-0.19731 -0.259102,0.0309 -0.488713,0.11376 -0.592634,0.24155 a 0.26960653,0.26960653 0 0 1 -0.08777,0.0658 c -0.215462,0.11701 -0.345975,0.24266 -0.37303,0.43886 a 0.26960653,0.26960653 0 0 1 -0.02247,0.066 c -0.108472,0.228 -0.114995,0.50306 -0.109715,0.78995 0.502806,0.41641 1.023839,0.80806 1.579891,1.16294 0.0058,0.003 0.01608,-0.002 0.02194,0 0.0087,0.006 0.01324,0.0164 0.02194,0.0219 0.43037,0.17973 0.92069,0.30739 1.404347,0.52663 0.0066,0.003 0.01532,-0.003 0.02194,0 0.739389,0.23605 1.175579,0.82704 1.623776,1.25074 0.007,0.01 0.01496,0.015 0.02194,0.022 0.309027,0.2262 0.597367,0.4982 0.789946,0.8558 a 0.26960653,0.26960653 0 0 1 0,0.022 c 0.294519,0.6246 0.560861,1.2651 0.811853,1.909 a 0.26960653,0.26960653 0 0 1 0.02194,0 c 0.274705,0.852 0.229702,1.7251 0.21943,2.5454 a 0.26960653,0.26960653 0 0 1 0,0.044 c -0.08007,0.6167 -0.273005,1.1448 -0.416916,1.6896 0.26288,-0.024 0.530099,-0.053 0.789945,-0.044 0.01443,-9e-4 0.02945,8e-4 0.04389,0 1.14349,-0.068 2.321175,-0.1433 3.48896,-0.066 1.182039,0.1055 2.41337,0.064 3.642525,0.2195 0.01755,-4e-4 0.0266,-10e-5 0.04389,0 0.16421,0 0.318576,0.01 0.416915,0 0.05434,0 0.07835,-0.016 0.08777,-0.022 0.0094,-0.01 0.01118,0.015 0.02194,-0.022 a 0.26960653,0.26960653 0 0 1 0,-0.022 c 0.192479,-0.6284 0.254418,-1.3156 0.241372,-1.9968 -0.002,-0.015 0.0019,-0.029 0,-0.044 -0.09729,-0.7604 -0.09143,-1.5204 -0.08777,-2.2601 3.6e-5,-0.01 -3.4e-5,-0.015 0,-0.022 -0.06039,-0.9479 -0.170628,-1.9071 -0.350384,-2.8318 -0.242531,-1.20103 -0.420125,-2.38293 -0.789946,-3.5109 -0.0097,-0.0161 -0.01285,-0.0277 -0.02194,-0.0439 -0.107411,-0.19128 -0.163508,-0.39113 -0.241372,-0.52663 -0.06593,-0.11473 -0.138398,-0.14522 -0.219429,-0.17554 -0.147204,0.10131 -0.268757,0.29811 -0.504687,0.50469 h -0.02194 c -0.348201,0.34353 -0.732367,0.8202 -1.338483,0.98739 -0.01671,0.005 -0.02683,0.0178 -0.04389,0.0219 -0.371927,0.14495 -0.737563,0.11484 -1.05326,0.10972 a 0.26960653,0.26960653 0 0 1 -0.04389,0 c -0.533181,-0.0744 -0.990837,-0.37314 -1.360461,-0.68023 -0.57534,-0.53337 -1.041394,-1.12573 -1.645754,-1.44823 a 0.26960653,0.26960653 0 0 1 -0.04424,-0.0218 c -0.113078,-0.0886 -0.297904,-0.092 -0.548573,-0.0878 z m -8.777168,1.84321 c -0.34672,0.4631 -0.729488,0.87694 -1.184918,1.2288 -0.596047,0.36651 -1.2373,0.69213 -1.952885,0.72408 -0.687807,0.10597 -1.406805,0.23163 -2.062635,0.43886 -0.520598,0.30613 -1.112664,0.46593 -1.557982,0.89963 -0.782221,0.6267 -1.77369,0.9469 -2.74283,1.1191 -0.691437,-0.18 -1.444652,-0.2558 -2.150406,-0.1097 -0.394264,0.4082 -0.608385,0.9375 -0.833831,1.4482 -0.193632,0.3402 -0.549592,0.5135 -0.811853,0.79 -0.548777,0.184 -0.946109,0.6367 -1.492119,0.8338 -1.172489,0.8851 -1.890672,2.1983 -2.786786,3.3353 -0.449869,0.379 -0.16584,0.9834 -0.109715,1.4702 0.07992,1.0068 0.8075,1.9031 1.492119,2.5015 1.168417,0.9984 2.695854,1.3881 4.147177,1.7774 0.882,0.127 1.759225,0.3059 2.655058,0.2414 1.054314,0.011 2.096971,0.019 3.137873,-0.1756 0.928835,-0.077 1.827547,-0.293 2.720922,-0.5486 1.546608,-0.3354 3.034864,-0.8891 4.520242,-1.4262 0.993856,-0.3563 2.041289,-0.6193 2.918374,-1.2288 0.798722,-0.2689 1.413475,-0.8804 1.952884,-1.4921 0.179048,-0.4054 0.555855,-0.7127 0.614402,-1.163 0.256223,-0.4776 0.294611,-1.046 0.460802,-1.558 0.143706,-0.8815 0.270245,-1.7714 0.06583,-2.655 -0.06952,-0.9194 -0.540926,-1.731 -1.075168,-2.4576 -0.598715,-1.0694 -1.863147,-1.453 -2.896465,-1.97489 -0.394868,-0.22584 -0.887618,-0.23457 -1.206896,-0.6144 -0.541895,-0.5332 -1.147352,-1.03795 -1.821298,-1.40435 z m 12.244501,10.90547 c -0.154478,0 -0.309659,0.01 -0.461328,0.022 a 0.30968659,0.30968659 0 0 1 -0.02194,0 c -1.284978,0.01 -2.577679,0.1811 -3.883722,0.3075 -0.379159,0.6133 -0.835586,1.158 -1.338483,1.6458 -0.007,0.01 -0.01491,0.014 -0.02194,0.022 -0.417484,0.4952 -0.976583,0.7179 -1.404347,0.9874 -0.01595,0.016 -0.02762,0.029 -0.04388,0.044 -0.306647,0.2851 -0.670667,0.3581 -0.943581,0.4608 v 0.022 c -0.636268,0.331 -1.303515,0.5054 -1.887091,0.7681 a 0.30968659,0.30968659 0 0 1 -0.04389,0.022 c -0.750343,0.2066 -1.501739,0.3799 -2.194292,0.6583 a 0.30968659,0.30968659 0 0 1 -0.02194,0 c -0.401749,0.1257 -0.745779,0.284 -1.075168,0.4827 v 0.8339 0.022 c 0.116532,0.3923 0.209851,0.7645 0.373029,1.0533 0.355651,0.677 0.855388,1.2896 1.470211,1.7335 v -0.022 c 0.791279,0.527 1.601588,1.019 2.479515,1.2288 a 0.30968659,0.30968659 0 0 1 0.02194,0 c 0.640874,0.1937 1.325212,0.2967 2.018749,0.373 0.01459,0 0.02927,0 0.04389,0 0.849068,0.01 1.727066,-0.09 2.63315,-0.066 0.98859,-0.2064 1.971212,-0.3631 2.786786,-0.8339 a 0.30968659,0.30968659 0 0 1 0.02194,-0.022 c 0.694991,-0.302 1.335464,-0.7567 1.887091,-1.2947 a 0.30968659,0.30968659 0 0 1 0.02194,-0.022 c 0.326265,-0.2605 0.546769,-0.6985 0.965489,-1.0972 0.0081,-0.018 0.01366,-0.026 0.02194,-0.044 0.19229,-0.414 0.433585,-0.7367 0.482744,-1.0313 a 0.30968659,0.30968659 0 0 1 0.02317,-0.089 c 0.18366,-0.3782 0.335203,-0.7938 0.329144,-1.1629 a 0.30968659,0.30968659 0 0 1 0,-0.044 c 0.05196,-0.3378 0.09058,-0.6537 0.0653,-0.9662 a 0.30968659,0.30968659 0 0 1 0,-0.044 c 0.05369,-0.6221 -0.138504,-1.2677 -0.329144,-1.931 a 0.30968659,0.30968659 0 0 1 0.066,-0.285 c 0.151796,-0.1902 0.238866,-0.5705 0.636345,-0.8559 a 0.30968659,0.30968659 0 0 1 0,-0.022 c 0.143377,-0.097 0.206818,-0.2937 0.285258,-0.5486 -0.0037,-0.01 0.01068,-0.016 -0.02194,-0.044 -0.04417,-0.038 -0.140069,-0.067 -0.219429,-0.1097 -0.430166,-0.04 -0.857214,-0.093 -1.250712,-0.066 a 0.30968659,0.30968659 0 0 1 -0.04389,0 c -0.490068,-0.038 -0.963382,-0.089 -1.426255,-0.088 z m -14.5701,6.1659 -4.059405,0.8338 2.238178,4.4105 2.479515,1.8213 1.57989,4.1472 4.410492,-1.5799 c -0.373746,-0.7382 -0.719306,-1.4815 -1.141032,-2.1943 -0.378584,-0.5984 -0.620054,-1.2621 -0.899624,-1.909 -0.0611,-0.242 -0.238304,-0.4296 -0.416916,-0.5925 -0.331735,-0.3778 -0.752309,-0.6451 -1.206896,-0.8558 -0.455113,-0.2025 -0.919566,-0.3861 -1.404347,-0.5047 l -1.57989,-3.5767 z"
           style="fill:#ffffff"
           id="path3736"
           inkscape:connector-curvature="0" />
      </g>
      <g
         id="layer5"
         transform="translate(0,956.36218)">
        <rect
           x="15"
           y="15"
           width="66"
           height="66"
           ry="12"
           rx="12"
           clip-path="url(#clipPath3613-69)"
           style="opacity:0.1;fill:url(#linearGradient3077-2);stroke:#ffffff;stroke-width:0.5;stroke-linecap:round;filter:url(#filter3794-26)"
           id="rect3171" />
      </g>
    </g>
  </g>
</svg>
