<?xml version="1.0" encoding="UTF-8" standalone="no"?>
<!-- Created with Inkscape (http://www.inkscape.org/) -->

<svg
   xmlns:dc="http://purl.org/dc/elements/1.1/"
   xmlns:cc="http://creativecommons.org/ns#"
   xmlns:rdf="http://www.w3.org/1999/02/22-rdf-syntax-ns#"
   xmlns:svg="http://www.w3.org/2000/svg"
   xmlns="http://www.w3.org/2000/svg"
   xmlns:xlink="http://www.w3.org/1999/xlink"
   xmlns:sodipodi="http://sodipodi.sourceforge.net/DTD/sodipodi-0.dtd"
   xmlns:inkscape="http://www.inkscape.org/namespaces/inkscape"
   width="96"
   height="96"
   id="svg2"
   version="1.1"
   inkscape:version="0.48.1 r9760"
   sodipodi:docname="gnome-power-manager.svg">
  <defs
     id="defs4">
    <filter
       color-interpolation-filters="sRGB"
       inkscape:collect="always"
       id="filter6279-2">
      <feGaussianBlur
         inkscape:collect="always"
         stdDeviation="0.8"
         id="feGaussianBlur6281-1" />
    </filter>
    <linearGradient
       inkscape:collect="always"
       xlink:href="#radialGradient3901"
       id="linearGradient9773"
       gradientUnits="userSpaceOnUse"
       gradientTransform="translate(0,-7.8515622e-6)"
       x1="48"
       y1="1052.3622"
       x2="48"
       y2="902.36218" />
    <radialGradient
       id="radialGradient3901"
       gradientUnits="userSpaceOnUse"
       cy="90.199997"
       cx="48"
       gradientTransform="matrix(1.3333,5.3333e-8,-3.8095e-8,0.95238,-16,-5.9048)"
       r="42">
      <stop
         id="stop3705"
         style="stop-color:#88ff02"
         offset="0" />
      <stop
         id="stop3707"
         style="stop-color:#1f8000"
         offset="1" />
    </radialGradient>
    <linearGradient
       inkscape:collect="always"
       xlink:href="#ButtonShadow"
       id="linearGradient9713"
       gradientUnits="userSpaceOnUse"
       gradientTransform="matrix(1.0059,0,0,0.99417,182.1875,996.76843)"
       x1="45.448002"
       y1="92.540001"
       x2="45.448002"
       y2="7.0165" />
    <linearGradient
       id="ButtonShadow"
       y2="7.0165"
       gradientUnits="userSpaceOnUse"
       x2="45.448002"
       gradientTransform="scale(1.0059,0.99417)"
       y1="92.540001"
       x1="45.448002">
      <stop
         id="stop3750-6"
         offset="0" />
      <stop
         id="stop3752"
         style="stop-opacity:.58824"
         offset="1" />
    </linearGradient>
    <linearGradient
       inkscape:collect="always"
       xlink:href="#ButtonShadow"
       id="linearGradient9715"
       gradientUnits="userSpaceOnUse"
       gradientTransform="translate(182.1875,996.76843)"
       x1="40"
       y1="91"
       x2="40"
       y2="3.3074" />
    <linearGradient
       id="linearGradient5895"
       y2="7.0165"
       gradientUnits="userSpaceOnUse"
       x2="45.448002"
       gradientTransform="scale(1.0059,0.99417)"
       y1="92.540001"
       x1="45.448002">
      <stop
         id="stop5897"
         offset="0" />
      <stop
         id="stop5899"
         style="stop-opacity:.58824"
         offset="1" />
    </linearGradient>
    <radialGradient
       inkscape:collect="always"
       xlink:href="#radialGradient3901"
       id="radialGradient9717"
       gradientUnits="userSpaceOnUse"
       gradientTransform="matrix(1.3333,5.3333e-8,-3.8095e-8,0.95238,-16,-5.9048)"
       cx="48"
       cy="90.199997"
       r="42" />
    <radialGradient
       id="radialGradient5902"
       gradientUnits="userSpaceOnUse"
       cy="90.199997"
       cx="48"
       gradientTransform="matrix(1.3333,5.3333e-8,-3.8095e-8,0.95238,-16,-5.9048)"
       r="42">
      <stop
         id="stop5904"
         style="stop-color:#88ff02"
         offset="0" />
      <stop
         id="stop5906"
         style="stop-color:#1f8000"
         offset="1" />
    </radialGradient>
    <linearGradient
       inkscape:collect="always"
       xlink:href="#linearGradient3897"
       id="linearGradient9719"
       gradientUnits="userSpaceOnUse"
       gradientTransform="matrix(-1,0,0,1,96,0)"
       x1="6"
       y1="63"
       x2="32.019001"
       y2="63" />
    <linearGradient
       id="linearGradient3897"
       y2="63"
       gradientUnits="userSpaceOnUse"
       x2="32.019001"
       gradientTransform="matrix(-1,0,0,1,96,0)"
       y1="63"
       x1="6">
      <stop
         id="stop3860-9"
         style="stop-color:#250"
         offset="0" />
      <stop
         id="stop3862-7"
         style="stop-color:#250;stop-opacity:0"
         offset="1" />
    </linearGradient>
    <linearGradient
       inkscape:collect="always"
       xlink:href="#linearGradient3777-8"
       id="linearGradient9721"
       gradientUnits="userSpaceOnUse"
       x1="32"
       y1="6.0500002"
       x2="64"
       y2="6.0500002" />
    <linearGradient
       id="linearGradient3777-8"
       y2="6.0500002"
       gradientUnits="userSpaceOnUse"
       x2="64"
       y1="6.0500002"
       x1="32">
      <stop
         id="stop3790-9"
         style="stop-color:#d9d9d9"
         offset="0" />
      <stop
         id="stop3792"
         style="stop-color:#c6c6c6"
         offset=".25016" />
      <stop
         id="stop3796"
         style="stop-color:#696969"
         offset="1" />
    </linearGradient>
    <linearGradient
       inkscape:collect="always"
       xlink:href="#linearGradient3925"
       id="linearGradient9723"
       gradientUnits="userSpaceOnUse"
       gradientTransform="matrix(1,0,0,-1,96,96)"
       x1="-90"
       y1="48"
       x2="-6"
       y2="48" />
    <linearGradient
       id="linearGradient3925"
       y2="48"
       gradientUnits="userSpaceOnUse"
       x2="-6"
       gradientTransform="matrix(1,0,0,-1,96,96)"
       y1="48"
       x1="-90">
      <stop
         id="stop3616"
         style="stop-color:#fff;stop-opacity:.48062"
         offset="0" />
      <stop
         id="stop3618"
         style="stop-color:#fff;stop-opacity:.12403"
         offset="1" />
    </linearGradient>
    <linearGradient
       inkscape:collect="always"
       xlink:href="#linearGradient3675"
       id="linearGradient9725"
       gradientUnits="userSpaceOnUse"
       gradientTransform="matrix(0,-1,1,0,0,0)"
       x1="-16"
       y1="8"
       x2="-16"
       y2="88" />
    <linearGradient
       id="linearGradient3675">
      <stop
         id="stop3677"
         style="stop-color:#666"
         offset="0" />
      <stop
         id="stop3683-6"
         style="stop-color:#e6e6e6"
         offset=".25016" />
      <stop
         id="stop3685-4"
         style="stop-color:#808080"
         offset=".51293" />
      <stop
         id="stop3679"
         style="stop-color:#474747"
         offset="1" />
    </linearGradient>
    <linearGradient
       inkscape:collect="always"
       xlink:href="#linearGradient3675"
       id="linearGradient9727"
       gradientUnits="userSpaceOnUse"
       gradientTransform="matrix(0,1,1,0,0,96)"
       x1="-16"
       y1="8"
       x2="-16"
       y2="88" />
    <linearGradient
       id="linearGradient5928">
      <stop
         id="stop5930"
         style="stop-color:#666"
         offset="0" />
      <stop
         id="stop5932"
         style="stop-color:#e6e6e6"
         offset=".25016" />
      <stop
         id="stop5934"
         style="stop-color:#808080"
         offset=".51293" />
      <stop
         id="stop5936"
         style="stop-color:#474747"
         offset="1" />
    </linearGradient>
    <linearGradient
       inkscape:collect="always"
       xlink:href="#linearGradient3833"
       id="linearGradient9729"
       gradientUnits="userSpaceOnUse"
       gradientTransform="translate(-2,0)"
       x1="26"
       y1="6"
       x2="26"
       y2="120.02" />
    <linearGradient
       id="linearGradient3833">
      <stop
         id="stop3835"
         style="stop-color:#fff"
         offset="0" />
      <stop
         id="stop3837"
         style="stop-color:#fff;stop-opacity:0"
         offset="1" />
    </linearGradient>
    <linearGradient
       inkscape:collect="always"
       xlink:href="#linearGradient3833"
       id="linearGradient9731"
       gradientUnits="userSpaceOnUse"
       gradientTransform="matrix(0.57143,0,0,1,50.857,0)"
       x1="26"
       y1="6"
       x2="26"
       y2="72.022003" />
    <linearGradient
       id="linearGradient5943">
      <stop
         id="stop5945"
         style="stop-color:#fff"
         offset="0" />
      <stop
         id="stop5947"
         style="stop-color:#fff;stop-opacity:0"
         offset="1" />
    </linearGradient>
    <linearGradient
       inkscape:collect="always"
       xlink:href="#linearGradient3833"
       id="linearGradient9733"
       gradientUnits="userSpaceOnUse"
       gradientTransform="matrix(0.2381,0,0,1,47.19,-96)"
       x1="26"
       y1="6"
       x2="26"
       y2="72.022003" />
    <linearGradient
       id="linearGradient5950">
      <stop
         id="stop5952"
         style="stop-color:#fff"
         offset="0" />
      <stop
         id="stop5954"
         style="stop-color:#fff;stop-opacity:0"
         offset="1" />
    </linearGradient>
    <radialGradient
       inkscape:collect="always"
       xlink:href="#linearGradient3833"
       id="radialGradient9735"
       gradientUnits="userSpaceOnUse"
       gradientTransform="matrix(1.1573,0,0,0.99591,-7.551,0.19713)"
       cx="48"
       cy="90.171997"
       r="42" />
    <linearGradient
       id="linearGradient5957">
      <stop
         id="stop5959"
         style="stop-color:#fff"
         offset="0" />
      <stop
         id="stop5961"
         style="stop-color:#fff;stop-opacity:0"
         offset="1" />
    </linearGradient>
    <linearGradient
       inkscape:collect="always"
       xlink:href="#linearGradient3833"
       id="linearGradient9737"
       gradientUnits="userSpaceOnUse"
       x1="36.356998"
       y1="6"
       x2="36.356998"
       y2="63.893002" />
    <linearGradient
       id="linearGradient5964">
      <stop
         id="stop5966"
         style="stop-color:#fff"
         offset="0" />
      <stop
         id="stop5968"
         style="stop-color:#fff;stop-opacity:0"
         offset="1" />
    </linearGradient>
    <linearGradient
       inkscape:collect="always"
       xlink:href="#linearGradient3833"
       id="linearGradient9739"
       gradientUnits="userSpaceOnUse"
       gradientTransform="translate(4,0)"
       x1="64"
       y1="47"
       x2="82.834999"
       y2="47" />
    <linearGradient
       id="linearGradient5971">
      <stop
         id="stop5973"
         style="stop-color:#fff"
         offset="0" />
      <stop
         id="stop5975"
         style="stop-color:#fff;stop-opacity:0"
         offset="1" />
    </linearGradient>
  </defs>
  <sodipodi:namedview
     id="base"
     pagecolor="#ffffff"
     bordercolor="#666666"
     borderopacity="1.0"
     inkscape:pageopacity="0.0"
     inkscape:pageshadow="2"
     inkscape:zoom="3.959798"
     inkscape:cx="28.389459"
     inkscape:cy="57.490015"
     inkscape:document-units="px"
     inkscape:current-layer="layer1"
     showgrid="false"
     inkscape:window-width="1280"
     inkscape:window-height="725"
     inkscape:window-x="0"
     inkscape:window-y="25"
     inkscape:window-maximized="1" />
  <metadata
     id="metadata7">
    <rdf:RDF>
      <cc:Work
         rdf:about="">
        <dc:format>image/svg+xml</dc:format>
        <dc:type
           rdf:resource="http://purl.org/dc/dcmitype/StillImage" />
        <dc:title></dc:title>
      </cc:Work>
    </rdf:RDF>
  </metadata>
  <g
     inkscape:label="Layer 1"
     inkscape:groupmode="layer"
     id="layer1"
     transform="translate(0,-956.36217)">
    <g
       transform="translate(2.861023e-8,-9.737015e-6)"
       id="g9776">
      <rect
         transform="translate(0,-7.8515622e-6)"
         y="964.36218"
         x="8"
         height="80"
         width="80"
         id="rect9283"
         style="fill:#000000;fill-opacity:1;stroke:none;filter:url(#filter6279-2)"
         rx="5"
         ry="5" />
      <rect
         ry="5"
         rx="5"
         style="opacity:0.5;fill:url(#linearGradient9773);fill-opacity:1;stroke:none"
         id="rect9285"
         width="80"
         height="80"
         x="8"
         y="964.36218" />
      <g
         transform="translate(-182.1875,-40.40625)"
         id="g26594">
        <g
           transform="matrix(0.60464765,0,0,0.60464765,91.004716,413.54718)"
           id="g8848">
          <path
             inkscape:connector-curvature="0"
             d="m 214.3435,999.98723 c -0.691,0.32927 -1.156,0.99957 -1.156,1.78117 v 1 h 1 v -1 -1 c 0,-0.277 0.0553,-0.5418 0.15625,-0.78122 z m 31.688,0 c 0.101,0.23937 0.156,0.50417 0.156,0.78117 v 1 1 h 1 v -1 c 0,-0.7816 -0.465,-1.4519 -1.156,-1.78117 z m -57.406,6.53117 c -0.8995,1.177 -1.4375,2.647 -1.4375,4.25 v 3 h 2 v 63 h 1 v -42 -2 -18 -2 h -2 v -4 c 0,-0.796 0.1582,-1.556 0.4375,-2.25 z m 83.125,0 c 0.28,0.694 0.438,1.454 0.438,2.25 v 2 2 h -2 v 2 18 42 2 h 1 v -63 h 2 v -3 c 0,-1.603 -0.538,-3.073 -1.438,-4.25 z m -84.562,71.25 v 4 c 0,3.878 3.122,7 7,7 h 72 c 3.878,0 7,-3.122 7,-7 v -4 h -1 v 1 2 c 0,3.324 -2.676,6 -6,6 h -72 c -3.324,0 -6,-2.676 -6,-6 v -2 -1 h -1 z"
             style="opacity:0.3;fill:url(#linearGradient9713)"
             id="path2956" />
          <path
             inkscape:connector-curvature="0"
             d="m 188.1875,1012.7684 v 1 h 2 v -1 h -2 z m 82,0 v 1 h 2 v -1 h -2 z m -82,68 v 1 c 0,3.324 2.676,6 6,6 h 72 c 3.324,0 6,-2.676 6,-6 v -1 c 0,3.324 -2.676,6 -6,6 h -72 c -3.324,0 -6,-2.676 -6,-6 z"
             style="opacity:0.45;fill:url(#linearGradient9715)"
             id="path3743" />
          <g
             transform="translate(182.1875,996.76843)"
             id="layer4">
            <path
               inkscape:connector-curvature="0"
               id="rect3814"
               style="fill:url(#radialGradient9717)"
               d="M 8,36 V 80 H 88 V 36 H 8 z" />
            <path
               inkscape:connector-curvature="0"
               id="rect3845"
               style="opacity:0.6;fill:#338000"
               d="m 8,78 v 2 H 88 V 78 H 8 z" />
            <path
               inkscape:connector-curvature="0"
               id="path3856"
               style="fill:url(#linearGradient9719)"
               d="M 48,36 V 80 H 88 V 36 H 48 z" />
            <path
               inkscape:connector-curvature="0"
               id="rect3829"
               style="opacity:0.4;fill:#aad400"
               d="m 8,36 v 2 H 88 V 36 H 8 z" />
            <path
               inkscape:connector-curvature="0"
               id="rect3991"
               style="opacity:0.3;fill:#aad400"
               d="m 8,36 v 44 h 2 V 36 H 8 z m 78,0 v 44 h 2 V 36 h -2 z" />
          </g>
          <g
             transform="translate(182.1875,996.76843)"
             id="layer1-3">
            <rect
               id="rect3769"
               style="fill:url(#linearGradient9721)"
               rx="2"
               ry="2"
               height="8.1000004"
               width="32"
               y="2"
               x="32" />
            <path
               inkscape:connector-curvature="0"
               id="rect2419"
               style="fill:url(#linearGradient9723)"
               d="M 8,16 V 80 H 88 V 16 H 8 z" />
            <path
               inkscape:connector-curvature="0"
               id="rect3754"
               style="fill:url(#linearGradient9725)"
               d="M 12,6 C 8.676,6 6,8.676 6,12 v 4 H 90 V 12 C 90,8.676 87.324,6 84,6 H 12 z" />
            <path
               inkscape:connector-curvature="0"
               id="path3765"
               style="fill:url(#linearGradient9727)"
               d="M 12,90 C 8.676,90 6,87.324 6,84 v -4 h 84 v 4 c 0,3.324 -2.676,6 -6,6 H 12 z" />
            <path
               inkscape:connector-curvature="0"
               id="rect3779"
               style="opacity:0.5;fill:#ffffff"
               d="m 34,2 c -1.108,0 -2,0.892 -2,2 v 1 c 0,-1.108 0.892,-2 2,-2 h 28 c 1.108,0 2,0.892 2,2 V 4 C 64,2.892 63.108,2 62,2 H 34 z" />
            <rect
               id="rect3798"
               style="opacity:0.2"
               height="1"
               width="32"
               y="5"
               x="32" />
            <rect
               id="rect3831"
               style="opacity:0.4;fill:url(#linearGradient9729)"
               height="84"
               width="21"
               y="6"
               x="14" />
            <rect
               id="rect3841"
               style="opacity:0.2;fill:url(#linearGradient9731)"
               height="84"
               width="12"
               y="6"
               x="60" />
            <rect
               id="rect3847"
               style="opacity:0.28999999;fill:#ffffff"
               height="2"
               width="84"
               y="80"
               x="6" />
            <rect
               id="rect3854"
               style="opacity:0.1"
               height="2"
               width="84"
               y="14"
               x="6" />
            <path
               inkscape:connector-curvature="0"
               id="rect3869"
               style="opacity:0.1"
               d="m 8,16 v 2 H 88 V 16 H 8 z" />
            <rect
               id="rect3871"
               style="opacity:0.1;fill:url(#linearGradient9733)"
               transform="scale(1,-1)"
               height="84"
               width="5"
               y="-90"
               x="51" />
            <rect
               id="rect3987"
               style="opacity:0.4;fill:#ffffff"
               height="20"
               width="2"
               y="16"
               x="8" />
            <rect
               id="rect3989"
               style="opacity:0.3;fill:#ffffff"
               height="20"
               width="2"
               y="16"
               x="86" />
          </g>
          <g
             transform="translate(182.1875,996.76843)"
             id="layer5">
            <path
               inkscape:connector-curvature="0"
               id="path3615"
               style="opacity:0.2;fill:url(#radialGradient9735)"
               d="M 10.156,6.3438 C 9.8547,6.4406 9.5598,6.5479 9.2812,6.6875 8.7242,6.9667 8.2212,7.3532 7.7812,7.7812 7.5613,7.9953 7.3719,8.2231 7.1875,8.4688 7.0031,8.7144 6.8321,8.9765 6.6875,9.25 6.5474,9.515 6.4114,9.7747 6.3125,10.062 6.3021,10.093 6.2911,10.126 6.2812,10.156 6.1908,10.434 6.1424,10.736 6.0938,11.031 6.0414,11.349 6,11.665 6,12 v 2 2 H 7 V 13 11 C 7,10.636 7.0521,10.279 7.125,9.9375 7.1484,9.828 7.1884,9.7316 7.2188,9.625 7.2454,9.5306 7.2494,9.4357 7.2812,9.3438 7.2889,9.3218 7.3045,9.3031 7.3125,9.2812 7.3881,9.072 7.4927,8.851 7.5938,8.6562 7.651,8.5483 7.7165,8.4468 7.7812,8.3438 7.8053,8.3046 7.8187,8.2571 7.8438,8.2188 7.9379,8.0778 8.0487,7.9428 8.1562,7.8125 c 0.15254,-0.18586 0.32207,-0.36982 0.5,-0.53125 0.099219,-0.088888 0.20633,-0.1692 0.3125,-0.25 0.11273,-0.086487 0.22336,-0.1733 0.34375,-0.25 0.031457,-0.01999 0.061817,-0.0432 0.09375,-0.0625 0.00738,-0.0045 0.02384,0.0044 0.03125,0 C 9.66949,6.58002 9.9,6.44397 10.1562,6.34375 z m 75.688,0 c 0.2562,0.10022 0.48671,0.23627 0.71875,0.375 0.0074,0.0044 0.02385,-0.0045 0.03125,0 0.10818,0.065386 0.20993,0.1456 0.3125,0.21875 0.15241,0.10931 0.29911,0.21819 0.4375,0.34375 0.01127,0.0101 0.02008,0.02105 0.03125,0.03125 0.16561,0.153 0.32558,0.32555 0.46875,0.5 0.10758,0.13026 0.21839,0.26528 0.3125,0.40625 0.06073,0.0929 0.1329,0.18404 0.1875,0.28125 0.04596,0.080046 0.08342,0.1672 0.125,0.25 0.08037,0.1638 0.15601,0.35751 0.21875,0.53125 0.0079,0.02181 0.02355,0.04055 0.03125,0.0625 0.06787,0.19609 0.1121,0.38686 0.15625,0.59375 0.073,0.3416 0.125,0.6986 0.125,1.0626 v 2 3 h 1 v -2 -2 c 0,-0.33472 -0.04135,-0.6507 -0.09375,-0.96875 -0.0487,-0.2956 -0.09704,-0.59692 -0.1875,-0.875 -0.01,-0.031 -0.021,-0.063 -0.031,-0.094 C 89.589,9.7751 89.453,9.5154 89.312,9.2504 89.168,8.9769 88.997,8.7148 88.812,8.4692 88.628,8.2235 88.439,7.9957 88.219,7.7816 87.779,7.3536 87.276,6.9671 86.719,6.6879 86.44,6.5483 86.145,6.441 85.844,6.3442 z M 6,79.9998 v 2 2 c 0,3.324 2.676,6 6,6 h 72 c 3.324,0 6,-2.676 6,-6 v -2 -2 h -1 v 1 2 c 0,2.7818 -2.2182,5 -5,5 H 82 14 12 c -2.7818,0 -5,-2.218 -5,-5 v -2 -1 H 6 z" />
            <path
               inkscape:connector-curvature="0"
               id="rect3728"
               style="opacity:0.2;fill:url(#linearGradient9737)"
               d="M 12,6 C 8.676,6 6,8.676 6,12 v 2 2 H 7 V 15 13 C 7,10.218 9.2182,8 12,8 h 2 68 2 c 2.7818,0 5,2.2182 5,5 v 2 1 h 1 V 14 12 C 90,8.676 87.324,6 84,6 H 12 z M 6,80 v 2 2 c 0,0.33472 0.04135,0.6507 0.09375,0.96875 0.0487,0.2956 0.09704,0.59692 0.1875,0.875 0.00988,0.03038 0.020892,0.0636 0.03125,0.09375 0.098865,0.28777 0.23488,0.54745 0.375,0.8125 0.14459,0.27351 0.31562,0.53562 0.5,0.78125 0.18438,0.24564 0.37378,0.47347 0.59375,0.6875 0.43995,0.42806 0.94291,0.81453 1.5,1.0938 0.27854,0.13961 0.57347,0.24695 0.875,0.34375 -0.2562,-0.10022 -0.48671,-0.23627 -0.71875,-0.375 -0.00741,-0.0044 -0.023866,0.0045 -0.03125,0 C 9.374317,89.262 9.343957,89.23879 9.3125,89.2188 9.1921,89.1421 9.08148,89.05529 8.96875,88.9688 8.86258,88.888 8.75547,88.80769 8.65625,88.7188 c -0.1778,-0.162 -0.3473,-0.346 -0.4999,-0.531 -0.1075,-0.131 -0.2183,-0.266 -0.3124,-0.407 -0.0251,-0.038 -0.0385,-0.086 -0.0626,-0.125 -0.0647,-0.103 -0.1302,-0.204 -0.1874,-0.312 -0.1011,-0.195 -0.2057,-0.416 -0.2813,-0.625 -0.008,-0.022 -0.0236,-0.041 -0.0313,-0.063 -0.0318,-0.092 -0.0358,-0.187 -0.0624,-0.281 -0.0304,-0.107 -0.0704,-0.203 -0.0938,-0.313 -0.0729,-0.341 -0.125,-0.698 -0.125,-1.062 v -2 -3 h -1 z m 83,0 v 3 2 c 0,0.3643 -0.05212,0.72099 -0.125,1.0625 -0.04415,0.20689 -0.08838,0.39766 -0.15625,0.59375 -0.0077,0.02195 -0.0233,0.04069 -0.03125,0.0625 -0.06274,0.17374 -0.13838,0.36745 -0.21875,0.53125 -0.04158,0.0828 -0.07904,0.16995 -0.125,0.25 -0.0546,0.09721 -0.12677,0.18835 -0.1875,0.28125 -0.09411,0.14096 -0.20492,0.276 -0.3125,0.40625 -0.14317,0.17445 -0.30314,0.347 -0.46875,0.5 -0.01117,0.0102 -0.01998,0.02115 -0.03125,0.03125 -0.13839,0.12556 -0.28509,0.23444 -0.4375,0.34375 -0.10257,0.07315 -0.20432,0.15336 -0.3125,0.21875 -0.0074,0.0045 -0.02384,-0.0044 -0.03125,0 -0.23204,0.13873 -0.46255,0.27478 -0.71875,0.375 0.30153,-0.0968 0.59646,-0.20414 0.875,-0.34375 0.55709,-0.27922 1.0601,-0.66569 1.5,-1.0938 0.21997,-0.21403 0.40937,-0.44186 0.59375,-0.6875 0.18438,-0.24564 0.35541,-0.50774 0.5,-0.78125 0.14012,-0.26505 0.27614,-0.52473 0.375,-0.8125 0.01041,-0.03078 0.02133,-0.06274 0.03125,-0.09375 0.09046,-0.27808 0.1388,-0.5794 0.1875,-0.875 0.053,-0.318 0.094,-0.634 0.094,-0.969 v -2 -2 h -1 z" />
          </g>
          <g
             transform="translate(182.1875,996.76843)"
             id="layer6">
            <path
               inkscape:connector-curvature="0"
               id="rect3955"
               style="opacity:0.8;fill:url(#linearGradient9739)"
               d="m 68,22 v 2 H 84 V 22 H 68 z m 0,8 v 2 H 84 V 30 H 68 z m 0,8 v 2 H 84 V 38 H 68 z m 0,8 v 2 H 84 V 46 H 68 z m 0,8 v 2 H 84 V 54 H 68 z m 0,8 v 2 H 84 V 62 H 68 z m 0,8 v 2 H 84 V 70 H 68 z" />
            <path
               inkscape:connector-curvature="0"
               id="path3887"
               style="opacity:0.8;fill:#ffffff"
               d="M 57.981,44 V 56 H 64 L 57.9808,72 V 60 h -6.0192 l 6.0192,-16 z" />
          </g>
        </g>
      </g>
    </g>
  </g>
</svg>
