<?xml version="1.0" encoding="UTF-8" standalone="no"?>
<!-- Created with Inkscape (http://www.inkscape.org/) -->
<svg id="svg2982" xmlns:rdf="http://www.w3.org/1999/02/22-rdf-syntax-ns#" xmlns="http://www.w3.org/2000/svg" height="96" width="96" version="1.1" xmlns:cc="http://creativecommons.org/ns#" xmlns:xlink="http://www.w3.org/1999/xlink" xmlns:dc="http://purl.org/dc/elements/1.1/">
 <defs id="defs2984">
  <filter id="filter6279" color-interpolation-filters="sRGB">
   <feGaussianBlur id="feGaussianBlur6281" stdDeviation="0.8"/>
  </filter>
  <linearGradient id="linearGradient6043-7" y2="902.36" gradientUnits="userSpaceOnUse" y1="1052.4" gradientTransform="translate(0 -.0000096172)" x2="48" x1="48">
   <stop id="stop4639-9" style="stop-color:#115984" offset="0"/>
   <stop id="stop4641-3" style="stop-color:#5498c5" offset="1"/>
  </linearGradient>
 </defs>
 <metadata id="metadata2987">
  <rdf:RDF>
   <cc:Work rdf:about="">
    <dc:format>image/svg+xml</dc:format>
    <dc:type rdf:resource="http://purl.org/dc/dcmitype/StillImage"/>
    <dc:title/>
   </cc:Work>
  </rdf:RDF>
 </metadata>
 <g id="layer1" transform="translate(0 -956.36)">
  <g id="g21839">
   <rect id="rect9283" style="filter:url(#filter6279)" rx="5" ry="5" height="80" width="80" y="964.36" x="8"/>
   <rect id="rect9285" style="fill:#fff" rx="5" ry="5" height="80" width="80" y="964.36" x="8"/>
   <rect id="rect9285-8" style="fill:url(#linearGradient6043-7)" rx="5" ry="5" height="80" width="80" y="964.36" x="8"/>
   <path id="rect4223" d="m58.433 982.02c-2.8081 0.0144-4.4531 3.7369-2.5731 5.8229 1.9238 1.6374 4.3256 2.7721 5.8579 4.8848 5.2747 6.0746 5.5243 15.752 0.59333 22.103-1.5576 2.1775-3.71 3.8324-5.9772 5.209-2.2452 1.6909-1.3392 5.6623 1.4172 6.2122 2.2838 0.5365 4.0912-1.3517 5.8196-2.5287 7.6873-5.9663 11.21-16.665 8.5482-26.033-1.7397-6.5311-6.2237-12.374-12.258-15.472-0.45584-0.16227-0.9449-0.23031-1.4277-0.19861zm-21.427 0.0279c-1.9555 0.32231-3.4957 1.8132-5.05 2.9574-7.301 5.9547-10.602 16.248-8.1591 25.342 1.682 6.6567 6.2073 12.635 12.339 15.78 2.5924 1.0636 5.587-1.6937 4.661-4.3681-0.8122-2.4687-3.8291-2.9027-5.3234-4.8519-5.7663-5.4498-7.0327-14.874-2.932-21.662 1.6497-2.95 4.2432-5.2329 7.1158-6.9458 2.2031-1.7455 1.1999-5.6935-1.5691-6.1756-0.35421-0.0801-0.72068-0.10559-1.0826-0.0754z" style="color:#000000;fill:#fff"/>
  </g>
 </g>
</svg>
