<?xml version="1.0" encoding="UTF-8" standalone="no"?>
<!-- Created with Inkscape (http://www.inkscape.org/) -->

<svg
   xmlns:dc="http://purl.org/dc/elements/1.1/"
   xmlns:cc="http://creativecommons.org/ns#"
   xmlns:rdf="http://www.w3.org/1999/02/22-rdf-syntax-ns#"
   xmlns:svg="http://www.w3.org/2000/svg"
   xmlns="http://www.w3.org/2000/svg"
   xmlns:xlink="http://www.w3.org/1999/xlink"
   xmlns:sodipodi="http://sodipodi.sourceforge.net/DTD/sodipodi-0.dtd"
   xmlns:inkscape="http://www.inkscape.org/namespaces/inkscape"
   width="96"
   height="96"
   id="svg2"
   version="1.1"
   inkscape:version="0.48.1 r9760"
   sodipodi:docname="gnome-glchess.svg">
  <defs
     id="defs4">
    <filter
       color-interpolation-filters="sRGB"
       inkscape:collect="always"
       id="filter6279-2">
      <feGaussianBlur
         inkscape:collect="always"
         stdDeviation="0.8"
         id="feGaussianBlur6281-1" />
    </filter>
    <linearGradient
       inkscape:collect="always"
       xlink:href="#linearGradient3187"
       id="linearGradient5979"
       gradientUnits="userSpaceOnUse"
       gradientTransform="translate(0,-7.8515622e-6)"
       x1="48"
       y1="1052.3622"
       x2="48"
       y2="902.36218" />
    <linearGradient
       id="linearGradient3187">
      <stop
         id="stop3189-8"
         style="stop-color:#693222"
         offset="0" />
      <stop
         id="stop3191-8"
         style="stop-color:#b8755d"
         offset="1" />
    </linearGradient>
    <linearGradient
       y2="40"
       x2="8"
       y1="40"
       x1="88"
       gradientTransform="matrix(0,0.6547619,-0.6547619,0,261.61607,1013.3399)"
       gradientUnits="userSpaceOnUse"
       id="linearGradient3219"
       xlink:href="#linearGradient3860-7"
       inkscape:collect="always" />
    <linearGradient
       id="linearGradient3860-7">
      <stop
         id="stop3862-9"
         style="stop-color:#c3a579"
         offset="0" />
      <stop
         id="stop3864-0"
         style="stop-color:#d3bd9d"
         offset="1" />
    </linearGradient>
    <linearGradient
       id="linearGradient3984"
       y2="14.113"
       xlink:href="#linearGradient3860"
       gradientUnits="userSpaceOnUse"
       x2="29.663"
       y1="50.502998"
       x1="36.113998" />
    <linearGradient
       id="linearGradient3860">
      <stop
         id="stop3862-3"
         style="stop-color:#c3a579"
         offset="0" />
      <stop
         id="stop3864"
         style="stop-color:#d3bd9d"
         offset="1" />
    </linearGradient>
    <linearGradient
       id="linearGradient4000"
       y2="41.248001"
       xlink:href="#linearGradient3187-6"
       gradientUnits="userSpaceOnUse"
       x2="21.524"
       y1="83.459999"
       x1="29.961" />
    <linearGradient
       id="linearGradient3187-6">
      <stop
         id="stop3189-0"
         style="stop-color:#693222"
         offset="0" />
      <stop
         id="stop3191-5"
         style="stop-color:#b8755d"
         offset="1" />
    </linearGradient>
    <linearGradient
       id="linearGradient3976"
       y2="34.66"
       xlink:href="#linearGradient3860"
       gradientUnits="userSpaceOnUse"
       x2="64.415001"
       y1="83.970001"
       x1="75.043999" />
    <linearGradient
       id="linearGradient5931">
      <stop
         id="stop5933"
         style="stop-color:#c3a579"
         offset="0" />
      <stop
         id="stop5935"
         style="stop-color:#d3bd9d"
         offset="1" />
    </linearGradient>
    <linearGradient
       y2="14.245"
       x2="65.708"
       y1="47.723999"
       x1="74.806"
       gradientUnits="userSpaceOnUse"
       id="linearGradient3185"
       xlink:href="#linearGradient3187-6"
       inkscape:collect="always" />
    <linearGradient
       id="linearGradient5938">
      <stop
         id="stop5940"
         style="stop-color:#693222"
         offset="0" />
      <stop
         id="stop5942"
         style="stop-color:#b8755d"
         offset="1" />
    </linearGradient>
    <linearGradient
       id="linearGradient2908-5"
       y2="138.66"
       gradientUnits="userSpaceOnUse"
       x2="48"
       y1="20.221001"
       x1="48">
      <stop
         id="stop3739-6-5"
         style="stop-color:#fff"
         offset="0" />
      <stop
         id="stop3741-7-0"
         style="stop-color:#fff;stop-opacity:0"
         offset="1" />
    </linearGradient>
    <clipPath
       id="clipPath3613-7">
      <rect
         id="rect3615-38"
         style="fill:#ffffff"
         rx="6"
         ry="6"
         height="84"
         width="84"
         y="6"
         x="6" />
    </clipPath>
    <filter
       id="filter3794-23"
       height="1.3839999"
       width="1.3839999"
       color-interpolation-filters="sRGB"
       y="-0.192"
       x="-0.192">
      <feGaussianBlur
         id="feGaussianBlur3796-07"
         stdDeviation="5.28" />
    </filter>
    <linearGradient
       id="linearGradient3188-77"
       y2="63.893002"
       gradientUnits="userSpaceOnUse"
       x2="36.356998"
       y1="6"
       x1="36.356998">
      <stop
         id="stop3739-69"
         style="stop-color:#fff"
         offset="0" />
      <stop
         id="stop3741-11"
         style="stop-color:#fff;stop-opacity:0"
         offset="1" />
    </linearGradient>
    <radialGradient
       r="42"
       cy="90.171997"
       cx="48"
       gradientTransform="matrix(1.1573,0,0,0.99591,-7.551,0.19713)"
       gradientUnits="userSpaceOnUse"
       id="radialGradient3319"
       xlink:href="#radialGradient2874-9"
       inkscape:collect="always" />
    <radialGradient
       id="radialGradient2874-9"
       gradientUnits="userSpaceOnUse"
       cy="90.171997"
       cx="48"
       gradientTransform="matrix(1.1573,0,0,0.99591,-7.551,0.19713)"
       r="42">
      <stop
         id="stop3739-2"
         style="stop-color:#fff"
         offset="0" />
      <stop
         id="stop3741-6-0"
         style="stop-color:#fff;stop-opacity:0"
         offset="1" />
    </radialGradient>
  </defs>
  <sodipodi:namedview
     id="base"
     pagecolor="#ffffff"
     bordercolor="#666666"
     borderopacity="1.0"
     inkscape:pageopacity="0.0"
     inkscape:pageshadow="2"
     inkscape:zoom="3.959798"
     inkscape:cx="28.389459"
     inkscape:cy="57.490015"
     inkscape:document-units="px"
     inkscape:current-layer="layer1"
     showgrid="false"
     inkscape:window-width="1280"
     inkscape:window-height="725"
     inkscape:window-x="0"
     inkscape:window-y="25"
     inkscape:window-maximized="1" />
  <metadata
     id="metadata7">
    <rdf:RDF>
      <cc:Work
         rdf:about="">
        <dc:format>image/svg+xml</dc:format>
        <dc:type
           rdf:resource="http://purl.org/dc/dcmitype/StillImage" />
        <dc:title></dc:title>
      </cc:Work>
    </rdf:RDF>
  </metadata>
  <g
     inkscape:label="Layer 1"
     inkscape:groupmode="layer"
     id="layer1"
     transform="translate(0,-956.36217)">
    <g
       transform="translate(-182.1875,-40.40626)"
       id="g5887">
      <rect
         transform="translate(182.1875,40.40624)"
         y="964.36218"
         x="8"
         height="80"
         width="80"
         id="rect9283"
         style="fill:#000000;fill-opacity:1;stroke:none;filter:url(#filter6279-2)"
         rx="5"
         ry="5" />
      <rect
         ry="5"
         rx="5"
         style="fill:url(#linearGradient5979);fill-opacity:1;stroke:none"
         id="rect9285"
         width="80"
         height="80"
         x="8"
         y="964.36218"
         transform="translate(182.1875,40.40625)" />
      <g
         id="g9553">
        <path
           inkscape:connector-curvature="0"
           id="path3856"
           style="fill:url(#linearGradient3219)"
           d="m 257.6875,1021.1969 c 0,-2.1763 -1.75215,-3.9285 -3.92857,-3.9285 H 230.1875 v 27.5 h 27.5 v -23.5715 z m -27.5,23.5715 h -27.5 v 23.5715 c 0,2.1763 1.75215,3.9285 3.92857,3.9285 h 23.57143 v -27.5 z" />
        <g
           transform="matrix(0.71920863,0,0,0.71920863,194.77394,1009.7345)"
           id="g3142">
          <path
             inkscape:connector-curvature="0"
             d="m 17,14 v 2 4 c 8,4 2,15 2,15 -1,1 -3,1 -3,2.5 v 2 c 0,0.831 0.67502,1.4029 1.5,1.5 8.5,1 10.5,1 19,0 0.82485,-0.09704 1.5,-0.669 1.5,-1.5 v -2 C 38,36 36,36 35,35 35,35 29,24 37,20 v -4 -2 h -4 v 2 h -4 v -2 h -4 v 2 h -4 v -2 h -4 z m 0,23 c 10.633,1.9354 20,0 20,0 0,0 -2.8575,1.5138 -9.4688,1.5312 -6.611,0.018 -10.531,-1.531 -10.531,-1.531 z"
             style="fill:url(#linearGradient3984)"
             id="path3809" />
          <path
             inkscape:connector-curvature="0"
             d="m 25,53 v 2 h -2 v 3 h 2 v 2 c -1.108,0 -2,0.52951 -2,1.1875 v 0.625 c 0,0.26484 0.16131,0.4904 0.40625,0.6875 -3.083,0.593 -7.205,1.85 -8.406,4.5 -1.9853,4.3788 2.2168,6.4337 4,10 -1,1 -3,1 -3,2.5 v 2 c 0,0.831 0.67502,1.4029 1.5,1.5 8.5,1 10.5,1 19,0 0.82485,-0.09704 1.5,-0.669 1.5,-1.5 v -2 c 0,-1.5 -2,-1.5 -3,-2.5 1.783,-3.566 5.985,-5.621 4,-10 -1.201,-2.65 -5.323,-3.907 -8.406,-4.5 0.245,-0.197 0.406,-0.423 0.406,-0.688 v -0.625 c 0,-0.657 -0.892,-1.187 -2,-1.187 v -2 h 2 v -3 h -2 v -2 h -4 z m -8,26 c 10.633,1.9354 20,0 20,0 0,0 -2.8575,1.5138 -9.4688,1.5312 -6.611,0.018 -10.531,-1.531 -10.531,-1.531 z"
             style="color:#000000;fill:url(#linearGradient4000)"
             id="path3763" />
          <path
             inkscape:connector-curvature="0"
             d="m 69,52 c -1.1046,0 -2,0.89543 -2,2 0,0.9665 0.68238,1.7823 1.5938,1.9688 l -1.594,12.031 -4.281,-11.125 c 0.751,-0.288 1.281,-1.022 1.281,-1.875 0,-1.1046 -0.89543,-2 -2,-2 -1.10457,0 -2,0.89543 -2,2 0,1.10457 0.89543,2 2,2 0.05279,0 0.10449,0.004 0.15625,0 l 0.844,12 c 0,0 -2.282,-4.166 -5.719,-8.469 0.439,-0.367 0.719,-0.914 0.719,-1.531 0,-1.1046 -0.89543,-2 -2,-2 -1.10457,0 -2,0.89543 -2,2 0,1.10457 0.89543,2 2,2 0.29109,0 0.56302,-0.07568 0.8125,-0.1875 2.659,6.276 3.188,11.188 3.188,11.188 3.0032,1.5016 1,5 1,5 -1,1 -3,1 -3,2.5 v 2 c 0,0.831 0.67502,1.4029 1.5,1.5 8.5,1 10.5,1 19,0 0.82485,-0.09704 1.5,-0.669 1.5,-1.5 v -2 c 0,-1.5 -2,-1.5 -3,-2.5 0,0 -2.0032,-3.4984 1,-5 0,0 0.52936,-4.9125 3.1875,-11.188 0.249,0.112 0.521,0.188 0.812,0.188 1.1046,0 2,-0.89543 2,-2 0,-1.10457 -0.89543,-2 -2,-2 -1.10457,0 -2,0.89543 -2,2 0,0.61704 0.27954,1.1644 0.71875,1.5312 -3.437,4.303 -5.719,8.469 -5.719,8.469 l 0.84375,-12 c 0.05176,0.004 0.10346,0 0.15625,0 1.1046,0 2,-0.89543 2,-2 0,-1.10457 -0.89543,-2 -2,-2 -1.10457,0 -2,0.89543 -2,2 0,0.85259 0.52988,1.5872 1.2812,1.875 L 71,68.0005 69.406,55.9695 c 0.912,-0.187 1.594,-1.003 1.594,-1.969 0,-1.105 -0.895,-2 -2,-2 z M 59,79 c 10.633,1.9354 20,0 20,0 0,0 -2.8575,1.5138 -9.4688,1.5312 -6.611,0.018 -10.531,-1.531 -10.531,-1.531 z"
             style="color:#000000;fill:url(#linearGradient3976)"
             id="path3775" />
          <path
             inkscape:connector-curvature="0"
             d="m 69,14 c -2.7614,0 -5,2.2386 -5,5 0,1.1374 0.39159,2.1599 1.0312,3 h -0.843 c -0.665,0 -1.188,0.446 -1.188,1 0,0.554 0.5227,1 1.1875,1 h 0.812 c 4,8 -4,11 -4,11 -1,1 -3,1 -3,2.5 v 2 c 0,0.831 0.67502,1.4029 1.5,1.5 8.5,1 10.5,1 19,0 0.82485,-0.09704 1.5,-0.669 1.5,-1.5 v -2 c 0,-1.5 -2,-1.5 -3,-2.5 0,0 -8,-3 -4,-11 h 0.8125 c 0.665,0 1.188,-0.446 1.188,-1 0,-0.554 -0.523,-1 -1.188,-1 h -0.84375 c 0.64,-0.84 1.032,-1.863 1.032,-3 0,-2.761 -2.239,-5 -5,-5 z M 59,37 c 10.633,1.9354 20,0 20,0 0,0 -2.8575,1.5138 -9.4688,1.5312 -6.611,0.018 -10.531,-1.531 -10.531,-1.531 z"
             style="color:#000000;fill:url(#linearGradient3185)"
             id="path3813" />
        </g>
        <g
           transform="translate(182.1875,996.76843)"
           id="layer4">
          <rect
             id="rect3171"
             style="opacity:0.15;fill:url(#linearGradient2908-5);stroke:#ffffff;stroke-width:0.5;stroke-linecap:round;filter:url(#filter3794-23)"
             clip-path="url(#clipPath3613-7)"
             rx="12"
             ry="12"
             height="66"
             width="66"
             y="15"
             x="15" />
          <path
             inkscape:connector-curvature="0"
             id="rect3728"
             style="opacity:0.5;fill:url(#linearGradient3188-77)"
             d="M 12,6 C 8.676,6 6,8.676 6,12 v 2 68 2 c 0,0.33472 0.04135,0.6507 0.09375,0.96875 0.0487,0.2956 0.09704,0.59692 0.1875,0.875 0.00988,0.03038 0.020892,0.0636 0.03125,0.09375 0.098865,0.28777 0.23488,0.54745 0.375,0.8125 0.14459,0.27351 0.31562,0.53562 0.5,0.78125 0.18438,0.24564 0.37378,0.47347 0.59375,0.6875 0.43995,0.42806 0.94291,0.81453 1.5,1.0938 0.27854,0.13961 0.57347,0.24695 0.875,0.34375 -0.2562,-0.10022 -0.48671,-0.23627 -0.71875,-0.375 -0.00741,-0.0044 -0.023866,0.0045 -0.03125,0 C 9.374317,89.262 9.343957,89.23879 9.3125,89.2188 9.1921,89.1421 9.08148,89.05529 8.96875,88.9688 8.86258,88.888 8.75547,88.80769 8.65625,88.7188 c -0.1778,-0.162 -0.3473,-0.346 -0.4999,-0.531 -0.1075,-0.131 -0.2183,-0.266 -0.3124,-0.407 -0.0251,-0.038 -0.0385,-0.086 -0.0626,-0.125 -0.0647,-0.103 -0.1302,-0.204 -0.1874,-0.312 -0.1011,-0.195 -0.2057,-0.416 -0.2813,-0.625 -0.008,-0.022 -0.0236,-0.041 -0.0313,-0.063 -0.0318,-0.092 -0.0358,-0.187 -0.0624,-0.281 -0.0304,-0.107 -0.0704,-0.203 -0.0938,-0.313 -0.0729,-0.341 -0.125,-0.698 -0.125,-1.062 v -2 -68 -2 c 0,-2.782 2.2182,-5 5,-5 h 2 68 2 c 2.7818,0 5,2.2182 5,5 v 2 68 2 c 0,0.3643 -0.05212,0.72099 -0.125,1.0625 -0.04415,0.20689 -0.08838,0.39766 -0.15625,0.59375 -0.0077,0.02195 -0.0233,0.04069 -0.03125,0.0625 -0.06274,0.17374 -0.13838,0.36745 -0.21875,0.53125 -0.04158,0.0828 -0.07904,0.16995 -0.125,0.25 -0.0546,0.09721 -0.12677,0.18835 -0.1875,0.28125 -0.09411,0.14096 -0.20492,0.276 -0.3125,0.40625 -0.14317,0.17445 -0.30314,0.347 -0.46875,0.5 -0.01117,0.0102 -0.01998,0.02115 -0.03125,0.03125 -0.13839,0.12556 -0.28509,0.23444 -0.4375,0.34375 -0.10257,0.07315 -0.20432,0.15336 -0.3125,0.21875 -0.0074,0.0045 -0.02384,-0.0044 -0.03125,0 -0.23204,0.13873 -0.46255,0.27478 -0.71875,0.375 0.30153,-0.0968 0.59646,-0.20414 0.875,-0.34375 0.55709,-0.27922 1.0601,-0.66569 1.5,-1.0938 0.21997,-0.21403 0.40937,-0.44186 0.59375,-0.6875 0.18438,-0.24564 0.35541,-0.50774 0.5,-0.78125 0.14012,-0.26505 0.27614,-0.52473 0.375,-0.8125 0.01041,-0.03078 0.02133,-0.06274 0.03125,-0.09375 0.09046,-0.27808 0.1388,-0.5794 0.1875,-0.875 0.053,-0.318 0.094,-0.634 0.094,-0.969 v -2 -68 -2 c 0,-3.324 -2.676,-6 -6,-6 h -72 z" />
          <path
             inkscape:connector-curvature="0"
             id="path3615"
             style="opacity:0.2;fill:url(#radialGradient3319)"
             d="M 12,90 C 8.676,90 6,87.324 6,84 V 82 14 12 c 0,-0.33472 0.04135,-0.6507 0.09375,-0.96875 0.0487,-0.2956 0.09704,-0.59692 0.1875,-0.875 0.0099,-0.03 0.0209,-0.063 0.0313,-0.094 0.0989,-0.2873 0.2349,-0.547 0.375,-0.812 0.1446,-0.2735 0.3156,-0.5356 0.5,-0.7812 0.1844,-0.2457 0.3738,-0.4735 0.5937,-0.6876 0.44,-0.428 0.943,-0.8145 1.5,-1.0937 0.2786,-0.1396 0.5735,-0.2469 0.8748,-0.3437 -0.256,0.1002 -0.4865,0.2362 -0.7185,0.375 -0.00741,0.0044 -0.023866,-0.0045 -0.03125,0 -0.031933,0.0193 -0.062293,0.04251 -0.09375,0.0625 -0.1204,0.0767 -0.23102,0.16351 -0.34375,0.25 -0.10617,0.0808 -0.21328,0.16111 -0.3125,0.25 -0.1779,0.1614 -0.3474,0.3453 -0.5,0.5312 -0.1075,0.1303 -0.2183,0.2653 -0.3124,0.4063 -0.0251,0.0383 -0.0385,0.0858 -0.0626,0.125 -0.0647,0.103 -0.1302,0.2045 -0.1874,0.3124 -0.1011,0.1948 -0.2057,0.4158 -0.2813,0.625 -0.008,0.0219 -0.0236,0.0406 -0.0313,0.0626 -0.0318,0.0919 -0.0358,0.1868 -0.0624,0.2812 -0.0304,0.1066 -0.0704,0.203 -0.0938,0.3125 -0.0729,0.3415 -0.125,0.6985 -0.125,1.0625 v 2 68 2 c 0,2.7818 2.2182,5 5,5 h 2 68 2 c 2.7818,0 5,-2.2182 5,-5 v -2 -68 -2 c 0,-0.364 -0.052,-0.721 -0.125,-1.0625 -0.044,-0.2069 -0.088,-0.3977 -0.156,-0.5937 -0.008,-0.022 -0.024,-0.0407 -0.031,-0.0626 -0.063,-0.1737 -0.139,-0.3674 -0.219,-0.5312 -0.042,-0.0828 -0.079,-0.17 -0.125,-0.25 -0.055,-0.0972 -0.127,-0.1884 -0.188,-0.2812 -0.094,-0.141 -0.205,-0.276 -0.312,-0.4063 -0.143,-0.1745 -0.303,-0.347 -0.469,-0.5 -0.011,-0.0102 -0.02,-0.0211 -0.031,-0.0313 -0.139,-0.1255 -0.285,-0.2344 -0.438,-0.3437 -0.102,-0.0731 -0.204,-0.1534 -0.312,-0.2187 -0.0074,-0.0045 -0.02384,0.0044 -0.03125,0 -0.23204,-0.13873 -0.46255,-0.27478 -0.71875,-0.375 0.30153,0.0968 0.59646,0.20414 0.875,0.34375 0.55709,0.27922 1.0601,0.66569 1.5,1.0938 0.21997,0.21403 0.40937,0.44186 0.59375,0.6875 0.18438,0.24564 0.35541,0.50774 0.5,0.78125 0.14012,0.26505 0.27614,0.52473 0.375,0.8125 0.01041,0.03078 0.02133,0.06274 0.03125,0.09375 0.09046,0.27808 0.1388,0.5794 0.1875,0.875 0.053,0.318 0.094,0.634 0.094,0.969 v 2 68 2 c 0,3.324 -2.676,6 -6,6 h -72 z" />
        </g>
      </g>
    </g>
  </g>
</svg>
