<?xml version="1.0" encoding="UTF-8" standalone="no"?>
<!-- Created with Inkscape (http://www.inkscape.org/) -->

<svg
   xmlns:dc="http://purl.org/dc/elements/1.1/"
   xmlns:cc="http://creativecommons.org/ns#"
   xmlns:rdf="http://www.w3.org/1999/02/22-rdf-syntax-ns#"
   xmlns:svg="http://www.w3.org/2000/svg"
   xmlns="http://www.w3.org/2000/svg"
   xmlns:xlink="http://www.w3.org/1999/xlink"
   xmlns:sodipodi="http://sodipodi.sourceforge.net/DTD/sodipodi-0.dtd"
   xmlns:inkscape="http://www.inkscape.org/namespaces/inkscape"
   width="96"
   height="96"
   id="svg2"
   version="1.1"
   inkscape:version="0.48.1 r9760"
   sodipodi:docname="gnome-lightsoff.svg">
  <defs
     id="defs4">
    <filter
       color-interpolation-filters="sRGB"
       inkscape:collect="always"
       id="filter6279-2">
      <feGaussianBlur
         inkscape:collect="always"
         stdDeviation="0.8"
         id="feGaussianBlur6281-1" />
    </filter>
    <linearGradient
       inkscape:collect="always"
       xlink:href="#linearGradient3769"
       id="linearGradient8668"
       gradientUnits="userSpaceOnUse"
       gradientTransform="translate(0,-7.8515622e-6)"
       x1="48"
       y1="1052.3622"
       x2="48"
       y2="902.36218" />
    <linearGradient
       id="linearGradient3769">
      <stop
         id="stop3771"
         style="stop-color:#ea880b"
         offset="0" />
      <stop
         id="stop3773"
         style="stop-color:#f7cc2e"
         offset="1" />
    </linearGradient>
    <linearGradient
       id="linearGradient8096"
       y2="5.9877"
       xlink:href="#linearGradient3977"
       gradientUnits="userSpaceOnUse"
       x2="48"
       gradientTransform="matrix(0.5,0,0,0.5,45,-51)"
       y1="90"
       x1="48" />
    <linearGradient
       id="linearGradient3977">
      <stop
         id="stop3979-8"
         style="stop-color:#366598"
         offset="0" />
      <stop
         id="stop3981-3"
         style="stop-color:#6593c3"
         offset="1" />
    </linearGradient>
    <linearGradient
       id="linearGradient3975"
       y2="5.9877"
       xlink:href="#linearGradient4941"
       gradientUnits="userSpaceOnUse"
       x2="48"
       gradientTransform="matrix(0.5,0,0,0.5,45,-93)"
       y1="90"
       x1="48" />
    <linearGradient
       id="linearGradient4941">
      <stop
         id="stop4943"
         style="stop-color:#2a2a2a"
         offset="0" />
      <stop
         id="stop4945"
         style="stop-color:#4b4b4b"
         offset="1" />
    </linearGradient>
    <linearGradient
       id="linearGradient3987"
       y2="5.9877"
       xlink:href="#linearGradient3977"
       gradientUnits="userSpaceOnUse"
       x2="48"
       gradientTransform="matrix(0.5,0,0,0.5,3,-93)"
       y1="90"
       x1="48" />
    <linearGradient
       id="linearGradient5877">
      <stop
         id="stop5879"
         style="stop-color:#366598"
         offset="0" />
      <stop
         id="stop5881"
         style="stop-color:#6593c3"
         offset="1" />
    </linearGradient>
    <linearGradient
       id="linearGradient3993"
       y2="5.9877"
       xlink:href="#linearGradient4941"
       gradientUnits="userSpaceOnUse"
       x2="48"
       gradientTransform="matrix(0.5,0,0,0.5,3,-51)"
       y1="90"
       x1="48" />
    <linearGradient
       id="linearGradient5884">
      <stop
         id="stop5886"
         style="stop-color:#2a2a2a"
         offset="0" />
      <stop
         id="stop5888"
         style="stop-color:#4b4b4b"
         offset="1" />
    </linearGradient>
    <linearGradient
       id="linearGradient4003"
       y2="88"
       xlink:href="#linearGradient3997"
       gradientUnits="userSpaceOnUse"
       x2="24"
       y1="48"
       x1="24" />
    <linearGradient
       id="linearGradient3997">
      <stop
         id="stop3999"
         style="stop-color:#fff"
         offset="0" />
      <stop
         id="stop4001"
         style="stop-color:#fff;stop-opacity:0"
         offset="1" />
    </linearGradient>
    <linearGradient
       id="linearGradient4007-3"
       y2="88"
       xlink:href="#linearGradient3997"
       gradientUnits="userSpaceOnUse"
       x2="24"
       gradientTransform="translate(42,-42)"
       y1="48"
       x1="24" />
    <linearGradient
       id="linearGradient5895">
      <stop
         id="stop5897"
         style="stop-color:#fff"
         offset="0" />
      <stop
         id="stop5899"
         style="stop-color:#fff;stop-opacity:0"
         offset="1" />
    </linearGradient>
    <linearGradient
       id="linearGradient4011"
       y2="88"
       xlink:href="#linearGradient3997"
       gradientUnits="userSpaceOnUse"
       x2="24"
       gradientTransform="translate(0,-42)"
       y1="48"
       x1="24" />
    <linearGradient
       id="linearGradient5902">
      <stop
         id="stop5904"
         style="stop-color:#fff"
         offset="0" />
      <stop
         id="stop5906"
         style="stop-color:#fff;stop-opacity:0"
         offset="1" />
    </linearGradient>
    <linearGradient
       y2="88"
       x2="24"
       y1="48"
       x1="24"
       gradientTransform="translate(42,0)"
       gradientUnits="userSpaceOnUse"
       id="linearGradient3121"
       xlink:href="#linearGradient3997"
       inkscape:collect="always" />
    <linearGradient
       id="linearGradient5909">
      <stop
         id="stop5911"
         style="stop-color:#fff"
         offset="0" />
      <stop
         id="stop5913"
         style="stop-color:#fff;stop-opacity:0"
         offset="1" />
    </linearGradient>
  </defs>
  <sodipodi:namedview
     id="base"
     pagecolor="#ffffff"
     bordercolor="#666666"
     borderopacity="1.0"
     inkscape:pageopacity="0.0"
     inkscape:pageshadow="2"
     inkscape:zoom="3.959798"
     inkscape:cx="28.389459"
     inkscape:cy="57.490015"
     inkscape:document-units="px"
     inkscape:current-layer="layer1"
     showgrid="false"
     inkscape:window-width="1280"
     inkscape:window-height="725"
     inkscape:window-x="0"
     inkscape:window-y="25"
     inkscape:window-maximized="1" />
  <metadata
     id="metadata7">
    <rdf:RDF>
      <cc:Work
         rdf:about="">
        <dc:format>image/svg+xml</dc:format>
        <dc:type
           rdf:resource="http://purl.org/dc/dcmitype/StillImage" />
        <dc:title></dc:title>
      </cc:Work>
    </rdf:RDF>
  </metadata>
  <g
     inkscape:label="Layer 1"
     inkscape:groupmode="layer"
     id="layer1"
     transform="translate(0,-956.36217)">
    <g
       transform="translate(2.861023e-8,-9.737015e-6)"
       id="g10446">
      <rect
         transform="translate(0,-7.8515622e-6)"
         y="964.36218"
         x="8"
         height="80"
         width="80"
         id="rect9283"
         style="fill:#000000;fill-opacity:1;stroke:none;filter:url(#filter6279-2)"
         rx="5"
         ry="5" />
      <rect
         ry="5"
         rx="5"
         style="fill:url(#linearGradient8668);fill-opacity:1;stroke:none"
         id="rect9285"
         width="80"
         height="80"
         x="8"
         y="964.36218" />
      <g
         transform="translate(-182.1875,-40.40625)"
         id="g26594">
        <g
           id="g3037"
           transform="matrix(0.6547619,0,0,0.6547619,198.75893,1013.3399)">
          <rect
             id="rect8039"
             style="fill:url(#linearGradient8096)"
             transform="matrix(0,1,-1,0,0,0)"
             rx="6"
             ry="6"
             height="42"
             width="42"
             y="-48"
             x="48" />
          <path
             id="rect8166"
             style="opacity:0.3;fill:#ffffff"
             d="m 12,48 c -3.324,0 -6,2.676 -6,6 v 30 c 0,3.324 2.676,6 6,6 h 30 c 3.324,0 6,-2.676 6,-6 V 54 c 0,-3.324 -2.676,-6 -6,-6 H 12 z m 0,1 h 30 c 2.7789,0 5,2.2211 5,5 v 30 c 0,2.7789 -2.2211,5 -5,5 H 12 c -2.7789,3e-6 -5,-2.2211 -5,-5 V 54 c 0,-2.7789 2.2211,-5 5,-5 z"
             inkscape:connector-curvature="0" />
          <rect
             id="rect3971"
             style="fill:url(#linearGradient3975)"
             transform="matrix(0,1,-1,0,0,0)"
             rx="6"
             ry="6"
             height="42"
             width="42"
             y="-90"
             x="48" />
          <path
             id="path3973"
             style="opacity:0.2;fill:#ffffff"
             d="m 54,48 c -3.324,0 -6,2.676 -6,6 v 30 c 0,3.324 2.676,6 6,6 h 30 c 3.324,0 6,-2.676 6,-6 V 54 c 0,-3.324 -2.676,-6 -6,-6 H 54 z m 0,1 h 30 c 2.7789,0 5,2.2211 5,5 v 30 c 0,2.7789 -2.2211,5 -5,5 H 54 c -2.7789,3e-6 -5,-2.2211 -5,-5 V 54 c 0,-2.7789 2.2211,-5 5,-5 z"
             inkscape:connector-curvature="0" />
          <rect
             id="rect3983"
             style="fill:url(#linearGradient3987)"
             transform="matrix(0,1,-1,0,0,0)"
             rx="6"
             ry="6"
             height="42"
             width="42"
             y="-90"
             x="6" />
          <path
             id="path3985"
             style="opacity:0.3;fill:#ffffff"
             d="m 54,6 c -3.324,0 -6,2.676 -6,6 v 30 c 0,3.324 2.676,6 6,6 h 30 c 3.324,0 6,-2.676 6,-6 V 12 C 90,8.676 87.324,6 84,6 H 54 z m 0,1 h 30 c 2.7789,0 5,2.2211 5,5 v 30 c 0,2.7789 -2.2211,5 -5,5 H 54 c -2.7789,3e-6 -5,-2.2211 -5,-5 V 12 c 0,-2.7789 2.2211,-5 5,-5 z"
             inkscape:connector-curvature="0" />
          <rect
             id="rect3989"
             style="fill:url(#linearGradient3993)"
             transform="matrix(0,1,-1,0,0,0)"
             rx="6"
             ry="6"
             height="42"
             width="42"
             y="-48"
             x="6" />
          <path
             id="path3991"
             style="opacity:0.2;fill:#ffffff"
             d="M 12,6 C 8.676,6 6,8.676 6,12 v 30 c 0,3.324 2.676,6 6,6 h 30 c 3.324,0 6,-2.676 6,-6 V 12 C 48,8.676 45.324,6 42,6 H 12 z m 0,1 h 30 c 2.7789,0 5,2.2211 5,5 v 30 c 0,2.7789 -2.2211,5 -5,5 H 12 c -2.7789,3e-6 -5,-2.2211 -5,-5 V 12 C 7,9.2211 9.2211,7 12,7 z"
             inkscape:connector-curvature="0" />
          <path
             id="path3995"
             style="opacity:0.1;fill:url(#linearGradient4003)"
             d="m 12,48 c -3.324,0 -6,2.676 -6,6 v 30 c 0,2.9849 2.1528,5.4349 5,5.9062 -2.2868,-0.463 -4,-2.474 -4,-4.906 v -30 c 0,-2.7789 2.2211,-5 5,-5 h 30 c 2.7789,0 5,2.2211 5,5 v 30 c 0,2.4316 -1.7132,4.4431 -4,4.9062 2.847,-0.471 5,-2.921 5,-5.906 v -30 c 0,-3.324 -2.676,-6 -6,-6 H 12 z"
             inkscape:connector-curvature="0" />
          <path
             id="path4005"
             style="opacity:0.1;fill:url(#linearGradient4007-3)"
             d="m 54,6 c -3.324,0 -6,2.676 -6,6 v 30 c 0,2.9849 2.1528,5.4349 5,5.9062 -2.287,-0.463 -4,-2.474 -4,-4.906 v -30 c 0,-2.7789 2.2211,-5 5,-5 h 30 c 2.7789,0 5,2.2211 5,5 v 30 c 0,2.4316 -1.7132,4.4431 -4,4.9062 2.847,-0.471 5,-2.921 5,-5.906 v -30 c 0,-3.324 -2.676,-6 -6,-6 H 54 z"
             inkscape:connector-curvature="0" />
          <path
             id="path4009"
             style="opacity:0.1;fill:url(#linearGradient4011)"
             d="M 12,6 C 8.676,6 6,8.676 6,12 v 30 c 0,2.9849 2.1528,5.4349 5,5.9062 -2.2868,-0.463 -4,-2.474 -4,-4.906 v -30 c 0,-2.779 2.2211,-5 5,-5 h 30 c 2.7789,0 5,2.2211 5,5 v 30 c 0,2.4316 -1.7132,4.4431 -4,4.9062 2.847,-0.471 5,-2.921 5,-5.906 v -30 c 0,-3.324 -2.676,-6 -6,-6 H 12 z"
             inkscape:connector-curvature="0" />
          <path
             id="path4013"
             style="opacity:0.1;fill:url(#linearGradient3121)"
             d="m 54,48 c -3.324,0 -6,2.676 -6,6 v 30 c 0,2.9849 2.1528,5.4349 5,5.9062 -2.287,-0.463 -4,-2.474 -4,-4.906 v -30 c 0,-2.7789 2.2211,-5 5,-5 h 30 c 2.7789,0 5,2.2211 5,5 v 30 c 0,2.4316 -1.7132,4.4431 -4,4.9062 2.847,-0.471 5,-2.921 5,-5.906 v -30 c 0,-3.324 -2.676,-6 -6,-6 H 54 z"
             inkscape:connector-curvature="0" />
        </g>
      </g>
    </g>
  </g>
</svg>
