<?xml version="1.0" encoding="UTF-8" standalone="no"?>
<!-- Created with Inkscape (http://www.inkscape.org/) -->
<svg id="svg2982" xmlns:rdf="http://www.w3.org/1999/02/22-rdf-syntax-ns#" xmlns="http://www.w3.org/2000/svg" height="96" width="96" version="1.1" xmlns:cc="http://creativecommons.org/ns#" xmlns:xlink="http://www.w3.org/1999/xlink" xmlns:dc="http://purl.org/dc/elements/1.1/">
 <defs id="defs2984">
  <filter id="filter6279" color-interpolation-filters="sRGB">
   <feGaussianBlur id="feGaussianBlur6281" stdDeviation="0.8"/>
  </filter>
  <linearGradient id="linearGradient6043-8" y2="902.36" gradientUnits="userSpaceOnUse" y1="1052.4" gradientTransform="translate(0 -.0000096172)" x2="48" x1="48">
   <stop id="stop4639-7" style="stop-color:#115984" offset="0"/>
   <stop id="stop4641-8" style="stop-color:#5498c5" offset="1"/>
  </linearGradient>
 </defs>
 <metadata id="metadata2987">
  <rdf:RDF>
   <cc:Work rdf:about="">
    <dc:format>image/svg+xml</dc:format>
    <dc:type rdf:resource="http://purl.org/dc/dcmitype/StillImage"/>
    <dc:title/>
   </cc:Work>
  </rdf:RDF>
 </metadata>
 <g id="layer1" transform="translate(0 -956.36)">
  <g id="g21810">
   <rect id="rect9283" style="filter:url(#filter6279)" rx="5" ry="5" height="80" width="80" y="964.36" x="8"/>
   <rect id="rect9285" style="fill:#fff" rx="5" ry="5" height="80" width="80" y="964.36" x="8"/>
   <rect id="rect9285-6" style="fill:url(#linearGradient6043-8)" rx="5" ry="5" height="80" width="80" y="964.36" x="8"/>
   <path id="path3297" d="m47.318 979.36c-9.3092 0.13294-18.191 5.9786-22.006 14.466-4.3182 9.0182-2.4575 20.516 4.4961 27.703 6.4599 7.0243 17.079 9.6388 26.083 6.5625 9.2412-2.9384 16.187-11.734 16.979-21.391 1.0497-9.8015-4.3326-19.886-13.097-24.407-3.7928-2.0552-8.1497-3.0336-12.455-2.9322zm0.67022 7.1211c7.808-0.12055 15.197 5.5031 17.202 13.041 0.12442 0.416 0.21743 0.83417 0.30718 1.2567h-35.019c0.42818-2.1782 1.2554-4.2787 2.5133-6.1437 3.2247-5.0046 9.025-8.2201 14.996-8.1544zm-17.482 21.447h34.963c-1.029 4.8793-4.0361 9.3488-8.4336 11.813-6.8619 4.2572-16.488 2.8712-21.978-3.0161-2.3778-2.4045-3.8963-5.5187-4.5519-8.7966z" style="color:#000000;fill:#fff"/>
  </g>
 </g>
</svg>
