<?xml version="1.0" encoding="UTF-8" standalone="no"?>
<!-- Created with Inkscape (http://www.inkscape.org/) -->

<svg
   xmlns:dc="http://purl.org/dc/elements/1.1/"
   xmlns:cc="http://creativecommons.org/ns#"
   xmlns:rdf="http://www.w3.org/1999/02/22-rdf-syntax-ns#"
   xmlns:svg="http://www.w3.org/2000/svg"
   xmlns="http://www.w3.org/2000/svg"
   xmlns:xlink="http://www.w3.org/1999/xlink"
   xmlns:sodipodi="http://sodipodi.sourceforge.net/DTD/sodipodi-0.dtd"
   xmlns:inkscape="http://www.inkscape.org/namespaces/inkscape"
   width="96"
   height="96"
   id="svg2"
   version="1.1"
   inkscape:version="0.48.1 r9760"
   sodipodi:docname="gnome-nettool.svg">
  <defs
     id="defs4">
    <filter
       color-interpolation-filters="sRGB"
       inkscape:collect="always"
       id="filter6279-2">
      <feGaussianBlur
         inkscape:collect="always"
         stdDeviation="0.8"
         id="feGaussianBlur6281-1" />
    </filter>
    <linearGradient
       inkscape:collect="always"
       xlink:href="#linearGradient3617-33"
       id="linearGradient5979"
       gradientUnits="userSpaceOnUse"
       gradientTransform="translate(0,-7.8515622e-6)"
       x1="48"
       y1="1052.3622"
       x2="48"
       y2="902.36218" />
    <linearGradient
       id="linearGradient3617-33"
       y2="5.9877"
       gradientUnits="userSpaceOnUse"
       x2="48"
       gradientTransform="matrix(1.0172,0,0,1.0172,8.6465995,2.6465998)"
       y1="90"
       x1="48">
      <stop
         id="stop3189-8"
         style="stop-color:#a0a0a0"
         offset="0" />
      <stop
         id="stop3191-6"
         style="stop-color:#dcdcdc"
         offset="1" />
    </linearGradient>
    <clipPath
       id="clipPath3613-40">
      <rect
         id="rect3615-8"
         style="fill:#ffffff"
         rx="6"
         ry="6"
         height="84"
         width="84"
         y="6"
         x="6" />
    </clipPath>
    <filter
       id="filter3794-51"
       height="1.3839999"
       width="1.3839999"
       color-interpolation-filters="sRGB"
       y="-0.192"
       x="-0.192">
      <feGaussianBlur
         id="feGaussianBlur3796-662"
         stdDeviation="5.28" />
    </filter>
    <radialGradient
       id="radialGradient4133"
       gradientUnits="userSpaceOnUse"
       cy="88.987"
       cx="64.134003"
       gradientTransform="matrix(0.83859,6.6474e-8,-6.789e-8,0.85645,10.352,12.774)"
       r="39.752998">
      <stop
         id="stop3457-1"
         style="stop-color:#3b7e15"
         offset="0" />
      <stop
         id="stop3459-9"
         style="stop-color:#131813"
         offset="1" />
    </radialGradient>
    <linearGradient
       id="linearGradient3665"
       y2="61.944"
       gradientUnits="userSpaceOnUse"
       x2="58.102001"
       gradientTransform="matrix(0.68811,0,0,0.81438,4.0546,1.642)"
       y1="15.531"
       x1="58.102001">
      <stop
         id="stop3661"
         style="stop-color:#6fde00;stop-opacity:.74194"
         offset="0" />
      <stop
         id="stop3663-6"
         style="stop-color:#e3ff77;stop-opacity:0"
         offset="1" />
    </linearGradient>
    <radialGradient
       r="3"
       cy="59.5"
       cx="64"
       gradientTransform="matrix(1,0,0,1.3743,0,-24.273)"
       gradientUnits="userSpaceOnUse"
       id="radialGradient3791-3"
       xlink:href="#linearGradient3567"
       inkscape:collect="always" />
    <linearGradient
       id="linearGradient3567">
      <stop
         id="stop3569-4"
         style="stop-color:#6ab700"
         offset="0" />
      <stop
         id="stop3571-8"
         style="stop-color:#6ab700;stop-opacity:0"
         offset="1" />
    </linearGradient>
    <radialGradient
       r="3"
       cy="59.5"
       cx="64"
       gradientTransform="matrix(1,0,0,1.3743,0,-30.273)"
       gradientUnits="userSpaceOnUse"
       id="radialGradient3793"
       xlink:href="#linearGradient3567"
       inkscape:collect="always" />
    <linearGradient
       id="linearGradient6061">
      <stop
         id="stop6063"
         style="stop-color:#6ab700"
         offset="0" />
      <stop
         id="stop6065"
         style="stop-color:#6ab700;stop-opacity:0"
         offset="1" />
    </linearGradient>
    <radialGradient
       r="3"
       cy="59.5"
       cx="64"
       gradientTransform="matrix(1,0,0,1.3743,0,-36.273)"
       gradientUnits="userSpaceOnUse"
       id="radialGradient3795"
       xlink:href="#linearGradient3567"
       inkscape:collect="always" />
    <linearGradient
       id="linearGradient6068">
      <stop
         id="stop6070"
         style="stop-color:#6ab700"
         offset="0" />
      <stop
         id="stop6072"
         style="stop-color:#6ab700;stop-opacity:0"
         offset="1" />
    </linearGradient>
    <radialGradient
       r="3"
       cy="59.5"
       cx="64"
       gradientTransform="matrix(1,0,0,1.3743,0,-48.273)"
       gradientUnits="userSpaceOnUse"
       id="radialGradient3797"
       xlink:href="#linearGradient3567"
       inkscape:collect="always" />
    <linearGradient
       id="linearGradient6075">
      <stop
         id="stop6077"
         style="stop-color:#6ab700"
         offset="0" />
      <stop
         id="stop6079"
         style="stop-color:#6ab700;stop-opacity:0"
         offset="1" />
    </linearGradient>
    <radialGradient
       r="3"
       cy="59.5"
       cx="64"
       gradientTransform="matrix(1,0,0,1.3743,0,-11.273)"
       gradientUnits="userSpaceOnUse"
       id="radialGradient3799"
       xlink:href="#linearGradient3567"
       inkscape:collect="always" />
    <linearGradient
       id="linearGradient6082">
      <stop
         id="stop6084"
         style="stop-color:#6ab700"
         offset="0" />
      <stop
         id="stop6086"
         style="stop-color:#6ab700;stop-opacity:0"
         offset="1" />
    </linearGradient>
    <radialGradient
       r="3"
       cy="59.5"
       cx="64"
       gradientTransform="matrix(1,0,0,1.3743,0,-5.2725)"
       gradientUnits="userSpaceOnUse"
       id="radialGradient3801"
       xlink:href="#linearGradient3567"
       inkscape:collect="always" />
    <linearGradient
       id="linearGradient6089">
      <stop
         id="stop6091"
         style="stop-color:#6ab700"
         offset="0" />
      <stop
         id="stop6093"
         style="stop-color:#6ab700;stop-opacity:0"
         offset="1" />
    </linearGradient>
    <radialGradient
       r="3"
       cy="59.5"
       cx="64"
       gradientTransform="matrix(1,0,0,1.3743,0,0.72746)"
       gradientUnits="userSpaceOnUse"
       id="radialGradient3803"
       xlink:href="#linearGradient3567"
       inkscape:collect="always" />
    <linearGradient
       id="linearGradient6096">
      <stop
         id="stop6098"
         style="stop-color:#6ab700"
         offset="0" />
      <stop
         id="stop6100"
         style="stop-color:#6ab700;stop-opacity:0"
         offset="1" />
    </linearGradient>
    <radialGradient
       r="3"
       cy="59.5"
       cx="64"
       gradientTransform="matrix(1,0,0,1.3743,0,12.727)"
       gradientUnits="userSpaceOnUse"
       id="radialGradient3805"
       xlink:href="#linearGradient3567"
       inkscape:collect="always" />
    <linearGradient
       id="linearGradient6103">
      <stop
         id="stop6105"
         style="stop-color:#6ab700"
         offset="0" />
      <stop
         id="stop6107"
         style="stop-color:#6ab700;stop-opacity:0"
         offset="1" />
    </linearGradient>
    <radialGradient
       id="radialGradient3634"
       xlink:href="#linearGradient3567"
       gradientUnits="userSpaceOnUse"
       cy="59.5"
       cx="64"
       gradientTransform="matrix(1,0,0,1.3743,0,-24.273)"
       r="3" />
    <linearGradient
       id="linearGradient6110">
      <stop
         id="stop6112"
         style="stop-color:#6ab700"
         offset="0" />
      <stop
         id="stop6114"
         style="stop-color:#6ab700;stop-opacity:0"
         offset="1" />
    </linearGradient>
    <radialGradient
       id="radialGradient3636"
       xlink:href="#linearGradient3567"
       gradientUnits="userSpaceOnUse"
       cy="59.5"
       cx="64"
       gradientTransform="matrix(1,0,0,1.3743,0,-30.273)"
       r="3" />
    <linearGradient
       id="linearGradient6117">
      <stop
         id="stop6119"
         style="stop-color:#6ab700"
         offset="0" />
      <stop
         id="stop6121"
         style="stop-color:#6ab700;stop-opacity:0"
         offset="1" />
    </linearGradient>
    <radialGradient
       id="radialGradient3638"
       xlink:href="#linearGradient3567"
       gradientUnits="userSpaceOnUse"
       cy="59.5"
       cx="64"
       gradientTransform="matrix(1,0,0,1.3743,0,-36.273)"
       r="3" />
    <linearGradient
       id="linearGradient6124">
      <stop
         id="stop6126"
         style="stop-color:#6ab700"
         offset="0" />
      <stop
         id="stop6128"
         style="stop-color:#6ab700;stop-opacity:0"
         offset="1" />
    </linearGradient>
    <radialGradient
       id="radialGradient3640"
       xlink:href="#linearGradient3567"
       gradientUnits="userSpaceOnUse"
       cy="59.5"
       cx="64"
       gradientTransform="matrix(1,0,0,1.3743,0,-48.273)"
       r="3" />
    <linearGradient
       id="linearGradient6131">
      <stop
         id="stop6133"
         style="stop-color:#6ab700"
         offset="0" />
      <stop
         id="stop6135"
         style="stop-color:#6ab700;stop-opacity:0"
         offset="1" />
    </linearGradient>
    <radialGradient
       id="radialGradient3642"
       xlink:href="#linearGradient3567"
       gradientUnits="userSpaceOnUse"
       cy="59.5"
       cx="64"
       gradientTransform="matrix(1,0,0,1.3743,0,-11.273)"
       r="3" />
    <linearGradient
       id="linearGradient6138">
      <stop
         id="stop6140"
         style="stop-color:#6ab700"
         offset="0" />
      <stop
         id="stop6142"
         style="stop-color:#6ab700;stop-opacity:0"
         offset="1" />
    </linearGradient>
    <radialGradient
       id="radialGradient3644"
       xlink:href="#linearGradient3567"
       gradientUnits="userSpaceOnUse"
       cy="59.5"
       cx="64"
       gradientTransform="matrix(1,0,0,1.3743,0,-5.2725)"
       r="3" />
    <linearGradient
       id="linearGradient6145">
      <stop
         id="stop6147"
         style="stop-color:#6ab700"
         offset="0" />
      <stop
         id="stop6149"
         style="stop-color:#6ab700;stop-opacity:0"
         offset="1" />
    </linearGradient>
    <radialGradient
       id="radialGradient3646"
       xlink:href="#linearGradient3567"
       gradientUnits="userSpaceOnUse"
       cy="59.5"
       cx="64"
       gradientTransform="matrix(1,0,0,1.3743,0,0.72746)"
       r="3" />
    <linearGradient
       id="linearGradient6152">
      <stop
         id="stop6154"
         style="stop-color:#6ab700"
         offset="0" />
      <stop
         id="stop6156"
         style="stop-color:#6ab700;stop-opacity:0"
         offset="1" />
    </linearGradient>
    <radialGradient
       id="radialGradient3648"
       xlink:href="#linearGradient3567"
       gradientUnits="userSpaceOnUse"
       cy="59.5"
       cx="64"
       gradientTransform="matrix(1,0,0,1.3743,0,12.727)"
       r="3" />
    <linearGradient
       id="linearGradient6159">
      <stop
         id="stop6161"
         style="stop-color:#6ab700"
         offset="0" />
      <stop
         id="stop6163"
         style="stop-color:#6ab700;stop-opacity:0"
         offset="1" />
    </linearGradient>
    <radialGradient
       r="2.7485001"
       cy="81.276001"
       cx="76.208"
       gradientUnits="userSpaceOnUse"
       id="radialGradient3807"
       xlink:href="#linearGradient3677"
       inkscape:collect="always" />
    <linearGradient
       id="linearGradient3677">
      <stop
         id="stop3679"
         style="stop-color:#ecff07"
         offset="0" />
      <stop
         id="stop3687"
         style="stop-color:#93f503;stop-opacity:.28906"
         offset=".41935" />
      <stop
         id="stop3681"
         style="stop-color:#88eb00;stop-opacity:0"
         offset="1" />
    </linearGradient>
    <radialGradient
       id="radialGradient3685"
       xlink:href="#linearGradient3677"
       gradientUnits="userSpaceOnUse"
       cy="81.276001"
       cx="76.208"
       r="2.7485001" />
    <linearGradient
       id="linearGradient6171">
      <stop
         id="stop6173"
         style="stop-color:#ecff07"
         offset="0" />
      <stop
         id="stop6175"
         style="stop-color:#93f503;stop-opacity:.28906"
         offset=".41935" />
      <stop
         id="stop6177"
         style="stop-color:#88eb00;stop-opacity:0"
         offset="1" />
    </linearGradient>
    <linearGradient
       id="linearGradient3699"
       y2="76.775002"
       xlink:href="#linearGradient3701"
       gradientUnits="userSpaceOnUse"
       x2="69.851997"
       y1="90.906998"
       x1="48.103001" />
    <linearGradient
       id="linearGradient3701">
      <stop
         id="stop3703"
         style="stop-color:#c0ff67"
         offset="0" />
      <stop
         id="stop3705"
         style="stop-color:#68b300;stop-opacity:0"
         offset="1" />
    </linearGradient>
    <radialGradient
       id="radialGradient3709"
       xlink:href="#linearGradient3701"
       gradientUnits="userSpaceOnUse"
       cy="81.276001"
       cx="76.208"
       r="2.7485001" />
    <linearGradient
       id="linearGradient6184">
      <stop
         id="stop6186"
         style="stop-color:#c0ff67"
         offset="0" />
      <stop
         id="stop6188"
         style="stop-color:#68b300;stop-opacity:0"
         offset="1" />
    </linearGradient>
    <filter
       id="filter3737"
       height="1.6138"
       width="1.2546999"
       color-interpolation-filters="sRGB"
       y="-0.30689999"
       x="-0.12734">
      <feGaussianBlur
         id="feGaussianBlur3739"
         stdDeviation="0.75639026" />
    </filter>
    <linearGradient
       id="linearGradient3735"
       y2="95.403"
       gradientUnits="userSpaceOnUse"
       x2="64.134003"
       y1="95.348999"
       x1="48.639">
      <stop
         id="stop3731-0"
         style="stop-color:#d9ff13"
         offset="0" />
      <stop
         id="stop3733"
         style="stop-color:#d9ff13;stop-opacity:0"
         offset="1" />
    </linearGradient>
    <radialGradient
       inkscape:collect="always"
       xlink:href="#radialGradient4711"
       id="radialGradient10324"
       gradientUnits="userSpaceOnUse"
       gradientTransform="matrix(0.99998,-0.0066691,0.0060496,0.98279,-0.3968,1.5602)"
       cx="64.134003"
       cy="65.808998"
       r="51.056" />
    <radialGradient
       id="radialGradient4711"
       gradientUnits="userSpaceOnUse"
       cy="65.808998"
       cx="64.134003"
       gradientTransform="matrix(0.99998,-0.0066691,0.0060496,0.98279,-0.3968,1.5602)"
       r="51.056">
      <stop
         id="stop4707"
         style="stop-opacity:0"
         offset="0" />
      <stop
         id="stop4713"
         style="stop-opacity:0"
         offset=".81582" />
      <stop
         id="stop4709"
         offset="1" />
    </radialGradient>
    <linearGradient
       inkscape:collect="always"
       xlink:href="#linearGradient4898"
       id="linearGradient10326"
       gradientUnits="userSpaceOnUse"
       gradientTransform="matrix(0,-0.68811,0.68811,0,4.0546,91.945)"
       x1="13"
       y1="64"
       x2="115"
       y2="64" />
    <linearGradient
       id="linearGradient4898"
       y2="64"
       gradientUnits="userSpaceOnUse"
       x2="115"
       gradientTransform="matrix(0,-0.68811,0.68811,0,4.0546,91.945)"
       y1="64"
       x1="13">
      <stop
         id="stop3193-6"
         style="stop-color:#8e8e8e"
         offset="0" />
      <stop
         id="stop3195-0"
         style="stop-color:#e9e9e9"
         offset="1" />
    </linearGradient>
    <linearGradient
       inkscape:collect="always"
       xlink:href="#linearGradient3199-85"
       id="linearGradient10328"
       gradientUnits="userSpaceOnUse"
       x1="15.657"
       y1="65.808998"
       x2="112.61"
       y2="65.808998" />
    <linearGradient
       id="linearGradient3199-85">
      <stop
         id="stop3201-3"
         style="stop-color:#6d6d6d"
         offset="0" />
      <stop
         id="stop3203-9"
         style="stop-color:#fff"
         offset="1" />
    </linearGradient>
    <linearGradient
       inkscape:collect="always"
       xlink:href="#linearGradient3264"
       id="linearGradient10330"
       gradientUnits="userSpaceOnUse"
       x1="15.701"
       y1="65.808998"
       x2="112.57"
       y2="65.808998" />
    <linearGradient
       id="linearGradient3264"
       y2="65.808998"
       gradientUnits="userSpaceOnUse"
       x2="112.57"
       y1="65.808998"
       x1="15.701">
      <stop
         id="stop3260-41"
         style="stop-color:#848484"
         offset="0" />
      <stop
         id="stop3262-5"
         style="stop-color:#cdcdcd"
         offset="1" />
    </linearGradient>
    <radialGradient
       r="3.7423999"
       cy="22.181"
       cx="22.723"
       gradientTransform="matrix(0.68767,0,0,0.67722,7.4154,7.5437)"
       gradientUnits="userSpaceOnUse"
       id="radialGradient3809"
       xlink:href="#linearGradient3276"
       inkscape:collect="always" />
    <linearGradient
       id="linearGradient3276">
      <stop
         id="stop3278"
         style="stop-color:#fff"
         offset="0" />
      <stop
         id="stop3280"
         style="stop-color:#a5a5a5"
         offset="1" />
    </linearGradient>
    <linearGradient
       y2="21.091999"
       x2="19.766001"
       y1="21.091999"
       x1="27.733999"
       gradientUnits="userSpaceOnUse"
       id="linearGradient3811-4"
       xlink:href="#linearGradient3276"
       inkscape:collect="always" />
    <linearGradient
       id="linearGradient6217">
      <stop
         id="stop6219"
         style="stop-color:#fff"
         offset="0" />
      <stop
         id="stop6221"
         style="stop-color:#a5a5a5"
         offset="1" />
    </linearGradient>
    <linearGradient
       y2="23.371"
       x2="26.162001"
       y1="23.371"
       x1="20"
       gradientUnits="userSpaceOnUse"
       id="linearGradient3813"
       xlink:href="#linearGradient3410"
       inkscape:collect="always" />
    <linearGradient
       id="linearGradient3410">
      <stop
         id="stop3412"
         offset="0" />
      <stop
         id="stop3414"
         style="stop-opacity:0"
         offset="1" />
    </linearGradient>
    <linearGradient
       y2="23.371"
       x2="28.485001"
       y1="23.371"
       x1="19"
       gradientUnits="userSpaceOnUse"
       id="linearGradient3815-4"
       xlink:href="#linearGradient3199-85"
       inkscape:collect="always" />
    <linearGradient
       id="linearGradient6228">
      <stop
         id="stop6230"
         style="stop-color:#6d6d6d"
         offset="0" />
      <stop
         id="stop6232"
         style="stop-color:#fff"
         offset="1" />
    </linearGradient>
    <radialGradient
       r="3.7423999"
       cy="22.181"
       cx="22.723"
       gradientTransform="matrix(0.68767,0,0,0.67722,7.4154,7.5437)"
       gradientUnits="userSpaceOnUse"
       id="radialGradient3817"
       xlink:href="#linearGradient3276"
       inkscape:collect="always" />
    <linearGradient
       id="linearGradient6235">
      <stop
         id="stop6237"
         style="stop-color:#fff"
         offset="0" />
      <stop
         id="stop6239"
         style="stop-color:#a5a5a5"
         offset="1" />
    </linearGradient>
    <linearGradient
       y2="21.091999"
       x2="19.766001"
       y1="21.091999"
       x1="27.733999"
       gradientUnits="userSpaceOnUse"
       id="linearGradient3819"
       xlink:href="#linearGradient3276"
       inkscape:collect="always" />
    <linearGradient
       id="linearGradient6242">
      <stop
         id="stop6244"
         style="stop-color:#fff"
         offset="0" />
      <stop
         id="stop6246"
         style="stop-color:#a5a5a5"
         offset="1" />
    </linearGradient>
    <linearGradient
       y2="23.371"
       x2="26.162001"
       y1="23.371"
       x1="20"
       gradientUnits="userSpaceOnUse"
       id="linearGradient3821"
       xlink:href="#linearGradient3410"
       inkscape:collect="always" />
    <linearGradient
       id="linearGradient6249">
      <stop
         id="stop6251"
         offset="0" />
      <stop
         id="stop6253"
         style="stop-opacity:0"
         offset="1" />
    </linearGradient>
    <linearGradient
       y2="23.371"
       x2="28.485001"
       y1="23.371"
       x1="19"
       gradientUnits="userSpaceOnUse"
       id="linearGradient3823"
       xlink:href="#linearGradient3199-85"
       inkscape:collect="always" />
    <linearGradient
       id="linearGradient6256">
      <stop
         id="stop6258"
         style="stop-color:#6d6d6d"
         offset="0" />
      <stop
         id="stop6260"
         style="stop-color:#fff"
         offset="1" />
    </linearGradient>
    <radialGradient
       r="3.7423999"
       cy="22.181"
       cx="22.723"
       gradientTransform="matrix(0.68767,0,0,0.67722,7.4154,7.5437)"
       gradientUnits="userSpaceOnUse"
       id="radialGradient3825"
       xlink:href="#linearGradient3276"
       inkscape:collect="always" />
    <linearGradient
       id="linearGradient6263">
      <stop
         id="stop6265"
         style="stop-color:#fff"
         offset="0" />
      <stop
         id="stop6267"
         style="stop-color:#a5a5a5"
         offset="1" />
    </linearGradient>
    <linearGradient
       y2="21.091999"
       x2="19.766001"
       y1="21.091999"
       x1="27.733999"
       gradientUnits="userSpaceOnUse"
       id="linearGradient3827-3"
       xlink:href="#linearGradient3276"
       inkscape:collect="always" />
    <linearGradient
       id="linearGradient6270">
      <stop
         id="stop6272"
         style="stop-color:#fff"
         offset="0" />
      <stop
         id="stop6274"
         style="stop-color:#a5a5a5"
         offset="1" />
    </linearGradient>
    <linearGradient
       y2="23.371"
       x2="26.162001"
       y1="23.371"
       x1="20"
       gradientUnits="userSpaceOnUse"
       id="linearGradient3829-9"
       xlink:href="#linearGradient3410"
       inkscape:collect="always" />
    <linearGradient
       id="linearGradient6277">
      <stop
         id="stop6279"
         offset="0" />
      <stop
         id="stop6281"
         style="stop-opacity:0"
         offset="1" />
    </linearGradient>
    <linearGradient
       y2="23.371"
       x2="28.485001"
       y1="23.371"
       x1="19"
       gradientUnits="userSpaceOnUse"
       id="linearGradient3831-7"
       xlink:href="#linearGradient3199-85"
       inkscape:collect="always" />
    <linearGradient
       id="linearGradient6284">
      <stop
         id="stop6286"
         style="stop-color:#6d6d6d"
         offset="0" />
      <stop
         id="stop6288"
         style="stop-color:#fff"
         offset="1" />
    </linearGradient>
    <radialGradient
       inkscape:collect="always"
       xlink:href="#linearGradient3276"
       id="radialGradient10332"
       gradientUnits="userSpaceOnUse"
       gradientTransform="matrix(0.68767,0,0,0.67722,7.4154,7.5437)"
       cx="22.723"
       cy="22.181"
       r="3.7423999" />
    <linearGradient
       id="linearGradient6291">
      <stop
         id="stop6293"
         style="stop-color:#fff"
         offset="0" />
      <stop
         id="stop6295"
         style="stop-color:#a5a5a5"
         offset="1" />
    </linearGradient>
    <linearGradient
       inkscape:collect="always"
       xlink:href="#linearGradient3276"
       id="linearGradient10334"
       gradientUnits="userSpaceOnUse"
       x1="27.733999"
       y1="21.091999"
       x2="19.766001"
       y2="21.091999" />
    <linearGradient
       id="linearGradient6298">
      <stop
         id="stop6300"
         style="stop-color:#fff"
         offset="0" />
      <stop
         id="stop6302"
         style="stop-color:#a5a5a5"
         offset="1" />
    </linearGradient>
    <linearGradient
       inkscape:collect="always"
       xlink:href="#linearGradient3410"
       id="linearGradient10336"
       gradientUnits="userSpaceOnUse"
       x1="20"
       y1="23.371"
       x2="26.162001"
       y2="23.371" />
    <linearGradient
       id="linearGradient6305">
      <stop
         id="stop6307"
         offset="0" />
      <stop
         id="stop6309"
         style="stop-opacity:0"
         offset="1" />
    </linearGradient>
    <linearGradient
       inkscape:collect="always"
       xlink:href="#linearGradient3199-85"
       id="linearGradient10338"
       gradientUnits="userSpaceOnUse"
       x1="19"
       y1="23.371"
       x2="28.485001"
       y2="23.371" />
    <linearGradient
       id="linearGradient6312">
      <stop
         id="stop6314"
         style="stop-color:#6d6d6d"
         offset="0" />
      <stop
         id="stop6316"
         style="stop-color:#fff"
         offset="1" />
    </linearGradient>
  </defs>
  <sodipodi:namedview
     id="base"
     pagecolor="#ffffff"
     bordercolor="#666666"
     borderopacity="1.0"
     inkscape:pageopacity="0.0"
     inkscape:pageshadow="2"
     inkscape:zoom="3.959798"
     inkscape:cx="28.389459"
     inkscape:cy="57.490015"
     inkscape:document-units="px"
     inkscape:current-layer="layer1"
     showgrid="false"
     inkscape:window-width="1280"
     inkscape:window-height="725"
     inkscape:window-x="0"
     inkscape:window-y="25"
     inkscape:window-maximized="1" />
  <metadata
     id="metadata7">
    <rdf:RDF>
      <cc:Work
         rdf:about="">
        <dc:format>image/svg+xml</dc:format>
        <dc:type
           rdf:resource="http://purl.org/dc/dcmitype/StillImage" />
        <dc:title></dc:title>
      </cc:Work>
    </rdf:RDF>
  </metadata>
  <g
     inkscape:label="Layer 1"
     inkscape:groupmode="layer"
     id="layer1"
     transform="translate(0,-956.36217)">
    <g
       transform="translate(2.861023e-8,-9.737015e-6)"
       id="g10399">
      <rect
         transform="translate(0,-7.8515622e-6)"
         y="964.36218"
         x="8"
         height="80"
         width="80"
         id="rect9283"
         style="fill:#000000;fill-opacity:1;stroke:none;filter:url(#filter6279-2)"
         rx="5"
         ry="5" />
      <rect
         ry="5"
         rx="5"
         style="fill:url(#linearGradient5979);fill-opacity:1;stroke:none"
         id="rect9285"
         width="80"
         height="80"
         x="8"
         y="964.36218" />
      <g
         transform="translate(-182.1875,-40.40625)"
         id="g26594">
        <g
           id="g10340">
          <g
             transform="matrix(0.71428571,0,0,0.71428571,195.90179,1010.4827)"
             id="g3374">
            <g
               id="layer5">
              <rect
                 x="15"
                 y="15"
                 width="66"
                 height="66"
                 ry="12"
                 rx="12"
                 clip-path="url(#clipPath3613-40)"
                 style="opacity:0.3;stroke:#000000;stroke-width:0.5;stroke-linecap:round;filter:url(#filter3794-51)"
                 id="rect3171" />
            </g>
            <g
               id="layer3">
              <path
                 inkscape:connector-curvature="0"
                 transform="matrix(0.80249,0,0,0.80249,-3.3734,-12.703)"
                 d="m 103.89,75.527 a 39.753,39.753 0 1 1 -79.505,0 39.753,39.753 0 1 1 79.505,0 z"
                 style="fill:url(#radialGradient4133)"
                 id="path3172" />
              <path
                 inkscape:connector-curvature="0"
                 d="m 48.094,15.995 c -17.609,0 -31.911,16.926 -31.911,37.767 0,2.6415 0.25127,5.2223 0.68811,7.7111 3.013,-11.784 15.849,-20.639 31.223,-20.639 15.374,0 28.21,8.8553 31.223,20.639 0.43684,-2.4889 0.68811,-5.0697 0.68811,-7.7111 0,-20.841 -14.302,-37.767 -31.911,-37.767 z"
                 style="fill:url(#linearGradient3665)"
                 id="path3650" />
              <path
                 inkscape:connector-curvature="0"
                 transform="matrix(0.62315,0,0,0.62315,8.1282,0.84198)"
                 d="m 103.89,75.527 a 39.753,39.753 0 1 1 -79.505,0 39.753,39.753 0 1 1 79.505,0 z"
                 style="opacity:0.5;fill:none;stroke:#6ab700;stroke-width:1.60469997;stroke-linecap:square;stroke-linejoin:round"
                 id="path3476" />
              <path
                 inkscape:connector-curvature="0"
                 transform="matrix(0.42409,0,0,0.42409,20.895,15.876)"
                 d="m 103.89,75.527 a 39.753,39.753 0 1 1 -79.505,0 39.753,39.753 0 1 1 79.505,0 z"
                 style="opacity:0.5;fill:none;stroke:#6ab700;stroke-width:2.35800004;stroke-linecap:square;stroke-linejoin:round"
                 id="path3480" />
              <g
                 transform="matrix(0.68811,0,0,0.68811,4.0546,3.8675)"
                 id="g3603">
                <path
                   inkscape:connector-curvature="0"
                   d="m 63.5,18 v 92 h 1 V 18 h -1 z"
                   style="opacity:0.5;fill:#6ab700;fill-rule:evenodd"
                   id="path3482" />
                <rect
                   x="61"
                   y="57"
                   width="6"
                   height="1"
                   style="opacity:0.5;fill:url(#radialGradient3791-3)"
                   id="rect3486" />
                <rect
                   x="61"
                   y="51"
                   width="6"
                   height="1"
                   style="opacity:0.5;fill:url(#radialGradient3793)"
                   id="rect3575" />
                <rect
                   x="61"
                   y="45"
                   width="6"
                   height="1"
                   style="opacity:0.5;fill:url(#radialGradient3795)"
                   id="rect3579" />
                <rect
                   x="61"
                   y="33"
                   width="6"
                   height="1"
                   style="opacity:0.5;fill:url(#radialGradient3797)"
                   id="rect3583" />
                <rect
                   x="61"
                   y="70"
                   width="6"
                   height="1"
                   style="opacity:0.5;fill:url(#radialGradient3799)"
                   id="rect3587" />
                <rect
                   x="61"
                   y="76"
                   width="6"
                   height="1"
                   style="opacity:0.5;fill:url(#radialGradient3801)"
                   id="rect3591" />
                <rect
                   x="61"
                   y="82"
                   width="6"
                   height="1"
                   style="opacity:0.5;fill:url(#radialGradient3803)"
                   id="rect3595" />
                <rect
                   x="61"
                   y="94"
                   width="6"
                   height="1"
                   style="opacity:0.5;fill:url(#radialGradient3805)"
                   id="rect3599" />
              </g>
              <g
                 transform="matrix(0,0.68811,-0.68811,0,92.133,3.8675)"
                 id="g3614">
                <path
                   inkscape:connector-curvature="0"
                   d="m 63.5,18 v 92 h 1 V 18 h -1 z"
                   style="opacity:0.5;fill:#6ab700;fill-rule:evenodd"
                   id="path3616" />
                <rect
                   x="61"
                   y="57"
                   width="6"
                   height="1"
                   style="opacity:0.5;fill:url(#radialGradient3634)"
                   id="rect3618" />
                <rect
                   x="61"
                   y="51"
                   width="6"
                   height="1"
                   style="opacity:0.5;fill:url(#radialGradient3636)"
                   id="rect3620" />
                <rect
                   x="61"
                   y="45"
                   width="6"
                   height="1"
                   style="opacity:0.5;fill:url(#radialGradient3638)"
                   id="rect3622" />
                <rect
                   x="61"
                   y="33"
                   width="6"
                   height="1"
                   style="opacity:0.5;fill:url(#radialGradient3640)"
                   id="rect3624" />
                <rect
                   x="61"
                   y="70"
                   width="6"
                   height="1"
                   style="opacity:0.5;fill:url(#radialGradient3642)"
                   id="rect3626" />
                <rect
                   x="61"
                   y="76"
                   width="6"
                   height="1"
                   style="opacity:0.5;fill:url(#radialGradient3644)"
                   id="rect3628" />
                <rect
                   x="61"
                   y="82"
                   width="6"
                   height="1"
                   style="opacity:0.5;fill:url(#radialGradient3646)"
                   id="rect3630" />
                <rect
                   x="61"
                   y="94"
                   width="6"
                   height="1"
                   style="opacity:0.5;fill:url(#radialGradient3648)"
                   id="rect3632" />
              </g>
              <path
                 inkscape:connector-curvature="0"
                 transform="matrix(1.1266,0,0,1.1266,-25.727,-32.307)"
                 d="m 78.956,81.276 a 2.7485,2.7485 0 1 1 -5.4969,0 2.7485,2.7485 0 1 1 5.4969,0 z"
                 style="opacity:0.8;fill:url(#radialGradient3807)"
                 id="path3667" />
              <path
                 inkscape:connector-curvature="0"
                 transform="matrix(1.5022,0,0,1.5022,-72.251,-68.679)"
                 d="m 78.956,81.276 a 2.7485,2.7485 0 1 1 -5.4969,0 2.7485,2.7485 0 1 1 5.4969,0 z"
                 style="fill:url(#radialGradient3685)"
                 id="path3683" />
              <path
                 inkscape:connector-curvature="0"
                 transform="matrix(-0.76081,-0.25526,0.25526,-0.76081,77.132,121.64)"
                 d="M 98.561,95.403 A 39.753,39.753 0 0 1 45.621,110.7 L 64.134,75.527 z"
                 style="opacity:0.56800022;fill:url(#linearGradient3699)"
                 id="path3691" />
              <path
                 inkscape:connector-curvature="0"
                 transform="matrix(1.8775,0,0,1.8775,-94.986,-122.05)"
                 d="m 78.956,81.276 a 2.7485,2.7485 0 1 1 -5.4969,0 2.7485,2.7485 0 1 1 5.4969,0 z"
                 style="fill:url(#radialGradient3709)"
                 id="path3707" />
              <path
                 inkscape:connector-curvature="0"
                 d="m 13.762,37.555 c 9.3442,-5.0418 14.667,-1.6964 14.23,-4.2379 -0.60149,-3.5032 -5.9365,-1.2452 -14.23,4.2379 z"
                 transform="matrix(0.68811,0,0,0.68811,29.839,7.6401)"
                 style="opacity:0.70656002;fill:#d9ff13;fill-rule:evenodd;filter:url(#filter3737)"
                 id="path3711" />
              <path
                 inkscape:connector-curvature="0"
                 transform="matrix(-0.76081,-0.25526,0.25526,-0.76081,77.132,121.64)"
                 d="M 64.134,115.28 A 39.753,39.753 0 0 1 45.621,110.7 L 64.134,75.527 z"
                 style="opacity:0.56756999;fill:url(#linearGradient3735)"
                 id="path3727" />
              <path
                 inkscape:connector-curvature="0"
                 d="M 47.984,48.024 70.61,25.541"
                 style="fill:none;stroke:#7ad205;stroke-width:1px"
                 id="path3689" />
            </g>
            <g
               id="layer4">
              <g
                 id="g3165">
                <path
                   inkscape:connector-curvature="0"
                   id="path4701"
                   style="fill:none;stroke:url(#radialGradient10324);stroke-width:10.5880003;stroke-linecap:square;stroke-linejoin:round"
                   d="m 111.66,65.809 a 47.527,49.47 0 1 1 -95.053,0 47.527,49.47 0 1 1 95.053,0 z"
                   transform="matrix(0,0.57815,-0.55543,0,84.646,10.827)" />
                <path
                   inkscape:connector-curvature="0"
                   id="rect3229"
                   style="fill:url(#linearGradient10326)"
                   d="m 18.312,10.281 c -2.045,0 -4.0893,0.80805 -5.6562,2.375 -3.1339,3.1339 -3.1339,8.1786 0,11.312 l 5.5625,5.5625 c -3.299,5.346 -5.218,11.637 -5.218,18.376 0,6.7897 1.9362,13.13 5.2812,18.5 l -5.625,5.625 c -3.1339,3.1339 -3.1339,8.1786 0,11.312 3.1339,3.1339 8.1786,3.1339 11.312,0 l 5.625,-5.625 c 5.371,3.346 11.711,5.282 18.501,5.282 6.7396,0 13.031,-1.919 18.375,-5.2188 l 5.5625,5.5625 c 3.1339,3.1339 8.1786,3.1339 11.312,0 3.1339,-3.1339 3.1339,-8.1786 0,-11.312 l -5.532,-5.532 c 3.3875,-5.3937 5.375,-11.757 5.375,-18.594 0,-6.7897 -1.9362,-13.13 -5.2812,-18.5 l 5.4375,-5.4375 c 3.1339,-3.1339 3.1339,-8.1786 0,-11.312 -1.5669,-1.5669 -3.6116,-2.3438 -5.6562,-2.3438 -2.0447,0 -4.0893,0.7768 -5.6562,2.3438 l -5.4375,5.4375 c -5.37,-3.3451 -11.71,-5.2812 -18.5,-5.2812 -6.8364,0 -13.2,1.9875 -18.594,5.375 l -5.5312,-5.5312 c -1.5669,-1.5669 -3.6113,-2.375 -5.6562,-2.375 z m 29.781,9.25 c 4.9238,0 9.5593,1.2615 13.594,3.4688 0.03285,0.01797 0.06098,0.0444 0.09375,0.0625 0.31587,0.17423 0.62926,0.3456 0.9375,0.53125 0.39443,0.23794 0.77454,0.49361 1.1562,0.75 0.0083,0.0056 0.02297,0.02567 0.03125,0.03125 0.06411,0.04317 0.12375,0.08132 0.1875,0.125 0.47654,0.3265 0.95125,0.67702 1.4062,1.0312 0.51461,0.40094 1.0142,0.81502 1.5,1.25 0.39464,0.35301 0.78195,0.6882 1.1562,1.0625 0.32446,0.32446 0.62904,0.66012 0.9375,1 0.05087,0.05597 0.07457,0.09987 0.125,0.15625 0.43498,0.48581 0.84906,0.98539 1.25,1.5 0.35423,0.455 0.70475,0.92972 1.0312,1.4062 0.05084,0.07427 0.1061,0.14397 0.15625,0.21875 0.25639,0.38171 0.51206,0.76182 0.75,1.1562 0.18565,0.30824 0.35702,0.62163 0.53125,0.9375 0.01819,0.03298 0.04443,0.06069 0.0625,0.09375 2.2072,4.0344 3.4688,8.6699 3.4688,13.594 0,4.9739 -1.282,9.6555 -3.5312,13.719 -0.06338,0.11449 -0.12258,0.23023 -0.1875,0.34375 -0.27254,0.47731 -0.5762,0.94722 -0.875,1.4062 -0.0695,0.10654 -0.14785,0.20695 -0.21875,0.3125 -0.0056,0.0083 -0.02569,0.023 -0.03125,0.03125 -0.04325,0.06425 -0.08124,0.12363 -0.125,0.1875 -0.22327,0.32582 -0.45097,0.65268 -0.6875,0.96875 -0.26286,0.35144 -0.53399,0.69266 -0.8125,1.0312 -0.0099,0.01197 -0.02137,0.01929 -0.03125,0.03125 -0.24088,0.29185 -0.49785,0.59311 -0.75,0.875 -0.3264,0.36453 -0.656,0.7145 -1,1.0625 -0.26693,0.27003 -0.53481,0.55359 -0.8125,0.8125 -0.11833,0.10979 -0.2548,0.20472 -0.375,0.3125 -0.01104,0.0094 -0.02047,0.0216 -0.03125,0.03125 -0.29808,0.26645 -0.59696,0.52739 -0.90625,0.78125 -0.34064,0.28047 -0.67783,0.54802 -1.0312,0.8125 -0.0064,0.0048 0.0055,0.02508 0,0.03125 -0.56011,0.41702 -1.1588,0.81154 -1.75,1.1875 -0.12214,0.07788 -0.2516,0.1427 -0.375,0.21875 -0.43433,0.26702 -0.86293,0.53704 -1.3125,0.78125 -0.02052,0.01115 -0.04195,0.02015 -0.0625,0.03125 -4.0053,2.1656 -8.5949,3.4062 -13.469,3.4062 -4.9238,0 -9.5593,-1.2615 -13.594,-3.4688 -0.03306,-0.01807 -0.06077,-0.04431 -0.09375,-0.0625 -0.31587,-0.17423 -0.62926,-0.3456 -0.9375,-0.53125 -0.39443,-0.23794 -0.77454,-0.49361 -1.1562,-0.75 -0.0083,-0.0056 -0.023,-0.02569 -0.03125,-0.03125 -0.06425,-0.04325 -0.12363,-0.08124 -0.1875,-0.125 -0.32582,-0.22327 -0.65268,-0.45097 -0.96875,-0.6875 -0.0066,-0.0049 -0.02469,0.0049 -0.03125,0 -0.34685,-0.25993 -0.69709,-0.53736 -1.0312,-0.8125 -0.06069,-0.05009 -0.12727,-0.10478 -0.1875,-0.15625 -0.2294,-0.19606 -0.46423,-0.42528 -0.6875,-0.625 -0.05665,-0.05073 -0.1,-0.07383 -0.15625,-0.125 -0.33582,-0.30524 -0.67917,-0.61668 -1,-0.9375 -0.37284,-0.37284 -0.71074,-0.76339 -1.0625,-1.1562 -0.26261,-0.29358 -0.53088,-0.60187 -0.78125,-0.90625 -0.27522,-0.33427 -0.55268,-0.65375 -0.8125,-1 -0.0051,-0.0069 0.0051,-0.02439 0,-0.03125 -0.0071,-0.0095 -0.022,-0.02307 -0.03125,-0.03125 -0.0036,-0.0048 -0.02768,0.0048 -0.03125,0 -0.145,-0.191 -0.273,-0.395 -0.409,-0.593 -0.078,-0.111 -0.142,-0.231 -0.218,-0.344 -0.04376,-0.06387 -0.08175,-0.12325 -0.125,-0.1875 -0.0056,-0.0083 -0.02571,-0.02299 -0.03125,-0.03125 -0.25639,-0.38171 -0.51206,-0.76182 -0.75,-1.1562 -0.186,-0.308 -0.358,-0.621 -0.532,-0.937 -0.018,-0.033 -0.044,-0.061 -0.062,-0.094 -2.208,-4.034 -3.469,-8.67 -3.469,-13.594 0,-4.8738 1.2407,-9.4635 3.4062,-13.469 0.0111,-0.02055 0.0201,-0.04198 0.03125,-0.0625 0.24421,-0.44957 0.51422,-0.87817 0.78125,-1.3125 0.14965,-0.24342 0.31212,-0.48032 0.46875,-0.71875 0.04621,-0.07014 0.07818,-0.14905 0.125,-0.21875 0.0056,-0.0083 0.02567,-0.02297 0.03125,-0.03125 0.04317,-0.06411 0.08131,-0.12375 0.125,-0.1875 0.02107,-0.03076 0.04122,-0.06308 0.0625,-0.09375 0.30835,-0.44452 0.63739,-0.88687 0.96875,-1.3125 0.40094,-0.51461 0.81502,-1.0142 1.25,-1.5 0.04374,-0.0489 0.08093,-0.10766 0.125,-0.15625 0.07409,-0.08151 0.14389,-0.16962 0.21875,-0.25 0.25927,-0.27836 0.54311,-0.54621 0.8125,-0.8125 0.34718,-0.34318 0.69605,-0.67221 1.0625,-1 0.48581,-0.43498 0.98539,-0.84906 1.5,-1.25 0.455,-0.35423 0.92971,-0.70475 1.4062,-1.0312 0.06375,-0.04369 0.12339,-0.08183 0.1875,-0.125 0.0083,-0.0056 0.02296,-0.02568 0.03125,-0.03125 0.10555,-0.0709 0.20596,-0.14925 0.3125,-0.21875 0.22132,-0.14406 0.46188,-0.26823 0.6875,-0.40625 0.32395,-0.19855 0.63645,-0.40807 0.96875,-0.59375 0.03265,-0.01822 0.06102,-0.04441 0.09375,-0.0625 4.0632,-2.2493 8.7449,-3.5312 13.719,-3.5312 z" />
                <path
                   inkscape:connector-curvature="0"
                   id="path3188"
                   style="fill:none;stroke:url(#linearGradient10328);stroke-width:2.76340008;stroke-linecap:square;stroke-linejoin:round"
                   d="m 111.66,65.809 a 47.527,49.47 0 1 1 -95.053,0 47.527,49.47 0 1 1 95.053,0 z"
                   transform="matrix(0,-0.7384,0.70939,0,1.4091,95.263)" />
                <path
                   inkscape:connector-curvature="0"
                   id="path3184"
                   style="fill:none;stroke:url(#linearGradient10330);stroke-width:3.41829991;stroke-linecap:square;stroke-linejoin:round"
                   d="m 111.66,65.809 a 47.527,49.47 0 1 1 -95.053,0 47.527,49.47 0 1 1 95.053,0 z"
                   transform="matrix(0,0.59693,-0.57348,0,85.834,9.6225)" />
                <g
                   id="g3420"
                   transform="matrix(0.93749,0,0,0.93738,-3.5624,-3.5592)">
                  <path
                     inkscape:connector-curvature="0"
                     id="path3266"
                     style="fill:url(#radialGradient3809)"
                     d="m 27.485,23.371 a 3.7424,3.6855 0 1 1 -7.4847,0 3.7424,3.6855 0 1 1 7.4847,0 z"
                     transform="matrix(1.0688,0,0,1.0853,-2.3769,-2.3653)" />
                  <path
                     inkscape:connector-curvature="0"
                     id="path3282"
                     style="fill:url(#linearGradient3811-4);stroke:url(#linearGradient3813);stroke-width:0.49520999;stroke-linecap:square;stroke-linejoin:round"
                     d="m 27.485,23.371 a 3.7424,3.6855 0 1 1 -7.4847,0 3.7424,3.6855 0 1 1 7.4847,0 z"
                     transform="matrix(0,-1.0688,1.0853,0,-2.3653,48.377)" />
                  <path
                     inkscape:connector-curvature="0"
                     id="path3304"
                     style="fill:#747474;stroke:url(#linearGradient3815-4);stroke-width:2.55979991;stroke-linecap:square;stroke-linejoin:round"
                     d="m 27.485,23.371 a 3.7424,3.6855 0 1 1 -7.4847,0 3.7424,3.6855 0 1 1 7.4847,0 z"
                     transform="matrix(0,0.40392,-0.41016,0,32.586,13.41)" />
                </g>
                <g
                   id="g5037"
                   transform="matrix(0.93749,0,0,0.93738,56.438,-3.5592)">
                  <path
                     inkscape:connector-curvature="0"
                     id="path5039"
                     style="fill:url(#radialGradient3817)"
                     d="m 27.485,23.371 a 3.7424,3.6855 0 1 1 -7.4847,0 3.7424,3.6855 0 1 1 7.4847,0 z"
                     transform="matrix(1.0688,0,0,1.0853,-2.3769,-2.3653)" />
                  <path
                     inkscape:connector-curvature="0"
                     id="path5041"
                     style="fill:url(#linearGradient3819);stroke:url(#linearGradient3821);stroke-width:0.49520999;stroke-linecap:square;stroke-linejoin:round"
                     d="m 27.485,23.371 a 3.7424,3.6855 0 1 1 -7.4847,0 3.7424,3.6855 0 1 1 7.4847,0 z"
                     transform="matrix(0,-1.0688,1.0853,0,-2.3653,48.377)" />
                  <path
                     inkscape:connector-curvature="0"
                     id="path5043"
                     style="fill:#747474;stroke:url(#linearGradient3823);stroke-width:2.55979991;stroke-linecap:square;stroke-linejoin:round"
                     d="m 27.485,23.371 a 3.7424,3.6855 0 1 1 -7.4847,0 3.7424,3.6855 0 1 1 7.4847,0 z"
                     transform="matrix(0,0.40392,-0.41016,0,32.586,13.41)" />
                </g>
                <g
                   id="g5053"
                   transform="matrix(0.93749,0,0,0.93738,-3.5624,56.441)">
                  <path
                     inkscape:connector-curvature="0"
                     id="path5055"
                     style="fill:url(#radialGradient3825)"
                     d="m 27.485,23.371 a 3.7424,3.6855 0 1 1 -7.4847,0 3.7424,3.6855 0 1 1 7.4847,0 z"
                     transform="matrix(1.0688,0,0,1.0853,-2.3769,-2.3653)" />
                  <path
                     inkscape:connector-curvature="0"
                     id="path5057"
                     style="fill:url(#linearGradient3827-3);stroke:url(#linearGradient3829-9);stroke-width:0.49520999;stroke-linecap:square;stroke-linejoin:round"
                     d="m 27.485,23.371 a 3.7424,3.6855 0 1 1 -7.4847,0 3.7424,3.6855 0 1 1 7.4847,0 z"
                     transform="matrix(0,-1.0688,1.0853,0,-2.3653,48.377)" />
                  <path
                     inkscape:connector-curvature="0"
                     id="path5059"
                     style="fill:#747474;stroke:url(#linearGradient3831-7);stroke-width:2.55979991;stroke-linecap:square;stroke-linejoin:round"
                     d="m 27.485,23.371 a 3.7424,3.6855 0 1 1 -7.4847,0 3.7424,3.6855 0 1 1 7.4847,0 z"
                     transform="matrix(0,0.40392,-0.41016,0,32.586,13.41)" />
                </g>
                <g
                   id="g5061"
                   transform="matrix(0.93749,0,0,0.93738,56.438,56.441)">
                  <path
                     inkscape:connector-curvature="0"
                     id="path5063"
                     style="fill:url(#radialGradient10332)"
                     d="m 27.485,23.371 a 3.7424,3.6855 0 1 1 -7.4847,0 3.7424,3.6855 0 1 1 7.4847,0 z"
                     transform="matrix(1.0688,0,0,1.0853,-2.3769,-2.3653)" />
                  <path
                     inkscape:connector-curvature="0"
                     id="path5065"
                     style="fill:url(#linearGradient10334);stroke:url(#linearGradient10336);stroke-width:0.49520999;stroke-linecap:square;stroke-linejoin:round"
                     d="m 27.485,23.371 a 3.7424,3.6855 0 1 1 -7.4847,0 3.7424,3.6855 0 1 1 7.4847,0 z"
                     transform="matrix(0,-1.0688,1.0853,0,-2.3653,48.377)" />
                  <path
                     inkscape:connector-curvature="0"
                     id="path5067"
                     style="fill:#747474;stroke:url(#linearGradient10338);stroke-width:2.55979991;stroke-linecap:square;stroke-linejoin:round"
                     d="m 27.485,23.371 a 3.7424,3.6855 0 1 1 -7.4847,0 3.7424,3.6855 0 1 1 7.4847,0 z"
                     transform="matrix(0,0.40392,-0.41016,0,32.586,13.41)" />
                </g>
              </g>
            </g>
          </g>
        </g>
      </g>
    </g>
  </g>
</svg>
