<?xml version="1.0" encoding="UTF-8" standalone="no"?>
<!-- Created with Inkscape (http://www.inkscape.org/) -->

<svg
   xmlns:dc="http://purl.org/dc/elements/1.1/"
   xmlns:cc="http://creativecommons.org/ns#"
   xmlns:rdf="http://www.w3.org/1999/02/22-rdf-syntax-ns#"
   xmlns:svg="http://www.w3.org/2000/svg"
   xmlns="http://www.w3.org/2000/svg"
   xmlns:xlink="http://www.w3.org/1999/xlink"
   xmlns:sodipodi="http://sodipodi.sourceforge.net/DTD/sodipodi-0.dtd"
   xmlns:inkscape="http://www.inkscape.org/namespaces/inkscape"
   width="96"
   height="96"
   id="svg2"
   version="1.1"
   inkscape:version="0.48.1 r9760"
   sodipodi:docname="gnome-mines.svg">
  <defs
     id="defs4">
    <filter
       color-interpolation-filters="sRGB"
       inkscape:collect="always"
       id="filter6279-2">
      <feGaussianBlur
         inkscape:collect="always"
         stdDeviation="0.8"
         id="feGaussianBlur6281-1" />
    </filter>
    <linearGradient
       inkscape:collect="always"
       xlink:href="#linearGradient3708"
       id="linearGradient5979"
       gradientUnits="userSpaceOnUse"
       gradientTransform="translate(0,-7.8515622e-6)"
       x1="48"
       y1="1052.3622"
       x2="48"
       y2="902.36218" />
    <linearGradient
       id="linearGradient3708"
       y2="5.9877"
       gradientUnits="userSpaceOnUse"
       x2="48"
       y1="90"
       x1="48"
       gradientTransform="translate(14.24735,-4.0706714)">
      <stop
         id="stop3772-5"
         style="stop-color:#ff7612"
         offset="0" />
      <stop
         id="stop3778"
         style="stop-color:#ffc149"
         offset="1" />
    </linearGradient>
    <linearGradient
       inkscape:collect="always"
       xlink:href="#linearGradient3802"
       id="linearGradient10028"
       gradientUnits="userSpaceOnUse"
       x1="45"
       y1="28.878"
       x2="51"
       y2="28.878" />
    <linearGradient
       id="linearGradient3802">
      <stop
         id="stop3804"
         style="stop-color:#676767"
         offset="0" />
      <stop
         id="stop3806"
         style="stop-color:#282828"
         offset="1" />
    </linearGradient>
    <linearGradient
       inkscape:collect="always"
       xlink:href="#linearGradient3802"
       id="linearGradient10030"
       gradientUnits="userSpaceOnUse"
       x1="45"
       y1="28.878"
       x2="51"
       y2="28.878" />
    <linearGradient
       id="linearGradient6331">
      <stop
         id="stop6333"
         style="stop-color:#676767"
         offset="0" />
      <stop
         id="stop6335"
         style="stop-color:#282828"
         offset="1" />
    </linearGradient>
    <linearGradient
       inkscape:collect="always"
       xlink:href="#linearGradient3802"
       id="linearGradient10032"
       gradientUnits="userSpaceOnUse"
       gradientTransform="matrix(1,0,0,-1,-1.5869033e-7,96)"
       x1="45"
       y1="28.878"
       x2="51"
       y2="28.878" />
    <linearGradient
       id="linearGradient6338">
      <stop
         id="stop6340"
         style="stop-color:#676767"
         offset="0" />
      <stop
         id="stop6342"
         style="stop-color:#282828"
         offset="1" />
    </linearGradient>
    <linearGradient
       inkscape:collect="always"
       xlink:href="#linearGradient3802"
       id="linearGradient10034"
       gradientUnits="userSpaceOnUse"
       gradientTransform="matrix(0,1,-1,0,95.927,0.072888)"
       x1="45"
       y1="28.878"
       x2="51"
       y2="28.878" />
    <linearGradient
       id="linearGradient6345">
      <stop
         id="stop6347"
         style="stop-color:#676767"
         offset="0" />
      <stop
         id="stop6349"
         style="stop-color:#282828"
         offset="1" />
    </linearGradient>
    <radialGradient
       inkscape:collect="always"
       xlink:href="#radialGradient4302"
       id="radialGradient10036"
       gradientUnits="userSpaceOnUse"
       gradientTransform="matrix(1.9000933,0,0,1.9000933,152.36169,972.89606)"
       cx="37.5"
       cy="37.5"
       r="8" />
    <radialGradient
       id="radialGradient4302"
       gradientUnits="userSpaceOnUse"
       cy="37.5"
       cx="37.5"
       r="8">
      <stop
         id="stop3788-5"
         style="stop-color:#fff"
         offset="0" />
      <stop
         id="stop3794"
         style="stop-color:#828282"
         offset=".26277" />
      <stop
         id="stop3796"
         style="stop-color:#555"
         offset=".49463" />
      <stop
         id="stop3798"
         style="stop-color:#3d3d3d"
         offset=".74731" />
      <stop
         id="stop3790-0"
         style="stop-color:#242424"
         offset="1" />
    </radialGradient>
    <linearGradient
       inkscape:collect="always"
       xlink:href="#linearGradient3802"
       id="linearGradient10038"
       gradientUnits="userSpaceOnUse"
       x1="45"
       y1="28.878"
       x2="51"
       y2="28.878" />
    <linearGradient
       id="linearGradient6359">
      <stop
         id="stop6361"
         style="stop-color:#676767"
         offset="0" />
      <stop
         id="stop6363"
         style="stop-color:#282828"
         offset="1" />
    </linearGradient>
    <linearGradient
       inkscape:collect="always"
       xlink:href="#linearGradient3802"
       id="linearGradient10040"
       gradientUnits="userSpaceOnUse"
       x1="45"
       y1="28.878"
       x2="51"
       y2="28.878" />
    <linearGradient
       id="linearGradient6366">
      <stop
         id="stop6368"
         style="stop-color:#676767"
         offset="0" />
      <stop
         id="stop6370"
         style="stop-color:#282828"
         offset="1" />
    </linearGradient>
    <linearGradient
       inkscape:collect="always"
       xlink:href="#linearGradient3802"
       id="linearGradient10042"
       gradientUnits="userSpaceOnUse"
       gradientTransform="matrix(1,0,0,-1,-1.5868981e-7,96)"
       x1="45"
       y1="28.878"
       x2="51"
       y2="28.878" />
    <linearGradient
       id="linearGradient6373">
      <stop
         id="stop6375"
         style="stop-color:#676767"
         offset="0" />
      <stop
         id="stop6377"
         style="stop-color:#282828"
         offset="1" />
    </linearGradient>
    <linearGradient
       inkscape:collect="always"
       xlink:href="#linearGradient3802"
       id="linearGradient10044"
       gradientUnits="userSpaceOnUse"
       gradientTransform="matrix(0,1,-1,0,95.927,0.072888)"
       x1="45"
       y1="28.878"
       x2="51"
       y2="28.878" />
    <linearGradient
       id="linearGradient6380">
      <stop
         id="stop6382"
         style="stop-color:#676767"
         offset="0" />
      <stop
         id="stop6384"
         style="stop-color:#282828"
         offset="1" />
    </linearGradient>
    <linearGradient
       inkscape:collect="always"
       xlink:href="#linearGradient3802"
       id="linearGradient10046"
       gradientUnits="userSpaceOnUse"
       x1="45"
       y1="28.878"
       x2="51"
       y2="28.878" />
    <linearGradient
       id="linearGradient6387">
      <stop
         id="stop6389"
         style="stop-color:#676767"
         offset="0" />
      <stop
         id="stop6391"
         style="stop-color:#282828"
         offset="1" />
    </linearGradient>
    <linearGradient
       inkscape:collect="always"
       xlink:href="#linearGradient3802"
       id="linearGradient10048"
       gradientUnits="userSpaceOnUse"
       x1="45"
       y1="28.878"
       x2="51"
       y2="28.878" />
    <linearGradient
       id="linearGradient6394">
      <stop
         id="stop6396"
         style="stop-color:#676767"
         offset="0" />
      <stop
         id="stop6398"
         style="stop-color:#282828"
         offset="1" />
    </linearGradient>
    <linearGradient
       inkscape:collect="always"
       xlink:href="#linearGradient3802"
       id="linearGradient10050"
       gradientUnits="userSpaceOnUse"
       gradientTransform="matrix(1,0,0,-1,-1.5868966e-7,96)"
       x1="45"
       y1="28.878"
       x2="51"
       y2="28.878" />
    <linearGradient
       id="linearGradient6401">
      <stop
         id="stop6403"
         style="stop-color:#676767"
         offset="0" />
      <stop
         id="stop6405"
         style="stop-color:#282828"
         offset="1" />
    </linearGradient>
    <linearGradient
       inkscape:collect="always"
       xlink:href="#linearGradient3802"
       id="linearGradient10052"
       gradientUnits="userSpaceOnUse"
       gradientTransform="matrix(0,1,-1,0,95.927,0.072888)"
       x1="45"
       y1="28.878"
       x2="51"
       y2="28.878" />
    <linearGradient
       id="linearGradient6408">
      <stop
         id="stop6410"
         style="stop-color:#676767"
         offset="0" />
      <stop
         id="stop6412"
         style="stop-color:#282828"
         offset="1" />
    </linearGradient>
    <radialGradient
       inkscape:collect="always"
       xlink:href="#linearGradient3802"
       id="radialGradient10054"
       gradientUnits="userSpaceOnUse"
       gradientTransform="matrix(0.95004665,0,0,0.95004665,182.76319,1003.2976)"
       cx="48"
       cy="48"
       r="3" />
    <linearGradient
       id="linearGradient6415">
      <stop
         id="stop6417"
         style="stop-color:#676767"
         offset="0" />
      <stop
         id="stop6419"
         style="stop-color:#282828"
         offset="1" />
    </linearGradient>
    <radialGradient
       inkscape:collect="always"
       xlink:href="#linearGradient3802"
       id="radialGradient10056"
       gradientUnits="userSpaceOnUse"
       gradientTransform="matrix(2.007,-3.1157e-7,2.268e-7,1.4609,-35.349,-22.262)"
       cx="35.355"
       cy="47.745998"
       r="3.5318" />
    <linearGradient
       id="linearGradient6422">
      <stop
         id="stop6424"
         style="stop-color:#676767"
         offset="0" />
      <stop
         id="stop6426"
         style="stop-color:#282828"
         offset="1" />
    </linearGradient>
    <radialGradient
       inkscape:collect="always"
       xlink:href="#linearGradient3802"
       id="radialGradient10058"
       gradientUnits="userSpaceOnUse"
       gradientTransform="matrix(2.007,-3.1157e-7,2.268e-7,1.4609,-35.349,-22.262)"
       cx="35.355"
       cy="47.745998"
       r="3.5318" />
    <linearGradient
       id="linearGradient6429">
      <stop
         id="stop6431"
         style="stop-color:#676767"
         offset="0" />
      <stop
         id="stop6433"
         style="stop-color:#282828"
         offset="1" />
    </linearGradient>
    <radialGradient
       inkscape:collect="always"
       xlink:href="#linearGradient3802"
       id="radialGradient10060"
       gradientUnits="userSpaceOnUse"
       gradientTransform="matrix(-1.9067816,-2.9600413e-7,-2.1546298e-7,1.3879802,307.55295,982.14723)"
       cx="35.355"
       cy="47.745998"
       r="3.5318" />
    <linearGradient
       id="linearGradient6436">
      <stop
         id="stop6438"
         style="stop-color:#676767"
         offset="0" />
      <stop
         id="stop6440"
         style="stop-color:#282828"
         offset="1" />
    </linearGradient>
    <radialGradient
       inkscape:collect="always"
       xlink:href="#linearGradient3802"
       id="radialGradient10062"
       gradientUnits="userSpaceOnUse"
       gradientTransform="matrix(-2.9600413e-7,-1.9067816,1.3879802,-2.1546298e-7,161.65771,1128.0425)"
       cx="35.355"
       cy="47.745998"
       r="3.5318" />
    <linearGradient
       id="linearGradient6443">
      <stop
         id="stop6445"
         style="stop-color:#676767"
         offset="0" />
      <stop
         id="stop6447"
         style="stop-color:#282828"
         offset="1" />
    </linearGradient>
    <linearGradient
       inkscape:collect="always"
       xlink:href="#linearGradient4330"
       id="linearGradient10064"
       gradientUnits="userSpaceOnUse"
       gradientTransform="matrix(0.67178179,0.67178179,-0.67178179,0.67178179,228.36542,984.40834)"
       x1="45"
       y1="48"
       x2="51"
       y2="48" />
    <linearGradient
       id="linearGradient4330"
       y2="48"
       gradientUnits="userSpaceOnUse"
       x2="51"
       y1="48"
       x1="45">
      <stop
         id="stop4154"
         style="stop-color:#fff"
         offset="0" />
      <stop
         id="stop4160"
         style="stop-color:#fff;stop-opacity:0"
         offset=".5" />
      <stop
         id="stop4156"
         style="stop-color:#fff;stop-opacity:0"
         offset="1" />
    </linearGradient>
    <linearGradient
       y2="138.66"
       x2="48"
       y1="20.221001"
       x1="48"
       gradientUnits="userSpaceOnUse"
       id="linearGradient3519"
       xlink:href="#linearGradient3737-830"
       inkscape:collect="always" />
    <linearGradient
       id="linearGradient3737-830">
      <stop
         id="stop3739-17"
         style="stop-color:#fff"
         offset="0" />
      <stop
         id="stop3741-89"
         style="stop-color:#fff;stop-opacity:0"
         offset="1" />
    </linearGradient>
    <clipPath
       id="clipPath3613-15">
      <rect
         id="rect3615-49"
         style="fill:#ffffff"
         rx="6"
         ry="6"
         height="84"
         width="84"
         y="6"
         x="6" />
    </clipPath>
    <filter
       id="filter3794-25"
       height="1.3839999"
       width="1.3839999"
       color-interpolation-filters="sRGB"
       y="-0.192"
       x="-0.192">
      <feGaussianBlur
         id="feGaussianBlur3796-74"
         stdDeviation="5.28" />
    </filter>
  </defs>
  <sodipodi:namedview
     id="base"
     pagecolor="#ffffff"
     bordercolor="#666666"
     borderopacity="1.0"
     inkscape:pageopacity="0.0"
     inkscape:pageshadow="2"
     inkscape:zoom="3.959798"
     inkscape:cx="28.389459"
     inkscape:cy="57.490015"
     inkscape:document-units="px"
     inkscape:current-layer="layer1"
     showgrid="false"
     inkscape:window-width="1280"
     inkscape:window-height="725"
     inkscape:window-x="0"
     inkscape:window-y="25"
     inkscape:window-maximized="1" />
  <metadata
     id="metadata7">
    <rdf:RDF>
      <cc:Work
         rdf:about="">
        <dc:format>image/svg+xml</dc:format>
        <dc:type
           rdf:resource="http://purl.org/dc/dcmitype/StillImage" />
        <dc:title></dc:title>
      </cc:Work>
    </rdf:RDF>
  </metadata>
  <g
     inkscape:label="Layer 1"
     inkscape:groupmode="layer"
     id="layer1"
     transform="translate(0,-956.36217)">
    <g
       transform="translate(-182.1875,-40.40626)"
       id="g6208">
      <rect
         transform="translate(182.1875,40.40624)"
         y="964.36218"
         x="8"
         height="80"
         width="80"
         id="rect9283"
         style="fill:#000000;fill-opacity:1;stroke:none;filter:url(#filter6279-2)"
         rx="5"
         ry="5" />
      <rect
         ry="5"
         rx="5"
         style="fill:url(#linearGradient5979);fill-opacity:1;stroke:none"
         id="rect9285"
         width="80"
         height="80"
         x="8"
         y="964.36218"
         transform="translate(182.1875,40.40625)" />
      <g
         id="g10288">
        <g
           id="g10190">
          <g
             id="g10093">
            <g
               id="g9934"
               transform="matrix(1.1841547,0,0,1.1841547,-40.150535,-197.2913)">
              <g
                 id="g3898"
                 transform="matrix(0.71106812,0.41053416,-0.41053416,0.71106812,213.91788,995.09751)">
                <path
                   inkscape:connector-curvature="0"
                   id="path3900"
                   style="opacity:0.3;color:#000000"
                   d="m 51.846,33.096 a 3.9189,1.1036 0 1 1 -7.8377,0 3.9189,1.1036 0 1 1 7.8377,0 z" />
                <path
                   inkscape:connector-curvature="0"
                   id="path3902"
                   style="fill:url(#linearGradient10028)"
                   d="m 45,33 3,-9 3,9 c 0,0 -3.1343,1.7015 -6,0 z" />
                <path
                   inkscape:connector-curvature="0"
                   id="path3904"
                   style="opacity:0.15;fill:#ffffff"
                   d="m 48,24 -2.3172,9.3625 c 0.50038,0.17642 1.1541,0.36706 2.0086,0.40155 l 0.308,-9.764 z" />
                <path
                   inkscape:connector-curvature="0"
                   id="path3906"
                   style="opacity:0.3;fill:#ffffff"
                   d="m 48,24 -1.75,9.5312 c 0.29647,0.08579 0.58693,0.153 0.875,0.1875 L 48,24.0007 z" />
              </g>
              <g
                 id="g3908"
                 transform="matrix(-0.41053416,0.71106812,0.71106812,0.41053416,213.83579,995.11955)">
                <path
                   inkscape:connector-curvature="0"
                   id="path3910"
                   style="opacity:0.3;color:#000000"
                   d="m 51.846,33.096 a 3.9189,1.1036 0 1 1 -7.8377,0 3.9189,1.1036 0 1 1 7.8377,0 z" />
                <path
                   inkscape:connector-curvature="0"
                   id="path3912"
                   style="fill:url(#linearGradient10030)"
                   d="m 45,33 3,-9 3,9 c 0,0 -3.1343,1.7015 -6,0 z" />
                <path
                   inkscape:connector-curvature="0"
                   id="path3914"
                   style="opacity:0.15;fill:#ffffff"
                   d="m 48,24 -2.3172,9.3625 c 0.50038,0.17642 1.1541,0.36706 2.0086,0.40155 l 0.308,-9.764 z" />
                <path
                   inkscape:connector-curvature="0"
                   id="path3916"
                   style="opacity:0.3;fill:#ffffff"
                   d="m 48,24 -1.75,9.5312 c 0.29647,0.08579 0.58693,0.153 0.875,0.1875 L 48,24.0007 z" />
              </g>
              <g
                 id="g3918"
                 transform="matrix(0.71106812,0.41053416,-0.41053416,0.71106812,213.91788,995.09751)">
                <path
                   inkscape:connector-curvature="0"
                   id="path3920"
                   style="opacity:0.3;color:#000000"
                   d="m 51.846,33.096 a 3.9189,1.1036 0 1 1 -7.8377,0 3.9189,1.1036 0 1 1 7.8377,0 z"
                   transform="matrix(1,0,0,-1,-1.5869e-7,96)" />
                <path
                   inkscape:connector-curvature="0"
                   id="path3922"
                   style="fill:url(#linearGradient10032)"
                   d="m 45,63 3,9 3,-9 c 0,0 -3.1343,-1.7015 -6,0 z" />
                <path
                   inkscape:connector-curvature="0"
                   id="path3924"
                   style="opacity:0.15;fill:#ffffff"
                   d="m 48,72 -2.3172,-9.3625 c 0.50038,-0.17642 1.1541,-0.36706 2.0086,-0.40155 l 0.308,9.764 z" />
                <path
                   inkscape:connector-curvature="0"
                   id="path3926"
                   style="opacity:0.3;fill:#ffffff"
                   d="m 48,72 -1.75,-9.5312 c 0.29647,-0.08579 0.58693,-0.153 0.875,-0.1875 L 48,71.9993 z" />
                <path
                   inkscape:connector-curvature="0"
                   id="path3928"
                   style="opacity:0.3"
                   d="m 45,63 3,9 3,-9 c 0,0 -3.1343,-1.7015 -6,0 z" />
              </g>
              <g
                 id="g3930"
                 transform="matrix(0.71106812,0.41053416,-0.41053416,0.71106812,213.91788,995.09751)">
                <path
                   inkscape:connector-curvature="0"
                   id="path3932"
                   style="opacity:0.3;color:#000000"
                   d="m 51.846,33.096 a 3.9189,1.1036 0 1 1 -7.8377,0 3.9189,1.1036 0 1 1 7.8377,0 z"
                   transform="matrix(0,1,-1,0,95.927,0.072888)" />
                <path
                   inkscape:connector-curvature="0"
                   id="path3934"
                   style="fill:url(#linearGradient10034)"
                   d="m 62.927,45.073 9,3 -9,3 c 0,0 -1.7015,-3.1343 0,-6 z" />
                <path
                   inkscape:connector-curvature="0"
                   id="path3936"
                   style="opacity:0.15;fill:#ffffff"
                   d="m 71.927,48.073 -9.3625,-2.3172 c -0.17642,0.50038 -0.36706,1.1541 -0.40155,2.0086 l 9.7641,0.30858 z" />
                <path
                   inkscape:connector-curvature="0"
                   id="path3938"
                   style="opacity:0.3;fill:#ffffff"
                   d="m 71.927,48.073 -9.5312,-1.75 c -0.08579,0.29647 -0.153,0.58693 -0.1875,0.875 l 9.7188,0.875 z" />
                <path
                   inkscape:connector-curvature="0"
                   id="path3940"
                   style="opacity:0.5"
                   d="m 62.927,45.073 9,3 -9,3 c 0,0 -1.7015,-3.1343 0,-6 z" />
              </g>
              <path
                 inkscape:connector-curvature="0"
                 id="path3782"
                 style="color:#000000;fill:url(#radialGradient10036)"
                 d="m 243.56617,1048.8998 a 15.200746,15.200746 0 0 1 -30.40149,0 15.200746,15.200746 0 1 1 30.40149,0 z" />
              <g
                 id="g3826"
                 transform="matrix(0.95004665,0,0,0.95004665,182.76319,1003.2976)">
                <path
                   inkscape:connector-curvature="0"
                   id="path3824"
                   style="opacity:0.3;color:#000000"
                   d="m 51.846,33.096 a 3.9189,1.1036 0 1 1 -7.8377,0 3.9189,1.1036 0 1 1 7.8377,0 z" />
                <path
                   inkscape:connector-curvature="0"
                   id="path3800"
                   style="fill:url(#linearGradient10038)"
                   d="m 45,33 3,-9 3,9 c 0,0 -3.1343,1.7015 -6,0 z" />
                <path
                   inkscape:connector-curvature="0"
                   id="path3822"
                   style="opacity:0.15;fill:#ffffff"
                   d="m 48,24 -2.3172,9.3625 c 0.50038,0.17642 1.1541,0.36706 2.0086,0.40155 l 0.308,-9.764 z" />
                <path
                   inkscape:connector-curvature="0"
                   id="path3812"
                   style="opacity:0.3;fill:#ffffff"
                   d="m 48,24 -1.75,9.5312 c 0.29647,0.08579 0.58693,0.153 0.875,0.1875 L 48,24.0007 z" />
              </g>
              <g
                 id="g3844"
                 transform="matrix(0,0.95004665,0.95004665,0,182.69402,1003.3667)">
                <path
                   inkscape:connector-curvature="0"
                   id="path3846"
                   style="opacity:0.3;color:#000000"
                   d="m 51.846,33.096 a 3.9189,1.1036 0 1 1 -7.8377,0 3.9189,1.1036 0 1 1 7.8377,0 z" />
                <path
                   inkscape:connector-curvature="0"
                   id="path3848"
                   style="fill:url(#linearGradient10040)"
                   d="m 45,33 3,-9 3,9 c 0,0 -3.1343,1.7015 -6,0 z" />
                <path
                   inkscape:connector-curvature="0"
                   id="path3850"
                   style="opacity:0.15;fill:#ffffff"
                   d="m 48,24 -2.3172,9.3625 c 0.50038,0.17642 1.1541,0.36706 2.0086,0.40155 l 0.308,-9.764 z" />
                <path
                   inkscape:connector-curvature="0"
                   id="path3852"
                   style="opacity:0.3;fill:#ffffff"
                   d="m 48,24 -1.75,9.5312 c 0.29647,0.08579 0.58693,0.153 0.875,0.1875 L 48,24.0007 z" />
              </g>
              <g
                 id="g3891"
                 transform="matrix(0.95004665,0,0,0.95004665,182.76319,1003.2976)">
                <path
                   inkscape:connector-curvature="0"
                   id="path3834"
                   style="opacity:0.3;color:#000000"
                   d="m 51.846,33.096 a 3.9189,1.1036 0 1 1 -7.8377,0 3.9189,1.1036 0 1 1 7.8377,0 z"
                   transform="matrix(1,0,0,-1,-1.5869e-7,96)" />
                <path
                   inkscape:connector-curvature="0"
                   id="path3836"
                   style="fill:url(#linearGradient10042)"
                   d="m 45,63 3,9 3,-9 c 0,0 -3.1343,-1.7015 -6,0 z" />
                <path
                   inkscape:connector-curvature="0"
                   id="path3838"
                   style="opacity:0.15;fill:#ffffff"
                   d="m 48,72 -2.3172,-9.3625 c 0.50038,-0.17642 1.1541,-0.36706 2.0086,-0.40155 l 0.308,9.764 z" />
                <path
                   inkscape:connector-curvature="0"
                   id="path3840"
                   style="opacity:0.3;fill:#ffffff"
                   d="m 48,72 -1.75,-9.5312 c 0.29647,-0.08579 0.58693,-0.153 0.875,-0.1875 L 48,71.9993 z" />
                <path
                   inkscape:connector-curvature="0"
                   id="path3880"
                   style="opacity:0.3"
                   d="m 45,63 3,9 3,-9 c 0,0 -3.1343,-1.7015 -6,0 z" />
              </g>
              <g
                 id="g3884"
                 transform="matrix(0.95004665,0,0,0.95004665,182.76319,1003.2976)">
                <path
                   inkscape:connector-curvature="0"
                   id="path3858"
                   style="opacity:0.3;color:#000000"
                   d="m 51.846,33.096 a 3.9189,1.1036 0 1 1 -7.8377,0 3.9189,1.1036 0 1 1 7.8377,0 z"
                   transform="matrix(0,1,-1,0,95.927,0.072888)" />
                <path
                   inkscape:connector-curvature="0"
                   id="path3860"
                   style="fill:url(#linearGradient10044)"
                   d="m 62.927,45.073 9,3 -9,3 c 0,0 -1.7015,-3.1343 0,-6 z" />
                <path
                   inkscape:connector-curvature="0"
                   id="path3862"
                   style="opacity:0.15;fill:#ffffff"
                   d="m 71.927,48.073 -9.3625,-2.3172 c -0.17642,0.50038 -0.36706,1.1541 -0.40155,2.0086 l 9.7641,0.30858 z" />
                <path
                   inkscape:connector-curvature="0"
                   id="path3864"
                   style="opacity:0.3;fill:#ffffff"
                   d="m 71.927,48.073 -9.5312,-1.75 c -0.08579,0.29647 -0.153,0.58693 -0.1875,0.875 l 9.7188,0.875 z" />
                <path
                   inkscape:connector-curvature="0"
                   id="path3882"
                   style="opacity:0.5"
                   d="m 62.927,45.073 9,3 -9,3 c 0,0 -1.7015,-3.1343 0,-6 z" />
              </g>
              <g
                 id="g3950"
                 transform="matrix(0.81742014,-0.47194517,0.47194517,0.81742014,166.41554,1035.1302)">
                <path
                   inkscape:connector-curvature="0"
                   id="path3952"
                   style="opacity:0.3;color:#000000"
                   d="m 51.846,33.096 a 3.9189,1.1036 0 1 1 -7.8377,0 3.9189,1.1036 0 1 1 7.8377,0 z" />
                <path
                   inkscape:connector-curvature="0"
                   id="path3954"
                   style="fill:url(#linearGradient10046)"
                   d="m 45,33 3,-9 3,9 c 0,0 -3.1343,1.7015 -6,0 z" />
                <path
                   inkscape:connector-curvature="0"
                   id="path3956"
                   style="opacity:0.15;fill:#ffffff"
                   d="m 48,24 -2.3172,9.3625 c 0.50038,0.17642 1.1541,0.36706 2.0086,0.40155 l 0.308,-9.764 z" />
                <path
                   inkscape:connector-curvature="0"
                   id="path3958"
                   style="opacity:0.3;fill:#ffffff"
                   d="m 48,24 -1.75,9.5312 c 0.29647,0.08579 0.58693,0.153 0.875,0.1875 L 48,24.0007 z" />
              </g>
              <g
                 id="g3960"
                 transform="matrix(0.47194517,0.81742014,0.81742014,-0.47194517,169.23984,1032.3743)">
                <path
                   inkscape:connector-curvature="0"
                   id="path3962"
                   style="opacity:0.3;color:#000000"
                   d="m 51.846,33.096 a 3.9189,1.1036 0 1 1 -7.8377,0 3.9189,1.1036 0 1 1 7.8377,0 z" />
                <path
                   inkscape:connector-curvature="0"
                   id="path3964"
                   style="fill:url(#linearGradient10048)"
                   d="m 45,33 3,-9 3,9 c 0,0 -3.1343,1.7015 -6,0 z" />
                <path
                   inkscape:connector-curvature="0"
                   id="path3966"
                   style="opacity:0.15;fill:#ffffff"
                   d="m 48,24 -2.3172,9.3625 c 0.50038,0.17642 1.1541,0.36706 2.0086,0.40155 l 0.308,-9.764 z" />
                <path
                   inkscape:connector-curvature="0"
                   id="path3968"
                   style="opacity:0.3;fill:#ffffff"
                   d="m 48,24 -1.75,9.5312 c 0.29647,0.08579 0.58693,0.153 0.875,0.1875 L 48,24.0007 z" />
              </g>
              <g
                 id="g3970"
                 transform="matrix(0.81742014,-0.47194517,0.47194517,0.81742014,166.41554,1029.4299)">
                <path
                   inkscape:connector-curvature="0"
                   id="path3972"
                   style="opacity:0.3;color:#000000"
                   d="m 51.846,33.096 a 3.9189,1.1036 0 1 1 -7.8377,0 3.9189,1.1036 0 1 1 7.8377,0 z"
                   transform="matrix(1,0,0,-1,-1.5869e-7,96)" />
                <path
                   inkscape:connector-curvature="0"
                   id="path3974"
                   style="fill:url(#linearGradient10050)"
                   d="m 45,63 3,9 3,-9 c 0,0 -3.1343,-1.7015 -6,0 z" />
                <path
                   inkscape:connector-curvature="0"
                   id="path3976"
                   style="opacity:0.15;fill:#ffffff"
                   d="m 48,72 -2.3172,-9.3625 c 0.50038,-0.17642 1.1541,-0.36706 2.0086,-0.40155 l 0.308,9.764 z" />
                <path
                   inkscape:connector-curvature="0"
                   id="path3978"
                   style="opacity:0.3;fill:#ffffff"
                   d="m 48,72 -1.75,-9.5312 c 0.29647,-0.08579 0.58693,-0.153 0.875,-0.1875 L 48,71.9993 z" />
                <path
                   inkscape:connector-curvature="0"
                   id="path3980"
                   style="opacity:0.5"
                   d="m 45,63 3,9 3,-9 c 0,0 -3.1343,-1.7015 -6,0 z" />
              </g>
              <g
                 id="g3982"
                 transform="matrix(0.81742014,-0.47194517,0.47194517,0.81742014,163.5654,1032.2801)">
                <path
                   inkscape:connector-curvature="0"
                   id="path3984"
                   style="opacity:0.3;color:#000000"
                   d="m 51.846,33.096 a 3.9189,1.1036 0 1 1 -7.8377,0 3.9189,1.1036 0 1 1 7.8377,0 z"
                   transform="matrix(0,1,-1,0,95.927,0.072888)" />
                <path
                   inkscape:connector-curvature="0"
                   id="path3986"
                   style="fill:url(#linearGradient10052)"
                   d="m 62.927,45.073 9,3 -9,3 c 0,0 -1.7015,-3.1343 0,-6 z" />
                <path
                   inkscape:connector-curvature="0"
                   id="path3988"
                   style="opacity:0.15;fill:#ffffff"
                   d="m 71.927,48.073 -9.3625,-2.3172 c -0.17642,0.50038 -0.36706,1.1541 -0.40155,2.0086 l 9.7641,0.30858 z" />
                <path
                   inkscape:connector-curvature="0"
                   id="path3990"
                   style="opacity:0.3;fill:#ffffff"
                   d="m 71.927,48.073 -9.5312,-1.75 c -0.08579,0.29647 -0.153,0.58693 -0.1875,0.875 l 9.7188,0.875 z" />
                <path
                   inkscape:connector-curvature="0"
                   id="path3992"
                   style="opacity:0.3"
                   d="m 62.927,45.073 9,3 -9,3 c 0,0 -1.7015,-3.1343 0,-6 z" />
              </g>
              <path
                 inkscape:connector-curvature="0"
                 id="path4136"
                 style="opacity:0.5;color:#000000"
                 d="m 231.7824,1048.9016 a 3.4151517,3.4151517 0 0 1 -6.8303,0 3.4151517,3.4151517 0 1 1 6.8303,0 z" />
              <path
                 inkscape:connector-curvature="0"
                 id="path4015"
                 style="color:#000000;fill:url(#radialGradient10054)"
                 d="m 231.21557,1048.8998 a 2.85014,2.85014 0 0 1 -5.70028,0 2.85014,2.85014 0 1 1 5.70028,0 z" />
              <g
                 id="g4039"
                 transform="matrix(0.95004665,0,0,0.95004665,182.76319,1003.2976)">
                <path
                   inkscape:connector-curvature="0"
                   id="path4037"
                   style="opacity:0.5;color:#000000"
                   d="m 42.553,47.953 a 3.3662,3.652 0 1 1 -6.7323,0 3.3662,3.652 0 1 1 6.7323,0 z" />
                <path
                   inkscape:connector-curvature="0"
                   id="path4004"
                   style="fill:url(#radialGradient10056)"
                   d="m 34.936,48.073 c 0,0 2.253,-3.073 4.064,-3.073 4,0 4,6 0,6 -1.6216,-0.04504 -4.0637,-2.9271 -4.0637,-2.9271 z" />
                <path
                   inkscape:connector-curvature="0"
                   id="path4032"
                   style="opacity:0.15;fill:#ffffff"
                   d="M 40.344,45.281 35,48 41.969,47.812 c -0.0586,-1.0466 -0.58934,-2.0583 -1.625,-2.5312 z" />
                <path
                   inkscape:connector-curvature="0"
                   id="path4027"
                   style="opacity:0.3;fill:#ffffff"
                   d="m 40.875,45.625 -5.8125,2.4375 6.6875,-1.25 c -0.182,-0.458 -0.474,-0.873 -0.875,-1.187 z" />
              </g>
              <g
                 id="g4045"
                 transform="matrix(0,0.95004665,0.95004665,0,182.80803,1003.2527)">
                <path
                   inkscape:connector-curvature="0"
                   id="path4047"
                   style="opacity:0.5;color:#000000"
                   d="m 42.553,47.953 a 3.3662,3.652 0 1 1 -6.7323,0 3.3662,3.652 0 1 1 6.7323,0 z" />
                <path
                   inkscape:connector-curvature="0"
                   id="path4049"
                   style="fill:url(#radialGradient10058)"
                   d="m 34.936,48.073 c 0,0 2.253,-3.073 4.064,-3.073 4,0 4,6 0,6 -1.6216,-0.04504 -4.0637,-2.9271 -4.0637,-2.9271 z" />
                <path
                   inkscape:connector-curvature="0"
                   id="path4051"
                   style="opacity:0.15;fill:#ffffff"
                   d="M 40.344,45.281 35,48 41.969,47.812 c -0.0586,-1.0466 -0.58934,-2.0583 -1.625,-2.5312 z" />
                <path
                   inkscape:connector-curvature="0"
                   id="path4053"
                   style="opacity:0.3;fill:#ffffff"
                   d="m 40.875,45.625 -5.8125,2.4375 6.6875,-1.25 c -0.182,-0.458 -0.474,-0.873 -0.875,-1.187 z" />
              </g>
              <path
                 inkscape:connector-curvature="0"
                 id="path4071"
                 style="opacity:0.5;color:#000000"
                 d="m 233.53956,1048.8552 a 3.198047,3.4695704 0 1 0 6.396,0 3.198047,3.4695704 0 1 0 -6.396,0 z" />
              <path
                 inkscape:connector-curvature="0"
                 id="path4073"
                 style="fill:url(#radialGradient10060)"
                 d="m 240.77683,1048.969 c 0,0 -2.14041,-2.9194 -3.86068,-2.9194 -3.80019,0 -3.80019,5.7003 0,5.7003 1.54059,-0.043 3.86068,-2.7809 3.86068,-2.7809 z" />
              <path
                 inkscape:connector-curvature="0"
                 id="path4075"
                 style="opacity:0.15;fill:#ffffff"
                 d="m 235.63898,1046.3172 5.07705,2.5826 -6.62068,-0.1779 c 0.0557,-0.9942 0.55989,-1.9555 1.54378,-2.4048 z" />
              <path
                 inkscape:connector-curvature="0"
                 id="path4077"
                 style="opacity:0.3;fill:#ffffff"
                 d="m 235.13432,1046.6432 5.52212,2.3158 -6.35345,-1.1876 c 0.17289,-0.4358 0.45037,-0.8297 0.83133,-1.1282 z" />
              <path
                 inkscape:connector-curvature="0"
                 id="path4087"
                 style="opacity:0.4"
                 d="m 240.77683,1048.969 c 0,0 -2.14041,-2.9194 -3.86068,-2.9194 -3.80019,0 -3.80019,5.7003 0,5.7003 1.54059,-0.043 3.86068,-2.7809 3.86068,-2.7809 z" />
              <path
                 inkscape:connector-curvature="0"
                 id="path4110"
                 style="opacity:0.5;color:#000000"
                 d="m 228.36562,1054.0291 a 3.4695704,3.198047 0 1 1 0,6.396 3.4695704,3.198047 0 1 1 0,-6.396 z" />
              <path
                 inkscape:connector-curvature="0"
                 id="path4112"
                 style="fill:url(#radialGradient10062)"
                 d="m 228.47943,1061.2664 c 0,0 -2.91938,-2.1405 -2.91938,-3.8607 0,-3.8002 5.70028,-3.8002 5.70028,0 -0.0428,1.5406 -2.7809,3.8607 -2.7809,3.8607 z" />
              <path
                 inkscape:connector-curvature="0"
                 id="path4114"
                 style="opacity:0.15;fill:#ffffff"
                 d="m 225.82766,1056.1285 2.58291,5.0768 -0.17814,-6.6206 c -0.99428,0.056 -1.9555,0.5599 -2.40483,1.5438 z" />
              <path
                 inkscape:connector-curvature="0"
                 id="path4116"
                 style="opacity:0.3;fill:#ffffff"
                 d="m 226.15372,1055.6238 2.31575,5.5222 -1.18755,-6.3535 c -0.43588,0.1729 -0.82974,0.4504 -1.1282,0.8313 z" />
              <path
                 inkscape:connector-curvature="0"
                 id="path4126"
                 style="opacity:0.2"
                 d="m 228.47943,1061.2664 c 0,0 -2.91938,-2.1405 -2.91938,-3.8607 0,-3.8002 5.70028,-3.8002 5.70028,0 -0.0428,1.5406 -2.7809,3.8607 -2.7809,3.8607 z" />
              <path
                 inkscape:connector-curvature="0"
                 id="path4140"
                 style="opacity:0.3;fill:#ffffff"
                 d="m 226.99964,1046.4061 c -0.46409,0.2549 -0.83741,0.6383 -1.09848,1.0985 l 2.43447,1.336 -1.33599,-2.4345 z" />
              <path
                 inkscape:connector-curvature="0"
                 id="path4142"
                 style="opacity:0.15;fill:#ffffff"
                 d="m 227.65327,1046.1682 c -0.95674,0.253 -1.70575,0.9858 -1.98917,1.9298 l 2.79078,0.7126 -0.80161,-2.6424 z" />
              <path
                 inkscape:connector-curvature="0"
                 id="path4150"
                 style="opacity:0.5;color:#000000;fill:url(#linearGradient10064)"
                 d="m 230.38077,1050.9147 a 2.8501353,2.8501353 0 0 1 -4.0307,-4.0307 2.8501353,2.8501353 0 0 1 4.0307,4.0307 z" />
            </g>
            <g
               transform="translate(182.1875,996.76843)"
               id="layer5">
              <rect
                 id="rect3171"
                 style="opacity:0.1;fill:url(#linearGradient3519);stroke:#ffffff;stroke-width:0.5;stroke-linecap:round;filter:url(#filter3794-25)"
                 clip-path="url(#clipPath3613-15)"
                 rx="12"
                 ry="12"
                 height="66"
                 width="66"
                 y="15"
                 x="15" />
            </g>
          </g>
        </g>
      </g>
    </g>
  </g>
</svg>
