<?xml version="1.0" encoding="UTF-8" standalone="no"?>
<!-- Created with Inkscape (http://www.inkscape.org/) -->

<svg
   xmlns:dc="http://purl.org/dc/elements/1.1/"
   xmlns:cc="http://creativecommons.org/ns#"
   xmlns:rdf="http://www.w3.org/1999/02/22-rdf-syntax-ns#"
   xmlns:svg="http://www.w3.org/2000/svg"
   xmlns="http://www.w3.org/2000/svg"
   xmlns:xlink="http://www.w3.org/1999/xlink"
   xmlns:sodipodi="http://sodipodi.sourceforge.net/DTD/sodipodi-0.dtd"
   xmlns:inkscape="http://www.inkscape.org/namespaces/inkscape"
   width="96"
   height="96"
   id="svg2982"
   version="1.1"
   inkscape:version="0.48.1 r9760"
   sodipodi:docname="gnome-shutdown.svg">
  <defs
     id="defs2984">
    <filter
       color-interpolation-filters="sRGB"
       inkscape:collect="always"
       id="filter6279">
      <feGaussianBlur
         inkscape:collect="always"
         stdDeviation="0.8"
         id="feGaussianBlur6281" />
    </filter>
    <linearGradient
       y2="902.36218"
       x2="48"
       y1="1052.3622"
       x1="48"
       gradientTransform="translate(0,-9.6171873e-6)"
       gradientUnits="userSpaceOnUse"
       id="linearGradient6043-5"
       xlink:href="#linearGradient3578-995-735-4-566-885-385-488-812-692-100-298-982-943-9"
       inkscape:collect="always" />
    <linearGradient
       id="linearGradient3578-995-735-4-566-885-385-488-812-692-100-298-982-943-9">
      <stop
         id="stop4639-8"
         style="stop-color:#115984;stop-opacity:1"
         offset="0" />
      <stop
         id="stop4641-8"
         style="stop-color:#5498c5;stop-opacity:1"
         offset="1" />
    </linearGradient>
  </defs>
  <sodipodi:namedview
     id="base"
     pagecolor="#ffffff"
     bordercolor="#666666"
     borderopacity="1.0"
     inkscape:pageopacity="0.0"
     inkscape:pageshadow="2"
     inkscape:zoom="3.959798"
     inkscape:cx="31.971733"
     inkscape:cy="42.877139"
     inkscape:document-units="px"
     inkscape:current-layer="layer1"
     showgrid="false"
     inkscape:window-width="1280"
     inkscape:window-height="725"
     inkscape:window-x="0"
     inkscape:window-y="25"
     inkscape:window-maximized="1" />
  <metadata
     id="metadata2987">
    <rdf:RDF>
      <cc:Work
         rdf:about="">
        <dc:format>image/svg+xml</dc:format>
        <dc:type
           rdf:resource="http://purl.org/dc/dcmitype/StillImage" />
        <dc:title></dc:title>
      </cc:Work>
    </rdf:RDF>
  </metadata>
  <g
     inkscape:label="Layer 1"
     inkscape:groupmode="layer"
     id="layer1"
     transform="translate(0,-956.36218)">
    <g
       id="g21868">
      <g
         id="g26594"
         transform="translate(-182.1875,-40.40625)" />
      <rect
         ry="5"
         rx="5"
         style="fill:#000000;fill-opacity:1;stroke:none;filter:url(#filter6279)"
         id="rect9283"
         width="80"
         height="80"
         x="8"
         y="964.36218" />
      <rect
         y="964.36218"
         x="8"
         height="80"
         width="80"
         id="rect9285"
         style="fill:#ffffff;fill-opacity:1;stroke:none"
         rx="5"
         ry="5" />
      <rect
         ry="5"
         rx="5"
         style="fill:url(#linearGradient6043-5);fill-opacity:1;stroke:none"
         id="rect9285-8"
         width="80"
         height="80"
         x="8"
         y="964.36218" />
      <path
         style="color:#000000;fill:#ffffff;fill-opacity:1;stroke:none;stroke-width:6;marker:none;visibility:visible;display:inline;overflow:visible;enable-background:accumulate"
         id="rect4223"
         inkscape:connector-curvature="0"
         d="m 48,977.77655 c -1.979549,0 -3.573193,1.59364 -3.573193,3.57319 l 0,21.43926 c 0,1.9795 1.593644,3.5732 3.573193,3.5732 1.979549,0 3.573194,-1.5937 3.573194,-3.5732 l 0,-21.43926 c 0,-1.97955 -1.593645,-3.57319 -3.573194,-3.57319 z m 10.440424,6.42058 a 3.5735505,3.5735505 0 0 0 -1.507441,6.69974 c 8.581813,4.95471 11.486956,15.81643 6.532244,24.39833 -4.954712,8.5818 -15.816396,11.4869 -24.398209,6.5322 -8.581813,-4.9548 -11.486956,-15.8164 -6.532244,-24.39829 1.568157,-2.71613 3.816116,-4.96408 6.532244,-6.53224 a 3.5767914,3.5767914 0 0 0 -3.573194,-6.19726 c -3.8022,2.1952 -6.961106,5.35411 -9.156307,9.15631 -6.885809,11.92658 -2.770263,27.28288 9.156307,34.16878 11.926571,6.8858 27.282851,2.7702 34.16866,-9.1564 6.885808,-11.9266 2.770263,-27.28288 -9.156307,-34.16869 a 3.5735505,3.5735505 0 0 0 -2.065753,-0.50248 z" />
    </g>
  </g>
</svg>
