<?xml version="1.0" encoding="UTF-8" standalone="no"?>
<!-- Created with Inkscape (http://www.inkscape.org/) -->

<svg
   xmlns:dc="http://purl.org/dc/elements/1.1/"
   xmlns:cc="http://creativecommons.org/ns#"
   xmlns:rdf="http://www.w3.org/1999/02/22-rdf-syntax-ns#"
   xmlns:svg="http://www.w3.org/2000/svg"
   xmlns="http://www.w3.org/2000/svg"
   xmlns:xlink="http://www.w3.org/1999/xlink"
   xmlns:sodipodi="http://sodipodi.sourceforge.net/DTD/sodipodi-0.dtd"
   xmlns:inkscape="http://www.inkscape.org/namespaces/inkscape"
   width="96"
   height="96"
   id="svg2"
   version="1.1"
   inkscape:version="0.48.1 r9760"
   sodipodi:docname="gnome-robots.svg">
  <defs
     id="defs4">
    <filter
       color-interpolation-filters="sRGB"
       inkscape:collect="always"
       id="filter6279-2">
      <feGaussianBlur
         inkscape:collect="always"
         stdDeviation="0.8"
         id="feGaussianBlur6281-1" />
    </filter>
    <linearGradient
       inkscape:collect="always"
       xlink:href="#linearGradient4206"
       id="linearGradient5979"
       gradientUnits="userSpaceOnUse"
       gradientTransform="translate(0,-7.8515622e-6)"
       x1="48"
       y1="1052.3622"
       x2="48"
       y2="902.36218" />
    <linearGradient
       id="linearGradient4206"
       y2="5.9877"
       gradientUnits="userSpaceOnUse"
       x2="48"
       y1="90"
       x1="48"
       gradientTransform="translate(-34.939929,5.0883392)">
      <stop
         id="stop4086"
         style="stop-color:#61537d"
         offset="0" />
      <stop
         id="stop4088"
         style="stop-color:#a192bb"
         offset="1" />
    </linearGradient>
    <radialGradient
       inkscape:collect="always"
       xlink:href="#linearGradient8687"
       id="radialGradient3163"
       gradientUnits="userSpaceOnUse"
       gradientTransform="matrix(1.8427,0,0,1.8146,13.624,1.3695)"
       cx="18.684999"
       cy="25.667999"
       r="5.0500002" />
    <linearGradient
       id="linearGradient8687">
      <stop
         id="stop8689"
         style="stop-color:#a40000"
         offset="0" />
      <stop
         id="stop8691"
         style="stop-color:#a40000;stop-opacity:0"
         offset="1" />
    </linearGradient>
    <radialGradient
       inkscape:collect="always"
       xlink:href="#linearGradient9586-1"
       id="radialGradient3160"
       gradientUnits="userSpaceOnUse"
       gradientTransform="matrix(1.3162,0,0,1.2961,23.461,14.754)"
       cx="18.684999"
       cy="25.667999"
       r="5.0500002" />
    <linearGradient
       id="linearGradient9586-1">
      <stop
         id="stop9588"
         style="stop-color:#c00"
         offset="0" />
      <stop
         id="stop9590"
         style="stop-color:#c00;stop-opacity:0"
         offset="1" />
    </linearGradient>
    <radialGradient
       inkscape:collect="always"
       xlink:href="#linearGradient8687"
       id="radialGradient3157"
       gradientUnits="userSpaceOnUse"
       gradientTransform="matrix(1.8427,0,0,1.8146,1.9923,1.3695)"
       cx="18.684999"
       cy="25.667999"
       r="5.0500002" />
    <linearGradient
       id="linearGradient6014">
      <stop
         id="stop6016"
         style="stop-color:#a40000"
         offset="0" />
      <stop
         id="stop6018"
         style="stop-color:#a40000;stop-opacity:0"
         offset="1" />
    </linearGradient>
    <radialGradient
       inkscape:collect="always"
       xlink:href="#linearGradient9586-1"
       id="radialGradient3154"
       gradientUnits="userSpaceOnUse"
       gradientTransform="matrix(1.3162,0,0,1.2961,11.83,14.754)"
       cx="18.684999"
       cy="25.667999"
       r="5.0500002" />
    <linearGradient
       id="linearGradient6021">
      <stop
         id="stop6023"
         style="stop-color:#c00"
         offset="0" />
      <stop
         id="stop6025"
         style="stop-color:#c00;stop-opacity:0"
         offset="1" />
    </linearGradient>
    <radialGradient
       inkscape:collect="always"
       xlink:href="#linearGradient8687"
       id="radialGradient3151"
       gradientUnits="userSpaceOnUse"
       gradientTransform="matrix(1.8427,0,0,1.8146,25.256,1.3695)"
       cx="18.684999"
       cy="25.667999"
       r="5.0500002" />
    <linearGradient
       id="linearGradient6028">
      <stop
         id="stop6030"
         style="stop-color:#a40000"
         offset="0" />
      <stop
         id="stop6032"
         style="stop-color:#a40000;stop-opacity:0"
         offset="1" />
    </linearGradient>
    <radialGradient
       inkscape:collect="always"
       xlink:href="#linearGradient9586-1"
       id="radialGradient3148"
       gradientUnits="userSpaceOnUse"
       gradientTransform="matrix(1.3162,0,0,1.2961,35.093,14.754)"
       cx="18.684999"
       cy="25.667999"
       r="5.0500002" />
    <linearGradient
       id="linearGradient6035">
      <stop
         id="stop6037"
         style="stop-color:#c00"
         offset="0" />
      <stop
         id="stop6039"
         style="stop-color:#c00;stop-opacity:0"
         offset="1" />
    </linearGradient>
    <radialGradient
       inkscape:collect="always"
       xlink:href="#radialGradient3166"
       id="radialGradient3145"
       gradientUnits="userSpaceOnUse"
       gradientTransform="matrix(-5.5599e-8,1.774,-1.7379,-0.034892,57.152,11.751)"
       cx="13.199"
       cy="12.464"
       r="21.009001" />
    <radialGradient
       id="radialGradient3166"
       gradientUnits="userSpaceOnUse"
       cy="12.464"
       cx="13.199"
       gradientTransform="matrix(-5.5599e-8,1.774,-1.7379,-0.034892,57.152,11.751)"
       r="21.009001">
      <stop
         id="stop3979-1"
         style="stop-color:#ddd"
         offset="0" />
      <stop
         id="stop3981-0"
         style="stop-color:#9a9a9a"
         offset=".34865" />
      <stop
         id="stop3987"
         style="stop-color:#696969"
         offset=".67432" />
      <stop
         id="stop3983"
         style="stop-color:#333"
         offset="1" />
    </radialGradient>
    <linearGradient
       inkscape:collect="always"
       xlink:href="#linearGradient3163"
       id="linearGradient3142"
       gradientUnits="userSpaceOnUse"
       gradientTransform="matrix(1.1632,0,0,1.1455,20.138,20.455)"
       x1="5.6933999"
       y1="5.4583001"
       x2="40.502998"
       y2="40.081001" />
    <linearGradient
       id="linearGradient3163"
       y2="40.081001"
       gradientUnits="userSpaceOnUse"
       x2="40.502998"
       gradientTransform="matrix(1.1632,0,0,1.1455,20.138,20.455)"
       y1="5.4583001"
       x1="5.6933999">
      <stop
         id="stop4002"
         style="stop-color:#eeeeec"
         offset="0" />
      <stop
         id="stop4004"
         style="stop-color:#eeeeec;stop-opacity:0"
         offset="1" />
    </linearGradient>
    <radialGradient
       inkscape:collect="always"
       xlink:href="#linearGradient4055"
       id="radialGradient3139"
       gradientUnits="userSpaceOnUse"
       gradientTransform="matrix(2.4906,0,0,2.4526,-10.114,-14.931)"
       cx="18.684999"
       cy="25.667999"
       r="5.0500002" />
    <linearGradient
       id="linearGradient4055">
      <stop
         id="stop4057"
         style="stop-color:#ed1414"
         offset="0" />
      <stop
         id="stop4059"
         style="stop-color:#ef2929;stop-opacity:0"
         offset="1" />
    </linearGradient>
    <radialGradient
       inkscape:collect="always"
       xlink:href="#linearGradient4055"
       id="radialGradient3136"
       gradientUnits="userSpaceOnUse"
       gradientTransform="matrix(2.4906,0,0,2.4526,1.8862,-14.931)"
       cx="18.684999"
       cy="25.667999"
       r="5.0500002" />
    <linearGradient
       id="linearGradient6056">
      <stop
         id="stop6058"
         style="stop-color:#ed1414"
         offset="0" />
      <stop
         id="stop6060"
         style="stop-color:#ef2929;stop-opacity:0"
         offset="1" />
    </linearGradient>
    <radialGradient
       inkscape:collect="always"
       xlink:href="#linearGradient4055"
       id="radialGradient3133"
       gradientUnits="userSpaceOnUse"
       gradientTransform="matrix(2.4906,0,0,2.4526,13.886,-14.931)"
       cx="18.684999"
       cy="25.667999"
       r="5.0500002" />
    <linearGradient
       id="linearGradient6063">
      <stop
         id="stop6065"
         style="stop-color:#ed1414"
         offset="0" />
      <stop
         id="stop6067"
         style="stop-color:#ef2929;stop-opacity:0"
         offset="1" />
    </linearGradient>
    <radialGradient
       inkscape:collect="always"
       xlink:href="#linearGradient9598"
       id="radialGradient3130"
       gradientUnits="userSpaceOnUse"
       gradientTransform="matrix(0.78972,0,0,0.77769,33.299,28.061)"
       cx="18.684999"
       cy="25.667999"
       r="5.0500002" />
    <linearGradient
       id="linearGradient9598">
      <stop
         id="stop9600"
         style="stop-color:#efaa29"
         offset="0" />
      <stop
         id="stop9602"
         style="stop-color:#ef2929;stop-opacity:0"
         offset="1" />
    </linearGradient>
    <radialGradient
       inkscape:collect="always"
       xlink:href="#linearGradient9598"
       id="radialGradient3127"
       gradientUnits="userSpaceOnUse"
       gradientTransform="matrix(0.78972,0,0,0.77769,21.667,28.061)"
       cx="18.684999"
       cy="25.667999"
       r="5.0500002" />
    <linearGradient
       id="linearGradient6074">
      <stop
         id="stop6076"
         style="stop-color:#efaa29"
         offset="0" />
      <stop
         id="stop6078"
         style="stop-color:#ef2929;stop-opacity:0"
         offset="1" />
    </linearGradient>
    <radialGradient
       r="5.0500002"
       cy="25.667999"
       cx="18.684999"
       gradientTransform="matrix(0.78972,0,0,0.77769,44.931,28.061)"
       gradientUnits="userSpaceOnUse"
       id="radialGradient3295-3"
       xlink:href="#linearGradient9598"
       inkscape:collect="always" />
    <linearGradient
       id="linearGradient6081">
      <stop
         id="stop6083"
         style="stop-color:#efaa29"
         offset="0" />
      <stop
         id="stop6085"
         style="stop-color:#ef2929;stop-opacity:0"
         offset="1" />
    </linearGradient>
    <linearGradient
       y2="138.66"
       x2="48"
       y1="20.221001"
       x1="48"
       gradientUnits="userSpaceOnUse"
       id="linearGradient3317"
       xlink:href="#linearGradient3737-68"
       inkscape:collect="always" />
    <linearGradient
       id="linearGradient3737-68">
      <stop
         id="stop3739-38"
         style="stop-color:#fff"
         offset="0" />
      <stop
         id="stop3741-33"
         style="stop-color:#fff;stop-opacity:0"
         offset="1" />
    </linearGradient>
    <clipPath
       id="clipPath3613-38">
      <rect
         id="rect3615-04"
         style="fill:#ffffff"
         rx="6"
         ry="6"
         height="84"
         width="84"
         y="6"
         x="6" />
    </clipPath>
    <filter
       id="filter3794-76"
       height="1.3839999"
       width="1.3839999"
       color-interpolation-filters="sRGB"
       y="-0.192"
       x="-0.192">
      <feGaussianBlur
         id="feGaussianBlur3796-8"
         stdDeviation="5.28" />
    </filter>
  </defs>
  <sodipodi:namedview
     id="base"
     pagecolor="#ffffff"
     bordercolor="#666666"
     borderopacity="1.0"
     inkscape:pageopacity="0.0"
     inkscape:pageshadow="2"
     inkscape:zoom="3.959798"
     inkscape:cx="28.389459"
     inkscape:cy="57.490015"
     inkscape:document-units="px"
     inkscape:current-layer="layer1"
     showgrid="false"
     inkscape:window-width="1280"
     inkscape:window-height="725"
     inkscape:window-x="0"
     inkscape:window-y="25"
     inkscape:window-maximized="1" />
  <metadata
     id="metadata7">
    <rdf:RDF>
      <cc:Work
         rdf:about="">
        <dc:format>image/svg+xml</dc:format>
        <dc:type
           rdf:resource="http://purl.org/dc/dcmitype/StillImage" />
        <dc:title></dc:title>
      </cc:Work>
    </rdf:RDF>
  </metadata>
  <g
     inkscape:label="Layer 1"
     inkscape:groupmode="layer"
     id="layer1"
     transform="translate(0,-956.36217)">
    <g
       transform="translate(-182.1875,-40.40626)"
       id="g5966">
      <rect
         transform="translate(182.1875,40.40624)"
         y="964.36218"
         x="8"
         height="80"
         width="80"
         id="rect9283"
         style="fill:#000000;fill-opacity:1;stroke:none;filter:url(#filter6279-2)"
         rx="5"
         ry="5" />
      <rect
         ry="5"
         rx="5"
         style="fill:url(#linearGradient5979);fill-opacity:1;stroke:none"
         id="rect9285"
         width="80"
         height="80"
         x="8"
         y="964.36218"
         transform="translate(182.1875,40.40625)" />
      <g
         id="g9718">
        <g
           transform="matrix(1.0578997,0,0,1.0578997,179.00682,994.09965)"
           id="g3170">
          <path
             id="rect4902"
             style="fill:#2e3436;stroke:#2e3436"
             d="M 28.877,41.594 H 67.26 V 55.085 H 28.877 V 41.594 z"
             inkscape:connector-curvature="0" />
          <path
             id="path4962"
             style="opacity:0.75;fill:url(#radialGradient3163)"
             d="m 57.36,47.946 c 0,5.061 -4.1662,9.1638 -9.3055,9.1638 -5.1393,0 -9.3055,-4.1028 -9.3055,-9.1638 0,-5.061 4.1662,-9.1638 9.3055,-9.1638 5.1393,0 9.3055,4.1028 9.3055,9.1638 z"
             inkscape:connector-curvature="0" />
          <path
             id="path4964"
             style="opacity:0.75;fill:url(#radialGradient3160)"
             d="m 54.701,48.023 c 0,3.615 -2.9759,6.5455 -6.6468,6.5455 -3.6709,0 -6.6468,-2.9305 -6.6468,-6.5455 0,-3.615 2.9759,-6.5455 6.6468,-6.5455 3.6709,0 6.6468,2.9305 6.6468,6.5455 z"
             inkscape:connector-curvature="0" />
          <path
             id="path4905"
             style="fill:url(#radialGradient3157)"
             d="m 45.728,47.946 c 0,5.061 -4.1662,9.1638 -9.3055,9.1638 -5.1393,0 -9.3055,-4.1028 -9.3055,-9.1638 0,-5.061 4.1662,-9.1638 9.3055,-9.1638 5.1393,0 9.3055,4.1028 9.3055,9.1638 z"
             inkscape:connector-curvature="0" />
          <path
             id="path4907"
             style="fill:url(#radialGradient3154)"
             d="m 43.069,48.023 c 0,3.615 -2.9759,6.5455 -6.6468,6.5455 -3.6709,0 -6.6468,-2.9305 -6.6468,-6.5455 0,-3.615 2.9759,-6.5455 6.6468,-6.5455 3.6709,0 6.6468,2.9305 6.6468,6.5455 z"
             inkscape:connector-curvature="0" />
          <path
             id="path1382"
             style="opacity:0.5;fill:url(#radialGradient3151)"
             d="m 68.992,47.946 c 0,5.061 -4.1662,9.1638 -9.3055,9.1638 -5.1393,0 -9.3055,-4.1028 -9.3055,-9.1638 0,-5.061 4.1662,-9.1638 9.3055,-9.1638 5.1393,0 9.3055,4.1028 9.3055,9.1638 z"
             inkscape:connector-curvature="0" />
          <path
             id="path1384"
             style="opacity:0.5;fill:url(#radialGradient3148)"
             d="m 66.333,48.023 c 0,3.615 -2.9759,6.5455 -6.6468,6.5455 -3.6709,0 -6.6468,-2.9305 -6.6468,-6.5455 0,-3.615 2.9759,-6.5455 6.6468,-6.5455 3.6709,0 6.6468,2.9305 6.6468,6.5455 z"
             inkscape:connector-curvature="0" />
          <path
             id="path2216"
             style="fill:url(#radialGradient3145);fill-rule:evenodd;stroke:#2e3436;stroke-width:1px"
             d="M 48.018,24.5 C 36.25,24.5 26.449,32.895 24.5,43.937 h 47 C 69.55,32.896 59.785,24.5 48.018,24.5 z M 24.536,52.063 C 26.502,63.085 36.265,71.5 48.018,71.5 59.773,71.5 69.535,63.087 71.5,52.063 H 24.536 z"
             inkscape:connector-curvature="0" />
          <path
             id="path3113"
             style="fill:none;stroke:url(#linearGradient3142);stroke-width:1px"
             d="m 48.018,25.645 c -10.731,0 -19.716,7.3879 -22.064,17.254 H 70.082 C 67.734,33.033 58.749,25.645 48.018,25.645 z M 25.954,53.101 c 2.3487,9.8657 11.333,17.218 22.064,17.218 10.731,0 19.716,-7.3521 22.064,-17.218 H 25.954 z"
             inkscape:connector-curvature="0" />
          <path
             id="path4053"
             style="opacity:0.3;fill:url(#radialGradient3139)"
             d="m 49,48.023 c 0,6.8405 -5.6311,12.386 -12.577,12.386 -6.9463,0 -12.577,-5.5453 -12.577,-12.386 0,-6.8405 5.6311,-12.386 12.577,-12.386 6.946,0 12.577,5.545 12.577,12.386 z"
             inkscape:connector-curvature="0" />
          <path
             id="path4063"
             style="opacity:0.3;fill:url(#radialGradient3136)"
             d="m 61,48.023 c 0,6.8405 -5.6311,12.386 -12.577,12.386 -6.9463,0 -12.577,-5.5453 -12.577,-12.386 0,-6.8405 5.6311,-12.386 12.577,-12.386 6.946,0 12.577,5.545 12.577,12.386 z"
             inkscape:connector-curvature="0" />
          <path
             id="path4067"
             style="opacity:0.3;fill:url(#radialGradient3133)"
             d="m 73,48.023 c 0,6.8405 -5.6311,12.386 -12.577,12.386 -6.9463,0 -12.577,-5.5453 -12.577,-12.386 0,-6.8405 5.6311,-12.386 12.577,-12.386 6.946,0 12.577,5.545 12.577,12.386 z"
             inkscape:connector-curvature="0" />
          <path
             id="path4966"
             style="opacity:0.75;fill:url(#radialGradient3130)"
             d="m 52.043,48.023 c 0,2.169 -1.7855,3.9273 -3.9881,3.9273 -2.2025,0 -3.9881,-1.7583 -3.9881,-3.9273 0,-2.169 1.7855,-3.9273 3.9881,-3.9273 2.2025,0 3.9881,1.7583 3.9881,3.9273 z"
             inkscape:connector-curvature="0" />
          <path
             id="path4909"
             style="fill:url(#radialGradient3127)"
             d="m 40.411,48.023 c 0,2.169 -1.7855,3.9273 -3.9881,3.9273 -2.2025,0 -3.9881,-1.7583 -3.9881,-3.9273 0,-2.169 1.7855,-3.9273 3.9881,-3.9273 2.2025,0 3.9881,1.7583 3.9881,3.9273 z"
             inkscape:connector-curvature="0" />
          <path
             id="path1386"
             style="opacity:0.5;fill:url(#radialGradient3295-3)"
             d="m 63.674,48.023 c 0,2.169 -1.7855,3.9273 -3.9881,3.9273 -2.2025,0 -3.9881,-1.7583 -3.9881,-3.9273 0,-2.169 1.7855,-3.9273 3.9881,-3.9273 2.2025,0 3.9881,1.7583 3.9881,3.9273 z"
             inkscape:connector-curvature="0" />
        </g>
        <g
           transform="translate(182.1875,996.76843)"
           id="layer5">
          <rect
             id="rect3171"
             style="opacity:0.1;fill:url(#linearGradient3317);stroke:#ffffff;stroke-width:0.5;stroke-linecap:round;filter:url(#filter3794-76)"
             clip-path="url(#clipPath3613-38)"
             rx="12"
             ry="12"
             height="66"
             width="66"
             y="15"
             x="15" />
        </g>
      </g>
    </g>
  </g>
</svg>
