<?xml version="1.0" encoding="UTF-8" standalone="no"?>
<!-- Created with Inkscape (http://www.inkscape.org/) -->

<svg
   xmlns:dc="http://purl.org/dc/elements/1.1/"
   xmlns:cc="http://creativecommons.org/ns#"
   xmlns:rdf="http://www.w3.org/1999/02/22-rdf-syntax-ns#"
   xmlns:svg="http://www.w3.org/2000/svg"
   xmlns="http://www.w3.org/2000/svg"
   xmlns:xlink="http://www.w3.org/1999/xlink"
   xmlns:sodipodi="http://sodipodi.sourceforge.net/DTD/sodipodi-0.dtd"
   xmlns:inkscape="http://www.inkscape.org/namespaces/inkscape"
   width="96"
   height="96"
   id="svg2"
   version="1.1"
   inkscape:version="0.48.1 r9760"
   sodipodi:docname="gnome-iagno.svg">
  <defs
     id="defs4">
    <filter
       color-interpolation-filters="sRGB"
       inkscape:collect="always"
       id="filter6279-2">
      <feGaussianBlur
         inkscape:collect="always"
         stdDeviation="0.8"
         id="feGaussianBlur6281-1" />
    </filter>
    <linearGradient
       inkscape:collect="always"
       xlink:href="#linearGradient3617-8"
       id="linearGradient5979"
       gradientUnits="userSpaceOnUse"
       gradientTransform="translate(0,-7.8515622e-6)"
       x1="48"
       y1="1052.3622"
       x2="48"
       y2="902.36218" />
    <linearGradient
       id="linearGradient3617-8"
       y2="5.9877"
       gradientUnits="userSpaceOnUse"
       x2="48"
       y1="90"
       x1="48"
       gradientTransform="translate(6.1060071,0)">
      <stop
         id="stop3702-31"
         style="stop-color:#167c33"
         offset="0" />
      <stop
         id="stop3704-89"
         style="stop-color:#2da14e"
         offset="1" />
    </linearGradient>
    <radialGradient
       inkscape:collect="always"
       xlink:href="#linearGradient3673"
       id="radialGradient3092"
       gradientUnits="userSpaceOnUse"
       gradientTransform="matrix(1.1875,0,0,-1.125,-8,65.25)"
       cx="32"
       cy="26"
       r="16" />
    <linearGradient
       id="linearGradient3673">
      <stop
         id="stop3675"
         style="stop-color:#fff"
         offset="0" />
      <stop
         id="stop3716"
         style="stop-color:#f2f2f2"
         offset=".73438" />
      <stop
         id="stop3677"
         style="stop-color:#e5e5e5"
         offset="1" />
    </linearGradient>
    <radialGradient
       inkscape:collect="always"
       xlink:href="#linearGradient3754-5"
       id="radialGradient3089"
       gradientUnits="userSpaceOnUse"
       gradientTransform="matrix(1.1875,0,0,1.125,28,-7)"
       cx="32"
       cy="40"
       r="16" />
    <linearGradient
       id="linearGradient3754-5">
      <stop
         id="stop3756-0"
         style="stop-color:#393939"
         offset="0" />
      <stop
         id="stop3762"
         style="stop-color:#282828"
         offset=".65625" />
      <stop
         id="stop3758-2"
         style="stop-color:#161616"
         offset="1" />
    </linearGradient>
    <linearGradient
       inkscape:collect="always"
       xlink:href="#linearGradient3781-9"
       id="linearGradient3086"
       gradientUnits="userSpaceOnUse"
       x1="61"
       y1="15"
       x2="67.296997"
       y2="38.501999" />
    <linearGradient
       id="linearGradient3781-9">
      <stop
         id="stop3783-4"
         style="stop-color:#fff"
         offset="0" />
      <stop
         id="stop3785"
         style="stop-color:#fff;stop-opacity:0"
         offset="1" />
    </linearGradient>
    <linearGradient
       inkscape:collect="always"
       xlink:href="#linearGradient3781-9"
       id="linearGradient3083-3"
       gradientUnits="userSpaceOnUse"
       gradientTransform="translate(-36,0)"
       x1="61"
       y1="15"
       x2="67.296997"
       y2="38.501999" />
    <linearGradient
       id="linearGradient5966">
      <stop
         id="stop5968"
         style="stop-color:#fff"
         offset="0" />
      <stop
         id="stop5970"
         style="stop-color:#fff;stop-opacity:0"
         offset="1" />
    </linearGradient>
    <radialGradient
       id="radialGradient3679"
       xlink:href="#linearGradient3673"
       gradientUnits="userSpaceOnUse"
       cy="26"
       cx="32"
       gradientTransform="matrix(1.1875,0,0,1.125,-6,-3.25)"
       r="16" />
    <linearGradient
       id="linearGradient5973">
      <stop
         id="stop5975"
         style="stop-color:#fff"
         offset="0" />
      <stop
         id="stop5977"
         style="stop-color:#f2f2f2"
         offset=".73438" />
      <stop
         id="stop5979"
         style="stop-color:#e5e5e5"
         offset="1" />
    </linearGradient>
    <linearGradient
       id="linearGradient3836-1"
       y2="38.501999"
       xlink:href="#linearGradient3781-9"
       gradientUnits="userSpaceOnUse"
       x2="67.296997"
       gradientTransform="translate(-36,36)"
       y1="15"
       x1="61" />
    <linearGradient
       id="linearGradient5982">
      <stop
         id="stop5984"
         style="stop-color:#fff"
         offset="0" />
      <stop
         id="stop5986"
         style="stop-color:#fff;stop-opacity:0"
         offset="1" />
    </linearGradient>
    <radialGradient
       id="radialGradient3760"
       xlink:href="#linearGradient3754-5"
       gradientUnits="userSpaceOnUse"
       cy="40"
       cx="32"
       gradientTransform="matrix(1.1875,0,0,1.125,-6,-5)"
       r="16" />
    <linearGradient
       id="linearGradient5989">
      <stop
         id="stop5991"
         style="stop-color:#393939"
         offset="0" />
      <stop
         id="stop5993"
         style="stop-color:#282828"
         offset=".65625" />
      <stop
         id="stop5995"
         style="stop-color:#161616"
         offset="1" />
    </linearGradient>
    <linearGradient
       id="linearGradient3840"
       y2="38.501999"
       xlink:href="#linearGradient3781-9"
       gradientUnits="userSpaceOnUse"
       x2="67.296997"
       gradientTransform="translate(0,36)"
       y1="15"
       x1="61" />
    <linearGradient
       id="linearGradient5998">
      <stop
         id="stop6000"
         style="stop-color:#fff"
         offset="0" />
      <stop
         id="stop6002"
         style="stop-color:#fff;stop-opacity:0"
         offset="1" />
    </linearGradient>
    <linearGradient
       y2="138.66"
       x2="48"
       y1="20.221001"
       x1="48"
       gradientUnits="userSpaceOnUse"
       id="linearGradient3212"
       xlink:href="#linearGradient3781-8"
       inkscape:collect="always" />
    <linearGradient
       id="linearGradient3781-8">
      <stop
         id="stop3783-3"
         style="stop-color:#fff"
         offset="0" />
      <stop
         id="stop3785-0"
         style="stop-color:#fff;stop-opacity:0"
         offset="1" />
    </linearGradient>
    <clipPath
       id="clipPath3613-17">
      <rect
         id="rect3615-8"
         style="fill:#ffffff"
         rx="6"
         ry="6"
         height="84"
         width="84"
         y="6"
         x="6" />
    </clipPath>
    <filter
       id="filter3794-91"
       height="1.3839999"
       width="1.3839999"
       color-interpolation-filters="sRGB"
       y="-0.192"
       x="-0.192">
      <feGaussianBlur
         id="feGaussianBlur3796-549"
         stdDeviation="5.28" />
    </filter>
  </defs>
  <sodipodi:namedview
     id="base"
     pagecolor="#ffffff"
     bordercolor="#666666"
     borderopacity="1.0"
     inkscape:pageopacity="0.0"
     inkscape:pageshadow="2"
     inkscape:zoom="3.959798"
     inkscape:cx="28.389459"
     inkscape:cy="57.490015"
     inkscape:document-units="px"
     inkscape:current-layer="layer1"
     showgrid="false"
     inkscape:window-width="1280"
     inkscape:window-height="725"
     inkscape:window-x="0"
     inkscape:window-y="25"
     inkscape:window-maximized="1" />
  <metadata
     id="metadata7">
    <rdf:RDF>
      <cc:Work
         rdf:about="">
        <dc:format>image/svg+xml</dc:format>
        <dc:type
           rdf:resource="http://purl.org/dc/dcmitype/StillImage" />
        <dc:title></dc:title>
      </cc:Work>
    </rdf:RDF>
  </metadata>
  <g
     inkscape:label="Layer 1"
     inkscape:groupmode="layer"
     id="layer1"
     transform="translate(0,-956.36217)">
    <g
       transform="translate(-182.1875,-40.40626)"
       id="g5913">
      <rect
         transform="translate(182.1875,40.40624)"
         y="964.36218"
         x="8"
         height="80"
         width="80"
         id="rect9283"
         style="fill:#000000;fill-opacity:1;stroke:none;filter:url(#filter6279-2)"
         rx="5"
         ry="5" />
      <rect
         ry="5"
         rx="5"
         style="fill:url(#linearGradient5979);fill-opacity:1;stroke:none"
         id="rect9285"
         width="80"
         height="80"
         x="8"
         y="964.36218"
         transform="translate(182.1875,40.40625)" />
      <g
         id="g9541">
        <g
           transform="matrix(0.80882353,0,0,0.80882353,191.36397,1005.9449)"
           id="g3098">
          <path
             id="path3663"
             style="color:#000000;fill:url(#radialGradient3092)"
             d="m 46,30 a 16,16 0 1 0 -32,0 16,16 0 0 0 32,0 z"
             inkscape:connector-curvature="0" />
          <path
             id="path3667"
             style="color:#000000;fill:url(#radialGradient3089)"
             d="m 82,30 a 16,16 0 0 1 -32,0 16,16 0 1 1 32,0 z"
             inkscape:connector-curvature="0" />
          <path
             id="path3764"
             style="opacity:0.2;color:#000000;fill:url(#linearGradient3086)"
             d="m 66,15 c -8.2843,0 -15,6.7157 -15,15 0,3.6087 1.283,6.912 3.4062,9.5 -1.525,-2.296 -2.406,-5.038 -2.406,-8 0,-8.008 6.492,-14.5 14.5,-14.5 7.753,0 14.073,6.096 14.469,13.75 0.012,-0.251 0.031,-0.496 0.031,-0.75 0,-8.284 -6.716,-15 -15,-15 z"
             inkscape:connector-curvature="0" />
          <path
             id="path3789"
             style="color:#000000;fill:url(#linearGradient3083-3)"
             d="m 30,15 c -8.2843,0 -15,6.7157 -15,15 0,3.6087 1.283,6.912 3.4062,9.5 -1.525,-2.296 -2.406,-5.038 -2.406,-8 0,-8.008 6.492,-14.5 14.5,-14.5 7.753,0 14.073,6.096 14.469,13.75 0.012,-0.251 0.031,-0.496 0.031,-0.75 0,-8.284 -6.716,-15 -15,-15 z"
             inkscape:connector-curvature="0" />
          <path
             id="path3795"
             style="opacity:0.1;color:#000000"
             d="m 30,14 c -8.8366,0 -16,7.1634 -16,16 0,8.8366 7.1634,16 16,16 8.8366,0 16,-7.1634 16,-16 0,-8.8366 -7.1634,-16 -16,-16 z m 0,0.96875 c 8.3201,0 15.031,6.7111 15.031,15.031 0,8.3201 -6.7111,15.031 -15.031,15.031 -8.3201,0 -15.031,-6.7111 -15.031,-15.031 0,-8.3201 6.7111,-15.031 15.031,-15.031 z"
             inkscape:connector-curvature="0" />
          <path
             id="path3802"
             style="opacity:0.2;color:#000000"
             d="m 66,14 c -8.8366,0 -16,7.1634 -16,16 0,8.8366 7.1634,16 16,16 8.8366,0 16,-7.1634 16,-16 0,-8.8366 -7.1634,-16 -16,-16 z m 0,0.96875 c 8.3201,0 15.031,6.7111 15.031,15.031 0,8.3201 -6.7111,15.031 -15.031,15.031 -8.3201,0 -15.031,-6.7111 -15.031,-15.031 0,-8.3201 6.7111,-15.031 15.031,-15.031 z"
             inkscape:connector-curvature="0" />
          <g
             id="g3829"
             transform="translate(36,0)">
            <path
               id="path3804"
               style="color:#000000;fill:url(#radialGradient3679)"
               d="m 48,32 a 16,16 0 1 1 -32,0 16,16 0 1 1 32,0 z"
               transform="matrix(1,0,0,-1,-2,98)"
               inkscape:connector-curvature="0" />
            <path
               id="path3810"
               style="color:#000000;fill:url(#linearGradient3836-1)"
               d="m 30,51 c -8.2843,0 -15,6.7157 -15,15 0,3.6087 1.283,6.912 3.4062,9.5 -1.525,-2.296 -2.406,-5.038 -2.406,-8 0,-8.008 6.492,-14.5 14.5,-14.5 7.753,0 14.073,6.096 14.469,13.75 0.012,-0.251 0.031,-0.496 0.031,-0.75 0,-8.284 -6.716,-15 -15,-15 z"
               inkscape:connector-curvature="0" />
            <path
               id="path3812"
               style="opacity:0.1;color:#000000"
               d="m 30,50 c -8.8366,0 -16,7.1634 -16,16 0,8.8366 7.1634,16 16,16 8.8366,0 16,-7.1634 16,-16 0,-8.8366 -7.1634,-16 -16,-16 z m 0,0.96875 c 8.3201,0 15.031,6.7111 15.031,15.031 0,8.3201 -6.7111,15.031 -15.031,15.031 -8.3201,0 -15.031,-6.7111 -15.031,-15.031 0,-8.3201 6.7111,-15.031 15.031,-15.031 z"
               inkscape:connector-curvature="0" />
          </g>
          <g
             id="g3824"
             transform="translate(-36,0)">
            <path
               id="path3806"
               style="color:#000000;fill:url(#radialGradient3760)"
               d="m 48,32 a 16,16 0 1 1 -32,0 16,16 0 1 1 32,0 z"
               transform="translate(34,34)"
               inkscape:connector-curvature="0" />
            <path
               id="path3808"
               style="opacity:0.2;color:#000000;fill:url(#linearGradient3840)"
               d="m 66,51 c -8.2843,0 -15,6.7157 -15,15 0,3.6087 1.283,6.912 3.4062,9.5 -1.525,-2.296 -2.406,-5.038 -2.406,-8 0,-8.008 6.492,-14.5 14.5,-14.5 7.753,0 14.073,6.096 14.469,13.75 0.012,-0.251 0.031,-0.496 0.031,-0.75 0,-8.284 -6.716,-15 -15,-15 z"
               inkscape:connector-curvature="0" />
            <path
               id="path3814"
               style="opacity:0.2;color:#000000"
               d="m 66,50 c -8.8366,0 -16,7.1634 -16,16 0,8.8366 7.1634,16 16,16 8.8366,0 16,-7.1634 16,-16 0,-8.8366 -7.1634,-16 -16,-16 z m 0,0.96875 c 8.3201,0 15.031,6.7111 15.031,15.031 0,8.3201 -6.7111,15.031 -15.031,15.031 -8.3201,0 -15.031,-6.7111 -15.031,-15.031 0,-8.3201 6.7111,-15.031 15.031,-15.031 z"
               inkscape:connector-curvature="0" />
          </g>
        </g>
        <g
           transform="translate(182.1875,996.76843)"
           id="layer5">
          <rect
             id="rect3171"
             style="opacity:0.1;fill:url(#linearGradient3212);stroke:#ffffff;stroke-width:0.5;stroke-linecap:round;filter:url(#filter3794-91)"
             clip-path="url(#clipPath3613-17)"
             rx="12"
             ry="12"
             height="66"
             width="66"
             y="15"
             x="15" />
        </g>
      </g>
    </g>
  </g>
</svg>
