<?xml version="1.0" encoding="UTF-8" standalone="no"?>
<!-- Created with Inkscape (http://www.inkscape.org/) -->

<svg
   xmlns:dc="http://purl.org/dc/elements/1.1/"
   xmlns:cc="http://creativecommons.org/ns#"
   xmlns:rdf="http://www.w3.org/1999/02/22-rdf-syntax-ns#"
   xmlns:svg="http://www.w3.org/2000/svg"
   xmlns="http://www.w3.org/2000/svg"
   xmlns:xlink="http://www.w3.org/1999/xlink"
   xmlns:sodipodi="http://sodipodi.sourceforge.net/DTD/sodipodi-0.dtd"
   xmlns:inkscape="http://www.inkscape.org/namespaces/inkscape"
   width="96"
   height="96"
   id="svg2982"
   version="1.1"
   inkscape:version="0.48.1 r9760"
   sodipodi:docname="gnome-session-hibernate.svg">
  <defs
     id="defs2984">
    <filter
       color-interpolation-filters="sRGB"
       inkscape:collect="always"
       id="filter6279">
      <feGaussianBlur
         inkscape:collect="always"
         stdDeviation="0.8"
         id="feGaussianBlur6281" />
    </filter>
    <linearGradient
       y2="902.36218"
       x2="48"
       y1="1052.3622"
       x1="48"
       gradientTransform="translate(0,-9.6171873e-6)"
       gradientUnits="userSpaceOnUse"
       id="linearGradient6043-8"
       xlink:href="#linearGradient3578-995-735-4-566-885-385-488-812-692-100-298-982-943-4"
       inkscape:collect="always" />
    <linearGradient
       id="linearGradient3578-995-735-4-566-885-385-488-812-692-100-298-982-943-4">
      <stop
         id="stop4639-6"
         style="stop-color:#115984;stop-opacity:1"
         offset="0" />
      <stop
         id="stop4641-2"
         style="stop-color:#5498c5;stop-opacity:1"
         offset="1" />
    </linearGradient>
  </defs>
  <sodipodi:namedview
     id="base"
     pagecolor="#ffffff"
     bordercolor="#666666"
     borderopacity="1.0"
     inkscape:pageopacity="0.0"
     inkscape:pageshadow="2"
     inkscape:zoom="3.959798"
     inkscape:cx="36.39115"
     inkscape:cy="42.877139"
     inkscape:document-units="px"
     inkscape:current-layer="layer1"
     showgrid="false"
     inkscape:window-width="1280"
     inkscape:window-height="725"
     inkscape:window-x="0"
     inkscape:window-y="25"
     inkscape:window-maximized="1" />
  <metadata
     id="metadata2987">
    <rdf:RDF>
      <cc:Work
         rdf:about="">
        <dc:format>image/svg+xml</dc:format>
        <dc:type
           rdf:resource="http://purl.org/dc/dcmitype/StillImage" />
        <dc:title></dc:title>
      </cc:Work>
    </rdf:RDF>
  </metadata>
  <g
     inkscape:label="Layer 1"
     inkscape:groupmode="layer"
     id="layer1"
     transform="translate(0,-956.36218)">
    <g
       id="g21752">
      <g
         id="g26594"
         transform="translate(-182.1875,-40.40625)" />
      <rect
         ry="5"
         rx="5"
         style="fill:#000000;fill-opacity:1;stroke:none;filter:url(#filter6279)"
         id="rect9283"
         width="80"
         height="80"
         x="8"
         y="964.36218" />
      <rect
         y="964.36218"
         x="8"
         height="80"
         width="80"
         id="rect9285"
         style="fill:#ffffff;fill-opacity:1;stroke:none"
         rx="5"
         ry="5" />
      <rect
         ry="5"
         rx="5"
         style="fill:url(#linearGradient6043-8);fill-opacity:1;stroke:none"
         id="rect9285-9"
         width="80"
         height="80"
         x="8"
         y="964.36218" />
      <path
         style="color:#000000;fill:#ffffff;fill-opacity:1;stroke:none;stroke-width:6;marker:none;visibility:visible;display:inline;overflow:visible;enable-background:accumulate"
         id="path3174"
         inkscape:connector-curvature="0"
         d="m 48,978.90115 c -1.764521,0 -3.185057,1.42054 -3.185057,3.18505 l 0,16.77128 -14.531819,-8.38561 c -1.52812,-0.88226 -3.472308,-0.3586 -4.354569,1.1695 -0.88226,1.52812 -0.358608,3.47233 1.169513,4.35457 l 14.531819,8.38586 -14.531819,8.3856 c -1.528121,0.8822 -2.051773,2.8264 -1.169513,4.3545 0.882261,1.5282 2.826448,2.0518 4.354569,1.1696 l 14.531819,-8.3857 0,16.7713 c 0,1.7645 1.420536,3.1851 3.185057,3.1851 1.764521,0 3.185056,-1.4206 3.185056,-3.1851 l 0,-16.7713 14.531819,8.3857 c 1.52812,0.8822 3.47231,0.3586 4.354571,-1.1696 0.882259,-1.5281 0.358607,-3.4723 -1.169514,-4.3545 l -14.531819,-8.3856 14.531819,-8.38586 c 1.52812,-0.88224 2.051773,-2.82645 1.169514,-4.35457 -0.882261,-1.5281 -2.82645,-2.05176 -4.354571,-1.1695 l -14.531819,8.38561 0,-16.77128 c 0,-1.76451 -1.420534,-3.18505 -3.185056,-3.18505 z" />
    </g>
  </g>
</svg>
