<?xml version="1.0" encoding="UTF-8" standalone="no"?>
<!-- Created with Inkscape (http://www.inkscape.org/) -->

<svg
   xmlns:dc="http://purl.org/dc/elements/1.1/"
   xmlns:cc="http://creativecommons.org/ns#"
   xmlns:rdf="http://www.w3.org/1999/02/22-rdf-syntax-ns#"
   xmlns:svg="http://www.w3.org/2000/svg"
   xmlns="http://www.w3.org/2000/svg"
   xmlns:xlink="http://www.w3.org/1999/xlink"
   xmlns:sodipodi="http://sodipodi.sourceforge.net/DTD/sodipodi-0.dtd"
   xmlns:inkscape="http://www.inkscape.org/namespaces/inkscape"
   width="96"
   height="96"
   id="svg2"
   version="1.1"
   inkscape:version="0.48.1 r9760"
   sodipodi:docname="gnome-gnect.svg">
  <defs
     id="defs4">
    <filter
       color-interpolation-filters="sRGB"
       inkscape:collect="always"
       id="filter6279-2">
      <feGaussianBlur
         inkscape:collect="always"
         stdDeviation="0.8"
         id="feGaussianBlur6281-1" />
    </filter>
    <linearGradient
       inkscape:collect="always"
       xlink:href="#linearGradient3617-33"
       id="linearGradient5979"
       gradientUnits="userSpaceOnUse"
       gradientTransform="translate(0,-7.8515622e-6)"
       x1="48"
       y1="1052.3622"
       x2="48"
       y2="902.36218" />
    <linearGradient
       id="linearGradient3617-33"
       y2="5.9877"
       gradientUnits="userSpaceOnUse"
       x2="48"
       y1="90"
       x1="48"
       gradientTransform="translate(9.9999995,0)">
      <stop
         id="stop3702-3-3"
         style="stop-color:#2f2f2f"
         offset="0" />
      <stop
         id="stop3704-9"
         style="stop-color:#4f4f4f"
         offset="1" />
    </linearGradient>
    <radialGradient
       r="16"
       cy="40"
       cx="32"
       gradientTransform="matrix(1.1875,0,0,1.125,-6,-5)"
       gradientUnits="userSpaceOnUse"
       id="radialGradient3418"
       xlink:href="#linearGradient3957"
       inkscape:collect="always" />
    <linearGradient
       id="linearGradient3957">
      <stop
         id="stop3959-0"
         style="stop-color:#f14848"
         offset="0" />
      <stop
         id="stop3965"
         style="stop-color:#e42323"
         offset=".67188" />
      <stop
         id="stop3963"
         style="stop-color:#c21313"
         offset="1" />
    </linearGradient>
    <linearGradient
       y2="78"
       x2="77"
       y1="71"
       x1="70"
       gradientUnits="userSpaceOnUse"
       id="linearGradient3420-0"
       xlink:href="#linearGradient3895-0"
       inkscape:collect="always" />
    <linearGradient
       id="linearGradient3895-0">
      <stop
         id="stop3897-4"
         style="stop-color:#fff"
         offset="0" />
      <stop
         id="stop3899-6"
         style="stop-color:#fff;stop-opacity:0"
         offset="1" />
    </linearGradient>
    <radialGradient
       r="16"
       cy="40"
       cx="32"
       gradientTransform="matrix(1.1875,0,0,1.125,-6,-5)"
       gradientUnits="userSpaceOnUse"
       id="radialGradient3422"
       xlink:href="#linearGradient3957"
       inkscape:collect="always" />
    <linearGradient
       id="linearGradient6253">
      <stop
         id="stop6255"
         style="stop-color:#f14848"
         offset="0" />
      <stop
         id="stop6257"
         style="stop-color:#e42323"
         offset=".67188" />
      <stop
         id="stop6259"
         style="stop-color:#c21313"
         offset="1" />
    </linearGradient>
    <linearGradient
       y2="78"
       x2="77"
       y1="71"
       x1="70"
       gradientUnits="userSpaceOnUse"
       id="linearGradient3424-4"
       xlink:href="#linearGradient3895-0"
       inkscape:collect="always" />
    <linearGradient
       id="linearGradient6262">
      <stop
         id="stop6264"
         style="stop-color:#fff"
         offset="0" />
      <stop
         id="stop6266"
         style="stop-color:#fff;stop-opacity:0"
         offset="1" />
    </linearGradient>
    <radialGradient
       r="16"
       cy="40"
       cx="32"
       gradientTransform="matrix(1.1875,0,0,1.125,-6,-5)"
       gradientUnits="userSpaceOnUse"
       id="radialGradient3426"
       xlink:href="#linearGradient3957"
       inkscape:collect="always" />
    <linearGradient
       id="linearGradient6269">
      <stop
         id="stop6271"
         style="stop-color:#f14848"
         offset="0" />
      <stop
         id="stop6273"
         style="stop-color:#e42323"
         offset=".67188" />
      <stop
         id="stop6275"
         style="stop-color:#c21313"
         offset="1" />
    </linearGradient>
    <linearGradient
       y2="78"
       x2="77"
       y1="71"
       x1="70"
       gradientUnits="userSpaceOnUse"
       id="linearGradient3428"
       xlink:href="#linearGradient3895-0"
       inkscape:collect="always" />
    <linearGradient
       id="linearGradient6278">
      <stop
         id="stop6280"
         style="stop-color:#fff"
         offset="0" />
      <stop
         id="stop6282"
         style="stop-color:#fff;stop-opacity:0"
         offset="1" />
    </linearGradient>
    <radialGradient
       r="16"
       cy="40"
       cx="32"
       gradientTransform="matrix(1.1875,0,0,1.125,-6,-5)"
       gradientUnits="userSpaceOnUse"
       id="radialGradient3430-2"
       xlink:href="#linearGradient3957"
       inkscape:collect="always" />
    <linearGradient
       id="linearGradient6285">
      <stop
         id="stop6287"
         style="stop-color:#f14848"
         offset="0" />
      <stop
         id="stop6289"
         style="stop-color:#e42323"
         offset=".67188" />
      <stop
         id="stop6291"
         style="stop-color:#c21313"
         offset="1" />
    </linearGradient>
    <linearGradient
       y2="78"
       x2="77"
       y1="71"
       x1="70"
       gradientUnits="userSpaceOnUse"
       id="linearGradient3432"
       xlink:href="#linearGradient3895-0"
       inkscape:collect="always" />
    <linearGradient
       id="linearGradient6294">
      <stop
         id="stop6296"
         style="stop-color:#fff"
         offset="0" />
      <stop
         id="stop6298"
         style="stop-color:#fff;stop-opacity:0"
         offset="1" />
    </linearGradient>
    <radialGradient
       r="16"
       cy="40"
       cx="32"
       gradientTransform="matrix(1.1875,0,0,1.125,-6,-5)"
       gradientUnits="userSpaceOnUse"
       id="radialGradient3434"
       xlink:href="#linearGradient3957"
       inkscape:collect="always" />
    <linearGradient
       id="linearGradient6301">
      <stop
         id="stop6303"
         style="stop-color:#f14848"
         offset="0" />
      <stop
         id="stop6305"
         style="stop-color:#e42323"
         offset=".67188" />
      <stop
         id="stop6307"
         style="stop-color:#c21313"
         offset="1" />
    </linearGradient>
    <linearGradient
       y2="78"
       x2="77"
       y1="71"
       x1="70"
       gradientUnits="userSpaceOnUse"
       id="linearGradient3436"
       xlink:href="#linearGradient3895-0"
       inkscape:collect="always" />
    <linearGradient
       id="linearGradient6310">
      <stop
         id="stop6312"
         style="stop-color:#fff"
         offset="0" />
      <stop
         id="stop6314"
         style="stop-color:#fff;stop-opacity:0"
         offset="1" />
    </linearGradient>
    <radialGradient
       r="16"
       cy="40"
       cx="32"
       gradientTransform="matrix(1.1875,0,0,1.125,-6,-5)"
       gradientUnits="userSpaceOnUse"
       id="radialGradient3438"
       xlink:href="#linearGradient3957"
       inkscape:collect="always" />
    <linearGradient
       id="linearGradient6317">
      <stop
         id="stop6319"
         style="stop-color:#f14848"
         offset="0" />
      <stop
         id="stop6321"
         style="stop-color:#e42323"
         offset=".67188" />
      <stop
         id="stop6323"
         style="stop-color:#c21313"
         offset="1" />
    </linearGradient>
    <linearGradient
       y2="78"
       x2="77"
       y1="71"
       x1="70"
       gradientUnits="userSpaceOnUse"
       id="linearGradient3440-2"
       xlink:href="#linearGradient3895-0"
       inkscape:collect="always" />
    <linearGradient
       id="linearGradient6326">
      <stop
         id="stop6328"
         style="stop-color:#fff"
         offset="0" />
      <stop
         id="stop6330"
         style="stop-color:#fff;stop-opacity:0"
         offset="1" />
    </linearGradient>
    <radialGradient
       id="radialGradient3984"
       xlink:href="#linearGradient3957"
       gradientUnits="userSpaceOnUse"
       cy="40"
       cx="32"
       gradientTransform="matrix(1.1875,0,0,1.125,-6,-5)"
       r="16" />
    <linearGradient
       id="linearGradient6333">
      <stop
         id="stop6335"
         style="stop-color:#f14848"
         offset="0" />
      <stop
         id="stop6337"
         style="stop-color:#e42323"
         offset=".67188" />
      <stop
         id="stop6339"
         style="stop-color:#c21313"
         offset="1" />
    </linearGradient>
    <linearGradient
       y2="78"
       x2="77"
       y1="71"
       x1="70"
       gradientUnits="userSpaceOnUse"
       id="linearGradient3442-2"
       xlink:href="#linearGradient3895-0"
       inkscape:collect="always" />
    <linearGradient
       id="linearGradient6342">
      <stop
         id="stop6344"
         style="stop-color:#fff"
         offset="0" />
      <stop
         id="stop6346"
         style="stop-color:#fff;stop-opacity:0"
         offset="1" />
    </linearGradient>
    <radialGradient
       r="16"
       cy="40"
       cx="32"
       gradientTransform="matrix(1.1875,0,0,1.125,-6,-5)"
       gradientUnits="userSpaceOnUse"
       id="radialGradient3444"
       xlink:href="#linearGradient4035"
       inkscape:collect="always" />
    <linearGradient
       id="linearGradient4035">
      <stop
         id="stop4037-9"
         style="stop-color:#8cd73e"
         offset="0" />
      <stop
         id="stop4039-9"
         style="stop-color:#5db22b"
         offset=".71875" />
      <stop
         id="stop4041-1"
         style="stop-color:#379b26"
         offset="1" />
    </linearGradient>
    <linearGradient
       y2="78"
       x2="77"
       y1="71"
       x1="70"
       gradientUnits="userSpaceOnUse"
       id="linearGradient3446"
       xlink:href="#linearGradient3895-0"
       inkscape:collect="always" />
    <linearGradient
       id="linearGradient6354">
      <stop
         id="stop6356"
         style="stop-color:#fff"
         offset="0" />
      <stop
         id="stop6358"
         style="stop-color:#fff;stop-opacity:0"
         offset="1" />
    </linearGradient>
    <radialGradient
       r="16"
       cy="40"
       cx="32"
       gradientTransform="matrix(1.1875,0,0,1.125,-6,-5)"
       gradientUnits="userSpaceOnUse"
       id="radialGradient3448-0"
       xlink:href="#linearGradient4035"
       inkscape:collect="always" />
    <linearGradient
       id="linearGradient6361">
      <stop
         id="stop6363"
         style="stop-color:#8cd73e"
         offset="0" />
      <stop
         id="stop6365"
         style="stop-color:#5db22b"
         offset=".71875" />
      <stop
         id="stop6367"
         style="stop-color:#379b26"
         offset="1" />
    </linearGradient>
    <linearGradient
       y2="78"
       x2="77"
       y1="71"
       x1="70"
       gradientUnits="userSpaceOnUse"
       id="linearGradient3450-5"
       xlink:href="#linearGradient3895-0"
       inkscape:collect="always" />
    <linearGradient
       id="linearGradient6370">
      <stop
         id="stop6372"
         style="stop-color:#fff"
         offset="0" />
      <stop
         id="stop6374"
         style="stop-color:#fff;stop-opacity:0"
         offset="1" />
    </linearGradient>
    <radialGradient
       r="16"
       cy="40"
       cx="32"
       gradientTransform="matrix(1.1875,0,0,1.125,-6,-5)"
       gradientUnits="userSpaceOnUse"
       id="radialGradient3452"
       xlink:href="#linearGradient4035"
       inkscape:collect="always" />
    <linearGradient
       id="linearGradient6377">
      <stop
         id="stop6379"
         style="stop-color:#8cd73e"
         offset="0" />
      <stop
         id="stop6381"
         style="stop-color:#5db22b"
         offset=".71875" />
      <stop
         id="stop6383"
         style="stop-color:#379b26"
         offset="1" />
    </linearGradient>
    <linearGradient
       y2="78"
       x2="77"
       y1="71"
       x1="70"
       gradientUnits="userSpaceOnUse"
       id="linearGradient3454"
       xlink:href="#linearGradient3895-0"
       inkscape:collect="always" />
    <linearGradient
       id="linearGradient6386">
      <stop
         id="stop6388"
         style="stop-color:#fff"
         offset="0" />
      <stop
         id="stop6390"
         style="stop-color:#fff;stop-opacity:0"
         offset="1" />
    </linearGradient>
    <radialGradient
       id="radialGradient4031"
       xlink:href="#linearGradient4035"
       gradientUnits="userSpaceOnUse"
       cy="40"
       cx="32"
       gradientTransform="matrix(1.1875,0,0,1.125,-6,-5)"
       r="16" />
    <linearGradient
       id="linearGradient6393">
      <stop
         id="stop6395"
         style="stop-color:#8cd73e"
         offset="0" />
      <stop
         id="stop6397"
         style="stop-color:#5db22b"
         offset=".71875" />
      <stop
         id="stop6399"
         style="stop-color:#379b26"
         offset="1" />
    </linearGradient>
    <linearGradient
       id="linearGradient3948"
       y2="78"
       xlink:href="#linearGradient3895-0"
       gradientUnits="userSpaceOnUse"
       x2="77"
       y1="71"
       x1="70" />
    <linearGradient
       id="linearGradient6402">
      <stop
         id="stop6404"
         style="stop-color:#fff"
         offset="0" />
      <stop
         id="stop6406"
         style="stop-color:#fff;stop-opacity:0"
         offset="1" />
    </linearGradient>
    <linearGradient
       y2="138.66"
       x2="48"
       y1="20.221001"
       x1="48"
       gradientUnits="userSpaceOnUse"
       id="linearGradient3482"
       xlink:href="#linearGradient3895-5"
       inkscape:collect="always" />
    <linearGradient
       id="linearGradient3895-5">
      <stop
         id="stop3897-9"
         style="stop-color:#fff"
         offset="0" />
      <stop
         id="stop3899-3"
         style="stop-color:#fff;stop-opacity:0"
         offset="1" />
    </linearGradient>
    <clipPath
       id="clipPath3613-57">
      <rect
         id="rect3615-08"
         style="fill:#ffffff"
         rx="6"
         ry="6"
         height="84"
         width="84"
         y="6"
         x="6" />
    </clipPath>
    <filter
       id="filter3794-199"
       height="1.3839999"
       width="1.3839999"
       color-interpolation-filters="sRGB"
       y="-0.192"
       x="-0.192">
      <feGaussianBlur
         id="feGaussianBlur3796-78"
         stdDeviation="5.28" />
    </filter>
  </defs>
  <sodipodi:namedview
     id="base"
     pagecolor="#ffffff"
     bordercolor="#666666"
     borderopacity="1.0"
     inkscape:pageopacity="0.0"
     inkscape:pageshadow="2"
     inkscape:zoom="3.959798"
     inkscape:cx="28.389459"
     inkscape:cy="57.490015"
     inkscape:document-units="px"
     inkscape:current-layer="layer1"
     showgrid="false"
     inkscape:window-width="1280"
     inkscape:window-height="725"
     inkscape:window-x="0"
     inkscape:window-y="25"
     inkscape:window-maximized="1" />
  <metadata
     id="metadata7">
    <rdf:RDF>
      <cc:Work
         rdf:about="">
        <dc:format>image/svg+xml</dc:format>
        <dc:type
           rdf:resource="http://purl.org/dc/dcmitype/StillImage" />
        <dc:title></dc:title>
      </cc:Work>
    </rdf:RDF>
  </metadata>
  <g
     inkscape:label="Layer 1"
     inkscape:groupmode="layer"
     id="layer1"
     transform="translate(0,-956.36217)">
    <g
       transform="translate(-182.1875,-40.40626)"
       id="g6175">
      <rect
         transform="translate(182.1875,40.40624)"
         y="964.36218"
         x="8"
         height="80"
         width="80"
         id="rect9283"
         style="fill:#000000;fill-opacity:1;stroke:none;filter:url(#filter6279-2)"
         rx="5"
         ry="5" />
      <rect
         ry="5"
         rx="5"
         style="fill:url(#linearGradient5979);fill-opacity:1;stroke:none"
         id="rect9285"
         width="80"
         height="80"
         x="8"
         y="964.36218"
         transform="translate(182.1875,40.40625)" />
      <g
         id="g9923">
        <g
           transform="matrix(0.78571429,0,0,0.78571429,192.47321,1006.2684)"
           id="g3133">
          <g
             id="g3941">
            <path
               inkscape:connector-curvature="0"
               transform="matrix(0.5,0,0,0.5,59,60)"
               d="m 48,32 a 16,16 0 1 1 -32,0 16,16 0 1 1 32,0 z"
               style="color:#000000;fill:url(#radialGradient3418)"
               id="path2973" />
            <path
               inkscape:connector-curvature="0"
               d="m 75,68 c -4.4183,0 -8,3.5817 -8,8 0,4.4183 3.5817,8 8,8 4.4183,0 8,-3.5817 8,-8 0,-4.4183 -3.5817,-8 -8,-8 z m 0,1 c 3.866,0 7,3.134 7,7 0,3.866 -3.134,7 -7,7 -3.866,0 -7,-3.134 -7,-7 0,-3.866 3.134,-7 7,-7 z"
               style="opacity:0.2;color:#000000"
               id="path3875" />
            <path
               inkscape:connector-curvature="0"
               d="m 75,69 c -3.866,0 -7,3.134 -7,7 0,3.866 3.134,7 7,7 0.08388,0 0.16683,0.0029 0.25,0 C 71.778,82.866 69,80.005 69,76.5 69,72.91 71.91,70 75.5,70 c 3.5046,0 6.3662,2.7782 6.5,6.25 0.0029,-0.08317 0,-0.16612 0,-0.25 0,-3.866 -3.134,-7 -7,-7 z"
               style="opacity:0.3;color:#000000;fill:url(#linearGradient3420-0)"
               id="path3888" />
          </g>
          <g
             transform="translate(-18,0)"
             id="g3950">
            <path
               inkscape:connector-curvature="0"
               transform="matrix(0.5,0,0,0.5,59,60)"
               d="m 48,32 a 16,16 0 1 1 -32,0 16,16 0 1 1 32,0 z"
               style="color:#000000;fill:url(#radialGradient3422)"
               id="path3952" />
            <path
               inkscape:connector-curvature="0"
               d="m 75,68 c -4.4183,0 -8,3.5817 -8,8 0,4.4183 3.5817,8 8,8 4.4183,0 8,-3.5817 8,-8 0,-4.4183 -3.5817,-8 -8,-8 z m 0,1 c 3.866,0 7,3.134 7,7 0,3.866 -3.134,7 -7,7 -3.866,0 -7,-3.134 -7,-7 0,-3.866 3.134,-7 7,-7 z"
               style="opacity:0.2;color:#000000"
               id="path3954" />
            <path
               inkscape:connector-curvature="0"
               d="m 75,69 c -3.866,0 -7,3.134 -7,7 0,3.866 3.134,7 7,7 0.08388,0 0.16683,0.0029 0.25,0 C 71.778,82.866 69,80.005 69,76.5 69,72.91 71.91,70 75.5,70 c 3.5046,0 6.3662,2.7782 6.5,6.25 0.0029,-0.08317 0,-0.16612 0,-0.25 0,-3.866 -3.134,-7 -7,-7 z"
               style="opacity:0.3;color:#000000;fill:url(#linearGradient3424-4)"
               id="path3956" />
          </g>
          <g
             transform="translate(-36,0)"
             id="g3962">
            <path
               inkscape:connector-curvature="0"
               transform="matrix(0.5,0,0,0.5,59,60)"
               d="m 48,32 a 16,16 0 1 1 -32,0 16,16 0 1 1 32,0 z"
               style="color:#000000;fill:url(#radialGradient3426)"
               id="path3964" />
            <path
               inkscape:connector-curvature="0"
               d="m 75,68 c -4.4183,0 -8,3.5817 -8,8 0,4.4183 3.5817,8 8,8 4.4183,0 8,-3.5817 8,-8 0,-4.4183 -3.5817,-8 -8,-8 z m 0,1 c 3.866,0 7,3.134 7,7 0,3.866 -3.134,7 -7,7 -3.866,0 -7,-3.134 -7,-7 0,-3.866 3.134,-7 7,-7 z"
               style="opacity:0.2;color:#000000"
               id="path3966" />
            <path
               inkscape:connector-curvature="0"
               d="m 75,69 c -3.866,0 -7,3.134 -7,7 0,3.866 3.134,7 7,7 0.08388,0 0.16683,0.0029 0.25,0 C 71.778,82.866 69,80.005 69,76.5 69,72.91 71.91,70 75.5,70 c 3.5046,0 6.3662,2.7782 6.5,6.25 0.0029,-0.08317 0,-0.16612 0,-0.25 0,-3.866 -3.134,-7 -7,-7 z"
               style="opacity:0.3;color:#000000;fill:url(#linearGradient3428)"
               id="path3968" />
          </g>
          <g
             transform="translate(-54,0)"
             id="g3974">
            <path
               inkscape:connector-curvature="0"
               transform="matrix(0.5,0,0,0.5,59,60)"
               d="m 48,32 a 16,16 0 1 1 -32,0 16,16 0 1 1 32,0 z"
               style="color:#000000;fill:url(#radialGradient3430-2)"
               id="path3976" />
            <path
               inkscape:connector-curvature="0"
               d="m 75,68 c -4.4183,0 -8,3.5817 -8,8 0,4.4183 3.5817,8 8,8 4.4183,0 8,-3.5817 8,-8 0,-4.4183 -3.5817,-8 -8,-8 z m 0,1 c 3.866,0 7,3.134 7,7 0,3.866 -3.134,7 -7,7 -3.866,0 -7,-3.134 -7,-7 0,-3.866 3.134,-7 7,-7 z"
               style="opacity:0.2;color:#000000"
               id="path3979" />
            <path
               inkscape:connector-curvature="0"
               d="m 75,69 c -3.866,0 -7,3.134 -7,7 0,3.866 3.134,7 7,7 0.08388,0 0.16683,0.0029 0.25,0 C 71.778,82.866 69,80.005 69,76.5 69,72.91 71.91,70 75.5,70 c 3.5046,0 6.3662,2.7782 6.5,6.25 0.0029,-0.08317 0,-0.16612 0,-0.25 0,-3.866 -3.134,-7 -7,-7 z"
               style="opacity:0.3;color:#000000;fill:url(#linearGradient3432)"
               id="path3981" />
          </g>
          <g
             transform="translate(-36,-18)"
             id="g3987">
            <path
               inkscape:connector-curvature="0"
               transform="matrix(0.5,0,0,0.5,59,60)"
               d="m 48,32 a 16,16 0 1 1 -32,0 16,16 0 1 1 32,0 z"
               style="color:#000000;fill:url(#radialGradient3434)"
               id="path3989" />
            <path
               inkscape:connector-curvature="0"
               d="m 75,68 c -4.4183,0 -8,3.5817 -8,8 0,4.4183 3.5817,8 8,8 4.4183,0 8,-3.5817 8,-8 0,-4.4183 -3.5817,-8 -8,-8 z m 0,1 c 3.866,0 7,3.134 7,7 0,3.866 -3.134,7 -7,7 -3.866,0 -7,-3.134 -7,-7 0,-3.866 3.134,-7 7,-7 z"
               style="opacity:0.2;color:#000000"
               id="path3991" />
            <path
               inkscape:connector-curvature="0"
               d="m 75,69 c -3.866,0 -7,3.134 -7,7 0,3.866 3.134,7 7,7 0.08388,0 0.16683,0.0029 0.25,0 C 71.778,82.866 69,80.005 69,76.5 69,72.91 71.91,70 75.5,70 c 3.5046,0 6.3662,2.7782 6.5,6.25 0.0029,-0.08317 0,-0.16612 0,-0.25 0,-3.866 -3.134,-7 -7,-7 z"
               style="opacity:0.3;color:#000000;fill:url(#linearGradient3436)"
               id="path3993" />
          </g>
          <g
             transform="translate(-18,-36)"
             id="g3999">
            <path
               inkscape:connector-curvature="0"
               transform="matrix(0.5,0,0,0.5,59,60)"
               d="m 48,32 a 16,16 0 1 1 -32,0 16,16 0 1 1 32,0 z"
               style="color:#000000;fill:url(#radialGradient3438)"
               id="path4001" />
            <path
               inkscape:connector-curvature="0"
               d="m 75,68 c -4.4183,0 -8,3.5817 -8,8 0,4.4183 3.5817,8 8,8 4.4183,0 8,-3.5817 8,-8 0,-4.4183 -3.5817,-8 -8,-8 z m 0,1 c 3.866,0 7,3.134 7,7 0,3.866 -3.134,7 -7,7 -3.866,0 -7,-3.134 -7,-7 0,-3.866 3.134,-7 7,-7 z"
               style="opacity:0.2;color:#000000"
               id="path4003" />
            <path
               inkscape:connector-curvature="0"
               d="m 75,69 c -3.866,0 -7,3.134 -7,7 0,3.866 3.134,7 7,7 0.08388,0 0.16683,0.0029 0.25,0 C 71.778,82.866 69,80.005 69,76.5 69,72.91 71.91,70 75.5,70 c 3.5046,0 6.3662,2.7782 6.5,6.25 0.0029,-0.08317 0,-0.16612 0,-0.25 0,-3.866 -3.134,-7 -7,-7 z"
               style="opacity:0.3;color:#000000;fill:url(#linearGradient3440-2)"
               id="path4005" />
          </g>
          <g
             transform="translate(0,-54)"
             id="g4011">
            <path
               inkscape:connector-curvature="0"
               transform="matrix(0.5,0,0,0.5,59,60)"
               d="m 48,32 a 16,16 0 1 1 -32,0 16,16 0 1 1 32,0 z"
               style="color:#000000;fill:url(#radialGradient3984)"
               id="path4013" />
            <path
               inkscape:connector-curvature="0"
               d="m 75,68 c -4.4183,0 -8,3.5817 -8,8 0,4.4183 3.5817,8 8,8 4.4183,0 8,-3.5817 8,-8 0,-4.4183 -3.5817,-8 -8,-8 z m 0,1 c 3.866,0 7,3.134 7,7 0,3.866 -3.134,7 -7,7 -3.866,0 -7,-3.134 -7,-7 0,-3.866 3.134,-7 7,-7 z"
               style="opacity:0.2;color:#000000"
               id="path4015" />
            <path
               inkscape:connector-curvature="0"
               d="m 75,69 c -3.866,0 -7,3.134 -7,7 0,3.866 3.134,7 7,7 0.08388,0 0.16683,0.0029 0.25,0 C 71.778,82.866 69,80.005 69,76.5 69,72.91 71.91,70 75.5,70 c 3.5046,0 6.3662,2.7782 6.5,6.25 0.0029,-0.08317 0,-0.16612 0,-0.25 0,-3.866 -3.134,-7 -7,-7 z"
               style="opacity:0.3;color:#000000;fill:url(#linearGradient3442-2)"
               id="path4017" />
          </g>
          <g
             transform="translate(-54,-18)"
             id="g4023">
            <path
               inkscape:connector-curvature="0"
               transform="matrix(0.5,0,0,0.5,59,60)"
               d="m 48,32 a 16,16 0 1 1 -32,0 16,16 0 1 1 32,0 z"
               style="color:#000000;fill:url(#radialGradient3444)"
               id="path4025" />
            <path
               inkscape:connector-curvature="0"
               d="m 75,68 c -4.4183,0 -8,3.5817 -8,8 0,4.4183 3.5817,8 8,8 4.4183,0 8,-3.5817 8,-8 0,-4.4183 -3.5817,-8 -8,-8 z m 0,1 c 3.866,0 7,3.134 7,7 0,3.866 -3.134,7 -7,7 -3.866,0 -7,-3.134 -7,-7 0,-3.866 3.134,-7 7,-7 z"
               style="opacity:0.2;color:#000000"
               id="path4027" />
            <path
               inkscape:connector-curvature="0"
               d="m 75,69 c -3.866,0 -7,3.134 -7,7 0,3.866 3.134,7 7,7 0.08388,0 0.16683,0.0029 0.25,0 C 71.778,82.866 69,80.005 69,76.5 69,72.91 71.91,70 75.5,70 c 3.5046,0 6.3662,2.7782 6.5,6.25 0.0029,-0.08317 0,-0.16612 0,-0.25 0,-3.866 -3.134,-7 -7,-7 z"
               style="opacity:0.3;color:#000000;fill:url(#linearGradient3446)"
               id="path4029" />
          </g>
          <g
             transform="translate(-18,-18)"
             id="g4043">
            <path
               inkscape:connector-curvature="0"
               transform="matrix(0.5,0,0,0.5,59,60)"
               d="m 48,32 a 16,16 0 1 1 -32,0 16,16 0 1 1 32,0 z"
               style="color:#000000;fill:url(#radialGradient3448-0)"
               id="path4045" />
            <path
               inkscape:connector-curvature="0"
               d="m 75,68 c -4.4183,0 -8,3.5817 -8,8 0,4.4183 3.5817,8 8,8 4.4183,0 8,-3.5817 8,-8 0,-4.4183 -3.5817,-8 -8,-8 z m 0,1 c 3.866,0 7,3.134 7,7 0,3.866 -3.134,7 -7,7 -3.866,0 -7,-3.134 -7,-7 0,-3.866 3.134,-7 7,-7 z"
               style="opacity:0.2;color:#000000"
               id="path4047" />
            <path
               inkscape:connector-curvature="0"
               d="m 75,69 c -3.866,0 -7,3.134 -7,7 0,3.866 3.134,7 7,7 0.08388,0 0.16683,0.0029 0.25,0 C 71.778,82.866 69,80.005 69,76.5 69,72.91 71.91,70 75.5,70 c 3.5046,0 6.3662,2.7782 6.5,6.25 0.0029,-0.08317 0,-0.16612 0,-0.25 0,-3.866 -3.134,-7 -7,-7 z"
               style="opacity:0.3;color:#000000;fill:url(#linearGradient3450-5)"
               id="path4049" />
          </g>
          <g
             transform="translate(0,-18)"
             id="g4055">
            <path
               inkscape:connector-curvature="0"
               transform="matrix(0.5,0,0,0.5,59,60)"
               d="m 48,32 a 16,16 0 1 1 -32,0 16,16 0 1 1 32,0 z"
               style="color:#000000;fill:url(#radialGradient3452)"
               id="path4057" />
            <path
               inkscape:connector-curvature="0"
               d="m 75,68 c -4.4183,0 -8,3.5817 -8,8 0,4.4183 3.5817,8 8,8 4.4183,0 8,-3.5817 8,-8 0,-4.4183 -3.5817,-8 -8,-8 z m 0,1 c 3.866,0 7,3.134 7,7 0,3.866 -3.134,7 -7,7 -3.866,0 -7,-3.134 -7,-7 0,-3.866 3.134,-7 7,-7 z"
               style="opacity:0.2;color:#000000"
               id="path4059" />
            <path
               inkscape:connector-curvature="0"
               d="m 75,69 c -3.866,0 -7,3.134 -7,7 0,3.866 3.134,7 7,7 0.08388,0 0.16683,0.0029 0.25,0 C 71.778,82.866 69,80.005 69,76.5 69,72.91 71.91,70 75.5,70 c 3.5046,0 6.3662,2.7782 6.5,6.25 0.0029,-0.08317 0,-0.16612 0,-0.25 0,-3.866 -3.134,-7 -7,-7 z"
               style="opacity:0.3;color:#000000;fill:url(#linearGradient3454)"
               id="path4061" />
          </g>
          <g
             transform="translate(0,-36)"
             id="g4067">
            <path
               inkscape:connector-curvature="0"
               transform="matrix(0.5,0,0,0.5,59,60)"
               d="m 48,32 a 16,16 0 1 1 -32,0 16,16 0 1 1 32,0 z"
               style="color:#000000;fill:url(#radialGradient4031)"
               id="path4069" />
            <path
               inkscape:connector-curvature="0"
               d="m 75,68 c -4.4183,0 -8,3.5817 -8,8 0,4.4183 3.5817,8 8,8 4.4183,0 8,-3.5817 8,-8 0,-4.4183 -3.5817,-8 -8,-8 z m 0,1 c 3.866,0 7,3.134 7,7 0,3.866 -3.134,7 -7,7 -3.866,0 -7,-3.134 -7,-7 0,-3.866 3.134,-7 7,-7 z"
               style="opacity:0.2;color:#000000"
               id="path4071" />
            <path
               inkscape:connector-curvature="0"
               d="m 75,69 c -3.866,0 -7,3.134 -7,7 0,3.866 3.134,7 7,7 0.08388,0 0.16683,0.0029 0.25,0 C 71.778,82.866 69,80.005 69,76.5 69,72.91 71.91,70 75.5,70 c 3.5046,0 6.3662,2.7782 6.5,6.25 0.0029,-0.08317 0,-0.16612 0,-0.25 0,-3.866 -3.134,-7 -7,-7 z"
               style="opacity:0.3;color:#000000;fill:url(#linearGradient3948)"
               id="path4073" />
          </g>
        </g>
        <g
           transform="translate(182.1875,996.76843)"
           id="layer5">
          <rect
             id="rect3171"
             style="opacity:0.1;fill:url(#linearGradient3482);stroke:#ffffff;stroke-width:0.5;stroke-linecap:round;filter:url(#filter3794-199)"
             clip-path="url(#clipPath3613-57)"
             rx="12"
             ry="12"
             height="66"
             width="66"
             y="15"
             x="15" />
        </g>
      </g>
    </g>
  </g>
</svg>
