<?xml version="1.0" encoding="UTF-8" standalone="no"?>
<!-- Created with Inkscape (http://www.inkscape.org/) -->
<svg id="svg2982" xmlns:rdf="http://www.w3.org/1999/02/22-rdf-syntax-ns#" xmlns="http://www.w3.org/2000/svg" height="96" width="96" version="1.1" xmlns:cc="http://creativecommons.org/ns#" xmlns:xlink="http://www.w3.org/1999/xlink" xmlns:dc="http://purl.org/dc/elements/1.1/">
 <defs id="defs2984">
  <filter id="filter6279-2" color-interpolation-filters="sRGB">
   <feGaussianBlur id="feGaussianBlur6281-1" stdDeviation="0.8"/>
  </filter>
  <linearGradient id="linearGradient9181" y2="902.36" gradientUnits="userSpaceOnUse" x2="48" gradientTransform="translate(0 -.0000078516)" y1="1052.4" x1="48">
   <stop id="stop3702-89" style="stop-color:#1a1818" offset="0"/>
   <stop id="stop3704-36" style="stop-color:#403d3d" offset="1"/>
  </linearGradient>
  <linearGradient id="linearGradient3100-5" y2="138.66" gradientUnits="userSpaceOnUse" y1="20.221" x2="48" x1="48">
   <stop id="stop3739-42" style="stop-color:#fff" offset="0"/>
   <stop id="stop3741-96" style="stop-color:#fff;stop-opacity:0" offset="1"/>
  </linearGradient>
  <clipPath id="clipPath3613-10">
   <rect id="rect3615-42" style="fill:#fff" rx="6" ry="6" height="84" width="84" y="6" x="6"/>
  </clipPath>
  <filter id="filter3794-22" height="1.384" width="1.384" color-interpolation-filters="sRGB" y="-.192" x="-.192">
   <feGaussianBlur id="feGaussianBlur3796-05" stdDeviation="5.28"/>
  </filter>
  <linearGradient id="linearGradient3887-4" y2="18" gradientUnits="userSpaceOnUse" x2="31" gradientTransform="matrix(1,0,0,1.5,0,-8)" y1="16" x1="31">
   <stop id="stop3883-2" offset="0"/>
   <stop id="stop3885-2" style="stop-opacity:0" offset="1"/>
  </linearGradient>
  <linearGradient id="linearGradient3137" y2="14" gradientUnits="userSpaceOnUse" y1="6" x2="40" x1="40">
   <stop id="stop3996" style="stop-color:#fff" offset="0"/>
   <stop id="stop3998" style="stop-color:#fff;stop-opacity:0" offset="1"/>
  </linearGradient>
 </defs>
 <metadata id="metadata2987">
  <rdf:RDF>
   <cc:Work rdf:about="">
    <dc:format>image/svg+xml</dc:format>
    <dc:type rdf:resource="http://purl.org/dc/dcmitype/StillImage"/>
    <dc:title/>
   </cc:Work>
  </rdf:RDF>
 </metadata>
 <g id="layer1" transform="translate(0 -956.36)">
  <g id="g6910">
   <rect id="rect9283" ry="5" style="filter:url(#filter6279-2)" rx="5" transform="translate(0 -.0000078516)" height="80" width="80" y="964.36" x="8"/>
   <rect id="rect9285" style="fill:url(#linearGradient9181)" rx="5" ry="5" height="80" width="80" y="964.36" x="8"/>
   <g id="layer5" transform="translate(0 956.36)">
    <rect id="rect3171" style="opacity:0.08;filter:url(#filter3794-22);stroke:#fff;stroke-linecap:round;stroke-width:.5;fill:url(#linearGradient3100-5)" clip-path="url(#clipPath3613-10)" rx="12" ry="12" height="66" width="66" y="15" x="15"/>
   </g>
   <path id="path208" style="fill:#fff;stroke-width:0;stroke-miterlimit:10.433" d="m41.076 985.3c-3.3335 0-7.5099 0.49804-11.029 3.4007-2.6544 2.2842-3.9522 5.4322-3.9522 8.2721 0 4.8158 3.7176 9.6814 10.263 9.6814 0.61712 0 1.2817-0.063 1.9608-0.1226-0.30996 0.7409-0.61274 1.3714-0.61274 2.4204 0 1.9131 0.97314 3.0856 1.8382 4.1973-2.7784 0.1861-7.9687 0.5037-11.795 2.8493-3.6463 2.1619-4.7488 5.3134-4.7488 7.5368 0 4.5703 4.3107 8.8235 13.266 8.8235 10.623 0 16.268-5.8675 16.268-11.673 0-4.2609-2.4919-6.3558-5.2083-8.6397l-2.2059-1.7463c-0.67911-0.557-1.6238-1.2765-1.6238-2.6348 0-1.3593 0.94605-2.2306 1.7463-3.0332 2.5953-2.0372 5.1777-4.1918 5.1777-8.7622v-0.45956l-0.03064-0.39828-0.03064-0.42892-0.06127-0.39829-0.09191-0.36765-0.06127-0.36764-0.09191-0.36765-0.12255-0.33701-0.12255-0.33701-0.12255-0.33701-0.12255-0.30637-0.15319-0.30637-0.15319-0.27574-0.15319-0.27574-0.18382-0.27573-0.15319-0.27574-0.18382-0.24509-0.18382-0.2451-0.15319-0.21446-0.18382-0.21446-0.18382-0.21446-0.18382-0.18383-0.18382-0.21446-0.18382-0.18382-0.18382-0.15319-0.18382-0.15318-0.15319-0.15319-0.18382-0.15319-0.15319-0.15318-0.15319-0.12255-0.12255-0.12255-0.15319-0.12255h3.8297l3.9522-2.2059h-12.745zm22.12 0v7.8431h-7.8431v1.9608h7.8431v7.8431h1.9608v-7.8431h7.8431v-1.9608h-7.8431v-7.8431h-1.9608zm-25.98 2.0221c5.1285 0 7.7819 6.9207 7.7819 11.366v0.1226 0.092 0.1226l-0.03064 0.1225v0.1226 0.1225 0.1532l-0.03064 0.1226v0.1531l-0.03064 0.1226v0.1532l-0.03064 0.1532-0.03064 0.1225-0.03064 0.1532-0.03064 0.1532-0.03064 0.1532-0.03064 0.1531-0.06128 0.1533-0.06127 0.1531-0.03064 0.1533-0.06127 0.1531-0.09191 0.1532-0.06127 0.1532-0.06127 0.1532-0.09191 0.1531-0.09191 0.1533-0.09191 0.1531-0.09191 0.1226-0.12255 0.1532-0.09191 0.1531-0.15319 0.1226-0.12255 0.1532c-0.98907 0.9874-2.6531 1.7157-4.1973 1.7157-5.3117 0-7.7206-6.8622-7.7206-10.999 0-1.6059 0.33042-3.2684 1.3787-4.565 0.98908-1.2362 2.7165-2.0527 4.3199-2.0527zm3.0025 27.574h0.06128 0.06127 0.06128 0.06127 0.03064 0.06127 0.03064 0.06128 0.06127 0.03064 0.09191 0.09191 0.06127 0.09191 0.06128 0.09191 0.09191l0.06128 0.03h0.09191 0.09191 0.03064l0.06127 0.03c4.6946 3.3364 6.7402 4.9983 6.7402 8.1496 0 3.8295-3.1705 6.6482-9.0993 6.6482-6.6079 0-10.846-3.1527-10.846-7.5368 0-4.3865 3.9392-5.8487 5.3002-6.3418 2.5924-0.8654 5.9093-0.9804 6.4645-0.9804z"/>
   <g id="g3104" transform="matrix(.77563 0 0 .77563 10.846 967.13)">
    <path id="rect3822" style="fill:#d91f1c" d="m12 6c-3.324 0-6 2.676-6 6v4h20v-10h-14z"/>
    <path id="path3829" style="fill:#4776ec" d="m26 6v10h22v-10h-22z"/>
    <path id="path3831" style="fill:#22a938" d="m48 6v10h22v-10h-22z"/>
    <path id="path3833" style="fill:#eeb91c" d="m70 6v10h20v-4c0-3.324-2.676-6-6-6z"/>
    <rect id="rect3879" style="opacity:.3;color:#000000;fill:url(#linearGradient3887-4)" height="3" width="84" y="16" x="6"/>
    <path id="path3985" style="opacity:.3;fill:url(#linearGradient3137)" d="m12 6c-3.324 0-6 2.676-6 6v2h20 22 22 20v-2c0-3.324-2.676-6-6-6h-14-22-22z"/>
   </g>
  </g>
 </g>
</svg>
