<?xml version="1.0" encoding="UTF-8" standalone="no"?>
<!-- Created with Inkscape (http://www.inkscape.org/) -->

<svg
   xmlns:dc="http://purl.org/dc/elements/1.1/"
   xmlns:cc="http://creativecommons.org/ns#"
   xmlns:rdf="http://www.w3.org/1999/02/22-rdf-syntax-ns#"
   xmlns:svg="http://www.w3.org/2000/svg"
   xmlns="http://www.w3.org/2000/svg"
   xmlns:xlink="http://www.w3.org/1999/xlink"
   xmlns:sodipodi="http://sodipodi.sourceforge.net/DTD/sodipodi-0.dtd"
   xmlns:inkscape="http://www.inkscape.org/namespaces/inkscape"
   width="96"
   height="96"
   id="svg2"
   version="1.1"
   inkscape:version="0.48.1 r9760"
   sodipodi:docname="googleearth.svg">
  <defs
     id="defs4">
    <filter
       color-interpolation-filters="sRGB"
       inkscape:collect="always"
       id="filter6279-2">
      <feGaussianBlur
         inkscape:collect="always"
         stdDeviation="0.8"
         id="feGaussianBlur6281-1" />
    </filter>
    <linearGradient
       inkscape:collect="always"
       xlink:href="#linearGradient3617-13"
       id="linearGradient5979"
       gradientUnits="userSpaceOnUse"
       gradientTransform="translate(0,-7.8515622e-6)"
       x1="48"
       y1="1052.3622"
       x2="48"
       y2="902.36218" />
    <linearGradient
       id="linearGradient3617-13"
       y2="5.9877"
       gradientUnits="userSpaceOnUse"
       x2="48"
       y1="90"
       x1="48">
      <stop
         id="stop3702-2"
         style="stop-color:#22193e"
         offset="0" />
      <stop
         id="stop3704-1"
         style="stop-color:#9586af"
         offset="1" />
    </linearGradient>
    <radialGradient
       r="60.306"
       cy="-16.952999"
       cx="64.144997"
       gradientTransform="matrix(0.55997,0,0,0.15985,194.26851,1075.1174)"
       gradientUnits="userSpaceOnUse"
       id="radialGradient3338"
       xlink:href="#radialGradient4004"
       inkscape:collect="always" />
    <radialGradient
       id="radialGradient4004"
       gradientUnits="userSpaceOnUse"
       cy="-16.952999"
       cx="64.144997"
       r="60.306">
      <stop
         id="stop4000"
         style="stop-color:#fff"
         offset="0" />
      <stop
         id="stop4002"
         style="stop-color:#fff;stop-opacity:0"
         offset="1" />
    </radialGradient>
    <linearGradient
       y2="138.66"
       x2="48"
       y1="20.221001"
       x1="48"
       gradientUnits="userSpaceOnUse"
       id="linearGradient3267-8"
       xlink:href="#linearGradient3737-74"
       inkscape:collect="always" />
    <linearGradient
       id="linearGradient3737-74">
      <stop
         id="stop3739-85"
         style="stop-color:#fff"
         offset="0" />
      <stop
         id="stop3741-82"
         style="stop-color:#fff;stop-opacity:0"
         offset="1" />
    </linearGradient>
    <clipPath
       id="clipPath3613-60">
      <rect
         id="rect3615-66"
         style="fill:#ffffff"
         rx="6"
         ry="6"
         height="84"
         width="84"
         y="6"
         x="6" />
    </clipPath>
    <filter
       id="filter3794-46"
       height="1.3839999"
       width="1.3839999"
       color-interpolation-filters="sRGB"
       y="-0.192"
       x="-0.192">
      <feGaussianBlur
         id="feGaussianBlur3796-2"
         stdDeviation="5.28" />
    </filter>
    <radialGradient
       inkscape:collect="always"
       xlink:href="#linearGradient4224-9"
       id="radialGradient5877"
       gradientUnits="userSpaceOnUse"
       gradientTransform="matrix(0.48262197,0,0,0.45874374,123.02308,1052.1482)"
       cx="46.972"
       cy="-33.923"
       r="60.306" />
    <linearGradient
       id="linearGradient4224-9">
      <stop
         id="stop4226-7"
         style="stop-color:#95d2f8"
         offset="0" />
      <stop
         id="stop4240-8"
         style="stop-color:#357bb5"
         offset=".41" />
      <stop
         id="stop4228-0"
         style="stop-color:#13324e"
         offset="1" />
    </linearGradient>
    <radialGradient
       inkscape:collect="always"
       xlink:href="#radialGradient3926"
       id="radialGradient5879"
       gradientUnits="userSpaceOnUse"
       gradientTransform="matrix(0.4714705,0,0,0.45940703,123.7638,1052.1533)"
       cx="65.261002"
       cy="-19.959999"
       r="60.306" />
    <radialGradient
       id="radialGradient3926"
       gradientUnits="userSpaceOnUse"
       cy="-19.959999"
       cx="65.261002"
       gradientTransform="matrix(1.1373,0,0,1.1082,-5.9284,3.6297)"
       r="60.306">
      <stop
         id="stop4465-1"
         style="stop-opacity:0"
         offset="0" />
      <stop
         id="stop4467-3"
         style="stop-opacity:0"
         offset="0.91" />
      <stop
         id="stop4469-1"
         offset="1" />
    </radialGradient>
    <radialGradient
       inkscape:collect="always"
       xlink:href="#radialGradient3146"
       id="radialGradient5881"
       gradientUnits="userSpaceOnUse"
       gradientTransform="matrix(1.2688834,0,0,1.1843665,121.10002,1015.1652)"
       cx="22.108999"
       cy="19.781"
       r="19.190001" />
    <radialGradient
       id="radialGradient3146"
       gradientUnits="userSpaceOnUse"
       cy="19.781"
       cx="22.108999"
       gradientTransform="matrix(1.5734,0,0,1.4686,8.6765,12.715)"
       r="19.190001">
      <stop
         id="stop2314"
         style="stop-color:#e3ebf3"
         offset="0" />
      <stop
         id="stop2316"
         style="stop-color:#cedceb;stop-opacity:.13178"
         offset="1" />
    </radialGradient>
    <linearGradient
       inkscape:collect="always"
       xlink:href="#linearGradient3737-94"
       id="linearGradient5883"
       gradientUnits="userSpaceOnUse"
       gradientTransform="matrix(0.29229319,0,0,0.20016325,134.06426,1034.8428)"
       x1="66.657997"
       y1="-77.511002"
       x2="66.657997"
       y2="51.68" />
    <linearGradient
       id="linearGradient3737-94">
      <stop
         id="stop3739-69"
         style="stop-color:#fff"
         offset="0" />
      <stop
         id="stop3741-22"
         style="stop-color:#fff;stop-opacity:0"
         offset="1" />
    </linearGradient>
    <radialGradient
       inkscape:collect="always"
       xlink:href="#radialGradient3093"
       id="radialGradient5885"
       gradientUnits="userSpaceOnUse"
       gradientTransform="matrix(0.48264989,0,0,0.45876256,123.02302,1052.1487)"
       cx="46.972"
       cy="-33.923"
       r="60.306" />
    <radialGradient
       id="radialGradient3093"
       gradientUnits="userSpaceOnUse"
       cy="-33.923"
       cx="46.972"
       gradientTransform="matrix(0.59848,0,0,0.56886,11.061,58.574)"
       r="60.306">
      <stop
         id="stop4473-6"
         style="stop-color:#fff"
         offset="0" />
      <stop
         id="stop4544-9"
         style="stop-color:#f6f6f6"
         offset=".5" />
      <stop
         id="stop4475-9"
         style="stop-color:#8aa6c6"
         offset="1" />
    </radialGradient>
  </defs>
  <sodipodi:namedview
     id="base"
     pagecolor="#ffffff"
     bordercolor="#666666"
     borderopacity="1.0"
     inkscape:pageopacity="0.0"
     inkscape:pageshadow="2"
     inkscape:zoom="3.959798"
     inkscape:cx="28.389459"
     inkscape:cy="57.490015"
     inkscape:document-units="px"
     inkscape:current-layer="layer1"
     showgrid="false"
     inkscape:window-width="1280"
     inkscape:window-height="725"
     inkscape:window-x="0"
     inkscape:window-y="25"
     inkscape:window-maximized="1" />
  <metadata
     id="metadata7">
    <rdf:RDF>
      <cc:Work
         rdf:about="">
        <dc:format>image/svg+xml</dc:format>
        <dc:type
           rdf:resource="http://purl.org/dc/dcmitype/StillImage" />
        <dc:title></dc:title>
      </cc:Work>
    </rdf:RDF>
  </metadata>
  <g
     inkscape:label="Layer 1"
     inkscape:groupmode="layer"
     id="layer1"
     transform="translate(0,-956.36217)">
    <g
       transform="translate(-182.1875,-40.40626)"
       id="g5870">
      <rect
         transform="translate(182.1875,40.40624)"
         y="964.36218"
         x="8"
         height="80"
         width="80"
         id="rect9283"
         style="fill:#000000;fill-opacity:1;stroke:none;filter:url(#filter6279-2)"
         rx="5"
         ry="5" />
      <rect
         ry="5"
         rx="5"
         style="fill:url(#linearGradient5979);fill-opacity:1;stroke:none"
         id="rect9285"
         width="80"
         height="80"
         x="8"
         y="964.36218"
         transform="translate(182.1875,40.40625)" />
      <g
         id="g5881">
        <path
           id="path3990"
           style="opacity:0.2;color:#000000;fill:url(#radialGradient3338);fill-rule:evenodd"
           d="m 263.95677,1072.4075 a 33.769551,9.6399141 0 1 1 -67.53798,0 33.769551,9.6399141 0 1 1 67.53798,0 z"
           inkscape:connector-curvature="0" />
        <g
           id="layer5"
           transform="translate(182.1875,996.76843)">
          <rect
             x="15"
             y="15"
             width="66"
             height="66"
             ry="12"
             rx="12"
             clip-path="url(#clipPath3613-60)"
             style="opacity:0.1;fill:url(#linearGradient3267-8);stroke:#ffffff;stroke-width:0.5;stroke-linecap:round;filter:url(#filter3794-46)"
             id="rect3171" />
        </g>
        <g
           transform="matrix(1.08,0,0,1.08,65.124563,-82.397498)"
           id="g5867">
          <path
             inkscape:connector-curvature="0"
             d="m 177.81249,1043.6207 a 25,25 0 1 1 -49.99917,0 25,25 0 1 1 49.99917,0 z"
             style="color:#000000;fill:url(#radialGradient5877);fill-rule:evenodd"
             id="path3253" />
          <path
             inkscape:connector-curvature="0"
             d="m 177.81249,1043.6207 a 25,25 0 1 1 -49.99917,0 25,25 0 1 1 49.99917,0 z"
             style="color:#000000;fill:url(#radialGradient5879);fill-rule:evenodd"
             id="path4449" />
          <path
             inkscape:connector-curvature="0"
             d="m 152.79267,1019.6709 -2.76616,0.3207 -3.40761,0.9421 -0.64143,0.6214 2.1247,1.4633 v 0.8418 l -0.84187,0.8419 1.10243,2.1848 0.74166,-0.4008 0.92202,-1.4834 c 1.42502,-0.4414 2.71463,-0.9358 4.06907,-1.5635 l 1.10243,-2.8263 -2.40534,-0.9421 z m -6.47442,0.3408 c -0.60934,0.1723 -1.21501,0.3637 -1.80405,0.5813 l -0.02,0.02 c -0.0117,0 -0.0284,0 -0.0401,0 -0.81307,0.3027 -1.59582,0.6579 -2.36527,1.0424 l 1.20268,0.2204 0.46102,-0.4209 0.92202,-0.2004 c 0.63193,-0.308 1.2738,-0.5244 1.94429,-0.7417 l -0.3,-0.5024 z m -5.51223,2.3852 -0.18041,0.421 0.0802,1.0423 -0.7216,0.6214 -0.46103,1.1626 h 0.92203 l 0.46102,-1.0423 c 0.3978,-0.2819 0.77746,-0.5706 1.18259,-0.8419 l 0.92203,0.3207 c 0.61466,0.4184 1.22896,0.825 1.84413,1.2428 l 0.9421,-0.8419 -1.02226,-0.4009 -0.46103,-0.9421 -1.76389,-0.2205 -0.0802,-0.5211 -0.84186,0.2004 -0.3608,0.7417 -0.46102,-0.9422 z m 23.63249,0.8419 -1.76389,0.421 -1.10243,0.7216 v 0.6213 l -1.74389,1.1626 0.3608,1.6638 1.02227,-0.7217 0.64142,0.7217 0.74166,0.4209 0.46102,-1.2428 -0.28063,-0.7416 0.28063,-0.5212 1.00227,-0.9421 h 0.46102 l -0.46102,1.0424 v 0.9421 c 0.42381,-0.1156 0.8692,-0.1464 1.30291,-0.2005 l -1.20267,0.8219 -0.10022,0.5412 -1.38308,1.1425 -1.38308,-0.3207 v -0.8219 l -0.64142,0.4009 0.28062,0.7417 h -1.02227 l -0.5412,0.9421 -0.70156,0.7817 -1.24275,0.2606 0.74165,0.7416 0.1804,0.7216 h -0.92202 l -1.20267,0.6415 v 1.8641 h 0.56124 l 0.50112,0.5813 1.16259,-0.5813 0.46103,-1.1425 0.82187,-0.5212 0.1804,-0.4209 1.38308,-0.3207 0.74165,0.8418 0.82186,0.421 -0.46102,0.9421 0.74166,-0.2005 0.38085,-0.9421 -0.92203,-1.0623 h 0.3608 l 0.92203,0.7416 0.1804,1.0424 0.84187,0.9421 0.1804,-1.363 0.46102,-0.2004 c 0.45605,0.4743 0.81856,1.0296 1.20267,1.5634 l 1.38308,0.1003 0.82187,0.5211 -0.36081,0.5212 -0.84186,0.7416 h -1.18259 l -1.58348,-0.5211 -0.82187,0.1002 -0.60133,0.6815 -1.70381,-1.7238 -1.20267,-0.3207 -1.74389,0.2205 -1.58349,0.4209 c -0.87984,0.9994 -1.73292,1.9888 -2.56567,3.0267 l -1.02226,2.4054 0.46102,0.5211 -0.82186,1.2629 0.92203,2.1848 c 0.78431,0.8889 1.56203,1.7764 2.34518,2.6659 l 1.14251,-0.9821 0.52116,0.5813 1.24275,-0.8018 0.42094,0.481 h 1.24276 l 0.70156,0.8018 -0.44098,1.4433 0.88195,1.0022 -0.0401,1.7238 0.64142,1.2428 -0.46102,1.0623 c -0.0459,0.7697 -0.0802,1.5153 -0.0802,2.2851 0.37802,1.043 0.74551,2.0967 1.10243,3.147 l 0.26058,1.6637 v 0.8419 h 0.66147 l 1.00227,-0.6214 h 1.20267 l 1.80405,-2.0445 -0.24053,-0.6815 1.20267,-1.0424 -0.88194,-1.0023 1.06235,-0.8819 1.02227,-0.6214 0.46102,-0.5211 -0.28063,-1.1626 v -2.9265 l 0.84187,-1.784 1.00226,-1.1425 1.10243,-2.7261 v -0.7216 c -0.54693,0.069 -1.06856,0.1216 -1.60356,0.1604 l -0.0401,0.04 -0.0401,-0.04 c -0.32386,0.022 -0.64918,0.04 -0.98219,0.04 -0.58738,-1.2367 -1.03598,-2.4747 -1.48332,-3.7684 l -0.78173,-0.8819 -0.40089,-1.5234 0.26058,-0.3007 1.06235,1.2027 1.24275,2.6659 0.74165,0.8219 -0.3608,0.9421 0.70156,0.8017 c 0.0264,0 0.0538,0 0.0802,0 l 1.10243,-1.1024 1.5234,-1.0423 0.84186,-0.9421 v -1.0624 c -0.18463,-0.3488 -0.37536,-0.6935 -0.56125,-1.0423 l -0.74165,0.8418 -0.56125,-0.6214 -0.82186,-0.6414 v -1.343 l 0.96211,1.0824 1.06235,-0.1403 c 0.4832,0.4395 0.95928,0.8426 1.38307,1.343 l 0.67985,-0.7629 c -0.97501,-5.9742 -4.13472,-11.2138 -8.61944,-14.8929 l -0.18041,0.2807 -0.92202,1.0423 -1.18259,-1.2427 h 1.18259 l 0.50112,-0.5613 c -0.0414,-0.032 -0.0787,-0.069 -0.12027,-0.1002 l -2.02454,-0.3809 -1.20267,-0.4209 z m -25.21638,0.08 c -0.32614,0.2227 -0.62757,0.4637 -0.94211,0.7016 l -0.1403,0.3608 c 0,0 -0.2528,0.042 -0.44098,0.08 -5.2186,4.1968 -8.67832,10.5066 -9.07993,17.6196 0.25056,0.4302 0.56124,0.922 0.56124,0.922 l 1.9443,1.1425 1.92429,0.5412 0.84186,1.0423 1.28284,0.9422 0.74165,-0.1203 0.56125,0.2606 v 0.1603 l -0.74165,1.9844 -0.56125,0.8419 0.1804,0.4209 -0.46102,1.5635 1.66373,3.0468 1.66373,1.4632 0.74165,1.0424 -0.10023,2.2049 0.56125,1.2428 -0.56125,2.4053 c 0,0 -0.0132,0.018 0.02,0.1604 0.7753,0.5497 1.58679,1.0656 2.42543,1.5234 0.0131,0.01 0.0269,0.013 0.0401,0.02 0.0361,0.017 0.0862,0.045 0.12027,0.06 0.29728,0.1349 0.51541,0.2145 0.56124,0.1804 0.18273,-0.1391 0.34076,-0.2606 0.34076,-0.2606 l -0.1804,-0.5212 0.74165,-0.7416 0.28063,-0.7216 1.18259,-0.421 0.92202,-2.3051 -0.26058,-0.6213 0.64143,-0.9421 1.38308,-0.3208 0.74165,-1.6837 -0.18041,-2.0846 1.10243,-1.5635 0.18041,-1.5635 c -1.51615,-0.7508 -3.02826,-1.529 -4.5315,-2.304 l -0.7216,-1.4633 -1.38308,-0.3207 -0.74165,-1.9844 -1.84413,0.2005 -1.56349,-1.1425 -1.66372,1.4632 v 0.2205 c -0.50243,-0.1452 -1.11614,-0.1653 -1.56373,-0.4411 l -0.38084,-1.0424 v -1.1425 l -1.10243,0.1002 c 0.0924,-0.7325 0.18761,-1.4524 0.28062,-2.1848 h -0.66147 l -0.64143,0.8218 -0.64142,0.3207 -0.92203,-0.5211 -0.10022,-1.1626 0.20044,-1.2428 1.38308,-1.0423 h 1.10243 l 0.1804,-0.6414 1.38308,0.3207 1.02227,1.2628 0.18041,-2.1047 1.74388,-1.4632 0.66148,-1.5635 1.28283,-0.5212 0.74166,-1.0423 1.66372,-0.3207 0.82186,-1.2629 c -0.83025,0 -1.65525,0 -2.4855,0 l 1.56348,-0.7216 h 1.10243 l 1.56348,-0.5211 0.20045,-0.6414 -0.56125,-0.5212 -0.64142,-0.2005 0.1804,-0.6213 -0.46103,-0.9421 -1.10243,0.4009 0.1804,-0.8219 -1.28284,-0.7417 -1.02226,1.784 0.10022,0.6214 -1.02227,0.4209 -0.64142,1.363 -0.28063,-1.2628 -1.74388,-0.7216 -0.28063,-0.9421 2.30511,-1.363 1.00226,-0.9421 0.10023,-1.1425 -0.56125,-0.3207 -0.10022,-0.02 z m 16.0558,1.2828 -0.7216,0.4009 -0.38085,-0.1002 -0.0802,0.6414 0.64142,0.4009 1.10244,-0.7216 -0.56125,-0.6214 z m -12.16705,0.2005 -0.74166,0.5211 0.92203,0.6214 h 0.74165 v -0.7216 l -0.92202,-0.4209 z m 14.57272,2.4053 v 0.6214 l 0.38085,0.4209 v 0.9421 l -0.20044,1.2629 1.02226,-0.2205 0.74166,-0.7216 -0.64143,-0.6214 c -0.21686,-0.5786 -0.47023,-1.1288 -0.74165,-1.6837 h -0.56125 z m -0.3608,1.2629 -0.66148,0.2004 0.20045,1.1425 0.82186,-0.4009 -0.3608,-0.9421 z m -12.72835,1.8842 0.26058,1.4632 0.56125,-0.8419 -0.82186,-0.6213 z"
             style="opacity:0.6;fill:url(#radialGradient5881)"
             id="path4144" />
          <path
             inkscape:connector-curvature="0"
             d="m 152.73702,1019.2258 -2.7722,0.3024 a 0.45544801,0.45544801 0 0 0 -0.075,0.025 l -2.84777,0.8064 a 0.45544801,0.45544801 0 0 0 -0.0504,-0.076 l -0.30242,-0.504 a 0.45544801,0.45544801 0 0 0 -0.50404,-0.2016 c -0.61941,0.1751 -1.2134,0.3576 -1.81453,0.5796 a 0.45544801,0.45544801 0 0 0 -0.0258,0.026 0.45544801,0.45544801 0 0 0 -0.0252,0 c -0.0183,0.01 -0.003,-0.01 -0.0252,0 a 0.45544801,0.45544801 0 0 0 -0.0252,0.025 c -0.81856,0.3057 -1.62179,0.6468 -2.39438,1.0331 a 0.45544801,0.45544801 0 0 0 0.0252,0.8316 l -0.37823,0.076 a 0.45544801,0.45544801 0 0 0 -0.25202,0.1764 l -0.0508,-0.1258 a 0.45544801,0.45544801 0 0 0 -0.80646,0 l -0.20161,0.4285 a 0.45544801,0.45544801 0 0 0 -0.0504,0.252 l 0.0504,0.4536 a 0.45544801,0.45544801 0 0 0 -0.1,-0.076 l -0.55444,-0.3276 a 0.45544801,0.45544801 0 0 0 -0.12601,-0.05 l -0.10081,-0.026 a 0.45544801,0.45544801 0 0 0 -0.35283,0.076 c -0.34113,0.2331 -0.67097,0.4952 -0.98307,0.7306 a 0.45544801,0.45544801 0 0 0 -0.15121,0.2017 l -0.0504,0.126 c -0.0845,0.014 -0.11284,0.01 -0.20162,0.025 a 0.45544801,0.45544801 0 0 0 -0.17641,0.1008 c -5.31618,4.275 -8.84041,10.7001 -9.24929,17.9437 a 0.45544801,0.45544801 0 0 0 0.05,0.2524 c 0.25749,0.4422 0.57965,0.9324 0.57965,0.9324 a 0.45544801,0.45544801 0 0 0 0.15121,0.1513 l 1.9405,1.1592 a 0.45544801,0.45544801 0 0 0 0.10081,0.025 l 1.81453,0.5041 0.73086,0.9324 a 0.45544801,0.45544801 0 0 0 0.0756,0.1008 l 1.2855,0.9331 a 0.45544801,0.45544801 0 0 0 0.35282,0.076 l 0.63066,-0.1008 0.0756,0.05 -0.60484,1.6381 -0.0504,0.1008 -0.50403,0.7308 a 0.45544801,0.45544801 0 0 0 -0.0504,0.4285 l 0.12601,0.3024 -0.40323,1.3861 a 0.45544801,0.45544801 0 0 0 0.0252,0.3529 l 1.66333,3.0493 a 0.45544801,0.45544801 0 0 0 0.1008,0.1261 l 1.66333,1.4617 0.57964,0.8064 -0.10081,2.0666 a 0.45544801,0.45544801 0 0 0 0.0508,0.2274 l 0.50404,1.0585 -0.55445,2.2681 c 0,0 10e-4,0.072 0,0.1008 -0.001,0.029 -0.002,0.047 0,0.076 0.005,0.057 0.005,0.1146 0.0252,0.2016 a 0.45544801,0.45544801 0 0 0 0.20161,0.2772 c 0.78942,0.5597 1.5901,1.0709 2.44454,1.5373 0.0499,0.027 0.0742,0.038 0.0504,0.025 a 0.45544801,0.45544801 0 0 0 0.0252,0 c 0.0874,0.041 0.16654,0.057 0.15121,0.05 0.14676,0.067 0.26005,0.1298 0.37803,0.1764 0.059,0.023 0.12611,0.059 0.20161,0.076 0.0755,0.017 0.19643,0.072 0.42843,-0.1008 0.18998,-0.1446 0.35283,-0.2772 0.35283,-0.2772 a 0.45544801,0.45544801 0 0 0 0.15081,-0.5291 l -0.0758,-0.2266 0.52904,-0.529 a 0.45544801,0.45544801 0 0 0 0.1008,-0.1764 l 0.20162,-0.5293 0.98291,-0.3276 a 0.45544801,0.45544801 0 0 0 0.27722,-0.252 l 0.93227,-2.3186 a 0.45544801,0.45544801 0 0 0 -0.025,-0.3782 l -0.15161,-0.3533 0.37822,-0.579 1.23469,-0.2774 a 0.45544801,0.45544801 0 0 0 0.32823,-0.2774 l 0.73066,-1.6888 a 0.45544801,0.45544801 0 0 0 0.025,-0.2266 l -0.15122,-1.9153 1.00808,-1.4365 a 0.45544801,0.45544801 0 0 0 0.0756,-0.2016 l 0.17581,-1.5621 a 0.45544801,0.45544801 0 0 0 -0.25161,-0.454 c -1.46558,-0.7282 -2.94866,-1.4893 -4.41037,-2.243 l -0.65525,-1.3356 a 0.45544801,0.45544801 0 0 0 -0.30242,-0.2521 l -1.15928,-0.252 -0.63005,-1.7389 a 0.45544801,0.45544801 0 0 0 -0.47884,-0.3024 l -1.63711,0.1758 -1.43711,-1.033 a 0.45544801,0.45544801 0 0 0 -0.57904,0.025 l -1.66372,1.4613 c -0.34356,-0.069 -0.6984,-0.1299 -0.90727,-0.2267 l -0.27722,-0.7812 v -1.0585 a 0.45544801,0.45544801 0 0 0 -0.50404,-0.4536 l -0.52904,0.05 c 0.0689,-0.5456 0.13218,-1.0913 0.20162,-1.6381 a 0.45544801,0.45544801 0 0 0 -0.45363,-0.504 h -0.65525 a 0.45544801,0.45544801 0 0 0 -0.35283,0.1764 l -0.57964,0.756 -0.32763,0.1512 -0.52924,-0.2772 -0.0756,-0.8064 v -0.05 l 0.17641,-1.0333 1.10888,-0.8316 h 0.95767 a 0.45544801,0.45544801 0 0 0 0.42904,-0.3282 l 0.0504,-0.2016 0.85687,0.2016 0.8821,1.1088 a 0.45544801,0.45544801 0 0 0 0.80646,-0.2268 l 0.17642,-1.9153 1.61292,-1.3609 a 0.45544801,0.45544801 0 0 0 0.1258,-0.1766 l 0.57965,-1.3862 1.10888,-0.4536 a 0.45544801,0.45544801 0 0 0 0.20161,-0.1764 l 0.60485,-0.8569 1.48695,-0.3024 a 0.45544801,0.45544801 0 0 0 0.30242,-0.2016 l 0.83146,-1.2605 a 0.45544801,0.45544801 0 0 0 -0.0252,-0.5293 0.45544801,0.45544801 0 0 0 0,-0.025 l 0.70565,-0.2268 0.22682,1.2601 a 0.45544801,0.45544801 0 0 0 0.83162,0.1764 l 0.57904,-0.8572 a 0.45544801,0.45544801 0 0 0 -0.10081,-0.6301 l -0.50404,-0.3782 a 0.45544801,0.45544801 0 0 0 0.0756,-0.1512 l 0.20161,-0.6553 a 0.45544801,0.45544801 0 0 0 -0.12581,-0.4548 l -0.55444,-0.504 a 0.45544801,0.45544801 0 0 0 -0.17641,-0.1009 l -0.20162,-0.076 0.0504,-0.1764 a 0.45544801,0.45544801 0 0 0 -0.025,-0.3532 l -0.47904,-0.9323 a 0.45544801,0.45544801 0 0 0 -0.55404,-0.2266 l -0.30242,0.1008 a 0.45544801,0.45544801 0 0 0 -0.0504,-0.3276 0.45544801,0.45544801 0 0 0 0.22681,0.05 h 0.75606 a 0.45544801,0.45544801 0 0 0 0.45363,-0.4536 v -0.3277 c 0.0347,0.024 0.0661,0.052 0.10081,0.076 a 0.45544801,0.45544801 0 0 0 0.55404,-0.026 l 0.95767,-0.8316 a 0.45544801,0.45544801 0 0 0 -0.12662,-0.7814 l -0.88146,-0.3533 -0.37822,-0.7806 a 0.45544801,0.45544801 0 0 0 -0.35283,-0.252 l -1.41131,-0.1512 -0.0252,-0.2017 a 0.45544801,0.45544801 0 0 0 -0.0252,-0.05 l 0.30242,0.05 a 0.45544801,0.45544801 0 0 0 0.37662,-0.1258 l 0.35323,-0.3282 0.83146,-0.1766 a 0.45544801,0.45544801 0 0 0 0.10081,-0.05 c 0.21451,-0.104 0.45968,-0.1661 0.68065,-0.2516 a 0.45544801,0.45544801 0 0 0 0.17641,0.5292 l 1.91534,1.3105 v 0.4284 l -0.70565,0.7057 a 0.45544801,0.45544801 0 0 0 -0.0758,0.529 l 1.08389,2.1928 a 0.45544801,0.45544801 0 0 0 0.62984,0.2016 l 0.75606,-0.4032 a 0.45544801,0.45544801 0 0 0 0.15121,-0.1764 l 0.83162,-1.3609 c 1.37017,-0.432 2.66809,-0.9034 3.98189,-1.5122 a 0.45544801,0.45544801 0 0 0 0.22662,-0.2266 l 1.10888,-2.8226 a 0.45544801,0.45544801 0 0 0 -0.27722,-0.6048 l -2.41938,-0.9324 a 0.45544801,0.45544801 0 0 0 -0.20162,-0.025 z m 0.0504,0.4536 2.41938,0.9324 -1.10888,2.8226 c -1.35445,0.6277 -2.65769,1.1212 -4.0827,1.5625 l -0.90727,1.487 -0.75605,0.4032 -1.08308,-2.1927 0.83146,-0.8315 v -0.8569 l -2.11696,-1.4617 0.63005,-0.6048 3.40229,-0.9577 2.77221,-0.3024 z m -6.47683,0.3276 0.30242,0.5041 c -0.67017,0.2177 -1.30808,0.4233 -1.94034,0.7314 l -0.93227,0.2016 -0.45323,0.4283 -1.20969,-0.2267 c 0.76943,-0.3844 1.5559,-0.7305 2.36897,-1.0332 0.0117,0 0.0387,0 0.0504,0 l 0.0252,-0.025 c 0.58898,-0.2175 1.18001,-0.4073 1.78937,-0.5796 z m -5.49401,2.3942 0.45363,0.9325 0.35283,-0.7309 0.85686,-0.2016 0.0756,0.5292 1.76413,0.2016 0.45363,0.9577 1.03324,0.4032 -0.95767,0.8317 c -0.61452,-0.417 -1.22421,-0.8154 -1.83873,-1.2339 l -0.93227,-0.3274 c -0.40516,0.2713 -0.76148,0.5498 -1.15928,0.8316 l -0.47884,1.0585 h -0.90727 l 0.45364,-1.1593 0.73065,-0.6299 -0.10081,-1.033 0.20162,-0.4283 z m 23.51313,0.3781 -1.76413,0.4284 a 0.45544801,0.45544801 0 0 0 -0.15121,0.076 l -1.08227,0.7315 a 0.45544801,0.45544801 0 0 0 -0.20161,0.378 v 0.3528 l -1.56252,1.0332 a 0.45544801,0.45544801 0 0 0 -0.20161,0.4789 l 0.37803,1.6633 a 0.45544801,0.45544801 0 0 0 0.45363,0.3528 0.45544801,0.45544801 0 0 0 0.0252,0.2268 l 0.0504,0.1261 h -0.35283 a 0.45544801,0.45544801 0 0 0 -0.35242,0.1758 l -0.20162,-0.1764 c -0.21002,-0.5479 -0.44845,-1.0871 -0.70565,-1.613 a 0.45544801,0.45544801 0 0 0 -0.40323,-0.252 h -0.57964 a 0.45544801,0.45544801 0 0 0 -0.45364,0.4536 v 0.6049 a 0.45544801,0.45544801 0 0 0 0.0252,0.2016 0.45544801,0.45544801 0 0 0 -0.0504,0.025 l -0.65525,0.2016 a 0.45544801,0.45544801 0 0 0 -0.32762,0.5041 l 0.20161,1.134 a 0.45544801,0.45544801 0 0 0 0.65525,0.3276 l 0.37803,-0.2016 -0.0504,0.378 a 0.45544801,0.45544801 0 0 0 0.0252,0.2017 l -0.10081,0.025 a 0.45544801,0.45544801 0 0 0 -0.22682,0.7812 l 0.65525,0.6805 h -0.32762 a 0.45544801,0.45544801 0 0 0 -0.225,0.051 l -1.20969,0.6552 a 0.45544801,0.45544801 0 0 0 -0.22682,0.4032 v 1.865 a 0.45544801,0.45544801 0 0 0 0.45363,0.4536 h 0.32763 l 0.35282,0.4033 c -0.85218,0.9688 -1.6813,1.9345 -2.49502,2.9485 a 0.45544801,0.45544801 0 0 0 -0.0756,0.1008 l -1.00807,2.3943 a 0.45544801,0.45544801 0 0 0 0.0756,0.4788 l 0.2258,0.2782 -0.62984,0.9573 a 0.45544801,0.45544801 0 0 0 -0.0504,0.4284 l 0.93242,2.1926 a 0.45544801,0.45544801 0 0 0 0.0756,0.126 c 0.78285,0.8873 1.55937,1.7804 2.34373,2.6714 a 0.45544801,0.45544801 0 0 0 0.65525,0.05 l 0.80646,-0.7056 0.22682,0.252 a 0.45544801,0.45544801 0 0 0 0.58065,0.077 l 0.90726,-0.6048 0.17642,0.2016 a 0.45544801,0.45544801 0 0 0 0.32762,0.1512 h 1.00808 l 0.42843,0.4788 -0.35283,1.1846 a 0.45544801,0.45544801 0 0 0 0.0756,0.4284 l 0.78065,0.8823 -0.0504,1.5121 a 0.45544801,0.45544801 0 0 0 0.0504,0.2268 l 0.52924,1.0585 -0.37803,0.8821 a 0.45544801,0.45544801 0 0 0 -0.0242,0.1516 c -0.0463,0.7751 -0.0756,1.5118 -0.0756,2.2934 a 0.45544801,0.45544801 0 0 0 0.0252,0.1512 c 0.36821,1.0158 0.73566,2.0525 1.08372,3.0746 0.009,0.025 0.0167,0.051 0.0252,0.076 l 0.22681,1.5121 v 0.076 0.7813 a 0.45544801,0.45544801 0 0 0 0.45364,0.4536 h 0.65524 a 0.45544801,0.45544801 0 0 0 0.25202,-0.076 l 0.88211,-0.5544 h 1.08372 a 0.45544801,0.45544801 0 0 0 0.35283,-0.1512 l 1.78872,-2.0404 a 0.45544801,0.45544801 0 0 0 0.0758,-0.454 l -0.12581,-0.3782 0.98308,-0.8315 a 0.45544801,0.45544801 0 0 0 0.0504,-0.6552 l -0.58065,-0.6549 0.65525,-0.5544 0.0504,-0.025 0.95767,-0.6049 a 0.45544801,0.45544801 0 0 0 0.0756,-0.076 l 0.47883,-0.5292 a 0.45544801,0.45544801 0 0 0 0.10081,-0.4284 l -0.27722,-1.0333 v -0.025 -2.7974 l 0.75606,-1.5878 1.00807,-1.134 a 0.45544801,0.45544801 0 0 0 0.0756,-0.126 l 1.08372,-2.7218 a 0.45544801,0.45544801 0 0 0 0.025,-0.1767 v -0.7308 a 0.45544801,0.45544801 0 0 0 -0.50404,-0.454 c -0.10601,0.013 -0.1998,0.012 -0.30242,0.025 l 0.17641,-0.1765 1.46171,-0.9829 a 0.45544801,0.45544801 0 0 0 0.1008,-0.076 l 0.83163,-0.9576 a 0.45544801,0.45544801 0 0 0 0.1008,-0.3025 v -1.0584 a 0.45544801,0.45544801 0 0 0 -0.0252,-0.1765 0.45544801,0.45544801 0 0 0 0.63005,-0.05 l 0.68045,-0.756 a 0.45544801,0.45544801 0 0 0 0.12581,-0.3774 c -0.99356,-6.0864 -4.22747,-11.4243 -8.79525,-15.1712 a 0.45544801,0.45544801 0 0 0 -0.42843,-0.076 0.45544801,0.45544801 0 0 0 -0.17642,-0.4032 c -0.025,-0.019 -0.0669,-0.056 -0.1258,-0.1008 a 0.45544801,0.45544801 0 0 0 -0.20162,-0.1008 l -1.94034,-0.3524 -0.0758,-0.025 -1.13404,-0.4033 a 0.45544801,0.45544801 0 0 0 -0.25202,-0.025 z m 0.10081,0.4536 1.20969,0.4284 2.01615,0.3781 c 0.0416,0.032 0.0846,0.069 0.12601,0.1008 l -0.50404,0.5544 h -1.18453 l 1.18453,1.2601 0.93243,-1.0585 0.17641,-0.2772 c 4.48553,3.6791 7.64524,8.9202 8.62025,14.8945 l -0.68045,0.7561 c -0.42339,-0.5009 -0.90243,-0.8968 -1.3855,-1.3355 l -1.05848,0.1512 -0.95767,-1.0838 v 1.3357 l 0.80646,0.6301 0.57964,0.63 0.73086,-0.8316 c 0.1859,0.3488 0.3698,0.6844 0.55444,1.0332 v 1.0585 l -0.83162,0.9577 -1.53727,1.0332 -1.08372,1.1089 c 0.53502,-0.039 1.04081,-0.1074 1.58775,-0.1764 v 0.7308 l -1.08372,2.7218 -1.00807,1.1341 -0.85687,1.7893 v 2.9235 l 0.30243,1.1592 -0.47884,0.5293 -1.00807,0.63 -1.05848,0.8821 0.8821,1.0081 -1.20968,1.0332 0.22681,0.6805 -1.78937,2.0413 h -1.20969 l -1.00807,0.63 h -0.65525 v -0.8568 l -0.25202,-1.6633 c -0.35695,-1.0504 -0.73087,-2.1074 -1.10888,-3.1502 0,-0.7698 0.0297,-1.4985 0.0756,-2.2682 l 0.45364,-1.0585 -0.63005,-1.2601 0.0504,-1.7137 -0.8821,-1.0081 0.42843,-1.4364 -0.70565,-0.8065 h -1.23485 l -0.42843,-0.4788 -1.23486,0.8064 -0.53065,-0.5782 -1.13388,0.9823 c -0.78318,-0.8896 -1.55945,-1.7826 -2.34373,-2.6714 l -0.93227,-2.1928 0.83162,-1.2601 -0.45363,-0.5292 1.00807,-2.3942 c 0.83283,-1.038 1.69075,-2.0249 2.57059,-3.0243 l 1.58776,-0.4284 1.73889,-0.2268 1.20969,0.3276 1.68856,1.7389 0.60485,-0.7057 0.83162,-0.076 1.58776,0.5041 h 1.18452 l 0.83066,-0.7299 0.35323,-0.5298 -0.80646,-0.5291 -1.38631,-0.1008 c -0.3841,-0.5338 -0.75363,-1.0881 -1.20969,-1.5625 l -0.45363,0.2016 -0.17581,1.3613 -0.85646,-0.9322 -0.17661,-1.0339 -0.93308,-0.7557 h -0.35282 l 0.93243,1.0585 -0.37803,0.9577 -0.75606,0.2016 0.45364,-0.9577 -0.80646,-0.4032 -0.75606,-0.8569 -1.3609,0.3277 -0.20161,0.4284 -0.80646,0.504 -0.47884,1.1593 -1.15928,0.5797 -0.50404,-0.5797 H 156.215 v -1.8649 l 1.20969,-0.6553 h 0.93243 l -0.20162,-0.7056 -0.73085,-0.7561 1.23485,-0.252 0.70565,-0.7813 0.55444,-0.9576 h 1.00807 l -0.27722,-0.7309 0.63005,-0.4032 v 0.8316 l 1.38614,0.3024 1.38615,-1.134 0.1008,-0.5292 1.20969,-0.8317 c -0.43372,0.054 -0.8867,0.086 -1.31049,0.2016 v -0.9324 l 0.45363,-1.0585 h -0.45363 l -1.00808,0.9577 -0.27722,0.5041 0.27722,0.756 -0.45363,1.2349 -0.73086,-0.4285 -0.65524,-0.7056 -1.00808,0.7056 -0.37803,-1.6633 1.76413,-1.1593 v -0.6048 l 1.08372,-0.7309 1.76413,-0.4284 z m 7.71177,21.7244 c -0.0264,0 -0.0492,0 -0.0756,0 l 0.0252,0.025 0.0504,-0.025 z m -0.0756,0 -0.70566,-0.8065 0.35283,-0.9576 -0.73085,-0.8065 -1.2601,-2.6714 -1.05848,-1.2097 -0.25201,0.3024 0.40323,1.5373 0.78125,0.8821 c 0.4473,1.2937 0.89953,2.5185 1.48695,3.7551 0.33301,0 0.65902,0 0.98292,-0.025 z m -32.83823,-21.6486 0.10081,0.025 0.55444,0.3276 -0.10081,1.1341 -1.00807,0.9576 -2.29341,1.3609 0.27722,0.9325 1.73889,0.7308 0.27722,1.2601 0.65524,-1.3609 1.00808,-0.4284 -0.10081,-0.6301 1.03324,-1.7641 1.28533,0.7309 -0.17641,0.8316 1.08372,-0.4032 0.47884,0.9324 -0.20162,0.63 0.65525,0.2016 0.55444,0.5041 -0.20162,0.6552 -1.56251,0.5293 h -1.10888 l -1.56252,0.7056 h 2.49503 l -0.83162,1.2601 -1.66333,0.3276 -0.73085,1.0333 -1.28534,0.5292 -0.65524,1.5625 -1.73889,1.4617 -0.20162,2.117 -1.00807,-1.2601 -1.38614,-0.3276 -0.17642,0.63 h -1.10888 l -1.38614,1.0585 -0.20162,1.2348 0.10081,1.1593 0.93243,0.5293 0.63005,-0.3277 0.65524,-0.8316 h 0.65525 c -0.093,0.7324 -0.18484,1.46 -0.27722,2.1926 l 1.10888,-0.1008 v 1.1341 l 0.37803,1.0584 c 0.44759,0.2799 1.0605,0.2871 1.56292,0.4323 v -0.2016 l 1.66332,-1.4617 1.56252,1.134 1.83969,-0.2016 0.73086,1.991 1.38614,0.3024 0.73085,1.4617 c 1.503,0.7747 3.02205,1.5663 4.53634,2.3186 l -0.17641,1.5625 -1.10889,1.5625 0.17642,2.0918 -0.73086,1.6886 -1.38614,0.3024 -0.65525,0.9577 0.27722,0.6048 -0.93243,2.3186 -1.18452,0.4032 -0.27722,0.7309 -0.75606,0.756 0.20161,0.5041 c 0,0 -0.17009,0.1381 -0.35282,0.2772 -0.0458,0.034 -0.25716,-0.067 -0.55444,-0.2016 -0.034,-0.015 -0.0899,-0.034 -0.12601,-0.05 -0.0131,-0.01 -0.0373,-0.018 -0.0504,-0.025 -0.83856,-0.4577 -1.64405,-0.9625 -2.41938,-1.5121 -0.0323,-0.1428 -0.0242,-0.1766 -0.0242,-0.1766 l 0.57904,-2.3944 -0.57904,-1.2347 0.1,-2.2178 -0.73065,-1.0331 -1.66292,-1.4621 -1.66372,-3.0492 0.45403,-1.5621 -0.17661,-0.429 0.55404,-0.8315 0.75645,-1.9911 v -0.1513 l -0.55484,-0.2766 -0.75565,0.1258 -1.2855,-0.9322 -0.83146,-1.0589 -1.94034,-0.5291 -1.94034,-1.1588 c 0,0 -0.30388,-0.477 -0.55444,-0.9073 0.40157,-7.1126 3.85399,-13.4195 9.07267,-17.6163 0.18819,-0.038 0.45363,-0.076 0.45363,-0.076 l 0.12601,-0.378 c 0.31452,-0.2379 0.63153,-0.483 0.95767,-0.7057 z m 15.95258,0.8316 a 0.45544801,0.45544801 0 0 0 -0.12601,0.05 l -0.57904,0.3274 -0.17581,-0.05 a 0.45544801,0.45544801 0 0 0 -0.57984,0.3783 l -0.0756,0.6552 a 0.45544801,0.45544801 0 0 0 0.20162,0.4285 l 0.63004,0.4032 a 0.45544801,0.45544801 0 0 0 0.50404,0 l 1.10888,-0.7309 a 0.45544801,0.45544801 0 0 0 0.10081,-0.6804 l -0.55404,-0.6307 a 0.45544801,0.45544801 0 0 0 -0.45363,-0.1512 z m -13.02836,0.1266 0.60485,0.2016 -0.65525,0.4789 a 0.45544801,0.45544801 0 0 0 0.0252,0.756 l 0.37803,0.2773 -0.90727,-0.5293 a 0.45544801,0.45544801 0 0 0 -0.62984,0.1758 l -0.12601,0.2016 0.42843,-0.9324 c 0.30403,-0.2185 0.59436,-0.4298 0.88227,-0.6306 z m 13.12997,0.3277 0.55444,0.63 -1.10888,0.7309 -0.63005,-0.4033 0.0756,-0.6552 0.37803,0.1008 0.73085,-0.4032 z m -12.1727,0.2016 0.93243,0.4284 v 0.7309 h -0.75606 l -0.90726,-0.6301 0.73085,-0.5292 z m 24.01717,0.3528 h 0.15121 a 0.45544801,0.45544801 0 0 0 0.10081,0 l -0.125,0.1258 -0.12581,-0.1258 z m -27.92366,0.8065 a 0.45544801,0.45544801 0 0 0 0.32762,0.1512 h 0.90727 a 0.45544801,0.45544801 0 0 0 0.30242,-0.1008 l -0.80646,1.3861 a 0.45544801,0.45544801 0 0 0 -0.0504,0.3024 l 0.0504,0.2772 -0.68045,0.2773 a 0.45544801,0.45544801 0 0 0 -0.22681,0.2268 l -0.0758,0.1766 a 0.45544801,0.45544801 0 0 0 -0.27722,-0.3024 l -1.56211,-0.6557 -0.10081,-0.3532 1.99115,-1.1839 a 0.45544801,0.45544801 0 0 0 0.0758,-0.076 l 0.1258,-0.1258 z m 24.26959,1.2096 h 0.30243 a 0.45544801,0.45544801 0 0 0 -0.075,0.1759 l -0.0756,0.378 -0.50404,0.4032 0.35283,-0.9577 z m -5.79643,0.051 h 0.57965 c 0.27142,0.5549 0.51399,1.1099 0.73085,1.6885 l 0.63005,0.6049 -0.73086,0.7308 -1.03323,0.2268 0.20161,-1.2853 v -0.9324 l -0.37802,-0.4285 v -0.6048 z m 4.05746,1.0584 0.32763,0.2016 -0.32763,-0.076 v -0.126 z m -4.41036,0.2016 0.35282,0.9325 -0.80646,0.4032 -0.20161,-1.134 0.65525,-0.2017 z m -12.72674,1.8902 0.83162,0.6049 -0.57964,0.8568 -0.25202,-1.4617 z m 16.53242,2.7975 0.55565,0.6298 a 0.45544801,0.45544801 0 0 0 0.15121,0.1008 l 0.40323,0.2016 -0.25202,0.5545 a 0.45544801,0.45544801 0 0 0 0.52924,0.63 l 0.75606,-0.2016 a 0.45544801,0.45544801 0 0 0 0.30242,-0.252 l 0.0756,-0.2016 a 0.45544801,0.45544801 0 0 0 0.0756,0.1008 l 0.85687,0.9324 a 0.45544801,0.45544801 0 0 0 0.78125,-0.252 l 0.12601,-0.9324 c 0.30245,0.3647 0.58351,0.7443 0.88211,1.1593 a 0.45544801,0.45544801 0 0 0 0.35081,0.1774 l 1.26009,0.1008 0.32762,0.2016 -0.0252,0.05 -0.0252,0.025 -0.68045,0.6048 h -0.95767 -0.0504 l -1.46211,-0.4782 a 0.45544801,0.45544801 0 0 0 -0.17662,-0.026 l -0.83146,0.076 a 0.45544801,0.45544801 0 0 0 -0.30242,0.1512 l -0.27742,0.3275 -1.3355,-1.3864 a 0.45544801,0.45544801 0 0 0 -0.20162,-0.1008 l -1.20968,-0.3276 a 0.45544801,0.45544801 0 0 0 -0.17662,-0.026 l -1.73873,0.2274 0.42823,-1.0339 0.68066,-0.4282 a 0.45544801,0.45544801 0 0 0 0.15121,-0.1764 l 0.1008,-0.2268 0.90727,-0.2016 z m 13.60901,6.2752 a 0.45544801,0.45544801 0 0 0 -0.0504,0.025 l -0.40323,0.4536 -0.22682,-0.252 a 0.45544801,0.45544801 0 0 0 -0.0504,-0.05 l -0.10081,-0.076 a 0.45544801,0.45544801 0 0 0 0.0504,0 l 0.78126,-0.1008 z m -5.62006,0.2772 0.25202,0.3024 0.25202,0.5293 -0.40323,-0.4537 -0.10081,-0.378 z m 1.53727,2.9738 0.52924,0.6049 -0.12601,0.378 c -0.13607,-0.3247 -0.27772,-0.6537 -0.40323,-0.9829 z"
             style="opacity:0.1"
             id="path3983" />
          <path
             inkscape:connector-curvature="0"
             d="m 170.44014,1031.4495 a 17.627033,12.071045 0 1 1 -35.25348,0 17.627033,12.071045 0 1 1 35.25348,0 z"
             style="opacity:0.6;color:#000000;fill:url(#linearGradient5883);fill-rule:evenodd"
             id="path3897" />
          <path
             inkscape:connector-curvature="0"
             d="m 152.81283,1019.6629 c -2.98737,0 -5.83853,0.5621 -8.4767,1.5625 7.26201,0.1274 11.3606,0.8816 15.07837,2.9167 0.30984,0.1696 0.61843,0.3461 0.92453,0.5339 0.91823,0.5632 1.83139,1.213 2.77349,1.9531 4.06037,3.1904 4.41577,7.0728 7.86468,10.0388 2.0997,1.806 1.8155,1.6537 2.78648,1.6537 1.06267,0 1.60364,-0.9605 1.86203,-2.0053 -3.09277,-9.6549 -12.13641,-16.6534 -22.81312,-16.6534 z m -9.60977,4.401 c -0.50775,0 -1.01372,0.055 -1.51042,0.1563 -0.16556,0.034 -0.33083,0.073 -0.4948,0.1172 -4.59109,1.2299 -8.51944,6.2948 -9.80493,8.6202 -0.0817,0.1479 -0.17439,0.3218 -0.26042,0.4818 -0.68238,1.4489 -1.23187,2.9675 -1.61462,4.5573 0.3676,-0.4703 0.72536,-0.9118 1.08074,-1.3281 2.48768,-2.9146 4.76432,-4.4923 8.03395,-4.4923 5.83409,0 6.57531,2.5993 17.26549,9.5703 5.26142,3.4309 13.24529,8.1622 19.83084,8.867 0.27015,-0.8857 0.48414,-1.7954 0.65105,-2.7214 -2.46382,-0.1779 -4.68336,-1.117 -7.08338,-2.7083 -0.34274,-0.2266 -0.68952,-0.4621 -1.04114,-0.7162 -2.81132,-2.0306 -5.93554,-4.9016 -10.0001,-8.4629 -3.09519,-2.7122 -10.87914,-11.9405 -15.05256,-11.9405 z m -8.35896,27.3568 c -1.84985,0 -3.23011,0.9376 -3.38543,3.0469 2.59325,5.0911 6.94853,9.1307 12.26544,11.3154 -0.0705,-0.099 -0.13739,-0.2025 -0.20833,-0.3125 -0.49662,-0.77 -0.97655,-1.8115 -0.97655,-3.0079 0,-1.3918 0.90009,-1.9401 1.91406,-1.9401 1.35041,0 5.80787,2.1225 13.26867,2.1225 3.73157,0 8.38718,-0.5466 11.79689,-1.8621 1.34679,-1.3113 2.5318,-2.7794 3.54173,-4.375 -2.17954,0.8836 -6.2099,2.1615 -11.45817,2.1615 -10.13962,0 -19.38568,-4.3279 -22.05748,-5.7162 -0.70862,-0.3683 -2.52502,-1.4323 -4.70053,-1.4323 z"
             style="color:#000000;fill:url(#radialGradient5885);fill-rule:evenodd"
             id="path4540" />
          <path
             inkscape:connector-curvature="0"
             d="m 152.81283,1019.6564 c -2.98737,0 -5.84683,0.5653 -8.48476,1.5657 0.81089,0.014 1.58735,0.045 2.32324,0.076 1.9651,-0.5274 4.02996,-0.8333 6.16168,-0.8333 10.52833,0 19.46551,6.8159 22.67683,16.2631 0.0447,-0.1335 0.092,-0.2657 0.12627,-0.4041 -3.09196,-9.6549 -12.12592,-16.6671 -22.80345,-16.6671 z m -9.62107,4.4192 c -0.50774,0 -0.99323,0.05 -1.48993,0.1516 -0.16556,0.034 -0.34108,0.057 -0.50505,0.101 -4.5911,1.2299 -8.51299,6.3113 -9.79768,8.6363 -0.0817,0.1479 -0.19175,0.3198 -0.27778,0.4798 -0.68237,1.4489 -1.20815,2.9557 -1.5909,4.5456 0.10137,-0.1297 0.20301,-0.2282 0.30304,-0.3536 0.002,-0.01 -0.002,-0.018 0,-0.025 0.34687,-1.1576 0.77946,-2.2791 1.28791,-3.3586 0.086,-0.16 0.19604,-0.3319 0.27778,-0.4798 1.28509,-2.3251 5.20691,-7.4065 9.79768,-8.6364 0.16397,-0.044 0.33949,-0.067 0.50505,-0.101 0.49668,-0.1015 0.98219,-0.1515 1.48993,-0.1515 4.17351,0 11.98077,9.2074 15.07596,11.9195 4.06463,3.5615 7.18894,6.4541 10.0001,8.4847 0.35139,0.2539 0.69249,0.4798 1.03533,0.7071 2.34978,1.5579 4.5169,2.4715 6.91926,2.6768 0.0546,-0.2579 0.10453,-0.5222 0.15152,-0.7828 -2.46382,-0.1779 -4.67069,-1.1108 -7.0708,-2.7021 -0.34274,-0.2274 -0.68388,-0.454 -1.03549,-0.7072 -2.81132,-2.0315 -5.93554,-4.9235 -10.0001,-8.4856 -3.09519,-2.7113 -10.90253,-11.9187 -15.07595,-11.9187 z m -8.35895,27.3487 c -1.84985,0 -3.22858,0.9463 -3.3839,3.0556 0.0344,0.068 0.0659,0.1348 0.10101,0.202 0.35347,-1.6895 1.618,-2.4495 3.28285,-2.4495 2.17559,0 4.01367,1.0711 4.72223,1.4393 2.67147,1.3884 11.90656,5.7072 22.04537,5.7072 4.73755,0 8.47025,-1.0414 10.75737,-1.894 0.24811,-0.3499 0.47698,-0.7223 0.70708,-1.0859 -2.17954,0.8836 -6.21627,2.1717 -11.46463,2.1717 -10.13962,0 -19.37439,-4.3187 -22.04538,-5.7071 -0.70863,-0.3683 -2.54672,-1.4394 -4.72222,-1.4394 z m 7.72734,11.5404 c -0.0108,0.099 -0.0252,0.1934 -0.0252,0.3031 0,0.8444 0.24026,1.5984 0.55556,2.2475 0.21019,0.094 0.41797,0.1901 0.63132,0.2778 -0.0705,-0.099 -0.13108,-0.2183 -0.20202,-0.3283 -0.42691,-0.6619 -0.85162,-1.511 -0.95961,-2.5 z"
             style="opacity:0.6;color:#000000;fill:#ffffff;fill-rule:evenodd"
             id="path3870" />
          <path
             inkscape:connector-curvature="0"
             d="m 146.65148,1021.2976 c -0.78875,0.2117 -1.56768,0.4458 -2.32325,0.7323 7.262,0.1274 11.35817,0.8942 15.07595,2.9293 0.30984,0.1696 0.62829,0.3425 0.93437,0.5303 0.91823,0.5632 1.83574,1.2043 2.77777,1.9444 4.06036,3.1904 4.40472,7.0842 7.85362,10.051 2.0997,1.8059 1.83212,1.6414 2.80309,1.6414 1.06267,0 1.5851,-0.9502 1.84349,-1.9949 -0.043,-0.1343 -0.081,-0.2708 -0.12627,-0.4041 -0.29273,0.8736 -0.79531,1.5909 -1.71719,1.5909 -0.97098,0 -0.70335,0.1646 -2.8031,-1.6414 -3.44842,-2.9662 -3.79277,-6.8606 -7.8533,-10.0509 -0.94194,-0.7396 -1.85969,-1.3807 -2.77744,-1.9444 -0.30646,-0.1879 -0.62501,-0.3605 -0.93469,-0.5298 -3.30245,-1.8081 -6.89846,-2.6089 -12.75255,-2.8541 z m -8.03041,10.8839 c -3.26962,0 -5.54271,1.5805 -8.0304,4.495 -0.25325,0.2967 -0.49921,0.6108 -0.75758,0.9344 -0.002,0.01 0.002,0.018 0,0.025 -0.116,0.3886 -0.20734,0.7642 -0.30303,1.1616 0.36761,-0.4703 0.70523,-0.8968 1.06065,-1.3131 2.48769,-2.9146 4.7607,-4.495 8.03041,-4.495 5.83408,0 6.5824,2.5996 17.27275,9.5711 5.26142,3.4309 13.23803,8.1589 19.82358,8.8638 0.27014,-0.8858 0.48966,-1.8014 0.65657,-2.7273 -0.0516,0 -0.10008,-0.021 -0.15152,-0.025 -0.13949,0.6583 -0.31095,1.308 -0.50505,1.9445 -6.58555,-0.7049 -14.56144,-5.4331 -19.82358,-8.8638 -10.69043,-6.971 -11.43802,-9.5711 -17.27275,-9.5711 z m 34.4447,25.0253 c -0.21218,0.086 -0.46039,0.1858 -0.70708,0.2778 -0.8409,1.186 -1.78841,2.2955 -2.82834,3.308 -3.40987,1.3155 -8.08637,1.8435 -11.81866,1.8435 -7.46048,0 -11.90738,-2.1212 -13.25739,-2.1212 -1.01396,0 -1.91921,0.5526 -1.91921,1.9445 0,0.1495 0.0112,0.31 0.0252,0.4545 0.14405,-1.1257 0.97307,-1.5909 1.89397,-1.5909 1.35042,0 5.79723,2.1212 13.25739,2.1212 3.73157,0 8.40814,-0.528 11.81866,-1.8434 1.34679,-1.3114 2.52551,-2.7984 3.53536,-4.394 z"
             style="opacity:0.3;color:#000000;fill-rule:evenodd"
             id="path3888" />
        </g>
      </g>
    </g>
  </g>
</svg>
