<?xml version="1.0" encoding="UTF-8" standalone="no"?>
<!-- Created with Inkscape (http://www.inkscape.org/) -->

<svg
   xmlns:dc="http://purl.org/dc/elements/1.1/"
   xmlns:cc="http://creativecommons.org/ns#"
   xmlns:rdf="http://www.w3.org/1999/02/22-rdf-syntax-ns#"
   xmlns:svg="http://www.w3.org/2000/svg"
   xmlns="http://www.w3.org/2000/svg"
   xmlns:xlink="http://www.w3.org/1999/xlink"
   xmlns:sodipodi="http://sodipodi.sourceforge.net/DTD/sodipodi-0.dtd"
   xmlns:inkscape="http://www.inkscape.org/namespaces/inkscape"
   width="96"
   height="96"
   id="svg2"
   version="1.1"
   inkscape:version="0.48.1 r9760"
   sodipodi:docname="gtk-recordmydesktop.svg">
  <defs
     id="defs4">
    <filter
       color-interpolation-filters="sRGB"
       inkscape:collect="always"
       id="filter6279-2">
      <feGaussianBlur
         inkscape:collect="always"
         stdDeviation="0.8"
         id="feGaussianBlur6281-1" />
    </filter>
    <linearGradient
       inkscape:collect="always"
       xlink:href="#linearGradient3676"
       id="linearGradient5979"
       gradientUnits="userSpaceOnUse"
       gradientTransform="translate(0,-7.8515622e-6)"
       x1="48"
       y1="1052.3622"
       x2="48"
       y2="902.36218" />
    <linearGradient
       id="linearGradient3676">
      <stop
         id="stop3678-7"
         style="stop-color:#abc669"
         offset="0" />
      <stop
         id="stop3680"
         style="stop-color:#abc622"
         offset="1" />
    </linearGradient>
    <linearGradient
       inkscape:collect="always"
       xlink:href="#linearGradient3737-01"
       id="linearGradient6685"
       gradientUnits="userSpaceOnUse"
       x1="48"
       y1="20.221001"
       x2="48"
       y2="138.66" />
    <linearGradient
       id="linearGradient3737-01">
      <stop
         id="stop3739-01"
         style="stop-color:#fff"
         offset="0" />
      <stop
         id="stop3741-37"
         style="stop-color:#fff;stop-opacity:0"
         offset="1" />
    </linearGradient>
    <clipPath
       id="clipPath3613-7">
      <rect
         id="rect3615-26"
         style="fill:#ffffff"
         rx="6"
         ry="6"
         height="84"
         width="84"
         y="6"
         x="6" />
    </clipPath>
    <filter
       id="filter3794-45"
       height="1.3839999"
       width="1.3839999"
       color-interpolation-filters="sRGB"
       y="-0.192"
       x="-0.192">
      <feGaussianBlur
         id="feGaussianBlur3796-2"
         stdDeviation="5.28" />
    </filter>
    <linearGradient
       inkscape:collect="always"
       xlink:href="#linearGradient3784"
       id="linearGradient6687"
       gradientUnits="userSpaceOnUse"
       gradientTransform="translate(77.686998,986.5184)"
       x1="48"
       y1="8"
       x2="48"
       y2="80" />
    <linearGradient
       id="linearGradient3784"
       y2="80"
       gradientUnits="userSpaceOnUse"
       x2="48"
       y1="8"
       x1="48">
      <stop
         id="stop3846-0"
         style="stop-color:#9cbc4d"
         offset="0" />
      <stop
         id="stop3848-2"
         style="stop-color:#869b1b"
         offset="1" />
    </linearGradient>
  </defs>
  <sodipodi:namedview
     id="base"
     pagecolor="#ffffff"
     bordercolor="#666666"
     borderopacity="1.0"
     inkscape:pageopacity="0.0"
     inkscape:pageshadow="2"
     inkscape:zoom="3.959798"
     inkscape:cx="28.389459"
     inkscape:cy="57.490015"
     inkscape:document-units="px"
     inkscape:current-layer="layer1"
     showgrid="false"
     inkscape:window-width="1280"
     inkscape:window-height="725"
     inkscape:window-x="0"
     inkscape:window-y="25"
     inkscape:window-maximized="1" />
  <metadata
     id="metadata7">
    <rdf:RDF>
      <cc:Work
         rdf:about="">
        <dc:format>image/svg+xml</dc:format>
        <dc:type
           rdf:resource="http://purl.org/dc/dcmitype/StillImage" />
        <dc:title></dc:title>
      </cc:Work>
    </rdf:RDF>
  </metadata>
  <g
     inkscape:label="Layer 1"
     inkscape:groupmode="layer"
     id="layer1"
     transform="translate(0,-956.36217)">
    <g
       transform="translate(2.861023e-8,-9.737015e-6)"
       id="g6700">
      <rect
         transform="translate(0,-7.8515622e-6)"
         y="964.36218"
         x="8"
         height="80"
         width="80"
         id="rect9283"
         style="fill:#000000;fill-opacity:1;stroke:none;filter:url(#filter6279-2)"
         rx="5"
         ry="5" />
      <rect
         ry="5"
         rx="5"
         style="fill:url(#linearGradient5979);fill-opacity:1;stroke:none"
         id="rect9285"
         width="80"
         height="80"
         x="8"
         y="964.36218" />
      <g
         transform="translate(-182.1875,-40.40625)"
         id="g26594">
        <g
           id="g6689">
          <g
             id="g6674"
             transform="matrix(0.68881321,0,0,0.68881321,142.17779,333.19034)">
            <g
               transform="translate(77.686998,986.5184)"
               id="layer5">
              <rect
                 x="15"
                 y="15"
                 width="66"
                 height="66"
                 ry="12"
                 rx="12"
                 clip-path="url(#clipPath3613-7)"
                 style="opacity:0.1;fill:url(#linearGradient6685);stroke:#ffffff;stroke-width:0.5;stroke-linecap:round;filter:url(#filter3794-45)"
                 id="rect3171" />
            </g>
            <path
               id="path3749"
               style="color:#000000;fill:url(#linearGradient6687)"
               d="m 133.531,995.7059 c -24.207,0 -43.844002,16.532 -43.844002,36.938 1.151,-15.39 14.996002,-27.532 31.906002,-27.532 17.664,0 32,13.236 32,29.594 0,16.357 -14.336,29.625 -32,29.625 -7.9875,0 -15.27,-2.7043 -20.875,-7.1875 8.0295,7.6327 19.758,12.438 32.812,12.438 13.817,0 26.123,-5.391 34.157,-13.814 v -46.25 c -8.034,-8.418 -20.338,-13.812 -34.156,-13.812 z m -18.282,15.812 c -13.482,0 -24.406002,10.259 -24.406002,22.906 0,12.648 10.925002,22.875 24.406002,22.875 13.482,0 24.438,-10.227 24.438,-22.875 0,-12.647 -10.956,-22.906 -24.438,-22.906 z m 0,4.375 c 11.188,0 20.281,8.312 20.281,18.531 0,10.219 -9.093,18.5 -20.281,18.5 -11.188,0 -20.250002,-8.2808 -20.250002,-18.5 0,-10.2192 9.061702,-18.531 20.250002,-18.531 z m -1.687,7.875 c -6.534,0 -11.844,4.7834 -11.844,10.656 0,5.8729 5.3097,10.625 11.844,10.625 6.534,0 11.812,-4.7521 11.812,-10.625 0.001,-5.873 -5.278,-10.656 -11.812,-10.656 z m 0,3.1875 c 4.5779,0 8.2812,3.3541 8.2812,7.4688 0,4.1147 -3.7034,7.4375 -8.2812,7.4375 -4.5779,0 -8.3125,-3.3228 -8.3125,-7.4375 0,-4.1147 3.7346,-7.4688 8.3125,-7.4688 z"
               inkscape:connector-curvature="0" />
            <path
               id="path3796"
               style="opacity:0.2;color:#000000"
               d="m 133.531,995.7059 c -24.207,0 -43.844002,16.532 -43.844002,36.938 0.01098,-0.1469 0.04921,-0.2912 0.0625,-0.4375 0.89584,-19.739 20.145002,-35.5 43.781002,-35.5 13.818,0 26.122,5.394 34.156,13.812 v -1 c -8.034,-8.418 -20.338,-13.812 -34.156,-13.812 z m -18.282,15.812 c -13.482,0 -24.406002,10.259 -24.406002,22.906 0,0.1663 -0.0038,0.3346 0,0.5 0.282,-12.418 11.102002,-22.406 24.406002,-22.406 13.305,0 24.155,9.988 24.438,22.406 0.004,-0.1654 0,-0.3337 0,-0.5 0,-12.647 -10.956,-22.906 -24.438,-22.906 z m -1.687,12.25 c -6.534,0 -11.844,4.7834 -11.844,10.656 0,0.1679 0.0227,0.3341 0.0312,0.5 0.292,-5.641 5.466,-10.156 11.813,-10.156 6.3473,0 11.491,4.5147 11.781,10.156 0.008,-0.1659 0.0312,-0.3321 0.0312,-0.5 0.001,-5.873 -5.278,-10.656 -11.812,-10.656 z m -18.531002,11.156 c -0.005,0.1694 -0.03125,0.3295 -0.03125,0.5 0,10.219 9.061702,18.5 20.250002,18.5 11.1883,0 20.281,-8.2808 20.281,-18.5 0,-0.1705 -0.0262,-0.3306 -0.0312,-0.5 -0.29642,9.9834 -9.2484,18 -20.25,18 -11.0016,0 -19.923002,-8.0166 -20.219002,-18 z m 10.250002,0 c -0.0128,0.1688 -0.0312,0.3284 -0.0312,0.5 0,4.1147 3.7346,7.4375 8.3125,7.4375 4.5779,0 8.2812,-3.3228 8.2812,-7.4375 0,-0.1716 -0.0186,-0.3312 -0.0312,-0.5 -0.29129,3.8756 -3.863,6.9375 -8.25,6.9375 -4.387,0 -7.9876,-3.0619 -8.2812,-6.9375 z m 48.312,0.2813 c -0.28834,16.127 -14.516,29.125 -32,29.125 -7.9875,0 -15.27,-2.7043 -20.875,-7.1875 1.9485,1.8522 4.1185,3.5404 6.4688,5.0312 4.3273,2.0289 9.2173,3.1562 14.406,3.1562 17.664,0 32,-13.268 32,-29.625 0,-0.1669 0.003,-0.3339 0,-0.5 z"
               inkscape:connector-curvature="0" />
            <path
               id="path3798"
               style="opacity:0.4;color:#000000;fill:#ffffff"
               d="m 121.593,1005.1124 c -16.748,0 -30.465002,11.914 -31.844002,27.094 -0.021,0.476 -0.062,0.956 -0.062,1.437 1.151,-15.389 14.996002,-27.531 31.906002,-27.531 17.484,0 31.712,12.967 32,29.094 0.003,-0.1662 0,-0.3332 0,-0.5 0,-16.357 -14.336,-29.594 -32,-29.594 z m -6.344,10.781 c -11.188,0 -20.250002,8.312 -20.250002,18.531 0,0.1705 0.02624,0.3306 0.03125,0.5 0.296,-9.984 9.218002,-18.031 20.219002,-18.031 11.002,0 19.954,8.0469 20.25,18.031 0.005,-0.1694 0.0312,-0.3295 0.0312,-0.5 0.001,-10.219 -9.092,-18.531 -20.281,-18.531 z m -1.687,11.063 c -4.5779,0 -8.3125,3.3541 -8.3125,7.4688 0,0.1716 0.0185,0.3313 0.0312,0.5 0.29368,-3.8779 3.8943,-6.9688 8.2812,-6.9688 4.387,0 7.9587,3.0908 8.25,6.9688 0.0127,-0.1687 0.0312,-0.3284 0.0312,-0.5 0,-4.1147 -3.7034,-7.4688 -8.2812,-7.4688 z m -22.719002,7.9688 c -0.0038,0.1655 0,0.3337 0,0.5 0,12.648 10.925002,22.875 24.406002,22.875 13.482,0 24.438,-10.227 24.438,-22.875 0,-0.1663 0.004,-0.3345 0,-0.5 -0.28288,12.417 -11.133,22.375 -24.438,22.375 -13.304,0 -24.124002,-9.9579 -24.406002,-22.375 z m 10.906002,0 c -0.009,0.166 -0.0312,0.3322 -0.0312,0.5 0,5.8729 5.3097,10.625 11.844,10.625 6.534,0 11.812,-4.7521 11.812,-10.625 0,-0.1678 -0.0227,-0.334 -0.0312,-0.5 -0.2899,5.6399 -5.434,10.125 -11.781,10.125 -6.3473,0 -11.521,-4.4851 -11.812,-10.125 z m 65.938,20.843 c -8.034,8.423 -20.34,13.812 -34.156,13.812 -9.887,0 -19.009,-2.753 -26.344,-7.406 -2.334,-1.094 -4.505,-2.46 -6.469,-4.031 8.03,7.633 19.759,12.437 32.813,12.437 13.816,0 26.122,-5.389 34.156,-13.812 v -1 z"
               inkscape:connector-curvature="0" />
            <path
               id="path3821"
               style="opacity:0.05;color:#000000"
               d="m 133.531,995.7059 c -24.207,0 -43.844002,16.532 -43.844002,36.938 1.151,-15.39 14.996002,-27.532 31.906002,-27.532 17.664,0 32,13.236 32,29.594 0,16.357 -14.336,29.625 -32,29.625 -7.9875,0 -15.27,-2.7043 -20.875,-7.1875 8.0295,7.6327 19.758,12.438 32.812,12.438 13.817,0 26.123,-5.391 34.157,-13.814 v -3.5 l -2.8125,2.125 v 0.094 c -7.47,7.412 -18.665,12.281 -31.344,12.281 -1.5341,0 -2.9796,-0.2695 -4.4688,-0.4063 15.541,-3.1913 27.344,-16.072 27.344,-31.656 0,-18.006 -15.739,-32.406 -34.812,-32.406 -3.2757,0 -6.3907,0.5495 -9.4062,1.3438 6.205,-3.171 13.453,-5.126 21.343,-5.126 12.574,0 23.687,4.789 31.156,12.094 v -0.094 l 3,3 v -4 c -8.034,-8.418 -20.338,-13.812 -34.156,-13.812 z m -18.282,15.812 c -13.482,0 -24.406002,10.259 -24.406002,22.906 0,12.648 10.925002,22.875 24.406002,22.875 13.482,0 24.438,-10.227 24.438,-22.875 0,-12.647 -10.956,-22.906 -24.438,-22.906 z m 0,4.375 c 11.188,0 20.281,8.312 20.281,18.531 0,10.219 -9.093,18.5 -20.281,18.5 -11.188,0 -20.250002,-8.2808 -20.250002,-18.5 0,-10.2192 9.061702,-18.531 20.250002,-18.531 z m -1.687,7.875 c -6.534,0 -11.844,4.7834 -11.844,10.656 0,5.8729 5.3097,10.625 11.844,10.625 6.534,0 11.812,-4.7521 11.812,-10.625 0.001,-5.873 -5.278,-10.656 -11.812,-10.656 z m 0,3.1875 c 4.5779,0 8.2812,3.3541 8.2812,7.4688 0,4.1147 -3.7034,7.4375 -8.2812,7.4375 -4.5779,0 -8.3125,-3.3228 -8.3125,-7.4375 0,-4.1147 3.7346,-7.4688 8.3125,-7.4688 z"
               inkscape:connector-curvature="0" />
            <path
               id="path3807"
               style="opacity:0.15;color:#000000"
               d="m 133.531,995.7059 c -24.207,0 -43.844002,16.532 -43.844002,36.938 1.151,-15.39 14.996002,-27.532 31.906002,-27.532 17.664,0 32,13.236 32,29.594 0,16.357 -14.336,29.625 -32,29.625 -7.9875,0 -15.27,-2.7043 -20.875,-7.1875 8.0295,7.6327 19.758,12.438 32.812,12.438 13.817,0 26.123,-5.391 34.157,-13.814 v -0.812 l -3,2.562 v -0.094 c -7.814,6.929 -18.857,11.282 -31.156,11.282 -7.7224,0 -14.837,-1.8558 -21.094,-4.8438 2.9179,0.7887 5.9626,1.3438 9.1562,1.3438 18.095,0 32.875,-13.64 32.875,-30.5 0,-16.86 -14.781,-30.469 -32.875,-30.469 -10.744,0 -20.283,4.8234 -26.281002,12.25 7.072002,-11.739 21.408002,-19.907 38.219002,-19.907 12.301,0 23.342,4.355 31.156,11.282 v -0.344 l 1.75,2 c 0.11962,0.1199 0.25722,0.2226 0.375,0.3438 v 0.062 l 0.875,1 v -1.4061 c -8.034,-8.418 -20.338,-13.81195 -34.156,-13.81195 z m -18.282,15.812 c -13.482,0 -24.406002,10.259 -24.406002,22.906 0,12.648 10.925002,22.875 24.406002,22.875 13.482,0 24.438,-10.227 24.438,-22.875 0,-12.647 -10.956,-22.906 -24.438,-22.906 z m 0,0.875 c 13.045,0 23.562,9.8808 23.562,22.031 0,12.1502 -10.516,22 -23.562,22 -13.046,0 -23.531002,-9.8482 -23.531002,-22 0,-12.1518 10.486002,-22.031 23.531002,-22.031 z m 0,2.625 c -11.615,0 -21.125002,8.6782 -21.125002,19.406 0,10.7278 9.512002,19.375 21.125002,19.375 11.613,0 21.156,-8.6452 21.156,-19.375 0.001,-10.73 -9.541,-19.406 -21.156,-19.406 z m 0,0.875 c 11.188,0 20.281,8.312 20.281,18.531 0,10.219 -9.093,18.5 -20.281,18.5 -11.188,0 -20.250002,-8.2808 -20.250002,-18.5 0,-10.2192 9.061702,-18.531 20.250002,-18.531 z m -1.687,7.875 c -6.534,0 -11.844,4.7834 -11.844,10.656 0,5.8729 5.3097,10.625 11.844,10.625 6.534,0 11.812,-4.7521 11.812,-10.625 0.001,-5.873 -5.278,-10.656 -11.812,-10.656 z m 0,0.875 c 6.1139,0 10.938,4.4242 10.938,9.7812 0,5.3571 -4.8208,9.75 -10.938,9.75 -6.1167,0 -10.969,-4.396 -10.969,-9.75 0,-5.354 4.8548,-9.7812 10.969,-9.7812 z m 0,1.4375 c -4.9983,0 -9.1875,3.7082 -9.1875,8.3438 0,4.6355 4.1931,8.3125 9.1875,8.3125 4.9944,0 9.1562,-3.6814 9.1562,-8.3125 0,-4.6311 -4.1579,-8.3438 -9.1562,-8.3438 z m 0,0.875 c 4.5779,0 8.2812,3.3541 8.2812,7.4688 0,4.1147 -3.7034,7.4375 -8.2812,7.4375 -4.5779,0 -8.3125,-3.3228 -8.3125,-7.4375 0,-4.1147 3.7346,-7.4688 8.3125,-7.4688 z"
               inkscape:connector-curvature="0" />
            <path
               id="path3814"
               style="opacity:0.1;color:#000000"
               d="m 133.531,995.7059 c -24.207,0 -43.844002,16.532 -43.844002,36.938 1.151,-15.39 14.996002,-27.532 31.906002,-27.532 17.664,0 32,13.236 32,29.594 0,16.357 -14.336,29.625 -32,29.625 -7.9875,0 -15.27,-2.7043 -20.875,-7.1875 8.0295,7.6327 19.758,12.438 32.812,12.438 13.817,0 26.123,-5.391 34.157,-13.814 v -2.5938 l -1.9375,1.5 v 0.1875 c -7.645,7.73 -19.177,12.781 -32.218,12.781 -3.9253,0 -7.6517,-0.5949 -11.25,-1.4375 18.315,-0.3489 33.25,-14.23 33.25,-31.5 0,-17.491 -15.305,-31.531 -33.938,-31.531 -6.3781,0 -12.322,1.6975 -17.438,4.5625 7.538,-6.214 17.862,-10.094 29.376,-10.094 13.043,0 24.573,5.0544 32.219,12.781 v 0.2188 l 1.9375,2 v -3.125 c -8.034,-8.418 -20.338,-13.81205 -34.156,-13.81205 z m -18.282,15.812 c -13.482,0 -24.406002,10.259 -24.406002,22.906 0,12.648 10.925002,22.875 24.406002,22.875 13.482,0 24.438,-10.227 24.438,-22.875 0,-12.647 -10.956,-22.906 -24.438,-22.906 z m 0,1.9375 c 12.498,0 22.5,9.4412 22.5,20.969 0,11.5278 -9.9991,20.938 -22.5,20.938 -12.5009,0 -22.469002,-9.4068 -22.469002,-20.938 0,-11.5312 9.970902,-20.969 22.469002,-20.969 z m 0,0.5 c -12.149,0 -22.188002,9.103 -22.188002,20.469 0,11.366 10.042002,20.438 22.188002,20.438 12.145,0 22.219,-9.0678 22.219,-20.438 0,-11.3702 -10.07,-20.469 -22.219,-20.469 z m 0,1.9375 c 11.188,0 20.281,8.312 20.281,18.531 0,10.219 -9.093,18.5 -20.281,18.5 -11.188,0 -20.250002,-8.2808 -20.250002,-18.5 0,-10.2192 9.061702,-18.531 20.250002,-18.531 z m -1.687,7.874 c -6.534,0 -11.844,4.7834 -11.844,10.656 0,5.8729 5.3097,10.625 11.844,10.625 6.534,0 11.812,-4.7521 11.812,-10.625 0.001,-5.873 -5.278,-10.656 -11.812,-10.656 z m 0,3.1875 c 4.5779,0 8.2812,3.3541 8.2812,7.4688 0,4.1147 -3.7034,7.4375 -8.2812,7.4375 -4.5779,0 -8.3125,-3.3228 -8.3125,-7.4375 0,-4.1147 3.7346,-7.4688 8.3125,-7.4688 z"
               inkscape:connector-curvature="0" />
          </g>
        </g>
      </g>
    </g>
  </g>
</svg>
