<?xml version="1.0" encoding="UTF-8" standalone="no"?>
<!-- Created with Inkscape (http://www.inkscape.org/) -->

<svg
   xmlns:dc="http://purl.org/dc/elements/1.1/"
   xmlns:cc="http://creativecommons.org/ns#"
   xmlns:rdf="http://www.w3.org/1999/02/22-rdf-syntax-ns#"
   xmlns:svg="http://www.w3.org/2000/svg"
   xmlns="http://www.w3.org/2000/svg"
   xmlns:xlink="http://www.w3.org/1999/xlink"
   xmlns:sodipodi="http://sodipodi.sourceforge.net/DTD/sodipodi-0.dtd"
   xmlns:inkscape="http://www.inkscape.org/namespaces/inkscape"
   width="96"
   height="96"
   id="svg2"
   version="1.1"
   inkscape:version="0.48.1 r9760"
   sodipodi:docname="guayadeque.svg">
  <defs
     id="defs4">
    <filter
       color-interpolation-filters="sRGB"
       inkscape:collect="always"
       id="filter6279-2">
      <feGaussianBlur
         inkscape:collect="always"
         stdDeviation="0.8"
         id="feGaussianBlur6281-1" />
    </filter>
    <linearGradient
       inkscape:collect="always"
       xlink:href="#linearGradient3617-53"
       id="linearGradient5979"
       gradientUnits="userSpaceOnUse"
       gradientTransform="translate(0,-7.8515622e-6)"
       x1="48"
       y1="1052.3622"
       x2="48"
       y2="902.36218" />
    <linearGradient
       id="linearGradient3617-53"
       y2="5.9877"
       gradientUnits="userSpaceOnUse"
       x2="48"
       y1="90"
       x1="48">
      <stop
         id="stop2885"
         style="stop-color:#0075ab"
         offset="0" />
      <stop
         id="stop2887"
         style="stop-color:#08b1ff"
         offset="1" />
    </linearGradient>
    <linearGradient
       inkscape:collect="always"
       xlink:href="#linearGradient3798"
       id="linearGradient3112"
       gradientUnits="userSpaceOnUse"
       gradientTransform="translate(-1,-1)"
       x1="56"
       y1="80"
       x2="56"
       y2="32" />
    <linearGradient
       id="linearGradient3798"
       y2="32"
       gradientUnits="userSpaceOnUse"
       x2="56"
       gradientTransform="translate(-1,-1)"
       y1="80"
       x1="56">
      <stop
         id="stop3794"
         style="stop-color:#b9da5b"
         offset="0" />
      <stop
         id="stop3796"
         style="stop-color:#a3ce27"
         offset="1" />
    </linearGradient>
    <radialGradient
       inkscape:collect="always"
       xlink:href="#radialGradient3740"
       id="radialGradient3103"
       gradientUnits="userSpaceOnUse"
       gradientTransform="matrix(1.1046,4.1739e-8,-8.2848e-8,2.1926,-6.6969,-37.566)"
       cx="64"
       cy="28.079"
       r="14.484" />
    <radialGradient
       id="radialGradient3740"
       gradientUnits="userSpaceOnUse"
       cy="28.079"
       cx="64"
       gradientTransform="matrix(1.1046,4.1739e-8,-8.2848e-8,2.1926,-6.6969,-37.566)"
       r="14.484">
      <stop
         id="stop3709"
         style="stop-color:#595553"
         offset="0" />
      <stop
         id="stop3711"
         style="stop-color:#2f2a27"
         offset="1" />
    </radialGradient>
    <radialGradient
       inkscape:collect="always"
       xlink:href="#radialGradient3742"
       id="radialGradient3105"
       gradientUnits="userSpaceOnUse"
       cx="44"
       cy="44"
       r="2" />
    <radialGradient
       id="radialGradient3742"
       gradientUnits="userSpaceOnUse"
       cy="44"
       cx="44"
       r="2">
      <stop
         id="stop3721-8"
         style="stop-color:#fff"
         offset="0" />
      <stop
         id="stop3727-6"
         style="stop-color:#fff"
         offset=".78125" />
      <stop
         id="stop3723-2"
         style="stop-color:#fff;stop-opacity:0"
         offset="1" />
    </radialGradient>
    <linearGradient
       y2="138.66"
       x2="48"
       y1="20.221001"
       x1="48"
       gradientUnits="userSpaceOnUse"
       id="linearGradient3199-0"
       xlink:href="#linearGradient3737-85"
       inkscape:collect="always" />
    <linearGradient
       id="linearGradient3737-85">
      <stop
         id="stop3739-8260"
         style="stop-color:#fff"
         offset="0" />
      <stop
         id="stop3741-66"
         style="stop-color:#fff;stop-opacity:0"
         offset="1" />
    </linearGradient>
    <clipPath
       id="clipPath3613-462">
      <rect
         id="rect3615-8"
         style="fill:#ffffff"
         rx="6"
         ry="6"
         height="84"
         width="84"
         y="6"
         x="6" />
    </clipPath>
    <filter
       id="filter3794-96"
       height="1.3839999"
       width="1.3839999"
       color-interpolation-filters="sRGB"
       y="-0.192"
       x="-0.192">
      <feGaussianBlur
         id="feGaussianBlur3796-07"
         stdDeviation="5.28" />
    </filter>
  </defs>
  <sodipodi:namedview
     id="base"
     pagecolor="#ffffff"
     bordercolor="#666666"
     borderopacity="1.0"
     inkscape:pageopacity="0.0"
     inkscape:pageshadow="2"
     inkscape:zoom="3.959798"
     inkscape:cx="28.389459"
     inkscape:cy="57.490015"
     inkscape:document-units="px"
     inkscape:current-layer="layer1"
     showgrid="false"
     inkscape:window-width="1280"
     inkscape:window-height="725"
     inkscape:window-x="0"
     inkscape:window-y="25"
     inkscape:window-maximized="1" />
  <metadata
     id="metadata7">
    <rdf:RDF>
      <cc:Work
         rdf:about="">
        <dc:format>image/svg+xml</dc:format>
        <dc:type
           rdf:resource="http://purl.org/dc/dcmitype/StillImage" />
        <dc:title></dc:title>
      </cc:Work>
    </rdf:RDF>
  </metadata>
  <g
     inkscape:label="Layer 1"
     inkscape:groupmode="layer"
     id="layer1"
     transform="translate(0,-956.36217)">
    <g
       transform="translate(-182.1875,-40.40626)"
       id="g5845">
      <rect
         transform="translate(182.1875,40.40624)"
         y="964.36218"
         x="8"
         height="80"
         width="80"
         id="rect9283"
         style="fill:#000000;fill-opacity:1;stroke:none;filter:url(#filter6279-2)"
         rx="5"
         ry="5" />
      <rect
         ry="5"
         rx="5"
         style="fill:url(#linearGradient5979);fill-opacity:1;stroke:none"
         id="rect9285"
         width="80"
         height="80"
         x="8"
         y="964.36218"
         transform="translate(182.1875,40.40625)" />
      <g
         id="g6711">
        <g
           transform="matrix(0.76191111,0,0,0.76191111,194.25231,1008.1682)"
           id="g3141">
          <path
             id="path3688"
             style="color:#000000;fill:#ffffff"
             d="m 46,12 v 1.1588 3.8521 9.0509 c -0.56208,0.02611 -1.1066,0.05573 -1.6562,0.12527 -0.13463,0.01696 -0.27242,0.04314 -0.40625,0.06264 -0.04283,0.0063 -0.08225,0.02477 -0.125,0.03132 -0.09534,0.01449 -0.18634,0.04686 -0.28125,0.06264 -0.25099,0.042 -0.50211,0.07444 -0.75,0.12527 -0.28122,0.05731 -0.56675,0.11946 -0.84375,0.18791 -0.61417,0.15248 -1.221,0.32709 -1.8125,0.53241 -0.06249,0.02169 -0.12528,0.04037 -0.1875,0.06264 -0.05281,0.0189 -0.10363,0.04333 -0.15625,0.06264 -0.44229,0.1623 -0.88471,0.34172 -1.3125,0.5324 -0.29898,0.13341 -0.58361,0.29164 -0.875,0.43845 -0.2852,0.14372 -0.56617,0.28227 -0.84375,0.43845 -0.2892,0.16263 -0.56324,0.35666 -0.84375,0.5324 -0.3589,0.22481 -0.71857,0.44349 -1.0625,0.689 -0.08043,0.05734 -0.17042,0.09815 -0.25,0.15659 -0.3994,0.29374 -0.77905,0.58756 -1.1562,0.90822 -0.06267,0.05322 -0.12546,0.10265 -0.1875,0.15659 -0.37491,0.32618 -0.74285,0.68183 -1.0938,1.0335 -0.38855,0.38942 -0.76777,0.80253 -1.125,1.2214 -0.12476,0.14616 -0.25421,0.28886 -0.375,0.43845 -0.15477,0.19177 -0.28941,0.39779 -0.4375,0.59504 -0.28574,0.38075 -0.55257,0.75858 -0.8125,1.1588 -0.34598,0.53266 -0.67105,1.0953 -0.96875,1.6599 -0.0873,0.1658 -0.16702,0.3327 -0.25,0.50109 -0.2003,0.40601 -0.38809,0.8011 -0.5625,1.2214 -0.04305,0.10376 -0.08357,0.20858 -0.125,0.31318 -0.42914,1.0824 -0.78483,2.2203 -1.0312,3.3823 -0.01095,0.05163 -0.02068,0.10482 -0.03125,0.15659 -0.0067,0.03279 -0.02474,0.06111 -0.03125,0.09395 -0.062,0.31105 -0.1081,0.6237 -0.15625,0.93954 -0.03876,0.25409 -0.09538,0.49463 -0.125,0.75163 -0.011,0.09551 -0.02153,0.18596 -0.03125,0.28186 -0.0021,0.02114 0.0021,0.04147 0,0.06264 -0.03278,0.3333 -0.04542,0.6645 -0.0625,1.0022 -0.019,0.358 -0.032,0.732 -0.032,1.095 0,11.623 9.402,21.046 21,21.046 0.47061,0 0.9432,-0.03233 1.4062,-0.06264 0.1254,-0.0083 0.25022,0.01045 0.375,0 0.36031,-0.02989 0.70754,-0.07746 1.0625,-0.12527 0.117,-0.0159 0.22737,-0.04481 0.34375,-0.06264 0.34786,-0.05278 0.68922,-0.11825 1.0312,-0.18791 0.31984,-0.06559 0.65439,-0.10792 0.96875,-0.18791 0.0224,-0.0057 0.04013,-0.02557 0.0625,-0.03132 0.15666,-0.0404 0.31352,-0.08137 0.46875,-0.12527 0.28296,-0.07988 0.56584,-0.15911 0.84375,-0.25054 0.08481,-0.02791 0.16567,-0.065 0.25,-0.09395 -1.069,1.787 -2.787,3.135 -4.813,3.759 v 13.247 c 10.693,-1.244 19,-10.34 19,-21.39 0,-0.17 -0.027,-0.332 -0.031,-0.501 H 67.999 v -15.033 -19.041 c 0,-8.856 -7.163,-16.035 -16,-16.035 h -6 z"
             inkscape:connector-curvature="0" />
          <path
             id="rect3784"
             style="color:#000000;fill:url(#linearGradient3112)"
             d="M 46.875,28 C 36.44,28.068 28,36.549 28,47 c 0,10.493 8.5066,19 19,19 3.6597,0 7.069,-1.0509 9.9688,-2.8438 C 56.72787,67.0597 54.357,70.3704 51,71.9687 v 9.4688 c 8.443,-1.995 14.741,-9.441 14.969,-18.437 h 0.0312 v -0.5 -15.5 -19 h -19.125 z"
             inkscape:connector-curvature="0" />
          <g
             id="g3735"
             transform="translate(-21,-1)">
            <path
               id="path3684"
               style="color:#000000;fill:url(#radialGradient3103)"
               d="M 69,15 V 15.312 29 38.062 C 68.674,38.03 68.335,38 68,38 c -5.5228,0 -10,4.4772 -10,10 0,5.5228 4.4772,10 10,10 5.5228,0 10,-4.4772 10,-10 V 29 h 8.9688 c -0.518,-7.815 -7.023,-14 -14.969,-14 h -3 z"
               inkscape:connector-curvature="0" />
            <path
               id="path3717"
               style="color:#000000;fill:url(#radialGradient3105)"
               d="m 46,44 a 2,2 0 1 1 -4,0 2,2 0 1 1 4,0 z"
               transform="matrix(1.25,0,0,1.25,9.5,-10.5)"
               inkscape:connector-curvature="0" />
            <path
               id="path3729"
               style="opacity:0.1;color:#000000;fill:#ffffff"
               d="m 64.626,41.5 c 1.5971,0.06742 2.875,1.3863 2.875,3 0,1.6569 -1.3431,3 -3,3 -1.6137,0 -2.9326,-1.2779 -3,-2.875 -0.0016,0.04196 0,0.08265 0,0.125 0,1.7949 1.4551,3.25 3.25,3.25 1.7949,0 3.25,-1.4551 3.25,-3.25 0,-1.7949 -1.4551,-3.25 -3.25,-3.25 -0.04235,0 -0.08304,-0.0016 -0.125,0 z"
               inkscape:connector-curvature="0" />
          </g>
        </g>
        <g
           transform="translate(182.1875,996.76843)"
           id="layer5">
          <rect
             id="rect3171"
             style="opacity:0.1;fill:url(#linearGradient3199-0);stroke:#ffffff;stroke-width:0.5;stroke-linecap:round;filter:url(#filter3794-96)"
             clip-path="url(#clipPath3613-462)"
             rx="12"
             ry="12"
             height="66"
             width="66"
             y="15"
             x="15" />
        </g>
      </g>
    </g>
  </g>
</svg>
