<?xml version="1.0" encoding="UTF-8" standalone="no"?>
<!-- Created with Inkscape (http://www.inkscape.org/) -->

<svg
   xmlns:dc="http://purl.org/dc/elements/1.1/"
   xmlns:cc="http://creativecommons.org/ns#"
   xmlns:rdf="http://www.w3.org/1999/02/22-rdf-syntax-ns#"
   xmlns:svg="http://www.w3.org/2000/svg"
   xmlns="http://www.w3.org/2000/svg"
   xmlns:xlink="http://www.w3.org/1999/xlink"
   xmlns:sodipodi="http://sodipodi.sourceforge.net/DTD/sodipodi-0.dtd"
   xmlns:inkscape="http://www.inkscape.org/namespaces/inkscape"
   width="96"
   height="96"
   id="svg2"
   version="1.1"
   inkscape:version="0.48.1 r9760"
   sodipodi:docname="iceweasel.svg">
  <defs
     id="defs4">
    <filter
       color-interpolation-filters="sRGB"
       inkscape:collect="always"
       id="filter6279">
      <feGaussianBlur
         inkscape:collect="always"
         stdDeviation="0.8"
         id="feGaussianBlur6281" />
    </filter>
    <linearGradient
       inkscape:collect="always"
       xlink:href="#linearGradient3617-97"
       id="linearGradient10902-1"
       gradientUnits="userSpaceOnUse"
       gradientTransform="translate(0,-9.6171873e-6)"
       x1="48"
       y1="1052.3622"
       x2="48"
       y2="902.36218" />
    <linearGradient
       id="linearGradient3617-97"
       y2="5.9877"
       gradientUnits="userSpaceOnUse"
       x2="48"
       y1="90"
       x1="48">
      <stop
         id="stop3702-5"
         style="stop-color:#5449c0"
         offset="0" />
      <stop
         id="stop3704-388"
         style="stop-color:#827aca"
         offset="1" />
    </linearGradient>
    <radialGradient
       r="24"
       cy="80"
       cx="48"
       gradientTransform="matrix(1.3333,0,0,0.33333,166.1875,1046.1015)"
       gradientUnits="userSpaceOnUse"
       id="radialGradient3761"
       xlink:href="#radialGradient5165"
       inkscape:collect="always" />
    <radialGradient
       id="radialGradient5165"
       gradientUnits="userSpaceOnUse"
       cy="80"
       cx="48"
       gradientTransform="matrix(1,0,0,0.33333,0,53.333)"
       r="24">
      <stop
         id="stop5159"
         offset="0" />
      <stop
         id="stop5161"
         style="stop-opacity:0"
         offset="1" />
    </radialGradient>
    <radialGradient
       inkscape:collect="always"
       xlink:href="#radialGradient5179"
       id="radialGradient7408"
       gradientUnits="userSpaceOnUse"
       gradientTransform="matrix(0,-0.15970192,0.13120434,0,196.99392,1086.6254)"
       cx="110.93"
       cy="222.16"
       r="183.91" />
    <radialGradient
       id="radialGradient5179"
       gradientUnits="userSpaceOnUse"
       cy="222.16"
       cx="110.93"
       gradientTransform="matrix(1.2172,0,0,1,-24.09,0)"
       r="183.91">
      <stop
         id="stop5175"
         style="stop-color:#7469ea"
         offset="0" />
      <stop
         id="stop5177"
         style="stop-color:#20157e"
         offset="1" />
    </radialGradient>
    <radialGradient
       inkscape:collect="always"
       xlink:href="#radialGradient5171"
       id="radialGradient7410"
       gradientUnits="userSpaceOnUse"
       gradientTransform="matrix(0,-0.13120434,0.13120434,0,196.99392,1083.4647)"
       cx="244.72"
       cy="222.16"
       r="183.91" />
    <radialGradient
       id="radialGradient5171"
       gradientUnits="userSpaceOnUse"
       cy="222.16"
       cx="244.72"
       r="183.91">
      <stop
         id="stop6350"
         style="stop-color:#fff;stop-opacity:.44186"
         offset="0" />
      <stop
         id="stop6356"
         style="stop-color:#13059a;stop-opacity:0"
         offset="0.8" />
      <stop
         id="stop6352"
         style="stop-color:#16104b"
         offset="1" />
    </radialGradient>
    <linearGradient
       inkscape:collect="always"
       xlink:href="#linearGradient5183"
       id="linearGradient7412"
       gradientUnits="userSpaceOnUse"
       gradientTransform="matrix(0.54348,-0.94133,0.94133,0.54348,-156.67,314.83)"
       x1="98"
       y1="240.92"
       x2="420"
       y2="240.92" />
    <linearGradient
       id="linearGradient5183">
      <stop
         id="stop5185"
         style="stop-color:#fff"
         offset="0" />
      <stop
         id="stop5187"
         style="stop-color:#fff;stop-opacity:0"
         offset="1" />
    </linearGradient>
    <linearGradient
       inkscape:collect="always"
       xlink:href="#linearGradient5183"
       id="linearGradient7414"
       gradientUnits="userSpaceOnUse"
       gradientTransform="matrix(-0.94133,0.54348,0.54348,0.94133,334.23,-173.07)"
       x1="98"
       y1="240.92"
       x2="420"
       y2="240.92" />
    <linearGradient
       id="linearGradient6647">
      <stop
         id="stop6649"
         style="stop-color:#fff"
         offset="0" />
      <stop
         id="stop6651"
         style="stop-color:#fff;stop-opacity:0"
         offset="1" />
    </linearGradient>
    <linearGradient
       inkscape:collect="always"
       xlink:href="#linearGradient5183"
       id="linearGradient7416"
       gradientUnits="userSpaceOnUse"
       gradientTransform="matrix(0.94133,-0.54348,-0.54348,-0.94133,150.77,625.27)"
       x1="98"
       y1="240.92"
       x2="420"
       y2="240.92" />
    <linearGradient
       id="linearGradient6654">
      <stop
         id="stop6656"
         style="stop-color:#fff"
         offset="0" />
      <stop
         id="stop6658"
         style="stop-color:#fff;stop-opacity:0"
         offset="1" />
    </linearGradient>
    <linearGradient
       inkscape:collect="always"
       xlink:href="#linearGradient5183"
       id="linearGradient7418"
       gradientUnits="userSpaceOnUse"
       gradientTransform="matrix(-0.54348,0.94133,-0.94133,-0.54348,641.67,131.38)"
       x1="98"
       y1="240.92"
       x2="420"
       y2="240.92" />
    <linearGradient
       id="linearGradient6661">
      <stop
         id="stop6663"
         style="stop-color:#fff"
         offset="0" />
      <stop
         id="stop6665"
         style="stop-color:#fff;stop-opacity:0"
         offset="1" />
    </linearGradient>
    <radialGradient
       inkscape:collect="always"
       xlink:href="#linearGradient5183"
       id="radialGradient7420"
       gradientUnits="userSpaceOnUse"
       gradientTransform="matrix(1,-0.57734,0.12401,0.2148,-28.136,320.38)"
       cx="246.35001"
       cy="226.88"
       r="154.36" />
    <linearGradient
       id="linearGradient6668">
      <stop
         id="stop6670"
         style="stop-color:#fff"
         offset="0" />
      <stop
         id="stop6672"
         style="stop-color:#fff;stop-opacity:0"
         offset="1" />
    </linearGradient>
    <radialGradient
       inkscape:collect="always"
       xlink:href="#linearGradient5183"
       id="radialGradient7422"
       gradientUnits="userSpaceOnUse"
       gradientTransform="matrix(-0.57734,-1,0.2148,-0.12401,339.85,501.37)"
       cx="246.35001"
       cy="226.88"
       r="154.36" />
    <linearGradient
       id="linearGradient6675">
      <stop
         id="stop6677"
         style="stop-color:#fff"
         offset="0" />
      <stop
         id="stop6679"
         style="stop-color:#fff;stop-opacity:0"
         offset="1" />
    </linearGradient>
    <radialGradient
       inkscape:collect="always"
       xlink:href="#linearGradient12684"
       id="radialGradient7424"
       gradientUnits="userSpaceOnUse"
       gradientTransform="matrix(0.24558045,0,0,0.24558045,187.9417,1015.5889)"
       cx="156.5"
       cy="148.5"
       r="19.5" />
    <linearGradient
       id="linearGradient12684">
      <stop
         id="stop12686"
         style="stop-color:#fff"
         offset="0" />
      <stop
         id="stop12692"
         style="stop-color:#fff;stop-opacity:.84536"
         offset="0.35" />
      <stop
         id="stop12688"
         style="stop-color:#fff;stop-opacity:0"
         offset="1" />
    </linearGradient>
    <linearGradient
       inkscape:collect="always"
       xlink:href="#linearGradient5183"
       id="linearGradient7426"
       gradientUnits="userSpaceOnUse"
       gradientTransform="matrix(0,0.06695826,0.09527182,0,204.97682,1023.8905)"
       x1="60.812"
       y1="222.16"
       x2="485.95999"
       y2="222.16" />
    <linearGradient
       id="linearGradient6687">
      <stop
         id="stop6689"
         style="stop-color:#fff"
         offset="0" />
      <stop
         id="stop6691"
         style="stop-color:#fff;stop-opacity:0"
         offset="1" />
    </linearGradient>
    <linearGradient
       inkscape:collect="always"
       xlink:href="#linearGradient5183"
       id="linearGradient7428"
       gradientUnits="userSpaceOnUse"
       gradientTransform="matrix(0.73421565,0,0,0.73421565,190.79912,1016.0476)"
       x1="53"
       y1="79"
       x2="53"
       y2="47" />
    <linearGradient
       id="linearGradient6694">
      <stop
         id="stop6696"
         style="stop-color:#fff"
         offset="0" />
      <stop
         id="stop6698"
         style="stop-color:#fff;stop-opacity:0"
         offset="1" />
    </linearGradient>
    <radialGradient
       inkscape:collect="always"
       xlink:href="#linearGradient12684"
       id="radialGradient7430"
       gradientUnits="userSpaceOnUse"
       gradientTransform="matrix(0.13120434,0,0,0.13120434,191.4101,1040.7092)"
       cx="156.5"
       cy="148.5"
       r="19.5" />
    <linearGradient
       id="linearGradient6701">
      <stop
         id="stop6703"
         style="stop-color:#fff"
         offset="0" />
      <stop
         id="stop6705"
         style="stop-color:#fff;stop-opacity:.84536"
         offset="0.35" />
      <stop
         id="stop6707"
         style="stop-color:#fff;stop-opacity:0"
         offset="1" />
    </linearGradient>
    <radialGradient
       inkscape:collect="always"
       xlink:href="#linearGradient12684"
       id="radialGradient7432"
       gradientUnits="userSpaceOnUse"
       gradientTransform="matrix(0.10428799,0,0,0.10428799,197.45882,1049.0352)"
       cx="156.5"
       cy="148.5"
       r="19.5" />
    <linearGradient
       id="linearGradient6710">
      <stop
         id="stop6712"
         style="stop-color:#fff"
         offset="0" />
      <stop
         id="stop6714"
         style="stop-color:#fff;stop-opacity:.84536"
         offset="0.35" />
      <stop
         id="stop6716"
         style="stop-color:#fff;stop-opacity:0"
         offset="1" />
    </linearGradient>
    <radialGradient
       inkscape:collect="always"
       xlink:href="#linearGradient12684"
       id="radialGradient7434"
       gradientUnits="userSpaceOnUse"
       gradientTransform="matrix(0.06391861,0,0,0.06391861,199.05317,1052.5374)"
       cx="156.5"
       cy="148.5"
       r="19.5" />
    <linearGradient
       id="linearGradient6719">
      <stop
         id="stop6721"
         style="stop-color:#fff"
         offset="0" />
      <stop
         id="stop6723"
         style="stop-color:#fff;stop-opacity:.84536"
         offset="0.35" />
      <stop
         id="stop6725"
         style="stop-color:#fff;stop-opacity:0"
         offset="1" />
    </linearGradient>
    <radialGradient
       inkscape:collect="always"
       xlink:href="#linearGradient12684"
       id="radialGradient7436"
       gradientUnits="userSpaceOnUse"
       gradientTransform="matrix(0.13120434,0,0,0.13120434,213.18976,1045.5631)"
       cx="156.5"
       cy="148.5"
       r="19.5" />
    <linearGradient
       id="linearGradient6728">
      <stop
         id="stop6730"
         style="stop-color:#fff"
         offset="0" />
      <stop
         id="stop6732"
         style="stop-color:#fff;stop-opacity:.84536"
         offset="0.35" />
      <stop
         id="stop6734"
         style="stop-color:#fff;stop-opacity:0"
         offset="1" />
    </linearGradient>
    <radialGradient
       inkscape:collect="always"
       xlink:href="#linearGradient12684"
       id="radialGradient7438"
       gradientUnits="userSpaceOnUse"
       gradientTransform="matrix(0.10428799,0,0,0.10428799,221.6002,1048.5102)"
       cx="156.5"
       cy="148.5"
       r="19.5" />
    <linearGradient
       id="linearGradient6737">
      <stop
         id="stop6739"
         style="stop-color:#fff"
         offset="0" />
      <stop
         id="stop6741"
         style="stop-color:#fff;stop-opacity:.84536"
         offset="0.35" />
      <stop
         id="stop6743"
         style="stop-color:#fff;stop-opacity:0"
         offset="1" />
    </linearGradient>
    <radialGradient
       inkscape:collect="always"
       xlink:href="#linearGradient12684"
       id="radialGradient7440"
       gradientUnits="userSpaceOnUse"
       gradientTransform="matrix(0.06391861,0,0,0.06391861,224.89977,1058.5726)"
       cx="156.5"
       cy="148.5"
       r="19.5" />
    <linearGradient
       id="linearGradient6746">
      <stop
         id="stop6748"
         style="stop-color:#fff"
         offset="0" />
      <stop
         id="stop6750"
         style="stop-color:#fff;stop-opacity:.84536"
         offset="0.35" />
      <stop
         id="stop6752"
         style="stop-color:#fff;stop-opacity:0"
         offset="1" />
    </linearGradient>
    <radialGradient
       inkscape:collect="always"
       xlink:href="#linearGradient12684"
       id="radialGradient7442"
       gradientUnits="userSpaceOnUse"
       gradientTransform="matrix(0.13120434,0,0,0.13120434,198.10134,1019.0607)"
       cx="156.5"
       cy="148.5"
       r="19.5" />
    <linearGradient
       id="linearGradient6755">
      <stop
         id="stop6757"
         style="stop-color:#fff"
         offset="0" />
      <stop
         id="stop6759"
         style="stop-color:#fff;stop-opacity:.84536"
         offset="0.35" />
      <stop
         id="stop6761"
         style="stop-color:#fff;stop-opacity:0"
         offset="1" />
    </linearGradient>
    <radialGradient
       inkscape:collect="always"
       xlink:href="#linearGradient12684"
       id="radialGradient7444"
       gradientUnits="userSpaceOnUse"
       gradientTransform="matrix(0.10428799,0,0,0.10428799,197.45882,1024.6313)"
       cx="156.5"
       cy="148.5"
       r="19.5" />
    <linearGradient
       id="linearGradient6764">
      <stop
         id="stop6766"
         style="stop-color:#fff"
         offset="0" />
      <stop
         id="stop6768"
         style="stop-color:#fff;stop-opacity:.84536"
         offset="0.35" />
      <stop
         id="stop6770"
         style="stop-color:#fff;stop-opacity:0"
         offset="1" />
    </linearGradient>
    <radialGradient
       inkscape:collect="always"
       xlink:href="#linearGradient12684"
       id="radialGradient7446"
       gradientUnits="userSpaceOnUse"
       gradientTransform="matrix(0.06391861,0,0,0.06391861,206.79401,1025.903)"
       cx="156.5"
       cy="148.5"
       r="19.5" />
    <linearGradient
       id="linearGradient6773">
      <stop
         id="stop6775"
         style="stop-color:#fff"
         offset="0" />
      <stop
         id="stop6777"
         style="stop-color:#fff;stop-opacity:.84536"
         offset="0.35" />
      <stop
         id="stop6779"
         style="stop-color:#fff;stop-opacity:0"
         offset="1" />
    </linearGradient>
    <radialGradient
       inkscape:collect="always"
       xlink:href="#linearGradient12684"
       id="radialGradient7448"
       gradientUnits="userSpaceOnUse"
       gradientTransform="matrix(0.06391861,0,0,0.06391861,233.42841,1032.5946)"
       cx="156.5"
       cy="148.5"
       r="19.5" />
    <linearGradient
       id="linearGradient6782">
      <stop
         id="stop6784"
         style="stop-color:#fff"
         offset="0" />
      <stop
         id="stop6786"
         style="stop-color:#fff;stop-opacity:.84536"
         offset="0.35" />
      <stop
         id="stop6788"
         style="stop-color:#fff;stop-opacity:0"
         offset="1" />
    </linearGradient>
    <radialGradient
       inkscape:collect="always"
       xlink:href="#linearGradient12684"
       id="radialGradient7450"
       gradientUnits="userSpaceOnUse"
       gradientTransform="matrix(0.13120434,0,0,0.13120434,219.3557,1024.309)"
       cx="156.5"
       cy="148.5"
       r="19.5" />
    <linearGradient
       id="linearGradient6791">
      <stop
         id="stop6793"
         style="stop-color:#fff"
         offset="0" />
      <stop
         id="stop6795"
         style="stop-color:#fff;stop-opacity:.84536"
         offset="0.35" />
      <stop
         id="stop6797"
         style="stop-color:#fff;stop-opacity:0"
         offset="1" />
    </linearGradient>
    <radialGradient
       inkscape:collect="always"
       xlink:href="#linearGradient12684"
       id="radialGradient7452"
       gradientUnits="userSpaceOnUse"
       gradientTransform="matrix(0.10428799,0,0,0.10428799,222.25586,1024.1071)"
       cx="156.5"
       cy="148.5"
       r="19.5" />
    <linearGradient
       id="linearGradient6800">
      <stop
         id="stop6802"
         style="stop-color:#fff"
         offset="0" />
      <stop
         id="stop6804"
         style="stop-color:#fff;stop-opacity:.84536"
         offset="0.35" />
      <stop
         id="stop6806"
         style="stop-color:#fff;stop-opacity:0"
         offset="1" />
    </linearGradient>
    <linearGradient
       inkscape:collect="always"
       xlink:href="#linearGradient5537"
       id="linearGradient7454"
       gradientUnits="userSpaceOnUse"
       gradientTransform="matrix(0.1147212,0,0,0.1147212,196.77123,1021.6902)"
       x1="508.03"
       y1="546.03998"
       x2="452"
       y2="336.95001" />
    <linearGradient
       id="linearGradient5537">
      <stop
         id="stop5539"
         style="stop-color:#73a0d0"
         offset="0" />
      <stop
         id="stop5541"
         style="stop-color:#fff"
         offset="1" />
    </linearGradient>
    <radialGradient
       inkscape:collect="always"
       xlink:href="#linearGradient10381"
       id="radialGradient7456"
       gradientUnits="userSpaceOnUse"
       gradientTransform="matrix(0.05607205,0.04611902,-0.07691643,0.09351705,220.22942,1029.4456)"
       cx="129.83"
       cy="205.85001"
       r="169.41" />
    <linearGradient
       id="linearGradient10381">
      <stop
         id="stop10383"
         style="stop-color:#3465a4"
         offset="0" />
      <stop
         id="stop10385"
         style="stop-color:#3465a4;stop-opacity:0"
         offset="1" />
    </linearGradient>
    <radialGradient
       inkscape:collect="always"
       xlink:href="#radialGradient3361"
       id="radialGradient7458"
       gradientUnits="userSpaceOnUse"
       gradientTransform="matrix(0.15873742,0,0,0.13966984,184.82708,1012.7563)"
       cx="235.33"
       cy="388.70999"
       r="126.07" />
    <radialGradient
       id="radialGradient3361"
       gradientUnits="userSpaceOnUse"
       cy="388.70999"
       cx="235.33"
       gradientTransform="matrix(0.2162,0,0,0.19023,-8.1339,-4.4827)"
       r="126.07">
      <stop
         id="stop3787"
         style="stop-color:#fff"
         offset="0" />
      <stop
         id="stop3789-0"
         style="stop-color:#fff;stop-opacity:0"
         offset="1" />
    </radialGradient>
    <radialGradient
       inkscape:collect="always"
       xlink:href="#linearGradient2762"
       id="radialGradient7460"
       gradientUnits="userSpaceOnUse"
       gradientTransform="matrix(0.29701226,0,0,0.19143205,188.67481,1021.7126)"
       cx="104.98"
       cy="98.510002"
       r="94.904999" />
    <linearGradient
       id="linearGradient2762">
      <stop
         id="stop2764"
         style="stop-opacity:.70588"
         offset="0" />
      <stop
         id="stop4540"
         style="stop-opacity:.35294"
         offset="0.4" />
      <stop
         id="stop2766"
         style="stop-opacity:0"
         offset="1" />
    </linearGradient>
    <radialGradient
       inkscape:collect="always"
       xlink:href="#linearGradient5537"
       id="radialGradient7462"
       gradientUnits="userSpaceOnUse"
       gradientTransform="matrix(0.1147212,0,0,0.05164032,196.77123,1028.0895)"
       cx="262.10001"
       cy="89.625"
       r="142.27" />
    <linearGradient
       id="linearGradient6826">
      <stop
         id="stop6828"
         style="stop-color:#73a0d0"
         offset="0" />
      <stop
         id="stop6830"
         style="stop-color:#fff"
         offset="1" />
    </linearGradient>
    <linearGradient
       inkscape:collect="always"
       xlink:href="#linearGradient10381"
       id="linearGradient7464"
       gradientUnits="userSpaceOnUse"
       gradientTransform="matrix(0.1147212,0,0,0.1147212,196.77123,1021.6902)"
       x1="339.82999"
       y1="306.92001"
       x2="183.82001"
       y2="36.701" />
    <linearGradient
       id="linearGradient6833">
      <stop
         id="stop6835"
         style="stop-color:#3465a4"
         offset="0" />
      <stop
         id="stop6837"
         style="stop-color:#3465a4;stop-opacity:0"
         offset="1" />
    </linearGradient>
    <radialGradient
       inkscape:collect="always"
       xlink:href="#linearGradient5537"
       id="radialGradient7466"
       gradientUnits="userSpaceOnUse"
       gradientTransform="matrix(0.16175505,-5.190611e-8,0.02933338,0.17711484,203.573,997.04536)"
       cx="167.69"
       cy="141.67"
       r="21.773001" />
    <linearGradient
       id="linearGradient6840">
      <stop
         id="stop6842"
         style="stop-color:#73a0d0"
         offset="0" />
      <stop
         id="stop6844"
         style="stop-color:#fff"
         offset="1" />
    </linearGradient>
    <radialGradient
       inkscape:collect="always"
       xlink:href="#linearGradient5537"
       id="radialGradient7468"
       gradientUnits="userSpaceOnUse"
       gradientTransform="matrix(-0.14008835,-0.0808812,-0.11395761,0.13871536,290.40282,1020.3119)"
       cx="167.69"
       cy="141.67"
       r="21.773001" />
    <linearGradient
       id="linearGradient6847">
      <stop
         id="stop6849"
         style="stop-color:#73a0d0"
         offset="0" />
      <stop
         id="stop6851"
         style="stop-color:#fff"
         offset="1" />
    </linearGradient>
    <linearGradient
       inkscape:collect="always"
       xlink:href="#linearGradient5183"
       id="linearGradient7470"
       gradientUnits="userSpaceOnUse"
       x1="185.17999"
       y1="178.87"
       x2="185.17999"
       y2="162.24001" />
    <linearGradient
       id="linearGradient6854">
      <stop
         id="stop6856"
         style="stop-color:#fff"
         offset="0" />
      <stop
         id="stop6858"
         style="stop-color:#fff;stop-opacity:0"
         offset="1" />
    </linearGradient>
    <radialGradient
       inkscape:collect="always"
       xlink:href="#linearGradient5183"
       id="radialGradient7472"
       gradientUnits="userSpaceOnUse"
       gradientTransform="matrix(1.7659,0,0,3.0048,-141.84,-325.26)"
       cx="185.17999"
       cy="162.24001"
       r="8.3116999" />
    <linearGradient
       id="linearGradient6861">
      <stop
         id="stop6863"
         style="stop-color:#fff"
         offset="0" />
      <stop
         id="stop6865"
         style="stop-color:#fff;stop-opacity:0"
         offset="1" />
    </linearGradient>
    <linearGradient
       inkscape:collect="always"
       xlink:href="#linearGradient5183"
       id="linearGradient7474"
       gradientUnits="userSpaceOnUse"
       x1="185.17999"
       y1="178.87"
       x2="185.17999"
       y2="162.24001" />
    <linearGradient
       id="linearGradient6868">
      <stop
         id="stop6870"
         style="stop-color:#fff"
         offset="0" />
      <stop
         id="stop6872"
         style="stop-color:#fff;stop-opacity:0"
         offset="1" />
    </linearGradient>
    <radialGradient
       inkscape:collect="always"
       xlink:href="#linearGradient5183"
       id="radialGradient7476"
       gradientUnits="userSpaceOnUse"
       gradientTransform="matrix(1.7659,0,0,3.0048,-141.84,-325.26)"
       cx="185.17999"
       cy="162.24001"
       r="8.3116999" />
    <linearGradient
       id="linearGradient6875">
      <stop
         id="stop6877"
         style="stop-color:#fff"
         offset="0" />
      <stop
         id="stop6879"
         style="stop-color:#fff;stop-opacity:0"
         offset="1" />
    </linearGradient>
    <radialGradient
       inkscape:collect="always"
       xlink:href="#linearGradient5537"
       id="radialGradient7478"
       gradientUnits="userSpaceOnUse"
       gradientTransform="matrix(-0.02803529,0.10462573,-0.12825279,-0.03436496,270.46886,1015.3428)"
       cx="221.8"
       cy="186.60001"
       r="66.984001" />
    <linearGradient
       id="linearGradient6882">
      <stop
         id="stop6884"
         style="stop-color:#73a0d0"
         offset="0" />
      <stop
         id="stop6886"
         style="stop-color:#fff"
         offset="1" />
    </linearGradient>
    <radialGradient
       inkscape:collect="always"
       xlink:href="#radialGradient3546"
       id="radialGradient7480"
       gradientUnits="userSpaceOnUse"
       gradientTransform="matrix(0.13993416,0.03749566,-0.02461752,0.0918724,213.69343,1007.3442)"
       cx="221.52"
       cy="231.32001"
       r="13.714" />
    <radialGradient
       id="radialGradient3546"
       gradientUnits="userSpaceOnUse"
       cy="231.32001"
       cx="221.52"
       gradientTransform="matrix(0.19059,0.051069,-0.033529,0.12513,31.182,-11.854)"
       r="13.714">
      <stop
         id="stop7359"
         style="stop-color:#fff"
         offset="0" />
      <stop
         id="stop7361"
         style="stop-color:#fff;stop-opacity:0"
         offset="1" />
    </radialGradient>
    <radialGradient
       inkscape:collect="always"
       xlink:href="#linearGradient5537"
       id="radialGradient7482"
       gradientUnits="userSpaceOnUse"
       gradientTransform="matrix(0.08765066,0.11534528,-0.21048494,0.15994888,252.83006,975.03872)"
       cx="231.53999"
       cy="137.96001"
       r="22.608" />
    <linearGradient
       id="linearGradient6893">
      <stop
         id="stop6895"
         style="stop-color:#73a0d0"
         offset="0" />
      <stop
         id="stop6897"
         style="stop-color:#fff"
         offset="1" />
    </linearGradient>
    <radialGradient
       inkscape:collect="always"
       xlink:href="#linearGradient5537"
       id="radialGradient7484"
       gradientUnits="userSpaceOnUse"
       gradientTransform="matrix(0.2100591,-0.00540412,0.00668026,0.25966271,196.14524,990.15402)"
       cx="211.67999"
       cy="126.36"
       r="14.333" />
    <linearGradient
       id="linearGradient6900">
      <stop
         id="stop6902"
         style="stop-color:#73a0d0"
         offset="0" />
      <stop
         id="stop6904"
         style="stop-color:#fff"
         offset="1" />
    </linearGradient>
    <linearGradient
       y2="138.66"
       x2="48"
       y1="20.221001"
       x1="48"
       gradientUnits="userSpaceOnUse"
       id="linearGradient3783-3"
       xlink:href="#linearGradient5183-9"
       inkscape:collect="always" />
    <linearGradient
       id="linearGradient5183-9">
      <stop
         id="stop5185-4"
         style="stop-color:#fff"
         offset="0" />
      <stop
         id="stop5187-1"
         style="stop-color:#fff;stop-opacity:0"
         offset="1" />
    </linearGradient>
    <clipPath
       id="clipPath3613-64">
      <rect
         id="rect3615-35"
         style="fill:#ffffff"
         rx="6"
         ry="6"
         height="84"
         width="84"
         y="6"
         x="6" />
    </clipPath>
    <filter
       id="filter3794-48"
       height="1.3839999"
       width="1.3839999"
       color-interpolation-filters="sRGB"
       y="-0.192"
       x="-0.192">
      <feGaussianBlur
         id="feGaussianBlur3796-73"
         stdDeviation="5.28" />
    </filter>
  </defs>
  <sodipodi:namedview
     id="base"
     pagecolor="#ffffff"
     bordercolor="#666666"
     borderopacity="1.0"
     inkscape:pageopacity="0.0"
     inkscape:pageshadow="2"
     inkscape:zoom="3.959798"
     inkscape:cx="28.389459"
     inkscape:cy="57.490015"
     inkscape:document-units="px"
     inkscape:current-layer="layer1"
     showgrid="false"
     inkscape:window-width="1280"
     inkscape:window-height="725"
     inkscape:window-x="0"
     inkscape:window-y="25"
     inkscape:window-maximized="1" />
  <metadata
     id="metadata7">
    <rdf:RDF>
      <cc:Work
         rdf:about="">
        <dc:format>image/svg+xml</dc:format>
        <dc:type
           rdf:resource="http://purl.org/dc/dcmitype/StillImage" />
        <dc:title></dc:title>
      </cc:Work>
    </rdf:RDF>
  </metadata>
  <g
     inkscape:label="Layer 1"
     inkscape:groupmode="layer"
     id="layer1"
     transform="translate(0,-956.36217)">
    <g
       transform="translate(-182.1875,-40.40626)"
       id="g6546">
      <rect
         y="964.36218"
         x="8"
         height="80"
         width="80"
         id="rect9283"
         style="fill:#000000;fill-opacity:1;stroke:none;filter:url(#filter6279)"
         rx="5"
         ry="5"
         transform="translate(182.1875,40.40625)" />
      <rect
         ry="5"
         rx="5"
         style="fill:url(#linearGradient10902-1);fill-opacity:1;stroke:none"
         id="rect9285"
         width="80"
         height="80"
         x="8"
         y="964.36218"
         transform="translate(182.1875,40.40625)" />
      <g
         id="g7528">
        <path
           inkscape:connector-curvature="0"
           id="path5155"
           style="opacity:0.4;color:#000000;fill:url(#radialGradient3761)"
           d="m 262.1851,1072.7684 a 31.9992,8 0 0 1 -63.9984,0 31.9992,8 0 1 1 63.9984,0 z" />
        <g
           id="g7348"
           transform="matrix(0.93203664,0,0,0.93203664,17.091374,69.343721)">
          <path
             inkscape:connector-curvature="0"
             d="m 226.14228,1027.2266 a 24.1298,24.1298 0 0 1 0,48.2596 24.1298,24.1298 0 1 1 0,-48.2596 z"
             style="fill:url(#radialGradient7408)"
             id="path1872" />
          <path
             inkscape:connector-curvature="0"
             d="m 226.14228,1027.2266 a 24.1298,24.1298 0 0 1 0,48.2596 24.1298,24.1298 0 1 1 0,-48.2596 z"
             style="fill:url(#radialGradient7410)"
             id="path5461" />
          <g
             transform="matrix(0.13120434,0,0,0.13120434,194.03415,1022.2095)"
             style="opacity:0.5"
             id="g11789">
            <path
               inkscape:connector-curvature="0"
               d="m 201.58,398.67 c 0,0 -175.99,-177.97 32.579,-358.78 -235.79,180.15 -32.03,357.83 -32.58,358.78 z"
               style="fill:url(#linearGradient7412);fill-rule:evenodd"
               id="path8152" />
            <path
               inkscape:connector-curvature="0"
               d="m 418.06,185.19 c 0,0 -177.97,-175.99 -358.78,32.58 180.16,-235.8 357.84,-32.04 358.78,-32.58 z"
               style="fill:url(#linearGradient7414);fill-rule:evenodd"
               id="path9971" />
            <path
               inkscape:connector-curvature="0"
               d="m 66.938,267.02 c 0,0 177.97,175.99 358.78,-32.58 -180.16,235.8 -357.84,32.04 -358.78,32.58 z"
               style="fill:url(#linearGradient7416);fill-rule:evenodd"
               id="path9981" />
            <path
               inkscape:connector-curvature="0"
               d="m 283.42,47.542 c 0,0 175.99,177.97 -32.579,358.78 235.79,-180.15 32.03,-357.84 32.58,-358.78 z"
               style="fill:url(#linearGradient7418);fill-rule:evenodd"
               id="path9983" />
            <path
               inkscape:connector-curvature="0"
               d="M 92,316 C 92,316 262.42,243.53 400.71,137.77 239,206 91,316 92,316 z"
               style="fill:url(#radialGradient7420);fill-rule:evenodd"
               id="path9993" />
            <path
               inkscape:connector-curvature="0"
               d="m 335.47,381.24 c 0,0 -72.468,-170.42 -178.23,-308.71 68.234,161.71 178.23,309.71 178.23,308.71 z"
               style="fill:url(#radialGradient7422);fill-rule:evenodd"
               id="path10888" />
          </g>
          <path
             inkscape:connector-curvature="0"
             d="m 231.16386,1052.0576 a 4.78882,4.78882 0 0 1 -9.57764,0 4.78882,4.78882 0 1 1 9.57764,0 z"
             style="fill:url(#radialGradient7424)"
             id="path12694" />
          <path
             inkscape:connector-curvature="0"
             d="m 226.14241,1052.5908 a 17.521449,12.3143 0 0 0 0,-24.6286 17.521449,12.3143 0 1 0 0,24.6286 z"
             style="opacity:0.8;fill:url(#linearGradient7426)"
             id="path5181" />
          <path
             inkscape:connector-curvature="0"
             d="m 203.30355,1050.6248 c -0.007,0.2452 -0.0228,0.486 -0.0228,0.7342 0,12.6255 10.22689,22.8524 22.85246,22.8524 12.62557,0 22.87522,-10.2269 22.87522,-22.8524 0,-0.2475 -0.0151,-0.4887 -0.0229,-0.7342 -0.39044,12.2834 -10.47432,22.1182 -22.85247,22.1182 -12.37814,0 -22.43909,-9.8348 -22.8297,-22.1182 z"
             style="opacity:0.4;fill:url(#linearGradient7428)"
             id="path5191" />
          <path
             inkscape:connector-curvature="0"
             d="m 214.50206,1060.193 a 2.558485,2.558485 0 0 1 -5.11697,0 2.558485,2.558485 0 1 1 5.11697,0 z"
             style="fill:url(#radialGradient7430)"
             id="path12738" />
          <path
             inkscape:connector-curvature="0"
             d="m 215.81351,1064.522 a 2.03362,2.03362 0 0 1 -4.06724,0 2.03362,2.03362 0 1 1 4.06724,0 z"
             style="fill:url(#radialGradient7432)"
             id="path12750" />
          <path
             inkscape:connector-curvature="0"
             d="m 210.30285,1062.0293 a 1.246415,1.246415 0 0 1 -2.49283,0 1.246415,1.246415 0 1 1 2.49283,0 z"
             style="fill:url(#radialGradient7434)"
             id="path12758" />
          <path
             inkscape:connector-curvature="0"
             d="m 236.28172,1065.0469 a 2.558485,2.558485 0 0 1 -5.11697,0 2.558485,2.558485 0 1 1 5.11697,0 z"
             style="fill:url(#radialGradient7436)"
             id="path12734" />
          <path
             inkscape:connector-curvature="0"
             d="m 239.95489,1063.997 a 2.03362,2.03362 0 0 1 -4.06724,0 2.03362,2.03362 0 1 1 4.06724,0 z"
             style="fill:url(#radialGradient7438)"
             id="path12742" />
          <path
             inkscape:connector-curvature="0"
             d="m 236.14945,1068.0645 a 1.246415,1.246415 0 0 1 -2.49283,0 1.246415,1.246415 0 1 1 2.49283,0 z"
             style="fill:url(#radialGradient7440)"
             id="path12746" />
          <path
             inkscape:connector-curvature="0"
             d="m 221.1933,1038.5445 a 2.558485,2.558485 0 0 1 -5.11697,0 2.558485,2.558485 0 1 1 5.11697,0 z"
             style="fill:url(#radialGradient7442)"
             id="path12726" />
          <path
             inkscape:connector-curvature="0"
             d="m 215.81351,1040.1181 a 2.03362,2.03362 0 0 1 -4.06724,0 2.03362,2.03362 0 1 1 4.06724,0 z"
             style="fill:url(#radialGradient7444)"
             id="path12754" />
          <path
             inkscape:connector-curvature="0"
             d="m 218.04369,1035.3949 a 1.246415,1.246415 0 0 1 -2.49283,0 1.246415,1.246415 0 1 1 2.49283,0 z"
             style="fill:url(#radialGradient7446)"
             id="path12762" />
          <path
             inkscape:connector-curvature="0"
             d="m 244.67809,1042.0865 a 1.246415,1.246415 0 0 1 -2.49283,0 1.246415,1.246415 0 1 1 2.49283,0 z"
             style="fill:url(#radialGradient7448)"
             id="path12714" />
          <path
             inkscape:connector-curvature="0"
             d="m 242.44766,1043.7928 a 2.558485,2.558485 0 0 1 -5.11697,0 2.558485,2.558485 0 1 1 5.11697,0 z"
             style="fill:url(#radialGradient7450)"
             id="path12730" />
          <path
             inkscape:connector-curvature="0"
             d="m 240.61055,1039.5939 a 2.03362,2.03362 0 0 1 -4.06724,0 2.03362,2.03362 0 1 1 4.06724,0 z"
             style="fill:url(#radialGradient7452)"
             id="path12698" />
          <path
             id="path11276"
             style="fill:url(#linearGradient7454);fill-rule:evenodd"
             d="m 249.10098,1058.9155 c 0,0 0.4577,11.442 -9.76433,12.7394 -10.22175,1.2966 -16.85833,-3.4325 -21.43543,-6.4075 -4.5771,-2.9751 -7.32306,-8.1623 -7.32306,-8.1623 l 0.53397,0.3051 -0.61026,-0.8391 0.53397,0.4577 -0.61025,-1.2205 0.45769,0.3051 -0.53397,-1.373 0.76285,0.9916 -0.53398,-1.373 0.61026,0.3051 -0.22885,-1.0679 0.61026,0.6102 -0.0763,-0.7628 0.61026,0.3051 -0.15257,-0.3814 0.68653,0.3814 v -0.4577 l 0.61026,0.3814 v -0.8391 l 0.53397,0.7628 v -0.6102 l 0.53397,0.7628 0.0763,-0.4577 0.53397,0.534 v -0.3051 l 1.1442,0.9916 0.0763,-0.534 c 0,0 11.7636,6.9704 19.90972,10.9846 6.46073,3.1837 9.53526,1.9071 13.04408,-6.0263 z"
             inkscape:connector-curvature="0" />
          <path
             id="path13066"
             style="fill:url(#radialGradient7456);fill-rule:evenodd"
             d="m 249.10098,1058.9155 c 0,0 0.4577,11.442 -9.76433,12.7394 -10.22175,1.2966 -16.85833,-3.4325 -21.43543,-6.4075 -4.5771,-2.9751 -7.32306,-8.1623 -7.32306,-8.1623 l 0.53397,0.3051 -0.61026,-0.8391 0.53397,0.4577 -0.61025,-1.2205 0.45769,0.3051 -0.53397,-1.373 0.76285,0.9916 -0.53398,-1.373 0.61026,0.3051 -0.22885,-1.0679 0.61026,0.6102 -0.0763,-0.7628 0.61026,0.3051 -0.15257,-0.3814 0.68653,0.3814 v -0.4577 l 0.61026,0.3814 v -0.8391 l 0.53397,0.7628 v -0.6102 l 0.53397,0.7628 0.0763,-0.4577 0.53397,0.534 v -0.3051 l 1.1442,0.9916 0.0763,-0.534 c 0,0 11.7636,6.9704 19.90972,10.9846 6.46073,3.1837 9.53526,1.9071 13.04408,-6.0263 z"
             inkscape:connector-curvature="0" />
          <path
             id="path13072"
             style="fill:url(#radialGradient7458);fill-rule:evenodd"
             d="m 213.44086,1058.5139 c 0.12996,1.3916 5.14149,4.8836 5.14149,4.8836 0,0 -3.53715,-2.2185 -4.37621,-5.4134 0.52565,1.8056 4.83414,4.4084 4.83414,4.4084 0,0 -2.48054,-1.6105 -4.01234,-5.1535 1.09773,1.5365 4.37417,4.1622 4.37417,4.1622 0,0 -3.50787,-3.3969 -3.52182,-5.3855 1.46102,2.8866 4.17189,4.3533 4.17189,4.3533 0,0 -1.88789,-0.8166 -3.42416,-4.547 1.78495,2.7251 4.83709,3.8962 4.83709,3.8962 0,0 -3.04935,-2.0152 -4.17872,-4.4056 3.63569,2.8668 19.62485,11.2225 25.08007,11.7328 -3.04846,0.4991 -11.652,-2.0794 -11.652,-2.0794 0,0 6.6821,2.8636 10.74158,2.3471 -4.02219,0.6052 -12.75333,-1.7231 -12.75333,-1.7231 0,0 8.75772,2.7664 12.09106,2.2177 -3.4155,0.5948 -14.56023,-1.5936 -14.56023,-1.5936 0,0 10.82675,2.35 12.72176,2.4961 -3.85743,0.513 -14.46405,-2.1381 -14.46405,-2.1381 0,0 11.1219,3.0809 12.9567,2.6026 -3.40955,1.1125 -14.81427,-2.3847 -14.81427,-2.3847 0,0 10.46918,3.8456 11.74231,3.243 -7.20926,1.4009 -18.19386,-4.6483 -20.93542,-11.5198 z"
             inkscape:connector-curvature="0" />
          <path
             id="path5241"
             style="opacity:0.1;fill-rule:evenodd"
             d="m 210.57742,1054.3414 0.0455,0.1145 0.25257,0.1608 -0.069,-0.1608 -0.22908,-0.1145 z m -0.22944,0.39 0.39005,0.9866 0.36711,0.2065 -0.59655,-0.8489 0.32122,0.2754 -0.48238,-0.619 z m 0.0688,1.0554 0.6195,1.216 -0.52772,-0.4588 0.59655,0.8489 -0.52772,-0.2983 c 0,0 2.7423,5.1702 7.31925,8.1454 4.57563,2.9758 11.20707,7.7217 21.42882,6.4251 10.22175,-1.2966 9.77388,-12.757 9.77388,-12.757 -0.0242,0.056 -0.0441,0.1057 -0.069,0.1608 -0.30103,3.1924 -1.85903,10.1322 -9.70486,11.1278 -10.22175,1.2966 -16.85319,-3.4494 -21.43029,-6.4244 -3.9934,-2.5955 -6.46917,-6.6638 -7.06682,-7.7093 l -0.413,-0.2753 z"
             inkscape:connector-curvature="0" />
          <path
             id="path5231"
             style="opacity:0.2;fill-rule:evenodd"
             d="m 210.96729,1053.5844 0.0459,0.2294 0.18355,0.092 -0.0235,-0.1153 -0.20632,-0.2063 z m -0.34435,0.7804 0.48165,0.619 -0.18356,-0.4817 -0.29809,-0.1373 z m -0.27533,0.3672 0.13767,0.3671 0.27533,0.1835 -0.413,-0.5506 z m 0.29828,0.803 0.22944,0.5507 -0.2065,-0.1377 0.36711,0.3213 -0.39005,-0.7343 z m -0.22945,0.2524 0.34417,0.6884 0.34416,0.1835 -0.55066,-0.7801 -0.13767,-0.092 z m 0.0918,0.7571 0.59655,0.8489 -0.52772,-0.2982 c 0,0 2.7423,5.1702 7.31925,8.1454 4.57696,2.9749 11.2078,7.721 21.43029,6.4243 10.22175,-1.2967 9.77388,-12.7569 9.77388,-12.7569 -0.007,0.016 -0.0157,0.03 -0.023,0.046 -0.10132,2.5235 -1.07636,10.876 -9.75111,11.9766 -10.22175,1.2966 -16.85319,-3.4494 -21.43029,-6.4244 -3.89722,-2.5338 -6.34436,-6.4714 -7.02057,-7.6403 l -0.36711,-0.3212 z"
             inkscape:connector-curvature="0" />
          <path
             id="path5236"
             style="opacity:0.3;fill:#ffffff;fill-rule:evenodd"
             d="m 213.23822,1052.8039 v 0.7342 l 0.55066,0.7801 v -0.6195 l 0.52772,0.7572 0.0688,-0.4589 0.55066,0.5506 v -0.3212 l 1.12423,1.0096 0.0918,-0.5507 c 0,0 11.74672,6.976 19.89284,10.9905 6.44737,3.1771 9.53232,1.901 13.03233,-5.9884 0.018,-0.45 0.0229,-0.7801 0.0229,-0.7801 -3.50882,7.9346 -6.59472,9.2195 -13.05509,6.0359 -8.14612,-4.0146 -19.89284,-10.9904 -19.89284,-10.9904 l -0.0918,0.5506 -1.12409,-1.0095 v 0.3212 l -0.55066,-0.5507 -0.0688,0.4589 -0.52772,-0.7571 v 0.6195 l -0.55066,-0.7801 z m -0.59655,0.4589 v 0.4589 l -0.68833,-0.3671 0.16061,0.3671 -0.61949,-0.2983 0.0688,0.7571 0.55066,0.2754 -0.16061,-0.3672 0.68833,0.3672 v -0.4589 l 0.59655,0.39 v -0.7342 l -0.59618,-0.3891 z m -1.07842,0.9178 -0.59655,-0.5966 0.2065,0.9407 0.39005,0.39 -0.0688,-0.7571 0.0688,0.023 z m -0.98664,0.1606 0.34417,0.8948 0.27533,0.1377 -0.18356,-0.826 -0.43594,-0.2065 z m -0.22944,0.39 0.52772,1.3538 -0.11472,-0.069 0.34416,0.436 -0.52772,-1.3767 0.0459,0.023 -0.27533,-0.3671 z m 0.0688,1.0555 0.22945,0.4818 -0.16006,-0.4347 -0.0683,-0.046 z m 0.0918,0.7571 0.0459,0.069 0.11472,0.069 -0.16061,-0.1376 z m 0.0688,0.5506 c 0,0 0.18044,0.3011 0.29828,0.5048 l 0.16061,0.1377 -0.27533,-0.5277 -0.18356,-0.1148 z"
             inkscape:connector-curvature="0" />
          <path
             id="path5259"
             style="opacity:0.3;fill-rule:evenodd"
             d="m 242.49231,1017.8831 c -0.47334,0.016 -1.08216,0.2776 -1.37666,1.3767 -0.17273,-0.8441 -2.01909,-0.6424 -2.01909,-0.6424 0,0 0.6117,0.4322 0.59655,0.7571 -0.31718,0.036 -0.63216,0.095 -0.94126,0.1606 -0.13363,-0.2981 0.0389,-0.895 -0.0455,-1.3078 -0.26211,0.3966 -0.38252,0.9674 -0.43612,1.4225 -0.30029,0.081 -0.5837,0.1863 -0.87151,0.2983 -1.08004,-1.8371 -2.84949,-2.6501 -4.97872,-1.3307 -1.15639,0.7165 -1.69971,1.8504 -1.85903,3.1204 -3.37593,0.702 -7.19018,1.3078 -10.53159,1.3078 -8.17549,0 -12.81867,5.3996 -12.8943,14.2481 -0.0763,8.8488 1.22585,10.9832 2.06498,11.2886 0.83906,0.3051 0.32122,-0.2983 0.32122,-0.2983 l 0.59655,0.3901 v -0.3901 l 0.52772,0.069 0.32122,-0.5966 h 0.68833 c 0,0 0.604,-0.3012 0.52771,-1.4455 -0.0763,-1.1442 0.61026,-1.3871 0,-2.4551 -0.61025,-1.0679 -1.28935,-10.3656 -0.0688,-11.3576 1.22049,-0.9916 4.94825,-3.2747 7.8473,-3.8087 2.89868,-0.534 4.96579,-1.3123 11.67843,-0.092 0.004,0.4486 0.0421,0.9684 0.11472,1.6291 0.38434,3.494 1.56601,4.0471 3.14333,6.8144 1.91814,3.4269 4.67159,4.0178 8.00735,2.1568 2.74964,-1.6079 4.06815,-1.5031 6.14906,-4.3365 0.42659,-0.5808 0.72946,-1.0369 0.96366,-1.4455 0.49998,-0.3697 0.99515,-0.7477 1.46843,-1.0554 2.31638,-1.5544 5.0597,-4.8221 3.51043,-7.7093 -1.25257,-2.3331 -3.35243,-2.3798 -5.29957,-1.1226 -0.17768,-0.2505 -0.36784,-0.4808 -0.57342,-0.7116 0.14611,-0.3066 0.36344,-0.8322 0.34361,-1.262 -0.29809,0.3489 -0.38913,1.175 -0.87151,0.6884 -0.48312,-0.4867 0.48164,-0.5737 0.48164,-0.5737 0,0 -1.00235,-0.7634 -1.39956,-0.2983 0.37513,-1.4 -0.75712,-1.4913 -0.75712,-1.4913 0,0 0.46904,0.4889 0.29827,0.8719 -0.0573,0.1279 -0.18722,0.1877 -0.34434,0.2064 -0.17254,-0.1037 -0.34802,-0.2036 -0.5279,-0.2983 -0.0403,-0.1142 -0.0502,-0.248 0,-0.4359 -0.29883,-0.1064 -0.54332,-0.027 -0.71073,0.1148 -0.13069,-0.058 -0.2577,-0.1302 -0.3906,-0.1835 l 0.25257,-1.2161 -0.68869,1.0554 c -0.10059,-0.036 -0.1953,-0.058 -0.29809,-0.092 -0.0316,-0.4289 -0.22027,-0.9293 -0.89428,-1.0554 -0.11454,0.4264 -0.33113,0.6133 -0.57415,0.6654 -0.17401,-0.033 -0.35243,-0.066 -0.52717,-0.092 -0.23715,-0.1299 -0.41263,-0.3474 -0.3906,-0.5736 0.0565,-0.5832 1.00954,-0.826 1.00954,-0.826 0,0 -0.08,-0.056 -0.22944,-0.092 -0.1116,-0.027 -0.25477,-0.051 -0.41263,-0.046 z"
             inkscape:connector-curvature="0" />
          <path
             id="path15157"
             style="fill:url(#radialGradient7460);fill-rule:evenodd"
             d="m 242.05618,1020.2108 c -0.45521,0.015 -1.03744,0.2643 -1.32085,1.3212 -0.16593,-0.8117 -1.9442,-0.6156 -1.9442,-0.6156 0,0 0.58507,0.4007 0.57051,0.7131 -7e-5,0 1e-4,0.01 0,0.01 -0.30497,0.035 -0.60366,0.079 -0.90081,0.1427 -0.12878,-0.2867 0.0362,-0.8566 -0.045,-1.2536 -0.25179,0.3813 -0.36154,0.921 -0.41287,1.3587 -0.28973,0.078 -0.57826,0.1698 -0.85581,0.2778 -1.03935,-1.7499 -2.72093,-2.5317 -4.75925,-1.2687 -1.11344,0.6899 -1.63444,1.7945 -1.78665,3.0177 -3.24449,0.6742 -6.92468,1.2386 -10.13437,1.2386 -7.86199,0 -12.32014,5.2133 -12.39356,13.7225 -0.0734,8.5088 0.96101,9.92 1.76791,10.213 0.80691,0.2934 0.29276,-0.2928 0.29276,-0.2928 l 0.58553,0.3603 v -0.3603 l 0.51045,0.068 0.30028,-0.5856 h 0.65308 c 0,0 0.69826,-0.9301 0.62491,-2.0304 -0.0734,-1.1003 1.12151,-1.2157 0.5347,-2.2426 -0.58683,-1.027 -1.38701,-8.5632 -0.60977,-9.8605 3.71205,-6.1956 13.8686,-6.1266 18.88843,-3.6315 0.36207,0.18 0.0369,0.9268 0.1051,1.5464 0.36957,3.3599 1.52342,3.9074 3.04024,6.5684 1.84449,3.2953 4.4865,3.8539 7.69458,2.0643 2.64413,-1.5461 3.90676,-1.4491 5.90779,-4.1737 0.40725,-0.5545 0.70613,-0.9978 0.93084,-1.3888 0.48224,-0.3565 0.96226,-0.7091 1.4188,-1.0058 2.22746,-1.4948 4.86021,-4.6329 3.37049,-7.409 -1.20507,-2.2458 -3.22394,-2.2838 -5.09707,-1.0735 -0.17202,-0.2429 -0.35531,-0.4816 -0.5555,-0.7056 0.14092,-0.2949 0.34181,-0.7879 0.32279,-1.2012 -0.28649,0.3355 -0.36887,1.1361 -0.83327,0.6681 -0.46437,-0.4679 0.48044,-0.5555 0.48044,-0.5555 0,0 -0.98422,-0.7475 -1.36623,-0.3002 0.36073,-1.3463 -0.72815,-1.4338 -0.72815,-1.4338 0,0 0.46447,0.465 0.30026,0.8333 -0.0549,0.123 -0.19445,0.2072 -0.34531,0.2252 -0.16519,-0.099 -0.32966,-0.2013 -0.5022,-0.2924 -0.0388,-0.1098 -0.0484,-0.2547 0,-0.4354 -0.28734,-0.1024 -0.5065,-0.024 -0.6681,0.1126 -0.12555,-0.056 -0.25499,-0.1063 -0.38284,-0.1576 l 0.23271,-1.1786 -0.64558,1.0134 c -0.0977,-0.035 -0.1953,-0.065 -0.29295,-0.097 -0.0308,-0.4124 -0.21513,-0.8921 -0.86344,-1.0134 -0.11013,0.4101 -0.32966,0.5955 -0.56314,0.6456 -0.16741,-0.032 -0.33481,-0.058 -0.50294,-0.083 -0.22761,-0.125 -0.38914,-0.3455 -0.36784,-0.563 0.0544,-0.5608 0.97584,-0.7957 0.97584,-0.7957 0,0 -0.089,-0.041 -0.23271,-0.075 -0.10793,-0.026 -0.24596,-0.043 -0.39794,-0.037 z"
             inkscape:connector-curvature="0" />
          <path
             id="path7708"
             style="fill:url(#radialGradient7462);fill-rule:evenodd"
             d="m 239.48937,1018.7152 c 0,0 -11.22323,3.5852 -19.45158,3.5852 -8.17549,0 -12.81573,5.416 -12.89136,14.2651 -0.0763,8.8487 1.22049,10.9846 2.05962,11.29 0.83914,0.3051 0.30513,-0.3051 0.30513,-0.3051 l 0.61026,0.3814 v -0.3814 l 0.53397,0.076 0.30512,-0.6103 h 0.68654 c 0,0 0.61026,-0.3051 0.53397,-1.4493 -0.0763,-1.1442 0.61026,-1.3731 0,-2.4411 -0.61025,-1.0679 -1.29677,-10.3745 -0.0763,-11.3656 1.22048,-0.9917 4.9583,-3.2802 7.85684,-3.8141 2.89868,-0.534 4.9583,-1.2968 11.67109,-0.076 6.7122,1.2202 8.69605,-8.2387 7.85684,-9.1542 z"
             inkscape:connector-curvature="0" />
          <path
             id="path5292"
             style="opacity:0.1;fill-rule:evenodd"
             d="m 239.6017,1018.9616 c -0.41195,2.9367 -2.76388,8.3788 -7.96183,7.4339 -6.71279,-1.2205 -8.77976,-0.4422 -11.67844,0.092 -2.89868,0.5339 -6.62644,2.8171 -7.8473,3.8087 -0.55328,0.4496 -0.71113,2.6082 -0.66538,4.9331 0.0416,-1.7053 0.23247,-3.1129 0.66538,-3.4647 1.22049,-0.9916 4.94825,-3.2747 7.8473,-3.8087 2.89868,-0.534 4.9658,-1.3123 11.67844,-0.092 6.32306,1.1497 8.4376,-7.1667 7.96183,-8.9023 z m -32.44352,17.2085 c -0.003,0.1328 -0.0218,0.2556 -0.0229,0.3901 -0.0763,8.8487 1.22585,10.9831 2.06499,11.2885 0.83913,0.3051 0.32122,-0.2983 0.32122,-0.2983 l 0.59655,0.3901 v -0.3901 l 0.52771,0.069 0.32122,-0.5966 h 0.68833 c 0,0 0.604,-0.3012 0.52772,-1.4455 -0.0721,-1.0819 0.51794,-1.3662 0.0688,-2.2944 -0.0568,0.2221 -0.0912,0.4909 -0.0688,0.826 0.0763,1.1442 -0.52772,1.4455 -0.52772,1.4455 h -0.68833 l -0.32122,0.5965 -0.52771,-0.069 v 0.3901 l -0.59619,-0.3906 c 0,0 0.51788,0.6034 -0.32122,0.2982 -0.80176,-0.2915 -2.00162,-2.3171 -2.042,-10.21 z"
             inkscape:connector-curvature="0" />
          <path
             id="path5288"
             style="opacity:0.2;fill-rule:evenodd"
             d="m 239.64722,1019.2598 c -0.23274,2.7978 -2.55287,8.8612 -8.00735,7.8701 -6.71279,-1.2205 -8.77976,-0.4422 -11.67844,0.092 -2.89868,0.534 -6.62644,2.8171 -7.8473,3.8088 -0.50547,0.4107 -0.69616,2.2493 -0.68832,4.3364 0.0339,-1.7718 0.24296,-3.2404 0.68832,-3.6022 1.22049,-0.9916 4.94825,-3.2748 7.8473,-3.8088 2.89868,-0.5339 4.9658,-1.3122 11.67844,-0.092 6.02791,1.0954 8.22615,-6.3965 8.00735,-8.6043 z m -32.46628,19.594 c 0.15152,6.8993 1.25947,8.7181 2.01909,8.9941 0.83914,0.3052 0.32122,-0.2982 0.32122,-0.2982 l 0.59655,0.39 v -0.39 l 0.52772,0.069 0.32122,-0.5965 h 0.68833 c 0,0 0.604,-0.3013 0.52771,-1.4456 -0.008,-0.1262 -0.007,-0.2378 0,-0.3441 -0.0657,0.8249 -0.52771,1.0554 -0.52771,1.0554 h -0.68833 l -0.32122,0.5966 -0.52772,-0.069 v 0.3901 l -0.59618,-0.3899 c 0,0 0.51788,0.6034 -0.32122,0.2983 -0.73422,-0.267 -1.8105,-1.919 -2.01909,-8.2599 z m 5.20838,4.7495 c -0.0866,0.3275 -0.24388,0.6783 -0.2065,1.239 0.008,0.1262 0.007,0.2376 0,0.3442 0.0576,-0.6606 0.36115,-1.0025 0.2065,-1.5832 z"
             inkscape:connector-curvature="0" />
          <path
             id="path9488"
             style="fill:url(#linearGradient7464);fill-rule:evenodd"
             d="m 210.42984,1032.0513 c 1.50184,21.4472 -3.35507,14.3825 -3.0467,4.1078 0.005,3.3552 -0.0569,6.7887 0.91058,10.0132 0.21777,0.5382 0.43725,1.2118 1.00741,1.4734 -0.78876,-1.0676 0.63406,0.1393 0.70498,-0.3449 0.76219,0.4083 0.6007,-0.8848 1.4138,-0.5155 0.52265,-0.055 0.54346,-0.8 0.53059,-1.2117 -0.1128,-0.8247 0.5979,-1.6532 -0.007,-2.4127 -0.60674,-1.9892 -0.618,-4.1256 -0.7306,-6.1983 0.024,-1.7053 -0.15357,-3.5274 0.52983,-5.1268 0.85933,-0.918 2.05801,-1.4779 3.11954,-2.1232 2.02805,-1.1594 4.24406,-1.9554 6.56536,-2.291 3.52761,-0.8066 7.1843,-0.3433 10.69238,0.2877 -11.9567,-3.348 -18.63293,1.8121 -21.6902,4.3415 z"
             inkscape:connector-curvature="0" />
          <path
             id="path3761"
             style="fill:url(#radialGradient7466);fill-rule:evenodd"
             d="m 232.43135,1017.8745 c -2.78525,1.7258 -2.04868,5.9204 -0.81983,8.4244 1.28775,2.5309 2.40324,6.5984 4.08085,5.2674 5.4677,-5.4677 2.41726,-17.2107 -3.26102,-13.6923 z"
             inkscape:connector-curvature="0" />
          <path
             id="path6444"
             style="fill:url(#radialGradient7468);fill-rule:evenodd"
             d="m 254.9982,1023.9213 c 1.5492,2.8872 -1.18598,6.1516 -3.50235,7.7056 -2.3807,1.548 -5.38041,4.5127 -6.16778,2.5213 -2.00133,-7.4692 6.51176,-16.1131 9.67035,-10.2269 z"
             inkscape:connector-curvature="0" />
          <path
             id="path5801"
             style="fill:#ffffff;fill-rule:evenodd"
             d="m 242.8998,1017.2024 c -0.44861,-0.106 -1.39354,-0.1348 -1.78635,1.3307 -0.17254,-0.8442 -2.02203,-0.6403 -2.02203,-0.6403 0,0 0.60771,0.4197 0.59256,0.7447 -7e-5,0 -9.5e-4,0 -0.001,0 -0.31715,0.036 -0.63138,0.085 -0.94039,0.1511 -0.13392,-0.2981 0.0406,-0.8925 -0.0439,-1.3054 -0.26183,0.3966 -0.37787,0.9619 -0.43125,1.417 -2.32769,0.6281 -4.32167,2.1675 -5.27776,4.8288 -0.98547,2.2786 -1.62974,2.256 -1.24538,5.75 0.38433,3.494 1.58032,4.0593 3.15771,6.8266 1.91814,3.4268 4.66653,4.0053 8.00222,2.1442 2.74964,-1.6078 4.06704,-1.4997 6.14795,-4.3332 2.08092,-2.8334 1.51388,-3.1353 1.80074,-5.6011 0.55334,-2.5565 -0.22852,-4.7619 -1.73209,-6.4446 0.14655,-0.3066 0.35607,-0.8253 0.33629,-1.2551 -0.29792,0.3489 -0.38317,1.1826 -0.86608,0.696 -0.48291,-0.4867 0.49733,-0.5792 0.49733,-0.5792 0,0 -1.01968,-0.7745 -1.41689,-0.3094 0.37513,-1.4 -0.75786,-1.492 -0.75786,-1.492 0,0 0.48118,0.4877 0.31041,0.8706 -0.0565,0.1289 -0.19897,0.2101 -0.35536,0.2288 -0.17327,-0.1038 -0.34949,-0.2063 -0.52863,-0.301 -0.0404,-0.1142 -0.0477,-0.2611 0.003,-0.4491 -0.29882,-0.1064 -0.5279,-0.028 -0.69603,0.1135 -0.13069,-0.058 -0.26285,-0.1136 -0.39575,-0.167 l 0.23789,-1.2204 -0.67107,1.0528 c -0.10132,-0.036 -0.20412,-0.067 -0.30617,-0.1007 -0.0316,-0.4289 -0.21953,-0.9289 -0.89354,-1.055 -0.11454,0.4264 -0.34068,0.6212 -0.5837,0.6732 -0.17401,-0.033 -0.34949,-0.063 -0.52423,-0.089 -0.23642,-0.1299 -0.40896,-0.3601 -0.38693,-0.5862 0.0565,-0.5833 1.01762,-0.8241 1.01762,-0.8241 0,0 -0.0919,-0.043 -0.24138,-0.079 z"
             inkscape:connector-curvature="0" />
          <path
             id="path6446"
             style="fill:#ffffff;fill-rule:evenodd"
             d="m 249.95047,1031.4676 2.65147,-1.915 -0.74031,0.074 1.392,-1.0891 -1.28164,0.3112 2.05492,-1.2886 -1.82306,0.5486 2.02174,-1.5021 -1.56895,0.3232 1.7235,-1.1889 -1.70147,0.5865 1.2815,-1.4283 -1.53576,0.5367 0.57438,-1.141 -0.87284,0.3371 0.40865,-1.0911 -0.7071,0.2873 0.2651,-0.5266 -2.20969,1.0373 c 0,0 0.6217,1.2092 0.79596,2.8883 0.17428,1.6791 -0.72858,4.2408 -0.72858,4.2408 z"
             inkscape:connector-curvature="0" />
          <path
             id="path4650"
             style="fill:#ffffff;fill-rule:evenodd"
             d="m 233.029,1026.9338 -1.33877,-2.9842 0.6042,0.4341 -0.66095,-1.6393 0.95433,0.9103 -1.13532,-2.1434 1.30448,1.3866 -0.99985,-2.3117 1.19714,1.0643 -0.89817,-1.8913 1.18025,1.3587 -0.39566,-1.8777 1.06168,1.2326 0.0731,-1.2753 0.58733,0.7283 0.19166,-1.1492 0.46874,0.6023 0.0337,-0.5886 1.39501,2.0032 c 0,0 -1.14303,0.7364 -2.13356,2.1033 -0.99045,1.3673 -1.48972,4.0376 -1.48972,4.0376 z"
             inkscape:connector-curvature="0" />
          <path
             id="path6450"
             style="fill:#729fcf;fill-rule:evenodd"
             d="m 235.03488,1024.726 c 0,0 4.23657,0.4663 3.11983,4.6339 -3.95229,-1.059 0.90609,-3.5551 -3.11983,-4.6339 z"
             inkscape:connector-curvature="0" />
          <g
             id="g9129"
             transform="matrix(0.13381814,0.03585542,-0.03585542,0.13381814,217.43353,997.6298)">
            <path
               id="path7337"
               d="m 193.5,170.56 a 8.3117,8.3117 0 1 1 -16.623,0 8.3117,8.3117 0 1 1 16.623,0 z"
               transform="matrix(1.396,0,0,1.396,-71.556,-66.826)"
               inkscape:connector-curvature="0" />
            <path
               id="path8224"
               style="fill:url(#linearGradient7470)"
               d="m 193.5,170.56 a 8.3117,8.3117 0 1 1 -16.623,0 8.3117,8.3117 0 1 1 16.623,0 z"
               transform="matrix(0.55042,0,0,0.25629,85.038,134.22)"
               inkscape:connector-curvature="0" />
            <path
               id="path9119"
               style="fill:url(#radialGradient7472)"
               d="m 193.5,170.56 a 8.3117,8.3117 0 1 1 -16.623,0 8.3117,8.3117 0 1 1 16.623,0 z"
               transform="matrix(0.86905,0,0,0.48914,26.032,83.33)"
               inkscape:connector-curvature="0" />
          </g>
          <path
             id="path9138"
             style="fill:#729fcf;fill-rule:evenodd"
             d="m 248.31611,1028.2848 c 0,0 -3.90207,-1.7146 -5.01881,2.4531 3.95228,1.059 0.99281,-3.5319 5.01881,-2.4531 z"
             inkscape:connector-curvature="0" />
          <g
             id="g9140"
             transform="matrix(-0.13381814,-0.03585542,-0.03585542,0.13381814,277.10617,1013.6195)">
            <path
               id="path9142"
               d="m 193.5,170.56 a 8.3117,8.3117 0 1 1 -16.623,0 8.3117,8.3117 0 1 1 16.623,0 z"
               transform="matrix(1.396,0,0,1.396,-71.556,-66.826)"
               inkscape:connector-curvature="0" />
            <path
               id="path9144"
               style="fill:url(#linearGradient7474)"
               d="m 193.5,170.56 a 8.3117,8.3117 0 1 1 -16.623,0 8.3117,8.3117 0 1 1 16.623,0 z"
               transform="matrix(0.55042,0,0,0.25629,85.038,134.22)"
               inkscape:connector-curvature="0" />
            <path
               id="path9146"
               style="fill:url(#radialGradient7476)"
               d="m 193.5,170.56 a 8.3117,8.3117 0 1 1 -16.623,0 8.3117,8.3117 0 1 1 16.623,0 z"
               transform="matrix(0.86905,0,0,0.48914,26.032,83.33)"
               inkscape:connector-curvature="0" />
          </g>
          <path
             id="path9166"
             style="fill:url(#radialGradient7478);fill-rule:evenodd"
             d="m 232.32269,1026.4749 c -0.1951,-0.029 -0.41713,0.097 -0.53798,0.3436 -0.0965,0.6132 -0.0932,1.4079 0.0445,2.6595 0.38089,3.4627 1.56616,4.023 3.12938,6.7655 0.29515,0.5273 0.61035,0.989 0.94427,1.3817 -0.0544,-0.2722 0.0468,-0.6658 -0.0839,-0.9004 -0.55919,-0.026 -0.23284,-0.4045 0.0923,-0.5698 0.60622,-0.5064 -0.24156,0.072 -0.46737,0.028 0.15536,-0.7367 0.79677,-1.2536 1.2721,-1.8005 0.6472,-0.5296 -0.1703,-1.1113 -0.7345,-1.1072 -0.29249,-0.2257 -1.35441,0.215 -1.06021,-0.377 0.22653,-0.4748 0.38824,-0.8835 0.80639,-1.2238 -0.27251,-0.028 -1.3094,0.7544 -0.93811,-6e-4 0.34391,-0.6365 -0.57991,-0.1213 -0.78965,0.035 -0.67231,0.376 -0.14631,-0.3918 0.0923,-0.5698 0.45507,-0.3493 0.0406,-0.6663 -0.36393,-0.4273 -0.82328,0.2023 0.21209,-0.3893 0.46044,-0.5223 -0.19749,-0.1223 -0.67262,0.2558 -0.99648,0.2347 -0.005,-0.3267 0.57418,-0.5184 0.79773,-0.7756 0.63322,-0.4766 -0.28957,-0.3621 -0.58645,-0.2036 -0.6278,0.1627 0.0333,-0.3035 0.26316,-0.3754 0.57481,-0.3694 -0.33483,-0.1817 -0.53948,-0.084 -0.93319,0.315 -0.39405,-0.6872 -0.008,-0.9775 0.37759,-0.7023 -0.38921,0.3039 -0.62276,-0.051 -0.39667,-0.44 0.40355,-0.7281 0.19224,-1.0122 -0.0398,-0.2948 -0.19306,-0.4443 -0.36648,-0.4698 z m 17.7034,4.7437 c -0.14893,-0.026 -0.32277,0.042 -0.4786,0.2433 -0.32502,0.1403 0.22393,0.7899 -0.3396,0.9727 -0.37955,0.1903 -0.54054,-1.0645 -0.5647,-0.2674 0.18966,0.4446 0.15541,1.5821 -0.49521,0.8427 -0.12848,-0.1868 -0.8224,-0.8041 -0.5093,-0.1969 0.1631,0.1773 0.49818,0.9104 0.0359,0.4556 -0.17789,-0.2857 -0.91542,-0.8451 -0.60534,-0.1158 0.065,0.3346 0.46672,0.7892 0.29871,1.0694 -0.29106,-0.1436 -0.50914,-0.7075 -0.74134,-0.7003 0.14858,0.2394 0.74516,1.2681 0.13329,0.6814 -0.2308,-0.4093 -0.7439,-0.3408 -0.52449,0.1892 0.11763,0.2735 0.18925,1.2014 -0.20498,0.5396 -0.10364,-0.2399 -0.64607,-1.148 -0.66653,-0.4247 -0.0559,0.8394 -0.56721,-0.3575 -0.81704,-0.4698 0.19195,0.5037 0.12765,0.9385 0.0864,1.4631 -0.0412,0.6597 -0.7362,-0.2518 -1.10236,-0.2025 -0.48656,-0.2856 -1.48539,-0.1906 -1.18972,0.5916 0.13815,0.7113 0.43085,1.4785 0.19708,2.1942 -0.21773,-0.075 -0.65817,-0.9986 -0.38639,-0.2569 0.19894,0.3058 0.29243,0.7965 -0.20498,0.5397 -0.20078,0.1201 -0.31,0.4322 -0.45712,0.6485 0.45347,-0.1644 0.921,-0.3798 1.39956,-0.6468 2.72504,-1.5935 4.03063,-1.4864 6.09289,-4.2944 0.79075,-1.0766 1.1956,-1.7845 1.41036,-2.3858 -0.0219,-0.252 -0.17441,-0.4368 -0.36648,-0.4698 z m -13.70193,6.7054 c -0.0646,0 -0.11578,0 -0.16298,-0.016 0.0873,0.091 0.17469,0.1785 0.26442,0.2613 -0.0251,-0.096 -0.0547,-0.1847 -0.10144,-0.2455 z m 4.58077,1.2274 c -0.0439,0.018 -0.0897,0.044 -0.13304,0.081 0.0648,-0.016 0.12922,-0.032 0.19457,-0.05 -0.0203,-0.01 -0.0398,-0.017 -0.0615,-0.03 z m -3.66762,-0.3882 c -0.0109,0 -0.0251,6e-4 -0.037,-6e-4 0.0536,0.033 0.10623,0.064 0.16058,0.094 -0.033,-0.044 -0.072,-0.08 -0.12359,-0.093 z"
             inkscape:connector-curvature="0" />
          <path
             id="path10070"
             style="fill-rule:evenodd"
             d="m 237.94678,1035.3421 c -0.90771,0.052 -1.11946,0.1745 -0.96263,0.9227 0.15679,0.7483 0.58899,1.8021 1.58979,2.0703 1.00081,0.2681 1.90317,-0.4281 2.41345,-0.9977 0.51029,-0.5695 0.6457,-0.5914 -0.37228,-1.2804 -1.01798,-0.6891 -1.76058,-0.767 -2.66836,-0.715 z"
             inkscape:connector-curvature="0" />
          <path
             id="path10960"
             style="fill:url(#radialGradient7480);fill-rule:evenodd"
             d="m 238.07967,1035.5403 c -0.79244,0.045 -0.97731,0.1523 -0.84038,0.8056 0.13688,0.6532 2.06652,-0.7252 1.38789,1.8074 0.67646,-2.5246 1.66153,-0.3738 2.10697,-0.8709 0.4455,-0.4972 0.56371,-0.5164 -0.325,-1.1179 -0.8887,-0.6015 -1.53701,-0.6695 -2.32952,-0.6242 z"
             inkscape:connector-curvature="0" />
          <path
             id="path4019"
             style="fill:url(#radialGradient7482);fill-rule:evenodd"
             d="m 241.71844,1025.5763 c 0,0 1.06667,0.4852 0.73591,2.092 1.35433,-1.3325 0.69809,-2.6053 0.69809,-2.6053 0,0 1.50698,0.7029 1.03994,2.0738 1.23635,-1.2644 0.58011,-2.5373 0.58011,-2.5373 0,0 1.47049,0.095 1.61829,1.032 -0.0231,-1.4023 -1.08319,-2.2848 -1.08319,-2.2848 0,0 2.53723,0.5801 2.09509,1.8579 0.97055,-2.1334 -0.89039,-2.632 -0.89039,-2.632 0,0 1.26616,-0.2591 2.04039,0.9456 -0.29561,-1.8743 -1.56006,-2.2222 -1.56006,-2.2222 1.31622,0.5673 1.82937,1.5511 1.72606,3.4634 -0.0797,-0.8192 -1.14611,-1.4155 -1.14611,-1.4155 0,0 0.99457,0.67 -0.25512,2.7286 0.11309,-1.1664 -1.0928,-1.6822 -1.0928,-1.6822 0,0 0.90778,1.2224 -0.15806,2.4508 0.1812,-1.0485 -0.65622,-1.2729 -0.65622,-1.2729 0,0 0.0846,1.9175 -1.82137,2.7033 0.34236,-0.9055 -0.0913,-1.5204 -0.0913,-1.5204 0,0 0.14781,0.9372 -1.70822,1.5369 0.64643,-0.9238 -0.0712,-2.7117 -0.0712,-2.7117 z"
             inkscape:connector-curvature="0" />
          <path
             id="path5282"
             style="opacity:0.1;fill-rule:evenodd"
             d="m 242.42329,1017.1489 c 0.0314,0.022 0.0574,0.05 0.0918,0.069 0.17492,0.025 0.3538,0.058 0.52772,0.092 0.0228,0 0.047,-0.016 0.069,-0.023 -0.0125,-0.01 -0.0697,-0.06 -0.20631,-0.092 -0.11234,-0.026 -0.25551,-0.051 -0.41337,-0.046 -0.0213,7e-4 -0.047,0 -0.069,0 z m 7.04392,3.6711 c -0.0308,0.036 -0.0418,0.093 -0.069,0.1377 0.0176,0.021 0.0294,0.047 0.0463,0.069 0.007,-0.068 0.0257,-0.1418 0.0228,-0.2065 z m -18.90605,0.2524 c -0.19771,1.7717 0.34566,3.7848 1.05543,5.2313 0.007,0.014 0.0153,0.031 0.023,0.046 -0.001,-0.4983 0.0416,-0.8994 0.11472,-1.239 -0.0439,-0.09 -0.0934,-0.1883 -0.13767,-0.2754 -0.5198,-1.0593 -0.93759,-2.4143 -1.05543,-3.7628 z m 24.8253,3.9005 c -0.3725,2.0936 -2.24737,4.0761 -3.90053,5.1854 -0.47329,0.3077 -0.96843,0.6858 -1.46843,1.0554 -0.23419,0.4086 -0.53706,0.8647 -0.96365,1.4456 -2.08092,2.8334 -3.39942,2.7286 -6.14906,4.3364 -3.33598,1.861 -6.08944,1.2701 -8.00736,-2.1568 -1.57739,-2.7672 -2.75903,-3.3205 -3.14332,-6.8144 -0.0375,-0.3404 -0.0734,-0.6393 -0.0918,-0.9177 -0.0565,0.576 -0.0261,1.3142 0.0918,2.3862 0.38433,3.4939 1.56601,4.0471 3.14332,6.8144 1.91814,3.4268 4.6716,4.0177 8.00736,2.1567 2.74964,-1.6078 4.06814,-1.5031 6.14906,-4.3364 0.42659,-0.5809 0.72946,-1.0369 0.96365,-1.4455 0.49999,-0.3697 0.99516,-0.7478 1.46843,-1.0555 2.03819,-1.3677 4.41639,-4.0595 3.90053,-6.6538 z"
             inkscape:connector-curvature="0" />
          <path
             id="path3754"
             style="fill:url(#radialGradient7484);fill-rule:evenodd"
             d="m 241.33518,1019.4208 c -0.38179,-0.1692 -1.54846,-0.4116 -2.41116,-0.1146 1.13392,-0.4695 2.45096,0.9145 2.45096,0.9145 0,0 -1.87372,-0.418 -2.59186,0.4664 2.04435,-0.617 2.68173,1.1082 2.68173,1.1082 0,0 -1.37196,-0.8087 -2.30008,0.061 0.9105,-0.3765 2.24714,0.7912 2.24714,0.7912 0,0 -0.84824,0.03 -1.38414,1.0898 0.67756,-0.334 1.63965,-0.1621 1.63965,-0.1621 -0.78473,0.1006 -1.17416,0.232 -2.12534,0.8187 0.62819,-1.2278 1.25933,-1.5718 1.25933,-1.5718 0,0 -1.65955,-1.0286 -2.44222,-0.3408 1.2862,-1.4504 2.33003,-0.9938 2.33003,-0.9938 0,0 -1.71337,-0.9352 -2.521,-0.1544 0.79993,-1.3524 2.33774,-1.2442 2.33774,-1.2442 0,0 -0.65828,-0.7315 -2.05008,-0.5736 1.76968,-1.0217 3.26212,0.074 2.87974,-0.095 z"
             inkscape:connector-curvature="0" />
          <path
             id="path5271"
             style="opacity:0.2;fill-rule:evenodd"
             d="m 242.49231,1017.1489 c -0.10405,0 -0.20887,0.035 -0.32122,0.069 -0.0203,0.05 -0.0405,0.1047 -0.0459,0.1606 -0.0137,0.1413 0.0534,0.2747 0.16061,0.39 0.28563,-0.3327 0.8489,-0.4818 0.8489,-0.4818 0,0 -0.08,-0.056 -0.22944,-0.092 -0.1116,-0.026 -0.25478,-0.051 -0.41263,-0.046 z m -3.78562,0.3442 c -0.009,0.1517 0.005,0.2926 0.0229,0.413 0.006,-0.1438 0.002,-0.2892 -0.0229,-0.413 z m 0.68833,0.3671 c -0.17621,0.01 -0.29883,0.023 -0.29883,0.023 0,0 0.0733,0.082 0.11472,0.1148 0.16121,-0.028 0.31886,-0.073 0.48183,-0.092 7.3e-4,-0.016 0.002,-0.03 0,-0.046 -0.102,0 -0.21676,0 -0.29827,0 z m 6.1028,0.3442 -0.22908,0.3441 -0.0235,0.1377 c 0.0475,0.019 0.0914,0.047 0.13766,0.069 l 0.11454,-0.5508 z m 1.42254,0.9406 c 0,0 0.0983,0.1189 0.18356,0.2524 0.0458,-0.032 0.0909,-0.061 0.11472,-0.1147 0.007,-0.017 0.0178,-0.029 0.0229,-0.046 -0.17051,-0.081 -0.32122,-0.092 -0.32122,-0.092 z m 0.77974,0.6196 c -0.0103,0.049 -0.009,0.085 -0.0228,0.1376 0.0118,-0.014 0.033,-0.011 0.0455,-0.023 -0.008,-0.04 -0.011,-0.079 -0.0228,-0.1147 z m 0.7801,0.826 c 0.0164,0.055 0.0446,0.1128 0.11472,0.1835 0.17069,0.172 0.29084,0.1687 0.39006,0.092 -0.0977,-0.068 -0.2724,-0.1794 -0.50514,-0.2753 z m 0.98679,0.2294 c -0.12938,0.1515 -0.22084,0.3887 -0.32122,0.5736 0.0618,0.07 0.12465,0.1361 0.18355,0.2065 0.0874,-0.2509 0.14978,-0.5326 0.13804,-0.7801 z m -18.92882,0.6195 c -0.0924,1.6783 0.41664,3.5157 1.07842,4.8642 0.0118,0.023 0.0335,0.044 0.0459,0.069 0.0188,-0.192 0.0568,-0.365 0.0918,-0.5277 -0.0439,-0.09 -0.0934,-0.1883 -0.13767,-0.2753 -0.56712,-1.1557 -1.01491,-2.664 -1.07842,-4.13 z m 24.89432,3.9464 c -0.22656,2.21 -2.20911,4.3409 -3.94641,5.5067 -0.4733,0.3077 -0.96843,0.6857 -1.46843,1.0554 -0.2342,0.4085 -0.53706,0.8646 -0.96366,1.4455 -2.08091,2.8334 -3.39942,2.7287 -6.14905,4.3364 -3.33599,1.8611 -6.08944,1.2702 -8.00736,-2.1567 -1.57739,-2.7673 -2.75904,-3.3205 -3.14332,-6.8144 -0.0578,-0.5253 -0.0786,-0.9458 -0.0918,-1.3308 -0.0254,0.5289 -0.007,1.1715 0.0918,2.065 0.38433,3.494 1.566,4.0471 3.14332,6.8144 1.91814,3.4269 4.67159,4.0178 8.00736,2.1568 2.74963,-1.6079 4.06814,-1.5031 6.14905,-4.3365 0.4266,-0.5808 0.72946,-1.0369 0.96366,-1.4455 0.49999,-0.3697 0.99516,-0.7477 1.46843,-1.0554 1.93033,-1.2953 4.15427,-3.7776 3.94641,-6.2409 z"
             inkscape:connector-curvature="0" />
        </g>
        <g
           transform="translate(182.1875,996.76843)"
           id="layer5">
          <rect
             id="rect3171"
             style="opacity:0.1;fill:url(#linearGradient3783-3);stroke:#ffffff;stroke-width:0.5;stroke-linecap:round;filter:url(#filter3794-48)"
             clip-path="url(#clipPath3613-64)"
             rx="12"
             ry="12"
             height="66"
             width="66"
             y="15"
             x="15" />
        </g>
      </g>
    </g>
  </g>
</svg>
