<?xml version="1.0" encoding="UTF-8" standalone="no"?>
<!-- Created with Inkscape (http://www.inkscape.org/) -->

<svg
   xmlns:dc="http://purl.org/dc/elements/1.1/"
   xmlns:cc="http://creativecommons.org/ns#"
   xmlns:rdf="http://www.w3.org/1999/02/22-rdf-syntax-ns#"
   xmlns:svg="http://www.w3.org/2000/svg"
   xmlns="http://www.w3.org/2000/svg"
   xmlns:xlink="http://www.w3.org/1999/xlink"
   xmlns:sodipodi="http://sodipodi.sourceforge.net/DTD/sodipodi-0.dtd"
   xmlns:inkscape="http://www.inkscape.org/namespaces/inkscape"
   width="96"
   height="96"
   id="svg2982"
   version="1.1"
   inkscape:version="0.48.1 r9760"
   sodipodi:docname="indicator-weather.svg">
  <defs
     id="defs2984">
    <filter
       color-interpolation-filters="sRGB"
       inkscape:collect="always"
       id="filter6279-2">
      <feGaussianBlur
         inkscape:collect="always"
         stdDeviation="0.8"
         id="feGaussianBlur6281-1" />
    </filter>
    <linearGradient
       inkscape:collect="always"
       xlink:href="#linearGradient3822-8"
       id="linearGradient9181"
       gradientUnits="userSpaceOnUse"
       gradientTransform="translate(0,-7.8515622e-6)"
       x1="48"
       y1="1052.3622"
       x2="48"
       y2="902.36218" />
    <linearGradient
       id="linearGradient3822-8">
      <stop
         id="stop3824-9"
         style="stop-color:#e6e6e6;stop-opacity:1"
         offset="0" />
      <stop
         id="stop3826-3"
         style="stop-color:#f5f5f5;stop-opacity:1"
         offset="1" />
    </linearGradient>
    <linearGradient
       gradientTransform="matrix(0.859375,0,0,0.859375,6.75,963.97154)"
       y2="16.436062"
       x2="47.973103"
       y1="79.776169"
       x1="47.973103"
       gradientUnits="userSpaceOnUse"
       id="linearGradient3085-6"
       xlink:href="#linearGradient3700-6"
       inkscape:collect="always" />
    <linearGradient
       id="linearGradient3700-6">
      <stop
         id="stop3702-5"
         style="stop-color:#f05517;stop-opacity:1"
         offset="0" />
      <stop
         id="stop3704-879"
         style="stop-color:#f37340;stop-opacity:1"
         offset="1" />
    </linearGradient>
    <linearGradient
       y2="16.436062"
       x2="47.973103"
       y1="79.776169"
       x1="47.973103"
       gradientTransform="matrix(0.859375,0,0,0.859375,6.75,963.97154)"
       gradientUnits="userSpaceOnUse"
       id="linearGradient6887"
       xlink:href="#linearGradient3700-6"
       inkscape:collect="always" />
  </defs>
  <sodipodi:namedview
     id="base"
     pagecolor="#ffffff"
     bordercolor="#666666"
     borderopacity="1.0"
     inkscape:pageopacity="0.0"
     inkscape:pageshadow="2"
     inkscape:zoom="3.959798"
     inkscape:cx="36.39115"
     inkscape:cy="42.877139"
     inkscape:document-units="px"
     inkscape:current-layer="layer1"
     showgrid="false"
     inkscape:window-width="1280"
     inkscape:window-height="725"
     inkscape:window-x="0"
     inkscape:window-y="25"
     inkscape:window-maximized="1" />
  <metadata
     id="metadata2987">
    <rdf:RDF>
      <cc:Work
         rdf:about="">
        <dc:format>image/svg+xml</dc:format>
        <dc:type
           rdf:resource="http://purl.org/dc/dcmitype/StillImage" />
        <dc:title></dc:title>
      </cc:Work>
    </rdf:RDF>
  </metadata>
  <g
     inkscape:label="Layer 1"
     inkscape:groupmode="layer"
     id="layer1"
     transform="translate(0,-956.36218)">
    <g
       id="g6858">
      <rect
         transform="translate(0,-7.8515622e-6)"
         y="964.36218"
         x="8"
         height="80"
         width="80"
         id="rect9283"
         style="fill:#000000;fill-opacity:1;stroke:none;filter:url(#filter6279-2)"
         rx="5"
         ry="5" />
      <rect
         ry="5"
         rx="5"
         style="fill:url(#linearGradient9181);fill-opacity:1;stroke:none"
         id="rect9285"
         width="80"
         height="80"
         x="8"
         y="964.36218" />
      <path
         style="color:#000000;fill:url(#linearGradient6887);fill-opacity:1;fill-rule:nonzero;stroke:none;stroke-width:2;marker:none;visibility:visible;display:inline;overflow:visible;enable-background:accumulate"
         id="path3050"
         inkscape:connector-curvature="0"
         d="m 48,977.72154 c -15.187831,0 -27.5,12.11979 -27.5,27.07036 0,14.9505 12.312169,27.0703 27.5,27.0703 4.660708,0 9.044215,-1.1547 12.890625,-3.1689 l 10.3125,3.1689 -2.524414,-9.2383 C 72.920338,1017.8606 75.5,1011.6238 75.5,1004.7919 75.5,989.84133 63.187831,977.72154 48,977.72154 z m -9.560547,10.28564 3.330078,6.33789 3.598633,-3.49121 0.429688,4.99512 3.840332,-0.56397 -1.101075,3.81347 6.364746,0.1343 -3.867187,2.76612 c -0.652534,0.2611 -1.246408,0.6262 -1.799316,1.0473 0.0096,-0.1636 0.02685,-0.3172 0.02685,-0.4834 0,-2.76602 -1.366089,-5.22412 -3.464355,-6.71382 -1.341515,-0.95245 -2.984936,-1.50391 -4.753418,-1.50391 -2.76609,0 -5.224141,1.36609 -6.713868,3.46431 -0.952447,1.3416 -1.503906,2.98502 -1.503906,4.75342 0,2.7644 1.370433,5.2261 3.464356,6.7139 0.48712,0.3462 1.026127,0.6265 1.584472,0.8594 -0.94774,1.0541 -1.530761,2.4415 -1.530761,3.9746 0,0.1205 0.01998,0.2303 0.02686,0.3492 l -0.02686,0.027 0,-0.376 -0.05371,-4.834 -5.881348,2.3901 3.14209,-5.6396 -4.780274,-1.3159 4.055176,-2.8736 -5.585937,-4.78022 7.089843,0.7519 -0.88623,-3.97458 4.135742,1.23536 0.859375,-7.06299 z m 2.604981,7.70752 c 3.778811,0 6.848144,3.06938 6.848144,6.8481 0,0.8027 -0.148512,1.5668 -0.402832,2.2828 -0.03733,0.053 -0.07134,0.1066 -0.107422,0.1611 -0.493997,-0.2006 -1.031178,-0.3222 -1.611328,-0.3222 -2.114763,0 -3.810587,1.5084 -4.32373,3.4643 -0.872663,0.1642 -1.678251,0.5162 -2.390137,0.9937 -2.81479,-0.8506 -4.86084,-3.4893 -4.86084,-6.5797 0,-3.77872 3.069333,-6.8481 6.848145,-6.8481 z m 12.810058,7.0899 c 3.573608,0 6.472168,2.8985 6.472168,6.4721 2.680205,0 4.86084,2.1538 4.86084,4.834 0,2.6802 -2.180635,4.8609 -4.86084,4.8609 l -17.77832,0 c -2.680205,0 -4.86084,-2.1807 -4.86084,-4.8609 0,-2.6802 2.180635,-4.834 4.86084,-4.834 0,-1.7868 1.435853,-3.2495 3.222656,-3.2495 0.800981,0 1.502866,0.3235 2.067871,0.8057 0.957283,-2.3769 3.29611,-4.0283 6.015625,-4.0283 z" />
    </g>
  </g>
</svg>
