<?xml version="1.0" encoding="UTF-8" standalone="no"?>
<!-- Created with Inkscape (http://www.inkscape.org/) -->
<svg id="svg2" xmlns:rdf="http://www.w3.org/1999/02/22-rdf-syntax-ns#" xmlns="http://www.w3.org/2000/svg" height="96" width="96" version="1.1" xmlns:cc="http://creativecommons.org/ns#" xmlns:xlink="http://www.w3.org/1999/xlink" xmlns:dc="http://purl.org/dc/elements/1.1/">
 <defs id="defs4">
  <filter id="filter6279" color-interpolation-filters="sRGB">
   <feGaussianBlur id="feGaussianBlur6281" stdDeviation="0.8"/>
  </filter>
  <linearGradient id="linearGradient10902-1" y2="902.36" gradientUnits="userSpaceOnUse" x2="48" gradientTransform="translate(0 -.0000096172)" y1="1052.4" x1="48">
   <stop id="stop3702-31" style="stop-color:#f57900" offset="0"/>
   <stop id="stop3704-89" style="stop-color:#fab234" offset="1"/>
  </linearGradient>
  <linearGradient id="linearGradient3097-2" y2="138.66" gradientUnits="userSpaceOnUse" y1="20.221" x2="48" x1="48">
   <stop id="stop3739-48" style="stop-color:#fff" offset="0"/>
   <stop id="stop3741-51" style="stop-color:#fff;stop-opacity:0" offset="1"/>
  </linearGradient>
  <clipPath id="clipPath3613-29">
   <rect id="rect3615-7" style="fill:#fff" rx="6" ry="6" height="84" width="84" y="6" x="6"/>
  </clipPath>
  <filter id="filter3794-38" height="1.384" width="1.384" color-interpolation-filters="sRGB" y="-.192" x="-.192">
   <feGaussianBlur id="feGaussianBlur3796-09" stdDeviation="5.28"/>
  </filter>
 </defs>
 <metadata id="metadata7">
  <rdf:RDF>
   <cc:Work rdf:about="">
    <dc:format>image/svg+xml</dc:format>
    <dc:type rdf:resource="http://purl.org/dc/dcmitype/StillImage"/>
    <dc:title/>
   </cc:Work>
  </rdf:RDF>
 </metadata>
 <g id="layer1" transform="translate(0 -956.36)">
  <g id="g5949" transform="translate(-182.19 -40.406)">
   <rect id="rect9283" style="filter:url(#filter6279)" transform="translate(182.19 40.406)" rx="5" ry="5" height="80" width="80" y="964.36" x="8"/>
   <rect id="rect9285" style="fill:url(#linearGradient10902-1)" transform="translate(182.19 40.406)" rx="5" ry="5" height="80" width="80" y="964.36" x="8"/>
   <g id="g6751">
    <path id="path3884" d="m237.22 1071.8c-0.7056 0-1.7388-0.077-3.0996-0.2268-1.4112-0.1512-2.7216-0.4284-3.9313-0.8316l1.512-9.1478c0.75603 0.252 1.4616 0.4283 2.1168 0.5294 0.60482 0.1012 1.386 0.151 2.3436 0.151 1.764 0 2.9989-0.5293 3.7045-1.5875 0.70558-1.0585 1.0584-2.5957 1.0584-4.6117v-35.505l11.265-2.5226v38.33c-0.00002 5.2418-1.2852 9.1226-3.8557 11.643-2.5705 2.5202-6.2749 3.7801-11.113 3.7801" style="fill:#fff"/>
    <g id="layer5" transform="translate(182.19 996.77)">
     <rect id="rect3171" style="opacity:.1;filter:url(#filter3794-38);stroke:#fff;stroke-linecap:round;stroke-width:.5;fill:url(#linearGradient3097-2)" clip-path="url(#clipPath3613-29)" rx="12" ry="12" height="66" width="66" y="15" x="15"/>
    </g>
   </g>
  </g>
 </g>
</svg>
