<?xml version="1.0" encoding="UTF-8" standalone="no"?>
<!-- Created with Inkscape (http://www.inkscape.org/) -->

<svg
   xmlns:dc="http://purl.org/dc/elements/1.1/"
   xmlns:cc="http://creativecommons.org/ns#"
   xmlns:rdf="http://www.w3.org/1999/02/22-rdf-syntax-ns#"
   xmlns:svg="http://www.w3.org/2000/svg"
   xmlns="http://www.w3.org/2000/svg"
   xmlns:xlink="http://www.w3.org/1999/xlink"
   xmlns:sodipodi="http://sodipodi.sourceforge.net/DTD/sodipodi-0.dtd"
   xmlns:inkscape="http://www.inkscape.org/namespaces/inkscape"
   width="96"
   height="96"
   id="svg2"
   version="1.1"
   inkscape:version="0.48.1 r9760"
   sodipodi:docname="keepassx.svg">
  <defs
     id="defs4">
    <filter
       color-interpolation-filters="sRGB"
       inkscape:collect="always"
       id="filter6279">
      <feGaussianBlur
         inkscape:collect="always"
         stdDeviation="0.8"
         id="feGaussianBlur6281" />
    </filter>
    <linearGradient
       inkscape:collect="always"
       xlink:href="#linearGradient3700-9"
       id="linearGradient10902-1"
       gradientUnits="userSpaceOnUse"
       gradientTransform="translate(0,-9.6171873e-6)"
       x1="48"
       y1="1052.3622"
       x2="48"
       y2="902.36218" />
    <linearGradient
       id="linearGradient3700-9">
      <stop
         id="stop3702-64"
         style="stop-color:#236f23"
         offset="0" />
      <stop
         id="stop3704-33"
         style="stop-color:#61a939"
         offset="1" />
    </linearGradient>
    <linearGradient
       inkscape:collect="always"
       xlink:href="#linearGradient3700-5"
       id="linearGradient6868"
       gradientUnits="userSpaceOnUse"
       gradientTransform="translate(3.9999999,952.36218)"
       x1="48"
       y1="72"
       x2="48"
       y2="-8" />
    <linearGradient
       id="linearGradient3700-5">
      <stop
         id="stop3702-81"
         style="stop-color:#236f23"
         offset="0" />
      <stop
         id="stop3704-339"
         style="stop-color:#61a939"
         offset="1" />
    </linearGradient>
    <linearGradient
       inkscape:collect="always"
       xlink:href="#linearGradient3720"
       id="linearGradient6870"
       gradientUnits="userSpaceOnUse"
       gradientTransform="translate(3.9999999,952.36218)"
       x1="48"
       y1="72"
       x2="48"
       y2="24" />
    <linearGradient
       id="linearGradient3720"
       y2="24"
       gradientUnits="userSpaceOnUse"
       x2="48"
       gradientTransform="translate(4,-4)"
       y1="72"
       x1="48">
      <stop
         id="stop3716"
         style="stop-color:#d7d7d7"
         offset="0" />
      <stop
         id="stop3718"
         style="stop-color:#c8c8c8"
         offset="1" />
    </linearGradient>
    <radialGradient
       inkscape:collect="always"
       xlink:href="#linearGradient3737-75"
       id="radialGradient6872"
       gradientUnits="userSpaceOnUse"
       gradientTransform="matrix(1.2,7.0503e-8,-6.0704e-8,1.0332,-7.4000001,951.13278)"
       cx="57"
       cy="37"
       r="15" />
    <linearGradient
       id="linearGradient3737-75">
      <stop
         id="stop3739-44"
         style="stop-color:#fff"
         offset="0" />
      <stop
         id="stop3741-96"
         style="stop-color:#fff;stop-opacity:0"
         offset="1" />
    </linearGradient>
    <linearGradient
       inkscape:collect="always"
       xlink:href="#linearGradient3749"
       id="linearGradient6874"
       gradientUnits="userSpaceOnUse"
       gradientTransform="matrix(1,0,0,-1,3.9999999,1022.3622)"
       x1="62.823002"
       y1="53.022999"
       x2="62.823002"
       y2="22.999001" />
    <linearGradient
       id="linearGradient3749">
      <stop
         id="stop3751"
         style="stop-opacity:.52713"
         offset="0" />
      <stop
         id="stop3757"
         style="stop-color:#7f7f7f;stop-opacity:0"
         offset=".5" />
      <stop
         id="stop3753-72"
         style="stop-color:#fff"
         offset="1" />
    </linearGradient>
    <linearGradient
       inkscape:collect="always"
       xlink:href="#linearGradient3749"
       id="linearGradient6876"
       gradientUnits="userSpaceOnUse"
       gradientTransform="matrix(0.25882,0.96593,-0.96593,0.25882,82.415,914.17018)"
       x1="59"
       y1="32"
       x2="69.188004"
       y2="32" />
    <linearGradient
       id="linearGradient6015">
      <stop
         id="stop6017"
         style="stop-opacity:.52713"
         offset="0" />
      <stop
         id="stop6019"
         style="stop-color:#7f7f7f;stop-opacity:0"
         offset=".5" />
      <stop
         id="stop6021"
         style="stop-color:#fff"
         offset="1" />
    </linearGradient>
    <linearGradient
       inkscape:collect="always"
       xlink:href="#linearGradient3808"
       id="linearGradient6878"
       gradientUnits="userSpaceOnUse"
       gradientTransform="translate(3.9999999,952.36218)"
       x1="34"
       y1="58"
       x2="36"
       y2="60" />
    <linearGradient
       id="linearGradient3808"
       y2="60"
       gradientUnits="userSpaceOnUse"
       x2="36"
       gradientTransform="translate(4,-4)"
       y1="58"
       x1="34">
      <stop
         id="stop3792"
         style="stop-color:#969696"
         offset="0" />
      <stop
         id="stop3794"
         style="stop-color:#fff;stop-opacity:.79070"
         offset="1" />
    </linearGradient>
    <linearGradient
       inkscape:collect="always"
       xlink:href="#linearGradient3819"
       id="linearGradient6880"
       gradientUnits="userSpaceOnUse"
       gradientTransform="translate(3.9999999,952.36218)"
       x1="24"
       y1="75"
       x2="59.504002"
       y2="39.495998" />
    <linearGradient
       id="linearGradient3819"
       y2="39.495998"
       gradientUnits="userSpaceOnUse"
       x2="59.504002"
       gradientTransform="translate(4,-4)"
       y1="75"
       x1="24">
      <stop
         id="stop3815"
         style="stop-color:#666"
         offset="0" />
      <stop
         id="stop3817-3"
         style="stop-color:#666;stop-opacity:0"
         offset="1" />
    </linearGradient>
    <linearGradient
       y2="138.66"
       x2="48"
       y1="20.221001"
       x1="48"
       gradientUnits="userSpaceOnUse"
       id="linearGradient3190"
       xlink:href="#linearGradient3737-85"
       inkscape:collect="always" />
    <linearGradient
       id="linearGradient3737-85">
      <stop
         id="stop3739-80"
         style="stop-color:#fff"
         offset="0" />
      <stop
         id="stop3741-86"
         style="stop-color:#fff;stop-opacity:0"
         offset="1" />
    </linearGradient>
    <clipPath
       id="clipPath3613-93">
      <rect
         id="rect3615-37"
         style="fill:#ffffff"
         rx="6"
         ry="6"
         height="84"
         width="84"
         y="6"
         x="6" />
    </clipPath>
    <filter
       id="filter3794-43"
       height="1.3839999"
       width="1.3839999"
       color-interpolation-filters="sRGB"
       y="-0.192"
       x="-0.192">
      <feGaussianBlur
         id="feGaussianBlur3796-71"
         stdDeviation="5.28" />
    </filter>
  </defs>
  <sodipodi:namedview
     id="base"
     pagecolor="#ffffff"
     bordercolor="#666666"
     borderopacity="1.0"
     inkscape:pageopacity="0.0"
     inkscape:pageshadow="2"
     inkscape:zoom="3.959798"
     inkscape:cx="28.389459"
     inkscape:cy="57.490015"
     inkscape:document-units="px"
     inkscape:current-layer="layer1"
     showgrid="false"
     inkscape:window-width="1280"
     inkscape:window-height="725"
     inkscape:window-x="0"
     inkscape:window-y="25"
     inkscape:window-maximized="1" />
  <metadata
     id="metadata7">
    <rdf:RDF>
      <cc:Work
         rdf:about="">
        <dc:format>image/svg+xml</dc:format>
        <dc:type
           rdf:resource="http://purl.org/dc/dcmitype/StillImage" />
        <dc:title></dc:title>
      </cc:Work>
    </rdf:RDF>
  </metadata>
  <g
     inkscape:label="Layer 1"
     inkscape:groupmode="layer"
     id="layer1"
     transform="translate(0,-956.36217)">
    <g
       transform="translate(0,-1e-5)"
       id="g6909">
      <g
         transform="translate(-182.1875,-40.40625)"
         id="g26594" />
      <rect
         y="964.36218"
         x="8"
         height="80"
         width="80"
         id="rect9283"
         style="fill:#000000;fill-opacity:1;stroke:none;filter:url(#filter6279)"
         rx="5"
         ry="5" />
      <rect
         ry="5"
         rx="5"
         style="fill:url(#linearGradient10902-1);fill-opacity:1;stroke:none"
         id="rect9285"
         width="80"
         height="80"
         x="8"
         y="964.36218" />
      <g
         transform="matrix(0.96367916,0,0,0.96367916,-2.1280589,39.88728)"
         id="g6851">
        <path
           id="path3865"
           style="opacity:0.2;fill:#ffffff"
           d="m 24,986.36218 v 1 l 42,42.00002 h 6 v -1 H 66 L 24,986.36218 z"
           inkscape:connector-curvature="0" />
        <path
           id="path3855"
           style="fill:url(#linearGradient6868)"
           d="m 24,980.36218 v 6 l 42,42.00002 h 6 v -6 L 30,980.36218 h -6 z"
           inkscape:connector-curvature="0" />
        <path
           id="path3889"
           style="opacity:0.1"
           d="m 24,980.36218 v 6 l 42,42.00002 h 6 v -6 L 30,980.36218 h -6 z m 0.96875,0.96875 h 4.625 l 41.438,41.43797 v 4.625 h -4.625 l -41.438,-41.43797 v -4.625 z"
           inkscape:connector-curvature="0" />
        <path
           id="path3895"
           style="opacity:0.05"
           d="m 24,980.36218 v 6 l 42,42.00002 h 6 v -6 L 30,980.36218 h -6 z m 1.9375,1.9375 h 3.25 l 40.875,40.87502 v 3.25 h -3.25 l -40.875,-40.87502 v -3.25 z"
           inkscape:connector-curvature="0" />
        <path
           id="path3880"
           style="opacity:0.2"
           d="m 24,980.36218 v 1 h 6 l 42,42.00002 v -1 L 30,980.36218 h -6 z"
           inkscape:connector-curvature="0" />
        <path
           id="path3666"
           style="fill:url(#linearGradient6870)"
           d="m 65,972.36218 c -8.2843,0 -15,6.7157 -15,15 0,2.5888 0.65791,5.0309 1.8125,7.1562 0.0043,0.008 -0.0043,0.0234 0,0.0312 l -27.812,27.81292 v 6 h 6 l 2,-2 v -4 h 4 l 2,-2 h 4 l 2,-2 v -4 l 2,-2 h 4 v -4 l 7.8125,-7.8125 c 0.0079,0 0.02334,0 0.03125,0 2.126,1.154 4.568,1.812 7.157,1.812 8.284,0 15,-6.71592 15,-14.99992 v -0.0625 c -0.026,-8.266 -6.734,-14.938 -15,-14.938 z m 3,8 c 2.2042,0 3.993,1.7959 4,4 0,2.2091 -1.7909,4 -4,4 -2.2091,0 -4,-1.7909 -4,-4 0,-2.2091 1.7909,-4 4,-4 z"
           inkscape:connector-curvature="0" />
        <path
           id="path3759"
           style="opacity:0.4;color:#000000;fill:url(#radialGradient6872)"
           d="m 65,972.36218 c -8.2843,0 -15,6.7157 -15,15 0,8.2843 6.7157,15.00002 15,15.00002 8.2843,0 15,-6.71572 15,-15.00002 v -0.0625 c -0.026,-8.266 -6.734,-14.938 -15,-14.938 z m 3,8.0312 c 2.2042,0 3.993,1.7821 4,3.9688 0,2.1916 -1.7908,3.9688 -4,3.9688 -2.2092,0 -4,-1.7772 -4,-3.9688 0,-2.1916 1.7908,-3.9688 4,-3.9688 z"
           inkscape:connector-curvature="0" />
        <path
           id="path3722"
           style="opacity:0.8;color:#000000;fill:#ffffff"
           d="m 65,972.36218 c -8.2843,0 -15,6.7157 -15,15 0,4.2693 1.7935,8.1121 4.6562,10.844 -2.569,-2.692 -4.156,-6.329 -4.156,-10.344 0,-8.2843 6.7157,-15 15,-15 4.0059,0 7.6529,1.5653 10.344,4.125 -2.731,-2.853 -6.584,-4.625 -10.844,-4.625 z"
           inkscape:connector-curvature="0" />
        <path
           id="path3726"
           style="opacity:0.6;color:#000000;fill:url(#linearGradient6874)"
           d="m 65,1000.3622 c -7.1797,0 -13,-5.82032 -13,-13.00002 0,-7.1797 5.8203,-13 13,-13 7.1797,0 13,5.8203 13,13 v 0.0312 c -0.023,7.164 -5.836,12.96902 -13,12.96902 z m 0,-1.00002 c 6.6124,0 11.979,-5.3563 12,-11.969 v -0.031 c 0,-6.6274 -5.3726,-12 -12,-12 -6.6274,0 -12,5.3726 -12,12 0,6.6274 5.3726,12 12,12 z"
           inkscape:connector-curvature="0" />
        <path
           id="path3734"
           style="opacity:0.3;color:#000000"
           d="m 61.152,1001.8962 c 8.002,2.1441 16.227,-2.60462 18.371,-10.60702 1.105,-4.1239 0.36716,-8.2999 -1.691,-11.679 1.7846,3.2653 2.3766,7.1889 1.3375,11.067 -2.1441,8.002 -10.369,12.75102 -18.371,10.60702 -3.8694,-1.0368 -6.987,-3.49272 -8.9237,-6.66162 1.8996,3.4623 5.1627,6.17152 9.2772,7.27402 z"
           inkscape:connector-curvature="0" />
        <path
           id="path3744"
           style="opacity:0.8;color:#000000;fill:url(#linearGradient6876)"
           d="m 73.014,983.04418 c -0.72801,-2.717 -3.5216,-4.3298 -6.2385,-3.6018 -2.717,0.72801 -4.3298,3.5216 -3.6018,6.2385 0.72801,2.717 3.5216,4.3298 6.2385,3.6018 l 0.03019,-0.008 c 2.7085,-0.73501 4.298,-3.5196 3.5716,-6.2305 z m -1.1169,0.29926 c 0.5589,2.0858 -0.67809,4.2186 -2.7621,4.7842 l -0.03019,0.008 c -2.0906,0.56016 -4.224,-0.67158 -4.7842,-2.7621 -0.56016,-2.0906 0.66349,-4.2542 2.754,-4.8143 2.0906,-0.56016 4.2623,0.69367 4.8224,2.7842 z"
           inkscape:connector-curvature="0" />
        <path
           id="path3772"
           style="opacity:0.6;fill:#ffffff"
           d="M 51.812,994.55018 24,1022.3622 v 1 l 28.219,-28.21902 c -0.126,-0.207 -0.29,-0.38 -0.407,-0.593 z"
           inkscape:connector-curvature="0" />
        <path
           id="path3779"
           style="opacity:0.3"
           d="m 56.844,999.55018 h -0.03125 l -7.813,7.81202 v 4 h -4 l -2,2 v 4 l -2,2 h -4 l -2,2 h -4 v 4 l -2,2 h -5 v 1 h 6 l 2,-2 v -4 h 4 l 2,-2 h 4 l 2,-2 v -4 l 2,-2 h 4 v -4 l 7.8125,-7.8125 h 0.03125 l -1,-1.00002 z"
           inkscape:connector-curvature="0" />
        <path
           id="path3788"
           style="fill:url(#linearGradient6878)"
           d="M 52.594,995.76818 24,1024.3622 v 3 l 30.375,-29.43802 c -0.65603,-0.65988 -1.2564,-1.3841 -1.7812,-2.1562 z"
           inkscape:connector-curvature="0" />
        <path
           id="path3798"
           style="opacity:0.49589999;fill:url(#linearGradient6880)"
           d="M 55.438,998.92418 32,1022.3622 h 2 l 22.594,-22.59402 c -0.38616,-0.26252 -0.76577,-0.54729 -1.125,-0.84375 -0.0059,-0.005 -0.02531,0.005 -0.03125,0 z M 32,1022.3622 l -6,6 h 2 l 4,-4 v -2 z"
           inkscape:connector-curvature="0" />
      </g>
      <g
         id="layer5"
         transform="translate(0,956.36218)">
        <rect
           x="15"
           y="15"
           width="66"
           height="66"
           ry="12"
           rx="12"
           clip-path="url(#clipPath3613-93)"
           style="opacity:0.1;fill:url(#linearGradient3190);stroke:#ffffff;stroke-width:0.5;stroke-linecap:round;filter:url(#filter3794-43)"
           id="rect3171" />
      </g>
    </g>
  </g>
</svg>
