<?xml version="1.0" encoding="UTF-8" standalone="no"?>
<!-- Created with Inkscape (http://www.inkscape.org/) -->

<svg
   xmlns:dc="http://purl.org/dc/elements/1.1/"
   xmlns:cc="http://creativecommons.org/ns#"
   xmlns:rdf="http://www.w3.org/1999/02/22-rdf-syntax-ns#"
   xmlns:svg="http://www.w3.org/2000/svg"
   xmlns="http://www.w3.org/2000/svg"
   xmlns:xlink="http://www.w3.org/1999/xlink"
   xmlns:sodipodi="http://sodipodi.sourceforge.net/DTD/sodipodi-0.dtd"
   xmlns:inkscape="http://www.inkscape.org/namespaces/inkscape"
   width="96"
   height="96"
   id="svg2"
   version="1.1"
   inkscape:version="0.48.1 r9760"
   sodipodi:docname="lastfm.svg">
  <defs
     id="defs4">
    <filter
       color-interpolation-filters="sRGB"
       inkscape:collect="always"
       id="filter6279">
      <feGaussianBlur
         inkscape:collect="always"
         stdDeviation="0.8"
         id="feGaussianBlur6281" />
    </filter>
    <linearGradient
       inkscape:collect="always"
       xlink:href="#linearGradient3700-33"
       id="linearGradient5643"
       gradientUnits="userSpaceOnUse"
       gradientTransform="translate(0,-7.8515622e-6)"
       x1="48"
       y1="1052.3622"
       x2="48"
       y2="902.36218" />
    <linearGradient
       id="linearGradient3700-33">
      <stop
         id="stop3702-38"
         style="stop-color:#ca0019;stop-opacity:1"
         offset="0" />
      <stop
         id="stop3704-60"
         style="stop-color:#e68995;stop-opacity:1"
         offset="1" />
    </linearGradient>
    <linearGradient
       y2="138.66119"
       x2="48"
       y1="20.220806"
       x1="48"
       gradientUnits="userSpaceOnUse"
       id="linearGradient3143-4"
       xlink:href="#linearGradient3737-02"
       inkscape:collect="always" />
    <linearGradient
       id="linearGradient3737-02">
      <stop
         id="stop3739-83"
         style="stop-color:#ffffff;stop-opacity:1"
         offset="0" />
      <stop
         id="stop3741-804"
         style="stop-color:#ffffff;stop-opacity:0"
         offset="1" />
    </linearGradient>
    <clipPath
       id="clipPath3613-09">
      <rect
         width="84"
         height="84"
         rx="6"
         ry="6"
         x="6"
         y="6"
         id="rect3615-19"
         style="fill:#ffffff;fill-opacity:1;fill-rule:nonzero;stroke:none" />
    </clipPath>
    <filter
       x="-0.192"
       y="-0.192"
       width="1.3839999"
       height="1.3839999"
       color-interpolation-filters="sRGB"
       id="filter3794-62">
      <feGaussianBlur
         id="feGaussianBlur3796-54"
         stdDeviation="5.28" />
    </filter>
  </defs>
  <sodipodi:namedview
     id="base"
     pagecolor="#ffffff"
     bordercolor="#666666"
     borderopacity="1.0"
     inkscape:pageopacity="0.0"
     inkscape:pageshadow="2"
     inkscape:zoom="3.959798"
     inkscape:cx="28.389459"
     inkscape:cy="57.490015"
     inkscape:document-units="px"
     inkscape:current-layer="layer1"
     showgrid="false"
     inkscape:window-width="1280"
     inkscape:window-height="725"
     inkscape:window-x="0"
     inkscape:window-y="25"
     inkscape:window-maximized="1" />
  <metadata
     id="metadata7">
    <rdf:RDF>
      <cc:Work
         rdf:about="">
        <dc:format>image/svg+xml</dc:format>
        <dc:type
           rdf:resource="http://purl.org/dc/dcmitype/StillImage" />
        <dc:title></dc:title>
      </cc:Work>
    </rdf:RDF>
  </metadata>
  <g
     inkscape:label="Layer 1"
     inkscape:groupmode="layer"
     id="layer1"
     transform="translate(0,-956.36217)">
    <g
       transform="translate(0,-1e-5)"
       id="g5646">
      <rect
         ry="5"
         rx="5"
         style="fill:#000000;fill-opacity:1;stroke:none;filter:url(#filter6279)"
         id="rect9283"
         width="80"
         height="80"
         x="8"
         y="964.36218"
         transform="translate(0,-7.8515622e-6)" />
      <rect
         y="964.36218"
         x="8"
         height="80"
         width="80"
         id="rect9285"
         style="fill:url(#linearGradient5643);fill-opacity:1;stroke:none"
         rx="5"
         ry="5" />
      <g
         transform="translate(0,956.36218)"
         id="layer5">
        <rect
           width="66"
           height="66"
           rx="12"
           ry="12"
           x="15"
           y="15"
           clip-path="url(#clipPath3613-09)"
           id="rect3171"
           style="opacity:0.1;fill:url(#linearGradient3143-4);fill-opacity:1;fill-rule:nonzero;stroke:#ffffff;stroke-width:0.5;stroke-linecap:round;stroke-linejoin:miter;stroke-miterlimit:4;stroke-opacity:1;stroke-dasharray:none;stroke-dashoffset:0;filter:url(#filter3794-62)" />
      </g>
      <g
         transform="matrix(0.83362806,0,0,0.83362806,7.9008838,964.33558)"
         id="g3177">
        <path
           d="m 36.8125,27.03125 c -8.976772,-0.424559 -17.789886,5.423076 -20.59375,14.03125 -0.003,0.0092 0.003,0.02202 0,0.03125 -3.264936,8.919988 0.418745,19.635061 8.53125,24.59375 0.0072,0.0044 0.024,-0.0044 0.03125,0 7.065688,4.69786 16.93145,4.307389 23.59375,-0.96875 l 0.03125,0 0,0.03125 c 0.958508,-0.748914 2.255722,-1.722065 3.1875,-2.96875 0.39199,-0.524468 0.621478,-1.178022 0.78125,-1.84375 0.506591,0.932952 0.899839,1.906224 1.46875,2.8125 a 0.89546682,0.89546682 0 0 0 0,0.03125 c 2.57709,3.872423 7.154654,5.920877 11.6875,5.8125 0.04162,-9.95e-4 0.08339,0.0014 0.125,0 5.122387,0.444305 10.43095,-1.898391 13.25,-6.3125 C 81.784677,57.635052 81.917523,50.900371 78,46.6875 a 0.89546682,0.89546682 0 0 0 -0.03125,0 C 74.070779,42.721126 68.545859,42.332967 64.5,40.03125 c -0.298069,-0.386792 -0.375629,-0.672018 -0.3125,-0.9375 0.06944,-0.29203 0.307117,-0.624418 0.6875,-0.875 0.380383,-0.250582 0.870572,-0.392142 1.3125,-0.375 0.441928,0.01714 0.801873,0.16139 1.125,0.53125 l 0.03125,-0.03125 c 1.09518,1.426769 2.699804,2.016739 4.21875,1.90625 1.492719,-0.108582 2.895178,-0.804384 4.03125,-1.71875 L 75.625,38.5625 c 0.04085,-0.02405 0.0541,-0.06892 0.09375,-0.09375 0.92979,-0.582126 1.546528,-1.354793 1.75,-2.21875 0.21215,-0.900804 -0.0054,-1.800964 -0.375,-2.59375 -0.722279,-1.549183 -2.070602,-2.828527 -3.3125,-3.625 -0.02948,-0.02429 -0.06407,-0.03855 -0.09375,-0.0625 -5.928939,-4.784407 -15.916686,-2.867091 -19.15625,4.21875 -0.01997,0.02652 -0.01208,0.06677 -0.03125,0.09375 -0.01557,0.03489 -0.04725,0.05862 -0.0625,0.09375 -0.520933,0.782122 -0.709382,1.708695 -0.8125,2.65625 -3.456332,-5.892499 -9.890229,-9.843883 -16.8125,-10 z m -1.03125,11.0625 c 0.893568,-0.02171 1.764685,0.07799 2.625,0.28125 a 0.89546682,0.89546682 0 0 0 0.0625,0 c 3.250531,0.590334 5.665258,3.330385 6.875,6.4375 A 0.89546682,0.89546682 0 0 0 45.375,44.875 c 0.929942,2.035464 1.801305,4.13435 2.6875,6.21875 -0.466133,-0.09183 -0.936262,-0.121277 -1.375,0 -0.89311,0.246875 -1.641853,0.927624 -2.03125,1.84375 L 44.625,52.90625 c -1.518288,2.143531 -3.752361,3.98724 -6.21875,4.71875 -2.733863,0.104794 -5.38026,0.471948 -7.3125,-0.96875 A 0.89546682,0.89546682 0 0 0 31.0625,56.625 c -2.765301,-1.79163 -5.114776,-4.851197 -4.75,-8.09375 a 0.89546682,0.89546682 0 0 0 0,-0.21875 c -0.334128,-2.595012 0.437345,-5.144636 2.34375,-6.90625 A 0.89546682,0.89546682 0 0 0 28.75,41.3125 c 1.662921,-2.071005 4.350545,-3.153623 7.03125,-3.21875 z m 23.6875,11.59375 c 3.299357,1.977658 7.041944,2.820555 10.125,4.46875 0.54363,0.565796 0.558512,1.250963 0.15625,2.03125 -0.415758,0.806466 -1.300193,1.460594 -2.0625,1.53125 A 0.89546682,0.89546682 0 0 0 67.5,57.78125 c -2.483991,0.820677 -5.018094,-0.47019 -5.78125,-2.96875 a 0.89546682,0.89546682 0 0 0 -0.03125,-0.125 c -0.777013,-1.632172 -1.498216,-3.320687 -2.21875,-5 z"
           id="path3717"
           style="opacity:0.05;fill:#a10619;fill-opacity:1"
           inkscape:connector-curvature="0" />
        <path
           d="m 36.78125,27.9375 c -8.567053,-0.405181 -17.04624,5.244854 -19.704916,13.450655 -3.128827,8.5058 0.443577,18.820985 8.188169,23.540397 6.732064,4.490334 16.231366,4.142501 22.575748,-0.89631 C 49.791029,62.508035 52.860295,60.33716 51.28125,57.5 50.514178,55.847989 49.915955,54.065745 48.9375,52.53125 c -1.073559,-1.224847 -3.11613,-0.579558 -3.586149,0.897685 -1.627332,2.297479 -4.016303,4.313217 -6.763998,5.104246 -2.706923,0.09323 -5.706052,0.573221 -8.035615,-1.163725 -2.960479,-1.918085 -5.531062,-5.215531 -5.113801,-8.924627 -0.366389,-2.845567 0.497855,-5.716647 2.634249,-7.690782 2.474928,-3.08228 6.81296,-4.146154 10.559475,-3.260976 3.647018,0.662341 6.253501,3.676459 7.545314,6.994366 2.724439,5.963272 4.934716,12.218424 8.432376,17.790205 2.407193,3.617129 6.730514,5.545642 11.016151,5.405745 4.833592,0.462017 9.880318,-1.728651 12.52075,-5.863077 2.67696,-4.321002 2.776565,-10.658912 -0.802502,-14.50781 -3.657744,-3.721931 -9.181427,-4.046173 -13.5,-6.59375 -2.167639,-2.503059 2.190035,-5.176187 4.148555,-2.934411 1.832496,2.461131 5.132481,1.687902 7.176277,-0.01409 3.3749,-1.987455 0.301588,-5.643501 -1.944406,-7.048392 -5.483039,-4.51801 -15.084895,-2.662761 -17.980973,4.011324 -1.156251,1.535278 -0.853092,5.773407 -0.874735,5.975973 C 51.808206,33.336003 44.577556,28.113329 36.78125,27.9375 z M 57.3125,46.96875 c 3.554781,3.479104 8.674725,4.163285 12.889242,6.469268 1.829337,1.747297 -0.109454,4.975298 -2.413544,5.188858 -2.934996,0.969683 -5.9989,-0.62016 -6.901653,-3.575759 C 59.620232,52.391134 58.488713,49.669153 57.3125,46.96875 z"
           inkscape:connector-curvature="0"
           id="path3711"
           style="opacity:0.15;fill:#a10619;fill-opacity:1" />
        <path
           d="m 36.75,29.0625 c -7.071134,-0.235133 -14.21976,3.492977 -17.65625,10.40625 -4.791502,9.639176 -0.793583,21.13414 8.9375,25.6875 1.527665,0.714823 3.639914,1.40691 5.03125,1.59375 4.445162,0.596964 8.665528,-0.202029 12.3125,-2.40625 1.201645,-0.726273 2.424683,-1.673655 3.375,-2.53125 0.475158,-0.428797 0.905383,-0.837771 1.21875,-1.21875 0.313367,-0.380979 0.625,-0.60172 0.625,-1.34375 0,-0.391309 -0.06149,-0.423492 -0.125,-0.625 -0.06351,-0.201508 -0.146954,-0.446411 -0.25,-0.71875 C 50.012658,57.361573 49.717226,56.689773 49.40625,56 l -1.125,-2.4375 A 0.93161099,0.93161099 0 0 0 46.625,53.46875 l -0.5,0.875 -0.03125,0.03125 c -0.918794,1.439801 -3.572667,3.724919 -5.28125,4.53125 -1.642772,0.775279 -2.055153,0.84375 -4.90625,0.84375 -2.967061,0 -3.23453,-0.03422 -5.0625,-0.9375 C 28.455214,57.632219 26.219258,55.341935 25.125,53 c -0.761959,-1.630763 -0.8125,-2.039985 -0.8125,-5.09375 0,-3.202122 0.0199,-3.364917 0.9375,-5.1875 1.027978,-2.041821 3.439056,-4.459555 5.34375,-5.4375 1.98673,-1.02006 5.31136,-1.511058 7.46875,-1.0625 4.603513,0.957157 7.153093,3.204463 9.34375,8.28125 5.458901,12.650842 7.143784,16.174713 9,18.21875 2.606294,2.870024 5.101341,3.836683 9.65625,3.84375 3.144433,0.0049 4.099238,-0.15406 6.0625,-1.0625 4.464071,-2.065616 6.863576,-5.794063 6.8125,-10.65625 -0.02921,-2.780045 -0.690748,-5.010408 -2.40625,-6.75 -1.715502,-1.739592 -4.347599,-2.966662 -8.25,-4.25 -2.762858,-0.908588 -4.372691,-1.621513 -5.15625,-2.25 -0.783559,-0.628487 -0.90625,-1.077528 -0.90625,-2.28125 0,-1.135847 0.343848,-1.938925 0.9375,-2.5 0.593652,-0.561075 1.485561,-0.90625 2.71875,-0.90625 1.485303,0 2.022856,0.227728 3.3125,1.4375 0.388661,0.364584 0.766884,0.644859 1.21875,0.8125 0.451866,0.167641 0.967882,0.177606 1.40625,0.0625 0.741089,-0.194593 1.516175,-0.620676 2.21875,-1.0625 0.351288,-0.220912 0.672662,-0.423528 0.9375,-0.65625 0.132419,-0.116361 0.259364,-0.25531 0.375,-0.40625 0.115636,-0.15094 0.28125,-0.320527 0.28125,-0.75 0,-0.420422 -0.142053,-0.64027 -0.28125,-0.875 -0.139197,-0.23473 -0.302329,-0.455999 -0.5,-0.6875 -0.395342,-0.463001 -0.907617,-0.983299 -1.46875,-1.46875 -1.122266,-0.970902 -2.359744,-1.869696 -3.46875,-2.25 -4.19424,-1.438301 -8.915782,-0.534724 -11.75,2.40625 -1.887074,1.958156 -2.753398,4.125729 -2.75,6.96875 0.003,2.654095 0.738852,4.859408 2.53125,6.625 1.792398,1.765592 4.520947,3.108156 8.5,4.5 2.550294,0.892076 4.016716,1.564954 4.71875,2.1875 C 71.858284,53.372546 72,53.904917 72,55.1875 c 0,1.394981 -0.5602,2.530102 -1.5625,3.375 -1.0023,0.844898 -2.466945,1.375 -4.25,1.375 -2.295163,0 -3.163213,-0.316465 -4.375,-1.46875 -0.560787,-0.533252 -0.979337,-1.027252 -1.78125,-2.625 -0.801913,-1.597748 -1.960599,-4.233265 -3.90625,-8.75 -1.86434,-4.327967 -3.065765,-6.98831 -4.15625,-8.90625 -1.090485,-1.91794 -2.091785,-3.095707 -3.375,-4.28125 C 45.210916,30.780906 40.993637,29.203611 36.75,29.0625 z"
           id="path3707"
           style="opacity:0.3;fill:#a10619;fill-opacity:1"
           inkscape:connector-curvature="0" />
        <path
           d="M 33.199078,65.81818 C 32.003731,65.657659 29.861748,64.981667 28.439114,64.31599 19.16216,59.975126 15.365852,49.061727 19.935201,39.869461 c 5.226591,-10.514464 19.471813,-13.1952 28.042241,-5.277126 2.475233,2.28683 3.585498,4.244505 7.307553,12.885058 3.893454,9.038467 4.617262,10.475545 5.881772,11.677967 1.347819,1.281637 2.597632,1.708138 5.005529,1.708138 3.939878,0 6.750965,-2.366099 6.750965,-5.682302 0,-2.794522 -1.014916,-3.699674 -6.170324,-5.503001 -7.85028,-2.745972 -10.393772,-5.251025 -10.399433,-10.24226 -0.0032,-2.677638 0.698486,-4.475369 2.459505,-6.302722 2.534905,-2.630387 6.910079,-3.520524 10.780422,-2.193295 1.639616,0.562263 5.092779,3.547639 5.092779,4.402879 0,0.41395 -1.997381,1.682805 -3.108108,1.974456 -0.58211,0.152849 -1.08785,-0.04043 -1.762949,-0.673707 -1.372231,-1.287244 -2.30089,-1.68447 -3.938022,-1.68447 -2.831285,0 -4.589338,1.664163 -4.589338,4.344245 0,2.673002 1.12349,3.58107 6.69921,5.414691 7.69725,2.531306 9.956512,4.813301 10.012194,10.112948 0.048,4.569343 -2.056741,7.865901 -6.265536,9.813396 -1.915583,0.886378 -2.558988,0.998852 -5.685904,0.99398 -4.447064,-0.0069 -6.44953,-0.801721 -8.945856,-3.550649 -1.676756,-1.846419 -3.383401,-5.313518 -8.838855,-17.956371 -2.261567,-5.241118 -5.171245,-7.800894 -10.011073,-8.807185 -2.442675,-0.507874 -5.859311,-0.04068 -8.094207,1.106797 -2.155482,1.106709 -4.595714,3.606403 -5.740651,5.880534 -0.93719,1.861499 -1.032731,2.379563 -1.032731,5.599824 0,3.077074 0.121171,3.807866 0.911924,5.500255 1.19821,2.564413 3.553785,4.95125 6.154888,6.23657 1.874323,0.926184 2.461235,1.03796 5.450126,1.03796 2.880289,0 3.626539,-0.130689 5.326155,-0.932795 1.958472,-0.924261 4.591666,-3.212527 5.664299,-4.922316 l 0.556541,-0.887136 1.102006,2.444356 c 0.606102,1.344392 1.102005,2.629384 1.102005,2.855535 0,0.667824 -2.483654,2.897589 -4.759962,4.273387 -3.460931,2.091779 -7.432364,2.8733 -11.693288,2.301078 z"
           inkscape:connector-curvature="0"
           id="path3278"
           style="fill:#ffffff" />
      </g>
    </g>
  </g>
</svg>
