<?xml version="1.0" encoding="UTF-8" standalone="no"?>
<!-- Created with Inkscape (http://www.inkscape.org/) -->

<svg
   xmlns:dc="http://purl.org/dc/elements/1.1/"
   xmlns:cc="http://creativecommons.org/ns#"
   xmlns:rdf="http://www.w3.org/1999/02/22-rdf-syntax-ns#"
   xmlns:svg="http://www.w3.org/2000/svg"
   xmlns="http://www.w3.org/2000/svg"
   xmlns:xlink="http://www.w3.org/1999/xlink"
   xmlns:sodipodi="http://sodipodi.sourceforge.net/DTD/sodipodi-0.dtd"
   xmlns:inkscape="http://www.inkscape.org/namespaces/inkscape"
   width="96"
   height="96"
   id="svg2"
   version="1.1"
   inkscape:version="0.48.1 r9760"
   sodipodi:docname="libreoffice-writer.svg">
  <defs
     id="defs4">
    <filter
       color-interpolation-filters="sRGB"
       inkscape:collect="always"
       id="filter6221">
      <feGaussianBlur
         inkscape:collect="always"
         stdDeviation="1.2"
         id="feGaussianBlur6223" />
    </filter>
    <linearGradient
       inkscape:collect="always"
       xlink:href="#linearGradient10918"
       id="linearGradient10799"
       gradientUnits="userSpaceOnUse"
       gradientTransform="translate(-0.03156417,0.17860738)"
       x1="48"
       y1="1052.3622"
       x2="48"
       y2="902.36218" />
    <linearGradient
       inkscape:collect="always"
       id="linearGradient10918">
      <stop
         style="stop-color:#024166;stop-opacity:1"
         offset="0"
         id="stop10920" />
      <stop
         style="stop-color:#d5e5ff;stop-opacity:1"
         offset="1"
         id="stop10922" />
    </linearGradient>
    <linearGradient
       inkscape:collect="always"
       xlink:href="#linearGradient5353-0"
       id="linearGradient10885"
       gradientUnits="userSpaceOnUse"
       gradientTransform="matrix(0.28571,0,0,0.28571,40.23669,1438.8815)"
       x1="298"
       y1="-1587.6"
       x2="298"
       y2="-1507.6" />
    <linearGradient
       x1="298"
       y1="-1587.6"
       gradientTransform="matrix(0.28571,0,0,0.28571,-44.286,493.9)"
       x2="298"
       gradientUnits="userSpaceOnUse"
       y2="-1507.6"
       id="linearGradient5353-0">
      <stop
         offset="0"
         style="stop-color:#259dd2"
         id="stop19848-1-0-6" />
      <stop
         offset="1"
         style="stop-color:#025583"
         id="stop19850-7-8-4" />
    </linearGradient>
    <linearGradient
       inkscape:collect="always"
       xlink:href="#linearGradient8642-9-0-4"
       id="linearGradient10887"
       gradientUnits="userSpaceOnUse"
       gradientTransform="matrix(0.5,0,0,0.64286,-105.47731,883.90843)"
       x1="516.04999"
       y1="192.98"
       x2="495.67001"
       y2="192.98" />
    <linearGradient
       id="linearGradient8642-9-0-4">
      <stop
         offset="0"
         style="stop-color:#000061"
         id="stop8644-6-2-8" />
      <stop
         offset="1"
         style="stop-color:#006f86;stop-opacity:0"
         id="stop8646-5-9-5" />
    </linearGradient>
    <radialGradient
       inkscape:collect="always"
       xlink:href="#radialGradient5537-6"
       id="radialGradient10889"
       gradientUnits="userSpaceOnUse"
       gradientTransform="matrix(1.4286,0,0,0.7619,61.66569,956.75443)"
       cx="58"
       cy="44.923"
       r="10.5" />
    <radialGradient
       r="10.5"
       gradientTransform="matrix(1.4286,0,0,0.7619,-22.857,11.773)"
       cx="58"
       cy="44.923"
       gradientUnits="userSpaceOnUse"
       id="radialGradient5537-6">
      <stop
         offset="0"
         id="stop5533-6" />
      <stop
         offset="1"
         style="stop-opacity:0"
         id="stop5535-4" />
    </radialGradient>
    <linearGradient
       inkscape:collect="always"
       xlink:href="#linearGradient5501-6"
       id="linearGradient10891"
       gradientUnits="userSpaceOnUse"
       gradientTransform="matrix(9.818,0,0,8,-2168.9,4579.1)"
       x1="230"
       y1="-581.64001"
       x2="230"
       y2="-577.57001" />
    <linearGradient
       x1="230"
       y1="-581.64001"
       gradientTransform="matrix(9.818,0,0,8,-2168.9,4579.1)"
       x2="230"
       gradientUnits="userSpaceOnUse"
       y2="-577.57001"
       id="linearGradient5501-6">
      <stop
         offset="0"
         style="stop-color:#44adeb"
         id="stop19798-9-2" />
      <stop
         offset="1"
         style="stop-color:#aadcf7"
         id="stop19800-3-8" />
    </linearGradient>
    <linearGradient
       inkscape:collect="always"
       xlink:href="#linearGradient5503-9"
       id="linearGradient10893"
       gradientUnits="userSpaceOnUse"
       gradientTransform="matrix(-8.8663,0,0,8.1065,3146.9,-9585.6)"
       x1="345"
       y1="1173"
       x2="345"
       y2="1178" />
    <linearGradient
       x1="345"
       y1="1173"
       gradientTransform="matrix(-8.8663,0,0,8.1065,3146.9,-9585.6)"
       x2="345"
       gradientUnits="userSpaceOnUse"
       y2="1178"
       id="linearGradient5503-9">
      <stop
         offset="0"
         style="stop-color:#666"
         id="stop10294-5-6-6" />
      <stop
         offset="1"
         style="stop-color:#333"
         id="stop10296-7-0" />
    </linearGradient>
    <linearGradient
       inkscape:collect="always"
       xlink:href="#linearGradient5505-7"
       id="linearGradient10895"
       gradientUnits="userSpaceOnUse"
       gradientTransform="translate(-301,1261.6)"
       x1="346.70001"
       y1="-1313.5"
       x2="361.37"
       y2="-1303.8" />
    <linearGradient
       x1="346.70001"
       y1="-1313.5"
       gradientTransform="translate(-301,1261.6)"
       x2="361.37"
       gradientUnits="userSpaceOnUse"
       y2="-1303.8"
       id="linearGradient5505-7">
      <stop
         offset="0"
         style="stop-color:#fff"
         id="stop8676-0-0" />
      <stop
         offset="1"
         style="stop-color:#fff;stop-opacity:0"
         id="stop8678-5-1" />
    </linearGradient>
    <linearGradient
       inkscape:collect="always"
       xlink:href="#linearGradient5507-0"
       id="linearGradient10897"
       gradientUnits="userSpaceOnUse"
       gradientTransform="matrix(8.8663,0,0,8.1065,-3046.9,-9583.1)"
       x1="345"
       y1="1173.9"
       x2="345"
       y2="1178" />
    <linearGradient
       x1="345"
       y1="1173.9"
       gradientTransform="matrix(8.8663,0,0,8.1065,-3046.9,-9583.1)"
       x2="345"
       gradientUnits="userSpaceOnUse"
       y2="1178"
       id="linearGradient5507-0">
      <stop
         offset="0"
         style="stop-color:#666"
         id="stop8657-0-1" />
      <stop
         offset="1"
         style="stop-color:#1a1a1a"
         id="stop8659-7-3" />
    </linearGradient>
    <linearGradient
       inkscape:collect="always"
       xlink:href="#linearGradient5509-7"
       id="linearGradient10899"
       gradientUnits="userSpaceOnUse"
       gradientTransform="matrix(2.5333,0,0,2.5333,-699.85,1569.1)"
       x1="298.19"
       y1="-631.15002"
       x2="298.19"
       y2="-634.27002" />
    <linearGradient
       x1="298.19"
       y1="-631.15002"
       gradientTransform="matrix(2.5333,0,0,2.5333,-699.85,1569.1)"
       x2="298.19"
       gradientUnits="userSpaceOnUse"
       y2="-634.27002"
       id="linearGradient5509-7">
      <stop
         offset="0"
         style="stop-color:#18a303"
         id="stop13216-6-7-7" />
      <stop
         offset="1"
         style="stop-color:#106802"
         id="stop13218-4-1-2" />
    </linearGradient>
    <linearGradient
       inkscape:collect="always"
       xlink:href="#linearGradient5511-6"
       id="linearGradient10901"
       gradientUnits="userSpaceOnUse"
       gradientTransform="matrix(8.8663,0,0,8.1065,-3046.9,-9573)"
       x1="345"
       y1="1173"
       x2="345"
       y2="1178" />
    <linearGradient
       x1="345"
       y1="1173"
       gradientTransform="matrix(8.8663,0,0,8.1065,-3046.9,-9573)"
       x2="345"
       gradientUnits="userSpaceOnUse"
       y2="1178"
       id="linearGradient5511-6">
      <stop
         offset="0"
         style="stop-color:#0369a3"
         id="stop9336-9-3-4" />
      <stop
         offset="1"
         style="stop-color:#023f62"
         id="stop9338-9-5-5" />
    </linearGradient>
    <linearGradient
       inkscape:collect="always"
       xlink:href="#linearGradient5513-2"
       id="linearGradient10904"
       gradientUnits="userSpaceOnUse"
       gradientTransform="translate(-301,1261.6)"
       x1="337.37"
       y1="-1311.4"
       x2="337.37"
       y2="-1304.4" />
    <linearGradient
       x1="337.37"
       y1="-1311.4"
       gradientTransform="translate(-301,1261.6)"
       x2="337.37"
       gradientUnits="userSpaceOnUse"
       y2="-1304.4"
       id="linearGradient5513-2">
      <stop
         offset="0"
         style="stop-color:#666"
         id="stop8629-1-0" />
      <stop
         offset="1"
         style="stop-color:#666;stop-opacity:.5"
         id="stop8631-8-2" />
    </linearGradient>
    <radialGradient
       inkscape:collect="always"
       xlink:href="#radialGradient5515-9"
       id="radialGradient10906"
       gradientUnits="userSpaceOnUse"
       gradientTransform="matrix(-3.3157,0,0,-7.5844,-5016.4,-6481.3)"
       cx="-1535.3"
       cy="-842.90997"
       r="10" />
    <radialGradient
       r="10"
       gradientTransform="matrix(-3.3157,0,0,-7.5844,-5016.4,-6481.3)"
       cx="-1535.3"
       cy="-842.90997"
       gradientUnits="userSpaceOnUse"
       id="radialGradient5515-9">
      <stop
         offset="0"
         style="stop-color:#fff"
         id="stop8550-7-0" />
      <stop
         offset="1"
         style="stop-color:#00a8ff;stop-opacity:0"
         id="stop8552-3-9" />
    </radialGradient>
    <linearGradient
       inkscape:collect="always"
       xlink:href="#linearGradient5517-9"
       id="linearGradient10908"
       gradientUnits="userSpaceOnUse"
       gradientTransform="translate(-301,1261.6)"
       x1="337.37"
       y1="-1311.4"
       x2="337.37"
       y2="-1299.6" />
    <linearGradient
       x1="337.37"
       y1="-1311.4"
       gradientTransform="translate(-301,1261.6)"
       x2="337.37"
       gradientUnits="userSpaceOnUse"
       y2="-1299.6"
       id="linearGradient5517-9">
      <stop
         offset="0"
         style="stop-color:#666"
         id="stop8629-7-7-4" />
      <stop
         offset="1"
         style="stop-color:#666;stop-opacity:.5"
         id="stop8631-0-3-5" />
    </linearGradient>
    <linearGradient
       inkscape:collect="always"
       xlink:href="#linearGradient5519-1"
       id="linearGradient10910"
       gradientUnits="userSpaceOnUse"
       gradientTransform="translate(-301,1261.6)"
       x1="349.54999"
       y1="-1308.9"
       x2="349.54999"
       y2="-1302.7" />
    <linearGradient
       x1="349.54999"
       y1="-1308.9"
       gradientTransform="translate(-301,1261.6)"
       x2="349.54999"
       gradientUnits="userSpaceOnUse"
       y2="-1302.7"
       id="linearGradient5519-1">
      <stop
         offset="0"
         style="stop-color:#808080"
         id="stop8637-3-0" />
      <stop
         offset="1"
         style="stop-color:#666"
         id="stop8639-0-3" />
    </linearGradient>
    <linearGradient
       inkscape:collect="always"
       xlink:href="#linearGradient5521-7"
       id="linearGradient10912"
       gradientUnits="userSpaceOnUse"
       gradientTransform="translate(-301,1261.6)"
       x1="349.54999"
       y1="-1307.7"
       x2="349.54999"
       y2="-1301.2" />
    <linearGradient
       x1="349.54999"
       y1="-1307.7"
       gradientTransform="translate(-301,1261.6)"
       x2="349.54999"
       gradientUnits="userSpaceOnUse"
       y2="-1301.2"
       id="linearGradient5521-7">
      <stop
         offset="0"
         style="stop-color:#808080"
         id="stop8637-5-5-8" />
      <stop
         offset="1"
         style="stop-color:#666"
         id="stop8639-8-2-8" />
    </linearGradient>
    <linearGradient
       inkscape:collect="always"
       xlink:href="#linearGradient5523-6"
       id="linearGradient10914"
       gradientUnits="userSpaceOnUse"
       gradientTransform="translate(-301,1261.6)"
       x1="337.38"
       y1="-1293.6"
       x2="337.38"
       y2="-1287.5" />
    <linearGradient
       x1="337.38"
       y1="-1293.6"
       gradientTransform="translate(-301,1261.6)"
       x2="337.38"
       gradientUnits="userSpaceOnUse"
       y2="-1287.5"
       id="linearGradient5523-6">
      <stop
         offset="0"
         style="stop-color:#0369a3"
         id="stop9155-2-0" />
      <stop
         offset="1"
         style="stop-color:#047fc6"
         id="stop9157-5-4" />
    </linearGradient>
    <linearGradient
       inkscape:collect="always"
       xlink:href="#linearGradient5525-6"
       id="linearGradient10916"
       gradientUnits="userSpaceOnUse"
       x1="445.70001"
       y1="1103.6"
       x2="441.39001"
       y2="1099.8" />
    <linearGradient
       x1="445.70001"
       y1="1103.6"
       x2="441.39001"
       gradientUnits="userSpaceOnUse"
       y2="1099.8"
       id="linearGradient5525-6">
      <stop
         offset="0"
         style="stop-color:#e9b913"
         id="stop10757-8-7" />
      <stop
         offset="1"
         style="stop-color:#ff0"
         id="stop10759-3-6" />
    </linearGradient>
  </defs>
  <sodipodi:namedview
     id="base"
     pagecolor="#ffffff"
     bordercolor="#666666"
     borderopacity="1.0"
     inkscape:pageopacity="0.0"
     inkscape:pageshadow="2"
     inkscape:zoom="3.959798"
     inkscape:cx="28.389459"
     inkscape:cy="57.490015"
     inkscape:document-units="px"
     inkscape:current-layer="layer1"
     showgrid="false"
     inkscape:window-width="1280"
     inkscape:window-height="725"
     inkscape:window-x="0"
     inkscape:window-y="25"
     inkscape:window-maximized="1" />
  <metadata
     id="metadata7">
    <rdf:RDF>
      <cc:Work
         rdf:about="">
        <dc:format>image/svg+xml</dc:format>
        <dc:type
           rdf:resource="http://purl.org/dc/dcmitype/StillImage" />
        <dc:title></dc:title>
      </cc:Work>
    </rdf:RDF>
  </metadata>
  <g
     inkscape:label="Layer 1"
     inkscape:groupmode="layer"
     id="layer1"
     transform="translate(0,-956.36217)">
    <g
       id="g10966"
       transform="translate(-1.0754402e-8,-1.2752747e-5)">
      <rect
         transform="translate(-1.7480468e-7,-2.6171874e-6)"
         y="964.54077"
         x="8"
         height="80"
         width="80"
         id="rect10662"
         style="fill:#000000;fill-opacity:1;stroke:none;filter:url(#filter6221)"
         rx="5"
         ry="5" />
      <rect
         ry="5"
         rx="5"
         style="fill:url(#linearGradient10799);fill-opacity:1;stroke:none"
         id="rect10664"
         width="80"
         height="80"
         x="7.9684296"
         y="964.54077" />
      <path
         id="rect3789-1"
         transform="translate(0,956.36218)"
         d="m 19.53125,15.6875 c -2.250625,0 -4.0625,1.811875 -4.0625,4.0625 l 0,56.875 c 0,2.250625 1.811875,4.0625 4.0625,4.0625 l 56.875,0 c 2.250625,0 4.0625,-1.811875 4.0625,-4.0625 l 0,-56.875 c 0,-2.250625 -1.811875,-4.0625 -4.0625,-4.0625 l -56.875,0 z m 4.375,5 48.125,0 c 1.904375,0 3.4375,1.533125 3.4375,3.4375 l 0,48.125 c 0,1.904375 -1.533125,3.4375 -3.4375,3.4375 l -48.125,0 c -1.904375,0 -3.4375,-1.533125 -3.4375,-3.4375 l 0,-48.125 c 0,-1.904375 1.533125,-3.4375 3.4375,-3.4375 z"
         style="fill:#ffffff;fill-opacity:1;stroke:none"
         inkscape:connector-curvature="0" />
      <g
         transform="translate(-84.50425,5.53541)"
         id="g9588">
        <rect
           x="128.52267"
           y="980.98145"
           width="24"
           height="16"
           style="color:#000000;fill:url(#linearGradient10885)"
           id="rect8348" />
        <path
           d="m 142.52269,980.98143 v 16 h 10 v -16 h -10 z"
           style="opacity:0.5;color:#000000;fill:url(#linearGradient10887)"
           id="path5677"
           inkscape:connector-curvature="0" />
        <path
           d="m 116.52269,982.98143 v 2 h 10 v -2 z m -4,4 v 2 h 14 v -2 z m 0,4 v 2 h 14 v -2 z m 0,4 v 2 h 14 v -2 z m 0,4 v 1.99997 h 40 v -1.99997 z m 0,3.99997 v 2 h 40 v -2 z m 0,4 v 2 h 40 v -2 z m 0,4 v 2 h 40 v -2 z m 0,4 v 2 h 26 v -2 z"
           style="color:#000000;fill:#ffffff"
           id="path5633"
           inkscape:connector-curvature="0" />
        <path
           d="m 116.52269,982.98143 v 2 h 6 v -2 h -6 z m -4,4 v 2 h 10 v -2 h -10 z m 0,4 v 2 h 10 v -2 h -10 z m 0,4 v 2 h 10 v -2 h -10 z m 0,4 v 1.99997 h 10 v -1.99997 h -10 z m 0,3.99997 v 2 h 10 v -2 h -10 z m 0,4 v 2 h 10 v -2 h -10 z m 0,4 v 2 h 10 v -2 h -10 z m 0,4 v 2 h 10 v -2 h -10 z"
           style="opacity:0.5;color:#000000;fill:#ffffff"
           id="path5668"
           inkscape:connector-curvature="0" />
        <rect
           x="130.52267"
           y="982.98145"
           width="21"
           height="13"
           style="opacity:0.5;color:#000000;fill:url(#radialGradient10889)"
           id="rect5527" />
        <g
           transform="matrix(0.26315,0,0,0.24958,127.36469,1001.4694)"
           id="g5473">
          <rect
             x="12.001"
             y="-73.998001"
             width="75.998001"
             height="48"
             style="color:#000000;fill:url(#linearGradient10891)"
             id="rect8350" />
          <path
             d="m 67.344,-59.86 c -15.065,6.008 -29.779,14.22 -39.781,27.25 20.479,0 39.955,-0.9876 60.435,-0.9876 l 0.003,-9.0436 c -5.069,-4.394 -14.403,-15.032 -20.657,-17.218 z"
             style="opacity:0.5;color:#000000;fill:#ffffff"
             id="path9005"
             inkscape:connector-curvature="0" />
          <path
             d="m 67.734,-58.93 c 5.0666,2.5332 13.872,11.355 20.263,17.733 v 7.5997 H 29.733 c 10.135,-12.666 25.334,-20.266 38.001,-25.333 z"
             style="color:#000000;fill:url(#linearGradient10893)"
             id="path8352"
             inkscape:connector-curvature="0" />
          <path
             d="m 49.13,-44.206 0.44272,-3.5773 6.6529,-2.8463 3.7416,-3.4959 6.579,-2.6676 -1.7169,4.3216 -2.5648,4.493 c 0,0 -1.5267,4.8826 -1.5267,4.8826 l -1.0558,2.8131 -10.552,-3.9232 z"
             style="fill:#333333"
             id="path8354"
             inkscape:connector-curvature="0" />
          <path
             d="m 31.438,-67.079 c -6.449,9.7171 -11.859,18.514 -19.436,27.213 l 0.0676,7.0347 c 16.781,0 44.493,0.221 61.275,0.221 -14.057,-10.205 -29.375,-19.581 -38.094,-35.031 -1.2011,1.0694 -3.041,-0.519 -3.8125,0.5624 z"
             style="opacity:0.5;color:#000000;fill:url(#linearGradient10895)"
             id="path8661"
             inkscape:connector-curvature="0" />
          <path
             d="m 51.267,-47.531 c -7.5831,-6.2914 -11.4,-11.4 -16.466,-19 -1.4816,0.4474 -1.425,0.2772 -2.5333,0 0,0 -6.778,10.07 -10.133,15.2 -3.356,5.131 -10.135,12.667 -10.135,12.667 v 5.0665 h 58.264 c 0,0 -13.919,-10.055 -18.997,-13.933 z"
             style="color:#000000;fill:url(#linearGradient10897)"
             id="path8356"
             inkscape:connector-curvature="0" />
          <path
             d="m 88,-38.664 h -3.2656 l -14.467,2.5333 c 0,0 -14.296,-3.7999 -16.447,-3.7999 -2.113,0 -8.8858,1.2666 -10.153,1.2666 -0.88823,0 -6.3325,-2.5332 -7.6199,-2.5332 -2.1242,0 -4.572,2.6915 -10.905,3.7998 0,0 -1.8196,-4.0372 -3.007,-3.7998 -7.6,2.929 -10.135,2.533 -10.135,2.533 v 12.666 h 75.997 l 0.002,-12.666 h 2.8e-4 z"
             style="color:#000000;fill:url(#linearGradient10899)"
             id="path8358"
             inkscape:connector-curvature="0" />
          <path
             d="m 12.001,-36.131 -9.9e-4,10.133 h 65.867 l 2.5333,-2.5333 -2.5333,-2.5332 -5.0666,-2.5334 -12.666,-2.5332 -12.666,-1.2667 -11.4,1.2667 h -15.2 -8.8665 z"
             style="color:#000000;fill:url(#linearGradient10901)"
             id="path8360"
             inkscape:connector-curvature="0" />
          <path
             d="m 17.068,-41.197 c 0,0 3.6093,-5.7939 3.6093,-5.7939 l 4.278,-5.063 c 0,0 3.2666,-5.9502 3.2666,-5.9502 l 4.0458,-5.9926 -2.746,7.5677 -2.0107,6.2344 -0.97249,3.9328 -1.8147,4.19 c -0.73049,-0.5328 -1.654,-0.5525 -2.4869,-0.8228 0,0 -2.3784,0.9322 -2.3784,0.9322 0,0 -2.7906,0.7654 -2.7906,0.7654 z"
             style="fill:#333333"
             id="path8362"
             inkscape:connector-curvature="0" />
          <path
             d="m 26.361,-41.085 2.7237,-6.8784 1.3284,-7.1007 1.9213,-4.3839 1.1995,-4.5486 1.665,4.6804 0.47301,4.4696 2.0141,3.9818 1.9966,4.5749 0.37323,3.2315 -3.3538,0.9414 -3.1858,-1.2421 -3.5217,2.2848 h -3.6336 z"
             style="fill:url(#linearGradient10904)"
             id="path8366"
             inkscape:connector-curvature="0" />
          <path
             d="m 59.013,-39.926 -4.4373,-3.1983 -2.8341,-2.261 c 0,0 2.7525,4.2894 2.7525,4.2894 l 4.5189,1.1699 z"
             style="fill:#808080"
             id="path8368"
             inkscape:connector-curvature="0" />
          <rect
             x="41.998001"
             y="-88"
             width="32"
             height="76"
             transform="matrix(0,-1,-1,0,0,0)"
             style="color:#000000;fill:url(#radialGradient10906)"
             id="rect8544" />
          <path
             transform="matrix(0,1.9777,-3.2,0,3607,-946.62)"
             d="m 448.77,1099.7 a 7.5845,4.6875 0 0 1 -7.5845,4.6875 V 1099.7 z"
             style="opacity:0.5;color:#000000;fill:#e9b913"
             id="path8372"
             inkscape:connector-curvature="0" />
          <path
             d="m 62.73,-42.976 1.5659,-5.0425 c 0,0 1.9213,-4.3839 1.9213,-4.3839 0,0 1.1995,-4.5482 1.1995,-4.5482 l 1.665,4.6803 2.1355,3.9947 1.5391,3.9818 c 0,0 -0.2199,4.2582 -0.2199,4.2582 l 2.1149,2.1231 -4.3537,-0.2356 -8.787,-1.8183 1.2195,-3.0101 z"
             style="color:#000000;fill:url(#linearGradient10908)"
             id="path8374"
             inkscape:connector-curvature="0" />
          <path
             d="m 52.534,-41.197 c 0,0 -3.6885,-5.5898 -3.6885,-5.5898 l -6.5411,-7.1331 -5.4117,-7.1153 c 0,0 -2.0917,-2.9615 -2.0917,-2.9615 0,0 2.267,7.6889 2.267,7.6889 0,0 2.4863,4.611 2.4863,4.611 0,0 2.2055,7.0438 2.2055,7.0438 l 0.64107,3.456 c 0,0 2.2771,0.763 2.2771,0.763 l 3.4808,-0.8064 c 1.4613,-0.1444 2.9226,0.026 4.3752,0.044 z"
             style="fill:url(#linearGradient10910)"
             id="path8376"
             inkscape:connector-curvature="0" />
          <path
             d="m 86.971,-40.168 -2.976,-1.7897 c 0,0 -4.1661,-5.7083 -4.1661,-5.7083 l -6.1242,-5.2942 -4.7833,-3.9905 0.92119,3.3345 4.2279,6.6695 c 0,0 0.46386,6.0147 0.46386,6.0147 l 2.541,1.9517 5.6999,-1.1083 4.1957,-0.078 z"
             style="color:#000000;fill:url(#linearGradient10912)"
             id="path8378"
             inkscape:connector-curvature="0" />
          <path
             d="m 12.027,-33.531 -0.0257,7.5336 h 63.332 v -2.5333 l -2.5333,-2.5332 -12.666,-2.5334 -12.666,-1.2665 -12.666,1.2665 -13.709,0.3778 z"
             style="color:#000000;fill:url(#linearGradient10914)"
             id="path8380"
             inkscape:connector-curvature="0" />
          <path
             d="m 47.502,-36.065 -12.72,1.4419 -13.569,1.0378 -8.2752,0.029 8.1567,0.3393 13.984,-0.021 12.391,-1.2813 12.688,1.209 5.6442,1.101 6.9496,1.6177 2.2812,2.1875 0.3125,2.4063 h 1.1562 l 0.20512,-2.7873 -3.4111,-3.2617 -13.2,-2.4813 z"
             style="color:#000000;fill:#0088b7"
             id="path9073"
             inkscape:connector-curvature="0" />
          <path
             d="m 39.868,-28.531 2.5333,-2.5332 h 10.133 l 7.5998,2.5332 2.5333,2.5333 h -5.0666 l -17.733,-2.5333 z"
             style="opacity:0.5;fill:#1c99e0"
             id="path8382"
             inkscape:connector-curvature="0" />
          <path
             d="m 34.812,-63.998 1.5625,5.9062 c 1.2843,2.3781 3.8039,3.3846 5.8839,5.4107 3.0035,2.9257 6.3388,6.3819 7.6161,7.4956 l -1.0312,-1.5938 -6.5312,-7.1562 -5.4062,-7.0938 z"
             style="opacity:0.4;fill:#ffffff"
             id="path8616"
             inkscape:connector-curvature="0" />
          <path
             d="m 32.281,-63.998 -3.2696,7.6132 -3.2616,9.1368 -3.5736,4.3728 c 0.51396,0.1149 2.1057,0.4962 2.5424,0.8147 l 1.8125,-4.1875 0.96875,-3.9375 2.0312,-6.25 z"
             style="opacity:0.25"
             id="path8644"
             inkscape:connector-curvature="0" />
          <path
             d="m 36.031,-41.185 c -2.0688,0 -4.4331,2.5305 -10.406,3.6875 l -0.21875,0.125 c 0.10772,0.037 0.48667,0.1051 1.8125,-0.094 1.7678,-0.2652 8.0599,-2.9322 9.5625,-2.8437 1.5026,0.088 5.9911,2.6508 6.875,2.5625 0.88388,-0.089 9.3778,-1.3224 10.969,-0.9688 1.591,0.3535 16.188,3.625 16.188,3.625 l 13.938,-2.5625 3.25,0.094 v -1.0938 h -3.2812 l -14.438,2.5313 c 0,0 -14.318,-3.8125 -16.469,-3.8125 -2.113,0 -8.8889,1.2812 -10.156,1.2812 -0.88823,0 -6.3376,-2.5312 -7.625,-2.5312 z"
             style="opacity:0.35;fill:#ffff00"
             id="path8669"
             inkscape:connector-curvature="0" />
          <path
             transform="matrix(0,1.714,-2.7733,0,3137.8,-830.2)"
             d="m 448.77,1099.7 a 7.5845,4.6875 0 0 1 -7.5845,4.6875 V 1099.7 z"
             style="opacity:0.73999999;color:#000000;fill:url(#linearGradient10916)"
             id="path9046"
             inkscape:connector-curvature="0" />
          <path
             d="m 72,-73.998 c 0,8.8432 7.1566,16 16,16 v -0.9884 c -8.2975,0 -15.012,-6.7142 -15.012,-15.012 h -0.98842 z"
             style="opacity:0.5;color:#000000;fill:#ffffff"
             id="path9050"
             inkscape:connector-curvature="0" />
          <path
             d="m 68.906,-56.967 0.9375,3.3438 4.2188,6.6875 0.46875,6 2.5312,1.9687 0.4375,-0.094 -2.25,-2.25 -0.4375,-5.75 -2.4129,-3.709 6.4754,3.459 5.125,5.3437 -4.1562,-5.6875 -6.125,-5.3125 z m 15.094,15 0.25,0.2813 -0.0625,-0.1563 z"
             style="opacity:0.4;fill:#ffffff"
             id="path9064"
             inkscape:connector-curvature="0" />
          <path
             d="m 12,-73.998 v 48 h 76 v -48 H 12 z m 1,1 h 74 v 46 H 13 v -46 z"
             style="opacity:0.35;color:#000000;fill:#ffffff"
             id="rect9059"
             inkscape:connector-curvature="0" />
        </g>
        <path
           d="m 142.52269,998.98143 v 1.99997 h 10 v -1.99997 h -10 z m 0,3.99997 v 2 h 10 v -2 h -10 z m 0,4 v 2 h 10 v -2 h -10 z m 0,4 v 2 h 10 v -2 h -10 z"
           style="opacity:0.5;color:#000000;fill:#ffffff"
           id="path5670"
           inkscape:connector-curvature="0" />
      </g>
    </g>
  </g>
</svg>
