<?xml version="1.0" encoding="UTF-8" standalone="no"?>
<!-- Created with Inkscape (http://www.inkscape.org/) -->
<svg id="svg2" xmlns:rdf="http://www.w3.org/1999/02/22-rdf-syntax-ns#" xmlns="http://www.w3.org/2000/svg" height="96" width="96" version="1.1" xmlns:cc="http://creativecommons.org/ns#" xmlns:xlink="http://www.w3.org/1999/xlink" xmlns:dc="http://purl.org/dc/elements/1.1/">
 <defs id="defs4">
  <filter id="filter6279" color-interpolation-filters="sRGB">
   <feGaussianBlur id="feGaussianBlur6281" stdDeviation="0.8"/>
  </filter>
  <linearGradient id="linearGradient26911" y2="902.36" gradientUnits="userSpaceOnUse" x2="48" gradientTransform="translate(0 -.0000026172)" y1="1052.4" x1="48">
   <stop id="stop48920" style="stop-color:#504" offset="0"/>
   <stop id="stop48922" style="stop-color:#ffd5f6" offset="1"/>
  </linearGradient>
  <linearGradient id="linearGradient49000" y2="-1131.6" gradientUnits="userSpaceOnUse" x2="1199.2" gradientTransform="matrix(.85714 0 0 .66667 -990.81 1743.7)" y1="-1083.6" x1="1199.2">
   <stop id="stop8756-0" style="stop-color:#dc85e9" offset="0"/>
   <stop id="stop8758-2" style="stop-color:#f8dcfb" offset="1"/>
  </linearGradient>
  <radialGradient id="radialGradient49002" gradientUnits="userSpaceOnUse" cy="-754.64" cx="152.33" gradientTransform="matrix(.0000012696 .4738 -1.3367 0 -961.27 942)" r="15">
   <stop id="stop8719-2" style="stop-color:#800080" offset="0"/>
   <stop id="stop8723-6" style="stop-color:#800080" offset=".72684"/>
   <stop id="stop8721-1" style="stop-color:#f0f;stop-opacity:0" offset="1"/>
  </radialGradient>
  <linearGradient id="linearGradient49004" y2="16" gradientUnits="userSpaceOnUse" x2="48" gradientTransform="translate(-.52021 949.28)" y1="80" x1="48">
   <stop id="stop4325-4" style="stop-color:#dfdfdf" offset="0"/>
   <stop id="stop4327-4" style="stop-color:#fefefe" offset="1"/>
  </linearGradient>
  <linearGradient id="linearGradient49006" y2="970.5" gradientUnits="userSpaceOnUse" x2="404.5" gradientTransform="matrix(.59555 0 0 .59555 -208.01 423.11)" y1="970.5" x1="453.5">
   <stop id="stop48971" style="stop-color:#504" offset="0"/>
   <stop id="stop48973" style="stop-color:#c658bc" offset=".27255"/>
   <stop id="stop48975" style="stop-color:#a02c89" offset=".50966"/>
   <stop id="stop48977" style="stop-color:#ff80e5" offset=".83376"/>
   <stop id="stop48979" style="stop-color:#ffd5f6" offset="1"/>
  </linearGradient>
  <radialGradient id="radialGradient49008" gradientUnits="userSpaceOnUse" cy="46.44" cx="47.995" gradientTransform="matrix(1 0 0 .25496 -.52021 983.88)" r="13.995">
   <stop id="stop14496-99" style="stop-color:#dc85e9" offset="0"/>
   <stop id="stop14498-10" style="stop-color:#f2cbf8" offset="1"/>
  </radialGradient>
  <linearGradient id="linearGradient49010" y2="970.5" xlink:href="#linearGradient8964-8" gradientUnits="userSpaceOnUse" x2="404.5" gradientTransform="matrix(.59555 0 0 .59555 -208.01 423.73)" y1="970.5" x1="453.5"/>
  <linearGradient id="linearGradient8964-8">
   <stop id="stop8966-2" style="stop-color:#e196fb" offset="0"/>
   <stop id="stop8968-8" style="stop-color:#f4c7fa" offset=".13011"/>
   <stop id="stop8970-4" style="stop-color:#e091f3" offset=".3136"/>
   <stop id="stop8972-22" style="stop-color:#d764e9" offset=".44079"/>
   <stop id="stop8974-74" style="stop-color:#e7adf0" offset=".68365"/>
   <stop id="stop8976-4" style="stop-color:#e6a9f8" offset=".75621"/>
   <stop id="stop8978-3" style="stop-color:#e595f2" offset=".88022"/>
   <stop id="stop8980-5" style="stop-color:#f2cbf8" offset="1"/>
  </linearGradient>
  <linearGradient id="linearGradient49012" y2="970.5" xlink:href="#linearGradient8964-8" gradientUnits="userSpaceOnUse" x2="404.5" gradientTransform="matrix(.59555 0 0 .59555 -208.01 424.37)" y1="970.5" x1="453.5"/>
  <linearGradient id="linearGradient49014" y2="970.5" xlink:href="#linearGradient8964-8" gradientUnits="userSpaceOnUse" x2="404.5" gradientTransform="matrix(.59555 0 0 .59555 -208.01 425.01)" y1="970.5" x1="453.5"/>
  <linearGradient id="linearGradient49016" y2="184" gradientUnits="userSpaceOnUse" x2="1542" gradientTransform="matrix(-.53333 0 0 4.25 858.41 -2.9844)" y1="184" x1="1559.5">
   <stop id="stop8744-1" style="stop-color:#9200ff" offset="0"/>
   <stop id="stop8746-5" style="stop-color:#f0f;stop-opacity:0" offset="1"/>
  </linearGradient>
  <linearGradient id="linearGradient49018" y2="194" gradientUnits="userSpaceOnUse" x2="1485.9" gradientTransform="matrix(.39211 0 0 .30769 -539.33 939.97)" y1="169" x1="1510.5">
   <stop id="stop8986-2" style="stop-color:#fff" offset="0"/>
   <stop id="stop8988-6" style="stop-color:#fff;stop-opacity:0" offset="1"/>
  </linearGradient>
  <linearGradient id="linearGradient49020" y2="50.261" xlink:href="#linearGradient4508-0-9" gradientUnits="userSpaceOnUse" x2="62" gradientTransform="translate(-.52021 949.28)" y1="50.261" x1="34"/>
  <linearGradient id="linearGradient4508-0-9">
   <stop id="stop4510-5-8" style="stop-color:#fff" offset="0"/>
   <stop id="stop4512-1-9" style="stop-color:#fff;stop-opacity:0" offset="1"/>
  </linearGradient>
  <linearGradient id="linearGradient49022" y2="50.261" xlink:href="#linearGradient4508-0-9" gradientUnits="userSpaceOnUse" x2="62" gradientTransform="translate(-.52021 955.28)" y1="50.261" x1="34"/>
  <linearGradient id="linearGradient49024" y2="50.261" xlink:href="#linearGradient4508-0-9" gradientUnits="userSpaceOnUse" x2="62" gradientTransform="translate(-.52021 961.28)" y1="50.261" x1="34"/>
 </defs>
 <metadata id="metadata7">
  <rdf:RDF>
   <cc:Work rdf:about="">
    <dc:format>image/svg+xml</dc:format>
    <dc:type rdf:resource="http://purl.org/dc/dcmitype/StillImage"/>
    <dc:title/>
   </cc:Work>
  </rdf:RDF>
 </metadata>
 <g id="layer1" transform="translate(0 -956.36)">
  <g id="g49026" transform="translate(2.861e-8 -.000012971)">
   <rect id="rect6273" ry="5" style="filter:url(#filter6279)" rx="5" transform="translate(0 -.0000026172)" height="80" width="80" y="964.36" x="8"/>
   <rect id="rect3820" style="fill:url(#linearGradient26911)" rx="5" ry="5" height="80" width="80" y="964.36" x="8"/>
   <g id="g48981" transform="translate(.02232 -1.0714)">
    <g id="g48925" transform="translate(-128.93 1.0714)">
     <path id="rect3789-1-31" d="m148.47 15.5c-2.2506 0-4.0625 1.8119-4.0625 4.0625v56.875c0 2.2506 1.8119 4.0625 4.0625 4.0625h56.875c2.2506 0 4.0625-1.8119 4.0625-4.0625v-56.875c0-2.2506-1.8119-4.0625-4.0625-4.0625h-56.875zm4.375 5h48.125c1.9044 0 3.4375 1.5331 3.4375 3.4375v48.125c0 1.9044-1.5331 3.4375-3.4375 3.4375h-48.125c-1.9044 0-3.4375-1.5331-3.4375-3.4375v-48.125c0-1.9044 1.5331-3.4375 3.4375-3.4375z" style="fill:#fff" transform="translate(0 956.36)"/>
     <g id="g4590" transform="translate(129.4 .056568)">
      <path id="path4246" style="opacity:.8;color:#000000;fill:url(#linearGradient49000)" d="m27.48 987.28v2h12v-2h-12zm14 0v2h12v-2h-12zm14 0v2h12v-2h-12zm-28 4v2h12v-2h-12zm14 0v2h12v-2h-12zm14 0v2h12v-2h-12zm-28 4v2h12v-2h-12zm14 0v2h12v-2h-12zm14 0v2h12v-2h-12zm-28 4v2h12v-2h-12zm14 0v2h12v-2h-12zm14 0v2h12v-2h-12zm-28 4v2h12v-2h-12zm14 0v2h12v-2h-12zm14 0v2h12v-2h-12zm-28 4v2h12v-2h-12zm14 0v2h12v-2h-12zm14 0v2h12v-2h-12zm-28 4v2h12v-2h-12zm14 0v2h12v-2h-12zm14 0v2h12v-2h-12zm-28 4v2h12v-2h-12zm14 0v2h12v-2h-12zm14 0v2h12v-2h-12zm-28 4v2h12v-2h-12zm14 0v2h12v-2h-12zm14 0v2h12v-2h-12z"/>
      <rect id="rect8713-4" style="opacity:.5;color:#000000;fill:url(#radialGradient49002)" height="14" width="40" y="1007.3" x="27.48"/>
      <path id="path4307" style="opacity:.2;color:#000000;fill:url(#linearGradient49004)" d="m59.48 987.28v2h8v-2h-8zm0 4v2h8v-2h-8zm0 4v2h8v-2h-8zm0 4v2h8v-2h-8zm0 4v2h8v-2h-8zm0 4v2h8v-2h-8zm0 4v2h8v-2h-8zm0 4v2h8v-2h-8zm0 4v2h8v-2h-8z"/>
      <path id="path4480" style="color:#000000;fill:url(#linearGradient49006)" d="m47.48 990.15c-0.46539 0-0.83865 0.0247-1.1562 0.0312a2.0145 2.0145 0 0 0 -0.03125 0c-2.8341 0.0805-6.0269 0.39791-9.2812 1.125-1.5522 0.34678-2.7722 0.95391-3.625 1.5-0.54889 0.35145-1.0631 0.71232-1.5 1.4375a2.0145 2.0145 0 0 0 -0.095 0.157c-0.04476 0.0681-0.03786-0.00031-0.125 0.21875-0.137 0.346-0.187 0.81-0.187 1.094 0-0.12665-0.05114-0.0366 0 0.375a2.0145 2.0145 0 0 0 0 0.0312c0.0067 0.0517-0.01252-0.0157 0 0.0625a2.0145 2.0145 0 0 0 0.0625 0.1875c0.02903 0.11441 0.08738 0.17813 0.125 0.28125a2.0145 2.0145 0 0 0 0 0.0312 2.0145 2.0145 0 0 0 -0.1875 0.875v3.8438c0 0.05-0.09532 0.4316 0.09375 1.0938 0.0248 0.087 0.09504 0.1079 0.125 0.1875a2.0145 2.0145 0 0 0 -0.219 0.9059c0 1.3639-0.01057 2.7305 0 4.125 0.0017 0.2273 0.0091 0.4457 0.125 0.8125 0.01638 0.052 0.07502 0.075 0.09375 0.125a2.0145 2.0145 0 0 0 -0.219 0.938v4.125c0 1.4932 0.96121 2.3324 1.9062 2.9375 0.96695 0.6192 2.1318 1.0585 3.5312 1.4375 2.801 0.759 6.489 1.188 10.563 1.188 4.0738 0 7.7624-0.429 10.562-1.1875 1.3994-0.379 2.5642-0.8182 3.5312-1.4375 0.946-0.605 1.907-1.4439 1.907-2.937v-4.125a2.0145 2.0145 0 0 0 -0.219 -0.938c0.03183-0.092 0.1303-0.1173 0.15625-0.2187 0.0027-0.011-0.0026-0.021 0-0.031 0.142-0.592 0.063-0.877 0.063-1v-3.8125a2.0145 2.0145 0 0 0 -0.219 -0.9371c0.03089-0.09 0.13134-0.1213 0.15625-0.2187 0.0026-0.01-0.0025-0.021 0-0.031 0.142-0.592 0.063-0.877 0.063-1v-3.8438a2.0145 2.0145 0 0 0 -0.188 -0.843c0.0065-0.0171 0.02486-0.0139 0.03125-0.0312a2.0145 2.0145 0 0 0 0.063 -0.157c0.000017-0.00006-0.000667-0.0279 0-0.0312 0.003-0.0112-0.0028-0.0201 0-0.0312 0.01376-0.0698 0.05735-0.27076 0.0625-0.34375 0.0013-0.01-0.0011-0.0213 0-0.0312 0.0039-0.0639 0.00047-0.0912 0-0.125-0.000365-0.0205 0.000532-0.0169 0-0.0312-0.0016-0.0724-0.000308-0.0981 0-0.0937 0.0014-0.0395 0.03125-0.086 0.03125-0.125 0-0.27199-0.12541-0.40209-0.1875-0.625 0.0038 0.0856 0.03591 0.18371 0.03125 0.25 0.01764-0.25988-0.09178-0.74822-0.3125-1.1562l0.031-0.031c-0.05129-0.0856-0.02143-0.0344-0.0625-0.0937-0.01474-0.0225-0.01533-0.0406-0.03125-0.0625l-0.03 0.031c-0.05733-0.0749-0.05835-0.12524-0.09375-0.15625-0.01002-0.0124-0.02115-0.019-0.03125-0.0312-0.36012-0.43669-0.75547-0.7546-1.1875-1.0312-0.95416-0.61096-2.1408-1.0837-3.5625-1.4688-1.732-0.46908-3.8393-0.8331-6.1562-1.0312-0.10337-0.009 0.0079 0.002-0.03125 0-0.07829-0.005-0.23423-0.014-0.0625 0-0.39993-0.0318-0.84499-0.0681-1.3125-0.0937-0.13478-0.007-0.0202-0.00025-0.03125 0s-0.1476-0.006-0.03125 0a2.0145 2.0145 0 0 0 -0.03125 0c-0.52748-0.0276-0.96028-0.0203-1.375-0.0312-0.13163-0.004-0.14188-0.003-0.03125 0-0.455-0.012-0.967-0.032-1.503-0.032z"/>
      <path id="path4458" style="color:#000000;fill:url(#radialGradient49008)" d="m47.475 992.15c-0.38272 0-0.7603 0.0109-1.1353 0.0186-2.7183 0.0772-5.7793 0.4131-8.8867 1.1073-1.2905 0.28833-2.3035 0.77198-2.987 1.2097-0.42725 0.27356-0.7215 0.54596-0.87471 0.80026-0.01226 0.0254-0.02706 0.0489-0.03722 0.0744-0.047 0.121-0.074 0.24-0.074 0.363 0 0.0383 0.0046 0.0738 0.0093 0.11167 0.0013 0.006-0.0014 0.0126 0 0.0186 0.000894 0.006-0.001 0.0124 0 0.0186 0.16054 0.63264 0.95607 1.1148 1.554 1.4144 0.7168 0.3592 1.4423 0.62844 2.2798 0.84679 3.6093 0.92637 7.5248 1.2079 11.474 1.1446 2.8538-0.0732 5.8216-0.35452 8.7936-1.126 0.87045-0.22595 1.8355-0.57293 2.6427-1.0329 0.42998-0.24504 1.0089-0.61467 1.2004-1.1353 0.0018-0.006 0.0076-0.012 0.0093-0.0186 0.02156-0.0805 0.0279-0.15951 0.0279-0.24194 0-0.17455-0.04487-0.34394-0.13958-0.5118-0.0062-0.009-0.01206-0.019-0.01861-0.0279-0.0117-0.0195-0.0336-0.0364-0.04653-0.0558-0.16786-0.2086-0.42126-0.42321-0.76304-0.64207-0.68357-0.4377-1.7107-0.86402-2.987-1.2097-1.5955-0.43211-3.583-0.77003-5.8066-0.95846-0.02446-0.002-0.04992-0.007-0.07444-0.009-0.42005-0.0334-0.84817-0.0605-1.2841-0.0838-0.01823-0.001-0.03758 0.001-0.05583 0-0.44638-0.0233-0.89784-0.0436-1.3586-0.0558-0.0091-0.00024-0.01872 0.00024-0.02792 0-0.47045-0.0122-0.94992-0.0186-1.433-0.0186z"/>
      <path id="path4456" style="color:#000000;fill:url(#linearGradient49010)" d="m33.489 997.57v3.8338c0 0.1777-0.01093 0.3432 0.03722 0.5118 0.05318 0.1862 0.17485 0.4032 0.39083 0.6048 0.93802 0.8657 2.2389 1.2191 3.5361 1.6284 3.023 0.791 6.62 1.0998 10.031 1.126 3.161 0 6.6402-0.3008 9.9847-1.1166 0.94123-0.2544 2.0058-0.6032 2.9777-1.1725 0.5881-0.3444 0.91433-0.741 0.99568-1.0701 0.037-0.149 0.037-0.339 0.037-0.512v-3.8338c-0.97637 0.95207-2.4444 1.4241-3.8245 1.8146-2.7889 0.78896-5.8291 1.0123-8.8401 1.1073-3.7243 0.1092-7.5992-0.2021-11.501-1.1073-0.96901-0.23631-2.1656-0.68037-3.1452-1.2748-0.26463-0.16059-0.4908-0.35063-0.6793-0.53972z"/>
      <path id="path4454" style="color:#000000;fill:url(#linearGradient49012)" d="m33.489 1003.6c0 1.3741-0.01042 2.7482 0 4.1223 0.000477 0.064 0.01489 0.1433 0.03722 0.214 0.05821 0.1848 0.1731 0.4052 0.39083 0.6049 0.32136 0.2947 0.72156 0.5721 1.1539 0.7723 2.5366 1.1645 5.1961 1.4394 8.1888 1.8053 1.333 0.126 2.752 0.177 4.225 0.177 2.9119 0 5.7466-0.2371 8.8401-0.8375 1.3312-0.2893 2.8453-0.7025 4.1223-1.4516 0.57816-0.3609 0.91433-0.741 0.99568-1.0701 0.037-0.149 0.037-0.339 0.037-0.512v-3.8245c-0.1303 0.1203-0.66436 0.5535-1.005 0.7258-0.89528 0.453-2.0793 0.8754-3.1825 1.1632-3.1156 0.7999-6.4272 0.9729-9.8079 1.0422-3.3607-0.01-6.389-0.2661-9.8079-1.0422-1.236-0.3071-2.6553-0.7653-3.7966-1.554-0.14222-0.1073-0.27526-0.2206-0.39083-0.335z"/>
      <path id="path11957-3" style="color:#000000;fill:url(#linearGradient49014)" d="m33.489 1009.6v4.1223c0 0.3859 0.30459 0.8197 0.98638 1.2562 0.68178 0.4365 1.7029 0.8458 2.9777 1.1911 2.55 0.692 6.106 1.127 10.032 1.127 3.9251 0 7.4816-0.4355 10.031-1.126 1.2748-0.3453 2.296-0.7545 2.9777-1.1911 0.681-0.437 0.986-0.87 0.986-1.256v-4.1223c-0.21895 0.2031-0.43837 0.3932-0.71652 0.5583-1.0382 0.6131-2.2147 0.9896-3.4709 1.3307-3.1231 0.7783-6.4226 0.9875-9.8079 1.0422-1.3618 0.0004-2.8016-0.056-4.2712-0.1768-2.4364-0.2049-5.4937-0.641-8.0771-1.7122-0.564-0.237-1.181-0.584-1.648-1.043z"/>
      <path id="path4326" style="opacity:.2;color:#000000;fill:url(#linearGradient49016)" d="m27.48 987.28v2h8v-2h-8zm0 4v2h8v-2h-8zm0 4v2h8v-2h-8zm0 4v2h8v-2h-8zm0 4v2h8v-2h-8zm0 4v2h8v-2h-8zm0 4v2h8v-2h-8zm0 4v2h8v-2h-8zm0 4v2h8v-2h-8z"/>
      <path id="path4486" style="opacity:.3;fill:url(#linearGradient49018)" d="m41.668 992.56c-1.378 0.178-2.794 0.401-4.219 0.719-0.5822 0.13007-1.0981 0.28133-1.5625 0.46875l11.375 1.9375-5.5938-3.125zm5.5938 3.125 5.875 3.2812h0.03125c1.4602-0.1759 2.9618-0.42944 4.4375-0.8125 0.47775-0.12401 0.97574-0.3044 1.4688-0.5l-11.812-1.9688z"/>
      <path id="path4499" style="opacity:.5;color:#000000;fill:url(#linearGradient49020)" d="m33.48 997.56v1c0.18849 0.18909 0.42287 0.40191 0.6875 0.5625 0.97967 0.59447 2.1872 1.0449 3.1562 1.2812 3.9023 0.9052 7.7757 1.2029 11.5 1.0938 3.0111-0.095 6.0548-0.3048 8.8438-1.0938 1.3801-0.3905 2.8361-0.89169 3.8125-1.8438v-1c-0.97637 0.95207-2.4324 1.4533-3.8125 1.8438-2.7889 0.78901-5.8327 0.99871-8.8438 1.0938-3.7243 0.1091-7.5977-0.1886-11.5-1.0938-0.969-0.236-2.177-0.687-3.156-1.281-0.265-0.161-0.5-0.374-0.688-0.563z"/>
      <path id="path4516" style="opacity:.5;color:#000000;fill:url(#linearGradient49022)" d="m33.48 1003.6v1c0.18849 0.1891 0.42287 0.4019 0.6875 0.5625 0.97967 0.5945 2.1872 1.0449 3.1562 1.2812 3.9023 0.9052 7.7757 1.2029 11.5 1.0938 3.0111-0.095 6.0548-0.3048 8.8438-1.0938 1.3801-0.3905 2.8361-0.8917 3.8125-1.8438v-1c-0.97637 0.9521-2.4324 1.4533-3.8125 1.8438-2.7889 0.789-5.8327 0.9987-8.8438 1.0938-3.7243 0.1091-7.5977-0.1886-11.5-1.0938-0.969-0.236-2.177-0.687-3.156-1.281-0.265-0.161-0.5-0.374-0.688-0.563z"/>
      <path id="path4520" style="opacity:.5;color:#000000;fill:url(#linearGradient49024)" d="m33.48 1009.6v1c0.18849 0.1891 0.42287 0.4019 0.6875 0.5625 0.97967 0.5945 2.1872 1.0449 3.1562 1.2812 3.9023 0.9052 7.7757 1.2029 11.5 1.0938 3.0111-0.095 6.0548-0.3048 8.8438-1.0938 1.3801-0.3905 2.8361-0.8917 3.8125-1.8438v-1c-0.97637 0.9521-2.4324 1.4533-3.8125 1.8438-2.7889 0.789-5.8327 0.9987-8.8438 1.0938-3.7243 0.1091-7.5977-0.1886-11.5-1.0938-0.969-0.236-2.177-0.687-3.156-1.281-0.265-0.161-0.5-0.374-0.688-0.563z"/>
      <path id="path4524" style="opacity:.2;color:#000000;fill:#fff" d="m47.48 991.15c-0.38272 0-0.75004 0.0236-1.125 0.0312-2.718 0.077-5.799 0.4-8.906 1.094-1.291 0.288-2.285 0.781-2.969 1.219-0.427 0.273-0.722 0.527-0.875 0.781-0.012 0.025-0.052 0.068-0.063 0.094-0.047 0.12-0.062 0.22-0.062 0.344 0 0.0383-0.0047 0.0872 0 0.125 0.000894 0.006-0.001 0.025 0 0.0312 0.03173 0.12503 0.11259 0.23072 0.1875 0.34375 0.162-0.235 0.423-0.47 0.812-0.719 0.684-0.438 1.678-0.931 2.969-1.219 3.107-0.694 6.188-1.017 8.906-1.094 0.375-0.007 0.742-0.031 1.125-0.031 0.48309 0 0.96705 0.019 1.4375 0.0312 0.0092 0.00024 0.02215-0.00024 0.03125 0 0.46075 0.0122 0.89738 0.008 1.3438 0.0312 0.01825 0.001 0.04427-0.001 0.0625 0 0.43598 0.0233 0.8612 0.0604 1.2812 0.0937 0.02452 0.002 0.03804-0.002 0.0625 0 2.2236 0.18843 4.217 0.53664 5.8125 0.96875 1.2763 0.34569 2.3164 0.78105 3 1.2188 0.34178 0.21886 0.58214 0.4164 0.75 0.625 0.01293 0.0194 0.0508 0.043 0.0625 0.0625 0.03986-0.0663 0.09853-0.11554 0.125-0.1875 0.0018-0.006-0.0017-0.0247 0-0.0312 0.021-0.081 0.031-0.168 0.031-0.25 0-0.17455-0.06154-0.33215-0.15625-0.5-0.0062-0.009 0.0065-0.0223 0-0.0312-0.0117-0.0195-0.04957-0.0431-0.0625-0.0625-0.16786-0.2086-0.40822-0.40614-0.75-0.625-0.68357-0.4377-1.7237-0.87306-3-1.2188-1.5955-0.43211-3.5889-0.78032-5.8125-0.96875-0.02446-0.002-0.03798 0.002-0.0625 0-0.42005-0.0334-0.84527-0.0705-1.2812-0.0937-0.01823-0.001-0.04425 0.001-0.0625 0-0.44638-0.0233-0.883-0.0191-1.3438-0.0312-0.0091-0.00024-0.02205 0.00024-0.03125 0-0.47-0.013-0.954-0.032-1.437-0.032z"/>
     </g>
    </g>
   </g>
  </g>
 </g>
</svg>
