<?xml version="1.0" encoding="UTF-8" standalone="no"?>
<!-- Created with Inkscape (http://www.inkscape.org/) -->
<svg id="svg2" xmlns:rdf="http://www.w3.org/1999/02/22-rdf-syntax-ns#" xmlns="http://www.w3.org/2000/svg" height="96" width="96" version="1.1" xmlns:cc="http://creativecommons.org/ns#" xmlns:xlink="http://www.w3.org/1999/xlink" xmlns:dc="http://purl.org/dc/elements/1.1/">
 <defs id="defs4">
  <filter id="filter6279" color-interpolation-filters="sRGB">
   <feGaussianBlur id="feGaussianBlur6281" stdDeviation="0.8"/>
  </filter>
  <linearGradient id="linearGradient26791" y2="902.36" gradientUnits="userSpaceOnUse" x2="48" gradientTransform="translate(0 -.0000052344)" y1="1052.4" x1="48">
   <stop id="stop11877" style="stop-color:#f95400" offset="0"/>
   <stop id="stop11879" style="stop-color:#ffd42a" offset="1"/>
  </linearGradient>
  <linearGradient id="linearGradient26793" y2="658.13" gradientUnits="userSpaceOnUse" x2="1180.2" gradientTransform="matrix(.69697 0 0 .69697 -891.92 478.32)" y1="688.53" x1="1180.2">
   <stop id="stop11257-8" style="stop-color:#f6b7a8" offset="0"/>
   <stop id="stop11259-4" style="stop-color:#fee9d6" offset="1"/>
  </linearGradient>
  <linearGradient id="linearGradient26795" y2="662.17" gradientUnits="userSpaceOnUse" x2="1195.1" gradientTransform="matrix(.69697 0 0 .69697 -891.92 478.32)" y1="678.06" x1="1179.3">
   <stop id="stop11334-1" style="stop-color:#ad4e07" offset="0"/>
   <stop id="stop11336-1" style="stop-color:#e9744d" offset="1"/>
  </linearGradient>
  <linearGradient id="linearGradient26797" y2="686.96" gradientUnits="userSpaceOnUse" x2="1168" gradientTransform="matrix(.60042 0 0 .606 -777.65 539.77)" y1="671.49" x1="1183.5">
   <stop id="stop9660-2" style="stop-color:#f7c3a1" offset="0"/>
   <stop id="stop9664-3" style="stop-color:#f1b38e" offset=".47156"/>
   <stop id="stop9662-5" style="stop-color:#f17571" offset="1"/>
  </linearGradient>
  <linearGradient id="linearGradient26799" y2="-2617.5" gradientUnits="userSpaceOnUse" x2="1079.5" gradientTransform="matrix(.66667 0 0 .67692 -757.69 2738.1)" y1="-2650.3" x1="1079.5">
   <stop id="stop11460-6" style="stop-color:#a88200" offset="0"/>
   <stop id="stop11462-35" style="stop-color:#724a00" offset="1"/>
  </linearGradient>
  <linearGradient id="linearGradient26801" y2="-1575.6" gradientUnits="userSpaceOnUse" x2="1171.2" gradientTransform="matrix(.32258 0 0 .32258 -416.42 1453.4)" y1="-1513.4" x1="1171.2">
   <stop id="stop11515-0" style="stop-color:#d7ae1e" offset="0"/>
   <stop id="stop11517-2" style="stop-color:#ffd251" offset="1"/>
  </linearGradient>
  <linearGradient id="linearGradient26803" y2="-1504.9" gradientUnits="userSpaceOnUse" x2="1138" gradientTransform="matrix(.3 0 0 .3 -390.66 1418.5)" y1="-1562.1" x1="1171">
   <stop id="stop11505-4" style="stop-color:#e4bc33" offset="0"/>
   <stop id="stop11507-5" style="stop-color:#cd9215" offset="1"/>
  </linearGradient>
  <linearGradient id="linearGradient26805" y2="-1574.6" xlink:href="#linearGradient9569-3" gradientUnits="userSpaceOnUse" x2="535" gradientTransform="matrix(2.5,0,0,5,-1446.5,7981.2)" y1="-1568.6" x1="529.25"/>
  <linearGradient id="linearGradient9569-3">
   <stop id="stop9571-2" style="stop-color:#b42c00" offset="0"/>
   <stop id="stop9573-3" style="stop-color:#ffc600;stop-opacity:0" offset="1"/>
  </linearGradient>
  <linearGradient id="linearGradient26807" y2="-1574.6" xlink:href="#linearGradient9569-3" gradientUnits="userSpaceOnUse" x2="535" gradientTransform="matrix(2.5,0,0,5,-1258.5,7981.2)" y1="-1568.6" x1="529.25"/>
  <linearGradient id="linearGradient26809" y2="-1194.6" xlink:href="#linearGradient11804-7" gradientUnits="userSpaceOnUse" x2="144" gradientTransform="matrix(.1118 0 0 1 -55.456 2157.7)" y1="-1194.6" x1="-17"/>
  <linearGradient id="linearGradient11804-7">
   <stop id="stop11806-3" style="stop-color:#d40000;stop-opacity:0" offset="0"/>
   <stop id="stop11808-5" style="stop-color:#a00" offset=".49306"/>
   <stop id="stop11810-1" style="stop-color:#a00;stop-opacity:0" offset="1"/>
  </linearGradient>
  <linearGradient id="linearGradient26811" y2="-1495.6" gradientUnits="userSpaceOnUse" x2="1065.8" gradientTransform="matrix(.31881 0 0 .32257 -410.11 1455.6)" y1="-1561.4" x1="1065.8">
   <stop id="stop16821-94" style="stop-color:#e2b006" offset="0"/>
   <stop id="stop16823-3" style="stop-color:#bc8611" offset="1"/>
  </linearGradient>
  <linearGradient id="linearGradient26813" y2="887.43" gradientUnits="userSpaceOnUse" x2="1162.6" gradientTransform="matrix(1.4205 0 0 1.3444 -1711.1 -238.78)" y1="900.19" x1="1162.6">
   <stop id="stop11676-8" style="stop-color:#f8ca35" offset="0"/>
   <stop id="stop11678-46" style="stop-color:#fef0c4" offset="1"/>
  </linearGradient>
  <linearGradient id="linearGradient26815" y2="887.07" gradientUnits="userSpaceOnUse" x2="1162.2" gradientTransform="matrix(1.2188 0 0 1.1654 -1476.7 -78.489)" y1="900.72" x1="1162.2">
   <stop id="stop11614-0" style="stop-color:#edc33e" offset="0"/>
   <stop id="stop11616-7" style="stop-color:#fae6a5" offset="1"/>
  </linearGradient>
  <linearGradient id="linearGradient26817" y2="893.35" xlink:href="#linearGradient11704-0" gradientUnits="userSpaceOnUse" x2="1165.5" gradientTransform="matrix(.40628 0 0 .38846 -539.09 621.29)" y1="899.99" x1="1155"/>
  <linearGradient id="linearGradient11704-0">
   <stop id="stop11706-0" style="stop-color:#ff6a1e" offset="0"/>
   <stop id="stop11708-6" style="stop-color:#d45500;stop-opacity:0" offset="1"/>
  </linearGradient>
  <linearGradient id="linearGradient26819" y2="893.35" xlink:href="#linearGradient11704-0" gradientUnits="userSpaceOnUse" x2="1165.5" gradientTransform="matrix(-.40628 0 0 .38846 418.32 621.29)" y1="899.99" x1="1155"/>
  <radialGradient id="radialGradient26821" gradientUnits="userSpaceOnUse" cy="-853" cx="-1535.5" gradientTransform="matrix(-.80407 0 0 -.68205 -262.28 -521.15)" r="10">
   <stop id="stop10140-9" style="stop-color:#fff" offset="0"/>
   <stop id="stop10142-7" style="stop-color:#ffd5d5;stop-opacity:0" offset="1"/>
  </radialGradient>
  <linearGradient id="linearGradient26823" y2="900.72" xlink:href="#linearGradient11704-0" gradientUnits="userSpaceOnUse" x2="1162" gradientTransform="matrix(.30053 0 0 .29134 -409.58 696.4)" y1="889.01" x1="1162"/>
  <linearGradient id="linearGradient26825" y2="-1194.6" xlink:href="#linearGradient11804-7" gradientUnits="userSpaceOnUse" x2="144" gradientTransform="matrix(.12201 0 0 .28433 -68.652 1310.6)" y1="-1194.6" x1="-17"/>
  <radialGradient id="radialGradient26827" gradientUnits="userSpaceOnUse" cy="-848.92" cx="-1535.2" gradientTransform="matrix(-.93255 0 0 -1.3574 -2377.8 -1107.6)" r="10">
   <stop id="stop9565-44" style="stop-color:#fffb88" offset="0"/>
   <stop id="stop9567-5" style="stop-color:#b97f00;stop-opacity:0" offset="1"/>
  </radialGradient>
  <linearGradient id="linearGradient26829" y2="-1574.8" xlink:href="#linearGradient8903-1-89" gradientUnits="userSpaceOnUse" x2="535.44" gradientTransform="matrix(.16712 0 0 .16712 -52.403 377.15)" y1="-1568.6" x1="529.25"/>
  <linearGradient id="linearGradient8903-1-89">
   <stop id="stop8905-8-8" style="stop-color:#008000" offset="0"/>
   <stop id="stop8907-9-8" style="stop-color:#0f0;stop-opacity:0" offset="1"/>
  </linearGradient>
 </defs>
 <metadata id="metadata7">
  <rdf:RDF>
   <cc:Work rdf:about="">
    <dc:format>image/svg+xml</dc:format>
    <dc:type rdf:resource="http://purl.org/dc/dcmitype/StillImage"/>
    <dc:title/>
   </cc:Work>
  </rdf:RDF>
 </metadata>
 <g id="layer1" transform="translate(0 -956.36)">
  <g id="g26749" transform="translate(2.861e-8 -.000012354)">
   <rect id="rect9283" ry="5" style="filter:url(#filter6279)" rx="5" transform="translate(0 -.0000052344)" height="80" width="80" y="964.36" x="8"/>
   <rect id="rect9285" style="fill:url(#linearGradient26791)" rx="5" ry="5" height="80" width="80" y="964.36" x="8"/>
   <g id="g26594" transform="translate(-182.19 -40.406)">
    <path id="rect3789-1-5" style="fill:#fff" transform="translate(0 956.36)" d="m201.75 55.906c-2.2506 0-4.0625 1.8119-4.0625 4.0625v56.875c0 2.2506 1.8119 4.0625 4.0625 4.0625h56.875c2.2506 0 4.0625-1.8119 4.0625-4.0625v-56.875c0-2.2506-1.8119-4.0625-4.0625-4.0625h-56.875zm4.375 5h48.125c1.9044 0 3.4375 1.5331 3.4375 3.4375v48.125c0 1.9044-1.5331 3.4375-3.4375 3.4375h-48.125c-1.9044 0-3.4375-1.5331-3.4375-3.4375v-48.125c0-1.9044 1.5331-3.4375 3.4375-3.4375z"/>
    <g id="g5957" transform="translate(288.08 87.998)">
     <path id="path4836" d="m-60.423 952.83c-0.01785 0.0136-0.03418 0.0289-0.04865 0.0456-0.07986 0.0205-0.15071 0.0704-0.19406 0.1367l-6.356 10.302-6.308 10.348c-0.01776 0.0136-0.03401 0.0289-0.0484 0.0456-0.0048 0.0302-0.0048 0.061 0 0.0911-0.0048 0.0302-0.0048 0.061 0 0.0912 0.01065 0.0326 0.02707 0.0636 0.0484 0.0912 0.01446 0.0167 0.03079 0.032 0.04862 0.0456 0.01446 0.0167 0.03079 0.032 0.04862 0.0456 0.05765 0.0335 0.12646 0.0496 0.19409 0.0456h25.328c0.06761 0.004 0.13641-0.0122 0.19406-0.0456 0.01784-0.0136 0.03418-0.0289 0.04865-0.0456 0.01781-0.0136 0.03412-0.0289 0.04856-0.0456 0.02136-0.0276 0.03781-0.0585 0.04849-0.0912 0.0048-0.0302 0.0048-0.061 0-0.0912 0.0048-0.0302 0.0048-0.061 0-0.0911-0.01442-0.0167-0.0307-0.032-0.04849-0.0456l-6.307-10.348-6.356-10.302c-0.04337-0.0663-0.11424-0.11619-0.19412-0.1367-0.02938-0.0201-0.06232-0.0356-0.09705-0.0456-0.0161-0.001-0.0323-0.001-0.04839 0z" style="opacity:.15;color:#000000;text-transform:none;text-indent:0pt"/>
     <path id="path4754" d="m-54.858 950.12a11.5 11.5 0 0 1 -23 0 11.5 11.5 0 1 1 23 0z" style="opacity:.15;color:#000000;stroke:#000"/>
     <path id="path10779" d="m-54.858 949.12a11.5 11.5 0 0 1 -23 0 11.5 11.5 0 1 1 23 0z" style="color:#000000;stroke:url(#linearGradient26795);fill:url(#linearGradient26793)"/>
     <path id="path8594" d="m-56.544 949.12a9.9069 9.999 0 0 1 -19.814 0 9.9069 9.999 0 1 1 19.814 0z" style="color:#000000;fill:url(#linearGradient26797)"/>
     <rect id="rect11555" style="opacity:.15;color:#000000" rx=".33333" ry=".34848" height="23" width="22" y="944.12" x="-59.359"/>
     <rect id="rect11340" style="opacity:.8;color:#000000;fill:url(#linearGradient26799)" rx=".33333" ry=".33333" height="22" width="22" y="944.12" x="-59.359"/>
     <rect id="rect11386" style="color:#000000;fill:url(#linearGradient26801)" height="20" width="20" y="945.12" x="-58.359"/>
     <rect id="rect10785" style="color:#000000;fill:url(#linearGradient26803)" height="18" width="18" y="946.12" x="-57.359"/>
     <path id="path4840" d="m-58.359 952.18v12.938h7.938l-2.313-3.812-5.625-9.126z" style="opacity:.2;color:#000000;text-indent:0pt;text-transform:none;fill:#fff"/>
     <g id="g4746" transform="matrix(.3 0 0 .3 -76.559 922.72)">
      <rect id="rect11519" style="opacity:.35;color:#000000;fill:url(#linearGradient26805)" transform="scale(-1,1)" height="60" width="30" y="78.005" x="-124"/>
      <rect id="rect11529" style="opacity:.5;color:#000000;fill:url(#linearGradient26807)" height="60" width="30" y="78.005" x="64.001"/>
     </g>
     <rect id="rect11537" style="opacity:.25;color:#000000;fill:url(#linearGradient26809)" height="1" width="18" y="963.12" x="-57.359"/>
     <path id="path10787" d="m-60.423 951.83c-0.01785 0.0136-0.03418 0.0289-0.04865 0.0456-0.07986 0.0205-0.15071 0.0704-0.19406 0.1367l-6.356 10.302-6.308 10.348c-0.01776 0.0136-0.03401 0.0289-0.0484 0.0456-0.0048 0.0302-0.0048 0.061 0 0.0911-0.0048 0.0302-0.0048 0.061 0 0.0912 0.01065 0.0326 0.02707 0.0636 0.0484 0.0912 0.01446 0.0167 0.03079 0.032 0.04862 0.0456 0.01446 0.0167 0.03079 0.032 0.04862 0.0456 0.05765 0.0335 0.12646 0.0496 0.19409 0.0456h25.328c0.06761 0.004 0.13641-0.0122 0.19406-0.0456 0.01784-0.0136 0.03418-0.0289 0.04865-0.0456 0.01781-0.0136 0.03412-0.0289 0.04856-0.0456 0.02136-0.0276 0.03781-0.0585 0.04849-0.0912 0.0048-0.0302 0.0048-0.061 0-0.0912 0.0048-0.0302 0.0048-0.061 0-0.0911-0.01442-0.0167-0.0307-0.032-0.04849-0.0456l-6.307-10.348-6.356-10.302c-0.04337-0.0663-0.11424-0.11619-0.19412-0.1367-0.02938-0.0201-0.06232-0.0356-0.09705-0.0456-0.0161-0.001-0.0323-0.001-0.04839 0z" style="color:#000000;text-indent:0pt;text-transform:none;fill:url(#linearGradient26811)"/>
     <path id="path4565" d="m-48.79 972.15h-23.212l5.8029-9.5123 5.8027-9.5123 5.8027 9.5123z" style="color:#000000;fill:url(#linearGradient26813)"/>
     <path id="path10795" d="m-50.419 971.21h-19.915l4.9789-8.2458 4.9788-8.2458 4.9788 8.2458z" style="color:#000000;fill:url(#linearGradient26815)"/>
     <path id="path11700" d="m-63.66 971.18h-6.6386l1.6597-2.7486 1.6597-2.7486 1.6597 2.7486z" style="opacity:.35;color:#000000;fill:url(#linearGradient26817)"/>
     <path id="path11712" d="m-57.108 971.18h6.6386l-1.6597-2.7486-1.6597-2.7486-1.6597 2.7486z" style="opacity:.35;color:#000000;fill:url(#linearGradient26819)"/>
     <rect id="rect9545" style="opacity:.5;color:#000000;fill:url(#radialGradient26821)" transform="rotate(90)" height="13.641" width="7.7601" y="53.811" x="964.36"/>
     <path id="path11722" d="m-57.899 958.82h-4.9108l1.2277-2.0614 1.2277-2.0614 1.2277 2.0614z" style="opacity:.25;color:#000000;fill:url(#linearGradient26823)"/>
     <rect id="rect11812" style="opacity:.1;color:#000000;fill:url(#linearGradient26825)" height=".28434" width="19.643" y="970.9" x="-70.726"/>
     <rect id="rect9559" style="opacity:.5;color:#000000;fill:url(#radialGradient26827)" transform="matrix(0,-1,-1,0,0,0)" height="18" width="9" y="39.359" x="-955.12"/>
     <g id="g4767" transform="translate(-110.36 858.12)">
      <rect id="rect11551" style="opacity:.15;color:#000000" height="1" width="5.999" y="117.01" x="34.001"/>
      <rect id="use14626" style="opacity:.75;color:#000000;stroke:#18a303;fill:#9ef290" height="5" width="5" y="111.51" x="34.501"/>
      <rect id="use14628" style="opacity:.75;color:#000000;fill:url(#linearGradient26829)" height="2.0054" width="2.0054" y="113" x="36.001"/>
     </g>
     <g id="g4847" transform="translate(-86.359 858.12)">
      <rect id="rect4849" style="opacity:.15;color:#000000" height="1" width="5.999" y="117.01" x="34.001"/>
      <rect id="rect4851" style="opacity:.75;color:#000000;stroke:#18a303;fill:#9ef290" height="5" width="5" y="111.51" x="34.501"/>
      <rect id="use4853" style="opacity:.75;color:#000000;fill:url(#linearGradient26829)" height="2.0054" width="2.0054" y="113" x="36.001"/>
     </g>
     <g id="g4855" transform="translate(-97.359 838.12)">
      <rect id="rect4857" style="opacity:.15;color:#000000" height="1" width="5.999" y="117.01" x="34.001"/>
      <rect id="rect4859" style="opacity:.75;color:#000000;stroke:#18a303;fill:#9ef290" height="5" width="5" y="111.51" x="34.501"/>
      <rect id="use4861" style="opacity:.75;color:#000000;fill:url(#linearGradient26829)" height="2.0054" width="2.0054" y="113" x="36.001"/>
     </g>
    </g>
   </g>
  </g>
 </g>
</svg>
