<?xml version="1.0" encoding="UTF-8" standalone="no"?>
<!-- Created with Inkscape (http://www.inkscape.org/) -->

<svg
   xmlns:dc="http://purl.org/dc/elements/1.1/"
   xmlns:cc="http://creativecommons.org/ns#"
   xmlns:rdf="http://www.w3.org/1999/02/22-rdf-syntax-ns#"
   xmlns:svg="http://www.w3.org/2000/svg"
   xmlns="http://www.w3.org/2000/svg"
   xmlns:xlink="http://www.w3.org/1999/xlink"
   xmlns:sodipodi="http://sodipodi.sourceforge.net/DTD/sodipodi-0.dtd"
   xmlns:inkscape="http://www.inkscape.org/namespaces/inkscape"
   width="96"
   height="96"
   id="svg2"
   version="1.1"
   inkscape:version="0.48.1 r9760"
   sodipodi:docname="mail-notification.svg">
  <defs
     id="defs4">
    <filter
       color-interpolation-filters="sRGB"
       inkscape:collect="always"
       id="filter6279-2">
      <feGaussianBlur
         inkscape:collect="always"
         stdDeviation="0.8"
         id="feGaussianBlur6281-1" />
    </filter>
    <linearGradient
       inkscape:collect="always"
       xlink:href="#linearGradient3658"
       id="linearGradient6103"
       gradientUnits="userSpaceOnUse"
       gradientTransform="translate(0,-7.8515622e-6)"
       x1="48"
       y1="1052.3622"
       x2="48"
       y2="902.36218" />
    <linearGradient
       id="linearGradient3658">
      <stop
         id="stop3660"
         style="stop-color:#ff9604;stop-opacity:1"
         offset="0" />
      <stop
         id="stop3662"
         style="stop-color:#fff580;stop-opacity:1"
         offset="1" />
    </linearGradient>
    <linearGradient
       x1="48"
       y1="90"
       x2="48"
       y2="5.9877172"
       id="linearGradient3689-3"
       xlink:href="#linearGradient3700-86"
       gradientUnits="userSpaceOnUse" />
    <linearGradient
       id="linearGradient3700-86">
      <stop
         id="stop3702-048"
         style="stop-color:#dcdcdc;stop-opacity:1"
         offset="0" />
      <stop
         id="stop3704-88"
         style="stop-color:#f0f0f0;stop-opacity:1"
         offset="1" />
    </linearGradient>
    <linearGradient
       x1="48"
       y1="32"
       x2="48"
       y2="80"
       id="linearGradient3701-9"
       xlink:href="#linearGradient3641-7"
       gradientUnits="userSpaceOnUse"
       gradientTransform="translate(100,0)" />
    <linearGradient
       id="linearGradient3641-7">
      <stop
         id="stop3643-7"
         style="stop-color:#000000;stop-opacity:1"
         offset="0" />
      <stop
         id="stop3645-6"
         style="stop-color:#000000;stop-opacity:0"
         offset="1" />
    </linearGradient>
    <clipPath
       id="clipPath3696-4">
      <rect
         width="84"
         height="84"
         rx="6"
         ry="6"
         x="106"
         y="6"
         id="rect3698-3"
         style="fill:#ff00ff;fill-opacity:1;fill-rule:nonzero;stroke:none" />
    </clipPath>
    <filter
       color-interpolation-filters="sRGB"
       id="filter3665-0">
      <feGaussianBlur
         id="feGaussianBlur3667-3"
         stdDeviation="0.69" />
    </filter>
    <linearGradient
       x1="48"
       y1="88"
       x2="48"
       y2="36"
       id="linearGradient3635-0"
       xlink:href="#linearGradient3727-9"
       gradientUnits="userSpaceOnUse" />
    <linearGradient
       id="linearGradient3727-9">
      <stop
         id="stop3729-2"
         style="stop-color:#d5d5d5;stop-opacity:1"
         offset="0" />
      <stop
         id="stop3731-5"
         style="stop-color:#f1f1f1;stop-opacity:1"
         offset="1" />
    </linearGradient>
    <linearGradient
       x1="51"
       y1="62"
       x2="51"
       y2="21"
       id="linearGradient3707-4"
       xlink:href="#linearGradient3641-7"
       gradientUnits="userSpaceOnUse"
       gradientTransform="translate(100,-1)" />
    <linearGradient
       id="linearGradient6924">
      <stop
         id="stop6926"
         style="stop-color:#000000;stop-opacity:1"
         offset="0" />
      <stop
         id="stop6928"
         style="stop-color:#000000;stop-opacity:0"
         offset="1" />
    </linearGradient>
    <clipPath
       id="clipPath3703-4">
      <rect
         width="84"
         height="84"
         rx="6"
         ry="6"
         x="106"
         y="6"
         id="rect3705-6"
         style="fill:#ff00ff;fill-opacity:1;fill-rule:nonzero;stroke:none" />
    </clipPath>
    <filter
       color-interpolation-filters="sRGB"
       id="filter3649-9">
      <feGaussianBlur
         id="feGaussianBlur3651-2"
         stdDeviation="1.38" />
    </filter>
    <linearGradient
       x1="48"
       y1="88"
       x2="48"
       y2="32"
       id="linearGradient3627-2"
       xlink:href="#linearGradient3700-86"
       gradientUnits="userSpaceOnUse" />
    <linearGradient
       id="linearGradient6935">
      <stop
         id="stop6937"
         style="stop-color:#dcdcdc;stop-opacity:1"
         offset="0" />
      <stop
         id="stop6939"
         style="stop-color:#f0f0f0;stop-opacity:1"
         offset="1" />
    </linearGradient>
    <linearGradient
       inkscape:collect="always"
       xlink:href="#linearGradient3658"
       id="linearGradient3206-4"
       gradientUnits="userSpaceOnUse"
       x1="11.087322"
       y1="15.37313"
       x2="10.540542"
       y2="4.9937253"
       gradientTransform="matrix(3.3567126,0.17689259,-0.17682969,3.357356,35.813745,32.088564)" />
    <linearGradient
       id="linearGradient6942">
      <stop
         id="stop6944"
         style="stop-color:#ff9604;stop-opacity:1"
         offset="0" />
      <stop
         id="stop6946"
         style="stop-color:#fff580;stop-opacity:1"
         offset="1" />
    </linearGradient>
    <linearGradient
       inkscape:collect="always"
       xlink:href="#linearGradient3737-3-0"
       id="linearGradient3203"
       gradientUnits="userSpaceOnUse"
       gradientTransform="matrix(3.3567126,0.17689259,-0.17682969,3.357356,35.813745,32.088564)"
       x1="10.999399"
       y1="4.1597385"
       x2="11.500113"
       y2="13.664667" />
    <linearGradient
       id="linearGradient3737-3-0">
      <stop
         id="stop3739-5-3"
         style="stop-color:#ffffff;stop-opacity:1"
         offset="0" />
      <stop
         id="stop3741-7-9"
         style="stop-color:#ffffff;stop-opacity:0"
         offset="1" />
    </linearGradient>
  </defs>
  <sodipodi:namedview
     id="base"
     pagecolor="#ffffff"
     bordercolor="#666666"
     borderopacity="1.0"
     inkscape:pageopacity="0.0"
     inkscape:pageshadow="2"
     inkscape:zoom="3.959798"
     inkscape:cx="28.389459"
     inkscape:cy="57.490015"
     inkscape:document-units="px"
     inkscape:current-layer="layer1"
     showgrid="false"
     inkscape:window-width="1280"
     inkscape:window-height="725"
     inkscape:window-x="0"
     inkscape:window-y="25"
     inkscape:window-maximized="1" />
  <metadata
     id="metadata7">
    <rdf:RDF>
      <cc:Work
         rdf:about="">
        <dc:format>image/svg+xml</dc:format>
        <dc:type
           rdf:resource="http://purl.org/dc/dcmitype/StillImage" />
        <dc:title></dc:title>
      </cc:Work>
    </rdf:RDF>
  </metadata>
  <g
     inkscape:label="Layer 1"
     inkscape:groupmode="layer"
     id="layer1"
     transform="translate(0,-956.36217)">
    <g
       transform="translate(2.861023e-8,-9.737015e-6)"
       id="g6874">
      <rect
         transform="translate(0,-7.8515622e-6)"
         y="964.36218"
         x="8"
         height="80"
         width="80"
         id="rect9283"
         style="fill:#000000;fill-opacity:1;stroke:none;filter:url(#filter6279-2)"
         rx="5"
         ry="5" />
      <rect
         ry="5"
         rx="5"
         style="opacity:0.9;fill:url(#linearGradient6103);fill-opacity:1;stroke:none"
         id="rect9285"
         width="80"
         height="80"
         x="8"
         y="964.36218" />
      <g
         transform="translate(-182.1875,-40.40625)"
         id="g26594">
        <g
           id="layer1-5"
           transform="matrix(0.6547619,0,0,0.6547619,198.75893,1013.3399)">
          <rect
             style="fill:url(#linearGradient3689-3);fill-opacity:1;fill-rule:nonzero;stroke:none"
             id="rect2419"
             y="6"
             x="6"
             ry="6"
             rx="6"
             height="84"
             width="84" />
          <path
             style="opacity:0.3;fill:url(#linearGradient3701-9);fill-opacity:1;stroke:none;filter:url(#filter3665-0)"
             id="path3653"
             clip-path="url(#clipPath3696-4)"
             transform="translate(-100,-1)"
             inkscape:connector-curvature="0"
             d="m 112,89 c -3.324,0 -6,-2.676 -6,-6 l 0,-6 42,-42 42,42 0,6 c 0,3.324 -2.676,6 -6,6 l -72,0 z" />
          <path
             style="fill:url(#linearGradient3635-0);fill-opacity:1;stroke:none"
             id="path3619"
             inkscape:connector-curvature="0"
             d="M 12,90 C 8.676,90 6,87.324 6,84 l 0,-6 42,-42 42,42 0,6 c 0,3.324 -2.676,6 -6,6 l -72,0 z" />
          <path
             style="opacity:0.4;fill:#ffffff;fill-opacity:1;stroke:none"
             id="path3718"
             inkscape:connector-curvature="0"
             d="M 48,36 6,78 6,79 48,37 90,79 90,78 48,36 z" />
          <path
             style="opacity:0.4;fill:url(#linearGradient3707-4);fill-opacity:1;stroke:none;filter:url(#filter3649-9)"
             id="path3637"
             clip-path="url(#clipPath3703-4)"
             transform="translate(-100,1)"
             inkscape:connector-curvature="0"
             d="m 112,7 c -3.324,0 -6,2.676 -6,6 l 0,6 42,42 42,-42 0,-6 c 0,-3.324 -2.676,-6 -6,-6 l -72,0 z" />
          <path
             style="fill:url(#linearGradient3627-2);fill-opacity:1;stroke:none"
             id="path3613"
             inkscape:connector-curvature="0"
             d="M 12,6 C 8.676,6 6,8.676 6,12 l 0,6 42,42 42,-42 0,-6 C 90,8.676 87.324,6 84,6 L 12,6 z" />
          <path
             style="opacity:0.6;fill:#ffffff;fill-opacity:1;stroke:none"
             id="path3709"
             inkscape:connector-curvature="0"
             d="M 6,17 6,18 48,60 90,18 90,17 48,59 6,17 z" />
        </g>
        <g
           id="g3212"
           transform="translate(169.6875,987.26843)">
          <path
             inkscape:connector-curvature="0"
             style="fill:url(#linearGradient3206-4);fill-opacity:1;stroke:none;display:inline"
             id="path3748"
             d="m 52.000001,63.827525 12.215775,-2.110529 5.787766,-10.964718 5.781829,10.967953 12.214631,2.117357 -8.64241,8.889098 L 81.118882,85 69.995751,79.525814 58.869657,84.993783 60.637593,72.721451 z" />
          <path
             style="opacity:0.8;fill:url(#linearGradient3203);fill-opacity:1;stroke:none;display:inline"
             id="path4018"
             inkscape:connector-curvature="0"
             d="M 70,50.75 64.21875,61.71875 52,63.8125 60.625,72.71875 58.875,85 70,79.53125 81.125,85 79.34375,72.71875 88,63.84375 75.78125,61.71875 z m -0.03125,3.0625 3.8125,7.21875 c 0.43138,0.63521 0.56567,1.551159 1.25,1.96875 3.31127,0.639535 6.64628,1.153303 9.96875,1.75 l -5.65625,5.71875 c -0.49872,0.63221 -1.37917,1.034227 -1.53125,1.875 0.45108,3.330655 0.98622,6.671959 1.46875,10 l -7.3125,-3.5625 c -0.70394,-0.255998 -1.356084,-0.8582 -2.125,-0.84375 -3.073895,1.409915 -6.099876,2.949709 -9.15625,4.40625 L 61.875,74.125 c 0.01799,-0.738251 0.420716,-1.516123 0.09375,-2.21875 C 59.691351,69.493457 57.36149,67.144319 55.0625,64.75 l 8,-1.4375 c 0.728425,-0.216777 1.615547,-0.118073 2.21875,-0.625 1.601728,-2.931533 3.119286,-5.922489 4.6875,-8.875 z" />
          <path
             style="opacity:0.3;fill:#aa4400;fill-opacity:1;stroke:none;display:inline"
             id="path4094"
             inkscape:connector-curvature="0"
             d="M 70,78.53125 59.03125,83.9375 58.875,85 70,79.53125 81.125,85 80.96875,83.9375 z" />
        </g>
      </g>
    </g>
  </g>
</svg>
