<?xml version="1.0" encoding="UTF-8" standalone="no"?>
<!-- Created with Inkscape (http://www.inkscape.org/) -->

<svg
   xmlns:dc="http://purl.org/dc/elements/1.1/"
   xmlns:cc="http://creativecommons.org/ns#"
   xmlns:rdf="http://www.w3.org/1999/02/22-rdf-syntax-ns#"
   xmlns:svg="http://www.w3.org/2000/svg"
   xmlns="http://www.w3.org/2000/svg"
   xmlns:xlink="http://www.w3.org/1999/xlink"
   xmlns:sodipodi="http://sodipodi.sourceforge.net/DTD/sodipodi-0.dtd"
   xmlns:inkscape="http://www.inkscape.org/namespaces/inkscape"
   width="96"
   height="96"
   id="svg2"
   version="1.1"
   inkscape:version="0.48.1 r9760"
   sodipodi:docname="midori.svg">
  <defs
     id="defs4">
    <filter
       color-interpolation-filters="sRGB"
       inkscape:collect="always"
       id="filter6221">
      <feGaussianBlur
         inkscape:collect="always"
         stdDeviation="1.2"
         id="feGaussianBlur6223" />
    </filter>
    <linearGradient
       inkscape:collect="always"
       xlink:href="#linearGradient4418"
       id="linearGradient5376"
       gradientUnits="userSpaceOnUse"
       gradientTransform="matrix(0.95238095,0,0,0.95238095,2.2857041,958.6479)"
       x1="48"
       y1="90"
       x2="47.998997"
       y2="-59.097267" />
    <linearGradient
       id="linearGradient4418">
      <stop
         id="stop4420-0"
         style="stop-color:#3b8132;stop-opacity:1"
         offset="0" />
      <stop
         id="stop4422-6"
         style="stop-color:#55c845;stop-opacity:1"
         offset="1" />
    </linearGradient>
    <radialGradient
       inkscape:collect="always"
       xlink:href="#linearGradient3424-3"
       id="radialGradient20253"
       gradientUnits="userSpaceOnUse"
       gradientTransform="matrix(1,0,0,0.9665987,-20.88181,958.50821)"
       cx="48"
       cy="46.582424"
       fx="48"
       fy="46.582424"
       r="42" />
    <linearGradient
       id="linearGradient3424-3">
      <stop
         id="stop3426-8"
         style="stop-color:#ffffff;stop-opacity:1"
         offset="0" />
      <stop
         id="stop3432-4"
         style="stop-color:#ffffff;stop-opacity:1"
         offset="0.67213112" />
      <stop
         id="stop3428-1"
         style="stop-color:#ffffff;stop-opacity:0"
         offset="1" />
    </linearGradient>
    <filter
       color-interpolation-filters="sRGB"
       id="filter3434-8">
      <feGaussianBlur
         id="feGaussianBlur3436-7"
         stdDeviation="2.4779144" />
    </filter>
    <radialGradient
       inkscape:collect="always"
       xlink:href="#linearGradient4314"
       id="radialGradient6185"
       gradientUnits="userSpaceOnUse"
       gradientTransform="matrix(1.090012,0,0,0.8408658,-42.620807,951.44405)"
       cx="63.98003"
       cy="61.948856"
       fx="63.98003"
       fy="61.948856"
       r="58.01997" />
    <linearGradient
       id="linearGradient4314">
      <stop
         id="stop4316"
         style="stop-color:#88f07b;stop-opacity:1"
         offset="0" />
      <stop
         id="stop4318"
         style="stop-color:#b5f2bc;stop-opacity:0.1221374"
         offset="1" />
    </linearGradient>
    <linearGradient
       inkscape:collect="always"
       xlink:href="#linearGradient3737-6-2"
       id="linearGradient6183"
       gradientUnits="userSpaceOnUse"
       x1="48"
       y1="20.220806"
       x2="48"
       y2="138.66119" />
    <linearGradient
       id="linearGradient3737-6-2">
      <stop
         id="stop3739-73-17"
         style="stop-color:#ffffff;stop-opacity:1"
         offset="0" />
      <stop
         id="stop3741-6-8"
         style="stop-color:#ffffff;stop-opacity:0"
         offset="1" />
    </linearGradient>
    <clipPath
       id="clipPath3613-5">
      <rect
         width="84"
         height="84"
         rx="6"
         ry="6"
         x="6"
         y="6"
         id="rect3615-7"
         style="fill:#ffffff;fill-opacity:1;fill-rule:nonzero;stroke:none" />
    </clipPath>
    <filter
       x="-0.192"
       y="-0.192"
       width="1.3839999"
       height="1.3839999"
       color-interpolation-filters="sRGB"
       id="filter3794-41">
      <feGaussianBlur
         id="feGaussianBlur3796-8"
         stdDeviation="5.28" />
    </filter>
    <linearGradient
       x1="59"
       y1="40"
       x2="69"
       y2="40"
       id="linearGradient4578"
       xlink:href="#linearGradient5932-3-2-4"
       gradientUnits="userSpaceOnUse" />
    <linearGradient
       id="linearGradient5932-3-2-4">
      <stop
         id="stop5934-3-2-9"
         style="stop-color:#ff7c53;stop-opacity:1"
         offset="0" />
      <stop
         id="stop5940-1-4-5"
         style="stop-color:#f21919;stop-opacity:1"
         offset="0.5" />
      <stop
         id="stop5942-5-4-7"
         style="stop-color:#db1414;stop-opacity:1"
         offset="0.5" />
      <stop
         id="stop5936-2-5-0"
         style="stop-color:#9b1818;stop-opacity:1"
         offset="1" />
    </linearGradient>
    <linearGradient
       x1="59"
       y1="88"
       x2="69"
       y2="88"
       id="linearGradient4580"
       xlink:href="#linearGradient5944-6-9-3"
       gradientUnits="userSpaceOnUse" />
    <linearGradient
       id="linearGradient5944-6-9-3">
      <stop
         id="stop5946-9-5-0"
         style="stop-color:#f0f0f0;stop-opacity:1"
         offset="0" />
      <stop
         id="stop5952-4-9-7"
         style="stop-color:#e6e6e6;stop-opacity:1"
         offset="0.5" />
      <stop
         id="stop5954-4-7-2"
         style="stop-color:#d2d2d2;stop-opacity:1"
         offset="0.5" />
      <stop
         id="stop5948-6-2-1"
         style="stop-color:#bebebe;stop-opacity:1"
         offset="1" />
    </linearGradient>
    <radialGradient
       r="1.7404202"
       fy="63.279507"
       fx="63.335083"
       cy="63.279507"
       cx="63.335083"
       gradientTransform="matrix(0.644005,-1.4508695e-6,1.4508659e-6,0.6440034,22.699101,22.755712)"
       gradientUnits="userSpaceOnUse"
       id="radialGradient3198"
       xlink:href="#linearGradient5960-0-4-4"
       inkscape:collect="always" />
    <linearGradient
       id="linearGradient5960-0-4-4">
      <stop
         id="stop5962-7-7-5"
         style="stop-color:#c1c1c1;stop-opacity:1"
         offset="0" />
      <stop
         id="stop5964-4-1-8"
         style="stop-color:#3f3f3f;stop-opacity:1"
         offset="1" />
    </linearGradient>
  </defs>
  <sodipodi:namedview
     id="base"
     pagecolor="#ffffff"
     bordercolor="#666666"
     borderopacity="1.0"
     inkscape:pageopacity="0.0"
     inkscape:pageshadow="2"
     inkscape:zoom="3.959798"
     inkscape:cx="28.389459"
     inkscape:cy="57.490015"
     inkscape:document-units="px"
     inkscape:current-layer="layer1"
     showgrid="false"
     inkscape:window-width="1280"
     inkscape:window-height="725"
     inkscape:window-x="0"
     inkscape:window-y="25"
     inkscape:window-maximized="1" />
  <metadata
     id="metadata7">
    <rdf:RDF>
      <cc:Work
         rdf:about="">
        <dc:format>image/svg+xml</dc:format>
        <dc:type
           rdf:resource="http://purl.org/dc/dcmitype/StillImage" />
        <dc:title></dc:title>
      </cc:Work>
    </rdf:RDF>
  </metadata>
  <g
     inkscape:label="Layer 1"
     inkscape:groupmode="layer"
     id="layer1"
     transform="translate(0,-956.36217)">
    <g
       transform="translate(-1.0754402e-8,-1.0135559e-5)"
       id="g6187">
      <rect
         transform="translate(-1.7480468e-7,-5.2343748e-6)"
         y="964.54077"
         x="8"
         height="80"
         width="80"
         id="rect10662"
         style="fill:#000000;fill-opacity:1;stroke:none;filter:url(#filter6221)"
         rx="5"
         ry="5" />
      <rect
         width="80"
         height="80"
         rx="5"
         ry="5"
         x="8"
         y="964.36218"
         id="rect2419"
         style="fill:url(#linearGradient5376);fill-opacity:1;fill-rule:nonzero;stroke:none" />
      <g
         style="display:inline"
         id="layer5"
         transform="translate(126.5,968.36218)" />
      <g
         transform="matrix(0.64583255,0,0,0.64583255,30.474718,355.50208)"
         id="g20248">
        <path
           style="fill:url(#radialGradient20253);fill-opacity:1;stroke:none;display:inline;filter:url(#filter3434-8)"
           id="path3414"
           inkscape:connector-curvature="0"
           d="m 15.39208,963.034 c 1.65011,2.21669 0.11258,5.91834 2.60147,5.88159 1.2119,1.71402 -2.41546,0.5113 0.20359,1.83234 1.50611,1.18658 -1.59338,1.86454 0.27179,2.92938 -2.14969,1.10966 0.34845,5.80399 1.94512,6.97885 2.62796,2.21316 1.16221,-4.68572 4.0945,-5.0446 1.59336,-1.8197 4.39184,-2.98781 6.37927,-4.81838 -1.9423,-0.15774 -3.07646,-1.36714 -1.23703,-2.11631 3.38546,3.4704 0.84891,-1.64352 -1.02513,-2.45324 1.81337,-0.57704 3.57698,-0.15448 3.32537,-1.65137 1.91632,-1.40251 -1.84226,-1.85534 -3.18394,-1.53826 -4.45834,0 -8.91668,0 -13.37501,0 z m -27.80185,1.44778 c -2.44976,0.69819 -2.62065,6.55488 -0.15836,3.30274 0.60435,-1.33537 3.39708,-2.94467 0.15836,-3.30274 z m 11.44649,0.20359 c -1.41226,2.21534 0.20491,3.9915 1.37991,1.28943 0.83171,-1.12834 -0.61793,-1.24809 -1.37991,-1.28943 z m 3.52895,0.49768 c -2.72875,1.26521 -0.6726,4.21556 -0.60506,4.87173 2.87456,0.99483 4.47323,-0.65043 5.5607,2.16149 2.73516,1.57694 -0.0538,4.31706 -1.08055,5.03068 1.84934,-1.61119 5.40416,4.38048 4.47225,1.21492 -1.11178,-0.81208 2.98516,1.30456 0.85962,-1.33467 -1.95606,-3.15266 0.15527,-1.41141 0.97995,-0.67561 2.80489,-2.51609 -3.17359,-2.82021 -1.68121,-5.40958 -1.30776,-1.05958 -3.02289,-4.26949 -5.33868,-3.64206 -1.55024,2.00557 -0.21416,-4.36996 -2.48861,-1.17956 -0.11789,1.78341 -0.0429,4.04645 -0.70571,0.95682 -0.44407,-0.54087 0.764,-1.7983 0.0273,-1.99416 z m -5.56489,0.0226 c -1.8316,0.61085 -1.73323,3.0865 0.51896,3.35191 0.77143,-0.87964 0.30649,-3.18534 -0.51896,-3.35191 z m -7.1484,0.79175 c -2.37908,0.56388 -1.40799,2.48286 -0.67958,3.02332 -2.94491,0.73792 4.4957,0.94313 0.79269,1.41049 -3.08079,1.23084 2.96666,2.68095 3.95876,1.22157 3.80439,0.93073 0.13691,-3.04655 -0.19704,-5.20254 -1.61275,-1.73148 -0.0637,3.99154 -1.52187,0.18441 -0.50878,1.13054 -2.12652,0.1666 -2.35296,-0.63725 z m 75.60112,0.24884 c -3.19244,1.24986 1.98418,5.96643 0.69765,1.67549 -0.12817,-0.51812 0.28819,-1.8871 -0.69765,-1.67549 z m -66.66562,1.9002 c -2.29408,2.15671 2.91599,3.9402 -0.6589,5.54691 -0.53601,-2.00294 -1.45827,1.0021 -3.50346,-0.61542 -3.5159,1.46447 -5.31387,-0.76283 -8.25754,-2.28957 -1.76802,-0.22016 -1.10378,1.68053 -1.22088,3.46019 0,4.91831 0,9.83662 0,14.75492 1.73349,1.82448 0.67633,0.80498 0,0.30176 0.95147,3.24164 -0.41957,7.98023 3.33085,9.86587 0.63757,1.183 3.31288,6.2231 3.43622,4.715 -1.34121,-1.4051 -2.71735,-5.61739 -0.44789,-1.863 2.03275,3.5688 4.77475,5.8835 8.78047,6.7328 2.19006,0.7452 3.99117,3.307 5.91712,2.7433 1.08905,2.872 -3.22742,5.6299 0.14491,8.3086 1.76052,2.7118 4.71619,4.4904 3.11596,8.2976 -1.11907,3.7183 -0.63992,7.7697 -1.60778,11.2341 -0.3004,2.1087 2.93803,7.461 2.65747,3.1751 0.94556,-2.9784 0.92064,-6.2556 3.14757,-8.3648 3.04712,0.024 0.58238,-3.2778 3.60701,-2.8464 1.84565,-2.4201 2.38024,-5.3072 5.49491,-6.2681 0.37205,-2.9376 5.17883,-7.4366 0.21314,-8.5804 -1.34961,-0.6654 -4.8245,-0.9047 -4.55895,-1.233 0.53804,-2.9149 -4.49346,-3.7447 -6.63422,-4.9373 -2.81076,-1.9959 -7.03424,3.3156 -8.02452,-1.261 -0.59088,-1.44 -2.75133,-1.4633 -1.75843,-3.6853 -1.78939,1.7804 -5.28934,1.2393 -4.37303,-2.1989 1.39157,-2.8956 6.73564,-3.0326 7.64626,0.4503 -1.26435,-3.8412 2.44394,-6.83146 4.50253,-9.56425 0.41916,-1.3062 2.90974,-2.42843 2.05267,-0.69242 1.46016,-0.0527 3.6733,-2.68864 1.07941,-1.47201 -0.0367,-2.4039 -2.27297,-1.72028 -2.99799,-1.37894 1.34377,-2.13357 8.24499,-0.96712 5.3551,-4.45459 -2.23931,-0.90767 -2.05303,-6.20444 -4.318,-3.25359 0.19059,-1.81815 -4.61002,-5.37715 -4.50526,-2.32832 0.58599,2.72813 0.10713,5.87087 -1.13992,7.65911 -0.26025,-3.99762 -7.07568,-3.11408 -6.19943,-7.37399 1.26944,-2.03029 2.75285,-4.83791 2.89418,-4.58534 2.27505,-0.86894 4.10459,-3.39651 1.46783,-5.05812 -0.14092,1.4482 -1.98303,4.43614 -1.72366,0.82232 -1.70579,2.02318 -1.3162,-3.2194 -2.91375,-3.76312 z m 54.45,1.40253 c -3.99594,0.97784 -5.58006,4.79584 -7.55681,7.95817 -2.91386,1.31424 -2.80294,6.95832 0.45241,5.15567 0.87128,1.52228 -0.60951,3.92168 1.92831,1.93122 2.047,-2.7099 0.35794,-7.09276 3.84142,-8.80152 0.25373,1.32865 -3.21333,6.28987 0.83699,5.47441 3.66156,0.13821 -2.66185,0.36497 -0.881,2.70473 -1.85026,-1.09821 -0.88882,2.99933 -3.30397,2.04579 -2.09234,1.13853 -3.46434,-0.52863 -2.98504,-2.35496 -1.64595,0.96057 0.5177,3.67044 -2.33958,3.8333 -0.64004,2.27366 -5.90338,1.93097 -2.91021,4.24616 1.3289,3.44536 -4.95153,0.21599 -3.16853,4.35053 1.52545,4.08843 4.7224,-1.35472 6.01943,-2.40634 2.50248,-1.94188 6.21067,3.31109 3.95877,3.50633 2.52508,-0.33891 2.00619,-2.74125 -0.017,-3.6713 -1.09268,-2.83493 3.45903,1.39032 3.2066,2.81168 1.60594,3.00836 0.94461,-3.08008 2.57885,-0.38456 -0.19081,2.84338 6.57418,0.66855 3.34439,4.29242 -2.77687,0.5595 -5.51013,-0.7161 -7.90083,0.1009 -2.22511,-0.02 -2.11347,-2.39795 -2.92358,-2.99352 -2.83037,0.23004 -6.32794,0.20402 -8.22277,2.49142 -2.04902,2.8123 -5.00383,6.7438 -2.77053,10.3348 2.23488,5.3215 7.77719,0.2761 10.96298,3.4188 0.94693,1.3104 -0.8206,2.8681 1.29671,4.2874 0.7967,3.0236 -0.90449,5.8944 1.05226,8.7847 1.01184,2.7182 1.63978,6.7866 5.40576,4.3028 3.98577,-2.3995 2.92416,-6.8227 6.21294,-9.2727 -2.60227,-5.038 3.18363,-7.2471 4.62722,-11.3371 -3.15394,0.4619 -5.96377,-2.6837 -6.72579,-5.85 -1.32493,-1.5378 -0.98367,-3.8055 0.49633,-0.9164 2.03426,1.9719 2.07822,7.8231 5.84127,4.813 1.72035,-0.7198 6.41861,-3.4657 2.67511,-4.7153 -2.41304,1.7484 -5.07525,-5.22429 -1.53182,-1.18 2.57604,1.0933 4.37998,1.7447 4.37998,-1.8801 0,-9.76618 0,-19.66463 0,-29.49692 -0.8024,0.82028 -2.8638,2.33524 -3.90428,1.32857 -1.79037,0.24941 -4.15389,3.73429 -3.59125,0.36554 -1.55624,-0.10309 -0.27859,3.02053 -2.41664,3.10789 -0.21529,1.60589 -2.15987,0.29738 -1.42943,1.82237 -1.50065,-1.06488 -2.77067,-4.42704 0.18614,-2.31673 4.39102,-1.31784 -2.8956,-4.2904 -3.45804,-5.00891 0.94545,-0.22661 -1.02861,-1.21224 -1.26681,-0.88224 z m -36.23967,0.88224 c -1.46151,1.21821 2.77852,1.44762 0,0 z m -19.52238,0.65603 c -1.63465,1.7105 2.60328,1.57245 0,0 z m 9.47842,1.69661 c -1.23787,2.02858 1.82903,0.74894 0,0 z m 27.10058,2.39788 c -1.44923,1.66908 -3.36205,-0.43926 -3.39323,0.99535 0.26265,0.43347 1.31468,3.52729 3.61944,1.24418 1.23699,-0.52171 0.74997,-1.83688 -0.22621,-2.23953 z m -30.85575,0.99535 c -2.74881,2.40148 4.6683,2.62274 0.58232,0.27542 l -0.58232,-0.27542 z m 36.26229,6.65072 c -1.97908,1.29104 0.94944,4.03281 -0.0431,5.32072 -1.2401,2.16147 4.60833,-0.15225 1.48462,-1.87676 -0.22257,-1.48161 -1.83002,-3.28935 -1.44154,-3.44396 z m -1.33466,2.60147 c -2.7574,0.77986 -0.62597,4.80624 0.35065,1.014 0.055,-0.21986 0.12936,-1.02135 -0.35065,-1.014 z m -22.07861,2.91818 c -2.56522,1.74983 -0.39843,3.49644 1.48156,2.70912 -0.38596,-1.05576 -1.46417,-1.72096 -1.48156,-2.70912 z m 48.4553,2.9408 c 1.27995,0.6462 -2.34554,1.75008 -0.0498,2.88736 1.33598,1.57167 0.83231,4.94549 -1.3392,2.55764 0.40344,-2.66599 -2.94356,-4.65698 1.38903,-5.445 z m -6.58287,0.0226 c -0.17366,1.71279 3.69395,4.37514 -0.47504,3.50633 -2.20475,0.25873 -5.50697,-0.0674 -2.72943,-2.81568 0.87765,-0.52708 3.18206,1.8185 1.98291,-0.37395 0.42514,-0.0271 0.82108,-0.18767 1.22156,-0.3167 z m -12.73591,3.70992 c -1.60812,1.03642 1.11198,1.83112 0,0 z M 4.8052,1004.6802 c -0.2711,0.9048 5.08599,1.8218 1.3893,0.3721 l -0.55106,-0.194 -0.83824,-0.1781 z m 4.16236,1.2895 c -1.62491,1.6502 3.34781,0.493 0,0 z m 54.3369,15.1338 c -3.53072,0.091 -3.06133,9.2016 -0.60013,3.8108 0.2334,-1.1698 1.1689,-2.7138 0.60013,-3.8108 z" />
        <path
           style="fill:url(#radialGradient6185);fill-opacity:1;stroke:none;display:inline"
           id="path3522"
           inkscape:connector-curvature="0"
           d="m 15.39208,963.034 c 1.65011,2.21669 0.11258,5.91834 2.60147,5.88159 1.2119,1.71402 -2.41546,0.5113 0.20359,1.83234 1.50611,1.18658 -1.59338,1.86454 0.27179,2.92938 -2.14969,1.10966 0.34845,5.80399 1.94512,6.97885 2.62796,2.21316 1.16221,-4.68572 4.0945,-5.0446 1.59336,-1.8197 4.39184,-2.98781 6.37927,-4.81838 -1.9423,-0.15774 -3.07646,-1.36714 -1.23703,-2.11631 3.38546,3.4704 0.84891,-1.64352 -1.02513,-2.45324 1.81337,-0.57704 3.57698,-0.15448 3.32537,-1.65137 1.91632,-1.40251 -1.84226,-1.85534 -3.18394,-1.53826 -4.45834,0 -8.91668,0 -13.37501,0 z m -27.80185,1.44778 c -2.44977,0.69819 -2.62065,6.55488 -0.15836,3.30274 0.60435,-1.33537 3.39708,-2.94467 0.15836,-3.30274 z m 11.44649,0.20359 c -1.41226,2.21534 0.20491,3.9915 1.37991,1.28943 0.83171,-1.12834 -0.61793,-1.24809 -1.37991,-1.28943 z m 3.52895,0.49768 c -2.72875,1.26521 -0.6726,4.21556 -0.60506,4.87173 2.87456,0.99483 4.47323,-0.65043 5.5607,2.16149 2.73516,1.57694 -0.0538,4.31706 -1.08055,5.03068 1.84934,-1.61119 5.40416,4.38048 4.47225,1.21492 -1.11178,-0.81208 2.98516,1.30456 0.85962,-1.33467 -1.95606,-3.15266 0.15527,-1.41141 0.97995,-0.67561 2.80489,-2.51609 -3.17359,-2.82021 -1.68121,-5.40958 -1.30776,-1.05958 -3.02289,-4.26949 -5.33868,-3.64206 -1.55024,2.00557 -0.21416,-4.36996 -2.48861,-1.17956 -0.11789,1.78341 -0.0429,4.04645 -0.70571,0.95682 -0.44407,-0.54087 0.764,-1.7983 0.0273,-1.99416 z m -5.56489,0.0226 c -1.8316,0.61085 -1.73323,3.0865 0.51896,3.35191 0.77143,-0.87964 0.30649,-3.18534 -0.51896,-3.35191 z m -7.1484,0.79175 c -2.37908,0.56388 -1.40799,2.48286 -0.67958,3.02332 -2.94491,0.73792 4.4957,0.94313 0.79269,1.41049 -3.0808,1.23084 2.96666,2.68095 3.95876,1.22157 3.80439,0.93073 0.13691,-3.04655 -0.19704,-5.20254 -1.61275,-1.73148 -0.0637,3.99154 -1.52187,0.18441 -0.50878,1.13054 -2.12652,0.1666 -2.35296,-0.63725 z m 75.60112,0.24884 c -3.19244,1.24986 1.98418,5.96643 0.69765,1.67549 -0.12817,-0.51812 0.28819,-1.8871 -0.69765,-1.67549 z m -66.66562,1.9002 c -2.29408,2.15671 2.91599,3.9402 -0.6589,5.54691 -0.53601,-2.00294 -1.45827,1.0021 -3.50346,-0.61542 -3.5159,1.46447 -5.31387,-0.76283 -8.25754,-2.28957 -1.76803,-0.22016 -1.10378,1.68053 -1.22088,3.46019 0,4.91831 0,9.83662 0,14.75492 1.73349,1.82448 0.67633,0.80498 0,0.30176 0.95147,3.24164 -0.41957,7.98023 3.33085,9.86587 0.63757,1.183 3.31288,6.2231 3.43622,4.715 -1.34121,-1.4051 -2.71735,-5.61739 -0.44789,-1.863 2.03275,3.5688 4.77475,5.8835 8.78047,6.7328 2.19006,0.7452 3.99117,3.307 5.91712,2.7433 1.08905,2.872 -3.22742,5.6299 0.14491,8.3086 1.76052,2.7118 4.71619,4.4904 3.11596,8.2976 -1.11907,3.7183 -0.63992,7.7697 -1.60778,11.2341 -0.3004,2.1087 2.93803,7.461 2.65747,3.1751 0.94556,-2.9784 0.92064,-6.2556 3.14757,-8.3648 3.04712,0.024 0.58238,-3.2778 3.60701,-2.8464 1.84565,-2.4201 2.38024,-5.3072 5.49491,-6.2681 0.37205,-2.9376 5.17883,-7.4366 0.21314,-8.5804 -1.34961,-0.6654 -4.8245,-0.9047 -4.55895,-1.233 0.53804,-2.9149 -4.49346,-3.7447 -6.63422,-4.9373 -2.81076,-1.9959 -7.03424,3.3156 -8.02452,-1.261 -0.59088,-1.44 -2.75133,-1.4633 -1.75843,-3.6853 -1.78939,1.7804 -5.28934,1.2393 -4.37303,-2.1989 1.39157,-2.8956 6.73564,-3.0326 7.64626,0.4503 -1.26435,-3.8412 2.44394,-6.83146 4.50253,-9.56425 0.41916,-1.3062 2.90974,-2.42843 2.05267,-0.69242 1.46016,-0.0527 3.6733,-2.68864 1.07941,-1.47201 -0.0367,-2.4039 -2.27297,-1.72028 -2.99799,-1.37894 1.34377,-2.13357 8.24499,-0.96712 5.3551,-4.45459 -2.23931,-0.90767 -2.05303,-6.20444 -4.318,-3.25359 0.19059,-1.81815 -4.61002,-5.37715 -4.50526,-2.32832 0.58599,2.72813 0.10713,5.87087 -1.13992,7.65911 -0.26025,-3.99762 -7.07568,-3.11408 -6.19943,-7.37399 1.26944,-2.03029 2.75285,-4.83791 2.89418,-4.58534 2.27505,-0.86894 4.10459,-3.39651 1.46783,-5.05812 -0.14092,1.4482 -1.98303,4.43614 -1.72366,0.82232 -1.70579,2.02318 -1.3162,-3.2194 -2.91375,-3.76312 z m 54.45,1.40253 c -3.99594,0.97784 -5.58006,4.79584 -7.55681,7.95817 -2.91386,1.31424 -2.80294,6.95832 0.45241,5.15567 0.87128,1.52228 -0.60951,3.92168 1.92831,1.93122 2.047,-2.7099 0.35794,-7.09276 3.84142,-8.80152 0.25373,1.32865 -3.21333,6.28987 0.83699,5.47441 3.66156,0.13821 -2.66185,0.36497 -0.881,2.70473 -1.85026,-1.09821 -0.88882,2.99933 -3.30397,2.04579 -2.09234,1.13853 -3.46434,-0.52863 -2.98504,-2.35496 -1.64595,0.96057 0.5177,3.67044 -2.33958,3.8333 -0.64004,2.27366 -5.90338,1.93097 -2.91021,4.24616 1.3289,3.44536 -4.95153,0.21599 -3.16853,4.35053 1.52545,4.08843 4.7224,-1.35472 6.01943,-2.40634 2.50248,-1.94188 6.21067,3.31109 3.95877,3.50633 2.52508,-0.33891 2.00619,-2.74125 -0.017,-3.6713 -1.09268,-2.83493 3.45903,1.39032 3.2066,2.81168 1.60594,3.00836 0.94461,-3.08008 2.57885,-0.38456 -0.19081,2.84338 6.57418,0.66855 3.34439,4.29242 -2.77687,0.5595 -5.51013,-0.7161 -7.90083,0.1009 -2.22511,-0.02 -2.11347,-2.39795 -2.92358,-2.99352 -2.83037,0.23004 -6.32794,0.20402 -8.22277,2.49142 -2.04902,2.8123 -5.00383,6.7438 -2.77053,10.3348 2.23488,5.3215 7.77719,0.2761 10.96298,3.4188 0.94693,1.3104 -0.8206,2.8681 1.29671,4.2874 0.7967,3.0236 -0.90449,5.8944 1.05226,8.7847 1.01184,2.7182 1.63978,6.7866 5.40576,4.3028 3.98577,-2.3995 2.92416,-6.8227 6.21294,-9.2727 -2.60227,-5.038 3.18363,-7.2471 4.62722,-11.3371 -3.15394,0.4619 -5.96377,-2.6837 -6.72579,-5.85 -1.32493,-1.5378 -0.98367,-3.8055 0.49633,-0.9164 2.03426,1.9719 2.07822,7.8231 5.84127,4.813 1.72035,-0.7198 6.41861,-3.4657 2.67511,-4.7153 -2.41304,1.7484 -5.07525,-5.22429 -1.53182,-1.18 2.57604,1.0933 4.37998,1.7447 4.37998,-1.8801 0,-9.76618 0,-19.66463 0,-29.49692 -0.8024,0.82028 -2.8638,2.33524 -3.90428,1.32857 -1.79037,0.24941 -4.15389,3.73429 -3.59125,0.36554 -1.55624,-0.10309 -0.27859,3.02053 -2.41664,3.10789 -0.21529,1.60589 -2.15987,0.29738 -1.42943,1.82237 -1.50065,-1.06488 -2.77067,-4.42704 0.18614,-2.31673 4.39102,-1.31784 -2.8956,-4.2904 -3.45804,-5.00891 0.94545,-0.22661 -1.02861,-1.21224 -1.26681,-0.88224 z m -36.23967,0.88224 c -1.46151,1.21821 2.77852,1.44762 0,0 z m -19.52238,0.65603 c -1.63465,1.7105 2.60328,1.57245 0,0 z m 9.47842,1.69661 c -1.23787,2.02858 1.82903,0.74894 0,0 z m 27.10058,2.39788 c -1.44923,1.66908 -3.36205,-0.43926 -3.39323,0.99535 0.26265,0.43347 1.31468,3.52729 3.61944,1.24418 1.23699,-0.52171 0.74997,-1.83688 -0.22621,-2.23953 z m -30.85575,0.99535 c -2.74881,2.40148 4.6683,2.62274 0.58232,0.27542 l -0.58232,-0.27542 z m 36.26229,6.65072 c -1.97908,1.29104 0.94944,4.03281 -0.0431,5.32072 -1.2401,2.16147 4.60833,-0.15225 1.48462,-1.87676 -0.22257,-1.48161 -1.83002,-3.28935 -1.44154,-3.44396 z m -1.33466,2.60147 c -2.7574,0.77986 -0.62597,4.80624 0.35065,1.014 0.055,-0.21986 0.12936,-1.02135 -0.35065,-1.014 z m -22.07861,2.91818 c -2.56522,1.74983 -0.39843,3.49644 1.48156,2.70912 -0.38596,-1.05576 -1.46417,-1.72096 -1.48156,-2.70912 z m 48.4553,2.9408 c 1.27995,0.6462 -2.34554,1.75008 -0.0498,2.88736 1.33598,1.57167 0.83231,4.94549 -1.3392,2.55764 0.40344,-2.66599 -2.94356,-4.65698 1.38903,-5.445 z m -6.58287,0.0226 c -0.17366,1.71279 3.69395,4.37514 -0.47504,3.50633 -2.20475,0.25873 -5.50697,-0.0674 -2.72943,-2.81568 0.87765,-0.52708 3.18206,1.8185 1.98291,-0.37395 0.42514,-0.0271 0.82108,-0.18767 1.22156,-0.3167 z m -12.73591,3.70992 c -1.60812,1.03642 1.11198,1.83112 0,0 z M 4.8052,1004.6802 c -0.2711,0.9048 5.08599,1.8218 1.3893,0.3721 l -0.55106,-0.194 -0.83824,-0.1781 z m 4.16236,1.2895 c -1.62491,1.6502 3.34781,0.493 0,0 z m 54.3369,15.1338 c -3.53072,0.091 -3.06133,9.2016 -0.60013,3.8108 0.2334,-1.1698 1.1689,-2.7138 0.60013,-3.8108 z" />
      </g>
      <path
         d="m 48.02,978.34318 -3.199218,11.73047 c -5.502212,1.23031 -9.812294,5.56894 -11.044923,11.07035 l -11.755859,3.1992 11.755859,3.1992 c 1.23036,5.4912 5.531745,9.8055 11.019531,11.0449 l 3.22461,11.7559 3.199219,-11.7559 c 5.499284,-1.2322 9.812754,-5.5455 11.044922,-11.0449 L 74.02,1004.3432 62.264141,1001.144 c -1.232168,-5.49933 -5.545638,-9.8128 -11.044922,-11.04496 L 48.02,978.34318 z m 0,16.24996 c 5.382002,0 9.75,4.368 9.75,9.75006 10e-7,5.382 -4.368,9.75 -9.75,9.75 -5.381999,0 -9.75,-4.368 -9.75,-9.75 0,-5.38206 4.368,-9.75006 9.75,-9.75006 z"
         inkscape:connector-curvature="0"
         id="path3439"
         style="fill:#ffffff;fill-opacity:1;fill-rule:nonzero;stroke:none" />
      <g
         transform="translate(3.392,956.36218)"
         id="layer4">
        <rect
           style="opacity:0.15;fill:url(#linearGradient6183);fill-opacity:1;fill-rule:nonzero;stroke:#ffffff;stroke-width:0.5;stroke-linecap:round;stroke-linejoin:miter;stroke-miterlimit:4;stroke-opacity:1;stroke-dasharray:none;stroke-dashoffset:0;filter:url(#filter3794-41)"
           id="rect3171"
           clip-path="url(#clipPath3613-5)"
           y="15"
           x="15"
           ry="12"
           rx="12"
           height="66"
           width="66" />
      </g>
      <g
         transform="matrix(0.6083802,0.6083802,-0.6083802,0.6083802,48.01784,945.94071)"
         id="g4572">
        <g
           transform="matrix(0.98983765,0,0,0.77048859,-15.350324,-1.2826605)"
           id="g5928-7-4">
          <path
             d="m 69,64 -10,0 5,-48 5,48 z"
             inkscape:connector-curvature="0"
             id="path5923-0-5"
             style="fill:url(#linearGradient4578);fill-opacity:1;fill-rule:evenodd;stroke:none" />
          <path
             d="m 69,63.999997 -10,0 L 64,112 69,63.999997 z"
             inkscape:connector-curvature="0"
             id="path5926-8-6"
             style="fill:url(#linearGradient4580);fill-opacity:1;fill-rule:evenodd;stroke:none" />
        </g>
        <path
           d="m 65.503089,63.920891 a 1.7404205,1.7404205 0 1 1 -3.480841,0 1.7404205,1.7404205 0 1 1 3.480841,0 z"
           transform="matrix(0.88540527,0,0,0.88540527,-8.4565171,-8.5672842)"
           id="path5958-8-4"
           style="fill:url(#radialGradient3198);fill-opacity:1;fill-rule:evenodd;stroke:none"
           inkscape:connector-curvature="0" />
      </g>
    </g>
  </g>
</svg>
