<?xml version="1.0" encoding="UTF-8" standalone="no"?>
<!-- Created with Inkscape (http://www.inkscape.org/) -->
<svg id="svg2" xmlns:rdf="http://www.w3.org/1999/02/22-rdf-syntax-ns#" xmlns="http://www.w3.org/2000/svg" height="96" width="96" version="1.1" xmlns:cc="http://creativecommons.org/ns#" xmlns:xlink="http://www.w3.org/1999/xlink" xmlns:dc="http://purl.org/dc/elements/1.1/">
 <defs id="defs4">
  <filter id="filter6279" color-interpolation-filters="sRGB">
   <feGaussianBlur id="feGaussianBlur6281" stdDeviation="0.8"/>
  </filter>
  <linearGradient id="linearGradient21189" y2="902.36" gradientUnits="userSpaceOnUse" x2="48" gradientTransform="translate(0 -.0000096172)" y1="1052.4" x1="48">
   <stop id="stop3702-31" style="stop-color:#ee6f11" offset="0"/>
   <stop id="stop3704-24" style="stop-color:#ffc971" offset="1"/>
  </linearGradient>
 </defs>
 <metadata id="metadata7">
  <rdf:RDF>
   <cc:Work rdf:about="">
    <dc:format>image/svg+xml</dc:format>
    <dc:type rdf:resource="http://purl.org/dc/dcmitype/StillImage"/>
    <dc:title/>
   </cc:Work>
  </rdf:RDF>
 </metadata>
 <g id="layer1" transform="translate(0 -956.36)">
  <g id="g21192" transform="translate(2.861e-8 -.0000095886)">
   <rect id="rect9283" style="filter:url(#filter6279)" rx="5" ry="5" height="80" width="80" y="964.36" x="8"/>
   <rect id="rect9285" style="fill:url(#linearGradient21189)" rx="5" ry="5" height="80" width="80" y="964.36" x="8"/>
   <path id="rect3789-1-5" style="fill:#fff" d="m19.562 971.86c-2.2506 0-4.0625 1.8119-4.0625 4.0625v56.875c0 2.2506 1.8119 4.0625 4.0625 4.0625h56.875c2.2506 0 4.0625-1.8119 4.0625-4.0625v-56.875c0-2.2506-1.8119-4.0625-4.0625-4.0625h-56.875zm4.375 5h48.125c1.9044 0 3.4375 1.5331 3.4375 3.4375v48.125c0 1.9044-1.5331 3.4375-3.4375 3.4375h-48.125c-1.9044 0-3.4375-1.5331-3.4375-3.4375v-48.125c0-1.9044 1.5331-3.4375 3.4375-3.4375z"/>
   <path id="path3223" d="m47.456 1011.9v3.7778h3.7778v-3.7778h-3.7778zm7.5556 0v3.7778h11.333v-3.7778h-11.334zm-7.5556 7.5556v3.7777h3.7778v-3.7777h-3.7778zm7.5556 0v3.7777h11.333v-3.7777h-11.334zm-15.112-15.2v26.444h34v-26.444h-34zm3.7778 3.7777h26.444v18.889h-26.444v-18.889z" style="fill:#ffa45e"/>
   <g id="g6906" style="fill:#fff" transform="matrix(.70778 0 0 .70778 -45.906 271.47)">
    <path id="path3597" d="m95.275 1039.7c-0.7912-0.792 11.799-20.136 36.016-13.238 10.708-15.575 30.922-12.112 31.733-10.708 0.901 1.56-20.052 0.779-29.786 19.079-19.175-9.227-37.06 5.769-37.963 4.867z" style="fill:#fff;fill-rule:evenodd"/>
    <path id="path3599" d="m103.67 1013.2c-0.591-0.688 8.476-14.106 27.63-7.018 9.059-10.112 22.855-5.85 23.423-4.667 0.63 1.313-13.543-1.616-21.792 10.558-14.928-8.644-28.589 1.911-29.261 1.127z" style="fill:#fff;fill-rule:evenodd"/>
    <path id="path3617" d="m146.21 999.61c-4.6524 0.0505-10.377 1.5375-14.906 6.5938-19.154-7.0882-28.215 6.3125-27.625 7 0.047 0.055 0.17425 0.045 0.34375 0 1.8732-3.1304 10.872-12.072 27.281-6 7.8368-8.7485 19.205-6.7484 22.5-5.2812 0.665-0.074 1.046-0.18 0.937-0.407-0.284-0.591-3.879-1.957-8.531-1.906z" style="fill:#fff;fill-rule:evenodd"/>
    <path id="path3622" d="m155.46 1014.4c-7.0613 0.012-17.464 2.2972-24.156 12.031-24.218-6.8978-36.823 12.459-36.031 13.25 0.18908 0.1891 1.276-0.4119 2.8125-1.25 4.2573-5.4263 15.907-15.216 34.219-10 8.229-11.969 22.039-12.693 28.375-11.75 1.6164-0.3547 2.5453-0.5884 2.3438-0.9375-0.3041-0.5267-3.3257-1.3507-7.5625-1.3438z" style="fill:#fff;fill-rule:evenodd"/>
    <path id="path3627" d="m162.24 1015.3c-3.8214 1.1401-20.587 2.6834-29 18.5-18.124-8.7209-35.088 4.1945-37.656 4.875-0.28471 0.5482-0.4071 0.9054-0.3125 1 0.901 0.902 18.793-14.101 37.968-4.875 9.734-18.3 30.682-17.502 29.781-19.062-0.077-0.133-0.38-0.286-0.781-0.438z" style="opacity:.5;fill:#fff;fill-rule:evenodd"/>
    <path id="path3633" d="m153.8 1000.9c-3.1943 0.352-14.049 0.082-20.875 10.156-13.887-8.0411-26.647 0.5202-28.906 1.125-0.31338 0.5237-0.42836 0.9015-0.34375 1 0.67292 0.7837 14.322-9.7694 29.25-1.125 8.249-12.174 22.443-9.249 21.813-10.562-0.077-0.159-0.424-0.365-0.938-0.594z" style="opacity:.3;fill:#fff;fill-rule:evenodd"/>
   </g>
  </g>
 </g>
</svg>
