<?xml version="1.0" encoding="UTF-8" standalone="no"?>
<!-- Created with Inkscape (http://www.inkscape.org/) -->

<svg
   xmlns:dc="http://purl.org/dc/elements/1.1/"
   xmlns:cc="http://creativecommons.org/ns#"
   xmlns:rdf="http://www.w3.org/1999/02/22-rdf-syntax-ns#"
   xmlns:svg="http://www.w3.org/2000/svg"
   xmlns="http://www.w3.org/2000/svg"
   xmlns:xlink="http://www.w3.org/1999/xlink"
   xmlns:sodipodi="http://sodipodi.sourceforge.net/DTD/sodipodi-0.dtd"
   xmlns:inkscape="http://www.inkscape.org/namespaces/inkscape"
   width="96"
   height="96"
   id="svg2"
   version="1.1"
   inkscape:version="0.48.1 r9760"
   sodipodi:docname="ooo-draw.svg">
  <defs
     id="defs4">
    <filter
       color-interpolation-filters="sRGB"
       inkscape:collect="always"
       id="filter6279">
      <feGaussianBlur
         inkscape:collect="always"
         stdDeviation="0.8"
         id="feGaussianBlur6281" />
    </filter>
    <linearGradient
       inkscape:collect="always"
       xlink:href="#linearGradient3706-18"
       id="linearGradient21150"
       gradientUnits="userSpaceOnUse"
       gradientTransform="translate(0,-9.6171873e-6)"
       x1="48"
       y1="1052.3622"
       x2="48"
       y2="902.36218" />
    <linearGradient
       id="linearGradient3706-18"
       y2="5.9877"
       gradientUnits="userSpaceOnUse"
       x2="48"
       gradientTransform="translate(12,0)"
       y1="90"
       x1="48">
      <stop
         id="stop3702-2"
         style="stop-color:#f8a607"
         offset="0" />
      <stop
         id="stop3704-876"
         style="stop-color:#ffdf5e"
         offset="1" />
    </linearGradient>
  </defs>
  <sodipodi:namedview
     id="base"
     pagecolor="#ffffff"
     bordercolor="#666666"
     borderopacity="1.0"
     inkscape:pageopacity="0.0"
     inkscape:pageshadow="2"
     inkscape:zoom="3.959798"
     inkscape:cx="28.389459"
     inkscape:cy="57.490015"
     inkscape:document-units="px"
     inkscape:current-layer="layer1"
     showgrid="false"
     inkscape:window-width="1280"
     inkscape:window-height="725"
     inkscape:window-x="0"
     inkscape:window-y="25"
     inkscape:window-maximized="1" />
  <metadata
     id="metadata7">
    <rdf:RDF>
      <cc:Work
         rdf:about="">
        <dc:format>image/svg+xml</dc:format>
        <dc:type
           rdf:resource="http://purl.org/dc/dcmitype/StillImage" />
        <dc:title></dc:title>
      </cc:Work>
    </rdf:RDF>
  </metadata>
  <g
     inkscape:label="Layer 1"
     inkscape:groupmode="layer"
     id="layer1"
     transform="translate(0,-956.36217)">
    <g
       transform="translate(2.861023e-8,-9.5885773e-6)"
       id="g21167">
      <rect
         y="964.36218"
         x="8"
         height="80"
         width="80"
         id="rect9283"
         style="fill:#000000;fill-opacity:1;stroke:none;filter:url(#filter6279)"
         rx="5"
         ry="5" />
      <rect
         ry="5"
         rx="5"
         style="fill:url(#linearGradient21150);fill-opacity:1;stroke:none"
         id="rect9285"
         width="80"
         height="80"
         x="8"
         y="964.36218" />
      <path
         id="rect3789-1-5"
         d="m 19.5625,971.86218 c -2.25063,0 -4.0625,1.81187 -4.0625,4.0625 l 0,56.87502 c 0,2.2506 1.81187,4.0625 4.0625,4.0625 l 56.875,0 c 2.25063,0 4.0625,-1.8119 4.0625,-4.0625 l 0,-56.87502 c 0,-2.25063 -1.81187,-4.0625 -4.0625,-4.0625 l -56.875,0 z m 4.375,5 48.125,0 c 1.90438,0 3.4375,1.53312 3.4375,3.4375 l 0,48.12502 c 0,1.9044 -1.53312,3.4375 -3.4375,3.4375 l -48.125,0 c -1.90437,0 -3.4375,-1.5331 -3.4375,-3.4375 l 0,-48.12502 c 0,-1.90438 1.53313,-3.4375 3.4375,-3.4375 z"
         style="fill:#ffffff;fill-opacity:1;stroke:none"
         inkscape:connector-curvature="0" />
      <path
         d="m 21.528425,1007.3343 c -0.559999,-0.5605 8.351139,-14.25191 25.49154,-9.36961 7.57895,-11.02374 21.886092,-8.57268 22.460105,-7.57895 0.637713,1.10414 -14.192482,0.55136 -21.08205,13.50376 -13.571755,-6.53068 -26.230467,4.0833 -26.869595,3.4448 z"
         style="fill:#ffffff;fill-rule:evenodd"
         id="path3597"
         inkscape:connector-curvature="0" />
      <path
         d="m 27.470976,988.60354 c -0.418301,-0.48696 5.999175,-9.984 19.556067,-4.96723 6.411814,-7.15711 16.1764,-4.14053 16.578421,-3.30323 0.445904,0.92932 -9.585517,-1.14377 -15.424026,7.47279 -10.565797,-6.11809 -20.234832,1.35257 -20.710462,0.79767 z"
         style="fill:#ffffff;fill-rule:evenodd"
         id="path3599"
         inkscape:connector-curvature="0" />
      <path
         d="m 57.577269,978.97626 c -3.292894,0.0358 -7.344673,1.08822 -10.550226,4.66699 -13.556892,-5.01692 -19.970121,4.46788 -19.552529,4.95448 0.03327,0.0389 0.123332,0.0319 0.243301,0 1.325821,-2.21564 7.695026,-8.54436 19.309051,-4.2467 5.546761,-6.19205 13.592989,-4.77641 15.925137,-3.73795 0.470676,-0.0524 0.740341,-0.1274 0.663193,-0.28806 -0.201011,-0.4183 -2.745494,-1.38514 -6.038104,-1.34904 z"
         style="fill:#ffffff;fill-rule:evenodd"
         id="path3617"
         inkscape:connector-curvature="0" />
      <path
         d="m 64.124269,989.43802 c -4.997874,0.008 -12.360736,1.62592 -17.097226,8.51534 -17.141109,-4.88215 -26.062722,8.81824 -25.502157,9.37814 0.133827,0.1338 0.903132,-0.2915 1.990642,-0.8847 3.013246,-3.8407 11.258715,-10.76967 24.219653,-7.07787 5.824353,-8.47146 15.598848,-8.9839 20.083366,-8.31646 1.144062,-0.25105 1.801522,-0.41646 1.658904,-0.66355 -0.215237,-0.37279 -2.353877,-0.956 -5.352615,-0.95112 z"
         style="fill:#ffffff;fill-rule:evenodd"
         id="path3622"
         inkscape:connector-curvature="0" />
      <path
         d="m 68.923752,990.07927 c -2.704725,0.80694 -14.571146,1.89927 -20.525732,13.09403 -12.827874,-6.17254 -24.834717,2.9688 -26.652306,3.4504 -0.201513,0.388 -0.288139,0.6408 -0.221182,0.7078 0.637713,0.6384 13.301379,-9.98046 26.873134,-3.4504 6.889568,-12.95249 21.716224,-12.38768 21.078511,-13.49182 -0.0545,-0.0941 -0.268958,-0.20243 -0.552779,-0.31001 z"
         style="opacity:0.5;fill:#ffffff;fill-rule:evenodd"
         id="path3627"
         inkscape:connector-curvature="0" />
      <path
         d="m 62.951472,979.90488 c -2.260874,0.24914 -9.943655,0.058 -14.774988,7.18825 -9.828994,-5.69136 -18.860316,0.36819 -20.4592,0.79625 -0.221805,0.37067 -0.303186,0.63807 -0.2433,0.70779 0.476282,0.55469 10.13688,-6.91462 20.702677,-0.79626 5.838509,-8.61656 15.884793,-6.54629 15.438889,-7.47561 -0.0545,-0.11254 -0.3001,-0.25834 -0.663901,-0.42042 z"
         style="opacity:0.3;fill:#ffffff;fill-rule:evenodd"
         id="path3633"
         inkscape:connector-curvature="0" />
      <path
         d="m 50.504576,1004.4229 c -2.416624,-0.088 -4.907214,0.3833 -7.028908,1.4928 -0.714731,0.3359 -1.192563,1.0462 -1.244874,1.8505 -0.05229,0.8044 0.329345,1.5735 0.994287,2.0037 0.664923,0.4302 1.506241,0.4524 2.191911,0.058 1.672549,-0.8746 4.55313,-1.2324 6.677449,-0.8235 1.062159,0.2043 1.916762,0.6021 2.359719,0.9609 0.442985,0.3586 0.508064,0.5002 0.502065,0.8922 -0.0022,0.1404 0.01413,0.1089 -0.133881,0.2745 -0.148009,0.1655 -0.522427,0.4455 -1.087847,0.7207 -1.130782,0.5501 -2.937485,1.0528 -4.769593,1.6472 -1.832201,0.5944 -3.730401,1.2312 -5.254924,2.711 -0.762261,0.7399 -1.408463,1.7624 -1.623332,2.9684 -0.214916,1.2061 -0.02148,2.4835 0.485331,3.7406 2.280784,5.6573 8.110755,7.846 13.706826,7.7385 5.595697,-0.1077 11.354701,-2.2085 15.062416,-5.8683 0.854959,-0.8434 0.881189,-2.2376 0.05857,-3.1143 -0.822606,-0.8766 -2.182536,-0.9035 -3.037513,-0.06 -2.629056,2.5952 -7.634799,4.5628 -12.166555,4.65 -4.531943,0.087 -8.199065,-1.4126 -9.655995,-5.0274 -0.281168,-0.6975 -0.269712,-1.071 -0.234294,-1.2697 0.03541,-0.1987 0.09286,-0.3153 0.35145,-0.5662 0.517186,-0.5021 1.913106,-1.1693 3.598124,-1.7159 1.685018,-0.5467 3.602155,-1.0336 5.321953,-1.8703 0.859853,-0.4184 1.701049,-0.9229 2.409968,-1.7158 0.7089,-0.793 1.23653,-1.9553 1.255186,-3.1743 0.02752,-1.8001 -0.906848,-3.423 -2.125444,-4.4097 -1.21853,-0.9867 -2.68896,-1.5214 -4.234107,-1.8188 -0.772555,-0.1487 -1.570928,-0.2453 -2.376406,-0.2746 z"
         style="fill:#facd66;fill-rule:evenodd"
         id="path3179"
         inkscape:connector-curvature="0" />
    </g>
  </g>
</svg>
