<?xml version="1.0" encoding="UTF-8" standalone="no"?>
<!-- Created with Inkscape (http://www.inkscape.org/) -->

<svg
   xmlns:dc="http://purl.org/dc/elements/1.1/"
   xmlns:cc="http://creativecommons.org/ns#"
   xmlns:rdf="http://www.w3.org/1999/02/22-rdf-syntax-ns#"
   xmlns:svg="http://www.w3.org/2000/svg"
   xmlns="http://www.w3.org/2000/svg"
   xmlns:xlink="http://www.w3.org/1999/xlink"
   xmlns:sodipodi="http://sodipodi.sourceforge.net/DTD/sodipodi-0.dtd"
   xmlns:inkscape="http://www.inkscape.org/namespaces/inkscape"
   width="96"
   height="96"
   id="svg2982"
   version="1.1"
   inkscape:version="0.48.1 r9760"
   sodipodi:docname="picasa.svg">
  <defs
     id="defs2984">
    <filter
       color-interpolation-filters="sRGB"
       inkscape:collect="always"
       id="filter6279">
      <feGaussianBlur
         inkscape:collect="always"
         stdDeviation="0.8"
         id="feGaussianBlur6281" />
    </filter>
    <linearGradient
       inkscape:collect="always"
       xlink:href="#linearGradient3617-8"
       id="linearGradient10902-1"
       gradientUnits="userSpaceOnUse"
       gradientTransform="translate(0,-9.6171873e-6)"
       x1="48"
       y1="1052.3622"
       x2="48"
       y2="902.36218" />
    <linearGradient
       id="linearGradient3617-8"
       y2="5.9877"
       gradientUnits="userSpaceOnUse"
       x2="48"
       y1="90"
       x1="48"
       gradientTransform="translate(11.249999,5.9999997)">
      <stop
         id="stop3702-83"
         style="stop-color:#e1e1e1"
         offset="0" />
      <stop
         id="stop3704-1"
         style="stop-color:#f5f5f5"
         offset="1" />
    </linearGradient>
    <linearGradient
       y2="138.66"
       x2="48"
       y1="20.221001"
       x1="48"
       gradientUnits="userSpaceOnUse"
       id="linearGradient3229"
       xlink:href="#linearGradient3737-99"
       inkscape:collect="always" />
    <linearGradient
       id="linearGradient3737-99">
      <stop
         id="stop3739-16"
         style="stop-color:#fff"
         offset="0" />
      <stop
         id="stop3741-21"
         style="stop-color:#fff;stop-opacity:0"
         offset="1" />
    </linearGradient>
    <clipPath
       id="clipPath3613-05">
      <rect
         id="rect3615-32"
         style="fill:#ffffff"
         rx="6"
         ry="6"
         height="84"
         width="84"
         y="6"
         x="6" />
    </clipPath>
    <filter
       id="filter3794-197"
       height="1.3839999"
       width="1.3839999"
       color-interpolation-filters="sRGB"
       y="-0.192"
       x="-0.192">
      <feGaussianBlur
         id="feGaussianBlur3796-682"
         stdDeviation="5.28" />
    </filter>
    <radialGradient
       r="30.801001"
       cy="47.717999"
       cx="47.728001"
       gradientUnits="userSpaceOnUse"
       id="radialGradient3205"
       xlink:href="#radialGradient3785"
       inkscape:collect="always" />
    <radialGradient
       id="radialGradient3785"
       gradientUnits="userSpaceOnUse"
       cy="47.717999"
       cx="47.728001"
       r="30.801001">
      <stop
         id="stop3767-7"
         style="stop-color:#fff"
         offset="0" />
      <stop
         id="stop3769-9"
         style="stop-color:#fff;stop-opacity:0"
         offset="1" />
    </radialGradient>
    <radialGradient
       r="30.801001"
       cy="47.717999"
       cx="47.728001"
       gradientUnits="userSpaceOnUse"
       id="radialGradient3207"
       xlink:href="#radialGradient3785"
       inkscape:collect="always" />
    <radialGradient
       id="radialGradient6069"
       gradientUnits="userSpaceOnUse"
       cy="47.717999"
       cx="47.728001"
       r="30.801001">
      <stop
         id="stop6071"
         style="stop-color:#fff"
         offset="0" />
      <stop
         id="stop6073"
         style="stop-color:#fff;stop-opacity:0"
         offset="1" />
    </radialGradient>
    <radialGradient
       id="radialGradient3803"
       gradientUnits="userSpaceOnUse"
       cy="47.717999"
       cx="47.728001"
       r="30.801001">
      <stop
         id="stop3799-3"
         style="stop-color:#ffd80e"
         offset="0" />
      <stop
         id="stop3801-6"
         style="stop-color:#ffee0e;stop-opacity:0"
         offset="1" />
    </radialGradient>
    <radialGradient
       id="radialGradient3819"
       gradientUnits="userSpaceOnUse"
       cy="47.717999"
       cx="47.728001"
       r="30.801001">
      <stop
         id="stop3815"
         style="stop-color:#12d8ff"
         offset="0" />
      <stop
         id="stop3817-2"
         style="stop-color:#12d8ff;stop-opacity:0"
         offset="1" />
    </radialGradient>
    <radialGradient
       id="radialGradient3811-1"
       gradientUnits="userSpaceOnUse"
       cy="47.717999"
       cx="47.728001"
       r="30.801001">
      <stop
         id="stop3807-2"
         style="stop-color:#7aff06"
         offset="0" />
      <stop
         id="stop3809-5"
         style="stop-color:#6eff06;stop-opacity:0"
         offset="1" />
    </radialGradient>
  </defs>
  <sodipodi:namedview
     id="base"
     pagecolor="#ffffff"
     bordercolor="#666666"
     borderopacity="1.0"
     inkscape:pageopacity="0.0"
     inkscape:pageshadow="2"
     inkscape:zoom="3.959798"
     inkscape:cx="36.39115"
     inkscape:cy="42.877139"
     inkscape:document-units="px"
     inkscape:current-layer="layer1"
     showgrid="false"
     inkscape:window-width="1280"
     inkscape:window-height="725"
     inkscape:window-x="0"
     inkscape:window-y="25"
     inkscape:window-maximized="1" />
  <metadata
     id="metadata2987">
    <rdf:RDF>
      <cc:Work
         rdf:about="">
        <dc:format>image/svg+xml</dc:format>
        <dc:type
           rdf:resource="http://purl.org/dc/dcmitype/StillImage" />
        <dc:title></dc:title>
      </cc:Work>
    </rdf:RDF>
  </metadata>
  <g
     inkscape:label="Layer 1"
     inkscape:groupmode="layer"
     id="layer1"
     transform="translate(0,-956.36218)">
    <g
       transform="translate(-182.1875,-40.40625)"
       id="g6019">
      <rect
         y="964.36218"
         x="8"
         height="80"
         width="80"
         id="rect9283"
         style="fill:#000000;fill-opacity:1;stroke:none;filter:url(#filter6279)"
         rx="5"
         ry="5"
         transform="translate(182.1875,40.40625)" />
      <rect
         ry="5"
         rx="5"
         style="fill:url(#linearGradient10902-1);fill-opacity:1;stroke:none"
         id="rect9285"
         width="80"
         height="80"
         x="8"
         y="964.36218"
         transform="translate(182.1875,40.40625)" />
      <g
         id="g6838">
        <g
           transform="translate(182.1875,996.76843)"
           id="layer5">
          <rect
             id="rect3171"
             style="opacity:0.1;fill:url(#linearGradient3229);stroke:#ffffff;stroke-width:0.5;stroke-linecap:round;filter:url(#filter3794-197)"
             clip-path="url(#clipPath3613-05)"
             rx="12"
             ry="12"
             height="66"
             width="66"
             y="15"
             x="15" />
        </g>
        <g
           transform="matrix(0.76387191,0,0,0.76387191,193.52226,1007.8393)"
           id="g3148">
          <path
             inkscape:connector-curvature="0"
             d="m 48,12 c -5.0055,0 -9.7626,1.029 -14.094,2.875 L 61,39.281 V 14.438 C 56.965,12.873 52.588,12 48,12 z"
             style="color:#000000;fill:#f93538"
             id="path3731" />
          <path
             inkscape:connector-curvature="0"
             d="M 65,16.25 V 58 H 82.594 C 83.509,54.827 84,51.467 84,48 84,34.266 76.309,22.32 65,16.25 z"
             style="color:#000000;fill:#fe7d08"
             id="path3729" />
          <path
             inkscape:connector-curvature="0"
             d="M 30.031,16.812 C 19.26,23.034 12,34.667 12,48 c 0,3.7735 0.57952,7.4259 1.6562,10.844 L 45.3752,30.625 30.0312,16.812 z"
             style="color:#000000;fill:#9864ae"
             id="path3727" />
          <path
             inkscape:connector-curvature="0"
             d="M 31,48.781 15.219,62.812 C 18.49,70.036 24.046,76.017 31,79.75 V 48.781 z"
             style="color:#000000;fill:#1d58a6"
             id="path3723" />
          <path
             inkscape:connector-curvature="0"
             d="M 35,62 V 81.562 C 39.035,83.127 43.412,84 48,84 62.912,84 75.691,74.921 81.156,62 H 35 z"
             style="color:#000000;fill:#35a328"
             id="path3697" />
          <path
             inkscape:connector-curvature="0"
             d="m 47.719,16.906 c -3.4189,0 -6.7084,0.56549 -9.7812,1.5938 l 23.062,20.781 v -19.343 c -4.017,-1.921 -8.532,-3.032 -13.281,-3.032 z"
             style="opacity:0.8;color:#000000;fill:url(#radialGradient3205)"
             id="path3795" />
          <path
             inkscape:connector-curvature="0"
             d="m 33.844,20.219 c -10.039,5.0758 -16.906,15.482 -16.906,27.5 0,2.5564 0.31924,5.0312 0.90625,7.4062 l 27.531,-24.5 -11.531,-10.406 z"
             style="opacity:0.8;color:#000000;fill:url(#radialGradient3207)"
             id="path3793" />
          <path
             inkscape:connector-curvature="0"
             d="M 65,22.219 V 58 h 11.75 c 1.1394,-3.2168 1.7812,-6.674 1.7812,-10.281 0,-10.607 -5.3704,-19.96 -13.531,-25.5 z"
             style="opacity:0.8;color:#000000;fill:url(#radialGradient3803)"
             id="path3791" />
          <path
             inkscape:connector-curvature="0"
             d="m 31,48.781 -11.812,10.5 C 21.577,65.176 25.727,70.144 31,73.562 V 48.781 z"
             style="opacity:0.8;color:#000000;fill:url(#radialGradient3819)"
             id="path3789" />
          <path
             inkscape:connector-curvature="0"
             d="m 35,62 v 13.75 c 3.8823,1.7658 8.1757,2.7812 12.719,2.7812 11.857,0 22.165,-6.7103 27.312,-16.531 H 35 z"
             style="opacity:0.7;color:#000000;fill:url(#radialGradient3811-1)"
             id="path3763" />
          <path
             inkscape:connector-curvature="0"
             d="m 48,12 c -5.0055,0 -9.7626,1.029 -14.094,2.875 L 61,39.281 V 14.438 C 56.965,12.873 52.588,12 48,12 z m 0,2.0312 c 3.8521,0 7.5181,0.72243 10.969,1.9062 v 18.812 l -21.094,-19 c 3.217,-1.014 6.567,-1.718 10.125,-1.718 z m 17,2.219 v 41.75 h 17.594 c 0.915,-3.173 1.406,-6.533 1.406,-10 0,-13.734 -7.691,-25.68 -19,-31.75 z m -34.969,0.562 C 19.26,23.0342 12,34.6672 12,48.0002 c 0,3.7735 0.57952,7.4259 1.6562,10.844 l 31.719,-28.219 -15.344,-13.813 z m -0.1875,2.5312 12.5,11.281 -27.469,24.438 c -0.484,-2.286 -0.844,-4.631 -0.844,-7.062 0,-12.086 6.324,-22.631 15.812,-28.656 z m 37.188,0.5625 c 8.9971,6.1099 14.938,16.382 14.938,28.094 0,2.7553 -0.38222,5.4057 -1,7.9688 h -13.938 v -36.062 z m -36.032,28.875 -15.781,14.031 c 3.271,7.224 8.827,13.205 15.781,16.938 v -30.969 z m -2.0312,4.5 v 22.75 c -4.729,-3.232 -8.582,-7.628 -11.188,-12.781 l 11.188,-9.9688 z m 6.031,8.719 v 19.562 c 4.035,1.565 8.412,2.438 13,2.438 14.912,0 27.691,-9.079 33.156,-22 h -46.156 z m 2.0312,2.0312 h 40.812 c -5.73,10.649 -16.884,17.938 -29.843,17.938 -3.8521,0 -7.5181,-0.72243 -10.969,-1.9062 v -16.031 z"
             style="opacity:0.05;color:#000000"
             id="path3846" />
          <path
             inkscape:connector-curvature="0"
             d="m 34.688,15.562 c -0.25864,0.10325 -0.52554,0.20351 -0.78125,0.3125 l 27.093,24.407 v -1 l -26.312,-23.719 z M 44.812,31.125 13.656,58.844 C 12.639,55.616 12.061,52.176 12,48.625 c -0.0013,0.12609 0,0.2486 0,0.375 0,3.7735 0.57952,7.4259 1.6562,10.844 l 31.719,-28.219 -0.563,-0.5 z M 83.969,48.5 c -0.04498,3.2899 -0.50435,6.4804 -1.375,9.5 H 65 v 1 H 82.594 C 83.509,55.827 84,52.467 84,49 84,48.832 83.971,48.667 83.969,48.5 z M 80.688,63 C 74.994,75.379 62.518,84 48,84 43.412,84 39.035,83.127 35,81.562 v 1 C 39.035,84.127 43.412,85 48,85 62.912,85 75.691,75.921 81.156,63 h -0.46875 z m -65.125,0.53125 -0.34375,0.28125 c 3.271,7.224 8.827,13.205 15.781,16.938 v -1 c -6.721,-3.607 -12.129,-9.32 -15.438,-16.219 z"
             style="color:#000000;fill:#ffffff"
             id="path3832" />
          <path
             inkscape:connector-curvature="0"
             d="m 48,12 c -5.0055,0 -9.7626,1.029 -14.094,2.875 l 0.78125,0.6875 c 4.123,-1.645 8.603,-2.562 13.313,-2.562 4.5879,0 8.9648,0.87284 13,2.4375 v -1 c -4.035,-1.565 -8.412,-2.438 -13,-2.438 z m 17,4.25 v 1 C 76.171,23.246 83.784,34.978 83.969,48.5 83.971,48.333 84,48.167 84,48 84,34.266 76.309,22.32 65,16.25 z M 30.031,16.812 C 19.26,23.034 12,34.667 12,48 c 0,0.20954 -0.0036,0.41623 0,0.625 0.136,-13.175 7.3618,-24.65 18.031,-30.812 l 14.781,13.312 0.563,-0.5 L 30.031,16.812 z M 31,48.781 15.219,62.812 c 0.10989,0.24269 0.22873,0.4789 0.34375,0.71875 l 15.437,-13.75 v -1 z M 35,62 v 1 h 45.688 c 0.15437,-0.33564 0.32448,-0.65891 0.46875,-1 h -46.157 z"
             style="opacity:0.3;color:#000000"
             id="path3837" />
        </g>
      </g>
    </g>
  </g>
</svg>
