<?xml version="1.0" encoding="UTF-8" standalone="no"?>
<!-- Created with Inkscape (http://www.inkscape.org/) -->
<svg id="svg2982" xmlns:rdf="http://www.w3.org/1999/02/22-rdf-syntax-ns#" xmlns="http://www.w3.org/2000/svg" height="96" width="96" version="1.1" xmlns:cc="http://creativecommons.org/ns#" xmlns:xlink="http://www.w3.org/1999/xlink" xmlns:dc="http://purl.org/dc/elements/1.1/">
 <defs id="defs2984">
  <filter id="filter6279" color-interpolation-filters="sRGB">
   <feGaussianBlur id="feGaussianBlur6281" stdDeviation="0.8"/>
  </filter>
  <linearGradient id="linearGradient10902-1" y2="902.36" gradientUnits="userSpaceOnUse" x2="48" gradientTransform="translate(0 -.0000096172)" y1="1052.4" x1="48">
   <stop id="stop3189-3" style="stop-color:#904010" offset="0"/>
   <stop id="stop3191-1" style="stop-color:#d28556" offset="1"/>
  </linearGradient>
  <linearGradient id="linearGradient2908-3" y2="138.66" gradientUnits="userSpaceOnUse" x2="48" y1="20.221" x1="48">
   <stop id="stop3739-6-0" style="stop-color:#fff" offset="0"/>
   <stop id="stop3741-7-7" style="stop-color:#fff;stop-opacity:0" offset="1"/>
  </linearGradient>
  <clipPath id="clipPath3613-27">
   <rect id="rect3615-29" style="fill:#fff" rx="6" ry="6" height="84" width="84" y="6" x="6"/>
  </clipPath>
  <filter id="filter3794-05" height="1.384" width="1.384" color-interpolation-filters="sRGB" y="-.192" x="-.192">
   <feGaussianBlur id="feGaussianBlur3796-04" stdDeviation="5.28"/>
  </filter>
  <linearGradient id="linearGradient3188-1" y2="63.893" gradientUnits="userSpaceOnUse" x2="36.357" y1="6" x1="36.357">
   <stop id="stop3739-36" style="stop-color:#fff" offset="0"/>
   <stop id="stop3741-21" style="stop-color:#fff;stop-opacity:0" offset="1"/>
  </linearGradient>
  <radialGradient id="radialGradient3147" gradientUnits="userSpaceOnUse" cx="48" cy="90.172" r="42" gradientTransform="matrix(1.1573 0 0 .99591 -7.551 .19713)">
   <stop id="stop3739-2" style="stop-color:#fff" offset="0"/>
   <stop id="stop3741-6-5" style="stop-color:#fff;stop-opacity:0" offset="1"/>
  </radialGradient>
  <linearGradient id="linearGradient3850" y2="-16" gradientUnits="userSpaceOnUse" x2="56" y1="72" x1="56">
   <stop id="stop3846-5" style="stop-color:#582100" offset="0"/>
   <stop id="stop3848-7" style="stop-color:#582100;stop-opacity:0" offset="1"/>
  </linearGradient>
 </defs>
 <metadata id="metadata2987">
  <rdf:RDF>
   <cc:Work rdf:about="">
    <dc:format>image/svg+xml</dc:format>
    <dc:type rdf:resource="http://purl.org/dc/dcmitype/StillImage"/>
    <dc:title/>
   </cc:Work>
  </rdf:RDF>
 </metadata>
 <g id="layer1" transform="translate(0 -956.36)">
  <g id="g5991" transform="translate(-182.19 -40.406)">
   <rect id="rect9283" style="filter:url(#filter6279)" transform="translate(182.19 40.406)" rx="5" ry="5" height="80" width="80" y="964.36" x="8"/>
   <rect id="rect9285" style="fill:url(#linearGradient10902-1)" transform="translate(182.19 40.406)" rx="5" ry="5" height="80" width="80" y="964.36" x="8"/>
   <g id="g6806">
    <g id="layer4" transform="translate(182.19 996.77)">
     <rect id="rect3171" style="opacity:.15;filter:url(#filter3794-05);stroke:#fff;stroke-linecap:round;stroke-width:.5;fill:url(#linearGradient2908-3)" clip-path="url(#clipPath3613-27)" rx="12" ry="12" height="66" width="66" y="15" x="15"/>
     <path id="rect3728" style="opacity:.35;fill:url(#linearGradient3188-1)" d="m12 6c-3.324 0-6 2.676-6 6v2 68 2c0 0.33472 0.04135 0.6507 0.09375 0.96875 0.0487 0.2956 0.09704 0.59692 0.1875 0.875 0.00988 0.03038 0.020892 0.0636 0.03125 0.09375 0.098865 0.28777 0.23488 0.54745 0.375 0.8125 0.14459 0.27351 0.31562 0.53562 0.5 0.78125 0.18438 0.24564 0.37378 0.47347 0.59375 0.6875 0.43995 0.42806 0.94291 0.81453 1.5 1.0938 0.27854 0.13961 0.57347 0.24695 0.875 0.34375-0.2562-0.10022-0.48671-0.23627-0.71875-0.375-0.00741-0.0044-0.023866 0.0045-0.03125 0-0.031933-0.0193-0.062293-0.04251-0.09375-0.0625-0.1204-0.0767-0.23102-0.16351-0.34375-0.25-0.10617-0.0808-0.21328-0.16111-0.3125-0.25-0.1778-0.162-0.3473-0.346-0.4999-0.531-0.1075-0.131-0.2183-0.266-0.3124-0.407-0.0251-0.038-0.0385-0.086-0.0626-0.125-0.0647-0.103-0.1302-0.204-0.1874-0.312-0.1011-0.195-0.2057-0.416-0.2813-0.625-0.008-0.022-0.0236-0.041-0.0313-0.063-0.0318-0.092-0.0358-0.187-0.0624-0.281-0.0304-0.107-0.0704-0.203-0.0938-0.313-0.0729-0.341-0.125-0.698-0.125-1.062v-2-68-2c0-2.782 2.2182-5 5-5h2 68 2c2.7818 0 5 2.2182 5 5v2 68 2c0 0.3643-0.05212 0.72099-0.125 1.0625-0.04415 0.20689-0.08838 0.39766-0.15625 0.59375-0.0077 0.02195-0.0233 0.04069-0.03125 0.0625-0.06274 0.17374-0.13838 0.36745-0.21875 0.53125-0.04158 0.0828-0.07904 0.16995-0.125 0.25-0.0546 0.09721-0.12677 0.18835-0.1875 0.28125-0.09411 0.14096-0.20492 0.276-0.3125 0.40625-0.14317 0.17445-0.30314 0.347-0.46875 0.5-0.01117 0.0102-0.01998 0.02115-0.03125 0.03125-0.13839 0.12556-0.28509 0.23444-0.4375 0.34375-0.10257 0.07315-0.20432 0.15336-0.3125 0.21875-0.0074 0.0045-0.02384-0.0044-0.03125 0-0.23204 0.13873-0.46255 0.27478-0.71875 0.375 0.30153-0.0968 0.59646-0.20414 0.875-0.34375 0.55709-0.27922 1.0601-0.66569 1.5-1.0938 0.21997-0.21403 0.40937-0.44186 0.59375-0.6875s0.35541-0.50774 0.5-0.78125c0.14012-0.26505 0.27614-0.52473 0.375-0.8125 0.01041-0.03078 0.02133-0.06274 0.03125-0.09375 0.09046-0.27808 0.1388-0.5794 0.1875-0.875 0.053-0.318 0.094-0.634 0.094-0.969v-2-68-2c0-3.324-2.676-6-6-6h-72z"/>
     <path id="path3615" style="opacity:.2;fill:url(#radialGradient3147)" d="m12 90c-3.324 0-6-2.676-6-6v-2-68-2c0-0.33472 0.04135-0.6507 0.09375-0.96875 0.0487-0.2956 0.09704-0.59692 0.1875-0.875 0.0099-0.03 0.0209-0.063 0.0313-0.094 0.0989-0.2873 0.2349-0.547 0.375-0.812 0.1446-0.2735 0.3156-0.5356 0.5-0.7812 0.1844-0.2457 0.3738-0.4735 0.5937-0.6876 0.44-0.428 0.943-0.8145 1.5-1.0937 0.2786-0.1396 0.5735-0.2469 0.8748-0.3437-0.256 0.1002-0.4865 0.2362-0.7185 0.375-0.00741 0.0044-0.023866-0.0045-0.03125 0-0.031933 0.0193-0.062293 0.04251-0.09375 0.0625-0.1204 0.0767-0.23102 0.16351-0.34375 0.25-0.10617 0.0808-0.21328 0.16111-0.3125 0.25-0.1779 0.1614-0.3474 0.3453-0.5 0.5312-0.1075 0.1303-0.2183 0.2653-0.3124 0.4063-0.0251 0.0383-0.0385 0.0858-0.0626 0.125-0.0647 0.103-0.1302 0.2045-0.1874 0.3124-0.1011 0.1948-0.2057 0.4158-0.2813 0.625-0.008 0.0219-0.0236 0.0406-0.0313 0.0626-0.0318 0.0919-0.0358 0.1868-0.0624 0.2812-0.0304 0.1066-0.0704 0.203-0.0938 0.3125-0.0729 0.3415-0.125 0.6985-0.125 1.0625v2 68 2c0 2.7818 2.2182 5 5 5h2 68 2c2.7818 0 5-2.2182 5-5v-2-68-2c0-0.364-0.052-0.721-0.125-1.0625-0.044-0.2069-0.088-0.3977-0.156-0.5937-0.008-0.022-0.024-0.0407-0.031-0.0626-0.063-0.1737-0.139-0.3674-0.219-0.5312-0.042-0.0828-0.079-0.17-0.125-0.25-0.055-0.0972-0.127-0.1884-0.188-0.2812-0.094-0.141-0.205-0.276-0.312-0.4063-0.143-0.1745-0.303-0.347-0.469-0.5-0.011-0.0102-0.02-0.0211-0.031-0.0313-0.139-0.1255-0.285-0.2344-0.438-0.3437-0.102-0.0731-0.204-0.1534-0.312-0.2187-0.0074-0.0045-0.02384 0.0044-0.03125 0-0.23204-0.13873-0.46255-0.27478-0.71875-0.375 0.30153 0.0968 0.59646 0.20414 0.875 0.34375 0.55709 0.27922 1.0601 0.66569 1.5 1.0938 0.21997 0.21403 0.40937 0.44186 0.59375 0.6875s0.35541 0.50774 0.5 0.78125c0.14012 0.26505 0.27614 0.52473 0.375 0.8125 0.01041 0.03078 0.02133 0.06274 0.03125 0.09375 0.09046 0.27808 0.1388 0.5794 0.1875 0.875 0.053 0.318 0.094 0.634 0.094 0.969v2 68 2c0 3.324-2.676 6-6 6h-72z"/>
    </g>
    <g id="g3072" transform="translate(182.19 996.77)">
     <path id="path3901" d="m47.812 20.781a0.73049 0.73049 0 0 0 -0.374 0.219l-13.907 15.562a0.73049 0.73049 0 0 0 0.344 1.219l5.687 1.469-12.687 12.156a0.73049 0.73049 0 0 0 0.3125 1.25l5.874 1.469-12.562 11.5a0.73049 0.73049 0 0 0 0.34375 1.25l21.969 4.5938v4.0312a0.73049 0.73049 0 0 0 0.71875 0.71875h8.9375a0.73049 0.73049 0 0 0 0.718 -0.719v-4.0312l21.968-4.594a0.73049 0.73049 0 0 0 0.344 -1.25l-12.562-11.5 5.875-1.4688a0.73049 0.73049 0 0 0 0.3125 -1.25l-12.688-12.156 5.687-1.469a0.73049 0.73049 0 0 0 0.344 -1.219l-13.907-15.562a0.73049 0.73049 0 0 0 -0.53125 -0.21875h-0.0625a0.73049 0.73049 0 0 0 -0.15625 0zm0.157 0.219h0.062l13.907 15.562-6.969 1.813 13.656 13.063-7.187 1.812 13.562 12.406-22.531 4.719v4.625h-8.9375v-4.625l-22.532-4.719 13.562-12.406-7.187-1.812 13.656-13.063-6.969-1.813 13.907-15.562z" style="opacity:.15;fill:#e9c6af"/>
     <path id="path2836" d="m47.965 21-13.907 15.56 6.9712 1.8-13.659 13.08 7.1835 1.8l-13.554 12.42 22.541 4.7v4.64h8.9174v-4.62l22.542-4.72-13.553-12.42 7.183-1.8-13.659-13.08 6.971-1.8-13.907-15.56h-0.07077" style="opacity:.5;fill:url(#linearGradient3850)"/>
     <path id="path3890" d="m47.969 21-13.907 15.562 6.969 1.813-13.656 13.063 7.187 1.812-13.562 12.406 22.531 4.719v4.625h8.9375v-4.625l22.532-4.719-13.562-12.406 7.187-1.812-13.656-13.063 6.969-1.813-13.907-15.562h-0.062zm0.031 3.062l10.188 11.375-3.7188 0.96875a2.0411 2.0411 0 0 0 -0.90625 3.4375l11 10.531-3.625 0.90625a2.0411 2.0411 0 0 0 -0.876 3.469l10.625 9.7188-18.625 3.9062a2.0411 2.0411 0 0 0 -1.625 2v2.5938h-4.875v-2.5938a2.0411 2.0411 0 0 0 -1.625 -2l-18.625-3.906 10.626-9.719a2.0411 2.0411 0 0 0 -0.875 -3.4688l-3.625-0.90625 11-10.531a2.0411 2.0411 0 0 0 -0.90625 -3.4375l-3.72-0.968 10.188-11.376z" style="opacity:.05;fill:#520"/>
     <path id="path3852" d="m34.781 36.75-0.71875 0.8125 6.1562 1.5938 0.8125-0.78125-6.25-1.625zm26.438 0-6.25 1.625 0.8125 0.78125l6.156-1.594-0.719-0.812zm-33.031 14.906-0.813 0.782 6.344 1.593 0.843-0.781-6.374-1.594zm39.625 0-6.375 1.5938 0.84375 0.78125l6.343-1.593-0.813-0.782zm-45.938 14.188-0.875 0.812 22.531 4.719v-1l-21.656-4.531zm52.25 0-21.656 4.5312v1l22.531-4.719-0.875-0.812zm-30.594 9.156v1h8.9375v-1h-8.9375z" style="opacity:.3;fill:#ffb584"/>
     <path id="path3861" d="m47.969 21-13.907 15.562 0.719 0.188 13.188-14.75h0.062l13.188 14.75 0.719-0.188-13.907-15.562h-0.0625zm-7.75 18.156l-12.844 12.282 0.813 0.218 12.843-12.281-0.812-0.219zm15.562 0l-0.812 0.219 12.843 12.281 0.813-0.218-12.844-12.282zm-22.062 14.875-12.719 11.625 0.875 0.188 12.687-11.594-0.843-0.219zm28.562 0l-0.843 0.219 12.687 11.594 0.875-0.188-12.719-11.625z" style="opacity:.2"/>
     <path id="path3874" d="m47.969 21-13.907 15.562 6.969 1.813-13.656 13.063 7.187 1.812-13.562 12.406 22.531 4.719v4.625h8.9375v-4.625l22.532-4.719-13.562-12.406 7.187-1.812-13.656-13.063 6.969-1.813-13.907-15.562h-0.062zm0.031 1.844 11.625 13.031-4.969 1.281a1.252 1.252 0 0 0 -0.5625 2.125l12 11.5-4.9688 1.25a1.252 1.252 0 0 0 -0.53125 2.1562l11.75 10.75-20.125 4.2188a1.252 1.252 0 0 0 -1 1.2188v3.375h-6.4375v-3.375a1.252 1.252 0 0 0 -1 -1.2188l-20.125-4.2188 11.75-10.75a1.252 1.252 0 0 0 -0.532 -2.156l-4.9688-1.25 12-11.5a1.252 1.252 0 0 0 -0.5625 -2.125l-4.969-1.281 11.625-13.031z" style="opacity:.15;fill:#4a1d00"/>
     <path id="path3870" d="m47.969 21-13.907 15.562 6.969 1.813-13.656 13.063 7.187 1.812-13.562 12.406 22.531 4.719v4.625h8.9375v-4.625l22.532-4.719-13.562-12.406 7.187-1.812-13.656-13.063 6.969-1.813-13.907-15.562h-0.062zm0.031 1 12.688 14.188-5.907 1.531a0.6904 0.6904 0 0 0 -0.281 1.156l12.75 12.219-5.9688 1.5a0.6904 0.6904 0 0 0 -0.312 1.156l12.562 11.5-21.219 4.4375a0.6904 0.6904 0 0 0 -0.53125 0.6875v3.9375h-7.5625v-3.9375a0.6904 0.6904 0 0 0 -0.53 -0.688l-21.219-4.438 12.562-11.5a0.6904 0.6904 0 0 0 -0.3125 -1.1562l-5.968-1.5 12.75-12.219a0.6904 0.6904 0 0 0 -0.281 -1.156l-5.907-1.531 12.688-14.188z" style="opacity:.2;fill:#4a1d00"/>
    </g>
   </g>
  </g>
 </g>
</svg>
