<?xml version="1.0" encoding="UTF-8" standalone="no"?>
<!-- Created with Inkscape (http://www.inkscape.org/) -->

<svg
   xmlns:dc="http://purl.org/dc/elements/1.1/"
   xmlns:cc="http://creativecommons.org/ns#"
   xmlns:rdf="http://www.w3.org/1999/02/22-rdf-syntax-ns#"
   xmlns:svg="http://www.w3.org/2000/svg"
   xmlns="http://www.w3.org/2000/svg"
   xmlns:xlink="http://www.w3.org/1999/xlink"
   xmlns:sodipodi="http://sodipodi.sourceforge.net/DTD/sodipodi-0.dtd"
   xmlns:inkscape="http://www.inkscape.org/namespaces/inkscape"
   width="96"
   height="96"
   id="svg2982"
   version="1.1"
   inkscape:version="0.48.1 r9760"
   sodipodi:docname="pino.svg">
  <defs
     id="defs2984">
    <filter
       color-interpolation-filters="sRGB"
       inkscape:collect="always"
       id="filter6279">
      <feGaussianBlur
         inkscape:collect="always"
         stdDeviation="0.8"
         id="feGaussianBlur6281" />
    </filter>
    <linearGradient
       inkscape:collect="always"
       xlink:href="#linearGradient3187"
       id="linearGradient10902-1"
       gradientUnits="userSpaceOnUse"
       gradientTransform="translate(0,-9.6171873e-6)"
       x1="48"
       y1="1052.3622"
       x2="48"
       y2="902.36218" />
    <linearGradient
       id="linearGradient3187">
      <stop
         id="stop3189-3"
         style="stop-color:#904010;stop-opacity:1"
         offset="0" />
      <stop
         id="stop3191-1"
         style="stop-color:#d28556;stop-opacity:1"
         offset="1" />
    </linearGradient>
    <linearGradient
       x1="48"
       y1="20.220806"
       x2="48"
       y2="138.66119"
       id="linearGradient2908-3"
       xlink:href="#linearGradient3737-7-9"
       gradientUnits="userSpaceOnUse" />
    <linearGradient
       id="linearGradient3737-7-9">
      <stop
         id="stop3739-6-0"
         style="stop-color:#ffffff;stop-opacity:1"
         offset="0" />
      <stop
         id="stop3741-7-7"
         style="stop-color:#ffffff;stop-opacity:0"
         offset="1" />
    </linearGradient>
    <clipPath
       id="clipPath3613-27">
      <rect
         width="84"
         height="84"
         rx="6"
         ry="6"
         x="6"
         y="6"
         id="rect3615-29"
         style="fill:#ffffff;fill-opacity:1;fill-rule:nonzero;stroke:none" />
    </clipPath>
    <filter
       x="-0.192"
       y="-0.192"
       width="1.3839999"
       height="1.3839999"
       color-interpolation-filters="sRGB"
       id="filter3794-05">
      <feGaussianBlur
         id="feGaussianBlur3796-04"
         stdDeviation="5.28" />
    </filter>
    <linearGradient
       x1="36.357143"
       y1="6"
       x2="36.357143"
       y2="63.893143"
       id="linearGradient3188-1"
       xlink:href="#linearGradient3737-79"
       gradientUnits="userSpaceOnUse" />
    <linearGradient
       id="linearGradient3737-79">
      <stop
         id="stop3739-36"
         style="stop-color:#ffffff;stop-opacity:1"
         offset="0" />
      <stop
         id="stop3741-21"
         style="stop-color:#ffffff;stop-opacity:0"
         offset="1" />
    </linearGradient>
    <radialGradient
       r="42"
       fy="90.171875"
       fx="48"
       cy="90.171875"
       cx="48"
       gradientTransform="matrix(1.1573129,0,0,0.99590774,-7.551021,0.1971319)"
       gradientUnits="userSpaceOnUse"
       id="radialGradient3147"
       xlink:href="#linearGradient3737-2"
       inkscape:collect="always" />
    <linearGradient
       id="linearGradient3737-2">
      <stop
         id="stop3739-2"
         style="stop-color:#ffffff;stop-opacity:1"
         offset="0" />
      <stop
         id="stop3741-6-5"
         style="stop-color:#ffffff;stop-opacity:0"
         offset="1" />
    </linearGradient>
    <linearGradient
       x1="56"
       y1="72"
       x2="56"
       y2="-16"
       id="linearGradient3850"
       xlink:href="#linearGradient3844-5"
       gradientUnits="userSpaceOnUse" />
    <linearGradient
       id="linearGradient3844-5">
      <stop
         id="stop3846-5"
         style="stop-color:#582100;stop-opacity:1"
         offset="0" />
      <stop
         id="stop3848-7"
         style="stop-color:#582100;stop-opacity:0"
         offset="1" />
    </linearGradient>
  </defs>
  <sodipodi:namedview
     id="base"
     pagecolor="#ffffff"
     bordercolor="#666666"
     borderopacity="1.0"
     inkscape:pageopacity="0.0"
     inkscape:pageshadow="2"
     inkscape:zoom="3.959798"
     inkscape:cx="36.39115"
     inkscape:cy="42.877139"
     inkscape:document-units="px"
     inkscape:current-layer="layer1"
     showgrid="false"
     inkscape:window-width="1280"
     inkscape:window-height="725"
     inkscape:window-x="0"
     inkscape:window-y="25"
     inkscape:window-maximized="1" />
  <metadata
     id="metadata2987">
    <rdf:RDF>
      <cc:Work
         rdf:about="">
        <dc:format>image/svg+xml</dc:format>
        <dc:type
           rdf:resource="http://purl.org/dc/dcmitype/StillImage" />
        <dc:title></dc:title>
      </cc:Work>
    </rdf:RDF>
  </metadata>
  <g
     inkscape:label="Layer 1"
     inkscape:groupmode="layer"
     id="layer1"
     transform="translate(0,-956.36218)">
    <g
       transform="translate(-182.1875,-40.40625)"
       id="g5991">
      <rect
         y="964.36218"
         x="8"
         height="80"
         width="80"
         id="rect9283"
         style="fill:#000000;fill-opacity:1;stroke:none;filter:url(#filter6279)"
         rx="5"
         ry="5"
         transform="translate(182.1875,40.40625)" />
      <rect
         ry="5"
         rx="5"
         style="fill:url(#linearGradient10902-1);fill-opacity:1;stroke:none"
         id="rect9285"
         width="80"
         height="80"
         x="8"
         y="964.36218"
         transform="translate(182.1875,40.40625)" />
      <g
         id="g6806">
        <g
           transform="translate(182.1875,996.76843)"
           id="layer4">
          <rect
             width="66"
             height="66"
             rx="12"
             ry="12"
             x="15"
             y="15"
             clip-path="url(#clipPath3613-27)"
             id="rect3171"
             style="opacity:0.15;fill:url(#linearGradient2908-3);fill-opacity:1;fill-rule:nonzero;stroke:#ffffff;stroke-width:0.5;stroke-linecap:round;stroke-linejoin:miter;stroke-miterlimit:4;stroke-opacity:1;stroke-dasharray:none;stroke-dashoffset:0;filter:url(#filter3794-05)" />
          <path
             d="M 12,6 C 8.676,6 6,8.676 6,12 l 0,2 0,68 0,2 c 0,0.334721 0.04135,0.6507 0.09375,0.96875 0.0487,0.295596 0.09704,0.596915 0.1875,0.875 0.00988,0.03038 0.020892,0.0636 0.03125,0.09375 0.098865,0.287771 0.2348802,0.547452 0.375,0.8125 0.1445918,0.273507 0.3156161,0.535615 0.5,0.78125 0.1843839,0.245635 0.3737765,0.473472 0.59375,0.6875 0.439947,0.428056 0.94291,0.814526 1.5,1.09375 0.278545,0.139612 0.5734731,0.246947 0.875,0.34375 -0.2562018,-0.100222 -0.4867109,-0.236272 -0.71875,-0.375 -0.00741,-0.0044 -0.023866,0.0045 -0.03125,0 -0.031933,-0.0193 -0.062293,-0.04251 -0.09375,-0.0625 -0.120395,-0.0767 -0.2310226,-0.163513 -0.34375,-0.25 -0.1061728,-0.0808 -0.2132809,-0.161112 -0.3125,-0.25 C 8.4783201,88.557317 8.3087904,88.373362 8.15625,88.1875 8.0486711,88.057245 7.9378561,87.922215 7.84375,87.78125 7.818661,87.74287 7.805304,87.69538 7.78125,87.65625 7.716487,87.553218 7.6510225,87.451733 7.59375,87.34375 7.4927417,87.149044 7.3880752,86.928049 7.3125,86.71875 7.30454,86.69694 7.288911,86.6782 7.28125,86.65625 7.2494249,86.5643 7.2454455,86.469419 7.21875,86.375 7.1884177,86.268382 7.1483606,86.171969 7.125,86.0625 7.0521214,85.720988 7,85.364295 7,85 L 7,83 7,15 7,13 C 7,10.218152 9.2181517,8 12,8 l 2,0 68,0 2,0 c 2.781848,0 5,2.218152 5,5 l 0,2 0,68 0,2 c 0,0.364295 -0.05212,0.720988 -0.125,1.0625 -0.04415,0.206893 -0.08838,0.397658 -0.15625,0.59375 -0.0077,0.02195 -0.0233,0.04069 -0.03125,0.0625 -0.06274,0.173739 -0.138383,0.367449 -0.21875,0.53125 -0.04158,0.0828 -0.07904,0.169954 -0.125,0.25 -0.0546,0.09721 -0.126774,0.18835 -0.1875,0.28125 -0.09411,0.140965 -0.204921,0.275995 -0.3125,0.40625 -0.143174,0.17445 -0.303141,0.346998 -0.46875,0.5 -0.01117,0.0102 -0.01998,0.02115 -0.03125,0.03125 -0.138386,0.125556 -0.285091,0.234436 -0.4375,0.34375 -0.102571,0.07315 -0.204318,0.153364 -0.3125,0.21875 -0.0074,0.0045 -0.02384,-0.0044 -0.03125,0 -0.232039,0.138728 -0.462548,0.274778 -0.71875,0.375 0.301527,-0.0968 0.596455,-0.204138 0.875,-0.34375 0.55709,-0.279224 1.060053,-0.665694 1.5,-1.09375 0.219973,-0.214028 0.409366,-0.441865 0.59375,-0.6875 0.184384,-0.245635 0.355408,-0.507743 0.5,-0.78125 0.14012,-0.265048 0.276135,-0.524729 0.375,-0.8125 0.01041,-0.03078 0.02133,-0.06274 0.03125,-0.09375 0.09046,-0.278085 0.1388,-0.579404 0.1875,-0.875 C 89.95865,84.6507 90,84.334721 90,84 l 0,-2 0,-68 0,-2 C 90,8.676 87.324,6 84,6 L 12,6 z"
             inkscape:connector-curvature="0"
             id="rect3728"
             style="opacity:0.35;fill:url(#linearGradient3188-1);fill-opacity:1;fill-rule:nonzero;stroke:none" />
          <path
             d="M 12,90 C 8.676,90 6,87.324 6,84 L 6,82 6,14 6,12 c 0,-0.334721 0.04135,-0.6507 0.09375,-0.96875 0.0487,-0.295596 0.09704,-0.596915 0.1875,-0.875 C 6.29113,10.12587 6.302142,10.09265 6.3125,10.0625 6.411365,9.774729 6.5473802,9.515048 6.6875,9.25 6.8320918,8.976493 7.0031161,8.714385 7.1875,8.46875 7.3718839,8.223115 7.5612765,7.995278 7.78125,7.78125 8.221197,7.353194 8.72416,6.966724 9.28125,6.6875 9.559795,6.547888 9.8547231,6.440553 10.15625,6.34375 9.9000482,6.443972 9.6695391,6.580022 9.4375,6.71875 c -0.00741,0.0044 -0.023866,-0.0045 -0.03125,0 -0.031933,0.0193 -0.062293,0.04251 -0.09375,0.0625 -0.120395,0.0767 -0.2310226,0.163513 -0.34375,0.25 -0.1061728,0.0808 -0.2132809,0.161112 -0.3125,0.25 C 8.4783201,7.442683 8.3087904,7.626638 8.15625,7.8125 8.0486711,7.942755 7.9378561,8.077785 7.84375,8.21875 7.818661,8.25713 7.805304,8.30462 7.78125,8.34375 7.716487,8.446782 7.6510225,8.548267 7.59375,8.65625 7.4927417,8.850956 7.3880752,9.071951 7.3125,9.28125 7.30454,9.30306 7.288911,9.3218 7.28125,9.34375 7.2494249,9.4357 7.2454455,9.530581 7.21875,9.625 7.1884177,9.731618 7.1483606,9.828031 7.125,9.9375 7.0521214,10.279012 7,10.635705 7,11 l 0,2 0,68 0,2 c 0,2.781848 2.2181517,5 5,5 l 2,0 68,0 2,0 c 2.781848,0 5,-2.218152 5,-5 l 0,-2 0,-68 0,-2 C 89,10.635705 88.94788,10.279012 88.875,9.9375 88.83085,9.730607 88.78662,9.539842 88.71875,9.34375 88.71105,9.3218 88.69545,9.30306 88.6875,9.28125 88.62476,9.107511 88.549117,8.913801 88.46875,8.75 88.42717,8.6672 88.38971,8.580046 88.34375,8.5 88.28915,8.40279 88.216976,8.31165 88.15625,8.21875 88.06214,8.077785 87.951329,7.942755 87.84375,7.8125 87.700576,7.63805 87.540609,7.465502 87.375,7.3125 87.36383,7.3023 87.35502,7.29135 87.34375,7.28125 87.205364,7.155694 87.058659,7.046814 86.90625,6.9375 86.803679,6.86435 86.701932,6.784136 86.59375,6.71875 c -0.0074,-0.0045 -0.02384,0.0044 -0.03125,0 -0.232039,-0.138728 -0.462548,-0.274778 -0.71875,-0.375 0.301527,0.0968 0.596455,0.204138 0.875,0.34375 0.55709,0.279224 1.060053,0.665694 1.5,1.09375 0.219973,0.214028 0.409366,0.441865 0.59375,0.6875 0.184384,0.245635 0.355408,0.507743 0.5,0.78125 0.14012,0.265048 0.276135,0.524729 0.375,0.8125 0.01041,0.03078 0.02133,0.06274 0.03125,0.09375 0.09046,0.278085 0.1388,0.579404 0.1875,0.875 C 89.95865,11.3493 90,11.665279 90,12 l 0,2 0,68 0,2 c 0,3.324 -2.676,6 -6,6 l -72,0 z"
             inkscape:connector-curvature="0"
             id="path3615"
             style="opacity:0.2;fill:url(#radialGradient3147);fill-opacity:1;fill-rule:nonzero;stroke:none" />
        </g>
        <g
           transform="translate(182.1875,996.76843)"
           id="g3072">
          <path
             style="opacity:0.15;fill:#e9c6af;fill-opacity:1;stroke:none"
             id="path3901"
             inkscape:connector-curvature="0"
             d="M 47.8125,20.78125 A 0.73048868,0.73048868 0 0 0 47.4375,21 L 33.53125,36.5625 A 0.73048868,0.73048868 0 0 0 33.875,37.78125 L 39.5625,39.25 26.875,51.40625 a 0.73048868,0.73048868 0 0 0 0.3125,1.25 L 33.0625,54.125 20.5,65.625 a 0.73048868,0.73048868 0 0 0 0.34375,1.25 l 21.96875,4.59375 0,4.03125 a 0.73048868,0.73048868 0 0 0 0.71875,0.71875 l 8.9375,0 A 0.73048868,0.73048868 0 0 0 53.1875,75.5 l 0,-4.03125 L 75.15625,66.875 A 0.73048868,0.73048868 0 0 0 75.5,65.625 l -12.5625,-11.5 5.875,-1.46875 a 0.73048868,0.73048868 0 0 0 0.3125,-1.25 L 56.4375,39.25 62.125,37.78125 A 0.73048868,0.73048868 0 0 0 62.46875,36.5625 L 48.5625,21 a 0.73048868,0.73048868 0 0 0 -0.53125,-0.21875 l -0.0625,0 a 0.73048868,0.73048868 0 0 0 -0.15625,0 z M 47.96875,21 48.03125,21 61.9375,36.5625 54.96875,38.375 68.625,51.4375 61.4375,53.25 75,65.65625 52.46875,70.375 l 0,4.625 -8.9375,0 0,-4.625 L 21,65.65625 34.5625,53.25 27.375,51.4375 41.03125,38.375 34.0625,36.5625 47.96875,21 z" />
          <path
             style="opacity:0.5;fill:url(#linearGradient3850);fill-opacity:1;stroke:none"
             id="path2836"
             inkscape:connector-curvature="0"
             d="m 47.964613,21 -13.906946,15.56 6.971167,1.8 -13.65924,13.08 7.183486,1.8 L 21,65.66 l 22.541284,4.7 0,4.64 8.917432,0 0,-4.62 L 75,65.66 61.44692,53.24 68.630406,51.44 54.971167,38.36 61.942333,36.56 48.035387,21 l -0.07077,0" />
          <path
             style="opacity:0.05;fill:#552200;fill-opacity:1;stroke:none"
             id="path3890"
             inkscape:connector-curvature="0"
             d="M 47.96875,21 34.0625,36.5625 41.03125,38.375 27.375,51.4375 34.5625,53.25 21,65.65625 43.53125,70.375 l 0,4.625 8.9375,0 0,-4.625 L 75,65.65625 61.4375,53.25 68.625,51.4375 54.96875,38.375 61.9375,36.5625 48.03125,21 47.96875,21 z M 48,24.0625 l 10.1875,11.375 -3.71875,0.96875 a 2.0411441,2.0411441 0 0 0 -0.90625,3.4375 l 11,10.53125 -3.625,0.90625 A 2.0411441,2.0411441 0 0 0 60.0625,54.75 l 10.625,9.71875 -18.625,3.90625 a 2.0411441,2.0411441 0 0 0 -1.625,2 l 0,2.59375 -4.875,0 0,-2.59375 a 2.0411441,2.0411441 0 0 0 -1.625,-2 L 25.3125,64.46875 35.9375,54.75 a 2.0411441,2.0411441 0 0 0 -0.875,-3.46875 l -3.625,-0.90625 11,-10.53125 a 2.0411441,2.0411441 0 0 0 -0.90625,-3.4375 L 37.8125,35.4375 48,24.0625 z" />
          <path
             style="opacity:0.3;fill:#ffb584;fill-opacity:1;stroke:none"
             id="path3852"
             inkscape:connector-curvature="0"
             d="m 34.78125,36.75 -0.71875,0.8125 6.15625,1.59375 0.8125,-0.78125 -6.25,-1.625 z m 26.4375,0 -6.25,1.625 0.8125,0.78125 L 61.9375,37.5625 61.21875,36.75 z M 28.1875,51.65625 27.375,52.4375 33.71875,54.03125 34.5625,53.25 28.1875,51.65625 z m 39.625,0 -6.375,1.59375 0.84375,0.78125 L 68.625,52.4375 67.8125,51.65625 z M 21.875,65.84375 21,66.65625 43.53125,71.375 l 0,-1 L 21.875,65.84375 z m 52.25,0 -21.65625,4.53125 0,1 L 75,66.65625 74.125,65.84375 z M 43.53125,75 l 0,1 8.9375,0 0,-1 -8.9375,0 z" />
          <path
             style="opacity:0.2;fill:#000000;fill-opacity:1;stroke:none"
             id="path3861"
             inkscape:connector-curvature="0"
             d="M 47.96875,21 34.0625,36.5625 34.78125,36.75 47.96875,22 48.03125,22 61.21875,36.75 61.9375,36.5625 48.03125,21 l -0.0625,0 z m -7.75,18.15625 L 27.375,51.4375 28.1875,51.65625 41.03125,39.375 40.21875,39.15625 z m 15.5625,0 L 54.96875,39.375 67.8125,51.65625 68.625,51.4375 55.78125,39.15625 z M 33.71875,54.03125 21,65.65625 21.875,65.84375 34.5625,54.25 33.71875,54.03125 z m 28.5625,0 L 61.4375,54.25 74.125,65.84375 75,65.65625 62.28125,54.03125 z" />
          <path
             style="opacity:0.15;fill:#4a1d00;fill-opacity:1;stroke:none"
             id="path3874"
             inkscape:connector-curvature="0"
             d="M 47.96875,21 34.0625,36.5625 41.03125,38.375 27.375,51.4375 34.5625,53.25 21,65.65625 43.53125,70.375 l 0,4.625 8.9375,0 0,-4.625 L 75,65.65625 61.4375,53.25 68.625,51.4375 54.96875,38.375 61.9375,36.5625 48.03125,21 47.96875,21 z M 48,22.84375 59.625,35.875 54.65625,37.15625 a 1.2520347,1.2520347 0 0 0 -0.5625,2.125 l 12,11.5 -4.96875,1.25 a 1.2520347,1.2520347 0 0 0 -0.53125,2.15625 l 11.75,10.75 -20.125,4.21875 a 1.2520347,1.2520347 0 0 0 -1,1.21875 l 0,3.375 -6.4375,0 0,-3.375 a 1.2520347,1.2520347 0 0 0 -1,-1.21875 l -20.125,-4.21875 11.75,-10.75 A 1.2520347,1.2520347 0 0 0 34.875,52.03125 l -4.96875,-1.25 12,-11.5 a 1.2520347,1.2520347 0 0 0 -0.5625,-2.125 L 36.375,35.875 48,22.84375 z" />
          <path
             style="opacity:0.2;fill:#4a1d00;fill-opacity:1;stroke:none"
             id="path3870"
             inkscape:connector-curvature="0"
             d="M 47.96875,21 34.0625,36.5625 41.03125,38.375 27.375,51.4375 34.5625,53.25 21,65.65625 43.53125,70.375 l 0,4.625 8.9375,0 0,-4.625 L 75,65.65625 61.4375,53.25 68.625,51.4375 54.96875,38.375 61.9375,36.5625 48.03125,21 47.96875,21 z M 48,22 60.6875,36.1875 54.78125,37.71875 A 0.69040329,0.69040329 0 0 0 54.5,38.875 l 12.75,12.21875 -5.96875,1.5 A 0.69040329,0.69040329 0 0 0 60.96875,53.75 l 12.5625,11.5 -21.21875,4.4375 a 0.69040329,0.69040329 0 0 0 -0.53125,0.6875 l 0,3.9375 -7.5625,0 0,-3.9375 A 0.69040329,0.69040329 0 0 0 43.6875,69.6875 L 22.46875,65.25 35.03125,53.75 a 0.69040329,0.69040329 0 0 0 -0.3125,-1.15625 L 28.75,51.09375 41.5,38.875 A 0.69040329,0.69040329 0 0 0 41.21875,37.71875 L 35.3125,36.1875 48,22 z" />
        </g>
      </g>
    </g>
  </g>
</svg>
