<?xml version="1.0" encoding="UTF-8" standalone="no"?>
<!-- Created with Inkscape (http://www.inkscape.org/) -->
<svg id="svg2982" xmlns:rdf="http://www.w3.org/1999/02/22-rdf-syntax-ns#" xmlns="http://www.w3.org/2000/svg" height="96" width="96" version="1.1" xmlns:cc="http://creativecommons.org/ns#" xmlns:xlink="http://www.w3.org/1999/xlink" xmlns:dc="http://purl.org/dc/elements/1.1/">
 <defs id="defs2984">
  <filter id="filter6279" color-interpolation-filters="sRGB">
   <feGaussianBlur id="feGaussianBlur6281" stdDeviation="0.8"/>
  </filter>
  <linearGradient id="linearGradient10902-1" y2="902.36" gradientUnits="userSpaceOnUse" x2="48" gradientTransform="translate(0 -.0000096172)" y1="1052.4" x1="48">
   <stop id="stop3679-0" offset="0"/>
   <stop id="stop3681-3" style="stop-color:#311e12" offset="1"/>
  </linearGradient>
  <linearGradient id="linearGradient3199-2" y2="64.022" gradientUnits="userSpaceOnUse" x2="48" y1="41" x1="48">
   <stop id="stop4144" style="stop-color:#f4a615" offset="0"/>
   <stop id="stop4146" style="stop-color:#f4a615;stop-opacity:0" offset="1"/>
  </linearGradient>
  <linearGradient id="linearGradient3196" y2="43" xlink:href="#linearGradient4052" spreadMethod="reflect" gradientUnits="userSpaceOnUse" x2="58" y1="43" x1="48"/>
  <linearGradient id="linearGradient4052">
   <stop id="stop4054" style="stop-color:#f4a615" offset="0"/>
   <stop id="stop4056" style="stop-color:#f47d15" offset="1"/>
  </linearGradient>
  <linearGradient id="linearGradient3162" y2="67" xlink:href="#linearGradient4052" gradientUnits="userSpaceOnUse" x2="48" y1="31.772" x1="48"/>
  <clipPath id="clipPath3613-56">
   <rect id="rect3615-8" style="fill:#fff" rx="6" ry="6" height="84" width="84" y="6" x="6"/>
  </clipPath>
  <filter id="filter3794-95" height="1.384" width="1.384" color-interpolation-filters="sRGB" y="-.192" x="-.192">
   <feGaussianBlur id="feGaussianBlur3796-52" stdDeviation="5.28"/>
  </filter>
 </defs>
 <metadata id="metadata2987">
  <rdf:RDF>
   <cc:Work rdf:about="">
    <dc:format>image/svg+xml</dc:format>
    <dc:type rdf:resource="http://purl.org/dc/dcmitype/StillImage"/>
    <dc:title/>
   </cc:Work>
  </rdf:RDF>
 </metadata>
 <g id="layer1" transform="translate(0 -956.36)">
  <g id="g5990" transform="translate(-182.19 -40.406)">
   <rect id="rect9283" style="filter:url(#filter6279)" transform="translate(182.19 40.406)" rx="5" ry="5" height="80" width="80" y="964.36" x="8"/>
   <rect id="rect9285" style="fill:url(#linearGradient10902-1)" transform="translate(182.19 40.406)" rx="5" ry="5" height="80" width="80" y="964.36" x="8"/>
   <g id="g6800">
    <g id="g3202" transform="translate(182.19 996.77)">
     <path id="rect4135" style="color:#000000;fill:url(#linearGradient3199-2)" d="m42 41v21h1v-21h-1zm4 0v21h1v-21h-1zm4 0v21h1v-21h-1zm4 0v21h1v-21h-1z"/>
     <rect id="rect4131" style="color:#000000;fill:url(#linearGradient3196)" height="2" width="20" y="42" x="38"/>
     <path id="path4150" style="opacity:.3" d="m32 33v7h3c0-5.4522 2.2504-4.1983 8-4 0 0-10 7-10 15 0 10.593 9.6704 13.789 14.406 13.969 0.20536 0.01793 0.42724 0.02686 0.6875 0.03125 0.21815-0.0055 0.41633-0.01575 0.59375-0.03125 4.735-0.18 14.406-3.376 14.406-13.969 0-8-10-15-10-15 5.7496-0.19826 8-1.4522 8 4h3v-7h-13v3c9.7148 8.2279 9.9862 26.915-3 27-0.027-0.002-0.07 0-0.094 0-12.986-0.085-12.715-18.772-3-27v-3h-13z"/>
     <path id="path4126" style="fill:url(#linearGradient3162)" d="m32 32v7h3c0-5.4522 2.2504-4.1983 8-4 0 0-10 7-10 15 0 10.593 9.6704 13.789 14.406 13.969 0.20536 0.01794 0.42724 0.02686 0.6875 0.03125 0.21815-0.0055 0.41633-0.01575 0.59375-0.03125 4.735-0.18 14.406-3.376 14.406-13.969 0-8-10-15-10-15 5.7496-0.19826 8-1.4522 8 4h3v-7h-13v3c9.7148 8.2279 9.9862 26.915-3 27-0.027-0.002-0.07 0-0.094 0-12.986-0.085-12.715-18.772-3-27v-3h-13z"/>
     <path id="path4178" style="opacity:.3;fill:#fff" d="m32 32v1h13v-1h-13zm19.094 0v1h13v-1h-13zm-9.3125 3.9375c-2.631 2.123-8.782 7.755-8.782 14.062 0 0.19235 0.02496 0.375 0.03125 0.5625 0.352-7.816 9.969-14.562 9.969-14.562-0.438-0.015-0.821-0.039-1.219-0.062zm12.531 0c-0.39798 0.02393-0.7807 0.0474-1.2188 0.0625 0 0 9.6169 6.7463 9.9688 14.562 0.0063-0.1875 0.03125-0.37015 0.03125-0.5625 0-6.3074-6.1509-11.939-8.7812-14.062zm-16.344 15.031c-0.188 6.4 2.947 11.985 10.031 12.031 0.02419 0.000185 0.06721-0.0023 0.09375 0 7.084-0.046 10.218-5.631 10.031-12.031-0.154 5.972-3.318 10.987-10.031 11.031-0.027-0.002-0.07 0-0.094 0-6.714-0.044-9.877-5.059-10.031-11.031z"/>
     <rect id="rect4187" style="color:#000000;fill:#ffda45" height="1" width="1" y="41" x="42"/>
     <rect id="rect4189" style="color:#000000;fill:#ffda45" height="1" width="1" y="41" x="46"/>
     <rect id="rect4191" style="color:#000000;fill:#ffda45" height="1" width="1" y="41" x="50"/>
     <rect id="rect4193" style="color:#000000;fill:#ffda45" height="1" width="1" y="41" x="54"/>
    </g>
    <g id="layer5" transform="translate(182.19 996.77)">
     <rect id="rect3171" style="opacity:.15;filter:url(#filter3794-95);stroke:#fff;stroke-linecap:round;stroke-width:.5;fill:#c87137" clip-path="url(#clipPath3613-56)" rx="12" ry="12" height="66" width="66" y="15" x="15"/>
    </g>
   </g>
  </g>
 </g>
</svg>
