<?xml version="1.0" encoding="UTF-8" standalone="no"?>
<!-- Created with Inkscape (http://www.inkscape.org/) -->
<svg id="svg2982" xmlns:rdf="http://www.w3.org/1999/02/22-rdf-syntax-ns#" xmlns="http://www.w3.org/2000/svg" height="96" width="96" version="1.1" xmlns:cc="http://creativecommons.org/ns#" xmlns:xlink="http://www.w3.org/1999/xlink" xmlns:dc="http://purl.org/dc/elements/1.1/">
 <defs id="defs2984">
  <filter id="filter6279" color-interpolation-filters="sRGB">
   <feGaussianBlur id="feGaussianBlur6281" stdDeviation="0.8"/>
  </filter>
  <linearGradient id="linearGradient10902-1" y2="902.36" gradientUnits="userSpaceOnUse" x2="48" gradientTransform="translate(0 -.0000096172)" y1="1052.4" x1="48">
   <stop id="stop3189-8" offset="0"/>
   <stop id="stop3191-6" style="stop-color:#515151" offset="1"/>
  </linearGradient>
  <radialGradient id="radialGradient3193" gradientUnits="userSpaceOnUse" cy="48" cx="48" gradientTransform="matrix(1.1429 0 0 .85714 -6.8571 3.8571)" r="28">
   <stop id="stop3808" style="stop-color:#f7e0c0" offset="0"/>
   <stop id="stop3810" style="stop-color:#b67e35" offset="1"/>
  </radialGradient>
  <linearGradient id="linearGradient3313-3" y2="138.66" gradientUnits="userSpaceOnUse" y1="20.221" x2="48" x1="48">
   <stop id="stop3739-2" style="stop-color:#fff" offset="0"/>
   <stop id="stop3741-74" style="stop-color:#fff;stop-opacity:0" offset="1"/>
  </linearGradient>
  <clipPath id="clipPath3613-10">
   <rect id="rect3615-06" style="fill:#fff" rx="6" ry="6" height="84" width="84" y="6" x="6"/>
  </clipPath>
  <filter id="filter3794-44" height="1.384" width="1.384" color-interpolation-filters="sRGB" y="-.192" x="-.192">
   <feGaussianBlur id="feGaussianBlur3796-37" stdDeviation="5.28"/>
  </filter>
 </defs>
 <metadata id="metadata2987">
  <rdf:RDF>
   <cc:Work rdf:about="">
    <dc:format>image/svg+xml</dc:format>
    <dc:type rdf:resource="http://purl.org/dc/dcmitype/StillImage"/>
    <dc:title/>
   </cc:Work>
  </rdf:RDF>
 </metadata>
 <g id="layer1" transform="translate(0 -956.36)">
  <g id="g5979" transform="translate(-182.19 -40.406)">
   <rect id="rect9283" style="filter:url(#filter6279)" transform="translate(182.19 40.406)" rx="5" ry="5" height="80" width="80" y="964.36" x="8"/>
   <rect id="rect9285" style="fill:url(#linearGradient10902-1)" transform="translate(182.19 40.406)" rx="5" ry="5" height="80" width="80" y="964.36" x="8"/>
   <g id="g6779">
    <g id="g3195" transform="matrix(.98214 0 0 .98214 183.04 998.05)">
     <rect id="rect3796" style="fill:url(#radialGradient3193)" rx="2" ry="2.1" height="48" width="56" y="24" x="20"/>
     <path id="path3355" style="fill:#915b22;fill-rule:evenodd" d="m67 48a19 19 0 0 1 -38 0 19 19 0 1 1 38 0z"/>
     <path id="path3357" style="fill:#bc8946;fill-rule:evenodd" d="m65 48a17 17 0 0 1 -34 0 17 17 0 1 1 34 0z"/>
     <path id="path3359" style="opacity:.6;fill:#d5c5aa;fill-rule:evenodd" d="m63 48a15 15 0 0 1 -30 0 15 15 0 1 1 30 0z"/>
     <path id="path3381" style="opacity:.6;fill:#f2ece2" d="m49.051 33.002a0.13574 0.1437 0 0 0 -0.0292 0.03091 0.13574 0.1437 0 0 0 -0.0292 0.03091 0.13574 0.1437 0 0 0 -0.0292 0.03091 0.13574 0.1437 0 0 0 -0.0292 0.03091 0.13574 0.1437 0 0 0 0 0.03091v7.0786 7.0477a0.13574 0.1437 0 0 0 0.0292 0.06182 0.13574 0.1437 0 0 0 0 0.03091 0.13574 0.1437 0 0 0 0.0292 0.03091 0.13574 0.1437 0 0 0 0.0292 0 0.13574 0.1437 0 0 0 0.0584 0.03091 0.13574 0.1437 0 0 0 0.0292 0 0.13574 0.1437 0 0 0 0.0292 -0.03091l0.78835-0.46366c1.8991-1.1244 4.5324-2.737 6.6864-4.0802 1.077-0.6716 2.0254-1.286 2.7154-1.731 0.34503-0.22249 0.62456-0.3941 0.81755-0.52548 0.0965-0.06569 0.18016-0.11446 0.23359-0.15456 0.02671-0.02005 0.04024-0.0457 0.0584-0.06182 0.0091-0.0081 0.01883-0.01886 0.0292-0.03091 0.0052-0.006 0.02164 0.01285 0.0292 0 0.0037-0.0064-0.000212-0.03033 0-0.03091 0.000212-0.000583 0.02919-0.06137 0.0292-0.06182 0.0018-0.09916-0.04459-0.16115-0.0876-0.24729s-0.10162-0.19387-0.17519-0.30911c-0.145-0.231-0.349-0.498-0.581-0.804-0.465-0.612-1.048-1.293-1.519-1.762-2.158-2.149-5.022-3.621-7.737-3.926-0.38-0.042-0.824-0.121-0.993-0.154l-0.32118-0.06182a0.13574 0.1437 0 0 0 -0.0292 0 0.13574 0.1437 0 0 0 -0.0292 0z"/>
     <path id="path3361" style="opacity:.5;stroke-linejoin:round;stroke:#2b1100;fill:none" d="m59.5 48c0 6.348-5.152 11.5-11.5 11.5s-11.5-5.152-11.5-11.5 5.152-11.5 11.5-11.5 11.5 5.152 11.5 11.5z"/>
     <path id="path3363" style="opacity:.5;fill:#2b1100;fill-rule:evenodd" d="m48 24v48h1v-48h-1z"/>
     <path id="path3369" style="opacity:.5;fill:#2b1100;fill-rule:evenodd" d="m76 47h-56v1h56v-1z"/>
     <path id="path3374" style="opacity:.5;fill:#2b1100;fill-rule:evenodd" d="m60.937 40.312-13.312 7.688l0.375 0.65625 13.359-7.7109c-0.15-0.204-0.298-0.413-0.422-0.633z"/>
     <g id="text3865" style="fill:#20130b" transform="matrix(1.6856 0 0 1.6856 -33.044 -39.962)">
      <path id="path3870" style="fill:#20130b" d="m51.307 54.001c-0.000007 0.936-0.30801 1.668-0.924 2.196-0.584 0.488-1.352 0.732-2.304 0.732-0.936-0.000001-1.696-0.244-2.28-0.732-0.632-0.52-0.948-1.236-0.948-2.148-0.000001-0.152 0.008-0.304 0.024-0.456h2.208c-0.024 0.128-0.036 0.252-0.036 0.372-0.000003 0.328 0.092 0.592 0.276 0.792s0.44 0.3 0.768 0.3c0.312 0.000001 0.564-0.108 0.756-0.324 0.192-0.224 0.288-0.492 0.288-0.804-0.000005-0.336-0.108-0.604-0.324-0.804-0.208-0.2-0.48-0.296-0.816-0.288v-1.62c0.312 0.008 0.572-0.07999 0.78-0.264 0.216-0.18399 0.324-0.42799 0.324-0.732-0.000005-0.29599-0.096-0.53599-0.288-0.72-0.192-0.18399-0.436-0.27599-0.732-0.276-0.296 0.000007-0.536 0.08801-0.72 0.264-0.176 0.16801-0.272 0.39601-0.288 0.684h-2.028c-0.000001-0.83999 0.296-1.512 0.888-2.016 0.56-0.47999 1.268-0.71999 2.124-0.72 0.84 0.000009 1.548 0.23601 2.124 0.708 0.62399 0.49601 0.93599 1.156 0.936 1.98-0.000007 0.832-0.30401 1.444-0.912 1.836 0.73599 0.408 1.104 1.088 1.104 2.04"/>
     </g>
    </g>
    <rect id="rect3171" style="opacity:.1;filter:url(#filter3794-44);stroke:#fff;stroke-linecap:round;stroke-width:.5;fill:url(#linearGradient3313-3)" clip-path="url(#clipPath3613-10)" rx="12" transform="translate(182.19 996.77)" ry="12" width="66" y="15" x="15" height="66"/>
   </g>
  </g>
 </g>
</svg>
