<?xml version="1.0" encoding="UTF-8" standalone="no"?>
<!-- Created with Inkscape (http://www.inkscape.org/) -->
<svg id="svg2982" xmlns:rdf="http://www.w3.org/1999/02/22-rdf-syntax-ns#" xmlns="http://www.w3.org/2000/svg" height="96" width="96" version="1.1" xmlns:cc="http://creativecommons.org/ns#" xmlns:xlink="http://www.w3.org/1999/xlink" xmlns:dc="http://purl.org/dc/elements/1.1/">
 <defs id="defs2984">
  <filter id="filter6279-2" color-interpolation-filters="sRGB">
   <feGaussianBlur id="feGaussianBlur6281-1" stdDeviation="0.8"/>
  </filter>
  <linearGradient id="linearGradient9181" y2="902.36" gradientUnits="userSpaceOnUse" x2="48" gradientTransform="translate(0 -.0000078516)" y1="1052.4" x1="48">
   <stop id="stop3616" style="stop-color:#c8c4b7" offset="0"/>
   <stop id="stop3618" style="stop-color:#e3e2db" offset="1"/>
  </linearGradient>
  <linearGradient id="linearGradient7601" y2="5.9877" gradientUnits="userSpaceOnUse" x2="48" y1="90" x1="48">
   <stop id="stop3616-8" style="stop-color:#c8c4b7" offset="0"/>
   <stop id="stop3618-8" style="stop-color:#e3e2db" offset="1"/>
  </linearGradient>
  <filter id="filter3903" height="2.3636" width="1.0921" color-interpolation-filters="sRGB" y="-.68178" x="-.046066">
   <feGaussianBlur id="feGaussianBlur3905" stdDeviation="1.4203751"/>
  </filter>
  <linearGradient id="linearGradient7603" y2="48" gradientUnits="userSpaceOnUse" x2="48" y1="8" x1="48">
   <stop id="stop3891-9" style="stop-color:#a49e89" offset="0"/>
   <stop id="stop3893-2" style="stop-color:#fff" offset="1"/>
  </linearGradient>
  <linearGradient id="linearGradient7605" y2="42" gradientUnits="userSpaceOnUse" x2="48" y1="14" x1="48">
   <stop id="stop3723-8" style="stop-color:#949494" offset="0"/>
   <stop id="stop3731-6" style="stop-color:#aeaeae" offset=".19547"/>
   <stop id="stop3729-8" style="stop-color:#828282" offset=".66360"/>
   <stop id="stop3725-3" style="stop-color:#4d4d4d" offset="1"/>
  </linearGradient>
  <linearGradient id="linearGradient7607" y2="28" spreadMethod="reflect" gradientUnits="userSpaceOnUse" x2="48" y1="28" x1="41.844">
   <stop id="stop3737" offset="0"/>
   <stop id="stop3744-8" style="stop-opacity:.16279" offset=".5"/>
   <stop id="stop3740-3" style="stop-opacity:0" offset="1"/>
  </linearGradient>
  <radialGradient id="radialGradient7609" xlink:href="#linearGradient3737-38" gradientUnits="userSpaceOnUse" cy="19.5" cx="48" gradientTransform="matrix(1 0 0 .1 0 36.55)" r="5"/>
  <linearGradient id="linearGradient3737-38">
   <stop id="stop3739-04" style="stop-color:#fff" offset="0"/>
   <stop id="stop3741-76" style="stop-color:#fff;stop-opacity:0" offset="1"/>
  </linearGradient>
  <radialGradient id="radialGradient7611" xlink:href="#linearGradient3737-38" gradientUnits="userSpaceOnUse" cy="19.5" cx="48" gradientTransform="matrix(1 0 0 .1 0 33.55)" r="5"/>
  <radialGradient id="radialGradient7613" xlink:href="#linearGradient3737-38" gradientUnits="userSpaceOnUse" cy="19.5" cx="48" gradientTransform="matrix(1 0 0 .1 0 30.55)" r="5"/>
  <radialGradient id="radialGradient7615" xlink:href="#linearGradient3737-38" gradientUnits="userSpaceOnUse" cy="19.5" cx="48" gradientTransform="matrix(1 0 0 .1 0 27.55)" r="5"/>
  <radialGradient id="radialGradient7617" xlink:href="#linearGradient3737-38" gradientUnits="userSpaceOnUse" cy="19.5" cx="48" gradientTransform="matrix(1 0 0 .1 0 24.55)" r="5"/>
  <radialGradient id="radialGradient7619" xlink:href="#linearGradient3737-38" gradientUnits="userSpaceOnUse" cy="19.5" cx="48" gradientTransform="matrix(1 0 0 .1 0 21.55)" r="5"/>
  <radialGradient id="radialGradient7621" xlink:href="#linearGradient3737-38" gradientUnits="userSpaceOnUse" cy="19.5" cx="48" gradientTransform="matrix(1 0 0 .1 0 18.55)" r="5"/>
  <radialGradient id="radialGradient7623" xlink:href="#linearGradient3737-38" gradientUnits="userSpaceOnUse" cy="19.5" cx="48" gradientTransform="matrix(1 0 0 .1 0 15.55)" r="5"/>
  <radialGradient id="radialGradient7625" xlink:href="#linearGradient3837" gradientUnits="userSpaceOnUse" cy="37.5" cx="48" gradientTransform="matrix(1 0 0 .1 0 33.75)" r="5"/>
  <linearGradient id="linearGradient3837">
   <stop id="stop3839" offset="0"/>
   <stop id="stop3841" style="stop-opacity:0" offset="1"/>
  </linearGradient>
  <radialGradient id="radialGradient7627" xlink:href="#linearGradient3837" gradientUnits="userSpaceOnUse" cy="37.5" cx="48" gradientTransform="matrix(1 0 0 .1 0 30.75)" r="5"/>
  <radialGradient id="radialGradient7629" xlink:href="#linearGradient3837" gradientUnits="userSpaceOnUse" cy="37.5" cx="48" gradientTransform="matrix(1 0 0 .1 0 27.75)" r="5"/>
  <radialGradient id="radialGradient7631" xlink:href="#linearGradient3837" gradientUnits="userSpaceOnUse" cy="37.5" cx="48" gradientTransform="matrix(1 0 0 .1 0 24.75)" r="5"/>
  <radialGradient id="radialGradient7633" xlink:href="#linearGradient3837" gradientUnits="userSpaceOnUse" cy="37.5" cx="48" gradientTransform="matrix(1 0 0 .1 0 21.75)" r="5"/>
  <radialGradient id="radialGradient7635" xlink:href="#linearGradient3837" gradientUnits="userSpaceOnUse" cy="37.5" cx="48" gradientTransform="matrix(1 0 0 .1 0 18.75)" r="5"/>
  <radialGradient id="radialGradient7637" xlink:href="#linearGradient3837" gradientUnits="userSpaceOnUse" cy="37.5" cx="48" gradientTransform="matrix(1 0 0 .1 0 15.75)" r="5"/>
  <radialGradient id="radialGradient7639" xlink:href="#linearGradient3837" gradientUnits="userSpaceOnUse" cy="37.5" cx="48" gradientTransform="matrix(1 0 0 .1 0 12.75)" r="5"/>
  <linearGradient id="linearGradient7641" y2="8" xlink:href="#linearGradient3688-7" gradientUnits="userSpaceOnUse" x2="16" y1="88" x1="16"/>
  <linearGradient id="linearGradient3688-7">
   <stop id="stop3690-9" style="stop-color:#333" offset="0"/>
   <stop id="stop3692-6" style="stop-color:#595959" offset="1"/>
  </linearGradient>
  <linearGradient id="linearGradient7643" y2="8" xlink:href="#linearGradient3688-7" gradientUnits="userSpaceOnUse" x2="16" gradientTransform="matrix(-1,0,0,1,96,0)" y1="88" x1="16"/>
  <linearGradient id="linearGradient7645" y2="64" xlink:href="#linearGradient3737-38" gradientUnits="userSpaceOnUse" x2="40" y1="8" x1="40"/>
  <radialGradient id="radialGradient7649" xlink:href="#linearGradient3837" gradientUnits="userSpaceOnUse" cy="64.19" cx="93.667" gradientTransform="matrix(1.4118 0 -2.3529e-8 4.7059 10.375 629.88)" r="17"/>
  <radialGradient id="radialGradient7651" xlink:href="#linearGradient3837" gradientUnits="userSpaceOnUse" cy="76.396" cx="7.2183" gradientTransform="matrix(-.94118 -1.4641e-7 -4.3924e-7 2.8235 141.4 716.24)" r="17"/>
  <radialGradient id="radialGradient7653" xlink:href="#linearGradient3837" gradientUnits="userSpaceOnUse" cy="64.19" cx="93.667" gradientTransform="matrix(-1.4118 0 2.3529e-8 4.7059 178.85 629.88)" r="17"/>
  <radialGradient id="radialGradient7655" xlink:href="#linearGradient3837" gradientUnits="userSpaceOnUse" cy="76.396" cx="7.2183" gradientTransform="matrix(.94118 -1.4641e-7 4.3924e-7 2.8235 47.817 716.24)" r="17"/>
 </defs>
 <metadata id="metadata2987">
  <rdf:RDF>
   <cc:Work rdf:about="">
    <dc:format>image/svg+xml</dc:format>
    <dc:type rdf:resource="http://purl.org/dc/dcmitype/StillImage"/>
    <dc:title/>
   </cc:Work>
  </rdf:RDF>
 </metadata>
 <g id="layer1" transform="translate(0 -956.36)">
  <g id="g7657">
   <rect id="rect9283" ry="5" style="filter:url(#filter6279-2)" rx="5" transform="translate(0 -.0000078516)" height="80" width="80" y="964.36" x="8"/>
   <rect id="rect9285" style="opacity:0.86;fill:url(#linearGradient9181)" rx="5" ry="5" height="80" width="80" y="964.36" x="8"/>
   <g id="g7507" transform="matrix(.65476 0 0 .65476 -13.947 420.35)">
    <g id="layer1-4" transform="translate(46.611 843.95)">
     <g id="g3154">
      <path id="rect2419" style="fill:url(#linearGradient7601)" d="m21 6c-2.7614 0-5 2.2386-5 5v7 14c0 14.107 10 24 10 44v14h44v-14c0-20 10-29.893 10-44v-14-7c0-2.7614-2.239-5-5-5h-1-5-40-7-1zm63 0c0.20775 0 0.42281 0.010839 0.625 0.03125 0.47885 0.048339 0.93709 0.15905 1.375 0.3125v-0.3438h-2z"/>
      <path id="path4051" style="opacity:.6;block-progression:tb;text-indent:0;color:#000000;text-transform:none;fill:#fff" d="m45.606 6v46.938 0.03125c0.000079 0.01112 0 0.03722 0 0.03125 0 1.1368 0.95694 2.0938 2.0938 2.0938 1.1368 0 2.0938-0.95694 2.0938-2.0938 0 0.006-0.000079-0.02013 0-0.03125s0.000863-0.0041 0-0.03125v-46.938h-4.1875z"/>
      <rect id="rect3897" style="opacity:.2;filter:url(#filter3903);fill:#fff" transform="matrix(1 0 0 2.252 0 -7.8374)" rx="8" ry="2.5" height="5" width="74" y="11" x="11"/>
      <path id="path3879" style="opacity:.9;fill:url(#linearGradient7603)" d="m48 9.9688c-5.53 0-10.031 4.5012-10.031 10.031v16c0 5.5299 4.5014 10.031 10.031 10.031 5.5299 0 10.031-4.5014 10.031-10.031v-16c0-5.53-4.501-10.031-10.031-10.031z"/>
      <path id="path3711" style="opacity:.9;block-progression:tb;text-indent:0;color:#000000;text-transform:none" d="m46.7 6v46.969c-0.000342 0.01075 0 0.02042 0 0.03125 0 0.55228 0.44772 1 1 1s1-0.44772 1-1c0-0.01083 0.000342-0.0205 0-0.03125v-46.969h-2z"/>
      <rect id="rect3713" style="opacity:.9" rx="8" ry="8" height="32" width="16" y="12" x="40"/>
      <path id="path3719" style="opacity:0.99;fill:url(#linearGradient7605)" d="m48 13.844c-3.4393 0-6.1562 2.7169-6.1562 6.1562v16c0 3.4393 2.7169 6.1562 6.1562 6.1562s6.1562-2.7169 6.1562-6.1562v-16c0-3.4393-2.7169-6.1562-6.1562-6.1562z"/>
      <path id="path3733" style="opacity:.5;fill:url(#linearGradient7607)" d="m48 13.844c-3.4393 0-6.1562 2.7169-6.1562 6.1562v16c0 3.4393 2.7169 6.1562 6.1562 6.1562s6.1562-2.7169 6.1562-6.1562v-16c0-3.4393-2.7169-6.1562-6.1562-6.1562z"/>
      <rect id="rect3789" style="opacity:.4;fill:url(#radialGradient7609)" height="1" width="10" y="38" x="43"/>
      <rect id="rect3805" style="opacity:.4;fill:url(#radialGradient7611)" height="1" width="10" y="35" x="43"/>
      <rect id="rect3809" style="opacity:.4;fill:url(#radialGradient7613)" height="1" width="10" y="32" x="43"/>
      <rect id="rect3813" style="opacity:.4;fill:url(#radialGradient7615)" height="1" width="10" y="29" x="43"/>
      <rect id="rect3817" style="opacity:.4;fill:url(#radialGradient7617)" height="1" width="10" y="26" x="43"/>
      <rect id="rect3821" style="opacity:.4;fill:url(#radialGradient7619)" height="1" width="10" y="23" x="43"/>
      <rect id="rect3825" style="opacity:.4;fill:url(#radialGradient7621)" height="1" width="10" y="20" x="43"/>
      <rect id="rect3829" style="opacity:.4;fill:url(#radialGradient7623)" height="1" width="10" y="17" x="43"/>
      <rect id="rect3833" style="opacity:.6;fill:url(#radialGradient7625)" height="1" width="10" y="37" x="43"/>
      <rect id="rect3845" style="opacity:.6;fill:url(#radialGradient7627)" height="1" width="10" y="34" x="43"/>
      <rect id="rect3849" style="opacity:.6;fill:url(#radialGradient7629)" height="1" width="10" y="31" x="43"/>
      <rect id="rect3853" style="opacity:.4;fill:url(#radialGradient7631)" height="1" width="10" y="28" x="43"/>
      <rect id="rect3857" style="opacity:.6;fill:url(#radialGradient7633)" height="1" width="10" y="25" x="43"/>
      <rect id="rect3861" style="opacity:.6;fill:url(#radialGradient7635)" height="1" width="10" y="22" x="43"/>
      <rect id="rect3865" style="opacity:.6;fill:url(#radialGradient7637)" height="1" width="10" y="19" x="43"/>
      <rect id="rect3869" style="opacity:.6;fill:url(#radialGradient7639)" height="1" width="10" y="16" x="43"/>
      <path id="path3942" style="fill:url(#linearGradient7641)" d="m12 6c-3.324 0-6 2.676-6 6v4 16c0 15.18 5 20.149 5 40v12c0 3.3137 2.6863 6 6 6h9v-14c0-20-10-29.893-10-44v-21c0-2.7614 2.2386-5 5-5h-5-4z"/>
      <path id="path3984" style="fill:url(#linearGradient7643)" d="m75 6c2.7614 0 5 2.2386 5 5v21c0 14.107-10 24-10 44v14h9c3.3137 0 6-2.6863 6-6v-12c0-19.851 5-24.82 5-40v-16-4c0-3.1162-2.342-5.6626-5.375-5.9688-0.202-0.0204-0.417-0.0312-0.625-0.0312h-9z"/>
      <path id="path3988" style="opacity:.6;fill:#fff" d="m21 6c-2.7614 0-5 2.2386-5 5v21c0 14.107 10 24 10 44v14h1v-14c0-20-10-29.893-10-44v-21c0-2.7614 2.2386-5 5-5h-1z"/>
      <path id="path3998" style="opacity:.6;fill:#fff" d="m75 6c2.7614 0 5 2.2386 5 5v21c0 14.107-10 24-10 44v14h-1v-14c0-20 10-29.893 10-44v-21c0-2.7614-2.239-5-5-5h1z"/>
      <path id="path3785" style="opacity:.5;fill:url(#linearGradient7645)" d="m22 6c-1.7976 0-3.4022 0.7867-4.5 2.0312h61c-1.098-1.2445-2.702-2.0312-4.5-2.0312h-52zm-0.625 83.969c0.202 0.02 0.417 0.031 0.625 0.031h52c0.20775 0 0.42281-0.01084 0.625-0.03125h-53.25z"/>
      <path id="path3670" style="opacity:.25;fill:url(#linearGradient7645)" d="m12 6c-3.324 0-6 2.676-6 6v4 16c0 15.18 5 20.149 5 40v12c0 3.3137 2.6863 6 6 6h9v-0.03125h-9c-2.7629 0-4.9688-2.2059-4.9688-4.9688v-12c0-10.011-1.278-16.333-2.531-21.969-1.2532-5.636-2.4688-10.553-2.4688-18.031v-16-4c0-2.777 2.1918-4.9688 4.9688-4.9688h5c0.912-1.2192 2.36-2.0312 4-2.0312h-5-4zm63 0c1.6396 0 3.0882 0.81202 4 2.0312h5c2.777 0 4.9688 2.1918 4.9688 4.9688v4 16c0 7.4779-1.2155 12.395-2.4688 18.031-1.253 5.636-2.531 11.958-2.531 21.969v12c0 2.7629-2.2059 4.9688-4.9688 4.9688h-9v0.03125h9c0.62132 0 1.2176-0.10594 1.7812-0.28125 2.443-0.76 4.219-3.027 4.219-5.719v-12c0-19.851 5-24.82 5-40v-16-4c0-0.21614-0.0093-0.4149-0.03125-0.625-0.0171-0.1694-0.03171-0.33514-0.0625-0.5-0.006-0.031-0.025-0.063-0.031-0.094-0.033-0.162-0.079-0.311-0.125-0.469-0.009-0.031-0.022-0.062-0.031-0.093-0.045-0.144-0.07-0.2985-0.125-0.4378-0.017-0.0435-0.045-0.0819-0.063-0.125-0.052-0.1241-0.096-0.2553-0.156-0.375-0.027-0.0541-0.065-0.1031-0.094-0.1562-0.059-0.1099-0.121-0.2069-0.187-0.3125-0.036-0.0574-0.088-0.1002-0.125-0.1563-0.021-0.0308-0.041-0.0632-0.063-0.0937-0.09-0.1296-0.181-0.2532-0.281-0.375-0.061-0.074-0.123-0.1478-0.187-0.2187-0.173-0.1902-0.368-0.3648-0.563-0.5313-0.022-0.019-0.04-0.0438-0.063-0.0625-0.148-0.1221-0.309-0.2361-0.468-0.3438-0.052-0.0347-0.104-0.0605-0.156-0.0937-0.11-0.0686-0.199-0.1571-0.313-0.2187-0.04-0.022-0.084-0.0415-0.125-0.0626-0.132-0.0677-0.268-0.1295-0.406-0.1874-0.03-0.0127-0.064-0.0192-0.094-0.0313-0.149-0.0596-0.314-0.1085-0.469-0.1563-0.022-0.0068-0.04-0.0246-0.062-0.0312-0.168-0.0496-0.327-0.0899-0.5-0.125-0.01-0.002-0.021 0.002-0.031 0-0.184-0.0362-0.373-0.0746-0.563-0.0938-0.202-0.0204-0.417-0.0312-0.625-0.0312h-9z"/>
     </g>
    </g>
    <path id="rect3973" style="opacity:.5;fill:url(#radialGradient7649)" d="m102.61 849.95v84h23c3.3137 0 6-2.6863 6-6v-12c0-19.851 5-24.82 5-40v-16-4c0-3.324-2.676-6-6-6h-28z"/>
    <path id="path3986" style="opacity:.9;fill:url(#radialGradient7651)" d="m136.61 875.95c0 15.18-5 20.149-5 40v12c0 3.3137-2.6863 6-6 6h-23v-58h34z"/>
    <path id="path3990" style="opacity:.5;fill:url(#radialGradient7653)" d="m86.611 849.95v84h-23c-3.3137 0-6-2.6863-6-6v-12c0-19.851-5-24.82-5-40v-16-4c0-3.324 2.676-6 6-6h28z"/>
    <path id="path3992" style="opacity:.9;fill:url(#radialGradient7655)" d="m52.611 875.95c0 15.18 5 20.149 5 40v12c0 3.3137 2.6863 6 6 6h23v-58h-34z"/>
   </g>
  </g>
 </g>
</svg>
