<?xml version="1.0" encoding="UTF-8" standalone="no"?>
<!-- Created with Inkscape (http://www.inkscape.org/) -->

<svg
   xmlns:dc="http://purl.org/dc/elements/1.1/"
   xmlns:cc="http://creativecommons.org/ns#"
   xmlns:rdf="http://www.w3.org/1999/02/22-rdf-syntax-ns#"
   xmlns:svg="http://www.w3.org/2000/svg"
   xmlns="http://www.w3.org/2000/svg"
   xmlns:xlink="http://www.w3.org/1999/xlink"
   xmlns:sodipodi="http://sodipodi.sourceforge.net/DTD/sodipodi-0.dtd"
   xmlns:inkscape="http://www.inkscape.org/namespaces/inkscape"
   width="96"
   height="96"
   id="svg2982"
   version="1.1"
   inkscape:version="0.48.1 r9760"
   sodipodi:docname="preferences-desktop-peripherals.svg">
  <defs
     id="defs2984">
    <filter
       color-interpolation-filters="sRGB"
       inkscape:collect="always"
       id="filter6279-2">
      <feGaussianBlur
         inkscape:collect="always"
         stdDeviation="0.8"
         id="feGaussianBlur6281-1" />
    </filter>
    <linearGradient
       inkscape:collect="always"
       xlink:href="#linearGradient3614"
       id="linearGradient9181"
       gradientUnits="userSpaceOnUse"
       gradientTransform="translate(0,-7.8515622e-6)"
       x1="48"
       y1="1052.3622"
       x2="48"
       y2="902.36218" />
    <linearGradient
       id="linearGradient3614">
      <stop
         id="stop3616"
         style="stop-color:#c8c4b7;stop-opacity:1"
         offset="0" />
      <stop
         id="stop3618"
         style="stop-color:#e3e2db;stop-opacity:1"
         offset="1" />
    </linearGradient>
    <linearGradient
       inkscape:collect="always"
       xlink:href="#linearGradient3614-2"
       id="linearGradient7601"
       gradientUnits="userSpaceOnUse"
       x1="48"
       y1="90"
       x2="48"
       y2="5.9877172" />
    <linearGradient
       id="linearGradient3614-2">
      <stop
         id="stop3616-8"
         style="stop-color:#c8c4b7;stop-opacity:1"
         offset="0" />
      <stop
         id="stop3618-8"
         style="stop-color:#e3e2db;stop-opacity:1"
         offset="1" />
    </linearGradient>
    <filter
       x="-0.046066221"
       y="-0.68178004"
       width="1.0921324"
       height="2.3635602"
       color-interpolation-filters="sRGB"
       id="filter3903">
      <feGaussianBlur
         id="feGaussianBlur3905"
         stdDeviation="1.4203751" />
    </filter>
    <linearGradient
       inkscape:collect="always"
       xlink:href="#linearGradient3889"
       id="linearGradient7603"
       gradientUnits="userSpaceOnUse"
       x1="48"
       y1="8"
       x2="48"
       y2="48" />
    <linearGradient
       id="linearGradient3889">
      <stop
         id="stop3891-9"
         style="stop-color:#a49e89;stop-opacity:1"
         offset="0" />
      <stop
         id="stop3893-2"
         style="stop-color:#ffffff;stop-opacity:1"
         offset="1" />
    </linearGradient>
    <linearGradient
       inkscape:collect="always"
       xlink:href="#linearGradient3721-8"
       id="linearGradient7605"
       gradientUnits="userSpaceOnUse"
       x1="48"
       y1="14"
       x2="48"
       y2="42" />
    <linearGradient
       id="linearGradient3721-8">
      <stop
         id="stop3723-8"
         style="stop-color:#949494;stop-opacity:1"
         offset="0" />
      <stop
         id="stop3731-6"
         style="stop-color:#aeaeae;stop-opacity:1"
         offset="0.19546634" />
      <stop
         id="stop3729-8"
         style="stop-color:#828282;stop-opacity:1"
         offset="0.66360098" />
      <stop
         id="stop3725-3"
         style="stop-color:#4d4d4d;stop-opacity:1"
         offset="1" />
    </linearGradient>
    <linearGradient
       inkscape:collect="always"
       xlink:href="#linearGradient3735"
       id="linearGradient7607"
       gradientUnits="userSpaceOnUse"
       spreadMethod="reflect"
       x1="41.84375"
       y1="28"
       x2="48"
       y2="28" />
    <linearGradient
       id="linearGradient3735">
      <stop
         id="stop3737"
         style="stop-color:#000000;stop-opacity:1"
         offset="0" />
      <stop
         id="stop3744-8"
         style="stop-color:#000000;stop-opacity:0.1627907"
         offset="0.5" />
      <stop
         id="stop3740-3"
         style="stop-color:#000000;stop-opacity:0"
         offset="1" />
    </linearGradient>
    <radialGradient
       inkscape:collect="always"
       xlink:href="#linearGradient3737-38"
       id="radialGradient7609"
       gradientUnits="userSpaceOnUse"
       gradientTransform="matrix(1,0,0,0.1,0,36.55)"
       cx="48"
       cy="19.5"
       fx="48"
       fy="19.5"
       r="5" />
    <linearGradient
       id="linearGradient3737-38">
      <stop
         id="stop3739-04"
         style="stop-color:#ffffff;stop-opacity:1"
         offset="0" />
      <stop
         id="stop3741-76"
         style="stop-color:#ffffff;stop-opacity:0"
         offset="1" />
    </linearGradient>
    <radialGradient
       inkscape:collect="always"
       xlink:href="#linearGradient3737-38"
       id="radialGradient7611"
       gradientUnits="userSpaceOnUse"
       gradientTransform="matrix(1,0,0,0.1,0,33.55)"
       cx="48"
       cy="19.5"
       fx="48"
       fy="19.5"
       r="5" />
    <linearGradient
       id="linearGradient6270">
      <stop
         id="stop6272"
         style="stop-color:#ffffff;stop-opacity:1"
         offset="0" />
      <stop
         id="stop6274"
         style="stop-color:#ffffff;stop-opacity:0"
         offset="1" />
    </linearGradient>
    <radialGradient
       inkscape:collect="always"
       xlink:href="#linearGradient3737-38"
       id="radialGradient7613"
       gradientUnits="userSpaceOnUse"
       gradientTransform="matrix(1,0,0,0.1,0,30.55)"
       cx="48"
       cy="19.5"
       fx="48"
       fy="19.5"
       r="5" />
    <linearGradient
       id="linearGradient6277">
      <stop
         id="stop6279"
         style="stop-color:#ffffff;stop-opacity:1"
         offset="0" />
      <stop
         id="stop6281"
         style="stop-color:#ffffff;stop-opacity:0"
         offset="1" />
    </linearGradient>
    <radialGradient
       inkscape:collect="always"
       xlink:href="#linearGradient3737-38"
       id="radialGradient7615"
       gradientUnits="userSpaceOnUse"
       gradientTransform="matrix(1,0,0,0.1,0,27.55)"
       cx="48"
       cy="19.5"
       fx="48"
       fy="19.5"
       r="5" />
    <linearGradient
       id="linearGradient6284">
      <stop
         id="stop6286"
         style="stop-color:#ffffff;stop-opacity:1"
         offset="0" />
      <stop
         id="stop6288"
         style="stop-color:#ffffff;stop-opacity:0"
         offset="1" />
    </linearGradient>
    <radialGradient
       inkscape:collect="always"
       xlink:href="#linearGradient3737-38"
       id="radialGradient7617"
       gradientUnits="userSpaceOnUse"
       gradientTransform="matrix(1,0,0,0.1,0,24.55)"
       cx="48"
       cy="19.5"
       fx="48"
       fy="19.5"
       r="5" />
    <linearGradient
       id="linearGradient6291">
      <stop
         id="stop6293"
         style="stop-color:#ffffff;stop-opacity:1"
         offset="0" />
      <stop
         id="stop6295"
         style="stop-color:#ffffff;stop-opacity:0"
         offset="1" />
    </linearGradient>
    <radialGradient
       inkscape:collect="always"
       xlink:href="#linearGradient3737-38"
       id="radialGradient7619"
       gradientUnits="userSpaceOnUse"
       gradientTransform="matrix(1,0,0,0.1,0,21.55)"
       cx="48"
       cy="19.5"
       fx="48"
       fy="19.5"
       r="5" />
    <linearGradient
       id="linearGradient6298">
      <stop
         id="stop6300"
         style="stop-color:#ffffff;stop-opacity:1"
         offset="0" />
      <stop
         id="stop6302"
         style="stop-color:#ffffff;stop-opacity:0"
         offset="1" />
    </linearGradient>
    <radialGradient
       inkscape:collect="always"
       xlink:href="#linearGradient3737-38"
       id="radialGradient7621"
       gradientUnits="userSpaceOnUse"
       gradientTransform="matrix(1,0,0,0.1,0,18.55)"
       cx="48"
       cy="19.5"
       fx="48"
       fy="19.5"
       r="5" />
    <linearGradient
       id="linearGradient6305">
      <stop
         id="stop6307"
         style="stop-color:#ffffff;stop-opacity:1"
         offset="0" />
      <stop
         id="stop6309"
         style="stop-color:#ffffff;stop-opacity:0"
         offset="1" />
    </linearGradient>
    <radialGradient
       inkscape:collect="always"
       xlink:href="#linearGradient3737-38"
       id="radialGradient7623"
       gradientUnits="userSpaceOnUse"
       gradientTransform="matrix(1,0,0,0.1,0,15.55)"
       cx="48"
       cy="19.5"
       fx="48"
       fy="19.5"
       r="5" />
    <linearGradient
       id="linearGradient6312">
      <stop
         id="stop6314"
         style="stop-color:#ffffff;stop-opacity:1"
         offset="0" />
      <stop
         id="stop6316"
         style="stop-color:#ffffff;stop-opacity:0"
         offset="1" />
    </linearGradient>
    <radialGradient
       inkscape:collect="always"
       xlink:href="#linearGradient3837"
       id="radialGradient7625"
       gradientUnits="userSpaceOnUse"
       gradientTransform="matrix(1,0,0,0.1,0,33.75)"
       cx="48"
       cy="37.5"
       fx="48"
       fy="37.5"
       r="5" />
    <linearGradient
       id="linearGradient3837">
      <stop
         id="stop3839"
         style="stop-color:#000000;stop-opacity:1"
         offset="0" />
      <stop
         id="stop3841"
         style="stop-color:#000000;stop-opacity:0"
         offset="1" />
    </linearGradient>
    <radialGradient
       inkscape:collect="always"
       xlink:href="#linearGradient3837"
       id="radialGradient7627"
       gradientUnits="userSpaceOnUse"
       gradientTransform="matrix(1,0,0,0.1,0,30.75)"
       cx="48"
       cy="37.5"
       fx="48"
       fy="37.5"
       r="5" />
    <linearGradient
       id="linearGradient6323">
      <stop
         id="stop6325"
         style="stop-color:#000000;stop-opacity:1"
         offset="0" />
      <stop
         id="stop6327"
         style="stop-color:#000000;stop-opacity:0"
         offset="1" />
    </linearGradient>
    <radialGradient
       inkscape:collect="always"
       xlink:href="#linearGradient3837"
       id="radialGradient7629"
       gradientUnits="userSpaceOnUse"
       gradientTransform="matrix(1,0,0,0.1,0,27.75)"
       cx="48"
       cy="37.5"
       fx="48"
       fy="37.5"
       r="5" />
    <linearGradient
       id="linearGradient6330">
      <stop
         id="stop6332"
         style="stop-color:#000000;stop-opacity:1"
         offset="0" />
      <stop
         id="stop6334"
         style="stop-color:#000000;stop-opacity:0"
         offset="1" />
    </linearGradient>
    <radialGradient
       inkscape:collect="always"
       xlink:href="#linearGradient3837"
       id="radialGradient7631"
       gradientUnits="userSpaceOnUse"
       gradientTransform="matrix(1,0,0,0.1,0,24.75)"
       cx="48"
       cy="37.5"
       fx="48"
       fy="37.5"
       r="5" />
    <linearGradient
       id="linearGradient6337">
      <stop
         id="stop6339"
         style="stop-color:#000000;stop-opacity:1"
         offset="0" />
      <stop
         id="stop6341"
         style="stop-color:#000000;stop-opacity:0"
         offset="1" />
    </linearGradient>
    <radialGradient
       inkscape:collect="always"
       xlink:href="#linearGradient3837"
       id="radialGradient7633"
       gradientUnits="userSpaceOnUse"
       gradientTransform="matrix(1,0,0,0.1,0,21.75)"
       cx="48"
       cy="37.5"
       fx="48"
       fy="37.5"
       r="5" />
    <linearGradient
       id="linearGradient6344">
      <stop
         id="stop6346"
         style="stop-color:#000000;stop-opacity:1"
         offset="0" />
      <stop
         id="stop6348"
         style="stop-color:#000000;stop-opacity:0"
         offset="1" />
    </linearGradient>
    <radialGradient
       inkscape:collect="always"
       xlink:href="#linearGradient3837"
       id="radialGradient7635"
       gradientUnits="userSpaceOnUse"
       gradientTransform="matrix(1,0,0,0.1,0,18.75)"
       cx="48"
       cy="37.5"
       fx="48"
       fy="37.5"
       r="5" />
    <linearGradient
       id="linearGradient6351">
      <stop
         id="stop6353"
         style="stop-color:#000000;stop-opacity:1"
         offset="0" />
      <stop
         id="stop6355"
         style="stop-color:#000000;stop-opacity:0"
         offset="1" />
    </linearGradient>
    <radialGradient
       inkscape:collect="always"
       xlink:href="#linearGradient3837"
       id="radialGradient7637"
       gradientUnits="userSpaceOnUse"
       gradientTransform="matrix(1,0,0,0.1,0,15.75)"
       cx="48"
       cy="37.5"
       fx="48"
       fy="37.5"
       r="5" />
    <linearGradient
       id="linearGradient6358">
      <stop
         id="stop6360"
         style="stop-color:#000000;stop-opacity:1"
         offset="0" />
      <stop
         id="stop6362"
         style="stop-color:#000000;stop-opacity:0"
         offset="1" />
    </linearGradient>
    <radialGradient
       inkscape:collect="always"
       xlink:href="#linearGradient3837"
       id="radialGradient7639"
       gradientUnits="userSpaceOnUse"
       gradientTransform="matrix(1,0,0,0.1,0,12.75)"
       cx="48"
       cy="37.5"
       fx="48"
       fy="37.5"
       r="5" />
    <linearGradient
       id="linearGradient6365">
      <stop
         id="stop6367"
         style="stop-color:#000000;stop-opacity:1"
         offset="0" />
      <stop
         id="stop6369"
         style="stop-color:#000000;stop-opacity:0"
         offset="1" />
    </linearGradient>
    <linearGradient
       inkscape:collect="always"
       xlink:href="#linearGradient3688-7"
       id="linearGradient7641"
       gradientUnits="userSpaceOnUse"
       x1="16"
       y1="88"
       x2="16"
       y2="8" />
    <linearGradient
       id="linearGradient3688-7">
      <stop
         id="stop3690-9"
         style="stop-color:#333333;stop-opacity:1"
         offset="0" />
      <stop
         id="stop3692-6"
         style="stop-color:#595959;stop-opacity:1"
         offset="1" />
    </linearGradient>
    <linearGradient
       inkscape:collect="always"
       xlink:href="#linearGradient3688-7"
       id="linearGradient7643"
       gradientUnits="userSpaceOnUse"
       gradientTransform="matrix(-1,0,0,1,96,0)"
       x1="16"
       y1="88"
       x2="16"
       y2="8" />
    <linearGradient
       id="linearGradient6376">
      <stop
         id="stop6378"
         style="stop-color:#333333;stop-opacity:1"
         offset="0" />
      <stop
         id="stop6380"
         style="stop-color:#595959;stop-opacity:1"
         offset="1" />
    </linearGradient>
    <linearGradient
       inkscape:collect="always"
       xlink:href="#linearGradient3737-4-1"
       id="linearGradient7645"
       gradientUnits="userSpaceOnUse"
       x1="40"
       y1="8"
       x2="40"
       y2="64" />
    <linearGradient
       id="linearGradient3737-4-1">
      <stop
         id="stop3739-11"
         style="stop-color:#ffffff;stop-opacity:1"
         offset="0" />
      <stop
         id="stop3741-3-0"
         style="stop-color:#ffffff;stop-opacity:0"
         offset="1" />
    </linearGradient>
    <linearGradient
       inkscape:collect="always"
       xlink:href="#linearGradient3737-4-1"
       id="linearGradient7647"
       gradientUnits="userSpaceOnUse"
       x1="40"
       y1="8"
       x2="40"
       y2="64" />
    <linearGradient
       id="linearGradient6387">
      <stop
         id="stop6389"
         style="stop-color:#ffffff;stop-opacity:1"
         offset="0" />
      <stop
         id="stop6391"
         style="stop-color:#ffffff;stop-opacity:0"
         offset="1" />
    </linearGradient>
    <radialGradient
       inkscape:collect="always"
       xlink:href="#linearGradient3837"
       id="radialGradient7649"
       gradientUnits="userSpaceOnUse"
       gradientTransform="matrix(1.4117647,0,-2.3529408e-8,4.7058821,10.375399,629.878)"
       cx="93.666664"
       cy="64.190475"
       fx="93.666664"
       fy="64.190475"
       r="17" />
    <linearGradient
       id="linearGradient6394">
      <stop
         id="stop6396"
         style="stop-color:#000000;stop-opacity:1"
         offset="0" />
      <stop
         id="stop6398"
         style="stop-color:#000000;stop-opacity:0"
         offset="1" />
    </linearGradient>
    <radialGradient
       inkscape:collect="always"
       xlink:href="#linearGradient3837"
       id="radialGradient7651"
       gradientUnits="userSpaceOnUse"
       gradientTransform="matrix(-0.94117647,-1.4641499e-7,-4.3924491e-7,2.823529,141.40444,716.24457)"
       cx="7.2183251"
       cy="76.395973"
       fx="7.2183251"
       fy="76.395973"
       r="17" />
    <linearGradient
       id="linearGradient6401">
      <stop
         id="stop6403"
         style="stop-color:#000000;stop-opacity:1"
         offset="0" />
      <stop
         id="stop6405"
         style="stop-color:#000000;stop-opacity:0"
         offset="1" />
    </linearGradient>
    <radialGradient
       inkscape:collect="always"
       xlink:href="#linearGradient3837"
       id="radialGradient7653"
       gradientUnits="userSpaceOnUse"
       gradientTransform="matrix(-1.4117647,0,2.3529408e-8,4.7058821,178.84598,629.878)"
       cx="93.666664"
       cy="64.190475"
       fx="93.666664"
       fy="64.190475"
       r="17" />
    <linearGradient
       id="linearGradient6408">
      <stop
         id="stop6410"
         style="stop-color:#000000;stop-opacity:1"
         offset="0" />
      <stop
         id="stop6412"
         style="stop-color:#000000;stop-opacity:0"
         offset="1" />
    </linearGradient>
    <radialGradient
       inkscape:collect="always"
       xlink:href="#linearGradient3837"
       id="radialGradient7655"
       gradientUnits="userSpaceOnUse"
       gradientTransform="matrix(0.94117647,-1.4641499e-7,4.3924491e-7,2.823529,47.81694,716.24457)"
       cx="7.2183251"
       cy="76.395973"
       fx="7.2183251"
       fy="76.395973"
       r="17" />
    <linearGradient
       id="linearGradient6415">
      <stop
         id="stop6417"
         style="stop-color:#000000;stop-opacity:1"
         offset="0" />
      <stop
         id="stop6419"
         style="stop-color:#000000;stop-opacity:0"
         offset="1" />
    </linearGradient>
  </defs>
  <sodipodi:namedview
     id="base"
     pagecolor="#ffffff"
     bordercolor="#666666"
     borderopacity="1.0"
     inkscape:pageopacity="0.0"
     inkscape:pageshadow="2"
     inkscape:zoom="3.959798"
     inkscape:cx="36.39115"
     inkscape:cy="42.877139"
     inkscape:document-units="px"
     inkscape:current-layer="layer1"
     showgrid="false"
     inkscape:window-width="1280"
     inkscape:window-height="725"
     inkscape:window-x="0"
     inkscape:window-y="25"
     inkscape:window-maximized="1" />
  <metadata
     id="metadata2987">
    <rdf:RDF>
      <cc:Work
         rdf:about="">
        <dc:format>image/svg+xml</dc:format>
        <dc:type
           rdf:resource="http://purl.org/dc/dcmitype/StillImage" />
        <dc:title></dc:title>
      </cc:Work>
    </rdf:RDF>
  </metadata>
  <g
     inkscape:label="Layer 1"
     inkscape:groupmode="layer"
     id="layer1"
     transform="translate(0,-956.36218)">
    <g
       id="g7657">
      <rect
         transform="translate(0,-7.8515622e-6)"
         y="964.36218"
         x="8"
         height="80"
         width="80"
         id="rect9283"
         style="fill:#000000;fill-opacity:1;stroke:none;filter:url(#filter6279-2)"
         rx="5"
         ry="5" />
      <rect
         ry="5"
         rx="5"
         style="opacity:0.86000001;fill:url(#linearGradient9181);fill-opacity:1;stroke:none"
         id="rect9285"
         width="80"
         height="80"
         x="8"
         y="964.36218" />
      <g
         transform="matrix(0.6547619,0,0,0.6547619,-13.947476,420.34677)"
         id="g7507">
        <g
           transform="translate(46.610691,843.95082)"
           style="display:inline"
           id="layer1-4">
          <g
             id="g3154">
            <path
               d="m 21,6 c -2.761424,0 -5,2.2385763 -5,5 l 0,7 0,14 c 0,14.107143 10,24 10,44 l 0,14 44,0 0,-14 C 70,56 80,46.107143 80,32 l 0,-14 0,-7 C 80,8.2385763 77.761424,6 75,6 L 74,6 69,6 29,6 22,6 21,6 z m 63,0 c 0.20775,0 0.42281,0.010839 0.625,0.03125 0.478847,0.048339 0.937091,0.1590508 1.375,0.3125 L 86,6 84,6 z"
               inkscape:connector-curvature="0"
               id="rect2419"
               style="fill:url(#linearGradient7601);fill-opacity:1;fill-rule:nonzero;stroke:none" />
            <path
               d="m 45.60625,6 0,46.9375 0,0.03125 c 7.9e-5,0.01112 0,0.03722 0,0.03125 0,1.136812 0.956938,2.09375 2.09375,2.09375 1.136812,0 2.09375,-0.956938 2.09375,-2.09375 0,0.006 -7.9e-5,-0.02013 0,-0.03125 7.9e-5,-0.01112 8.63e-4,-0.0041 0,-0.03125 l 0,-46.9375 -4.1875,0 z"
               inkscape:connector-curvature="0"
               id="path4051"
               style="font-size:medium;font-style:normal;font-variant:normal;font-weight:normal;font-stretch:normal;text-indent:0;text-align:start;text-decoration:none;line-height:normal;letter-spacing:normal;word-spacing:normal;text-transform:none;direction:ltr;block-progression:tb;writing-mode:lr-tb;text-anchor:start;opacity:0.6;color:#000000;fill:#ffffff;fill-opacity:1;stroke:none;stroke-width:2;marker:none;visibility:visible;display:inline;overflow:visible;enable-background:accumulate;font-family:Abandoned Bitplane;-inkscape-font-specification:Abandoned Bitplane" />
            <rect
               width="74"
               height="5"
               rx="8"
               ry="2.5"
               x="11"
               y="11"
               transform="matrix(1,0,0,2.2519731,0,-7.8373518)"
               id="rect3897"
               style="opacity:0.2;fill:#ffffff;fill-opacity:1;stroke:none;filter:url(#filter3903)" />
            <path
               inkscape:connector-curvature="0"
               d="M 48,9.96875 C 42.470142,9.96875 37.96875,14.470142 37.96875,20 l 0,16 c 0,5.529858 4.501392,10.03125 10.03125,10.03125 5.529858,0 10.03125,-4.501392 10.03125,-10.03125 l 0,-16 C 58.03125,14.470142 53.529858,9.96875 48,9.96875 z"
               id="path3879"
               style="opacity:0.9;fill:url(#linearGradient7603);fill-opacity:1;stroke:none" />
            <path
               d="m 46.7,6 0,46.96875 c -3.42e-4,0.01075 0,0.02042 0,0.03125 0,0.552285 0.447715,1 1,1 0.552285,0 1,-0.447715 1,-1 0,-0.01083 3.42e-4,-0.0205 0,-0.03125 L 48.7,6 l -2,0 z"
               inkscape:connector-curvature="0"
               id="path3711"
               style="font-size:medium;font-style:normal;font-variant:normal;font-weight:normal;font-stretch:normal;text-indent:0;text-align:start;text-decoration:none;line-height:normal;letter-spacing:normal;word-spacing:normal;text-transform:none;direction:ltr;block-progression:tb;writing-mode:lr-tb;text-anchor:start;opacity:0.9;color:#000000;fill:#000000;fill-opacity:1;stroke:none;stroke-width:2;marker:none;visibility:visible;display:inline;overflow:visible;enable-background:accumulate;font-family:Abandoned Bitplane;-inkscape-font-specification:Abandoned Bitplane" />
            <rect
               width="16"
               height="32"
               rx="8"
               ry="8"
               x="40"
               y="12"
               id="rect3713"
               style="opacity:0.9;fill:#000000;fill-opacity:1;stroke:none" />
            <path
               inkscape:connector-curvature="0"
               d="m 48,13.84375 c -3.439318,0 -6.15625,2.716932 -6.15625,6.15625 l 0,16 c 0,3.439318 2.716932,6.15625 6.15625,6.15625 3.439318,0 6.15625,-2.716932 6.15625,-6.15625 l 0,-16 c 0,-3.439318 -2.716932,-6.15625 -6.15625,-6.15625 z"
               id="path3719"
               style="opacity:0.98999999;fill:url(#linearGradient7605);fill-opacity:1;stroke:none" />
            <path
               inkscape:connector-curvature="0"
               d="m 48,13.84375 c -3.439318,0 -6.15625,2.716932 -6.15625,6.15625 l 0,16 c 0,3.439318 2.716932,6.15625 6.15625,6.15625 3.439318,0 6.15625,-2.716932 6.15625,-6.15625 l 0,-16 c 0,-3.439318 -2.716932,-6.15625 -6.15625,-6.15625 z"
               id="path3733"
               style="opacity:0.5;fill:url(#linearGradient7607);fill-opacity:1;stroke:none" />
            <rect
               width="10"
               height="1"
               x="43"
               y="38"
               id="rect3789"
               style="opacity:0.4;fill:url(#radialGradient7609);fill-opacity:1;stroke:none" />
            <rect
               width="10"
               height="1"
               x="43"
               y="35"
               id="rect3805"
               style="opacity:0.4;fill:url(#radialGradient7611);fill-opacity:1;stroke:none" />
            <rect
               width="10"
               height="1"
               x="43"
               y="32"
               id="rect3809"
               style="opacity:0.4;fill:url(#radialGradient7613);fill-opacity:1;stroke:none" />
            <rect
               width="10"
               height="1"
               x="43"
               y="29"
               id="rect3813"
               style="opacity:0.4;fill:url(#radialGradient7615);fill-opacity:1;stroke:none" />
            <rect
               width="10"
               height="1"
               x="43"
               y="26"
               id="rect3817"
               style="opacity:0.4;fill:url(#radialGradient7617);fill-opacity:1;stroke:none" />
            <rect
               width="10"
               height="1"
               x="43"
               y="23"
               id="rect3821"
               style="opacity:0.4;fill:url(#radialGradient7619);fill-opacity:1;stroke:none" />
            <rect
               width="10"
               height="1"
               x="43"
               y="20"
               id="rect3825"
               style="opacity:0.4;fill:url(#radialGradient7621);fill-opacity:1;stroke:none" />
            <rect
               width="10"
               height="1"
               x="43"
               y="17"
               id="rect3829"
               style="opacity:0.4;fill:url(#radialGradient7623);fill-opacity:1;stroke:none" />
            <rect
               width="10"
               height="1"
               x="43"
               y="37"
               id="rect3833"
               style="opacity:0.6;fill:url(#radialGradient7625);fill-opacity:1;stroke:none" />
            <rect
               width="10"
               height="1"
               x="43"
               y="34"
               id="rect3845"
               style="opacity:0.6;fill:url(#radialGradient7627);fill-opacity:1;stroke:none" />
            <rect
               width="10"
               height="1"
               x="43"
               y="31"
               id="rect3849"
               style="opacity:0.6;fill:url(#radialGradient7629);fill-opacity:1;stroke:none" />
            <rect
               width="10"
               height="1"
               x="43"
               y="28"
               id="rect3853"
               style="opacity:0.4;fill:url(#radialGradient7631);fill-opacity:1;stroke:none" />
            <rect
               width="10"
               height="1"
               x="43"
               y="25"
               id="rect3857"
               style="opacity:0.6;fill:url(#radialGradient7633);fill-opacity:1;stroke:none" />
            <rect
               width="10"
               height="1"
               x="43"
               y="22"
               id="rect3861"
               style="opacity:0.6;fill:url(#radialGradient7635);fill-opacity:1;stroke:none" />
            <rect
               width="10"
               height="1"
               x="43"
               y="19"
               id="rect3865"
               style="opacity:0.6;fill:url(#radialGradient7637);fill-opacity:1;stroke:none" />
            <rect
               width="10"
               height="1"
               x="43"
               y="16"
               id="rect3869"
               style="opacity:0.6;fill:url(#radialGradient7639);fill-opacity:1;stroke:none" />
            <path
               d="M 12,6 C 8.676,6 6,8.676 6,12 l 0,4 0,16 c 0,15.179622 5,20.148843 5,40 l 0,12 c 0,3.313708 2.68629,6 6,6 l 9,0 0,-14 C 26,56 16,46.107143 16,32 l 0,-21 c 0,-2.7614237 2.238576,-5 5,-5 l -5,0 -4,0 z"
               inkscape:connector-curvature="0"
               id="path3942"
               style="fill:url(#linearGradient7641);fill-opacity:1;stroke:none" />
            <path
               d="m 75,6 c 2.761424,0 5,2.2385763 5,5 l 0,21 C 80,46.107143 70,56 70,76 l 0,14 9,0 c 3.31371,0 6,-2.686292 6,-6 l 0,-12 c 0,-19.851157 5,-24.820378 5,-40 l 0,-16 0,-4 C 90,8.88375 87.65789,6.337417 84.625,6.03125 84.42281,6.0108389 84.20775,6 84,6 l -9,0 z"
               inkscape:connector-curvature="0"
               id="path3984"
               style="fill:url(#linearGradient7643);fill-opacity:1;stroke:none" />
            <path
               d="m 21,6 c -2.761424,0 -5,2.2385763 -5,5 l 0,21 c 0,14.107143 10,24 10,44 l 0,14 1,0 0,-14 C 27,56 17,46.107143 17,32 l 0,-21 c 0,-2.7614237 2.238576,-5 5,-5 l -1,0 z"
               inkscape:connector-curvature="0"
               id="path3988"
               style="opacity:0.6;fill:#ffffff;fill-opacity:1;stroke:none" />
            <path
               d="m 75,6 c 2.761424,0 5,2.2385763 5,5 l 0,21 C 80,46.107143 70,56 70,76 l 0,14 -1,0 0,-14 C 69,56 79,46.107143 79,32 L 79,11 C 79,8.2385763 76.761424,6 74,6 l 1,0 z"
               inkscape:connector-curvature="0"
               id="path3998"
               style="opacity:0.6;fill:#ffffff;fill-opacity:1;stroke:none" />
            <path
               d="m 22,6 c -1.797649,0 -3.402172,0.7867022 -4.5,2.03125 l 61,0 C 77.402172,6.7867022 75.797649,6 74,6 L 22,6 z M 21.375,89.96875 C 21.577192,89.989161 21.79225,90 22,90 l 52,0 c 0.20775,0 0.422808,-0.01084 0.625,-0.03125 l -53.25,0 z"
               inkscape:connector-curvature="0"
               id="path3785"
               style="opacity:0.5;fill:url(#linearGradient7645);fill-opacity:1;fill-rule:nonzero;stroke:none" />
            <path
               d="M 12,6 C 8.676,6 6,8.676 6,12 l 0,4 0,16 c 0,15.179622 5,20.148843 5,40 l 0,12 c 0,3.313708 2.68629,6 6,6 l 9,0 0,-0.03125 -9,0 c -2.762872,0 -4.96875,-2.205878 -4.96875,-4.96875 l 0,-12 C 12.03125,62.988848 10.753247,56.667003 9.5,51.03125 8.2467532,45.395497 7.03125,40.477903 7.03125,33 l 0,-16 0,-4 C 7.03125,10.223027 9.2230266,8.03125 12,8.03125 l 5,0 C 17.911811,6.8120153 19.360404,6 21,6 l -5,0 -4,0 z m 63,0 c 1.639595,0 3.088189,0.8120153 4,2.03125 l 5,0 c 2.776973,0 4.96875,2.191777 4.96875,4.96875 l 0,4 0,16 c 0,7.477903 -1.215503,12.395497 -2.46875,18.03125 C 85.246753,56.667003 83.96875,62.988848 83.96875,73 l 0,12 c 0,2.762872 -2.205878,4.96875 -4.96875,4.96875 l -9,0 0,0.03125 9,0 c 0.62132,0 1.217617,-0.105942 1.78125,-0.28125 C 83.223662,88.959081 85,86.692388 85,84 l 0,-12 c 0,-19.851157 5,-24.820378 5,-40 l 0,-16 0,-4 c 0,-0.216142 -0.0093,-0.414898 -0.03125,-0.625 -0.0171,-0.169404 -0.03171,-0.335136 -0.0625,-0.5 C 89.90035,10.84385 89.88139,10.81222 89.875,10.78125 89.8419,10.61868 89.79588,10.469923 89.75,10.3125 89.7409,10.2808 89.7284,10.25023 89.71875,10.21875 89.67408,10.074535 89.64874,9.9205201 89.59375,9.78125 89.57668,9.737664 89.5493,9.699324 89.53125,9.65625 89.478923,9.5321223 89.43526,9.4009029 89.375,9.28125 89.347863,9.227147 89.309957,9.17814 89.28125,9.125 89.221705,9.0151154 89.159823,8.9180702 89.09375,8.8125 89.05808,8.755084 89.00628,8.7123346 88.96875,8.65625 88.94791,8.625354 88.92765,8.59298 88.90625,8.5625 88.815924,8.432919 88.725043,8.3092525 88.625,8.1875 88.563958,8.1134741 88.501973,8.0397155 88.4375,7.96875 88.265214,7.7786495 88.070296,7.6040018 87.875,7.4375 87.852639,7.4185034 87.835143,7.3936715 87.8125,7.375 87.664448,7.252917 87.503301,7.1388633 87.34375,7.03125 87.292203,6.9964826 87.240179,6.9706887 87.1875,6.9375 87.078428,6.8688595 86.988724,6.7803852 86.875,6.71875 86.834533,6.6968212 86.791028,6.6772687 86.75,6.65625 86.617608,6.5885318 86.481713,6.5266769 86.34375,6.46875 86.31382,6.4561328 86.280178,6.4496442 86.25,6.4375 86.101154,6.3778961 85.935835,6.329002 85.78125,6.28125 85.75915,6.27441 85.74096,6.256596 85.71875,6.25 85.551474,6.20042 85.391936,6.160087 85.21875,6.125 85.2087,6.12295 85.19756,6.127 85.1875,6.125 85.003744,6.088771 84.814555,6.0503854 84.625,6.03125 84.422808,6.0108389 84.20775,6 84,6 l -9,0 z"
               inkscape:connector-curvature="0"
               id="path3670"
               style="opacity:0.25;fill:url(#linearGradient7647);fill-opacity:1;fill-rule:nonzero;stroke:none" />
          </g>
        </g>
        <path
           d="m 102.61069,849.95082 0,84 23,0 c 3.31371,0 6,-2.68629 6,-6 l 0,-12 c 0,-19.85116 5,-24.82038 5,-40 l 0,-16 0,-4 c 0,-3.324 -2.676,-6 -6,-6 l -28,0 z"
           inkscape:connector-curvature="0"
           id="rect3973"
           style="opacity:0.5;fill:url(#radialGradient7649);fill-opacity:1;stroke:none" />
        <path
           d="m 136.61069,875.95082 c 0,15.17962 -5,20.14884 -5,40 l 0,12 c 0,3.31371 -2.68629,6 -6,6 l -23,0 0,-58 34,0 z"
           inkscape:connector-curvature="0"
           id="path3986"
           style="opacity:0.9;fill:url(#radialGradient7651);fill-opacity:1;stroke:none" />
        <path
           d="m 86.610691,849.95082 0,84 -23,0 c -3.313708,0 -6,-2.68629 -6,-6 l 0,-12 c 0,-19.85116 -5,-24.82038 -5,-40 l 0,-16 0,-4 c 0,-3.324 2.676,-6 6,-6 l 28,0 z"
           inkscape:connector-curvature="0"
           id="path3990"
           style="opacity:0.5;fill:url(#radialGradient7653);fill-opacity:1;stroke:none" />
        <path
           d="m 52.610691,875.95082 c 0,15.17962 5,20.14884 5,40 l 0,12 c 0,3.31371 2.686292,6 6,6 l 23,0 0,-58 -34,0 z"
           inkscape:connector-curvature="0"
           id="path3992"
           style="opacity:0.9;fill:url(#radialGradient7655);fill-opacity:1;stroke:none" />
      </g>
    </g>
  </g>
</svg>
