<?xml version="1.0" encoding="UTF-8" standalone="no"?>
<!-- Created with Inkscape (http://www.inkscape.org/) -->
<svg id="svg2982" xmlns:rdf="http://www.w3.org/1999/02/22-rdf-syntax-ns#" xmlns="http://www.w3.org/2000/svg" height="96" width="96" version="1.1" xmlns:cc="http://creativecommons.org/ns#" xmlns:xlink="http://www.w3.org/1999/xlink" xmlns:dc="http://purl.org/dc/elements/1.1/">
 <defs id="defs2984">
  <filter id="filter6279" color-interpolation-filters="sRGB">
   <feGaussianBlur id="feGaussianBlur6281" stdDeviation="0.8"/>
  </filter>
  <linearGradient id="linearGradient6643" y2="1004.4" gradientUnits="userSpaceOnUse" x2="88" gradientTransform="matrix(1.0172,0,0,1.0172,-1.1034,-1.1034)" y1="1004.4" x1="8">
   <stop id="stop3241-8" style="stop-color:#dcdcdc" offset="0"/>
   <stop id="stop3243" style="stop-color:#f0f0f0" offset="1"/>
  </linearGradient>
  <linearGradient id="linearGradient9728" y2="5.4252" gradientUnits="userSpaceOnUse" x2="58.65" gradientTransform="matrix(.79888 0 0 .79888 -2.8216 1.2067)" y1="122" x1="58.65">
   <stop id="stop5097" style="stop-color:#dcdcdc" offset="0"/>
   <stop id="stop5099" style="stop-color:#f5f5f5" offset=".89612"/>
   <stop id="stop5101" style="stop-color:#8d8d8d" offset="1"/>
  </linearGradient>
  <linearGradient id="linearGradient9730" y2="21.934" xlink:href="#linearGradient5118" gradientUnits="userSpaceOnUse" x2="64.607" gradientTransform="matrix(.47514 0 0 .47514 -76.426 981.34)" y1="22.808" x1="58.41"/>
  <linearGradient id="linearGradient5118">
   <stop id="stop5120" style="stop-color:#de1212" offset="0"/>
   <stop id="stop5128" style="stop-color:#f36565" offset=".5"/>
   <stop id="stop5122" style="stop-color:#a20c0c" offset="1"/>
  </linearGradient>
  <linearGradient id="linearGradient9732" y2="55" xlink:href="#linearGradient5118" gradientUnits="userSpaceOnUse" x2="64.706" gradientTransform="matrix(.47514 0 0 .47514 -76.426 981.34)" y1="54.138" x1="54.881"/>
  <linearGradient id="linearGradient9734" y2="51.703" gradientUnits="userSpaceOnUse" x2="69.919" gradientTransform="matrix(.47514 0 0 .47514 -76.426 981.34)" y1="28.056" x1="63.582">
   <stop id="stop5139-3" offset="0"/>
   <stop id="stop5141-7" style="stop-opacity:0" offset="1"/>
  </linearGradient>
  <linearGradient id="linearGradient9736" y2="12.029" xlink:href="#linearGradient5081-4" gradientUnits="userSpaceOnUse" x2="47.759" gradientTransform="matrix(.6434 0 0 .65538 6.8025 2.7231)" y1="5.2827" x1="52.471"/>
  <linearGradient id="linearGradient5081-4" x1="58.65" gradientUnits="userSpaceOnUse" y1="122" gradientTransform="matrix(1.0172,0,0,1.0172,-1.1034,-1.1034)" x2="58.65" y2="5.4252">
   <stop id="stop5083" style="stop-color:#dcdcdc" offset="0"/>
   <stop id="stop5085" style="stop-color:#f0f0f0" offset="1"/>
  </linearGradient>
  <linearGradient id="linearGradient9738" y2="12.778" xlink:href="#linearGradient5081-4" gradientUnits="userSpaceOnUse" x2="57.254" gradientTransform="matrix(-.6434 0 0 .65538 89.209 2.7231)" y1="10.53" x1="43.476"/>
  <linearGradient id="linearGradient9740" y2="4.8938" xlink:href="#linearGradient3231-0" gradientUnits="userSpaceOnUse" x2="99.266" gradientTransform="matrix(-.48517 0 0 .48517 -15.074 981.69)" y1="123" x1="99.266"/>
  <linearGradient id="linearGradient3231-0">
   <stop id="stop3233-42" style="stop-color:#514e4d" offset="0"/>
   <stop id="stop3235-9" style="stop-color:#767372" offset="1"/>
  </linearGradient>
  <linearGradient id="linearGradient9742" y2="23.497" xlink:href="#linearGradient3231-0" gradientUnits="userSpaceOnUse" x2="95.672" gradientTransform="matrix(-.48517 0 0 .48517 -15.074 981.69)" y1="16" x1="79.514"/>
  <linearGradient id="linearGradient9744" y2="4.8938" xlink:href="#linearGradient3231-0" gradientUnits="userSpaceOnUse" x2="99.266" gradientTransform="matrix(.48517 0 0 .48517 -77.176 981.69)" y1="123" x1="99.266"/>
  <linearGradient id="linearGradient9746" y2="30.389" xlink:href="#linearGradient5137" gradientUnits="userSpaceOnUse" x2="-28.793" gradientTransform="matrix(.48517 0 0 .48517 -38.362 981.69)" y1="31.633" x1="-32.474"/>
  <linearGradient id="linearGradient5137">
   <stop id="stop5139" offset="0"/>
   <stop id="stop5141" style="stop-opacity:0" offset="1"/>
  </linearGradient>
  <linearGradient id="linearGradient9748" y2="19" xlink:href="#linearGradient3231-0" gradientUnits="userSpaceOnUse" x2="87.676" gradientTransform="matrix(.48517 0 0 .48517 -77.176 981.69)" y1="34.894" x1="123.49"/>
  <linearGradient id="linearGradient9750" y2="94.281" gradientUnits="userSpaceOnUse" x2="67.482" gradientTransform="matrix(.48517 0 0 .48517 -77.176 981.69)" y1="56.387" x1="69.894">
   <stop id="stop4814" style="stop-color:#fff" offset="0"/>
   <stop id="stop4816" style="stop-color:#fff;stop-opacity:0" offset="1"/>
  </linearGradient>
  <linearGradient id="linearGradient4938">
   <stop id="stop4940" style="stop-color:#202020" offset="0"/>
   <stop id="stop4942" style="stop-color:#727272" offset="1"/>
  </linearGradient>
  <linearGradient id="linearGradient9756" y2="30.389" xlink:href="#linearGradient5137" gradientUnits="userSpaceOnUse" x2="-28.793" gradientTransform="matrix(-.48517 0 0 .48517 -53.895 981.69)" y1="31.633" x1="-32.474"/>
  <linearGradient id="linearGradient3613-62" x1="48" xlink:href="#linearGradient3737-53" gradientUnits="userSpaceOnUse" x2="48" y1="20.221" y2="138.66"/>
  <linearGradient id="linearGradient3737-53">
   <stop id="stop3739-2" style="stop-color:#fff" offset="0"/>
   <stop id="stop3741-00" style="stop-color:#fff;stop-opacity:0" offset="1"/>
  </linearGradient>
  <clipPath id="clipPath3613-098">
   <rect id="rect3615-09" style="fill:#fff" rx="6" ry="6" height="84" width="84" y="6" x="6"/>
  </clipPath>
  <filter id="filter3794-67" width="1.384" y="-.192" x="-.192" height="1.384" color-interpolation-filters="sRGB">
   <feGaussianBlur id="feGaussianBlur3796-2" stdDeviation="5.28"/>
  </filter>
  <linearGradient id="linearGradient3188-1" x1="36.357" xlink:href="#linearGradient3737-53" gradientUnits="userSpaceOnUse" x2="36.357" y1="6" y2="63.893"/>
  <radialGradient id="radialGradient3454" xlink:href="#linearGradient3737-53" gradientUnits="userSpaceOnUse" cy="90.172" cx="48" gradientTransform="matrix(1.1573 0 0 .99591 -7.551 .19713)" r="42"/>
  <linearGradient id="linearGradient3290" y2="99.266" xlink:href="#linearGradient4938" gradientUnits="userSpaceOnUse" x2="74.494" y1="99.266" x1="65.928"/>
 </defs>
 <metadata id="metadata2987">
  <rdf:RDF>
   <cc:Work rdf:about="">
    <dc:format>image/svg+xml</dc:format>
    <dc:type rdf:resource="http://purl.org/dc/dcmitype/StillImage"/>
    <dc:title/>
   </cc:Work>
  </rdf:RDF>
 </metadata>
 <g id="layer1" transform="translate(0 -956.36)">
  <g id="g6645">
   <rect id="rect9283" ry="5" style="filter:url(#filter6279)" rx="5" transform="translate(0 -.0000078516)" height="80" width="80" y="964.36" x="8"/>
   <rect id="rect9285" style="fill:url(#linearGradient6643)" rx="5" ry="5" height="80" width="80" y="964.36" x="8"/>
   <g id="g9648" transform="matrix(.95895 0 0 .95895 -1.1014 44.786)">
    <g id="g9688" transform="translate(97.25 -12.125)">
     <g id="layer1-3" transform="matrix(.68155 0 0 .68155 -78.839 980.02)">
      <rect id="rect2419" style="fill:#514e4d" rx="6" ry="6" height="84" width="84" y="6" x="6"/>
      <path id="path5168" style="fill:url(#linearGradient9728)" d="m18.955 6 29.72 75 28.37-75h-58.09z"/>
     </g>
     <path id="path5114" style="fill:url(#linearGradient9730);fill-rule:evenodd" d="m-51.376 986.48 5.359 1.5786 5.207-1.5786 1.1873 2.9356-6.3943 7.6306-7.0213-8.0252 1.6623-2.541z"/>
     <path id="path5116" style="fill:url(#linearGradient9732);fill-rule:evenodd" d="m-47.993 994.67-7.7771 24.575 19.472 0.2379-7.7635-24.839-3.9318 0.0266z"/>
     <path id="path5135" style="opacity:.4;fill:url(#linearGradient9734);fill-rule:evenodd" d="m-48.112 994.67c2.0182 0.83101 4.0365 0.0593 4.0365 0.0593s3.8321 12.117 7.0854 22.913c-2.0985-2.4338-6.6512-21.249-7.5597-21.488-0.95758-0.25149 0.5616 10.417-0.16016 11.041-1.3651-12.109-2.6894-12.643-3.5202-11.456l0.02592-0.23326c0.03493-0.31439 0.0928-0.83523 0.0928-0.83523z"/>
     <path id="path5145" style="opacity:.2;fill:#fff" d="m-43.52 1002.2a5.5409 0.41976 85.802 0 1 -0.83723 0.062 5.5409 0.41976 85.802 1 1 0.83723 -0.062z"/>
     <g id="layer4" transform="matrix(.68155 0 0 .68155 -78.839 980.02)">
      <path id="path4460" style="opacity:.15;fill-rule:evenodd" d="m30.25 8-1.2812 2.3438 6.9375 15.719s3.3815-7.0511 12.062-13.438c-4.594-0.729-8.649-2.7881-11.53-4.625h-6.188zm29.344 0c-2.881 1.8369-6.9678 3.8955-11.562 4.625 8.681 6.3864 12.062 13.438 12.062 13.438l6.937-15.719-1.281-2.344h-6.156z"/>
      <path id="path5411" style="opacity:.4" d="m32.418 6c0.61867 2.953 7.2336 5.284 15.301 5.284 8.067 0 14.664-2.331 15.281-5.284h-4.926c-2.257 1.4767-5.978 2.4577-10.194 2.4577s-7.937-0.981-10.194-2.4577h-5.2678z"/>
      <path id="path4453" style="opacity:.3;fill-rule:evenodd" d="m30.25 7-1.2812 2.3438 6.9375 15.719s3.3815-7.0511 12.062-13.438c-4.594-0.729-8.649-2.7881-11.53-4.625h-6.188zm29.344 0c-2.881 1.8369-6.9678 3.8955-11.562 4.625 8.681 6.3864 12.062 13.438 12.062 13.438l6.937-15.719-1.281-2.344h-6.156z"/>
      <path id="path4980" style="fill:url(#linearGradient9736);fill-rule:evenodd" d="m30.246 6-1.266 2.3348 6.936 15.729s3.3827-7.0489 12.064-13.435c-4.595-0.73-8.66-2.7923-11.541-4.6292h-6.1927z"/>
      <path id="path4992" style="fill:url(#linearGradient9738);fill-rule:evenodd" d="m59.581 6c-2.881 1.8369-6.946 3.8992-11.541 4.629 8.681 6.386 12.064 13.435 12.064 13.435l6.916-15.729-1.266-2.3348h-6.1726z"/>
      <path id="path4996" style="opacity:.1;fill-rule:evenodd" d="m35.152 6c2.862 1.8329 6.9098 3.8934 11.541 4.6286-6.4428 4.7398-9.9507 9.83-11.34 12.145l0.56297 1.2903s3.3827-7.0489 12.064-13.435c-4.595-0.7298-8.658-2.7924-11.541-4.629h-1.2868z"/>
      <path id="path5006" style="opacity:.8;fill:#fff;fill-rule:evenodd" d="m48.04 10.629c8.681 6.3864 12.064 13.435 12.064 13.435l0.56297-1.2903c-1.389-2.315-4.897-7.406-11.34-12.145"/>
      <path id="path5001" style="opacity:.1;fill-rule:evenodd" d="m59.581 6c-2.8774 1.8366-6.9462 3.8992-11.541 4.6286 0.47095 0.34647 0.90704 0.69542 1.3471 1.0445 5.1583-1.1266 9.5286-3.8072 12.104-5.6732h-1.91zm5.4488 0 1.6688 3.0516 0.3217-0.71683-1.2667-2.3348h-0.72382z"/>
     </g>
     <path id="path4871" style="fill:url(#linearGradient9740)" d="m-70.661 984.11c-2.2655 0-4.0893 1.8238-4.0893 4.0893v49.072c0 2.2655 1.8238 4.0893 4.0893 4.0893h26.559s0.16803-12.838 0-14.845c-0.33191-3.9577-9.7461-26.462-14.632-42.405h-11.927z"/>
     <path id="path4159" style="opacity:.1;fill:#fff" d="m-73.387 984.79v55.525c0.20904 0.1871 0.43686 0.3486 0.68155 0.4898v-56.015h-0.68155zm2.7262-0.68154v57.25h0.68172v-57.25h-0.68155zm2.7262 0v2.8966c0.23445-0.39625 0.4655-0.7604 0.68155-1.0649v-1.8317h-0.68155zm0 5.1116v7.0281c0.22678-0.23106 0.45416-0.4732 0.68155-0.72414v-5.5376l-0.68155-0.76674zm2.7262 3.1096v0.93713c0.14831-0.14958 0.29924-0.29003 0.44726-0.42597l-0.4471-0.51116zm-2.7262 6.7944v42.235h0.68155v-41.446c-0.24561-0.27242-0.46078-0.53786-0.68155-0.788zm2.7262 2.9818v39.253h0.68155v-38.507c-0.24311-0.2602-0.44909-0.4952-0.68155-0.7455zm2.7262 2.9392v36.314h0.68155v-35.59c-0.22725-0.2414-0.4589-0.4876-0.68155-0.7242zm2.7262 2.8965v33.418h0.68155v-32.693c-0.22525-0.2405-0.45808-0.486-0.68155-0.7241zm2.7262 2.9392v30.479h0.68155v-29.754c-0.22597-0.2449-0.45516-0.4799-0.68155-0.7242zm2.7262 2.9613v27.518h0.68155v-26.772c-0.22218-0.2474-0.45664-0.4969-0.68155-0.7457zm2.7262 3.0241v24.493h0.68155v-23.684c-0.23036-0.2678-0.44437-0.5377-0.68155-0.8096zm2.7262 3.2591v21.234h0.68155v-20.404c-0.21506-0.2716-0.45428-0.5511-0.68155-0.8307z"/>
     <path id="path4877" style="fill:url(#linearGradient9742);fill-rule:evenodd" d="m-58.724 984.11c0.48575 1.5851 1.0413 3.1372 1.6374 4.6546 5.3587 13.743 12.68 34.188 12.978 37.752 0.0041 0.049 0.01145 0.2459 0.01513 0.3183l-0.09094 0.5913c-1.2118-5.5764-20.614-24.243-25.168-29.959 1.5148-0.98245 3.0634-3.2187 4.594-4.6243l-3.926-4.45c1.3401-2.68 2.4617-3.7966 3.199-4.2604h6.762z"/>
     <path id="path4879" style="opacity:.2;fill:#525252;fill-rule:evenodd" d="m-58.724 984.11c0.48575 1.5851 1.0413 3.1372 1.6374 4.6546 5.3587 13.743 12.68 34.188 12.978 37.752 0.0041 0.049 0.01145 0.2459 0.01513 0.3183l-0.09094 0.5913c-0.17993-0.8294-0.6795-1.774-1.4094-2.8045-1.7836-4.7136-7.846-24.016-12.463-35.858-0.59635-1.5171-1.1518-3.0692-1.6378-4.6543h0.97032z"/>
     <path id="path4469" style="opacity:.1;fill:#fff" d="m-59.012 984.11 6.2617 14.036c1.139 3.055 2.2681 6.1277 3.3438 9.1368l-10.33-23.19h0.72414zm-2.9605 0 18.466 41.51c0.0027 0.013 0.01869 0.03 0.0213 0.043 0.07132 0.3489 0.13043 0.6292 0.14909 0.852 0.0041 0.049-0.0037 0.247 0 0.3195l-0.08519 0.5963c-0.13688-0.6296-0.5118-1.4382-1.0649-2.3641l-18.231-40.956h0.74548zm-2.9392 0.12779 15.015 33.716c-0.49746-0.5815-1.0061-1.1691-1.5335-1.7678l-14.015-31.479c0.19658-0.19012 0.36656-0.34948 0.53246-0.46857zm-1.9594 2.279 2.7475 6.1765-1.5335-1.7465-1.6613-3.7059c0.15051-0.26315 0.3039-0.49953 0.44726-0.72415zm2.8326 6.3682 8.2208 18.466c-0.47644-0.5155-0.95083-1.0228-1.427-1.5335l-7.3266-16.421c0.17732-0.18268 0.35553-0.34693 0.53246-0.51116zm-2.0235 2.1721 4.5364 10.181c-0.45472-0.4832-0.95199-1.0089-1.3844-1.4696-0.0076-0.01-0.0137-0.013-0.02126-0.021l-3.6207-8.1363c0.16425-0.18027 0.32542-0.36847 0.48986-0.55375zm-2.0659 2.0659 0.85193 1.8743c-0.50488-0.5745-0.97345-1.0979-1.3205-1.5335 0.15329-0.0994 0.31464-0.21783 0.46856-0.34077z"/>
     <path id="path4930" style="opacity:.15;fill:#fff;fill-rule:evenodd" d="m-65.486 984.11c-0.73743 0.46377-1.8591 1.5804-3.199 4.2604l3.9268 4.4726c-1.5306 1.4056-3.0792 3.6418-4.594 4.6243 4.5535 5.7155 23.956 24.383 25.168 29.96l0.09097-0.5913c-0.0041-0.072-0.01104-0.2696-0.01513-0.3184-0.03196-0.3818-0.16665-0.9883-0.34871-1.7284-0.0027 0 0.0027-0.011 0-0.015-4.5882-7.3873-19.941-22.306-23.925-27.306 1.5148-0.98245 3.0634-3.2187 4.594-4.6243l-3.9269-4.4727c1.3401-2.68 2.4617-3.7966 3.1991-4.2604h-0.97032z"/>
     <path id="path3173" style="fill:url(#linearGradient9744)" d="m-33.516 984.11c-4.886 15.943-14.3 38.447-14.632 42.405-0.16803 2.0066 0 14.845 0 14.845h26.56c2.2655 0 4.0893-1.8238 4.0893-4.0893v-49.072c0-2.2655-1.8238-4.0893-4.0893-4.0893h-11.927z"/>
     <path id="path4850" style="opacity:.15;fill:#fff" d="m-31.056 989.08c-7.9884 15.943-16.496 33.477-17.038 37.435-0.27466 2.0071 0 14.843 0 14.843h1.5864s-0.27471-12.836 0-14.843c0.54184-3.9578 9.0496-21.491 17.038-37.435h-1.5864z"/>
     <path id="path5198" style="opacity:.4;fill:url(#linearGradient9746);fill-rule:evenodd" d="m-58.724 984.11c0.48575 1.5851 1.0413 3.1372 1.6374 4.6546 4.5444 11.655 10.485 28.097 12.372 35.008-2.6519-13.686-6.4583-26.392-10.952-39.662h-3.0576z"/>
     <path id="path4217" style="opacity:.1;fill:#fff" d="m-18.81 984.79v55.525c-0.20904 0.1871-0.43686 0.3486-0.68155 0.4898v-56.015h0.68155zm-2.7262-0.68154v57.25h-0.68155v-57.25h0.68155zm-2.7262 0v2.8966c-0.23456-0.39627-0.46572-0.7604-0.68155-1.0649v-1.8317h0.68155zm0 5.1116v7.0281c-0.22678-0.23106-0.45416-0.4732-0.68155-0.72414v-5.5376l0.68155-0.76674zm-2.7262 3.1096v0.93713c-0.14831-0.14958-0.29924-0.29003-0.44727-0.42597l0.44727-0.51116zm2.7262 6.7942v42.235h-0.68155v-41.446c0.24561-0.27242 0.46078-0.53787 0.68155-0.78801zm-2.7262 2.9818v39.253h-0.68155v-38.507c0.24311-0.2603 0.4491-0.4953 0.68155-0.7455zm-2.7262 2.9391v36.314h-0.68155v-35.59c0.22726-0.2413 0.4589-0.4875 0.68155-0.7241zm-2.7262 2.8966v33.417h-0.68155v-32.693c0.22525-0.2405 0.45808-0.4861 0.68155-0.7241zm-2.7262 2.9392v30.478h-0.68155v-29.754c0.22597-0.2449 0.45516-0.48 0.68155-0.7242zm-2.7262 2.9605v27.518h-0.68155v-26.772c0.22252-0.2476 0.45631-0.4968 0.68155-0.7455zm-2.7262 3.0244v24.493h-0.68155v-23.684c0.23038-0.2679 0.4447-0.5376 0.68155-0.8093zm-2.7262 3.2586v21.234h-0.68155v-20.404c0.21507-0.2716 0.45429-0.5511 0.68155-0.8307z"/>
     <path id="path3183" style="fill:url(#linearGradient9748);fill-rule:evenodd" d="m-33.526 984.11c-0.48575 1.5851-1.0413 3.1372-1.6374 4.6546-5.3587 13.743-12.68 34.188-12.978 37.752-0.0041 0.049-0.01145 0.2459-0.01513 0.3183l0.09095 0.5913c1.2123-5.5763 20.615-24.244 25.168-29.959-1.5148-0.98245-3.0634-3.2187-4.594-4.6243l3.9269-4.4727c-1.3406-2.6793-2.4624-3.7959-3.1999-4.2597h-6.762z"/>
     <path id="path4840" style="opacity:.2;fill:url(#linearGradient9750);fill-rule:evenodd" d="m-33.526 984.11c-0.48575 1.5851-1.0413 3.1372-1.6374 4.6546-5.3587 13.743-12.68 34.188-12.978 37.752-0.0041 0.049-0.01145 0.2459-0.01513 0.3183l0.09095 0.5913c0.18036-0.8296 0.67948-1.774 1.4101-2.8049 1.7836-4.7135 7.846-24.016 12.463-35.857 0.59614-1.5173 1.1517-3.0696 1.6374-4.6546h-0.97032z"/>
     <g id="g4970" transform="matrix(.48517 0 0 .48517 -77.176 983.63)">
      <path id="path4936" style="stroke-linejoin:round;stroke:url(#linearGradient3290);stroke-width:1.5043;stroke-linecap:square;fill:#3d3d3d" transform="matrix(-.66033 -.66033 .66033 -.66033 48.813 203.91)" d="m73.959 99.266a3.7479 3.7479 0 1 1 -7.4958 0 3.7479 3.7479 0 1 1 7.4958 0z"/>
      <path id="path4966" style="stroke-linejoin:round;stroke:url(#linearGradient3290);stroke-width:1.4357;stroke-linecap:square;fill:none" transform="matrix(.51891 .51891 -.51891 .51891 83.077 4.0564)" d="m73.959 99.266a3.7479 3.7479 0 1 1 -7.4958 0 3.7479 3.7479 0 1 1 7.4958 0z"/>
     </g>
     <use id="use4978" xlink:href="#g4970" transform="translate(0 7.7628)" height="128" width="128" y="0" x="0"/>
     <path id="path5175" style="opacity:.3;fill-rule:evenodd" d="m-58.203 986.36c-0.92827 0.91198-5.0128 4.4547-8.9099 8.8349 5.6098-5.1784 8.5316-6.8877 9.5212-7.3832-0.24127-0.61952-0.38576-0.82126-0.61135-1.4518z"/>
     <path id="path5180" style="opacity:.3;fill-rule:evenodd" d="m-34.356 986.19c0.92793 0.91211 5.0123 4.4544 8.9099 8.8349-5.61-5.1784-8.5316-6.8884-9.5212-7.3839 0.24149-0.61923 0.38604-0.82079 0.61171-1.4514z"/>
     <path id="path5241" style="fill:#464342;fill-rule:evenodd" d="m-34.262 1027.4c0.12123-0.7273 0-5.6976 0-5.6976l16.729-2.182-15.612 3.273-1.1169 4.6066z"/>
     <path id="path5409" style="opacity:.15;fill:#fff;fill-rule:evenodd" d="m-34.134 1027.3c0.12123-0.7273 0.68577-4.5832 0.68577-4.5832l13.471-2.5109-12.698 3.2591-1.4598 3.8351z"/>
     <path id="path4231" style="opacity:.4;fill:url(#linearGradient9756);fill-rule:evenodd" d="m-33.533 984.11c-0.48575 1.5851-1.0413 3.1372-1.6374 4.6546-4.5444 11.655-10.485 28.097-12.372 35.008 2.6514-13.686 6.4575-26.393 10.952-39.663h3.0576z"/>
     <path id="path4462" style="opacity:.1;fill:#fff" d="m-32.473 984.11-6.2617 14.036c-1.1389 3.0547-2.2682 6.1278-3.3437 9.1368l10.33-23.173h-0.72448zm2.9606 0-18.466 41.51c-0.0027 0.013-0.0187 0.03-0.0213 0.043-0.07132 0.3489-0.13044 0.6292-0.14909 0.852-0.0041 0.049 0.0037 0.247 0 0.3195l0.08519 0.5963c0.13688-0.6296 0.5118-1.4382 1.0649-2.3641l18.232-40.956h-0.74561zm2.9392 0.12779-15.015 33.716c0.49746-0.5815 1.0061-1.1691 1.5335-1.7678l14.014-31.479c-0.19697-0.19009-0.36667-0.3495-0.53229-0.46857zm1.9594 2.279-2.7475 6.1765 1.5335-1.7465 1.6613-3.7059c-0.1513-0.26308-0.30465-0.49971-0.44846-0.72435zm-2.8332 6.3682-8.2208 18.466c0.47644-0.5155 0.95083-1.0227 1.427-1.5335l7.3266-16.421c-0.17732-0.18268-0.35553-0.34693-0.53246-0.51116zm2.0235 2.1721-4.5364 10.181c0.45472-0.4831 0.95198-1.0088 1.3844-1.4696 0.0076-0.01 0.0137-0.013 0.02126-0.021l3.6211-8.1363c-0.16425-0.18027-0.32542-0.36848-0.48986-0.55376zm2.0659 2.0659-0.85194 1.8743c0.50488-0.5745 0.97346-1.0979 1.3205-1.5335-0.15329-0.0994-0.31464-0.21783-0.46856-0.34077z"/>
    </g>
   </g>
   <g id="layer5" transform="translate(0 956.36)">
    <rect id="rect3171" style="opacity:.1;filter:url(#filter3794-67);stroke:#fff;stroke-linecap:round;stroke-width:.5;fill:url(#linearGradient3613-62)" clip-path="url(#clipPath3613-098)" rx="12" ry="12" height="66" width="66" y="15" x="15"/>
    <path id="rect3728" style="opacity:.3;fill:url(#linearGradient3188-1)" d="m12 6c-3.324 0-6 2.676-6 6v72c0 0.33472 0.04135 0.6507 0.09375 0.96875 0.0487 0.2956 0.09704 0.59692 0.1875 0.875 0.00988 0.03038 0.020892 0.0636 0.03125 0.09375 0.098865 0.28777 0.23488 0.54745 0.375 0.8125 0.14459 0.27351 0.31562 0.53562 0.5 0.78125 0.18438 0.24564 0.37378 0.47347 0.59375 0.6875 0.43995 0.42806 0.94291 0.81453 1.5 1.0938 0.27854 0.13961 0.57347 0.24695 0.875 0.34375-0.2562-0.10022-0.48671-0.23627-0.71875-0.375-0.00741-0.0044-0.023866 0.0045-0.03125 0-0.0319-0.019-0.0622-0.042-0.0937-0.062-0.1204-0.077-0.231-0.164-0.3437-0.25-0.1062-0.081-0.2133-0.161-0.3126-0.25-0.1778-0.162-0.3473-0.346-0.4999-0.531-0.1075-0.131-0.2183-0.266-0.3124-0.407-0.0251-0.038-0.0385-0.086-0.0626-0.125-0.0647-0.103-0.1302-0.204-0.1874-0.312-0.1011-0.195-0.2057-0.416-0.2813-0.625-0.008-0.022-0.0236-0.041-0.0313-0.063-0.0318-0.092-0.0358-0.187-0.0624-0.281-0.0304-0.107-0.0704-0.203-0.0938-0.313-0.0729-0.341-0.125-0.698-0.125-1.062v-72c0-2.782 2.2182-5 5-5h72c2.7818 0 5 2.2182 5 5v72c0 0.3643-0.05212 0.72099-0.125 1.0625-0.04415 0.20689-0.08838 0.39766-0.15625 0.59375-0.0077 0.02195-0.0233 0.04069-0.03125 0.0625-0.06274 0.17374-0.13838 0.36745-0.21875 0.53125-0.04158 0.0828-0.07904 0.16995-0.125 0.25-0.0546 0.09721-0.12677 0.18835-0.1875 0.28125-0.09411 0.14096-0.20492 0.276-0.3125 0.40625-0.14317 0.17445-0.30314 0.347-0.46875 0.5-0.01117 0.0102-0.01998 0.02115-0.03125 0.03125-0.13839 0.12556-0.28509 0.23444-0.4375 0.34375-0.10257 0.07315-0.20432 0.15336-0.3125 0.21875-0.0074 0.0045-0.02384-0.0044-0.03125 0-0.23204 0.13873-0.46255 0.27478-0.71875 0.375 0.30153-0.0968 0.59646-0.20414 0.875-0.34375 0.55709-0.27922 1.0601-0.66569 1.5-1.0938 0.21997-0.21403 0.40937-0.44186 0.59375-0.6875s0.35541-0.50774 0.5-0.78125c0.14012-0.26505 0.27614-0.52473 0.375-0.8125 0.01041-0.03078 0.02133-0.06274 0.03125-0.09375 0.09046-0.27808 0.1388-0.5794 0.1875-0.875 0.053-0.318 0.094-0.634 0.094-0.969v-72c0-3.324-2.676-6-6-6h-72z"/>
    <path id="path3615" style="opacity:.2;fill:url(#radialGradient3454)" d="m12 90c-3.324 0-6-2.676-6-6v-72c0-0.33472 0.04135-0.6507 0.09375-0.96875 0.0487-0.2956 0.09704-0.59692 0.1875-0.875 0.0099-0.03 0.0209-0.063 0.0313-0.094 0.0989-0.2873 0.2349-0.547 0.375-0.812 0.1446-0.2735 0.3156-0.5356 0.5-0.7812 0.1844-0.2457 0.3738-0.4735 0.5937-0.6876 0.44-0.428 0.943-0.8145 1.5-1.0937 0.2786-0.1396 0.5735-0.2469 0.8748-0.3437-0.256 0.1002-0.4865 0.2362-0.7185 0.375-0.00741 0.0044-0.023866-0.0045-0.03125 0-0.031933 0.0193-0.062293 0.04251-0.09375 0.0625-0.1204 0.0767-0.23102 0.16351-0.34375 0.25-0.10617 0.0808-0.21328 0.16111-0.3125 0.25-0.1779 0.1614-0.3474 0.3453-0.5 0.5312-0.1075 0.1303-0.2183 0.2653-0.3124 0.4063-0.0251 0.0383-0.0385 0.0858-0.0626 0.125-0.0647 0.103-0.1302 0.2045-0.1874 0.3124-0.1011 0.1948-0.2057 0.4158-0.2813 0.625-0.008 0.0219-0.0236 0.0406-0.0313 0.0626-0.0318 0.0919-0.0358 0.1868-0.0624 0.2812-0.0304 0.1066-0.0704 0.203-0.0938 0.3125-0.0729 0.3415-0.125 0.6985-0.125 1.0625v72c0 2.7818 2.2182 5 5 5h72c2.7818 0 5-2.2182 5-5v-72c0-0.364-0.052-0.721-0.125-1.0625-0.044-0.2069-0.088-0.3977-0.156-0.5937-0.008-0.022-0.024-0.0407-0.031-0.0626-0.063-0.1737-0.139-0.3674-0.219-0.5312-0.042-0.0828-0.079-0.17-0.125-0.25-0.055-0.0972-0.127-0.1884-0.188-0.2812-0.094-0.141-0.205-0.276-0.312-0.4063-0.143-0.1745-0.303-0.347-0.469-0.5-0.011-0.0102-0.02-0.0211-0.031-0.0313-0.139-0.1255-0.285-0.2344-0.438-0.3437-0.102-0.0731-0.204-0.1534-0.312-0.2187-0.0074-0.0045-0.02384 0.0044-0.03125 0-0.23204-0.13873-0.46255-0.27478-0.71875-0.375 0.30153 0.0968 0.59646 0.20414 0.875 0.34375 0.55709 0.27922 1.0601 0.66569 1.5 1.0938 0.21997 0.21403 0.40937 0.44186 0.59375 0.6875s0.35541 0.50774 0.5 0.78125c0.14012 0.26505 0.27614 0.52473 0.375 0.8125 0.01041 0.03078 0.02133 0.06274 0.03125 0.09375 0.09046 0.27808 0.1388 0.5794 0.1875 0.875 0.053 0.318 0.094 0.634 0.094 0.969v72c0 3.324-2.676 6-6 6h-72z"/>
   </g>
  </g>
 </g>
</svg>
