<?xml version="1.0" encoding="UTF-8" standalone="no"?>
<!-- Created with Inkscape (http://www.inkscape.org/) -->

<svg
   xmlns:dc="http://purl.org/dc/elements/1.1/"
   xmlns:cc="http://creativecommons.org/ns#"
   xmlns:rdf="http://www.w3.org/1999/02/22-rdf-syntax-ns#"
   xmlns:svg="http://www.w3.org/2000/svg"
   xmlns="http://www.w3.org/2000/svg"
   xmlns:xlink="http://www.w3.org/1999/xlink"
   xmlns:sodipodi="http://sodipodi.sourceforge.net/DTD/sodipodi-0.dtd"
   xmlns:inkscape="http://www.inkscape.org/namespaces/inkscape"
   width="96"
   height="96"
   id="svg2982"
   version="1.1"
   inkscape:version="0.48.1 r9760"
   sodipodi:docname="qtcreator.svg">
  <defs
     id="defs2984">
    <filter
       color-interpolation-filters="sRGB"
       inkscape:collect="always"
       id="filter6279">
      <feGaussianBlur
         inkscape:collect="always"
         stdDeviation="0.8"
         id="feGaussianBlur6281" />
    </filter>
    <linearGradient
       inkscape:collect="always"
       xlink:href="#linearGradient3700-83"
       id="linearGradient10902-1"
       gradientUnits="userSpaceOnUse"
       gradientTransform="translate(0,-9.6171873e-6)"
       x1="48"
       y1="1052.3622"
       x2="48"
       y2="902.36218" />
    <linearGradient
       id="linearGradient3700-83">
      <stop
         id="stop3702-189"
         style="stop-color:#509528;stop-opacity:1"
         offset="0" />
      <stop
         id="stop3704-64"
         style="stop-color:#78cd46;stop-opacity:1"
         offset="1" />
    </linearGradient>
    <linearGradient
       inkscape:collect="always"
       xlink:href="#linearGradient3737-2"
       id="linearGradient8923"
       gradientUnits="userSpaceOnUse"
       x1="48"
       y1="20.220806"
       x2="48"
       y2="138.66119" />
    <linearGradient
       id="linearGradient3737-2">
      <stop
         id="stop3739-15"
         style="stop-color:#ffffff;stop-opacity:1"
         offset="0" />
      <stop
         id="stop3741-99"
         style="stop-color:#ffffff;stop-opacity:0"
         offset="1" />
    </linearGradient>
    <clipPath
       id="clipPath3613-16">
      <rect
         width="84"
         height="84"
         rx="6"
         ry="6"
         x="6"
         y="6"
         id="rect3615-21"
         style="fill:#ffffff;fill-opacity:1;fill-rule:nonzero;stroke:none" />
    </clipPath>
    <filter
       x="-0.192"
       y="-0.192"
       width="1.3839999"
       height="1.3839999"
       color-interpolation-filters="sRGB"
       id="filter3794-05">
      <feGaussianBlur
         id="feGaussianBlur3796-32"
         stdDeviation="5.28" />
    </filter>
    <linearGradient
       inkscape:collect="always"
       xlink:href="#linearGradient3718"
       id="linearGradient8937"
       gradientUnits="userSpaceOnUse"
       gradientTransform="matrix(0.87246696,0,0,0.87246696,96.795666,21.700793)"
       x1="-45.877167"
       y1="75.985176"
       x2="-3.84953"
       y2="22.234644" />
    <linearGradient
       id="linearGradient3718">
      <stop
         id="stop3720"
         style="stop-color:#b3b3b3;stop-opacity:1"
         offset="0" />
      <stop
         id="stop3722-2"
         style="stop-color:#efefef;stop-opacity:1"
         offset="1" />
    </linearGradient>
    <linearGradient
       inkscape:collect="always"
       xlink:href="#linearGradient3726"
       id="linearGradient8939"
       gradientUnits="userSpaceOnUse"
       gradientTransform="matrix(0.87246696,0,0,0.87246696,96.795666,21.700793)"
       x1="-16.228367"
       y1="38.28994"
       x2="-49.582024"
       y2="66.303574" />
    <linearGradient
       id="linearGradient3726">
      <stop
         id="stop3728-8"
         style="stop-color:#ffffff;stop-opacity:1"
         offset="0" />
      <stop
         id="stop3730"
         style="stop-color:#ffffff;stop-opacity:0"
         offset="1" />
    </linearGradient>
    <linearGradient
       inkscape:collect="always"
       xlink:href="#linearGradient3726"
       id="linearGradient8941"
       gradientUnits="userSpaceOnUse"
       gradientTransform="matrix(0.87246696,0,0,0.87246696,96.795666,21.700793)"
       x1="-11.669582"
       y1="39.987526"
       x2="-33.248989"
       y2="72.85157" />
    <linearGradient
       id="linearGradient6058">
      <stop
         id="stop6060"
         style="stop-color:#ffffff;stop-opacity:1"
         offset="0" />
      <stop
         id="stop6062"
         style="stop-color:#ffffff;stop-opacity:0"
         offset="1" />
    </linearGradient>
  </defs>
  <sodipodi:namedview
     id="base"
     pagecolor="#ffffff"
     bordercolor="#666666"
     borderopacity="1.0"
     inkscape:pageopacity="0.0"
     inkscape:pageshadow="2"
     inkscape:zoom="3.959798"
     inkscape:cx="36.39115"
     inkscape:cy="42.877139"
     inkscape:document-units="px"
     inkscape:current-layer="layer1"
     showgrid="false"
     inkscape:window-width="1280"
     inkscape:window-height="725"
     inkscape:window-x="0"
     inkscape:window-y="25"
     inkscape:window-maximized="1" />
  <metadata
     id="metadata2987">
    <rdf:RDF>
      <cc:Work
         rdf:about="">
        <dc:format>image/svg+xml</dc:format>
        <dc:type
           rdf:resource="http://purl.org/dc/dcmitype/StillImage" />
        <dc:title></dc:title>
      </cc:Work>
    </rdf:RDF>
  </metadata>
  <g
     inkscape:label="Layer 1"
     inkscape:groupmode="layer"
     id="layer1"
     transform="translate(0,-956.36218)">
    <g
       transform="translate(-182.1875,-40.40625)"
       id="g6008">
      <rect
         y="964.36218"
         x="8"
         height="80"
         width="80"
         id="rect9283"
         style="fill:#000000;fill-opacity:1;stroke:none;filter:url(#filter6279)"
         rx="5"
         ry="5"
         transform="translate(182.1875,40.40625)" />
      <rect
         ry="5"
         rx="5"
         style="fill:url(#linearGradient10902-1);fill-opacity:1;stroke:none"
         id="rect9285"
         width="80"
         height="80"
         x="8"
         y="964.36218"
         transform="translate(182.1875,40.40625)" />
      <g
         id="g8951">
        <g
           transform="translate(182.1875,996.76843)"
           id="layer5">
          <g
             id="g6773">
            <g
               id="g6776">
              <rect
                 width="66"
                 height="66"
                 rx="12"
                 ry="12"
                 x="15"
                 y="15"
                 clip-path="url(#clipPath3613-16)"
                 id="rect3171"
                 style="opacity:0.1;fill:url(#linearGradient8923);fill-opacity:1;fill-rule:nonzero;stroke:#ffffff;stroke-width:0.5;stroke-linecap:round;stroke-linejoin:miter;stroke-miterlimit:4;stroke-opacity:1;stroke-dasharray:none;stroke-dashoffset:0;filter:url(#filter3794-05)" />
            </g>
          </g>
        </g>
        <g
           id="g6743"
           transform="matrix(1.0356446,0,0,1.0356446,-7.59854,-36.999669)" />
        <g
           id="g8943">
          <g
             id="g3061"
             transform="matrix(0.76753994,0,0,0.76753994,185.47081,1004.1751)">
            <path
               style="fill:url(#linearGradient8937);fill-opacity:1;stroke:none"
               id="path3710"
               inkscape:connector-curvature="0"
               d="M 56.732448,88.012125 C 54.400623,77.907556 52.849026,73.057058 56.646082,67.284803 61.957753,59.210042 77.718859,59.512057 93.437079,40.943831 84.455239,63.39843 88.082521,89.393947 56.732446,88.012125 z" />
            <path
               style="opacity:0.39393939;fill:url(#linearGradient8939);fill-opacity:1;stroke:none"
               id="path3712"
               inkscape:connector-curvature="0"
               d="M 56.732451,86.803031 C 71.75976,68.58026 87.650707,48.975669 87.650707,48.975669 71.241577,61.066606 61.955217,61.874183 57.855181,67.025712 c -4.827465,6.06551 -2.072732,16.150038 -1.12273,19.777319 z" />
            <path
               style="opacity:0.45021644;fill:url(#linearGradient8941);fill-opacity:1;stroke:none"
               id="path3714"
               inkscape:connector-curvature="0"
               d="M 58.459728,87.234851 87.046159,52.689314 c -0.518183,4.750011 -2.248402,20.651486 -8.895475,27.722793 -7.186796,7.645476 -19.690956,6.822744 -19.690956,6.822744 z" />
            <path
               style="fill:#9f9f9f;fill-opacity:1;stroke:none"
               id="path3716"
               inkscape:connector-curvature="0"
               d="m 58.287,86.630304 c 0.777274,0.345455 28.672796,-35.236448 28.672796,-35.236448 0,0 -29.277344,32.904624 -28.672796,35.236448 z" />
          </g>
          <path
             style="font-size:136.83798218px;font-style:normal;font-variant:normal;font-weight:bold;font-stretch:normal;text-align:start;line-height:125%;writing-mode:lr-tb;text-anchor:start;fill:#ffffff;fill-opacity:1;stroke:none;font-family:UnDotum;-inkscape-font-specification:UnDotum Bold"
             id="path3665"
             inkscape:connector-curvature="0"
             d="m 215.15312,1018.1323 c -3.44474,0 -6.22819,1.2533 -8.34384,3.7593 -2.41403,2.8558 -3.62178,6.7261 -3.62178,11.6218 0,3.6426 0.69844,6.809 2.10888,9.4899 2.14278,3.9924 5.43554,5.9829 9.85674,5.9829 0.95527,4.2662 3.59027,6.5102 9.78796,5.5702 l 0,-3.0946 c -2.88516,0.2659 -3.51152,-1.3199 -3.73639,-4.126 l 0,-0.1835 c 0.86794,-0.5536 1.65579,-1.2409 2.36103,-2.0859 2.30551,-2.7683 3.46129,-6.6282 3.46132,-11.553 -3e-5,-3.6717 -0.7359,-6.8319 -2.20057,-9.5129 -2.16993,-3.9048 -5.3878,-5.8682 -9.67335,-5.8682 z m 23.22062,1.2378 -4.3553,0.1146 -1.44412,6.831 -3.09456,0 0,5.1117 2.84241,0 0,9.788 c 0,2.681 0.38239,4.5608 1.12321,5.639 0.93288,1.4278 2.91429,2.1318 5.95989,2.1318 1.01518,0 2.27314,-0.138 3.78223,-0.4585 l 0,-4.8596 c -1.04265,0.058 -1.81681,0.092 -2.33811,0.092 -0.85058,0 -1.45421,-0.1441 -1.81089,-0.4355 -0.43901,-0.3497 -0.66477,-1.254 -0.66476,-2.682 l 0,-9.2149 4.49285,0 0,-5.1117 -4.49285,0 0,-6.9455 z m -23.22062,4.4929 c 3.36334,0 5.04296,3.227 5.04298,9.6962 -2e-5,6.4693 -1.67964,9.7192 -5.04298,9.7192 -3.41762,0 -5.13468,-3.2666 -5.13467,-9.765 -1e-5,-0.2623 -1e-5,-0.5171 0,-0.7794 0.16274,-5.9155 1.87979,-8.871 5.13467,-8.871 z" />
        </g>
      </g>
    </g>
  </g>
</svg>
