<?xml version="1.0" encoding="UTF-8" standalone="no"?>
<!-- Created with Inkscape (http://www.inkscape.org/) -->
<svg id="svg2982" xmlns:rdf="http://www.w3.org/1999/02/22-rdf-syntax-ns#" xmlns="http://www.w3.org/2000/svg" height="96" width="96" version="1.1" xmlns:cc="http://creativecommons.org/ns#" xmlns:xlink="http://www.w3.org/1999/xlink" xmlns:dc="http://purl.org/dc/elements/1.1/">
 <defs id="defs2984">
  <filter id="filter6279" color-interpolation-filters="sRGB">
   <feGaussianBlur id="feGaussianBlur6281" stdDeviation="0.8"/>
  </filter>
  <linearGradient id="linearGradient6135" y2="902.36" gradientUnits="userSpaceOnUse" x2="48" gradientTransform="translate(0 -.0000096172)" y1="1052.4" x1="48">
   <stop id="stop3702-189" style="stop-color:#509528" offset="0"/>
   <stop id="stop3704-64" style="stop-color:#78cd46" offset="1"/>
  </linearGradient>
  <linearGradient id="linearGradient6139" y2="138.66" gradientUnits="userSpaceOnUse" x2="48" y1="20.221" x1="48">
   <stop id="stop3739-15" style="stop-color:#fff" offset="0"/>
   <stop id="stop3741-99" style="stop-color:#fff;stop-opacity:0" offset="1"/>
  </linearGradient>
  <clipPath id="clipPath3613-16">
   <rect id="rect3615-21" style="fill:#fff" rx="6" ry="6" height="84" width="84" y="6" x="6"/>
  </clipPath>
  <filter id="filter3794-05" height="1.384" width="1.384" color-interpolation-filters="sRGB" y="-.192" x="-.192">
   <feGaussianBlur id="feGaussianBlur3796-32" stdDeviation="5.28"/>
  </filter>
  <linearGradient id="linearGradient6252" y2="18.868" gradientUnits="userSpaceOnUse" x2="117.36" y1="121.33" x1="61.295">
   <stop id="stop3953-0" offset="0"/>
   <stop id="stop3955-0" style="stop-opacity:0" offset="1"/>
  </linearGradient>
  <filter id="filter3963" color-interpolation-filters="sRGB">
   <feGaussianBlur id="feGaussianBlur3965" stdDeviation="0.91605611"/>
  </filter>
  <linearGradient id="linearGradient6254" y2="115.49" gradientUnits="userSpaceOnUse" x2="149.53" y1="115.49" x1="136.41">
   <stop id="stop3487-8" style="stop-color:#e6605b" offset="0"/>
   <stop id="stop3489-54" style="stop-color:#f08682" offset="1"/>
  </linearGradient>
  <filter id="filter3495" height="1.3333" width="1.8571" color-interpolation-filters="sRGB" y="-.16667" x="-.42857">
   <feGaussianBlur id="feGaussianBlur3497" stdDeviation="0.55242721"/>
  </filter>
  <filter id="filter3509" height="1.3534" width="1.3669" color-interpolation-filters="sRGB" y="-.17668" x="-.18344">
   <feGaussianBlur id="feGaussianBlur3511" stdDeviation="0.65925"/>
  </filter>
  <linearGradient id="linearGradient6256" y2="116.47" xlink:href="#linearGradient3339" gradientUnits="userSpaceOnUse" x2="148.53" gradientTransform="matrix(1.0894 0 0 1 -13.276 0)" y1="116.47" x1="137.41"/>
  <linearGradient id="linearGradient3339">
   <stop id="stop3341" offset="0"/>
   <stop id="stop3347-9" style="stop-opacity:.49804" offset="0.7"/>
   <stop id="stop3343-4" style="stop-opacity:0" offset="1"/>
  </linearGradient>
  <linearGradient id="linearGradient6258" y2="60" gradientUnits="userSpaceOnUse" x2="150" gradientTransform="translate(-23.733)" y1="60" x1="136">
   <stop id="stop3280" style="stop-color:#945a00" offset="0"/>
   <stop id="stop3290" style="stop-color:#e28e0a" offset=".25"/>
   <stop id="stop3286-6" style="stop-color:#ffba14" offset="0.3"/>
   <stop id="stop3288-8" style="stop-color:#f3ac00" offset="0.7"/>
   <stop id="stop3292-3" style="stop-color:#ffd314" offset=".75"/>
   <stop id="stop3282" style="stop-color:#ffed94" offset="1"/>
  </linearGradient>
  <linearGradient id="linearGradient6260" y2="120.02" gradientUnits="userSpaceOnUse" x2="143" gradientTransform="translate(-23.733)" y1="0.0000024" x1="143">
   <stop id="stop3256" offset="0"/>
   <stop id="stop3266-2" offset=".065884"/>
   <stop id="stop3264-3" style="stop-color:#ad5f1b" offset=".07"/>
   <stop id="stop3268-6" style="stop-color:#ad601a" offset=".19137"/>
   <stop id="stop3262-2" style="stop-color:#785800" offset=".20983"/>
   <stop id="stop3258-2" style="stop-color:#785700" offset="1"/>
  </linearGradient>
  <linearGradient id="linearGradient6262" y2="4.9219" gradientUnits="userSpaceOnUse" x2="144.81" gradientTransform="translate(-23.733)" y1="4.9219" x1="141.25">
   <stop id="stop3396-4" offset="0"/>
   <stop id="stop3402-7" style="stop-color:#7d7d7d" offset=".5"/>
   <stop id="stop3398-0" offset="1"/>
  </linearGradient>
  <linearGradient id="linearGradient6264" y2="17.043" gradientUnits="userSpaceOnUse" x2="149" gradientTransform="translate(-23.733)" y1="17.043" x1="136.99">
   <stop id="stop3310-4" style="stop-color:#da8539" offset="0"/>
   <stop id="stop3312-9" style="stop-color:#fadfc7" offset="1"/>
  </linearGradient>
  <linearGradient id="linearGradient6266" y2="66" xlink:href="#linearGradient5452-6" gradientUnits="userSpaceOnUse" x2="146.08" gradientTransform="matrix(1 0 0 1.2654 -23.733 -54.364)" y1="118.94" x1="146.11"/>
  <linearGradient id="linearGradient5452-6">
   <stop id="stop5454" style="stop-color:#fff" offset="0"/>
   <stop id="stop5456" style="stop-color:#fff;stop-opacity:0" offset="1"/>
  </linearGradient>
  <linearGradient id="linearGradient6268" y2="66" xlink:href="#linearGradient5452-6" gradientUnits="userSpaceOnUse" x2="146.08" gradientTransform="matrix(1 0 0 1.2654 -29.858 -54.364)" y1="118.94" x1="146.11"/>
  <filter id="filter3382" height="1.2274" width="1.8632" color-interpolation-filters="sRGB" y="-.11371" x="-.43161">
   <feGaussianBlur id="feGaussianBlur3384" stdDeviation="0.73914765"/>
  </filter>
  <filter id="filter3390" height="1.2988" width="2.2196" color-interpolation-filters="sRGB" y="-.1494" x="-.60980">
   <feGaussianBlur id="feGaussianBlur3392" stdDeviation="0.77812506"/>
  </filter>
  <linearGradient id="linearGradient6270" y2="106" gradientUnits="userSpaceOnUse" x2="150" y1="106" x1="136">
   <stop id="stop3403-4" style="stop-color:#404040" offset="0"/>
   <stop id="stop3447" style="stop-color:#808080" offset=".2"/>
   <stop id="stop3410-6" style="stop-color:#efefef" offset="0.7"/>
   <stop id="stop3405-4" style="stop-color:#dcdcdc" offset="1"/>
  </linearGradient>
  <linearGradient id="linearGradient6272" y2="106" gradientUnits="userSpaceOnUse" x2="150" y1="106" x1="136">
   <stop id="stop3463" style="stop-color:#444542" offset="0"/>
   <stop id="stop3465-5" style="stop-color:#71746e" offset="1"/>
  </linearGradient>
  <linearGradient id="linearGradient6274" y2="98.951" xlink:href="#linearGradient3339" spreadMethod="reflect" gradientUnits="userSpaceOnUse" x2="148.96" gradientTransform="translate(.042252 1.5494)" y1="98.951" x1="142.96"/>
  <linearGradient id="linearGradient6276" y2="98.951" xlink:href="#linearGradient3355-3" spreadMethod="reflect" gradientUnits="userSpaceOnUse" x2="148.96" gradientTransform="translate(.042252 2.5494)" y1="98.951" x1="142.96"/>
  <linearGradient id="linearGradient3355-3">
   <stop id="stop3357-7" style="stop-color:#fff" offset="0"/>
   <stop id="stop3359-71" style="stop-color:#fff;stop-opacity:.49804" offset="0.7"/>
   <stop id="stop3361-2" style="stop-color:#fff;stop-opacity:0" offset="1"/>
  </linearGradient>
  <linearGradient id="linearGradient6278" y2="98.951" xlink:href="#linearGradient3339" spreadMethod="reflect" gradientUnits="userSpaceOnUse" x2="148.96" gradientTransform="translate(.042252 3.5494)" y1="98.951" x1="142.96"/>
  <linearGradient id="linearGradient6280" y2="98.951" xlink:href="#linearGradient3355-3" spreadMethod="reflect" gradientUnits="userSpaceOnUse" x2="148.96" gradientTransform="translate(.042252 4.5494)" y1="98.951" x1="142.96"/>
  <linearGradient id="linearGradient6282" y2="98.951" xlink:href="#linearGradient3339" spreadMethod="reflect" gradientUnits="userSpaceOnUse" x2="148.96" gradientTransform="translate(.042252 9.5494)" y1="98.951" x1="142.96"/>
  <linearGradient id="linearGradient6284" y2="98.951" xlink:href="#linearGradient3355-3" spreadMethod="reflect" gradientUnits="userSpaceOnUse" x2="148.96" gradientTransform="translate(.042252 10.549)" y1="98.951" x1="142.96"/>
  <linearGradient id="linearGradient6286" y2="98.951" xlink:href="#linearGradient3339" spreadMethod="reflect" gradientUnits="userSpaceOnUse" x2="148.96" gradientTransform="translate(.042252 11.549)" y1="98.951" x1="142.96"/>
  <linearGradient id="linearGradient6288" y2="98.951" xlink:href="#linearGradient3355-3" spreadMethod="reflect" gradientUnits="userSpaceOnUse" x2="148.96" gradientTransform="translate(.042252 12.549)" y1="98.951" x1="142.96"/>
  <linearGradient id="linearGradient6290" y2="106" spreadMethod="repeat" gradientUnits="userSpaceOnUse" x2="139.03" y1="106" x1="137">
   <stop id="stop3441" style="stop-color:#3d3d3d" offset="0"/>
   <stop id="stop3443-3" style="stop-color:#fff" offset="1"/>
  </linearGradient>
  <filter id="filter3451" height="1.2715" width="3.0699" color-interpolation-filters="sRGB" y="-.13574" x="-1.035">
   <feGaussianBlur id="feGaussianBlur3453" stdDeviation="0.9498173"/>
  </filter>
  <filter id="filter3457" height="1.2754" width="2.8667" color-interpolation-filters="sRGB" y="-.13770" x="-.93333">
   <feGaussianBlur id="feGaussianBlur3459" stdDeviation="0.92807767"/>
  </filter>
 </defs>
 <metadata id="metadata2987">
  <rdf:RDF>
   <cc:Work rdf:about="">
    <dc:format>image/svg+xml</dc:format>
    <dc:type rdf:resource="http://purl.org/dc/dcmitype/StillImage"/>
    <dc:title/>
   </cc:Work>
  </rdf:RDF>
 </metadata>
 <g id="layer1" transform="translate(0 -956.36)">
  <g id="g6325">
   <rect id="rect9283" style="filter:url(#filter6279)" rx="5" ry="5" height="80" width="80" y="964.36" x="8"/>
   <rect id="rect9285" style="fill:url(#linearGradient6135)" rx="5" ry="5" height="80" width="80" y="964.36" x="8"/>
   <g id="layer5" transform="translate(0 956.36)">
    <g id="g6773">
     <g id="g6776">
      <rect id="rect3171" style="opacity:.1;filter:url(#filter3794-05);stroke:#fff;stroke-linecap:round;stroke-width:.5;fill:url(#linearGradient6139)" clip-path="url(#clipPath3613-16)" rx="12" ry="12" height="66" width="66" y="15" x="15"/>
     </g>
    </g>
   </g>
   <g id="g6292">
    <path id="path3665" d="m32.966 977.73c-3.4447 0-6.2282 1.2533-8.3438 3.7593-2.414 2.8558-3.6218 6.7261-3.6218 11.622 0 3.6426 0.69844 6.809 2.1089 9.49 2.1428 3.9924 5.4355 5.9829 9.8567 5.9829 0.95527 4.2662 3.5903 6.5101 9.788 5.5701v-3.0945c-2.8852 0.2659-3.5115-1.3199-3.7364-4.126v-0.1836c0.86794-0.5536 1.6558-1.2409 2.361-2.0859 2.3055-2.7683 3.4613-6.6282 3.4613-11.553-0.00003-3.6717-0.7359-6.8319-2.2006-9.5129-2.1699-3.9048-5.3878-5.8682-9.6734-5.8682zm23.221 1.2378-4.3553 0.1146-1.4441 6.831h-3.0946v5.1117h2.8424v9.788c0 2.681 0.38239 4.5608 1.1232 5.639 0.93288 1.4278 2.9143 2.1318 5.9599 2.1318 1.0152 0 2.2731-0.138 3.7822-0.4585v-4.8596c-1.0426 0.058-1.8168 0.092-2.3381 0.092-0.85058 0-1.4542-0.1441-1.8109-0.4355-0.43901-0.3497-0.66477-1.2539-0.66476-2.682v-9.2148h4.4928v-5.1117h-4.4928v-6.9455zm-23.221 4.4929c3.3633 0 5.043 3.227 5.043 9.6962-0.00002 6.4693-1.6796 9.7192-5.043 9.7192-3.4176 0-5.1347-3.2666-5.1347-9.765-0.00001-0.2623-0.00001-0.5171 0-0.7794 0.16274-5.9155 1.8798-8.871 5.1347-8.871z" style="fill:#fff"/>
    <g id="layer6" transform="matrix(.60338 0 0 .60338 21.771 979.29)">
     <path id="path3589" style="opacity:.3;filter:url(#filter3963);fill:url(#linearGradient6252)" transform="matrix(.55070 .096685 -.096685 .55070 26.931 12.279)" d="m118.38 11.031c-0.52336-0.06895-1.0579-0.0102-1.5625 0.125-1.0064 0.26967-1.8855 0.91897-2.4375 1.875l-2.0625 3.5625a1.0492 1.0492 0 0 0 -0.84375 0.53125l-9.5 16.469-36 62.344a1.0492 1.0492 0 0 0 -0.09375 0.25l-6.386 24.032a1.0492 1.0492 0 0 0 1.75 1.03l17.625-17.53a1.0492 1.0492 0 0 0 0.156 -0.22l36-62.344 9.5-16.469a1.0492 1.0492 0 0 0 0.0625 -0.90625l2.0938-3.625c1.1113-1.9248 0.4576-4.4191-1.4688-5.5312l-5.3125-3.0625c-0.47927-0.2767-1.0079-0.4623-1.5312-0.53125z"/>
     <g id="g3643" transform="matrix(-.48421 -.27956 .27956 -.48421 117.64 125.45)">
      <g id="g3537">
       <rect id="rect3483" style="stroke-linejoin:round;stroke:#df453f;stroke-width:1.7885;fill:url(#linearGradient6254)" rx="3" ry="3" height="16" width="12.116" y="107.49" x="136.91"/>
       <path id="path3493" style="opacity:.3;filter:url(#filter3495);fill:#701300" transform="matrix(1.8857 0 0 1 -123.51 -1.9445)" d="m141.24 118.19a1.5468 3.9775 0 1 1 -3.0936 0 1.5468 3.9775 0 1 1 3.0936 0z"/>
       <path id="path3499" style="opacity:.8;filter:url(#filter3509);fill:#fff;fill-rule:evenodd" d="m146.31 113.12c-0.85193 9.5067-3.9375 8.3125-6.5 8.9375 4.0763 0.0625 8.625-0.0625 8.625-0.0625-2.4375-0.5625-1.8125-2.375-2.125-8.875z"/>
       <rect id="rect3525" style="opacity:.2;fill:url(#linearGradient6256)" height="1" width="12.119" y="115.97" x="136.41"/>
      </g>
      <g id="g3311" transform="translate(23.733)">
       <path id="rect2480" style="stroke-linejoin:round;stroke:url(#linearGradient6260);stroke-width:1.7885;fill:url(#linearGradient6258)" d="m112.77 24.5 6.5-24 6.5 24v72h-13v-72z"/>
       <path id="path3272" style="fill:url(#linearGradient6262);fill-rule:evenodd" d="m117.69 8.0717 3.1426 0.022097-1.5824-5.7913"/>
       <path id="path3274" style="fill:url(#linearGradient6264);fill-rule:evenodd" d="m117.73 8.0902-3.77 13.91s-0.46779 1.6535-0.698 2.6083c-0.19122 0.64228 1.9589 1.6113 3.0182-1.6083 1.2153 4.5138 5.5759 3.438 5.9883 0.01105 0.3425 1.7015 1.754 2.95 2.9886 1.5219-0.23478-0.90874-0.43641-1.5219-0.43641-1.5219l-4.0217-14.921h-3.0715z"/>
       <path id="path3294" style="opacity:.5;stroke:url(#linearGradient6266);stroke-width:1.7885px;fill:none" d="m122.37 96.305v-67.217"/>
       <path id="path3304" style="opacity:.5;stroke:url(#linearGradient6268);stroke-width:1.7885px;fill:none" d="m116.25 96.305v-67.217"/>
       <path id="path3372" style="opacity:.4;filter:url(#filter3382);fill:#ac4311;fill-rule:evenodd" d="m118.7 5.9799-4.773 17.899 1.9887-0.83969 2.7842-17.059z"/>
       <path id="path3386" style="opacity:.15;stroke:#4d2600;stroke-width:1.7885px;fill:none" d="m113.08 24.625s1.4867 1.7649 3.25-1.5312c2 5.25 5.1686 2.0871 5.9375-0.03125 1.375 3.4375 3.125 1.4375 3.125 1.4375"/>
       <path id="path3388" style="opacity:.8;filter:url(#filter3390);fill:#fff;fill-rule:evenodd" transform="matrix(1.1224 0 0 1.345 -41.703 -4.7709)" d="m144.06 8.9375-0.375 12.5 3.0625-0.3125-2.6875-12.188z"/>
      </g>
      <g id="g3620">
       <rect id="rect3333" style="stroke-linejoin:round;stroke:url(#linearGradient6272);stroke-width:1.7885;fill:url(#linearGradient6270)" height="19" width="13" y="96.5" x="136.5"/>
       <rect id="rect3337" style="opacity:.4;fill:url(#linearGradient6274)" height="1" width="12" y="100" x="137"/>
       <rect id="rect3351" style="opacity:.6;fill:url(#linearGradient6276)" height="1" width="12" y="101" x="137"/>
       <rect id="rect3369" style="opacity:.4;fill:url(#linearGradient6278)" height="1" width="12" y="102" x="137"/>
       <rect id="rect3371" style="opacity:.6;fill:url(#linearGradient6280)" height="1" width="12" y="103" x="137"/>
       <rect id="rect3379" style="opacity:.4;fill:url(#linearGradient6282)" height="1" width="12" y="108" x="137"/>
       <rect id="rect3381" style="opacity:.6;fill:url(#linearGradient6284)" height="1" width="12" y="109" x="137"/>
       <rect id="rect3385" style="opacity:.4;fill:url(#linearGradient6286)" height="1" width="12" y="110" x="137"/>
       <rect id="rect3387" style="opacity:.6;fill:url(#linearGradient6288)" height="1" width="12" y="111" x="137"/>
       <rect id="rect3437" style="opacity:.3;fill:url(#linearGradient6290)" height="4" width="12" y="104" x="137"/>
       <path id="path3449" style="opacity:.6;filter:url(#filter3451)" transform="matrix(1.2554 0 0 1 -35.754 0)" d="m140 106.08a1.1013 8.3969 0 1 1 -2.2026 0 1.1013 8.3969 0 1 1 2.2026 0z"/>
       <path id="path3455" style="opacity:.8;filter:url(#filter3457);fill:#fff" d="m147.34 106.04a1.1932 8.0875 0 1 1 -2.3865 0 1.1932 8.0875 0 1 1 2.3865 0z"/>
      </g>
     </g>
    </g>
   </g>
  </g>
 </g>
</svg>
