<?xml version="1.0" encoding="UTF-8" standalone="no"?>
<!-- Created with Inkscape (http://www.inkscape.org/) -->

<svg
   xmlns:dc="http://purl.org/dc/elements/1.1/"
   xmlns:cc="http://creativecommons.org/ns#"
   xmlns:rdf="http://www.w3.org/1999/02/22-rdf-syntax-ns#"
   xmlns:svg="http://www.w3.org/2000/svg"
   xmlns="http://www.w3.org/2000/svg"
   xmlns:xlink="http://www.w3.org/1999/xlink"
   xmlns:sodipodi="http://sodipodi.sourceforge.net/DTD/sodipodi-0.dtd"
   xmlns:inkscape="http://www.inkscape.org/namespaces/inkscape"
   width="96"
   height="96"
   id="svg2982"
   version="1.1"
   inkscape:version="0.48.1 r9760"
   sodipodi:docname="qtlinguist.svg">
  <defs
     id="defs2984">
    <filter
       color-interpolation-filters="sRGB"
       inkscape:collect="always"
       id="filter6279">
      <feGaussianBlur
         inkscape:collect="always"
         stdDeviation="0.8"
         id="feGaussianBlur6281" />
    </filter>
    <linearGradient
       inkscape:collect="always"
       xlink:href="#linearGradient3700-83"
       id="linearGradient7394"
       gradientUnits="userSpaceOnUse"
       gradientTransform="translate(0,-9.6171873e-6)"
       x1="48"
       y1="1052.3622"
       x2="48"
       y2="902.36218" />
    <linearGradient
       id="linearGradient3700-83">
      <stop
         id="stop3702-189"
         style="stop-color:#509528;stop-opacity:1"
         offset="0" />
      <stop
         id="stop3704-64"
         style="stop-color:#78cd46;stop-opacity:1"
         offset="1" />
    </linearGradient>
    <linearGradient
       inkscape:collect="always"
       xlink:href="#linearGradient3737-2"
       id="linearGradient7398"
       gradientUnits="userSpaceOnUse"
       x1="48"
       y1="20.220806"
       x2="48"
       y2="138.66119" />
    <linearGradient
       id="linearGradient3737-2">
      <stop
         id="stop3739-15"
         style="stop-color:#ffffff;stop-opacity:1"
         offset="0" />
      <stop
         id="stop3741-99"
         style="stop-color:#ffffff;stop-opacity:0"
         offset="1" />
    </linearGradient>
    <clipPath
       id="clipPath3613-16">
      <rect
         width="84"
         height="84"
         rx="6"
         ry="6"
         x="6"
         y="6"
         id="rect3615-21"
         style="fill:#ffffff;fill-opacity:1;fill-rule:nonzero;stroke:none" />
    </clipPath>
    <filter
       x="-0.192"
       y="-0.192"
       width="1.3839999"
       height="1.3839999"
       color-interpolation-filters="sRGB"
       id="filter3794-05">
      <feGaussianBlur
         id="feGaussianBlur3796-32"
         stdDeviation="5.28" />
    </filter>
    <linearGradient
       x1="69.420586"
       y1="81.331993"
       x2="69.420586"
       y2="53.325588"
       id="linearGradient3865-5"
       xlink:href="#linearGradient3859"
       gradientUnits="userSpaceOnUse"
       gradientTransform="translate(2,0)" />
    <linearGradient
       id="linearGradient3859">
      <stop
         id="stop3861"
         style="stop-color:#8dd35f;stop-opacity:1"
         offset="0" />
      <stop
         id="stop3863"
         style="stop-color:#a1ed6f;stop-opacity:1"
         offset="1" />
    </linearGradient>
  </defs>
  <sodipodi:namedview
     id="base"
     pagecolor="#ffffff"
     bordercolor="#666666"
     borderopacity="1.0"
     inkscape:pageopacity="0.0"
     inkscape:pageshadow="2"
     inkscape:zoom="3.959798"
     inkscape:cx="36.39115"
     inkscape:cy="42.877139"
     inkscape:document-units="px"
     inkscape:current-layer="layer1"
     showgrid="false"
     inkscape:window-width="1280"
     inkscape:window-height="725"
     inkscape:window-x="0"
     inkscape:window-y="25"
     inkscape:window-maximized="1" />
  <metadata
     id="metadata2987">
    <rdf:RDF>
      <cc:Work
         rdf:about="">
        <dc:format>image/svg+xml</dc:format>
        <dc:type
           rdf:resource="http://purl.org/dc/dcmitype/StillImage" />
        <dc:title></dc:title>
      </cc:Work>
    </rdf:RDF>
  </metadata>
  <g
     inkscape:label="Layer 1"
     inkscape:groupmode="layer"
     id="layer1"
     transform="translate(0,-956.36218)">
    <g
       id="g7496">
      <g
         transform="translate(-182.1875,-40.40625)"
         id="g26594" />
      <rect
         y="964.36218"
         x="8"
         height="80"
         width="80"
         id="rect9283"
         style="fill:#000000;fill-opacity:1;stroke:none;filter:url(#filter6279)"
         rx="5"
         ry="5" />
      <rect
         ry="5"
         rx="5"
         style="fill:url(#linearGradient7394);fill-opacity:1;stroke:none"
         id="rect9285"
         width="80"
         height="80"
         x="8"
         y="964.36218" />
      <g
         transform="translate(0,956.36218)"
         id="layer5">
        <g
           id="g6773">
          <g
             id="g6776">
            <rect
               width="66"
               height="66"
               rx="12"
               ry="12"
               x="15"
               y="15"
               clip-path="url(#clipPath3613-16)"
               id="rect3171"
               style="opacity:0.1;fill:url(#linearGradient7398);fill-opacity:1;fill-rule:nonzero;stroke:#ffffff;stroke-width:0.5;stroke-linecap:round;stroke-linejoin:miter;stroke-miterlimit:4;stroke-opacity:1;stroke-dasharray:none;stroke-dashoffset:0;filter:url(#filter3794-05)" />
          </g>
        </g>
      </g>
      <g
         id="g6743"
         transform="matrix(1.0356446,0,0,1.0356446,-189.78604,-77.405919)" />
      <g
         id="g7490">
        <g
           transform="matrix(0.87075282,0,0,0.87075282,4.7208534,957.73576)"
           id="g3054">
          <path
             style="fill:url(#linearGradient3865-5);fill-opacity:1;stroke:none;display:inline"
             id="path3625"
             inkscape:connector-curvature="0"
             d="M 69.226473,52.944378 C 59.712555,52.944378 52,59.25465 52,67.038765 c 0,4.958321 3.131961,9.314543 7.862841,11.826887 -0.179899,1.309606 -0.999143,4.515329 -4.877572,5.611654 5.0233,0.545935 8.35933,-1.903424 10.130341,-3.751978 1.317307,0.263879 2.694151,0.407824 4.110863,0.407824 9.513918,0 17.226473,-6.310272 17.226473,-14.094387 0,-7.784115 -7.712555,-14.094387 -17.226473,-14.094387 z" />
          <path
             style="opacity:0.3;fill:#ffffff;fill-opacity:1;stroke:none;display:inline"
             id="path3867"
             inkscape:connector-curvature="0"
             d="M 69.21875,52.9375 C 59.704832,52.9375 52,59.247135 52,67.03125 c 0,0.21703 0.01938,0.441632 0.03125,0.65625 0.226161,-7.623047 7.816011,-13.75 17.1875,-13.75 9.306923,0 16.861934,6.043972 17.1875,13.59375 0.0072,-0.167914 0.03125,-0.33064 0.03125,-0.5 0,-7.784115 -7.704832,-14.09375 -17.21875,-14.09375 z M 59.65625,79.75 C 59.255877,81.277183 58.180827,83.569618 55,84.46875 c 0.721286,0.07839 1.379177,0.09698 2.03125,0.0625 2.139993,-1.426242 2.701449,-3.620346 2.84375,-4.65625 -0.07392,-0.03925 -0.145617,-0.08485 -0.21875,-0.125 z" />
        </g>
        <path
           style="font-size:136.83798218px;font-style:normal;font-variant:normal;font-weight:bold;font-stretch:normal;text-align:start;line-height:125%;writing-mode:lr-tb;text-anchor:start;fill:#ffffff;fill-opacity:1;stroke:none;font-family:UnDotum;-inkscape-font-specification:UnDotum Bold"
           id="path3665"
           inkscape:connector-curvature="0"
           d="m 32.96562,977.72605 c -3.44474,0 -6.22819,1.2533 -8.34384,3.7593 -2.41403,2.8558 -3.62178,6.7261 -3.62178,11.6218 0,3.6426 0.69844,6.809 2.10888,9.48995 2.14278,3.9924 5.43554,5.9829 9.85674,5.9829 0.95527,4.2662 3.59027,6.5101 9.78796,5.5701 l 0,-3.0945 c -2.88516,0.2659 -3.51152,-1.3199 -3.73639,-4.126 l 0,-0.1836 c 0.86794,-0.5536 1.65579,-1.2409 2.36103,-2.0859 2.30551,-2.7683 3.46129,-6.62815 3.46132,-11.55295 -3e-5,-3.6717 -0.7359,-6.8319 -2.20057,-9.5129 -2.16993,-3.9048 -5.3878,-5.8682 -9.67335,-5.8682 z m 23.22062,1.2378 -4.3553,0.1146 -1.44412,6.831 -3.09456,0 0,5.1117 2.84241,0 0,9.78795 c 0,2.681 0.38239,4.5608 1.12321,5.639 0.93288,1.4278 2.91429,2.1318 5.95989,2.1318 1.01518,0 2.27314,-0.138 3.78223,-0.4585 l 0,-4.8596 c -1.04265,0.058 -1.81681,0.092 -2.33811,0.092 -0.85058,0 -1.45421,-0.1441 -1.81089,-0.4355 -0.43901,-0.3497 -0.66477,-1.2539 -0.66476,-2.682 l 0,-9.21485 4.49285,0 0,-5.1117 -4.49285,0 0,-6.9455 z m -23.22062,4.4929 c 3.36334,0 5.04296,3.227 5.04298,9.6962 -2e-5,6.4693 -1.67964,9.71915 -5.04298,9.71915 -3.41762,0 -5.13468,-3.26655 -5.13467,-9.76495 -1e-5,-0.2623 -1e-5,-0.5171 0,-0.7794 0.16274,-5.9155 1.87979,-8.871 5.13467,-8.871 z" />
      </g>
    </g>
  </g>
</svg>
