<?xml version="1.0" encoding="UTF-8" standalone="no"?>
<!-- Created with Inkscape (http://www.inkscape.org/) -->

<svg
   xmlns:dc="http://purl.org/dc/elements/1.1/"
   xmlns:cc="http://creativecommons.org/ns#"
   xmlns:rdf="http://www.w3.org/1999/02/22-rdf-syntax-ns#"
   xmlns:svg="http://www.w3.org/2000/svg"
   xmlns="http://www.w3.org/2000/svg"
   xmlns:xlink="http://www.w3.org/1999/xlink"
   xmlns:sodipodi="http://sodipodi.sourceforge.net/DTD/sodipodi-0.dtd"
   xmlns:inkscape="http://www.inkscape.org/namespaces/inkscape"
   width="96"
   height="96"
   id="svg2982"
   version="1.1"
   inkscape:version="0.48.1 r9760"
   sodipodi:docname="radiotray.svg">
  <defs
     id="defs2984">
    <filter
       color-interpolation-filters="sRGB"
       inkscape:collect="always"
       id="filter6279">
      <feGaussianBlur
         inkscape:collect="always"
         stdDeviation="0.8"
         id="feGaussianBlur6281" />
    </filter>
    <linearGradient
       inkscape:collect="always"
       xlink:href="#linearGradient3700-462"
       id="linearGradient10902-1"
       gradientUnits="userSpaceOnUse"
       gradientTransform="translate(0,-9.6171873e-6)"
       x1="48"
       y1="1052.3622"
       x2="48"
       y2="902.36218" />
    <linearGradient
       id="linearGradient3700-462">
      <stop
         id="stop3702-5"
         style="stop-color:#3f9fc5;stop-opacity:1"
         offset="0" />
      <stop
         id="stop3704-86"
         style="stop-color:#89cde9;stop-opacity:1"
         offset="1" />
    </linearGradient>
    <linearGradient
       y2="138.66119"
       x2="48"
       y1="20.220806"
       x1="48"
       gradientUnits="userSpaceOnUse"
       id="linearGradient3346"
       xlink:href="#linearGradient3737-95"
       inkscape:collect="always" />
    <linearGradient
       id="linearGradient3737-95">
      <stop
         id="stop3739-689"
         style="stop-color:#ffffff;stop-opacity:1"
         offset="0" />
      <stop
         id="stop3741-55"
         style="stop-color:#ffffff;stop-opacity:0"
         offset="1" />
    </linearGradient>
    <clipPath
       id="clipPath3613-21">
      <rect
         width="84"
         height="84"
         rx="6"
         ry="6"
         x="6"
         y="6"
         id="rect3615-59"
         style="fill:#ffffff;fill-opacity:1;fill-rule:nonzero;stroke:none" />
    </clipPath>
    <filter
       x="-0.192"
       y="-0.192"
       width="1.3839999"
       height="1.3839999"
       color-interpolation-filters="sRGB"
       id="filter3794-91">
      <feGaussianBlur
         id="feGaussianBlur3796-62"
         stdDeviation="5.28" />
    </filter>
    <linearGradient
       inkscape:collect="always"
       xlink:href="#linearGradient3701"
       id="linearGradient3224-0"
       gradientUnits="userSpaceOnUse"
       x1="56"
       y1="64"
       x2="56"
       y2="16" />
    <linearGradient
       id="linearGradient3701">
      <stop
         id="stop3703"
         style="stop-color:#1c4a5b;stop-opacity:1"
         offset="0" />
      <stop
         id="stop3705"
         style="stop-color:#228cb8;stop-opacity:1"
         offset="1" />
    </linearGradient>
    <linearGradient
       inkscape:collect="always"
       xlink:href="#linearGradient3790"
       id="linearGradient3205"
       gradientUnits="userSpaceOnUse"
       x1="44"
       y1="66"
       x2="52"
       y2="66" />
    <linearGradient
       id="linearGradient3790">
      <stop
         id="stop3792"
         style="stop-color:#e6e6e6;stop-opacity:1"
         offset="0" />
      <stop
         id="stop3794"
         style="stop-color:#b4b4b4;stop-opacity:1"
         offset="1" />
    </linearGradient>
    <radialGradient
       inkscape:collect="always"
       xlink:href="#linearGradient3905"
       id="radialGradient3202"
       gradientUnits="userSpaceOnUse"
       gradientTransform="matrix(1.1428569,1.5630328e-7,-1.9842221e-7,1.4508217,-6.8571221,-20.529956)"
       cx="48"
       cy="45.167473"
       fx="48"
       fy="45.167473"
       r="7" />
    <linearGradient
       id="linearGradient3905">
      <stop
         id="stop3907"
         style="stop-color:#47bbee;stop-opacity:1"
         offset="0" />
      <stop
         id="stop3909"
         style="stop-color:#175f7f;stop-opacity:1"
         offset="1" />
    </linearGradient>
    <linearGradient
       inkscape:collect="always"
       xlink:href="#linearGradient3847"
       id="linearGradient3198"
       gradientUnits="userSpaceOnUse"
       x1="49"
       y1="52"
       x2="49"
       y2="77.079872" />
    <linearGradient
       id="linearGradient3847">
      <stop
         id="stop3849"
         style="stop-color:#ffffff;stop-opacity:1"
         offset="0" />
      <stop
         id="stop3851"
         style="stop-color:#ffffff;stop-opacity:0"
         offset="1" />
    </linearGradient>
    <radialGradient
       inkscape:collect="always"
       xlink:href="#linearGradient3847"
       id="radialGradient3195"
       gradientUnits="userSpaceOnUse"
       gradientTransform="matrix(1,0,0,0.83333345,0,6.0582042)"
       cx="48"
       cy="47.930149"
       fx="48"
       fy="47.930149"
       r="6" />
    <linearGradient
       id="linearGradient6074">
      <stop
         id="stop6076"
         style="stop-color:#ffffff;stop-opacity:1"
         offset="0" />
      <stop
         id="stop6078"
         style="stop-color:#ffffff;stop-opacity:0"
         offset="1" />
    </linearGradient>
    <linearGradient
       y2="51.5"
       x2="49.400002"
       y1="34"
       x1="49.400002"
       gradientTransform="matrix(0.71428569,0,0,0.5,13.714287,18)"
       gradientUnits="userSpaceOnUse"
       id="linearGradient3288"
       xlink:href="#linearGradient3847"
       inkscape:collect="always" />
    <linearGradient
       id="linearGradient6081">
      <stop
         id="stop6083"
         style="stop-color:#ffffff;stop-opacity:1"
         offset="0" />
      <stop
         id="stop6085"
         style="stop-color:#ffffff;stop-opacity:0"
         offset="1" />
    </linearGradient>
  </defs>
  <sodipodi:namedview
     id="base"
     pagecolor="#ffffff"
     bordercolor="#666666"
     borderopacity="1.0"
     inkscape:pageopacity="0.0"
     inkscape:pageshadow="2"
     inkscape:zoom="3.959798"
     inkscape:cx="36.39115"
     inkscape:cy="42.877139"
     inkscape:document-units="px"
     inkscape:current-layer="layer1"
     showgrid="false"
     inkscape:window-width="1280"
     inkscape:window-height="725"
     inkscape:window-x="0"
     inkscape:window-y="25"
     inkscape:window-maximized="1" />
  <metadata
     id="metadata2987">
    <rdf:RDF>
      <cc:Work
         rdf:about="">
        <dc:format>image/svg+xml</dc:format>
        <dc:type
           rdf:resource="http://purl.org/dc/dcmitype/StillImage" />
        <dc:title></dc:title>
      </cc:Work>
    </rdf:RDF>
  </metadata>
  <g
     inkscape:label="Layer 1"
     inkscape:groupmode="layer"
     id="layer1"
     transform="translate(0,-956.36218)">
    <g
       transform="translate(-182.1875,-40.40625)"
       id="g6018">
      <rect
         y="964.36218"
         x="8"
         height="80"
         width="80"
         id="rect9283"
         style="fill:#000000;fill-opacity:1;stroke:none;filter:url(#filter6279)"
         rx="5"
         ry="5"
         transform="translate(182.1875,40.40625)" />
      <rect
         ry="5"
         rx="5"
         style="fill:url(#linearGradient10902-1);fill-opacity:1;stroke:none"
         id="rect9285"
         width="80"
         height="80"
         x="8"
         y="964.36218"
         transform="translate(182.1875,40.40625)" />
      <g
         id="g6815">
        <g
           transform="translate(182.1875,996.76843)"
           id="layer5">
          <rect
             width="66"
             height="66"
             rx="12"
             ry="12"
             x="15"
             y="15"
             clip-path="url(#clipPath3613-21)"
             id="rect3171"
             style="opacity:0.1;fill:url(#linearGradient3346);fill-opacity:1;fill-rule:nonzero;stroke:#ffffff;stroke-width:0.5;stroke-linecap:round;stroke-linejoin:miter;stroke-miterlimit:4;stroke-opacity:1;stroke-dasharray:none;stroke-dashoffset:0;filter:url(#filter3794-91)" />
        </g>
        <g
           transform="matrix(0.80872407,0,0,0.80872407,191.36192,1006.0705)"
           id="g3231">
          <path
             d="m 26.8125,15.6875 a 4.0004001,4.0004001 0 0 0 -2.875,1.25 c -13.244326,13.244326 -13.244326,34.880674 0,48.125 A 4.0216698,4.0216698 0 1 0 29.625,59.375 c -10.187134,-10.187134 -10.187134,-26.562867 0,-36.75 a 4.0004001,4.0004001 0 0 0 0.5625,-5.125 4.0004001,4.0004001 0 0 0 -3.375,-1.8125 z m 42.375,0 a 4.0004001,4.0004001 0 0 0 -3.375,1.8125 4.0004001,4.0004001 0 0 0 0.5625,5.125 c 10.187134,10.187133 10.187134,26.562866 0,36.75 a 4.0216698,4.0216698 0 1 0 5.6875,5.6875 c 13.244326,-13.244326 13.244326,-34.880674 0,-48.125 a 4.0004001,4.0004001 0 0 0 -2.875,-1.25 z M 36.28125,25.75 a 4.0004001,4.0004001 0 0 0 -2.46875,1.21875 c -7.776983,7.776984 -7.776983,20.504267 0,28.28125 a 4.0004001,4.0004001 0 1 0 5.65625,-5.65625 c -4.719794,-4.719793 -4.719794,-12.248957 0,-16.96875 A 4.0004001,4.0004001 0 0 0 39.5625,26.96875 4.0004001,4.0004001 0 0 0 36.28125,25.75 z m 22.625,0 a 4.0004001,4.0004001 0 0 0 -2.46875,1.21875 4.0004001,4.0004001 0 0 0 0.09375,5.65625 c 4.719794,4.719793 4.719794,12.248957 0,16.96875 A 4.0004001,4.0004001 0 1 0 62.1875,55.25 c 7.776983,-7.776983 7.776983,-20.504266 0,-28.28125 A 4.0004001,4.0004001 0 0 0 58.90625,25.75 z"
             inkscape:connector-curvature="0"
             id="path3665"
             style="font-size:medium;font-style:normal;font-variant:normal;font-weight:normal;font-stretch:normal;text-indent:0;text-align:start;text-decoration:none;line-height:normal;letter-spacing:normal;word-spacing:normal;text-transform:none;direction:ltr;block-progression:tb;writing-mode:lr-tb;text-anchor:start;opacity:0.6;color:#000000;fill:url(#linearGradient3224-0);fill-opacity:1;stroke:none;stroke-width:3.5;marker:none;visibility:visible;display:inline;overflow:visible;enable-background:accumulate;font-family:Abandoned Bitplane;-inkscape-font-specification:Abandoned Bitplane" />
          <path
             d="m 26.75,15.6875 c -0.880918,0.04443 -1.617056,0.379638 -2.28125,0.84375 -0.11728,0.08195 -0.231448,0.159167 -0.34375,0.25 -0.04487,0.03817 -0.08058,0.08631 -0.125,0.125 -0.292559,0.254843 -0.569704,0.505944 -0.84375,0.78125 -0.151766,0.1661 -0.291878,0.32594 -0.4375,0.5 -0.6553,0.78327 -1.272979,1.641077 -1.90625,2.34375 -0.210815,0.289952 -0.422085,0.579992 -0.625,0.875 -0.03872,0.05404 -0.08664,0.101983 -0.125,0.15625 -0.318116,0.46645 -0.632808,0.937127 -0.9375,1.40625 -0.06876,0.105871 -0.150463,0.206824 -0.21875,0.3125 -0.07968,0.130315 -0.141002,0.274857 -0.21875,0.40625 -0.13833,0.23065 -0.274136,0.453655 -0.40625,0.6875 -0.07535,0.134991 -0.145389,0.270228 -0.21875,0.40625 -0.801427,1.485951 -1.498916,3.03594 -2.0625,4.625 -0.274081,0.772789 -0.501189,1.552971 -0.71875,2.34375 -0.0088,0.03203 -0.02253,0.06169 -0.03125,0.09375 -0.218661,0.803893 -0.402346,1.619573 -0.5625,2.4375 -0.147965,0.755674 -0.277127,1.517199 -0.375,2.28125 -0.01735,0.135447 -0.04673,0.270603 -0.0625,0.40625 -0.06133,0.527456 -0.08754,1.063994 -0.125,1.59375 -0.02502,0.374084 -0.04946,0.750262 -0.0625,1.125 -0.01696,0.437407 -0.03056,0.874775 -0.03125,1.3125 10e-4,0.427305 0.0147,0.854254 0.03125,1.28125 0.01268,0.364364 0.0385,0.729999 0.0625,1.09375 0.03985,0.568596 0.0889,1.121583 0.15625,1.6875 0.0076,0.06346 0.02335,0.12408 0.03125,0.1875 0.203315,1.632569 0.50604,3.257511 0.9375,4.84375 0.0087,0.03206 0.02244,0.06172 0.03125,0.09375 0.217561,0.790779 0.444669,1.570961 0.71875,2.34375 0.281792,0.79453 0.596152,1.603973 0.9375,2.375 0.341348,0.771027 0.724287,1.507025 1.125,2.25 0.153891,0.281915 0.305963,0.566312 0.46875,0.84375 0.07193,0.12438 0.145105,0.251558 0.21875,0.375 0.05617,0.0927 0.09907,0.189088 0.15625,0.28125 0.05525,0.0855 0.131942,0.164362 0.1875,0.25 0.349421,0.559509 0.708408,1.11848 1.09375,1.65625 0.123817,0.180006 0.248365,0.352932 0.375,0.53125 0.08484,0.113289 0.163522,0.231546 0.25,0.34375 0.0094,0.01042 0.02187,0.02077 0.03125,0.03125 0.763524,0.853336 1.487915,1.878786 2.3125,2.78125 0.418515,0.420439 0.849447,0.816949 1.3125,1.1875 0.678,0.472352 1.43896,0.779894 2.34375,0.8125 0.147505,0.0046 0.295554,-0.01963 0.4375,-0.03125 1.468119,-0.222104 2.811917,-1.301284 3.34375,-2.6875 C 30.661678,63.354198 30.710006,63.186124 30.75,63 30.78999,62.813876 30.83456,62.630448 30.84375,62.4375 30.86213,62.051604 30.80953,61.649713 30.6875,61.25 30.277799,60.372688 29.724593,59.578581 29.125,58.8125 28.260115,57.915656 27.462711,56.95058 26.75,55.9375 26.67579,55.84479 26.604008,55.749962 26.53125,55.65625 25.784583,54.694548 25.115204,53.669734 24.6875,52.5 24.478616,52.094201 24.308985,51.665548 24.125,51.25 23.289399,49.362715 22.70939,47.396198 22.375,45.375 22.163984,44.099526 22.018015,42.824295 22,41.53125 21.9951,41.353426 22.0013,41.177866 22,41 c 0.0012,-0.187245 -0.0052,-0.375299 0,-0.5625 0.01801,-1.293045 0.163984,-2.599526 0.375,-3.875 0.408017,-2.466231 1.15493,-4.876191 2.3125,-7.125 0.427704,-1.169734 1.097083,-2.163298 1.84375,-3.125 0.06682,-0.09794 0.15051,-0.184251 0.21875,-0.28125 0.708536,-1.007146 1.484804,-1.982662 2.34375,-2.875 0.605533,-0.771961 1.180626,-1.552857 1.59375,-2.4375 0.122029,-0.399713 0.174634,-0.801604 0.15625,-1.1875 -0.0092,-0.192948 -0.05376,-0.407626 -0.09375,-0.59375 -0.02789,-0.129812 -0.05206,-0.249435 -0.09375,-0.375 -0.01687,-0.05343 -0.04357,-0.103501 -0.0625,-0.15625 -0.54342,-1.416419 -1.932203,-2.498739 -3.4375,-2.6875 C 27.020194,15.70169 26.887374,15.68941 26.75,15.6875 z m 42.3125,0 c -1.313556,0.09793 -2.600472,0.888487 -3.3125,2 -0.06688,0.115608 -0.131054,0.222629 -0.1875,0.34375 -0.02573,0.05075 -0.03906,0.104414 -0.0625,0.15625 -0.05245,0.124347 -0.115203,0.246642 -0.15625,0.375 -0.03382,0.103311 -0.06937,0.206026 -0.09375,0.3125 -0.03071,0.134116 -0.04777,0.267812 -0.0625,0.40625 -0.04088,0.384165 -0.0047,0.781345 0.09375,1.1875 0.382462,0.973275 0.952194,1.828615 1.59375,2.65625 0.82863,0.857598 1.591866,1.785333 2.28125,2.75 0.01862,0.02268 0.04395,0.03977 0.0625,0.0625 0.866128,1.061483 1.630497,2.181628 2.09375,3.5 0.208911,0.405834 0.378495,0.834419 0.5625,1.25 1.363052,3.078499 2.078572,6.407747 2.125,9.75 0.002,0.07197 -0.0014,0.146766 0,0.21875 0.0012,0.220034 0.0043,0.436222 0,0.65625 -4.07e-4,0.07335 0.001,0.145415 0,0.21875 -0.04643,3.342253 -0.761948,6.640251 -2.125,9.71875 -0.184005,0.415581 -0.353589,0.844166 -0.5625,1.25 -0.437747,1.245784 -1.159729,2.303003 -1.96875,3.3125 -0.04714,0.05882 -0.07731,0.129056 -0.125,0.1875 -0.732038,1.034305 -1.546406,2.025572 -2.4375,2.9375 -0.604411,0.792453 -1.135528,1.603755 -1.5,2.53125 -0.09849,0.406155 -0.134629,0.803335 -0.09375,1.1875 0.01473,0.138438 0.03179,0.272134 0.0625,0.40625 0.0119,0.05197 0.01707,0.10501 0.03125,0.15625 0.0147,0.05254 0.04587,0.104236 0.0625,0.15625 0.05474,0.168459 0.140871,0.341271 0.21875,0.5 0.004,0.0087 -0.0041,0.02255 0,0.03125 0.06253,0.125022 0.111948,0.225809 0.1875,0.34375 0.717569,1.120162 2.01922,1.912002 3.34375,2 0.03235,-9.43e-4 0.06116,0.0018 0.09375,0 0.201892,-0.0011 0.394564,8.01e-4 0.59375,-0.03125 0.575028,-0.09253 1.143033,-0.328674 1.625,-0.65625 0.01669,-0.01488 0.04584,-0.01633 0.0625,-0.03125 0.335307,-0.308311 0.648222,-0.615002 0.96875,-0.9375 0.127957,-0.12603 0.249466,-0.246653 0.375,-0.375 0.0562,-0.05856 0.100532,-0.128515 0.15625,-0.1875 0.378997,-0.401224 0.768287,-0.79839 1.125,-1.21875 0.409155,-0.482158 0.808147,-0.994506 1.1875,-1.5 1.138059,-1.516482 2.139477,-3.121365 3,-4.8125 0.286841,-0.563712 0.557532,-1.139563 0.8125,-1.71875 0.06025,-0.136856 0.129051,-0.268598 0.1875,-0.40625 0.183369,-0.435529 0.366038,-0.900871 0.53125,-1.34375 0.445156,-1.185396 0.81251,-2.397352 1.125,-3.625 0.156245,-0.613824 0.283948,-1.253561 0.40625,-1.875 0.03892,-0.197738 0.08956,-0.395372 0.125,-0.59375 0.07515,-0.426374 0.159672,-0.853015 0.21875,-1.28125 0.01174,-0.08382 0.02013,-0.1661 0.03125,-0.25 0.06679,-0.511515 0.112596,-1.049681 0.15625,-1.5625 0.0018,-0.02091 -0.0018,-0.04159 0,-0.0625 0.05027,-0.599886 0.10682,-1.211015 0.125,-1.8125 9.17e-4,-0.03109 -8.29e-4,-0.06265 0,-0.09375 0.01679,-0.611412 0.01686,-1.201287 0,-1.8125 -5.67e-4,-0.02065 6.05e-4,-0.04185 0,-0.0625 -0.01804,-0.611609 -0.07278,-1.234179 -0.125,-1.84375 -0.0017,-0.02082 0.0018,-0.04169 0,-0.0625 -0.0516,-0.606229 -0.103593,-1.208252 -0.1875,-1.8125 -0.05847,-0.417442 -0.144967,-0.834917 -0.21875,-1.25 -0.03672,-0.208343 -0.08446,-0.417231 -0.125,-0.625 C 81.221448,33.784811 81.093745,33.176324 80.9375,32.5625 80.505685,30.866068 79.964886,29.203769 79.28125,27.59375 79.223876,27.457478 79.152891,27.322992 79.09375,27.1875 78.583813,26.029125 78.011392,24.873792 77.375,23.78125 76.738608,22.688708 76.039956,21.635988 75.28125,20.625 74.901897,20.119506 74.502905,19.638408 74.09375,19.15625 73.684595,18.674092 73.250939,18.206857 72.8125,17.75 72.685047,17.617193 72.5674,17.474312 72.4375,17.34375 72.116967,17.028042 71.804387,16.706845 71.46875,16.40625 71.45009,16.39308 71.42513,16.38783 71.40625,16.375 71.258184,16.274365 71.097773,16.1733 70.9375,16.09375 70.756786,16.00406 70.567127,15.936571 70.375,15.875 c -0.384253,-0.123143 -0.783715,-0.185232 -1.1875,-0.1875 -0.04183,0.0017 -0.08326,-0.0031 -0.125,0 z m -42.09375,1.96875 c 1.665723,0.05446 2.625943,2.448554 1.25,3.5625 -0.513831,0.499185 -1.001072,1.024317 -1.46875,1.5625 -0.423801,0.487692 -0.83341,0.983396 -1.21875,1.5 -0.112201,0.150422 -0.203589,0.316039 -0.3125,0.46875 -0.04704,0.06586 -0.109782,0.121237 -0.15625,0.1875 -0.291937,0.417352 -0.576303,0.848244 -0.84375,1.28125 -0.746434,1.208501 -1.385726,2.472423 -1.9375,3.78125 -1.103547,2.617653 -1.834538,5.390656 -2.125,8.21875 -0.05872,0.571714 -0.06939,1.144687 -0.09375,1.71875 -0.01044,0.344629 -0.03338,0.686407 -0.03125,1.03125 -0.0022,0.339845 0.02125,0.691606 0.03125,1.03125 0.02436,0.574063 0.03503,1.147036 0.09375,1.71875 0.290462,2.828094 1.021453,5.632347 2.125,8.25 0.539241,1.2791 1.181028,2.503875 1.90625,3.6875 0.02901,0.04734 0.0332,0.109086 0.0625,0.15625 0.350184,0.559147 0.736213,1.091931 1.125,1.625 0.0308,0.04219 0.06269,0.08299 0.09375,0.125 0.399287,0.541011 0.813026,1.08268 1.25,1.59375 0.01922,0.02219 0.0432,0.04037 0.0625,0.0625 0.458887,0.52622 0.934369,1.01121 1.4375,1.5 1.467673,1.188209 0.27537,3.821548 -1.59375,3.53125 -0.270117,-0.03889 -0.542343,-0.115715 -0.78125,-0.25 -0.147977,-0.133141 -0.292791,-0.269632 -0.4375,-0.40625 l -0.0625,0.0625 C 23.409299,61.770835 21.788932,59.624652 20.4375,57.3125 19.858275,56.32151 19.311954,55.298093 18.84375,54.25 18.65887,53.836138 18.479814,53.421376 18.3125,53 c -0.04621,-0.112629 -0.07999,-0.230766 -0.125,-0.34375 -0.02469,-0.06138 -0.03824,-0.125972 -0.0625,-0.1875 -0.117234,-0.31088 -0.236048,-0.623126 -0.34375,-0.9375 -0.205483,-0.577971 -0.393299,-1.16172 -0.5625,-1.75 C 16.792314,48.298616 16.481188,46.776631 16.28125,45.25 16.183507,44.503682 16.107121,43.751359 16.0625,43 c -0.0069,-0.10404 0.0059,-0.208402 0,-0.3125 C 16.03402,42.113604 15.99792,41.543446 16,40.96875 15.9979,40.394054 16.03402,39.823896 16.0625,39.25 c 0.0059,-0.104098 -0.0069,-0.20846 0,-0.3125 0.04462,-0.751359 0.121007,-1.503682 0.21875,-2.25 0.198229,-1.51358 0.516654,-2.998289 0.9375,-4.46875 0.01164,-0.04166 0.01944,-0.08339 0.03125,-0.125 0.143082,-0.491915 0.300268,-0.984012 0.46875,-1.46875 0.129465,-0.386585 0.26243,-0.774871 0.40625,-1.15625 0.02396,-0.06076 0.03812,-0.126879 0.0625,-0.1875 0.03342,-0.08389 0.05967,-0.166305 0.09375,-0.25 0.579561,-1.472678 1.270967,-2.880123 2.0625,-4.25 C 20.39721,24.68899 20.445623,24.591717 20.5,24.5 c 0.271752,-0.45926 0.579652,-0.898987 0.875,-1.34375 0.633621,-0.954166 1.321986,-1.871845 2.0625,-2.75 0.610636,-0.724136 1.224377,-1.460412 1.90625,-2.125 l 0.0625,0.0625 c 0.144709,-0.136618 0.289523,-0.273109 0.4375,-0.40625 0.238907,-0.134285 0.511133,-0.211109 0.78125,-0.25 0.11682,-0.01814 0.232702,-0.03488 0.34375,-0.03125 z M 68.9375,17.6875 c 0.666302,-0.01426 1.209234,0.251531 1.6875,0.625 l 0.03125,-0.03125 c 0.04154,0.04152 0.08369,0.08325 0.125,0.125 0.184971,0.158079 0.331295,0.343531 0.5,0.53125 0.0557,0.0589 0.100997,0.12818 0.15625,0.1875 1.127896,1.210923 2.166712,2.504253 3.09375,3.875 0.346732,0.512688 0.683954,1.030311 1,1.5625 0.08579,0.144461 0.166537,0.291675 0.25,0.4375 0.0071,0.01237 0.02416,0.01887 0.03125,0.03125 0.396829,0.678345 0.753818,1.388548 1.09375,2.09375 0.004,0.0083 -0.004,0.02291 0,0.03125 1.37711,2.8639 2.2995,5.926303 2.75,9.0625 0.0015,0.01013 -0.0015,0.02112 0,0.03125 0.222962,1.562781 0.347537,3.13916 0.34375,4.71875 3.4e-5,0.01031 -2.5e-5,0.02094 0,0.03125 -0.0026,0.784524 -0.0356,1.561343 -0.09375,2.34375 -7.18e-4,0.01042 7.28e-4,0.02083 0,0.03125 -0.05889,0.78245 -0.135836,1.567593 -0.25,2.34375 -0.0015,0.01024 0.0015,0.02102 0,0.03125 -0.4505,3.136197 -1.37289,6.1986 -2.75,9.0625 -0.0041,0.0086 0.0041,0.02268 0,0.03125 -0.336542,0.709078 -0.703137,1.380664 -1.09375,2.0625 -0.0072,0.01229 -0.02404,0.01897 -0.03125,0.03125 -0.08346,0.145825 -0.16421,0.293039 -0.25,0.4375 -0.316046,0.532189 -0.653268,1.049812 -1,1.5625 -0.44887,0.663713 -0.939911,1.30946 -1.4375,1.9375 -0.50904,0.642494 -1.036959,1.273412 -1.59375,1.875 -0.255224,0.306288 -0.489344,0.602717 -0.78125,0.84375 -0.02255,0.01862 -0.03965,0.04447 -0.0625,0.0625 -0.482067,0.380536 -1.045058,0.608168 -1.71875,0.59375 -1.44698,-0.148606 -2.300378,-1.865917 -1.53125,-3.09375 1.808708,-1.861307 3.462123,-3.885883 4.78125,-6.125 0.215188,-0.365265 0.428566,-0.717494 0.625,-1.09375 0.0043,-0.0084 -0.0043,-0.02289 0,-0.03125 0.200261,-0.384662 0.383545,-0.791081 0.5625,-1.1875 0.167494,-0.348215 0.317841,-0.70802 0.46875,-1.0625 0.48905,-1.203272 0.928711,-2.428081 1.25,-3.6875 0.346242,-1.357232 0.603883,-2.731901 0.75,-4.125 0.002,-0.02068 -0.002,-0.04182 0,-0.0625 0.04595,-0.447375 0.06881,-0.894797 0.09375,-1.34375 0.0054,-0.114743 -0.004,-0.228944 0,-0.34375 0.01305,-0.375883 0.03316,-0.748821 0.03125,-1.125 0.0016,-0.360433 -0.01907,-0.733588 -0.03125,-1.09375 -0.0054,-0.124844 0.0071,-0.25023 0,-0.375 -0.02089,-0.444637 -0.05169,-0.869433 -0.09375,-1.3125 -0.0021,-0.02036 0.0021,-0.04215 0,-0.0625 -0.146105,-1.393394 -0.403685,-2.798735 -0.75,-4.15625 -0.321289,-1.259419 -0.76095,-2.484228 -1.25,-3.6875 -0.150909,-0.35448 -0.301256,-0.714285 -0.46875,-1.0625 -0.182697,-0.404711 -0.357614,-0.79504 -0.5625,-1.1875 -0.195404,-0.379681 -0.412072,-0.754823 -0.625,-1.125 -1.319127,-2.239117 -2.972542,-4.263693 -4.78125,-6.125 -0.769128,-1.227833 0.08427,-2.945144 1.53125,-3.09375 z m -32.21875,8.03125 c -2.938886,0.10461 -4.490987,3.087248 -5.96875,5.21875 -0.888541,1.460015 -1.576177,3.022587 -2.03125,4.65625 -0.146246,0.525007 -0.272778,1.058243 -0.375,1.59375 -0.0076,0.04007 0.0074,0.08488 0,0.125 -0.07604,0.412043 -0.137257,0.833804 -0.1875,1.25 -0.02512,0.208121 -0.0438,0.416148 -0.0625,0.625 -0.03272,0.365384 -0.04934,0.726994 -0.0625,1.09375 -0.01226,0.341728 -0.03588,0.689252 -0.03125,1.03125 0.0022,0.115546 0.02711,0.228268 0.03125,0.34375 0.01391,0.387647 0.02673,0.770171 0.0625,1.15625 0.01444,0.155835 0.01324,0.313319 0.03125,0.46875 0.05434,0.468881 0.131711,0.942605 0.21875,1.40625 0.104335,0.555778 0.223309,1.111696 0.375,1.65625 0.455073,1.633663 1.142709,3.196235 2.03125,4.65625 1.477763,2.131502 3.029864,5.11414 5.96875,5.21875 2.224612,0.02556 3.874298,-1.881347 3.96875,-3.90625 -0.009,-0.105929 -0.01211,-0.20485 -0.03125,-0.3125 -0.328613,-1.177843 -1.003667,-2.205063 -1.75,-3.1875 -0.005,-0.0066 0.005,-0.02465 0,-0.03125 -1.240057,-1.630306 -2.637866,-3.170357 -2.75,-5.375 -0.122656,-0.571594 -0.190809,-1.144393 -0.21875,-1.71875 -0.01626,-0.207468 -0.02654,-0.416606 -0.03125,-0.625 1.77e-4,-0.02081 -2.95e-4,-0.04169 0,-0.0625 -0.0041,-0.239671 0.01956,-0.478496 0.03125,-0.71875 0.02794,-0.574357 0.09609,-1.147156 0.21875,-1.71875 0.112138,-2.204718 1.509911,-3.775885 2.75,-5.40625 0.0048,-0.0057 -0.0048,-0.02552 0,-0.03125 0.746333,-0.982437 1.421387,-1.978407 1.75,-3.15625 0.01725,-0.097 0.02223,-0.185639 0.03125,-0.28125 -0.07877,-2.036288 -1.732671,-3.994446 -3.96875,-3.96875 z m 22.625,0 c -2.278125,-0.108452 -3.956762,1.955209 -4.03125,4.03125 -7.5e-4,0.02091 4.24e-4,0.04159 0,0.0625 5.25e-4,0.01036 -6.05e-4,0.0209 0,0.03125 0.05448,0.933028 0.440963,1.827998 1.21875,2.5 2.383673,2.238551 3.538651,5.438429 3.5,8.625 0.03865,3.186571 -1.116327,6.386449 -3.5,8.625 -0.777787,0.672002 -1.164268,1.566972 -1.21875,2.5 -0.0012,0.02026 8.78e-4,0.04222 0,0.0625 2.78e-4,0.0099 -3.5e-4,0.02138 0,0.03125 0.07368,2.076583 1.752537,4.13973 4.03125,4.03125 0.663466,-0.0095 1.328425,-0.173786 1.90625,-0.5 4.006918,-3.232967 6.270978,-8.139681 6.6875,-13.21875 0.0054,-0.08384 0.02688,-0.16609 0.03125,-0.25 0.0079,-0.112752 -0.0061,-0.230878 0,-0.34375 0.01653,-0.308016 0.02836,-0.629048 0.03125,-0.9375 -0.0031,-0.314059 -0.01404,-0.623906 -0.03125,-0.9375 -0.0037,-0.104266 0.0053,-0.208314 0,-0.3125 C 67.963622,39.645405 67.9434,39.573282 67.9375,39.5 67.527672,34.409963 65.265049,29.458278 61.25,26.21875 c -0.577825,-0.326214 -1.242784,-0.490486 -1.90625,-0.5 z M 59.3125,27.4375 c 0.319162,-0.0057 0.656163,0.061 0.96875,0.25 3.509561,3.0467 5.422203,7.543123 5.6875,12.125 0.0063,0.09476 0.02641,0.186398 0.03125,0.28125 0.0027,0.06175 -0.002,0.125724 0,0.1875 0.01909,0.464692 0.01542,0.941324 0,1.40625 -0.0022,0.05266 0.0027,0.103612 0,0.15625 -0.0035,0.08461 -0.0266,0.16545 -0.03125,0.25 -0.253228,4.600539 -2.164237,9.097655 -5.6875,12.15625 -1.509405,0.912647 -3.379048,-0.727797 -2.96875,-2.28125 0.02692,-0.256601 0.10441,-0.516002 0.25,-0.75 1.665311,-1.86382 3.257054,-3.928808 3.90625,-6.40625 0.197282,-0.623739 0.339599,-1.23791 0.4375,-1.875 0.0014,-0.01021 -0.0014,-0.02103 0,-0.03125 0.04739,-0.313373 0.100711,-0.622714 0.125,-0.9375 7.4e-4,-0.01045 -7.16e-4,-0.0208 0,-0.03125 0.0228,-0.304828 0.02954,-0.632465 0.03125,-0.9375 -2.2e-5,-0.02097 1.2e-4,-0.04153 0,-0.0625 3.19e-4,-0.304358 -0.01115,-0.602816 -0.03125,-0.90625 -0.0015,-0.02063 0.0016,-0.04187 0,-0.0625 -0.02151,-0.303653 -0.0836,-0.604656 -0.125,-0.90625 -0.003,-0.02013 0.0031,-0.04238 0,-0.0625 -0.09786,-0.626897 -0.243334,-1.261111 -0.4375,-1.875 -0.649196,-2.477442 -2.240939,-4.54243 -3.90625,-6.40625 -0.14559,-0.233998 -0.223081,-0.493399 -0.25,-0.75 -0.325328,-1.231744 0.778011,-2.509549 2,-2.53125 z M 36.875,27.46875 c 1.236387,0.03882 1.898592,1.23298 1.78125,2.3125 0.01437,0.528447 -0.138466,1.055193 -0.59375,1.4375 -2.64243,2.514375 -4.001158,6.078124 -4.0625,9.65625 -7.15e-4,0.04174 3.63e-4,0.08326 0,0.125 1.13e-4,0.01046 -1.35e-4,0.02079 0,0.03125 -6.9e-5,0.01046 4.7e-5,0.02079 0,0.03125 0.05395,3.588661 1.412381,7.134559 4.0625,9.65625 0.459,0.385428 0.611575,0.935952 0.59375,1.46875 0.117342,1.07952 -0.544863,2.242434 -1.78125,2.28125 -2.075546,-0.0039 -3.041606,-2.41792 -4.1875,-3.8125 C 30.950155,47.964044 30.075052,44.80338 30,41.625 c -0.02021,-0.442019 -0.01107,-0.870258 0,-1.3125 0.07934,-3.1694 0.95499,-6.315287 2.6875,-9 1.145894,-1.39458 2.111954,-3.83985 4.1875,-3.84375 z"
             inkscape:connector-curvature="0"
             id="path3767"
             style="font-size:medium;font-style:normal;font-variant:normal;font-weight:normal;font-stretch:normal;text-indent:0;text-align:start;text-decoration:none;line-height:normal;letter-spacing:normal;word-spacing:normal;text-transform:none;direction:ltr;block-progression:tb;writing-mode:lr-tb;text-anchor:start;opacity:0.05;color:#000000;fill:#000000;fill-opacity:1;stroke:none;stroke-width:3.5;marker:none;visibility:visible;display:inline;overflow:visible;enable-background:accumulate;font-family:Abandoned Bitplane;-inkscape-font-specification:Abandoned Bitplane" />
          <rect
             width="7.9999986"
             height="28.000004"
             rx="4"
             ry="4"
             x="44"
             y="52"
             id="rect3661"
             style="color:#000000;fill:url(#linearGradient3205);fill-opacity:1;fill-rule:nonzero;stroke:none;stroke-width:1;marker:none;visibility:visible;display:inline;overflow:visible;enable-background:accumulate" />
          <path
             inkscape:connector-curvature="0"
             d="m 55,41 a 7,7 0 0 1 -14,0 7,7 0 1 1 14,0 z"
             id="path3663"
             style="color:#000000;fill:url(#radialGradient3202);fill-opacity:1;fill-rule:nonzero;stroke:none;stroke-width:1;marker:none;visibility:visible;display:inline;overflow:visible;enable-background:accumulate" />
          <path
             d="m 48,52 c -2.216,0 -4,1.784 -4,4 l 0,20 c 0,2.216 1.784,4 4,4 2.216,0 4,-1.784 4,-4 l 0,-20 c 0,-2.216 -1.784,-4 -4,-4 z m 0,1 c 1.674207,0 3,1.325793 3,3 l 0,20 c 0,1.674207 -1.325793,3 -3,3 -1.674207,0 -3,-1.325793 -3,-3 l 0,-20 c 0,-1.674207 1.325793,-3 3,-3 z"
             inkscape:connector-curvature="0"
             id="rect3844"
             style="opacity:0.6;color:#000000;fill:url(#linearGradient3198);fill-opacity:1;fill-rule:nonzero;stroke:none;stroke-width:1;marker:none;visibility:visible;display:inline;overflow:visible;enable-background:accumulate" />
          <path
             d="M 42.03125,40.625 C 42.023779,40.747591 42,40.875529 42,41 c 0,3.313709 2.686291,6 6,6 3.313709,0 6,-2.686291 6,-6 0,-0.124471 -0.02378,-0.252409 -0.03125,-0.375 C 53.66149,43.650536 51.106602,46 48,46 44.893398,46 42.33851,43.650536 42.03125,40.625 z"
             inkscape:connector-curvature="0"
             id="path3868"
             style="opacity:0.3;color:#000000;fill:url(#radialGradient3195);fill-opacity:1;fill-rule:nonzero;stroke:none;stroke-width:1;marker:none;visibility:visible;display:inline;overflow:visible;enable-background:accumulate" />
          <path
             inkscape:connector-curvature="0"
             d="m 53,38.5 a 5,3.5000001 0 0 1 -10,0 5,3.5000001 0 1 1 10,0 z"
             id="path3893"
             style="color:#000000;fill:url(#linearGradient3288);fill-opacity:1;fill-rule:nonzero;stroke:none;stroke-width:1;marker:none;visibility:visible;display:inline;overflow:visible;enable-background:accumulate" />
        </g>
      </g>
    </g>
  </g>
</svg>
