<?xml version="1.0" encoding="UTF-8" standalone="no"?>
<!-- Created with Inkscape (http://www.inkscape.org/) -->

<svg
   xmlns:dc="http://purl.org/dc/elements/1.1/"
   xmlns:cc="http://creativecommons.org/ns#"
   xmlns:rdf="http://www.w3.org/1999/02/22-rdf-syntax-ns#"
   xmlns:svg="http://www.w3.org/2000/svg"
   xmlns="http://www.w3.org/2000/svg"
   xmlns:xlink="http://www.w3.org/1999/xlink"
   xmlns:sodipodi="http://sodipodi.sourceforge.net/DTD/sodipodi-0.dtd"
   xmlns:inkscape="http://www.inkscape.org/namespaces/inkscape"
   width="96"
   height="96"
   id="svg2982"
   version="1.1"
   inkscape:version="0.48.1 r9760"
   sodipodi:docname="rhythmbox.svg">
  <defs
     id="defs2984">
    <filter
       color-interpolation-filters="sRGB"
       inkscape:collect="always"
       id="filter6279">
      <feGaussianBlur
         inkscape:collect="always"
         stdDeviation="0.8"
         id="feGaussianBlur6281" />
    </filter>
    <linearGradient
       inkscape:collect="always"
       xlink:href="#linearGradient3187"
       id="linearGradient10902-1"
       gradientUnits="userSpaceOnUse"
       gradientTransform="translate(0,-9.6171873e-6)"
       x1="48"
       y1="1052.3622"
       x2="48"
       y2="902.36218" />
    <linearGradient
       id="linearGradient3187">
      <stop
         id="stop3189-8"
         style="stop-color:#95450b;stop-opacity:1"
         offset="0" />
      <stop
         id="stop3191-3"
         style="stop-color:#d79869;stop-opacity:1"
         offset="1" />
    </linearGradient>
    <linearGradient
       y2="138.66119"
       x2="48"
       y1="20.220806"
       x1="48"
       gradientUnits="userSpaceOnUse"
       id="linearGradient3411"
       xlink:href="#linearGradient3737-7-4"
       inkscape:collect="always" />
    <linearGradient
       id="linearGradient3737-7-4">
      <stop
         id="stop3739-6-10"
         style="stop-color:#ffffff;stop-opacity:1"
         offset="0" />
      <stop
         id="stop3741-7-0"
         style="stop-color:#ffffff;stop-opacity:0"
         offset="1" />
    </linearGradient>
    <clipPath
       id="clipPath3613-64">
      <rect
         width="84"
         height="84"
         rx="6"
         ry="6"
         x="6"
         y="6"
         id="rect3615-43"
         style="fill:#ffffff;fill-opacity:1;fill-rule:nonzero;stroke:none" />
    </clipPath>
    <filter
       x="-0.192"
       y="-0.192"
       width="1.3839999"
       height="1.3839999"
       color-interpolation-filters="sRGB"
       id="filter3794-73">
      <feGaussianBlur
         id="feGaussianBlur3796-47"
         stdDeviation="5.28" />
    </filter>
    <radialGradient
       cx="71.417786"
       cy="32.694695"
       r="34.448795"
       fx="71.417786"
       fy="32.694695"
       id="radialGradient4784"
       xlink:href="#linearGradient3330"
       gradientUnits="userSpaceOnUse"
       gradientTransform="matrix(-4.9335871e-8,1.5375001,-2.1378289,-6.8599443e-8,141.31345,-77.110153)" />
    <linearGradient
       id="linearGradient3330">
      <stop
         id="stop3332-9"
         style="stop-color:#c8c8c8;stop-opacity:1"
         offset="0" />
      <stop
         id="stop3338"
         style="stop-color:#646464;stop-opacity:1"
         offset="0.56385005" />
      <stop
         id="stop3340"
         style="stop-color:#505050;stop-opacity:1"
         offset="0.64175642" />
      <stop
         id="stop3334"
         style="stop-color:#282828;stop-opacity:1"
         offset="1" />
    </linearGradient>
    <linearGradient
       x1="74.862663"
       y1="30.972258"
       x2="74.862663"
       y2="80.730537"
       id="linearGradient4786"
       xlink:href="#linearGradient3322"
       gradientUnits="userSpaceOnUse" />
    <linearGradient
       id="linearGradient3322">
      <stop
         id="stop3324"
         style="stop-color:#ffffff;stop-opacity:1"
         offset="0" />
      <stop
         id="stop3326-5"
         style="stop-color:#282828;stop-opacity:1"
         offset="1" />
    </linearGradient>
    <linearGradient
       x1="60.339729"
       y1="34"
       x2="60.339729"
       y2="60.062878"
       id="linearGradient4788"
       xlink:href="#linearGradient3423"
       gradientUnits="userSpaceOnUse"
       gradientTransform="matrix(0.345016,0,0,0.345016,-34.094997,126.7718)" />
    <linearGradient
       id="linearGradient3423">
      <stop
         id="stop3425-5"
         style="stop-color:#000000;stop-opacity:1"
         offset="0" />
      <stop
         id="stop3427-7"
         style="stop-color:#000000;stop-opacity:0"
         offset="1" />
    </linearGradient>
    <linearGradient
       x1="62.637825"
       y1="94"
       x2="61.637825"
       y2="65.678772"
       id="linearGradient4790"
       xlink:href="#linearGradient3436"
       gradientUnits="userSpaceOnUse"
       gradientTransform="matrix(0.345016,0,0,0.345016,-34.094997,126.7718)" />
    <linearGradient
       id="linearGradient3436">
      <stop
         id="stop3438-3"
         style="stop-color:#ffffff;stop-opacity:1"
         offset="0" />
      <stop
         id="stop3440"
         style="stop-color:#ffffff;stop-opacity:0"
         offset="1" />
    </linearGradient>
    <linearGradient
       x1="61.989902"
       y1="30.972258"
       x2="61.989902"
       y2="99.991722"
       id="linearGradient4792"
       xlink:href="#linearGradient3495"
       gradientUnits="userSpaceOnUse" />
    <linearGradient
       id="linearGradient3495">
      <stop
         id="stop3497-9"
         style="stop-color:#555555;stop-opacity:1"
         offset="0" />
      <stop
         id="stop3503-0"
         style="stop-color:#797979;stop-opacity:1"
         offset="0.43958005" />
      <stop
         id="stop3505-7"
         style="stop-color:#999999;stop-opacity:1"
         offset="0.57803553" />
      <stop
         id="stop3499-2"
         style="stop-color:#d3d3d3;stop-opacity:1"
         offset="1" />
    </linearGradient>
    <linearGradient
       x1="69.183792"
       y1="78.96875"
       x2="69.183792"
       y2="49.031033"
       id="linearGradient4794"
       xlink:href="#linearGradient3532"
       gradientUnits="userSpaceOnUse"
       gradientTransform="translate(-76.01398,84.852814)" />
    <linearGradient
       id="linearGradient3532">
      <stop
         id="stop3534"
         style="stop-color:#ffffff;stop-opacity:1"
         offset="0" />
      <stop
         id="stop3536"
         style="stop-color:#ffffff;stop-opacity:0"
         offset="1" />
    </linearGradient>
    <filter
       x="-0.12"
       y="-0.12"
       width="1.24"
       height="1.24"
       color-interpolation-filters="sRGB"
       id="filter3528">
      <feGaussianBlur
         id="feGaussianBlur3530"
         stdDeviation="1.496875" />
    </filter>
    <radialGradient
       cx="71.417786"
       cy="32.694695"
       r="34.448795"
       fx="71.417786"
       fy="32.694695"
       id="radialGradient4796"
       xlink:href="#linearGradient3330"
       gradientUnits="userSpaceOnUse"
       gradientTransform="matrix(-4.9335871e-8,1.5375001,-2.1378289,-6.8599443e-8,141.31345,-77.110153)" />
    <linearGradient
       id="linearGradient6333">
      <stop
         id="stop6335"
         style="stop-color:#c8c8c8;stop-opacity:1"
         offset="0" />
      <stop
         id="stop6337"
         style="stop-color:#646464;stop-opacity:1"
         offset="0.56385005" />
      <stop
         id="stop6339"
         style="stop-color:#505050;stop-opacity:1"
         offset="0.64175642" />
      <stop
         id="stop6341"
         style="stop-color:#282828;stop-opacity:1"
         offset="1" />
    </linearGradient>
    <linearGradient
       x1="74.862663"
       y1="30.972258"
       x2="74.862663"
       y2="80.730537"
       id="linearGradient4798"
       xlink:href="#linearGradient3322"
       gradientUnits="userSpaceOnUse" />
    <linearGradient
       id="linearGradient6344">
      <stop
         id="stop6346"
         style="stop-color:#ffffff;stop-opacity:1"
         offset="0" />
      <stop
         id="stop6348"
         style="stop-color:#282828;stop-opacity:1"
         offset="1" />
    </linearGradient>
    <linearGradient
       x1="60.339729"
       y1="34"
       x2="60.339729"
       y2="60.062878"
       id="linearGradient4800"
       xlink:href="#linearGradient3423"
       gradientUnits="userSpaceOnUse"
       gradientTransform="matrix(0.345016,0,0,0.345016,-34.094997,126.7718)" />
    <linearGradient
       id="linearGradient6351">
      <stop
         id="stop6353"
         style="stop-color:#000000;stop-opacity:1"
         offset="0" />
      <stop
         id="stop6355"
         style="stop-color:#000000;stop-opacity:0"
         offset="1" />
    </linearGradient>
    <linearGradient
       x1="62.637825"
       y1="94"
       x2="61.637825"
       y2="65.678772"
       id="linearGradient4802"
       xlink:href="#linearGradient3436"
       gradientUnits="userSpaceOnUse"
       gradientTransform="matrix(0.345016,0,0,0.345016,-34.094997,126.7718)" />
    <linearGradient
       id="linearGradient6358">
      <stop
         id="stop6360"
         style="stop-color:#ffffff;stop-opacity:1"
         offset="0" />
      <stop
         id="stop6362"
         style="stop-color:#ffffff;stop-opacity:0"
         offset="1" />
    </linearGradient>
    <linearGradient
       x1="61.989902"
       y1="30.972258"
       x2="61.989902"
       y2="99.991722"
       id="linearGradient4804"
       xlink:href="#linearGradient3495"
       gradientUnits="userSpaceOnUse" />
    <linearGradient
       id="linearGradient6365">
      <stop
         id="stop6367"
         style="stop-color:#555555;stop-opacity:1"
         offset="0" />
      <stop
         id="stop6369"
         style="stop-color:#797979;stop-opacity:1"
         offset="0.43958005" />
      <stop
         id="stop6371"
         style="stop-color:#999999;stop-opacity:1"
         offset="0.57803553" />
      <stop
         id="stop6373"
         style="stop-color:#d3d3d3;stop-opacity:1"
         offset="1" />
    </linearGradient>
    <linearGradient
       x1="69.183792"
       y1="78.96875"
       x2="69.183792"
       y2="49.031033"
       id="linearGradient4806"
       xlink:href="#linearGradient3532"
       gradientUnits="userSpaceOnUse"
       gradientTransform="translate(-76.01398,84.852814)" />
    <linearGradient
       id="linearGradient6376">
      <stop
         id="stop6378"
         style="stop-color:#ffffff;stop-opacity:1"
         offset="0" />
      <stop
         id="stop6380"
         style="stop-color:#ffffff;stop-opacity:0"
         offset="1" />
    </linearGradient>
    <filter
       x="-0.12"
       y="-0.12"
       width="1.24"
       height="1.24"
       color-interpolation-filters="sRGB"
       id="filter6382">
      <feGaussianBlur
         id="feGaussianBlur6384"
         stdDeviation="1.496875" />
    </filter>
    <radialGradient
       inkscape:collect="always"
       xlink:href="#linearGradient3330"
       id="radialGradient3155"
       gradientUnits="userSpaceOnUse"
       gradientTransform="matrix(-4.2589189e-8,1.3274976,-1.8454807,-5.922965e-8,108.3319,-81.063241)"
       cx="71.417786"
       cy="32.694695"
       fx="71.417786"
       fy="32.694695"
       r="34.448795" />
    <linearGradient
       id="linearGradient6387">
      <stop
         id="stop6389"
         style="stop-color:#c8c8c8;stop-opacity:1"
         offset="0" />
      <stop
         id="stop6391"
         style="stop-color:#646464;stop-opacity:1"
         offset="0.56385005" />
      <stop
         id="stop6393"
         style="stop-color:#505050;stop-opacity:1"
         offset="0.64175642" />
      <stop
         id="stop6395"
         style="stop-color:#282828;stop-opacity:1"
         offset="1" />
    </linearGradient>
    <linearGradient
       inkscape:collect="always"
       xlink:href="#linearGradient3322"
       id="linearGradient3157-3"
       gradientUnits="userSpaceOnUse"
       x1="74.862663"
       y1="30.972258"
       x2="74.862663"
       y2="80.730537"
       gradientTransform="matrix(0.86324996,0,0,0.86341299,-13.656929,-14.485333)" />
    <linearGradient
       id="linearGradient6398">
      <stop
         id="stop6400"
         style="stop-color:#ffffff;stop-opacity:1"
         offset="0" />
      <stop
         id="stop6402"
         style="stop-color:#282828;stop-opacity:1"
         offset="1" />
    </linearGradient>
    <linearGradient
       inkscape:collect="always"
       xlink:href="#linearGradient3423"
       id="linearGradient3151"
       gradientUnits="userSpaceOnUse"
       gradientTransform="matrix(0.743448,0,0,0.7435884,0.4138002,-5.5896055)"
       x1="60.339729"
       y1="34"
       x2="60.339729"
       y2="60.062878" />
    <linearGradient
       id="linearGradient6405">
      <stop
         id="stop6407"
         style="stop-color:#000000;stop-opacity:1"
         offset="0" />
      <stop
         id="stop6409"
         style="stop-color:#000000;stop-opacity:0"
         offset="1" />
    </linearGradient>
    <linearGradient
       inkscape:collect="always"
       xlink:href="#linearGradient3436"
       id="linearGradient3148"
       gradientUnits="userSpaceOnUse"
       gradientTransform="matrix(0.743448,0,0,0.7435884,0.4138002,-5.5896055)"
       x1="62.637825"
       y1="94"
       x2="61.637825"
       y2="65.678772" />
    <linearGradient
       id="linearGradient6412">
      <stop
         id="stop6414"
         style="stop-color:#ffffff;stop-opacity:1"
         offset="0" />
      <stop
         id="stop6416"
         style="stop-color:#ffffff;stop-opacity:0"
         offset="1" />
    </linearGradient>
    <filter
       color-interpolation-filters="sRGB"
       id="filter3791">
      <feGaussianBlur
         id="feGaussianBlur3793"
         stdDeviation="0.735" />
    </filter>
    <linearGradient
       inkscape:collect="always"
       xlink:href="#linearGradient3495"
       id="linearGradient3144"
       gradientUnits="userSpaceOnUse"
       x1="61.989902"
       y1="30.972258"
       x2="61.989902"
       y2="99.991722"
       gradientTransform="matrix(0.40970103,0,0,0.40977841,18.734534,15.191921)" />
    <linearGradient
       id="linearGradient6421">
      <stop
         id="stop6423"
         style="stop-color:#555555;stop-opacity:1"
         offset="0" />
      <stop
         id="stop6425"
         style="stop-color:#797979;stop-opacity:1"
         offset="0.43958005" />
      <stop
         id="stop6427"
         style="stop-color:#999999;stop-opacity:1"
         offset="0.57803553" />
      <stop
         id="stop6429"
         style="stop-color:#d3d3d3;stop-opacity:1"
         offset="1" />
    </linearGradient>
    <linearGradient
       x1="69.183792"
       y1="78.96875"
       x2="69.183792"
       y2="49.031033"
       id="linearGradient4778"
       xlink:href="#linearGradient3532"
       gradientUnits="userSpaceOnUse" />
    <linearGradient
       id="linearGradient6432">
      <stop
         id="stop6434"
         style="stop-color:#ffffff;stop-opacity:1"
         offset="0" />
      <stop
         id="stop6436"
         style="stop-color:#ffffff;stop-opacity:0"
         offset="1" />
    </linearGradient>
    <filter
       x="-0.12"
       y="-0.12"
       width="1.24"
       height="1.24"
       color-interpolation-filters="sRGB"
       id="filter6438">
      <feGaussianBlur
         id="feGaussianBlur6440"
         stdDeviation="1.496875" />
    </filter>
    <linearGradient
       inkscape:collect="always"
       xlink:href="#linearGradient3544"
       id="linearGradient3140-1"
       gradientUnits="userSpaceOnUse"
       x1="59.141357"
       y1="31.833477"
       x2="59.141357"
       y2="99.173645"
       gradientTransform="matrix(0.17884088,0,0,0.17887465,35.222055,30.297887)" />
    <linearGradient
       id="linearGradient3544">
      <stop
         id="stop3546-9"
         style="stop-color:#040404;stop-opacity:1"
         offset="0" />
      <stop
         id="stop3548-6"
         style="stop-color:#4b4b4b;stop-opacity:1"
         offset="1" />
    </linearGradient>
    <linearGradient
       y2="92.192421"
       x2="68.182961"
       y1="31.233255"
       x1="67.288132"
       gradientTransform="matrix(0.13384272,0,0,0.0859261,38.435724,34.111181)"
       gradientUnits="userSpaceOnUse"
       id="linearGradient3389-6"
       xlink:href="#linearGradient3436"
       inkscape:collect="always" />
    <linearGradient
       id="linearGradient6447">
      <stop
         id="stop6449"
         style="stop-color:#ffffff;stop-opacity:1"
         offset="0" />
      <stop
         id="stop6451"
         style="stop-color:#ffffff;stop-opacity:0"
         offset="1" />
    </linearGradient>
  </defs>
  <sodipodi:namedview
     id="base"
     pagecolor="#ffffff"
     bordercolor="#666666"
     borderopacity="1.0"
     inkscape:pageopacity="0.0"
     inkscape:pageshadow="2"
     inkscape:zoom="3.959798"
     inkscape:cx="36.39115"
     inkscape:cy="42.877139"
     inkscape:document-units="px"
     inkscape:current-layer="layer1"
     showgrid="false"
     inkscape:window-width="1280"
     inkscape:window-height="725"
     inkscape:window-x="0"
     inkscape:window-y="25"
     inkscape:window-maximized="1" />
  <metadata
     id="metadata2987">
    <rdf:RDF>
      <cc:Work
         rdf:about="">
        <dc:format>image/svg+xml</dc:format>
        <dc:type
           rdf:resource="http://purl.org/dc/dcmitype/StillImage" />
        <dc:title></dc:title>
      </cc:Work>
    </rdf:RDF>
  </metadata>
  <g
     inkscape:label="Layer 1"
     inkscape:groupmode="layer"
     id="layer1"
     transform="translate(0,-956.36218)">
    <g
       transform="translate(-182.1875,-40.40625)"
       id="g6247">
      <rect
         y="964.36218"
         x="8"
         height="80"
         width="80"
         id="rect9283"
         style="fill:#000000;fill-opacity:1;stroke:none;filter:url(#filter6279)"
         rx="5"
         ry="5"
         transform="translate(182.1875,40.40625)" />
      <rect
         ry="5"
         rx="5"
         style="fill:url(#linearGradient10902-1);fill-opacity:1;stroke:none"
         id="rect9285"
         width="80"
         height="80"
         x="8"
         y="964.36218"
         transform="translate(182.1875,40.40625)" />
      <g
         id="g6999">
        <g
           transform="translate(182.1875,996.76843)"
           id="layer4">
          <rect
             width="66"
             height="66"
             rx="12"
             ry="12"
             x="15"
             y="15"
             clip-path="url(#clipPath3613-64)"
             id="rect3171"
             style="opacity:0.15;fill:url(#linearGradient3411);fill-opacity:1;fill-rule:nonzero;stroke:#ffffff;stroke-width:0.5;stroke-linecap:round;stroke-linejoin:miter;stroke-miterlimit:4;stroke-opacity:1;stroke-dasharray:none;stroke-dashoffset:0;filter:url(#filter3794-73)" />
        </g>
        <g
           transform="matrix(0.76391304,0,0,0.76391304,193.52054,1008.0997)"
           id="g3177">
          <g
             transform="matrix(0.6316216,0,0,0.6317408,28.587147,-19.036865)"
             id="g3697"
             style="display:inline">
            <path
               d="m 105.00536,65.421051 a 33.587574,33.587574 0 1 1 -67.175148,0 33.587574,33.587574 0 1 1 67.175148,0 z"
               transform="matrix(0.4006131,0,0,0.4006131,-40.624875,122.64429)"
               id="path3642"
               style="fill:url(#radialGradient4784);fill-opacity:1;fill-rule:evenodd;stroke:url(#linearGradient4786);stroke-width:3.95163608;stroke-linecap:butt;stroke-linejoin:round;stroke-miterlimit:4;stroke-opacity:1;stroke-dasharray:none;stroke-dashoffset:0"
               inkscape:connector-curvature="0" />
            <path
               d="m 105.00536,65.421051 a 33.587574,33.587574 0 1 1 -67.175148,0 33.587574,33.587574 0 1 1 67.175148,0 z"
               transform="matrix(0.3081639,0,0,0.3081639,-34.022362,128.69241)"
               id="path3644"
               style="fill:#323232;fill-opacity:1;fill-rule:evenodd;stroke:none"
               inkscape:connector-curvature="0" />
            <path
               d="m -12.013979,138.50234 c -5.713464,0 -10.350477,4.63701 -10.350477,10.35047 0,0.11663 0.0069,0.22932 0.01078,0.34502 0.183989,-5.55234 4.742859,-10.00547 10.339695,-10.00547 5.5968367,0 10.1557053,4.45313 10.3396955,10.00547 0.00383,-0.1157 0.010782,-0.22839 0.010782,-0.34502 0,-5.71346 -4.6370135,-10.35047 -10.3504775,-10.35047 z"
               inkscape:connector-curvature="0"
               id="path3646"
               style="opacity:0.3;fill:url(#linearGradient4788);fill-opacity:1;fill-rule:evenodd;stroke:none" />
            <path
               d="m -22.353674,148.5078 c -0.0038,0.1157 -0.01078,0.22838 -0.01078,0.34501 0,5.71347 4.637013,10.35048 10.350477,10.35048 5.7134637,0 10.3504776,-4.63701 10.3504772,-10.35048 0,-0.11663 -0.00695,-0.22931 -0.010782,-0.34501 -0.1839898,5.55234 -4.7428588,10.00546 -10.3396952,10.00546 -5.596836,0 -10.155705,-4.45312 -10.339695,-10.00546 z"
               inkscape:connector-curvature="0"
               id="path3648"
               style="opacity:0.5;fill:url(#linearGradient4790);fill-opacity:1;fill-rule:evenodd;stroke:none" />
            <path
               d="m 105.00536,65.421051 a 33.587574,33.587574 0 1 1 -67.175148,0 33.587574,33.587574 0 1 1 67.175148,0 z"
               transform="matrix(0.2326351,0,0,0.2326351,-28.628261,133.63359)"
               id="path3652"
               style="fill:url(#linearGradient4792);fill-opacity:1;fill-rule:evenodd;stroke:#c2c2c2;stroke-width:6.4593277;stroke-linecap:butt;stroke-linejoin:round;stroke-miterlimit:4;stroke-opacity:1;stroke-dasharray:none;stroke-dashoffset:0"
               inkscape:connector-curvature="0" />
            <path
               d="m -12.01398,133.88406 c -8.265638,0 -14.968749,6.70312 -14.96875,14.96875 0,8.26564 6.703111,14.96875 14.96875,14.96875 8.265638,0 14.968747,-6.70311 14.96875,-14.96875 0,-8.26563 -6.703113,-14.96874 -14.96875,-14.96875 z m 0,4.0625 c 6.021282,0 10.90625,4.88497 10.90625,10.90625 0,6.02129 -4.884968,10.90625 -10.90625,10.90625 -6.021281,0 -10.90625,-4.88496 -10.90625,-10.90625 1e-6,-6.02128 4.884968,-10.90625 10.90625,-10.90625 z"
               inkscape:connector-curvature="0"
               transform="matrix(0.4603445,0,0,0.4603445,-6.4834094,80.329238)"
               id="path3654"
               style="opacity:0.5;fill:url(#linearGradient4794);fill-opacity:1;fill-rule:evenodd;stroke:none;filter:url(#filter3528)" />
          </g>
          <g
             transform="matrix(0.6316216,0,0,0.6317408,82.587147,-19.036865)"
             id="g3705"
             style="display:inline">
            <path
               d="m 105.00536,65.421051 a 33.587574,33.587574 0 1 1 -67.175148,0 33.587574,33.587574 0 1 1 67.175148,0 z"
               transform="matrix(0.4006131,0,0,0.4006131,-40.624875,122.64429)"
               id="path3707"
               style="fill:url(#radialGradient4796);fill-opacity:1;fill-rule:evenodd;stroke:url(#linearGradient4798);stroke-width:3.95163608;stroke-linecap:butt;stroke-linejoin:round;stroke-miterlimit:4;stroke-opacity:1;stroke-dasharray:none;stroke-dashoffset:0"
               inkscape:connector-curvature="0" />
            <path
               d="m 105.00536,65.421051 a 33.587574,33.587574 0 1 1 -67.175148,0 33.587574,33.587574 0 1 1 67.175148,0 z"
               transform="matrix(0.3081639,0,0,0.3081639,-34.022362,128.69241)"
               id="path3709"
               style="fill:#323232;fill-opacity:1;fill-rule:evenodd;stroke:none"
               inkscape:connector-curvature="0" />
            <path
               d="m -12.013979,138.50234 c -5.713464,0 -10.350477,4.63701 -10.350477,10.35047 0,0.11663 0.0069,0.22932 0.01078,0.34502 0.183989,-5.55234 4.742859,-10.00547 10.339695,-10.00547 5.5968367,0 10.1557053,4.45313 10.3396955,10.00547 0.00383,-0.1157 0.010782,-0.22839 0.010782,-0.34502 0,-5.71346 -4.6370135,-10.35047 -10.3504775,-10.35047 z"
               inkscape:connector-curvature="0"
               id="path3711"
               style="opacity:0.3;fill:url(#linearGradient4800);fill-opacity:1;fill-rule:evenodd;stroke:none" />
            <path
               d="m -22.353674,148.5078 c -0.0038,0.1157 -0.01078,0.22838 -0.01078,0.34501 0,5.71347 4.637013,10.35048 10.350477,10.35048 5.7134637,0 10.3504776,-4.63701 10.3504772,-10.35048 0,-0.11663 -0.00695,-0.22931 -0.010782,-0.34501 -0.1839898,5.55234 -4.7428588,10.00546 -10.3396952,10.00546 -5.596836,0 -10.155705,-4.45312 -10.339695,-10.00546 z"
               inkscape:connector-curvature="0"
               id="path3713"
               style="opacity:0.5;fill:url(#linearGradient4802);fill-opacity:1;fill-rule:evenodd;stroke:none" />
            <path
               d="m 105.00536,65.421051 a 33.587574,33.587574 0 1 1 -67.175148,0 33.587574,33.587574 0 1 1 67.175148,0 z"
               transform="matrix(0.2326351,0,0,0.2326351,-28.628261,133.63359)"
               id="path3715"
               style="fill:url(#linearGradient4804);fill-opacity:1;fill-rule:evenodd;stroke:#c2c2c2;stroke-width:6.4593277;stroke-linecap:butt;stroke-linejoin:round;stroke-miterlimit:4;stroke-opacity:1;stroke-dasharray:none;stroke-dashoffset:0"
               inkscape:connector-curvature="0" />
            <path
               d="m -12.01398,133.88406 c -8.265638,0 -14.968749,6.70312 -14.96875,14.96875 0,8.26564 6.703111,14.96875 14.96875,14.96875 8.265638,0 14.968747,-6.70311 14.96875,-14.96875 0,-8.26563 -6.703113,-14.96874 -14.96875,-14.96875 z m 0,4.0625 c 6.021282,0 10.90625,4.88497 10.90625,10.90625 0,6.02129 -4.884968,10.90625 -10.90625,10.90625 -6.021281,0 -10.90625,-4.88496 -10.90625,-10.90625 1e-6,-6.02128 4.884968,-10.90625 10.90625,-10.90625 z"
               inkscape:connector-curvature="0"
               transform="matrix(0.4603445,0,0,0.4603445,-6.4834094,80.329238)"
               id="path3717"
               style="opacity:0.5;fill:url(#linearGradient4806);fill-opacity:1;fill-rule:evenodd;stroke:none;filter:url(#filter3528)" />
          </g>
          <path
             d="m 76.988944,42.000052 a 28.994472,28.999948 0 0 1 -57.988944,0 28.994472,28.999948 0 1 1 57.988944,0 z"
             id="path3320"
             style="fill:url(#radialGradient3155);fill-opacity:1;fill-rule:evenodd;stroke:url(#linearGradient3157-3);stroke-width:2.00000024;stroke-linecap:butt;stroke-linejoin:round;stroke-miterlimit:4;stroke-opacity:1;stroke-dasharray:none;stroke-dashoffset:0"
             inkscape:connector-curvature="0" />
          <path
             d="m 70.297913,42.000052 a 22.303441,22.307653 0 0 1 -44.606882,0 22.303441,22.307653 0 1 1 44.606882,0 z"
             id="path3412"
             style="fill:#323232;fill-opacity:1;fill-rule:evenodd;stroke:none"
             inkscape:connector-curvature="0" />
          <path
             d="m 47.994472,19.6924 c -12.311499,0 -22.303441,9.993827 -22.30344,22.307652 0,0.251358 0.01497,0.494229 0.02323,0.743589 0.396465,-11.966553 10.220018,-21.564064 22.280207,-21.564064 12.060189,-10e-7 21.883742,9.597511 22.280207,21.564064 0.0083,-0.24936 0.02323,-0.492231 0.02323,-0.743589 0,-12.313825 -9.99194,-22.307653 -22.30344,-22.307652 z"
             inkscape:connector-curvature="0"
             id="path3418"
             style="opacity:0.3;fill:url(#linearGradient3151);fill-opacity:1;fill-rule:evenodd;stroke:none" />
          <path
             d="m 25.714265,41.256464 c -0.0083,0.249359 -0.02323,0.49223 -0.02323,0.743588 0,12.313825 9.991941,22.307653 22.30344,22.307652 12.3115,0 22.303441,-9.993827 22.30344,-22.307652 0,-0.251358 -0.01497,-0.494229 -0.02323,-0.743588 -0.396465,11.966552 -10.220018,21.564063 -22.280207,21.564063 -12.060189,1e-6 -21.883741,-9.597511 -22.280207,-21.564063 z"
             inkscape:connector-curvature="0"
             id="path3431"
             style="opacity:0.5;fill:url(#linearGradient3148);fill-opacity:1;fill-rule:evenodd;stroke:none" />
          <path
             d="M 64,39.5 C 50.476814,39.5 39.500001,50.476815 39.5,64 39.5,77.523186 50.476813,88.500002 64,88.5 77.523186,88.5 88.500003,77.523186 88.5,64 88.5,50.476814 77.523184,39.5 64,39.5 z m 0,3.1875 C 75.766734,42.687501 85.3125,52.233267 85.3125,64 85.312502,75.766732 75.766733,85.3125 64,85.3125 52.233268,85.312501 42.6875,75.766733 42.6875,64 42.687499,52.233266 52.233267,42.6875 64,42.6875 z"
             inkscape:connector-curvature="0"
             transform="matrix(0.743448,0,0,0.7435884,0.4138002,-5.5896055)"
             id="path3444"
             style="opacity:0.8;fill:#b7b7b7;fill-opacity:1;fill-rule:evenodd;stroke:none;filter:url(#filter3791)" />
          <path
             d="m 61.755338,42.000055 a 13.760864,13.763463 0 0 1 -27.521727,0 13.760864,13.763463 0 1 1 27.521727,0 z"
             id="path3493"
             style="fill:url(#linearGradient3144);fill-opacity:1;fill-rule:evenodd;stroke:#c2c2c2;stroke-width:0.94920617;stroke-linecap:butt;stroke-linejoin:round;stroke-miterlimit:4;stroke-opacity:1;stroke-dasharray:none;stroke-dashoffset:0"
             inkscape:connector-curvature="0" />
          <path
             d="m 64,49.03125 c -8.265638,0 -14.968749,6.703112 -14.96875,14.96875 0,8.265638 6.703111,14.968748 14.96875,14.96875 8.265638,0 14.968747,-6.703112 14.96875,-14.96875 0,-8.265638 -6.703113,-14.968748 -14.96875,-14.96875 z m 0,4.0625 C 70.021282,53.093748 74.90625,57.978718 74.90625,64 74.90625,70.021283 70.021282,74.90625 64,74.90625 57.978719,74.906251 53.09375,70.021282 53.09375,64 53.093751,57.97872 57.978718,53.09375 64,53.09375 z"
             inkscape:connector-curvature="0"
             transform="matrix(0.743448,0,0,0.7435884,0.4138002,-5.5896055)"
             id="path3507"
             style="opacity:0.5;fill:url(#linearGradient4778);fill-opacity:1;fill-rule:evenodd;stroke:none;filter:url(#filter3528)" />
          <path
             d="m 54.001306,42.000055 a 6.0068315,6.0079657 0 0 1 -12.013663,0 6.0068315,6.0079657 0 1 1 12.013663,0 z"
             id="path3540"
             style="fill:url(#linearGradient3140-1);fill-opacity:1;fill-rule:evenodd;stroke:none"
             inkscape:connector-curvature="0" />
          <path
             d="m 52.489927,39.732557 a 4.4954525,2.8860493 0 0 1 -8.990905,0 4.4954525,2.8860493 0 1 1 8.990905,0 z"
             id="path3552"
             style="opacity:0.8;fill:url(#linearGradient3389-6);fill-opacity:1;fill-rule:evenodd;stroke:none"
             inkscape:connector-curvature="0" />
        </g>
      </g>
    </g>
  </g>
</svg>
