<?xml version="1.0" encoding="UTF-8" standalone="no"?>
<!-- Created with Inkscape (http://www.inkscape.org/) -->

<svg
   xmlns:dc="http://purl.org/dc/elements/1.1/"
   xmlns:cc="http://creativecommons.org/ns#"
   xmlns:rdf="http://www.w3.org/1999/02/22-rdf-syntax-ns#"
   xmlns:svg="http://www.w3.org/2000/svg"
   xmlns="http://www.w3.org/2000/svg"
   xmlns:xlink="http://www.w3.org/1999/xlink"
   xmlns:sodipodi="http://sodipodi.sourceforge.net/DTD/sodipodi-0.dtd"
   xmlns:inkscape="http://www.inkscape.org/namespaces/inkscape"
   width="96"
   height="96"
   id="svg2982"
   version="1.1"
   inkscape:version="0.48.1 r9760"
   sodipodi:docname="screenruler-icon.svg">
  <defs
     id="defs2984">
    <filter
       color-interpolation-filters="sRGB"
       inkscape:collect="always"
       id="filter6279">
      <feGaussianBlur
         inkscape:collect="always"
         stdDeviation="0.8"
         id="feGaussianBlur6281" />
    </filter>
    <linearGradient
       inkscape:collect="always"
       xlink:href="#linearGradient3822-9"
       id="linearGradient10902-1"
       gradientUnits="userSpaceOnUse"
       gradientTransform="translate(0,-9.6171873e-6)"
       x1="48"
       y1="1052.3622"
       x2="48"
       y2="902.36218" />
    <linearGradient
       id="linearGradient3822-9">
      <stop
         id="stop3824-7"
         style="stop-color:#d7c000;stop-opacity:1"
         offset="0" />
      <stop
         id="stop3826-7"
         style="stop-color:#ebd93c;stop-opacity:1"
         offset="1" />
    </linearGradient>
    <linearGradient
       inkscape:collect="always"
       xlink:href="#linearGradient3856"
       id="linearGradient3058"
       gradientUnits="userSpaceOnUse"
       x1="16"
       y1="24"
       x2="16"
       y2="-16" />
    <linearGradient
       id="linearGradient3856">
      <stop
         id="stop3858-3"
         style="stop-color:#665400;stop-opacity:1"
         offset="0" />
      <stop
         id="stop3860-55"
         style="stop-color:#665400;stop-opacity:0"
         offset="1" />
    </linearGradient>
    <linearGradient
       y2="138.66119"
       x2="48"
       y1="20.220806"
       x1="48"
       gradientUnits="userSpaceOnUse"
       id="linearGradient3141"
       xlink:href="#linearGradient3737-72"
       inkscape:collect="always" />
    <linearGradient
       id="linearGradient3737-72">
      <stop
         id="stop3739-66"
         style="stop-color:#ffffff;stop-opacity:1"
         offset="0" />
      <stop
         id="stop3741-29"
         style="stop-color:#ffffff;stop-opacity:0"
         offset="1" />
    </linearGradient>
    <clipPath
       id="clipPath3613-7">
      <rect
         width="84"
         height="84"
         rx="6"
         ry="6"
         x="6"
         y="6"
         id="rect3615-03"
         style="fill:#ffffff;fill-opacity:1;fill-rule:nonzero;stroke:none" />
    </clipPath>
    <filter
       x="-0.192"
       y="-0.192"
       width="1.3839999"
       height="1.3839999"
       color-interpolation-filters="sRGB"
       id="filter3794-72">
      <feGaussianBlur
         id="feGaussianBlur3796-35"
         stdDeviation="5.28" />
    </filter>
  </defs>
  <sodipodi:namedview
     id="base"
     pagecolor="#ffffff"
     bordercolor="#666666"
     borderopacity="1.0"
     inkscape:pageopacity="0.0"
     inkscape:pageshadow="2"
     inkscape:zoom="3.959798"
     inkscape:cx="36.39115"
     inkscape:cy="42.877139"
     inkscape:document-units="px"
     inkscape:current-layer="layer1"
     showgrid="false"
     inkscape:window-width="1280"
     inkscape:window-height="725"
     inkscape:window-x="0"
     inkscape:window-y="25"
     inkscape:window-maximized="1" />
  <metadata
     id="metadata2987">
    <rdf:RDF>
      <cc:Work
         rdf:about="">
        <dc:format>image/svg+xml</dc:format>
        <dc:type
           rdf:resource="http://purl.org/dc/dcmitype/StillImage" />
        <dc:title></dc:title>
      </cc:Work>
    </rdf:RDF>
  </metadata>
  <g
     inkscape:label="Layer 1"
     inkscape:groupmode="layer"
     id="layer1"
     transform="translate(0,-956.36218)">
    <g
       transform="translate(-182.1875,-40.40625)"
       id="g5963">
      <rect
         y="964.36218"
         x="8"
         height="80"
         width="80"
         id="rect9283"
         style="fill:#000000;fill-opacity:1;stroke:none;filter:url(#filter6279)"
         rx="5"
         ry="5"
         transform="translate(182.1875,40.40625)" />
      <rect
         ry="5"
         rx="5"
         style="fill:url(#linearGradient10902-1);fill-opacity:1;stroke:none"
         id="rect9285"
         width="80"
         height="80"
         x="8"
         y="964.36218"
         transform="translate(182.1875,40.40625)" />
      <g
         id="g6765">
        <g
           transform="matrix(0.75757576,0,0,0.75757576,194.05114,1010.3442)"
           id="g3062">
          <path
             d="m 16,12 0,24 2,0 0,-24 -2,0 z m 6,0 0,12 2,0 0,-12 -2,0 z m 6,0 0,12 2,0 0,-12 -2,0 z m 6,0 0,12 2,0 0,-12 -2,0 z m 6,0 0,12 2,0 0,-12 -2,0 z m 6,0 0,18 2,0 0,-18 -2,0 z m 6,0 0,12 2,0 0,-12 -2,0 z m 6,0 0,12 2,0 0,-12 -2,0 z m 6,0 0,12 2,0 0,-12 -2,0 z m 6,0 0,12 2,0 0,-12 -2,0 z m 6,0 0,24 2,0 0,-24 -2,0 z m 6,0 0,12 2,0 0,-12 -2,0 z"
             inkscape:connector-curvature="0"
             id="rect3831"
             style="color:#000000;fill:url(#linearGradient3058);fill-opacity:1;fill-rule:nonzero;stroke:none;stroke-width:1.5;marker:none;visibility:visible;display:inline;overflow:visible;enable-background:accumulate" />
          <path
             d="m 16.729891,41.652679 c -1.074247,1.4e-5 -1.883371,0.530249 -2.427373,1.590704 -0.537124,1.053594 -0.805684,2.640853 -0.805681,4.761782 -3e-6,2.114058 0.268557,3.701317 0.805681,4.761782 0.544002,1.053585 1.353126,1.580375 2.427373,1.580374 1.08112,10e-7 1.890243,-0.526789 2.427372,-1.580374 0.543997,-1.060465 0.816001,-2.647724 0.816011,-4.761782 -10e-6,-2.120929 -0.272014,-3.708188 -0.816011,-4.761782 -0.537129,-1.060455 -1.346252,-1.59069 -2.427372,-1.590704 m 0,-1.652679 c 1.728418,1.6e-5 3.047117,0.685189 3.9561,2.05552 0.915849,1.363473 1.373778,3.346686 1.37379,5.949645 -1.2e-5,2.596088 -0.457941,4.579301 -1.37379,5.949645 C 19.777008,55.31827 18.458309,56 16.729891,56 15.001459,56 13.679317,55.31827 12.763461,53.95481 11.854485,52.584466 11.399999,50.601253 11.4,48.005165 c -1e-6,-2.602959 0.454485,-4.586172 1.363461,-5.949645 0.915856,-1.370331 2.237998,-2.055504 3.96643,-2.05552"
             inkscape:connector-curvature="0"
             id="path3869"
             style="font-size:21.15429306px;font-style:normal;font-variant:normal;font-weight:normal;font-stretch:normal;text-align:start;line-height:125%;letter-spacing:0px;word-spacing:0px;writing-mode:lr-tb;text-anchor:start;fill:#665400;fill-opacity:1;stroke:none;font-family:DejaVu Sans;-inkscape-font-specification:DejaVu Sans" />
          <path
             d="m 72.499548,54.244029 3.40865,0 0,-11.76501 -3.708198,0.743706 0,-1.900581 3.68754,-0.743706 2.086507,0 0,13.665591 3.408651,0 0,1.755971 -8.88315,0 0,-1.755971"
             inkscape:connector-curvature="0"
             id="path3871"
             style="font-size:21.15429306px;font-style:normal;font-variant:normal;font-weight:normal;font-stretch:normal;text-align:start;line-height:125%;letter-spacing:0px;word-spacing:0px;writing-mode:lr-tb;text-anchor:start;fill:#665400;fill-opacity:1;stroke:none;font-family:DejaVu Sans;-inkscape-font-specification:DejaVu Sans" />
        </g>
        <g
           transform="translate(182.1875,996.76843)"
           id="layer5">
          <rect
             width="66"
             height="66"
             rx="12"
             ry="12"
             x="15"
             y="15"
             clip-path="url(#clipPath3613-7)"
             id="rect3171"
             style="opacity:0.1;fill:url(#linearGradient3141);fill-opacity:1;fill-rule:nonzero;stroke:#ffffff;stroke-width:0.5;stroke-linecap:round;stroke-linejoin:miter;stroke-miterlimit:4;stroke-opacity:1;stroke-dasharray:none;stroke-dashoffset:0;filter:url(#filter3794-72)" />
        </g>
      </g>
    </g>
  </g>
</svg>
