<?xml version="1.0" encoding="UTF-8" standalone="no"?>
<!-- Created with Inkscape (http://www.inkscape.org/) -->
<svg id="svg2982" xmlns:rdf="http://www.w3.org/1999/02/22-rdf-syntax-ns#" xmlns="http://www.w3.org/2000/svg" height="96" width="96" version="1.1" xmlns:cc="http://creativecommons.org/ns#" xmlns:xlink="http://www.w3.org/1999/xlink" xmlns:dc="http://purl.org/dc/elements/1.1/">
 <defs id="defs2984">
  <filter id="filter6279" color-interpolation-filters="sRGB">
   <feGaussianBlur id="feGaussianBlur6281" stdDeviation="0.8"/>
  </filter>
  <linearGradient id="linearGradient6772" y2="902.36" gradientUnits="userSpaceOnUse" x2="48" gradientTransform="translate(0 -.0000096172)" y1="1052.4" x1="48">
   <stop id="stop3742-7" style="stop-color:#9ee1f9" offset="0"/>
   <stop id="stop3744-9" style="stop-color:#00aff0" offset="1"/>
  </linearGradient>
  <linearGradient id="linearGradient3082-1" y2="53.768" gradientUnits="userSpaceOnUse" x2="51.525" y1="80" x1="56">
   <stop id="stop3742-0" style="stop-color:#9ee1f9" offset="0"/>
   <stop id="stop3744-7" style="stop-color:#00aff0" offset="1"/>
  </linearGradient>
  <linearGradient id="linearGradient3077-2" y2="64" xlink:href="#linearGradient3737-31" gradientUnits="userSpaceOnUse" x2="64" y1="24" x1="32"/>
  <linearGradient id="linearGradient3737-31">
   <stop id="stop3739-07" style="stop-color:#fff" offset="0"/>
   <stop id="stop3741-480" style="stop-color:#fff;stop-opacity:0" offset="1"/>
  </linearGradient>
  <linearGradient id="linearGradient3069" y2="48" xlink:href="#linearGradient3737-31" gradientUnits="userSpaceOnUse" x2="48" y1="16" x1="16"/>
  <linearGradient id="linearGradient3066" y2="48" xlink:href="#linearGradient3737-31" gradientUnits="userSpaceOnUse" x2="48" y1="80" x1="80"/>
 </defs>
 <metadata id="metadata2987">
  <rdf:RDF>
   <cc:Work rdf:about="">
    <dc:format>image/svg+xml</dc:format>
    <dc:type rdf:resource="http://purl.org/dc/dcmitype/StillImage"/>
    <dc:title/>
   </cc:Work>
  </rdf:RDF>
 </metadata>
 <g id="layer1" transform="translate(0 -956.36)">
  <g id="g6831">
   <rect id="rect9283" style="filter:url(#filter6279)" rx="5" ry="5" height="80" width="80" y="964.36" x="8"/>
   <rect id="rect9285" style="fill:url(#linearGradient6772)" rx="5" ry="5" height="80" width="80" y="964.36" x="8"/>
   <g id="g3115" transform="matrix(.78937 0 0 .78937 10.11 966.47)">
    <path id="path3818" d="m33.406 16c-9.6 0-17.406 7.806-17.406 17.406 0 2.9652 0.72093 5.7437 2.0312 8.1875-0.43745 2.0593-0.625 4.2172-0.625 6.4062 0 16.896 13.698 30.594 30.594 30.594 2.189 0 4.347-0.18755 6.4062-0.625 2.452 1.322 5.208 2.031 8.188 2.031 9.6 0 17.406-7.806 17.406-17.406 0-2.98-0.709-5.736-2.031-8.188 0.437-2.059 0.625-4.217 0.625-6.406 0-16.896-13.698-30.594-30.594-30.594-2.1896 0-4.3465 0.24984-6.4062 0.6875-2.444-1.311-5.222-2.094-8.188-2.094z" style="fill:url(#linearGradient3082-1)"/>
    <path id="path3727" d="m33.406 16c-9.6 0-17.406 7.806-17.406 17.406 0 2.9652 0.72093 5.7437 2.0312 8.1875-0.43745 2.0593-0.625 4.2172-0.625 6.4062 0 4.3817 0.93294 8.5426 2.5938 12.312 16.555-13.711 43.222-18.149 57.75-19.593-3.269-13.387-15.361-23.313-29.75-23.313-2.1896 0-4.3465 0.24984-6.4062 0.6875-2.444-1.311-5.222-2.094-8.188-2.094z" style="opacity:.6;fill:url(#linearGradient3077-2)"/>
    <path id="path3781" d="m33.406 15.062c-10.104 0-18.344 8.2401-18.344 18.344 0 2.9972 0.74773 5.8076 2.0312 8.3125-0.40864 2.0419-0.625 4.1454-0.625 6.2812 0 17.398 14.133 31.531 31.531 31.531 2.1358 0 4.2393-0.21636 6.2812-0.625 2.511 1.2931 5.3055 2.0312 8.3125 2.0312 10.104 0 18.344-8.2401 18.344-18.344 0-3.007-0.73818-5.8015-2.0312-8.3125 0.40864-2.0419 0.625-4.1454 0.625-6.2812 0-17.398-14.133-31.531-31.531-31.531-2.1532 0-4.2541 0.27619-6.2812 0.6875-2.495-1.283-5.303-2.0938-8.3125-2.0938zm0 0.9375c-0.6 0-1.1967 0.03423-1.7812 0.09375-0.49975 0.05089-0.98231 0.12635-1.4688 0.21875 0.48778-0.0922 0.96772-0.16804 1.4688-0.21875 0.585-0.059 1.181-0.094 1.781-0.094zm3.4062 0.34375c0.64612 0.13139 1.2859 0.29786 1.9062 0.5-0.61832-0.20328-1.2599-0.36655-1.9062-0.5zm-7.1562 0.0625c-0.47838 0.10565-0.94344 0.23078-1.4062 0.375 0.45955-0.14201 0.93146-0.27078 1.4062-0.375zm-1.625 0.4375c-0.47068 0.15341-0.95405 0.33971-1.4062 0.53125 0.46235-0.19546 0.92461-0.37551 1.4062-0.53125zm18.344 0.594c-0.54231 0.03026-1.0898 0.09767-1.625 0.15625 0.54057-0.0614 1.0801-0.125 1.625-0.15625zm-12.969 0.5c2.6228 0 5.094 0.70209 7.2812 1.875a1.9466 1.9466 0 0 0 1.313 0.187c1.9368-0.41154 3.9585-0.65625 6-0.65625 15.844 0 28.656 12.812 28.656 28.656 0 2.0779-0.19023 4.1005-0.59375 6a1.9466 1.9466 0 0 0 0.1875 1.3438c1.171 2.1718 1.8125 4.5795 1.8125 7.25 0 8.5448-6.9239 15.469-15.469 15.469-2.6705 0-5.0782-0.64156-7.25-1.8125a1.9466 1.9466 0 0 0 -1.344 -0.188c-1.8995 0.40352-3.9221 0.59375-6 0.59375-15.844 0-28.656-12.812-28.656-28.656 0-2.0779 0.19023-4.1005 0.59375-6a1.9466 1.9466 0 0 0 -0.188 -1.312c-1.1605-2.1643-1.8125-4.6316-1.8125-7.2812 0-8.5448 6.9239-15.469 15.469-15.469zm-8.281 0.156c-0.49323 0.26823-0.97443 0.56193-1.4375 0.875-0.40779 0.2757-0.80524 0.56667-1.1875 0.875 0.38072-0.30562 0.78143-0.60172 1.1875-0.875 0.46302-0.3116 0.94431-0.60813 1.4375-0.875zm34.781 1.7188c0.91539 0.38739 1.8201 0.80986 2.6875 1.2812-0.86698-0.47098-1.7725-0.89421-2.6875-1.2812zm-37.562 0.15625c-0.42998 0.35498-0.85605 0.73106-1.25 1.125-0.29 0.29-0.575 0.596-0.844 0.906 0.27183-0.31322 0.55037-0.61332 0.84375-0.90625 0.39793-0.3973 0.8151-0.7676 1.25-1.125zm43.969 3.5c0.78574 0.58774 1.5251 1.2161 2.25 1.875-0.72441-0.65841-1.4647-1.2877-2.25-1.875zm4.3438 3.9688c0.65888 0.72488 1.2873 1.4643 1.875 2.25-0.58729-0.78529-1.2166-1.5256-1.875-2.25zm-53.875 0.8125c-0.16675 0.53514-0.32249 1.0692-0.4375 1.625 0.11385-0.55592 0.27193-1.0897 0.4375-1.625zm58.125 5.1562c0.47139 0.86739 0.89386 1.7721 1.2812 2.6875-0.38704-0.91504-0.81027-1.8205-1.2812-2.6875zm-55.094 26.5c0.38704 0.91504 0.81027 1.8205 1.2812 2.6875-0.47139-0.86739-0.89386-1.7721-1.2812-2.6875zm60.093 4.469c-0.0595 0.58452-0.1339 1.1526-0.25 1.7188 0.1161-0.5661 0.19048-1.1342 0.25-1.7188zm-0.25 1.75c-0.11501 0.55577-0.27075 1.0899-0.4375 1.625 0.16675-0.53514 0.32249-1.0692 0.4375-1.625zm-56.188 0.1875c0.58729 0.78529 1.2166 1.5256 1.875 2.25-0.65888-0.72488-1.2873-1.4643-1.875-2.25zm3.9688 4.3438c0.72441 0.65841 1.4647 1.2877 2.25 1.875-0.78574-0.58774-1.5251-1.2161-2.25-1.875zm5.9688 4.25c0.86698 0.47098 1.7725 0.89421 2.6875 1.2812-0.91539-0.38739-1.8201-0.80986-2.6875-1.2812z" style="fill:#00aff0"/>
    <path id="path3742" d="m47.423 27.702c-4.9793 0-8.9781 1.1021-11.768 3.2386-2.79 2.1365-4.3289 5.3205-4.3289 9.2349 0 4.3338 2.8672 7.099 6.4773 8.8181 3.6101 1.719 8.0132 2.4949 11.351 2.95 3.0305 0.81683 4.5674 1.4863 5.2588 2.1484 0.349 0.33421 0.51032 0.66194 0.60925 1.0902 0.09893 0.42829 0.12826 0.9618 0.12826 1.6354 0 1.4912-0.90761 2.4771-2.2446 3.1745-1.337 0.69737-3.0751 1.0261-4.4571 1.0261-4.2716 0-6.1197-1.4901-7.5996-3.0462-0.73994-0.77809-1.3579-1.5674-2.1484-2.2125-0.7905-0.64511-1.7681-1.1223-3.0462-1.1223-1.2586 0-2.3174 0.21809-3.0462 0.9299-0.72885 0.71182-1.0261 1.8198-1.0261 3.399 0 0.92315 0.43899 1.9253 1.2185 2.95 0.7795 1.0248 1.9005 2.0714 3.3348 3.0142 2.8687 1.8855 6.9904 3.3669 11.993 3.3669 4.9688 0 9.0874-0.94976 11.993-2.918 2.9051-1.9682 4.5533-4.9904 4.5533-8.9143 0-4.0359-1.7166-6.7516-4.4892-8.6577s-6.5633-3.0551-10.838-4.2006a0.4798 0.4798 0 0 0 0 -0.03207c-2.8309-0.68727-5.0535-1.2656-6.4773-1.9881-0.71188-0.36122-1.2131-0.76652-1.5392-1.1864-0.32602-0.41991-0.48099-0.85719-0.48099-1.443 0-1.523 0.76293-2.5203 1.9239-3.2066 1.161-0.68624 2.7224-0.99404 4.1044-0.99404 4.2856 0 5.7737 1.278 6.9262 2.6294 0.57626 0.6757 1.0508 1.4037 1.7315 1.9881 0.68072 0.58438 1.5888 0.99404 2.8538 0.99404 1.2352 0 2.324-0.10024 3.1424-0.70544 0.81846-0.60521 1.2185-1.6763 1.2185-3.2707 0-1.7821-1.3708-3.9109-3.9441-5.6436-2.5733-1.7326-6.3916-3.0462-11.383-3.0462z" style="opacity:.6;fill:#00aff0;fill-rule:evenodd"/>
    <path id="path3757" d="m47.42 28.169c-9.8149 0-15.615 4.4167-15.615 12.001 0 8.2502 10.754 10.381 17.399 11.287 6.2199 1.6666 6.4243 2.6366 6.4243 5.3536 0 3.3862-4.2761 4.6844-7.1827 4.6844-8.7757 0-8.1278-6.3797-12.804-6.3797-2.4091 0-3.569 0.80304-3.569 3.8367s6.2458 8.878 16.061 8.878c9.8149 0 16.061-3.7921 16.061-11.376 0-7.8078-6.4601-10.117-14.99-12.402-5.6738-1.3775-8.8334-2.3689-8.8334-5.0859 0-3.3862 3.6069-4.6844 6.5135-4.6844 8.7757 0 6.834 5.6213 11.51 5.6213 2.4091 0 3.8813-0.49074 3.8813-3.5244s-5.0413-8.2088-14.856-8.2088z" style="fill:#fff;fill-rule:evenodd"/>
    <path id="path3760" d="m33.406 16c-9.601 0-17.406 7.805-17.406 17.406 0 2.8437 0.68416 5.5212 1.9062 7.9062 0.09573 0.18024 0.12928 0.39278 0.09375 0.59375-0.39701 1.9838-0.59375 4.0203-0.59375 6.0938 0 8.4253 3.4288 16.03 8.9375 21.562-4.938-5.432-7.938-12.641-7.938-20.562 0-0.16581-0.0025-0.33467 0-0.5-0.0027-0.16603 0-0.33332 0-0.5 0-1.9241 0.19127-3.7969 0.53125-5.5938 0.000176-0.01042 0.000176-0.02083 0-0.03125-0.009-0.021-0.02-0.042-0.031-0.063-1.222-2.385-1.906-5.062-1.906-7.906 0-0.12654 0.02855-0.2491 0.03125-0.375-0.008-0.21-0.031-0.412-0.031-0.625 0-9.043 7.363-16.406 16.406-16.406 0.21131 0 0.41564 0.02261 0.625 0.03125 0.126-0.002 0.249-0.031 0.375-0.031 2.8437 0 5.4898 0.7422 7.875 1.9688 0.02043 0.0112 0.04128 0.02163 0.0625 0.03125 0.01042 0.000176 0.02083 0.000176 0.03125 0 1.6431-0.32128 3.3369-0.52498 5.0625-0.5625 0.18618-0.004 0.37574-0.03125 0.5625-0.03125 0.16668 0 0.33397-0.0027 0.5 0 0.16537-0.0032 0.33412 0 0.5 0 7.921 0 15.13 2.9997 20.562 7.9375-5.532-5.509-13.137-8.938-21.562-8.938-2.0743 0-4.1094 0.25364-6.0938 0.65625-0.2107 0.04282-0.43613 0.009-0.625-0.09375-2.385-1.226-5.031-1.968-7.875-1.968z" style="fill:url(#linearGradient3069)"/>
    <path id="path3765" d="m62.594 80c9.601 0 17.406-7.805 17.406-17.406 0-2.844-0.684-5.521-1.906-7.906-0.096-0.181-0.13-0.393-0.094-0.594 0.397-1.984 0.594-4.021 0.594-6.094 0-8.4253-3.4288-16.03-8.9375-21.562 4.9378 5.4329 7.9375 12.641 7.9375 20.562 0 0.16581 0.0025 0.33467 0 0.5 0.0027 0.16603 0 0.33332 0 0.5 0 1.9241-0.19127 3.7969-0.53125 5.5938-0.000176 0.01042-0.000176 0.02083 0 0.03125 0.0096 0.02122 0.02005 0.04207 0.03125 0.0625 1.222 2.385 1.906 5.062 1.906 7.906 0 0.12654-0.02855 0.2491-0.03125 0.375 0.008 0.21 0.031 0.412 0.031 0.625 0 9.043-7.363 16.406-16.406 16.406-0.212 0-0.416-0.023-0.625-0.031-0.126 0.002-0.249 0.031-0.375 0.031-2.844 0-5.49-0.742-7.875-1.969-0.021-0.011-0.042-0.021-0.063-0.031-0.01042-0.000176-0.02083-0.000176-0.03125 0-1.6431 0.32128-3.3369 0.52498-5.0625 0.5625-0.18618 0.004-0.37574 0.03125-0.5625 0.03125-0.16668 0-0.33397 0.0027-0.5 0-0.16537 0.0032-0.33412 0-0.5 0-7.921 0-15.13-2.9997-20.562-7.9375 5.5324 5.5087 13.137 8.9375 21.562 8.9375 2.0743 0 4.1094-0.25364 6.0938-0.65625 0.2107-0.04282 0.43613-0.009 0.625 0.09375 2.385 1.227 5.031 1.969 7.875 1.969z" style="fill:url(#linearGradient3066)"/>
    <path id="path3783" d="m33.406 16.938c-8.5448 0-15.469 6.9239-15.469 15.469 0 0.21747 0.02255 0.44131 0.03125 0.65625 0.18354-8.3853 7.0081-15.125 15.438-15.125 2.6228 0 5.094 0.70209 7.2812 1.875a1.9466 1.9466 0 0 0 1.313 0.187c1.9368-0.41154 3.9585-0.65625 6-0.65625 15.676 0 28.388 12.546 28.656 28.156 0.0024-0.16542 0-0.33384 0-0.5 0-15.844-12.812-28.656-28.656-28.656-2.0415 0-4.0632 0.24471-6 0.65625a1.9466 1.9466 0 0 1 -1.3125 -0.1875c-2.1872-1.1729-4.6584-1.875-7.2812-1.875zm-18.312 16.125c-0.0022 0.11551-0.03125 0.22774-0.03125 0.34375 0 2.8901 0.70577 5.5949 1.9062 8.0312 0.04255-0.24084 0.07713-0.47955 0.125-0.71875-1.1899-2.3222-1.8999-4.9036-2-7.6562zm4.8125 8.0312c-0.38975 1.8718-0.5625 3.8632-0.5625 5.9062 0 0.16848-0.0029 0.33222 0 0.5 0.02813-1.9032 0.2225-3.7524 0.59375-5.5a1.9466 1.9466 0 0 0 -0.031 -0.906zm-3.437 6.406c-0.0026 0.16704 0 0.33255 0 0.5 0 17.398 14.133 31.531 31.531 31.531 2.1358 0 4.2393-0.21636 6.2812-0.625 2.511 1.2931 5.3055 2.0312 8.3125 2.0312 10.104 0 18.344-8.2401 18.344-18.344 0-0.21938-0.02346-0.43916-0.03125-0.65625-0.18622 9.9445-8.3249 18-18.312 18-3.007 0-5.8015-0.7382-8.3125-2.0312-2.0419 0.40864-4.1454 0.625-6.2812 0.625-17.231 0-31.263-13.864-31.531-31.031zm63.062 0c-0.03113 1.9635-0.2484 3.8994-0.625 5.7812 0.0462 0.08972 0.08022 0.19081 0.125 0.28125 0.32071-1.8151 0.5-3.6769 0.5-5.5625 0-0.16723 0.0026-0.33338 0-0.5zm-3.4375 6.4062c-0.007 0.032-0.025 0.062-0.032 0.094a1.9466 1.9466 0 0 0 0.1875 1.3438c1.0748 1.9936 1.6853 4.1818 1.7812 6.5938 0.0025-0.1148 0.03125-0.22834 0.03125-0.34375 0-2.6705-0.64155-5.0782-1.8125-7.25a1.9466 1.9466 0 0 1 -0.15625 -0.4375z" style="fill:#0088ba"/>
   </g>
  </g>
 </g>
</svg>
