<?xml version="1.0" encoding="UTF-8" standalone="no"?>
<!-- Created with Inkscape (http://www.inkscape.org/) -->

<svg
   xmlns:dc="http://purl.org/dc/elements/1.1/"
   xmlns:cc="http://creativecommons.org/ns#"
   xmlns:rdf="http://www.w3.org/1999/02/22-rdf-syntax-ns#"
   xmlns:svg="http://www.w3.org/2000/svg"
   xmlns="http://www.w3.org/2000/svg"
   xmlns:xlink="http://www.w3.org/1999/xlink"
   xmlns:sodipodi="http://sodipodi.sourceforge.net/DTD/sodipodi-0.dtd"
   xmlns:inkscape="http://www.inkscape.org/namespaces/inkscape"
   width="96"
   height="96"
   id="svg2982"
   version="1.1"
   inkscape:version="0.48.1 r9760"
   sodipodi:docname="softwarecenter-blankon.svg">
  <defs
     id="defs2984">
    <filter
       color-interpolation-filters="sRGB"
       inkscape:collect="always"
       id="filter6279-2">
      <feGaussianBlur
         inkscape:collect="always"
         stdDeviation="0.8"
         id="feGaussianBlur6281-1" />
    </filter>
    <linearGradient
       inkscape:collect="always"
       xlink:href="#linearGradient3737-66"
       id="linearGradient7984"
       gradientUnits="userSpaceOnUse"
       x1="48"
       y1="20.220806"
       x2="48"
       y2="138.66119" />
    <linearGradient
       id="linearGradient3737-66">
      <stop
         id="stop3739-40"
         style="stop-color:#ffffff;stop-opacity:1"
         offset="0" />
      <stop
         id="stop3741-04-2"
         style="stop-color:#ffffff;stop-opacity:0"
         offset="1" />
    </linearGradient>
    <clipPath
       id="clipPath3613-62">
      <rect
         width="84"
         height="84"
         rx="6"
         ry="6"
         x="6"
         y="6"
         id="rect3615-67"
         style="fill:#ffffff;fill-opacity:1;fill-rule:nonzero;stroke:none" />
    </clipPath>
    <filter
       x="-0.192"
       y="-0.192"
       width="1.3839999"
       height="1.3839999"
       color-interpolation-filters="sRGB"
       id="filter3794-5-1">
      <feGaussianBlur
         id="feGaussianBlur3796-69"
         stdDeviation="5.28" />
    </filter>
    <linearGradient
       inkscape:collect="always"
       xlink:href="#linearGradient4370-8"
       id="linearGradient7636"
       gradientUnits="userSpaceOnUse"
       x1="8"
       y1="38.127232"
       x2="8"
       y2="71.877235" />
    <linearGradient
       id="linearGradient4370-8">
      <stop
         id="stop4372"
         style="stop-color:#8a5b30;stop-opacity:1"
         offset="0" />
      <stop
         id="stop4374"
         style="stop-color:#8a5b30;stop-opacity:0"
         offset="1" />
    </linearGradient>
    <linearGradient
       inkscape:collect="always"
       xlink:href="#linearGradient4289"
       id="linearGradient7638"
       gradientUnits="userSpaceOnUse"
       x1="54.187183"
       y1="90"
       x2="54.187183"
       y2="39.852562" />
    <linearGradient
       id="linearGradient4289">
      <stop
         id="stop4291"
         style="stop-color:#996c3b;stop-opacity:1"
         offset="0" />
      <stop
         id="stop4293"
         style="stop-color:#c19e6d;stop-opacity:1"
         offset="1" />
    </linearGradient>
    <radialGradient
       inkscape:collect="always"
       xlink:href="#linearGradient4426"
       id="radialGradient7640"
       gradientUnits="userSpaceOnUse"
       gradientTransform="matrix(0.867765,0,0,0.09523809,6.3472804,36.190476)"
       cx="48"
       cy="73.14563"
       fx="48"
       fy="73.14563"
       r="42" />
    <linearGradient
       id="linearGradient4426">
      <stop
         id="stop4428-3"
         style="stop-color:#71461e;stop-opacity:1"
         offset="0" />
      <stop
         id="stop4430-1"
         style="stop-color:#71461e;stop-opacity:0"
         offset="1" />
    </linearGradient>
    <linearGradient
       inkscape:collect="always"
       xlink:href="#linearGradient4370-8"
       id="linearGradient7642"
       gradientUnits="userSpaceOnUse"
       gradientTransform="matrix(-1,0,0,1,96,0)"
       x1="8"
       y1="38.127232"
       x2="8"
       y2="87.029526" />
    <linearGradient
       id="linearGradient6312">
      <stop
         id="stop6314"
         style="stop-color:#8a5b30;stop-opacity:1"
         offset="0" />
      <stop
         id="stop6316"
         style="stop-color:#8a5b30;stop-opacity:0"
         offset="1" />
    </linearGradient>
    <linearGradient
       inkscape:collect="always"
       xlink:href="#linearGradient3737-33"
       id="linearGradient7644"
       gradientUnits="userSpaceOnUse"
       gradientTransform="matrix(-1,0,0,1,96,0)"
       x1="10"
       y1="40.263424"
       x2="10"
       y2="89.666374" />
    <linearGradient
       id="linearGradient3737-33">
      <stop
         id="stop3739-86"
         style="stop-color:#ffffff;stop-opacity:1"
         offset="0" />
      <stop
         id="stop3741-04"
         style="stop-color:#ffffff;stop-opacity:0"
         offset="1" />
    </linearGradient>
    <linearGradient
       inkscape:collect="always"
       xlink:href="#linearGradient3737-33"
       id="linearGradient7646"
       gradientUnits="userSpaceOnUse"
       x1="10"
       y1="40.263424"
       x2="10"
       y2="89.666374" />
    <linearGradient
       id="linearGradient6323">
      <stop
         id="stop6325"
         style="stop-color:#ffffff;stop-opacity:1"
         offset="0" />
      <stop
         id="stop6327"
         style="stop-color:#ffffff;stop-opacity:0"
         offset="1" />
    </linearGradient>
    <linearGradient
       inkscape:collect="always"
       xlink:href="#linearGradient5092"
       id="linearGradient7648"
       gradientUnits="userSpaceOnUse"
       x1="47.079498"
       y1="32.782871"
       x2="6.5962563"
       y2="9.4098616" />
    <linearGradient
       id="linearGradient5092">
      <stop
         id="stop5094"
         style="stop-color:#be9f6a;stop-opacity:1"
         offset="0" />
      <stop
         id="stop5096"
         style="stop-color:#e5d2b2;stop-opacity:1"
         offset="1" />
    </linearGradient>
    <filter
       x="-0.31155673"
       y="-0.42628157"
       width="1.6231135"
       height="1.8525631"
       color-interpolation-filters="sRGB"
       id="filter4362">
      <feGaussianBlur
         id="feGaussianBlur4364"
         stdDeviation="6.2124381" />
    </filter>
    <linearGradient
       inkscape:collect="always"
       xlink:href="#linearGradient4295"
       id="linearGradient7650"
       gradientUnits="userSpaceOnUse"
       x1="48"
       y1="42"
       x2="6.7812738"
       y2="18.202358" />
    <linearGradient
       id="linearGradient4295">
      <stop
         id="stop4297-7"
         style="stop-color:#b88f56;stop-opacity:1"
         offset="0" />
      <stop
         id="stop4299"
         style="stop-color:#d9bd98;stop-opacity:1"
         offset="1" />
    </linearGradient>
    <linearGradient
       inkscape:collect="always"
       xlink:href="#linearGradient4295"
       id="linearGradient7652"
       gradientUnits="userSpaceOnUse"
       gradientTransform="matrix(-1,0,0,1,96,0)"
       x1="47.226776"
       y1="29.039698"
       x2="6.3304405"
       y2="18.081558" />
    <linearGradient
       id="linearGradient6340">
      <stop
         id="stop6342"
         style="stop-color:#b88f56;stop-opacity:1"
         offset="0" />
      <stop
         id="stop6344"
         style="stop-color:#d9bd98;stop-opacity:1"
         offset="1" />
    </linearGradient>
    <linearGradient
       inkscape:collect="always"
       xlink:href="#linearGradient3737-33"
       id="linearGradient7654"
       gradientUnits="userSpaceOnUse"
       x1="23.142857"
       y1="42"
       x2="66.964287"
       y2="6" />
    <linearGradient
       id="linearGradient6347">
      <stop
         id="stop6349"
         style="stop-color:#ffffff;stop-opacity:1"
         offset="0" />
      <stop
         id="stop6351"
         style="stop-color:#ffffff;stop-opacity:0"
         offset="1" />
    </linearGradient>
    <linearGradient
       inkscape:collect="always"
       xlink:href="#linearGradient4414-2"
       id="linearGradient7656"
       gradientUnits="userSpaceOnUse"
       x1="8.9651041"
       y1="44.040279"
       x2="8.9651041"
       y2="52.263294" />
    <linearGradient
       id="linearGradient4414-2">
      <stop
         id="stop4416-5"
         style="stop-color:#dac3a2;stop-opacity:1"
         offset="0" />
      <stop
         id="stop4418-4"
         style="stop-color:#dac3a2;stop-opacity:0"
         offset="1" />
    </linearGradient>
    <linearGradient
       inkscape:collect="always"
       xlink:href="#linearGradient4414-2"
       id="linearGradient7658"
       gradientUnits="userSpaceOnUse"
       gradientTransform="matrix(-1,0,0,1,96.086934,0)"
       x1="8.9651041"
       y1="44.040279"
       x2="8.9651041"
       y2="52.263294" />
    <linearGradient
       id="linearGradient6358">
      <stop
         id="stop6360"
         style="stop-color:#dac3a2;stop-opacity:1"
         offset="0" />
      <stop
         id="stop6362"
         style="stop-color:#dac3a2;stop-opacity:0"
         offset="1" />
    </linearGradient>
    <radialGradient
       inkscape:collect="always"
       xlink:href="#linearGradient3737-4-9"
       id="radialGradient7660"
       gradientUnits="userSpaceOnUse"
       gradientTransform="matrix(1.1573129,0,0,0.99590774,-7.551021,0.1971319)"
       cx="48"
       cy="90.171875"
       fx="48"
       fy="90.171875"
       r="42" />
    <linearGradient
       id="linearGradient3737-4-9">
      <stop
         id="stop3739-1-2"
         style="stop-color:#ffffff;stop-opacity:1"
         offset="0" />
      <stop
         id="stop3741-8-2"
         style="stop-color:#ffffff;stop-opacity:0"
         offset="1" />
    </linearGradient>
    <linearGradient
       inkscape:collect="always"
       xlink:href="#linearGradient3928"
       id="linearGradient7662"
       gradientUnits="userSpaceOnUse"
       x1="48.40115"
       y1="61.990967"
       x2="48.40115"
       y2="4.6666145" />
    <linearGradient
       id="linearGradient3928">
      <stop
         id="stop3930"
         style="stop-color:#3a240f;stop-opacity:1"
         offset="0" />
      <stop
         id="stop3932"
         style="stop-color:#3a240f;stop-opacity:0"
         offset="1" />
    </linearGradient>
    <linearGradient
       inkscape:collect="always"
       xlink:href="#linearGradient3928"
       id="linearGradient7664"
       gradientUnits="userSpaceOnUse"
       x1="46.795631"
       y1="60.307007"
       x2="46.795631"
       y2="6.0179305" />
    <linearGradient
       id="linearGradient6373">
      <stop
         id="stop6375"
         style="stop-color:#3a240f;stop-opacity:1"
         offset="0" />
      <stop
         id="stop6377"
         style="stop-color:#3a240f;stop-opacity:0"
         offset="1" />
    </linearGradient>
    <linearGradient
       inkscape:collect="always"
       xlink:href="#linearGradient4309-0"
       id="linearGradient7666"
       gradientUnits="userSpaceOnUse"
       gradientTransform="matrix(1.0200612,0,0,1.0200612,-5.2981966,5.7562054)"
       x1="50.499405"
       y1="19.881863"
       x2="50.499405"
       y2="47.295406" />
    <linearGradient
       x1="52.25"
       y1="47.247101"
       x2="52.25"
       y2="0.2393"
       id="linearGradient4309-0"
       gradientUnits="userSpaceOnUse">
      <stop
         id="stop4311-0"
         style="stop-color:#d8cab2;stop-opacity:1"
         offset="0" />
      <stop
         id="stop4321-6"
         style="stop-color:#d2b98c;stop-opacity:1"
         offset="0.45710954" />
      <stop
         id="stop4323-2"
         style="stop-color:#f9f7ef;stop-opacity:1"
         offset="0.48590001" />
      <stop
         id="stop4325-6"
         style="stop-color:#ffffff;stop-opacity:1"
         offset="0.49110001" />
      <stop
         id="stop4327-6"
         style="stop-color:#fbf9f4;stop-opacity:1"
         offset="0.49180001" />
      <stop
         id="stop4329-8"
         style="stop-color:#efe7d0;stop-opacity:1"
         offset="0.4946" />
      <stop
         id="stop4331-3"
         style="stop-color:#e4d6b0;stop-opacity:1"
         offset="0.49770001" />
      <stop
         id="stop4333-3"
         style="stop-color:#dac894;stop-opacity:1"
         offset="0.5011" />
      <stop
         id="stop4335-4"
         style="stop-color:#c7a572;stop-opacity:1"
         offset="0.50489998" />
      <stop
         id="stop4347-8"
         style="stop-color:#d7c198;stop-opacity:1"
         offset="1" />
    </linearGradient>
    <linearGradient
       inkscape:collect="always"
       xlink:href="#linearGradient3477"
       id="linearGradient7966"
       gradientUnits="userSpaceOnUse"
       gradientTransform="matrix(0.2525249,0,0,0.2461456,64.687558,-65.703298)"
       x1="55.442249"
       y1="527.18024"
       x2="369.71884"
       y2="527.18024" />
    <linearGradient
       id="linearGradient3477">
      <stop
         style="stop-color:#999999;stop-opacity:1;"
         offset="0"
         id="stop3479" />
      <stop
         id="stop3485-5"
         offset="1"
         style="stop-color:#615757;stop-opacity:1;" />
      <stop
         style="stop-color:#6e6262;stop-opacity:1;"
         offset="1"
         id="stop3481-7" />
    </linearGradient>
    <linearGradient
       inkscape:collect="always"
       xlink:href="#linearGradient3465"
       id="linearGradient7968"
       gradientUnits="userSpaceOnUse"
       gradientTransform="matrix(0.2525249,0,0,0.2461456,64.687558,-65.703298)"
       x1="265.44083"
       y1="556.47882"
       x2="371.0932"
       y2="723.55957" />
    <linearGradient
       id="linearGradient3465">
      <stop
         style="stop-color:#b3b3b3;stop-opacity:1;"
         offset="0"
         id="stop3467-6" />
      <stop
         id="stop3475-6"
         offset="0.52495533"
         style="stop-color:#757070;stop-opacity:1;" />
      <stop
         style="stop-color:#382e2e;stop-opacity:1;"
         offset="1"
         id="stop3469" />
    </linearGradient>
    <linearGradient
       inkscape:collect="always"
       xlink:href="#linearGradient3487-9"
       id="linearGradient7970"
       gradientUnits="userSpaceOnUse"
       gradientTransform="matrix(0.2525249,0,0,0.2461456,64.687558,-65.703298)"
       x1="176.1093"
       y1="570.69421"
       x2="236.97879"
       y2="798.16138" />
    <linearGradient
       id="linearGradient3487-9">
      <stop
         style="stop-color:#00ff00;stop-opacity:1;"
         offset="0"
         id="stop3489-1" />
      <stop
         id="stop5420"
         offset="1"
         style="stop-color:#0c770c;stop-opacity:1;" />
      <stop
         style="stop-color:#377f37;stop-opacity:1"
         offset="1"
         id="stop3491-4" />
    </linearGradient>
    <linearGradient
       inkscape:collect="always"
       xlink:href="#linearGradient3519-5"
       id="linearGradient7972"
       gradientUnits="userSpaceOnUse"
       gradientTransform="matrix(0.9910087,0,0,1,19.090583,0)"
       x1="230.457"
       y1="475.44635"
       x2="217.22946"
       y2="557.58038" />
    <linearGradient
       inkscape:collect="always"
       id="linearGradient3519-5">
      <stop
         style="stop-color:#ffffff;stop-opacity:1;"
         offset="0"
         id="stop3521" />
      <stop
         style="stop-color:#ffffff;stop-opacity:0;"
         offset="1"
         id="stop3523" />
    </linearGradient>
    <linearGradient
       inkscape:collect="always"
       xlink:href="#linearGradient3753"
       id="linearGradient7974"
       gradientUnits="userSpaceOnUse"
       gradientTransform="matrix(0.8880953,0,0,1.0258995,63.196491,-12.504585)"
       x1="442.20053"
       y1="662.25867"
       x2="361.52811"
       y2="668.55859" />
    <linearGradient
       inkscape:collect="always"
       id="linearGradient3753">
      <stop
         style="stop-color:#ffffff;stop-opacity:1;"
         offset="0"
         id="stop3755-3" />
      <stop
         style="stop-color:#ffffff;stop-opacity:0;"
         offset="1"
         id="stop3757" />
    </linearGradient>
    <linearGradient
       inkscape:collect="always"
       xlink:href="#linearGradient3797"
       id="linearGradient7976"
       gradientUnits="userSpaceOnUse"
       gradientTransform="matrix(0.9910087,0,0,1,19.090583,0)"
       x1="44.73925"
       y1="630.78082"
       x2="90.569862"
       y2="643.46875" />
    <linearGradient
       inkscape:collect="always"
       id="linearGradient3797">
      <stop
         style="stop-color:#ffffff;stop-opacity:1;"
         offset="0"
         id="stop3799-6" />
      <stop
         style="stop-color:#ffffff;stop-opacity:0;"
         offset="1"
         id="stop3801-7" />
    </linearGradient>
    <linearGradient
       inkscape:collect="always"
       xlink:href="#linearGradient3163-6"
       id="linearGradient7978"
       gradientUnits="userSpaceOnUse"
       gradientTransform="translate(4.7059744,0)"
       x1="180.47511"
       y1="139.54355"
       x2="210.23701"
       y2="274.48505" />
    <linearGradient
       id="linearGradient3163-6">
      <stop
         id="stop3165-9"
         offset="0"
         style="stop-color:#00a600;stop-opacity:1;" />
      <stop
         id="stop3167"
         offset="1"
         style="stop-color:#007900;stop-opacity:1;" />
    </linearGradient>
    <linearGradient
       inkscape:collect="always"
       xlink:href="#linearGradient8739"
       id="linearGradient7980"
       gradientUnits="userSpaceOnUse"
       gradientTransform="matrix(0,1,1,0,54.87412,-21.281241)"
       x1="94.162247"
       y1="56.119312"
       x2="112.35677"
       y2="62.129879" />
    <linearGradient
       id="linearGradient8739">
      <stop
         style="stop-color:#ffffff;stop-opacity:1"
         offset="0"
         id="stop8741" />
      <stop
         style="stop-color:#ffffff;stop-opacity:0"
         offset="1"
         id="stop8743" />
    </linearGradient>
    <linearGradient
       inkscape:collect="always"
       xlink:href="#linearGradient8739"
       id="linearGradient7982"
       gradientUnits="userSpaceOnUse"
       gradientTransform="matrix(0,-1,-1,0,190.28517,218.42782)"
       x1="94.162247"
       y1="56.119312"
       x2="112.35677"
       y2="62.129879" />
    <linearGradient
       id="linearGradient6427">
      <stop
         style="stop-color:#ffffff;stop-opacity:1"
         offset="0"
         id="stop6429" />
      <stop
         style="stop-color:#ffffff;stop-opacity:0"
         offset="1"
         id="stop6431" />
    </linearGradient>
    <filter
       color-interpolation-filters="sRGB"
       inkscape:collect="always"
       id="filter6279-2-4">
      <feGaussianBlur
         inkscape:collect="always"
         stdDeviation="0.8"
         id="feGaussianBlur6281-1-0" />
    </filter>
    <linearGradient
       inkscape:collect="always"
       xlink:href="#linearGradient3700-12"
       id="linearGradient6111"
       gradientUnits="userSpaceOnUse"
       gradientTransform="translate(0,-7.8515552e-6)"
       x1="48"
       y1="1052.3622"
       x2="48"
       y2="902.36218" />
    <linearGradient
       id="linearGradient3700-12">
      <stop
         id="stop3702-89"
         style="stop-color:#1a1818;stop-opacity:1"
         offset="0" />
      <stop
         id="stop3704-36"
         style="stop-color:#403d3d;stop-opacity:1"
         offset="1" />
    </linearGradient>
  </defs>
  <sodipodi:namedview
     id="base"
     pagecolor="#ffffff"
     bordercolor="#666666"
     borderopacity="1.0"
     inkscape:pageopacity="0.0"
     inkscape:pageshadow="2"
     inkscape:zoom="5.6"
     inkscape:cx="44.90781"
     inkscape:cy="44.520599"
     inkscape:document-units="px"
     inkscape:current-layer="layer1"
     showgrid="false"
     inkscape:window-width="1280"
     inkscape:window-height="763"
     inkscape:window-x="0"
     inkscape:window-y="0"
     inkscape:window-maximized="1" />
  <metadata
     id="metadata2987">
    <rdf:RDF>
      <cc:Work
         rdf:about="">
        <dc:format>image/svg+xml</dc:format>
        <dc:type
           rdf:resource="http://purl.org/dc/dcmitype/StillImage" />
        <dc:title />
      </cc:Work>
    </rdf:RDF>
  </metadata>
  <g
     inkscape:label="Layer 1"
     inkscape:groupmode="layer"
     id="layer1"
     transform="translate(0,-956.36218)">
    <g
       id="g3177">
      <g
         id="g8016">
        <rect
           ry="5"
           rx="5"
           style="fill:#000000;fill-opacity:1;stroke:none;filter:url(#filter6279-2)"
           id="rect9283"
           width="80"
           height="80"
           x="8"
           y="964.36218"
           transform="translate(0,-7.8515622e-6)" />
        <g
           transform="translate(0,956.36218)"
           id="layer5">
          <rect
             width="66"
             height="66"
             rx="12"
             ry="12"
             x="15"
             y="15"
             clip-path="url(#clipPath3613-62)"
             id="rect3171"
             style="opacity:0.1;fill:url(#linearGradient7984);fill-opacity:1;fill-rule:nonzero;stroke:#ffffff;stroke-width:0.5;stroke-linecap:round;stroke-linejoin:miter;stroke-miterlimit:4;stroke-opacity:1;stroke-dasharray:none;stroke-dashoffset:0;filter:url(#filter3794-5-1)" />
        </g>
        <rect
           y="964.36218"
           x="8"
           height="80"
           width="80"
           id="rect9285"
           style="fill:#825023;fill-opacity:1;stroke:none"
           rx="5"
           ry="5" />
        <g
           id="g26594"
           transform="translate(-182.1875,-40.40625)">
          <g
             id="layer1-7"
             style="display:inline"
             transform="matrix(0.6547619,0,0,0.6547619,198.75893,1013.8399)">
            <path
               d="m 6,36 0,48 c 0,1.781762 0.7745675,3.371709 2,4.46875 L 8,36 6,36 z"
               inkscape:connector-curvature="0"
               id="rect5138"
               style="fill:url(#linearGradient7636);fill-opacity:1;fill-rule:nonzero;stroke:none" />
            <rect
               width="84"
               height="84"
               rx="6"
               ry="6"
               x="6"
               y="6"
               id="rect2419"
               style="fill:url(#linearGradient7638);fill-opacity:1;fill-rule:nonzero;stroke:none" />
            <path
               d="m 6,36 0,2 c 0,3.324 2.676,6 6,6 l 72,0 c 3.324,0 6,-2.676 6,-6 l 0,-2 c 0,3.324 -2.676,6 -6,6 L 12,42 C 8.676,42 6,39.324 6,36 z"
               inkscape:connector-curvature="0"
               id="path3287"
               style="fill:url(#radialGradient7640);fill-opacity:1;fill-rule:nonzero;stroke:none" />
            <path
               d="m 90,36 0,48 c 0,1.781762 -0.774567,3.371709 -2,4.46875 L 88,36 l 2,0 z"
               inkscape:connector-curvature="0"
               id="path4396"
               style="fill:url(#linearGradient7642);fill-opacity:1;fill-rule:nonzero;stroke:none" />
            <rect
               width="84"
               height="24"
               rx="6"
               ry="6"
               x="6"
               y="18"
               id="rect2483"
               style="fill:#3c2510;fill-opacity:1;fill-rule:nonzero;stroke:none" />
            <path
               d="m 88,36 0,52.46875 c -0.576856,0.516417 -1.254924,0.923089 -2,1.1875 L 86,36 l 2,0 z"
               inkscape:connector-curvature="0"
               id="path4398"
               style="opacity:0.3;fill:url(#linearGradient7644);fill-opacity:1;fill-rule:nonzero;stroke:none" />
            <path
               d="m 8,36 0,52.46875 c 0.5768558,0.516417 1.254924,0.923089 2,1.1875 L 10,36 8,36 z"
               inkscape:connector-curvature="0"
               id="path4378"
               style="opacity:0.3;fill:url(#linearGradient7646);fill-opacity:1;fill-rule:nonzero;stroke:none" />
            <path
               d="M 12,6 C 8.7734181,6 6,8.2592995 6,13 L 6,15 6,35.65625 48,35.69067 48,6 14,6 12,6 z"
               inkscape:connector-curvature="0"
               id="path5055"
               style="fill:url(#linearGradient7648);fill-opacity:1;fill-rule:nonzero;stroke:none" />
            <rect
               width="47.855976"
               height="34.976532"
               rx="6"
               ry="6"
               x="12.753176"
               y="41.956837"
               transform="matrix(1,0,0,0.8555957,10,8.5841304)"
               id="rect4356"
               style="opacity:0.3;fill:#dac7a8;fill-opacity:1;fill-rule:nonzero;stroke:none;filter:url(#filter4362)" />
            <path
               d="M 12,6 C 8.676,6 6,8.676 6,12 l 0,24 c 0,3.324 2.676,6 6,6 L 48,40 48,4 12,6 z"
               inkscape:connector-curvature="0"
               id="rect2481"
               style="fill:url(#linearGradient7650);fill-opacity:1;fill-rule:nonzero;stroke:none" />
            <path
               d="m 84,6 c 3.324,0 6,2.676 6,6 l 0,24 c 0,3.324 -2.676,6 -6,6 L 48,40 48,4 84,6 z"
               inkscape:connector-curvature="0"
               id="path3262"
               style="fill:url(#linearGradient7652);fill-opacity:1;fill-rule:nonzero;stroke:none" />
            <path
               d="M 12,6 C 8.676,6 6,8.676 6,12 l 0,24 c 0,3.324 2.676,6 6,6 l 36,-2 36,2 c 3.324,0 6,-2.676 6,-6 L 90,12 C 90,8.676 87.324,6 84,6 L 48,4 12,6 z m 0,2 36,-2 36,2 c 2.245802,0 4,1.7541975 4,4 l 0,24 c 0,2.245802 -1.754198,4 -4,4 L 48,38 12,40 C 9.7541975,40 8,38.245802 8,36 L 8,12 C 8,9.7541975 9.7541975,8 12,8 z"
               inkscape:connector-curvature="0"
               id="rect3266"
               style="opacity:0.3;fill:url(#linearGradient7654);fill-opacity:1;fill-rule:nonzero;stroke:none" />
            <path
               d="m 6.1871843,37.284884 c 2.3991123,5.555839 1.894036,16.036171 1.894036,16.036171 L 9.9121217,53.068517 C 9.6595836,44.861028 10.354063,41.83057 14.89975,41.704301 7.7307581,40.509469 6.1871843,37.284884 6.1871843,37.284884 z"
               inkscape:connector-curvature="0"
               id="path4404"
               style="fill:url(#linearGradient7656);fill-opacity:1;fill-rule:evenodd;stroke:none" />
            <path
               d="m 89.89975,37.284884 c -2.399112,5.555839 -1.894036,16.036171 -1.894036,16.036171 L 86.174813,53.068517 C 86.427351,44.861028 85.732871,41.83057 81.187184,41.704301 88.356176,40.509469 89.89975,37.284884 89.89975,37.284884 z"
               inkscape:connector-curvature="0"
               id="path4422"
               style="fill:url(#linearGradient7658);fill-opacity:1;fill-rule:evenodd;stroke:none" />
            <path
               d="M 12,90 C 8.676,90 6,87.324 6,84 L 6,82 6,14 6,12 c 0,-0.334721 0.04135,-0.6507 0.09375,-0.96875 0.0487,-0.295596 0.09704,-0.596915 0.1875,-0.875 C 6.29113,10.12587 6.302142,10.09265 6.3125,10.0625 6.411365,9.774729 6.5473802,9.515048 6.6875,9.25 6.8320918,8.976493 7.0031161,8.714385 7.1875,8.46875 7.3718839,8.223115 7.5612765,7.995278 7.78125,7.78125 8.221197,7.353194 8.72416,6.966724 9.28125,6.6875 9.559795,6.547888 9.8547231,6.440553 10.15625,6.34375 9.9000482,6.443972 9.6695391,6.580022 9.4375,6.71875 c -0.00741,0.0044 -0.023866,-0.0045 -0.03125,0 -0.031933,0.0193 -0.062293,0.04251 -0.09375,0.0625 -0.120395,0.0767 -0.2310226,0.163513 -0.34375,0.25 -0.1061728,0.0808 -0.2132809,0.161112 -0.3125,0.25 C 8.4783201,7.442683 8.3087904,7.626638 8.15625,7.8125 8.0486711,7.942755 7.9378561,8.077785 7.84375,8.21875 7.818661,8.25713 7.805304,8.30462 7.78125,8.34375 7.716487,8.446782 7.6510225,8.548267 7.59375,8.65625 7.4927417,8.850956 7.3880752,9.071951 7.3125,9.28125 7.30454,9.30306 7.288911,9.3218 7.28125,9.34375 7.2494249,9.4357 7.2454455,9.530581 7.21875,9.625 7.1884177,9.731618 7.1483606,9.828031 7.125,9.9375 7.0521214,10.279012 7,10.635705 7,11 l 0,2 0,68 0,2 c 0,2.781848 2.2181517,5 5,5 l 2,0 68,0 2,0 c 2.781848,0 5,-2.218152 5,-5 l 0,-2 0,-68 0,-2 C 89,10.635705 88.94788,10.279012 88.875,9.9375 88.83085,9.730607 88.78662,9.539842 88.71875,9.34375 88.71105,9.3218 88.69545,9.30306 88.6875,9.28125 88.62476,9.107511 88.549117,8.913801 88.46875,8.75 88.42717,8.6672 88.38971,8.580046 88.34375,8.5 88.28915,8.40279 88.216976,8.31165 88.15625,8.21875 88.06214,8.077785 87.951329,7.942755 87.84375,7.8125 87.700576,7.63805 87.540609,7.465502 87.375,7.3125 87.36383,7.3023 87.35502,7.29135 87.34375,7.28125 87.205364,7.155694 87.058659,7.046814 86.90625,6.9375 86.803679,6.86435 86.701932,6.784136 86.59375,6.71875 c -0.0074,-0.0045 -0.02384,0.0044 -0.03125,0 -0.232039,-0.138728 -0.462548,-0.274778 -0.71875,-0.375 0.301527,0.0968 0.596455,0.204138 0.875,0.34375 0.55709,0.279224 1.060053,0.665694 1.5,1.09375 0.219973,0.214028 0.409366,0.441865 0.59375,0.6875 0.184384,0.245635 0.355408,0.507743 0.5,0.78125 0.14012,0.265048 0.276135,0.524729 0.375,0.8125 0.01041,0.03078 0.02133,0.06274 0.03125,0.09375 0.09046,0.278085 0.1388,0.579404 0.1875,0.875 C 89.95865,11.3493 90,11.665279 90,12 l 0,2 0,68 0,2 c 0,3.324 -2.676,6 -6,6 l -72,0 z"
               inkscape:connector-curvature="0"
               id="path3615"
               style="opacity:0.2;fill:url(#radialGradient7660);fill-opacity:1;fill-rule:nonzero;stroke:none" />
            <path
               d="M 54.120367,7 42.000001,7 42.060185,31.062224 42.194833,60 47.881674,59.50527 53.925535,58.979939 53.958175,53.428766 54.060182,31.062224 54.120362,7 z"
               inkscape:connector-curvature="0"
               id="path5008"
               style="opacity:0.5;fill:#3a240f;fill-opacity:1;display:inline" />
            <path
               d="m 41.6875,5.125 c 0.0042,-7.112e-4 -0.191651,0.032337 -0.1875,0.03125 0.0042,-0.00109 -0.160287,0.063954 -0.15625,0.0625 0.004,-0.00145 -0.160141,0.064309 -0.15625,0.0625 0.0039,-0.00181 -0.128713,0.06465 -0.125,0.0625 0.0037,-0.00215 -0.159756,0.096223 -0.15625,0.09375 0.0035,-0.00247 -0.128271,0.1277772 -0.125,0.125 0.0033,-0.00278 -0.128009,0.096809 -0.125,0.09375 0.003,-0.00306 -0.127724,0.1283156 -0.125,0.125 0.0027,-0.00332 -0.09617,0.1597959 -0.09375,0.15625 0.0024,-0.00355 -0.09584,0.1287479 -0.09375,0.125 0.0021,-0.00375 -0.06424,0.1601697 -0.0625,0.15625 0.0017,-0.00392 -0.06389,0.1603101 -0.0625,0.15625 0.0014,-0.00406 -0.03227,0.160418 -0.03125,0.15625 10e-4,-0.00417 -0.06314,0.1604925 -0.0625,0.15625 6.42e-4,-0.00424 -2.6e-4,0.1917829 0,0.1875 2.08e-4,-0.00343 7.69e-4,0.08233 0,0.125 l 0,0.03125 L 40.1875,31.0625 40.3125,60 a 1.0057838,1.0057838 0 0 0 0,0.03125 c -4.2e-5,-0.0025 1.68e-4,0.0962 0,0.09375 -1.68e-4,-0.0025 2.94e-4,0.09619 0,0.09375 -2.94e-4,-0.0024 0.03167,0.09617 0.03125,0.09375 -4.19e-4,-0.0024 5.42e-4,0.09615 0,0.09375 -5.42e-4,-0.0024 0.03191,0.09611 0.03125,0.09375 -6.64e-4,-0.0024 0.03204,0.09608 0.03125,0.09375 -7.85e-4,-0.0023 0.03215,0.06479 0.03125,0.0625 -9.03e-4,-0.0023 0.03227,0.09599 0.03125,0.09375 -10e-4,-0.0022 0.06363,0.09593 0.0625,0.09375 -0.0011,-0.0022 0.03249,0.09587 0.03125,0.09375 -0.0012,-0.0021 0.06385,0.06455 0.0625,0.0625 -0.0014,-0.0021 0.0327,0.09573 0.03125,0.09375 -0.0015,-0.002 0.06405,0.0644 0.0625,0.0625 -0.0016,-0.0019 0.06415,0.09557 0.0625,0.09375 -0.0016,-0.0018 0.06424,0.06423 0.0625,0.0625 -0.0017,-0.0017 0.09558,0.06414 0.09375,0.0625 -0.0018,-0.0016 0.06441,0.06405 0.0625,0.0625 -0.0019,-0.0015 0.06448,0.06395 0.0625,0.0625 -0.002,-0.0014 0.09581,0.06384 0.09375,0.0625 -0.0021,-0.0013 0.06462,0.03249 0.0625,0.03125 -0.0021,-0.0012 0.09593,0.06363 0.09375,0.0625 -0.0022,-0.0011 0.09599,0.03226 0.09375,0.03125 -0.0022,-10e-4 0.09604,0.03215 0.09375,0.03125 -0.0023,-8.97e-4 0.09608,0.03203 0.09375,0.03125 -0.0023,-7.79e-4 0.09612,0.03191 0.09375,0.03125 -0.0024,-6.58e-4 0.09615,0.03179 0.09375,0.03125 -0.0024,-5.36e-4 0.09617,4.12e-4 0.09375,0 -0.0024,-4.12e-4 0.09619,0.03154 0.09375,0.03125 -0.0024,-2.88e-4 0.0962,1.62e-4 0.09375,0 -0.0025,-1.62e-4 0.09621,3.6e-5 0.09375,0 -0.0025,-3.6e-5 0.0962,-9e-5 0.09375,0 -0.0025,9e-5 0.0962,-2.16e-4 0.09375,0 l 5.6875,-0.5 6.03125,-0.53125 c -8.93e-4,5.1e-5 0.02019,0.0012 0.03125,0 0.04424,-0.0047 0.128538,-5.37e-4 0.125,0 -0.0044,6.71e-4 0.19184,-0.06358 0.1875,-0.0625 -0.0043,0.0011 0.160471,-0.03273 0.15625,-0.03125 -0.0042,0.0015 0.160314,-0.06437 0.15625,-0.0625 -0.0041,0.0019 0.160122,-0.09599 0.15625,-0.09375 -0.0039,0.0022 0.159897,-0.09634 0.15625,-0.09375 -0.0036,0.0026 0.128389,-0.09667 0.125,-0.09375 -0.0034,0.0029 0.128103,-0.128222 0.125,-0.125 -0.0031,0.0032 0.127789,-0.128497 0.125,-0.125 -0.0028,0.0035 0.0962,-0.159992 0.09375,-0.15625 -0.0025,0.0037 0.09584,-0.160204 0.09375,-0.15625 -0.0021,0.004 0.09546,-0.160382 0.09375,-0.15625 -0.0017,0.0041 0.06382,-0.160524 0.0625,-0.15625 -0.0013,0.0043 0.03217,-0.160628 0.03125,-0.15625 -9.16e-4,0.0044 0.03175,-0.191944 0.03125,-0.1875 -5.04e-4,0.0044 8.7e-5,-0.160722 0,-0.15625 a 1.0057838,1.0057838 0 0 0 0,-0.03125 L 55.84375,53.4375 55.9375,31.0625 56,7 c -7.3e-5,0.00479 -4.06e-4,-0.1610265 0,-0.15625 4.06e-4,0.00478 -0.03213,-0.1922121 -0.03125,-0.1875 8.81e-4,0.00471 -0.0326,-0.1921004 -0.03125,-0.1875 0.0013,0.0046 -0.0643,-0.1919427 -0.0625,-0.1875 0.0018,0.00444 -0.09599,-0.1604906 -0.09375,-0.15625 0.0022,0.00424 -0.0964,-0.160246 -0.09375,-0.15625 0.0026,0.004 -0.09678,-0.1599614 -0.09375,-0.15625 0.003,0.00371 -0.12839,-0.1596397 -0.125,-0.15625 0.0034,0.00339 -0.159961,-0.1280341 -0.15625,-0.125 C 55.3162,5.53428 55.152254,5.434852 55.15625,5.4375 55.16025,5.44015 54.995759,5.341514 55,5.34375 55.0042,5.34599 54.839307,5.248199 54.84375,5.25 c 0.0044,0.0018 -0.1921,-0.063848 -0.1875,-0.0625 0.0046,0.00135 -0.192212,-0.032132 -0.1875,-0.03125 0.0047,8.815e-4 -0.192277,-0.031656 -0.1875,-0.03125 0.0048,4.063e-4 -0.161043,7.3e-5 -0.15625,0 l -12.03125,0 c 0.0026,2.364e-4 -0.04386,0.00229 -0.09375,0 -0.03326,-0.00153 -0.06424,0 -0.0625,0 0.0043,0 -0.19183,3.94e-4 -0.1875,0 a 1.0057838,1.0057838 0 0 0 -0.0625,0 z"
               id="path3926"
               style="opacity:0.1;fill:url(#linearGradient7662);fill-opacity:1;display:inline"
               inkscape:connector-curvature="0" />
            <path
               d="M 42,6.125 A 0.8619805,0.8619805 0 0 0 41.125,7 L 41.1875,31.0625 41.3125,60 a 0.8619805,0.8619805 0 0 0 0.9375,0.84375 l 5.6875,-0.5 L 54,59.8125 a 0.8619805,0.8619805 0 0 0 0.8125,-0.84375 L 54.84375,53.4375 54.9375,31.0625 55,7 A 0.8619805,0.8619805 0 0 0 54.125,6.125 L 42,6.125 z"
               id="path3922"
               style="opacity:0.2;fill:url(#linearGradient7664);fill-opacity:1;display:inline"
               inkscape:connector-curvature="0" />
            <path
               d="M 54.060184,4.3686547 48.000001,3.926713 41.939817,4.3686547 42.000001,30.062224 42.134649,59 l 5.686841,-0.494729 6.043862,-0.525332 0.03264,-5.551173 0.102006,-22.366542 0.06018,-25.6935693 z"
               inkscape:connector-curvature="0"
               id="polygon120"
               style="fill:url(#linearGradient7666);fill-opacity:1;display:inline" />
            <rect
               width="1"
               height="35.714287"
               x="47"
               y="4.1250005"
               id="rect4363"
               style="opacity:0.2;fill:#8d6137;fill-opacity:1;fill-rule:nonzero;stroke:none;display:inline" />
            <rect
               width="1"
               height="35.714287"
               x="48"
               y="4.1250005"
               id="rect4365"
               style="opacity:0.2;fill:#ffffff;fill-opacity:1;fill-rule:nonzero;stroke:none;display:inline" />
          </g>
        </g>
      </g>
      <g
         transform="matrix(0.42938931,0,0,0.42938931,27.389313,573.0998)"
         id="g2994">
        <rect
           transform="translate(0,-7.8515622e-6)"
           y="964.36218"
           x="8"
           height="80"
           width="80"
           id="rect9283-2"
           style="fill:#000000;fill-opacity:1;stroke:none;filter:url(#filter6279-2-4)"
           rx="5"
           ry="5" />
        <rect
           ry="5"
           rx="5"
           style="fill:url(#linearGradient6111);fill-opacity:1;stroke:none"
           id="rect9285-1"
           width="80"
           height="80"
           x="8"
           y="964.36218" />
        <g
           id="g13262">
          <path
             inkscape:export-ydpi="285.01001"
             inkscape:export-xdpi="285.01001"
             inkscape:export-filename="/home/mdamt/rect4269.png"
             inkscape:connector-curvature="0"
             id="path3497"
             d="m 65.443345,1003.2181 c 0,12.2223 -9.908116,22.1304 -22.130439,22.1304 -12.22227,0 -22.130387,-9.9081 -22.130387,-22.1304 0,-12.22237 9.908117,-22.1305 22.130387,-22.1305 12.222323,0 22.130439,9.90813 22.130439,22.1305 z"
             style="fill:none;stroke:#ffffff;stroke-width:11.36503887;stroke-miterlimit:4;stroke-dasharray:none" />
          <path
             inkscape:export-ydpi="285.01001"
             inkscape:export-xdpi="285.01001"
             inkscape:connector-curvature="0"
             id="rect4269"
             d="m 75.358923,980.74244 0.519449,0 0,47.49816 -0.519449,0 z"
             style="fill:#aa0000;fill-opacity:1;stroke:#ff0000;stroke-width:9.24325752;stroke-linecap:round;stroke-linejoin:round;stroke-miterlimit:4;stroke-opacity:1" />
        </g>
      </g>
    </g>
  </g>
</svg>
