<?xml version="1.0" encoding="UTF-8" standalone="no"?>
<!-- Created with Inkscape (http://www.inkscape.org/) -->

<svg
   xmlns:dc="http://purl.org/dc/elements/1.1/"
   xmlns:cc="http://creativecommons.org/ns#"
   xmlns:rdf="http://www.w3.org/1999/02/22-rdf-syntax-ns#"
   xmlns:svg="http://www.w3.org/2000/svg"
   xmlns="http://www.w3.org/2000/svg"
   xmlns:xlink="http://www.w3.org/1999/xlink"
   xmlns:sodipodi="http://sodipodi.sourceforge.net/DTD/sodipodi-0.dtd"
   xmlns:inkscape="http://www.inkscape.org/namespaces/inkscape"
   width="96"
   height="96"
   id="svg2982"
   version="1.1"
   inkscape:version="0.48.1 r9760"
   sodipodi:docname="softwarecenter-debian.svg">
  <defs
     id="defs2984">
    <filter
       color-interpolation-filters="sRGB"
       inkscape:collect="always"
       id="filter6279-2">
      <feGaussianBlur
         inkscape:collect="always"
         stdDeviation="0.8"
         id="feGaussianBlur6281-1" />
    </filter>
    <linearGradient
       inkscape:collect="always"
       xlink:href="#linearGradient3737-66"
       id="linearGradient7489"
       gradientUnits="userSpaceOnUse"
       x1="48"
       y1="20.220806"
       x2="48"
       y2="138.66119" />
    <linearGradient
       id="linearGradient3737-66">
      <stop
         id="stop3739-40"
         style="stop-color:#ffffff;stop-opacity:1"
         offset="0" />
      <stop
         id="stop3741-04-2"
         style="stop-color:#ffffff;stop-opacity:0"
         offset="1" />
    </linearGradient>
    <clipPath
       id="clipPath3613-62">
      <rect
         width="84"
         height="84"
         rx="6"
         ry="6"
         x="6"
         y="6"
         id="rect3615-67"
         style="fill:#ffffff;fill-opacity:1;fill-rule:nonzero;stroke:none" />
    </clipPath>
    <filter
       x="-0.192"
       y="-0.192"
       width="1.3839999"
       height="1.3839999"
       color-interpolation-filters="sRGB"
       id="filter3794-5-1">
      <feGaussianBlur
         id="feGaussianBlur3796-69"
         stdDeviation="5.28" />
    </filter>
    <linearGradient
       inkscape:collect="always"
       xlink:href="#linearGradient4370-8"
       id="linearGradient3323"
       gradientUnits="userSpaceOnUse"
       x1="8"
       y1="38.127232"
       x2="8"
       y2="71.877235" />
    <linearGradient
       id="linearGradient4370-8">
      <stop
         id="stop4372"
         style="stop-color:#8a5b30;stop-opacity:1"
         offset="0" />
      <stop
         id="stop4374"
         style="stop-color:#8a5b30;stop-opacity:0"
         offset="1" />
    </linearGradient>
    <linearGradient
       inkscape:collect="always"
       xlink:href="#linearGradient4289"
       id="linearGradient3325"
       gradientUnits="userSpaceOnUse"
       x1="54.187183"
       y1="90"
       x2="54.187183"
       y2="39.852562" />
    <linearGradient
       id="linearGradient4289">
      <stop
         id="stop4291"
         style="stop-color:#996c3b;stop-opacity:1"
         offset="0" />
      <stop
         id="stop4293"
         style="stop-color:#c19e6d;stop-opacity:1"
         offset="1" />
    </linearGradient>
    <radialGradient
       inkscape:collect="always"
       xlink:href="#linearGradient4426"
       id="radialGradient3327"
       gradientUnits="userSpaceOnUse"
       gradientTransform="matrix(0.867765,0,0,0.09523809,6.3472804,36.190476)"
       cx="48"
       cy="73.14563"
       fx="48"
       fy="73.14563"
       r="42" />
    <linearGradient
       id="linearGradient4426">
      <stop
         id="stop4428-3"
         style="stop-color:#71461e;stop-opacity:1"
         offset="0" />
      <stop
         id="stop4430-1"
         style="stop-color:#71461e;stop-opacity:0"
         offset="1" />
    </linearGradient>
    <linearGradient
       inkscape:collect="always"
       xlink:href="#linearGradient4370-8"
       id="linearGradient3329-8"
       gradientUnits="userSpaceOnUse"
       gradientTransform="matrix(-1,0,0,1,96,0)"
       x1="8"
       y1="38.127232"
       x2="8"
       y2="87.029526" />
    <linearGradient
       id="linearGradient6240">
      <stop
         id="stop6242"
         style="stop-color:#8a5b30;stop-opacity:1"
         offset="0" />
      <stop
         id="stop6244"
         style="stop-color:#8a5b30;stop-opacity:0"
         offset="1" />
    </linearGradient>
    <linearGradient
       inkscape:collect="always"
       xlink:href="#linearGradient3737-33"
       id="linearGradient3331-3"
       gradientUnits="userSpaceOnUse"
       gradientTransform="matrix(-1,0,0,1,96,0)"
       x1="10"
       y1="40.263424"
       x2="10"
       y2="89.666374" />
    <linearGradient
       id="linearGradient3737-33">
      <stop
         id="stop3739-86"
         style="stop-color:#ffffff;stop-opacity:1"
         offset="0" />
      <stop
         id="stop3741-04"
         style="stop-color:#ffffff;stop-opacity:0"
         offset="1" />
    </linearGradient>
    <linearGradient
       inkscape:collect="always"
       xlink:href="#linearGradient3737-33"
       id="linearGradient3333-8"
       gradientUnits="userSpaceOnUse"
       x1="10"
       y1="40.263424"
       x2="10"
       y2="89.666374" />
    <linearGradient
       id="linearGradient6251">
      <stop
         id="stop6253"
         style="stop-color:#ffffff;stop-opacity:1"
         offset="0" />
      <stop
         id="stop6255"
         style="stop-color:#ffffff;stop-opacity:0"
         offset="1" />
    </linearGradient>
    <linearGradient
       inkscape:collect="always"
       xlink:href="#linearGradient5092"
       id="linearGradient3335"
       gradientUnits="userSpaceOnUse"
       x1="47.079498"
       y1="32.782871"
       x2="6.5962563"
       y2="9.4098616" />
    <linearGradient
       id="linearGradient5092">
      <stop
         id="stop5094"
         style="stop-color:#be9f6a;stop-opacity:1"
         offset="0" />
      <stop
         id="stop5096"
         style="stop-color:#e5d2b2;stop-opacity:1"
         offset="1" />
    </linearGradient>
    <filter
       x="-0.31155673"
       y="-0.42628157"
       width="1.6231135"
       height="1.8525631"
       color-interpolation-filters="sRGB"
       id="filter4362">
      <feGaussianBlur
         id="feGaussianBlur4364"
         stdDeviation="6.2124381" />
    </filter>
    <linearGradient
       inkscape:collect="always"
       xlink:href="#linearGradient4295"
       id="linearGradient3337"
       gradientUnits="userSpaceOnUse"
       x1="48"
       y1="42"
       x2="6.7812738"
       y2="18.202358" />
    <linearGradient
       id="linearGradient4295">
      <stop
         id="stop4297-7"
         style="stop-color:#b88f56;stop-opacity:1"
         offset="0" />
      <stop
         id="stop4299"
         style="stop-color:#d9bd98;stop-opacity:1"
         offset="1" />
    </linearGradient>
    <linearGradient
       inkscape:collect="always"
       xlink:href="#linearGradient4295"
       id="linearGradient3339"
       gradientUnits="userSpaceOnUse"
       gradientTransform="matrix(-1,0,0,1,96,0)"
       x1="47.226776"
       y1="29.039698"
       x2="6.3304405"
       y2="18.081558" />
    <linearGradient
       id="linearGradient6268">
      <stop
         id="stop6270"
         style="stop-color:#b88f56;stop-opacity:1"
         offset="0" />
      <stop
         id="stop6272"
         style="stop-color:#d9bd98;stop-opacity:1"
         offset="1" />
    </linearGradient>
    <linearGradient
       inkscape:collect="always"
       xlink:href="#linearGradient3737-33"
       id="linearGradient3341"
       gradientUnits="userSpaceOnUse"
       x1="23.142857"
       y1="42"
       x2="66.964287"
       y2="6" />
    <linearGradient
       id="linearGradient6275">
      <stop
         id="stop6277"
         style="stop-color:#ffffff;stop-opacity:1"
         offset="0" />
      <stop
         id="stop6279"
         style="stop-color:#ffffff;stop-opacity:0"
         offset="1" />
    </linearGradient>
    <linearGradient
       inkscape:collect="always"
       xlink:href="#linearGradient4414-2"
       id="linearGradient3343-9"
       gradientUnits="userSpaceOnUse"
       x1="8.9651041"
       y1="44.040279"
       x2="8.9651041"
       y2="52.263294" />
    <linearGradient
       id="linearGradient4414-2">
      <stop
         id="stop4416-5"
         style="stop-color:#dac3a2;stop-opacity:1"
         offset="0" />
      <stop
         id="stop4418-4"
         style="stop-color:#dac3a2;stop-opacity:0"
         offset="1" />
    </linearGradient>
    <linearGradient
       inkscape:collect="always"
       xlink:href="#linearGradient4414-2"
       id="linearGradient3345-0"
       gradientUnits="userSpaceOnUse"
       gradientTransform="matrix(-1,0,0,1,96.086934,0)"
       x1="8.9651041"
       y1="44.040279"
       x2="8.9651041"
       y2="52.263294" />
    <linearGradient
       id="linearGradient6286">
      <stop
         id="stop6288"
         style="stop-color:#dac3a2;stop-opacity:1"
         offset="0" />
      <stop
         id="stop6290"
         style="stop-color:#dac3a2;stop-opacity:0"
         offset="1" />
    </linearGradient>
    <radialGradient
       inkscape:collect="always"
       xlink:href="#linearGradient3737-4-9"
       id="radialGradient3347"
       gradientUnits="userSpaceOnUse"
       gradientTransform="matrix(1.1573129,0,0,0.99590774,-7.551021,0.1971319)"
       cx="48"
       cy="90.171875"
       fx="48"
       fy="90.171875"
       r="42" />
    <linearGradient
       id="linearGradient3737-4-9">
      <stop
         id="stop3739-1-2"
         style="stop-color:#ffffff;stop-opacity:1"
         offset="0" />
      <stop
         id="stop3741-8-2"
         style="stop-color:#ffffff;stop-opacity:0"
         offset="1" />
    </linearGradient>
    <linearGradient
       inkscape:collect="always"
       xlink:href="#linearGradient3928"
       id="linearGradient3349"
       gradientUnits="userSpaceOnUse"
       x1="48.40115"
       y1="61.990967"
       x2="48.40115"
       y2="4.6666145" />
    <linearGradient
       id="linearGradient3928">
      <stop
         id="stop3930"
         style="stop-color:#3a240f;stop-opacity:1"
         offset="0" />
      <stop
         id="stop3932"
         style="stop-color:#3a240f;stop-opacity:0"
         offset="1" />
    </linearGradient>
    <linearGradient
       inkscape:collect="always"
       xlink:href="#linearGradient3928"
       id="linearGradient3351"
       gradientUnits="userSpaceOnUse"
       x1="46.795631"
       y1="60.307007"
       x2="46.795631"
       y2="6.0179305" />
    <linearGradient
       id="linearGradient6301">
      <stop
         id="stop6303"
         style="stop-color:#3a240f;stop-opacity:1"
         offset="0" />
      <stop
         id="stop6305"
         style="stop-color:#3a240f;stop-opacity:0"
         offset="1" />
    </linearGradient>
    <linearGradient
       inkscape:collect="always"
       xlink:href="#linearGradient4309-0"
       id="linearGradient3353-7"
       gradientUnits="userSpaceOnUse"
       gradientTransform="matrix(1.0200612,0,0,1.0200612,-5.2981966,5.7562054)"
       x1="50.499405"
       y1="19.881863"
       x2="50.499405"
       y2="47.295406" />
    <linearGradient
       x1="52.25"
       y1="47.247101"
       x2="52.25"
       y2="0.2393"
       id="linearGradient4309-0"
       gradientUnits="userSpaceOnUse">
      <stop
         id="stop4311-0"
         style="stop-color:#d8cab2;stop-opacity:1"
         offset="0" />
      <stop
         id="stop4321-6"
         style="stop-color:#d2b98c;stop-opacity:1"
         offset="0.45710954" />
      <stop
         id="stop4323-2"
         style="stop-color:#f9f7ef;stop-opacity:1"
         offset="0.48590001" />
      <stop
         id="stop4325-6"
         style="stop-color:#ffffff;stop-opacity:1"
         offset="0.49110001" />
      <stop
         id="stop4327-6"
         style="stop-color:#fbf9f4;stop-opacity:1"
         offset="0.49180001" />
      <stop
         id="stop4329-8"
         style="stop-color:#efe7d0;stop-opacity:1"
         offset="0.4946" />
      <stop
         id="stop4331-3"
         style="stop-color:#e4d6b0;stop-opacity:1"
         offset="0.49770001" />
      <stop
         id="stop4333-3"
         style="stop-color:#dac894;stop-opacity:1"
         offset="0.5011" />
      <stop
         id="stop4335-4"
         style="stop-color:#c7a572;stop-opacity:1"
         offset="0.50489998" />
      <stop
         id="stop4347-8"
         style="stop-color:#d7c198;stop-opacity:1"
         offset="1" />
    </linearGradient>
    <linearGradient
       inkscape:collect="always"
       xlink:href="#linearGradient3700-6"
       id="linearGradient7600"
       gradientUnits="userSpaceOnUse"
       gradientTransform="matrix(0,-0.91636366,0.91636366,0,55.340149,1081.6372)"
       x1="51.42857"
       y1="72.785713"
       x2="90.714287"
       y2="72.785713" />
    <linearGradient
       id="linearGradient3700-6">
      <stop
         id="stop3702-1-9"
         style="stop-color:#d70751;stop-opacity:1"
         offset="0" />
      <stop
         id="stop3704-1"
         style="stop-color:#e7466b;stop-opacity:1"
         offset="1" />
    </linearGradient>
  </defs>
  <sodipodi:namedview
     id="base"
     pagecolor="#ffffff"
     bordercolor="#666666"
     borderopacity="1.0"
     inkscape:pageopacity="0.0"
     inkscape:pageshadow="2"
     inkscape:zoom="3.959798"
     inkscape:cx="36.39115"
     inkscape:cy="42.877139"
     inkscape:document-units="px"
     inkscape:current-layer="layer1"
     showgrid="false"
     inkscape:window-width="1280"
     inkscape:window-height="725"
     inkscape:window-x="0"
     inkscape:window-y="25"
     inkscape:window-maximized="1" />
  <metadata
     id="metadata2987">
    <rdf:RDF>
      <cc:Work
         rdf:about="">
        <dc:format>image/svg+xml</dc:format>
        <dc:type
           rdf:resource="http://purl.org/dc/dcmitype/StillImage" />
        <dc:title></dc:title>
      </cc:Work>
    </rdf:RDF>
  </metadata>
  <g
     inkscape:label="Layer 1"
     inkscape:groupmode="layer"
     id="layer1"
     transform="translate(0,-956.36218)">
    <g
       id="g7602">
      <rect
         transform="translate(0,-7.8515622e-6)"
         y="964.36218"
         x="8"
         height="80"
         width="80"
         id="rect9283"
         style="fill:#000000;fill-opacity:1;stroke:none;filter:url(#filter6279-2)"
         rx="5"
         ry="5" />
      <g
         id="layer5"
         transform="translate(0,956.36218)">
        <rect
           style="opacity:0.1;fill:url(#linearGradient7489);fill-opacity:1;fill-rule:nonzero;stroke:#ffffff;stroke-width:0.5;stroke-linecap:round;stroke-linejoin:miter;stroke-miterlimit:4;stroke-opacity:1;stroke-dasharray:none;stroke-dashoffset:0;filter:url(#filter3794-5-1)"
           id="rect3171"
           clip-path="url(#clipPath3613-62)"
           y="15"
           x="15"
           ry="12"
           rx="12"
           height="66"
           width="66" />
      </g>
      <rect
         ry="5"
         rx="5"
         style="fill:#825023;fill-opacity:1;stroke:none"
         id="rect9285"
         width="80"
         height="80"
         x="8"
         y="964.36218" />
      <g
         transform="translate(-182.1875,-40.40625)"
         id="g26594">
        <g
           transform="matrix(0.6547619,0,0,0.6547619,198.75893,1013.8399)"
           style="display:inline"
           id="layer1-7">
          <path
             style="fill:url(#linearGradient3323);fill-opacity:1;fill-rule:nonzero;stroke:none"
             id="rect5138"
             inkscape:connector-curvature="0"
             d="m 6,36 0,48 c 0,1.781762 0.7745675,3.371709 2,4.46875 L 8,36 6,36 z" />
          <rect
             style="fill:url(#linearGradient3325);fill-opacity:1;fill-rule:nonzero;stroke:none"
             id="rect2419"
             y="6"
             x="6"
             ry="6"
             rx="6"
             height="84"
             width="84" />
          <path
             style="fill:url(#radialGradient3327);fill-opacity:1;fill-rule:nonzero;stroke:none"
             id="path3287"
             inkscape:connector-curvature="0"
             d="m 6,36 0,2 c 0,3.324 2.676,6 6,6 l 72,0 c 3.324,0 6,-2.676 6,-6 l 0,-2 c 0,3.324 -2.676,6 -6,6 L 12,42 C 8.676,42 6,39.324 6,36 z" />
          <path
             style="fill:url(#linearGradient3329-8);fill-opacity:1;fill-rule:nonzero;stroke:none"
             id="path4396"
             inkscape:connector-curvature="0"
             d="m 90,36 0,48 c 0,1.781762 -0.774567,3.371709 -2,4.46875 L 88,36 l 2,0 z" />
          <rect
             style="fill:#3c2510;fill-opacity:1;fill-rule:nonzero;stroke:none"
             id="rect2483"
             y="18"
             x="6"
             ry="6"
             rx="6"
             height="24"
             width="84" />
          <path
             style="opacity:0.3;fill:url(#linearGradient3331-3);fill-opacity:1;fill-rule:nonzero;stroke:none"
             id="path4398"
             inkscape:connector-curvature="0"
             d="m 88,36 0,52.46875 c -0.576856,0.516417 -1.254924,0.923089 -2,1.1875 L 86,36 l 2,0 z" />
          <path
             style="opacity:0.3;fill:url(#linearGradient3333-8);fill-opacity:1;fill-rule:nonzero;stroke:none"
             id="path4378"
             inkscape:connector-curvature="0"
             d="m 8,36 0,52.46875 c 0.5768558,0.516417 1.254924,0.923089 2,1.1875 L 10,36 8,36 z" />
          <path
             style="fill:url(#linearGradient3335);fill-opacity:1;fill-rule:nonzero;stroke:none"
             id="path5055"
             inkscape:connector-curvature="0"
             d="M 12,6 C 8.7734181,6 6,8.2592995 6,13 L 6,15 6,35.65625 48,35.69067 48,6 14,6 12,6 z" />
          <rect
             style="opacity:0.3;fill:#dac7a8;fill-opacity:1;fill-rule:nonzero;stroke:none;filter:url(#filter4362)"
             id="rect4356"
             transform="matrix(1,0,0,0.8555957,10,8.5841304)"
             y="41.956837"
             x="12.753176"
             ry="6"
             rx="6"
             height="34.976532"
             width="47.855976" />
          <path
             style="fill:url(#linearGradient3337);fill-opacity:1;fill-rule:nonzero;stroke:none"
             id="rect2481"
             inkscape:connector-curvature="0"
             d="M 12,6 C 8.676,6 6,8.676 6,12 l 0,24 c 0,3.324 2.676,6 6,6 L 48,40 48,4 12,6 z" />
          <path
             style="fill:url(#linearGradient3339);fill-opacity:1;fill-rule:nonzero;stroke:none"
             id="path3262"
             inkscape:connector-curvature="0"
             d="m 84,6 c 3.324,0 6,2.676 6,6 l 0,24 c 0,3.324 -2.676,6 -6,6 L 48,40 48,4 84,6 z" />
          <path
             style="opacity:0.3;fill:url(#linearGradient3341);fill-opacity:1;fill-rule:nonzero;stroke:none"
             id="rect3266"
             inkscape:connector-curvature="0"
             d="M 12,6 C 8.676,6 6,8.676 6,12 l 0,24 c 0,3.324 2.676,6 6,6 l 36,-2 36,2 c 3.324,0 6,-2.676 6,-6 L 90,12 C 90,8.676 87.324,6 84,6 L 48,4 12,6 z m 0,2 36,-2 36,2 c 2.245802,0 4,1.7541975 4,4 l 0,24 c 0,2.245802 -1.754198,4 -4,4 L 48,38 12,40 C 9.7541975,40 8,38.245802 8,36 L 8,12 C 8,9.7541975 9.7541975,8 12,8 z" />
          <path
             style="fill:url(#linearGradient3343-9);fill-opacity:1;fill-rule:evenodd;stroke:none"
             id="path4404"
             inkscape:connector-curvature="0"
             d="m 6.1871843,37.284884 c 2.3991123,5.555839 1.894036,16.036171 1.894036,16.036171 L 9.9121217,53.068517 C 9.6595836,44.861028 10.354063,41.83057 14.89975,41.704301 7.7307581,40.509469 6.1871843,37.284884 6.1871843,37.284884 z" />
          <path
             style="fill:url(#linearGradient3345-0);fill-opacity:1;fill-rule:evenodd;stroke:none"
             id="path4422"
             inkscape:connector-curvature="0"
             d="m 89.89975,37.284884 c -2.399112,5.555839 -1.894036,16.036171 -1.894036,16.036171 L 86.174813,53.068517 C 86.427351,44.861028 85.732871,41.83057 81.187184,41.704301 88.356176,40.509469 89.89975,37.284884 89.89975,37.284884 z" />
          <path
             style="opacity:0.2;fill:url(#radialGradient3347);fill-opacity:1;fill-rule:nonzero;stroke:none"
             id="path3615"
             inkscape:connector-curvature="0"
             d="M 12,90 C 8.676,90 6,87.324 6,84 L 6,82 6,14 6,12 c 0,-0.334721 0.04135,-0.6507 0.09375,-0.96875 0.0487,-0.295596 0.09704,-0.596915 0.1875,-0.875 C 6.29113,10.12587 6.302142,10.09265 6.3125,10.0625 6.411365,9.774729 6.5473802,9.515048 6.6875,9.25 6.8320918,8.976493 7.0031161,8.714385 7.1875,8.46875 7.3718839,8.223115 7.5612765,7.995278 7.78125,7.78125 8.221197,7.353194 8.72416,6.966724 9.28125,6.6875 9.559795,6.547888 9.8547231,6.440553 10.15625,6.34375 9.9000482,6.443972 9.6695391,6.580022 9.4375,6.71875 c -0.00741,0.0044 -0.023866,-0.0045 -0.03125,0 -0.031933,0.0193 -0.062293,0.04251 -0.09375,0.0625 -0.120395,0.0767 -0.2310226,0.163513 -0.34375,0.25 -0.1061728,0.0808 -0.2132809,0.161112 -0.3125,0.25 C 8.4783201,7.442683 8.3087904,7.626638 8.15625,7.8125 8.0486711,7.942755 7.9378561,8.077785 7.84375,8.21875 7.818661,8.25713 7.805304,8.30462 7.78125,8.34375 7.716487,8.446782 7.6510225,8.548267 7.59375,8.65625 7.4927417,8.850956 7.3880752,9.071951 7.3125,9.28125 7.30454,9.30306 7.288911,9.3218 7.28125,9.34375 7.2494249,9.4357 7.2454455,9.530581 7.21875,9.625 7.1884177,9.731618 7.1483606,9.828031 7.125,9.9375 7.0521214,10.279012 7,10.635705 7,11 l 0,2 0,68 0,2 c 0,2.781848 2.2181517,5 5,5 l 2,0 68,0 2,0 c 2.781848,0 5,-2.218152 5,-5 l 0,-2 0,-68 0,-2 C 89,10.635705 88.94788,10.279012 88.875,9.9375 88.83085,9.730607 88.78662,9.539842 88.71875,9.34375 88.71105,9.3218 88.69545,9.30306 88.6875,9.28125 88.62476,9.107511 88.549117,8.913801 88.46875,8.75 88.42717,8.6672 88.38971,8.580046 88.34375,8.5 88.28915,8.40279 88.216976,8.31165 88.15625,8.21875 88.06214,8.077785 87.951329,7.942755 87.84375,7.8125 87.700576,7.63805 87.540609,7.465502 87.375,7.3125 87.36383,7.3023 87.35502,7.29135 87.34375,7.28125 87.205364,7.155694 87.058659,7.046814 86.90625,6.9375 86.803679,6.86435 86.701932,6.784136 86.59375,6.71875 c -0.0074,-0.0045 -0.02384,0.0044 -0.03125,0 -0.232039,-0.138728 -0.462548,-0.274778 -0.71875,-0.375 0.301527,0.0968 0.596455,0.204138 0.875,0.34375 0.55709,0.279224 1.060053,0.665694 1.5,1.09375 0.219973,0.214028 0.409366,0.441865 0.59375,0.6875 0.184384,0.245635 0.355408,0.507743 0.5,0.78125 0.14012,0.265048 0.276135,0.524729 0.375,0.8125 0.01041,0.03078 0.02133,0.06274 0.03125,0.09375 0.09046,0.278085 0.1388,0.579404 0.1875,0.875 C 89.95865,11.3493 90,11.665279 90,12 l 0,2 0,68 0,2 c 0,3.324 -2.676,6 -6,6 l -72,0 z" />
          <path
             style="opacity:0.5;fill:#3a240f;fill-opacity:1;display:inline"
             id="path5008"
             inkscape:connector-curvature="0"
             d="M 54.120367,7 42.000001,7 42.060185,31.062224 42.194833,60 47.881674,59.50527 53.925535,58.979939 53.958175,53.428766 54.060182,31.062224 54.120362,7 z" />
          <path
             inkscape:connector-curvature="0"
             style="opacity:0.1;fill:url(#linearGradient3349);fill-opacity:1;display:inline"
             id="path3926"
             d="m 41.6875,5.125 c 0.0042,-7.112e-4 -0.191651,0.032337 -0.1875,0.03125 0.0042,-0.00109 -0.160287,0.063954 -0.15625,0.0625 0.004,-0.00145 -0.160141,0.064309 -0.15625,0.0625 0.0039,-0.00181 -0.128713,0.06465 -0.125,0.0625 0.0037,-0.00215 -0.159756,0.096223 -0.15625,0.09375 0.0035,-0.00247 -0.128271,0.1277772 -0.125,0.125 0.0033,-0.00278 -0.128009,0.096809 -0.125,0.09375 0.003,-0.00306 -0.127724,0.1283156 -0.125,0.125 0.0027,-0.00332 -0.09617,0.1597959 -0.09375,0.15625 0.0024,-0.00355 -0.09584,0.1287479 -0.09375,0.125 0.0021,-0.00375 -0.06424,0.1601697 -0.0625,0.15625 0.0017,-0.00392 -0.06389,0.1603101 -0.0625,0.15625 0.0014,-0.00406 -0.03227,0.160418 -0.03125,0.15625 10e-4,-0.00417 -0.06314,0.1604925 -0.0625,0.15625 6.42e-4,-0.00424 -2.6e-4,0.1917829 0,0.1875 2.08e-4,-0.00343 7.69e-4,0.08233 0,0.125 l 0,0.03125 L 40.1875,31.0625 40.3125,60 a 1.0057838,1.0057838 0 0 0 0,0.03125 c -4.2e-5,-0.0025 1.68e-4,0.0962 0,0.09375 -1.68e-4,-0.0025 2.94e-4,0.09619 0,0.09375 -2.94e-4,-0.0024 0.03167,0.09617 0.03125,0.09375 -4.19e-4,-0.0024 5.42e-4,0.09615 0,0.09375 -5.42e-4,-0.0024 0.03191,0.09611 0.03125,0.09375 -6.64e-4,-0.0024 0.03204,0.09608 0.03125,0.09375 -7.85e-4,-0.0023 0.03215,0.06479 0.03125,0.0625 -9.03e-4,-0.0023 0.03227,0.09599 0.03125,0.09375 -10e-4,-0.0022 0.06363,0.09593 0.0625,0.09375 -0.0011,-0.0022 0.03249,0.09587 0.03125,0.09375 -0.0012,-0.0021 0.06385,0.06455 0.0625,0.0625 -0.0014,-0.0021 0.0327,0.09573 0.03125,0.09375 -0.0015,-0.002 0.06405,0.0644 0.0625,0.0625 -0.0016,-0.0019 0.06415,0.09557 0.0625,0.09375 -0.0016,-0.0018 0.06424,0.06423 0.0625,0.0625 -0.0017,-0.0017 0.09558,0.06414 0.09375,0.0625 -0.0018,-0.0016 0.06441,0.06405 0.0625,0.0625 -0.0019,-0.0015 0.06448,0.06395 0.0625,0.0625 -0.002,-0.0014 0.09581,0.06384 0.09375,0.0625 -0.0021,-0.0013 0.06462,0.03249 0.0625,0.03125 -0.0021,-0.0012 0.09593,0.06363 0.09375,0.0625 -0.0022,-0.0011 0.09599,0.03226 0.09375,0.03125 -0.0022,-10e-4 0.09604,0.03215 0.09375,0.03125 -0.0023,-8.97e-4 0.09608,0.03203 0.09375,0.03125 -0.0023,-7.79e-4 0.09612,0.03191 0.09375,0.03125 -0.0024,-6.58e-4 0.09615,0.03179 0.09375,0.03125 -0.0024,-5.36e-4 0.09617,4.12e-4 0.09375,0 -0.0024,-4.12e-4 0.09619,0.03154 0.09375,0.03125 -0.0024,-2.88e-4 0.0962,1.62e-4 0.09375,0 -0.0025,-1.62e-4 0.09621,3.6e-5 0.09375,0 -0.0025,-3.6e-5 0.0962,-9e-5 0.09375,0 -0.0025,9e-5 0.0962,-2.16e-4 0.09375,0 l 5.6875,-0.5 6.03125,-0.53125 c -8.93e-4,5.1e-5 0.02019,0.0012 0.03125,0 0.04424,-0.0047 0.128538,-5.37e-4 0.125,0 -0.0044,6.71e-4 0.19184,-0.06358 0.1875,-0.0625 -0.0043,0.0011 0.160471,-0.03273 0.15625,-0.03125 -0.0042,0.0015 0.160314,-0.06437 0.15625,-0.0625 -0.0041,0.0019 0.160122,-0.09599 0.15625,-0.09375 -0.0039,0.0022 0.159897,-0.09634 0.15625,-0.09375 -0.0036,0.0026 0.128389,-0.09667 0.125,-0.09375 -0.0034,0.0029 0.128103,-0.128222 0.125,-0.125 -0.0031,0.0032 0.127789,-0.128497 0.125,-0.125 -0.0028,0.0035 0.0962,-0.159992 0.09375,-0.15625 -0.0025,0.0037 0.09584,-0.160204 0.09375,-0.15625 -0.0021,0.004 0.09546,-0.160382 0.09375,-0.15625 -0.0017,0.0041 0.06382,-0.160524 0.0625,-0.15625 -0.0013,0.0043 0.03217,-0.160628 0.03125,-0.15625 -9.16e-4,0.0044 0.03175,-0.191944 0.03125,-0.1875 -5.04e-4,0.0044 8.7e-5,-0.160722 0,-0.15625 a 1.0057838,1.0057838 0 0 0 0,-0.03125 L 55.84375,53.4375 55.9375,31.0625 56,7 c -7.3e-5,0.00479 -4.06e-4,-0.1610265 0,-0.15625 4.06e-4,0.00478 -0.03213,-0.1922121 -0.03125,-0.1875 8.81e-4,0.00471 -0.0326,-0.1921004 -0.03125,-0.1875 0.0013,0.0046 -0.0643,-0.1919427 -0.0625,-0.1875 0.0018,0.00444 -0.09599,-0.1604906 -0.09375,-0.15625 0.0022,0.00424 -0.0964,-0.160246 -0.09375,-0.15625 0.0026,0.004 -0.09678,-0.1599614 -0.09375,-0.15625 0.003,0.00371 -0.12839,-0.1596397 -0.125,-0.15625 0.0034,0.00339 -0.159961,-0.1280341 -0.15625,-0.125 C 55.3162,5.53428 55.152254,5.434852 55.15625,5.4375 55.16025,5.44015 54.995759,5.341514 55,5.34375 55.0042,5.34599 54.839307,5.248199 54.84375,5.25 c 0.0044,0.0018 -0.1921,-0.063848 -0.1875,-0.0625 0.0046,0.00135 -0.192212,-0.032132 -0.1875,-0.03125 0.0047,8.815e-4 -0.192277,-0.031656 -0.1875,-0.03125 0.0048,4.063e-4 -0.161043,7.3e-5 -0.15625,0 l -12.03125,0 c 0.0026,2.364e-4 -0.04386,0.00229 -0.09375,0 -0.03326,-0.00153 -0.06424,0 -0.0625,0 0.0043,0 -0.19183,3.94e-4 -0.1875,0 a 1.0057838,1.0057838 0 0 0 -0.0625,0 z" />
          <path
             inkscape:connector-curvature="0"
             style="opacity:0.2;fill:url(#linearGradient3351);fill-opacity:1;display:inline"
             id="path3922"
             d="M 42,6.125 A 0.8619805,0.8619805 0 0 0 41.125,7 L 41.1875,31.0625 41.3125,60 a 0.8619805,0.8619805 0 0 0 0.9375,0.84375 l 5.6875,-0.5 L 54,59.8125 a 0.8619805,0.8619805 0 0 0 0.8125,-0.84375 L 54.84375,53.4375 54.9375,31.0625 55,7 A 0.8619805,0.8619805 0 0 0 54.125,6.125 L 42,6.125 z" />
          <path
             style="fill:url(#linearGradient3353-7);fill-opacity:1;display:inline"
             id="polygon120"
             inkscape:connector-curvature="0"
             d="M 54.060184,4.3686547 48.000001,3.926713 41.939817,4.3686547 42.000001,30.062224 42.134649,59 l 5.686841,-0.494729 6.043862,-0.525332 0.03264,-5.551173 0.102006,-22.366542 0.06018,-25.6935693 z" />
          <rect
             style="opacity:0.2;fill:#8d6137;fill-opacity:1;fill-rule:nonzero;stroke:none;display:inline"
             id="rect4363"
             y="4.1250005"
             x="47"
             height="35.714287"
             width="1" />
          <rect
             style="opacity:0.2;fill:#ffffff;fill-opacity:1;fill-rule:nonzero;stroke:none;display:inline"
             id="rect4365"
             y="4.1250005"
             x="48"
             height="35.714287"
             width="1" />
        </g>
      </g>
      <g
         transform="matrix(0.99871067,0,0,0.99871067,-73.880982,-10.81391)"
         id="g7596">
        <path
           style="fill:url(#linearGradient7600);fill-opacity:1;stroke:none"
           id="path3836"
           d="m 122.03833,998.50993 a 18,18 0 1 1 0,35.99997 18,18 0 1 1 0,-35.99997 z"
           inkscape:connector-curvature="0" />
        <path
           style="fill:#ffffff;display:inline"
           id="path2536"
           inkscape:connector-curvature="0"
           d="m 130.36441,1015.5661 c 0.0272,0.7285 -0.2126,1.0826 -0.42941,1.7086 l -0.38992,0.1939 c -0.31874,0.6194 0.0316,0.3932 -0.19662,0.8857 -0.49817,0.4423 -1.50959,1.3838 -1.83346,1.47 -0.23671,0 0.16014,-0.2792 0.212,-0.3862 -0.66614,0.4571 -0.53465,0.6863 -1.55361,0.9646 l -0.0296,-0.067 c -2.51196,1.1821 -6.00155,-1.1601 -5.95571,-4.3554 -0.0265,0.2027 -0.0762,0.152 -0.13183,0.2334 -0.1296,-1.6437 0.75932,-3.2948 2.25865,-3.9699 1.46647,-0.7256 3.18564,-0.4282 4.23535,0.5515 -0.57658,-0.7557 -1.72521,-1.5569 -3.08551,-1.4827 -1.33319,0.022 -2.58071,0.8687 -2.99686,1.7888 -0.68272,0.4297 -0.76232,1.6573 -1.05966,1.8823 -0.40077,2.9432 0.75298,4.2142 2.70494,5.7102 0.30639,0.2069 0.0863,0.2386 0.12722,0.396 -0.64833,-0.3034 -1.24179,-0.7617 -1.73032,-1.3229 0.25935,0.379 0.53887,0.7475 0.90045,1.037 -0.61187,-0.2066 -1.42877,-1.4815 -1.66669,-1.5334 1.05392,1.8871 4.27543,3.3096 5.96324,2.6036 -0.78102,0.029 -1.77284,0.016 -2.64977,-0.3082 -0.36939,-0.1896 -0.86968,-0.582 -0.78011,-0.6552 2.30267,0.8597 4.68074,0.6507 6.6728,-0.946 0.50722,-0.3951 1.06088,-1.0666 1.221,-1.0757 -0.24095,0.3625 0.0413,0.1743 -0.14389,0.4943 0.5042,-0.8145 -0.21985,-0.3317 0.52169,-1.4065 l 0.27381,0.377 c -0.1026,-0.6767 0.83982,-1.4975 0.74393,-2.5669 0.21622,-0.3268 0.24095,0.3523 0.0111,1.1043 0.31813,-0.8344 0.0842,-0.9686 0.16557,-1.6573 0.0878,0.2316 0.20445,0.4773 0.26385,0.7219 -0.20747,-0.8067 0.212,-1.3579 0.31633,-1.8268 -0.10307,-0.045 -0.31995,0.3564 -0.37001,-0.5959 0.008,-0.4137 0.11546,-0.2168 0.15676,-0.3187 -0.0808,-0.047 -0.29402,-0.364 -0.42338,-0.9722 0.0932,-0.1433 0.2509,0.3706 0.37875,0.3914 -0.0823,-0.4834 -0.22375,-0.8522 -0.22978,-1.2234 -0.37392,-0.7811 -0.13231,0.1043 -0.43515,-0.3354 -0.39804,-1.2406 0.32991,-0.2879 0.37936,-0.8512 0.60252,0.8729 0.94599,2.2269 1.10431,2.7875 -0.12055,-0.6836 -0.31514,-1.3461 -0.55306,-1.9869 0.18365,0.077 -0.29522,-1.4062 0.23852,-0.4237 -0.56951,-2.0943 -2.43583,-4.0514 -4.15319,-4.9693 0.20959,0.1921 0.47466,0.4333 0.37997,0.4713 -0.85461,-0.5081 -0.70443,-0.5482 -0.82686,-0.7629 -0.6951,-0.2832 -0.74154,0.023 -1.20139,6e-4 -1.31178,-0.696 -1.56448,-0.6221 -2.7716,-1.0576 l 0.0548,0.2569 c -0.86878,-0.2894 -1.01231,0.1092 -1.95106,7e-4 -0.057,-0.044 0.30096,-0.1617 0.59588,-0.2042 -0.84015,0.111 -0.80093,-0.1658 -1.62297,0.03 0.20234,-0.1421 0.41705,-0.2364 0.63296,-0.3571 -0.68483,0.042 -1.63563,0.3987 -1.34222,0.074 -1.11726,0.4988 -3.10179,1.1987 -4.21543,2.243 l -0.0349,-0.234 c -0.51024,0.6124 -2.22518,1.8292 -2.36179,2.6232 l -0.13659,0.032 c -0.26507,0.4496 -0.43725,0.9589 -0.64774,1.4212 -0.34709,0.5919 -0.50901,0.2279 -0.45957,0.3208 -0.68302,1.3848 -1.02287,2.5482 -1.31568,3.5029 0.20868,0.3121 0.005,1.8793 0.0838,3.1334 -0.34255,6.1952 4.34783,12.2097 9.47486,13.5981 0.75147,0.2693 1.86875,0.2596 2.81924,0.2861 -1.12118,-0.3208 -1.26593,-0.1697 -2.35877,-0.5506 -0.78795,-0.3715 -0.96045,-0.7952 -1.51892,-1.2798 l 0.22103,0.3905 c -1.09466,-0.3875 -0.6366,-0.4795 -1.52739,-0.7614 l 0.23612,-0.3079 c -0.35494,-0.027 -0.93995,-0.5977 -1.09977,-0.9146 l -0.3884,0.015 c -0.46621,-0.5748 -0.71499,-0.9901 -0.6966,-1.3118 l -0.12547,0.2237 c -0.14198,-0.2439 -1.71615,-2.1585 -0.89954,-1.7128 -0.15168,-0.1381 -0.35341,-0.2253 -0.57205,-0.623 l 0.16616,-0.1897 c -0.39233,-0.5057 -0.72312,-1.1537 -0.69779,-1.3696 0.20958,0.2828 0.35492,0.3359 0.49907,0.3844 -0.99242,-2.4619 -1.0482,-0.1353 -1.79938,-2.5059 l 0.15867,-0.013 c -0.1215,-0.1841 -0.19602,-0.3829 -0.29371,-0.5786 l 0.0694,-0.689 c -0.71409,-0.8251 -0.19963,-3.5116 -0.0962,-4.9847 0.0708,-0.5989 0.59617,-1.2367 0.99512,-2.237 l -0.24304,-0.042 c 0.465,-0.8105 2.65429,-3.2565 3.66871,-3.131 0.49124,-0.617 -0.0977,0 -0.19389,-0.1574 1.07927,-1.1167 1.41851,-0.7889 2.14677,-0.99 0.78493,-0.4659 -0.67399,0.1821 -0.30186,-0.1776 1.35789,-0.3465 0.96196,-0.7883 2.73299,-0.9641 0.18696,0.1061 -0.43334,0.164 -0.58894,0.3018 1.13083,-0.5536 3.57915,-0.4273 5.17015,0.307 1.84463,0.8628 3.91842,3.4118 4.00044,5.8101 l 0.0932,0.025 c -0.047,0.9535 0.14595,2.0563 -0.18908,3.0689 l 0.22648,-0.4797" />
      </g>
    </g>
  </g>
</svg>
