<?xml version="1.0" encoding="UTF-8" standalone="no"?>
<!-- Created with Inkscape (http://www.inkscape.org/) -->

<svg
   xmlns:dc="http://purl.org/dc/elements/1.1/"
   xmlns:cc="http://creativecommons.org/ns#"
   xmlns:rdf="http://www.w3.org/1999/02/22-rdf-syntax-ns#"
   xmlns:svg="http://www.w3.org/2000/svg"
   xmlns="http://www.w3.org/2000/svg"
   xmlns:xlink="http://www.w3.org/1999/xlink"
   xmlns:sodipodi="http://sodipodi.sourceforge.net/DTD/sodipodi-0.dtd"
   xmlns:inkscape="http://www.inkscape.org/namespaces/inkscape"
   width="96"
   height="96"
   id="svg2982"
   version="1.1"
   inkscape:version="0.48.1 r9760"
   sodipodi:docname="soundconverter.svg">
  <defs
     id="defs2984">
    <filter
       color-interpolation-filters="sRGB"
       inkscape:collect="always"
       id="filter6279">
      <feGaussianBlur
         inkscape:collect="always"
         stdDeviation="0.8"
         id="feGaussianBlur6281" />
    </filter>
    <linearGradient
       inkscape:collect="always"
       xlink:href="#linearGradient3696"
       id="linearGradient10902-1"
       gradientUnits="userSpaceOnUse"
       gradientTransform="translate(0,-9.6171873e-6)"
       x1="48"
       y1="1052.3622"
       x2="48"
       y2="902.36218" />
    <linearGradient
       id="linearGradient3696">
      <stop
         id="stop3698-9"
         style="stop-color:#2458a6;stop-opacity:1"
         offset="0" />
      <stop
         id="stop3700"
         style="stop-color:#598ad4;stop-opacity:1"
         offset="1" />
    </linearGradient>
    <linearGradient
       inkscape:collect="always"
       xlink:href="#linearGradient3799-3"
       id="linearGradient3172"
       gradientUnits="userSpaceOnUse"
       x1="56.037025"
       y1="49.333305"
       x2="56.037025"
       y2="13.593002" />
    <linearGradient
       id="linearGradient3799-3">
      <stop
         id="stop3801-3"
         style="stop-color:#1a1a1a;stop-opacity:1"
         offset="0" />
      <stop
         id="stop3803-2"
         style="stop-color:#000000;stop-opacity:1"
         offset="1" />
    </linearGradient>
    <radialGradient
       inkscape:collect="always"
       xlink:href="#linearGradient3784-2"
       id="radialGradient3169"
       gradientUnits="userSpaceOnUse"
       gradientTransform="matrix(0.86845095,-0.21811178,0.20080351,0.64785373,-7.6801463,26.627959)"
       cx="49.170681"
       cy="69.609459"
       fx="49.170681"
       fy="69.609459"
       r="10" />
    <linearGradient
       id="linearGradient3784-2">
      <stop
         id="stop3786-4"
         style="stop-color:#828282;stop-opacity:1"
         offset="0" />
      <stop
         id="stop3790-2"
         style="stop-color:#1a1a1a;stop-opacity:1"
         offset="1" />
    </linearGradient>
    <linearGradient
       inkscape:collect="always"
       xlink:href="#linearGradient3769-3"
       id="linearGradient3165"
       gradientUnits="userSpaceOnUse"
       x1="49.659111"
       y1="55.023781"
       x2="50.133987"
       y2="72.838806"
       gradientTransform="matrix(0.59999998,-0.27147827,0.29674402,0.54891403,-1.991836,33.113184)" />
    <linearGradient
       id="linearGradient3769-3">
      <stop
         id="stop3771-7"
         style="stop-color:#ffffff;stop-opacity:1"
         offset="0" />
      <stop
         id="stop3773-8"
         style="stop-color:#ffffff;stop-opacity:0"
         offset="1" />
    </linearGradient>
    <radialGradient
       inkscape:collect="always"
       xlink:href="#linearGradient3811-7"
       id="radialGradient3161"
       gradientUnits="userSpaceOnUse"
       gradientTransform="matrix(1,0,0,26,1,-900)"
       cx="55.5"
       cy="36"
       fx="55.5"
       fy="36"
       r="0.5" />
    <linearGradient
       id="linearGradient3811-7">
      <stop
         id="stop3813-4"
         style="stop-color:#ffffff;stop-opacity:1"
         offset="0" />
      <stop
         id="stop3815-4"
         style="stop-color:#ffffff;stop-opacity:0"
         offset="1" />
    </linearGradient>
    <linearGradient
       inkscape:collect="always"
       xlink:href="#linearGradient3811-7"
       id="linearGradient3158"
       gradientUnits="userSpaceOnUse"
       gradientTransform="translate(1,0)"
       x1="67"
       y1="35"
       x2="57"
       y2="19" />
    <linearGradient
       id="linearGradient6108">
      <stop
         id="stop6110"
         style="stop-color:#ffffff;stop-opacity:1"
         offset="0" />
      <stop
         id="stop6112"
         style="stop-color:#ffffff;stop-opacity:0"
         offset="1" />
    </linearGradient>
    <linearGradient
       inkscape:collect="always"
       xlink:href="#linearGradient4099"
       id="linearGradient3129"
       gradientUnits="userSpaceOnUse"
       x1="22.111456"
       y1="62.983868"
       x2="40"
       y2="32" />
    <linearGradient
       id="linearGradient4099">
      <stop
         id="stop4101"
         style="stop-color:#9ebe1c;stop-opacity:1"
         offset="0" />
      <stop
         id="stop4103"
         style="stop-color:#dae54d;stop-opacity:1"
         offset="1" />
    </linearGradient>
    <linearGradient
       inkscape:collect="always"
       xlink:href="#linearGradient4099"
       id="linearGradient3126-2"
       gradientUnits="userSpaceOnUse"
       x1="38"
       y1="74"
       x2="70"
       y2="49" />
    <linearGradient
       id="linearGradient6119">
      <stop
         id="stop6121"
         style="stop-color:#9ebe1c;stop-opacity:1"
         offset="0" />
      <stop
         id="stop6123"
         style="stop-color:#dae54d;stop-opacity:1"
         offset="1" />
    </linearGradient>
    <linearGradient
       inkscape:collect="always"
       xlink:href="#linearGradient3811-7"
       id="linearGradient3114"
       gradientUnits="userSpaceOnUse"
       x1="72"
       y1="47"
       x2="47.979176"
       y2="71.020821" />
    <linearGradient
       id="linearGradient6126">
      <stop
         id="stop6128"
         style="stop-color:#ffffff;stop-opacity:1"
         offset="0" />
      <stop
         id="stop6130"
         style="stop-color:#ffffff;stop-opacity:0"
         offset="1" />
    </linearGradient>
    <linearGradient
       y2="57"
       x2="26"
       y1="29"
       x1="37"
       gradientUnits="userSpaceOnUse"
       id="linearGradient3261"
       xlink:href="#linearGradient3769-3"
       inkscape:collect="always" />
    <linearGradient
       id="linearGradient6133">
      <stop
         id="stop6135"
         style="stop-color:#ffffff;stop-opacity:1"
         offset="0" />
      <stop
         id="stop6137"
         style="stop-color:#ffffff;stop-opacity:0"
         offset="1" />
    </linearGradient>
    <linearGradient
       y2="138.66119"
       x2="48"
       y1="20.220806"
       x1="48"
       gradientUnits="userSpaceOnUse"
       id="linearGradient3283-49"
       xlink:href="#linearGradient3737-81"
       inkscape:collect="always" />
    <linearGradient
       id="linearGradient3737-81">
      <stop
         id="stop3739-2"
         style="stop-color:#ffffff;stop-opacity:1"
         offset="0" />
      <stop
         id="stop3741-98"
         style="stop-color:#ffffff;stop-opacity:0"
         offset="1" />
    </linearGradient>
    <clipPath
       id="clipPath3613-86">
      <rect
         width="84"
         height="84"
         rx="6"
         ry="6"
         x="6"
         y="6"
         id="rect3615-8"
         style="fill:#ffffff;fill-opacity:1;fill-rule:nonzero;stroke:none" />
    </clipPath>
    <filter
       x="-0.192"
       y="-0.192"
       width="1.3839999"
       height="1.3839999"
       color-interpolation-filters="sRGB"
       id="filter3794-20">
      <feGaussianBlur
         id="feGaussianBlur3796-2"
         stdDeviation="5.28" />
    </filter>
  </defs>
  <sodipodi:namedview
     id="base"
     pagecolor="#ffffff"
     bordercolor="#666666"
     borderopacity="1.0"
     inkscape:pageopacity="0.0"
     inkscape:pageshadow="2"
     inkscape:zoom="3.959798"
     inkscape:cx="36.39115"
     inkscape:cy="42.877139"
     inkscape:document-units="px"
     inkscape:current-layer="layer1"
     showgrid="false"
     inkscape:window-width="1280"
     inkscape:window-height="725"
     inkscape:window-x="0"
     inkscape:window-y="25"
     inkscape:window-maximized="1" />
  <metadata
     id="metadata2987">
    <rdf:RDF>
      <cc:Work
         rdf:about="">
        <dc:format>image/svg+xml</dc:format>
        <dc:type
           rdf:resource="http://purl.org/dc/dcmitype/StillImage" />
        <dc:title></dc:title>
      </cc:Work>
    </rdf:RDF>
  </metadata>
  <g
     inkscape:label="Layer 1"
     inkscape:groupmode="layer"
     id="layer1"
     transform="translate(0,-956.36218)">
    <g
       transform="translate(-182.1875,-40.40625)"
       id="g6056">
      <rect
         y="964.36218"
         x="8"
         height="80"
         width="80"
         id="rect9283"
         style="fill:#000000;fill-opacity:1;stroke:none;filter:url(#filter6279)"
         rx="5"
         ry="5"
         transform="translate(182.1875,40.40625)" />
      <rect
         ry="5"
         rx="5"
         style="fill:url(#linearGradient10902-1);fill-opacity:1;stroke:none"
         id="rect9285"
         width="80"
         height="80"
         x="8"
         y="964.36218"
         transform="translate(182.1875,40.40625)" />
      <g
         id="g6847">
        <g
           transform="matrix(0.73846154,0,0,0.73846154,194.34904,1010.7146)"
           id="g3178">
          <path
             style="fill:url(#linearGradient3172);fill-opacity:1;stroke:none"
             id="path3261"
             inkscape:connector-curvature="0"
             d="m 54.15625,10 0,39.4375 c 1.32164,0.825929 2.402837,1.914151 3.125,3.25 0.266645,0.493237 0.56622,1.01271 0.71875,1.53125 L 58,21.1875 c 3.726808,2.658135 12.670739,12.968337 8.34375,25.125 C 68.740074,40.075171 68.958391,33.385667 68.0625,29.78125 66.978404,25.419595 63.317066,20.924286 59.53125,16.875 55.554215,12.621189 54.15625,10 54.15625,10 z" />
          <path
             inkscape:connector-curvature="0"
             style="color:#000000;fill:url(#radialGradient3169);fill-opacity:1;fill-rule:nonzero;stroke:none;stroke-width:1;marker:none;visibility:visible;display:inline;overflow:visible;enable-background:accumulate"
             id="path3688"
             d="M 57.296138,51.793834 A 7.689473,10.23723 70.973118 1 1 38.703861,60.206166 7.689473,10.23723 70.973118 0 1 57.296138,51.793834 z" />
          <path
             style="color:#000000;fill:#1a1a1a;fill-opacity:1;fill-rule:nonzero;stroke:none;stroke-width:1;marker:none;visibility:visible;display:inline;overflow:visible;enable-background:accumulate"
             id="path3777"
             inkscape:connector-curvature="0"
             d="m 49.1875,48 c -1.600312,0.07229 -3.270589,0.461562 -4.875,1.1875 -5.134116,2.323001 -7.625107,7.273666 -5.59375,11.03125 2.031357,3.757584 7.834634,4.916751 12.96875,2.59375 5.134116,-2.323001 7.625107,-7.273666 5.59375,-11.03125 C 55.884692,49.197911 52.708187,47.840967 49.1875,48 z m 0.03125,0.9375 c 3.180144,-0.150057 5.997385,1.048537 7.1875,3.25 1.731077,3.202128 -0.441962,7.634066 -5.1875,9.78125 -4.745538,2.147184 -9.893923,1.045878 -11.625,-2.15625 -1.731077,-3.202128 0.441962,-7.634066 5.1875,-9.78125 1.482981,-0.670995 2.99198,-1.025542 4.4375,-1.09375 z" />
          <path
             inkscape:connector-curvature="0"
             style="opacity:0.8;color:#000000;fill:url(#linearGradient3165);fill-opacity:1;fill-rule:nonzero;stroke:none;stroke-width:1;marker:none;visibility:visible;display:inline;overflow:visible;enable-background:accumulate"
             id="path3765"
             d="m 52.703036,51.406072 a 4.963011,6.6074079 70.973118 0 1 -12,5.429565 4.963011,6.6074079 70.973118 1 1 12,-5.429565 z" />
          <path
             style="opacity:0.2;color:#000000;fill:#ffffff;fill-opacity:1;fill-rule:nonzero;stroke:none;stroke-width:1;marker:none;visibility:visible;display:inline;overflow:visible;enable-background:accumulate"
             id="path3794"
             inkscape:connector-curvature="0"
             d="m 56.84375,54 c -0.202314,2.59571 -2.227104,5.354686 -5.65625,6.90625 -4.703432,2.128133 -9.801461,0.98569 -11.5,-2.15625 -0.297952,-0.551149 -0.461324,-1.141026 -0.53125,-1.75 -0.07518,0.964578 0.07107,1.898764 0.53125,2.75 1.698539,3.14194 6.796568,4.284383 11.5,2.15625 C 55.065872,60.151427 57.172453,56.862614 56.84375,54 z" />
          <rect
             style="opacity:0.2;color:#000000;fill:url(#radialGradient3161);fill-opacity:1;fill-rule:nonzero;stroke:none;stroke-width:1;marker:none;visibility:visible;display:inline;overflow:visible;enable-background:accumulate"
             id="rect3809"
             y="23"
             x="56"
             ry="6"
             rx="6"
             height="26"
             width="1" />
          <path
             style="opacity:0.3;fill:url(#linearGradient3158);fill-opacity:1;stroke:none"
             id="path3821"
             inkscape:connector-curvature="0"
             d="m 56.25,13.40625 0,5.53125 c 0,0 2.385119,0.385119 3.375,1.375 2.069991,1.476415 5.278234,4.78816 7.53125,9.40625 0.463612,0.950282 0.863977,1.975534 1.21875,3.03125 C 68.30564,31.726603 68.181679,30.762194 68,30.03125 67.012092,26.056588 63.500442,21.636451 59.75,17.625 58.107584,15.868282 57.122539,14.570855 56.25,13.40625 z" />
          <path
             d="m 48,30 c -2.261594,0.0035 -4.51453,0.284382 -6.71875,0.875 C 27.411132,34.591486 19.158513,48.848632 22.875,62.71875 l -4.8125,1.3125 11.28125,7.3125 L 35.4375,59.375 30.625,60.65625 C 28.052048,51.05386 33.741361,41.197953 43.34375,38.625 44.869749,38.21611 46.43397,38.001277 48,38 l 0,-8 z"
             inkscape:connector-curvature="0"
             id="path4085"
             style="color:#000000;fill:url(#linearGradient3129);fill-opacity:1;fill-rule:nonzero;stroke:none;stroke-width:1;marker:none;visibility:visible;display:inline;overflow:visible;enable-background:accumulate" />
          <path
             d="m 70,46 -9,10 5,0 c 0,9.941125 -8.058875,18 -18,18 -3.15966,0 -6.263654,-0.82642 -9,-2.40625 l -4,6.9375 C 38.952499,80.813227 43.436047,82 48,82 62.359403,82 74,70.359403 74,56 l 5,0 -9,-10 z"
             inkscape:connector-curvature="0"
             id="path3732"
             style="color:#000000;fill:url(#linearGradient3126-2);fill-opacity:1;fill-rule:nonzero;stroke:none;stroke-width:1;marker:none;visibility:visible;display:inline;overflow:visible;enable-background:accumulate" />
          <path
             d="m 70,46 -9,10 5,0 c 0,9.941125 -8.058875,18 -18,18 -3.15966,0 -6.263654,-0.82642 -9,-2.40625 l -4,6.9375 C 38.952499,80.813227 43.436047,82 48,82 62.359403,82 74,70.359403 74,56 l 5,0 -9,-10 z m 0,0.96875 7.5625,8.375 -3.5625,0 A 0.64754476,0.64754476 0 0 0 73.34375,56 c 0,14.009479 -11.334271,25.34375 -25.34375,25.34375 -4.232826,0 -8.38267,-1.078547 -12.09375,-3.09375 l 3.375,-5.84375 c 2.693247,1.431629 5.662946,2.25 8.71875,2.25 10.291049,0 18.65625,-8.365201 18.65625,-18.65625 A 0.64754476,0.64754476 0 0 0 66,55.34375 l -3.5625,0 7.5625,-8.375 z"
             inkscape:connector-curvature="0"
             id="path4115"
             style="opacity:0.6;color:#000000;fill:url(#linearGradient3114);fill-opacity:1;fill-rule:nonzero;stroke:none;stroke-width:1;marker:none;visibility:visible;display:inline;overflow:visible;enable-background:accumulate" />
          <path
             d="m 48,30 c -2.261594,0.0035 -4.51453,0.284382 -6.71875,0.875 C 27.411132,34.591486 19.158513,48.848632 22.875,62.71875 l -4.8125,1.3125 11.28125,7.3125 L 35.4375,59.375 30.625,60.65625 C 28.052048,51.05386 33.741361,41.197953 43.34375,38.625 44.869749,38.21611 46.43397,38.001277 48,38 l 0,-8 z m -0.90625,1.03125 0,6.1875 C 45.75509,37.287247 44.426176,37.401351 43.125,37.75 33.05304,40.448774 27.051246,50.80311 29.75,60.875 a 0.90087177,0.90087177 0 0 0 1.09375,0.65625 l 2.875,-0.75 L 29,70.03125 20.25,64.375 23.125,63.59375 A 0.90087177,0.90087177 0 0 0 23.75,62.5 C 20.159737,49.100955 28.099903,35.340544 41.5,31.75 c 1.828389,-0.489915 3.715092,-0.650935 5.59375,-0.71875 z"
             inkscape:connector-curvature="0"
             id="path4142"
             style="opacity:0.6;color:#000000;fill:url(#linearGradient3261);fill-opacity:1;fill-rule:nonzero;stroke:none;stroke-width:1;marker:none;visibility:visible;display:inline;overflow:visible;enable-background:accumulate" />
        </g>
        <g
           transform="translate(182.1875,996.76843)"
           id="layer5">
          <rect
             width="66"
             height="66"
             rx="12"
             ry="12"
             x="15"
             y="15"
             clip-path="url(#clipPath3613-86)"
             id="rect3171"
             style="opacity:0.1;fill:url(#linearGradient3283-49);fill-opacity:1;fill-rule:nonzero;stroke:#ffffff;stroke-width:0.5;stroke-linecap:round;stroke-linejoin:miter;stroke-miterlimit:4;stroke-opacity:1;stroke-dasharray:none;stroke-dashoffset:0;filter:url(#filter3794-20)" />
        </g>
      </g>
    </g>
  </g>
</svg>
