<?xml version="1.0" encoding="UTF-8" standalone="no"?>
<!-- Created with Inkscape (http://www.inkscape.org/) -->

<svg
   xmlns:dc="http://purl.org/dc/elements/1.1/"
   xmlns:cc="http://creativecommons.org/ns#"
   xmlns:rdf="http://www.w3.org/1999/02/22-rdf-syntax-ns#"
   xmlns:svg="http://www.w3.org/2000/svg"
   xmlns="http://www.w3.org/2000/svg"
   xmlns:xlink="http://www.w3.org/1999/xlink"
   xmlns:sodipodi="http://sodipodi.sourceforge.net/DTD/sodipodi-0.dtd"
   xmlns:inkscape="http://www.inkscape.org/namespaces/inkscape"
   width="96"
   height="96"
   id="svg2982"
   version="1.1"
   inkscape:version="0.48.1 r9760"
   sodipodi:docname="synapse.svg">
  <defs
     id="defs2984">
    <filter
       color-interpolation-filters="sRGB"
       inkscape:collect="always"
       id="filter6279">
      <feGaussianBlur
         inkscape:collect="always"
         stdDeviation="0.8"
         id="feGaussianBlur6281" />
    </filter>
    <linearGradient
       inkscape:collect="always"
       xlink:href="#linearGradient3926"
       id="linearGradient10902-1"
       gradientUnits="userSpaceOnUse"
       gradientTransform="translate(0,-9.6171873e-6)"
       x1="48"
       y1="1052.3622"
       x2="48"
       y2="902.36218" />
    <linearGradient
       id="linearGradient3926">
      <stop
         id="stop3928-8"
         style="stop-color:#e9e6e8;stop-opacity:1"
         offset="0" />
      <stop
         id="stop3930"
         style="stop-color:#92838d;stop-opacity:1"
         offset="1" />
    </linearGradient>
    <linearGradient
       y2="443.59406"
       x2="301.57123"
       y1="70.042267"
       x1="301.57123"
       gradientTransform="matrix(0.14210405,0,0,0.14210405,193.81262,1008.451)"
       gradientUnits="userSpaceOnUse"
       id="linearGradient3091"
       xlink:href="#linearGradient3972"
       inkscape:collect="always" />
    <linearGradient
       id="linearGradient3972">
      <stop
         id="stop3974"
         style="stop-color:#0b9879;stop-opacity:1"
         offset="0" />
      <stop
         id="stop3976"
         style="stop-color:#60e7dc;stop-opacity:1"
         offset="1" />
    </linearGradient>
    <linearGradient
       y2="138.66119"
       x2="48"
       y1="20.220806"
       x1="48"
       gradientUnits="userSpaceOnUse"
       id="linearGradient3113"
       xlink:href="#linearGradient3737-72"
       inkscape:collect="always" />
    <linearGradient
       id="linearGradient3737-72">
      <stop
         id="stop3739-35"
         style="stop-color:#ffffff;stop-opacity:1"
         offset="0" />
      <stop
         id="stop3741-17"
         style="stop-color:#ffffff;stop-opacity:0"
         offset="1" />
    </linearGradient>
    <clipPath
       id="clipPath3613-89">
      <rect
         width="84"
         height="84"
         rx="6"
         ry="6"
         x="6"
         y="6"
         id="rect3615-41"
         style="fill:#ffffff;fill-opacity:1;fill-rule:nonzero;stroke:none" />
    </clipPath>
    <filter
       x="-0.192"
       y="-0.192"
       width="1.3839999"
       height="1.3839999"
       color-interpolation-filters="sRGB"
       id="filter3794-64">
      <feGaussianBlur
         id="feGaussianBlur3796-35"
         stdDeviation="5.28" />
    </filter>
  </defs>
  <sodipodi:namedview
     id="base"
     pagecolor="#ffffff"
     bordercolor="#666666"
     borderopacity="1.0"
     inkscape:pageopacity="0.0"
     inkscape:pageshadow="2"
     inkscape:zoom="3.959798"
     inkscape:cx="36.39115"
     inkscape:cy="42.877139"
     inkscape:document-units="px"
     inkscape:current-layer="layer1"
     showgrid="false"
     inkscape:window-width="1280"
     inkscape:window-height="725"
     inkscape:window-x="0"
     inkscape:window-y="25"
     inkscape:window-maximized="1" />
  <metadata
     id="metadata2987">
    <rdf:RDF>
      <cc:Work
         rdf:about="">
        <dc:format>image/svg+xml</dc:format>
        <dc:type
           rdf:resource="http://purl.org/dc/dcmitype/StillImage" />
        <dc:title></dc:title>
      </cc:Work>
    </rdf:RDF>
  </metadata>
  <g
     inkscape:label="Layer 1"
     inkscape:groupmode="layer"
     id="layer1"
     transform="translate(0,-956.36218)">
    <g
       transform="translate(-182.1875,-40.40625)"
       id="g5958">
      <rect
         y="964.36218"
         x="8"
         height="80"
         width="80"
         id="rect9283"
         style="fill:#000000;fill-opacity:1;stroke:none;filter:url(#filter6279)"
         rx="5"
         ry="5"
         transform="translate(182.1875,40.40625)" />
      <rect
         ry="5"
         rx="5"
         style="fill:url(#linearGradient10902-1);fill-opacity:1;stroke:none"
         id="rect9285"
         width="80"
         height="80"
         x="8"
         y="964.36218"
         transform="translate(182.1875,40.40625)" />
      <g
         id="g6761">
        <path
           style="fill:url(#linearGradient3091);fill-opacity:1;stroke:none;display:inline"
           id="path4189"
           inkscape:connector-curvature="0"
           d="m 230.19125,1033.4613 c -6.27855,0 -11.36832,5.0647 -11.36832,11.3683 0,0 -0.0754,1.068 0.25121,2.2737 l 17.45851,0 c -0.47132,1.3166 -1.31668,2.4977 -2.46462,3.2861 -2.64097,2.0852 -6.64069,1.327 -8.89038,-1.0124 l -5.4044,0 c 1.75504,4.0133 5.75758,6.821 10.418,6.821 6.27856,0 11.36833,-5.0898 11.36833,-11.3684 0,0 0,-1.1682 -0.22609,-2.2736 l -17.46587,0 c 0.98281,-2.4842 3.32971,-4.4973 6.05719,-4.5205 0.13649,-0.01 0.27246,-0.01 0.40854,-0.01 1.82835,0.037 3.60246,0.9041 4.836,2.2512 l 5.43992,0 c -1.75505,-4.0131 -5.7576,-6.8208 -10.41802,-6.8208 z m -2.58504,-15.0704 0,5.9497 c -8.46263,1.0549 -15.33461,7.2293 -17.41871,15.3265 l 5.35417,0 c 2.19582,-5.8447 8.00967,-10.403 14.36351,-10.3605 0.15406,-0.01 0.31003,-0.01 0.46382,-0.01 2.30681,0.013 4.57434,0.5863 6.6297,1.6132 3.70213,1.6665 6.45105,4.96 7.7943,8.7523 l 5.3945,0 c -2.0841,-8.0973 -8.95608,-14.2718 -17.41871,-15.3265 l 0,-5.9497 z m -17.41871,31.6013 c 2.0841,8.0973 8.95609,14.2719 17.41871,15.3265 l 0,5.9497 5.16258,0 0,-5.9497 c 8.46263,-1.0546 15.3346,-7.2292 17.41871,-15.3265 l -5.31888,0 c -2.08702,6.1568 -8.53755,10.5842 -15.05925,10.3555 -6.34973,0.032 -12.10995,-4.5039 -14.25762,-10.3555 z" />
        <g
           transform="translate(182.1875,996.76843)"
           id="layer5"
           style="display:inline">
          <rect
             width="66"
             height="66"
             rx="12"
             ry="12"
             x="15"
             y="15"
             clip-path="url(#clipPath3613-89)"
             id="rect3171"
             style="opacity:0.1;fill:url(#linearGradient3113);fill-opacity:1;fill-rule:nonzero;stroke:#ffffff;stroke-width:0.5;stroke-linecap:round;stroke-linejoin:miter;stroke-miterlimit:4;stroke-opacity:1;stroke-dasharray:none;stroke-dashoffset:0;filter:url(#filter3794-64)" />
        </g>
      </g>
    </g>
  </g>
</svg>
