<?xml version="1.0" encoding="UTF-8" standalone="no"?>
<!-- Created with Inkscape (http://www.inkscape.org/) -->

<svg
   xmlns:dc="http://purl.org/dc/elements/1.1/"
   xmlns:cc="http://creativecommons.org/ns#"
   xmlns:rdf="http://www.w3.org/1999/02/22-rdf-syntax-ns#"
   xmlns:svg="http://www.w3.org/2000/svg"
   xmlns="http://www.w3.org/2000/svg"
   xmlns:xlink="http://www.w3.org/1999/xlink"
   xmlns:sodipodi="http://sodipodi.sourceforge.net/DTD/sodipodi-0.dtd"
   xmlns:inkscape="http://www.inkscape.org/namespaces/inkscape"
   width="96"
   height="96"
   id="svg2982"
   version="1.1"
   inkscape:version="0.48.1 r9760"
   sodipodi:docname="terminator.svg">
  <defs
     id="defs2984">
    <filter
       color-interpolation-filters="sRGB"
       inkscape:collect="always"
       id="filter6279">
      <feGaussianBlur
         inkscape:collect="always"
         stdDeviation="0.8"
         id="feGaussianBlur6281" />
    </filter>
    <linearGradient
       inkscape:collect="always"
       xlink:href="#linearGradient3916-8"
       id="linearGradient10902-1"
       gradientUnits="userSpaceOnUse"
       gradientTransform="translate(0,-9.6171873e-6)"
       x1="48"
       y1="1052.3622"
       x2="48"
       y2="902.36218" />
    <linearGradient
       id="linearGradient3916-8">
      <stop
         id="stop3918-8"
         style="stop-color:#300b0b;stop-opacity:1"
         offset="0" />
      <stop
         id="stop3920-8"
         style="stop-color:#3f0000;stop-opacity:1"
         offset="1" />
    </linearGradient>
    <linearGradient
       inkscape:collect="always"
       xlink:href="#linearGradient2198"
       id="linearGradient3084-2"
       gradientUnits="userSpaceOnUse"
       gradientTransform="matrix(0,1,1,0,0,0)"
       x1="18"
       y1="47.5"
       x2="78"
       y2="47.5" />
    <linearGradient
       id="linearGradient2198">
      <stop
         id="stop2200"
         style="stop-color:#ff0000;stop-opacity:1"
         offset="0" />
      <stop
         id="stop2202"
         style="stop-color:#5a0000;stop-opacity:1"
         offset="1" />
    </linearGradient>
    <linearGradient
       inkscape:collect="always"
       xlink:href="#linearGradient3940-9"
       id="linearGradient3069"
       gradientUnits="userSpaceOnUse"
       spreadMethod="reflect"
       x1="48"
       y1="64"
       x2="48"
       y2="80" />
    <linearGradient
       id="linearGradient3940-9">
      <stop
         id="stop3942-6"
         style="stop-color:#ffedb8;stop-opacity:1"
         offset="0" />
      <stop
         id="stop3944-0"
         style="stop-color:#ffffff;stop-opacity:0"
         offset="1" />
    </linearGradient>
    <linearGradient
       y2="80"
       x2="48"
       y1="64"
       x1="48"
       spreadMethod="reflect"
       gradientTransform="translate(0,-32)"
       gradientUnits="userSpaceOnUse"
       id="linearGradient3158"
       xlink:href="#linearGradient3940-9"
       inkscape:collect="always" />
    <linearGradient
       id="linearGradient6048">
      <stop
         id="stop6050"
         style="stop-color:#ffedb8;stop-opacity:1"
         offset="0" />
      <stop
         id="stop6052"
         style="stop-color:#ffffff;stop-opacity:0"
         offset="1" />
    </linearGradient>
    <linearGradient
       y2="138.66119"
       x2="48"
       y1="20.220806"
       x1="48"
       gradientUnits="userSpaceOnUse"
       id="linearGradient3223"
       xlink:href="#linearGradient3737-4-5"
       inkscape:collect="always" />
    <linearGradient
       id="linearGradient3737-4-5">
      <stop
         id="stop3739-8-3"
         style="stop-color:#ffffff;stop-opacity:1"
         offset="0" />
      <stop
         id="stop3741-71"
         style="stop-color:#ffffff;stop-opacity:0"
         offset="1" />
    </linearGradient>
    <clipPath
       id="clipPath3613-86">
      <rect
         width="84"
         height="84"
         rx="6"
         ry="6"
         x="6"
         y="6"
         id="rect3615-7"
         style="fill:#ffffff;fill-opacity:1;fill-rule:nonzero;stroke:none" />
    </clipPath>
    <filter
       x="-0.192"
       y="-0.192"
       width="1.3839999"
       height="1.3839999"
       color-interpolation-filters="sRGB"
       id="filter3794-36">
      <feGaussianBlur
         id="feGaussianBlur3796-02"
         stdDeviation="5.28" />
    </filter>
  </defs>
  <sodipodi:namedview
     id="base"
     pagecolor="#ffffff"
     bordercolor="#666666"
     borderopacity="1.0"
     inkscape:pageopacity="0.0"
     inkscape:pageshadow="2"
     inkscape:zoom="3.959798"
     inkscape:cx="36.39115"
     inkscape:cy="42.877139"
     inkscape:document-units="px"
     inkscape:current-layer="layer1"
     showgrid="false"
     inkscape:window-width="1280"
     inkscape:window-height="725"
     inkscape:window-x="0"
     inkscape:window-y="25"
     inkscape:window-maximized="1" />
  <metadata
     id="metadata2987">
    <rdf:RDF>
      <cc:Work
         rdf:about="">
        <dc:format>image/svg+xml</dc:format>
        <dc:type
           rdf:resource="http://purl.org/dc/dcmitype/StillImage" />
        <dc:title></dc:title>
      </cc:Work>
    </rdf:RDF>
  </metadata>
  <g
     inkscape:label="Layer 1"
     inkscape:groupmode="layer"
     id="layer1"
     transform="translate(0,-956.36218)">
    <g
       transform="translate(-182.1875,-40.40625)"
       id="g6003">
      <rect
         y="964.36218"
         x="8"
         height="80"
         width="80"
         id="rect9283"
         style="fill:#000000;fill-opacity:1;stroke:none;filter:url(#filter6279)"
         rx="5"
         ry="5"
         transform="translate(182.1875,40.40625)" />
      <rect
         ry="5"
         rx="5"
         style="fill:url(#linearGradient10902-1);fill-opacity:1;stroke:none"
         id="rect9285"
         width="80"
         height="80"
         x="8"
         y="964.36218"
         transform="translate(182.1875,40.40625)" />
      <g
         id="g6814">
        <g
           id="g6774">
          <g
             id="g3106"
             transform="matrix(0.83333333,0,0,0.83333333,190.1875,1004.7684)">
            <path
               style="color:#000000;fill:url(#linearGradient3084-2);fill-opacity:1;fill-rule:nonzero;stroke:none;stroke-width:1;marker:none;visibility:visible;display:inline;overflow:visible;enable-background:accumulate"
               id="path3717"
               inkscape:connector-curvature="0"
               d="m 18,20 c 0,-1.108 0.892,-2 2,-2 l 24,0 c 1.108,0 2,0.892 2,2 l 0,24 c 0,1.108 -0.892,2 -2,2 l -24,0 c -1.108,0 -2,-0.892 -2,-2 l 0,-24 z m 0,32 c 0,-1.108 0.892,-2 2,-2 l 24,0 c 1.108,0 2,0.892 2,2 l 0,24 c 0,1.108 -0.892,2 -2,2 l -24,0 c -1.108,0 -2,-0.892 -2,-2 L 18,52 z M 50,20 c 0,-1.108 0.892,-2 2,-2 l 24,0 c 1.108,0 2,0.892 2,2 l 0,24 c 0,1.108 -0.892,2 -2,2 l -24,0 c -1.108,0 -2,-0.892 -2,-2 l 0,-24 z m 0,32 c 0,-1.108 0.892,-2 2,-2 l 24,0 c 1.108,0 2,0.892 2,2 l 0,24 c 0,1.108 -0.892,2 -2,2 l -24,0 c -1.108,0 -2,-0.892 -2,-2 l 0,-24 z" />
            <path
               style="font-size:48px;font-style:normal;font-variant:normal;font-weight:bold;font-stretch:normal;text-align:start;line-height:125%;writing-mode:lr-tb;text-anchor:start;fill:#ffffff;fill-opacity:1;stroke:none;display:inline;font-family:MgOpen Canonica;-inkscape-font-specification:MgOpen Canonica Bold"
               id="path3213"
               inkscape:connector-curvature="0"
               d="m 24,23 0,2.001086 4.005823,1.546558 L 24,28.063879 24,30 29.973363,27.541763 30,25.62071 24,23 z" />
            <path
               style="font-size:48px;font-style:normal;font-variant:normal;font-weight:bold;font-stretch:normal;text-align:start;line-height:125%;writing-mode:lr-tb;text-anchor:start;fill:#ffffff;fill-opacity:1;stroke:none;display:inline;font-family:MgOpen Canonica;-inkscape-font-specification:MgOpen Canonica Bold"
               id="path3557"
               inkscape:connector-curvature="0"
               d="m 30,30 0,2 6,0 0,-2 -6,0 z" />
            <path
               style="font-size:48px;font-style:normal;font-variant:normal;font-weight:bold;font-stretch:normal;text-align:start;line-height:125%;writing-mode:lr-tb;text-anchor:start;fill:#ffffff;fill-opacity:1;stroke:none;display:inline;font-family:MgOpen Canonica;-inkscape-font-specification:MgOpen Canonica Bold"
               id="path3729"
               inkscape:connector-curvature="0"
               d="m 56,23 0,2.001086 4.005823,1.546558 L 56,28.063879 56,30 61.973363,27.541763 62,25.62071 56,23 z" />
            <path
               style="font-size:48px;font-style:normal;font-variant:normal;font-weight:bold;font-stretch:normal;text-align:start;line-height:125%;writing-mode:lr-tb;text-anchor:start;fill:#ffffff;fill-opacity:1;stroke:none;display:inline;font-family:MgOpen Canonica;-inkscape-font-specification:MgOpen Canonica Bold"
               id="path3731"
               inkscape:connector-curvature="0"
               d="m 62,30 0,2 6,0 0,-2 -6,0 z" />
            <path
               style="font-size:48px;font-style:normal;font-variant:normal;font-weight:bold;font-stretch:normal;text-align:start;line-height:125%;writing-mode:lr-tb;text-anchor:start;fill:#ffffff;fill-opacity:1;stroke:none;display:inline;font-family:MgOpen Canonica;-inkscape-font-specification:MgOpen Canonica Bold"
               id="path3733"
               inkscape:connector-curvature="0"
               d="m 24,55 0,2.001086 4.005823,1.546558 L 24,60.063879 24,62 29.973363,59.541763 30,57.62071 24,55 z" />
            <path
               style="font-size:48px;font-style:normal;font-variant:normal;font-weight:bold;font-stretch:normal;text-align:start;line-height:125%;writing-mode:lr-tb;text-anchor:start;fill:#ffffff;fill-opacity:1;stroke:none;display:inline;font-family:MgOpen Canonica;-inkscape-font-specification:MgOpen Canonica Bold"
               id="path3735"
               inkscape:connector-curvature="0"
               d="m 30,62 0,2 6,0 0,-2 -6,0 z" />
            <path
               style="font-size:48px;font-style:normal;font-variant:normal;font-weight:bold;font-stretch:normal;text-align:start;line-height:125%;writing-mode:lr-tb;text-anchor:start;fill:#ffffff;fill-opacity:1;stroke:none;display:inline;font-family:MgOpen Canonica;-inkscape-font-specification:MgOpen Canonica Bold"
               id="path3737"
               inkscape:connector-curvature="0"
               d="m 56,55 0,2.001086 4.005823,1.546558 L 56,60.063879 56,62 61.973363,59.541763 62,57.62071 56,55 z" />
            <path
               style="font-size:48px;font-style:normal;font-variant:normal;font-weight:bold;font-stretch:normal;text-align:start;line-height:125%;writing-mode:lr-tb;text-anchor:start;fill:#ffffff;fill-opacity:1;stroke:none;display:inline;font-family:MgOpen Canonica;-inkscape-font-specification:MgOpen Canonica Bold"
               id="path3739"
               inkscape:connector-curvature="0"
               d="m 62,62 0,2 6,0 0,-2 -6,0 z" />
            <path
               style="opacity:0.3;color:#000000;fill:#2b0000;fill-opacity:1;fill-rule:nonzero;stroke:none;stroke-width:1;marker:none;visibility:visible;display:inline;overflow:visible;enable-background:accumulate"
               id="path3741"
               inkscape:connector-curvature="0"
               d="m 20,18 c -1.108,0 -2,0.892 -2,2 l 0,24 c 0,1.108 0.892,2 2,2 l 24,0 c 1.108,0 2,-0.892 2,-2 l 0,-24 c 0,-1.108 -0.892,-2 -2,-2 l -24,0 z m 32,0 c -1.108,0 -2,0.892 -2,2 l 0,24 c 0,1.108 0.892,2 2,2 l 24,0 c 1.108,0 2,-0.892 2,-2 l 0,-24 c 0,-1.108 -0.892,-2 -2,-2 l -24,0 z m -32,1.28125 24,0 c 0.41998,0 0.71875,0.29877 0.71875,0.71875 l 0,24 c 0,0.41998 -0.29877,0.71875 -0.71875,0.71875 l -24,0 c -0.41998,0 -0.71875,-0.29877 -0.71875,-0.71875 l 0,-24 c 0,-0.41998 0.29877,-0.71875 0.71875,-0.71875 z m 32,0 24,0 c 0.41998,0 0.71875,0.29877 0.71875,0.71875 l 0,24 c 0,0.41998 -0.29877,0.71875 -0.71875,0.71875 l -24,0 c -0.41998,0 -0.71875,-0.29877 -0.71875,-0.71875 l 0,-24 c 0,-0.41998 0.29877,-0.71875 0.71875,-0.71875 z M 20,50 c -1.108,0 -2,0.892 -2,2 l 0,24 c 0,1.108 0.892,2 2,2 l 24,0 c 1.108,0 2,-0.892 2,-2 l 0,-24 c 0,-1.108 -0.892,-2 -2,-2 l -24,0 z m 32,0 c -1.108,0 -2,0.892 -2,2 l 0,24 c 0,1.108 0.892,2 2,2 l 24,0 c 1.108,0 2,-0.892 2,-2 l 0,-24 c 0,-1.108 -0.892,-2 -2,-2 l -24,0 z m -32,1.28125 24,0 c 0.41998,0 0.71875,0.29877 0.71875,0.71875 l 0,24 c 0,0.41998 -0.29877,0.71875 -0.71875,0.71875 l -24,0 c -0.41998,0 -0.71875,-0.29877 -0.71875,-0.71875 l 0,-24 c 0,-0.41998 0.29877,-0.71875 0.71875,-0.71875 z m 32,0 24,0 c 0.41998,0 0.71875,0.29877 0.71875,0.71875 l 0,24 c 0,0.41998 -0.29877,0.71875 -0.71875,0.71875 l -24,0 c -0.41998,0 -0.71875,-0.29877 -0.71875,-0.71875 l 0,-24 c 0,-0.41998 0.29877,-0.71875 0.71875,-0.71875 z" />
            <path
               style="opacity:0.3;color:#000000;fill:url(#linearGradient3069);fill-opacity:1;fill-rule:nonzero;stroke:none;stroke-width:1;marker:none;visibility:visible;display:inline;overflow:visible;enable-background:accumulate"
               id="rect3922"
               inkscape:connector-curvature="0"
               d="M 18.28125,51 C 18.11087,51.294551 18,51.633901 18,52 l 28,0 c 0,-0.366099 -0.11087,-0.705449 -0.28125,-1 l -27.4375,0 z m 32,0 C 50.11087,51.294551 50,51.633901 50,52 l 28,0 c 0,-0.366099 -0.11087,-0.705449 -0.28125,-1 l -27.4375,0 z M 18,55 l 0,1 28,0 0,-1 -28,0 z m 32,0 0,1 28,0 0,-1 -28,0 z m -32,4 0,1 28,0 0,-1 -28,0 z m 32,0 0,1 28,0 0,-1 -28,0 z m -32,4 0,1 28,0 0,-1 -28,0 z m 32,0 0,1 28,0 0,-1 -28,0 z m -32,4 0,1 28,0 0,-1 -28,0 z m 32,0 0,1 28,0 0,-1 -28,0 z m -32,4 0,1 28,0 0,-1 -28,0 z m 32,0 0,1 28,0 0,-1 -28,0 z m -32,4 0,1 28,0 0,-1 -28,0 z m 32,0 0,1 28,0 0,-1 -28,0 z" />
            <path
               style="opacity:0.3;color:#000000;fill:url(#linearGradient3158);fill-opacity:1;fill-rule:nonzero;stroke:none;stroke-width:1;marker:none;visibility:visible;display:inline;overflow:visible;enable-background:accumulate"
               id="path3948"
               inkscape:connector-curvature="0"
               d="M 18.28125,19 C 18.11087,19.294551 18,19.633901 18,20 l 28,0 c 0,-0.366099 -0.11087,-0.705449 -0.28125,-1 l -27.4375,0 z m 32,0 C 50.11087,19.294551 50,19.633901 50,20 l 28,0 c 0,-0.366099 -0.11087,-0.705449 -0.28125,-1 l -27.4375,0 z M 18,23 l 0,1 28,0 0,-1 -28,0 z m 32,0 0,1 28,0 0,-1 -28,0 z m -32,4 0,1 28,0 0,-1 -28,0 z m 32,0 0,1 28,0 0,-1 -28,0 z m -32,4 0,1 28,0 0,-1 -28,0 z m 32,0 0,1 28,0 0,-1 -28,0 z m -32,4 0,1 28,0 0,-1 -28,0 z m 32,0 0,1 28,0 0,-1 -28,0 z m -32,4 0,1 28,0 0,-1 -28,0 z m 32,0 0,1 28,0 0,-1 -28,0 z m -32,4 0,1 28,0 0,-1 -28,0 z m 32,0 0,1 28,0 0,-1 -28,0 z" />
          </g>
        </g>
        <rect
           transform="translate(182.1875,996.76843)"
           width="66"
           height="66"
           rx="12"
           ry="12"
           x="15"
           y="15"
           clip-path="url(#clipPath3613-86)"
           id="rect3171"
           style="opacity:0.1;fill:url(#linearGradient3223);fill-opacity:1;fill-rule:nonzero;stroke:#ffffff;stroke-width:0.5;stroke-linecap:round;stroke-linejoin:miter;stroke-miterlimit:4;stroke-opacity:1;stroke-dasharray:none;stroke-dashoffset:0;display:inline;filter:url(#filter3794-36)" />
      </g>
    </g>
  </g>
</svg>
