<?xml version="1.0" encoding="UTF-8" standalone="no"?>
<!-- Created with Inkscape (http://www.inkscape.org/) -->
<svg id="svg2982" xmlns:rdf="http://www.w3.org/1999/02/22-rdf-syntax-ns#" xmlns="http://www.w3.org/2000/svg" height="96" width="96" version="1.1" xmlns:cc="http://creativecommons.org/ns#" xmlns:xlink="http://www.w3.org/1999/xlink" xmlns:dc="http://purl.org/dc/elements/1.1/">
 <defs id="defs2984">
  <filter id="filter6279" color-interpolation-filters="sRGB">
   <feGaussianBlur id="feGaussianBlur6281" stdDeviation="0.8"/>
  </filter>
  <linearGradient id="linearGradient10902-1" y2="902.36" gradientUnits="userSpaceOnUse" x2="48" gradientTransform="translate(0 -.0000096172)" y1="1052.4" x1="48">
   <stop id="stop3189-5" style="stop-color:#282828" offset="0"/>
   <stop id="stop3191-94" style="stop-color:#5a5a5a" offset="1"/>
  </linearGradient>
  <linearGradient id="linearGradient12771" y2="4.9502" xlink:href="#linearGradient4015" gradientUnits="userSpaceOnUse" x2="8.9718" gradientTransform="matrix(-4.116 0 0 4.3566 259.12 1009.2)" y1="15.022" x1="8.9718"/>
  <linearGradient id="linearGradient4015">
   <stop id="stop4017" style="stop-color:#a3a3a3" offset="0"/>
   <stop id="stop4166" style="stop-color:#c7c7c7" offset=".32695"/>
   <stop id="stop4168" style="stop-color:#dedede" offset="0.675"/>
   <stop id="stop4019-5" style="stop-color:#f5f5f5" offset="1"/>
  </linearGradient>
  <linearGradient id="linearGradient12773" y2="75.76" gradientUnits="userSpaceOnUse" x2="46.098" gradientTransform="translate(182.19 996.77)" y1="52.77" x1="42.628">
   <stop id="stop4158" style="stop-color:#fff" offset="0"/>
   <stop id="stop4160" style="stop-color:#545454" offset="1"/>
  </linearGradient>
  <linearGradient id="linearGradient12775" y2="4.9502" xlink:href="#linearGradient4015" gradientUnits="userSpaceOnUse" x2="8.9718" gradientTransform="matrix(-2.2866 0 0 2.4204 229.15 1028.6)" y1="15.022" x1="8.9718"/>
  <linearGradient id="linearGradient12777" y2="4.9502" xlink:href="#linearGradient4015" gradientUnits="userSpaceOnUse" x2="8.9718" gradientTransform="matrix(-1.6007 0 0 1.6943 213.66 1035.8)" y1="15.022" x1="8.9718"/>
  <linearGradient id="linearGradient12779" y2="4.9502" xlink:href="#linearGradient4015" gradientUnits="userSpaceOnUse" x2="8.9718" gradientTransform="matrix(-.91466 0 0 .96814 200.17 1043.1)" y1="15.022" x1="8.9718"/>
  <linearGradient id="linearGradient12782" y2="4.9502" xlink:href="#linearGradient4015" gradientUnits="userSpaceOnUse" x2="8.9718" gradientTransform="matrix(-2.2866 0 0 2.4204 265.15 1028.6)" y1="15.022" x1="8.9718"/>
  <linearGradient id="linearGradient12784" y2="4.9502" xlink:href="#linearGradient4015" gradientUnits="userSpaceOnUse" x2="8.9718" gradientTransform="matrix(-1.6007 0 0 1.6943 271.66 1035.8)" y1="15.022" x1="8.9718"/>
  <linearGradient id="linearGradient12786" y2="4.9502" xlink:href="#linearGradient4015" gradientUnits="userSpaceOnUse" x2="8.9718" gradientTransform="matrix(-.91466 0 0 .96814 276.17 1043.1)" y1="15.022" x1="8.9718"/>
  <linearGradient id="linearGradient12788" y2="62.338" gradientUnits="userSpaceOnUse" x2="42.985" gradientTransform="translate(182.19 996.77)" y1="52.656" x1="42.985">
   <stop id="stop4232" offset="0"/>
   <stop id="stop4234" style="stop-opacity:0" offset="1"/>
  </linearGradient>
  <radialGradient id="radialGradient3619-4" xlink:href="#linearGradient3737-64" gradientUnits="userSpaceOnUse" cy="90.172" cx="48" gradientTransform="matrix(1.1573 0 0 .99591 -7.551 .19713)" r="42"/>
  <linearGradient id="linearGradient3737-64">
   <stop id="stop3739-2" style="stop-color:#fff" offset="0"/>
   <stop id="stop3741-51" style="stop-color:#fff;stop-opacity:0" offset="1"/>
  </linearGradient>
  <linearGradient id="linearGradient3275-3" y2="138.66" xlink:href="#linearGradient3737-64" gradientUnits="userSpaceOnUse" y1="20.221" x2="48" x1="48"/>
  <clipPath id="clipPath3613-12">
   <rect id="rect3615-10" style="fill:#fff" rx="6" ry="6" height="84" width="84" y="6" x="6"/>
  </clipPath>
  <filter id="filter3794-89" height="1.384" width="1.384" color-interpolation-filters="sRGB" y="-.192" x="-.192">
   <feGaussianBlur id="feGaussianBlur3796-01" stdDeviation="5.28"/>
  </filter>
 </defs>
 <metadata id="metadata2987">
  <rdf:RDF>
   <cc:Work rdf:about="">
    <dc:format>image/svg+xml</dc:format>
    <dc:type rdf:resource="http://purl.org/dc/dcmitype/StillImage"/>
    <dc:title/>
   </cc:Work>
  </rdf:RDF>
 </metadata>
 <g id="layer1" transform="translate(0 -956.36)">
  <g id="g6135" transform="translate(-182.19 -40.406)">
   <rect id="rect9283" style="filter:url(#filter6279)" transform="translate(182.19 40.406)" rx="5" ry="5" height="80" width="80" y="964.36" x="8"/>
   <rect id="rect9285" style="fill:url(#linearGradient10902-1)" transform="translate(182.19 40.406)" rx="5" ry="5" height="80" width="80" y="964.36" x="8"/>
   <g id="g12827">
    <g id="g12759" transform="matrix(.65476 0 0 .65476 78.16 355.55)">
     <path id="path4013" style="color:#000000;fill:url(#linearGradient12771)" d="m214.19 1074.8 36-22-36-22z"/>
     <path id="path4143" style="opacity:.6;color:#000000;fill:url(#linearGradient12773)" d="m214.19 1030.8v44l36-22-36-22zm0.9375 1.5938 33.312 20.406-33.312 20.406v-40.812z"/>
     <path id="path4188" style="opacity:.3;color:#000000;fill:url(#linearGradient12775)" d="m204.19 1065 20-12.222-20-12.222z"/>
     <path id="path4192" style="opacity:.15;color:#000000;fill:url(#linearGradient12777)" d="m196.19 1061.3 14-8.5556-14-8.5555z"/>
     <path id="path4196" style="opacity:0.07;color:#000000;fill:url(#linearGradient12779)" d="m190.19 1057.7 8-4.8889-8-4.8888z"/>
     <path id="path4200" style="opacity:.2;color:#000000;fill:url(#linearGradient12782)" d="m240.19 1065 20-12.222-20-12.222z"/>
     <path id="path4202" style="opacity:.1;color:#000000;fill:url(#linearGradient12784)" d="m254.19 1061.3 14-8.5556-14-8.5555z"/>
     <path id="path4204" style="opacity:.05;color:#000000;fill:url(#linearGradient12786)" d="m266.19 1057.7 8-4.8889-8-4.8888z"/>
     <path id="path4217" style="opacity:.6;fill:url(#linearGradient12788)" d="m223.25 1050.8c-0.16 0-0.33697 0.016-0.53125 0.031-0.19048 0.011-0.37506 0.024-0.53125 0.062v3.9062h0.5625v-1.4687h0.4375c0.27809 0 0.52905-0.017 0.75-0.062 0.22095-0.046 0.41012-0.1197 0.5625-0.2188 0.15619-0.1028 0.26375-0.2462 0.34375-0.4062 0.0838-0.1638 0.125-0.3652 0.125-0.5938 0-0.419-0.13655-0.7279-0.4375-0.9375-0.29715-0.2133-0.72506-0.3125-1.2812-0.3125zm2.4375 0.031v3.9687h2.375v-0.4687h-1.8125v-3.5h-0.5625zm4.2812 0c-0.13714 0.2857-0.24929 0.5816-0.375 0.875-0.12572 0.2895-0.27673 0.5862-0.40625 0.9062-0.12572 0.32-0.24167 0.6732-0.375 1.0313-0.13333 0.3543-0.28512 0.7372-0.4375 1.1562h0.59375l0.34375-1h1.8125c0.0609 0.1715 0.0991 0.3324 0.15625 0.5 0.0571 0.1638 0.12273 0.3286 0.1875 0.5h0.625c-0.15239-0.419-0.30417-0.8019-0.4375-1.1562-0.13334-0.3581-0.27673-0.7113-0.40625-1.0313-0.12572-0.32-0.24929-0.6167-0.375-0.9062-0.12572-0.2934-0.23786-0.5893-0.375-0.875h-0.53125zm1.7812 0c0.20571 0.3809 0.42387 0.7913 0.65625 1.1875s0.48714 0.7799 0.75 1.1875v1.5937h0.53125v-1.5937c0.25905-0.4038 0.51762-0.7951 0.75-1.1875 0.23238-0.3962 0.45053-0.8066 0.65625-1.1875h-0.625c-0.14857 0.3124-0.32096 0.6449-0.5 0.9687-0.17905 0.32-0.34459 0.6091-0.53125 0.9063-0.19048-0.2972-0.38345-0.5863-0.5625-0.9063-0.17905-0.3238-0.32399-0.6563-0.46875-0.9687h-0.65625zm-9 0.4687c0.12571-0.011 0.29506 0 0.53125 0 0.14857 0 0.30416 0.01 0.4375 0.031 0.13333 0.023 0.24471 0.064 0.34375 0.125 0.10285 0.057 0.16161 0.1197 0.21875 0.2187 0.0609 0.099 0.0937 0.2227 0.0937 0.375 0 0.16-0.005 0.3034-0.0625 0.4063-0.0572 0.1028-0.14334 0.189-0.25 0.25-0.10286 0.057-0.22262 0.098-0.375 0.125-0.15238 0.023-0.34078 0.031-0.53125 0.031h-0.40625v-1.5625zm7.4688 0.1875c0.12952 0.2857 0.2569 0.5627 0.375 0.875 0.1219 0.3086 0.25309 0.6374 0.375 0.9688h-1.5c0.11809-0.3314 0.2569-0.6602 0.375-0.9688 0.1219-0.3123 0.24166-0.5893 0.375-0.875z"/>
     <path id="path4238" style="opacity:.8;fill:#fff" d="m222.75 1051.3v0.4688c0.12571-0.012 0.29506 0 0.53125 0 0.14857 0 0.30416 0.01 0.4375 0.031 0.13333 0.023 0.24471 0.064 0.34375 0.125 0.10285 0.057 0.16161 0.1197 0.21875 0.2188 0.0305 0.05 0.0467 0.1252 0.0625 0.1875 0.0192-0.086 0.0312-0.1733 0.0312-0.2813 0-0.1523-0.0328-0.2759-0.0937-0.375-0.0571-0.099-0.1159-0.1616-0.21875-0.2187-0.099-0.061-0.21042-0.1022-0.34375-0.125-0.13334-0.023-0.28893-0.031-0.4375-0.031-0.23619 0-0.40554-0.011-0.53125 0zm9 0c0.20571 0.381 0.42387 0.7913 0.65625 1.1875s0.48714 0.7799 0.75 1.1875v-0.4687c-0.26286-0.4076-0.51762-0.7913-0.75-1.1875-0.1414-0.2411-0.27498-0.477-0.40625-0.7188h-0.25zm3.0938 0c-0.13127 0.2418-0.26485 0.4777-0.40625 0.7188-0.23238 0.3924-0.49095 0.7837-0.75 1.1875v0.4687c0.25905-0.4038 0.51762-0.7951 0.75-1.1875 0.23238-0.3962 0.45053-0.8065 0.65625-1.1875h-0.25zm-4.625 0.1875c-0.13334 0.2857-0.2531 0.5627-0.375 0.875-0.1181 0.3086-0.25691 0.6374-0.375 0.9688h0.1875c0.066-0.1669 0.1268-0.3414 0.1875-0.5 0.1219-0.3124 0.24166-0.5893 0.375-0.875 0.12952 0.2857 0.2569 0.5626 0.375 0.875 0.0627 0.1586 0.12245 0.3331 0.1875 0.5h0.1875c-0.12191-0.3314-0.2531-0.6602-0.375-0.9688-0.1181-0.3123-0.24548-0.5893-0.375-0.875zm-5.2812 0.875c-0.0208 0.099-0.0519 0.1994-0.0937 0.2813-0.08 0.16-0.18756 0.3034-0.34375 0.4062-0.15238 0.099-0.34155 0.1731-0.5625 0.2188-0.0648 0.013-0.14891 0.023-0.21875 0.031h-0.0312c-0.16019 0.019-0.31492 0.031-0.5 0.031h-0.0312-0.40625v0.4687h0.4375c0.27809 0 0.52905-0.017 0.75-0.062 0.22095-0.046 0.41012-0.1197 0.5625-0.2187 0.15619-0.1029 0.26375-0.2463 0.34375-0.4063 0.0838-0.1638 0.125-0.3651 0.125-0.5937 0-0.059-0.0258-0.1018-0.0312-0.1563zm4.375 1.4375-0.34375 1h-0.40625c-0.0608 0.1596-0.12528 0.2977-0.1875 0.4688h0.59375l0.34375-1h1.8125c0.0609 0.1714 0.0991 0.3324 0.15625 0.5 0.0571 0.1638 0.12273 0.3286 0.1875 0.5h0.625c-0.0622-0.1711-0.1267-0.3092-0.1875-0.4688h-0.4375c-0.0648-0.1714-0.13036-0.3362-0.1875-0.5-0.0572-0.1676-0.0953-0.3285-0.15625-0.5h-0.15625-1.5-0.15625zm-7.125 1v0.4688h0.5625v-0.4688h-0.5625zm3.5 0v0.4688h2.375v-0.4688h-1.8125-0.5625zm7.4688 0v0.4688h0.53125v-0.4688h-0.53125z"/>
    </g>
    <g id="layer5" transform="translate(182.19 996.77)">
     <path id="path3615" style="opacity:.2;fill:url(#radialGradient3619-4)" d="m12 90c-3.324 0-6-2.676-6-6v-2-68-2c0-0.33472 0.04135-0.6507 0.09375-0.96875 0.0487-0.2956 0.09704-0.59692 0.1875-0.875 0.0099-0.03 0.0209-0.063 0.0313-0.094 0.0989-0.2873 0.2349-0.547 0.375-0.812 0.1446-0.2735 0.3156-0.5356 0.5-0.7812 0.1844-0.2457 0.3738-0.4735 0.5937-0.6876 0.44-0.428 0.943-0.8145 1.5-1.0937 0.2786-0.1396 0.5735-0.2469 0.8748-0.3437-0.256 0.1002-0.4865 0.2362-0.7185 0.375-0.00741 0.0044-0.023866-0.0045-0.03125 0-0.031933 0.0193-0.062293 0.04251-0.09375 0.0625-0.1204 0.0767-0.23102 0.16351-0.34375 0.25-0.10617 0.0808-0.21328 0.16111-0.3125 0.25-0.1779 0.1614-0.3474 0.3453-0.5 0.5312-0.1075 0.1303-0.2183 0.2653-0.3124 0.4063-0.0251 0.0383-0.0385 0.0858-0.0626 0.125-0.0647 0.103-0.1302 0.2045-0.1874 0.3124-0.1011 0.1948-0.2057 0.4158-0.2813 0.625-0.008 0.0219-0.0236 0.0406-0.0313 0.0626-0.0318 0.0919-0.0358 0.1868-0.0624 0.2812-0.0304 0.1066-0.0704 0.203-0.0938 0.3125-0.0729 0.3415-0.125 0.6985-0.125 1.0625v2 68 2c0 2.7818 2.2182 5 5 5h2 68 2c2.7818 0 5-2.2182 5-5v-2-68-2c0-0.364-0.052-0.721-0.125-1.0625-0.044-0.2069-0.088-0.3977-0.156-0.5937-0.008-0.022-0.024-0.0407-0.031-0.0626-0.063-0.1737-0.139-0.3674-0.219-0.5312-0.042-0.0828-0.079-0.17-0.125-0.25-0.055-0.0972-0.127-0.1884-0.188-0.2812-0.094-0.141-0.205-0.276-0.312-0.4063-0.143-0.1745-0.303-0.347-0.469-0.5-0.011-0.0102-0.02-0.0211-0.031-0.0313-0.139-0.1255-0.285-0.2344-0.438-0.3437-0.102-0.0731-0.204-0.1534-0.312-0.2187-0.0074-0.0045-0.02384 0.0044-0.03125 0-0.23204-0.13873-0.46255-0.27478-0.71875-0.375 0.30153 0.0968 0.59646 0.20414 0.875 0.34375 0.55709 0.27922 1.0601 0.66569 1.5 1.0938 0.21997 0.21403 0.40937 0.44186 0.59375 0.6875s0.35541 0.50774 0.5 0.78125c0.14012 0.26505 0.27614 0.52473 0.375 0.8125 0.01041 0.03078 0.02133 0.06274 0.03125 0.09375 0.09046 0.27808 0.1388 0.5794 0.1875 0.875 0.053 0.318 0.094 0.634 0.094 0.969v2 68 2c0 3.324-2.676 6-6 6h-72z"/>
     <rect id="rect3171" style="opacity:.1;filter:url(#filter3794-89);stroke:#fff;stroke-linecap:round;stroke-width:.5;fill:url(#linearGradient3275-3)" clip-path="url(#clipPath3613-12)" rx="12" ry="12" height="66" width="66" y="15" x="15"/>
    </g>
   </g>
  </g>
 </g>
</svg>
