<?xml version="1.0" encoding="UTF-8" standalone="no"?>
<!-- Created with Inkscape (http://www.inkscape.org/) -->

<svg
   xmlns:dc="http://purl.org/dc/elements/1.1/"
   xmlns:cc="http://creativecommons.org/ns#"
   xmlns:rdf="http://www.w3.org/1999/02/22-rdf-syntax-ns#"
   xmlns:svg="http://www.w3.org/2000/svg"
   xmlns="http://www.w3.org/2000/svg"
   xmlns:xlink="http://www.w3.org/1999/xlink"
   xmlns:sodipodi="http://sodipodi.sourceforge.net/DTD/sodipodi-0.dtd"
   xmlns:inkscape="http://www.inkscape.org/namespaces/inkscape"
   width="96"
   height="96"
   id="svg2982"
   version="1.1"
   inkscape:version="0.48.1 r9760"
   sodipodi:docname="tvtime.svg">
  <defs
     id="defs2984">
    <filter
       color-interpolation-filters="sRGB"
       inkscape:collect="always"
       id="filter6279">
      <feGaussianBlur
         inkscape:collect="always"
         stdDeviation="0.8"
         id="feGaussianBlur6281" />
    </filter>
    <linearGradient
       inkscape:collect="always"
       xlink:href="#linearGradient3224-4"
       id="linearGradient10902-1"
       gradientUnits="userSpaceOnUse"
       gradientTransform="translate(0,-9.6171873e-6)"
       x1="48"
       y1="1052.3622"
       x2="48"
       y2="902.36218" />
    <linearGradient
       id="linearGradient3224-4">
      <stop
         id="stop3226-1"
         style="stop-color:#e0d8b8;stop-opacity:1"
         offset="0" />
      <stop
         id="stop3228-8"
         style="stop-color:#b6a357;stop-opacity:1"
         offset="1" />
    </linearGradient>
    <clipPath
       id="clipPath3837">
      <path
         d="m 14,108.25 c -3.242433,0 -5.84375,2.7675 -5.84375,6.1875 l 0,66.15625 c 0,3.42 2.601317,6.1875 5.84375,6.1875 l 66.1875,0 c 3.242433,0 5.875,-2.7675 5.875,-6.1875 l 0,-66.15625 c 0,-3.42 -2.632567,-6.1875 -5.875,-6.1875 L 14,108.25 z M 48,118 c 0.604567,0 1.192865,0.015 1.78125,0.0312 0.01409,1.5e-4 0.04842,-1.5e-4 0.0625,0 8.345348,0.0889 12.216194,0.77855 16.875,2.03125 C 78.02046,122.63389 78,127.66183 78,144 c 0,16.15961 0.02953,20.46537 -11.28125,23.9375 -4.658806,1.2527 -8.529652,1.94235 -16.875,2.03125 -0.01408,1.5e-4 -0.0484,-1.5e-4 -0.0625,0 C 49.192865,169.98495 48.604568,170 48,170 c -0.604568,0 -1.192865,-0.015 -1.78125,-0.0312 -0.0141,-1.5e-4 -0.04842,1.5e-4 -0.0625,0 -8.345348,-0.089 -12.216194,-0.77855 -16.875,-2.03125 C 17.97047,164.46542 18,160.15961 18,144 c 0,-16.33817 -0.02046,-21.36606 11.28125,-23.9375 4.658806,-1.2527 8.529652,-1.94235 16.875,-2.03125 0.01408,-1.5e-4 0.04841,1.5e-4 0.0625,0 C 46.807135,118.01505 47.395433,118 48,118 z"
         inkscape:connector-curvature="0"
         id="path3839"
         style="fill:url(#radialGradient3841);fill-opacity:1;stroke:none" />
    </clipPath>
    <filter
       x="-0.168"
       y="-0.19384617"
       width="1.336"
       height="1.3876923"
       color-interpolation-filters="sRGB"
       id="filter3847">
      <feGaussianBlur
         id="feGaussianBlur3849"
         stdDeviation="4.2000001" />
    </filter>
    <linearGradient
       inkscape:collect="always"
       xlink:href="#linearGradient3777-5"
       id="linearGradient7180"
       gradientUnits="userSpaceOnUse"
       gradientTransform="matrix(0.37115326,0,0,0.37245534,103.4962,975.37867)"
       x1="59.236748"
       y1="94.689583"
       x2="59.236748"
       y2="20" />
    <linearGradient
       id="linearGradient3777-5">
      <stop
         id="stop3779-9"
         style="stop-color:#536c5d;stop-opacity:1"
         offset="0" />
      <stop
         id="stop3781-1"
         style="stop-color:#93ac9d;stop-opacity:1"
         offset="1" />
    </linearGradient>
    <linearGradient
       inkscape:collect="always"
       xlink:href="#linearGradient3737-7-7"
       id="linearGradient7182"
       gradientUnits="userSpaceOnUse"
       gradientTransform="matrix(0.54563493,0,0,0.30954289,101.05952,976.66491)"
       x1="48.714283"
       y1="16.321428"
       x2="48.714283"
       y2="77.289909" />
    <linearGradient
       id="linearGradient3737-7-7">
      <stop
         id="stop3739-2"
         style="stop-color:#ffffff;stop-opacity:1"
         offset="0" />
      <stop
         id="stop3741-7-4"
         style="stop-color:#ffffff;stop-opacity:0"
         offset="1" />
    </linearGradient>
    <linearGradient
       inkscape:collect="always"
       xlink:href="#linearGradient3737-7-7"
       id="linearGradient7184"
       gradientUnits="userSpaceOnUse"
       gradientTransform="matrix(0.5952381,0,0,0.5952381,98.67857,970.79075)"
       x1="49.384521"
       y1="81.177032"
       x2="49.384521"
       y2="73.447845" />
    <linearGradient
       id="linearGradient6112">
      <stop
         id="stop6114"
         style="stop-color:#ffffff;stop-opacity:1"
         offset="0" />
      <stop
         id="stop6116"
         style="stop-color:#ffffff;stop-opacity:0"
         offset="1" />
    </linearGradient>
    <linearGradient
       inkscape:collect="always"
       xlink:href="#linearGradient3948"
       id="linearGradient7186"
       gradientUnits="userSpaceOnUse"
       x1="48.17857"
       y1="72.25"
       x2="48.17857"
       y2="79.839813" />
    <linearGradient
       id="linearGradient3948">
      <stop
         id="stop3950"
         style="stop-color:#1b1b1b;stop-opacity:1"
         offset="0" />
      <stop
         id="stop3952"
         style="stop-color:#484848;stop-opacity:1"
         offset="1" />
    </linearGradient>
    <linearGradient
       inkscape:collect="always"
       xlink:href="#linearGradient3948"
       id="linearGradient7188"
       gradientUnits="userSpaceOnUse"
       gradientTransform="translate(1,0)"
       x1="48.17857"
       y1="72.25"
       x2="48.17857"
       y2="79.839813" />
    <linearGradient
       id="linearGradient6123">
      <stop
         id="stop6125"
         style="stop-color:#1b1b1b;stop-opacity:1"
         offset="0" />
      <stop
         id="stop6127"
         style="stop-color:#484848;stop-opacity:1"
         offset="1" />
    </linearGradient>
    <linearGradient
       inkscape:collect="always"
       xlink:href="#linearGradient3948"
       id="linearGradient7190"
       gradientUnits="userSpaceOnUse"
       gradientTransform="translate(2,0)"
       x1="48.17857"
       y1="72.25"
       x2="48.17857"
       y2="79.839813" />
    <linearGradient
       id="linearGradient6130">
      <stop
         id="stop6132"
         style="stop-color:#1b1b1b;stop-opacity:1"
         offset="0" />
      <stop
         id="stop6134"
         style="stop-color:#484848;stop-opacity:1"
         offset="1" />
    </linearGradient>
    <linearGradient
       inkscape:collect="always"
       xlink:href="#linearGradient3948"
       id="linearGradient7192"
       gradientUnits="userSpaceOnUse"
       gradientTransform="translate(-1,0)"
       x1="48.17857"
       y1="72.25"
       x2="48.17857"
       y2="79.839813" />
    <linearGradient
       id="linearGradient6137">
      <stop
         id="stop6139"
         style="stop-color:#1b1b1b;stop-opacity:1"
         offset="0" />
      <stop
         id="stop6141"
         style="stop-color:#484848;stop-opacity:1"
         offset="1" />
    </linearGradient>
    <linearGradient
       inkscape:collect="always"
       xlink:href="#linearGradient3948"
       id="linearGradient7194"
       gradientUnits="userSpaceOnUse"
       gradientTransform="translate(3,0)"
       x1="48.17857"
       y1="72.25"
       x2="48.17857"
       y2="79.839813" />
    <linearGradient
       id="linearGradient6144">
      <stop
         id="stop6146"
         style="stop-color:#1b1b1b;stop-opacity:1"
         offset="0" />
      <stop
         id="stop6148"
         style="stop-color:#484848;stop-opacity:1"
         offset="1" />
    </linearGradient>
    <linearGradient
       inkscape:collect="always"
       xlink:href="#linearGradient3948"
       id="linearGradient7196"
       gradientUnits="userSpaceOnUse"
       gradientTransform="translate(-2,0)"
       x1="48.17857"
       y1="72.25"
       x2="48.17857"
       y2="79.839813" />
    <linearGradient
       id="linearGradient6151">
      <stop
         id="stop6153"
         style="stop-color:#1b1b1b;stop-opacity:1"
         offset="0" />
      <stop
         id="stop6155"
         style="stop-color:#484848;stop-opacity:1"
         offset="1" />
    </linearGradient>
    <linearGradient
       inkscape:collect="always"
       xlink:href="#linearGradient3948"
       id="linearGradient7198"
       gradientUnits="userSpaceOnUse"
       gradientTransform="translate(4,0)"
       x1="48.17857"
       y1="72.25"
       x2="48.17857"
       y2="79.839813" />
    <linearGradient
       id="linearGradient6158">
      <stop
         id="stop6160"
         style="stop-color:#1b1b1b;stop-opacity:1"
         offset="0" />
      <stop
         id="stop6162"
         style="stop-color:#484848;stop-opacity:1"
         offset="1" />
    </linearGradient>
    <linearGradient
       inkscape:collect="always"
       xlink:href="#linearGradient3237-9"
       id="linearGradient7200"
       gradientUnits="userSpaceOnUse"
       gradientTransform="matrix(0.45070096,0,0,0.45070096,100.48841,967.00225)"
       x1="26.360342"
       y1="103.13425"
       x2="26.360342"
       y2="108.67809" />
    <linearGradient
       id="linearGradient3237-9">
      <stop
         id="stop3239-3"
         style="stop-color:#6a3d0d;stop-opacity:1"
         offset="0" />
      <stop
         id="stop3241-1"
         style="stop-color:#efcb73;stop-opacity:1"
         offset="1" />
    </linearGradient>
    <linearGradient
       inkscape:collect="always"
       xlink:href="#linearGradient3237-9"
       id="linearGradient7202"
       gradientUnits="userSpaceOnUse"
       gradientTransform="matrix(0.45070096,0,0,0.45070096,100.48841,967.00225)"
       x1="26.360342"
       y1="112.60857"
       x2="26.360342"
       y2="99.665756" />
    <linearGradient
       id="linearGradient6169">
      <stop
         id="stop6171"
         style="stop-color:#6a3d0d;stop-opacity:1"
         offset="0" />
      <stop
         id="stop6173"
         style="stop-color:#efcb73;stop-opacity:1"
         offset="1" />
    </linearGradient>
    <linearGradient
       inkscape:collect="always"
       xlink:href="#linearGradient3767"
       id="linearGradient7204"
       gradientUnits="userSpaceOnUse"
       gradientTransform="matrix(0,-0.45184479,0.45184479,0,64.411523,1026.7492)"
       x1="21.026215"
       y1="106.13716"
       x2="35.10936"
       y2="106.13716" />
    <linearGradient
       id="linearGradient3767">
      <stop
         id="stop3769-9"
         style="stop-color:#f1be43;stop-opacity:1"
         offset="0" />
      <stop
         id="stop3771"
         style="stop-color:#ebcb8b;stop-opacity:0"
         offset="1" />
    </linearGradient>
    <linearGradient
       inkscape:collect="always"
       xlink:href="#linearGradient3237-9"
       id="linearGradient7206"
       gradientUnits="userSpaceOnUse"
       gradientTransform="matrix(0.45070096,0,0,0.45070096,130.25031,967.00225)"
       x1="26.360342"
       y1="103.13425"
       x2="26.360342"
       y2="108.67809" />
    <linearGradient
       id="linearGradient6180">
      <stop
         id="stop6182"
         style="stop-color:#6a3d0d;stop-opacity:1"
         offset="0" />
      <stop
         id="stop6184"
         style="stop-color:#efcb73;stop-opacity:1"
         offset="1" />
    </linearGradient>
    <linearGradient
       inkscape:collect="always"
       xlink:href="#linearGradient3237-9"
       id="linearGradient7208"
       gradientUnits="userSpaceOnUse"
       gradientTransform="matrix(0.45070096,0,0,0.45070096,130.25031,967.00225)"
       x1="26.360342"
       y1="112.60857"
       x2="26.360342"
       y2="99.665756" />
    <linearGradient
       id="linearGradient6187">
      <stop
         id="stop6189"
         style="stop-color:#6a3d0d;stop-opacity:1"
         offset="0" />
      <stop
         id="stop6191"
         style="stop-color:#efcb73;stop-opacity:1"
         offset="1" />
    </linearGradient>
    <linearGradient
       inkscape:collect="always"
       xlink:href="#linearGradient3767"
       id="linearGradient7210"
       gradientUnits="userSpaceOnUse"
       gradientTransform="matrix(0,-0.45184479,0.45184479,0,94.173423,1026.7492)"
       x1="21.026215"
       y1="106.13716"
       x2="35.10936"
       y2="106.13716" />
    <linearGradient
       id="linearGradient6194">
      <stop
         id="stop6196"
         style="stop-color:#f1be43;stop-opacity:1"
         offset="0" />
      <stop
         id="stop6198"
         style="stop-color:#ebcb8b;stop-opacity:0"
         offset="1" />
    </linearGradient>
  </defs>
  <sodipodi:namedview
     id="base"
     pagecolor="#ffffff"
     bordercolor="#666666"
     borderopacity="1.0"
     inkscape:pageopacity="0.0"
     inkscape:pageshadow="2"
     inkscape:zoom="3.959798"
     inkscape:cx="36.39115"
     inkscape:cy="42.877139"
     inkscape:document-units="px"
     inkscape:current-layer="layer1"
     showgrid="false"
     inkscape:window-width="1280"
     inkscape:window-height="725"
     inkscape:window-x="0"
     inkscape:window-y="25"
     inkscape:window-maximized="1" />
  <metadata
     id="metadata2987">
    <rdf:RDF>
      <cc:Work
         rdf:about="">
        <dc:format>image/svg+xml</dc:format>
        <dc:type
           rdf:resource="http://purl.org/dc/dcmitype/StillImage" />
        <dc:title></dc:title>
      </cc:Work>
    </rdf:RDF>
  </metadata>
  <g
     inkscape:label="Layer 1"
     inkscape:groupmode="layer"
     id="layer1"
     transform="translate(0,-956.36218)">
    <g
       id="g7214">
      <g
         transform="translate(-182.1875,-40.40625)"
         id="g26594" />
      <rect
         y="964.36218"
         x="8"
         height="80"
         width="80"
         id="rect9283"
         style="fill:#000000;fill-opacity:1;stroke:none;filter:url(#filter6279)"
         rx="5"
         ry="5" />
      <rect
         ry="5"
         rx="5"
         style="fill:url(#linearGradient10902-1);fill-opacity:1;stroke:none"
         id="rect9285"
         width="80"
         height="80"
         x="8"
         y="964.36218" />
      <path
         id="rect3789-1-5"
         d="m 19.5625,971.86218 c -2.25063,0 -4.0625,1.81187 -4.0625,4.0625 l 0,56.87502 c 0,2.2506 1.81187,4.0625 4.0625,4.0625 l 56.875,0 c 2.25063,0 4.0625,-1.8119 4.0625,-4.0625 l 0,-56.87502 c 0,-2.25063 -1.81187,-4.0625 -4.0625,-4.0625 l -56.875,0 z m 4.375,5 48.125,0 c 1.90438,0 3.4375,1.53312 3.4375,3.4375 l 0,48.12502 c 0,1.9044 -1.53312,3.4375 -3.4375,3.4375 l -48.125,0 c -1.90437,0 -3.4375,-1.5331 -3.4375,-3.4375 l 0,-48.12502 c 0,-1.90438 1.53313,-3.4375 3.4375,-3.4375 z"
         style="fill:#4d2c15;fill-opacity:1;stroke:none"
         inkscape:connector-curvature="0" />
      <g
         transform="matrix(1.1860409,0,0,1.1860409,-102.29494,-178.24149)"
         id="g7160">
        <path
           d="m 48,118 c -0.604567,0 -1.192865,0.015 -1.78125,0.0312 -0.01409,1.5e-4 -0.04842,-1.5e-4 -0.0625,0 -8.345348,0.0889 -12.216194,0.77855 -16.875,2.03125 C 17.979538,122.63389 18,127.66183 18,144 c 0,16.15961 -0.02953,20.46542 11.28125,23.9375 4.658806,1.2527 8.529652,1.9423 16.875,2.03125 0.01408,1.5e-4 0.0484,-1.5e-4 0.0625,0 C 46.807135,169.98503 47.395432,170 48,170 c 0.604568,0 1.192865,-0.015 1.78125,-0.0312 0.0141,-1.5e-4 0.04842,1.5e-4 0.0625,0 8.345348,-0.0889 12.216194,-0.77855 16.875,-2.03125 C 78.02953,164.46542 78,160.15961 78,144 c 0,-16.33817 0.02046,-21.36611 -11.28125,-23.9375 -4.658806,-1.2527 -8.529652,-1.9423 -16.875,-2.03125 -0.01408,-1.5e-4 -0.04841,1.5e-4 -0.0625,0 C 49.192865,118.01496 48.604567,118 48,118 z"
           inkscape:connector-curvature="0"
           transform="matrix(0.5952381,0,0,0.5952381,98.67857,911.26694)"
           clip-path="url(#clipPath3837)"
           id="path3826"
           style="fill:#ffffff;fill-opacity:1;stroke:none;display:inline;filter:url(#filter3847)" />
        <path
           d="m 127.25,981.50504 c -0.35986,0 -0.71004,0.009 -1.06027,0.0186 -0.008,8e-5 -0.0288,-9e-5 -0.0372,0 -4.96747,0.0529 -7.27155,0.46342 -10.04464,1.20907 -6.72721,1.5306 -6.71503,4.52341 -6.71503,14.24852 0,9.61877 -0.0176,12.18177 6.71503,14.24847 2.77309,0.7457 5.07717,1.1562 10.04464,1.2091 0.008,10e-5 0.0288,-10e-5 0.0372,0 0.35023,0.01 0.70041,0.019 1.06027,0.019 0.35986,0 0.71004,-0.01 1.06027,-0.019 0.008,-10e-5 0.0288,10e-5 0.0372,0 4.96747,-0.053 7.27154,-0.4634 10.04464,-1.2091 6.73261,-2.0667 6.71503,-4.6297 6.71503,-14.24847 0,-9.72511 0.0122,-12.71792 -6.71503,-14.24852 -2.7731,-0.74565 -5.07717,-1.15613 -10.04464,-1.20907 -0.008,-9e-5 -0.0288,8e-5 -0.0372,0 -0.35023,-0.01 -0.70041,-0.0186 -1.06027,-0.0186 z"
           inkscape:connector-curvature="0"
           id="rect3202"
           style="fill:url(#linearGradient7180);fill-opacity:1;stroke:none;display:inline" />
        <path
           d="m 127.25,982.23668 c -0.32987,0 -0.65087,0.005 -0.97191,0.01 -0.008,4e-5 -0.0264,-5e-5 -0.0341,0 -4.55352,0.0275 -6.66559,0.24099 -9.20759,0.62875 -6.16661,0.79596 -6.15545,2.35232 -6.15545,7.40969 0,5.00209 -0.0161,6.33492 6.15545,7.40968 2.542,0.38777 4.65407,0.60123 9.20758,0.62876 0.008,5e-5 0.0264,-5e-5 0.0341,0 0.32104,0.005 0.64203,0.01 0.97191,0.01 0.32987,0 0.65087,-0.005 0.97191,-0.01 0.008,-5e-5 0.0264,5e-5 0.0341,0 4.55352,-0.0275 6.66558,-0.24099 9.20759,-0.62876 6.17156,-1.07476 6.15545,-2.40759 6.15545,-7.40968 0,-5.05737 0.0112,-6.61373 -6.15545,-7.40969 -2.542,-0.38776 -4.65407,-0.60122 -9.20759,-0.62875 -0.008,-5e-5 -0.0264,4e-5 -0.0341,0 -0.32104,-0.005 -0.64204,-0.01 -0.97191,-0.01 z"
           inkscape:connector-curvature="0"
           id="path3902"
           style="opacity:0.8;fill:url(#linearGradient7182);fill-opacity:1;stroke:none;display:inline" />
        <path
           d="m 127.25,981.50504 c -0.35986,0 -0.71004,0.009 -1.06027,0.0186 -0.008,8e-5 -0.0288,-9e-5 -0.0372,0 -4.96747,0.0529 -7.27155,0.46342 -10.04464,1.20907 -6.72721,1.5306 -6.71503,4.52341 -6.71503,14.24852 0,9.61877 -0.0176,12.18177 6.71503,14.24847 2.77309,0.7457 5.07717,1.1562 10.04464,1.2091 0.008,10e-5 0.0288,-10e-5 0.0372,0 0.35023,0.01 0.70041,0.019 1.06027,0.019 0.35986,0 0.71004,-0.01 1.06027,-0.019 0.008,-10e-5 0.0288,10e-5 0.0372,0 4.96747,-0.053 7.27154,-0.4634 10.04464,-1.2091 6.73261,-2.0667 6.71503,-4.6297 6.71503,-14.24847 0,-9.72511 0.0122,-12.71792 -6.71503,-14.24852 -2.7731,-0.74565 -5.07717,-1.15613 -10.04464,-1.20907 -0.008,-9e-5 -0.0288,8e-5 -0.0372,0 -0.35023,-0.01 -0.70041,-0.0186 -1.06027,-0.0186 z m 0,0.63244 c 0.34936,0 0.69239,0.009 1.04167,0.0186 a 0.6367884,0.6367884 0 0 0 0.0186,0 c 0.028,2.9e-4 0.0488,1.2e-4 0.0372,0 4.9345,0.0526 7.13295,0.45257 9.87723,1.19047 a 0.6367884,0.6367884 0 0 0 0.0186,0 c 1.638,0.37268 2.83652,0.83335 3.68304,1.41369 0.84652,0.58035 1.36799,1.27197 1.74851,2.25075 0.76103,1.95756 0.79985,5.10742 0.79985,9.97024 0,4.80977 -0.0412,7.82417 -0.79985,9.72837 -0.75716,1.9006 -2.16814,2.8966 -5.45015,3.9063 -0.006,0 -0.0127,0 -0.0186,0 -2.73602,0.7348 -4.93483,1.138 -9.85863,1.1905 0.0116,-1e-4 -0.009,-3e-4 -0.0372,0 a 0.6367884,0.6367884 0 0 0 -0.0186,0 c -0.34929,0.01 -0.69232,0.019 -1.04167,0.019 -0.34935,0 -0.69238,-0.01 -1.04167,-0.019 a 0.6367884,0.6367884 0 0 0 -0.0186,0 c -0.028,-3e-4 -0.0488,-1e-4 -0.0372,0 -4.9238,-0.053 -7.12261,-0.4557 -9.85863,-1.1905 -0.006,0 -0.0126,0 -0.0186,0 -3.28201,-1.0097 -4.693,-2.0057 -5.45015,-3.9063 -0.75862,-1.9042 -0.79985,-4.9186 -0.79985,-9.72837 0,-4.86282 0.0388,-8.01268 0.79985,-9.97024 0.38051,-0.97878 0.90199,-1.6704 1.74851,-2.25075 0.84652,-0.58034 2.04504,-1.04101 3.68304,-1.41369 a 0.6367884,0.6367884 0 0 0 0.0186,0 c 2.74427,-0.7379 4.94273,-1.13788 9.87723,-1.19047 -0.0116,1.2e-4 0.009,2.9e-4 0.0372,0 a 0.6367884,0.6367884 0 0 0 0.0186,0 c 0.34927,-0.01 0.69231,-0.0186 1.04167,-0.0186 z"
           inkscape:connector-curvature="0"
           id="path3799"
           style="opacity:0.5;fill:#37483e;fill-opacity:1;stroke:none;display:inline" />
        <path
           d="m 111.21577,999.04596 c 0.0337,3.55604 0.17119,5.91944 0.68825,7.21724 0.60948,1.5299 1.56461,2.2581 4.6689,3.218 0.006,0 0.0126,0 0.0186,0 0.0181,0.01 0.0189,0.013 0.0372,0.019 2.66282,0.7135 4.70341,1.0831 9.54241,1.1347 -0.0481,-5e-4 -0.0268,-7e-4 0.0372,0 a 1.8050108,1.8050108 0 0 1 0.0372,0 c 0.34756,0.01 0.6744,0.019 1.00447,0.019 0.33007,0 0.6569,-0.01 1.00446,-0.019 a 1.8050108,1.8050108 0 0 1 0.0372,0 c 0.064,-7e-4 0.0853,-5e-4 0.0372,0 4.839,-0.052 6.87959,-0.4212 9.54241,-1.1347 0.0193,-0.01 0.0365,-0.013 0.0558,-0.019 3.10429,-0.9599 4.05942,-1.6881 4.6689,-3.218 0.51705,-1.2978 0.65451,-3.6612 0.68825,-7.21724 -0.0548,2.92554 -0.22738,4.86994 -0.68825,6.02674 -0.60948,1.5299 -1.56461,2.2582 -4.6689,3.2181 -0.0193,0.01 -0.0365,0.013 -0.0558,0.019 -2.66282,0.7134 -4.70341,1.083 -9.54241,1.1346 0.0481,-5e-4 0.0268,-6e-4 -0.0372,0 a 1.8050108,1.8050108 0 0 0 -0.0372,0 c -0.34756,0.01 -0.67439,0.019 -1.00446,0.019 -0.33007,0 -0.65691,-0.01 -1.00447,-0.019 a 1.8050108,1.8050108 0 0 0 -0.0372,0 c -0.064,-6e-4 -0.0853,-5e-4 -0.0372,0 -4.839,-0.052 -6.87959,-0.4212 -9.54241,-1.1346 -0.0183,-0.01 -0.0191,-0.013 -0.0372,-0.019 -0.006,0 -0.0126,0 -0.0186,0 -3.10429,-0.9599 -4.05942,-1.6882 -4.6689,-3.2181 -0.46087,-1.1568 -0.63347,-3.1012 -0.68825,-6.02674 z"
           inkscape:connector-curvature="0"
           id="path3914"
           style="opacity:0.2;fill:#ffffff;fill-opacity:1;stroke:none;display:inline" />
        <path
           d="m 125.46428,1013.0341 c -0.65498,0 -1.20907,0.554 -1.20907,1.209 l 0,0.5209 c -0.0464,-0.615 -0.54661,-1.1347 -1.17188,-1.1347 -0.65498,0 -1.20908,0.5541 -1.20908,1.2091 l 0,0.5208 c -0.0464,-0.615 -0.5466,-1.1347 -1.17187,-1.1347 -0.65498,0 -1.20908,0.5541 -1.20908,1.2091 l 0,1.1905 c 0,0.655 0.5541,1.2091 1.20908,1.2091 0.62527,0 1.12543,-0.5197 1.17187,-1.1347 l 0,0.5208 c 0,0.655 0.5541,1.2091 1.20908,1.2091 0.62527,0 1.12543,-0.5197 1.17188,-1.1347 l 0,0.5209 c 0,0.6549 0.55409,1.209 1.20907,1.209 0.64013,0 1.16649,-0.5368 1.19048,-1.1718 0.024,0.635 0.55035,1.1718 1.19048,1.1718 0.64012,0 1.16648,-0.5368 1.19047,-1.1718 0.024,0.635 0.55035,1.1718 1.19048,1.1718 0.65498,0 1.20908,-0.5541 1.20908,-1.209 l 0,-0.5209 c 0.0464,0.615 0.5466,1.1347 1.17187,1.1347 0.65498,0 1.20908,-0.5541 1.20908,-1.2091 l 0,-0.5208 c 0.0465,0.615 0.5466,1.1347 1.17187,1.1347 0.65499,0 1.20908,-0.5541 1.20908,-1.2091 l 0,-1.1905 c 0,-0.655 -0.55409,-1.2091 -1.20908,-1.2091 -0.62527,0 -1.12542,0.5197 -1.17187,1.1347 l 0,-0.5208 c 0,-0.655 -0.5541,-1.2091 -1.20908,-1.2091 -0.62527,0 -1.12543,0.5197 -1.17187,1.1347 l 0,-0.5209 c 0,-0.655 -0.5541,-1.209 -1.20908,-1.209 -0.64013,0 -1.16648,0.5367 -1.19048,1.1718 -0.024,-0.6351 -0.55035,-1.1718 -1.19047,-1.1718 -0.64013,0 -1.16648,0.5367 -1.19048,1.1718 -0.024,-0.6351 -0.55035,-1.1718 -1.19048,-1.1718 z"
           id="path4097"
           style="fill:url(#linearGradient7184);fill-opacity:1;stroke:none"
           inkscape:connector-curvature="0" />
        <g
           id="g4026"
           transform="matrix(0.5952381,0,0,0.5952381,98.67857,970.79075)">
          <path
             d="m 45,72 c -0.554,0 -1,0.446 -1,1 l 0,6 c 0,0.554 0.446,1 1,1 0.554,0 1,-0.446 1,-1 l 0,-6 c 0,-0.554 -0.446,-1 -1,-1 z"
             inkscape:connector-curvature="0"
             id="path4010"
             style="fill:url(#linearGradient7186);fill-opacity:1;stroke:none" />
          <path
             d="m 49,72 c -0.554,0 -1,0.446 -1,1 l 0,6 c 0,0.554 0.446,1 1,1 0.554,0 1,-0.446 1,-1 l 0,-6 c 0,-0.554 -0.446,-1 -1,-1 z"
             inkscape:connector-curvature="0"
             id="path4008"
             style="fill:url(#linearGradient7188);fill-opacity:1;stroke:none" />
          <path
             d="m 53,72 c -0.554,0 -1,0.446 -1,1 l 0,6 c 0,0.554 0.446,1 1,1 0.554,0 1,-0.446 1,-1 l 0,-6 c 0,-0.554 -0.446,-1 -1,-1 z"
             inkscape:connector-curvature="0"
             id="path4006"
             style="fill:url(#linearGradient7190);fill-opacity:1;stroke:none" />
          <path
             d="m 41,73 c -0.554,0 -1,0.446 -1,1 l 0,4 c 0,0.554 0.446,1 1,1 0.554,0 1,-0.446 1,-1 l 0,-4 c 0,-0.554 -0.446,-1 -1,-1 z"
             inkscape:connector-curvature="0"
             id="path4004"
             style="fill:url(#linearGradient7192);fill-opacity:1;stroke:none" />
          <path
             d="m 57,73 c -0.554,0 -1,0.446 -1,1 l 0,4 c 0,0.554 0.446,1 1,1 0.554,0 1,-0.446 1,-1 l 0,-4 c 0,-0.554 -0.446,-1 -1,-1 z"
             inkscape:connector-curvature="0"
             id="path4002"
             style="fill:url(#linearGradient7194);fill-opacity:1;stroke:none" />
          <path
             d="m 37,74 c -0.554,0 -1,0.446 -1,1 l 0,2 c 0,0.554 0.446,1 1,1 0.554,0 1,-0.446 1,-1 l 0,-2 c 0,-0.554 -0.446,-1 -1,-1 z"
             inkscape:connector-curvature="0"
             id="path4000"
             style="fill:url(#linearGradient7196);fill-opacity:1;stroke:none" />
          <path
             d="m 61,74 c -0.554,0 -1,0.446 -1,1 l 0,2 c 0,0.554 0.446,1 1,1 0.554,0 1,-0.446 1,-1 l 0,-2 c 0,-0.554 -0.446,-1 -1,-1 z"
             inkscape:connector-curvature="0"
             id="rect3933"
             style="fill:url(#linearGradient7198);fill-opacity:1;stroke:none" />
        </g>
        <path
           inkscape:connector-curvature="0"
           style="fill:url(#linearGradient7200);fill-opacity:1;stroke:url(#linearGradient7202);stroke-width:1.78571439;stroke-linecap:square;stroke-miterlimit:4;stroke-opacity:1;stroke-dasharray:none"
           id="path3235"
           d="m 114.45237,1014.8384 a 2.0833334,2.0833334 0 1 1 -4.16666,0 2.0833334,2.0833334 0 1 1 4.16666,0 z" />
        <path
           inkscape:connector-curvature="0"
           style="fill:none;stroke:url(#linearGradient7204);stroke-width:0.59523809;stroke-linecap:square;stroke-miterlimit:4;stroke-opacity:1;stroke-dasharray:none"
           id="path2993"
           d="m 112.36905,1012.7498 a 2.0886206,2.0886206 0 1 1 0,4.1772 2.0886206,2.0886206 0 1 1 0,-4.1772 z" />
        <path
           inkscape:connector-curvature="0"
           style="fill:url(#linearGradient7206);fill-opacity:1;stroke:url(#linearGradient7208);stroke-width:1.78571439;stroke-linecap:square;stroke-miterlimit:4;stroke-opacity:1;stroke-dasharray:none"
           id="path3797"
           d="m 144.21427,1014.8384 a 2.0833334,2.0833334 0 1 1 -4.16666,0 2.0833334,2.0833334 0 1 1 4.16666,0 z" />
        <path
           inkscape:connector-curvature="0"
           style="fill:none;stroke:url(#linearGradient7210);stroke-width:0.59523809;stroke-linecap:square;stroke-miterlimit:4;stroke-opacity:1;stroke-dasharray:none"
           id="path3800"
           d="m 142.13095,1012.7498 a 2.0886206,2.0886206 0 1 1 0,4.1772 2.0886206,2.0886206 0 1 1 0,-4.1772 z" />
      </g>
    </g>
  </g>
</svg>
