<?xml version="1.0" encoding="UTF-8" standalone="no"?>
<!-- Created with Inkscape (http://www.inkscape.org/) -->
<svg id="svg2982" xmlns:rdf="http://www.w3.org/1999/02/22-rdf-syntax-ns#" xmlns="http://www.w3.org/2000/svg" height="96" width="96" version="1.1" xmlns:cc="http://creativecommons.org/ns#" xmlns:xlink="http://www.w3.org/1999/xlink" xmlns:dc="http://purl.org/dc/elements/1.1/">
 <defs id="defs2984">
  <filter id="filter6279-2" color-interpolation-filters="sRGB">
   <feGaussianBlur id="feGaussianBlur6281-1" stdDeviation="0.8"/>
  </filter>
  <linearGradient id="linearGradient5979" y2="902.36" gradientUnits="userSpaceOnUse" x2="48" gradientTransform="translate(0 -.0000078516)" y1="1052.4" x1="48">
   <stop id="stop3720" style="stop-color:#269ebf" offset="0"/>
   <stop id="stop3722-1" style="stop-color:#67c7e1" offset="1"/>
  </linearGradient>
  <linearGradient id="linearGradient6779" y2="47.277" xlink:href="#linearGradient3760" gradientUnits="userSpaceOnUse" x2="130.71" gradientTransform="matrix(.83333 0 0 .83333 190.09 1005.3)" y1="47.277" x1="15"/>
  <linearGradient id="linearGradient3760" x1="49.768" gradientUnits="userSpaceOnUse" y1="59.788" gradientTransform="translate(1,-1)" x2="49.768" y2="28.565">
   <stop id="stop3756-7" style="stop-color:#6bd9f7" offset="0"/>
   <stop id="stop3758-8" style="stop-color:#a5e8fa" offset="1"/>
  </linearGradient>
  <linearGradient id="linearGradient6775" y2="28.565" xlink:href="#linearGradient3760" gradientUnits="userSpaceOnUse" x2="49.768" gradientTransform="matrix(.83333 0 0 .83333 190.92 1004.5)" y1="59.788" x1="49.768"/>
  <linearGradient id="linearGradient6772" y2="32" gradientUnits="userSpaceOnUse" x2="41" gradientTransform="matrix(.83333 0 0 .83333 190.92 1004.5)" y1="29" x1="41">
   <stop id="stop3776-0" style="stop-color:#fff" offset="0"/>
   <stop id="stop3778" style="stop-color:#fff;stop-opacity:0" offset="1"/>
  </linearGradient>
  <radialGradient id="radialGradient6769" gradientUnits="userSpaceOnUse" cy="32.415" cx="51.012" gradientTransform="matrix(.83333 0 0 .20684 190.92 1028.6)" r="5.9877">
   <stop id="stop3739-76" style="stop-color:#fff" offset="0"/>
   <stop id="stop3741-09" style="stop-color:#fff;stop-opacity:0" offset="1"/>
  </radialGradient>
 </defs>
 <metadata id="metadata2987">
  <rdf:RDF>
   <cc:Work rdf:about="">
    <dc:format>image/svg+xml</dc:format>
    <dc:type rdf:resource="http://purl.org/dc/dcmitype/StillImage"/>
    <dc:title/>
   </cc:Work>
  </rdf:RDF>
 </metadata>
 <g id="layer1" transform="translate(0 -956.36)">
  <g id="g5839" transform="translate(-182.19 -40.406)">
   <rect id="rect9283" ry="5" style="filter:url(#filter6279-2)" rx="5" transform="translate(182.19 40.406)" height="80" width="80" y="964.36" x="8"/>
   <rect id="rect9285" style="fill:url(#linearGradient5979)" transform="translate(182.19 40.406)" rx="5" ry="5" height="80" width="80" y="964.36" x="8"/>
   <g id="g6781">
    <path id="path3620" d="m230.09 1019.5c-15.187 0-27.5 10.073-27.5 22.5 0 7.9153 4.9998 14.869 12.552 18.88-0.28718 2.0907-1.595 7.2081-7.7865 8.9583 8.0191 0.8715 13.345-3.0386 16.172-5.9896 2.1042 0.4217 4.3017 0.6517 6.5633 0.6517 15.187 0 27.5-10.073 27.5-22.5s-12.312-22.5-27.5-22.5z" style="opacity:.6;fill:url(#linearGradient6779)"/>
    <path id="path3812" style="fill:#fff" d="m225.09 1025.3c-3.204 0-5.8333 2.6294-5.8333 5.8334v16.667c0 5.0428 4.1238 9.1666 9.1666 9.1666h8.3333c3.204 0 5.8333-2.6293 5.8333-5.8333s-2.6293-5.8333-5.8333-5.8333h-5.8333v-1.6667h5.8333c3.204 0 5.8333-2.6293 5.8333-5.8333s-2.6293-5.8333-5.8333-5.8333h-5.8333v-0.8333c0-3.204-2.6293-5.8334-5.8333-5.8334z"/>
    <path id="rect3734" style="fill:url(#linearGradient6775)" d="m225.09 1027.8c-1.8467 0-3.3333 1.4867-3.3333 3.3334v16.667c0 3.6819 2.9847 6.6666 6.6666 6.6666h8.3333c1.8467 0 3.3333-1.4866 3.3333-3.3333s-1.4867-3.3333-3.3333-3.3333h-8.3333v-6.6667h8.3333c1.8467 0 3.3333-1.4866 3.3333-3.3333s-1.4867-3.3333-3.3333-3.3333h-8.3333v-3.3333c0-1.8467-1.4867-3.3334-3.3333-3.3334z"/>
    <path id="path3772" style="opacity:.5;fill:url(#linearGradient6772)" d="m227.59 1031.2a2.5 2.5 0 0 1 -5 0 2.5 2.5 0 1 1 5 0z"/>
    <rect id="rect3784" style="opacity:.5;fill:url(#radialGradient6769)" rx="1.6667" ry="1.6667" height="2.4769" width="9.9791" y="1035.4" x="228.44"/>
   </g>
  </g>
 </g>
</svg>
