<?xml version="1.0" encoding="UTF-8" standalone="no"?>
<!-- Created with Inkscape (http://www.inkscape.org/) -->

<svg
   xmlns:dc="http://purl.org/dc/elements/1.1/"
   xmlns:cc="http://creativecommons.org/ns#"
   xmlns:rdf="http://www.w3.org/1999/02/22-rdf-syntax-ns#"
   xmlns:svg="http://www.w3.org/2000/svg"
   xmlns="http://www.w3.org/2000/svg"
   xmlns:xlink="http://www.w3.org/1999/xlink"
   xmlns:sodipodi="http://sodipodi.sourceforge.net/DTD/sodipodi-0.dtd"
   xmlns:inkscape="http://www.inkscape.org/namespaces/inkscape"
   width="96"
   height="96"
   id="svg2982"
   version="1.1"
   inkscape:version="0.48.1 r9760"
   sodipodi:docname="ubuntu-tweak.svg">
  <defs
     id="defs2984">
    <filter
       color-interpolation-filters="sRGB"
       inkscape:collect="always"
       id="filter6279">
      <feGaussianBlur
         inkscape:collect="always"
         stdDeviation="0.8"
         id="feGaussianBlur6281" />
    </filter>
    <linearGradient
       inkscape:collect="always"
       xlink:href="#linearGradient3676"
       id="linearGradient10902-1"
       gradientUnits="userSpaceOnUse"
       gradientTransform="translate(0,-9.6171873e-6)"
       x1="48"
       y1="1052.3622"
       x2="48"
       y2="902.36218" />
    <linearGradient
       id="linearGradient3676">
      <stop
         id="stop3678-5"
         style="stop-color:#68d003;stop-opacity:1"
         offset="0" />
      <stop
         id="stop3680"
         style="stop-color:#c0f988;stop-opacity:1"
         offset="1" />
    </linearGradient>
    <linearGradient
       inkscape:collect="always"
       xlink:href="#linearGradient3737-51"
       id="linearGradient6106"
       gradientUnits="userSpaceOnUse"
       x1="48"
       y1="20.220806"
       x2="48"
       y2="138.66119" />
    <linearGradient
       id="linearGradient3737-51">
      <stop
         id="stop3739-61"
         style="stop-color:#ffffff;stop-opacity:1"
         offset="0" />
      <stop
         id="stop3741-37"
         style="stop-color:#ffffff;stop-opacity:0"
         offset="1" />
    </linearGradient>
    <clipPath
       id="clipPath3613-7">
      <rect
         width="84"
         height="84"
         rx="6"
         ry="6"
         x="6"
         y="6"
         id="rect3615-12"
         style="fill:#ffffff;fill-opacity:1;fill-rule:nonzero;stroke:none" />
    </clipPath>
    <filter
       x="-0.192"
       y="-0.192"
       width="1.3839999"
       height="1.3839999"
       color-interpolation-filters="sRGB"
       id="filter3794-10">
      <feGaussianBlur
         id="feGaussianBlur3796-8"
         stdDeviation="5.28" />
    </filter>
    <linearGradient
       inkscape:collect="always"
       xlink:href="#linearGradient3703-4"
       id="linearGradient3197"
       gradientUnits="userSpaceOnUse"
       gradientTransform="matrix(0,-0.78014184,0.78014184,0,2.8031915,93.416667)"
       x1="12.75"
       y1="48"
       x2="83.25"
       y2="48" />
    <linearGradient
       id="linearGradient3703-4">
      <stop
         id="stop3705-8"
         style="stop-color:#a8e66c;stop-opacity:1"
         offset="0" />
      <stop
         id="stop3707-7"
         style="stop-color:#dbfabd;stop-opacity:1"
         offset="1" />
    </linearGradient>
    <radialGradient
       inkscape:collect="always"
       xlink:href="#linearGradient3767-0"
       id="radialGradient3194"
       gradientUnits="userSpaceOnUse"
       cx="48"
       cy="48"
       fx="48"
       fy="48"
       r="35.25"
       gradientTransform="matrix(0.78014184,0,0,0.78014184,2.8031915,18.52305)" />
    <linearGradient
       id="linearGradient3767-0">
      <stop
         id="stop3769-8"
         style="stop-color:#6bd107;stop-opacity:1"
         offset="0" />
      <stop
         id="stop3771-6"
         style="stop-color:#6bd107;stop-opacity:0"
         offset="1" />
    </linearGradient>
  </defs>
  <sodipodi:namedview
     id="base"
     pagecolor="#ffffff"
     bordercolor="#666666"
     borderopacity="1.0"
     inkscape:pageopacity="0.0"
     inkscape:pageshadow="2"
     inkscape:zoom="3.959798"
     inkscape:cx="36.666776"
     inkscape:cy="42.877139"
     inkscape:document-units="px"
     inkscape:current-layer="layer1"
     showgrid="false"
     inkscape:window-width="1280"
     inkscape:window-height="725"
     inkscape:window-x="0"
     inkscape:window-y="25"
     inkscape:window-maximized="1" />
  <metadata
     id="metadata2987">
    <rdf:RDF>
      <cc:Work
         rdf:about="">
        <dc:format>image/svg+xml</dc:format>
        <dc:type
           rdf:resource="http://purl.org/dc/dcmitype/StillImage" />
        <dc:title></dc:title>
      </cc:Work>
    </rdf:RDF>
  </metadata>
  <g
     inkscape:label="Layer 1"
     inkscape:groupmode="layer"
     id="layer1"
     transform="translate(0,-956.36218)">
    <g
       id="g6195">
      <g
         transform="translate(-182.1875,-40.40625)"
         id="g26594" />
      <rect
         y="964.36218"
         x="8"
         height="80"
         width="80"
         id="rect9283"
         style="fill:#000000;fill-opacity:1;stroke:none;filter:url(#filter6279)"
         rx="5"
         ry="5" />
      <rect
         ry="5"
         rx="5"
         style="fill:url(#linearGradient10902-1);fill-opacity:1;stroke:none"
         id="rect9285"
         width="80"
         height="80"
         x="8"
         y="964.36218" />
      <rect
         transform="translate(0,956.36218)"
         style="opacity:0.1;fill:url(#linearGradient6106);fill-opacity:1;fill-rule:nonzero;stroke:#ffffff;stroke-width:0.5;stroke-linecap:round;stroke-linejoin:miter;stroke-miterlimit:4;stroke-opacity:1;stroke-dasharray:none;stroke-dashoffset:0;filter:url(#filter3794-10)"
         id="rect3171"
         clip-path="url(#clipPath3613-7)"
         y="15"
         x="15"
         ry="12"
         rx="12"
         height="66"
         width="66" />
      <g
         id="g3211"
         transform="translate(7.75,947.61218)">
        <path
           style="opacity:0.3;color:#000000;fill:#000000;fill-opacity:1;fill-rule:nonzero;stroke:none;stroke-width:1;marker:none;visibility:visible;display:inline;overflow:visible;enable-background:accumulate"
           id="path3738"
           inkscape:connector-curvature="0"
           d="m 34.496454,29.25 c -3.494209,0.728107 -6.743993,2.127775 -9.629876,4.022607 0.08411,2.102817 -0.664051,4.223447 -2.267287,5.826684 -1.603237,1.603237 -3.723868,2.351395 -5.826685,2.267287 -1.894832,2.885884 -3.294499,6.135668 -4.022606,9.629876 1.558847,1.426391 2.535461,3.474061 2.535461,5.753546 0,2.279485 -0.976614,4.327155 -2.535461,5.753546 0.728107,3.494209 2.127774,6.743993 4.022606,9.629876 2.102817,-0.08411 4.223448,0.664051 5.826685,2.267287 1.603236,1.603237 2.351395,3.723868 2.267287,5.826685 2.885883,1.894832 6.135667,3.294499 9.629876,4.022606 1.426391,-1.558847 3.474061,-2.535461 5.753546,-2.535461 2.279485,0 4.327155,0.976614 5.753546,2.535461 3.482903,-0.725751 6.726565,-2.112864 9.605496,-3.998227 -0.0049,-0.112613 0,-0.22872 0,-0.341312 0,-1.996557 0.768346,-3.98643 2.291667,-5.509752 1.603237,-1.603236 3.723867,-2.351395 5.826684,-2.267287 1.894832,-2.885883 3.2945,-6.135667 4.022607,-9.629876 -1.558848,-1.426391 -2.535461,-3.474061 -2.535461,-5.753546 0,-2.279485 0.976613,-4.327155 2.535461,-5.753546 -0.728107,-3.494208 -2.127775,-6.743992 -4.022607,-9.629876 -2.102817,0.08411 -4.223447,-0.66405 -5.826684,-2.267287 -1.523321,-1.523321 -2.291667,-3.513195 -2.291667,-5.509752 0,-0.112591 -0.0049,-0.228699 0,-0.341312 C 52.730111,31.362865 49.486449,29.975751 46.003546,29.25 44.577155,30.808848 42.529485,31.785461 40.25,31.785461 c -2.279485,0 -4.327155,-0.976613 -5.753546,-2.535461 z M 40.25,50.508865 c 3.446883,0 6.241135,2.794252 6.241135,6.241135 0,3.446884 -2.794252,6.241135 -6.241135,6.241135 -3.446884,0 -6.241135,-2.794251 -6.241135,-6.241135 0,-3.446883 2.794251,-6.241135 6.241135,-6.241135 z" />
        <path
           style="color:#000000;fill:url(#linearGradient3197);fill-opacity:1;fill-rule:nonzero;stroke:none;stroke-width:1;marker:none;visibility:visible;display:inline;overflow:visible;enable-background:accumulate"
           id="path3683"
           inkscape:connector-curvature="0"
           d="m 34.496454,28.469858 c -3.494209,0.728108 -6.743993,2.127775 -9.629876,4.022607 0.08411,2.102817 -0.664051,4.223447 -2.267287,5.826684 -1.603237,1.603237 -3.723868,2.351395 -5.826685,2.267287 -1.894832,2.885884 -3.294499,6.135668 -4.022606,9.629876 1.558847,1.426391 2.535461,3.474062 2.535461,5.753546 0,2.279485 -0.976614,4.327155 -2.535461,5.753546 0.728107,3.494209 2.127774,6.743993 4.022606,9.629876 2.102817,-0.08411 4.223448,0.664051 5.826685,2.267287 1.603236,1.603237 2.351395,3.723868 2.267287,5.826685 2.885883,1.894832 6.135667,3.294499 9.629876,4.022606 1.426391,-1.558847 3.474061,-2.535461 5.753546,-2.535461 2.279485,0 4.327155,0.976614 5.753546,2.535461 3.482903,-0.725751 6.726565,-2.112864 9.605496,-3.998227 -0.0049,-0.112612 0,-0.22872 0,-0.341312 0,-1.996557 0.768346,-3.98643 2.291667,-5.509752 1.603237,-1.603236 3.723867,-2.351395 5.826684,-2.267287 1.894832,-2.885883 3.2945,-6.135667 4.022607,-9.629876 -1.558848,-1.426391 -2.535461,-3.474061 -2.535461,-5.753546 0,-2.279484 0.976613,-4.327155 2.535461,-5.753546 -0.728107,-3.494208 -2.127775,-6.743992 -4.022607,-9.629876 -2.102817,0.08411 -4.223447,-0.66405 -5.826684,-2.267287 -1.523321,-1.523321 -2.291667,-3.513195 -2.291667,-5.509752 0,-0.112591 -0.0049,-0.228699 0,-0.341312 -2.878931,-1.885362 -6.122593,-3.272475 -9.605496,-3.998227 -1.426391,1.558848 -3.474061,2.535461 -5.753546,2.535461 -2.279485,0 -4.327155,-0.976613 -5.753546,-2.535461 z M 40.25,49.728724 c 3.446883,0 6.241135,2.794251 6.241135,6.241134 0,3.446884 -2.794252,6.241135 -6.241135,6.241135 -3.446884,0 -6.241135,-2.794251 -6.241135,-6.241135 0,-3.446883 2.794251,-6.241134 6.241135,-6.241134 z" />
        <path
           style="color:#000000;fill:url(#radialGradient3194);fill-opacity:1;fill-rule:nonzero;stroke:none;stroke-width:1;marker:none;visibility:visible;display:inline;overflow:visible;enable-background:accumulate"
           id="path3765"
           inkscape:connector-curvature="0"
           d="m 34.496454,28.469858 c -3.494209,0.728108 -6.743993,2.127775 -9.629876,4.022607 0.08411,2.102817 -0.664051,4.223447 -2.267287,5.826684 -1.603237,1.603237 -3.723868,2.351395 -5.826685,2.267287 -1.894832,2.885884 -3.294499,6.135668 -4.022606,9.629876 1.558847,1.426391 2.535461,3.474062 2.535461,5.753546 0,2.279485 -0.976614,4.327155 -2.535461,5.753546 0.728107,3.494209 2.127774,6.743993 4.022606,9.629876 2.102817,-0.08411 4.223448,0.664051 5.826685,2.267287 1.603236,1.603237 2.351395,3.723868 2.267287,5.826685 2.885883,1.894832 6.135667,3.294499 9.629876,4.022606 1.426391,-1.558847 3.474061,-2.535461 5.753546,-2.535461 2.279485,0 4.327155,0.976614 5.753546,2.535461 3.482903,-0.725751 6.726565,-2.112864 9.605496,-3.998227 -0.0049,-0.112612 0,-0.22872 0,-0.341312 0,-1.996557 0.768346,-3.98643 2.291667,-5.509752 1.603237,-1.603236 3.723867,-2.351395 5.826684,-2.267287 1.894832,-2.885883 3.2945,-6.135667 4.022607,-9.629876 -1.558848,-1.426391 -2.535461,-3.474061 -2.535461,-5.753546 0,-2.279484 0.976613,-4.327155 2.535461,-5.753546 -0.728107,-3.494208 -2.127775,-6.743992 -4.022607,-9.629876 -2.102817,0.08411 -4.223447,-0.66405 -5.826684,-2.267287 -1.523321,-1.523321 -2.291667,-3.513195 -2.291667,-5.509752 0,-0.112591 -0.0049,-0.228699 0,-0.341312 -2.878931,-1.885362 -6.122593,-3.272475 -9.605496,-3.998227 -1.426391,1.558848 -3.474061,2.535461 -5.753546,2.535461 -2.279485,0 -4.327155,-0.976613 -5.753546,-2.535461 z M 40.25,49.728724 c 3.446883,0 6.241135,2.794251 6.241135,6.241134 0,3.446884 -2.794252,6.241135 -6.241135,6.241135 -3.446884,0 -6.241135,-2.794251 -6.241135,-6.241135 0,-3.446883 2.794251,-6.241134 6.241135,-6.241134 z" />
        <path
           style="fill:#000000;overflow:visible"
           id="path3324"
           inkscape:connector-curvature="0"
           d="m 48.202209,38.125817 c -2.047937,0 -3.706212,1.667329 -3.706212,3.722772 0,2.055443 1.658275,3.722773 3.706212,3.722773 2.047938,0 3.706213,-1.66733 3.706213,-3.722773 0,-2.055443 -1.658275,-3.722772 -3.706213,-3.722772 z m -7.827106,2.915738 c -2.285634,2.98e-4 -4.602955,0.579731 -6.686733,1.614069 -0.0741,0.03692 -0.120315,0.10244 -0.142547,0.182234 -0.02252,0.07979 -0.01794,0.164034 0.02592,0.2343 l 3.006437,4.777125 c 0.07617,0.121476 0.230943,0.172827 0.362847,0.117149 1.112731,-0.472507 2.267398,-0.7029 3.434078,-0.7029 4.291456,0 8.035448,3.194247 8.708303,7.432528 0.02252,0.142319 0.141926,0.247319 0.285093,0.247319 l 5.650032,0 c 0.0824,0 0.164869,-0.02978 0.220298,-0.09112 0.05543,-0.06133 0.08546,-0.138512 0.07776,-0.221284 -0.304712,-3.144694 -1.643146,-6.189423 -3.758048,-8.551964 -0.09544,-0.107185 -0.255165,-0.117354 -0.375806,-0.03905 -0.852777,0.553195 -1.820343,0.846085 -2.799096,0.846085 -2.85534,0 -5.170259,-2.330111 -5.170556,-5.180642 2.97e-4,-0.0015 0,-0.09937 0,-0.104133 0,-0.14202 -0.106013,-0.274969 -0.246216,-0.299384 -0.892794,-0.155419 -1.759433,-0.260334 -2.591757,-0.260334 z m -9.07115,3.124004 c -0.03912,0.0096 -0.08447,0.02691 -0.116628,0.05206 -2.450736,1.895988 -4.288646,4.562441 -5.183515,7.51063 -0.03497,0.115225 -0.0038,0.237372 0.09071,0.312401 1.231593,0.979852 1.969736,2.488134 1.969736,4.035173 0,1.54704 -0.737846,3.055322 -1.969736,4.035173 -0.09396,0.07474 -0.125688,0.196879 -0.09071,0.312401 0.887755,2.923477 2.711178,5.57976 5.13168,7.471579 0.06491,0.05091 0.139082,0.07938 0.220299,0.06508 0.08092,-0.01399 0.150216,-0.07381 0.194382,-0.143182 l 3.032355,-4.764109 c 0.07736,-0.121774 0.05636,-0.281911 -0.05184,-0.377484 -1.899707,-1.678937 -2.993481,-4.086266 -2.993481,-6.599461 0,-2.531953 1.099831,-4.945961 3.019398,-6.625493 0.108191,-0.09498 0.141563,-0.255116 0.06479,-0.377485 l -3.006437,-4.77712 c -0.04387,-0.06968 -0.113461,-0.115876 -0.194382,-0.130168 -0.04046,-0.0072 -0.0775,-0.0096 -0.116628,0 z m -8.358415,8.174481 c -2.095903,0 -3.796925,1.710103 -3.796925,3.81389 0,2.103786 1.701022,3.800872 3.796925,3.800872 2.0959,0 3.796924,-1.697086 3.796924,-3.800872 0,-2.103787 -1.701024,-3.81389 -3.796924,-3.81389 z m 32.072993,4.920307 -5.650031,0.01302 c -0.142573,2.98e-4 -0.275228,0.106189 -0.298052,0.247316 -0.682044,4.206723 -4.415745,7.380464 -8.695345,7.380464 -1.180314,0 -2.347773,-0.244815 -3.472954,-0.728935 -0.131608,-0.05627 -0.285483,-0.01645 -0.362845,0.104133 l -3.032356,4.777124 c -0.04416,0.06997 -0.04785,0.15421 -0.02593,0.2343 0.02192,0.0798 0.06874,0.145315 0.142546,0.182235 2.100081,1.056072 4.439513,1.614069 6.751528,1.614069 0.85752,0 1.752791,-0.08624 2.656551,-0.247317 0.126865,-0.02233 0.218142,-0.118994 0.233258,-0.247317 0.301155,-2.612639 2.500807,-4.581874 5.118721,-4.581874 0.811577,0 1.646859,0.205755 2.397374,0.598767 0.114119,0.05984 0.246523,0.04053 0.336929,-0.05207 2.366852,-2.42447 3.863108,-5.620962 4.198646,-8.981515 0.0083,-0.08247 -0.02203,-0.159652 -0.07775,-0.221284 -0.05573,-0.06163 -0.137897,-0.09141 -0.220299,-0.09112 z m -6.673775,10.061902 c -2.095902,0 -3.796924,1.694922 -3.796924,3.787856 0,2.092934 1.701022,3.787857 3.796924,3.787857 2.095903,0 3.796924,-1.694923 3.796924,-3.787857 0,-2.092934 -1.701021,-3.787856 -3.796924,-3.787856 z" />
        <path
           style="opacity:0.4;color:#000000;fill:#ffffff;fill-opacity:1;fill-rule:nonzero;stroke:none;stroke-width:1;marker:none;visibility:visible;display:inline;overflow:visible;enable-background:accumulate"
           id="path3711"
           inkscape:connector-curvature="0"
           d="m 34.496454,28.469858 c -3.494209,0.728108 -6.743993,2.127775 -9.629876,4.022607 0.08411,2.102817 -0.664051,4.223447 -2.267287,5.826684 -1.603237,1.603237 -3.723868,2.351395 -5.826685,2.267287 -1.894832,2.885884 -3.294499,6.135668 -4.022606,9.629876 1.558847,1.426391 2.535461,3.474062 2.535461,5.753546 0,2.279485 -0.976614,4.327155 -2.535461,5.753546 0.728107,3.494209 2.127774,6.743993 4.022606,9.629876 2.102817,-0.08411 4.223448,0.664051 5.826685,2.267287 1.603236,1.603237 2.351395,3.723868 2.267287,5.826685 2.885883,1.894832 6.135667,3.294499 9.629876,4.022606 1.426391,-1.558847 3.474061,-2.535461 5.753546,-2.535461 2.279485,0 4.327155,0.976614 5.753546,2.535461 3.482903,-0.725751 6.726565,-2.112864 9.605496,-3.998227 -0.0049,-0.112612 0,-0.22872 0,-0.341312 0,-1.996557 0.768346,-3.98643 2.291667,-5.509752 1.603237,-1.603236 3.723867,-2.351395 5.826684,-2.267287 1.894832,-2.885883 3.2945,-6.135667 4.022607,-9.629876 -1.558848,-1.426391 -2.535461,-3.474061 -2.535461,-5.753546 0,-2.279484 0.976613,-4.327155 2.535461,-5.753546 -0.728107,-3.494208 -2.127775,-6.743992 -4.022607,-9.629876 -2.102817,0.08411 -4.223447,-0.66405 -5.826684,-2.267287 -1.523321,-1.523321 -2.291667,-3.513195 -2.291667,-5.509752 0,-0.112591 -0.0049,-0.228699 0,-0.341312 -2.878931,-1.885362 -6.122593,-3.272475 -9.605496,-3.998227 -1.426391,1.558848 -3.474061,2.535461 -5.753546,2.535461 -2.279485,0 -4.327155,-0.976613 -5.753546,-2.535461 z m -0.121897,0.902039 c 1.543435,1.464374 3.583618,2.437944 5.875443,2.437944 2.291825,0 4.332008,-0.97357 5.875443,-2.437944 3.136643,0.692331 6.071104,1.934809 8.703457,3.608156 0.04325,2.146545 0.853898,4.291398 2.486703,5.924203 1.6214,1.6214 3.748575,2.334815 5.875443,2.389184 1.703571,2.656348 2.956496,5.629065 3.656915,8.800975 -1.464373,1.543435 -2.437944,3.583618 -2.437944,5.875443 0,2.291825 0.973571,4.332009 2.437944,5.875444 -0.700419,3.17191 -1.953344,6.144627 -3.656915,8.800975 -2.126868,0.05437 -4.254043,0.767784 -5.875443,2.389184 -1.632805,1.632805 -2.443454,3.777657 -2.486703,5.924202 -2.632353,1.673347 -5.566814,2.915826 -8.703457,3.608156 -1.543435,-1.464373 -3.583618,-2.437943 -5.875443,-2.437943 -2.291825,0 -4.332008,0.97357 -5.875443,2.437943 -3.17191,-0.700418 -6.144628,-1.953343 -8.800976,-3.656915 -0.05437,-2.126868 -0.767784,-4.254043 -2.389184,-5.875443 -1.6214,-1.6214 -3.748575,-2.334815 -5.875443,-2.389184 -1.703572,-2.656348 -2.956497,-5.629065 -3.656915,-8.800975 1.464373,-1.543435 2.437943,-3.583619 2.437943,-5.875444 0,-2.291825 -0.97357,-4.332008 -2.437943,-5.875443 0.700418,-3.17191 1.953343,-6.144627 3.656915,-8.800975 2.126868,-0.05437 4.254043,-0.767784 5.875443,-2.389184 1.6214,-1.6214 2.334816,-3.748576 2.389184,-5.875444 2.656348,-1.703571 5.629066,-2.956496 8.800976,-3.656915 z M 40.25,48.948582 c -3.877744,0 -7.021277,3.143532 -7.021277,7.021276 0,3.877744 3.143533,7.021277 7.021277,7.021277 3.877744,0 7.021276,-3.143533 7.021276,-7.021277 0,-3.877744 -3.143532,-7.021276 -7.021276,-7.021276 z m 0,0.780142 c 3.446883,0 6.241135,2.794251 6.241135,6.241134 0,3.446884 -2.794252,6.241135 -6.241135,6.241135 -3.446884,0 -6.241135,-2.794251 -6.241135,-6.241135 0,-3.446883 2.794251,-6.241134 6.241135,-6.241134 z" />
      </g>
    </g>
  </g>
</svg>
