<?xml version="1.0" encoding="UTF-8" standalone="no"?>
<!-- Created with Inkscape (http://www.inkscape.org/) -->

<svg
   xmlns:dc="http://purl.org/dc/elements/1.1/"
   xmlns:cc="http://creativecommons.org/ns#"
   xmlns:rdf="http://www.w3.org/1999/02/22-rdf-syntax-ns#"
   xmlns:svg="http://www.w3.org/2000/svg"
   xmlns="http://www.w3.org/2000/svg"
   xmlns:xlink="http://www.w3.org/1999/xlink"
   xmlns:sodipodi="http://sodipodi.sourceforge.net/DTD/sodipodi-0.dtd"
   xmlns:inkscape="http://www.inkscape.org/namespaces/inkscape"
   width="96"
   height="96"
   id="svg2982"
   version="1.1"
   inkscape:version="0.48.1 r9760"
   sodipodi:docname="templat-ikon-96x96.svg">
  <defs
     id="defs2984">
    <filter
       color-interpolation-filters="sRGB"
       inkscape:collect="always"
       id="filter6279-2">
      <feGaussianBlur
         inkscape:collect="always"
         stdDeviation="0.8"
         id="feGaussianBlur6281-1" />
    </filter>
    <linearGradient
       inkscape:collect="always"
       xlink:href="#linearGradient3578-995-735-4-566-885-385-488-812-692-100-298-982-943"
       id="linearGradient9181"
       gradientUnits="userSpaceOnUse"
       gradientTransform="translate(0,-7.8515622e-6)"
       x1="48"
       y1="1052.3622"
       x2="48"
       y2="902.36218" />
    <linearGradient
       id="linearGradient3578-995-735-4-566-885-385-488-812-692-100-298-982-943">
      <stop
         id="stop4639"
         style="stop-color:#115984;stop-opacity:1"
         offset="0" />
      <stop
         id="stop4641"
         style="stop-color:#5498c5;stop-opacity:1"
         offset="1" />
    </linearGradient>
  </defs>
  <sodipodi:namedview
     id="base"
     pagecolor="#ffffff"
     bordercolor="#666666"
     borderopacity="1.0"
     inkscape:pageopacity="0.0"
     inkscape:pageshadow="2"
     inkscape:zoom="3.959798"
     inkscape:cx="36.39115"
     inkscape:cy="42.877139"
     inkscape:document-units="px"
     inkscape:current-layer="layer1"
     showgrid="false"
     inkscape:window-width="1280"
     inkscape:window-height="725"
     inkscape:window-x="0"
     inkscape:window-y="25"
     inkscape:window-maximized="1" />
  <metadata
     id="metadata2987">
    <rdf:RDF>
      <cc:Work
         rdf:about="">
        <dc:format>image/svg+xml</dc:format>
        <dc:type
           rdf:resource="http://purl.org/dc/dcmitype/StillImage" />
        <dc:title></dc:title>
      </cc:Work>
    </rdf:RDF>
  </metadata>
  <g
     inkscape:label="Layer 1"
     inkscape:groupmode="layer"
     id="layer1"
     transform="translate(0,-956.36218)">
    <g
       id="g6028">
      <rect
         transform="translate(0,-7.8515622e-6)"
         y="964.36218"
         x="8"
         height="80"
         width="80"
         id="rect9283"
         style="fill:#000000;fill-opacity:1;stroke:none;filter:url(#filter6279-2)"
         rx="5"
         ry="5" />
      <rect
         ry="5"
         rx="5"
         style="fill:url(#linearGradient9181);fill-opacity:1;stroke:none"
         id="rect9285"
         width="80"
         height="80"
         x="8"
         y="964.36218" />
      <path
         inkscape:connector-curvature="0"
         id="path1334"
         style="fill:#ffffff"
         d="m 62.999639,1008.534 c 0,-1.5306 -1.138765,-2.842 -2.754334,-3.4304 v -3.8218 c 0,-1.36642 -0.854547,-2.65292 -1.882097,-3.57971 -0.01096,-0.01 -0.01196,-0.0275 -0.02296,-0.0373 v -0.0186 c -1.7e-5,-3e-5 -0.04588,-0.0559 -0.04591,-0.0559 -1.97e-4,-2.2e-4 -0.03955,-0.0503 -0.04591,-0.0559 -0.0064,-0.005 -0.01903,0.003 -0.02295,0 -0.0039,-0.003 0.0039,-0.0155 0,-0.0186 -0.01548,-0.0129 -0.04639,-0.0201 -0.06886,-0.0373 -0.0075,-0.006 -0.01513,-0.0126 -0.02296,-0.0186 -0.02466,-0.0175 -7.618668,-5.7647 -7.712228,-5.83529 -0.364504,-0.37637 -0.628735,-0.89451 -0.642685,-1.36096 v -3.33716 c 2.301154,-0.62313 3.97091,-2.37306 3.97091,-4.41847 0,-2.56777 -2.612774,-4.64149 -5.830226,-4.64149 -3.218294,0 -5.830037,2.074 -5.830037,4.64215 3e-6,2.04578 1.668444,3.79541 3.97091,4.41846 v 3.29985 c 0,-0.006 4.3e-4,0.0288 0,0.0373 -4.3e-4,0.009 -0.0028,-0.004 0,0.0373 v 5.76076 c -0.01488,0.46587 -0.274525,0.94574 -0.642685,1.32364 -0.04652,0.0352 -1.914721,1.46044 -3.833193,2.90852 -0.971048,0.7329 -1.954845,1.4621 -2.685522,2.0134 -0.36531,0.2757 -0.657777,0.5094 -0.872208,0.6712 -0.107225,0.081 -0.194388,0.1427 -0.252484,0.1865 -0.02904,0.022 -0.05362,0.026 -0.06886,0.037 -0.0076,0.011 -0.01557,0.027 -0.02295,0.037 -0.02102,0.016 -0.0545,0.025 -0.06886,0.037 -0.0043,0 0.0044,0.015 0,0.018 -0.0044,0 -0.01592,-0.011 -0.02295,0 -0.007,0.011 -0.04571,0.075 -0.04591,0.075 -2.5e-5,10e-5 -0.0459,0.037 -0.04591,0.037 v 0.018 l -0.02295,0.018 c -0.0041,0 0.004,0.015 0,0.018 -0.0093,0.018 -0.02295,0.037 -0.02295,0.037 -1.012016,0.9251 -1.859222,2.1903 -1.859222,3.5423 v 3.5049 H 33 v 7.4386 h 8.922335 v -7.4386 h -2.610336 v -3.561 c 0.01341,-0.466 0.272471,-0.943 0.642684,-1.3236 l 6.105471,-4.6235 v 20.6004 h -4.027065 l 5.967098,8.7251 5.968411,-8.725 h -4.189812 v -26.36128 l 6.105471,4.60496 c 0.36575,0.37782 0.629146,0.89422 0.642684,1.36092 0,1.6072 -2.2e-4,2.8587 0,3.8406 -1.653631,0.5772 -2.823239,1.8971 -2.823239,3.449 0,2.0813 2.096968,3.7845 4.659493,3.7845 2.563087,0 4.636805,-1.7034 4.636805,-3.7846 z" />
    </g>
  </g>
</svg>
