<?xml version="1.0" encoding="UTF-8" standalone="no"?>
<!-- Created with Inkscape (http://www.inkscape.org/) -->

<svg
   xmlns:dc="http://purl.org/dc/elements/1.1/"
   xmlns:cc="http://creativecommons.org/ns#"
   xmlns:rdf="http://www.w3.org/1999/02/22-rdf-syntax-ns#"
   xmlns:svg="http://www.w3.org/2000/svg"
   xmlns="http://www.w3.org/2000/svg"
   xmlns:xlink="http://www.w3.org/1999/xlink"
   xmlns:sodipodi="http://sodipodi.sourceforge.net/DTD/sodipodi-0.dtd"
   xmlns:inkscape="http://www.inkscape.org/namespaces/inkscape"
   width="96"
   height="96"
   id="svg2982"
   version="1.1"
   inkscape:version="0.48.1 r9760"
   sodipodi:docname="vim.svg">
  <defs
     id="defs2984">
    <filter
       color-interpolation-filters="sRGB"
       inkscape:collect="always"
       id="filter6221">
      <feGaussianBlur
         inkscape:collect="always"
         stdDeviation="1.2"
         id="feGaussianBlur6223" />
    </filter>
    <linearGradient
       inkscape:collect="always"
       xlink:href="#linearGradient3844"
       id="linearGradient5395"
       gradientUnits="userSpaceOnUse"
       gradientTransform="matrix(0.95238095,0,0,0.95238095,2.2857041,958.6479)"
       x1="48"
       y1="90"
       x2="47.998997"
       y2="-59.097267" />
    <linearGradient
       id="linearGradient3844">
      <stop
         id="stop3846"
         style="stop-color:#0b700b;stop-opacity:1"
         offset="0" />
      <stop
         id="stop3848"
         style="stop-color:#28a528;stop-opacity:1"
         offset="1" />
    </linearGradient>
    <linearGradient
       inkscape:collect="always"
       xlink:href="#linearGradient3867"
       id="linearGradient5391"
       gradientUnits="userSpaceOnUse"
       gradientTransform="matrix(0.6691375,0,0,0.6691375,698.89938,676.3937)"
       x1="102.04063"
       y1="22.844667"
       x2="16.970562"
       y2="-62.225395" />
    <linearGradient
       id="linearGradient3867">
      <stop
         id="stop3869-5"
         style="stop-color:#000000;stop-opacity:1"
         offset="0" />
      <stop
         id="stop3871"
         style="stop-color:#000000;stop-opacity:0"
         offset="1" />
    </linearGradient>
    <linearGradient
       inkscape:collect="always"
       xlink:href="#linearGradient854"
       id="linearGradient20810"
       gradientUnits="userSpaceOnUse"
       gradientTransform="matrix(1.6002994,0,0,1.6186737,-277.35346,57.0029)"
       x1="279.12204"
       y1="547.95782"
       x2="275.03989"
       y2="543.9057" />
    <linearGradient
       id="linearGradient854">
      <stop
         id="stop855"
         style="stop-color:#000000;stop-opacity:1"
         offset="0" />
      <stop
         id="stop877"
         style="stop-color:#f5f5f5;stop-opacity:1"
         offset="0.87778628" />
      <stop
         id="stop856"
         style="stop-color:#ffffff;stop-opacity:1"
         offset="1" />
    </linearGradient>
    <linearGradient
       inkscape:collect="always"
       xlink:href="#linearGradient854"
       id="linearGradient20812"
       gradientUnits="userSpaceOnUse"
       gradientTransform="matrix(0.58266718,0,0,4.4456981,-277.35346,57.0029)"
       x1="737.87024"
       y1="197.2177"
       x2="723.66583"
       y2="197.2661" />
    <linearGradient
       id="linearGradient5396">
      <stop
         id="stop5398"
         style="stop-color:#000000;stop-opacity:1"
         offset="0" />
      <stop
         id="stop5400"
         style="stop-color:#f5f5f5;stop-opacity:1"
         offset="0.87778628" />
      <stop
         id="stop5402"
         style="stop-color:#ffffff;stop-opacity:1"
         offset="1" />
    </linearGradient>
    <linearGradient
       inkscape:collect="always"
       xlink:href="#linearGradient854"
       id="linearGradient20814"
       gradientUnits="userSpaceOnUse"
       gradientTransform="matrix(1.7367898,0,0,1.4914657,-277.35346,57.0029)"
       x1="247.91669"
       y1="577.09601"
       x2="247.84926"
       y2="571.18286" />
    <linearGradient
       id="linearGradient5405">
      <stop
         id="stop5407"
         style="stop-color:#000000;stop-opacity:1"
         offset="0" />
      <stop
         id="stop5409"
         style="stop-color:#f5f5f5;stop-opacity:1"
         offset="0.87778628" />
      <stop
         id="stop5411"
         style="stop-color:#ffffff;stop-opacity:1"
         offset="1" />
    </linearGradient>
    <linearGradient
       inkscape:collect="always"
       xlink:href="#linearGradient854"
       id="linearGradient20816"
       gradientUnits="userSpaceOnUse"
       gradientTransform="matrix(1.4043897,0,0,1.8444751,-433.84431,93.8207)"
       x1="432.77563"
       y1="444.33771"
       x2="431.5174"
       y2="448.10916" />
    <linearGradient
       id="linearGradient5414">
      <stop
         id="stop5416"
         style="stop-color:#000000;stop-opacity:1"
         offset="0" />
      <stop
         id="stop5418"
         style="stop-color:#f5f5f5;stop-opacity:1"
         offset="0.87778628" />
      <stop
         id="stop5420"
         style="stop-color:#ffffff;stop-opacity:1"
         offset="1" />
    </linearGradient>
    <linearGradient
       inkscape:collect="always"
       xlink:href="#linearGradient854"
       id="linearGradient20818"
       gradientUnits="userSpaceOnUse"
       gradientTransform="matrix(2.3159568,0,0,1.1184848,-277.35346,57.0029)"
       x1="196.80382"
       y1="764.65295"
       x2="192.15778"
       y2="763.52991" />
    <linearGradient
       id="linearGradient5423">
      <stop
         id="stop5425"
         style="stop-color:#000000;stop-opacity:1"
         offset="0" />
      <stop
         id="stop5427"
         style="stop-color:#f5f5f5;stop-opacity:1"
         offset="0.87778628" />
      <stop
         id="stop5429"
         style="stop-color:#ffffff;stop-opacity:1"
         offset="1" />
    </linearGradient>
    <linearGradient
       inkscape:collect="always"
       xlink:href="#linearGradient854"
       id="linearGradient20820"
       gradientUnits="userSpaceOnUse"
       gradientTransform="matrix(2.1044799,0,0,1.23088,-277.35346,57.0029)"
       x1="195.59776"
       y1="696.40906"
       x2="193.063"
       y2="694.71436" />
    <linearGradient
       id="linearGradient5432">
      <stop
         id="stop5434"
         style="stop-color:#000000;stop-opacity:1"
         offset="0" />
      <stop
         id="stop5436"
         style="stop-color:#f5f5f5;stop-opacity:1"
         offset="0.87778628" />
      <stop
         id="stop5438"
         style="stop-color:#ffffff;stop-opacity:1"
         offset="1" />
    </linearGradient>
    <linearGradient
       inkscape:collect="always"
       xlink:href="#linearGradient854"
       id="linearGradient20822"
       gradientUnits="userSpaceOnUse"
       gradientTransform="matrix(0.80571178,0,0,3.2149984,-277.35346,57.0029)"
       x1="508.58997"
       y1="267.27991"
       x2="508.45602"
       y2="269.14072" />
    <linearGradient
       id="linearGradient5441">
      <stop
         id="stop5443"
         style="stop-color:#000000;stop-opacity:1"
         offset="0" />
      <stop
         id="stop5445"
         style="stop-color:#f5f5f5;stop-opacity:1"
         offset="0.87778628" />
      <stop
         id="stop5447"
         style="stop-color:#ffffff;stop-opacity:1"
         offset="1" />
    </linearGradient>
    <linearGradient
       inkscape:collect="always"
       xlink:href="#linearGradient3909"
       id="linearGradient20824"
       gradientUnits="userSpaceOnUse"
       gradientTransform="translate(110.75,891.61218)"
       x1="48"
       y1="80"
       x2="48"
       y2="15.501938" />
    <linearGradient
       id="linearGradient3909">
      <stop
         id="stop3911"
         style="stop-color:#c6c3c6;stop-opacity:1"
         offset="0" />
      <stop
         id="stop3913"
         style="stop-color:#eae9ea;stop-opacity:1"
         offset="1" />
    </linearGradient>
    <linearGradient
       inkscape:collect="always"
       xlink:href="#linearGradient3909"
       id="linearGradient20826"
       gradientUnits="userSpaceOnUse"
       gradientTransform="translate(110.75,891.61218)"
       x1="48"
       y1="80"
       x2="48"
       y2="15.501938" />
    <linearGradient
       id="linearGradient5454">
      <stop
         id="stop5456"
         style="stop-color:#c6c3c6;stop-opacity:1"
         offset="0" />
      <stop
         id="stop5458"
         style="stop-color:#eae9ea;stop-opacity:1"
         offset="1" />
    </linearGradient>
    <linearGradient
       inkscape:collect="always"
       xlink:href="#linearGradient3909"
       id="linearGradient20828"
       gradientUnits="userSpaceOnUse"
       gradientTransform="matrix(1.7078361,0,0,1.7078361,-495.13334,70.85889)"
       x1="387.5567"
       y1="527.42371"
       x2="387.5567"
       y2="513.37085" />
    <linearGradient
       id="linearGradient5461">
      <stop
         id="stop5463"
         style="stop-color:#c6c3c6;stop-opacity:1"
         offset="0" />
      <stop
         id="stop5465"
         style="stop-color:#eae9ea;stop-opacity:1"
         offset="1" />
    </linearGradient>
  </defs>
  <sodipodi:namedview
     id="base"
     pagecolor="#ffffff"
     bordercolor="#666666"
     borderopacity="1.0"
     inkscape:pageopacity="0.0"
     inkscape:pageshadow="2"
     inkscape:zoom="3.959798"
     inkscape:cx="36.39115"
     inkscape:cy="42.877139"
     inkscape:document-units="px"
     inkscape:current-layer="layer1"
     showgrid="false"
     inkscape:window-width="1280"
     inkscape:window-height="725"
     inkscape:window-x="0"
     inkscape:window-y="25"
     inkscape:window-maximized="1" />
  <metadata
     id="metadata2987">
    <rdf:RDF>
      <cc:Work
         rdf:about="">
        <dc:format>image/svg+xml</dc:format>
        <dc:type
           rdf:resource="http://purl.org/dc/dcmitype/StillImage" />
        <dc:title></dc:title>
      </cc:Work>
    </rdf:RDF>
  </metadata>
  <g
     inkscape:label="Layer 1"
     inkscape:groupmode="layer"
     id="layer1"
     transform="translate(0,-956.36218)">
    <g
       id="g5398">
      <g
         style="display:inline"
         id="layer5"
         transform="translate(126.5,968.36218)" />
      <rect
         transform="translate(-1.7480468e-7,-5.2343748e-6)"
         y="964.54077"
         x="8"
         height="80"
         width="80"
         id="rect10662"
         style="fill:#000000;fill-opacity:1;stroke:none;filter:url(#filter6221)"
         rx="5"
         ry="5" />
      <rect
         width="80"
         height="80"
         rx="5"
         ry="5"
         x="8"
         y="964.36218"
         id="rect2419"
         style="fill:url(#linearGradient5395);fill-opacity:1;fill-rule:nonzero;stroke:none" />
      <rect
         style="opacity:0.4;fill:url(#linearGradient5391);fill-opacity:1;fill-rule:evenodd;stroke:none"
         id="rect20604"
         transform="matrix(0.70710678,0.70710678,-0.70710678,0.70710678,0,0)"
         y="657.46765"
         x="725.39587"
         height="37.852123"
         width="37.852142" />
      <g
         transform="matrix(0.6691358,0,0,0.6691358,112.60404,448.47083)"
         id="g20803">
        <path
           d="m -96.5,790.11218 -40,40 40,40 40,-40 -40,-40 z m 0,2.90625 37.0625,37.09375 -37.0625,37.0625 -37.09375,-37.0625 L -96.5,793.01843 z"
           inkscape:connector-curvature="0"
           id="path20596"
           style="opacity:0.05;fill:#000000;fill-opacity:1;fill-rule:evenodd;stroke:none" />
        <path
           d="m -96.5,790.11218 -40,40 40,40 40,-40 -40,-40 z m 0,1.9375 38.03125,38.0625 L -96.5,868.14343 -134.5625,830.11218 -96.5,792.04968 z"
           inkscape:connector-curvature="0"
           id="path20598"
           style="opacity:0.1;fill:#000000;fill-opacity:1;fill-rule:evenodd;stroke:none" />
        <path
           d="m -136,830.61218 -0.5,0.5 40,40 40,-40 -0.5,-0.5 -39.5,39.5 -39.5,-39.5 z"
           inkscape:connector-curvature="0"
           id="path20606"
           style="opacity:0.2;fill:#ffffff;fill-rule:evenodd;stroke:#000000;stroke-width:0" />
        <path
           d="m -96.5,790.11218 -40,40 40,40 40,-40 -40,-40 z m 0,1 38.96875,39 -38.96875,38.96875 -39,-38.96875 39,-39 z"
           inkscape:connector-curvature="0"
           id="path20608"
           style="opacity:0.15;fill:#000000;fill-opacity:1;fill-rule:evenodd;stroke:none" />
        <path
           d="m -96.5,790.11218 -40,40 0.5,0.5 39.5,-39.5 39.5,39.5 0.5,-0.5 -40,-40 z"
           inkscape:connector-curvature="0"
           id="path20610"
           style="opacity:0.2;fill:#000000;fill-opacity:1;fill-rule:evenodd;stroke:none" />
      </g>
      <g
         transform="matrix(0.72673595,0,0,0.72673595,-68.437089,321.17994)"
         id="g20745">
        <path
           inkscape:connector-curvature="0"
           d="m 169.49963,908.61218 c -1.02416,0.0123 -1.85209,0.32621 -2.42878,0.91474 -0.57669,0.58853 -0.89357,1.44899 -0.88319,2.52341 l 0.0315,2.64958 -0.0315,0 c 0.0823,1.18264 0.64499,1.88104 1.4825,2.33416 0.84535,0.45736 1.99201,0.65458 3.12272,0.69393 a 0.29977509,0.29977509 0 0 1 0.28388,0.34697 0.29977509,0.29977509 0 0 1 -0.0631,0.15772 l -19.39872,19.241 a 0.29977509,0.29977509 0 0 1 -0.53622,-0.2208 l 0,-19.6826 a 0.29977509,0.29977509 0 0 1 0.0631,-0.15771 0.29977509,0.29977509 0 0 1 0.15771,-0.12617 0.29977509,0.29977509 0 0 1 0.0946,0 c 0.82891,0.0286 1.52206,-0.21114 2.01873,-0.6624 0.49667,-0.45126 0.8412,-1.12973 0.88319,-2.11335 l -0.0315,0 -0.0315,-2.68113 0.0315,0 c -0.0579,-1.25164 -0.37851,-1.95437 -0.94628,-2.39724 -0.56777,-0.44287 -1.46606,-0.65302 -2.80729,-0.69394 l 0,0.0316 -21.13356,0.12617 0,-0.0316 c -1.06838,0.091 -1.91244,0.34618 -2.49187,0.82011 -0.57993,0.47434 -0.9648,1.20475 -1.10399,2.42879 l 0.0315,0 -0.0315,1.82947 -0.0315,0 c 0.0626,1.25663 0.32984,2.17106 0.85165,2.77575 0.52181,0.60469 1.3228,0.9502 2.61804,1.00936 l 1.10399,0.0316 a 0.29977509,0.29977509 0 0 1 0.31543,0.28388 l 0.0631,51.50912 -0.0316,0 c 0.11477,0.92539 0.44491,1.65673 0.97782,2.17644 0.53918,0.52582 1.309,0.83504 2.3657,0.85165 l 4.92065,0 0,0.0315 c 0.89687,-0.0782 1.76914,-0.77998 2.52341,-1.54559 l 51.69838,-53.2755 c 0.87886,-0.89757 1.46202,-1.59021 1.38787,-2.80729 a 0.29977509,0.29977509 0 0 1 -0.0315,-0.0315 l 0,-3.05963 c 0.008,-1.41829 -0.14091,-2.24491 -0.53623,-2.68113 -0.39531,-0.43621 -1.11734,-0.59503 -2.49186,-0.59931 l -21.98522,0 z"
           id="path20624"
           style="opacity:0.3;fill:#000000;fill-rule:evenodd;stroke:none" />
        <path
           inkscape:connector-curvature="0"
           d="m 169.49963,907.61218 c -1.02416,0.0123 -1.85209,0.32621 -2.42878,0.91474 -0.57669,0.58853 -0.89357,1.44899 -0.88319,2.52341 l 0.0315,2.64958 -0.0315,0 c 0.0823,1.18264 0.64499,1.88104 1.4825,2.33416 0.84535,0.45736 1.99201,0.65458 3.12272,0.69393 a 0.29977509,0.29977509 0 0 1 0.28388,0.34697 0.29977509,0.29977509 0 0 1 -0.0631,0.15772 l -19.39872,19.241 a 0.29977509,0.29977509 0 0 1 -0.53622,-0.2208 l 0,-19.6826 a 0.29977509,0.29977509 0 0 1 0.0631,-0.15771 0.29977509,0.29977509 0 0 1 0.15771,-0.12617 0.29977509,0.29977509 0 0 1 0.0946,0 c 0.82891,0.0286 1.52206,-0.21114 2.01873,-0.6624 0.49667,-0.45126 0.8412,-1.12973 0.88319,-2.11335 l -0.0315,0 -0.0315,-2.68113 0.0315,0 c -0.0579,-1.25164 -0.37851,-1.95437 -0.94628,-2.39724 -0.56777,-0.44287 -1.46606,-0.65302 -2.80729,-0.69394 l 0,0.0316 -21.13356,0.12617 0,-0.0316 c -1.06838,0.091 -1.91244,0.34618 -2.49187,0.82011 -0.57993,0.47434 -0.9648,1.20475 -1.10399,2.42879 l 0.0315,0 -0.0315,1.82947 -0.0315,0 c 0.0626,1.25663 0.32984,2.17106 0.85165,2.77575 0.52181,0.60469 1.3228,0.9502 2.61804,1.00936 l 1.10399,0.0316 a 0.29977509,0.29977509 0 0 1 0.31543,0.28388 l 0.0631,51.50912 -0.0316,0 c 0.11477,0.92539 0.44491,1.65673 0.97782,2.17644 0.53918,0.52582 1.309,0.83504 2.3657,0.85165 l 4.92065,0 0,0.0315 c 0.89687,-0.0782 1.76914,-0.77998 2.52341,-1.54559 l 51.69838,-53.2755 c 0.87886,-0.89757 1.46202,-1.59021 1.38787,-2.80729 a 0.29977509,0.29977509 0 0 1 -0.0315,-0.0315 l 0,-3.05963 c 0.008,-1.41829 -0.14091,-2.24491 -0.53623,-2.68113 -0.39531,-0.43621 -1.11734,-0.59503 -2.49186,-0.59931 l -21.98522,0 z"
           id="path20626"
           style="fill:#ffffff;fill-rule:evenodd;stroke:none" />
        <path
           d="m 193.4149,907.89279 -61.8856,62.31247 c 0.59875,0.72017 1.22148,1.33457 2.47336,1.35424 l 4.90513,0.0501 c 1.03121,-0.0748 1.92638,-0.81355 2.70283,-1.60167 l 51.45391,-53.05561 c 0.88794,-0.90682 1.53161,-1.68869 1.45153,-3.00314 l 0,-3.05319 c 0.01,-1.69745 -0.36554,-2.51367 -1.10116,-3.00316 z"
           inkscape:connector-curvature="0"
           id="path20628"
           style="fill:url(#linearGradient20810);fill-opacity:0.75;fill-rule:evenodd;stroke-width:0.375" />
        <path
           d="m 147.42744,944.31677 3.7388,-7.38679 -0.10235,-20.68643 -3.73305,-1.19059 0.0966,29.26381 z"
           inkscape:connector-curvature="0"
           id="path20630"
           style="fill:url(#linearGradient20812);fill-opacity:0.75;fill-rule:evenodd;stroke-width:0.375" />
        <path
           d="m 153.36335,908.37342 -8.33636,5.89883 6.24009,2.09628 0.0488,0 c 1.69742,0.038 2.93696,-0.96977 3.02253,-2.97379 l 0,-2.63253 c -0.0549,-1.18551 -0.4092,-1.89058 -0.97501,-2.38879 z"
           inkscape:connector-curvature="0"
           id="path20632"
           style="fill:url(#linearGradient20814);fill-opacity:0.75;fill-rule:evenodd;stroke-width:0.25" />
        <path
           d="m 178.93073,910.75563 -1.76034,1.1065 1.30768,0.50296 0.45266,-1.60946 z m -0.45266,1.60946 -5.63311,3.4201 c -0.43813,-0.0315 -0.92306,-0.17905 -1.40828,-0.25147 l -0.35207,0.25147 c 0.41798,0.0618 0.78132,0.23666 1.2071,0.25148 l -4.27513,4.22484 7.04139,4.82838 3.4201,-12.7248 z"
           inkscape:connector-curvature="0"
           id="path20634"
           style="fill:url(#linearGradient20816);fill-opacity:0.75;fill-rule:evenodd;stroke-width:0.125" />
        <path
           d="m 172.16225,911.60842 -5.83159,2.61447 c 0.42247,1.955 2.40727,2.42079 5.04308,2.56237 l 5.6762,-3.45256 -4.88769,-1.72428 z"
           inkscape:connector-curvature="0"
           id="path20636"
           style="fill:url(#linearGradient20818);fill-opacity:0.75;fill-rule:evenodd;stroke-width:0.375" />
        <path
           d="m 131.62147,911.73942 -5.6268,2.51207 c 0.42247,1.955 1.58812,2.52318 4.63351,2.51118 l 5.47141,-5.91004 -4.47812,0.88679 z"
           inkscape:connector-curvature="0"
           id="path20638"
           style="fill:url(#linearGradient20820);fill-opacity:0.75;fill-rule:evenodd;stroke-width:0.375" />
        <path
           d="m 134.00336,912.66379 -3.45596,4.17362 0.18034,4.06104 c -0.0393,0.55961 0.85573,7.7177 1.68628,4.89031 0.83055,-2.8274 1.02212,-13.43585 1.58934,-13.12497 z"
           inkscape:connector-curvature="0"
           id="path20640"
           style="fill:url(#linearGradient20822);fill-opacity:0.75;fill-rule:evenodd;stroke-width:0.125" />
        <path
           d="m 137.16489,970.18379 c 0.59537,-0.0525 1.40083,-0.78796 2.10125,-1.57592 l 51.14353,-51.9947 c 0.56033,-0.61287 1.17054,-1.32412 1.15303,-1.93699 l -0.10236,-4.15981 c 0,-0.54282 -0.41891,-0.93471 -1.10182,-0.89969 l -20.79969,-0.0486 c -0.89302,-0.0351 -1.681,0.50778 -1.57593,1.47085 l 0,2.17698 c 0.0351,1.31612 1.04946,1.50589 1.76739,1.47085 l 2.53482,0.003 c 0.6654,0.28018 0.91855,0.66939 0.95358,1.47488 -0.0822,1.65832 -0.11717,1.6298 -1.70151,3.2316 l -23.88735,24.55692 -0.10236,-28.7514 2.75564,0 c 0.5078,-0.0525 1.16785,-0.62236 1.25541,-1.25274 l 0,-3.23025 c -0.0175,-0.61284 -0.40275,-1.06809 -1.15567,-1.05058 l -21.57567,0 c -0.78796,-0.0351 -1.31326,0.6654 -1.26074,1.47085 l -0.0512,2.39244 c -0.003,0.80548 0.57651,1.44404 1.31194,1.51407 l 3.39987,0 -0.0525,54.08795 c -0.0525,0.56034 0.0525,0.858 0.47278,1.05062 l 4.51767,-10e-6 z"
           inkscape:connector-curvature="0"
           id="path20642"
           style="fill:url(#linearGradient20824);fill-opacity:1;fill-rule:evenodd;stroke-width:0.25" />
        <path
           d="m 137.16489,970.18379 c 0.59537,-0.0525 1.40083,-0.78796 2.10125,-1.57592 l 51.14353,-51.9947 c 0.56033,-0.61287 1.17054,-1.32412 1.15303,-1.93699 l -0.10236,-4.15981 c 0,-0.54282 -0.41891,-0.93471 -1.10182,-0.89969 l -20.79969,-0.0486 c -0.89302,-0.0351 -1.681,0.50778 -1.57593,1.47085 l 0,2.17698 c 0.0351,1.31612 1.04946,1.50589 1.76739,1.47085 l 2.53482,0.003 c 0.6654,0.28018 0.91855,0.66939 0.95358,1.47488 -0.0822,1.65832 -0.11717,1.6298 -1.70151,3.2316 l -23.88735,24.55692 -0.10236,-28.7514 2.75564,0 c 0.5078,-0.0525 1.16785,-0.62236 1.25541,-1.25274 l 0,-3.23025 c -0.0175,-0.61284 -0.40275,-1.06809 -1.15567,-1.05058 l -21.57567,0 c -0.78796,-0.0351 -1.31326,0.6654 -1.26074,1.47085 l -0.0512,2.39244 c -0.003,0.80548 0.57651,1.44404 1.31194,1.51407 l 3.39987,0 -0.0525,54.08795 c -0.0525,0.56034 0.0525,0.858 0.47278,1.05062 l 4.51767,-10e-6 z"
           inkscape:connector-curvature="0"
           id="path20644"
           style="fill:url(#linearGradient20826);fill-opacity:1;fill-rule:evenodd;stroke-width:0.25" />
        <path
           d="m 163.75656,948.85712 c 0,2.12159 -1.58231,3.84148 -3.53417,3.84148 -1.95186,0 -3.53416,-1.71989 -3.53416,-3.84148 0,-2.12158 1.5823,-3.84148 3.53416,-3.84148 1.95186,0 3.53417,1.7199 3.53417,3.84148 z m -13.40143,20.37841 c 5.9431,-10.79242 5.06806,-11.70392 5.03158,-12.90713 -0.085,-1.60427 0.26738,-2.22411 2.0418,-2.18767 l 2.69811,-0.0729 c 1.64073,-0.0729 2.18765,0.51044 1.75012,1.75011 -0.70043,1.89071 -5.99003,10.48462 -4.98888,12.22062 l 1.06362,1.32511 c 0.4486,0.94136 -0.59811,2.29525 -1.18078,2.30849 l -5.03007,0.0425 c -1.22751,0.0137 -1.94458,-1.25181 -1.38552,-2.47934 z m 20.38923,-15.61036 c -1.85393,-0.33557 -3.74433,-0.23361 -5.45243,-0.0222 -0.66843,-0.0487 -0.92996,1.03555 -0.68689,1.78908 l 0.70918,1.41834 c 0.0914,1.1443 0.66498,2.34944 -5.01487,12.66383 -0.55908,1.2275 0.19082,2.49426 1.41834,2.4821 l 5.01487,-0.0506 c 0.58267,-0.0137 1.61365,-1.33809 1.16507,-2.27949 l -1.06376,-1.31703 c -0.48367,-0.83872 0.54688,-3.31453 1.77294,-5.82536 1.77248,-2.32723 3.81898,-2.45894 5.11618,-2.4821 0.38691,0.0883 0.54396,0.53201 0.65853,1.01311 -0.65585,1.79987 -1.49713,3.91106 -4.00179,8.45942 -0.55906,1.22751 0.14022,2.49426 1.36771,2.4821 l 5.06552,-0.0505 c 0.58267,-0.0137 1.61367,-1.33809 1.16507,-2.27948 l -1.06376,-1.31703 c -0.49068,-0.85086 0.57291,-3.37764 1.82359,-5.92667 1.63915,-2.34911 3.62478,-2.38079 4.8629,-2.38079 0.49425,0.15199 0.60765,0.77621 0.60787,1.41834 -0.68437,1.806 -1.36617,3.72803 -3.7485,8.05419 -0.55906,1.2275 0.14022,2.49427 1.36771,2.4821 l 5.01485,-0.0506 c 0.58266,-0.0137 1.66436,-1.33808 1.21574,-2.27949 l -1.06376,-1.31701 c -1.00117,-1.73602 3.02408,-6.79466 4.19853,-9.96155 0.72923,-2.26058 -1.77292,-4.23807 -3.15844,-4.67561 l -3.81501,-0.0588 c -0.68809,0.15695 -0.8322,0.55333 -1.02146,1.27443 l -2.61014,-0.0222 c 0.0514,-0.66749 -0.12262,-1.10836 -0.61426,-1.15699 l -3.99731,-0.0587 c -1.2895,-0.0265 -1.16196,0.43728 -1.32734,1.2299 l -3.89264,0.002 c 0.21468,-0.41869 0.21059,-0.98325 -0.0137,-1.25608 z"
           inkscape:connector-curvature="0"
           id="path20654"
           style="opacity:0.3;fill:#000000;fill-opacity:1;fill-rule:evenodd;stroke:none" />
        <path
           d="m 163.75656,947.85712 c 0,2.12159 -1.58231,3.84148 -3.53417,3.84148 -1.95186,0 -3.53416,-1.71989 -3.53416,-3.84148 0,-2.12158 1.5823,-3.84147 3.53416,-3.84147 1.95186,0 3.53417,1.71989 3.53417,3.84147 z m -13.40143,20.37841 c 5.9431,-10.79242 5.06806,-11.70392 5.03158,-12.90713 -0.085,-1.60427 0.26738,-2.22411 2.0418,-2.18767 l 2.69811,-0.0729 c 1.64073,-0.0729 2.18765,0.51044 1.75012,1.7501 -0.70043,1.89071 -5.99003,10.48463 -4.98888,12.22063 l 1.06362,1.32511 c 0.4486,0.94136 -0.59811,2.29525 -1.18078,2.30848 l -5.03007,0.0425 c -1.22751,0.0137 -1.94458,-1.25181 -1.38551,-2.47934 z m 20.38923,-15.61036 c -1.85393,-0.33557 -3.74433,-0.23361 -5.45242,-0.0222 -0.66843,-0.0487 -0.92997,1.03555 -0.6869,1.78908 l 0.70918,1.41834 c 0.0914,1.1443 0.66498,2.34943 -5.01487,12.66383 -0.55908,1.2275 0.19082,2.49426 1.41834,2.4821 l 5.01487,-0.0506 c 0.58267,-0.0137 1.61365,-1.33809 1.16507,-2.27948 l -1.06376,-1.31703 c -0.48367,-0.83872 0.54689,-3.31454 1.77294,-5.82536 1.77248,-2.32724 3.81898,-2.45894 5.11618,-2.4821 0.38691,0.0883 0.54397,0.53201 0.65853,1.0131 -0.65585,1.79987 -1.49713,3.91107 -4.00179,8.45943 -0.55906,1.2275 0.14022,2.49426 1.36771,2.4821 l 5.06552,-0.0505 c 0.58267,-0.0137 1.61367,-1.33809 1.16507,-2.27949 l -1.06376,-1.31703 c -0.49068,-0.85086 0.57291,-3.37764 1.8236,-5.92667 1.63914,-2.34911 3.62477,-2.38079 4.86289,-2.38079 0.49425,0.152 0.60765,0.77621 0.60787,1.41834 -0.68437,1.806 -1.36617,3.72804 -3.7485,8.05419 -0.55906,1.22751 0.14022,2.49428 1.36771,2.4821 l 5.01485,-0.0505 c 0.58266,-0.0137 1.66436,-1.33807 1.21574,-2.27948 l -1.06376,-1.31702 c -1.00117,-1.73601 3.02408,-6.79466 4.19853,-9.96155 0.72923,-2.26058 -1.77292,-4.23806 -3.15844,-4.67561 l -3.81501,-0.0588 c -0.68809,0.15695 -0.8322,0.55334 -1.02146,1.27444 l -2.61014,-0.0222 c 0.0514,-0.6675 -0.12262,-1.10837 -0.61426,-1.157 l -3.99731,-0.0588 c -1.2895,-0.0265 -1.16196,0.43728 -1.32734,1.2299 l -3.89264,0.002 c 0.21468,-0.41869 0.21059,-0.98325 -0.0137,-1.25608 z"
           inkscape:connector-curvature="0"
           id="path20656"
           style="fill:url(#linearGradient20828);fill-opacity:1;fill-rule:evenodd;stroke:none" />
        <path
           d="m 160.21875,944.01843 c -1.95187,0 -3.53125,1.72217 -3.53125,3.84375 0,1.36946 0.66387,2.5698 1.65625,3.25 -0.41846,-0.63119 -0.65625,-1.41258 -0.65625,-2.25 0,-2.12158 1.57938,-3.84375 3.53125,-3.84375 0.69196,0 1.32997,0.22017 1.875,0.59375 -0.64171,-0.96792 -1.69357,-1.59375 -2.875,-1.59375 z m 7.75,8.375 c -0.91785,0.01 -1.83345,0.11304 -2.6875,0.21875 -0.66843,-0.0487 -0.93058,1.02772 -0.6875,1.78125 l 0.71875,1.40625 c 0.0914,1.1443 0.67985,2.37311 -5,12.6875 -0.4772,1.04774 -0.007,2.08978 0.90625,2.375 -0.13802,-0.41685 -0.1279,-0.88836 0.0937,-1.375 5.67985,-10.31439 5.09137,-11.5432 5,-12.6875 l -0.71875,-1.40625 c -0.24308,-0.75353 0.0191,-1.82992 0.6875,-1.78125 1.4425,-0.17854 3.02297,-0.26894 4.59375,-0.0937 0.0693,-0.33878 0.0381,-0.70778 -0.125,-0.90625 -0.92696,-0.16779 -1.8634,-0.22872 -2.78125,-0.21875 z m 16.25,0.21875 c -0.68809,0.15695 -0.84199,0.56015 -1.03125,1.28125 l -1.875,-0.0312 c 0.22691,0.18518 0.31797,0.52322 0.28125,1 l 2.59375,0.0312 c 0.18926,-0.7211 0.34316,-1.1243 1.03125,-1.28125 l 3.8125,0.0625 c 0.4309,0.13608 0.98389,0.41634 1.5,0.8125 -0.71441,-0.91248 -1.76434,-1.58018 -2.5,-1.8125 l -3.8125,-0.0625 z m -8.25,0.0312 c -1.2895,-0.0265 -1.14711,0.45738 -1.3125,1.25 l -2.78125,0 c 0.0857,0.29351 0.036,0.68598 -0.125,1 l 3.90625,0 c 0.16539,-0.79262 0.023,-1.27647 1.3125,-1.25 l 3.625,0.0625 c 0.01,-0.56984 -0.17726,-0.95572 -0.625,-1 l -4,-0.0625 z m -15.84375,0.4375 -2.6875,0.0625 c -1.77443,-0.0364 -2.14755,0.58323 -2.0625,2.1875 0.0365,1.2032 0.91185,2.11384 -5.03125,12.90625 -0.47719,1.04775 1.4e-4,2.12223 0.90625,2.40625 -0.13949,-0.42104 -0.13175,-0.91113 0.0937,-1.40625 5.9431,-10.79241 5.06773,-11.70305 5.03125,-12.90625 -0.085,-1.60427 0.28808,-2.22395 2.0625,-2.1875 l 2.6875,-0.0625 c 0.35466,-0.0158 0.6527,-0.0143 0.90625,0.0312 9.1e-4,-0.74374 -0.62478,-1.08821 -1.90625,-1.03125 z m 14.59375,6.90625 c -0.10197,0.002 -0.23302,0.0271 -0.34375,0.0312 -0.65584,1.79987 -1.49534,3.92039 -4,8.46875 -0.48422,1.06317 -0.0231,2.14066 0.90625,2.40625 -0.13824,-0.42266 -0.13285,-0.90871 0.0937,-1.40625 2.50466,-4.54836 3.34416,-6.66888 4,-8.46875 -0.11456,-0.4811 -0.26934,-0.94295 -0.65625,-1.03125 z m 9.875,0 c -0.12206,0 -0.27071,0.0284 -0.40625,0.0312 0.0134,0.13291 0.0312,0.26703 0.0312,0.40625 -0.68436,1.806 -1.36767,3.73635 -3.75,8.0625 -0.47719,1.04774 -0.0273,2.08978 0.875,2.375 -0.12842,-0.41685 -0.0966,-0.88836 0.125,-1.375 2.38233,-4.32615 3.06564,-6.2565 3.75,-8.0625 -2.2e-4,-0.64213 -0.13075,-1.2855 -0.625,-1.4375 z"
           inkscape:connector-curvature="0"
           id="path20658"
           style="opacity:0.6;fill:#ffffff;fill-opacity:1;fill-rule:evenodd;stroke:none" />
        <path
           d="m 162.09375,944.61218 c 0.41846,0.63118 0.65625,1.41259 0.65625,2.25 0,2.12159 -1.5794,3.84375 -3.53125,3.84375 -0.69196,0 -1.32997,-0.22017 -1.875,-0.59375 0.6417,0.96792 1.69356,1.59375 2.875,1.59375 1.95185,0 3.53125,-1.72216 3.53125,-3.84375 0,-1.36945 -0.66387,-2.5698 -1.65625,-3.25 z m 7.78125,7.90625 c -0.026,0.12692 -0.0665,0.26089 -0.125,0.375 l 1.125,0 c -0.0286,-0.0978 -0.0689,-0.21304 -0.125,-0.28125 -0.28826,-0.0522 -0.5858,-0.0615 -0.875,-0.0937 z m 9.71875,0.1875 c -9.3e-4,0.0559 0.005,0.0967 0,0.15625 l 0.71875,0 c -0.0908,-0.0741 -0.20328,-0.14236 -0.34375,-0.15625 l -0.375,0 z m -18.5625,0.40625 c -2.6e-4,0.20851 -0.0605,0.44731 -0.15625,0.71875 -0.70044,1.89071 -6.00115,10.48275 -5,12.21875 l 1.0625,1.3125 c 0.4486,0.94136 -0.57359,2.29926 -1.15625,2.3125 l -5.03125,0.0312 c -0.17977,0.002 -0.34453,-0.0138 -0.5,-0.0625 0.20633,0.62282 0.76761,1.07065 1.5,1.0625 l 5.03125,-0.0312 c 0.58266,-0.0132 1.60485,-1.37114 1.15625,-2.3125 l -1.0625,-1.3125 c -1.00115,-1.736 4.29956,-10.32804 5,-12.21875 0.34296,-0.9717 0.0757,-1.55352 -0.84375,-1.71875 z m 28.5,0.375 c 0.63108,0.80604 0.99828,1.81472 0.65625,2.875 -1.17444,3.16689 -5.18867,8.20149 -4.1875,9.9375 l 1.0625,1.3125 c 0.44861,0.94141 -0.63609,2.26759 -1.21875,2.28125 l -5.03125,0.0625 c -0.17977,0.002 -0.31394,-0.0448 -0.46875,-0.0937 0.1955,0.6346 0.7279,1.1011 1.46875,1.09375 l 5.03125,-0.0625 c 0.58266,-0.0137 1.66736,-1.33984 1.21875,-2.28125 L 187,967.29968 c -1.00117,-1.73601 3.01305,-6.77061 4.1875,-9.9375 0.50244,-1.55754 -0.51284,-2.99733 -1.65625,-3.875 z m -16.8125,4.5 c -1.2972,0.0232 -3.35252,0.17277 -5.125,2.5 -1.22606,2.51083 -2.23368,4.97378 -1.75,5.8125 l 1.0625,1.3125 c 0.44858,0.94139 -0.60484,2.26759 -1.1875,2.28125 l -5,0.0625 c -0.17977,0.002 -0.34333,-0.0448 -0.5,-0.0937 0.21012,0.6346 0.75913,1.10109 1.5,1.09375 l 5,-0.0625 c 0.58266,-0.0137 1.63608,-1.33986 1.1875,-2.28125 l -1.0625,-1.3125 c -0.48368,-0.83872 0.52394,-3.30167 1.75,-5.8125 1.63315,-2.1443 3.4833,-2.41981 4.78125,-2.46875 -0.11456,-0.4811 -0.26934,-0.94295 -0.65625,-1.03125 z m 9.875,0 c -1.23811,0 -3.2046,0.0571 -4.84375,2.40625 -1.25068,2.54903 -2.33443,5.05539 -1.84375,5.90625 l 1.0625,1.3125 c 0.4486,0.94139 -0.57359,2.26759 -1.15625,2.28125 l -5.0625,0.0625 c -0.16433,0.002 -0.32511,-0.0214 -0.46875,-0.0625 0.20282,0.6201 0.73879,1.06973 1.46875,1.0625 l 5.0625,-0.0625 c 0.58266,-0.0137 1.60485,-1.33986 1.15625,-2.28125 l -1.0625,-1.3125 c -0.49068,-0.85086 0.59307,-3.35722 1.84375,-5.90625 1.47756,-2.11753 3.19817,-2.34935 4.4375,-2.375 -0.0485,-0.4801 -0.20666,-0.91221 -0.59375,-1.03125 z"
           inkscape:connector-curvature="0"
           id="path20660"
           style="opacity:0.2;fill:#000000;fill-opacity:1;fill-rule:evenodd;stroke:none" />
      </g>
    </g>
  </g>
</svg>
