<?xml version="1.0" encoding="UTF-8" standalone="no"?>
<!-- Created with Inkscape (http://www.inkscape.org/) -->

<svg
   xmlns:dc="http://purl.org/dc/elements/1.1/"
   xmlns:cc="http://creativecommons.org/ns#"
   xmlns:rdf="http://www.w3.org/1999/02/22-rdf-syntax-ns#"
   xmlns:svg="http://www.w3.org/2000/svg"
   xmlns="http://www.w3.org/2000/svg"
   xmlns:xlink="http://www.w3.org/1999/xlink"
   xmlns:sodipodi="http://sodipodi.sourceforge.net/DTD/sodipodi-0.dtd"
   xmlns:inkscape="http://www.inkscape.org/namespaces/inkscape"
   width="96"
   height="96"
   id="svg2982"
   version="1.1"
   inkscape:version="0.48.1 r9760"
   sodipodi:docname="wireshark.svg">
  <defs
     id="defs2984">
    <filter
       color-interpolation-filters="sRGB"
       inkscape:collect="always"
       id="filter6221">
      <feGaussianBlur
         inkscape:collect="always"
         stdDeviation="1.2"
         id="feGaussianBlur6223" />
    </filter>
    <linearGradient
       inkscape:collect="always"
       xlink:href="#linearGradient3700-46"
       id="linearGradient5005"
       gradientUnits="userSpaceOnUse"
       gradientTransform="matrix(0.95238095,0,0,0.95238095,2.2857041,958.6479)"
       x1="48"
       y1="90"
       x2="47.998997"
       y2="-59.097267" />
    <linearGradient
       id="linearGradient3700-46">
      <stop
         id="stop3702-3"
         style="stop-color:#146d96;stop-opacity:0.97254902"
         offset="0" />
      <stop
         id="stop3704-76"
         style="stop-color:#3cade2;stop-opacity:0.99607843"
         offset="1" />
    </linearGradient>
    <clipPath
       id="clipPath3613-9">
      <rect
         width="84"
         height="84"
         rx="6"
         ry="6"
         x="6"
         y="6"
         id="rect3615-621"
         style="fill:#ffffff;fill-opacity:1;fill-rule:nonzero;stroke:none" />
    </clipPath>
    <filter
       x="-0.192"
       y="-0.192"
       width="1.3839999"
       height="1.3839999"
       color-interpolation-filters="sRGB"
       id="filter3794-78">
      <feGaussianBlur
         id="feGaussianBlur3796-5"
         stdDeviation="5.28" />
    </filter>
    <linearGradient
       inkscape:collect="always"
       xlink:href="#linearGradient3666-1"
       id="linearGradient19008"
       gradientUnits="userSpaceOnUse"
       gradientTransform="translate(57.358919,882.65402)"
       x1="46.796001"
       y1="71.448395"
       x2="46.796001"
       y2="22.992983" />
    <linearGradient
       id="linearGradient3666-1">
      <stop
         id="stop3668-9"
         style="stop-color:#115575;stop-opacity:1"
         offset="0" />
      <stop
         id="stop3670-2"
         style="stop-color:#197ba9;stop-opacity:1"
         offset="1" />
    </linearGradient>
  </defs>
  <sodipodi:namedview
     id="base"
     pagecolor="#ffffff"
     bordercolor="#666666"
     borderopacity="1.0"
     inkscape:pageopacity="0.0"
     inkscape:pageshadow="2"
     inkscape:zoom="3.959798"
     inkscape:cx="36.39115"
     inkscape:cy="42.877139"
     inkscape:document-units="px"
     inkscape:current-layer="layer1"
     showgrid="false"
     inkscape:window-width="1280"
     inkscape:window-height="725"
     inkscape:window-x="0"
     inkscape:window-y="25"
     inkscape:window-maximized="1" />
  <metadata
     id="metadata2987">
    <rdf:RDF>
      <cc:Work
         rdf:about="">
        <dc:format>image/svg+xml</dc:format>
        <dc:type
           rdf:resource="http://purl.org/dc/dcmitype/StillImage" />
        <dc:title></dc:title>
      </cc:Work>
    </rdf:RDF>
  </metadata>
  <g
     inkscape:label="Layer 1"
     inkscape:groupmode="layer"
     id="layer1"
     transform="translate(0,-956.36218)">
    <g
       id="g5025">
      <rect
         transform="translate(-1.7480468e-7,-5.2343748e-6)"
         y="964.54077"
         x="8"
         height="80"
         width="80"
         id="rect10662"
         style="fill:#000000;fill-opacity:1;stroke:none;filter:url(#filter6221)"
         rx="5"
         ry="5" />
      <rect
         width="80"
         height="80"
         rx="5"
         ry="5"
         x="8"
         y="964.36218"
         id="rect2419"
         style="fill:url(#linearGradient5005);fill-opacity:1;fill-rule:nonzero;stroke:none" />
      <g
         style="display:inline"
         id="layer5"
         transform="translate(126.5,968.36218)" />
      <g
         id="layer5-7"
         transform="translate(0,956.36218)">
        <rect
           style="opacity:0.1;fill:#69ffff;fill-opacity:1;fill-rule:nonzero;stroke:#ffffff;stroke-width:0.5;stroke-linecap:round;stroke-linejoin:miter;stroke-miterlimit:4;stroke-opacity:1;stroke-dasharray:none;stroke-dashoffset:0;filter:url(#filter3794-78)"
           id="rect3171"
           clip-path="url(#clipPath3613-9)"
           y="15"
           x="15"
           ry="12"
           rx="12"
           height="66"
           width="66" />
      </g>
      <g
         transform="matrix(0.61904466,0,0,0.61904466,-16.986188,428.73435)"
         id="g19004">
        <path
           style="font-size:medium;font-style:normal;font-variant:normal;font-weight:normal;font-stretch:normal;text-indent:0;text-align:start;text-decoration:none;line-height:normal;letter-spacing:normal;word-spacing:normal;text-transform:none;direction:ltr;block-progression:tb;writing-mode:lr-tb;text-anchor:start;color:#000000;fill:url(#linearGradient19008);fill-opacity:1;stroke:none;stroke-width:6;marker:none;visibility:visible;display:inline;overflow:visible;enable-background:accumulate;font-family:Abandoned Bitplane;-inkscape-font-specification:Abandoned Bitplane"
           id="path3660"
           inkscape:connector-curvature="0"
           d="m 123.14017,906.65402 c -19.31866,1.44072 -29.489301,12.98404 -34.218751,23.8125 -3.63231,8.31647 -4.19392,14.89655 -4.34375,18.18745 l -21.21875,0 0,6 24,0 a 3.0003,3.0003 0 0 0 3,-3.0312 c 0,0 -0.0828,-9.259 4.0625,-18.75 3.71634,-8.50885 10.463491,-16.94357 24.187501,-19.53125 -8.05109,20.96252 2.125,39.78125 2.125,39.78125 a 3.0003,3.0003 0 0 0 2.625,1.5312 l 24,0 0,-6 -22.0625,0 c -1.79918,-3.7032 -8.67753,-19.85539 0.71875,-37.5937 a 3.0003,3.0003 0 0 0 -2.875,-4.40625 z" />
        <path
           style="font-size:medium;font-style:normal;font-variant:normal;font-weight:normal;font-stretch:normal;text-indent:0;text-align:start;text-decoration:none;line-height:normal;letter-spacing:normal;word-spacing:normal;text-transform:none;direction:ltr;block-progression:tb;writing-mode:lr-tb;text-anchor:start;opacity:0.15;color:#000000;fill:#124964;fill-opacity:1;stroke:none;stroke-width:6;marker:none;visibility:visible;display:inline;overflow:visible;enable-background:accumulate;font-family:Abandoned Bitplane;-inkscape-font-specification:Abandoned Bitplane"
           id="path3696"
           inkscape:connector-curvature="0"
           d="m 123.14017,906.65402 c -19.31866,1.44072 -29.489301,12.98404 -34.218751,23.8125 -3.63231,8.31647 -4.19392,14.89655 -4.34375,18.18745 l -21.21875,0 0,2 7,0 0,0.062 14.21875,0 a 2.0619912,2.0619912 0 0 0 2.0625,-1.9687 c 0.14486,-3.1818 0.6524,-9.4464 4.15625,-17.46875 4.51061,-10.32741 13.942321,-21.17853 32.500001,-22.5625 0.22484,-0.0172 -0.10013,-0.0129 0.125,0 0.22513,0.0129 -0.0964,-0.0428 0.125,0 0.22141,0.0428 -0.0887,-0.0406 0.125,0.0312 0.21374,0.0719 -0.0772,-0.0372 0.125,0.0625 0.20225,0.0997 -0.0934,-0.0633 0.0937,0.0625 0.18716,0.1258 -0.075,-0.0871 0.0937,0.0625 0.16873,0.1496 -0.0535,-0.077 0.0937,0.0937 0.14729,0.17075 -0.0607,-0.0951 0.0625,0.0937 0.12323,0.18886 -0.0345,-0.0786 0.0625,0.125 0.097,0.20359 -0.006,-0.0897 0.0625,0.125 0.069,0.2147 -0.008,-0.12822 0.0312,0.0937 0.0397,0.22198 -0.01,-0.10028 0,0.125 0.01,0.22529 0.0203,-0.0996 0,0.125 -0.0203,0.2246 0.05,-0.0949 0,0.125 -0.05,0.21988 0.0164,-0.0863 -0.0625,0.125 -0.0789,0.21127 0.0751,-0.0739 -0.0312,0.125 -9.83346,18.5636 -2.67634,35.50375 -0.75,39.46875 a 2.0619912,2.0619912 0 0 0 1.84375,1.15621 l 15.0625,0 0,-0.062 7,0 0,-2 -22.0625,0 c -1.79918,-3.7032 -8.67753,-19.85539 0.71875,-37.5937 a 3.0003,3.0003 0 0 0 -2.875,-4.40625 z m -4.625,4.625 a 2.0619912,2.0619912 0 0 0 -0.28125,0.0312 c -14.40475,2.71603 -21.804841,11.86033 -25.687501,20.75 -4.3462,9.95095 -4.25,19.59365 -4.25,19.59365 0.002,0.1668 0.0147,-0.072 0,0.094 -0.0147,0.1661 0.031,-0.07 0,0.094 -0.031,0.1639 0.0158,-0.097 -0.0312,0.062 -0.0471,0.16 0.0314,-0.061 -0.0312,0.094 -0.0626,0.1545 0.0463,-0.054 -0.0312,0.094 -0.0776,0.1477 0.0292,-0.045 -0.0625,0.094 -0.0917,0.1392 0.0425,-0.067 -0.0625,0.062 -0.10503,0.1295 0.0548,-0.056 -0.0625,0.062 -0.11729,0.1185 0.0659,-0.044 -0.0625,0.062 -0.12841,0.1064 0.0758,-0.031 -0.0625,0.062 -0.13828,0.093 0.053,-0.048 -0.0937,0.031 -0.0367,0.02 -0.0618,0.027 -0.0625,0.031 0.005,0.01 0.0192,0.023 0,0.031 -0.15388,0.064 0.0657,-0.017 -0.0937,0.031 -0.15946,0.049 0.0697,-0.033 -0.0937,0 -0.16349,0.033 0.0722,0.015 -0.0937,0.031 -0.16593,0.017 0.073,0 -0.0937,0 l -17,0 0,0.062 -7,0 0,2 24,0 a 3.0003,3.0003 0 0 0 3,-3.0312 c 0,0 -0.0828,-9.259 4.0625,-18.75005 3.71634,-8.50886 10.463491,-16.94357 24.187501,-19.53125 -8.05109,20.96252 2.125,39.7813 2.125,39.7813 a 3.0003,3.0003 0 0 0 2.625,1.5312 l 24,0 0,-2 -7,0 0,-0.062 -17,0 c -0.22402,7e-4 0.0971,0.029 -0.125,0 -0.22214,-0.029 0.0913,0.027 -0.125,-0.031 -0.21634,-0.058 0.0817,0.055 -0.125,-0.031 -0.20674,-0.086 0.0998,0.05 -0.0937,-0.062 -0.19351,-0.1128 0.0519,0.075 -0.125,-0.062 -0.17686,-0.1374 0.0634,0.066 -0.0937,-0.094 -0.1571,-0.1597 0.0721,0.085 -0.0625,-0.094 -0.10352,-0.1377 -0.0552,-0.04 -0.0625,-0.062 0,0 8e-5,-0.031 0,-0.031 -0.0399,-0.074 -9.67864,-18.03852 -2,-38.0313 a 2.0619912,2.0619912 0 0 0 -2.03125,-2.8125 z" />
      </g>
    </g>
  </g>
</svg>
