<?xml version="1.0" encoding="UTF-8" standalone="no"?>
<!-- Created with Inkscape (http://www.inkscape.org/) -->
<svg id="svg2982" xmlns:rdf="http://www.w3.org/1999/02/22-rdf-syntax-ns#" xmlns="http://www.w3.org/2000/svg" height="96" width="96" version="1.1" xmlns:cc="http://creativecommons.org/ns#" xmlns:xlink="http://www.w3.org/1999/xlink" xmlns:dc="http://purl.org/dc/elements/1.1/">
 <defs id="defs2984">
  <filter id="filter6221" color-interpolation-filters="sRGB">
   <feGaussianBlur id="feGaussianBlur6223" stdDeviation="1.2"/>
  </filter>
  <linearGradient id="linearGradient5005" y2="-59.097" gradientUnits="userSpaceOnUse" x2="47.999" gradientTransform="matrix(.95238 0 0 .95238 2.2857 958.65)" y1="90" x1="48">
   <stop id="stop3702-3" style="stop-color:#146d96;stop-opacity:.97255" offset="0"/>
   <stop id="stop3704-76" style="stop-color:#3cade2;stop-opacity:.99608" offset="1"/>
  </linearGradient>
  <clipPath id="clipPath3613-9">
   <rect id="rect3615-621" style="fill:#fff" rx="6" ry="6" height="84" width="84" y="6" x="6"/>
  </clipPath>
  <filter id="filter3794-78" height="1.384" width="1.384" color-interpolation-filters="sRGB" y="-.192" x="-.192">
   <feGaussianBlur id="feGaussianBlur3796-5" stdDeviation="5.28"/>
  </filter>
  <linearGradient id="linearGradient19008" y2="22.993" gradientUnits="userSpaceOnUse" x2="46.796" gradientTransform="translate(57.359 882.65)" y1="71.448" x1="46.796">
   <stop id="stop3668-9" style="stop-color:#115575" offset="0"/>
   <stop id="stop3670-2" style="stop-color:#197ba9" offset="1"/>
  </linearGradient>
 </defs>
 <metadata id="metadata2987">
  <rdf:RDF>
   <cc:Work rdf:about="">
    <dc:format>image/svg+xml</dc:format>
    <dc:type rdf:resource="http://purl.org/dc/dcmitype/StillImage"/>
    <dc:title/>
   </cc:Work>
  </rdf:RDF>
 </metadata>
 <g id="layer1" transform="translate(0 -956.36)">
  <g id="g5025">
   <rect id="rect10662" ry="5" style="filter:url(#filter6221)" rx="5" transform="translate(-1.748e-7 -.0000052344)" height="80" width="80" y="964.54" x="8"/>
   <rect id="rect2419" style="fill:url(#linearGradient5005)" rx="5" ry="5" height="80" width="80" y="964.36" x="8"/>
   <g id="layer5-7" transform="translate(0 956.36)">
    <rect id="rect3171" style="opacity:.1;filter:url(#filter3794-78);stroke:#fff;stroke-linecap:round;stroke-width:.5;fill:#69ffff" clip-path="url(#clipPath3613-9)" rx="12" ry="12" height="66" width="66" y="15" x="15"/>
   </g>
   <g id="g19004" transform="matrix(.61904 0 0 .61904 -16.986 428.73)">
    <path id="path3660" d="m123.14 906.65c-19.319 1.4407-29.489 12.984-34.219 23.812-3.6323 8.3165-4.1939 14.897-4.3438 18.187h-21.219v6h24a3.0003 3.0003 0 0 0 3 -3.0312s-0.0828-9.259 4.0625-18.75c3.7163-8.5088 10.463-16.944 24.188-19.531-8.0511 20.963 2.125 39.781 2.125 39.781a3.0003 3.0003 0 0 0 2.625 1.5312h24v-6h-22.062c-1.7992-3.7032-8.6775-19.855 0.71875-37.594a3.0003 3.0003 0 0 0 -2.875 -4.4062z" style="block-progression:tb;text-indent:0;color:#000000;text-transform:none;fill:url(#linearGradient19008)"/>
    <path id="path3696" d="m123.14 906.65c-19.319 1.4407-29.489 12.984-34.219 23.812-3.6323 8.3165-4.1939 14.897-4.3438 18.187h-21.219v2h7v0.062h14.219a2.062 2.062 0 0 0 2.0625 -1.9687c0.14486-3.1818 0.6524-9.4464 4.1562-17.469 4.5106-10.327 13.942-21.179 32.5-22.562 0.22484-0.0172-0.10013-0.0129 0.125 0s-0.0964-0.0428 0.125 0c0.22141 0.0428-0.0887-0.0406 0.125 0.0312 0.21374 0.0719-0.0772-0.0372 0.125 0.0625 0.20225 0.0997-0.0934-0.0633 0.0937 0.0625 0.18716 0.1258-0.075-0.0871 0.0937 0.0625 0.16873 0.1496-0.0535-0.077 0.0937 0.0937 0.14729 0.17075-0.0607-0.0951 0.0625 0.0937 0.12323 0.18886-0.0345-0.0786 0.0625 0.125 0.097 0.20359-0.006-0.0897 0.0625 0.125 0.069 0.2147-0.008-0.12822 0.0312 0.0937 0.0397 0.22198-0.01-0.10028 0 0.125 0.01 0.22529 0.0203-0.0996 0 0.125s0.05-0.0949 0 0.125c-0.05 0.21988 0.0164-0.0863-0.0625 0.125-0.0789 0.21127 0.0751-0.0739-0.0312 0.125-9.8335 18.564-2.6763 35.504-0.75 39.469a2.062 2.062 0 0 0 1.8438 1.1562h15.062v-0.062h7v-2h-22.062c-1.7992-3.7032-8.6775-19.855 0.71875-37.594a3.0003 3.0003 0 0 0 -2.875 -4.4062zm-4.625 4.625a2.062 2.062 0 0 0 -0.28125 0.0312c-14.405 2.716-21.805 11.86-25.688 20.75-4.3462 9.951-4.25 19.594-4.25 19.594 0.002 0.1668 0.0147-0.072 0 0.094-0.0147 0.1661 0.031-0.07 0 0.094-0.031 0.1639 0.0158-0.097-0.0312 0.062-0.0471 0.16 0.0314-0.061-0.0312 0.094-0.0626 0.1545 0.0463-0.054-0.0312 0.094-0.0776 0.1477 0.0292-0.045-0.0625 0.094-0.0917 0.1392 0.0425-0.067-0.0625 0.062-0.10503 0.1295 0.0548-0.056-0.0625 0.062-0.11729 0.1185 0.0659-0.044-0.0625 0.062-0.12841 0.1064 0.0758-0.031-0.0625 0.062-0.13828 0.093 0.053-0.048-0.0937 0.031-0.0367 0.02-0.0618 0.027-0.0625 0.031 0.005 0.01 0.0192 0.023 0 0.031-0.15388 0.064 0.0657-0.017-0.0937 0.031-0.15946 0.049 0.0697-0.033-0.0937 0-0.16349 0.033 0.0722 0.015-0.0937 0.031-0.16593 0.017 0.073 0-0.0937 0h-17v0.062h-7v2h24a3.0003 3.0003 0 0 0 3 -3.0312s-0.0828-9.259 4.0625-18.75c3.7163-8.5089 10.463-16.944 24.188-19.531-8.0511 20.963 2.125 39.781 2.125 39.781a3.0003 3.0003 0 0 0 2.625 1.5312h24v-2h-7v-0.062h-17c-0.22402 0.0007 0.0971 0.029-0.125 0-0.22214-0.029 0.0913 0.027-0.125-0.031-0.21634-0.058 0.0817 0.055-0.125-0.031-0.20674-0.086 0.0998 0.05-0.0937-0.062-0.19351-0.1128 0.0519 0.075-0.125-0.062-0.17686-0.1374 0.0634 0.066-0.0937-0.094-0.1571-0.1597 0.0721 0.085-0.0625-0.094-0.10352-0.1377-0.0552-0.04-0.0625-0.062 0 0 0.00008-0.031 0-0.031-0.0399-0.074-9.6786-18.039-2-38.031a2.062 2.062 0 0 0 -2.0312 -2.8125z" style="opacity:.15;block-progression:tb;text-indent:0;color:#000000;text-transform:none;fill:#124964"/>
   </g>
  </g>
 </g>
</svg>
