<?xml version="1.0" encoding="UTF-8" standalone="no"?>
<!-- Created with Inkscape (http://www.inkscape.org/) -->

<svg
   xmlns:dc="http://purl.org/dc/elements/1.1/"
   xmlns:cc="http://creativecommons.org/ns#"
   xmlns:rdf="http://www.w3.org/1999/02/22-rdf-syntax-ns#"
   xmlns:svg="http://www.w3.org/2000/svg"
   xmlns="http://www.w3.org/2000/svg"
   xmlns:xlink="http://www.w3.org/1999/xlink"
   xmlns:sodipodi="http://sodipodi.sourceforge.net/DTD/sodipodi-0.dtd"
   xmlns:inkscape="http://www.inkscape.org/namespaces/inkscape"
   width="96"
   height="96"
   id="svg2982"
   version="1.1"
   inkscape:version="0.48.1 r9760"
   sodipodi:docname="workspace-switcher.svg">
  <defs
     id="defs2984">
    <filter
       color-interpolation-filters="sRGB"
       inkscape:collect="always"
       id="filter6279">
      <feGaussianBlur
         inkscape:collect="always"
         stdDeviation="0.8"
         id="feGaussianBlur6281" />
    </filter>
    <linearGradient
       inkscape:collect="always"
       xlink:href="#linearGradient3175-1"
       id="linearGradient10902-1"
       gradientUnits="userSpaceOnUse"
       gradientTransform="translate(0,-9.6171873e-6)"
       x1="48"
       y1="1052.3622"
       x2="48"
       y2="902.36218" />
    <linearGradient
       id="linearGradient3175-1">
      <stop
         id="stop3177-6"
         style="stop-color:#4490e6;stop-opacity:1"
         offset="0" />
      <stop
         id="stop3179-3"
         style="stop-color:#103d8f;stop-opacity:1"
         offset="1" />
    </linearGradient>
    <linearGradient
       inkscape:collect="always"
       xlink:href="#linearGradient4134"
       id="linearGradient7182"
       gradientUnits="userSpaceOnUse"
       gradientTransform="translate(112.72126,-1020.161)"
       x1="32"
       y1="46"
       x2="32"
       y2="-24" />
    <linearGradient
       id="linearGradient4134">
      <stop
         id="stop4136"
         style="stop-color:#ffffff;stop-opacity:1"
         offset="0" />
      <stop
         id="stop4138"
         style="stop-color:#ffffff;stop-opacity:0"
         offset="1" />
    </linearGradient>
    <linearGradient
       inkscape:collect="always"
       xlink:href="#linearGradient4134"
       id="linearGradient7184"
       gradientUnits="userSpaceOnUse"
       gradientTransform="translate(112.72126,-1052.161)"
       x1="32"
       y1="46"
       x2="32"
       y2="-24" />
    <linearGradient
       id="linearGradient5976">
      <stop
         id="stop5978"
         style="stop-color:#ffffff;stop-opacity:1"
         offset="0" />
      <stop
         id="stop5980"
         style="stop-color:#ffffff;stop-opacity:0"
         offset="1" />
    </linearGradient>
    <linearGradient
       inkscape:collect="always"
       xlink:href="#linearGradient4134"
       id="linearGradient7186"
       gradientUnits="userSpaceOnUse"
       gradientTransform="translate(144.72126,-1052.161)"
       x1="32"
       y1="46"
       x2="32"
       y2="-24" />
    <linearGradient
       id="linearGradient5983">
      <stop
         id="stop5985"
         style="stop-color:#ffffff;stop-opacity:1"
         offset="0" />
      <stop
         id="stop5987"
         style="stop-color:#ffffff;stop-opacity:0"
         offset="1" />
    </linearGradient>
    <linearGradient
       inkscape:collect="always"
       xlink:href="#linearGradient4134"
       id="linearGradient7188"
       gradientUnits="userSpaceOnUse"
       gradientTransform="translate(144.72126,-1020.161)"
       x1="32"
       y1="46"
       x2="32"
       y2="-24" />
    <linearGradient
       id="linearGradient5990">
      <stop
         id="stop5992"
         style="stop-color:#ffffff;stop-opacity:1"
         offset="0" />
      <stop
         id="stop5994"
         style="stop-color:#ffffff;stop-opacity:0"
         offset="1" />
    </linearGradient>
  </defs>
  <sodipodi:namedview
     id="base"
     pagecolor="#ffffff"
     bordercolor="#666666"
     borderopacity="1.0"
     inkscape:pageopacity="0.0"
     inkscape:pageshadow="2"
     inkscape:zoom="3.959798"
     inkscape:cx="36.39115"
     inkscape:cy="42.877139"
     inkscape:document-units="px"
     inkscape:current-layer="layer1"
     showgrid="false"
     inkscape:window-width="1280"
     inkscape:window-height="725"
     inkscape:window-x="0"
     inkscape:window-y="25"
     inkscape:window-maximized="1" />
  <metadata
     id="metadata2987">
    <rdf:RDF>
      <cc:Work
         rdf:about="">
        <dc:format>image/svg+xml</dc:format>
        <dc:type
           rdf:resource="http://purl.org/dc/dcmitype/StillImage" />
        <dc:title></dc:title>
      </cc:Work>
    </rdf:RDF>
  </metadata>
  <g
     inkscape:label="Layer 1"
     inkscape:groupmode="layer"
     id="layer1"
     transform="translate(0,-956.36218)">
    <g
       id="g7190">
      <g
         transform="translate(-182.1875,-40.40625)"
         id="g26594" />
      <rect
         y="964.36218"
         x="8"
         height="80"
         width="80"
         id="rect9283"
         style="fill:#000000;fill-opacity:1;stroke:none;filter:url(#filter6279)"
         rx="5"
         ry="5" />
      <rect
         ry="5"
         rx="5"
         style="fill:url(#linearGradient10902-1);fill-opacity:1;stroke:none"
         id="rect9285"
         width="80"
         height="80"
         x="8"
         y="964.36218" />
      <g
         transform="matrix(0.83333323,0,0,0.83333323,-85.934364,167.56144)"
         id="g7172">
        <rect
           width="28"
           height="28"
           rx="2"
           ry="2"
           x="130.72125"
           y="-1002.161"
           transform="scale(1,-1)"
           id="rect3889"
           style="opacity:0.3;fill:url(#linearGradient7182);fill-opacity:1;stroke:none" />
        <path
           d="m 132.72126,974.16104 c -1.108,0 -2,0.892 -2,2 l 0,23.99996 c 0,1.108 0.892,2 2,2 l 24,0 c 1.108,0 2,-0.892 2,-2 l 0,-23.99996 c 0,-1.108 -0.892,-2 -2,-2 l -24,0 z m 0,1.03125 24,0 c 0.54712,0 0.96875,0.42163 0.96875,0.96875 l 0,23.99996 c 0,0.5472 -0.42163,0.9688 -0.96875,0.9688 l -24,0 c -0.54712,0 -0.96875,-0.4216 -0.96875,-0.9688 l 0,-23.99996 c 0,-0.54712 0.42163,-0.96875 0.96875,-0.96875 z"
           inkscape:connector-curvature="0"
           id="rect4107"
           style="opacity:0.3;fill:#ffffff;fill-opacity:1;stroke:none" />
        <rect
           width="28"
           height="28"
           rx="2"
           ry="2"
           x="130.72125"
           y="-1034.161"
           transform="scale(1,-1)"
           id="rect4144"
           style="opacity:0.2;fill:url(#linearGradient7184);fill-opacity:1;stroke:none" />
        <path
           d="m 132.72126,1006.161 c -1.108,0 -2,0.892 -2,2 l 0,24 c 0,1.108 0.892,2 2,2 l 24,0 c 1.108,0 2,-0.892 2,-2 l 0,-24 c 0,-1.108 -0.892,-2 -2,-2 l -24,0 z m 0,1.0313 24,0 c 0.54712,0 0.96875,0.4216 0.96875,0.9687 l 0,24 c 0,0.5472 -0.42163,0.9688 -0.96875,0.9688 l -24,0 c -0.54712,0 -0.96875,-0.4216 -0.96875,-0.9688 l 0,-24 c 0,-0.5471 0.42163,-0.9687 0.96875,-0.9687 z"
           inkscape:connector-curvature="0"
           id="path4148"
           style="opacity:0.3;fill:#ffffff;fill-opacity:1;stroke:none" />
        <rect
           width="28"
           height="28"
           rx="2"
           ry="2"
           x="162.72125"
           y="-1034.161"
           transform="scale(1,-1)"
           id="rect4156"
           style="opacity:0.2;fill:url(#linearGradient7186);fill-opacity:1;stroke:none" />
        <path
           d="m 164.72126,1006.161 c -1.108,0 -2,0.892 -2,2 l 0,24 c 0,1.108 0.892,2 2,2 l 24,0 c 1.108,0 2,-0.892 2,-2 l 0,-24 c 0,-1.108 -0.892,-2 -2,-2 l -24,0 z m 0,1.0313 24,0 c 0.54712,0 0.96875,0.4216 0.96875,0.9687 l 0,24 c 0,0.5472 -0.42163,0.9688 -0.96875,0.9688 l -24,0 c -0.54712,0 -0.96875,-0.4216 -0.96875,-0.9688 l 0,-24 c 0,-0.5471 0.42163,-0.9687 0.96875,-0.9687 z"
           inkscape:connector-curvature="0"
           id="path4160"
           style="opacity:0.3;fill:#ffffff;fill-opacity:1;stroke:none" />
        <rect
           width="28"
           height="28"
           rx="2"
           ry="2"
           x="162.72125"
           y="-1002.161"
           transform="scale(1,-1)"
           id="rect4168"
           style="opacity:0.2;fill:url(#linearGradient7188);fill-opacity:1;stroke:none" />
        <path
           d="m 164.72126,974.16104 c -1.108,0 -2,0.892 -2,2 l 0,23.99996 c 0,1.108 0.892,2 2,2 l 24,0 c 1.108,0 2,-0.892 2,-2 l 0,-23.99996 c 0,-1.108 -0.892,-2 -2,-2 l -24,0 z m 0,1.03125 24,0 c 0.54712,0 0.96875,0.42163 0.96875,0.96875 l 0,23.99996 c 0,0.5472 -0.42163,0.9688 -0.96875,0.9688 l -24,0 c -0.54712,0 -0.96875,-0.4216 -0.96875,-0.9688 l 0,-23.99996 c 0,-0.54712 0.42163,-0.96875 0.96875,-0.96875 z"
           inkscape:connector-curvature="0"
           id="path4172"
           style="opacity:0.3;fill:#ffffff;fill-opacity:1;stroke:none" />
      </g>
    </g>
  </g>
</svg>
