<?xml version="1.0" encoding="UTF-8" standalone="no"?>
<!-- Created with Inkscape (http://www.inkscape.org/) -->

<svg
   xmlns:dc="http://purl.org/dc/elements/1.1/"
   xmlns:cc="http://creativecommons.org/ns#"
   xmlns:rdf="http://www.w3.org/1999/02/22-rdf-syntax-ns#"
   xmlns:svg="http://www.w3.org/2000/svg"
   xmlns="http://www.w3.org/2000/svg"
   xmlns:xlink="http://www.w3.org/1999/xlink"
   xmlns:sodipodi="http://sodipodi.sourceforge.net/DTD/sodipodi-0.dtd"
   xmlns:inkscape="http://www.inkscape.org/namespaces/inkscape"
   width="96"
   height="96"
   id="svg2982"
   version="1.1"
   inkscape:version="0.48.1 r9760"
   sodipodi:docname="templat-ikon-96x96.svg">
  <defs
     id="defs2984">
    <filter
       color-interpolation-filters="sRGB"
       inkscape:collect="always"
       id="filter6221">
      <feGaussianBlur
         inkscape:collect="always"
         stdDeviation="1.2"
         id="feGaussianBlur6223" />
    </filter>
    <linearGradient
       inkscape:collect="always"
       xlink:href="#linearGradient3700-7"
       id="linearGradient4957"
       gradientUnits="userSpaceOnUse"
       gradientTransform="matrix(0.95238095,0,0,0.95238095,2.2857041,958.6479)"
       x1="48"
       y1="90"
       x2="47.998997"
       y2="-59.097267" />
    <linearGradient
       id="linearGradient3700-7">
      <stop
         id="stop3702-1"
         style="stop-color:#344262;stop-opacity:1"
         offset="0" />
      <stop
         id="stop3704-2"
         style="stop-color:#4a5e8c;stop-opacity:1"
         offset="1" />
    </linearGradient>
    <linearGradient
       y2="138.66119"
       x2="48"
       y1="20.220806"
       x1="48"
       gradientUnits="userSpaceOnUse"
       id="linearGradient3054"
       xlink:href="#linearGradient3737-6"
       inkscape:collect="always" />
    <linearGradient
       id="linearGradient3737-6">
      <stop
         id="stop3739-2"
         style="stop-color:#ffffff;stop-opacity:1"
         offset="0" />
      <stop
         id="stop3741-17"
         style="stop-color:#ffffff;stop-opacity:0"
         offset="1" />
    </linearGradient>
    <clipPath
       id="clipPath3613-8">
      <rect
         width="84"
         height="84"
         rx="6"
         ry="6"
         x="6"
         y="6"
         id="rect3615-5"
         style="fill:#ffffff;fill-opacity:1;fill-rule:nonzero;stroke:none" />
    </clipPath>
    <filter
       x="-0.192"
       y="-0.192"
       width="1.3839999"
       height="1.3839999"
       color-interpolation-filters="sRGB"
       id="filter3794-7">
      <feGaussianBlur
         id="feGaussianBlur3796-41"
         stdDeviation="5.28" />
    </filter>
    <linearGradient
       inkscape:collect="always"
       xlink:href="#linearGradient3710"
       id="linearGradient4946"
       gradientUnits="userSpaceOnUse"
       gradientTransform="translate(100.52312,950.07667)"
       x1="56"
       y1="64"
       x2="16"
       y2="64" />
    <linearGradient
       id="linearGradient3710">
      <stop
         id="stop3712"
         style="stop-color:#d9822e;stop-opacity:1"
         offset="0" />
      <stop
         id="stop3714"
         style="stop-color:#d9822e;stop-opacity:0"
         offset="1" />
    </linearGradient>
  </defs>
  <sodipodi:namedview
     id="base"
     pagecolor="#ffffff"
     bordercolor="#666666"
     borderopacity="1.0"
     inkscape:pageopacity="0.0"
     inkscape:pageshadow="2"
     inkscape:zoom="3.959798"
     inkscape:cx="36.39115"
     inkscape:cy="42.877139"
     inkscape:document-units="px"
     inkscape:current-layer="layer1"
     showgrid="false"
     inkscape:window-width="1280"
     inkscape:window-height="725"
     inkscape:window-x="0"
     inkscape:window-y="25"
     inkscape:window-maximized="1" />
  <metadata
     id="metadata2987">
    <rdf:RDF>
      <cc:Work
         rdf:about="">
        <dc:format>image/svg+xml</dc:format>
        <dc:type
           rdf:resource="http://purl.org/dc/dcmitype/StillImage" />
        <dc:title></dc:title>
      </cc:Work>
    </rdf:RDF>
  </metadata>
  <g
     inkscape:label="Layer 1"
     inkscape:groupmode="layer"
     id="layer1"
     transform="translate(0,-956.36218)">
    <g
       id="g4960">
      <rect
         transform="translate(-1.7480468e-7,-5.2343748e-6)"
         y="964.54077"
         x="8"
         height="80"
         width="80"
         id="rect10662"
         style="fill:#000000;fill-opacity:1;stroke:none;filter:url(#filter6221)"
         rx="5"
         ry="5" />
      <rect
         width="80"
         height="80"
         rx="5"
         ry="5"
         x="8"
         y="964.36218"
         id="rect2419"
         style="fill:url(#linearGradient4957);fill-opacity:1;fill-rule:nonzero;stroke:none" />
      <g
         style="display:inline"
         id="layer5"
         transform="translate(126.5,968.36218)" />
      <g
         style="display:inline"
         id="layer5-8"
         transform="translate(0,956.36218)">
        <rect
           style="opacity:0.1;fill:url(#linearGradient3054);fill-opacity:1;fill-rule:nonzero;stroke:#ffffff;stroke-width:0.5;stroke-linecap:round;stroke-linejoin:miter;stroke-miterlimit:4;stroke-opacity:1;stroke-dasharray:none;stroke-dashoffset:0;filter:url(#filter3794-7)"
           id="rect3171"
           clip-path="url(#clipPath3613-8)"
           y="15"
           x="15"
           ry="12"
           rx="12"
           height="66"
           width="66" />
      </g>
      <g
         transform="matrix(0.6547619,0,0,0.6547619,-49.33628,348.6838)"
         id="g18602">
        <path
           style="fill:#bdd1e3;fill-opacity:1"
           id="path3672"
           inkscape:connector-curvature="0"
           d="m 168.22861,991.13178 c -0.65008,-0.003 -1.31625,0.0766 -1.95632,0.23713 -1.53161,0.38419 -2.95453,1.16812 -4.13791,2.28829 -0.21474,0.20327 -0.40083,0.36756 -0.41498,0.36756 -0.0142,0 -0.1337,-0.14844 -0.2727,-0.33199 -0.33708,-0.44511 -0.93486,-1.02951 -1.38721,-1.35163 -0.72653,-0.51737 -1.75194,-0.94712 -2.65585,-1.11451 -0.54221,-0.10042 -2.0035,-0.10284 -2.52543,-0.0118 -1.89129,0.32968 -3.51114,1.18141 -4.95601,2.62028 -0.82357,0.82015 -1.36634,1.60362 -1.86146,2.67956 -0.20673,0.47492 -0.2102,0.48106 -0.26085,1.23308 -0.0713,1.05884 -0.19077,1.67666 -0.50983,2.56105 -0.0795,0.2204 -0.16942,0.6364 -0.27269,1.3042 -0.0896,0.6173 -0.23427,1.6214 -0.46241,3.1775 -0.11686,0.7971 -0.16147,1.2139 -0.13042,1.2331 0.0803,0.05 0.45454,0.011 0.80624,-0.083 0.2708,-0.073 0.52399,-0.1847 0.77067,-0.3201 0.086,-0.047 0.16683,-0.1002 0.24899,-0.1541 0.0356,-0.023 0.0719,-0.047 0.10671,-0.071 0.0808,-0.057 0.16088,-0.1147 0.23713,-0.1778 0.52904,-0.4382 0.94299,-1.016 1.16193,-1.6599 0.0306,-0.1024 0.0635,-0.2224 0.0948,-0.3676 0.0152,-0.073 0.0376,-0.1886 0.0593,-0.3083 0.038,-0.2097 0.0673,-0.3849 0.11857,-0.6996 0.0715,-0.4384 0.14765,-0.9146 0.22527,-1.4465 0.1908,-1.30736 0.3875,-2.53985 0.43869,-2.73876 0.0512,-0.19892 0.20683,-0.58379 0.34384,-0.86553 0.69649,-1.4323 2.01457,-2.54019 3.4858,-2.92855 0.31747,-0.0838 0.50859,-0.10525 1.16194,-0.1067 0.90709,-0.002 1.2428,0.0707 1.88518,0.40312 0.74178,0.38392 1.46984,1.26216 1.7429,2.09859 0.29618,0.90728 0.29188,1.17748 -0.13042,4.06673 -0.3654,2.5 -0.40049,2.9715 -0.2727,3.4621 0.20143,0.7733 0.84938,1.4811 1.61248,1.7666 0.26138,0.098 0.86117,0.1889 0.93666,0.1423 0.0245,-0.015 0.2875,-1.7299 0.59283,-3.8178 0.54006,-3.69295 0.63881,-4.25762 0.82995,-4.74255 0.54212,-1.37536 1.81739,-2.62631 3.18939,-3.13011 0.59039,-0.21679 0.81611,-0.2473 1.62434,-0.24898 0.91525,-0.002 1.15317,0.043 1.81404,0.36755 0.69764,0.34263 1.31656,1.00132 1.68362,1.77847 0.27276,0.57748 0.32167,0.84149 0.32013,1.67176 -0.001,0.67602 -0.0238,0.91493 -0.33199,2.96406 -0.38179,2.5388 -0.39623,2.8735 -0.17784,3.4621 0.28983,0.7812 0.97975,1.426 1.75476,1.6243 0.29265,0.075 0.70192,0.1044 0.74695,0.059 0.0148,-0.015 0.12426,-0.7199 0.24899,-1.5769 0.25214,-1.7324 0.26115,-1.7666 0.32012,-1.7666 0.023,0 0.0984,0.1101 0.17785,0.249 0.37268,0.6513 1.16721,1.52 1.81404,1.98 0.70642,0.5024 1.60916,0.8695 2.53729,1.0434 0.46101,0.086 0.7382,0.099 3.03526,0.1185 1.38761,0.012 2.57035,0 2.63214,-0.012 0.10847,-0.027 0.10779,-0.039 0.1067,-0.4268 -7.5e-4,-0.2211 -0.0213,-0.4915 -0.0474,-0.6047 -0.14206,-0.6165 -0.65695,-1.286 -1.23307,-1.5888 -0.48583,-0.2553 -0.7914,-0.2955 -1.99189,-0.2964 -1.0999,-8e-4 -1.5787,-0.056 -2.12231,-0.2371 -0.85364,-0.2838 -1.7108,-1.0808 -2.12231,-1.9801 -0.60641,-1.32511 -0.39234,-3.03951 0.55726,-4.4698 0.28382,-0.42751 1.03887,-1.18217 1.49391,-1.49392 0.45067,-0.30874 1.01434,-0.57942 1.54135,-0.7351 0.39203,-0.11581 0.48546,-0.11973 1.81404,-0.15413 1.5184,-0.0393 1.69843,-0.074 2.25273,-0.33199 0.60964,-0.28378 1.28195,-0.8779 1.61248,-1.43463 0.18053,-0.30408 0.35682,-0.76742 0.37941,-0.99594 l 0.0118,-0.166 -2.39501,-0.0118 c -2.49035,-0.014 -2.93538,0.0155 -3.74665,0.18971 -2.12814,0.45697 -4.25537,1.94187 -5.57254,3.90078 -0.32199,0.47887 -0.33932,0.48471 -0.50983,0 -0.48762,-1.3862 -1.69559,-2.73424 -3.05897,-3.41467 -0.87962,-0.439 -1.92808,-0.67044 -3.01154,-0.67582 z" />
        <path
           style="fill:#85c226;fill-opacity:1"
           id="path3670"
           inkscape:connector-curvature="0"
           d="m 134.40207,987.39698 c -0.20544,0 -0.24106,0.0158 -0.26084,0.10671 -0.0124,0.057 -0.13239,0.90041 -0.2727,1.87333 -0.14032,0.97291 -0.27016,1.77589 -0.28456,1.79032 -0.0144,0.0144 -1.0214,0.0442 -2.24087,0.0593 -2.169,0.0269 -2.23093,0.0241 -2.77441,0.14228 -1.75744,0.38197 -3.27526,1.2369 -4.7426,2.66771 l -0.52168,0.49797 -0.083,-0.13042 c -0.54432,-0.87893 -0.95307,-1.37112 -1.51763,-1.83775 -0.84265,-0.69649 -1.77421,-1.10503 -2.94041,-1.2805 -0.36626,-0.0551 -0.96922,-0.0709 -2.95226,-0.0711 -2.23029,-2.3e-4 -2.48857,0.006 -2.51357,0.0711 -0.0522,0.13593 -0.0296,0.86982 0.0356,1.11451 0.19073,0.7165 0.72766,1.29755 1.44649,1.57691 0.2416,0.0939 0.36452,0.11125 1.56505,0.14228 1.43395,0.0371 1.74683,0.0832 2.31202,0.32012 0.92726,0.38869 1.71332,1.32605 1.98003,2.3713 0.17643,0.69143 0.10737,1.698 -0.16599,2.50171 -0.57115,1.67924 -2.11996,3.12304 -3.8415,3.58064 -0.40089,0.1066 -0.55994,0.1218 -1.8259,0.1541 -1.4604,0.037 -1.62209,0.059 -2.15788,0.2964 -0.56884,0.2516 -1.20831,0.7865 -1.58877,1.328 -0.24421,0.3476 -0.50258,0.8996 -0.52168,1.1382 l -0.0118,0.1541 2.26458,0.024 c 2.35228,0.014 2.95792,-0.015 3.75851,-0.1778 1.67831,-0.341 3.31742,-1.2648 4.75445,-2.6796 0.25164,-0.2477 0.45626,-0.4505 0.4624,-0.4505 0.006,0 0.11515,0.162 0.23713,0.3675 0.73669,1.2413 1.85266,2.1506 3.20125,2.5966 0.91509,0.3026 1.06595,0.3119 3.93635,0.332 l 2.58471,0.024 0.0474,-0.1186 c 0.0682,-0.1795 0.0549,-0.7536 -0.0237,-1.0552 -0.20499,-0.787 -0.77466,-1.4044 -1.52949,-1.648 -0.27165,-0.088 -0.4667,-0.1 -1.67176,-0.1305 -1.53215,-0.039 -1.73294,-0.071 -2.39501,-0.4149 -1.08842,-0.5663 -1.83609,-1.8305 -1.83775,-3.10642 -7.6e-4,-0.66744 0.23049,-1.6355 0.53354,-2.24087 0.54257,-1.08385 1.63349,-2.1494 2.7507,-2.67957 0.78736,-0.37363 1.48734,-0.48605 3.0234,-0.48611 0.7351,-3e-5 0.96688,-0.0236 1.24493,-0.0948 0.41955,-0.10748 0.76757,-0.25459 1.0908,-0.47426 0.13546,-0.0921 0.26258,-0.16599 0.2727,-0.16599 0.0482,0 -0.0131,0.44099 -0.33198,2.62028 -0.44412,3.03473 -0.44035,3.036 -0.43869,3.79407 0.004,1.72887 0.60018,3.15787 1.86146,4.42247 0.71328,0.7152 1.41598,1.1695 2.33573,1.4939 0.36378,0.1284 1.1502,0.2883 1.56506,0.332 0.35816,0.038 1.32914,0.033 1.69547,-0.012 1.67086,-0.202 3.11504,-0.8158 4.51732,-1.9326 1.05109,-0.8372 1.88063,-1.828 2.48986,-2.976 0.11029,-0.2078 0.20668,-0.3743 0.21342,-0.3676 -0.23279,1.3196 -0.0113,0.3407 0.15413,-0.4505 0.31906,-0.88437 0.43854,-1.50219 0.50983,-2.56103 l 0.0237,-0.71139 -0.083,-0.55725 c -0.17697,-1.18967 -0.63265,-2.1827 -1.43463,-3.13011 -0.71368,-0.8431 -1.63976,-1.48697 -2.66771,-1.84961 -1.01356,-0.35757 -1.72722,-0.41283 -4.80187,-0.41498 l -2.06303,-0.0118 0.0356,-0.23713 c 0.16489,-1.28944 -0.0177,-1.9588 -0.71139,-2.65585 -0.50408,-0.5065 -1.09786,-0.78253 -1.69547,-0.78253 l 3e-5,-2e-5 z m 1.96818,6.66334 2.54914,0.0237 c 2.87127,0.0196 2.85369,0.0176 3.60437,0.37941 1.40615,0.67779 2.23817,2.24926 2.05117,3.86521 -0.14103,1.21869 -0.62379,2.24256 -1.43463,3.08266 -0.85023,0.8811 -1.69386,1.3769 -2.69142,1.5888 -0.49184,0.1045 -1.44654,0.1182 -1.92075,0.024 -1.41172,-0.2812 -2.57796,-1.5121 -2.84556,-2.9878 -0.10761,-0.59345 -0.0701,-1.11479 0.2727,-3.48584 0.18064,-1.24948 0.35532,-2.32481 0.37941,-2.38315 l 0.0356,-0.10671 z" />
        <path
           style="fill:url(#linearGradient4946);fill-opacity:1"
           id="path3666"
           inkscape:connector-curvature="0"
           d="m 190.52312,1012.0454 c -18.49661,0.2639 -37.45707,0.2637 -56,0.2813 -14.59443,0.01 -24.44431,0.01 -28,0 l 0,0.625 c 10.79692,-0.035 34.35883,0.058 42.3125,0.1875 13.44718,0.306 28.52453,0.4678 41.4375,2.3125 0.007,0.01 -0.0155,0.018 -0.0312,0.031 0.0723,-0.033 0.19104,-0.046 0.25,-0.031 0.006,0 0.0231,-2e-4 0.0312,0 l 0,-3.4063 z" />
      </g>
    </g>
  </g>
</svg>
