<?xml version="1.0" encoding="UTF-8" standalone="no"?>
<!-- Created with Inkscape (http://www.inkscape.org/) -->

<svg
   xmlns:dc="http://purl.org/dc/elements/1.1/"
   xmlns:cc="http://creativecommons.org/ns#"
   xmlns:rdf="http://www.w3.org/1999/02/22-rdf-syntax-ns#"
   xmlns:svg="http://www.w3.org/2000/svg"
   xmlns="http://www.w3.org/2000/svg"
   xmlns:xlink="http://www.w3.org/1999/xlink"
   xmlns:sodipodi="http://sodipodi.sourceforge.net/DTD/sodipodi-0.dtd"
   xmlns:inkscape="http://www.inkscape.org/namespaces/inkscape"
   width="96"
   height="96"
   id="svg2982"
   version="1.1"
   inkscape:version="0.48.1 r9760"
   sodipodi:docname="xfce4-panel.svg">
  <defs
     id="defs2984">
    <filter
       color-interpolation-filters="sRGB"
       inkscape:collect="always"
       id="filter6279-2">
      <feGaussianBlur
         inkscape:collect="always"
         stdDeviation="0.8"
         id="feGaussianBlur6281-1" />
    </filter>
    <linearGradient
       inkscape:collect="always"
       xlink:href="#linearGradient3617-92"
       id="linearGradient5979"
       gradientUnits="userSpaceOnUse"
       gradientTransform="translate(0,-7.8515622e-6)"
       x1="48"
       y1="1052.3622"
       x2="48"
       y2="902.36218" />
    <linearGradient
       id="linearGradient3617-92"
       y2="5.9877"
       gradientUnits="userSpaceOnUse"
       x2="48"
       y1="90"
       x1="48"
       gradientTransform="translate(-26.459364,3.3922261)">
      <stop
         id="stop3616"
         style="stop-color:#b9b9b9"
         offset="0" />
      <stop
         id="stop3618"
         style="stop-color:#dedede"
         offset="1" />
    </linearGradient>
    <linearGradient
       inkscape:collect="always"
       xlink:href="#linearGradient3737-58"
       id="linearGradient5868"
       gradientUnits="userSpaceOnUse"
       x1="48"
       y1="20.221001"
       x2="48"
       y2="138.66" />
    <linearGradient
       id="linearGradient3737-58">
      <stop
         id="stop3739-55"
         style="stop-color:#fff"
         offset="0" />
      <stop
         id="stop3741-07"
         style="stop-color:#fff;stop-opacity:0"
         offset="1" />
    </linearGradient>
    <clipPath
       id="clipPath3613-38">
      <rect
         id="rect3615-23"
         style="fill:#ffffff"
         rx="6"
         ry="6"
         height="84"
         width="84"
         y="6"
         x="6" />
    </clipPath>
    <filter
       id="filter3794-07"
       height="1.3839999"
       width="1.3839999"
       color-interpolation-filters="sRGB"
       y="-0.192"
       x="-0.192">
      <feGaussianBlur
         id="feGaussianBlur3796-77"
         stdDeviation="5.28" />
    </filter>
    <linearGradient
       inkscape:collect="always"
       xlink:href="#linearGradient3972"
       id="linearGradient5890"
       gradientUnits="userSpaceOnUse"
       gradientTransform="matrix(0.83332793,0,0,0.83332793,8.16675,964.52928)"
       x1="22"
       y1="76"
       x2="22"
       y2="-0.23647" />
    <linearGradient
       id="linearGradient3972"
       y2="-0.23647"
       gradientUnits="userSpaceOnUse"
       x2="22"
       y1="76"
       x1="22">
      <stop
         id="stop3992"
         style="stop-color:#5d5d5d"
         offset="0" />
      <stop
         id="stop3994"
         style="stop-color:#909090"
         offset="1" />
    </linearGradient>
    <linearGradient
       inkscape:collect="always"
       xlink:href="#linearGradient3947"
       id="linearGradient5887"
       gradientUnits="userSpaceOnUse"
       gradientTransform="matrix(0.83332793,0,0,0.83332793,8.16675,964.52928)"
       x1="22"
       y1="21"
       x2="22"
       y2="75.083" />
    <linearGradient
       id="linearGradient3947"
       y2="75.083"
       gradientUnits="userSpaceOnUse"
       x2="22"
       y1="21"
       x1="22">
      <stop
         id="stop3702-9"
         style="stop-color:#ebebeb"
         offset="0" />
      <stop
         id="stop3704-77"
         style="stop-color:#c8c8c8"
         offset="1" />
    </linearGradient>
    <linearGradient
       inkscape:collect="always"
       xlink:href="#linearGradient3737-64"
       id="linearGradient5884"
       gradientUnits="userSpaceOnUse"
       gradientTransform="matrix(0.83332793,0,0,0.83332793,8.16675,964.52928)"
       x1="21"
       y1="21"
       x2="21"
       y2="71" />
    <linearGradient
       id="linearGradient3737-64">
      <stop
         id="stop3739-30"
         style="stop-color:#fff"
         offset="0" />
      <stop
         id="stop3741-30"
         style="stop-color:#fff;stop-opacity:0"
         offset="1" />
    </linearGradient>
    <linearGradient
       inkscape:collect="always"
       xlink:href="#linearGradient4008"
       id="linearGradient5881"
       gradientUnits="userSpaceOnUse"
       gradientTransform="matrix(0.83332793,0,0,0.83332793,8.16675,964.52928)"
       x1="23"
       y1="42"
       x2="23"
       y2="52" />
    <linearGradient
       id="linearGradient4008"
       y2="52"
       gradientUnits="userSpaceOnUse"
       x2="23"
       y1="42"
       x1="23">
      <stop
         id="stop3956"
         style="stop-color:#1a1a1a"
         offset="0" />
      <stop
         id="stop3958"
         style="stop-color:#3a3a3a"
         offset="1" />
    </linearGradient>
    <linearGradient
       x1="316.37381"
       y1="155.22179"
       x2="316.37381"
       y2="438.43384"
       id="linearGradient3367"
       xlink:href="#ButtonShadow-9"
       gradientUnits="userSpaceOnUse"
       gradientTransform="matrix(0.06165599,0,0,0.06165599,34.470144,30.102515)" />
    <linearGradient
       x1="45.447727"
       y1="92.539597"
       x2="45.447727"
       y2="7.0165396"
       id="ButtonShadow-9"
       gradientUnits="userSpaceOnUse"
       gradientTransform="scale(1.0058652,0.994169)">
      <stop
         id="stop3750-9"
         style="stop-color:#000000;stop-opacity:1"
         offset="0" />
      <stop
         id="stop3752-6"
         style="stop-color:#000000;stop-opacity:0.58823532"
         offset="1" />
    </linearGradient>
  </defs>
  <sodipodi:namedview
     id="base"
     pagecolor="#ffffff"
     bordercolor="#666666"
     borderopacity="1.0"
     inkscape:pageopacity="0.0"
     inkscape:pageshadow="2"
     inkscape:zoom="3.959798"
     inkscape:cx="36.39115"
     inkscape:cy="42.877139"
     inkscape:document-units="px"
     inkscape:current-layer="layer1"
     showgrid="false"
     inkscape:window-width="1280"
     inkscape:window-height="725"
     inkscape:window-x="0"
     inkscape:window-y="25"
     inkscape:window-maximized="1" />
  <metadata
     id="metadata2987">
    <rdf:RDF>
      <cc:Work
         rdf:about="">
        <dc:format>image/svg+xml</dc:format>
        <dc:type
           rdf:resource="http://purl.org/dc/dcmitype/StillImage" />
        <dc:title></dc:title>
      </cc:Work>
    </rdf:RDF>
  </metadata>
  <g
     inkscape:label="Layer 1"
     inkscape:groupmode="layer"
     id="layer1"
     transform="translate(0,-956.36218)">
    <g
       id="g5923">
      <rect
         transform="translate(0,-7.8515622e-6)"
         y="964.36218"
         x="8"
         height="80"
         width="80"
         id="rect9283"
         style="fill:#000000;fill-opacity:1;stroke:none;filter:url(#filter6279-2)"
         rx="5"
         ry="5" />
      <rect
         ry="5"
         rx="5"
         style="fill:url(#linearGradient5979);fill-opacity:1;stroke:none"
         id="rect9285"
         width="80"
         height="80"
         x="8"
         y="964.36218" />
      <rect
         x="15"
         y="15"
         width="66"
         height="66"
         ry="12"
         rx="12"
         clip-path="url(#clipPath3613-38)"
         style="opacity:0.1;fill:url(#linearGradient5868);stroke:#ffffff;stroke-width:0.5;stroke-linecap:round;filter:url(#filter3794-07)"
         id="rect3171"
         transform="translate(0,956.36218)" />
      <g
         id="g5914">
        <path
           inkscape:connector-curvature="0"
           id="rect3935"
           style="color:#000000;fill:url(#linearGradient5890)"
           d="m 23.99998,978.69588 h 6.66662 c 1.385,0 2.49999,1.115 2.49999,2.5 v 46.66632 c 0,1.385 -1.11499,2.5 -2.49999,2.5 h -6.66662 c -1.38499,0 -2.49998,-1.115 -2.49998,-2.5 v -46.66632 c 0,-1.385 1.11499,-2.5 2.49998,-2.5 z" />
        <path
           inkscape:connector-curvature="0"
           id="path3939"
           style="color:#000000;fill:url(#linearGradient5887)"
           d="m 23.99998,979.50338 c -0.94708,0 -1.69266,0.7456 -1.69266,1.6926 v 46.66642 c 0,0.9471 0.74567,1.6926 1.69266,1.6926 h 6.66662 c 0.94708,0 1.69266,-0.7456 1.69266,-1.6926 v -46.66642 c 0,-0.9471 -0.74566,-1.6926 -1.69266,-1.6926 h -6.66662 z" />
        <path
           inkscape:connector-curvature="0"
           id="path3949"
           style="opacity:0.8;color:#000000;fill:url(#linearGradient5884)"
           d="m 23.99998,979.50338 c -0.94708,0 -1.69266,0.7456 -1.69266,1.6926 v 46.66642 c 0,0.9471 0.74567,1.6926 1.69266,1.6926 h 6.66662 c 0.94708,0 1.69266,-0.7456 1.69266,-1.6926 v -46.66642 c 0,-0.9471 -0.74566,-1.6926 -1.69266,-1.6926 h -6.66662 z m 0,0.8854 h 6.66662 c 0.47978,0 0.80729,0.3275 0.80729,0.8073 v 46.66632 c 0,0.4798 -0.32751,0.8073 -0.80729,0.8073 h -6.66662 c -0.47977,0 -0.80729,-0.3275 -0.80729,-0.8073 v -46.66632 c 0,-0.4798 0.32752,-0.8073 0.80729,-0.8073 z" />
        <path
           inkscape:connector-curvature="0"
           id="path4000"
           style="opacity:0.8;fill:url(#linearGradient5881)"
           d="m 23.99998,1003.6957 5.8333,4.1667 v -8.33332 l -5.8333,4.16662 z" />
        <g
           transform="translate(-1.247384,955.97716)"
           style="display:inline"
           id="g3056">
          <path
             style="fill:url(#linearGradient3367);fill-opacity:1;fill-rule:evenodd;stroke:none"
             id="path602"
             inkscape:connector-curvature="0"
             d="m 70.166025,46.184499 c -0.659546,-0.131362 -2.65548,1.084866 -2.510651,1.207347 0.204799,0.173158 2.824045,-1.138733 2.510651,-1.207347 z m -3.234571,-1.403782 c 0.599641,0.282173 1.476689,-0.188018 1.327795,-0.204678 -1.294536,-0.143553 -1.516861,-0.749345 -1.714686,-1.34289 -0.19168,-0.19835 -0.231728,1.201369 0.386891,1.547568 z m 1.681487,-1.535667 c 0,0.377256 -0.280899,0.713413 -0.641614,0.713413 -0.36071,0 -0.665461,-0.336157 -0.665461,-0.713413 0,-0.377315 0.29285,-0.683519 0.653511,-0.683519 0.36071,0 0.653564,0.306204 0.653564,0.683519 z M 35.507855,36.337265 c -0.145303,-0.246455 0.96088,0.195798 1.791632,0.659873 0.830758,0.464076 3.081934,1.332083 3.763961,1.47016 1.762378,0.356789 5.848415,2.436958 8.504287,5.212271 0.333781,0.331979 1.246047,-1.083615 3.298323,-0.733933 0.590004,0.05573 5.342941,1.320658 7.318669,0.945491 0.675539,-0.425893 0.666563,-1.580971 1.312903,-2.095698 -0.0027,-0.436001 -0.374434,-1.84045 -0.378095,-2.138527 -0.02161,-1.037613 0.950397,-1.549365 1.230303,-1.491666 0.292222,0.07459 0.755361,-0.0069 1.803419,2.558137 0.310753,0.480717 0.788833,0.672306 0.739476,0.213299 -0.578092,-1.793151 -0.987678,-3.706798 0.376524,-3.898475 0.18892,0.0011 1.492873,-0.649112 1.824318,2.041568 0.05782,0.397515 0.04343,1.516912 0.06717,1.919419 0.04529,0.348232 3.477829,-0.109556 6.835111,2.086236 0.391421,0.235444 2.052909,1.923862 0.432489,3.263965 -1.086943,0.901396 -5.802867,3.224794 -6.118303,3.446364 -0.17974,0.123169 -0.348999,0.658343 -0.110215,1.105907 0.298022,0.55857 0.435298,0.380101 1.417886,1.594985 0.982586,1.214885 0.769974,1.78282 -0.788108,1.385597 -0.520872,-0.132793 -1.864197,-0.836162 -2.413973,-0.641873 -0.257266,0.09096 1.282055,1.567685 1.490565,2.151478 0.691091,1.848257 -1.654018,0.856526 -2.509926,0.448779 -0.855902,-0.407746 -2.340415,-1.277507 -2.867382,-1.305719 -1.023863,0.439152 -6.555981,0.923738 -11.472726,-0.24212 -0.299299,0.08069 -2.793585,2.584913 -2.977424,2.680054 -1.539862,0.486695 -0.352072,-1.81247 -0.104951,-2.7652 0.121299,-0.467651 -0.217393,-0.186004 -0.509238,-0.01903 -0.137424,0.07862 -1.049297,0.441728 -1.630477,0.176767 -0.581181,-0.264962 1.249315,-2.113484 1.446387,-2.403842 0.27196,-0.342281 -0.819992,-3.539446 1.485108,-7.198811 -0.23504,-0.426539 -3.229163,-2.948965 -5.447068,-4.184523 -2.095892,-1.194635 -7.158076,-3.469734 -7.295162,-3.627567 -0.219925,-0.156498 -0.843521,-0.601466 -0.515481,-0.613367 z m 35.042562,10.651959 c -0.555462,-0.04133 -1.919861,1.420851 -1.775033,1.543333 0.204853,0.173158 2.050874,-1.522145 1.775033,-1.543333 z m 4.701295,-7.406684 c -0.07221,-0.19103 -1.781346,1.964138 -1.480121,2.7564 0.131427,0.345665 1.707161,-2.155781 1.480121,-2.7564 z m -1.842817,-0.338463 c -0.63888,0.625462 -0.523017,2.934556 -0.383432,2.908892 0.654176,-0.120277 0.576379,-3.097786 0.383432,-2.908892 z" />
          <path
             style="opacity:0.2;fill:#000000;fill-opacity:1;stroke:none"
             id="path2870"
             inkscape:connector-curvature="0"
             d="M 70.6038,25.042725 58.61305,38.754773 47.497538,25.071899 l -9.831831,9.131642 3.967742,4.317836 c 2.086527,0.773705 5.359332,2.630886 7.643737,5.018027 0.344516,0.342655 1.295147,-1.119468 3.413425,-0.758539 0.60898,0.05752 5.516946,1.349992 7.556215,0.962761 0.650986,-0.410414 0.680622,-1.470102 1.225332,-2.042221 0.06805,0.336962 0.115671,0.648129 0.116698,0.816889 -0.667127,0.531281 -0.644765,1.719327 -1.34203,2.158918 -2.039269,0.387232 -6.947235,-0.905243 -7.556215,-0.962761 -2.118278,-0.360928 -3.068909,1.101194 -3.413425,0.758538 -1.822614,-1.904582 -4.26196,-3.479731 -6.243358,-4.434534 l 4.988852,5.42647 c 0.04475,-0.08733 0.06836,-0.17455 0.116698,-0.262571 0.166453,0.164086 0.282545,0.309627 0.320921,0.379269 -0.04745,0.07533 -0.07202,0.158419 -0.116699,0.233398 l 1.662951,1.808823 -13.6537,14.587286 8.898245,8.839895 12.545066,-14.703984 12.486717,14.499762 9.89018,-9.160816 -13.624525,-14.528936 1.487902,-1.517079 c -0.262098,0.05859 -0.555887,0.09364 -0.816887,-0.02917 -0.558696,-0.312667 -0.598516,-1.460337 -0.466794,-1.604601 7.76e-4,0.0027 0.02839,-0.0027 0.02918,0 0.04516,0.154998 0.116008,0.314307 0.204223,0.437618 0.0038,0.0081 -0.0039,0.02115 0,0.02917 0.0073,0.0098 0.02152,0.01977 0.02917,0.02918 0.190915,0.374551 0.544427,0.698286 1.283681,0.846062 L 71.187291,42.4016 c -2.091682,-0.56623 -3.70308,-0.459781 -3.734346,-0.700195 -0.02449,-0.415451 -0.02784,-1.573571 -0.08752,-1.983871 -0.342104,-2.777214 -1.672177,-2.099449 -1.867173,-2.100568 -0.557005,0.07827 -0.81783,0.445967 -0.904412,0.96276 -0.123189,-1.003137 0.05051,-1.776369 0.904412,-1.896347 0.04875,2.8e-4 0.161977,-0.03898 0.320921,-0.05835 0.476831,-0.0581 1.289674,0.076 1.546252,2.158919 0.05969,0.410298 0.06303,1.568418 0.08752,1.98387 0.03488,0.268199 2.021854,0.08031 4.46371,0.904412 l 1.546252,-1.604601 c 0.07516,-0.461956 0.210942,-0.886718 0.437619,-1.108634 0.05858,-0.05734 0.09966,0.204932 0.116699,0.554316 l 5.834914,-5.980787 -9.248339,-8.4898 z m -8.110532,12.807637 c 0.30162,0.07699 0.756234,-0.02179 1.837998,2.625711 0.18042,0.279101 0.421409,0.472115 0.583492,0.495968 0.06485,0.227067 0.131094,0.444184 0.204222,0.671015 0.05094,0.47377 -0.466967,0.262781 -0.787714,-0.233396 -1.081764,-2.647502 -1.536378,-2.548719 -1.837998,-2.625711 -0.236187,-0.04869 -0.955764,0.30873 -1.196157,1.021109 -0.02402,-0.131121 -0.08679,-0.348395 -0.08752,-0.408444 -0.02231,-1.070983 0.994773,-1.605806 1.283681,-1.546252 z m 5.280598,5.718216 c 0.126841,0.152718 0.296216,0.262571 0.495968,0.262571 0.186158,0 0.376944,-0.09798 0.495967,-0.233396 0.0956,0.12176 0.175047,0.267892 0.175047,0.437618 0,0.389389 -0.298699,0.729365 -0.671014,0.729365 -0.09308,0 -0.180724,-0.01974 -0.262572,-0.05835 0.373462,-0.0798 0.674684,-0.223193 0.583492,-0.233398 -0.414213,-0.04593 -0.729039,-0.139528 -0.962761,-0.26257 -0.01592,-0.06048 -0.02918,-0.110911 -0.02918,-0.175048 0,-0.178936 0.06995,-0.342382 0.175047,-0.466793 z m 0.729364,7.381167 c 0.0056,0.01165 0.02301,0.01763 0.02918,0.02917 0.307606,0.576535 0.444541,0.408995 1.458729,1.66295 0.646056,0.798795 0.77451,1.315953 0.379269,1.487904 -0.09906,-0.167362 -0.21412,-0.350113 -0.379274,-0.554313 -1.014188,-1.253955 -1.151122,-1.086415 -1.458728,-1.66295 -0.184848,-0.346468 -0.145024,-0.732115 -0.02917,-0.962761 z M 46.943221,52.00003 c 0.03552,0.537655 0.05222,0.918678 -0.02917,1.02111 -0.12507,0.184272 -0.854376,0.987254 -1.283682,1.633776 -0.07365,-0.01568 -0.137451,-0.05709 -0.204221,-0.08752 -0.599873,-0.273483 1.284493,-2.180142 1.487903,-2.479838 0.01197,-0.01507 0.02199,-0.06193 0.02917,-0.08752 z m 19.984582,2.304791 c 0.107108,0.0011 0.222757,0.0022 0.350095,0.02917 0.01053,0.0023 0.01854,0.02684 0.02918,0.02917 0.384553,0.460215 0.799229,0.960014 0.904412,1.254507 0.183902,0.491828 0.152652,0.770872 0,0.933586 -0.215216,-0.602568 -1.811792,-2.123382 -1.546253,-2.217268 0.07093,-0.02506 0.169297,-0.0301 0.262571,-0.02917 z M 47.614236,55.06336 c 0.05899,0.01052 0.07612,0.08156 0.02917,0.262571 -0.118938,0.458547 -0.455396,1.207542 -0.612666,1.837998 -0.225794,-0.360981 0.0824,-1.239452 0.350095,-1.983871 0.08525,-0.04801 0.185289,-0.125287 0.233397,-0.116698 z" />
        </g>
      </g>
    </g>
  </g>
</svg>
