<?xml version="1.0" encoding="UTF-8" standalone="no"?>
<!-- Created with Inkscape (http://www.inkscape.org/) -->
<svg id="svg2408" xmlns:rdf="http://www.w3.org/1999/02/22-rdf-syntax-ns#" xmlns="http://www.w3.org/2000/svg" height="96" width="96" version="1.0" xmlns:cc="http://creativecommons.org/ns#" xmlns:xlink="http://www.w3.org/1999/xlink" xmlns:dc="http://purl.org/dc/elements/1.1/">
 <defs id="defs2410">
  <linearGradient id="linearGradient4271">
   <stop id="stop4273" style="stop-color:#f60" offset="0"/>
   <stop id="stop4275" style="stop-color:#f60;stop-opacity:0" offset="1"/>
  </linearGradient>
  <linearGradient id="linearGradient4090">
   <stop id="stop4092" style="stop-color:#fff" offset="0"/>
   <stop id="stop4094" style="stop-color:#fff;stop-opacity:0" offset="1"/>
  </linearGradient>
  <linearGradient id="ButtonShadow" y2="7.0165" gradientUnits="userSpaceOnUse" x2="45.448" gradientTransform="scale(1.0059 .99417)" y1="92.54" x1="45.448">
   <stop id="stop3750" offset="0"/>
   <stop id="stop3752" style="stop-opacity:.58824" offset="1"/>
  </linearGradient>
  <filter id="filter3174" color-interpolation-filters="sRGB">
   <feGaussianBlur id="feGaussianBlur3176" stdDeviation="1.71"/>
  </filter>
  <linearGradient id="linearGradient3188" y2="63.893" xlink:href="#linearGradient4090" gradientUnits="userSpaceOnUse" x2="36.357" y1="6" x1="36.357"/>
  <filter id="filter3794" height="1.384" width="1.384" color-interpolation-filters="sRGB" y="-.192" x="-.192">
   <feGaussianBlur id="feGaussianBlur3796" stdDeviation="5.28"/>
  </filter>
  <linearGradient id="linearGradient3613" y2="138.66" xlink:href="#linearGradient4090" gradientUnits="userSpaceOnUse" x2="48" y1="20.221" x1="48"/>
  <radialGradient id="radialGradient3619" xlink:href="#linearGradient4090" gradientUnits="userSpaceOnUse" cy="90.172" cx="48" gradientTransform="matrix(1.1573 0 0 .99591 -7.551 .19713)" r="42"/>
  <clipPath id="clipPath3613">
   <rect id="rect3615" style="fill:#fff" rx="6" ry="6" height="84" width="84" y="6" x="6"/>
  </clipPath>
  <linearGradient id="linearGradient3617" y2="5.9877" gradientUnits="userSpaceOnUse" x2="48" y1="90" x1="48">
   <stop id="stop3702" style="stop-color:#2a76bd" offset="0"/>
   <stop id="stop3704" style="stop-color:#68b0f4" offset="1"/>
  </linearGradient>
  <linearGradient id="ButtonShadow-0" y2="7.0165" gradientUnits="userSpaceOnUse" x2="45.448" gradientTransform="matrix(1.0059 0 0 .99417 100 0)" y1="92.54" x1="45.448">
   <stop id="stop3750-8" offset="0"/>
   <stop id="stop3752-5" style="stop-opacity:.58824" offset="1"/>
  </linearGradient>
  <linearGradient id="linearGradient3780" y2="90.239" xlink:href="#ButtonShadow-0" gradientUnits="userSpaceOnUse" x2="32.251" gradientTransform="matrix(1.0238 0 0 1.0119 -1.1429 -98.071)" y1="6.1317" x1="32.251"/>
  <linearGradient id="linearGradient3721" y2="90.239" xlink:href="#ButtonShadow-0" gradientUnits="userSpaceOnUse" x2="32.251" gradientTransform="translate(0,-97)" y1="6.1317" x1="32.251"/>
  <linearGradient id="linearGradient3762-0">
   <stop id="stop3764-5" style="stop-color:#ffda56" offset="0"/>
   <stop id="stop3770-3" style="stop-color:#ffda56" offset=".64062"/>
   <stop id="stop3766-9" style="stop-color:#ffda56;stop-opacity:0" offset="1"/>
  </linearGradient>
  <linearGradient id="linearGradient3699-8">
   <stop id="stop3701-8" style="stop-color:#fff894" offset="0"/>
   <stop id="stop4084" style="stop-color:#ffc822" offset="0.8"/>
   <stop id="stop3703-4" style="stop-color:#ffb400" offset="1"/>
  </linearGradient>
  <filter id="filter4020" color-interpolation-filters="sRGB">
   <feGaussianBlur id="feGaussianBlur4022" stdDeviation="0.6211966"/>
  </filter>
  <filter id="filter4024" height="1.201" width="1.1733" color-interpolation-filters="sRGB" y="-.10049" x="-.086631">
   <feGaussianBlur id="feGaussianBlur4026" stdDeviation="0.6211966"/>
  </filter>
  <filter id="filter4028" height="1.2063" width="1.1971" color-interpolation-filters="sRGB" y="-.10315" x="-.098542">
   <feGaussianBlur id="feGaussianBlur4030" stdDeviation="0.6211966"/>
  </filter>
  <filter id="filter4032" height="1.201" width="1.1733" color-interpolation-filters="sRGB" y="-.10049" x="-.086631">
   <feGaussianBlur id="feGaussianBlur4034" stdDeviation="0.6211966"/>
  </filter>
  <filter id="filter4036" height="1.2538" width="1.1503" color-interpolation-filters="sRGB" y="-.12691" x="-.075130">
   <feGaussianBlur id="feGaussianBlur4038" stdDeviation="0.6211966"/>
  </filter>
  <filter id="filter4040" color-interpolation-filters="sRGB">
   <feGaussianBlur id="feGaussianBlur4042" stdDeviation="0.6211966"/>
  </filter>
  <filter id="filter4044" height="1.3901" width="1.4759" color-interpolation-filters="sRGB" y="-.19506" x="-.23797">
   <feGaussianBlur id="feGaussianBlur4046" stdDeviation="0.6211966"/>
  </filter>
  <filter id="filter4048" height="1.2808" width="1.296" color-interpolation-filters="sRGB" y="-.14041" x="-.14801">
   <feGaussianBlur id="feGaussianBlur4050" stdDeviation="0.6211966"/>
  </filter>
  <filter id="filter4052" height="1.2623" width="1.2568" color-interpolation-filters="sRGB" y="-.13115" x="-.12840">
   <feGaussianBlur id="feGaussianBlur4054" stdDeviation="0.6211966"/>
  </filter>
  <clipPath id="clipPath4303">
   <path id="path4305" style="color:#000000;fill:#f00" d="m96 32a32 32 0 1 1 -64 0 32 32 0 1 1 64 0z" transform="matrix(.84375 0 0 .84375 -6 14)"/>
  </clipPath>
  <radialGradient id="radialGradient4307" xlink:href="#linearGradient3699-8" gradientUnits="userSpaceOnUse" cy="43.852" cx="52.148" r="32"/>
  <linearGradient id="linearGradient4309" y2="55.536" xlink:href="#linearGradient4090" gradientUnits="userSpaceOnUse" x2="64.996" y1="-.90906" x1="64.996"/>
  <filter id="filter4421" height="1.2401" width="1.235" color-interpolation-filters="sRGB" y="-.12003" x="-.11752">
   <feGaussianBlur id="feGaussianBlur4423" stdDeviation="0.56854841"/>
  </filter>
  <filter id="filter4425" height="1.257" width="1.2709" color-interpolation-filters="sRGB" y="-.12851" x="-.13547">
   <feGaussianBlur id="feGaussianBlur4427" stdDeviation="0.56854841"/>
  </filter>
  <filter id="filter4429" color-interpolation-filters="sRGB">
   <feGaussianBlur id="feGaussianBlur4431" stdDeviation="0.56854841"/>
  </filter>
  <filter id="filter4433" height="1.2323" width="1.1375" color-interpolation-filters="sRGB" y="-.11615" x="-.068762">
   <feGaussianBlur id="feGaussianBlur4435" stdDeviation="0.56854841"/>
  </filter>
  <filter id="filter4437" color-interpolation-filters="sRGB">
   <feGaussianBlur id="feGaussianBlur4439" stdDeviation="0.56854841"/>
  </filter>
  <filter id="filter4441" color-interpolation-filters="sRGB">
   <feGaussianBlur id="feGaussianBlur4443" stdDeviation="0.56854841"/>
  </filter>
  <filter id="filter4445" color-interpolation-filters="sRGB">
   <feGaussianBlur id="feGaussianBlur4447" stdDeviation="0.56854841"/>
  </filter>
  <filter id="filter4449" height="1.2004" width="1.1461" color-interpolation-filters="sRGB" y="-.10019" x="-.073075">
   <feGaussianBlur id="feGaussianBlur4451" stdDeviation="0.56854841"/>
  </filter>
  <filter id="filter4453" color-interpolation-filters="sRGB">
   <feGaussianBlur id="feGaussianBlur4455" stdDeviation="0.56854841"/>
  </filter>
  <filter id="filter4457" color-interpolation-filters="sRGB">
   <feGaussianBlur id="feGaussianBlur4459" stdDeviation="0.56854841"/>
  </filter>
  <filter id="filter4461" height="1.4207" width="1.2069" color-interpolation-filters="sRGB" y="-.21037" x="-.10344">
   <feGaussianBlur id="feGaussianBlur4463" stdDeviation="0.5685484"/>
  </filter>
  <filter id="filter4465" height="1.2205" width="1.1421" color-interpolation-filters="sRGB" y="-.11024" x="-.071041">
   <feGaussianBlur id="feGaussianBlur4467" stdDeviation="0.5685484"/>
  </filter>
  <filter id="filter4469" color-interpolation-filters="sRGB">
   <feGaussianBlur id="feGaussianBlur4471" stdDeviation="0.5685484"/>
  </filter>
  <filter id="filter4473" height="1.241" width="1.1401" color-interpolation-filters="sRGB" y="-.12051" x="-.070045">
   <feGaussianBlur id="feGaussianBlur4475" stdDeviation="0.56854841"/>
  </filter>
  <clipPath id="clipPath4504">
   <rect id="rect4506" style="fill:#f0f" rx="6" ry="6" height="84" width="84" y="6" x="6"/>
  </clipPath>
  <radialGradient id="radialGradient4508" xlink:href="#linearGradient4271" gradientUnits="userSpaceOnUse" cy="44.185" cx="57.034" gradientTransform="matrix(1 0 0 1.069 0 -3.0472)" r="10.81"/>
  <radialGradient id="radialGradient4520" gradientUnits="userSpaceOnUse" cy="32" cx="64" r="32">
   <stop id="stop3754-6" style="stop-color:#ffdc4d" offset="0"/>
   <stop id="stop3756-2" style="stop-color:#ffe041" offset=".77642"/>
   <stop id="stop3758-7" style="stop-color:#fffda4;stop-opacity:0" offset="1"/>
  </radialGradient>
  <radialGradient id="radialGradient4522" xlink:href="#linearGradient3762-0" gradientUnits="userSpaceOnUse" cy="32" cx="64" r="40"/>
  <radialGradient id="radialGradient4524" xlink:href="#linearGradient3762-0" gradientUnits="userSpaceOnUse" cy="31.114" cx="65.325" gradientTransform="matrix(1 0 0 1.0084 -18 12.737)" r="52.047"/>
 </defs>
 <metadata id="metadata2413">
  <rdf:RDF>
   <cc:Work rdf:about="">
    <dc:format>image/svg+xml</dc:format>
    <dc:type rdf:resource="http://purl.org/dc/dcmitype/StillImage"/>
    <dc:title/>
   </cc:Work>
  </rdf:RDF>
 </metadata>
 <g id="layer2" style="display:none">
  <rect id="rect3745" style="opacity:.9;filter:url(#filter3174);fill:url(#ButtonShadow)" rx="6" ry="6" height="85" width="86" y="7" x="5"/>
 </g>
 <g id="layer3">
  <path id="path3786" style="opacity:0.08;fill:url(#linearGradient3780)" d="m12-95.031c-5.5111 0-10.031 4.5202-10.031 10.031v71c0 5.5111 4.5202 10.031 10.031 10.031h72c5.5111 0 10.031-4.5202 10.031-10.031v-71c0-5.5111-4.5202-10.031-10.031-10.031h-72z" transform="scale(1,-1)"/>
  <path id="path3778" style="opacity:.1;fill:url(#linearGradient3780)" d="m12-94.031c-4.9716 0-9.0312 4.0596-9.0312 9.0312v71c0 4.9716 4.0596 9.0312 9.0312 9.0312h72c4.9716 0 9.0312-4.0596 9.0312-9.0312v-71c0-4.9716-4.0596-9.0312-9.0312-9.0312h-72z" transform="scale(1,-1)"/>
  <path id="path3770" style="opacity:.2;fill:url(#linearGradient3780)" d="m12-93c-4.4091 0-8 3.5909-8 8v71c0 4.4091 3.5909 8 8 8h72c4.4091 0 8-3.5909 8-8v-71c0-4.4091-3.5909-8-8-8h-72z" transform="scale(1,-1)"/>
  <rect id="rect3723" style="opacity:.3;fill:url(#linearGradient3780)" transform="scale(1,-1)" rx="7" ry="7" height="85" width="86" y="-92" x="5"/>
  <rect id="rect3716" style="opacity:.45;fill:url(#linearGradient3721)" transform="scale(1,-1)" rx="6" ry="6" height="84" width="84" y="-91" x="6"/>
 </g>
 <g id="layer1">
  <rect id="rect2419" style="fill:url(#linearGradient3617)" rx="6" ry="6" height="84" width="84" y="6" x="6"/>
  <path id="path3680" style="opacity:.6;color:#000000;fill:#ffe167" d="m223.23 22.597-19.945 6.2699 21.825 10.284-21.984-0.10367 17.369 12.508-21.378-4.9782 6.9478 14.47-13.374-9.1826 0.88241 16.418-6.8169-16.124-6.8601 14.033-1.5481-16.211-14.436 20.26 5.6293-24.061-16.62 7.7978 13.561-15.378-26.415 5.7216 24.52-13.122-20.493-4.9371 20.58-0.19289-18.153-17.555 22.162 10.026-8.4496-21.882 14.876 16.595-2.26-21.338 10.756 18.555 5.7727-21.288 2.6355 23.465 11.971-17.478-8.2148 21.206 21.695-9.2693-16.074 14.361 21.84 1.1304z"/>
  <path id="path3665" style="opacity:.6;color:#000000;fill:#ffdc4d" d="m91.194-12.277-12.15 24.13 29.186-10.965-19.895 20.281 27.235-4.834-23.867 15.329 23.277 7.258-24.164 3.458 21.814 17.121-26.885-11.356 9.996 26.683-19.585-20.851 0.882 28.996-12.335-24.256-6.25 26-3.531-29.992-16.018 26.001 7.454-30.909-24.488 13.128 19.812-17.828-27.232 0.219 23.864-10.714-27.888-11.874 28.775 1.158-21.811-17.121 26.882 6.74-14.531-24.519 24.12 18.688-5.417-26.834 12.255 26.709 10.946-28.452-1.166 27.828z" transform="matrix(.75545 .16784 -.16784 .75545 151.01 -2.9629)"/>
 </g>
 <g id="layer6">
  <path id="path4183" style="color:#000000;fill:url(#radialGradient4307)" d="m96 32a32 32 0 1 1 -64 0 32 32 0 1 1 64 0z" transform="matrix(.84375 0 0 .84375 -6 -76)"/>
  <path id="path4185" style="color:#000000;fill:#ffb100" d="m48-76c-14.912 0-27 12.088-27 27s12.088 27 27 27 27-12.088 27-27-12.088-27-27-27zm0 1c14.359 0 26 11.641 26 26s-11.641 26-26 26-26-11.641-26-26 11.641-26 26-26z"/>
  <path id="path4187" style="opacity:.15;filter:url(#filter4052);fill:#f60" d="m24.81-52.649c-0.48644 1.5237 0.0317 3.8322 1.8734 3.5386 1.0774 2.3671-3.4187 3.0283-2.4565 5.5284 0.39069 1.4186 2.4627 1.2096 1.5423-0.44499-0.27464-2.1005 2.9952-2.623 2.9997-0.28195 0.91369 1.6127 3.71 2.7178 4.9141 0.84697 0.85384-1.4404-3.4044-3.4838-0.65032-4.1775 2.548 0.77036 3.5376-2.508 1.7883-4.0171-1.2512-1.4606-2.7918 0.09474-3.1004 1.3859-2.1249 1.4956-4.4407-0.98157-4.1928-3.0686-0.75242-0.95344-2.4912-0.48632-2.7178 0.69026z"/>
  <path id="path4189" style="opacity:.15;filter:url(#filter4048);fill:#f60" d="m41.211-40.472c-1.1403-1.5758-2.3142-4.7414 0.0246-5.7916 2.3942-0.6691 3.112 2.3026 4.93 2.9444 2.0672 0.09268 2.8987 1.7057 2.57 3.5446 0.31242 1.4266 2.5284 3.158 0.0925 3.9475-1.6775 0.43783-3.8348-0.88801-3.6021-2.7638 0.04456-2.1216-2.2411-2.2051-3.5854-1.5065l-0.24715-0.1438-0.18246-0.23077z"/>
  <path id="path4191" style="opacity:.15;filter:url(#filter4044);fill:#f60" d="m36.241-60.601c1.054 1.4757 2.6466 2.1381 4.2336 2.3968 1.0943 0.52494 0.39037 2.752-0.28992 1.9203 1.1294-1.9659 1.7181-4.1763 2.3212-6.3446-0.98245-2.2666-3.8987-0.6475-4.2897 1.0647-0.31843 0.22194-2.4271-0.24226-1.182-0.27586-0.2278 0.43785-0.67828 0.7383-0.7932 1.2387z"/>
  <path id="path4193" style="opacity:.15;filter:url(#filter4040);fill:#f60" d="m31.271-44.448c2.0676-0.4704 1.5928-3.4727 3.4445-4.142 2.7459 0.54445 1.7901 4.1632 1.6408 6.1658 1.332 1.9684 5.7867 0.4749 5.5454 3.7003-0.42877 2.6355 1.508 4.7387 1.826 7.1091-0.60003 2.6435-4.9458 2.9579-5.5196 0.11003-1.1428-2.1695 3.3334-3.8415 0.38219-5.4696-1.8897-0.83289-4.5492-2.1149-6.029 0.08389-1.4733 1.9468-4.4451-0.12929-4.1283-2.1789 0.29698-2.1872 5.1204-0.81226 3.9456-3.5521-0.34871-0.56815-1.7974-0.9851-1.1075-1.8267z"/>
  <path id="path4195" style="opacity:.15;filter:url(#filter4036);fill:#f60" d="m34.005-32.519c-1.9162-0.98572-2.8005-4.9222 0.05414-5.1531 2.1846-0.07762 2.9497 2.5892 2.6322 4.3595-0.25837 2.6803 3.6841 2.9829 5.1689 1.363 2.2486-0.1592 4.1713 3.201 6.3801 1.1664 1.0062-0.75363 2.7794-3.5887 3.8333-1.924-0.65567 1.6798-3.7719 2.2218-2.832 4.5608-0.29362 2.2843-3.3065 2.6919-5.0093 1.7422-1.5317-1.0042-3.3235-4.116-5.2419-1.9056-1.7956 1.4246-4.8942-0.2323-4.5964-2.5351-0.10832-0.56242-0.20247-1.1307-0.38897-1.6741z"/>
  <path id="path4197" style="opacity:.15;filter:url(#filter4032);fill:#f60" d="m57.862-50.412c1.6916-0.3866 3.76-1.1037 5.2527 0.17694 1.6227 1.2104 0.94717 3.4383 1.4656 5.1202 1.0754 1.5788 2.8681 2.6301 3.3903 4.5725 0.5495 1.2124 1.0054 3.0547-0.32076 3.9365-1.6793 0.73423-4.2024 0.78641-5.2021-1.0391-1.2955-1.3245-1.3877-3.3926-2.4846-4.7369-1.8798-0.59972-3.9437-0.11482-5.8556-0.7948-1.655-0.18308-3.1725-1.7224-2.7222-3.4462 0.57506-2.2933 3.031-3.7321 5.3115-3.6481 0.3905-0.02534 0.78214-0.05803 1.1653-0.14112z"/>
  <path id="path4199" style="opacity:.2;filter:url(#filter4028);fill:#f60" d="m39.223-64.329c-1.9927 0.35871-4.0954 0.84971-5.5893 2.3107-1.5906 0.9421-3.4829 1.6953-4.3629 3.4433-1.2792 1.7752-0.6299 4.0624-0.18882 6.0041 0.78839 1.3271 2.4926 2.8334 4.0498 2.6854 1.2947-0.94852 1.6825-2.7413 1.5728-4.2717-0.34997-1.6946 1.0127-3.5562 2.8423-2.8434 1.8279 0.53653 4.0052 1.3134 5.7597 0.15948 1.3549-1.8514-1.6443-2.9024-3.0873-2.497-1.9835-0.41261-1.5428-2.5662-0.31098-3.5319 0.45673-0.6511 0.1631-1.4549-0.68535-1.459z"/>
  <path id="path4201" style="opacity:.15;filter:url(#filter4024);fill:#f60" d="m34.875-54.456c1.6916-0.3866 3.76-1.1037 5.2527 0.17694 1.6227 1.2104 0.94717 3.4383 1.4656 5.1202 1.0754 1.5788 2.8681 2.6301 3.3903 4.5725 0.5495 1.2124 1.0054 3.0547-0.32076 3.9365-1.6793 0.73423-4.2024 0.78641-5.2021-1.0391-1.2955-1.3245-1.3877-3.3926-2.4846-4.7369-1.8798-0.59972-3.9437-0.11482-5.8556-0.7948-1.655-0.18307-3.1725-1.7224-2.7222-3.4462 0.57506-2.2933 3.031-3.7321 5.3115-3.6481 0.3905-0.02534 0.78214-0.05803 1.1653-0.14112z"/>
  <path id="path4203" style="opacity:.15;filter:url(#filter4020);fill:#f60" transform="matrix(-.43764 .89915 -.89915 -.43764 125.1 -76.44)" d="m55.418 42.073c-1.9162-0.98572-2.8005-4.9222 0.05414-5.1531 2.1846-0.07762 2.9497 2.5892 2.6322 4.3595-0.25837 2.6803 3.6841 2.9829 5.1689 1.363 2.2486-0.1592 4.1713 3.201 6.3801 1.1664 1.0062-0.75363 2.7794-3.5887 3.8333-1.924-0.65567 1.6798-3.7719 2.2218-2.832 4.5608-0.29362 2.2843-3.3065 2.6919-5.0093 1.7422-1.5317-1.0042-3.3235-4.116-5.2419-1.9056-1.7956 1.4246-4.8942-0.2323-4.5964-2.5351-0.10832-0.56242-0.20247-1.1307-0.38897-1.6741z"/>
  <path id="path4205" style="opacity:.15;filter:url(#filter4024);fill:#f60" transform="matrix(-.97171 .23619 -.23619 -.97171 124.6 -13.925)" d="m63.496 27.343c1.6916-0.3866 3.76-1.1037 5.2527 0.17694 1.6227 1.2104 0.94717 3.4383 1.4656 5.1202 1.0754 1.5788 2.8681 2.6301 3.3903 4.5725 0.5495 1.2124 1.0054 3.0547-0.32076 3.9365-1.6793 0.73423-4.2024 0.78641-5.2021-1.0391-1.2955-1.3245-1.3877-3.3926-2.4846-4.7369-1.8798-0.59972-3.9437-0.11482-5.8556-0.7948-1.655-0.18307-3.1725-1.7224-2.7222-3.4462 0.57506-2.2933 3.031-3.7321 5.3115-3.6481 0.3905-0.02534 0.78214-0.05803 1.1653-0.14112z"/>
  <path id="path4207" style="opacity:.15;filter:url(#filter4040);fill:#f60" d="m46.679-45.194c2.0676-0.4704 1.5928-3.4727 3.4445-4.142 2.7459 0.54445 1.7901 4.1632 1.6408 6.1658 1.332 1.9684 5.7867 0.4749 5.5454 3.7003-0.42877 2.6355 1.508 4.7387 1.826 7.1091-0.60003 2.6435-4.9458 2.9579-5.5196 0.11003-1.1428-2.1695 3.3334-3.8415 0.38219-5.4696-1.8897-0.83289-4.5492-2.1149-6.029 0.08389-1.4733 1.9468-4.4451-0.12929-4.1283-2.1789 0.29698-2.1872 5.1204-0.81226 3.9456-3.5521-0.34871-0.56815-1.7974-0.9851-1.1075-1.8267z"/>
  <path id="path4209" style="opacity:.15;filter:url(#filter4024);fill:#f60" transform="matrix(-.97412 -.22601 .22601 -.97412 56.552 18)" d="m35.911 43.497c1.6916-0.3866 3.76-1.1037 5.2527 0.17694 1.6227 1.2104 0.94717 3.4383 1.4656 5.1202 1.0754 1.5788 2.8681 2.6301 3.3903 4.5725 0.5495 1.2124 1.0054 3.0547-0.32076 3.9365-1.6793 0.73423-4.2024 0.78641-5.2021-1.0391-1.2955-1.3245-1.3877-3.3926-2.4846-4.7369-1.8798-0.59972-3.9437-0.11482-5.8556-0.7948-1.655-0.18307-3.1725-1.7224-2.7222-3.4462 0.57506-2.2933 3.031-3.7321 5.3115-3.6481 0.3905-0.02534 0.78214-0.05803 1.1653-0.14112z"/>
  <path id="path4211" style="opacity:.15;filter:url(#filter4048);fill:#f60" transform="matrix(-.99691 .078517 -.078517 -.99691 99.816 -31.855)" d="m42.247 29.15c-1.1403-1.5758-2.3142-4.7414 0.0246-5.7916 2.3942-0.6691 3.112 2.3026 4.93 2.9444 2.0672 0.09268 2.8987 1.7057 2.57 3.5446 0.31242 1.4266 2.5284 3.158 0.0925 3.9475-1.6775 0.43783-3.8348-0.88801-3.6021-2.7638 0.04456-2.1216-2.2411-2.2051-3.5854-1.5065l-0.24715-0.1438-0.18246-0.23077z"/>
  <path id="path4213" style="opacity:.2;filter:url(#filter4020);fill:#f60" transform="matrix(.36569 -.93074 .93074 .36569 -25.391 -15.155)" d="m55.418 42.073c-1.9162-0.98572-2.8005-4.9222 0.05414-5.1531 2.1846-0.07762 2.9497 2.5892 2.6322 4.3595-0.25837 2.6803 3.6841 2.9829 5.1689 1.363 2.2486-0.1592 4.1713 3.201 6.3801 1.1664 1.0062-0.75363 2.7794-3.5887 3.8333-1.924-0.65567 1.6798-3.7719 2.2218-2.832 4.5608-0.29362 2.2843-3.3065 2.6919-5.0093 1.7422-1.5317-1.0042-3.3235-4.116-5.2419-1.9056-1.7956 1.4246-4.8942-0.2323-4.5964-2.5351-0.10832-0.56242-0.20247-1.1307-0.38897-1.6741z"/>
  <path id="path4215" style="opacity:.2;filter:url(#filter4024);fill:#f60" transform="matrix(.95016 -.31175 .31175 .95016 -29.801 -77.516)" d="m63.496 27.343c1.6916-0.3866 3.76-1.1037 5.2527 0.17694 1.6227 1.2104 0.94717 3.4383 1.4656 5.1202 1.0754 1.5788 2.8681 2.6301 3.3903 4.5725 0.5495 1.2124 1.0054 3.0547-0.32076 3.9365-1.6793 0.73423-4.2024 0.78641-5.2021-1.0391-1.2955-1.3245-1.3877-3.3926-2.4846-4.7369-1.8798-0.59972-3.9437-0.11482-5.8556-0.7948-1.655-0.18307-3.1725-1.7224-2.7222-3.4462 0.57506-2.2933 3.031-3.7321 5.3115-3.6481 0.3905-0.02534 0.78214-0.05803 1.1653-0.14112z"/>
  <path id="path4217" style="opacity:.15;filter:url(#filter4048);fill:#f60" transform="matrix(-.67461 .73817 -.73817 -.67461 106.62 -57.44)" d="m57.655 36.606c-1.1403-1.5758-2.3142-4.7414 0.0246-5.7916 2.3942-0.6691 3.112 2.3026 4.93 2.9444 2.0672 0.09268 2.8987 1.7057 2.57 3.5446 0.31242 1.4266 2.5284 3.158 0.0925 3.9475-1.6775 0.43783-3.8348-0.88801-3.6021-2.7638 0.04456-2.1216-2.2411-2.2051-3.5854-1.5065l-0.24715-0.1438-0.18246-0.23077z"/>
  <path id="path4219" style="opacity:.15;filter:url(#filter4040);fill:#f60" transform="matrix(-.67461 .73817 -.73817 -.67461 106.62 -57.44)" d="m47.714 32.629c2.0676-0.4704 1.5928-3.4727 3.4445-4.142 2.7459 0.54445 1.7901 4.1632 1.6408 6.1658 1.332 1.9684 5.7867 0.4749 5.5454 3.7003-0.42877 2.6355 1.508 4.7387 1.826 7.1091-0.60003 2.6435-4.9458 2.9579-5.5196 0.11003-1.1428-2.1695 3.3334-3.8415 0.38219-5.4696-1.8897-0.83289-4.5492-2.1149-6.029 0.08389-1.4733 1.9468-4.4451-0.12929-4.1283-2.1789 0.29698-2.1872 5.1204-0.81226 3.9456-3.5521-0.349-0.567-1.798-0.984-1.108-1.826z"/>
  <path id="path4221" style="opacity:.15;filter:url(#filter4036);fill:#f60" transform="matrix(-.67461 .73817 -.73817 -.67461 106.62 -57.44)" d="m50.448 44.558c-1.9162-0.98572-2.8005-4.9222 0.05414-5.1531 2.1846-0.07762 2.9497 2.5892 2.6322 4.3595-0.25837 2.6803 3.6841 2.9829 5.1689 1.363 2.2486-0.1592 4.1713 3.201 6.3801 1.1664 1.0062-0.75363 2.7794-3.5887 3.8333-1.924-0.65567 1.6798-3.7719 2.2218-2.832 4.5608-0.29362 2.2843-3.3065 2.6919-5.0093 1.7422-1.5317-1.0042-3.3235-4.116-5.2419-1.9056-1.7956 1.4246-4.8942-0.2323-4.5964-2.5351-0.10832-0.56242-0.20247-1.1307-0.38897-1.6741z"/>
  <path id="path4223" style="opacity:.15;filter:url(#filter4024);fill:#f60" transform="matrix(.82399 -.56660 .56660 .82399 -12.806 -67.697)" d="m35.911 43.497c1.6916-0.3866 3.76-1.1037 5.2527 0.17694 1.6227 1.2104 0.94717 3.4383 1.4656 5.1202 1.0754 1.5788 2.8681 2.6301 3.3903 4.5725 0.5495 1.2124 1.0054 3.0547-0.32076 3.9365-1.6793 0.73423-4.2024 0.78641-5.2021-1.0391-1.2955-1.3245-1.3877-3.3926-2.4846-4.7369-1.8798-0.59972-3.9437-0.11482-5.8556-0.7948-1.655-0.18307-3.1725-1.7224-2.7222-3.4462 0.57506-2.2933 3.031-3.7321 5.3115-3.6481 0.3905-0.02534 0.78214-0.05803 1.1653-0.14112z"/>
  <path id="path4225" style="opacity:.2;filter:url(#filter4048);fill:#f60" transform="matrix(-.94307 .33260 -.33260 -.94307 127 -43.284)" d="m48.957 37.103c-1.1403-1.5758-2.3142-4.7414 0.0246-5.7916 2.3942-0.6691 3.112 2.3026 4.93 2.9444 2.0672 0.09268 2.8987 1.7057 2.57 3.5446 0.31242 1.4266 2.5284 3.158 0.0925 3.9475-1.6775 0.43783-3.8348-0.88801-3.6021-2.7638 0.04456-2.1216-2.2411-2.2051-3.5854-1.5065l-0.24715-0.1438-0.18246-0.23077z"/>
  <path id="path4227" style="opacity:.2;filter:url(#filter4020);fill:#f60" transform="matrix(.11367 -.99352 .99352 .11367 1.3425 -.17062)" d="m55.418 42.073c-1.9162-0.98572-2.8005-4.9222 0.05414-5.1531 2.1846-0.07762 2.9497 2.5892 2.6322 4.3595-0.25837 2.6803 3.6841 2.9829 5.1689 1.363 2.2486-0.1592 4.1713 3.201 6.3801 1.1664 1.0062-0.75363 2.7794-3.5887 3.8333-1.924-0.65567 1.6798-3.7719 2.2218-2.832 4.5608-0.29362 2.2843-3.3065 2.6919-5.0093 1.7422-1.5317-1.0042-3.3235-4.116-5.2419-1.9056-1.7956 1.4246-4.8942-0.2323-4.5964-2.5351-0.10832-0.56242-0.20247-1.1307-0.38897-1.6741z"/>
  <path id="path4229" style="opacity:.2;filter:url(#filter4024);fill:#f60" transform="matrix(.83783 -.54593 .54593 .83783 -18.978 -59.293)" d="m63.496 27.343c1.6916-0.3866 3.76-1.1037 5.2527 0.17694 1.6227 1.2104 0.94717 3.4383 1.4656 5.1202 1.0754 1.5788 2.8681 2.6301 3.3903 4.5725 0.5495 1.2124 1.0054 3.0547-0.32076 3.9365-1.6793 0.73423-4.2024 0.78641-5.2021-1.0391-1.2955-1.3245-1.3877-3.3926-2.4846-4.7369-1.8798-0.59972-3.9437-0.11482-5.8556-0.7948-1.655-0.18307-3.1725-1.7224-2.7222-3.4462 0.57506-2.2933 3.031-3.7321 5.3115-3.6481 0.3905-0.02534 0.78214-0.05803 1.1653-0.14112z"/>
  <path id="path4231" style="opacity:.2;filter:url(#filter4040);fill:#f60" transform="matrix(-.94307 .33260 -.33260 -.94307 127 -43.284)" d="m54.424 32.381c2.0676-0.4704 1.5928-3.4727 3.4445-4.142 2.7459 0.54445 1.7901 4.1632 1.6408 6.1658 1.332 1.9684 5.7867 0.4749 5.5454 3.7003-0.42877 2.6355 1.508 4.7387 1.826 7.1091-0.60003 2.6435-4.9458 2.9579-5.5196 0.11003-1.1428-2.1695 3.3334-3.8415 0.38219-5.4696-1.8897-0.83289-4.5492-2.1149-6.029 0.08389-1.4733 1.9468-4.4451-0.12929-4.1283-2.1789 0.29698-2.1872 5.1204-0.81226 3.9456-3.5521-0.34871-0.56815-1.7974-0.9851-1.1075-1.8267z"/>
  <path id="path4233" style="color:#000000;fill:url(#linearGradient4309)" d="m96 32a32 32 0 1 1 -64 0 32 32 0 1 1 64 0z" transform="matrix(.58747 0 0 .37002 10.402 -73.266)"/>
  <g id="g4477" clip-path="url(#clipPath4504)">
   <path id="path3663" style="opacity:.3;color:#000000;fill:url(#radialGradient4524)" d="m72.833-1.4758-14.337 31.045 27.385-20.478-23.228 25.094 32.373-11.013-29.846 16.689 34.192-0.471-33.543 6.649 32.664 10.119-33.956-4.042 27.939 19.717-31.045-14.337 20.478 27.385-25.094-23.228 8.258 26.272-13.934-23.745-0.513 32.42-5.665-31.771-8.741 28.334 2.664-29.626-15.978 20.264 10.598-23.37-31.518 25.201 27.361-29.817-32.373 11.013 29.846-16.689-24.942-0.71 24.293-5.468-30.893-9.528 32.185 3.451-20.46-14.01 23.566 8.63-20.478-27.385 25.094 23.228-11.013-32.373 16.689 29.846-0.471-34.192 6.649 33.543 10.119-32.664-4.042 33.956 19.717-27.939z"/>
   <path id="path3760" style="opacity:.8;color:#000000;fill:url(#radialGradient4522)" d="m98.641 52-14.654-6.005 10.655 11.717-13.389-8.459 8.459 13.389-11.717-10.655 6.005 14.654-9.688-12.527 3.369 15.474-7.366-14.019 0.631 15.823-4.819-15.085-2.127 15.693-2.127-15.693-4.819 15.085 0.631-15.823-7.366 14.019 3.369-15.474-9.688 12.527 6.005-14.654-11.717 10.655 8.459-13.389-13.389 8.459 10.655-11.717-14.654 6.005 12.527-9.688-15.474 3.369 14.019-7.366-15.823 0.631 15.085-4.819-15.693-2.127 15.693-2.127-15.085-4.819 15.823 0.631-14.019-7.366 15.474 3.369-12.527-9.688 14.654 6.005-10.655-11.716 13.389 8.458-8.459-13.389 11.717 10.655-6.005-14.654 9.688 12.527-3.369-15.474 7.366 14.019-0.631-15.823 4.819 15.085 2.127-15.693 2.127 15.693 4.819-15.085-0.631 15.823 7.366-14.019-3.369 15.474 9.688-12.527-6.005 14.654 11.717-10.655-8.459 13.389 13.389-8.4585-10.655 11.716 14.654-6.004-12.527 9.688 15.476-3.369-14.021 7.366 15.821-0.631-15.083 4.819 15.693 2.127-15.693 2.127 15.083 4.819-15.821-0.631 14.021 7.366-15.476-3.369z" transform="translate(-16 12)"/>
   <path id="path3651" style="color:#000000;fill:url(#radialGradient4520)" d="m96 32a32 32 0 1 1 -64 0 32 32 0 1 1 64 0z" transform="matrix(1.0312 0 0 1.0312 -18 10)"/>
   <path id="path3695" style="color:#000000;fill:url(#radialGradient4307)" d="m96 32a32 32 0 1 1 -64 0 32 32 0 1 1 64 0z" transform="matrix(.84375 0 0 .84375 -6 16)"/>
   <path id="path3695-8" style="color:#000000;fill:#ffc000" d="m48 16c-14.912 0-27 12.088-27 27s12.088 27 27 27 27-12.088 27-27-12.088-27-27-27zm0 1c14.359 0 26 11.641 26 26s-11.641 26-26 26-26-11.641-26-26 11.641-26 26-26z"/>
   <g id="g4295" transform="translate(0,2)" clip-path="url(#clipPath4303)">
    <path id="path4269" style="opacity:.3;color:#000000;fill:url(#radialGradient4508)" d="m67.844 44.185a10.81 11.556 0 1 1 -21.621 0 10.81 11.556 0 1 1 21.621 0z" transform="matrix(1.3218 0 0 1.3218 -14.876 -17.94)"/>
    <path id="path4279" style="opacity:.3;color:#000000;fill:url(#radialGradient4508)" d="m67.844 44.185a10.81 11.556 0 1 1 -21.621 0 10.81 11.556 0 1 1 21.621 0z" transform="matrix(1.0423 0 0 1.0423 -26.557 -5.5868)"/>
    <path id="path4283" style="opacity:.3;color:#000000;fill:url(#radialGradient4508)" d="m67.844 44.185a10.81 11.556 0 1 1 -21.621 0 10.81 11.556 0 1 1 21.621 0z" transform="matrix(1.4509 0 0 1.4509 -43.952 -36.067)"/>
    <path id="path4287" style="opacity:.3;color:#000000;fill:url(#radialGradient4508)" d="m67.844 44.185a10.81 11.556 0 1 1 -21.621 0 10.81 11.556 0 1 1 21.621 0z" transform="matrix(1.9221 0 0 1.6982 -48.091 -49.355)"/>
   </g>
   <path id="path4086" style="opacity:.5;color:#000000;fill:url(#linearGradient4309)" d="m96 32a32 32 0 1 1 -64 0 32 32 0 1 1 64 0z" transform="matrix(.58747 0 0 .37002 10.402 18.734)"/>
   <path id="path4337" style="opacity:0.07;filter:url(#filter4421);fill:#f60" d="m24.81 39.351c-0.48644 1.5237 0.0317 3.8322 1.8734 3.5386 1.0774 2.3671-3.4187 3.0283-2.4565 5.5284 0.39069 1.4186 2.4627 1.2096 1.5423-0.44499-0.27464-2.1005 2.9952-2.623 2.9997-0.28195 0.91369 1.6127 3.71 2.7178 4.9141 0.84697 0.85384-1.4404-3.4044-3.4838-0.65032-4.1775 2.548 0.77036 3.5376-2.508 1.7883-4.0171-1.2512-1.4606-2.7918 0.09474-3.1004 1.3859-2.1249 1.4956-4.4407-0.98157-4.1928-3.0686-0.75242-0.95344-2.4912-0.48632-2.7178 0.69026z"/>
   <path id="path4339" style="opacity:0.07;filter:url(#filter4425);fill:#f60" d="m41.211 51.528c-1.1403-1.5758-2.3142-4.7414 0.0246-5.7916 2.3942-0.6691 3.112 2.3026 4.93 2.9444 2.0672 0.09268 2.8987 1.7057 2.57 3.5446 0.31242 1.4266 2.5284 3.158 0.0925 3.9475-1.6775 0.43783-3.8348-0.88801-3.6021-2.7638 0.04456-2.1216-2.2411-2.2051-3.5854-1.5065l-0.24715-0.1438-0.18246-0.23077z"/>
   <path id="path4341" style="opacity:0.07;filter:url(#filter4429);fill:#f60" d="m31.271 47.552c2.0676-0.4704 1.5928-3.4727 3.4445-4.142 2.7459 0.54445 1.7901 4.1632 1.6408 6.1658 1.332 1.9684 5.7867 0.4749 5.5454 3.7003-0.42877 2.6355 1.508 4.7387 1.826 7.1091-0.60003 2.6435-4.9458 2.9579-5.5196 0.11003-1.1428-2.1695 3.3334-3.8415 0.38219-5.4696-1.8897-0.83289-4.5492-2.1149-6.029 0.08389-1.4733 1.9468-4.4451-0.12929-4.1283-2.1789 0.29698-2.1872 5.1204-0.81226 3.9456-3.5521-0.34871-0.56815-1.7974-0.9851-1.1075-1.8267z"/>
   <path id="path4343" style="opacity:0.07;filter:url(#filter4433);fill:#f60" d="m34.005 59.481c-1.9162-0.98572-2.8005-4.9222 0.05414-5.1531 2.1846-0.07762 2.9497 2.5892 2.6322 4.3595-0.25837 2.6803 3.6841 2.9829 5.1689 1.363 2.2486-0.1592 4.1713 3.201 6.3801 1.1664 1.0062-0.75363 2.7794-3.5887 3.8333-1.924-0.65567 1.6798-3.7719 2.2218-2.832 4.5608-0.29362 2.2843-3.3065 2.6919-5.0093 1.7422-1.5317-1.0042-3.3235-4.116-5.2419-1.9056-1.7956 1.4246-4.8942-0.2323-4.5964-2.5351-0.10832-0.56242-0.20247-1.1307-0.38897-1.6741z"/>
   <path id="path4345" style="opacity:0.07;filter:url(#filter4437);fill:#f60" d="m57.862 41.588c1.6916-0.3866 3.76-1.1037 5.2527 0.17694 1.6227 1.2104 0.94717 3.4383 1.4656 5.1202 1.0754 1.5788 2.8681 2.6301 3.3903 4.5725 0.5495 1.2124 1.0054 3.0547-0.32076 3.9365-1.6793 0.73423-4.2024 0.78641-5.2021-1.0391-1.2955-1.3245-1.3877-3.3926-2.4846-4.7369-1.8798-0.59972-3.9437-0.11482-5.8556-0.7948-1.655-0.18308-3.1725-1.7224-2.7222-3.4462 0.57506-2.2933 3.031-3.7321 5.3115-3.6481 0.3905-0.02534 0.78214-0.05803 1.1653-0.14112z"/>
   <path id="path4347" style="opacity:0.07;filter:url(#filter4441);fill:#f60" d="m34.875 37.544c1.6916-0.3866 3.76-1.1037 5.2527 0.17694 1.6227 1.2104 0.94717 3.4383 1.4656 5.1202 1.0754 1.5788 2.8681 2.6301 3.3903 4.5725 0.5495 1.2124 1.0054 3.0547-0.32076 3.9365-1.6793 0.73423-4.2024 0.78641-5.2021-1.0391-1.2955-1.3245-1.3877-3.3926-2.4846-4.7369-1.8798-0.59972-3.9437-0.11482-5.8556-0.7948-1.655-0.18307-3.1725-1.7224-2.7222-3.4462 0.57506-2.2933 3.031-3.7321 5.3115-3.6481 0.3905-0.02534 0.78214-0.05803 1.1653-0.14112z"/>
   <path id="path4349" style="opacity:0.07;filter:url(#filter4445);fill:#f60" transform="matrix(-.43764 .89915 -.89915 -.43764 125.1 15.56)" d="m55.418 42.073c-1.9162-0.98572-2.8005-4.9222 0.05414-5.1531 2.1846-0.07762 2.9497 2.5892 2.6322 4.3595-0.25837 2.6803 3.6841 2.9829 5.1689 1.363 2.2486-0.1592 4.1713 3.201 6.3801 1.1664 1.0062-0.75363 2.7794-3.5887 3.8333-1.924-0.65567 1.6798-3.7719 2.2218-2.832 4.5608-0.29362 2.2843-3.3065 2.6919-5.0093 1.7422-1.5317-1.0042-3.3235-4.116-5.2419-1.9056-1.7956 1.4246-4.8942-0.2323-4.5964-2.5351-0.10832-0.56242-0.20247-1.1307-0.38897-1.6741z"/>
   <path id="path4351" style="opacity:0.07;filter:url(#filter4449);fill:#f60" transform="matrix(-.97171 .23619 -.23619 -.97171 124.6 78.075)" d="m63.496 27.343c1.6916-0.3866 3.76-1.1037 5.2527 0.17694 1.6227 1.2104 0.94717 3.4383 1.4656 5.1202 1.0754 1.5788 2.8681 2.6301 3.3903 4.5725 0.5495 1.2124 1.0054 3.0547-0.32076 3.9365-1.6793 0.73423-4.2024 0.78641-5.2021-1.0391-1.2955-1.3245-1.3877-3.3926-2.4846-4.7369-1.8798-0.59972-3.9437-0.11482-5.8556-0.7948-1.655-0.18307-3.1725-1.7224-2.7222-3.4462 0.57506-2.2933 3.031-3.7321 5.3115-3.6481 0.3905-0.02534 0.78214-0.05803 1.1653-0.14112z"/>
   <path id="path4353" style="opacity:0.07;filter:url(#filter4453);fill:#f60" d="m46.679 46.806c2.0676-0.4704 1.5928-3.4727 3.4445-4.142 2.7459 0.54445 1.7901 4.1632 1.6408 6.1658 1.332 1.9684 5.7867 0.4749 5.5454 3.7003-0.42877 2.6355 1.508 4.7387 1.826 7.1091-0.60003 2.6435-4.9458 2.9579-5.5196 0.11003-1.1428-2.1695 3.3334-3.8415 0.38219-5.4696-1.8897-0.83289-4.5492-2.1149-6.029 0.08389-1.4733 1.9468-4.4451-0.12929-4.1283-2.1789 0.29698-2.1872 5.1204-0.81226 3.9456-3.5521-0.34871-0.56815-1.7974-0.9851-1.1075-1.8267z"/>
   <path id="path4355" style="opacity:0.07;filter:url(#filter4457);fill:#f60" transform="matrix(-.97412 -.22601 .22601 -.97412 56.552 110)" d="m35.911 43.497c1.6916-0.3866 3.76-1.1037 5.2527 0.17694 1.6227 1.2104 0.94717 3.4383 1.4656 5.1202 1.0754 1.5788 2.8681 2.6301 3.3903 4.5725 0.5495 1.2124 1.0054 3.0547-0.32076 3.9365-1.6793 0.73423-4.2024 0.78641-5.2021-1.0391-1.2955-1.3245-1.3877-3.3926-2.4846-4.7369-1.8798-0.59972-3.9437-0.11482-5.8556-0.7948-1.655-0.18307-3.1725-1.7224-2.7222-3.4462 0.57506-2.2933 3.031-3.7321 5.3115-3.6481 0.3905-0.02534 0.78214-0.05803 1.1653-0.14112z"/>
   <path id="path4357" style="opacity:0.07;filter:url(#filter4461);fill:#f60" transform="matrix(-.67461 .73817 -.73817 -.67461 106.62 34.56)" d="m57.655 36.606c-1.1403-1.5758-2.3142-4.7414 0.0246-5.7916 2.3942-0.6691 3.112 2.3026 4.93 2.9444 2.0672 0.09268 2.8987 1.7057 2.57 3.5446 0.31242 1.4266 2.5284 3.158 0.0925 3.9475-1.6775 0.43783-3.8348-0.88801-3.6021-2.7638 0.04456-2.1216-2.2411-2.2051-3.5854-1.5065l-0.24715-0.1438-0.18246-0.23077z"/>
   <path id="path4359" style="opacity:0.07;filter:url(#filter4465);fill:#f60" transform="matrix(-.67461 .73817 -.73817 -.67461 106.62 34.56)" d="m47.714 32.629c2.0676-0.4704 1.5928-3.4727 3.4445-4.142 2.7459 0.54445 1.7901 4.1632 1.6408 6.1658 1.332 1.9684 5.7867 0.4749 5.5454 3.7003-0.42877 2.6355 1.508 4.7387 1.826 7.1091-0.60003 2.6435-4.9458 2.9579-5.5196 0.11003-1.1428-2.1695 3.3334-3.8415 0.38219-5.4696-1.8897-0.83289-4.5492-2.1149-6.029 0.08389-1.4733 1.9468-4.4451-0.12929-4.1283-2.1789 0.29698-2.1872 5.1204-0.81226 3.9456-3.5521-0.349-0.567-1.798-0.984-1.108-1.826z"/>
   <path id="path4361" style="opacity:0.07;filter:url(#filter4469);fill:#f60" transform="matrix(-.67461 .73817 -.73817 -.67461 106.62 34.56)" d="m50.448 44.558c-1.9162-0.98572-2.8005-4.9222 0.05414-5.1531 2.1846-0.07762 2.9497 2.5892 2.6322 4.3595-0.25837 2.6803 3.6841 2.9829 5.1689 1.363 2.2486-0.1592 4.1713 3.201 6.3801 1.1664 1.0062-0.75363 2.7794-3.5887 3.8333-1.924-0.65567 1.6798-3.7719 2.2218-2.832 4.5608-0.29362 2.2843-3.3065 2.6919-5.0093 1.7422-1.5317-1.0042-3.3235-4.116-5.2419-1.9056-1.7956 1.4246-4.8942-0.2323-4.5964-2.5351-0.10832-0.56242-0.20247-1.1307-0.38897-1.6741z"/>
   <path id="path4363" style="opacity:0.07;filter:url(#filter4473);fill:#f60" transform="matrix(.82399 -.56660 .56660 .82399 -12.806 24.303)" d="m35.911 43.497c1.6916-0.3866 3.76-1.1037 5.2527 0.17694 1.6227 1.2104 0.94717 3.4383 1.4656 5.1202 1.0754 1.5788 2.8681 2.6301 3.3903 4.5725 0.5495 1.2124 1.0054 3.0547-0.32076 3.9365-1.6793 0.73423-4.2024 0.78641-5.2021-1.0391-1.2955-1.3245-1.3877-3.3926-2.4846-4.7369-1.8798-0.59972-3.9437-0.11482-5.8556-0.7948-1.655-0.18307-3.1725-1.7224-2.7222-3.4462 0.57506-2.2933 3.031-3.7321 5.3115-3.6481 0.3905-0.02534 0.78214-0.05803 1.1653-0.14112z"/>
  </g>
 </g>
 <g id="layer5" style="display:none">
  <rect id="rect3171" style="opacity:.1;filter:url(#filter3794);stroke:#fff;stroke-linecap:round;stroke-width:.5;fill:url(#linearGradient3613)" clip-path="url(#clipPath3613)" rx="12" ry="12" height="66" width="66" y="15" x="15"/>
 </g>
 <g id="layer4">
  <path id="rect3728" style="opacity:.4;fill:url(#linearGradient3188)" d="m12 6c-3.324 0-6 2.676-6 6v2 68 2c0 0.33472 0.04135 0.6507 0.09375 0.96875 0.0487 0.2956 0.09704 0.59692 0.1875 0.875 0.00988 0.03038 0.020892 0.0636 0.03125 0.09375 0.098865 0.28777 0.23488 0.54745 0.375 0.8125 0.14459 0.27351 0.31562 0.53562 0.5 0.78125 0.18438 0.24564 0.37378 0.47347 0.59375 0.6875 0.43995 0.42806 0.94291 0.81453 1.5 1.0938 0.27854 0.13961 0.57347 0.24695 0.875 0.34375-0.2562-0.10022-0.48671-0.23627-0.71875-0.375-0.00741-0.0044-0.023866 0.0045-0.03125 0-0.031933-0.0193-0.062293-0.04251-0.09375-0.0625-0.1204-0.0767-0.23102-0.16351-0.34375-0.25-0.10617-0.0808-0.21328-0.16111-0.3125-0.25-0.1778-0.162-0.3473-0.346-0.4999-0.531-0.1075-0.131-0.2183-0.266-0.3124-0.407-0.0251-0.038-0.0385-0.086-0.0626-0.125-0.0647-0.103-0.1302-0.204-0.1874-0.312-0.1011-0.195-0.2057-0.416-0.2813-0.625-0.008-0.022-0.0236-0.041-0.0313-0.063-0.0318-0.092-0.0358-0.187-0.0624-0.281-0.0304-0.107-0.0704-0.203-0.0938-0.313-0.0729-0.341-0.125-0.698-0.125-1.062v-2-68-2c0-2.782 2.2182-5 5-5h2 68 2c2.7818 0 5 2.2182 5 5v2 68 2c0 0.3643-0.05212 0.72099-0.125 1.0625-0.04415 0.20689-0.08838 0.39766-0.15625 0.59375-0.0077 0.02195-0.0233 0.04069-0.03125 0.0625-0.06274 0.17374-0.13838 0.36745-0.21875 0.53125-0.04158 0.0828-0.07904 0.16995-0.125 0.25-0.0546 0.09721-0.12677 0.18835-0.1875 0.28125-0.09411 0.14096-0.20492 0.276-0.3125 0.40625-0.14317 0.17445-0.30314 0.347-0.46875 0.5-0.01117 0.0102-0.01998 0.02115-0.03125 0.03125-0.13839 0.12556-0.28509 0.23444-0.4375 0.34375-0.10257 0.07315-0.20432 0.15336-0.3125 0.21875-0.0074 0.0045-0.02384-0.0044-0.03125 0-0.23204 0.13873-0.46255 0.27478-0.71875 0.375 0.30153-0.0968 0.59646-0.20414 0.875-0.34375 0.55709-0.27922 1.0601-0.66569 1.5-1.0938 0.21997-0.21403 0.40937-0.44186 0.59375-0.6875s0.35541-0.50774 0.5-0.78125c0.14012-0.26505 0.27614-0.52473 0.375-0.8125 0.01041-0.03078 0.02133-0.06274 0.03125-0.09375 0.09046-0.27808 0.1388-0.5794 0.1875-0.875 0.053-0.318 0.094-0.634 0.094-0.969v-2-68-2c0-3.324-2.676-6-6-6h-72z"/>
  <path id="path3615" style="opacity:.2;fill:url(#radialGradient3619)" d="m12 90c-3.324 0-6-2.676-6-6v-2-68-2c0-0.33472 0.04135-0.6507 0.09375-0.96875 0.0487-0.2956 0.09704-0.59692 0.1875-0.875 0.0099-0.03 0.0209-0.063 0.0313-0.094 0.0989-0.2873 0.2349-0.547 0.375-0.812 0.1446-0.2735 0.3156-0.5356 0.5-0.7812 0.1844-0.2457 0.3738-0.4735 0.5937-0.6876 0.44-0.428 0.943-0.8145 1.5-1.0937 0.2786-0.1396 0.5735-0.2469 0.8748-0.3437-0.256 0.1002-0.4865 0.2362-0.7185 0.375-0.00741 0.0044-0.023866-0.0045-0.03125 0-0.031933 0.0193-0.062293 0.04251-0.09375 0.0625-0.1204 0.0767-0.23102 0.16351-0.34375 0.25-0.10617 0.0808-0.21328 0.16111-0.3125 0.25-0.1779 0.1614-0.3474 0.3453-0.5 0.5312-0.1075 0.1303-0.2183 0.2653-0.3124 0.4063-0.0251 0.0383-0.0385 0.0858-0.0626 0.125-0.0647 0.103-0.1302 0.2045-0.1874 0.3124-0.1011 0.1948-0.2057 0.4158-0.2813 0.625-0.008 0.0219-0.0236 0.0406-0.0313 0.0626-0.0318 0.0919-0.0358 0.1868-0.0624 0.2812-0.0304 0.1066-0.0704 0.203-0.0938 0.3125-0.0729 0.3415-0.125 0.6985-0.125 1.0625v2 68 2c0 2.7818 2.2182 5 5 5h2 68 2c2.7818 0 5-2.2182 5-5v-2-68-2c0-0.364-0.052-0.721-0.125-1.0625-0.044-0.2069-0.088-0.3977-0.156-0.5937-0.008-0.022-0.024-0.0407-0.031-0.0626-0.063-0.1737-0.139-0.3674-0.219-0.5312-0.042-0.0828-0.079-0.17-0.125-0.25-0.055-0.0972-0.127-0.1884-0.188-0.2812-0.094-0.141-0.205-0.276-0.312-0.4063-0.143-0.1745-0.303-0.347-0.469-0.5-0.011-0.0102-0.02-0.0211-0.031-0.0313-0.139-0.1255-0.285-0.2344-0.438-0.3437-0.102-0.0731-0.204-0.1534-0.312-0.2187-0.0074-0.0045-0.02384 0.0044-0.03125 0-0.23204-0.13873-0.46255-0.27478-0.71875-0.375 0.30153 0.0968 0.59646 0.20414 0.875 0.34375 0.55709 0.27922 1.0601 0.66569 1.5 1.0938 0.21997 0.21403 0.40937 0.44186 0.59375 0.6875s0.35541 0.50774 0.5 0.78125c0.14012 0.26505 0.27614 0.52473 0.375 0.8125 0.01041 0.03078 0.02133 0.06274 0.03125 0.09375 0.09046 0.27808 0.1388 0.5794 0.1875 0.875 0.053 0.318 0.094 0.634 0.094 0.969v2 68 2c0 3.324-2.676 6-6 6h-72z"/>
 </g>
</svg>
