<?xml version="1.0" encoding="UTF-8" standalone="no"?>
<!-- Created with Inkscape (http://www.inkscape.org/) -->
<svg id="svg2982" xmlns:rdf="http://www.w3.org/1999/02/22-rdf-syntax-ns#" xmlns="http://www.w3.org/2000/svg" height="96" width="96" version="1.1" xmlns:cc="http://creativecommons.org/ns#" xmlns:xlink="http://www.w3.org/1999/xlink" xmlns:dc="http://purl.org/dc/elements/1.1/">
 <defs id="defs2984">
  <filter id="filter8262-2" color-interpolation-filters="sRGB">
   <feGaussianBlur id="feGaussianBlur8264-1" stdDeviation="0.78065245"/>
  </filter>
  <linearGradient id="linearGradient6377-7" x1="48.036" gradientUnits="userSpaceOnUse" y1="25.911" gradientTransform="matrix(.93226 0 0 .93226 3.2517 958.18)" x2="48.036" y2="85.821">
   <stop id="stop3319-60-5" style="stop-color:#3c8fc2" offset="0"/>
   <stop id="stop3321-6-7" style="stop-color:#2174a6" offset="1"/>
  </linearGradient>
  <linearGradient id="linearGradient7237-4" y2="902.36" gradientUnits="userSpaceOnUse" y1="1042.6" x2="48.005" x1="48.003">
   <stop id="stop4537-8" style="stop-color:#617ec4" offset="0"/>
   <stop id="stop4539-5" style="stop-color:#244c8d" offset="1"/>
  </linearGradient>
  <linearGradient id="linearGradient6380" y2="81.481" gradientUnits="userSpaceOnUse" y1="22.933" x2="48.022" x1="48.022">
   <stop id="stop3876-61" style="stop-color:#fff" offset="0"/>
   <stop id="stop3878-87" style="stop-color:#fff;stop-opacity:0" offset="1"/>
  </linearGradient>
  <clipPath id="clipPath3860-3">
   <rect id="rect3862-7" style="fill:#f0f" rx="6" ry="6" height="72" width="84" y="18" x="6"/>
  </clipPath>
  <filter id="filter3870-1" width="1.3312" y="-.19716" x="-.16559" height="1.3943" color-interpolation-filters="sRGB">
   <feGaussianBlur id="feGaussianBlur3872-9" stdDeviation="5.1703125"/>
  </filter>
 </defs>
 <metadata id="metadata2987">
  <rdf:RDF>
   <cc:Work rdf:about="">
    <dc:format>image/svg+xml</dc:format>
    <dc:type rdf:resource="http://purl.org/dc/dcmitype/StillImage"/>
    <dc:title/>
   </cc:Work>
  </rdf:RDF>
 </metadata>
 <g id="layer1" transform="translate(0 -956.36)">
  <g id="g6385">
   <g id="g7247">
    <path id="path3908-1" style="filter:url(#filter8262-2)" transform="matrix(1.021 0 0 1.021 -1.01 -21.124)" d="m17.071 965.51c-2.5957 0-4.6793 2.0361-4.6793 4.5652v3.3668c-2.1585 1.0239-3.6522 3.2074-3.6522 5.7636v57.522c0 3.5408 2.8505 6.3914 6.3913 6.3914h65.739c3.5408 0 6.3913-2.8506 6.3913-6.3914v-57.522c0-2.5654-1.5096-4.7445-3.6807-5.7636-0.1549-2.3907-2.1568-4.2799-4.6508-4.2799h-37.064c-3.8535-3.7547-4.1112-3.5911-5.9348-3.6522h-18.86z"/>
    <rect id="rect3352" style="fill:url(#linearGradient6377-7)" rx="5.5935" ry="5.5935" height="58.432" width="69.919" y="979.76" x="13.074"/>
    <path id="path3908" style="opacity:.75;fill:#204a87" d="m17.236 963.78c-2.5823 0-4.6613 2.0789-4.6613 4.6613v55.761c0 2.2311 1.7892 4.0203 4.0204 4.0203h62.811c2.2311 0 4.0204-1.7892 4.0204-4.0203v-52.032c0-2.5824-2.0789-4.6613-4.6613-4.6613h-37.786c-3.8337-3.8337-4.0707-3.6666-5.8849-3.729z"/>
    <rect id="rect2419" style="stroke:#729fcf;fill:url(#linearGradient7237-4)" rx="5.5935" ry="5.5935" height="70.851" width="78.31" y="971.23" x="8.8452"/>
   </g>
   <g id="layer5" transform="translate(0 952.36)">
    <path id="path3850" style="opacity:.15;filter:url(#filter3870-1);fill:url(#linearGradient6380)" clip-path="url(#clipPath3860-3)" d="m15.969 22.531c-2.8459 0.0043-5.4332 2.5916-5.4375 5.4375v48.062c0.0043 2.8459 2.5916 5.4332 5.4375 5.4375h64.062c2.8459-0.0043 5.4332-2.5916 5.4375-5.4375v-48.062c-0.0043-2.8459-2.5916-5.4332-5.4375-5.4375z"/>
   </g>
  </g>
  <path id="rect2938" style="opacity:.25;fill:#fff" d="m32 986.36c-1.108 0-2 0.892-2 2v40c0 1.108 0.892 2 2 2h32c1.108 0 2-0.892 2-2v-28c0-3-0.86462-4.1459-5.3438-8.625-4.927-4.97-5.656-5.42-8.656-5.42h-20zm2 4h18v10h10v26h-28v-36zm4 6v2h10v-2h-10zm0 6v2h10v-2h-10zm0 6v2h19v-2h-19zm0 6v2h19v-2h-19zm0 6v2h19v-2h-19z"/>
 </g>
</svg>
