<?xml version="1.0" encoding="UTF-8" standalone="no"?>
<!-- Created with Inkscape (http://www.inkscape.org/) -->
<svg id="svg2982" xmlns:rdf="http://www.w3.org/1999/02/22-rdf-syntax-ns#" xmlns="http://www.w3.org/2000/svg" height="96" width="96" version="1.1" xmlns:cc="http://creativecommons.org/ns#" xmlns:xlink="http://www.w3.org/1999/xlink" xmlns:dc="http://purl.org/dc/elements/1.1/">
 <defs id="defs2984">
  <filter id="filter8262" color-interpolation-filters="sRGB">
   <feGaussianBlur id="feGaussianBlur8264" stdDeviation="0.78065245"/>
  </filter>
  <linearGradient id="linearGradient6375" y2="85.821" gradientUnits="userSpaceOnUse" x2="48.036" gradientTransform="matrix(.93226 0 0 .93226 3.2517 958.18)" y1="25.911" x1="48.036">
   <stop id="stop3319-60" style="stop-color:#3c8fc2" offset="0"/>
   <stop id="stop3321-6" style="stop-color:#2174a6" offset="1"/>
  </linearGradient>
  <linearGradient id="linearGradient6378" y2="81.481" gradientUnits="userSpaceOnUse" x2="48.022" y1="22.933" x1="48.022">
   <stop id="stop3876-61" style="stop-color:#fff" offset="0"/>
   <stop id="stop3878-87" style="stop-color:#fff;stop-opacity:0" offset="1"/>
  </linearGradient>
  <clipPath id="clipPath3860-3">
   <rect id="rect3862-7" style="fill:#f0f" rx="6" ry="6" height="72" width="84" y="18" x="6"/>
  </clipPath>
  <filter id="filter3870-1" height="1.3943" width="1.3312" color-interpolation-filters="sRGB" y="-.19716" x="-.16559">
   <feGaussianBlur id="feGaussianBlur3872-9" stdDeviation="5.1703125"/>
  </filter>
 </defs>
 <metadata id="metadata2987">
  <rdf:RDF>
   <cc:Work rdf:about="">
    <dc:format>image/svg+xml</dc:format>
    <dc:type rdf:resource="http://purl.org/dc/dcmitype/StillImage"/>
    <dc:title/>
   </cc:Work>
  </rdf:RDF>
 </metadata>
 <g id="layer1" transform="translate(0 -956.36)">
  <g id="g7148">
   <path id="path3908-1" style="filter:url(#filter8262)" transform="matrix(1.021 0 0 1.021 -1.01 -21.124)" d="m17.071 965.51c-2.5957 0-4.6793 2.0361-4.6793 4.5652v3.3668c-2.1585 1.0239-3.6522 3.2074-3.6522 5.7636v57.522c0 3.5408 2.8505 6.3914 6.3913 6.3914h65.739c3.5408 0 6.3913-2.8506 6.3913-6.3914v-57.522c0-2.5654-1.5096-4.7445-3.6807-5.7636-0.1549-2.3907-2.1568-4.2799-4.6508-4.2799h-37.064c-3.8535-3.7547-4.1112-3.5911-5.9348-3.6522h-18.86z"/>
   <rect id="rect3352" style="fill:url(#linearGradient6375)" rx="5.5935" ry="5.5935" height="58.432" width="69.919" y="979.76" x="13.074"/>
   <path id="path3908" style="opacity:.75;fill:#709937" d="m17.236 963.78c-2.5823 0-4.6613 2.0789-4.6613 4.6613v55.761c0 2.2311 1.7892 4.0203 4.0204 4.0203h62.811c2.2311 0 4.0204-1.7892 4.0204-4.0203v-52.032c0-2.5824-2.0789-4.6613-4.6613-4.6613h-37.786c-3.8337-3.8337-4.0707-3.6666-5.8849-3.729z"/>
   <rect id="rect2419" style="stroke:#97bf60;fill:#709937" rx="5.5935" ry="5.5935" height="70.851" width="78.31" y="971.23" x="8.8452"/>
   <g id="layer5" transform="translate(0 952.36)">
    <path id="path3850" d="m15.969 22.531c-2.8459 0.0043-5.4332 2.5916-5.4375 5.4375v48.062c0.0043 2.8459 2.5916 5.4332 5.4375 5.4375h64.062c2.8459-0.0043 5.4332-2.5916 5.4375-5.4375v-48.062c-0.0043-2.8459-2.5916-5.4332-5.4375-5.4375z" style="opacity:.15;filter:url(#filter3870-1);fill:url(#linearGradient6378)" clip-path="url(#clipPath3860-3)"/>
   </g>
  </g>
  <path id="Symbol" d="m30.547 990.89c-6.0632 6.041-6.0632 15.847 0 21.888 5.2858 5.2664 13.429 5.9678 19.451 2.052 1.0236 0.051 2.6743 0.192 3.2609 0.8549 0.79867 0.9028-0.33032 3.0132 1.2014 4.389l9.5261 9.6524s1.7671 1.8873 4.5195-0.855c2.7524-2.7422 0.85814-4.5029 0.85814-4.5029l-9.5261-9.6524c-1.3809-1.5261-3.499-0.4013-4.4051-1.197-0.66544-0.5844-0.80679-2.2291-0.85813-3.249 3.9303-6.0001 3.2263-14.113-2.0595-19.38-6.0632-6.041-15.905-6.041-21.968 0zm3.7186 3.591c1.8744-1.8676 4.4645-2.964 7.3227-2.964 5.7165 0 10.355 4.6214 10.355 10.317 0 5.6955-4.6383 10.317-10.355 10.317-5.7165 0-10.355-4.6214-10.355-10.317 0-2.8478 1.1576-5.4854 3.0321-7.3529z" style="opacity:.25;fill:#fff"/>
 </g>
</svg>
