<?xml version="1.0" encoding="UTF-8" standalone="no"?>
<!-- Created with Inkscape (http://www.inkscape.org/) -->

<svg
   xmlns:dc="http://purl.org/dc/elements/1.1/"
   xmlns:cc="http://creativecommons.org/ns#"
   xmlns:rdf="http://www.w3.org/1999/02/22-rdf-syntax-ns#"
   xmlns:svg="http://www.w3.org/2000/svg"
   xmlns="http://www.w3.org/2000/svg"
   xmlns:xlink="http://www.w3.org/1999/xlink"
   xmlns:sodipodi="http://sodipodi.sourceforge.net/DTD/sodipodi-0.dtd"
   xmlns:inkscape="http://www.inkscape.org/namespaces/inkscape"
   width="96"
   height="96"
   id="svg2982"
   version="1.1"
   inkscape:version="0.48.1 r9760"
   sodipodi:docname="folder-system.svg">
  <defs
     id="defs2984">
    <filter
       color-interpolation-filters="sRGB"
       inkscape:collect="always"
       id="filter8262">
      <feGaussianBlur
         inkscape:collect="always"
         stdDeviation="0.78065245"
         id="feGaussianBlur8264" />
    </filter>
    <linearGradient
       inkscape:collect="always"
       xlink:href="#linearGradient3317-99"
       id="linearGradient6375"
       gradientUnits="userSpaceOnUse"
       gradientTransform="matrix(0.93225601,0,0,0.93225601,3.2517099,958.18159)"
       x1="48.035713"
       y1="25.910715"
       x2="48.035713"
       y2="85.821426" />
    <linearGradient
       x1="11.794092"
       y1="3.2126782"
       x2="11.794092"
       y2="20.137329"
       id="linearGradient3317-99"
       gradientUnits="userSpaceOnUse"
       gradientTransform="scale(1.0598527,0.9435274)">
      <stop
         id="stop3319-60"
         style="stop-color:#3c8fc2;stop-opacity:1"
         offset="0" />
      <stop
         id="stop3321-6"
         style="stop-color:#2174a6;stop-opacity:1"
         offset="1" />
    </linearGradient>
    <linearGradient
       inkscape:collect="always"
       xlink:href="#linearGradient3874-37"
       id="linearGradient6378"
       gradientUnits="userSpaceOnUse"
       x1="48.021698"
       y1="22.933374"
       x2="48.021698"
       y2="81.481377" />
    <linearGradient
       id="linearGradient3874-37">
      <stop
         id="stop3876-61"
         style="stop-color:#ffffff;stop-opacity:1"
         offset="0" />
      <stop
         id="stop3878-87"
         style="stop-color:#ffffff;stop-opacity:0"
         offset="1" />
    </linearGradient>
    <clipPath
       id="clipPath3860-3">
      <rect
         width="84"
         height="72"
         rx="6"
         ry="6"
         x="6"
         y="18"
         id="rect3862-7"
         style="fill:#ff00ff;fill-opacity:1;fill-rule:nonzero;stroke:none" />
    </clipPath>
    <filter
       x="-0.16558799"
       y="-0.19715989"
       width="1.331176"
       height="1.3943198"
       color-interpolation-filters="sRGB"
       id="filter3870-1">
      <feGaussianBlur
         id="feGaussianBlur3872-9"
         stdDeviation="5.1703125" />
    </filter>
  </defs>
  <sodipodi:namedview
     id="base"
     pagecolor="#ffffff"
     bordercolor="#666666"
     borderopacity="1.0"
     inkscape:pageopacity="0.0"
     inkscape:pageshadow="2"
     inkscape:zoom="3.959798"
     inkscape:cx="17.117342"
     inkscape:cy="42.877139"
     inkscape:document-units="px"
     inkscape:current-layer="layer1"
     showgrid="false"
     inkscape:window-width="1280"
     inkscape:window-height="725"
     inkscape:window-x="0"
     inkscape:window-y="25"
     inkscape:window-maximized="1" />
  <metadata
     id="metadata2987">
    <rdf:RDF>
      <cc:Work
         rdf:about="">
        <dc:format>image/svg+xml</dc:format>
        <dc:type
           rdf:resource="http://purl.org/dc/dcmitype/StillImage" />
        <dc:title />
      </cc:Work>
    </rdf:RDF>
  </metadata>
  <g
     inkscape:label="Layer 1"
     inkscape:groupmode="layer"
     id="layer1"
     transform="translate(0,-956.36218)">
    <g
       id="g7148">
      <path
         transform="matrix(1.0210423,0,0,1.0210423,-1.0100318,-21.123619)"
         d="m 17.070652,965.51435 c -2.595687,0 -4.679348,2.03609 -4.679348,4.56522 l 0,3.36685 c -2.158489,1.02387 -3.6521736,3.20738 -3.6521736,5.76359 l 0,57.52169 c 0,3.5408 2.8505216,6.3914 6.3913046,6.3914 l 65.73913,0 c 3.540783,0 6.391305,-2.8506 6.391305,-6.3914 l 0,-57.52169 c 0,-2.56541 -1.509597,-4.74452 -3.680707,-5.76359 -0.154897,-2.39074 -2.156759,-4.27989 -4.650815,-4.27989 l -37.063859,0 c -3.853525,-3.75472 -4.111223,-3.59107 -5.934782,-3.65218 l -18.860055,0 z"
         inkscape:connector-curvature="0"
         id="path3908-1"
         style="fill:#000000;fill-opacity:1;fill-rule:nonzero;stroke:none;display:inline;filter:url(#filter8262)" />
      <rect
         width="69.919197"
         height="58.432476"
         rx="5.5935359"
         ry="5.5935359"
         x="13.073692"
         y="979.75665"
         id="rect3352"
         style="fill:url(#linearGradient6375);fill-opacity:1;fill-rule:nonzero;stroke:none;display:inline" />
      <path
         d="m 17.23555,963.77513 c -2.582349,0 -4.66128,2.07893 -4.66128,4.66128 l 0,55.76059 c 0,2.2311 1.789204,4.0203 4.020354,4.0203 l 62.810749,0 c 2.231149,0 4.020354,-1.7892 4.020354,-4.0203 l 0,-52.03157 c 0,-2.58235 -2.078931,-4.66128 -4.66128,-4.66128 l -37.785502,0 c -3.833725,-3.83373 -4.070676,-3.66664 -5.884866,-3.72902 z"
         inkscape:connector-curvature="0"
         id="path3908"
         style="opacity:0.75;fill:#709937;fill-opacity:1;fill-rule:nonzero;stroke:none;display:inline" />
      <rect
         width="78.309502"
         height="70.851456"
         rx="5.5935359"
         ry="5.5935359"
         x="8.8452463"
         y="971.23315"
         id="rect2419"
         style="fill:#709937;fill-opacity:1;fill-rule:nonzero;stroke:#97bf60;stroke-opacity:1" />
      <g
         style="display:inline"
         id="layer5"
         transform="translate(0,952.36218)">
        <path
           style="opacity:0.15;fill:url(#linearGradient6378);fill-opacity:1;fill-rule:nonzero;stroke:none;filter:url(#filter3870-1)"
           id="path3850"
           clip-path="url(#clipPath3860-3)"
           inkscape:connector-curvature="0"
           d="m 15.96875,22.53125 c -2.845903,0.0043 -5.433244,2.591597 -5.4375,5.4375 l 0,48.0625 c 0.0043,2.845903 2.591597,5.433244 5.4375,5.4375 l 64.0625,0 c 2.845903,-0.0043 5.433244,-2.591597 5.4375,-5.4375 l 0,-48.0625 c -0.0043,-2.845903 -2.591597,-5.433244 -5.4375,-5.4375 z" />
      </g>
    </g>
    <path
       style="opacity:0.25;fill:#ffffff;fill-opacity:1;fill-rule:nonzero;stroke:none;stroke-width:1;marker:none;visibility:visible;display:block;overflow:visible;enable-background:accumulate"
       id="rect3267"
       inkscape:connector-curvature="0"
       d="m 44.962229,1030.3623 c -0.86581,0 -1.566862,-0.7183 -1.566862,-1.599 l 0,-3.1017 c -1.548119,-0.4125 -3.027352,-1.0355 -4.380798,-1.8227 l -2.206395,2.2064 c -0.311343,0.3114 -0.684294,0.4763 -1.087201,0.4797 -0.402908,0 -0.813076,-0.1416 -1.119181,-0.4477 l -4.316853,-4.3168 c -0.612211,-0.6123 -0.590701,-1.5837 0.03191,-2.2064 l 2.206391,-2.2064 c -0.787146,-1.3535 -1.410185,-2.8327 -1.822672,-4.3808 l -3.101731,0 c -0.880604,0 -1.598835,-0.7011 -1.598835,-1.5669 l 0,-6.0755 c 0,-0.8658 0.718231,-1.5669 1.598835,-1.5669 l 3.101731,0 c 0.412487,-1.5481 1.035526,-3.0274 1.822672,-4.3808 l -2.206391,-2.20639 c -0.62268,-0.62268 -0.644188,-1.59417 -0.03191,-2.20638 l 4.316853,-4.31685 c 0.61221,-0.61222 1.583705,-0.59071 2.206382,0.032 l 2.206395,2.20638 c 1.353446,-0.78715 2.832679,-1.41018 4.380798,-1.82266 l 0,-3.10174 c 0,-0.8806 0.701052,-1.59883 1.566862,-1.59883 l 6.075563,0 c 0.865802,0 1.566854,0.71823 1.566854,1.59883 l 0,3.10174 c 1.548119,0.41248 3.027351,1.03551 4.380799,1.82266 l 2.206392,-2.20638 c 0.622678,-0.62268 1.594173,-0.6442 2.206392,-0.032 l 4.316845,4.31685 c 0.61221,0.61221 0.590701,1.5837 -0.03192,2.20638 l -2.206384,2.20639 c 0.787147,1.3534 1.410184,2.8327 1.822664,4.3808 l 3.101741,0 c 0.880595,0 1.598831,0.7011 1.598831,1.5669 l 0,6.0755 c 0,0.8658 -0.718236,1.5669 -1.598831,1.5669 l -3.101741,0 c -0.412477,1.5481 -1.035513,3.0273 -1.82266,4.3808 l 2.206383,2.2064 c 0.622678,0.6227 0.644195,1.5941 0.03192,2.2064 l -4.316844,4.3168 c -0.61222,0.6122 -1.583713,0.5907 -2.206393,-0.032 l -2.206393,-2.2064 c -1.353446,0.7872 -2.832679,1.4102 -4.380797,1.8227 l 0,3.1017 c 0,0.8806 -0.701052,1.599 -1.566855,1.599 l -6.075563,0 z m 3.037778,-15.3489 c 3.671436,0 6.651146,-2.9797 6.651146,-6.6512 0,-3.6714 -2.97971,-6.6511 -6.651146,-6.6511 -3.67143,0 -6.651146,2.9797 -6.651146,6.6511 0,3.6715 2.979716,6.6512 6.651146,6.6512 z" />
  </g>
</svg>
