<?xml version="1.0" encoding="UTF-8" standalone="no"?>
<!-- Created with Inkscape (http://www.inkscape.org/) -->

<svg
   xmlns:dc="http://purl.org/dc/elements/1.1/"
   xmlns:cc="http://creativecommons.org/ns#"
   xmlns:rdf="http://www.w3.org/1999/02/22-rdf-syntax-ns#"
   xmlns:svg="http://www.w3.org/2000/svg"
   xmlns="http://www.w3.org/2000/svg"
   xmlns:xlink="http://www.w3.org/1999/xlink"
   xmlns:sodipodi="http://sodipodi.sourceforge.net/DTD/sodipodi-0.dtd"
   xmlns:inkscape="http://www.inkscape.org/namespaces/inkscape"
   width="96"
   height="96"
   id="svg2982"
   version="1.1"
   inkscape:version="0.48.1 r9760"
   sodipodi:docname="folder-videos.svg">
  <defs
     id="defs2984">
    <filter
       color-interpolation-filters="sRGB"
       inkscape:collect="always"
       id="filter8262">
      <feGaussianBlur
         inkscape:collect="always"
         stdDeviation="0.78065245"
         id="feGaussianBlur8264" />
    </filter>
    <linearGradient
       inkscape:collect="always"
       xlink:href="#linearGradient3317-99"
       id="linearGradient7278"
       gradientUnits="userSpaceOnUse"
       gradientTransform="matrix(0.93225601,0,0,0.93225601,3.2517099,958.18159)"
       x1="48.035713"
       y1="25.910715"
       x2="48.035713"
       y2="85.821426" />
    <linearGradient
       x1="11.794092"
       y1="3.2126782"
       x2="11.794092"
       y2="20.137329"
       id="linearGradient3317-99"
       gradientUnits="userSpaceOnUse"
       gradientTransform="scale(1.0598527,0.9435274)">
      <stop
         id="stop3319-60"
         style="stop-color:#3c8fc2;stop-opacity:1"
         offset="0" />
      <stop
         id="stop3321-6"
         style="stop-color:#2174a6;stop-opacity:1"
         offset="1" />
    </linearGradient>
    <linearGradient
       inkscape:collect="always"
       xlink:href="#linearGradient3885-35"
       id="linearGradient7274"
       gradientUnits="userSpaceOnUse"
       x1="48.005402"
       y1="1042.5925"
       x2="48.003235"
       y2="902.36261" />
    <linearGradient
       id="linearGradient3885-35">
      <stop
         id="stop3887-1"
         style="stop-color:#eb7731;stop-opacity:1"
         offset="0" />
      <stop
         id="stop3889-1"
         style="stop-color:#e59343;stop-opacity:1"
         offset="0.5" />
      <stop
         id="stop3891-4"
         style="stop-color:#e5b66b;stop-opacity:1"
         offset="1" />
    </linearGradient>
    <linearGradient
       inkscape:collect="always"
       xlink:href="#linearGradient3874-37"
       id="linearGradient7281"
       gradientUnits="userSpaceOnUse"
       x1="48.021698"
       y1="22.933374"
       x2="48.021698"
       y2="81.481377" />
    <linearGradient
       id="linearGradient3874-37">
      <stop
         id="stop3876-61"
         style="stop-color:#ffffff;stop-opacity:1"
         offset="0" />
      <stop
         id="stop3878-87"
         style="stop-color:#ffffff;stop-opacity:0"
         offset="1" />
    </linearGradient>
    <clipPath
       id="clipPath3860-3">
      <rect
         width="84"
         height="72"
         rx="6"
         ry="6"
         x="6"
         y="18"
         id="rect3862-7"
         style="fill:#ff00ff;fill-opacity:1;fill-rule:nonzero;stroke:none" />
    </clipPath>
    <filter
       x="-0.16558799"
       y="-0.19715989"
       width="1.331176"
       height="1.3943198"
       color-interpolation-filters="sRGB"
       id="filter3870-1">
      <feGaussianBlur
         id="feGaussianBlur3872-9"
         stdDeviation="5.1703125" />
    </filter>
  </defs>
  <sodipodi:namedview
     id="base"
     pagecolor="#ffffff"
     bordercolor="#666666"
     borderopacity="1.0"
     inkscape:pageopacity="0.0"
     inkscape:pageshadow="2"
     inkscape:zoom="3.959798"
     inkscape:cx="36.39115"
     inkscape:cy="42.877139"
     inkscape:document-units="px"
     inkscape:current-layer="layer1"
     showgrid="false"
     inkscape:window-width="1280"
     inkscape:window-height="725"
     inkscape:window-x="0"
     inkscape:window-y="25"
     inkscape:window-maximized="1" />
  <metadata
     id="metadata2987">
    <rdf:RDF>
      <cc:Work
         rdf:about="">
        <dc:format>image/svg+xml</dc:format>
        <dc:type
           rdf:resource="http://purl.org/dc/dcmitype/StillImage" />
        <dc:title></dc:title>
      </cc:Work>
    </rdf:RDF>
  </metadata>
  <g
     inkscape:label="Layer 1"
     inkscape:groupmode="layer"
     id="layer1"
     transform="translate(0,-956.36218)">
    <g
       id="g7302">
      <path
         transform="matrix(1.0210423,0,0,1.0210423,-1.0100318,-21.123619)"
         d="m 17.070652,965.51435 c -2.595687,0 -4.679348,2.03609 -4.679348,4.56522 l 0,3.36685 c -2.158489,1.02387 -3.6521736,3.20738 -3.6521736,5.76359 l 0,57.52169 c 0,3.5408 2.8505216,6.3914 6.3913046,6.3914 l 65.73913,0 c 3.540783,0 6.391305,-2.8506 6.391305,-6.3914 l 0,-57.52169 c 0,-2.56541 -1.509597,-4.74452 -3.680707,-5.76359 -0.154897,-2.39074 -2.156759,-4.27989 -4.650815,-4.27989 l -37.063859,0 c -3.853525,-3.75472 -4.111223,-3.59107 -5.934782,-3.65218 l -18.860055,0 z"
         inkscape:connector-curvature="0"
         id="path3908-1"
         style="fill:#000000;fill-opacity:1;fill-rule:nonzero;stroke:none;display:inline;filter:url(#filter8262)" />
      <rect
         width="69.919197"
         height="58.432476"
         rx="5.5935359"
         ry="5.5935359"
         x="13.073692"
         y="979.75665"
         id="rect3352"
         style="fill:url(#linearGradient7278);fill-opacity:1;fill-rule:nonzero;stroke:none;display:inline" />
      <path
         d="m 17.23555,963.77513 c -2.582349,0 -4.66128,2.07893 -4.66128,4.66128 l 0,55.76059 c 0,2.2311 1.789204,4.0203 4.020354,4.0203 l 62.810749,0 c 2.231149,0 4.020354,-1.7892 4.020354,-4.0203 l 0,-52.03157 c 0,-2.58235 -2.078931,-4.66128 -4.66128,-4.66128 l -37.785502,0 c -3.833725,-3.83373 -4.070676,-3.66664 -5.884866,-3.72902 z"
         inkscape:connector-curvature="0"
         id="path3908"
         style="opacity:0.75;fill:#e07a1f;fill-opacity:1;fill-rule:nonzero;stroke:none;display:inline" />
      <rect
         width="78.309502"
         height="70.851456"
         rx="5.5935359"
         ry="5.5935359"
         x="8.8452463"
         y="971.23315"
         id="rect2419"
         style="fill:url(#linearGradient7274);fill-opacity:1;fill-rule:nonzero;stroke:#faa546;stroke-opacity:1" />
      <g
         style="display:inline"
         id="layer5"
         transform="translate(0,952.36218)">
        <path
           style="opacity:0.15;fill:url(#linearGradient7281);fill-opacity:1;fill-rule:nonzero;stroke:none;filter:url(#filter3870-1)"
           id="path3850"
           clip-path="url(#clipPath3860-3)"
           inkscape:connector-curvature="0"
           d="m 15.96875,22.53125 c -2.845903,0.0043 -5.433244,2.591597 -5.4375,5.4375 l 0,48.0625 c 0.0043,2.845903 2.591597,5.433244 5.4375,5.4375 l 64.0625,0 c 2.845903,-0.0043 5.433244,-2.591597 5.4375,-5.4375 l 0,-48.0625 c -0.0043,-2.845903 -2.591597,-5.433244 -5.4375,-5.4375 z" />
      </g>
    </g>
    <path
       style="opacity:0.25;fill:#ffffff;fill-opacity:1;stroke:none;display:inline"
       id="path3729"
       inkscape:connector-curvature="0"
       d="m 38,986.36218 c -6.627417,0 -12.000001,5.37258 -12.000001,12 0,4.45672 2.45369,8.33652 6.0625,10.40622 -0.03983,0.1957 -0.0625,0.386 -0.0625,0.5938 l 0,2.0312 c -0.163037,-0.027 -0.326875,-0.031 -0.5,-0.031 -1.385,0 -2.5,0.892 -2.5,2 0,1.108 1.115,2 2.5,2 0.173125,0 0.336963,0 0.5,-0.031 l 0,6.0313 c 0,1.662 1.338,3 3.000001,3 l 1,0 3.5625,0 -3.1875,4.1875 c -0.562048,0.7298 0.264363,1.8192 1.375,1.8125 l 9,0 9.03125,0 c 1.110637,0.01 1.937048,-1.0827 1.375,-1.8125 l -3.1875,-4.1875 4.03125,0 1,0 c 1.662,0 3,-1.338 3,-3 l 0,-3.0313 0.40625,0 5.15625,3.5938 c 0.485527,0.4311 1.109339,0.4341 1.59375,0 0.484411,-0.4341 0.811192,-1.2889 0.8125,-2.1563 l 0,-4.9375 0,-3.9375 c 0.01059,-1.4204 -0.903594,-2.6814 -1.8125,-2.5 -0.20856,0.043 -0.411574,0.1495 -0.59375,0.3125 l -5.15625,3.625 -0.40625,0 0,-2.9687 c 0,-0.6233 -0.17716,-1.2089 -0.5,-1.6875 2.730964,-2.1969 4.5,-5.5325 4.5,-9.31252 0,-6.62742 -5.372584,-12 -12,-12 -3.078097,0 -5.876514,1.1536 -8,3.0625 -2.123486,-1.9089 -4.921903,-3.0625 -8,-3.0625 z m 0,6 c 1.863961,0 3.524512,0.85402 4.625,2.1875 0.427968,0.51858 0.763242,1.10774 1,1.75 0.100944,0.27569 0.190056,0.55081 0.25,0.84375 0.01086,0.0522 0.02176,0.10358 0.03125,0.15625 0.0054,0.0304 -0.0049,0.0632 0,0.0937 0.05186,0.31583 0.09375,0.63805 0.09375,0.96875 0,0.3307 -0.04189,0.65292 -0.09375,0.96875 -0.005,0.0303 0.0054,0.0636 0,0.0937 -0.04415,0.24929 -0.113586,0.48111 -0.1875,0.71872 -0.02933,0.094 -0.06,0.1897 -0.09375,0.2813 -0.236758,0.6422 -0.572032,1.2314 -1,1.75 -1.100488,1.3335 -2.761039,2.1875 -4.625,2.1875 -3.313709,0 -6.000001,-2.6863 -6.000001,-6.00002 0,-3.31371 2.686292,-6 6.000001,-6 z m 16,0 c 3.313709,0 6,2.68629 6,6 0,3.31372 -2.686291,6.00002 -6,6.00002 -1.863961,0 -3.524512,-0.854 -4.625,-2.1875 -0.427968,-0.5186 -0.763242,-1.1078 -1,-1.75 -0.111856,-0.3055 -0.219962,-0.61107 -0.28125,-0.93752 -0.0095,-0.0499 0.0083,-0.1059 0,-0.15625 C 48.04189,999.0151 48,998.69288 48,998.36218 c 0,-0.3307 0.04189,-0.65292 0.09375,-0.96875 0.0083,-0.0503 -0.0095,-0.10633 0,-0.15625 0.06129,-0.32645 0.169394,-0.63201 0.28125,-0.9375 0.236758,-0.64226 0.572032,-1.23142 1,-1.75 1.100488,-1.33348 2.761039,-2.1875 4.625,-2.1875 z m -16,2 c -2.209138,0 -4,1.79086 -4,4 0,2.20912 1.790862,4.00002 4,4.00002 2.209138,0 4,-1.7909 4,-4.00002 0,-2.20914 -1.790862,-4 -4,-4 z m 16,0 c -2.209138,0 -4,1.79086 -4,4 0,2.20912 1.790862,4.00002 4,4.00002 2.209138,0 4,-1.7909 4,-4.00002 0,-2.20914 -1.790862,-4 -4,-4 z" />
  </g>
</svg>
