<?xml version="1.0" encoding="UTF-8" standalone="no"?>
<!-- Created with Inkscape (http://www.inkscape.org/) -->
<svg id="svg2982" xmlns:rdf="http://www.w3.org/1999/02/22-rdf-syntax-ns#" xmlns="http://www.w3.org/2000/svg" height="96" width="96" version="1.1" xmlns:cc="http://creativecommons.org/ns#" xmlns:xlink="http://www.w3.org/1999/xlink" xmlns:dc="http://purl.org/dc/elements/1.1/">
 <defs id="defs2984">
  <filter id="filter8262" color-interpolation-filters="sRGB">
   <feGaussianBlur id="feGaussianBlur8264" stdDeviation="0.78065245"/>
  </filter>
  <linearGradient id="linearGradient7278" y2="85.821" gradientUnits="userSpaceOnUse" x2="48.036" gradientTransform="matrix(.93226 0 0 .93226 3.2517 958.18)" y1="25.911" x1="48.036">
   <stop id="stop3319-60" style="stop-color:#3c8fc2" offset="0"/>
   <stop id="stop3321-6" style="stop-color:#2174a6" offset="1"/>
  </linearGradient>
  <linearGradient id="linearGradient7274" y2="902.36" gradientUnits="userSpaceOnUse" x2="48.003" y1="1042.6" x1="48.005">
   <stop id="stop3887-1" style="stop-color:#eb7731" offset="0"/>
   <stop id="stop3889-1" style="stop-color:#e59343" offset=".5"/>
   <stop id="stop3891-4" style="stop-color:#e5b66b" offset="1"/>
  </linearGradient>
  <linearGradient id="linearGradient7281" y2="81.481" gradientUnits="userSpaceOnUse" x2="48.022" y1="22.933" x1="48.022">
   <stop id="stop3876-61" style="stop-color:#fff" offset="0"/>
   <stop id="stop3878-87" style="stop-color:#fff;stop-opacity:0" offset="1"/>
  </linearGradient>
  <clipPath id="clipPath3860-3">
   <rect id="rect3862-7" style="fill:#f0f" rx="6" ry="6" height="72" width="84" y="18" x="6"/>
  </clipPath>
  <filter id="filter3870-1" height="1.3943" width="1.3312" color-interpolation-filters="sRGB" y="-.19716" x="-.16559">
   <feGaussianBlur id="feGaussianBlur3872-9" stdDeviation="5.1703125"/>
  </filter>
 </defs>
 <metadata id="metadata2987">
  <rdf:RDF>
   <cc:Work rdf:about="">
    <dc:format>image/svg+xml</dc:format>
    <dc:type rdf:resource="http://purl.org/dc/dcmitype/StillImage"/>
    <dc:title/>
   </cc:Work>
  </rdf:RDF>
 </metadata>
 <g id="layer1" transform="translate(0 -956.36)">
  <g id="g7302">
   <path id="path3908-1" style="filter:url(#filter8262)" transform="matrix(1.021 0 0 1.021 -1.01 -21.124)" d="m17.071 965.51c-2.5957 0-4.6793 2.0361-4.6793 4.5652v3.3668c-2.1585 1.0239-3.6522 3.2074-3.6522 5.7636v57.522c0 3.5408 2.8505 6.3914 6.3913 6.3914h65.739c3.5408 0 6.3913-2.8506 6.3913-6.3914v-57.522c0-2.5654-1.5096-4.7445-3.6807-5.7636-0.1549-2.3907-2.1568-4.2799-4.6508-4.2799h-37.064c-3.8535-3.7547-4.1112-3.5911-5.9348-3.6522h-18.86z"/>
   <rect id="rect3352" style="fill:url(#linearGradient7278)" rx="5.5935" ry="5.5935" height="58.432" width="69.919" y="979.76" x="13.074"/>
   <path id="path3908" style="opacity:.75;fill:#e07a1f" d="m17.236 963.78c-2.5823 0-4.6613 2.0789-4.6613 4.6613v55.761c0 2.2311 1.7892 4.0203 4.0204 4.0203h62.811c2.2311 0 4.0204-1.7892 4.0204-4.0203v-52.032c0-2.5824-2.0789-4.6613-4.6613-4.6613h-37.786c-3.8337-3.8337-4.0707-3.6666-5.8849-3.729z"/>
   <rect id="rect2419" style="stroke:#faa546;fill:url(#linearGradient7274)" rx="5.5935" ry="5.5935" height="70.851" width="78.31" y="971.23" x="8.8452"/>
   <g id="layer5" transform="translate(0 952.36)">
    <path id="path3850" d="m15.969 22.531c-2.8459 0.0043-5.4332 2.5916-5.4375 5.4375v48.062c0.0043 2.8459 2.5916 5.4332 5.4375 5.4375h64.062c2.8459-0.0043 5.4332-2.5916 5.4375-5.4375v-48.062c-0.0043-2.8459-2.5916-5.4332-5.4375-5.4375z" style="opacity:.15;filter:url(#filter3870-1);fill:url(#linearGradient7281)" clip-path="url(#clipPath3860-3)"/>
   </g>
  </g>
  <path id="rect2957" d="m47 984.36c-0.554 0-1 0.446-1 1v7.3438c-2.3312 0.82325-4 3.0432-4 5.6562 0 1.2827 0.4081 2.4622 1.0938 3.4375l-2.5625 8.5625h-4.5312c-0.554 0-1 0.446-1 1s0.446 1 1 1h3.9375l-2.2188 7.4375c-2.2171 7.4323-2.2798 13.929-0.15625 14.562l6.5625-22h7.7812l6.5625 22c2.1235-0.6335 2.0608-7.1302-0.15625-14.562l-2.2188-7.4375h3.9062c0.554 0 1-0.446 1-1s-0.446-1-1-1h-4.5l-2.5625-8.5938c0.67-1 1.062-2.17 1.062-3.44 0-2.613-1.6688-4.833-4-5.6562v-7.3438c0-0.554-0.446-1-1-1h-2zm1 10c2.2091 0 4 1.7909 4 4 0 0.32165-0.05331 0.63782-0.125 0.9375-0.04599 0.19224-0.08362 0.38216-0.15625 0.5625-0.06614 0.16372-0.16371 0.31732-0.25 0.46872-0.0069 0.012-0.02425 0.019-0.03125 0.031-0.08536 0.1461-0.17848 0.3045-0.28125 0.4375-0.11133 0.1441-0.21378 0.2792-0.34375 0.4062-0.12998 0.1271-0.29075 0.2355-0.4375 0.3438-0.2935 0.2164-0.61934 0.4003-0.96875 0.5312-0.1747 0.065-0.34537 0.1148-0.53125 0.1563-0.28152 0.063-0.57456 0.125-0.875 0.125-0.28675 0-0.5741-0.036-0.84375-0.094-0.24615-0.052-0.49266-0.1238-0.71875-0.2187-0.02134-0.01-0.04135-0.022-0.0625-0.031-0.182-0.081-0.36476-0.1753-0.53125-0.2812-0.06329-0.04-0.12669-0.081-0.1875-0.125-0.04295-0.031-0.08339-0.061-0.125-0.094-0.11209-0.087-0.21042-0.1826-0.3125-0.2812-0.13126-0.129-0.26261-0.2913-0.375-0.4375-0.05088-0.066-0.10952-0.1181-0.15625-0.1875-0.02564-0.038-0.03814-0.086-0.0625-0.125-0.02843-0.046-0.06712-0.078-0.09375-0.125-0.09638-0.1677-0.17836-0.3494-0.25-0.53127-0.06905-0.175-0.11165-0.34483-0.15625-0.53125-0.072-0.3-0.125-0.62-0.125-0.94 0-2.2091 1.7909-4 4-4zm-1.4062 9.8125c0.45102 0.1083 0.92201 0.1875 1.4062 0.1875 0.5056 0 0.99968-0.07 1.4688-0.1875l1.8438 6.1875h-6.5625l1.8438-6.1875z" style="opacity:.25;fill:#fff"/>
 </g>
</svg>
