<?xml version="1.0" encoding="UTF-8" standalone="no"?>
<!-- Created with Inkscape (http://www.inkscape.org/) -->
<svg id="svg2408" xmlns:rdf="http://www.w3.org/1999/02/22-rdf-syntax-ns#" xmlns="http://www.w3.org/2000/svg" height="64" width="64" version="1.0" xmlns:cc="http://creativecommons.org/ns#" xmlns:xlink="http://www.w3.org/1999/xlink" xmlns:dc="http://purl.org/dc/elements/1.1/">
 <defs id="defs2410">
  <linearGradient id="linearGradient4420">
   <stop id="stop4422" style="stop-color:#4d4d4d" offset="0"/>
   <stop id="stop4424" style="stop-color:#4d4d4d;stop-opacity:0" offset="1"/>
  </linearGradient>
  <linearGradient id="linearGradient4097">
   <stop id="stop4099" offset="0"/>
   <stop id="stop4101" style="stop-opacity:0" offset="1"/>
  </linearGradient>
  <linearGradient id="ButtonShadow-0" y2="7.0165" gradientUnits="userSpaceOnUse" x2="45.448" gradientTransform="matrix(1.0059 0 0 .99417 100 0)" y1="92.54" x1="45.448">
   <stop id="stop3750-8" offset="0"/>
   <stop id="stop3752-5" style="stop-opacity:.58824" offset="1"/>
  </linearGradient>
  <linearGradient id="linearGradient3101" y2="90.239" xlink:href="#ButtonShadow-0" gradientUnits="userSpaceOnUse" x2="32.251" gradientTransform="matrix(.68254 0 0 -.67460 -.76190 65.378)" y1="6.1317" x1="32.251"/>
  <linearGradient id="linearGradient3109" y2="90.239" xlink:href="#ButtonShadow-0" gradientUnits="userSpaceOnUse" x2="32.251" gradientTransform="matrix(.66667 0 0 -.66667 0 64.664)" y1="6.1317" x1="32.251"/>
  <linearGradient id="linearGradient3111" y2="46.297" gradientUnits="userSpaceOnUse" x2="45.703" gradientTransform="matrix(0 -1 1 0 -14.297 78.297)" y1="46.297" x1="18.297">
   <stop id="stop4039" style="stop-color:#93a7ac" offset="0"/>
   <stop id="stop4041" style="stop-color:#93a7ac;stop-opacity:0" offset="1"/>
  </linearGradient>
  <linearGradient id="linearGradient3113" y2="40.028" gradientUnits="userSpaceOnUse" x2="39.433" gradientTransform="matrix(0 -1 1 0 -5.6875 69.688)" y1="61.919" x1="11.862">
   <stop id="stop4447" offset="0"/>
   <stop id="stop4449" style="stop-opacity:0" offset="1"/>
  </linearGradient>
  <linearGradient id="linearGradient3115" y2="36.703" gradientUnits="userSpaceOnUse" x2="40.59" gradientTransform="matrix(0 1 -1 0 68.7 4.7062)" y1="36.703" x1=".51610">
   <stop id="stop4386" style="stop-color:#5fbcd3" offset="0"/>
   <stop id="stop4388" style="stop-color:#5fbcd3;stop-opacity:0" offset="1"/>
  </linearGradient>
  <radialGradient id="radialGradient3117" gradientUnits="userSpaceOnUse" cy="36.703" cx="31.997" gradientTransform="matrix(1 0 0 .89653 -5e-7 3.7978)" r="21.133">
   <stop id="stop4378" style="stop-color:#afdde9" offset="0"/>
   <stop id="stop4380" style="stop-color:#afdde9;stop-opacity:0" offset="1"/>
  </radialGradient>
  <linearGradient id="linearGradient3119" y2="16.266" gradientUnits="userSpaceOnUse" x2="58.75" gradientTransform="matrix(1 0 0 1.2017 0 -3.0848)" y1="16.266" x1="4.6562">
   <stop id="stop4080" style="stop-color:#fff" offset="0"/>
   <stop id="stop4088" style="stop-color:#fff" offset=".25"/>
   <stop id="stop4086" style="stop-color:#999" offset=".78653"/>
   <stop id="stop4090" style="stop-color:#fff" offset=".95057"/>
   <stop id="stop4082" style="stop-color:#fff;stop-opacity:0" offset="1"/>
  </linearGradient>
  <linearGradient id="linearGradient3121" y2="20.109" gradientUnits="userSpaceOnUse" x2="33.906" gradientTransform="matrix(0 1 -.99561 0 51.832 -11.812)" y1="20.109" x1="29.938">
   <stop id="stop4439" style="stop-color:#4d4d4d" offset="0"/>
   <stop id="stop4441" style="stop-color:#4d4d4d;stop-opacity:0" offset="1"/>
  </linearGradient>
  <linearGradient id="linearGradient3123" y2="21.794" xlink:href="#linearGradient4420" gradientUnits="userSpaceOnUse" x2="6.6314" gradientTransform="matrix(0 1 -1 0 24.573 13.332)" y1="17.49" x1="1.6007"/>
  <radialGradient id="radialGradient3125" gradientUnits="userSpaceOnUse" cy="39.562" cx="31.997" gradientTransform="matrix(1 0 0 1.0001 0 .86227)" r="14.77">
   <stop id="stop4817" style="stop-color:#fff" offset="0"/>
   <stop id="stop4819" style="stop-color:#fff;stop-opacity:0" offset="1"/>
  </radialGradient>
  <linearGradient id="linearGradient3127" y2="10.575" gradientUnits="userSpaceOnUse" x2="35.201" gradientTransform="matrix(0 1 -1 0 42.606 -21.457)" y1="10.575" x1="25.567">
   <stop id="stop3863" style="stop-color:#ccc" offset="0"/>
   <stop id="stop3865" style="stop-color:#ccc;stop-opacity:0" offset="1"/>
  </linearGradient>
  <linearGradient id="linearGradient3129" y2="10.576" xlink:href="#linearGradient4097" gradientUnits="userSpaceOnUse" x2="9.6344" gradientTransform="matrix(-1 0 0 1 19.531 0)" y1="10.576" x1="6.5938"/>
  <linearGradient id="linearGradient3131" y2="21.794" xlink:href="#linearGradient4420" gradientUnits="userSpaceOnUse" x2="6.6314" gradientTransform="matrix(0 1 1 0 39.463 13.332)" y1="17.49" x1="1.6007"/>
  <linearGradient id="linearGradient3133" y2="10.576" xlink:href="#linearGradient4097" gradientUnits="userSpaceOnUse" x2="9.6344" gradientTransform="translate(44.482)" y1="10.576" x1="6.5938"/>
 </defs>
 <metadata id="metadata2413">
  <rdf:RDF>
   <cc:Work rdf:about="">
    <dc:format>image/svg+xml</dc:format>
    <dc:type rdf:resource="http://purl.org/dc/dcmitype/StillImage"/>
    <dc:title/>
   </cc:Work>
  </rdf:RDF>
 </metadata>
 <g id="g3077" transform="translate(.15660 -.84375)">
  <path id="path3786" d="m8 2.6562c-0.5789 0.0094-1.13-0.0025-1.4375 0.375l-4.1875 5.125c-0.35638 0.41808-1.0493 1.2363-1.0312 1.75l3.9688 46.75c0.15517 3.6708 3.0134 6.6875 6.6875 6.6875h40c3.6741 0 6.5323-3.0167 6.6875-6.6875l3.437-34.031 0.063-1.625 0.468-11.094c0.0181-0.51369-0.67487-1.3319-1.0312-1.75l-4.1875-5.125c-0.308-0.3773-0.859-0.3654-1.438-0.3748h-11.031-3.5312z" style="opacity:0.08;fill:url(#linearGradient3101)"/>
  <path id="path3778" d="m8 3.3125c-0.4237-0.0039-0.7429 0.0978-0.9375 0.375l-3.9375 5.0313c-0.5254 0.6162-1.0944 1.3452-1.0938 1.8432l3.9375 46.094c0.14 3.312 2.7169 6.032 6.0313 6.032h40c3.3144 0 5.8913-2.7198 6.0312-6.0312l3.438-34.032 0.062-1.625 0.438-10.438c0-0.498-0.569-1.227-1.094-1.8432l-3.937-5.0313c-0.195-0.2772-0.514-0.3789-0.938-0.375h-11.031-3.5312z" style="opacity:.1;fill:url(#linearGradient3101)"/>
  <path id="path3770" d="m8.625 4c-0.3692 0.0005-0.8536 0.1925-1.1875 0.625l-3.625 4.8438c-0.72314 0.96402-1.0812 1.4699-1.0625 2.375l3.9062 44.812c0.1242 2.937 2.4044 5.344 5.3438 5.344h40c2.9394 0 5.2196-2.407 5.3438-5.3438l3.437-34.031 0.063-1.625 0.406-9.156c0.0187-0.90507-0.33936-1.411-1.0625-2.375l-3.626-4.844c-0.333-0.4325-0.818-0.6245-1.187-0.625h-10.406-3.531z" style="opacity:.2;fill:url(#linearGradient3101)"/>
  <path id="rect3723" d="m9.125 4.6562c-0.5194 0.003-0.8826 0.2237-1.25 0.7813l-3.5312 5.2812c-0.74668 1.2033-0.83505 2.0288-0.8125 3.1875l3.8125 42.75c0.10919 2.583 2.0709 4.6875 4.6562 4.6875h40c2.5853 0 4.5471-2.1045 4.6562-4.6875l3.4375-34.031 0.125-3.2812 0.25-5.4375c0.0226-1.1587-0.0658-1.9842-0.8125-3.1875l-3.531-5.2805c-0.367-0.5576-0.731-0.7783-1.25-0.7813h-9.1562-4.2812z" style="opacity:.3;fill:url(#linearGradient3101)"/>
  <path id="rect3716" d="m9.6875 4.6562-4.8125 7.5c-0.4424 0.739-0.6182 1.546-0.625 2.469l3.75 42.031c0.092253 2.2141 1.784 4 4 4h40c2.216 0 3.9077-1.7859 4-4l3.5-35.656h-0.031l0.281-6.375c-0.007-0.92316-0.18262-1.7303-0.625-2.4688l-4.8125-7.5h-9.3438-3.5312z" style="opacity:.45;fill:url(#linearGradient3109)"/>
  <path id="rect3181" d="m8.5425 6.2996h46.901l2.2061 3.6906-3.9523 45.117c-0.12715 1.4515-1.1308 2.5878-2.5878 2.5878h-38.22c-1.4571 0-2.4609-1.1363-2.5878-2.5878l-3.9579-45.255z" style="fill:#afdde9"/>
  <path id="path3244" d="m11.844 4c-0.924 0-1.9434 0.0916-2.8128 1.5l-3.7187 6.031c-0.50226 0.79283-1.1147 1.4206-1 4.0312l3.6875 40.438c0.092253 2.2141 1.784 4 4 4h40c2.216 0 3.9077-1.7859 4-4l3.5312-36.875 0.15625-3.5625c0.11475-2.6107-0.49774-3.2384-1-4.0312l-3.718-6.031c-0.87-1.4084-1.889-1.5-2.813-1.5zm-0.375 2.3125h41.062l4.2188 7.3438c0.43861 0.74573 0.25735 1.186-0.4375 1.1875l1.125 0.03125-0.1875 4.25-3.5625 35.969c-0.06299 1.4557-1.1054 2.5938-2.5625 2.5938h-38.25c-1.4571 0-2.4995-1.1381-2.5625-2.5938l-3.7495-40.219 1.125-0.031c-0.6949-0.002-0.8761-0.442-0.4375-1.188z" style="fill:#fff"/>
  <path id="path4027" d="m5 32.594 3 23.406c0.28172 2.198 1.784 4 4 4h40c2.216 0 3.7198-1.8018 4-4l2.9831-23.406h-2.3125l-2.9831 22.5c-0.1915 1.4444-1.1054 2.5938-2.5625 2.5938h-38.25c-1.4571 0-2.3699-1.1495-2.5625-2.5938l-3-22.5z" style="opacity:.5;fill:url(#linearGradient3111)"/>
  <path id="path4321" d="m6.6875 17.688 3.625 37.406c0.06299 1.4557 1.1054 2.5938 2.5625 2.5938h38.25c1.4571 0 2.4995-1.1381 2.5625-2.5938l3.625-37.406h-0.375l-5.25 35.406c-0.133 1.451-1.1054 2.5938-2.5625 2.5938h-34.25c-1.4571 0-2.4297-1.1428-2.5625-2.5938l-5.2495-35.406z" style="opacity:.23223;fill:url(#linearGradient3113)"/>
  <path id="rect4366" d="m10.864 17.757 2.5961 37.893h6.0673l-2.5961-37.893h-6.0673zm11.201 0 2.5961 37.893h6.0673l-2.5961-37.893h-6.0673zm13.797 0-2.5961 37.893h6.0673l2.5961-37.893h-6.0673zm11.201 0-2.5961 37.893h6.0673l2.5961-37.893h-6.0673z" style="fill:url(#linearGradient3115)"/>
  <path id="path4374" style="fill:url(#radialGradient3117)" d="m10.864 17.757 2.5961 37.893h6.0673l-2.5961-37.893h-6.0673zm11.201 0 2.5961 37.893h6.0673l-2.5961-37.893h-6.0673zm13.797 0-2.5961 37.893h6.0673l2.5961-37.893h-6.0673zm11.201 0-2.5961 37.893h6.0673l2.5961-37.893h-6.0673z"/>
  <path id="path41" d="m30.57 23.67c1.5846 0.40216 2.8248 3.1871 2.8438 3.2188 0.49435 0.82778 1.875 3.625 1.875 3.625l-3.4688 2.1875 8.2812 0.65625 3.2188-8-3.8125 2.7188s-1.6136-3.8749-2.7812-4.1875c-1.1677-0.3126-6.1562-0.21875-6.1562-0.21875zm-1.5312 0.28125c-2.0138 0-4.5625 4.9375-4.5625 4.9375l5.625 3.6562 2.75-5.375c-0.86896-1.4338-1.7817-3.2188-3.8125-3.2188zm-4.125 8.4688-7.6875 0.53125 3.1562 2.375s-2.1779 3.145-1.875 4.3438c0.30294 1.1987 2 6.1562 2 6.1562-0.42986-1.616 1.3573-4.0613 1.375-4.0938 0.46353-0.84635 2.4062-4.125 2.4062-4.125l3.25 1.9062-2.625-7.0938zm19.844 2.625-5.9375 3.0938 3.0625 5.1562c1.6451-0.02825 3.6127 0.10036 4.6562-1.6875 1.0348-1.7729-1.7812-6.5625-1.7812-6.5625zm-7.875 4.875-5.3438 6.5312 5.0938 6.75 0.09375-4.25s3.7637 0.36736 4.625-0.5c0.86133-0.86736 4.4375-5.25 4.4375-5.25-1.1504 1.1884-4.12 0.84337-4.1562 0.84375-0.94601 0.0098-4.6875-0.0625-4.6875-0.0625l-0.0625-4.0625zm-8.7188 2.3125-5.875 0.1875c-0.79669 1.4773-1.8957 3.1488-0.90625 4.9688 0.9812 1.8047 6.4375 1.6875 6.4375 1.6875l0.34375-6.8438z" style="opacity:.5;fill:#164450;fill-rule:evenodd"/>
  <rect id="rect3281" style="opacity:.97156;fill:#fff" rx="0" ry="0" height="2.9071" width="54.079" y="14.77" x="4.665"/>
  <path id="rect3273" d="m11.528 6.3091-4.0354 6.9579c-0.92032 1.5435-0.15364 1.5734 0.62218 1.5734h48.282c0.53871-0.03092 0.73775-0.36202 0.48745-0.92416l-4.412-7.6069z" style="opacity:.97156;fill:#4d4d4d"/>
  <path id="rect3283" d="m58.75 14.753h-54.094v3.4173h54.094v-3.4173z" style="opacity:.97156;fill:url(#linearGradient3119)"/>
  <path id="rect4432" d="m6.6875 18.125v3.9688h50.247v-3.9688h-50.247z" style="opacity:.68720;fill:url(#linearGradient3121)"/>
  <path id="path4408" d="m6.6861 18.133c-1.4988-0.0061-2.3682-1.644-2.368-3.2833l0.28887 7.9734 2.483 2.8658z" style="fill:url(#linearGradient3123)"/>
  <path id="path4813" style="fill:url(#radialGradient3125);fill-rule:evenodd" d="m30.57 25.67c1.5846 0.40216 2.8248 3.1871 2.8438 3.2188 0.49435 0.82778 1.875 3.625 1.875 3.625l-3.4688 2.1875 8.2812 0.65625 3.2188-8-3.8125 2.7188s-1.6136-3.8749-2.7812-4.1875c-1.1677-0.3126-6.1562-0.21875-6.1562-0.21875zm-1.5312 0.28125c-2.0138 0-4.5625 4.9375-4.5625 4.9375l5.625 3.6562 2.75-5.375c-0.86896-1.4338-1.7817-3.2188-3.8125-3.2188zm-4.125 8.4688-7.6875 0.53125 3.1562 2.375s-2.1779 3.145-1.875 4.3438c0.30294 1.1987 2 6.1562 2 6.1562-0.42986-1.616 1.3573-4.0613 1.375-4.0938 0.46353-0.84635 2.4062-4.125 2.4062-4.125l3.25 1.9062-2.625-7.0938zm19.844 2.625-5.9375 3.0938 3.0625 5.1562c1.6451-0.02825 3.6127 0.10036 4.6562-1.6875 1.0348-1.7729-1.7812-6.5625-1.7812-6.5625zm-7.875 4.875-5.3438 6.5312 5.0938 6.75 0.09375-4.25s3.7637 0.36736 4.625-0.5c0.86133-0.86736 4.4375-5.25 4.4375-5.25-1.1504 1.1884-4.12 0.84337-4.1562 0.84375-0.94601 0.0098-4.6875-0.0625-4.6875-0.0625l-0.0625-4.0625zm-8.7188 2.3125-5.875 0.1875c-0.79669 1.4773-1.8957 3.1488-0.90625 4.9688 0.9812 1.8047 6.4375 1.6875 6.4375 1.6875l0.34375-6.8438z"/>
  <path id="path3091" style="opacity:.97156;fill:url(#linearGradient3127)" d="m11.528 6.3091-4.0354 6.9579c-0.92032 1.5435-0.15364 1.5734 0.62218 1.5734h48.282c0.53871-0.03092 0.73775-0.36202 0.48745-0.92416l-4.412-7.6069z"/>
  <path id="path4092" d="m11.535 6.3091-4.9412 8.5349h6.3438z" style="opacity:.97156;fill:url(#linearGradient3129)"/>
  <path id="path4428" style="fill:url(#linearGradient3131)" d="m57.351 18.133c1.4988-0.0061 2.3682-1.644 2.368-3.2833l-0.28887 7.9734-2.483 2.8658z"/>
  <path id="path4105" style="opacity:.97156;fill:url(#linearGradient3133)" d="m52.479 6.3091 4.941 8.5347h-6.3438z"/>
 </g>
</svg>
