<?xml version="1.0" encoding="UTF-8" standalone="no"?>
<!-- Created with Inkscape (http://www.inkscape.org/) -->

<svg
   xmlns:dc="http://purl.org/dc/elements/1.1/"
   xmlns:cc="http://creativecommons.org/ns#"
   xmlns:rdf="http://www.w3.org/1999/02/22-rdf-syntax-ns#"
   xmlns:svg="http://www.w3.org/2000/svg"
   xmlns="http://www.w3.org/2000/svg"
   xmlns:xlink="http://www.w3.org/1999/xlink"
   xmlns:sodipodi="http://sodipodi.sourceforge.net/DTD/sodipodi-0.dtd"
   xmlns:inkscape="http://www.inkscape.org/namespaces/inkscape"
   id="svg7384"
   sodipodi:docname="battery-good-charging-symbolic.svg"
   version="1.1"
   inkscape:version="0.48.2 r9819"
   height="16"
   width="16">
  <metadata
     id="metadata90">
    <rdf:RDF>
      <cc:Work
         rdf:about="">
        <dc:format>image/svg+xml</dc:format>
        <dc:type
           rdf:resource="http://purl.org/dc/dcmitype/StillImage" />
        <dc:title>Gnome Symbolic Icon Theme</dc:title>
      </cc:Work>
    </rdf:RDF>
  </metadata>
  <sodipodi:namedview
     inkscape:cy="10.865158"
     pagecolor="#555753"
     borderopacity="1"
     showborder="false"
     inkscape:bbox-paths="false"
     guidetolerance="10"
     inkscape:object-paths="true"
     inkscape:window-width="1280"
     showguides="true"
     inkscape:object-nodes="true"
     inkscape:snap-bbox="true"
     inkscape:pageshadow="2"
     inkscape:guide-bbox="true"
     inkscape:snap-nodes="false"
     bordercolor="#666666"
     objecttolerance="10"
     id="namedview88"
     showgrid="true"
     inkscape:window-maximized="1"
     inkscape:window-x="0"
     inkscape:snap-global="true"
     inkscape:window-y="24"
     gridtolerance="10"
     inkscape:window-height="729"
     inkscape:snap-to-guides="false"
     inkscape:current-layer="layer9"
     inkscape:snap-bbox-midpoints="false"
     inkscape:zoom="22.627416"
     inkscape:cx="9.5806196"
     inkscape:snap-grids="false"
     inkscape:pageopacity="1">
    <inkscape:grid
       spacingx="1px"
       spacingy="1px"
       id="grid4866"
       empspacing="2"
       enabled="true"
       type="xygrid"
       snapvisiblegridlinesonly="true"
       visible="true" />
    <sodipodi:guide
       orientation="0,1"
       position="7.9576292,7.4246215"
       id="guide3107" />
    <sodipodi:guide
       orientation="1,0"
       position="-0.088388352,-1.1490486"
       id="guide3128" />
    <sodipodi:guide
       orientation="0,1"
       position="5.5684661,12.977472"
       id="guide3130" />
    <sodipodi:guide
       orientation="1,0"
       position="15.998292,1.5909903"
       id="guide3132" />
    <sodipodi:guide
       orientation="0,1"
       position="7.6013982,1.7181499"
       id="guide3134" />
  </sodipodi:namedview>
  <title
     id="title9167">Gnome Symbolic Icon Theme</title>
  <defs
     id="defs7386">
    <linearGradient
       gradientUnits="userSpaceOnUse"
       xlink:href="#StandardGradient"
       id="linearGradient4030"
       y2="17"
       x2="9"
       y1="5"
       x1="9" />
    <linearGradient
       gradientTransform="matrix(0.9984539,0,0,0.9984539,-0.0459776,0.05767558)"
       gradientUnits="userSpaceOnUse"
       id="StandardGradient"
       y2="18.974037"
       x2="10.710332"
       y1="1.9963325"
       x1="10.710332">
      <stop
         offset="0"
         style="stop-color:#000000;stop-opacity:0.86274511"
         id="stop3277" />
      <stop
         offset="1"
         style="stop-color:#000000;stop-opacity:0.47058824"
         id="stop3279" />
    </linearGradient>
    <linearGradient
       gradientTransform="translate(-60,0)"
       gradientUnits="userSpaceOnUse"
       xlink:href="#StandardGradient-9"
       id="linearGradient4199-8"
       y2="17"
       x2="67"
       y1="5"
       x1="67" />
    <linearGradient
       gradientTransform="matrix(0.9984539,0,0,0.9984539,-0.0459776,0.05767558)"
       gradientUnits="userSpaceOnUse"
       id="StandardGradient-9"
       y2="18.974037"
       x2="10.710332"
       y1="1.9963325"
       x1="10.710332">
      <stop
         offset="0"
         style="stop-color:#000000;stop-opacity:0.86274511"
         id="stop3277-6" />
      <stop
         offset="1"
         style="stop-color:#000000;stop-opacity:0.47058824"
         id="stop3279-6" />
    </linearGradient>
    <linearGradient
       gradientTransform="matrix(0.25,0,0,0.83333333,2.5,-31.5)"
       gradientUnits="userSpaceOnUse"
       xlink:href="#linearGradient3287"
       id="linearGradient4646"
       y2="44.99865"
       x2="9.8299322"
       y1="55.716991"
       x1="9.8299322" />
    <linearGradient
       id="linearGradient3287">
      <stop
         offset="0"
         style="stop-color:#ad0707;stop-opacity:1"
         id="stop3289" />
      <stop
         offset="1"
         style="stop-color:#f75535;stop-opacity:1"
         id="stop3291" />
    </linearGradient>
    <linearGradient
       id="linearGradient3287-7">
      <stop
         offset="0"
         style="stop-color:#cd0000;stop-opacity:1"
         id="stop3289-6" />
      <stop
         offset="1"
         style="stop-color:#e55300;stop-opacity:1"
         id="stop3291-8" />
    </linearGradient>
    <linearGradient
       gradientTransform="matrix(0.2,0,0,0.9,9.9999997,-69.2)"
       gradientUnits="userSpaceOnUse"
       xlink:href="#linearGradient3287-7"
       id="linearGradient3807"
       y2="28"
       x2="39"
       y1="68"
       x1="39" />
    <linearGradient
       gradientUnits="userSpaceOnUse"
       xlink:href="#linearGradient4081"
       id="linearGradient3763"
       y2="24.266857"
       x2="39.196381"
       y1="72"
       x1="39" />
    <linearGradient
       id="linearGradient4081">
      <stop
         offset="0"
         style="stop-color:#aaaaaa;stop-opacity:1"
         id="stop4083" />
      <stop
         offset="1"
         style="stop-color:#f0f0f0;stop-opacity:1"
         id="stop4085" />
    </linearGradient>
    <linearGradient
       id="linearGradient3183">
      <stop
         offset="0"
         style="stop-color:#c80000;stop-opacity:1"
         id="stop3185" />
      <stop
         offset="1"
         style="stop-color:#f3604d;stop-opacity:1"
         id="stop3187" />
    </linearGradient>
    <linearGradient
       gradientTransform="matrix(0,-3.0000004,2.9652505,0,13.335916,19.000009)"
       gradientUnits="userSpaceOnUse"
       xlink:href="#linearGradient3183"
       id="linearGradient2927"
       y2="11.015625"
       x2="19"
       y1="11.015625"
       x1="11" />
    <linearGradient
       gradientUnits="userSpaceOnUse"
       xlink:href="#linearGradient4081-6"
       id="linearGradient3763-1"
       y2="24.266857"
       x2="39.196381"
       y1="72"
       x1="39" />
    <linearGradient
       id="linearGradient4081-6">
      <stop
         offset="0"
         style="stop-color:#aaaaaa;stop-opacity:1"
         id="stop4083-9" />
      <stop
         offset="1"
         style="stop-color:#f0f0f0;stop-opacity:1"
         id="stop4085-7" />
    </linearGradient>
    <linearGradient
       gradientUnits="userSpaceOnUse"
       xlink:href="#linearGradient4081-2"
       id="linearGradient3636"
       y2="30.942904"
       x2="44"
       y1="66"
       x1="44" />
    <linearGradient
       gradientUnits="userSpaceOnUse"
       xlink:href="#linearGradient4081-2"
       id="linearGradient3763-4"
       y2="24.266857"
       x2="39.196381"
       y1="72"
       x1="39" />
    <linearGradient
       id="linearGradient4081-2">
      <stop
         offset="0"
         style="stop-color:#aaaaaa;stop-opacity:1"
         id="stop4083-3" />
      <stop
         offset="1"
         style="stop-color:#f0f0f0;stop-opacity:1"
         id="stop4085-2" />
    </linearGradient>
    <linearGradient
       id="linearGradient3183-9">
      <stop
         offset="0"
         style="stop-color:#c80000;stop-opacity:1"
         id="stop3185-6" />
      <stop
         offset="1"
         style="stop-color:#f3604d;stop-opacity:1"
         id="stop3187-3" />
    </linearGradient>
    <linearGradient
       gradientTransform="matrix(0,-3.0000004,2.9652505,0,13.335916,19.000009)"
       gradientUnits="userSpaceOnUse"
       xlink:href="#linearGradient3183-9"
       id="linearGradient2927-6"
       y2="11.015625"
       x2="19"
       y1="11.015625"
       x1="11" />
    <linearGradient
       gradientUnits="userSpaceOnUse"
       xlink:href="#linearGradient4081-3"
       id="linearGradient3763-5"
       y2="24.266857"
       x2="39.196381"
       y1="72"
       x1="39" />
    <linearGradient
       id="linearGradient4081-3">
      <stop
         offset="0"
         style="stop-color:#aaaaaa;stop-opacity:1"
         id="stop4083-97" />
      <stop
         offset="1"
         style="stop-color:#f0f0f0;stop-opacity:1"
         id="stop4085-1" />
    </linearGradient>
    <linearGradient
       id="linearGradient3279">
      <stop
         offset="0"
         style="stop-color:#f08e00;stop-opacity:1"
         id="stop3281" />
      <stop
         offset="1"
         style="stop-color:#ffd200;stop-opacity:1"
         id="stop3283" />
    </linearGradient>
    <linearGradient
       gradientTransform="matrix(0.4,0,0,0.9,8,-69.2)"
       gradientUnits="userSpaceOnUse"
       xlink:href="#linearGradient3279"
       id="linearGradient3807-4"
       y2="28"
       x2="39"
       y1="68"
       x1="39" />
    <linearGradient
       gradientUnits="userSpaceOnUse"
       xlink:href="#linearGradient4081-9"
       id="linearGradient3763-9"
       y2="24.266857"
       x2="39.196381"
       y1="72"
       x1="39" />
    <linearGradient
       id="linearGradient4081-9">
      <stop
         offset="0"
         style="stop-color:#aaaaaa;stop-opacity:1"
         id="stop4083-34" />
      <stop
         offset="1"
         style="stop-color:#f0f0f0;stop-opacity:1"
         id="stop4085-0" />
    </linearGradient>
    <linearGradient
       id="linearGradient3959">
      <stop
         offset="0"
         style="stop-color:#a6d200;stop-opacity:1"
         id="stop3961" />
      <stop
         offset="1"
         style="stop-color:#e1ff00;stop-opacity:1"
         id="stop3963" />
    </linearGradient>
    <linearGradient
       gradientTransform="matrix(0.6,0,0,0.9,6,-69.2)"
       gradientUnits="userSpaceOnUse"
       xlink:href="#linearGradient3959"
       id="linearGradient3807-8"
       y2="28"
       x2="39"
       y1="68"
       x1="39" />
    <linearGradient
       gradientUnits="userSpaceOnUse"
       xlink:href="#linearGradient4081-1"
       id="linearGradient3763-8"
       y2="24.266857"
       x2="39.196381"
       y1="72"
       x1="39" />
    <linearGradient
       id="linearGradient4081-1">
      <stop
         offset="0"
         style="stop-color:#aaaaaa;stop-opacity:1"
         id="stop4083-5" />
      <stop
         offset="1"
         style="stop-color:#f0f0f0;stop-opacity:1"
         id="stop4085-18" />
    </linearGradient>
    <linearGradient
       gradientUnits="userSpaceOnUse"
       xlink:href="#linearGradient3295-9"
       id="linearGradient3807-0"
       y2="28"
       x2="39"
       y1="68"
       x1="39" />
    <linearGradient
       gradientUnits="userSpaceOnUse"
       xlink:href="#linearGradient4081-4"
       id="linearGradient3763-42"
       y2="24.266857"
       x2="39.196381"
       y1="72"
       x1="39" />
    <linearGradient
       id="linearGradient3295-9">
      <stop
         offset="0"
         style="stop-color:#559829;stop-opacity:1"
         id="stop3297-2" />
      <stop
         offset="1"
         style="stop-color:#86c837;stop-opacity:1"
         id="stop3299-0" />
    </linearGradient>
    <linearGradient
       id="linearGradient4081-4">
      <stop
         offset="0"
         style="stop-color:#aaaaaa;stop-opacity:1"
         id="stop4083-1" />
      <stop
         offset="1"
         style="stop-color:#f0f0f0;stop-opacity:1"
         id="stop4085-13" />
    </linearGradient>
    <linearGradient
       gradientTransform="translate(0,-74)"
       gradientUnits="userSpaceOnUse"
       xlink:href="#linearGradient3295-9-7"
       id="linearGradient2891"
       y2="28"
       x2="39"
       y1="68"
       x1="39" />
    <linearGradient
       id="linearGradient3295-9-7">
      <stop
         offset="0"
         style="stop-color:#559829;stop-opacity:1"
         id="stop3297-2-1" />
      <stop
         offset="1"
         style="stop-color:#86c837;stop-opacity:1"
         id="stop3299-0-9" />
    </linearGradient>
    <linearGradient
       gradientUnits="userSpaceOnUse"
       xlink:href="#linearGradient4081-35"
       id="linearGradient3636-1"
       y2="30.942904"
       x2="44"
       y1="66"
       x1="44" />
    <linearGradient
       gradientUnits="userSpaceOnUse"
       xlink:href="#linearGradient4081-35"
       id="linearGradient3763-89"
       y2="24.266857"
       x2="39.196381"
       y1="72"
       x1="39" />
    <linearGradient
       id="linearGradient4081-35">
      <stop
         offset="0"
         style="stop-color:#aaaaaa;stop-opacity:1"
         id="stop4083-4" />
      <stop
         offset="1"
         style="stop-color:#f0f0f0;stop-opacity:1"
         id="stop4085-5" />
    </linearGradient>
    <linearGradient
       gradientUnits="userSpaceOnUse"
       xlink:href="#linearGradient4081-98"
       id="linearGradient3636-7"
       y2="30.942904"
       x2="44"
       y1="66"
       x1="44" />
    <linearGradient
       gradientUnits="userSpaceOnUse"
       xlink:href="#linearGradient4081-98"
       id="linearGradient3763-82"
       y2="24.266857"
       x2="39.196381"
       y1="72"
       x1="39" />
    <linearGradient
       id="linearGradient4081-98">
      <stop
         offset="0"
         style="stop-color:#aaaaaa;stop-opacity:1"
         id="stop4083-32" />
      <stop
         offset="1"
         style="stop-color:#f0f0f0;stop-opacity:1"
         id="stop4085-6" />
    </linearGradient>
    <linearGradient
       x1="10.710332"
       y1="1.9963325"
       x2="10.710332"
       y2="18.974037"
       id="StandardGradient-0"
       gradientUnits="userSpaceOnUse"
       gradientTransform="matrix(0.9984539,0,0,0.9984539,-0.0459776,0.05767558)">
      <stop
         id="stop3277-8"
         style="stop-color:#000000;stop-opacity:0.86274511"
         offset="0" />
      <stop
         id="stop3279-0"
         style="stop-color:#000000;stop-opacity:0.47058824"
         offset="1" />
    </linearGradient>
    <linearGradient
       x1="9"
       y1="5"
       x2="9"
       y2="17"
       id="linearGradient4104-0"
       xlink:href="#StandardGradient-0"
       gradientUnits="userSpaceOnUse" />
    <linearGradient
       x1="10.710332"
       y1="1.9963325"
       x2="10.710332"
       y2="18.974037"
       id="StandardGradient-98"
       gradientUnits="userSpaceOnUse"
       gradientTransform="matrix(0.9984539,0,0,0.9984539,-0.0459776,0.05767558)">
      <stop
         id="stop3277-4"
         style="stop-color:#000000;stop-opacity:0.86274511"
         offset="0" />
      <stop
         id="stop3279-19"
         style="stop-color:#000000;stop-opacity:0.47058824"
         offset="1" />
    </linearGradient>
    <linearGradient
       x1="67"
       y1="5"
       x2="67"
       y2="17"
       id="linearGradient4199-8-1"
       xlink:href="#StandardGradient-98"
       gradientUnits="userSpaceOnUse"
       gradientTransform="translate(-60,0)" />
    <linearGradient
       x1="10.710332"
       y1="1.9963325"
       x2="10.710332"
       y2="18.974037"
       id="StandardGradient-4"
       gradientUnits="userSpaceOnUse"
       gradientTransform="matrix(0.9984539,0,0,0.9984539,-0.0459776,0.05767558)">
      <stop
         id="stop3277-5"
         style="stop-color:#000000;stop-opacity:0.86274511"
         offset="0" />
      <stop
         id="stop3279-18"
         style="stop-color:#000000;stop-opacity:0.47058824"
         offset="1" />
    </linearGradient>
    <linearGradient
       x1="9"
       y1="5"
       x2="9"
       y2="17"
       id="linearGradient4104-8"
       xlink:href="#StandardGradient-4"
       gradientUnits="userSpaceOnUse" />
    <linearGradient
       x1="10.710332"
       y1="1.9963325"
       x2="10.710332"
       y2="18.974037"
       id="StandardGradient-1"
       gradientUnits="userSpaceOnUse"
       gradientTransform="matrix(0.9984539,0,0,0.9984539,-0.0459776,0.05767558)">
      <stop
         id="stop3277-65"
         style="stop-color:#000000;stop-opacity:0.86274511"
         offset="0" />
      <stop
         id="stop3279-5"
         style="stop-color:#000000;stop-opacity:0.47058824"
         offset="1" />
    </linearGradient>
    <linearGradient
       x1="67"
       y1="5"
       x2="67"
       y2="17"
       id="linearGradient4078"
       xlink:href="#StandardGradient-1"
       gradientUnits="userSpaceOnUse"
       gradientTransform="translate(-60,0)" />
    <linearGradient
       x1="10.710332"
       y1="1.9963325"
       x2="10.710332"
       y2="18.974037"
       id="StandardGradient-8"
       gradientUnits="userSpaceOnUse"
       gradientTransform="matrix(0.9984539,0,0,0.9984539,-0.0459776,0.05767558)">
      <stop
         id="stop3277-0"
         style="stop-color:#000000;stop-opacity:0.86274511"
         offset="0" />
      <stop
         id="stop3279-4"
         style="stop-color:#000000;stop-opacity:0.47058824"
         offset="1" />
    </linearGradient>
    <linearGradient
       x1="9"
       y1="5"
       x2="9"
       y2="17"
       id="linearGradient4030-2"
       xlink:href="#StandardGradient-8"
       gradientUnits="userSpaceOnUse" />
    <linearGradient
       x1="10.710332"
       y1="1.9963325"
       x2="10.710332"
       y2="18.974037"
       id="StandardGradient-97"
       gradientUnits="userSpaceOnUse"
       gradientTransform="matrix(0.9984539,0,0,0.9984539,-0.0459776,0.05767558)">
      <stop
         id="stop3277-2"
         style="stop-color:#000000;stop-opacity:0.86274511"
         offset="0" />
      <stop
         id="stop3279-64"
         style="stop-color:#000000;stop-opacity:0.47058824"
         offset="1" />
    </linearGradient>
    <linearGradient
       x1="9"
       y1="5"
       x2="9"
       y2="17"
       id="linearGradient4030-3"
       xlink:href="#StandardGradient-97"
       gradientUnits="userSpaceOnUse" />
    <linearGradient
       x1="10.710332"
       y1="1.9963325"
       x2="10.710332"
       y2="18.974037"
       id="StandardGradient-5"
       gradientUnits="userSpaceOnUse"
       gradientTransform="matrix(0.9984539,0,0,0.9984539,-0.0459776,0.05767558)">
      <stop
         id="stop3277-66"
         style="stop-color:#000000;stop-opacity:0.86274511"
         offset="0" />
      <stop
         id="stop3279-1"
         style="stop-color:#000000;stop-opacity:0.47058824"
         offset="1" />
    </linearGradient>
    <linearGradient
       x1="9"
       y1="5"
       x2="9"
       y2="17"
       id="linearGradient4104"
       xlink:href="#StandardGradient-5"
       gradientUnits="userSpaceOnUse" />
    <linearGradient
       id="linearGradient3287-1">
      <stop
         id="stop3289-8"
         style="stop-color:#ad0707;stop-opacity:1"
         offset="0" />
      <stop
         id="stop3291-3"
         style="stop-color:#f75535;stop-opacity:1"
         offset="1" />
    </linearGradient>
    <linearGradient
       x1="9.8299322"
       y1="55.716991"
       x2="9.8299322"
       y2="44.99865"
       id="linearGradient4646-0"
       xlink:href="#linearGradient3287-1"
       gradientUnits="userSpaceOnUse"
       gradientTransform="matrix(0.25,0,0,0.83333333,2.5,-31.5)" />
    <linearGradient
       x1="10.710332"
       y1="1.9963325"
       x2="10.710332"
       y2="18.974037"
       id="StandardGradient-3"
       gradientUnits="userSpaceOnUse"
       gradientTransform="matrix(0.9984539,0,0,0.9984539,-0.0459776,0.05767558)">
      <stop
         id="stop3277-62"
         style="stop-color:#000000;stop-opacity:0.86274511"
         offset="0" />
      <stop
         id="stop3279-7"
         style="stop-color:#000000;stop-opacity:0.47058824"
         offset="1" />
    </linearGradient>
    <linearGradient
       x1="67"
       y1="5"
       x2="67"
       y2="17"
       id="linearGradient4199-8-9"
       xlink:href="#StandardGradient-3"
       gradientUnits="userSpaceOnUse"
       gradientTransform="translate(-60,0)" />
    <linearGradient
       id="linearGradient3287-3">
      <stop
         id="stop3289-3"
         style="stop-color:#ad0707;stop-opacity:1"
         offset="0" />
      <stop
         id="stop3291-0"
         style="stop-color:#f75535;stop-opacity:1"
         offset="1" />
    </linearGradient>
    <linearGradient
       x1="9.8299322"
       y1="55.716991"
       x2="9.8299322"
       y2="44.99865"
       id="linearGradient4646-7"
       xlink:href="#linearGradient3287-3"
       gradientUnits="userSpaceOnUse"
       gradientTransform="matrix(0.25,0,0,0.83333333,2.5,-31.5)" />
    <linearGradient
       x1="10.710332"
       y1="1.9963325"
       x2="10.710332"
       y2="18.974037"
       id="StandardGradient-9-5"
       gradientUnits="userSpaceOnUse"
       gradientTransform="matrix(0.9984539,0,0,0.9984539,-0.0459776,0.05767558)">
      <stop
         id="stop3277-6-2"
         style="stop-color:#000000;stop-opacity:0.86274511"
         offset="0" />
      <stop
         id="stop3279-6-2"
         style="stop-color:#000000;stop-opacity:0.47058824"
         offset="1" />
    </linearGradient>
    <linearGradient
       x1="67"
       y1="5"
       x2="67"
       y2="17"
       id="linearGradient4199-8-4"
       xlink:href="#StandardGradient-9-5"
       gradientUnits="userSpaceOnUse"
       gradientTransform="translate(-60,0)" />
    <linearGradient
       x1="10.710332"
       y1="1.9963325"
       x2="10.710332"
       y2="18.974037"
       id="StandardGradient-7"
       gradientUnits="userSpaceOnUse"
       gradientTransform="matrix(0.9984539,0,0,0.9984539,-0.0459776,0.05767558)">
      <stop
         id="stop3277-54"
         style="stop-color:#000000;stop-opacity:0.86274511"
         offset="0" />
      <stop
         id="stop3279-2"
         style="stop-color:#000000;stop-opacity:0.47058824"
         offset="1" />
    </linearGradient>
    <linearGradient
       x1="9"
       y1="5"
       x2="9"
       y2="17"
       id="linearGradient4030-4"
       xlink:href="#StandardGradient-7"
       gradientUnits="userSpaceOnUse" />
    <linearGradient
       gradientUnits="userSpaceOnUse"
       xlink:href="#linearGradient4081-25"
       id="linearGradient3636-5"
       y2="30.942904"
       x2="44"
       y1="66"
       x1="44" />
    <linearGradient
       gradientUnits="userSpaceOnUse"
       xlink:href="#linearGradient4081-25"
       id="linearGradient3763-44"
       y2="24.266857"
       x2="39.196381"
       y1="72"
       x1="39" />
    <linearGradient
       id="linearGradient4081-25">
      <stop
         offset="0"
         style="stop-color:#aaaaaa;stop-opacity:1"
         id="stop4083-8" />
      <stop
         offset="1"
         style="stop-color:#f0f0f0;stop-opacity:1"
         id="stop4085-54" />
    </linearGradient>
    <linearGradient
       gradientUnits="userSpaceOnUse"
       xlink:href="#linearGradient4081-8"
       id="linearGradient3636-18"
       y2="30.942904"
       x2="44"
       y1="66"
       x1="44" />
    <linearGradient
       gradientUnits="userSpaceOnUse"
       xlink:href="#linearGradient4081-8"
       id="linearGradient3763-50"
       y2="24.266857"
       x2="39.196381"
       y1="72"
       x1="39" />
    <linearGradient
       id="linearGradient4081-8">
      <stop
         offset="0"
         style="stop-color:#aaaaaa;stop-opacity:1"
         id="stop4083-7" />
      <stop
         offset="1"
         style="stop-color:#f0f0f0;stop-opacity:1"
         id="stop4085-3" />
    </linearGradient>
  </defs>
  <g
     inkscape:label="status"
     transform="translate(-181.0002,-217)"
     inkscape:groupmode="layer"
     id="layer9"
     style="display:inline">
    <g
       style="display:inline"
       id="g51337"
       transform="matrix(0.17744405,0,0,0.17744405,180.45091,216.84543)">
      <g
         style="display:inline"
         id="layer1"
         transform="translate(0,74)">
        <rect
           style="opacity:0.5;fill:#ffffff;fill-opacity:1;stroke:none"
           id="rect3799"
           y="-46"
           x="10"
           height="40"
           width="30" />
        <path
           style="opacity:0.07999998;fill:#000000;fill-opacity:1;stroke:none"
           id="path3672"
           d="m 47.6875,-37.96875 a 1.0163779,1.0163779 0 0 0 -0.125,0.03125 c -2.683049,0.845348 -5.33396,1.88653 -7.9375,2.78125 -6.93015,2.48801 -13.886853,4.906119 -20.8125,7.4375 A 1.0163779,1.0163779 0 0 0 18.75,-27.6875 c -2.410973,1.086019 -2.080246,4.861249 0.46875,5.53125 A 1.0163779,1.0163779 0 0 0 19.375,-22.125 c 2.17473,0.226205 4.265569,0.06903 6.25,0.125 a 1.0163779,1.0163779 0 0 0 0.03125,0 L 37,-22 c 0.0031,2.437693 -0.03387,4.90337 0.03125,7.375 a 1.0163779,1.0163779 0 0 0 0.03125,0.125 c 0.302107,2.055109 2.591631,2.996761 4.34375,2.1875 0.06014,-0.02778 0.128728,-0.03052 0.1875,-0.0625 9.876479,-3.308482 19.781834,-6.563296 29.65625,-9.90625 a 1.0163779,1.0163779 0 0 0 0.09375,-0.03125 c 2.477284,-1.118344 2.000067,-5.066587 -0.65625,-5.59375 a 1.0163779,1.0163779 0 0 0 -0.15625,0 C 67.087486,-28.052946 63.648342,-27.959779 60.28125,-28 L 51,-28 c -0.0031,-2.427212 0.03396,-4.882371 -0.03125,-7.34375 A 1.0163779,1.0163779 0 0 0 50.9375,-35.5 c -0.264632,-1.469652 -1.570902,-2.583663 -3.125,-2.46875 a 1.0163779,1.0163779 0 0 0 -0.125,0 z"
           inkscape:connector-curvature="0" />
        <path
           style="opacity:0.1;fill:#000000;fill-opacity:1;stroke:none"
           id="path3666"
           inkscape:connector-curvature="0"
           d="m 47.875,-36.96875 c -2.6351,0.830241 -5.262364,1.86503 -7.896266,2.770184 -6.936613,2.49033 -13.90695,4.920881 -20.822484,7.448566 -1.549643,0.698034 -1.323059,3.195095 0.3125,3.625 2.046536,0.212871 4.131704,0.0356 6.193561,0.09375 4.12298,0 8.245959,0 12.368939,0 0.02114,2.790346 -0.0421,5.591081 0.03125,8.375 0.204207,1.389135 1.865598,2.021723 3.041348,1.381895 9.942303,-3.331349 19.902626,-6.613526 29.833652,-9.975645 1.594854,-0.71998 1.270801,-3.317227 -0.4375,-3.65625 -3.390234,-0.144416 -6.804698,-0.02189 -10.204364,-0.0625 -3.442296,0 -6.884591,0 -10.326886,0 -0.02124,-2.779917 0.04223,-5.570264 -0.03125,-8.34375 -0.175219,-0.973092 -1.059737,-1.730396 -2.0625,-1.65625 z" />
        <path
           style="opacity:0.15;fill:#000000;fill-opacity:1;stroke:none"
           id="path3662"
           d="m 47.875,-36.03125 a 1.0405161,1.0405161 0 0 0 -0.21875,0.0625 l -28,10 a 1.0405161,1.0405161 0 0 0 0.34375,2 l 18.96875,0 0,8.96875 a 1.0405161,1.0405161 0 0 0 1.375,1 l 30,-10 A 1.0405161,1.0405161 0 0 0 70,-26.03125 l -20.96875,0 0,-8.96875 A 1.0405161,1.0405161 0 0 0 47.875,-36.03125 z"
           inkscape:connector-curvature="0" />
        <path
           style="opacity:0.3;fill:#000000;fill-opacity:1;stroke:none"
           id="path3656"
           inkscape:connector-curvature="0"
           d="m 20,-25 28,-10 0,10 22,0 -30,10 0,-10 -20,0 z" />
        <path
           style="opacity:0.07999998;fill:#000000;fill-opacity:1;stroke:none"
           id="path3797"
           d="m 12,-52.03125 c -4.9542317,0 -9.03125,4.077018 -9.03125,9.03125 l 0,36 c 0,4.9542318 4.0770182,9.03125 9.03125,9.03125 l 66,0 c 4.954232,0 9.03125,-4.0770183 9.03125,-9.03125 l 0,-6.96875 0.96875,0 c 2.75259,0 5.03125,-2.27866 5.03125,-5.03125 l 0,-12 c 0,-2.75259 -2.27866,-5.03125 -5.03125,-5.03125 l -0.96875,0 0,-6.96875 c 0,-4.954232 -4.077018,-9.03125 -9.03125,-9.03125 l -66,0 z m 4,12.0625 58,0 c 0.690105,0 0.96875,0.278645 0.96875,0.96875 l 0,28 c 0,0.690106 -0.278643,0.96875 -0.96875,0.96875 l -58,0 c -0.690107,0 -0.96875,-0.278644 -0.96875,-0.96875 l 0,-28 c 0,-0.690105 0.278645,-0.96875 0.96875,-0.96875 z"
           inkscape:connector-curvature="0" />
        <path
           style="opacity:0.1;fill:#000000;fill-opacity:1;stroke:none"
           id="path3793"
           d="m 12,-50.96875 c -4.3780676,0 -7.96875,3.590682 -7.96875,7.96875 l 0,36 c 0,4.3780676 3.5906824,7.96875 7.96875,7.96875 l 66,0 c 4.378068,0 7.96875,-3.5906824 7.96875,-7.96875 l 0,-8.03125 2.03125,0 c 2.170657,0 3.96875,-1.798093 3.96875,-3.96875 l 0,-12 c 0,-2.170657 -1.798093,-3.96875 -3.96875,-3.96875 l -2.03125,0 0,-8.03125 c 0,-4.378068 -3.590682,-7.96875 -7.96875,-7.96875 l -66,0 z m 4,9.9375 58,0 c 1.188373,0 2.03125,0.842877 2.03125,2.03125 l 0,28 c 0,1.1883736 -0.842876,2.03125 -2.03125,2.03125 l -58,0 c -1.188374,0 -2.03125,-0.8428764 -2.03125,-2.03125 l 0,-28 c 0,-1.188373 0.842877,-2.03125 2.03125,-2.03125 z"
           inkscape:connector-curvature="0" />
        <path
           style="opacity:0.15;fill:#000000;fill-opacity:1;stroke:none"
           id="path3789"
           d="m 12,-50.03125 c -3.8714401,0 -7.03125,3.15981 -7.03125,7.03125 l 0,36 c 0,3.8714401 3.1598099,7.03125 7.03125,7.03125 l 66,0 c 3.87144,0 7.03125,-3.1598099 7.03125,-7.03125 l 0,-8.96875 2.96875,0 c 1.653332,0 3.03125,-1.377918 3.03125,-3.03125 l 0,-12 c 0,-1.653332 -1.377918,-3.03125 -3.03125,-3.03125 l -2.96875,0 0,-8.96875 c 0,-3.87144 -3.15981,-7.03125 -7.03125,-7.03125 l -66,0 z m 4,8.0625 58,0 c 1.670668,0 2.96875,1.298082 2.96875,2.96875 l 0,28 c 0,1.6706681 -1.298082,2.96875 -2.96875,2.96875 l -58,0 c -1.670668,0 -2.96875,-1.2980819 -2.96875,-2.96875 l 0,-28 c 0,-1.670668 1.298082,-2.96875 2.96875,-2.96875 z"
           inkscape:connector-curvature="0" />
        <path
           style="opacity:0.3;fill:#000000;fill-opacity:1;stroke:none"
           id="path3783"
           inkscape:connector-curvature="0"
           d="m 12,-49 c -3.327333,0 -6,2.672667 -6,6 l 0,36 c 0,3.327333 2.672667,6 6,6 l 66,0 c 3.327333,0 6,-2.672667 6,-6 l 0,-10 4,0 c 1.108,0 2,-0.892 2,-2 l 0,-12 c 0,-1.108 -0.892,-2 -2,-2 l -4,0 0,-10 c 0,-3.327333 -2.672667,-6 -6,-6 l -66,0 z m 4,6 58,0 c 2.216,0 4,1.784 4,4 l 0,28 c 0,2.216 -1.784,4 -4,4 l -58,0 c -2.216,0 -4,-1.784 -4,-4 l 0,-28 c 0,-2.216 1.784,-4 4,-4 z" />
        <path
           style="fill:url(#linearGradient3763-50);fill-opacity:1;stroke:none"
           id="rect2975"
           transform="translate(0,-74)"
           inkscape:connector-curvature="0"
           d="m 12,24 c -3.327333,0 -6,2.672667 -6,6 l 0,36 c 0,3.327333 2.672667,6 6,6 l 66,0 c 3.327333,0 6,-2.672667 6,-6 l 0,-10 4,0 c 1.108,0 2,-0.892 2,-2 l 0,-12 c 0,-1.108 -0.892,-2 -2,-2 l -4,0 0,-10 c 0,-3.327333 -2.672667,-6 -6,-6 l -66,0 z m 4,6 58,0 c 2.216,0 4,1.784 4,4 l 0,28 c 0,2.216 -1.784,4 -4,4 l -58,0 c -2.216,0 -4,-1.784 -4,-4 l 0,-28 c 0,-2.216 1.784,-4 4,-4 z" />
        <path
           style="opacity:0.75;fill:#ffffff;fill-opacity:1;stroke:none"
           id="path3765"
           transform="translate(0,-74)"
           inkscape:connector-curvature="0"
           d="m 12,24 c -3.327333,0 -6,2.672667 -6,6 l 0,1 c 0,-3.327333 2.672667,-6 6,-6 l 66,0 c 3.327333,0 6,2.672667 6,6 l 0,-1 c 0,-3.327333 -2.672667,-6 -6,-6 l -66,0 z m 72,16 0,1 4,0 c 1.108,0 2,0.892 2,2 l 0,-1 c 0,-1.108 -0.892,-2 -2,-2 l -4,0 z m -72,22 0,1 c 0,2.216 1.784,4 4,4 l 58,0 c 2.216,0 4,-1.784 4,-4 l 0,-1 c 0,2.216 -1.784,4 -4,4 l -58,0 c -2.216,0 -4,-1.784 -4,-4 z" />
        <path
           style="opacity:0.15;fill:#000000;fill-opacity:1;stroke:none"
           id="path3774"
           transform="translate(0,-74)"
           inkscape:connector-curvature="0"
           d="m 16,29 c -2.216,0 -4,1.784 -4,4 l 0,1 c 0,-2.216 1.784,-4 4,-4 l 58,0 c 2.216,0 4,1.784 4,4 l 0,-1 c 0,-2.216 -1.784,-4 -4,-4 l -58,0 z m 74,24 c 0,1.108 -0.892,2 -2,2 l -4,0 0,1 4,0 c 1.108,0 2,-0.892 2,-2 l 0,-1 z M 6,65 6,66 c 0,3.327333 2.672667,6 6,6 l 66,0 c 3.327333,0 6,-2.672667 6,-6 l 0,-1 c 0,3.327333 -2.672667,6 -6,6 L 12,71 C 8.672667,71 6,68.327333 6,65 z" />
        <path
           style="fill:url(#linearGradient3636-18);fill-opacity:1;stroke:none"
           id="path2856"
           transform="translate(0,-74)"
           inkscape:connector-curvature="0"
           d="M 20,48 48,38 48,48 70,48 40,58 40,48 20,48 z" />
        <path
           style="opacity:0.75;fill:#ffffff;fill-opacity:1;stroke:none"
           id="path3638"
           transform="translate(0,-74)"
           inkscape:connector-curvature="0"
           d="M 48,38 20,48 22.8125,48 48,39 48,38 z m 0,10 0,1 19,0 3,-1 -22,0 z" />
        <path
           style="opacity:0.15;fill:#000000;fill-opacity:1;stroke:none"
           id="path3647"
           transform="translate(0,-74)"
           inkscape:connector-curvature="0"
           d="M 22.8125,47 20,48 40,48 40,47 22.8125,47 z M 67,48 l -27,9 0,1 30,-10 -3,0 z" />
      </g>
    </g>
  </g>
  <g
     inkscape:label="devices"
     transform="translate(-181.0002,-217)"
     inkscape:groupmode="layer"
     id="layer10" />
  <g
     inkscape:label="apps"
     transform="translate(-181.0002,-217)"
     inkscape:groupmode="layer"
     id="layer11" />
  <g
     inkscape:label="actions"
     transform="translate(-181.0002,-217)"
     inkscape:groupmode="layer"
     id="layer12" />
  <g
     inkscape:label="places"
     transform="translate(-181.0002,-217)"
     inkscape:groupmode="layer"
     id="layer13" />
  <g
     inkscape:label="mimetypes"
     transform="translate(-181.0002,-217)"
     inkscape:groupmode="layer"
     id="layer14" />
  <g
     inkscape:label="emblems"
     transform="translate(-181.0002,-217)"
     inkscape:groupmode="layer"
     id="layer15"
     style="display:inline" />
  <g
     inkscape:label="categories"
     transform="translate(-181.0002,-217)"
     inkscape:groupmode="layer"
     id="g4953"
     style="display:inline" />
</svg>
