<?xml version="1.0" encoding="UTF-8" standalone="no"?>
<!-- Created with Inkscape (http://www.inkscape.org/) -->
<svg id="svg11037" xmlns:rdf="http://www.w3.org/1999/02/22-rdf-syntax-ns#" xmlns="http://www.w3.org/2000/svg" height="96" width="96" version="1.1" xmlns:cc="http://creativecommons.org/ns#" xmlns:xlink="http://www.w3.org/1999/xlink" xmlns:dc="http://purl.org/dc/elements/1.1/">
 <defs id="defs11039">
  <linearGradient id="linearGradient3617" y2="5.9877" gradientUnits="userSpaceOnUse" x2="48" y1="90" x1="48">
   <stop id="stop3616" style="stop-color:#b9b9b9" offset="0"/>
   <stop id="stop3618" style="stop-color:#dedede" offset="1"/>
  </linearGradient>
  <linearGradient id="linearGradient3628" y2="48" gradientUnits="userSpaceOnUse" x2="81" gradientTransform="matrix(.96970 0 0 .96970 -94.545 1.4545)" y1="48" x1="15">
   <stop id="stop3861" style="stop-color:#808080" offset="0"/>
   <stop id="stop3863" style="stop-color:#d0d0d0" offset="1"/>
  </linearGradient>
  <linearGradient id="linearGradient3761" y2="104.2" gradientUnits="userSpaceOnUse" x2="38.75" y1="15" x1="38.75">
   <stop id="stop3757" style="stop-color:#fff" offset="0"/>
   <stop id="stop3759" style="stop-color:#fff;stop-opacity:0" offset="1"/>
  </linearGradient>
  <linearGradient id="linearGradient3867" y2="76" xlink:href="#linearGradient3763" gradientUnits="userSpaceOnUse" x2="88" gradientTransform="matrix(.66667 0 0 1.5 23.333 -84)" y1="76" x1="82"/>
  <linearGradient id="linearGradient3763">
   <stop id="stop3765" style="stop-color:#dadada" offset="0"/>
   <stop id="stop3767" style="stop-color:#fff" offset=".39129"/>
   <stop id="stop3769" style="stop-color:#b9b9b9" offset="1"/>
  </linearGradient>
  <linearGradient id="linearGradient3779" y2="76" xlink:href="#linearGradient3763" gradientUnits="userSpaceOnUse" x2="88" gradientTransform="matrix(.66667 0 0 1.5 23.333 -48)" y1="76" x1="82"/>
  <linearGradient id="linearGradient3613" y2="138.66" gradientUnits="userSpaceOnUse" x2="48" y1="20.221" x1="48">
   <stop id="stop3739" style="stop-color:#fff" offset="0"/>
   <stop id="stop3741" style="stop-color:#fff;stop-opacity:0" offset="1"/>
  </linearGradient>
  <clipPath id="clipPath3613">
   <rect id="rect3615" style="fill:#fff" rx="6" ry="6" height="84" width="84" y="6" x="6"/>
  </clipPath>
  <filter id="filter3794" height="1.384" width="1.384" color-interpolation-filters="sRGB" y="-.192" x="-.192">
   <feGaussianBlur id="feGaussianBlur3796" stdDeviation="5.28"/>
  </filter>
  <filter id="filter3901" height="1.15" width="1.6" color-interpolation-filters="sRGB" y="-0.075" x="-0.3">
   <feGaussianBlur id="feGaussianBlur3903" stdDeviation="0.75"/>
  </filter>
  <linearGradient id="linearGradient3822" y2="30.783" xlink:href="#linearGradient3824" gradientUnits="userSpaceOnUse" x2="55.733" gradientTransform="translate(0,-2)" y1="40.798" x1="55.733"/>
  <linearGradient id="linearGradient3824">
   <stop id="stop3826" style="stop-color:#e4e4e4" offset="0"/>
   <stop id="stop3828" style="stop-color:#989898" offset="1"/>
  </linearGradient>
  <radialGradient id="radialGradient3816" gradientUnits="userSpaceOnUse" cy="43.639" cx="57" gradientTransform="matrix(1.4248 -5.0547e-8 1.82e-8 .51299 -24.212 14.391)" r="11">
   <stop id="stop3740" style="stop-color:#9ae8fb" offset="0"/>
   <stop id="stop3742" style="stop-color:#50bad4" offset="1"/>
  </radialGradient>
  <linearGradient id="linearGradient3837" y2="39.283" gradientUnits="userSpaceOnUse" x2="49.929" gradientTransform="translate(0,-2)" y1="32.338" x1="49.914">
   <stop id="stop3833" style="stop-color:#267387" offset="0"/>
   <stop id="stop3835" style="stop-color:#5bb9d2" offset="1"/>
  </linearGradient>
  <linearGradient id="linearGradient3860" y2="41.967" xlink:href="#linearGradient2949" gradientUnits="userSpaceOnUse" x2="48.904" gradientTransform="translate(0,-88)" y1="46.02" x1="48.904"/>
  <linearGradient id="linearGradient2949">
   <stop id="stop2951" style="stop-color:#323232" offset="0"/>
   <stop id="stop2953" style="stop-color:#505050" offset="1"/>
  </linearGradient>
  <linearGradient id="linearGradient3980" y2="41.967" xlink:href="#linearGradient2949" gradientUnits="userSpaceOnUse" x2="48.904" gradientTransform="translate(8,-88)" y1="46.02" x1="48.904"/>
  <linearGradient id="linearGradient3990" y2="41.967" xlink:href="#linearGradient2949" gradientUnits="userSpaceOnUse" x2="48.904" gradientTransform="translate(16,-88)" y1="46.02" x1="48.904"/>
  <linearGradient id="linearGradient4016" y2="41.967" xlink:href="#linearGradient2949" gradientUnits="userSpaceOnUse" x2="48.904" gradientTransform="translate(0,-94)" y1="46.02" x1="48.904"/>
  <linearGradient id="linearGradient4018" y2="41.967" xlink:href="#linearGradient2949" gradientUnits="userSpaceOnUse" x2="48.904" gradientTransform="translate(8,-94)" y1="46.02" x1="48.904"/>
  <linearGradient id="linearGradient4020" y2="41.967" xlink:href="#linearGradient2949" gradientUnits="userSpaceOnUse" x2="48.904" gradientTransform="translate(16,-94)" y1="46.02" x1="48.904"/>
  <linearGradient id="linearGradient4046" y2="41.967" xlink:href="#linearGradient2949" gradientUnits="userSpaceOnUse" x2="48.904" gradientTransform="translate(0,-100)" y1="46.02" x1="48.904"/>
  <linearGradient id="linearGradient4048" y2="41.967" xlink:href="#linearGradient2949" gradientUnits="userSpaceOnUse" x2="48.904" gradientTransform="translate(8,-100)" y1="46.02" x1="48.904"/>
  <linearGradient id="linearGradient4051" y2="41.967" xlink:href="#linearGradient2949" gradientUnits="userSpaceOnUse" x2="48.904" gradientTransform="translate(16,-100)" y1="46.02" x1="48.904"/>
  <linearGradient id="linearGradient4077" y2="41.967" xlink:href="#linearGradient2949" gradientUnits="userSpaceOnUse" x2="48.904" gradientTransform="translate(0,-106)" y1="46.02" x1="48.904"/>
  <linearGradient id="linearGradient4079" y2="41.967" xlink:href="#linearGradient2949" gradientUnits="userSpaceOnUse" x2="48.904" gradientTransform="translate(8,-106)" y1="46.02" x1="48.904"/>
  <linearGradient id="linearGradient4081" y2="41.967" xlink:href="#linearGradient2949" gradientUnits="userSpaceOnUse" x2="48.904" gradientTransform="translate(16,-106)" y1="46.02" x1="48.904"/>
  <linearGradient id="linearGradient3820" y2="38.358" xlink:href="#linearGradient4120" gradientUnits="userSpaceOnUse" x2="36.618" y1="38.358" x1="24.117"/>
  <linearGradient id="linearGradient4120">
   <stop id="stop4122" style="stop-color:#fff" offset="0"/>
   <stop id="stop4124" style="stop-color:#989898" offset="1"/>
  </linearGradient>
  <linearGradient id="linearGradient3849" y2="52" xlink:href="#linearGradient4120" gradientUnits="userSpaceOnUse" x2="33" gradientTransform="translate(1)" y1="52" x1="27"/>
  <linearGradient id="linearGradient3891" y2="38.358" xlink:href="#linearGradient3824" gradientUnits="userSpaceOnUse" x2="36.618" y1="36.796" x1="28.805"/>
  <linearGradient id="linearGradient3841" y2="52" xlink:href="#linearGradient3677" gradientUnits="userSpaceOnUse" x2="35" gradientTransform="translate(1)" y1="52.359" x1="27"/>
  <linearGradient id="linearGradient3677">
   <stop id="stop3679" style="stop-color:#fff" offset="0"/>
   <stop id="stop3681" style="stop-color:#fff;stop-opacity:0" offset="1"/>
  </linearGradient>
  <radialGradient id="radialGradient3916" xlink:href="#linearGradient3677" gradientUnits="userSpaceOnUse" cy="47" cx="53" r="3"/>
  <radialGradient id="radialGradient3920" xlink:href="#linearGradient3677" gradientUnits="userSpaceOnUse" cy="47" cx="53" gradientTransform="translate(8)" r="3"/>
  <radialGradient id="radialGradient3926" xlink:href="#linearGradient3677" gradientUnits="userSpaceOnUse" cy="47" cx="53" gradientTransform="translate(0,6)" r="3"/>
  <radialGradient id="radialGradient3928" xlink:href="#linearGradient3677" gradientUnits="userSpaceOnUse" cy="47" cx="53" gradientTransform="translate(8,6)" r="3"/>
  <radialGradient id="radialGradient3934" xlink:href="#linearGradient3677" gradientUnits="userSpaceOnUse" cy="47" cx="53" gradientTransform="translate(0,12)" r="3"/>
  <radialGradient id="radialGradient3936" xlink:href="#linearGradient3677" gradientUnits="userSpaceOnUse" cy="47" cx="53" gradientTransform="translate(8,12)" r="3"/>
  <clipPath id="clipPath3438" clipPathUnits="userSpaceOnUse">
   <rect id="rect3440" style="fill:url(#linearGradient3442)" rx="22.826" ry="22.826" height="84" width="84" y="6" x="6"/>
  </clipPath>
  <linearGradient id="linearGradient3442" y2="1046.1" gradientUnits="userSpaceOnUse" x2="48" gradientTransform="matrix(1.05 0 0 1.05 -2.4 -1006.6)" y1="962.62" x1="48">
   <stop id="stop3797" style="stop-color:#13a6fd" offset="0"/>
   <stop id="stop3799" style="stop-color:#2975b6" offset="1"/>
  </linearGradient>
  <clipPath id="clipPath3009" clipPathUnits="userSpaceOnUse">
   <path id="path3011" style="opacity:.15;fill:#fff" d="m-2 956.36h-96v33.562l96 25.687v-59.25z"/>
  </clipPath>
 </defs>
 <metadata id="metadata11042">
  <rdf:RDF>
   <cc:Work rdf:about="">
    <dc:format>image/svg+xml</dc:format>
    <dc:type rdf:resource="http://purl.org/dc/dcmitype/StillImage"/>
    <dc:title/>
   </cc:Work>
  </rdf:RDF>
 </metadata>
 <g id="layer1" transform="translate(0 -956.36)">
  <g id="g3181" clip-path="url(#clipPath3438)" transform="matrix(1.0952 0 0 1.0952 -4.5714 951.79)">
   <g id="layer1-1">
    <rect id="rect2419" style="fill:url(#linearGradient3617)" rx="6" ry="6" height="84" width="84" y="6" x="6"/>
   </g>
   <rect id="rect3736" style="opacity:.4" rx="2" ry="2" transform="rotate(-90)" width="66" y="15" x="-81" height="66"/>
   <rect id="rect3620" style="fill:url(#linearGradient3628)" transform="rotate(-90)" height="64" width="64" y="16" x="-80"/>
   <rect id="rect3771" style="opacity:.4" rx="2" ry="2" height="14" width="6" y="23" x="77"/>
   <path id="rect3750" d="m16 16v64h64v-64h-64zm2 2h60v60h-60v-60z" style="opacity:.5;fill:url(#linearGradient3761)"/>
   <rect id="rect3789" style="fill:url(#linearGradient3867)" rx="1" ry="1" height="12" width="4" y="24" x="78"/>
   <rect id="rect3775" style="opacity:.4" rx="2" ry="2" height="14" width="6" y="59" x="77"/>
   <rect id="rect3777" style="fill:url(#linearGradient3779)" rx="1" ry="1" height="12" width="4" y="60" x="78"/>
   <rect id="rect3912" style="opacity:.2" height="1" width="4" y="30" x="78"/>
   <rect id="rect3914" style="opacity:.2" height="1" width="4" y="66" x="78"/>
   <path id="rect3916" d="m79 24c-0.554 0-1 0.446-1 1v1c0-0.554 0.446-1 1-1h2c0.554 0 1 0.446 1 1v-1c0-0.554-0.446-1-1-1h-2z" style="fill:#fff"/>
   <path id="path3926" d="m79 60c-0.554 0-1 0.446-1 1v1c0-0.554 0.446-1 1-1h2c0.554 0 1 0.446 1 1v-1c0-0.554-0.446-1-1-1h-2z" style="fill:#fff"/>
   <g id="layer5">
    <rect id="rect3171" style="opacity:.1;filter:url(#filter3794);stroke:#fff;stroke-linecap:round;stroke-width:.5;fill:url(#linearGradient3613)" clip-path="url(#clipPath3613)" rx="12" ry="12" height="66" width="66" y="15" x="15"/>
   </g>
   <g id="layer3">
    <rect id="rect3893" style="opacity:.1;filter:url(#filter3901)" rx="1" ry="1" height="24" width="6" y="42" x="32"/>
    <path id="path3865" d="m36.618 38.358a6.2503 6.2503 0 1 1 -12.501 0 6.2503 6.2503 0 1 1 12.501 0z" style="opacity:.15" transform="matrix(0 1.1199 1.1199 0 -11.959 3.9899)"/>
    <path id="path3871" d="m36.618 38.358a6.2503 6.2503 0 1 1 -12.501 0 6.2503 6.2503 0 1 1 12.501 0z" style="opacity:.4" transform="matrix(0 .95995 .95995 0 -5.822 9.8485)"/>
    <rect id="rect3818" style="fill:url(#linearGradient3822)" rx="2" ry="2" height="10" width="24" y="29" x="45"/>
    <rect id="rect3718" style="stroke:url(#linearGradient3837);fill:url(#radialGradient3816)" rx="1" ry="1" height="7" width="21" y="30.5" x="46.5"/>
    <rect id="rect3760" style="fill:url(#linearGradient3860)" rx=".5" ry=".5" transform="scale(1,-1)" width="6" y="-46" x="46" height="4"/>
    <text id="text3812" style="opacity:.4;font-size:1.9444px;font-family:Lilliput Steps;line-height:125%;fill:#000000" y="34.94722" x="48.368675" xml:space="preserve"><tspan id="tspan3814" y="34.94722" x="48.368675">ENTER CODE</tspan></text>
    <path id="rect3950" d="m46 45.5v1c0 0.277 0.223 0.5 0.5 0.5h5c0.277 0 0.5-0.223 0.5-0.5v-1c0 0.277-0.223 0.5-0.5 0.5h-5c-0.277 0-0.5-0.223-0.5-0.5z" style="opacity:.2"/>
    <text id="text3968" style="font-size:3.4445px;text-anchor:middle;text-align:center;font-family:Liberation Sans;line-height:125%;fill:#ffffff" y="45.18573" x="49.001682" xml:space="preserve"><tspan id="tspan3970" y="45.18573" x="49.001682">7</tspan></text>
    <rect id="rect3972" style="fill:url(#linearGradient3980)" rx=".5" ry=".5" transform="scale(1,-1)" width="6" y="-46" x="54" height="4"/>
    <path id="path3974" d="m54 45.5v1c0 0.277 0.223 0.5 0.5 0.5h5c0.277 0 0.5-0.223 0.5-0.5v-1c0 0.277-0.223 0.5-0.5 0.5h-5c-0.277 0-0.5-0.223-0.5-0.5z" style="opacity:.2"/>
    <text id="text3976" style="font-size:3.4445px;text-anchor:middle;text-align:center;font-family:Liberation Sans;line-height:125%;fill:#ffffff" y="45.18573" x="57.001682" xml:space="preserve"><tspan id="tspan3978" y="45.18573" x="57.001682">8</tspan></text>
    <rect id="rect3982" style="fill:url(#linearGradient3990)" rx=".5" ry=".5" transform="scale(1,-1)" width="6" y="-46" x="62" height="4"/>
    <path id="path3984" d="m62 45.5v1c0 0.277 0.223 0.5 0.5 0.5h5c0.277 0 0.5-0.223 0.5-0.5v-1c0 0.277-0.223 0.5-0.5 0.5h-5c-0.277 0-0.5-0.223-0.5-0.5z" style="opacity:.2"/>
    <text id="text3986" style="font-size:3.4445px;text-anchor:middle;text-align:center;font-family:Liberation Sans;line-height:125%;fill:#ffffff" y="45.18573" x="65.001678" xml:space="preserve"><tspan id="tspan3988" y="45.18573" x="65.001678">9</tspan></text>
    <rect id="rect3992" style="fill:url(#linearGradient4016)" rx=".5" ry=".5" transform="scale(1,-1)" width="6" y="-52" x="46" height="4"/>
    <path id="path3994" d="m46 51.5v1c0 0.277 0.223 0.5 0.5 0.5h5c0.277 0 0.5-0.223 0.5-0.5v-1c0 0.277-0.223 0.5-0.5 0.5h-5c-0.277 0-0.5-0.223-0.5-0.5z" style="opacity:.2"/>
    <text id="text3996" style="font-size:3.4445px;text-anchor:middle;text-align:center;font-family:Liberation Sans;line-height:125%;fill:#ffffff" y="51.18573" x="49.001682" xml:space="preserve"><tspan id="tspan3998" y="51.18573" x="49.001682">4</tspan></text>
    <rect id="rect4000" style="fill:url(#linearGradient4018)" rx=".5" ry=".5" transform="scale(1,-1)" width="6" y="-52" x="54" height="4"/>
    <path id="path4002" d="m54 51.5v1c0 0.277 0.223 0.5 0.5 0.5h5c0.277 0 0.5-0.223 0.5-0.5v-1c0 0.277-0.223 0.5-0.5 0.5h-5c-0.277 0-0.5-0.223-0.5-0.5z" style="opacity:.2"/>
    <text id="text4004" style="font-size:3.4445px;text-anchor:middle;text-align:center;font-family:Liberation Sans;line-height:125%;fill:#ffffff" y="51.18573" x="57.001682" xml:space="preserve"><tspan id="tspan4006" y="51.18573" x="57.001682">5</tspan></text>
    <rect id="rect4008" style="fill:url(#linearGradient4020)" rx=".5" ry=".5" transform="scale(1,-1)" width="6" y="-52" x="62" height="4"/>
    <path id="path4010" d="m62 51.5v1c0 0.277 0.223 0.5 0.5 0.5h5c0.277 0 0.5-0.223 0.5-0.5v-1c0 0.277-0.223 0.5-0.5 0.5h-5c-0.277 0-0.5-0.223-0.5-0.5z" style="opacity:.2"/>
    <text id="text4012" style="font-size:3.4445px;text-anchor:middle;text-align:center;font-family:Liberation Sans;line-height:125%;fill:#ffffff" y="51.18573" x="65.001678" xml:space="preserve"><tspan id="tspan4014" y="51.18573" x="65.001678">6</tspan></text>
    <rect id="rect4022" style="fill:url(#linearGradient4046)" rx=".5" ry=".5" transform="scale(1,-1)" width="6" y="-58" x="46" height="4"/>
    <path id="path4024" d="m46 57.5v1c0 0.277 0.223 0.5 0.5 0.5h5c0.277 0 0.5-0.223 0.5-0.5v-1c0 0.277-0.223 0.5-0.5 0.5h-5c-0.277 0-0.5-0.223-0.5-0.5z" style="opacity:.2"/>
    <text id="text4026" style="font-size:3.4445px;text-anchor:middle;text-align:center;font-family:Liberation Sans;line-height:125%;fill:#ffffff" y="57.18573" x="49.001682" xml:space="preserve"><tspan id="tspan4028" y="57.18573" x="49.001682">1</tspan></text>
    <rect id="rect4030" style="fill:url(#linearGradient4048)" rx=".5" ry=".5" transform="scale(1,-1)" width="6" y="-58" x="54" height="4"/>
    <path id="path4032" d="m54 57.5v1c0 0.277 0.223 0.5 0.5 0.5h5c0.277 0 0.5-0.223 0.5-0.5v-1c0 0.277-0.223 0.5-0.5 0.5h-5c-0.277 0-0.5-0.223-0.5-0.5z" style="opacity:.2"/>
    <text id="text4034" style="font-size:3.4445px;text-anchor:middle;text-align:center;font-family:Liberation Sans;line-height:125%;fill:#ffffff" y="57.18573" x="57.001682" xml:space="preserve"><tspan id="tspan4036" y="57.18573" x="57.001682">2</tspan></text>
    <rect id="rect4038" style="fill:url(#linearGradient4051)" rx=".5" ry=".5" transform="scale(1,-1)" width="6" y="-58" x="62" height="4"/>
    <path id="path4040" d="m62 57.5v1c0 0.277 0.223 0.5 0.5 0.5h5c0.277 0 0.5-0.223 0.5-0.5v-1c0 0.277-0.223 0.5-0.5 0.5h-5c-0.277 0-0.5-0.223-0.5-0.5z" style="opacity:.2"/>
    <text id="text4042" style="font-size:3.4445px;text-anchor:middle;text-align:center;font-family:Liberation Sans;line-height:125%;fill:#ffffff" y="57.18573" x="65.001678" xml:space="preserve"><tspan id="tspan4044" y="57.18573" x="65.001678">3</tspan></text>
    <rect id="rect4053" style="fill:url(#linearGradient4077)" rx=".5" ry=".5" transform="scale(1,-1)" width="6" y="-64" x="46" height="4"/>
    <path id="path4055" d="m46 63.5v1c0 0.277 0.223 0.5 0.5 0.5h5c0.277 0 0.5-0.223 0.5-0.5v-1c0 0.277-0.223 0.5-0.5 0.5h-5c-0.277 0-0.5-0.223-0.5-0.5z" style="opacity:.2"/>
    <text id="text4057" style="font-size:3.4445px;text-anchor:middle;text-align:center;font-family:Liberation Sans;line-height:125%;fill:#ffffff" y="63.18573" x="49.001682" xml:space="preserve"><tspan id="tspan4059" y="63.18573" x="49.001682">*</tspan></text>
    <rect id="rect4061" style="fill:url(#linearGradient4079)" rx=".5" ry=".5" transform="scale(1,-1)" width="6" y="-64" x="54" height="4"/>
    <path id="path4063" d="m54 63.5v1c0 0.277 0.223 0.5 0.5 0.5h5c0.277 0 0.5-0.223 0.5-0.5v-1c0 0.277-0.223 0.5-0.5 0.5h-5c-0.277 0-0.5-0.223-0.5-0.5z" style="opacity:.2"/>
    <text id="text4065" style="font-size:3.4445px;text-anchor:middle;text-align:center;font-family:Liberation Sans;line-height:125%;fill:#ffffff" y="63.18573" x="57.001682" xml:space="preserve"><tspan id="tspan4067" y="63.18573" x="57.001682">0</tspan></text>
    <rect id="rect4069" style="fill:url(#linearGradient4081)" rx=".5" ry=".5" transform="scale(1,-1)" width="6" y="-64" x="62" height="4"/>
    <path id="path4071" d="m62 63.5v1c0 0.277 0.223 0.5 0.5 0.5h5c0.277 0 0.5-0.223 0.5-0.5v-1c0 0.277-0.223 0.5-0.5 0.5h-5c-0.277 0-0.5-0.223-0.5-0.5z" style="opacity:.2"/>
    <text id="text4073" style="font-size:3.4445px;text-anchor:middle;text-align:center;font-family:Liberation Sans;line-height:125%;fill:#ffffff" y="63.18573" x="65.001678" xml:space="preserve"><tspan id="tspan4075" y="63.18573" x="65.001678">#</tspan></text>
    <path id="path3806" d="m36.618 38.358a6.2503 6.2503 0 1 1 -12.501 0 6.2503 6.2503 0 1 1 12.501 0z" style="fill:url(#linearGradient3820)" transform="matrix(0 .95995 .95995 0 -5.822 8.8485)"/>
    <path id="path3880" d="m32 34c-1.8769 0-3.4437 1.2876-3.875 3.0312-0.63237 0.0919-1.125 0.54482-1.125 1.125v25.688c0 0.646 0.605 1.156 1.344 1.156h1 4.3125 1c0.739 0 1.344-0.51 1.344-1.156v-25.688c0-0.02262 0.0014-0.0402 0-0.0625 0.000722-0.03127 0-0.06231 0-0.09375 0-2.2091-1.7909-4-4-4z" style="opacity:.15"/>
    <path id="rect3875" d="m28.344 37c-0.076 0-0.147 0.021-0.219 0.031-0.076 0.309-0.125 0.637-0.125 0.969 0 0.03144-0.000722 0.06248 0 0.09375-0.0014 0.0223 0 0.03988 0 0.0625v25.688c0 0.646 0.605 1.156 1.344 1.156h4.3125c0.739 0 1.344-0.51 1.344-1.156v-25.688c0-0.646-0.605-1.156-1.344-1.156h-5.3125z" style="opacity:.4"/>
    <rect id="rect3808" style="fill:url(#linearGradient3849)" rx="1" ry="1" height="24" width="6" y="40" x="28"/>
    <path id="path3811" d="m36.618 38.358a6.2503 6.2503 0 1 1 -12.501 0 6.2503 6.2503 0 1 1 12.501 0z" style="fill:url(#linearGradient3891)" transform="matrix(.63997 0 0 .63997 11.566 13.452)"/>
    <path id="rect3822" d="m28.062 40.719c-0.028 0.093-0.062 0.178-0.062 0.281v22c0 0.554 0.446 1 1 1h4c0.554 0 1-0.446 1-1v-22c0-0.103-0.034-0.188-0.062-0.281-0.272 0.294-0.59 0.517-0.938 0.719v21.062c0 0.277-0.223 0.5-0.5 0.5h-3c-0.277 0-0.5-0.223-0.5-0.5v-21.062c-0.34837-0.20196-0.66594-0.42491-0.9375-0.71875z" style="fill:url(#linearGradient3841)"/>
    <path id="path3886" d="m31 34c-2.2091 0-4 1.7909-4 4 0 0.17012 0.04189 0.33547 0.0625 0.5 0.248-1.972 1.899-3.5 3.938-3.5s3.6904 1.528 3.9375 3.5c0.02-0.165 0.062-0.33 0.062-0.5 0-2.209-1.791-4-4-4z" style="opacity:.2"/>
    <path id="rect3905" d="m52 44v3h-2v1h2v2h2v-2h2v-1h-2v-3h-2z" style="opacity:.4;fill:url(#radialGradient3916)"/>
    <path id="path3918" d="m60 44v3h-2v1h2v2h2v-2h2v-1h-2v-3h-2z" style="opacity:.4;fill:url(#radialGradient3920)"/>
    <path id="path3922" d="m52 50v3h-2v1h2v2h2v-2h2v-1h-2v-3h-2z" style="opacity:.4;fill:url(#radialGradient3926)"/>
    <path id="path3924" d="m60 50v3h-2v1h2v2h2v-2h2v-1h-2v-3h-2z" style="opacity:.4;fill:url(#radialGradient3928)"/>
    <path id="path3930" d="m52 56v3h-2v1h2v2h2v-2h2v-1h-2v-3h-2z" style="opacity:.4;fill:url(#radialGradient3934)"/>
    <path id="path3932" d="m60 56v3h-2v1h2v2h2v-2h2v-1h-2v-3h-2z" style="opacity:.4;fill:url(#radialGradient3936)"/>
   </g>
  </g>
  <rect id="rect3003" style="opacity:.15;fill:#fff" transform="translate(98 3.8281e-7)" clip-path="url(#clipPath3009)" rx="25" ry="25" height="92" width="92" y="958.36" x="-96"/>
 </g>
</svg>
