<?xml version="1.0" encoding="UTF-8" standalone="no"?>
<!-- Created with Inkscape (http://www.inkscape.org/) -->

<svg
   xmlns:dc="http://purl.org/dc/elements/1.1/"
   xmlns:cc="http://creativecommons.org/ns#"
   xmlns:rdf="http://www.w3.org/1999/02/22-rdf-syntax-ns#"
   xmlns:svg="http://www.w3.org/2000/svg"
   xmlns="http://www.w3.org/2000/svg"
   xmlns:xlink="http://www.w3.org/1999/xlink"
   xmlns:sodipodi="http://sodipodi.sourceforge.net/DTD/sodipodi-0.dtd"
   xmlns:inkscape="http://www.inkscape.org/namespaces/inkscape"
   version="1.0"
   width="96"
   height="96"
   id="svg2"
   style="display:inline"
   inkscape:version="0.48.4 r9939"
   sodipodi:docname="gpm-primary-020-charging.svg">
  <sodipodi:namedview
     pagecolor="#000000"
     bordercolor="#666666"
     borderopacity="1"
     objecttolerance="10"
     gridtolerance="10"
     guidetolerance="10"
     inkscape:pageopacity="0.94117647"
     inkscape:pageshadow="2"
     inkscape:window-width="1366"
     inkscape:window-height="714"
     id="namedview26"
     showgrid="false"
     inkscape:zoom="3.4479167"
     inkscape:cx="9.2809668"
     inkscape:cy="48"
     inkscape:window-x="0"
     inkscape:window-y="24"
     inkscape:window-maximized="1"
     inkscape:current-layer="svg2" />
  <defs
     id="defs4">
    <linearGradient
       id="linearGradient4081">
      <stop
         id="stop4083"
         style="stop-color:#aaaaaa;stop-opacity:1"
         offset="0" />
      <stop
         id="stop4085"
         style="stop-color:#f0f0f0;stop-opacity:1"
         offset="1" />
    </linearGradient>
    <linearGradient
       x1="39"
       y1="72"
       x2="39.196381"
       y2="24.266857"
       id="linearGradient3763"
       xlink:href="#linearGradient4081"
       gradientUnits="userSpaceOnUse" />
    <linearGradient
       x1="44"
       y1="66"
       x2="44"
       y2="30.942904"
       id="linearGradient3636"
       xlink:href="#linearGradient4081"
       gradientUnits="userSpaceOnUse" />
    <linearGradient
       inkscape:collect="always"
       xlink:href="#linearGradient4081"
       id="linearGradient3006"
       gradientUnits="userSpaceOnUse"
       x1="44"
       y1="66"
       x2="44"
       y2="30.942904" />
    <linearGradient
       inkscape:collect="always"
       xlink:href="#linearGradient4081"
       id="linearGradient3011"
       gradientUnits="userSpaceOnUse"
       x1="39"
       y1="72"
       x2="39.196381"
       y2="24.266857" />
    <linearGradient
       inkscape:collect="always"
       xlink:href="#linearGradient4081"
       id="linearGradient4161"
       gradientUnits="userSpaceOnUse"
       x1="39"
       y1="72"
       x2="39.196381"
       y2="24.266857" />
    <linearGradient
       inkscape:collect="always"
       xlink:href="#linearGradient4081"
       id="linearGradient4163"
       gradientUnits="userSpaceOnUse"
       x1="44"
       y1="66"
       x2="44"
       y2="30.942904" />
    <linearGradient
       inkscape:collect="always"
       xlink:href="#linearGradient4081"
       id="linearGradient4235"
       gradientUnits="userSpaceOnUse"
       x1="44"
       y1="66"
       x2="44"
       y2="30.942904"
       gradientTransform="translate(0,-1)" />
    <linearGradient
       inkscape:collect="always"
       xlink:href="#linearGradient4081"
       id="linearGradient4240"
       gradientUnits="userSpaceOnUse"
       x1="39"
       y1="72"
       x2="39.196381"
       y2="24.266857"
       gradientTransform="translate(0,-1)" />
  </defs>
  <metadata
     id="metadata7">
    <rdf:RDF>
      <cc:Work
         rdf:about="">
        <dc:format>image/svg+xml</dc:format>
        <dc:type
           rdf:resource="http://purl.org/dc/dcmitype/StillImage" />
        <dc:title></dc:title>
      </cc:Work>
    </rdf:RDF>
  </metadata>
  <g
     id="g4251">
    <rect
       width="28.181269"
       height="40"
       x="10"
       y="27"
       id="rect3799"
       style="opacity:0.9;fill:#ffffff;fill-opacity:1;stroke:none" />
    <path
       d="m 47.6875,35.03125 a 1.0163779,1.0163779 0 0 0 -0.125,0.03125 c -2.683049,0.845348 -5.33396,1.88653 -7.9375,2.78125 -6.93015,2.48801 -13.886853,4.906119 -20.8125,7.4375 A 1.0163779,1.0163779 0 0 0 18.75,45.3125 c -2.410973,1.086019 -2.080246,4.861249 0.46875,5.53125 A 1.0163779,1.0163779 0 0 0 19.375,50.875 c 2.17473,0.226205 4.265569,0.06903 6.25,0.125 a 1.0163779,1.0163779 0 0 0 0.03125,0 L 37,51 c 0.0031,2.437693 -0.03387,4.90337 0.03125,7.375 A 1.0163779,1.0163779 0 0 0 37.0625,58.5 c 0.302107,2.055109 2.591631,2.996761 4.34375,2.1875 0.06014,-0.02778 0.128728,-0.03052 0.1875,-0.0625 9.876479,-3.308482 19.781834,-6.563296 29.65625,-9.90625 a 1.0163779,1.0163779 0 0 0 0.09375,-0.03125 c 2.477284,-1.118344 2.000067,-5.066587 -0.65625,-5.59375 a 1.0163779,1.0163779 0 0 0 -0.15625,0 C 67.087486,44.947054 63.648342,45.040221 60.28125,45 L 51,45 c -0.0031,-2.427212 0.03396,-4.882371 -0.03125,-7.34375 A 1.0163779,1.0163779 0 0 0 50.9375,37.5 c -0.264632,-1.469652 -1.570902,-2.583663 -3.125,-2.46875 a 1.0163779,1.0163779 0 0 0 -0.125,0 z"
       id="path3672"
       style="opacity:0.07999998;fill:#000000;fill-opacity:1;stroke:none"
       inkscape:connector-curvature="0" />
    <path
       d="m 47.875,36.03125 c -2.6351,0.830241 -5.262364,1.86503 -7.896266,2.770184 -6.936613,2.49033 -13.90695,4.920881 -20.822484,7.448566 -1.549643,0.698034 -1.323059,3.195095 0.3125,3.625 2.046536,0.212871 4.131704,0.0356 6.193561,0.09375 4.12298,0 8.245959,0 12.368939,0 0.02114,2.790346 -0.0421,5.591081 0.03125,8.375 0.204207,1.389135 1.865598,2.021723 3.041348,1.381895 C 51.046151,56.394296 61.006474,53.112119 70.9375,49.75 72.532354,49.03002 72.208301,46.432773 70.5,46.09375 c -3.390234,-0.144416 -6.804698,-0.02189 -10.204364,-0.0625 -3.442296,0 -6.884591,0 -10.326886,0 -0.02124,-2.779917 0.04223,-5.570264 -0.03125,-8.34375 -0.175219,-0.973092 -1.059737,-1.730396 -2.0625,-1.65625 z"
       inkscape:connector-curvature="0"
       id="path3666"
       style="opacity:0.1;fill:#000000;fill-opacity:1;stroke:none" />
    <path
       d="m 47.875,36.96875 a 1.0405161,1.0405161 0 0 0 -0.21875,0.0625 l -28,10 a 1.0405161,1.0405161 0 0 0 0.34375,2 l 18.96875,0 0,8.96875 a 1.0405161,1.0405161 0 0 0 1.375,1 l 30,-10 A 1.0405161,1.0405161 0 0 0 70,46.96875 l -20.96875,0 0,-8.96875 A 1.0405161,1.0405161 0 0 0 47.875,36.96875 z"
       id="path3662"
       style="opacity:0.57024793;fill:#000000;fill-opacity:1;stroke:#000000;stroke-opacity:1"
       inkscape:connector-curvature="0" />
    <path
       d="M 20,48 48,38 48,48 70,48 40,58 40,48 20,48 z"
       inkscape:connector-curvature="0"
       id="path3656"
       style="opacity:0.3;fill:#000000;fill-opacity:1;stroke:none" />
    <path
       d="m 12,20.96875 c -4.9542317,0 -9.03125,4.077018 -9.03125,9.03125 l 0,36 c 0,4.954232 4.0770182,9.03125 9.03125,9.03125 l 66,0 c 4.954232,0 9.03125,-4.077018 9.03125,-9.03125 l 0,-6.96875 0.96875,0 c 2.75259,0 5.03125,-2.27866 5.03125,-5.03125 l 0,-12 c 0,-2.75259 -2.27866,-5.03125 -5.03125,-5.03125 l -0.96875,0 0,-6.96875 c 0,-4.954232 -4.077018,-9.03125 -9.03125,-9.03125 l -66,0 z m 4,12.0625 58,0 c 0.690105,0 0.96875,0.278645 0.96875,0.96875 l 0,28 c 0,0.690106 -0.278643,0.96875 -0.96875,0.96875 l -58,0 c -0.690107,0 -0.96875,-0.278644 -0.96875,-0.96875 l 0,-28 c 0,-0.690105 0.278645,-0.96875 0.96875,-0.96875 z"
       id="path3797"
       style="opacity:0.07999998;fill:#000000;fill-opacity:1;stroke:none"
       inkscape:connector-curvature="0" />
    <path
       d="m 12,22.03125 c -4.3780676,0 -7.96875,3.590682 -7.96875,7.96875 l 0,36 c 0,4.378068 3.5906824,7.96875 7.96875,7.96875 l 66,0 c 4.378068,0 7.96875,-3.590682 7.96875,-7.96875 l 0,-8.03125 2.03125,0 c 2.170657,0 3.96875,-1.798093 3.96875,-3.96875 l 0,-12 c 0,-2.170657 -1.798093,-3.96875 -3.96875,-3.96875 l -2.03125,0 0,-8.03125 c 0,-4.378068 -3.590682,-7.96875 -7.96875,-7.96875 l -66,0 z m 4,9.9375 58,0 c 1.188373,0 2.03125,0.842877 2.03125,2.03125 l 0,28 c 0,1.188374 -0.842876,2.03125 -2.03125,2.03125 l -58,0 c -1.188374,0 -2.03125,-0.842876 -2.03125,-2.03125 l 0,-28 c 0,-1.188373 0.842877,-2.03125 2.03125,-2.03125 z"
       id="path3793"
       style="opacity:0.1;fill:#000000;fill-opacity:1;stroke:none"
       inkscape:connector-curvature="0" />
    <path
       d="m 12,22.96875 c -3.8714401,0 -7.03125,3.15981 -7.03125,7.03125 l 0,36 c 0,3.87144 3.1598099,7.03125 7.03125,7.03125 l 66,0 c 3.87144,0 7.03125,-3.15981 7.03125,-7.03125 l 0,-8.96875 2.96875,0 c 1.653332,0 3.03125,-1.377918 3.03125,-3.03125 l 0,-12 c 0,-1.653332 -1.377918,-3.03125 -3.03125,-3.03125 l -2.96875,0 0,-8.96875 c 0,-3.87144 -3.15981,-7.03125 -7.03125,-7.03125 l -66,0 z m 4,8.0625 58,0 c 1.670668,0 2.96875,1.298082 2.96875,2.96875 l 0,28 c 0,1.670668 -1.298082,2.96875 -2.96875,2.96875 l -58,0 c -1.670668,0 -2.96875,-1.298082 -2.96875,-2.96875 l 0,-28 c 0,-1.670668 1.298082,-2.96875 2.96875,-2.96875 z"
       id="path3789"
       style="opacity:0.15;fill:#000000;fill-opacity:1;stroke:none"
       inkscape:connector-curvature="0" />
    <path
       d="m 12,24 c -3.327333,0 -6,2.672667 -6,6 l 0,36 c 0,3.327333 2.672667,6 6,6 l 66,0 c 3.327333,0 6,-2.672667 6,-6 l 0,-10 4,0 c 1.108,0 2,-0.892 2,-2 l 0,-12 c 0,-1.108 -0.892,-2 -2,-2 l -4,0 0,-10 c 0,-3.327333 -2.672667,-6 -6,-6 l -66,0 z m 4,6 58,0 c 2.216,0 4,1.784 4,4 l 0,28 c 0,2.216 -1.784,4 -4,4 l -58,0 c -2.216,0 -4,-1.784 -4,-4 l 0,-28 c 0,-2.216 1.784,-4 4,-4 z"
       inkscape:connector-curvature="0"
       id="path3783"
       style="opacity:0.3;fill:#000000;fill-opacity:1;stroke:none" />
    <path
       d="m 12,23 c -3.327333,0 -6,2.672667 -6,6 l 0,36 c 0,3.327333 2.672667,6 6,6 l 66,0 c 3.327333,0 6,-2.672667 6,-6 l 0,-10 4,0 c 1.108,0 2,-0.892 2,-2 l 0,-12 c 0,-1.108 -0.892,-2 -2,-2 l -4,0 0,-10 c 0,-3.327333 -2.672667,-6 -6,-6 l -66,0 z m 4,6 58,0 c 2.216,0 4,1.784 4,4 l 0,28 c 0,2.216 -1.784,4 -4,4 l -58,0 c -2.216,0 -4,-1.784 -4,-4 l 0,-28 c 0,-2.216 1.784,-4 4,-4 z"
       inkscape:connector-curvature="0"
       id="rect2975"
       style="fill:url(#linearGradient4240);fill-opacity:1;stroke:none" />
    <path
       d="m 12,23 c -3.327333,0 -6,2.672667 -6,6 l 0,1 c 0,-3.327333 2.672667,-6 6,-6 l 66,0 c 3.327333,0 6,2.672667 6,6 l 0,-1 c 0,-3.327333 -2.672667,-6 -6,-6 l -66,0 z m 72,16 0,1 4,0 c 1.108,0 2,0.892 2,2 l 0,-1 c 0,-1.108 -0.892,-2 -2,-2 l -4,0 z m -72,22 0,1 c 0,2.216 1.784,4 4,4 l 58,0 c 2.216,0 4,-1.784 4,-4 l 0,-1 c 0,2.216 -1.784,4 -4,4 l -58,0 c -2.216,0 -4,-1.784 -4,-4 z"
       inkscape:connector-curvature="0"
       id="path3765"
       style="opacity:0.75;fill:#ffffff;fill-opacity:1;stroke:none" />
    <path
       d="m 16,28 c -2.216,0 -4,1.784 -4,4 l 0,1 c 0,-2.216 1.784,-4 4,-4 l 58,0 c 2.216,0 4,1.784 4,4 l 0,-1 c 0,-2.216 -1.784,-4 -4,-4 l -58,0 z m 74,24 c 0,1.108 -0.892,2 -2,2 l -4,0 0,1 4,0 c 1.108,0 2,-0.892 2,-2 l 0,-1 z M 6,64 6,65 c 0,3.327333 2.672667,6 6,6 l 66,0 c 3.327333,0 6,-2.672667 6,-6 l 0,-1 c 0,3.327333 -2.672667,6 -6,6 L 12,70 C 8.672667,70 6,67.327333 6,64 z"
       inkscape:connector-curvature="0"
       id="path3774"
       style="opacity:0.15;fill:#000000;fill-opacity:1;stroke:none" />
    <path
       d="M 20,47 48,37 48,47 70,47 40,57 40,47 20,47 z"
       inkscape:connector-curvature="0"
       id="path2856"
       style="fill:url(#linearGradient4235);fill-opacity:1;stroke:none" />
    <path
       d="M 48,37 20,47 22.8125,47 48,38 48,37 z m 0,10 0,1 19,0 3,-1 -22,0 z"
       inkscape:connector-curvature="0"
       id="path3638"
       style="opacity:0.75;fill:#ffffff;fill-opacity:1;stroke:none" />
    <path
       d="M 22.8125,46 20,47 40,47 40,46 22.8125,46 z M 67,47 l -27,9 0,1 30,-10 -3,0 z"
       inkscape:connector-curvature="0"
       id="path3647"
       style="opacity:0.15;fill:#000000;fill-opacity:1;stroke:none" />
  </g>
</svg>
