<?xml version="1.0" encoding="UTF-8" standalone="no"?>
<!-- Created with Inkscape (http://www.inkscape.org/) -->
<svg id="svg2" xmlns:rdf="http://www.w3.org/1999/02/22-rdf-syntax-ns#" xmlns="http://www.w3.org/2000/svg" height="96" width="96" version="1.1" xmlns:cc="http://creativecommons.org/ns#" xmlns:xlink="http://www.w3.org/1999/xlink" xmlns:dc="http://purl.org/dc/elements/1.1/">
 <defs id="defs4">
  <filter id="filter6221" color-interpolation-filters="sRGB">
   <feGaussianBlur id="feGaussianBlur6223" stdDeviation="1.2"/>
  </filter>
  <linearGradient id="linearGradient5482" x1="48" gradientUnits="userSpaceOnUse" y1="90" gradientTransform="matrix(.95238 0 0 .95238 2.2857 958.65)" x2="47.999" y2="-59.097">
   <stop id="stop4951" style="stop-color:#ed6800" offset="0"/>
   <stop id="stop4953" style="stop-color:#fd9400" offset="1"/>
  </linearGradient>
  <linearGradient id="linearGradient5514" x1="79.465" gradientUnits="userSpaceOnUse" y1="52.146" gradientTransform="matrix(.51719 0 0 .51719 14.955 969.98)" x2="79.465" y2="94.975">
   <stop id="stop4951-8" style="stop-color:#ed6800" offset="0"/>
   <stop id="stop4953-4" style="stop-color:#fd9400" offset="1"/>
  </linearGradient>
  <linearGradient id="linearGradient5510" x1="31.188" gradientUnits="userSpaceOnUse" y1="18.875" gradientTransform="matrix(.90111 0 0 .91878 27.492 981.73)" x2="29.875" y2="34.375">
   <stop id="stop39157" style="stop-color:#fff" offset="0"/>
   <stop id="stop39159" style="stop-color:#dadada" offset="1"/>
  </linearGradient>
  <linearGradient id="linearGradient5506" x1="185.99" gradientUnits="userSpaceOnUse" y1="193.33" gradientTransform="matrix(.074786 0 0 .074628 45.737 1007.1)" x2="190.46" y2="-458.06">
   <stop id="stop3566" style="stop-color:#fff" offset="0"/>
   <stop id="stop3568" style="stop-color:#fff;stop-opacity:0" offset="1"/>
  </linearGradient>
  <radialGradient id="radialGradient5502" gradientUnits="userSpaceOnUse" cy="67.409" cx="78.564" gradientTransform="matrix(.51719 0 0 .47082 14.955 973.11)" r="11.648">
   <stop id="stop4943" style="stop-color:#3f78c2" offset="0"/>
   <stop id="stop4945" style="stop-color:#2d578e" offset="1"/>
  </radialGradient>
  <linearGradient id="linearGradient5499" x1="75.446" gradientUnits="userSpaceOnUse" y1="27.258" gradientTransform="matrix(.51719 0 0 .51719 14.955 969.98)" x2="75.446" y2="87.236">
   <stop id="stop39173" style="stop-color:#fff" offset="0"/>
   <stop id="stop39175" style="stop-color:#fff;stop-opacity:0" offset="1"/>
  </linearGradient>
  <linearGradient id="linearGradient5486" y2="138.66" gradientUnits="userSpaceOnUse" y1="20.221" x2="48" x1="48">
   <stop id="stop3739-17" style="stop-color:#fff" offset="0"/>
   <stop id="stop3741-85" style="stop-color:#fff;stop-opacity:0" offset="1"/>
  </linearGradient>
  <clipPath id="clipPath3613-7">
   <rect id="rect3615-4" style="fill:#fff" rx="6" ry="6" height="84" width="84" y="6" x="6"/>
  </clipPath>
  <filter id="filter3794-18" width="1.384" y="-.192" x="-.192" height="1.384" color-interpolation-filters="sRGB">
   <feGaussianBlur id="feGaussianBlur3796-5" stdDeviation="5.28"/>
  </filter>
 </defs>
 <metadata id="metadata7">
  <rdf:RDF>
   <cc:Work rdf:about="">
    <dc:format>image/svg+xml</dc:format>
    <dc:type rdf:resource="http://purl.org/dc/dcmitype/StillImage"/>
    <dc:title/>
   </cc:Work>
  </rdf:RDF>
 </metadata>
 <g id="layer1" transform="translate(0 -956.36)">
  <g id="g5521" transform="translate(-1.0754e-8 -.000010136)">
   <rect id="rect10662" ry="5" style="filter:url(#filter6221)" rx="5" transform="translate(-1.748e-7 -.0000052344)" height="80" width="80" y="964.54" x="8"/>
   <rect id="rect2419" style="fill:url(#linearGradient5482)" rx="5" ry="5" height="80" width="80" y="964.36" x="8"/>
   <path id="path3709" style="fill-rule:evenodd;block-progression:tb;text-indent:0;color:#000000;text-transform:none;fill:#ac4d00" d="m49.342 982.05c-0.82585 0-1.6558 0.2497-2.3515 0.7363-0.66103 0.4606-1.0926 1.1145-1.1876 1.829-0.005 0.041-0.0206 0.077-0.0237 0.1187-0.0115 0.1518-0.00076 0.303 0.0237 0.4513v1.7339c-0.004 0.032-0.0213 0.062-0.0237 0.095-0.0115 0.1513 0.003 0.3027 0.0237 0.4513 0.0833 0.6011 0.41038 1.1669 0.92633 1.5914v0.024c0.56459 0.4448 1.1415 0.9011 1.7102 1.3539h-14.228c-1.214 0-2.2545 0.2706-3.0403 0.8313-0.78575 0.5607-1.282 1.3939-1.4489 2.3277-0.0216 0.1207-0.0417 0.2344-0.0475 0.3563-0.00076 0.016 0.00049 0.031 0 0.047v2.2327c-0.007 0.1156-0.007 0.2168 0 0.3326v0.2375h0.0237c0.20093 1.5368 1.5394 2.969 3.4916 2.969 1.4449 0 2.897 0.0001 4.3466 0l-12.47 9.2159c0.002-0.0008-0.0247 0.012-0.0712 0.047-0.95124 0.7279-1.5978 1.7016-1.8527 2.7315-0.0596 0.2409-0.0825 0.4908-0.095 0.7363h-0.0237v2.3277c-0.005 0.1318-0.008 0.2726 0 0.4038v0.1188h0.0237c0.0591 0.6126 0.26927 1.2039 0.66506 1.7101 1.3743 1.7568 4.1102 1.6916 6.033 0.1426l8.147-6.6744c0.0132 0.7787 0.21942 1.9957 0.5463 3.0402 0.67118 2.1354 1.8208 4.1084 3.3966 5.8431 1.6157 1.7791 3.6028 3.2163 5.8905 4.2279 2.407 1.0628 4.999 1.5957 7.6957 1.5914 2.6966-0.01 5.3139-0.5447 7.7195-1.6152 2.2856-1.021 4.2759-2.4678 5.8905-4.2516 1.5716-1.7409 2.7019-3.731 3.3728-5.8668 0.33979-1.0813 0.55311-2.1754 0.6413-3.2778 0.0593-0.7575 0.0548-1.5223 0-2.2802 0.002-0.032-0.002-0.063 0-0.095-0.002-0.024 0.002-0.047 0-0.071 0.0697-1.0289 0.0515-2.0603-0.095-3.0878-0.3001-2.1144-1.0372-4.1096-2.1614-5.9144-0.88111-1.4154-2.0224-2.657-3.3016-3.7528l0.0475-0.047-0.68881-0.5226-15.13-11.591c0.00076 0.0007-0.0194-0.02-0.0237-0.024-0.007-0.01-0.0271-0.01-0.0475-0.024-0.009-0.01-0.0151-0.017-0.0237-0.024-0.65714-0.4923-1.4651-0.7376-2.2802-0.7363z"/>
   <path id="path2482" style="fill-rule:evenodd;stroke:#ce5c00;stroke-width:1.5201;fill:url(#linearGradient5514)" d="m38.649 1008.2c0.0107 0.6312 0.21548 1.8583 0.5167 2.8209 0.63783 2.0292 1.7184 3.91 3.2235 5.5668 1.5437 1.6998 3.4422 3.0679 5.6366 4.0382 2.309 1.0195 4.809 1.5404 7.4032 1.5363 2.5942-0.01 5.094-0.5349 7.402-1.5618 2.1935-0.9798 4.092-2.3513 5.6346-4.0554 1.5017-1.6633 2.5802-3.5472 3.218-5.5776 0.32274-1.0269 0.52306-2.0677 0.60677-3.114 0.0804-1.0279 0.0461-2.0613-0.10072-3.0904-0.28513-2.0089-0.98301-3.8927-2.0538-5.6118-0.98218-1.5778-2.2459-2.9599-3.7479-4.1227h0.002l-15.166-11.623c-0.0129-0.011-0.0247-0.021-0.0387-0.031-0.99696-0.7616-2.6704-0.7595-3.7638 0.01-1.1085 0.7724-1.1974 1.9802-0.21445 2.7889 2.0836 1.6414 4.159 3.3578 6.2541 4.999l-19.25-0.013c-2.1877 0-3.4748 1.0374-3.7458 2.554-0.23918 1.3384 0.82028 2.9967 2.72 2.9967 3.2426 0 6.517-0.01 9.7712-0.014l-17.44 12.875c-0.0225 0.017-0.045 0.032-0.0676 0.049-1.6423 1.2568-2.1751 3.3482-1.1406 4.6714 1.0527 1.3457 3.2878 1.3468 4.9515 0.01l9.5172-7.7728s-0.13722 1.0505-0.12759 1.6806z"/>
   <path id="path39153" style="fill:url(#linearGradient5510)" d="m66.015 1005.4a10.419 9.3027 0 0 1 -20.838 0 10.419 9.3027 0 1 1 20.838 0z"/>
   <path id="path3562" style="opacity:.48571;stroke:url(#linearGradient5506);stroke-width:1.1401;fill:none" d="m49.341 984.08c-0.44403 0.0006-0.89783 0.1376-1.2012 0.3498-0.00076 0.0008-0.002 0-0.002 0-0.30731 0.2141-0.36944 0.4028-0.3786 0.5037-0.009 0.101-0.0145 0.1831 0.20801 0.3662 0.0208 0.017 0.0411 0.035 0.0607 0.054 0.13628 0.1106 6.2563 5.0771 6.2563 5.0771 0.40981 0.3328 0.56576 0.8867 0.38956 1.3838-0.17617 0.4971-0.64644 0.4189-1.1748 0.4206-6.1793 0.056-19.313 0.021-19.313 0.021-1.0452 0.0008-2.5744 0.5656-2.6471 1.7356-0.0697 1.1217 0.99729 1.5951 1.731 1.5951l9.6848-0.019c0.53562-0.0007 1.0121 0.2424 1.185 0.7483 0.17286 0.5059 0.004 0.5818-0.42078 0.9078l-17.439 13.358c-0.002 0-0.003 0-0.005 0.01-0.0702 0.053-0.093 0.068-0.0678 0.049-0.60725 0.4647-0.98281 1.0734-1.1171 1.6161-0.1343 0.5429-0.0511 0.9659 0.20567 1.2943 0.52517 0.6714 1.9406 0.8013 3.1784-0.1958l9.5118-7.7683c0.39698-0.3237 0.95172-0.3728 1.3996-0.1239 0.44786 0.2489 0.69809 0.7454 0.63132 1.2526 0 0-0.12338 1.0726-0.11685 1.4996 0.21096 2.8854 1.5884 5.3791 3.4168 7.5677 3.1562 3.4725 7.5121 4.9866 12.111 5.1657 4.6101-0.048 8.9778-1.8195 12.111-5.2076 5.7239-6.989 4.3231-14.626-1.9164-19.693-4.9314-4.0043-10.105-7.7499-15.158-11.623-0.005 0-0.009-0.01-0.0141-0.012-0.008-0.01-0.0156-0.011-0.0233-0.016-0.23091-0.1764-0.64121-0.3154-1.0844-0.3148z"/>
   <path id="path2478" style="fill:url(#radialGradient5502);fill-rule:evenodd" d="m49.571 1004.6c0.0817-1.4897 0.81082-2.8047 1.9069-3.7356 1.0787-0.91521 2.5271-1.4739 4.1094-1.4739 1.5812 0 3.0297 0.5587 4.1081 1.4739 1.0973 0.9309 1.8256 2.2449 1.9082 3.7346 0.0846 1.5331-0.52951 2.9567-1.6059 4.0111-1.0973 1.074-2.6619 1.7484-4.4104 1.7484-1.7495 0-3.3141-0.6744-4.4114-1.7484-1.0775-1.0544-1.6896-2.478-1.6049-4.0101z"/>
   <path id="path39166" style="opacity:.52;fill:url(#linearGradient5499);fill-rule:evenodd" d="m49.358 984.08c-0.44402 0.0006-0.93042 0.1298-1.2338 0.342-0.30732 0.2141-0.36786 0.4121-0.37701 0.513-0.009 0.101-0.0169 0.1932 0.20564 0.3762 0.0208 0.017 0.0489 0.016 0.0686 0.034 0.13628 0.1105 6.272 5.0959 6.272 5.0959 0.40981 0.3328 0.55319 0.871 0.37701 1.3681-0.17618 0.497-0.63694 0.4087-1.1653 0.4104-6.1793 0.056-19.33 0.034-19.33 0.034-1.0452 0.0007-2.5664 0.5743-2.6391 1.7442-0.0697 1.1218 1.0143 1.5733 1.7479 1.5733h9.6651c0.53562-0.0007 1.0267 0.2465 1.1996 0.7524 0.17286 0.5059-0.0211 0.5632-0.44556 0.8892l-17.411 13.373h-0.0343c-0.0702 0.053-0.0594 0.053-0.0343 0.034-0.60725 0.4647-0.99672 1.0988-1.131 1.6416-0.1343 0.5428-0.0512 0.937 0.20564 1.2654 0.52516 0.6714 1.9496 0.8262 3.1874-0.1709l9.4938-7.7637c0.39697-0.3237 0.95736-0.3857 1.4052-0.1368 0.44785 0.2489 0.68369 0.7582 0.61692 1.2654 0 0-0.10934 1.0437-0.10282 1.4707 0.10417 1.4247 0.49531 2.76 1.0847 4.0102 2.8772 5.0283 10.523-13.499 28.528-11.706-0.92988-1.628-2.2332-3.1147-3.8729-4.4461-4.9314-4.0043-10.13-7.755-15.183-11.628-0.008-0.01-0.0265-0.029-0.0343-0.034-0.23092-0.1764-0.6193-0.3084-1.0625-0.3078z"/>
   <g id="layer5-9" transform="translate(-94 956.36)">
    <rect id="rect3171" style="opacity:.1;filter:url(#filter3794-18);stroke:#fff;stroke-linecap:round;stroke-width:.5;fill:url(#linearGradient5486)" clip-path="url(#clipPath3613-7)" rx="12" ry="12" transform="translate(94)" width="66" y="15" x="15" height="66"/>
   </g>
  </g>
 </g>
</svg>
