<?xml version="1.0" encoding="UTF-8" standalone="no"?>
<!-- Created with Inkscape (http://www.inkscape.org/) -->
<svg id="svg2" xmlns:rdf="http://www.w3.org/1999/02/22-rdf-syntax-ns#" xmlns="http://www.w3.org/2000/svg" height="96" width="96" version="1.1" xmlns:cc="http://creativecommons.org/ns#" xmlns:xlink="http://www.w3.org/1999/xlink" xmlns:dc="http://purl.org/dc/elements/1.1/">
 <defs id="defs4">
  <filter id="filter6279" color-interpolation-filters="sRGB">
   <feGaussianBlur id="feGaussianBlur6281" stdDeviation="0.8"/>
  </filter>
  <linearGradient id="linearGradient5801" x1="48" gradientUnits="userSpaceOnUse" y1="1052.4" gradientTransform="translate(0 -.0000078516)" x2="48" y2="902.36">
   <stop id="stop3189-0" style="stop-color:#183288" offset="0"/>
   <stop id="stop3191-5" style="stop-color:#5072e1" offset="1"/>
  </linearGradient>
  <radialGradient id="radialGradient3113" gradientUnits="userSpaceOnUse" cy="66.45" cx="48" gradientTransform="matrix(1.3301 -7.4935e-8 9.5652e-8 1.6979 -15.846 -37.549)" r="23">
   <stop id="stop3679" style="stop-color:#2782e9" offset="0"/>
   <stop id="stop3681" style="stop-color:#193693" offset="1"/>
  </radialGradient>
  <linearGradient id="linearGradient3109" x1="48.8" gradientUnits="userSpaceOnUse" y1="16" gradientTransform="matrix(-.67083 0 0 -.70833 90.936 93.333)" x2="59.752" y2="56.875">
   <stop id="stop3376-2" offset="0"/>
   <stop id="stop3378-5" style="stop-opacity:0" offset="1"/>
  </linearGradient>
  <linearGradient id="linearGradient3103" x1="62.339" xlink:href="#linearGradient3687" gradientUnits="userSpaceOnUse" x2="62.339" y1="48" y2="-6.5482"/>
  <linearGradient id="linearGradient3687">
   <stop id="stop3689" style="stop-color:#fff" offset="0"/>
   <stop id="stop3691" style="stop-color:#fff;stop-opacity:0" offset="1"/>
  </linearGradient>
  <linearGradient id="linearGradient3100-3" x1="35.103" xlink:href="#linearGradient3687" gradientUnits="userSpaceOnUse" y1="6.854" gradientTransform="matrix(1.0571 0 0 1 11.126 9.5098)" x2="35.103" y2="34.886"/>
  <linearGradient id="linearGradient3208" y2="138.66" gradientUnits="userSpaceOnUse" x2="48" y1="20.221" x1="48">
   <stop id="stop3739-01" style="stop-color:#fff" offset="0"/>
   <stop id="stop3741-20" style="stop-color:#fff;stop-opacity:0" offset="1"/>
  </linearGradient>
  <clipPath id="clipPath3613-06">
   <rect id="rect3615-39" style="fill:#fff" rx="6" ry="6" height="84" width="84" y="6" x="6"/>
  </clipPath>
  <filter id="filter3794-08" width="1.384" y="-.192" x="-.192" height="1.384" color-interpolation-filters="sRGB">
   <feGaussianBlur id="feGaussianBlur3796-38" stdDeviation="5.28"/>
  </filter>
 </defs>
 <metadata id="metadata7">
  <rdf:RDF>
   <cc:Work rdf:about="">
    <dc:format>image/svg+xml</dc:format>
    <dc:type rdf:resource="http://purl.org/dc/dcmitype/StillImage"/>
    <dc:title/>
   </cc:Work>
  </rdf:RDF>
 </metadata>
 <g id="layer1" transform="translate(0 -956.36)">
  <g id="g6500" transform="translate(0,-1e-5)">
   <rect id="rect9283" ry="5" style="filter:url(#filter6279)" rx="5" transform="translate(0 -.0000078516)" height="80" width="80" y="964.36" x="8"/>
   <rect id="rect9285" style="fill:url(#linearGradient5801)" rx="5" ry="5" height="80" width="80" y="964.36" x="8"/>
   <g id="g3118" transform="matrix(.75810 0 0 .75810 11.782 967.18)">
    <path id="path3732" style="opacity:.1" d="m48 12.938c-6.6157 0-13.2 1.2955-17.875 6.75-4.669 5.4475-7.1875 14.498-7.1875 29.312 0 14.815 2.5185 23.865 7.1875 29.312 4.675 5.4545 11.259 6.75 17.875 6.75 6.6157 0 13.2-1.2955 17.875-6.75 4.668-5.447 7.186-14.497 7.186-29.312s-2.518-23.865-7.187-29.312c-4.675-5.455-11.259-6.75-17.875-6.75z"/>
    <path id="path3728" style="opacity:.2" d="m48 14.062c-6.4695 0-12.606 1.2482-17 6.375-4.3941 5.1268-6.9375 13.879-6.9375 28.562 0 14.684 2.5434 23.436 6.9375 28.562 4.3941 5.1268 10.53 6.375 17 6.375 6.4695 0 12.606-1.2482 17-6.375 4.394-5.125 6.938-13.877 6.938-28.561s-2.544-23.436-6.938-28.562c-4.394-5.127-10.53-6.376-17-6.376z"/>
    <path id="path2952" style="opacity:.4" d="m71 49c0 29.143-10.304 34-23 34s-23-4.857-23-34 10.304-34 23-34 23 4.8571 23 34z"/>
    <path id="path2902" style="fill:url(#radialGradient3113)" d="m71 48c0 29.143-10.304 34-23 34s-23-4.857-23-34 10.304-34 23-34 23 4.8571 23 34z"/>
    <path id="path3705" style="opacity:.87097;fill:#103876" d="m48 14c-12.696 0-23 4.857-23 34s10.304 34 23 34 23-4.857 23-34-10.304-34-23-34zm0 1.4688c6.159 0 11.321 1.1246 15.125 5.5625 3.8037 4.4379 6.4062 12.572 6.4062 26.969s-2.6026 22.531-6.4062 26.969c-3.8037 4.4379-8.966 5.5625-15.125 5.5625s-11.321-1.1246-15.125-5.5625c-3.804-4.44-6.406-12.574-6.406-26.971s2.6026-22.531 6.4062-26.969c3.8037-4.4379 8.966-5.5625 15.125-5.5625z"/>
    <path id="path2908" style="opacity:.2;fill:url(#linearGradient3109)" d="m48.003 82c12.696 0 22.997-4.857 22.997-34 0-11.839-1.7-19.666-4.57-24.792 2.0473 5.0512 3.2284 12.111 3.2284 21.958 0 29.143-10.301 34-22.997 34-7.5383 0-14.232-1.7169-18.427-9.2083 4.012 9.898 11.363 12.042 19.769 12.042z"/>
    <path id="path3740-4" style="fill:url(#linearGradient3103);fill-rule:evenodd" d="m46.139 21v21.6l-9.121-9.121-3.2672 3.3126 11.163 11.163-11.254 11.254 3.3126 3.2672 9.1664-9.1664v21.691l16.2-16.201-10.981-10.982 10.936-10.89-16.155-15.928zm4.2202 10.346 5.5815 5.6723-5.5815 5.5815v-11.254zm0 21.555 5.5815 5.7176-5.5815 5.5815v-11.299z"/>
    <path id="path3695" style="opacity:.9;fill:url(#linearGradient3100-3)" d="m66.923 34.042a18.688 17.678 0 1 1 -37.376 0 18.688 17.678 0 1 1 37.376 0z"/>
    <path id="path3714" style="opacity:.25;fill:#fff" d="m27.5 47c-0.003 0.33658 0 0.65605 0 1 0 14.276 2.6008 22.164 6.1562 26.312 3.556 4.149 8.315 5.188 14.344 5.188 6.028 0 10.788-1.039 14.344-5.188 3.555-4.148 6.156-12.036 6.156-26.312 0-0.34395 0.003-0.66342 0-1-0.121 13.633-2.686 21.264-6.156 25.312-3.556 4.149-8.316 5.188-14.344 5.188-6.029 0-10.788-1.039-14.344-5.188-3.47-4.048-6.035-11.679-6.156-25.312z"/>
    <path id="path2904" style="opacity:0" d="m48 14c-12.696 0-22.997 4.8571-22.997 34 0 11.839 1.7 19.666 4.5701 24.792-2.0473-5.0512-3.2284-12.111-3.2284-21.958 0-29.143 10.301-34 22.997-34 7.5382 0 14.232 1.7169 18.427 9.2083-4.012-9.898-11.363-12.042-19.769-12.042z"/>
   </g>
   <g id="layer5" transform="translate(0 956.36)">
    <rect id="rect3171" style="opacity:.1;filter:url(#filter3794-08);stroke:#fff;stroke-linecap:round;stroke-width:.5;fill:url(#linearGradient3208)" clip-path="url(#clipPath3613-06)" rx="12" ry="12" height="66" width="66" y="15" x="15"/>
   </g>
  </g>
 </g>
</svg>
