<?xml version="1.0" encoding="UTF-8" standalone="no"?>
<!-- Created with Inkscape (http://www.inkscape.org/) -->
<svg id="svg2" xmlns:rdf="http://www.w3.org/1999/02/22-rdf-syntax-ns#" xmlns="http://www.w3.org/2000/svg" height="96" width="96" version="1.1" xmlns:cc="http://creativecommons.org/ns#" xmlns:xlink="http://www.w3.org/1999/xlink" xmlns:dc="http://purl.org/dc/elements/1.1/">
 <defs id="defs4">
  <filter id="filter6279" color-interpolation-filters="sRGB">
   <feGaussianBlur id="feGaussianBlur6281" stdDeviation="0.8"/>
  </filter>
  <linearGradient id="linearGradient5801" x1="48" gradientUnits="userSpaceOnUse" y1="1052.4" gradientTransform="translate(0 -.0000078516)" x2="48" y2="902.36">
   <stop id="stop3702-69" style="stop-color:#e70000" offset="0"/>
   <stop id="stop3704-872" style="stop-color:#f22" offset="1"/>
  </linearGradient>
  <linearGradient id="linearGradient3178" y2="138.66" gradientUnits="userSpaceOnUse" x2="48" y1="20.221" x1="48">
   <stop id="stop3739-31" style="stop-color:#fff" offset="0"/>
   <stop id="stop3741-38" style="stop-color:#fff;stop-opacity:0" offset="1"/>
  </linearGradient>
  <clipPath id="clipPath3613-7">
   <rect id="rect3615-9" style="fill:#fff" rx="6" ry="6" height="84" width="84" y="6" x="6"/>
  </clipPath>
  <filter id="filter3794-38" width="1.384" y="-.192" x="-.192" height="1.384" color-interpolation-filters="sRGB">
   <feGaussianBlur id="feGaussianBlur3796-8" stdDeviation="5.28"/>
  </filter>
 </defs>
 <metadata id="metadata7">
  <rdf:RDF>
   <cc:Work rdf:about="">
    <dc:format>image/svg+xml</dc:format>
    <dc:type rdf:resource="http://purl.org/dc/dcmitype/StillImage"/>
    <dc:title/>
   </cc:Work>
  </rdf:RDF>
 </metadata>
 <g id="layer1" transform="translate(0 -956.36)">
  <g id="g6482" transform="translate(0,-1e-5)">
   <rect id="rect9283" ry="5" style="filter:url(#filter6279)" rx="5" transform="translate(0 -.0000078516)" height="80" width="80" y="964.36" x="8"/>
   <rect id="rect9285" style="fill:url(#linearGradient5801)" rx="5" ry="5" height="80" width="80" y="964.36" x="8"/>
   <path id="rect3868" style="color:#000000;fill:#fff" d="m43.418 992.09c-0.58653 0-1.1637 0.16487-1.6731 0.50194-0.17938 0.11654-0.35136 0.23183-0.50193 0.38241l-18.332 18.357c-1.1985 1.1986-1.1985 3.1276 0 4.3263 1.1985 1.1984 3.1277 1.1984 4.3261 0l13.122-13.098v10.947c0 1.6949 1.3645 3.0594 3.0594 3.0594s3.0594-1.3645 3.0594-3.0594v-18.357c0-0.21272-0.02736-0.41244-0.07171-0.62146-0.03705-0.18194-0.07579-0.35736-0.14341-0.52583-0.14981-0.36817-0.36962-0.72814-0.66924-1.0278-0.28626-0.28626-0.63019-0.49583-0.97996-0.64533-0.18313-0.0772-0.37412-0.12669-0.57363-0.16732-0.20904-0.0443-0.40872-0.0716-0.62144-0.0716zm7.6484 0c-1.6949 0-3.0594 1.3645-3.0594 3.0594s1.3645 3.0594 3.0594 3.0594h3.0594v15.297c0 1.6949 1.3645 3.0594 3.0594 3.0594s3.0594-1.3645 3.0594-3.0594v-15.297h3.0594c1.6949 0 3.0594-1.3645 3.0594-3.0594s-1.3645-3.0594-3.0594-3.0594h-12.238zm19.886 0c-1.6949 0-3.0594 1.3645-3.0594 3.0594v18.357c0 1.6949 1.3645 3.0594 3.0594 3.0594s3.0594-1.3645 3.0594-3.0594v-18.357c0-1.6949-1.3645-3.0594-3.0594-3.0594zm0 0.76484c1.2672 0 2.2945 1.0273 2.2945 2.2946 0 1.2672-1.0273 2.2945-2.2945 2.2945s-2.2945-1.0273-2.2945-2.2945 1.0273-2.2946 2.2945-2.2946zm-33.653 14.532c-1.2672 0-2.2945 1.0273-2.2945 2.2948 0 1.267 1.0273 2.2945 2.2945 2.2945s2.2945-1.0275 2.2945-2.2945c0-1.2675-1.0273-2.2948-2.2945-2.2948z"/>
   <g id="layer5" transform="translate(0 956.36)">
    <rect id="rect3171" style="opacity:.1;filter:url(#filter3794-38);stroke:#fff;stroke-linecap:round;stroke-width:.5;fill:url(#linearGradient3178)" clip-path="url(#clipPath3613-7)" rx="12" ry="12" height="66" width="66" y="15" x="15"/>
   </g>
  </g>
 </g>
</svg>
