<?xml version="1.0" encoding="UTF-8" standalone="no"?>
<!-- Created with Inkscape (http://www.inkscape.org/) -->
<svg id="svg2" xmlns:rdf="http://www.w3.org/1999/02/22-rdf-syntax-ns#" xmlns="http://www.w3.org/2000/svg" height="96" width="96" version="1.1" xmlns:cc="http://creativecommons.org/ns#" xmlns:xlink="http://www.w3.org/1999/xlink" xmlns:dc="http://purl.org/dc/elements/1.1/">
 <defs id="defs4">
  <filter id="filter6279" color-interpolation-filters="sRGB">
   <feGaussianBlur id="feGaussianBlur6281" stdDeviation="0.8"/>
  </filter>
  <linearGradient id="linearGradient5801" x1="48" gradientUnits="userSpaceOnUse" y1="1052.4" gradientTransform="translate(0 -2008.7)" x2="48" y2="902.36">
   <stop id="stop3177" style="stop-color:#4490e6" offset="0"/>
   <stop id="stop3179-5" style="stop-color:#103d8f" offset="1"/>
  </linearGradient>
 </defs>
 <metadata id="metadata7">
  <rdf:RDF>
   <cc:Work rdf:about="">
    <dc:format>image/svg+xml</dc:format>
    <dc:type rdf:resource="http://purl.org/dc/dcmitype/StillImage"/>
    <dc:title/>
   </cc:Work>
  </rdf:RDF>
 </metadata>
 <g id="layer1" transform="translate(0 -956.36)">
  <g id="g6444" transform="translate(2.861e-8 -.0000097370)">
   <rect id="rect9283" ry="5" style="filter:url(#filter6279)" rx="5" transform="translate(0 -.0000078516)" height="80" width="80" y="964.36" x="8"/>
   <rect id="rect9285" style="fill:url(#linearGradient5801)" rx="5" ry="5" transform="scale(1,-1)" width="80" y="-1044.4" x="8" height="80"/>
   <path id="path3947" style="opacity:.25;enable-background:new;fill:#4ae5ff" d="m60.625 989.92a0.89829 0.89829 0 0 0 -0.53125 0.28125l-16.344 16.3-7.844-7.83a0.89829 0.89829 0 0 0 -1.25 0l-5.2812 5.3125a0.89829 0.89829 0 0 0 0 1.25l13.75 13.75a0.89829 0.89829 0 0 0 1.25 0l22.25-22.25a0.89829 0.89829 0 0 0 0 -1.25l-5.2812-5.2812a0.89829 0.89829 0 0 0 -0.719 -0.3z"/>
   <path id="path3190" style="enable-background:new;fill:#fff" d="m35.294 999.3 8.471 8.5 16.941-16.97 5.294 5.3-22.235 22.27-13.765-13.8l5.2941-5.2941z"/>
  </g>
 </g>
</svg>
