<?xml version="1.0" encoding="UTF-8" standalone="no"?>
<!-- Created with Inkscape (http://www.inkscape.org/) -->

<svg
   xmlns:dc="http://purl.org/dc/elements/1.1/"
   xmlns:cc="http://creativecommons.org/ns#"
   xmlns:rdf="http://www.w3.org/1999/02/22-rdf-syntax-ns#"
   xmlns:svg="http://www.w3.org/2000/svg"
   xmlns="http://www.w3.org/2000/svg"
   xmlns:xlink="http://www.w3.org/1999/xlink"
   xmlns:sodipodi="http://sodipodi.sourceforge.net/DTD/sodipodi-0.dtd"
   xmlns:inkscape="http://www.inkscape.org/namespaces/inkscape"
   width="96"
   height="96"
   id="svg2"
   version="1.1"
   inkscape:version="0.48.1 r9760"
   sodipodi:docname="config-users.svg">
  <defs
     id="defs4">
    <filter
       color-interpolation-filters="sRGB"
       inkscape:collect="always"
       id="filter6279">
      <feGaussianBlur
         inkscape:collect="always"
         stdDeviation="0.8"
         id="feGaussianBlur6281" />
    </filter>
    <linearGradient
       inkscape:collect="always"
       xlink:href="#linearGradient3700-43"
       id="linearGradient5801"
       gradientUnits="userSpaceOnUse"
       gradientTransform="translate(0,-7.8515622e-6)"
       x1="48"
       y1="1052.3622"
       x2="48"
       y2="902.36218" />
    <linearGradient
       id="linearGradient3700-43">
      <stop
         id="stop3702-33"
         style="stop-color:#da8714;stop-opacity:1"
         offset="0" />
      <stop
         id="stop3704-86"
         style="stop-color:#f4d468;stop-opacity:1"
         offset="1" />
    </linearGradient>
    <clipPath
       id="clipPath3846">
      <path
         d="m 102,6 c -3.324,0 -6,2.676 -6,6 l 0,72 c 0,3.324 2.676,6 6,6 l 72,0 c 3.324,0 6,-2.676 6,-6 l 0,-72 c 0,-3.324 -2.676,-6 -6,-6 l -72,0 z m 36,21 c 4.27575,0 7.7501,3.22498 7.75,7.21875 -0.017,0.50192 -0.053,1.06898 -0.0937,1.65625 0.5842,0.43883 0.63569,1.74219 0.0625,3.09375 -0.20688,0.48783 -0.46974,0.90718 -0.75,1.25 -0.0907,0.424 -0.13328,0.75622 -0.25,1.25 -0.31758,0.95347 -1.58219,2.81614 -2.53125,4.28125 -0.0612,0.9744 -0.0577,1.9482 0.0625,2.9375 1.59781,1.39047 4.55784,2.451439 6.96875,3.46875 0.99952,-0.415702 1.91915,-0.840829 2.5625,-1.375 0.1571,-0.91653 0.1406,-1.7255 0.0625,-2.53125 -0.78289,-1.0445 -1.65985,-2.26031 -1.875,-2.90625 -0.0694,-0.31812 -0.0988,-0.53048 -0.15625,-0.8125 -0.008,-0.0088 -0.0232,-0.02225 -0.0312,-0.03125 -0.24058,-0.27087 -0.48169,-0.61965 -0.65625,-1.03125 -0.45269,-1.06743 -0.3825,-2.10425 0.125,-2.375 -0.0357,-0.42697 -0.0545,-0.81298 -0.0625,-1.15625 0,-2.99532 2.60569,-5.4375 5.8125,-5.4375 3.20682,0 5.8125,2.44217 5.8125,5.4375 -0.0127,0.37644 -0.0632,0.7783 -0.0937,1.21875 0.43815,0.32912 0.49239,1.29882 0.0625,2.3125 -0.15516,0.36587 -0.35231,0.68039 -0.5625,0.9375 -0.068,0.318 -0.1,0.56717 -0.1875,0.9375 -0.23818,0.7151 -1.1632,2.11991 -1.875,3.21875 -0.0459,0.7308 -0.0589,1.47678 0.0312,2.21875 2.22581,1.93697 8.02225,2.96722 8.03125,4.625 L 167,60.46875 c 0,1.01728 -1.51441,1.92514 -3.90625,2.5625 l -0.4375,1.4375 a 0.84317393,0.843822 0 0 1 -0.5,0.53125 c -0.10882,0.04212 -0.1705,0.13205 -0.46875,0.21875 C 160.11641,65.67522 157.68988,66 155,66 c -2.51238,0 -4.74599,-0.278913 -6.3125,-0.6875 l -0.46875,1.65625 a 1.1242319,1.125096 0 0 1 -0.65625,0.71875 c -0.1451,0.05616 -0.25859,0.16571 -0.65625,0.28125 C 144.81146,68.57738 141.58651,69 138,69 c -3.58651,0 -6.78021,-0.42262 -8.875,-1.03125 -0.39766,-0.11554 -0.51115,-0.22505 -0.65625,-0.28125 a 1.1242319,1.125096 0 0 1 -0.6875,-0.75 L 127.375,65.28125 C 125.80443,65.695778 123.53462,66 121,66 118.31012,66 115.91484,65.67522 114.34375,65.21875 114.0455,65.1321 113.98382,65.0421 113.875,65 a 0.84317393,0.843822 0 0 1 -0.53125,-0.5625 L 113,63.0625 c -2.45175,-0.63836 -4,-1.56194 -4,-2.59375 l 0.78125,-5.0625 c -0.009,-1.93697 5.74656,-2.75398 8,-4.625 0.1571,-0.91653 0.1406,-1.7255 0.0625,-2.53125 -0.78289,-1.0445 -1.65985,-2.26031 -1.875,-2.90625 -0.0695,-0.31812 -0.0988,-0.53048 -0.15625,-0.8125 -0.008,-0.0088 -0.0233,-0.02225 -0.0312,-0.03125 -0.24058,-0.27087 -0.48169,-0.61965 -0.65625,-1.03125 -0.45269,-1.06743 -0.3825,-2.10425 0.125,-2.375 -0.0357,-0.42697 -0.0545,-0.81298 -0.0625,-1.15625 0,-2.99532 2.60569,-5.4375 5.8125,-5.4375 3.20682,0 5.8125,2.44217 5.8125,5.4375 -0.0127,0.37644 -0.0631,0.7783 -0.0937,1.21875 0.43815,0.32912 0.49239,1.29882 0.0625,2.3125 -0.15516,0.36587 -0.35231,0.68039 -0.5625,0.9375 -0.068,0.318 -0.1,0.56717 -0.1875,0.9375 -0.23818,0.7151 -1.1632,2.11991 -1.875,3.21875 -0.0459,0.7308 -0.0589,1.47678 0.0312,2.21875 0.56995,0.49599 1.36884,0.938591 2.25,1.34375 2.44969,-1.03953 5.58983,-2.033128 7.28125,-3.4375 0.20939,-1.22203 0.19785,-2.26942 0.0937,-3.34375 -1.04386,-1.39267 -2.24438,-3.01374 -2.53125,-3.875 -0.0926,-0.42416 -0.14215,-0.71772 -0.21875,-1.09375 -0.0107,-0.0118 -0.0205,-0.01925 -0.0312,-0.03125 -0.32077,-0.36116 -0.64226,-0.82619 -0.875,-1.375 -0.60358,-1.42323 -0.52042,-2.82649 0.15625,-3.1875 -0.0476,-0.56929 -0.0521,-1.10481 -0.0625,-1.5625 C 130.25,30.22497 133.72425,27 138,27 z"
         inkscape:connector-curvature="0"
         id="path3849"
         style="fill:url(#linearGradient3851);fill-opacity:1;fill-rule:nonzero;stroke:none" />
    </clipPath>
    <filter
       x="-0.20689654"
       y="-0.2857143"
       width="1.4137931"
       height="1.5714287"
       color-interpolation-filters="sRGB"
       id="filter3842">
      <feGaussianBlur
         id="feGaussianBlur3844"
         stdDeviation="5" />
    </filter>
    <linearGradient
       inkscape:collect="always"
       xlink:href="#linearGradient3853"
       id="linearGradient6500"
       gradientUnits="userSpaceOnUse"
       gradientTransform="translate(0,956.36218)"
       x1="48"
       y1="27"
       x2="48"
       y2="69" />
    <linearGradient
       id="linearGradient3853">
      <stop
         id="stop3855-6"
         style="stop-color:#000000;stop-opacity:1"
         offset="0" />
      <stop
         id="stop3857"
         style="stop-color:#313131;stop-opacity:1"
         offset="1" />
    </linearGradient>
  </defs>
  <sodipodi:namedview
     id="base"
     pagecolor="#ffffff"
     bordercolor="#666666"
     borderopacity="1.0"
     inkscape:pageopacity="0.0"
     inkscape:pageshadow="2"
     inkscape:zoom="3.959798"
     inkscape:cx="28.389459"
     inkscape:cy="57.490015"
     inkscape:document-units="px"
     inkscape:current-layer="layer1"
     showgrid="false"
     inkscape:window-width="1280"
     inkscape:window-height="725"
     inkscape:window-x="0"
     inkscape:window-y="25"
     inkscape:window-maximized="1" />
  <metadata
     id="metadata7">
    <rdf:RDF>
      <cc:Work
         rdf:about="">
        <dc:format>image/svg+xml</dc:format>
        <dc:type
           rdf:resource="http://purl.org/dc/dcmitype/StillImage" />
        <dc:title></dc:title>
      </cc:Work>
    </rdf:RDF>
  </metadata>
  <g
     inkscape:label="Layer 1"
     inkscape:groupmode="layer"
     id="layer1"
     transform="translate(0,-956.36217)">
    <g
       transform="translate(2.861023e-8,-9.737015e-6)"
       id="g6502">
      <rect
         transform="translate(0,-7.8515622e-6)"
         y="964.36218"
         x="8"
         height="80"
         width="80"
         id="rect9283"
         style="fill:#000000;fill-opacity:1;stroke:none;filter:url(#filter6279)"
         rx="5"
         ry="5" />
      <rect
         ry="5"
         rx="5"
         style="fill:url(#linearGradient5801);fill-opacity:1;stroke:none"
         id="rect9285"
         width="80"
         height="80"
         x="8"
         y="964.36218" />
      <g
         transform="matrix(0.87804878,0,0,0.87804878,5.7536585,122.50758)"
         id="g6493">
        <path
           style="fill:#ffeeaa;fill-opacity:1;stroke:none;filter:url(#filter3842)"
           id="path3837"
           clip-path="url(#clipPath3846)"
           transform="translate(-90,956.36218)"
           inkscape:connector-curvature="0"
           d="m 138,27 c -4.27575,0 -7.75,3.22497 -7.75,7.21875 0.0104,0.45769 0.0149,0.99321 0.0625,1.5625 -0.67667,0.36101 -0.75983,1.76427 -0.15625,3.1875 0.23274,0.54881 0.55423,1.01384 0.875,1.375 0.0107,0.012 0.0205,0.01945 0.0312,0.03125 0.0766,0.37603 0.12615,0.66959 0.21875,1.09375 0.28687,0.86126 1.48739,2.48233 2.53125,3.875 0.1041,1.07433 0.11569,2.12172 -0.0937,3.34375 -1.69142,1.404372 -4.83156,2.39797 -7.28125,3.4375 -0.88116,-0.405159 -1.68005,-0.84776 -2.25,-1.34375 -0.0901,-0.74197 -0.0771,-1.48795 -0.0312,-2.21875 0.7118,-1.09884 1.63682,-2.50365 1.875,-3.21875 0.0875,-0.37033 0.11951,-0.6195 0.1875,-0.9375 0.21019,-0.25711 0.40734,-0.57163 0.5625,-0.9375 0.42989,-1.01368 0.37565,-1.98338 -0.0625,-2.3125 0.0306,-0.44045 0.081,-0.84231 0.0937,-1.21875 0,-2.99533 -2.60568,-5.4375 -5.8125,-5.4375 -3.20681,0 -5.8125,2.44218 -5.8125,5.4375 0.008,0.34327 0.0268,0.72928 0.0625,1.15625 -0.5075,0.27075 -0.57769,1.30757 -0.125,2.375 0.17456,0.4116 0.41567,0.76038 0.65625,1.03125 0.008,0.009 0.0232,0.02245 0.0312,0.03125 0.0574,0.28202 0.0868,0.49438 0.15625,0.8125 0.21515,0.64594 1.09211,1.86175 1.875,2.90625 0.0781,0.80575 0.0946,1.61472 -0.0625,2.53125 -2.25344,1.87102 -8.00864,2.68803 -8,4.625 L 109,60.46875 c 0,1.03181 1.54825,1.95539 4,2.59375 l 0.34375,1.375 A 0.84317393,0.843822 0 0 0 113.875,65 c 0.10882,0.0421 0.1705,0.1321 0.46875,0.21875 C 115.91484,65.67522 118.31012,66 121,66 c 2.53462,0 4.80443,-0.304222 6.375,-0.71875 l 0.40625,1.65625 a 1.1242319,1.125096 0 0 0 0.6875,0.75 c 0.1451,0.0562 0.25859,0.16571 0.65625,0.28125 C 131.21979,68.57738 134.41349,69 138,69 c 3.58651,0 6.81146,-0.42262 8.90625,-1.03125 0.39766,-0.11554 0.51115,-0.22509 0.65625,-0.28125 a 1.1242319,1.125096 0 0 0 0.65625,-0.71875 L 148.6875,65.3125 C 150.25401,65.721087 152.48762,66 155,66 c 2.68988,0 5.11641,-0.32478 6.6875,-0.78125 0.29825,-0.0867 0.35993,-0.17663 0.46875,-0.21875 a 0.84317393,0.843822 0 0 0 0.5,-0.53125 l 0.4375,-1.4375 C 165.48559,62.39389 167,61.48603 167,60.46875 l -0.78125,-5.0625 c -0.009,-1.65778 -5.80544,-2.68803 -8.03125,-4.625 -0.0901,-0.74197 -0.0771,-1.48795 -0.0312,-2.21875 0.7118,-1.09884 1.63682,-2.50365 1.875,-3.21875 0.0875,-0.37033 0.11951,-0.6195 0.1875,-0.9375 0.21019,-0.25711 0.40734,-0.57163 0.5625,-0.9375 0.42989,-1.01368 0.37565,-1.98338 -0.0625,-2.3125 0.0306,-0.44045 0.081,-0.84231 0.0937,-1.21875 0,-2.99533 -2.60568,-5.4375 -5.8125,-5.4375 -3.20681,0 -5.8125,2.44218 -5.8125,5.4375 0.008,0.34327 0.0268,0.72928 0.0625,1.15625 -0.5075,0.27075 -0.57769,1.30757 -0.125,2.375 0.17456,0.4116 0.41567,0.76038 0.65625,1.03125 0.008,0.009 0.0232,0.02245 0.0312,0.03125 0.0574,0.28202 0.0868,0.49438 0.15625,0.8125 0.21515,0.64594 1.09211,1.86175 1.875,2.90625 0.0781,0.80575 0.0946,1.61472 -0.0625,2.53125 -0.64335,0.534171 -1.56298,0.959298 -2.5625,1.375 -2.41091,-1.017311 -5.37094,-2.07828 -6.96875,-3.46875 -0.12016,-0.9893 -0.12368,-1.9631 -0.0625,-2.9375 0.94906,-1.46511 2.21367,-3.32778 2.53125,-4.28125 0.11672,-0.49378 0.15935,-0.826 0.25,-1.25 0.28026,-0.34282 0.54312,-0.76217 0.75,-1.25 0.57319,-1.35156 0.5217,-2.65492 -0.0625,-3.09375 0.0408,-0.58727 0.0767,-1.15433 0.0937,-1.65625 C 145.75,30.22498 142.27575,27 138,27 z" />
        <path
           style="fill:url(#linearGradient6500);fill-opacity:1;stroke:none"
           id="path3813"
           inkscape:connector-curvature="0"
           d="m 48,983.36218 c -4.275753,0 -7.75,3.22497 -7.75,7.21875 0.01037,0.45769 0.01495,0.99321 0.0625,1.5625 -0.676671,0.36101 -0.759833,1.76427 -0.15625,3.1875 0.232745,0.54881 0.554225,1.01384 0.875,1.375 0.01069,0.012 0.0205,0.0195 0.03125,0.0312 0.07657,0.37603 0.12615,0.66959 0.21875,1.09375 0.286865,0.86126 1.487392,2.48232 2.53125,3.87502 0.104099,1.0743 0.115692,2.1217 -0.09375,3.3437 -1.691416,1.4044 -4.831561,2.398 -7.28125,3.4375 -0.88116,-0.4051 -1.680049,-0.8477 -2.25,-1.3437 -0.09012,-0.742 -0.07714,-1.488 -0.03125,-2.2188 0.711798,-1.0988 1.636815,-2.5036 1.875,-3.2187 0.08754,-0.3704 0.119513,-0.6195 0.1875,-0.9375 0.210194,-0.2571 0.407337,-0.5717 0.5625,-0.93752 0.429892,-1.01368 0.375647,-1.98338 -0.0625,-2.3125 0.03061,-0.44045 0.08095,-0.84231 0.09375,-1.21875 0,-2.99533 -2.605685,-5.4375 -5.8125,-5.4375 -3.206814,0 -5.8125,2.44218 -5.8125,5.4375 0.0078,0.34327 0.02684,0.72928 0.0625,1.15625 -0.507503,0.27075 -0.577687,1.30757 -0.125,2.375 0.174559,0.41162 0.415669,0.76042 0.65625,1.03122 0.008,0.01 0.02319,0.022 0.03125,0.031 0.05743,0.282 0.08679,0.4944 0.15625,0.8125 0.215149,0.646 1.092106,1.8618 1.875,2.9063 0.07807,0.8057 0.09459,1.6147 -0.0625,2.5312 -2.25344,1.8711 -8.008639,2.6881 -8,4.625 L 19,1016.8309 c 0,1.0318 1.548254,1.9554 4,2.5938 l 0.34375,1.375 a 0.84317393,0.843822 0 0 0 0.53125,0.5625 c 0.108823,0.042 0.170502,0.1321 0.46875,0.2187 1.57109,0.4565 3.966368,0.7813 6.65625,0.7813 2.534617,0 4.804435,-0.3042 6.375,-0.7188 l 0.40625,1.6563 a 1.1242319,1.125096 0 0 0 0.6875,0.75 c 0.145097,0.056 0.258586,0.1657 0.65625,0.2812 2.094786,0.6087 5.28849,1.0313 8.875,1.0313 3.58651,0 6.811464,-0.4226 8.90625,-1.0313 0.397664,-0.1155 0.511152,-0.2251 0.65625,-0.2812 a 1.1242319,1.125096 0 0 0 0.65625,-0.7188 l 0.46875,-1.6562 c 1.56651,0.4086 3.800116,0.6875 6.3125,0.6875 2.689882,0 5.116411,-0.3248 6.6875,-0.7813 0.298248,-0.087 0.359927,-0.1766 0.46875,-0.2187 a 0.84317393,0.843822 0 0 0 0.5,-0.5313 l 0.4375,-1.4375 C 75.485592,1018.7561 77,1017.8482 77,1016.8309 l -0.78125,-5.0625 c -0.0092,-1.6577 -5.805444,-2.688 -8.03125,-4.625 -0.09012,-0.7419 -0.07714,-1.4879 -0.03125,-2.2187 0.711798,-1.0989 1.636815,-2.5037 1.875,-3.2188 0.08754,-0.3703 0.119513,-0.6195 0.1875,-0.9375 0.210194,-0.2571 0.407337,-0.5716 0.5625,-0.93747 0.429892,-1.01368 0.375647,-1.98338 -0.0625,-2.3125 0.03061,-0.44045 0.08095,-0.84231 0.09375,-1.21875 0,-2.99533 -2.605685,-5.4375 -5.8125,-5.4375 -3.206814,0 -5.8125,2.44218 -5.8125,5.4375 0.0078,0.34327 0.02684,0.72928 0.0625,1.15625 -0.507503,0.27075 -0.577687,1.30757 -0.125,2.375 0.174559,0.41157 0.415669,0.76037 0.65625,1.03127 0.008,0.01 0.02319,0.022 0.03125,0.031 0.05743,0.282 0.0868,0.4944 0.15625,0.8125 0.215149,0.6459 1.092106,1.8617 1.875,2.9062 0.07807,0.8058 0.09459,1.6148 -0.0625,2.5313 -0.64335,0.5342 -1.562979,0.9593 -2.5625,1.375 -2.410911,-1.0173 -5.370939,-2.0783 -6.96875,-3.4688 -0.120158,-0.9893 -0.12368,-1.9631 -0.0625,-2.9375 0.949064,-1.4651 2.213671,-3.32775 2.53125,-4.28122 0.11672,-0.49378 0.15935,-0.826 0.25,-1.25 0.280258,-0.34282 0.543117,-0.76217 0.75,-1.25 0.57319,-1.35156 0.521696,-2.65492 -0.0625,-3.09375 0.04082,-0.58727 0.07669,-1.15433 0.09375,-1.65625 0,-3.99377 -3.474247,-7.21875 -7.75,-7.21875 z" />
        <path
           style="opacity:0.2;fill:#000000;fill-opacity:1;stroke:none"
           id="path3868"
           inkscape:connector-curvature="0"
           d="m 48,983.36218 c -4.275753,0 -7.75,3.22497 -7.75,7.21875 0.01037,0.45769 0.01495,0.99321 0.0625,1.5625 -0.676671,0.36101 -0.759833,1.76427 -0.15625,3.1875 0.232745,0.54881 0.554225,1.01384 0.875,1.375 0.01069,0.012 0.0205,0.0195 0.03125,0.0312 0.07657,0.37603 0.12615,0.66959 0.21875,1.09375 0.286865,0.86126 1.487392,2.48232 2.53125,3.87502 0.104099,1.0743 0.115692,2.1217 -0.09375,3.3437 -1.691416,1.4044 -4.831561,2.398 -7.28125,3.4375 -0.88116,-0.4051 -1.680049,-0.8477 -2.25,-1.3437 -0.09012,-0.742 -0.07714,-1.488 -0.03125,-2.2188 0.711798,-1.0988 1.636815,-2.5036 1.875,-3.2187 0.08754,-0.3704 0.119513,-0.6195 0.1875,-0.9375 0.210194,-0.2571 0.407337,-0.5717 0.5625,-0.93752 0.429892,-1.01368 0.375647,-1.98338 -0.0625,-2.3125 0.03061,-0.44045 0.08095,-0.84231 0.09375,-1.21875 0,-2.99533 -2.605685,-5.4375 -5.8125,-5.4375 -3.206814,0 -5.8125,2.44218 -5.8125,5.4375 0.0078,0.34327 0.02684,0.72928 0.0625,1.15625 -0.507503,0.27075 -0.577687,1.30757 -0.125,2.375 0.174559,0.41162 0.415669,0.76042 0.65625,1.03122 0.008,0.01 0.02319,0.022 0.03125,0.031 0.05743,0.282 0.08679,0.4944 0.15625,0.8125 0.215149,0.646 1.092106,1.8618 1.875,2.9063 0.07807,0.8057 0.09459,1.6147 -0.0625,2.5312 -2.25344,1.8711 -8.008639,2.6881 -8,4.625 L 19,1016.8309 c 0,1.0318 1.548254,1.9554 4,2.5938 l 0.34375,1.375 a 0.84317393,0.843822 0 0 0 0.53125,0.5625 c 0.108823,0.042 0.170502,0.1321 0.46875,0.2187 1.57109,0.4565 3.966368,0.7813 6.65625,0.7813 2.534617,0 4.804435,-0.3042 6.375,-0.7188 l 0.40625,1.6563 a 1.1242319,1.125096 0 0 0 0.6875,0.75 c 0.145097,0.056 0.258586,0.1657 0.65625,0.2812 2.094786,0.6087 5.28849,1.0313 8.875,1.0313 3.58651,0 6.811464,-0.4226 8.90625,-1.0313 0.397664,-0.1155 0.511152,-0.2251 0.65625,-0.2812 a 1.1242319,1.125096 0 0 0 0.65625,-0.7188 l 0.46875,-1.6562 c 1.56651,0.4086 3.800116,0.6875 6.3125,0.6875 2.689882,0 5.116411,-0.3248 6.6875,-0.7813 0.298248,-0.087 0.359927,-0.1766 0.46875,-0.2187 a 0.84317393,0.843822 0 0 0 0.5,-0.5313 l 0.4375,-1.4375 C 75.485592,1018.7561 77,1017.8482 77,1016.8309 l -0.78125,-5.0625 c -0.0092,-1.6577 -5.805444,-2.688 -8.03125,-4.625 -0.09012,-0.7419 -0.07714,-1.4879 -0.03125,-2.2187 0.711798,-1.0989 1.636815,-2.5037 1.875,-3.2188 0.08754,-0.3703 0.119513,-0.6195 0.1875,-0.9375 0.210194,-0.2571 0.407337,-0.5716 0.5625,-0.93747 0.429892,-1.01368 0.375647,-1.98338 -0.0625,-2.3125 0.03061,-0.44045 0.08095,-0.84231 0.09375,-1.21875 0,-2.99533 -2.605685,-5.4375 -5.8125,-5.4375 -3.206814,0 -5.8125,2.44218 -5.8125,5.4375 0.0078,0.34327 0.02684,0.72928 0.0625,1.15625 -0.507503,0.27075 -0.577687,1.30757 -0.125,2.375 0.174559,0.41157 0.415669,0.76037 0.65625,1.03127 0.008,0.01 0.02319,0.022 0.03125,0.031 0.05743,0.282 0.0868,0.4944 0.15625,0.8125 0.215149,0.6459 1.092106,1.8617 1.875,2.9062 0.07807,0.8058 0.09459,1.6148 -0.0625,2.5313 -0.64335,0.5342 -1.562979,0.9593 -2.5625,1.375 -2.410911,-1.0173 -5.370939,-2.0783 -6.96875,-3.4688 -0.120158,-0.9893 -0.12368,-1.9631 -0.0625,-2.9375 0.949064,-1.4651 2.213671,-3.32775 2.53125,-4.28122 0.11672,-0.49378 0.15935,-0.826 0.25,-1.25 0.280258,-0.34282 0.543117,-0.76217 0.75,-1.25 0.57319,-1.35156 0.521696,-2.65492 -0.0625,-3.09375 0.04082,-0.58727 0.07669,-1.15433 0.09375,-1.65625 0,-3.99377 -3.474247,-7.21875 -7.75,-7.21875 z m 0,2.03125 c 3.225576,0 5.682436,2.34212 5.71875,5.125 2.73e-4,0.0209 0,0.0416 0,0.0625 -0.01633,0.44567 -0.0551,0.94396 -0.09375,1.5 a 2.0405414,2.0405414 0 0 0 0.46875,1.4375 c 0.0011,0.19191 -0.06921,0.60495 -0.25,1.03125 -0.128438,0.30286 -0.308859,0.55442 -0.46875,0.75 a 2.0405414,2.0405414 0 0 0 -0.40625,0.84375 c -0.0976,0.45651 -0.143079,0.74959 -0.21875,1.09375 -0.05171,0.12849 -0.35138,0.77297 -0.78125,1.46875 -0.447921,0.725 -1.015155,1.56397 -1.5,2.31247 a 2.0405414,2.0405414 0 0 0 -0.3125,0.9688 c -0.06681,1.0641 -0.07641,2.1688 0.0625,3.3125 a 2.0405414,2.0405414 0 0 0 0.6875,1.2812 c 2.151431,1.8723 5.203315,2.8302 7.53125,3.8125 a 2.0405414,2.0405414 0 0 0 1.5625,0 c 1.045212,-0.4347 2.124529,-0.8827 3.09375,-1.6875 a 2.0405414,2.0405414 0 0 0 0.6875,-1.2187 c 0.194884,-1.1371 0.181798,-2.1538 0.09375,-3.0625 a 2.0405414,2.0405414 0 0 0 -0.40625,-1.0313 c -0.38286,-0.5108 -0.787987,-1.0732 -1.09375,-1.5312 -0.283026,-0.424 -0.435494,-0.7696 -0.4375,-0.75 -1.61e-4,0 -0.03376,-0.07 -0.03125,-0.062 -0.03149,-0.1668 -0.04349,-0.3157 -0.09375,-0.5625 a 2.0405414,2.0405414 0 0 0 -0.5,-0.96877 c -0.11257,-0.12674 -0.239856,-0.29746 -0.3125,-0.46875 -0.08164,-0.19251 -0.07985,-0.30006 -0.09375,-0.40625 a 2.0405414,2.0405414 0 0 0 0.375,-1.34375 c -0.03121,-0.37372 -0.05524,-0.70406 -0.0625,-1 -2.26e-4,-0.009 2.08e-4,-0.0221 0,-0.0312 0.01849,-1.79882 1.622957,-3.375 3.78125,-3.375 2.14567,0 3.744562,1.55818 3.78125,3.34375 -4.58e-4,0.0135 6.81e-4,0.0481 0,0.0625 -0.01167,0.24613 -0.06032,0.58143 -0.09375,1.0625 a 2.0405414,2.0405414 0 0 0 0.3125,1.25 c -0.01,0.094 -0.0071,0.23318 -0.09375,0.4375 -0.07672,0.18091 -0.191451,0.32766 -0.28125,0.4375 a 2.0405414,2.0405414 0 0 0 -0.40625,0.84377 c -0.07421,0.3471 -0.107415,0.5526 -0.15625,0.7812 -0.02307,0.045 -0.22692,0.4975 -0.53125,1 -0.323105,0.5336 -0.734291,1.1639 -1.09375,1.7188 a 2.0405414,2.0405414 0 0 0 -0.3125,0.9687 c -0.04982,0.7935 -0.08143,1.666 0.03125,2.5938 a 2.0405414,2.0405414 0 0 0 0.6875,1.2812 c 1.639383,1.4267 3.72675,2.0944 5.40625,2.7813 0.83975,0.3434 1.572555,0.6795 1.9375,0.9062 0.05053,0.031 0.02809,0.01 0.0625,0.031 l 0.625,4.125 c -0.02345,0.016 4.61e-4,0.011 -0.03125,0.031 -0.3911,0.2504 -1.214706,0.5908 -2.28125,0.875 a 2.0405414,2.0405414 0 0 0 -1.40625,1.375 l -0.25,0.8437 c -1.304105,0.3551 -3.471071,0.6875 -5.90625,0.6875 -2.361378,0 -4.484883,-0.2787 -5.8125,-0.625 a 2.0405414,2.0405414 0 0 0 -2.46875,1.4063 l -0.34375,1.25 c -0.0064,0 -0.02218,0 -0.03125,0 -1.799014,0.5227 -4.917523,0.9687 -8.34375,0.9687 -3.426227,0 -6.508265,-0.4445 -8.3125,-0.9687 -0.02239,-0.01 -0.05428,-0.028 -0.0625,-0.031 l -0.28125,-1.1875 a 2.0405414,2.0405414 0 0 0 -2.5,-1.4687 c -1.339728,0.3536 -3.472396,0.6562 -5.84375,0.6562 -2.421945,0 -4.53341,-0.3332 -5.84375,-0.6875 l -0.1875,-0.7187 A 2.0405414,2.0405414 0 0 0 23.5,1017.4559 c -1.095026,-0.2851 -1.90665,-0.6489 -2.3125,-0.9062 -0.0521,-0.033 -0.03076,-0.01 -0.0625,-0.031 l 0.65625,-4.2812 c 0.01634,-0.01 -0.01944,0.023 0.0625,-0.031 0.327774,-0.2162 1.02225,-0.55 1.84375,-0.875 1.643,-0.65 3.735027,-1.2374 5.40625,-2.625 a 2.0405414,2.0405414 0 0 0 0.6875,-1.2188 c 0.194884,-1.137 0.181798,-2.1537 0.09375,-3.0625 a 2.0405414,2.0405414 0 0 0 -0.40625,-1.0312 c -0.38286,-0.5108 -0.787987,-1.0733 -1.09375,-1.5313 -0.283026,-0.4239 -0.435494,-0.7696 -0.4375,-0.75 -1.61e-4,0 -0.03376,-0.07 -0.03125,-0.062 -0.03148,-0.1667 -0.04349,-0.3156 -0.09375,-0.5625 a 2.0405414,2.0405414 0 0 0 -0.5,-0.96872 c -0.11257,-0.12674 -0.239856,-0.29746 -0.3125,-0.46875 -0.08164,-0.19251 -0.07985,-0.30006 -0.09375,-0.40625 a 2.0405414,2.0405414 0 0 0 0.375,-1.34375 c -0.03121,-0.37372 -0.05524,-0.70406 -0.0625,-1 -2.26e-4,-0.009 2.08e-4,-0.0221 0,-0.0312 0.01849,-1.79882 1.622957,-3.375 3.78125,-3.375 2.14567,0 3.744562,1.55818 3.78125,3.34375 -4.58e-4,0.0135 6.81e-4,0.0481 0,0.0625 -0.01167,0.24613 -0.06032,0.58143 -0.09375,1.0625 a 2.0405414,2.0405414 0 0 0 0.3125,1.25 c -0.01,0.094 -0.0071,0.23318 -0.09375,0.4375 -0.07672,0.18091 -0.191451,0.32766 -0.28125,0.4375 a 2.0405414,2.0405414 0 0 0 -0.40625,0.84372 c -0.07421,0.3471 -0.107415,0.5527 -0.15625,0.7813 -0.02307,0.045 -0.22692,0.4975 -0.53125,1 -0.323105,0.5335 -0.734291,1.1638 -1.09375,1.7187 a 2.0405414,2.0405414 0 0 0 -0.3125,0.9688 c -0.04982,0.7934 -0.08143,1.666 0.03125,2.5937 a 2.0405414,2.0405414 0 0 0 0.6875,1.2813 c 0.828753,0.7212 1.781696,1.211 2.75,1.6562 a 2.0405414,2.0405414 0 0 0 1.65625,0.031 c 2.302883,-0.9772 5.498852,-1.8549 7.78125,-3.75 a 2.0405414,2.0405414 0 0 0 0.6875,-1.2187 c 0.24435,-1.4257 0.239974,-2.6885 0.125,-3.875 a 2.0405414,2.0405414 0 0 0 -0.40625,-1.0313 c -0.519205,-0.69267 -1.071226,-1.43098 -1.5,-2.06247 -0.40803,-0.60094 -0.663635,-1.14456 -0.6875,-1.1875 -0.0012,-0.002 -0.03149,-0.0632 -0.03125,-0.0625 -0.05606,-0.27429 -0.0901,-0.51891 -0.15625,-0.84375 a 2.0405414,2.0405414 0 0 0 -0.5,-0.96875 c -0.192776,-0.21705 -0.400424,-0.50401 -0.53125,-0.8125 -0.17748,-0.41849 -0.216091,-0.79453 -0.21875,-1 a 2.0405414,2.0405414 0 0 0 0.53125,-1.5625 c -0.03876,-0.46406 -0.05207,-0.93637 -0.0625,-1.40625 0,-0.0105 -6.8e-5,-0.0208 0,-0.0312 0.01825,-2.79671 2.481056,-5.15625 5.71875,-5.15625 z" />
        <path
           style="opacity:0.4;fill:#000000;fill-opacity:1;stroke:none"
           id="path3861"
           inkscape:connector-curvature="0"
           d="m 48,983.36218 c -4.275753,0 -7.75,3.22497 -7.75,7.21875 0.01037,0.45769 0.01495,0.99321 0.0625,1.5625 -0.676671,0.36101 -0.759833,1.76427 -0.15625,3.1875 0.232745,0.54881 0.554225,1.01384 0.875,1.375 0.01069,0.012 0.0205,0.0195 0.03125,0.0312 0.07657,0.37603 0.12615,0.66959 0.21875,1.09375 0.286865,0.86126 1.487392,2.48232 2.53125,3.87502 0.104099,1.0743 0.115692,2.1217 -0.09375,3.3437 -1.691416,1.4044 -4.831561,2.398 -7.28125,3.4375 -0.88116,-0.4051 -1.680049,-0.8477 -2.25,-1.3437 -0.09012,-0.742 -0.07714,-1.488 -0.03125,-2.2188 0.711798,-1.0988 1.636815,-2.5036 1.875,-3.2187 0.08754,-0.3704 0.119513,-0.6195 0.1875,-0.9375 0.210194,-0.2571 0.407337,-0.5717 0.5625,-0.93752 0.429892,-1.01368 0.375647,-1.98338 -0.0625,-2.3125 0.03061,-0.44045 0.08095,-0.84231 0.09375,-1.21875 0,-2.99533 -2.605685,-5.4375 -5.8125,-5.4375 -3.206814,0 -5.8125,2.44218 -5.8125,5.4375 0.0078,0.34327 0.02684,0.72928 0.0625,1.15625 -0.507503,0.27075 -0.577687,1.30757 -0.125,2.375 0.174559,0.41162 0.415669,0.76042 0.65625,1.03122 0.008,0.01 0.02319,0.022 0.03125,0.031 0.05743,0.282 0.08679,0.4944 0.15625,0.8125 0.215149,0.646 1.092106,1.8618 1.875,2.9063 0.07807,0.8057 0.09459,1.6147 -0.0625,2.5312 -2.25344,1.8711 -8.008639,2.6881 -8,4.625 L 19,1016.8309 c 0,1.0318 1.548254,1.9554 4,2.5938 l 0.34375,1.375 a 0.84317393,0.843822 0 0 0 0.53125,0.5625 c 0.108823,0.042 0.170502,0.1321 0.46875,0.2187 1.57109,0.4565 3.966368,0.7813 6.65625,0.7813 2.534617,0 4.804435,-0.3042 6.375,-0.7188 l 0.40625,1.6563 a 1.1242319,1.125096 0 0 0 0.6875,0.75 c 0.145097,0.056 0.258586,0.1657 0.65625,0.2812 2.094786,0.6087 5.28849,1.0313 8.875,1.0313 3.58651,0 6.811464,-0.4226 8.90625,-1.0313 0.397664,-0.1155 0.511152,-0.2251 0.65625,-0.2812 a 1.1242319,1.125096 0 0 0 0.65625,-0.7188 l 0.46875,-1.6562 c 1.56651,0.4086 3.800116,0.6875 6.3125,0.6875 2.689882,0 5.116411,-0.3248 6.6875,-0.7813 0.298248,-0.087 0.359927,-0.1766 0.46875,-0.2187 a 0.84317393,0.843822 0 0 0 0.5,-0.5313 l 0.4375,-1.4375 C 75.485592,1018.7561 77,1017.8482 77,1016.8309 l -0.78125,-5.0625 c -0.0092,-1.6577 -5.805444,-2.688 -8.03125,-4.625 -0.09012,-0.7419 -0.07714,-1.4879 -0.03125,-2.2187 0.711798,-1.0989 1.636815,-2.5037 1.875,-3.2188 0.08754,-0.3703 0.119513,-0.6195 0.1875,-0.9375 0.210194,-0.2571 0.407337,-0.5716 0.5625,-0.93747 0.429892,-1.01368 0.375647,-1.98338 -0.0625,-2.3125 0.03061,-0.44045 0.08095,-0.84231 0.09375,-1.21875 0,-2.99533 -2.605685,-5.4375 -5.8125,-5.4375 -3.206814,0 -5.8125,2.44218 -5.8125,5.4375 0.0078,0.34327 0.02684,0.72928 0.0625,1.15625 -0.507503,0.27075 -0.577687,1.30757 -0.125,2.375 0.174559,0.41157 0.415669,0.76037 0.65625,1.03127 0.008,0.01 0.02319,0.022 0.03125,0.031 0.05743,0.282 0.0868,0.4944 0.15625,0.8125 0.215149,0.6459 1.092106,1.8617 1.875,2.9062 0.07807,0.8058 0.09459,1.6148 -0.0625,2.5313 -0.64335,0.5342 -1.562979,0.9593 -2.5625,1.375 -2.410911,-1.0173 -5.370939,-2.0783 -6.96875,-3.4688 -0.120158,-0.9893 -0.12368,-1.9631 -0.0625,-2.9375 0.949064,-1.4651 2.213671,-3.32775 2.53125,-4.28122 0.11672,-0.49378 0.15935,-0.826 0.25,-1.25 0.280258,-0.34282 0.543117,-0.76217 0.75,-1.25 0.57319,-1.35156 0.521696,-2.65492 -0.0625,-3.09375 0.04082,-0.58727 0.07669,-1.15433 0.09375,-1.65625 0,-3.99377 -3.474247,-7.21875 -7.75,-7.21875 z m 0,1.15625 c 3.679371,0 6.575465,2.72605 6.59375,6.03125 5.8e-5,0.0105 0,0.0207 0,0.0312 -0.01659,0.47006 -0.05404,0.99126 -0.09375,1.5625 a 1.1628892,1.1628892 0 0 0 0.40625,1 c -0.02131,-0.007 0.05586,0.0875 0.0625,0.34375 0.0089,0.34164 -0.08325,0.83443 -0.3125,1.375 -0.162178,0.38242 -0.382088,0.70984 -0.59375,0.96875 a 1.1628892,1.1628892 0 0 0 -0.21875,0.5 c -0.09306,0.43528 -0.131318,0.73531 -0.21875,1.125 -0.0075,0.0334 -0.02301,0.0589 -0.03125,0.0937 -0.106736,0.28254 -0.469726,0.91845 -0.90625,1.625 -0.459345,0.74349 -0.98834,1.57082 -1.46875,2.31252 a 1.1628892,1.1628892 0 0 0 -0.1875,0.5625 c -0.06439,1.0255 -0.06834,2.0477 0.0625,3.125 a 1.1628892,1.1628892 0 0 0 0.40625,0.75 c 1.913315,1.665 4.917626,2.6589 7.28125,3.6562 a 1.1628892,1.1628892 0 0 0 0.875,0 c 1.02556,-0.4265 2.045938,-0.8429 2.875,-1.5312 a 1.1628892,1.1628892 0 0 0 0.40625,-0.7188 c 0.178629,-1.0422 0.146256,-1.9793 0.0625,-2.8437 a 1.1628892,1.1628892 0 0 0 -0.21875,-0.5625 c -0.386553,-0.5157 -0.802793,-1.0799 -1.125,-1.5625 -0.314874,-0.4717 -0.557977,-0.904 -0.59375,-1 -8.33e-4,0 6.15e-4,-0.029 0,-0.031 -0.04355,-0.217 -0.07072,-0.3897 -0.125,-0.6563 a 1.1628892,1.1628892 0 0 0 -0.28125,-0.5625 c -0.01165,-0.013 0.0088,-0.021 0,-0.031 -0.167629,-0.1887 -0.352272,-0.44407 -0.46875,-0.71872 -0.165076,-0.38925 -0.198889,-0.73842 -0.1875,-0.9375 0.0019,-0.0323 0.0072,-0.0546 0,-0.0625 a 1.1628892,1.1628892 0 0 0 0.40625,-1 c -0.03272,-0.39177 -0.05485,-0.74917 -0.0625,-1.0625 0,-0.0104 -8.2e-5,-0.0208 0,-0.0312 0.01814,-2.30725 2.051523,-4.25 4.65625,-4.25 2.60473,0 4.638115,1.94274 4.65625,4.25 8.2e-5,0.0104 0,0.0208 0,0.0312 -0.0119,0.29797 -0.06131,0.65827 -0.09375,1.125 a 1.1628892,1.1628892 0 0 0 0.34375,0.90625 c -0.007,-0.006 -0.0036,0.025 0,0.125 0.0071,0.19991 -0.03145,0.53829 -0.1875,0.90625 -0.110461,0.26047 -0.264668,0.48307 -0.40625,0.65622 a 1.1628892,1.1628892 0 0 0 -0.21875,0.5 c -0.07006,0.3277 -0.09689,0.5427 -0.15625,0.8125 -0.007,0.032 -0.02327,0.06 -0.03125,0.094 -0.0728,0.1839 -0.313447,0.6418 -0.625,1.1563 -0.334674,0.5526 -0.735822,1.1662 -1.09375,1.7187 A 1.1628892,1.1628892 0 0 0 67,1004.8622 c -0.04813,0.7665 -0.07173,1.5584 0.03125,2.4062 a 1.1628892,1.1628892 0 0 0 0.40625,0.75 c 1.41294,1.2296 3.455702,1.9295 5.15625,2.625 0.850274,0.3478 1.605286,0.6847 2.0625,0.9688 0.210071,0.1305 0.349928,0.2221 0.40625,0.2812 a 1.1628892,1.1628892 0 0 0 0,0.062 l 0.75,4.9063 c -0.0026,-0.034 -0.01856,0.098 -0.5,0.4062 -0.514318,0.3293 -1.40906,0.701 -2.53125,1 a 1.1628892,1.1628892 0 0 0 -0.8125,0.7813 l -0.40625,1.3125 c -0.01553,0.018 -0.121224,0.074 -0.1875,0.094 -1.404955,0.4082 -3.778715,0.75 -6.375,0.75 -2.426327,0 -4.600884,-0.2831 -6.03125,-0.6562 a 1.1628892,1.1628892 0 0 0 -1.40625,0.8125 l -0.4375,1.5937 0,0.031 -0.03125,0 c -0.27844,0.1177 -0.264628,0.1503 -0.5,0.2187 -1.926228,0.5597 -5.098584,1 -8.59375,1 -3.495166,0 -6.633297,-0.4394 -8.5625,-1 -0.247752,-0.072 -0.197296,-0.083 -0.53125,-0.2187 -0.0074,0 0.0078,-0.028 0,-0.031 L 38.5,1021.3622 a 1.1628892,1.1628892 0 0 0 -1.40625,-0.8438 c -1.439012,0.3798 -3.652176,0.6875 -6.09375,0.6875 -2.596285,0 -4.934827,-0.3406 -6.34375,-0.75 -0.07941,-0.023 -0.171911,-0.092 -0.21875,-0.125 l -0.3125,-1.1875 a 1.1628892,1.1628892 0 0 0 -0.84375,-0.8437 c -1.151304,-0.2998 -2.032916,-0.6643 -2.5625,-1 -0.497751,-0.3156 -0.528303,-0.4705 -0.53125,-0.4375 l 0.75,-4.9063 a 1.1628892,1.1628892 0 0 0 0,-0.1562 c 0.01272,-0.01 0.08114,-0.1294 0.40625,-0.3438 0.433482,-0.2858 1.19332,-0.606 2.03125,-0.9375 1.67586,-0.663 3.719222,-1.2756 5.15625,-2.4687 a 1.1628892,1.1628892 0 0 0 0.40625,-0.7188 c 0.178629,-1.0422 0.146256,-1.9793 0.0625,-2.8437 a 1.1628892,1.1628892 0 0 0 -0.21875,-0.5625 c -0.386553,-0.5157 -0.802793,-1.0799 -1.125,-1.5625 -0.314874,-0.4717 -0.557977,-0.904 -0.59375,-1 -8.33e-4,0 6.15e-4,-0.029 0,-0.031 -0.04354,-0.2169 -0.07072,-0.3897 -0.125,-0.6563 a 1.1628892,1.1628892 0 0 0 -0.28125,-0.5625 c -0.01165,-0.013 0.0088,-0.021 0,-0.031 -0.167629,-0.1887 -0.352272,-0.44407 -0.46875,-0.71872 -0.165076,-0.38925 -0.198889,-0.73842 -0.1875,-0.9375 0.0019,-0.0323 0.0072,-0.0546 0,-0.0625 a 1.1628892,1.1628892 0 0 0 0.40625,-1 c -0.03272,-0.39177 -0.05485,-0.74917 -0.0625,-1.0625 0,-0.0104 -8.2e-5,-0.0208 0,-0.0312 0.01814,-2.30725 2.051523,-4.25 4.65625,-4.25 2.60473,0 4.638115,1.94274 4.65625,4.25 8.2e-5,0.0104 0,0.0208 0,0.0312 -0.0119,0.29797 -0.06131,0.65827 -0.09375,1.125 a 1.1628892,1.1628892 0 0 0 0.34375,0.90625 c -0.007,-0.006 -0.0036,0.025 0,0.125 0.0071,0.19991 -0.03145,0.53829 -0.1875,0.90625 -0.110461,0.26047 -0.264668,0.48307 -0.40625,0.65622 a 1.1628892,1.1628892 0 0 0 -0.21875,0.5 c -0.07006,0.3277 -0.09689,0.5427 -0.15625,0.8125 -0.007,0.032 -0.02327,0.06 -0.03125,0.094 -0.0728,0.1839 -0.313447,0.6418 -0.625,1.1563 -0.334674,0.5526 -0.735822,1.1662 -1.09375,1.7187 A 1.1628892,1.1628892 0 0 0 33,1004.8622 c -0.04813,0.7665 -0.07173,1.5584 0.03125,2.4062 a 1.1628892,1.1628892 0 0 0 0.40625,0.75 c 0.71744,0.6244 1.569177,1.1033 2.5,1.5313 a 1.1628892,1.1628892 0 0 0 0.96875,0 c 2.366025,-1.004 5.534288,-1.9098 7.5625,-3.5938 a 1.1628892,1.1628892 0 0 0 0.40625,-0.7187 c 0.229336,-1.3381 0.204047,-2.518 0.09375,-3.6563 A 1.1628892,1.1628892 0 0 0 44.75,1001.0184 c -0.520377,-0.6942 -1.086262,-1.43835 -1.53125,-2.09372 -0.444988,-0.65537 -0.78488,-1.292 -0.84375,-1.46875 -0.06947,-0.33043 -0.116467,-0.58866 -0.1875,-0.9375 a 1.1628892,1.1628892 0 0 0 -0.25,-0.5625 c -0.08383,-0.092 -0.09658,-0.10459 -0.03125,-0.0312 -0.247829,-0.27903 -0.512838,-0.65065 -0.6875,-1.0625 -0.240666,-0.56748 -0.330713,-1.11952 -0.3125,-1.46875 0.0091,-0.17461 0.04806,-0.25713 0.0625,-0.28125 a 1.1628892,1.1628892 0 0 0 0.5,-1.0625 c -0.04214,-0.50447 -0.05227,-1.00661 -0.0625,-1.46875 0,-0.0105 -5.8e-5,-0.0207 0,-0.0312 0.01828,-3.30521 2.914377,-6.03125 6.59375,-6.03125 z" />
        <path
           style="opacity:0.5;fill:#ffffff;fill-opacity:1;stroke:none"
           id="path3884"
           inkscape:connector-curvature="0"
           d="m 55.71875,991.01843 c -0.01915,0.39225 -0.03247,0.78674 -0.0625,1.21875 0.02234,0.0168 0.04173,0.0432 0.0625,0.0625 0.01334,-0.23849 0.02385,-0.5011 0.03125,-0.71875 0,-0.18732 -0.01624,-0.37882 -0.03125,-0.5625 z m -15.4375,0.0625 c -0.01189,0.1637 -0.03125,0.33345 -0.03125,0.5 0.0039,0.17401 0.0263,0.39966 0.03125,0.59375 0.0125,-0.008 0.01831,-0.0243 0.03125,-0.0312 -0.03232,-0.38695 -0.02332,-0.72059 -0.03125,-1.0625 z m 15.78125,2.90625 c -0.05379,0.41746 -0.148202,0.88266 -0.34375,1.34375 -0.206883,0.48783 -0.469742,0.90718 -0.75,1.25 -0.09065,0.424 -0.13328,0.75622 -0.25,1.25 -0.317579,0.95347 -1.582186,2.81617 -2.53125,4.28127 -0.03582,0.5704 -0.01895,1.1455 0,1.7187 0.0065,-0.2384 -0.01496,-0.4804 0,-0.7187 0.949064,-1.4651 2.213671,-3.3278 2.53125,-4.28127 0.11672,-0.49378 0.15935,-0.826 0.25,-1.25 0.280258,-0.34282 0.543117,-0.76217 0.75,-1.25 0.372022,-0.87721 0.472876,-1.73033 0.34375,-2.34375 z m -16.28125,0.0312 c -0.107829,0.61745 0.01564,1.46514 0.375,2.3125 0.232745,0.54881 0.554225,1.01384 0.875,1.375 0.01069,0.012 0.0205,0.0195 0.03125,0.0312 0.07657,0.37603 0.12615,0.66959 0.21875,1.09375 0.286865,0.86126 1.487392,2.48237 2.53125,3.87497 0.02005,0.207 0.05023,0.4186 0.0625,0.625 0.01027,-0.5489 -0.01045,-1.0878 -0.0625,-1.625 -1.043858,-1.3926 -2.244385,-3.01371 -2.53125,-3.87497 -0.0926,-0.42416 -0.14218,-0.71772 -0.21875,-1.09375 -0.01075,-0.0118 -0.02056,-0.0192 -0.03125,-0.0312 -0.320775,-0.36116 -0.642255,-0.82619 -0.875,-1.375 -0.191522,-0.4516 -0.318788,-0.89758 -0.375,-1.3125 z m -3,2.71875 c -0.02075,0.25415 -0.04287,0.49884 -0.0625,0.78125 0.02191,0.0165 0.04252,0.0429 0.0625,0.0625 0.0063,-0.09 0.02829,-0.19415 0.03125,-0.28125 0,-0.18721 -0.01138,-0.38007 -0.03125,-0.5625 z m 34,0 c -0.02075,0.25415 -0.04287,0.49884 -0.0625,0.78125 0.02191,0.0165 0.04252,0.0429 0.0625,0.0625 0.0063,-0.09 0.02829,-0.19415 0.03125,-0.28125 0,-0.18721 -0.01138,-0.38007 -0.03125,-0.5625 z m -45.5625,0.0625 c -0.01575,0.16273 -0.03125,0.33353 -0.03125,0.5 0.0013,0.0555 -0.0019,0.12977 0,0.1875 0.02006,-0.0143 0.04084,-0.0197 0.0625,-0.0312 -0.02023,-0.24225 -0.02073,-0.4407 -0.03125,-0.65625 z m 34,0 c -0.01575,0.16273 -0.03125,0.33353 -0.03125,0.5 0.0013,0.0555 -0.0019,0.12977 0,0.1875 0.02006,-0.0143 0.04084,-0.0197 0.0625,-0.0312 -0.02023,-0.24225 -0.02074,-0.4407 -0.03125,-0.65625 z m -34.34375,2.25 c -0.104677,0.46367 -0.03293,1.11407 0.25,1.78127 0.174559,0.4116 0.415669,0.7604 0.65625,1.0312 0.008,0.01 0.02319,0.022 0.03125,0.031 0.05743,0.282 0.08679,0.4944 0.15625,0.8125 0.215149,0.646 1.092106,1.8618 1.875,2.9063 0.02401,0.2478 0.02214,0.4985 0.03125,0.75 0.04475,-0.6054 0.02359,-1.184 -0.03125,-1.75 -0.782894,-1.0445 -1.659851,-2.2603 -1.875,-2.9063 -0.06946,-0.3181 -0.09882,-0.5305 -0.15625,-0.8125 -0.0081,-0.01 -0.02325,-0.022 -0.03125,-0.031 -0.240581,-0.2708 -0.481691,-0.6196 -0.65625,-1.03122 -0.113172,-0.26686 -0.20085,-0.52971 -0.25,-0.78125 z m 34,0 c -0.104677,0.46367 -0.03293,1.11407 0.25,1.78127 0.174559,0.4116 0.415669,0.7604 0.65625,1.0312 0.008,0.01 0.02319,0.022 0.03125,0.031 0.05743,0.282 0.0868,0.4944 0.15625,0.8125 0.215149,0.646 1.092106,1.8618 1.875,2.9063 0.02401,0.2478 0.02214,0.4985 0.03125,0.75 0.04475,-0.6054 0.02359,-1.184 -0.03125,-1.75 -0.782894,-1.0445 -1.659851,-2.2603 -1.875,-2.9063 -0.06945,-0.3181 -0.09882,-0.5305 -0.15625,-0.8125 -0.0081,-0.01 -0.02325,-0.022 -0.03125,-0.031 -0.240581,-0.2708 -0.481691,-0.6196 -0.65625,-1.03122 -0.113172,-0.26686 -0.20085,-0.52971 -0.25,-0.78125 z M 37,999.08093 c -0.04852,0.2386 -0.111277,0.49658 -0.21875,0.75 -0.155163,0.36587 -0.352306,0.68037 -0.5625,0.93747 -0.06799,0.318 -0.09996,0.5672 -0.1875,0.9375 -0.238185,0.7151 -1.163202,2.1199 -1.875,3.2188 -0.02997,0.4772 -0.01765,0.9526 0,1.4375 0.006,-0.1471 -0.0092,-0.2915 0,-0.4375 0.711798,-1.0989 1.636815,-2.5037 1.875,-3.2188 0.08754,-0.3703 0.119513,-0.6195 0.1875,-0.9375 0.210194,-0.2571 0.407337,-0.5716 0.5625,-0.9375 0.280785,-0.6621 0.32311,-1.29164 0.21875,-1.74997 z m 34,0 c -0.04852,0.2386 -0.111277,0.49658 -0.21875,0.75 -0.155163,0.36587 -0.352306,0.68037 -0.5625,0.93747 -0.06799,0.318 -0.09996,0.5672 -0.1875,0.9375 -0.238185,0.7151 -1.163202,2.1199 -1.875,3.2188 -0.02997,0.4772 -0.01765,0.9526 0,1.4375 0.006,-0.1471 -0.0092,-0.2915 0,-0.4375 0.711798,-1.0989 1.636815,-2.5037 1.875,-3.2188 0.08754,-0.3703 0.119513,-0.6195 0.1875,-0.9375 0.210194,-0.2571 0.407337,-0.5716 0.5625,-0.9375 0.280785,-0.6621 0.32311,-1.29164 0.21875,-1.74997 z M 19.09375,1017.2372 19,1017.8309 c 0,1.0318 1.548254,1.9554 4,2.5938 l 0.34375,1.375 a 0.84317393,0.843822 0 0 0 0.53125,0.5625 c 0.108823,0.042 0.170502,0.1321 0.46875,0.2187 1.57109,0.4565 3.966368,0.7813 6.65625,0.7813 2.534617,0 4.804435,-0.3042 6.375,-0.7188 l 0.40625,1.6563 a 1.1242319,1.125096 0 0 0 0.6875,0.75 c 0.145097,0.056 0.258586,0.1657 0.65625,0.2812 2.094786,0.6087 5.28849,1.0313 8.875,1.0313 3.58651,0 6.811464,-0.4226 8.90625,-1.0313 0.397664,-0.1155 0.511152,-0.2251 0.65625,-0.2812 a 1.1242319,1.125096 0 0 0 0.65625,-0.7188 l 0.46875,-1.6562 c 1.56651,0.4086 3.800116,0.6875 6.3125,0.6875 2.689882,0 5.116411,-0.3248 6.6875,-0.7813 0.298248,-0.087 0.359927,-0.1766 0.46875,-0.2187 a 0.84317393,0.843822 0 0 0 0.5,-0.5313 l 0.4375,-1.4375 C 75.485592,1019.7561 77,1018.8482 77,1017.8309 l -0.09375,-0.5937 c -0.348412,0.849 -1.749072,1.6064 -3.8125,2.1562 l -0.4375,1.4375 a 0.84317393,0.843822 0 0 1 -0.5,0.5313 c -0.108823,0.042 -0.170502,0.132 -0.46875,0.2187 -1.571089,0.4565 -3.997618,0.7813 -6.6875,0.7813 -2.512384,0 -4.74599,-0.2789 -6.3125,-0.6875 l -0.46875,1.6562 a 1.1242319,1.125096 0 0 1 -0.65625,0.7188 c -0.145098,0.056 -0.258586,0.1657 -0.65625,0.2812 -2.094786,0.6087 -5.31974,1.0313 -8.90625,1.0313 -3.58651,0 -6.780214,-0.4226 -8.875,-1.0313 -0.397664,-0.1155 -0.511153,-0.225 -0.65625,-0.2812 a 1.1242319,1.125096 0 0 1 -0.6875,-0.75 l -0.40625,-1.6563 c -1.570565,0.4146 -3.840383,0.7188 -6.375,0.7188 -2.689882,0 -5.08516,-0.3248 -6.65625,-0.7813 -0.298248,-0.087 -0.359927,-0.1766 -0.46875,-0.2187 a 0.84317393,0.843822 0 0 1 -0.53125,-0.5625 L 23,1019.4247 c -2.115107,-0.5507 -3.549946,-1.3259 -3.90625,-2.1875 z" />
      </g>
    </g>
  </g>
</svg>
