<?xml version="1.0" encoding="UTF-8" standalone="no"?>
<!-- Created with Inkscape (http://www.inkscape.org/) -->
<svg id="svg2" xmlns:rdf="http://www.w3.org/1999/02/22-rdf-syntax-ns#" xmlns="http://www.w3.org/2000/svg" height="96" width="96" version="1.1" xmlns:cc="http://creativecommons.org/ns#" xmlns:xlink="http://www.w3.org/1999/xlink" xmlns:dc="http://purl.org/dc/elements/1.1/">
 <defs id="defs4">
  <filter id="filter6279" color-interpolation-filters="sRGB">
   <feGaussianBlur id="feGaussianBlur6281" stdDeviation="0.8"/>
  </filter>
  <linearGradient id="linearGradient5801" x1="48" gradientUnits="userSpaceOnUse" y1="1052.4" gradientTransform="translate(0 -.0000078516)" x2="48" y2="902.36">
   <stop id="stop3189-4" style="stop-color:#e26f00" offset="0"/>
   <stop id="stop3191-5" style="stop-color:#f9a314" offset="1"/>
  </linearGradient>
  <filter id="filter7028" height="1.36" width="1.36" y="-.18" x="-.18" color-interpolation-filters="sRGB">
   <feGaussianBlur id="feGaussianBlur7030" stdDeviation="1.1130742"/>
  </filter>
  <linearGradient id="linearGradient6642" x1="61.625" gradientUnits="userSpaceOnUse" y1="19.577" gradientTransform="matrix(.48020 0 0 .48020 16.251 973.25)" x2="61.625" y2="110.35">
   <stop id="stop6979-3" style="stop-color:#dc4300" offset="0"/>
   <stop id="stop6981" style="stop-color:#ae3500" offset="1"/>
  </linearGradient>
  <radialGradient id="radialGradient6645" gradientUnits="userSpaceOnUse" cy="8.7609" cx="-24.45" gradientTransform="matrix(.70692 0 0 .74366 82.871 1001)" r="14.746">
   <stop id="stop7020" style="stop-color:#fff" offset="0"/>
   <stop id="stop7022" style="stop-color:#fff" offset=".2"/>
   <stop id="stop7024" style="stop-color:#ffde34" offset=".25276"/>
   <stop id="stop7026" style="stop-color:#ffd602;stop-opacity:0" offset="1"/>
  </radialGradient>
  <linearGradient id="linearGradient3129" y2="138.66" gradientUnits="userSpaceOnUse" x2="48" y1="20.221" x1="48">
   <stop id="stop3739-975" style="stop-color:#fff" offset="0"/>
   <stop id="stop3741-64" style="stop-color:#fff;stop-opacity:0" offset="1"/>
  </linearGradient>
  <clipPath id="clipPath3613-63">
   <rect id="rect3615-7" style="fill:#fff" rx="6" ry="6" height="84" width="84" y="6" x="6"/>
  </clipPath>
  <filter id="filter3794-97" height="1.384" width="1.384" y="-.192" x="-.192" color-interpolation-filters="sRGB">
   <feGaussianBlur id="feGaussianBlur3796-49" stdDeviation="5.28"/>
  </filter>
 </defs>
 <metadata id="metadata7">
  <rdf:RDF>
   <cc:Work rdf:about="">
    <dc:format>image/svg+xml</dc:format>
    <dc:type rdf:resource="http://purl.org/dc/dcmitype/StillImage"/>
    <dc:title/>
   </cc:Work>
  </rdf:RDF>
 </metadata>
 <g id="layer1" transform="translate(0 -956.36)">
  <g id="g6674" transform="translate(0,-1e-5)">
   <rect id="rect9283" ry="5" style="filter:url(#filter6279)" rx="5" transform="translate(0 -.0000078516)" height="80" width="80" y="964.36" x="8"/>
   <rect id="rect9285" style="fill:url(#linearGradient5801)" rx="5" ry="5" height="80" width="80" y="964.36" x="8"/>
   <g id="g6636" transform="matrix(1.0269 0 0 1.0269 -2.5288 -27.09)">
    <path id="path6963" d="m110.78 70.756a7.4205 7.4205 0 1 1 -14.841 0 7.4205 7.4205 0 1 1 14.841 0z" style="opacity:.8;filter:url(#filter7028);fill:#ffd812" transform="matrix(.60928 0 0 .60928 2.4991 964.45)"/>
    <path id="path6908" style="fill:url(#linearGradient6642);fill-rule:evenodd" d="m50.744 983.06s-4.6532 4.8372-4.7638 10.548c-2.4303-1.3915-4.22-4.4857-2.4377-7.8788 1.7871-3.4023 4.2528-3.4303 7.2015-2.669zm-10.258 30.736s-2.6133 5.8573-0.47041 11.639c-2.7601-0.471-5.5036-2.6661-5.1855-6.3704 0.31752-3.6975 1.579-5.1598 5.6559-5.2685zm2.7328 0.098s-2.4586 3.5216-0.47559 12.182c5.2315-0.2855 7.0795-0.9233 10.748-5.9011 3.6688-4.9778 7.4547-22.892 6.2778-28.458-1.1772-5.567-5.7071-7.2335-5.7071-7.2335-5.0413 2.5698-5.1363 9.9934-5.1363 9.9934s4.7287 1.2415 1.4267 12.182c-3.3205 11.003-7.1339 7.2335-7.1339 7.2335z"/>
    <path id="path6915" style="stroke:#fff4ad;stroke-width:2.1711;stroke-linecap:round;fill:none" d="m24.48 1008.3c0.803-3.8629 0.45758-9.9311 1.9723-9.9311 2.7135 0.00015 3.4814 12.681 5.1925 12.689 1.702 0.01 0.09186-9.5136 2.2959-9.4065 3.5439 0.1796 2.4444-7.417 4.123-7.4264 3.0977-0.0181 1.7619 16.615 4.3123 16.5 2.0494-0.092 1.5833-4.2375 3.2466-3.9725 1.9176 0.3055 1.3648 3.3024 2.6372 3.252 1.9906-0.079 0.46839-13.619 2.4374-13.584 1.5273 0.0267 3.3742 13.669 5.2236 13.669 3.2829 0-0.78722-9.1315 6.2314-4.0278 1.7549 1.2762 1.123 0.8964 3.3238 1.4574"/>
    <path id="path6922" style="fill:url(#radialGradient6645)" d="m69.515 1001.8-2.2161 3.9982 7.708-6.4206-7.003 7.441 6.528-0.2187-6.1976 1.1311 5.8278 1.8928-6.6274-1.1972 3.1748 4.2141-3.9583-3.1262 1.9815 7.4026-3.2548-7.0107-1.537 7.4937 0.7214-7.7-2.2284 4.583 1.7586-4.6462-5.7332 5.5183 4.9835-6.4155-5.528 2.2246 4.6243-2.819-3.1666-1.1511 3.8054 0.1099-4.1511-2.3444 4.0994 0.9739-4.6563-5.6375 5.7342 4.9616-1.5001-5.2554 2.0914 5.5503-0.58219-9.8848 1.3977 9.6504 2.4453-5.6181-1.5335 5.7962 2.9927-3.4956z"/>
   </g>
   <g id="layer5" transform="translate(0 956.36)">
    <rect id="rect3171" style="opacity:.1;filter:url(#filter3794-97);stroke:#fff;stroke-linecap:round;stroke-width:.5;fill:url(#linearGradient3129)" clip-path="url(#clipPath3613-63)" rx="12" ry="12" height="66" width="66" y="15" x="15"/>
   </g>
  </g>
 </g>
</svg>
