<?xml version="1.0" encoding="UTF-8" standalone="no"?>
<!-- Created with Inkscape (http://www.inkscape.org/) -->
<svg id="svg6307" xmlns:rdf="http://www.w3.org/1999/02/22-rdf-syntax-ns#" xmlns="http://www.w3.org/2000/svg" height="96" width="96" version="1.1" xmlns:cc="http://creativecommons.org/ns#" xmlns:xlink="http://www.w3.org/1999/xlink" xmlns:dc="http://purl.org/dc/elements/1.1/">
 <defs id="defs6309">
  <filter id="filter6279" color-interpolation-filters="sRGB">
   <feGaussianBlur id="feGaussianBlur6281" stdDeviation="0.8"/>
  </filter>
  <linearGradient id="linearGradient5801" x1="48" gradientUnits="userSpaceOnUse" y1="1052.4" gradientTransform="translate(0 -.0000078516)" x2="48" y2="902.36">
   <stop id="stop3759" style="stop-color:#c53636" offset="0"/>
   <stop id="stop3761" style="stop-color:#d42b2b" offset="1"/>
  </linearGradient>
  <linearGradient id="linearGradient3220-6" y2="138.66" gradientUnits="userSpaceOnUse" x2="48" y1="20.221" x1="48">
   <stop id="stop3739-56" style="stop-color:#fff" offset="0"/>
   <stop id="stop3741-54" style="stop-color:#fff;stop-opacity:0" offset="1"/>
  </linearGradient>
  <clipPath id="clipPath3613-22">
   <rect id="rect3615-17" style="fill:#fff" rx="6" ry="6" height="84" width="84" y="6" x="6"/>
  </clipPath>
  <filter id="filter3794-24" height="1.384" width="1.384" y="-.192" x="-.192" color-interpolation-filters="sRGB">
   <feGaussianBlur id="feGaussianBlur3796-1" stdDeviation="5.28"/>
  </filter>
 </defs>
 <metadata id="metadata6312">
  <rdf:RDF>
   <cc:Work rdf:about="">
    <dc:format>image/svg+xml</dc:format>
    <dc:type rdf:resource="http://purl.org/dc/dcmitype/StillImage"/>
    <dc:title/>
   </cc:Work>
  </rdf:RDF>
 </metadata>
 <g id="layer1" transform="translate(0 -956.36)">
  <g id="g6505">
   <rect id="rect9283" ry="5" style="filter:url(#filter6279)" rx="5" transform="translate(0 -.0000078516)" height="80" width="80" y="964.36" x="8"/>
   <rect id="rect9285" style="fill:url(#linearGradient5801)" rx="5" ry="5" height="80" width="80" y="964.36" x="8"/>
   <g id="g2751" transform="matrix(.49873 0 0 .50349 18.257 972.19)">
    <path id="text2434" style="fill:#fff" d="m64.128 24.098c0.1888 0.04037 0.33594 0.12435 0.44141 0.25195 0.10677 0.1276 0.16015 0.28516 0.16016 0.47266-0.000002 0.28776-0.09896 0.51042-0.29688 0.66797s-0.47917 0.23633-0.84375 0.23633c-0.1224 0-0.2487-0.01237-0.37891-0.03711-0.12891-0.02344-0.26237-0.05924-0.40039-0.10742v-0.38086c0.10937 0.0638 0.22917 0.11198 0.35938 0.14453s0.26628 0.04883 0.4082 0.04883c0.24739 0.000001 0.43554-0.04883 0.56445-0.14648 0.13021-0.09766 0.19531-0.23958 0.19531-0.42578-0.000002-0.17187-0.06055-0.30599-0.18164-0.40234-0.11979-0.09765-0.28711-0.14648-0.50195-0.14648h-0.33984v-0.32422h0.35547c0.19401 0.000002 0.34245-0.03841 0.44531-0.11523 0.10286-0.07812 0.1543-0.1901 0.1543-0.33594-0.000002-0.14974-0.05339-0.26432-0.16016-0.34375-0.10547-0.08073-0.25716-0.12109-0.45508-0.12109-0.10807 0.000003-0.22396 0.01172-0.34766 0.03516s-0.25977 0.0599-0.4082 0.10938v-0.35156c0.14974-0.04166 0.28971-0.07291 0.41992-0.09375 0.13151-0.02083 0.25521-0.03125 0.37109-0.03125 0.29948 0.000003 0.53646 0.06836 0.71094 0.20508 0.17448 0.13542 0.26172 0.31901 0.26172 0.55078-0.000002 0.16146-0.04623 0.29818-0.13867 0.41016-0.09245 0.11068-0.22396 0.1875-0.39453 0.23047m-2.4004 6.0402h0.64453v-2.2246l-0.70117 0.14062v-0.35938l0.69726-0.14062h0.39453v2.584h0.64453v0.33203h-1.6797v-0.33203m3.3223-2.3242c-0.20313 0.000003-0.35612 0.10026-0.45898 0.30078-0.10156 0.19922-0.15234 0.49935-0.15234 0.90039-0.000001 0.39974 0.05078 0.69987 0.15234 0.90039 0.10286 0.19922 0.25586 0.29883 0.45898 0.29883 0.20442 0 0.35742-0.09961 0.45898-0.29883 0.10286-0.20052 0.1543-0.50065 0.1543-0.90039-0.000002-0.40104-0.05143-0.70117-0.1543-0.90039-0.10156-0.20052-0.25456-0.30078-0.45898-0.30078m0-0.3125c0.32682 0.000003 0.57617 0.12956 0.74805 0.38867 0.17318 0.25782 0.25976 0.63282 0.25976 1.125-0.000002 0.49089-0.08659 0.86589-0.25976 1.125-0.17188 0.25781-0.42123 0.38672-0.74805 0.38672s-0.57682-0.12891-0.75-0.38672c-0.17188-0.25911-0.25781-0.63411-0.25781-1.125 0-0.49218 0.08594-0.86718 0.25781-1.125 0.17318-0.25911 0.42318-0.38867 0.75-0.38867m-3.3223 7.4367h0.64453v-2.2246l-0.70117 0.14062v-0.36l0.69726-0.14062h0.39453v2.584h0.64453v0.33203h-1.6797v-0.33203m2.3789-2.584h1.875v0.16797l-1.0586 2.748h-0.41211l0.99609-2.584h-1.4004v-0.33203m-2.1074 7.384h1.377v0.33203h-1.8516v-0.33203c0.14974-0.15495 0.35352-0.36263 0.61133-0.62305 0.25911-0.26172 0.42187-0.43034 0.48828-0.50586 0.1263-0.14192 0.21419-0.26172 0.26367-0.35938 0.05078-0.09896 0.07617-0.19596 0.07617-0.29102-0.000001-0.15495-0.05469-0.28125-0.16406-0.37891-0.10807-0.09765-0.24935-0.14648-0.42383-0.14648-0.1237 0.000003-0.25456 0.02149-0.39258 0.06445-0.13672 0.04297-0.2832 0.10808-0.43945 0.19531v-0.39844c0.15885-0.0638 0.30729-0.11198 0.44531-0.14453s0.26432-0.04883 0.37891-0.04883c0.30208 0.000003 0.54297 0.07552 0.72266 0.22656 0.17968 0.15104 0.26953 0.35287 0.26953 0.60547-0.000002 0.11979-0.02279 0.23373-0.06836 0.3418-0.04427 0.10677-0.12565 0.23307-0.24414 0.37891-0.03255 0.03776-0.13607 0.14714-0.31055 0.32812-0.17448 0.17969-0.42057 0.43164-0.73828 0.75586m3.291-2.2402-0.99609 1.5566h0.99609v-1.557m-0.10352-0.34375h0.49609v1.9004h0.41602v0.32812h-0.41602v0.6875h-0.39258v-0.6875h-1.3164v-0.38086l1.2129-1.8477"/>
    <path id="text2446" style="fill:#fff" d="m71.694 23.041-0.99609 1.5566h0.996v-1.557m-0.10352-0.34375h0.49609v1.9004h0.41602v0.32812h-0.41602v0.6875h-0.39258v-0.6875h-1.3164v-0.38086l1.2129-1.8477m-2.1855 7.384h0.64453v-2.2246l-0.70117 0.14062v-0.35938l0.69727-0.14062h0.39453v2.584h0.64453v0.33203h-1.6797v-0.33203m2.5469 0h0.64453v-2.2246l-0.70117 0.14062v-0.35938l0.69727-0.14062h0.39453v2.584h0.64453v0.33203h-1.6797v-0.33203m-2.5469 4.8h0.64453v-2.2246l-0.70117 0.14062v-0.35938l0.69727-0.14062h0.39453v2.584h0.64453v0.33203h-1.6797v-0.33203m3.3223-1.0527c-0.1875 0.000002-0.33529 0.05013-0.44336 0.15039-0.10677 0.10026-0.16016 0.23828-0.16016 0.41406-0.000001 0.17578 0.05339 0.3138 0.16016 0.41406 0.10807 0.10026 0.25586 0.15039 0.44336 0.15039 0.1875 0.000001 0.33528-0.05013 0.44336-0.15039 0.10807-0.10156 0.16211-0.23958 0.16211-0.41406-0.000002-0.17578-0.05404-0.3138-0.16211-0.41406-0.10677-0.10026-0.25456-0.15039-0.44336-0.15039m-0.396-0.165c-0.16927-0.04167-0.30143-0.12044-0.39648-0.23633-0.09375-0.11588-0.14062-0.25716-0.14062-0.42383 0-0.23307 0.08268-0.41732 0.24805-0.55273 0.16667-0.13541 0.39453-0.20312 0.68359-0.20312 0.29036 0.000003 0.51823 0.06771 0.68359 0.20312 0.16536 0.13542 0.24804 0.31966 0.24805 0.55273-0.000002 0.16667-0.04753 0.30794-0.14258 0.42383-0.09375 0.11589-0.22461 0.19466-0.39258 0.23633 0.1901 0.04427 0.33789 0.13086 0.44336 0.25977 0.10677 0.12891 0.16015 0.28646 0.16016 0.47266-0.000002 0.28255-0.08659 0.49935-0.25976 0.65039-0.173 0.153-0.42 0.229-0.741 0.229-0.32162 0-0.56901-0.07552-0.74219-0.22656-0.17188-0.15104-0.25781-0.36784-0.25781-0.65039 0-0.1862 0.05339-0.34375 0.16016-0.47266 0.10677-0.1289 0.25521-0.21549 0.44531-0.25977m-0.144-0.623c-0.000001 0.15104 0.04687 0.26888 0.14062 0.35352 0.09505 0.08464 0.22786 0.12696 0.39844 0.12695 0.16927 0.000002 0.30143-0.04232 0.39648-0.12695 0.09635-0.08463 0.14453-0.20247 0.14453-0.35352-0.000002-0.15104-0.04818-0.26888-0.14453-0.35352-0.09505-0.08463-0.22722-0.12695-0.39648-0.12695-0.17057 0.000002-0.30339 0.04232-0.39844 0.12695-0.09375 0.08464-0.14063 0.20248-0.14062 0.35352m-2.5117 6.6438h1.377v0.33203h-1.8516v-0.33203c0.14974-0.15495 0.35352-0.36263 0.61133-0.62305 0.25911-0.26172 0.42187-0.43034 0.48828-0.50586 0.1263-0.14193 0.21419-0.26172 0.26367-0.35938 0.05078-0.09896 0.07617-0.19596 0.07617-0.29102-0.000002-0.15495-0.05469-0.28125-0.16406-0.37891-0.10807-0.09765-0.24935-0.14648-0.42383-0.14648-0.1237 0.000003-0.25456 0.02149-0.39258 0.06445-0.13672 0.04297-0.2832 0.10808-0.43945 0.19531v-0.39844c0.15885-0.0638 0.30729-0.11198 0.44531-0.14453s0.26432-0.04883 0.37891-0.04883c0.30208 0.000003 0.54297 0.07552 0.72266 0.22656s0.26953 0.35287 0.26953 0.60547c-0.000002 0.11979-0.02279 0.23373-0.06836 0.3418-0.04427 0.10677-0.12565 0.23308-0.24414 0.37891-0.03255 0.03776-0.13607 0.14714-0.31055 0.32812-0.17448 0.17969-0.42057 0.43164-0.73828 0.75586m2.2109-2.584h1.5488v0.33203h-1.1875v0.71484c0.05729-0.01953 0.11458-0.03385 0.17188-0.04297 0.05729-0.01041 0.11458-0.01562 0.17188-0.01563 0.32552 0.000002 0.58333 0.08919 0.77344 0.26758 0.1901 0.17839 0.28515 0.41992 0.28516 0.72461-0.000003 0.3138-0.09766 0.55794-0.29297 0.73242-0.19531 0.17318-0.4707 0.25977-0.82617 0.25977-0.1224 0-0.2474-0.01042-0.375-0.03125-0.1263-0.02083-0.25716-0.05208-0.39258-0.09375v-0.39648c0.11719 0.0638 0.23828 0.11133 0.36328 0.14258s0.25716 0.04688 0.39648 0.04687c0.22526 0.000001 0.40364-0.05924 0.53516-0.17773 0.13151-0.11849 0.19726-0.2793 0.19726-0.48242-0.000001-0.20312-0.06576-0.36393-0.19726-0.48242-0.13151-0.11849-0.3099-0.17773-0.53516-0.17773-0.10547 0.000001-0.21094 0.01172-0.31641 0.03516-0.10417 0.02344-0.21094 0.0599-0.32031 0.10938v-1.4648"/>
    <path id="text2456" style="fill:#fff" d="m78.257 22.697h1.5488v0.33203h-1.1875v0.71484c0.05729-0.01953 0.11458-0.03385 0.17188-0.04297 0.05729-0.01042 0.11458-0.01562 0.17188-0.01563 0.32552 0.000002 0.58333 0.08919 0.77344 0.26758 0.1901 0.17839 0.28515 0.41992 0.28516 0.72461-0.000002 0.3138-0.09766 0.55794-0.29297 0.73242-0.194 0.173-0.47 0.26-0.825 0.26-0.1224 0-0.2474-0.01042-0.375-0.03125-0.1263-0.02083-0.25716-0.05208-0.39258-0.09375v-0.397c0.11719 0.0638 0.23828 0.11133 0.36328 0.14258s0.25716 0.04687 0.39648 0.04687c0.22526 0 0.40364-0.05925 0.53516-0.17774 0.13151-0.11849 0.19726-0.2793 0.19727-0.48242-0.000002-0.20312-0.06576-0.36393-0.19727-0.48242s-0.3099-0.17773-0.53516-0.17774c-0.10547 0.000002-0.21094 0.01172-0.31641 0.03516-0.10417 0.02344-0.21094 0.0599-0.32031 0.10938v-1.4648m-1.209 7.384h0.64453v-2.2246l-0.70117 0.14062v-0.35938l0.69727-0.14062h0.39453v2.584h0.64453v0.33203h-1.6797v-0.33203m2.8184 0h1.377v0.33203h-1.8516v-0.33203c0.14974-0.15495 0.35352-0.36263 0.61133-0.62305 0.25911-0.26172 0.42187-0.43034 0.48828-0.50586 0.1263-0.14192 0.21419-0.26172 0.26367-0.35938 0.05078-0.09896 0.07617-0.19596 0.07617-0.29102-0.000002-0.15495-0.05469-0.28125-0.16406-0.37891-0.10808-0.09765-0.24935-0.14648-0.42383-0.14648-0.1237 0.000003-0.25456 0.02149-0.39258 0.06445-0.13672 0.04297-0.2832 0.10808-0.43945 0.19531v-0.39844c0.15885-0.0638 0.30729-0.11198 0.44531-0.14453s0.26432-0.04883 0.37891-0.04883c0.30208 0.000003 0.54297 0.07552 0.72266 0.22656s0.26953 0.35287 0.26953 0.60547c-0.000002 0.11979-0.02279 0.23373-0.06836 0.3418-0.04427 0.10677-0.12565 0.23307-0.24414 0.37891-0.03255 0.03776-0.13607 0.14714-0.31055 0.32812-0.17448 0.17969-0.42057 0.43164-0.73828 0.75586m-2.8184 4.8h0.64453v-2.2246l-0.70117 0.14062v-0.35938l0.69727-0.14062h0.39453v2.584h0.64453v0.33203h-1.6797v-0.33203m2.4902 0.27148v-0.35938c0.09896 0.04687 0.19922 0.08268 0.30078 0.10742s0.20117 0.03711 0.29883 0.03711c0.26042 0 0.45898-0.08724 0.5957-0.26172 0.13802-0.17578 0.2168-0.44206 0.23633-0.79883-0.07552 0.11198-0.17123 0.19792-0.28711 0.25781-0.11589 0.0599-0.24414 0.08984-0.38477 0.08984-0.29167 0.000001-0.52279-0.08789-0.69336-0.26367-0.16927-0.17708-0.25391-0.41862-0.25391-0.72461 0-0.29948 0.08854-0.53971 0.26562-0.7207s0.41276-0.27148 0.70703-0.27148c0.33724 0.000003 0.5944 0.12956 0.77148 0.38867 0.17838 0.25782 0.26758 0.63281 0.26758 1.125-0.000002 0.45964-0.10938 0.82682-0.32812 1.1016-0.219 0.273-0.512 0.41-0.88 0.41-0.09896 0-0.19922-0.0098-0.30078-0.0293-0.103-0.019-0.208-0.048-0.318-0.087m0.78516-1.2363c0.17708 0.000001 0.31706-0.06055 0.41992-0.18164 0.10416-0.12109 0.15625-0.28711 0.15625-0.49805-0.000001-0.20963-0.05209-0.375-0.15625-0.49609-0.10287-0.12239-0.24284-0.18359-0.41992-0.18359-0.17708 0.000002-0.31771 0.0612-0.42188 0.18359-0.10287 0.1211-0.1543 0.28646-0.1543 0.49609-0.000001 0.21094 0.05143 0.37696 0.1543 0.49805 0.10416 0.1211 0.24479 0.18164 0.42188 0.18164m-3.0039 5.7648h1.377v0.33203h-1.8516v-0.33203c0.14974-0.15495 0.35352-0.36263 0.61133-0.62305 0.25911-0.26172 0.42187-0.43034 0.48828-0.50586 0.1263-0.14193 0.21419-0.26172 0.26367-0.35938 0.05078-0.09896 0.07617-0.19596 0.07617-0.29102-0.000002-0.15495-0.05469-0.28125-0.16406-0.37891-0.10808-0.09765-0.24935-0.14648-0.42383-0.14648-0.1237 0.000003-0.25456 0.02149-0.39258 0.06445-0.13672 0.04297-0.2832 0.10808-0.43945 0.19531v-0.39844c0.15885-0.0638 0.30729-0.11198 0.44531-0.14453s0.26432-0.04883 0.37891-0.04883c0.30208 0.000003 0.54297 0.07552 0.72266 0.22656s0.26953 0.35287 0.26953 0.60547c-0.000002 0.11979-0.02279 0.23373-0.06836 0.3418-0.04427 0.10677-0.12565 0.23308-0.24414 0.37891-0.03255 0.03776-0.13607 0.14714-0.31055 0.32812-0.17448 0.17969-0.42057 0.43164-0.73828 0.75586m3.0996-1.2832c-0.17708 0.000001-0.31771 0.06055-0.42188 0.18164-0.10287 0.1211-0.1543 0.28711-0.1543 0.49805-0.000001 0.20964 0.05143 0.37565 0.1543 0.49805 0.10416 0.12109 0.24479 0.18164 0.42188 0.18164 0.17708 0 0.31706-0.06055 0.41992-0.18164 0.10416-0.1224 0.15625-0.28841 0.15625-0.49805-0.000002-0.21094-0.05209-0.37695-0.15625-0.49805-0.10287-0.12109-0.24284-0.18164-0.41992-0.18164m0.7832-1.2363v0.358c-0.09896-0.04687-0.19922-0.08268-0.30078-0.10742-0.10026-0.02474-0.19987-0.03711-0.29883-0.03711-0.26042 0.000003-0.45964 0.08789-0.59766 0.26367-0.13672 0.17578-0.21484 0.44141-0.23438 0.79688 0.07682-0.11328 0.17318-0.19987 0.28906-0.25976 0.11588-0.0612 0.24349-0.09179 0.38281-0.0918 0.29297 0.000002 0.52409 0.08919 0.69336 0.26758 0.17057 0.17708 0.25586 0.41862 0.25586 0.72461-0.000002 0.29948-0.08854 0.53971-0.26562 0.7207s-0.41276 0.27148-0.70703 0.27148c-0.33724 0-0.59505-0.12891-0.77344-0.38672-0.17839-0.25911-0.26758-0.63411-0.26758-1.125 0-0.46094 0.10938-0.82812 0.32812-1.1016 0.21875-0.27474 0.51237-0.41211 0.88086-0.41211 0.09896 0.000003 0.19857 0.0098 0.29883 0.0293 0.10156 0.01953 0.20703 0.04883 0.31641 0.08789"/>
    <path id="text2466" style="fill:#fff" d="m86.807 24.055c-0.17708 0.000001-0.31771 0.06055-0.42188 0.18164-0.10286 0.1211-0.1543 0.28711-0.1543 0.49805-0.000001 0.20964 0.05143 0.37565 0.1543 0.49805 0.10417 0.12109 0.24479 0.18164 0.42188 0.18164 0.17708 0 0.31706-0.06055 0.41992-0.18164 0.10416-0.1224 0.15625-0.28841 0.15625-0.49805-0.000002-0.21094-0.05209-0.37695-0.15625-0.49805-0.103-0.121-0.243-0.182-0.42-0.182m0.7832-1.2363v0.35938c-0.09896-0.04687-0.19922-0.08268-0.30078-0.10742-0.10026-0.02474-0.19987-0.03711-0.29883-0.03711-0.26042 0.000003-0.45964 0.08789-0.59766 0.26367-0.13672 0.17578-0.21484 0.44141-0.23438 0.79688 0.07682-0.11328 0.17318-0.19987 0.28906-0.25976 0.11588-0.0612 0.24349-0.0918 0.38281-0.0918 0.29297 0.000002 0.52409 0.08919 0.69336 0.26758 0.17057 0.17708 0.25586 0.41862 0.25586 0.72461-0.000002 0.29948-0.08854 0.53971-0.26562 0.7207s-0.41276 0.27148-0.70703 0.27148c-0.33724 0-0.59505-0.12891-0.77344-0.38672-0.17838-0.25911-0.26758-0.63411-0.26758-1.125 0-0.46094 0.10938-0.82812 0.32812-1.1016 0.21875-0.27474 0.51237-0.41211 0.88086-0.41211 0.09896 0.000003 0.19857 0.0098 0.29883 0.0293 0.10156 0.01953 0.20703 0.04883 0.31641 0.08789m-2.8809 7.3195h0.64453v-2.2246l-0.70117 0.14062v-0.35938l0.69727-0.14062h0.39453v2.584h0.64453v0.33203h-1.6797v-0.33203m3.6738-1.2402c0.1888 0.04037 0.33594 0.12435 0.44141 0.25195 0.10677 0.1276 0.16015 0.28516 0.16016 0.47266-0.000002 0.28776-0.09896 0.51042-0.29688 0.66797s-0.47917 0.23633-0.84375 0.23633c-0.1224 0-0.2487-0.01237-0.37891-0.03711-0.12891-0.02344-0.26237-0.05925-0.40039-0.10742v-0.38086c0.10938 0.0638 0.22917 0.11198 0.35938 0.14453s0.26628 0.04883 0.4082 0.04883c0.24739 0 0.43554-0.04883 0.56445-0.14648 0.13021-0.09765 0.19531-0.23958 0.19531-0.42578-0.000002-0.17187-0.06055-0.30599-0.18164-0.40234-0.11979-0.09765-0.28711-0.14648-0.50195-0.14648h-0.33984v-0.32422h0.35547c0.19401 0.000002 0.34245-0.03841 0.44531-0.11523 0.10286-0.07812 0.1543-0.1901 0.1543-0.33594-0.000002-0.14974-0.05339-0.26432-0.16016-0.34375-0.10547-0.08073-0.25716-0.12109-0.45508-0.12109-0.10807 0.000002-0.22396 0.01172-0.34766 0.03516s-0.25977 0.0599-0.4082 0.10938v-0.35156c0.14974-0.04166 0.28971-0.07291 0.41992-0.09375 0.13151-0.02083 0.25521-0.03125 0.37109-0.03125 0.29948 0.000003 0.53646 0.06836 0.71094 0.20508 0.17448 0.13542 0.26172 0.31901 0.26172 0.55078-0.000002 0.16146-0.04623 0.29818-0.13867 0.41016-0.09245 0.11068-0.22396 0.1875-0.39453 0.23047m-3.4023 6.0402h1.377v0.33203h-1.8516v-0.33203c0.14974-0.15495 0.35352-0.36263 0.61133-0.62305 0.25911-0.26172 0.42187-0.43034 0.48828-0.50586 0.1263-0.14193 0.21419-0.26172 0.26367-0.35938 0.05078-0.09896 0.07617-0.19596 0.07617-0.29102-0.000002-0.15494-0.05469-0.28125-0.16406-0.37891-0.10807-0.09765-0.24935-0.14648-0.42383-0.14648-0.1237 0.000002-0.25456 0.02149-0.39258 0.06445-0.13672 0.04297-0.2832 0.10808-0.43945 0.19531v-0.39844c0.15885-0.0638 0.30729-0.11198 0.44531-0.14453s0.26432-0.04883 0.37891-0.04883c0.30208 0.000003 0.54297 0.07552 0.72266 0.22656 0.17968 0.15104 0.26953 0.35287 0.26953 0.60547-0.000002 0.11979-0.02279 0.23373-0.06836 0.3418-0.04427 0.10677-0.12565 0.23307-0.24414 0.37891-0.03255 0.03776-0.13607 0.14714-0.31055 0.32812-0.17448 0.17969-0.42057 0.43164-0.73828 0.75586m3.0508-2.3242c-0.20313 0.000003-0.35612 0.10026-0.45898 0.30078-0.10156 0.19922-0.15234 0.49935-0.15234 0.90039-0.000001 0.39974 0.05078 0.69987 0.15234 0.90039 0.10286 0.19922 0.25586 0.29883 0.45898 0.29883 0.20443 0 0.35742-0.09961 0.45898-0.29883 0.10286-0.20052 0.1543-0.50065 0.1543-0.90039-0.000002-0.40104-0.05143-0.70117-0.1543-0.90039-0.10156-0.20052-0.25456-0.30078-0.45898-0.30078m0-0.3125c0.32682 0.000003 0.57617 0.12956 0.74805 0.38867 0.17318 0.25782 0.25976 0.63282 0.25977 1.125-0.000003 0.49089-0.08659 0.86589-0.25977 1.125-0.17188 0.25781-0.42122 0.38672-0.74805 0.38672-0.32682 0-0.57682-0.12891-0.75-0.38672-0.17188-0.25911-0.25781-0.63411-0.25781-1.125-0.000001-0.49218 0.08594-0.86718 0.25781-1.125 0.17318-0.25911 0.42318-0.38867 0.75-0.38867m-3.0508 7.4367h1.377v0.33203h-1.8516v-0.33203c0.14974-0.15495 0.35352-0.36263 0.61133-0.62305 0.25911-0.26172 0.42187-0.43034 0.48828-0.50586 0.1263-0.14192 0.21419-0.26172 0.26367-0.35938 0.05078-0.09896 0.07617-0.19596 0.07617-0.29102-0.000002-0.15495-0.05469-0.28125-0.16406-0.37891-0.10807-0.09765-0.24935-0.14648-0.42383-0.14648-0.1237 0.000003-0.25456 0.02149-0.39258 0.06445-0.13672 0.04297-0.2832 0.10808-0.43945 0.19531v-0.39844c0.15885-0.0638 0.30729-0.11198 0.44531-0.14453s0.26432-0.04883 0.37891-0.04883c0.30208 0.000003 0.54297 0.07552 0.72266 0.22656 0.17968 0.15104 0.26953 0.35287 0.26953 0.60547-0.000002 0.11979-0.02279 0.23373-0.06836 0.3418-0.04427 0.10677-0.12565 0.23307-0.24414 0.37891-0.03255 0.03776-0.13607 0.14714-0.31055 0.32812-0.17448 0.17969-0.42057 0.43164-0.73828 0.75586m2.1074-2.584h1.875v0.16797l-1.0586 2.748h-0.41211l0.99609-2.584h-1.4004v-0.33203"/>
    <path id="text2476" style="fill:#fff" d="m93.448 22.697h1.875v0.16797l-1.0586 2.748h-0.41211l0.99609-2.584h-1.4004v-0.33203m-1.1055 7.384h0.64453v-2.2246l-0.70117 0.14062v-0.35938l0.69727-0.14062h0.39453v2.584h0.64453v0.33203h-1.6797v-0.33203m3.5625-2.2402-0.99609 1.5566h0.99609v-1.5566m-0.10352-0.34375h0.49609v1.9004h0.41602v0.32812h-0.41602v0.6875h-0.39258v-0.6875h-1.3164v-0.38086l1.2129-1.8477m-3.1875 7.384h1.377v0.334h-1.8516v-0.33203c0.14974-0.15495 0.35352-0.36263 0.61133-0.62305 0.25911-0.26172 0.42187-0.43034 0.48828-0.50586 0.1263-0.14192 0.21419-0.26172 0.26367-0.35938 0.05078-0.09896 0.07617-0.19596 0.07617-0.29102-0.000002-0.15495-0.05469-0.28125-0.16406-0.37891-0.10807-0.09765-0.24935-0.14648-0.42383-0.14648-0.1237 0.000003-0.25456 0.02149-0.39258 0.06445-0.13672 0.04297-0.2832 0.10808-0.43945 0.19531v-0.39844c0.15885-0.0638 0.30729-0.11198 0.44531-0.14453s0.26432-0.04883 0.37891-0.04883c0.30208 0.000003 0.54297 0.07552 0.72266 0.22656 0.17968 0.15104 0.26953 0.35287 0.26953 0.60547-0.000002 0.11979-0.02279 0.23373-0.06836 0.3418-0.04427 0.10677-0.12565 0.23307-0.24414 0.37891-0.03255 0.03776-0.13607 0.14714-0.31055 0.32812-0.17448 0.17969-0.42057 0.43164-0.73828 0.75586m2.2754 0h0.64453v-2.2246l-0.70117 0.14062v-0.359l0.697-0.141h0.39453v2.584h0.64453v0.332h-1.6797v-0.33203m-2.2754 4.8h1.377v0.332h-1.8516v-0.33203c0.14974-0.15495 0.35352-0.36263 0.61133-0.62305 0.25911-0.26172 0.42187-0.43034 0.48828-0.50586 0.1263-0.14193 0.21419-0.26172 0.26367-0.35938 0.05078-0.09896 0.07617-0.19596 0.07617-0.29102-0.000002-0.15495-0.05469-0.28125-0.16406-0.37891-0.10807-0.09765-0.24935-0.14648-0.42383-0.14648-0.1237 0.000003-0.25456 0.02149-0.39258 0.06445-0.13672 0.04297-0.2832 0.10808-0.43945 0.19531v-0.39844c0.15885-0.0638 0.30729-0.11198 0.44531-0.14453s0.26432-0.04883 0.37891-0.04883c0.30208 0.000003 0.54297 0.07552 0.72266 0.22656 0.17968 0.15104 0.26953 0.35287 0.26953 0.60547-0.000002 0.11979-0.02279 0.23373-0.06836 0.3418-0.04427 0.10677-0.12565 0.23308-0.24414 0.37891-0.03255 0.03776-0.13607 0.14714-0.31055 0.32812-0.17448 0.17969-0.42057 0.43164-0.73828 0.75586m3.0508-1.0527c-0.1875 0.000002-0.33529 0.05013-0.44336 0.15039-0.10677 0.10026-0.16016 0.23828-0.16016 0.41406-0.000001 0.17578 0.05338 0.3138 0.16016 0.41406 0.10807 0.10026 0.25586 0.15039 0.44336 0.15039s0.33528-0.05013 0.44336-0.15039c0.10807-0.10156 0.16211-0.23958 0.16211-0.41406-0.000002-0.17578-0.05404-0.3138-0.16211-0.41406-0.10677-0.10026-0.25456-0.15039-0.44336-0.15039m-0.39453-0.16797c-0.16927-0.04166-0.30143-0.12044-0.39648-0.23633-0.09375-0.11588-0.14063-0.25716-0.14062-0.42383-0.000001-0.23307 0.08268-0.41732 0.24805-0.55273 0.16667-0.13541 0.39453-0.20312 0.68359-0.20312 0.29036 0.000003 0.51823 0.06771 0.68359 0.20312 0.16536 0.13542 0.24804 0.31966 0.24805 0.55273-0.000002 0.16667-0.04753 0.30794-0.14258 0.42383-0.09375 0.11589-0.22461 0.19466-0.39258 0.23633 0.1901 0.04427 0.33789 0.13086 0.44336 0.25976 0.10677 0.12891 0.16015 0.28646 0.16016 0.47266-0.000002 0.28255-0.08659 0.49935-0.25976 0.65039-0.17188 0.15104-0.41862 0.22656-0.74024 0.22656s-0.56901-0.07552-0.74219-0.22656c-0.17188-0.15104-0.25781-0.36784-0.25781-0.65039 0-0.1862 0.05339-0.34375 0.16016-0.47266 0.10677-0.1289 0.25521-0.21549 0.44531-0.25976m-0.14453-0.62305c-0.000001 0.15104 0.04687 0.26888 0.14062 0.35352 0.09505 0.08464 0.22786 0.12696 0.39844 0.12695 0.16927 0.000001 0.30143-0.04232 0.39648-0.12695 0.09635-0.08463 0.14453-0.20247 0.14453-0.35352-0.000002-0.15104-0.04818-0.26888-0.14453-0.35352-0.09505-0.08463-0.22722-0.12695-0.39648-0.12695-0.17057 0.000003-0.30339 0.04232-0.39844 0.12695-0.09375 0.08464-0.14063 0.20248-0.14062 0.35352"/>
    <path id="text2486" style="fill:#fff" d="m101.3 20.481h0.64453v-2.2246l-0.70117 0.14062v-0.35938l0.69727-0.14062h0.39453v2.584h0.64453v0.33203h-1.6797v-0.33203m0.77539 3.7473c-0.1875 0.000001-0.33528 0.05013-0.44336 0.15039-0.10677 0.10026-0.16015 0.23828-0.16015 0.41406s0.0534 0.3138 0.16015 0.41406c0.10808 0.10026 0.25586 0.15039 0.44336 0.15039s0.33529-0.05013 0.44336-0.15039c0.10807-0.10156 0.16211-0.23958 0.16211-0.41406 0-0.17578-0.054-0.3138-0.16211-0.41406-0.10677-0.10026-0.25456-0.15039-0.44336-0.15039m-0.39453-0.16797c-0.16927-0.04167-0.30143-0.12044-0.39648-0.23633-0.0937-0.11588-0.14063-0.25716-0.14063-0.42383 0-0.23307 0.0827-0.41732 0.24805-0.55274 0.16667-0.13541 0.39453-0.20312 0.68359-0.20312 0.29037 0.000003 0.51823 0.06771 0.6836 0.20312 0.16536 0.13542 0.24804 0.31966 0.24804 0.55274 0 0.16667-0.0475 0.30794-0.14257 0.42383-0.0938 0.11589-0.22461 0.19466-0.39258 0.23633 0.1901 0.04427 0.33789 0.13086 0.44336 0.25977 0.10677 0.12891 0.16015 0.28646 0.16015 0.47266 0 0.28255-0.0866 0.49935-0.25976 0.65039-0.17188 0.15104-0.41862 0.22656-0.74024 0.22656-0.32161 0-0.56901-0.07552-0.74218-0.22656-0.17188-0.15104-0.25782-0.36784-0.25782-0.65039 0-0.1862 0.0534-0.34375 0.16016-0.47266 0.10677-0.1289 0.25521-0.21549 0.44531-0.25977m-0.14453-0.62305c0 0.15104 0.0469 0.26888 0.14063 0.35352 0.0951 0.08464 0.22786 0.12696 0.39843 0.12695 0.16927 0.000002 0.30143-0.04232 0.39649-0.12695 0.0964-0.08463 0.14453-0.20247 0.14453-0.35352 0-0.15104-0.0482-0.26888-0.14453-0.35352-0.0951-0.08463-0.22722-0.12695-0.39649-0.12695-0.17057 0.000003-0.30338 0.04232-0.39843 0.12695-0.0937 0.08464-0.14063 0.20248-0.14063 0.35352m-1.5098 6.6438h0.64453v-2.2246l-0.70118 0.14062v-0.35938l0.69726-0.14062h0.39453v2.584h0.64453v0.33203h-1.6797v-0.33203m2.4824-2.584h1.5488v0.33203h-1.1875v0.71484c0.0573-0.01953 0.11458-0.03385 0.17187-0.04297 0.0573-0.01041 0.11458-0.01562 0.17188-0.01563 0.32552 0.000002 0.58333 0.0892 0.77343 0.26758 0.19011 0.17839 0.28516 0.41992 0.28516 0.72461 0 0.3138-0.0977 0.55794-0.29297 0.73242-0.19531 0.17318-0.4707 0.25976-0.82617 0.25976-0.1224 0-0.2474-0.01042-0.375-0.03125-0.1263-0.02083-0.25716-0.05208-0.39258-0.09375v-0.39648c0.11719 0.0638 0.23828 0.11133 0.36328 0.14258s0.25716 0.04687 0.39649 0.04687c0.22526 0 0.40364-0.05924 0.53515-0.17773s0.19727-0.2793 0.19727-0.48242-0.0658-0.36393-0.19727-0.48242c-0.13151-0.11849-0.30989-0.17773-0.53515-0.17773-0.10547 0.000001-0.21094 0.01172-0.31641 0.03516-0.10417 0.02344-0.21094 0.0599-0.32031 0.10938v-1.4648m-2.2109 7.384h1.377v0.33203h-1.8516v-0.33203c0.14974-0.15495 0.35352-0.36263 0.61133-0.62305 0.25911-0.26172 0.42187-0.43034 0.48828-0.50586 0.1263-0.14192 0.21419-0.26172 0.26367-0.35938 0.0508-0.09896 0.0762-0.19596 0.0762-0.29102 0-0.15495-0.0547-0.28125-0.16406-0.37891-0.10807-0.09765-0.24935-0.14648-0.42383-0.14648-0.1237 0.000003-0.25455 0.02149-0.39257 0.06445-0.13672 0.04297-0.28321 0.10808-0.43946 0.19531v-0.39844c0.15885-0.0638 0.30729-0.11198 0.44531-0.14453s0.26433-0.04883 0.37891-0.04883c0.30208 0.000003 0.54297 0.07552 0.72266 0.22656 0.17968 0.15104 0.26953 0.35287 0.26953 0.60547 0 0.11979-0.0228 0.23373-0.0684 0.3418-0.0443 0.10677-0.12565 0.23307-0.24414 0.37891-0.0326 0.03776-0.13607 0.14714-0.31055 0.32812-0.17448 0.17969-0.42057 0.43164-0.73828 0.75586m2.5469 0h1.377v0.33203h-1.8516v-0.33203c0.14974-0.15495 0.35351-0.36263 0.61132-0.62305 0.25912-0.26172 0.42188-0.43034 0.48829-0.50586 0.1263-0.14192 0.21419-0.26172 0.26367-0.35938 0.0508-0.09896 0.0762-0.19596 0.0762-0.29102 0-0.15495-0.0547-0.28125-0.16406-0.37891-0.10808-0.09765-0.24935-0.14648-0.42383-0.14648-0.1237 0.000003-0.25456 0.02149-0.39258 0.06445-0.13672 0.04297-0.2832 0.10808-0.43945 0.19531v-0.39844c0.15885-0.0638 0.30729-0.11198 0.44531-0.14453s0.26432-0.04883 0.37891-0.04883c0.30208 0.000003 0.54296 0.07552 0.72265 0.22656s0.26953 0.35287 0.26953 0.60547c0 0.11979-0.0228 0.23373-0.0684 0.3418-0.0443 0.10677-0.12565 0.23307-0.24414 0.37891-0.0326 0.03776-0.13607 0.14714-0.31054 0.32812-0.17448 0.17969-0.42058 0.43164-0.73828 0.75586m-2.5469 4.8h1.377v0.33203h-1.8516v-0.33203c0.14974-0.15495 0.35352-0.36263 0.61133-0.62305 0.25911-0.26172 0.42187-0.43034 0.48828-0.50586 0.1263-0.14193 0.21419-0.26172 0.26367-0.35938 0.0508-0.09896 0.0762-0.19596 0.0762-0.29102 0-0.15495-0.0547-0.28125-0.16406-0.37891-0.10807-0.09765-0.24935-0.14648-0.42383-0.14648-0.1237 0.000003-0.25455 0.02149-0.39257 0.06445-0.13672 0.04297-0.28321 0.10808-0.43946 0.19531v-0.39844c0.15885-0.0638 0.30729-0.11198 0.44531-0.14453s0.26433-0.04883 0.37891-0.04883c0.30208 0.000003 0.54297 0.07552 0.72266 0.22656 0.17968 0.15104 0.26953 0.35287 0.26953 0.60547 0 0.11979-0.0228 0.23373-0.0684 0.3418-0.0443 0.10677-0.12565 0.23308-0.24414 0.37891-0.0326 0.03776-0.13607 0.14714-0.31055 0.32812-0.17448 0.17969-0.42057 0.43164-0.73828 0.75586m2.2188 0.27148v-0.35938c0.099 0.04688 0.19922 0.08268 0.30078 0.10742s0.20117 0.03711 0.29883 0.03711c0.26042 0.000001 0.45898-0.08724 0.5957-0.26172 0.13802-0.17578 0.2168-0.44206 0.23633-0.79883-0.0755 0.11198-0.17122 0.19792-0.28711 0.25781-0.11589 0.0599-0.24414 0.08984-0.38476 0.08984-0.29167 0.000001-0.52279-0.08789-0.69336-0.26367-0.16927-0.17708-0.25391-0.41862-0.25391-0.72461 0-0.29948 0.0885-0.53971 0.26563-0.7207 0.17708-0.18099 0.41275-0.27148 0.70703-0.27148 0.33723 0.000003 0.5944 0.12956 0.77148 0.38867 0.17838 0.25782 0.26758 0.63281 0.26758 1.125 0 0.45964-0.10938 0.82682-0.32813 1.1016-0.21745 0.27344-0.51041 0.41016-0.8789 0.41016-0.099 0-0.19922-0.0098-0.30078-0.0293-0.10157-0.01953-0.20704-0.04883-0.31641-0.08789m0.78516-1.2363c0.17708 0.000001 0.31705-0.06055 0.41992-0.18164 0.10416-0.12109 0.15625-0.28711 0.15625-0.49805 0-0.20963-0.0521-0.375-0.15625-0.49609-0.10287-0.12239-0.24284-0.18359-0.41992-0.18359-0.17709 0.000003-0.31771 0.0612-0.42188 0.18359-0.10286 0.1211-0.1543 0.28646-0.1543 0.49609 0 0.21094 0.0514 0.37695 0.1543 0.49805 0.10417 0.1211 0.24479 0.18164 0.42188 0.18164"/>
    <path id="text2498" style="fill:#fff" d="m109.21 20.481h1.377v0.33203h-1.8516v-0.332c0.14974-0.15495 0.35352-0.36263 0.61133-0.62305 0.25911-0.26172 0.42187-0.43034 0.48828-0.50586 0.1263-0.14193 0.21419-0.26172 0.26367-0.35938 0.0508-0.09896 0.0762-0.19596 0.0762-0.29102 0-0.15494-0.0547-0.28125-0.16406-0.37891-0.10807-0.09765-0.24935-0.14648-0.42383-0.14648-0.1237 0.000002-0.25455 0.02149-0.39257 0.06445-0.13672 0.04297-0.28321 0.10808-0.43946 0.19531v-0.39844c0.15886-0.0638 0.30729-0.11198 0.44531-0.14453s0.26433-0.04883 0.37891-0.04883c0.30208 0.000003 0.54297 0.07552 0.72266 0.22656 0.17968 0.15104 0.26953 0.35287 0.26953 0.60547 0 0.11979-0.0228 0.23372-0.0684 0.3418-0.0443 0.10677-0.12565 0.23308-0.24414 0.37891-0.0326 0.03776-0.13607 0.14714-0.31055 0.32812-0.17448 0.17969-0.42057 0.43164-0.73828 0.75586m-0.32812 5.0715v-0.359c0.099 0.04687 0.19921 0.08268 0.30078 0.10742 0.10156 0.02474 0.20117 0.03711 0.29882 0.03711 0.26042 0 0.45899-0.08724 0.59571-0.26172 0.13802-0.17578 0.21679-0.44206 0.23633-0.79883-0.0755 0.11198-0.17123 0.19792-0.28711 0.25781-0.11589 0.0599-0.24415 0.08984-0.38477 0.08984-0.29167 0.000001-0.52279-0.08789-0.69336-0.26367-0.16927-0.17708-0.2539-0.41862-0.2539-0.72461 0-0.29948 0.0885-0.53971 0.26562-0.7207 0.17708-0.18099 0.41276-0.27148 0.70703-0.27148 0.33724 0.000003 0.5944 0.12956 0.77149 0.38867 0.17838 0.25782 0.26757 0.63282 0.26757 1.125 0 0.45964-0.10937 0.82682-0.32812 1.1016-0.21745 0.27344-0.51042 0.41016-0.87891 0.41016-0.099 0-0.19922-0.0098-0.30078-0.0293-0.10156-0.01953-0.20703-0.04883-0.3164-0.08789m0.78515-1.2363c0.17708 0.000002 0.31706-0.06055 0.41992-0.18164 0.10417-0.12109 0.15625-0.28711 0.15625-0.49805 0-0.20963-0.0521-0.375-0.15625-0.49609-0.10286-0.12239-0.24284-0.18359-0.41992-0.18359-0.17708 0.000003-0.31771 0.0612-0.42187 0.18359-0.10287 0.1211-0.1543 0.28646-0.1543 0.49609 0 0.21094 0.0514 0.37696 0.1543 0.49805 0.10416 0.1211 0.24479 0.18164 0.42187 0.18164m-2.002 5.7648h0.64453v-2.2246l-0.70117 0.14062v-0.35938l0.69726-0.14062h0.39453v2.584h0.64454v0.33203h-1.6797v-0.33203m3.3711-1.2832c-0.17708 0.000002-0.31771 0.06055-0.42187 0.18164-0.10287 0.1211-0.1543 0.28711-0.1543 0.49805 0 0.20964 0.0514 0.37565 0.1543 0.49805 0.10416 0.12109 0.24479 0.18164 0.42187 0.18164 0.17708 0.000001 0.31706-0.06055 0.41992-0.18164 0.10417-0.1224 0.15625-0.28841 0.15625-0.49805 0-0.21094-0.0521-0.37695-0.15625-0.49805-0.10286-0.12109-0.24284-0.18164-0.41992-0.18164m0.78321-1.2363v0.35938c-0.099-0.04687-0.19923-0.08268-0.30079-0.10742-0.10026-0.02474-0.19987-0.03711-0.29882-0.03711-0.26042 0.000003-0.45964 0.08789-0.59766 0.26367-0.13672 0.17578-0.21484 0.44141-0.23438 0.79688 0.0768-0.11328 0.17318-0.19987 0.28907-0.25977 0.11588-0.0612 0.24349-0.0918 0.38281-0.0918 0.29297 0.000002 0.52409 0.0892 0.69336 0.26758 0.17057 0.17708 0.25586 0.41862 0.25586 0.72461 0 0.29948-0.0885 0.53971-0.26563 0.7207-0.17708 0.18099-0.41276 0.27148-0.70703 0.27148-0.33724 0-0.59505-0.12891-0.77344-0.38672-0.17838-0.25911-0.26757-0.63411-0.26757-1.125 0-0.46094 0.10937-0.82812 0.32812-1.1016 0.21875-0.27474 0.51237-0.41211 0.88086-0.41211 0.099 0.000003 0.19857 0.0098 0.29883 0.0293 0.10156 0.01953 0.20703 0.04883 0.31641 0.08789m-3.8828 7.3195h1.377v0.33203h-1.8516v-0.33203c0.14974-0.15495 0.35352-0.36263 0.61133-0.62305 0.25911-0.26172 0.42188-0.43034 0.48828-0.50586 0.1263-0.14192 0.21419-0.26172 0.26367-0.35938 0.0508-0.09896 0.0762-0.19596 0.0762-0.29102-0.00001-0.15495-0.0547-0.28125-0.16407-0.37891-0.10807-0.09765-0.24935-0.14648-0.42382-0.14648-0.1237 0.000003-0.25456 0.02149-0.39258 0.06445-0.13672 0.04297-0.28321 0.10808-0.43946 0.19531v-0.39844c0.15886-0.0638 0.3073-0.11198 0.44532-0.14453s0.26432-0.04883 0.3789-0.04883c0.30209 0.000003 0.54297 0.07552 0.72266 0.22656s0.26953 0.35287 0.26953 0.60547c0 0.11979-0.0228 0.23373-0.0684 0.3418-0.0443 0.10677-0.12565 0.23307-0.24414 0.37891-0.0326 0.03776-0.13607 0.14714-0.31055 0.32812-0.17448 0.17969-0.42057 0.43164-0.73828 0.75586m3.4024-1.2402c0.1888 0.04037 0.33593 0.12435 0.4414 0.25195 0.10677 0.12761 0.16016 0.28516 0.16016 0.47266 0 0.28776-0.099 0.51042-0.29688 0.66797-0.19791 0.15755-0.47916 0.23633-0.84375 0.23633-0.12239-0.000001-0.24869-0.01237-0.3789-0.03711-0.12891-0.02344-0.26237-0.05924-0.40039-0.10742v-0.38086c0.10937 0.0638 0.22916 0.11198 0.35937 0.14453s0.26628 0.04883 0.40821 0.04883c0.24739 0.000001 0.43554-0.04883 0.56445-0.14648 0.13021-0.09766 0.19531-0.23958 0.19531-0.42578 0-0.17187-0.0606-0.30599-0.18164-0.40234-0.11979-0.09765-0.28711-0.14648-0.50195-0.14648h-0.33985v-0.32422h0.35547c0.19401 0.000001 0.34245-0.03841 0.44531-0.11524 0.10287-0.07812 0.1543-0.1901 0.1543-0.33594 0-0.14974-0.0534-0.26432-0.16015-0.34375-0.10547-0.08073-0.25717-0.12109-0.45508-0.12109-0.10808 0.000003-0.22396 0.01172-0.34766 0.03516s-0.25977 0.0599-0.4082 0.10938v-0.35156c0.14974-0.04166 0.28971-0.07291 0.41992-0.09375 0.13151-0.02083 0.25521-0.03125 0.37109-0.03125 0.29948 0.000003 0.53646 0.06836 0.71094 0.20508 0.17448 0.13542 0.26172 0.31901 0.26172 0.55078 0 0.16146-0.0462 0.29818-0.13867 0.41016-0.0925 0.11068-0.22396 0.1875-0.39453 0.23047m-2.5469 4.8c0.1888 0.04037 0.33594 0.12435 0.44141 0.25195 0.10677 0.1276 0.16015 0.28516 0.16015 0.47266 0 0.28776-0.099 0.51042-0.29687 0.66797-0.19792 0.15755-0.47917 0.23633-0.84375 0.23633-0.1224 0-0.2487-0.01237-0.37891-0.03711-0.1289-0.02344-0.26237-0.05924-0.40039-0.10742v-0.38086c0.10938 0.0638 0.22917 0.11198 0.35938 0.14453 0.1302 0.03255 0.26627 0.04883 0.4082 0.04883 0.24739 0.000001 0.43555-0.04883 0.56445-0.14648 0.13021-0.09766 0.19531-0.23958 0.19532-0.42578-0.00001-0.17187-0.0606-0.30599-0.18164-0.40234-0.1198-0.09766-0.28712-0.14648-0.50196-0.14648h-0.33984v-0.32422h0.35547c0.19401 0.000002 0.34244-0.03841 0.44531-0.11523 0.10286-0.07812 0.15429-0.1901 0.1543-0.33594-0.00001-0.14974-0.0534-0.26432-0.16016-0.34375-0.10547-0.08073-0.25716-0.12109-0.45508-0.12109-0.10807 0.000003-0.22396 0.01172-0.34765 0.03516-0.1237 0.02344-0.25977 0.0599-0.40821 0.10938v-0.35156c0.14974-0.04166 0.28972-0.07291 0.41992-0.09375 0.13151-0.02083 0.25521-0.03125 0.3711-0.03125 0.29948 0.000003 0.53646 0.06836 0.71094 0.20508 0.17447 0.13542 0.26171 0.31901 0.26171 0.55078 0 0.16146-0.0462 0.29818-0.13867 0.41016-0.0924 0.11068-0.22396 0.1875-0.39453 0.23047m2.1953-1.084c-0.20312 0.000003-0.35612 0.10026-0.45898 0.30078-0.10156 0.19922-0.15234 0.49935-0.15234 0.90039 0 0.39974 0.0508 0.69987 0.15234 0.90039 0.10286 0.19922 0.25586 0.29883 0.45898 0.29883 0.20443 0 0.35742-0.09961 0.45899-0.29883 0.10286-0.20052 0.15429-0.50065 0.1543-0.90039-0.00001-0.40104-0.0514-0.70117-0.1543-0.90039-0.10157-0.20052-0.25456-0.30078-0.45899-0.30078m0-0.3125c0.32683 0.000003 0.57617 0.12956 0.74805 0.38867 0.17318 0.25782 0.25976 0.63281 0.25977 1.125-0.00001 0.49089-0.0866 0.86589-0.25977 1.125-0.17188 0.25781-0.42122 0.38672-0.74805 0.38672-0.32682 0-0.57682-0.12891-0.75-0.38672-0.17187-0.25911-0.25781-0.63411-0.25781-1.125 0-0.49219 0.0859-0.86718 0.25781-1.125 0.17318-0.25911 0.42318-0.38867 0.75-0.38867"/>
   </g>
   <g id="g3683" transform="matrix(1.1103 0 0 1.1103 7.4347 963.31)">
    <path id="path3933" style="fill:#fff" d="m15.79 26.17c-0.39985 0-0.75632-0.04149-1.0694-0.12448-0.31309-0.08299-0.58469-0.21501-0.81479-0.39608-0.2301-0.18106-0.4206-0.41494-0.57148-0.70162-0.147-0.29-0.259-0.641-0.334-1.052l1.6579-0.24331c0.03773 0.22256 0.09053 0.41117 0.15843 0.56583 0.0679 0.15089 0.149 0.27537 0.2433 0.37344 0.09807 0.09431 0.20935 0.16409 0.33384 0.20936 0.12448 0.04151 0.26028 0.06224 0.4074 0.06224 0.33195 0.000001 0.5828-0.11128 0.75255-0.33384 0.17352-0.22256 0.26028-0.5413 0.26028-0.95625v-4.1815h-1.59v-1.3071h3.2535v5.4489c-0.000005 0.40362-0.05847 0.76952-0.1754 1.0977-0.11694 0.32441-0.29046 0.60166-0.52056 0.83176-0.22633 0.22633-0.50736 0.40174-0.84308 0.52622-0.33195 0.12071-0.71483 0.18106-1.1486 0.18106"/>
    <path id="path3935" style="fill:#fff" d="m25.685 26.06-0.69205-1.9931h-2.973l-0.692 1.993h-1.6332l2.8457-7.8008h1.9267l2.8346 7.8008h-1.6166m-1.827-5.4644c-0.04429-0.12918-0.08859-0.25836-0.13287-0.38755-0.0406-0.13287-0.07751-0.25282-0.11073-0.35987-0.02953-0.11072-0.05537-0.20115-0.07751-0.27128-0.01846-0.07012-0.02953-0.10888-0.03322-0.11626-0.0037 0.01108-0.01477 0.05168-0.03322 0.1218-0.01845 0.07013-0.04429 0.15872-0.07751 0.26575-0.02953 0.10704-0.06644 0.227-0.11073 0.35987-0.0406 0.12919-0.08305 0.25837-0.12734 0.38755l-0.76956 2.2422h2.2422l-0.76956-2.2422"/>
    <path id="path3937" style="fill:#fff" d="m33.419 26.06-3.7243-6.007c0.02021 0.16241 0.03841 0.32481 0.0546 0.4872 0.01618 0.14026 0.02831 0.29159 0.03639 0.45398 0.01213 0.16241 0.0182 0.31743 0.0182 0.46506v4.6007h-1.5892v-7.8008h2.0441l3.7788 6.0568c-0.021-0.155-0.039-0.318-0.055-0.488-0.016-0.144-0.031-0.306-0.043-0.487-0.008-0.181-0.012-0.363-0.012-0.548v-4.5343h1.5892v7.8008h-2.0987"/>
   </g>
   <g id="g6474" transform="translate(0,-6)">
    <path id="path3947" style="opacity:.8" d="m46.152 1019.4c-0.000025 2.7862-0.2552 5.1379-0.76552 7.0552-0.51037 1.9035-1.2207 3.4483-2.131 4.6345-0.89658 1.1724-1.9655 2.0207-3.2069 2.5448-1.228 0.51-2.573 0.765-4.035 0.765s-2.807-0.255-4.035-0.766c-1.227-0.51-2.282-1.351-3.165-2.524-0.883-1.186-1.573-2.731-2.069-4.634-0.497-1.917-0.745-4.276-0.745-7.076 0-2.9379 0.24138-5.3655 0.72414-7.2828 0.49654-1.931 1.1931-3.4689 2.0896-4.6138 0.89655-1.1448 1.9655-1.9448 3.2069-2.4 1.255-0.468 2.641-0.703 4.158-0.703 1.4207 0 2.7379 0.2345 3.9517 0.7034 1.2276 0.4552 2.2827 1.2552 3.1655 2.4 0.89653 1.1449 1.5931 2.6828 2.0897 4.6138 0.51032 1.9173 0.76549 4.3448 0.76552 7.2828m-5.8345 0c-0.000016-2.0552-0.07592-3.7517-0.22758-5.0897-0.15174-1.3517-0.39312-2.4207-0.72414-3.2069-0.33105-0.7999-0.76553-1.3586-1.3034-1.6759-0.52415-0.3172-1.1655-0.4758-1.9241-0.4758-0.81381 0-1.4966 0.1655-2.0483 0.4965-0.55173 0.3173-1 0.8759-1.3448 1.6759-0.33104 0.8-0.57242 1.8759-0.72413 3.2276-0.137 1.338-0.206 3.02-0.206 5.048-0.000009 2 0.07583 3.669 0.22758 5.0069 0.15172 1.3379 0.3931 2.4138 0.72414 3.2276 0.33102 0.8 0.76551 1.3655 1.3034 1.6966 0.53792 0.3311 1.2 0.4966 1.9862 0.4966 0.75861 0 1.4069-0.1655 1.9448-0.4966 0.53792-0.331 0.97929-0.8965 1.3241-1.6966 0.34482-0.8138 0.59309-1.8896 0.74483-3.2276 0.1655-1.3379 0.24826-3.0069 0.24828-5.0069"/>
    <path id="path3949" style="opacity:.8" d="m53.286 1034.4v-4.45h5.7156v-19.604l-5.4814 4.4925v-5.563l5.8008-4.8758h5.6636v25.55h5.1621v4.45h-16.861"/>
   </g>
   <g id="layer5" transform="translate(0 956.36)">
    <rect id="rect3171" style="opacity:.1;filter:url(#filter3794-24);stroke:#fff;stroke-linecap:round;stroke-width:.5;fill:url(#linearGradient3220-6)" clip-path="url(#clipPath3613-22)" rx="12" ry="12" height="66" width="66" y="15" x="15"/>
   </g>
  </g>
 </g>
</svg>
