<?xml version="1.0" encoding="UTF-8" standalone="no"?>
<!-- Created with Inkscape (http://www.inkscape.org/) -->
<svg id="svg2" xmlns:rdf="http://www.w3.org/1999/02/22-rdf-syntax-ns#" xmlns="http://www.w3.org/2000/svg" height="96" width="96" version="1.1" xmlns:cc="http://creativecommons.org/ns#" xmlns:xlink="http://www.w3.org/1999/xlink" xmlns:dc="http://purl.org/dc/elements/1.1/">
 <defs id="defs4">
  <filter id="filter6279" color-interpolation-filters="sRGB">
   <feGaussianBlur id="feGaussianBlur6281" stdDeviation="0.8"/>
  </filter>
  <linearGradient id="linearGradient5690" x1="48" gradientUnits="userSpaceOnUse" y1="1052.4" gradientTransform="translate(0 -.0000078516)" x2="48" y2="902.36">
   <stop id="stop4982" style="stop-color:#74c332" offset="0"/>
   <stop id="stop4984" style="stop-color:#9ecd5e" offset="1"/>
  </linearGradient>
  <radialGradient id="radialGradient5705" fy="276.16" gradientUnits="userSpaceOnUse" cy="205.86" cx="370.5" gradientTransform="matrix(.37166 -8.3407e-7 6.5045e-7 .28861 -89.638 958.01)" r="95.5">
   <stop id="stop4875" style="stop-color:#ffe957" offset="0"/>
   <stop id="stop4877" style="stop-color:#f9ff81;stop-opacity:0" offset="1"/>
  </radialGradient>
  <linearGradient id="linearGradient5702" x1="373.12" gradientUnits="userSpaceOnUse" y1="91.875" gradientTransform="matrix(.28860 0 0 .28861 -56.881 950.22)" x2="363.62" y2="258.55">
   <stop id="stop4789" style="stop-color:#fff" offset="0"/>
   <stop id="stop4791" style="stop-color:#fff;stop-opacity:0" offset="1"/>
  </linearGradient>
 </defs>
 <metadata id="metadata7">
  <rdf:RDF>
   <cc:Work rdf:about="">
    <dc:format>image/svg+xml</dc:format>
    <dc:type rdf:resource="http://purl.org/dc/dcmitype/StillImage"/>
    <dc:title/>
   </cc:Work>
  </rdf:RDF>
 </metadata>
 <g id="layer1" transform="translate(0 -956.36)">
  <g id="g6479" transform="translate(2.861e-8 -.0000097370)">
   <rect id="rect9283" ry="5" style="filter:url(#filter6279)" rx="5" transform="translate(0 -.0000078516)" height="80" width="80" y="964.36" x="8"/>
   <rect id="rect9285" style="fill:url(#linearGradient5690)" rx="5" ry="5" height="80" width="80" y="964.36" x="8"/>
   <g id="g6475">
    <path id="path3126" style="opacity:.3;fill:url(#radialGradient5705);fill-rule:evenodd" d="m48.062 989.86c-15.222 0-27.562 12.34-27.562 27.562 0 0.069-0.000506 0.1363 0 0.2051v10.295c0 2.1814 1.7561 3.9375 3.9375 3.9375h47.249c2.1813 0 3.9375-1.7561 3.9375-3.9375v-10.295c0.000505-0.069 0-0.1362 0-0.2051 0-15.222-12.34-27.562-27.562-27.562z"/>
    <path id="path3132" style="opacity:.3;fill:url(#linearGradient5702);fill-rule:evenodd" d="m24.438 976.74c-2.1813 0-3.9375 1.7561-3.9375 3.9375v23.338c-0.000985 0.096 0 0.1907 0 0.2871 0 0.034-0.000118 0.069 0 0.1025 11.48-3.1168 27.586-3.5973 49.608 3.0762 1.7576 0.5326 3.4557 0.9911 5.1269 1.3945 0.06914-0.413 0.13406-0.8324 0.18457-1.2509l0.20508 0.1435v-27.091c0-2.1814-1.7561-3.9375-3.9375-3.9375h-47.25z"/>
   </g>
   <path id="path3128" style="fill:#fff;fill-rule:evenodd" d="m32.785 982.07c-3.8606 2.229-3.8606 42.351 0 44.58s38.606-17.832 38.606-22.29c0-4.4579-34.745-24.519-38.606-22.29z"/>
  </g>
 </g>
</svg>
