<?xml version="1.0" encoding="UTF-8" standalone="no"?>
<!-- Created with Inkscape (http://www.inkscape.org/) -->
<svg id="svg2" xmlns:rdf="http://www.w3.org/1999/02/22-rdf-syntax-ns#" xmlns="http://www.w3.org/2000/svg" height="96" width="96" version="1.1" xmlns:cc="http://creativecommons.org/ns#" xmlns:xlink="http://www.w3.org/1999/xlink" xmlns:dc="http://purl.org/dc/elements/1.1/">
 <defs id="defs4">
  <filter id="filter6279" color-interpolation-filters="sRGB">
   <feGaussianBlur id="feGaussianBlur6281" stdDeviation="0.8"/>
  </filter>
  <linearGradient id="linearGradient5801" x1="48" gradientUnits="userSpaceOnUse" y1="1052.4" gradientTransform="translate(0 -.0000078516)" x2="48" y2="902.36">
   <stop id="stop3690-7" style="stop-color:#b30707" offset="0"/>
   <stop id="stop3692-5" style="stop-color:#e42c0d" offset="1"/>
  </linearGradient>
  <linearGradient id="linearGradient5700" x1="62.337" gradientUnits="userSpaceOnUse" y1="79.015" gradientTransform="matrix(.56905 0 0 .58994 18.518 983.24)" x2="62.337" y2="12.798">
   <stop id="stop3696-3" style="stop-color:#e6e6e6" offset="0"/>
   <stop id="stop3698-1" style="stop-color:#f5f5f5" offset="1"/>
  </linearGradient>
  <linearGradient id="linearGradient6649" x1="50.464" gradientUnits="userSpaceOnUse" y1="16.036" gradientTransform="translate(98.725 969.87)" x2="50.464" y2="20.33">
   <stop id="stop4316" style="stop-color:#fff" offset="0"/>
   <stop id="stop4322" style="stop-color:#fff;stop-opacity:.49804" offset=".3"/>
   <stop id="stop4318" style="stop-color:#fff;stop-opacity:0" offset="1"/>
  </linearGradient>
  <linearGradient id="linearGradient6651" x1="48" xlink:href="#linearGradient3260" gradientUnits="userSpaceOnUse" y1="16" gradientTransform="matrix(1 0 0 1.25 98.725 965.95)" x2="48" y2="11.925"/>
  <linearGradient id="linearGradient3260" gradientUnits="userSpaceOnUse">
   <stop id="stop3262-2" offset="0"/>
   <stop id="stop3266-8" style="stop-opacity:.35484" offset=".2"/>
   <stop id="stop3268-4" style="stop-opacity:0" offset=".55255"/>
   <stop id="stop3264-7" style="stop-opacity:0" offset="1"/>
  </linearGradient>
  <linearGradient id="linearGradient6653" x1="48" xlink:href="#linearGradient3260" gradientUnits="userSpaceOnUse" y1="16" gradientTransform="matrix(1 0 0 1.25 98.725 974.95)" x2="48" y2="11.925"/>
  <linearGradient id="linearGradient6655" x1="11" gradientUnits="userSpaceOnUse" y1="10.442" gradientTransform="matrix(.81331 0 0 .81133 102.72 972.57)" x2="16" y2="24">
   <stop id="stop3275-2" style="stop-color:#5d5d5d" offset="0"/>
   <stop id="stop3277-9" style="stop-color:#171717" offset="1"/>
  </linearGradient>
  <linearGradient id="linearGradient6657" x1="13.125" gradientUnits="userSpaceOnUse" y1="9.9419" gradientTransform="matrix(.81331 0 0 .81133 102.72 972.57)" x2="19.25" y2="24.5">
   <stop id="stop3291-9" style="stop-color:#919191" offset="0"/>
   <stop id="stop3293-0" style="stop-color:#232323" offset="1"/>
  </linearGradient>
  <radialGradient id="radialGradient6659" xlink:href="#linearGradient3299-8" gradientUnits="userSpaceOnUse" cy="14.938" cx="11.312" gradientTransform="matrix(.81331 0 0 .81133 102.31 971.62)" r="1.4375"/>
  <linearGradient id="linearGradient3299-8">
   <stop id="stop3301-1" style="stop-color:#dfdfdf" offset="0"/>
   <stop id="stop3303-3" style="stop-color:#434343" offset="1"/>
  </linearGradient>
  <radialGradient id="radialGradient6661" xlink:href="#linearGradient3299-8" gradientUnits="userSpaceOnUse" cy="14.938" cx="11.312" gradientTransform="matrix(.81331 0 0 .81133 102.31 977.64)" r="1.4375"/>
  <radialGradient id="radialGradient6663" xlink:href="#linearGradient3299-8" gradientUnits="userSpaceOnUse" cy="14.938" cx="11.312" gradientTransform="matrix(.81331 0 0 .81133 110.34 977.64)" r="1.4375"/>
 </defs>
 <metadata id="metadata7">
  <rdf:RDF>
   <cc:Work rdf:about="">
    <dc:format>image/svg+xml</dc:format>
    <dc:type rdf:resource="http://purl.org/dc/dcmitype/StillImage"/>
    <dc:title/>
   </cc:Work>
  </rdf:RDF>
 </metadata>
 <g id="layer1" transform="translate(0 -956.36)">
  <g id="g6667" transform="translate(2.861e-8 -.0000097370)">
   <rect id="rect9283" ry="5" style="filter:url(#filter6279)" rx="5" transform="translate(0 -.0000078516)" height="80" width="80" y="964.36" x="8"/>
   <rect id="rect9285" style="fill:url(#linearGradient5801)" rx="5" ry="5" height="80" width="80" y="964.36" x="8"/>
   <path id="rect3789-1-5" style="fill:#fff" d="m19.562 971.86c-2.2506 0-4.0625 1.8119-4.0625 4.0625v56.875c0 2.2506 1.8119 4.0625 4.0625 4.0625h56.875c2.2506 0 4.0625-1.8119 4.0625-4.0625v-56.875c0-2.2506-1.8119-4.0625-4.0625-4.0625h-56.875zm4.375 5h48.125c1.9044 0 3.4375 1.5331 3.4375 3.4375v48.125c0 1.9044-1.5331 3.4375-3.4375 3.4375h-48.125c-1.9044 0-3.4375-1.5331-3.4375-3.4375v-48.125c0-1.9044 1.5331-3.4375 3.4375-3.4375z"/>
   <path id="path3727" style="fill:url(#linearGradient5700)" d="m63.553 990.85v7.851c-7.8385 0.13774-9.7649 7.7819-9.7649 7.7819h5.9121v7.8509h-9.167c-5.514 17.01-18.202 15.495-18.202 15.495v-7.8509s8.0512 1.4936 12.156-13.498c5.136-18.753 19.066-17.63 19.066-17.63z"/>
   <g id="g6634" transform="matrix(.65495 0 0 .65495 -48.099 337.22)">
    <path id="rect4237" d="m110.72 976.55c-3.324 0-6 2.676-6 6v12h84v-12c0-3.324-2.676-6-6-6h-72z"/>
    <rect id="rect4289" style="opacity:.3;fill:url(#linearGradient6649);fill-rule:evenodd" height="5" width="84" y="985.55" x="104.72"/>
    <g id="g4299" transform="translate(99.725 970.55)">
     <path id="path4293" style="fill:#f0f0f0;fill-rule:evenodd" d="m28.333 6-5.333 9 5.333 9h10.667l-5.333-9 5.333-9h-10.667z"/>
     <path id="path4295" style="fill:#f0f0f0;fill-rule:evenodd" d="m50.333 6-5.333 9 5.333 9h10.667l-5.333-9 5.333-9h-10.667z"/>
     <path id="path4297" style="fill:#f0f0f0;fill-rule:evenodd" d="m72.333 6-5.333 9 5.333 9h10.667l-5.333-9 5.333-9h-10.667z"/>
    </g>
    <rect id="rect4291" style="opacity:.7;fill:url(#linearGradient6651);fill-rule:evenodd" height="5" width="84" y="980.55" x="104.72"/>
    <rect id="rect4324" style="opacity:.7;fill:url(#linearGradient6653);fill-rule:evenodd" height="5" width="84" y="989.55" x="104.72"/>
    <path id="path4333" style="stroke-linejoin:round;stroke:url(#linearGradient6657);fill:url(#linearGradient6655);fill-rule:evenodd" d="m110.73 981.05c1.1095 0 1.7702 0.98369 6.03 4.3027 4.3044 3.3537 5.4775 3.7265 5.4775 5.0746 0 1.3484-1.0882 1.6227-2.4399 1.6227h-8.1331c-1.352 0-2.44-1.086-2.44-2.434v-6.4906c0-1.348 0.468-2.075 1.505-2.075z"/>
    <path id="path4335" style="fill:url(#radialGradient6659);fill-rule:evenodd" d="m112.68 983.74a1.1691 1.1663 0 0 1 -2.3383 0 1.1691 1.1663 0 1 1 2.3383 0z"/>
    <path id="path4337" style="fill:url(#radialGradient6661);fill-rule:evenodd" d="m112.68 989.76a1.1691 1.1663 0 0 1 -2.3383 0 1.1691 1.1663 0 1 1 2.3383 0z"/>
    <path id="path4339" style="fill:url(#radialGradient6663);fill-rule:evenodd" d="m120.71 989.76a1.1691 1.1663 0 0 1 -2.3383 0 1.1691 1.1663 0 1 1 2.3383 0z"/>
   </g>
  </g>
 </g>
</svg>
