<?xml version="1.0" encoding="UTF-8" standalone="no"?>
<!-- Created with Inkscape (http://www.inkscape.org/) -->

<svg
   xmlns:dc="http://purl.org/dc/elements/1.1/"
   xmlns:cc="http://creativecommons.org/ns#"
   xmlns:rdf="http://www.w3.org/1999/02/22-rdf-syntax-ns#"
   xmlns:svg="http://www.w3.org/2000/svg"
   xmlns="http://www.w3.org/2000/svg"
   xmlns:xlink="http://www.w3.org/1999/xlink"
   xmlns:sodipodi="http://sodipodi.sourceforge.net/DTD/sodipodi-0.dtd"
   xmlns:inkscape="http://www.inkscape.org/namespaces/inkscape"
   width="96"
   height="96"
   id="svg2"
   version="1.1"
   inkscape:version="0.48.1 r9760"
   sodipodi:docname="gdm-setup.svg">
  <defs
     id="defs4">
    <filter
       color-interpolation-filters="sRGB"
       inkscape:collect="always"
       id="filter6279">
      <feGaussianBlur
         inkscape:collect="always"
         stdDeviation="0.8"
         id="feGaussianBlur6281" />
    </filter>
    <linearGradient
       inkscape:collect="always"
       xlink:href="#radialGradient3465"
       id="linearGradient5801"
       gradientUnits="userSpaceOnUse"
       gradientTransform="translate(0,-7.8515622e-6)"
       x1="48"
       y1="1052.3622"
       x2="48"
       y2="902.36218" />
    <radialGradient
       id="radialGradient3465"
       gradientUnits="userSpaceOnUse"
       cy="-15.871"
       cx="56.066002"
       gradientTransform="matrix(0.0022597,0.92548,-1.3844,0,25.902,-30.211)"
       r="35.938">
      <stop
         id="stop3226-9"
         style="stop-color:#80a2c8"
         offset="0" />
      <stop
         id="stop3228-7"
         style="stop-color:#2e4c6d"
         offset="1" />
    </radialGradient>
  </defs>
  <sodipodi:namedview
     id="base"
     pagecolor="#ffffff"
     bordercolor="#666666"
     borderopacity="1.0"
     inkscape:pageopacity="0.0"
     inkscape:pageshadow="2"
     inkscape:zoom="3.959798"
     inkscape:cx="28.389459"
     inkscape:cy="57.490015"
     inkscape:document-units="px"
     inkscape:current-layer="layer1"
     showgrid="false"
     inkscape:window-width="1280"
     inkscape:window-height="725"
     inkscape:window-x="0"
     inkscape:window-y="25"
     inkscape:window-maximized="1" />
  <metadata
     id="metadata7">
    <rdf:RDF>
      <cc:Work
         rdf:about="">
        <dc:format>image/svg+xml</dc:format>
        <dc:type
           rdf:resource="http://purl.org/dc/dcmitype/StillImage" />
        <dc:title></dc:title>
      </cc:Work>
    </rdf:RDF>
  </metadata>
  <g
     inkscape:label="Layer 1"
     inkscape:groupmode="layer"
     id="layer1"
     transform="translate(0,-956.36217)">
    <g
       transform="translate(2.861023e-8,-9.737015e-6)"
       id="g6492">
      <rect
         transform="translate(0,-7.8515622e-6)"
         y="964.36218"
         x="8"
         height="80"
         width="80"
         id="rect9283"
         style="fill:#000000;fill-opacity:1;stroke:none;filter:url(#filter6279)"
         rx="5"
         ry="5" />
      <rect
         ry="5"
         rx="5"
         style="fill:url(#linearGradient5801);fill-opacity:1;stroke:none"
         id="rect9285"
         width="80"
         height="80"
         x="8"
         y="964.36218" />
      <g
         transform="matrix(1.2045455,0,0,1.2045455,-9.818183,-203.00143)"
         id="g5687">
        <rect
           x="26"
           y="986.36218"
           width="44"
           height="32"
           ry="4.0226998"
           rx="3.5197999"
           style="opacity:0.3;fill:#ffffff;enable-background:new"
           id="rect3889" />
        <rect
           x="31"
           y="999.36218"
           width="34"
           height="12"
           ry="2"
           rx="2"
           style="fill:#ffffff;enable-background:new"
           id="rect3899" />
        <path
           inkscape:connector-curvature="0"
           d="m 33,998.39318 c -1.6208,0 -2.9688,1.348 -2.9688,2.96882 v 8 c 0,1.6208 1.348,2.9688 2.9688,2.9688 h 30 c 1.6208,0 2.9688,-1.348 2.9688,-2.9688 v -8 c 0,-1.62082 -1.348,-2.96882 -2.9688,-2.96882 H 33 z m 0,2.03122 h 30 c 0.50058,0 0.9375,0.4369 0.9375,0.9375 v 8 c 0,0.5006 -0.43692,0.9375 -0.9375,0.9375 H 33 c -0.50058,0 -0.9375,-0.4369 -0.9375,-0.9375 v -8 c 0,-0.5006 0.43692,-0.9375 0.9375,-0.9375 z"
           style="fill:#2e4c6d;enable-background:new"
           id="path3915" />
        <path
           inkscape:connector-curvature="0"
           d="m 33,1000.4242 c -0.50058,0 -0.9375,0.4369 -0.9375,0.9375 v 8 c 0,0.3099 0.19112,0.5774 0.4375,0.75 v -7.75 c 0,-0.5006 0.42139,-0.9375 0.90625,-0.9375 h 29.188 c 0.485,0 0.906,0.437 0.906,0.938 v 7.75 c 0.24638,-0.1726 0.4375,-0.4401 0.4375,-0.75 v -8 c 0,-0.5006 -0.43692,-0.9375 -0.9375,-0.9375 h -30 z"
           style="opacity:0.3;enable-background:new"
           id="rect3927" />
        <path
           style="enable-background:new"
           inkscape:connector-curvature="0"
           d="m 40.000349,1005.3626 a 2.5000413,2.5000413 0 1 1 -5,0 2.5000413,2.5000413 0 1 1 5,0 z"
           id="path3935" />
        <path
           style="enable-background:new"
           inkscape:connector-curvature="0"
           d="m 47.000049,1005.3626 a 2.5000413,2.5000413 0 1 1 -5,0 2.5000413,2.5000413 0 1 1 5,0 z"
           id="path3941" />
        <path
           style="enable-background:new"
           inkscape:connector-curvature="0"
           d="m 54.000049,1005.3626 a 2.5000413,2.5000413 0 1 1 -5,0 2.5000413,2.5000413 0 1 1 5,0 z"
           id="path3943" />
        <path
           style="enable-background:new"
           inkscape:connector-curvature="0"
           d="m 61.000049,1005.3626 a 2.5000413,2.5000413 0 1 1 -5,0 2.5000413,2.5000413 0 1 1 5,0 z"
           id="path3945" />
        <path
           style="fill:#ffffff;enable-background:new"
           id="path3952"
           d="m 32.549,992.01218 c -3e-6,0.14341 -0.02416,0.27747 -0.07249,0.40218 -0.04677,0.12315 -0.11769,0.23071 -0.21278,0.32268 -0.09353,0.0904 -0.21122,0.16212 -0.35307,0.21512 -0.14186,0.053 -0.30709,0.0795 -0.4957,0.0795 h -0.96803 v 1.2837 h -0.4466 v -3.2946 h 1.3866 c 0.19485,0 0.36476,0.0242 0.50973,0.0725 0.14497,0.0468 0.26578,0.1138 0.36242,0.20109 0.09664,0.0857 0.16913,0.19018 0.21746,0.31332 0.04832,0.12159 0.07248,0.25643 0.07249,0.40451 m -0.44894,0.005 c -2e-6,-0.20888 -0.06391,-0.3671 -0.19173,-0.47466 -0.12782,-0.10912 -0.31956,-0.16367 -0.5752,-0.16368 h -0.88619 v 1.3001 h 0.9049 c 0.2572,0 0.44582,-0.0569 0.56585,-0.17069 0.12158,-0.11379 0.18238,-0.27747 0.18238,-0.49103"
           inkscape:connector-curvature="0" />
        <path
           style="fill:#ffffff;enable-background:new"
           id="path3954"
           d="m 33.774,994.36218 c -0.25409,0 -0.44504,-0.067 -0.57287,-0.20109 -0.12782,-0.13406 -0.19174,-0.318 -0.19174,-0.55182 0,-0.16679 0.03118,-0.30319 0.09353,-0.40919 0.06391,-0.10756 0.14653,-0.19173 0.24785,-0.25253 0.10288,-0.0608 0.21979,-0.10288 0.35074,-0.12626 0.13094,-0.0234 0.26422,-0.0366 0.39984,-0.0398 l 0.56819,-0.009 v -0.13796 c -2e-6,-0.10444 -0.01091,-0.19329 -0.03274,-0.26656 -0.02183,-0.0733 -0.05534,-0.1325 -0.10054,-0.1777 -0.04521,-0.0452 -0.1021,-0.0779 -0.17069,-0.0982 -0.06703,-0.0218 -0.14653,-0.0327 -0.2385,-0.0327 -0.08106,0 -0.15432,0.006 -0.21979,0.0187 -0.06547,0.0109 -0.12237,0.032 -0.17069,0.0631 -0.04832,0.0296 -0.0873,0.0709 -0.11691,0.12393 -0.02962,0.0514 -0.0491,0.11691 -0.05846,0.19641 l -0.43959,-0.0398 c 0.01559,-0.0998 0.04521,-0.19095 0.08885,-0.27357 0.04365,-0.0842 0.10522,-0.15666 0.18472,-0.21746 0.08106,-0.0608 0.1816,-0.10756 0.30163,-0.14029 0.12159,-0.0343 0.26812,-0.0514 0.43959,-0.0514 0.318,0 0.55728,0.0733 0.71784,0.21979 0.16056,0.14497 0.24084,0.35541 0.24084,0.63132 v 1.0896 c -2e-6,0.12471 0.01637,0.21901 0.0491,0.28292 0.03273,0.0624 0.09509,0.0935 0.18706,0.0935 0.02338,0 0.04676,-0.002 0.07015,-0.005 0.02338,-0.003 0.04598,-0.007 0.06781,-0.0117 v 0.26188 c -0.053,0.0125 -0.106,0.0218 -0.159,0.0281 -0.05144,0.006 -0.10678,0.009 -0.16601,0.009 -0.0795,0 -0.14809,-0.0101 -0.20576,-0.0304 -0.05612,-0.0218 -0.1021,-0.0538 -0.13796,-0.0959 -0.03585,-0.0437 -0.06313,-0.0967 -0.08184,-0.159 -0.01871,-0.0639 -0.0304,-0.13796 -0.03507,-0.22213 h -0.01403 c -0.04521,0.0811 -0.09509,0.15432 -0.14965,0.21979 -0.053,0.0655 -0.11535,0.12159 -0.18706,0.16835 -0.07171,0.0452 -0.15354,0.0803 -0.24551,0.10522 -0.09041,0.0249 -0.19485,0.0374 -0.31332,0.0374 m 0.09587,-0.31566 c 0.13406,0 0.25097,-0.0242 0.35073,-0.0725 0.10132,-0.0499 0.18472,-0.11301 0.25019,-0.1894 0.06703,-0.0764 0.11691,-0.15978 0.14965,-0.25019 0.03273,-0.0904 0.0491,-0.17692 0.0491,-0.25954 v -0.2081 l -0.46063,0.009 c -0.10288,0.002 -0.20109,0.009 -0.29462,0.0234 -0.09197,0.0125 -0.17303,0.0382 -0.24318,0.0772 -0.07015,0.039 -0.12626,0.0935 -0.16835,0.16368 -0.04053,0.0702 -0.06079,0.16212 -0.06079,0.27591 0,0.13718 0.03663,0.24318 0.1099,0.318 0.07482,0.0748 0.18082,0.11224 0.318,0.11224"
           inkscape:connector-curvature="0" />
        <path
           style="fill:#ffffff;enable-background:new"
           id="path3956"
           d="m 37.693,993.61618 c -3e-6,0.11847 -0.02338,0.22447 -0.07015,0.318 -0.04521,0.092 -0.11146,0.16991 -0.19875,0.23382 -0.0873,0.0624 -0.19485,0.11068 -0.32268,0.14497 -0.12627,0.0327 -0.27124,0.0491 -0.43491,0.0491 -0.14653,0 -0.27903,-0.0117 -0.3975,-0.0351 -0.11691,-0.0218 -0.21979,-0.0577 -0.30865,-0.10756 -0.08885,-0.0499 -0.16368,-0.11535 -0.22447,-0.19641 -0.05924,-0.0826 -0.10288,-0.18316 -0.13094,-0.30163 l 0.37178,-0.0725 c 0.03585,0.13562 0.1099,0.23538 0.22213,0.29929 0.11223,0.0623 0.26812,0.0935 0.46765,0.0935 0.09041,0 0.17303,-0.006 0.24785,-0.0187 0.07638,-0.0125 0.14185,-0.0335 0.19641,-0.0631 0.05456,-0.0312 0.09664,-0.0717 0.12626,-0.12159 0.03117,-0.0514 0.04676,-0.11457 0.04677,-0.1894 -2e-6,-0.0764 -0.01793,-0.13873 -0.05378,-0.18706 -0.03585,-0.0499 -0.08574,-0.0912 -0.14965,-0.12393 -0.06391,-0.0327 -0.14185,-0.0608 -0.23382,-0.0842 -0.09041,-0.0249 -0.19018,-0.0522 -0.29929,-0.0818 -0.10132,-0.0265 -0.20187,-0.0561 -0.30163,-0.0888 -0.09977,-0.0327 -0.19018,-0.0756 -0.27124,-0.1286 -0.0795,-0.0546 -0.14419,-0.12159 -0.19407,-0.20109 -0.04988,-0.0795 -0.07482,-0.17926 -0.07482,-0.29929 0,-0.2307 0.08184,-0.40607 0.24551,-0.5261 0.16523,-0.12158 0.40529,-0.18238 0.72017,-0.18238 0.27903,0 0.50038,0.0491 0.66406,0.14731 0.16523,0.0982 0.26967,0.25565 0.31332,0.47232 l -0.37879,0.0468 c -0.01403,-0.0655 -0.03975,-0.12003 -0.07716,-0.16368 -0.03741,-0.0452 -0.08262,-0.0811 -0.13562,-0.10756 -0.053,-0.0281 -0.11302,-0.0475 -0.18004,-0.0585 -0.06547,-0.0125 -0.13406,-0.0187 -0.20576,-0.0187 -0.19018,0 -0.33047,0.0288 -0.42088,0.0865 -0.09041,0.0577 -0.13562,0.14497 -0.13562,0.26188 -1e-6,0.0686 0.01637,0.12549 0.0491,0.17069 0.03429,0.0437 0.08106,0.0811 0.14029,0.11224 0.06079,0.0296 0.13328,0.0561 0.21746,0.0795 0.08418,0.0218 0.17692,0.0452 0.27825,0.0702 0.06703,0.0172 0.13562,0.0358 0.20576,0.0561 0.07014,0.0187 0.13795,0.0421 0.20342,0.0702 0.06703,0.0265 0.12938,0.0585 0.18706,0.0959 0.05923,0.0358 0.11067,0.0795 0.15432,0.13094 0.04364,0.0514 0.07794,0.11146 0.10288,0.18004 0.0265,0.0686 0.03975,0.14809 0.03975,0.2385"
           inkscape:connector-curvature="0" />
        <path
           style="fill:#ffffff;enable-background:new"
           id="path3958"
           d="m 40.087,993.61618 c -2e-6,0.11847 -0.02338,0.22447 -0.07015,0.318 -0.04521,0.092 -0.11146,0.16991 -0.19875,0.23382 -0.0873,0.0624 -0.19485,0.11068 -0.32268,0.14497 -0.12627,0.0327 -0.27124,0.0491 -0.43491,0.0491 -0.14653,0 -0.27903,-0.0117 -0.3975,-0.0351 -0.11691,-0.0218 -0.21979,-0.0577 -0.30865,-0.10756 -0.08885,-0.0499 -0.16368,-0.11535 -0.22447,-0.19641 -0.05924,-0.0826 -0.10288,-0.18316 -0.13094,-0.30163 l 0.37178,-0.0725 c 0.03585,0.13562 0.1099,0.23538 0.22213,0.29929 0.11223,0.0623 0.26812,0.0935 0.46764,0.0935 0.09041,0 0.17303,-0.006 0.24785,-0.0187 0.07638,-0.0125 0.14185,-0.0335 0.19641,-0.0631 0.05456,-0.0312 0.09664,-0.0717 0.12626,-0.12159 0.03117,-0.0514 0.04676,-0.11457 0.04676,-0.1894 -10e-7,-0.0764 -0.01793,-0.13873 -0.05378,-0.18706 -0.03585,-0.0499 -0.08574,-0.0912 -0.14965,-0.12393 -0.06391,-0.0327 -0.14185,-0.0608 -0.23382,-0.0842 -0.09041,-0.0249 -0.19018,-0.0522 -0.29929,-0.0818 -0.10132,-0.0265 -0.20187,-0.0561 -0.30163,-0.0888 -0.09977,-0.0327 -0.19018,-0.0756 -0.27123,-0.1286 -0.0795,-0.0546 -0.14419,-0.12159 -0.19407,-0.20109 -0.04988,-0.0795 -0.07482,-0.17926 -0.07482,-0.29929 -1e-6,-0.2307 0.08184,-0.40607 0.24551,-0.5261 0.16523,-0.12158 0.40529,-0.18238 0.72017,-0.18238 0.27903,0 0.50038,0.0491 0.66406,0.14731 0.16523,0.0982 0.26967,0.25565 0.31332,0.47232 l -0.37879,0.0468 c -0.01403,-0.0655 -0.03975,-0.12003 -0.07716,-0.16368 -0.03741,-0.0452 -0.08262,-0.0811 -0.13562,-0.10756 -0.053,-0.0281 -0.11302,-0.0475 -0.18004,-0.0585 -0.06547,-0.0125 -0.13406,-0.0187 -0.20576,-0.0187 -0.19018,0 -0.33047,0.0288 -0.42088,0.0865 -0.09041,0.0577 -0.13562,0.14497 -0.13562,0.26188 -10e-7,0.0686 0.01637,0.12549 0.0491,0.17069 0.03429,0.0437 0.08106,0.0811 0.14029,0.11224 0.06079,0.0296 0.13328,0.0561 0.21746,0.0795 0.08418,0.0218 0.17692,0.0452 0.27825,0.0702 0.06703,0.0172 0.13562,0.0358 0.20576,0.0561 0.07015,0.0187 0.13795,0.0421 0.20343,0.0702 0.06703,0.0265 0.12938,0.0585 0.18706,0.0959 0.05923,0.0358 0.11067,0.0795 0.15432,0.13094 0.04364,0.0514 0.07794,0.11146 0.10288,0.18004 0.0265,0.0686 0.03975,0.14809 0.03975,0.2385"
           inkscape:connector-curvature="0" />
        <path
           style="fill:#ffffff;enable-background:new"
           id="path3960"
           d="m 43.005,994.31518 h -0.48869 l -0.40451,-1.6321 c -0.01247,-0.0421 -0.02572,-0.0943 -0.03975,-0.15666 -0.01247,-0.0624 -0.02494,-0.12314 -0.03741,-0.18238 -0.01559,-0.0686 -0.0304,-0.13951 -0.04443,-0.21278 -0.01403,0.0702 -0.02884,0.13952 -0.04443,0.2081 -0.01247,0.0592 -0.0265,0.12081 -0.04209,0.18472 -0.01403,0.0639 -0.02728,0.12003 -0.03975,0.16835 l -0.4162,1.6227 h -0.48635 l -0.70848,-2.53 h 0.4162 l 0.4279,1.7186 c 0.01091,0.0358 0.02182,0.0803 0.03274,0.13328 0.01091,0.0514 0.02182,0.1021 0.03273,0.15198 0.01091,0.0577 0.0226,0.11691 0.03507,0.1777 0.01247,-0.0592 0.02572,-0.11691 0.03975,-0.17303 0.01247,-0.0483 0.02494,-0.0974 0.03741,-0.14731 0.01247,-0.0499 0.02338,-0.0912 0.03274,-0.12393 l 0.45829,-1.7373 h 0.45128 l 0.44192,1.7373 c 0.01091,0.0405 0.0226,0.0865 0.03507,0.13796 0.01247,0.0514 0.02416,0.0998 0.03507,0.14497 0.01247,0.053 0.02494,0.10678 0.03741,0.16134 0.01247,-0.0592 0.02494,-0.11691 0.03741,-0.17303 0.01091,-0.0483 0.02182,-0.0982 0.03274,-0.14965 0.01247,-0.053 0.02416,-0.0998 0.03507,-0.14029 l 0.4466,-1.7186 h 0.41153 l -0.72485,2.53"
           inkscape:connector-curvature="0" />
        <path
           style="fill:#ffffff;enable-background:new"
           id="path3962"
           d="m 46.183,993.04818 c -2e-6,0.44271 -0.09743,0.7724 -0.29228,0.98907 -0.19486,0.21668 -0.47778,0.32501 -0.84878,0.32501 -0.17615,0 -0.33359,-0.0265 -0.47232,-0.0795 -0.13874,-0.053 -0.25643,-0.13406 -0.35307,-0.24318 -0.09509,-0.10912 -0.16835,-0.24551 -0.21979,-0.40919 -0.04988,-0.16523 -0.07482,-0.35931 -0.07482,-0.58222 0,-0.87294 0.37801,-1.3094 1.134,-1.3094 0.19641,0 0.36554,0.0273 0.5074,0.0818 0.14341,0.0546 0.26032,0.1364 0.35073,0.24551 0.09197,0.10912 0.15978,0.24552 0.20343,0.40919 0.04364,0.16368 0.06547,0.35463 0.06547,0.57286 m -0.44192,0 c -2e-6,-0.19641 -0.01559,-0.35853 -0.04677,-0.48635 -0.02962,-0.12782 -0.07404,-0.22992 -0.13328,-0.30631 -0.05768,-0.0764 -0.1286,-0.12938 -0.21278,-0.159 -0.08418,-0.0312 -0.17927,-0.0468 -0.28526,-0.0468 -0.10756,0 -0.20499,0.0164 -0.29228,0.0491 -0.08574,0.0312 -0.159,0.0857 -0.21979,0.16368 -0.0608,0.0764 -0.10756,0.17849 -0.14029,0.30631 -0.03118,0.12782 -0.04677,0.2876 -0.04676,0.47934 -1e-6,0.19641 0.01715,0.35931 0.05144,0.48869 0.03429,0.12782 0.08106,0.22993 0.14029,0.30631 0.06079,0.0764 0.13172,0.13016 0.21278,0.16134 0.08262,0.0312 0.17225,0.0468 0.2689,0.0468 0.10756,0 0.20498,-0.0148 0.29228,-0.0444 0.08729,-0.0312 0.16134,-0.085 0.22213,-0.16134 0.06079,-0.0764 0.10756,-0.17926 0.14029,-0.30865 0.03273,-0.12938 0.0491,-0.29228 0.0491,-0.48869"
           inkscape:connector-curvature="0" />
        <path
           style="fill:#ffffff;enable-background:new"
           id="path3964"
           d="m 46.718,994.31518 v -1.9407 c 0,-0.053 -7.79e-4,-0.10678 -0.0023,-0.16134 0,-0.0561 -7.8e-4,-0.10989 -0.0023,-0.16134 -0.0016,-0.0514 -0.0031,-0.0998 -0.0047,-0.14497 -0.0016,-0.0452 -0.0031,-0.0857 -0.0047,-0.12159 h 0.3975 c 0.0016,0.0359 0.0031,0.0772 0.0047,0.12393 0.0031,0.0452 0.0055,0.092 0.007,0.14029 0.0031,0.0483 0.0047,0.0951 0.0047,0.14029 0.0016,0.0436 0.0023,0.0811 0.0023,0.11224 h 0.0094 c 0.02962,-0.0967 0.06079,-0.18004 0.09353,-0.25019 0.03429,-0.0717 0.07404,-0.13016 0.11925,-0.17537 0.0452,-0.0468 0.09898,-0.0811 0.16134,-0.10288 0.06235,-0.0234 0.13795,-0.0351 0.22681,-0.0351 0.03429,0 0.06703,0.003 0.09821,0.009 0.03117,0.005 0.05534,0.009 0.07249,0.014 v 0.38581 c -0.02806,-0.008 -0.0608,-0.0133 -0.09821,-0.0164 -0.03741,-0.005 -0.0795,-0.007 -0.12626,-0.007 -0.09665,0 -0.17927,0.0218 -0.24785,0.0655 -0.06703,0.0436 -0.12237,0.10444 -0.16602,0.18238 -0.04209,0.0764 -0.07326,0.16836 -0.09353,0.27591 -0.02027,0.106 -0.0304,0.22213 -0.0304,0.3484 v 1.3188 h -0.42088"
           inkscape:connector-curvature="0" />
        <path
           style="fill:#ffffff;enable-background:new"
           id="path3966"
           d="m 49.905,993.90818 c -0.07794,0.16212 -0.1816,0.27825 -0.31098,0.3484 -0.12782,0.0702 -0.28682,0.10522 -0.477,0.10522 -0.31956,0 -0.55494,-0.10756 -0.70614,-0.32268 -0.14965,-0.21512 -0.22447,-0.54091 -0.22447,-0.97738 -1e-6,-0.88229 0.3102,-1.3234 0.93061,-1.3234 0.19173,0 0.35151,0.0351 0.47934,0.10522 0.12782,0.0702 0.2307,0.1816 0.30865,0.33437 h 0.0047 c -2e-6,-0.0156 -7.82e-4,-0.0397 -0.0023,-0.0725 -2e-6,-0.0343 -7.81e-4,-0.0694 -0.0023,-0.10522 -2e-6,-0.0374 -2e-6,-0.0725 0,-0.10522 -2e-6,-0.0327 -2e-6,-0.0561 0,-0.0702 v -0.97972 h 0.42088 v 2.9485 c -2e-6,0.0608 -2e-6,0.11925 0,0.17537 0.0016,0.0561 0.0031,0.10756 0.0047,0.15432 0.0016,0.0468 0.0031,0.0873 0.0047,0.12159 0.0016,0.0327 0.0031,0.0561 0.0047,0.0702 h -0.40218 c -0.0031,-0.0156 -0.0062,-0.0374 -0.0094,-0.0655 -0.0016,-0.0296 -0.0039,-0.0631 -0.007,-0.10054 -0.0016,-0.0374 -0.0031,-0.0764 -0.0047,-0.11691 -0.0016,-0.0421 -0.0023,-0.0834 -0.0023,-0.12393 h -0.0094 m -1.277,-0.86 c -10e-7,0.17459 0.01091,0.32424 0.03274,0.44894 0.02182,0.12471 0.0569,0.22759 0.10522,0.30865 0.04832,0.0795 0.1099,0.13796 0.18472,0.17537 0.07482,0.0374 0.16601,0.0561 0.27357,0.0561 0.11068,0 0.2081,-0.0179 0.29228,-0.0538 0.08573,-0.0358 0.15666,-0.0935 0.21278,-0.17303 0.05767,-0.0811 0.10132,-0.18628 0.13094,-0.31566 0.02961,-0.12938 0.04442,-0.2876 0.04443,-0.47466 -2e-6,-0.17926 -0.01481,-0.33047 -0.04443,-0.45362 -0.02962,-0.1247 -0.07327,-0.22525 -0.13094,-0.30163 -0.05768,-0.0764 -0.1286,-0.13094 -0.21278,-0.16368 -0.08262,-0.0343 -0.17849,-0.0514 -0.2876,-0.0514 -0.10288,0 -0.19174,0.0179 -0.26656,0.0538 -0.07482,0.0359 -0.13718,0.0935 -0.18706,0.17303 -0.04988,0.0795 -0.0873,0.18316 -0.11224,0.31098 -0.02338,0.12627 -0.03507,0.27981 -0.03507,0.46063"
           inkscape:connector-curvature="0" />
        <path
           style="fill:#ffffff;enable-background:new"
           id="path3968"
           d="m 52.417,992.26918 v -0.48401 h 0.45595 v 0.48401 H 52.417 m 0,2.046 v -0.48401 h 0.45595 v 0.48401 H 52.417"
           inkscape:connector-curvature="0" />
        <path
           inkscape:connector-curvature="0"
           d="m 29.531,986.36218 c -1.95,0 -3.531,1.803 -3.531,4.031 v 23.93802 c 0,2.228 1.581,4.031 3.531,4.031 h 36.938 c 1.95,0 3.531,-1.803 3.531,-4.031 v -23.93802 c 0,-2.228 -1.581,-4.031 -3.531,-4.031 H 29.531 z m 0,1 h 36.938 c 1.327,0 2.531,1.281 2.531,3.031 v 23.93802 c 0,1.75 -1.204,3.031 -2.531,3.031 H 29.531 c -1.327,0 -2.531,-1.281 -2.531,-3.031 v -23.93802 c 0,-1.75 1.204,-3.031 2.531,-3.031 z"
           style="opacity:0.3;fill:#ffffff;enable-background:new"
           id="rect3970" />
      </g>
    </g>
  </g>
</svg>
