<?xml version="1.0" encoding="UTF-8" standalone="no"?>
<!-- Created with Inkscape (http://www.inkscape.org/) -->

<svg
   xmlns:dc="http://purl.org/dc/elements/1.1/"
   xmlns:cc="http://creativecommons.org/ns#"
   xmlns:rdf="http://www.w3.org/1999/02/22-rdf-syntax-ns#"
   xmlns:svg="http://www.w3.org/2000/svg"
   xmlns="http://www.w3.org/2000/svg"
   xmlns:xlink="http://www.w3.org/1999/xlink"
   xmlns:sodipodi="http://sodipodi.sourceforge.net/DTD/sodipodi-0.dtd"
   xmlns:inkscape="http://www.inkscape.org/namespaces/inkscape"
   width="96"
   height="96"
   id="svg2"
   version="1.1"
   inkscape:version="0.48.1 r9760"
   sodipodi:docname="templat-ikon-96x96.svg">
  <defs
     id="defs4">
    <filter
       color-interpolation-filters="sRGB"
       inkscape:collect="always"
       id="filter6279">
      <feGaussianBlur
         inkscape:collect="always"
         stdDeviation="0.8"
         id="feGaussianBlur6281" />
    </filter>
    <linearGradient
       inkscape:collect="always"
       xlink:href="#linearGradient3187"
       id="linearGradient10902-1"
       gradientUnits="userSpaceOnUse"
       gradientTransform="translate(0,-9.6171873e-6)"
       x1="48"
       y1="1052.3622"
       x2="48"
       y2="902.36218" />
    <linearGradient
       id="linearGradient3187">
      <stop
         id="stop3189-5"
         style="stop-color:#bd9c5b;stop-opacity:1"
         offset="0" />
      <stop
         id="stop3191-7"
         style="stop-color:#fadd96;stop-opacity:1"
         offset="1" />
    </linearGradient>
    <linearGradient
       inkscape:collect="always"
       xlink:href="#linearGradient3588"
       id="linearGradient7060"
       gradientUnits="userSpaceOnUse"
       gradientTransform="matrix(0.9647111,0,0,1.0388224,88.192404,967.52283)"
       x1="36.430439"
       y1="92.073105"
       x2="25.783941"
       y2="110.44766" />
    <linearGradient
       id="linearGradient3588">
      <stop
         id="stop3590"
         style="stop-color:#ff9b00;stop-opacity:1"
         offset="0" />
      <stop
         id="stop3592"
         style="stop-color:#ff5f00;stop-opacity:1"
         offset="1" />
    </linearGradient>
    <linearGradient
       inkscape:collect="always"
       xlink:href="#linearGradient3580"
       id="linearGradient7056"
       gradientUnits="userSpaceOnUse"
       gradientTransform="matrix(1.0043284,0,0,1.0935602,69.470082,969.75253)"
       x1="54.602177"
       y1="76.959999"
       x2="54.241863"
       y2="102.29281" />
    <linearGradient
       id="linearGradient3580">
      <stop
         id="stop3582"
         style="stop-color:#f2e051;stop-opacity:1"
         offset="0" />
      <stop
         id="stop3584-3"
         style="stop-color:#ffb31f;stop-opacity:1"
         offset="1" />
    </linearGradient>
    <linearGradient
       inkscape:collect="always"
       xlink:href="#linearGradient3572"
       id="linearGradient7052"
       gradientUnits="userSpaceOnUse"
       gradientTransform="matrix(0.8604708,0,0,0.8604708,90.321157,1000.4941)"
       x1="36.988205"
       y1="42.476765"
       x2="50.362568"
       y2="77.651024" />
    <linearGradient
       id="linearGradient3572">
      <stop
         id="stop3574"
         style="stop-color:#61ae50;stop-opacity:1"
         offset="0" />
      <stop
         id="stop3576"
         style="stop-color:#9ac837;stop-opacity:1"
         offset="1" />
    </linearGradient>
    <linearGradient
       inkscape:collect="always"
       xlink:href="#linearGradient3564"
       id="linearGradient7048"
       gradientUnits="userSpaceOnUse"
       gradientTransform="matrix(1.027116,0,0,1.027116,92.075652,1005.5276)"
       x1="26.812107"
       y1="26.720739"
       x2="61.392155"
       y2="26.720739" />
    <linearGradient
       id="linearGradient3564">
      <stop
         id="stop3566"
         style="stop-color:#3792c8;stop-opacity:1"
         offset="0" />
      <stop
         id="stop3568"
         style="stop-color:#3769c8;stop-opacity:1"
         offset="1" />
    </linearGradient>
    <linearGradient
       inkscape:collect="always"
       xlink:href="#linearGradient3556"
       id="linearGradient7044"
       gradientUnits="userSpaceOnUse"
       gradientTransform="matrix(0.7497469,0,0,0.7497469,85.590786,1006.4573)"
       x1="69.972519"
       y1="33.633511"
       x2="98.930267"
       y2="54.118382" />
    <linearGradient
       id="linearGradient3556">
      <stop
         id="stop3558-9"
         style="stop-color:#e273be;stop-opacity:1"
         offset="0" />
      <stop
         id="stop3560"
         style="stop-color:#e84058;stop-opacity:1"
         offset="1" />
    </linearGradient>
    <filter
       x="-0.11048746"
       y="-0.13130485"
       width="1.2209749"
       height="1.2626097"
       color-interpolation-filters="sRGB"
       id="filter3756">
      <feGaussianBlur
         id="feGaussianBlur3758"
         stdDeviation="1.6743347" />
    </filter>
    <linearGradient
       inkscape:collect="always"
       xlink:href="#linearGradient3836-4"
       id="linearGradient7039"
       gradientUnits="userSpaceOnUse"
       gradientTransform="matrix(0.7035845,0,0,0.7035845,90.921033,1007.3339)"
       x1="52.564499"
       y1="24"
       x2="57.335056"
       y2="34.788864" />
    <linearGradient
       id="linearGradient3836-4">
      <stop
         id="stop3838-9"
         style="stop-color:#a5eaf6;stop-opacity:1"
         offset="0" />
      <stop
         id="stop3840-5"
         style="stop-color:#35d3ed;stop-opacity:0"
         offset="1" />
    </linearGradient>
    <linearGradient
       inkscape:collect="always"
       xlink:href="#linearGradient3875-5"
       id="linearGradient7036"
       gradientUnits="userSpaceOnUse"
       gradientTransform="matrix(0.7035845,0,0,0.7035845,91.800025,1007.1581)"
       x1="67.278839"
       y1="46.877911"
       x2="73.677177"
       y2="53.124435" />
    <linearGradient
       id="linearGradient3875-5">
      <stop
         id="stop3877-73"
         style="stop-color:#ff9cf6;stop-opacity:1"
         offset="0" />
      <stop
         id="stop3879"
         style="stop-color:#ff9cf6;stop-opacity:0"
         offset="1" />
    </linearGradient>
    <linearGradient
       inkscape:collect="always"
       xlink:href="#linearGradient3875-5"
       id="linearGradient7033"
       gradientUnits="userSpaceOnUse"
       gradientTransform="matrix(0.7035845,0,0,0.7035845,90.042041,1007.1581)"
       x1="84.203171"
       y1="37.527618"
       x2="84.374886"
       y2="44.146233" />
    <linearGradient
       id="linearGradient6351">
      <stop
         id="stop6353"
         style="stop-color:#ff9cf6;stop-opacity:1"
         offset="0" />
      <stop
         id="stop6355"
         style="stop-color:#ff9cf6;stop-opacity:0"
         offset="1" />
    </linearGradient>
    <linearGradient
       inkscape:collect="always"
       xlink:href="#linearGradient3921"
       id="linearGradient7030"
       gradientUnits="userSpaceOnUse"
       gradientTransform="matrix(0.7035845,0,0,0.7035845,91.800025,1007.1581)"
       x1="30.309044"
       y1="53.165344"
       x2="41.266914"
       y2="64.409096" />
    <linearGradient
       id="linearGradient3921">
      <stop
         id="stop3923"
         style="stop-color:#b5e64e;stop-opacity:1"
         offset="0" />
      <stop
         id="stop3925"
         style="stop-color:#b5e64e;stop-opacity:0"
         offset="1" />
    </linearGradient>
    <linearGradient
       inkscape:collect="always"
       xlink:href="#linearGradient3940-7"
       id="linearGradient7027"
       gradientUnits="userSpaceOnUse"
       gradientTransform="matrix(0.7035845,0,0,0.7035845,91.800025,1007.1581)"
       x1="64"
       y1="76.81308"
       x2="64.96286"
       y2="90.384888" />
    <linearGradient
       id="linearGradient3940-7">
      <stop
         id="stop3942-2"
         style="stop-color:#fdf49c;stop-opacity:1"
         offset="0" />
      <stop
         id="stop3944-9"
         style="stop-color:#fdf49c;stop-opacity:0"
         offset="1" />
    </linearGradient>
    <linearGradient
       inkscape:collect="always"
       xlink:href="#linearGradient3970"
       id="linearGradient7024"
       gradientUnits="userSpaceOnUse"
       gradientTransform="matrix(0.7035845,0,0,0.7035845,90.745234,1007.1581)"
       x1="24"
       y1="87.35405"
       x2="31.35067"
       y2="104.59446" />
    <linearGradient
       id="linearGradient3970">
      <stop
         id="stop3972"
         style="stop-color:#ffaf44;stop-opacity:1"
         offset="0" />
      <stop
         id="stop3974"
         style="stop-color:#ffaf44;stop-opacity:0"
         offset="1" />
    </linearGradient>
    <linearGradient
       inkscape:collect="always"
       xlink:href="#linearGradient3737-66"
       id="linearGradient7630"
       gradientUnits="userSpaceOnUse"
       x1="48"
       y1="20.220806"
       x2="48"
       y2="138.66119" />
    <linearGradient
       id="linearGradient3737-66">
      <stop
         id="stop3739-40"
         style="stop-color:#ffffff;stop-opacity:1"
         offset="0" />
      <stop
         id="stop3741-04"
         style="stop-color:#ffffff;stop-opacity:0"
         offset="1" />
    </linearGradient>
    <clipPath
       id="clipPath3613-62">
      <rect
         width="84"
         height="84"
         rx="6"
         ry="6"
         x="6"
         y="6"
         id="rect3615-67"
         style="fill:#ffffff;fill-opacity:1;fill-rule:nonzero;stroke:none" />
    </clipPath>
    <filter
       x="-0.192"
       y="-0.192"
       width="1.3839999"
       height="1.3839999"
       color-interpolation-filters="sRGB"
       id="filter3794-5-5">
      <feGaussianBlur
         id="feGaussianBlur3796-69"
         stdDeviation="5.28" />
    </filter>
    <radialGradient
       cx="23"
       cy="33.9375"
       r="18.25"
       fx="23"
       fy="33.9375"
       id="radialGradient6498"
       xlink:href="#linearGradient6492"
       gradientUnits="userSpaceOnUse"
       gradientTransform="matrix(1,0,0,0.284247,0,24.29088)" />
    <linearGradient
       id="linearGradient6492">
      <stop
         style="stop-color:black;stop-opacity:1"
         offset="0"
         id="stop6494" />
      <stop
         style="stop-color:black;stop-opacity:0"
         offset="1"
         id="stop6496" />
    </linearGradient>
    <radialGradient
       cx="18.557627"
       cy="22.300018"
       r="19.2292"
       fx="18.557627"
       fy="22.300018"
       id="radialGradient4354"
       xlink:href="#linearGradient6500"
       gradientUnits="userSpaceOnUse"
       gradientTransform="matrix(1.77275,0,0,1.29668,-16.3404,-6.615959)" />
    <linearGradient
       id="linearGradient6500">
      <stop
         style="stop-color:#857c63;stop-opacity:1"
         offset="0"
         id="stop6502" />
      <stop
         style="stop-color:#221f19;stop-opacity:1"
         offset="1"
         id="stop6504" />
    </linearGradient>
    <linearGradient
       x1="32.350136"
       y1="28.083355"
       x2="21.213203"
       y2="30.293064"
       id="linearGradient4351"
       xlink:href="#linearGradient6482"
       gradientUnits="userSpaceOnUse"
       gradientTransform="translate(-3.836549,0.345971)" />
    <linearGradient
       id="linearGradient6482">
      <stop
         style="stop-color:black;stop-opacity:1"
         offset="0"
         id="stop6484" />
      <stop
         style="stop-color:black;stop-opacity:0"
         offset="1"
         id="stop6486" />
    </linearGradient>
    <linearGradient
       x1="14.96875"
       y1="19.110678"
       x2="39.524544"
       y2="46.98568"
       id="linearGradient8530"
       xlink:href="#linearGradient8524"
       gradientUnits="userSpaceOnUse" />
    <linearGradient
       id="linearGradient8524">
      <stop
         style="stop-color:white;stop-opacity:1"
         offset="0"
         id="stop8526" />
      <stop
         style="stop-color:white;stop-opacity:0"
         offset="1"
         id="stop8528" />
    </linearGradient>
    <radialGradient
       cx="69.473244"
       cy="19.597878"
       r="3.5153139"
       fx="69.473244"
       fy="19.597878"
       id="radialGradient4363"
       xlink:href="#linearGradient6468"
       gradientUnits="userSpaceOnUse"
       gradientTransform="matrix(1.318488,0,0,1.318488,-22.1264,-6.241691)" />
    <linearGradient
       id="linearGradient6468">
      <stop
         style="stop-color:white;stop-opacity:1"
         offset="0"
         id="stop6470" />
      <stop
         style="stop-color:#b9b9b0;stop-opacity:1"
         offset="1"
         id="stop6472" />
    </linearGradient>
    <radialGradient
       cx="6.0242186"
       cy="25.271027"
       r="4.8310289"
       fx="6.0242186"
       fy="25.271027"
       id="radialGradient8548"
       xlink:href="#linearGradient8542"
       gradientUnits="userSpaceOnUse"
       gradientTransform="matrix(0.916159,0.09318684,-0.108765,1.069309,3.253668,-3.029272)" />
    <linearGradient
       id="linearGradient8542">
      <stop
         style="stop-color:#5b676b;stop-opacity:1"
         offset="0"
         id="stop8544" />
      <stop
         style="stop-color:#141718;stop-opacity:1"
         offset="1"
         id="stop8546" />
    </linearGradient>
    <linearGradient
       x1="6.3051529"
       y1="23.362427"
       x2="5.9846287"
       y2="31.57"
       id="linearGradient6458"
       xlink:href="#linearGradient6452"
       gradientUnits="userSpaceOnUse" />
    <linearGradient
       id="linearGradient6452">
      <stop
         style="stop-color:white;stop-opacity:1"
         offset="0"
         id="stop6454" />
      <stop
         style="stop-color:white;stop-opacity:0"
         offset="1"
         id="stop6456" />
    </linearGradient>
    <radialGradient
       cx="69.473244"
       cy="19.597878"
       r="3.5153139"
       fx="69.473244"
       fy="19.597878"
       id="radialGradient6474"
       xlink:href="#linearGradient6468"
       gradientUnits="userSpaceOnUse"
       gradientTransform="matrix(1.318488,0,0,1.318488,-22.1264,-6.241691)" />
    <linearGradient
       id="linearGradient6406">
      <stop
         style="stop-color:white;stop-opacity:1"
         offset="0"
         id="stop6408" />
      <stop
         style="stop-color:#b9b9b0;stop-opacity:1"
         offset="1"
         id="stop6410" />
    </linearGradient>
    <linearGradient
       x1="37.017639"
       y1="19.239889"
       x2="27.753893"
       y2="11.182488"
       id="linearGradient6957"
       xlink:href="#linearGradient6951"
       gradientUnits="userSpaceOnUse"
       gradientTransform="translate(-49.30496,1.877723)" />
    <linearGradient
       id="linearGradient6951">
      <stop
         style="stop-color:#6e3d09;stop-opacity:1"
         offset="0"
         id="stop6953" />
      <stop
         style="stop-color:#ea8113;stop-opacity:1"
         offset="0.24242425"
         id="stop6959" />
      <stop
         style="stop-color:#5c3307;stop-opacity:1"
         offset="0.62121212"
         id="stop6961" />
      <stop
         style="stop-color:#e07c12;stop-opacity:1"
         offset="1"
         id="stop6955" />
    </linearGradient>
    <linearGradient
       x1="19.394735"
       y1="30.001331"
       x2="23.109331"
       y2="33.438831"
       id="linearGradient6945"
       xlink:href="#linearGradient6939"
       gradientUnits="userSpaceOnUse"
       gradientTransform="translate(-46.40695,-1.802856)" />
    <linearGradient
       id="linearGradient6939">
      <stop
         style="stop-color:#bdbdbd;stop-opacity:1"
         offset="0"
         id="stop6941" />
      <stop
         style="stop-color:#e2e2e2;stop-opacity:1"
         offset="0.33333334"
         id="stop6947" />
      <stop
         style="stop-color:#a3a3a3;stop-opacity:1"
         offset="0.66666669"
         id="stop6949" />
      <stop
         style="stop-color:#ddd;stop-opacity:1"
         offset="1"
         id="stop6943" />
    </linearGradient>
    <radialGradient
       cx="15.415101"
       cy="35.356506"
       r="7.5791559"
       fx="15.415101"
       fy="35.356506"
       id="radialGradient6969"
       xlink:href="#linearGradient6963"
       gradientUnits="userSpaceOnUse"
       gradientTransform="matrix(1.572694,0,0,1.532639,-55.36682,-21.35823)" />
    <linearGradient
       id="linearGradient6963">
      <stop
         style="stop-color:#696969;stop-opacity:1"
         offset="0"
         id="stop6965" />
      <stop
         style="stop-color:black;stop-opacity:1"
         offset="1"
         id="stop6967" />
    </linearGradient>
    <linearGradient
       x1="13.236155"
       y1="37.752247"
       x2="7.7521091"
       y2="42.282146"
       id="linearGradient2452"
       xlink:href="#linearGradient2446"
       gradientUnits="userSpaceOnUse"
       gradientTransform="matrix(0.755165,0.395143,-0.395143,0.755165,-25.91245,6.532586)" />
    <linearGradient
       id="linearGradient2446">
      <stop
         style="stop-color:white;stop-opacity:1"
         offset="0"
         id="stop2448" />
      <stop
         style="stop-color:white;stop-opacity:0"
         offset="1"
         id="stop2450" />
    </linearGradient>
    <linearGradient
       y2="30.985245"
       x2="24.328892"
       y1="30.543303"
       x1="26.162951"
       gradientUnits="userSpaceOnUse"
       id="linearGradient3151"
       xlink:href="#linearGradient8534"
       inkscape:collect="always" />
    <linearGradient
       id="linearGradient8534">
      <stop
         style="stop-color:black;stop-opacity:1"
         offset="0"
         id="stop8536" />
      <stop
         style="stop-color:black;stop-opacity:0"
         offset="1"
         id="stop8538" />
    </linearGradient>
  </defs>
  <sodipodi:namedview
     id="base"
     pagecolor="#ffffff"
     bordercolor="#666666"
     borderopacity="1.0"
     inkscape:pageopacity="0.0"
     inkscape:pageshadow="2"
     inkscape:zoom="3.959798"
     inkscape:cx="28.389459"
     inkscape:cy="57.490015"
     inkscape:document-units="px"
     inkscape:current-layer="layer1"
     showgrid="false"
     inkscape:window-width="1280"
     inkscape:window-height="725"
     inkscape:window-x="0"
     inkscape:window-y="25"
     inkscape:window-maximized="1" />
  <metadata
     id="metadata7">
    <rdf:RDF>
      <cc:Work
         rdf:about="">
        <dc:format>image/svg+xml</dc:format>
        <dc:type
           rdf:resource="http://purl.org/dc/dcmitype/StillImage" />
        <dc:title></dc:title>
      </cc:Work>
    </rdf:RDF>
  </metadata>
  <g
     inkscape:label="Layer 1"
     inkscape:groupmode="layer"
     id="layer1"
     transform="translate(0,-956.36217)">
    <g
       transform="translate(-182.1875,-40.40626)"
       id="g6256">
      <rect
         y="964.36218"
         x="8"
         height="80"
         width="80"
         id="rect9283"
         style="fill:#000000;fill-opacity:1;stroke:none;filter:url(#filter6279)"
         rx="5"
         ry="5"
         transform="translate(182.1875,40.40625)" />
      <rect
         ry="5"
         rx="5"
         style="fill:url(#linearGradient10902-1);fill-opacity:1;stroke:none"
         id="rect9285"
         width="80"
         height="80"
         x="8"
         y="964.36218"
         transform="translate(182.1875,40.40625)" />
      <g
         id="g7632">
        <g
           id="g7065"
           transform="matrix(0,-0.491391,-0.491391,0,757.47224,1120.6342)">
          <path
             d="m 118.33439,1058.7565 c -1.97361,0.5952 -4.31727,0.1075 -5.71822,2.1487 -1.78464,1.4257 -3.71409,3.9345 -6.19476,2.9906 -1.05722,-0.5049 -4.47629,-2.7274 -3.38776,0.032 1.55862,0.9326 4.89846,1.3 4.21423,4.1452 -0.7198,1.9312 -2.31863,4.0654 -1.28065,6.1975 1.49928,1.336 3.03488,3.8375 0.83391,5.3799 -1.48831,1.3952 -3.18181,2.4625 -4.78753,3.664 -1.64675,1.9781 1.28121,3.0546 2.21134,1.0984 1.33747,-1.604 3.65933,-3.3596 5.59911,-1.8039 2.24177,1.7432 1.26477,4.9164 -0.0893,6.7668 1.13954,2.7607 1.87634,-1.1598 2.53895,-2.1968 1.2832,-2.101 3.72894,-0.8051 5.45763,-0.2726 2.2466,0.7746 3.6733,-2.0995 5.86715,-2.0525 2.08445,-0.3521 0.93466,-4.208 3.53666,-4.2012 2.15059,-0.8497 4.88154,-2.3963 4.66841,-5.2916 -0.30164,-2.8393 -2.68426,-4.843 -2.82934,-7.7531 0.1409,-2.3129 -0.46069,-5.359 -3.26862,-4.6502 -2.61869,-0.1236 -5.34385,-1.0924 -6.59682,-3.7522 l -0.34994,-0.2646 -0.42441,-0.1844 z m 10.57279,22.4974 c -0.0597,0 -0.12286,0 -0.18615,0.01 -0.65103,0.058 -1.47117,0.558 -1.98053,1.3951 -0.35749,0.5875 -0.36188,0.711 -0.007,1.5153 0.21155,0.4801 0.38717,0.9872 0.38717,1.1305 0,0.1433 0.13402,0.3217 0.29782,0.3928 0.60278,0.2619 0.86521,0.151 1.45935,-0.6093 0.63201,-0.8088 0.96413,-2.0545 0.82646,-3.1028 -0.0626,-0.4764 -0.37897,-0.7099 -0.79668,-0.7296 z"
             inkscape:connector-curvature="0"
             id="path2617"
             style="fill:url(#linearGradient7060);fill-opacity:1;display:inline" />
          <path
             d="m 103.12334,1062.5873 c -0.33059,0.094 -0.42812,0.4789 -0.0879,1.3412 1.25945,0.7536 3.67699,1.1494 4.19952,2.7704 0.006,-0.015 0.0165,-0.029 0.022,-0.044 0.66712,-2.774 -2.48664,-3.184 -4.08959,-4.0676 -0.0138,0 -0.0309,0 -0.044,0 z m 2.57248,9.4764 c -0.12847,0.7327 -0.0968,1.458 0.26384,2.1987 0.77699,0.6924 1.55355,1.7038 1.82492,2.7264 0.46563,-1.4268 -0.68826,-3.1207 -1.82492,-4.1335 -0.12975,-0.2665 -0.20963,-0.5254 -0.26384,-0.7916 z m 26.05461,2.9243 c -0.40934,2.2473 -2.73551,3.522 -4.61727,4.2655 -2.60201,-0.01 -1.45546,3.8474 -3.53991,4.1995 -2.19385,-0.047 -3.62394,2.8194 -5.87054,2.0448 -1.7287,-0.5325 -4.16957,-1.8371 -5.45277,0.2639 -0.57493,0.8997 -1.2095,3.9746 -2.11076,2.9682 -0.13279,0.2249 -0.27284,0.4396 -0.41775,0.6376 1.13955,2.7607 1.8659,-1.1617 2.52851,-2.1987 1.2832,-2.101 3.72408,-0.7963 5.45277,-0.2638 2.2466,0.7746 3.67669,-2.0918 5.87054,-2.0448 2.08445,-0.3521 0.9379,-4.2062 3.53991,-4.1995 0.0411,-0.016 0.0904,-0.027 0.13192,-0.044 0.46021,-0.4471 0.99012,-0.7283 1.45114,-0.7695 0.0422,0 0.0908,0 0.13192,0 1.64822,-0.9295 3.10475,-2.3324 2.94626,-4.4854 -0.0133,-0.1256 -0.0229,-0.2513 -0.044,-0.3738 z m -23.43816,5.6067 c -1.53406,-0.087 -3.08648,1.2155 -4.08958,2.4186 -0.57091,1.2007 -1.88416,1.2292 -2.44056,0.6376 -1.07105,1.7576 1.56449,2.612 2.44056,0.7695 1.33746,-1.604 3.66692,-3.3586 5.60669,-1.8029 0.76095,0.5918 1.14489,1.3411 1.27524,2.1547 0.1962,-1.3164 -0.088,-2.6386 -1.27524,-3.5619 -0.48495,-0.3889 -1.00575,-0.5865 -1.51711,-0.6156 z m 21.34939,1.2313 c -0.12119,0.6846 -0.4005,1.3465 -0.79153,1.8469 -0.59413,0.7603 -0.84836,0.8775 -1.45114,0.6156 -0.16381,-0.071 -0.30782,-0.2524 -0.30782,-0.3957 0,-0.1433 -0.16223,-0.6413 -0.37378,-1.1214 -0.0113,-0.026 -0.0114,-0.042 -0.022,-0.066 -0.32718,0.5452 -0.32216,0.6922 0.022,1.4731 0.21155,0.4801 0.37378,0.978 0.37378,1.1213 0,0.1434 0.14401,0.3246 0.30782,0.3958 0.60278,0.2619 0.85701,0.1447 1.45114,-0.6156 0.63201,-0.8088 0.97317,-2.0519 0.83551,-3.1002 -0.008,-0.06 -0.0285,-0.1019 -0.044,-0.1539 z"
             inkscape:connector-curvature="0"
             id="path3779"
             style="opacity:0.3;fill:#000000;fill-opacity:1;display:inline" />
          <path
             d="m 141.77729,1050.9342 c -1.65152,2.3369 -1.22656,6.1053 -3.58388,7.8274 -1.70171,1.0907 -3.71976,-2.3262 -3.71581,0.3078 -2.10486,1.0254 -4.35726,-1.4227 -6.39822,0.3518 -1.59268,1.3524 -2.83786,-2.0887 -2.68242,0.5497 -1.71321,1.5148 -1.68223,4.0498 -3.16613,5.6067 -2.75233,1.5101 -5.97975,0.3039 -8.92672,0.7695 1.94307,1.2329 4.35242,-0.2573 6.39822,0.8355 2.15879,1.0757 3.59153,3.4187 4.44137,5.7167 1.10557,2.4938 -1.98498,4.3372 -1.95684,6.2882 1.21612,-1.8848 2.02977,-4.8715 4.63926,-4.7492 1.10066,1.1625 1.81121,2.8234 3.42997,1.5611 1.7436,-0.6742 4.15875,1.8751 4.77119,1.3632 1.07849,-0.8911 1.82725,2.1904 1.73697,-0.2858 1.7541,-1.5916 5.31259,-0.6997 6.2663,1.627 1.39424,1.3419 -1.29749,-2.0669 -0.96743,-3.1881 -0.0606,-2.77 3.04995,-4.5533 5.36483,-3.8037 3.41984,0.7138 -2.88072,-0.8821 -2.11075,-3.2541 -0.003,-1.5606 1.99454,-3.2428 -0.37378,-3.6059 -1.6316,-0.8911 -3.24965,-2.5239 -3.29805,-4.2435 -2.98184,0.06 -1.7866,-4.3805 -0.92346,-6.2223 0.37946,-1.1095 1.02381,-2.2984 1.05538,-3.452 z m -18.27121,3.7598 c -0.30458,0 -0.16914,0.3553 0.48372,1.4072 0.70384,1.134 0.84143,1.2688 0.59364,0.5716 -0.33072,-0.9305 -0.90988,-1.9788 -1.07736,-1.9788 z m 30.25413,8.509 c -1.37718,0.1186 -4.59249,1.7115 -1.5171,0.6596 0.51792,-0.1744 1.04071,-0.3783 1.5171,-0.6596 z m -5.49675,4.0896 c -0.11132,0 -0.22338,0.02 -0.30782,0.044 -0.16888,0.047 -0.0299,0.088 0.30782,0.088 0.33777,0 0.47671,-0.041 0.30782,-0.088 -0.0845,-0.024 -0.19651,-0.044 -0.30782,-0.044 z m 0.79153,0.1759 c 0.94844,0.4754 4.94412,0.6457 2.08877,0.1099 -0.69698,-0.024 -1.39781,0.015 -2.08877,-0.1099 z m -28.9569,9.5423 -0.87948,0.8575 c -0.12334,-0.3725 -0.61394,-0.3102 -0.8355,-0.066 -0.84892,0.661 -1.41325,1.6261 -2.26467,2.2866 -0.2749,0.2668 -0.0733,0.6943 0.1759,0.9015 0.35537,0.3437 0.78103,0.6217 1.25326,0.7695 0.46733,0.022 0.68394,-0.4735 0.83551,-0.8355 0.18748,-0.4827 0.35651,-0.9725 0.54967,-1.4511 0.0701,-0.4874 0.0842,-0.9985 0.3518,-1.4292 0.21217,-0.3881 0.50356,-0.7206 0.81351,-1.0334 z m 14.18163,2.3087 c -0.0359,0.014 -0.0497,0.1154 -0.044,0.2638 0.008,0.2187 0.0539,0.2597 0.10993,0.1099 0.0507,-0.1355 0.0363,-0.2894 -0.022,-0.3518 -0.0146,-0.016 -0.032,-0.027 -0.044,-0.022 z m -0.088,0.8135 c -1.11667,1.1777 -0.27344,2.6672 0,0 z m 3.07818,0.3078 c -0.0359,0.014 -0.0497,0.1154 -0.044,0.2638 0.008,0.2187 0.0319,0.2597 0.088,0.11 0.0507,-0.1355 0.0583,-0.2895 0,-0.3518 -0.0146,-0.016 -0.032,-0.027 -0.044,-0.022 z"
             inkscape:connector-curvature="0"
             id="path2639"
             style="fill:url(#linearGradient7056);fill-opacity:1;display:inline" />
          <path
             d="m 141.77651,1050.9342 c -1.12611,1.5935 -1.28722,3.8507 -2.02281,5.6727 -0.02,0.3405 -0.002,0.6655 0.044,0.9674 0.14386,-1.1688 0.55939,-2.4113 0.92346,-3.1881 0.37945,-1.1095 1.0238,-2.2984 1.05537,-3.452 z m -18.27121,3.7598 c -0.30459,0 -0.16914,0.3553 0.48371,1.4072 0.70384,1.134 0.84143,1.2688 0.59365,0.5716 -0.33072,-0.9305 -0.90988,-1.9788 -1.07736,-1.9788 z m 30.25413,8.509 c -1.37719,0.1186 -4.59249,1.7115 -1.5171,0.6596 0.51791,-0.1744 1.04071,-0.3783 1.5171,-0.6596 z m -7.89334,1.9788 c -0.23232,0.5783 -0.55081,1.2338 -0.54967,1.8689 -0.10908,0.336 -0.083,0.6669 0.044,0.9674 0.22654,-1.1296 1.19254,-2.2558 0.5057,-2.8363 z m -25.43897,1.0334 c -2.29923,0.4356 -4.80352,-0.2347 -7.1238,0.1319 1.94308,1.2329 4.35243,-0.2573 6.39823,0.8355 2.15879,1.0757 3.59152,3.4187 4.44137,5.7167 0.0622,0.1402 0.095,0.2814 0.13193,0.4177 0.15115,-0.5736 0.15543,-1.1767 -0.13193,-1.8249 -0.74942,-2.0264 -1.96168,-4.0804 -3.7158,-5.2769 z m 27.83556,1.0774 c -0.11132,0 -0.22338,0.02 -0.30782,0.044 -0.16889,0.047 -0.0299,0.088 0.30782,0.088 0.33776,0 0.4767,-0.041 0.30782,-0.088 -0.0845,-0.024 -0.19651,-0.044 -0.30782,-0.044 z m 0.79153,0.1759 c 0.94843,0.4754 4.94412,0.6457 2.08877,0.1099 -0.69699,-0.024 -1.39781,0.015 -2.08877,-0.1099 z m -3.14414,2.7044 c -1.95853,0.1892 -3.89566,1.743 -3.84773,3.9356 -0.0538,0.1826 -0.01,0.4301 0.066,0.7036 0.42692,-2.3558 3.18827,-3.7836 5.29887,-3.1001 2.49808,0.5214 -0.18643,-0.1934 -1.5171,-1.5391 z m -19.08473,2.8583 c -1.07749,-0.05 -1.84266,0.4301 -2.46255,1.1433 -0.12931,1.8789 -2.19984,3.4096 -2.17671,5.013 1.21612,-1.8848 2.02976,-4.8715 4.63926,-4.7492 1.10066,1.1625 1.8112,2.8234 3.42997,1.5611 1.74359,-0.6742 4.15875,1.8751 4.77118,1.3632 1.0785,-0.8911 1.82725,2.1904 1.73698,-0.2858 1.75409,-1.5916 5.31259,-0.6997 6.2663,1.627 1.22717,1.1811 -0.71036,-1.3239 -0.96743,-2.7044 -1.47056,-1.2881 -3.92848,-1.5732 -5.29887,-0.3298 0.0903,2.4762 -0.65848,-0.6053 -1.73698,0.2858 -0.61243,0.5119 -3.02759,-2.0373 -4.77118,-1.3631 -1.61877,1.2622 -2.32931,-0.3986 -3.42997,-1.5611 z m -6.72803,3.9796 -0.87948,0.8575 c -0.0399,-0.1204 -0.12473,-0.1818 -0.21987,-0.2199 -0.0183,0.1419 -0.0458,0.2774 -0.066,0.4178 -0.19316,0.4787 -0.36219,0.9685 -0.54967,1.4511 -0.15157,0.362 -0.36818,0.8575 -0.83551,0.8356 -0.39326,-0.1232 -0.74041,-0.3493 -1.05538,-0.6157 -0.12287,0.1177 -0.23874,0.247 -0.37378,0.3518 -0.27491,0.2668 -0.0733,0.6943 0.1759,0.9015 0.35537,0.3437 0.78103,0.6217 1.25326,0.7695 0.46733,0.022 0.68394,-0.4735 0.83551,-0.8355 0.18748,-0.4827 0.35651,-0.9725 0.54967,-1.4511 0.0701,-0.4874 0.0842,-0.9985 0.35179,-1.4292 0.21217,-0.3881 0.50357,-0.7206 0.81352,-1.0334 z m 14.18163,2.3087 c -0.0359,0.014 -0.0497,0.1154 -0.044,0.2638 0.008,0.2187 0.0539,0.2597 0.10993,0.1099 0.0507,-0.1355 0.0363,-0.2894 -0.022,-0.3518 -0.0146,-0.016 -0.032,-0.027 -0.044,-0.022 z m -0.088,0.8135 c -1.11667,1.1777 -0.27344,2.6672 0,0 z m 3.07818,0.3078 c -0.0359,0.014 -0.0497,0.1154 -0.044,0.2638 0.008,0.2187 0.0319,0.2597 0.088,0.11 0.0507,-0.1355 0.0583,-0.2895 0,-0.3518 -0.0146,-0.016 -0.032,-0.027 -0.044,-0.022 z"
             inkscape:connector-curvature="0"
             id="path3774"
             style="opacity:0.5;fill:#794200;fill-opacity:1;display:inline" />
          <path
             d="m 120.4007,1073.3625 c 0,-0.4036 0.21182,-0.7338 0.47072,-0.7338 0.2589,0 0.47072,0.1993 0.47072,0.4429 0,0.2436 -0.21182,0.5739 -0.47072,0.7339 -0.2589,0.16 -0.47072,-0.039 -0.47072,-0.443 z m 2.35359,-4.8387 c -1.09755,-0.442 -1.85149,-1.6595 -1.8679,-3.0165 -0.0111,-0.9135 -0.37111,-1.3849 -1.37599,-1.8011 -1.75249,-0.7259 -2.98831,-0.017 -3.77809,2.167 -0.39475,1.0917 -0.86791,1.5776 -1.53629,1.5776 -1.12448,0 -1.04867,-0.6845 0.50833,-4.5895 0.54193,-1.3592 0.77437,-2.4713 0.51653,-2.4713 -0.25783,0 -0.4688,-0.3111 -0.4688,-0.6913 0,-0.4211 -0.27597,-0.5854 -0.70607,-0.4203 -0.39024,0.1497 -0.70607,0.014 -0.70607,-0.3043 0,-0.4031 -0.34716,-0.3478 -1.16025,0.185 -1.50008,0.9829 -1.66406,0.9601 -1.66406,-0.2316 0,-0.6575 -0.2225,-0.9064 -0.66006,-0.7385 -1.22425,0.4698 -1.17141,-0.2417 0.10169,-1.3693 1.00815,-0.8929 1.13296,-1.2064 0.61574,-1.5465 -0.35679,-0.2346 -0.5122,-0.6474 -0.34536,-0.9174 0.41343,-0.6689 -0.52981,-1.1799 -2.73336,-1.4808 -2.49952,-0.3413 -2.8098,-1.4109 -0.43058,-1.4843 2.65158,-0.082 4.52452,-0.5707 4.74679,-1.2388 0.10766,-0.3236 -0.11494,-0.5884 -0.49466,-0.5884 -0.9466,0 -1.27731,-1.5718 -0.71805,-3.4127 0.61444,-2.0226 -0.14207,-3.9977 -1.67895,-4.3835 -1.34966,-0.3387 -1.80972,-1.2454 -1.41997,-2.7983 0.63048,-2.512 3.47798,-1.9655 4.45291,0.8546 l 0.68209,1.9731 2.75617,0.1 c 1.69778,0.061 3.5758,0.4965 4.89058,1.133 2.69404,1.3041 3.25128,0.9821 4.80878,-2.7787 1.19124,-2.8765 1.98865,-3.5317 3.74071,-3.0735 1.241,0.3245 1.53518,1.8706 0.72492,3.8098 -1.08871,2.6056 -0.9106,3.8694 0.54534,3.8694 0.6747,0 2.04837,0.6508 3.0526,1.4461 1.2402,0.9823 2.12239,1.352 2.75028,1.1528 1.03353,-0.3281 2.85545,1.1673 2.85545,2.3437 0,1.0218 -1.83914,2.7064 -2.62534,2.4047 -0.91878,-0.3525 -0.84232,0.6254 0.13318,1.7033 0.66181,0.7313 0.70128,1.0498 0.22469,1.813 -0.64682,1.0357 -0.12149,1.4723 1.57939,1.3126 2.4062,-0.2259 3.28184,0.6899 2.71872,2.8433 -0.44233,1.6915 -3.91351,1.6683 -3.91351,-0.026 0,-0.4957 -0.29595,-1.0148 -0.65766,-1.1536 -0.86284,-0.3311 -7.90466,0.6537 -8.42988,1.1789 -0.22876,0.2288 -0.0913,1.0173 0.31387,1.8008 0.5573,1.0777 1.05788,1.4035 2.20664,1.4362 1.68354,0.048 1.733,0.075 1.87088,1.0439 0.26408,1.855 -0.0555,2.7225 -1.07014,2.9053 -1.54766,0.2787 -2.70663,-0.059 -2.70663,-0.788 0,-0.7128 -1.25474,-2.1173 -1.89155,-2.1173 -0.22669,0 -0.37874,0.8379 -0.3379,1.8621 0.0408,1.0242 -0.0238,1.9601 -0.14358,2.08 -0.42566,0.4256 -2.58053,0.7059 -3.27558,0.4259 z m -5.64861,-1.2739 c 0,-0.4366 0.40246,-0.7406 0.98065,-0.7406 1.14717,0 0.98502,1.1 -0.19591,1.329 -0.46448,0.09 -0.78474,-0.15 -0.78474,-0.5884 z m -16.99544,-2.4695 c -0.415617,-0.1082 -1.037268,-0.7229 -1.381448,-1.366 -0.708387,-1.3237 -0.157491,-2.1884 1.760008,-2.7626 1.43534,-0.4298 3.13527,1.2751 2.6963,2.7043 -0.17484,0.5692 -0.34455,1.0617 -0.37712,1.0942 -0.26418,0.2642 -2.09194,0.4879 -2.69774,0.3301 z m 5.69821,-2.2722 c 0,-0.9414 0.23536,-1.1768 1.1768,-1.1768 0.94143,0 1.17679,0.2354 1.17679,1.1768 0,0.9415 -0.23536,1.1768 -1.17679,1.1768 -0.94144,0 -1.1768,-0.2353 -1.1768,-1.1768 z"
             inkscape:connector-curvature="0"
             id="path2707"
             style="fill:url(#linearGradient7052);fill-opacity:1;display:inline" />
          <path
             d="m 129.92551,1038.3357 c -0.0722,0.3873 -0.19134,0.8166 -0.37378,1.2532 -0.64958,1.5547 -0.84836,2.6163 -0.59365,3.2321 0.10756,-0.5152 0.29425,-1.1084 0.59365,-1.8249 0.43407,-1.0389 0.5494,-1.9746 0.37378,-2.6604 z m -22.47073,0.8355 c -0.29873,1.4271 0.18447,2.271 1.47313,2.5944 0.99182,0.249 1.64183,1.1723 1.82492,2.3307 0.29338,-1.782 -0.45211,-3.3933 -1.82492,-3.7378 -0.78564,-0.1972 -1.28251,-0.5898 -1.47313,-1.1873 z m 2.94626,7.8933 c -0.1726,1.1305 0.0206,2.0301 0.5057,2.3526 0.50162,-0.1881 0.81812,-0.431 0.90147,-0.6816 0.10765,-0.3236 -0.104,-0.5716 -0.48372,-0.5716 -0.48848,0 -0.80065,-0.4413 -0.92345,-1.0994 z m 28.14338,2.0008 c -0.49598,0.9448 -1.78961,1.9784 -2.41858,1.737 -0.82513,-0.3166 -0.82052,0.4249 -0.10993,1.3632 0.0405,0.011 0.0646,0.027 0.10993,0.044 0.78621,0.3017 2.63845,-1.3968 2.63845,-2.4186 0,-0.2376 -0.0928,-0.4796 -0.21987,-0.7256 z m -31.48541,2.3307 c -2.37922,0.073 -2.05978,1.1318 0.43974,1.4731 2.20355,0.3008 3.13981,0.8262 2.72639,1.4951 -0.12513,0.2025 -0.0765,0.4758 0.10994,0.7036 0.62389,-0.614 0.67854,-0.9222 0.24185,-1.2093 -0.35678,-0.2346 -0.51863,-0.6315 -0.35179,-0.9015 0.41342,-0.6689 -0.52284,-1.1942 -2.72639,-1.4951 -0.13958,-0.019 -0.24794,-0.043 -0.37378,-0.066 -0.0224,7e-4 -0.0434,-7e-4 -0.066,0 z m 29.48459,2.8363 c -0.0189,0.032 -0.0231,0.055 -0.044,0.088 -0.3854,0.6171 -0.35964,1.017 0.088,1.2093 0.27405,-0.4995 0.28248,-0.8501 -0.044,-1.2972 z m -26.40641,2.5065 c -0.0319,0 -0.074,0.018 -0.10993,0.022 -0.0271,0.024 -0.0374,0.041 -0.066,0.066 -1.2731,1.1276 -1.33419,1.833 -0.10994,1.3632 0.43755,-0.1679 0.65961,0.09 0.65961,0.7476 0,1.1917 0.17093,1.2028 1.67102,0.2199 0.81308,-0.5328 1.16531,-0.579 1.16531,-0.1759 0,0.3179 0.31335,0.4575 0.70358,0.3078 0.4301,-0.1651 0.70359,0 0.70359,0.4177 0,0.3076 0.1406,0.5486 0.3298,0.6377 0.23908,-0.7956 0.31274,-1.3632 0.13193,-1.3632 -0.25784,0 -0.46173,-0.3014 -0.46173,-0.6816 0,-0.4211 -0.27349,-0.5828 -0.70359,-0.4178 -0.39023,0.1498 -0.70358,0.01 -0.70358,-0.3078 0,-0.4031 -0.35223,-0.3568 -1.16531,0.1759 -1.50009,0.9829 -1.67102,0.9718 -1.67102,-0.2199 0,-0.4931 -0.1266,-0.7615 -0.37377,-0.7915 z m 25.48295,0.4837 c -1.93306,-0.026 -7.3678,0.7937 -7.82737,1.2533 -0.18395,0.1839 -0.12851,0.727 0.10993,1.3412 0.97068,-0.5365 7.48158,-1.4397 8.31109,-1.1214 0.36171,0.1388 0.65961,0.6476 0.65961,1.1434 0,1.6944 3.47135,1.7354 3.91369,0.044 0.18934,-0.724 0.20541,-1.3111 0.066,-1.7589 -0.0231,0.1177 -0.033,0.2256 -0.066,0.3518 -0.44234,1.6915 -3.91369,1.6505 -3.91369,-0.044 0,-0.4957 -0.2979,-1.0045 -0.65961,-1.1433 -0.10785,-0.041 -0.3175,-0.062 -0.59365,-0.066 z m -37.004141,4.5293 c -0.288863,0.4534 -0.244258,1.0092 0.109935,1.671 0.344181,0.6432 0.969564,1.255 1.385186,1.3632 0.60579,0.1578 2.44021,-0.066 2.7044,-0.3298 0.0326,-0.033 0.19893,-0.5301 0.37378,-1.0993 0.11903,-0.3875 0.0596,-0.7853 -0.088,-1.1653 -0.12929,0.4019 -0.26048,0.8321 -0.28583,0.8575 -0.26419,0.2642 -2.09861,0.4875 -2.70441,0.3298 -0.415612,-0.1083 -1.040995,-0.7201 -1.385176,-1.3632 -0.04843,-0.091 -0.07331,-0.1776 -0.109935,-0.2639 z m 7.277701,0.066 c -0.0629,0.1718 -0.0879,0.3819 -0.0879,0.6816 0,0.9414 0.24586,1.1873 1.1873,1.1873 0.94143,0 1.16531,-0.2459 1.16531,-1.1873 0,-0.302 -0.0239,-0.5094 -0.088,-0.6816 -0.13947,0.3487 -0.44974,0.4617 -1.07736,0.4617 -0.63086,0 -0.96096,-0.1087 -1.09935,-0.4617 z m 12.40068,0.1979 c -1.12393,0 -1.98015,0.8025 -2.57248,2.4405 -0.39475,1.0917 -0.84873,1.5831 -1.51711,1.5831 -0.26458,0 -0.46563,-0.023 -0.59365,-0.1319 -0.34988,1.2523 -0.13217,1.5391 0.59365,1.5391 0.66838,0 1.12236,-0.4914 1.51711,-1.5831 0.78977,-2.1841 2.02926,-2.8806 3.78176,-2.1547 1.00488,0.4162 1.37413,0.8893 1.38519,1.8029 0.0164,1.357 0.77134,2.5702 1.86889,3.0122 0.69506,0.2799 2.8504,0.01 3.27607,-0.4177 0.1198,-0.1198 0.17276,-1.0646 0.13192,-2.0888 -0.0263,0.363 -0.0734,0.6231 -0.13192,0.6816 -0.42567,0.4257 -2.58101,0.6977 -3.27607,0.4178 -1.09755,-0.442 -1.85248,-1.6553 -1.86889,-3.0123 -0.0111,-0.9135 -0.38031,-1.3867 -1.38519,-1.8029 -0.43812,-0.1815 -0.83464,-0.2843 -1.20928,-0.2858 z m 8.22314,0.7255 c -0.22669,10e-5 -0.39263,0.8448 -0.35179,1.8689 0.009,0.2335 0.023,0.466 0.022,0.6816 0.0362,-0.6677 0.15978,-1.1433 0.3298,-1.1433 0.63681,0 1.89089,1.4199 1.89089,2.1328 0,0.7292 1.15674,1.0482 2.7044,0.7695 0.95145,-0.1714 1.27839,-0.9473 1.09935,-2.5725 -0.12677,0.6905 -0.48009,1.0538 -1.09935,1.1653 -1.54766,0.2787 -2.7044,-0.04 -2.7044,-0.7695 0,-0.7128 -1.25408,-2.1328 -1.89089,-2.1328 z m -8.42103,3.7598 c -0.57819,0 -0.98941,0.3109 -0.98941,0.7476 0,0.4383 0.32705,0.6837 0.79153,0.5936 1.18093,-0.229 1.34505,-1.3412 0.19788,-1.3412 z m 2.77037,6.1344 c -0.2589,0 -0.46173,0.322 -0.46173,0.7256 0,0.4036 0.20283,0.5997 0.46173,0.4397 0.25889,-0.16 0.48371,-0.4819 0.48371,-0.7256 0,-0.2436 -0.22482,-0.4397 -0.48371,-0.4397 z"
             inkscape:connector-curvature="0"
             id="path3767"
             style="opacity:0.3;fill:#000000;fill-opacity:1;display:inline" />
          <path
             d="m 120.40513,1016.6125 c -0.30175,-2e-4 -0.64224,0.086 -1.0114,0.2638 -1.30205,0.9835 -3.01832,-0.881 -4.30946,0.2859 -1.35563,2.1741 1.79795,2.4501 3.16613,2.9242 1.6674,0.38 2.29431,1.7765 3.01222,2.9023 2.14926,0.4934 2.014,-2.2873 1.49512,-3.6058 -0.34603,-1.2796 -1.04502,-2.7695 -2.35261,-2.7704 z m 12.5326,0.4177 c -1.90105,1.5436 1.15268,4.6058 -1.51711,6.0025 -1.96587,1.4264 -4.87018,0.1822 -6.46418,2.3526 -1.6423,2.2459 -3.75913,-0.8032 -5.34284,0.1759 1.35473,1.6551 4.77303,2.0373 4.46336,5.035 0.41208,2.7563 -2.29915,4.8108 -1.93485,7.4756 0.53696,1.981 3.02701,4.1714 0.43973,5.8266 -1.32284,1.187 -0.47173,2.2556 0.57167,0.5936 0.67731,-2.1119 4.26605,-3.4514 4.46336,-0.3738 0.40667,1.4426 -1.05959,4.2668 0.39577,4.7932 0.2218,-2.5673 0.33618,-5.8402 3.12215,-7.0798 2.32235,-1.2198 3.68738,2.2247 5.95848,1.4731 2.60927,-1.1029 3.45834,1.7014 5.21093,2.7924 3.40268,0.1334 2.00566,-5.075 3.10017,-7.2337 1.8326,-1.7483 2.0679,-4.1045 2.57248,-6.4642 1.69297,-2.6793 5.11106,-0.2887 7.14578,-1.3632 -0.26755,-2.4404 -4.3112,-0.4704 -6.09041,-1.3632 -2.21108,-0.1694 -4.87071,-2.3065 -3.47395,-4.6613 0.67457,-1.1495 4.16971,-4.0768 1.56108,-4.3974 -1.71504,1.3299 -2.61427,3.7749 -5.16695,3.9137 -2.27886,1.0221 -5.02599,0.7808 -6.5961,-1.3632 -2.15215,-1.4206 -0.91438,-4.0525 -1.95684,-5.8925 -0.0816,-0.2529 -0.28242,-0.2184 -0.46173,-0.2419 z m 5.9145,1.693 c -0.36591,0 -0.72169,0.194 -1.09935,0.5717 -1.13087,1.1309 -0.43371,2.9956 0.98942,2.6385 0.29406,-0.074 0.83152,0.037 1.20929,0.2418 0.877,0.4752 1.27696,0.4759 1.45114,0.022 0.23958,-0.6243 -0.13548,-1.5346 -1.03339,-2.5285 -0.57188,-0.633 -1.04664,-0.949 -1.51711,-0.9454 z m -21.41535,9.4105 c -0.45683,-0.018 -0.89401,0.022 -1.0114,0.1979 -0.98672,1.4755 -0.1739,1.6896 0.74756,2.4185 1.19956,0.9489 2.9308,-0.8943 3.14414,-0.7255 -0.62218,-1.0403 -1.00572,-1.3368 -1.78095,-1.715 -0.17206,-0.084 -0.64251,-0.1582 -1.09935,-0.1759 z m 1.47313,5.3648 c -0.49397,0.081 -0.52935,0.609 -0.39576,1.1433 0.29146,1.1659 0.54018,0.5842 1.05537,0.3518 0.72244,-0.3258 0.42094,-0.3996 0,-1.4071 -0.27656,-0.087 -0.49495,-0.1148 -0.65961,-0.088 z m 29.37465,3.342 c -0.24543,0.047 0.17387,0.5216 1.1873,1.3852 0.85196,0.7261 1.76169,1.5838 2.02281,1.8909 0.66733,0.7848 1.42487,0.6125 1.5171,-0.3298 0.067,-0.6842 -0.006,-0.7803 -1.25326,-1.2972 -0.73618,-0.3052 -1.74126,-0.818 -2.22069,-1.1434 -0.47941,-0.3253 -1.04692,-0.5455 -1.25326,-0.5057 z"
             inkscape:connector-curvature="0"
             id="path2627"
             style="fill:url(#linearGradient7048);fill-opacity:1;display:inline" />
          <path
             d="m 114.99632,1017.3381 c -1.07914,2.0127 1.92391,2.2874 3.25408,2.7483 1.6674,0.38 2.29431,1.7765 3.01222,2.9023 1.65848,0.3807 1.94768,-1.1863 1.75896,-2.5285 -0.16998,0.7983 -0.68433,1.368 -1.75896,1.1214 -0.71791,-1.1259 -1.34482,-2.5224 -3.01222,-2.9023 -0.92185,-0.3195 -2.63657,-0.5604 -3.25408,-1.3412 z m 17.34776,0.6156 c -0.18558,0.7232 0.0303,1.5702 0.15391,2.3966 0.19012,-0.7332 -0.0282,-1.5801 -0.15391,-2.3966 z m 5.01304,1.9568 c -0.46766,1.0799 0.19599,2.3213 1.38518,2.0229 0.29406,-0.074 0.83152,0.037 1.20929,0.2418 0.877,0.4752 1.27696,0.4759 1.45114,0.022 0.12624,-0.329 0.0697,-0.7291 -0.13192,-1.1873 -0.21964,0.217 -0.61762,0.1383 -1.31922,-0.2419 -0.37777,-0.2047 -0.91523,-0.3156 -1.20929,-0.2418 -0.64869,0.1628 -1.14254,-0.1351 -1.38518,-0.6157 z m 10.39985,0.9015 c -0.58659,0.9835 -1.82444,2.1546 -2.1987,2.7924 -0.42621,0.7185 -0.48703,1.4165 -0.28583,2.0448 0.0633,-0.2091 0.15889,-0.4237 0.28583,-0.6377 0.6005,-1.0233 3.42342,-3.4516 2.1987,-4.1995 z m -27.52774,4.5513 c -0.21265,0.015 -0.41767,0.075 -0.61563,0.1979 1.27006,1.5516 4.36,1.9892 4.48535,4.5073 0.0211,-0.2847 0.0228,-0.5798 -0.022,-0.8794 0.18679,-1.8083 -0.98771,-2.6497 -2.24268,-3.408 -0.55079,-0.2259 -1.0997,-0.4527 -1.60505,-0.4178 z m -3.97965,3.2541 c -0.68268,1.2087 0.0685,1.4564 0.92346,2.1327 1.19956,0.9489 2.9308,-0.8943 3.14414,-0.7255 -0.2823,-0.472 -0.52662,-0.7686 -0.76954,-1.0114 -0.6659,0.4201 -1.60904,0.9354 -2.3746,0.3298 -0.35764,-0.2829 -0.69741,-0.4939 -0.92346,-0.7256 z m 36.01473,1.1873 c -0.97467,0.079 -2.00745,0.2103 -2.79235,0.022 -0.57091,0.1747 -1.08348,0.5139 -1.49511,1.1653 -0.50458,2.3598 -0.73988,4.716 -2.57249,6.4642 -1.0945,2.1588 0.30252,7.3671 -3.10016,7.2337 -1.75259,-1.091 -2.60166,-3.8953 -5.21093,-2.7923 -2.2711,0.7515 -3.63613,-2.693 -5.95848,-1.4732 -2.78597,1.2397 -2.90035,4.5125 -3.12215,7.0799 -0.31925,-0.1155 -0.50497,-0.3399 -0.59365,-0.6377 -0.13382,0.9522 -0.13404,1.7816 0.59365,2.0448 0.2218,-2.5673 0.33618,-5.8402 3.12215,-7.0798 2.32235,-1.2198 3.68738,2.2247 5.95848,1.4731 2.60927,-1.1029 3.45834,1.7014 5.21093,2.7924 3.40268,0.1334 2.00566,-5.075 3.10016,-7.2337 1.83261,-1.7483 2.06791,-4.1045 2.57249,-6.4642 1.69297,-2.6793 5.11106,-0.2887 7.14577,-1.3632 -0.0701,-0.6393 -0.39975,-0.9786 -0.87948,-1.1433 -0.61228,0.078 -1.2902,0 -1.97883,-0.088 z m -32.69469,3.7818 c -0.43791,0.1975 -0.68069,0.6294 -0.92345,0.044 -0.22472,0.2042 -0.23404,0.603 -0.13192,1.0114 0.29146,1.1659 0.54018,0.5842 1.05537,0.3518 0.72244,-0.3258 0.42094,-0.3996 0,-1.4071 z m 2.61646,3.2101 c -0.0789,0.4111 -0.1039,0.8369 -0.044,1.2752 0.29027,1.0709 1.15197,2.2004 1.47313,3.2761 0.54444,-1.4103 -0.95833,-3.0365 -1.42916,-4.5513 z m 26.09858,0.044 c -0.24543,0.047 0.17387,0.5216 1.1873,1.3852 0.85196,0.7261 1.76169,1.5838 2.02281,1.8909 0.66733,0.7848 1.42487,0.6125 1.5171,-0.3298 0.0393,-0.4015 0.0242,-0.5912 -0.24186,-0.7915 -0.29578,0.3295 -0.80603,0.266 -1.27524,-0.2859 -0.1088,-0.1279 -0.3767,-0.3898 -0.65961,-0.6596 -0.50998,-0.2509 -1.00111,-0.5026 -1.29724,-0.7036 -0.47941,-0.3253 -1.04692,-0.5455 -1.25326,-0.5057 z m -22.3388,4.0676 c -0.76625,0.035 -1.63787,0.5063 -2.22069,1.1873 0.003,0.6404 -0.28427,1.2534 -1.14333,1.803 -1.32284,1.187 -0.47173,2.2556 0.57167,0.5936 0.67731,-2.1119 4.26605,-3.4514 4.46336,-0.3738 0.0703,-0.5237 0.11079,-1.0141 0,-1.4071 -0.0863,-1.3465 -0.81421,-1.8422 -1.67101,-1.803 z"
             inkscape:connector-curvature="0"
             id="path3762"
             style="opacity:0.3;fill:#241c1c;fill-opacity:1;display:inline" />
          <path
             d="m 159.18313,1017.8441 c -1.20548,0.082 -1.49465,1.0457 -0.82003,2.7412 0.32273,0.8112 1.72572,0.7297 2.17895,-0.1171 0.20228,-0.378 0.3152,-1.0952 0.25773,-1.5932 -0.0822,-0.7121 -0.28987,-0.9225 -1.03091,-1.0075 -0.20916,-0.024 -0.41352,-0.035 -0.58574,-0.023 z m -5.95111,5.4825 c -0.14587,0.018 -0.18744,0.1866 -0.18744,0.4686 0,0.2999 -0.20907,0.3987 -0.51545,0.2811 -0.35881,-0.1377 -0.51218,0.045 -0.51545,0.6092 -0.002,0.4347 -0.0842,1.1148 -0.18744,1.4995 -0.12472,0.4645 0.10989,1.0525 0.70289,1.7572 0.98606,1.1719 1.22661,1.2424 2.2961,0.6795 1.71574,-0.9031 1.69453,-2.6203 -0.0234,-4.1939 -0.84722,-0.7761 -1.32667,-1.1309 -1.56978,-1.1012 z m 18.29851,1.0777 c -0.48552,0.028 -0.94825,0.1497 -1.2652,0.3983 -1.1056,0.8673 -0.91176,3.853 0.35144,5.3654 1.25988,1.5085 3.24603,-0.045 3.6316,-2.8584 0.17076,-1.2459 0.0759,-1.611 -0.51546,-2.2024 -0.50099,-0.501 -1.39318,-0.7495 -2.20238,-0.7029 z m -5.74025,3.9128 c -0.67075,0 -0.9198,0.65 -0.44516,1.1246 0.3594,0.3594 0.91121,0.055 1.0309,-0.5623 0.0731,-0.3769 -0.11698,-0.5623 -0.58574,-0.5623 z m -11.92566,1.0075 c -0.27943,0 -0.49202,0.3068 -0.49203,0.6794 0,0.3726 0.2126,0.6795 0.49203,0.6795 0.27942,0 0.51545,-0.3069 0.51545,-0.6795 0,-0.3726 -0.23603,-0.6794 -0.51545,-0.6794 z m 6.8883,0.5154 c -0.46105,0.047 -1.03928,0.094 -1.2652,0.1172 -0.53137,0.055 -1.75722,2.7789 -1.75722,3.8893 0,0.7243 -0.15102,0.8434 -0.98404,0.8434 -0.86657,0 -0.99271,-0.1027 -0.93718,-0.9137 0.0562,-0.8203 -0.0245,-0.9158 -0.84347,-0.8201 -0.68114,0.08 -0.88405,0 -0.74975,-0.3514 0.0998,-0.2602 -0.049,-0.6862 -0.35144,-0.9372 -0.47474,-0.394 -0.63836,-0.3635 -1.12463,0.2812 -0.44469,0.5895 -0.636,0.676 -0.96061,0.3514 -0.30384,-0.3038 -0.51858,-0.3249 -0.7966,-0.047 -0.2069,0.2068 -0.572,0.297 -0.79661,0.2108 -0.22461,-0.086 -0.59258,0.077 -0.82003,0.3515 -0.22746,0.274 -0.6396,0.4098 -0.91376,0.3045 -0.31353,-0.1203 -0.54775,0.055 -0.65603,0.4686 -0.29357,1.1227 -1.90752,0.8508 -2.81155,-0.4686 -0.42123,-0.6147 -0.96548,-1.1011 -1.21834,-1.1011 -0.8881,0 -0.43968,0.9575 1.05433,2.2726 1.17122,1.031 1.4995,1.5687 1.4995,2.3664 0,1.1681 -0.56548,1.7134 -0.89033,0.8669 -0.17172,-0.4475 -0.49449,-0.5255 -1.59321,-0.3749 -0.76004,0.1042 -1.60608,0.049 -1.87437,-0.1171 -0.60919,-0.3765 -1.6635,0.5231 -1.6635,1.4058 0,0.8769 -0.55806,0.7734 -1.21834,-0.2343 -0.5572,-0.8504 -0.57667,-0.8526 -1.21833,-0.2109 -0.61592,0.6159 -0.62061,0.6915 -0.0937,1.7104 0.41486,0.8022 0.46643,1.1867 0.18744,1.5229 -0.20532,0.2474 -0.44866,0.8614 -0.53888,1.3589 -0.0902,0.4975 -0.37592,1.1023 -0.6326,1.3589 -0.25667,0.2567 -0.43213,0.8992 -0.37487,1.4058 0.14294,1.2647 -0.34456,2.0855 -1.19491,1.9915 -0.91929,-0.1016 -1.18573,0.6415 -0.32801,0.9138 0.85951,0.2728 1.1398,1.0763 0.65602,1.8509 -0.81735,1.3088 1.36155,4.1266 4.17047,5.3888 1.65044,0.7416 4.83984,0.6724 6.04484,-0.1171 0.56993,-0.3735 1.19657,-0.5097 1.73379,-0.3749 0.72203,0.1812 0.84347,0.1086 0.84346,-0.5858 0,-1.0103 0.59456,-1.6166 1.56979,-1.6166 0.41328,0 0.84663,-0.1436 0.96061,-0.328 0.11398,-0.1844 0.56379,-0.3515 1.00747,-0.3515 0.45438,0 0.95254,-0.2672 1.14805,-0.6326 0.49623,-0.9272 0.47414,-0.9847 -0.72632,-1.1011 -0.94698,-0.092 -1.09829,-0.226 -1.17148,-1.1481 -0.0486,-0.6117 0.11054,-1.2372 0.39831,-1.4761 0.64227,-0.533 0.64986,-1.2969 0,-1.5463 -0.28111,-0.1079 -0.79723,-0.8309 -1.14806,-1.5932 l -0.6326,-1.3824 1.05434,-0.3514 c 0.98998,-0.3405 1.11128,-0.3189 1.6635,0.5857 0.32677,0.5353 0.50543,1.1153 0.3983,1.2887 -0.10712,0.1733 0.0962,0.328 0.44516,0.328 0.34899,0 0.72541,0.093 0.84347,0.2108 0.11806,0.1181 0.88113,0.2822 1.68693,0.3515 1.23073,0.1057 1.64899,-0.041 2.71783,-0.8903 0.71983,-0.5721 1.64724,-1.7688 2.10867,-2.7647 0.44858,-0.9683 0.78605,-1.8049 0.77318,-1.851 -0.18918,-0.6773 0.11577,-1.1012 0.7966,-1.1012 0.46573,0 1.32315,-0.4721 2.01495,-1.1246 1.16777,-1.1013 1.22978,-1.2309 1.17147,-3.3504 -0.052,-1.8914 -0.18434,-2.2956 -0.93718,-2.999 -1.2096,-1.1302 -2.72945,-1.8362 -3.7253,-1.7338 z m -26.70974,7.3569 c -0.0253,0 -0.0585,0.012 -0.0703,0.023 -0.25557,0.2556 1.32651,2.4845 2.22581,3.1396 1.11243,0.8103 1.34322,0.6628 0.6326,-0.4217 -0.60722,-0.9268 -2.40918,-2.6824 -2.78812,-2.7413 z m 19.3997,8.7158 c -0.059,0.01 -0.12922,0.015 -0.21086,0.047 -0.29205,0.112 -0.53888,0.3588 -0.53889,0.5388 0,0.4408 0.77011,0.1733 0.93719,-0.328 0.0613,-0.1837 -0.0104,-0.278 -0.18744,-0.2577 z m 0.96062,3.2099 c -0.37973,0 -0.70289,0.1436 -0.70289,0.328 0,0.1844 0.22627,0.328 0.49202,0.328 0.26575,0 0.56548,-0.1436 0.67945,-0.328 0.11399,-0.1844 -0.0889,-0.328 -0.46858,-0.328 z m 3.7253,0.023 c -0.15711,0 -0.35311,0 -0.58574,0.023 -0.69679,0.058 -1.32595,0.3195 -1.40577,0.5623 -0.10661,0.3243 0.17065,0.406 1.10119,0.328 0.69679,-0.058 1.34938,-0.296 1.4292,-0.5388 0.0799,-0.2432 -0.0675,-0.3676 -0.53888,-0.3749 z m 0,5.0139 c -0.1844,0 -0.35494,0.023 -0.53888,0.094 -0.53828,0.2066 -0.74384,2.2903 -0.32801,3.3739 0.13065,0.3405 0.62322,0.5389 1.35892,0.5389 0.91388,0 1.19847,-0.175 1.45263,-0.8435 0.53869,-1.4169 -0.65382,-3.1329 -1.94466,-3.163 z m -2.64754,0.4218 c -0.0747,0.011 -0.0937,0.1066 -0.0937,0.3045 0,0.2685 0.0879,0.58 0.21086,0.7029 0.31844,0.3185 0.79661,0.277 0.79661,-0.07 0,-0.1618 -0.23882,-0.4733 -0.51545,-0.7028 -0.20396,-0.1693 -0.32355,-0.2449 -0.39831,-0.2343 z"
             inkscape:connector-curvature="0"
             id="path2783"
             style="fill:url(#linearGradient7044);fill-opacity:1;display:inline" />
          <path
             d="m 158.13485,1018.4814 c -0.20919,0.4647 -0.15358,1.1721 0.21987,2.1107 0.32273,0.8112 1.72348,0.715 2.17671,-0.1319 0.20228,-0.3779 0.32132,-1.085 0.26384,-1.583 -0.0164,-0.1421 -0.0363,-0.2467 -0.066,-0.3518 -0.0462,0.2036 -0.1233,0.3883 -0.19788,0.5277 -0.45323,0.8468 -1.85398,0.943 -2.17671,0.1319 -0.0985,-0.2476 -0.16232,-0.4877 -0.21987,-0.7036 z m -6.20034,7.1238 c -0.0305,0.2106 -0.0692,0.4198 -0.10994,0.5716 -0.12472,0.4646 0.11059,1.0543 0.70359,1.759 0.36977,0.4395 0.63635,0.7251 0.87948,0.8795 -0.0173,-0.07 -0.044,-0.1418 -0.044,-0.2199 0,-0.3726 0.22628,-0.6816 0.5057,-0.6816 0.27943,0 0.5057,0.309 0.5057,0.6816 0,0.093 -0.0175,0.1827 -0.044,0.2639 0.14795,-0.058 0.29125,-0.1406 0.48372,-0.2419 1.12098,-0.59 1.51601,-1.5325 1.16531,-2.5505 -0.18569,0.4513 -0.58844,0.8397 -1.16531,1.1433 -1.06949,0.563 -1.3006,0.4903 -2.28665,-0.6816 -0.28252,-0.3357 -0.47393,-0.6414 -0.59365,-0.9234 z m 22.31682,0.3078 c -0.38557,2.813 -2.36798,4.3668 -3.62786,2.8583 -0.5457,-0.6534 -0.88339,-1.5928 -1.0114,-2.5065 -0.17451,1.2529 0.17065,2.9071 1.0114,3.9137 1.25988,1.5084 3.24229,-0.045 3.62786,-2.8583 0.0899,-0.6558 0.091,-1.078 0,-1.4072 z m -8.465,2.3966 c -0.67075,0 -0.91438,0.6467 -0.43974,1.1213 0.35939,0.3594 0.91369,0.067 1.03339,-0.5497 0.0731,-0.3769 -0.1249,-0.5716 -0.59365,-0.5716 z m -11.91697,1.0114 c -0.27942,0 -0.50569,0.309 -0.5057,0.6816 0.14167,-0.01 0.29801,0.091 0.5057,0.2638 0.10787,0.09 0.17738,0.2112 0.24186,0.3298 0.15718,-0.1169 0.26385,-0.3408 0.26385,-0.5936 -1e-5,-0.3726 -0.22628,-0.6816 -0.50571,-0.6816 z m -10.09203,2.7044 c -0.88811,0 -0.46063,0.9496 1.03339,2.2647 0.83083,0.7313 1.24097,1.2111 1.40716,1.7149 0.0581,-0.2021 0.10994,-0.4555 0.10994,-0.7475 0,-0.4597 -0.1233,-0.8442 -0.43974,-1.2753 -0.32902,-0.1979 -0.64156,-0.4781 -0.90147,-0.8575 -0.0573,-0.084 -0.1151,-0.1639 -0.17589,-0.2418 -0.008,-0.01 -0.0138,-0.015 -0.022,-0.022 -0.26715,-0.2363 -0.48418,-0.4503 -0.6816,-0.6596 -0.13853,-0.1 -0.2431,-0.1759 -0.32981,-0.1759 z m 21.63522,2.4625 c -0.0566,0.9248 -0.31116,1.2173 -1.16531,2.0228 -0.6918,0.6525 -1.55708,1.1214 -2.02281,1.1214 -0.68083,0 -0.98071,0.422 -0.79153,1.0993 0.0129,0.046 -0.32096,0.9007 -0.76955,1.8689 -0.46142,0.9959 -1.39092,2.1764 -2.11075,2.7484 -1.06885,0.8494 -1.49567,1.0072 -2.72639,0.9015 -0.8058,-0.069 -1.55296,-0.2338 -1.67101,-0.3518 -0.11806,-0.1181 -0.5085,-0.2199 -0.8575,-0.2199 -0.34899,0 -0.54686,-0.1565 -0.43974,-0.3298 0.10713,-0.1733 -0.069,-0.7399 -0.39576,-1.2752 -0.55222,-0.9047 -0.68103,-0.9342 -1.67102,-0.5937 l -1.05537,0.3518 0.57166,1.2093 0.48371,-0.1539 c 0.98999,-0.3405 1.1188,-0.311 1.67102,0.5936 0.32677,0.5353 0.50289,1.1019 0.39576,1.2753 -0.009,0.014 0.005,0.03 0,0.044 0.0982,-0.098 0.22776,-0.1858 0.37378,-0.2418 0.0816,-0.031 0.16085,-0.037 0.21987,-0.044 0.17706,-0.02 0.23715,0.058 0.1759,0.2419 -0.0452,0.1354 -0.13571,0.2598 -0.24186,0.3518 0.32056,0.014 0.66191,0.09 0.76955,0.1978 0.11805,0.1181 0.86521,0.2826 1.67101,0.3518 1.23072,0.1058 1.65754,-0.052 2.72639,-0.9014 0.71983,-0.5721 1.64933,-1.7525 2.11075,-2.7484 0.44859,-0.9682 0.78242,-1.8228 0.76955,-1.8689 -0.18918,-0.6774 0.1107,-1.0994 0.79153,-1.0994 0.46573,0 1.33101,-0.4688 2.02281,-1.1213 1.16777,-1.1014 1.22361,-1.2225 1.16531,-3.342 -9.8e-4,-0.036 10e-4,-0.053 0,-0.088 z m -31.37547,2.7044 c -0.0253,0 -0.0541,0.01 -0.066,0.022 -0.25558,0.2556 1.32138,2.4891 2.22069,3.1442 1.11242,0.8103 1.34824,0.6668 0.63762,-0.4178 -0.60723,-0.9267 -2.41341,-2.6895 -2.79235,-2.7484 z m 3.67183,0.9675 c -0.42881,0.4579 -0.40279,0.6326 0.066,1.5391 0.0439,0.085 0.0741,0.1439 0.10993,0.2198 0.0222,-0.033 0.0444,-0.084 0.066,-0.1099 0.27899,-0.3362 0.23896,-0.7149 -0.17589,-1.5171 -0.0282,-0.055 -0.0408,-0.082 -0.066,-0.1319 z m 15.7427,7.7614 c -0.059,0.01 -0.13823,0.013 -0.21987,0.044 -0.29204,0.112 -0.52768,0.3476 -0.52769,0.5276 1e-5,0.4408 0.75638,0.1715 0.92346,-0.3298 0.0613,-0.1837 0.001,-0.2621 -0.1759,-0.2418 z m -1.84691,0.3518 c -0.0289,0.028 -0.0558,0.061 -0.088,0.088 -0.28776,0.2388 -0.44432,0.8614 -0.39576,1.4732 0.0169,0.2125 0.054,0.3677 0.088,0.5057 0.0701,-0.2494 0.16936,-0.4568 0.30781,-0.5717 0.60804,-0.5046 0.63688,-1.2091 0.088,-1.4951 z m -16.05052,1.0334 c -0.10839,0.024 -0.20491,0.058 -0.3298,0.044 -0.91929,-0.1016 -1.18753,0.6293 -0.32981,0.9015 0.28453,0.09 0.48675,0.2534 0.63763,0.4397 0.31653,-0.5068 0.30789,-1.0103 0.022,-1.3851 z m 18.84287,1.8249 c -0.37972,0 -0.70358,0.1454 -0.70358,0.3298 0,0.1844 0.23995,0.3078 0.5057,0.3078 0.26575,0 0.56762,-0.1234 0.6816,-0.3078 0.11398,-0.1844 -0.10399,-0.3298 -0.48372,-0.3298 z m 3.7378,0.022 c -0.15712,0 -0.36102,0 -0.59365,0.022 -0.69679,0.058 -1.32734,0.3068 -1.40717,0.5496 -0.10661,0.3243 0.16881,0.4078 1.09935,0.3299 0.69679,-0.058 1.34933,-0.2849 1.42915,-0.5277 0.0799,-0.2432 -0.0564,-0.3665 -0.52768,-0.3738 z m -22.62464,0.9674 c -0.77487,1.3193 1.40826,4.1106 4.19952,5.3648 1.65044,0.7417 4.84143,0.6796 6.04643,-0.1099 0.56993,-0.3734 1.19975,-0.5086 1.73697,-0.3738 0.72203,0.1812 0.83551,0.1007 0.83551,-0.5936 -1e-5,-1.0104 0.60784,-1.6051 1.58306,-1.6051 0.41329,0 0.83147,-0.1454 0.94544,-0.3298 0.11399,-0.1844 0.56773,-0.3518 1.01141,-0.3518 0.45438,0 0.94781,-0.2723 1.14332,-0.6376 0.42657,-0.7971 0.42891,-0.9538 -0.3298,-1.0554 -0.23439,0.1699 -0.52726,0.2859 -0.81352,0.2859 -0.44368,0 -0.89742,0.1673 -1.01141,0.3517 -0.11397,0.1845 -0.53215,0.3299 -0.94544,0.3299 -0.97522,0 -1.58307,0.5946 -1.58306,1.605 0,0.6944 -0.11348,0.7749 -0.83551,0.5937 -0.53722,-0.1349 -1.16704,3e-4 -1.73697,0.3737 -1.205,0.7896 -4.39599,0.8516 -6.04643,0.11 -2.00929,-0.9029 -3.70108,-2.5846 -4.19952,-3.9577 z m 19.96421,4.4634 c -0.0748,0.01 -0.088,0.1098 -0.088,0.3078 0,0.2685 0.0969,0.5806 0.21987,0.7036 0.31844,0.3184 0.79153,0.2812 0.79153,-0.066 0,-0.1618 -0.25105,-0.474 -0.52769,-0.7036 -0.20396,-0.1692 -0.32101,-0.2523 -0.39576,-0.2418 z m 1.60505,0.8575 c -0.0958,0.7189 -0.0507,1.5861 0.1759,2.1767 0.13065,0.3405 0.6275,0.5497 1.36319,0.5497 0.91389,0 1.19699,-0.1671 1.45114,-0.8356 0.17982,-0.4729 0.14525,-0.9853 0,-1.4511 -0.005,0.013 0.005,0.032 0,0.044 -0.25415,0.6685 -0.53725,0.8355 -1.45114,0.8355 -0.73569,0 -1.23254,-0.2092 -1.36319,-0.5497 -0.086,-0.2242 -0.14051,-0.4852 -0.1759,-0.7695 z"
             inkscape:connector-curvature="0"
             id="path3638"
             style="opacity:0.2;fill:#000000;fill-opacity:1;display:inline" />
          <path
             d="m 179.03125,38.03125 c -0.10802,0.622408 -0.43407,1.363768 -0.875,2.375 0.5542,-0.35509 1.23694,-0.744769 1.40625,-0.96875 0.2433,-0.32186 0.25746,-0.388937 0.25,-0.34375 -0.007,0.04519 0.0292,0.0147 -0.15625,-0.40625 A 1.9103678,1.9103678 0 0 1 179.625,38.625 c -0.0421,-0.106378 -0.0617,-0.234133 -0.0937,-0.34375 -0.007,-0.02178 -0.41039,-0.175309 -0.5,-0.25 z m -13.09375,2.6875 c -1.19262,0.271898 -2.44653,0.568475 -3,0.84375 -0.36697,0.182517 -0.40002,0.223499 -0.40625,0.21875 a 1.9103678,1.9103678 0 0 1 -0.0937,0.5625 c -0.003,1.304774 -0.33661,2.605091 -1.21875,3.71875 1.28167,-0.613448 2.70123,-0.842909 4.09375,-0.59375 3.38276,0.630748 5.18943,3.291655 5.90625,3.96875 0.18066,0.170651 0.0541,0.0959 0.15625,0.15625 0.10919,-0.06238 0.1974,-0.136525 0.3125,-0.1875 a 1.9103678,1.9103678 0 0 1 0.0313,0 c 0.6184,-0.264616 0.73699,-0.479729 1.3125,-1.84375 0.36387,-0.862408 0.89621,-2.227574 1.6875,-3.65625 -1.06239,0.432175 -2.21426,0.654256 -3.375,0.40625 -1.79459,-0.383436 -2.98112,-1.440897 -3.71875,-2.09375 -0.76409,-0.676277 -1.38682,-1.280738 -1.6875,-1.5 z M 159.25,47.625 c -0.90656,0.410781 -1.8141,0.642731 -2.5625,0.6875 -1.52837,0.09143 -2.81876,-0.133936 -3.875,-0.375 -0.18454,0.171316 -0.18945,0.163522 -0.53125,0.5 -0.40805,0.4017 -1.15823,0.954745 -2.0625,1.40625 -0.62366,2.774148 -1.64981,5.11919 -2.09375,6.78125 -0.008,0.03961 -0.0215,0.08562 -0.0313,0.125 a 1.9103678,1.9103678 0 0 1 -0.0625,0.1875 c -0.47149,1.266918 -0.79653,2.754987 -0.78125,3.75 0.0166,1.081871 0.12431,1.383524 0.6875,1.875 a 1.9103678,1.9103678 0 0 1 0.0937,0.0625 c 0.006,0.0055 -0.006,0.02582 0,0.03125 0.0165,0.0163 0.0469,0.01524 0.0625,0.03125 1.73621,1.591546 5.10374,2.017402 7.09375,0.875 0.12545,-0.07223 0.24199,-0.13049 0.375,-0.1875 2.28247,-0.972356 3.34223,-1.983976 3.78125,-2.84375 0.46188,-0.904535 0.59654,-1.940288 -0.1875,-4.1875 l 0.0313,0 c -1.18573,-1.766564 -1.81405,-3.895676 -1.34375,-6.03125 0.20395,-0.926112 0.72546,-1.840753 1.40625,-2.6875 z"
             transform="matrix(0.7035845,0,0,0.7035845,35.513269,1007.1581)"
             id="path3760"
             style="opacity:0;fill:#ffffff;fill-opacity:1;display:inline;filter:url(#filter3756)"
             inkscape:connector-curvature="0" />
          <path
             d="m 132.58524,1024.2199 c -2.21554,0.4298 -4.17161,1.6188 -6.15282,2.6358 -0.91375,0.6601 -0.92755,1.9022 -0.87009,2.9183 -0.0973,1.0126 -0.45115,2.0362 -0.11405,3.0454 0.26178,0.7567 -0.13537,1.3952 -0.5319,1.9295 -0.0241,0.8667 1.19634,1.2398 1.43325,0.3031 0.80637,-1.2519 1.21035,-2.7248 2.11143,-3.9218 0.59854,-0.9892 1.33079,-2.1637 2.57442,-2.3468 1.31194,-0.1207 2.57234,0.3962 3.76326,0.8703 0.97459,0.365 1.55534,-0.4709 2.04373,-1.0927 0.90456,-0.4514 1.80967,0.7662 2.6829,0.1685 0.69491,-0.4357 1.67738,-0.8307 1.93202,-1.6399 -0.25186,-0.9691 -1.45518,-0.2029 -2.14037,-0.3299 -1.14259,0 -2.28657,-0.046 -3.42743,-0.077 -0.97075,-0.1271 -1.35782,-1.0983 -1.82172,-1.8169 -0.32371,-0.4621 -0.8971,-0.877 -1.48263,-0.6463 z"
             inkscape:connector-curvature="0"
             id="path3812"
             style="opacity:0.6;fill:url(#linearGradient7039);fill-opacity:1;fill-rule:evenodd;stroke:none;display:inline" />
          <path
             d="m 144.53953,1039.3792 c -0.76934,-0.3684 -1.59321,-0.6848 -2.45759,-0.6919 -1.06987,0.3116 -1.51033,1.436 -1.98391,2.3323 -0.65406,1.1112 -1.85846,1.9753 -1.95566,3.353 -0.14693,0.8256 0.17068,1.6465 0.11441,2.4688 -0.22454,0.8705 -0.91782,1.5263 -1.15497,2.3931 -0.33609,0.7128 0.53079,1.5845 1.1395,0.9021 0.67588,-0.4258 1.40129,-1.1295 1.24554,-2.0053 -0.11532,-0.7091 -0.38309,-1.4647 -0.0196,-2.1529 0.28698,-0.507 0.39374,-1.0991 0.72106,-1.5815 0.46773,-0.6216 1.24817,-0.9074 1.98159,-1.0595 0.6118,-0.1174 1.17874,0.229 1.78877,0.1499 0.54819,-0.032 1.12436,-0.021 1.61476,0.2508 0.828,0.083 1.07777,-0.9904 0.71624,-1.5719 -0.0727,-0.6453 0.24577,-1.4006 -0.26329,-1.9376 -0.38189,-0.4588 -1.04972,-0.4685 -1.48687,-0.8494 z"
             inkscape:connector-curvature="0"
             id="path3844"
             style="opacity:0.8;fill:url(#linearGradient7036);fill-opacity:1;fill-rule:evenodd;stroke:none;display:inline" />
          <path
             d="m 147.1765,1037.2697 c 0.51593,-0.7715 0.73338,-1.716 0.7032,-2.637 0.64201,-0.5932 1.45983,-1.1626 2.37904,-1.0584 0.55315,-0.02 1.22696,-0.065 1.6165,0.4101 0.24033,0.4524 0.30273,1.2656 0.98879,1.2167 1.50292,0.1126 3.00034,0.3276 4.50696,0.3679 0.5514,0.1308 1.08665,0.5475 1.17742,1.1334 -0.14167,0.6439 -0.9176,0.6407 -1.40125,0.8849 -0.84314,0.3679 -1.78821,0.8566 -2.72206,0.5167 -1.04354,-0.3817 -1.92732,-1.087 -2.94839,-1.5168 -0.48087,-0.2747 -1.16942,-0.4279 -1.611,0 -0.43419,0.3679 -0.96171,0.7593 -1.56642,0.6403 -0.37418,0 -0.75347,-0.04 -1.12278,0.04 z"
             inkscape:connector-curvature="0"
             id="path3883"
             style="opacity:0.8;fill:url(#linearGradient7033);fill-opacity:1;fill-rule:evenodd;stroke:none;display:inline" />
          <path
             d="m 123.97112,1045.3564 c -1.16378,1.0618 -3.04166,0.9021 -4.25054,0 -1.6285,-0.6778 -3.26343,-1.3431 -4.92956,-1.9237 -1.29333,-0.242 -2.61563,1.1718 -2.1092,2.44 0.32448,1.785 0.94767,3.628 0.45202,5.4427 -0.40245,1.0394 -1.36955,1.9304 -1.2248,3.1274 0.38576,1.0149 1.92371,0.9775 2.51223,0.1746 0.92849,-1.0581 1.2684,-2.5604 0.95694,-3.9253 -0.12264,-0.8431 0.0863,-1.8352 0.87229,-2.2965 0.98623,-0.6902 2.2574,-0.5764 3.37845,-0.3835 0.80526,0.012 1.77736,-0.2703 2.40565,0.3995 0.70454,0.6508 1.88165,0.8936 2.66335,0.2341 0.63079,-0.5844 1.78281,-0.9898 1.93818,-1.8511 -0.2528,-0.7573 -1.17468,-0.9058 -1.69139,-1.4398 -0.28483,-0.207 -0.71201,-0.3014 -0.97362,-3e-4 z"
             inkscape:connector-curvature="0"
             id="path3905"
             style="opacity:0.8;fill:url(#linearGradient7030);fill-opacity:1;fill-rule:evenodd;stroke:none;display:inline" />
          <path
             d="m 139.08978,1063.112 c -1.43287,-0.3122 -2.78466,-0.9142 -4.05612,-1.6322 -0.42537,-0.1656 -0.93352,-0.5078 -1.37758,-0.2246 -0.42419,0.5797 0.11102,1.3229 0.14802,1.9568 0.0846,0.7196 0.68638,1.3759 0.44792,2.1306 -0.3064,0.7681 -1.11383,1.1254 -1.7614,1.555 -0.57988,0.1729 -1.31169,0.5493 -1.2755,1.2554 -0.0106,0.6699 -0.0817,1.3532 0.0868,2.0105 0.46457,0.5854 1.28534,0.3738 1.9164,0.5795 1.72028,0.1013 3.29978,-0.7236 4.7717,-1.5091 0.66493,-0.2912 1.37675,-0.5436 1.87514,-1.1 1.09742,-1.0635 1.76854,-2.6861 1.41393,-4.2099 -0.24745,-0.6669 -1.19236,-0.6325 -1.42411,-0.011 -0.44019,0.1055 -0.50297,-0.5954 -0.76525,-0.8009 z"
             inkscape:connector-curvature="0"
             id="path3929"
             style="fill:url(#linearGradient7027);fill-opacity:1;fill-rule:evenodd;stroke:none;display:inline" />
          <path
             d="m 109.37986,1068.0344 c -0.46674,0.5965 -0.69151,1.3579 -0.70319,2.1095 -0.22356,0.6552 -1.1609,0.9144 -1.08151,1.6935 0.19521,0.7839 0.51019,1.5737 1.09734,2.1488 0.40837,0.7811 -0.0424,1.6578 0.12209,2.4771 -0.008,1.3177 0.2181,2.8701 1.3997,3.6636 0.87507,0.5616 1.7252,1.1861 2.40612,1.979 0.67101,0.4133 1.41932,-0.4596 1.18835,-1.1247 -0.13756,-1.2501 -0.3556,-2.4993 -0.35314,-3.7598 -0.0254,-0.8025 0.37689,-1.524 0.88057,-2.119 0.46259,-0.6141 1.12203,-1.3128 0.87396,-2.1498 -0.27121,-0.7601 -1.00884,-1.2958 -1.74052,-1.5734 -0.67753,-0.1056 -1.40535,0.053 -2.04473,-0.2959 -0.68091,-0.2725 -1.1949,-0.8922 -1.30979,-1.62 -0.15442,-0.5154 -0.37986,-1.0195 -0.73525,-1.4289 z"
             inkscape:connector-curvature="0"
             id="path3948"
             style="opacity:0.8;fill:url(#linearGradient7024);fill-opacity:1;fill-rule:evenodd;stroke:none;display:inline" />
        </g>
        <g
           transform="translate(182.1875,996.76843)"
           id="layer5">
          <rect
             width="66"
             height="66"
             rx="12"
             ry="12"
             x="15"
             y="15"
             clip-path="url(#clipPath3613-62)"
             id="rect3171"
             style="opacity:0.1;fill:url(#linearGradient7630);fill-opacity:1;fill-rule:nonzero;stroke:#ffffff;stroke-width:0.5;stroke-linecap:round;stroke-linejoin:miter;stroke-miterlimit:4;stroke-opacity:1;stroke-dasharray:none;stroke-dashoffset:0;filter:url(#filter3794-5-5)" />
        </g>
        <g
           transform="matrix(1.0868357,0,0,1.0868357,202.0442,1008.6277)"
           id="layer1-9">
          <path
             inkscape:connector-curvature="0"
             d="m 41.25,33.9375 a 18.25,5.1875 0 1 1 -36.5,0 18.25,5.1875 0 1 1 36.5,0 z"
             transform="matrix(1,0,0,1.53012,0.125,-19.99096)"
             style="color:#000000;fill:url(#radialGradient6498);fill-opacity:1;fill-rule:evenodd;stroke:none;stroke-width:0.9999997;marker:none;visibility:visible;display:inline;overflow:visible"
             id="path6490" />
          <path
             inkscape:connector-curvature="0"
             d="m 10.374369,12.467884 c 0,0 2.874509,5.927634 9.599242,5.760407 C 34.066126,17.874738 36.53732,10.523341 36.890873,9.4626804 37.244427,8.4020202 37.785407,8.5626825 37.91048,9.5429474 42.506674,51.262247 6.0135488,33.362123 4.7175144,26.256467 11.965359,24.135147 10.197592,20.069282 10.197592,20.069282 l 0.176777,-7.601398 z"
             style="color:#000000;fill:url(#radialGradient4354);fill-opacity:1;fill-rule:evenodd;stroke:#2e3436;stroke-width:0.9999997;stroke-linecap:butt;stroke-linejoin:miter;stroke-miterlimit:10;stroke-opacity:1;stroke-dasharray:none;stroke-dashoffset:0;marker:none;visibility:visible;display:inline;overflow:visible"
             id="path4323" />
          <path
             inkscape:connector-curvature="0"
             d="m 15.73779,30.066049 c 6.7389,1.347837 10.170691,0.09809 12.179175,-1.452776 -0.53033,-0.68501 -1.43631,-1.436311 -1.43631,-1.436311 0,0 2.353317,0.653942 3.18198,1.723573 0.82629,1.066568 0.306808,1.723707 0.09056,3.08837 -0.481411,-1.198599 -1.379981,-1.648092 -1.501634,-2.124332 -1.806268,2.496927 -6.306442,2.3932 -12.513772,0.201476 z"
             style="color:#000000;fill:url(#linearGradient4351);fill-opacity:1;fill-rule:evenodd;stroke:none;stroke-width:0.9999997;marker:none;visibility:visible;display:inline;overflow:visible"
             id="path6480" />
          <path
             inkscape:connector-curvature="0"
             d="m 36.96875,11.84375 c -0.561978,0.926895 -1.406492,2.033166 -2.6875,3.09375 -2.631918,2.179042 -7.050563,4.162347 -14.28125,4.34375 -4.224373,0.105049 -6.952741,-1.934149 -8.625,-3.75 L 11.25,20 c 0.136107,0.418802 0.415455,1.390498 -0.0625,2.71875 -0.514314,1.429296 -2.154514,2.891363 -4.96875,4 0.2503304,0.522033 0.4954845,1.04362 1.25,1.78125 1.0279503,1.004945 2.4570333,2.088049 4.15625,3.0625 3.398433,1.948902 7.801583,3.493212 11.90625,3.5625 4.104667,0.06929 7.857126,-1.23455 10.4375,-5 2.378744,-3.471218 3.682473,-9.347943 3,-18.28125 z"
             style="opacity:0.18539327;color:#000000;fill:none;stroke:url(#linearGradient8530);stroke-width:0.9999997;stroke-linecap:butt;stroke-linejoin:miter;stroke-miterlimit:10;stroke-opacity:1;stroke-dasharray:none;stroke-dashoffset:0;marker:none;visibility:visible;display:inline;overflow:visible"
             id="path8520" />
          <path
             inkscape:connector-curvature="0"
             d="m 72.655224,21.837049 a 3.1819806,3.1819806 0 1 1 -6.363961,0 3.1819806,3.1819806 0 1 1 6.363961,0 z"
             transform="matrix(1.277778,0,0,1.277778,-75.12661,-6.507784)"
             style="color:#000000;fill:url(#radialGradient4363);fill-opacity:1;fill-rule:evenodd;stroke:#888a85;stroke-width:0.78260845;stroke-linecap:butt;stroke-linejoin:miter;stroke-miterlimit:10;stroke-opacity:1;stroke-dasharray:none;stroke-dashoffset:0;marker:none;visibility:visible;display:inline;overflow:visible"
             id="path4357" />
          <path
             inkscape:connector-curvature="0"
             d="m 10.429825,27.228739 a 4.331029,6.098796 0 1 1 -8.662058,0 4.331029,6.098796 0 1 1 8.662058,0 z"
             transform="matrix(0.810984,-0.585069,0.585069,0.810984,-14.77791,6.947121)"
             style="color:#000000;fill:url(#radialGradient8548);fill-opacity:1;fill-rule:evenodd;stroke:#000000;stroke-width:0.9999997;stroke-linecap:butt;stroke-linejoin:miter;stroke-miterlimit:10;stroke-opacity:1;stroke-dasharray:none;stroke-dashoffset:0;marker:none;visibility:visible;display:inline;overflow:visible"
             id="path5198" />
          <path
             inkscape:connector-curvature="0"
             d="m 24.041631,21.837049 a 2.2980971,2.2980971 0 1 1 -4.596194,0 2.2980971,2.2980971 0 1 1 4.596194,0 z"
             transform="matrix(0.851852,0,0,0.851852,-3.926759,3.395528)"
             style="color:#000000;fill:#2e3436;fill-opacity:1;fill-rule:evenodd;stroke:#000000;stroke-width:1.17391276;stroke-linecap:butt;stroke-linejoin:miter;stroke-miterlimit:10;stroke-opacity:1;stroke-dasharray:none;stroke-dashoffset:0;marker:none;visibility:visible;display:inline;overflow:visible"
             id="path4359" />
          <path
             inkscape:connector-curvature="0"
             d="m 6.09375,22.15625 c -0.7982492,0 -1.5531304,0.446171 -2.1875,1.34375 -0.6343696,0.897579 -1.09375,2.234204 -1.09375,3.71875 0,1.484546 0.4593804,2.821171 1.09375,3.71875 0.6343696,0.897579 1.3892511,1.34375 2.1875,1.34375 0.7982492,0 1.5772839,-0.476389 2.21875,-1.375 0.6414661,-0.898611 1.09375,-2.206186 1.09375,-3.6875 0,-1.481314 -0.4522838,-2.788889 -1.09375,-3.6875 -0.6414662,-0.898611 -1.4205011,-1.375 -2.21875,-1.375 z"
             transform="matrix(0.800389,-0.599481,0.599481,0.800389,-15.2744,7.32784)"
             style="opacity:0.28089887;color:#000000;fill:none;stroke:url(#linearGradient6458);stroke-width:1.00000012;stroke-linecap:butt;stroke-linejoin:miter;stroke-miterlimit:10;stroke-opacity:1;stroke-dasharray:none;stroke-dashoffset:0;marker:none;visibility:visible;display:inline;overflow:visible"
             id="path6450" />
          <path
             inkscape:connector-curvature="0"
             d="m 5.833631,23.251263 a 1.767767,2.1213202 0 1 1 -3.5355339,0 1.767767,2.1213202 0 1 1 3.5355339,0 z"
             style="color:#000000;fill:#ffffff;fill-opacity:1;fill-rule:evenodd;stroke:none;stroke-width:0.9999997;marker:none;visibility:visible;display:inline;overflow:visible"
             id="path6446" />
          <path
             inkscape:connector-curvature="0"
             d="m 23.157747,20.953165 a 1.767767,1.767767 0 1 1 -3.535534,0 1.767767,1.767767 0 1 1 3.535534,0 z"
             transform="matrix(0.766666,0,0,0.766666,-2.556414,5.029841)"
             style="color:#000000;fill:#ffffff;fill-opacity:1;fill-rule:evenodd;stroke:none;stroke-width:0.9999997;marker:none;visibility:visible;display:inline;overflow:visible"
             id="path4361" />
          <path
             inkscape:connector-curvature="0"
             d="m 72.655224,21.837049 a 3.1819806,3.1819806 0 1 1 -6.363961,0 3.1819806,3.1819806 0 1 1 6.363961,0 z"
             transform="matrix(1.5,0,0,1.5,-82.16821,-10.91852)"
             style="color:#000000;fill:url(#radialGradient6474);fill-opacity:1;fill-rule:evenodd;stroke:#888a85;stroke-width:0.66666645;stroke-linecap:butt;stroke-linejoin:miter;stroke-miterlimit:10;stroke-opacity:1;stroke-dasharray:none;stroke-dashoffset:0;marker:none;visibility:visible;display:inline;overflow:visible"
             id="path6462" />
          <path
             inkscape:connector-curvature="0"
             d="m 24.041631,21.837049 a 2.2980971,2.2980971 0 1 1 -4.596194,0 2.2980971,2.2980971 0 1 1 4.596194,0 z"
             transform="translate(1.414216,0.707108)"
             style="color:#000000;fill:#2e3436;fill-opacity:1;fill-rule:evenodd;stroke:#000000;stroke-width:0.9999997;stroke-linecap:butt;stroke-linejoin:miter;stroke-miterlimit:10;stroke-opacity:1;stroke-dasharray:none;stroke-dashoffset:0;marker:none;visibility:visible;display:inline;overflow:visible"
             id="path6464" />
          <path
             inkscape:connector-curvature="0"
             d="m 23.157747,20.953165 a 1.767767,1.767767 0 1 1 -3.535534,0 1.767767,1.767767 0 1 1 3.535534,0 z"
             transform="matrix(0.9,0,0,0.9,3.022883,2.625648)"
             style="color:#000000;fill:#ffffff;fill-opacity:1;fill-rule:evenodd;stroke:none;stroke-width:0.9999997;marker:none;visibility:visible;display:inline;overflow:visible"
             id="path6466" />
          <g
             transform="matrix(-0.114852,-0.389864,0.389864,-0.114852,24.71507,29.68942)"
             id="g8463">
            <path
               inkscape:connector-curvature="0"
               d="m -23.364209,23.568336 3.710098,3.469175 C -11.307128,20.656664 -2.5600338,6.9381374 -2.5600338,6.9381374 -0.58371893,4.6957251 -2.6769537,3.1876548 -4.7249404,4.5402186 c 0,0 -12.9703626,10.1148664 -18.6392686,19.0281174 z"
               style="color:#000000;fill:url(#linearGradient6957);fill-opacity:1;fill-rule:nonzero;stroke:#673907;stroke-width:2.46045303;stroke-linecap:round;stroke-linejoin:miter;stroke-miterlimit:4;stroke-opacity:1;stroke-dasharray:none;stroke-dashoffset:0;marker:none;visibility:visible;display:inline;overflow:visible"
               id="path6937" />
            <path
               inkscape:connector-curvature="0"
               d="m -30.449715,32.813894 2.24632,1.93382 8.492766,-7.367031 0.275061,-0.705828 1.094405,-0.01782 c -0.4375,-1.5625 -2.941514,-4.383455 -4.816514,-4.383455 l 0.08202,1.090075 -0.669991,0.380027 -6.704066,9.070207 z"
               style="color:#000000;fill:url(#linearGradient6945);fill-opacity:1;fill-rule:nonzero;stroke:#888a85;stroke-width:2.46045303;stroke-linecap:round;stroke-linejoin:miter;stroke-miterlimit:4;stroke-opacity:1;stroke-dasharray:none;stroke-dashoffset:0;marker:none;visibility:visible;display:inline;overflow:visible"
               id="path6935" />
            <path
               inkscape:connector-curvature="0"
               d="m -23.801371,28.376767 -4.364933,5.266471"
               style="color:#000000;fill:none;stroke:#ffffff;stroke-width:2.46045327;stroke-linecap:round;stroke-linejoin:round;stroke-miterlimit:4;stroke-opacity:1;stroke-dasharray:none;stroke-dashoffset:0;marker:none;visibility:visible;display:inline;overflow:visible"
               id="path6985" />
            <path
               inkscape:connector-curvature="0"
               d="m -45.341208,42.769835 c 10.443958,0 18.370039,1.24373 19.870605,-6.354738 1.209249,-6.123314 -7.210534,-9.057368 -11.38287,-3.590861 -4.019277,5.265971 -8.487735,9.945599 -8.487735,9.945599 z"
               style="color:#000000;fill:url(#radialGradient6969);fill-opacity:1;fill-rule:nonzero;stroke:none;stroke-width:0.2;marker:none;visibility:visible;display:inline;overflow:visible"
               id="path6933" />
            <path
               inkscape:connector-curvature="0"
               d="m 8.8749989,37.75 a 1.2499999,1.2499999 0 1 1 -2.4999997,0 1.2499999,1.2499999 0 1 1 2.4999997,0 z"
               transform="matrix(2.069903,0,0,2.069903,-44.75012,-41.50978)"
               style="opacity:0.52777782;color:#000000;fill:#ffffff;fill-opacity:1;fill-rule:nonzero;stroke:none;stroke-width:1;marker:none;visibility:visible;display:inline;overflow:visible"
               id="path6971" />
            <path
               inkscape:connector-curvature="0"
               d="m 8.8749989,37.75 a 1.2499999,1.2499999 0 1 1 -2.4999997,0 1.2499999,1.2499999 0 1 1 2.4999997,0 z"
               transform="matrix(1.396669,0,0,1.396669,-32.05526,-25.87664)"
               style="color:#000000;fill:#ffffff;fill-opacity:1;fill-rule:nonzero;stroke:none;stroke-width:1;marker:none;visibility:visible;display:inline;overflow:visible"
               id="path6983" />
            <path
               inkscape:connector-curvature="0"
               d="m -38.543723,40.909242 c 0,0 3.72152,0.0943 6.116538,-1.411995 0.847351,-0.532923 1.515774,0.649985 0.493819,1.087367 -2.207394,0.944732 -6.610357,0.324628 -6.610357,0.324628 z"
               style="opacity:0.42777776;color:#000000;fill:url(#linearGradient2452);fill-opacity:1;fill-rule:nonzero;stroke:none;stroke-width:1;marker:none;visibility:visible;display:inline;overflow:visible"
               id="path1571" />
          </g>
          <path
             inkscape:connector-curvature="0"
             d="m 23.003067,31.736544 c 1.497372,0.143092 2.849629,-0.272213 3.411893,-0.474047 0.09822,-0.555386 0.536552,-1.621257 2.046088,-1.691468 l -0.53033,-0.928077 c 0,0 -1.966641,1.347921 -4.065864,1.745669 l -0.861787,1.347923 z"
             style="color:#000000;fill:url(#linearGradient3151);fill-opacity:1;fill-rule:evenodd;stroke:none;stroke-width:0.9999997;marker:none;visibility:visible;display:inline;overflow:visible"
             id="path8532" />
        </g>
      </g>
    </g>
  </g>
</svg>
