<?xml version="1.0" encoding="UTF-8" standalone="no"?>
<!-- Created with Inkscape (http://www.inkscape.org/) -->
<svg id="svg2" xmlns:rdf="http://www.w3.org/1999/02/22-rdf-syntax-ns#" xmlns="http://www.w3.org/2000/svg" height="96" width="96" version="1.1" xmlns:cc="http://creativecommons.org/ns#" xmlns:xlink="http://www.w3.org/1999/xlink" xmlns:dc="http://purl.org/dc/elements/1.1/">
 <defs id="defs4">
  <filter id="filter6279-2-2" color-interpolation-filters="sRGB">
   <feGaussianBlur id="feGaussianBlur6281-1-1" stdDeviation="0.8"/>
  </filter>
  <linearGradient id="linearGradient5979-7" x1="48" gradientUnits="userSpaceOnUse" y1="1052.4" gradientTransform="translate(0 -.0000078516)" x2="48" y2="902.36">
   <stop id="stop3621-3-5" style="stop-color:#1a1a1a" offset="0"/>
   <stop id="stop3623-8-7" style="stop-color:#4d4d4d" offset="1"/>
  </linearGradient>
  <linearGradient id="linearGradient6880-4" x1="24" gradientUnits="userSpaceOnUse" y1="42.957" gradientTransform="matrix(1.6749,0,0,1.676,7.8317,8.0709)" x2="20.568" y2="7.4297">
   <stop id="stop3178-8" style="stop-color:#005693" offset="0"/>
   <stop id="stop3365-5" style="stop-color:#1d96dc" offset=".64839"/>
   <stop id="stop3180-9" style="stop-color:#3cc1ff;stop-opacity:.7554" offset="1"/>
  </linearGradient>
  <linearGradient id="linearGradient6882-7" x1="32.793" xlink:href="#linearGradient3172-5" gradientUnits="userSpaceOnUse" y1="50.016" gradientTransform="matrix(1.9087,0,0,1.8427,-17.397,-14.217)" x2="32.369" y2="15.582"/>
  <linearGradient id="linearGradient3172-5">
   <stop id="stop3174-38-3" style="stop-color:#005c9b" offset="0"/>
   <stop id="stop3176-8" style="stop-color:#55baff" offset="1"/>
  </linearGradient>
  <linearGradient id="linearGradient6884-8" x1="25.727" xlink:href="#linearGradient3172-5" gradientUnits="userSpaceOnUse" y1="18.172" gradientTransform="matrix(1.1728,0,0,1.1736,8.0692,9.6575)" x2="37.438" y2="51.406"/>
  <linearGradient id="linearGradient6886-3" x1="34.101" gradientUnits="userSpaceOnUse" y1="45.622" gradientTransform="matrix(1.1766,0,0,1.1572,7.9686,10.02)" x2="34.101" y2="20.249">
   <stop id="stop3225-5-8" style="stop-color:#003e69" offset="0"/>
   <stop id="stop3227-9" style="stop-color:#17a3ff" offset="1"/>
  </linearGradient>
  <linearGradient id="linearGradient3176-6" y2="138.66" gradientUnits="userSpaceOnUse" x2="48" y1="20.221" x1="48">
   <stop id="stop3739-30-3" style="stop-color:#fff" offset="0"/>
   <stop id="stop3741-32-3" style="stop-color:#fff;stop-opacity:0" offset="1"/>
  </linearGradient>
  <clipPath id="clipPath3613-17-3">
   <rect id="rect3615-56-8" style="fill:#fff" rx="6" ry="6" height="84" width="84" y="6" x="6"/>
  </clipPath>
  <filter id="filter3794-54-6" height="1.384" width="1.384" y="-.192" x="-.192" color-interpolation-filters="sRGB">
   <feGaussianBlur id="feGaussianBlur3796-2-0" stdDeviation="5.28"/>
  </filter>
 </defs>
 <metadata id="metadata7">
  <rdf:RDF>
   <cc:Work rdf:about="">
    <dc:format>image/svg+xml</dc:format>
    <dc:type rdf:resource="http://purl.org/dc/dcmitype/StillImage"/>
    <dc:title/>
   </cc:Work>
  </rdf:RDF>
 </metadata>
 <g id="layer1" transform="translate(0 -956.36)">
  <g id="g6940" transform="translate(0,-1e-5)">
   <rect id="rect9283" ry="5" style="filter:url(#filter6279-2-2)" rx="5" transform="translate(0 -.0000078516)" height="80" width="80" y="964.36" x="8"/>
   <rect id="rect9285" style="fill:url(#linearGradient5979-7)" rx="5" ry="5" height="80" width="80" y="964.36" x="8"/>
   <g id="g6018" transform="matrix(.75212 0 0 .75212 11.763 968.12)">
    <path id="path3263" style="fill:#fff;fill-rule:evenodd" d="m48.977 50.176c-0.52888-2.3031 2.2416-3.6375 4.128-3.3911 3.6875 0.48162 5.4359 4.611 4.5867 7.9199-1.2912 5.0316-7.0113 7.2958-11.701 5.7887-6.3724-2.0479-9.1657-9.4326-6.9827-15.498 2.7807-7.726 11.846-11.058 19.274-8.1862 9.0716 3.5072 12.94 14.278 9.3786 23.076-4.223 10.431-16.693 14.843-26.847 10.583-11.777-4.941-16.729-19.131-11.774-30.654 5.651-13.141 21.544-18.639 34.419-12.981 14.488 6.366 20.525 23.986 14.171 38.232-7.072 15.853-26.397 22.439-41.992 15.379-17.199-7.786-24.324-28.844-16.567-45.81 6.082-13.304 19.986-21.674 34.537-21.297"/>
    <path id="path3239" style="fill:url(#linearGradient6880-4);fill-rule:evenodd" d="m48.96 50.176c-0.52888-2.3031 2.2416-3.6375 4.128-3.3911 3.6875 0.48162 5.4359 4.611 4.5867 7.9199-1.2912 5.0316-7.0113 7.2958-11.701 5.7887-6.3724-2.0479-9.1657-9.4326-6.9827-15.498 2.7807-7.726 11.846-11.058 19.274-8.1862 9.0716 3.5072 12.94 14.278 9.3786 23.076-4.224 10.431-16.693 14.843-26.847 10.583-11.778-4.941-16.729-19.131-11.775-30.654 5.651-13.141 21.544-18.639 34.42-12.981 14.487 6.366 20.524 23.986 14.17 38.232-7.071 15.853-26.397 22.439-41.992 15.379-17.199-7.786-24.323-28.844-16.566-45.81 6.082-13.304 19.986-21.674 34.536-21.297"/>
    <path id="path3180" style="stroke-linejoin:round;stroke:url(#linearGradient6882-7);stroke-width:2.5962;fill:none" d="m53.537 13.169c-12.636 1.105-25.715 6.811-32.516 17.984-9.317 14.754-5.121 36.487 9.552 46.189 11.762 7.832 28.85 7.46 39.692-1.855 12.078-10.715 13.103-31.543 1.724-43.125-5.076-5.449-12.443-8.066-19.787-8.145"/>
    <path id="path2417" style="stroke-linejoin:round;stroke:#53b8fd;stroke-width:1.7259px;stroke-linecap:round;fill:none" d="m53.443 12.849-1.448 11.794"/>
    <path id="path3369" style="stroke-linejoin:round;stroke:url(#linearGradient6884-8);stroke-width:1.6241;stroke-linecap:round;fill:none" d="m51.86 24.844c-35.162 2.929-29.681 48.111-2.08 47.195 24.538-0.842 25.181-37.184 1.411-36.201"/>
    <path id="path3191" style="stroke-linejoin:round;stroke:#1c94da;stroke-width:1.7045px;stroke-linecap:round;fill:none" d="m50.533 35.945-1.572 14.289"/>
    <path id="path3212" style="stroke-linejoin:round;stroke:url(#linearGradient6886-3);stroke-width:.91763;stroke-linecap:round;fill:none" d="m49.167 50.124c0.03854-4.7024 6.5743-4.3488 8.171-0.04721 1.6387 4.646-1.4206 9.0991-5.9673 10.454-5.958 1.776-11.455-2.685-13.024-8.446-1.952-7.17 3.748-15.375 12.438-16.402"/>
    <path id="path3189" style="stroke-linejoin:round;stroke:#53b8fd;stroke-width:1.7259px;stroke-linecap:round;fill:none" d="m51.977 24.438-1.322 10.841"/>
   </g>
   <g id="layer5" transform="translate(0 956.36)">
    <rect id="rect3171" style="opacity:.1;filter:url(#filter3794-54-6);stroke:#fff;stroke-linecap:round;stroke-width:.5;fill:url(#linearGradient3176-6)" clip-path="url(#clipPath3613-17-3)" rx="12" ry="12" height="66" width="66" y="15" x="15"/>
   </g>
  </g>
 </g>
</svg>
