<?xml version="1.0" encoding="UTF-8" standalone="no"?>
<!-- Created with Inkscape (http://www.inkscape.org/) -->
<svg id="svg2982" xmlns:rdf="http://www.w3.org/1999/02/22-rdf-syntax-ns#" xmlns="http://www.w3.org/2000/svg" height="96" width="96" version="1.1" xmlns:cc="http://creativecommons.org/ns#" xmlns:xlink="http://www.w3.org/1999/xlink" xmlns:dc="http://purl.org/dc/elements/1.1/">
 <defs id="defs2984">
  <filter id="filter6279" color-interpolation-filters="sRGB">
   <feGaussianBlur id="feGaussianBlur6281" stdDeviation="0.8"/>
  </filter>
  <linearGradient id="linearGradient10902-1" x1="48" gradientUnits="userSpaceOnUse" y1="1052.4" gradientTransform="translate(0 -.0000096172)" x2="48" y2="902.36">
   <stop id="stop3928-8" style="stop-color:#e9e6e8" offset="0"/>
   <stop id="stop3930" style="stop-color:#92838d" offset="1"/>
  </linearGradient>
  <linearGradient id="linearGradient3091" x1="301.57" gradientUnits="userSpaceOnUse" x2="301.57" gradientTransform="matrix(.14210 0 0 .14210 193.81 1008.5)" y1="70.042" y2="443.59">
   <stop id="stop3974" style="stop-color:#0b9879" offset="0"/>
   <stop id="stop3976" style="stop-color:#60e7dc" offset="1"/>
  </linearGradient>
  <linearGradient id="linearGradient3113" y2="138.66" gradientUnits="userSpaceOnUse" x2="48" y1="20.221" x1="48">
   <stop id="stop3739-35" style="stop-color:#fff" offset="0"/>
   <stop id="stop3741-17" style="stop-color:#fff;stop-opacity:0" offset="1"/>
  </linearGradient>
  <clipPath id="clipPath3613-89">
   <rect id="rect3615-41" style="fill:#fff" rx="6" ry="6" height="84" width="84" y="6" x="6"/>
  </clipPath>
  <filter id="filter3794-64" width="1.384" y="-.192" x="-.192" height="1.384" color-interpolation-filters="sRGB">
   <feGaussianBlur id="feGaussianBlur3796-35" stdDeviation="5.28"/>
  </filter>
 </defs>
 <metadata id="metadata2987">
  <rdf:RDF>
   <cc:Work rdf:about="">
    <dc:format>image/svg+xml</dc:format>
    <dc:type rdf:resource="http://purl.org/dc/dcmitype/StillImage"/>
    <dc:title/>
   </cc:Work>
  </rdf:RDF>
 </metadata>
 <g id="layer1" transform="translate(0 -956.36)">
  <g id="g5958" transform="translate(-182.19 -40.406)">
   <rect id="rect9283" style="filter:url(#filter6279)" transform="translate(182.19 40.406)" rx="5" ry="5" height="80" width="80" y="964.36" x="8"/>
   <rect id="rect9285" style="fill:url(#linearGradient10902-1)" transform="translate(182.19 40.406)" rx="5" ry="5" height="80" width="80" y="964.36" x="8"/>
   <g id="g6761">
    <path id="path4189" style="fill:url(#linearGradient3091)" d="m230.19 1033.5c-6.2786 0-11.368 5.0647-11.368 11.368 0 0-0.0754 1.068 0.25121 2.2737h17.459c-0.47132 1.3166-1.3167 2.4977-2.4646 3.2861-2.641 2.0852-6.6407 1.327-8.8904-1.0124h-5.4044c1.755 4.0133 5.7576 6.821 10.418 6.821 6.2786 0 11.368-5.0898 11.368-11.368 0 0 0-1.1682-0.22609-2.2736h-17.466c0.98281-2.4842 3.3297-4.4973 6.0572-4.5205 0.13649-0.01 0.27246-0.01 0.40854-0.01 1.8284 0.037 3.6025 0.9041 4.836 2.2512h5.4399c-1.755-4.0131-5.7576-6.8208-10.418-6.8208zm-2.585-15.07v5.9497c-8.4626 1.0549-15.335 7.2293-17.419 15.326h5.3542c2.1958-5.8447 8.0097-10.403 14.364-10.36 0.15406-0.01 0.31003-0.01 0.46382-0.01 2.3068 0.013 4.5743 0.5863 6.6297 1.6132 3.7021 1.6665 6.451 4.96 7.7943 8.7523h5.3945c-2.0841-8.0973-8.9561-14.272-17.419-15.326v-5.9497zm-17.419 31.601c2.0841 8.0973 8.9561 14.272 17.419 15.326v5.9497h5.1626v-5.9497c8.4626-1.0546 15.335-7.2292 17.419-15.326h-5.3189c-2.087 6.1568-8.5376 10.584-15.059 10.356-6.3497 0.032-12.11-4.5039-14.258-10.356z"/>
    <g id="layer5" transform="translate(182.19 996.77)">
     <rect id="rect3171" style="opacity:.1;filter:url(#filter3794-64);stroke:#fff;stroke-linecap:round;stroke-width:.5;fill:url(#linearGradient3113)" clip-path="url(#clipPath3613-89)" rx="12" ry="12" height="66" width="66" y="15" x="15"/>
    </g>
   </g>
  </g>
 </g>
</svg>
