<?xml version="1.0" encoding="UTF-8" standalone="no"?>
<!-- Created with Inkscape (http://www.inkscape.org/) -->

<svg
   xmlns:dc="http://purl.org/dc/elements/1.1/"
   xmlns:cc="http://creativecommons.org/ns#"
   xmlns:rdf="http://www.w3.org/1999/02/22-rdf-syntax-ns#"
   xmlns:svg="http://www.w3.org/2000/svg"
   xmlns="http://www.w3.org/2000/svg"
   xmlns:xlink="http://www.w3.org/1999/xlink"
   xmlns:sodipodi="http://sodipodi.sourceforge.net/DTD/sodipodi-0.dtd"
   xmlns:inkscape="http://www.inkscape.org/namespaces/inkscape"
   width="96"
   height="96"
   id="svg2"
   version="1.1"
   inkscape:version="0.48.1 r9760"
   sodipodi:docname="gnome-screenshot.svg">
  <defs
     id="defs4">
    <filter
       color-interpolation-filters="sRGB"
       inkscape:collect="always"
       id="filter6279">
      <feGaussianBlur
         inkscape:collect="always"
         stdDeviation="0.8"
         id="feGaussianBlur6281" />
    </filter>
    <linearGradient
       inkscape:collect="always"
       xlink:href="#linearGradient3617-93"
       id="linearGradient10902-1"
       gradientUnits="userSpaceOnUse"
       gradientTransform="translate(0,-9.6171873e-6)"
       x1="48"
       y1="1052.3622"
       x2="48"
       y2="902.36218" />
    <linearGradient
       id="linearGradient3617-93"
       y2="5.9877"
       gradientUnits="userSpaceOnUse"
       x2="48"
       y1="90"
       x1="48"
       gradientTransform="translate(-49.187279,7.4628975)">
      <stop
         id="stop3643"
         style="stop-color:#bdb8c4"
         offset="0" />
      <stop
         id="stop3645"
         style="stop-color:#dbd9df"
         offset="1" />
    </linearGradient>
    <linearGradient
       y2="138.66"
       x2="48"
       y1="20.221001"
       x1="48"
       gradientUnits="userSpaceOnUse"
       id="linearGradient3584"
       xlink:href="#linearGradient3761"
       inkscape:collect="always" />
    <linearGradient
       id="linearGradient3761">
      <stop
         id="stop3763"
         style="stop-color:#fff"
         offset="0" />
      <stop
         id="stop3765"
         style="stop-color:#fff;stop-opacity:0"
         offset="1" />
    </linearGradient>
    <clipPath
       id="clipPath3613-34">
      <rect
         id="rect3615-8"
         style="fill:#ffffff"
         rx="6"
         ry="6"
         height="84"
         width="84"
         y="6"
         x="6" />
    </clipPath>
    <filter
       id="filter3794-58"
       height="1.3839999"
       width="1.3839999"
       color-interpolation-filters="sRGB"
       y="-0.192"
       x="-0.192">
      <feGaussianBlur
         id="feGaussianBlur3796-2"
         stdDeviation="5.28" />
    </filter>
    <linearGradient
       inkscape:collect="always"
       xlink:href="#linearGradient3674-6"
       id="linearGradient3409"
       gradientUnits="userSpaceOnUse"
       x1="16.162001"
       y1="44.481998"
       x2="76.772003"
       y2="44.481998"
       gradientTransform="matrix(0.7,0.7,-0.7,0.7,46.611,-15.664)" />
    <linearGradient
       id="linearGradient3674-6"
       y2="44.481998"
       gradientUnits="userSpaceOnUse"
       x2="76.772003"
       y1="44.481998"
       x1="16.162001">
      <stop
         id="stop3721-4"
         style="stop-color:#4b4b4b"
         offset="0" />
      <stop
         id="stop3723-0"
         style="stop-color:#232323"
         offset=".37373" />
      <stop
         id="stop3725-0"
         style="stop-color:#5c5c5c"
         offset="1" />
    </linearGradient>
    <linearGradient
       inkscape:collect="always"
       xlink:href="#linearGradient3707"
       id="linearGradient3405-4"
       gradientUnits="userSpaceOnUse"
       x1="16.162001"
       y1="44.481998"
       x2="76.772003"
       y2="44.481998"
       gradientTransform="matrix(0,0.89095,-0.89095,0,87.632,6.6)" />
    <linearGradient
       id="linearGradient3707"
       y2="44.481998"
       gradientUnits="userSpaceOnUse"
       x2="76.772003"
       y1="44.481998"
       x1="16.162001">
      <stop
         id="stop3709"
         style="stop-color:#141414"
         offset="0" />
      <stop
         id="stop3654"
         style="stop-color:#616161"
         offset="1" />
    </linearGradient>
    <radialGradient
       inkscape:collect="always"
       xlink:href="#radialGradient3738"
       id="radialGradient3397"
       gradientUnits="userSpaceOnUse"
       gradientTransform="matrix(1,0,0,0.99997,0,0.0016595)"
       cx="48"
       cy="48.000999"
       r="27.002001" />
    <radialGradient
       id="radialGradient3738"
       gradientUnits="userSpaceOnUse"
       cy="48.000999"
       cx="48"
       gradientTransform="matrix(1,0,0,0.99997,0,0.0016595)"
       r="27.002001">
      <stop
         id="stop3734-6"
         style="stop-opacity:0"
         offset="0" />
      <stop
         id="stop3740-2"
         style="stop-opacity:0"
         offset="0.95" />
      <stop
         id="stop3736-6"
         offset="1" />
    </radialGradient>
    <linearGradient
       inkscape:collect="always"
       xlink:href="#linearGradient3744-7"
       id="linearGradient3394"
       gradientUnits="userSpaceOnUse"
       x1="16.162001"
       y1="44.481998"
       x2="76.772003"
       y2="44.481998"
       gradientTransform="matrix(0,0.64908,-0.64908,0,76.872,17.839)" />
    <linearGradient
       id="linearGradient3744-7"
       y2="44.481998"
       gradientUnits="userSpaceOnUse"
       x2="76.772003"
       y1="44.481998"
       x1="16.162001">
      <stop
         id="stop3748-5"
         style="stop-color:#5d5d5d"
         offset="0" />
      <stop
         id="stop3753-6"
         style="stop-color:#0a0a0a"
         offset="0.6" />
      <stop
         id="stop3751"
         style="stop-color:#4e4e4e"
         offset="1" />
    </linearGradient>
    <clipPath
       id="clipPath3798">
      <path
         inkscape:connector-curvature="0"
         id="path3800"
         style="fill:#ff00ff"
         d="m 61.367,45.997 a 13.637,13.637 0 1 1 -27.274,0 13.637,13.637 0 1 1 27.274,0 z"
         transform="matrix(1.0266,0,0,1.0266,-1,0.77836)" />
    </clipPath>
    <filter
       id="filter3833"
       height="1.48"
       width="1.48"
       color-interpolation-filters="sRGB"
       y="-0.23999999"
       x="-0.23999999">
      <feGaussianBlur
         id="feGaussianBlur3835"
         stdDeviation="2.8000002" />
    </filter>
    <filter
       id="filter3987"
       color-interpolation-filters="sRGB">
      <feGaussianBlur
         id="feGaussianBlur3989"
         stdDeviation="0.42020394" />
    </filter>
    <linearGradient
       inkscape:collect="always"
       xlink:href="#linearGradient3967"
       id="linearGradient9392"
       gradientUnits="userSpaceOnUse"
       gradientTransform="matrix(1.0266,0,0,1.0266,-1,50.778)"
       x1="53.511002"
       y1="59.608002"
       x2="61.491001"
       y2="39.929001" />
    <linearGradient
       id="linearGradient3967"
       y2="39.929001"
       gradientUnits="userSpaceOnUse"
       x2="61.491001"
       gradientTransform="matrix(1.0266,0,0,1.0266,-1,50.778)"
       y1="59.608002"
       x1="53.511002">
      <stop
         id="stop3883-9"
         style="stop-color:#d40000;stop-opacity:0"
         offset="0" />
      <stop
         id="stop3889-8"
         style="stop-color:#d40000"
         offset=".5" />
      <stop
         id="stop3885-7"
         style="stop-color:#d40000;stop-opacity:0"
         offset="1" />
    </linearGradient>
    <linearGradient
       inkscape:collect="always"
       xlink:href="#linearGradient3969"
       id="linearGradient9394"
       gradientUnits="userSpaceOnUse"
       gradientTransform="matrix(0.72593,0.72593,-0.72593,0.72593,46.743,29.961)"
       x1="53.730999"
       y1="60.139"
       x2="62.585999"
       y2="38.831001" />
    <linearGradient
       id="linearGradient3969"
       y2="38.831001"
       gradientUnits="userSpaceOnUse"
       x2="62.585999"
       gradientTransform="matrix(0.72593,0.72593,-0.72593,0.72593,46.743,29.961)"
       y1="60.139"
       x1="53.730999">
      <stop
         id="stop3893-2"
         style="stop-color:#d42aff;stop-opacity:0"
         offset="0" />
      <stop
         id="stop3899-8"
         style="stop-color:#d42aff"
         offset=".5" />
      <stop
         id="stop3895-2"
         style="stop-color:#d42aff;stop-opacity:0"
         offset="1" />
    </linearGradient>
    <linearGradient
       inkscape:collect="always"
       xlink:href="#linearGradient3971"
       id="linearGradient9396"
       gradientUnits="userSpaceOnUse"
       gradientTransform="matrix(0,1.0266,-1.0266,0,95.222,49)"
       x1="53.388"
       y1="60.346001"
       x2="61.983002"
       y2="39.437" />
    <linearGradient
       id="linearGradient3971"
       y2="39.437"
       gradientUnits="userSpaceOnUse"
       x2="61.983002"
       gradientTransform="matrix(0,1.0266,-1.0266,0,95.222,49)"
       y1="60.346001"
       x1="53.388">
      <stop
         id="stop3903-9"
         style="stop-color:#60f;stop-opacity:0"
         offset="0" />
      <stop
         id="stop3909"
         style="stop-color:#60f"
         offset=".5" />
      <stop
         id="stop3905"
         style="stop-color:#60f;stop-opacity:0"
         offset="1" />
    </linearGradient>
    <linearGradient
       inkscape:collect="always"
       xlink:href="#linearGradient3973"
       id="linearGradient9398"
       gradientUnits="userSpaceOnUse"
       gradientTransform="matrix(-0.72593,0.72593,-0.72593,-0.72593,116.04,96.743)"
       x1="53.296001"
       y1="59.182999"
       x2="61.889999"
       y2="40.223" />
    <linearGradient
       id="linearGradient3973"
       y2="40.223"
       gradientUnits="userSpaceOnUse"
       x2="61.889999"
       gradientTransform="matrix(-0.72593,0.72593,-0.72593,-0.72593,116.04,96.743)"
       y1="59.182999"
       x1="53.296001">
      <stop
         id="stop3913-9"
         style="stop-color:#2a7fff;stop-opacity:0"
         offset="0" />
      <stop
         id="stop3919"
         style="stop-color:#2a7fff"
         offset=".5" />
      <stop
         id="stop3915"
         style="stop-color:#2a7fff;stop-opacity:0"
         offset="1" />
    </linearGradient>
    <linearGradient
       inkscape:collect="always"
       xlink:href="#linearGradient3975"
       id="linearGradient9400"
       gradientUnits="userSpaceOnUse"
       gradientTransform="matrix(-1.0266,0,0,-1.0266,97,145.22)"
       x1="53.879002"
       y1="61.330002"
       x2="60.999001"
       y2="39.682999" />
    <linearGradient
       id="linearGradient3975"
       y2="39.682999"
       gradientUnits="userSpaceOnUse"
       x2="60.999001"
       gradientTransform="matrix(-1.0266,0,0,-1.0266,97,145.22)"
       y1="61.330002"
       x1="53.879002">
      <stop
         id="stop3923"
         style="stop-color:#5fd3bc;stop-opacity:0"
         offset="0" />
      <stop
         id="stop3929"
         style="stop-color:#5fd3bc"
         offset=".5" />
      <stop
         id="stop3925"
         style="stop-color:#5fd3bc;stop-opacity:0"
         offset="1" />
    </linearGradient>
    <linearGradient
       inkscape:collect="always"
       xlink:href="#linearGradient3977"
       id="linearGradient9402"
       gradientUnits="userSpaceOnUse"
       gradientTransform="matrix(-0.72593,-0.72593,0.72593,-0.72593,49.257,166.04)"
       x1="53.470001"
       y1="59.877998"
       x2="60.324001"
       y2="39.701" />
    <linearGradient
       id="linearGradient3977"
       y2="39.701"
       gradientUnits="userSpaceOnUse"
       x2="60.324001"
       gradientTransform="matrix(-0.72593,-0.72593,0.72593,-0.72593,49.257,166.04)"
       y1="59.877998"
       x1="53.470001">
      <stop
         id="stop3853-6"
         style="stop-color:#55d400;stop-opacity:0"
         offset="0" />
      <stop
         id="stop3859"
         style="stop-color:#55d400"
         offset=".5" />
      <stop
         id="stop3855-0"
         style="stop-color:#55d400;stop-opacity:0"
         offset="1" />
    </linearGradient>
    <linearGradient
       inkscape:collect="always"
       xlink:href="#linearGradient3979"
       id="linearGradient9404"
       gradientUnits="userSpaceOnUse"
       gradientTransform="matrix(0,-1.0266,1.0266,0,0.77836,147)"
       x1="61.627998"
       y1="39.682999"
       x2="52.881001"
       y2="60.715" />
    <linearGradient
       id="linearGradient3979"
       y2="60.715"
       gradientUnits="userSpaceOnUse"
       x2="52.881001"
       gradientTransform="matrix(0,-1.0266,1.0266,0,0.77836,147)"
       y1="39.682999"
       x1="61.627998">
      <stop
         id="stop3863"
         style="stop-color:#fc0;stop-opacity:0"
         offset="0" />
      <stop
         id="stop3869-2"
         style="stop-color:#fc0"
         offset=".5" />
      <stop
         id="stop3865"
         style="stop-color:#fc0;stop-opacity:0"
         offset="1" />
    </linearGradient>
    <linearGradient
       inkscape:collect="always"
       xlink:href="#linearGradient3981"
       id="linearGradient9406"
       gradientUnits="userSpaceOnUse"
       gradientTransform="matrix(0.72593,-0.72593,0.72593,0.72593,-20.039,99.257)"
       x1="53.035"
       y1="61.182999"
       x2="61.803001"
       y2="40.484001" />
    <linearGradient
       id="linearGradient3981"
       y2="40.484001"
       gradientUnits="userSpaceOnUse"
       x2="61.803001"
       gradientTransform="matrix(0.72593,-0.72593,0.72593,0.72593,-20.039,99.257)"
       y1="61.182999"
       x1="53.035">
      <stop
         id="stop3873"
         style="stop-color:#f60;stop-opacity:0"
         offset="0" />
      <stop
         id="stop3879"
         style="stop-color:#f60"
         offset=".5" />
      <stop
         id="stop3875-7"
         style="stop-color:#f60;stop-opacity:0"
         offset="1" />
    </linearGradient>
    <radialGradient
       inkscape:collect="always"
       xlink:href="#radialGradient3803"
       id="radialGradient9408"
       gradientUnits="userSpaceOnUse"
       gradientTransform="matrix(1,0,0,0.61803,0,19.862)"
       cx="41"
       cy="52"
       r="9.7082005" />
    <radialGradient
       id="radialGradient3803"
       gradientUnits="userSpaceOnUse"
       cy="52"
       cx="41"
       gradientTransform="matrix(1,0,0,0.61803,0,19.862)"
       r="9.7082005">
      <stop
         id="stop3799-6"
         style="stop-color:#fff"
         offset="0" />
      <stop
         id="stop3805-1"
         style="stop-color:#fff"
         offset=".5" />
      <stop
         id="stop3801-3"
         style="stop-color:#fff;stop-opacity:0"
         offset="1" />
    </radialGradient>
  </defs>
  <sodipodi:namedview
     id="base"
     pagecolor="#ffffff"
     bordercolor="#666666"
     borderopacity="1.0"
     inkscape:pageopacity="0.0"
     inkscape:pageshadow="2"
     inkscape:zoom="3.959798"
     inkscape:cx="28.389459"
     inkscape:cy="57.490015"
     inkscape:document-units="px"
     inkscape:current-layer="layer1"
     showgrid="false"
     inkscape:window-width="1280"
     inkscape:window-height="725"
     inkscape:window-x="0"
     inkscape:window-y="25"
     inkscape:window-maximized="1" />
  <metadata
     id="metadata7">
    <rdf:RDF>
      <cc:Work
         rdf:about="">
        <dc:format>image/svg+xml</dc:format>
        <dc:type
           rdf:resource="http://purl.org/dc/dcmitype/StillImage" />
        <dc:title></dc:title>
      </cc:Work>
    </rdf:RDF>
  </metadata>
  <g
     inkscape:label="Layer 1"
     inkscape:groupmode="layer"
     id="layer1"
     transform="translate(0,-956.36217)">
    <g
       transform="translate(-182.1875,-40.40626)"
       id="g6148">
      <rect
         y="964.36218"
         x="8"
         height="80"
         width="80"
         id="rect9283"
         style="fill:#000000;fill-opacity:1;stroke:none;filter:url(#filter6279)"
         rx="5"
         ry="5"
         transform="translate(182.1875,40.40625)" />
      <rect
         ry="5"
         rx="5"
         style="fill:url(#linearGradient10902-1);fill-opacity:1;stroke:none"
         id="rect9285"
         width="80"
         height="80"
         x="8"
         y="964.36218"
         transform="translate(182.1875,40.40625)" />
      <g
         id="g10220">
        <g
           transform="translate(182.1875,996.76843)"
           id="layer5">
          <rect
             id="rect3171"
             style="opacity:0.5;fill:url(#linearGradient3584);stroke:#ffffff;stroke-width:0.5;stroke-linecap:round;filter:url(#filter3794-58)"
             clip-path="url(#clipPath3613-34)"
             rx="12"
             ry="12"
             height="66"
             width="66"
             y="15"
             x="15" />
        </g>
        <g
           transform="matrix(0.89488636,0,0,0.89488636,187.26194,1002.0803)"
           id="g3414">
          <path
             d="M 69.214,69.2138 A 30.000419,30.000419 0 1 1 26.7877,26.7875 30.000419,30.000419 0 1 1 69.214,69.2138 z"
             style="fill:url(#linearGradient3409)"
             id="path3648"
             inkscape:connector-curvature="0" />
          <path
             d="m 48.000021,77.750372 a 29.750419,29.750419 0 1 1 0,-59.499855 29.750419,29.750419 0 1 1 0,59.499855 z"
             style="fill:none;stroke:#000000;stroke-width:0.49999946"
             id="path3672"
             inkscape:connector-curvature="0" />
          <path
             d="m 48.000762,75.000013 a 27.00024,27.00024 0 1 1 0,-53.999588 27.00024,27.00024 0 1 1 0,53.999588 z"
             style="fill:url(#linearGradient3405-4)"
             id="path3697"
             inkscape:connector-curvature="0" />
          <g
             transform="matrix(0.92593,0,0,0.92593,3.5556,3.5556)"
             style="opacity:0.2"
             id="g3691">
            <path
               transform="matrix(0,0.8827,-0.8827,0,87.265,6.9833)"
               d="m 76.772,44.482 a 30.305,30.305 0 1 1 -60.609,0 30.305,30.305 0 1 1 60.609,0 z"
               style="fill:none;stroke:#000000;stroke-width:0.61176002"
               id="path3676"
               inkscape:connector-curvature="0" />
            <path
               transform="matrix(0,0.81671,-0.81671,0,84.329,10.05)"
               d="m 76.772,44.482 a 30.305,30.305 0 1 1 -60.609,0 30.305,30.305 0 1 1 60.609,0 z"
               style="fill:none;stroke:#000000;stroke-width:0.66118997"
               id="path3678"
               inkscape:connector-curvature="0" />
            <path
               transform="matrix(0,0.84971,-0.84971,0,85.797,8.5167)"
               d="m 76.772,44.482 a 30.305,30.305 0 1 1 -60.609,0 30.305,30.305 0 1 1 60.609,0 z"
               style="fill:none;stroke:#000000;stroke-width:0.63551003"
               id="path3680"
               inkscape:connector-curvature="0" />
            <path
               transform="matrix(0,0.78371,-0.78371,0,82.861,11.583)"
               d="m 76.772,44.482 a 30.305,30.305 0 1 1 -60.609,0 30.305,30.305 0 1 1 60.609,0 z"
               style="fill:none;stroke:#000000;stroke-width:0.68902999"
               id="path3682"
               inkscape:connector-curvature="0" />
          </g>
          <path
             d="m 48,21 c -6.9099,0 -13.822,2.6342 -19.094,7.9062 -10.544,10.544 -10.544,27.643 0,38.188 10.544,10.544 27.643,10.544 38.188,0 10.544,-10.544 10.544,-27.643 0,-38.188 C 61.822,23.6342 54.91,21.0002 48,21.0002 z m 0,2.5 c 6.2701,0 12.529,2.4036 17.312,7.1875 9.5678,9.5678 9.5678,25.057 0,34.625 -9.5678,9.5678 -25.057,9.5678 -34.625,0 -9.5678,-9.5678 -9.5678,-25.057 0,-34.625 4.784,-4.783 11.043,-7.187 17.313,-7.187 z"
             style="opacity:0.6;fill:url(#radialGradient3397)"
             id="path3727"
             inkscape:connector-curvature="0" />
          <path
             d="m 47.999623,67.67017 a 19.670369,19.670369 0 1 1 0,-39.34009 19.670369,19.670369 0 1 1 0,39.34009 z"
             style="fill:url(#linearGradient3394);stroke:#1a1a1a;stroke-width:0.99997258"
             id="path3742"
             inkscape:connector-curvature="0" />
          <g
             id="layer6">
            <g
               id="g3786"
               style="opacity:0.4;filter:url(#filter3833)"
               clip-path="url(#clipPath3798)">
              <path
                 inkscape:connector-curvature="0"
                 id="path3756"
                 style="fill:#d40000"
                 d="m 61.367,45.997 a 13.637,13.637 0 0 1 -3.9942,9.6429 L 47.7299,45.997 z"
                 transform="matrix(1.0266,0,0,1.0266,-1,0.77836)" />
              <path
                 inkscape:connector-curvature="0"
                 id="path3772"
                 style="fill:#d42aff"
                 d="m 61.367,45.997 a 13.637,13.637 0 0 1 -3.9942,9.6429 L 47.7299,45.997 z"
                 transform="matrix(0.72593,0.72593,-0.72593,0.72593,46.743,-20.039)" />
              <path
                 inkscape:connector-curvature="0"
                 id="path3774"
                 style="fill:#6600ff"
                 d="m 61.367,45.997 a 13.637,13.637 0 0 1 -3.9942,9.6429 L 47.7299,45.997 z"
                 transform="matrix(0,1.0266,-1.0266,0,95.222,-1)" />
              <path
                 inkscape:connector-curvature="0"
                 id="path3776"
                 style="fill:#2a7fff"
                 d="m 61.367,45.997 a 13.637,13.637 0 0 1 -3.9942,9.6429 L 47.7299,45.997 z"
                 transform="matrix(-0.72593,0.72593,-0.72593,-0.72593,116.04,46.743)" />
              <path
                 inkscape:connector-curvature="0"
                 id="path3778"
                 style="fill:#5fd3bc"
                 d="m 61.367,45.997 a 13.637,13.637 0 0 1 -3.9942,9.6429 L 47.7299,45.997 z"
                 transform="matrix(-1.0266,0,0,-1.0266,97,95.222)" />
              <path
                 inkscape:connector-curvature="0"
                 id="path3780"
                 style="fill:#55d400"
                 d="m 61.367,45.997 a 13.637,13.637 0 0 1 -3.9942,9.6429 L 47.7299,45.997 z"
                 transform="matrix(-0.72593,-0.72593,0.72593,-0.72593,49.257,116.04)" />
              <path
                 inkscape:connector-curvature="0"
                 id="path3782"
                 style="fill:#ffcc00"
                 d="m 61.367,45.997 a 13.637,13.637 0 0 1 -3.9942,9.6429 L 47.7299,45.997 z"
                 transform="matrix(0,-1.0266,1.0266,0,0.77836,97)" />
              <path
                 inkscape:connector-curvature="0"
                 id="path3784"
                 style="fill:#ff6600"
                 d="m 61.367,45.997 a 13.637,13.637 0 0 1 -3.9942,9.6429 L 47.7299,45.997 z"
                 transform="matrix(0.72593,-0.72593,0.72593,0.72593,-20.039,49.257)" />
            </g>
            <g
               id="g3957"
               style="opacity:0.8;filter:url(#filter3987)"
               transform="translate(0,-50)">
              <path
                 inkscape:connector-curvature="0"
                 id="path3726"
                 style="opacity:0.8;fill:url(#linearGradient9392)"
                 d="m 61.531,94.375 -0.96875,0.25 c 0.288,1.074 0.438,2.21 0.438,3.375 0,4.8078 -2.6196,9.0009 -6.5,11.25 l 0.5,0.875 c 5.4876,-3.1682 8.1713,-9.6294 6.5312,-15.75 z" />
              <path
                 inkscape:connector-curvature="0"
                 id="path3728"
                 style="opacity:0.8;fill:url(#linearGradient9394)"
                 d="m 59.25,104.5 c -2.2491,3.8804 -6.4422,6.5 -11.25,6.5 -1.165,0 -2.3007,-0.15008 -3.375,-0.4375 l -0.25,0.96875 c 6.1206,1.64 12.582,-1.0437 15.75,-6.5312 l -0.875,-0.5 z" />
              <path
                 inkscape:connector-curvature="0"
                 id="path3730"
                 style="fill:url(#linearGradient9396)"
                 d="m 36.75,104.5 -0.875,0.5 c 3.1682,5.4876 9.6294,8.1712 15.75,6.5312 l -0.25,-0.96875 c -1.074,0.29 -2.21,0.44 -3.375,0.44 -4.8078,0 -9.0009,-2.6196 -11.25,-6.5 z" />
              <path
                 inkscape:connector-curvature="0"
                 id="path3732"
                 style="opacity:0.9;fill:url(#linearGradient9398)"
                 d="m 34.469,94.375 c -1.64,6.1206 1.0437,12.582 6.5312,15.75 l 0.5,-0.875 c -3.88,-2.24 -6.5,-6.43 -6.5,-11.24 0,-1.165 0.15008,-2.3007 0.4375,-3.375 l -0.96875,-0.25 z" />
              <path
                 inkscape:connector-curvature="0"
                 id="path3734"
                 style="fill:url(#linearGradient9400)"
                 d="m 41,85.875 c -5.4876,3.1682 -8.1713,9.6294 -6.5312,15.75 l 0.96875,-0.25 c -0.288,-1.07 -0.438,-2.205 -0.438,-3.37 0,-4.808 2.62,-9.001 6.5,-11.25 l -0.5,-0.875 z" />
              <path
                 inkscape:connector-curvature="0"
                 id="path3736"
                 style="fill:url(#linearGradient9402)"
                 d="m 48.156,84 c -4.972,-0.061 -9.707,2.541 -12.281,7 l 0.875,0.5 C 38.999,87.62 43.192,85 48,85 c 1.165,0 2.3007,0.15008 3.375,0.4375 l 0.25,-0.96875 c -1.148,-0.308 -2.321,-0.455 -3.469,-0.469 z" />
              <path
                 inkscape:connector-curvature="0"
                 id="path3738"
                 style="fill:url(#linearGradient9404)"
                 d="m 47.844,84 c -1.1475,0.01398 -2.3211,0.16125 -3.4688,0.46875 l 0.25,0.96875 c 1.074,-0.288 2.21,-0.438 3.375,-0.438 4.8078,0 9.0009,2.6196 11.25,6.5 l 0.875,-0.5 c -2.574,-4.459 -7.309,-7.061 -12.281,-7 z" />
              <path
                 inkscape:connector-curvature="0"
                 id="path3740"
                 style="opacity:0.9;fill:url(#linearGradient9406)"
                 d="m 55,85.875 -0.5,0.875 c 3.8804,2.2491 6.5,6.4422 6.5,11.25 0,1.165 -0.15008,2.3007 -0.4375,3.375 l 0.96875,0.25 c 1.64,-6.126 -1.043,-12.587 -6.531,-15.755 z" />
            </g>
            <path
               inkscape:connector-curvature="0"
               id="path3793"
               style="fill:url(#radialGradient9408)"
               d="m 50.708,52 a 9.7082,6 0 1 1 -19.416,0 9.7082,6 0 1 1 19.416,0 z"
               transform="matrix(0.23288,-0.23288,0.23288,0.23288,33.267,52.135)" />
          </g>
        </g>
      </g>
    </g>
  </g>
</svg>
