<?xml version="1.0" encoding="UTF-8" standalone="no"?>
<!-- Created with Inkscape (http://www.inkscape.org/) -->
<svg id="svg2" xmlns:rdf="http://www.w3.org/1999/02/22-rdf-syntax-ns#" xmlns="http://www.w3.org/2000/svg" height="96" width="96" version="1.1" xmlns:cc="http://creativecommons.org/ns#" xmlns:xlink="http://www.w3.org/1999/xlink" xmlns:dc="http://purl.org/dc/elements/1.1/">
 <defs id="defs4">
  <filter id="filter6279" color-interpolation-filters="sRGB">
   <feGaussianBlur id="feGaussianBlur6281" stdDeviation="0.8"/>
  </filter>
  <linearGradient id="linearGradient10902-1" x1="48" gradientUnits="userSpaceOnUse" y1="1052.4" gradientTransform="translate(0 -.0000096172)" x2="48" y2="902.36">
   <stop id="stop3189-18" style="stop-color:#e4b31e" offset="0"/>
   <stop id="stop3191-96" style="stop-color:#ffef64" offset="1"/>
  </linearGradient>
  <linearGradient id="linearGradient5956" y2="138.66" gradientUnits="userSpaceOnUse" y1="20.221" x2="48" x1="48">
   <stop id="stop3739-37" style="stop-color:#fff" offset="0"/>
   <stop id="stop3741-13" style="stop-color:#fff;stop-opacity:0" offset="1"/>
  </linearGradient>
  <clipPath id="clipPath3613-96">
   <rect id="rect3615-42" style="fill:#fff" rx="6" ry="6" height="84" width="84" y="6" x="6"/>
  </clipPath>
  <filter id="filter3794-029" height="1.384" width="1.384" y="-.192" x="-.192" color-interpolation-filters="sRGB">
   <feGaussianBlur id="feGaussianBlur3796-57" stdDeviation="5.28"/>
  </filter>
 </defs>
 <metadata id="metadata7">
  <rdf:RDF>
   <cc:Work rdf:about="">
    <dc:format>image/svg+xml</dc:format>
    <dc:type rdf:resource="http://purl.org/dc/dcmitype/StillImage"/>
    <dc:title/>
   </cc:Work>
  </rdf:RDF>
 </metadata>
 <g id="layer1" transform="translate(0 -956.36)">
  <g id="g5969" transform="translate(-182.19 -40.406)">
   <rect id="rect9283" style="filter:url(#filter6279)" transform="translate(182.19 40.406)" rx="5" ry="5" height="80" width="80" y="964.36" x="8"/>
   <rect id="rect9285" style="fill:url(#linearGradient10902-1)" transform="translate(182.19 40.406)" rx="5" ry="5" height="80" width="80" y="964.36" x="8"/>
   <g id="g5958">
    <path id="text2443" style="opacity:.9;fill:#22225e" d="m203.19 1045.1c0.0224-0.3347 0.0864-0.5802 0.19243-0.7363 0.10594-0.1563 0.3291-0.3486 0.66936-0.5773 0.34026-0.2288 0.71119-0.3208 1.1128-0.2762 0.40159 0.045 0.45738 0.2705 0.16733 0.6778-0.29005 0.4071-0.4295 0.8088-0.41834 1.2049 0.0112 0.3959 0.22312 0.6804 0.63587 0.8533 0.41277 0.1729 0.8618 0.1423 1.3471-0.092 0.48528-0.2343 1.0514-0.5828 1.6985-1.0459 0.64705-0.463 1.2997-1.0486 1.9578-1.757 0.65819-0.7084 1.2188-1.4141 1.6818-2.1168 0.46296-0.7028 0.83388-1.3584 1.1128-1.9663 0.27889-0.608 0.45182-1.2076 0.51876-1.7988 0.0669-0.5913-0.11994-1.1491-0.56059-1.6734-0.44068-0.5243-0.66937-0.965-0.68609-1.322-0.0168-0.3569 0.18685-0.7028 0.61079-1.0374 0.75859 0 1.2858 0.223 1.5814 0.6692 0.29562 0.4464 0.56336 0.9037 0.80321 1.3723 0.23984 0.4686 0.44622 0.9455 0.61915 1.4308 0.1729 0.4853 0.3542 0.9258 0.54385 1.3219 0.18964 0.3962 0.32909 0.8031 0.41836 1.2216 0.0892 0.4183 0.23147 0.8646 0.42671 1.3387 0.19521 0.4741 0.36255 0.9733 0.50201 1.4976 0.13944 0.5244 0.36534 0.5496 0.67773 0.076 0.31234-0.4741 0.80601-1.071 1.4809-1.7905 0.67491-0.7196 1.2606-1.3275 1.7571-1.824 0.49643-0.4964 1.0514-0.99 1.665-1.4809 0.61355-0.4908 1.2383-0.9314 1.8742-1.3219 0.63587-0.3906 1.3443-0.742 2.1252-1.0543s1.4781-0.463 2.0918-0.4517c0.61354 0.012 1.1881 0.1087 1.7236 0.2928 0.53544 0.1839 0.9761 0.3959 1.322 0.6358 0.34581 0.2399 0.6247 0.5383 0.83669 0.8952 0.21194 0.3571 0.32908 0.9817 0.35141 1.8743-0.16737 0.3794-0.37097 0.5522-0.61078 0.5187-0.23988-0.033-0.37654-0.2956-0.40998-0.7865-0.0335-0.4907-0.21479-0.8952-0.54385-1.2131-0.32914-0.318-0.65823-0.5494-0.9873-0.6944-0.32913-0.1451-0.76143-0.2623-1.2968-0.3515-0.53551-0.089-1.0626-0.047-1.5814 0.1255-0.51877 0.1729-1.0794 0.4463-1.6817 0.82-0.60246 0.3738-1.3053 0.8338-2.1085 1.3805-0.80329 0.5467-1.5814 1.202-2.3344 1.9661-0.75304 0.7642-1.3722 1.4755-1.8575 2.1336-0.4853 0.6582-0.91476 1.2914-1.2885 1.8994-0.37373 0.6079-0.64705 1.2551-0.81995 1.9411-0.17293 0.686-0.39048 1.3414-0.65262 1.9661-0.26217 0.6248-0.59407 1.1044-0.99566 1.4391-0.60243-0.089-0.91757-0.2706-0.94543-0.5438-0.028-0.2734 0.0529-0.5828 0.24265-0.9286 0.18962-0.346 0.35138-0.7838 0.48527-1.3137 0.13385-0.5299 0.21196-1.0793 0.23427-1.6483 0.0223-0.5689-0.0615-1.1517-0.251-1.7487-0.18967-0.5968-0.37096-1.0988-0.54386-1.506-0.17292-0.4073-0.36257-0.7447-0.56895-1.0125-0.2064-0.2677-0.42672-0.2594-0.66098 0.025-0.23429 0.2844-0.57175 0.7111-1.0124 1.2801-0.44068 0.5689-0.9873 1.1741-1.6399 1.8156-0.65263 0.6415-1.506 1.3667-2.5603 2.1755-1.0542 0.8088-2.0081 1.3499-2.8615 1.6231-0.85344 0.2734-1.5479 0.329-2.0834 0.1672-0.53548-0.1616-0.90084-0.4322-1.0961-0.8115-0.19524-0.3792-0.3319-0.9649-0.40998-1.7571m19.846 1.5228c0.17849 0.2678 0.39882 0.4072 0.66098 0.4183 0.26217 0.012 0.51037-0.062 0.74466-0.2174 0.23427-0.1562 0.51037-0.304 0.82832-0.4435s0.62751-0.3124 0.9287-0.5187c0.3012-0.2064 0.45179-0.4658 0.4518-0.7781-0.00001-0.3124-0.11714-0.555-0.3514-0.7279-0.23429-0.1729-0.33191-0.3932-0.29285-0.661 0.039-0.2677 0.16176-0.4519 0.36814-0.5524 0.20638-0.1004 0.54943-0.1561 1.0291-0.1673 0.50201 0.1005 0.80878 0.3515 0.9204 0.7532 0.11155 0.4015 0.10314 0.7753-0.0251 1.1211-0.12831 0.3458 0.0306 0.6581 0.47691 0.937 0.44623 0.2789 0.84506 0.3709 1.1965 0.2761 0.3514-0.095 0.54942 0.014 0.59404 0.3263-0.0558 0.3347-0.14782 0.5355-0.2761 0.6025-0.1283 0.067-0.38768 0.1283-0.7781 0.184-0.39046 0.056-0.859-0.064-1.4057-0.3598-0.54666-0.2955-0.93716-0.3542-1.1714-0.1756-0.23428 0.1784-0.58569 0.4099-1.0542 0.6944-0.46856 0.2844-0.92877 0.5104-1.3806 0.6778-0.45182 0.1673-0.96782 0.2508-1.5479 0.2508-0.53549-0.1784-0.91476-0.4545-1.1379-0.8281-0.22312-0.3739-0.33467-0.7838-0.33467-1.2301 0.0559-0.3124 0.28727-0.6554 0.69446-1.0291s0.79765-0.6862 1.1714-0.9371c0.37373-0.2509 0.75304-0.4351 1.1379-0.5521 0.38487-0.1173 0.65819-0.1005 0.81995 0.05 0.16176 0.1506 0.26774 0.3347 0.31795 0.5522 0.0502 0.2177 0.0279 0.3933-0.067 0.5272-0.0948 0.1339-0.23429 0.2231-0.41835 0.2677-0.18407 0.045-0.43786 0.1037-0.76134 0.1757-0.32353 0.073-0.67216 0.251-1.0459 0.5355-0.37371 0.2845-0.47134 0.5606-0.29284 0.8284m7.1955-0.2511c0.11157-0.3012 0.26496-0.6191 0.46019-0.9537 0.19522-0.3347 0.64425-0.82 1.3471-1.4558 0.70282-0.6361 1.2216-1.2048 1.5563-1.7069-0.51318 0.067-0.85624 0.1036-1.0291 0.1087-0.17293 0.011-0.27611-0.097-0.30958-0.3095-0.0335-0.2121 0.0168-0.3682 0.15061-0.4685 0.13387-0.1005 0.39603-0.1758 0.78646-0.226 0.39045-0.05 0.79766-0.1143 1.2216-0.1924 0.74745-0.7029 1.3583-1.2662 1.8324-1.6901 0.47412-0.424 0.98174-0.8814 1.5228-1.3723 0.54106-0.4908 1.0542-0.9008 1.5395-1.2299 0.48529-0.3292 0.9064-0.4993 1.2635-0.5103 0.21194 0.2788 0.0139 0.6889-0.59406 1.2298-0.608 0.5411-1.0905 0.9901-1.4475 1.3471l-1.0291 1.0292c-0.32911 0.3291-0.70563 0.7222-1.1295 1.1797 0.54664-0.067 1.3638-0.1618 2.4515-0.2844 1.0877-0.1228 2.2005-0.2372 3.3384-0.3431 1.1379-0.1058 2.2841-0.198 3.4388-0.2761 1.1546-0.078 2.287-0.1283 3.397-0.1507 1.11-0.022 2.2647-0.02 3.4639 0.011 1.1992 0.028 2.1754 0.078 2.9284 0.1506 0.753 0.073 1.3526 0.304 1.7989 0.6944-0.45742 0.1451-0.8758 0.1924-1.2551 0.1423-0.37931-0.051-0.78654-0.089-1.2216-0.1171-0.43512-0.028-0.95663-0.033-1.5646-0.016-0.60802 0.016-1.3443 0.039-2.2089 0.067-0.86461 0.028-1.7878 0.047-2.7695 0.058-0.98173 0.012-1.9774 0.058-2.987 0.1423-1.0096 0.083-1.969 0.1729-2.8782 0.2677-0.90921 0.095-1.8546 0.1813-2.8364 0.2593-0.98174 0.078-1.679 0.1312-2.0918 0.1591-0.41278 0.028-0.75303 0.058-1.0208 0.091-0.26775 0.033-0.48807 0.092-0.661 0.1756-0.17291 0.083-0.35699 0.2093-0.55221 0.3766s-0.43787 0.3988-0.72793 0.6944c-0.29006 0.2957-0.63309 0.6805-1.0291 1.1546-0.39605 0.4741-0.74746 0.8813-1.0543 1.2216-0.30679 0.3403-0.52712 0.6581-0.66099 0.9538-0.13388 0.2957-0.1506 0.5579-0.0502 0.7865 0.10044 0.2286 0.29006 0.368 0.56896 0.4183 0.2789 0.05 0.81439-0.062 1.6064-0.3347 0.79211-0.2733 1.3555-0.5159 1.6901-0.7279 0.33467-0.2119 0.58847-0.3458 0.76136-0.4016 0.17291-0.056 0.30677-0.02 0.4016 0.1088 0.0948 0.1283-0.0418 0.3487-0.40998 0.661-0.36815 0.3123-0.69724 0.5521-0.98729 0.7195-0.29005 0.1673-0.62194 0.3236-0.99565 0.4686-0.37373 0.145-0.79483 0.2509-1.2634 0.3179-0.30121 0.044-0.5857 0.067-0.85344 0.067-0.16733 0-0.3291-0.011-0.48527-0.016-0.42392-0.045-0.75582-0.1421-0.99567-0.2928-0.23984-0.1506-0.39882-0.3487-0.47691-0.594-0.0892-0.2232-0.13387-0.4241-0.13387-0.6025 0-0.012 0.006-0.029 0.0168-0.051 0-0.1896 0.0559-0.4351 0.16735-0.7362m7.4466-0.8367c0.68051-0.2232 1.1352-0.4351 1.3638-0.636 0.2287-0.2007 0.32631-0.3848 0.29285-0.5521-0.0335-0.1674-0.22312-0.1618-0.56894 0.016-0.34584 0.1784-0.58291 0.3596-0.7112 0.5437s-0.2538 0.3933-0.37652 0.6276m-1.4726 1.1045c0-0.5802 0.0725-1.0263 0.21754-1.3388 0.14504-0.3124 0.3821-0.6359 0.71119-0.9705 0.3291-0.3347 0.6582-0.6248 0.9873-0.8703 0.32909-0.2453 0.66656-0.4127 1.0124-0.502l0.38486-0.016c0.34585 0.012 0.64706 0.1059 0.90367 0.2846 0.25658 0.1785 0.36535 0.4936 0.32631 0.9454-0.039 0.4517-0.26216 0.8423-0.66936 1.1714-0.40719 0.329-0.86735 0.5661-1.3806 0.7111-0.51317 0.145-0.78929 0.2762-0.82831 0.3933-0.039 0.1171 0.0446 0.2454 0.251 0.3849 0.20639 0.1394 0.66935 0.2286 1.3889 0.2676s1.308 0 1.7654-0.1171c0.45739-0.117 0.82832-0.2426 1.1128-0.3764 0.28447-0.1341 0.50758-0.2231 0.66936-0.2679 0.16174-0.045 0.29283 0.039 0.39325 0.2512-0.29007 0.4126-0.60801 0.7167-0.95382 0.9119-0.34584 0.1953-0.77809 0.3709-1.2968 0.5271-0.51875 0.1562-1.1519 0.2511-1.8993 0.2846h-0.45182c-0.81438-0.078-1.3638-0.187-1.6483-0.3263-0.28447-0.1395-0.50481-0.3041-0.66099-0.4937-0.15618-0.1897-0.26774-0.4742-0.33467-0.8535m7.5888 0.1507c0.11713 0.3234 0.33468 0.4601 0.65262 0.4099 0.31794-0.05 0.608-0.159 0.87018-0.3264 0.26774-0.1728 0.53826-0.4266 0.81157-0.7613 0.27332-0.3403 0.39325-0.5717 0.35979-0.6944-0.65821 0.4796-1.1769 0.7976-1.5563 0.9537-0.37373 0.1563-0.75303 0.2956-1.1379 0.4185m-1.6817-0.7531c0.0111-0.357 0.0474-0.6303 0.10876-0.82 0.0614-0.1896 0.16456-0.3179 0.30958-0.3848 0.14502-0.067 0.3291-0.089 0.55222-0.067 0.22311 0.022 0.39045 0.3989 0.50202 1.1295 0.46854-0.089 0.8729-0.2203 1.2132-0.3932 0.34026-0.1729 0.66379-0.3374 0.97055-0.4936 0.30679-0.1618 0.66656-0.332 1.0794-0.5105 0.41276-0.1784 0.79765-0.3737 1.1546-0.5855 0.35699-0.2177 0.62473-0.4296 0.80322-0.636 0.17847-0.2119 0.31235-0.4238 0.4016-0.6359 0.0892-0.2175 0.23985-0.3514 0.45182-0.4017 0.251 0.011 0.43507 0.058 0.55222 0.1591 0.11712 0.095 0.18964 0.3208 0.21753 0.6777-0.0112 0.1562-0.0503 0.3096-0.11713 0.4601-0.067 0.1507-0.21477 0.3319-0.44345 0.544-0.22314 0.2063-0.46298 0.3765-0.71955 0.5103-0.25102 0.1283-0.5327 0.2873-0.84507 0.477-0.3068 0.1897-0.61637 0.4433-0.9287 0.7613-0.30679 0.3179-0.52991 0.6274-0.66935 0.9287-0.13387 0.2957-0.27332 0.5662-0.41834 0.8115-0.14503 0.2399-0.36536 0.4379-0.66099 0.5941-0.29564 0.1506-0.75303 0.2455-1.3722 0.2846-0.41277-0.012-0.73629-0.064-0.97055-0.159-0.23427-0.095-0.47969-0.3766-0.73628-0.8451-0.25659-0.4686-0.40161-0.9372-0.43508-1.4056"/>
    <g id="layer5" transform="translate(182.19 996.77)">
     <rect id="rect3171" style="opacity:.1;filter:url(#filter3794-029);stroke:#fff;stroke-linecap:round;stroke-width:.5;fill:url(#linearGradient5956)" clip-path="url(#clipPath3613-96)" rx="12" ry="12" height="66" width="66" y="15" x="15"/>
    </g>
   </g>
  </g>
 </g>
</svg>
