<?xml version="1.0" encoding="UTF-8" standalone="no"?>
<!-- Created with Inkscape (http://www.inkscape.org/) -->
<svg id="svg2" xmlns:rdf="http://www.w3.org/1999/02/22-rdf-syntax-ns#" xmlns="http://www.w3.org/2000/svg" height="96" width="96" version="1.1" xmlns:cc="http://creativecommons.org/ns#" xmlns:xlink="http://www.w3.org/1999/xlink" xmlns:dc="http://purl.org/dc/elements/1.1/">
 <defs id="defs4">
  <filter id="filter6279-2" color-interpolation-filters="sRGB">
   <feGaussianBlur id="feGaussianBlur6281-1" stdDeviation="0.8"/>
  </filter>
  <linearGradient id="linearGradient5979" x1="48" gradientUnits="userSpaceOnUse" y1="1052.4" gradientTransform="translate(0 -.0000078516)" x2="48" y2="902.36">
   <stop id="stop3226-8" style="stop-color:#42394b" offset="0"/>
   <stop id="stop3228-8" offset="1"/>
  </linearGradient>
  <filter id="filter3776" height="1.0908" width="1.3035" y="-.045378" x="-.15174" color-interpolation-filters="sRGB">
   <feGaussianBlur id="feGaussianBlur3778" stdDeviation="1.1526305"/>
  </filter>
  <linearGradient id="linearGradient3067-93" x1="80.711" gradientUnits="userSpaceOnUse" x2="19.942" y1="52.101" y2="52.101">
   <stop id="stop3717-6" style="stop-color:#fff" offset="0"/>
   <stop id="stop3719-0" style="stop-color:#fff;stop-opacity:0" offset="1"/>
  </linearGradient>
  <filter id="filter3780" height="1.3025" width="1.0888" y="-.15126" x="-.044412" color-interpolation-filters="sRGB">
   <feGaussianBlur id="feGaussianBlur3782" stdDeviation="1.1526305"/>
  </filter>
 </defs>
 <metadata id="metadata7">
  <rdf:RDF>
   <cc:Work rdf:about="">
    <dc:format>image/svg+xml</dc:format>
    <dc:type rdf:resource="http://purl.org/dc/dcmitype/StillImage"/>
    <dc:title/>
   </cc:Work>
  </rdf:RDF>
 </metadata>
 <g id="layer1" transform="translate(0 -956.36)">
  <g id="g9536" transform="translate(2.861e-8 -.0000097370)">
   <rect id="rect9283" ry="5" style="filter:url(#filter6279-2)" rx="5" transform="translate(0 -.0000078516)" height="80" width="80" y="964.36" x="8"/>
   <rect id="rect9285" style="fill:url(#linearGradient5979)" rx="5" ry="5" height="80" width="80" y="964.36" x="8"/>
   <g id="g26594" transform="translate(-182.19 -40.406)">
    <g id="g3116" transform="translate(182.19 996.77)">
     <rect id="rect3784" style="opacity:.1;fill:#fff" height="16" width="16" y="56" x="24"/>
     <g id="g3744" style="filter:url(#filter3776)" transform="matrix(0 -.65823 .65616 0 -10.186 95.127)">
      <path id="path3746" style="fill-rule:evenodd" d="m48.808 61.281 44.058 4.5502v-9.1l-44.058 4.55z"/>
      <path id="path3748" style="stroke-linejoin:round;stroke-width:.625;fill-rule:evenodd" d="m89.91 52.101 19.667 9.1442-19.667 9.1442c3.1419-5.3987 3.1238-12.785 0.000001-18.288z"/>
     </g>
     <g id="g2942" style="fill:url(#linearGradient3067-93)" transform="matrix(0 -.65823 .65616 0 -10.186 94.127)">
      <path id="path2944" style="fill-rule:evenodd;fill:url(#linearGradient3067-93)" d="m48.808 61.281 44.058 4.5502v-9.1l-44.058 4.55z"/>
      <path id="path2948" style="stroke-linejoin:round;fill-rule:evenodd;stroke-width:.625;fill:url(#linearGradient3067-93)" d="m89.91 52.101 19.667 9.1442-19.667 9.1442c3.1419-5.3987 3.1238-12.785 0.000001-18.288z"/>
     </g>
     <g id="g3750" style="filter:url(#filter3780)" transform="matrix(.65823 0 0 .65616 2.8732 26.814)">
      <path id="path3752" style="fill-rule:evenodd" d="m47.289 61.281 45.577 4.5502v-9.1l-45.577 4.55z"/>
      <path id="path3754" style="stroke-linejoin:round;stroke-width:.625;fill-rule:evenodd" d="m89.91 52.101 19.667 9.1442-19.667 9.1442c3.1419-5.3987 3.1238-12.785 0.000001-18.288z"/>
     </g>
     <g id="g3723" style="fill:url(#linearGradient3067-93)" transform="matrix(.65823 0 0 .65616 2.8732 25.814)">
      <path id="path3725" style="fill-rule:evenodd;fill:url(#linearGradient3067-93)" d="m47.289 61.281 45.577 4.5502v-9.1l-45.577 4.55z"/>
      <path id="path3727" style="stroke-linejoin:round;fill-rule:evenodd;stroke-width:.625;fill:url(#linearGradient3067-93)" d="m89.91 52.101 19.667 9.1442-19.667 9.1442c3.1419-5.3987 3.1238-12.785 0.000001-18.288z"/>
     </g>
     <rect id="rect3786" style="opacity:.2;stroke-dashoffset:1;stroke:#fff;stroke-dasharray:2, 2;stroke-width:2;fill:none" height="28" width="28" y="43" x="25"/>
    </g>
   </g>
  </g>
 </g>
</svg>
