<?xml version="1.0" encoding="UTF-8" standalone="no"?>
<!-- Created with Inkscape (http://www.inkscape.org/) -->
<svg id="svg2" xmlns:rdf="http://www.w3.org/1999/02/22-rdf-syntax-ns#" xmlns="http://www.w3.org/2000/svg" height="96" width="96" version="1.1" xmlns:cc="http://creativecommons.org/ns#" xmlns:xlink="http://www.w3.org/1999/xlink" xmlns:dc="http://purl.org/dc/elements/1.1/">
 <defs id="defs4">
  <filter id="filter6279" color-interpolation-filters="sRGB">
   <feGaussianBlur id="feGaussianBlur6281" stdDeviation="0.8"/>
  </filter>
  <linearGradient id="linearGradient10902-1" x1="48" gradientUnits="userSpaceOnUse" y1="1052.4" gradientTransform="translate(0 -.0000096172)" x2="48" y2="902.36">
   <stop id="stop3616" style="stop-color:#65a31b" offset="0"/>
   <stop id="stop3618" style="stop-color:#a0de42" offset="1"/>
  </linearGradient>
  <linearGradient id="linearGradient3140-8" x1="48.082" gradientUnits="userSpaceOnUse" y1="75.562" gradientTransform="translate(0,1)" x2="46.655" y2="16.973">
   <stop id="stop3733" style="stop-color:#dcdcdc" offset="0"/>
   <stop id="stop3757" style="stop-color:#ebebeb" offset=".30654"/>
   <stop id="stop3737" style="stop-color:#fff" offset=".70706"/>
   <stop id="stop3759" style="stop-color:#fafafa" offset=".84501"/>
   <stop id="stop3735" style="stop-color:#f0f0f0" offset="1"/>
  </linearGradient>
  <linearGradient id="linearGradient3196" y2="48.273" gradientUnits="userSpaceOnUse" x2="81" y1="48.273" x1="15">
   <stop id="stop3742-2" style="stop-color:#fff" offset="0"/>
   <stop id="stop3744-5" style="stop-color:#fff;stop-opacity:0" offset="1"/>
  </linearGradient>
  <linearGradient id="linearGradient3224-5" y2="138.66" gradientUnits="userSpaceOnUse" x2="48" y1="20.221" x1="48">
   <stop id="stop3739-682" style="stop-color:#fff" offset="0"/>
   <stop id="stop3741-38" style="stop-color:#fff;stop-opacity:0" offset="1"/>
  </linearGradient>
  <clipPath id="clipPath3613-50">
   <rect id="rect3615-59" style="fill:#fff" rx="6" ry="6" height="84" width="84" y="6" x="6"/>
  </clipPath>
  <filter id="filter3794-26" height="1.384" width="1.384" y="-.192" x="-.192" color-interpolation-filters="sRGB">
   <feGaussianBlur id="feGaussianBlur3796-8" stdDeviation="5.28"/>
  </filter>
 </defs>
 <metadata id="metadata7">
  <rdf:RDF>
   <cc:Work rdf:about="">
    <dc:format>image/svg+xml</dc:format>
    <dc:type rdf:resource="http://purl.org/dc/dcmitype/StillImage"/>
    <dc:title/>
   </cc:Work>
  </rdf:RDF>
 </metadata>
 <g id="layer1" transform="translate(0 -956.36)">
  <g id="g5977" transform="translate(-182.19 -40.406)">
   <rect id="rect9283" style="filter:url(#filter6279)" transform="translate(182.19 40.406)" rx="5" ry="5" height="80" width="80" y="964.36" x="8"/>
   <rect id="rect9285" style="fill:url(#linearGradient10902-1)" transform="translate(182.19 40.406)" rx="5" ry="5" height="80" width="80" y="964.36" x="8"/>
   <g id="g6802">
    <g id="g3166" transform="matrix(.80956 0 0 .80956 191.33 1004.6)">
     <path id="path3712" style="opacity:.24" d="m48 18.031c-18.66 0-33.969 12.408-33.969 27.969 0 9.6667 5.998 18.089 14.938 23.094-0.21052 1.1926-0.65132 2.862-1.75 4.5625-1.2551 1.9426-3.2901 3.8256-6.7812 4.8125a0.98224 0.98224 0 0 0 0.187 1.906c9.69 1.053 16.246-3.496 19.844-7.125 2.429 0.454 4.934 0.719 7.531 0.719 18.66 0 33.969-12.409 33.969-27.969s-15.309-27.969-33.969-27.969zm2.7812 10.938c1.0077 0.000029 1.7648 0.33312 2.4688 1a0.98224 0.98224 0 0 0 0.03125 0c0.71283 0.66371 0.99999 1.3343 1 2.25-0.000013 0.91577-0.28719 1.5864-1 2.25-0.70031 0.65118-1.4838 0.96877-2.5 0.96875-1.0162 0.000021-1.8162-0.31528-2.5312-0.96875-0.71282-0.66364-1-1.3342-1-2.25-0.000006-0.91568 0.28715-1.5863 1-2.25 0.71868-0.66909 1.5235-0.99997 2.5312-1zm-4.1875 12.188c1.6473 0.000021 2.7767 0.40993 3.5312 1.0938a0.98224 0.98224 0 0 0 0 0.03125c0.7892 0.69209 1.1562 1.4777 1.1562 2.6562-0.000017 0.24994-0.02084 0.73745-0.09375 1.4375-0.05533 0.66388-0.17974 1.2658-0.34375 1.8125l-1.875 6.6562c-0.16412 0.57438-0.31132 1.1964-0.4375 1.9062-0.12646 0.71122-0.18752 1.277-0.1875 1.75-0.000013 1.0302 0.19184 1.9603 0.9375 2.5625 0.71475 0.57733 1.6124 0.6875 2.6875 0.6875 0.32408 0 0.70232-0.09895 1.0625-0.15625-1.0209 0.39027-2.0234 0.77489-2.6875 1a0.98224 0.98224 0 0 0 -0.03125 0c-0.76479 0.27221-1.6746 0.4375-2.7812 0.4375-1.6751 0-2.8288-0.40446-3.625-1.0938-0.80405-0.72686-1.1875-1.5302-1.1875-2.6562-0.000003-0.47341 0.05309-0.98231 0.125-1.5 0.07417-0.54882 0.18711-1.1575 0.34375-1.8125l1.843-6.594a0.98224 0.98224 0 0 0 0 -0.03125c0.17427-0.66541 0.32733-1.2927 0.4375-1.875 0.13127-0.62353 0.18749-1.1867 0.1875-1.75-0.000006-0.99202-0.16613-1.8817-0.8125-2.5-0.65672-0.62812-1.5675-0.78123-2.6875-0.78125-0.33666 0.000014-0.64828 0.09628-0.96875 0.15625 0.85579-0.32529 1.7067-0.65967 2.5-0.90625a0.98224 0.98224 0 0 0 0.03125 0c1.0551-0.34218 1.9974-0.53123 2.875-0.53125z"/>
     <path id="path3620" style="fill:url(#linearGradient3140-8)" d="m48 18c-18.225 0-33 12.088-33 27 0 9.4984 5.9998 17.843 15.062 22.656-0.34462 2.5088-1.914 8.6498-9.3438 10.75 9.6229 1.0458 16.014-3.6463 19.406-7.1875 2.525 0.506 5.162 0.782 7.876 0.782 18.225 0 33-12.088 33-27s-14.775-27-33-27zm2.7812 9c1.2343 0.000035 2.2877 0.42718 3.1562 1.25 0.88379 0.82289 1.3125 1.8107 1.3125 2.9688-0.000016 1.1581-0.42871 2.1459-1.3125 2.9688-0.86859 0.80765-1.922 1.2188-3.1562 1.2188-1.2343 0.000026-2.3037-0.4111-3.1875-1.2188-0.88382-0.82283-1.3125-1.8106-1.3125-2.9688-0.000008-1.1581 0.42868-2.1459 1.3125-2.9688 0.884-0.823 1.953-1.25 3.187-1.25zm-4.1875 12.188c1.8133 0.000023 3.2122 0.45996 4.1875 1.3438 0.99046 0.86859 1.4687 2.0044 1.4688 3.4062-0.00002 0.28954-0.01757 0.79984-0.09375 1.5312-0.06096 0.73144-0.19216 1.3905-0.375 2l-1.875 6.6562c-0.15239 0.53334-0.28436 1.1268-0.40625 1.8125-0.12192 0.68572-0.18751 1.212-0.1875 1.5625-0.000011 0.88382 0.19755 1.4925 0.59375 1.8125 0.39618 0.32 1.0872 0.46875 2.0625 0.46875 0.45713 0 0.98344-0.06635 1.5625-0.21875 0.57903-0.16762 0.99094-0.31558 1.25-0.4375l-0.5 2.0625c-1.5086 0.59428-2.726 1.039-3.625 1.3438-0.9 0.319-1.937 0.468-3.126 0.468-1.828 0-3.26-0.429-4.281-1.312-1.0057-0.89904-1.5-2.0348-1.5-3.4062-0.000003-0.53333 0.0488-1.0764 0.125-1.625 0.07619-0.5638 0.17613-1.2053 0.34375-1.9062l1.875-6.6562c0.16761-0.63998 0.29958-1.2487 0.40625-1.8125 0.1219-0.57903 0.1875-1.0901 0.1875-1.5625-0.000005-0.85332-0.18078-1.446-0.53125-1.7812-0.35048-0.33522-1.0095-0.53123-2-0.53125-0.48762 0.00002-0.98191 0.09765-1.5 0.25-0.50286 0.1524-0.94679 0.30038-1.3125 0.4375l0.5-2.0625c1.2343-0.50284 2.4349-0.93075 3.5625-1.2812 1.1276-0.36569 2.1818-0.56248 3.1875-0.5625z"/>
     <path id="path3666" style="fill:url(#linearGradient3196)" d="m48 18c-18.225 0-33 12.088-33 27 0 0.20841 0.0255 0.41773 0.03125 0.625 0.884-14.266 15.313-25.625 32.969-25.625 17.811 0 32.318 11.557 32.969 26 0.015-0.336 0.031-0.661 0.031-1 0-14.912-14.775-27-33-27zm-1.5938 14.219c-0.07734 0.31592-0.125 0.65378-0.125 1-0.000008 1.1581 0.42868 2.1459 1.3125 2.9688 0.8838 0.80765 1.9532 1.2188 3.1875 1.2188 1.2343 0.000026 2.2877-0.4111 3.1562-1.2188 0.88379-0.82283 1.3125-1.8106 1.3125-2.9688-0.000005-0.34622-0.04766-0.68408-0.125-1-0.18135 0.74083-0.56793 1.3919-1.1875 1.9688-0.86859 0.80765-1.922 1.2188-3.1562 1.2188-1.2343 0.000026-2.3037-0.4111-3.1875-1.2188-0.61959-0.57683-1.0062-1.2279-1.1875-1.9688zm-4.25 10.188c-0.31552 0.000013-0.64301 0.05487-0.96875 0.125-0.44524 0.16533-0.88731 0.31405-1.3438 0.5l-0.5 2.0625c0.36571-0.13712 0.80964-0.2851 1.3125-0.4375 0.51809-0.15235 1.0124-0.24998 1.5-0.25 0.99047 0.00002 1.6495 0.19603 2 0.53125 0.19739 0.18882 0.34975 0.4598 0.4375 0.8125 0.05642-0.36125 0.09375-0.71382 0.09375-1.0312-0.000005-0.85332-0.18078-1.446-0.53125-1.7812-0.35048-0.33522-1.0095-0.53123-2-0.53125zm10.031 2.75c-0.01103 0.13112-0.01567 0.16288-0.03125 0.3125-0.06096 0.73144-0.19216 1.3905-0.375 2l-1.875 6.6562c-0.15239 0.53334-0.28436 1.1268-0.40625 1.8125-0.12192 0.68572-0.18751 1.212-0.1875 1.5625-0.000005 0.37367 0.05429 0.69446 0.125 0.96875 0.02578-0.17278 0.02686-0.33082 0.0625-0.53125 0.12189-0.68571 0.25386-1.2792 0.40625-1.8125l1.875-6.6562c0.18284-0.60951 0.31404-1.2686 0.375-2 0.07618-0.73141 0.09373-1.2417 0.09375-1.5312-0.000003-0.27346-0.02585-0.52805-0.0625-0.78125zm-10.375 13.905c-0.04575 0.40857-0.0625 0.81934-0.0625 1.2188-0.000003 1.3714 0.49428 2.5072 1.5 3.4062 1.0209 0.88381 2.4527 1.3125 4.2812 1.3125 1.1886 0 2.2259-0.14874 3.125-0.46875 0.89903-0.30476 2.1164-0.74947 3.625-1.3438l0.5-2.0625c-0.25906 0.12192-0.67097 0.26988-1.25 0.4375-0.18875 0.04968-0.35428 0.06168-0.53125 0.09375-0.84103 0.31703-1.762 0.67779-2.3438 0.875-0.899 0.321-1.936 0.47-3.125 0.47-1.828 0-3.26-0.429-4.281-1.312-0.803-0.719-1.278-1.606-1.438-2.626zm-12.125 10.375c-0.78888 2.9258-2.9421 7.2652-8.9688 8.9688 1.4386 0.15635 2.7988 0.17086 4.0938 0.09375 3.9509-2.7354 4.9814-6.8885 5.25-8.8438-0.1292-0.06861-0.24706-0.14871-0.375-0.21875z"/>
    </g>
    <g id="layer5" transform="translate(182.19 996.77)">
     <rect id="rect3171" style="opacity:.1;filter:url(#filter3794-26);stroke:#fff;stroke-linecap:round;stroke-width:.5;fill:url(#linearGradient3224-5)" clip-path="url(#clipPath3613-50)" rx="12" ry="12" height="66" width="66" y="15" x="15"/>
    </g>
   </g>
  </g>
 </g>
</svg>
