<?xml version="1.0" encoding="UTF-8" standalone="no"?>
<!-- Created with Inkscape (http://www.inkscape.org/) -->
<svg id="svg2982" xmlns:rdf="http://www.w3.org/1999/02/22-rdf-syntax-ns#" xmlns="http://www.w3.org/2000/svg" height="96" width="96" version="1.1" xmlns:cc="http://creativecommons.org/ns#" xmlns:xlink="http://www.w3.org/1999/xlink" xmlns:dc="http://purl.org/dc/elements/1.1/">
 <defs id="defs2984">
  <filter id="filter6279" color-interpolation-filters="sRGB">
   <feGaussianBlur id="feGaussianBlur6281" stdDeviation="0.8"/>
  </filter>
  <linearGradient id="linearGradient6043-8" x1="48" gradientUnits="userSpaceOnUse" x2="48" gradientTransform="translate(0 -.0000096172)" y1="1052.4" y2="902.36">
   <stop id="stop4639-6" style="stop-color:#115984" offset="0"/>
   <stop id="stop4641-2" style="stop-color:#5498c5" offset="1"/>
  </linearGradient>
 </defs>
 <metadata id="metadata2987">
  <rdf:RDF>
   <cc:Work rdf:about="">
    <dc:format>image/svg+xml</dc:format>
    <dc:type rdf:resource="http://purl.org/dc/dcmitype/StillImage"/>
    <dc:title/>
   </cc:Work>
  </rdf:RDF>
 </metadata>
 <g id="layer1" transform="translate(0 -956.36)">
  <g id="g21752">
   <rect id="rect9283" style="filter:url(#filter6279)" rx="5" ry="5" height="80" width="80" y="964.36" x="8"/>
   <rect id="rect9285" style="fill:#fff" rx="5" ry="5" height="80" width="80" y="964.36" x="8"/>
   <rect id="rect9285-9" style="fill:url(#linearGradient6043-8)" rx="5" ry="5" height="80" width="80" y="964.36" x="8"/>
   <path id="path3174" style="color:#000000;fill:#fff" d="m48 978.9c-1.7645 0-3.1851 1.4205-3.1851 3.185v16.771l-14.532-8.3856c-1.5281-0.88226-3.4723-0.3586-4.3546 1.1695-0.88226 1.5281-0.35861 3.4723 1.1695 4.3546l14.532 8.3859-14.532 8.3856c-1.5281 0.8822-2.0518 2.8264-1.1695 4.3545 0.88226 1.5282 2.8264 2.0518 4.3546 1.1696l14.532-8.3857v16.771c0 1.7645 1.4205 3.1851 3.1851 3.1851 1.7645 0 3.1851-1.4206 3.1851-3.1851v-16.771l14.532 8.3857c1.5281 0.8822 3.4723 0.3586 4.3546-1.1696 0.88226-1.5281 0.35861-3.4723-1.1695-4.3545l-14.532-8.3856 14.532-8.3859c1.5281-0.88224 2.0518-2.8264 1.1695-4.3546-0.88226-1.5281-2.8264-2.0518-4.3546-1.1695l-14.532 8.3856v-16.771c0-1.7645-1.4205-3.185-3.1851-3.185z"/>
  </g>
 </g>
</svg>
