<?xml version="1.0" encoding="UTF-8" standalone="no"?>
<!-- Created with Inkscape (http://www.inkscape.org/) -->

<svg
   xmlns:dc="http://purl.org/dc/elements/1.1/"
   xmlns:cc="http://creativecommons.org/ns#"
   xmlns:rdf="http://www.w3.org/1999/02/22-rdf-syntax-ns#"
   xmlns:svg="http://www.w3.org/2000/svg"
   xmlns="http://www.w3.org/2000/svg"
   xmlns:xlink="http://www.w3.org/1999/xlink"
   xmlns:sodipodi="http://sodipodi.sourceforge.net/DTD/sodipodi-0.dtd"
   xmlns:inkscape="http://www.inkscape.org/namespaces/inkscape"
   width="96"
   height="96"
   id="svg2"
   version="1.1"
   inkscape:version="0.48.1 r9760"
   sodipodi:docname="gnome-klotski.svg">
  <defs
     id="defs4">
    <filter
       color-interpolation-filters="sRGB"
       inkscape:collect="always"
       id="filter6279-2">
      <feGaussianBlur
         inkscape:collect="always"
         stdDeviation="0.8"
         id="feGaussianBlur6281-1" />
    </filter>
    <linearGradient
       inkscape:collect="always"
       xlink:href="#linearGradient3077-6"
       id="linearGradient5979"
       gradientUnits="userSpaceOnUse"
       gradientTransform="translate(0,-7.8515622e-6)"
       x1="48"
       y1="1052.3622"
       x2="48"
       y2="902.36218" />
    <linearGradient
       id="linearGradient3077-6">
      <stop
         id="stop3079-4"
         style="stop-color:#2a2a2a"
         offset="0" />
      <stop
         id="stop3081-3"
         style="stop-color:#4b4b4b"
         offset="1" />
    </linearGradient>
    <linearGradient
       id="linearGradient3814"
       y2="48"
       xlink:href="#linearGradient3769"
       gradientUnits="userSpaceOnUse"
       x2="48"
       y1="90"
       x1="48" />
    <linearGradient
       id="linearGradient3769">
      <stop
         id="stop3771"
         style="stop-color:#ea880b"
         offset="0" />
      <stop
         id="stop3773"
         style="stop-color:#f7cc2e"
         offset="1" />
    </linearGradient>
    <linearGradient
       id="linearGradient3812"
       y2="48"
       xlink:href="#linearGradient3769"
       gradientUnits="userSpaceOnUse"
       x2="48"
       gradientTransform="translate(42,-42)"
       y1="90"
       x1="48" />
    <linearGradient
       id="linearGradient6012">
      <stop
         id="stop6014"
         style="stop-color:#ea880b"
         offset="0" />
      <stop
         id="stop6016"
         style="stop-color:#f7cc2e"
         offset="1" />
    </linearGradient>
    <linearGradient
       id="linearGradient3858-8"
       y2="48"
       xlink:href="#linearGradient3700-73"
       gradientUnits="userSpaceOnUse"
       x2="48"
       gradientTransform="matrix(0.57143,0,0,0.57143,12.571,-11.429)"
       y1="90"
       x1="48" />
    <linearGradient
       id="linearGradient3700-73">
      <stop
         id="stop3702-350"
         style="stop-color:#1d56a5"
         offset="0" />
      <stop
         id="stop3704-1"
         style="stop-color:#5e97ea"
         offset="1" />
    </linearGradient>
    <linearGradient
       id="linearGradient3860"
       y2="48"
       xlink:href="#linearGradient3700-73"
       gradientUnits="userSpaceOnUse"
       x2="48"
       gradientTransform="matrix(0.57143,0,0,0.57143,52.571,28.571)"
       y1="90"
       x1="48" />
    <linearGradient
       id="linearGradient6023">
      <stop
         id="stop6025"
         style="stop-color:#1d56a5"
         offset="0" />
      <stop
         id="stop6027"
         style="stop-color:#5e97ea"
         offset="1" />
    </linearGradient>
    <linearGradient
       id="linearGradient3783-4"
       y2="69"
       xlink:href="#linearGradient3777-5"
       gradientUnits="userSpaceOnUse"
       x2="38"
       gradientTransform="translate(42,-96)"
       y1="69"
       x1="16" />
    <linearGradient
       id="linearGradient3777-5">
      <stop
         id="stop3779-7"
         style="stop-color:#fff"
         offset="0" />
      <stop
         id="stop3781-0"
         style="stop-color:#fff;stop-opacity:0"
         offset="1" />
    </linearGradient>
    <linearGradient
       id="linearGradient3824"
       y2="69"
       xlink:href="#linearGradient3777-5"
       gradientUnits="userSpaceOnUse"
       x2="38"
       gradientTransform="translate(0,-138)"
       y1="69"
       x1="16" />
    <linearGradient
       id="linearGradient6034">
      <stop
         id="stop6036"
         style="stop-color:#fff"
         offset="0" />
      <stop
         id="stop6038"
         style="stop-color:#fff;stop-opacity:0"
         offset="1" />
    </linearGradient>
    <linearGradient
       id="linearGradient3849"
       y2="72.498001"
       xlink:href="#linearGradient3777-5"
       gradientUnits="userSpaceOnUse"
       x2="40"
       y1="8"
       x1="40" />
    <linearGradient
       id="linearGradient6041">
      <stop
         id="stop6043"
         style="stop-color:#fff"
         offset="0" />
      <stop
         id="stop6045"
         style="stop-color:#fff;stop-opacity:0"
         offset="1" />
    </linearGradient>
    <radialGradient
       id="radialGradient3853"
       xlink:href="#linearGradient3777-5"
       gradientUnits="userSpaceOnUse"
       cy="90.171997"
       cx="48"
       gradientTransform="matrix(1.1573,0,0,0.99591,-7.551,0.19713)"
       r="42" />
    <linearGradient
       id="linearGradient6048">
      <stop
         id="stop6050"
         style="stop-color:#fff"
         offset="0" />
      <stop
         id="stop6052"
         style="stop-color:#fff;stop-opacity:0"
         offset="1" />
    </linearGradient>
    <linearGradient
       id="linearGradient3875-6"
       y2="36.099998"
       xlink:href="#linearGradient3777-5"
       gradientUnits="userSpaceOnUse"
       x2="27"
       y1="16"
       x1="27" />
    <linearGradient
       id="linearGradient6055">
      <stop
         id="stop6057"
         style="stop-color:#fff"
         offset="0" />
      <stop
         id="stop6059"
         style="stop-color:#fff;stop-opacity:0"
         offset="1" />
    </linearGradient>
    <linearGradient
       y2="36.099998"
       x2="27"
       y1="16"
       x1="27"
       gradientTransform="translate(40,40)"
       gradientUnits="userSpaceOnUse"
       id="linearGradient3260"
       xlink:href="#linearGradient3777-5"
       inkscape:collect="always" />
    <linearGradient
       id="linearGradient6062">
      <stop
         id="stop6064"
         style="stop-color:#fff"
         offset="0" />
      <stop
         id="stop6066"
         style="stop-color:#fff;stop-opacity:0"
         offset="1" />
    </linearGradient>
    <linearGradient
       inkscape:collect="always"
       xlink:href="#linearGradient3777-1"
       id="linearGradient9705"
       gradientUnits="userSpaceOnUse"
       x1="48"
       y1="20.221001"
       x2="48"
       y2="138.66" />
    <linearGradient
       id="linearGradient3777-1">
      <stop
         id="stop3779-3"
         style="stop-color:#fff"
         offset="0" />
      <stop
         id="stop3781-7"
         style="stop-color:#fff;stop-opacity:0"
         offset="1" />
    </linearGradient>
    <clipPath
       id="clipPath3613-7">
      <rect
         id="rect3615-63"
         style="fill:#ffffff"
         rx="6"
         ry="6"
         height="84"
         width="84"
         y="6"
         x="6" />
    </clipPath>
    <filter
       id="filter3794-91"
       height="1.3839999"
       width="1.3839999"
       color-interpolation-filters="sRGB"
       y="-0.192"
       x="-0.192">
      <feGaussianBlur
         id="feGaussianBlur3796-04"
         stdDeviation="5.28" />
    </filter>
  </defs>
  <sodipodi:namedview
     id="base"
     pagecolor="#ffffff"
     bordercolor="#666666"
     borderopacity="1.0"
     inkscape:pageopacity="0.0"
     inkscape:pageshadow="2"
     inkscape:zoom="3.959798"
     inkscape:cx="28.389459"
     inkscape:cy="57.490015"
     inkscape:document-units="px"
     inkscape:current-layer="layer1"
     showgrid="false"
     inkscape:window-width="1280"
     inkscape:window-height="725"
     inkscape:window-x="0"
     inkscape:window-y="25"
     inkscape:window-maximized="1" />
  <metadata
     id="metadata7">
    <rdf:RDF>
      <cc:Work
         rdf:about="">
        <dc:format>image/svg+xml</dc:format>
        <dc:type
           rdf:resource="http://purl.org/dc/dcmitype/StillImage" />
        <dc:title></dc:title>
      </cc:Work>
    </rdf:RDF>
  </metadata>
  <g
     inkscape:label="Layer 1"
     inkscape:groupmode="layer"
     id="layer1"
     transform="translate(0,-956.36217)">
    <g
       transform="translate(-182.1875,-40.40626)"
       id="g5968">
      <rect
         transform="translate(182.1875,40.40624)"
         y="964.36218"
         x="8"
         height="80"
         width="80"
         id="rect9283"
         style="fill:#000000;fill-opacity:1;stroke:none;filter:url(#filter6279-2)"
         rx="5"
         ry="5" />
      <rect
         ry="5"
         rx="5"
         style="fill:url(#linearGradient5979);fill-opacity:1;stroke:none"
         id="rect9285"
         width="80"
         height="80"
         x="8"
         y="964.36218"
         transform="translate(182.1875,40.40625)" />
      <g
         id="g9918">
        <g
           transform="matrix(0.6547619,0,0,0.6547619,198.75893,1013.5399)"
           id="g3154">
          <rect
             x="6"
             y="48"
             width="42"
             height="42"
             ry="6"
             rx="6"
             style="fill:url(#linearGradient3814)"
             id="rect2419" />
          <rect
             x="48"
             y="6"
             width="42"
             height="42"
             ry="6"
             rx="6"
             style="fill:url(#linearGradient3812)"
             id="rect2894" />
          <rect
             x="16"
             y="16"
             width="24"
             height="24"
             ry="3"
             rx="3"
             style="fill:url(#linearGradient3858-8)"
             id="rect2898" />
          <rect
             x="56"
             y="56"
             width="24"
             height="24"
             ry="3"
             rx="3"
             style="fill:url(#linearGradient3860)"
             id="rect2902" />
          <rect
             x="58"
             y="-38"
             width="22"
             height="22"
             transform="matrix(0,1,-1,0,0,0)"
             style="opacity:0.4;color:#000000;fill:url(#linearGradient3783-4)"
             id="rect3767" />
          <path
             inkscape:connector-curvature="0"
             d="m 12,48 c -1.662,0 -3.1655,0.6655 -4.25,1.75 L 16,58 h 22 l 8.25,-8.25 C 45.166,48.666 43.662,48 42,48 H 12 z"
             style="opacity:0.15;fill:#ffffff"
             id="path3785" />
          <path
             inkscape:connector-curvature="0"
             d="M 12,90 C 10.338,90 8.8345,89.334 7.75,88.25 L 16,80 h 22 l 8.25,8.25 C 45.166,89.334 43.662,90 42,90 H 12 z"
             style="opacity:0.2;fill:#803300"
             id="path3798" />
          <path
             inkscape:connector-curvature="0"
             d="m 48,84 c 0,1.662 -0.6655,3.1655 -1.75,4.25 L 38,80 V 58 l 8.25,-8.25 C 47.334,50.834 48,52.338 48,54 v 30 z"
             style="opacity:0.1;fill:#803300"
             id="path3810" />
          <rect
             x="16"
             y="-80"
             width="22"
             height="22"
             transform="matrix(0,1,-1,0,0,0)"
             style="opacity:0.4;color:#000000;fill:url(#linearGradient3824)"
             id="rect3816" />
          <path
             inkscape:connector-curvature="0"
             d="M 54,6 C 52.338,6 50.834,6.6655 49.75,7.75 L 58,16 H 80 L 88.25,7.75 C 87.166,6.6655 85.662,6 84,6 H 54 z"
             style="opacity:0.15;fill:#ffffff"
             id="path3818" />
          <path
             inkscape:connector-curvature="0"
             d="m 54,48 c -1.662,0 -3.1655,-0.6655 -4.25,-1.75 L 58,38 h 22 l 8.25,8.25 C 87.166,47.334 85.662,48 84,48 H 54 z"
             style="opacity:0.2;fill:#803300"
             id="path3820" />
          <path
             inkscape:connector-curvature="0"
             d="m 90,42 c 0,1.662 -0.6655,3.1655 -1.75,4.25 L 80,38 V 16 L 88.25,7.75 C 89.334,8.8345 90,10.338 90,12 v 30 z"
             style="opacity:0.1;fill:#803300"
             id="path3822" />
          <path
             inkscape:connector-curvature="0"
             d="m 54,6 c -3.324,0 -6,2.676 -6,6 v 30 c 0,2.4683 1.473,4.5767 3.5938,5.5 -1.615,-0.858 -2.719,-2.526 -2.719,-4.5 V 13 c 0,-2.8525 2.2725,-5.125 5.125,-5.125 h 30 c 2.8525,0 5.125,2.2725 5.125,5.125 v 30 c 0,1.9736 -1.1036,3.6423 -2.7188,4.5 C 88.527,46.577 90,44.468 90,42 V 12 C 90,8.676 87.324,6 84,6 H 54 z M 12,48 c -3.324,0 -6,2.676 -6,6 v 30 c 0,2.4683 1.473,4.5767 3.5938,5.5 C 7.9786,88.642 6.875,86.974 6.875,85 V 55 c 0,-2.8525 2.2725,-5.125 5.125,-5.125 h 30 c 2.8525,0 5.125,2.2725 5.125,5.125 v 30 c 0,1.9736 -1.1036,3.6423 -2.7188,4.5 2.121,-0.923 3.594,-3.032 3.594,-5.5 V 54 c 0,-3.324 -2.676,-6 -6,-6 h -30 z"
             style="opacity:0.4;fill:url(#linearGradient3849)"
             id="rect3826" />
          <path
             inkscape:connector-curvature="0"
             d="M 7,50.688 C 6.3694,51.638 6,52.769 6,54 v 28 2 c 0,3.324 2.676,6 6,6 h 30 c 1.7818,0 3.3717,-0.77457 4.4688,-2 h -32.469 -2 c -2.7818,0 -5,-2.218 -5,-5 V 81 50.688 z"
             style="opacity:0.2;fill:url(#radialGradient3853)"
             id="path3851" />
          <path
             inkscape:connector-curvature="0"
             d="m 19,16 c -1.662,0 -3,1.338 -3,3 v 18 c 0,1.385 0.94722,2.5268 2.2188,2.875 -0.73095,-0.30518 -1.25,-1.0235 -1.25,-1.875 V 20 c 0,-1.1354 0.89586,-2.0312 2.0312,-2.0312 h 18 c 1.1354,0 2.0312,0.89586 2.0312,2.0312 v 18 c 0,0.85154 -0.51905,1.5698 -1.25,1.875 1.272,-0.348 2.219,-1.49 2.219,-2.875 V 19 c 0,-1.662 -1.338,-3 -3,-3 h -18 z"
             style="opacity:0.3;fill:url(#linearGradient3875-6)"
             id="rect3862" />
          <path
             inkscape:connector-curvature="0"
             d="m 59,56 c -1.662,0 -3,1.338 -3,3 v 18 c 0,1.385 0.94722,2.5268 2.2188,2.875 -0.73095,-0.30518 -1.25,-1.0235 -1.25,-1.875 V 60 c 0,-1.1354 0.89586,-2.0312 2.0312,-2.0312 h 18 c 1.1354,0 2.0312,0.89586 2.0312,2.0312 v 18 c 0,0.85154 -0.51905,1.5698 -1.25,1.875 1.272,-0.348 2.219,-1.49 2.219,-2.875 V 59 c 0,-1.662 -1.338,-3 -3,-3 h -18 z"
             style="opacity:0.3;fill:url(#linearGradient3260)"
             id="path3877" />
        </g>
        <rect
           transform="translate(182.1875,996.76843)"
           x="15"
           y="15"
           width="66"
           height="66"
           ry="12"
           rx="12"
           clip-path="url(#clipPath3613-7)"
           style="opacity:0.1;fill:url(#linearGradient9705);stroke:#ffffff;stroke-width:0.5;stroke-linecap:round;filter:url(#filter3794-91)"
           id="rect3171" />
      </g>
    </g>
  </g>
</svg>
