<?xml version="1.0" encoding="UTF-8" standalone="no"?>
<!-- Created with Inkscape (http://www.inkscape.org/) -->

<svg
   xmlns:dc="http://purl.org/dc/elements/1.1/"
   xmlns:cc="http://creativecommons.org/ns#"
   xmlns:rdf="http://www.w3.org/1999/02/22-rdf-syntax-ns#"
   xmlns:svg="http://www.w3.org/2000/svg"
   xmlns="http://www.w3.org/2000/svg"
   xmlns:xlink="http://www.w3.org/1999/xlink"
   xmlns:sodipodi="http://sodipodi.sourceforge.net/DTD/sodipodi-0.dtd"
   xmlns:inkscape="http://www.inkscape.org/namespaces/inkscape"
   width="96"
   height="96"
   id="svg2982"
   version="1.1"
   inkscape:version="0.48.1 r9760"
   sodipodi:docname="templat-ikon-96x96.svg">
  <defs
     id="defs2984">
    <filter
       color-interpolation-filters="sRGB"
       inkscape:collect="always"
       id="filter6279">
      <feGaussianBlur
         inkscape:collect="always"
         stdDeviation="0.8"
         id="feGaussianBlur6281" />
    </filter>
    <linearGradient
       y2="902.36218"
       x2="48"
       y1="1052.3622"
       x1="48"
       gradientTransform="translate(0,-9.6171873e-6)"
       gradientUnits="userSpaceOnUse"
       id="linearGradient6043-5"
       xlink:href="#linearGradient3578-995-735-4-566-885-385-488-812-692-100-298-982-943-2"
       inkscape:collect="always" />
    <linearGradient
       id="linearGradient3578-995-735-4-566-885-385-488-812-692-100-298-982-943-2">
      <stop
         id="stop4639-6"
         style="stop-color:#115984;stop-opacity:1"
         offset="0" />
      <stop
         id="stop4641-4"
         style="stop-color:#5498c5;stop-opacity:1"
         offset="1" />
    </linearGradient>
  </defs>
  <sodipodi:namedview
     id="base"
     pagecolor="#ffffff"
     bordercolor="#666666"
     borderopacity="1.0"
     inkscape:pageopacity="0.0"
     inkscape:pageshadow="2"
     inkscape:zoom="3.959798"
     inkscape:cx="36.39115"
     inkscape:cy="42.877139"
     inkscape:document-units="px"
     inkscape:current-layer="layer1"
     showgrid="false"
     inkscape:window-width="1280"
     inkscape:window-height="725"
     inkscape:window-x="0"
     inkscape:window-y="25"
     inkscape:window-maximized="1" />
  <metadata
     id="metadata2987">
    <rdf:RDF>
      <cc:Work
         rdf:about="">
        <dc:format>image/svg+xml</dc:format>
        <dc:type
           rdf:resource="http://purl.org/dc/dcmitype/StillImage" />
        <dc:title></dc:title>
      </cc:Work>
    </rdf:RDF>
  </metadata>
  <g
     inkscape:label="Layer 1"
     inkscape:groupmode="layer"
     id="layer1"
     transform="translate(0,-956.36218)">
    <g
       id="g21781">
      <g
         id="g26594"
         transform="translate(-182.1875,-40.40625)" />
      <rect
         ry="5"
         rx="5"
         style="fill:#000000;fill-opacity:1;stroke:none;filter:url(#filter6279)"
         id="rect9283"
         width="80"
         height="80"
         x="8"
         y="964.36218" />
      <rect
         y="964.36218"
         x="8"
         height="80"
         width="80"
         id="rect9285"
         style="fill:#ffffff;fill-opacity:1;stroke:none"
         rx="5"
         ry="5" />
      <rect
         ry="5"
         rx="5"
         style="fill:url(#linearGradient6043-5);fill-opacity:1;stroke:none"
         id="rect9285-2"
         width="80"
         height="80"
         x="8"
         y="964.36218" />
      <path
         style="color:#000000;fill:#ffffff;fill-opacity:1;fill-rule:nonzero;stroke:none;stroke-width:2;marker:none;visibility:visible;display:inline;overflow:visible;enable-background:accumulate"
         id="rect3186"
         inkscape:connector-curvature="0"
         d="m 73,1004.3622 c 0,-1.7313 -1.39375,-3.125 -3.125,-3.125 l -7.8125,0 c -1.73125,0 -3.125,1.3937 -3.125,3.125 0,1.7313 1.39375,3.125 3.125,3.125 l 7.8125,0 c 1.73125,0 3.125,-1.3937 3.125,-3.125 z m -6.396484,-15.47855 c 0,-0.79881 -0.315646,-1.58518 -0.927735,-2.19727 -1.224179,-1.22418 -3.194766,-1.22418 -4.418945,0 l -5.517578,5.51758 c -1.224179,1.22422 -1.224179,3.19472 0,4.41892 1.224179,1.2242 3.194766,1.2242 4.418945,0 l 5.517578,-5.51755 c 0.612089,-0.61209 0.927735,-1.42287 0.927735,-2.22168 z m 0,30.95705 c 0,-0.7988 -0.315646,-1.6096 -0.927735,-2.2217 l -5.517578,-5.5176 c -1.224179,-1.2241 -3.194766,-1.2241 -4.418945,0 -1.224179,1.2242 -1.224179,3.1948 0,4.419 l 5.517578,5.5176 c 1.224179,1.2241 3.194766,1.2241 4.418945,0 0.612089,-0.6121 0.927735,-1.3985 0.927735,-2.1973 z M 51.125,982.48716 c 0,-1.73125 -1.39375,-3.125 -3.125,-3.125 -1.73125,0 -3.125,1.39375 -3.125,3.125 l 0,7.8125 c 0,1.73125 1.39375,3.12502 3.125,3.12502 1.73125,0 3.125,-1.39377 3.125,-3.12502 l 0,-7.8125 z m 0,35.93754 c 0,-1.7313 -1.39375,-3.125 -3.125,-3.125 -1.73125,0 -3.125,1.3937 -3.125,3.125 l 0,7.8125 c 0,1.7312 1.39375,3.125 3.125,3.125 1.73125,0 3.125,-1.3938 3.125,-3.125 l 0,-7.8125 z m -9.936523,-23.99902 c 0,-0.7989 -0.315646,-1.60963 -0.927735,-2.22172 l -5.517578,-5.51758 c -1.224179,-1.22418 -3.194766,-1.22418 -4.418945,0 -1.224179,1.22418 -1.224179,3.19477 0,4.41895 l 5.517578,5.51755 c 1.224179,1.2242 3.194766,1.2242 4.418945,0 0.612089,-0.6121 0.927735,-1.3984 0.927735,-2.1972 z m 0,19.87302 c 0,-0.7988 -0.315646,-1.5852 -0.927735,-2.1973 -1.224179,-1.2241 -3.194766,-1.2241 -4.418945,0 l -5.517578,5.5176 c -1.224179,1.2242 -1.224179,3.1948 0,4.419 1.224179,1.2241 3.194766,1.2241 4.418945,0 l 5.517578,-5.5176 c 0.612089,-0.6121 0.927735,-1.4229 0.927735,-2.2217 z m -4.125977,-9.9365 c 0,-1.7313 -1.39375,-3.125 -3.125,-3.125 l -7.8125,0 c -1.73125,0 -3.125,1.3937 -3.125,3.125 0,1.7313 1.39375,3.125 3.125,3.125 l 7.8125,0 c 1.73125,0 3.125,-1.3937 3.125,-3.125 z" />
    </g>
  </g>
</svg>
