<?xml version="1.0" encoding="UTF-8" standalone="no"?>
<!-- Created with Inkscape (http://www.inkscape.org/) -->

<svg
   xmlns:dc="http://purl.org/dc/elements/1.1/"
   xmlns:cc="http://creativecommons.org/ns#"
   xmlns:rdf="http://www.w3.org/1999/02/22-rdf-syntax-ns#"
   xmlns:svg="http://www.w3.org/2000/svg"
   xmlns="http://www.w3.org/2000/svg"
   xmlns:xlink="http://www.w3.org/1999/xlink"
   xmlns:sodipodi="http://sodipodi.sourceforge.net/DTD/sodipodi-0.dtd"
   xmlns:inkscape="http://www.inkscape.org/namespaces/inkscape"
   width="96"
   height="96"
   id="svg2"
   version="1.1"
   inkscape:version="0.48.1 r9760"
   sodipodi:docname="templat-ikon-96x96.svg">
  <defs
     id="defs4">
    <filter
       color-interpolation-filters="sRGB"
       inkscape:collect="always"
       id="filter6279-2">
      <feGaussianBlur
         inkscape:collect="always"
         stdDeviation="0.8"
         id="feGaussianBlur6281-1" />
    </filter>
    <linearGradient
       inkscape:collect="always"
       xlink:href="#linearGradient3708"
       id="linearGradient5979"
       gradientUnits="userSpaceOnUse"
       gradientTransform="translate(0,-7.8515622e-6)"
       x1="48"
       y1="1052.3622"
       x2="48"
       y2="902.36218" />
    <linearGradient
       id="linearGradient3708"
       y2="5.9877"
       gradientUnits="userSpaceOnUse"
       x2="48"
       gradientTransform="matrix(1.0172,0,0,1.0172,-37.060997,5.6810523)"
       y1="90"
       x1="48">
      <stop
         id="stop3189-5"
         style="stop-color:#623b6b"
         offset="0" />
      <stop
         id="stop3191-3"
         style="stop-color:#ad7fa8"
         offset="1" />
    </linearGradient>
    <linearGradient
       inkscape:collect="always"
       xlink:href="#linearGradient3804"
       id="linearGradient6667"
       gradientUnits="userSpaceOnUse"
       gradientTransform="matrix(1.1346864,0,0,1.1346864,203.45532,1018.2845)"
       x1="20.759001"
       y1="1"
       x2="20.759001"
       y2="45.016998" />
    <linearGradient
       id="linearGradient3804"
       y2="45.016998"
       gradientUnits="userSpaceOnUse"
       x2="20.759001"
       gradientTransform="matrix(1.2791,0,0,1.2791,17.302,18.582)"
       y1="1"
       x1="20.759001">
      <stop
         id="stop3311-37"
         style="stop-color:#f6f6f6"
         offset="0" />
      <stop
         id="stop3313-3"
         style="stop-color:#d2d2d2"
         offset="1" />
    </linearGradient>
    <linearGradient
       inkscape:collect="always"
       xlink:href="#linearGradient3806"
       id="linearGradient6669"
       gradientUnits="userSpaceOnUse"
       gradientTransform="matrix(1.1346864,0,0,1.1346864,203.45532,1018.2845)"
       x1="37.201"
       y1="1"
       x2="37.201"
       y2="45" />
    <linearGradient
       id="linearGradient3806"
       y2="45"
       gradientUnits="userSpaceOnUse"
       x2="37.201"
       gradientTransform="matrix(1.2791,0,0,1.2791,17.302,18.582)"
       y1="1"
       x1="37.201">
      <stop
         id="stop3399-2"
         style="stop-color:#aaa"
         offset="0" />
      <stop
         id="stop3401-6"
         style="stop-color:#8c8c8c"
         offset="1" />
    </linearGradient>
    <linearGradient
       inkscape:collect="always"
       xlink:href="#linearGradient3801"
       id="linearGradient6671"
       gradientUnits="userSpaceOnUse"
       gradientTransform="matrix(0.36817207,0,0,0.36817207,207.12436,1021.1862)"
       x1="86.133003"
       y1="105.1"
       x2="84.639"
       y2="20.895" />
    <linearGradient
       id="linearGradient3801"
       y2="20.895"
       gradientUnits="userSpaceOnUse"
       x2="84.639"
       gradientTransform="matrix(0.41503,0,0,0.41503,21.438,21.853)"
       y1="105.1"
       x1="86.133003">
      <stop
         id="stop5130-5"
         style="stop-color:#e5e5e5"
         offset="0" />
      <stop
         id="stop5132-2"
         style="stop-color:#ababab"
         offset="1" />
    </linearGradient>
    <linearGradient
       y2="138.66"
       x2="48"
       y1="20.221001"
       x1="48"
       gradientUnits="userSpaceOnUse"
       id="linearGradient3157-8"
       xlink:href="#linearGradient3737-46"
       inkscape:collect="always" />
    <linearGradient
       id="linearGradient3737-46">
      <stop
         id="stop3739-60"
         style="stop-color:#fff"
         offset="0" />
      <stop
         id="stop3741-258"
         style="stop-color:#fff;stop-opacity:0"
         offset="1" />
    </linearGradient>
    <clipPath
       id="clipPath3613-95">
      <rect
         id="rect3615-06"
         style="fill:#ffffff"
         rx="6"
         ry="6"
         height="84"
         width="84"
         y="6"
         x="6" />
    </clipPath>
    <filter
       id="filter3794-08"
       height="1.3839999"
       width="1.3839999"
       color-interpolation-filters="sRGB"
       y="-0.192"
       x="-0.192">
      <feGaussianBlur
         id="feGaussianBlur3796-37"
         stdDeviation="5.28" />
    </filter>
  </defs>
  <sodipodi:namedview
     id="base"
     pagecolor="#ffffff"
     bordercolor="#666666"
     borderopacity="1.0"
     inkscape:pageopacity="0.0"
     inkscape:pageshadow="2"
     inkscape:zoom="3.959798"
     inkscape:cx="28.389459"
     inkscape:cy="57.490015"
     inkscape:document-units="px"
     inkscape:current-layer="layer1"
     showgrid="false"
     inkscape:window-width="1280"
     inkscape:window-height="725"
     inkscape:window-x="0"
     inkscape:window-y="25"
     inkscape:window-maximized="1" />
  <metadata
     id="metadata7">
    <rdf:RDF>
      <cc:Work
         rdf:about="">
        <dc:format>image/svg+xml</dc:format>
        <dc:type
           rdf:resource="http://purl.org/dc/dcmitype/StillImage" />
        <dc:title></dc:title>
      </cc:Work>
    </rdf:RDF>
  </metadata>
  <g
     inkscape:label="Layer 1"
     inkscape:groupmode="layer"
     id="layer1"
     transform="translate(0,-956.36217)">
    <g
       transform="translate(-182.1875,-40.40626)"
       id="g5832">
      <rect
         transform="translate(182.1875,40.40624)"
         y="964.36218"
         x="8"
         height="80"
         width="80"
         id="rect9283"
         style="fill:#000000;fill-opacity:1;stroke:none;filter:url(#filter6279-2)"
         rx="5"
         ry="5" />
      <rect
         ry="5"
         rx="5"
         style="fill:url(#linearGradient5979);fill-opacity:1;stroke:none"
         id="rect9285"
         width="80"
         height="80"
         x="8"
         y="964.36218"
         transform="translate(182.1875,40.40625)" />
      <g
         id="g6700">
        <g
           id="g6661"
           transform="matrix(1.0467524,0,0,1.0467524,-11.285321,-48.440327)">
          <path
             inkscape:connector-curvature="0"
             id="rect3267"
             style="fill:url(#linearGradient6667);stroke:url(#linearGradient6669);stroke-width:0.88709748;stroke-linejoin:round;display:block"
             d="m 227.31913,1019.986 c -0.96011,0 -1.73747,0.7964 -1.73747,1.7729 v 3.4394 c -1.71662,0.4574 -3.35695,1.1483 -4.85774,2.0211 l -2.44662,-2.4466 c -0.34524,-0.3453 -0.7588,-0.5281 -1.20557,-0.5319 -0.44676,0 -0.90155,0.157 -1.24104,0.4964 l -4.78687,4.7869 c -0.67886,0.6789 -0.65502,1.7561 0.0354,2.4466 l 2.44661,2.4466 c -0.87284,1.5008 -1.56369,3.1411 -2.02107,4.8578 h -3.43946 c -0.97652,0 -1.77286,0.7773 -1.77286,1.7374 v 6.737 c 0,0.9601 0.79642,1.7375 1.77286,1.7375 h 3.43946 c 0.45739,1.7167 1.14825,3.3569 2.02107,4.8577 l -2.44661,2.4466 c -0.69048,0.6905 -0.71432,1.7678 -0.0354,2.4466 l 4.78687,4.7869 c 0.67886,0.6789 1.75609,0.655 2.44661,-0.035 l 2.44662,-2.4467 c 1.50079,0.8729 3.14103,1.5637 4.85774,2.0211 v 3.4395 c 0,0.9765 0.77738,1.7728 1.73747,1.7728 h 6.73697 c 0.96011,0 1.73747,-0.7964 1.73747,-1.7728 v -3.4395 c 1.71663,-0.4574 3.35696,-1.1482 4.85775,-2.0211 l 2.44661,2.4467 c 0.69048,0.6904 1.76772,0.7143 2.44662,0.035 l 4.78687,-4.7869 c 0.67886,-0.6788 0.65501,-1.756 -0.0354,-2.4466 l -2.44662,-2.4466 c 0.87285,-1.5008 1.56369,-3.141 2.02108,-4.8577 h 3.43945 c 0.97643,0 1.77287,-0.7774 1.77287,-1.7375 v -6.737 c 0,-0.9601 -0.79643,-1.7374 -1.77287,-1.7374 h -3.43945 c -0.45597,-1.7157 -1.14702,-3.3559 -2.01992,-4.8569 l 2.44661,-2.4466 c 0.69047,-0.6905 0.71433,-1.7677 0.0354,-2.4466 l -4.78687,-4.7869 c -0.67887,-0.6789 -1.7561,-0.655 -2.44661,0.035 l -2.44662,2.4466 c -1.50079,-0.8729 -3.14103,-1.5637 -4.85774,-2.0211 v -3.4395 c 0,-0.9765 -0.77738,-1.7728 -1.73747,-1.7728 h -6.73698 z m 3.36849,17.0199 c 4.07115,0 7.37524,3.304 7.37524,7.3752 0,4.0711 -3.30409,7.3752 -7.37524,7.3752 -4.07116,0 -7.37524,-3.3041 -7.37524,-7.3752 0,-4.0712 3.30408,-7.3752 7.37524,-7.3752 z" />
          <path
             inkscape:connector-curvature="0"
             id="path28"
             style="fill:none;stroke:url(#linearGradient6671);stroke-width:1.77419496"
             d="m 230.68744,1029.0637 c -8.44623,0 -15.31751,6.8715 -15.31751,15.3175 0,8.4462 6.87154,15.3175 15.31751,15.3175 8.44623,0 15.31751,-6.8716 15.31751,-15.3175 0,-8.4463 -6.87163,-15.3175 -15.31751,-15.3175 z" />
          <path
             inkscape:connector-curvature="0"
             id="path3315"
             style="opacity:0.05"
             d="m 230.68744,1029.6305 c -8.13362,0 -14.75066,6.617 -14.75066,14.7507 0,8.1335 6.61695,14.7506 14.75066,14.7506 8.13362,0 14.75066,-6.6169 14.75066,-14.7506 0,-8.1336 -6.61695,-14.7507 -14.75066,-14.7507 z m 0,6.808 c 4.3843,0 7.94263,3.5582 7.94263,7.9426 0,4.3843 -3.55833,7.9426 -7.94263,7.9426 -4.3843,0 -7.94263,-3.5582 -7.94263,-7.9426 0,-4.3843 3.55833,-7.9426 7.94263,-7.9426 z" />
        </g>
        <g
           transform="translate(182.1875,996.76843)"
           id="layer5">
          <rect
             id="rect3171"
             style="opacity:0.1;fill:url(#linearGradient3157-8);stroke:#ffffff;stroke-width:0.5;stroke-linecap:round;filter:url(#filter3794-08)"
             clip-path="url(#clipPath3613-95)"
             rx="12"
             ry="12"
             height="66"
             width="66"
             y="15"
             x="15" />
        </g>
      </g>
    </g>
  </g>
</svg>
