<?xml version="1.0" encoding="UTF-8" standalone="no"?>
<!-- Created with Inkscape (http://www.inkscape.org/) -->
<svg id="svg2982" xmlns:rdf="http://www.w3.org/1999/02/22-rdf-syntax-ns#" xmlns="http://www.w3.org/2000/svg" height="96" width="96" version="1.1" xmlns:cc="http://creativecommons.org/ns#" xmlns:xlink="http://www.w3.org/1999/xlink" xmlns:dc="http://purl.org/dc/elements/1.1/">
 <defs id="defs2984">
  <filter id="filter6279" color-interpolation-filters="sRGB">
   <feGaussianBlur id="feGaussianBlur6281" stdDeviation="0.8"/>
  </filter>
  <linearGradient id="linearGradient6043-5" x1="48" gradientUnits="userSpaceOnUse" x2="48" gradientTransform="translate(0 -.0000096172)" y1="1052.4" y2="902.36">
   <stop id="stop4639-8" style="stop-color:#115984" offset="0"/>
   <stop id="stop4641-8" style="stop-color:#5498c5" offset="1"/>
  </linearGradient>
 </defs>
 <metadata id="metadata2987">
  <rdf:RDF>
   <cc:Work rdf:about="">
    <dc:format>image/svg+xml</dc:format>
    <dc:type rdf:resource="http://purl.org/dc/dcmitype/StillImage"/>
    <dc:title/>
   </cc:Work>
  </rdf:RDF>
 </metadata>
 <g id="layer1" transform="translate(0 -956.36)">
  <g id="g21868">
   <rect id="rect9283" style="filter:url(#filter6279)" rx="5" ry="5" height="80" width="80" y="964.36" x="8"/>
   <rect id="rect9285" style="fill:#fff" rx="5" ry="5" height="80" width="80" y="964.36" x="8"/>
   <rect id="rect9285-8" style="fill:url(#linearGradient6043-5)" rx="5" ry="5" height="80" width="80" y="964.36" x="8"/>
   <path id="rect4223" style="color:#000000;fill:#fff" d="m48 977.78c-1.9795 0-3.5732 1.5936-3.5732 3.5732v21.439c0 1.9795 1.5936 3.5732 3.5732 3.5732 1.9795 0 3.5732-1.5937 3.5732-3.5732v-21.439c0-1.9796-1.5936-3.5732-3.5732-3.5732zm10.44 6.4206a3.5736 3.5736 0 0 0 -1.5074 6.6997c8.5818 4.9547 11.487 15.816 6.5322 24.398-4.9547 8.5818-15.816 11.487-24.398 6.5322-8.5818-4.9548-11.487-15.816-6.5322-24.398 1.5682-2.7161 3.8161-4.9641 6.5322-6.5322a3.5768 3.5768 0 0 0 -3.5732 -6.1973c-3.8022 2.1952-6.9611 5.3541-9.1563 9.1563-6.8858 11.927-2.7703 27.283 9.1563 34.169 11.927 6.8858 27.283 2.7702 34.169-9.1564 6.8858-11.927 2.7703-27.283-9.1563-34.169a3.5736 3.5736 0 0 0 -2.0658 -0.50248z"/>
  </g>
 </g>
</svg>
