<?xml version="1.0" encoding="UTF-8" standalone="no"?>
<!-- Created with Inkscape (http://www.inkscape.org/) -->
<svg id="svg2" xmlns:rdf="http://www.w3.org/1999/02/22-rdf-syntax-ns#" xmlns="http://www.w3.org/2000/svg" height="96" width="96" version="1.1" xmlns:cc="http://creativecommons.org/ns#" xmlns:xlink="http://www.w3.org/1999/xlink" xmlns:dc="http://purl.org/dc/elements/1.1/">
 <defs id="defs4">
  <filter id="filter6279" color-interpolation-filters="sRGB">
   <feGaussianBlur id="feGaussianBlur6281" stdDeviation="0.8"/>
  </filter>
  <linearGradient id="linearGradient6510" x1="48" xlink:href="#linearGradient3700-2" gradientUnits="userSpaceOnUse" y1="1052.4" gradientTransform="translate(0 -.0000096172)" x2="48" y2="902.36"/>
  <linearGradient id="linearGradient3700-2">
   <stop id="stop3702-178" style="stop-color:#e0e0e0" offset="0"/>
   <stop id="stop3704-57" style="stop-color:#fff" offset="1"/>
  </linearGradient>
  <linearGradient id="linearGradient3112" x1="48" xlink:href="#linearGradient3700-2" gradientUnits="userSpaceOnUse" y1="90" gradientTransform="matrix(1.0909 0 0 1.0909 -4.3636 -4.3636)" x2="48" y2="5.9877"/>
  <radialGradient id="radialGradient3106" gradientUnits="userSpaceOnUse" cy="-6.55" cx="48" gradientTransform="matrix(1.9048 0 0 .625 -43.429 12.094)" r="42">
   <stop id="stop3879" style="stop-color:#f06b59" offset="0"/>
   <stop id="stop3881-4" style="stop-color:#df2227" offset="1"/>
  </radialGradient>
  <radialGradient id="radialGradient3103" gradientUnits="userSpaceOnUse" cy="57.493" cx="80.272" gradientTransform="matrix(0 2.6037 -2.4521 0 198.11 -168.18)" r="21">
   <stop id="stop3906" style="stop-color:#fcd209" offset="0"/>
   <stop id="stop3976" style="stop-color:#f8c80b" offset=".60883"/>
   <stop id="stop3970-1" style="stop-color:#f0bc12" offset=".79731"/>
   <stop id="stop3908" style="stop-color:#d9a027" offset="1"/>
  </radialGradient>
  <radialGradient id="radialGradient3100" gradientUnits="userSpaceOnUse" cy="55.203" cx="30.792" gradientTransform="matrix(0 1.6123 -1.6664 0 132.2 -1.574)" r="30.406">
   <stop id="stop3898" style="stop-color:#4cb848" offset="0"/>
   <stop id="stop3974" style="stop-color:#49b145" offset=".57429"/>
   <stop id="stop3972" style="stop-color:#46aa42" offset=".75"/>
   <stop id="stop3900" style="stop-color:#388c42" offset="1"/>
  </radialGradient>
  <radialGradient id="radialGradient3094" gradientUnits="userSpaceOnUse" cy="37.516" cx="45.438" gradientTransform="matrix(3.1146e-8 2.1111 -3.1667 4.6719e-8 166.8 -64.813)" r="16">
   <stop id="stop3869-59" style="stop-color:#79addd" offset="0"/>
   <stop id="stop3871-7" style="stop-color:#175f9a" offset="1"/>
  </radialGradient>
  <linearGradient id="linearGradient3088" y2="42.517" gradientUnits="userSpaceOnUse" y1="26.065" x2="55.387" x1="49.923">
   <stop id="stop4030-5" style="stop-color:#b2831d" offset="0"/>
   <stop id="stop4032-3" style="stop-color:#b2831d;stop-opacity:0" offset="1"/>
  </linearGradient>
  <linearGradient id="linearGradient3085-8" y2="66.37" gradientUnits="userSpaceOnUse" y1="63.379" x2="39.037" x1="63.781">
   <stop id="stop4038" style="stop-color:#37893d" offset="0"/>
   <stop id="stop4040" style="stop-color:#37893d;stop-opacity:0" offset="1"/>
  </linearGradient>
  <linearGradient id="linearGradient3188-89" y2="30.996" gradientUnits="userSpaceOnUse" x2="36.989" y1="51.935" x1="25.87">
   <stop id="stop4046-3" style="stop-color:#b61316" offset="0"/>
   <stop id="stop4048-1" style="stop-color:#b61316;stop-opacity:0" offset="1"/>
  </linearGradient>
 </defs>
 <metadata id="metadata7">
  <rdf:RDF>
   <cc:Work rdf:about="">
    <dc:format>image/svg+xml</dc:format>
    <dc:type rdf:resource="http://purl.org/dc/dcmitype/StillImage"/>
    <dc:title/>
   </cc:Work>
  </rdf:RDF>
 </metadata>
 <g id="layer1" transform="translate(0 -956.36)">
  <g id="g7385" transform="translate(2.861e-8 -.0000095886)">
   <rect id="rect9283" style="filter:url(#filter6279)" rx="5" ry="5" height="80" width="80" y="964.36" x="8"/>
   <rect id="rect9285" style="fill:url(#linearGradient6510)" rx="5" ry="5" height="80" width="80" y="964.36" x="8"/>
   <g id="g3117" transform="matrix(.65476 0 0 .65476 16.571 972.93)">
    <path id="path4012" style="fill:#dca325" d="m46 16c-3.324 0-6 2.676-6 6v5.5c2.48-0.96874 5.177-1.5 8-1.5 12.15 0 22 9.8497 22 22h20v-32h-44z"/>
    <path id="path3999" style="fill:#3b9342" d="m69.938 49.5c-0.23 3.4467-1.2393 6.67-2.875 9.5-0.08047 0.13923-0.16659 0.26897-0.25 0.40625-3.859 6.351-10.839 10.594-18.813 10.594-2.828 0-5.516-0.529-8-1.5v21.5h32v-36c0-1.8062-0.80762-3.4018-2.0625-4.5z"/>
    <path id="path3989" style="fill:#df2227" d="m6 16v56h28c2.5034 0 4.6293-1.5182 5.5312-3.6875-4.464-1.864-8.194-5.16-10.593-9.312-0.097-0.167-0.189-0.33-0.282-0.5-1.693-3.117-2.656-6.703-2.656-10.5 0-9.327 5.806-17.299 14-20.5v-5.5c0-3.324-2.676-6-6-6h-28z"/>
    <path id="rect3982" style="fill:url(#linearGradient3112)" d="m48 24c-13.255 0-24 10.745-24 24s10.745 24 24 24 24-10.745 24-24-10.745-24-24-24z"/>
    <path id="path3824" style="fill:url(#radialGradient3106)" d="m12 6c-3.324 0-6 2.676-6 6v7.281l22.656 39.219c-1.693-3.117-2.656-6.703-2.656-10.5 0-12.15 9.85-22 22-22h42v-14c0-3.324-2.676-6-6-6h-72z"/>
    <path id="path3847" style="fill:url(#radialGradient3103)" d="m48 26c12.15 0 22 9.8497 22 22 0 4.0043-1.0681 7.7657-2.9375 11-0.08047 0.13923-0.16659 0.26897-0.25 0.40625l-17.656 30.594h34.844c3.324 0 6-2.676 6-6v-58h-42z"/>
    <path id="path3849" style="fill:url(#radialGradient3100)" d="m6 19.281v64.719c0 3.324 2.676 6 6 6h37.156l17.656-30.594c-3.858 6.351-10.838 10.594-18.812 10.594-8.146 0-15.26-4.42-19.062-11-0.097-0.167-0.189-0.33-0.282-0.5l-22.656-39.219z"/>
    <path id="path3822" style="color:#000000;fill:url(#radialGradient3094)" d="m67 48a19 19 0 0 1 -38 0 19 19 0 1 1 38 0z"/>
    <path id="path3929" style="opacity:.65;fill:url(#linearGradient3088)" d="m48 26c6.9455 0 13.124 3.223 17.156 8.25l24.844-6.094v-2.156h-42z"/>
    <path id="path3933" style="opacity:.8;fill:url(#linearGradient3085-8)" d="m66.812 59.406c-3.308 5.445-8.912 9.344-15.468 10.344l-5.9375 20.25h3.75l17.656-30.594z"/>
    <path id="path3935" style="opacity:.89121;fill:url(#linearGradient3188-89)" d="m6 16.312v2.969l22.656 39.219c-1.693-3.117-2.656-6.703-2.656-10.5 0-2.8724 0.56126-5.6095 1.5625-8.125l-21.562-23.563z"/>
   </g>
  </g>
 </g>
</svg>
