<?xml version="1.0" encoding="UTF-8" standalone="no"?>
<!-- Created with Inkscape (http://www.inkscape.org/) -->

<svg
   xmlns:dc="http://purl.org/dc/elements/1.1/"
   xmlns:cc="http://creativecommons.org/ns#"
   xmlns:rdf="http://www.w3.org/1999/02/22-rdf-syntax-ns#"
   xmlns:svg="http://www.w3.org/2000/svg"
   xmlns="http://www.w3.org/2000/svg"
   xmlns:xlink="http://www.w3.org/1999/xlink"
   xmlns:sodipodi="http://sodipodi.sourceforge.net/DTD/sodipodi-0.dtd"
   xmlns:inkscape="http://www.inkscape.org/namespaces/inkscape"
   width="96"
   height="96"
   id="svg2"
   version="1.1"
   inkscape:version="0.48.1 r9760"
   sodipodi:docname="google.svg">
  <defs
     id="defs4">
    <filter
       color-interpolation-filters="sRGB"
       inkscape:collect="always"
       id="filter6279">
      <feGaussianBlur
         inkscape:collect="always"
         stdDeviation="0.8"
         id="feGaussianBlur6281" />
    </filter>
    <linearGradient
       inkscape:collect="always"
       xlink:href="#linearGradient4034"
       id="linearGradient10902-1"
       gradientUnits="userSpaceOnUse"
       gradientTransform="translate(0,-9.6171873e-6)"
       x1="48"
       y1="1052.3622"
       x2="48"
       y2="902.36218" />
    <linearGradient
       id="linearGradient4034">
      <stop
         id="stop4036"
         style="stop-color:#ffffff;stop-opacity:1"
         offset="0" />
      <stop
         id="stop4038"
         style="stop-color:#f0f0f0;stop-opacity:1"
         offset="1" />
    </linearGradient>
    <linearGradient
       inkscape:collect="always"
       xlink:href="#linearGradient3914-83"
       id="linearGradient6882"
       gradientUnits="userSpaceOnUse"
       gradientTransform="matrix(0.65398452,0,0,0.65398452,-1076.1576,198.82889)"
       x1="6"
       y1="48"
       x2="90"
       y2="48" />
    <linearGradient
       id="linearGradient3914-83">
      <stop
         id="stop3916-18"
         style="stop-color:#028537;stop-opacity:1"
         offset="0" />
      <stop
         id="stop3918-96"
         style="stop-color:#03b035;stop-opacity:1"
         offset="1" />
    </linearGradient>
    <linearGradient
       inkscape:collect="always"
       xlink:href="#linearGradient3934"
       id="linearGradient6884"
       gradientUnits="userSpaceOnUse"
       gradientTransform="matrix(0.65398452,0,0,0.65398452,198.82889,1013.3751)"
       x1="23.362806"
       y1="90.200294"
       x2="27.000059"
       y2="62.572609" />
    <linearGradient
       id="linearGradient3934">
      <stop
         id="stop3936-3"
         style="stop-color:#e8ac0c;stop-opacity:1"
         offset="0" />
      <stop
         id="stop3938"
         style="stop-color:#e8db0c;stop-opacity:1"
         offset="1" />
    </linearGradient>
    <linearGradient
       inkscape:collect="always"
       xlink:href="#linearGradient3944"
       id="linearGradient6886"
       gradientUnits="userSpaceOnUse"
       gradientTransform="matrix(0.65398452,0,0,0.65398452,198.82889,1013.3751)"
       x1="69.788139"
       y1="35.460526"
       x2="69.788139"
       y2="5.5467491" />
    <linearGradient
       id="linearGradient3944">
      <stop
         id="stop3946-3"
         style="stop-color:#df1a1a;stop-opacity:1"
         offset="0" />
      <stop
         id="stop3948"
         style="stop-color:#e44848;stop-opacity:1"
         offset="1" />
    </linearGradient>
    <linearGradient
       inkscape:collect="always"
       xlink:href="#linearGradient3924"
       id="linearGradient6888"
       gradientUnits="userSpaceOnUse"
       gradientTransform="matrix(0.65398452,0,0,0.65398452,198.82889,1013.3751)"
       x1="18.07872"
       y1="59.01622"
       x2="18.215158"
       y2="6.6697359" />
    <linearGradient
       id="linearGradient3924">
      <stop
         id="stop3926-8"
         style="stop-color:#005ec0;stop-opacity:1"
         offset="0" />
      <stop
         id="stop3928-6"
         style="stop-color:#0072ea;stop-opacity:1"
         offset="1" />
    </linearGradient>
    <linearGradient
       inkscape:collect="always"
       xlink:href="#linearGradient3737-888"
       id="linearGradient6890"
       gradientUnits="userSpaceOnUse"
       x1="48"
       y1="20.220806"
       x2="48"
       y2="138.66119" />
    <linearGradient
       id="linearGradient3737-888">
      <stop
         id="stop3739-977"
         style="stop-color:#ffffff;stop-opacity:1"
         offset="0" />
      <stop
         id="stop3741-64"
         style="stop-color:#ffffff;stop-opacity:0"
         offset="1" />
    </linearGradient>
    <clipPath
       id="clipPath3613-30">
      <rect
         width="84"
         height="84"
         rx="6"
         ry="6"
         x="6"
         y="6"
         id="rect3615-30"
         style="fill:#ffffff;fill-opacity:1;fill-rule:nonzero;stroke:none" />
    </clipPath>
    <filter
       x="-0.192"
       y="-0.192"
       width="1.3839999"
       height="1.3839999"
       color-interpolation-filters="sRGB"
       id="filter3794-92">
      <feGaussianBlur
         id="feGaussianBlur3796-540"
         stdDeviation="5.28" />
    </filter>
    <linearGradient
       inkscape:collect="always"
       xlink:href="#linearGradient4034"
       id="linearGradient6892"
       gradientUnits="userSpaceOnUse"
       gradientTransform="matrix(0.65398452,0,0,0.65398452,198.82889,1013.3751)"
       x1="24.065893"
       y1="5.1119947"
       x2="24.065893"
       y2="90.059601" />
    <linearGradient
       id="linearGradient6010">
      <stop
         id="stop6012"
         style="stop-color:#ffffff;stop-opacity:1"
         offset="0" />
      <stop
         id="stop6014"
         style="stop-color:#f0f0f0;stop-opacity:1"
         offset="1" />
    </linearGradient>
  </defs>
  <sodipodi:namedview
     id="base"
     pagecolor="#ffffff"
     bordercolor="#666666"
     borderopacity="1.0"
     inkscape:pageopacity="0.0"
     inkscape:pageshadow="2"
     inkscape:zoom="3.959798"
     inkscape:cx="28.389459"
     inkscape:cy="57.490015"
     inkscape:document-units="px"
     inkscape:current-layer="layer1"
     showgrid="false"
     inkscape:window-width="1280"
     inkscape:window-height="725"
     inkscape:window-x="0"
     inkscape:window-y="25"
     inkscape:window-maximized="1" />
  <metadata
     id="metadata7">
    <rdf:RDF>
      <cc:Work
         rdf:about="">
        <dc:format>image/svg+xml</dc:format>
        <dc:type
           rdf:resource="http://purl.org/dc/dcmitype/StillImage" />
        <dc:title></dc:title>
      </cc:Work>
    </rdf:RDF>
  </metadata>
  <g
     inkscape:label="Layer 1"
     inkscape:groupmode="layer"
     id="layer1"
     transform="translate(0,-956.36217)">
    <g
       transform="translate(2.861023e-8,-9.5885773e-6)"
       id="g6903">
      <g
         transform="translate(-182.1875,-40.40625)"
         id="g26594" />
      <rect
         y="964.36218"
         x="8"
         height="80"
         width="80"
         id="rect9283"
         style="fill:#000000;fill-opacity:1;stroke:none;filter:url(#filter6279)"
         rx="5"
         ry="5" />
      <rect
         ry="5"
         rx="5"
         style="fill:url(#linearGradient10902-1);fill-opacity:1;stroke:none"
         id="rect9285"
         width="80"
         height="80"
         x="8"
         y="964.36218" />
      <g
         transform="translate(-182.1875,-40.40625)"
         id="g6105">
        <rect
           style="fill:url(#linearGradient6882);fill-opacity:1;fill-rule:nonzero;stroke:none"
           id="rect2419"
           transform="matrix(0,-1,1,0,0,0)"
           y="202.75279"
           x="-1072.2338"
           ry="3.9893055"
           rx="3.9893055"
           height="54.9347"
           width="54.9347" />
        <path
           style="fill:url(#linearGradient6884);fill-opacity:1"
           id="path3932"
           inkscape:connector-curvature="0"
           d="m 211.2546,1072.2337 c -4.36005,-1.2366 -6.06153,-5.5312 -5.94412,-8.762 0.30949,-8.5163 9.91877,-9.2473 17.3478,-9.7346 3.60073,2.8173 9.36756,5.2399 9.11697,11.1808 -0.16095,3.8158 -0.82162,4.9061 -3.51706,7.3158 -0.19278,0.074 -3.48473,0.01 -7.84781,0 -6.19293,-0.011 -7.84782,0 -9.15578,0 z" />
        <path
           style="fill:url(#linearGradient6886);fill-opacity:1;fill-rule:nonzero;stroke:none"
           id="path3942"
           inkscape:connector-curvature="0"
           d="m 230.07709,1017.299 c 1.96863,2.517 3.86229,5.0119 4.37352,7.9296 0.83241,4.7508 -0.61165,8.7577 -3.3108,11.8943 4.4542,-4.3946 8.90521,-4.714 13.6928,-4.5166 6.85801,0.2828 10.00906,3.0218 12.85489,5.6202 l 0,-17.0036 c 0,-2.1738 -1.75007,-3.9239 -3.92391,-3.9239 l -23.6865,0 z" />
        <path
           style="fill:url(#linearGradient6888);fill-opacity:1"
           id="path3922"
           inkscape:connector-curvature="0"
           d="m 216.87478,1017.299 c -2.5473,5e-4 -2.71275,0.029 -3.80129,0.654 -1.63112,0.9359 -2.78767,2.2346 -3.24949,4.0874 -1.01305,4.0643 -0.14655,8.822 1.59409,12.0578 2.25092,4.1844 5.6706,6.9254 9.62584,6.0903 2.41726,-0.5104 4.48248,-1.9582 5.39537,-3.7604 1.84044,-3.6334 0.87233,-10.4662 -2.22764,-15.1234 -2.34709,-3.5262 -3.69534,-4.0064 -7.33688,-4.0057 z m -14.10803,17.4273 -0.0793,21.1757 c 5.12996,-2.6718 10.74006,-4.0876 17.14411,-4.5094 -1.46589,-2.1892 -2.65364,-4.5105 -1.68974,-8.7313 -7.36297,0.2314 -11.80034,-1.6147 -15.37512,-7.935 z" />
        <g
           transform="matrix(0.65398452,0,0,0.65398452,198.82889,1013.3751)"
           style="display:inline"
           id="layer5">
          <rect
             style="opacity:0.1;fill:url(#linearGradient6890);fill-opacity:1;fill-rule:nonzero;stroke:#ffffff;stroke-width:0.5;stroke-linecap:round;stroke-linejoin:miter;stroke-miterlimit:4;stroke-opacity:1;stroke-dasharray:none;stroke-dashoffset:0;filter:url(#filter3794-92)"
             id="rect3171"
             clip-path="url(#clipPath3613-30)"
             y="15"
             x="15"
             ry="12"
             rx="12"
             height="66"
             width="66" />
        </g>
        <path
           style="fill:url(#linearGradient6892);fill-opacity:1;fill-rule:nonzero;stroke:none"
           id="rect3064-7"
           inkscape:connector-curvature="0"
           d="m 223.6803,1017.2581 c -7.65593,0.013 -17.0036,0.041 -17.0036,0.041 -2.17384,0 -3.9239,1.7501 -3.9239,3.9239 l 0.0205,13.5089 c 3.57477,6.3202 8.00566,8.1609 15.36863,7.9295 -0.9639,4.2208 0.23039,6.5375 1.69628,8.7267 -6.38033,0.4202 -11.97091,1.8435 -17.08538,4.4961 l 0,12.4257 c 0,2.1738 1.75006,3.9239 3.9239,3.9239 l 4.5779,0 c -4.36005,-1.2366 -6.06459,-5.5367 -5.94718,-8.7675 0.30949,-8.5163 9.922,-9.2408 17.35103,-9.728 3.60073,2.8172 9.3655,5.2381 9.11491,11.1791 -0.16095,3.8157 -0.81973,4.9067 -3.51517,7.3164 l 2.61594,0 1.96196,0 c 1.53716,-1.8616 3.25749,-4.1539 4.16915,-6.642 0.66521,-1.9712 0.81258,-4.7865 0.34743,-6.7647 -0.7629,-3.2444 -2.79625,-5.8508 -7.60257,-9.728 -3.85226,-3.1076 -4.27978,-3.7077 -4.0261,-5.5997 0.17078,-1.2738 1.06608,-2.4231 3.35167,-4.3531 3.96157,-3.3643 6.39945,-8.0705 5.37494,-13.9176 -0.51123,-2.9177 -2.40489,-5.4126 -4.37352,-7.9296 l -6.39679,0 z m -6.80552,0.041 c 3.64154,-7e-4 4.98979,0.4795 7.33688,4.0057 3.09997,4.6572 4.06808,11.49 2.22764,15.1234 -0.91289,1.8022 -2.97811,3.25 -5.39537,3.7604 -3.95524,0.8351 -7.37492,-1.9059 -9.62584,-6.0903 -1.74064,-3.2358 -2.60714,-7.9935 -1.59409,-12.0578 0.46182,-1.8528 1.61837,-3.1515 3.24949,-4.0874 1.08854,-0.6246 1.25399,-0.6535 3.80129,-0.654 z" />
      </g>
    </g>
  </g>
</svg>
