<?xml version="1.0" encoding="UTF-8" standalone="no"?>
<!-- Created with Inkscape (http://www.inkscape.org/) -->
<svg id="svg2982" xmlns:rdf="http://www.w3.org/1999/02/22-rdf-syntax-ns#" xmlns="http://www.w3.org/2000/svg" height="96" width="96" version="1.1" xmlns:cc="http://creativecommons.org/ns#" xmlns:xlink="http://www.w3.org/1999/xlink" xmlns:dc="http://purl.org/dc/elements/1.1/">
 <defs id="defs2984">
  <filter id="filter6279-2" color-interpolation-filters="sRGB">
   <feGaussianBlur id="feGaussianBlur6281-1" stdDeviation="0.8"/>
  </filter>
  <linearGradient id="linearGradient9181" x1="48" gradientUnits="userSpaceOnUse" y1="1052.4" gradientTransform="translate(0 -.0000078516)" x2="48" y2="902.36">
   <stop id="stop3702-80" style="stop-color:#53aec2" offset="0"/>
   <stop id="stop3704-21" style="stop-color:#80c3d2" offset="1"/>
  </linearGradient>
  <linearGradient id="linearGradient3135" y2="138.66" gradientUnits="userSpaceOnUse" x2="48" y1="20.221" x1="48">
   <stop id="stop3739-33" style="stop-color:#fff" offset="0"/>
   <stop id="stop3741-37" style="stop-color:#fff;stop-opacity:0" offset="1"/>
  </linearGradient>
  <clipPath id="clipPath3613-32">
   <rect id="rect3615-652" style="fill:#fff" rx="6" ry="6" height="84" width="84" y="6" x="6"/>
  </clipPath>
  <filter id="filter3794-65" width="1.384" y="-.192" x="-.192" height="1.384" color-interpolation-filters="sRGB">
   <feGaussianBlur id="feGaussianBlur3796-8" stdDeviation="5.28"/>
  </filter>
  <radialGradient id="radialGradient3847" gradientUnits="userSpaceOnUse" cy="29" cx="-56" gradientTransform="matrix(1.2571 0 0 .97143 14.4 .82857)" r="17.5">
   <stop id="stop3851" style="stop-color:#e5e5e5" offset="0"/>
   <stop id="stop3853-5" style="stop-color:#fff" offset="1"/>
  </radialGradient>
  <radialGradient id="radialGradient3839" xlink:href="#linearGradient3833" gradientUnits="userSpaceOnUse" cy="30.722" cx="-67.361" gradientTransform="matrix(1.2778 -1.5934e-8 1.3856e-8 1.1111 18.711 -3.4136)" r="17.5"/>
  <linearGradient id="linearGradient3833">
   <stop id="stop3835" style="stop-color:#d9d9d9" offset="0"/>
   <stop id="stop3837" style="stop-color:#fff" offset="1"/>
  </linearGradient>
  <radialGradient id="radialGradient3857" xlink:href="#linearGradient3833" gradientUnits="userSpaceOnUse" cy="31.597" cx="-69.644" gradientTransform="matrix(1.2778 -1.5934e-8 1.3856e-8 1.1111 18.711 -3.4136)" r="17.5"/>
  <clipPath id="clipPath4882">
   <path id="path4884" style="fill:#f0f" d="m44 58v-16l13 8z"/>
  </clipPath>
  <filter id="filter4890" color-interpolation-filters="sRGB">
   <feGaussianBlur id="feGaussianBlur4892" stdDeviation="0.2175"/>
  </filter>
 </defs>
 <metadata id="metadata2987">
  <rdf:RDF>
   <cc:Work rdf:about="">
    <dc:format>image/svg+xml</dc:format>
    <dc:type rdf:resource="http://purl.org/dc/dcmitype/StillImage"/>
    <dc:title/>
   </cc:Work>
  </rdf:RDF>
 </metadata>
 <g id="layer1" transform="translate(0 -956.36)">
  <g id="g6917">
   <rect id="rect9283" ry="5" style="filter:url(#filter6279-2)" rx="5" transform="translate(0 -.0000078516)" height="80" width="80" y="964.36" x="8"/>
   <rect id="rect9285" style="fill:url(#linearGradient9181)" rx="5" ry="5" height="80" width="80" y="964.36" x="8"/>
   <g id="layer5" transform="translate(0 956.36)">
    <rect id="rect3171" style="opacity:.1;filter:url(#filter3794-65);stroke:#fff;stroke-linecap:round;stroke-width:.5;fill:url(#linearGradient3135)" clip-path="url(#clipPath3613-32)" rx="12" ry="12" height="66" width="66" y="15" x="15"/>
   </g>
   <g id="g3067" transform="matrix(.71622 0 0 .71622 12.905 970.58)">
    <rect id="rect3869" style="opacity:.3;color:#000000" rx="18" ry="4" height="8" width="58" y="65" x="20"/>
    <rect id="rect3831" style="color:#000000;fill:#fff" height="14" width="36" y="56" x="31"/>
    <path id="path3823" style="color:#000000;fill:url(#radialGradient3847)" transform="translate(110,1)" d="m-45 38.5a17.5 17.5 0 1 1 -35 0 17.5 17.5 0 1 1 35 0z"/>
    <path id="path3825" style="color:#000000;fill:url(#radialGradient3839)" transform="matrix(1.0286 0 0 1.0286 94.286 12.4)" d="m-45 38.5a17.5 17.5 0 1 1 -35 0 17.5 17.5 0 1 1 35 0z"/>
    <path id="path3855" style="color:#000000;fill:url(#radialGradient3857)" transform="matrix(-1.0286 0 0 1.0286 3.7143 12.4)" d="m-45 38.5a17.5 17.5 0 1 1 -35 0 17.5 17.5 0 1 1 35 0z"/>
    <path id="path4872" style="fill:#fff" d="m43.844 41.031a0.9791 0.9791 0 0 0 -0.813 0.969v16a0.9791 0.9791 0 0 0 1.469 0.844l13-8a0.9791 0.9791 0 0 0 0 -1.6875l-13-8a0.9791 0.9791 0 0 0 -0.65625 -0.125z"/>
    <path id="path4868" style="fill:#f5954e" d="m44 58v-16l13 8z"/>
    <path id="path4874" d="m44 58v-16l13 8z" style="opacity:.4;filter:url(#filter4890);stroke:#000;fill:none" clip-path="url(#clipPath4882)"/>
   </g>
  </g>
 </g>
</svg>
