<?xml version="1.0" encoding="UTF-8" standalone="no"?>
<!-- Created with Inkscape (http://www.inkscape.org/) -->
<svg id="svg2" xmlns:rdf="http://www.w3.org/1999/02/22-rdf-syntax-ns#" xmlns="http://www.w3.org/2000/svg" height="96" width="96" version="1.1" xmlns:cc="http://creativecommons.org/ns#" xmlns:xlink="http://www.w3.org/1999/xlink" xmlns:dc="http://purl.org/dc/elements/1.1/">
 <defs id="defs4">
  <filter id="filter6279-2" color-interpolation-filters="sRGB">
   <feGaussianBlur id="feGaussianBlur6281-1" stdDeviation="0.8"/>
  </filter>
  <linearGradient id="linearGradient5979" x1="48" gradientUnits="userSpaceOnUse" y1="1052.4" gradientTransform="translate(0 -.0000078516)" x2="48" y2="902.36">
   <stop id="stop3678-7" style="stop-color:#abc669" offset="0"/>
   <stop id="stop3680" style="stop-color:#abc622" offset="1"/>
  </linearGradient>
  <linearGradient id="linearGradient6685" y2="138.66" gradientUnits="userSpaceOnUse" y1="20.221" x2="48" x1="48">
   <stop id="stop3739-01" style="stop-color:#fff" offset="0"/>
   <stop id="stop3741-37" style="stop-color:#fff;stop-opacity:0" offset="1"/>
  </linearGradient>
  <clipPath id="clipPath3613-7">
   <rect id="rect3615-26" style="fill:#fff" rx="6" ry="6" height="84" width="84" y="6" x="6"/>
  </clipPath>
  <filter id="filter3794-45" height="1.384" width="1.384" y="-.192" x="-.192" color-interpolation-filters="sRGB">
   <feGaussianBlur id="feGaussianBlur3796-2" stdDeviation="5.28"/>
  </filter>
  <linearGradient id="linearGradient6687" x1="48" gradientUnits="userSpaceOnUse" y1="8" gradientTransform="translate(77.687 986.52)" x2="48" y2="80">
   <stop id="stop3846-0" style="stop-color:#9cbc4d" offset="0"/>
   <stop id="stop3848-2" style="stop-color:#869b1b" offset="1"/>
  </linearGradient>
 </defs>
 <metadata id="metadata7">
  <rdf:RDF>
   <cc:Work rdf:about="">
    <dc:format>image/svg+xml</dc:format>
    <dc:type rdf:resource="http://purl.org/dc/dcmitype/StillImage"/>
    <dc:title/>
   </cc:Work>
  </rdf:RDF>
 </metadata>
 <g id="layer1" transform="translate(0 -956.36)">
  <g id="g6700" transform="translate(2.861e-8 -.0000097370)">
   <rect id="rect9283" ry="5" style="filter:url(#filter6279-2)" rx="5" transform="translate(0 -.0000078516)" height="80" width="80" y="964.36" x="8"/>
   <rect id="rect9285" style="fill:url(#linearGradient5979)" rx="5" ry="5" height="80" width="80" y="964.36" x="8"/>
   <g id="g26594" transform="translate(-182.19 -40.406)">
    <g id="g6689">
     <g id="g6674" transform="matrix(.68881 0 0 .68881 142.18 333.19)">
      <g id="layer5" transform="translate(77.687 986.52)">
       <rect id="rect3171" style="opacity:.1;filter:url(#filter3794-45);stroke:#fff;stroke-linecap:round;stroke-width:.5;fill:url(#linearGradient6685)" clip-path="url(#clipPath3613-7)" rx="12" ry="12" height="66" width="66" y="15" x="15"/>
      </g>
      <path id="path3749" style="color:#000000;fill:url(#linearGradient6687)" d="m133.53 995.71c-24.207 0-43.844 16.532-43.844 36.938 1.151-15.39 14.996-27.532 31.906-27.532 17.664 0 32 13.236 32 29.594 0 16.357-14.336 29.625-32 29.625-7.9875 0-15.27-2.7043-20.875-7.1875 8.0295 7.6327 19.758 12.438 32.812 12.438 13.817 0 26.123-5.391 34.157-13.814v-46.25c-8.034-8.418-20.338-13.812-34.156-13.812zm-18.282 15.812c-13.482 0-24.406 10.259-24.406 22.906 0 12.648 10.925 22.875 24.406 22.875 13.482 0 24.438-10.227 24.438-22.875 0-12.647-10.956-22.906-24.438-22.906zm0 4.375c11.188 0 20.281 8.312 20.281 18.531s-9.093 18.5-20.281 18.5-20.25-8.2808-20.25-18.5 9.0617-18.531 20.25-18.531zm-1.687 7.875c-6.534 0-11.844 4.7834-11.844 10.656 0 5.8729 5.3097 10.625 11.844 10.625 6.534 0 11.812-4.7521 11.812-10.625 0.001-5.873-5.278-10.656-11.812-10.656zm0 3.1875c4.5779 0 8.2812 3.3541 8.2812 7.4688s-3.7034 7.4375-8.2812 7.4375c-4.5779 0-8.3125-3.3228-8.3125-7.4375s3.7346-7.4688 8.3125-7.4688z"/>
      <path id="path3796" style="opacity:.2;color:#000000" d="m133.53 995.71c-24.207 0-43.844 16.532-43.844 36.938 0.01098-0.1469 0.04921-0.2912 0.0625-0.4375 0.89584-19.739 20.145-35.5 43.781-35.5 13.818 0 26.122 5.394 34.156 13.812v-1c-8.034-8.418-20.338-13.812-34.156-13.812zm-18.282 15.812c-13.482 0-24.406 10.259-24.406 22.906 0 0.1663-0.0038 0.3346 0 0.5 0.282-12.418 11.102-22.406 24.406-22.406 13.305 0 24.155 9.988 24.438 22.406 0.004-0.1654 0-0.3337 0-0.5 0-12.647-10.956-22.906-24.438-22.906zm-1.687 12.25c-6.534 0-11.844 4.7834-11.844 10.656 0 0.1679 0.0227 0.3341 0.0312 0.5 0.292-5.641 5.466-10.156 11.813-10.156 6.3473 0 11.491 4.5147 11.781 10.156 0.008-0.1659 0.0312-0.3321 0.0312-0.5 0.001-5.873-5.278-10.656-11.812-10.656zm-18.531 11.156c-0.005 0.1694-0.03125 0.3295-0.03125 0.5 0 10.219 9.0617 18.5 20.25 18.5s20.281-8.2808 20.281-18.5c0-0.1705-0.0262-0.3306-0.0312-0.5-0.29642 9.9834-9.2484 18-20.25 18s-19.923-8.0166-20.219-18zm10.25 0c-0.0128 0.1688-0.0312 0.3284-0.0312 0.5 0 4.1147 3.7346 7.4375 8.3125 7.4375s8.2812-3.3228 8.2812-7.4375c0-0.1716-0.0186-0.3312-0.0312-0.5-0.29129 3.8756-3.863 6.9375-8.25 6.9375s-7.9876-3.0619-8.2812-6.9375zm48.312 0.2813c-0.28834 16.127-14.516 29.125-32 29.125-7.9875 0-15.27-2.7043-20.875-7.1875 1.9485 1.8522 4.1185 3.5404 6.4688 5.0312 4.3273 2.0289 9.2173 3.1562 14.406 3.1562 17.664 0 32-13.268 32-29.625 0-0.1669 0.003-0.3339 0-0.5z"/>
      <path id="path3798" style="opacity:.4;color:#000000;fill:#fff" d="m121.59 1005.1c-16.748 0-30.465 11.914-31.844 27.094-0.021 0.476-0.062 0.956-0.062 1.437 1.151-15.389 14.996-27.531 31.906-27.531 17.484 0 31.712 12.967 32 29.094 0.003-0.1662 0-0.3332 0-0.5 0-16.357-14.336-29.594-32-29.594zm-6.344 10.781c-11.188 0-20.25 8.312-20.25 18.531 0 0.1705 0.02624 0.3306 0.03125 0.5 0.296-9.984 9.218-18.031 20.219-18.031 11.002 0 19.954 8.0469 20.25 18.031 0.005-0.1694 0.0312-0.3295 0.0312-0.5 0.001-10.219-9.092-18.531-20.281-18.531zm-1.687 11.063c-4.5779 0-8.3125 3.3541-8.3125 7.4688 0 0.1716 0.0185 0.3313 0.0312 0.5 0.29368-3.8779 3.8943-6.9688 8.2812-6.9688 4.387 0 7.9587 3.0908 8.25 6.9688 0.0127-0.1687 0.0312-0.3284 0.0312-0.5 0-4.1147-3.7034-7.4688-8.2812-7.4688zm-22.719 7.9688c-0.0038 0.1655 0 0.3337 0 0.5 0 12.648 10.925 22.875 24.406 22.875 13.482 0 24.438-10.227 24.438-22.875 0-0.1663 0.004-0.3345 0-0.5-0.28288 12.417-11.133 22.375-24.438 22.375-13.304 0-24.124-9.9579-24.406-22.375zm10.906 0c-0.009 0.166-0.0312 0.3322-0.0312 0.5 0 5.8729 5.3097 10.625 11.844 10.625 6.534 0 11.812-4.7521 11.812-10.625 0-0.1678-0.0227-0.334-0.0312-0.5-0.2899 5.6399-5.434 10.125-11.781 10.125-6.3473 0-11.521-4.4851-11.812-10.125zm65.938 20.843c-8.034 8.423-20.34 13.812-34.156 13.812-9.887 0-19.009-2.753-26.344-7.406-2.334-1.094-4.505-2.46-6.469-4.031 8.03 7.633 19.759 12.437 32.813 12.437 13.816 0 26.122-5.389 34.156-13.812v-1z"/>
      <path id="path3821" style="opacity:.05;color:#000000" d="m133.53 995.71c-24.207 0-43.844 16.532-43.844 36.938 1.151-15.39 14.996-27.532 31.906-27.532 17.664 0 32 13.236 32 29.594 0 16.357-14.336 29.625-32 29.625-7.9875 0-15.27-2.7043-20.875-7.1875 8.0295 7.6327 19.758 12.438 32.812 12.438 13.817 0 26.123-5.391 34.157-13.814v-3.5l-2.8125 2.125v0.094c-7.47 7.412-18.665 12.281-31.344 12.281-1.5341 0-2.9796-0.2695-4.4688-0.4063 15.541-3.1913 27.344-16.072 27.344-31.656 0-18.006-15.739-32.406-34.812-32.406-3.2757 0-6.3907 0.5495-9.4062 1.3438 6.205-3.171 13.453-5.126 21.343-5.126 12.574 0 23.687 4.789 31.156 12.094v-0.094l3 3v-4c-8.034-8.418-20.338-13.812-34.156-13.812zm-18.282 15.812c-13.482 0-24.406 10.259-24.406 22.906 0 12.648 10.925 22.875 24.406 22.875 13.482 0 24.438-10.227 24.438-22.875 0-12.647-10.956-22.906-24.438-22.906zm0 4.375c11.188 0 20.281 8.312 20.281 18.531s-9.093 18.5-20.281 18.5-20.25-8.2808-20.25-18.5 9.0617-18.531 20.25-18.531zm-1.687 7.875c-6.534 0-11.844 4.7834-11.844 10.656 0 5.8729 5.3097 10.625 11.844 10.625 6.534 0 11.812-4.7521 11.812-10.625 0.001-5.873-5.278-10.656-11.812-10.656zm0 3.1875c4.5779 0 8.2812 3.3541 8.2812 7.4688s-3.7034 7.4375-8.2812 7.4375c-4.5779 0-8.3125-3.3228-8.3125-7.4375s3.7346-7.4688 8.3125-7.4688z"/>
      <path id="path3807" style="opacity:.15;color:#000000" d="m133.53 995.71c-24.207 0-43.844 16.532-43.844 36.938 1.151-15.39 14.996-27.532 31.906-27.532 17.664 0 32 13.236 32 29.594 0 16.357-14.336 29.625-32 29.625-7.9875 0-15.27-2.7043-20.875-7.1875 8.0295 7.6327 19.758 12.438 32.812 12.438 13.817 0 26.123-5.391 34.157-13.814v-0.812l-3 2.562v-0.094c-7.814 6.929-18.857 11.282-31.156 11.282-7.7224 0-14.837-1.8558-21.094-4.8438 2.9179 0.7887 5.9626 1.3438 9.1562 1.3438 18.095 0 32.875-13.64 32.875-30.5s-14.781-30.469-32.875-30.469c-10.744 0-20.283 4.8234-26.281 12.25 7.072-11.739 21.408-19.907 38.219-19.907 12.301 0 23.342 4.355 31.156 11.282v-0.344l1.75 2c0.11962 0.1199 0.25722 0.2226 0.375 0.3438v0.062l0.875 1v-1.4061c-8.034-8.418-20.338-13.812-34.156-13.812zm-18.282 15.812c-13.482 0-24.406 10.259-24.406 22.906 0 12.648 10.925 22.875 24.406 22.875 13.482 0 24.438-10.227 24.438-22.875 0-12.647-10.956-22.906-24.438-22.906zm0 0.875c13.045 0 23.562 9.8808 23.562 22.031s-10.516 22-23.562 22-23.531-9.8482-23.531-22 10.486-22.031 23.531-22.031zm0 2.625c-11.615 0-21.125 8.6782-21.125 19.406s9.512 19.375 21.125 19.375 21.156-8.6452 21.156-19.375c0.001-10.73-9.541-19.406-21.156-19.406zm0 0.875c11.188 0 20.281 8.312 20.281 18.531s-9.093 18.5-20.281 18.5-20.25-8.2808-20.25-18.5 9.0617-18.531 20.25-18.531zm-1.687 7.875c-6.534 0-11.844 4.7834-11.844 10.656 0 5.8729 5.3097 10.625 11.844 10.625 6.534 0 11.812-4.7521 11.812-10.625 0.001-5.873-5.278-10.656-11.812-10.656zm0 0.875c6.1139 0 10.938 4.4242 10.938 9.7812 0 5.3571-4.8208 9.75-10.938 9.75-6.1167 0-10.969-4.396-10.969-9.75s4.8548-9.7812 10.969-9.7812zm0 1.4375c-4.9983 0-9.1875 3.7082-9.1875 8.3438 0 4.6355 4.1931 8.3125 9.1875 8.3125s9.1562-3.6814 9.1562-8.3125-4.1579-8.3438-9.1562-8.3438zm0 0.875c4.5779 0 8.2812 3.3541 8.2812 7.4688s-3.7034 7.4375-8.2812 7.4375c-4.5779 0-8.3125-3.3228-8.3125-7.4375s3.7346-7.4688 8.3125-7.4688z"/>
      <path id="path3814" style="opacity:.1;color:#000000" d="m133.53 995.71c-24.207 0-43.844 16.532-43.844 36.938 1.151-15.39 14.996-27.532 31.906-27.532 17.664 0 32 13.236 32 29.594 0 16.357-14.336 29.625-32 29.625-7.9875 0-15.27-2.7043-20.875-7.1875 8.0295 7.6327 19.758 12.438 32.812 12.438 13.817 0 26.123-5.391 34.157-13.814v-2.5938l-1.9375 1.5v0.1875c-7.645 7.73-19.177 12.781-32.218 12.781-3.9253 0-7.6517-0.5949-11.25-1.4375 18.315-0.3489 33.25-14.23 33.25-31.5 0-17.491-15.305-31.531-33.938-31.531-6.3781 0-12.322 1.6975-17.438 4.5625 7.538-6.214 17.862-10.094 29.376-10.094 13.043 0 24.573 5.0544 32.219 12.781v0.2188l1.9375 2v-3.125c-8.034-8.418-20.338-13.812-34.156-13.812zm-18.282 15.812c-13.482 0-24.406 10.259-24.406 22.906 0 12.648 10.925 22.875 24.406 22.875 13.482 0 24.438-10.227 24.438-22.875 0-12.647-10.956-22.906-24.438-22.906zm0 1.9375c12.498 0 22.5 9.4412 22.5 20.969s-9.9991 20.938-22.5 20.938-22.469-9.4068-22.469-20.938 9.9709-20.969 22.469-20.969zm0 0.5c-12.149 0-22.188 9.103-22.188 20.469s10.042 20.438 22.188 20.438c12.145 0 22.219-9.0678 22.219-20.438s-10.07-20.469-22.219-20.469zm0 1.9375c11.188 0 20.281 8.312 20.281 18.531s-9.093 18.5-20.281 18.5-20.25-8.2808-20.25-18.5 9.0617-18.531 20.25-18.531zm-1.687 7.874c-6.534 0-11.844 4.7834-11.844 10.656 0 5.8729 5.3097 10.625 11.844 10.625 6.534 0 11.812-4.7521 11.812-10.625 0.001-5.873-5.278-10.656-11.812-10.656zm0 3.1875c4.5779 0 8.2812 3.3541 8.2812 7.4688s-3.7034 7.4375-8.2812 7.4375c-4.5779 0-8.3125-3.3228-8.3125-7.4375s3.7346-7.4688 8.3125-7.4688z"/>
     </g>
    </g>
   </g>
  </g>
 </g>
</svg>
