<?xml version="1.0" encoding="UTF-8" standalone="no"?>
<!-- Created with Inkscape (http://www.inkscape.org/) -->

<svg
   xmlns:dc="http://purl.org/dc/elements/1.1/"
   xmlns:cc="http://creativecommons.org/ns#"
   xmlns:rdf="http://www.w3.org/1999/02/22-rdf-syntax-ns#"
   xmlns:svg="http://www.w3.org/2000/svg"
   xmlns="http://www.w3.org/2000/svg"
   xmlns:xlink="http://www.w3.org/1999/xlink"
   xmlns:sodipodi="http://sodipodi.sourceforge.net/DTD/sodipodi-0.dtd"
   xmlns:inkscape="http://www.inkscape.org/namespaces/inkscape"
   width="96"
   height="96"
   id="svg2"
   version="1.1"
   inkscape:version="0.48.1 r9760"
   sodipodi:docname="inkscape.svg">
  <defs
     id="defs4">
    <filter
       color-interpolation-filters="sRGB"
       inkscape:collect="always"
       id="filter6279">
      <feGaussianBlur
         inkscape:collect="always"
         stdDeviation="0.8"
         id="feGaussianBlur6281" />
    </filter>
    <linearGradient
       inkscape:collect="always"
       xlink:href="#linearGradient3187"
       id="linearGradient10902-1"
       gradientUnits="userSpaceOnUse"
       gradientTransform="translate(0,-9.6171873e-6)"
       x1="48"
       y1="1052.3622"
       x2="48"
       y2="902.36218" />
    <linearGradient
       id="linearGradient3187">
      <stop
         id="stop3189-98"
         style="stop-color:#bd9c5b;stop-opacity:1"
         offset="0" />
      <stop
         id="stop3191-7"
         style="stop-color:#fadd96;stop-opacity:1"
         offset="1" />
    </linearGradient>
    <linearGradient
       inkscape:collect="always"
       xlink:href="#linearGradient3599"
       id="linearGradient8042"
       gradientUnits="userSpaceOnUse"
       gradientTransform="matrix(0.7669902,0,0,0.7669902,-0.8145051,-3.739269)"
       x1="66.300034"
       y1="62.345222"
       x2="83.323959"
       y2="117.09522" />
    <linearGradient
       id="linearGradient3599">
      <stop
         id="stop3601"
         style="stop-color:#000000;stop-opacity:0.41960785"
         offset="0" />
      <stop
         id="stop3603"
         style="stop-color:#98713b;stop-opacity:0"
         offset="1" />
    </linearGradient>
    <linearGradient
       inkscape:collect="always"
       xlink:href="#linearGradient3599"
       id="linearGradient8044"
       gradientUnits="userSpaceOnUse"
       gradientTransform="matrix(0.7669902,0,0,0.7669902,-0.8145051,-3.739269)"
       x1="41.530895"
       y1="65.389084"
       x2="62.394035"
       y2="68.389084" />
    <linearGradient
       id="linearGradient6455">
      <stop
         id="stop6457"
         style="stop-color:#000000;stop-opacity:0.41960785"
         offset="0" />
      <stop
         id="stop6459"
         style="stop-color:#98713b;stop-opacity:0"
         offset="1" />
    </linearGradient>
    <linearGradient
       inkscape:collect="always"
       xlink:href="#linearGradient3581"
       id="linearGradient8046"
       gradientUnits="userSpaceOnUse"
       gradientTransform="matrix(0.7669902,0,0,0.7669902,-0.8145051,-3.739269)"
       x1="59.710438"
       y1="23.204762"
       x2="74.153046"
       y2="43.247578" />
    <linearGradient
       id="linearGradient3581">
      <stop
         id="stop3583"
         style="stop-color:#ffffff;stop-opacity:1"
         offset="0" />
      <stop
         id="stop3585"
         style="stop-color:#ffffff;stop-opacity:0"
         offset="1" />
    </linearGradient>
    <linearGradient
       inkscape:collect="always"
       xlink:href="#linearGradient3599"
       id="linearGradient8048"
       gradientUnits="userSpaceOnUse"
       gradientTransform="matrix(0.7669902,0,0,0.7669902,-0.8145051,-3.739269)"
       x1="62.75"
       y1="96.26342"
       x2="49"
       y2="82.75" />
    <linearGradient
       id="linearGradient6466">
      <stop
         id="stop6468"
         style="stop-color:#000000;stop-opacity:0.41960785"
         offset="0" />
      <stop
         id="stop6470"
         style="stop-color:#98713b;stop-opacity:0"
         offset="1" />
    </linearGradient>
    <linearGradient
       inkscape:collect="always"
       xlink:href="#linearGradient3599"
       id="linearGradient8050"
       gradientUnits="userSpaceOnUse"
       gradientTransform="matrix(0.3856985,0.7985247,0.8841857,-0.1651513,-36.612561,11.165888)"
       x1="62.75"
       y1="96.26342"
       x2="49"
       y2="82.75" />
    <linearGradient
       id="linearGradient6473">
      <stop
         id="stop6475"
         style="stop-color:#000000;stop-opacity:0.41960785"
         offset="0" />
      <stop
         id="stop6477"
         style="stop-color:#98713b;stop-opacity:0"
         offset="1" />
    </linearGradient>
    <linearGradient
       inkscape:collect="always"
       xlink:href="#linearGradient3674-5"
       id="linearGradient8052"
       gradientUnits="userSpaceOnUse"
       gradientTransform="matrix(0.9321948,-0.361957,0.361957,0.9321948,-40.79504,-6.6951772)"
       x1="57.900513"
       y1="106.70871"
       x2="114.43932"
       y2="49.359089" />
    <linearGradient
       id="linearGradient3674-5">
      <stop
         id="stop3676-2"
         style="stop-color:#000000;stop-opacity:1"
         offset="0" />
      <stop
         id="stop3678-0"
         style="stop-color:#000000;stop-opacity:0"
         offset="1" />
    </linearGradient>
    <filter
       color-interpolation-filters="sRGB"
       id="filter3751">
      <feGaussianBlur
         id="feGaussianBlur3753"
         stdDeviation="0.79380238" />
    </filter>
    <linearGradient
       inkscape:collect="always"
       xlink:href="#linearGradient3581"
       id="linearGradient8054"
       gradientUnits="userSpaceOnUse"
       gradientTransform="matrix(1,0,0,1.1160733,0.0625,-9.9986727)"
       x1="144.82578"
       y1="95.798721"
       x2="144.82578"
       y2="108.34345" />
    <linearGradient
       id="linearGradient6486">
      <stop
         id="stop6488"
         style="stop-color:#ffffff;stop-opacity:1"
         offset="0" />
      <stop
         id="stop6490"
         style="stop-color:#ffffff;stop-opacity:0"
         offset="1" />
    </linearGradient>
    <linearGradient
       inkscape:collect="always"
       xlink:href="#linearGradient3581"
       id="linearGradient8056"
       gradientUnits="userSpaceOnUse"
       gradientTransform="matrix(-1,0,0,1.1160733,289.71406,-9.9986727)"
       x1="144.82578"
       y1="95.798721"
       x2="144.82578"
       y2="108.34345" />
    <linearGradient
       id="linearGradient6493">
      <stop
         id="stop6495"
         style="stop-color:#ffffff;stop-opacity:1"
         offset="0" />
      <stop
         id="stop6497"
         style="stop-color:#ffffff;stop-opacity:0"
         offset="1" />
    </linearGradient>
    <linearGradient
       inkscape:collect="always"
       xlink:href="#BlackTransparent"
       id="linearGradient8058"
       gradientUnits="userSpaceOnUse"
       x1="144.87347"
       y1="97.697334"
       x2="144.87347"
       y2="99.774651" />
    <linearGradient
       id="BlackTransparent"
       gradientUnits="userSpaceOnUse">
      <stop
         id="stop12"
         style="stop-color:#000000;stop-opacity:1"
         offset="0" />
      <stop
         id="stop14"
         style="stop-color:#000000;stop-opacity:0"
         offset="1" />
    </linearGradient>
    <linearGradient
       inkscape:collect="always"
       xlink:href="#linearGradient3501-3"
       id="linearGradient8060"
       gradientUnits="userSpaceOnUse"
       x1="131.29102"
       y1="77.089378"
       x2="153.84979"
       y2="77.089378" />
    <linearGradient
       id="linearGradient3501-3">
      <stop
         id="stop3503-5"
         style="stop-color:#9a3030;stop-opacity:1"
         offset="0" />
      <stop
         id="stop3505-1"
         style="stop-color:#5b1c1c;stop-opacity:1"
         offset="1" />
    </linearGradient>
    <linearGradient
       inkscape:collect="always"
       xlink:href="#linearGradient3509"
       id="linearGradient8062"
       gradientUnits="userSpaceOnUse"
       x1="131.29102"
       y1="77.089378"
       x2="153.84979"
       y2="77.089378" />
    <linearGradient
       id="linearGradient3509">
      <stop
         id="stop3511"
         style="stop-color:#ad1616;stop-opacity:1"
         offset="0" />
      <stop
         id="stop3513-1"
         style="stop-color:#4d0a0a;stop-opacity:1"
         offset="1" />
    </linearGradient>
    <filter
       x="-0.66366285"
       y="-0.038064804"
       width="2.3273256"
       height="1.0761296"
       color-interpolation-filters="sRGB"
       id="filter3526">
      <feGaussianBlur
         id="feGaussianBlur3528"
         stdDeviation="0.98809091" />
    </filter>
    <linearGradient
       inkscape:collect="always"
       xlink:href="#linearGradient3411"
       id="linearGradient8064"
       gradientUnits="userSpaceOnUse"
       x1="140"
       y1="88"
       x2="150"
       y2="88" />
    <linearGradient
       id="linearGradient3411">
      <stop
         id="stop3413"
         style="stop-color:#797979;stop-opacity:1"
         offset="0" />
      <stop
         id="stop3423-0"
         style="stop-color:#a1a1a1;stop-opacity:1"
         offset="0.21906407" />
      <stop
         id="stop3419-0"
         style="stop-color:#cdcdcd;stop-opacity:1"
         offset="0.34999999" />
      <stop
         id="stop3421"
         style="stop-color:#9b9b9b;stop-opacity:1"
         offset="0.47209707" />
      <stop
         id="stop3415-70"
         style="stop-color:#373737;stop-opacity:1"
         offset="1" />
    </linearGradient>
    <linearGradient
       inkscape:collect="always"
       xlink:href="#linearGradient3737-81"
       id="linearGradient8066"
       gradientUnits="userSpaceOnUse"
       gradientTransform="scale(0.7071068,1.4142136)"
       x1="197.9899"
       y1="62.225395"
       x2="212.13203"
       y2="62.225395" />
    <linearGradient
       id="linearGradient3737-81">
      <stop
         id="stop3739-64"
         style="stop-color:#ffffff;stop-opacity:1"
         offset="0" />
      <stop
         id="stop3741-14"
         style="stop-color:#ffffff;stop-opacity:0"
         offset="1" />
    </linearGradient>
    <linearGradient
       inkscape:collect="always"
       xlink:href="#BlackTransparent"
       id="linearGradient8074"
       gradientUnits="userSpaceOnUse"
       gradientTransform="matrix(1.247211,0,0,1,-35.862183,0)"
       x1="141"
       y1="81.75"
       x2="149"
       y2="81.75" />
    <linearGradient
       id="linearGradient6525"
       gradientUnits="userSpaceOnUse">
      <stop
         id="stop6527"
         style="stop-color:#000000;stop-opacity:1"
         offset="0" />
      <stop
         id="stop6529"
         style="stop-color:#000000;stop-opacity:0"
         offset="1" />
    </linearGradient>
    <linearGradient
       inkscape:collect="always"
       xlink:href="#linearGradient3581"
       id="linearGradient8076"
       gradientUnits="userSpaceOnUse"
       gradientTransform="matrix(1.247211,0,0,-1,-35.862183,164.98438)"
       x1="141"
       y1="81.75"
       x2="149"
       y2="81.75" />
    <linearGradient
       id="linearGradient6532">
      <stop
         id="stop6534"
         style="stop-color:#ffffff;stop-opacity:1"
         offset="0" />
      <stop
         id="stop6536"
         style="stop-color:#ffffff;stop-opacity:0"
         offset="1" />
    </linearGradient>
    <linearGradient
       inkscape:collect="always"
       xlink:href="#BlackTransparent"
       id="linearGradient6538"
       gradientUnits="userSpaceOnUse"
       gradientTransform="matrix(1.247211,0,0,1,-35.862183,0)"
       x1="141"
       y1="81.75"
       x2="149"
       y2="81.75" />
    <linearGradient
       id="linearGradient6540"
       gradientUnits="userSpaceOnUse">
      <stop
         id="stop6542"
         style="stop-color:#000000;stop-opacity:1"
         offset="0" />
      <stop
         id="stop6544"
         style="stop-color:#000000;stop-opacity:0"
         offset="1" />
    </linearGradient>
    <linearGradient
       inkscape:collect="always"
       xlink:href="#linearGradient3581"
       id="linearGradient6546"
       gradientUnits="userSpaceOnUse"
       gradientTransform="matrix(1.247211,0,0,-1,-35.862183,164.98438)"
       x1="141"
       y1="81.75"
       x2="149"
       y2="81.75" />
    <linearGradient
       id="linearGradient6548">
      <stop
         id="stop6550"
         style="stop-color:#ffffff;stop-opacity:1"
         offset="0" />
      <stop
         id="stop6552"
         style="stop-color:#ffffff;stop-opacity:0"
         offset="1" />
    </linearGradient>
    <linearGradient
       inkscape:collect="always"
       xlink:href="#BlackTransparent"
       id="linearGradient6554"
       gradientUnits="userSpaceOnUse"
       gradientTransform="matrix(1.247211,0,0,1,-35.862183,0)"
       x1="141"
       y1="81.75"
       x2="149"
       y2="81.75" />
    <linearGradient
       id="linearGradient6556"
       gradientUnits="userSpaceOnUse">
      <stop
         id="stop6558"
         style="stop-color:#000000;stop-opacity:1"
         offset="0" />
      <stop
         id="stop6560"
         style="stop-color:#000000;stop-opacity:0"
         offset="1" />
    </linearGradient>
    <linearGradient
       inkscape:collect="always"
       xlink:href="#linearGradient3581"
       id="linearGradient6562"
       gradientUnits="userSpaceOnUse"
       gradientTransform="matrix(1.247211,0,0,-1,-35.862183,164.98438)"
       x1="141"
       y1="81.75"
       x2="149"
       y2="81.75" />
    <linearGradient
       id="linearGradient6564">
      <stop
         id="stop6566"
         style="stop-color:#ffffff;stop-opacity:1"
         offset="0" />
      <stop
         id="stop6568"
         style="stop-color:#ffffff;stop-opacity:0"
         offset="1" />
    </linearGradient>
    <linearGradient
       inkscape:collect="always"
       xlink:href="#linearGradient3674-5"
       id="linearGradient8072"
       gradientUnits="userSpaceOnUse"
       gradientTransform="matrix(0.7096226,0,0,0.7096226,-0.821028,0.1362159)"
       x1="35.289513"
       y1="132.69209"
       x2="122.40135"
       y2="71.475204" />
    <linearGradient
       id="linearGradient6571">
      <stop
         id="stop6573"
         style="stop-color:#000000;stop-opacity:1"
         offset="0" />
      <stop
         id="stop6575"
         style="stop-color:#000000;stop-opacity:0"
         offset="1" />
    </linearGradient>
    <filter
       color-interpolation-filters="sRGB"
       id="filter3905">
      <feGaussianBlur
         id="feGaussianBlur3907"
         stdDeviation="0.59517855" />
    </filter>
    <linearGradient
       y2="138.66119"
       x2="48"
       y1="20.220806"
       x1="48"
       gradientUnits="userSpaceOnUse"
       id="linearGradient5925"
       xlink:href="#linearGradient3737-66-7"
       inkscape:collect="always" />
    <linearGradient
       id="linearGradient3737-66-7">
      <stop
         id="stop3739-40-5"
         style="stop-color:#ffffff;stop-opacity:1"
         offset="0" />
      <stop
         id="stop3741-04-7"
         style="stop-color:#ffffff;stop-opacity:0"
         offset="1" />
    </linearGradient>
    <clipPath
       id="clipPath3613-62-6">
      <rect
         width="84"
         height="84"
         rx="6"
         ry="6"
         x="6"
         y="6"
         id="rect3615-67-2"
         style="fill:#ffffff;fill-opacity:1;fill-rule:nonzero;stroke:none" />
    </clipPath>
    <filter
       x="-0.192"
       y="-0.192"
       width="1.3839999"
       height="1.3839999"
       color-interpolation-filters="sRGB"
       id="filter3794-5-4">
      <feGaussianBlur
         id="feGaussianBlur3796-69-2"
         stdDeviation="5.28" />
    </filter>
    <linearGradient
       inkscape:collect="always"
       xlink:href="#BlackTransparent"
       id="linearGradient3288"
       gradientUnits="userSpaceOnUse"
       gradientTransform="matrix(1.247211,0,0,1,-35.862183,0)"
       x1="141"
       y1="81.75"
       x2="149"
       y2="81.75" />
    <linearGradient
       inkscape:collect="always"
       xlink:href="#linearGradient3581"
       id="linearGradient3290"
       gradientUnits="userSpaceOnUse"
       gradientTransform="matrix(1.247211,0,0,-1,-35.862183,164.98438)"
       x1="141"
       y1="81.75"
       x2="149"
       y2="81.75" />
  </defs>
  <sodipodi:namedview
     id="base"
     pagecolor="#ffffff"
     bordercolor="#666666"
     borderopacity="1.0"
     inkscape:pageopacity="0.0"
     inkscape:pageshadow="2"
     inkscape:zoom="3.959798"
     inkscape:cx="28.389459"
     inkscape:cy="57.490015"
     inkscape:document-units="px"
     inkscape:current-layer="layer1"
     showgrid="false"
     inkscape:window-width="1280"
     inkscape:window-height="725"
     inkscape:window-x="0"
     inkscape:window-y="25"
     inkscape:window-maximized="1" />
  <metadata
     id="metadata7">
    <rdf:RDF>
      <cc:Work
         rdf:about="">
        <dc:format>image/svg+xml</dc:format>
        <dc:type
           rdf:resource="http://purl.org/dc/dcmitype/StillImage" />
        <dc:title></dc:title>
      </cc:Work>
    </rdf:RDF>
  </metadata>
  <g
     inkscape:label="Layer 1"
     inkscape:groupmode="layer"
     id="layer1"
     transform="translate(0,-956.36217)">
    <g
       transform="translate(-182.1875,-40.40626)"
       id="g6397">
      <rect
         y="964.36218"
         x="8"
         height="80"
         width="80"
         id="rect9283"
         style="fill:#000000;fill-opacity:1;stroke:none;filter:url(#filter6279)"
         rx="5"
         ry="5"
         transform="translate(182.1875,40.40625)" />
      <rect
         ry="5"
         rx="5"
         style="fill:url(#linearGradient10902-1);fill-opacity:1;stroke:none"
         id="rect9285"
         width="80"
         height="80"
         x="8"
         y="964.36218"
         transform="translate(182.1875,40.40625)" />
      <g
         id="g8116">
        <g
           id="layer4"
           style="display:inline"
           transform="matrix(0.85937496,0,0,0.85937496,188.9375,1003.5184)">
          <g
             transform="matrix(0.9023441,0,0,0.8811863,4.0198751,7.0432846)"
             id="g3687">
            <path
               d="m 40.027722,33.45976 c -3.729257,0.82008 -8.145901,1.38263 -11.633836,2.91477 -3.006781,1.32078 -7.929787,4.28338 -10.146078,6.85279 -0.902258,4.54188 13.369889,5.52158 17.303734,6.3648 4.515898,0.7732 9.617587,0.22721 13.449946,3.19432 2.00576,1.94732 2.81444,5.25239 1.81653,7.87101 -1.327462,3.16334 -4.969285,1.04509 -7.25605,2.44153 -2.208602,1.4652 -1.640646,4.86239 -0.648893,6.90571 1.380628,1.9953 4.201989,2.21717 4.732197,4.92566 2.583177,2.03763 5.145308,-2.13256 5.79317,-3.98834 2.114741,-3.1001 5.152819,-4.3628 8.663078,-3.81188 2.918255,0.11446 4.72631,-4.42702 1.621028,-5.67646 -1.950117,-1.17942 -3.72159,-2.22104 -3.879693,-4.86164 -0.434597,-3.21733 5.645952,-4.26659 7.222132,-6.68926 2.617667,-4.8685 -3.55908,-11.93073 -6.62633,-16.09881 -1.770062,-2.706 -4.229343,-0.14907 -6.240808,1.53258 -3.491653,-0.76815 -4.347054,0.61395 -6.347669,3.22848 -2.817202,-0.20121 -3.486324,-3.68126 -5.960781,-4.52606 -0.592522,-0.2712 -1.219556,-0.46756 -1.861677,-0.5792 z"
               inkscape:connector-curvature="0"
               id="path3589"
               style="opacity:0.7;fill:url(#linearGradient8042);fill-opacity:1;fill-rule:evenodd;stroke:none;display:inline" />
            <path
               d="m 40.602965,41.89665 c -2.081724,3.87462 -10.666318,1.14384 -9.445386,7.35976 2.373115,3.59995 8.284364,4.40945 12.116567,3.0004 3.780962,-2.06503 6.735793,-7.8075 3.006747,-11.30573 -1.68758,-1.87564 -4.476223,-0.98492 -5.677928,0.94557 z"
               inkscape:connector-curvature="0"
               id="path3611"
               style="fill:url(#linearGradient8044);fill-opacity:1;fill-rule:evenodd;stroke:none;display:inline" />
            <path
               d="m 46.138367,14.736865 c -6.585245,2.994689 -8.952788,7.615922 -13.472269,12.811055 -5.84728,6.96804 2.864011,3.11744 6.125483,0.3866 1.247571,-1.058 2.412113,-2.28381 3.942981,-2.93506 1.442923,-0.0024 2.7861,1.61085 4.220576,0.52647 1.088769,-0.98542 2.473772,-1.07924 3.847817,-1.22885 1.457924,-0.222358 1.592165,-2.31211 3.297291,-1.944279 1.458589,0.288408 2.537652,-1.239909 1.62143,-2.4685 -0.834624,-1.345652 -2.264492,-2.149614 -3.342112,-3.278438 -2.751832,-2.50506 -2.53639,-3.232897 -6.241197,-1.868998 z"
               inkscape:connector-curvature="0"
               id="path3555"
               style="opacity:0.7;fill:url(#linearGradient8046);fill-opacity:1;fill-rule:evenodd;stroke:none;display:inline" />
            <path
               d="m 81.015256,40.44714 c 0.28578,0.36307 2.91029,2.8313 0.337276,0.5659 -5.961183,-4.89485 -16.774734,-13.36843 -21.968296,-19.10962 1.472189,1.485844 3.181515,3.14807 0.697909,0.742005 -2.750699,-2.594952 -5.315171,-5.377238 -7.870357,-8.162217 1.274394,1.186579 3.509695,3.698408 1.017428,1.018662 -2.667451,-3.297592 -7.762185,-2.513694 -10.15884,0.671767 -4.219804,3.807498 -8.087054,8.004854 -11.395349,12.617933 -3.327199,3.81046 -7.717544,6.42563 -11.359482,9.87503 -2.022202,2.78229 -6.424826,6.50076 -3.83887,10.1166 -1.216408,-1.04794 -4.213428,-4.04166 -0.75541,-1.84998 4.680882,1.56505 10.798567,1.739 13.623369,6.41159 1.437868,3.71688 -3.479001,5.02939 -5.268952,7.40338 -0.389866,3.03015 -4.666306,-2.55894 -1.794945,-0.6733 4.927199,1.07304 9.750771,2.72803 14.390006,4.67353 4.245902,1.42332 5.610339,6.6939 1.397703,9.00829 -0.688705,2.13659 -1.326303,1.23856 -2.299517,-0.34256 2.609651,1.6738 5.52972,0.18627 8.33154,0.52358 3.150514,0.51143 4.397077,7.33704 3.194576,7.86109 -1.978999,-1.58959 -1.42537,-1.65067 0.661015,-1.18909 5.724233,0.63404 3.992436,0.31574 7.252134,-0.42172 -2.584221,1.46307 -5.754586,3.51215 -8.772936,2.16877 -2.36323,-0.99667 -3.02446,-7.73723 -2.446743,-7.43982 3.908423,2.8708 -3.375125,1.49702 -5.202028,1.70034 -3.06085,-0.95188 -6.229774,-4.26375 -2.34871,-6.58325 2.172646,-0.82878 0.477615,-5.75921 2.721953,-2.41192 2.090205,1.81427 -2.264363,-1.52858 -3.472172,-1.47153 -3.957576,-1.45197 -8.084742,-2.35303 -12.179994,-3.31769 -5.04353,-2.72316 0.397996,-7.0224 2.736383,-9.26107 1.512188,-1.44261 -1.477725,-4.15779 0.589284,-1.7928 1.29544,1.31161 2.862068,2.53433 0.232912,0.87181 -4.170358,-1.80809 -9.656244,-1.38189 -12.778596,-5.08611 -2.648219,-4.10854 0.429839,-8.71023 3.231509,-11.77924 3.323518,-3.13827 7.212995,-5.63047 10.324867,-9.02018 3.359828,-3.287333 6.000667,-7.233294 9.501513,-10.402859 2.786178,-2.655266 5.535964,-6.603867 9.884732,-6.164305 4.279007,1.858622 7.308557,5.869805 10.505204,9.172662 1.369504,1.678968 -3.679141,-3.728625 -0.698424,-0.66451 1.702903,1.715359 6.007997,5.902282 5.983654,6.044832 -3.2222,-3.198588 3.426007,3.15371 4.622444,3.84771 4.131719,3.31582 13.074081,10.25845 16.560005,14.28587 -1.062596,-0.81253 -2.125199,-1.62506 -3.187795,-2.43758 z"
               inkscape:connector-curvature="0"
               id="path3455"
               style="opacity:0.8;fill:#000000;fill-opacity:1;fill-rule:nonzero;stroke:none;display:inline" />
            <path
               d="m 63.202539,30.87885 c -1.020987,-0.67747 -2.013527,-1.3989 -3.006103,-2.11753 -0.777227,-0.51351 -1.458492,-1.18245 -2.274807,-1.63598 -0.447849,-0.2227 -0.745072,0.02356 -1.019272,0.37466 -0.21475,0.4347 -0.356984,0.91277 -0.48317,1.3824 -0.195605,0.42384 -0.333977,0.86927 -0.562848,1.27702 -0.243742,0.48873 -0.747106,0.77937 -1.186784,1.07613 -0.506929,0.32983 -1.016522,0.3829 -1.556205,0.11562 -0.07985,-0.05848 -0.169029,-0.10599 -0.239563,-0.17542 -1.00478,-0.98909 -1.999016,-1.98897 -2.983988,-2.99779 -0.177937,-0.18225 -0.199497,-0.30611 -0.339088,-0.51431 -0.08714,-0.12997 -0.258402,-0.32238 -0.359921,-0.44065 0.858451,0.86897 1.716902,1.73795 2.575352,2.60693 -0.10075,-0.07731 -0.259738,-0.29335 -0.415741,-0.27505 -0.142074,0.01667 -0.271251,0.19006 -0.351305,0.26973 -0.397286,0.63953 -0.753875,1.30323 -1.177743,1.92615 -0.300749,0.4557 -0.601097,0.90859 -0.878316,1.3792 -0.289317,0.44382 -0.74872,0.59416 -1.245082,0.67839 -0.685345,0.07487 -1.229545,-0.29514 -1.731973,-0.71252 -1.714678,-1.56665 -3.236223,-2.51312 -3.522133,-4.64723 -0.135797,-0.5415 -0.151802,-1.09155 -0.580006,-1.4894 0.870254,0.885 1.748196,1.7625 2.610762,2.655 0.0508,0.05255 -0.111428,-0.09563 -0.173893,-0.13358 -0.262121,-0.15926 -0.575443,-0.19897 -0.874884,-0.20752 -0.411588,0.04445 -0.824185,0.10855 -1.195311,0.2992 -0.332914,0.23983 -0.682423,0.47875 -0.918203,0.81987 -0.248908,0.33696 -0.495574,0.66894 -0.801473,0.95711 -1.777443,1.19299 -4.056999,1.51032 -6.098527,1.97809 -4.522376,1.00461 -8.828018,2.73748 -13.125441,4.42682 l -1.936626,-2.09604 c 4.184671,-1.79995 8.360025,-3.66437 12.760306,-4.88887 1.903047,-0.57429 3.965334,-1.02305 5.572949,-2.25692 0.280828,-0.27939 0.515751,-0.59301 0.753062,-0.90933 0.287439,-0.37564 0.664875,-0.65585 1.0378,-0.94249 0.411269,-0.24486 0.864997,-0.335 1.333253,-0.41264 1.970449,-0.27145 3.02551,1.75914 4.256594,3.10564 0.264248,0.50688 0.335299,1.07517 0.450938,1.62979 0.376747,1.79055 2.444553,3.16842 -1.886503,-1.08406 0.386008,0.41376 0.849298,0.82735 1.431267,0.90451 0.385727,-0.03914 0.761881,-0.08045 0.986663,-0.43621 0.293812,-0.4649 0.605855,-0.91493 0.917816,-1.36739 0.433352,-0.64185 0.816374,-1.31396 1.21733,-1.97562 0.263564,-0.2946 0.577227,-0.68587 1.021731,-0.5269 0.07583,0.02711 0.158432,0.05178 0.216121,0.10797 1.006968,0.98077 1.979467,1.99631 2.9692,2.99446 0.174473,0.23223 0.329396,0.47951 0.511607,0.70576 0.06379,0.0792 0.272499,0.30165 0.199669,0.23067 -0.804328,-0.78387 -3.603147,-3.56003 -2.395991,-2.3689 0.418614,0.37935 0.679089,0.48008 1.199696,0.18663 0.395098,-0.25156 0.835168,-0.5018 1.042904,-0.93974 0.199973,-0.39083 0.332448,-0.81163 0.506295,-1.21431 0.158731,-0.50954 0.306709,-1.03758 0.596346,-1.48954 0.356647,-0.44103 0.800212,-0.861685 1.412901,-0.725206 0.929815,0.344726 1.594601,1.172816 2.422011,1.694366 0.937005,0.69173 1.910361,1.33219 2.848543,2.01999 l 2.469784,3.17904 z"
               inkscape:connector-curvature="0"
               id="path3459"
               style="opacity:0.8;fill:#000000;fill-opacity:1;fill-rule:nonzero;stroke:none;display:inline" />
            <path
               d="m 24.47136,68.96003 c -0.365795,0.34638 -0.621938,0.75945 -0.7787,1.23518 -0.07974,0.36202 -0.156562,0.78034 0.02738,1.12831 0.05705,0.10793 0.139135,0.20065 0.208702,0.30098 0.439153,0.5803 0.949479,1.0986 1.538431,1.52552 0.389364,0.29543 0.827321,0.46076 1.306743,0.5282 0.397533,0.03675 0.796354,0.02096 1.186471,-0.06268 C 28.86271,73.2196 29.642479,72.58281 30.431519,72 l 1.493488,-2.28575 c -0.74669,0.57386 -1.503444,1.14687 -2.327024,1.6053 -0.364904,0.09932 -0.728577,0.14591 -1.109052,0.12121 -0.44387,-0.03097 -0.850403,-0.15107 -1.214186,-0.41912 -0.574596,-0.38126 -1.072875,-0.86375 -1.457893,-1.43833 -0.238344,-0.48395 -0.212937,-0.76573 -0.03702,-1.26839 0.208562,-0.45782 0.532724,-0.82307 0.84189,-1.21475 l -2.150361,1.85986 z"
               inkscape:connector-curvature="0"
               id="path3478"
               style="opacity:0.8;fill:#000000;fill-opacity:1;fill-rule:nonzero;stroke:none;display:inline" />
            <path
               d="m 35.615435,55.11218 c 0.208201,0.25037 0.759087,0.77682 0.768478,0.84074 -0.61708,-0.56735 -1.225979,-1.14425 -1.866502,-1.68541 0.826249,0.87731 1.932739,1.44463 3.104359,1.69662 1.092498,0.27999 2.177044,0.59235 3.256239,0.9154 1.637453,0.35314 3.315901,0.45695 4.981012,0.59797 0.728629,-0.0081 1.923994,0.18192 2.099102,-0.78938 0.147033,-0.83947 -0.481971,-1.49311 -0.968884,-2.08472 0.651978,0.5825 1.27264,1.20139 1.927795,1.78139 -0.630936,-0.57377 -1.433024,-0.91601 -2.243266,-1.15161 -0.624894,-0.70836 -1.249787,-1.41672 -1.874681,-2.12508 1.099329,0.29937 2.156712,0.80363 2.976157,1.6096 0.783477,0.7058 1.640486,1.39182 2.168888,2.3195 0.367736,0.69552 0.421612,1.75939 -0.337425,2.21628 -0.796311,0.45587 -1.750736,0.24333 -2.619499,0.22728 -1.830807,-0.19363 -3.70071,-0.26109 -5.461225,-0.8474 -1.454056,-0.50971 -3.047364,-0.66007 -4.378961,-1.4829 -0.79069,-0.50929 -1.304956,-1.32988 -2.036327,-1.91351 -0.477445,-0.4156 -1.021903,-0.73858 -1.439358,-1.22076 -0.519241,-0.66918 0.54591,0.20125 0.810879,0.34099 0.37774,0.25167 0.75548,0.50334 1.133219,0.755 z"
               inkscape:connector-curvature="0"
               id="path3482"
               style="opacity:0.8;fill:#000000;fill-opacity:1;fill-rule:nonzero;stroke:none;display:inline" />
            <path
               d="m 36.768014,59.72917 c 1.975839,1.26277 4.416473,1.19943 6.670816,1.15403 2.169055,-0.03823 4.525804,-0.11941 6.423433,1.10816 0.61735,0.43353 1.321271,0.92272 1.438391,1.72722 0.439151,1.74165 -0.59017,3.47767 -1.889497,4.56641 -1.521446,1.27753 -3.60168,2.1346 -5.601912,1.69023 -1.270903,-0.27866 -2.256638,-1.33295 -2.630673,-2.55495 -1.576336,-2.50116 -3.003207,-5.09236 -4.410558,-7.6911 z"
               inkscape:connector-curvature="0"
               id="path3669"
               style="fill:url(#linearGradient8048);fill-opacity:1;fill-rule:evenodd;stroke:none;display:inline" />
            <path
               d="m 55.453031,36.62733 c 2.449317,1.78517 3.60362,4.33979 4.684937,6.69659 1.046686,2.26647 2.138254,4.7376 4.507654,6.44892 0.810223,0.54938 1.72814,1.17691 2.714464,1.12562 2.228607,0.08218 3.712279,-1.36326 4.313985,-2.95044 0.707637,-1.85909 0.649569,-4.20939 -0.868557,-6.19618 -0.960341,-1.26316 -2.671425,-2.06241 -4.268235,-2.1887 -3.676038,-1.10258 -7.380707,-2.03017 -11.084248,-2.93581 z"
               inkscape:connector-curvature="0"
               id="path3692"
               style="fill:url(#linearGradient8050);fill-opacity:1;fill-rule:evenodd;stroke:none;display:inline" />
          </g>
        </g>
        <g
           id="layer5"
           transform="matrix(0.62574651,0,0,0.62574651,201.44483,1021.8739)">
          <path
             d="m 89.58877,-19.898387 c -0.55549,-0.244755 -2.55282,2.660294 -5.27259,7.238521 -2.71976,4.5782248 -6.1719,10.8590188 -9.77001,17.7554168 -3.59812,6.8964032 -7.30033,14.3550842 -10.51434,21.1497032 -2.98999,6.321007 -5.529948,12.025347 -7.141148,16.284286 -0.13076,0.03558 -0.25741,0.107389 -0.31019,0.238963 l -1.15925,2.630922 c -0.05508,0.120177 -0.05348,0.258704 0.0044,0.377569 0.11995,0.262487 0.1283,0.561333 -4.5e-4,0.853532 -0.12875,0.292202 -0.35492,0.487708 -0.62958,0.576319 -0.12676,0.03752 -0.23008,0.129814 -0.28159,0.251563 l -1.51207,3.431637 c -0.05508,0.120177 -0.05348,0.258702 0.0044,0.377569 0.11995,0.262486 0.1283,0.561333 -4.5e-4,0.853531 -0.12875,0.292202 -0.35492,0.487709 -0.62958,0.57632 -0.12677,0.03752 -0.23008,0.129814 -0.28159,0.251562 l -1.51207,3.431639 c -0.05509,0.120177 -0.05348,0.258702 0.0044,0.377568 0.11995,0.262487 0.1283,0.561333 -4.5e-4,0.853531 -0.12876,0.292202 -0.35493,0.48771 -0.62959,0.576321 -0.12676,0.03752 -0.23007,0.129813 -0.28158,0.251562 l -0.75604,1.715817 c -0.09024,0.21053 -0.0022,0.45574 0.19535,0.56417 -0.49887,0.42491 -0.95335,1.0011 -1.28579,1.75558 -7.1293,16.179902 -4.42246,15.767572 -10.15216,24.280282 8.95728,-5.09442 13.0314,-6.01428 19.4292,-20.534062 0.27355,-0.62081 0.35898,-1.24735 0.30187,-1.84763 0.21333,0.07262 0.45371,-0.02788 0.54817,-0.23655 l 0.75604,-1.71582 c 0.05509,-0.12018 0.05347,-0.2587 -0.0044,-0.37757 -0.11996,-0.26248 -0.12831,-0.56131 4.5e-4,-0.85353 0.12875,-0.29221 0.35492,-0.48772 0.62957,-0.57631 0.12677,-0.03753 0.23009,-0.12982 0.2816,-0.25157 l 1.512068,-3.431638 c 0.05509,-0.120178 0.05347,-0.258699 -0.0044,-0.37757 -0.11996,-0.262484 -0.1283,-0.56132 4.5e-4,-0.853531 0.12876,-0.292214 0.35492,-0.487719 0.62959,-0.57632 0.12675,-0.03752 0.23007,-0.129813 0.28159,-0.251562 l 1.51207,-3.431638 c 0.05508,-0.120178 0.05347,-0.258703 -0.0044,-0.377569 -0.11997,-0.262485 -0.12831,-0.561321 4.4e-4,-0.853531 0.12877,-0.292215 0.35493,-0.48772 0.62959,-0.576321 0.12675,-0.03752 0.23007,-0.129812 0.28159,-0.251562 l 1.15925,-2.630922 c 0.05298,-0.123594 0.051,-0.265556 -0.0044,-0.377568 2.05595,-4.06322 4.55243,-9.786432 7.19834,-16.259084 2.84415,-6.957637 5.85293,-14.721882 8.51256,-22.0317472 2.65963,-7.30986404 4.96795,-14.094842 6.50995,-19.1918848 1.54198,-5.097046 2.31063,-8.543635 1.75516,-8.788394 z"
             inkscape:connector-curvature="0"
             transform="matrix(0.7077764,0.05115458,-0.05115458,0.7077764,30.327476,16.34591)"
             id="path3682"
             style="opacity:0.3;fill:url(#linearGradient8052);fill-opacity:1;fill-rule:evenodd;stroke:none;display:inline;filter:url(#filter3751)" />
          <g
             transform="translate(-1.3078646,0)"
             id="g3952">
            <g
               transform="matrix(0.6854428,0.1836639,-0.1836639,0.6854428,-17.037917,-31.869473)"
               id="g3405">
              <path
                 d="M 136.49219,126.38198 C 144.75532,118.57975 140,117.74383 140,100.06288 c 0,-6.447951 10,-5.528806 10,-0.3125 0,15.8668 -2.76896,19.86054 -13.50781,26.6316 z"
                 inkscape:connector-curvature="0"
                 id="path3286"
                 style="fill:#000000;fill-opacity:1;fill-rule:evenodd;stroke:none" />
              <path
                 d="m 140.4232,97.122268 c 0.52381,3.835232 0.83937,5.946262 0.99168,14.065012 0.24348,-3.42757 0.19447,-12.237972 0.85157,-13.029333 0.15349,4.532093 0,9.317753 0,13.950413 0,3.18283 0.70574,-8.30441 0.70574,-8.55026 0,-1.60762 0.10068,-3.21393 0.10068,-4.821558 0,-0.95835 0.35431,1.877708 0.46081,2.828648 0.52487,4.68637 0.17666,9.35164 -0.34561,14.01471 -0.72211,6.44745 0.17467,2.0343 0.46082,-1.47862 0.24521,-3.01053 0.92162,-5.703 0.92162,-8.74312 0,-2.62603 -0.50656,-9.590237 0.11521,-6.814487 1.20366,5.373527 1.15751,11.406447 0.34561,16.843357 -0.0675,0.45187 -0.15361,0.90003 -0.23041,1.35003 -0.14085,0.8253 0.14594,-1.67239 0.23041,-2.5072 0.496,-4.90258 0.57601,-8.7278 0.57601,-13.62898 1.46356,-4.948032 1.1742,11.78631 0.80642,14.0147 0.65244,-4.55631 0.6795,-7.65958 0.86403,-11.50749 0,-2.04545 -0.75049,-7.240594 -0.23041,-5.46444 0.57452,1.962085 1.13832,7.29625 1.13832,11.18605 0,5.66609 0,-4.23161 0,-4.82157 0,-0.11088 0,-11.445791 0,-5.850183 0,3.690063 1.07735,0.723285 0.37024,13.129083 0.85777,-3.93035 0.7955,-11.05674 0.7955,-13.257654 0,-0.547803 0.0535,-0.902334 -0.40321,-1.157179 -3.18031,-0.779318 -5.87939,-2.275995 -8.52503,0.250071 z"
                 inkscape:connector-curvature="0"
                 id="path3358"
                 style="opacity:0.3;fill:url(#linearGradient8054);fill-opacity:1;fill-rule:evenodd;stroke:none" />
              <path
                 d="m 145.8125,95.8125 c -0.17067,0.0052 -0.35807,0.01202 -0.53125,0.03125 -1.13983,0.126595 -2.32171,0.545592 -3.59375,0.90625 0,0.302255 0,1.144049 0,2.1875 0,2.14653 0,5.00734 0,5.0625 0,0.0328 0,0.44515 0,0.53125 0.20675,-2.83547 0.55483,-5.599379 0.9375,-6.90625 0.0329,-0.112462 0.0689,-0.186494 0.0937,-0.25 0.0248,-0.06351 0.044,-0.114767 0.0937,-0.15625 0.0124,-0.01037 0.004,-0.02827 0.0313,-0.03125 0.0276,-0.003 0.0762,0.01645 0.0937,0.03125 0.035,0.02959 0.0256,0.07115 0.0313,0.09375 0.0113,0.04521 0.0302,0.08666 0.0313,0.15625 0.004,0.278344 -0.0339,0.805402 -0.0937,1.46875 -0.11979,1.3267 -0.3125,3.14441 -0.3125,4.15625 0.43739,5.24352 0.29647,11.49436 0.40625,1.8125 0.0292,-1.92578 0.10793,-3.60722 0.28125,-4.53125 0.0433,-0.23101 0.0972,-0.430614 0.15625,-0.5625 0.0295,-0.06594 0.0517,-0.114294 0.0937,-0.15625 0.042,-0.04196 0.0932,-0.06788 0.15625,-0.0625 0.0631,0.0054 0.11144,0.04688 0.15625,0.09375 0.0448,0.04687 0.0835,0.108519 0.125,0.1875 0.0829,0.15796 0.18886,0.37513 0.28125,0.6875 0.002,0.0103 0.002,0.0209 0,0.0313 0,0.95558 0.0431,1.84855 0.0937,2.71875 0.11643,-1.63269 0.30985,-3.26606 0.65625,-4.8125 0.0392,-0.174825 0.0934,-0.302001 0.125,-0.40625 0.0316,-0.104249 0.0284,-0.166738 0.0625,-0.21875 0.017,-0.02601 0.0434,-0.05018 0.0937,-0.0625 0.0252,-0.0062 0.0719,-0.01194 0.0937,0 0.0218,0.01194 0.0218,0.01741 0.0313,0.03125 0.0376,0.05537 0.0516,0.106958 0.0625,0.1875 0.0434,0.32217 0.0233,1.013039 0,1.875 -0.0465,1.72392 -0.15625,4.13019 -0.15625,5.4375 2.97799,20.51516 -0.34889,11.7317 0.84375,-3.78125 0.0534,-0.47691 0.17711,-1.41913 0.28125,-2.125 0.0521,-0.352934 0.0872,-0.659069 0.125,-0.8125 0.009,-0.03836 0.0195,-0.06696 0.0313,-0.09375 0.006,-0.0134 0.006,-0.0094 0.0313,-0.03125 0.003,-0.0027 0.0309,-0.03101 0.0313,-0.03125 7.3e-4,-3.04e-4 0.0618,-5.8e-5 0.0625,0 7e-4,5.8e-5 0.0306,-4.25e-4 0.0313,0 3.3e-4,2.12e-4 -3.2e-4,0.03095 0,0.03125 3.2e-4,3.05e-4 0.0285,-0.0034 0.0313,0 0.0217,0.02737 0.0281,0.04734 0.0313,0.0625 0.003,0.01516 -0.002,0.01312 0,0.03125 0.003,0.03625 0,0.09493 0,0.15625 0.23631,3.48243 0.14784,6.89582 -0.53477,10.34375 0.23363,7.17134 1.11129,-10.15946 1.12852,-10.9375 -0.002,-0.01034 -0.002,-0.02091 0,-0.03125 0.008,-0.01284 0.0184,-0.02358 0.0313,-0.03125 0.008,-0.01284 0.0184,-0.02358 0.0313,-0.03125 0.0103,-0.0018 0.0209,-0.0018 0.0313,0 0.0103,-0.0018 0.0209,-0.0018 0.0313,0 0.0128,0.0077 0.0236,0.01841 0.0313,0.03125 0.10858,0.130768 0.18638,0.359165 0.25,0.6875 0.70064,3.28565 -0.39318,6.58079 -0.17586,9.87168 0.73895,-5.86544 1.1549,-8.14002 1.61336,-11.49668 -1.13103,-1.065418 -2.25449,-1.380058 -3.4375,-1.34375 z M 141.5,96.78125 c -0.21401,0.05926 -0.40538,0.133683 -0.625,0.1875 -0.21156,0.118058 -0.27258,0.236879 -0.3125,0.40625 -0.0399,0.169371 -0.0313,0.379575 -0.0313,0.65625 0,1.949501 0.48393,7.70099 1.06158,11.71764 -0.71526,-3.8759 -0.21564,-7.72275 -0.0928,-11.59264 0,-0.699451 0,-1.149463 0,-1.375 z"
                 inkscape:connector-curvature="0"
                 transform="matrix(1,0,0,1.3658701,0,-35.053921)"
                 id="path3380"
                 style="opacity:0.40540538;fill:url(#linearGradient8056);fill-opacity:1;fill-rule:evenodd;stroke:none" />
              <path
                 d="M 136.49219,126.38198 C 144.75532,118.57975 140,117.74383 140,100.06288 c 0,-6.447951 10,-5.528806 10,-0.3125 0,15.8668 -2.76896,19.86054 -13.50781,26.6316 z"
                 inkscape:connector-curvature="0"
                 id="path3394"
                 style="fill:url(#linearGradient8058);fill-opacity:1;fill-rule:evenodd;stroke:none" />
            </g>
            <g
               transform="matrix(0.6854428,0.1836639,-0.1836639,0.6854428,-17.037917,-31.869473)"
               id="g3538">
              <path
                 d="m 142.5704,66.302032 c 5.2447,0 13.11174,13.626121 10.4894,18.168161 -2.62235,4.54204 -18.35644,4.542039 -20.97879,-10e-7 -2.62235,-4.54204 5.2447,-18.168161 10.48939,-18.16816 z"
                 transform="matrix(0.4227683,0,0,3.8920276,84.725753,-249.77347)"
                 id="path3284"
                 style="fill:url(#linearGradient8060);fill-opacity:1;fill-rule:evenodd;stroke:url(#linearGradient8062);stroke-width:0.7584784;stroke-linecap:square;stroke-linejoin:miter;stroke-miterlimit:4;stroke-opacity:1;stroke-dasharray:none;stroke-dashoffset:0"
                 inkscape:connector-curvature="0" />
              <path
                 d="m 143.67443,22.398152 c -0.0922,0 -0.32253,1.821635 -0.56854,5.943768 -0.24601,4.122133 -0.50641,10.11869 -0.71685,16.620539 -0.21044,6.501848 -0.37402,13.511641 -0.45112,19.372282 -0.0771,5.86064 -0.0462,10.353002 0,11.777468 0.0461,1.421597 0.24485,4.096191 0.56853,5.833698 0.32369,1.737507 0.75253,2.751745 1.17416,2.751745 0.42163,0 0.84429,-1.014238 1.16797,-2.751745 0.32369,-1.737507 0.52246,-4.412101 0.56854,-5.833698 0.046,-1.419341 0.0776,-5.917363 0,-11.777468 -0.0776,-5.860105 -0.24612,-12.869595 -0.4573,-19.372282 -0.21119,-6.502688 -0.47023,-12.496493 -0.71685,-16.620539 -0.24663,-4.124045 -0.47634,-5.943768 -0.56854,-5.943768 z"
                 inkscape:connector-curvature="0"
                 id="path3519"
                 style="opacity:0.5;fill:#ff8b49;fill-opacity:1;fill-rule:evenodd;stroke:none;filter:url(#filter3526)" />
            </g>
            <g
               transform="matrix(0.7423631,0.1989156,-0.1836639,0.6854428,-24.984661,-34.080975)"
               id="g3530">
              <path
                 d="m 140.5,78.5 0,2.875 c 0.30889,0.274816 0.5,0.679341 0.5,1.125 0,0.445659 -0.19111,0.850184 -0.5,1.125 l 0,3.75 c 0.30889,0.274816 0.5,0.679341 0.5,1.125 0,0.445659 -0.19111,0.850184 -0.5,1.125 l 0,3.75 c 0.30889,0.274816 0.5,0.679341 0.5,1.125 0,0.445659 -0.19111,0.850184 -0.5,1.125 l 0,1.875 9,0 0,-1.875 C 149.1911,95.350184 149,94.945659 149,94.5 c 0,-0.445659 0.1911,-0.850184 0.5,-1.125 l 0,-3.75 C 149.1911,89.350184 149,88.945659 149,88.5 c 0,-0.445659 0.1911,-0.850184 0.5,-1.125 l 0,-3.75 C 149.1911,83.350184 149,82.945659 149,82.5 c 0,-0.445659 0.1911,-0.850184 0.5,-1.125 l 0,-2.875 -9,0 z"
                 inkscape:connector-curvature="0"
                 id="rect2478"
                 style="fill:url(#linearGradient8064);fill-opacity:1;fill-rule:evenodd;stroke:url(#linearGradient8066);stroke-width:1.3540976;stroke-linecap:square;stroke-linejoin:miter;stroke-miterlimit:4;stroke-opacity:1;stroke-dasharray:none;stroke-dashoffset:0" />
              <g
                 id="g3493">
                <path
                   d="m 139.99458,81 0,0.579723 c 0.338,0.322181 0.46459,0.420277 0.5076,0.920277 l 8.99492,0 c 0.0372,-0.48902 0.12747,-0.578546 0.49861,-0.90625 l 0,-0.59375 -10.00113,0 z"
                   inkscape:connector-curvature="0"
                   id="path3463"
                   style="opacity:0.2;fill:url(#linearGradient3288);fill-opacity:1;fill-rule:evenodd;stroke:none" />
                <path
                   d="m 139.99458,83.984375 0,-0.579723 c 0.338,-0.322181 0.46459,-0.420277 0.5076,-0.920277 l 8.99492,0 c 0.0372,0.48902 0.12747,0.578546 0.49861,0.90625 l 0,0.59375 -10.00113,0 z"
                   inkscape:connector-curvature="0"
                   id="path3489"
                   style="opacity:0.3;fill:url(#linearGradient3290);fill-opacity:1;fill-rule:evenodd;stroke:none" />
              </g>
              <use
                 transform="translate(0,6)"
                 id="use3497"
                 x="0"
                 y="0"
                 width="128"
                 height="128"
                 xlink:href="#g3493" />
              <use
                 transform="translate(0,12)"
                 id="use3499"
                 x="0"
                 y="0"
                 width="128"
                 height="128"
                 xlink:href="#g3493" />
            </g>
          </g>
          <path
             d="m 115.59861,22.458256 c -0.3046,-0.304585 -2.37202,1.104102 -5.34709,3.43405 -2.97507,2.329946 -6.87192,5.598041 -11.023451,9.235869 -4.151544,3.637828 -8.516362,7.620871 -12.387672,11.290026 -3.601463,3.413401 -6.746844,6.534461 -8.90658,8.937937 -0.09564,-0.01005 -0.197864,0.0049 -0.26657,0.0784 l -1.442612,1.442615 c -0.06731,0.06535 -0.101824,0.157398 -0.09408,0.250889 0.01193,0.204447 -0.05931,0.40428 -0.219529,0.564501 -0.160226,0.160223 -0.360056,0.231459 -0.564505,0.219529 -0.09349,-0.0077 -0.185538,0.02678 -0.250887,0.09408 l -1.881671,1.88167 c -0.06731,0.06535 -0.101824,0.157399 -0.09408,0.250891 0.01193,0.204446 -0.05931,0.404279 -0.219529,0.5645 -0.160226,0.160226 -0.360055,0.231458 -0.564505,0.219529 -0.09349,-0.0077 -0.185538,0.02678 -0.250887,0.09408 l -1.88167,1.88167 c -0.06731,0.06535 -0.101823,0.157402 -0.09408,0.250894 0.01193,0.204443 -0.05931,0.40428 -0.219529,0.564498 -0.160225,0.160226 -0.360055,0.231458 -0.564505,0.219529 -0.09349,-0.0077 -0.185537,0.02678 -0.250887,0.09408 l -0.940838,0.940838 c -0.113767,0.116088 -0.118507,0.300909 -0.01568,0.423376 -0.43915,0.152944 -0.887787,0.417364 -1.301491,0.831075 -8.871928,8.871923 -6.975426,9.294424 -12.952173,13.453949 7.233815,-1.069288 10.165138,-0.631338 18.126768,-8.592971 0.340414,-0.340413 0.557856,-0.732926 0.674263,-1.144678 0.122466,0.102824 0.307287,0.09808 0.423375,-0.01568 l 0.940839,-0.940838 c 0.06731,-0.06535 0.101817,-0.157395 0.09408,-0.250887 -0.01194,-0.20445 0.0593,-0.404272 0.219528,-0.564506 0.160226,-0.160225 0.360055,-0.231464 0.564498,-0.219521 0.09349,0.0077 0.185545,-0.02678 0.250894,-0.09409 l 1.881671,-1.881671 c 0.06731,-0.06535 0.101816,-0.157394 0.09408,-0.250887 -0.01193,-0.20445 0.0593,-0.404272 0.219529,-0.564505 0.160234,-0.160226 0.360056,-0.231465 0.564506,-0.219529 0.09349,0.0077 0.185537,-0.02677 0.250887,-0.09408 l 1.88167,-1.88167 c 0.06731,-0.06535 0.101824,-0.157394 0.09408,-0.250887 -0.01194,-0.20445 0.0593,-0.404272 0.219529,-0.564505 0.160232,-0.160225 0.360055,-0.231465 0.564504,-0.219528 0.09349,0.0077 0.185539,-0.02678 0.250887,-0.09408 l 1.442614,-1.442615 c 0.06679,-0.06815 0.101944,-0.162567 0.09408,-0.250888 2.403675,-2.159769 5.525135,-5.304484 8.937937,-8.906578 3.668514,-3.871993 7.65311,-8.235277 11.290022,-12.387667 3.63693,-4.152389 6.90664,-8.047796 9.23587,-11.023456 2.32923,-2.975667 3.72296,-5.058178 3.41838,-5.362763 z"
             inkscape:connector-curvature="0"
             transform="matrix(0.9904587,0.1378097,-0.1378097,0.9904587,10.186291,-6.662777)"
             id="path3544"
             style="opacity:0.8;fill:url(#linearGradient8072);fill-opacity:1;fill-rule:evenodd;stroke:none;display:inline;filter:url(#filter3905)" />
        </g>
        <g
           transform="translate(182.1875,996.76843)"
           id="layer5-5">
          <rect
             width="66"
             height="66"
             rx="12"
             ry="12"
             x="15"
             y="15"
             clip-path="url(#clipPath3613-62-6)"
             id="rect3171"
             style="opacity:0.1;fill:url(#linearGradient5925);fill-opacity:1;fill-rule:nonzero;stroke:#ffffff;stroke-width:0.5;stroke-linecap:round;stroke-linejoin:miter;stroke-miterlimit:4;stroke-opacity:1;stroke-dasharray:none;stroke-dashoffset:0;filter:url(#filter3794-5-4)" />
        </g>
      </g>
    </g>
  </g>
</svg>
