<?xml version="1.0" encoding="UTF-8" standalone="no"?>
<!-- Created with Inkscape (http://www.inkscape.org/) -->

<svg
   xmlns:dc="http://purl.org/dc/elements/1.1/"
   xmlns:cc="http://creativecommons.org/ns#"
   xmlns:rdf="http://www.w3.org/1999/02/22-rdf-syntax-ns#"
   xmlns:svg="http://www.w3.org/2000/svg"
   xmlns="http://www.w3.org/2000/svg"
   xmlns:xlink="http://www.w3.org/1999/xlink"
   xmlns:sodipodi="http://sodipodi.sourceforge.net/DTD/sodipodi-0.dtd"
   xmlns:inkscape="http://www.inkscape.org/namespaces/inkscape"
   width="96"
   height="96"
   id="svg2"
   version="1.1"
   inkscape:version="0.48.1 r9760"
   sodipodi:docname="kupfer.svg">
  <defs
     id="defs4">
    <filter
       color-interpolation-filters="sRGB"
       inkscape:collect="always"
       id="filter6279">
      <feGaussianBlur
         inkscape:collect="always"
         stdDeviation="0.8"
         id="feGaussianBlur6281" />
    </filter>
    <linearGradient
       inkscape:collect="always"
       xlink:href="#linearGradient3617-97"
       id="linearGradient10902-1"
       gradientUnits="userSpaceOnUse"
       gradientTransform="translate(0,-9.6171873e-6)"
       x1="48"
       y1="1052.3622"
       x2="48"
       y2="902.36218" />
    <linearGradient
       id="linearGradient3617-97"
       y2="5.9877"
       gradientUnits="userSpaceOnUse"
       x2="48"
       y1="90"
       x1="48"
       gradientTransform="translate(25.441696,1.3568905)">
      <stop
         id="stop5343"
         style="stop-color:#6a2700"
         offset="0" />
      <stop
         id="stop5345"
         style="stop-color:#c04700"
         offset="1" />
    </linearGradient>
    <linearGradient
       id="linearGradient4015-2"
       y2="477.87"
       gradientUnits="userSpaceOnUse"
       x2="375.79999"
       gradientTransform="matrix(0.21272,0,0,0.21526,-31.94,-59.159)"
       y1="597.84003"
       x1="373">
      <stop
         id="stop3800-64"
         style="stop-color:#ff9d60"
         offset="0" />
      <stop
         id="stop3802-2"
         style="stop-color:#ffe1ba"
         offset="1" />
    </linearGradient>
    <radialGradient
       id="radialGradient4012-8"
       gradientUnits="userSpaceOnUse"
       cy="503.76001"
       cx="370.51999"
       gradientTransform="matrix(1.1494,-2.7368e-6,2.7573e-6,1.0867,-380.63,-516.48)"
       r="14.664">
      <stop
         id="stop5362-9-2"
         style="stop-color:#fbffce;stop-opacity:0.728"
         offset="0" />
      <stop
         id="stop5364-4-20"
         style="stop-color:#ffb058;stop-opacity:0"
         offset="1" />
    </radialGradient>
    <radialGradient
       id="radialGradient3991-6"
       gradientUnits="userSpaceOnUse"
       cy="505.23001"
       cx="373.03"
       gradientTransform="matrix(-0.24424,-0.10895,0.11715,-0.26009,87.889,216.92)"
       r="14.664">
      <stop
         id="stop5362-9-5-2"
         style="stop-color:#fbffce"
         offset="0" />
      <stop
         id="stop5364-4-6-03"
         style="stop-color:#fbffce;stop-opacity:0"
         offset="1" />
    </radialGradient>
    <radialGradient
       id="radialGradient3988-1"
       gradientUnits="userSpaceOnUse"
       cy="505.23001"
       cx="373.03"
       gradientTransform="matrix(-0.13975,-0.054165,0.067034,-0.12931,57.32,111.89)"
       r="14.664">
      <stop
         id="stop5362-9-5-8-1"
         style="stop-color:#fbffce;stop-opacity:0.64"
         offset="0" />
      <stop
         id="stop5364-4-6-0-5"
         style="stop-color:#fbffce;stop-opacity:0"
         offset="1" />
    </radialGradient>
    <linearGradient
       y2="138.66"
       x2="48"
       y1="20.221001"
       x1="48"
       gradientUnits="userSpaceOnUse"
       id="linearGradient3107"
       xlink:href="#linearGradient3613-13"
       inkscape:collect="always" />
    <linearGradient
       id="linearGradient3613-13"
       y2="138.66"
       gradientUnits="userSpaceOnUse"
       x2="48"
       y1="20.221001"
       x1="48">
      <stop
         id="stop4103"
         style="stop-color:#ffac2d"
         offset="0" />
      <stop
         id="stop4105"
         style="stop-color:#f57d00;stop-opacity:0"
         offset="1" />
    </linearGradient>
    <clipPath
       id="clipPath3613-02">
      <rect
         id="rect3615-9"
         style="fill:#ffffff"
         rx="6"
         ry="6"
         height="84"
         width="84"
         y="6"
         x="6" />
    </clipPath>
    <filter
       id="filter3794-60"
       height="1.3839999"
       width="1.3839999"
       color-interpolation-filters="sRGB"
       y="-0.192"
       x="-0.192">
      <feGaussianBlur
         id="feGaussianBlur3796-93"
         stdDeviation="5.28" />
    </filter>
  </defs>
  <sodipodi:namedview
     id="base"
     pagecolor="#ffffff"
     bordercolor="#666666"
     borderopacity="1.0"
     inkscape:pageopacity="0.0"
     inkscape:pageshadow="2"
     inkscape:zoom="3.959798"
     inkscape:cx="28.389459"
     inkscape:cy="57.490015"
     inkscape:document-units="px"
     inkscape:current-layer="layer1"
     showgrid="false"
     inkscape:window-width="1280"
     inkscape:window-height="725"
     inkscape:window-x="0"
     inkscape:window-y="25"
     inkscape:window-maximized="1" />
  <metadata
     id="metadata7">
    <rdf:RDF>
      <cc:Work
         rdf:about="">
        <dc:format>image/svg+xml</dc:format>
        <dc:type
           rdf:resource="http://purl.org/dc/dcmitype/StillImage" />
        <dc:title></dc:title>
      </cc:Work>
    </rdf:RDF>
  </metadata>
  <g
     inkscape:label="Layer 1"
     inkscape:groupmode="layer"
     id="layer1"
     transform="translate(0,-956.36217)">
    <g
       transform="translate(-182.1875,-40.40626)"
       id="g5985">
      <rect
         y="964.36218"
         x="8"
         height="80"
         width="80"
         id="rect9283"
         style="fill:#000000;fill-opacity:1;stroke:none;filter:url(#filter6279)"
         rx="5"
         ry="5"
         transform="translate(182.1875,40.40625)" />
      <rect
         ry="5"
         rx="5"
         style="fill:url(#linearGradient10902-1);fill-opacity:1;stroke:none"
         id="rect9285"
         width="80"
         height="80"
         x="8"
         y="964.36218"
         transform="translate(182.1875,40.40625)" />
      <g
         id="g6785">
        <g
           transform="matrix(0.79545093,0,0,0.79545093,192.00578,1005.7461)"
           id="layer4">
          <path
             inkscape:connector-curvature="0"
             id="path4111"
             style="text-indent:0;text-transform:none;block-progression:tb;opacity:0.3;color:#000000;fill:#ff9955"
             d="M 47.997,17 C 42.205,17 36.558,19.376 32.461,23.532 28.365,27.688 26,33.434 26,39.313 c 0,5.8788 2.3649,11.618 6.4614,15.774 3.4707,3.5211 8.0543,5.7676 12.896,6.3703 v 1.0886 h -7.9305 v 5.368 h 7.9305 l 1.6117,15.086 h 2.0614 l 1.6117,-15.086 h 7.9305 v -5.368 h -7.9305 v -1.0886 c 4.85,-0.602 9.459,-2.849 12.93,-6.37 4.096,-4.156 6.428,-9.895 6.428,-15.774 0,-5.879 -2.332,-11.625 -6.428,-15.781 -4.097,-4.156 -9.783,-6.532 -15.575,-6.532 z m 0,2.1165 c 4.3454,0 8.8741,1.74 11.826,4.9711 6.7415,7.3794 6.4619,19.882 0,27.233 -2.8889,3.2864 -7.4805,4.9644 -11.826,4.9644 -4.3361,0 -8.7151,-1.86 -11.786,-4.9644 h -0.03325 c -6.6216,-7.494 -6.279,-19.712 0,-27.233 3.0718,-3.1165 7.4739,-4.9711 11.819,-4.9711 h 1.2e-5 z" />
          <path
             inkscape:connector-curvature="0"
             id="path4107"
             style="text-indent:0;text-transform:none;block-progression:tb;color:#000000;fill:#552200"
             d="M 47.997,15 C 42.205,15 36.558,17.376 32.461,21.532 28.365,25.688 26,31.434 26,37.313 c 0,5.8788 2.3649,11.618 6.4614,15.774 3.4707,3.5211 8.0543,5.7676 12.896,6.3703 v 1.0886 h -7.9305 v 5.368 h 7.9305 l 1.6117,15.086 h 2.0614 l 1.6117,-15.086 h 7.9305 v -5.368 h -7.9305 v -1.0886 c 4.85,-0.602 9.459,-2.849 12.93,-6.37 4.096,-4.156 6.428,-9.895 6.428,-15.774 0,-5.879 -2.332,-11.625 -6.428,-15.781 -4.097,-4.156 -9.783,-6.532 -15.575,-6.532 z m 0,2.1165 c 4.3454,0 8.8741,1.74 11.826,4.9711 6.7415,7.3794 6.4619,19.882 0,27.233 -2.8889,3.2864 -7.4805,4.9644 -11.826,4.9644 -4.3361,0 -8.7151,-1.86 -11.786,-4.9644 h -0.03325 c -6.6216,-7.494 -6.279,-19.712 0,-27.233 3.0718,-3.1165 7.4739,-4.9711 11.819,-4.9711 h 1.2e-5 z" />
          <path
             inkscape:connector-curvature="0"
             id="path3939"
             style="text-indent:0;text-transform:none;block-progression:tb;color:#000000;fill:url(#linearGradient4015-2)"
             d="M 47.997,16 C 42.205,16 36.558,18.376 32.461,22.532 28.365,26.688 26,32.434 26,38.313 c 0,5.8788 2.3649,11.618 6.4614,15.774 3.4707,3.5211 8.0543,5.7676 12.896,6.3703 v 1.0886 h -7.9305 v 5.368 h 7.9305 l 1.6117,15.086 h 2.0614 l 1.6117,-15.086 h 7.9305 v -5.368 h -7.9305 v -1.0886 c 4.85,-0.602 9.459,-2.849 12.93,-6.37 4.096,-4.156 6.428,-9.895 6.428,-15.774 0,-5.879 -2.332,-11.625 -6.428,-15.781 -4.097,-4.156 -9.783,-6.532 -15.575,-6.532 z m 0,2.1165 c 4.3454,0 8.8741,1.74 11.826,4.9711 6.7415,7.3794 6.4619,19.882 0,27.233 -2.8889,3.2864 -7.4805,4.9644 -11.826,4.9644 -4.3361,0 -8.7151,-1.86 -11.786,-4.9644 h -0.03325 c -6.6216,-7.494 -6.279,-19.712 0,-27.233 3.0718,-3.1165 7.4739,-4.9711 11.819,-4.9711 h 1.2e-5 z" />
          <path
             inkscape:connector-curvature="0"
             id="path5448"
             style="fill:url(#radialGradient4012-8)"
             d="m 46.547,50.911 c -1.07,-0.12994 -2.952,-0.53403 -3.809,-0.81782 -2.4808,-0.82149 -5.1117,-2.4464 -6.7532,-4.1709 -1.2448,-1.3077 -2.8552,-4.0666 -3.5473,-6.077 -2.195,-6.3761 -1.2407,-9.7461 2.4512,-15.226 1.8184,-2.6987 5.4769,-5.0217 9.4448,-5.9968 1.6862,-0.41439 6.1529,-0.38629 7.7897,0.0491 6.4416,1.7131 10.4,5.7335 12.203,12.393 1.0605,3.9182 0.81727,4.8714 -0.61411,8.7931 -1.8083,4.9545 -4.8332,8.2327 -9.1552,9.9221 -2.3344,0.91249 -5.7907,1.4005 -8.0097,1.131 v -4.7e-5 z" />
          <path
             inkscape:connector-curvature="0"
             id="path5448-8"
             style="fill:url(#radialGradient3991-6)"
             d="m 58.019,41.229 c 0.21515,0.12845 0.57745,0.39022 0.73304,0.53038 0.44986,0.40586 0.85801,0.99096 1.046,1.5036 0.14209,0.38842 0.22754,1.1125 0.18696,1.5943 -0.12819,1.5281 -1.0357,3.0022 -2.3311,3.7866 -0.63792,0.38645 -1.6321,0.52046 -2.5662,0.34622 -0.39668,-0.07416 -1.3434,-0.50323 -1.6506,-0.74858 -1.2088,-0.96538 -1.6753,-2.1727 -1.4372,-3.7222 0.13995,-0.91165 0.67105,-1.9528 1.3409,-2.6291 0.84608,-0.8545 1.7949,-1.246 2.8707,-1.1863 0.58103,0.03212 1.361,0.2589 1.8074,0.52504 z" />
          <path
             inkscape:connector-curvature="0"
             id="path5448-8-3"
             style="fill:url(#radialGradient3988-1)"
             d="m 40.229,24.546 c 0.12299,0.06378 0.33043,0.1941 0.41943,0.26368 0.25741,0.20174 0.49094,0.49266 0.59851,0.7475 0.08132,0.19311 0.13023,0.55312 0.10687,0.79262 -0.07335,0.7597 -0.59259,1.4926 -1.3338,1.8826 -0.365,0.19214 -0.93383,0.25876 -1.4683,0.17229 -0.22699,-0.03684 -0.76868,-0.25017 -0.94445,-0.37216 -0.69172,-0.47997 -0.95859,-1.0802 -0.82236,-1.8505 0.08006,-0.45327 0.38397,-0.97087 0.76725,-1.3071 0.48411,-0.42486 1.027,-0.61951 1.6426,-0.58982 0.33246,0.01649 0.77873,0.12867 1.0342,0.26104 z" />
          <path
             inkscape:connector-curvature="0"
             id="path4115"
             style="text-indent:0;text-transform:none;block-progression:tb;opacity:0.2;color:#000000;fill:#a14505"
             d="M 48,16 C 42.208,16 36.565,18.375 32.469,22.531 28.372,26.687 26,32.434 26,38.312 c 0,5.8788 2.3722,11.625 6.4688,15.781 3.4707,3.5211 8.0331,5.7723 12.875,6.375 v 1.0625 h -7.9062 v 5.375 h 7.9062 l 1.625,15.094 h 2.0625 l 1.625,-15.094 h 7.9062 v -5.375 H 50.6563 V 60.468 c 4.8497,-0.60269 9.4356,-2.8539 12.906,-6.375 4.096,-4.155 6.437,-9.902 6.437,-15.781 0,-5.878 -2.341,-11.625 -6.438,-15.781 C 59.4653,18.375 53.7913,16 47.9993,16 z m 0,1 c 5.5188,0 10.938,2.2558 14.844,6.2188 3.906,3.963 6.156,9.48 6.156,15.093 0,5.6133 -2.2495,11.13 -6.1562,15.094 -3.3111,3.3592 -7.6886,5.4879 -12.312,6.0625 a 1.0002,1.0002 0 0 0 -0.875,1 v 1.0625 a 1.0002,1.0002 0 0 0 1,1 h 6.9062 v 3.375 h -6.9062 a 1.0002,1.0002 0 0 0 -1,0.90625 l -1.532,14.189 h -0.25 l -1.531,-14.188 a 1.0002,1.0002 0 0 0 -1,-0.90625 h -6.9062 v -3.375 h 6.9062 a 1.0002,1.0002 0 0 0 1,-1 v -1.0625 a 1.0002,1.0002 0 0 0 -0.875,-1 c -4.616,-0.574 -8.969,-2.701 -12.281,-6.062 -3.909,-3.965 -6.188,-9.484 -6.188,-15.094 0,-5.609 2.279,-11.128 6.188,-15.093 3.907,-3.965 9.293,-6.219 14.812,-6.219 z m 0,0.125 c -4.6296,0 -9.2637,1.9662 -12.531,5.2812 a 1.0002,1.0002 0 0 0 -0.0625,0.03125 c -6.6086,7.9159 -6.9584,20.621 0.03125,28.531 a 1.0002,1.0002 0 0 0 0.0625,0.0625 1.0002,1.0002 0 0 0 0.21875,0.15625 c 3.2513,3.1849 7.748,5.0938 12.281,5.0938 4.6035,0 9.4394,-1.7597 12.562,-5.3125 6.8233,-7.7622 7.1298,-20.758 0,-28.562 -3.172,-3.474 -7.949,-5.281 -12.561,-5.281 z m 0,1 c 4.3454,0 8.8607,1.7376 11.812,4.9688 6.7415,7.3794 6.4619,19.868 0,27.219 -2.8889,3.2864 -7.4671,4.9688 -11.812,4.9688 -4.3361,0 -8.7103,-1.8643 -11.781,-4.9688 h -0.03125 c -6.6216,-7.494 -6.279,-19.698 0,-27.219 3.071,-3.117 7.467,-4.969 11.812,-4.969 z" />
        </g>
        <g
           transform="translate(182.1875,996.76843)"
           id="layer5">
          <rect
             id="rect3171"
             style="opacity:0.2;fill:url(#linearGradient3107);stroke:#ffffff;stroke-width:0.5;stroke-linecap:round;filter:url(#filter3794-60)"
             clip-path="url(#clipPath3613-02)"
             rx="12"
             ry="12"
             height="66"
             width="66"
             y="15"
             x="15" />
        </g>
      </g>
    </g>
  </g>
</svg>
