<?xml version="1.0" encoding="UTF-8" standalone="no"?>
<!-- Created with Inkscape (http://www.inkscape.org/) -->
<svg id="svg2" xmlns:rdf="http://www.w3.org/1999/02/22-rdf-syntax-ns#" xmlns="http://www.w3.org/2000/svg" height="96" width="96" version="1.1" xmlns:cc="http://creativecommons.org/ns#" xmlns:xlink="http://www.w3.org/1999/xlink" xmlns:dc="http://purl.org/dc/elements/1.1/">
 <defs id="defs4">
  <filter id="filter6279" color-interpolation-filters="sRGB">
   <feGaussianBlur id="feGaussianBlur6281" stdDeviation="0.8"/>
  </filter>
  <linearGradient id="linearGradient23628" x1="48" gradientUnits="userSpaceOnUse" y1="1052.4" gradientTransform="translate(-.78815 -.0000052344)" x2="48" y2="902.36">
   <stop id="stop10385" style="stop-color:#803300" offset="0"/>
   <stop id="stop10387" style="stop-color:#fca" offset="1"/>
  </linearGradient>
  <radialGradient id="radialGradient23632" gradientUnits="userSpaceOnUse" cy="-754.64" cx="152.33" gradientTransform="matrix(.000001198 .084393 -1.2612 0 25.369 459.49)" r="15">
   <stop id="stop10464-0-1" style="stop-color:#808080;stop-opacity:.502" offset="0"/>
   <stop id="stop10466-1-1" style="stop-opacity:0" offset="1"/>
  </radialGradient>
  <linearGradient id="linearGradient23636" x1="850.25" gradientUnits="userSpaceOnUse" y1="-1506.6" gradientTransform="matrix(.31192 0 0 .31171 712.22 937.26)" x2="850.25" y2="-1510.6">
   <stop id="stop10438-49" style="stop-color:#808080" offset="0"/>
   <stop id="stop10440-8" style="stop-color:#333" offset="1"/>
  </linearGradient>
  <linearGradient id="linearGradient23638" x1="809.62" gradientUnits="userSpaceOnUse" y1="-1074.8" gradientTransform="matrix(.66498 0 0 .6217 453.29 1132.6)" x2="809.62" y2="-1116.8">
   <stop id="stop13793-7" style="stop-color:#d36118" offset="0"/>
   <stop id="stop13795-9" style="stop-color:#f09e6f" offset="1"/>
  </linearGradient>
  <linearGradient id="linearGradient23640" x1="812" gradientUnits="userSpaceOnUse" y1="-1075.6" gradientTransform="matrix(.66498 0 0 .65279 453.29 1166.6)" x2="812" y2="-1115.6">
   <stop id="stop9931-0" style="stop-color:#edbfa1" offset="0"/>
   <stop id="stop9933-3" style="stop-color:#fdf1ea" offset="1"/>
  </linearGradient>
  <radialGradient id="radialGradient23642" gradientUnits="userSpaceOnUse" cy="-853" cx="-1535.5" gradientTransform="matrix(-1.0067 0 0 -1.0465 -1081.1 -1870)" r="10">
   <stop id="stop10140-7-6" style="stop-color:#fff" offset="0"/>
   <stop id="stop10142-2-5" style="stop-color:#ffd5d5;stop-opacity:0" offset="1"/>
  </radialGradient>
  <linearGradient id="linearGradient23646" x1="798.25" gradientUnits="userSpaceOnUse" y1="-1589.1" gradientTransform="matrix(.30798 0 0 .33121 715.66 967.37)" x2="902" y2="-1589.1">
   <stop id="stop10228-84" style="stop-color:#8e2103" offset="0"/>
   <stop id="stop10236-7" style="stop-color:#e46f1f" offset=".16905"/>
   <stop id="stop10234-36" style="stop-color:#e66d20" offset=".83809"/>
   <stop id="stop10230-36" style="stop-color:#922504" offset="1"/>
  </linearGradient>
  <linearGradient id="linearGradient23648" x1="902.25" gradientUnits="userSpaceOnUse" y1="-1534.4" gradientTransform="matrix(.34316 0 0 .32903 684.84 962.98)" x2="902.25" y2="-1524.4">
   <stop id="stop10684-2" style="stop-color:#808080" offset="0"/>
   <stop id="stop10686-7" style="stop-color:#606060" offset="1"/>
  </linearGradient>
  <linearGradient id="linearGradient23650" x1="818.03" gradientUnits="userSpaceOnUse" y1="-1575.7" gradientTransform="matrix(.31275 0 0 .35865 711.61 1011.3)" x2="882.24" y2="-1575.7">
   <stop id="stop10369-0" style="stop-color:#8e2103" offset="0"/>
   <stop id="stop10371-84" style="stop-color:#e45c1f" offset=".25"/>
   <stop id="stop10373-5" style="stop-color:#e45c1f" offset=".75"/>
   <stop id="stop10375-3" style="stop-color:#922504" offset="1"/>
  </linearGradient>
  <linearGradient id="linearGradient23652" x1="-17" xlink:href="#linearGradient9014-8-5" gradientUnits="userSpaceOnUse" y1="-1194.6" gradientTransform="matrix(.23766 0 0 .30362 961.71 801.05)" x2="144" y2="-1194.6"/>
  <linearGradient id="linearGradient9014-8-5">
   <stop id="stop9016-9-4" style="stop-color:#fff;stop-opacity:0" offset="0"/>
   <stop id="stop9018-1-2" style="stop-color:#fff" offset=".49306"/>
   <stop id="stop9020-5" style="stop-color:#fff;stop-opacity:0" offset="1"/>
  </linearGradient>
  <linearGradient id="linearGradient23654" x1="-17" xlink:href="#linearGradient8074-2-6-7" gradientUnits="userSpaceOnUse" y1="-1194.6" gradientTransform="matrix(.19895 0 0 .33121 964.81 836.21)" x2="144" y2="-1194.6"/>
  <linearGradient id="linearGradient8074-2-6-7">
   <stop id="stop8076-1-8-4" style="stop-opacity:0" offset="0"/>
   <stop id="stop8078-94-5-9" offset=".49306"/>
   <stop id="stop8080-0-2-4" style="stop-opacity:0" offset="1"/>
  </linearGradient>
  <linearGradient id="linearGradient23656" x1="-17" xlink:href="#linearGradient8074-2-6-7" gradientUnits="userSpaceOnUse" y1="-1194.6" gradientTransform="matrix(.12432 0 0 .35865 969.55 872.86)" x2="144" y2="-1194.6"/>
  <linearGradient id="linearGradient23658" x1="-17" xlink:href="#linearGradient8074-2-6-7" gradientUnits="userSpaceOnUse" y1="-1194.6" gradientTransform="matrix(.23563 0 0 .83715 962.33 1464.6)" x2="144" y2="-1194.6"/>
  <linearGradient id="linearGradient23660" x1="714" gradientUnits="userSpaceOnUse" y1="-1063.6" gradientTransform="matrix(.38574 0 0 .45543 -226.56 546.26)" x2="714" y2="-1079.2">
   <stop id="stop10625-1" style="stop-color:#fff;stop-opacity:0" offset="0"/>
   <stop id="stop10627-7" style="stop-color:#fff;stop-opacity:.86274" offset="1"/>
  </linearGradient>
  <linearGradient id="linearGradient23662" x1="-17" xlink:href="#linearGradient9014-8-5" gradientUnits="userSpaceOnUse" y1="-1194.6" gradientTransform="matrix(.093568 0 0 .30362 50.492 424.28)" x2="144" y2="-1194.6"/>
  <linearGradient id="linearGradient23664" x1="825.25" xlink:href="#linearGradient10658-4" gradientUnits="userSpaceOnUse" y1="-1559.6" gradientTransform="matrix(.26098 0 0 .44081 754.03 1138)" x2="825.25" y2="-1525.6"/>
  <linearGradient id="linearGradient10658-4">
   <stop id="stop10660-5" style="stop-color:#b84603" offset="0"/>
   <stop id="stop10662-1" style="stop-color:#622502" offset="1"/>
  </linearGradient>
  <linearGradient id="linearGradient23666" x1="895.5" xlink:href="#linearGradient10391-0" gradientUnits="userSpaceOnUse" y1="647.81" gradientTransform="matrix(.22817 0 0 .2278 758.07 302.84)" x2="895.5" y2="735.75"/>
  <linearGradient id="linearGradient10391-0">
   <stop id="stop10393-6" style="stop-color:#e67325" offset="0"/>
   <stop id="stop10395-2" style="stop-color:#c8400c" offset="1"/>
  </linearGradient>
  <linearGradient id="linearGradient23668" x1="-17" xlink:href="#linearGradient8074-2-6-7" gradientUnits="userSpaceOnUse" y1="-1194.6" gradientTransform="matrix(.04863 0 0 .44081 966.26 977.09)" x2="144" y2="-1194.6"/>
  <linearGradient id="linearGradient23672" x1="825.25" xlink:href="#linearGradient10658-4" gradientUnits="userSpaceOnUse" y1="-1559.6" gradientTransform="matrix(.26098 0 0 .44081 754.03 1142)" x2="825.25" y2="-1525.6"/>
  <linearGradient id="linearGradient23674" x1="895.5" xlink:href="#linearGradient10391-0" gradientUnits="userSpaceOnUse" y1="647.81" gradientTransform="matrix(.22817 0 0 .2278 758.07 306.84)" x2="895.5" y2="735.75"/>
  <linearGradient id="linearGradient23676" x1="-17" xlink:href="#linearGradient8074-2-6-7" gradientUnits="userSpaceOnUse" y1="-1194.6" gradientTransform="matrix(.04863 0 0 .44081 966.26 981.09)" x2="144" y2="-1194.6"/>
  <linearGradient id="linearGradient23678" x1="825.25" xlink:href="#linearGradient10658-4" gradientUnits="userSpaceOnUse" y1="-1559.6" gradientTransform="matrix(.26098 0 0 .44081 754.03 1146)" x2="825.25" y2="-1525.6"/>
  <linearGradient id="linearGradient23680" x1="895.5" xlink:href="#linearGradient10391-0" gradientUnits="userSpaceOnUse" y1="647.81" gradientTransform="matrix(.22817 0 0 .2278 758.07 310.84)" x2="895.5" y2="735.75"/>
  <linearGradient id="linearGradient23682" x1="-17" xlink:href="#linearGradient8074-2-6-7" gradientUnits="userSpaceOnUse" y1="-1194.6" gradientTransform="matrix(.04863 0 0 .44081 966.26 985.09)" x2="144" y2="-1194.6"/>
  <linearGradient id="linearGradient23684" x1="-17" xlink:href="#linearGradient8074-2-6-7" gradientUnits="userSpaceOnUse" y1="-1194.6" gradientTransform="matrix(.11065 0 0 .83715 978.5 1460.6)" x2="144" y2="-1194.6"/>
  <linearGradient id="linearGradient23686" x1="889" gradientUnits="userSpaceOnUse" y1="-1054.6" gradientTransform="matrix(.65408 0 0 .60724 405.63 1093)" x2="879" y2="-1042.6">
   <stop id="stop13216-7-1" style="stop-color:#18a303" offset="0"/>
   <stop id="stop13218-6-1" style="stop-color:#106802" offset="1"/>
  </linearGradient>
  <radialGradient id="radialGradient3426" gradientUnits="userSpaceOnUse" cy="-754.64" cx="152.33" gradientTransform="matrix(2.4752e-7 .052746 -.26059 0 773.68 465.1)" r="15">
   <stop id="stop16136-6-3-7-5" style="stop-opacity:.50196" offset="0"/>
   <stop id="stop16138-4-6-2-2" style="stop-opacity:0" offset="1"/>
  </radialGradient>
  <linearGradient id="linearGradient3428" x1="850.25" gradientUnits="userSpaceOnUse" y1="-1506.6" gradientTransform="matrix(.31192 0 0 .31171 712.22 938.26)" x2="850.25" y2="-1510.6">
   <stop id="stop10425-1" style="stop-color:#808080" offset="0"/>
   <stop id="stop10427-3" style="stop-color:#333" offset="1"/>
  </linearGradient>
  <linearGradient id="linearGradient3430" x1="529.25" gradientUnits="userSpaceOnUse" y1="-1568.6" gradientTransform="matrix(.54507 0 0 1.992 670.09 3588)" x2="535" y2="-1574.6">
   <stop id="stop10146-2" style="stop-color:#f00" offset="0"/>
   <stop id="stop10148-3" style="stop-color:#ffc600;stop-opacity:0" offset="1"/>
  </linearGradient>
  <linearGradient id="linearGradient3432" x1="-17" gradientUnits="userSpaceOnUse" y1="-1194.6" gradientTransform="matrix(.15464 0 0 1.013 441.57 250.78)" x2="144" y2="-1194.6">
   <stop id="stop11602-4" style="stop-color:#d40000;stop-opacity:0" offset="0"/>
   <stop id="stop11604-5" style="stop-color:#d40000" offset=".49306"/>
   <stop id="stop11606-6" style="stop-color:#d40000;stop-opacity:0" offset="1"/>
  </linearGradient>
 </defs>
 <metadata id="metadata7">
  <rdf:RDF>
   <cc:Work rdf:about="">
    <dc:format>image/svg+xml</dc:format>
    <dc:type rdf:resource="http://purl.org/dc/dcmitype/StillImage"/>
    <dc:title/>
   </cc:Work>
  </rdf:RDF>
 </metadata>
 <g id="layer1" transform="translate(0 -956.36)">
  <g id="g23573" transform="translate(2.861e-8 -.000012354)">
   <rect id="rect9859" ry="5" style="filter:url(#filter6279)" rx="5" transform="translate(0 -.0000052344)" height="80" width="80" y="964.36" x="8"/>
   <rect id="rect9861" style="fill:url(#linearGradient23628)" rx="5" ry="5" height="80" width="80" y="964.36" x="7.2119"/>
   <path id="rect3789-1-4" style="fill:#fff" transform="translate(0 956.36)" d="m18.781 15.5c-2.2506 0-4.0625 1.8119-4.0625 4.0625v56.875c0 2.2506 1.8119 4.0625 4.0625 4.0625h56.875c2.2506 0 4.0625-1.8119 4.0625-4.0625v-56.875c0-2.2506-1.8119-4.0625-4.0625-4.0625h-56.875zm4.375 5h48.125c1.9044 0 3.4375 1.5331 3.4375 3.4375v48.125c0 1.9044-1.5331 3.4375-3.4375 3.4375h-48.125c-1.9044 0-3.4375-1.5331-3.4375-3.4375v-48.125c0-1.9044 1.5331-3.4375 3.4375-3.4375z"/>
   <g id="g6922" transform="translate(-930.16 549.12)">
    <rect id="rect10490-4" style="opacity:.5;color:#000000;fill:url(#radialGradient3426)" height="1.5586" width="7.7981" y="472.37" x="966.44"/>
    <rect id="rect10563" style="opacity:.4;color:#000000;fill:url(#radialGradient23632)" height="2.4937" width="37.743" y="471.12" x="958.33"/>
    <path id="path10476" style="fill:#4d4d4d" d="m976.18 468-7.5618 4.9874h3.0471l1.06-0.34725 5.8745-4.6401z"/>
    <use id="use14177" xlink:href="#path10476" transform="matrix(-1 0 0 1 1954.4 0)" height="1085" width="5033" y="0" x="0"/>
    <path id="path10478" style="fill:#4d4d4d" d="m978.6 468 7.4862 4.9874h-3.1228l-0.96266-0.27368-5.8962-4.7137z"/>
    <path id="path9896" style="fill:url(#linearGradient3428)" d="m975.56 468-7.5618 4.9874h3.6675l6.3141-4.9874h-2.4198z"/>
    <use id="use14179" xlink:href="#path9896" transform="matrix(-1 0 0 1 1954.4 0)" height="1085" width="5033" y="0" x="0"/>
    <path id="rect9898" style="color:#000000;fill:url(#linearGradient23636)" d="m975.48 465.76h3.7431v2.8703h-3.7431z"/>
    <rect id="rect9902" style="color:#000000;fill:#a33e03" rx=".34474" ry=".32592" height="29.984" width="44.127" y="436.35" x="955.29"/>
    <rect id="rect9904" style="color:#000000;fill:url(#linearGradient23638)" rx=".65408" ry=".60724" height="26.111" width="39.899" y="438.34" x="957.34"/>
    <rect id="rect9906" style="color:#000000;fill:url(#linearGradient23640)" rx=".65408" ry=".60724" height="26.111" width="39.899" y="438.34" x="957.34"/>
    <rect id="rect10090" style="color:#000000;fill:url(#radialGradient23642)" transform="rotate(90)" height="20.93" width="9.7159" y="-987.76" x="454.73"/>
    <rect id="rect10082" style="opacity:.35;color:#000000;fill:url(#linearGradient3430)" rx=".65408" ry=".56913" height="23.904" width="6.5408" y="439.4" x="958.43"/>
    <rect id="rect10603" style="opacity:.5;color:#000000;fill:#fff" height="11.616" width="17.768" y="450.48" x="976.53"/>
    <rect id="rect10287" style="color:#000000;fill:#fff" height="2.2803" width="32.03" y="440.53" x="961.43"/>
    <rect id="rect9922" style="color:#000000;fill:url(#linearGradient23646)" height="1.6561" width="32.03" y="440.54" x="961.43"/>
    <rect id="rect9926" style="color:#000000;fill:url(#linearGradient23648)" height="11.845" width="17.844" y="449.49" x="976.53"/>
    <rect id="rect10289" style="color:#000000;fill:#fff" height="2.3565" width="20.016" y="444.41" x="967.44"/>
    <rect id="rect9948" style="color:#000000;fill:url(#linearGradient23650)" height="1.7932" width="20.016" y="444.41" x="967.44"/>
    <rect id="rect10100" style="color:#000000;fill:url(#linearGradient23652)" height=".30363" width="38.264" y="438.34" x="957.67"/>
    <rect id="rect10320" style="opacity:.25;color:#000000;fill:url(#linearGradient23654)" height=".33122" width="32.03" y="440.54" x="961.43"/>
    <rect id="rect10324" style="opacity:.5;color:#000000;fill:url(#linearGradient23656)" height=".35865" width="20.016" y="444.41" x="967.44"/>
    <rect id="rect10448" style="opacity:.3;color:#000000;fill:url(#linearGradient23658)" height=".83716" width="37.937" y="464.45" x="958.32"/>
    <g id="g12449" transform="matrix(1.0555 0 0 1.1002 925.87 392.38)">
     <rect id="rect9928" style="color:#000000;fill:#dfdfdf" height="9.1086" width="15.044" y="52.734" x="48.853"/>
     <rect id="rect9930" style="color:#000000;fill:url(#linearGradient23660)" height="9.1086" width="15.044" y="52.734" x="48.853"/>
     <rect id="rect10638" style="color:#000000;fill:url(#linearGradient23662)" height=".30363" width="15.064" y="61.558" x="48.902"/>
    </g>
    <rect id="rect10204" style="opacity:.5;color:#000000;fill:#fff" height="1.7633" width="7.8295" y="450.92" x="965.43"/>
    <rect id="rect9910" style="color:#000000;fill:url(#linearGradient23664)" height="1.7633" width="7.8295" y="450.48" x="965.43"/>
    <path id="path12363" style="opacity:.5;color:#000000;fill:#fff" d="m963.65 451.88a1.2549 1.196 0 0 1 -2.5099 0 1.2549 1.196 0 1 1 2.5099 0z"/>
    <path id="path9916" style="color:#000000;fill:url(#linearGradient23666)" d="m963.65 451.31a1.2549 1.196 0 0 1 -2.5099 0 1.2549 1.196 0 1 1 2.5099 0z"/>
    <rect id="rect10652" style="opacity:.25;color:#000000;fill:url(#linearGradient23668)" height=".44082" width="7.8295" y="450.48" x="965.43"/>
    <rect id="rect11596" style="opacity:.15;color:#000000;fill:url(#linearGradient3432)" transform="rotate(90)" height="1.013" width="24.897" y="-959.38" x="438.94"/>
    <use id="use14089" xlink:href="#rect10082" transform="matrix(-1 0 0 .97232 1954.7 13.101)" height="1085" width="5033" y="0" x="0"/>
    <use id="use14175" xlink:href="#rect10490-4" transform="matrix(-1 0 0 1 1954.4 0)" height="1085" width="5033" y="0" x="0"/>
    <rect id="rect12384" style="opacity:.5;color:#000000;fill:#fff" height="1.7633" width="7.8295" y="454.92" x="965.43"/>
    <rect id="rect12386" style="color:#000000;fill:url(#linearGradient23672)" height="1.7633" width="7.8295" y="454.48" x="965.43"/>
    <path id="path12388" style="opacity:.5;color:#000000;fill:#fff" d="m963.65 455.88a1.2549 1.196 0 0 1 -2.5099 0 1.2549 1.196 0 1 1 2.5099 0z"/>
    <path id="path12390" style="color:#000000;fill:url(#linearGradient23674)" d="m963.65 455.31a1.2549 1.196 0 0 1 -2.5099 0 1.2549 1.196 0 1 1 2.5099 0z"/>
    <rect id="rect12392" style="opacity:.25;color:#000000;fill:url(#linearGradient23676)" height=".44082" width="7.8295" y="454.48" x="965.43"/>
    <rect id="rect12402" style="opacity:.5;color:#000000;fill:#fff" height="1.7633" width="7.8295" y="458.92" x="965.43"/>
    <rect id="rect12404" style="color:#000000;fill:url(#linearGradient23678)" height="1.7633" width="7.8295" y="458.48" x="965.43"/>
    <path id="path12406" style="opacity:.5;color:#000000;fill:#fff" d="m963.65 459.88a1.2549 1.196 0 0 1 -2.5099 0 1.2549 1.196 0 1 1 2.5099 0z"/>
    <path id="path12408" style="color:#000000;fill:url(#linearGradient23680)" d="m963.65 459.31a1.2549 1.196 0 0 1 -2.5099 0 1.2549 1.196 0 1 1 2.5099 0z"/>
    <rect id="rect12410" style="opacity:.25;color:#000000;fill:url(#linearGradient23682)" height=".44082" width="7.8295" y="458.48" x="965.43"/>
    <use id="use14087" xlink:href="#rect11596" transform="matrix(1 0 0 .9602 37.079 17.851)" height="1085" width="5033" y="0" x="0"/>
    <rect id="rect12458" style="opacity:.3;color:#000000;fill:url(#linearGradient23684)" height=".83716" width="17.815" y="460.48" x="976.62"/>
    <path id="path9942" style="opacity:.8;stroke-linejoin:round;stroke:url(#linearGradient23686);stroke-linecap:round;stroke-width:1.5;fill:none" d="m980.39 458.38 4.131-4.4069 1.9303 3.496 4.9056-4.5543"/>
   </g>
  </g>
 </g>
</svg>
