<?xml version="1.0" encoding="UTF-8" standalone="no"?>
<!-- Created with Inkscape (http://www.inkscape.org/) -->
<svg id="svg2" xmlns:rdf="http://www.w3.org/1999/02/22-rdf-syntax-ns#" xmlns="http://www.w3.org/2000/svg" height="96" width="96" version="1.1" xmlns:cc="http://creativecommons.org/ns#" xmlns:xlink="http://www.w3.org/1999/xlink" xmlns:dc="http://purl.org/dc/elements/1.1/">
 <defs id="defs4">
  <filter id="filter6279-2" color-interpolation-filters="sRGB">
   <feGaussianBlur id="feGaussianBlur6281-1" stdDeviation="0.8"/>
  </filter>
  <linearGradient id="linearGradient6103" y2="902.36" xlink:href="#linearGradient3658" gradientUnits="userSpaceOnUse" x2="48" gradientTransform="translate(0 -.0000078516)" y1="1052.4" x1="48"/>
  <linearGradient id="linearGradient3658">
   <stop id="stop3660" style="stop-color:#ff9604" offset="0"/>
   <stop id="stop3662" style="stop-color:#fff580" offset="1"/>
  </linearGradient>
  <linearGradient id="linearGradient3689-3" y2="5.9877" xlink:href="#linearGradient3700-86" gradientUnits="userSpaceOnUse" x2="48" y1="90" x1="48"/>
  <linearGradient id="linearGradient3700-86">
   <stop id="stop3702-048" style="stop-color:#dcdcdc" offset="0"/>
   <stop id="stop3704-88" style="stop-color:#f0f0f0" offset="1"/>
  </linearGradient>
  <linearGradient id="linearGradient3701-9" y2="80" xlink:href="#linearGradient3641-7" gradientUnits="userSpaceOnUse" x2="48" gradientTransform="translate(100)" y1="32" x1="48"/>
  <linearGradient id="linearGradient3641-7">
   <stop id="stop3643-7" offset="0"/>
   <stop id="stop3645-6" style="stop-opacity:0" offset="1"/>
  </linearGradient>
  <clipPath id="clipPath3696-4">
   <rect id="rect3698-3" style="fill:#f0f" rx="6" ry="6" height="84" width="84" y="6" x="106"/>
  </clipPath>
  <filter id="filter3665-0" color-interpolation-filters="sRGB">
   <feGaussianBlur id="feGaussianBlur3667-3" stdDeviation="0.69"/>
  </filter>
  <linearGradient id="linearGradient3635-0" y2="36" gradientUnits="userSpaceOnUse" x2="48" y1="88" x1="48">
   <stop id="stop3729-2" style="stop-color:#d5d5d5" offset="0"/>
   <stop id="stop3731-5" style="stop-color:#f1f1f1" offset="1"/>
  </linearGradient>
  <linearGradient id="linearGradient3707-4" y2="21" xlink:href="#linearGradient3641-7" gradientUnits="userSpaceOnUse" x2="51" gradientTransform="translate(100,-1)" y1="62" x1="51"/>
  <clipPath id="clipPath3703-4">
   <rect id="rect3705-6" style="fill:#f0f" rx="6" ry="6" height="84" width="84" y="6" x="106"/>
  </clipPath>
  <filter id="filter3649-9" color-interpolation-filters="sRGB">
   <feGaussianBlur id="feGaussianBlur3651-2" stdDeviation="1.38"/>
  </filter>
  <linearGradient id="linearGradient3627-2" y2="32" xlink:href="#linearGradient3700-86" gradientUnits="userSpaceOnUse" x2="48" y1="88" x1="48"/>
  <linearGradient id="linearGradient3206-4" y2="4.9937" xlink:href="#linearGradient3658" gradientUnits="userSpaceOnUse" x2="10.541" gradientTransform="matrix(3.3567 .17689 -.17683 3.3574 35.814 32.089)" y1="15.373" x1="11.087"/>
  <linearGradient id="linearGradient3203" y2="13.665" gradientUnits="userSpaceOnUse" x2="11.5" gradientTransform="matrix(3.3567 .17689 -.17683 3.3574 35.814 32.089)" y1="4.1597" x1="10.999">
   <stop id="stop3739-5-3" style="stop-color:#fff" offset="0"/>
   <stop id="stop3741-7-9" style="stop-color:#fff;stop-opacity:0" offset="1"/>
  </linearGradient>
 </defs>
 <metadata id="metadata7">
  <rdf:RDF>
   <cc:Work rdf:about="">
    <dc:format>image/svg+xml</dc:format>
    <dc:type rdf:resource="http://purl.org/dc/dcmitype/StillImage"/>
    <dc:title/>
   </cc:Work>
  </rdf:RDF>
 </metadata>
 <g id="layer1" transform="translate(0 -956.36)">
  <g id="g6874" transform="translate(2.861e-8 -.0000097370)">
   <rect id="rect9283" ry="5" style="filter:url(#filter6279-2)" rx="5" transform="translate(0 -.0000078516)" height="80" width="80" y="964.36" x="8"/>
   <rect id="rect9285" style="opacity:.9;fill:url(#linearGradient6103)" rx="5" ry="5" height="80" width="80" y="964.36" x="8"/>
   <g id="g26594" transform="translate(-182.19 -40.406)">
    <g id="layer1-5" transform="matrix(.65476 0 0 .65476 198.76 1013.3)">
     <rect id="rect2419" style="fill:url(#linearGradient3689-3)" rx="6" ry="6" height="84" width="84" y="6" x="6"/>
     <path id="path3653" style="opacity:.3;filter:url(#filter3665-0);fill:url(#linearGradient3701-9)" d="m112 89c-3.324 0-6-2.676-6-6v-6l42-42 42 42v6c0 3.324-2.676 6-6 6h-72z" clip-path="url(#clipPath3696-4)" transform="translate(-100,-1)"/>
     <path id="path3619" d="m12 90c-3.324 0-6-2.676-6-6v-6l42-42 42 42v6c0 3.324-2.676 6-6 6h-72z" style="fill:url(#linearGradient3635-0)"/>
     <path id="path3718" d="m48 36-42 42v1l42-42 42 42v-1l-42-42z" style="opacity:.4;fill:#fff"/>
     <path id="path3637" style="opacity:.4;filter:url(#filter3649-9);fill:url(#linearGradient3707-4)" d="m112 7c-3.324 0-6 2.676-6 6v6l42 42 42-42v-6c0-3.324-2.676-6-6-6h-72z" clip-path="url(#clipPath3703-4)" transform="translate(-100,1)"/>
     <path id="path3613" d="m12 6c-3.324 0-6 2.676-6 6v6l42 42 42-42v-6c0-3.324-2.676-6-6-6h-72z" style="fill:url(#linearGradient3627-2)"/>
     <path id="path3709" d="m6 17v1l42 42 42-42v-1l-42 42-42-42z" style="opacity:.6;fill:#fff"/>
    </g>
    <g id="g3212" transform="translate(169.69 987.27)">
     <path id="path3748" d="m52 63.828 12.216-2.1105 5.7878-10.965 5.7818 10.968 12.215 2.1174-8.6424 8.8891l1.76 12.273-11.123-5.474-11.126 5.468 1.768-12.273z" style="fill:url(#linearGradient3206-4)"/>
     <path id="path4018" d="m70 50.75-5.781 10.969-12.219 2.093 8.625 8.907-1.75 12.281 11.125-5.469 11.125 5.469-1.781-12.281 8.656-8.875-12.219-2.125zm-0.03125 3.0625 3.8125 7.2188c0.43138 0.63521 0.56567 1.5512 1.25 1.9688 3.3113 0.63954 6.6463 1.1533 9.9688 1.75l-5.6562 5.7188c-0.49872 0.63221-1.3792 1.0342-1.5312 1.875 0.45108 3.3307 0.98622 6.672 1.4688 10l-7.3125-3.5625c-0.70394-0.256-1.3561-0.8582-2.125-0.84375-3.0739 1.4099-6.0999 2.9497-9.1562 4.4062l1.186-8.219c0.01799-0.73825 0.42072-1.5161 0.09375-2.2188-2.278-2.413-4.608-4.762-6.907-7.156l8-1.4375c0.72842-0.21678 1.6155-0.11807 2.2188-0.625 1.6017-2.9315 3.1193-5.9225 4.6875-8.875z" style="opacity:.8;fill:url(#linearGradient3203)"/>
     <path id="path4094" d="m70 78.531-10.969 5.407-0.156 1.062 11.125-5.469 11.125 5.469-0.156-1.062z" style="opacity:.3;fill:#a40"/>
    </g>
   </g>
  </g>
 </g>
</svg>
