<?xml version="1.0" encoding="UTF-8" standalone="no"?>
<!-- Created with Inkscape (http://www.inkscape.org/) -->

<svg
   xmlns:dc="http://purl.org/dc/elements/1.1/"
   xmlns:cc="http://creativecommons.org/ns#"
   xmlns:rdf="http://www.w3.org/1999/02/22-rdf-syntax-ns#"
   xmlns:svg="http://www.w3.org/2000/svg"
   xmlns="http://www.w3.org/2000/svg"
   xmlns:xlink="http://www.w3.org/1999/xlink"
   xmlns:sodipodi="http://sodipodi.sourceforge.net/DTD/sodipodi-0.dtd"
   xmlns:inkscape="http://www.inkscape.org/namespaces/inkscape"
   width="96"
   height="96"
   id="svg2"
   version="1.1"
   inkscape:version="0.48.1 r9760"
   sodipodi:docname="meld.svg">
  <defs
     id="defs4">
    <filter
       color-interpolation-filters="sRGB"
       inkscape:collect="always"
       id="filter6279">
      <feGaussianBlur
         inkscape:collect="always"
         stdDeviation="0.8"
         id="feGaussianBlur6281" />
    </filter>
    <linearGradient
       inkscape:collect="always"
       xlink:href="#linearGradient6455"
       id="linearGradient10902-1"
       gradientUnits="userSpaceOnUse"
       gradientTransform="translate(0,-9.6171873e-6)"
       x1="48"
       y1="1052.3622"
       x2="48"
       y2="902.36218" />
    <linearGradient
       id="linearGradient6455">
      <stop
         id="stop6457"
         style="stop-color:#fdb245;stop-opacity:1"
         offset="0" />
      <stop
         id="stop6459"
         style="stop-color:#f57900;stop-opacity:1"
         offset="1" />
    </linearGradient>
    <clipPath
       id="clipPath4000">
      <rect
         width="84"
         height="84"
         rx="6"
         ry="6"
         x="36"
         y="-90"
         transform="scale(1,-1)"
         id="rect4002"
         style="fill:#ff00ff;fill-opacity:1;fill-rule:nonzero;stroke:none" />
    </clipPath>
    <radialGradient
       cx="48"
       cy="48"
       r="42"
       fx="48"
       fy="48"
       id="radialGradient4004"
       xlink:href="#linearGradient6661"
       gradientUnits="userSpaceOnUse"
       gradientTransform="translate(30,0)" />
    <linearGradient
       id="linearGradient6661">
      <stop
         id="stop6663"
         style="stop-color:#a4c1e0;stop-opacity:1"
         offset="0" />
      <stop
         id="stop6665"
         style="stop-color:#3465a4;stop-opacity:1"
         offset="1" />
    </linearGradient>
    <linearGradient
       y2="138.66119"
       x2="48"
       y1="20.220806"
       x1="48"
       gradientUnits="userSpaceOnUse"
       id="linearGradient3157-9"
       xlink:href="#linearGradient3737-373"
       inkscape:collect="always" />
    <linearGradient
       id="linearGradient3737-373">
      <stop
         id="stop3739-47"
         style="stop-color:#ffffff;stop-opacity:1"
         offset="0" />
      <stop
         id="stop3741-21"
         style="stop-color:#ffffff;stop-opacity:0"
         offset="1" />
    </linearGradient>
    <clipPath
       id="clipPath3613-7">
      <rect
         width="84"
         height="84"
         rx="6"
         ry="6"
         x="6"
         y="6"
         id="rect3615-9"
         style="fill:#ffffff;fill-opacity:1;fill-rule:nonzero;stroke:none" />
    </clipPath>
    <filter
       x="-0.192"
       y="-0.192"
       width="1.3839999"
       height="1.3839999"
       color-interpolation-filters="sRGB"
       id="filter3794-56">
      <feGaussianBlur
         id="feGaussianBlur3796-8"
         stdDeviation="5.28" />
    </filter>
  </defs>
  <sodipodi:namedview
     id="base"
     pagecolor="#ffffff"
     bordercolor="#666666"
     borderopacity="1.0"
     inkscape:pageopacity="0.0"
     inkscape:pageshadow="2"
     inkscape:zoom="3.959798"
     inkscape:cx="28.389459"
     inkscape:cy="47.38849"
     inkscape:document-units="px"
     inkscape:current-layer="layer1"
     showgrid="false"
     inkscape:window-width="1280"
     inkscape:window-height="725"
     inkscape:window-x="0"
     inkscape:window-y="25"
     inkscape:window-maximized="1" />
  <metadata
     id="metadata7">
    <rdf:RDF>
      <cc:Work
         rdf:about="">
        <dc:format>image/svg+xml</dc:format>
        <dc:type
           rdf:resource="http://purl.org/dc/dcmitype/StillImage" />
        <dc:title></dc:title>
      </cc:Work>
    </rdf:RDF>
  </metadata>
  <g
     inkscape:label="Layer 1"
     inkscape:groupmode="layer"
     id="layer1"
     transform="translate(0,-956.36217)">
    <g
       transform="translate(-182.1875,-40.40626)"
       id="g5969">
      <rect
         y="964.36218"
         x="8"
         height="80"
         width="80"
         id="rect9283"
         style="fill:#000000;fill-opacity:1;stroke:none;filter:url(#filter6279)"
         rx="5"
         ry="5"
         transform="translate(182.1875,40.40625)" />
      <rect
         ry="5"
         rx="5"
         style="fill:url(#linearGradient10902-1);fill-opacity:1;stroke:none"
         id="rect9285"
         width="80"
         height="80"
         x="8"
         y="964.36218"
         transform="translate(182.1875,40.40625)" />
      <g
         id="g6771">
        <g
           transform="matrix(0.6547619,0,0,0.6547619,179.11607,1013.3399)"
           clip-path="url(#clipPath4000)"
           id="g3996">
          <path
             d="m 61.8125,6 c -10.565136,7.479706 -17.813504,19.080305 -17.21875,33.0625 0.615512,14.470158 12.41706,28.991205 28.5,27.25 9.18833,-0.994766 16.53558,-9.730037 11.84375,-17.1875 -1.49046,-2.369027 -5.11021,-2.573218 -6.8125,-1.4375 8.17954,-0.230773 4.1866,9.512607 -3,11 -9.817193,2.031839 -17.351217,-7.454397 -18.03125,-16.28125 -1.270807,-16.49509 14.68104,-28.178464 29.9375,-28.125 14.38906,0.05043 26.05971,8.295863 32.96875,19.75 L 120,12 c 0,-3.324 -2.676,-6 -6,-6 L 61.8125,6 z m 24.03125,23.53125 c -0.47014,-0.006 -0.95892,0.0088 -1.4375,0.03125 -0.49402,0.02315 -0.99741,0.07059 -1.5,0.125 -9.18833,0.994766 -16.535579,9.730037 -11.84375,17.1875 1.49046,2.369027 5.11021,2.573218 6.8125,1.4375 -8.179537,0.230773 -4.1866,-9.512607 3,-11 9.81719,-2.031839 17.35122,7.454397 18.03125,16.28125 1.27081,16.49509 -14.68104,28.178464 -29.9375,28.125 C 54.579689,81.668325 42.909037,73.422887 36,61.96875 L 36,84 c 0,3.324 2.676,6 6,6 l 52.1875,0 C 104.75264,82.520294 112.001,70.919695 111.40625,56.9375 110.82861,43.357595 100.41799,29.717653 85.84375,29.53125 z"
             inkscape:connector-curvature="0"
             id="path4051"
             style="fill:url(#radialGradient4004);fill-opacity:1;stroke:none" />
          <path
             d="m 87.03125,14.28125 c -14.886546,-0.05217 -30.435349,11.074004 -30,26.9375 0.2294,-15.328023 15.428798,-25.988563 30,-25.9375 14.38906,0.05043 26.05971,8.295863 32.96875,19.75 l 0,-1 c -6.90904,-11.454137 -18.57969,-19.69957 -32.96875,-19.75 z m -3.46875,22.75 c -0.876462,-0.0019 -1.767138,0.09076 -2.6875,0.28125 -4.652366,0.962889 -7.960418,5.375565 -7.5,8.3125 0.290104,-2.854852 3.349248,-6.453429 7.5,-7.3125 9.81719,-2.031839 17.35122,7.454397 18.03125,16.28125 0.03081,0.399946 0.05168,0.79331 0.0625,1.1875 0.01079,-0.72085 -0.0054,-1.446607 -0.0625,-2.1875 C 98.289973,45.594414 92.034962,37.050074 83.5625,37.03125 z M 44.59375,39.0625 c 0.0053,0.334082 -0.01433,0.663129 0,1 0.615512,14.470158 12.41706,28.991205 28.5,27.25 7.452493,-0.806837 13.692476,-6.695848 13.28125,-12.875 -0.289875,5.794884 -6.24024,11.112712 -13.28125,11.875 -16.08294,1.741205 -27.884488,-12.779842 -28.5,-27.25 z M 69.625,42.59375 c -0.08184,1.757603 0.347343,3.548492 1.4375,5.28125 1.49046,2.369027 5.11021,2.573218 6.8125,1.4375 -1.022442,0.02885 -1.840411,-0.09651 -2.5,-0.34375 -1.607069,0.0092 -3.380962,-0.613108 -4.3125,-2.09375 -0.879718,-1.398274 -1.337057,-2.852577 -1.4375,-4.28125 z m 11,5.4375 c -0.964242,0.0055 -1.861641,0.230356 -2.5,0.65625 2.811717,-0.07933 4.200273,1.025144 4.5,2.5625 0.103201,-1.415913 -0.475973,-2.647485 -2,-3.21875 z M 111.4375,59.6875 C 111.03976,72.43988 104.05171,83.016523 94.1875,90 L 42,90 c -3.324,0 -6,-2.676 -6,-6 l 0,1 c 0,3.324 2.676,6 6,6 l 52.1875,0 c 10.11959,-7.164275 17.19376,-18.11532 17.25,-31.3125 z"
             inkscape:connector-curvature="0"
             id="path3987"
             style="opacity:0.3;fill:#ffffff;fill-opacity:1;stroke:none" />
          <path
             d="M 31.8125,5 C 21.692913,12.164275 14.618735,23.11532 14.5625,36.3125 14.96024,23.56012 21.948291,12.983477 31.8125,6 L 84,6 c 3.324,0 6,2.676 6,6 l 0,-1 C 90,7.676 87.324,5 84,5 L 31.8125,5 z m 24.03125,23.53125 c -0.47014,-0.006 -0.95892,0.0088 -1.4375,0.03125 -0.49402,0.02315 -0.99741,0.07059 -1.5,0.125 -7.452493,0.806837 -13.692475,6.695848 -13.28125,12.875 0.289876,-5.794884 6.24024,-11.112712 13.28125,-11.875 0.50259,-0.05441 1.00598,-0.10185 1.5,-0.125 0.47858,-0.02245 0.96736,-0.03725 1.4375,-0.03125 14.57424,0.186403 24.98486,13.826345 25.5625,27.40625 -0.0053,-0.334082 0.01433,-0.663129 0,-1 C 80.82861,42.357595 70.41799,28.717653 55.84375,28.53125 z m -28.8125,11.6875 c -0.01079,0.72085 0.0054,1.446607 0.0625,2.1875 0.680033,8.826853 8.214057,18.313089 18.03125,16.28125 4.652366,-0.962889 7.960417,-5.375565 7.5,-8.3125 -0.290104,2.854852 -3.349248,6.453429 -7.5,7.3125 -9.817193,2.031839 -17.351217,-7.454397 -18.03125,-16.28125 -0.03081,-0.399946 -0.05168,-0.79331 -0.0625,-1.1875 z M 43.375,44.75 c -0.103201,1.415913 0.475973,2.647485 2,3.21875 0.964242,-0.0055 1.861641,-0.230356 2.5,-0.65625 -2.811716,0.07933 -4.200273,-1.025144 -4.5,-2.5625 z m 7.25,1.28125 c -0.964242,0.0055 -1.861641,0.230356 -2.5,0.65625 1.022442,-0.02885 1.840411,0.09651 2.5,0.34375 1.607069,-0.0092 3.380963,0.613108 4.3125,2.09375 0.879718,1.398274 1.337057,2.852577 1.4375,4.28125 0.08184,-1.757603 -0.347343,-3.548492 -1.4375,-5.28125 -0.931537,-1.480642 -2.705431,-2.102988 -4.3125,-2.09375 z m 18.34375,8.75 c -0.229397,15.328023 -15.428798,25.988563 -30,25.9375 C 24.579689,80.668325 12.909037,72.422887 6,60.96875 l 0,1 c 6.909037,11.454137 18.579689,19.699575 32.96875,19.75 14.886546,0.05217 30.435352,-11.074004 30,-26.9375 z"
             inkscape:connector-curvature="0"
             transform="translate(30,0)"
             id="path4006"
             style="fill:#ce5c00;fill-opacity:1;stroke:none" />
          <path
             d="M 31.8125,6 C 21.692913,13.164275 14.618735,24.11532 14.5625,37.3125 14.96024,24.56012 21.948291,13.983477 31.8125,7 l 2.018239,-1 z m 24.03125,23.53125 c -0.47014,-0.006 -0.95892,0.0088 -1.4375,0.03125 -0.49402,0.02315 -0.99741,0.07059 -1.5,0.125 -7.452493,0.806837 -13.692475,6.695848 -13.28125,12.875 0.289876,-5.794884 6.24024,-11.112712 13.28125,-11.875 0.50259,-0.05441 1.00598,-0.10185 1.5,-0.125 0.47858,-0.02245 0.96736,-0.03725 1.4375,-0.03125 14.57424,0.186403 24.98486,13.826345 25.5625,27.40625 -0.0053,-0.334082 0.01433,-0.663129 0,-1 C 80.82861,43.357595 70.41799,29.717653 55.84375,29.53125 z m -28.8125,11.6875 c -0.01079,0.72085 0.0054,1.446607 0.0625,2.1875 0.680033,8.826853 8.214057,18.313089 18.03125,16.28125 4.652366,-0.962889 7.960417,-5.375565 7.5,-8.3125 -0.290104,2.854852 -3.349248,6.453429 -7.5,7.3125 -9.817193,2.031839 -17.351217,-7.454397 -18.03125,-16.28125 -0.03081,-0.399946 -0.05168,-0.79331 -0.0625,-1.1875 z M 43.375,45.75 c -0.103201,1.415913 0.475973,2.647485 2,3.21875 0.964242,-0.0055 1.861641,-0.230356 2.5,-0.65625 -2.811716,0.07933 -4.200273,-1.025144 -4.5,-2.5625 z m 7.25,1.28125 c -0.964242,0.0055 -1.861641,0.230356 -2.5,0.65625 1.022442,-0.02885 1.840411,0.09651 2.5,0.34375 1.607069,-0.0092 3.380963,0.613108 4.3125,2.09375 0.879718,1.398274 1.337057,2.852577 1.4375,4.28125 0.08184,-1.757603 -0.347343,-3.548492 -1.4375,-5.28125 -0.931537,-1.480642 -2.705431,-2.102988 -4.3125,-2.09375 z m 18.34375,8.75 c -0.229397,15.328023 -15.428798,25.988563 -30,25.9375 C 24.579689,81.668325 12.909037,73.422887 6,61.96875 l 0,1 c 6.909037,11.454137 18.579689,19.699575 32.96875,19.75 14.886546,0.05217 30.435352,-11.074004 30,-26.9375 z"
             inkscape:connector-curvature="0"
             transform="translate(30,0)"
             id="path4105"
             style="opacity:0.3;fill:#000000;fill-opacity:1;stroke:none" />
        </g>
        <g
           transform="translate(182.1875,996.76843)"
           id="layer5"
           style="display:inline">
          <rect
             width="66"
             height="66"
             rx="12"
             ry="12"
             x="15"
             y="15"
             clip-path="url(#clipPath3613-7)"
             id="rect3171"
             style="opacity:0.1;fill:url(#linearGradient3157-9);fill-opacity:1;fill-rule:nonzero;stroke:#ffffff;stroke-width:0.5;stroke-linecap:round;stroke-linejoin:miter;stroke-miterlimit:4;stroke-opacity:1;stroke-dasharray:none;stroke-dashoffset:0;filter:url(#filter3794-56)" />
        </g>
      </g>
    </g>
  </g>
</svg>
