<?xml version="1.0" encoding="UTF-8" standalone="no"?>
<!-- Created with Inkscape (http://www.inkscape.org/) -->

<svg
   xmlns:dc="http://purl.org/dc/elements/1.1/"
   xmlns:cc="http://creativecommons.org/ns#"
   xmlns:rdf="http://www.w3.org/1999/02/22-rdf-syntax-ns#"
   xmlns:svg="http://www.w3.org/2000/svg"
   xmlns="http://www.w3.org/2000/svg"
   xmlns:xlink="http://www.w3.org/1999/xlink"
   xmlns:sodipodi="http://sodipodi.sourceforge.net/DTD/sodipodi-0.dtd"
   xmlns:inkscape="http://www.inkscape.org/namespaces/inkscape"
   width="96"
   height="96"
   id="svg2"
   version="1.1"
   inkscape:version="0.48.1 r9760"
   sodipodi:docname="nautilus.svg">
  <defs
     id="defs4">
    <filter
       color-interpolation-filters="sRGB"
       inkscape:collect="always"
       id="filter6279">
      <feGaussianBlur
         inkscape:collect="always"
         stdDeviation="0.8"
         id="feGaussianBlur6281" />
    </filter>
    <linearGradient
       inkscape:collect="always"
       xlink:href="#linearGradient3706-7"
       id="linearGradient10902-1"
       gradientUnits="userSpaceOnUse"
       gradientTransform="translate(0,-9.6171873e-6)"
       x1="48"
       y1="1052.3622"
       x2="48"
       y2="902.36218" />
    <linearGradient
       id="linearGradient3706-7"
       y2="5.9877"
       gradientUnits="userSpaceOnUse"
       x2="48"
       y1="90"
       x1="48"
       gradientTransform="translate(0,11.533569)">
      <stop
         id="stop3189-5"
         style="stop-color:#a77549"
         offset="0" />
      <stop
         id="stop3191-3"
         style="stop-color:#d2b397"
         offset="1" />
    </linearGradient>
    <radialGradient
       inkscape:collect="always"
       xlink:href="#radialGradient4819"
       id="radialGradient6950"
       gradientUnits="userSpaceOnUse"
       gradientTransform="matrix(-1.0178,0,0,1.12,133.75,-1.4789)"
       cx="64.531998"
       cy="47.319"
       r="41.919998" />
    <radialGradient
       id="radialGradient4819"
       gradientUnits="userSpaceOnUse"
       cy="47.319"
       cx="64.531998"
       gradientTransform="matrix(-1.0178,0,0,1.12,133.75,-1.4789)"
       r="41.919998">
      <stop
         id="stop4385"
         style="stop-color:#782c1b"
         offset="0" />
      <stop
         id="stop3355-4"
         style="stop-color:#bb7d64"
         offset=".45161" />
      <stop
         id="stop3357-4"
         style="stop-color:#d2b097"
         offset=".62851" />
      <stop
         id="stop4387"
         style="stop-color:#fef5e3"
         offset="1" />
    </radialGradient>
    <linearGradient
       inkscape:collect="always"
       xlink:href="#linearGradient3373"
       id="linearGradient6952"
       gradientUnits="userSpaceOnUse"
       gradientTransform="matrix(1.0086,-0.13643,0.13643,1.0086,-2.6295,15.439)"
       x1="32.374001"
       y1="39.799999"
       x2="46.015999"
       y2="60.049" />
    <linearGradient
       id="linearGradient3373">
      <stop
         id="stop3375"
         style="stop-color:#9b6638"
         offset="0" />
      <stop
         id="stop3377"
         style="stop-color:#9b6638;stop-opacity:0"
         offset="1" />
    </linearGradient>
    <linearGradient
       inkscape:collect="always"
       xlink:href="#linearGradient3373"
       id="linearGradient6954"
       gradientUnits="userSpaceOnUse"
       gradientTransform="matrix(0.80425,-0.62376,0.62376,0.80425,-12.925,55.73)"
       x1="32.374001"
       y1="39.799999"
       x2="42.445999"
       y2="70.568001" />
    <linearGradient
       id="linearGradient6252">
      <stop
         id="stop6254"
         style="stop-color:#9b6638"
         offset="0" />
      <stop
         id="stop6256"
         style="stop-color:#9b6638;stop-opacity:0"
         offset="1" />
    </linearGradient>
    <linearGradient
       inkscape:collect="always"
       xlink:href="#linearGradient3373"
       id="linearGradient6956"
       gradientUnits="userSpaceOnUse"
       gradientTransform="matrix(0.26756,-1.0297,0.98199,0.28057,1.6225,108.73)"
       x1="32.374001"
       y1="39.799999"
       x2="42.445999"
       y2="70.568001" />
    <linearGradient
       id="linearGradient6259">
      <stop
         id="stop6261"
         style="stop-color:#9b6638"
         offset="0" />
      <stop
         id="stop6263"
         style="stop-color:#9b6638;stop-opacity:0"
         offset="1" />
    </linearGradient>
    <linearGradient
       inkscape:collect="always"
       xlink:href="#linearGradient4335"
       id="linearGradient6958"
       gradientUnits="userSpaceOnUse"
       gradientTransform="matrix(1.0178,0,0,1.0178,2.9302,5.2162)"
       x1="73.539001"
       y1="63.534"
       x2="88.211998"
       y2="72.195999" />
    <linearGradient
       id="linearGradient4335">
      <stop
         id="stop4337"
         style="stop-color:#7c420f"
         offset="0" />
      <stop
         id="stop4339-8"
         style="stop-color:#7d430f;stop-opacity:0"
         offset="1" />
    </linearGradient>
    <radialGradient
       inkscape:collect="always"
       xlink:href="#linearGradient4094"
       id="radialGradient6960"
       gradientUnits="userSpaceOnUse"
       gradientTransform="matrix(1,0,0,0.42553,0,53.282)"
       cx="78.875"
       cy="92.75"
       r="17.625" />
    <linearGradient
       id="linearGradient4094">
      <stop
         id="stop4096"
         style="stop-color:#fbf0e6"
         offset="0" />
      <stop
         id="stop4098"
         style="stop-color:#fff;stop-opacity:0"
         offset="1" />
    </linearGradient>
    <linearGradient
       inkscape:collect="always"
       xlink:href="#linearGradient4335"
       id="linearGradient6962"
       gradientUnits="userSpaceOnUse"
       gradientTransform="matrix(-0.040925,-1.2859,1.2925,-0.042269,3.3953,148.83)"
       x1="74.875"
       y1="38.942001"
       x2="80.837997"
       y2="30.055" />
    <linearGradient
       id="linearGradient6274">
      <stop
         id="stop6276"
         style="stop-color:#7c420f"
         offset="0" />
      <stop
         id="stop6278"
         style="stop-color:#7d430f;stop-opacity:0"
         offset="1" />
    </linearGradient>
    <linearGradient
       inkscape:collect="always"
       xlink:href="#linearGradient4335"
       id="linearGradient6964"
       gradientUnits="userSpaceOnUse"
       gradientTransform="matrix(0.062933,-1.0551,1.0516,0.061219,6.5516,120.22)"
       x1="74.875"
       y1="38.942001"
       x2="83.127998"
       y2="35.639" />
    <linearGradient
       id="linearGradient6281">
      <stop
         id="stop6283"
         style="stop-color:#7c420f"
         offset="0" />
      <stop
         id="stop6285"
         style="stop-color:#7d430f;stop-opacity:0"
         offset="1" />
    </linearGradient>
    <linearGradient
       inkscape:collect="always"
       xlink:href="#linearGradient4335"
       id="linearGradient6966"
       gradientUnits="userSpaceOnUse"
       gradientTransform="matrix(0.1328,-1.0486,1.0452,0.13086,6.661,111.58)"
       x1="74.875"
       y1="38.942001"
       x2="83.127998"
       y2="35.639" />
    <linearGradient
       id="linearGradient6288">
      <stop
         id="stop6290"
         style="stop-color:#7c420f"
         offset="0" />
      <stop
         id="stop6292"
         style="stop-color:#7d430f;stop-opacity:0"
         offset="1" />
    </linearGradient>
    <linearGradient
       inkscape:collect="always"
       xlink:href="#linearGradient4335"
       id="linearGradient6968"
       gradientUnits="userSpaceOnUse"
       gradientTransform="matrix(0.60201,-0.86874,0.86667,0.59875,-14.873,77.785)"
       x1="74.875"
       y1="38.942001"
       x2="83.127998"
       y2="35.639" />
    <linearGradient
       id="linearGradient6295">
      <stop
         id="stop6297"
         style="stop-color:#7c420f"
         offset="0" />
      <stop
         id="stop6299"
         style="stop-color:#7d430f;stop-opacity:0"
         offset="1" />
    </linearGradient>
    <linearGradient
       inkscape:collect="always"
       xlink:href="#linearGradient4335"
       id="linearGradient6970"
       gradientUnits="userSpaceOnUse"
       gradientTransform="matrix(0.87056,-0.59938,0.5986,0.86677,-18.099,48.049)"
       x1="74.875"
       y1="38.942001"
       x2="83.127998"
       y2="35.639" />
    <linearGradient
       id="linearGradient6302">
      <stop
         id="stop6304"
         style="stop-color:#7c420f"
         offset="0" />
      <stop
         id="stop6306"
         style="stop-color:#7d430f;stop-opacity:0"
         offset="1" />
    </linearGradient>
    <linearGradient
       inkscape:collect="always"
       xlink:href="#linearGradient4335"
       id="linearGradient6972"
       gradientUnits="userSpaceOnUse"
       gradientTransform="matrix(1.036,-0.20953,0.2103,1.0322,-11.315,15.898)"
       x1="74.875"
       y1="38.942001"
       x2="84.097"
       y2="35.583" />
    <linearGradient
       id="linearGradient6309">
      <stop
         id="stop6311"
         style="stop-color:#7c420f"
         offset="0" />
      <stop
         id="stop6313"
         style="stop-color:#7d430f;stop-opacity:0"
         offset="1" />
    </linearGradient>
    <linearGradient
       inkscape:collect="always"
       xlink:href="#linearGradient4335"
       id="linearGradient6974"
       gradientUnits="userSpaceOnUse"
       gradientTransform="matrix(1.0178,0,0,1.0178,2.9302,5.2162)"
       x1="74.875"
       y1="38.942001"
       x2="84.097"
       y2="35.583" />
    <linearGradient
       id="linearGradient6316">
      <stop
         id="stop6318"
         style="stop-color:#7c420f"
         offset="0" />
      <stop
         id="stop6320"
         style="stop-color:#7d430f;stop-opacity:0"
         offset="1" />
    </linearGradient>
    <filter
       id="filter4293"
       height="1.4481"
       width="1.5168"
       color-interpolation-filters="sRGB"
       y="-0.22403"
       x="-0.25841999">
      <feGaussianBlur
         id="feGaussianBlur4295"
         stdDeviation="0.66787627" />
    </filter>
    <filter
       id="filter6324"
       height="1.4481"
       width="1.5168"
       color-interpolation-filters="sRGB"
       y="-0.22403"
       x="-0.25841999">
      <feGaussianBlur
         id="feGaussianBlur6326"
         stdDeviation="0.66787627" />
    </filter>
    <filter
       id="filter6328"
       height="1.4481"
       width="1.5168"
       color-interpolation-filters="sRGB"
       y="-0.22403"
       x="-0.25841999">
      <feGaussianBlur
         id="feGaussianBlur6330"
         stdDeviation="0.66787627" />
    </filter>
    <linearGradient
       inkscape:collect="always"
       xlink:href="#linearGradient4317-3"
       id="linearGradient6976"
       gradientUnits="userSpaceOnUse"
       gradientTransform="matrix(1.0178,0,0,1.0178,2.9302,5.2162)"
       x1="24.66"
       y1="34"
       x2="28.461"
       y2="35.412998" />
    <linearGradient
       id="linearGradient4317-3">
      <stop
         id="stop4319-9"
         style="stop-color:#fff"
         offset="0" />
      <stop
         id="stop4321-0"
         style="stop-color:#fff;stop-opacity:0"
         offset="1" />
    </linearGradient>
    <linearGradient
       inkscape:collect="always"
       xlink:href="#linearGradient4317-3"
       id="linearGradient6978"
       gradientUnits="userSpaceOnUse"
       gradientTransform="matrix(1.0178,0,0,1.0178,9.4973,-5.2192)"
       x1="26.34"
       y1="31.524"
       x2="32.262001"
       y2="36.032001" />
    <linearGradient
       id="linearGradient6337">
      <stop
         id="stop6339"
         style="stop-color:#fff"
         offset="0" />
      <stop
         id="stop6341"
         style="stop-color:#fff;stop-opacity:0"
         offset="1" />
    </linearGradient>
    <linearGradient
       inkscape:collect="always"
       xlink:href="#linearGradient4317-3"
       id="linearGradient6980"
       gradientUnits="userSpaceOnUse"
       gradientTransform="matrix(1.0178,0,0,1.0178,21.372,-13.945)"
       x1="24.926001"
       y1="33.645"
       x2="28.018999"
       y2="37.623001" />
    <linearGradient
       id="linearGradient6344">
      <stop
         id="stop6346"
         style="stop-color:#fff"
         offset="0" />
      <stop
         id="stop6348"
         style="stop-color:#fff;stop-opacity:0"
         offset="1" />
    </linearGradient>
    <linearGradient
       inkscape:collect="always"
       xlink:href="#linearGradient4094"
       id="linearGradient6982"
       gradientUnits="userSpaceOnUse"
       gradientTransform="matrix(-1.0178,0,0,1.0178,133.75,4.4966)"
       x1="56.014999"
       y1="68.027"
       x2="37.194"
       y2="97.902" />
    <linearGradient
       id="linearGradient6351">
      <stop
         id="stop6353"
         style="stop-color:#fbf0e6"
         offset="0" />
      <stop
         id="stop6355"
         style="stop-color:#fff;stop-opacity:0"
         offset="1" />
    </linearGradient>
    <linearGradient
       y2="138.66"
       x2="48"
       y1="20.221001"
       x1="48"
       gradientUnits="userSpaceOnUse"
       id="linearGradient3271"
       xlink:href="#linearGradient2908-3"
       inkscape:collect="always" />
    <linearGradient
       id="linearGradient2908-3"
       y2="138.66"
       gradientUnits="userSpaceOnUse"
       x2="48"
       y1="20.221001"
       x1="48">
      <stop
         id="stop3739-5-3"
         style="stop-color:#fff"
         offset="0" />
      <stop
         id="stop3741-9-6"
         style="stop-color:#fff;stop-opacity:0"
         offset="1" />
    </linearGradient>
    <clipPath
       id="clipPath3613-90">
      <rect
         id="rect3615-48"
         style="fill:#ffffff"
         rx="6"
         ry="6"
         height="84"
         width="84"
         y="6"
         x="6" />
    </clipPath>
    <filter
       id="filter3794-4-5"
       height="1.3839999"
       width="1.3839999"
       color-interpolation-filters="sRGB"
       y="-0.192"
       x="-0.192">
      <feGaussianBlur
         id="feGaussianBlur3796-9-1"
         stdDeviation="5.28" />
    </filter>
  </defs>
  <sodipodi:namedview
     id="base"
     pagecolor="#ffffff"
     bordercolor="#666666"
     borderopacity="1.0"
     inkscape:pageopacity="0.0"
     inkscape:pageshadow="2"
     inkscape:zoom="3.959798"
     inkscape:cx="28.389459"
     inkscape:cy="57.490015"
     inkscape:document-units="px"
     inkscape:current-layer="layer1"
     showgrid="false"
     inkscape:window-width="1280"
     inkscape:window-height="725"
     inkscape:window-x="0"
     inkscape:window-y="25"
     inkscape:window-maximized="1" />
  <metadata
     id="metadata7">
    <rdf:RDF>
      <cc:Work
         rdf:about="">
        <dc:format>image/svg+xml</dc:format>
        <dc:type
           rdf:resource="http://purl.org/dc/dcmitype/StillImage" />
        <dc:title></dc:title>
      </cc:Work>
    </rdf:RDF>
  </metadata>
  <g
     inkscape:label="Layer 1"
     inkscape:groupmode="layer"
     id="layer1"
     transform="translate(0,-956.36217)">
    <g
       transform="translate(-182.1875,-40.40626)"
       id="g6196">
      <rect
         y="964.36218"
         x="8"
         height="80"
         width="80"
         id="rect9283"
         style="fill:#000000;fill-opacity:1;stroke:none;filter:url(#filter6279)"
         rx="5"
         ry="5"
         transform="translate(182.1875,40.40625)" />
      <rect
         ry="5"
         rx="5"
         style="fill:url(#linearGradient10902-1);fill-opacity:1;stroke:none"
         id="rect9285"
         width="80"
         height="80"
         x="8"
         y="964.36218"
         transform="translate(182.1875,40.40625)" />
      <g
         id="g7009">
        <g
           transform="matrix(0.56814357,0,0,0.56814357,193.31266,1008.4419)"
           id="g4922">
          <path
             d="m 68.628,51.588 c -0.35104,-3.3508 1.6343,-3.1419 0.6779,-3.9297 -1.9275,-1.5877 -5.4978,0.0014 -6.4163,1.9224 -1.643,3.4361 0.86873,7.2342 4.2881,8.1415 3.2631,0.86576 7.764,-1.4285 9.206,-6.1623 1.9219,-6.3094 -1.0842,-11.093 -7.2269,-12.757 -7.7299,-2.0935 -14.946,2.505 -16.823,10.058 -2.2731,9.1475 4.4403,18.681 13.404,20.766 5.2818,1.2286 10.961,0.49383 15.85,-2.1467 4.889,-2.64 8.988,-7.186 11.108,-13.581 4.46,-13.449 -5.149,-32.722 -21.38,-35.939 -26.446,-5.225 -45.026,12.351 -48.609,36.389 -3.039,20.391 9.416,39.169 21.543,46.891 16.946,10.79 41.826,13.11 63.315,4.2531 -8.194,-38.375 -26.266,-28.903 -38.932,-53.902 z"
             style="fill:url(#radialGradient6950)"
             id="path4084"
             inkscape:connector-curvature="0" />
          <path
             d="m 27.201,63.234 c 0.72996,11.789 6.3433,28.492 17.862,28.178 9.21,-0.251 17.573,-16.477 11.846,-20.78 C 49.892,65.362 50.455,59.277 47.943,55.08 42.904,46.66 26.444,51.013 27.201,63.234 z"
             style="opacity:0.35;fill:url(#linearGradient6952);fill-rule:evenodd"
             id="path4395"
             inkscape:connector-curvature="0" />
          <path
             d="m 36.086,85.052 c 6.5425,9.8337 19.774,23.761 29.583,17.714 7.8428,-4.8349 7.7063,-28.284 0.59342,-29.135 -8.714,-1.042 -11.277,-6.589 -15.555,-8.961 -8.582,-4.758 -21.403,10.188 -14.621,20.382 z"
             style="opacity:0.25;fill:url(#linearGradient6954);fill-rule:evenodd"
             id="path4411"
             inkscape:connector-curvature="0" />
          <path
             d="m 58.415,102.39 c 10.93,4.6448 30.087,7.4406 34.289,-3.8102 3.359,-8.996 -10.85,-28.557 -17.045,-24.785 -7.589,4.621 -12.973,1.59 -17.817,2.299 -9.718,1.424 -17.847,18.469 0.573,26.296 z"
             style="opacity:0.15;fill:url(#linearGradient6956);fill-rule:evenodd"
             id="path4415"
             inkscape:connector-curvature="0" />
          <path
             d="M 82.366,68.023 C 90.2009,73.4084 95.68,78.728 95.68,78.728 77.148,68.023 69.771,76.236 59.606,67.959 c 0,0 6.6571,5.1912 22.76,0.0634 z"
             style="opacity:0.5;fill:url(#linearGradient6958);fill-rule:evenodd"
             id="path4419"
             inkscape:connector-curvature="0" />
          <path
             transform="matrix(1.0755,0,0,1.1705,-2.1335,-8.8166)"
             d="m 96.5,92.75 a 17.625,7.5 0 1 1 -35.25,0 17.625,7.5 0 1 1 35.25,0 z"
             style="fill:url(#radialGradient6960)"
             id="path4437"
             inkscape:connector-curvature="0" />
          <path
             d="M 51.387,50.882 C 41.669,42.504 30.173,52.42 30.173,52.42 L 41.367,41.664 c 0,0 9.6277,3.5634 10.02,9.2179 z"
             style="opacity:0.8;fill:url(#linearGradient6962);fill-rule:evenodd"
             id="path4363"
             inkscape:connector-curvature="0" />
          <path
             d="M 52.802,43.637 C 47.715,35.106 36.281,40.248 36.281,40.248 l 10.378,-5.4061 c 0,0 6.2476,4.1403 6.1432,8.7956 z"
             style="opacity:0.8;fill:url(#linearGradient6964);fill-rule:evenodd"
             id="path4359"
             inkscape:connector-curvature="0" />
          <path
             d="m 57.891,38.237 c -4.51,-8.85 -16.26,-4.478 -16.26,-4.478 l 10.714,-4.7055 c 0,0 5.9591,4.5458 5.546,9.1838 z"
             style="opacity:0.8;fill:url(#linearGradient6966);fill-rule:evenodd"
             id="path4355"
             inkscape:connector-curvature="0" />
          <path
             d="M 64.436,36.388 C 64.523,26.456 52.082,24.908 52.082,24.908 l 11.676,0.77372 c 0,0 3.1865,6.7839 0.67827,10.707 z"
             style="opacity:0.8;fill:url(#linearGradient6968);fill-rule:evenodd"
             id="path4351"
             inkscape:connector-curvature="0" />
          <path
             d="M 70.729,37.407 C 74.326,28.148 64.071,22.131 64.071,22.131 l 9.8137,5.0227 c 0,0 0.57874,7.4726 -3.1558,10.254 z"
             style="opacity:0.8;fill:url(#linearGradient6970);fill-rule:evenodd"
             id="path4347"
             inkscape:connector-curvature="0" />
          <path
             d="m 74.559,40.98 c 6.9427,-7.1037 2.9338,-16.042 2.9338,-16.042 l 4.3249,7.9916 c 0,0 -2.7321,6.9587 -7.2586,8.0507 z"
             style="opacity:0.8;fill:url(#linearGradient6972);fill-rule:evenodd"
             id="path4343"
             inkscape:connector-curvature="0" />
          <path
             d="m 79.137,45.419 c 7.9166,-5.3977 5.8523,-14.631 5.8523,-14.631 l 2.5445,8.3968 c 0,0 -3.9157,6.0669 -8.3968,6.234 z"
             style="opacity:0.8;fill:url(#linearGradient6974);fill-rule:evenodd"
             id="path4333"
             inkscape:connector-curvature="0" />
          <path
             d="m 69.219,18.062 -1.5312,0.03125 c 9.6664,9.8237 5.5562,16.981 2.1875,19.938 l 1.2812,0.9375 c 3.3395,-3.2591 2.749,-6.4802 3.9688,-6.7812 1.158,-0.28586 2.1045,1.5901 2.7812,0.84375 0.67671,-0.74638 -1.1619,-1.5258 -2.5312,-3.8438 -1.3694,-2.3179 -0.61869,-4.6609 -6.1562,-11.125 z m -13.938,0.0625 -1.9688,0.65625 c 13.135,6.1344 12.887,14.278 10.625,18.438 l 1.6562,0.40625 c 2.1118,-4.441 0.21911,-7.332 1.3438,-8.0938 1.0678,-0.72324 2.5125,0.35807 2.9062,-0.625 0.395,-0.982 -1.415,-1.672 -4.093,-2.936 -2.644,-1.249 -2.251,-3.727 -10.469,-7.844 z m 22.969,2.938 c 6.7429,12.277 0.70061,18.128 -3.625,19.719 l 0.9375,1.2812 c 4.1348,-2.1628 4.3702,-4.7181 5.625,-4.6562 1.1913,0.05872 1.1687,2.7394 2.0312,2.2188 0.86254,-0.52061 -0.32267,-1.8865 -0.96875,-4.5 -0.64608,-2.6135 1.7944,-4.8454 -2.5312,-13.688 l -1.468,-0.375 z M 39.844,24.9385 38,26.2815 c 16.789,0.71506 20.23,9.0443 19.625,13.75 L 59.4375,39.094 C 59.3085,32.71 55.3755,31.13 56.2495,30 c 0.82933,-1.0731 3.0394,-0.15978 3.0312,-1.2188 -0.0081,-1.059 -2.2586,-1.0291 -5.6875,-1.1875 -3.3857,-0.15643 -4.3831,-1.8603 -13.75,-2.6562 z m 9.094,6.562 c -0.80006,-0.07402 -2.3141,0.713 -3.6562,1.4375 -1.7203,0.92862 -5.446,-1.1073 -14.531,2.4688 l -1.3438,1.8125 c 16.412,-6.1466 21.925,0.45507 23.656,7.375 l 1.437,-1.468 c -2.4853,-7.6715 -7.0573,-7.6287 -6.5625,-8.9688 0.46976,-1.2723 1.8562,-1.2421 1.5312,-2.25 -0.081,-0.252 -0.265,-0.381 -0.531,-0.406 z m 39.75,0.5625 c -0.71794,7.2144 -3.5663,10.415 -6.2188,11.906 -2.6524,1.4914 -5.125,1.25 -5.125,1.25 l -0.09375,1 c 0,0 2.7611,0.27045 5.6875,-1.375 0.50283,-0.28274 1.0006,-0.65513 1.5,-1.0625 0.3491,2.3249 0.36767,4.3738 0.125,6.1875 -0.58783,0.18394 -1.1731,0.33465 -1.7188,0.40625 -2.9101,0.38186 -5.0625,-0.625 -5.0625,-0.625 l -0.406,0.876 c 0,0 2.4085,1.1055 5.5938,0.6875 0.46553,-0.06109 0.94362,-0.17713 1.4375,-0.3125 -0.4294,2.2098 -1.2332,4.0314 -2.2188,5.5625 -0.5754,-0.05743 -1.1297,-0.14547 -1.625,-0.28125 -2.665,-0.73 -4.156,-2.343 -4.156,-2.343 l -0.656,0.593 c 0,0 1.6503,1.7954 4.5625,2.5938 0.40908,0.11214 0.85394,0.18506 1.3125,0.25 -1.0213,1.3929 -2.1768,2.5198 -3.2812,3.4375 -0.18211,0.15132 -0.37098,0.2986 -0.5625,0.4375 -0.51116,-0.28878 -0.97758,-0.61001 -1.375,-0.9375 -1.9426,-1.6007 -2.5625,-3.4375 -2.5625,-3.4375 l -0.875,0.28125 c 0,0 0.74392,2.0877 2.875,3.8438 0.33389,0.27514 0.7188,0.53035 1.125,0.78125 -1.4298,0.85567 -3.0651,1.4093 -4.75,1.6562 -0.245,-0.345 -0.472,-0.69 -0.657,-1.031 -1.086,-2.01 -1.156,-3.781 -1.156,-3.781 l -0.875,0.03125 c 0,0 0.10179,1.9745 1.2812,4.1562 0.13003,0.24053 0.27862,0.47448 0.4375,0.71875 -1.439,0.112 -2.909,0.036 -4.312,-0.281 -0.596,-2.661 0.062,-4.75 0.062,-4.75 L 66.2194,58.28325 c 0,0 -0.61698,2.0757 -0.125,4.75 -0.95659,-0.2803 -1.8629,-0.67095 -2.7188,-1.1562 -0.41179,-0.23351 -0.79324,-0.48551 -1.1562,-0.75 0.72682,-2.4302 2.1875,-4.0625 2.1875,-4.0625 l -1.094,-0.687 c 0,0 -1.0755,1.8932 -1.6562,4.3125 -1.2177,-1.0088 -2.1017,-2.188 -2.7188,-3.4688 1.6091,-1.6398 3.625,-2.0625 3.625,-2.0625 l -0.562,-1.031 c 0,1e-6 -1.8804,0.69594 -3.4062,2.3438 -0.44173,-1.1476 -0.66573,-2.3519 -0.6875,-3.5625 2.0882,-0.73632 4,-0.0625 4,-0.0625 l -0.031,-1.156 c -10e-7,0 -1.9434,-0.36165 -3.9688,0.375 0.05239,-0.90046 0.23278,-1.7889 0.5,-2.6562 2.1437,0.1181 3.625,1.375 3.625,1.375 l 0.407,-1.094 c 0,10e-7 -1.6361,-1.0191 -3.75,-1.0938 0.1879,-0.47828 0.40414,-0.95465 0.65625,-1.4062 0.24746,-0.44326 0.51747,-0.84816 0.8125,-1.2188 1.8231,0.78556 2.75,2.3125 2.75,2.3125 l 0.6875,-0.875 c -10e-7,10e-7 -1.0953,-1.3237 -2.875,-2.0625 0.61049,-0.62241 1.2985,-1.1076 2.0312,-1.4688 1.3609,1.3244 1.625,3.0312 1.625,3.0312 l 0.875,-0.5 c 10e-7,0 -0.49444,-1.5746 -1.8125,-2.8438 0.81328,-0.29936 1.6812,-0.433 2.5625,-0.4375 0.67488,1.6499 0.25,3.2188 0.25,3.2188 l 0.969,-0.094 c 10e-7,10e-7 0.15346,-1.5117 -0.5,-3.0938 0.69672,0.05999 1.4272,0.19872 2.125,0.4375 -0.07251,1.9147 -1.2812,3.2188 -1.2812,3.2188 l 0.90625,0.375 c 2e-6,0 0.98638,-1.4616 1.0312,-3.3438 0.30247,0.12942 0.60899,0.2742 0.90625,0.4375 0.3305,0.18156 0.65318,0.41007 0.9375,0.6875 -0.6968,1.6216 -2.125,2.4375 -2.125,2.4375 l 0.719,0.594 c 10e-7,0 1.2349,-0.91171 1.9062,-2.4375 0.38642,0.50683 0.67926,1.0833 0.90625,1.7188 -1.1794,1.0299 -2.5625,1.1875 -2.5625,1.1875 l 0.375,0.78125 c 10e-7,0 1.2857,-0.33123 2.4062,-1.3125 0.14542,0.58127 0.22623,1.189 0.21875,1.7812 -1.3136,0.2802 -2.4062,-0.1875 -2.4062,-0.1875 l -0.032,0.781 c -10e-7,0 1.11,0.28695 2.375,0 -0.06644,0.63627 -0.20944,1.2403 -0.46875,1.7812 -1.423,-0.15531 -2.3125,-1.1562 -2.3125,-1.1562 l -0.3125,0.625 c 1e-6,0 0.99358,0.85396 2.375,1 -0.29042,0.45428 -0.66455,0.84284 -1.0938,1.1562 -0.9376,-0.6659 -1.2188,-1.6875 -1.2188,-1.6875 l -0.469,0.344 c -10e-7,10e-7 0.42165,0.92308 1.3125,1.5625 -0.42039,0.24869 -0.87258,0.43772 -1.3438,0.53125 -0.40747,-1.0894 -0.0625,-2.0938 -0.0625,-2.0938 h -0.5625 c 10e-7,-10e-7 -0.22038,1.0768 0.21875,2.1562 -0.53507,0.04977 -1.0804,-0.02792 -1.5938,-0.21875 0.11297,-1.14 0.84375,-1.9062 0.84375,-1.9062 l -0.375,-0.1875 c 0.09761,0.03415 0.20328,0.0625 0.3125,0.0625 0.52141,0 0.9375,-0.41608 0.9375,-0.9375 0,-0.22221 -0.09018,-0.43237 -0.21875,-0.59375 0.03113,-0.0718 0.07712,-0.14699 0.09375,-0.21875 0.10237,-0.44184 0.05327,-0.89159 -0.21875,-1.2812 -0.468,-0.67038 -1.2524,-0.87638 -1.9375,-0.78125 -0.41677,0.05786 -0.81159,0.23965 -1.1562,0.46875 -0.73647,-0.19158 -1.6567,-0.15674 -2.7812,0.40625 1.0025,-0.31578 1.8046,-0.31584 2.4375,-0.15625 -0.09091,0.0823 -0.17152,0.15731 -0.25,0.25 -0.25006,0.29532 -0.40854,0.63136 -0.53125,0.96875 -0.82938,0.23919 -1.6875,0.84515 -2.3125,2.2188 0.6984,-1.0522 1.4593,-1.5592 2.1562,-1.7812 -0.10244,0.49891 -0.08218,1.0144 0.03125,1.5 0.03166,0.13552 0.07928,0.27548 0.125,0.40625 -0.39457,0.66945 -0.58143,1.6069 -0.3125,2.875 -0.05386,-1.0771 0.17139,-1.8613 0.5,-2.4375 0.1968,0.40131 0.46273,0.77513 0.78125,1.0938 -0.08165,0.76397 0.1001,1.6829 0.84375,2.7188 -0.48575,-0.97158 -0.60391,-1.7752 -0.53125,-2.4375 0.08315,0.06743 0.16136,0.1264 0.25,0.1875 0.3275,0.22576 0.67985,0.40441 1.0312,0.53125 0.2063,0.7161 0.70776,1.4734 1.7188,2.1562 -0.75545,-0.70816 -1.1684,-1.409 -1.3438,-2.0312 0.6739,0.17525 1.3583,0.15938 2.0312,0.03125 0.49393,0.56568 1.2799,1.0361 2.5,1.2188 -1.0177,-0.32334 -1.6685,-0.80878 -2.0938,-1.3125 0.65102,-0.1805 1.2667,-0.49193 1.8125,-0.90625 0.7347,0.19826 1.6829,0.1465 2.8125,-0.40625 -1.0208,0.31138 -1.8329,0.298 -2.4688,0.125 0.37787,-0.33892 0.73052,-0.71894 1,-1.1562 0.10144,-0.16462 0.1977,-0.32682 0.28125,-0.5 0.85299,-0.18231 1.7809,-0.71079 2.6562,-1.8438 -0.88534,0.83134 -1.7286,1.2202 -2.4688,1.375 0.25685,-0.67577 0.4127,-1.3905 0.4375,-2.125 1.0154,-0.53096 1.9572,-1.559 2.375,-3.5312 -0.63806,1.656 -1.5163,2.5133 -2.4062,2.9688 -0.02223,-0.5421 -0.08616,-1.095 -0.21875,-1.625 -0.05364,-0.21442 -0.11718,-0.41533 -0.1875,-0.625 -0.0032,-0.0097 0.0033,-0.02161 0,-0.03125 0.75276,-1.0716 1.2007,-2.6194 0.5625,-4.8438 0.23685,1.958 -0.1849,3.2922 -0.8125,4.2188 -0.32724,-0.7559 -0.76543,-1.4554 -1.3125,-2.0312 0.2493,-1.3539 -0.04887,-2.9958 -1.6562,-4.8438 1.0861,1.7505 1.3111,3.1868 1.125,4.3438 -0.23396,-0.18951 -0.48603,-0.35499 -0.75,-0.5 -0.48645,-0.26723 -0.99366,-0.47689 -1.5,-0.65625 -0.25122,-1.343 -1.0869,-2.7886 -3.0938,-4.0312 1.5483,1.3401 2.2217,2.6451 2.4375,3.8125 -0.4384,-0.12297 -0.87355,-0.21742 -1.3125,-0.28125 -0.41815,-0.0608 -0.8346,-0.08881 -1.25,-0.09375 -0.81155,-1.1949 -2.2297,-2.2439 -4.7812,-2.4375 2.1485,0.51382 3.356,1.4769 4.0625,2.5 -0.99339,0.06769 -1.9679,0.25945 -2.875,0.65625 -1.2969,-0.84283 -3.15,-1.2733 -5.75,-0.375 2.3277,-0.40832 3.9417,0.0099 5.0625,0.71875 -0.82327,0.45294 -1.5836,1.0322 -2.25,1.7812 -1.6943,-0.37254 -3.8212,-0.07751 -6.1562,2 2.3064,-1.4721 4.1918,-1.6664 5.6562,-1.3438 -0.23967,0.32438 -0.48091,0.6612 -0.6875,1.0312 -0.35002,0.62698 -0.64097,1.2939 -0.875,1.9688 -1.7579,0.23483 -3.7135,1.2478 -5.2812,4 1.7597,-2.1903 3.5251,-3.0326 5.0625,-3.2188 -0.27741,1.0117 -0.42578,2.0469 -0.4375,3.0938 -1.5288,0.86722 -2.9522,2.5008 -3.4062,5.5938 0.81022,-2.5754 2.0974,-3.9933 3.4062,-4.75 0.08176,1.3585 0.37489,2.7312 0.9375,4 -1.01,1.4915 -1.5992,3.5617 -0.8125,6.3125 -0.30149,-2.5606 0.28857,-4.35 1.1875,-5.625 0.74587,1.4043 1.8047,2.6822 3.2188,3.75 -0.3404,2.2094 -0.15475,4.6586 1.6562,6.5 -1.3314,-2.1858 -1.4852,-4.3193 -1.1562,-6.125 0.28761,0.1955 0.59274,0.38473 0.90625,0.5625 1.0845,0.61499 2.252,1.0626 3.4688,1.375 0.55761,1.9107 1.739,4.0041 4.0938,5.8438 l 0.5,-0.625 c -2.0341,-1.5892 -3.1173,-3.3548 -3.6875,-5 1.5503,0.29702 3.1539,0.34566 4.7188,0.15625 1.3542,1.6361 3.4491,3.1676 6.6875,3.875 L 78.8137,67.5343 c -2.8078,-0.61332 -4.6409,-1.8322 -5.875,-3.1875 1.8041,-0.34013 3.5491,-0.98118 5.0625,-2 2.142,1.0088 5.0934,1.5401 9.0938,0.75 l -0.1875,-0.875 c -3.5973,0.71047 -6.1963,0.3155 -8.125,-0.5 0.05844,-0.04673 0.12988,-0.07712 0.1875,-0.125 1.2653,-1.0514 2.5999,-2.3944 3.75,-4.0938 2.6447,0.09672 5.9586,-0.74974 9.7188,-3.625 l -0.53125,-0.71875 c -3.3916,2.5935 -6.2744,3.443 -8.625,3.4688 0.98398,-1.6598 1.7636,-3.6285 2.1562,-5.9688 2.6144,-1.007 5.4575,-3.213 7.8125,-7.6875 l -0.84375,-0.4375 c -2.1242,4.036 -4.5435,6.0683 -6.8125,7.0625 0.20673,-1.8744 0.1632,-3.9704 -0.21875,-6.3125 L 84.97,43.34675 c 2.1984,-2.0367 4.1496,-5.4686 4.7188,-11.188 l -1,-0.09375 z m -46.344,5.063 c -0.88277,0.0164 -1.7956,1.5906 -3.0312,2.6875 -1.462,1.2978 -5.7249,0.34507 -13.75,5.9062 l -0.875,2.0625 c 14.569,-9.7411 23.261,-4.3083 26.531,2.0312 l 1.0625,-1.7812 c -4.177,-6.899 -10.301,-6.239 -10.126,-7.657 0.166,-1.346 1.918,-1.926 0.782,-2.969 -0.204,-0.187 -0.391,-0.285 -0.594,-0.281 z M 67.188,49.47 c 0.4166,-0.05784 0.72718,0.02896 0.96875,0.375 -0.01019,-0.01459 0.06359,0.29791 0.03125,0.4375 -0.01617,0.06979 -0.01639,0.09506 0.03125,0.0625 L 68.188,50.4075 c -0.079,0.016 -0.149,0.06 -0.219,0.094 -0.198,-0.3 -0.522,-0.663 -0.969,-1 0.06307,-0.01626 0.12541,-0.02263 0.1875,-0.03125 z m -0.625,0.21875 c 0.0063,0.0046 0.02503,-0.0046 0.03125,0 0.40655,0.30049 0.66044,0.66106 0.84375,0.96875 0.04757,0.07985 0.08979,0.14873 0.125,0.21875 -0.07772,0.13721 -0.125,0.2999 -0.125,0.46875 0,0.07091 0.01641,0.12104 0.03125,0.1875 l -0.157,-0.407 0.125,-0.46875 c 10e-7,0 -0.66637,-0.32058 -1.5312,-0.375 0.04951,-0.07407 0.09641,-0.14808 0.15625,-0.21875 0.12567,-0.14842 0.30224,-0.2709 0.5,-0.375 z m -0.875,1 c 0.73884,0.04552 1.1953,0.31189 1.4062,0.4375 -0.23436,0.05133 -0.8528,0.18177 -1.5312,0.71875 -0.05299,-0.39695 -0.02303,-0.7896 0.125,-1.1562 z m 1.7812,0.90625 c 0.06965,0.23355 0.2304,0.44306 0.4375,0.5625 2e-6,0 -0.6357,0.8598 -0.71875,2 -0.12147,-0.06379 -0.22738,-0.13853 -0.34375,-0.21875 -0.17772,-0.12251 -0.35047,-0.27467 -0.5,-0.4375 0.50766,-0.99104 1.4375,-1.4062 1.4375,-1.4062 L 67.3442,51.6888 c -2e-6,-10e-7 -0.76313,0.53356 -1.25,1.4688 -0.18934,-0.27237 -0.34273,-0.56666 -0.4375,-0.875 0.82996,-0.65134 1.7608,-0.68565 1.8125,-0.6875 z"
             style="opacity:0.8;fill:#fcf0e4;fill-rule:evenodd"
             id="path4122"
             inkscape:connector-curvature="0" />
          <path
             transform="matrix(0.76537,0.90984,-0.914,0.76189,33.386,-39.837)"
             d="m 62.125,17.094 a 4.5,1.4688 0 1 1 -9,0 4.5,1.4688 0 1 1 9,0 z"
             style="opacity:0.5;fill:#ffffff;filter:url(#filter4293)"
             id="path4279"
             inkscape:connector-curvature="0" />
          <path
             transform="matrix(0.34394,1.1381,-1.1406,0.3391,72.159,-44.327)"
             d="m 62.125,17.094 a 4.5,1.4688 0 1 1 -9,0 4.5,1.4688 0 1 1 9,0 z"
             style="opacity:0.5;fill:#ffffff;filter:url(#filter4293)"
             id="path4297"
             inkscape:connector-curvature="0" />
          <path
             transform="matrix(0.98255,0.66948,-0.67442,0.98032,6.9699,-25.345)"
             d="m 62.125,17.094 a 4.5,1.4688 0 1 1 -9,0 4.5,1.4688 0 1 1 9,0 z"
             style="opacity:0.5;fill:#ffffff;filter:url(#filter4293)"
             id="path4299"
             inkscape:connector-curvature="0" />
          <path
             d="m 28.839,36.177 -4.498,10.525 4.3181,-2.0691 8.0065,-10.076 -7.8266,1.6193 z"
             style="fill:url(#linearGradient6976);fill-rule:evenodd"
             id="path4315"
             inkscape:connector-curvature="0" />
          <path
             d="m 39.094,25.381 -9.7017,10.525 8.982,-1.7992 8.7262,-7.0169 -8.0065,-1.7093 z"
             style="fill:url(#linearGradient6978);fill-rule:evenodd"
             id="path4325"
             inkscape:connector-curvature="0" />
          <path
             d="m 54.118,18.005 c -5.9374,1.2595 -15.099,7.2868 -15.099,7.2868 l 6.4631,1.5293 11.785,-6.5671 -3.1486,-2.249 z"
             style="fill:url(#linearGradient6980);fill-rule:evenodd"
             id="path4329"
             inkscape:connector-curvature="0" />
          <path
             d="m 68.628,51.588 c 2.7693,0.2165 1.6343,-3.1419 0.6779,-3.9297 -1.9275,-1.5877 -5.4978,0.0014 -6.4163,1.9224 -1.643,3.4361 0.86873,7.2342 4.2881,8.1415 3.2631,0.86576 7.764,-1.4285 9.206,-6.1623 1.921,-6.309 -1.085,-11.093 -7.227,-12.757 -7.73,-2.093 -14.946,2.505 -16.823,10.058 -2.273,9.148 4.44,18.681 13.404,20.766 10.564,2.457 22.718,-2.939 26.958,-15.728 4.459,-13.449 -5.149,-32.722 -21.38,-35.939 -26.446,-5.225 -45.026,12.351 -48.609,36.389 -3.039,20.391 9.416,39.169 21.543,46.891 16.946,10.79 42.834,13.254 63.315,4.2531"
             style="fill:none;stroke:url(#linearGradient6982);stroke-width:2.68470001"
             id="path4079"
             inkscape:connector-curvature="0" />
        </g>
        <g
           transform="translate(182.1875,996.76843)"
           id="layer4">
          <rect
             id="rect3171"
             style="opacity:0.15;fill:url(#linearGradient3271);stroke:#ffffff;stroke-width:0.5;stroke-linecap:round;filter:url(#filter3794-4-5)"
             clip-path="url(#clipPath3613-90)"
             rx="12"
             ry="12"
             height="66"
             width="66"
             y="15"
             x="15" />
        </g>
      </g>
    </g>
  </g>
</svg>
