<?xml version="1.0" encoding="UTF-8" standalone="no"?>
<!-- Created with Inkscape (http://www.inkscape.org/) -->

<svg
   xmlns:dc="http://purl.org/dc/elements/1.1/"
   xmlns:cc="http://creativecommons.org/ns#"
   xmlns:rdf="http://www.w3.org/1999/02/22-rdf-syntax-ns#"
   xmlns:svg="http://www.w3.org/2000/svg"
   xmlns="http://www.w3.org/2000/svg"
   xmlns:xlink="http://www.w3.org/1999/xlink"
   xmlns:sodipodi="http://sodipodi.sourceforge.net/DTD/sodipodi-0.dtd"
   xmlns:inkscape="http://www.inkscape.org/namespaces/inkscape"
   width="96"
   height="96"
   id="svg2"
   version="1.1"
   inkscape:version="0.48.1 r9760"
   sodipodi:docname="netbeans.svg">
  <defs
     id="defs4">
    <filter
       color-interpolation-filters="sRGB"
       inkscape:collect="always"
       id="filter6279">
      <feGaussianBlur
         inkscape:collect="always"
         stdDeviation="0.8"
         id="feGaussianBlur6281" />
    </filter>
    <linearGradient
       inkscape:collect="always"
       xlink:href="#linearGradient3617-8"
       id="linearGradient10902-1"
       gradientUnits="userSpaceOnUse"
       gradientTransform="translate(0,-9.6171873e-6)"
       x1="48"
       y1="1052.3622"
       x2="48"
       y2="902.36218" />
    <linearGradient
       id="linearGradient3617-8"
       y2="5.9877"
       gradientUnits="userSpaceOnUse"
       x2="48"
       y1="90"
       x1="48"
       gradientTransform="translate(25.780919,0)">
      <stop
         id="stop3702-83"
         style="stop-color:#a12225"
         offset="0" />
      <stop
         id="stop3704-1"
         style="stop-color:#ce1b1f"
         offset="1" />
    </linearGradient>
    <linearGradient
       y2="138.66"
       x2="48"
       y1="20.221001"
       x1="48"
       gradientUnits="userSpaceOnUse"
       id="linearGradient3085-3"
       xlink:href="#linearGradient3613-84"
       inkscape:collect="always" />
    <linearGradient
       id="linearGradient3613-84"
       y2="138.66"
       gradientUnits="userSpaceOnUse"
       x2="48"
       y1="20.221001"
       x1="48">
      <stop
         id="stop3861"
         style="stop-color:#fffc6d"
         offset="0" />
      <stop
         id="stop3863"
         style="stop-color:#fff;stop-opacity:0"
         offset="1" />
    </linearGradient>
    <clipPath
       id="clipPath3613-00">
      <rect
         id="rect3615-8"
         style="fill:#ffffff"
         rx="6"
         ry="6"
         height="84"
         width="84"
         y="6"
         x="6" />
    </clipPath>
    <filter
       id="filter3794-68"
       height="1.3839999"
       width="1.3839999"
       color-interpolation-filters="sRGB"
       y="-0.192"
       x="-0.192">
      <feGaussianBlur
         id="feGaussianBlur3796-2"
         stdDeviation="5.28" />
    </filter>
  </defs>
  <sodipodi:namedview
     id="base"
     pagecolor="#ffffff"
     bordercolor="#666666"
     borderopacity="1.0"
     inkscape:pageopacity="0.0"
     inkscape:pageshadow="2"
     inkscape:zoom="3.959798"
     inkscape:cx="28.389459"
     inkscape:cy="57.490015"
     inkscape:document-units="px"
     inkscape:current-layer="layer1"
     showgrid="false"
     inkscape:window-width="1280"
     inkscape:window-height="725"
     inkscape:window-x="0"
     inkscape:window-y="25"
     inkscape:window-maximized="1" />
  <metadata
     id="metadata7">
    <rdf:RDF>
      <cc:Work
         rdf:about="">
        <dc:format>image/svg+xml</dc:format>
        <dc:type
           rdf:resource="http://purl.org/dc/dcmitype/StillImage" />
        <dc:title></dc:title>
      </cc:Work>
    </rdf:RDF>
  </metadata>
  <g
     inkscape:label="Layer 1"
     inkscape:groupmode="layer"
     id="layer1"
     transform="translate(0,-956.36217)">
    <g
       transform="translate(-182.1875,-40.40626)"
       id="g5947">
      <rect
         y="964.36218"
         x="8"
         height="80"
         width="80"
         id="rect9283"
         style="fill:#000000;fill-opacity:1;stroke:none;filter:url(#filter6279)"
         rx="5"
         ry="5"
         transform="translate(182.1875,40.40625)" />
      <rect
         ry="5"
         rx="5"
         style="fill:url(#linearGradient10902-1);fill-opacity:1;stroke:none"
         id="rect9285"
         width="80"
         height="80"
         x="8"
         y="964.36218"
         transform="translate(182.1875,40.40625)" />
      <g
         id="g6759">
        <path
           d="m 224.8019,1018.1328 c -0.0483,-0.011 -0.0916,0.011 -0.12579,0.025 -0.27313,0.1455 -1.37651,0.1403 -0.83025,1.1071 0.56495,0.9658 1.11518,0.5462 1.53472,0 0.36633,-0.479 -0.24072,-1.0773 -0.57888,-1.132 z m 2.66696,0.151 c -1.80387,0 -0.99255,1.5151 -0.30191,1.6605 0.69267,0.1464 2.48322,0.7071 5.10752,0.9812 2.62428,0.2731 5.81336,0.9606 7.06991,1.1071 1.23997,0.1277 3.44277,0.9542 4.55392,1.0819 1.11219,0.1464 5.67449,0.7071 6.76799,0.9813 1.1122,0.2918 1.52297,-1.3687 0.83024,-1.6606 -0.69159,-0.2729 -2.20682,-0.5571 -4.70351,-0.8309 -2.47815,-0.2737 -3.72529,-0.8276 -4.12623,-0.9556 -0.41947,-0.1457 -2.35337,-0.1489 -2.91856,-0.2769 -0.54748,-0.1466 -3.31306,-0.5548 -4.68016,-0.9557 -1.3848,-0.4195 -5.81296,-1.132 -7.59792,-1.132 z m -5.03199,1.1573 c -0.21404,0 -0.42373,0.032 -0.52836,0.1009 -0.41955,0.2732 -2.60328,1.5159 -3.29601,2.0632 -0.69267,0.5472 -2.48113,1.6631 -3.44688,1.9372 -0.96581,0.2742 -4.98739,2.782 -6.91903,3.7489 -1.95032,0.9658 0.418,1.0989 1.38384,0.6793 0.96583,-0.4196 5.66305,-2.8902 7.3216,-3.8746 1.65846,-0.9669 4.00354,-2.3348 5.66095,-3.447 1.24311,-0.8342 0.46602,-1.1939 -0.17611,-1.2076 z m 2.2392,1.409 c -0.39879,0.102 -0.75202,0.4816 -0.67932,0.7548 0.14642,0.5472 0.55351,2.6213 0.55351,4.5539 0,1.9326 0.27676,4.8719 0.27676,6.2396 0,0.4988 0.0572,1.2618 0.15096,2.0884 -1.21975,-0.3479 -2.49023,-0.723 -3.99983,-1.1836 -3.69872,-1.1303 -9.84742,-2.995 -11.39728,-3.3967 -1.54945,-0.4009 -1.84074,0.1545 -1.38383,0.7548 0.4559,0.62 1.25397,0.6349 4.47847,1.7108 3.24319,1.0936 9.54309,2.9331 11.54864,3.6986 0.33162,0.1298 0.65102,0.2698 0.98128,0.4025 0.0913,0.824 0.17612,1.597 0.17612,2.1385 0,1.5131 0.11801,2.2141 0.95608,2.2141 0.82042,0 0.55352,-1.1168 0.55352,-1.9372 0,-0.3066 -0.01,-1.0798 -0.0252,-1.7864 1.07903,0.4023 2.10321,0.7391 3.04432,0.8302 1.69486,0.1464 1.86643,-1.5438 -0.30192,-2.1638 -0.79838,-0.2231 -1.78278,-0.4822 -2.7676,-0.7548 0.007,-0.3243 0.0216,-0.589 0.0503,-0.6793 0.14539,-0.4195 -0.13033,-2.7794 -0.27675,-3.472 -0.14539,-0.6927 -0.40257,-2.8918 -0.40257,-4.2772 0,-1.3854 -0.2804,-3.1712 -0.55351,-4.8308 -0.13708,-0.8292 -0.58246,-1.0081 -0.98128,-0.9057 z m 28.93439,2.0631 c -0.41657,0 -0.72965,0.1638 -0.72965,1.1322 0,1.5307 1.0965,1.5367 1.86185,1.0819 0.76536,-0.456 0.46345,-2.1386 -0.30192,-2.1386 -0.28702,0 -0.58034,-0.073 -0.83025,-0.075 z m -1.71088,2.2644 c -0.28093,-0.023 -0.68301,0.1155 -1.03152,0.4025 -0.91075,0.7841 -3.69952,2.4893 -5.68616,3.8747 -2.00426,1.3854 -5.69968,3.8333 -6.79319,4.4532 -1.07484,0.62 -2.46713,1.3974 -3.39665,2.1638 -0.91074,0.7841 -0.57919,2.1603 0.80513,1.6858 1.38537,-0.4549 2.768,-1.2081 3.69855,-2.1385 0.91075,-0.9306 1.83817,-1.5615 2.7676,-2.1638 0.92943,-0.62 7.99935,-5.8627 9.38448,-6.7933 0.86518,-0.9566 0.71981,-1.4457 0.2516,-1.4844 z m 2.06311,1.0315 c -0.61893,0 -0.77995,0.7739 -0.77995,2.0128 v 9.7114 c 0,1.2213 -0.004,1.846 -0.15096,3.3965 -0.16408,1.5309 -0.15097,8.0105 -0.15097,9.234 0,1.2389 0.009,1.9996 0.62901,2.1638 0.61894,0.1453 0.76683,-0.6088 0.93088,-1.6857 0.14539,-1.0936 0.45288,-3.7071 0.45288,-5.7115 0,-2.0063 -0.30947,-3.235 0,-4.0005 0.31158,-0.7656 0.2987,-1.7044 0.15216,-3.8742 -0.16344,-2.1521 -0.46616,-8.1711 -0.30191,-9.0825 0.14538,-0.9295 -0.17868,-2.1638 -0.77997,-2.1638 z m -47.65341,2.3147 c -0.82043,0.1464 -0.97831,0.4124 -1.10705,1.2328 -0.14538,0.8391 0.81696,1.2694 1.5096,0.7045 0.69268,-0.5473 0.43551,-2.0651 -0.40255,-1.9373 z m 0.37739,3.6482 c -0.39643,0.068 -0.77996,0.4228 -0.77996,0.9058 0,0.9658 0.53393,6.6299 0.67932,7.3215 0.12774,0.6927 0.67932,3.5927 0.67932,4.705 0,1.1122 0.55716,2.6274 0.83025,3.3211 0.27311,0.6916 0.008,3.3303 0.42771,5.4095 0.40086,2.0614 1.08643,0.266 1.2328,-0.4278 0.14539,-0.6937 -0.15096,-2.0785 -0.15096,-3.0443 0,-0.9668 -0.10513,-2.6275 -0.2516,-3.4469 -0.12774,-0.8391 -0.83482,-3.6114 -0.98127,-4.705 -0.1267,-1.1122 -0.25718,-2.6176 -0.40257,-4.2771 -0.12773,-1.6585 -0.27482,-3.7417 -0.40256,-4.9817 -0.0727,-0.6288 -0.48415,-0.8483 -0.88064,-0.78 z m 26.01503,4.5287 c -1.403,0.1642 -1.40549,1.2389 -0.93088,2.3148 0.30948,0.7653 1.85427,0.4393 2.16376,-0.3271 0.30947,-0.7653 0.15148,-2.134 -1.23279,-1.9877 z m 0.0503,3.4218 c -0.3093,0.06 -0.54892,0.3359 -0.60383,0.8555 -0.0798,0.8551 -0.004,2.1615 0.10068,3.2205 -1.07982,-0.4099 -2.09266,-0.7509 -2.46568,-0.8807 -0.82041,-0.2742 -1.22467,0.1386 -0.80511,0.8303 0.41954,0.6926 1.36854,0.6854 2.18895,1.2327 0.26052,0.1756 0.78801,0.5027 1.38384,0.8555 0.19711,1.1172 0.5344,3.3711 0.42772,5.1075 -0.14539,2.079 0.002,4.7034 0.27676,6.0887 0.27312,1.3854 0.42772,4.9719 0.42772,5.9378 0,0.9679 0.25717,2.1915 0.40256,2.4656 0.12773,0.2919 0.97927,1.5544 1.10704,-0.2516 0.14539,-1.7873 -0.0196,-5.38 0.1258,-6.4912 0.12774,-1.1112 -0.12944,-3.7519 -0.40256,-7.0699 -0.15334,-1.8558 -0.25721,-3.4132 -0.32708,-4.6798 0.82702,0.4172 1.65492,0.8085 2.2644,0.9561 1.65742,0.4206 5.11686,2.0786 7.3216,3.0443 2.20474,0.9679 5.65492,2.8831 6.89384,3.4469 1.23892,0.5483 1.12491,-1.5355 0.57868,-1.9374 -0.56495,-0.4173 -4.97653,-2.0738 -6.08872,-2.7675 -1.11107,-0.694 -6.78072,-3.0313 -9.13167,-4.1271 -0.58935,-0.2801 -1.26404,-0.5748 -1.93711,-0.855 0,-0.8204 0.26948,-2.8857 -0.27677,-3.7237 -0.26157,-0.8664 -0.94376,-1.3569 -1.45928,-1.2579 z m -5.86223,2.189 c -0.43207,0.021 -0.84707,0.2513 -0.95608,0.8806 -0.12877,0.8204 0.83756,0.9525 1.38384,0.6794 0.54626,-0.2742 0.54626,-1.3895 0,-1.5348 -0.13656,-0.032 -0.28369,-0.032 -0.42772,-0.025 z m -1.68512,2.0884 c -0.24234,0.025 -0.48065,0.1289 -0.65375,0.3019 -0.69268,0.6927 -4.41431,3.1945 -6.49128,4.9818 -2.07696,1.8049 -5.68004,3.7176 -6.91903,4.9565 -1.23892,1.2409 0.43758,1.9516 1.258,1.132 0.83909,-0.84 4.95301,-3.596 6.46606,-4.8557 1.53078,-1.2389 5.12918,-3.8665 6.64225,-5.1076 1.14802,-0.9291 0.42588,-1.4841 -0.30192,-1.4089 z m 28.3056,9.5609 c -0.92943,0.164 -1.39238,0.7924 -1.08192,1.5599 0.30947,0.7643 1.38183,0.9253 1.83664,0.4529 0.47355,-0.457 0.17465,-2.1593 -0.7548,-2.0128 z m -43.5771,1.8618 c -0.43644,0 -0.91551,0.2766 -1.0064,0.629 -0.12773,0.5483 -0.003,1.7893 0.98128,1.6606 0.96582,-0.1434 1.09785,-1.2436 0.67932,-1.9374 -0.15072,-0.2592 -0.3923,-0.3512 -0.65416,-0.3522 z m 41.11102,0.8302 c -0.21471,-0.011 -0.44438,0.053 -0.65416,0.2264 -0.81937,0.6751 -1.9368,1.3571 -3.32112,2.6167 -1.38537,1.2389 -5.24874,4.2861 -6.21456,5.1075 -0.96477,0.8381 -1.38392,0.2881 -3.17016,2.365 -1.80491,2.0791 0.11438,2.3559 0.67932,1.9374 0.54729,-0.4207 1.09368,-0.8329 1.7864,-1.1071 0.69164,-0.2918 1.40284,-1.2499 2.64176,-2.4909 1.23997,-1.2399 2.22761,-0.8707 3.32112,-2.365 1.11123,-1.4964 3.86851,-4.2174 5.10752,-4.9817 0.92838,-0.5756 0.46801,-1.2776 -0.17612,-1.3083 z m -39.07326,1.0571 c -0.79796,0.1066 -0.65321,0.8643 0.27675,1.3839 1.2576,0.6916 5.12845,2.7487 6.23969,3.296 1.0935,0.5473 2.19877,0.7128 3.01918,1.258 0.83805,0.5483 3.45873,1.9202 4.15137,2.3398 0.69267,0.4206 4.97749,2.6229 6.08871,3.1702 1.09352,0.5659 1.65243,-0.9567 1.23281,-1.3587 -0.41787,-0.4186 -1.11671,-0.5603 -1.93712,-0.9798 -0.83733,-0.4002 -3.8678,-1.797 -5.10687,-2.491 -1.23989,-0.694 -3.87424,-2.0692 -5.25825,-2.6167 -1.3848,-0.5458 -5.66723,-3.3292 -7.59871,-3.8749 -0.48307,-0.141 -0.84136,-0.1611 -1.10704,-0.1257 z m 22.79535,10.6429 c -0.40087,0.1256 -1.24423,0.9695 -0.67932,1.9374 0.54624,0.9658 1.37241,1.4925 1.93728,0.2515 0.54624,-1.2389 -0.83846,-2.3353 -1.258,-2.1889 z"
           style="fill:#ffffff;fill-rule:evenodd"
           id="path2875"
           inkscape:connector-curvature="0" />
        <g
           transform="translate(182.1875,996.76843)"
           id="layer5">
          <rect
             id="rect3171"
             style="opacity:0.1;fill:url(#linearGradient3085-3);stroke:#ffffff;stroke-width:0.5;stroke-linecap:round;filter:url(#filter3794-68)"
             clip-path="url(#clipPath3613-00)"
             rx="12"
             ry="12"
             height="66"
             width="66"
             y="15"
             x="15" />
        </g>
      </g>
    </g>
  </g>
</svg>
