<?xml version="1.0" encoding="UTF-8" standalone="no"?>
<!-- Created with Inkscape (http://www.inkscape.org/) -->

<svg
   xmlns:dc="http://purl.org/dc/elements/1.1/"
   xmlns:cc="http://creativecommons.org/ns#"
   xmlns:rdf="http://www.w3.org/1999/02/22-rdf-syntax-ns#"
   xmlns:svg="http://www.w3.org/2000/svg"
   xmlns="http://www.w3.org/2000/svg"
   xmlns:xlink="http://www.w3.org/1999/xlink"
   xmlns:sodipodi="http://sodipodi.sourceforge.net/DTD/sodipodi-0.dtd"
   xmlns:inkscape="http://www.inkscape.org/namespaces/inkscape"
   width="96"
   height="96"
   id="svg2"
   version="1.1"
   inkscape:version="0.48.1 r9760"
   sodipodi:docname="nvidia-settings.svg">
  <defs
     id="defs4">
    <filter
       color-interpolation-filters="sRGB"
       inkscape:collect="always"
       id="filter6279">
      <feGaussianBlur
         inkscape:collect="always"
         stdDeviation="0.8"
         id="feGaussianBlur6281" />
    </filter>
    <linearGradient
       inkscape:collect="always"
       xlink:href="#linearGradient3617-12"
       id="linearGradient10902-1"
       gradientUnits="userSpaceOnUse"
       gradientTransform="translate(0,-9.6171873e-6)"
       x1="48"
       y1="1052.3622"
       x2="48"
       y2="902.36218" />
    <linearGradient
       id="linearGradient3617-12"
       y2="5.9877"
       gradientUnits="userSpaceOnUse"
       x2="48"
       y1="90"
       x1="48">
      <stop
         id="stop3702-89"
         style="stop-color:#222"
         offset="0" />
      <stop
         id="stop3704-36"
         style="stop-color:#333"
         offset="1" />
    </linearGradient>
    <clipPath
       id="clipPath3805">
      <rect
         id="rect3807"
         style="fill:#ffffff"
         rx="6"
         ry="4.4196"
         height="41.668999"
         width="80.306999"
         y="28.32"
         x="7.8287001" />
    </clipPath>
    <filter
       id="filter3795"
       color-interpolation-filters="sRGB">
      <feGaussianBlur
         id="feGaussianBlur3797"
         stdDeviation="1.215" />
    </filter>
    <linearGradient
       inkscape:collect="always"
       xlink:href="#linearGradient3762"
       id="linearGradient6783"
       gradientUnits="userSpaceOnUse"
       x1="65.929001"
       y1="6"
       x2="65.929001"
       y2="90.000999" />
    <linearGradient
       id="linearGradient3762"
       y2="90.000999"
       gradientUnits="userSpaceOnUse"
       x2="65.929001"
       y1="6"
       x1="65.929001">
      <stop
         id="stop3758-7"
         style="stop-color:#dbff9a"
         offset="0" />
      <stop
         id="stop3772-4"
         style="stop-color:#dfffa7"
         offset=".17644" />
      <stop
         id="stop3774-18"
         style="stop-color:#c1ff53"
         offset=".29336" />
      <stop
         id="stop3776-5"
         style="stop-color:#82c50c"
         offset=".49319" />
      <stop
         id="stop3764"
         style="stop-color:#609501"
         offset=".75466" />
      <stop
         id="stop3760"
         style="stop-color:#7cbf06"
         offset="1" />
    </linearGradient>
    <linearGradient
       inkscape:collect="always"
       xlink:href="#linearGradient3737-75"
       id="linearGradient6785"
       gradientUnits="userSpaceOnUse"
       gradientTransform="matrix(0.5,0,0,1,61.5,0)"
       x1="-41"
       y1="48"
       x2="-35"
       y2="48" />
    <linearGradient
       id="linearGradient3737-75">
      <stop
         id="stop3739-38"
         style="stop-color:#fff"
         offset="0" />
      <stop
         id="stop3741-83"
         style="stop-color:#fff;stop-opacity:0"
         offset="1" />
    </linearGradient>
    <linearGradient
       inkscape:collect="always"
       xlink:href="#linearGradient3825-1"
       id="linearGradient6787"
       gradientUnits="userSpaceOnUse"
       gradientTransform="matrix(0.66667,0,0,1,-13.667,0)"
       x1="-41"
       y1="48"
       x2="-35"
       y2="48" />
    <linearGradient
       id="linearGradient3825-1"
       y2="48"
       gradientUnits="userSpaceOnUse"
       x2="-35"
       gradientTransform="matrix(0.66667,0,0,1,-13.667,0)"
       y1="48"
       x1="-41">
      <stop
         id="stop3821"
         offset="0" />
      <stop
         id="stop3823"
         style="stop-opacity:0"
         offset="1" />
    </linearGradient>
    <linearGradient
       y2="138.66"
       x2="48"
       y1="20.221001"
       x1="48"
       gradientUnits="userSpaceOnUse"
       id="linearGradient3292"
       xlink:href="#linearGradient3737-2"
       inkscape:collect="always" />
    <linearGradient
       id="linearGradient3737-2">
      <stop
         id="stop3739-08"
         style="stop-color:#fff"
         offset="0" />
      <stop
         id="stop3741-35"
         style="stop-color:#fff;stop-opacity:0"
         offset="1" />
    </linearGradient>
    <clipPath
       id="clipPath3613-96">
      <rect
         id="rect3615-56"
         style="fill:#ffffff"
         rx="6"
         ry="6"
         height="84"
         width="84"
         y="6"
         x="6" />
    </clipPath>
    <filter
       id="filter3794-30"
       height="1.3839999"
       width="1.3839999"
       color-interpolation-filters="sRGB"
       y="-0.192"
       x="-0.192">
      <feGaussianBlur
         id="feGaussianBlur3796-2"
         stdDeviation="5.28" />
    </filter>
  </defs>
  <sodipodi:namedview
     id="base"
     pagecolor="#ffffff"
     bordercolor="#666666"
     borderopacity="1.0"
     inkscape:pageopacity="0.0"
     inkscape:pageshadow="2"
     inkscape:zoom="3.959798"
     inkscape:cx="28.389459"
     inkscape:cy="57.490015"
     inkscape:document-units="px"
     inkscape:current-layer="layer1"
     showgrid="false"
     inkscape:window-width="1280"
     inkscape:window-height="725"
     inkscape:window-x="0"
     inkscape:window-y="25"
     inkscape:window-maximized="1" />
  <metadata
     id="metadata7">
    <rdf:RDF>
      <cc:Work
         rdf:about="">
        <dc:format>image/svg+xml</dc:format>
        <dc:type
           rdf:resource="http://purl.org/dc/dcmitype/StillImage" />
        <dc:title></dc:title>
      </cc:Work>
    </rdf:RDF>
  </metadata>
  <g
     inkscape:label="Layer 1"
     inkscape:groupmode="layer"
     id="layer1"
     transform="translate(0,-956.36217)">
    <g
       transform="translate(-182.1875,-40.40626)"
       id="g6000">
      <rect
         y="964.36218"
         x="8"
         height="80"
         width="80"
         id="rect9283"
         style="fill:#000000;fill-opacity:1;stroke:none;filter:url(#filter6279)"
         rx="5"
         ry="5"
         transform="translate(182.1875,40.40625)" />
      <rect
         ry="5"
         rx="5"
         style="fill:url(#linearGradient10902-1);fill-opacity:1;stroke:none"
         id="rect9285"
         width="80"
         height="80"
         x="8"
         y="964.36218"
         transform="translate(182.1875,40.40625)" />
      <g
         id="g6814">
        <g
           transform="matrix(0.65500187,0,0,0.65500187,198.83746,1013.3172)"
           id="layer3">
          <path
             inkscape:connector-curvature="0"
             id="path3782"
             style="stroke-width:0;stroke-miterlimit:10;filter:url(#filter3795)"
             clip-path="url(#clipPath3805)"
             d="m 41.094,7 v 23.156 c 0.45785,-0.03541 0.91464,-0.07808 1.375,-0.09375 17.731,-0.597 29.281,14.563 29.281,14.563 0,0 -13.269,16.125 -27.094,16.125 -1.267,0 -2.4484,-0.11538 -3.5625,-0.3125 v 4.3125 c 0.95268,0.12096 1.938,0.1875 2.9688,0.1875 12.865,0 22.179,-6.5678 31.188,-14.344 1.4936,1.1962 7.618,4.1008 8.875,5.375 -8.5653,7.1711 -28.527,12.969 -39.844,12.969 -1.0909,0 -2.1577,-0.08816 -3.1875,-0.1875 v 22.25 h 42.906 c 3.324,0 6,-2.676 6,-6 v -72 c 0,-3.324 -2.676,-6 -6,-6 h -42.906 z m 0,61.75 v -4 C 25.35,62.7691 19.969,45.406 19.969,45.406 c 0,0 7.0439,-10.393 21.125,-11.469 V 30.1558 C 25.497,31.4088 12,44.6248 12,44.6248 c 0,0 7.6407,22.1 29.094,24.125 z m 0,-34.812 v 4.6562 c 0.83391,-0.08932 1.7053,-0.15625 2.5938,-0.15625 8.1676,0 13,6.3438 13,6.3438 l -6.625,5.625 c -2.985,-4.976 -4.005,-7.182 -8.969,-7.782 v 14.125 c 1.125,0.37825 2.387,0.625 3.7812,0.625 9.6878,0 18.719,-12.562 18.719,-12.562 0,0 -8.3742,-11.338 -21.125,-10.938 -0.46631,0.01473 -0.92185,0.03085 -1.375,0.0625 z m 0,22.812 c -6.7082,-2.2538 -8.875,-10.062 -8.875,-10.062 0,0 3.8951,-4.6601 8.875,-4.0625 v -4.0312 c -9.4882,1.026 -15.188,7.3438 -15.188,7.3438 0,0 3.2891,12.379 15.188,14.5 v -3.6875 z" />
          <path
             inkscape:connector-curvature="0"
             id="path21"
             style="fill:url(#linearGradient6783);stroke-width:0;stroke-miterlimit:10"
             d="m 41.094,6 v 23.156 c 0.45785,-0.03541 0.91464,-0.07808 1.375,-0.09375 17.731,-0.597 29.281,14.563 29.281,14.563 0,0 -13.269,16.125 -27.094,16.125 -1.267,0 -2.4484,-0.11538 -3.5625,-0.3125 v 4.3125 c 0.95268,0.12096 1.938,0.1875 2.9688,0.1875 12.865,0 22.179,-6.5678 31.188,-14.344 1.4936,1.1962 7.618,4.1008 8.875,5.375 -8.5653,7.1711 -28.527,12.969 -39.844,12.969 -1.0909,0 -2.1577,-0.08816 -3.1875,-0.1875 v 22.25 h 42.906 c 3.324,0 6,-2.676 6,-6 v -72 c 0,-3.324 -2.676,-6 -6,-6 h -42.906 z m 0,61.75 v -4 C 25.35,61.7691 19.969,44.406 19.969,44.406 c 0,0 7.0439,-10.393 21.125,-11.469 V 29.1558 C 25.497,30.4088 12,43.6248 12,43.6248 c 0,0 7.6407,22.1 29.094,24.125 z m 0,-34.812 v 4.6562 c 0.83391,-0.08932 1.7053,-0.15625 2.5938,-0.15625 8.1676,0 13,6.3438 13,6.3438 l -6.625,5.625 c -2.985,-4.976 -4.005,-7.182 -8.969,-7.782 v 14.125 c 1.125,0.37825 2.387,0.625 3.7812,0.625 9.6878,0 18.719,-12.562 18.719,-12.562 0,0 -8.3742,-11.338 -21.125,-10.938 -0.46631,0.01473 -0.92185,0.03085 -1.375,0.0625 z m 0,22.812 c -6.7082,-2.2538 -8.875,-10.062 -8.875,-10.062 0,0 3.8951,-4.6601 8.875,-4.0625 v -4.0312 c -9.4882,1.026 -15.188,7.3438 -15.188,7.3438 0,0 3.2891,12.379 15.188,14.5 v -3.6875 z" />
          <path
             inkscape:connector-curvature="0"
             id="path3766"
             style="opacity:0.6;fill:#ffffff;stroke-width:0;stroke-miterlimit:10"
             d="M 41.094,29.156 C 25.497,30.409 12,43.625 12,43.625 c 0,0 0.13377,0.37718 0.28125,0.75 1.3919,-1.3215 14.088,-13.036 28.812,-14.219 v -1 z m 1.375,3.7188 c -0.46631,0.01473 -0.92185,0.03085 -1.375,0.0625 v 1 c 0.45315,-0.03165 0.90869,-0.04777 1.375,-0.0625 11.157,-0.35044 18.973,8.2728 20.75,10.438 0.23311,-0.30279 0.375,-0.5 0.375,-0.5 0,0 -8.3742,-11.338 -21.125,-10.938 z m -1.375,4.7188 c -9.4882,1.026 -15.188,7.3438 -15.188,7.3438 0,0 0.06756,0.30706 0.21875,0.75 1.0983,-1.1147 6.5275,-6.181 14.969,-7.0938 v -1 z m 0,4.0312 v 1 c 4.964,0.59981 5.9844,2.8063 8.9688,7.7812 l 6.625,-5.625 c 0,0 -0.19894,-0.26001 -0.5,-0.59375 l -6.125,5.2188 c -2.985,-4.975 -4.005,-7.181 -8.969,-7.781 z m 30.25,2.4688 c -1.987,2.303 -14.043,15.656 -26.688,15.656 -1.267,0 -2.4484,-0.11538 -3.5625,-0.3125 v 1 c 1.1141,0.19712 2.2955,0.3125 3.5625,0.3125 13.824,0 27.094,-16.125 27.094,-16.125 0,0 -0.18518,-0.26422 -0.40625,-0.53125 z m -51.156,1 c -0.10314,0.13984 -0.21875,0.3125 -0.21875,0.3125 0,0 5.3814,17.363 21.125,19.344 v -1 c -13.948,-1.755 -19.761,-15.525 -20.906,-18.656 z m 12.281,1.3438 c -0.05952,0.06661 -0.25,0.25 -0.25,0.25 0,0 2.1668,7.8087 8.875,10.062 v -1 c -5.4931,-1.8456 -7.9184,-7.3551 -8.625,-9.3125 z m 51.031,9 c -8.8618,6.9489 -28.154,12.5 -39.219,12.5 -1.0909,0 -2.1577,-0.08816 -3.1875,-0.1875 v 1 c 1.0298,0.09934 2.0966,0.1875 3.1875,0.1875 11.317,0 31.278,-5.7977 39.844,-12.969 -0.146,-0.146 -0.366,-0.345 -0.626,-0.53 z" />
          <path
             inkscape:connector-curvature="0"
             id="rect3827"
             style="opacity:0.6;fill:url(#linearGradient6785)"
             d="m 41.094,6 v 23.156 c 0.45785,-0.03541 0.91464,-0.07808 1.375,-0.09375 0.5123,-0.01727 1.0294,-0.0083 1.5312,0 v -23.062 h -2.906 z m 0,23.156 c -0.03076,0.0025 -0.063,-0.0026 -0.09375,0 v 3.7812 c 0.03108,-0.0025 0.0626,0.0024 0.09375,0 V 29.156 z m 0,3.7812 v 4.6562 c 0.83391,-0.08932 1.7053,-0.15625 2.5938,-0.15625 0.10616,0 0.20746,-0.0021 0.3125,0 v -4.5312 c -0.50249,-0.02084 -1.0141,-0.04749 -1.5312,-0.03125 -0.46631,0.01473 -0.92185,0.03085 -1.375,0.0625 z m 0,4.6562 c -0.03168,0.0034 -0.06216,-0.0035 -0.09375,0 v 4.0312 c 0.03196,0.0034 0.06171,-0.0038 0.09375,0 v -4.0312 z m 0,4.0312 v 14.125 c 0.88636,0.298 1.8522,0.51535 2.9062,0.59375 v -14 c -0.808,-0.333 -1.738,-0.577 -2.906,-0.718 z m 0,14.125 c -0.032,-0.01 -0.063,-0.019 -0.094,-0.03 v 3.6875 c 0.03256,0.006 0.06106,0.02542 0.09375,0.03125 v -3.6875 z m 0,3.6875 v 4.3125 c 0.93287,0.11845 1.8988,0.1848 2.9062,0.1875 v -4.2188 c -1.017,-0.031 -1.99,-0.117 -2.906,-0.279 z m 0,4.3125 c -0.032,-0.002 -0.063,0.006 -0.094,0.002 v 4 c 0.03136,0.0031 0.06233,-0.003 0.09375,0 v -4 z m 0,4 v 22.25 L 44,90.0016 v -22.062 c -0.993,-0.014 -1.965,-0.097 -2.906,-0.188 z" />
          <rect
             id="rect3809"
             style="opacity:0.6;fill:url(#linearGradient6787)"
             transform="scale(-1,1)"
             height="84"
             width="4"
             y="6"
             x="-41" />
        </g>
        <rect
           transform="translate(182.1875,996.76843)"
           x="15"
           y="15"
           width="66"
           height="66"
           ry="12"
           rx="12"
           clip-path="url(#clipPath3613-96)"
           style="opacity:0.1;fill:url(#linearGradient3292);stroke:#ffffff;stroke-width:0.5;stroke-linecap:round;filter:url(#filter3794-30)"
           id="rect3171" />
      </g>
    </g>
  </g>
</svg>
