<?xml version="1.0" encoding="UTF-8" standalone="no"?>
<!-- Created with Inkscape (http://www.inkscape.org/) -->
<svg id="svg2" xmlns:rdf="http://www.w3.org/1999/02/22-rdf-syntax-ns#" xmlns="http://www.w3.org/2000/svg" height="96" width="96" version="1.1" xmlns:cc="http://creativecommons.org/ns#" xmlns:xlink="http://www.w3.org/1999/xlink" xmlns:dc="http://purl.org/dc/elements/1.1/">
 <defs id="defs4">
  <filter id="filter6279" color-interpolation-filters="sRGB">
   <feGaussianBlur id="feGaussianBlur6281" stdDeviation="0.8"/>
  </filter>
  <linearGradient id="linearGradient21245" x1="48" gradientUnits="userSpaceOnUse" y1="1052.4" gradientTransform="translate(0 -.0000096172)" x2="48" y2="902.36">
   <stop id="stop3702-60" style="stop-color:#ab231d" offset="0"/>
   <stop id="stop3704-4" style="stop-color:#e5625c" offset="1"/>
  </linearGradient>
 </defs>
 <metadata id="metadata7">
  <rdf:RDF>
   <cc:Work rdf:about="">
    <dc:format>image/svg+xml</dc:format>
    <dc:type rdf:resource="http://purl.org/dc/dcmitype/StillImage"/>
    <dc:title/>
   </cc:Work>
  </rdf:RDF>
 </metadata>
 <g id="layer1" transform="translate(0 -956.36)">
  <g id="g21306" transform="translate(2.861e-8 -.0000095886)">
   <rect id="rect9283" style="filter:url(#filter6279)" rx="5" ry="5" height="80" width="80" y="964.36" x="8"/>
   <rect id="rect9285" style="fill:url(#linearGradient21245)" rx="5" ry="5" height="80" width="80" y="964.36" x="8"/>
   <path id="rect3789-1-5" style="fill:#fff" d="m19.562 971.86c-2.2506 0-4.0625 1.8119-4.0625 4.0625v56.875c0 2.2506 1.8119 4.0625 4.0625 4.0625h56.875c2.2506 0 4.0625-1.8119 4.0625-4.0625v-56.875c0-2.2506-1.8119-4.0625-4.0625-4.0625h-56.875zm4.375 5h48.125c1.9044 0 3.4375 1.5331 3.4375 3.4375v48.125c0 1.9044-1.5331 3.4375-3.4375 3.4375h-48.125c-1.9044 0-3.4375-1.5331-3.4375-3.4375v-48.125c0-1.9044 1.5331-3.4375 3.4375-3.4375z"/>
   <path id="path5962" style="fill:#cd5751" d="m58.001 1003.4c-7.3697 0-13.583 1.8623-15.438 4.4062-0.0219 0.03-0.0417 0.064-0.0625 0.094-0.2011 0.2944-0.32632 0.5961-0.40625 0.9062-0.006 0.022-0.0259 0.04-0.0312 0.062-0.04 0.171-0.063 0.356-0.063 0.531v16c0 3.312 7.168 6 16 6s16-2.688 16-6v-16c0-0.1751-0.0232-0.3599-0.0625-0.5312-0.008-0.032-0.0222-0.062-0.0312-0.094-0.0847-0.3124-0.22977-0.6098-0.4375-0.9062-0.0582-0.081-0.12085-0.1699-0.1875-0.25-2.027-2.442-8.105-4.219-15.281-4.219zm0 4c4.7047 0 8.8898 0.7845 11.812 2-2.922 1.216-7.107 2-11.812 2s-8.89-0.784-11.812-2c2.922-1.2159 7.107-2 11.812-2zm-12 5.9691c2.933 1.248 7.218 2.0309 12 2.0309s9.0673-0.7827 12-2.0311v3.9375c-2.928 1.263-7.19 2.094-12 2.094s-9.072-0.831-12-2.094v-3.9375zm0 8c2.933 1.248 7.218 2.0309 12 2.0309s9.0673-0.7827 12-2.0311v3.9375c-2.928 1.263-7.19 2.094-12 2.094s-9.072-0.831-12-2.094v-3.9375z"/>
   <g id="g6906" style="fill:#fff" transform="matrix(.70778 0 0 .70778 -45.906 271.47)">
    <path id="path3597" style="fill:#fff;fill-rule:evenodd" d="m95.275 1039.7c-0.7912-0.792 11.799-20.136 36.016-13.238 10.708-15.575 30.922-12.112 31.733-10.708 0.901 1.56-20.052 0.779-29.786 19.079-19.175-9.227-37.06 5.769-37.963 4.867z"/>
    <path id="path3599" style="fill:#fff;fill-rule:evenodd" d="m103.67 1013.2c-0.591-0.688 8.476-14.106 27.63-7.018 9.059-10.112 22.855-5.85 23.423-4.667 0.63 1.313-13.543-1.616-21.792 10.558-14.928-8.644-28.589 1.911-29.261 1.127z"/>
    <path id="path3617" style="fill:#fff;fill-rule:evenodd" d="m146.21 999.61c-4.6524 0.0505-10.377 1.5375-14.906 6.5938-19.154-7.0882-28.215 6.3125-27.625 7 0.047 0.055 0.17425 0.045 0.34375 0 1.8732-3.1304 10.872-12.072 27.281-6 7.8368-8.7485 19.205-6.7484 22.5-5.2812 0.665-0.074 1.046-0.18 0.937-0.407-0.284-0.591-3.879-1.957-8.531-1.906z"/>
    <path id="path3622" style="fill:#fff;fill-rule:evenodd" d="m155.46 1014.4c-7.0613 0.012-17.464 2.2972-24.156 12.031-24.218-6.8978-36.823 12.459-36.031 13.25 0.18908 0.1891 1.276-0.4119 2.8125-1.25 4.2573-5.4263 15.907-15.216 34.219-10 8.229-11.969 22.039-12.693 28.375-11.75 1.6164-0.3547 2.5453-0.5884 2.3438-0.9375-0.3041-0.5267-3.3257-1.3507-7.5625-1.3438z"/>
    <path id="path3627" style="opacity:.5;fill:#fff;fill-rule:evenodd" d="m162.24 1015.3c-3.8214 1.1401-20.587 2.6834-29 18.5-18.124-8.7209-35.088 4.1945-37.656 4.875-0.28471 0.5482-0.4071 0.9054-0.3125 1 0.901 0.902 18.793-14.101 37.968-4.875 9.734-18.3 30.682-17.502 29.781-19.062-0.077-0.133-0.38-0.286-0.781-0.438z"/>
    <path id="path3633" style="opacity:.3;fill:#fff;fill-rule:evenodd" d="m153.8 1000.9c-3.1943 0.352-14.049 0.082-20.875 10.156-13.887-8.0411-26.647 0.5202-28.906 1.125-0.31338 0.5237-0.42836 0.9015-0.34375 1 0.67292 0.7837 14.322-9.7694 29.25-1.125 8.249-12.174 22.443-9.249 21.813-10.562-0.077-0.159-0.424-0.365-0.938-0.594z"/>
   </g>
  </g>
 </g>
</svg>
