<?xml version="1.0" encoding="UTF-8" standalone="no"?>
<!-- Created with Inkscape (http://www.inkscape.org/) -->

<svg
   xmlns:dc="http://purl.org/dc/elements/1.1/"
   xmlns:cc="http://creativecommons.org/ns#"
   xmlns:rdf="http://www.w3.org/1999/02/22-rdf-syntax-ns#"
   xmlns:svg="http://www.w3.org/2000/svg"
   xmlns="http://www.w3.org/2000/svg"
   xmlns:xlink="http://www.w3.org/1999/xlink"
   xmlns:sodipodi="http://sodipodi.sourceforge.net/DTD/sodipodi-0.dtd"
   xmlns:inkscape="http://www.inkscape.org/namespaces/inkscape"
   width="96"
   height="96"
   id="svg2982"
   version="1.1"
   inkscape:version="0.48.1 r9760"
   sodipodi:docname="openerp-client.svg">
  <defs
     id="defs2984">
    <filter
       color-interpolation-filters="sRGB"
       inkscape:collect="always"
       id="filter6279">
      <feGaussianBlur
         inkscape:collect="always"
         stdDeviation="0.8"
         id="feGaussianBlur6281" />
    </filter>
    <linearGradient
       inkscape:collect="always"
       xlink:href="#linearGradient3617-53"
       id="linearGradient10902-1"
       gradientUnits="userSpaceOnUse"
       gradientTransform="translate(0,-9.6171873e-6)"
       x1="48"
       y1="1052.3622"
       x2="48"
       y2="902.36218" />
    <linearGradient
       id="linearGradient3617-53"
       y2="5.9877"
       gradientUnits="userSpaceOnUse"
       x2="48"
       y1="90"
       x1="48"
       gradientTransform="translate(-42.402827,0)">
      <stop
         id="stop3702-88"
         style="stop-color:#b4b4b4"
         offset="0" />
      <stop
         id="stop3704-31"
         style="stop-color:#e6e6e6"
         offset="1" />
    </linearGradient>
    <linearGradient
       y2="56.016998"
       x2="38.176998"
       y1="48.849998"
       x1="38.176998"
       gradientTransform="matrix(6.811139,0,0,6.811139,-23.741658,687.68103)"
       gradientUnits="userSpaceOnUse"
       id="linearGradient3080"
       xlink:href="#linearGradient3845"
       inkscape:collect="always" />
    <linearGradient
       id="linearGradient3845"
       y2="56.016998"
       gradientUnits="userSpaceOnUse"
       x2="38.176998"
       gradientTransform="matrix(8.9302,0,0,8.9302,-284.93,-420.24)"
       y1="48.849998"
       x1="38.176998">
      <stop
         id="stop3820-6"
         style="stop-color:#a00"
         offset="0" />
      <stop
         id="stop3822-9"
         style="stop-color:#d20000"
         offset="1" />
    </linearGradient>
    <linearGradient
       y2="138.66"
       x2="48"
       y1="20.221001"
       x1="48"
       gradientUnits="userSpaceOnUse"
       id="linearGradient3102"
       xlink:href="#linearGradient3737-44"
       inkscape:collect="always" />
    <linearGradient
       id="linearGradient3737-44">
      <stop
         id="stop3739-60"
         style="stop-color:#fff"
         offset="0" />
      <stop
         id="stop3741-74"
         style="stop-color:#fff;stop-opacity:0"
         offset="1" />
    </linearGradient>
    <clipPath
       id="clipPath3613-37">
      <rect
         id="rect3615-9"
         style="fill:#ffffff"
         rx="6"
         ry="6"
         height="84"
         width="84"
         y="6"
         x="6" />
    </clipPath>
    <filter
       id="filter3794-00"
       height="1.3839999"
       width="1.3839999"
       color-interpolation-filters="sRGB"
       y="-0.192"
       x="-0.192">
      <feGaussianBlur
         id="feGaussianBlur3796-2"
         stdDeviation="5.28" />
    </filter>
  </defs>
  <sodipodi:namedview
     id="base"
     pagecolor="#ffffff"
     bordercolor="#666666"
     borderopacity="1.0"
     inkscape:pageopacity="0.0"
     inkscape:pageshadow="2"
     inkscape:zoom="3.959798"
     inkscape:cx="36.39115"
     inkscape:cy="42.877139"
     inkscape:document-units="px"
     inkscape:current-layer="layer1"
     showgrid="false"
     inkscape:window-width="1280"
     inkscape:window-height="725"
     inkscape:window-x="0"
     inkscape:window-y="25"
     inkscape:window-maximized="1" />
  <metadata
     id="metadata2987">
    <rdf:RDF>
      <cc:Work
         rdf:about="">
        <dc:format>image/svg+xml</dc:format>
        <dc:type
           rdf:resource="http://purl.org/dc/dcmitype/StillImage" />
        <dc:title></dc:title>
      </cc:Work>
    </rdf:RDF>
  </metadata>
  <g
     inkscape:label="Layer 1"
     inkscape:groupmode="layer"
     id="layer1"
     transform="translate(0,-956.36218)">
    <g
       transform="translate(-182.1875,-40.40625)"
       id="g5956">
      <rect
         y="964.36218"
         x="8"
         height="80"
         width="80"
         id="rect9283"
         style="fill:#000000;fill-opacity:1;stroke:none;filter:url(#filter6279)"
         rx="5"
         ry="5"
         transform="translate(182.1875,40.40625)" />
      <rect
         ry="5"
         rx="5"
         style="fill:url(#linearGradient10902-1);fill-opacity:1;stroke:none"
         id="rect9285"
         width="80"
         height="80"
         x="8"
         y="964.36218"
         transform="translate(182.1875,40.40625)" />
      <g
         id="g6757">
        <path
           inkscape:connector-curvature="0"
           id="path3816"
           style="fill:url(#linearGradient3080)"
           d="m 248.70467,1038.2668 c -5e-5,-2.6872 -0.35923,-5.1217 -1.07756,-7.3034 -0.71842,-2.1817 -1.72944,-4.0441 -3.03306,-5.5873 -1.30377,-1.5431 -2.87351,-2.7271 -4.70927,-3.5519 -1.80922,-0.8514 -3.83131,-1.2771 -6.0662,-1.2772 -2.44776,10e-5 -4.69599,0.4791 -6.74463,1.4368 -2.04871,0.9579 -3.89782,2.235 -5.54741,3.8314 -1.62297,1.5963 -3.05968,3.4454 -4.31022,5.5473 -1.22392,2.0753 -2.24823,4.257 -3.07303,6.5451 -0.82478,2.2882 -1.45006,4.6029 -1.87573,6.9443 -0.39906,2.3147 -0.59863,4.4964 -0.59863,6.5451 -2e-5,2.6606 0.34587,5.0684 1.03767,7.2235 0.71835,2.1551 1.71609,3.9909 2.99317,5.5074 1.27708,1.5166 2.80692,2.6873 4.58952,3.5121 1.80922,0.8247 3.81796,1.2372 6.02631,1.2372 2.44776,0 4.69592,-0.4656 6.74463,-1.3968 2.07525,-0.9579 3.93764,-2.2217 5.5873,-3.7914 1.67613,-1.5697 3.13946,-3.3923 4.38999,-5.4675 1.25047,-2.0753 2.28806,-4.2437 3.11292,-6.5052 0.85134,-2.2882 1.48988,-4.5764 1.91563,-6.8644 0.42563,-2.3148 0.63847,-4.5098 0.63854,-6.585 m -22.66769,34.0015 c -3.27255,0 -6.27908,-0.5188 -9.01979,-1.5565 -2.74041,-1.0376 -5.09513,-2.4876 -7.0639,-4.3501 -1.96886,-1.8889 -3.51204,-4.1372 -4.62949,-6.7446 -1.09083,-2.6074 -1.63632,-5.4942 -1.63624,-8.6606 -1e-5,-3.0064 0.30596,-5.9198 0.91792,-8.7399 0.61191,-2.8202 1.51657,-5.4675 2.71379,-7.942 1.1973,-2.5009 2.66063,-4.7891 4.39,-6.8643 1.75598,-2.0753 3.76473,-3.858 6.02632,-5.3479 2.28812,-1.4899 4.81565,-2.6472 7.58276,-3.4721 2.76704,-0.8247 5.77348,-1.2371 9.01979,-1.2371 3.27248,0 6.279,0.5188 9.01979,1.5564 2.74041,1.0377 5.09505,2.501 7.0639,4.39 1.96878,1.8625 3.49862,4.1107 4.58952,6.7447 1.11738,2.6074 1.67613,5.4808 1.67621,8.6201 -6e-5,2.5808 -0.26611,5.2148 -0.79817,7.9016 -0.50559,2.6607 -1.30378,5.2414 -2.39453,7.7422 -1.06428,2.4745 -2.42121,4.8024 -4.07073,6.9842 -1.64966,2.1818 -3.61843,4.0841 -5.90656,5.707 -2.26159,1.623 -4.84236,2.9134 -7.74226,3.8712 -2.90012,0.9312 -6.14605,1.3968 -9.7375,1.3968" />
        <g
           transform="translate(182.1875,996.76843)"
           id="layer5">
          <rect
             id="rect3171"
             style="opacity:0.1;fill:url(#linearGradient3102);stroke:#ffffff;stroke-width:0.5;stroke-linecap:round;filter:url(#filter3794-00)"
             clip-path="url(#clipPath3613-37)"
             rx="12"
             ry="12"
             height="66"
             width="66"
             y="15"
             x="15" />
        </g>
      </g>
    </g>
  </g>
</svg>
