<?xml version="1.0" encoding="UTF-8" standalone="no"?>
<!-- Created with Inkscape (http://www.inkscape.org/) -->

<svg
   xmlns:dc="http://purl.org/dc/elements/1.1/"
   xmlns:cc="http://creativecommons.org/ns#"
   xmlns:rdf="http://www.w3.org/1999/02/22-rdf-syntax-ns#"
   xmlns:svg="http://www.w3.org/2000/svg"
   xmlns="http://www.w3.org/2000/svg"
   xmlns:xlink="http://www.w3.org/1999/xlink"
   xmlns:sodipodi="http://sodipodi.sourceforge.net/DTD/sodipodi-0.dtd"
   xmlns:inkscape="http://www.inkscape.org/namespaces/inkscape"
   width="96"
   height="96"
   id="svg2982"
   version="1.1"
   inkscape:version="0.48.1 r9760"
   sodipodi:docname="opera.svg">
  <defs
     id="defs2984">
    <filter
       color-interpolation-filters="sRGB"
       inkscape:collect="always"
       id="filter6279">
      <feGaussianBlur
         inkscape:collect="always"
         stdDeviation="0.8"
         id="feGaussianBlur6281" />
    </filter>
    <linearGradient
       inkscape:collect="always"
       xlink:href="#linearGradient3706-7"
       id="linearGradient10902-1"
       gradientUnits="userSpaceOnUse"
       gradientTransform="translate(0,-9.6171873e-6)"
       x1="48"
       y1="1052.3622"
       x2="48"
       y2="902.36218" />
    <linearGradient
       id="linearGradient3706-7"
       y2="5.9877"
       gradientUnits="userSpaceOnUse"
       x2="48"
       y1="90"
       x1="48">
      <stop
         id="stop3189-4"
         style="stop-color:#780000"
         offset="0" />
      <stop
         id="stop3191-1"
         style="stop-color:#e62929"
         offset="1" />
    </linearGradient>
    <radialGradient
       inkscape:collect="always"
       xlink:href="#radialGradient3677"
       id="radialGradient5980"
       gradientUnits="userSpaceOnUse"
       gradientTransform="matrix(1.1226691,4.3381803e-8,-2.8061489e-8,0.72620569,176.04895,1010.858)"
       cx="48"
       cy="46.582001"
       r="42" />
    <radialGradient
       id="radialGradient3677"
       gradientUnits="userSpaceOnUse"
       cy="46.582001"
       cx="48"
       gradientTransform="matrix(1.7146,6.6255e-8,-4.2857e-8,1.1091,-34.302,-5.0824)"
       r="42">
      <stop
         id="stop3673"
         style="stop-color:#ff8080"
         offset="0" />
      <stop
         id="stop3675"
         style="stop-color:#ff8080;stop-opacity:0"
         offset="1" />
    </radialGradient>
    <linearGradient
       y2="106.1"
       x2="68.469002"
       y1="32.188"
       x1="68.469002"
       gradientTransform="matrix(0.74303438,0,0,0.74303438,173.095,993.42958)"
       gradientUnits="userSpaceOnUse"
       id="linearGradient3144"
       xlink:href="#linearGradient3147"
       inkscape:collect="always" />
    <linearGradient
       id="linearGradient3147"
       y2="106.1"
       gradientUnits="userSpaceOnUse"
       x2="68.469002"
       gradientTransform="matrix(0.79257,0,0,0.79257,-12.632,-6.7988)"
       y1="32.188"
       x1="68.469002">
      <stop
         id="stop3547"
         style="stop-color:#fafafa"
         offset="0" />
      <stop
         id="stop3671"
         style="stop-color:#dcdcdc"
         offset=".5" />
      <stop
         id="stop3674-9"
         style="stop-color:#c8c8c8"
         offset=".5" />
      <stop
         id="stop3549"
         style="stop-color:#ebebeb"
         offset="1" />
    </linearGradient>
    <linearGradient
       y2="138.66"
       x2="48"
       y1="20.221001"
       x1="48"
       gradientUnits="userSpaceOnUse"
       id="linearGradient3165"
       xlink:href="#linearGradient2885-5"
       inkscape:collect="always" />
    <linearGradient
       id="linearGradient2885-5"
       y2="138.66"
       gradientUnits="userSpaceOnUse"
       x2="48"
       y1="20.221001"
       x1="48">
      <stop
         id="stop3739-73-2"
         style="stop-color:#fff"
         offset="0" />
      <stop
         id="stop3741-6-1"
         style="stop-color:#fff;stop-opacity:0"
         offset="1" />
    </linearGradient>
    <clipPath
       id="clipPath3613-59">
      <rect
         id="rect3615-9"
         style="fill:#ffffff"
         rx="6"
         ry="6"
         height="84"
         width="84"
         y="6"
         x="6" />
    </clipPath>
    <filter
       id="filter3794-162"
       height="1.3839999"
       width="1.3839999"
       color-interpolation-filters="sRGB"
       y="-0.192"
       x="-0.192">
      <feGaussianBlur
         id="feGaussianBlur3796-1"
         stdDeviation="5.28" />
    </filter>
  </defs>
  <sodipodi:namedview
     id="base"
     pagecolor="#ffffff"
     bordercolor="#666666"
     borderopacity="1.0"
     inkscape:pageopacity="0.0"
     inkscape:pageshadow="2"
     inkscape:zoom="3.959798"
     inkscape:cx="36.39115"
     inkscape:cy="42.877139"
     inkscape:document-units="px"
     inkscape:current-layer="layer1"
     showgrid="false"
     inkscape:window-width="1280"
     inkscape:window-height="725"
     inkscape:window-x="0"
     inkscape:window-y="25"
     inkscape:window-maximized="1" />
  <metadata
     id="metadata2987">
    <rdf:RDF>
      <cc:Work
         rdf:about="">
        <dc:format>image/svg+xml</dc:format>
        <dc:type
           rdf:resource="http://purl.org/dc/dcmitype/StillImage" />
        <dc:title></dc:title>
      </cc:Work>
    </rdf:RDF>
  </metadata>
  <g
     inkscape:label="Layer 1"
     inkscape:groupmode="layer"
     id="layer1"
     transform="translate(0,-956.36218)">
    <g
       transform="translate(-181.9375,-40.40625)"
       id="g5979">
      <rect
         y="964.36218"
         x="8"
         height="80"
         width="80"
         id="rect9283"
         style="fill:#000000;fill-opacity:1;stroke:none;filter:url(#filter6279)"
         rx="5"
         ry="5"
         transform="translate(181.9375,40.40625)" />
      <rect
         ry="5"
         rx="5"
         style="fill:url(#linearGradient10902-1);fill-opacity:1;stroke:none"
         id="rect9285"
         width="80"
         height="80"
         x="8"
         y="964.36218"
         transform="translate(181.9375,40.40625)" />
      <g
         id="g6799">
        <path
           d="m 222.26002,1018.1679 c 1.08043,1.4515 0.0737,3.8752 1.70338,3.8511 0.79352,1.1223 -1.5816,0.3348 0.1333,1.1998 0.98615,0.7769 -1.04331,1.2208 0.17796,1.9181 -1.40755,0.7266 0.22815,3.8002 1.2736,4.5695 1.72073,1.4491 0.76097,-3.0681 2.68096,-3.3031 1.04331,-1.1915 2.87562,-1.9563 4.17697,-3.1549 -1.27176,-0.1033 -2.0144,-0.8952 -0.80995,-1.3857 2.21673,2.2723 0.55583,-1.0761 -0.6712,-1.6063 1.18736,-0.3779 2.34211,-0.1012 2.17737,-1.0813 1.25473,-0.9183 -1.20628,-1.2148 -2.08472,-1.0072 h -8.75756 z m -18.20393,0.948 c -1.60399,0.4572 -1.71589,4.2917 -0.10365,2.1624 0.39568,-0.8742 2.22445,-1.928 0.10365,-2.1624 z m 7.4945,0.1333 c -0.92473,1.4505 0.13418,2.6135 0.90352,0.8443 0.54458,-0.7388 -0.4046,-0.8172 -0.90352,-0.8443 z m 2.31069,0.3259 c -1.78674,0.8284 -0.4404,2.7603 -0.39618,3.1899 1.8822,0.6513 2.92892,-0.426 3.64098,1.4152 1.79093,1.0325 -0.0352,2.8267 -0.70748,3.294 1.21087,-1.055 3.53851,2.8682 2.92827,0.7955 -0.72798,-0.5318 1.95462,0.8542 0.56285,-0.8739 -1.2808,-2.0643 0.10167,-0.9242 0.64164,-0.4425 1.83657,-1.6474 -2.07798,-1.8466 -1.1008,-3.542 -0.85631,-0.6938 -1.9793,-2.7956 -3.49562,-2.3848 -1.01502,1.3133 -0.14022,-2.8613 -1.62946,-0.7723 -0.0772,1.1677 -0.0281,2.6495 -0.46208,0.6265 -0.29076,-0.3541 0.50025,-1.1775 0.0179,-1.3057 z m -3.64373,0.015 c -1.19928,0.3999 -1.13485,2.0209 0.3398,2.1947 0.50511,-0.5759 0.20068,-2.0856 -0.3398,-2.1947 z m -4.68056,0.5184 c -1.55777,0.3692 -0.92192,1.6257 -0.44497,1.9795 -1.92823,0.4832 2.94365,0.6176 0.51903,0.9236 -2.01722,0.8059 1.9425,1.7553 2.5921,0.7998 2.49101,0.6095 0.0896,-1.9947 -0.12901,-3.4064 -1.05602,-1.1337 -0.0417,2.6135 -0.9965,0.1207 -0.33314,0.7403 -1.39237,0.1091 -1.54067,-0.4172 z m 49.50128,0.1629 c -2.09029,0.8184 1.2992,3.9066 0.4568,1.0971 -0.0839,-0.3392 0.1887,-1.2356 -0.4568,-1.0971 z m -43.65026,1.2441 c -1.5021,1.4121 1.90931,2.5799 -0.43142,3.6319 -0.35097,-1.3114 -0.95486,0.6562 -2.29399,-0.4029 -2.30211,0.9589 -3.47939,-0.4995 -5.40677,-1.4992 -1.15763,-0.1442 -0.72273,1.1004 -0.79941,2.2657 v 9.6611 c 1.13505,1.1946 0.44284,0.527 0,0.1975 0.623,2.1225 -0.27472,5.2252 2.18098,6.4599 0.41745,0.7746 2.16919,4.0747 2.24992,3.0872 -0.87818,-0.92 -1.77927,-3.6781 -0.29327,-1.2198 1.33101,2.3367 3.12633,3.8523 5.74921,4.4084 1.43401,0.488 2.61332,2.1653 3.87434,1.7962 0.71311,1.8805 -2.11321,3.6863 0.0949,5.4403 1.15272,1.7756 3.08803,2.9402 2.04027,5.433 -0.73276,2.4346 -0.41901,5.0874 -1.05274,7.3557 -0.19669,1.3807 1.92371,4.8852 1.74005,2.0789 0.61913,-1.9501 0.60281,-4.0959 2.06095,-5.477 1.99515,0.016 0.38133,-2.1462 2.36176,-1.8637 1.20844,-1.5846 1.55848,-3.4749 3.5979,-4.1042 0.2436,-1.9234 3.39092,-4.8692 0.13955,-5.6181 -0.88367,-0.4357 -3.15893,-0.5924 -2.98509,-0.8074 0.35228,-1.9086 -2.94221,-2.4519 -4.34388,-3.2328 -1.84043,-1.3068 -4.60579,2.171 -5.2542,-0.8257 -0.38689,-0.9428 -1.80147,-0.9581 -1.15135,-2.4129 -1.17165,1.1657 -3.46328,0.8114 -2.86331,-1.4398 0.91118,-1.896 4.41027,-1.9857 5.00657,0.2948 -0.82789,-2.5151 1.60019,-4.473 2.9481,-6.2623 0.27445,-0.8553 1.90519,-1.5901 1.34405,-0.4534 0.95609,-0.035 2.40516,-1.7604 0.70676,-0.9638 -0.024,-1.574 -1.4883,-1.1264 -1.963,-0.9029 0.87988,-1.397 5.39858,-0.6333 3.50636,-2.9167 -1.46623,-0.5943 -1.34425,-4.0625 -2.8273,-2.1304 0.1248,-1.1904 -3.01849,-3.5207 -2.94994,-1.5245 0.38369,1.7863 0.0701,3.8441 -0.74637,5.015 -0.1704,-2.6175 -4.63296,-2.039 -4.05918,-4.8283 0.83116,-1.3294 1.80251,-3.1677 1.89503,-3.0023 1.4896,-0.569 2.68757,-2.2239 0.96107,-3.3119 -0.0923,0.9482 -1.29841,2.9046 -1.12862,0.5384 -1.11691,1.3248 -0.86181,-2.1079 -1.90787,-2.4639 z m 35.65224,0.9183 c -2.61639,0.6402 -3.65368,3.1402 -4.94796,5.2108 -1.90794,0.8605 -1.83526,4.5561 0.29622,3.3758 0.57049,0.9968 -0.39908,2.5678 1.26259,1.2645 1.34032,-1.7744 0.23437,-4.6442 2.51524,-5.763 0.16613,0.87 -2.10397,4.1185 0.54803,3.5845 2.39751,0.091 -1.74293,0.2389 -0.57685,1.771 -1.21152,-0.7191 -0.58198,1.9638 -2.16336,1.3395 -1.36997,0.7454 -2.26832,-0.3462 -1.95449,-1.542 -1.07775,0.6289 0.33898,2.4033 -1.5319,2.5099 -0.41908,1.4888 -3.86537,1.2644 -1.90551,2.7803 0.87012,2.256 -3.2421,0.1415 -2.07464,2.8486 0.99879,2.677 3.09209,-0.887 3.94132,-1.5756 1.63857,-1.2715 4.06659,2.168 2.59211,2.2958 1.65336,-0.2219 1.3136,-1.7948 -0.0111,-2.4038 -0.71547,-1.8562 2.26485,0.9103 2.09958,1.841 1.0515,1.9697 0.61851,-2.0168 1.68859,-0.2518 -0.12494,1.8618 4.30459,0.4378 2.18981,2.8105 -1.81823,0.3664 -3.60785,-0.4689 -5.1732,0.066 -1.45693,-0.013 -1.38386,-1.5702 -1.91429,-1.9601 -1.85326,0.1507 -4.14332,0.1337 -5.38405,1.6313 -1.34162,1.8414 -3.27634,4.4157 -1.81404,6.7671 1.46335,3.4843 5.09228,0.1808 7.17825,2.2385 0.62003,0.858 -0.5373,1.8779 0.84904,2.8073 0.52166,1.9797 -0.59223,3.8594 0.68901,5.7519 0.6625,1.7798 1.0737,4.4436 3.53956,2.8173 2.60979,-1.5711 1.91468,-4.4673 4.06802,-6.0714 -1.7039,-3.2988 2.08453,-4.7452 3.02976,-7.4231 -2.06508,0.3025 -3.90492,-1.7573 -4.40386,-3.8304 -0.8675,-1.007 -0.64408,-2.4917 0.32499,-0.6 1.33199,1.2911 1.36074,5.1223 3.8247,3.1514 1.12641,-0.4714 4.20271,-2.2692 1.75158,-3.0875 -1.58061,1.1446 -3.32361,-3.4211 -1.00376,-0.7732 1.68669,0.7163 2.86789,1.1425 2.86789,-1.231 v -19.3138 c -0.52539,0.5371 -1.87513,1.5291 -2.55642,0.87 -1.1723,0.1633 -2.71985,2.4451 -2.35141,0.2393 -1.01895,-0.068 -0.1824,1.9777 -1.58232,2.0349 -0.14096,1.0515 -1.41423,0.1948 -0.93593,1.1933 -0.98254,-0.6973 -1.81417,-2.8987 0.12189,-1.5169 2.8751,-0.8629 -1.89595,-2.8092 -2.2642,-3.2797 0.61906,-0.1484 -0.67349,-0.7937 -0.82946,-0.5776 z m -23.72887,0.5776 c -0.95695,0.7977 1.81928,0.9479 0,0 z m -12.78243,0.4296 c -1.07035,1.12 1.70457,1.0295 0,0 z m 6.20618,1.1109 c -0.81054,1.3282 1.19757,0.4904 0,0 z m 17.74493,1.57 c -0.94889,1.0929 -2.2014,-0.2875 -2.22177,0.6518 0.17197,0.2838 0.86083,2.3096 2.36988,0.8147 0.80995,-0.3416 0.49105,-1.2028 -0.14812,-1.4664 z m -20.20359,0.6518 c -1.79984,1.5724 3.05666,1.7173 0.38128,0.1803 l -0.38128,-0.1803 z m 23.74328,4.3547 c -1.29586,0.8453 0.62165,2.6405 -0.0282,3.4838 -0.81192,1.4156 3.01718,-0.1 0.97233,-1.229 -0.14601,-0.9697 -1.19823,-2.1535 -0.94418,-2.2544 z m -0.87393,1.7034 c -1.80546,0.5105 -0.40986,3.1469 0.22961,0.6639 0.036,-0.144 0.0847,-0.6688 -0.22961,-0.6639 z m -14.45601,1.9112 c -1.67962,1.1457 -0.26088,2.2894 0.9701,1.7739 -0.25271,-0.6913 -0.95871,-1.1269 -0.9701,-1.7739 z m 31.72689,1.9256 c 0.83804,0.4231 -1.53576,1.1459 -0.0326,1.8906 0.87477,1.0291 0.54497,3.2381 -0.87687,1.6746 0.26416,-1.7456 -1.92738,-3.0493 0.90948,-3.5652 z m -4.31029,0.015 c -0.11371,1.1215 2.41872,2.8647 -0.31105,2.2959 -1.44357,0.1693 -3.60582,-0.044 -1.78713,-1.8437 0.57466,-0.3451 2.08355,1.1907 1.29835,-0.2448 0.27837,-0.018 0.53762,-0.1229 0.79987,-0.2074 z m -8.33915,2.4292 c -1.05294,0.6786 0.7281,1.1989 0,0 z m -26.43897,6.3244 c -0.17751,0.5924 3.33016,1.1929 0.90967,0.2437 l -0.36078,-0.127 -0.54869,-0.1166 z m 2.72542,0.8443 c -1.06394,1.0805 2.19204,0.3228 0,0 z m 35.57825,9.9092 c -2.3118,0.06 -2.00445,6.025 -0.39296,2.4952 0.15283,-0.7659 0.76536,-1.7769 0.39296,-2.4952 z"
           style="opacity:0.7;fill:url(#radialGradient5980)"
           id="path3522"
           inkscape:connector-curvature="0" />
        <path
           inkscape:connector-curvature="0"
           d="m 229.9375,1017.3375 c -12.41531,0 -22.5,12.2896 -22.5,27.4434 0,15.1538 10.08469,27.4875 22.5,27.4875 12.41531,0 22.5,-12.3337 22.5,-27.4875 0,-15.1528 -10.08469,-27.4434 -22.5,-27.4434 z m 0,3.5156 c 10.28531,0 11.27156,10.71 11.27156,23.9278 0,13.2187 -1.36687,23.9503 -11.27156,23.9503 -10.07906,0 -11.27156,-10.7315 -11.27156,-23.9494 0,-13.2187 1.16062,-23.9287 11.27156,-23.9287 z"
           style="fill:url(#linearGradient3144)"
           id="path3539" />
        <g
           transform="translate(181.9375,996.76843)"
           id="layer4">
          <rect
             id="rect3171"
             style="opacity:0.15;fill:url(#linearGradient3165);stroke:#ffffff;stroke-width:0.5;stroke-linecap:round;filter:url(#filter3794-162)"
             clip-path="url(#clipPath3613-59)"
             rx="12"
             ry="12"
             height="66"
             width="66"
             y="15"
             x="15" />
        </g>
      </g>
    </g>
  </g>
</svg>
