<?xml version="1.0" encoding="UTF-8" standalone="no"?>
<!-- Created with Inkscape (http://www.inkscape.org/) -->

<svg
   xmlns:dc="http://purl.org/dc/elements/1.1/"
   xmlns:cc="http://creativecommons.org/ns#"
   xmlns:rdf="http://www.w3.org/1999/02/22-rdf-syntax-ns#"
   xmlns:svg="http://www.w3.org/2000/svg"
   xmlns="http://www.w3.org/2000/svg"
   xmlns:xlink="http://www.w3.org/1999/xlink"
   xmlns:sodipodi="http://sodipodi.sourceforge.net/DTD/sodipodi-0.dtd"
   xmlns:inkscape="http://www.inkscape.org/namespaces/inkscape"
   id="svg2982"
   height="96"
   width="96"
   version="1.1"
   inkscape:version="0.48.3.1 r9886"
   sodipodi:docname="pidgin2.svg">
  <sodipodi:namedview
     pagecolor="#ffffff"
     bordercolor="#666666"
     borderopacity="1"
     objecttolerance="10"
     gridtolerance="10"
     guidetolerance="10"
     inkscape:pageopacity="0"
     inkscape:pageshadow="2"
     inkscape:window-width="1280"
     inkscape:window-height="670"
     id="namedview37"
     showgrid="false"
     inkscape:zoom="2.4583333"
     inkscape:cx="-59.424362"
     inkscape:cy="52.973644"
     inkscape:window-x="0"
     inkscape:window-y="22"
     inkscape:window-maximized="1"
     inkscape:current-layer="svg2982" />
  <defs
     id="defs2984">
    <linearGradient
       inkscape:collect="always"
       id="linearGradient3852">
      <stop
         style="stop-color:#000000;stop-opacity:1;"
         offset="0"
         id="stop3854" />
      <stop
         style="stop-color:#000000;stop-opacity:0;"
         offset="1"
         id="stop3856" />
    </linearGradient>
    <linearGradient
       inkscape:collect="always"
       id="linearGradient3844">
      <stop
         style="stop-color:#ff00ff;stop-opacity:1;"
         offset="0"
         id="stop3846" />
      <stop
         style="stop-color:#ff00ff;stop-opacity:0;"
         offset="1"
         id="stop3848" />
    </linearGradient>
    <linearGradient
       id="linearGradient3830">
      <stop
         id="stop3832"
         offset="0"
         style="stop-color:#7a2fa0;stop-opacity:1;" />
      <stop
         id="stop3834"
         offset="1"
         style="stop-color:#fffd92;stop-opacity:1" />
    </linearGradient>
    <linearGradient
       inkscape:collect="always"
       id="linearGradient3970">
      <stop
         style="stop-color:#ff1cf9;stop-opacity:1;"
         offset="0"
         id="stop3972" />
      <stop
         style="stop-color:#ff1cf9;stop-opacity:0;"
         offset="1"
         id="stop3974" />
    </linearGradient>
    <linearGradient
       id="linearGradient3894">
      <stop
         style="stop-color:#7a2fa0;stop-opacity:1;"
         offset="0"
         id="stop3896" />
      <stop
         style="stop-color:#fffdff;stop-opacity:1;"
         offset="1"
         id="stop3898" />
    </linearGradient>
    <linearGradient
       id="linearGradient3882">
      <stop
         style="stop-color:#c9cfb7;stop-opacity:1;"
         offset="0"
         id="stop3884" />
      <stop
         style="stop-color:#000000;stop-opacity:0;"
         offset="1"
         id="stop3886" />
    </linearGradient>
    <filter
       id="filter6279"
       color-interpolation-filters="sRGB">
      <feGaussianBlur
         id="feGaussianBlur6281"
         stdDeviation="0.8" />
    </filter>
    <linearGradient
       id="linearGradient6858"
       x1="48"
       gradientUnits="userSpaceOnUse"
       y1="1052.4"
       gradientTransform="translate(0,-9.6172e-6)"
       x2="48"
       y2="902.36">
      <stop
         id="stop3189-4"
         style="stop-color:#ac2adf;stop-opacity:1;"
         offset="0" />
      <stop
         id="stop3191-05"
         style="stop-color:#c16bae"
         offset="1" />
    </linearGradient>
    <radialGradient
       id="radialGradient6840"
       gradientUnits="userSpaceOnUse"
       cy="4.9116"
       cx="20.249"
       gradientTransform="matrix(0,1.7704,-1.4882,0,143.1,1000.2)"
       r="23">
      <stop
         id="stop3673"
         style="stop-color:#e378f1;stop-opacity:1;"
         offset="0" />
      <stop
         id="stop3675"
         style="stop-color:#c444be;stop-opacity:1;"
         offset="0.26238" />
      <stop
         id="stop3677"
         style="stop-color:#93009a;stop-opacity:1;"
         offset="0.70494998" />
      <stop
         id="stop3679"
         style="stop-color:#63054f;stop-opacity:1;"
         offset="1" />
    </radialGradient>
    <linearGradient
       id="linearGradient6842"
       x1="18.139"
       gradientUnits="userSpaceOnUse"
       y1="45.218"
       gradientTransform="translate(112.94,1033)"
       x2="18.139"
       y2="3">
      <stop
         id="stop3709"
         style="stop-color:#4c2a4e"
         offset="0" />
      <stop
         id="stop3711"
         style="stop-color:#a85394"
         offset="1" />
    </linearGradient>
    <radialGradient
       id="radialGradient6844"
       gradientUnits="userSpaceOnUse"
       cy="2.2461"
       cx="24.016"
       gradientTransform="matrix(-1.4869e-8,1.4132,-1.2268,-1.2908e-8,139.71,1004)"
       r="21.996">
      <stop
         id="stop12409"
         style="stop-color:#fff;stop-opacity:.702"
         offset="0" />
      <stop
         id="stop12411"
         style="stop-color:#fff;stop-opacity:0"
         offset="1" />
    </radialGradient>
    <radialGradient
       id="radialGradient6846"
       gradientUnits="userSpaceOnUse"
       cy="32.164"
       cx="90.747"
       gradientTransform="matrix(0.3273,-0.22731,0.12062,0.17368,87.814,1087.5)"
       r="23">
      <stop
         id="stop3720"
         style="stop-color:#ff00ff;stop-opacity:1;"
         offset="0" />
      <stop
         id="stop3722-6"
         style="stop-color:#d600fd;stop-opacity:0;"
         offset="1" />
    </radialGradient>
    <linearGradient
       inkscape:collect="always"
       xlink:href="#linearGradient6858"
       id="linearGradient3026"
       gradientUnits="userSpaceOnUse"
       gradientTransform="translate(0,-9.6172e-6)"
       x1="48"
       y1="1052.4"
       x2="48"
       y2="902.36" />
    <radialGradient
       inkscape:collect="always"
       xlink:href="#radialGradient6840"
       id="radialGradient3028"
       gradientUnits="userSpaceOnUse"
       gradientTransform="matrix(0,1.7704,-1.4882,0,143.1,1000.2)"
       cx="20.249"
       cy="4.9116"
       r="23" />
    <linearGradient
       inkscape:collect="always"
       xlink:href="#linearGradient6842"
       id="linearGradient3030"
       gradientUnits="userSpaceOnUse"
       gradientTransform="translate(112.94,1033)"
       x1="18.139"
       y1="45.218"
       x2="18.139"
       y2="3" />
    <radialGradient
       inkscape:collect="always"
       xlink:href="#radialGradient6844"
       id="radialGradient3032"
       gradientUnits="userSpaceOnUse"
       gradientTransform="matrix(-1.4869e-8,1.4132,-1.2268,-1.2908e-8,139.71,1004)"
       cx="24.016"
       cy="2.2461"
       r="21.996" />
    <radialGradient
       inkscape:collect="always"
       xlink:href="#radialGradient6846"
       id="radialGradient3034"
       gradientUnits="userSpaceOnUse"
       gradientTransform="matrix(0.3273,-0.22731,0.12062,0.17368,87.814,1087.5)"
       cx="90.747"
       cy="32.164"
       r="23" />
    <linearGradient
       inkscape:collect="always"
       xlink:href="#linearGradient6858"
       id="linearGradient3046"
       gradientUnits="userSpaceOnUse"
       gradientTransform="translate(-1.1701372,-949.52446)"
       x1="48"
       y1="1052.4"
       x2="48"
       y2="902.36" />
    <radialGradient
       inkscape:collect="always"
       xlink:href="#radialGradient6840"
       id="radialGradient3049"
       gradientUnits="userSpaceOnUse"
       gradientTransform="matrix(0,1.7704,-1.4882,0,143.1,1000.2)"
       cx="20.249"
       cy="4.9116"
       r="23" />
    <linearGradient
       inkscape:collect="always"
       xlink:href="#linearGradient6842"
       id="linearGradient3051"
       gradientUnits="userSpaceOnUse"
       gradientTransform="translate(112.94,1033)"
       x1="18.139"
       y1="45.218"
       x2="18.139"
       y2="3" />
    <radialGradient
       inkscape:collect="always"
       xlink:href="#radialGradient6844"
       id="radialGradient3053"
       gradientUnits="userSpaceOnUse"
       gradientTransform="matrix(-1.4869e-8,1.4132,-1.2268,-1.2908e-8,139.71,1004)"
       cx="24.016"
       cy="2.2461"
       r="21.996" />
    <radialGradient
       inkscape:collect="always"
       xlink:href="#radialGradient6846"
       id="radialGradient3055"
       gradientUnits="userSpaceOnUse"
       gradientTransform="matrix(0.3273,-0.22731,0.12062,0.17368,87.814,1087.5)"
       cx="90.747"
       cy="32.164"
       r="23" />
    <radialGradient
       inkscape:collect="always"
       xlink:href="#radialGradient6840"
       id="radialGradient3065"
       gradientUnits="userSpaceOnUse"
       gradientTransform="matrix(0,1.7704,-1.4882,0,143.1,1000.2)"
       cx="20.249"
       cy="4.9116"
       r="23" />
    <linearGradient
       inkscape:collect="always"
       xlink:href="#linearGradient6842"
       id="linearGradient3067"
       gradientUnits="userSpaceOnUse"
       gradientTransform="translate(112.94,1033)"
       x1="18.139"
       y1="45.218"
       x2="18.139"
       y2="3" />
    <radialGradient
       inkscape:collect="always"
       xlink:href="#radialGradient6844"
       id="radialGradient3069"
       gradientUnits="userSpaceOnUse"
       gradientTransform="matrix(-1.4869e-8,1.4132,-1.2268,-1.2908e-8,139.71,1004)"
       cx="24.016"
       cy="2.2461"
       r="21.996" />
    <radialGradient
       inkscape:collect="always"
       xlink:href="#radialGradient6846"
       id="radialGradient3071"
       gradientUnits="userSpaceOnUse"
       gradientTransform="matrix(0.3273,-0.22731,0.12062,0.17368,87.814,1087.5)"
       cx="90.747"
       cy="32.164"
       r="23" />
    <radialGradient
       inkscape:collect="always"
       xlink:href="#radialGradient6840"
       id="radialGradient3852"
       gradientUnits="userSpaceOnUse"
       gradientTransform="matrix(0,1.7704,-1.4882,0,143.1,1000.2)"
       cx="20.249"
       cy="4.9116"
       r="23" />
    <linearGradient
       inkscape:collect="always"
       xlink:href="#linearGradient6842"
       id="linearGradient3854"
       gradientUnits="userSpaceOnUse"
       gradientTransform="translate(112.94,1033)"
       x1="18.139"
       y1="45.218"
       x2="18.139"
       y2="3" />
    <radialGradient
       inkscape:collect="always"
       xlink:href="#radialGradient6844"
       id="radialGradient3856"
       gradientUnits="userSpaceOnUse"
       gradientTransform="matrix(-1.4869e-8,1.4132,-1.2268,-1.2908e-8,139.71,1004)"
       cx="24.016"
       cy="2.2461"
       r="21.996" />
    <radialGradient
       inkscape:collect="always"
       xlink:href="#radialGradient6846"
       id="radialGradient3858"
       gradientUnits="userSpaceOnUse"
       gradientTransform="matrix(0.3273,-0.22731,0.12062,0.17368,87.814,1087.5)"
       cx="90.747"
       cy="32.164"
       r="23" />
    <radialGradient
       inkscape:collect="always"
       xlink:href="#radialGradient6846"
       id="radialGradient3861"
       gradientUnits="userSpaceOnUse"
       gradientTransform="matrix(0.38421747,-0.26683921,0.14159582,0.20388295,-10.650232,83.234316)"
       cx="90.747"
       cy="32.164"
       r="23" />
    <radialGradient
       inkscape:collect="always"
       xlink:href="#radialGradient6844"
       id="radialGradient3867"
       gradientUnits="userSpaceOnUse"
       gradientTransform="matrix(-1.7454719e-8,1.6589555,-1.4401405,-1.5152701e-8,50.437009,-14.714)"
       cx="24.016"
       cy="2.2461"
       r="21.996" />
    <radialGradient
       inkscape:collect="always"
       xlink:href="#radialGradient6840"
       id="radialGradient3870"
       gradientUnits="userSpaceOnUse"
       gradientTransform="matrix(0,2.0782726,-1.746998,0,12.435034,10.478664)"
       cx="20.249001"
       cy="4.9116001"
       r="23" />
    <linearGradient
       inkscape:collect="always"
       xlink:href="#linearGradient6842"
       id="linearGradient3872"
       gradientUnits="userSpaceOnUse"
       gradientTransform="matrix(1.1739,0,0,1.1739,-22.96979,48.982584)"
       x1="18.139"
       y1="45.218"
       x2="18.139"
       y2="3" />
    <linearGradient
       inkscape:collect="always"
       xlink:href="#linearGradient3882"
       id="linearGradient3892"
       x1="7.1927752"
       y1="47.932247"
       x2="88.192772"
       y2="47.932247"
       gradientUnits="userSpaceOnUse"
       gradientTransform="translate(-0.86290997,6.9032798)" />
    <linearGradient
       inkscape:collect="always"
       xlink:href="#linearGradient3894"
       id="linearGradient3900"
       x1="7.5932217"
       y1="48.287621"
       x2="87.593224"
       y2="48.287621"
       gradientUnits="userSpaceOnUse"
       gradientTransform="translate(0.60683102,-0.28763696)" />
    <radialGradient
       inkscape:collect="always"
       xlink:href="#linearGradient3970"
       id="radialGradient3976"
       cx="47.880856"
       cy="47.999985"
       fx="47.880856"
       fy="47.999985"
       r="40"
       gradientUnits="userSpaceOnUse"
       gradientTransform="matrix(1,0,0,0.85258621,-0.86290997,2.6444048)" />
    <filter
       inkscape:collect="always"
       id="filter4006"
       x="-0.53370325"
       width="2.0674065"
       y="-0.59934233"
       height="2.1986847">
      <feGaussianBlur
         inkscape:collect="always"
         stdDeviation="2.6567597"
         id="feGaussianBlur4008" />
    </filter>
    <radialGradient
       inkscape:collect="always"
       xlink:href="#linearGradient3970"
       id="radialGradient4014"
       gradientUnits="userSpaceOnUse"
       gradientTransform="matrix(1,0,0,0.85258621,-0.86290997,2.6444048)"
       cx="47.880856"
       cy="47.999985"
       fx="47.880856"
       fy="47.999985"
       r="40" />
    <linearGradient
       inkscape:collect="always"
       xlink:href="#linearGradient3844"
       id="linearGradient3850"
       x1="-98.367667"
       y1="62.624981"
       x2="-17.571191"
       y2="62.624981"
       gradientUnits="userSpaceOnUse"
       gradientTransform="translate(-56.135594,-3.2542378)" />
    <linearGradient
       inkscape:collect="always"
       xlink:href="#linearGradient3852"
       id="linearGradient3861"
       x1="-150.85078"
       y1="1.201252"
       x2="-70.850784"
       y2="1.201252"
       gradientUnits="userSpaceOnUse"
       gradientTransform="translate(-3.2542373,58.169492)" />
    <radialGradient
       inkscape:collect="always"
       xlink:href="#linearGradient3970"
       id="radialGradient3869"
       gradientUnits="userSpaceOnUse"
       gradientTransform="matrix(1,0,0,0.85258621,-0.86290997,2.6444048)"
       cx="47.880856"
       cy="47.999985"
       fx="47.880856"
       fy="47.999985"
       r="40" />
    <radialGradient
       inkscape:collect="always"
       xlink:href="#radialGradient6840"
       id="radialGradient3871"
       gradientUnits="userSpaceOnUse"
       gradientTransform="matrix(0,2.0782726,-1.746998,0,12.435034,10.478664)"
       cx="20.249001"
       cy="4.9116001"
       r="23" />
    <linearGradient
       inkscape:collect="always"
       xlink:href="#linearGradient6842"
       id="linearGradient3873"
       gradientUnits="userSpaceOnUse"
       gradientTransform="matrix(1.1739,0,0,1.1739,-22.96979,48.982584)"
       x1="18.139"
       y1="45.218"
       x2="18.139"
       y2="3" />
  </defs>
  <metadata
     id="metadata2987">
    <rdf:RDF>
      <cc:Work
         rdf:about="">
        <dc:format>image/svg+xml</dc:format>
        <dc:type
           rdf:resource="http://purl.org/dc/dcmitype/StillImage" />
        <dc:title />
      </cc:Work>
    </rdf:RDF>
  </metadata>
  <g
     id="g3886">
    <rect
       id="rect3875"
       style="fill:#ec00ff;fill-opacity:1;stroke:#f956ff;stroke-opacity:1"
       rx="5"
       ry="5"
       height="80"
       width="80"
       y="8.8135452"
       x="8.0000067" />
    <rect
       x="8"
       y="7.9999852"
       width="80"
       height="80"
       ry="5"
       rx="5"
       style="filter:url(#filter6279);fill:#ec00ff;fill-opacity:1;stroke:#f956ff;stroke-opacity:1"
       id="rect9283" />
    <rect
       id="rect3841"
       style="opacity:0.39676113;fill:#670032;fill-opacity:1;stroke:url(#linearGradient3900)"
       rx="5"
       ry="5"
       height="80"
       width="80"
       y="7.9999843"
       x="8.2000532" />
    <g
       transform="translate(41.898306,-30.101695)"
       id="g3863">
      <g
         id="g4010"
         transform="matrix(1,0,0,0.92568503,-42.72381,31.992472)">
        <g
           id="g3883">
          <rect
             id="rect3902"
             style="fill:url(#radialGradient3869);fill-opacity:1;stroke:none"
             rx="5"
             ry="4.2629309"
             height="68.206894"
             width="80"
             y="9.4650822"
             x="7.0179458" />
        </g>
        <path
           id="path3705"
           style="fill:#9300a7;fill-opacity:0.68695655;stroke-width:1px;filter:url(#filter4006)"
           d="m 28.744744,79.134221 2.521772,-10.6387 9.42536,1.84408 -11.94678,8.79462 z"
           inkscape:connector-curvature="0" />
      </g>
      <path
         inkscape:connector-curvature="0"
         d="m 1.4590687,53.443404 c -13.5209797,1.993517 -23.5261297,11.309353 -22.6163567,21.395501 0.58864,6.53158 5.601733,11.908042 12.7708577,14.744184 l -2.9923887,11.660241 13.2380707,-9.57422 0.09156,-0.01174 c 1.633716,0.07748 3.274946,0.104477 4.978157,-0.05165 C 21.463029,90.279682 32.51295,80.608741 31.558569,70.025915 30.604834,59.443207 18.005894,51.930247 3.4718377,53.25558 c -0.681273,0.06222 -1.348459,0.0857 -2.013473,0.183598 z"
         style="fill:url(#radialGradient3871);fill-opacity:1;fill-rule:evenodd;stroke:url(#linearGradient3873);stroke-width:1.16832399;stroke-linejoin:round"
         id="path6145" />
    </g>
    <g
       id="g3877">
      <path
         inkscape:connector-curvature="0"
         d="m 43.769257,24.96382 c -12.007823,1.748876 -22.595227,9.53242 -21.760584,20.071342 0.560924,7.078852 6.083619,11.882216 12.931682,14.114974 l -2.301196,9.458934 10.750107,-7.728723 c 1.450001,0.06339 3.681115,0.175381 5.193451,0.03757 11.434842,-1.043245 24.761072,-9.536059 23.80317,-20.09482 C 71.365615,29.64052 58.046698,23.660674 45.556402,24.800531 c -0.604922,0.05517 -1.19726,0.07748 -1.787849,0.163054 z"
         style="opacity:0.4;fill:none;stroke:url(#radialGradient3867);stroke-width:1.16832399"
         id="path6179" />
      <path
         inkscape:connector-curvature="0"
         d="m 46.187491,27.42901 c -1.268047,-0.181602 -2.569432,0.77853 -2.604649,1.797593 4.46e-4,0.01174 4.46e-4,0.02465 0,0.03639 -0.007,0.08335 0.0169,0.197215 0.03663,0.366844 0.0023,0.01643 -0.0023,0.01878 0,0.03639 1.145457,5.406396 1.535814,10.832162 2.677901,16.141125 0.692495,-0.07396 1.76848,-0.215998 2.494538,-0.293475 -0.15735,-5.238999 -0.634,-10.443602 -0.697004,-15.737304 -4.46e-4,-0.01174 -4.46e-4,-0.02465 0,-0.03639 0.103538,-1.030919 -0.590248,-2.194958 -1.870961,-2.311174 -0.01221,4.7e-4 -0.02442,4.7e-4 -0.03663,0 z m 2.384426,22.267709 c -0.723005,-0.07396 -1.438028,0.117625 -1.907588,0.660319 4.46e-4,0.01174 4.46e-4,0.02465 0,0.03639 -0.503932,0.523794 -0.793474,1.276968 -0.697003,1.980956 4.46e-4,0.01174 4.46e-4,0.02465 0,0.03639 0.116803,1.529709 1.986943,2.540789 3.338337,1.907587 0.01221,-4.69e-4 0.02442,-4.69e-4 0.03663,0 1.316176,-0.497616 1.869905,-2.390764 1.027162,-3.558443 -0.01279,-0.01174 -0.02512,-0.02348 -0.03663,-0.03639 -0.386436,-0.60808 -1.043914,-0.953324 -1.76085,-1.027162 z"
         style="opacity:0.3;fill:#333333"
         id="path3393-4" />
      <path
         inkscape:connector-curvature="0"
         d="m 46.187491,28.60291 c -1.268047,-0.181602 -2.569432,0.77853 -2.604649,1.797593 4.46e-4,0.01174 4.46e-4,0.02465 0,0.03639 -0.007,0.08335 0.0169,0.197215 0.03663,0.366844 0.0023,0.01643 -0.0023,0.01878 0,0.03639 1.145457,5.406396 1.535814,10.832162 2.677901,16.141125 0.692495,-0.07396 1.76848,-0.215998 2.494538,-0.293475 -0.15735,-5.238999 -0.634,-10.443602 -0.697004,-15.737304 -4.46e-4,-0.01174 -4.46e-4,-0.02465 0,-0.03639 0.103538,-1.030919 -0.590248,-2.194958 -1.870961,-2.311174 -0.01221,4.7e-4 -0.02442,4.7e-4 -0.03663,0 z m 2.384426,22.267709 c -0.723005,-0.07396 -1.438028,0.117625 -1.907588,0.660319 4.46e-4,0.01174 4.46e-4,0.02465 0,0.03639 -0.503932,0.523794 -0.793474,1.276968 -0.697003,1.980956 4.46e-4,0.01174 4.46e-4,0.02465 0,0.03639 0.116803,1.529709 1.986943,2.540789 3.338337,1.907587 0.01221,-4.69e-4 0.02442,-4.69e-4 0.03663,0 1.316176,-0.497616 1.869905,-2.390764 1.027162,-3.558443 -0.01279,-0.01174 -0.02512,-0.02348 -0.03663,-0.03639 -0.386436,-0.60808 -1.043914,-0.953324 -1.76085,-1.027162 z"
         style="fill:#ffffff"
         id="path3393" />
      <path
         inkscape:connector-curvature="0"
         d="m 50.575696,24.30454 c -1.708142,-0.09743 -3.451618,-0.054 -5.245924,0.110347 -0.700689,0.06339 -1.354798,0.09156 -1.980957,0.183363 -6.661765,0.982202 -12.44334,3.768571 -16.4346,7.520355 -3.991729,3.751785 -6.197135,8.460415 -5.759388,13.316722 0.566747,6.288582 5.43727,11.523351 12.472688,14.307491 a 0.52826674,0.52826674 0 0 1 0.330159,0.62369 l -2.641275,10.234888 12.068866,-8.730878 a 0.52826674,0.52826674 0 0 1 0.293475,-0.0728 h 0.07337 a 0.52826674,0.52826674 0 0 1 0.03663,0 c 1.617635,0.0775 3.244073,0.0786 4.915707,-0.0728 7.163372,-0.65351 13.458763,-3.36992 17.829193,-7.19014 4.369608,-3.820107 6.805568,-8.734874 6.346338,-13.829717 C 72.478223,36.247216 69.921515,32.347402 65.94669,29.442939 61.971747,26.538593 56.564764,24.649201 50.575643,24.307127 z"
         style="fill:url(#radialGradient3861);fill-rule:evenodd"
         id="path3845" />
    </g>
  </g>
</svg>
