<?xml version="1.0" encoding="UTF-8" standalone="no"?>
<!-- Created with Inkscape (http://www.inkscape.org/) -->
<svg id="svg2982" xmlns:rdf="http://www.w3.org/1999/02/22-rdf-syntax-ns#" xmlns="http://www.w3.org/2000/svg" height="96" width="96" version="1.1" xmlns:cc="http://creativecommons.org/ns#" xmlns:xlink="http://www.w3.org/1999/xlink" xmlns:dc="http://purl.org/dc/elements/1.1/">
 <defs id="defs2984">
  <filter id="filter6279" color-interpolation-filters="sRGB">
   <feGaussianBlur id="feGaussianBlur6281" stdDeviation="0.8"/>
  </filter>
  <linearGradient id="linearGradient9087" x1="48" gradientUnits="userSpaceOnUse" y1="1052.4" gradientTransform="translate(0 -.0000078516)" x2="48" y2="902.36">
   <stop id="stop3643" style="stop-color:#b4b4b4" offset="0"/>
   <stop id="stop3645" style="stop-color:#dcdcdc" offset="1"/>
  </linearGradient>
  <linearGradient id="linearGradient9001" x1="63.536" xlink:href="#linearGradient3825-4" gradientUnits="userSpaceOnUse" y1="90" gradientTransform="matrix(.28138 0 0 .28138 21.887 978.46)" x2="32.071" y2="6"/>
  <linearGradient id="linearGradient3825-4">
   <stop id="stop3827-3" style="stop-color:#b3b3b3" offset="0"/>
   <stop id="stop3829-3" style="stop-color:#d2d2d2" offset="1"/>
  </linearGradient>
  <linearGradient id="linearGradient9003" x1="13.321" xlink:href="#linearGradient3672-3" gradientUnits="userSpaceOnUse" y1="48" gradientTransform="matrix(-.28138 0 0 -.28138 48.901 1005.5)" x2="48" y2="84.286"/>
  <linearGradient id="linearGradient3672-3">
   <stop id="stop3674-8" style="stop-color:#fff;stop-opacity:0" offset="0"/>
   <stop id="stop3676-6" style="stop-color:#fff;stop-opacity:0" offset=".3"/>
   <stop id="stop3678-0" style="stop-color:#fff;stop-opacity:.6124" offset=".5"/>
   <stop id="stop3680" style="stop-color:#fff;stop-opacity:0" offset=".75265"/>
   <stop id="stop3682-4" style="stop-color:#fff;stop-opacity:0" offset="1"/>
  </linearGradient>
  <linearGradient id="linearGradient9005" x1="13.321" xlink:href="#linearGradient3672-3" gradientUnits="userSpaceOnUse" y1="48" gradientTransform="matrix(.28138 0 0 -.28138 21.887 1005.5)" x2="48" y2="84.286"/>
  <linearGradient id="linearGradient9007" x1="6" xlink:href="#linearGradient3650-2" gradientUnits="userSpaceOnUse" y1="48" gradientTransform="matrix(.28138 0 0 .28138 21.887 978.46)" x2="48" y2="81.071"/>
  <linearGradient id="linearGradient3650-2">
   <stop id="stop3652" style="stop-opacity:0" offset="0"/>
   <stop id="stop3660" style="stop-opacity:0" offset=".3"/>
   <stop id="stop3658" style="stop-opacity:.11765" offset=".5"/>
   <stop id="stop3662" style="stop-opacity:0" offset=".7"/>
   <stop id="stop3654-5" style="stop-opacity:0" offset="1"/>
  </linearGradient>
  <linearGradient id="linearGradient9009" x1="6" xlink:href="#linearGradient3650-2" gradientUnits="userSpaceOnUse" y1="48" gradientTransform="matrix(-.28138 0 0 .28138 48.901 978.46)" x2="48" y2="81.071"/>
  <linearGradient id="linearGradient9011" x1="16" xlink:href="#linearGradient3622" gradientUnits="userSpaceOnUse" y1="46" gradientTransform="matrix(.28724 0 0 .28724 978.71 -48.082)" x2="80" y2="46"/>
  <linearGradient id="linearGradient3622">
   <stop id="stop3624" style="stop-color:#d6d6d6" offset="0"/>
   <stop id="stop3626" style="stop-color:#eaeaea" offset="1"/>
  </linearGradient>
  <linearGradient id="linearGradient9013" x1="22" xlink:href="#linearGradient3737-92" gradientUnits="userSpaceOnUse" y1="33" gradientTransform="matrix(0 -.78788 .78788 0 9.3939 1018)" x2="44" y2="33"/>
  <linearGradient id="linearGradient3737-92">
   <stop id="stop3739-54" style="stop-color:#fff" offset="0"/>
   <stop id="stop3741-05" style="stop-color:#fff;stop-opacity:0" offset="1"/>
  </linearGradient>
  <linearGradient id="linearGradient9015" x1="63.536" xlink:href="#linearGradient3825-4" gradientUnits="userSpaceOnUse" y1="90" gradientTransform="matrix(.28138 0 0 .28138 47.099 978.46)" x2="32.071" y2="6"/>
  <linearGradient id="linearGradient9017" x1="13.321" xlink:href="#linearGradient3672-3" gradientUnits="userSpaceOnUse" y1="48" gradientTransform="matrix(-.28138 0 0 -.28138 74.113 1005.5)" x2="48" y2="84.286"/>
  <linearGradient id="linearGradient9019" x1="13.321" xlink:href="#linearGradient3672-3" gradientUnits="userSpaceOnUse" y1="48" gradientTransform="matrix(.28138 0 0 -.28138 47.099 1005.5)" x2="48" y2="84.286"/>
  <linearGradient id="linearGradient9021" x1="6" xlink:href="#linearGradient3650-2" gradientUnits="userSpaceOnUse" y1="48" gradientTransform="matrix(.28138 0 0 .28138 47.099 978.46)" x2="48" y2="81.071"/>
  <linearGradient id="linearGradient9023" x1="6" xlink:href="#linearGradient3650-2" gradientUnits="userSpaceOnUse" y1="48" gradientTransform="matrix(-.28138 0 0 .28138 74.113 978.46)" x2="48" y2="81.071"/>
  <linearGradient id="linearGradient9025" x1="16" xlink:href="#linearGradient3622" gradientUnits="userSpaceOnUse" y1="46" gradientTransform="matrix(.28724 0 0 .28724 978.71 -73.294)" x2="80" y2="46"/>
  <linearGradient id="linearGradient9027" x1="22" xlink:href="#linearGradient3737-92" gradientUnits="userSpaceOnUse" y1="33" gradientTransform="matrix(0 -.78788 .78788 0 34.606 1018)" x2="44" y2="33"/>
  <linearGradient id="linearGradient9029" x1="63.536" xlink:href="#linearGradient3825-4" gradientUnits="userSpaceOnUse" y1="90" gradientTransform="matrix(.28138 0 0 .28138 21.887 1003.7)" x2="32.071" y2="6"/>
  <linearGradient id="linearGradient9031" x1="13.321" xlink:href="#linearGradient3672-3" gradientUnits="userSpaceOnUse" y1="48" gradientTransform="matrix(-.28138 0 0 -.28138 66.234 1030.7)" x2="48" y2="84.286"/>
  <linearGradient id="linearGradient9033" x1="13.321" xlink:href="#linearGradient3672-3" gradientUnits="userSpaceOnUse" y1="48" gradientTransform="matrix(.28138 0 0 -.28138 21.887 1030.7)" x2="48" y2="84.286"/>
  <linearGradient id="linearGradient9035" x1="6" xlink:href="#linearGradient3650-2" gradientUnits="userSpaceOnUse" y1="48" gradientTransform="matrix(.28138 0 0 .28138 21.887 1003.7)" x2="48" y2="81.071"/>
  <linearGradient id="linearGradient9037" x1="6" xlink:href="#linearGradient3650-2" gradientUnits="userSpaceOnUse" y1="48" gradientTransform="matrix(-.28138 0 0 .28138 66.234 1003.7)" x2="48" y2="81.071"/>
  <linearGradient id="linearGradient9039" x1="16" xlink:href="#linearGradient3622" gradientUnits="userSpaceOnUse" y1="46" gradientTransform="matrix(0 .28724 -.28724 0 48.082 1003.9)" x2="80" y2="46"/>
  <linearGradient id="linearGradient9041" x1="22" xlink:href="#linearGradient3737-92" gradientUnits="userSpaceOnUse" y1="33" gradientTransform="matrix(0 -.78788 .78788 0 9.3939 1043.2)" x2="44" y2="33"/>
  <linearGradient id="linearGradient9043" y2="138.66" gradientUnits="userSpaceOnUse" y1="20.221" x2="48" x1="48">
   <stop id="stop3739-5-9" style="stop-color:#fff" offset="0"/>
   <stop id="stop3741-8-0" style="stop-color:#fff;stop-opacity:0" offset="1"/>
  </linearGradient>
  <clipPath id="clipPath3613-68">
   <rect id="rect3615-7" style="fill:#fff" rx="6" ry="6" height="84" width="84" y="6" x="6"/>
  </clipPath>
  <filter id="filter3794-90" height="1.384" width="1.384" y="-.192" x="-.192" color-interpolation-filters="sRGB">
   <feGaussianBlur id="feGaussianBlur3796-33" stdDeviation="5.28"/>
  </filter>
 </defs>
 <metadata id="metadata2987">
  <rdf:RDF>
   <cc:Work rdf:about="">
    <dc:format>image/svg+xml</dc:format>
    <dc:type rdf:resource="http://purl.org/dc/dcmitype/StillImage"/>
    <dc:title/>
   </cc:Work>
  </rdf:RDF>
 </metadata>
 <g id="layer1" transform="translate(0 -956.36)">
  <g id="g9858">
   <rect id="rect9283" ry="5" style="filter:url(#filter6279)" rx="5" transform="translate(0 -.0000078516)" height="80" width="80" y="964.36" x="8"/>
   <rect id="rect9285" style="fill:url(#linearGradient9087)" rx="5" ry="5" height="80" width="80" y="964.36" x="8"/>
   <g id="g9171">
    <path id="rect4831" style="opacity:.7;color:#000000" d="m24.364 978.57c-1.31 0-2.364 1.06-2.364 2.37v47.273c0 1.3094 1.0542 2.3636 2.3636 2.3636h39.394c1.3095 0 2.3636-1.0542 2.3636-2.3636v-22.848h5.5152c1.3095 0 2.3636-1.0542 2.3636-2.3637v-22.061c0-1.3095-1.0542-2.3636-2.3636-2.3636h-47.273z"/>
    <rect id="rect2419-0" style="fill:url(#linearGradient9001)" rx="1.6883" ry="1.6883" height="23.636" width="23.636" y="980.15" x="23.576"/>
    <path id="path3684" style="fill:url(#linearGradient9003)" d="m47.212 991.97v-10.13c0-0.93521-0.75321-1.6884-1.6884-1.6884h-10.13v11.818h11.818z"/>
    <path id="path3668" style="fill:url(#linearGradient9005)" d="m23.576 991.97v-10.13c0-0.93521 0.75321-1.6884 1.6884-1.6884h10.13v11.818h-11.818z"/>
    <path id="rect3643" style="fill:url(#linearGradient9007)" d="m23.576 991.97v10.13c0 0.9352 0.75321 1.6884 1.6884 1.6884h10.13v-11.83h-11.818z"/>
    <path id="path3664" style="fill:url(#linearGradient9009)" d="m47.212 991.97v10.13c0 0.9352-0.75321 1.6884-1.6884 1.6884h-10.13v-11.818h11.818z"/>
    <rect id="rect3877" style="fill:url(#linearGradient9011)" transform="rotate(90)" rx="1.6711" ry="1.6712" height="17.333" width="17.333" y="-44.061" x="983.3"/>
    <g id="text4232" style="fill:#333" transform="matrix(1.3132 0 0 1.3132 2.5656 953.89)">
     <path id="path4316" d="m27.363 32.44-0.78613-2.0117h-3.1348l-0.791 2.012h-0.9668l2.8076-6.8799h1.0596l2.7637 6.8799h-0.953m-1.948-5.01c-0.052-0.13-0.103-0.262-0.152-0.395-0.045-0.134-0.086-0.254-0.122-0.362-0.035-0.11-0.066-0.201-0.092-0.273-0.023-0.075-0.036-0.121-0.039-0.137-0.0065 0.01628-0.02116 0.06186-0.04395 0.13672-0.02279 0.07488-0.05371 0.16765-0.09277 0.27832-0.03581 0.11068-0.07813 0.23275-0.12695 0.36621-0.04558 0.13347-0.09278 0.2653-0.1416 0.39551l-0.87891 2.2607h2.5732l-0.88379-2.2705"/>
    </g>
    <path id="rect3938" style="opacity:.8;fill:url(#linearGradient9013)" d="m26.727 998.96c0 0.92576 0.74848 1.6742 1.6742 1.6742h13.985c0.92576 0 1.6742-0.74848 1.6742-1.6742v-13.985c0-0.92576-0.74848-1.6742-1.6742-1.6742h-13.984c-0.92576 0-1.6742 0.74849-1.6742 1.6742v13.985zm1.6003 0.0739c-0.01009-0.0101 0-0.0403 0-0.0739v-13.985c0-0.0671 0.0069-0.0739 0.07386-0.0739h13.985c0.06699 0 0.07386 0.007 0.07386 0.0739v13.985c0 0.0671-0.0069 0.0739-0.07386 0.0739h-13.985c-0.03349 0-0.06377 0.0101-0.07386 0z"/>
    <path id="path4758" style="opacity:.2;fill:#fff" d="m25.274 979.36c-1.3599 0-2.4865 1.1267-2.4865 2.4865v20.239c0 1.3598 1.1267 2.4865 2.4865 2.4865h20.239c1.3599 0 2.4865-1.1267 2.4865-2.4865v-20.239c0-1.3599-1.1267-2.4865-2.4865-2.4865h-20.239zm0 0.78788h20.239c0.93521 0 1.6987 0.76345 1.6987 1.6987v20.239c0 0.9352-0.76346 1.6986-1.6987 1.6986h-20.239c-0.93521 0-1.6987-0.7634-1.6987-1.6986v-20.239c0-0.93521 0.76345-1.6987 1.6987-1.6987z"/>
    <rect id="rect4761" style="fill:url(#linearGradient9015)" rx="1.6883" ry="1.6883" height="23.636" width="23.636" y="980.15" x="48.788"/>
    <path id="path4763" style="fill:url(#linearGradient9017)" d="m72.424 991.97v-10.13c0-0.93521-0.75321-1.6884-1.6884-1.6884h-10.13v11.818h11.818z"/>
    <path id="path4765" style="fill:url(#linearGradient9019)" d="m48.788 991.97v-10.13c0-0.93521 0.75321-1.6884 1.6884-1.6884h10.13v11.818h-11.818z"/>
    <path id="path4767" style="fill:url(#linearGradient9021)" d="m48.788 991.97v10.13c0 0.9352 0.75321 1.6884 1.6884 1.6884h10.13v-11.83h-11.818z"/>
    <path id="path4769" style="fill:url(#linearGradient9023)" d="m72.424 991.97v10.13c0 0.9352-0.75321 1.6884-1.6884 1.6884h-10.13v-11.818h11.818z"/>
    <rect id="rect4771" style="fill:url(#linearGradient9025)" transform="rotate(90)" rx="1.6711" ry="1.6712" height="17.333" width="17.333" y="-69.273" x="983.3"/>
    <path id="path4777" style="opacity:.8;fill:url(#linearGradient9027)" d="m51.939 998.96c0 0.92576 0.74848 1.6742 1.6742 1.6742h13.985c0.92576 0 1.6742-0.74848 1.6742-1.6742v-13.985c0-0.92576-0.74848-1.6742-1.6742-1.6742h-13.984c-0.92576 0-1.6742 0.74849-1.6742 1.6742v13.985zm1.6003 0.0739c-0.01009-0.0101 0-0.0403 0-0.0739v-13.985c0-0.0671 0.0069-0.0739 0.07386-0.0739h13.985c0.06699 0 0.07386 0.007 0.07386 0.0739v13.985c0 0.0671-0.0069 0.0739-0.07386 0.0739h-13.984c-0.03349 0-0.06377 0.0101-0.07386 0z"/>
    <path id="path4779" style="opacity:.2;fill:#f00" d="m50.487 979.36c-1.36 0-2.487 1.13-2.487 2.49v20.239c0 1.3598 1.1267 2.4865 2.4865 2.4865h20.239c1.3599 0 2.4865-1.1267 2.4865-2.4865v-20.239c0-1.3599-1.1267-2.4865-2.4865-2.4865h-20.239zm0 0.78788h20.239c0.93521 0 1.6987 0.76345 1.6987 1.6987v20.239c0 0.9352-0.76346 1.6986-1.6987 1.6986h-20.239c-0.93521 0-1.6987-0.7634-1.6987-1.6986v-20.239c0-0.93521 0.76346-1.6987 1.6987-1.6987z"/>
    <path id="rect4795" style="fill:url(#linearGradient9029)" d="m25.264 1005.4h37.593c0.93521 0 1.6884 0.7532 1.6884 1.6884v20.26c0 0.9352-0.75321 1.6884-1.6884 1.6884h-37.593c-0.93521 0-1.6884-0.7532-1.6884-1.6884v-20.26c0-0.9352 0.75321-1.6884 1.6884-1.6884z"/>
    <path id="path4797" style="fill:url(#linearGradient9031)" d="m64.545 1017.2v-10.13c0-0.9352-0.75321-1.6884-1.6884-1.6884h-10.13v11.818h11.818z"/>
    <path id="path4799" style="fill:url(#linearGradient9033)" d="m23.576 1017.2v-10.13c0-0.9352 0.75321-1.6884 1.6884-1.6884h10.13v11.818h-11.818z"/>
    <path id="path4801" style="fill:url(#linearGradient9035)" d="m23.576 1017.2v10.13c0 0.9352 0.75321 1.6884 1.6884 1.6884h10.13v-11.818h-11.818z"/>
    <path id="path4803" style="fill:url(#linearGradient9037)" d="m64.545 1017.2v10.13c0 0.9352-0.75321 1.6884-1.6884 1.6884h-10.13v-11.818h11.818z"/>
    <path id="rect4805" style="fill:url(#linearGradient9039)" d="m61.394 1010.2v13.991c0 0.9258-0.74538 1.6711-1.6712 1.6711h-31.324c-0.92576 0-1.6711-0.7453-1.6711-1.6711v-13.991c0-0.9258 0.74533-1.6711 1.6711-1.6711h31.324c0.92576 0 1.6711 0.7453 1.6711 1.6711z"/>
    <path id="path4811" style="opacity:.8;fill:url(#linearGradient9041)" d="m26.727 1024.2c0 0.9257 0.74848 1.6742 1.6742 1.6742h31.318c0.92576 0 1.6742-0.7485 1.6742-1.6742v-13.985c0-0.9257-0.74848-1.6742-1.6742-1.6742h-31.317c-0.92576 0-1.6742 0.7485-1.6742 1.6742v13.985zm1.6003 0.074c-0.01009-0.01 0-0.04 0-0.074v-13.985c0-0.067 0.0069-0.074 0.07386-0.074h31.318c0.06699 0 0.07386 0.01 0.07386 0.074v13.985c0 0.067-0.0069 0.074-0.07386 0.074h-31.318c-0.03349 0-0.06377 0.01-0.07386 0z"/>
    <path id="path4813" style="opacity:.2;fill:#f00" d="m25.274 1004.6c-1.3599 0-2.4865 1.1267-2.4865 2.4865v20.239c0 1.3599 1.1267 2.4865 2.4865 2.4865h37.572c1.3599 0 2.4865-1.1266 2.4865-2.4865v-20.239c0-1.3598-1.1267-2.4865-2.4865-2.4865h-37.572zm0 0.7879h37.572c0.93521 0 1.6987 0.7634 1.6987 1.6986v20.239c0 0.9352-0.76346 1.6986-1.6987 1.6986h-37.572c-0.93521 0-1.6987-0.7634-1.6987-1.6986v-20.239c0-0.9352 0.76345-1.6986 1.6987-1.6986z"/>
    <g id="text4254" style="fill:#333" transform="matrix(1.3124 0 0 1.3124 1.5421 953.91)">
     <path id="path4313" d="m47.744 32.44h-5.4785v-0.69824l4.1895-5.4199h-3.833v-0.76172h4.8926v0.67871l-4.1895 5.4395h4.4189v0.76172"/>
    </g>
    <g id="text4236" style="fill:#333" transform="matrix(1.2295 0 0 1.2295 2.0069 932.35)">
     <path id="path4292" d="m27.167 66.354c-0.39063 0.000006-0.73731 0.06511-1.04 0.19531-0.29948 0.13021-0.55176 0.31576-0.75684 0.55664-0.20182 0.24089-0.35482 0.5306-0.45898 0.86914-0.10417 0.33855-0.15625 0.71452-0.15625 1.1279-0.000002 0.41342 0.05534 0.79265 0.16602 1.1377 0.11393 0.3418 0.27506 0.6364 0.4834 0.88379 0.21159 0.2474 0.46875 0.43946 0.77148 0.57617 0.30599 0.13672 0.64941 0.20508 1.0303 0.20508 0.26692 0.000001 0.50944-0.03418 0.72754-0.10254 0.22135-0.07161 0.41992-0.1709 0.5957-0.29785 0.17903-0.12695 0.33854-0.27669 0.47852-0.44922 0.13997-0.17578 0.26367-0.36946 0.37109-0.58106l0.76172 0.38086c-0.1237 0.25716-0.2767 0.49642-0.45898 0.71777-0.1823 0.22136-0.39714 0.41341-0.64453 0.57617-0.24415 0.16276-0.52247 0.29134-0.83496 0.38574-0.30925 0.09115-0.65593 0.13672-1.04 0.13672-0.55664 0-1.0449-0.08789-1.4648-0.26367-0.41667-0.17904-0.7666-0.42643-1.0498-0.74219-0.27995-0.31901-0.48991-0.69661-0.62988-1.1328-0.13997-0.4362-0.20996-0.91308-0.20996-1.4307 0-0.5371 0.07324-1.0221 0.21973-1.4551 0.14974-0.43294 0.36621-0.80078 0.64941-1.1035 0.28646-0.30598 0.63802-0.54036 1.0547-0.70312 0.41666-0.16601 0.89192-0.24902 1.4258-0.24902 0.73242 0.000007 1.3444 0.14324 1.8359 0.42969 0.49153 0.28646 0.85286 0.71127 1.084 1.2744l-0.88379 0.29297c-0.066-0.162-0.153-0.317-0.264-0.464-0.111-0.149-0.249-0.281-0.415-0.395s-0.361-0.205-0.586-0.274c-0.221-0.068-0.475-0.102-0.762-0.102"/>
     <path id="path4294" d="m33.231 72.535c-0.13347 0.03581-0.27018 0.06348-0.41016 0.08301-0.13672 0.02279-0.29623 0.03418-0.47852 0.03418-0.70313 0-1.0547-0.39876-1.0547-1.1963v-3.5254h-0.61035v-0.63965h0.64453l0.25879-1.1816h0.58594v1.1816h0.97656v0.63965h-0.97656v3.335c-0.000001 0.25391 0.04069 0.43294 0.12207 0.53711 0.08463 0.10091 0.22949 0.15137 0.43457 0.15137 0.08463 0 0.16601-0.0065 0.24414-0.01953 0.08138-0.01302 0.16927-0.0293 0.26367-0.04883v0.64941"/>
     <path id="path4296" d="m33.993 72.574v-4.0527c-0.000001-0.11067-0.0016-0.22298-0.0049-0.33691 0-0.11718-0.0016-0.22949-0.0049-0.33691s-0.0065-0.20833-0.0098-0.30273-0.0065-0.17903-0.0098-0.25391h0.83008c0.0033 0.07488 0.0065 0.16114 0.0098 0.25879 0.0065 0.09441 0.01139 0.19206 0.01465 0.29297 0.0065 0.10092 0.0098 0.19857 0.0098 0.29297 0.0033 0.09115 0.0049 0.16928 0.0049 0.23438h0.01953c0.06185-0.20182 0.12695-0.37597 0.19531-0.52246 0.07161-0.14973 0.15462-0.2718 0.24902-0.36621 0.0944-0.09765 0.2067-0.16926 0.33691-0.21484 0.13021-0.04882 0.28808-0.07324 0.47363-0.07324 0.07161 0.000006 0.13997 0.0065 0.20508 0.01953 0.0651 0.0098 0.11556 0.01954 0.15137 0.0293v0.80566c-0.0586-0.01627-0.12696-0.02766-0.20508-0.03418-0.07813-0.0098-0.16602-0.01464-0.26367-0.01465-0.20182 0.000005-0.37435 0.04558-0.51758 0.13672-0.13998 0.09115-0.25554 0.2181-0.34668 0.38086-0.08789 0.15951-0.153 0.35157-0.19531 0.57617-0.04232 0.22136-0.06348 0.46387-0.06348 0.72754v2.7539h-0.87891"/>
     <path id="path4298" d="m37.313 72.574v-7.2461h0.87891v7.246h-0.879"/>
    </g>
    <path id="rect4885" style="opacity:.3;fill:#f00" d="m50.487 980.15c-0.93521 0-1.6987 0.76345-1.6987 1.6987v20.239c0 0.9352 0.76346 1.6986 1.6987 1.6986h20.239c0.93521 0 1.6987-0.7634 1.6987-1.6986v-20.239c0-0.93521-0.76346-1.6987-1.6987-1.6987h-20.239zm0 1.5512h20.239c0.08549 0 0.14773 0.0622 0.14773 0.14773v20.239c0 0.086-0.06224 0.1477-0.14773 0.1477h-20.239c-0.08549 0-0.14773-0.062-0.14773-0.1477v-20.239c0-0.0855 0.06224-0.14773 0.14773-0.14773z"/>
    <path id="rect4879" style="opacity:.8;fill:#f00" d="m50.487 980.15c-0.93521 0-1.6987 0.76345-1.6987 1.6987v20.239c0 0.9352 0.76346 1.6986 1.6987 1.6986h20.239c0.93521 0 1.6987-0.7634 1.6987-1.6986v-20.239c0-0.93521-0.76346-1.6987-1.6987-1.6987h-20.239zm0 0.73863h20.239c0.5306 0 0.96027 0.42963 0.96027 0.96027v20.239c0 0.5306-0.42962 0.9603-0.96027 0.9603h-20.239c-0.5306 0-0.96027-0.4297-0.96027-0.9603v-20.239c0-0.5306 0.42962-0.96027 0.96027-0.96027z"/>
    <path id="path4895" style="opacity:.3;fill:#f00" d="m25.274 1005.4c-0.93521 0-1.6987 0.7634-1.6987 1.6986v20.239c0 0.9352 0.76345 1.6986 1.6987 1.6986h37.572c0.93521 0 1.6987-0.7634 1.6987-1.6986v-20.239c0-0.9352-0.76346-1.6986-1.6987-1.6986h-37.572zm0 1.5512h37.572c0.08549 0 0.14773 0.062 0.14773 0.1477v20.239c0 0.086-0.06224 0.1477-0.14773 0.1477h-37.572c-0.08549 0-0.14773-0.062-0.14773-0.1477v-20.239c0-0.086 0.06224-0.1477 0.14773-0.1477z"/>
    <path id="path4897" style="opacity:.8;fill:#f00" d="m25.274 1005.4c-0.93521 0-1.6987 0.7634-1.6987 1.6986v20.239c0 0.9352 0.76345 1.6986 1.6987 1.6986h37.572c0.93521 0 1.6987-0.7634 1.6987-1.6986v-20.239c0-0.9352-0.76346-1.6986-1.6987-1.6986h-37.572zm0 0.7386h37.572c0.5306 0 0.96027 0.4296 0.96027 0.9603v20.239c0 0.5306-0.42962 0.9603-0.96027 0.9603h-37.572c-0.5306 0-0.96027-0.4296-0.96027-0.9603v-20.239c0-0.5306 0.42962-0.9603 0.96027-0.9603z"/>
   </g>
   <g id="layer3" transform="translate(0 956.36)">
    <rect id="rect3171" style="opacity:.1;filter:url(#filter3794-90);stroke:#fff;stroke-linecap:round;stroke-width:.5;fill:url(#linearGradient9043)" clip-path="url(#clipPath3613-68)" rx="12" ry="12" height="66" width="66" y="15" x="15"/>
   </g>
  </g>
 </g>
</svg>
