<?xml version="1.0" encoding="UTF-8" standalone="no"?>
<!-- Created with Inkscape (http://www.inkscape.org/) -->
<svg id="svg2982" xmlns:rdf="http://www.w3.org/1999/02/22-rdf-syntax-ns#" xmlns="http://www.w3.org/2000/svg" height="96" width="96" version="1.1" xmlns:cc="http://creativecommons.org/ns#" xmlns:xlink="http://www.w3.org/1999/xlink" xmlns:dc="http://purl.org/dc/elements/1.1/">
 <defs id="defs2984">
  <filter id="filter6279" color-interpolation-filters="sRGB">
   <feGaussianBlur id="feGaussianBlur6281" stdDeviation="0.8"/>
  </filter>
  <linearGradient id="linearGradient10902-1" x1="48" gradientUnits="userSpaceOnUse" y1="1052.4" gradientTransform="translate(0 -.0000096172)" x2="48" y2="902.36">
   <stop id="stop3702-189" style="stop-color:#509528" offset="0"/>
   <stop id="stop3704-64" style="stop-color:#78cd46" offset="1"/>
  </linearGradient>
  <linearGradient id="linearGradient8989" y2="138.66" gradientUnits="userSpaceOnUse" y1="20.221" x2="48" x1="48">
   <stop id="stop3739-15" style="stop-color:#fff" offset="0"/>
   <stop id="stop3741-99" style="stop-color:#fff;stop-opacity:0" offset="1"/>
  </linearGradient>
  <clipPath id="clipPath3613-16">
   <rect id="rect3615-21" style="fill:#fff" rx="6" ry="6" height="84" width="84" y="6" x="6"/>
  </clipPath>
  <filter id="filter3794-05" width="1.384" y="-.192" x="-.192" height="1.384" color-interpolation-filters="sRGB">
   <feGaussianBlur id="feGaussianBlur3796-32" stdDeviation="5.28"/>
  </filter>
  <linearGradient id="linearGradient8994" x1="45.384" gradientUnits="userSpaceOnUse" y1="63.298" gradientTransform="matrix(.64168 0 0 .64242 35.902 990.86)" x2="45.384" y2="25.169">
   <stop id="stop3822-7" style="stop-color:#00a8e1" offset="0"/>
   <stop id="stop3824-8" style="stop-color:#5dceff" offset="1"/>
  </linearGradient>
 </defs>
 <metadata id="metadata2987">
  <rdf:RDF>
   <cc:Work rdf:about="">
    <dc:format>image/svg+xml</dc:format>
    <dc:type rdf:resource="http://purl.org/dc/dcmitype/StillImage"/>
    <dc:title/>
   </cc:Work>
  </rdf:RDF>
 </metadata>
 <g id="layer1" transform="translate(0 -956.36)">
  <g id="g9001">
   <rect id="rect9283" style="filter:url(#filter6279)" rx="5" ry="5" height="80" width="80" y="964.36" x="8"/>
   <rect id="rect9285" style="fill:url(#linearGradient10902-1)" rx="5" ry="5" height="80" width="80" y="964.36" x="8"/>
   <g id="layer5" transform="translate(0 956.36)">
    <g id="g6773">
     <g id="g6776">
      <rect id="rect3171" style="opacity:.1;filter:url(#filter3794-05);stroke:#fff;stroke-linecap:round;stroke-width:.5;fill:url(#linearGradient8989)" clip-path="url(#clipPath3613-16)" rx="12" ry="12" height="66" width="66" y="15" x="15"/>
     </g>
    </g>
   </g>
   <g id="g8997">
    <path id="path3695" style="fill:url(#linearGradient8994)" d="m73 1013.2c-0.000012 1.5419-0.47229 2.8679-1.4168 3.9779-0.28749 0.37-1.1499 1.1205-2.5873 2.2511-0.94458 0.7607-1.4169 1.4698-1.4168 2.1276v1.0793h-5.6982v-1.7577c0-1.1717 0.45174-2.2613 1.3552-3.2685 0.02054-0.041 0.85215-0.8018 2.4949-2.2818 0.90347-0.8018 1.3552-1.5419 1.3552-2.2201-0.000012-0.4524-0.17454-0.8224-0.52362-1.1103-0.34907-0.3083-0.75976-0.4626-1.232-0.4626-0.61602 0-1.078 0.2261-1.386 0.6785-0.30801 0.4521-0.45174 0.997-0.43119 1.6343h-5.5134v-0.4933c0-2.0353 0.74948-3.6593 2.2485-4.8722 1.3758-1.1307 3.1006-1.696 5.1745-1.696 2.0534 0 3.7988 0.5448 5.2361 1.6343 1.5606 1.1923 2.3409 2.7855 2.3409 4.7796m-5.0513 14.986c-0.000011 0.9249-0.29775 1.6753-0.89323 2.2509-0.57496 0.5961-1.3244 0.8942-2.2485 0.8942-0.92402 0-1.6838-0.2981-2.2793-0.8942-0.57495-0.5756-0.86242-1.326-0.86242-2.2509 0-0.9252 0.28747-1.686 0.86242-2.2821 0.59549-0.5961 1.3552-0.8942 2.2793-0.8942 0.92402 0 1.6735 0.2981 2.2485 0.8942 0.59548 0.5961 0.89322 1.3569 0.89323 2.2821"/>
    <path id="path3665" style="fill:#fff" d="m32.966 977.73c-3.4447 0-6.2282 1.2532-8.3438 3.7593-2.414 2.85-3.622 6.72-3.622 11.62 0 3.6426 0.69844 6.809 2.1089 9.4899 2.1428 3.9923 5.4355 5.9828 9.8567 5.9828 0.95527 4.2662 3.5903 6.5103 9.788 5.5702v-3.0946c-2.8852 0.266-3.5115-1.3198-3.7364-4.126v-0.1834c0.86794-0.5537 1.6558-1.2409 2.361-2.086 2.3055-2.7683 3.4613-6.6281 3.4613-11.553-0.000031-3.6718-0.73591-6.8319-2.2006-9.5129-2.1699-3.9048-5.3878-5.8682-9.6733-5.8682zm23.221 1.2378-4.3553 0.11454-1.4441 6.831h-3.0946v5.1117h2.8424v9.788c0 2.6809 0.38239 4.5607 1.1232 5.6389 0.93288 1.4279 2.9143 2.1318 5.9599 2.1318 1.0152 0 2.2731-0.1379 3.7822-0.4585v-4.8595c-1.0427 0.058-1.8168 0.092-2.3381 0.092-0.85058 0-1.4542-0.1441-1.8109-0.4355-0.43901-0.3498-0.66477-1.2541-0.66476-2.682v-9.2149h4.4928v-5.1117h-4.4928v-6.9456zm-23.221 4.4928c3.3633 0 5.043 3.2271 5.043 9.6962-0.00002 6.4693-1.6796 9.7192-5.043 9.7192-3.4176 0-5.1347-3.2667-5.1347-9.765-0.00001-0.26233-0.00001-0.5171 0-0.77943 0.16274-5.9155 1.8798-8.871 5.1347-8.871z"/>
   </g>
  </g>
 </g>
</svg>
