<?xml version="1.0" encoding="UTF-8" standalone="no"?>
<!-- Created with Inkscape (http://www.inkscape.org/) -->
<svg id="svg2982" xmlns:rdf="http://www.w3.org/1999/02/22-rdf-syntax-ns#" xmlns="http://www.w3.org/2000/svg" height="96" width="96" version="1.1" xmlns:cc="http://creativecommons.org/ns#" xmlns:xlink="http://www.w3.org/1999/xlink" xmlns:dc="http://purl.org/dc/elements/1.1/">
 <defs id="defs2984">
  <filter id="filter6279" color-interpolation-filters="sRGB">
   <feGaussianBlur id="feGaussianBlur6281" stdDeviation="0.8"/>
  </filter>
  <linearGradient id="linearGradient7394" x1="48" gradientUnits="userSpaceOnUse" y1="1052.4" gradientTransform="translate(0 -.0000096172)" x2="48" y2="902.36">
   <stop id="stop3702-189" style="stop-color:#509528" offset="0"/>
   <stop id="stop3704-64" style="stop-color:#78cd46" offset="1"/>
  </linearGradient>
  <linearGradient id="linearGradient7398" y2="138.66" gradientUnits="userSpaceOnUse" y1="20.221" x2="48" x1="48">
   <stop id="stop3739-15" style="stop-color:#fff" offset="0"/>
   <stop id="stop3741-99" style="stop-color:#fff;stop-opacity:0" offset="1"/>
  </linearGradient>
  <clipPath id="clipPath3613-16">
   <rect id="rect3615-21" style="fill:#fff" rx="6" ry="6" height="84" width="84" y="6" x="6"/>
  </clipPath>
  <filter id="filter3794-05" width="1.384" y="-.192" x="-.192" height="1.384" color-interpolation-filters="sRGB">
   <feGaussianBlur id="feGaussianBlur3796-32" stdDeviation="5.28"/>
  </filter>
  <linearGradient id="linearGradient3865-5" x1="69.421" gradientUnits="userSpaceOnUse" y1="81.332" gradientTransform="translate(2)" x2="69.421" y2="53.326">
   <stop id="stop3861" style="stop-color:#8dd35f" offset="0"/>
   <stop id="stop3863" style="stop-color:#a1ed6f" offset="1"/>
  </linearGradient>
 </defs>
 <metadata id="metadata2987">
  <rdf:RDF>
   <cc:Work rdf:about="">
    <dc:format>image/svg+xml</dc:format>
    <dc:type rdf:resource="http://purl.org/dc/dcmitype/StillImage"/>
    <dc:title/>
   </cc:Work>
  </rdf:RDF>
 </metadata>
 <g id="layer1" transform="translate(0 -956.36)">
  <g id="g7496">
   <rect id="rect9283" style="filter:url(#filter6279)" rx="5" ry="5" height="80" width="80" y="964.36" x="8"/>
   <rect id="rect9285" style="fill:url(#linearGradient7394)" rx="5" ry="5" height="80" width="80" y="964.36" x="8"/>
   <g id="layer5" transform="translate(0 956.36)">
    <g id="g6773">
     <g id="g6776">
      <rect id="rect3171" style="opacity:.1;filter:url(#filter3794-05);stroke:#fff;stroke-linecap:round;stroke-width:.5;fill:url(#linearGradient7398)" clip-path="url(#clipPath3613-16)" rx="12" ry="12" height="66" width="66" y="15" x="15"/>
     </g>
    </g>
   </g>
   <g id="g7490">
    <g id="g3054" transform="matrix(.87075 0 0 .87075 4.7209 957.74)">
     <path id="path3625" style="fill:url(#linearGradient3865-5)" d="m69.226 52.944c-9.513 0-17.226 6.311-17.226 14.095 0 4.9583 3.132 9.3145 7.8628 11.827-0.1799 1.3096-0.99914 4.5153-4.8776 5.6117 5.0233 0.54594 8.3593-1.9034 10.13-3.752 1.3173 0.26388 2.6942 0.40782 4.1109 0.40782 9.5139 0 17.226-6.3103 17.226-14.094 0-7.7841-7.7126-14.094-17.226-14.094z"/>
     <path id="path3867" style="opacity:.3;fill:#fff" d="m69.219 52.938c-9.514 0-17.219 6.309-17.219 14.093 0 0.21703 0.01938 0.44163 0.03125 0.65625 0.22616-7.623 7.816-13.75 17.188-13.75 9.3069 0 16.862 6.044 17.188 13.594 0.0072-0.16791 0.03125-0.33064 0.03125-0.5 0-7.7841-7.7048-14.094-17.219-14.094zm-9.563 26.812c-0.4 1.527-1.475 3.82-4.656 4.719 0.72129 0.07839 1.3792 0.09698 2.0312 0.0625 2.14-1.4262 2.7014-3.6203 2.8438-4.6562-0.07392-0.03925-0.14562-0.08485-0.21875-0.125z"/>
    </g>
    <path id="path3665" style="fill:#fff" d="m32.966 977.73c-3.4447 0-6.2282 1.2533-8.3438 3.7593-2.414 2.8558-3.6218 6.7261-3.6218 11.622 0 3.6426 0.69844 6.809 2.1089 9.49 2.1428 3.9924 5.4355 5.9829 9.8567 5.9829 0.95527 4.2662 3.5903 6.5101 9.788 5.5701v-3.0945c-2.8852 0.2659-3.5115-1.3199-3.7364-4.126v-0.1836c0.86794-0.5536 1.6558-1.2409 2.361-2.0859 2.3055-2.7683 3.4613-6.6282 3.4613-11.553-0.00003-3.6717-0.7359-6.8319-2.2006-9.5129-2.1699-3.9048-5.3878-5.8682-9.6734-5.8682zm23.221 1.2378-4.3553 0.1146-1.4441 6.831h-3.0946v5.1117h2.8424v9.788c0 2.681 0.38239 4.5608 1.1232 5.639 0.93288 1.4278 2.9143 2.1318 5.9599 2.1318 1.0152 0 2.2731-0.138 3.7822-0.4585v-4.8596c-1.0426 0.058-1.8168 0.092-2.3381 0.092-0.85058 0-1.4542-0.1441-1.8109-0.4355-0.43901-0.3497-0.66477-1.2539-0.66476-2.682v-9.2148h4.4928v-5.1117h-4.4928v-6.9455zm-23.221 4.4929c3.3633 0 5.043 3.227 5.043 9.6962-0.00002 6.4693-1.6796 9.7192-5.043 9.7192-3.4176 0-5.1347-3.2666-5.1347-9.765-0.00001-0.2623-0.00001-0.5171 0-0.7794 0.16274-5.9155 1.8798-8.871 5.1347-8.871z"/>
   </g>
  </g>
 </g>
</svg>
