<?xml version="1.0" encoding="UTF-8" standalone="no"?>
<!-- Created with Inkscape (http://www.inkscape.org/) -->
<svg id="svg2982" xmlns:rdf="http://www.w3.org/1999/02/22-rdf-syntax-ns#" xmlns="http://www.w3.org/2000/svg" height="96" width="96" version="1.1" xmlns:cc="http://creativecommons.org/ns#" xmlns:xlink="http://www.w3.org/1999/xlink" xmlns:dc="http://purl.org/dc/elements/1.1/">
 <defs id="defs2984">
  <filter id="filter6279" color-interpolation-filters="sRGB">
   <feGaussianBlur id="feGaussianBlur6281" stdDeviation="0.8"/>
  </filter>
  <linearGradient id="linearGradient10902-1" x1="48" gradientUnits="userSpaceOnUse" y1="1052.4" gradientTransform="translate(0 -.0000096172)" x2="48" y2="902.36">
   <stop id="stop3702-5" style="stop-color:#3f9fc5" offset="0"/>
   <stop id="stop3704-86" style="stop-color:#89cde9" offset="1"/>
  </linearGradient>
  <linearGradient id="linearGradient3346" y2="138.66" gradientUnits="userSpaceOnUse" x2="48" y1="20.221" x1="48">
   <stop id="stop3739-689" style="stop-color:#fff" offset="0"/>
   <stop id="stop3741-55" style="stop-color:#fff;stop-opacity:0" offset="1"/>
  </linearGradient>
  <clipPath id="clipPath3613-21">
   <rect id="rect3615-59" style="fill:#fff" rx="6" ry="6" height="84" width="84" y="6" x="6"/>
  </clipPath>
  <filter id="filter3794-91" width="1.384" y="-.192" x="-.192" height="1.384" color-interpolation-filters="sRGB">
   <feGaussianBlur id="feGaussianBlur3796-62" stdDeviation="5.28"/>
  </filter>
  <linearGradient id="linearGradient3224-0" y2="16" gradientUnits="userSpaceOnUse" y1="64" x2="56" x1="56">
   <stop id="stop3703" style="stop-color:#1c4a5b" offset="0"/>
   <stop id="stop3705" style="stop-color:#228cb8" offset="1"/>
  </linearGradient>
  <linearGradient id="linearGradient3205" y2="66" gradientUnits="userSpaceOnUse" y1="66" x2="52" x1="44">
   <stop id="stop3792" style="stop-color:#e6e6e6" offset="0"/>
   <stop id="stop3794" style="stop-color:#b4b4b4" offset="1"/>
  </linearGradient>
  <radialGradient id="radialGradient3202" gradientUnits="userSpaceOnUse" cy="45.167" cx="48" gradientTransform="matrix(1.1429 1.563e-7 -1.9842e-7 1.4508 -6.8571 -20.53)" r="7">
   <stop id="stop3907" style="stop-color:#47bbee" offset="0"/>
   <stop id="stop3909" style="stop-color:#175f7f" offset="1"/>
  </radialGradient>
  <linearGradient id="linearGradient3198" x1="49" xlink:href="#linearGradient3847" gradientUnits="userSpaceOnUse" x2="49" y1="52" y2="77.08"/>
  <linearGradient id="linearGradient3847">
   <stop id="stop3849" style="stop-color:#fff" offset="0"/>
   <stop id="stop3851" style="stop-color:#fff;stop-opacity:0" offset="1"/>
  </linearGradient>
  <radialGradient id="radialGradient3195" xlink:href="#linearGradient3847" gradientUnits="userSpaceOnUse" cy="47.93" cx="48" gradientTransform="matrix(1 0 0 .83333 0 6.0582)" r="6"/>
  <linearGradient id="linearGradient3288" x1="49.4" xlink:href="#linearGradient3847" gradientUnits="userSpaceOnUse" x2="49.4" gradientTransform="matrix(.71429 0 0 .5 13.714 18)" y1="34" y2="51.5"/>
 </defs>
 <metadata id="metadata2987">
  <rdf:RDF>
   <cc:Work rdf:about="">
    <dc:format>image/svg+xml</dc:format>
    <dc:type rdf:resource="http://purl.org/dc/dcmitype/StillImage"/>
    <dc:title/>
   </cc:Work>
  </rdf:RDF>
 </metadata>
 <g id="layer1" transform="translate(0 -956.36)">
  <g id="g6018" transform="translate(-182.19 -40.406)">
   <rect id="rect9283" style="filter:url(#filter6279)" transform="translate(182.19 40.406)" rx="5" ry="5" height="80" width="80" y="964.36" x="8"/>
   <rect id="rect9285" style="fill:url(#linearGradient10902-1)" transform="translate(182.19 40.406)" rx="5" ry="5" height="80" width="80" y="964.36" x="8"/>
   <g id="g6815">
    <g id="layer5" transform="translate(182.19 996.77)">
     <rect id="rect3171" style="opacity:.1;filter:url(#filter3794-91);stroke:#fff;stroke-linecap:round;stroke-width:.5;fill:url(#linearGradient3346)" clip-path="url(#clipPath3613-21)" rx="12" ry="12" height="66" width="66" y="15" x="15"/>
    </g>
    <g id="g3231" transform="matrix(.80872 0 0 .80872 191.36 1006.1)">
     <path id="path3665" style="opacity:.6;block-progression:tb;text-indent:0;color:#000000;text-transform:none;fill:url(#linearGradient3224-0)" d="m26.812 15.688a4.0004 4.0004 0 0 0 -2.875 1.25c-13.244 13.244-13.244 34.881 0 48.125a4.0217 4.0217 0 1 0 5.688 -5.688c-10.187-10.187-10.187-26.563 0-36.75a4.0004 4.0004 0 0 0 0.5625 -5.125 4.0004 4.0004 0 0 0 -3.375 -1.8125zm42.375 0a4.0004 4.0004 0 0 0 -3.375 1.8125 4.0004 4.0004 0 0 0 0.5625 5.125c10.187 10.187 10.187 26.563 0 36.75a4.0217 4.0217 0 1 0 5.6875 5.6875c13.244-13.244 13.244-34.881 0-48.125a4.0004 4.0004 0 0 0 -2.875 -1.25zm-32.906 10.062a4.0004 4.0004 0 0 0 -2.4688 1.2188c-7.777 7.777-7.777 20.504 0 28.281a4.0004 4.0004 0 1 0 5.6562 -5.6562c-4.7198-4.7198-4.7198-12.249 0-16.969a4.0004 4.0004 0 0 0 0.094 -5.656 4.0004 4.0004 0 0 0 -3.281 -1.219zm22.625 0a4.0004 4.0004 0 0 0 -2.4688 1.2188 4.0004 4.0004 0 0 0 0.09375 5.6562c4.7198 4.7198 4.7198 12.249 0 16.969a4.0004 4.0004 0 1 0 5.657 5.656c7.777-7.777 7.777-20.504 0-28.281a4.0004 4.0004 0 0 0 -3.282 -1.219z"/>
     <path id="path3767" style="opacity:.05;block-progression:tb;text-transform:none;color:#000000;text-indent:0" d="m26.75 15.688c-0.88092 0.04443-1.6171 0.37964-2.2812 0.84375-0.11728 0.08195-0.23145 0.15917-0.34375 0.25-0.04487 0.03817-0.08058 0.08631-0.125 0.125-0.29256 0.25484-0.5697 0.50594-0.84375 0.78125-0.15177 0.1661-0.29188 0.32594-0.4375 0.5-0.6553 0.78327-1.273 1.6411-1.9062 2.3438-0.21082 0.28995-0.42208 0.57999-0.625 0.875-0.03872 0.05404-0.08664 0.10198-0.125 0.15625-0.31812 0.46645-0.63281 0.93713-0.9375 1.4062-0.06876 0.10587-0.15046 0.20682-0.21875 0.3125-0.07968 0.13032-0.141 0.27486-0.21875 0.40625-0.13833 0.23065-0.27414 0.45366-0.40625 0.6875-0.07535 0.13499-0.14539 0.27023-0.21875 0.40625-0.80143 1.486-1.4989 3.0359-2.0625 4.625-0.27408 0.77279-0.50119 1.553-0.71875 2.3438-0.0088 0.03203-0.02253 0.06169-0.03125 0.09375-0.21866 0.80389-0.40235 1.6196-0.5625 2.4375-0.14796 0.75567-0.27713 1.5172-0.375 2.2812-0.01735 0.13545-0.04673 0.2706-0.0625 0.40625-0.06133 0.52746-0.08754 1.064-0.125 1.5938-0.02502 0.37408-0.04946 0.75026-0.0625 1.125-0.01696 0.43741-0.03056 0.87478-0.03125 1.3125 0.001 0.4273 0.0147 0.85425 0.03125 1.2812 0.01268 0.36436 0.0385 0.73 0.0625 1.0938 0.03985 0.5686 0.0889 1.1216 0.15625 1.6875 0.0076 0.06346 0.02335 0.12408 0.03125 0.1875 0.20332 1.6326 0.50604 3.2575 0.9375 4.8438 0.0087 0.03206 0.02244 0.06172 0.03125 0.09375 0.21756 0.79078 0.44467 1.571 0.71875 2.3438 0.28179 0.79453 0.59615 1.604 0.9375 2.375 0.34135 0.77103 0.72429 1.507 1.125 2.25 0.15389 0.28192 0.30596 0.56631 0.46875 0.84375 0.07193 0.12438 0.1451 0.25156 0.21875 0.375 0.05617 0.0927 0.09907 0.18909 0.15625 0.28125 0.05525 0.0855 0.13194 0.16436 0.1875 0.25 0.34942 0.55951 0.70841 1.1185 1.0938 1.6562 0.12382 0.18001 0.24836 0.35293 0.375 0.53125 0.08484 0.11329 0.16352 0.23155 0.25 0.34375 0.0094 0.01042 0.02187 0.02077 0.03125 0.03125 0.76352 0.85334 1.4879 1.8788 2.3125 2.7812 0.41852 0.42044 0.84945 0.81695 1.3125 1.1875 0.678 0.47235 1.439 0.77989 2.3438 0.8125 0.1475 0.0046 0.29555-0.01963 0.4375-0.03125 1.4681-0.2221 2.8119-1.3013 3.3438-2.6875 0.07-0.178 0.118-0.346 0.158-0.532s0.085-0.37 0.094-0.562c0.018-0.386-0.034-0.788-0.156-1.188-0.41-0.877-0.963-1.671-1.563-2.438-0.865-0.896-1.662-1.861-2.375-2.874-0.074-0.093-0.146-0.188-0.219-0.282-0.746-0.961-1.416-1.986-1.843-3.156-0.209-0.406-0.379-0.834-0.563-1.25-0.836-1.887-1.416-3.854-1.75-5.875-0.211-1.275-0.357-2.551-0.375-3.844-0.005-0.178 0.001-0.353 0-0.531 0.0012-0.18724-0.0052-0.3753 0-0.5625 0.01801-1.293 0.16398-2.5995 0.375-3.875 0.40802-2.4662 1.1549-4.8762 2.3125-7.125 0.4277-1.1697 1.0971-2.1633 1.8438-3.125 0.06682-0.09794 0.15051-0.18425 0.21875-0.28125 0.70854-1.0071 1.4848-1.9827 2.3438-2.875 0.60553-0.77196 1.1806-1.5529 1.5938-2.4375 0.12203-0.39971 0.17463-0.8016 0.15625-1.1875-0.0092-0.19295-0.05376-0.40763-0.09375-0.59375-0.02789-0.12981-0.05206-0.24944-0.09375-0.375-0.01687-0.05343-0.04357-0.1035-0.0625-0.15625-0.54342-1.4164-1.9322-2.4987-3.4375-2.6875-0.136-0.018-0.269-0.031-0.406-0.032zm42.312 0c-1.3136 0.09793-2.6005 0.88849-3.3125 2-0.06688 0.11561-0.13105 0.22263-0.1875 0.34375-0.02573 0.05075-0.03906 0.10441-0.0625 0.15625-0.05245 0.12435-0.1152 0.24664-0.15625 0.375-0.03382 0.10331-0.06937 0.20603-0.09375 0.3125-0.03071 0.13412-0.04777 0.26781-0.0625 0.40625-0.04088 0.38416-0.0047 0.78134 0.09375 1.1875 0.38246 0.97328 0.95219 1.8286 1.5938 2.6562 0.82863 0.8576 1.5919 1.7853 2.2812 2.75 0.01862 0.02268 0.04395 0.03977 0.0625 0.0625 0.86613 1.0615 1.6305 2.1816 2.0938 3.5 0.20891 0.40583 0.3785 0.83442 0.5625 1.25 1.3631 3.0785 2.0786 6.4077 2.125 9.75 0.002 0.07197-0.0014 0.14677 0 0.21875 0.0012 0.22003 0.0043 0.43622 0 0.65625-0.000407 0.07335 0.001 0.14542 0 0.21875-0.04643 3.3423-0.76195 6.6403-2.125 9.7188-0.184 0.41558-0.35359 0.84417-0.5625 1.25-0.43775 1.2458-1.1597 2.303-1.9688 3.3125-0.04714 0.05882-0.07731 0.12906-0.125 0.1875-0.73204 1.0343-1.5464 2.0256-2.4375 2.9375-0.60441 0.79245-1.1355 1.6038-1.5 2.5312-0.09849 0.40616-0.13463 0.80334-0.09375 1.1875 0.01473 0.13844 0.03179 0.27213 0.0625 0.40625 0.0119 0.05197 0.01707 0.10501 0.03125 0.15625 0.0147 0.05254 0.04587 0.10424 0.0625 0.15625 0.05474 0.16846 0.14087 0.34127 0.21875 0.5 0.004 0.0087-0.0041 0.02255 0 0.03125 0.06253 0.12502 0.11195 0.22581 0.1875 0.34375 0.71757 1.1202 2.0192 1.912 3.3438 2 0.03235-0.000943 0.06116 0.0018 0.09375 0 0.20189-0.0011 0.39456 0.000801 0.59375-0.03125 0.57503-0.09253 1.143-0.32867 1.625-0.65625 0.01669-0.01488 0.04584-0.01633 0.0625-0.03125 0.33531-0.30831 0.64822-0.615 0.96875-0.9375 0.12796-0.12603 0.24947-0.24665 0.375-0.375 0.0562-0.05856 0.10053-0.12852 0.15625-0.1875 0.379-0.40122 0.76829-0.79839 1.125-1.2188 0.40916-0.48216 0.80815-0.99451 1.1875-1.5 1.1381-1.5165 2.1395-3.1214 3-4.8125 0.28684-0.56371 0.55753-1.1396 0.8125-1.7188 0.06025-0.13686 0.12905-0.2686 0.1875-0.40625 0.18337-0.43553 0.36604-0.90087 0.53125-1.3438 0.44516-1.1854 0.81251-2.3974 1.125-3.625 0.15624-0.61382 0.28395-1.2536 0.40625-1.875 0.03892-0.19774 0.08956-0.39537 0.125-0.59375 0.07515-0.42637 0.15967-0.85302 0.21875-1.2812 0.01174-0.08382 0.02013-0.1661 0.03125-0.25 0.06679-0.51152 0.1126-1.0497 0.15625-1.5625 0.0018-0.02091-0.0018-0.04159 0-0.0625 0.05027-0.59989 0.10682-1.211 0.125-1.8125 0.000917-0.03109-0.000829-0.06265 0-0.09375 0.01679-0.61141 0.01686-1.2013 0-1.8125-0.000567-0.02065 0.000605-0.04185 0-0.0625-0.01804-0.61161-0.07278-1.2342-0.125-1.8438-0.0017-0.02082 0.0018-0.04169 0-0.0625-0.0516-0.60623-0.10359-1.2083-0.1875-1.8125-0.05847-0.41744-0.14497-0.83492-0.21875-1.25-0.03672-0.20834-0.08446-0.41723-0.125-0.625-0.121-0.626-0.248-1.235-0.404-1.849-0.432-1.696-0.973-3.358-1.657-4.968-0.057-0.137-0.128-0.271-0.187-0.406-0.51-1.159-1.083-2.314-1.719-3.407-0.636-1.092-1.335-2.145-2.094-3.156-0.379-0.505-0.778-0.987-1.187-1.469s-0.843-0.949-1.282-1.406c-0.127-0.133-0.245-0.276-0.374-0.406-0.321-0.316-0.634-0.637-0.969-0.938-0.019-0.013-0.044-0.018-0.063-0.031-0.148-0.101-0.308-0.202-0.468-0.281-0.181-0.09-0.371-0.157-0.563-0.219-0.38425-0.12314-0.78372-0.18523-1.1875-0.1875-0.04183 0.0017-0.08326-0.0031-0.125 0zm-42.094 1.9688c1.6657 0.05446 2.6259 2.4486 1.25 3.5625-0.51383 0.49918-1.0011 1.0243-1.4688 1.5625-0.4238 0.48769-0.83341 0.9834-1.2188 1.5-0.1122 0.15042-0.20359 0.31604-0.3125 0.46875-0.04704 0.06586-0.10978 0.12124-0.15625 0.1875-0.29194 0.41735-0.5763 0.84824-0.84375 1.2812-0.74643 1.2085-1.3857 2.4724-1.9375 3.7812-1.1035 2.6177-1.8345 5.3907-2.125 8.2188-0.05872 0.57171-0.06939 1.1447-0.09375 1.7188-0.01044 0.34463-0.03338 0.68641-0.03125 1.0312-0.0022 0.33984 0.02125 0.69161 0.03125 1.0312 0.02436 0.57406 0.03503 1.147 0.09375 1.7188 0.29046 2.8281 1.0215 5.6323 2.125 8.25 0.53924 1.2791 1.181 2.5039 1.9062 3.6875 0.02901 0.04734 0.0332 0.10909 0.0625 0.15625 0.35018 0.55915 0.73621 1.0919 1.125 1.625 0.0308 0.04219 0.06269 0.08299 0.09375 0.125 0.39929 0.54101 0.81303 1.0827 1.25 1.5938 0.01922 0.02219 0.0432 0.04037 0.0625 0.0625 0.45889 0.52622 0.93437 1.0112 1.4375 1.5 1.4677 1.1882 0.27537 3.8215-1.5938 3.5312-0.27012-0.03889-0.54234-0.11572-0.78125-0.25-0.14798-0.13314-0.29279-0.26963-0.4375-0.40625l-0.0625 0.0625c-1.933-1.885-3.553-4.031-4.904-6.344-0.58-0.99-1.126-2.014-1.594-3.062-0.185-0.414-0.364-0.829-0.532-1.25-0.04621-0.11263-0.07999-0.23077-0.125-0.34375-0.02469-0.06138-0.03824-0.12597-0.0625-0.1875-0.11723-0.31088-0.23605-0.62313-0.34375-0.9375-0.20548-0.57797-0.3933-1.1617-0.5625-1.75-0.426-1.482-0.737-3.004-0.937-4.531-0.097-0.746-0.174-1.499-0.219-2.25-0.0069-0.10404 0.0059-0.2084 0-0.3125-0.028-0.574-0.064-1.145-0.062-1.719-0.002-0.575 0.034-1.145 0.062-1.719 0.0059-0.1041-0.0069-0.20846 0-0.3125 0.04462-0.75136 0.12101-1.5037 0.21875-2.25 0.19823-1.5136 0.51665-2.9983 0.9375-4.4688 0.01164-0.04166 0.01944-0.08339 0.03125-0.125 0.14308-0.49192 0.30027-0.98401 0.46875-1.4688 0.12946-0.38658 0.26243-0.77487 0.40625-1.1562 0.02396-0.06076 0.03812-0.12688 0.0625-0.1875 0.03342-0.08389 0.05967-0.1663 0.09375-0.25 0.57956-1.4727 1.271-2.8801 2.0625-4.25 0.054-0.092 0.103-0.189 0.157-0.281 0.27175-0.45926 0.57965-0.89899 0.875-1.3438 0.63362-0.95417 1.322-1.8718 2.0625-2.75 0.61064-0.72414 1.2244-1.4604 1.9062-2.125l0.0625 0.0625c0.14471-0.13662 0.28952-0.27311 0.4375-0.40625 0.23891-0.13428 0.51113-0.21111 0.78125-0.25 0.11682-0.01814 0.2327-0.03488 0.34375-0.03125zm41.97 0.031c0.6663-0.01426 1.2092 0.25153 1.6875 0.625l0.03125-0.03125c0.04154 0.04152 0.08369 0.08325 0.125 0.125 0.18497 0.15808 0.3313 0.34353 0.5 0.53125 0.0557 0.0589 0.101 0.12818 0.15625 0.1875 1.1279 1.2109 2.1667 2.5043 3.0938 3.875 0.34673 0.51269 0.68395 1.0303 1 1.5625 0.08579 0.14446 0.16654 0.29168 0.25 0.4375 0.0071 0.01237 0.02416 0.01887 0.03125 0.03125 0.39683 0.67834 0.75382 1.3885 1.0938 2.0938 0.004 0.0083-0.004 0.02291 0 0.03125 1.3771 2.8639 2.2995 5.9263 2.75 9.0625 0.0015 0.01013-0.0015 0.02112 0 0.03125 0.22296 1.5628 0.34754 3.1392 0.34375 4.7188 0.000034 0.01031-0.000025 0.02094 0 0.03125-0.0026 0.78452-0.0356 1.5613-0.09375 2.3438-0.000718 0.01042 0.000728 0.02083 0 0.03125-0.05889 0.78245-0.13584 1.5676-0.25 2.3438-0.0015 0.01024 0.0015 0.02102 0 0.03125-0.4505 3.1362-1.3729 6.1986-2.75 9.0625-0.0041 0.0086 0.0041 0.02268 0 0.03125-0.33654 0.70908-0.70314 1.3807-1.0938 2.0625-0.0072 0.01229-0.02404 0.01897-0.03125 0.03125-0.08346 0.14582-0.16421 0.29304-0.25 0.4375-0.31605 0.53219-0.65327 1.0498-1 1.5625-0.44887 0.66371-0.93991 1.3095-1.4375 1.9375-0.50904 0.64249-1.037 1.2734-1.5938 1.875-0.25522 0.30629-0.48934 0.60272-0.78125 0.84375-0.02255 0.01862-0.03965 0.04447-0.0625 0.0625-0.48207 0.38054-1.0451 0.60817-1.7188 0.59375-1.447-0.14861-2.3004-1.8659-1.5312-3.0938 1.8087-1.8613 3.4621-3.8859 4.7812-6.125 0.21519-0.36526 0.42857-0.71749 0.625-1.0938 0.0043-0.0084-0.0043-0.02289 0-0.03125 0.20026-0.38466 0.38354-0.79108 0.5625-1.1875 0.16749-0.34822 0.31784-0.70802 0.46875-1.0625 0.48905-1.2033 0.92871-2.4281 1.25-3.6875 0.34624-1.3572 0.60388-2.7319 0.75-4.125 0.002-0.02068-0.002-0.04182 0-0.0625 0.04595-0.44738 0.06881-0.8948 0.09375-1.3438 0.0054-0.11474-0.004-0.22894 0-0.34375 0.01305-0.37588 0.03316-0.74882 0.03125-1.125 0.0016-0.36043-0.01907-0.73359-0.03125-1.0938-0.0054-0.12484 0.0071-0.25023 0-0.375-0.02089-0.44464-0.05169-0.86943-0.09375-1.3125-0.0021-0.02036 0.0021-0.04215 0-0.0625-0.1461-1.3934-0.40368-2.7987-0.75-4.1562-0.32129-1.2594-0.76095-2.4842-1.25-3.6875-0.15091-0.35448-0.30126-0.71428-0.46875-1.0625-0.1827-0.40471-0.35761-0.79504-0.5625-1.1875-0.1954-0.37968-0.41207-0.75482-0.625-1.125-1.3191-2.2391-2.9725-4.2637-4.7812-6.125-0.76913-1.2278 0.08427-2.9451 1.5312-3.0938zm-32.219 8.0312c-2.9389 0.10461-4.491 3.0872-5.9688 5.2188-0.88854 1.46-1.5762 3.0226-2.0312 4.6562-0.14625 0.52501-0.27278 1.0582-0.375 1.5938-0.0076 0.04007 0.0074 0.08488 0 0.125-0.07604 0.41204-0.13726 0.8338-0.1875 1.25-0.02512 0.20812-0.0438 0.41615-0.0625 0.625-0.03272 0.36538-0.04934 0.72699-0.0625 1.0938-0.01226 0.34173-0.03588 0.68925-0.03125 1.0312 0.0022 0.11555 0.02711 0.22827 0.03125 0.34375 0.01391 0.38765 0.02673 0.77017 0.0625 1.1562 0.01444 0.15584 0.01324 0.31332 0.03125 0.46875 0.05434 0.46888 0.13171 0.9426 0.21875 1.4062 0.10434 0.55578 0.22331 1.1117 0.375 1.6562 0.45507 1.6337 1.1427 3.1962 2.0312 4.6562 1.4778 2.1315 3.0299 5.1141 5.9688 5.2188 2.2246 0.02556 3.8743-1.8813 3.9688-3.9062-0.009-0.10593-0.01211-0.20485-0.03125-0.3125-0.32861-1.1778-1.0037-2.2051-1.75-3.1875-0.005-0.0066 0.005-0.02465 0-0.03125-1.2401-1.6303-2.6379-3.1704-2.75-5.375-0.12266-0.57159-0.19081-1.1444-0.21875-1.7188-0.01626-0.20747-0.02654-0.41661-0.03125-0.625 0.000177-0.02081-0.000295-0.04169 0-0.0625-0.0041-0.23967 0.01956-0.4785 0.03125-0.71875 0.02794-0.57436 0.09609-1.1472 0.21875-1.7188 0.11214-2.2047 1.5099-3.7759 2.75-5.4062 0.0048-0.0057-0.0048-0.02552 0-0.03125 0.74633-0.98244 1.4214-1.9784 1.75-3.1562 0.01725-0.097 0.02223-0.18564 0.03125-0.28125-0.07877-2.0363-1.7327-3.9944-3.9688-3.9688zm22.625 0c-2.2781-0.10845-3.9568 1.9552-4.0312 4.0312-0.00075 0.02091 0.000424 0.04159 0 0.0625 0.000525 0.01036-0.000605 0.0209 0 0.03125 0.05448 0.93303 0.44096 1.828 1.2188 2.5 2.3837 2.2386 3.5387 5.4384 3.5 8.625 0.03865 3.1866-1.1163 6.3864-3.5 8.625-0.77779 0.672-1.1643 1.567-1.2188 2.5-0.0012 0.02026 0.000878 0.04222 0 0.0625 0.000278 0.0099-0.00035 0.02138 0 0.03125 0.07368 2.0766 1.7525 4.1397 4.0312 4.0312 0.66347-0.0095 1.3284-0.17379 1.9062-0.5 4.0069-3.233 6.271-8.1397 6.6875-13.219 0.0054-0.08384 0.02688-0.16609 0.03125-0.25 0.0079-0.11275-0.0061-0.23088 0-0.34375 0.01653-0.30802 0.02836-0.62905 0.03125-0.9375-0.0031-0.31406-0.01404-0.62391-0.03125-0.9375-0.0037-0.10427 0.0053-0.20831 0-0.3125-0.005-0.074-0.026-0.146-0.031-0.219-0.41-5.09-2.673-10.042-6.688-13.281-0.57782-0.32621-1.2428-0.49049-1.9062-0.5zm-0.032 1.719c0.31916-0.0057 0.65616 0.061 0.96875 0.25 3.5096 3.0467 5.4222 7.5431 5.6875 12.125 0.0063 0.09476 0.02641 0.1864 0.03125 0.28125 0.0027 0.06175-0.002 0.12572 0 0.1875 0.01909 0.46469 0.01542 0.94132 0 1.4062-0.0022 0.05266 0.0027 0.10361 0 0.15625-0.0035 0.08461-0.0266 0.16545-0.03125 0.25-0.25323 4.6005-2.1642 9.0977-5.6875 12.156-1.5094 0.91265-3.379-0.7278-2.9688-2.2812 0.02692-0.2566 0.10441-0.516 0.25-0.75 1.6653-1.8638 3.2571-3.9288 3.9062-6.4062 0.19728-0.62374 0.3396-1.2379 0.4375-1.875 0.0014-0.01021-0.0014-0.02103 0-0.03125 0.04739-0.31337 0.10071-0.62271 0.125-0.9375 0.00074-0.01045-0.000716-0.0208 0-0.03125 0.0228-0.30483 0.02954-0.63246 0.03125-0.9375-0.000022-0.02097 0.00012-0.04153 0-0.0625 0.000319-0.30436-0.01115-0.60282-0.03125-0.90625-0.0015-0.02063 0.0016-0.04187 0-0.0625-0.02151-0.30365-0.0836-0.60466-0.125-0.90625-0.003-0.02013 0.0031-0.04238 0-0.0625-0.09786-0.6269-0.24333-1.2611-0.4375-1.875-0.6492-2.4774-2.2409-4.5424-3.9062-6.4062-0.14559-0.234-0.22308-0.4934-0.25-0.75-0.32533-1.2317 0.77801-2.5095 2-2.5312zm-22.437 0.031c1.2364 0.03882 1.8986 1.233 1.7812 2.3125 0.01437 0.52845-0.13847 1.0552-0.59375 1.4375-2.6424 2.5144-4.0012 6.0781-4.0625 9.6562-0.000715 0.04174 0.000363 0.08326 0 0.125 0.000113 0.01046-0.000135 0.02079 0 0.03125-0.000069 0.01046 0.000047 0.02079 0 0.03125 0.05395 3.5887 1.4124 7.1346 4.0625 9.6562 0.459 0.38543 0.61158 0.93595 0.59375 1.4688 0.11734 1.0795-0.54486 2.2424-1.7812 2.2812-2.0755-0.0039-3.0416-2.4179-4.1875-3.8125-1.738-2.691-2.613-5.852-2.688-9.03-0.02021-0.44202-0.01107-0.87026 0-1.3125 0.07934-3.1694 0.95499-6.3153 2.6875-9 1.1459-1.3946 2.112-3.8398 4.1875-3.8438z"/>
     <rect id="rect3661" style="color:#000000;fill:url(#linearGradient3205)" rx="4" ry="4" height="28" width="8" y="52" x="44"/>
     <path id="path3663" style="color:#000000;fill:url(#radialGradient3202)" d="m55 41a7 7 0 0 1 -14 0 7 7 0 1 1 14 0z"/>
     <path id="rect3844" style="opacity:.6;color:#000000;fill:url(#linearGradient3198)" d="m48 52c-2.216 0-4 1.784-4 4v20c0 2.216 1.784 4 4 4s4-1.784 4-4v-20c0-2.216-1.784-4-4-4zm0 1c1.6742 0 3 1.3258 3 3v20c0 1.6742-1.3258 3-3 3s-3-1.3258-3-3v-20c0-1.6742 1.3258-3 3-3z"/>
     <path id="path3868" style="opacity:.3;color:#000000;fill:url(#radialGradient3195)" d="m42.031 40.625c-0.007 0.123-0.031 0.251-0.031 0.375 0 3.3137 2.6863 6 6 6s6-2.6863 6-6c0-0.12447-0.02378-0.25241-0.03125-0.375-0.308 3.026-2.862 5.375-5.969 5.375s-5.661-2.349-5.969-5.375z"/>
     <path id="path3893" style="color:#000000;fill:url(#linearGradient3288)" d="m53 38.5a5 3.5 0 0 1 -10 0 5 3.5 0 1 1 10 0z"/>
    </g>
   </g>
  </g>
 </g>
</svg>
