<?xml version="1.0" encoding="UTF-8" standalone="no"?>
<!-- Created with Inkscape (http://www.inkscape.org/) -->
<svg id="svg2982" xmlns:rdf="http://www.w3.org/1999/02/22-rdf-syntax-ns#" xmlns="http://www.w3.org/2000/svg" height="96" width="96" version="1.1" xmlns:cc="http://creativecommons.org/ns#" xmlns:xlink="http://www.w3.org/1999/xlink" xmlns:dc="http://purl.org/dc/elements/1.1/">
 <defs id="defs2984">
  <filter id="filter6279" color-interpolation-filters="sRGB">
   <feGaussianBlur id="feGaussianBlur6281" stdDeviation="0.8"/>
  </filter>
  <linearGradient id="linearGradient6377" x1="48" gradientUnits="userSpaceOnUse" y1="1052.4" gradientTransform="translate(0 -.0000096172)" x2="48" y2="902.36">
   <stop id="stop3259-29" style="stop-color:#aaa" offset="0"/>
   <stop id="stop3261-9" style="stop-color:#d2d2d2" offset="1"/>
  </linearGradient>
  <clipPath id="clipPath2521">
   <rect id="rect2523" style="fill:#fff" rx="9.3705" ry="9.3705" height="131.19" width="131.19" y="-17.096" x="-17.694"/>
  </clipPath>
  <linearGradient id="linearGradient6474" x1="48.917" xlink:href="#linearGradient4321" gradientUnits="userSpaceOnUse" y1="24.147" gradientTransform="matrix(1.0777 0 0 1.0777 -5.3853 -3.7078)" x2="97.732" y2="24.147"/>
  <linearGradient id="linearGradient4321">
   <stop id="stop4323" style="stop-color:#959595" offset="0"/>
   <stop id="stop4325-5" style="stop-color:#5d5d5d" offset="1"/>
  </linearGradient>
  <linearGradient id="linearGradient6476" x1="48.917" xlink:href="#linearGradient4321" gradientUnits="userSpaceOnUse" y1="24.147" gradientTransform="matrix(.76208 .76208 -.76208 .76208 48.272 -29.567)" x2="97.732" y2="24.147"/>
  <linearGradient id="linearGradient6478" x1="56.27" xlink:href="#linearGradient4341" gradientUnits="userSpaceOnUse" y1="22.625" gradientTransform="matrix(.76208 .76208 -.76208 .76208 48.272 -29.567)" x2="53.392" y2="23.509"/>
  <linearGradient id="linearGradient4341">
   <stop id="stop4343" offset="0"/>
   <stop id="stop4345-2" style="stop-opacity:0" offset="1"/>
  </linearGradient>
  <linearGradient id="linearGradient6480" x1="48.917" xlink:href="#linearGradient4321" gradientUnits="userSpaceOnUse" y1="24.147" gradientTransform="matrix(0 1.0777 -1.0777 0 101.32 -7.344)" x2="97.732" y2="24.147"/>
  <linearGradient id="linearGradient6482" x1="56.27" xlink:href="#linearGradient4341" gradientUnits="userSpaceOnUse" y1="22.625" gradientTransform="matrix(0 1.0777 -1.0777 0 101.32 -7.344)" x2="53.392" y2="23.509"/>
  <linearGradient id="linearGradient6484" x1="48.917" xlink:href="#linearGradient4321" gradientUnits="userSpaceOnUse" y1="24.147" gradientTransform="matrix(-.76208 .76208 -.76208 -.76208 123.3 45.941)" x2="97.732" y2="24.147"/>
  <linearGradient id="linearGradient6486" x1="56.27" xlink:href="#linearGradient4341" gradientUnits="userSpaceOnUse" y1="22.625" gradientTransform="matrix(-.76208 .76208 -.76208 -.76208 123.3 45.941)" x2="53.392" y2="23.509"/>
  <linearGradient id="linearGradient6488" x1="48.917" xlink:href="#linearGradient4321" gradientUnits="userSpaceOnUse" y1="24.147" gradientTransform="matrix(-1.0777 0 0 -1.0777 102.59 101.76)" x2="97.732" y2="24.147"/>
  <linearGradient id="linearGradient6490" x1="56.27" xlink:href="#linearGradient4341" gradientUnits="userSpaceOnUse" y1="22.625" gradientTransform="matrix(-1.0777 0 0 -1.0777 102.59 101.76)" x2="53.392" y2="23.509"/>
  <linearGradient id="linearGradient6492" x1="48.917" xlink:href="#linearGradient4321" gradientUnits="userSpaceOnUse" y1="24.147" gradientTransform="matrix(-.76208 -.76208 .76208 -.76208 48.297 122.99)" x2="97.732" y2="24.147"/>
  <linearGradient id="linearGradient6494" x1="56.27" xlink:href="#linearGradient4341" gradientUnits="userSpaceOnUse" y1="22.625" gradientTransform="matrix(-.76208 -.76208 .76208 -.76208 48.297 122.99)" x2="53.392" y2="23.509"/>
  <linearGradient id="linearGradient6496" x1="48.917" xlink:href="#linearGradient4321" gradientUnits="userSpaceOnUse" y1="24.147" gradientTransform="matrix(0 -1.0777 1.0777 0 -6.7689 100.51)" x2="97.732" y2="24.147"/>
  <linearGradient id="linearGradient6498" x1="56.27" xlink:href="#linearGradient4341" gradientUnits="userSpaceOnUse" y1="22.625" gradientTransform="matrix(0 -1.0777 1.0777 0 -6.7689 100.51)" x2="53.392" y2="23.509"/>
  <linearGradient id="linearGradient6500" x1="48.917" xlink:href="#linearGradient4321" gradientUnits="userSpaceOnUse" y1="24.147" gradientTransform="matrix(.76208 -.76208 .76208 .76208 -27.993 47.228)" x2="97.732" y2="24.147"/>
  <linearGradient id="linearGradient6502" x1="56.27" xlink:href="#linearGradient4341" gradientUnits="userSpaceOnUse" y1="22.625" gradientTransform="matrix(.76208 -.76208 .76208 .76208 -27.993 47.228)" x2="53.392" y2="23.509"/>
  <linearGradient id="linearGradient6504" x1="56.27" xlink:href="#linearGradient4341" gradientUnits="userSpaceOnUse" y1="22.625" gradientTransform="matrix(1.0777 0 0 1.0777 -5.3853 -3.7078)" x2="53.392" y2="23.509"/>
  <radialGradient id="radialGradient6506" gradientUnits="userSpaceOnUse" cy="48" cx="48" gradientTransform="matrix(.81060 0 0 .80759 9.0914 9.2357)" r="42">
   <stop id="stop4694" style="stop-opacity:0" offset="0"/>
   <stop id="stop3355-3" style="stop-opacity:0" offset=".53446"/>
   <stop id="stop3289-3" style="stop-opacity:.50407" offset=".88369"/>
   <stop id="stop4696" style="stop-opacity:.86179" offset="1"/>
  </radialGradient>
  <clipPath id="clipPath3733">
   <rect id="rect3735" style="fill:#fff" rx="6" ry="6" height="73.389" width="74.697" y="11.328" x="10.399"/>
  </clipPath>
  <linearGradient id="linearGradient6508" y2="47.26" gradientUnits="userSpaceOnUse" y1="47.26" x2="84.095" x1="14.647">
   <stop id="stop3262-5" offset="0"/>
   <stop id="stop3264-0" style="stop-opacity:0" offset="1"/>
  </linearGradient>
  <radialGradient id="radialGradient6510" gradientUnits="userSpaceOnUse" cy="76.335" cx="62.717" gradientTransform="matrix(1.1493 -.66353 .71670 1.2414 -64.071 19.196)" r="27.757">
   <stop id="stop3305-4" style="stop-color:#f1b9ff" offset="0"/>
   <stop id="stop3307-5" style="stop-color:#fff;stop-opacity:0" offset="1"/>
  </radialGradient>
  <linearGradient id="linearGradient6512" x1="47.856" gradientUnits="userSpaceOnUse" x2="47.856" y1="21.754" y2="52.816">
   <stop id="stop3290" style="stop-color:#71c837" offset="0"/>
   <stop id="stop3292-7" style="stop-color:#71c837;stop-opacity:0" offset="1"/>
  </linearGradient>
  <linearGradient id="linearGradient6516" y2="7.7925" gradientUnits="userSpaceOnUse" y1="47.406" x2="51.985" x1="51.985">
   <stop id="stop3306-9" style="stop-color:#959595" offset="0"/>
   <stop id="stop3308" style="stop-color:#5d5d5d" offset="1"/>
  </linearGradient>
  <radialGradient id="radialGradient6518" gradientUnits="userSpaceOnUse" cy="55.809" cx="48.453" gradientTransform="matrix(.39612 -1.5008 1.5792 .41680 -60.155 95.679)" r="18.109">
   <stop id="stop3385-9" style="stop-color:#fff;stop-opacity:0" offset="0"/>
   <stop id="stop3442-4" style="stop-color:#fff;stop-opacity:0" offset=".65574"/>
   <stop id="stop3444-6" style="stop-color:#fff" offset="1"/>
  </radialGradient>
  <linearGradient id="linearGradient6520" y2="5.9877" gradientUnits="userSpaceOnUse" y1="90" x2="48" x1="48">
   <stop id="stop3259-5" style="stop-color:#aaa" offset="0"/>
   <stop id="stop3261-5" style="stop-color:#d2d2d2" offset="1"/>
  </linearGradient>
  <linearGradient id="linearGradient6522" x1="10.48" gradientUnits="userSpaceOnUse" y1="46.187" gradientTransform="matrix(0 -.99172 1.0682 0 -1.3347 93.394)" x2="81.065" y2="46.187">
   <stop id="stop3270-6" style="stop-color:#e4e4e4" offset="0"/>
   <stop id="stop3272" style="stop-color:#7a7a7a" offset="1"/>
  </linearGradient>
 </defs>
 <metadata id="metadata2987">
  <rdf:RDF>
   <cc:Work rdf:about="">
    <dc:format>image/svg+xml</dc:format>
    <dc:type rdf:resource="http://purl.org/dc/dcmitype/StillImage"/>
    <dc:title/>
   </cc:Work>
  </rdf:RDF>
 </metadata>
 <g id="layer1" transform="translate(0 -956.36)">
  <g id="g6662">
   <rect id="rect9283" style="filter:url(#filter6279)" rx="5" ry="5" height="80" width="80" y="964.36" x="8"/>
   <rect id="rect9285" style="fill:url(#linearGradient6377)" rx="5" ry="5" height="80" width="80" y="964.36" x="8"/>
   <g id="g3244" transform="matrix(.65476 0 0 .65476 16.571 972.93)">
    <g id="layer4">
     <path id="path2955" style="fill:#333" d="m64 48a16 16 0 1 1 -32 0 16 16 0 1 1 32 0z"/>
     <g id="g4592" clip-path="url(#clipPath2521)" transform="matrix(.58883 0 0 .58883 19.082 20.054)">
      <path id="path4319" style="fill:url(#linearGradient6474);fill-rule:evenodd" d="m63.746 52.942-18.232-65.8 54.43 4.549v60.162l-36.199 1.0887z"/>
      <path id="path4329" style="opacity:.4;fill:#fff;fill-rule:evenodd" d="m45.879-13.705 17.879 66.646 1.5326-0.64021-17.879-66.612-1.5326 0.60653z"/>
      <path id="path4424" style="fill:url(#linearGradient6476);fill-rule:evenodd" d="m57.098 59.374 31.706-54.916 37.206 37.202-42.545 42.541-26.367-24.827z"/>
      <path id="path4426" style="opacity:.4;fill:#fff;fill-rule:evenodd" d="m88.806 4.4407-31.698 54.941 1.695 0.538 31.674-54.917-1.671-0.5623z"/>
      <path id="path4428" style="opacity:.6;fill:url(#linearGradient6478);fill-rule:evenodd" d="m85.302 1.0891-31.243 55.245 3.1198 2.9292 31.626-54.822-3.5032-3.3516z"/>
      <path id="path4436" style="fill:url(#linearGradient6480);fill-rule:evenodd" d="m44.668 61.788 61.252-16.412v52.611h-60.162l-1.0887-36.199z"/>
      <path id="path4438" style="opacity:.4;fill:#fff;fill-rule:evenodd" d="m105.93 45.364-61.263 16.436 0.03368 1.8359 61.229-16.436v-1.8359z"/>
      <path id="path4440" style="opacity:.6;fill:url(#linearGradient6482);fill-rule:evenodd" d="m105.93 41.054-61.263 16.436 0.13472 4.2773 61.128-16.402v-4.311z"/>
      <path id="path4448" style="fill:url(#linearGradient6484);fill-rule:evenodd" d="m34.359 54.767 54.916 31.705-37.202 37.198-42.54-42.537 24.826-26.366z"/>
      <path id="path4450" style="opacity:.4;fill:#fff;fill-rule:evenodd" d="m89.292 86.474-54.941-31.698-1.0976 1.3924 54.917 31.674 1.1214-1.3686z"/>
      <path id="path4452" style="opacity:.6;fill:url(#linearGradient6486);fill-rule:evenodd" d="m92.341 83.426-54.942-31.698l-2.9292 3.1198 54.822 31.626 3.0483-3.0483z"/>
      <path id="path4460" style="fill:url(#linearGradient6488);fill-rule:evenodd" d="m33.461 45.115 16.412 61.251h-52.611v-60.162l36.199-1.0887z"/>
      <path id="path4462" style="opacity:.4;fill:#fff;fill-rule:evenodd" d="m49.884 106.38-16.436-61.263-1.6843 0.48858 16.436 61.229 1.6843-0.4549z"/>
      <path id="path4464" style="opacity:.6;fill:url(#linearGradient6490);fill-rule:evenodd" d="m54.195 106.38-16.436-61.263-4.2773 0.13472 16.402 61.128h4.311z"/>
      <path id="path4472" style="fill:url(#linearGradient6492);fill-rule:evenodd" d="m39.472 34.048-31.706 54.916-37.202-37.202 42.541-42.541 26.367 24.827z"/>
      <path id="path4474" style="opacity:.4;fill:#fff;fill-rule:evenodd" d="m7.7642 88.981 31.698-54.941-1.392-1.193-31.674 54.917 1.3682 1.217z"/>
      <path id="path4476" style="opacity:.6;fill:url(#linearGradient6494);fill-rule:evenodd" d="m10.813 92.029 31.697-54.941-3.119-2.929-31.627 54.822 3.049 3.048z"/>
      <path id="path4484" style="fill:url(#linearGradient6496);fill-rule:evenodd" d="m-11.375-4.8125v52.594l61.25-16.406-1.0312-34.094-0.5625-2.0938h-59.656z"/>
      <path id="path4486" style="opacity:.4;fill:#fff;fill-rule:evenodd" d="m-11.383 47.805 61.263-16.436-0.48858-1.6843-61.229 16.436 0.4549 1.6843z"/>
      <path id="path4488" style="opacity:.6;fill:url(#linearGradient6498);fill-rule:evenodd" d="m-11.383 52.116 61.263-16.436-0.13472-4.2773-61.128 16.402v4.311z"/>
      <path id="path4496" style="fill:url(#linearGradient6500);fill-rule:evenodd" d="m43.219-30.5-37.188 37.188 53.625 30.969-13.277-49.293h18.094l-21.254-18.864z"/>
      <path id="path4498" style="opacity:.4;fill:#fff;fill-rule:evenodd" d="m6.6532 5.1793-0.6532 1.5082 53.656 30.968-0.503-2.227-52.5-30.25z"/>
      <path id="path4500" style="opacity:.6;fill:url(#linearGradient6502);fill-rule:evenodd" d="m6 6.6875-3.0312 3.0625 54.937 31.688 2.156-2.282-0.406-1.531-53.656-30.938z"/>
      <path id="path4334" style="opacity:.6;fill:url(#linearGradient6504);fill-rule:evenodd" d="m41.635-13.544 17.803 66.482l1.4062-0.03125 1.9688-3.4375-16.865-63.013h-4.3125z"/>
     </g>
    </g>
    <g id="layer6">
     <rect id="rect3277" style="fill:url(#radialGradient6506)" clip-path="url(#clipPath3733)" rx="6" ry="6" height="84" width="84" y="6" x="6"/>
    </g>
    <g id="layer7">
     <path id="path3258" style="opacity:.93585;fill:url(#linearGradient6508)" transform="matrix(0 -1.0367 1.0482 0 -1.5372 99.185)" d="m84.095 47.26a34.724 34.345 0 1 1 -69.448 0 34.724 34.345 0 1 1 69.448 0z"/>
     <path id="path3272" style="opacity:.6;fill:url(#radialGradient6510)" d="m21.924 61.648c0.18965 0.36216 0.37602 0.71379 0.58231 1.0711 8.124 14.071 26.142 18.898 40.213 10.775 14.071-8.124 18.898-26.142 10.775-40.213-0.207-0.357-0.418-0.694-0.637-1.04 7.09 13.857 2.118 31.001-11.513 38.871s-30.964 3.604-39.42-9.464z"/>
     <path id="path3296" style="opacity:.2;fill:url(#linearGradient6512)" transform="matrix(1.3163 0 0 1.3163 -15.136 -9.8356)" d="m75.004 31.098a27.148 16.162 0 1 1 -54.296 0 27.148 16.162 0 1 1 54.296 0z"/>
     <path id="path3277" style="opacity:.4;fill:url(#linearGradient6512)" transform="matrix(.74884 0 0 .74884 12.02 5.5377)" d="m75.004 31.098a27.148 16.162 0 1 1 -54.296 0 27.148 16.162 0 1 1 54.296 0z"/>
     <path id="path3300" style="opacity:.2;fill:url(#linearGradient6516)" transform="matrix(.56134 0 0 .56134 20.993 51.27)" d="m75.004 31.098a27.148 16.162 0 1 1 -54.296 0 27.148 16.162 0 1 1 54.296 0z"/>
     <path id="path3312" style="opacity:.4;fill-opacity:.37607;stroke:#e67cff;stroke-linecap:square;stroke-width:1.125;fill:#e064ff" transform="matrix(.88889 0 0 .88889 29.591 5.9683)" d="m40.357 62.875a4.0179 4.0179 0 1 1 -8.0357 0 4.0179 4.0179 0 1 1 8.0357 0z"/>
     <path id="path3322" style="opacity:.3;fill-opacity:.37607;stroke:#e67cff;stroke-linecap:square;stroke-width:2.0455;fill:#e064ff" transform="matrix(.48889 0 0 .48889 37.698 25.261)" d="m40.357 62.875a4.0179 4.0179 0 1 1 -8.0357 0 4.0179 4.0179 0 1 1 8.0357 0z"/>
     <path id="path3324" style="opacity:.4;fill-opacity:.5;stroke:#8de951;stroke-linecap:square;stroke-width:1.3235;fill:#b1e88b" transform="matrix(.75556 0 0 .75556 32.115 -19.041)" d="m40.357 62.875a4.0179 4.0179 0 1 1 -8.0357 0 4.0179 4.0179 0 1 1 8.0357 0z"/>
     <path id="path3416" style="fill:url(#radialGradient6518)" d="m18.399 39.385c-0.599 2.364-0.925 4.836-0.915 7.386l11.454-0.04735c-0.0045-1.5482 0.148-3.1323 0.56171-4.6998 0.25368-0.96115 0.56142-1.875 0.95317-2.7542l-10.361-4.7061c-0.69391 1.544-1.2693 3.1512-1.6927 4.8214zm3.9989-9.0284 9.4912 6.2865c0.95436-1.4415 2.1016-2.7295 3.4003-3.8213 0.64932-0.54588 1.3261-1.0476 2.0434-1.4968 0.71727-0.44925 1.4784-0.83687 2.2515-1.1834l-0.02224-0.03819c0.98481-0.4382 2.0055-0.77743 3.0531-1.0364l-0.008 0.03022c0.35493-0.0892 0.70388-0.16765 1.0643-0.23622 1.0812-0.20572 2.1947-0.31719 3.3166-0.32048l-0.047-11.454c-1.6794 0.0063-3.3275 0.16512-4.9327 0.44337l-0.02224-0.03819c-0.23335 0.04091-0.45215 0.09616-0.68405 0.14266-0.60916 0.12214-1.1965 0.27137-1.7945 0.43134-1.6785 0.44898-3.3197 1.0189-4.8891 1.7477-0.91764 0.42682-1.8081 0.91193-2.6716 1.428-0.11344 0.0678-0.23126 0.13088-0.34371 0.20016-0.19431 0.11888-0.3893 0.24051-0.58083 0.36382-0.10546 0.06839-0.20897 0.13844-0.3135 0.20814-0.40769 0.26983-0.7996 0.55871-1.1936 0.8485-0.054 0.03972-0.107 0.07908-0.16074 0.11918-0.1908 0.14336-0.37937 0.28439-0.56656 0.43223-0.34516 0.27087-0.69361 0.54159-1.0265 0.82795-0.1028 0.08889-0.19767 0.18627-0.29923 0.27654-1.9296 1.7153-3.6348 3.6796-5.0639 5.8385z"/>
    </g>
    <path id="rect2476" style="fill:url(#linearGradient6520)" d="m12 6c-3.324 0-6 2.676-6 6v72c0 3.324 2.676 6 6 6h72c3.324 0 6-2.676 6-6v-72c0-3.324-2.676-6-6-6h-72zm36 7c19.32 0 35 15.68 35 35s-15.68 35-35 35-35-15.68-35-35 15.68-35 35-35z"/>
    <path id="path2522" style="stroke:url(#linearGradient6522);stroke-width:2;stroke-linecap:square;fill:none" d="m48 13a35 35 0 0 1 0 70 35 35 0 1 1 0 -70z"/>
   </g>
  </g>
 </g>
</svg>
