<?xml version="1.0" encoding="UTF-8" standalone="no"?>
<!-- Created with Inkscape (http://www.inkscape.org/) -->
<svg id="svg2982" xmlns:rdf="http://www.w3.org/1999/02/22-rdf-syntax-ns#" xmlns="http://www.w3.org/2000/svg" height="96" width="96" version="1.1" xmlns:cc="http://creativecommons.org/ns#" xmlns:xlink="http://www.w3.org/1999/xlink" xmlns:dc="http://purl.org/dc/elements/1.1/">
 <defs id="defs2984">
  <filter id="filter6279" color-interpolation-filters="sRGB">
   <feGaussianBlur id="feGaussianBlur6281" stdDeviation="0.8"/>
  </filter>
  <linearGradient id="linearGradient10902-1" x1="48" gradientUnits="userSpaceOnUse" y1="1052.4" gradientTransform="translate(0 -.0000096172)" x2="48" y2="902.36">
   <stop id="stop3698-9" style="stop-color:#2458a6" offset="0"/>
   <stop id="stop3700" style="stop-color:#598ad4" offset="1"/>
  </linearGradient>
  <linearGradient id="linearGradient3172" y2="13.593" gradientUnits="userSpaceOnUse" y1="49.333" x2="56.037" x1="56.037">
   <stop id="stop3801-3" style="stop-color:#1a1a1a" offset="0"/>
   <stop id="stop3803-2" offset="1"/>
  </linearGradient>
  <radialGradient id="radialGradient3169" gradientUnits="userSpaceOnUse" cy="69.609" cx="49.171" gradientTransform="matrix(.86845 -.21811 .20080 .64785 -7.6801 26.628)" r="10">
   <stop id="stop3786-4" style="stop-color:#828282" offset="0"/>
   <stop id="stop3790-2" style="stop-color:#1a1a1a" offset="1"/>
  </radialGradient>
  <linearGradient id="linearGradient3165" x1="49.659" xlink:href="#linearGradient3769-3" gradientUnits="userSpaceOnUse" y1="55.024" gradientTransform="matrix(.6 -.27148 .29674 .54891 -1.9918 33.113)" x2="50.134" y2="72.839"/>
  <linearGradient id="linearGradient3769-3">
   <stop id="stop3771-7" style="stop-color:#fff" offset="0"/>
   <stop id="stop3773-8" style="stop-color:#fff;stop-opacity:0" offset="1"/>
  </linearGradient>
  <radialGradient id="radialGradient3161" xlink:href="#linearGradient3769-3" gradientUnits="userSpaceOnUse" cy="36" cx="55.5" gradientTransform="matrix(1,0,0,26,1,-900)"/>
  <linearGradient id="linearGradient3158" x1="67" xlink:href="#linearGradient3769-3" gradientUnits="userSpaceOnUse" y1="35" gradientTransform="translate(1)" x2="57" y2="19"/>
  <linearGradient id="linearGradient3129" x1="22.111" xlink:href="#linearGradient4099" gradientUnits="userSpaceOnUse" x2="40" y1="62.984" y2="32"/>
  <linearGradient id="linearGradient4099">
   <stop id="stop4101" style="stop-color:#9ebe1c" offset="0"/>
   <stop id="stop4103" style="stop-color:#dae54d" offset="1"/>
  </linearGradient>
  <linearGradient id="linearGradient3126-2" x1="38" xlink:href="#linearGradient4099" gradientUnits="userSpaceOnUse" x2="70" y1="74" y2="49"/>
  <linearGradient id="linearGradient3114" x1="72" xlink:href="#linearGradient3769-3" gradientUnits="userSpaceOnUse" x2="47.979" y1="47" y2="71.021"/>
  <linearGradient id="linearGradient3261" x1="37" xlink:href="#linearGradient3769-3" gradientUnits="userSpaceOnUse" x2="26" y1="29" y2="57"/>
  <linearGradient id="linearGradient3283-49" y2="138.66" gradientUnits="userSpaceOnUse" x2="48" y1="20.221" x1="48">
   <stop id="stop3739-2" style="stop-color:#fff" offset="0"/>
   <stop id="stop3741-98" style="stop-color:#fff;stop-opacity:0" offset="1"/>
  </linearGradient>
  <clipPath id="clipPath3613-86">
   <rect id="rect3615-8" style="fill:#fff" rx="6" ry="6" height="84" width="84" y="6" x="6"/>
  </clipPath>
  <filter id="filter3794-20" width="1.384" y="-.192" x="-.192" height="1.384" color-interpolation-filters="sRGB">
   <feGaussianBlur id="feGaussianBlur3796-2" stdDeviation="5.28"/>
  </filter>
 </defs>
 <metadata id="metadata2987">
  <rdf:RDF>
   <cc:Work rdf:about="">
    <dc:format>image/svg+xml</dc:format>
    <dc:type rdf:resource="http://purl.org/dc/dcmitype/StillImage"/>
    <dc:title/>
   </cc:Work>
  </rdf:RDF>
 </metadata>
 <g id="layer1" transform="translate(0 -956.36)">
  <g id="g6056" transform="translate(-182.19 -40.406)">
   <rect id="rect9283" style="filter:url(#filter6279)" transform="translate(182.19 40.406)" rx="5" ry="5" height="80" width="80" y="964.36" x="8"/>
   <rect id="rect9285" style="fill:url(#linearGradient10902-1)" transform="translate(182.19 40.406)" rx="5" ry="5" height="80" width="80" y="964.36" x="8"/>
   <g id="g6847">
    <g id="g3178" transform="matrix(.73846 0 0 .73846 194.35 1010.7)">
     <path id="path3261" style="fill:url(#linearGradient3172)" d="m54.156 10v39.438c1.3216 0.82593 2.4028 1.9142 3.125 3.25 0.26664 0.49324 0.56622 1.0127 0.71875 1.5312v-33.031c3.7268 2.6581 12.671 12.968 8.3438 25.125 2.396-6.238 2.614-12.927 1.718-16.532-1.084-4.361-4.745-8.857-8.531-12.906-3.977-4.254-5.375-6.875-5.375-6.875z"/>
     <path id="path3688" style="color:#000000;fill:url(#radialGradient3169)" d="m57.296 51.794a7.6895 10.237 70.973 1 1 -18.592 8.412 7.6895 10.237 70.973 0 1 18.592 -8.412z"/>
     <path id="path3777" style="color:#000000;fill:#1a1a1a" d="m49.188 48c-1.6003 0.07229-3.2706 0.46156-4.875 1.1875-5.1341 2.323-7.6251 7.2737-5.5938 11.031 2.0314 3.7576 7.8346 4.9168 12.969 2.5938 5.1341-2.323 7.6251-7.2737 5.5938-11.031-1.397-2.583-4.574-3.94-8.094-3.781zm0.03125 0.9375c3.1801-0.15006 5.9974 1.0485 7.1875 3.25 1.7311 3.2021-0.44196 7.6341-5.1875 9.7812-4.7455 2.1472-9.8939 1.0459-11.625-2.1562s0.44196-7.6341 5.1875-9.7812c1.483-0.671 2.992-1.0255 4.4375-1.0938z"/>
     <path id="path3765" style="opacity:.8;color:#000000;fill:url(#linearGradient3165)" d="m52.703 51.406a4.963 6.6074 70.973 0 1 -12 5.4296 4.963 6.6074 70.973 1 1 12 -5.4296z"/>
     <path id="path3794" style="opacity:.2;color:#000000;fill:#fff" d="m56.844 54c-0.20231 2.5957-2.2271 5.3547-5.6562 6.9062-4.7034 2.1281-9.8015 0.98569-11.5-2.1562-0.29795-0.55115-0.46132-1.141-0.53125-1.75-0.07518 0.96458 0.07107 1.8988 0.53125 2.75 1.6985 3.1419 6.7966 4.2844 11.5 2.1562 3.878-1.755 5.984-5.043 5.656-7.906z"/>
     <rect id="rect3809" style="opacity:.2;color:#000000;fill:url(#radialGradient3161)" rx="6" ry="6" height="26" width="1" y="23" x="56"/>
     <path id="path3821" style="opacity:.3;fill:url(#linearGradient3158)" d="m56.25 13.406v5.5312s2.3851 0.38512 3.375 1.375c2.07 1.4764 5.2782 4.7882 7.5312 9.4062 0.46361 0.95028 0.86398 1.9755 1.2188 3.0312-0.069-1.022-0.193-1.987-0.375-2.718-0.988-3.974-4.5-8.395-8.25-12.406-1.642-1.757-2.627-3.054-3.5-4.219z"/>
     <path id="path4085" style="color:#000000;fill:url(#linearGradient3129)" d="m48 30c-2.2616 0.0035-4.5145 0.28438-6.7188 0.875-13.87 3.716-22.122 17.974-18.406 31.844l-4.8125 1.3125 11.281 7.3125 6.094-11.969-4.813 1.281c-2.573-9.602 3.116-19.458 12.719-22.031 1.526-0.409 3.09-0.624 4.656-0.625v-8z"/>
     <path id="path3732" style="color:#000000;fill:url(#linearGradient3126-2)" d="m70 46-9 10h5c0 9.9411-8.0589 18-18 18-3.1597 0-6.2637-0.82642-9-2.4062l-4 6.9375c3.952 2.281 8.436 3.468 13 3.468 14.359 0 26-11.641 26-26h5l-9-10z"/>
     <path id="path4115" style="opacity:.6;color:#000000;fill:url(#linearGradient3114)" d="m70 46-9 10h5c0 9.9411-8.0589 18-18 18-3.1597 0-6.2637-0.82642-9-2.4062l-4 6.9375c3.952 2.281 8.436 3.468 13 3.468 14.359 0 26-11.641 26-26h5l-9-10zm0 0.96875 7.5625 8.375h-3.5625a0.64754 0.64754 0 0 0 -0.656 0.656c0 14.009-11.334 25.344-25.344 25.344-4.2328 0-8.3827-1.0785-12.094-3.0938l3.375-5.8438c2.6932 1.4316 5.6629 2.25 8.7188 2.25 10.291 0 18.656-8.3652 18.656-18.656a0.64754 0.64754 0 0 0 -0.656 -0.656h-3.5625l7.5625-8.375z"/>
     <path id="path4142" style="opacity:.6;color:#000000;fill:url(#linearGradient3261)" d="m48 30c-2.2616 0.0035-4.5145 0.28438-6.7188 0.875-13.87 3.716-22.122 17.974-18.406 31.844l-4.8125 1.3125 11.281 7.3125 6.094-11.969-4.813 1.281c-2.573-9.602 3.116-19.458 12.719-22.031 1.526-0.409 3.09-0.624 4.656-0.625v-8zm-0.90625 1.0312v6.1875c-1.339 0.069-2.668 0.183-3.969 0.532-10.072 2.699-16.074 13.053-13.375 23.125a0.90087 0.90087 0 0 0 1.0938 0.65625l2.875-0.75-4.719 9.25-8.75-5.656 2.875-0.781a0.90087 0.90087 0 0 0 0.625 -1.094c-3.59-13.399 4.35-27.159 17.75-30.75 1.8284-0.48992 3.7151-0.65094 5.5938-0.71875z"/>
    </g>
    <g id="layer5" transform="translate(182.19 996.77)">
     <rect id="rect3171" style="opacity:.1;filter:url(#filter3794-20);stroke:#fff;stroke-linecap:round;stroke-width:.5;fill:url(#linearGradient3283-49)" clip-path="url(#clipPath3613-86)" rx="12" ry="12" height="66" width="66" y="15" x="15"/>
    </g>
   </g>
  </g>
 </g>
</svg>
