<?xml version="1.0" encoding="UTF-8" standalone="no"?>
<!-- Created with Inkscape (http://www.inkscape.org/) -->
<svg id="svg2982" xmlns:rdf="http://www.w3.org/1999/02/22-rdf-syntax-ns#" xmlns="http://www.w3.org/2000/svg" height="96" width="96" version="1.1" xmlns:cc="http://creativecommons.org/ns#" xmlns:xlink="http://www.w3.org/1999/xlink" xmlns:dc="http://purl.org/dc/elements/1.1/">
 <defs id="defs2984">
  <filter id="filter6279" color-interpolation-filters="sRGB">
   <feGaussianBlur id="feGaussianBlur6281" stdDeviation="0.8"/>
  </filter>
  <linearGradient id="linearGradient10902-1" x1="48" gradientUnits="userSpaceOnUse" y1="1052.4" gradientTransform="translate(0 -.0000096172)" x2="48" y2="902.36">
   <stop id="stop3702-5" style="stop-color:#e1e1e1" offset="0"/>
   <stop id="stop3704-9" style="stop-color:#f0f0f0" offset="1"/>
  </linearGradient>
  <linearGradient id="linearGradient6012" y2="138.66" gradientUnits="userSpaceOnUse" y1="20.221" x2="48" x1="48">
   <stop id="stop3739-66" style="stop-color:#fff" offset="0"/>
   <stop id="stop3741-29" style="stop-color:#fff;stop-opacity:0" offset="1"/>
  </linearGradient>
  <clipPath id="clipPath3613-7">
   <rect id="rect3615-03" style="fill:#fff" rx="6" ry="6" height="84" width="84" y="6" x="6"/>
  </clipPath>
  <filter id="filter3794-72" height="1.384" width="1.384" y="-.192" x="-.192" color-interpolation-filters="sRGB">
   <feGaussianBlur id="feGaussianBlur3796-35" stdDeviation="5.28"/>
  </filter>
  <linearGradient id="linearGradient3090-8" x1="80" xlink:href="#linearGradient3892" gradientUnits="userSpaceOnUse" y1="40" gradientTransform="matrix(.91841 -.70472 .70472 .91841 -29.91 37.743)" x2="32" y2="64"/>
  <linearGradient id="linearGradient3892">
   <stop id="stop3894" offset="0"/>
   <stop id="stop3896" style="stop-opacity:0" offset="1"/>
  </linearGradient>
  <linearGradient id="linearGradient3120" x1="80" xlink:href="#linearGradient3892" gradientUnits="userSpaceOnUse" x2="32" gradientTransform="matrix(-.91841 .70472 -.70472 -.91841 125.91 58.257)" y1="40" y2="64"/>
 </defs>
 <metadata id="metadata2987">
  <rdf:RDF>
   <cc:Work rdf:about="">
    <dc:format>image/svg+xml</dc:format>
    <dc:type rdf:resource="http://purl.org/dc/dcmitype/StillImage"/>
    <dc:title/>
   </cc:Work>
  </rdf:RDF>
 </metadata>
 <g id="layer1" transform="translate(0 -956.36)">
  <g id="g5958">
   <rect id="rect9283" style="filter:url(#filter6279)" rx="5" ry="5" height="80" width="80" y="964.36" x="8"/>
   <rect id="rect9285" style="fill:url(#linearGradient10902-1)" rx="5" ry="5" height="80" width="80" y="964.36" x="8"/>
   <g id="layer5" transform="translate(0 956.36)">
    <rect id="rect3171" style="opacity:.5;filter:url(#filter3794-72);stroke:#fff;stroke-linecap:round;stroke-width:.5;fill:url(#linearGradient6012)" clip-path="url(#clipPath3613-7)" rx="12" ry="12" height="66" width="66" y="15" x="15"/>
   </g>
   <g id="layer3" transform="matrix(.57521 0 0 .57521 22.394 977.92)">
    <g id="g3678" transform="matrix(1.1302,0,0,1.1302,137.3,-15.095)">
     <path id="path3616" style="fill:#0074bd;fill-rule:evenodd" d="m-86.682 70.021s-2.2303 1.2982 1.5891 1.7362c4.6278 0.52836 6.9927 0.45227 12.091-0.51144 0 0 1.3431 0.84021 3.2156 1.5679-11.433 4.8982-25.875-0.28382-16.896-2.7927z"/>
     <path id="path3618" style="fill:#0074bd;fill-rule:evenodd" d="m-88.08 63.628s-2.5019 1.8524 1.3204 2.2474c4.944 0.5104 8.8468 0.55226 15.604-0.74823 0 0 0.93244 0.94717 2.4009 1.4648-13.821 4.0426-29.214 0.31805-19.326-2.964z"/>
     <path id="path3620" style="fill:#ea2d2e;fill-rule:evenodd" d="m-76.304 52.781c2.8185 3.2444-0.73906 6.1616-0.73906 6.1616s7.1525-3.6917 3.8684-8.3168c-3.0684-4.3112-5.4208-6.4528 7.3147-13.839 0.000129 0-19.992 4.9918-10.444 15.994z"/>
     <path id="path3622" style="fill:#0074bd;fill-rule:evenodd" d="m-61.183 74.75s1.6511 1.3611-1.8185 2.4137c-6.5975 1.9983-27.465 2.6011-33.261 0.07996-2.082-0.90686 1.8242-2.1638 3.0532-2.4293 1.2815-0.27723 2.0132-0.22659 2.0132-0.22659-2.3172-1.6317-14.977 3.2046-6.4297 4.5917 23.308 3.7781 42.488-1.7017 36.442-4.4294z"/>
     <path id="path3624" style="fill:#0074bd;fill-rule:evenodd" d="m-85.609 57.003s-10.613 2.5215-3.7582 3.4379c2.8952 0.38742 8.6634 0.29828 14.04-0.15282 4.393-0.36869 8.8016-1.1572 8.8016-1.1572s-1.5479 0.664-2.6685 1.4288c-10.78 2.8352-31.6 1.5148-25.605-1.3838 5.0675-2.4515 9.1898-2.1729 9.1898-2.1729z"/>
     <path id="path3626" style="fill:#0074bd;fill-rule:evenodd" d="m-66.569 67.644c10.957-5.6922 5.8904-11.163 2.3541-10.426-0.86475 0.18047-1.2527 0.33678-1.2527 0.33678s0.32218-0.50472 0.93567-0.72187c6.9959-2.4584 12.375 7.2531-2.256 11.099-0.00013 0 0.1682-0.15244 0.21896-0.28808z"/>
     <path id="path3628" style="fill:#ea2d2e;fill-rule:evenodd" d="m-73.174 24.859s6.0668 6.0703-5.756 15.402c-9.4811 7.4886-2.1617 11.757-0.0034 16.636-5.5348-4.9933-9.5945-9.3895-6.8715-13.48 3.9987-6.0043 15.078-8.9163 12.631-18.558z"/>
     <path id="path3630" style="fill:#0074bd;fill-rule:evenodd" d="m-84.532 83.074c10.515 0.67227 26.667-0.37411 27.049-5.3501 0 0-0.73479 1.8863-8.6909 3.383-8.9758 1.6898-20.049 1.4931-26.614 0.40912 0 0 1.3449 1.1132 8.2557 1.5579z"/>
    </g>
   </g>
   <g id="g3092" transform="matrix(.74232 0 0 .74232 12.368 968.73)">
    <path id="path3884" style="opacity:.2;color:#000000;fill:url(#linearGradient3090-8)" d="m65.259 17.247 0.19096 17.363 4.592-3.5236c9.3409 12.173 7.0448 29.614-5.1285 38.955-5.8458 4.4857-13.234 6.4624-20.539 5.5006l-1.2087 9.1808c9.7406 1.2824 19.591-1.3533 27.386-7.3342 16.231-12.455 19.293-35.709 6.838-51.94l4.592-3.5236-16.722-4.6784z"/>
    <path id="path3900" style="opacity:.2;color:#000000;fill:url(#linearGradient3120)" d="m30.741 78.753-0.191-17.363-4.592 3.523c-9.341-12.173-7.045-29.614 5.129-38.955 5.846-4.485 13.234-6.462 20.539-5.5l1.2087-9.1808c-9.741-1.2825-19.592 1.353-27.386 7.334-16.231 12.455-19.292 35.709-6.838 51.94l-4.592 3.5236 16.722 4.6784z"/>
   </g>
  </g>
 </g>
</svg>
