<?xml version="1.0" encoding="UTF-8" standalone="no"?>
<!-- Created with Inkscape (http://www.inkscape.org/) -->

<svg
   xmlns:dc="http://purl.org/dc/elements/1.1/"
   xmlns:cc="http://creativecommons.org/ns#"
   xmlns:rdf="http://www.w3.org/1999/02/22-rdf-syntax-ns#"
   xmlns:svg="http://www.w3.org/2000/svg"
   xmlns="http://www.w3.org/2000/svg"
   xmlns:xlink="http://www.w3.org/1999/xlink"
   xmlns:sodipodi="http://sodipodi.sourceforge.net/DTD/sodipodi-0.dtd"
   xmlns:inkscape="http://www.inkscape.org/namespaces/inkscape"
   width="96"
   height="96"
   id="svg2982"
   version="1.1"
   inkscape:version="0.48.1 r9760"
   sodipodi:docname="time-admin.svg">
  <defs
     id="defs2984">
    <filter
       color-interpolation-filters="sRGB"
       inkscape:collect="always"
       id="filter6279">
      <feGaussianBlur
         inkscape:collect="always"
         stdDeviation="0.8"
         id="feGaussianBlur6281" />
    </filter>
    <linearGradient
       inkscape:collect="always"
       xlink:href="#linearGradient3700-89"
       id="linearGradient5734"
       gradientUnits="userSpaceOnUse"
       gradientTransform="translate(0,-7.8515622e-6)"
       x1="48"
       y1="1052.3622"
       x2="48"
       y2="902.36218" />
    <linearGradient
       id="linearGradient3700-89">
      <stop
         id="stop3702-60"
         style="stop-color:#1f1f1f;stop-opacity:1"
         offset="0" />
      <stop
         id="stop3704-70"
         style="stop-color:#2f2f2f;stop-opacity:1"
         offset="1" />
    </linearGradient>
    <radialGradient
       inkscape:collect="always"
       xlink:href="#linearGradient3674-6"
       id="radialGradient5960"
       gradientUnits="userSpaceOnUse"
       gradientTransform="matrix(0,0.96875,-0.96875,0,-21.75,963.86218)"
       cx="48"
       cy="48"
       fx="48"
       fy="48"
       r="32" />
    <linearGradient
       id="linearGradient3674-6">
      <stop
         id="stop3676-2"
         style="stop-color:#ffffff;stop-opacity:1"
         offset="0" />
      <stop
         id="stop3684-8"
         style="stop-color:#ffffff;stop-opacity:1"
         offset="0.30000001" />
      <stop
         id="stop3925"
         style="stop-color:#f0f0f0;stop-opacity:1"
         offset="0.89999998" />
      <stop
         id="stop3678-4"
         style="stop-color:#d2d2d2;stop-opacity:1"
         offset="1" />
    </linearGradient>
    <filter
       color-interpolation-filters="sRGB"
       id="filter3944-7">
      <feGaussianBlur
         id="feGaussianBlur3946-2"
         stdDeviation="0.4359375" />
    </filter>
    <radialGradient
       inkscape:collect="always"
       xlink:href="#linearGradient3893"
       id="radialGradient5962"
       gradientUnits="userSpaceOnUse"
       gradientTransform="matrix(0.66666672,0,0,0.66666672,-100.25,978.36218)"
       cx="48.000896"
       cy="46.058418"
       fx="48.000896"
       fy="46.058418"
       r="3" />
    <linearGradient
       id="linearGradient3893">
      <stop
         id="stop3895-4"
         style="stop-color:#ffffff;stop-opacity:1"
         offset="0" />
      <stop
         id="stop3897-0"
         style="stop-color:#a2a2a2;stop-opacity:1"
         offset="1" />
    </linearGradient>
    <linearGradient
       inkscape:collect="always"
       xlink:href="#linearGradient3983"
       id="linearGradient5964"
       gradientUnits="userSpaceOnUse"
       gradientTransform="matrix(0,-1.2,1.2,0,-140.25,1080.9622)"
       x1="43"
       y1="60"
       x2="53"
       y2="60" />
    <linearGradient
       id="linearGradient3983">
      <stop
         id="stop3985"
         style="stop-color:#ffffff;stop-opacity:1"
         offset="0" />
      <stop
         id="stop3989"
         style="stop-color:#868686;stop-opacity:1"
         offset="1" />
    </linearGradient>
    <radialGradient
       inkscape:collect="always"
       xlink:href="#linearGradient3674-6"
       id="radialGradient5966"
       gradientUnits="userSpaceOnUse"
       gradientTransform="matrix(0,-1,1,0,-128.25,1071.3622)"
       cx="48"
       cy="60"
       fx="48"
       fy="60"
       r="5" />
    <linearGradient
       id="linearGradient5754">
      <stop
         id="stop5756"
         style="stop-color:#ffffff;stop-opacity:1"
         offset="0" />
      <stop
         id="stop5758"
         style="stop-color:#ffffff;stop-opacity:1"
         offset="0.30000001" />
      <stop
         id="stop5760"
         style="stop-color:#f0f0f0;stop-opacity:1"
         offset="0.89999998" />
      <stop
         id="stop5762"
         style="stop-color:#d2d2d2;stop-opacity:1"
         offset="1" />
    </linearGradient>
  </defs>
  <sodipodi:namedview
     id="base"
     pagecolor="#ffffff"
     bordercolor="#666666"
     borderopacity="1.0"
     inkscape:pageopacity="0.0"
     inkscape:pageshadow="2"
     inkscape:zoom="3.959798"
     inkscape:cx="36.39115"
     inkscape:cy="42.877139"
     inkscape:document-units="px"
     inkscape:current-layer="layer1"
     showgrid="false"
     inkscape:window-width="1280"
     inkscape:window-height="725"
     inkscape:window-x="0"
     inkscape:window-y="25"
     inkscape:window-maximized="1" />
  <metadata
     id="metadata2987">
    <rdf:RDF>
      <cc:Work
         rdf:about="">
        <dc:format>image/svg+xml</dc:format>
        <dc:type
           rdf:resource="http://purl.org/dc/dcmitype/StillImage" />
        <dc:title></dc:title>
      </cc:Work>
    </rdf:RDF>
  </metadata>
  <g
     inkscape:label="Layer 1"
     inkscape:groupmode="layer"
     id="layer1"
     transform="translate(0,-956.36218)">
    <g
       id="g6753">
      <rect
         transform="translate(0,-7.8515622e-6)"
         y="964.36218"
         x="8"
         height="80"
         width="80"
         id="rect9283"
         style="fill:#000000;fill-opacity:1;stroke:none;filter:url(#filter6279)"
         rx="5"
         ry="5" />
      <rect
         ry="5"
         rx="5"
         style="fill:url(#linearGradient5734);fill-opacity:1;stroke:none"
         id="rect9285"
         width="80"
         height="80"
         x="8"
         y="964.36218" />
      <g
         transform="matrix(0.85483843,0,0,0.85483843,106.34272,140.55475)"
         id="g5927">
        <path
           inkscape:connector-curvature="0"
           style="color:#000000;fill:url(#radialGradient5960);fill-opacity:1;fill-rule:nonzero;stroke:none;stroke-width:1;marker:none;visibility:visible;display:inline;overflow:visible;enable-background:accumulate"
           id="path3647-1"
           d="m -68.25,1041.3622 a 31.00001,31.00001 0 1 1 0,-62.00002 31.00001,31.00001 0 0 1 0,62.00002 z" />
        <path
           style="opacity:0.3;fill:#000000;stroke:none;filter:url(#filter3944-7)"
           id="path3937-0"
           inkscape:connector-curvature="0"
           d="m -79.3125,991.20593 -0.875,0.5 9.6875,16.78127 -12.96875,-6.7813 -0.75,1.3125 13.875,8.8125 -2.40625,3.5 0.53125,0.5313 4.1875,-2.8438 4.78125,1.6563 0.375,-0.625 -3.21875,-2.7813 15.34375,-16.34372 -1.0625,-1.0625 -16.6875,15.65622 -0.3125,-0.1562 -10.5,-18.15627 z" />
        <path
           style="fill:#000000;stroke:none"
           id="path3887-3"
           inkscape:connector-curvature="0"
           d="m -51.8125,992.86218 -15.59375,14.65622 c -0.273564,-0.082 -0.543445,-0.1562 -0.84375,-0.1562 -1.656854,0 -3,1.3431 -3,3 0,0.4735 0.117156,0.9143 0.3125,1.3125 l -1.8125,2.6562 0.53125,0.5313 2.65625,-1.8125 c 0.398212,0.1953 0.839029,0.3125 1.3125,0.3125 1.656854,0 3,-1.3432 3,-3 0,-0.3003 -0.07413,-0.5702 -0.15625,-0.8438 l 14.65625,-15.59372 -1.0625,-1.0625 z" />
        <g
           style="font-size:8.28590679px;font-style:normal;font-variant:normal;font-weight:normal;font-stretch:normal;text-align:center;line-height:125%;writing-mode:lr-tb;text-anchor:middle;fill:#000000;fill-opacity:1;stroke:none;font-family:Droid Sans;-inkscape-font-specification:Droid Sans"
           id="text3691-4"
           transform="translate(-116.25,964.36218)">
          <path
             id="path3871-0"
             inkscape:connector-curvature="0"
             d="m 46.195551,24 -0.71207,0 0,-3.693864 c -3e-6,-0.115977 -3e-6,-0.24005 0,-0.372218 0.0027,-0.132161 0.0054,-0.262976 0.0081,-0.392448 0.0054,-0.13216 0.0094,-0.257581 0.01214,-0.376264 0.0054,-0.121371 0.0094,-0.227912 0.01214,-0.319623 -0.04586,0.04856 -0.08631,0.09036 -0.121375,0.125422 -0.03507,0.03507 -0.07148,0.06878 -0.109238,0.101146 -0.03507,0.03237 -0.07283,0.06744 -0.113284,0.105192 -0.04046,0.03507 -0.08901,0.07688 -0.145651,0.125422 l -0.598786,0.489548 -0.388402,-0.49764 1.549562,-1.20971 0.606878,0 0,5.915037" />
          <path
             id="path3873-3"
             inkscape:connector-curvature="0"
             d="m 51.960891,24 -3.689818,0 0,-0.631153 1.416049,-1.54147 c 0.20229,-0.218474 0.383005,-0.418069 0.542144,-0.598786 0.159134,-0.180712 0.293996,-0.357381 0.404585,-0.530007 0.113281,-0.17262 0.199593,-0.345242 0.258935,-0.517869 0.05934,-0.175316 0.08901,-0.365471 0.08901,-0.570465 -3e-6,-0.159133 -0.02293,-0.299389 -0.06878,-0.420769 -0.04586,-0.121371 -0.111938,-0.223866 -0.198247,-0.307485 -0.08362,-0.08631 -0.183414,-0.15104 -0.299393,-0.194201 -0.115983,-0.04315 -0.24545,-0.06473 -0.388402,-0.06473 -0.256239,6e-6 -0.488201,0.0526 -0.695886,0.157789 -0.204991,0.1025 -0.400541,0.234664 -0.586649,0.396493 l -0.412677,-0.481456 c 0.107889,-0.09709 0.22387,-0.187453 0.347943,-0.271072 0.124072,-0.08631 0.257585,-0.16048 0.40054,-0.222522 0.142952,-0.06203 0.293997,-0.110581 0.453135,-0.145651 0.159135,-0.03776 0.326364,-0.05664 0.501686,-0.05664 0.258932,6e-6 0.492243,0.03642 0.699933,0.109238 0.210381,0.07283 0.388398,0.178023 0.534052,0.315577 0.145647,0.134867 0.257583,0.300747 0.335806,0.49764 0.08091,0.194205 0.121372,0.41403 0.121376,0.659474 -4e-6,0.229269 -0.03642,0.447745 -0.109238,0.655428 -0.07013,0.20769 -0.168581,0.41268 -0.295348,0.614969 -0.124076,0.199599 -0.273772,0.400543 -0.449089,0.602833 -0.172626,0.202294 -0.360084,0.412679 -0.562374,0.631153 l -1.136885,1.20971 0,0.03237 2.787593,0 0,0.671612" />
        </g>
        <g
           style="font-size:8.28590679px;font-style:normal;font-variant:normal;font-weight:normal;font-stretch:normal;text-align:center;line-height:125%;writing-mode:lr-tb;text-anchor:middle;fill:#000000;fill-opacity:1;stroke:none;font-family:Droid Sans;-inkscape-font-specification:Droid Sans"
           id="text3789-9"
           transform="translate(-116.25,960.36218)">
          <path
             id="path3868-1"
             inkscape:connector-curvature="0"
             d="m 46.057992,75.471342 c -10e-7,-0.283207 0.01349,-0.565068 0.04046,-0.845583 0.02967,-0.280509 0.07957,-0.548884 0.149697,-0.805125 0.07282,-0.25893 0.171273,-0.498984 0.295347,-0.720162 0.124072,-0.221168 0.28186,-0.412672 0.473365,-0.574511 0.191502,-0.164526 0.420767,-0.292644 0.687795,-0.384356 0.267024,-0.0944 0.579903,-0.141599 0.938638,-0.141605 0.05124,6e-6 0.107886,0.0014 0.169926,0.004 0.06203,0.0027 0.124069,0.0081 0.186109,0.01618 0.06473,0.0054 0.125418,0.01349 0.182063,0.02428 0.05934,0.0081 0.111932,0.01889 0.157788,0.03237 l 0,0.627108 c -0.09441,-0.03236 -0.200947,-0.05664 -0.319622,-0.07283 -0.118682,-0.01618 -0.236011,-0.02427 -0.351989,-0.02428 -0.242754,5e-6 -0.457184,0.02968 -0.643291,0.08901 -0.183414,0.05665 -0.342551,0.137564 -0.47741,0.242751 -0.134864,0.105197 -0.248148,0.230618 -0.339852,0.376264 -0.08901,0.145656 -0.161836,0.30749 -0.218476,0.485503 -0.05664,0.175324 -0.09845,0.362782 -0.125422,0.562373 -0.02697,0.199599 -0.04451,0.407286 -0.0526,0.623062 l 0.04855,0 c 0.05394,-0.0971 0.118677,-0.187455 0.194201,-0.271073 0.07822,-0.08631 0.168575,-0.159133 0.271072,-0.218476 0.102493,-0.06203 0.217125,-0.110583 0.343897,-0.14565 0.129465,-0.03506 0.273767,-0.05259 0.432906,-0.0526 0.256235,3e-6 0.488197,0.04046 0.695887,0.121375 0.207684,0.07822 0.384353,0.194204 0.530007,0.347944 0.145647,0.153745 0.257582,0.342551 0.335806,0.566419 0.08091,0.221176 0.121371,0.474716 0.121375,0.76062 -4e-6,0.307487 -0.04181,0.583953 -0.125421,0.8294 -0.08362,0.245449 -0.203645,0.454485 -0.360081,0.627107 -0.156443,0.169926 -0.34525,0.300742 -0.56642,0.392448 -0.221176,0.09171 -0.469321,0.137559 -0.744436,0.137559 -0.269726,0 -0.523266,-0.0526 -0.760621,-0.157788 -0.234661,-0.105192 -0.438302,-0.265678 -0.610924,-0.481457 -0.172624,-0.215778 -0.308834,-0.48685 -0.408631,-0.813216 -0.0998,-0.326364 -0.149697,-0.712068 -0.149696,-1.157114 m 1.92178,1.99056 c 0.161831,0 0.308831,-0.02697 0.440998,-0.08092 0.134859,-0.05664 0.25084,-0.140256 0.347943,-0.250843 0.0971,-0.113283 0.171271,-0.254888 0.222522,-0.424815 0.05394,-0.172622 0.08091,-0.376263 0.08092,-0.610924 -3e-6,-0.188804 -0.02293,-0.357381 -0.06878,-0.505731 -0.04316,-0.151043 -0.109242,-0.279162 -0.198247,-0.384356 -0.08901,-0.10519 -0.200947,-0.186107 -0.335806,-0.242752 -0.132167,-0.05664 -0.287258,-0.08496 -0.465273,-0.08496 -0.180717,3e-6 -0.346597,0.03237 -0.49764,0.0971 -0.14835,0.06204 -0.27512,0.144305 -0.38031,0.246797 -0.105194,0.0998 -0.187459,0.214433 -0.246797,0.343898 -0.05664,0.129469 -0.08496,0.258936 -0.08496,0.388401 -10e-7,0.180717 0.02427,0.361432 0.07283,0.542145 0.05125,0.178019 0.12542,0.338504 0.222522,0.481456 0.0998,0.142955 0.223869,0.260284 0.372219,0.351989 0.148346,0.08901 0.320968,0.133514 0.517869,0.133514" />
        </g>
        <g
           style="font-size:8.28590679px;font-style:normal;font-variant:normal;font-weight:normal;font-stretch:normal;text-align:center;line-height:125%;writing-mode:lr-tb;text-anchor:middle;fill:#000000;fill-opacity:1;stroke:none;font-family:Droid Sans;-inkscape-font-specification:Droid Sans"
           id="text3793-9"
           transform="translate(-118.25,962.36218)">
          <path
             id="path3865-6"
             inkscape:connector-curvature="0"
             d="m 76.488871,46.468645 c -4e-6,0.196902 -0.03102,0.376268 -0.09305,0.538098 -0.06204,0.161838 -0.149701,0.302094 -0.262981,0.420769 -0.11059,0.118682 -0.244103,0.217131 -0.400539,0.295347 -0.156443,0.07553 -0.330414,0.129471 -0.521915,0.161834 l 0,0.02428 c 0.477407,0.05934 0.840185,0.211736 1.088334,0.457182 0.248142,0.242753 0.372214,0.559678 0.372219,0.950775 -5e-6,0.258936 -0.04451,0.496293 -0.133514,0.71207 -0.08631,0.21578 -0.218479,0.401889 -0.396493,0.558328 -0.178021,0.15644 -0.40324,0.277815 -0.675658,0.364127 -0.272423,0.08631 -0.594742,0.129467 -0.966958,0.129467 -0.294001,0 -0.571816,-0.02293 -0.833446,-0.06878 -0.258936,-0.04585 -0.503035,-0.129468 -0.7323,-0.250843 l 0,-0.687795 c 0.234659,0.124073 0.488199,0.219825 0.760621,0.287255 0.275116,0.06743 0.538097,0.101147 0.788941,0.101147 0.248144,0 0.462574,-0.02697 0.643291,-0.08092 0.180712,-0.05395 0.32906,-0.130816 0.445044,-0.230614 0.118675,-0.0998 0.204986,-0.222521 0.258934,-0.368173 0.05664,-0.145649 0.08496,-0.308832 0.08496,-0.489548 -3e-6,-0.18341 -0.03642,-0.33985 -0.109238,-0.469319 -0.07013,-0.132162 -0.171277,-0.240051 -0.303439,-0.323668 -0.132167,-0.08631 -0.294001,-0.149694 -0.485502,-0.190155 -0.188809,-0.04046 -0.403239,-0.06068 -0.643291,-0.06069 l -0.538098,0 0,-0.610924 0.538098,0 c 0.218474,4e-6 0.412675,-0.02697 0.582603,-0.08092 0.169923,-0.05394 0.311528,-0.130812 0.424814,-0.230613 0.115979,-0.09979 0.203639,-0.218473 0.262981,-0.356036 0.05934,-0.137554 0.08901,-0.288599 0.08901,-0.453135 -3e-6,-0.140252 -0.02428,-0.265673 -0.07283,-0.376264 -0.04855,-0.110582 -0.117332,-0.203637 -0.206338,-0.279164 -0.08901,-0.07822 -0.195552,-0.137554 -0.319623,-0.178018 -0.124075,-0.04045 -0.261634,-0.06068 -0.412677,-0.06069 -0.288606,6e-6 -0.543494,0.04586 -0.764666,0.137559 -0.218477,0.08901 -0.427512,0.206344 -0.627107,0.35199 L 72.95684,45.606872 c 0.102494,-0.08361 0.215778,-0.161829 0.339851,-0.234659 0.126769,-0.07282 0.264328,-0.136205 0.412677,-0.190156 0.148347,-0.05664 0.306135,-0.10114 0.473365,-0.133513 0.169924,-0.03236 0.34929,-0.04854 0.538098,-0.04855 0.291299,6e-6 0.546188,0.03642 0.764667,0.109238 0.22117,0.07283 0.40593,0.175326 0.554281,0.307485 0.148345,0.129473 0.26028,0.284564 0.335806,0.465273 0.07552,0.178023 0.11328,0.373572 0.113284,0.586649" />
        </g>
        <g
           style="font-size:8.28590679px;font-style:normal;font-variant:normal;font-weight:normal;font-stretch:normal;text-align:center;line-height:125%;writing-mode:lr-tb;text-anchor:middle;fill:#000000;fill-opacity:1;stroke:none;font-family:Droid Sans;-inkscape-font-specification:Droid Sans"
           id="text3797-9"
           transform="translate(-114.25,962.36218)">
          <path
             id="path3862-3"
             inkscape:connector-curvature="0"
             d="m 22.759947,47.609575 c -4e-6,0.283213 -0.01484,0.566422 -0.0445,0.849629 -0.02698,0.280515 -0.07688,0.54889 -0.149697,0.805125 -0.07013,0.256239 -0.167232,0.496293 -0.291301,0.720162 -0.124077,0.221174 -0.281865,0.412678 -0.473365,0.574511 -0.191507,0.161834 -0.420772,0.289953 -0.687795,0.384356 -0.267029,0.09171 -0.579908,0.137559 -0.938638,0.137559 -0.05125,0 -0.107891,-0.0013 -0.169926,-0.004 -0.06204,-0.0027 -0.124074,-0.0081 -0.186109,-0.01618 -0.06204,-0.0054 -0.122725,-0.01214 -0.182063,-0.02023 -0.05934,-0.0081 -0.111937,-0.01888 -0.157789,-0.03237 l 0,-0.631153 c 0.0944,0.03506 0.200943,0.06069 0.319623,0.07687 0.118677,0.01618 0.236006,0.02428 0.351989,0.02428 0.364125,0 0.663518,-0.06338 0.898179,-0.190155 0.234657,-0.126769 0.420766,-0.298044 0.558328,-0.513823 0.137556,-0.218475 0.234656,-0.472015 0.291301,-0.760621 0.05934,-0.288602 0.09575,-0.593389 0.109238,-0.914363 l -0.0526,0 c -0.05395,0.0971 -0.118681,0.187461 -0.194201,0.271073 -0.07552,0.08362 -0.164534,0.156442 -0.267026,0.218476 -0.102498,0.06204 -0.218479,0.110589 -0.347943,0.14565 -0.12947,0.03507 -0.273772,0.0526 -0.432906,0.0526 -0.25624,3e-6 -0.488202,-0.03911 -0.695887,-0.117329 C 19.809171,48.588674 19.632502,48.471344 19.486852,48.3176 19.341201,48.16386 19.227917,47.976402 19.147,47.755226 19.06878,47.531359 19.02967,47.27647 19.029671,46.99056 c -1e-6,-0.307481 0.04181,-0.583947 0.125421,-0.8294 0.08631,-0.248141 0.206338,-0.457176 0.360081,-0.627107 0.156439,-0.172618 0.345245,-0.304782 0.566419,-0.396494 0.223869,-0.0917 0.473363,-0.137553 0.748483,-0.137559 0.272419,6e-6 0.525958,0.0526 0.760621,0.157788 0.234656,0.105198 0.438297,0.265684 0.610923,0.481457 0.17262,0.215784 0.30883,0.488204 0.408632,0.817262 0.09979,0.32637 0.149692,0.710725 0.149696,1.153068 m -1.92178,-1.986514 c -0.161836,6e-6 -0.310184,0.02698 -0.445044,0.08092 -0.132166,0.05395 -0.246798,0.137564 -0.343897,0.250842 -0.0971,0.113289 -0.172625,0.256243 -0.226568,0.428861 -0.05125,0.16993 -0.07687,0.372223 -0.07687,0.606878 -1e-6,0.18881 0.02158,0.358736 0.06473,0.509777 0.04585,0.148352 0.113283,0.275121 0.202293,0.38031 0.08901,0.105196 0.199594,0.186113 0.33176,0.242752 0.13486,0.05664 0.291299,0.08497 0.469319,0.08496 0.183409,3e-6 0.349289,-0.03101 0.49764,-0.09305 0.148345,-0.06473 0.275115,-0.146996 0.38031,-0.246797 0.105189,-0.102492 0.186106,-0.218473 0.242751,-0.347944 0.05934,-0.129463 0.08901,-0.25893 0.08901,-0.388401 -4e-6,-0.180711 -0.02563,-0.360077 -0.07687,-0.538099 -0.04855,-0.18071 -0.122728,-0.342544 -0.222522,-0.485502 -0.0971,-0.145646 -0.219828,-0.262975 -0.368173,-0.351989 -0.14835,-0.089 -0.320973,-0.133508 -0.517869,-0.133514" />
        </g>
        <path
           style="fill:#000000;stroke:none"
           id="path3877-3"
           inkscape:connector-curvature="0"
           d="m -69,1011.6612 -15.213457,-9.6495 0.75,-1.299 15.963457,8.3504 4.633652,3.9743 -0.375,0.6495 L -69,1011.6612 z" />
        <path
           inkscape:connector-curvature="0"
           style="color:#000000;fill:#000000;fill-opacity:1;fill-rule:nonzero;stroke:none;stroke-width:1;marker:none;visibility:visible;display:inline;overflow:visible;enable-background:accumulate"
           id="path3875-8"
           d="m -66.25,1010.3622 a 2,2 0 0 1 -4,0 2,2 0 1 1 4,0 z" />
        <path
           inkscape:connector-curvature="0"
           style="color:#000000;fill:#ff0000;fill-opacity:1;fill-rule:nonzero;stroke:none;stroke-width:1;marker:none;visibility:visible;display:inline;overflow:visible;enable-background:accumulate"
           id="path3889-0"
           d="m -66.75,1010.3622 a 1.5,1.5 0 0 1 -3,0 1.5,1.5 0 1 1 3,0 z" />
        <path
           style="color:#000000;fill:#ff0000;fill-opacity:1;fill-rule:nonzero;stroke:none;stroke-width:1;marker:none;visibility:visible;display:inline;overflow:visible;enable-background:accumulate"
           id="rect3905-5"
           inkscape:connector-curvature="0"
           d="m -79.3125,990.20593 -0.875,0.5 10.53125,18.24997 c -0.361929,0.362 -0.59375,0.854 -0.59375,1.4063 0,1.1045 0.895431,2 2,2 1.104569,0 2,-0.8955 2,-2 0,-1.1046 -0.895431,-2 -2,-2 -0.182944,0 -0.362898,0.016 -0.53125,0.062 L -79.3125,990.20593 z" />
        <path
           inkscape:connector-curvature="0"
           style="color:#000000;fill:url(#radialGradient5962);fill-opacity:1;fill-rule:nonzero;stroke:none;stroke-width:1;marker:none;visibility:visible;display:inline;overflow:visible;enable-background:accumulate"
           id="path3891-6"
           d="m -66.25,1010.3622 a 2.0000005,2.0000005 0 0 1 -4.000001,0 2.0000005,2.0000005 0 1 1 4.000001,0 z" />
        <path
           style="opacity:0.3;color:#000000;fill:#ffffff;fill-opacity:1;fill-rule:nonzero;stroke:none;stroke-width:1;marker:none;visibility:visible;display:inline;overflow:visible;enable-background:accumulate"
           id="path3908"
           inkscape:connector-curvature="0"
           d="m -37.25,1010.3622 c 0,-17.12085 -13.879173,-31.00002 -31,-31.00002 -17.120827,0 -31,13.87917 -31,31.00002 0,17.1208 13.879173,31 31,31 17.120827,0 31,-13.8792 31,-31 z m -1,0 c 0,16.5685 -13.431458,30 -30,30 -16.568542,0 -30,-13.4315 -30,-30 0,-16.56856 13.431458,-30.00002 30,-30.00002 16.568542,0 30,13.43146 30,30.00002 z" />
        <path
           inkscape:connector-curvature="0"
           style="opacity:0.5;color:#000000;fill:#000000;fill-opacity:1;fill-rule:nonzero;stroke:none;stroke-width:1.5;marker:none;visibility:visible;display:inline;overflow:visible;enable-background:accumulate"
           id="path3927"
           d="m -54.883974,989.21154 a 1.0000001,1.0000001 0 1 1 -1.732051,-1 1.0000001,1.0000001 0 0 1 1.732051,1 z" />
        <path
           inkscape:connector-curvature="0"
           style="opacity:0.5;color:#000000;fill:#000000;fill-opacity:1;fill-rule:nonzero;stroke:none;stroke-width:1.5;marker:none;visibility:visible;display:inline;overflow:visible;enable-background:accumulate"
           id="path3935"
           d="m -46.099365,998.7282 a 1.0000001,1.0000001 0 1 1 -1,-1.73205 1.0000001,1.0000001 0 0 1 1,1.73205 z" />
        <path
           inkscape:connector-curvature="0"
           style="opacity:0.5;color:#000000;fill:#000000;fill-opacity:1;fill-rule:nonzero;stroke:none;stroke-width:1.5;marker:none;visibility:visible;display:inline;overflow:visible;enable-background:accumulate"
           id="path3938"
           d="m -47.09937,1023.7282 a 1.0000001,1.0000001 0 0 1 1,-1.732 1.0000001,1.0000001 0 1 1 -1,1.732 z" />
        <path
           inkscape:connector-curvature="0"
           style="opacity:0.5;color:#000000;fill:#000000;fill-opacity:1;fill-rule:nonzero;stroke:none;stroke-width:1.5;marker:none;visibility:visible;display:inline;overflow:visible;enable-background:accumulate"
           id="path3940"
           d="m -56.616025,1032.5128 a 1.0000001,1.0000001 0 1 1 1.732051,-1 1.0000001,1.0000001 0 0 1 -1.732051,1 z" />
        <path
           inkscape:connector-curvature="0"
           style="opacity:0.5;color:#000000;fill:#000000;fill-opacity:1;fill-rule:nonzero;stroke:none;stroke-width:1.5;marker:none;visibility:visible;display:inline;overflow:visible;enable-background:accumulate"
           id="path3942"
           d="m -81.616025,1031.5128 a 1.0000001,1.0000001 0 0 1 1.732051,1 1.0000001,1.0000001 0 1 1 -1.732051,-1 z" />
        <path
           inkscape:connector-curvature="0"
           style="opacity:0.5;color:#000000;fill:#000000;fill-opacity:1;fill-rule:nonzero;stroke:none;stroke-width:1.5;marker:none;visibility:visible;display:inline;overflow:visible;enable-background:accumulate"
           id="path3944"
           d="m -90.400634,1021.9962 a 1.0000001,1.0000001 0 1 1 1,1.732 1.0000001,1.0000001 0 0 1 -1,-1.732 z" />
        <path
           inkscape:connector-curvature="0"
           style="opacity:0.5;color:#000000;fill:#000000;fill-opacity:1;fill-rule:nonzero;stroke:none;stroke-width:1.5;marker:none;visibility:visible;display:inline;overflow:visible;enable-background:accumulate"
           id="path3946"
           d="m -89.40063,996.99615 a 1.0000001,1.0000001 0 0 1 -1,1.73205 1.0000001,1.0000001 0 1 1 1,-1.73205 z" />
        <path
           inkscape:connector-curvature="0"
           style="opacity:0.5;color:#000000;fill:#000000;fill-opacity:1;fill-rule:nonzero;stroke:none;stroke-width:1.5;marker:none;visibility:visible;display:inline;overflow:visible;enable-background:accumulate"
           id="path3948"
           d="m -79.883975,988.21154 a 1.0000001,1.0000001 0 1 1 -1.732051,1 1.0000001,1.0000001 0 0 1 1.732051,-1 z" />
        <path
           inkscape:connector-curvature="0"
           style="opacity:0.6;color:#000000;fill:url(#linearGradient5964);fill-opacity:1;fill-rule:nonzero;stroke:none;stroke-width:1.5;marker:none;visibility:visible;display:inline;overflow:visible;enable-background:accumulate"
           id="path3965"
           d="m -68.25,1017.3622 a 6,6 0 0 1 0,12 6,6 0 1 1 0,-12 z" />
        <path
           inkscape:connector-curvature="0"
           style="color:#000000;fill:url(#radialGradient5966);fill-opacity:1;fill-rule:nonzero;stroke:none;stroke-width:1.5;marker:none;visibility:visible;display:inline;overflow:visible;enable-background:accumulate"
           id="path3975"
           d="m -68.25,1018.3622 a 5,5 0 0 1 0,10 5,5 0 1 1 0,-10 z" />
        <g
           style="opacity:0.4"
           id="g4008"
           transform="matrix(0.73723053,0,0,0.73723053,-165.20712,1006.0942)">
          <path
             style="font-size:8.28590679px;font-style:normal;font-variant:normal;font-weight:normal;font-stretch:normal;text-align:center;line-height:125%;writing-mode:lr-tb;text-anchor:middle;fill:#000000;fill-opacity:1;stroke:none;font-family:Droid Sans;-inkscape-font-specification:Droid Sans"
             id="path3999"
             inkscape:connector-curvature="0"
             d="m 130.96089,26 -3.68982,0 0,-0.631153 1.41605,-1.54147 c 0.20229,-0.218474 0.38301,-0.418069 0.54215,-0.598786 0.15913,-0.180712 0.29399,-0.357381 0.40458,-0.530007 0.11328,-0.17262 0.19959,-0.345242 0.25894,-0.517869 0.0593,-0.175316 0.089,-0.365471 0.089,-0.570465 -1e-5,-0.159133 -0.0229,-0.299389 -0.0688,-0.420769 -0.0459,-0.121371 -0.11194,-0.223866 -0.19825,-0.307485 -0.0836,-0.08631 -0.18342,-0.15104 -0.29939,-0.194201 -0.11599,-0.04315 -0.24545,-0.06473 -0.38841,-0.06473 -0.25624,6e-6 -0.4882,0.0526 -0.69588,0.157789 -0.20499,0.1025 -0.40054,0.234664 -0.58665,0.396493 l -0.41268,-0.481456 c 0.10789,-0.09709 0.22387,-0.187453 0.34794,-0.271072 0.12408,-0.08631 0.25759,-0.16048 0.40054,-0.222522 0.14296,-0.06203 0.294,-0.110581 0.45314,-0.145651 0.15913,-0.03776 0.32636,-0.05664 0.50169,-0.05664 0.25893,6e-6 0.49224,0.03642 0.69993,0.109238 0.21038,0.07283 0.3884,0.178023 0.53405,0.315577 0.14565,0.134867 0.25758,0.300747 0.33581,0.49764 0.0809,0.194205 0.12137,0.41403 0.12137,0.659474 0,0.229269 -0.0364,0.447745 -0.10924,0.655428 -0.0701,0.20769 -0.16858,0.41268 -0.29534,0.614969 -0.12408,0.199599 -0.27378,0.400543 -0.44909,0.602833 -0.17263,0.202294 -0.36009,0.412679 -0.56238,0.631153 l -1.13688,1.20971 0,0.03237 2.78759,0 0,0.671612" />
          <path
             style="font-size:8.28590679px;font-style:normal;font-variant:normal;font-weight:normal;font-stretch:normal;text-align:center;line-height:125%;writing-mode:lr-tb;text-anchor:middle;fill:#000000;fill-opacity:1;stroke:none;font-family:Droid Sans;-inkscape-font-specification:Droid Sans"
             id="path4003"
             inkscape:connector-curvature="0"
             d="m 135.60028,22.528668 c -1e-5,0.283213 -0.0148,0.566422 -0.0445,0.849629 -0.027,0.280515 -0.0769,0.54889 -0.1497,0.805125 -0.0701,0.256239 -0.16723,0.496293 -0.2913,0.720162 -0.12408,0.221174 -0.28187,0.412678 -0.47337,0.574511 -0.1915,0.161834 -0.42077,0.289953 -0.68779,0.384356 -0.26703,0.09171 -0.57991,0.137559 -0.93864,0.137559 -0.0512,0 -0.10789,-0.0013 -0.16993,-0.004 -0.062,-0.0027 -0.12407,-0.0081 -0.1861,-0.01618 -0.062,-0.0054 -0.12273,-0.01214 -0.18207,-0.02023 -0.0593,-0.0081 -0.11193,-0.01888 -0.15779,-0.03237 l 0,-0.631153 c 0.0944,0.03506 0.20095,0.06069 0.31963,0.07687 0.11867,0.01618 0.236,0.02428 0.35199,0.02428 0.36412,0 0.66351,-0.06338 0.89817,-0.190155 0.23466,-0.126769 0.42077,-0.298044 0.55833,-0.513823 0.13756,-0.218475 0.23466,-0.472015 0.2913,-0.760621 0.0593,-0.288602 0.0958,-0.593389 0.10924,-0.914363 l -0.0526,0 c -0.054,0.0971 -0.11868,0.187461 -0.1942,0.271073 -0.0755,0.08362 -0.16453,0.156442 -0.26702,0.218476 -0.1025,0.06204 -0.21848,0.110589 -0.34795,0.14565 -0.12947,0.03507 -0.27377,0.0526 -0.4329,0.0526 -0.25624,3e-6 -0.48821,-0.03911 -0.69589,-0.117329 -0.20769,-0.08097 -0.38436,-0.198298 -0.53001,-0.352042 -0.14565,-0.15374 -0.25893,-0.341198 -0.33985,-0.562374 -0.0782,-0.223867 -0.11733,-0.478756 -0.11733,-0.764666 0,-0.307481 0.0418,-0.583947 0.12542,-0.8294 0.0863,-0.248141 0.20634,-0.457176 0.36008,-0.627107 0.15644,-0.172618 0.34525,-0.304782 0.56642,-0.396494 0.22387,-0.0917 0.47337,-0.137553 0.74848,-0.137559 0.27242,6e-6 0.52596,0.0526 0.76063,0.157788 0.23465,0.105198 0.43829,0.265684 0.61092,0.481457 0.17262,0.215784 0.30883,0.488204 0.40863,0.817262 0.0998,0.32637 0.14969,0.710725 0.1497,1.153068 m -1.92178,-1.986514 c -0.16184,6e-6 -0.31019,0.02698 -0.44505,0.08092 -0.13216,0.05395 -0.24679,0.137564 -0.34389,0.250842 -0.0971,0.113289 -0.17263,0.256243 -0.22657,0.428861 -0.0512,0.16993 -0.0769,0.372223 -0.0769,0.606878 0,0.18881 0.0216,0.358736 0.0647,0.509777 0.0459,0.148352 0.11328,0.275121 0.20229,0.38031 0.089,0.105196 0.1996,0.186113 0.33176,0.242752 0.13486,0.05664 0.2913,0.08497 0.46932,0.08496 0.18341,3e-6 0.34929,-0.03101 0.49764,-0.09305 0.14834,-0.06473 0.27512,-0.146996 0.38031,-0.246797 0.10519,-0.102492 0.18611,-0.218473 0.24275,-0.347944 0.0593,-0.129463 0.089,-0.25893 0.089,-0.388401 0,-0.180711 -0.0256,-0.360077 -0.0769,-0.538099 -0.0486,-0.18071 -0.12273,-0.342544 -0.22252,-0.485502 -0.0971,-0.145646 -0.21983,-0.262975 -0.36817,-0.351989 -0.14835,-0.089 -0.32098,-0.133508 -0.51787,-0.133514" />
        </g>
      </g>
    </g>
  </g>
</svg>
