<?xml version="1.0" encoding="UTF-8" standalone="no"?>
<!-- Created with Inkscape (http://www.inkscape.org/) -->
<svg id="svg2982" xmlns:rdf="http://www.w3.org/1999/02/22-rdf-syntax-ns#" xmlns="http://www.w3.org/2000/svg" height="96" width="96" version="1.1" xmlns:cc="http://creativecommons.org/ns#" xmlns:xlink="http://www.w3.org/1999/xlink" xmlns:dc="http://purl.org/dc/elements/1.1/">
 <defs id="defs2984">
  <filter id="filter6279" color-interpolation-filters="sRGB">
   <feGaussianBlur id="feGaussianBlur6281" stdDeviation="0.8"/>
  </filter>
  <linearGradient id="linearGradient10902-1" x1="48" gradientUnits="userSpaceOnUse" y1="1052.4" gradientTransform="translate(0 -.0000096172)" x2="48" y2="902.36">
   <stop id="stop3189-18" style="stop-color:#e4b31e" offset="0"/>
   <stop id="stop3191-96" style="stop-color:#ffef64" offset="1"/>
  </linearGradient>
  <linearGradient id="linearGradient7236" x1="61.295" xlink:href="#linearGradient3951" gradientUnits="userSpaceOnUse" x2="117.36" y1="121.33" y2="18.868"/>
  <linearGradient id="linearGradient3951">
   <stop id="stop3953-0" offset="0"/>
   <stop id="stop3955-7" style="stop-opacity:0" offset="1"/>
  </linearGradient>
  <filter id="filter3963" color-interpolation-filters="sRGB">
   <feGaussianBlur id="feGaussianBlur3965" stdDeviation="0.91605611"/>
  </filter>
  <linearGradient id="linearGradient7238" x1="61.295" xlink:href="#linearGradient3951" gradientUnits="userSpaceOnUse" x2="104.63" y1="121.33" y2="41.347"/>
  <linearGradient id="linearGradient7240" y2="115.49" gradientUnits="userSpaceOnUse" y1="115.49" x2="149.53" x1="136.41">
   <stop id="stop3487-7" style="stop-color:#e6605b" offset="0"/>
   <stop id="stop3489-2" style="stop-color:#f08682" offset="1"/>
  </linearGradient>
  <filter id="filter3495" height="1.3333" width="1.8571" y="-.16667" x="-.42857" color-interpolation-filters="sRGB">
   <feGaussianBlur id="feGaussianBlur3497" stdDeviation="0.55242721"/>
  </filter>
  <filter id="filter3509" height="1.3534" width="1.3669" y="-.17668" x="-.18344" color-interpolation-filters="sRGB">
   <feGaussianBlur id="feGaussianBlur3511" stdDeviation="0.65925"/>
  </filter>
  <linearGradient id="linearGradient7242" x1="137.41" xlink:href="#linearGradient3339" gradientUnits="userSpaceOnUse" y1="116.47" gradientTransform="matrix(1.0894,0,0,1,-13.276,0)" x2="148.53" y2="116.47"/>
  <linearGradient id="linearGradient3339">
   <stop id="stop3341" offset="0"/>
   <stop id="stop3347-9" style="stop-opacity:.49804" offset=".7"/>
   <stop id="stop3343-0" style="stop-opacity:0" offset="1"/>
  </linearGradient>
  <linearGradient id="linearGradient7244" x1="136" gradientUnits="userSpaceOnUse" y1="60" gradientTransform="translate(-23.733)" x2="150" y2="60">
   <stop id="stop3280" style="stop-color:#165016" offset="0"/>
   <stop id="stop3290" style="stop-color:#165016" offset=".25"/>
   <stop id="stop3286-5" style="stop-color:#217821" offset=".3"/>
   <stop id="stop3288-0" style="stop-color:#217821" offset=".7"/>
   <stop id="stop3292-4" style="stop-color:#2ca02c" offset=".75"/>
   <stop id="stop3282" style="stop-color:#217821" offset="1"/>
  </linearGradient>
  <linearGradient id="linearGradient7246" x1="143" gradientUnits="userSpaceOnUse" y1=".0000024" gradientTransform="translate(-23.733)" x2="143" y2="120.02">
   <stop id="stop3256" offset="0"/>
   <stop id="stop3266-1" offset=".065884"/>
   <stop id="stop3264-7" style="stop-color:#ad5f1b" offset=".07"/>
   <stop id="stop3268-9" style="stop-color:#ad601a" offset=".19137"/>
   <stop id="stop3262-3" style="stop-color:#134613" offset=".20983"/>
   <stop id="stop3258-6" style="stop-color:#124312" offset="1"/>
  </linearGradient>
  <linearGradient id="linearGradient7248" x1="141.25" gradientUnits="userSpaceOnUse" y1="4.9219" gradientTransform="translate(-23.733)" x2="144.81" y2="4.9219">
   <stop id="stop3396-2" offset="0"/>
   <stop id="stop3402-1" style="stop-color:#7d7d7d" offset=".5"/>
   <stop id="stop3398-2" offset="1"/>
  </linearGradient>
  <linearGradient id="linearGradient7250" x1="136.99" gradientUnits="userSpaceOnUse" y1="17.043" gradientTransform="translate(-23.733)" x2="149" y2="17.043">
   <stop id="stop3310-5" style="stop-color:#da8539" offset="0"/>
   <stop id="stop3312-3" style="stop-color:#fadfc7" offset="1"/>
  </linearGradient>
  <linearGradient id="linearGradient7252" x1="146.11" xlink:href="#linearGradient3737-91" gradientUnits="userSpaceOnUse" y1="118.94" gradientTransform="matrix(1,0,0,1.2654,-23.733,-54.364)" x2="146.08" y2="66"/>
  <linearGradient id="linearGradient3737-91">
   <stop id="stop3739-88" style="stop-color:#fff" offset="0"/>
   <stop id="stop3741-70" style="stop-color:#fff;stop-opacity:0" offset="1"/>
  </linearGradient>
  <linearGradient id="linearGradient7254" x1="146.11" xlink:href="#linearGradient3737-91" gradientUnits="userSpaceOnUse" y1="118.94" gradientTransform="matrix(1,0,0,1.2654,-29.858,-54.364)" x2="146.08" y2="66"/>
  <filter id="filter3382" height="1.2274" width="1.8632" y="-.11371" x="-.43161" color-interpolation-filters="sRGB">
   <feGaussianBlur id="feGaussianBlur3384" stdDeviation="0.73914765"/>
  </filter>
  <filter id="filter3390" height="1.2988" width="2.2196" y="-.1494" x="-.6098" color-interpolation-filters="sRGB">
   <feGaussianBlur id="feGaussianBlur3392" stdDeviation="0.77812506"/>
  </filter>
  <linearGradient id="linearGradient7256" y2="106" gradientUnits="userSpaceOnUse" y1="106" x2="150" x1="136">
   <stop id="stop3403-2" style="stop-color:#404040" offset="0"/>
   <stop id="stop3447" style="stop-color:#808080" offset=".2"/>
   <stop id="stop3410-7" style="stop-color:#efefef" offset=".7"/>
   <stop id="stop3405-9" style="stop-color:#dcdcdc" offset="1"/>
  </linearGradient>
  <linearGradient id="linearGradient7258" y2="106" gradientUnits="userSpaceOnUse" y1="106" x2="150" x1="136">
   <stop id="stop3463" style="stop-color:#444542" offset="0"/>
   <stop id="stop3465-1" style="stop-color:#71746e" offset="1"/>
  </linearGradient>
  <linearGradient id="linearGradient7260" x1="142.96" xlink:href="#linearGradient3339" spreadMethod="reflect" gradientUnits="userSpaceOnUse" y1="98.951" gradientTransform="translate(.042252 1.5494)" x2="148.96" y2="98.951"/>
  <linearGradient id="linearGradient7262" x1="142.96" xlink:href="#linearGradient3355-6" spreadMethod="reflect" gradientUnits="userSpaceOnUse" y1="98.951" gradientTransform="translate(.042252 2.5494)" x2="148.96" y2="98.951"/>
  <linearGradient id="linearGradient3355-6">
   <stop id="stop3357-84" style="stop-color:#fff" offset="0"/>
   <stop id="stop3359-6" style="stop-color:#fff;stop-opacity:.49804" offset=".7"/>
   <stop id="stop3361-6" style="stop-color:#fff;stop-opacity:0" offset="1"/>
  </linearGradient>
  <linearGradient id="linearGradient7264" x1="142.96" xlink:href="#linearGradient3339" spreadMethod="reflect" gradientUnits="userSpaceOnUse" y1="98.951" gradientTransform="translate(.042252 3.5494)" x2="148.96" y2="98.951"/>
  <linearGradient id="linearGradient7266" x1="142.96" xlink:href="#linearGradient3355-6" spreadMethod="reflect" gradientUnits="userSpaceOnUse" y1="98.951" gradientTransform="translate(.042252 4.5494)" x2="148.96" y2="98.951"/>
  <linearGradient id="linearGradient7268" x1="142.96" xlink:href="#linearGradient3339" spreadMethod="reflect" gradientUnits="userSpaceOnUse" y1="98.951" gradientTransform="translate(.042252 9.5494)" x2="148.96" y2="98.951"/>
  <linearGradient id="linearGradient7270" x1="142.96" xlink:href="#linearGradient3355-6" spreadMethod="reflect" gradientUnits="userSpaceOnUse" y1="98.951" gradientTransform="translate(.042252 10.549)" x2="148.96" y2="98.951"/>
  <linearGradient id="linearGradient7272" x1="142.96" xlink:href="#linearGradient3339" spreadMethod="reflect" gradientUnits="userSpaceOnUse" y1="98.951" gradientTransform="translate(.042252 11.549)" x2="148.96" y2="98.951"/>
  <linearGradient id="linearGradient7274" x1="142.96" xlink:href="#linearGradient3355-6" spreadMethod="reflect" gradientUnits="userSpaceOnUse" y1="98.951" gradientTransform="translate(.042252 12.549)" x2="148.96" y2="98.951"/>
  <linearGradient id="linearGradient7276" x1="137" spreadMethod="repeat" gradientUnits="userSpaceOnUse" y1="106" x2="139.03" y2="106">
   <stop id="stop3441" style="stop-color:#3d3d3d" offset="0"/>
   <stop id="stop3443-9" style="stop-color:#fff" offset="1"/>
  </linearGradient>
  <filter id="filter3451" height="1.2715" width="3.0699" y="-.13574" x="-1.035" color-interpolation-filters="sRGB">
   <feGaussianBlur id="feGaussianBlur3453" stdDeviation="0.9498173"/>
  </filter>
  <filter id="filter3457" height="1.2754" width="2.8667" y="-.1377" x="-.93333" color-interpolation-filters="sRGB">
   <feGaussianBlur id="feGaussianBlur3459" stdDeviation="0.92807767"/>
  </filter>
  <linearGradient id="linearGradient3462" y2="138.66" gradientUnits="userSpaceOnUse" x2="48" y1="20.221" x1="48">
   <stop id="stop3739-02" style="stop-color:#fff" offset="0"/>
   <stop id="stop3741-26" style="stop-color:#fff;stop-opacity:0" offset="1"/>
  </linearGradient>
  <clipPath id="clipPath3613-90">
   <rect id="rect3615-35" style="fill:#fff" rx="6" ry="6" height="84" width="84" y="6" x="6"/>
  </clipPath>
  <filter id="filter3794-58" height="1.384" width="1.384" y="-.192" x="-.192" color-interpolation-filters="sRGB">
   <feGaussianBlur id="feGaussianBlur3796-71" stdDeviation="5.28"/>
  </filter>
 </defs>
 <metadata id="metadata2987">
  <rdf:RDF>
   <cc:Work rdf:about="">
    <dc:format>image/svg+xml</dc:format>
    <dc:type rdf:resource="http://purl.org/dc/dcmitype/StillImage"/>
    <dc:title/>
   </cc:Work>
  </rdf:RDF>
 </metadata>
 <g id="layer1" transform="translate(0 -956.36)">
  <g id="g6361" transform="translate(-182.19 -40.406)">
   <rect id="rect9283" style="filter:url(#filter6279)" transform="translate(182.19 40.406)" rx="5" ry="5" height="80" width="80" y="964.36" x="8"/>
   <rect id="rect9285" style="fill:url(#linearGradient10902-1)" transform="translate(182.19 40.406)" rx="5" ry="5" height="80" width="80" y="964.36" x="8"/>
   <g id="g7305">
    <g id="g7048" transform="matrix(.66618 0 0 .66618 76.142 353.91)">
     <g id="text4313" style="opacity:.5" transform="translate(182.19 996.77)">
      <path id="path4345" d="m25.399 29.225c-0.16351 0.16352-0.36335 0.29069-0.59952 0.38151-0.2271 0.09085-0.47236 0.16352-0.73578 0.21801-0.25435 0.05451-0.50869 0.09993-0.76303 0.13626-0.25435 0.02726-0.49052 0.06814-0.70853 0.12263 0.109 0.48144 0.17258 1.0083 0.19076 1.5806 0.01816 0.57228 0.02725 1.1627 0.02725 1.7713-0.000004 0.59953 0.0091 1.2036 0.02725 1.8122 0.01816 0.59952 0.08175 1.1718 0.19076 1.7168 0.32701 0.0545 0.64948 0.06813 0.96741 0.04088 0.32701-0.03633 0.64039-0.05904 0.94016-0.06813 0.30884-0.01816 0.6086 0.000002 0.89928 0.0545 0.29975 0.0545 0.58589 0.19076 0.85841 0.40877-0.000008 0.09992-0.03634 0.18167-0.109 0.24526-0.07268 0.0545-0.1726 0.09992-0.29976 0.13626-0.1181 0.03634-0.25435 0.07267-0.40876 0.109-0.15443 0.02725-0.31339 0.06813-0.47689 0.12263-0.53594 0-1.0855 0.03634-1.6487 0.109-0.56319 0.06359-1.1264 0.13171-1.6896 0.20438-0.56319 0.06359-1.1264 0.11809-1.6896 0.16351-0.56319 0.03634-1.1128 0.02725-1.6487-0.02725-0.09992-0.09992-0.15896-0.21347-0.17713-0.34064-0.01817-0.13626-0.02725-0.30884-0.02725-0.51777 0.26343-0.109 0.52685-0.17259 0.79028-0.19076 0.27251-0.01817 0.54502-0.03179 0.81753-0.04088 0.27251-0.01817 0.54048-0.04996 0.8039-0.09538 0.27251-0.04542 0.54048-0.14988 0.8039-0.31339-0.09992-0.49052-0.16351-1.0355-0.19076-1.6351-0.01817-0.59952-0.03634-1.2081-0.0545-1.8258-0.0091-0.61768-0.04088-1.2217-0.09538-1.8122-0.04542-0.59043-0.14988-1.1264-0.31339-1.6078-0.20893 0.05451-0.4451 0.09085-0.70853 0.109-0.25434 0.01818-0.51777 0.01363-0.79028-0.01362-0.27251-0.02724-0.54048-0.08175-0.8039-0.16351-0.25434-0.09083-0.48598-0.218-0.6949-0.38152-0.0545-0.05449-0.08175-0.11808-0.08175-0.19076 0.000001-0.07266 0.02271-0.14079 0.06813-0.20438 0.03634-0.07266 0.09538-0.1317 0.17713-0.17713 0.07267-0.04541 0.16351-0.06812 0.27251-0.06813 0.21801 0.000009 0.45418 0.0091 0.70853 0.02725 0.25434 0.01818 0.50868 0.02272 0.76303 0.01362 0.26342-0.01816 0.50868-0.05449 0.73578-0.109 0.23617-0.06358 0.43601-0.17712 0.59952-0.34064 0.20892 0.10901 0.43147 0.1726 0.66765 0.19076 0.23617 0.0091 0.47235 0.00001 0.70853-0.02725 0.24526-0.02724 0.49051-0.05449 0.73578-0.08175 0.24525-0.03632 0.48143-0.04995 0.70853-0.04088 0.23617 0.0091 0.45872 0.05905 0.66765 0.14988 0.20892 0.08176 0.40422 0.23164 0.5859 0.44964"/>
      <path id="path4347" d="m27.621 34.198c-0.000002 0.2271-0.000002 0.4769 0 0.7494 0.0091 0.26343 0.02725 0.5314 0.0545 0.8039 0.02725 0.26343 0.07267 0.51777 0.13626 0.76303 0.06358 0.23618 0.14988 0.44056 0.25888 0.61315 0.1635-0.22709 0.27251-0.49506 0.32701-0.8039 0.06358-0.30884 0.13625-0.60406 0.21801-0.88566 0.09083-0.28159 0.22255-0.51776 0.39514-0.70853 0.17259-0.19984 0.45418-0.29976 0.84478-0.29976 0.22709 0.16351 0.39059 0.34518 0.49052 0.54502 0.09992 0.19076 0.17713 0.3906 0.23163 0.59952 0.0545 0.20893 0.10446 0.42694 0.14988 0.65402 0.0545 0.21801 0.13625 0.44056 0.24526 0.66765 0.17258-0.1635 0.32246-0.36789 0.44964-0.61315 0.12717-0.25434 0.25888-0.48597 0.39514-0.6949 0.14533-0.218 0.30884-0.38151 0.49052-0.49052 0.18167-0.109 0.4133-0.109 0.6949 0 0.22708 0.2816 0.38605 0.57682 0.47689 0.88566 0.09083 0.30885 0.13625 0.62678 0.13626 0.95378-0.000008 0.32701-0.04088 0.65857-0.12263 0.99466-0.07268 0.32701-0.16806 0.65857-0.28614 0.99466-0.09993 0.109-0.20893 0.18167-0.32701 0.21801-0.10901 0.03633-0.21801 0.11354-0.32701 0.23163-0.10901-0.17259-0.1726-0.33156-0.19076-0.47689-0.01817-0.14534-0.02272-0.28614-0.01363-0.42239 0.01816-0.14534 0.03179-0.28614 0.04088-0.42239 0.0091-0.14534-0.01817-0.29976-0.08175-0.46327-0.10901 0.109-0.19985 0.21801-0.27251 0.32701-0.06359 0.109-0.13172 0.22255-0.20438 0.34064-0.06359 0.109-0.1408 0.21801-0.23163 0.32701-0.09084 0.11809-0.21801 0.23163-0.38151 0.34064-0.23618-0.000001-0.46327-0.0091-0.68128-0.02725-0.21801-0.01817-0.4451-0.09084-0.68128-0.21801l-0.23163-1.7849c-0.10901 0.17259-0.20893 0.35881-0.29976 0.55865-0.09084 0.19076-0.18622 0.39514-0.28614 0.61315-0.09084 0.20892-0.19984 0.42239-0.32701 0.6404-0.11809 0.21801-0.25889 0.44056-0.42239 0.66765-0.16351-0.000001-0.30885-0.0045-0.43602-0.01363-0.11809-0.000001-0.22709-0.01363-0.32701-0.04088s-0.1953-0.07267-0.28614-0.13626-0.1953-0.14988-0.31339-0.25888c-0.22709-0.79936-0.35881-1.626-0.39514-2.4798-0.03634-0.85386-0.0545-1.6714-0.0545-2.4526 0-0.28159 0.05904-0.45872 0.17713-0.53139 0.11809-0.08175 0.2498-0.09537 0.39514-0.04088 0.14534 0.05451 0.27705 0.15897 0.39514 0.31339 0.11809 0.14534 0.17713 0.29976 0.17713 0.46327"/>
      <path id="path4349" d="m38.002 32.794c0.19984 0.35427 0.28613 0.69491 0.25888 1.0219-0.01817 0.32702-0.10447 0.64494-0.25888 0.95378-0.15443 0.30885-0.34518 0.60407-0.57227 0.88566-0.2271 0.27251-0.44056 0.53594-0.6404 0.79028-0.35427 0.09992-0.59952 0.2816-0.73578 0.54502-0.12717 0.25434-0.20438 0.54956-0.23163 0.88566-0.02725 0.32701-0.0318 0.67219-0.01363 1.0355 0.02725 0.36335 0.01362 0.6949-0.04088 0.99466v3.4745c-0.09992 0.09992-0.19984 0.15896-0.29976 0.17713-0.09992 0.01816-0.20893 0.02725-0.32701 0.02725-0.24526-0.19985-0.41785-0.43602-0.51777-0.70853-0.09084-0.27251-0.15442-0.55865-0.19076-0.85841-0.03634-0.29068-0.06813-0.5859-0.09538-0.88566-0.01817-0.29068-0.08175-0.55865-0.19076-0.8039 0-0.71761-0.02271-1.4171-0.06813-2.0983-0.04542-0.69036-0.04996-1.3625-0.01363-2.0166 0.04542-0.6631 0.15896-1.3126 0.34064-1.9484 0.18167-0.63585 0.50414-1.2626 0.96741-1.8803 0.14534-0.15442 0.34518-0.27704 0.59952-0.36789 0.25434-0.09991 0.51322-0.14079 0.77665-0.12263 0.27251 0.0091 0.52231 0.0863 0.7494 0.23163 0.23617 0.13626 0.40422 0.35881 0.50414 0.66765m-1.0219 0.16351c-0.29976 0.05451-0.5314 0.16805-0.6949 0.34064-0.16351 0.16351-0.27705 0.35427-0.34064 0.57227-0.06359 0.21801-0.09084 0.44965-0.08175 0.6949 0.01817 0.23618 0.0545 0.45873 0.109 0.66765 0.15442-0.15442 0.3043-0.30884 0.44964-0.46327 0.14534-0.1635 0.26797-0.33609 0.36789-0.51777 0.09992-0.18167 0.16804-0.37697 0.20438-0.5859 0.04541-0.20892 0.04087-0.44509-0.01363-0.70853"/>
      <path id="path4351" d="m43.75 34.225c0.23617 0.62678 0.34517 1.1945 0.32701 1.7032-0.01817 0.50869-0.21801 1.0128-0.59952 1.5124-0.49052 0.49052-1.031 0.80845-1.6214 0.95379-0.59044 0.14534-1.199 0.14988-1.8258 0.01363-0.12717-0.0545-0.24072-0.12263-0.34064-0.20438-0.09084-0.09084-0.18167-0.19076-0.27251-0.29976s-0.18622-0.22255-0.28614-0.34064c-0.09084-0.11809-0.1953-0.24072-0.31339-0.36789-0.07267-0.24526-0.109-0.51777-0.109-0.81753s0.03179-0.59498 0.09538-0.88566c0.06359-0.29976 0.15442-0.58135 0.27251-0.84478 0.11809-0.26342 0.26797-0.48597 0.44964-0.66765 0.30884-0.43601 0.66765-0.75848 1.0764-0.96741 0.40876-0.218 0.81299-0.31792 1.2127-0.29976 0.40876 0.0091 0.78573 0.1408 1.1309 0.39514 0.34518 0.24526 0.61314 0.6177 0.8039 1.1173m-1.2535 0.98104c0.0545-0.12717 0.05904-0.25888 0.01363-0.39514-0.04542-0.13625-0.12263-0.24071-0.23163-0.31339-0.10901-0.08175-0.23618-0.11354-0.38151-0.09538-0.13626 0.01817-0.27251 0.11809-0.40876 0.29976-0.09992-0.11808-0.21801-0.13625-0.35426-0.0545-0.12717 0.08176-0.2498 0.19076-0.36789 0.32701-0.0545 0.12718-0.13626 0.26797-0.24526 0.42239-0.09992 0.14534-0.19076 0.30431-0.27251 0.47689-0.08175 0.17259-0.13172 0.34972-0.14988 0.5314-0.0091 0.18168 0.04542 0.36789 0.16351 0.55864h1.2263c0.38151-0.13625 0.64494-0.36789 0.79028-0.6949 0.14534-0.33609 0.218-0.69036 0.21801-1.0628"/>
      <path id="path4353" d="m46.595 33.762v0.51777c0.24526-0.31792 0.48143-0.60406 0.70853-0.85841 0.23617-0.25434 0.48143-0.47234 0.73578-0.65402 0.25434-0.19075 0.52685-0.34972 0.81753-0.47689 0.29067-0.12716 0.62223-0.218 0.99466-0.27251 0.08175 0.29068 0.09083 0.55865 0.02725 0.8039-0.06359 0.23618-0.17714 0.46327-0.34064 0.68128-0.15443 0.20893-0.34064 0.41331-0.55865 0.61315l-0.65402 0.59952c-0.20893 0.19984-0.40423 0.40877-0.5859 0.62677-0.18168 0.20893-0.31339 0.44056-0.39514 0.6949-0.12717 0.19076-0.22709 0.40422-0.29976 0.6404s-0.14988 0.47235-0.23163 0.70853c-0.07267 0.23618-0.16351 0.45873-0.27251 0.66765-0.10901 0.20892-0.25889 0.37697-0.44964 0.50414-0.07267 0-0.15442-0.0045-0.24526-0.01363-0.08175 0-0.17259-0.01363-0.27251-0.04088-0.09084-0.03634-0.18167-0.09084-0.27251-0.16351s-0.16805-0.17259-0.23163-0.29976c-0.06359-0.43602-0.09992-0.87657-0.109-1.3217 0-0.4451 0.01362-0.90382 0.04088-1.3762 0.03633-0.47235 0.08175-0.96286 0.13626-1.4716 0.06358-0.50868 0.13171-1.0492 0.20438-1.6214-0.000001-0.0545 0.01363-0.12262 0.04088-0.20438 0.03633-0.09083 0.08175-0.17712 0.13626-0.25888 0.06358-0.08175 0.1408-0.14987 0.23163-0.20438 0.09992-0.0545 0.21346-0.08175 0.34064-0.08175 0.19076 0.12718 0.30884 0.2816 0.35426 0.46327 0.0545 0.18168 0.08175 0.37698 0.08175 0.5859-0.000003 0.19985-0.0045 0.40423-0.01363 0.61315-0.0091 0.20893 0.01816 0.40877 0.08175 0.59952"/>
      <path id="path4355" d="m52.725 29.197c0.0545 0.35427 0.07266 0.71762 0.0545 1.09-0.0091 0.37244-0.0318 0.74941-0.06813 1.1309-0.02726 0.37244-0.06359 0.74487-0.109 1.1173-0.03634 0.37244-0.05451 0.73578-0.0545 1.09 0.09992 0.10901 0.218 0.1953 0.35426 0.25888 0.13625 0.06359 0.26796 0.12718 0.39514 0.19076 0.12717 0.06359 0.23163 0.1408 0.31339 0.23163 0.09083 0.08176 0.13625 0.1953 0.13626 0.34064-0.09992 0.04542-0.19985 0.07267-0.29976 0.08175-0.09084 0.0091-0.19076 0.01363-0.29976 0.01363-0.09992 0.000004-0.19984 0.0045-0.29976 0.01363-0.09992 0.000004-0.19984 0.02271-0.29976 0.06813-0.000004 0.25435-0.0091 0.5314-0.02725 0.83116-0.01817 0.29976-0.03634 0.60861-0.0545 0.92653-0.0091 0.30885-0.01363 0.62678-0.01362 0.95379 0.0091 0.31793 0.04087 0.63132 0.09538 0.94016-0.20893 0.09084-0.38152 0.13626-0.51777 0.13626-0.13626 0-0.30431-0.04542-0.50414-0.13626-0.14534-0.36335-0.23164-0.69944-0.25888-1.0083-0.01817-0.30884-0.01363-0.6086 0.01363-0.89928 0.02725-0.29068 0.0545-0.57681 0.08175-0.85841 0.02725-0.28159 0.01362-0.57681-0.04088-0.88566-0.06359-0.09992-0.14988-0.15896-0.25888-0.17713-0.09992-0.02725-0.21347-0.03179-0.34064-0.01363-0.12717 0.0091-0.26343 0.02726-0.40876 0.0545-0.13626 0.01817-0.26797 0.02271-0.39514 0.01363-0.12717-0.0091-0.24526-0.04541-0.35426-0.109-0.09992-0.07267-0.18167-0.1953-0.24526-0.36789-0.0545-0.14533-0.04996-0.25888 0.01363-0.34064 0.06358-0.08175 0.15442-0.14079 0.27251-0.17713 0.12717-0.04541 0.27251-0.06812 0.43602-0.06813 0.1635-0.0091 0.32247-0.01362 0.47689-0.01362h0.8039l0.422-4.646c-0.000003-0.29975 0.04996-0.47234 0.14988-0.51777 0.09992-0.05449 0.20892-0.04087 0.32701 0.04088 0.12717 0.07268 0.24071 0.18622 0.34064 0.34064 0.109 0.14535 0.1635 0.26344 0.16351 0.35426"/>
      <path id="path4357" d="m59.452 33.953c0.09991 0.19076 0.15442 0.3906 0.16351 0.59952 0.0091 0.20893-0.000006 0.41785-0.02725 0.62677-0.01817 0.19984-0.04542 0.39968-0.08175 0.59952-0.02726 0.19076-0.03634 0.37243-0.02725 0.54502 0.0091 0.17259 0.0545 0.33156 0.13626 0.47689 0.08175 0.14534 0.22254 0.26797 0.42239 0.36789 0.29067 0.000001 0.56318-0.02725 0.81753-0.08175 0.26342-0.06358 0.51322-0.12263 0.7494-0.17713 0.24525-0.06358 0.47688-0.10446 0.6949-0.12263 0.22708-0.02725 0.44963-0.0045 0.66765 0.06813 0.07266 0.08176 0.14079 0.17713 0.20438 0.28614 0.06358 0.09992 0.11354 0.20438 0.14988 0.31339 0.03633 0.109 0.04995 0.21801 0.04088 0.32701-0.000009 0.09992-0.03634 0.18622-0.109 0.25888-0.29069 0.07267-0.58136 0.17259-0.87203 0.29976-0.29068 0.11809-0.5859 0.22255-0.88566 0.31339-0.29068 0.09084-0.58136 0.14534-0.87203 0.16351-0.29068 0.01817-0.58136-0.04542-0.87203-0.19076-0.14534-0.07267-0.29522-0.17259-0.44964-0.29976-0.14534-0.12717-0.29522-0.24526-0.44964-0.35426-0.14534-0.109-0.29522-0.19076-0.44964-0.24526-0.14534-0.0545-0.29068-0.04542-0.43602 0.02725-0.13626 0.29068-0.30885 0.48144-0.51777 0.57227-0.20893 0.09084-0.43602 0.11809-0.68128 0.08175-0.23618-0.03633-0.48144-0.11809-0.73578-0.24526-0.24526-0.12717-0.47689-0.26343-0.6949-0.40876-0.07267-0.07267-0.17713-0.14534-0.31339-0.21801-0.12717-0.08175-0.25434-0.16805-0.38151-0.25888s-0.24072-0.19076-0.34064-0.29976c-0.09084-0.11809-0.13626-0.25434-0.13626-0.40876 0.21801-0.36334 0.48598-0.6949 0.8039-0.99466 0.32701-0.29976 0.67219-0.58589 1.0355-0.85841 0.37243-0.27251 0.75394-0.54047 1.1445-0.8039 0.3906-0.2725 0.76757-0.5541 1.1309-0.84478 0.13625 0.000005 0.25888 0.0318 0.36789 0.09538 0.11808 0.06359 0.22255 0.1408 0.31339 0.23163 0.09992 0.08176 0.18621 0.17714 0.25888 0.28614 0.08175 0.09992 0.15896 0.19076 0.23163 0.27251m-2.9431 2.9022c0.08175-0.14534 0.19984-0.25888 0.35426-0.34064 0.15442-0.09083 0.29522-0.19076 0.42239-0.29976s0.21346-0.24526 0.25888-0.40876c0.04541-0.17259-0.000003-0.40422-0.13626-0.6949l-1.1854 1.4579c-0.000002 0.14534 0.0091 0.23164 0.02725 0.25888 0.02725 0.01817 0.11354 0.02725 0.25888 0.02725"/>
      <path id="path4359" d="m66.1 34.321c-0.000002 0.13626 0.01362 0.25889 0.04088 0.36789 0.03633 0.10901 0.06813 0.20439 0.09538 0.28614 0.03633 0.08176 0.06812 0.15897 0.09538 0.23163 0.03633 0.07267 0.0545 0.14534 0.0545 0.21801 0.06358-0.13625 0.14079-0.25434 0.23163-0.35426 0.09992-0.109 0.19984-0.20892 0.29976-0.29976 0.09992-0.09083 0.1953-0.16804 0.28614-0.23163 0.09992-0.07267 0.18167-0.14534 0.24526-0.21801 0.40876-0.07267 0.74032-0.03179 0.99466 0.12263 0.26342 0.14534 0.48143 0.35427 0.65402 0.62677 0.17258 0.27251 0.31792 0.5859 0.43602 0.94016 0.12717 0.35426 0.25888 0.69944 0.39514 1.0355-0.000006 0.27251 0.01362 0.5314 0.04088 0.77665 0.02725 0.24526 0.04541 0.48598 0.0545 0.72215 0.01816 0.24526 0.0227 0.48598 0.01363 0.72215-0.0091 0.24526-0.04542 0.50414-0.109 0.77665-0.13626-0.000002-0.24526 0.02725-0.32701 0.08175-0.08176 0.0545-0.15897 0.10446-0.23163 0.14988-0.06359 0.0545-0.13626 0.09083-0.21801 0.109-0.07267 0.02725-0.17714 0.0091-0.31339-0.0545-0.13626-0.27251-0.21801-0.59044-0.24526-0.95378-0.02726-0.35426-0.04997-0.71761-0.06813-1.09-0.01817-0.38151-0.05905-0.7494-0.12263-1.1037-0.05451-0.35426-0.18622-0.66765-0.39514-0.94016-0.18168 0.09084-0.34064 0.22255-0.47689 0.39514-0.12717 0.16351-0.24526 0.34064-0.35426 0.5314-0.10901 0.19076-0.21801 0.38152-0.32701 0.57227-0.10901 0.18168-0.23618 0.34064-0.38151 0.47689-0.13626 0.12717-0.29976 0.21801-0.49052 0.27251-0.19076 0.04542-0.42239 0.02271-0.6949-0.06813-0.22709-0.09084-0.39514-0.21347-0.50414-0.36789-0.09992-0.1635-0.16351-0.34972-0.19076-0.55865-0.02725-0.20892-0.02725-0.43147 0-0.66765 0.02725-0.24526 0.05904-0.49506 0.09538-0.7494 0.03633-0.25434 0.06359-0.50868 0.08175-0.76303 0.02725-0.25434 0.01817-0.49506-0.02725-0.72215-0.000001-0.19984 0.05904-0.37697 0.17713-0.5314 0.11809-0.15442 0.2498-0.25888 0.39514-0.31339 0.15442-0.0545 0.3043-0.04087 0.44964 0.04088 0.15442 0.08176 0.26797 0.25889 0.34064 0.5314"/>
      <path id="path4361" d="m74.441 29.197c0.0545 0.35427 0.07267 0.71762 0.0545 1.09-0.0091 0.37244-0.0318 0.74941-0.06813 1.1309-0.02725 0.37244-0.06359 0.74487-0.109 1.1173-0.03634 0.37244-0.05451 0.73578-0.0545 1.09 0.09992 0.10901 0.218 0.1953 0.35426 0.25888 0.13625 0.06359 0.26796 0.12718 0.39514 0.19076 0.12717 0.06359 0.23163 0.1408 0.31339 0.23163 0.09083 0.08176 0.13625 0.1953 0.13626 0.34064-0.09992 0.04542-0.19984 0.07267-0.29976 0.08175-0.09084 0.0091-0.19076 0.01363-0.29976 0.01363-0.09992 0.000004-0.19984 0.0045-0.29976 0.01363-0.09993 0.000004-0.19984 0.02271-0.29976 0.06813-0.000003 0.25435-0.0091 0.5314-0.02725 0.83116-0.01817 0.29976-0.03634 0.60861-0.0545 0.92653-0.0091 0.30885-0.01363 0.62678-0.01363 0.95379 0.0091 0.31793 0.04087 0.63132 0.09538 0.94016-0.20893 0.09084-0.38152 0.13626-0.51777 0.13626-0.13626 0-0.30431-0.04542-0.50414-0.13626-0.14534-0.36335-0.23164-0.69944-0.25888-1.0083-0.01817-0.30884-0.01363-0.6086 0.01363-0.89928 0.02725-0.29068 0.0545-0.57681 0.08175-0.85841 0.02725-0.28159 0.01362-0.57681-0.04088-0.88566-0.06359-0.09992-0.14988-0.15896-0.25888-0.17713-0.09992-0.02725-0.21347-0.03179-0.34064-0.01363-0.12717 0.0091-0.26343 0.02726-0.40876 0.0545-0.13626 0.01817-0.26797 0.02271-0.39514 0.01363-0.12717-0.0091-0.24526-0.04541-0.35426-0.109-0.09992-0.07267-0.18167-0.1953-0.24526-0.36789-0.0545-0.14533-0.04996-0.25888 0.01363-0.34064 0.06358-0.08175 0.15442-0.14079 0.27251-0.17713 0.12717-0.04541 0.27251-0.06812 0.43602-0.06813 0.1635-0.0091 0.32247-0.01362 0.47689-0.01362h0.80391l0.422-4.646c-0.000002-0.29975 0.04996-0.47234 0.14988-0.51777 0.09992-0.05449 0.20892-0.04087 0.32701 0.04088 0.12717 0.07268 0.24071 0.18622 0.34064 0.34064 0.109 0.14535 0.1635 0.26344 0.16351 0.35426"/>
      <path id="path4363" d="m17.969 46.229c0.0545 0.35427 0.07267 0.71762 0.0545 1.09-0.0091 0.37244-0.0318 0.74941-0.06813 1.1309-0.02726 0.37244-0.06359 0.74487-0.109 1.1173-0.03634 0.37244-0.05451 0.73578-0.0545 1.09 0.09992 0.10901 0.218 0.1953 0.35426 0.25888 0.13625 0.06359 0.26796 0.12718 0.39514 0.19076 0.12717 0.06359 0.23163 0.1408 0.31339 0.23163 0.09083 0.08176 0.13625 0.1953 0.13626 0.34064-0.09992 0.04542-0.19984 0.07267-0.29976 0.08175-0.09084 0.0091-0.19076 0.01363-0.29976 0.01362-0.09992 0.000004-0.19984 0.0045-0.29976 0.01363-0.09992 0.000003-0.19984 0.02271-0.29976 0.06813-0.000004 0.25435-0.0091 0.5314-0.02725 0.83116-0.01817 0.29976-0.03634 0.60861-0.0545 0.92654-0.0091 0.30885-0.01363 0.62678-0.01363 0.95378 0.0091 0.31793 0.04087 0.63132 0.09538 0.94016-0.20893 0.09084-0.38152 0.13626-0.51777 0.13626-0.13626 0-0.30431-0.04542-0.50414-0.13626-0.14534-0.36335-0.23164-0.69944-0.25888-1.0083-0.01817-0.30884-0.01363-0.6086 0.01363-0.89928 0.02725-0.29068 0.0545-0.57681 0.08175-0.85841 0.02725-0.28159 0.01362-0.57681-0.04088-0.88566-0.06359-0.09992-0.14988-0.15896-0.25888-0.17713-0.09992-0.02725-0.21347-0.03179-0.34064-0.01362-0.12717 0.0091-0.26343 0.02725-0.40876 0.0545-0.13626 0.01817-0.26797 0.02271-0.39514 0.01362-0.12717-0.0091-0.24526-0.04541-0.35426-0.109-0.09992-0.07267-0.18167-0.19529-0.24526-0.36789-0.0545-0.14534-0.04996-0.25888 0.01363-0.34064 0.06359-0.08175 0.15442-0.14079 0.27251-0.17713 0.12717-0.04541 0.27251-0.06812 0.43602-0.06813 0.1635-0.0091 0.32247-0.01362 0.47689-0.01363h0.8039l0.42239-4.6463c-0.000003-0.29975 0.04996-0.47234 0.14988-0.51777 0.09992-0.05449 0.20892-0.04087 0.32701 0.04088 0.12717 0.07268 0.24071 0.18622 0.34064 0.34064 0.109 0.14535 0.1635 0.26344 0.16351 0.35426"/>
      <path id="path4365" d="m20.881 46.42c0.06358 0.45419 0.12263 0.89475 0.17713 1.3217 0.0545 0.41786 0.09538 0.82662 0.12263 1.2263 0.03633 0.39969 0.04996 0.79483 0.04088 1.1854-0.000002 0.3906-0.0318 0.7812-0.09538 1.1718h0.25888c0.12717-0.06358 0.24072-0.15442 0.34064-0.27251 0.109-0.11808 0.20892-0.23617 0.29976-0.35426 0.09992-0.11808 0.19984-0.218 0.29976-0.29976 0.109-0.08175 0.22709-0.12262 0.35426-0.12263 0.19075-0.0545 0.36788-0.0545 0.5314 0 0.1635 0.05451 0.31792 0.1408 0.46327 0.25888 0.14534 0.10901 0.28159 0.23618 0.40877 0.38151 0.12717 0.14534 0.25434 0.2816 0.38151 0.40876 0.06358 0.3906 0.11354 0.74032 0.14988 1.0492 0.03633 0.29976 0.0545 0.59498 0.0545 0.88566-0.000006 0.2816-0.01817 0.57681-0.0545 0.88566-0.03634 0.29976-0.0863 0.64494-0.14988 1.0355-0.11809 0.13626-0.25435 0.25434-0.40876 0.35426-0.14534 0.09992-0.34518 0.14988-0.59952 0.14988-0.12718-0.25434-0.20439-0.52231-0.23163-0.8039-0.01817-0.28159-0.02726-0.56773-0.02725-0.85841-0.000004-0.29068-0.01363-0.57681-0.04088-0.85841-0.01817-0.28159-0.09084-0.5541-0.21801-0.81753-0.3906 0.3906-0.7267 0.83116-1.0083 1.3217-0.27251 0.49052-0.54048 0.99466-0.8039 1.5124-0.12717 0.19076-0.25434 0.29976-0.38151 0.32701s-0.25434 0.01817-0.38151-0.02725c-0.12717-0.0545-0.25434-0.11809-0.38152-0.19076-0.12717-0.07267-0.25434-0.109-0.38151-0.109-0.07267-0.70852-0.10446-1.4034-0.09538-2.0847 0.01817-0.69036 0.04088-1.3807 0.06813-2.0711 0.03634-0.69035 0.06359-1.3898 0.08175-2.0983 0.01817-0.7176 0-1.4625-0.0545-2.2346l0.23163-0.77665c0.13625-0.06358 0.26343-0.08628 0.38151-0.06813 0.12717 0.01818 0.24072 0.0636 0.34064 0.13626 0.09992 0.06359 0.17713 0.14081 0.23163 0.23163 0.06358 0.08176 0.09538 0.14989 0.09538 0.20438"/>
      <path id="path4367" d="m27.141 46.638v0.87203c-0.08176 0.000008-0.14534-0.01362-0.19076-0.04088-0.03634-0.02724-0.06359-0.05904-0.08175-0.09538-0.02725-0.03633-0.04088-0.08629-0.04088-0.14988-0.14534 0.14535-0.29068 0.23164-0.43602 0.25888-0.14534 0.01817-0.29522 0.02726-0.44964 0.02725-0.07267-0.07266-0.14534-0.15896-0.21801-0.25888-0.06359-0.109-0.11355-0.218-0.14988-0.32701-0.02725-0.109-0.04088-0.21346-0.04088-0.31339 0.0091-0.109 0.04542-0.20437 0.109-0.28614 0.07267-0.14533 0.17713-0.22708 0.31339-0.24526 0.13625-0.01816 0.27705 0.0046 0.42239 0.06813 0.15442 0.05451 0.29976 0.13172 0.43602 0.23163 0.13625 0.09085 0.24526 0.17714 0.32701 0.25888m-0.31339 3.5563c0.08175 0.43602 0.109 0.87658 0.08175 1.3217-0.01817 0.43602-0.0545 0.86749-0.109 1.2944-0.0545 0.42694-0.11355 0.84024-0.17713 1.2399-0.0545 0.39968-0.08175 0.7812-0.08175 1.1445-0.15442 0.15442-0.29068 0.24072-0.40876 0.25888-0.11809 0.01817-0.23164 0.0091-0.34064-0.02725-0.109-0.04542-0.22255-0.09538-0.34064-0.14988-0.109-0.0545-0.23163-0.08175-0.36789-0.08175-0.15442-1.0265-0.15896-1.9939-0.01363-2.9022 0.14534-0.91745 0.43602-1.8167 0.87203-2.6978 0.14534 0.000006 0.25888 0.01817 0.34064 0.0545 0.09084 0.03634 0.1635 0.08176 0.21801 0.13626 0.0545 0.05451 0.10446 0.11809 0.14988 0.19076s0.10446 0.14534 0.17713 0.21801"/>
      <path id="path4369" d="m29.668 51.352c-0.000002 0.13626 0.01362 0.25889 0.04088 0.36789 0.03633 0.10901 0.06813 0.20439 0.09538 0.28614 0.03633 0.08176 0.06813 0.15897 0.09538 0.23163 0.03633 0.07267 0.0545 0.14534 0.0545 0.21801 0.06358-0.13625 0.1408-0.25434 0.23163-0.35426 0.09992-0.109 0.19984-0.20892 0.29976-0.29976 0.09992-0.09083 0.1953-0.16804 0.28614-0.23163 0.09992-0.07267 0.18167-0.14533 0.24526-0.21801 0.40876-0.07267 0.74032-0.03179 0.99466 0.12263 0.26342 0.14534 0.48143 0.35427 0.65402 0.62677 0.17258 0.27251 0.31792 0.5859 0.43602 0.94016 0.12717 0.35427 0.25888 0.69944 0.39514 1.0355-0.000006 0.27251 0.01362 0.5314 0.04088 0.77665 0.02725 0.24526 0.04541 0.48598 0.0545 0.72215 0.01816 0.24526 0.0227 0.48598 0.01363 0.72215-0.0091 0.24526-0.04542 0.50414-0.109 0.77665-0.13626-0.000001-0.24526 0.02725-0.32701 0.08175-0.08176 0.0545-0.15897 0.10446-0.23163 0.14988-0.06359 0.0545-0.13626 0.09083-0.21801 0.109-0.07268 0.02725-0.17714 0.0091-0.31339-0.0545-0.13626-0.27251-0.21801-0.59044-0.24526-0.95379-0.02726-0.35426-0.04997-0.71761-0.06813-1.09-0.01817-0.38151-0.05905-0.7494-0.12263-1.1037-0.05451-0.35426-0.18622-0.66765-0.39514-0.94016-0.18168 0.09084-0.34064 0.22255-0.47689 0.39514-0.12718 0.16351-0.24526 0.34064-0.35426 0.5314-0.10901 0.19076-0.21801 0.38152-0.32701 0.57227-0.10901 0.18167-0.23618 0.34064-0.38151 0.47689-0.13626 0.12717-0.29976 0.21801-0.49052 0.27251-0.19076 0.04542-0.42239 0.02271-0.6949-0.06813-0.22709-0.09084-0.39514-0.21347-0.50414-0.36789-0.09992-0.16351-0.16351-0.34972-0.19076-0.55865-0.02725-0.20892-0.02725-0.43147 0-0.66765 0.02725-0.24526 0.05904-0.49506 0.09538-0.7494 0.03633-0.25434 0.06358-0.50868 0.08175-0.76303 0.02725-0.25434 0.01817-0.49506-0.02725-0.72215-0.000001-0.19984 0.05904-0.37697 0.17713-0.53139s0.2498-0.25888 0.39514-0.31339c0.15442-0.0545 0.3043-0.04087 0.44964 0.04088 0.15442 0.08176 0.26797 0.25889 0.34064 0.5314"/>
      <path id="path4371" d="m38.104 54.118c0.04541 0.4996 0.08175 1.0219 0.109 1.5669 0.03633 0.5541 0.04541 1.1082 0.02725 1.6623-0.01817 0.5541-0.07722 1.0946-0.17713 1.6214-0.09992 0.53593-0.26343 1.0355-0.49052 1.4988-0.21801 0.47235-0.50869 0.89928-0.87203 1.2808-0.36335 0.39059-0.81753 0.71306-1.3626 0.96741-0.38152 0.38151-0.80845 0.5768-1.2808 0.5859-0.48143 0.01816-0.98104-0.10447-1.4988-0.36789 0.50869-0.30885 1.0174-0.65403 1.5261-1.0355 0.50869-0.38152 0.95833-0.80391 1.3489-1.2672 0.39968-0.45419 0.70852-0.95379 0.92653-1.4988 0.22709-0.53594 0.30884-1.1173 0.24526-1.7441v-2.003c-0.12717 0.06359-0.26797 0.09992-0.42239 0.109-0.15442 0-0.31339-0.01362-0.47689-0.04088-0.15442-0.03634-0.30885-0.08175-0.46327-0.13626-0.14534-0.06358-0.2816-0.13171-0.40877-0.20438-0.25434-0.4996-0.37243-0.9992-0.35426-1.4988s0.21347-1.0083 0.5859-1.5261c0.27251-0.24526 0.57681-0.41784 0.91291-0.51777 0.33609-0.109 0.63131-0.09992 0.88566 0.02725 0.30884 0.12718 0.52231 0.29522 0.6404 0.50414 0.12717 0.19984 0.21346 0.41785 0.25888 0.65402 0.0545 0.23618 0.09537 0.4769 0.12263 0.72215 0.02725 0.23618 0.09992 0.44964 0.21801 0.6404m-2.2618 0.28614c0.109-0.11809 0.19076-0.24072 0.24526-0.36789 0.06358-0.12717 0.11809-0.2498 0.16351-0.36789 0.04542-0.12717 0.09992-0.25434 0.16351-0.38151 0.06358-0.12717 0.14988-0.25434 0.25888-0.38152-0.10901 0.12717-0.23618 0.25889-0.38151 0.39514-0.14534 0.13626-0.27251 0.26797-0.38152 0.39514-0.09992 0.12717-0.16805 0.25434-0.20438 0.38151-0.02725 0.11809 0.01817 0.22709 0.13626 0.32701"/>
      <path id="path4373" d="m41.571 49.2c0.0545 0.11809 0.06812 0.22256 0.04088 0.31339-0.01817 0.08176-0.06813 0.15443-0.14988 0.21801-0.07267 0.05451-0.16805 0.09993-0.28614 0.13626-0.10901 0.02726-0.22255 0.04088-0.34064 0.04088 0.23617 0.24526 0.48143 0.49507 0.73578 0.7494 0.25434 0.24526 0.48143 0.50415 0.68128 0.77665 0.19984 0.27251 0.34972 0.56319 0.44964 0.87203 0.109 0.30885 0.13171 0.6404 0.06813 0.99466-0.000004 0.37243-0.06813 0.68582-0.20438 0.94016-0.13626 0.24526-0.30885 0.44964-0.51777 0.61315-0.20893 0.16351-0.4451 0.29522-0.70853 0.39514-0.25434 0.09084-0.50415 0.16805-0.7494 0.23163-0.36335 0.12717-0.71761 0.1408-1.0628 0.04088-0.3361-0.109-0.62223-0.28614-0.85841-0.5314-0.06359-0.23617-0.02271-0.39514 0.12263-0.47689 0.15442-0.09083 0.34064-0.14988 0.55865-0.17713 0.22709-0.02725 0.45872-0.04996 0.6949-0.06813 0.24526-0.02725 0.42693-0.10446 0.54502-0.23163 0.24526-0.12717 0.43601-0.25888 0.57227-0.39514 0.14534-0.14534 0.28159-0.33609 0.40876-0.57227 0.03633-0.31792-0.0318-0.60406-0.20438-0.85841-0.17259-0.25434-0.38152-0.48597-0.62677-0.6949-0.24526-0.218-0.4996-0.42693-0.76303-0.62677-0.25434-0.19984-0.44964-0.40422-0.5859-0.61315-0.13626-0.218-0.18167-0.44964-0.13626-0.6949 0.04542-0.25434 0.2498-0.54501 0.61315-0.87203 0.18167 0.000007 0.3588-0.01816 0.5314-0.0545 0.18167-0.04541 0.34518-0.06812 0.49052-0.06813 0.15442 0.000007 0.29067 0.04088 0.40876 0.12263 0.11808 0.08176 0.20892 0.24527 0.27251 0.49052"/>
      <path id="path4375" d="m53.683 46.229c0.0545 0.35427 0.07267 0.71762 0.0545 1.09-0.0091 0.37244-0.0318 0.74941-0.06813 1.1309-0.02725 0.37244-0.06359 0.74487-0.109 1.1173-0.03634 0.37244-0.0545 0.73578-0.0545 1.09 0.09992 0.10901 0.218 0.1953 0.35426 0.25888 0.13625 0.06359 0.26796 0.12718 0.39514 0.19076 0.12717 0.06359 0.23163 0.1408 0.31339 0.23163 0.09083 0.08176 0.13625 0.1953 0.13626 0.34064-0.09992 0.04542-0.19984 0.07267-0.29976 0.08175-0.09084 0.0091-0.19076 0.01363-0.29976 0.01362-0.09992 0.000004-0.19984 0.0045-0.29976 0.01363-0.09992 0.000003-0.19984 0.02271-0.29976 0.06813-0.000003 0.25435-0.0091 0.5314-0.02725 0.83116-0.01817 0.29976-0.03634 0.60861-0.0545 0.92654-0.0091 0.30885-0.01363 0.62678-0.01362 0.95378 0.0091 0.31793 0.04087 0.63132 0.09538 0.94016-0.20893 0.09084-0.38152 0.13626-0.51777 0.13626-0.13626 0-0.30431-0.04542-0.50414-0.13626-0.14534-0.36335-0.23164-0.69944-0.25888-1.0083-0.01817-0.30884-0.01363-0.6086 0.01363-0.89928 0.02725-0.29068 0.0545-0.57681 0.08175-0.85841 0.02725-0.28159 0.01362-0.57681-0.04088-0.88566-0.06359-0.09992-0.14988-0.15896-0.25888-0.17713-0.09992-0.02725-0.21347-0.03179-0.34064-0.01362-0.12717 0.0091-0.26343 0.02725-0.40876 0.0545-0.13626 0.01817-0.26797 0.02271-0.39514 0.01362-0.12717-0.0091-0.24526-0.04541-0.35426-0.109-0.09992-0.07267-0.18167-0.19529-0.24526-0.36789-0.0545-0.14534-0.04996-0.25888 0.01363-0.34064 0.06359-0.08175 0.15442-0.14079 0.27251-0.17713 0.12717-0.04541 0.27251-0.06812 0.43602-0.06813 0.1635-0.0091 0.32247-0.01362 0.47689-0.01363h0.8039l0.42239-4.6463c-0.000003-0.29975 0.04996-0.47234 0.14988-0.51777 0.09992-0.05449 0.20892-0.04087 0.32701 0.04088 0.12717 0.07268 0.24071 0.18622 0.34064 0.34064 0.109 0.14535 0.1635 0.26344 0.16351 0.35426"/>
      <path id="path4377" d="m60.356 51.257c0.23617 0.62678 0.34517 1.1945 0.32701 1.7032-0.01817 0.50869-0.21801 1.0128-0.59952 1.5124-0.49052 0.49052-1.031 0.80845-1.6214 0.95378-0.59044 0.14534-1.199 0.14988-1.8258 0.01363-0.12717-0.0545-0.24072-0.12263-0.34064-0.20438-0.09084-0.09084-0.18168-0.19076-0.27251-0.29976-0.09084-0.109-0.18622-0.22255-0.28614-0.34064-0.09084-0.11809-0.1953-0.24072-0.31339-0.36789-0.07267-0.24526-0.109-0.51777-0.109-0.81753s0.03179-0.59498 0.09538-0.88566c0.06358-0.29976 0.15442-0.58135 0.27251-0.84478 0.11809-0.26342 0.26797-0.48597 0.44964-0.66765 0.30884-0.43601 0.66765-0.75848 1.0764-0.96741 0.40876-0.218 0.81299-0.31792 1.2127-0.29976 0.40876 0.0091 0.78573 0.1408 1.1309 0.39514 0.34518 0.24526 0.61314 0.61769 0.80391 1.1173m-1.254 0.981c0.0545-0.12717 0.05904-0.25888 0.01362-0.39514-0.04542-0.13625-0.12263-0.24071-0.23163-0.31339-0.10901-0.08175-0.23618-0.11354-0.38152-0.09538-0.13626 0.01817-0.27251 0.11809-0.40876 0.29976-0.09992-0.11808-0.21801-0.13625-0.35426-0.0545-0.12717 0.08176-0.2498 0.19076-0.36789 0.32701-0.0545 0.12718-0.13626 0.26797-0.24526 0.42239-0.09992 0.14534-0.19076 0.30431-0.27251 0.47689-0.08176 0.17259-0.13172 0.34972-0.14988 0.5314-0.0091 0.18168 0.04542 0.36789 0.16351 0.55865h1.2263c0.38151-0.13625 0.64494-0.36789 0.79028-0.6949 0.14533-0.33609 0.218-0.69036 0.21801-1.0628"/>
      <path id="path4379" d="m74.006 43.64c0.14533 0.35428 0.23617 0.75396 0.27251 1.199 0.04541 0.43603 0.06358 0.89021 0.0545 1.3626-0.000007 0.46328-0.01363 0.93563-0.04088 1.4171-0.02726 0.47236-0.04088 0.922-0.04088 1.3489-0.19985 0.49961-0.29523 0.99921-0.28614 1.4988 0.0091 0.49052 0.04541 0.98104 0.109 1.4716 0.07266 0.49052 0.14079 0.98104 0.20438 1.4716 0.06358 0.49052 0.0545 0.98558-0.02725 1.4852-0.3361 0.20892-0.67674 0.35426-1.0219 0.43602-0.34518 0.08175-0.70399 0.12263-1.0764 0.12263-0.36335 0-0.74486-0.02725-1.1445-0.08175-0.3906-0.06358-0.79937-0.13171-1.2263-0.20438-0.14534-0.14534-0.31793-0.29068-0.51777-0.43602-0.19076-0.14534-0.38152-0.29976-0.57227-0.46327-0.19076-0.1635-0.36789-0.33155-0.5314-0.50414-0.16351-0.18167-0.28159-0.37697-0.35426-0.5859v-0.65402c0.0091-0.23617 0.03179-0.46781 0.06813-0.6949 0.03634-0.23617 0.09084-0.45872 0.16351-0.66765 0.07267-0.20892 0.17713-0.38605 0.31339-0.5314 0.20892-0.19984 0.43602-0.35426 0.68128-0.46327 0.24526-0.11808 0.49052-0.19984 0.73578-0.24526 0.24526-0.0545 0.48597-0.08629 0.72215-0.09538 0.24526-0.0091 0.47235-0.01362 0.68128-0.01363 0.13625 0.000005 0.28613 0.05451 0.44964 0.16351 0.1635 0.10901 0.31338 0.19985 0.44964 0.27251 0.14534 0.07268 0.26342 0.09084 0.35426 0.0545 0.09992-0.03633 0.14988-0.19984 0.14988-0.49052l0.341-6.174c0.06358-0.20891 0.14533-0.34062 0.24526-0.39514 0.09992-0.06357 0.19984-0.0772 0.29976-0.04088 0.09991 0.03635 0.19529 0.09993 0.28614 0.19076 0.09991 0.08176 0.18621 0.16352 0.25888 0.24526m-1.7304 8.734c-0.13626-0.218-0.33156-0.40422-0.5859-0.55864-0.24526-0.1635-0.4996-0.27251-0.76303-0.32701-0.25435-0.0545-0.49052-0.04087-0.70853 0.04088-0.21801 0.08176-0.36335 0.25889-0.43602 0.5314-0.12717 0.15442-0.19076 0.34518-0.19076 0.57227-0.000002 0.2271 0.06358 0.40877 0.19076 0.54502 0.43601 0.29068 0.8584 0.50415 1.2672 0.6404 0.41784 0.12717 0.82661 0.19076 1.2263 0.19076v-1.6351"/>
      <path id="path4381" d="m79.703 51.257c0.23617 0.62678 0.34517 1.1945 0.32701 1.7032-0.01817 0.50869-0.21801 1.0128-0.59952 1.5124-0.49052 0.49052-1.031 0.80845-1.6214 0.95378-0.59044 0.14534-1.199 0.14988-1.8258 0.01363-0.12717-0.0545-0.24072-0.12263-0.34064-0.20438-0.09084-0.09084-0.18167-0.19076-0.27251-0.29976s-0.18622-0.22255-0.28614-0.34064c-0.09084-0.11809-0.1953-0.24072-0.31339-0.36789-0.07267-0.24526-0.109-0.51777-0.109-0.81753-0.000001-0.29976 0.03179-0.59498 0.09538-0.88566 0.06359-0.29976 0.15442-0.58135 0.27251-0.84478 0.11809-0.26342 0.26797-0.48597 0.44964-0.66765 0.30884-0.43601 0.66765-0.75848 1.0764-0.96741 0.40876-0.218 0.81299-0.31792 1.2127-0.29976 0.40876 0.0091 0.78573 0.1408 1.1309 0.39514 0.34518 0.24526 0.61314 0.61769 0.8039 1.1173m-1.254 0.981c0.0545-0.12717 0.05904-0.25888 0.01363-0.39514-0.04542-0.13625-0.12263-0.24071-0.23163-0.31339-0.10901-0.08175-0.23618-0.11354-0.38151-0.09538-0.13626 0.01817-0.27251 0.11809-0.40876 0.29976-0.09992-0.11808-0.21801-0.13625-0.35426-0.0545-0.12717 0.08176-0.2498 0.19076-0.36789 0.32701-0.0545 0.12718-0.13626 0.26797-0.24526 0.42239-0.09992 0.14534-0.19076 0.30431-0.27251 0.47689-0.08175 0.17259-0.13172 0.34972-0.14988 0.5314-0.0091 0.18168 0.04542 0.36789 0.16351 0.55865h1.2263c0.38151-0.13625 0.64494-0.36789 0.79028-0.6949 0.14534-0.33609 0.218-0.69036 0.21801-1.0628"/>
     </g>
     <g id="layer3" transform="translate(182.19 996.77)">
      <path id="path3589" d="m118.38 11.031c-0.52336-0.06895-1.0579-0.0102-1.5625 0.125-1.0064 0.26967-1.8855 0.91897-2.4375 1.875l-2.0625 3.5625a1.0492 1.0492 0 0 0 -0.84375 0.53125l-9.5 16.469-36 62.344a1.0492 1.0492 0 0 0 -0.09375 0.25l-6.386 24.032a1.0492 1.0492 0 0 0 1.75 1.03l17.625-17.53a1.0492 1.0492 0 0 0 0.156 -0.22l36-62.344 9.5-16.469a1.0492 1.0492 0 0 0 0.0625 -0.90625l2.0938-3.625c1.1113-1.9248 0.4576-4.4191-1.4688-5.5312l-5.31-3.063c-0.47927-0.2767-1.0079-0.4623-1.5312-0.53125z" style="opacity:.3;filter:url(#filter3963);fill:url(#linearGradient7236)" transform="matrix(.71418 .12539 -.12539 .71418 2.6569 -15.448)"/>
      <path id="path3712" d="m118.38 11.031c-0.52336-0.06895-1.0579-0.0102-1.5625 0.125-1.0064 0.26967-1.8855 0.91897-2.4375 1.875l-2.0625 3.5625a1.0492 1.0492 0 0 0 -0.84375 0.53125l-9.5 16.469-36 62.344a1.0492 1.0492 0 0 0 -0.09375 0.25l-6.386 24.032a1.0492 1.0492 0 0 0 1.75 1.03l17.625-17.53a1.0492 1.0492 0 0 0 0.156 -0.22l36-62.344 9.5-16.469a1.0492 1.0492 0 0 0 0.0625 -0.90625l2.0938-3.625c1.1113-1.9248 0.4576-4.4191-1.4688-5.5312l-5.31-3.063c-0.47927-0.2767-1.0079-0.4623-1.5312-0.53125z" style="opacity:.5;filter:url(#filter3963);fill:url(#linearGradient7238)" transform="matrix(.62741 .3635 -.3635 .62741 36.873 -19.139)"/>
      <g id="g3643" transform="matrix(-.62795 -.36255 .36255 -.62795 120.29 131.31)">
       <g id="g3537">
        <rect id="rect3483" style="stroke-linejoin:round;stroke:#df453f;stroke-width:1.3791;fill:url(#linearGradient7240)" rx="3" ry="3" height="16" width="12.116" y="107.49" x="136.91"/>
        <path id="path3493" d="m141.24 118.19a1.5468 3.9775 0 1 1 -3.0936 0 1.5468 3.9775 0 1 1 3.0936 0z" style="opacity:.3;filter:url(#filter3495);fill:#701300" transform="matrix(1.8857,0,0,1,-123.51,-1.9445)"/>
        <path id="path3499" style="opacity:.8;filter:url(#filter3509);fill:#fff;fill-rule:evenodd" d="m146.31 113.12c-0.85193 9.5067-3.9375 8.3125-6.5 8.9375 4.0763 0.0625 8.625-0.0625 8.625-0.0625-2.4375-0.5625-1.8125-2.375-2.125-8.875z"/>
        <rect id="rect3525" style="opacity:.2;fill:url(#linearGradient7242)" height="1" width="12.119" y="115.97" x="136.41"/>
       </g>
       <g id="g3311" transform="translate(23.733)">
        <path id="rect2480" style="stroke-linejoin:round;stroke:url(#linearGradient7246);stroke-width:1.3791;fill:url(#linearGradient7244)" d="m112.77 24.5 6.5-24 6.5 24v72h-13v-72z"/>
        <path id="path3272" style="fill:url(#linearGradient7248);fill-rule:evenodd" d="m117.69 8.0717 3.1426 0.022097-1.5824-5.7913"/>
        <path id="path3274" style="fill:url(#linearGradient7250);fill-rule:evenodd" d="m117.73 8.0902-3.77 13.91s-0.46779 1.6535-0.698 2.6083c-0.19122 0.64228 1.9589 1.6113 3.0182-1.6083 1.2153 4.5138 5.5759 3.438 5.9883 0.01105 0.3425 1.7015 1.754 2.95 2.9886 1.5219-0.23478-0.90874-0.43641-1.5219-0.43641-1.5219l-4.0217-14.921h-3.0715z"/>
        <path id="path3294" style="opacity:.5;stroke:url(#linearGradient7252);stroke-width:1.3791px;fill:none" d="m122.37 96.305v-67.217"/>
        <path id="path3304" style="opacity:.5;stroke:url(#linearGradient7254);stroke-width:1.3791px;fill:none" d="m116.25 96.305v-67.217"/>
        <path id="path3372" style="opacity:.4;filter:url(#filter3382);fill:#ac4311;fill-rule:evenodd" d="m118.7 5.9799-4.773 17.899 1.9887-0.83969 2.7842-17.059z"/>
        <path id="path3386" style="opacity:.15;stroke:#4d2600;stroke-width:1.3791px;fill:none" d="m113.08 24.625s1.4867 1.7649 3.25-1.5312c2 5.25 5.1686 2.0871 5.9375-0.03125 1.375 3.4375 3.125 1.4375 3.125 1.4375"/>
        <path id="path3388" style="opacity:.8;filter:url(#filter3390);fill:#fff;fill-rule:evenodd" transform="matrix(1.1224,0,0,1.345,-41.703,-4.7709)" d="m144.06 8.9375-0.375 12.5 3.0625-0.3125l-2.68-12.189z"/>
       </g>
       <g id="g3620">
        <rect id="rect3333" style="stroke-linejoin:round;stroke:url(#linearGradient7258);stroke-width:1.3791;fill:url(#linearGradient7256)" height="19" width="13" y="96.5" x="136.5"/>
        <rect id="rect3337" style="opacity:.4;fill:url(#linearGradient7260)" height="1" width="12" y="100" x="137"/>
        <rect id="rect3351" style="opacity:.6;fill:url(#linearGradient7262)" height="1" width="12" y="101" x="137"/>
        <rect id="rect3369" style="opacity:.4;fill:url(#linearGradient7264)" height="1" width="12" y="102" x="137"/>
        <rect id="rect3371" style="opacity:.6;fill:url(#linearGradient7266)" height="1" width="12" y="103" x="137"/>
        <rect id="rect3379" style="opacity:.4;fill:url(#linearGradient7268)" height="1" width="12" y="108" x="137"/>
        <rect id="rect3381" style="opacity:.6;fill:url(#linearGradient7270)" height="1" width="12" y="109" x="137"/>
        <rect id="rect3385" style="opacity:.4;fill:url(#linearGradient7272)" height="1" width="12" y="110" x="137"/>
        <rect id="rect3387" style="opacity:.6;fill:url(#linearGradient7274)" height="1" width="12" y="111" x="137"/>
        <rect id="rect3437" style="opacity:.3;fill:url(#linearGradient7276)" height="4" width="12" y="104" x="137"/>
        <path id="path3449" d="m140 106.08a1.1013 8.3969 0 1 1 -2.2026 0 1.1013 8.3969 0 1 1 2.2026 0z" style="opacity:.6;filter:url(#filter3451)" transform="matrix(1.2554,0,0,1,-35.754,0)"/>
        <path id="path3455" style="opacity:.8;filter:url(#filter3457);fill:#fff" d="m147.34 106.04a1.1932 8.0878 0 1 1 -2.3865 0 1.1932 8.0878 0 1 1 2.3865 0z"/>
       </g>
      </g>
     </g>
    </g>
    <g id="layer5" transform="translate(182.19 996.77)">
     <rect id="rect3171" style="opacity:.1;filter:url(#filter3794-58);stroke:#fff;stroke-linecap:round;stroke-width:.5;fill:url(#linearGradient3462)" clip-path="url(#clipPath3613-90)" rx="12" ry="12" height="66" width="66" y="15" x="15"/>
    </g>
   </g>
  </g>
 </g>
</svg>
