<?xml version="1.0" encoding="UTF-8" standalone="no"?>
<!-- Created with Inkscape (http://www.inkscape.org/) -->
<svg id="svg2982" xmlns:rdf="http://www.w3.org/1999/02/22-rdf-syntax-ns#" xmlns="http://www.w3.org/2000/svg" height="96" width="96" version="1.1" xmlns:cc="http://creativecommons.org/ns#" xmlns:xlink="http://www.w3.org/1999/xlink" xmlns:dc="http://purl.org/dc/elements/1.1/">
 <defs id="defs2984">
  <filter id="filter6279" color-interpolation-filters="sRGB">
   <feGaussianBlur id="feGaussianBlur6281" stdDeviation="0.8"/>
  </filter>
  <linearGradient id="linearGradient10902-1" x1="48" gradientUnits="userSpaceOnUse" y1="1052.4" gradientTransform="translate(0 -.0000096172)" x2="48" y2="902.36">
   <stop id="stop3621-7" style="stop-color:#d2d2d2" offset="0"/>
   <stop id="stop3623-5" style="stop-color:#f0f0f0" offset="1"/>
  </linearGradient>
  <linearGradient id="linearGradient6911" x1="50.253" gradientUnits="userSpaceOnUse" y1="20.249" gradientTransform="matrix(.90351 0 0 .90351 5.7205 961.88)" x2="50.253" y2="75.616">
   <stop id="stop5422" style="stop-color:#525252" offset="0"/>
   <stop id="stop5498" style="stop-color:#cecece" offset=".21238"/>
   <stop id="stop5424" style="stop-color:#fdfdfd" offset=".60427"/>
   <stop id="stop5428" style="stop-color:#7c7c7c" offset=".7434"/>
   <stop id="stop5426" style="stop-color:#040404" offset="1"/>
  </linearGradient>
  <filter id="filter3775" color-interpolation-filters="sRGB">
   <feGaussianBlur id="feGaussianBlur3777" stdDeviation="0.4875"/>
  </filter>
  <linearGradient id="linearGradient6913" x1="46.797" gradientUnits="userSpaceOnUse" y1="31.772" gradientTransform="matrix(.86667 0 0 1.7455 -14.6 -14.982)" x2="46.797" y2="36.257">
   <stop id="stop5435" style="stop-color:#8d8d8d" offset="0"/>
   <stop id="stop5441" style="stop-color:#fff" offset=".325"/>
   <stop id="stop5443" style="stop-color:#686868" offset=".58021"/>
   <stop id="stop5437" style="stop-color:#b3b3b3" offset="1"/>
  </linearGradient>
  <linearGradient id="linearGradient6915" x1="34.154" gradientUnits="userSpaceOnUse" y1="33.946" gradientTransform="matrix(.97917 0 0 1 1.4896 3)" x2="34.154" y2="46.011">
   <stop id="stop5465" style="stop-color:#d40000" offset="0"/>
   <stop id="stop5471" style="stop-color:#ff8c67" offset=".33869"/>
   <stop id="stop5473" style="stop-color:#d40000" offset=".60885"/>
   <stop id="stop5467" style="stop-color:#6e0000" offset="1"/>
  </linearGradient>
  <linearGradient id="linearGradient6918" x1="46.797" gradientUnits="userSpaceOnUse" y1="31.658" gradientTransform="matrix(.86667 0 0 1.3636 6.4 -6.4545)" x2="46.797" y2="42.515">
   <stop id="stop3695" style="stop-color:#8d8d8d" offset="0"/>
   <stop id="stop3697-4" style="stop-color:#fff" offset=".25844"/>
   <stop id="stop3699-1" style="stop-color:#686868" offset=".54386"/>
   <stop id="stop3711" style="stop-color:#b1b1b1" offset="1"/>
  </linearGradient>
  <linearGradient id="linearGradient6921" x1="50.498" gradientUnits="userSpaceOnUse" y1="42.384" gradientTransform="matrix(1 0 0 .88235 0 4.2941)" x2="50.498" y2="53.954">
   <stop id="stop3733" style="stop-color:#4d4d4d" offset="0"/>
   <stop id="stop3735" style="stop-color:#878787" offset="1"/>
  </linearGradient>
  <linearGradient id="linearGradient6923" x1="55.62" xlink:href="#linearGradient5274" gradientUnits="userSpaceOnUse" y1="35.702" gradientTransform="matrix(.13333 0 0 1.0909 33.6 2.6364)" x2="39.929" y2="35.702"/>
  <linearGradient id="linearGradient5274">
   <stop id="stop5276" offset="0"/>
   <stop id="stop5278" style="stop-opacity:0" offset="1"/>
  </linearGradient>
  <linearGradient id="linearGradient6925" x1="55.62" xlink:href="#linearGradient5274" gradientUnits="userSpaceOnUse" y1="35.702" gradientTransform="matrix(-.13333 0 0 1.0909 62.356 2.6364)" x2="39.929" y2="35.702"/>
 </defs>
 <metadata id="metadata2987">
  <rdf:RDF>
   <cc:Work rdf:about="">
    <dc:format>image/svg+xml</dc:format>
    <dc:type rdf:resource="http://purl.org/dc/dcmitype/StillImage"/>
    <dc:title/>
   </cc:Work>
  </rdf:RDF>
 </metadata>
 <g id="layer1" transform="translate(0 -956.36)">
  <g id="g6942">
   <rect id="rect9283" style="filter:url(#filter6279)" rx="5" ry="5" height="80" width="80" y="964.36" x="8"/>
   <rect id="rect9285" style="fill:url(#linearGradient10902-1)" rx="5" ry="5" height="80" width="80" y="964.36" x="8"/>
   <g id="g6899" transform="matrix(1.04 0 0 1.04 -.70321 -40.907)">
    <path id="path5323" style="fill:url(#linearGradient6911)" d="m49.089 979.95-6.7763 5.421-6.7763 5.4211h6.3245v28.912h-6.3245l6.7763 5.421 6.7763 5.421 6.7763-5.421 6.7763-5.421h-6.3245v-28.912h6.3245l-6.7763-5.4211-6.7763-5.421z"/>
    <path id="path3779" style="opacity:.3" d="m49.089 979.95-6.7763 5.421-6.7763 5.4211h6.3245v28.912h-6.3245l6.7763 5.421 6.7763 5.421 6.7763-5.421 6.7763-5.421h-6.3245v-28.912h6.3245l-6.7763-5.4211-6.7763-5.421zm0 0.9318 6.3245 5.0539 5.1387 4.1223h-4.2352a0.72198 0.72198 0 0 0 -0.73409 0.7341v28.912a0.72198 0.72198 0 0 0 0.73409 0.7341h4.2352l-5.1387 4.1222-6.3245 5.054-6.3245-5.054-5.1387-4.1222h4.2352a0.72198 0.72198 0 0 0 0.7341 -0.7341v-28.912a0.72198 0.72198 0 0 0 -0.7341 -0.7341h-4.2352l5.1387-4.1223 6.3245-5.0539z"/>
    <g id="layer6" transform="matrix(.90351 0 0 .90351 5.7205 961.88)">
     <path id="rect5504" style="opacity:.15;filter:url(#filter3775)" d="m43.5 47c-5.5568 0-10.573 0.29423-14.219 0.75-1.8231 0.22789-3.2866 0.4678-4.3438 0.78125-0.52856 0.15673-0.95096 0.32846-1.2812 0.53125-0.33 0.203-0.656 0.497-0.656 0.938h-1.5c-1.376 0-2.5 1.124-2.5 2.5v1c0 1.3764 1.1236 2.5 2.5 2.5h1.5c0 0.44148 0.32596 0.73471 0.65625 0.9375s0.75269 0.37452 1.2812 0.53125c1.0571 0.31346 2.5207 0.55336 4.3438 0.78125 3.646 0.456 8.662 0.75 14.219 0.75h8c5.5568 0 10.573-0.29423 14.219-0.75 1.8231-0.22789 3.2866-0.4678 4.3438-0.78125 0.52856-0.15673 0.95096-0.32846 1.2812-0.53125 0.33-0.203 0.656-0.497 0.656-0.938v-6c0-0.441-0.326-0.735-0.656-0.938-0.331-0.202-0.753-0.374-1.282-0.531-1.057-0.313-2.52-0.553-4.343-0.781-3.646-0.456-8.662-0.75-14.219-0.75h-8z"/>
     <rect id="rect3725" style="fill:#333" height="6" width="16" y="46" x="40"/>
     <rect id="rect5500" style="stroke:#474747;fill:url(#linearGradient6913)" rx="2" height="6" width="13" y="40" x="20.5"/>
     <rect id="rect5461" style="stroke:#800000;fill:url(#linearGradient6915)" rx="19.583" ry="2.5" height="11" width="47" y="37.5" x="24.5"/>
     <rect id="rect5431" style="stroke:url(#linearGradient6921);fill:url(#linearGradient6918)" height="15" width="13" y="36.5" x="41.5"/>
     <path id="rect5475" style="opacity:.6;fill:url(#linearGradient6923)" d="m38.956 37.105 2.044-0.105v12l-2-0.105-0.044-11.79z"/>
     <path id="path5490" style="opacity:.6;fill:url(#linearGradient6925)" d="m57 37.105-2.044-0.105v12l2-0.10457 0.044-11.79z"/>
    </g>
   </g>
  </g>
 </g>
</svg>
