<?xml version="1.0" encoding="UTF-8" standalone="no"?>
<!-- Created with Inkscape (http://www.inkscape.org/) -->
<svg id="svg2982" xmlns:rdf="http://www.w3.org/1999/02/22-rdf-syntax-ns#" xmlns="http://www.w3.org/2000/svg" height="96" width="96" version="1.1" xmlns:cc="http://creativecommons.org/ns#" xmlns:xlink="http://www.w3.org/1999/xlink" xmlns:dc="http://purl.org/dc/elements/1.1/">
 <defs id="defs2984">
  <filter id="filter6279" color-interpolation-filters="sRGB">
   <feGaussianBlur id="feGaussianBlur6281" stdDeviation="0.8"/>
  </filter>
  <linearGradient id="linearGradient10902-1" x1="48" gradientUnits="userSpaceOnUse" y1="1052.4" gradientTransform="translate(0 -.0000096172)" x2="48" y2="902.36">
   <stop id="stop3678-5" style="stop-color:#68d003" offset="0"/>
   <stop id="stop3680" style="stop-color:#c0f988" offset="1"/>
  </linearGradient>
  <linearGradient id="linearGradient6106" y2="138.66" gradientUnits="userSpaceOnUse" y1="20.221" x2="48" x1="48">
   <stop id="stop3739-61" style="stop-color:#fff" offset="0"/>
   <stop id="stop3741-37" style="stop-color:#fff;stop-opacity:0" offset="1"/>
  </linearGradient>
  <clipPath id="clipPath3613-7">
   <rect id="rect3615-12" style="fill:#fff" rx="6" ry="6" height="84" width="84" y="6" x="6"/>
  </clipPath>
  <filter id="filter3794-10" width="1.384" y="-.192" x="-.192" height="1.384" color-interpolation-filters="sRGB">
   <feGaussianBlur id="feGaussianBlur3796-8" stdDeviation="5.28"/>
  </filter>
  <linearGradient id="linearGradient3197" x1="12.75" gradientUnits="userSpaceOnUse" y1="48" gradientTransform="matrix(0 -.78014 .78014 0 2.8032 93.417)" x2="83.25" y2="48">
   <stop id="stop3705-8" style="stop-color:#a8e66c" offset="0"/>
   <stop id="stop3707-7" style="stop-color:#dbfabd" offset="1"/>
  </linearGradient>
  <radialGradient id="radialGradient3194" gradientUnits="userSpaceOnUse" cy="48" cx="48" gradientTransform="matrix(.78014 0 0 .78014 2.8032 18.523)" r="35.25">
   <stop id="stop3769-8" style="stop-color:#6bd107" offset="0"/>
   <stop id="stop3771-6" style="stop-color:#6bd107;stop-opacity:0" offset="1"/>
  </radialGradient>
 </defs>
 <metadata id="metadata2987">
  <rdf:RDF>
   <cc:Work rdf:about="">
    <dc:format>image/svg+xml</dc:format>
    <dc:type rdf:resource="http://purl.org/dc/dcmitype/StillImage"/>
    <dc:title/>
   </cc:Work>
  </rdf:RDF>
 </metadata>
 <g id="layer1" transform="translate(0 -956.36)">
  <g id="g6195">
   <rect id="rect9283" style="filter:url(#filter6279)" rx="5" ry="5" height="80" width="80" y="964.36" x="8"/>
   <rect id="rect9285" style="fill:url(#linearGradient10902-1)" rx="5" ry="5" height="80" width="80" y="964.36" x="8"/>
   <rect id="rect3171" style="opacity:.1;filter:url(#filter3794-10);stroke:#fff;stroke-linecap:round;stroke-width:.5;fill:url(#linearGradient6106)" clip-path="url(#clipPath3613-7)" rx="12" ry="12" transform="translate(0 956.36)" width="66" y="15" x="15" height="66"/>
   <g id="g3211" transform="translate(7.75 947.61)">
    <path id="path3738" style="opacity:.3;color:#000000" d="m34.496 29.25c-3.4942 0.72811-6.744 2.1278-9.6299 4.0226 0.08411 2.1028-0.66405 4.2234-2.2673 5.8267-1.6032 1.6032-3.7239 2.3514-5.8267 2.2673-1.8948 2.8859-3.2945 6.1357-4.0226 9.6299 1.5588 1.4264 2.5355 3.4741 2.5355 5.7535 0 2.2795-0.97661 4.3272-2.5355 5.7535 0.72811 3.4942 2.1278 6.744 4.0226 9.6299 2.1028-0.08411 4.2234 0.66405 5.8267 2.2673 1.6032 1.6032 2.3514 3.7239 2.2673 5.8267 2.8859 1.8948 6.1357 3.2945 9.6299 4.0226 1.4264-1.5588 3.4741-2.5355 5.7535-2.5355 2.2795 0 4.3272 0.97661 5.7535 2.5355 3.4829-0.72575 6.7266-2.1129 9.6055-3.9982-0.0049-0.11261 0-0.22872 0-0.34131 0-1.9966 0.76835-3.9864 2.2917-5.5098 1.6032-1.6032 3.7239-2.3514 5.8267-2.2673 1.8948-2.8859 3.2945-6.1357 4.0226-9.6299-1.5588-1.4264-2.5355-3.4741-2.5355-5.7535 0-2.2795 0.97661-4.3272 2.5355-5.7535-0.72811-3.4942-2.1278-6.744-4.0226-9.6299-2.1028 0.08411-4.2234-0.66405-5.8267-2.2673-1.5233-1.5233-2.2917-3.5132-2.2917-5.5098 0-0.11259-0.0049-0.2287 0-0.34131-2.878-1.887-6.122-3.274-9.604-4-1.427 1.559-3.475 2.535-5.754 2.535-2.2795 0-4.3272-0.97661-5.7535-2.5355zm5.754 21.259c3.4469 0 6.2411 2.7943 6.2411 6.2411 0 3.4469-2.7943 6.2411-6.2411 6.2411-3.4469 0-6.2411-2.7943-6.2411-6.2411 0-3.4469 2.7943-6.2411 6.2411-6.2411z"/>
    <path id="path3683" style="color:#000000;fill:url(#linearGradient3197)" d="m34.496 28.47c-3.4942 0.72811-6.744 2.1278-9.6299 4.0226 0.08411 2.1028-0.66405 4.2234-2.2673 5.8267-1.6032 1.6032-3.7239 2.3514-5.8267 2.2673-1.8948 2.8859-3.2945 6.1357-4.0226 9.6299 1.5588 1.4264 2.5355 3.4741 2.5355 5.7535 0 2.2795-0.97661 4.3272-2.5355 5.7535 0.72811 3.4942 2.1278 6.744 4.0226 9.6299 2.1028-0.08411 4.2234 0.66405 5.8267 2.2673 1.6032 1.6032 2.3514 3.7239 2.2673 5.8267 2.8859 1.8948 6.1357 3.2945 9.6299 4.0226 1.4264-1.5588 3.4741-2.5355 5.7535-2.5355 2.2795 0 4.3272 0.97661 5.7535 2.5355 3.4829-0.72575 6.7266-2.1129 9.6055-3.9982-0.0049-0.11261 0-0.22872 0-0.34131 0-1.9966 0.76835-3.9864 2.2917-5.5098 1.6032-1.6032 3.7239-2.3514 5.8267-2.2673 1.8948-2.8859 3.2945-6.1357 4.0226-9.6299-1.5588-1.4264-2.5355-3.4741-2.5355-5.7535 0-2.2795 0.97661-4.3272 2.5355-5.7535-0.72811-3.4942-2.1278-6.744-4.0226-9.6299-2.1028 0.08411-4.2234-0.66405-5.8267-2.2673-1.5233-1.5233-2.2917-3.5132-2.2917-5.5098 0-0.11259-0.0049-0.2287 0-0.34131-2.8789-1.8854-6.1226-3.2725-9.6055-3.9982-1.4264 1.5588-3.4741 2.5355-5.7535 2.5355-2.2795 0-4.3272-0.97661-5.7535-2.5355zm5.754 21.259c3.4469 0 6.2411 2.7943 6.2411 6.2411 0 3.4469-2.7943 6.2411-6.2411 6.2411-3.4469 0-6.2411-2.7943-6.2411-6.2411 0-3.4469 2.7943-6.2411 6.2411-6.2411z"/>
    <path id="path3765" style="color:#000000;fill:url(#radialGradient3194)" d="m34.496 28.47c-3.4942 0.72811-6.744 2.1278-9.6299 4.0226 0.08411 2.1028-0.66405 4.2234-2.2673 5.8267-1.6032 1.6032-3.7239 2.3514-5.8267 2.2673-1.8948 2.8859-3.2945 6.1357-4.0226 9.6299 1.5588 1.4264 2.5355 3.4741 2.5355 5.7535 0 2.2795-0.97661 4.3272-2.5355 5.7535 0.72811 3.4942 2.1278 6.744 4.0226 9.6299 2.1028-0.08411 4.2234 0.66405 5.8267 2.2673 1.6032 1.6032 2.3514 3.7239 2.2673 5.8267 2.8859 1.8948 6.1357 3.2945 9.6299 4.0226 1.4264-1.5588 3.4741-2.5355 5.7535-2.5355 2.2795 0 4.3272 0.97661 5.7535 2.5355 3.4829-0.72575 6.7266-2.1129 9.6055-3.9982-0.0049-0.11261 0-0.22872 0-0.34131 0-1.9966 0.76835-3.9864 2.2917-5.5098 1.6032-1.6032 3.7239-2.3514 5.8267-2.2673 1.8948-2.8859 3.2945-6.1357 4.0226-9.6299-1.5588-1.4264-2.5355-3.4741-2.5355-5.7535 0-2.2795 0.97661-4.3272 2.5355-5.7535-0.72811-3.4942-2.1278-6.744-4.0226-9.6299-2.1028 0.08411-4.2234-0.66405-5.8267-2.2673-1.5233-1.5233-2.2917-3.5132-2.2917-5.5098 0-0.11259-0.0049-0.2287 0-0.34131-2.8789-1.8854-6.1226-3.2725-9.6055-3.9982-1.4264 1.5588-3.4741 2.5355-5.7535 2.5355-2.2795 0-4.3272-0.97661-5.7535-2.5355zm5.754 21.259c3.4469 0 6.2411 2.7943 6.2411 6.2411 0 3.4469-2.7943 6.2411-6.2411 6.2411-3.4469 0-6.2411-2.7943-6.2411-6.2411 0-3.4469 2.7943-6.2411 6.2411-6.2411z"/>
    <path id="path3324" d="m48.202 38.126c-2.0479 0-3.7062 1.6673-3.7062 3.7228 0 2.0554 1.6583 3.7228 3.7062 3.7228s3.7062-1.6673 3.7062-3.7228c0-2.0554-1.6583-3.7228-3.7062-3.7228zm-7.8271 2.9157c-2.2856 0.000298-4.603 0.57973-6.6867 1.6141-0.0741 0.03692-0.12032 0.10244-0.14255 0.18223-0.02252 0.07979-0.01794 0.16403 0.02592 0.2343l3.0064 4.7771c0.07617 0.12148 0.23094 0.17283 0.36285 0.11715 1.1127-0.47251 2.2674-0.7029 3.4341-0.7029 4.2915 0 8.0354 3.1942 8.7083 7.4325 0.02252 0.14232 0.14193 0.24732 0.28509 0.24732h5.65c0.0824 0 0.16487-0.02978 0.2203-0.09112 0.05543-0.06133 0.08546-0.13851 0.07776-0.22128-0.30471-3.1447-1.6431-6.1894-3.758-8.552-0.09544-0.10718-0.25516-0.11735-0.37581-0.03905-0.85278 0.5532-1.8203 0.84608-2.7991 0.84608-2.8553 0-5.1703-2.3301-5.1706-5.1806 0.000297-0.0015 0-0.09937 0-0.10413 0-0.14202-0.10601-0.27497-0.24622-0.29938-0.89279-0.15542-1.7594-0.26033-2.5918-0.26033zm-9.0712 3.124c-0.03912 0.0096-0.08447 0.02691-0.11663 0.05206-2.4507 1.896-4.2886 4.5624-5.1835 7.5106-0.03497 0.11522-0.0038 0.23737 0.09071 0.3124 1.2316 0.97985 1.9697 2.4881 1.9697 4.0352 0 1.547-0.73785 3.0553-1.9697 4.0352-0.09396 0.07474-0.12569 0.19688-0.09071 0.3124 0.88776 2.9235 2.7112 5.5798 5.1317 7.4716 0.06491 0.05091 0.13908 0.07938 0.2203 0.06508 0.08092-0.01399 0.15022-0.07381 0.19438-0.14318l3.0324-4.7641c0.07736-0.12177 0.05636-0.28191-0.05184-0.37748-1.8997-1.6789-2.9935-4.0863-2.9935-6.5995 0-2.532 1.0998-4.946 3.0194-6.6255 0.10819-0.09498 0.14156-0.25512 0.06479-0.37748l-3.0064-4.7771c-0.04387-0.06968-0.11346-0.11588-0.19438-0.13017-0.04046-0.0072-0.0775-0.0096-0.11663 0zm-8.3584 8.1745c-2.0959 0-3.7969 1.7101-3.7969 3.8139s1.701 3.8009 3.7969 3.8009 3.7969-1.6971 3.7969-3.8009-1.701-3.8139-3.7969-3.8139zm32.073 4.9203-5.65 0.01302c-0.14257 0.000298-0.27523 0.10619-0.29805 0.24732-0.68204 4.2067-4.4157 7.3805-8.6953 7.3805-1.1803 0-2.3478-0.24482-3.473-0.72894-0.13161-0.05627-0.28548-0.01645-0.36284 0.10413l-3.0324 4.7771c-0.04416 0.06997-0.04785 0.15421-0.02593 0.2343 0.02192 0.0798 0.06874 0.14532 0.14255 0.18224 2.1001 1.0561 4.4395 1.6141 6.7515 1.6141 0.85752 0 1.7528-0.08624 2.6566-0.24732 0.12686-0.02233 0.21814-0.11899 0.23326-0.24732 0.30116-2.6126 2.5008-4.5819 5.1187-4.5819 0.81158 0 1.6469 0.20576 2.3974 0.59877 0.11412 0.05984 0.24652 0.04053 0.33693-0.05207 2.3669-2.4245 3.8631-5.621 4.1986-8.9815 0.0083-0.08247-0.02203-0.15965-0.07775-0.22128-0.05573-0.06163-0.1379-0.09141-0.2203-0.09112zm-6.6738 10.062c-2.0959 0-3.7969 1.6949-3.7969 3.7879 0 2.0929 1.701 3.7879 3.7969 3.7879s3.7969-1.6949 3.7969-3.7879c0-2.0929-1.701-3.7879-3.7969-3.7879z"/>
    <path id="path3711" style="opacity:.4;color:#000000;fill:#fff" d="m34.496 28.47c-3.4942 0.72811-6.744 2.1278-9.6299 4.0226 0.08411 2.1028-0.66405 4.2234-2.2673 5.8267-1.6032 1.6032-3.7239 2.3514-5.8267 2.2673-1.8948 2.8859-3.2945 6.1357-4.0226 9.6299 1.5588 1.4264 2.5355 3.4741 2.5355 5.7535 0 2.2795-0.97661 4.3272-2.5355 5.7535 0.72811 3.4942 2.1278 6.744 4.0226 9.6299 2.1028-0.08411 4.2234 0.66405 5.8267 2.2673 1.6032 1.6032 2.3514 3.7239 2.2673 5.8267 2.8859 1.8948 6.1357 3.2945 9.6299 4.0226 1.4264-1.5588 3.4741-2.5355 5.7535-2.5355 2.2795 0 4.3272 0.97661 5.7535 2.5355 3.4829-0.72575 6.7266-2.1129 9.6055-3.9982-0.0049-0.11261 0-0.22872 0-0.34131 0-1.9966 0.76835-3.9864 2.2917-5.5098 1.6032-1.6032 3.7239-2.3514 5.8267-2.2673 1.8948-2.8859 3.2945-6.1357 4.0226-9.6299-1.5588-1.4264-2.5355-3.4741-2.5355-5.7535 0-2.2795 0.97661-4.3272 2.5355-5.7535-0.72811-3.4942-2.1278-6.744-4.0226-9.6299-2.1028 0.08411-4.2234-0.66405-5.8267-2.2673-1.5233-1.5233-2.2917-3.5132-2.2917-5.5098 0-0.11259-0.0049-0.2287 0-0.34131-2.8789-1.8854-6.1226-3.2725-9.6055-3.9982-1.4264 1.5588-3.4741 2.5355-5.7535 2.5355-2.2795 0-4.3272-0.97661-5.7535-2.5355zm-0.1219 0.90204c1.5434 1.4644 3.5836 2.4379 5.8754 2.4379s4.332-0.97357 5.8754-2.4379c3.1366 0.69233 6.0711 1.9348 8.7035 3.6082 0.04325 2.1465 0.8539 4.2914 2.4867 5.9242 1.6214 1.6214 3.7486 2.3348 5.8754 2.3892 1.7036 2.6563 2.9565 5.6291 3.6569 8.801-1.4644 1.5434-2.4379 3.5836-2.4379 5.8754s0.97357 4.332 2.4379 5.8754c-0.70042 3.1719-1.9533 6.1446-3.6569 8.801-2.1269 0.05437-4.254 0.76778-5.8754 2.3892-1.6328 1.6328-2.4435 3.7777-2.4867 5.9242-2.6324 1.6733-5.5668 2.9158-8.7035 3.6082-1.5434-1.4644-3.5836-2.4379-5.8754-2.4379s-4.332 0.97357-5.8754 2.4379c-3.1719-0.70042-6.1446-1.9533-8.801-3.6569-0.05437-2.1269-0.76778-4.254-2.3892-5.8754s-3.7486-2.3348-5.8754-2.3892c-1.7036-2.6563-2.9565-5.6291-3.6569-8.801 1.4644-1.5434 2.4379-3.5836 2.4379-5.8754s-0.97357-4.332-2.4379-5.8754c0.70042-3.1719 1.9533-6.1446 3.6569-8.801 2.1269-0.05437 4.254-0.76778 5.8754-2.3892s2.3348-3.7486 2.3892-5.8754c2.6563-1.7036 5.6291-2.9565 8.801-3.6569zm5.876 19.577c-3.8777 0-7.0213 3.1435-7.0213 7.0213 0 3.8777 3.1435 7.0213 7.0213 7.0213 3.8777 0 7.0213-3.1435 7.0213-7.0213 0-3.8777-3.1435-7.0213-7.0213-7.0213zm0 0.78014c3.4469 0 6.2411 2.7943 6.2411 6.2411 0 3.4469-2.7943 6.2411-6.2411 6.2411-3.4469 0-6.2411-2.7943-6.2411-6.2411 0-3.4469 2.7943-6.2411 6.2411-6.2411z"/>
   </g>
  </g>
 </g>
</svg>
