<?xml version="1.0" encoding="UTF-8" standalone="no"?>
<!-- Created with Inkscape (http://www.inkscape.org/) -->
<svg id="svg6307" xmlns:rdf="http://www.w3.org/1999/02/22-rdf-syntax-ns#" xmlns="http://www.w3.org/2000/svg" height="96" width="96" version="1.1" xmlns:cc="http://creativecommons.org/ns#" xmlns:xlink="http://www.w3.org/1999/xlink" xmlns:dc="http://purl.org/dc/elements/1.1/">
 <defs id="defs6309">
  <filter id="filter6279" color-interpolation-filters="sRGB">
   <feGaussianBlur id="feGaussianBlur6281" stdDeviation="0.8"/>
  </filter>
  <linearGradient id="linearGradient3107" x1="48" gradientUnits="userSpaceOnUse" y1="1052.4" gradientTransform="translate(0 -.0000096172)" x2="48" y2="902.36">
   <stop id="stop3226-9" style="stop-color:#80a2c8" offset="0"/>
   <stop id="stop3228-7" style="stop-color:#2e4c6d" offset="1"/>
  </linearGradient>
  <linearGradient id="linearGradient3109" x1="24.334" gradientUnits="userSpaceOnUse" y1="55.89" gradientTransform="matrix(1.0714 0 0 1.0714 -53.679 -1027.9)" x2="24.334" y2="28.22">
   <stop id="stop3780-4" style="stop-color:#98b5e3" offset="0"/>
   <stop id="stop3782-8" style="stop-color:#bed1ed" offset="1"/>
  </linearGradient>
  <linearGradient id="linearGradient3111" x1="26.607" gradientUnits="userSpaceOnUse" y1="25.706" gradientTransform="matrix(1.0714 0 0 1.0714 -53.679 937.9)" x2="26.607" y2="42.885">
   <stop id="stop3739-961" style="stop-color:#fff" offset="0"/>
   <stop id="stop3741-04" style="stop-color:#fff;stop-opacity:0" offset="1"/>
  </linearGradient>
 </defs>
 <metadata id="metadata6312">
  <rdf:RDF>
   <cc:Work rdf:about="">
    <dc:format>image/svg+xml</dc:format>
    <dc:type rdf:resource="http://purl.org/dc/dcmitype/StillImage"/>
    <dc:title/>
   </cc:Work>
  </rdf:RDF>
 </metadata>
 <g id="layer1" transform="translate(0 -956.36)">
  <g id="g14816">
   <rect id="rect9283" style="filter:url(#filter6279)" rx="5" ry="5" height="80" width="80" y="964.36" x="8"/>
   <rect id="rect9285" style="fill:url(#linearGradient3107)" rx="5" ry="5" height="80" width="80" y="964.36" x="8"/>
   <g id="g6532" transform="matrix(1.5077 0 0 1.5077 85.315 -477.39)">
    <rect id="rect3764" style="fill:#fff" height="34.286" width="27.857" y="965.76" x="-38.679"/>
    <rect id="rect3766" style="fill:url(#linearGradient3109)" transform="scale(1,-1)" height="30" width="23.571" y="-997.9" x="-36.536"/>
    <path id="path3798-2" style="enable-background:new;fill:#4d74ad" d="m-24.75 970.68c-2.5116 0-4.5478 1.8837-4.5478 4.2074 0.0061 0.2663 0.01 0.57036 0.0379 0.90159-0.39749 0.21004-0.4493 1.0314-0.09475 1.8596 0.13672 0.31931 0.3232 0.57876 0.51163 0.78888 0.0062 0.007 0.01263 0.0119 0.01895 0.0188 0.04498 0.21879 0.07825 0.39183 0.13264 0.63863 0.16852 0.5011 0.86485 1.4436 1.478 2.254 0.06116 0.62508 0.06617 1.2424-0.05686 1.9534-1.765 1.4515-6.2789 2.1038-6.2721 3.6063l-0.60636 3.9069c0 0.80044 1.2063 1.5333 3.1266 2.0285l0.26529 1.0706a0.6604 0.65461 0 0 0 0.41688 0.43201c0.08523 0.0327 0.14538 0.10182 0.37899 0.16905 1.2305 0.35412 3.1042 0.60105 5.211 0.60105s3.9994-0.24693 5.23-0.60105c0.23359-0.0672 0.29374-0.13637 0.37899-0.16905a0.6604 0.65461 0 0 0 0.39793 -0.41323l0.32214-1.1269c1.8734-0.49444 3.0698-1.2018 3.0698-1.991l-0.60638-3.9069c-0.0072-1.286-4.5478-2.1038-6.2911-3.6063-0.07057-0.57559-0.07383-1.1424-0.03791-1.7092 0.5575-0.85244 1.2915-1.9434 1.478-2.4981 0.06856-0.2873 0.09835-0.48585 0.15158-0.73254 0.16464-0.19946 0.3143-0.42992 0.43582-0.71375 0.33671-0.78638 0.30527-1.5479-0.0379-1.8032 0.02398-0.34169 0.04682-0.6659 0.05685-0.95793 0.000003-2.3237-2.0361-4.2074-4.5478-4.2074z"/>
    <path id="rect3708" style="fill:#a3bee6" d="m-36.536 967.9v30h23.571v-30h-1.0714v28.929h-21.429v-28.929h-1.0714z"/>
    <path id="rect3786" style="opacity:.7;fill:url(#linearGradient3111)" d="m-36.536 967.9v14.565c6.8196-2.3357 14.824-4.0575 23.571-4.9221v-9.6429h-23.571z"/>
   </g>
  </g>
 </g>
</svg>
