<?xml version="1.0" encoding="UTF-8" standalone="no"?>
<!-- Created with Inkscape (http://www.inkscape.org/) -->
<svg id="svg2982" xmlns:rdf="http://www.w3.org/1999/02/22-rdf-syntax-ns#" xmlns="http://www.w3.org/2000/svg" height="96" width="96" version="1.1" xmlns:cc="http://creativecommons.org/ns#" xmlns:xlink="http://www.w3.org/1999/xlink" xmlns:dc="http://purl.org/dc/elements/1.1/">
 <defs id="defs2984">
  <filter id="filter6279-2" color-interpolation-filters="sRGB">
   <feGaussianBlur id="feGaussianBlur6281-1" stdDeviation="0.8"/>
  </filter>
  <linearGradient id="linearGradient9181" x1="48" gradientUnits="userSpaceOnUse" y1="1052.4" gradientTransform="translate(0 -.0000078516)" x2="48" y2="902.36">
   <stop id="stop4639" style="stop-color:#115984" offset="0"/>
   <stop id="stop4641" style="stop-color:#5498c5" offset="1"/>
  </linearGradient>
 </defs>
 <metadata id="metadata2987">
  <rdf:RDF>
   <cc:Work rdf:about="">
    <dc:format>image/svg+xml</dc:format>
    <dc:type rdf:resource="http://purl.org/dc/dcmitype/StillImage"/>
    <dc:title/>
   </cc:Work>
  </rdf:RDF>
 </metadata>
 <g id="layer1" transform="translate(0 -956.36)">
  <g id="g3242">
   <g id="g25726">
    <rect id="rect9283" style="filter:url(#filter6279-2)" transform="translate(0 -.0000078516)" rx="5" ry="5" height="80" width="80" y="964.36" x="8"/>
    <rect id="rect9285" style="fill:url(#linearGradient9181)" rx="5" ry="5" height="80" width="80" y="964.36" x="8"/>
    <path id="rect3156" style="color:#000000;fill:#fff" d="m47.812 988.36a1.4014 0.99727 0 0 0 -1.0312 0.5l-14.593 18.04a1.4014 0.99727 0 0 0 -0.1875 0.4687 1.4014 0.99727 0 0 0 1.4062 1.0313h29.188a1.4014 0.99727 0 0 0 1.2188 -1.5l-14.595-18.04a1.4014 0.99727 0 0 0 -1.4062 -0.5zm-13.812 24.04c-1.108 0-2 0.892-2 2v4c0 1.108 0.892 2 2 2h28c1.108 0 2-0.892 2-2v-4c0-1.108-0.892-2-2-2h-28z"/>
   </g>
  </g>
 </g>
</svg>
