<?xml version="1.0" encoding="UTF-8" standalone="no"?>
<!-- Created with Inkscape (http://www.inkscape.org/) -->
<svg id="svg2982" xmlns:rdf="http://www.w3.org/1999/02/22-rdf-syntax-ns#" xmlns="http://www.w3.org/2000/svg" height="96" width="96" version="1.1" xmlns:cc="http://creativecommons.org/ns#" xmlns:xlink="http://www.w3.org/1999/xlink" xmlns:dc="http://purl.org/dc/elements/1.1/">
 <defs id="defs2984">
  <filter id="filter6279" color-interpolation-filters="sRGB">
   <feGaussianBlur id="feGaussianBlur6281" stdDeviation="0.8"/>
  </filter>
  <linearGradient id="linearGradient5801" x1="48" gradientUnits="userSpaceOnUse" y1="1052.4" gradientTransform="translate(0 -.0000078516)" x2="48" y2="902.36">
   <stop id="stop3189-4" style="stop-color:#3c393e" offset="0"/>
   <stop id="stop3191-29" style="stop-color:#79727e" offset="1"/>
  </linearGradient>
  <linearGradient id="linearGradient4109" y2="87.81" xlink:href="#linearGradient8076" gradientUnits="userSpaceOnUse" x2="47.804" y1="69.818" x1="61.503"/>
  <linearGradient id="linearGradient8076">
   <stop id="stop8078" style="stop-color:#cf6714" offset="0"/>
   <stop id="stop8080" style="stop-color:#d3790b" offset=".20227"/>
   <stop id="stop8082" style="stop-color:#f08300" offset=".51163"/>
   <stop id="stop8084" style="stop-color:#f3b230" offset=".78421"/>
   <stop id="stop8086" style="stop-color:#d24118;stop-opacity:.92157" offset="1"/>
  </linearGradient>
  <linearGradient id="linearGradient4111" y2="87.81" xlink:href="#linearGradient8076" gradientUnits="userSpaceOnUse" x2="47.804" gradientTransform="matrix(-1,0,0,1,95.844,0)" y1="69.818" x1="61.503"/>
  <linearGradient id="linearGradient4113" y2="19.932" gradientUnits="userSpaceOnUse" x2="34.751" gradientTransform="matrix(1.2763,0,0,1.2763,18.791,17.468)" y1="19.502" x1="12.349">
   <stop id="stop5163" style="stop-color:#8a450c" offset="0"/>
   <stop id="stop3195-4" style="stop-color:#e8860e" offset=".20227"/>
   <stop id="stop3435-7" style="stop-color:#ffac24" offset=".51163"/>
   <stop id="stop3193-7" style="stop-color:#e8860e" offset=".75581"/>
   <stop id="stop3187-5" style="stop-color:#70440d;stop-opacity:.92157" offset="1"/>
  </linearGradient>
  <filter id="filter3950" height="1.2307" width="1.0781" y="-.11535" x="-.03904" color-interpolation-filters="sRGB">
   <feGaussianBlur id="feGaussianBlur3952" stdDeviation="0.53403609"/>
  </filter>
  <linearGradient id="linearGradient4115" y2="22.724" gradientUnits="userSpaceOnUse" x2="21.07" y1="21.636" x1="14.863">
   <stop id="stop4039-4" style="stop-color:#ea690e" offset="0"/>
   <stop id="stop4041-8" style="stop-color:#ea690e;stop-opacity:0" offset="1"/>
  </linearGradient>
  <linearGradient id="linearGradient4117" y2="17.831" gradientUnits="userSpaceOnUse" x2="22.68" y1="19.421" x1="28.228">
   <stop id="stop4031" style="stop-color:#a54a0a" offset="0"/>
   <stop id="stop4033" style="stop-color:#f78300;stop-opacity:0" offset="1"/>
  </linearGradient>
  <linearGradient id="linearGradient4119-1" y2="12.609" xlink:href="#linearGradient556" gradientUnits="userSpaceOnUse" x2="30.441" y1="12.609" x1="16.369"/>
  <linearGradient id="linearGradient556">
   <stop id="stop557" style="stop-color:#7d7d7d" offset="0"/>
   <stop id="stop8106" style="stop-color:#ddd" offset=".25"/>
   <stop id="stop8096" style="stop-color:#fff" offset=".5"/>
   <stop id="stop8108" style="stop-color:#c2c2c2" offset=".75"/>
   <stop id="stop558" style="stop-color:#868686" offset="1"/>
  </linearGradient>
  <linearGradient id="linearGradient4121" y2="30.341" xlink:href="#linearGradient556" gradientUnits="userSpaceOnUse" x2="37.146" y1="30.341" x1="10.878"/>
  <linearGradient id="linearGradient4125-3" y2="34.93" gradientUnits="userSpaceOnUse" x2="23.343" y1="30.279" x1="23.343">
   <stop id="stop4021-6" style="stop-color:#963304" offset="0"/>
   <stop id="stop4023-8" style="stop-color:#963304;stop-opacity:0" offset="1"/>
  </linearGradient>
  <linearGradient id="linearGradient3122-0" x1="41.295" xlink:href="#linearGradient3737-51" gradientUnits="userSpaceOnUse" x2="36.992" y1="45.366" y2="66.958"/>
  <linearGradient id="linearGradient3737-51">
   <stop id="stop3739-10" style="stop-color:#fff" offset="0"/>
   <stop id="stop3741-85" style="stop-color:#fff;stop-opacity:0" offset="1"/>
  </linearGradient>
  <linearGradient id="linearGradient3124" x1="39.522" gradientUnits="userSpaceOnUse" x2="36.992" y1="54.331" y2="66.958">
   <stop id="stop3999" style="stop-color:#fff;stop-opacity:0" offset="0"/>
   <stop id="stop4001" style="stop-color:#fff;stop-opacity:0" offset="1"/>
  </linearGradient>
  <filter id="filter3967" height="1.3056" width="1.1976" y="-.15278" x="-.098802" color-interpolation-filters="sRGB">
   <feGaussianBlur id="feGaussianBlur3969" stdDeviation="0.86809985"/>
  </filter>
  <linearGradient id="linearGradient4131" y2="70.62" xlink:href="#linearGradient3737-51" gradientUnits="userSpaceOnUse" x2="46.336" y1="70.62" x1="25.006"/>
  <linearGradient id="linearGradient3407" y2="138.66" gradientUnits="userSpaceOnUse" x2="48" y1="20.221" x1="48">
   <stop id="stop3739-07" style="stop-color:#fff" offset="0"/>
   <stop id="stop3741-31" style="stop-color:#fff;stop-opacity:0" offset="1"/>
  </linearGradient>
  <clipPath id="clipPath3613-19">
   <rect id="rect3615-05" style="fill:#fff" rx="6" ry="6" height="84" width="84" y="6" x="6"/>
  </clipPath>
  <filter id="filter3794-67" height="1.384" width="1.384" y="-.192" x="-.192" color-interpolation-filters="sRGB">
   <feGaussianBlur id="feGaussianBlur3796-74" stdDeviation="5.28"/>
  </filter>
 </defs>
 <metadata id="metadata2987">
  <rdf:RDF>
   <cc:Work rdf:about="">
    <dc:format>image/svg+xml</dc:format>
    <dc:type rdf:resource="http://purl.org/dc/dcmitype/StillImage"/>
    <dc:title/>
   </cc:Work>
  </rdf:RDF>
 </metadata>
 <g id="layer1" transform="translate(0 -956.36)">
  <g id="g6684">
   <rect id="rect9283" ry="5" style="filter:url(#filter6279)" rx="5" transform="translate(0 -.0000078516)" height="80" width="80" y="964.36" x="8"/>
   <rect id="rect9285" style="fill:url(#linearGradient5801)" rx="5" ry="5" height="80" width="80" y="964.36" x="8"/>
   <g id="g4059" transform="matrix(.77759 0 0 .77759 10.568 963.51)">
    <g id="g3902" transform="translate(0,-1)">
     <path id="rect3879" style="stroke:#963304;stroke-width:1.1602;fill:url(#linearGradient4109)" d="m47.906 47.781-25.125 16.594v4l25.125 19.562 25.156-19.562v-4l-25.156-16.594z"/>
     <path id="path3893" style="fill:url(#linearGradient4111)" d="m47.844 47.844v40.032l0.04687 0.03125 0.04687 0.03125 25.125-19.562v-4l-25.219-16.531z"/>
     <path id="path3900" style="stroke:#963304;stroke-width:1.1602;fill:none" d="m47.906 47.781-25.125 16.594v4l25.125 19.562 25.156-19.562v-4l-25.156-16.594z"/>
    </g>
    <path id="path3247" style="stroke-width:0;fill:url(#linearGradient4113);fill-rule:evenodd" d="m32.168 63.335s2.5266 6.8926 15.76 6.5971c10.914-0.249 16.676-3.665 16.493-5.498-0.183-1.832-12.03-44.271-12.03-44.271s-1.8973-1.3587-3.9131-1.3587-3.4818 1.2828-3.4818 1.2828l-12.828 43.248z"/>
    <path id="path3940" d="m64.65 65.948a16.415 5.5558 0 1 1 -32.83 0 16.415 5.5558 0 1 1 32.83 0z" style="filter:url(#filter3950);fill:#f29d1a" transform="matrix(1,0,0,1.1705,0,-12.314)"/>
    <path id="path11904" style="opacity:.8;stroke-width:0;fill:url(#linearGradient4115);fill-rule:evenodd" transform="matrix(1.2763,0,0,1.2763,18.791,17.468)" d="m20.75 2.889-9.268 32.613s-2.1645 0.41533-0.03562 1.76c2.1396 1.3515 3.9731 2.7627 5.4367 2.4941 1.181-0.217 5.276-35.691 5.276-35.691l-1.409-1.176z"/>
    <path id="path2245" style="opacity:.8;stroke-width:0;fill:url(#linearGradient4117);fill-rule:evenodd" transform="matrix(1.1831 -.47855 .47855 1.1831 14.368 30.922)" d="m28.385 3.4365-9.268 32.614s-1.1776 1.0069 0.95124 2.3516c2.1396 1.3515 4.5677 0.15348 6.0313-0.11515 1.1803-0.21663 4.1546-34.02 4.1546-34.02l-1.869-0.8295z"/>
    <g id="g3464" transform="matrix(1.2763,0,0,1.2763,18.791,17.468)">
     <path id="path3250" style="stroke-width:0;fill:url(#linearGradient4119-1);fill-rule:evenodd" d="m18.759 7.8637s1.1613 1.6123 4.502 1.6621c2.8385 0.042918 4.7471-1.3154 4.7471-1.3154l2.3307 8.183s-4.2041 2.1204-7.2214 2.0276c-4.0531-0.12463-6.7486-2.2974-6.7486-2.2974l2.39-8.2593z"/>
     <path id="path3252" style="stroke-width:0;fill:url(#linearGradient4121);fill-rule:evenodd" d="m13.725 24.867s4.2215 2.8091 9.8234 2.9066c4.0224 0.07185 9.1388-2.5527 9.1388-2.5527l2.061 7.484s-3.6755 4.0032-11.428 3.9712c-7.0804-0.02977-11.834-4.6891-11.834-4.6891l2.2379-7.1199z"/>
    </g>
    <g id="layer8" style="stroke:url(#linearGradient4125-3);stroke-width:1.1602" transform="matrix(1.2763,0,0,1.2763,18.791,17.468)">
     <path id="path3222" style="stroke:url(#linearGradient4125-3);stroke-width:1.1274;stroke-linecap:square;fill:none" d="m10.572 35.814 9.817-33.618s1.2926-1.3274 3.1589-1.2923c1.9456 0.035897 2.8717 1.2923 2.8717 1.2923l8.9982 34.11"/>
    </g>
    <path id="path8110" style="opacity:.91136;stroke-width:0;fill:#643108" d="m51.38 20.774c0 0.62619-1.1748 1.1338-2.624 1.1338s-2.624-0.50763-2.624-1.1338c0-0.6262 1.1748-1.1338 2.624-1.1338s2.624 0.50763 2.624 1.1338z"/>
    <path id="path3936" style="opacity:.4;stroke:url(#linearGradient3124);stroke-width:1.1602px;fill:url(#linearGradient3122-0)" d="m46.846 21.88-11.364 44.447 3.283 1.5152 8.0812-45.962z"/>
    <path id="path3938" style="opacity:.2;fill:#fff" d="m49.371 22.385 2.6516 46.593-2.3991 0.12627-0.25254-46.72z"/>
    <path id="path3958" style="opacity:.4;stroke-width:0;fill:#882e00;fill-rule:evenodd" d="m37.333 66.753s3.5538 3.3457 10.604 3.1845c10.914-0.24949 16.652-3.6675 16.469-5.5-0.01083-0.10831-0.16253-0.78137-0.25-1.1562-7.795 6.5142-18.363 7.2598-26.823 3.4718z"/>
    <path id="path3965" style="opacity:.6;filter:url(#filter3967);fill:#cb5a0b;fill-opacity:.74902" d="m63.64 65.19-3.283 5.4296-11.112 8.2075c0.12627-7.4499-6.6923-9.9753-6.6923-9.9753s6.3135 1.2627 10.102 0.50508c3.3682-0.67364 10.985-4.1669 10.985-4.1669z"/>
    <path id="path3971" style="opacity:.4;stroke:url(#linearGradient4131);stroke-width:1.1602px;fill:none" d="m25.506 63.044 20.329 15.152"/>
    <path id="path4047" style="opacity:.2;stroke:url(#linearGradient3124);stroke-width:1.1602px;fill:url(#linearGradient3122-0)" d="m45.583 33.876-8.9651 32.704 7.3236 2.5254 1.6415-35.229z"/>
   </g>
   <g id="layer5" transform="translate(0 956.36)">
    <rect id="rect3171" style="opacity:.1;filter:url(#filter3794-67);stroke:#fff;stroke-linecap:round;stroke-width:.5;fill:url(#linearGradient3407)" clip-path="url(#clipPath3613-19)" rx="12" ry="12" height="66" width="66" y="15" x="15"/>
   </g>
  </g>
 </g>
</svg>
