<?xml version="1.0" encoding="UTF-8" standalone="no"?>
<!-- Created with Inkscape (http://www.inkscape.org/) -->
<svg id="svg2982" xmlns:rdf="http://www.w3.org/1999/02/22-rdf-syntax-ns#" xmlns="http://www.w3.org/2000/svg" height="96" width="96" version="1.1" xmlns:cc="http://creativecommons.org/ns#" xmlns:xlink="http://www.w3.org/1999/xlink" xmlns:dc="http://purl.org/dc/elements/1.1/">
 <defs id="defs2984">
  <filter id="filter6279-2" color-interpolation-filters="sRGB">
   <feGaussianBlur id="feGaussianBlur6281-1" stdDeviation="0.8"/>
  </filter>
  <linearGradient id="linearGradient5979" x1="48" gradientUnits="userSpaceOnUse" y1="1052.4" gradientTransform="translate(0 -.0000078516)" x2="48" y2="902.36">
   <stop id="stop3616" style="stop-color:#b9b9b9" offset="0"/>
   <stop id="stop3618" style="stop-color:#dedede" offset="1"/>
  </linearGradient>
  <linearGradient id="linearGradient5868" y2="138.66" gradientUnits="userSpaceOnUse" y1="20.221" x2="48" x1="48">
   <stop id="stop3739-55" style="stop-color:#fff" offset="0"/>
   <stop id="stop3741-07" style="stop-color:#fff;stop-opacity:0" offset="1"/>
  </linearGradient>
  <clipPath id="clipPath3613-38">
   <rect id="rect3615-23" style="fill:#fff" rx="6" ry="6" height="84" width="84" y="6" x="6"/>
  </clipPath>
  <filter id="filter3794-07" height="1.384" width="1.384" y="-.192" x="-.192" color-interpolation-filters="sRGB">
   <feGaussianBlur id="feGaussianBlur3796-77" stdDeviation="5.28"/>
  </filter>
  <linearGradient id="linearGradient5890" x1="22" gradientUnits="userSpaceOnUse" y1="76" gradientTransform="matrix(.83333 0 0 .83333 8.1668 964.53)" x2="22" y2="-.23647">
   <stop id="stop3992" style="stop-color:#5d5d5d" offset="0"/>
   <stop id="stop3994" style="stop-color:#909090" offset="1"/>
  </linearGradient>
  <linearGradient id="linearGradient5887" x1="22" gradientUnits="userSpaceOnUse" y1="21" gradientTransform="matrix(.83333 0 0 .83333 8.1668 964.53)" x2="22" y2="75.083">
   <stop id="stop3702-9" style="stop-color:#ebebeb" offset="0"/>
   <stop id="stop3704-77" style="stop-color:#c8c8c8" offset="1"/>
  </linearGradient>
  <linearGradient id="linearGradient5884" x1="21" gradientUnits="userSpaceOnUse" y1="21" gradientTransform="matrix(.83333 0 0 .83333 8.1668 964.53)" x2="21" y2="71">
   <stop id="stop3739-30" style="stop-color:#fff" offset="0"/>
   <stop id="stop3741-30" style="stop-color:#fff;stop-opacity:0" offset="1"/>
  </linearGradient>
  <linearGradient id="linearGradient5881" x1="23" gradientUnits="userSpaceOnUse" y1="42" gradientTransform="matrix(.83333 0 0 .83333 8.1668 964.53)" x2="23" y2="52">
   <stop id="stop3956" style="stop-color:#1a1a1a" offset="0"/>
   <stop id="stop3958" style="stop-color:#3a3a3a" offset="1"/>
  </linearGradient>
  <linearGradient id="linearGradient3367" x1="316.37" gradientUnits="userSpaceOnUse" y1="155.22" gradientTransform="matrix(.061656 0 0 .061656 34.47 30.103)" x2="316.37" y2="438.43">
   <stop id="stop3750-9" offset="0"/>
   <stop id="stop3752-6" style="stop-opacity:.58824" offset="1"/>
  </linearGradient>
 </defs>
 <metadata id="metadata2987">
  <rdf:RDF>
   <cc:Work rdf:about="">
    <dc:format>image/svg+xml</dc:format>
    <dc:type rdf:resource="http://purl.org/dc/dcmitype/StillImage"/>
    <dc:title/>
   </cc:Work>
  </rdf:RDF>
 </metadata>
 <g id="layer1" transform="translate(0 -956.36)">
  <g id="g5923">
   <rect id="rect9283" ry="5" style="filter:url(#filter6279-2)" rx="5" transform="translate(0 -.0000078516)" height="80" width="80" y="964.36" x="8"/>
   <rect id="rect9285" style="fill:url(#linearGradient5979)" rx="5" ry="5" height="80" width="80" y="964.36" x="8"/>
   <rect id="rect3171" style="opacity:.1;filter:url(#filter3794-07);stroke:#fff;stroke-linecap:round;stroke-width:.5;fill:url(#linearGradient5868)" clip-path="url(#clipPath3613-38)" rx="12" ry="12" transform="translate(0 956.36)" width="66" y="15" x="15" height="66"/>
   <g id="g5914">
    <path id="rect3935" style="color:#000000;fill:url(#linearGradient5890)" d="m24 978.7h6.6666c1.385 0 2.5 1.115 2.5 2.5v46.666c0 1.385-1.115 2.5-2.5 2.5h-6.6666c-1.385 0-2.5-1.115-2.5-2.5v-46.666c0-1.385 1.115-2.5 2.5-2.5z"/>
    <path id="path3939" style="color:#000000;fill:url(#linearGradient5887)" d="m24 979.5c-0.94708 0-1.6927 0.7456-1.6927 1.6926v46.666c0 0.9471 0.74567 1.6926 1.6927 1.6926h6.6666c0.94708 0 1.6927-0.7456 1.6927-1.6926v-46.666c0-0.9471-0.74566-1.6926-1.6927-1.6926h-6.6666z"/>
    <path id="path3949" style="opacity:.8;color:#000000;fill:url(#linearGradient5884)" d="m24 979.5c-0.94708 0-1.6927 0.7456-1.6927 1.6926v46.666c0 0.9471 0.74567 1.6926 1.6927 1.6926h6.6666c0.94708 0 1.6927-0.7456 1.6927-1.6926v-46.666c0-0.9471-0.74566-1.6926-1.6927-1.6926h-6.6666zm0 0.8854h6.6666c0.47978 0 0.80729 0.3275 0.80729 0.8073v46.666c0 0.4798-0.32751 0.8073-0.80729 0.8073h-6.6666c-0.47977 0-0.80729-0.3275-0.80729-0.8073v-46.666c0-0.4798 0.32752-0.8073 0.80729-0.8073z"/>
    <path id="path4000" style="opacity:.8;fill:url(#linearGradient5881)" d="m24 1003.7 5.8333 4.1667v-8.3333l-5.8333 4.1666z"/>
    <g id="g3056" transform="translate(-1.2474 955.98)">
     <path id="path602" style="fill:url(#linearGradient3367);fill-rule:evenodd" d="m70.166 46.184c-0.65955-0.13136-2.6555 1.0849-2.5107 1.2073 0.2048 0.17316 2.824-1.1387 2.5107-1.2073zm-3.2346-1.4038c0.59964 0.28217 1.4767-0.18802 1.3278-0.20468-1.2945-0.14355-1.5169-0.74934-1.7147-1.3429-0.19168-0.19835-0.23173 1.2014 0.38689 1.5476zm1.6815-1.5357c0 0.37726-0.2809 0.71341-0.64161 0.71341s-0.66546-0.33616-0.66546-0.71341c0-0.37732 0.29285-0.68352 0.65351-0.68352 0.36071 0 0.65356 0.3062 0.65356 0.68352zm-33.104-6.907c-0.1453-0.24646 0.96088 0.1958 1.7916 0.65987 0.83076 0.46408 3.0819 1.3321 3.764 1.4702 1.7624 0.35679 5.8484 2.437 8.5043 5.2123 0.33378 0.33198 1.246-1.0836 3.2983-0.73393 0.59 0.05573 5.3429 1.3207 7.3187 0.94549 0.67554-0.42589 0.66656-1.581 1.3129-2.0957-0.0027-0.436-0.37443-1.8404-0.3781-2.1385-0.02161-1.0376 0.9504-1.5494 1.2303-1.4917 0.29222 0.07459 0.75536-0.0069 1.8034 2.5581 0.31075 0.48072 0.78883 0.67231 0.73948 0.2133-0.57809-1.7932-0.98768-3.7068 0.37652-3.8985 0.18892 0.0011 1.4929-0.64911 1.8243 2.0416 0.05782 0.39752 0.04343 1.5169 0.06717 1.9194 0.04529 0.34823 3.4778-0.10956 6.8351 2.0862 0.39142 0.23544 2.0529 1.9239 0.43249 3.264-1.0869 0.9014-5.8029 3.2248-6.1183 3.4464-0.17974 0.12317-0.349 0.65834-0.11022 1.1059 0.29802 0.55857 0.4353 0.3801 1.4179 1.595 0.98259 1.2149 0.76997 1.7828-0.78811 1.3856-0.52087-0.13279-1.8642-0.83616-2.414-0.64187-0.25727 0.09096 1.2821 1.5677 1.4906 2.1515 0.69109 1.8483-1.654 0.85653-2.5099 0.44878s-2.3404-1.2775-2.8674-1.3057c-1.0239 0.43915-6.556 0.92374-11.473-0.24212-0.2993 0.08069-2.7936 2.5849-2.9774 2.6801-1.5399 0.4867-0.35207-1.8125-0.10495-2.7652 0.1213-0.46765-0.21739-0.186-0.50924-0.01903-0.13742 0.07862-1.0493 0.44173-1.6305 0.17677-0.58118-0.26496 1.2493-2.1135 1.4464-2.4038 0.27196-0.34228-0.81999-3.5394 1.4851-7.1988-0.23504-0.42654-3.2292-2.949-5.4471-4.1845-2.0959-1.1946-7.1581-3.4697-7.2952-3.6276-0.21992-0.1565-0.84352-0.60147-0.51548-0.61337zm35.043 10.652c-0.55546-0.04133-1.9199 1.4209-1.775 1.5433 0.20485 0.17316 2.0509-1.5221 1.775-1.5433zm4.7013-7.4067c-0.07221-0.19103-1.7813 1.9641-1.4801 2.7564 0.13143 0.34566 1.7072-2.1558 1.4801-2.7564zm-1.8428-0.33846c-0.63888 0.62546-0.52302 2.9346-0.38343 2.9089 0.65418-0.12028 0.57638-3.0978 0.38343-2.9089z"/>
     <path id="path2870" style="opacity:.2" d="m70.604 25.043-11.991 13.712-11.115-13.683l-9.8318 9.1316 3.9677 4.3178c2.0865 0.7737 5.3593 2.6309 7.6437 5.018 0.34452 0.34266 1.2951-1.1195 3.4134-0.75854 0.60898 0.05752 5.5169 1.35 7.5562 0.96276 0.65099-0.41041 0.68062-1.4701 1.2253-2.0422 0.06805 0.33696 0.11567 0.64813 0.1167 0.81689-0.66713 0.53128-0.64476 1.7193-1.342 2.1589-2.0393 0.38723-6.9472-0.90524-7.5562-0.96276-2.1183-0.36093-3.0689 1.1012-3.4134 0.75854-1.8226-1.9046-4.262-3.4797-6.2434-4.4345l4.9889 5.4265c0.04475-0.08733 0.06836-0.17455 0.1167-0.26257 0.16645 0.16409 0.28254 0.30963 0.32092 0.37927-0.04745 0.07533-0.07202 0.15842-0.1167 0.2334l1.663 1.8088-13.654 14.587 8.8982 8.8399 12.545-14.704 12.487 14.5 9.8902-9.1608-13.625-14.529 1.4879-1.5171c-0.2621 0.05859-0.55589 0.09364-0.81689-0.02917-0.5587-0.31267-0.59852-1.4603-0.46679-1.6046 0.000776 0.0027 0.02839-0.0027 0.02918 0 0.04516 0.155 0.11601 0.31431 0.20422 0.43762 0.0038 0.0081-0.0039 0.02115 0 0.02917 0.0073 0.0098 0.02152 0.01977 0.02917 0.02918 0.19092 0.37455 0.54443 0.69829 1.2837 0.84606l2.888-2.945c-2.0917-0.56623-3.7031-0.45978-3.7343-0.7002-0.02449-0.41545-0.02784-1.5736-0.08752-1.9839-0.3421-2.7772-1.6722-2.0994-1.8672-2.1006-0.557 0.07827-0.81783 0.44597-0.90441 0.96276-0.12319-1.0031 0.05051-1.7764 0.90441-1.8963 0.04875 0.00028 0.16198-0.03898 0.32092-0.05835 0.47683-0.0581 1.2897 0.076 1.5463 2.1589 0.05969 0.4103 0.06303 1.5684 0.08752 1.9839 0.03488 0.2682 2.0219 0.08031 4.4637 0.90441l1.5463-1.6046c0.07516-0.46196 0.21094-0.88672 0.43762-1.1086 0.05858-0.05734 0.09966 0.20493 0.1167 0.55432l5.8349-5.9808-9.2483-8.4898zm-8.1105 12.808c0.30162 0.07699 0.75623-0.02179 1.838 2.6257 0.18042 0.2791 0.42141 0.47212 0.58349 0.49597 0.06485 0.22707 0.13109 0.44418 0.20422 0.67102 0.05094 0.47377-0.46697 0.26278-0.78771-0.2334-1.0818-2.6475-1.5364-2.5487-1.838-2.6257-0.23619-0.04869-0.95576 0.30873-1.1962 1.0211-0.02402-0.13112-0.08679-0.3484-0.08752-0.40844-0.02231-1.071 0.99477-1.6058 1.2837-1.5463zm5.2806 5.7182c0.12684 0.15272 0.29622 0.26257 0.49597 0.26257 0.18616 0 0.37694-0.09798 0.49597-0.2334 0.0956 0.12176 0.17505 0.26789 0.17505 0.43762 0 0.38939-0.2987 0.72936-0.67101 0.72936-0.09308 0-0.18072-0.01974-0.26257-0.05835 0.37346-0.0798 0.67468-0.22319 0.58349-0.2334-0.41421-0.04593-0.72904-0.13953-0.96276-0.26257-0.01592-0.06048-0.02918-0.11091-0.02918-0.17505 0-0.17894 0.06995-0.34238 0.17505-0.46679zm0.72936 7.3812c0.0056 0.01165 0.02301 0.01763 0.02918 0.02917 0.30761 0.57654 0.44454 0.409 1.4587 1.663 0.64606 0.7988 0.77451 1.316 0.37927 1.4879-0.09906-0.16736-0.21412-0.35011-0.37927-0.55431-1.0142-1.254-1.1511-1.0864-1.4587-1.663-0.18485-0.34647-0.14502-0.73212-0.02917-0.96276zm-21.561 1.05c0.03552 0.53766 0.05222 0.91868-0.02917 1.0211-0.12507 0.18427-0.85438 0.98725-1.2837 1.6338-0.07365-0.01568-0.13745-0.05709-0.20422-0.08752-0.59987-0.27348 1.2845-2.1801 1.4879-2.4798 0.01197-0.01507 0.02199-0.06193 0.02917-0.08752zm19.985 2.3048c0.10711 0.0011 0.22276 0.0022 0.3501 0.02917 0.01053 0.0023 0.01854 0.02684 0.02918 0.02917 0.38455 0.46022 0.79923 0.96001 0.90441 1.2545 0.1839 0.49183 0.15265 0.77087 0 0.93359-0.21522-0.60257-1.8118-2.1234-1.5463-2.2173 0.07093-0.02506 0.1693-0.0301 0.26257-0.02917zm-19.314 0.758c0.05899 0.01052 0.07612 0.08156 0.02917 0.26257-0.11894 0.45855-0.4554 1.2075-0.61267 1.838-0.22579-0.36098 0.0824-1.2395 0.3501-1.9839 0.08525-0.04801 0.18529-0.12529 0.2334-0.1167z"/>
    </g>
   </g>
  </g>
 </g>
</svg>
