<?xml version="1.0" encoding="UTF-8" standalone="no"?>
<!-- Created with Inkscape (http://www.inkscape.org/) -->
<svg id="svg2982" xmlns:rdf="http://www.w3.org/1999/02/22-rdf-syntax-ns#" xmlns="http://www.w3.org/2000/svg" height="96" width="96" version="1.1" xmlns:cc="http://creativecommons.org/ns#" xmlns:xlink="http://www.w3.org/1999/xlink" xmlns:dc="http://purl.org/dc/elements/1.1/">
 <defs id="defs2984">
  <filter id="filter6279" color-interpolation-filters="sRGB">
   <feGaussianBlur id="feGaussianBlur6281" stdDeviation="0.8"/>
  </filter>
  <linearGradient id="linearGradient7294" x1="48" gradientUnits="userSpaceOnUse" y1="1052.4" gradientTransform="translate(0 -.000034766)" x2="48" y2="902.36">
   <stop id="stop3189-7" style="stop-color:#787878" offset="0"/>
   <stop id="stop3191-85" style="stop-color:#b4b4b4" offset="1"/>
  </linearGradient>
  <linearGradient id="linearGradient7290-6" x1="20.759" gradientUnits="userSpaceOnUse" y1="1" gradientTransform="matrix(1.2791 0 0 1.2791 17.302 974.94)" x2="20.759" y2="45.017">
   <stop id="stop3311-8-4" style="stop-color:#f0f0f0" offset="0"/>
   <stop id="stop3313-3-1" style="stop-color:#aaa" offset="1"/>
  </linearGradient>
  <clipPath id="clipPath4403-0">
   <path id="path4405-4" style="display:block;fill:url(#linearGradient4407)" d="m30.916 135.97c-0.93727 0.54113-1.2283 1.7475-0.67792 2.7008l1.9375 3.3558c-1.4181 1.4141-2.6223 3.012-3.5955 4.71l-3.7836-0.99095c-0.53163-0.14245-1.0379-0.11751-1.4762 0.13061-0.43816 0.24835-0.79654 0.66758-0.9366 1.1903l-1.9788 7.3851c-0.2801 1.0454 0.36595 2.0654 1.4291 2.3503l3.7722 1.0336c-0.0062 1.9571 0.23771 3.943 0.75876 5.8767l-3.3558 1.9375c-0.95328 0.55037-1.3044 1.7407-0.7633 2.6779l3.8125 6.6034c0.54113 0.93727 1.7475 1.2283 2.7008 0.67793l3.3558-1.9375c1.4141 1.4181 3.012 2.6223 4.71 3.5954l-0.99094 3.7836c-0.28489 1.0632 0.27543 2.1328 1.3209 2.4128l7.3851 1.9788c1.0454 0.28011 2.0654-0.36588 2.3503-1.4291l1.0336-3.7722c1.9571 0.006 3.943-0.23771 5.8767-0.75876l1.9375 3.3558c0.55038 0.95328 1.7407 1.3044 2.6779 0.7633l6.6034-3.8125c0.93726-0.54113 1.2283-1.7475 0.67792-2.7008l-1.9375-3.3558c1.4181-1.4141 2.6223-3.012 3.5955-4.71l3.7836 0.99094c1.0632 0.2849 2.1327-0.27549 2.4128-1.3209l1.9788-7.3851c0.2801-1.0454-0.36595-2.0654-1.4291-2.3503l-3.7722-1.0336c0.0062-1.9571-0.2377-3.943-0.75875-5.8767l3.3558-1.9375c0.95327-0.55037 1.3044-1.7407 0.7633-2.6779l-3.8125-6.6034c-0.54113-0.93726-1.7475-1.2283-2.7008-0.67792l-3.3558 1.9375c-1.4141-1.4181-3.012-2.6223-4.71-3.5955l0.99094-3.7836c0.28489-1.0632-0.27542-2.1328-1.3209-2.4128l-7.3851-1.9788c-1.0454-0.28011-2.0654 0.36588-2.3503 1.4291l-1.0336 3.7722c-1.9571-0.006-3.943 0.2377-5.8767 0.75875l-1.9375-3.3558c-0.55038-0.95328-1.7407-1.3044-2.6779-0.7633l-6.6034 3.8125zm10.052 9.7851c6.6961-3.866 15.258-1.5718 19.124 5.1244 3.866 6.6961 1.5717 15.258-5.1244 19.124s-15.258 1.5717-19.124-5.1244-1.5717-15.258 5.1244-19.124z"/>
  </clipPath>
  <linearGradient id="linearGradient7223-0" x1="48.234" xlink:href="#linearGradient4071-3-8" gradientUnits="userSpaceOnUse" x2="126.14" y1="48.047" y2="66.233"/>
  <linearGradient id="linearGradient4071-3-8">
   <stop id="stop4073-8-8" offset="0"/>
   <stop id="stop4075-4-8" style="stop-opacity:0" offset="1"/>
  </linearGradient>
  <linearGradient id="linearGradient7225-4" x1="48.055" xlink:href="#linearGradient4071-3-8" gradientUnits="userSpaceOnUse" x2="126.67" y1="48.032" y2="62.839"/>
  <linearGradient id="linearGradient7227-8" x1="47.997" xlink:href="#linearGradient4071-3-8" gradientUnits="userSpaceOnUse" x2="127.05" y1="48.029" y2="60.29"/>
  <linearGradient id="linearGradient7229-0" x1="47.998" xlink:href="#linearGradient4071-3-8" gradientUnits="userSpaceOnUse" x2="127.42" y1="48.029" y2="57.665"/>
  <linearGradient id="linearGradient7231-8" x1="48.234" xlink:href="#linearGradient4115-2-6" gradientUnits="userSpaceOnUse" x2="126.14" y1="48.047" y2="66.233"/>
  <linearGradient id="linearGradient4115-2-6">
   <stop id="stop4117-3-4" style="stop-color:#fff" offset="0"/>
   <stop id="stop4119-6-3" style="stop-color:#fff;stop-opacity:0" offset="1"/>
  </linearGradient>
  <linearGradient id="linearGradient7233-6" x1="48.055" xlink:href="#linearGradient4115-2-6" gradientUnits="userSpaceOnUse" x2="126.67" y1="48.032" y2="62.839"/>
  <linearGradient id="linearGradient7235-2" x1="47.997" xlink:href="#linearGradient4115-2-6" gradientUnits="userSpaceOnUse" x2="127.05" y1="48.029" y2="60.29"/>
  <linearGradient id="linearGradient7237-4" x1="47.998" xlink:href="#linearGradient4115-2-6" gradientUnits="userSpaceOnUse" x2="127.42" y1="48.029" y2="57.665"/>
  <linearGradient id="linearGradient4355-8" y2="138.66" gradientUnits="userSpaceOnUse" x2="48" y1="20.221" x1="48">
   <stop id="stop3739-57" style="stop-color:#fff" offset="0"/>
   <stop id="stop3741-49" style="stop-color:#fff;stop-opacity:0" offset="1"/>
  </linearGradient>
  <clipPath id="clipPath3613-94">
   <rect id="rect3615-59" style="fill:#fff" rx="6" ry="6" height="84" width="84" y="6" x="6"/>
  </clipPath>
  <filter id="filter3794-35" width="1.384" y="-.192" x="-.192" height="1.384" color-interpolation-filters="sRGB">
   <feGaussianBlur id="feGaussianBlur3796-70" stdDeviation="5.28"/>
  </filter>
  <linearGradient id="linearGradient4207" x1="22.221" xlink:href="#linearGradient4071-3-8" gradientUnits="userSpaceOnUse" y1="14.908" gradientTransform="matrix(.98449 .17543 -.17543 .98449 3.9932 -1.2123)" x2="83.447" y2="78.168"/>
  <radialGradient id="radialGradient3217-7" gradientUnits="userSpaceOnUse" cy="95.866" cx="63.938" gradientTransform="matrix(.14332 -.14331 .83745 .83740 38.232 -15.648)" r="20.688">
   <stop id="stop3407-7" style="stop-color:#d0d0d0" offset="0"/>
   <stop id="stop3409-2" style="stop-color:#a1a1a1" offset="1"/>
  </radialGradient>
  <linearGradient id="linearGradient3219-7" y2="75.04" gradientUnits="userSpaceOnUse" y1="2.6025" x2="40.113" x1="40.113">
   <stop id="stop3555-2" style="stop-color:#5496b4;stop-opacity:.61832" offset="0"/>
   <stop id="stop3557-6" style="stop-color:#dfecf2;stop-opacity:.30534" offset="1"/>
  </linearGradient>
  <linearGradient id="linearGradient3221-1" y2="64" gradientUnits="userSpaceOnUse" y1="11.75" x2="63.25" x1="12.75">
   <stop id="stop3194-6" style="stop-color:#404040" offset="0"/>
   <stop id="stop3200-1" style="stop-color:#b7b7b7" offset=".5"/>
   <stop id="stop3196-5" style="stop-color:#404040" offset="1"/>
  </linearGradient>
  <filter id="filter3274-9" color-interpolation-filters="sRGB">
   <feGaussianBlur id="feGaussianBlur3276-4" stdDeviation="1.9857422"/>
  </filter>
  <linearGradient id="linearGradient3223-9" x1="31.623" xlink:href="#linearGradient4115-2-6" gradientUnits="userSpaceOnUse" y1="-4.4534" gradientTransform="matrix(.99310 0 0 .99310 .51207 .51034)" x2="24.881" y2="48.321"/>
  <linearGradient id="linearGradient3225-7" x1="124.34" xlink:href="#linearGradient4115-2-6" gradientUnits="userSpaceOnUse" x2="10.007" y1="42.894" y2="21.098"/>
  <radialGradient id="radialGradient3227-7" xlink:href="#linearGradient4115-2-6" gradientUnits="userSpaceOnUse" cy="22.818" cx="31.357" gradientTransform="matrix(1 4.829e-8 -3.481e-8 .72085 -.0000065191 6.3697)" r="7.357"/>
  <linearGradient id="linearGradient3229-1" x1="53.797" gradientUnits="userSpaceOnUse" y1="73.685" gradientTransform="matrix(.68752 -.68749 .68752 .68749 23.861 39.569)" x2="61.487" y2="81.817">
   <stop id="stop3427-5" offset="0"/>
   <stop id="stop3429-9" style="stop-opacity:0" offset="1"/>
  </linearGradient>
  <linearGradient id="linearGradient3231-7" x1="72" gradientUnits="userSpaceOnUse" y1="129.12" gradientTransform="matrix(.97228 0 0 .97228 -11.108 44.853)" x2="55.941" y2="129.12">
   <stop id="stop3365-6" offset="0"/>
   <stop id="stop3377-7" style="stop-color:#646464" offset=".2"/>
   <stop id="stop3371-3" style="stop-color:#c8c8c8" offset=".3"/>
   <stop id="stop3373-6" style="stop-color:#646464" offset=".4"/>
   <stop id="stop3367-5" offset="1"/>
  </linearGradient>
  <linearGradient id="linearGradient3233-6" x1="64.414" xlink:href="#linearGradient4115-2-6" gradientUnits="userSpaceOnUse" y1="87.406" gradientTransform="matrix(.68752 -.68749 .68752 .68749 23.861 39.569)" x2="64.414" y2="75.818"/>
  <filter id="filter3439-3" width="1.1875" y="-.16673" x="-.09373" height="1.3335" color-interpolation-filters="sRGB">
   <feGaussianBlur id="feGaussianBlur3441-9" stdDeviation="0.31930287"/>
  </filter>
  <linearGradient id="linearGradient3241" x1="22.221" xlink:href="#linearGradient4071-3-8" gradientUnits="userSpaceOnUse" x2="83.447" gradientTransform="matrix(.92074 .39018 -.39018 .92074 11.483 -7.7523)" y1="14.908" y2="78.168"/>
 </defs>
 <metadata id="metadata2987">
  <rdf:RDF>
   <cc:Work rdf:about="">
    <dc:format>image/svg+xml</dc:format>
    <dc:type rdf:resource="http://purl.org/dc/dcmitype/StillImage"/>
    <dc:title/>
   </cc:Work>
  </rdf:RDF>
 </metadata>
 <g id="layer1" transform="translate(0 -956.36)">
  <g id="g6075">
   <g id="g7970">
    <rect id="rect9283" style="filter:url(#filter6279)" transform="translate(0 -.0000078516)" rx="5" ry="5" height="80" width="80" y="964.36" x="8"/>
    <rect id="rect9285" style="fill:url(#linearGradient7294)" rx="5" ry="5" height="80" width="80" y="964.36" x="8"/>
    <g id="g7506">
     <path id="rect3267" style="display:block;fill:url(#linearGradient7290-6)" d="m44.188 976.86c-1.0823 0-1.9375 0.89924-1.9375 2v3.875c-1.9351 0.5156-3.7769 1.2973-5.4688 2.2812l-2.781-2.75c-0.38918-0.38918-0.84012-0.62073-1.3438-0.625-0.50363-0.004-1.0236 0.17987-1.4062 0.5625l-5.4062 5.4062c-0.76526 0.76527-0.71577 1.9716 0.0625 2.75l2.75 2.7812c-0.98393 1.6918-1.7656 3.5336-2.2812 5.4688h-3.875c-1.1008 0-2 0.85524-2 1.9375v7.625c0 1.0822 0.89925 1.9375 2 1.9375h3.875c0.51561 1.9351 1.2973 3.7769 2.2812 5.4687l-2.75 2.7813c-0.77835 0.7783-0.82784 1.9847-0.0625 2.75l5.4062 5.4062c0.76526 0.7653 1.9717 0.7159 2.75-0.062l2.7812-2.75c1.6918 0.984 3.5336 1.7657 5.4688 2.2813v3.875c0 1.1007 0.85524 2 1.9375 2h7.625c1.0823 0 1.9375-0.8993 1.9375-2v-3.875c1.9351-0.5156 3.7769-1.2973 5.4688-2.2813l2.7812 2.75c0.77835 0.7784 1.9847 0.8278 2.75 0.062l5.4062-5.4062c0.76526-0.7653 0.71577-1.9717-0.0625-2.75l-2.75-2.7813c0.98393-1.6918 1.7657-3.5336 2.2812-5.4687h3.875c1.1007 0 2-0.8553 2-1.9375v-7.625c0-1.0823-0.89926-1.9375-2-1.9375h-3.875c-0.5156-1.9352-1.2973-3.777-2.2812-5.4688l2.75-2.7812c0.77835-0.77835 0.82786-1.9847 0.0625-2.75l-5.406-5.65c-0.76527-0.76527-1.9717-0.71585-2.75 0.0625l-2.7812 2.75c-1.6918-0.98394-3.5336-1.7656-5.4688-2.2812v-3.875c0-1.1008-0.85525-2-1.9375-2h-7.625zm3.8125 13.5c7.732 0 14 6.268 14 14s-6.268 14-14 14-14-6.268-14-14 6.268-14 14-14z"/>
     <g id="g4176" clip-path="url(#clipPath4403-0)" transform="matrix(.86603 .5 -.5 .86603 85.399 843.65)">
      <g id="g4011" style="opacity:.9" transform="matrix(.14137 .99272 -1.1652 .12045 96.937 104.81)">
       <path id="path4009" style="opacity:.05;color:#000000;fill:url(#linearGradient7223-0)" transform="matrix(.99411 -.10837 .10837 .99411 -5.1582 5.4919)" d="m108.9 48a60.896 60.896 0 0 1 -6.5462 27.467l-54.35-27.467z"/>
       <path id="path4007" style="opacity:.07;color:#000000;fill:url(#linearGradient7225-4)" transform="matrix(.99786 -.065374 .065374 .99786 -3.094 3.2416)" d="m108.9 48a60.896 60.896 0 0 1 -4.4572 22.869l-56.44-22.869z"/>
       <path id="path4005" style="opacity:.1;color:#000000;fill:url(#linearGradient7227-8)" transform="matrix(.99945 -.033121 .033121 .99945 -1.5635 1.6161)" d="m108.9 48a60.896 60.896 0 0 1 -3.1299 19.272l-57.77-19.272z"/>
       <path id="path4003" style="opacity:.05;color:#000000;fill:url(#linearGradient7229-0)" d="m108.9 48a60.896 60.896 0 0 1 -2.075 15.761l-58.82-15.761z"/>
      </g>
      <g id="g4027" style="opacity:.9;fill:#fff" transform="matrix(1.0628 -.13088 -.74010 3.2275 32.525 9.3323)">
       <path id="path4029" style="opacity:.2;color:#000000;fill:url(#linearGradient7231-8)" transform="matrix(.99411 -.10837 .10837 .99411 -5.1582 5.4919)" d="m108.9 48a60.896 60.896 0 0 1 -6.5462 27.467l-54.35-27.467z"/>
       <path id="path4031" style="opacity:.4;color:#000000;fill:url(#linearGradient7233-6)" transform="matrix(.99786 -.065374 .065374 .99786 -3.094 3.2416)" d="m108.9 48a60.896 60.896 0 0 1 -4.4572 22.869l-56.44-22.869z"/>
       <path id="path4033" style="opacity:.6;color:#000000;fill:url(#linearGradient7235-2)" transform="matrix(.99945 -.033121 .033121 .99945 -1.5635 1.6161)" d="m108.9 48a60.896 60.896 0 0 1 -3.1299 19.272l-57.77-19.272z"/>
       <path id="path4035" style="opacity:.8;color:#000000;fill:url(#linearGradient7237-4)" d="m108.9 48a60.896 60.896 0 0 1 -2.075 15.761l-58.82-15.761z"/>
      </g>
      <g id="g4079" style="opacity:.5" transform="matrix(-.61679 .78713 -.78713 -.61679 115 150.01)">
       <path id="path4081" style="opacity:.05;color:#000000;fill:url(#linearGradient7223-0)" transform="matrix(.99411 -.10837 .10837 .99411 -5.1582 5.4919)" d="m108.9 48a60.896 60.896 0 0 1 -6.5462 27.467l-54.35-27.467z"/>
       <path id="path4083" style="opacity:.07;color:#000000;fill:url(#linearGradient7225-4)" transform="matrix(.99786 -.065374 .065374 .99786 -3.094 3.2416)" d="m108.9 48a60.896 60.896 0 0 1 -4.4572 22.869l-56.44-22.869z"/>
       <path id="path4085" style="opacity:.1;color:#000000;fill:url(#linearGradient7227-8)" transform="matrix(.99945 -.033121 .033121 .99945 -1.5635 1.6161)" d="m108.9 48a60.896 60.896 0 0 1 -3.1299 19.272l-57.77-19.272z"/>
       <path id="path4087" style="opacity:.1;color:#000000;fill:url(#linearGradient7229-0)" d="m108.9 48a60.896 60.896 0 0 1 -2.075 15.761l-58.82-15.761z"/>
      </g>
      <g id="g4097" style="opacity:.8" transform="matrix(-.068172 -1.046 2.7107 .60163 -79.095 179.08)">
       <path id="path4099" style="opacity:.05;color:#000000;fill:url(#linearGradient7223-0)" transform="matrix(.99411 -.10837 .10837 .99411 -5.1582 5.4919)" d="m108.9 48a60.896 60.896 0 0 1 -6.5462 27.467l-54.35-27.467z"/>
       <path id="path4101" style="opacity:.07;color:#000000;fill:url(#linearGradient7225-4)" transform="matrix(.99786 -.065374 .065374 .99786 -3.094 3.2416)" d="m108.9 48a60.896 60.896 0 0 1 -4.4572 22.869l-56.44-22.869z"/>
       <path id="path4103" style="opacity:.1;color:#000000;fill:url(#linearGradient7227-8)" transform="matrix(.99945 -.033121 .033121 .99945 -1.5635 1.6161)" d="m108.9 48a60.896 60.896 0 0 1 -3.1299 19.272l-57.77-19.272z"/>
       <path id="path4105" style="opacity:.1;color:#000000;fill:url(#linearGradient7229-0)" d="m108.9 48a60.896 60.896 0 0 1 -2.075 15.761l-58.82-15.761z"/>
      </g>
      <g id="g4147" style="opacity:.9;fill:#fff" transform="matrix(-1.0628 .13088 .74010 -3.2275 62.997 306.67)">
       <path id="path4149" style="opacity:.2;color:#000000;fill:url(#linearGradient7231-8)" transform="matrix(.99411 -.10837 .10837 .99411 -5.1582 5.4919)" d="m108.9 48a60.896 60.896 0 0 1 -6.5462 27.467l-54.35-27.467z"/>
       <path id="path4151" style="opacity:.4;color:#000000;fill:url(#linearGradient7233-6)" transform="matrix(.99786 -.065374 .065374 .99786 -3.094 3.2416)" d="m108.9 48a60.896 60.896 0 0 1 -4.4572 22.869l-56.44-22.869z"/>
       <path id="path4153" style="opacity:.6;color:#000000;fill:url(#linearGradient7235-2)" transform="matrix(.99945 -.033121 .033121 .99945 -1.5635 1.6161)" d="m108.9 48a60.896 60.896 0 0 1 -3.1299 19.272l-57.77-19.272z"/>
       <path id="path4155" style="opacity:.8;color:#000000;fill:url(#linearGradient7237-4)" d="m108.9 48a60.896 60.896 0 0 1 -2.075 15.761l-58.82-15.761z"/>
      </g>
     </g>
    </g>
    <g id="layer5" transform="translate(0 956.36)">
     <rect id="rect3171" style="opacity:.15;filter:url(#filter3794-35);stroke:#fff;stroke-linecap:round;stroke-width:.5;fill:url(#linearGradient4355-8)" clip-path="url(#clipPath3613-94)" rx="12" ry="12" height="66" width="66" y="15" x="15"/>
    </g>
   </g>
   <g id="layer6" transform="matrix(.67345 0 0 .67345 9.8195 965.02)">
    <path id="path3188" style="opacity:.6;fill:url(#linearGradient4207)" d="m50.012 48.471c-2.6476 3.0982-6.0171 5.2393-9.6322 6.3918 1.8279 0.34134 3.7679 1.1565 5.2624 2.9203-0.52614 0.67745-0.71291 1.592-0.20015 2.3237l19.454 27.742c0.62896 0.89738 1.913 1.1163 2.8143 0.49079l4.5217-3.1374c0.90137-0.62567 1.1199-1.9169 0.49079-2.8143l-19.41-27.747c-0.5309-0.75745-1.5208-0.90349-2.3576-0.59645-1.0616-1.8929-1.1895-3.8383-0.94328-5.5746z"/>
    <g id="g3204" transform="matrix(.52466 0 0 .52466 -13.243 24.786)">
     <path id="path3310" style="fill-rule:evenodd;stroke:#404141;stroke-width:1.906px;fill:url(#radialGradient3217-7)" d="m101.04 56.585s14.868-7.1322 24.665 2.6645l5.844-5.6718c-9.8966-9.8961-2.7505-24.75-2.7505-24.75-2.1751 6.4212-2.9688 10.531-10.055 17.617-7.1292 7.1288-17.704 10.14-17.704 10.14z"/>
     <path id="path2420" style="stroke:url(#linearGradient3221-1);stroke-width:3.8462;fill:url(#linearGradient3219-7)" transform="matrix(.99114 0 0 .99108 55.641 -16.41)" d="m74.25 37.75a36.25 36.25 0 1 1 -72.5 0 36.25 36.25 0 1 1 72.5 0z"/>
     <path id="path3261" style="opacity:.6;filter:url(#filter3274-9);fill:#b0cedd" transform="matrix(.99802 0 0 .99797 55.503 -16.793)" d="m56.375 13.757c5.1373 5.4535 8.3125 12.862 8.3125 21.031-0.000002 16.735-13.28 30.344-29.625 30.344-6.3178 0-12.159-2.0437-16.969-5.5 5.3809 5.6651 12.897 9.1875 21.219 9.1875 16.345 0 29.625-13.577 29.625-30.312 0-10.231-4.974-19.259-12.562-24.75z"/>
     <g id="g3184" transform="matrix(.96593 -.25882 .25882 .96593 -2.475 25.129)">
      <path id="path3262" style="stroke:url(#linearGradient3225-7);stroke-width:1.9098;fill:url(#linearGradient3223-9)" transform="matrix(.99802 0 0 .99797 54.75 -17.441)" d="m38.25 3.4688c-16.615 0-30.388 11.786-33.688 27.406a0.44507 0.44507 0 0 0 0.21875 0.5c8.1907 4.3501 19.485 7.1562 32.094 7.1562 13.928 0 26.283-3.443 34.562-8.5938a0.44507 0.44507 0 0 0 0.1875 -0.5c-3.818-14.9-17.268-25.968-33.374-25.968z"/>
      <path id="path3278" style="opacity:.6;fill:url(#radialGradient3227-7)" transform="matrix(1.433 0 0 1.4329 36.223 -31.24)" d="m38.714 22.818a7.357 5.3033 0 1 1 -14.714 0 7.357 5.3033 0 1 1 14.714 0z"/>
     </g>
     <path id="path3423" style="opacity:.6;fill:url(#linearGradient3229-1);fill-rule:evenodd" d="m122.72 43.55c-9.3346 9.4619 0.48615 13.368 0.48615 13.368-4.2538-3.2814-15.314-3.0383-15.314-3.0383s3.6461-0.97226 14.828-10.33z"/>
     <rect id="rect3361" style="stroke:#000;stroke-width:1.906;fill:url(#linearGradient3231-7)" rx="1.9446" transform="matrix(.70713 -.70709 .70713 .70709 0 0)" ry="1.9446" width="14.584" y="130.9" x="43.826" height="69.032"/>
     <path id="path3413" style="fill:url(#linearGradient3233-6);fill-rule:evenodd" d="m127.25 56.327-5.3812-5.2594s-1.3996-3.8332 2.4592-7.631c0.3507 6.974 5.092 10.763 5.092 10.763l-2.17 2.1269z"/>
     <path id="path3433" style="opacity:.4;filter:url(#filter3439-3);fill-rule:evenodd;fill:#fff" transform="matrix(.68752 -.68749 .68752 .68749 23.861 39.569)" d="m62.358 89.065 8.1759 0.04419s-2.9027 0.51644-3.403 4.552c-0.35355-4.0659-4.773-4.5962-4.773-4.5962z"/>
     <path id="path3443" style="opacity:.4;filter:url(#filter3439-3);fill-rule:evenodd;fill:#fff" transform="matrix(.68752 -.68749 -.68752 -.68749 194.53 210.23)" d="m62.358 89.065 8.1759 0.04419s-2.9027 0.51644-3.403 4.552c-0.35355-4.0659-4.773-4.5962-4.773-4.5962z"/>
    </g>
    <path id="path4130" style="opacity:.2;fill:url(#linearGradient3241)" d="m45.288 50.929c-3.2708 2.4311-7.0323 3.7684-10.813 4.0873 1.7061 0.73967 3.4159 1.9662 4.4803 4.0184-0.66374 0.54334-1.0494 1.3933-0.71237 2.2208l12.79 31.376c0.41342 1.0149 1.6165 1.5142 2.6344 1.1049l5.1066-2.0522c1.018-0.40932 1.5185-1.6195 1.1049-2.6344l-12.747-31.37c-0.34897-0.85662-1.2815-1.2193-2.1657-1.1063-0.61363-2.0818-0.30523-4.0068 0.32128-5.6447z"/>
   </g>
  </g>
 </g>
</svg>
