<?xml version="1.0" encoding="UTF-8" standalone="no"?>
<!-- Created with Inkscape (http://www.inkscape.org/) -->
<svg id="svg2982" xmlns:rdf="http://www.w3.org/1999/02/22-rdf-syntax-ns#" xmlns="http://www.w3.org/2000/svg" height="96" width="96" version="1.1" xmlns:cc="http://creativecommons.org/ns#" xmlns:xlink="http://www.w3.org/1999/xlink" xmlns:dc="http://purl.org/dc/elements/1.1/">
 <defs id="defs2984">
  <filter id="filter8262" color-interpolation-filters="sRGB">
   <feGaussianBlur id="feGaussianBlur8264" stdDeviation="0.78065245"/>
  </filter>
  <linearGradient id="linearGradient6375" x1="48.036" gradientUnits="userSpaceOnUse" y1="25.911" gradientTransform="matrix(.93226 0 0 .93226 3.2517 958.18)" x2="48.036" y2="85.821">
   <stop id="stop3319-60" style="stop-color:#3c8fc2" offset="0"/>
   <stop id="stop3321-6" style="stop-color:#2174a6" offset="1"/>
  </linearGradient>
  <linearGradient id="linearGradient6378" y2="81.481" gradientUnits="userSpaceOnUse" y1="22.933" x2="48.022" x1="48.022">
   <stop id="stop3876-61" style="stop-color:#fff" offset="0"/>
   <stop id="stop3878-87" style="stop-color:#fff;stop-opacity:0" offset="1"/>
  </linearGradient>
  <clipPath id="clipPath3860-3">
   <rect id="rect3862-7" style="fill:#f0f" rx="6" ry="6" height="72" width="84" y="18" x="6"/>
  </clipPath>
  <filter id="filter3870-1" width="1.3312" y="-.19716" x="-.16559" height="1.3943" color-interpolation-filters="sRGB">
   <feGaussianBlur id="feGaussianBlur3872-9" stdDeviation="5.1703125"/>
  </filter>
 </defs>
 <metadata id="metadata2987">
  <rdf:RDF>
   <cc:Work rdf:about="">
    <dc:format>image/svg+xml</dc:format>
    <dc:type rdf:resource="http://purl.org/dc/dcmitype/StillImage"/>
    <dc:title/>
   </cc:Work>
  </rdf:RDF>
 </metadata>
 <g id="layer1" transform="translate(0 -956.36)">
  <g id="g7148">
   <path id="path3908-1" d="m17.071 965.51c-2.5957 0-4.6793 2.0361-4.6793 4.5652v3.3668c-2.1585 1.0239-3.6522 3.2074-3.6522 5.7636v57.522c0 3.5408 2.8505 6.3914 6.3913 6.3914h65.739c3.5408 0 6.3913-2.8506 6.3913-6.3914v-57.522c0-2.5654-1.5096-4.7445-3.6807-5.7636-0.1549-2.3907-2.1568-4.2799-4.6508-4.2799h-37.064c-3.8535-3.7547-4.1112-3.5911-5.9348-3.6522h-18.86z" style="filter:url(#filter8262)" transform="matrix(1.021 0 0 1.021 -1.01 -21.124)"/>
   <rect id="rect3352" style="fill:url(#linearGradient6375)" rx="5.5935" ry="5.5935" height="58.432" width="69.919" y="979.76" x="13.074"/>
   <path id="path3908" style="opacity:.75;fill:#709937" d="m17.236 963.78c-2.5823 0-4.6613 2.0789-4.6613 4.6613v55.761c0 2.2311 1.7892 4.0203 4.0204 4.0203h62.811c2.2311 0 4.0204-1.7892 4.0204-4.0203v-52.032c0-2.5824-2.0789-4.6613-4.6613-4.6613h-37.786c-3.8337-3.8337-4.0707-3.6666-5.8849-3.729z"/>
   <rect id="rect2419" style="stroke:#97bf60;fill:#709937" rx="5.5935" ry="5.5935" height="70.851" width="78.31" y="971.23" x="8.8452"/>
   <g id="layer5" transform="translate(0 952.36)">
    <path id="path3850" style="opacity:.15;filter:url(#filter3870-1);fill:url(#linearGradient6378)" clip-path="url(#clipPath3860-3)" d="m15.969 22.531c-2.8459 0.0043-5.4332 2.5916-5.4375 5.4375v48.062c0.0043 2.8459 2.5916 5.4332 5.4375 5.4375h64.062c2.8459-0.0043 5.4332-2.5916 5.4375-5.4375v-48.062c-0.0043-2.8459-2.5916-5.4332-5.4375-5.4375z"/>
   </g>
  </g>
  <path id="rect3267" style="opacity:.25;display:block;fill:#fff" d="m44.962 1030.4c-0.86581 0-1.5669-0.7183-1.5669-1.599v-3.1017c-1.5481-0.4125-3.0274-1.0355-4.3808-1.8227l-2.2064 2.2064c-0.31134 0.3114-0.68429 0.4763-1.0872 0.4797-0.40291 0-0.81308-0.1416-1.1192-0.4477l-4.3169-4.3168c-0.61221-0.6123-0.5907-1.5837 0.03191-2.2064l2.2064-2.2064c-0.78715-1.3535-1.4102-2.8327-1.8227-4.3808h-3.1017c-0.8806 0-1.5988-0.7011-1.5988-1.5669v-6.0755c0-0.8658 0.71823-1.5669 1.5988-1.5669h3.1017c0.41249-1.5481 1.0355-3.0274 1.8227-4.3808l-2.2064-2.2064c-0.62268-0.62268-0.64419-1.5942-0.03191-2.2064l4.3169-4.3168c0.61221-0.61222 1.5837-0.59071 2.2064 0.032l2.2064 2.2064c1.3534-0.78715 2.8327-1.4102 4.3808-1.8227v-3.1017c0-0.8806 0.70105-1.5988 1.5669-1.5988h6.0756c0.8658 0 1.5669 0.71823 1.5669 1.5988v3.1017c1.5481 0.41248 3.0274 1.0355 4.3808 1.8227l2.2064-2.2064c0.62268-0.62268 1.5942-0.6442 2.2064-0.032l4.3168 4.3168c0.61221 0.61221 0.5907 1.5837-0.03192 2.2064l-2.2064 2.2064c0.78715 1.3534 1.4102 2.8327 1.8227 4.3808h3.1017c0.8806 0 1.5988 0.7011 1.5988 1.5669v6.0755c0 0.8658-0.71824 1.5669-1.5988 1.5669h-3.1017c-0.41248 1.5481-1.0355 3.0273-1.8227 4.3808l2.2064 2.2064c0.62268 0.6227 0.6442 1.5941 0.03192 2.2064l-4.3168 4.3168c-0.61222 0.6122-1.5837 0.5907-2.2064-0.032l-2.2064-2.2064c-1.3534 0.7872-2.8327 1.4102-4.3808 1.8227v3.1017c0 0.8806-0.70105 1.599-1.5669 1.599h-6.0756zm3.0378-15.349c3.6714 0 6.6511-2.9797 6.6511-6.6512 0-3.6714-2.9797-6.6511-6.6511-6.6511s-6.6511 2.9797-6.6511 6.6511c0 3.6715 2.9797 6.6512 6.6511 6.6512z"/>
 </g>
</svg>
