<?xml version="1.0" encoding="UTF-8" standalone="no"?>
<!-- Created with Inkscape (http://www.inkscape.org/) -->

<svg
   xmlns:dc="http://purl.org/dc/elements/1.1/"
   xmlns:cc="http://creativecommons.org/ns#"
   xmlns:rdf="http://www.w3.org/1999/02/22-rdf-syntax-ns#"
   xmlns:svg="http://www.w3.org/2000/svg"
   xmlns="http://www.w3.org/2000/svg"
   xmlns:xlink="http://www.w3.org/1999/xlink"
   xmlns:sodipodi="http://sodipodi.sourceforge.net/DTD/sodipodi-0.dtd"
   xmlns:inkscape="http://www.inkscape.org/namespaces/inkscape"
   width="96"
   height="96"
   id="svg2982"
   version="1.1"
   inkscape:version="0.48.1 r9760"
   sodipodi:docname="emblem-money.svg">
  <defs
     id="defs2984">
    <filter
       color-interpolation-filters="sRGB"
       inkscape:collect="always"
       id="filter6279-2">
      <feGaussianBlur
         inkscape:collect="always"
         stdDeviation="0.8"
         id="feGaussianBlur6281-1" />
    </filter>
    <linearGradient
       inkscape:collect="always"
       xlink:href="#linearGradient3700-2"
       id="linearGradient9181"
       gradientUnits="userSpaceOnUse"
       gradientTransform="translate(0,-7.8515622e-6)"
       x1="48"
       y1="1052.3622"
       x2="48"
       y2="902.36218" />
    <linearGradient
       id="linearGradient3700-2">
      <stop
         id="stop3702-76"
         style="stop-color:#4c6d37;stop-opacity:1"
         offset="0" />
      <stop
         id="stop3704-1"
         style="stop-color:#75ac54;stop-opacity:1"
         offset="1" />
    </linearGradient>
    <linearGradient
       y2="138.66119"
       x2="48"
       y1="20.220806"
       x1="48"
       gradientUnits="userSpaceOnUse"
       id="linearGradient3122-1"
       xlink:href="#linearGradient3737-78"
       inkscape:collect="always" />
    <linearGradient
       id="linearGradient3737-78">
      <stop
         id="stop3739-74"
         style="stop-color:#ffffff;stop-opacity:1"
         offset="0" />
      <stop
         id="stop3741-19"
         style="stop-color:#ffffff;stop-opacity:0"
         offset="1" />
    </linearGradient>
    <clipPath
       id="clipPath3613-098">
      <rect
         width="84"
         height="84"
         rx="6"
         ry="6"
         x="6"
         y="6"
         id="rect3615-8"
         style="fill:#ffffff;fill-opacity:1;fill-rule:nonzero;stroke:none" />
    </clipPath>
    <filter
       x="-0.192"
       y="-0.192"
       width="1.3839999"
       height="1.3839999"
       color-interpolation-filters="sRGB"
       id="filter3794-58">
      <feGaussianBlur
         id="feGaussianBlur3796-437"
         stdDeviation="5.28" />
    </filter>
    <linearGradient
       y2="8.8750048"
       x2="37.875"
       y1="-62"
       x1="37.875"
       gradientTransform="matrix(0.88888883,0,0,0.88888883,5.3333362,71.111107)"
       gradientUnits="userSpaceOnUse"
       id="linearGradient3100-0"
       xlink:href="#linearGradient4088"
       inkscape:collect="always" />
    <linearGradient
       id="linearGradient4088">
      <stop
         id="stop4090"
         style="stop-color:#d5b742;stop-opacity:1"
         offset="0" />
      <stop
         id="stop4094"
         style="stop-color:#f5e6aa;stop-opacity:1"
         offset="0.34920636" />
      <stop
         id="stop4096"
         style="stop-color:#e0bf55;stop-opacity:1"
         offset="0.5714286" />
      <stop
         id="stop4092"
         style="stop-color:#8a6e24;stop-opacity:1"
         offset="1" />
    </linearGradient>
  </defs>
  <sodipodi:namedview
     id="base"
     pagecolor="#ffffff"
     bordercolor="#666666"
     borderopacity="1.0"
     inkscape:pageopacity="0.0"
     inkscape:pageshadow="2"
     inkscape:zoom="3.959798"
     inkscape:cx="36.39115"
     inkscape:cy="42.877139"
     inkscape:document-units="px"
     inkscape:current-layer="layer1"
     showgrid="false"
     inkscape:window-width="1280"
     inkscape:window-height="725"
     inkscape:window-x="0"
     inkscape:window-y="25"
     inkscape:window-maximized="1" />
  <metadata
     id="metadata2987">
    <rdf:RDF>
      <cc:Work
         rdf:about="">
        <dc:format>image/svg+xml</dc:format>
        <dc:type
           rdf:resource="http://purl.org/dc/dcmitype/StillImage" />
        <dc:title></dc:title>
      </cc:Work>
    </rdf:RDF>
  </metadata>
  <g
     inkscape:label="Layer 1"
     inkscape:groupmode="layer"
     id="layer1"
     transform="translate(0,-956.36218)">
    <g
       id="g6939">
      <rect
         transform="translate(0,-7.8515622e-6)"
         y="964.36218"
         x="8"
         height="80"
         width="80"
         id="rect9283"
         style="fill:#000000;fill-opacity:1;stroke:none;filter:url(#filter6279-2)"
         rx="5"
         ry="5" />
      <rect
         ry="5"
         rx="5"
         style="fill:url(#linearGradient9181);fill-opacity:1;stroke:none"
         id="rect9285"
         width="80"
         height="80"
         x="8"
         y="964.36218" />
      <g
         id="layer5"
         transform="translate(0,956.36218)">
        <rect
           style="opacity:0.1;fill:url(#linearGradient3122-1);fill-opacity:1;fill-rule:nonzero;stroke:#ffffff;stroke-width:0.5;stroke-linecap:round;stroke-linejoin:miter;stroke-miterlimit:4;stroke-opacity:1;stroke-dasharray:none;stroke-dashoffset:0;filter:url(#filter3794-58)"
           id="rect3171"
           clip-path="url(#clipPath3613-098)"
           y="15"
           x="15"
           ry="12"
           rx="12"
           height="66"
           width="66" />
      </g>
      <g
         id="layer4"
         transform="matrix(0.84862921,0,0,0.84862921,7.2897978,963.69684)">
        <path
           style="font-size:73.92197418px;font-style:normal;font-variant:normal;font-weight:normal;font-stretch:normal;text-align:start;line-height:100%;writing-mode:lr-tb;text-anchor:start;fill:url(#linearGradient3100-0);fill-opacity:1;stroke:none;font-family:Biohazard Participants;-inkscape-font-specification:Biohazard Participants"
           id="path3104"
           inkscape:connector-curvature="0"
           d="m 51.679672,72.837782 0,7.162218 -7.359343,0 0,-7.030801 C 40.027366,72.44353 36.654338,70.866529 34.201233,68.238193 31.748114,65.566056 30.455849,62.06161 30.324436,57.724847 l 11.893223,0.06571 c 0.04379,1.577013 0.613263,2.825472 1.70842,3.74538 1.095122,0.919926 2.453094,1.379884 4.073921,1.379876 1.401757,8e-6 2.628314,-0.350437 3.679672,-1.051334 1.226531,-0.744686 1.839809,-1.774117 1.839835,-3.088296 -2.6e-5,-1.927433 -1.971277,-3.613947 -5.913758,-5.059548 -5.869965,-2.146456 -9.527731,-3.723457 -10.973305,-4.731006 -3.942511,-2.628313 -5.913761,-6.373689 -5.913757,-11.236139 -4e-6,-3.986274 1.29226,-7.3374 3.876796,-10.053389 2.49691,-2.584485 5.738522,-4.139582 9.724846,-4.665297 l 0,-7.0308 7.359343,0 0,7.0308 c 8.542061,1.533243 12.856909,6.592785 12.944558,15.178644 l -11.63039,0 c -2.6e-5,-1.664579 -0.481887,-3.022552 -1.445585,-4.073921 -0.963748,-1.095103 -2.277915,-1.642673 -3.942506,-1.64271 -1.314187,3.7e-5 -2.453132,0.372385 -3.416837,1.117042 -1.095156,0.788537 -1.642726,1.839871 -1.642711,3.154004 -1.5e-5,1.664646 1.993139,3.263549 5.979467,4.796715 5.826118,2.146502 9.549592,3.78921 11.170431,4.928131 3.986273,2.672163 5.979427,6.351832 5.979465,11.039014 -3.8e-5,4.161542 -1.314205,7.622182 -3.942504,10.38193 -2.496952,2.584531 -5.848078,4.22724 -10.053388,4.928131" />
      </g>
    </g>
  </g>
</svg>
