<?xml version="1.0" encoding="UTF-8" standalone="no"?>
<!-- Created with Inkscape (http://www.inkscape.org/) -->
<svg id="svg2982" xmlns:rdf="http://www.w3.org/1999/02/22-rdf-syntax-ns#" xmlns="http://www.w3.org/2000/svg" height="96" width="96" version="1.1" xmlns:cc="http://creativecommons.org/ns#" xmlns:xlink="http://www.w3.org/1999/xlink" xmlns:dc="http://purl.org/dc/elements/1.1/">
 <defs id="defs2984">
  <filter id="filter6279-2" color-interpolation-filters="sRGB">
   <feGaussianBlur id="feGaussianBlur6281-1" stdDeviation="0.8"/>
  </filter>
  <linearGradient id="linearGradient9181" y2="902.36" gradientUnits="userSpaceOnUse" x2="48" gradientTransform="translate(0 -.0000078516)" y1="1052.4" x1="48">
   <stop id="stop3189-4" style="stop-color:#c8c8c8" offset="0"/>
   <stop id="stop3191-0-2" style="stop-color:#e6e6e6" offset="1"/>
  </linearGradient>
  <clipPath id="clipPath3647">
   <path id="path3649" style="opacity:.3;color:#000000;fill:#f00" d="m-100-74v96h96v-96h-96zm32.938 20 15.062 15.062 15.062-15.062 12.938 12.938-15.062 15.062 15.062 15.062-12.938 12.938-15.062-15.062-15.062 15.062-12.938-12.938 15.062-15.062-15.062-15.062 12.938-12.938z"/>
  </clipPath>
  <filter id="filter3651" color-interpolation-filters="sRGB">
   <feGaussianBlur id="feGaussianBlur3653" stdDeviation="0.84000001"/>
  </filter>
  <linearGradient id="linearGradient3634" y2="18.083" gradientUnits="userSpaceOnUse" x2="11" gradientTransform="matrix(4,0,0,4,4,-70)" y1="3.9375" x1="11">
   <stop id="stop3906" style="stop-color:#323232" offset="0"/>
   <stop id="stop3908" style="stop-color:#787878" offset="1"/>
  </linearGradient>
 </defs>
 <metadata id="metadata2987">
  <rdf:RDF>
   <cc:Work rdf:about="">
    <dc:format>image/svg+xml</dc:format>
    <dc:type rdf:resource="http://purl.org/dc/dcmitype/StillImage"/>
    <dc:title/>
   </cc:Work>
  </rdf:RDF>
 </metadata>
 <g id="layer1" transform="translate(0 -956.36)">
  <g id="g6877">
   <rect id="rect9283" ry="5" style="filter:url(#filter6279-2)" rx="5" transform="translate(0 -.0000078516)" height="80" width="80" y="964.36" x="8"/>
   <rect id="rect9285" style="fill:url(#linearGradient9181)" rx="5" ry="5" height="80" width="80" y="964.36" x="8"/>
   <g id="g3045" transform="matrix(.93703 0 0 .93703 3.0225 959.38)">
    <g id="layer3" transform="translate(0,74)">
     <path id="path3638" style="opacity:.2;filter:url(#filter3651);stroke:#fff;stroke-width:4;fill:none" d="m-36.923-54-15.077 15.077-15.077-15.077-12.923 12.923 15.077 15.077-15.077 15.077 12.923 12.923 15.077-15.077 15.077 15.077 12.923-12.923-15.077-15.077 15.077-15.077-12.923-12.923z" clip-path="url(#clipPath3647)" transform="translate(100)"/>
     <path id="Symbol" style="fill:url(#linearGradient3634)" d="m63.077-54-15.077 15.077-15.077-15.077-12.923 12.923 15.077 15.077-15.077 15.077 12.923 12.923 15.077-15.077 15.077 15.077 12.923-12.923-15.077-15.077 15.077-15.077-12.923-12.923z"/>
    </g>
   </g>
  </g>
 </g>
</svg>
