<?xml version="1.0" encoding="UTF-8" standalone="no"?>
<!-- Created with Inkscape (http://www.inkscape.org/) -->

<svg
   xmlns:dc="http://purl.org/dc/elements/1.1/"
   xmlns:cc="http://creativecommons.org/ns#"
   xmlns:rdf="http://www.w3.org/1999/02/22-rdf-syntax-ns#"
   xmlns:svg="http://www.w3.org/2000/svg"
   xmlns="http://www.w3.org/2000/svg"
   xmlns:xlink="http://www.w3.org/1999/xlink"
   xmlns:sodipodi="http://sodipodi.sourceforge.net/DTD/sodipodi-0.dtd"
   xmlns:inkscape="http://www.inkscape.org/namespaces/inkscape"
   width="96"
   height="96"
   id="svg2982"
   version="1.1"
   inkscape:version="0.48.1 r9760"
   sodipodi:docname="emblem-shared.svg">
  <defs
     id="defs2984">
    <filter
       color-interpolation-filters="sRGB"
       inkscape:collect="always"
       id="filter6279-2">
      <feGaussianBlur
         inkscape:collect="always"
         stdDeviation="0.8"
         id="feGaussianBlur6281-1" />
    </filter>
    <linearGradient
       inkscape:collect="always"
       xlink:href="#ButtonColor-6"
       id="linearGradient9181"
       gradientUnits="userSpaceOnUse"
       gradientTransform="translate(0,-7.8515622e-6)"
       x1="48"
       y1="1052.3622"
       x2="48"
       y2="902.36218" />
    <linearGradient
       x1="10.31979"
       y1="21"
       x2="10.31979"
       y2="0.99929649"
       id="ButtonColor-6"
       gradientUnits="userSpaceOnUse">
      <stop
         id="stop3189-4"
         style="stop-color:#c8c8c8;stop-opacity:1"
         offset="0" />
      <stop
         id="stop3191-0-2"
         style="stop-color:#e6e6e6;stop-opacity:1"
         offset="1" />
    </linearGradient>
    <filter
       color-interpolation-filters="sRGB"
       id="filter4005">
      <feGaussianBlur
         id="feGaussianBlur4007"
         stdDeviation="0.83447898" />
    </filter>
    <linearGradient
       y2="39.990356"
       x2="127.99561"
       y1="272.01312"
       x1="127.99561"
       gradientTransform="matrix(0.28151335,0,0,-0.275835,8.246504,91.030886)"
       gradientUnits="userSpaceOnUse"
       id="linearGradient3075"
       xlink:href="#linearGradient5044"
       inkscape:collect="always" />
    <linearGradient
       x1="12.80275"
       y1="3.7361259"
       x2="12.80275"
       y2="16.759111"
       id="linearGradient5044"
       gradientUnits="userSpaceOnUse"
       gradientTransform="matrix(0.8458416,0,0,1.0765258,-1.4962477,-3.0220357)">
      <stop
         id="stop5046"
         style="stop-color:#323232;stop-opacity:1"
         offset="0" />
      <stop
         id="stop5048"
         style="stop-color:#787878;stop-opacity:1"
         offset="1" />
    </linearGradient>
  </defs>
  <sodipodi:namedview
     id="base"
     pagecolor="#ffffff"
     bordercolor="#666666"
     borderopacity="1.0"
     inkscape:pageopacity="0.0"
     inkscape:pageshadow="2"
     inkscape:zoom="3.959798"
     inkscape:cx="36.39115"
     inkscape:cy="42.877139"
     inkscape:document-units="px"
     inkscape:current-layer="layer1"
     showgrid="false"
     inkscape:window-width="1280"
     inkscape:window-height="725"
     inkscape:window-x="0"
     inkscape:window-y="25"
     inkscape:window-maximized="1" />
  <metadata
     id="metadata2987">
    <rdf:RDF>
      <cc:Work
         rdf:about="">
        <dc:format>image/svg+xml</dc:format>
        <dc:type
           rdf:resource="http://purl.org/dc/dcmitype/StillImage" />
        <dc:title></dc:title>
      </cc:Work>
    </rdf:RDF>
  </metadata>
  <g
     inkscape:label="Layer 1"
     inkscape:groupmode="layer"
     id="layer1"
     transform="translate(0,-956.36218)">
    <g
       id="g6873">
      <rect
         transform="translate(0,-7.8515622e-6)"
         y="964.36218"
         x="8"
         height="80"
         width="80"
         id="rect9283"
         style="fill:#000000;fill-opacity:1;stroke:none;filter:url(#filter6279-2)"
         rx="5"
         ry="5" />
      <rect
         ry="5"
         rx="5"
         style="fill:url(#linearGradient9181);fill-opacity:1;stroke:none"
         id="rect9285"
         width="80"
         height="80"
         x="8"
         y="964.36218" />
      <g
         id="g3052"
         style="display:inline"
         transform="matrix(0.81388889,0,0,0.81388889,9.2203241,965.49263)">
        <path
           style="opacity:0.2;color:#000000;fill:none;stroke:#ffffff;stroke-width:4;stroke-miterlimit:4;stroke-dasharray:none;marker:none;visibility:visible;display:inline;overflow:visible;filter:url(#filter4005);enable-background:accumulate"
           id="path3998"
           inkscape:connector-curvature="0"
           d="m 59.79864,79.997486 c -5.6742,0.0041 -10.933433,-4.804089 -11.003651,-10.571521 -0.09199,-3.297532 -0.975179,-6.90651 -3.902173,-8.827802 -4.333422,-3.495849 -10.262945,-0.0088 -14.861385,-2.763148 -4.978974,-2.479804 -7.480273,-8.941045 -5.173463,-14.066915 1.842488,-4.488265 6.763455,-7.390008 11.598549,-6.76383 3.426934,0.420038 7.304309,0.03167 9.719042,-2.720878 3.848455,-3.686254 1.339407,-9.82422 4.733489,-13.763769 3.694832,-5.098588 11.700814,-6.05486 16.442351,-1.878229 4.836408,3.78184 5.285503,11.682747 0.882001,15.968468 -2.61078,2.899856 -6.679023,3.842686 -10.443476,3.338653 -3.820409,-0.570067 -8.006979,0.977426 -9.922896,4.458021 -1.807279,3.765186 -1.792007,8.665886 0.641449,12.155133 2.113192,2.867512 5.844675,3.960633 9.281447,3.490967 3.764453,-0.504035 7.832686,0.438802 10.443476,3.338643 4.285937,4.181995 3.998136,11.822948 -0.563592,15.691404 -2.122528,1.935846 -5.003531,2.984946 -7.871168,2.914803 z" />
        <path
           style="color:#000000;fill:url(#linearGradient3075);fill-opacity:1;fill-rule:evenodd;stroke:none;stroke-width:1;marker:none;visibility:visible;display:inline;overflow:visible;enable-background:accumulate"
           id="path3984-0-3-4-7"
           inkscape:connector-curvature="0"
           d="m 59.79864,79.997486 c -2.523146,-0.0537 -5.047828,-0.931008 -7.108212,-2.67215 C 46.064287,71.725856 51.210879,65.908132 45.432661,61.02521 39.65445,56.142281 34.534599,61.978589 27.908454,56.379113 l 0,-0.0086 c -1.471703,-1.243676 -2.533653,-2.783677 -3.175822,-4.447838 -0.0043,-0.01085 -0.0046,-0.02353 -0.0088,-0.03449 -0.129321,-0.338426 -0.239828,-0.678158 -0.334295,-1.02576 -0.04193,-0.154327 -0.08812,-0.309725 -0.123172,-0.465472 -0.0039,-0.01702 -0.0051,-0.03467 -0.0088,-0.05173 -0.07224,-0.328492 -0.125676,-0.658256 -0.167147,-0.991283 -3.64e-4,-0.0028 3.38e-4,-0.0057 0,-0.0086 -0.0022,-0.01735 -0.0067,-0.03437 -0.0088,-0.05172 -0.01845,-0.155118 -0.03226,-0.309754 -0.04399,-0.46547 -0.009,-0.117079 -0.02122,-0.236206 -0.02639,-0.353414 -0.0025,-0.05966 -0.0072,-0.121308 -0.0088,-0.181017 -5.65e-4,-0.01988 4.49e-4,-0.04044 0,-0.06034 -0.0032,-0.156237 -0.0033,-0.309149 0,-0.465472 0.0015,-0.07997 0.0054,-0.161458 0.0088,-0.241357 0.0053,-0.117203 0.01741,-0.236332 0.02639,-0.353413 0.01336,-0.173419 0.0311,-0.344308 0.0528,-0.51719 3.39e-4,-0.0028 -3.65e-4,-0.0057 0,-0.0086 0.04146,-0.333027 0.09492,-0.662789 0.167149,-0.991282 0.0038,-0.01718 0.005,-0.03456 0.0088,-0.05171 0.03556,-0.15669 0.08051,-0.310011 0.123172,-0.465472 0.09447,-0.3476 0.204972,-0.687333 0.334296,-1.02576 0.0043,-0.01099 0.0046,-0.02341 0.0088,-0.03449 0.642167,-1.664161 1.704119,-3.204163 3.175822,-4.44784 l 0,-0.0086 c 6.626144,-5.599476 11.745996,0.236832 17.524206,-4.646097 5.778218,-4.882923 0.631626,-10.700646 7.257768,-16.300126 4.709482,-3.979862 11.817455,-3.459503 15.879143,1.154956 4.061689,4.614456 3.539407,11.579055 -1.17004,15.558818 -6.626144,5.599473 -11.745991,-0.245448 -17.524206,4.637476 -2.918927,2.466666 -3.046801,5.178196 -3.31658,7.973356 0.269779,2.795159 0.397653,5.506689 3.31658,7.973355 5.778215,4.882926 10.898062,-0.961997 17.524206,4.637476 4.709447,3.979707 5.231729,10.944305 1.17004,15.558763 -2.284697,2.595633 -5.526856,3.896254 -8.770901,3.82721 z" />
      </g>
    </g>
  </g>
</svg>
