<?xml version="1.0" encoding="UTF-8" standalone="no"?>
<!-- Created with Inkscape (http://www.inkscape.org/) -->
<svg id="svg2982" xmlns:rdf="http://www.w3.org/1999/02/22-rdf-syntax-ns#" xmlns="http://www.w3.org/2000/svg" height="96" width="96" version="1.1" xmlns:cc="http://creativecommons.org/ns#" xmlns:xlink="http://www.w3.org/1999/xlink" xmlns:dc="http://purl.org/dc/elements/1.1/">
 <defs id="defs2984">
  <filter id="filter6279-2" color-interpolation-filters="sRGB">
   <feGaussianBlur id="feGaussianBlur6281-1" stdDeviation="0.8"/>
  </filter>
  <linearGradient id="linearGradient9181" y2="902.36" gradientUnits="userSpaceOnUse" x2="48" gradientTransform="translate(0 -.0000078516)" y1="1052.4" x1="48">
   <stop id="stop3189-4" style="stop-color:#c8c8c8" offset="0"/>
   <stop id="stop3191-0-3" style="stop-color:#e6e6e6" offset="1"/>
  </linearGradient>
  <clipPath id="clipPath3723">
   <path id="path3725" style="opacity:.3;color:#000000;fill:#f00" d="m-100-80v96h96v-96h-96zm48 16c17.673 0 32 14.327 32 32s-14.327 32-32 32-32-14.327-32-32 14.327-32 32-32zm0 8c-13.255 0-24 10.745-24 24s10.745 24 24 24 24-10.745 24-24-10.745-24-24-24zm-0.25 4h0.5c2.0639 0 3.75 1.6861 3.75 3.75v12.25h10c2.216 0 4 1.784 4 4s-1.784 4-4 4h-13.75-0.25c-0.0869 0-0.16451 0.0054-0.25 0-2.0639 0-3.75-1.6861-3.75-3.75v-16.5c0-2.0639 1.6861-3.75 3.75-3.75z"/>
  </clipPath>
  <filter id="filter3727" color-interpolation-filters="sRGB">
   <feGaussianBlur id="feGaussianBlur3729" stdDeviation="0.96"/>
  </filter>
  <linearGradient id="linearGradient3728" y2="11" gradientUnits="userSpaceOnUse" x2="19" gradientTransform="matrix(0,4,-4,0,92,-76)" y1="11" x1="3">
   <stop id="stop3657" style="stop-color:#ad0707" offset="0"/>
   <stop id="stop3659" style="stop-color:#f75535" offset="1"/>
  </linearGradient>
 </defs>
 <metadata id="metadata2987">
  <rdf:RDF>
   <cc:Work rdf:about="">
    <dc:format>image/svg+xml</dc:format>
    <dc:type rdf:resource="http://purl.org/dc/dcmitype/StillImage"/>
    <dc:title/>
   </cc:Work>
  </rdf:RDF>
 </metadata>
 <g id="layer1" transform="translate(0 -956.36)">
  <g id="g6878">
   <rect id="rect9283" ry="5" style="filter:url(#filter6279-2)" rx="5" transform="translate(0 -.0000078516)" height="80" width="80" y="964.36" x="8"/>
   <rect id="rect9285" style="fill:url(#linearGradient9181)" rx="5" ry="5" height="80" width="80" y="964.36" x="8"/>
   <g id="g3045" transform="matrix(.75749 0 0 .75749 11.64 968)">
    <g id="layer2" transform="translate(0,80)">
     <path id="path3714" style="opacity:.2;stroke-width:4;color:#000000;filter:url(#filter3727);stroke:#fff;fill:none" d="m-52-64c-17.673 0-32 14.327-32 32s14.327 32 32 32 32-14.327 32-32-14.327-32-32-32zm0 8c13.255 0 24 10.745 24 24s-10.745 24-24 24-24-10.745-24-24 10.745-24 24-24zm-0.25 4c-2.0639 0-3.75 1.6861-3.75 3.75v16.5c0 2.0639 1.6861 3.75 3.75 3.75 0.08549 0.0054 0.1631 0 0.25 0h0.25 13.75c2.216 0 4-1.784 4-4s-1.784-4-4-4h-10v-12.25c0-2.0639-1.6861-3.75-3.75-3.75h-0.5z" clip-path="url(#clipPath3723)" transform="translate(100)"/>
     <path id="path3716" style="color:#000000;fill:url(#linearGradient3728)" d="m48-64c-17.673 0-32 14.327-32 32s14.327 32 32 32 32-14.327 32-32-14.327-32-32-32zm0 8c13.255 0 24 10.745 24 24s-10.745 24-24 24-24-10.745-24-24 10.745-24 24-24zm-0.25 4c-2.0639 0-3.75 1.6861-3.75 3.75v16.5c0 2.0639 1.6861 3.75 3.75 3.75 0.08549 0.0054 0.1631 0 0.25 0h0.25 13.75c2.216 0 4-1.784 4-4s-1.784-4-4-4h-10v-12.25c0-2.064-1.686-3.75-3.75-3.75h-0.5z"/>
    </g>
   </g>
  </g>
 </g>
</svg>
