<?xml version="1.0" encoding="UTF-8" standalone="no"?>
<!-- Created with Inkscape (http://www.inkscape.org/) -->
<svg id="svg2982" xmlns:rdf="http://www.w3.org/1999/02/22-rdf-syntax-ns#" xmlns="http://www.w3.org/2000/svg" height="96" width="96" version="1.1" xmlns:cc="http://creativecommons.org/ns#" xmlns:xlink="http://www.w3.org/1999/xlink" xmlns:dc="http://purl.org/dc/elements/1.1/">
 <defs id="defs2984">
  <filter id="filter6279-2" color-interpolation-filters="sRGB">
   <feGaussianBlur id="feGaussianBlur6281-1" stdDeviation="0.8"/>
  </filter>
  <linearGradient id="linearGradient9181" y2="902.36" gradientUnits="userSpaceOnUse" x2="48" gradientTransform="translate(0 -.0000078516)" y1="1052.4" x1="48">
   <stop id="stop3189-4" style="stop-color:#c8c8c8" offset="0"/>
   <stop id="stop3191-0-6" style="stop-color:#e6e6e6" offset="1"/>
  </linearGradient>
  <clipPath id="clipPath3732">
   <path id="path3734" style="opacity:.3;color:#000000;fill:#f00" d="m-100-74v96h96v-96h-96zm40 16h16c4.432 0 8 3.568 8 8v16c4.432 0 8 3.568 8 8v24c0 4.432-3.568 8-8 8h-32c-4.432 0-8-3.568-8-8v-24c0-4.432 3.568-8 8-8v-16c0-4.432 3.568-8 8-8zm4 8c-2.216 0-4 1.784-4 4v12h16v-12c0-2.216-1.784-4-4-4h-8z"/>
  </clipPath>
  <filter id="filter3736" color-interpolation-filters="sRGB">
   <feGaussianBlur id="feGaussianBlur3738" stdDeviation="0.84"/>
  </filter>
  <linearGradient id="linearGradient3729" y2="19" gradientUnits="userSpaceOnUse" x2="11" gradientTransform="matrix(4,0,0,4,4,-70)" y1="3" x1="11">
   <stop id="stop5562" style="stop-color:#323232" offset="0"/>
   <stop id="stop5564" style="stop-color:#787878" offset="1"/>
  </linearGradient>
 </defs>
 <metadata id="metadata2987">
  <rdf:RDF>
   <cc:Work rdf:about="">
    <dc:format>image/svg+xml</dc:format>
    <dc:type rdf:resource="http://purl.org/dc/dcmitype/StillImage"/>
    <dc:title/>
   </cc:Work>
  </rdf:RDF>
 </metadata>
 <g id="layer1" transform="translate(0 -956.36)">
  <g id="g6877">
   <rect id="rect9283" ry="5" style="filter:url(#filter6279-2)" rx="5" transform="translate(0 -.0000078516)" height="80" width="80" y="964.36" x="8"/>
   <rect id="rect9285" style="fill:url(#linearGradient9181)" rx="5" ry="5" height="80" width="80" y="964.36" x="8"/>
   <g id="g3064" transform="matrix(.80311 0 0 .80311 9.4506 964.89)">
    <g id="layer1-7" transform="translate(0,74)">
     <path id="path3725" style="opacity:.2;stroke-width:4;color:#000000;filter:url(#filter3736);stroke:#fff;fill:none" d="m-60-58c-4.432 0-8 3.568-8 8v16c-4.432 0-8 3.568-8 8v24c0 4.432 3.568 8 8 8h32c4.432 0 8-3.568 8-8v-24c0-4.432-3.568-8-8-8v-16c0-4.432-3.568-8-8-8h-16zm4 8h8c2.216 0 4 1.784 4 4v12h-16v-12c0-2.216 1.784-4 4-4z" clip-path="url(#clipPath3732)" transform="translate(100)"/>
     <path id="rect2941" style="color:#000000;fill:url(#linearGradient3729)" d="m40-58c-4.432 0-8 3.568-8 8v16c-4.432 0-8 3.568-8 8v24c0 4.432 3.568 8 8 8h32c4.432 0 8-3.568 8-8v-24c0-4.432-3.568-8-8-8v-16c0-4.432-3.568-8-8-8h-16zm4 8h8c2.216 0 4 1.784 4 4v12h-16v-12c0-2.216 1.784-4 4-4z"/>
    </g>
   </g>
  </g>
 </g>
</svg>
