<?xml version="1.0" encoding="UTF-8" standalone="no"?>
<!-- Created with Inkscape (http://www.inkscape.org/) -->
<svg id="svg2982" xmlns:rdf="http://www.w3.org/1999/02/22-rdf-syntax-ns#" xmlns="http://www.w3.org/2000/svg" height="96" width="96" version="1.1" xmlns:cc="http://creativecommons.org/ns#" xmlns:xlink="http://www.w3.org/1999/xlink" xmlns:dc="http://purl.org/dc/elements/1.1/">
 <defs id="defs2984">
  <filter id="filter6279-2" color-interpolation-filters="sRGB">
   <feGaussianBlur id="feGaussianBlur6281-1" stdDeviation="0.8"/>
  </filter>
  <linearGradient id="linearGradient9181" y2="902.36" gradientUnits="userSpaceOnUse" x2="48" gradientTransform="translate(0 -.0000078516)" y1="1052.4" x1="48">
   <stop id="stop3189-4" style="stop-color:#c8c8c8" offset="0"/>
   <stop id="stop3191-0-2" style="stop-color:#e6e6e6" offset="1"/>
  </linearGradient>
  <filter id="filter4005" color-interpolation-filters="sRGB">
   <feGaussianBlur id="feGaussianBlur4007" stdDeviation="0.83447898"/>
  </filter>
  <linearGradient id="linearGradient3075" y2="39.99" gradientUnits="userSpaceOnUse" y1="272.01" gradientTransform="matrix(.28151 0 0 -.27584 8.2465 91.031)" x2="128" x1="128">
   <stop id="stop5046" style="stop-color:#323232" offset="0"/>
   <stop id="stop5048" style="stop-color:#787878" offset="1"/>
  </linearGradient>
 </defs>
 <metadata id="metadata2987">
  <rdf:RDF>
   <cc:Work rdf:about="">
    <dc:format>image/svg+xml</dc:format>
    <dc:type rdf:resource="http://purl.org/dc/dcmitype/StillImage"/>
    <dc:title/>
   </cc:Work>
  </rdf:RDF>
 </metadata>
 <g id="layer1" transform="translate(0 -956.36)">
  <g id="g6873">
   <rect id="rect9283" ry="5" style="filter:url(#filter6279-2)" rx="5" transform="translate(0 -.0000078516)" height="80" width="80" y="964.36" x="8"/>
   <rect id="rect9285" style="fill:url(#linearGradient9181)" rx="5" ry="5" height="80" width="80" y="964.36" x="8"/>
   <g id="g3052" transform="matrix(.81389 0 0 .81389 9.2203 965.49)">
    <path id="path3998" d="m59.799 79.997c-5.6742 0.0041-10.933-4.8041-11.004-10.572-0.09199-3.2975-0.97518-6.9065-3.9022-8.8278-4.3334-3.4958-10.263-0.0088-14.861-2.7631-4.979-2.4798-7.4803-8.941-5.1735-14.067 1.8425-4.4883 6.7635-7.39 11.599-6.7638 3.4269 0.42004 7.3043 0.03167 9.719-2.7209 3.8485-3.6863 1.3394-9.8242 4.7335-13.764 3.6948-5.0986 11.701-6.0549 16.442-1.8782 4.8364 3.7818 5.2855 11.683 0.882 15.968-2.6108 2.8999-6.679 3.8427-10.443 3.3387-3.8204-0.57007-8.007 0.97743-9.9229 4.458-1.8073 3.7652-1.792 8.6659 0.64145 12.155 2.1132 2.8675 5.8447 3.9606 9.2814 3.491 3.7645-0.50404 7.8327 0.4388 10.443 3.3386 4.2859 4.182 3.9981 11.823-0.56359 15.691-2.1225 1.9358-5.0035 2.9849-7.8712 2.9148z" style="opacity:.2;stroke-width:4;color:#000000;filter:url(#filter4005);stroke:#fff;fill:none"/>
    <path id="path3984-0-3-4-7" d="m59.799 79.997c-2.5231-0.0537-5.0478-0.93101-7.1082-2.6722-6.627-5.599-1.48-11.417-7.258-16.3-5.779-4.883-10.898 0.954-17.525-4.646v-0.0086c-1.4717-1.2437-2.5337-2.7837-3.1758-4.4478-0.0043-0.01085-0.0046-0.02353-0.0088-0.03449-0.12932-0.33843-0.23983-0.67816-0.3343-1.0258-0.04193-0.15433-0.08812-0.30972-0.12317-0.46547-0.0039-0.01702-0.0051-0.03467-0.0088-0.05173-0.07224-0.32849-0.12568-0.65826-0.16715-0.99128-0.000364-0.0028 0.000338-0.0057 0-0.0086-0.0022-0.01735-0.0067-0.03437-0.0088-0.05172-0.01845-0.15512-0.03226-0.30975-0.04399-0.46547-0.009-0.11708-0.02122-0.23621-0.02639-0.35341-0.0025-0.05966-0.0072-0.12131-0.0088-0.18102-0.000565-0.01988 0.000449-0.04044 0-0.06034-0.0032-0.15624-0.0033-0.30915 0-0.46547 0.0015-0.07997 0.0054-0.16146 0.0088-0.24136 0.0053-0.1172 0.01741-0.23633 0.02639-0.35341 0.01336-0.17342 0.0311-0.34431 0.0528-0.51719 0.000339-0.0028-0.000365-0.0057 0-0.0086 0.04146-0.33303 0.09492-0.66279 0.16715-0.99128 0.0038-0.01718 0.005-0.03456 0.0088-0.05171 0.03556-0.15669 0.08051-0.31001 0.12317-0.46547 0.09447-0.3476 0.20497-0.68733 0.3343-1.0258 0.0043-0.01099 0.0046-0.02341 0.0088-0.03449 0.64217-1.6642 1.7041-3.2042 3.1758-4.4478v-0.0086c6.6261-5.5995 11.746 0.23683 17.524-4.6461 5.7782-4.8829 0.63163-10.701 7.2578-16.3 4.7095-3.9799 11.817-3.4595 15.879 1.155 4.0617 4.6145 3.5394 11.579-1.17 15.559-6.6261 5.5995-11.746-0.24545-17.524 4.6375-2.9189 2.4667-3.0468 5.1782-3.3166 7.9734 0.26978 2.7952 0.39765 5.5067 3.3166 7.9734 5.7782 4.8829 10.898-0.962 17.524 4.6375 4.7094 3.9797 5.2317 10.944 1.17 15.559-2.2847 2.5956-5.5269 3.8963-8.7709 3.8272z" style="color:#000000;fill-rule:evenodd;fill:url(#linearGradient3075)"/>
   </g>
  </g>
 </g>
</svg>
