<?xml version="1.0" encoding="UTF-8" standalone="no"?>
<!-- Created with Inkscape (http://www.inkscape.org/) -->
<svg id="svg2982" xmlns:rdf="http://www.w3.org/1999/02/22-rdf-syntax-ns#" xmlns="http://www.w3.org/2000/svg" height="96" width="96" version="1.1" xmlns:cc="http://creativecommons.org/ns#" xmlns:xlink="http://www.w3.org/1999/xlink" xmlns:dc="http://purl.org/dc/elements/1.1/">
 <defs id="defs2984">
  <filter id="filter6279-2" color-interpolation-filters="sRGB">
   <feGaussianBlur id="feGaussianBlur6281-1" stdDeviation="0.8"/>
  </filter>
  <linearGradient id="linearGradient9181" y2="902.36" gradientUnits="userSpaceOnUse" x2="48" gradientTransform="translate(0 -.0000078516)" y1="1052.4" x1="48">
   <stop id="stop3189-4" style="stop-color:#c8c8c8" offset="0"/>
   <stop id="stop3191-0-8" style="stop-color:#e6e6e6" offset="1"/>
  </linearGradient>
  <filter id="filter3983" color-interpolation-filters="sRGB">
   <feGaussianBlur id="feGaussianBlur3985" stdDeviation="0.8690625"/>
  </filter>
  <linearGradient id="linearGradient3107" y2="21.617" gradientUnits="userSpaceOnUse" y1="6.9006" gradientTransform="matrix(3.6989 0 0 4.3488 -48.24 -14.009)" x2="26.019" x1="26.019">
   <stop id="stop5522" style="stop-color:#323232" offset="0"/>
   <stop id="stop5524" style="stop-color:#787878" offset="1"/>
  </linearGradient>
 </defs>
 <metadata id="metadata2987">
  <rdf:RDF>
   <cc:Work rdf:about="">
    <dc:format>image/svg+xml</dc:format>
    <dc:type rdf:resource="http://purl.org/dc/dcmitype/StillImage"/>
    <dc:title/>
   </cc:Work>
  </rdf:RDF>
 </metadata>
 <g id="layer1" transform="translate(0 -956.36)">
  <g id="g6848">
   <rect id="rect9283" ry="5" style="filter:url(#filter6279-2)" rx="5" transform="translate(0 -.0000078516)" height="80" width="80" y="964.36" x="8"/>
   <rect id="rect9285" style="fill:url(#linearGradient9181)" rx="5" ry="5" height="80" width="80" y="964.36" x="8"/>
   <g id="g3067" transform="matrix(.83096 0 0 .83096 8.228 964.38)">
    <path id="path3981" d="m36 16.125v6h24v-6zm0 10v10h24v-10zm0 14v13.875h-14l26 26 26-26h-14v-13.875z" style="opacity:.2;filter:url(#filter3983);stroke:#fff;stroke-width:4;fill:none"/>
    <path id="Symbol" d="m36 16.125v6h24v-6zm0 10v10h24v-10zm0 14v13.875h-14l26 26 26-26h-14v-13.875z" style="fill:url(#linearGradient3107)"/>
   </g>
  </g>
 </g>
</svg>
