<?xml version="1.0" encoding="UTF-8" standalone="no"?>
<!-- Created with Inkscape (http://www.inkscape.org/) -->
<svg id="svg2982" xmlns:rdf="http://www.w3.org/1999/02/22-rdf-syntax-ns#" xmlns="http://www.w3.org/2000/svg" height="96" width="96" version="1.1" xmlns:cc="http://creativecommons.org/ns#" xmlns:xlink="http://www.w3.org/1999/xlink" xmlns:dc="http://purl.org/dc/elements/1.1/">
 <defs id="defs2984">
  <filter id="filter6279-2" color-interpolation-filters="sRGB">
   <feGaussianBlur id="feGaussianBlur6281-1" stdDeviation="0.8"/>
  </filter>
  <linearGradient id="linearGradient9181" y2="902.36" gradientUnits="userSpaceOnUse" x2="48" gradientTransform="translate(0 -.0000078516)" y1="1052.4" x1="48">
   <stop id="stop3189-4" style="stop-color:#c8c8c8" offset="0"/>
   <stop id="stop3191-0-2" style="stop-color:#e6e6e6" offset="1"/>
  </linearGradient>
  <radialGradient id="radialGradient3048" gradientUnits="userSpaceOnUse" cy="120.2" cx="64" gradientTransform="matrix(.90098 0 0 1.1429 -9.663 -57.372)" r="56">
   <stop id="stop3627" style="stop-color:#787878" offset="0"/>
   <stop id="stop3629" style="stop-color:#323232" offset="1"/>
  </radialGradient>
 </defs>
 <metadata id="metadata2987">
  <rdf:RDF>
   <cc:Work rdf:about="">
    <dc:format>image/svg+xml</dc:format>
    <dc:type rdf:resource="http://purl.org/dc/dcmitype/StillImage"/>
    <dc:title/>
   </cc:Work>
  </rdf:RDF>
 </metadata>
 <g id="layer1" transform="translate(0 -956.36)">
  <g id="g6841">
   <rect id="rect9283" ry="5" style="filter:url(#filter6279-2)" rx="5" transform="translate(0 -.0000078516)" height="80" width="80" y="964.36" x="8"/>
   <rect id="rect9285" style="fill:url(#linearGradient9181)" rx="5" ry="5" height="80" width="80" y="964.36" x="8"/>
   <g id="g3079" transform="matrix(.84375 0 0 .84375 7.5 963.86)">
    <path id="path2505" d="m48 16c-17.664 0-32 14.336-32 32s14.336 32 32 32 32-14.336 32-32-14.336-32-32-32zm12.125 16.125 7.75 8.375-24 27.25-15.75-15.625 7.75-8.375 8 7.25 16.25-18.875z" style="fill:url(#radialGradient3048)"/>
    <path id="path3119" d="m48 16c-17.664 0-32 14.336-32 32s14.336 32 32 32 32-14.336 32-32-14.336-32-32-32zm0 1.0312c17.109 0 30.969 13.86 30.969 30.969s-13.86 30.969-30.969 30.969-30.969-13.86-30.969-30.969 13.86-30.969 30.969-30.969zm11.938 14.062a1.0263 1.0263 0 0 0 -0.59375 0.375l-15.563 18.063-7.219-6.531a1.0263 1.0263 0 0 0 -1.4375 0.0625l-7.75 8.375a1.0263 1.0263 0 0 0 0.03125 1.4062l15.75 15.625a1.0263 1.0263 0 0 0 1.5 -0.03125l24-27.25a1.0263 1.0263 0 0 0 -0.03 -1.375l-7.75-8.375a1.0263 1.0263 0 0 0 -0.8125 -0.34375 1.0263 1.0263 0 0 0 -0.125 0zm0.1875 1.0312 7.75 8.375-24 27.25-15.75-15.625 7.75-8.375 8 7.25 16.25-18.875z" style="opacity:.2"/>
   </g>
  </g>
 </g>
</svg>
