<?xml version="1.0" encoding="UTF-8" standalone="no"?>
<!-- Created with Inkscape (http://www.inkscape.org/) -->
<svg id="svg2982" xmlns:rdf="http://www.w3.org/1999/02/22-rdf-syntax-ns#" xmlns="http://www.w3.org/2000/svg" height="96" width="96" version="1.1" xmlns:cc="http://creativecommons.org/ns#" xmlns:xlink="http://www.w3.org/1999/xlink" xmlns:dc="http://purl.org/dc/elements/1.1/">
 <defs id="defs2984">
  <linearGradient id="linearGradient3721-3" x1="32.251" gradientUnits="userSpaceOnUse" y1="6.1317" gradientTransform="translate(0,-97)" x2="32.251" y2="90.239">
   <stop id="stop3750-8-79" offset="0"/>
   <stop id="stop3752-5-37" style="stop-opacity:.58824" offset="1"/>
  </linearGradient>
  <linearGradient id="linearGradient3617-8" x1="32" gradientUnits="userSpaceOnUse" y1="88" gradientTransform="translate(0,-96)" x2="32" y2="-8">
   <stop id="stop4329" style="stop-color:#f0f0f0" offset="0"/>
   <stop id="stop4331-7" style="stop-color:#b4b4b4" offset="1"/>
  </linearGradient>
  <clipPath id="clipPath3919-4">
   <rect id="rect3921-3" style="fill:#f0f" transform="scale(1,-1)" rx="6.1" ry="6.1" height="76" width="84" y="-82" x="6"/>
  </clipPath>
  <filter id="filter3927-5" width="1.432" y="-.27" x="-.216" height="1.54" color-interpolation-filters="sRGB">
   <feGaussianBlur id="feGaussianBlur3929-0" stdDeviation="7.2000001"/>
  </filter>
  <linearGradient id="linearGradient6653" x1="48" gradientUnits="userSpaceOnUse" y1="88" gradientTransform="matrix(1,0,0,-1,0,92)" x2="48" y2="-40">
   <stop id="stop4386" style="stop-color:#fff" offset="0"/>
   <stop id="stop4388" style="stop-color:#fff;stop-opacity:0" offset="1"/>
  </linearGradient>
  <linearGradient id="linearGradient3140-4" x1="90" spreadMethod="reflect" gradientUnits="userSpaceOnUse" y1="88" x2="48" y2="88">
   <stop id="stop3894-4" style="stop-opacity:.58824" offset="0"/>
   <stop id="stop3896-3" style="stop-opacity:.47059" offset=".1178"/>
   <stop id="stop3898-3" style="stop-opacity:.39216" offset=".2381"/>
   <stop id="stop3900-6" style="stop-opacity:.31373" offset="1"/>
  </linearGradient>
  <linearGradient id="linearGradient3613-98" y2="138.66" gradientUnits="userSpaceOnUse" y1="20.221" x2="48" x1="48">
   <stop id="stop3739-84" style="stop-color:#fff" offset="0"/>
   <stop id="stop3741-37" style="stop-color:#fff;stop-opacity:0" offset="1"/>
  </linearGradient>
  <clipPath id="clipPath4355-1">
   <rect id="rect4357-3" style="fill:#fff" rx="6" ry="6" height="80" width="84" y="6" x="6"/>
  </clipPath>
  <filter id="filter3794-80" width="1.384" y="-.192" x="-.192" height="1.384" color-interpolation-filters="sRGB">
   <feGaussianBlur id="feGaussianBlur3796-97" stdDeviation="5.28"/>
  </filter>
  <clipPath id="clipPath3824">
   <path id="path3826" style="fill:#fff" d="m16 12c-2.216 0-4 1.784-4 4v52c0 2.216 1.784 4 4 4h64c2.216 0 4-1.784 4-4v-52c0-2.216-1.784-4-4-4h-64zm32 8 2.6562 2.25 18.688 15.625l2.656 2.25-2.656 2.219-13.969 11.718v-8.875l6.031-5.062-13.406-11.25-13.406 11.25 6.0312 5.0625v8.875l-13.969-11.718-2.656-2.219 2.656-2.25 18.688-15.625 2.656-2.25zm-3.75 20.031h7.5v21.969h-7.5v-21.969z"/>
  </clipPath>
  <filter id="filter3810" width="1.45" y="-.25714" x="-.225" height="1.5143" color-interpolation-filters="sRGB">
   <feGaussianBlur id="feGaussianBlur3812" stdDeviation="4.5"/>
  </filter>
  <linearGradient id="linearGradient3773" x1="48" gradientUnits="userSpaceOnUse" y1="62" gradientTransform="translate(0,-1)" x2="48" y2="21.555">
   <stop id="stop3769-1" style="stop-color:#4d4d4d;stop-opacity:.70732" offset="0"/>
   <stop id="stop3771-50" style="stop-color:#4d4d4d;stop-opacity:.25203" offset="1"/>
  </linearGradient>
 </defs>
 <metadata id="metadata2987">
  <rdf:RDF>
   <cc:Work rdf:about="">
    <dc:format>image/svg+xml</dc:format>
    <dc:type rdf:resource="http://purl.org/dc/dcmitype/StillImage"/>
    <dc:title/>
   </cc:Work>
  </rdf:RDF>
 </metadata>
 <g id="layer1" transform="translate(0 -956.36)">
  <g id="g7160" transform="translate(3.7195e-8 956.36)">
   <g id="g3177">
    <g id="layer3">
     <rect id="rect3716" style="opacity:.45;fill:url(#linearGradient3721-3)" transform="scale(1,-1)" rx="6" ry="6" height="84" width="84" y="-91" x="6"/>
    </g>
    <g id="layer1-9">
     <rect id="rect2419" style="fill:url(#linearGradient3617-8)" transform="scale(1,-1)" rx="6.1" ry="6.1" height="84" width="84" y="-90" x="6"/>
    </g>
    <g id="layer7">
     <g id="g3915" style="opacity:.2;filter:url(#filter3927-5)" clip-path="url(#clipPath3919-4)">
      <path id="path3911" style="opacity:.35656;color:#000000" transform="matrix(1.25,0,0,1,-12,0)" d="m48 36a16 20 0 1 1 -32 0 16 20 0 1 1 32 0z"/>
      <path id="path3913" style="opacity:.2;color:#000000" transform="matrix(1.1667 0 0 1 -5.3333 0)" d="m80 52a24 28 0 1 1 -48 0 24 28 0 1 1 48 0z"/>
     </g>
    </g>
    <g id="layer8">
     <path id="rect4028" style="opacity:.15;fill:#fff" d="m6 73.906v2c0 3.38 2.7144 6.094 6.094 6.094h71.812c3.38 0 6.094-2.714 6.094-6.094v-2c0 3.38-2.714 6.094-6.094 6.094h-71.812c-3.3796 0-6.094-2.714-6.094-6.094z"/>
     <path id="rect4377" style="opacity:.8;fill:url(#linearGradient6653)" d="m12 82c-3.324 0-6-2.676-6-6v-64c0-3.324 2.676-6 6-6h72c3.324 0 6 2.676 6 6v64c0 3.324-2.676 6-6 6zm0-0.96875h72c2.8049 0 5.0312-2.2264 5.0312-5.0312v-64c0-2.8049-2.226-5.0312-5.031-5.0312h-72c-2.8049 0-5.0312 2.2263-5.0312 5.0312v64c0 2.8049 2.2264 5.0312 5.0312 5.0312z"/>
    </g>
    <g id="g6998">
     <g id="g3165">
      <path id="path3888" style="opacity:.5;fill:url(#linearGradient3140-4)" d="m6 76v8c0 3.324 2.676 6 6 6h72c3.324 0 6-2.676 6-6v-8c0 3.324-2.676 6-6 6h-72c-3.324 0-6-2.676-6-6z"/>
      <path id="path4010" style="opacity:.8" d="m6 78v4c0 3.324 2.676 6 6 6h72c3.324 0 6-2.676 6-6v-4c0 3.324-2.676 6-6 6h-72c-3.324 0-6-2.676-6-6z"/>
      <path id="path4054" style="opacity:.4;fill:#fff" d="m6 82v1c0 3.324 2.676 6 6 6h72c3.324 0 6-2.676 6-6v-1c0 3.324-2.676 6-6 6h-72c-3.324 0-6-2.676-6-6z"/>
      <path id="path4059" style="opacity:.2" d="m6 77v1c0 3.324 2.676 6 6 6h72c3.324 0 6-2.676 6-6v-1c0 3.324-2.676 6-6 6h-72c-3.324 0-6-2.676-6-6z"/>
     </g>
    </g>
    <rect id="rect3171" style="opacity:.2;filter:url(#filter3794-80);stroke:#fff;stroke-linecap:round;stroke-width:.5;fill:url(#linearGradient3613-98)" clip-path="url(#clipPath4355-1)" rx="12" ry="12" height="62" width="66" y="15" x="15"/>
    <g id="layer4-6">
     <path id="path3814" clip-path="url(#clipPath3824)" style="opacity:.8;filter:url(#filter3810);fill-rule:evenodd;fill:#fff" transform="translate(0,-1)" d="m47.938 19.281a0.71436 0.71436 0 0 0 -0.40625 0.1875l-2.6562 2.25v-0.03125l-18.688 15.625a0.71436 0.71436 0 0 0 0 0.03125l-2.6562 2.25a0.71436 0.71436 0 0 0 0 1.0938l2.656 2.219 13.968 11.719a0.71436 0.71436 0 0 0 1.1875 -0.5625v-8.875a0.71436 0.71436 0 0 0 -0.25 -0.5625l-5.375-4.5 12.281-10.28 12.281 10.281-5.375 4.5a0.71436 0.71436 0 0 0 -0.25 0.5625v8.875a0.71436 0.71436 0 0 0 1.1875 0.5625l13.968-11.72 2.657-2.218a0.71436 0.71436 0 0 0 0 -1.0938l-2.6562-2.25a0.71436 0.71436 0 0 0 0 -0.03125l-18.688-15.625v0.03125l-2.6562-2.25a0.71436 0.71436 0 0 0 -0.53125 -0.1875zm-3.75 20.031a0.71436 0.71436 0 0 0 -0.65625 0.71875v21.969a0.71436 0.71436 0 0 0 0.718 0.719h7.5a0.71436 0.71436 0 0 0 0.719 -0.719v-21.969a0.71436 0.71436 0 0 0 -0.719 -0.719h-7.5a0.71436 0.71436 0 0 0 -0.0625 0z"/>
     <path id="path3242" style="fill:url(#linearGradient3773);fill-rule:evenodd" d="m72 39.125-2.654-2.236-18.692-15.653-2.654-2.236-2.654 2.236-18.692 15.653-2.654 2.236l2.6538 2.2118 13.962 11.715v-8.8715l-6.029-5.055 13.413-11.253 13.413 11.253-6.0288 5.0556v8.8715l13.962-11.715 2.654-2.212zm-20.258-0.08494v21.96h-7.4836v-21.96h7.4836z"/>
     <path id="path3775" style="opacity:.4;fill-rule:evenodd" d="m48 19-2.656 2.25-18.688 15.625-2.656 2.25l0.59375 0.5 2.0625-1.75 18.688-15.625 2.656-2.25 2.6562 2.25 18.688 15.625 2.0625 1.75 0.594-0.5-2.656-2.25-18.688-15.625-2.656-2.25zm-3.75 20.031v1h7.5v-1h-7.5zm-9.0625 0.59375-0.59375 0.5 6.0312 5.0625v-1l-5.4375-4.5625zm25.625 0-5.4375 4.5625v1l6.0312-5.0625-0.59375-0.5z"/>
    </g>
   </g>
  </g>
 </g>
</svg>
