<?xml version="1.0" encoding="UTF-8" standalone="no"?>
<!-- Created with Inkscape (http://www.inkscape.org/) -->
<svg id="svg2982" xmlns:rdf="http://www.w3.org/1999/02/22-rdf-syntax-ns#" xmlns="http://www.w3.org/2000/svg" height="96" width="96" version="1.1" xmlns:cc="http://creativecommons.org/ns#" xmlns:xlink="http://www.w3.org/1999/xlink" xmlns:dc="http://purl.org/dc/elements/1.1/">
 <defs id="defs2984">
  <filter id="filter6279-2" color-interpolation-filters="sRGB">
   <feGaussianBlur id="feGaussianBlur6281-1" stdDeviation="0.8"/>
  </filter>
  <linearGradient id="linearGradient4004-7" y2="61.922" gradientUnits="userSpaceOnUse" x2="94.568" y1="61.922" x1="25.22">
   <stop id="stop3364-7" style="stop-color:#4d4d4d" offset="0"/>
   <stop id="stop3366-2" style="stop-color:#fff" offset="1"/>
  </linearGradient>
  <radialGradient id="radialGradient4012-6" gradientUnits="userSpaceOnUse" cy="61.922" cx="59.894" gradientTransform="matrix(1 0 0 .83754 0 10.06)" r="33.714">
   <stop id="stop3344-2" style="stop-opacity:0" offset="0"/>
   <stop id="stop3350-9" style="stop-opacity:0" offset=".85"/>
   <stop id="stop3346-70" offset="1"/>
  </radialGradient>
  <linearGradient id="linearGradient4014-3" y2="61.922" gradientUnits="userSpaceOnUse" x2="93.608" y1="61.922" x1="26.18">
   <stop id="stop3332-2" style="stop-color:#fff;stop-opacity:.20312" offset="0"/>
   <stop id="stop3334-3" style="stop-color:#fff;stop-opacity:.67969" offset="1"/>
  </linearGradient>
  <clipPath id="clipPath4031-5">
   <path id="path4033-1" style="fill:#bbb1bf" d="m48 32c-19.882 0-36 16.118-36 36s16.118 36 36 36 36-16.118 36-36-16.118-36-36-36zm0 24c6.6274 0 12 5.3726 12 12s-5.3726 12-12 12-12-5.3726-12-12 5.3726-12 12-12z"/>
  </clipPath>
  <filter id="filter4035-7" height="1.3414" width="1.3807" y="-.1707" x="-.19037" color-interpolation-filters="sRGB">
   <feGaussianBlur id="feGaussianBlur4037-8" stdDeviation="4.9476562"/>
  </filter>
  <clipPath id="clipPath4187-9">
   <path id="path4189-4" style="fill:#bbb1bf" d="m48 102c-19.882 0-36 16.118-36 36s16.118 36 36 36 36-16.118 36-36-16.118-36-36-36zm0 24c6.6274 0 12 5.3726 12 12s-5.3726 12-12 12-12-5.3726-12-12 5.3726-12 12-12z"/>
  </clipPath>
  <filter id="filter4195-1" height="1.36" width="1.36" y="-.18" x="-.18" color-interpolation-filters="sRGB">
   <feGaussianBlur id="feGaussianBlur4197-6" stdDeviation="5.2159999"/>
  </filter>
 </defs>
 <metadata id="metadata2987">
  <rdf:RDF>
   <cc:Work rdf:about="">
    <dc:format>image/svg+xml</dc:format>
    <dc:type rdf:resource="http://purl.org/dc/dcmitype/StillImage"/>
    <dc:title/>
   </cc:Work>
  </rdf:RDF>
 </metadata>
 <g id="layer1" transform="translate(0 -956.36)">
  <g id="g7775">
   <rect id="rect9283" style="filter:url(#filter6279-2)" transform="translate(0 -.0000078516)" rx="5" ry="5" height="80" width="80" y="964.36" x="8"/>
   <rect id="rect9285" style="opacity:.9;fill:#fff" rx="5" ry="5" height="80" width="80" y="964.36" x="8"/>
   <g id="g3110" transform="matrix(.75 0 0 .75 12 968.36)">
    <path id="path3978" style="fill:#ccbb98" d="m48 12c-19.882 0-36 16.118-36 36s16.118 36 36 36 36-16.118 36-36-16.118-36-36-36zm0 24c6.6274 0 12 5.3726 12 12s-5.3726 12-12 12-12-5.3726-12-12 5.3726-12 12-12z"/>
    <path id="path3992" style="opacity:.3;fill:#fff" d="m48 36c-6.6274 0-12 5.3726-12 12s5.3726 12 12 12 12-5.3726 12-12-5.3726-12-12-12zm0 7c2.7614 0 5 2.2386 5 5s-2.2386 5-5 5-5-2.2386-5-5 2.2386-5 5-5z"/>
    <path id="path4002" d="m92.58 61.922a32.686 27.208 0 1 1 -65.371 0 32.686 27.208 0 1 1 65.371 0z" style="opacity:.6;stroke:url(#linearGradient4004-7);stroke-linecap:round;stroke-width:5.4221;fill:none" transform="matrix(0 .16827 -.20214 0 60.517 37.922)"/>
    <path id="path4010" d="m92.58 61.922a32.686 27.208 0 1 1 -65.371 0 32.686 27.208 0 1 1 65.371 0z" style="opacity:.5;fill-rule:evenodd;stroke:url(#linearGradient4014-3);stroke-linecap:round;stroke-width:3.1391;fill:url(#radialGradient4012-6)" transform="matrix(0 .29065 -.34916 0 69.621 30.592)"/>
    <path id="path4018" d="m57.312 33.219-9.312 34.781 31.188-18c-4.774-8.269-12.653-14.31-21.876-16.781zm-9.312 34.781-31.188 18c4.7739 8.2686 12.653 14.31 21.875 16.781l9.313-34.78z" style="opacity:.8;filter:url(#filter4035-7);fill:#fff" transform="translate(0,-20)" clip-path="url(#clipPath4031-5)"/>
    <g id="g4175" style="opacity:.6;filter:url(#filter4195-1)" transform="translate(0,-90)" clip-path="url(#clipPath4187-9)">
     <path id="path4039" d="m60.947 57.784a20.708 18.814 0 0 1 -2.6155 2.9059l-14.643-13.304z" style="fill:#7137c8" transform="matrix(1.5055 .86922 -.95673 1.6571 27.56 21.5)"/>
     <path id="path4041" d="m60.779 58.011a20.708 18.814 0 0 1 -3.384 3.4788l-13.706-14.104z" style="fill:#0cf" transform="matrix(1.6792 .44994 -.49524 1.8483 -1.8956 30.76)"/>
     <path id="path4043" d="m62.724 54.796a20.708 18.814 0 0 1 -2.2597 3.6221l-16.775-11.032z" style="fill:#fc0" transform="matrix(1.7384 0 -6.0266e-8 1.9135 -27.951 47.328)"/>
     <path id="path4045" d="m61.623 56.793a20.708 18.814 0 0 1 -1.6993 2.2728l-16.235-11.68z" style="fill:#f00" transform="matrix(1.6792 -.44994 .49524 1.8483 -48.831 70.075)"/>
     <path id="path4144" d="m63.123 53.883a20.708 18.814 0 0 1 -2.37 4.1619l-17.064-10.659z" style="fill:#0f0" transform="matrix(1.6792 .44994 -.49524 1.8483 -1.8956 30.76)"/>
     <path id="path4155" d="m60.947 57.784a20.708 18.814 0 0 1 -2.6155 2.9059l-14.643-13.304z" style="fill:#7137c8" transform="matrix(-1.5055 -.86922 .95673 -1.6571 68.44 254.5)"/>
     <path id="path4157" d="m60.779 58.011a20.708 18.814 0 0 1 -3.384 3.4788l-13.706-14.104z" style="fill:#0cf" transform="matrix(-1.6792 -.44994 .49524 -1.8483 97.896 245.24)"/>
     <path id="path4159" d="m62.724 54.796a20.708 18.814 0 0 1 -2.2597 3.6221l-16.775-11.032z" style="fill:#fc0" transform="matrix(-1.7384 0 6.0266e-8 -1.9135 123.95 228.67)"/>
     <path id="path4161" d="m61.623 56.793a20.708 18.814 0 0 1 -1.6993 2.2728l-16.235-11.68z" style="fill:#f00" transform="matrix(-1.6792 .44994 -.49524 -1.8483 144.83 205.92)"/>
     <path id="path4163" d="m63.123 53.883a20.708 18.814 0 0 1 -2.37 4.1619l-17.064-10.659z" style="fill:#0f0" transform="matrix(-1.6792 -.44994 .49524 -1.8483 97.896 245.24)"/>
    </g>
    <path id="path3986" style="opacity:.2" d="m48 33.5c-8.0081 0-14.5 6.4919-14.5 14.5s6.4919 14.5 14.5 14.5 14.5-6.4919 14.5-14.5-6.4919-14.5-14.5-14.5zm0 2.5c6.6274 0 12 5.3726 12 12s-5.3726 12-12 12-12-5.3726-12-12 5.3726-12 12-12z"/>
    <path id="path3745" style="opacity:.6;fill-rule:evenodd" d="m44.649 66.418-4.9147 0.01107h-3.6971l-0.37636 1.5663 2.8005 0.01107h0.64755c1.7977 0 2.8962 0.72594 2.5902 1.998-0.33024 1.394-1.9071 2.0035-3.5698 2.0035h-0.61988l0.80252-3.4259h-2.7839l-1.1899 5.0033h3.9628c2.9714 0 5.8091-1.5633 6.2984-3.5809 0.09761-0.36713 0.08873-1.2875-0.1439-1.8375 0-0.02455-0.01555-0.0341-0.02767-0.08302-0.01254-0.01214-0.02124-0.09878 0.02767-0.11069 0.02466-0.01235 0.07089 0.03748 0.08302 0.04981 0.02425 0.06114 0.03874 0.10516 0.03874 0.10516l2.5183 7.1175 6.4202-7.2393h3.3651c1.7977 0 2.8951 0.72594 2.6013 1.998-0.34237 1.394-1.918 2.0035-3.5809 2.0035h-0.62541l0.80806-3.4259h-2.7895l-1.1844 5.0033h3.9628c2.9718 0 5.8216-1.5633 6.2984-3.5809 0.4891-2.0056-1.6154-3.5754-4.5993-3.5754h-5.9054s-1.566 1.8481-1.8596 2.2028c-1.5528 1.8707-1.838 2.3726-1.8873 2.5072 0.01233-0.1346-0.04815-0.63377-0.70843-2.5293-0.1831-0.51366-0.74164-2.1806-0.74164-2.1806h-2.0201v-0.01107zm2.5459 8.8554c-7.5331 0-13.637 0.8679-13.637 1.9316 0 1.0762 6.1042 1.9316 13.637 1.9316 7.5329 0 13.643-0.85537 13.643-1.9316 0-1.0637-6.1099-1.9316-13.643-1.9316zm-0.49258 1.3338c1.7244 0 3.1215 0.28219 3.1215 0.63648 0 0.3547-1.3972 0.64755-3.1215 0.64755-1.7246 0-3.116-0.29285-3.116-0.64755 0-0.35429 1.3914-0.63648 3.116-0.63648z"/>
   </g>
  </g>
 </g>
</svg>
