<?xml version="1.0" encoding="UTF-8" standalone="no"?>
<!-- Created with Inkscape (http://www.inkscape.org/) -->
<svg id="svg2982" xmlns:rdf="http://www.w3.org/1999/02/22-rdf-syntax-ns#" xmlns="http://www.w3.org/2000/svg" height="96" width="96" version="1.1" xmlns:cc="http://creativecommons.org/ns#" xmlns:xlink="http://www.w3.org/1999/xlink" xmlns:dc="http://purl.org/dc/elements/1.1/">
 <defs id="defs2984">
  <filter id="filter6279-2" color-interpolation-filters="sRGB">
   <feGaussianBlur id="feGaussianBlur6281-1" stdDeviation="0.8"/>
  </filter>
  <linearGradient id="linearGradient9181" x1="48" gradientUnits="userSpaceOnUse" y1="1052.4" gradientTransform="translate(0 -.0000078516)" x2="48" y2="902.36">
   <stop id="stop3942-0" style="stop-color:#b4b4b4" offset="0"/>
   <stop id="stop3944-6" style="stop-color:#dcdcdc" offset="1"/>
  </linearGradient>
  <linearGradient id="linearGradient7208" y2="5.9877" gradientUnits="userSpaceOnUse" y1="90" x2="48" x1="48">
   <stop id="stop3702-11" style="stop-color:#141414" offset="0"/>
   <stop id="stop3704-08" style="stop-color:#323232" offset="1"/>
  </linearGradient>
  <radialGradient id="radialGradient7210" gradientUnits="userSpaceOnUse" cy="90.172" cx="48" gradientTransform="matrix(1.1573 0 0 .99591 -7.551 .19713)" r="42">
   <stop id="stop3739-58" style="stop-color:#fff" offset="0"/>
   <stop id="stop3741-62" style="stop-color:#fff;stop-opacity:0" offset="1"/>
  </radialGradient>
  <linearGradient id="linearGradient7212" y2="84" gradientUnits="userSpaceOnUse" y1="72" x2="32" x1="32">
   <stop id="stop4394" style="stop-color:#808080" offset="0"/>
   <stop id="stop4396" style="stop-color:#808080;stop-opacity:0" offset="1"/>
  </linearGradient>
  <linearGradient id="linearGradient7214" x1="18" gradientUnits="userSpaceOnUse" y1="72" gradientTransform="translate(-96,-48)" x2="30" y2="72">
   <stop id="stop4044" style="stop-color:#ff9800" offset="0"/>
   <stop id="stop4046-8" style="stop-color:#ff4600" offset="1"/>
  </linearGradient>
  <linearGradient id="linearGradient7216" y2="75" gradientUnits="userSpaceOnUse" x2="24" y1="62" x1="24">
   <stop id="stop4036" style="stop-color:#fff" offset="0"/>
   <stop id="stop4038" style="stop-color:#fff;stop-opacity:0" offset="1"/>
  </linearGradient>
  <linearGradient id="linearGradient7218" x1="18" gradientUnits="userSpaceOnUse" y1="72" gradientTransform="translate(-96,-48)" x2="30" y2="72">
   <stop id="stop4182" style="stop-color:#008eca" offset="0"/>
   <stop id="stop4184" style="stop-color:#35c3ff" offset="1"/>
  </linearGradient>
  <linearGradient id="linearGradient7222" x1="18" gradientUnits="userSpaceOnUse" y1="72" gradientTransform="translate(-96,-48)" x2="32" y2="72">
   <stop id="stop4194" style="stop-color:#ffdb5b" offset="0"/>
   <stop id="stop4196" style="stop-color:#26a4bc" offset="1"/>
  </linearGradient>
  <linearGradient id="linearGradient7226" x1="18" gradientUnits="userSpaceOnUse" y1="72" gradientTransform="translate(-96,-48)" x2="30" y2="72">
   <stop id="stop4188" style="stop-color:#a535c0" offset="0"/>
   <stop id="stop4190" style="stop-color:#732586" offset="1"/>
  </linearGradient>
  <linearGradient id="linearGradient7230" x1="18" gradientUnits="userSpaceOnUse" y1="72" gradientTransform="translate(-96,-48)" x2="30" y2="72">
   <stop id="stop4366" style="stop-color:#ccc" offset="0"/>
   <stop id="stop4368" style="stop-color:#1a1a1a" offset="1"/>
  </linearGradient>
  <linearGradient id="linearGradient7234" x1="18" gradientUnits="userSpaceOnUse" y1="72" gradientTransform="translate(-96,-48)" x2="30" y2="72">
   <stop id="stop4360" style="stop-color:#71c837" offset="0"/>
   <stop id="stop4362" style="stop-color:#447821" offset="1"/>
  </linearGradient>
  <linearGradient id="linearGradient7238" x1="18" gradientUnits="userSpaceOnUse" y1="72" gradientTransform="translate(-96,-48)" x2="30" y2="72">
   <stop id="stop4372" style="stop-color:#2a7fff" offset="0"/>
   <stop id="stop4374" style="stop-color:#003380" offset="1"/>
  </linearGradient>
  <linearGradient id="linearGradient7250" x1="18" gradientUnits="userSpaceOnUse" y1="72" gradientTransform="translate(-96,-48)" x2="30" y2="72">
   <stop id="stop4378" style="stop-color:#deaa87" offset="0"/>
   <stop id="stop4380" style="stop-color:#784421" offset="1"/>
  </linearGradient>
  <linearGradient id="linearGradient7258" x1="65.156" gradientUnits="userSpaceOnUse" y1="16.125" gradientTransform="matrix(1.1608 0 0 1.1608 -8.7333 -6.7176)" x2="65.156" y2="69.688">
   <stop id="stop3739-3-0" style="stop-color:#fff" offset="0"/>
   <stop id="stop3741-1-4" style="stop-color:#fff;stop-opacity:0" offset="1"/>
  </linearGradient>
  <linearGradient id="linearGradient7260" x1="142.47" gradientUnits="userSpaceOnUse" y1="16.125" gradientTransform="matrix(1.1608 0 0 1.1608 -101.6 -6.7176)" x2="142.47" y2="64.188">
   <stop id="stop3689" style="stop-color:#fff" offset="0"/>
   <stop id="stop3691" style="stop-color:#fff;stop-opacity:0" offset="1"/>
  </linearGradient>
 </defs>
 <metadata id="metadata2987">
  <rdf:RDF>
   <cc:Work rdf:about="">
    <dc:format>image/svg+xml</dc:format>
    <dc:type rdf:resource="http://purl.org/dc/dcmitype/StillImage"/>
    <dc:title/>
   </cc:Work>
  </rdf:RDF>
 </metadata>
 <g id="layer1" transform="translate(0 -956.36)">
  <g id="g7262">
   <rect id="rect9283" ry="5" style="filter:url(#filter6279-2)" rx="5" transform="translate(0 -.0000078516)" height="80" width="80" y="964.36" x="8"/>
   <rect id="rect9285" style="fill:url(#linearGradient9181)" rx="5" ry="5" height="80" width="80" y="964.36" x="8"/>
   <g id="g3279" transform="translate(-94.25 957.86)">
    <g id="g7156" transform="matrix(.64286 0 0 .64286 111.39 15.643)">
     <rect id="rect2419" style="fill:url(#linearGradient7208)" rx="6" ry="6" height="84" width="84" y="6" x="6"/>
     <path id="rect3966" style="opacity:.4;stroke:#000;stroke-width:2;fill:none" d="m12 10c-1.2025 0-2 0.7975-2 2v72c0 1.2025 0.7975 2 2 2h72c1.2025 0 2-0.7975 2-2v-72c0-1.2025-0.7975-2-2-2h-72z"/>
     <path id="path3615" style="opacity:.4;fill:url(#radialGradient7210)" d="m12 90c-3.324 0-6-2.676-6-6v-72c0-0.33472 0.04135-0.6507 0.09375-0.96875 0.0487-0.2956 0.09704-0.59692 0.1875-0.875 0.0099-0.03 0.0209-0.063 0.0313-0.094 0.0989-0.2873 0.2349-0.547 0.375-0.812 0.1446-0.2735 0.3156-0.5356 0.5-0.7812 0.1844-0.2457 0.3738-0.4735 0.5937-0.6876 0.44-0.428 0.943-0.8145 1.5-1.0937 0.2786-0.1396 0.5735-0.2469 0.8748-0.3437-0.256 0.1002-0.4865 0.2362-0.7185 0.375-0.00741 0.0044-0.023866-0.0045-0.03125 0-0.031933 0.0193-0.062293 0.04251-0.09375 0.0625-0.1204 0.0767-0.23102 0.16351-0.34375 0.25-0.10617 0.0808-0.21328 0.16111-0.3125 0.25-0.1779 0.1614-0.3474 0.3453-0.5 0.5312-0.1075 0.1303-0.2183 0.2653-0.3124 0.4063-0.0251 0.0383-0.0385 0.0858-0.0626 0.125-0.0647 0.103-0.1302 0.2045-0.1874 0.3124-0.1011 0.1948-0.2057 0.4158-0.2813 0.625-0.008 0.0219-0.0236 0.0406-0.0313 0.0626-0.0318 0.0919-0.0358 0.1868-0.0624 0.2812-0.0304 0.1066-0.0704 0.203-0.0938 0.3125-0.0729 0.3415-0.125 0.6985-0.125 1.0625v72c0 2.7818 2.2182 5 5 5h72c2.7818 0 5-2.2182 5-5v-72c0-0.364-0.052-0.721-0.125-1.0625-0.044-0.2069-0.088-0.3977-0.156-0.5937-0.008-0.022-0.024-0.0407-0.031-0.0626-0.063-0.1737-0.139-0.3674-0.219-0.5312-0.042-0.0828-0.079-0.17-0.125-0.25-0.055-0.0972-0.127-0.1884-0.188-0.2812-0.094-0.141-0.205-0.276-0.312-0.4063-0.143-0.1745-0.303-0.347-0.469-0.5-0.011-0.0102-0.02-0.0211-0.031-0.0313-0.139-0.1255-0.285-0.2344-0.438-0.3437-0.102-0.0731-0.204-0.1534-0.312-0.2187-0.0074-0.0045-0.02384 0.0044-0.03125 0-0.23204-0.13873-0.46255-0.27478-0.71875-0.375 0.30153 0.0968 0.59646 0.20414 0.875 0.34375 0.55709 0.27922 1.0601 0.66569 1.5 1.0938 0.21997 0.21403 0.40937 0.44186 0.59375 0.6875s0.35541 0.50774 0.5 0.78125c0.14012 0.26505 0.27614 0.52473 0.375 0.8125 0.01041 0.03078 0.02133 0.06274 0.03125 0.09375 0.09046 0.27808 0.1388 0.5794 0.1875 0.875 0.053 0.318 0.094 0.634 0.094 0.969v72c0 3.324-2.676 6-6 6h-72z"/>
     <path id="rect4387" style="opacity:.8;color:#000000;fill:url(#linearGradient7212)" d="m14 72v8c0 1.108 0.892 2 2 2h64c1.108 0 2-0.892 2-2v-8h-68z"/>
     <g id="g4111">
      <rect id="rect4020" style="color:#000000;fill:url(#linearGradient7214)" transform="rotate(-90)" rx="2" ry="2" height="12" width="12" y="18" x="-78"/>
      <path id="path4028" style="color:#000000;fill:url(#linearGradient7216)" d="m20 66c-1.108 0-2 0.892-2 2v2.625c1.4666 0.84118 3.5928 1.375 6 1.375s4.5334-0.53382 6-1.375v-2.625c0-1.108-0.892-2-2-2h-8z"/>
      <path id="path5066" style="display:block;fill:#fff" d="m28 71.448c0-0.15742-0.13059-0.28489-0.2907-0.28489h-0.56395c-0.07499-0.28148-0.18828-0.55043-0.3314-0.79651l0.40116-0.40116c0.05661-0.05661 0.08659-0.12442 0.08721-0.19768 0.000626-0.07326-0.02574-0.14783-0.0814-0.20349l-0.78488-0.78488c-0.11131-0.11131-0.28795-0.1074-0.40116 0.0058l-0.40116 0.40116c-0.246-0.143-0.515-0.256-0.797-0.331v-0.56395c-0.000001-0.16011-0.12746-0.2907-0.28488-0.2907h-1.1047c-0.15742 0-0.28488 0.13059-0.28488 0.2907v0.56395c-0.28148 0.075-0.55043 0.18828-0.79651 0.3314l-0.40116-0.40116c-0.11322-0.11321-0.28985-0.11712-0.40116-0.0058l-0.78488 0.78488c-0.11131 0.11131-0.1074 0.28795 0.0058 0.40116l0.40114 0.40116c-0.14312 0.24608-0.2564 0.51503-0.3314 0.79651h-0.56395c-0.16011 0-0.2907 0.12747-0.2907 0.28489v1.1046c0 0.15742 0.13059 0.28488 0.2907 0.28488h0.56395c0.075 0.28148 0.18828 0.55043 0.3314 0.79651l-0.40116 0.40116c-0.11322 0.11322-0.11713 0.28985-0.0058 0.40116l0.78488 0.78488c0.11131 0.11131 0.28795 0.1074 0.40116-0.0058l0.402-0.402c0.24608 0.14312 0.51504 0.2564 0.79651 0.3314v0.56395c0 0.16011 0.12746 0.2907 0.28488 0.2907h1.1047c0.15742 0 0.28488-0.13059 0.28488-0.2907v-0.56395c0.28148-0.07499 0.55043-0.18828 0.79651-0.3314l0.40116 0.40116c0.11321 0.11321 0.28985 0.11713 0.40116 0.0058l0.78488-0.78488c0.11131-0.11131 0.1074-0.28795-0.0058-0.40116l-0.40116-0.40116c0.14312-0.24608 0.2564-0.51503 0.3314-0.79651h0.56395c0.16011 0 0.2907-0.12746 0.2907-0.28488v-1.1047zm-2.7907 0.55232c0 0.66754-0.54177 1.2093-1.2093 1.2093s-1.2093-0.54177-1.2093-1.2093 0.54177-1.2093 1.2093-1.2093c0.66754 0 1.2093 0.54177 1.2093 1.2093z"/>
     </g>
     <g id="g4120" transform="translate(16)">
      <rect id="rect4126" style="color:#000000;fill:url(#linearGradient7218)" transform="rotate(-90)" rx="2" ry="2" height="12" width="12" y="18" x="-78"/>
      <path id="path4128" style="color:#000000;fill:url(#linearGradient7216)" d="m20 66c-1.108 0-2 0.892-2 2v2.625c1.4666 0.84118 3.5928 1.375 6 1.375s4.5334-0.53382 6-1.375v-2.625c0-1.108-0.892-2-2-2h-8z"/>
      <path id="path4134" style="display:block;fill:#fff" d="m28 71.448c0-0.15742-0.13059-0.28489-0.2907-0.28489h-0.56395c-0.07499-0.28148-0.18828-0.55043-0.3314-0.79651l0.40116-0.40116c0.05661-0.05661 0.08659-0.12442 0.08721-0.19768 0.000626-0.07326-0.02574-0.14783-0.0814-0.20349l-0.78488-0.78488c-0.11131-0.11131-0.28795-0.1074-0.40116 0.0058l-0.40116 0.40116c-0.246-0.143-0.515-0.256-0.797-0.331v-0.56395c-0.000001-0.16011-0.12746-0.2907-0.28488-0.2907h-1.1047c-0.15742 0-0.28488 0.13059-0.28488 0.2907v0.56395c-0.28148 0.075-0.55043 0.18828-0.79651 0.3314l-0.40116-0.40116c-0.11322-0.11321-0.28985-0.11712-0.40116-0.0058l-0.78488 0.78488c-0.11131 0.11131-0.1074 0.28795 0.0058 0.40116l0.40114 0.40116c-0.14312 0.24608-0.2564 0.51503-0.3314 0.79651h-0.56395c-0.16011 0-0.2907 0.12747-0.2907 0.28489v1.1046c0 0.15742 0.13059 0.28488 0.2907 0.28488h0.56395c0.075 0.28148 0.18828 0.55043 0.3314 0.79651l-0.40116 0.40116c-0.11322 0.11322-0.11713 0.28985-0.0058 0.40116l0.78488 0.78488c0.11131 0.11131 0.28795 0.1074 0.40116-0.0058l0.402-0.402c0.24608 0.14312 0.51504 0.2564 0.79651 0.3314v0.56395c0 0.16011 0.12746 0.2907 0.28488 0.2907h1.1047c0.15742 0 0.28488-0.13059 0.28488-0.2907v-0.56395c0.28148-0.07499 0.55043-0.18828 0.79651-0.3314l0.40116 0.40116c0.11321 0.11321 0.28985 0.11713 0.40116 0.0058l0.78488-0.78488c0.11131-0.11131 0.1074-0.28795-0.0058-0.40116l-0.40116-0.40116c0.14312-0.24608 0.2564-0.51503 0.3314-0.79651h0.56395c0.16011 0 0.2907-0.12746 0.2907-0.28488v-1.1047zm-2.7907 0.55232c0 0.66754-0.54177 1.2093-1.2093 1.2093s-1.2093-0.54177-1.2093-1.2093 0.54177-1.2093 1.2093-1.2093c0.66754 0 1.2093 0.54177 1.2093 1.2093z"/>
     </g>
     <g id="g4140" transform="translate(32)">
      <rect id="rect4146" style="color:#000000;fill:url(#linearGradient7222)" transform="rotate(-90)" rx="2" ry="2" height="12" width="12" y="18" x="-78"/>
      <path id="path4148" style="color:#000000;fill:url(#linearGradient7216)" d="m20 66c-1.108 0-2 0.892-2 2v2.625c1.4666 0.84118 3.5928 1.375 6 1.375s4.5334-0.53382 6-1.375v-2.625c0-1.108-0.892-2-2-2h-8z"/>
      <path id="path4154" style="display:block;fill:#fff" d="m28 71.448c0-0.15742-0.13059-0.28489-0.2907-0.28489h-0.56395c-0.07499-0.28148-0.18828-0.55043-0.3314-0.79651l0.40116-0.40116c0.05661-0.05661 0.08659-0.12442 0.08721-0.19768 0.000626-0.07326-0.02574-0.14783-0.0814-0.20349l-0.78488-0.78488c-0.11131-0.11131-0.28795-0.1074-0.40116 0.0058l-0.40116 0.40116c-0.246-0.143-0.515-0.256-0.797-0.331v-0.56395c-0.000001-0.16011-0.12746-0.2907-0.28488-0.2907h-1.1047c-0.15742 0-0.28488 0.13059-0.28488 0.2907v0.56395c-0.28148 0.075-0.55043 0.18828-0.79651 0.3314l-0.40116-0.40116c-0.11322-0.11321-0.28985-0.11712-0.40116-0.0058l-0.78488 0.78488c-0.11131 0.11131-0.1074 0.28795 0.0058 0.40116l0.40114 0.40116c-0.14312 0.24608-0.2564 0.51503-0.3314 0.79651h-0.56395c-0.16011 0-0.2907 0.12747-0.2907 0.28489v1.1046c0 0.15742 0.13059 0.28488 0.2907 0.28488h0.56395c0.075 0.28148 0.18828 0.55043 0.3314 0.79651l-0.40116 0.40116c-0.11322 0.11322-0.11713 0.28985-0.0058 0.40116l0.78488 0.78488c0.11131 0.11131 0.28795 0.1074 0.40116-0.0058l0.402-0.402c0.24608 0.14312 0.51504 0.2564 0.79651 0.3314v0.56395c0 0.16011 0.12746 0.2907 0.28488 0.2907h1.1047c0.15742 0 0.28488-0.13059 0.28488-0.2907v-0.56395c0.28148-0.07499 0.55043-0.18828 0.79651-0.3314l0.40116 0.40116c0.11321 0.11321 0.28985 0.11713 0.40116 0.0058l0.78488-0.78488c0.11131-0.11131 0.1074-0.28795-0.0058-0.40116l-0.40116-0.40116c0.14312-0.24608 0.2564-0.51503 0.3314-0.79651h0.56395c0.16011 0 0.2907-0.12746 0.2907-0.28488v-1.1047zm-2.7907 0.55232c0 0.66754-0.54177 1.2093-1.2093 1.2093s-1.2093-0.54177-1.2093-1.2093 0.54177-1.2093 1.2093-1.2093c0.66754 0 1.2093 0.54177 1.2093 1.2093z"/>
     </g>
     <g id="g4160" transform="translate(48)">
      <rect id="rect4166" style="color:#000000;fill:url(#linearGradient7226)" transform="rotate(-90)" rx="2" ry="2" height="12" width="12" y="18" x="-78"/>
      <path id="path4168" style="color:#000000;fill:url(#linearGradient7216)" d="m20 66c-1.108 0-2 0.892-2 2v2.625c1.4666 0.84118 3.5928 1.375 6 1.375s4.5334-0.53382 6-1.375v-2.625c0-1.108-0.892-2-2-2h-8z"/>
      <path id="path4174" style="display:block;fill:#fff" d="m28 71.448c0-0.15742-0.13059-0.28489-0.2907-0.28489h-0.56395c-0.07499-0.28148-0.18828-0.55043-0.3314-0.79651l0.40116-0.40116c0.05661-0.05661 0.08659-0.12442 0.08721-0.19768 0.000626-0.07326-0.02574-0.14783-0.0814-0.20349l-0.78488-0.78488c-0.11131-0.11131-0.28795-0.1074-0.40116 0.0058l-0.40116 0.40116c-0.246-0.143-0.515-0.256-0.797-0.331v-0.56395c-0.000001-0.16011-0.12746-0.2907-0.28488-0.2907h-1.1047c-0.15742 0-0.28488 0.13059-0.28488 0.2907v0.56395c-0.28148 0.075-0.55043 0.18828-0.79651 0.3314l-0.40116-0.40116c-0.11322-0.11321-0.28985-0.11712-0.40116-0.0058l-0.78488 0.78488c-0.11131 0.11131-0.1074 0.28795 0.0058 0.40116l0.40114 0.40116c-0.14312 0.24608-0.2564 0.51503-0.3314 0.79651h-0.56395c-0.16011 0-0.2907 0.12747-0.2907 0.28489v1.1046c0 0.15742 0.13059 0.28488 0.2907 0.28488h0.56395c0.075 0.28148 0.18828 0.55043 0.3314 0.79651l-0.40116 0.40116c-0.11322 0.11322-0.11713 0.28985-0.0058 0.40116l0.78488 0.78488c0.11131 0.11131 0.28795 0.1074 0.40116-0.0058l0.402-0.402c0.24608 0.14312 0.51504 0.2564 0.79651 0.3314v0.56395c0 0.16011 0.12746 0.2907 0.28488 0.2907h1.1047c0.15742 0 0.28488-0.13059 0.28488-0.2907v-0.56395c0.28148-0.07499 0.55043-0.18828 0.79651-0.3314l0.40116 0.40116c0.11321 0.11321 0.28985 0.11713 0.40116 0.0058l0.78488-0.78488c0.11131-0.11131 0.1074-0.28795-0.0058-0.40116l-0.40116-0.40116c0.14312-0.24608 0.2564-0.51503 0.3314-0.79651h0.56395c0.16011 0 0.2907-0.12746 0.2907-0.28488v-1.1047zm-2.7907 0.55232c0 0.66754-0.54177 1.2093-1.2093 1.2093s-1.2093-0.54177-1.2093-1.2093 0.54177-1.2093 1.2093-1.2093c0.66754 0 1.2093 0.54177 1.2093 1.2093z"/>
     </g>
     <g id="g4198" transform="translate(0,-48)">
      <rect id="rect4204" style="color:#000000;fill:url(#linearGradient7230)" transform="rotate(-90)" rx="2" ry="2" height="12" width="12" y="18" x="-78"/>
      <path id="path4206" style="color:#000000;fill:url(#linearGradient7216)" d="m20 66c-1.108 0-2 0.892-2 2v2.625c1.4666 0.84118 3.5928 1.375 6 1.375s4.5334-0.53382 6-1.375v-2.625c0-1.108-0.892-2-2-2h-8z"/>
      <path id="path4212" style="display:block;fill:#ececec" d="m28 71.448c0-0.15742-0.13059-0.28489-0.2907-0.28489h-0.56395c-0.07499-0.28148-0.18828-0.55043-0.3314-0.79651l0.40116-0.40116c0.05661-0.05661 0.08659-0.12442 0.08721-0.19768 0.000626-0.07326-0.02574-0.14783-0.0814-0.20349l-0.78488-0.78488c-0.11131-0.11131-0.28795-0.1074-0.40116 0.0058l-0.40116 0.40116c-0.246-0.143-0.515-0.256-0.797-0.331v-0.56395c-0.000001-0.16011-0.12746-0.2907-0.28488-0.2907h-1.1047c-0.15742 0-0.28488 0.13059-0.28488 0.2907v0.56395c-0.28148 0.075-0.55043 0.18828-0.79651 0.3314l-0.40116-0.40116c-0.11322-0.11321-0.28985-0.11712-0.40116-0.0058l-0.78488 0.78488c-0.11131 0.11131-0.1074 0.28795 0.0058 0.40116l0.40114 0.40116c-0.14312 0.24608-0.2564 0.51503-0.3314 0.79651h-0.56395c-0.16011 0-0.2907 0.12747-0.2907 0.28489v1.1046c0 0.15742 0.13059 0.28488 0.2907 0.28488h0.56395c0.075 0.28148 0.18828 0.55043 0.3314 0.79651l-0.40116 0.40116c-0.11322 0.11322-0.11713 0.28985-0.0058 0.40116l0.78488 0.78488c0.11131 0.11131 0.28795 0.1074 0.40116-0.0058l0.402-0.402c0.24608 0.14312 0.51504 0.2564 0.79651 0.3314v0.56395c0 0.16011 0.12746 0.2907 0.28488 0.2907h1.1047c0.15742 0 0.28488-0.13059 0.28488-0.2907v-0.56395c0.28148-0.07499 0.55043-0.18828 0.79651-0.3314l0.40116 0.40116c0.11321 0.11321 0.28985 0.11713 0.40116 0.0058l0.78488-0.78488c0.11131-0.11131 0.1074-0.28795-0.0058-0.40116l-0.40116-0.40116c0.14312-0.24608 0.2564-0.51503 0.3314-0.79651h0.56395c0.16011 0 0.2907-0.12746 0.2907-0.28488v-1.1047zm-2.7907 0.55232c0 0.66754-0.54177 1.2093-1.2093 1.2093s-1.2093-0.54177-1.2093-1.2093 0.54177-1.2093 1.2093-1.2093c0.66754 0 1.2093 0.54177 1.2093 1.2093z"/>
     </g>
     <g id="g4214" transform="translate(16,-48)">
      <rect id="rect4220" style="color:#000000;fill:url(#linearGradient7234)" transform="rotate(-90)" rx="2" ry="2" height="12" width="12" y="18" x="-78"/>
      <path id="path4222" style="color:#000000;fill:url(#linearGradient7216)" d="m20 66c-1.108 0-2 0.892-2 2v2.625c1.4666 0.84118 3.5928 1.375 6 1.375s4.5334-0.53382 6-1.375v-2.625c0-1.108-0.892-2-2-2h-8z"/>
      <path id="path4228" style="display:block;fill:#fff" d="m28 71.448c0-0.15742-0.13059-0.28489-0.2907-0.28489h-0.56395c-0.07499-0.28148-0.18828-0.55043-0.3314-0.79651l0.40116-0.40116c0.05661-0.05661 0.08659-0.12442 0.08721-0.19768 0.000626-0.07326-0.02574-0.14783-0.0814-0.20349l-0.78488-0.78488c-0.11131-0.11131-0.28795-0.1074-0.40116 0.0058l-0.40116 0.40116c-0.246-0.143-0.515-0.256-0.797-0.331v-0.56395c-0.000001-0.16011-0.12746-0.2907-0.28488-0.2907h-1.1047c-0.15742 0-0.28488 0.13059-0.28488 0.2907v0.56395c-0.28148 0.075-0.55043 0.18828-0.79651 0.3314l-0.40116-0.40116c-0.11322-0.11321-0.28985-0.11712-0.40116-0.0058l-0.78488 0.78488c-0.11131 0.11131-0.1074 0.28795 0.0058 0.40116l0.40114 0.40116c-0.14312 0.24608-0.2564 0.51503-0.3314 0.79651h-0.56395c-0.16011 0-0.2907 0.12747-0.2907 0.28489v1.1046c0 0.15742 0.13059 0.28488 0.2907 0.28488h0.56395c0.075 0.28148 0.18828 0.55043 0.3314 0.79651l-0.40116 0.40116c-0.11322 0.11322-0.11713 0.28985-0.0058 0.40116l0.78488 0.78488c0.11131 0.11131 0.28795 0.1074 0.40116-0.0058l0.402-0.402c0.24608 0.14312 0.51504 0.2564 0.79651 0.3314v0.56395c0 0.16011 0.12746 0.2907 0.28488 0.2907h1.1047c0.15742 0 0.28488-0.13059 0.28488-0.2907v-0.56395c0.28148-0.07499 0.55043-0.18828 0.79651-0.3314l0.40116 0.40116c0.11321 0.11321 0.28985 0.11713 0.40116 0.0058l0.78488-0.78488c0.11131-0.11131 0.1074-0.28795-0.0058-0.40116l-0.40116-0.40116c0.14312-0.24608 0.2564-0.51503 0.3314-0.79651h0.56395c0.16011 0 0.2907-0.12746 0.2907-0.28488v-1.1047zm-2.7907 0.55232c0 0.66754-0.54177 1.2093-1.2093 1.2093s-1.2093-0.54177-1.2093-1.2093 0.54177-1.2093 1.2093-1.2093c0.66754 0 1.2093 0.54177 1.2093 1.2093z"/>
     </g>
     <g id="g4230" transform="translate(32,-48)">
      <rect id="rect4236" style="color:#000000;fill:url(#linearGradient7238)" transform="rotate(-90)" rx="2" ry="2" height="12" width="12" y="18" x="-78"/>
      <path id="path4238" style="color:#000000;fill:url(#linearGradient7216)" d="m20 66c-1.108 0-2 0.892-2 2v2.625c1.4666 0.84118 3.5928 1.375 6 1.375s4.5334-0.53382 6-1.375v-2.625c0-1.108-0.892-2-2-2h-8z"/>
      <path id="path4244" style="display:block;fill:#fff" d="m28 71.448c0-0.15742-0.13059-0.28489-0.2907-0.28489h-0.56395c-0.07499-0.28148-0.18828-0.55043-0.3314-0.79651l0.40116-0.40116c0.05661-0.05661 0.08659-0.12442 0.08721-0.19768 0.000626-0.07326-0.02574-0.14783-0.0814-0.20349l-0.78488-0.78488c-0.11131-0.11131-0.28795-0.1074-0.40116 0.0058l-0.40116 0.40116c-0.246-0.143-0.515-0.256-0.797-0.331v-0.56395c-0.000001-0.16011-0.12746-0.2907-0.28488-0.2907h-1.1047c-0.15742 0-0.28488 0.13059-0.28488 0.2907v0.56395c-0.28148 0.075-0.55043 0.18828-0.79651 0.3314l-0.40116-0.40116c-0.11322-0.11321-0.28985-0.11712-0.40116-0.0058l-0.78488 0.78488c-0.11131 0.11131-0.1074 0.28795 0.0058 0.40116l0.40114 0.40116c-0.14312 0.24608-0.2564 0.51503-0.3314 0.79651h-0.56395c-0.16011 0-0.2907 0.12747-0.2907 0.28489v1.1046c0 0.15742 0.13059 0.28488 0.2907 0.28488h0.56395c0.075 0.28148 0.18828 0.55043 0.3314 0.79651l-0.40116 0.40116c-0.11322 0.11322-0.11713 0.28985-0.0058 0.40116l0.78488 0.78488c0.11131 0.11131 0.28795 0.1074 0.40116-0.0058l0.402-0.402c0.24608 0.14312 0.51504 0.2564 0.79651 0.3314v0.56395c0 0.16011 0.12746 0.2907 0.28488 0.2907h1.1047c0.15742 0 0.28488-0.13059 0.28488-0.2907v-0.56395c0.28148-0.07499 0.55043-0.18828 0.79651-0.3314l0.40116 0.40116c0.11321 0.11321 0.28985 0.11713 0.40116 0.0058l0.78488-0.78488c0.11131-0.11131 0.1074-0.28795-0.0058-0.40116l-0.40116-0.40116c0.14312-0.24608 0.2564-0.51503 0.3314-0.79651h0.56395c0.16011 0 0.2907-0.12746 0.2907-0.28488v-1.1047zm-2.7907 0.55232c0 0.66754-0.54177 1.2093-1.2093 1.2093s-1.2093-0.54177-1.2093-1.2093 0.54177-1.2093 1.2093-1.2093c0.66754 0 1.2093 0.54177 1.2093 1.2093z"/>
     </g>
     <g id="g4246" transform="translate(48,-48)">
      <rect id="rect4252" style="color:#000000;fill:url(#linearGradient7214)" transform="rotate(-90)" rx="2" ry="2" height="12" width="12" y="18" x="-78"/>
      <path id="path4254" style="color:#000000;fill:url(#linearGradient7216)" d="m20 66c-1.108 0-2 0.892-2 2v2.625c1.4666 0.84118 3.5928 1.375 6 1.375s4.5334-0.53382 6-1.375v-2.625c0-1.108-0.892-2-2-2h-8z"/>
      <path id="path4260" style="display:block;fill:#a40" d="m28 71.448c0-0.15742-0.13059-0.28489-0.2907-0.28489h-0.56395c-0.07499-0.28148-0.18828-0.55043-0.3314-0.79651l0.40116-0.40116c0.05661-0.05661 0.08659-0.12442 0.08721-0.19768 0.000626-0.07326-0.02574-0.14783-0.0814-0.20349l-0.78488-0.78488c-0.11131-0.11131-0.28795-0.1074-0.40116 0.0058l-0.40116 0.40116c-0.246-0.143-0.515-0.256-0.797-0.331v-0.56395c-0.000001-0.16011-0.12746-0.2907-0.28488-0.2907h-1.1047c-0.15742 0-0.28488 0.13059-0.28488 0.2907v0.56395c-0.28148 0.075-0.55043 0.18828-0.79651 0.3314l-0.40116-0.40116c-0.11322-0.11321-0.28985-0.11712-0.40116-0.0058l-0.78488 0.78488c-0.11131 0.11131-0.1074 0.28795 0.0058 0.40116l0.40114 0.40116c-0.14312 0.24608-0.2564 0.51503-0.3314 0.79651h-0.56395c-0.16011 0-0.2907 0.12747-0.2907 0.28489v1.1046c0 0.15742 0.13059 0.28488 0.2907 0.28488h0.56395c0.075 0.28148 0.18828 0.55043 0.3314 0.79651l-0.40116 0.40116c-0.11322 0.11322-0.11713 0.28985-0.0058 0.40116l0.78488 0.78488c0.11131 0.11131 0.28795 0.1074 0.40116-0.0058l0.402-0.402c0.24608 0.14312 0.51504 0.2564 0.79651 0.3314v0.56395c0 0.16011 0.12746 0.2907 0.28488 0.2907h1.1047c0.15742 0 0.28488-0.13059 0.28488-0.2907v-0.56395c0.28148-0.07499 0.55043-0.18828 0.79651-0.3314l0.40116 0.40116c0.11321 0.11321 0.28985 0.11713 0.40116 0.0058l0.78488-0.78488c0.11131-0.11131 0.1074-0.28795-0.0058-0.40116l-0.40116-0.40116c0.14312-0.24608 0.2564-0.51503 0.3314-0.79651h0.56395c0.16011 0 0.2907-0.12746 0.2907-0.28488v-1.1047zm-2.7907 0.55232c0 0.66754-0.54177 1.2093-1.2093 1.2093s-1.2093-0.54177-1.2093-1.2093 0.54177-1.2093 1.2093-1.2093c0.66754 0 1.2093 0.54177 1.2093 1.2093z"/>
     </g>
     <g id="g4278" transform="translate(0,-32)">
      <rect id="rect4284" style="color:#000000;fill:url(#linearGradient7218)" transform="rotate(-90)" rx="2" ry="2" height="12" width="12" y="18" x="-78"/>
      <path id="path4286" style="color:#000000;fill:url(#linearGradient7216)" d="m20 66c-1.108 0-2 0.892-2 2v2.625c1.4666 0.84118 3.5928 1.375 6 1.375s4.5334-0.53382 6-1.375v-2.625c0-1.108-0.892-2-2-2h-8z"/>
      <path id="path4292" style="display:block;fill:#fff" d="m28 71.448c0-0.15742-0.13059-0.28489-0.2907-0.28489h-0.56395c-0.07499-0.28148-0.18828-0.55043-0.3314-0.79651l0.40116-0.40116c0.05661-0.05661 0.08659-0.12442 0.08721-0.19768 0.000626-0.07326-0.02574-0.14783-0.0814-0.20349l-0.78488-0.78488c-0.11131-0.11131-0.28795-0.1074-0.40116 0.0058l-0.40116 0.40116c-0.246-0.143-0.515-0.256-0.797-0.331v-0.56395c-0.000001-0.16011-0.12746-0.2907-0.28488-0.2907h-1.1047c-0.15742 0-0.28488 0.13059-0.28488 0.2907v0.56395c-0.28148 0.075-0.55043 0.18828-0.79651 0.3314l-0.40116-0.40116c-0.11322-0.11321-0.28985-0.11712-0.40116-0.0058l-0.78488 0.78488c-0.11131 0.11131-0.1074 0.28795 0.0058 0.40116l0.40114 0.40116c-0.14312 0.24608-0.2564 0.51503-0.3314 0.79651h-0.56395c-0.16011 0-0.2907 0.12747-0.2907 0.28489v1.1046c0 0.15742 0.13059 0.28488 0.2907 0.28488h0.56395c0.075 0.28148 0.18828 0.55043 0.3314 0.79651l-0.40116 0.40116c-0.11322 0.11322-0.11713 0.28985-0.0058 0.40116l0.78488 0.78488c0.11131 0.11131 0.28795 0.1074 0.40116-0.0058l0.402-0.402c0.24608 0.14312 0.51504 0.2564 0.79651 0.3314v0.56395c0 0.16011 0.12746 0.2907 0.28488 0.2907h1.1047c0.15742 0 0.28488-0.13059 0.28488-0.2907v-0.56395c0.28148-0.07499 0.55043-0.18828 0.79651-0.3314l0.40116 0.40116c0.11321 0.11321 0.28985 0.11713 0.40116 0.0058l0.78488-0.78488c0.11131-0.11131 0.1074-0.28795-0.0058-0.40116l-0.40116-0.40116c0.14312-0.24608 0.2564-0.51503 0.3314-0.79651h0.56395c0.16011 0 0.2907-0.12746 0.2907-0.28488v-1.1047zm-2.7907 0.55232c0 0.66754-0.54177 1.2093-1.2093 1.2093s-1.2093-0.54177-1.2093-1.2093 0.54177-1.2093 1.2093-1.2093c0.66754 0 1.2093 0.54177 1.2093 1.2093z"/>
     </g>
     <g id="g4294" transform="translate(16,-32)">
      <rect id="rect4300" style="color:#000000;fill:url(#linearGradient7250)" transform="rotate(-90)" rx="2" ry="2" height="12" width="12" y="18" x="-78"/>
      <path id="path4302" style="color:#000000;fill:url(#linearGradient7216)" d="m20 66c-1.108 0-2 0.892-2 2v2.625c1.4666 0.84118 3.5928 1.375 6 1.375s4.5334-0.53382 6-1.375v-2.625c0-1.108-0.892-2-2-2h-8z"/>
      <path id="path4308" style="display:block;fill:#a0501c" d="m28 71.448c0-0.15742-0.13059-0.28489-0.2907-0.28489h-0.56395c-0.07499-0.28148-0.18828-0.55043-0.3314-0.79651l0.40116-0.40116c0.05661-0.05661 0.08659-0.12442 0.08721-0.19768 0.000626-0.07326-0.02574-0.14783-0.0814-0.20349l-0.78488-0.78488c-0.11131-0.11131-0.28795-0.1074-0.40116 0.0058l-0.40116 0.40116c-0.246-0.143-0.515-0.256-0.797-0.331v-0.56395c-0.000001-0.16011-0.12746-0.2907-0.28488-0.2907h-1.1047c-0.15742 0-0.28488 0.13059-0.28488 0.2907v0.56395c-0.28148 0.075-0.55043 0.18828-0.79651 0.3314l-0.40116-0.40116c-0.11322-0.11321-0.28985-0.11712-0.40116-0.0058l-0.78488 0.78488c-0.11131 0.11131-0.1074 0.28795 0.0058 0.40116l0.40114 0.40116c-0.14312 0.24608-0.2564 0.51503-0.3314 0.79651h-0.56395c-0.16011 0-0.2907 0.12747-0.2907 0.28489v1.1046c0 0.15742 0.13059 0.28488 0.2907 0.28488h0.56395c0.075 0.28148 0.18828 0.55043 0.3314 0.79651l-0.40116 0.40116c-0.11322 0.11322-0.11713 0.28985-0.0058 0.40116l0.78488 0.78488c0.11131 0.11131 0.28795 0.1074 0.40116-0.0058l0.402-0.402c0.24608 0.14312 0.51504 0.2564 0.79651 0.3314v0.56395c0 0.16011 0.12746 0.2907 0.28488 0.2907h1.1047c0.15742 0 0.28488-0.13059 0.28488-0.2907v-0.56395c0.28148-0.07499 0.55043-0.18828 0.79651-0.3314l0.40116 0.40116c0.11321 0.11321 0.28985 0.11713 0.40116 0.0058l0.78488-0.78488c0.11131-0.11131 0.1074-0.28795-0.0058-0.40116l-0.40116-0.40116c0.14312-0.24608 0.2564-0.51503 0.3314-0.79651h0.56395c0.16011 0 0.2907-0.12746 0.2907-0.28488v-1.1047zm-2.7907 0.55232c0 0.66754-0.54177 1.2093-1.2093 1.2093s-1.2093-0.54177-1.2093-1.2093 0.54177-1.2093 1.2093-1.2093c0.66754 0 1.2093 0.54177 1.2093 1.2093z"/>
     </g>
     <g id="g4310" transform="translate(32,-32)">
      <rect id="rect4316" style="color:#000000;fill:url(#linearGradient7230)" transform="rotate(-90)" rx="2" ry="2" height="12" width="12" y="18" x="-78"/>
      <path id="path4318" style="color:#000000;fill:url(#linearGradient7216)" d="m20 66c-1.108 0-2 0.892-2 2v2.625c1.4666 0.84118 3.5928 1.375 6 1.375s4.5334-0.53382 6-1.375v-2.625c0-1.108-0.892-2-2-2h-8z"/>
      <path id="path4324" style="display:block;fill:#fff" d="m28 71.448c0-0.15742-0.13059-0.28489-0.2907-0.28489h-0.56395c-0.07499-0.28148-0.18828-0.55043-0.3314-0.79651l0.40116-0.40116c0.05661-0.05661 0.08659-0.12442 0.08721-0.19768 0.000626-0.07326-0.02574-0.14783-0.0814-0.20349l-0.78488-0.78488c-0.11131-0.11131-0.28795-0.1074-0.40116 0.0058l-0.40116 0.40116c-0.246-0.143-0.515-0.256-0.797-0.331v-0.56395c-0.000001-0.16011-0.12746-0.2907-0.28488-0.2907h-1.1047c-0.15742 0-0.28488 0.13059-0.28488 0.2907v0.56395c-0.28148 0.075-0.55043 0.18828-0.79651 0.3314l-0.40116-0.40116c-0.11322-0.11321-0.28985-0.11712-0.40116-0.0058l-0.78488 0.78488c-0.11131 0.11131-0.1074 0.28795 0.0058 0.40116l0.40114 0.40116c-0.14312 0.24608-0.2564 0.51503-0.3314 0.79651h-0.56395c-0.16011 0-0.2907 0.12747-0.2907 0.28489v1.1046c0 0.15742 0.13059 0.28488 0.2907 0.28488h0.56395c0.075 0.28148 0.18828 0.55043 0.3314 0.79651l-0.40116 0.40116c-0.11322 0.11322-0.11713 0.28985-0.0058 0.40116l0.78488 0.78488c0.11131 0.11131 0.28795 0.1074 0.40116-0.0058l0.402-0.402c0.24608 0.14312 0.51504 0.2564 0.79651 0.3314v0.56395c0 0.16011 0.12746 0.2907 0.28488 0.2907h1.1047c0.15742 0 0.28488-0.13059 0.28488-0.2907v-0.56395c0.28148-0.07499 0.55043-0.18828 0.79651-0.3314l0.40116 0.40116c0.11321 0.11321 0.28985 0.11713 0.40116 0.0058l0.78488-0.78488c0.11131-0.11131 0.1074-0.28795-0.0058-0.40116l-0.40116-0.40116c0.14312-0.24608 0.2564-0.51503 0.3314-0.79651h0.56395c0.16011 0 0.2907-0.12746 0.2907-0.28488v-1.1047zm-2.7907 0.55232c0 0.66754-0.54177 1.2093-1.2093 1.2093s-1.2093-0.54177-1.2093-1.2093 0.54177-1.2093 1.2093-1.2093c0.66754 0 1.2093 0.54177 1.2093 1.2093z"/>
     </g>
     <path id="path2669" style="opacity:.4;fill:url(#linearGradient7258);fill-rule:evenodd" d="m46.585 12 25.574 74h1.161l-25.574-74h-1.161z"/>
     <path id="path3664" style="opacity:.6;fill:url(#linearGradient7260);fill-rule:evenodd" d="m46.585 12 25.574 74h10.81c0.62544 0 1.0157-0.39025 1.0157-1.0157v-71.969c-0.001-0.625-0.391-1.015-1.016-1.015h-36.384z"/>
    </g>
   </g>
  </g>
 </g>
</svg>
