<?xml version="1.0" encoding="UTF-8" standalone="no"?>
<!-- Created with Inkscape (http://www.inkscape.org/) -->
<svg id="svg2982" xmlns:rdf="http://www.w3.org/1999/02/22-rdf-syntax-ns#" xmlns="http://www.w3.org/2000/svg" height="96" width="96" version="1.1" xmlns:cc="http://creativecommons.org/ns#" xmlns:xlink="http://www.w3.org/1999/xlink" xmlns:dc="http://purl.org/dc/elements/1.1/">
 <defs id="defs2984">
  <filter id="filter6279" color-interpolation-filters="sRGB">
   <feGaussianBlur id="feGaussianBlur6281" stdDeviation="0.8"/>
  </filter>
  <linearGradient id="linearGradient5801" x1="48" gradientUnits="userSpaceOnUse" y1="1052.4" gradientTransform="translate(0 -.0000078516)" x2="48" y2="902.36">
   <stop id="stop4158" style="stop-color:#c6c6c6" offset="0"/>
   <stop id="stop4160" style="stop-color:#e7e7e7" offset="1"/>
  </linearGradient>
  <linearGradient id="linearGradient8858" x1="48" gradientUnits="userSpaceOnUse" y1="24" gradientTransform="translate(0 956.36)" x2="48" y2="72">
   <stop id="stop4178" offset="0"/>
   <stop id="stop4180" style="stop-color:#393939" offset="1"/>
  </linearGradient>
  <radialGradient id="radialGradient8860" gradientUnits="userSpaceOnUse" cy="70" cx="48" gradientTransform="matrix(1.1875 0 0 .5625 -9 983.36)" r="16">
   <stop id="stop4194" style="stop-color:#fff" offset="0"/>
   <stop id="stop4196" style="stop-color:#fff;stop-opacity:0" offset="1"/>
  </radialGradient>
  <linearGradient id="linearGradient8862" x1="33" xlink:href="#linearGradient4236" gradientUnits="userSpaceOnUse" y1="68" gradientTransform="matrix(.5 0 0 1 18 956.36)" x2="33" y2="61"/>
  <linearGradient id="linearGradient4236">
   <stop id="stop4238-7" style="stop-color:#ffdf39" offset="0"/>
   <stop id="stop4240" style="stop-color:#eb9c00;stop-opacity:0" offset="1"/>
  </linearGradient>
  <linearGradient id="linearGradient8864" x1="33" xlink:href="#linearGradient4236" gradientUnits="userSpaceOnUse" y1="68" gradientTransform="matrix(.5 0 0 1 22 956.36)" x2="33" y2="61"/>
  <linearGradient id="linearGradient8866" x1="33" xlink:href="#linearGradient4236" gradientUnits="userSpaceOnUse" y1="68" gradientTransform="matrix(.5 0 0 1 26 956.36)" x2="33" y2="61"/>
  <linearGradient id="linearGradient8868" x1="33" xlink:href="#linearGradient4236" gradientUnits="userSpaceOnUse" y1="68" gradientTransform="matrix(.5 0 0 1 30 956.36)" x2="33" y2="61"/>
  <linearGradient id="linearGradient8870" x1="33" xlink:href="#linearGradient4236" gradientUnits="userSpaceOnUse" y1="68" gradientTransform="matrix(.5 0 0 1 34 956.36)" x2="33" y2="61"/>
  <linearGradient id="linearGradient8872" x1="33" xlink:href="#linearGradient4236" gradientUnits="userSpaceOnUse" y1="68" gradientTransform="matrix(.5 0 0 1 38 956.36)" x2="33" y2="61"/>
  <linearGradient id="linearGradient8874" x1="33" xlink:href="#linearGradient4236" gradientUnits="userSpaceOnUse" y1="68" gradientTransform="matrix(.5 0 0 1 42 956.36)" x2="33" y2="61"/>
  <linearGradient id="linearGradient8876" x1="33" xlink:href="#linearGradient4236" gradientUnits="userSpaceOnUse" y1="68" gradientTransform="matrix(.5 0 0 1 46 956.36)" x2="33" y2="61"/>
 </defs>
 <metadata id="metadata2987">
  <rdf:RDF>
   <cc:Work rdf:about="">
    <dc:format>image/svg+xml</dc:format>
    <dc:type rdf:resource="http://purl.org/dc/dcmitype/StillImage"/>
    <dc:title/>
   </cc:Work>
  </rdf:RDF>
 </metadata>
 <g id="layer1" transform="translate(0 -956.36)">
  <g id="g9691">
   <rect id="rect9283" ry="5" style="filter:url(#filter6279)" rx="5" transform="translate(0 -.0000078516)" height="80" width="80" y="964.36" x="8"/>
   <rect id="rect9285" style="fill:url(#linearGradient5801)" rx="5" ry="5" height="80" width="80" y="964.36" x="8"/>
   <g id="g8846" transform="matrix(1.125 0 0 1.125 -5.9 -125.45)">
    <path id="rect4162" style="color:#000000;fill:url(#linearGradient8858)" d="m40 980.36v4h-4v4h-9c-1.662 0-3 1.338-3 3v34c0 1.662 1.338 3 3 3h42c1.662 0 3-1.338 3-3v-34c0-1.662-1.338-3-3-3h-9v-4h-4v-4h-16z"/>
    <rect id="rect4224" style="opacity:.2;color:#000000;fill:url(#radialGradient8860)" height="18" width="38" y="1010.4" x="29"/>
    <rect id="rect4234" style="color:#000000;fill:url(#linearGradient8862)" height="7" width="1" y="1017.4" x="34"/>
    <rect id="rect4314" style="color:#000000;fill:url(#linearGradient8864)" height="7" width="1" y="1017.4" x="38"/>
    <rect id="rect4318" style="color:#000000;fill:url(#linearGradient8866)" height="7" width="1" y="1017.4" x="42"/>
    <rect id="rect4322" style="color:#000000;fill:url(#linearGradient8868)" height="7" width="1" y="1017.4" x="46"/>
    <rect id="rect4326" style="color:#000000;fill:url(#linearGradient8870)" height="7" width="1" y="1017.4" x="50"/>
    <rect id="rect4330" style="color:#000000;fill:url(#linearGradient8872)" height="7" width="1" y="1017.4" x="54"/>
    <rect id="rect4334" style="color:#000000;fill:url(#linearGradient8874)" height="7" width="1" y="1017.4" x="58"/>
    <rect id="rect4338" style="color:#000000;fill:url(#linearGradient8876)" height="7" width="1" y="1017.4" x="62"/>
   </g>
  </g>
 </g>
</svg>
