<?xml version="1.0" encoding="UTF-8" standalone="no"?>
<!-- Created with Inkscape (http://www.inkscape.org/) -->
<svg id="svg2982" xmlns:rdf="http://www.w3.org/1999/02/22-rdf-syntax-ns#" xmlns="http://www.w3.org/2000/svg" height="96" width="96" version="1.1" xmlns:cc="http://creativecommons.org/ns#" xmlns:xlink="http://www.w3.org/1999/xlink" xmlns:dc="http://purl.org/dc/elements/1.1/">
 <defs id="defs2984">
  <filter id="filter6279-2" color-interpolation-filters="sRGB">
   <feGaussianBlur id="feGaussianBlur6281-1" stdDeviation="0.8"/>
  </filter>
  <linearGradient id="linearGradient7218" x1="48" gradientUnits="userSpaceOnUse" y1="1052.4" gradientTransform="translate(0 -.0000078516)" x2="48" y2="902.36">
   <stop id="stop3702-30" style="stop-color:#bed6f2" offset="0"/>
   <stop id="stop3704-32" style="stop-color:#deeaf7" offset="1"/>
  </linearGradient>
  <linearGradient id="linearGradient3728" y2="75.676" gradientUnits="userSpaceOnUse" y1="13.405" x2="51.459" x1="51.459">
   <stop id="stop3724-8" style="stop-color:#d7e5f5" offset="0"/>
   <stop id="stop3726-8" style="stop-color:#fff;stop-opacity:0" offset="1"/>
  </linearGradient>
  <linearGradient id="linearGradient3736" x1="112" gradientUnits="userSpaceOnUse" y1="32" gradientTransform="translate(-60)" x2="112" y2="80">
   <stop id="stop3732" style="stop-color:#96b2d1" offset="0"/>
   <stop id="stop3734-3" style="stop-color:#97b2d0;stop-opacity:0" offset="1"/>
  </linearGradient>
  <linearGradient id="linearGradient3705" y2="69.062" gradientUnits="userSpaceOnUse" y1="37" x2="50" x1="50">
   <stop id="stop3701-8" style="stop-color:#aeccee" offset="0"/>
   <stop id="stop3703-7" style="stop-color:#b7d2f0;stop-opacity:0" offset="1"/>
  </linearGradient>
  <linearGradient id="linearGradient3713" x1="79" gradientUnits="userSpaceOnUse" y1="31.991" gradientTransform="translate(-30)" x2="79" y2="72.012">
   <stop id="stop3709-2" style="stop-color:#5f8ab9" offset="0"/>
   <stop id="stop3711-4" style="stop-color:#608ab8;stop-opacity:0" offset="1"/>
  </linearGradient>
  <linearGradient id="linearGradient3682-5" y2="56" gradientUnits="userSpaceOnUse" y1="25" x2="48" x1="48">
   <stop id="stop3678-0" style="stop-color:#78aae3" offset="0"/>
   <stop id="stop3680" style="stop-color:#81b0e5;stop-opacity:0" offset="1"/>
  </linearGradient>
  <linearGradient id="linearGradient3674-5" x1="78" gradientUnits="userSpaceOnUse" y1="25" gradientTransform="translate(-30)" x2="78" y2="56">
   <stop id="stop3670-7" style="stop-color:#3c628d" offset="0"/>
   <stop id="stop3672-3" style="stop-color:#3c628d;stop-opacity:0" offset="1"/>
  </linearGradient>
  <linearGradient id="linearGradient3916-2" x1="41.5" xlink:href="#linearGradient3741-7" gradientUnits="userSpaceOnUse" y1="60" gradientTransform="matrix(1.4142 -1.4142 .70711 .70711 -63.309 91.456)" x2="54.5" y2="60"/>
  <linearGradient id="linearGradient3741-7">
   <stop id="stop3743-2" style="stop-color:#5f5f5f" offset="0"/>
   <stop id="stop3749" style="stop-color:#3c3c3c" offset=".41123"/>
   <stop id="stop3745-1" style="stop-color:#252525" offset="1"/>
  </linearGradient>
  <linearGradient id="linearGradient3912" x1="41.5" xlink:href="#linearGradient3741-7" gradientUnits="userSpaceOnUse" y1="60" gradientTransform="matrix(1.5,0,0,1,-24,13)" x2="54.5" y2="60"/>
  <linearGradient id="linearGradient3908" x1="41.5" xlink:href="#linearGradient3741-7" gradientUnits="userSpaceOnUse" y1="60" gradientTransform="translate(0,1)" x2="54.5" y2="60"/>
  <linearGradient id="linearGradient3898" x1="40.549" xlink:href="#linearGradient3741-7" gradientUnits="userSpaceOnUse" y1="61.726" gradientTransform="matrix(-1,0,0,1,94,0)" x2="37.891" y2="61.097"/>
  <linearGradient id="linearGradient3894" x1="38" xlink:href="#linearGradient3741-7" gradientUnits="userSpaceOnUse" y1="59" gradientTransform="translate(2)" x2="41" y2="60"/>
  <radialGradient id="radialGradient3747" xlink:href="#linearGradient3741-7" gradientUnits="userSpaceOnUse" cy="45" cx="48" gradientTransform="matrix(1.25,0,0,1,-12,0)" r="8"/>
  <radialGradient id="radialGradient3761" gradientUnits="userSpaceOnUse" cy="40" cx="42" gradientTransform="matrix(2,0,0,1.5,-42,-20)" r="8">
   <stop id="stop3755-4" style="stop-color:#d8d8d8" offset="0"/>
   <stop id="stop3757" style="stop-color:#6a6a6a;stop-opacity:0" offset="1"/>
  </radialGradient>
  <radialGradient id="radialGradient3889" gradientUnits="userSpaceOnUse" cy="83" cx="48" gradientTransform="matrix(1 0 0 .25 0 62.25)" r="8">
   <stop id="stop3885-3" offset="0"/>
   <stop id="stop3887-5" style="stop-opacity:0" offset="1"/>
  </radialGradient>
 </defs>
 <metadata id="metadata2987">
  <rdf:RDF>
   <cc:Work rdf:about="">
    <dc:format>image/svg+xml</dc:format>
    <dc:type rdf:resource="http://purl.org/dc/dcmitype/StillImage"/>
    <dc:title/>
   </cc:Work>
  </rdf:RDF>
 </metadata>
 <g id="layer1" transform="translate(0 -956.36)">
  <g id="g8402">
   <rect id="rect9283" ry="5" style="filter:url(#filter6279-2)" rx="5" transform="translate(0 -.0000078516)" height="80" width="80" y="964.36" x="8"/>
   <rect id="rect9285" style="fill:url(#linearGradient7218)" rx="5" ry="5" height="80" width="80" y="964.36" x="8"/>
   <g id="g3138" transform="matrix(.72973 0 0 .72973 12.973 969.34)">
    <g id="layer4">
     <path id="path3715" style="color:#000000;fill:url(#linearGradient3728)" transform="matrix(1.1562 0 0 1.1562 -7.5 -7.5)" d="m80 48a32 32 0 1 1 -64 0 32 32 0 1 1 64 0z"/>
     <path id="path3717" style="color:#000000;fill:url(#linearGradient3736)" d="m48 11c-20.435 0-37 16.565-37 37s16.565 37 37 37 37-16.565 37-37-16.565-37-37-37zm0 3c19.33 0 35 15.67 35 35s-15.67 35-35 35-35-15.67-35-35 15.67-35 35-35z"/>
     <path id="path3696" style="color:#000000;fill:url(#linearGradient3705)" transform="translate(0,3)" d="m73 40a25 25 0 1 1 -50 0 25 25 0 1 1 50 0z"/>
     <path id="path3690" style="color:#000000;fill:url(#linearGradient3713)" d="m48 18c-13.807 0-25 11.193-25 25s11.193 25 25 25 25-11.193 25-25-11.193-25-25-25zm0 3c12.703 0 23 10.297 23 23s-10.297 23-23 23-23-10.297-23-23 10.297-23 23-23z"/>
     <path id="path3661" style="color:#000000;fill:url(#linearGradient3682-5)" d="m63 40a15 15 0 1 1 -30 0 15 15 0 1 1 30 0z"/>
     <path id="path3663" style="color:#000000;fill:url(#linearGradient3674-5)" d="m48 25c-8.2843 0-15 6.7157-15 15s6.7157 15 15 15 15-6.7157 15-15-6.7157-15-15-15zm0 3c7.1797 0 13 5.8203 13 13s-5.8203 13-13 13-13-5.8203-13-13 5.8203-13 13-13z"/>
    </g>
    <g id="layer7">
     <path id="path3914" style="stroke:#1e1e1e;stroke-width:1px;fill:url(#linearGradient3916-2)" d="m38.808 72.778 13.97-11.97 1.414 1.414-13.97 11.97z"/>
     <path id="path3910" style="stroke:#1e1e1e;stroke-width:1px;fill:url(#linearGradient3912)" d="m39 72h18v2h-18z"/>
     <path id="path3900" style="stroke:#1e1e1e;stroke-width:1px;fill:url(#linearGradient3908)" d="m42 60h12v2h-12z"/>
     <path id="path3896" style="stroke:#1e1e1e;fill:url(#linearGradient3898)" d="m58 80-10-36h4l10 36c-2 2-4 0-4 0z"/>
     <path id="path3886" style="stroke:#1e1e1e;fill:url(#linearGradient3894)" d="m38 80 10-36h-4l-10 36c2 2 4 0 4 0z"/>
     <path id="path3739" style="color:#000000;fill:url(#radialGradient3747)" d="m56 40a8 8 0 1 1 -16 0 8 8 0 1 1 16 0z"/>
     <path id="path3751" style="color:#000000;fill:url(#radialGradient3761)" transform="matrix(0 .5 -.75 0 78 13)" d="m56 40a8 8 0 1 1 -16 0 8 8 0 1 1 16 0z"/>
     <path id="path3763" style="color:#000000;fill:#1e1e1e" d="m48 32c-4.4183 0-8 3.5817-8 8s3.5817 8 8 8 8-3.5817 8-8-3.5817-8-8-8zm0 1c3.866 0 7 3.134 7 7s-3.134 7-7 7-7-3.134-7-7 3.134-7 7-7z"/>
     <path id="path3881" style="opacity:.3;color:#000000;fill:url(#radialGradient3889)" transform="matrix(3,0,0,1.25,-96,-22.25)" d="m56 83a8 2 0 1 1 -16 0 8 2 0 1 1 16 0z"/>
    </g>
   </g>
  </g>
 </g>
</svg>
