<?xml version="1.0" encoding="UTF-8" standalone="no"?>
<!-- Created with Inkscape (http://www.inkscape.org/) -->
<svg id="svg2982" xmlns:rdf="http://www.w3.org/1999/02/22-rdf-syntax-ns#" xmlns="http://www.w3.org/2000/svg" height="96" width="96" version="1.1" xmlns:cc="http://creativecommons.org/ns#" xmlns:xlink="http://www.w3.org/1999/xlink" xmlns:dc="http://purl.org/dc/elements/1.1/">
 <defs id="defs2984">
  <filter id="filter6279-2" color-interpolation-filters="sRGB">
   <feGaussianBlur id="feGaussianBlur6281-1" stdDeviation="0.8"/>
  </filter>
  <linearGradient id="linearGradient7218" y2="902.36" gradientUnits="userSpaceOnUse" x2="48" gradientTransform="translate(0 -.0000078516)" y1="1052.4" x1="48">
   <stop id="stop3702-60" style="stop-color:#1e1e1e" offset="0"/>
   <stop id="stop3704-48" style="stop-color:#434343" offset="1"/>
  </linearGradient>
  <linearGradient id="linearGradient3721-48" y2="90.239" gradientUnits="userSpaceOnUse" x2="32.251" gradientTransform="translate(0,-97)" y1="6.1317" x1="32.251">
   <stop id="stop3750-8-86" offset="0"/>
   <stop id="stop3752-5-24" style="stop-opacity:.58824" offset="1"/>
  </linearGradient>
  <linearGradient id="linearGradient3617-79" y2="5.9877" gradientUnits="userSpaceOnUse" x2="48" y1="90" x1="48">
   <stop id="stop3702-28" style="stop-color:#bcbcbc" offset="0"/>
   <stop id="stop3704-30" style="stop-color:#dfdfdf" offset="1"/>
  </linearGradient>
  <radialGradient id="radialGradient3619-25" xlink:href="#linearGradient3737-78" gradientUnits="userSpaceOnUse" cy="90.172" cx="48" gradientTransform="matrix(1.1573 0 0 .99591 -7.551 .19713)" r="42"/>
  <linearGradient id="linearGradient3737-78">
   <stop id="stop3739-91" style="stop-color:#fff" offset="0"/>
   <stop id="stop3741-549" style="stop-color:#fff;stop-opacity:0" offset="1"/>
  </linearGradient>
  <linearGradient id="linearGradient3613-99" y2="138.66" xlink:href="#linearGradient3737-78" gradientUnits="userSpaceOnUse" x2="48" y1="20.221" x1="48"/>
  <clipPath id="clipPath3613-35">
   <rect id="rect3615-7" style="fill:#fff" rx="6" ry="6" height="84" width="84" y="6" x="6"/>
  </clipPath>
  <filter id="filter3794-08" height="1.384" width="1.384" y="-.192" x="-.192" color-interpolation-filters="sRGB">
   <feGaussianBlur id="feGaussianBlur3796-1" stdDeviation="5.28"/>
  </filter>
  <linearGradient id="linearGradient4108" y2="76.068" gradientUnits="userSpaceOnUse" x2="41" y1="15.992" x1="41">
   <stop id="stop3467-9" style="stop-color:#c8c8c8" offset="0"/>
   <stop id="stop3469" style="stop-color:#fdfdfd" offset="1"/>
  </linearGradient>
  <radialGradient id="radialGradient4159" gradientUnits="userSpaceOnUse" cy="69.839" cx="48" gradientTransform="matrix(1.4062 -8.9961e-8 7.5993e-8 1.1879 -19.5 -11.962)" r="32">
   <stop id="stop3226-7" style="stop-color:#4f445a" offset="0"/>
   <stop id="stop3228-8" offset="1"/>
  </radialGradient>
  <linearGradient id="linearGradient2935" y2="64.188" gradientUnits="userSpaceOnUse" x2="142.47" gradientTransform="translate(-80)" y1="16.125" x1="142.47">
   <stop id="stop3689-3" style="stop-color:#fff" offset="0"/>
   <stop id="stop3691-4" style="stop-color:#fff;stop-opacity:0" offset="1"/>
  </linearGradient>
  <linearGradient id="linearGradient2675" y2="69.688" gradientUnits="userSpaceOnUse" x2="65.156" y1="16.125" x1="65.156">
   <stop id="stop3739-8-9" style="stop-color:#fff" offset="0"/>
   <stop id="stop3741-1-0" style="stop-color:#fff;stop-opacity:0" offset="1"/>
  </linearGradient>
  <linearGradient id="linearGradient3834" y2="88" xlink:href="#linearGradient3980" gradientUnits="userSpaceOnUse" x2="48" gradientTransform="translate(2)" y1="76" x1="48"/>
  <linearGradient id="linearGradient3980">
   <stop id="stop3982" style="stop-color:#cacaca" offset="0"/>
   <stop id="stop3984" style="stop-color:#f3f3f3" offset="1"/>
  </linearGradient>
  <linearGradient id="linearGradient3826" y2="13" gradientUnits="userSpaceOnUse" x2="47" gradientTransform="matrix(1.0059 0 0 .99417 100 0)" y1="9" x1="47">
   <stop id="stop2996" offset="0"/>
   <stop id="stop2998" style="stop-opacity:.34884" offset="1"/>
  </linearGradient>
  <linearGradient id="linearGradient4083" y2="82" gradientUnits="userSpaceOnUse" x2="45" gradientTransform="matrix(.66667 0 0 .66667 18 26.667)" y1="86" x1="45">
   <stop id="stop3887-1" style="stop-color:#818181" offset="0"/>
   <stop id="stop3889-9" style="stop-color:#fdfdfd" offset="1"/>
  </linearGradient>
  <linearGradient id="linearGradient4090" y2="20" xlink:href="#linearGradient3980" gradientUnits="userSpaceOnUse" x2="-76" gradientTransform="translate(161)" y1="20" x1="-84"/>
  <linearGradient id="linearGradient4087-2" y2="80" xlink:href="#linearGradient3849" gradientUnits="userSpaceOnUse" x2="27" gradientTransform="matrix(0,-1,1,0,-60,101)" y1="80" x1="16"/>
  <linearGradient id="linearGradient3849">
   <stop id="stop3851" offset="0"/>
   <stop id="stop3853-0" style="stop-opacity:0" offset="1"/>
  </linearGradient>
  <linearGradient id="linearGradient4013" y2="20" xlink:href="#linearGradient3980" gradientUnits="userSpaceOnUse" x2="-76" gradientTransform="translate(160)" y1="20" x1="-84"/>
  <linearGradient id="linearGradient4015" y2="80" xlink:href="#linearGradient3849" gradientUnits="userSpaceOnUse" x2="27" gradientTransform="matrix(0,-1,1,0,-60,100)" y1="80" x1="16"/>
  <linearGradient id="linearGradient4054" y2="96" xlink:href="#linearGradient3849" gradientUnits="userSpaceOnUse" x2="48" gradientTransform="matrix(1,0,0,-1,2,164)" y1="76" x1="48"/>
 </defs>
 <metadata id="metadata2987">
  <rdf:RDF>
   <cc:Work rdf:about="">
    <dc:format>image/svg+xml</dc:format>
    <dc:type rdf:resource="http://purl.org/dc/dcmitype/StillImage"/>
    <dc:title/>
   </cc:Work>
  </rdf:RDF>
 </metadata>
 <g id="layer1" transform="translate(0 -956.36)">
  <g id="g7936">
   <g id="g7714">
    <rect id="rect9283" style="filter:url(#filter6279-2)" transform="translate(0 -.0000078516)" rx="5" ry="5" height="80" width="80" y="964.36" x="8"/>
    <rect id="rect9285" style="fill:url(#linearGradient7218)" rx="5" ry="5" height="80" width="80" y="964.36" x="8"/>
    <g id="g3111" transform="matrix(.64286 0 0 .64286 17.143 972.86)">
     <g id="g3228">
      <g id="layer3">
       <rect id="rect3716" style="opacity:.45;fill:url(#linearGradient3721-48)" transform="scale(1,-1)" rx="6" ry="6" height="84" width="84" y="-91" x="6"/>
      </g>
      <g id="layer1-4">
       <rect id="rect2419" style="fill:url(#linearGradient3617-79)" rx="6" ry="6" height="84" width="84" y="6" x="6"/>
       <path id="path3615" style="opacity:.2;fill:url(#radialGradient3619-25)" d="m12 90c-3.324 0-6-2.676-6-6v-72c0-0.33472 0.04135-0.6507 0.09375-0.96875 0.0487-0.2956 0.09704-0.59692 0.1875-0.875 0.0099-0.03 0.0209-0.063 0.0313-0.094 0.0989-0.2873 0.2349-0.547 0.375-0.812 0.1446-0.2735 0.3156-0.5356 0.5-0.7812 0.1844-0.2457 0.3738-0.4735 0.5937-0.6876 0.44-0.428 0.943-0.8145 1.5-1.0937 0.2786-0.1396 0.5735-0.2469 0.8748-0.3437-0.256 0.1002-0.4865 0.2362-0.7185 0.375-0.00741 0.0044-0.023866-0.0045-0.03125 0-0.031933 0.0193-0.062293 0.04251-0.09375 0.0625-0.1204 0.0767-0.23102 0.16351-0.34375 0.25-0.10617 0.0808-0.21328 0.16111-0.3125 0.25-0.1779 0.1614-0.3474 0.3453-0.5 0.5312-0.1075 0.1303-0.2183 0.2653-0.3124 0.4063-0.0251 0.0383-0.0385 0.0858-0.0626 0.125-0.0647 0.103-0.1302 0.2045-0.1874 0.3124-0.1011 0.1948-0.2057 0.4158-0.2813 0.625-0.008 0.0219-0.0236 0.0406-0.0313 0.0626-0.0318 0.0919-0.0358 0.1868-0.0624 0.2812-0.0304 0.1066-0.0704 0.203-0.0938 0.3125-0.0729 0.3415-0.125 0.6985-0.125 1.0625v72c0 2.7818 2.2182 5 5 5h72c2.7818 0 5-2.2182 5-5v-72c0-0.364-0.052-0.721-0.125-1.0625-0.044-0.2069-0.088-0.3977-0.156-0.5937-0.008-0.022-0.024-0.0407-0.031-0.0626-0.063-0.1737-0.139-0.3674-0.219-0.5312-0.042-0.0828-0.079-0.17-0.125-0.25-0.055-0.0972-0.127-0.1884-0.188-0.2812-0.094-0.141-0.205-0.276-0.312-0.4063-0.143-0.1745-0.303-0.347-0.469-0.5-0.011-0.0102-0.02-0.0211-0.031-0.0313-0.139-0.1255-0.285-0.2344-0.438-0.3437-0.102-0.0731-0.204-0.1534-0.312-0.2187-0.0074-0.0045-0.02384 0.0044-0.03125 0-0.23204-0.13873-0.46255-0.27478-0.71875-0.375 0.30153 0.0968 0.59646 0.20414 0.875 0.34375 0.55709 0.27922 1.0601 0.66569 1.5 1.0938 0.21997 0.21403 0.40937 0.44186 0.59375 0.6875s0.35541 0.50774 0.5 0.78125c0.14012 0.26505 0.27614 0.52473 0.375 0.8125 0.01041 0.03078 0.02133 0.06274 0.03125 0.09375 0.09046 0.27808 0.1388 0.5794 0.1875 0.875 0.053 0.318 0.094 0.634 0.094 0.969v72c0 3.324-2.676 6-6 6h-72z"/>
      </g>
      <g id="layer5">
       <rect id="rect3171" style="opacity:.1;filter:url(#filter3794-08);stroke:#fff;stroke-linecap:round;stroke-width:.5;fill:url(#linearGradient3613-99)" clip-path="url(#clipPath3613-35)" rx="12" ry="12" height="66" width="66" y="15" x="15"/>
      </g>
      <g id="layer4">
       <path id="path4106" style="color:#000000;fill:url(#linearGradient4108)" d="m18 14.156c-2.1046 0-3.8438 1.7391-3.8438 3.8438v54c0 2.1046 1.7391 3.8438 3.8438 3.8438h60c2.1046 0 3.8438-1.7391 3.8438-3.8438v-54c0-2.1046-1.7391-3.8438-3.8438-3.8438h-60z"/>
       <rect id="rect3664" style="color:#000000;fill:url(#radialGradient4159)" rx="2" ry="2" height="58" width="64" y="16" x="16"/>
       <path id="path3664" style="opacity:.7;fill:url(#linearGradient2935);fill-rule:evenodd" d="m47.656 16.125 20 57.875h10.344c0.86562 0 1.5954-0.54598 1.875-1.3125v-55.375c-0.201-0.552-0.636-0.987-1.187-1.188h-31.031z"/>
       <path id="rect3721" style="opacity:.2;color:#000000" d="m18 16c-1.108 0-2 0.892-2 2v54c0 1.108 0.892 2 2 2h60c1.108 0 2-0.892 2-2v-54c0-1.108-0.892-2-2-2h-60zm0 2h60v54h-60v-54z"/>
       <path id="path2669" style="opacity:.5;fill:url(#linearGradient2675);fill-rule:evenodd" d="m47.656 16.125 20 57.875h1l-20-57.875h-1z"/>
       <path id="rect3708" style="opacity:.4;color:#000000" d="m18 16c-1.108 0-2 0.892-2 2v54c0 1.108 0.892 2 2 2h60c1.108 0 2-0.892 2-2v-54c0-1.108-0.892-2-2-2h-60zm0 1.0938h60c0.52703 0 0.90625 0.37922 0.90625 0.90625v54c0 0.52703-0.37922 0.90625-0.90625 0.90625h-60c-0.52703 0-0.90625-0.37922-0.90625-0.90625v-54c0-0.52703 0.37922-0.90625 0.90625-0.90625z"/>
      </g>
     </g>
    </g>
    <g id="g3317" transform="matrix(.64286 0 0 .64286 17.143 972.86)">
     <g id="g3200">
      <rect id="rect3666" style="color:#000000;fill:url(#linearGradient3834)" rx="3" ry="3" height="12" width="20" y="76" x="38"/>
      <rect id="rect3811" style="opacity:.4;color:#000000;fill:url(#linearGradient3826)" rx="2" ry="2" height="4" width="16" y="9" x="40"/>
      <rect id="rect3813" style="color:#000000;fill:#e6e6e6" rx="1" ry="1" height="2" width="14" y="10" x="41"/>
      <path id="rect3815" style="opacity:.6;color:#000000;fill:#fff" d="m42 10c-0.554 0-1 0.446-1 1 0 0.1879 0.06682 0.35014 0.15625 0.5 0.174-0.292 0.478-0.5 0.844-0.5h12c0.3661 0 0.66952 0.20801 0.84375 0.5 0.089-0.15 0.156-0.312 0.156-0.5 0-0.554-0.446-1-1-1h-12z"/>
      <rect id="rect3875" style="color:#000000;stroke:#000;stroke-width:.5;stroke-opacity:.42308;fill:url(#linearGradient4083)" rx=".66667" ry=".66667" height="4" width="8" y="80" x="44"/>
      <rect id="rect3672" style="color:#000000;fill:url(#linearGradient4090)" transform="matrix(0,1,1,0,0,0)" rx="2" ry="2" height="8" width="8" y="16" x="77"/>
      <path id="rect3965" style="opacity:.5;color:#000000;fill:url(#linearGradient4087-2)" d="m16 83c0 1.108 0.892 2 2 2h4c1.108 0 2-0.892 2-2v-4c0-1.108-0.892-2-2-2h-4c-1.108 0-2 0.892-2 2v4zm1 0v-4c0-0.56573 0.43427-1 1-1h4c0.56573 0 1 0.43427 1 1v4c0 0.56573-0.43427 1-1 1h-4c-0.56573 0-1-0.43427-1-1z"/>
      <path id="rect3972" style="color:#000000;fill:#fff" d="m18 78c-0.56573 0-1 0.43427-1 1v1c0-0.56573 0.43427-1 1-1h4c0.56573 0 1 0.43427 1 1v-1c0-0.56573-0.43427-1-1-1h-4z"/>
      <g id="g4005" transform="translate(10,1)">
       <rect id="rect4007" style="color:#000000;fill:url(#linearGradient4013)" transform="matrix(0,1,1,0,0,0)" rx="2" ry="2" height="8" width="8" y="16" x="76"/>
       <path id="path4009" style="opacity:.5;color:#000000;fill:url(#linearGradient4015)" d="m16 82c0 1.108 0.892 2 2 2h4c1.108 0 2-0.892 2-2v-4c0-1.108-0.892-2-2-2h-4c-1.108 0-2 0.892-2 2v4zm1 0v-4c0-0.56573 0.43427-1 1-1h4c0.56573 0 1 0.43427 1 1v4c0 0.56573-0.43427 1-1 1h-4c-0.56573 0-1-0.43427-1-1z"/>
       <path id="path4011" style="color:#000000;fill:#fff" d="m18 77c-0.56573 0-1 0.43427-1 1v1c0-0.56573 0.43427-1 1-1h4c0.56573 0 1 0.43427 1 1v-1c0-0.56573-0.43427-1-1-1h-4z"/>
      </g>
      <g id="g4017" transform="translate(56,1)">
       <rect id="rect4019" style="color:#000000;fill:url(#linearGradient4013)" transform="matrix(0,1,1,0,0,0)" rx="2" ry="2" height="8" width="8" y="16" x="76"/>
       <path id="path4021" style="opacity:.5;color:#000000;fill:url(#linearGradient4015)" d="m16 82c0 1.108 0.892 2 2 2h4c1.108 0 2-0.892 2-2v-4c0-1.108-0.892-2-2-2h-4c-1.108 0-2 0.892-2 2v4zm1 0v-4c0-0.56573 0.43427-1 1-1h4c0.56573 0 1 0.43427 1 1v4c0 0.56573-0.43427 1-1 1h-4c-0.56573 0-1-0.43427-1-1z"/>
       <path id="path4023" style="color:#000000;fill:#fff" d="m18 77c-0.56573 0-1 0.43427-1 1v1c0-0.56573 0.43427-1 1-1h4c0.56573 0 1 0.43427 1 1v-1c0-0.56573-0.43427-1-1-1h-4z"/>
      </g>
      <g id="g4029" transform="translate(46,1)">
       <rect id="rect4031" style="color:#000000;fill:url(#linearGradient4013)" transform="matrix(0,1,1,0,0,0)" rx="2" ry="2" height="8" width="8" y="16" x="76"/>
       <path id="path4033" style="opacity:.5;color:#000000;fill:url(#linearGradient4015)" d="m16 82c0 1.108 0.892 2 2 2h4c1.108 0 2-0.892 2-2v-4c0-1.108-0.892-2-2-2h-4c-1.108 0-2 0.892-2 2v4zm1 0v-4c0-0.56573 0.43427-1 1-1h4c0.56573 0 1 0.43427 1 1v4c0 0.56573-0.43427 1-1 1h-4c-0.56573 0-1-0.43427-1-1z"/>
       <path id="path4035" style="color:#000000;fill:#fff" d="m18 77c-0.56573 0-1 0.43427-1 1v1c0-0.56573 0.43427-1 1-1h4c0.56573 0 1 0.43427 1 1v-1c0-0.56573-0.43427-1-1-1h-4z"/>
      </g>
      <path id="rect4041" style="opacity:.5;color:#000000;fill:url(#linearGradient4054)" d="m41 88c-1.662 0-3-1.338-3-3v-6c0-1.662 1.338-3 3-3h14c1.662 0 3 1.338 3 3v6c0 1.662-1.338 3-3 3h-14zm0-1h14c1.1322 0 2-0.86776 2-2v-6c0-1.1322-0.86776-2-2-2h-14c-1.1322 0-2 0.86776-2 2v6c0 1.1322 0.86776 2 2 2z"/>
      <path id="rect4069" style="color:#000000;fill:#fff" d="m41 77c-1.1322 0-2 0.86776-2 2v1c0-1.1322 0.86776-2 2-2h14c1.1322 0 2 0.86776 2 2v-1c0-1.1322-0.86776-2-2-2h-14z"/>
      <path id="path4092" style="opacity:.6;color:#000000;fill:#fff" d="m18 84c-0.56573 0-1-0.43427-1-1v-1c0 0.56573 0.43427 1 1 1h4c0.56573 0 1-0.43427 1-1v1c0 0.56573-0.43427 1-1 1h-4z"/>
      <path id="path4094" style="opacity:.6;color:#000000;fill:#fff" d="m28 84c-0.56573 0-1-0.43427-1-1v-1c0 0.56573 0.43427 1 1 1h4c0.56573 0 1-0.43427 1-1v1c0 0.56573-0.43427 1-1 1h-4z"/>
      <path id="path4096" style="opacity:.6;color:#000000;fill:#fff" d="m64 84c-0.56573 0-1-0.43427-1-1v-1c0 0.56573 0.43427 1 1 1h4c0.56573 0 1-0.43427 1-1v1c0 0.56573-0.43427 1-1 1h-4z"/>
      <path id="path4098" style="opacity:.6;color:#000000;fill:#fff" d="m74 84c-0.56573 0-1-0.43427-1-1v-1c0 0.56573 0.43427 1 1 1h4c0.56573 0 1-0.43427 1-1v1c0 0.56573-0.43427 1-1 1h-4z"/>
     </g>
    </g>
   </g>
  </g>
 </g>
</svg>
