<?xml version="1.0" encoding="UTF-8" standalone="no"?>
<!-- Created with Inkscape (http://www.inkscape.org/) -->
<svg id="svg6307" xmlns:rdf="http://www.w3.org/1999/02/22-rdf-syntax-ns#" xmlns="http://www.w3.org/2000/svg" height="96" width="96" version="1.1" xmlns:cc="http://creativecommons.org/ns#" xmlns:xlink="http://www.w3.org/1999/xlink" xmlns:dc="http://purl.org/dc/elements/1.1/">
 <defs id="defs6309">
  <filter id="filter6279" color-interpolation-filters="sRGB">
   <feGaussianBlur id="feGaussianBlur6281" stdDeviation="0.8"/>
  </filter>
  <linearGradient id="linearGradient9768" x1="48" gradientUnits="userSpaceOnUse" y1="1052.4" gradientTransform="translate(0 -.0000078516)" x2="48" y2="902.36">
   <stop id="stop3201-92" style="stop-color:#853798" offset="0"/>
   <stop id="stop3203-6" style="stop-color:#c78bd5" offset="1"/>
  </linearGradient>
  <linearGradient id="linearGradient23705" x1="68.75" xlink:href="#linearGradient3354" gradientUnits="userSpaceOnUse" y1="59" gradientTransform="translate(-113.72 970.25)" x2="75.25" y2="59"/>
  <linearGradient id="linearGradient3354">
   <stop id="stop3356-9" style="stop-color:#b4b4b4" offset="0"/>
   <stop id="stop3362-7" style="stop-color:#646464" offset=".20467"/>
   <stop id="stop3364-5" style="stop-color:#fff" offset=".49568"/>
   <stop id="stop3358" style="stop-color:#3c3c3c" offset="1"/>
  </linearGradient>
  <clipPath id="clipPath3235">
   <path id="path3237" style="fill:#fff" d="m66 6v55c0 1.662 1.338 3 3 3h6c1.662 0 3-1.338 3-3v-55h-4v2h-4v-2h-4z"/>
  </clipPath>
  <filter id="filter3243" height="1.0732" width="1.3323" y="-.03661" x="-.16615" color-interpolation-filters="sRGB">
   <feGaussianBlur id="feGaussianBlur3245" stdDeviation="0.9"/>
  </filter>
  <filter id="filter3429" height="1.1907" width="1.3237" y="-.095354" x="-.16183" color-interpolation-filters="sRGB">
   <feGaussianBlur id="feGaussianBlur3431" stdDeviation="0.53551312"/>
  </filter>
  <linearGradient id="linearGradient23711" x1="68.029" xlink:href="#linearGradient3435" gradientUnits="userSpaceOnUse" y1="17.763" gradientTransform="translate(-113.72 969.25)" x2="75.971" y2="17.763"/>
  <linearGradient id="linearGradient3435">
   <stop id="stop3437-6" style="stop-color:#ededed" offset="0"/>
   <stop id="stop3439" style="stop-color:#b0b0b0" offset="1"/>
  </linearGradient>
  <linearGradient id="linearGradient23713" x1="68.969" xlink:href="#linearGradient3435" gradientUnits="userSpaceOnUse" y1="17.5" gradientTransform="matrix(-1 0 0 1 30.311 969.25)" x2="75.062" y2="17.5"/>
  <linearGradient id="linearGradient23715" x1="68.75" xlink:href="#linearGradient3354" gradientUnits="userSpaceOnUse" y1="59" gradientTransform="matrix(1.1263 0 0 1 -121.12 921.75)" x2="72.251" y2="59"/>
  <linearGradient id="linearGradient9977" y2="138.66" gradientUnits="userSpaceOnUse" y1="20.221" x2="48" x1="48">
   <stop id="stop3739-89" style="stop-color:#fff" offset="0"/>
   <stop id="stop3741-02" style="stop-color:#fff;stop-opacity:0" offset="1"/>
  </linearGradient>
  <clipPath id="clipPath3613-47">
   <rect id="rect3615-657" style="fill:#fff" rx="6" ry="6" height="84" width="84" y="6" x="6"/>
  </clipPath>
  <filter id="filter3794-13" height="1.384" width="1.384" y="-.192" x="-.192" color-interpolation-filters="sRGB">
   <feGaussianBlur id="feGaussianBlur3796-33" stdDeviation="5.28"/>
  </filter>
  <linearGradient id="linearGradient3382" x1="69" gradientUnits="userSpaceOnUse" y1="54" gradientTransform="translate(-113.72 970.25)" x2="73" y2="54">
   <stop id="stop3292-7" style="stop-color:#fff" offset="0"/>
   <stop id="stop3304-8" style="stop-color:#8c8c8c" offset=".48973"/>
   <stop id="stop3306-5" style="stop-color:#cfcfcf" offset=".50045"/>
   <stop id="stop3298-3" style="stop-color:#fff" offset=".62277"/>
   <stop id="stop3300-3" style="stop-color:#c8c8c8" offset=".81696"/>
   <stop id="stop3294-8" style="stop-color:#505050" offset="1"/>
  </linearGradient>
  <linearGradient id="linearGradient3384" x1="69" gradientUnits="userSpaceOnUse" y1="54" gradientTransform="matrix(-1 0 0 1 30.281 967.25)" x2="73" y2="54">
   <stop id="stop3606" style="stop-color:#2f2f2f" offset="0"/>
   <stop id="stop3608" style="stop-color:#fff" offset=".43731"/>
   <stop id="stop3610" style="stop-color:#979797" offset=".62138"/>
   <stop id="stop3612-2" style="stop-color:#505050" offset=".77232"/>
   <stop id="stop3614-2" style="stop-color:#e6e6e6" offset="1"/>
  </linearGradient>
 </defs>
 <metadata id="metadata6312">
  <rdf:RDF>
   <cc:Work rdf:about="">
    <dc:format>image/svg+xml</dc:format>
    <dc:type rdf:resource="http://purl.org/dc/dcmitype/StillImage"/>
    <dc:title/>
   </cc:Work>
  </rdf:RDF>
 </metadata>
 <g id="layer1" transform="translate(0 -956.36)">
  <g id="g23729">
   <g id="g9923">
    <g id="g10092">
     <g id="g10182">
      <rect id="rect9283" style="filter:url(#filter6279)" transform="translate(0 -.0000078516)" rx="5" ry="5" height="80" width="80" y="964.36" x="8"/>
      <rect id="rect9285" style="fill:url(#linearGradient9768)" rx="5" ry="5" height="80" width="80" y="964.36" x="8"/>
      <g id="g6873" transform="matrix(.91604 0 0 .91604 86.128 82.603)">
       <path id="rect3201" style="fill:#252525" d="m-47.719 977.25v55c0 1.662 1.338 3 3 3h6c1.662 0 3-1.338 3-3v-55h-4v2h-4v-2h-4z"/>
       <rect id="rect3247" style="fill:#4d4d4d" height="49" width="4" y="979.25" x="-43.719"/>
       <rect id="rect3211" style="stroke:#000;stroke-width:.5;stroke-linecap:square;stroke-opacity:.56364;fill:url(#linearGradient23705)" rx="1" ry="1" height="4" width="6" y="1027.3" x="-44.719"/>
       <path id="path3231" style="filter:url(#filter3243);stroke:#000;stroke-width:2;stroke-linecap:square;fill:none" clip-path="url(#clipPath3235)" transform="translate(-113.72 971.25)" d="m66 6v55c0 1.662 1.338 3 3 3h6c1.662 0 3-1.338 3-3v-55h-4v2h-4v-2h-4z"/>
       <path id="rect3249" style="stroke:#000;stroke-width:.5;stroke-linecap:square;stroke-opacity:.56364;fill:url(#linearGradient3382)" d="m-44.219 1022.3c-0.27 0-0.5 0.218-0.5 0.5v3c0 0.282 0.23023 0.5 0.5 0.5h1c0.26977 0 0.5-0.218 0.5-0.5v-0.5h1.5c0.277 0 0.5-0.223 0.5-0.5v-1c0-0.277-0.223-0.5-0.5-0.5h-1.5v-0.5c0-0.282-0.23-0.5-0.5-0.5h-1z"/>
       <use id="use3308" xlink:href="#rect3249" transform="translate(0,-6)" height="96" width="96" y="0" x="0"/>
       <use id="use3310" xlink:href="#use3308" transform="translate(0,-6)" height="96" width="96" y="0" x="0"/>
       <use id="use3312" xlink:href="#use3310" transform="translate(0,-6)" height="96" width="96" y="0" x="0"/>
       <use id="use3314" xlink:href="#use3312" transform="translate(0,-6)" height="96" width="96" y="0" x="0"/>
       <use id="use3316" xlink:href="#use3314" transform="translate(0,-6)" height="96" width="96" y="0" x="0"/>
       <use id="use3318" xlink:href="#use3316" transform="translate(0,-6)" height="96" width="96" y="0" x="0"/>
       <use id="use3320" xlink:href="#use3318" transform="translate(0,-6)" height="96" width="96" y="0" x="0"/>
       <path id="path3322" style="stroke:#000;stroke-width:.5;stroke-linecap:square;stroke-opacity:.56364;fill:url(#linearGradient3384)" d="m-39.219 1019.3c0.26977 0 0.5 0.2179 0.5 0.5v3c0 0.282-0.23023 0.5-0.5 0.5h-1c-0.27 0-0.5-0.218-0.5-0.5v-0.5h-1.5c-0.277 0-0.5-0.223-0.5-0.5v-1c0-0.277 0.223-0.5 0.5-0.5h1.5v-0.5c0-0.282 0.23-0.5 0.5-0.5h1z"/>
       <use id="use3340" xlink:href="#path3322" transform="translate(0,-6)" height="96" width="96" y="0" x="0"/>
       <use id="use3342" xlink:href="#use3340" transform="translate(0,-6)" height="96" width="96" y="0" x="0"/>
       <use id="use3344" xlink:href="#use3342" transform="translate(0,-6)" height="96" width="96" y="0" x="0"/>
       <use id="use3346" xlink:href="#use3344" transform="translate(0,-6)" height="96" width="96" y="0" x="0"/>
       <use id="use3348" xlink:href="#use3346" transform="translate(0,-6)" height="96" width="96" y="0" x="0"/>
       <use id="use3350" xlink:href="#use3348" transform="translate(0,-6)" height="96" width="96" y="0" x="0"/>
       <path id="path3433" style="filter:url(#filter3429);stroke:#000;stroke-width:.5;stroke-linecap:square;stroke-opacity:.56364" d="m-44.219 979.78c-1.0277 0-1.9688 0.7652-1.9688 1.8125v10.812c0 1.048 0.918 1.844 1.969 1.844h5c1.0507 0 1.9688-0.79645 1.9688-1.8438v-10.812c-0.000003-1.0473-0.94105-1.8125-1.9688-1.8125h-5zm1.0625 9.0625h2.875v1.75h-2.875v-1.75z"/>
       <path id="rect3403" style="fill:url(#linearGradient23711)" d="m-44.49 980.28c-0.687 0-1.229 0.4824-1.229 1.0816l-0.005 10.815c0 0.6 0.542 1.082 1.229 1.082h5.5832c0.68714 0 1.2292-0.48237 1.2292-1.0815l0.0051-10.815c0-0.59918-0.54211-1.0815-1.2292-1.0815h-5.5832zm0.7043 7.9496h4.1013v3.1184h-4.1013v-3.1184z"/>
       <path id="rect3470" style="fill:url(#linearGradient23713)" d="m-39.157 981.22c0.277 0 0.5 0.223 0.5 0.5v10.062c0 0.277-0.223 0.5-0.5 0.5h-5.0938c-0.277 0-0.5-0.223-0.5-0.5v-10.062c0-0.277 0.223-0.5 0.5-0.5h5.0938zm-0.4375 6.9688h-4.125v3.125h4.125v-3.125z"/>
       <rect id="rect3399" style="stroke:#000;stroke-linecap:square;stroke-opacity:.56364;fill:url(#linearGradient23715)" rx=".56313" ry=".5" height="5" width="3.3788" y="978.75" x="-43.408"/>
       <rect id="rect3518" style="opacity:.3" height="1" width="4" y="987.25" x="-43.734"/>
      </g>
      <rect id="rect3171" style="opacity:.1;filter:url(#filter3794-13);stroke:#fff;stroke-linecap:round;stroke-width:.5;fill:url(#linearGradient9977)" clip-path="url(#clipPath3613-47)" rx="12" ry="12" transform="translate(0 956.36)" width="66" y="15" x="15" height="66"/>
      <path id="path3335" style="fill:#43134e" d="m20.5 1023.1v8.7868h1.1376v-3.8638h0.76492c0.18947 0 0.34058 0.027 0.4511 0.059 0.11842 0.024 0.23844 0.086 0.37265 0.1962 0.08684 0.071 0.20711 0.2027 0.33342 0.3922 0.12631 0.1816 0.25016 0.3829 0.39227 0.6277 0.1421 0.2368 0.28938 0.5082 0.43149 0.7844 0.14999 0.2685 0.28556 0.5202 0.41188 0.765 0.1342 0.2368 0.2583 0.4381 0.35304 0.6276 0.09473 0.1895 0.15666 0.333 0.19613 0.4119h1.3925l-1.2749-2.5301c-0.14211-0.2763-0.29704-0.5398-0.47072-0.7846-0.16579-0.2526-0.375-0.4812-0.62762-0.6864 0.55262-0.15 0.96314-0.4291 1.2552-0.8238 0.29999-0.4026 0.4511-0.914 0.4511-1.5298-0.000006-0.4816-0.09684-0.9115-0.2942-1.3142-0.11842-0.2446-0.25399-0.4462-0.41188-0.5883-0.1579-0.15-0.32048-0.2545-0.50994-0.3335-0.18158-0.079-0.39486-0.1332-0.60801-0.1568-0.21316-0.024-0.43001-0.039-0.66685-0.039h-3.0793zm9.9047 0-2.6674 8.7868h1.2356l0.7453-2.589h2.589l0.78453 2.589h1.2945l-2.8439-8.7868h-1.1376zm5.1583 0v8.7868h1.1376v-3.8638h0.76492c0.18947 0 0.34058 0.027 0.45111 0.059 0.11842 0.024 0.25805 0.086 0.39226 0.1962 0.08684 0.071 0.18749 0.2027 0.31381 0.3922 0.12631 0.1816 0.25016 0.3829 0.39226 0.6277 0.1421 0.2368 0.28938 0.5082 0.43149 0.7844 0.14999 0.2685 0.28556 0.5202 0.41188 0.765 0.1342 0.2368 0.2583 0.4381 0.35304 0.6276 0.09473 0.1895 0.15665 0.333 0.19613 0.4119h1.3925l-1.2749-2.5301c-0.14211-0.2763-0.29704-0.5398-0.47072-0.7846-0.16579-0.2526-0.375-0.4812-0.62762-0.6864 0.55262-0.15 0.98276-0.4291 1.2749-0.8238 0.29999-0.4026 0.4511-0.914 0.45111-1.5298-0.000006-0.4816-0.11645-0.9115-0.31381-1.3142-0.11842-0.2446-0.25399-0.4462-0.41188-0.5883-0.1579-0.15-0.32048-0.2545-0.50994-0.3335-0.18158-0.079-0.37525-0.1332-0.5884-0.1568-0.21316-0.024-0.44963-0.039-0.68646-0.039h-3.0793zm-13.906 1.0591h1.9809c0.4342 0 0.75961 0.1162 0.98066 0.3531 0.22104 0.2369 0.33342 0.5857 0.33342 1.0198-0.000005 0.4975-0.14347 0.8578-0.41188 1.0788-0.26053 0.2132-0.62849 0.3139-1.118 0.3139h-1.7652v-2.7656zm15.063 0h1.9809c0.4342 0 0.75961 0.1162 0.98066 0.3531s0.33342 0.5857 0.33342 1.0198c-0.000004 0.4975-0.12385 0.8578-0.39226 1.0788-0.26053 0.2132-0.64811 0.3139-1.1376 0.3139h-1.7652v-2.7656zm-5.7467 0.7257c0.1421 0.5606 0.30493 1.1224 0.47072 1.6672 0.17368 0.5447 0.33244 1.0832 0.49033 1.6279h-1.8829c0.16579-0.5447 0.34416-1.0911 0.50994-1.6279 0.16579-0.5448 0.29346-1.0987 0.41188-1.6672z"/>
     </g>
    </g>
   </g>
  </g>
 </g>
</svg>
