<?xml version="1.0" encoding="UTF-8" standalone="no"?>
<!-- Created with Inkscape (http://www.inkscape.org/) -->
<svg id="svg6307" xmlns:rdf="http://www.w3.org/1999/02/22-rdf-syntax-ns#" xmlns="http://www.w3.org/2000/svg" height="96" width="96" version="1.1" xmlns:cc="http://creativecommons.org/ns#" xmlns:xlink="http://www.w3.org/1999/xlink" xmlns:dc="http://purl.org/dc/elements/1.1/">
 <defs id="defs6309">
  <filter id="filter6279-2" color-interpolation-filters="sRGB">
   <feGaussianBlur id="feGaussianBlur6281-1" stdDeviation="0.8"/>
  </filter>
  <linearGradient id="linearGradient7128" x1="48" gradientUnits="userSpaceOnUse" y1="1052.4" gradientTransform="translate(0 -.0000078516)" x2="48" y2="902.36">
   <stop id="stop3702-48" style="stop-color:#e6e6e6" offset="0"/>
   <stop id="stop3704-1" style="stop-color:#f5f5f5" offset="1"/>
  </linearGradient>
  <linearGradient id="linearGradient7103" y2="138.66" gradientUnits="userSpaceOnUse" y1="20.221" x2="48" x1="48">
   <stop id="stop3739-2" style="stop-color:#fff" offset="0"/>
   <stop id="stop3741-1-9" style="stop-color:#fff;stop-opacity:0" offset="1"/>
  </linearGradient>
  <clipPath id="clipPath3613-87">
   <rect id="rect3615-282" style="fill:#fff" rx="6" ry="6" height="84" width="84" y="6" x="6"/>
  </clipPath>
  <filter id="filter3794-99" width="1.384" y="-.192" x="-.192" height="1.384" color-interpolation-filters="sRGB">
   <feGaussianBlur id="feGaussianBlur3796-60" stdDeviation="5.28"/>
  </filter>
  <radialGradient id="radialGradient7183" gradientUnits="userSpaceOnUse" cy="61.922" cx="59.894" gradientTransform="matrix(0 .21651 -.21783 0 61.725 991.49)" r="33.714">
   <stop id="stop3344" style="stop-opacity:0" offset="0"/>
   <stop id="stop3350" style="stop-opacity:0" offset=".85"/>
   <stop id="stop3346-5" offset="1"/>
  </radialGradient>
  <linearGradient id="linearGradient7180" x1="25.22" gradientUnits="userSpaceOnUse" y1="61.922" gradientTransform="matrix(0 .10098 -.12130 0 55.747 998.41)" x2="94.568" y2="61.922">
   <stop id="stop3364-93" style="stop-color:#4d4d4d" offset="0"/>
   <stop id="stop3366-5" style="stop-color:#fff" offset="1"/>
  </linearGradient>
  <linearGradient id="linearGradient7177" x1="73.016" gradientUnits="userSpaceOnUse" y1="89.131" gradientTransform="matrix(.81897 0 0 .98387 -.81528 943.53)" x2="73.016" y2="34.607">
   <stop id="stop3189-5" style="stop-color:#b8abbd" offset="0"/>
   <stop id="stop3191-7" style="stop-color:#dddbde" offset="1"/>
  </linearGradient>
  <linearGradient id="linearGradient7174" x1="5" gradientUnits="userSpaceOnUse" y1="64" gradientTransform="matrix(.39292 .22686 -.22685 .39294 37.608 964.95)" x2="123" y2="64">
   <stop id="stop3235-7" style="stop-color:#fff;stop-opacity:0" offset="0"/>
   <stop id="stop3297" style="stop-color:#fff;stop-opacity:0" offset=".15"/>
   <stop id="stop3241-0" style="stop-color:#fff" offset=".5"/>
   <stop id="stop3299-8" style="stop-color:#fff;stop-opacity:0" offset=".85"/>
   <stop id="stop3237-19" style="stop-color:#fff;stop-opacity:0" offset="1"/>
  </linearGradient>
  <clipPath id="clipPath3271">
   <rect id="rect3273" style="fill:#fff;fill-rule:evenodd" height="59" width="118" y="160" x="5"/>
  </clipPath>
  <linearGradient id="linearGradient7139" x1="5" gradientUnits="userSpaceOnUse" y1="64" gradientTransform="matrix(-.98504 .17149 -.17149 -.98504 138.02 271.07)" x2="123" y2="64">
   <stop id="stop3238-9" style="stop-color:#fff;stop-opacity:0" offset="0"/>
   <stop id="stop3240" style="stop-color:#fffc2b;stop-opacity:.23438" offset=".35"/>
   <stop id="stop3242" style="stop-color:#46d15d;stop-opacity:.21875" offset=".5"/>
   <stop id="stop3244-7" style="stop-color:#46d1aa;stop-opacity:0" offset=".65"/>
   <stop id="stop3246-8" style="stop-color:#fff;stop-opacity:0" offset="1"/>
  </linearGradient>
  <linearGradient id="linearGradient7141" x1="5" gradientUnits="userSpaceOnUse" y1="64" gradientTransform="matrix(-.853 .52164 -.52164 -.853 151.98 240.21)" x2="123" y2="64">
   <stop id="stop3267-5" style="stop-color:#fff;stop-opacity:0" offset="0"/>
   <stop id="stop3252-5" style="stop-color:#afcff3;stop-opacity:0" offset=".2"/>
   <stop id="stop3269-3" style="stop-color:#60a0e7;stop-opacity:.14844" offset=".35"/>
   <stop id="stop3271-4" style="stop-color:#db8ef1;stop-opacity:.21094" offset=".5"/>
   <stop id="stop3273-9" style="stop-color:#fff;stop-opacity:0" offset=".65"/>
   <stop id="stop3275-0-9" style="stop-color:#fff;stop-opacity:0" offset="1"/>
  </linearGradient>
  <linearGradient id="linearGradient7143" x1="5" gradientUnits="userSpaceOnUse" y1="64" gradientTransform="matrix(-.88145 -.47197 .47197 -.88145 90.207 305.62)" x2="123" y2="64">
   <stop id="stop3249" style="stop-color:#fff;stop-opacity:0" offset="0"/>
   <stop id="stop3293-2" style="stop-color:#d5d5d5;stop-opacity:0" offset=".3"/>
   <stop id="stop3251" style="stop-color:#eb8888;stop-opacity:.25781" offset=".5"/>
   <stop id="stop3295-0" style="stop-color:#e28f25;stop-opacity:0" offset=".7"/>
   <stop id="stop3253-1" style="stop-color:#fff;stop-opacity:0" offset="1"/>
  </linearGradient>
  <linearGradient id="linearGradient6288" x1="26.18" gradientUnits="userSpaceOnUse" x2="93.608" gradientTransform="matrix(0 .22904 -.27514 0 65.274 990.74)" y1="61.922" y2="61.922">
   <stop id="stop3332-0" style="stop-color:#fff;stop-opacity:.20312" offset="0"/>
   <stop id="stop3365" style="stop-color:#fff;stop-opacity:.67969" offset="1"/>
  </linearGradient>
 </defs>
 <metadata id="metadata6312">
  <rdf:RDF>
   <cc:Work rdf:about="">
    <dc:format>image/svg+xml</dc:format>
    <dc:type rdf:resource="http://purl.org/dc/dcmitype/StillImage"/>
    <dc:title/>
   </cc:Work>
  </rdf:RDF>
 </metadata>
 <g id="layer1" transform="translate(0 -956.36)">
  <g id="g7186">
   <rect id="rect9283" ry="5" style="filter:url(#filter6279-2)" rx="5" transform="translate(0 -.0000078516)" height="80" width="80" y="964.36" x="8"/>
   <rect id="rect9285" style="fill:url(#linearGradient7128)" rx="5" ry="5" height="80" width="80" y="964.36" x="8"/>
   <g id="layer4-2" transform="translate(0 956.36)">
    <rect id="rect3171" style="opacity:.5;filter:url(#filter3794-99);stroke:#fff;stroke-linecap:round;stroke-width:.5;fill:url(#linearGradient7103)" clip-path="url(#clipPath3613-87)" rx="12" ry="12" height="66" width="66" y="15" x="15"/>
   </g>
   <path id="path3307" style="opacity:.3;fill:#fff;fill-rule:evenodd" d="m48.236 992.09c-6.8238 0-12.363 5.5399-12.363 12.364 0 6.824 5.5397 12.364 12.363 12.364 6.8238 0 12.363-5.54 12.363-12.364s-5.5397-12.364-12.363-12.364zm0 8.7342c2.0036 0 3.6296 1.6261 3.6296 3.6298 0 2.0036-1.6261 3.6298-3.6296 3.6298-2.0036 0-3.6296-1.6262-3.6296-3.6298 0-2.0037 1.6261-3.6298 3.6296-3.6298z"/>
   <path id="path3328" style="opacity:.3;fill:url(#radialGradient7183);fill-rule:evenodd" d="m48.236 1011.5a7.0764 7.0767 0 1 1 0 -14.153 7.0764 7.0767 0 1 1 0 14.153z"/>
   <path id="path3352" style="opacity:.6;stroke:url(#linearGradient7180);stroke-linecap:round;stroke-width:.81122;fill:none" d="m48.236 1007.8a3.3004 3.3005 0 1 1 0 -6.601 3.3004 3.3005 0 0 1 0 6.601z"/>
   <path id="path3170" style="fill:url(#linearGradient7177);fill-rule:evenodd" d="m48.236 977.68c-14.776 0-26.769 11.993-26.769 26.77s11.992 26.77 26.769 26.77c14.776 0 26.769-11.993 26.769-26.77s-11.992-26.77-26.769-26.77zm0 17.241c5.2593 0 9.5278 4.2686 9.5278 9.5282 0 5.2595-4.2684 9.5282-9.5278 9.5282-5.2593 0-9.5278-4.2687-9.5278-9.5282 0-5.2596 4.2685-9.5282 9.5278-9.5282z"/>
   <path id="path3230" style="opacity:.8;fill:url(#linearGradient7174);fill-rule:evenodd" d="m61.621 981.43c-12.797-7.3884-29.178-2.9988-36.567 9.7984-7.3881 12.797-2.9986 29.18 9.798 36.568 12.797 7.3884 29.178 2.9987 36.567-9.7984 7.3881-12.797 2.9986-29.18-9.798-36.568zm-8.6204 14.932c4.5547 2.6298 6.1171 8.4608 3.4874 13.016-2.6297 4.5549-8.4605 6.1173-13.015 3.4875-4.5547-2.6297-6.1171-8.4608-3.4874-13.016 2.6297-4.5549 8.4605-6.1173 13.015-3.4876z"/>
   <path id="path3304" style="opacity:.15;stroke:#000;stroke-linecap:round;stroke-width:2.4337;fill:none" d="m60.194 1004.5a11.957 11.958 0 0 1 -23.914 0 11.957 11.958 0 1 1 23.914 0z"/>
   <g id="g3289" transform="matrix(.27868 -.35804 .35803 .27870 -48.008 966.33)">
    <g id="g3266" clip-path="url(#clipPath3271)">
     <path id="path3259" style="fill:url(#linearGradient7139);fill-rule:evenodd" d="m74.118 277.12c32.082-5.59 53.582-36.16 48.002-68.24-5.59-32.08-36.157-53.58-68.238-48-32.081 5.59-53.584 36.16-47.999 68.24s36.154 53.58 68.235 48zm-6.5167-37.432c-11.419 1.9879-22.299-5.6659-24.287-17.085-1.9879-11.419 5.6659-22.299 17.084-24.287 11.419-1.9879 22.299 5.6659 24.287 17.085 1.9879 11.419-5.6659 22.299-17.085 24.287z"/>
     <path id="path3231" style="fill:url(#linearGradient7141);fill-rule:evenodd" d="m94.777 269.33c27.783-16.99 36.543-53.33 19.553-81.11-16.992-27.78-53.326-36.54-81.107-19.55-27.78 16.99-36.539 53.33-19.55 81.11s53.323 36.54 81.104 19.55zm-19.823-32.42c-9.8879 6.0469-22.821 2.9295-28.867-6.9585-6.0469-9.8879-2.9295-22.821 6.9585-28.867 9.8879-6.0469 22.821-2.9295 28.867 6.9584 6.0469 9.8879 2.9295 22.821-6.9585 28.867z"/>
     <path id="path3243" style="fill:url(#linearGradient7143);fill-rule:evenodd" d="m36.154 271.01c28.707 15.371 64.481 4.5478 79.852-24.159s4.5478-64.481-24.159-79.852-64.481-4.5478-79.852 24.159-4.5478 64.481 24.159 79.852zm17.935-33.495c-10.218-5.4711-14.07-18.204-8.5991-28.422 5.4711-10.218 18.204-14.07 28.422-8.5991 10.218 5.4711 14.07 18.204 8.5991 28.422-5.4711 10.218-18.204 14.07-28.422 8.5991z"/>
    </g>
    <g id="g3275" clip-path="url(#clipPath3271)" transform="matrix(1 0 0 -1 0 438)">
     <path id="path3277" style="fill-rule:evenodd;fill:url(#linearGradient7139)" d="m74.118 277.12c32.082-5.59 53.582-36.16 48.002-68.24-5.59-32.08-36.157-53.58-68.238-48-32.081 5.59-53.584 36.16-47.999 68.24s36.154 53.58 68.235 48zm-6.5167-37.432c-11.419 1.9879-22.299-5.6659-24.287-17.085-1.9879-11.419 5.6659-22.299 17.084-24.287 11.419-1.9879 22.299 5.6659 24.287 17.085 1.9879 11.419-5.6659 22.299-17.085 24.287z"/>
     <path id="path3279" style="fill-rule:evenodd;fill:url(#linearGradient7141)" d="m94.777 269.33c27.783-16.99 36.543-53.33 19.553-81.11-16.992-27.78-53.326-36.54-81.107-19.55-27.78 16.99-36.539 53.33-19.55 81.11s53.323 36.54 81.104 19.55zm-19.823-32.42c-9.8879 6.0469-22.821 2.9295-28.867-6.9585-6.0469-9.8879-2.9295-22.821 6.9585-28.867 9.8879-6.0469 22.821-2.9295 28.867 6.9584 6.0469 9.8879 2.9295 22.821-6.9585 28.867z"/>
     <path id="path3281" style="fill-rule:evenodd;fill:url(#linearGradient7143)" d="m36.154 271.01c28.707 15.371 64.481 4.5478 79.852-24.159s4.5478-64.481-24.159-79.852-64.481-4.5478-79.852 24.159-4.5478 64.481 24.159 79.852zm17.935-33.495c-10.218-5.4711-14.07-18.204-8.5991-28.422 5.4711-10.218 18.204-14.07 28.422-8.5991 10.218 5.4711 14.07 18.204 8.5991 28.422-5.4711 10.218-18.204 14.07-28.422 8.5991z"/>
    </g>
   </g>
   <path id="path3942" style="opacity:.5;block-progression:tb;text-indent:0;color:#000000;text-transform:none;fill:url(#linearGradient6288)" d="m56.168 1004.5c0-4.3012-3.513-7.8591-7.9361-7.8591s-7.9275 3.5579-7.9275 7.8591c0 4.3011 3.5044 7.8519 7.9275 7.8519s7.9361-3.5508 7.9361-7.8519zm-0.8942 0c0 3.9682-3.196 7.1147-7.0419 7.1147s-7.0333-3.1465-7.0333-7.1147 3.1874-7.1219 7.0333-7.1219 7.0419 3.1537 7.0419 7.1219z"/>
  </g>
 </g>
</svg>
