<?xml version="1.0" encoding="UTF-8" standalone="no"?>
<!-- Created with Inkscape (http://www.inkscape.org/) -->
<svg id="svg6307" xmlns:rdf="http://www.w3.org/1999/02/22-rdf-syntax-ns#" xmlns="http://www.w3.org/2000/svg" height="96" width="96" version="1.1" xmlns:cc="http://creativecommons.org/ns#" xmlns:xlink="http://www.w3.org/1999/xlink" xmlns:dc="http://purl.org/dc/elements/1.1/">
 <defs id="defs6309">
  <filter id="filter6279" color-interpolation-filters="sRGB">
   <feGaussianBlur id="feGaussianBlur6281" stdDeviation="0.8"/>
  </filter>
  <linearGradient id="linearGradient23925" x1="48" gradientUnits="userSpaceOnUse" y1="1052.4" gradientTransform="translate(0 -.0000078516)" x2="48" y2="902.36">
   <stop id="stop3201-2" style="stop-color:#dcdcdc" offset="0"/>
   <stop id="stop3203-1" style="stop-color:#fafafa" offset="1"/>
  </linearGradient>
  <linearGradient id="linearGradient23928" x1="68.75" xlink:href="#linearGradient3354" gradientUnits="userSpaceOnUse" y1="59" gradientTransform="translate(-113.72 970.25)" x2="75.25" y2="59"/>
  <linearGradient id="linearGradient3354">
   <stop id="stop3356-9" style="stop-color:#b4b4b4" offset="0"/>
   <stop id="stop3362-7" style="stop-color:#646464" offset=".20467"/>
   <stop id="stop3364-5" style="stop-color:#fff" offset=".49568"/>
   <stop id="stop3358" style="stop-color:#3c3c3c" offset="1"/>
  </linearGradient>
  <clipPath id="clipPath3235">
   <path id="path3237" style="fill:#fff" d="m66 6v55c0 1.662 1.338 3 3 3h6c1.662 0 3-1.338 3-3v-55h-4v2h-4v-2h-4z"/>
  </clipPath>
  <filter id="filter3243" height="1.0732" width="1.3323" y="-.03661" x="-.16615" color-interpolation-filters="sRGB">
   <feGaussianBlur id="feGaussianBlur3245" stdDeviation="0.9"/>
  </filter>
  <filter id="filter3429" height="1.1907" width="1.3237" y="-.095354" x="-.16183" color-interpolation-filters="sRGB">
   <feGaussianBlur id="feGaussianBlur3431" stdDeviation="0.53551312"/>
  </filter>
  <linearGradient id="linearGradient23934" x1="68.029" xlink:href="#linearGradient3435" gradientUnits="userSpaceOnUse" y1="17.763" gradientTransform="translate(-113.72 969.25)" x2="75.971" y2="17.763"/>
  <linearGradient id="linearGradient3435">
   <stop id="stop3437-6" style="stop-color:#ededed" offset="0"/>
   <stop id="stop3439" style="stop-color:#b0b0b0" offset="1"/>
  </linearGradient>
  <linearGradient id="linearGradient23936" x1="68.969" xlink:href="#linearGradient3435" gradientUnits="userSpaceOnUse" y1="17.5" gradientTransform="matrix(-1 0 0 1 30.311 969.25)" x2="75.062" y2="17.5"/>
  <linearGradient id="linearGradient23938" x1="68.75" xlink:href="#linearGradient3354" gradientUnits="userSpaceOnUse" y1="59" gradientTransform="matrix(1.1263 0 0 1 -121.12 921.75)" x2="72.251" y2="59"/>
  <linearGradient id="linearGradient23883" y2="138.66" gradientUnits="userSpaceOnUse" y1="20.221" x2="48" x1="48">
   <stop id="stop3739-89" style="stop-color:#fff" offset="0"/>
   <stop id="stop3741-02" style="stop-color:#fff;stop-opacity:0" offset="1"/>
  </linearGradient>
  <clipPath id="clipPath3613-47">
   <rect id="rect3615-657" style="fill:#fff" rx="6" ry="6" height="84" width="84" y="6" x="6"/>
  </clipPath>
  <filter id="filter3794-13" height="1.384" width="1.384" y="-.192" x="-.192" color-interpolation-filters="sRGB">
   <feGaussianBlur id="feGaussianBlur3796-33" stdDeviation="5.28"/>
  </filter>
  <linearGradient id="linearGradient3392" x1="69" gradientUnits="userSpaceOnUse" y1="54" gradientTransform="translate(-113.72 970.25)" x2="73" y2="54">
   <stop id="stop3292-7" style="stop-color:#fff" offset="0"/>
   <stop id="stop3304-8" style="stop-color:#8c8c8c" offset=".48973"/>
   <stop id="stop3306-5" style="stop-color:#cfcfcf" offset=".50045"/>
   <stop id="stop3298-3" style="stop-color:#fff" offset=".62277"/>
   <stop id="stop3300-3" style="stop-color:#c8c8c8" offset=".81696"/>
   <stop id="stop3294-8" style="stop-color:#505050" offset="1"/>
  </linearGradient>
  <linearGradient id="linearGradient3394" x1="69" gradientUnits="userSpaceOnUse" y1="54" gradientTransform="matrix(-1 0 0 1 30.281 967.25)" x2="73" y2="54">
   <stop id="stop3606" style="stop-color:#2f2f2f" offset="0"/>
   <stop id="stop3608" style="stop-color:#fff" offset=".43731"/>
   <stop id="stop3610" style="stop-color:#979797" offset=".62138"/>
   <stop id="stop3612-2" style="stop-color:#505050" offset=".77232"/>
   <stop id="stop3614-2" style="stop-color:#e6e6e6" offset="1"/>
  </linearGradient>
 </defs>
 <metadata id="metadata6312">
  <rdf:RDF>
   <cc:Work rdf:about="">
    <dc:format>image/svg+xml</dc:format>
    <dc:type rdf:resource="http://purl.org/dc/dcmitype/StillImage"/>
    <dc:title/>
   </cc:Work>
  </rdf:RDF>
 </metadata>
 <g id="layer1" transform="translate(0 -956.36)">
  <g id="g23952">
   <rect id="rect9283" ry="5" style="filter:url(#filter6279)" rx="5" transform="translate(0 -.0000078516)" height="80" width="80" y="964.36" x="8"/>
   <rect id="rect9285" style="fill:url(#linearGradient23925)" rx="5" ry="5" height="80" width="80" y="964.36" x="8"/>
   <g id="g6873" transform="matrix(.91604 0 0 .91604 86.128 82.603)">
    <path id="rect3201" style="fill:#252525" d="m-47.719 977.25v55c0 1.662 1.338 3 3 3h6c1.662 0 3-1.338 3-3v-55h-4v2h-4v-2h-4z"/>
    <rect id="rect3247" style="fill:#4d4d4d" height="49" width="4" y="979.25" x="-43.719"/>
    <rect id="rect3211" style="stroke:#000;stroke-width:.5;stroke-linecap:square;stroke-opacity:.56364;fill:url(#linearGradient23928)" rx="1" ry="1" height="4" width="6" y="1027.3" x="-44.719"/>
    <path id="path3231" style="filter:url(#filter3243);stroke:#000;stroke-width:2;stroke-linecap:square;fill:none" clip-path="url(#clipPath3235)" transform="translate(-113.72 971.25)" d="m66 6v55c0 1.662 1.338 3 3 3h6c1.662 0 3-1.338 3-3v-55h-4v2h-4v-2h-4z"/>
    <path id="rect3249" style="stroke:#000;stroke-width:.5;stroke-linecap:square;stroke-opacity:.56364;fill:url(#linearGradient3392)" d="m-44.219 1022.3c-0.27 0-0.5 0.218-0.5 0.5v3c0 0.282 0.23023 0.5 0.5 0.5h1c0.26977 0 0.5-0.218 0.5-0.5v-0.5h1.5c0.277 0 0.5-0.223 0.5-0.5v-1c0-0.277-0.223-0.5-0.5-0.5h-1.5v-0.5c0-0.282-0.23-0.5-0.5-0.5h-1z"/>
    <use id="use3308" xlink:href="#rect3249" transform="translate(0,-6)" height="96" width="96" y="0" x="0"/>
    <use id="use3310" xlink:href="#use3308" transform="translate(0,-6)" height="96" width="96" y="0" x="0"/>
    <use id="use3312" xlink:href="#use3310" transform="translate(0,-6)" height="96" width="96" y="0" x="0"/>
    <use id="use3314" xlink:href="#use3312" transform="translate(0,-6)" height="96" width="96" y="0" x="0"/>
    <use id="use3316" xlink:href="#use3314" transform="translate(0,-6)" height="96" width="96" y="0" x="0"/>
    <use id="use3318" xlink:href="#use3316" transform="translate(0,-6)" height="96" width="96" y="0" x="0"/>
    <use id="use3320" xlink:href="#use3318" transform="translate(0,-6)" height="96" width="96" y="0" x="0"/>
    <path id="path3322" style="stroke:#000;stroke-width:.5;stroke-linecap:square;stroke-opacity:.56364;fill:url(#linearGradient3394)" d="m-39.219 1019.3c0.26977 0 0.5 0.2179 0.5 0.5v3c0 0.282-0.23023 0.5-0.5 0.5h-1c-0.27 0-0.5-0.218-0.5-0.5v-0.5h-1.5c-0.277 0-0.5-0.223-0.5-0.5v-1c0-0.277 0.223-0.5 0.5-0.5h1.5v-0.5c0-0.282 0.23-0.5 0.5-0.5h1z"/>
    <use id="use3340" xlink:href="#path3322" transform="translate(0,-6)" height="96" width="96" y="0" x="0"/>
    <use id="use3342" xlink:href="#use3340" transform="translate(0,-6)" height="96" width="96" y="0" x="0"/>
    <use id="use3344" xlink:href="#use3342" transform="translate(0,-6)" height="96" width="96" y="0" x="0"/>
    <use id="use3346" xlink:href="#use3344" transform="translate(0,-6)" height="96" width="96" y="0" x="0"/>
    <use id="use3348" xlink:href="#use3346" transform="translate(0,-6)" height="96" width="96" y="0" x="0"/>
    <use id="use3350" xlink:href="#use3348" transform="translate(0,-6)" height="96" width="96" y="0" x="0"/>
    <path id="path3433" style="filter:url(#filter3429);stroke:#000;stroke-width:.5;stroke-linecap:square;stroke-opacity:.56364" d="m-44.219 979.78c-1.0277 0-1.9688 0.7652-1.9688 1.8125v10.812c0 1.048 0.918 1.844 1.969 1.844h5c1.0507 0 1.9688-0.79645 1.9688-1.8438v-10.812c-0.000003-1.0473-0.94105-1.8125-1.9688-1.8125h-5zm1.0625 9.0625h2.875v1.75h-2.875v-1.75z"/>
    <path id="rect3403" style="fill:url(#linearGradient23934)" d="m-44.49 980.28c-0.687 0-1.229 0.4824-1.229 1.0816l-0.005 10.815c0 0.6 0.542 1.082 1.229 1.082h5.5832c0.68714 0 1.2292-0.48237 1.2292-1.0815l0.0051-10.815c0-0.59918-0.54211-1.0815-1.2292-1.0815h-5.5832zm0.7043 7.9496h4.1013v3.1184h-4.1013v-3.1184z"/>
    <path id="rect3470" style="fill:url(#linearGradient23936)" d="m-39.157 981.22c0.277 0 0.5 0.223 0.5 0.5v10.062c0 0.277-0.223 0.5-0.5 0.5h-5.0938c-0.277 0-0.5-0.223-0.5-0.5v-10.062c0-0.277 0.223-0.5 0.5-0.5h5.0938zm-0.4375 6.9688h-4.125v3.125h4.125v-3.125z"/>
    <rect id="rect3399" style="stroke:#000;stroke-linecap:square;stroke-opacity:.56364;fill:url(#linearGradient23938)" rx=".56313" ry=".5" height="5" width="3.3788" y="978.75" x="-43.408"/>
    <rect id="rect3518" style="opacity:.3" height="1" width="4" y="987.25" x="-43.734"/>
   </g>
   <rect id="rect3171" style="opacity:.1;filter:url(#filter3794-13);stroke:#fff;stroke-linecap:round;stroke-width:.5;fill:url(#linearGradient23883)" clip-path="url(#clipPath3613-47)" rx="12" ry="12" transform="translate(0 956.36)" width="66" y="15" x="15" height="66"/>
   <g id="g2681" transform="matrix(.063887 0 0 .063887 34.812 1016.1)">
    <path id="path2627" style="fill:#0074bd;fill-rule:evenodd" d="m-116.66 144.31s-17.265 10.049 12.301 13.44c35.824 4.09 54.13 3.501 93.596-3.959 0 0 10.397 6.504 24.892 12.137-88.501 37.917-200.3-2.197-130.79-21.618z"/>
    <path id="path2629" style="fill:#0074bd;fill-rule:evenodd" d="m-127.48 94.82s-19.367 14.339 10.221 17.397c38.271 3.951 68.483 4.275 120.79-5.792 0 0 7.218 7.332 18.585 11.339-106.99 31.294-226.15 2.462-149.6-22.944z"/>
    <path id="path2631" style="fill:#ea2d2e;fill-rule:evenodd" d="m-36.315 10.861c21.818 25.115-5.721 47.697-5.721 47.697s55.367-28.577 29.945-64.38c-23.752-33.373-41.962-49.951 56.623-107.12 0.001 0-154.75 38.641-80.847 123.81z"/>
    <path id="path2633" style="fill:#0074bd;fill-rule:evenodd" d="m80.733 180.92s12.781 10.536-14.077 18.684c-51.071 15.469-212.6 20.135-257.47 0.619-16.117-7.02 14.121-16.75 23.635-18.805 9.92-2.146 15.584-1.754 15.584-1.754-17.937-12.631-115.94 24.807-49.772 35.544 180.43 29.246 328.9-13.173 282.1-34.288z"/>
    <path id="path2635" style="fill:#0074bd;fill-rule:evenodd" d="m-108.35 43.538s-82.155 19.519-29.092 26.613c22.412 2.999 67.063 2.309 108.68-1.183 34.006-2.854 68.133-8.958 68.133-8.958s-11.982 5.14-20.657 11.06c-83.444 21.947-244.61 11.726-198.21-10.712 39.227-18.977 71.138-16.82 71.138-16.82z"/>
    <path id="path2637" style="fill:#0074bd;fill-rule:evenodd" d="m39.037 125.91c84.818-44.063 45.597-86.412 18.223-80.708-6.694 1.397-9.697 2.607-9.697 2.607s2.494-3.907 7.243-5.588c54.155-19.03 95.794 56.146-17.464 85.919-0.001 0 1.302-1.18 1.695-2.23z"/>
    <path id="path2639" style="fill:#ea2d2e;fill-rule:evenodd" d="m-12.09-205.28s46.963 46.99-44.557 119.23c-73.393 57.969-16.734 91.009-0.026 128.78-42.845-38.653-74.271-72.684-53.192-104.35 30.954-46.479 116.72-69.021 97.775-143.65z"/>
    <path id="path2641" style="fill:#0074bd;fill-rule:evenodd" d="m-100.01 245.35c81.397 5.204 206.43-2.896 209.38-41.415 0 0-5.688 14.602-67.276 26.188-69.481 13.081-155.2 11.558-206.02 3.167 0 0 10.411 8.617 63.907 12.06z"/>
   </g>
  </g>
 </g>
</svg>
