<?xml version="1.0" encoding="UTF-8" standalone="no"?>
<!-- Created with Inkscape (http://www.inkscape.org/) -->
<svg id="svg6307" xmlns:rdf="http://www.w3.org/1999/02/22-rdf-syntax-ns#" xmlns="http://www.w3.org/2000/svg" height="96" width="96" version="1.1" xmlns:cc="http://creativecommons.org/ns#" xmlns:xlink="http://www.w3.org/1999/xlink" xmlns:dc="http://purl.org/dc/elements/1.1/">
 <defs id="defs6309">
  <filter id="filter6279" color-interpolation-filters="sRGB">
   <feGaussianBlur id="feGaussianBlur6281" stdDeviation="0.8"/>
  </filter>
  <linearGradient id="linearGradient9768" x1="48" gradientUnits="userSpaceOnUse" y1="1052.4" gradientTransform="translate(0 -.0000078516)" x2="48" y2="902.36">
   <stop id="stop3201-8" style="stop-color:#3771c8" offset="0"/>
   <stop id="stop3203-0" style="stop-color:#afc6e9" offset="1"/>
  </linearGradient>
  <linearGradient id="linearGradient23326" x1="68.75" xlink:href="#linearGradient3354" gradientUnits="userSpaceOnUse" y1="59" gradientTransform="translate(-113.72 970.25)" x2="75.25" y2="59"/>
  <linearGradient id="linearGradient3354">
   <stop id="stop3356-9" style="stop-color:#b4b4b4" offset="0"/>
   <stop id="stop3362-7" style="stop-color:#646464" offset=".20467"/>
   <stop id="stop3364-5" style="stop-color:#fff" offset=".49568"/>
   <stop id="stop3358" style="stop-color:#3c3c3c" offset="1"/>
  </linearGradient>
  <clipPath id="clipPath3235">
   <path id="path3237" style="fill:#fff" d="m66 6v55c0 1.662 1.338 3 3 3h6c1.662 0 3-1.338 3-3v-55h-4v2h-4v-2h-4z"/>
  </clipPath>
  <filter id="filter3243" height="1.0732" width="1.3323" y="-.03661" x="-.16615" color-interpolation-filters="sRGB">
   <feGaussianBlur id="feGaussianBlur3245" stdDeviation="0.9"/>
  </filter>
  <filter id="filter3429" height="1.1907" width="1.3237" y="-.095354" x="-.16183" color-interpolation-filters="sRGB">
   <feGaussianBlur id="feGaussianBlur3431" stdDeviation="0.53551312"/>
  </filter>
  <linearGradient id="linearGradient23332" x1="68.029" xlink:href="#linearGradient3435" gradientUnits="userSpaceOnUse" y1="17.763" gradientTransform="translate(-113.72 969.25)" x2="75.971" y2="17.763"/>
  <linearGradient id="linearGradient3435">
   <stop id="stop3437-6" style="stop-color:#ededed" offset="0"/>
   <stop id="stop3439" style="stop-color:#b0b0b0" offset="1"/>
  </linearGradient>
  <linearGradient id="linearGradient23334" x1="68.969" xlink:href="#linearGradient3435" gradientUnits="userSpaceOnUse" y1="17.5" gradientTransform="matrix(-1 0 0 1 30.311 969.25)" x2="75.062" y2="17.5"/>
  <linearGradient id="linearGradient23336" x1="68.75" xlink:href="#linearGradient3354" gradientUnits="userSpaceOnUse" y1="59" gradientTransform="matrix(1.1263 0 0 1 -121.12 921.75)" x2="72.251" y2="59"/>
  <linearGradient id="linearGradient9726" y2="138.66" gradientUnits="userSpaceOnUse" y1="20.221" x2="48" x1="48">
   <stop id="stop3739-89" style="stop-color:#fff" offset="0"/>
   <stop id="stop3741-02" style="stop-color:#fff;stop-opacity:0" offset="1"/>
  </linearGradient>
  <clipPath id="clipPath3613-47">
   <rect id="rect3615-657" style="fill:#fff" rx="6" ry="6" height="84" width="84" y="6" x="6"/>
  </clipPath>
  <filter id="filter3794-13" height="1.384" width="1.384" y="-.192" x="-.192" color-interpolation-filters="sRGB">
   <feGaussianBlur id="feGaussianBlur3796-33" stdDeviation="5.28"/>
  </filter>
  <linearGradient id="linearGradient3378" x1="69" gradientUnits="userSpaceOnUse" y1="54" gradientTransform="translate(-113.72 970.25)" x2="73" y2="54">
   <stop id="stop3292-7" style="stop-color:#fff" offset="0"/>
   <stop id="stop3304-8" style="stop-color:#8c8c8c" offset=".48973"/>
   <stop id="stop3306-5" style="stop-color:#cfcfcf" offset=".50045"/>
   <stop id="stop3298-3" style="stop-color:#fff" offset=".62277"/>
   <stop id="stop3300-3" style="stop-color:#c8c8c8" offset=".81696"/>
   <stop id="stop3294-8" style="stop-color:#505050" offset="1"/>
  </linearGradient>
  <linearGradient id="linearGradient3380" x1="69" gradientUnits="userSpaceOnUse" y1="54" gradientTransform="matrix(-1 0 0 1 30.281 967.25)" x2="73" y2="54">
   <stop id="stop3606" style="stop-color:#2f2f2f" offset="0"/>
   <stop id="stop3608" style="stop-color:#fff" offset=".43731"/>
   <stop id="stop3610" style="stop-color:#979797" offset=".62138"/>
   <stop id="stop3612-2" style="stop-color:#505050" offset=".77232"/>
   <stop id="stop3614-2" style="stop-color:#e6e6e6" offset="1"/>
  </linearGradient>
 </defs>
 <metadata id="metadata6312">
  <rdf:RDF>
   <cc:Work rdf:about="">
    <dc:format>image/svg+xml</dc:format>
    <dc:type rdf:resource="http://purl.org/dc/dcmitype/StillImage"/>
    <dc:title/>
   </cc:Work>
  </rdf:RDF>
 </metadata>
 <g id="layer1" transform="translate(0 -956.36)">
  <g id="g23350">
   <g id="g5898">
    <rect id="rect9283" style="filter:url(#filter6279)" transform="translate(0 -.0000078516)" rx="5" ry="5" height="80" width="80" y="964.36" x="8"/>
    <rect id="rect9285" style="fill:url(#linearGradient9768)" rx="5" ry="5" height="80" width="80" y="964.36" x="8"/>
    <g id="g6873" transform="matrix(.91604 0 0 .91604 86.128 82.603)">
     <path id="rect3201" style="fill:#252525" d="m-47.719 977.25v55c0 1.662 1.338 3 3 3h6c1.662 0 3-1.338 3-3v-55h-4v2h-4v-2h-4z"/>
     <rect id="rect3247" style="fill:#4d4d4d" height="49" width="4" y="979.25" x="-43.719"/>
     <rect id="rect3211" style="stroke:#000;stroke-width:.5;stroke-linecap:square;stroke-opacity:.56364;fill:url(#linearGradient23326)" rx="1" ry="1" height="4" width="6" y="1027.3" x="-44.719"/>
     <path id="path3231" style="filter:url(#filter3243);stroke:#000;stroke-width:2;stroke-linecap:square;fill:none" clip-path="url(#clipPath3235)" transform="translate(-113.72 971.25)" d="m66 6v55c0 1.662 1.338 3 3 3h6c1.662 0 3-1.338 3-3v-55h-4v2h-4v-2h-4z"/>
     <path id="rect3249" style="stroke:#000;stroke-width:.5;stroke-linecap:square;stroke-opacity:.56364;fill:url(#linearGradient3378)" d="m-44.219 1022.3c-0.27 0-0.5 0.218-0.5 0.5v3c0 0.282 0.23023 0.5 0.5 0.5h1c0.26977 0 0.5-0.218 0.5-0.5v-0.5h1.5c0.277 0 0.5-0.223 0.5-0.5v-1c0-0.277-0.223-0.5-0.5-0.5h-1.5v-0.5c0-0.282-0.23-0.5-0.5-0.5h-1z"/>
     <use id="use3308" xlink:href="#rect3249" transform="translate(0,-6)" height="96" width="96" y="0" x="0"/>
     <use id="use3310" xlink:href="#use3308" transform="translate(0,-6)" height="96" width="96" y="0" x="0"/>
     <use id="use3312" xlink:href="#use3310" transform="translate(0,-6)" height="96" width="96" y="0" x="0"/>
     <use id="use3314" xlink:href="#use3312" transform="translate(0,-6)" height="96" width="96" y="0" x="0"/>
     <use id="use3316" xlink:href="#use3314" transform="translate(0,-6)" height="96" width="96" y="0" x="0"/>
     <use id="use3318" xlink:href="#use3316" transform="translate(0,-6)" height="96" width="96" y="0" x="0"/>
     <use id="use3320" xlink:href="#use3318" transform="translate(0,-6)" height="96" width="96" y="0" x="0"/>
     <path id="path3322" style="stroke:#000;stroke-width:.5;stroke-linecap:square;stroke-opacity:.56364;fill:url(#linearGradient3380)" d="m-39.219 1019.3c0.26977 0 0.5 0.2179 0.5 0.5v3c0 0.282-0.23023 0.5-0.5 0.5h-1c-0.27 0-0.5-0.218-0.5-0.5v-0.5h-1.5c-0.277 0-0.5-0.223-0.5-0.5v-1c0-0.277 0.223-0.5 0.5-0.5h1.5v-0.5c0-0.282 0.23-0.5 0.5-0.5h1z"/>
     <use id="use3340" xlink:href="#path3322" transform="translate(0,-6)" height="96" width="96" y="0" x="0"/>
     <use id="use3342" xlink:href="#use3340" transform="translate(0,-6)" height="96" width="96" y="0" x="0"/>
     <use id="use3344" xlink:href="#use3342" transform="translate(0,-6)" height="96" width="96" y="0" x="0"/>
     <use id="use3346" xlink:href="#use3344" transform="translate(0,-6)" height="96" width="96" y="0" x="0"/>
     <use id="use3348" xlink:href="#use3346" transform="translate(0,-6)" height="96" width="96" y="0" x="0"/>
     <use id="use3350" xlink:href="#use3348" transform="translate(0,-6)" height="96" width="96" y="0" x="0"/>
     <path id="path3433" style="filter:url(#filter3429);stroke:#000;stroke-width:.5;stroke-linecap:square;stroke-opacity:.56364" d="m-44.219 979.78c-1.0277 0-1.9688 0.7652-1.9688 1.8125v10.812c0 1.048 0.918 1.844 1.969 1.844h5c1.0507 0 1.9688-0.79645 1.9688-1.8438v-10.812c-0.000003-1.0473-0.94105-1.8125-1.9688-1.8125h-5zm1.0625 9.0625h2.875v1.75h-2.875v-1.75z"/>
     <path id="rect3403" style="fill:url(#linearGradient23332)" d="m-44.49 980.28c-0.687 0-1.229 0.4824-1.229 1.0816l-0.005 10.815c0 0.6 0.542 1.082 1.229 1.082h5.5832c0.68714 0 1.2292-0.48237 1.2292-1.0815l0.0051-10.815c0-0.59918-0.54211-1.0815-1.2292-1.0815h-5.5832zm0.7043 7.9496h4.1013v3.1184h-4.1013v-3.1184z"/>
     <path id="rect3470" style="fill:url(#linearGradient23334)" d="m-39.157 981.22c0.277 0 0.5 0.223 0.5 0.5v10.062c0 0.277-0.223 0.5-0.5 0.5h-5.0938c-0.277 0-0.5-0.223-0.5-0.5v-10.062c0-0.277 0.223-0.5 0.5-0.5h5.0938zm-0.4375 6.9688h-4.125v3.125h4.125v-3.125z"/>
     <rect id="rect3399" style="stroke:#000;stroke-linecap:square;stroke-opacity:.56364;fill:url(#linearGradient23336)" rx=".56313" ry=".5" height="5" width="3.3788" y="978.75" x="-43.408"/>
     <rect id="rect3518" style="opacity:.3" height="1" width="4" y="987.25" x="-43.734"/>
    </g>
    <rect id="rect3171" style="opacity:.1;filter:url(#filter3794-13);stroke:#fff;stroke-linecap:round;stroke-width:.5;fill:url(#linearGradient9726)" clip-path="url(#clipPath3613-47)" rx="12" ry="12" transform="translate(0 956.36)" width="66" y="15" x="15" height="66"/>
   </g>
   <path id="path3348" style="fill:#1e3d6d" d="m31.59 1022c-0.44614 0-0.83647 0.075-1.1882 0.2201-0.34318 0.1373-0.65821 0.3233-0.92417 0.5721-0.25739 0.2488-0.47996 0.532-0.66012 0.8582-0.18017 0.3175-0.32855 0.6739-0.44008 1.0342-0.11153 0.3604-0.19057 0.7227-0.24204 1.1002-0.04291 0.3776-0.06602 0.7351-0.06602 1.0781-0.000002 0.3605 0.02312 0.7498 0.06602 1.1444 0.04291 0.3861 0.11709 0.7533 0.22004 1.1222 0.11153 0.3689 0.26849 0.7215 0.44008 1.0561 0.18017 0.3261 0.38073 0.6095 0.63812 0.8582 0.26596 0.2488 0.58584 0.4483 0.94618 0.594 0.36034 0.146 0.76894 0.2202 1.2322 0.2202 0.48045 0 0.90247-0.084 1.2542-0.264 0.36034-0.1802 0.66678-0.4259 0.92417-0.7262 0.25738-0.3088 0.46168-0.6616 0.61612-1.0562 0.163-0.3946 0.30169-0.8167 0.39607-1.2542l-1.2102-0.3741c-0.06007 0.3431-0.13052 0.6679-0.24205 0.9682-0.10296 0.3003-0.23307 0.5471-0.39607 0.7701-0.16302 0.2231-0.36247 0.3995-0.59411 0.5281-0.22307 0.1288-0.5053 0.198-0.81415 0.198-0.4633 0-0.83051-0.1117-1.1222-0.3521-0.28313-0.2487-0.51912-0.5686-0.68213-0.9461-0.16301-0.3774-0.27001-0.7946-0.33006-1.2322-0.06005-0.4461-0.08802-0.873-0.08801-1.2763-0.000001-0.4031 0.02797-0.8032 0.08801-1.2322 0.06863-0.429 0.18905-0.8144 0.35207-1.1663 0.17159-0.3602 0.41242-0.6704 0.70413-0.9021 0.2917-0.2317 0.66749-0.3521 1.1222-0.3521 0.26596 0 0.49337 0.06 0.68213 0.154 0.19732 0.086 0.36024 0.2026 0.5061 0.3742 0.14585 0.163 0.25769 0.3625 0.35207 0.5941 0.10295 0.2317 0.20883 0.5004 0.28605 0.792l1.2102-0.3299c-0.10296-0.4119-0.2465-0.7877-0.41808-1.1223-0.1716-0.3432-0.38074-0.64-0.63812-0.8802-0.24881-0.2488-0.55415-0.4434-0.88016-0.5721-0.32602-0.1373-0.6884-0.1981-1.1002-0.1981zm-8.1855 0.1541-2.9045 9.5498h1.3423l0.79215-2.8165h2.8165l0.85816 2.8165h1.4083l-3.1026-9.5498h-1.2102zm12.696 0v9.5498h5.6991v-1.2102h-4.4668v-3.1246h3.7187v-1.2102h-3.7187v-2.7945h4.2908v-1.2103h-5.523zm-12.08 1.9364c0.15443 0.6092 0.30392 1.2123 0.48409 1.8043 0.18874 0.5921 0.37851 1.1906 0.5501 1.7825h-2.0464c0.18017-0.5919 0.36993-1.177 0.5501-1.7605 0.18017-0.592 0.33339-1.2084 0.46209-1.8263z"/>
  </g>
 </g>
</svg>
