<?xml version="1.0" encoding="UTF-8" standalone="no"?>
<!-- Created with Inkscape (http://www.inkscape.org/) -->
<svg id="svg6307" xmlns:rdf="http://www.w3.org/1999/02/22-rdf-syntax-ns#" xmlns="http://www.w3.org/2000/svg" height="96" width="96" version="1.1" xmlns:cc="http://creativecommons.org/ns#" xmlns:xlink="http://www.w3.org/1999/xlink" xmlns:dc="http://purl.org/dc/elements/1.1/">
 <defs id="defs6309">
  <filter id="filter6279-2" color-interpolation-filters="sRGB">
   <feGaussianBlur id="feGaussianBlur6281-1" stdDeviation="0.8"/>
  </filter>
  <linearGradient id="linearGradient9181" x1="48" gradientUnits="userSpaceOnUse" y1="1052.4" gradientTransform="translate(0 -.0000078516)" x2="48" y2="902.36">
   <stop id="stop3702-5" style="stop-color:#e6e6e6" offset="0"/>
   <stop id="stop3704-4" style="stop-color:#f5f5f5" offset="1"/>
  </linearGradient>
  <linearGradient id="linearGradient3117" y2="138.66" gradientUnits="userSpaceOnUse" x2="48" y1="20.221" x1="48">
   <stop id="stop3739-2" style="stop-color:#fff" offset="0"/>
   <stop id="stop3741-1-7" style="stop-color:#fff;stop-opacity:0" offset="1"/>
  </linearGradient>
  <clipPath id="clipPath3613-43">
   <rect id="rect3615-14" style="fill:#fff" rx="6" ry="6" height="84" width="84" y="6" x="6"/>
  </clipPath>
  <filter id="filter3794-69" width="1.384" y="-.192" x="-.192" height="1.384" color-interpolation-filters="sRGB">
   <feGaussianBlur id="feGaussianBlur3796-42" stdDeviation="5.28"/>
  </filter>
 </defs>
 <metadata id="metadata6312">
  <rdf:RDF>
   <cc:Work rdf:about="">
    <dc:format>image/svg+xml</dc:format>
    <dc:type rdf:resource="http://purl.org/dc/dcmitype/StillImage"/>
    <dc:title/>
   </cc:Work>
  </rdf:RDF>
 </metadata>
 <g id="layer1" transform="translate(0 -956.36)">
  <g id="g6862">
   <rect id="rect9283" ry="5" style="filter:url(#filter6279-2)" rx="5" transform="translate(0 -.0000078516)" height="80" width="80" y="964.36" x="8"/>
   <rect id="rect9285" style="fill:url(#linearGradient9181)" rx="5" ry="5" height="80" width="80" y="964.36" x="8"/>
   <g id="layer3" transform="translate(0 956.36)">
    <rect id="rect3171" style="opacity:.5;filter:url(#filter3794-69);stroke:#fff;stroke-linecap:round;stroke-width:.5;fill:url(#linearGradient3117)" clip-path="url(#clipPath3613-43)" rx="12" ry="12" height="66" width="66" y="15" x="15"/>
   </g>
   <g id="g3078" transform="matrix(.74324 0 0 .74324 8.6081 970.4)">
    <path id="path3764" style="opacity:.5;color:#000000;fill:#4ca31c" d="m48 16c-17.673 0-32 14.327-32 32s14.327 32 32 32h42v-6h-42c-14.359 0-26-11.641-26-26s11.641-26 26-26v-6z"/>
    <path id="path3760" style="opacity:.75;color:#000000;fill:#4ca31c" d="m48 24c-13.255 0-24 10.745-24 24s10.745 24 24 24h42v-6h-42c-9.9411 0-18-8.0589-18-18s8.0589-18 18-18c2.4155 0 4.7079 0.48077 6.8125 1.3438l2.2812-5.5625c-2.887-1.184-5.972-1.782-9.093-1.782z"/>
    <path id="path3756" style="color:#000000;fill:#4ca31c" d="m48 32c-8.8366 0-16 7.1634-16 16s7.1634 16 16 16h42v-6h-42c-5.5228 0-10-4.4772-10-10s4.4772-10 10-10c2.7614 0 5.2529 1.1279 7.0625 2.9375l4.25-4.25c-3-3.001-7.069-4.688-11.312-4.688z"/>
   </g>
  </g>
 </g>
</svg>
