<?xml version="1.0" encoding="UTF-8" standalone="no"?>
<!-- Created with Inkscape (http://www.inkscape.org/) -->
<svg id="svg6307" xmlns:rdf="http://www.w3.org/1999/02/22-rdf-syntax-ns#" xmlns="http://www.w3.org/2000/svg" height="96" width="96" version="1.1" xmlns:cc="http://creativecommons.org/ns#" xmlns:xlink="http://www.w3.org/1999/xlink" xmlns:dc="http://purl.org/dc/elements/1.1/">
 <defs id="defs6309">
  <filter id="filter6279-2" color-interpolation-filters="sRGB">
   <feGaussianBlur id="feGaussianBlur6281-1" stdDeviation="0.8"/>
  </filter>
  <linearGradient id="linearGradient9181" x1="48" gradientUnits="userSpaceOnUse" y1="1052.4" gradientTransform="translate(0 -.0000078516)" x2="48" y2="902.36">
   <stop id="stop3702-14" style="stop-color:#e6e6e6" offset="0"/>
   <stop id="stop3704-9" style="stop-color:#f5f5f5" offset="1"/>
  </linearGradient>
  <linearGradient id="linearGradient3183" y2="138.66" gradientUnits="userSpaceOnUse" x2="48" y1="20.221" x1="48">
   <stop id="stop3739-2" style="stop-color:#fff" offset="0"/>
   <stop id="stop3741-1-0" style="stop-color:#fff;stop-opacity:0" offset="1"/>
  </linearGradient>
  <clipPath id="clipPath3613-66">
   <rect id="rect3615-46" style="fill:#fff" rx="6" ry="6" height="84" width="84" y="6" x="6"/>
  </clipPath>
  <filter id="filter3794-28" width="1.384" y="-.192" x="-.192" height="1.384" color-interpolation-filters="sRGB">
   <feGaussianBlur id="feGaussianBlur3796-96" stdDeviation="5.28"/>
  </filter>
  <linearGradient id="linearGradient3100-1" x1="56.634" gradientUnits="userSpaceOnUse" x2="56.634" gradientTransform="matrix(.65326 0 0 .65326 16.58 973.07)" y1="89.164" y2="6.3984">
   <stop id="stop3176" style="stop-color:#c30000" offset="0"/>
   <stop id="stop3178" style="stop-color:#f12300" offset="1"/>
  </linearGradient>
 </defs>
 <metadata id="metadata6312">
  <rdf:RDF>
   <cc:Work rdf:about="">
    <dc:format>image/svg+xml</dc:format>
    <dc:type rdf:resource="http://purl.org/dc/dcmitype/StillImage"/>
    <dc:title/>
   </cc:Work>
  </rdf:RDF>
 </metadata>
 <g id="layer1" transform="translate(0 -956.36)">
  <g id="g6881">
   <rect id="rect9283" ry="5" style="filter:url(#filter6279-2)" rx="5" transform="translate(0 -.0000078516)" height="80" width="80" y="964.36" x="8"/>
   <rect id="rect9285" style="fill:url(#linearGradient9181)" rx="5" ry="5" height="80" width="80" y="964.36" x="8"/>
   <g id="layer5" transform="translate(0 956.36)">
    <rect id="rect3171" style="opacity:.5;filter:url(#filter3794-28);stroke:#fff;stroke-linecap:round;stroke-width:.5;fill:url(#linearGradient3183)" clip-path="url(#clipPath3613-66)" rx="12" ry="12" height="66" width="66" y="15" x="15"/>
   </g>
   <path id="path4144" style="fill:url(#linearGradient3100-1);fill-rule:evenodd" d="m54.968 976.99c-2.5792 5.6781-4.5336 11.519-5.8303 17.405-0.67308 0.53562-1.357 1.0361-2.0578 1.5433-7.9948 5.7871-17.585 9.5682-26.579 9.3458v4.287c7.959 0.7513 13.254 2.0983 16.858 6.8918 3.5649 4.7412 5.5609 9.4291 5.5609 15.401h2.7437c0-5.9537-2.5833-13.026-6.0753-17.03-3.451-3.9565-7.8093-5.7891-13.686-7.1492 7.8585-1.052 15.661-4.5461 22.378-9.3456-1.9372 11.25-1.6214 22.673 0.77166 33.524h18.949c-9.4682-8.5845-13.564-23.973-13.547-38.497 5.339-4.97 9.488-10.668 11.661-16.376h-2.9152c-1.8064 4.1812-4.8341 8.4718-8.6597 12.432 0.23294-4.376 0.93105-8.5648 1.8863-12.432h-1.4576z"/>
   <path id="rect3362" style="opacity:.5;fill:#999" d="m20.5 976.96v17.938l8.0938-17.938h-8.0938zm9.9062 0 8.0938 17.938v-17.938h-8.0938zm-0.90625 7.0312-3.0312 7h2.9286l1.7188 3.9688h3.2277l-2.375-5.2812-0.0625-0.125-2.4062-5.5625z"/>
  </g>
 </g>
</svg>
