<?xml version="1.0" encoding="UTF-8" standalone="no"?>
<!-- Created with Inkscape (http://www.inkscape.org/) -->
<svg id="svg6307" xmlns:rdf="http://www.w3.org/1999/02/22-rdf-syntax-ns#" xmlns="http://www.w3.org/2000/svg" height="96" width="96" version="1.1" xmlns:cc="http://creativecommons.org/ns#" xmlns:xlink="http://www.w3.org/1999/xlink" xmlns:dc="http://purl.org/dc/elements/1.1/">
 <defs id="defs6309">
  <filter id="filter6279-2" color-interpolation-filters="sRGB">
   <feGaussianBlur id="feGaussianBlur6281-1" stdDeviation="0.8"/>
  </filter>
  <linearGradient id="linearGradient9218" x1="48" gradientUnits="userSpaceOnUse" y1="1052.4" gradientTransform="translate(0 -.0000078516)" x2="48" y2="902.36">
   <stop id="stop3702-2" style="stop-color:#e1e1e1" offset="0"/>
   <stop id="stop3704-89" style="stop-color:#f5f5f5" offset="1"/>
  </linearGradient>
  <linearGradient id="linearGradient8808" y2="138.66" gradientUnits="userSpaceOnUse" y1="20.221" x2="48" x1="48">
   <stop id="stop3739-2" style="stop-color:#fff" offset="0"/>
   <stop id="stop3741-1-9" style="stop-color:#fff;stop-opacity:0" offset="1"/>
  </linearGradient>
  <clipPath id="clipPath3613-41">
   <rect id="rect3615-54" style="fill:#fff" rx="6" ry="6" height="84" width="84" y="6" x="6"/>
  </clipPath>
  <filter id="filter3794-15" width="1.384" y="-.192" x="-.192" height="1.384" color-interpolation-filters="sRGB">
   <feGaussianBlur id="feGaussianBlur3796-549" stdDeviation="5.28"/>
  </filter>
  <linearGradient id="linearGradient5987" x1="48" gradientUnits="userSpaceOnUse" y1="72" gradientTransform="matrix(1.0172 0 0 1.0088 -.44503 .86722)" x2="48" y2="24">
   <stop id="stop3699-6" style="stop-color:#bababa" offset="0"/>
   <stop id="stop3701-6-6" style="stop-color:#d2d2d2" offset="1"/>
  </linearGradient>
 </defs>
 <metadata id="metadata6312">
  <rdf:RDF>
   <cc:Work rdf:about="">
    <dc:format>image/svg+xml</dc:format>
    <dc:type rdf:resource="http://purl.org/dc/dcmitype/StillImage"/>
    <dc:title/>
   </cc:Work>
  </rdf:RDF>
 </metadata>
 <g id="layer1" transform="translate(0 -956.36)">
  <g id="g9262">
   <rect id="rect9283" ry="5" style="filter:url(#filter6279-2)" rx="5" transform="translate(0 -.0000078516)" height="80" width="80" y="964.36" x="8"/>
   <rect id="rect9285" style="fill:url(#linearGradient9218)" rx="5" ry="5" height="80" width="80" y="964.36" x="8"/>
   <g id="layer7" transform="translate(0 956.36)">
    <rect id="rect3171" style="opacity:.5;filter:url(#filter3794-15);stroke:#fff;stroke-linecap:round;stroke-width:.5;fill:url(#linearGradient8808)" clip-path="url(#clipPath3613-41)" rx="12" ry="12" height="66" width="66" y="15" x="15"/>
   </g>
   <g id="layer4" transform="translate(0 955.87)">
    <path id="path3359-8" style="fill:url(#linearGradient5987)" d="m42.628 27.002c-2.3642 0.03618-5.1848 0.64794-8.6781 2.0807l-4.5775 15.763c3.7035-1.5165 6.6103-2.2259 9.0596-2.2068 3.7139 0.02719 6.3125 1.561 8.7417 3.1841l4.61-15.7c-2.522-1.692-5.215-3.182-9.155-3.121zm11.571 4.7919-4.5775 15.763c4.0243 2.706 8.8821 4.9346 17.801 0.97729l4.5775-15.731c-9.303 3.812-13.774 1.681-17.801-1.009zm-16.943 13.871c-2.3622 0.05699-5.1647 0.65841-8.6464 2.0807h-0.06358l-4.546 15.699c9.3215-3.8221 13.73-1.6217 17.77 1.0719l4.6411-15.826c-2.5152-1.6936-5.2179-3.1214-9.155-3.0264zm11.603 4.5397-4.6093 15.668c4.0317 2.7112 8.522 4.891 17.833 1.0719l4.418-15.29c-9.487 3.216-13.607 1.242-17.643-1.451z"/>
    <path id="path5989" style="opacity:.2" d="m42.625 27c-2.3642 0.03618-5.1942 0.66102-8.6875 2.0938l-4.5625 15.75c0.11092-0.04542 0.203-0.08103 0.3125-0.125l4.25-14.625c3.493-1.433 6.323-2.058 8.687-2.094 3.8144-0.05837 6.4531 1.3449 8.9062 2.9688l0.25-0.84375c-2.522-1.692-5.216-3.185-9.156-3.125zm11.563 4.781-4.563 15.781c0.08067 0.05424 0.16864 0.10244 0.25 0.15625l4.3125-14.938c3.9802 2.6592 8.4168 4.7877 17.5 1.1562l0.312-1.124c-9.303 3.813-13.785 1.66-17.812-1.031zm-16.938 13.875c-2.3622 0.05699-5.1746 0.67149-8.6562 2.0938h-0.0625l-4.532 15.688c0.10893-0.04466 0.20491-0.08197 0.3125-0.125l4.2188-14.562h0.0625c3.4817-1.4223 6.294-2.0368 8.6562-2.0938 3.8083-0.09188 6.4603 1.2549 8.9062 2.875l0.25-0.84375c-2.514-1.694-5.218-3.127-9.155-3.032zm11.594 4.563-4.594 15.656c0.082 0.05514 0.16759 0.1016 0.25 0.15625l4.3438-14.812c3.9904 2.6623 8.0842 4.5957 17.344 1.5312l0.312-1.094c-9.4867 3.2167-13.62 1.2553-17.656-1.4375z"/>
    <path id="path5998" style="fill:#fff" d="m51.531 30.969-4.343 14.843c-2.4293-1.623-5.0361-3.1603-8.75-3.1875-2.3759-0.01853-5.2034 0.66951-8.75 2.0938l-0.3125 1.125c3.7035-1.5165 6.6132-2.2379 9.0625-2.2188 3.7139 0.02719 6.3207 1.5645 8.75 3.1875l4.593-15.687c-0.08061-0.05407-0.169-0.10264-0.25-0.15625zm20.469 2.843c-0.10871 0.04455-0.2051 0.08206-0.3125 0.125l-4.25 14.594c-8.7404 3.878-13.585 1.8183-17.562-0.8125l-0.25 0.84375c4.0243 2.706 8.8933 4.926 17.812 0.96875l4.562-15.719zm-25.844 15.719-4.375 15c-3.992-2.662-8.369-4.858-17.469-1.219l-0.312 1.126c9.3215-3.8221 13.742-1.5998 17.781 1.0938l4.625-15.844c-0.08223-0.05537-0.16734-0.1015-0.25-0.15625zm20.344 3.125c-0.108 0.037-0.206 0.059-0.312 0.094l-4.094 14.188c-9.122 3.741-13.624 1.726-17.594-0.907l-0.25 0.844c4.0317 2.7112 8.5327 4.8817 17.844 1.0625l4.406-15.282z"/>
   </g>
  </g>
 </g>
</svg>
