<?xml version="1.0" encoding="UTF-8" standalone="no"?>
<!-- Created with Inkscape (http://www.inkscape.org/) -->
<svg id="svg2408" xmlns:rdf="http://www.w3.org/1999/02/22-rdf-syntax-ns#" xmlns="http://www.w3.org/2000/svg" height="96" width="96" version="1.0" xmlns:cc="http://creativecommons.org/ns#" xmlns:xlink="http://www.w3.org/1999/xlink" xmlns:dc="http://purl.org/dc/elements/1.1/">
 <defs id="defs2410">
  <filter id="filter7653" color-interpolation-filters="sRGB">
   <feGaussianBlur id="feGaussianBlur7655" stdDeviation="0.9728125"/>
  </filter>
  <filter id="filter7657" color-interpolation-filters="sRGB">
   <feGaussianBlur id="feGaussianBlur7659" stdDeviation="0.9728125"/>
  </filter>
  <linearGradient id="linearGradient7554" y2="82.652" xlink:href="#linearGradient3298" gradientUnits="userSpaceOnUse" x2="81.313" y1="85.362" x1="82.312"/>
  <filter id="filter7542" color-interpolation-filters="sRGB">
   <feGaussianBlur id="feGaussianBlur7544" stdDeviation="0.063379309"/>
  </filter>
  <linearGradient id="linearGradient3298">
   <stop id="stop3300" style="stop-color:#f9f9f9" offset="0"/>
   <stop id="stop3302" style="stop-color:#787878" offset="1"/>
  </linearGradient>
  <linearGradient id="linearGradient7562" y2="84.938" xlink:href="#linearGradient3298" gradientUnits="userSpaceOnUse" x2="82.574" y1="82.615" x1="80.875"/>
  <linearGradient id="linearGradient7450">
   <stop id="stop7452" style="stop-color:#f0f0f0" offset="0"/>
   <stop id="stop7454" style="stop-color:#b4b4b4" offset="1"/>
  </linearGradient>
  <linearGradient id="ButtonShadow" y2="7.0165" gradientUnits="userSpaceOnUse" x2="45.448" gradientTransform="scale(1.0059 .99417)" y1="92.54" x1="45.448">
   <stop id="stop3750" offset="0"/>
   <stop id="stop3752" style="stop-opacity:.58824" offset="1"/>
  </linearGradient>
  <linearGradient id="linearGradient3706" y2="5.9877" gradientUnits="userSpaceOnUse" x2="48" y1="90" x1="48">
   <stop id="stop3702" style="stop-color:#e6e6e6" offset="0"/>
   <stop id="stop3704" style="stop-color:#f5f5f5" offset="1"/>
  </linearGradient>
  <filter id="filter3174" color-interpolation-filters="sRGB">
   <feGaussianBlur id="feGaussianBlur3176" stdDeviation="1.71"/>
  </filter>
  <linearGradient id="linearGradient3188" y2="63.893" gradientUnits="userSpaceOnUse" x2="36.357" y1="6" x1="36.357">
   <stop id="stop3739" style="stop-color:#fff" offset="0"/>
   <stop id="stop3741" style="stop-color:#fff;stop-opacity:0" offset="1"/>
  </linearGradient>
  <radialGradient id="radialGradient3228" xlink:href="#linearGradient7450" gradientUnits="userSpaceOnUse" cy="55.979" cx="56.055" gradientTransform="matrix(.62421 -.62421 .39735 .39735 -27.897 41.428)" r="52.252"/>
  <linearGradient id="linearGradient3239" y2="12.31" gradientUnits="userSpaceOnUse" x2="50.75" y1="84.314" x1="50.75">
   <stop id="stop3235" style="stop-color:#595959" offset="0"/>
   <stop id="stop3237" style="stop-color:#999" offset="1"/>
  </linearGradient>
  <filter id="filter3249" color-interpolation-filters="sRGB">
   <feGaussianBlur id="feGaussianBlur3251" stdDeviation="0.71000039"/>
  </filter>
  <linearGradient id="ButtonShadow-0" y2="7.0165" gradientUnits="userSpaceOnUse" x2="45.448" gradientTransform="matrix(1.0059 0 0 .99417 100 0)" y1="92.54" x1="45.448">
   <stop id="stop3750-8" offset="0"/>
   <stop id="stop3752-5" style="stop-opacity:.58824" offset="1"/>
  </linearGradient>
  <linearGradient id="linearGradient3780" y2="90.239" xlink:href="#ButtonShadow-0" gradientUnits="userSpaceOnUse" x2="32.251" gradientTransform="matrix(1.0238 0 0 1.0119 -1.1429 -98.071)" y1="6.1317" x1="32.251"/>
  <linearGradient id="linearGradient3721" y2="90.239" xlink:href="#ButtonShadow-0" gradientUnits="userSpaceOnUse" x2="32.251" gradientTransform="translate(0,-97)" y1="6.1317" x1="32.251"/>
  <radialGradient id="radialGradient3786" gradientUnits="userSpaceOnUse" cy="90.172" cx="48" gradientTransform="matrix(1.1573 0 0 .99591 -7.551 .19713)" r="42">
   <stop id="stop3739-6" style="stop-color:#fff" offset="0"/>
   <stop id="stop3741-0" style="stop-color:#fff;stop-opacity:0" offset="1"/>
  </radialGradient>
  <clipPath id="clipPath3613">
   <rect id="rect3615" style="fill:#fff" rx="6" ry="6" height="84" width="84" y="6" x="6"/>
  </clipPath>
  <filter id="filter3794" height="1.384" width="1.384" color-interpolation-filters="sRGB" y="-.192" x="-.192">
   <feGaussianBlur id="feGaussianBlur3796" stdDeviation="5.28"/>
  </filter>
  <linearGradient id="linearGradient3891" y2="138.66" gradientUnits="userSpaceOnUse" x2="48" y1="20.221" x1="48">
   <stop id="stop3739-2" style="stop-color:#fff" offset="0"/>
   <stop id="stop3741-1" style="stop-color:#fff;stop-opacity:0" offset="1"/>
  </linearGradient>
  <linearGradient id="linearGradient3759" y2="-112.18" xlink:href="#linearGradient7450" gradientUnits="userSpaceOnUse" x2="99.142" gradientTransform="matrix(.45521 0 0 -.45521 -119.76 37.361)" y1="67.188" x1="99.142"/>
  <linearGradient id="linearGradient3870" y2="-112.18" xlink:href="#linearGradient7450" gradientUnits="userSpaceOnUse" x2="99.142" gradientTransform="matrix(.45521 0 0 -.45521 90.24 37.361)" y1="67.188" x1="99.142"/>
  <linearGradient id="linearGradient3879" y2="-112.18" xlink:href="#linearGradient7450" gradientUnits="userSpaceOnUse" x2="99.142" gradientTransform="matrix(.45521 0 0 -.45521 -19.76 37.361)" y1="67.188" x1="99.142"/>
 </defs>
 <metadata id="metadata2413">
  <rdf:RDF>
   <cc:Work rdf:about="">
    <dc:format>image/svg+xml</dc:format>
    <dc:type rdf:resource="http://purl.org/dc/dcmitype/StillImage"/>
   </cc:Work>
  </rdf:RDF>
 </metadata>
 <g id="layer2" style="display:none">
  <rect id="rect3745" style="opacity:.9;filter:url(#filter3174);fill:url(#ButtonShadow)" rx="6" ry="6" height="85" width="86" y="7" x="5"/>
 </g>
 <g id="layer8">
  <path id="path3786" style="opacity:0.08;fill:url(#linearGradient3780)" d="m12-95.031c-5.5111 0-10.031 4.5202-10.031 10.031v71c0 5.5111 4.5202 10.031 10.031 10.031h72c5.5111 0 10.031-4.5202 10.031-10.031v-71c0-5.5111-4.5202-10.031-10.031-10.031h-72z" transform="scale(1,-1)"/>
  <path id="path3778" style="opacity:.1;fill:url(#linearGradient3780)" d="m12-94.031c-4.9716 0-9.0312 4.0596-9.0312 9.0312v71c0 4.9716 4.0596 9.0312 9.0312 9.0312h72c4.9716 0 9.0312-4.0596 9.0312-9.0312v-71c0-4.9716-4.0596-9.0312-9.0312-9.0312h-72z" transform="scale(1,-1)"/>
  <path id="path3770" style="opacity:.2;fill:url(#linearGradient3780)" d="m12-93c-4.4091 0-8 3.5909-8 8v71c0 4.4091 3.5909 8 8 8h72c4.4091 0 8-3.5909 8-8v-71c0-4.4091-3.5909-8-8-8h-72z" transform="scale(1,-1)"/>
  <rect id="rect3723" style="opacity:.3;fill:url(#linearGradient3780)" transform="scale(1,-1)" rx="7" ry="7" height="85" width="86" y="-92" x="5"/>
  <rect id="rect3716" style="opacity:.45;fill:url(#linearGradient3721)" transform="scale(1,-1)" rx="6" ry="6" height="84" width="84" y="-91" x="6"/>
 </g>
 <g id="layer1">
  <rect id="rect2419" style="fill:url(#linearGradient3706)" rx="6" ry="6" height="84" width="84" y="6" x="6"/>
 </g>
 <g id="layer6">
  <rect id="rect3171" style="opacity:.5;filter:url(#filter3794);stroke:#fff;stroke-linecap:round;stroke-width:.5;fill:url(#linearGradient3891)" clip-path="url(#clipPath3613)" rx="12" ry="12" height="66" width="66" y="15" x="15"/>
 </g>
 <g id="layer3">
  <rect id="rect3800" style="fill:#f0f" transform="scale(1,-1)" rx="6" ry="6" height="84" width="84" y="-90" x="116"/>
  <path id="path3726" style="opacity:.7;fill:url(#linearGradient3759)" d="m-59.719 6-0.6875 1.2188 1.8125 2.4062 1.5938 1.3125 0.65625 0.3125-1.1562 2.8125-0.71875-0.25-2-0.21875-3 0.40625-0.53125 1.9062 2.4062 1.8438 1.8438 0.84375 0.75 0.125-0.40625 3.0312-0.75-0.09375-2 0.34375-2.8125 1.1875v1.9375l2.8125 1.1875 2 0.3125 0.75-0.0625 0.40625 3.0312-0.75 0.125-1.8438 0.84375-2.4062 1.8438 0.53125 1.875 3 0.4375 2-0.21875 0.71875-0.25 1.1562 2.8125-0.656 0.313-1.5938 1.2812-1.8125 2.4062 0.96875 1.7188 3-0.375 1.9062-0.75 0.625-0.40625 1.8438 2.4062-0.59375 0.5-1.1562 1.6562-1.1562 2.7812 1.375 1.375 2.8125-1.125 1.6562-1.1875 0.46875-0.59375 2.4062 1.8438-0.40625 0.65625-0.71875 1.875-0.40625 3 1.7188 1 2.4062-1.8438 1.2812-1.5625 0.3125-0.6875 2.8125 1.1562-0.25 0.71875-0.1875 2.0312 0.40625 3 1.875 0.5 1.8438-2.4062 0.84375-1.8438 0.125-0.75 3.0312 0.40625-0.0625 0.75 0.34375 2 1.1562 2.8125h1.9688l1.1562-2.8125 0.34375-2-0.0625-0.75 3-0.40625 0.125 0.75 0.84375 1.8438 1.875 2.4062 1.875-0.5 0.40625-3-0.1875-2.0312-0.25-0.71875 2.7812-1.1562 0.34375 0.6875 1.2812 1.5625 2.4062 1.8438 1.7188-1-0.40625-3-0.71875-1.875-0.4375-0.65625 2.0625-1.5938v-6.6562c-1.5435 1.786-3.3304 3.3575-5.3125 4.6562l-5.4688-10.594c3.0718-2.439 5.0748-6.1939 5.125-10.406l5.658-1.031v-5.219l-6.594 1.188c-1.4426-3.6902-4.4498-6.5968-8.2188-7.875l0.719-5.375h-5.2188l-0.625 4.6875c-4.1828 0.24157-7.8515 2.3924-10.156 5.5938l-10.844-4.97c1.155-1.9546 2.569-3.74 4.188-5.312h-6.3438l-0.8125 1.0625-0.625-0.4375-1.657-0.625h-3.531zm-18.031 9.4688-0.9375 2.0625-0.0625 0.75 0.1875 1.25-2.2188 0.59375-0.46875-1.1875-0.4375-0.59375-1.8438-1.3125-1.0625 0.625 0.25 2.25 0.3125 0.6875 0.78125 0.96875-1.625 1.625-1-0.78125-0.65625-0.28125-2.25-0.21875-0.625 1.0625 1.3125 1.8438 0.625 0.40625 1.1562 0.46875-0.5625 2.2188-1.25-0.1875-0.75 0.09375-2.0625 0.9375v1.2188l2.0625 0.9375 0.75 0.0625 1.25-0.1875 0.59375 2.2188-1.1562 0.46875-0.625 0.4375-1.3125 1.8438 0.625 1.0625 2.25-0.25 0.6875-0.3125 0.96875-0.78125 1.625 1.625-0.78125 1-0.28 0.654-0.219 2.25 1.0625 0.625 1.8438-1.3438 0.40625-0.59375 0.46875-1.1562 2.2188 0.5625-0.1875 1.25 0.09375 0.75 0.9375 2.0625h1.2188l0.9375-2.0625 0.0625-0.75-0.1875-1.25 2.2188-0.59375 0.46875 1.1562 0.4375 0.625 1.8438 1.3125 1.0625-0.625-0.25-2.25-0.28125-0.6875-0.8125-0.96875 1.625-1.625 1 0.78125 0.65625 0.28125 2.2812 0.21875 0.59375-1.0625-1.3125-1.8438-0.625-0.40625-1.1562-0.46875 0.59375-2.2188 1.25 0.1875 0.71875-0.09375 2.0625-0.9375v-1.2188l-2.0625-0.9375-0.75-0.0625-1.25 0.1875-0.59375-2.2188 1.1875-0.46875 0.59375-0.4375 1.3125-1.8438-0.625-1.0625-2.25 0.25-0.6875 0.28125-0.96875 0.8125-1.625-1.625 0.78125-1 0.28125-0.65625 0.21875-2.2812-1.063-0.594-1.844 1.312-0.406 0.626-0.469 1.156-2.219-0.594 0.188-1.25-0.09375-0.71875-0.9375-2.0625h-1.2188zm24.656 0.531 10.844 4.969c-0.24709 1.0202-0.375 2.0917-0.375 3.1875 0 2.9684 0.93507 5.7095 2.5625 7.9375l-8.0938 8.75c-3.9128-4.4524-6.2812-10.299-6.2812-16.688 0-2.8543 0.4705-5.5956 1.3438-8.1562zm16.844 19.594c2.0657 1.2867 4.4826 2.0312 7.0938 2.0312 1.3169 0 2.6091-0.17874 3.8125-0.53125l5.469 10.594c-2.8679 1.1296-6.0131 1.75-9.2812 1.75-5.7169 0-10.98-1.8928-15.219-5.0938l8.125-8.75zm-39.25 7.656l-1.0625 2.5312-0.28125 1.8125 0.03125 0.6875-2.7188 0.34375-0.125-0.65625-0.75-1.6875-1.6562-2.1562-1.7188 0.4375-0.375 2.7188 0.15625 1.8125 0.25 0.6875-2.5312 1.0312-0.28125-0.59375-1.1875-1.4375-2.1562-1.6562-1.5312 0.875 0.34375 2.6875 0.625 1.75 0.40625 0.5625-2.1875 1.6562-0.4375-0.5-1.312-0.968v10.312c4.0002-6.5093 11.179-10.875 19.375-10.875 12.549 0 22.719 10.201 22.719 22.75 0 5.5767-2.0077 10.669-5.3438 14.625h10.375l-1.1562-1.5-1.4062-1.1562-0.625-0.3125 1.0625-2.5625 0.625 0.25 1.8438 0.1875 2.6875-0.375 0.46875-1.6875-2.1562-1.6875-1.6875-0.75-0.6875-0.125 0.375-2.7188 0.6875 0.0625 1.8125-0.3125 2.5-1.0625v-1.75l-2.5-1.0625-1.8125-0.3125-0.6875 0.0625-0.375-2.7188 0.6875-0.125 1.6875-0.75 2.1562-1.6875-0.46875-1.6875-2.6875-0.375-1.845 0.157-0.625 0.25-1.0625-2.5625 0.625-0.25 1.4062-1.1875 1.6562-2.1875-0.875-1.5312-2.7188 0.375-1.7188 0.625-0.5625 0.40625-1.6875-2.1875 0.53125-0.4375 1.0625-1.5 1.0312-2.5312-1.2188-1.25-2.5625 1.0312-1.4688 1.0938-0.4375 0.5-2.188-1.657 0.375-0.5625 0.65625-1.75 0.345-2.688-1.532-0.875-2.156 1.656-1.1562 1.4375-0.3125 0.59375-2.5312-1.0312 0.21875-0.6875 0.1875-1.8125-0.34375-2.7188-1.7188-0.4375-1.6875 2.1562-0.75 1.6875-0.125 0.65625-2.7188-0.34375 0.0625-0.6875-0.3125-1.8125-1.0312-2.5312h-1.7812z"/>
  <path id="path3782" style="opacity:.7;fill:url(#linearGradient3870)" d="m179.88-11.406-1.1562 2.7812-0.34375 2.0312 0.0625 0.75-3.0312 0.40625-0.125-0.75-0.84375-1.875-1.8438-2.375-1.875 0.5-0.40625 3 0.1875 2.0312 0.25 0.71875-2.8125 1.1562-0.3125-0.6875-1.2812-1.5938-2.4062-1.8125-1.7188 0.96875 0.40625 3 0.71875 1.9062 0.40625 0.625-2.4062 1.8438-0.46875-0.5625-1.6562-1.1875-2.8125-1.1562-1.375 1.375 1.1562 2.8125 1.1562 1.6562 0.59375 0.5-1.8438 2.4062-0.625-0.4375-1.9062-0.71875-3-0.375-0.96875 1.6875 1.8125 2.4062 1.5938 1.3125 0.65625 0.3125-1.1562 2.8125-0.71875-0.25-2-0.21875-3 0.40625-0.53125 1.9062 2.4062 1.8438 1.8438 0.84375 0.75 0.125-0.40625 3.0312-0.75-0.09375-2 0.34375-2.8125 1.1875v1.9375l2.8125 1.1875 2 0.3125 0.75-0.0625 0.40625 3.0312-0.75 0.125-1.8438 0.84375-2.4062 1.8438 0.53125 1.875 3 0.4375 2-0.21875 0.71875-0.25 1.1562 2.8125-0.66 0.313-1.5938 1.2812-1.8125 2.4062 0.96875 1.7188 3-0.375 1.9062-0.75 0.625-0.40625 1.8438 2.4062-0.59375 0.5-1.1562 1.6562-1.1562 2.7812 1.375 1.375 2.8125-1.125 1.6562-1.1875 0.46875-0.59375 2.4062 1.8438-0.40625 0.65625-0.71875 1.875-0.40625 3 1.7188 1 2.4062-1.8438 1.2812-1.5625 0.3125-0.6875 2.8125 1.1562-0.25 0.71875-0.1875 2.0312 0.40625 3 1.875 0.5 1.8438-2.4062 0.84375-1.8438 0.125-0.75 3.0312 0.40625-0.0625 0.75 0.34375 2 1.1562 2.8125h1.9688l1.1562-2.8125 0.34375-2-0.0625-0.75 3-0.40625 0.125 0.75 0.84375 1.8438 1.875 2.4062 1.875-0.5 0.40625-3-0.1875-2.0312-0.25-0.71875 2.7812-1.1562 0.34375 0.6875 1.2812 1.5625 2.4062 1.8438 1.7188-1-0.40625-3-0.71875-1.875-0.4375-0.65625 2.4062-1.8438 0.5 0.59375 1.6562 1.1875 2.8125 1.125 1.375-1.375-1.1562-2.7812-1.1875-1.6562-0.5625-0.5 1.8438-2.4062 0.625 0.40625 1.9062 0.75 3 0.375 0.96875-1.7188-1.8125-2.4062-1.5938-1.2812-0.6875-0.3125 1.1875-2.8125 0.6875 0.25 2.0312 0.21875 3-0.4375 0.53125-1.875-2.4062-1.8438-1.875-0.84375-0.71875-0.125 0.375-3.0312 0.78125 0.0625 2-0.3125 2.7812-1.1875v-1.9375l-2.78-1.187-2-0.34375-0.78125 0.09375-0.375-3.0312 0.71875-0.125 1.875-0.84375 2.4062-1.8438-0.52-1.906-3-0.40625-2.0312 0.21875-0.6875 0.25-1.1875-2.8125 0.6875-0.3125 1.5938-1.3125 1.8125-2.4062-0.96875-1.6875-3 0.375-1.9062 0.71875-0.625 0.4375-1.8438-2.4062 0.5625-0.5 1.1875-1.6562 1.1562-2.8125-1.375-1.375-2.8125 1.1562-1.6562 1.1875-0.5 0.5625-2.4062-1.8438 0.4375-0.625 0.71875-1.9062 0.40625-3-1.7188-0.96875-2.4062 1.8125-1.2812 1.5938-0.34375 0.6875-2.7812-1.1562 0.25-0.71875 0.1875-2.0312-0.40625-3-1.875-0.5-1.875 2.375-0.84375 1.875-0.125 0.75-3-0.40625 0.0625-0.75-0.35-2.031-1.1562-2.7812h-1.9688zm0.96875 10.25c0.26989 0 0.54465 0.02285 0.8125 0.03125l-1.5938 11.812c-4.1828 0.24157-7.8515 2.3924-10.156 5.5938l-10.85-4.969c4.4039-7.458 12.502-12.469 21.781-12.469zm5.9375 0.71875c8.8298 2.1256 15.867 8.8863 18.375 17.562l-11.75 2.125c-1.4426-3.6902-4.4498-6.5968-8.2188-7.875l1.5938-11.812zm-54.54 15.906l-0.9375 2.0625-0.0625 0.75 0.1875 1.25-2.2188 0.59375-0.46875-1.1875-0.4375-0.59375-1.8438-1.3125-1.0625 0.625 0.25 2.25 0.3125 0.6875 0.78125 0.96875-1.625 1.625-1-0.78125-0.65625-0.28125-2.25-0.21875-0.625 1.0625 1.3125 1.8438 0.625 0.40625 1.1562 0.46875-0.5625 2.2188-1.25-0.1875-0.75 0.09375-2.0625 0.9375v1.2188l2.0625 0.9375 0.75 0.0625 1.25-0.1875 0.59375 2.2188-1.1562 0.46875-0.625 0.4375-1.3125 1.8438 0.625 1.0625 2.25-0.25 0.6875-0.3125 0.96875-0.78125 1.625 1.625-0.78125 1-0.28 0.655-0.22 2.25 1.0625 0.625 1.8438-1.3438 0.40625-0.59375 0.46875-1.1562 2.2188 0.5625-0.1875 1.25 0.0937 0.75 0.9375 2.0625h1.2188l0.9375-2.0625 0.0625-0.75-0.1875-1.25 2.2188-0.59375 0.46875 1.1562 0.4375 0.625 1.8438 1.3125 1.0625-0.625-0.25-2.25-0.28125-0.6875-0.8125-0.96875 1.625-1.625 1 0.78125 0.65625 0.28125 2.2812 0.21875 0.59375-1.0625-1.3125-1.8438-0.625-0.40625-1.1562-0.46875 0.59375-2.2188 1.25 0.1875 0.71875-0.09375 2.0625-0.9375v-1.2188l-2.0625-0.9375-0.75-0.0625-1.25 0.1875-0.59375-2.2188 1.1875-0.46875 0.59375-0.4375 1.3125-1.8438-0.625-1.0625-2.25 0.25-0.6875 0.28125-0.96875 0.8125-1.625-1.625 0.78125-1 0.28125-0.65625 0.21875-2.2812-1.06-0.594-1.84 1.312-0.41 0.626-0.47 1.156-2.22-0.594 0.19-1.25-0.0937-0.71875-0.9375-2.0625h-1.2188zm24.66 0.531 10.84 4.969c-0.24709 1.0202-0.375 2.0917-0.375 3.1875 0 2.9684 0.93507 5.7095 2.5625 7.9375l-8.0938 8.75c-3.9128-4.4524-6.2812-10.299-6.2812-16.688 0-2.8543 0.4705-5.5956 1.3438-8.1562zm23.969 1c3.9784 0 7.1875 3.2092 7.1875 7.1875s-3.2092 7.2188-7.1875 7.2188c-3.9784 0-7.2188-3.2404-7.2188-7.2188 0-3.9783 3.2404-7.1875 7.2188-7.1875zm25.188 5.1875c0.0499 0.64866 0.0937 1.3074 0.0937 1.9688 0 8.8555-4.5739 16.639-11.469 21.156l-5.48-10.594c3.0718-2.439 5.0748-6.1939 5.125-10.406l11.719-2.125zm-73.07 3.468c1.9723 0 3.5625 1.5902 3.5625 3.5625s-1.5902 3.5938-3.5625 3.5938-3.5625-1.6215-3.5625-3.5938 1.5902-3.5625 3.5625-3.5625zm40.75 9.9375c2.0657 1.2867 4.4826 2.0312 7.0938 2.0312 1.3169 0 2.6091-0.17874 3.8125-0.53125l5.46 10.594c-2.8679 1.1296-6.0131 1.75-9.2812 1.75-5.7169 0-10.98-1.8928-15.219-5.0938l8.125-8.75zm-39.25 7.656l-1.0625 2.5312-0.28125 1.8125 0.0312 0.6875-2.7188 0.34375-0.125-0.65625-0.75-1.6875-1.6562-2.1562-1.7188 0.4375-0.375 2.7188 0.15625 1.8125 0.25 0.6875-2.5312 1.0312-0.28125-0.59375-1.1875-1.4375-2.1562-1.6562-1.5312 0.875 0.34375 2.6875 0.625 1.75 0.40625 0.5625-2.1875 1.6562-0.4375-0.5-1.5-1.0938-2.5312-1.0312-1.25 1.25 1.0312 2.5312 1.0938 1.5 0.5 0.4375-1.6562 2.1875-0.5625-0.40625-1.7188-0.625-2.7188-0.375-0.875 1.5312 1.6562 2.1875 1.4375 1.1875 0.59375 0.25-1.0312 2.5625-0.65625-0.25-1.8438-0.15625-2.7188 0.375-0.4375 1.6875 2.1562 1.6875 1.6875 0.75 0.65625 0.125-0.34375 2.7188-0.6875-0.0625-1.8125 0.3125-2.5312 1.0625v1.75l2.5312 1.0625 1.8125 0.3125 0.6875-0.0625 0.34375 2.7188-0.65625 0.125-1.6875 0.75-2.1562 1.6875 0.4375 1.6875 2.7188 0.375 1.8438-0.1875 0.65625-0.25 1.0312 2.5625-0.59375 0.3125-1.4375 1.1562-1.6562 2.1562 0.875 1.5312 2.7188-0.34375 1.7188-0.65625 0.5625-0.375 1.6562 2.1562-0.5 0.4375-1.0938 1.5-1.0312 2.5625 1.25 1.2188 2.5312-1.0312 1.5-1.0625 0.4375-0.53125 2.1875 1.6875-0.40625 0.5625-0.625 1.7188-0.34375 2.7188 1.5312 0.875 2.1562-1.6562 1.1875-1.4062 0.28125-0.625 2.5312 1.0625-0.25 0.625-0.15625 1.8438 0.375 2.6875 1.7188 0.46875 1.6562-2.1875 0.75-1.6562 0.125-0.6875 2.7188 0.375-0.0312 0.6875 0.28125 1.8125 1.0625 2.5h1.7812l1.0312-2.5 0.3125-1.8125-0.0625-0.6875 2.7188-0.375 0.125 0.6875 0.75 1.6562 1.6875 2.1875 1.7188-0.46875 0.34375-2.6875-0.1875-1.8438-0.22-0.62 2.5312-1.0625 0.3125 0.625 1.1562 1.4062 2.1562 1.6562 1.5312-0.875-0.34375-2.7188-0.65625-1.7188-0.375-0.5625 2.1875-1.6875 0.4375 0.53125 1.4688 1.0625 2.5625 1.0312 1.2188-1.2188-1.0312-2.5625-1.0625-1.5-0.53125-0.4375 1.6875-2.1562 0.5625 0.375 1.7188 0.65625 2.7188 0.34375 0.875-1.5312-1.6562-2.1562-1.4062-1.1562-0.625-0.3125 1.0625-2.5625 0.625 0.25 1.8438 0.1875 2.6875-0.375 0.46875-1.6875-2.1562-1.6875-1.6875-0.75-0.6875-0.125 0.375-2.7188 0.6875 0.0625 1.8125-0.3125 2.5-1.0625v-1.75l-2.5-1.0625-1.8125-0.3125-0.6875 0.0625-0.375-2.7188 0.6875-0.125 1.6875-0.75 2.1562-1.6875-0.46875-1.6875-2.6875-0.375-1.85 0.155-0.62 0.25-1.0625-2.5625 0.625-0.25 1.4062-1.1875 1.6562-2.1875-0.875-1.5312-2.7188 0.375-1.7188 0.625-0.5625 0.40625-1.6875-2.1875 0.53125-0.4375 1.0625-1.5 1.0312-2.5312-1.2188-1.25-2.5625 1.0312-1.4688 1.0938-0.4375 0.5-2.19-1.657 0.375-0.5625 0.65625-1.75 0.35-2.688-1.53-0.875-2.16 1.656-1.1562 1.4375-0.3125 0.59375-2.5312-1.0312 0.21875-0.6875 0.1875-1.8125-0.34375-2.7188-1.7188-0.4375-1.6875 2.1562-0.75 1.6875-0.125 0.65625-2.7188-0.34375 0.0625-0.6875-0.3125-1.8125-1.0312-2.5312h-1.7812zm0.875 9.375c12.549 0 22.719 10.201 22.719 22.75s-10.169 22.719-22.719 22.719c-12.549 0-22.75-10.169-22.75-22.719 0-12.549 10.201-22.75 22.75-22.75zm0 4.0625c-10.314 0-18.688 8.3421-18.688 18.656s8.3733 18.688 18.688 18.688c10.314 0 18.688-8.3733 18.688-18.688 0-10.314-8.3733-18.656-18.688-18.656zm0 4.0312c8.0825 0 14.625 6.5425 14.625 14.625 0 8.082-6.54 14.656-14.62 14.656-8.09 0-14.63-6.574-14.63-14.656 0-8.0825 6.5425-14.625 14.625-14.625z"/>
  <path id="path3874" style="opacity:.7;fill:url(#linearGradient3879)" d="m40.281 6-0.687 1.2188 1.812 2.4062 1.594 1.313 0.656 0.312-1.156 2.812l-0.71875-0.25-2-0.21875-3 0.40625-0.531 1.906 2.406 1.844 1.844 0.844 0.75 0.125-0.40625 3.0312-0.75-0.09375-2 0.34375-2.8125 1.1875v1.9375l2.8125 1.1875 2 0.3125 0.75-0.0625 0.40625 3.0312-0.75 0.125-1.8438 0.84375-2.4062 1.8438 0.53125 1.875 3 0.4375 2-0.21875 0.719-0.251 1.156 2.812-0.656 0.313-1.5938 1.2812-1.8125 2.4062 0.96875 1.7188 3-0.375 1.9062-0.75 0.625-0.40625 1.8438 2.4062-0.59375 0.5-1.1562 1.6562-1.1562 2.7812 1.375 1.375 2.8125-1.125 1.6562-1.1875 0.46875-0.59375 2.4062 1.8438-0.40625 0.65625-0.71875 1.875-0.40625 3 1.7188 1 2.4062-1.8438 1.2812-1.5625 0.3125-0.6875 2.812 1.157-0.25 0.719-0.188 2.031 0.40625 3 1.875 0.5 1.8438-2.4062 0.84375-1.8438 0.125-0.75 3.0312 0.40625-0.0625 0.75 0.34375 2 1.1562 2.8125h1.9688l1.1562-2.8125 0.34375-2-0.0625-0.75 3-0.40625 0.125 0.75 0.84375 1.8438 1.875 2.4062 1.875-0.5 0.40625-3-0.1875-2.0312-0.25-0.71875 2.7812-1.1562 0.34375 0.6875 1.2812 1.5625 2.4062 1.8438 1.7188-1-0.40625-3-0.718-1.876-0.437-0.656 2.062-1.594v-6.656c-1.545 1.7864-3.3304 3.3575-5.3125 4.6562l-5.469-10.593c3.0718-2.439 5.0748-6.1939 5.125-10.406l5.656-1.032v-5.219l-6.594 1.188c-1.442-3.69-4.45-6.597-8.218-7.875l0.718-5.375h-5.218l-0.625 4.6875c-4.1828 0.24157-7.8515 2.3924-10.156 5.5938l-10.845-4.97c1.155-1.9546 2.571-3.7395 4.188-5.312h-6.344l-0.812 1.0625-0.625-0.4375-1.657-0.625h-3.531zm-18.031 9.469l-0.9375 2.0625-0.0625 0.75 0.1875 1.25-2.2188 0.59375-0.46875-1.1875-0.4375-0.59375-1.8438-1.3125-1.0625 0.625 0.25 2.25 0.3125 0.6875 0.78125 0.96875-1.625 1.625-1-0.78125-0.65625-0.28125-2.25-0.21875-0.625 1.0625 1.3125 1.8438 0.625 0.40625 1.1562 0.46875-0.5625 2.2188-1.25-0.1875-0.75 0.09375-2.0625 0.9375v1.2188l2.0625 0.9375 0.75 0.0625 1.25-0.1875 0.59375 2.2188-1.1562 0.46875-0.625 0.4375-1.3125 1.8438 0.625 1.0625 2.25-0.25 0.6875-0.3125 0.96875-0.78125 1.625 1.625-0.78125 1-0.28 0.655-0.219 2.25 1.0625 0.625 1.8438-1.3438 0.40625-0.59375 0.46875-1.1562 2.2188 0.5625-0.1875 1.25 0.0937 0.75 0.9375 2.0625h1.2188l0.9375-2.0625 0.0625-0.75-0.1875-1.25 2.2188-0.59375 0.46875 1.1562 0.4375 0.625 1.8438 1.3125 1.0625-0.625-0.25-2.25-0.28125-0.6875-0.8125-0.96875 1.625-1.625 1 0.78125 0.65625 0.28125 2.2812 0.21875 0.59375-1.0625-1.3125-1.8438-0.625-0.40625-1.1562-0.46875 0.59375-2.2188 1.25 0.1875 0.71875-0.09375 2.0625-0.9375v-1.2188l-2.0625-0.9375-0.75-0.0625-1.25 0.1875-0.59375-2.2188 1.1875-0.46875 0.59375-0.4375 1.3125-1.8438-0.625-1.0625-2.25 0.25-0.6875 0.28125-0.96875 0.8125-1.625-1.625 0.78125-1 0.281-0.656 0.218-2.281-1.062-0.594-1.844 1.312-0.406 0.626-0.469 1.156-2.219-0.594 0.188-1.25-0.0937-0.71875-0.9375-2.0625h-1.2188zm24.656 0.531 10.844 4.969c-0.24709 1.0202-0.375 2.0917-0.375 3.1875 0 2.9684 0.93507 5.7095 2.5625 7.9375l-8.0938 8.75c-3.913-4.453-6.282-10.299-6.282-16.688 0-2.854 0.471-5.595 1.344-8.156zm23.969 1c3.9784 0 7.1875 3.2092 7.1875 7.1875s-3.2092 7.2188-7.1875 7.2188c-3.9784 0-7.2188-3.2404-7.2188-7.2188 0-3.978 3.241-7.187 7.219-7.187zm-47.875 8.656c1.9723 0 3.5625 1.5902 3.5625 3.5625s-1.5902 3.5938-3.5625 3.5938-3.5625-1.6215-3.5625-3.5938 1.5902-3.5625 3.5625-3.5625zm40.75 9.9375c2.0657 1.2867 4.4826 2.0312 7.0938 2.0312 1.3169 0 2.6091-0.17874 3.8125-0.53125l5.469 10.594c-2.8679 1.1296-6.0131 1.75-9.2812 1.75-5.7169 0-10.98-1.8928-15.219-5.0938l8.125-8.75zm-39.25 7.656l-1.0625 2.5312-0.28125 1.8125 0.0312 0.6875-2.7188 0.34375-0.125-0.65625-0.75-1.6875-1.6562-2.1562-1.7188 0.4375-0.375 2.7188 0.15625 1.8125 0.25 0.6875-2.5312 1.0312-0.28125-0.59375-1.1875-1.4375-2.156-1.656-1.5316 0.875 0.34375 2.6875 0.625 1.75 0.40625 0.5625-2.1875 1.6562-0.4375-0.5-1.3124-0.968v10.312c4.0053-6.5135 11.18-10.875 19.375-10.875 12.549 0 22.719 10.201 22.719 22.75 0 5.5767-2.0109 10.672-5.3438 14.625h10.375l-1.1562-1.5-1.4062-1.1562-0.625-0.3125 1.0625-2.5625 0.625 0.25 1.8438 0.1875 2.6875-0.375 0.46875-1.6875-2.1562-1.6875-1.6875-0.75-0.6875-0.125 0.375-2.7188 0.6875 0.0625 1.8125-0.3125 2.5-1.0625v-1.75l-2.5-1.0625-1.8125-0.3125-0.6875 0.0625-0.375-2.7188 0.6875-0.125 1.6875-0.75 2.1562-1.6875-0.46875-1.6875-2.6875-0.375-1.845 0.157-0.625 0.25-1.0625-2.5625 0.625-0.25 1.4062-1.1875 1.6562-2.1875-0.875-1.5312-2.7188 0.375-1.7188 0.625-0.5625 0.40625-1.6875-2.1875 0.53125-0.4375 1.0625-1.5 1.0312-2.5312-1.2188-1.25-2.5625 1.0312-1.468 1.093-0.438 0.5-2.188-1.656 0.375-0.5625 0.65625-1.75 0.345-2.688-1.532-0.875-2.156 1.656-1.156 1.438-0.313 0.593-2.531-1.031 0.21875-0.6875 0.1875-1.8125-0.34375-2.7188-1.7188-0.4375-1.6875 2.1562-0.75 1.6875-0.125 0.65625-2.7188-0.34375 0.0625-0.6875-0.3125-1.8125-1.031-2.531h-1.781zm0.875 13.438c-10.314 0-18.688 8.3421-18.688 18.656 0 5.9534 2.8139 11.233 7.1562 14.656h11.532c-8.082 0-14.625-6.574-14.625-14.656 0-8.0825 6.5425-14.625 14.625-14.625s14.625 6.5425 14.625 14.625c0 8.082-6.543 14.656-14.625 14.656h11.531c4.343-3.423 7.156-8.703 7.156-14.656 0-10.314-8.373-18.656-18.687-18.656z"/>
  <path id="path3881" style="opacity:.1" d="m40.281 6-0.6875 1.2188 0.3125 0.4375 0.375-0.65625h3.5312l1.6562 0.625 0.625 0.4375 0.8125-1.0625h5.375c0.314-0.3391 0.638-0.6783 0.969-1h-6.344l-0.812 1.0625-0.625-0.4375-1.657-0.625h-3.531zm30.406 0-0.625 4.6875c-4.1828 0.24157-7.8515 2.3924-10.156 5.5938l-10.344-4.75c-0.16712 0.26034-0.34247 0.51447-0.5 0.78125l10.844 4.9688c2.305-3.202 5.974-5.353 10.156-5.594l0.626-4.688h5.0938l0.125-1h-5.2188zm4.625 5.4375-0.125 0.9375c3.769 1.2782 6.7762 4.1848 8.2188 7.875l6.594-1.189v-1l-6.5938 1.1875c-1.425-3.647-4.386-6.512-8.094-7.812zm-32 0.65625-0.8125 1.9688-0.71875-0.25-2-0.21875-3 0.40625-0.53125 1.9062 0.21875 0.1875 0.3125-1.0938 3-0.40625 2 0.21875 0.71875 0.25 1.1562-2.8125-0.34375-0.15625zm-21.062 3.375-0.9375 2.0625-0.0625 0.75 0.0625 0.34375v-0.09375l0.9375-2.0625h1.2188l0.9375 2.0625 0.03125 0.1875 0.063-0.47-0.09375-0.71875-0.9375-2.0625h-1.2188zm7 1.531-1.844 1.312-0.406 0.626-0.469 1.156-2.062-0.563-0.157 0.969 2.219 0.594 0.469-1.156 0.406-0.626 1.844-1.312 0.969 0.531 0.093-0.937-1.062-0.594zm-12.781 0.03125-1.0625 0.625 0.09375 0.9375 0.96875-0.5625 1.8438 1.3125l0.437 0.594 0.469 1.187 2.219-0.594-0.157-0.969-2.062 0.563-0.469-1.187-0.438-0.594-1.843-1.313zm24.656 2.657-0.281 2.062l-0.75-0.09375-2 0.34375-2.8125 1.1875v1l2.8125-1.1875 2-0.34375 0.75 0.09375 0.406-3.031-0.125-0.031zm-6.5625 2.125-2.25 0.25-0.6875 0.28125-0.96875 0.8125-1.1875-1.1875-0.4375 0.5625 1.625 1.625 0.96875-0.8125 0.6875-0.28125 2.25-0.25 0.3125 0.5 0.3125-0.4375-0.625-1.0625zm-23.344 0.09375-0.625 1.0625 0.3125 0.4375 0.3125-0.5 2.25 0.21875 0.65625 0.28125 1 0.78125 1.625-1.625l-0.437-0.564-1.1875 1.1875-1-0.78125-0.65625-0.28125-2.25-0.21875zm46.375 0c-0.1226 0.73467-0.21875 1.4822-0.21875 2.25 0 0.22275 0.02082 0.43618 0.03125 0.65625 0.02415-0.97482 0.12284-1.9316 0.34375-2.8438l-0.15625-0.0625zm6.0938 2.7812c-0.01109 0.16306-0.03125 0.33409-0.03125 0.5 0 3.9783 3.2404 7.2188 7.2188 7.2188s7.1875-3.2404 7.1875-7.2188c0-0.16591-0.02026-0.33694-0.03125-0.5-0.25243 3.7493-3.3438 6.7188-7.1562 6.7188s-6.9327-2.9695-7.1875-6.7188zm-18.094 0.09375c-0.0018 0.12569-0.03125 0.24886-0.03125 0.375 0 6.3885 2.3684 12.235 6.2812 16.688l8.0938-8.75c-0.14-0.194-0.244-0.395-0.375-0.595l-7.7188 8.3438c-3.784-4.3058-6.1001-9.9197-6.25-16.062zm-13.25 1.75-0.25 0.09375 0.59375 2.2188 1.25-0.1875 0.75 0.0625 2.0625 0.9375v-1l-2.0625-0.9375-0.75-0.0625-1.25 0.1875-0.34375-1.3125zm-18.875 0.0625-0.34375 1.3125-1.25-0.1875-0.75 0.09375-2.0625 0.9375v1l2.0625-0.9375 0.75-0.09375 1.25 0.1875 0.5625-2.2188-0.21875-0.09375zm27.657 3.031-0.625 0.094-1.844 0.843-2.406 1.844l0.21875 0.8125 2.1875-1.6562 1.8438-0.84375 0.75-0.125-0.125-0.96875zm-21.656 0.09375c-0.02316 0.1646-0.03125 0.32886-0.03125 0.5 0 1.9723 1.5902 3.5938 3.5625 3.5938s3.5625-1.6215 3.5625-3.5938c0-0.17114-0.0081-0.3354-0.03125-0.5-0.243 1.737-1.73 3.093-3.531 3.093-1.8011 0-3.2875-1.3569-3.5312-3.0938zm12.906 3.3125-0.25 0.90625 1.1562 0.46875 0.625 0.40625 1 1.4062 0.3125-0.5625-1.3125-1.8438-0.625-0.40625-0.90625-0.375zm-18.906 0.0625-0.90625 0.375-0.625 0.4375-1.3125 1.8438 0.3125 0.5625 1-1.4062 0.625-0.4375l1.156-0.468-0.25-0.90625zm66.094 2.3125c-0.11865 0.10103-0.22167 0.21557-0.34375 0.3125l5.469 10.594c1.982-1.298 3.767-2.869 5.312-4.656v-1c-1.545 1.7864-3.3304 3.3575-5.3125 4.6562l-5.125-9.9062zm-36.25 1.8125l-0.313 0.157-1.5938 1.2812-1.8125 2.4062 0.3125 0.5625 1.5-1.9688 1.594-1.281 0.656-0.313-0.344-0.843zm-13.781 0.375-0.46875 0.46875 0.8125 0.96875 0.28125 0.6875 0.15625 1.3125 0.09375-0.0625-0.25-2.25-0.28125-0.6875-0.34375-0.4375zm-13.188 0.063-0.344 0.438-0.281 0.656-0.219 2.25 0.094 0.062 0.125-1.312 0.281-0.656l0.78125-1-0.4375-0.4375zm5 2.4062l-0.032 0.282 0.063 0.531 0.125-0.781-0.156-0.032zm3.1875 0l-0.157 0.032 0.125 0.906 0.062-0.656-0.031-0.282zm-0.032 3.188l-1.0625 2.5312-0.28125 1.8125 0.03125 0.6875 0.25-1.5 1.063-2.531h1.7812l1.0312 2.5312 0.25 1.4688 0.0625-0.65625-0.3125-1.8125-1.031-2.531h-1.781zm-1.3125 5.0312-2.7188 0.34375-0.125-0.65625-0.75-1.6875-1.6562-2.1562-1.7188 0.4375-0.375 2.7188 0.0625 0.625 0.3125-2.3438 1.7188-0.4375 1.6562 2.1562 0.75 1.6875 0.125 0.65625 2.7188-0.34375-0.03125-0.6875 0.03125-0.3125zm24.281-4.2188-0.125 0.09375-1.1562 1.6562-1.1562 2.7812 0.28125 0.28125 0.875-2.0625 1.1562-1.6562 0.59375-0.5-0.46875-0.59375zm-14.625 0.0625-1.6875 2.1562-0.75 1.6875-0.125 0.65625-2.7188-0.34375 0.0625 0.3125-0.0625 0.6875 2.7188 0.34375 0.125-0.65625 0.75-1.6875 1.6875-2.1562 1.7188 0.4375 0.28125 2.2812 0.0625-0.5625l-0.344-2.718-1.718-0.437zm23.344 0.626-0.563 0.594c4.2392 3.201 9.5018 5.0938 15.219 5.0938 3.2682 0 6.4134-0.62041 9.2812-1.75l-0.4375-0.84375c-2.751 1.025-5.7382 1.5938-8.8438 1.5938-5.4661 0-10.518-1.7378-14.656-4.6875zm-46.094 2.375-1.5315 0.875l0.125 0.9375 1.4062-0.8125 2.1562 1.6562 1.1875 1.4375 0.28125 0.59375 2.531-1.031-0.25-0.687-0.031-0.219-2.25 0.937-0.281-0.593-1.188-1.438-2.156-1.656zm30.562 0l-2.156 1.656-1.156 1.438-0.313 0.593-2.281-0.937-0.031 0.219-0.219 0.687 2.531 1.031 0.313-0.593 1.156-1.438 2.156-1.656 1.406 0.813 0.126-0.938-1.532-0.875zm47.719 2.4375-0.4375 0.34375 0.4375 0.65625 0.71875 1.875 0.28125 2.0625 0.125-0.0625-0.40625-3-0.71875-1.875zm-35.031 0.03125-0.71875 1.8438-0.40625 3 0.125 0.0625 0.28125-2.0625 0.71875-1.875 0.40625-0.65625-0.40625-0.3125zm-5.875 2.4375-2.5625 1.0312l-1.468 1.095-0.438 0.5-1.781-1.344-0.031 0.126-0.376 0.562 2.188 1.656 0.4375-0.5 1.4688-1.0938 2.5625-1.0312 0.9375 0.96875 0.28125-0.71875-1.2188-1.25zm-41.469 1.158v1l1.3125 0.96875 0.4375 0.5 2.1875-1.657-0.4063-0.562-0.0312-0.094-1.75 1.312-0.4375-0.5-1.3125-0.968zm75.25 0.1875-0.28125 0.125 0.25 0.71875 0.125 1.4375l0.062-0.408-0.156-1.875zm-20.781 0.03-0.157 1.844 0.063 0.406 0.125-1.437 0.25-0.719-0.281-0.094zm7.9375 1.75 0.03125 0.0625v-0.0625h-0.03125zm4.875 0v0.0625l0.03125-0.0625h-0.03125zm-47.906 1.532c-10.314 0-18.688 8.3421-18.688 18.656 0 0.21275 0.024122 0.41402 0.03125 0.625 0.2035-10.138 8.47-18.281 18.657-18.281s18.454 8.143 18.656 18.281c0.0071-0.21098 0.03125-0.41225 0.03125-0.625 0-10.314-8.3733-18.656-18.688-18.656zm21.156 1.6875-0.46875 0.375 1.6875 2.1875 0.5625-0.40625 1.7188-0.625 2.7188-0.375 0.5625 0.96875 0.3125-0.4375-0.875-1.5312-2.7188 0.375-1.7188 0.625l-0.561 0.405-1.219-1.563zm3.75 6.1562l-0.343 0.156 1.062 2.562 0.625-0.25 1.8438-0.15625 2.6875 0.375 0.25 0.875 0.21875-0.1875-0.46875-1.6875-2.6875-0.375-1.844 0.156-0.625 0.25-0.719-1.719zm1.9375 6.9062-0.125 0.03125 0.375 2.7188 0.6875-0.0625 1.8125 0.3125 2.5 1.0625v-1l-2.5-1.0625-1.8125-0.3125-0.6875 0.0625-0.25-1.75zm-4.156 4.312c-0.089 5.428-2.055 10.387-5.312 14.25h0.78125c2.8571-3.7972 4.5625-8.5048 4.5625-13.625 0-0.21211-0.02548-0.41427-0.03125-0.625zm-37.281 0.09375c-0.0056 0.16715-0.03125 0.33147-0.03125 0.5 0 6.2152 3.881 11.528 9.3438 13.656h5.281c-7.914 0-14.329-6.306-14.594-14.156zm14.594 14.156h5.281c5.463-2.128 9.344-7.441 9.344-13.656 0-0.16853-0.02561-0.33285-0.03125-0.5-0.265 7.85-6.68 14.156-14.594 14.156zm26.844-9.6875-0.125 0.96875 0.6875 0.125 1.6875 0.75 1.9375 1.5 0.21875-0.8125-2.1562-1.6875-1.6875-0.75-0.5625-0.09375zm-1.9375 6.875-0.34375 0.84375 0.625 0.3125 1.4062 1.1562 0.375 0.5h0.78125l-1.1562-1.5-1.4062-1.1562-0.28125-0.15625z"/>
  <path id="path3890" style="opacity:.7;fill:#fff" d="m52.281 7c-1.2188 1.3186-2.3004 2.7574-3.2188 4.3125l0.5 0.21875c1.058-1.6472 2.292-3.173 3.688-4.531h-0.96875zm23.5 0-0.59375 4.375c0.04419 0.01499 0.08102 0.04706 0.125 0.0625l0.594-4.438h-0.125zm-35.875 0.65625-0.3125 0.5625 1.8125 2.4062l1.594 1.313 0.312 0.156 0.344-0.844-0.656-0.312-1.594-1.313-1.5-1.9688zm7 8.3438c-0.87325 2.5606-1.3438 5.302-1.3438 8.1562 0 0.21028 0.02615 0.41592 0.03125 0.625 0.03962-2.7185 0.47784-5.3338 1.3125-7.7812l10.688 4.9062c0.05237-0.31381 0.0823-0.63214 0.15625-0.9375l-10.844-4.968zm-10.437 0.094-0.219 0.812 2.406 1.844 1.844 0.844 0.625 0.094 0.125-0.969-0.75-0.125-1.844-0.844-2.187-1.656zm34.406 0.906c-3.9784 0-7.2188 3.2092-7.2188 7.1875 0 0.16591 0.02016 0.33684 0.03125 0.5 0.255-3.747 3.376-6.688 7.188-6.688 3.8124 0 6.9038 2.9406 7.1562 6.6875 0.01099-0.16316 0.03125-0.33409 0.03125-0.5 0-3.979-3.209-7.188-7.187-7.188zm-40.656 1.5312-0.125 1.3438-0.28125 0.65625-0.78125 1 0.4375 0.4375 0.34375-0.4375 0.28125-0.65625 0.21875-2.2812-0.09375-0.0625zm-14.719 0.063l-0.09375 0.0625 0.25 2.25 0.3125 0.6875 0.343 0.406 0.438-0.438-0.781-0.968-0.313-0.688-0.156-1.312zm5.812 0.031-0.062 0.656 0.031 0.281 0.157-0.031-0.126-0.906zm3.125 0.09375l-0.125 0.781 0.157 0.031 0.031-0.281-0.062-0.531zm65.563 4.562-5.656 1.031c-0.05019 4.2123-2.0532 7.9672-5.125 10.406l0.34375 0.6875c2.8668-2.4412 4.7331-6.0488 4.7812-10.094l5.656-1.031v-1zm-55.125 0.03125-1 1.4062-0.59375 0.4375-1.1875 0.46875 0.25 0.90625 0.9375-0.375 0.59375-0.4375 1.3125-1.8438-0.3125-0.5625zm-23.969 0.09375-0.3125 0.5625 1.3125 1.8438 0.625 0.40625 0.9375 0.375 0.21875-0.90625-1.1562-0.46875-0.625-0.40625-1-1.4062zm46.5 1.4062c-0.0029 0.11555-0.03125 0.22762-0.03125 0.34375 0 2.7115 0.81203 5.2294 2.1875 7.3438l0.375-0.40625c-1.505-2.061-2.402-4.569-2.531-7.282zm-22.125 0.3125v1l2.8125 1.1875 2 0.3125 0.75-0.0625 0.28125 2.0625 0.125-0.03125-0.40625-3.0312-0.75 0.0625-2-0.3125-2.8125-1.1875zm-12.281 0.532c-1.9723 0-3.5625 1.5902-3.5625 3.5625 0 0.17114 0.0081 0.33497 0.03125 0.5 0.24372-1.7323 1.7301-3.0625 3.5312-3.0625s3.2875 1.3302 3.5312 3.0625c0.02316-0.16503 0.03125-0.32886 0.03125-0.5 0-1.9723-1.5902-3.5625-3.5625-3.5625zm13.75 4.2188-2.0625 0.9375-0.71875 0.09375-1.25-0.1875-0.59375 2.2188 0.25 0.09375 0.34375-1.3125 1.25 0.1875 0.71875-0.09375 2.0625-0.9375v-1zm-27.688 0.09375v1l2.0625 0.9375 0.75 0.0625 1.25-0.1875 0.34375 1.3125 0.25-0.09375-0.59375-2.2188-1.25 0.1875-0.75-0.0625-2.0625-0.9375zm27.406 3.25-0.21875 0.1875 0.53125 1.875 3 0.4375 2-0.21875l0.72-0.249 0.812 1.969 0.344-0.157-1.156-2.812-0.71875 0.25-2 0.21875-3-0.4375-0.3125-1.0625zm-5.7812 2.2188-1.625 1.625 0.46875 0.53125 1.1562-1.1562 1 0.78125 0.65625 0.28125 2.2812 0.21875 0.59375-1.0625-0.3125-0.4375-0.28125 0.5l-2.281-0.218-0.656-0.281-1-0.78125zm-15.531 0.031-0.968 0.781-0.688 0.312l-2.25 0.25-0.3125-0.5-0.3125 0.4375 0.625 1.0625 2.25-0.25 0.6875-0.3125 0.96875-0.78125 1.1875 1.1875 0.4375-0.5625-1.625-1.625zm48.594 0.125-8.125 8.75c0.18599 0.14044 0.37261 0.27089 0.5625 0.40625l7.562-8.156c2.0657 1.2867 4.4826 2.0312 7.0938 2.0312 1.3169 0 2.6091-0.17874 3.8125-0.53125l5.0312 9.75c0.14408-0.05368 0.29478-0.10003 0.4375-0.15625l-5.468-10.594c-1.2034 0.35251-2.4956 0.53125-3.8125 0.53125-2.6111 0-5.0281-0.74457-7.0938-2.0312zm-37.156 2.906-2.219 0.594l0.15625 0.96875 2.0625-0.5625 0.46875 1.1562 0.4375 0.625 1.8438 1.3125 1.0625-0.625-0.09375-0.9375-0.96875 0.5625-1.844-1.313-0.438-0.625-0.468-1.156zm-7.313 0.031-0.469 1.157-0.406 0.593-1.844 1.344-0.968-0.563-0.094 0.938l1.0625 0.625 1.8438-1.3438 0.40625-0.59375 0.46875-1.1562 2.0625 0.53125 0.15625-0.96875-2.2188-0.5625zm2.0938 2.3438-0.0625 0.46875 0.09375 0.75 0.9375 2.0625h1.2188l0.9375-2.0625 0.0625-0.75-0.0625-0.25-0.9375 2.0625h-1.2188l-0.9375-2.0625-0.031-0.219zm24.719 0.375-0.625 0.40625-1.9062 0.75-3 0.375-0.65625-1.1562-0.3125 0.4375 0.96875 1.7188 3-0.375 1.9062-0.75 0.625-0.40625 1.375 1.8125l0.469-0.406-1.844-2.406zm5.25 5.8125-0.46875 0.59375-1.6562 1.1875-2.8125 1.125-1.0938-1.0938-0.28125 0.71875 1.375 1.375 2.8125-1.125 1.6562-1.1875 0.46875-0.59375 2 1.5312v-0.03125l0.407-0.656-2.406-1.844zm38.656 0.25l-2.0625 1.5938 0.4375 0.65625 1.625-1.25v-1zm-55.156 0.53125-0.125 1.25-0.21875 0.6875 0.25 0.09375 0.15625-1.5938-0.0625-0.4375zm-18.938 0.0625-0.0625 0.375 0.125 1.5938l0.281-0.094-0.25-0.687-0.094-1.188zm-7.2185 1.032-0.125 0.062 0.3437 2.688 0.5938 1.656 0.4375-0.344-0.4063-0.562l-0.625-1.75-0.21875-1.75zm33.375 0-0.21875 1.75-0.65625 1.75-0.375 0.5625 0.40625 0.3125 0.625-1.625l0.345-2.687-0.126-0.062zm15.875 2.4062-0.3125 0.6875-1.2812 1.5625-2.4062 1.8438-1.5938-0.9375-0.125 0.9375 1.7188 1 2.4062-1.8438 1.2812-1.5625 0.3125-0.6875 2.5312 1.0625l0.033-0.187 0.25-0.719-2.812-1.156zm25.812 0-2.7812 1.1562 0.25 0.71875 0.03125 0.15625 2.5-1.0312 0.34375 0.6875 1.2812 1.5625 2.4062 1.8438 1.7188-1l-0.124-0.938-1.594 0.938-2.406-1.844-1.281-1.563-0.344-0.687zm-58.374 1.281c-8.195 0-15.37 4.361-19.375 10.875v1c4.0053-6.5135 11.18-10.875 19.375-10.875 12.337 0 22.352 9.868 22.688 22.125 0.0021-0.12645 0.03125-0.24804 0.03125-0.375 0-12.549-10.169-22.75-22.719-22.75zm40.031 1.125-0.125 0.75-0.84375 1.8438-1.8438 2.4062-1.875-0.5-0.34375-2.5938-0.0625 0.59375 0.40625 3 1.875 0.5 1.8438-2.4062 0.84375-1.8438 0.125-0.75 3 0.40625-0.03125-0.25 0.0625-0.75l-3.032-0.406zm10.875 0-3 0.40625 0.0625 0.75-0.03125 0.25 2.9688-0.40625 0.125 0.75 0.84375 1.8438 1.875 2.4062 1.875-0.5 0.40625-3-0.0625-0.59375l-0.344 2.594-1.875 0.5-1.875-2.406-0.844-1.844-0.125-0.75zm-27.875 0.25-0.75 1.8125-1.0625 1.5-0.53125 0.4375 0.46875 0.625 0.0625-0.0625 1.0625-1.5l1.032-2.531-0.282-0.281zm20.031 1.2188-0.0625 0.6875 0.34375 2 1.1562 2.8125h1.9688l1.1562-2.8125 0.34375-2-0.0625-0.6875-0.28125 1.6875-1.1562 2.8125h-1.9688l-1.1562-2.8125-0.28125-1.6875zm-15.125 5.281l-1.3438 1.75-1.4062 1.1875-0.625 0.25 0.34375 0.84375 0.281-0.093 1.407-1.188 1.656-2.188-0.313-0.562zm-27.937 0.219c-8.0825 0-14.625 6.5425-14.625 14.625 0 0.16853 0.02561 0.33283 0.03125 0.5 0.26502-7.8489 6.6798-14.125 14.594-14.125 7.9139 0 14.329 6.2761 14.594 14.125 0.0056-0.16717 0.03125-0.33147 0.03125-0.5 0-8.0825-6.5425-14.625-14.625-14.625zm31.031 7.375-1.9375 1.5-1.6875 0.75-0.6875 0.125 0.125 0.96875 0.5625-0.09375 1.6875-0.75 2.1562-1.6875-0.21875-0.8125zm-49.688 7.875c-0.00253 0.12642-0.03125 0.24797-0.03125 0.375 0 5.403 2.3255 10.247 6 13.656h1.1562c-4.1865-3.301-6.9319-8.338-7.1242-14.031zm37.312 0c-0.191 5.693-2.937 10.73-7.124 14.031h1.1562c3.6745-3.409 6-8.2533 6-13.656 0-0.12703-0.02872-0.24858-0.03125-0.375zm13.438 0.28125-2.5 1.0625-1.8125 0.3125-0.6875-0.0625-0.375 2.7188 0.125 0.03125 0.25-1.75 0.6875 0.0625 1.8125-0.3125 2.5-1.0625v-1zm-1.0625 7.4062-0.25 0.875-2.6875 0.375-1.8438-0.1875-0.625-0.25-1.0625 2.5625 0.34375 0.15625l0.72-1.717 0.625 0.25 1.8438 0.1875 2.6875-0.375 0.46875-1.6875-0.21875-0.1875z"/>
 </g>
 <g id="layer4" style="display:none">
  <path id="path3243" style="opacity:.7;filter:url(#filter3249)" d="m47.028 14.814-1.1666 2.789-0.33522 1.9979 0.06704 0.76431-3.017 0.38886-0.13409-0.73749-0.83135-1.8504-1.8504-2.4002-1.8907 0.50954-0.40227 2.9902 0.20113 2.0247 0.25477 0.71067-2.8025 1.1666-0.32181-0.68385-1.2873-1.5688-2.4136-1.837-1.6895 0.97885 0.38886 3.0036 0.71067 1.8907 0.42908 0.63022-2.4002 1.8504-0.49613-0.57658-1.6493-1.1934-2.8025-1.1398-1.3811 1.3811 1.1532 2.789 1.18 1.6493 0.57658 0.49613-1.8504 2.4136-0.61681-0.42908-1.9041-0.72408-2.9902-0.38886-0.97885 1.7029 1.8236 2.4002 1.5823 1.2873 0.67045 0.32181-1.1532 2.8025-0.71067-0.25477-2.0247-0.20113-2.9902 0.41568-0.50954 1.8772 2.3868 1.8504 1.8504 0.84476 0.7509 0.13409-0.40227 3.0036-0.7509-0.05364-2.0113 0.32181l-2.792 1.165v1.9577l2.789 1.1666 2.0113 0.33522 0.7509-0.06705 0.40227 3.017-0.7509 0.13409-1.8504 0.83135-2.3868 1.8504 0.50954 1.8907 2.9902 0.40227 2.0247-0.20113 0.71067-0.25477 1.1532 2.8025-0.67045 0.32182-1.5823 1.2872-1.8236 2.4136 0.97885 1.6895 2.9902-0.38886 1.9041-0.71067 0.61681-0.42908 1.8504 2.4002-0.57658 0.49613-1.18 1.6493-1.1532 2.8025 1.3811 1.3811 2.8025-1.1532 1.6493-1.18 0.49613-0.57658 2.4002 1.8504-0.42908 0.61681-0.71067 1.9041-0.38886 2.9902 1.6895 0.97885 2.4136-1.8236 1.2873-1.5822 0.32181-0.67044 2.8025 1.1532-0.25477 0.71067-0.20113 2.0247 0.40227 2.9902 1.8907 0.50954 1.8504-2.3868 0.83135-1.8504 0.13409-0.7509 3.017 0.40227-0.06704 0.7509 0.33522 2.0113 1.1666 2.789h1.9577l1.1666-2.789 0.32182-2.0113-0.05364-0.7509 3.0036-0.40227 0.13409 0.7509 0.84476 1.8504 1.8504 2.3868 1.8772-0.50954 0.41568-2.9902-0.20113-2.0247-0.25477-0.71067 2.8025-1.1532 0.32182 0.67044 1.2872 1.5822 2.4002 1.8236 1.7029-0.97885-0.38886-2.9902-0.72408-1.9041-0.42909-0.61681 2.4136-1.8504 0.49613 0.57658 1.6493 1.18 2.789 1.1532 1.3811-1.3811-1.1398-2.8025-1.1934-1.6493-0.57658-0.49613 1.8504-2.4002 0.63021 0.42908 1.8907 0.71067 3.0036 0.38886 0.97885-1.6895-1.837-2.4136-1.5688-1.2872-0.68385-0.32182 1.1666-2.8025 0.71067 0.25477 2.0247 0.20113 2.9902-0.40227 0.50953-1.8907-2.4002-1.8504-1.8504-0.83135-0.73749-0.13409 0.38886-3.017 0.76431 0.06705 1.9979-0.33522 2.789-1.1666v-1.9577l-2.789-1.1666-1.9979-0.32181-0.76431 0.05364-0.38886-3.0036 0.73749-0.13409 1.8504-0.84476 2.4002-1.8504-0.50953-1.8772-2.9902-0.41568-2.0247 0.20113-0.71067 0.25477-1.1666-2.8025 0.68385-0.32181 1.5688-1.2873 1.837-2.4002-0.97885-1.7029-3.0036 0.38886-1.8907 0.72408-0.63021 0.42908-1.8504-2.4136 0.57658-0.49613 1.1934-1.6493 1.1398-2.789-1.3811-1.3811-2.789 1.1398-1.6493 1.1934-0.49613 0.57658-2.4136-1.8504 0.42909-0.63022 0.72408-1.8907 0.38886-3.0036-1.7029-0.97885-2.4002 1.837-1.2872 1.5688-0.32182 0.68385-2.8025-1.1666 0.25477-0.71067 0.20113-2.0247-0.41568-2.9902-1.8772-0.50954-1.8504 2.4002-0.84476 1.8504-0.13409 0.73749-3.0036-0.38886 0.05364-0.76431-0.32182-1.9979-1.1666-2.789h-1.9577zm0.97884 10.244c3.263 0 6.3754 0.62878 9.2387 1.7566l-5.4574 10.58c-1.2014-0.35194-2.4665-0.54976-3.7813-0.54976-2.607 0-5.0443 0.75352-7.1067 2.0382l-8.099-8.7292c4.2324-3.1959 9.4979-5.0954 15.206-5.0954zm13.811 4.1299c6.8838 4.5105 11.438 12.278 11.438 21.119 0 0.6603-0.03064 1.3101-0.08045 1.9577l-11.707-2.118c-0.05012-4.2056-2.0419-7.9433-5.1088-10.378l5.4574-10.58zm-32.798 4.4652 8.099 8.7292c-1.6248 2.2245-2.5745 4.961-2.5745 7.9246 0 1.0941 0.12875 2.1593 0.37544 3.1779l-10.821 4.9613c-0.87185-2.5565-1.3543-5.2895-1.3543-8.1392 0-6.3783 2.3688-12.209 6.2754-16.654zm31.524 21.548 11.719 2.132c-2.504 8.663-9.527 15.417-18.343 17.54l-1.596-11.814c3.763-1.2762 6.7794-4.1733 8.2196-7.8576zm-23.479 2.9634c2.3011 3.1962 5.9744 5.3369 10.151 5.5781l1.5957 11.813c-0.26742 0.0084-0.53508 0.01341-0.80454 0.01341-9.2644 0-17.366-4.9974-21.763-12.443l10.821-4.9613z"/>
  <path id="path3707" style="stroke:url(#linearGradient3239);fill:url(#radialGradient3228)" d="m47.028 12.814-1.1666 2.789-0.33522 1.9979 0.06704 0.76431-3.017 0.38886-0.13409-0.73749-0.83135-1.8504-1.8504-2.4002-1.8907 0.50954-0.40227 2.9902 0.20113 2.0247 0.25477 0.71067-2.8025 1.1666-0.32181-0.68385-1.2873-1.5688-2.4136-1.837-1.6895 0.97885 0.38886 3.0036 0.71067 1.8907 0.42908 0.63022-2.4002 1.8504-0.49613-0.57658-1.6493-1.1934-2.8025-1.1398-1.3811 1.3811 1.1532 2.789 1.18 1.6493 0.57658 0.49613-1.8504 2.4136-0.61681-0.42908-1.9041-0.72408-2.9902-0.38886-0.97885 1.7029 1.8236 2.4002 1.5823 1.2873 0.67045 0.32181-1.1532 2.8025-0.71067-0.25477-2.0247-0.20113-2.9902 0.41568-0.50954 1.8772 2.3868 1.8504 1.8504 0.84476 0.7509 0.13409-0.40227 3.0036-0.7509-0.05364-2.0113 0.32181l-2.792 1.165v1.9577l2.789 1.1666 2.0113 0.33522 0.7509-0.06705 0.40227 3.017-0.7509 0.13409-1.8504 0.83135-2.3868 1.8504 0.50954 1.8907 2.9902 0.40227 2.0247-0.20113 0.71067-0.25477 1.1532 2.8025-0.67045 0.32182-1.5823 1.2872-1.8236 2.4136 0.97885 1.6895 2.9902-0.38886 1.9041-0.71067 0.61681-0.42908 1.8504 2.4002-0.57658 0.49613-1.18 1.6493-1.1532 2.8025 1.3811 1.3811 2.8025-1.1532 1.6493-1.18 0.49613-0.57658 2.4002 1.8504-0.42908 0.61681-0.71067 1.9041-0.38886 2.9902 1.6895 0.97885 2.4136-1.8236 1.2873-1.5822 0.32181-0.67044 2.8025 1.1532-0.25477 0.71067-0.20113 2.0247 0.40227 2.9902 1.8907 0.50954 1.8504-2.3868 0.83135-1.8504 0.13409-0.7509 3.017 0.40227-0.06704 0.7509 0.33522 2.0113 1.1666 2.789h1.9577l1.1666-2.789 0.32182-2.0113-0.05364-0.7509 3.0036-0.40227 0.13409 0.7509 0.84476 1.8504 1.8504 2.3868 1.8772-0.50954 0.41568-2.9902-0.20113-2.0247-0.25477-0.71067 2.8025-1.1532 0.32182 0.67044 1.2872 1.5822 2.4002 1.8236 1.7029-0.97885-0.38886-2.9902-0.72408-1.9041-0.42909-0.61681 2.4136-1.8504 0.49613 0.57658 1.6493 1.18 2.789 1.1532 1.3811-1.3811-1.1398-2.8025-1.1934-1.6493-0.57658-0.49613 1.8504-2.4002 0.63021 0.42908 1.8907 0.71067 3.0036 0.38886 0.97885-1.6895-1.837-2.4136-1.5688-1.2872-0.68385-0.32182 1.1666-2.8025 0.71067 0.25477 2.0247 0.20113 2.9902-0.40227 0.50953-1.8907-2.4002-1.8504-1.8504-0.83135-0.73749-0.13409 0.38886-3.017 0.76431 0.06705 1.9979-0.33522 2.789-1.1666v-1.9577l-2.789-1.1666-1.9979-0.32181-0.76431 0.05364-0.38886-3.0036 0.73749-0.13409 1.8504-0.84476 2.4002-1.8504-0.50953-1.8772-2.9902-0.41568-2.0247 0.20113-0.71067 0.25477-1.1666-2.8025 0.68385-0.32181 1.5688-1.2873 1.837-2.4002-0.97885-1.7029-3.0036 0.38886-1.8907 0.72408-0.63021 0.42908-1.8504-2.4136 0.57658-0.49613 1.1934-1.6493 1.1398-2.789-1.3811-1.3811-2.789 1.1398-1.6493 1.1934-0.49613 0.57658-2.4136-1.8504 0.42909-0.63022 0.72408-1.8907 0.38886-3.0036-1.7029-0.97885-2.4002 1.837-1.2872 1.5688-0.32182 0.68385-2.8025-1.1666 0.25477-0.71067 0.20113-2.0247-0.41568-2.9902-1.8772-0.50954-1.8504 2.4002-0.84476 1.8504-0.13409 0.73749-3.0036-0.38886 0.05364-0.76431-0.32182-1.9979-1.1666-2.789h-1.9577zm0.97884 10.244c3.263 0 6.3754 0.62878 9.2387 1.7566l-5.4574 10.58c-1.2014-0.35194-2.4665-0.54976-3.7813-0.54976-2.607 0-5.0443 0.75352-7.1067 2.0382l-8.099-8.7292c4.2324-3.1959 9.4979-5.0954 15.206-5.0954zm13.811 4.1299c6.8838 4.5105 11.438 12.278 11.438 21.119 0 0.6603-0.03064 1.3101-0.08045 1.9577l-11.707-2.118c-0.05012-4.2056-2.0419-7.9433-5.1088-10.378l5.4574-10.58zm-32.798 4.4652 8.099 8.7292c-1.6248 2.2245-2.5745 4.961-2.5745 7.9246 0 1.0941 0.12875 2.1593 0.37544 3.1779l-10.821 4.9613c-0.87185-2.5565-1.3543-5.2895-1.3543-8.1392 0-6.3783 2.3688-12.209 6.2754-16.654zm31.524 21.548 11.719 2.132c-2.504 8.663-9.527 15.417-18.343 17.54l-1.596-11.814c3.763-1.2762 6.7794-4.1733 8.2196-7.8576zm-23.479 2.9634c2.3011 3.1962 5.9744 5.3369 10.151 5.5781l1.5957 11.813c-0.26742 0.0084-0.53508 0.01341-0.80454 0.01341-9.2644 0-17.366-4.9974-21.763-12.443l10.821-4.9613z"/>
  <path id="path7458" style="stroke-linejoin:round;stroke:url(#linearGradient7562);stroke-width:.45240;fill:#b8b8b8" d="m83.039 84.007a1.2367 1.2367 0 1 1 -2.4735 0 1.2367 1.2367 0 1 1 2.4735 0z" transform="matrix(2.2104 0 0 2.2104 -132.82 -137.38)"/>
  <path id="path7536" style="stroke-linejoin:round;filter:url(#filter7542);stroke:#fff;stroke-width:.089908;fill:none" d="m83.039 84.007a1.2367 1.2367 0 1 1 -2.4735 0 1.2367 1.2367 0 1 1 2.4735 0z" transform="matrix(22.245 0 0 22.245 -1771.7 -1820.4)"/>
  <path id="path7546" style="stroke-linejoin:round;stroke:url(#linearGradient7554);stroke-width:.34592;fill:none" d="m83.039 84.007a1.2367 1.2367 0 1 1 -2.4735 0 1.2367 1.2367 0 1 1 2.4735 0z" transform="matrix(5.7817 0 0 5.7817 -424.96 -437.39)"/>
  <path id="path7663" style="opacity:.15;filter:url(#filter7657)" d="m108 40.531-2.625 2-0.0312 0.0625-1.0312 1.25-19.281 39.969 44.562 11.219-0.0937-0.0625-2.3125-1.0312h-0.0625l-1.0312-0.21875a1.2352 1.2352 0 0 1 -0.96875 -1.375l0.59375-4.375a1.2352 1.2352 0 0 1 1.3125 -1.0625l0.875 0.0625 2.7812-0.46875h0.0312l3.0312-1.2812v-1.25l-3.0938-1.2812-2.75-0.46875h-0.0625l-0.85 0.06a1.2352 1.2352 0 0 1 -1.2812 -1.0625l-0.59375-4.375a1.2352 1.2352 0 0 1 1 -1.375l0.96875-0.15625 2.4062-1.0938 2.7188-2.125-0.3125-1.1562-3.4375-0.46875-2.5938 0.25-0.90625 0.34375a1.2352 1.2352 0 0 1 -1.59 -0.687l-1.6875-4.0938a1.2352 1.2352 0 0 1 0.625 -1.5938l0.875-0.40625 2.0938-1.75 0.0625-0.03125 2-2.625-0.625-1.0938-3.375 0.4375-2.5 0.96875-0.85 0.563a1.2352 1.2352 0 0 1 -1.6562 -0.28125l-2.6875-3.5a1.2352 1.2352 0 0 1 0.15625 -1.6875l0.75-0.65625 1.4688-2 0.0312-0.0625 1.3438-3.2812-0.84375-0.8125-3.2188 1.3125-0.0937 0.03125-2 1.4688-0.65625 0.78125a1.2352 1.2352 0 0 1 -1.6875 0.15625l-3.52-2.719a1.2352 1.2352 0 0 1 -0.28125 -1.6562l0.5625-0.8125 0.96875-2.5 0.4375-3.375-1.0625-0.625zm-4.5938 12.031a1.2352 1.2352 0 0 1 0.6875 0.21875c10.369 6.7943 17.25 18.499 17.25 31.812 0 1.0074-0.0823 1.9764-0.15625 2.9375a1.2352 1.2352 0 0 1 -1.4375 1.125l-17.06-3.094a1.2352 1.2352 0 0 1 -1.0312 -1.2188c-0.0685-5.7468-2.8053-10.826-7-14.156a1.2352 1.2352 0 0 1 -0.3125 -1.5312l7.962-15.406a1.2352 1.2352 0 0 1 1.0938 -0.6875zm-66.469 21.594 0.09375 0.0625 2.4062 1.0938 0.96875 0.15625a1.2352 1.2352 0 0 1 1 1.375l-0.59375 4.375a1.2352 1.2352 0 0 1 -1.2812 1.0625l-0.84375-0.0625h-0.0625l-2.7812 0.46875-3.0938 1.2812v1.25l3.0312 1.2812h0.03125l2.8125 0.46875 0.875-0.0625a1.2352 1.2352 0 0 1 1.3125 1.0625l0.59375 4.375a1.2352 1.2352 0 0 1 -0.96875 1.375l-1.0312 0.21875h-0.0625l-2.3125 1.0312-2.7188 2.125 0.3125 1.1875 3.4375 0.4375 2.5938-0.25 0.90625-0.34375a1.2352 1.2352 0 0 1 1.5938 0.6875l1.6875 4.0938a1.2352 1.2352 0 0 1 -0.625 1.5938l-0.8125 0.40625-2.0938 1.6562-2.0625 2.7812 0.59375 1.0312 3.3438-0.4375 2.5312-0.9375 0.8125-0.5625a1.2352 1.2352 0 0 1 1.6562 0.28125l2.6875 3.5a1.2352 1.2352 0 0 1 -0.15625 1.6875l-0.75 0.65625-1.4688 2-0.03125 0.0625-1.3438 3.2812 0.84375 0.8125 3.25-1.3125 0.0625-0.0312 2-1.4688 0.65625-0.75a1.2352 1.2352 0 0 1 1.682 -0.16l3.5 2.6875a1.2352 1.2352 0 0 1 0.28125 1.6562l-0.5625 0.8125-0.9375 2.5312-0.4375 3.3438 1.0625 0.59375 2.7812-2.0625 0.84375-1.0625 3.5-7.2812c-6.271-3.3-11.558-8.22-15.156-14.31a1.2352 1.2352 0 0 1 0.53125 -1.75l15.75-7.25a1.2352 1.2352 0 0 1 1.5312 0.40625c1.5444 2.1451 3.6194 3.8434 5.9375 5.1562l7.25-15.064-16.219-4.094c-0.19636 1.0763-0.375 2.1418-0.375 3.2812 0 1.5064 0.1341 2.962 0.46875 4.3438a1.2352 1.2352 0 0 1 -0.6875 1.4062l-15.781 7.25a1.2352 1.2352 0 0 1 -1.657 -0.718c-1.3134-3.8513-2.0625-7.9887-2.0625-12.281 0-2.7953 0.39441-5.502 0.96875-8.125l-9.2188-2.3125z" transform="matrix(.68597 0 0 .68597 -9.1162 -9.7193)"/>
  <path id="path7661" style="opacity:.4;filter:url(#filter7653);fill:#fff" d="m82.562 33.938-1.375 3.2812-0.4375 2.5v0.0625l0.09375 1.0625a1.0935 1.0935 0 0 1 -0.96875 1.1875l-4.4062 0.5625a1.0935 1.0935 0 0 1 -1.188 -0.906l-0.125-0.813-0.031-0.063-1.125-2.5-2.188-2.812-1.312 0.344-0.5 3.5625 0.28125 2.625 0.3125 0.90625a1.0935 1.0935 0 0 1 -0.594 1.374l-4.0625 1.7188a1.0935 1.0935 0 0 1 -1.438 -0.531l-0.438-0.938-0.031-0.062-1.625-1.9375-2.875-2.1875-1.1875 0.6875 0.4375 3.5625 0.9375 2.4688 0.5625 0.8125a1.0935 1.0935 0 0 1 -0.25 1.5l-3.5 2.7188a1.0935 1.0935 0 0 1 -1.5 -0.15625l-0.6875-0.78125-0.03125-0.0625-2.1562-1.5312-3.1875-1.3125-1.0312 1 1.375 3.3125 1.4688 2.0625 0.84375 0.71875a1.0935 1.0935 0 0 1 0.15625 1.5l-2.6875 3.5a1.0935 1.0935 0 0 1 -1.5 0.25l-0.8125-0.5625-2.5-0.96875-3.5312-0.4375-0.6875 1.2188 2.1562 2.8438 1.0625 0.875 0.0625 0.03125 7.3125 3.5312c1.4174-2.7199 3.1203-5.2814 5.125-7.5625a1.0935 1.0935 0 0 1 1.625 -0.03125l11.812 12.719a1.0935 1.0935 0 0 1 0.0625 1.4062c-0.43719 0.59853-0.76212 1.2543-1.125 1.9062l15.407 7.437 4.157-16.531c-1.1288-0.22338-2.2519-0.4375-3.4375-0.4375-3.5902 0.000002-6.973 1.0438-9.8125 2.8125a1.0935 1.0935 0 0 1 -1.375 -0.1875l-11.813-12.719a1.0935 1.0935 0 0 1 0.15625 -1.625c6.3521-4.7964 14.28-7.6562 22.844-7.6562 2.8191 0.000001 5.5479 0.38014 8.1875 0.96875l2.5-9.9062-0.4375 0.5625-1.125 2.5-0.03125 0.0625-0.15625 0.84375a1.0935 1.0935 0 0 1 -1.1875 0.875l-4.375-0.5625a1.0935 1.0935 0 0 1 -0.96875 -1.1875l0.09375-0.9375-0.46875-2.7812v-0.03125l-1.3438-3.1562h-1.4062zm1.4062 52.25-4.1562 16.531c0.79062 0.16027 1.5706 0.32855 2.375 0.375a1.0935 1.0935 0 0 1 1.0312 0.9375l2.3125 17.219a1.0935 1.0935 0 0 1 -1.0625 1.25c-0.43459 0.0136-0.8174 0-1.1875 0-2.827 0-5.5697-0.37984-8.2188-0.96875l-2.5 9.9375 0.4375-0.5625 1.125-2.5 0.15625-0.90625a1.0935 1.0935 0 0 1 1.1875 -0.90625l4.4062 0.5625a1.0935 1.0935 0 0 1 0.96875 1.1875l-0.093 1.03v0.0625l0.4375 2.5312 1.375 3.2812h1.4062l1.3438-3.1562v-0.0312l0.4375-2.8125-0.0625-0.90625a1.0935 1.0935 0 0 1 0.96875 -1.1875l4.375-0.5625a1.0935 1.0935 0 0 1 1.1875 0.875l0.15625 0.875 0.03125 0.0625 1.125 2.5 2.1562 2.7812 1.3438-0.375 0.5-3.5312-0.28125-2.625-0.3125-0.9375a1.0935 1.0935 0 0 1 0.625 -1.375l4.0938-1.6562a1.0935 1.0935 0 0 1 1.375 0.53125l0.34375 0.75 0.0625 0.0625 1.7188 2.125 2.8438 2.1562 1.1875-0.6875-0.4375-3.5312-0.96875-2.5-0.5625-0.8125a1.0935 1.0935 0 0 1 0.25 -1.5l3.52-2.7a1.0935 1.0935 0 0 1 1.5 0.15625l0.71875 0.84375 2.0625 1.4688 3.2812 1.3438 1.0312-1-1.375-3.3125-1.4688-2.0625-0.84375-0.71875a1.0935 1.0935 0 0 1 -0.15625 -1.5l2.6875-3.5a1.0935 1.0935 0 0 1 1.4688 -0.25l0.71875 0.5 0.0625 0.0312 2.4688 0.9375h0.0937l3.5625 0.5 0.6875-1.1875-2.1875-2.875-0.96875-0.84375-0.0625-0.0312-7.5-3.5938c-4.9966 9.5998-13.851 16.875-24.625 19.469a1.0935 1.0935 0 0 1 -1.343 -0.91l-2.3438-17.219a1.0935 1.0935 0 0 1 0.75 -1.1875c4.3626-1.4796 7.9336-4.5991 10.156-8.5625l-15.405-7.4z" transform="matrix(.68597 0 0 .68597 -9.1162 -9.7193)"/>
 </g>
 <g id="layer5">
  <path id="rect3728" style="opacity:.5;fill:url(#linearGradient3188)" d="m12 6c-3.324 0-6 2.676-6 6v2 68 2c0 0.33472 0.04135 0.6507 0.09375 0.96875 0.0487 0.2956 0.09704 0.59692 0.1875 0.875 0.00988 0.03038 0.020892 0.0636 0.03125 0.09375 0.098865 0.28777 0.23488 0.54745 0.375 0.8125 0.14459 0.27351 0.31562 0.53562 0.5 0.78125 0.18438 0.24564 0.37378 0.47347 0.59375 0.6875 0.43995 0.42806 0.94291 0.81453 1.5 1.0938 0.27854 0.13961 0.57347 0.24695 0.875 0.34375-0.2562-0.10022-0.48671-0.23627-0.71875-0.375-0.00741-0.0044-0.023866 0.0045-0.03125 0-0.031933-0.0193-0.062293-0.04251-0.09375-0.0625-0.1204-0.0767-0.23102-0.16351-0.34375-0.25-0.10617-0.0808-0.21328-0.16111-0.3125-0.25-0.1778-0.162-0.3473-0.346-0.4999-0.531-0.1075-0.131-0.2183-0.266-0.3124-0.407-0.0251-0.038-0.0385-0.086-0.0626-0.125-0.0647-0.103-0.1302-0.204-0.1874-0.312-0.1011-0.195-0.2057-0.416-0.2813-0.625-0.008-0.022-0.0236-0.041-0.0313-0.063-0.0318-0.092-0.0358-0.187-0.0624-0.281-0.0304-0.107-0.0704-0.203-0.0938-0.313-0.0729-0.341-0.125-0.698-0.125-1.062v-2-68-2c0-2.782 2.2182-5 5-5h2 68 2c2.7818 0 5 2.2182 5 5v2 68 2c0 0.3643-0.05212 0.72099-0.125 1.0625-0.04415 0.20689-0.08838 0.39766-0.15625 0.59375-0.0077 0.02195-0.0233 0.04069-0.03125 0.0625-0.06274 0.17374-0.13838 0.36745-0.21875 0.53125-0.04158 0.0828-0.07904 0.16995-0.125 0.25-0.0546 0.09721-0.12677 0.18835-0.1875 0.28125-0.09411 0.14096-0.20492 0.276-0.3125 0.40625-0.14317 0.17445-0.30314 0.347-0.46875 0.5-0.01117 0.0102-0.01998 0.02115-0.03125 0.03125-0.13839 0.12556-0.28509 0.23444-0.4375 0.34375-0.10257 0.07315-0.20432 0.15336-0.3125 0.21875-0.0074 0.0045-0.02384-0.0044-0.03125 0-0.23204 0.13873-0.46255 0.27478-0.71875 0.375 0.30153-0.0968 0.59646-0.20414 0.875-0.34375 0.55709-0.27922 1.0601-0.66569 1.5-1.0938 0.21997-0.21403 0.40937-0.44186 0.59375-0.6875s0.35541-0.50774 0.5-0.78125c0.14012-0.26505 0.27614-0.52473 0.375-0.8125 0.01041-0.03078 0.02133-0.06274 0.03125-0.09375 0.09046-0.27808 0.1388-0.5794 0.1875-0.875 0.053-0.318 0.094-0.634 0.094-0.969v-2-68-2c0-3.324-2.676-6-6-6h-72z"/>
  <path id="path3615" style="opacity:.4;fill:url(#radialGradient3786)" d="m12 90c-3.324 0-6-2.676-6-6v-2-68-2c0-0.33472 0.04135-0.6507 0.09375-0.96875 0.0487-0.2956 0.09704-0.59692 0.1875-0.875 0.0099-0.03 0.0209-0.063 0.0313-0.094 0.0989-0.2873 0.2349-0.547 0.375-0.812 0.1446-0.2735 0.3156-0.5356 0.5-0.7812 0.1844-0.2457 0.3738-0.4735 0.5937-0.6876 0.44-0.428 0.943-0.8145 1.5-1.0937 0.2786-0.1396 0.5735-0.2469 0.8748-0.3437-0.256 0.1002-0.4865 0.2362-0.7185 0.375-0.00741 0.0044-0.023866-0.0045-0.03125 0-0.031933 0.0193-0.062293 0.04251-0.09375 0.0625-0.1204 0.0767-0.23102 0.16351-0.34375 0.25-0.10617 0.0808-0.21328 0.16111-0.3125 0.25-0.1779 0.1614-0.3474 0.3453-0.5 0.5312-0.1075 0.1303-0.2183 0.2653-0.3124 0.4063-0.0251 0.0383-0.0385 0.0858-0.0626 0.125-0.0647 0.103-0.1302 0.2045-0.1874 0.3124-0.1011 0.1948-0.2057 0.4158-0.2813 0.625-0.008 0.0219-0.0236 0.0406-0.0313 0.0626-0.0318 0.0919-0.0358 0.1868-0.0624 0.2812-0.0304 0.1066-0.0704 0.203-0.0938 0.3125-0.0729 0.3415-0.125 0.6985-0.125 1.0625v2 68 2c0 2.7818 2.2182 5 5 5h2 68 2c2.7818 0 5-2.2182 5-5v-2-68-2c0-0.364-0.052-0.721-0.125-1.0625-0.044-0.2069-0.088-0.3977-0.156-0.5937-0.008-0.022-0.024-0.0407-0.031-0.0626-0.063-0.1737-0.139-0.3674-0.219-0.5312-0.042-0.0828-0.079-0.17-0.125-0.25-0.055-0.0972-0.127-0.1884-0.188-0.2812-0.094-0.141-0.205-0.276-0.312-0.4063-0.143-0.1745-0.303-0.347-0.469-0.5-0.011-0.0102-0.02-0.0211-0.031-0.0313-0.139-0.1255-0.285-0.2344-0.438-0.3437-0.102-0.0731-0.204-0.1534-0.312-0.2187-0.0074-0.0045-0.02384 0.0044-0.03125 0-0.23204-0.13873-0.46255-0.27478-0.71875-0.375 0.30153 0.0968 0.59646 0.20414 0.875 0.34375 0.55709 0.27922 1.0601 0.66569 1.5 1.0938 0.21997 0.21403 0.40937 0.44186 0.59375 0.6875s0.35541 0.50774 0.5 0.78125c0.14012 0.26505 0.27614 0.52473 0.375 0.8125 0.01041 0.03078 0.02133 0.06274 0.03125 0.09375 0.09046 0.27808 0.1388 0.5794 0.1875 0.875 0.053 0.318 0.094 0.634 0.094 0.969v2 68 2c0 3.324-2.676 6-6 6h-72z"/>
 </g>
</svg>
