<?xml version="1.0" encoding="UTF-8" standalone="no"?>
<!-- Created with Inkscape (http://www.inkscape.org/) -->
<svg id="svg6307" xmlns:rdf="http://www.w3.org/1999/02/22-rdf-syntax-ns#" xmlns="http://www.w3.org/2000/svg" height="96" width="96" version="1.1" xmlns:cc="http://creativecommons.org/ns#" xmlns:xlink="http://www.w3.org/1999/xlink" xmlns:dc="http://purl.org/dc/elements/1.1/">
 <defs id="defs6309">
  <filter id="filter6279-2" color-interpolation-filters="sRGB">
   <feGaussianBlur id="feGaussianBlur6281-1" stdDeviation="0.8"/>
  </filter>
  <linearGradient id="linearGradient9181" x1="48" gradientUnits="userSpaceOnUse" y1="1052.4" gradientTransform="translate(0 -.0000078516)" x2="48" y2="902.36">
   <stop id="stop3702-5" style="stop-color:#e6e6e6" offset="0"/>
   <stop id="stop3704-9" style="stop-color:#f5f5f5" offset="1"/>
  </linearGradient>
  <linearGradient id="linearGradient3120" y2="138.66" gradientUnits="userSpaceOnUse" x2="48" y1="20.221" x1="48">
   <stop id="stop3739-2" style="stop-color:#fff" offset="0"/>
   <stop id="stop3741-1-2" style="stop-color:#fff;stop-opacity:0" offset="1"/>
  </linearGradient>
  <clipPath id="clipPath3613-15">
   <rect id="rect3615-9" style="fill:#fff" rx="6" ry="6" height="84" width="84" y="6" x="6"/>
  </clipPath>
  <filter id="filter3794-91" width="1.384" y="-.192" x="-.192" height="1.384" color-interpolation-filters="sRGB">
   <feGaussianBlur id="feGaussianBlur3796-49" stdDeviation="5.28"/>
  </filter>
  <clipPath id="clipPath3763">
   <path id="path3765" style="fill:#f0f" d="m-88 6c-3.324 0-6 2.676-6 6v72c0 3.324 2.676 6 6 6h72c3.324 0 6-2.676 6-6v-72c0-3.324-2.676-6-6-6h-72zm4 38a36 36 0 0 1 36 36h-7.1875a28.8 28.8 0 0 0 -28.812 -28.812v-7.188zm0 12.125a23.863 23.863 0 0 1 23.875 23.875h-7a16.869 16.869 0 0 0 -16.875 -16.875v-7zm4.9375 14c2.7267 0 4.9375 2.2108 4.9375 4.9375s-2.2108 4.9375-4.9375 4.9375c-2.727 0-4.938-2.211-4.938-4.938 0-2.7267 2.2108-4.9375 4.9375-4.9375z"/>
  </clipPath>
  <filter id="filter3767" color-interpolation-filters="sRGB">
   <feGaussianBlur id="feGaussianBlur3769" stdDeviation="1.08"/>
  </filter>
  <linearGradient id="linearGradient3098" x1="8" gradientUnits="userSpaceOnUse" x2="8" gradientTransform="matrix(.5625 0 0 .5625 34 57.5)" y1="40" y2="-57.782">
   <stop id="stop2843" style="stop-color:#d4530d" offset="0"/>
   <stop id="stop2845" style="stop-color:#f7ad25" offset="1"/>
  </linearGradient>
 </defs>
 <metadata id="metadata6312">
  <rdf:RDF>
   <cc:Work rdf:about="">
    <dc:format>image/svg+xml</dc:format>
    <dc:type rdf:resource="http://purl.org/dc/dcmitype/StillImage"/>
    <dc:title/>
   </cc:Work>
  </rdf:RDF>
 </metadata>
 <g id="layer1" transform="translate(0 -956.36)">
  <g id="g6878">
   <rect id="rect9283" ry="5" style="filter:url(#filter6279-2)" rx="5" transform="translate(0 -.0000078516)" height="80" width="80" y="964.36" x="8"/>
   <rect id="rect9285" style="fill:url(#linearGradient9181)" rx="5" ry="5" height="80" width="80" y="964.36" x="8"/>
   <g id="layer4" transform="translate(0 956.36)">
    <rect id="rect3171" style="opacity:.5;filter:url(#filter3794-91);stroke:#fff;stroke-linecap:round;stroke-width:.5;fill:url(#linearGradient3120)" clip-path="url(#clipPath3613-15)" rx="12" ry="12" height="66" width="66" y="15" x="15"/>
   </g>
   <g id="g3073" transform="translate(4.592 951.77)">
    <path id="path3754" style="opacity:.12;filter:url(#filter3767);stroke:#fff;stroke-width:2;fill:none" clip-path="url(#clipPath3763)" transform="translate(100)" d="m-84 44v7.2a28.8 28.8 0 0 1 28.8 28.8h7.2a36 36 0 0 0 -36 -36zm0 12.137v6.9943a16.869 16.869 0 0 1 16.869 16.869h6.9943a23.863 23.863 0 0 0 -23.863 -23.863zm4.9371 13.989c-2.727 0-4.937 2.21-4.937 4.937s2.21 4.937 4.937 4.937c2.7267 0 4.9371-2.2104 4.9371-4.9371s-2.2104-4.9371-4.9371-4.9371z"/>
    <path id="circle3643" style="fill:url(#linearGradient3098)" d="m16 44v7.2a28.8 28.8 0 0 1 28.8 28.8h7.2a36 36 0 0 0 -36 -36zm0 12.137v6.9943a16.869 16.869 0 0 1 16.869 16.869h6.9943a23.863 23.863 0 0 0 -23.863 -23.863zm4.9371 13.989c-2.727 0-4.937 2.21-4.937 4.937s2.21 4.937 4.937 4.937c2.7267 0 4.9371-2.2104 4.9371-4.9371s-2.2104-4.9371-4.9371-4.9371z"/>
   </g>
  </g>
 </g>
</svg>
