<?xml version="1.0" encoding="UTF-8" standalone="no"?>
<!-- Created with Inkscape (http://www.inkscape.org/) -->
<svg id="svg6307" xmlns:rdf="http://www.w3.org/1999/02/22-rdf-syntax-ns#" xmlns="http://www.w3.org/2000/svg" height="96" width="96" version="1.1" xmlns:cc="http://creativecommons.org/ns#" xmlns:xlink="http://www.w3.org/1999/xlink" xmlns:dc="http://purl.org/dc/elements/1.1/">
 <defs id="defs6309">
  <filter id="filter6279-2" color-interpolation-filters="sRGB">
   <feGaussianBlur id="feGaussianBlur6281-1" stdDeviation="0.8"/>
  </filter>
  <linearGradient id="linearGradient6941" x1="48" gradientUnits="userSpaceOnUse" y1="1052.4" gradientTransform="translate(0 -.0000078516)" x2="48" y2="902.36">
   <stop id="stop3702-89" style="stop-color:#e6e6e6" offset="0"/>
   <stop id="stop3704-77" style="stop-color:#f5f5f5" offset="1"/>
  </linearGradient>
  <linearGradient id="linearGradient7079" y2="138.66" gradientUnits="userSpaceOnUse" y1="20.221" x2="48" x1="48">
   <stop id="stop3739-2" style="stop-color:#fff" offset="0"/>
   <stop id="stop3741-1-9" style="stop-color:#fff;stop-opacity:0" offset="1"/>
  </linearGradient>
  <clipPath id="clipPath3613-33">
   <rect id="rect3615-8" style="fill:#fff" rx="6" ry="6" height="84" width="84" y="6" x="6"/>
  </clipPath>
  <filter id="filter3794-05" width="1.384" y="-.192" x="-.192" height="1.384" color-interpolation-filters="sRGB">
   <feGaussianBlur id="feGaussianBlur3796-664" stdDeviation="5.28"/>
  </filter>
  <radialGradient id="radialGradient6944" gradientUnits="userSpaceOnUse" cy="24.634" cx="61" gradientTransform="matrix(1.2626 -.21044 .095207 .57124 -18.366 22.765)" r="19.008">
   <stop id="stop3800-4" style="stop-color:#0a85ff" offset="0"/>
   <stop id="stop3802-4" style="stop-color:#006ad3;stop-opacity:0" offset="1"/>
  </radialGradient>
  <filter id="filter3810-2" color-interpolation-filters="sRGB">
   <feGaussianBlur id="feGaussianBlur3812-6" stdDeviation="0.42"/>
  </filter>
  <radialGradient id="radialGradient6946" xlink:href="#linearGradient3816-9" gradientUnits="userSpaceOnUse" cy="36.957" cx="41.753" gradientTransform="matrix(3.3631 -.59089 .30096 1.713 -109.79 2.6806)" r="19"/>
  <linearGradient id="linearGradient3816-9">
   <stop id="stop3818-3" style="stop-color:#51acff" offset="0"/>
   <stop id="stop3824-4" style="stop-color:#6abaee;stop-opacity:.67451" offset=".5"/>
   <stop id="stop3820-0" style="stop-color:#318fe4;stop-opacity:0" offset="1"/>
  </linearGradient>
  <linearGradient id="linearGradient6948" x1="80" gradientUnits="userSpaceOnUse" y1="37" gradientTransform="translate(4.405e-7 3)" x2="77" y2="37">
   <stop id="stop3862-7" style="stop-color:#002767" offset="0"/>
   <stop id="stop3868-1" style="stop-color:#003180;stop-opacity:.36434" offset=".5"/>
   <stop id="stop3864-9" style="stop-color:#002767;stop-opacity:0" offset="1"/>
  </linearGradient>
  <linearGradient id="linearGradient6950" x1="52" gradientUnits="userSpaceOnUse" y1="10" gradientTransform="translate(4.405e-7 3)" x2="51.631" y2="8.0841">
   <stop id="stop3830-1" style="stop-color:#a2d7fb" offset="0"/>
   <stop id="stop3832-9" style="stop-color:#a2d7fb;stop-opacity:0" offset="1"/>
  </linearGradient>
  <radialGradient id="radialGradient6952" xlink:href="#linearGradient3816-9" gradientUnits="userSpaceOnUse" cy="39.106" cx="40.285" gradientTransform="matrix(3.373 -.53175 .18746 1.1891 -71.605 16.442)" r="19"/>
  <radialGradient id="radialGradient6954" gradientUnits="userSpaceOnUse" cy="50.609" cx="46" gradientTransform="matrix(2.6667 -6.9565e-8 8e-7 30.667 -76.667 -1477)" r="1.5">
   <stop id="stop3881-4" style="stop-color:#002767" offset="0"/>
   <stop id="stop3883-1" style="stop-color:#003180;stop-opacity:.36434" offset=".5"/>
   <stop id="stop3885-9" style="stop-color:#002767;stop-opacity:0" offset="1"/>
  </radialGradient>
  <radialGradient id="radialGradient6956" gradientUnits="userSpaceOnUse" cy="69.844" cx="39.769" gradientTransform="matrix(1.1598 -.14009 .072442 .58349 -11.414 33.341)" r="11">
   <stop id="stop3960-3" style="stop-color:#01a3f1" offset="0"/>
   <stop id="stop3962-6" style="stop-color:#01a3f1;stop-opacity:0" offset="1"/>
  </radialGradient>
  <linearGradient id="linearGradient6958" x1="40" xlink:href="#linearGradient3934-3" gradientUnits="userSpaceOnUse" x2="41.884" y1="70" y2="62.968"/>
  <linearGradient id="linearGradient3934-3">
   <stop id="stop3936-2" style="stop-color:#003d9e" offset="0"/>
   <stop id="stop3938-5" style="stop-color:#003d9e;stop-opacity:0" offset="1"/>
  </linearGradient>
  <linearGradient id="linearGradient6960" x1="40" xlink:href="#linearGradient3934-3" gradientUnits="userSpaceOnUse" x2="42" y1="69" y2="64"/>
  <linearGradient id="linearGradient6962" x1="31" xlink:href="#linearGradient3894-4" gradientUnits="userSpaceOnUse" y1="61" gradientTransform="translate(4.405e-7 3)" x2="36" y2="70"/>
  <linearGradient id="linearGradient3894-4">
   <stop id="stop3896-6" style="stop-color:#93ddf7" offset="0"/>
   <stop id="stop3898-5" style="stop-color:#93ddf7;stop-opacity:0" offset="1"/>
  </linearGradient>
  <linearGradient id="linearGradient6966" x1="40" xlink:href="#linearGradient3934-3" gradientUnits="userSpaceOnUse" y1="70" gradientTransform="translate(34 -5)" x2="41.884" y2="62.968"/>
  <linearGradient id="linearGradient6968" x1="40" xlink:href="#linearGradient3934-3" gradientUnits="userSpaceOnUse" y1="69" gradientTransform="translate(34 -5)" x2="42" y2="64"/>
  <linearGradient id="linearGradient6970" x1="31" xlink:href="#linearGradient3894-4" gradientUnits="userSpaceOnUse" y1="61" gradientTransform="translate(34 -2)" x2="36" y2="70"/>
 </defs>
 <metadata id="metadata6312">
  <rdf:RDF>
   <cc:Work rdf:about="">
    <dc:format>image/svg+xml</dc:format>
    <dc:type rdf:resource="http://purl.org/dc/dcmitype/StillImage"/>
    <dc:title/>
   </cc:Work>
  </rdf:RDF>
 </metadata>
 <g id="layer1" transform="translate(0 -956.36)">
  <g id="g6972">
   <rect id="rect9283" ry="5" style="filter:url(#filter6279-2)" rx="5" transform="translate(0 -.0000078516)" height="80" width="80" y="964.36" x="8"/>
   <rect id="rect9285" style="fill:url(#linearGradient6941)" rx="5" ry="5" height="80" width="80" y="964.36" x="8"/>
   <g id="layer4" transform="translate(0 956.36)">
    <rect id="rect3171" style="opacity:.5;filter:url(#filter3794-05);stroke:#fff;stroke-linecap:round;stroke-width:.5;fill:url(#linearGradient7079)" clip-path="url(#clipPath3613-33)" rx="12" ry="12" height="66" width="66" y="15" x="15"/>
   </g>
   <g id="g4093" transform="matrix(.73973 0 0 .73973 14.534 972.93)">
    <path id="path3011" style="fill:#0046b5" d="m80 6-40 7v49.438c-2.3193-0.62616-5.062-0.58889-7.7812 0.28125-5.8766 1.8805-9.3783 6.8875-7.8437 11.188 1.5345 4.3 7.5296 6.2555 13.406 4.375 5.02-1.607 8.288-5.502 8.188-9.282h0.031v-40l28-5v33.438c-2.3193-0.62616-5.062-0.58889-7.7812 0.28125-5.8766 1.8805-9.3783 6.8875-7.8438 11.188 1.5345 4.3 7.5296 6.2555 13.406 4.375 5.02-1.607 8.288-5.502 8.188-9.282h0.031v-58z"/>
    <path id="path3796" style="filter:url(#filter3810-2);fill:url(#radialGradient6944)" d="m42 16v13l36-7v-13l-36 7z"/>
    <path id="path3814" style="fill:url(#radialGradient6946)" d="m79 8-38 7v47.75c0.72261 0.27229 1.4026 0.59025 2 1v-33.75c0-4 0.41719-5.5006 4-7 10.867-4.5478 27-2 32-15z"/>
    <path id="path3850" style="fill:url(#linearGradient6948)" d="m80 6-3 0.5312v63.719c1.917-1.807 3.028-4.043 2.969-6.25h0.031v-58z"/>
    <path id="path3826" style="fill:url(#linearGradient6950)" d="m40 13 1 2 38-7 1-2l-40 7z"/>
    <path id="path3841" style="fill:url(#radialGradient6952)" d="m77.062 23.438-2.062 0.343v33.969c0.72261 0.27229 1.4026 0.59025 2 1v-33.75c0-0.57949 0.03663-1.0803 0.0625-1.5625z"/>
    <path id="path3870" style="fill:url(#radialGradient6954)" d="m46 29-3 0.531v45.719c1.917-1.807 3.028-4.043 2.969-6.25h0.031v-40z"/>
    <path id="path3906" style="color:#000000;fill:url(#radialGradient6956)" transform="matrix(.96732 -.30953 .34731 .97324 -26.268 19.621)" d="m51 65a11 8 0 1 1 -22 0 11 8 0 1 1 22 0z"/>
    <path id="path3927" style="opacity:.2;color:#000000;fill:url(#linearGradient6958)" d="m36.594 62c-1.4136 0.01337-2.9058 0.24864-4.375 0.71875-5.8766 1.8805-9.3783 6.8875-7.8437 11.188 1.5345 4.3 7.5296 6.2555 13.406 4.375 5.8766-1.8805 9.3783-6.8875 7.8438-11.188-1.151-3.225-4.79-5.134-9.031-5.094zm0.09375 1.8438c1.2256-0.01097 2.3477 0.17481 3.3438 0.5 1.9921 0.65038 3.3123 1.8234 3.8438 3.3125 0.5314 1.4891 0.26089 3.1825-0.90625 4.8438s-3.2216 3.2022-5.8125 4.0312c-2.5909 0.82905-5.1954 0.77538-7.1875 0.125s-3.3123-1.8234-3.8438-3.3125c-0.5314-1.4891-0.26089-3.1825 0.90625-4.8438s3.2216-3.2022 5.8125-4.0312c1.2954-0.41452 2.6182-0.61403 3.8438-0.625z"/>
    <path id="path3920" style="opacity:.5;color:#000000;fill:url(#linearGradient6960)" d="m36.594 62c-1.4136 0.01337-2.9058 0.24864-4.375 0.71875-5.8766 1.8805-9.3783 6.8875-7.8437 11.188 1.5345 4.3 7.5296 6.2555 13.406 4.375 5.8766-1.8805 9.3783-6.8875 7.8438-11.188-1.151-3.225-4.79-5.134-9.031-5.094zm0.03125 1.0312c1.3081-0.01099 2.5614 0.17381 3.6562 0.53125 2.1896 0.71488 3.768 2.0554 4.4062 3.8438 0.63821 1.7884 0.22039 3.7677-1.0625 5.5938s-3.4393 3.4331-6.1875 4.3125-5.5291 0.83988-7.7187 0.125-3.768-2.0554-4.4062-3.8438c-0.63821-1.7884-0.22039-3.7677 1.0625-5.5938s3.4393-3.4331 6.1875-4.3125c1.3741-0.4397 2.7544-0.64526 4.0625-0.65625z"/>
    <path id="path3891" style="color:#000000;fill:url(#linearGradient6962)" d="m40 65c1.2209 2.4769-1.4442 5.1714-5.4072 7.1248s-7.7233 2.426-8.9441-0.05091c-1.2209-2.4769 1.0021-6.0683 4.9651-8.0217s8.1654-1.529 9.3862 0.94786z"/>
    <path id="path3966" style="color:#000000;fill:url(#radialGradient6956)" transform="matrix(.96732 -.30953 .34731 .97324 7.732 14.621)" d="m51 65a11 8 0 1 1 -22 0 11 8 0 1 1 22 0z"/>
    <path id="path3968" style="opacity:.2;color:#000000;fill:url(#linearGradient6966)" d="m70.594 57c-1.4136 0.01337-2.9058 0.24864-4.375 0.71875-5.8766 1.8805-9.3783 6.8875-7.8438 11.188 1.5345 4.3 7.5296 6.2555 13.406 4.375 5.8766-1.8805 9.3783-6.8875 7.8438-11.188-1.151-3.225-4.79-5.134-9.031-5.094zm0.09375 1.8438c1.2256-0.01097 2.3477 0.17481 3.3438 0.5 1.9921 0.65038 3.3123 1.8234 3.8438 3.3125 0.5314 1.4891 0.26089 3.1825-0.90625 4.8438s-3.2216 3.2022-5.8125 4.0312c-2.5909 0.82905-5.1954 0.77538-7.1875 0.125s-3.3123-1.8234-3.8438-3.3125c-0.5314-1.4891-0.26089-3.1825 0.90625-4.8438s3.2216-3.2022 5.8125-4.0312c1.2954-0.41452 2.6182-0.61403 3.8438-0.625z"/>
    <path id="path3970" style="opacity:.5;color:#000000;fill:url(#linearGradient6968)" d="m70.594 57c-1.4136 0.01337-2.9058 0.24864-4.375 0.71875-5.8766 1.8805-9.3783 6.8875-7.8438 11.188 1.5345 4.3 7.5296 6.2555 13.406 4.375 5.8766-1.8805 9.3783-6.8875 7.8438-11.188-1.151-3.225-4.79-5.134-9.031-5.094zm0.03125 1.0312c1.3081-0.01099 2.5614 0.17381 3.6562 0.53125 2.1896 0.71488 3.768 2.0554 4.4062 3.8438 0.63821 1.7884 0.22039 3.7677-1.0625 5.5938s-3.4393 3.4331-6.1875 4.3125-5.5291 0.83988-7.7188 0.125c-2.19-0.714-3.768-2.055-4.407-3.843-0.638-1.789-0.22-3.768 1.063-5.594 1.2829-1.8261 3.4393-3.4331 6.1875-4.3125 1.3741-0.4397 2.7544-0.64526 4.0625-0.65625z"/>
    <path id="path3972" style="color:#000000;fill:url(#linearGradient6970)" d="m74 60c1.2209 2.4769-1.4442 5.1714-5.4072 7.1248s-7.7233 2.426-8.9441-0.05091c-1.2209-2.4769 1.0021-6.0683 4.9651-8.0217s8.1654-1.529 9.3862 0.94786z"/>
   </g>
   <path id="path3865" style="opacity:.15;fill:#0044b1" d="m23.381 976.23a2.9564 2.9564 0 0 0 -2.8806 2.9916v49.635a2.9564 2.9564 0 0 0 4.5425 2.5482l38.999-24.818a2.9564 2.9564 0 0 0 0 -5.0967l-38.999-24.817a2.9564 2.9564 0 0 0 -1.6619 -0.44318z"/>
  </g>
 </g>
</svg>
