<?xml version="1.0" encoding="UTF-8" standalone="no"?>
<!-- Created with Inkscape (http://www.inkscape.org/) -->
<svg id="svg6307" xmlns:rdf="http://www.w3.org/1999/02/22-rdf-syntax-ns#" xmlns="http://www.w3.org/2000/svg" height="96" width="96" version="1.1" xmlns:cc="http://creativecommons.org/ns#" xmlns:xlink="http://www.w3.org/1999/xlink" xmlns:dc="http://purl.org/dc/elements/1.1/">
 <defs id="defs6309">
  <filter id="filter6279-2" color-interpolation-filters="sRGB">
   <feGaussianBlur id="feGaussianBlur6281-1" stdDeviation="0.8"/>
  </filter>
  <linearGradient id="linearGradient9181" x1="48" gradientUnits="userSpaceOnUse" y1="1052.4" gradientTransform="translate(0 -.0000078516)" x2="48" y2="902.36">
   <stop id="stop3702-189" style="stop-color:#e6e6e6" offset="0"/>
   <stop id="stop3704-64" style="stop-color:#f5f5f5" offset="1"/>
  </linearGradient>
  <radialGradient id="radialGradient3932" gradientUnits="userSpaceOnUse" cy="54.164" cx="48" gradientTransform="matrix(1.5989 7.831e-8 -1.5662e-7 3.1978 -28.748 -109.21)" r="10.007">
   <stop id="stop3867-6" style="stop-color:#3c3c3c" offset="0"/>
   <stop id="stop3869-4" style="stop-color:#131313" offset="1"/>
  </radialGradient>
 </defs>
 <metadata id="metadata6312">
  <rdf:RDF>
   <cc:Work rdf:about="">
    <dc:format>image/svg+xml</dc:format>
    <dc:type rdf:resource="http://purl.org/dc/dcmitype/StillImage"/>
    <dc:title/>
   </cc:Work>
  </rdf:RDF>
 </metadata>
 <g id="layer1" transform="translate(0 -956.36)">
  <g id="g6843">
   <rect id="rect9283" ry="5" style="filter:url(#filter6279-2)" rx="5" transform="translate(0 -.0000078516)" height="80" width="80" y="964.36" x="8"/>
   <rect id="rect9285" style="fill:url(#linearGradient9181)" rx="5" ry="5" height="80" width="80" y="964.36" x="8"/>
   <g id="g3102" transform="translate(2.425e-7 956.36)">
    <path id="path3919" style="color:#000000;fill:url(#radialGradient3932)" d="m48 22c-5.5228 0-10 4.4772-10 10 0 4.009 2.3443 7.468 5.75 9.0625l-5.719 30.563a2.0167 2.0167 0 0 0 1.969 2.406h16a2.0167 2.0167 0 0 0 1.969 -2.406l-5.719-30.563c3.406-1.594 5.75-5.053 5.75-9.062 0-5.523-4.477-10-10-10z"/>
    <path id="path3947" style="opacity:.3;color:#000000" d="m48 22c-5.5228 0-10 4.4772-10 10 0 4.009 2.3443 7.468 5.75 9.0625l-5.719 30.563a2.0167 2.0167 0 0 0 1.969 2.406h16a2.0167 2.0167 0 0 0 1.969 -2.406l-5.719-30.563c3.406-1.594 5.75-5.053 5.75-9.062 0-5.523-4.477-10-10-10zm0 2.0312c4.424 0 7.9688 3.5448 7.9688 7.9688 0 3.2163-1.8862 5.9511-4.5938 7.2188a2.0335 2.0335 0 0 0 -1.125 2.219l5.719 30.562h-15.938l5.719-30.562a2.0335 2.0335 0 0 0 -1.125 -2.219c-2.708-1.268-4.594-4.003-4.594-7.219 0-4.424 3.5448-7.9688 7.9688-7.9688z"/>
    <path id="path3934" style="opacity:.6;color:#000000" d="m48 22c-5.5228 0-10 4.4772-10 10 0 4.009 2.3443 7.468 5.75 9.0625l-5.719 30.563a2.0167 2.0167 0 0 0 1.969 2.406h16a2.0167 2.0167 0 0 0 1.969 -2.406l-5.719-30.563c3.406-1.594 5.75-5.053 5.75-9.062 0-5.523-4.477-10-10-10zm0 1c4.9826 0 9 4.0174 9 9 0 3.6193-2.1251 6.7225-5.1875 8.1562a0.99982 0.99982 0 0 0 -0.531 1.094l5.719 30.562c0.01068 0.05427-0.0077 0.0077 0 0.0625 0.0077 0.05477-0.0047 0.0074 0 0.0625 0.0047 0.05511-0.0016 0.0072 0 0.0625 0.0016 0.05528 0.0014-0.02404 0 0.03125s0.0045 0.0074 0 0.0625c-0.0045 0.05513 0.0075 0.0077 0 0.0625s0.01048 0.0082 0 0.0625c-0.01048 0.05431-0.0178-0.0224-0.03125 0.03125s0.01638 0.0097 0 0.0625c-0.01638 0.05283-0.01199 0.01065-0.03125 0.0625s0.02208-0.01946 0 0.03125-0.0064 0.01308-0.03125 0.0625c-0.02484 0.04942-0.0037 0.01452-0.03125 0.0625-0.02752 0.04798-0.0011-0.01514-0.03125 0.03125-0.03011 0.04639 0.0014 0.01783-0.03125 0.0625-0.03262 0.04467 0.0038-0.01156-0.03125 0.03125-0.03502 0.04281 0.0061-0.0096-0.03125 0.03125-0.03732 0.04082-0.02299 0.0238-0.0625 0.0625s0.01033-0.0052-0.03125 0.03125c-0.04158 0.03647 0.01227-0.0029-0.03125 0.03125-0.04352 0.03413-0.01717-0.000436-0.0625 0.03125-0.04533 0.03169 0.01575 0.0021-0.03125 0.03125s-0.01396 0.0047-0.0625 0.03125c-0.04854 0.02652 0.01867 0.0074-0.03125 0.03125-0.04992 0.02381-0.01134 0.01022-0.0625 0.03125s-0.01027-0.01818-0.0625 0 0.0219 0.01596-0.03125 0.03125-0.0086-0.01234-0.0625 0c-0.05391 0.01234-0.008 0.02189-0.0625 0.03125-0.05451 0.0094-0.0076-0.0063-0.0625 0-0.05494 0.0063 0.02396-0.0033-0.03125 0s-0.0072-0.000275-0.0625 0h-16c-0.05531-0.000275-0.0073 0.0033-0.0625 0-0.05521-0.0033 0.02369 0.0063-0.03125 0s-0.008 0.0094-0.0625 0c-0.05451-0.0094-0.0086-0.01891-0.0625-0.03125-0.05391-0.01234-0.0093 0.01529-0.0625 0-0.05315-0.01529 0.02098-0.01307-0.03125-0.03125s-0.01134 0.02103-0.0625 0-0.01258-0.0074-0.0625-0.03125c-0.04992-0.02381 0.01729-0.0047-0.03125-0.03125-0.04854-0.02652-0.0155-0.0021-0.0625-0.03125s0.01408 0.000436-0.03125-0.03125c-0.04533-0.03169-0.01898 0.0029-0.0625-0.03125-0.04352-0.03413 0.01033 0.0052-0.03125-0.03125-0.04158-0.03647 0.0083 0.0075-0.03125-0.03125-0.03951-0.0387-0.02518-0.02168-0.0625-0.0625s0.0038 0.01156-0.03125-0.03125c-0.03502-0.04281 0.0014 0.01342-0.03125-0.03125-0.03262-0.04467-0.0011-0.01611-0.03125-0.0625-0.03011-0.04639-0.0037 0.01673-0.03125-0.03125-0.02752-0.04798-0.0064-0.01308-0.03125-0.0625-0.02484-0.04942-0.0092-0.01179-0.03125-0.0625-0.02208-0.05071 0.01926 0.0206 0-0.03125s-0.01487-0.0097-0.03125-0.0625c-0.01638-0.05283 0.01345-0.0089 0-0.0625-0.013-0.053-0.021 0.024-0.031-0.03-0.01048-0.05431 0.0075-0.0077 0-0.0625s0.0045-0.0074 0-0.0625c-0.0045-0.05513 0.0014-0.0072 0-0.0625-0.0014-0.05529-0.0016 0.02403 0-0.03125s-0.0047-0.0074 0-0.0625c0.0047-0.05511-0.0077-0.0077 0-0.0625 0.0077-0.05477-0.01068-0.0082 0-0.0625l5.719-30.563a0.99982 0.99982 0 0 0 -0.531 -1.094c-3.063-1.434-5.188-4.537-5.188-8.156 0-4.9826 4.0174-9 9-9z"/>
   </g>
  </g>
 </g>
</svg>
