<?xml version="1.0" encoding="UTF-8" standalone="no"?>
<!-- Created with Inkscape (http://www.inkscape.org/) -->
<svg id="svg6307" xmlns:rdf="http://www.w3.org/1999/02/22-rdf-syntax-ns#" xmlns="http://www.w3.org/2000/svg" height="96" width="96" version="1.1" xmlns:cc="http://creativecommons.org/ns#" xmlns:xlink="http://www.w3.org/1999/xlink" xmlns:dc="http://purl.org/dc/elements/1.1/">
 <defs id="defs6309">
  <filter id="filter6279-2" color-interpolation-filters="sRGB">
   <feGaussianBlur id="feGaussianBlur6281-1" stdDeviation="0.8"/>
  </filter>
  <linearGradient id="linearGradient9672" x1="48" gradientUnits="userSpaceOnUse" y1="1052.4" gradientTransform="translate(0 -.0000078516)" x2="48" y2="902.36">
   <stop id="stop3702-39" style="stop-color:#e6e6e6" offset="0"/>
   <stop id="stop3704-1" style="stop-color:#f5f5f5" offset="1"/>
  </linearGradient>
  <linearGradient id="linearGradient9675" y2="138.66" gradientUnits="userSpaceOnUse" y1="20.221" x2="48" x1="48">
   <stop id="stop3739-2" style="stop-color:#fff" offset="0"/>
   <stop id="stop3741-1-3" style="stop-color:#fff;stop-opacity:0" offset="1"/>
  </linearGradient>
  <clipPath id="clipPath3613-7">
   <rect id="rect3615-32" style="fill:#fff" rx="6" ry="6" height="84" width="84" y="6" x="6"/>
  </clipPath>
  <filter id="filter3794-65" width="1.384" y="-.192" x="-.192" height="1.384" color-interpolation-filters="sRGB">
   <feGaussianBlur id="feGaussianBlur3796-2" stdDeviation="5.28"/>
  </filter>
  <linearGradient id="linearGradient6089" x1="46.907" gradientUnits="userSpaceOnUse" x2="46.907" gradientTransform="matrix(.85106 0 0 .85106 11.17 966.68)" y1="75.471" y2="36.246">
   <stop id="stop3731-0" style="stop-color:#1c59ad" offset="0"/>
   <stop id="stop3733" style="stop-color:#377ad6" offset="1"/>
  </linearGradient>
 </defs>
 <metadata id="metadata6312">
  <rdf:RDF>
   <cc:Work rdf:about="">
    <dc:format>image/svg+xml</dc:format>
    <dc:type rdf:resource="http://purl.org/dc/dcmitype/StillImage"/>
    <dc:title/>
   </cc:Work>
  </rdf:RDF>
 </metadata>
 <g id="layer1" transform="translate(0 -956.36)">
  <g id="g9703">
   <rect id="rect9283" ry="5" style="filter:url(#filter6279-2)" rx="5" transform="translate(0 -.0000078516)" height="80" width="80" y="964.36" x="8"/>
   <rect id="rect9285" style="fill:url(#linearGradient9672)" rx="5" ry="5" height="80" width="80" y="964.36" x="8"/>
   <g id="layer4" transform="translate(0 956.36)">
    <rect id="rect3171" style="opacity:.5;filter:url(#filter3794-65);stroke:#fff;stroke-linecap:round;stroke-width:.5;fill:url(#linearGradient9675)" clip-path="url(#clipPath3613-7)" rx="12" ry="12" height="66" width="66" y="15" x="15"/>
   </g>
   <path id="rect3362" style="opacity:.5;fill:#999" d="m20.5 976.86v17.938l8.0938-17.938h-8.0938zm9.9062 0 8.0938 17.938v-17.938h-8.0938zm-0.90625 7.0312-3.0312 7h2.9286l1.7188 3.9688h3.2277l-2.375-5.2812-0.0625-0.125-2.4062-5.5625z"/>
   <path id="path3715" style="fill:url(#linearGradient6089)" d="m35 997.32v34.043h6.516v-12.473h2.2606c2.5598 0 4.6777-0.3201 6.3564-0.9308 1.7171-0.619 3.0861-1.44 4.0957-2.4468 1.0361-1.0178 1.7606-2.1788 2.2074-3.5107 0.4542-1.3539 0.69146-2.7725 0.69149-4.2553-0.000028-1.6592-0.25024-3.1133-0.74468-4.3883-0.49222-1.2842-1.2613-2.3456-2.2872-3.2181-1.0073-0.88451-2.3182-1.5695-3.9362-2.0479-1.5942-0.49129-3.5432-0.77129-5.7979-0.77129h-9.3617zm6.516 5.0798h2.4734c2.1374 0 3.768 0.4316 4.867 1.383 1.1122 0.947 1.6223 2.4194 1.6223 4.2553-0.000023 1.9676-0.569 3.4965-1.8085 4.4416-1.2054 0.9328-2.9327 1.3298-5.133 1.3298h-2.0213v-11.41zm25.718 5.133c-1.269 0-2.4155 0.1248-3.4574 0.399-1.0286 0.2604-1.8983 0.6622-2.633 1.1968-0.73471 0.5346-1.3014 1.2126-1.7021 2.0212-0.40075 0.795-0.6117 1.7235-0.6117 2.7926-0.000001 0.9733 0.11865 1.8138 0.34574 2.5266 0.22709 0.699 0.55646 1.34 1.0106 1.8883 0.46754 0.5483 1.0739 1.037 1.7819 1.4893 0.72134 0.4387 1.5514 0.8774 2.5266 1.3298 1.0019 0.466 1.8058 0.8678 2.3936 1.1969 0.60111 0.3152 1.0491 0.6171 1.3564 0.8776 0.30723 0.2467 0.50495 0.4851 0.58511 0.7181 0.0935 0.2193 0.13296 0.4568 0.13298 0.7447-0.000013 0.2879-0.06596 0.564-0.18617 0.8244-0.10688 0.2467-0.27812 0.4731-0.53192 0.665-0.24046 0.1782-0.54347 0.3158-0.93085 0.4255-0.3874 0.096-0.8619 0.1595-1.4096 0.1595-0.49426 0-1.0346-0.064-1.6223-0.1595-0.57442-0.096-1.1674-0.2078-1.7819-0.3724-0.61449-0.1782-1.2339-0.4052-1.8617-0.6383-0.61448-0.233-1.1943-0.4834-1.7553-0.7713v5.1862c0.53433 0.2468 1.0482 0.4472 1.5691 0.6117 0.52097 0.1645 1.0613 0.2893 1.6223 0.399 0.56104 0.1096 1.1541 0.1982 1.7819 0.2393 0.62783 0.054 1.3132 0.08 2.0479 0.08 1.3893 0 2.6545-0.1506 3.7766-0.4521 1.1221-0.3016 2.0576-0.7532 2.8457-1.3564 0.78812-0.6031 1.4076-1.3559 1.8351-2.2606 0.42745-0.9047 0.63828-1.9587 0.6383-3.1649-0.000019-1.0144-0.15826-1.8936-0.45213-2.6064-0.2939-0.7128-0.70233-1.3271-1.25-1.8617-0.5477-0.5346-1.2067-0.9983-1.9681-1.4095-0.76144-0.425-1.6048-0.8517-2.5532-1.2767-0.81487-0.3838-1.4871-0.6969-1.9947-0.9574-0.50762-0.2741-0.8897-0.5253-1.1702-0.7447-0.28053-0.233-0.46501-0.4593-0.55851-0.6649-0.09351-0.2193-0.15958-0.4705-0.15957-0.7447-0.000008-0.5209 0.19783-0.9218 0.55851-1.2234 0.37402-0.3016 0.95369-0.4521 1.7819-0.4521 0.92171 0 1.8442 0.1368 2.766 0.4521 0.92171 0.3153 1.9103 0.73 2.9255 1.2234l1.8351-4.4414c-1.2691-0.6306-2.4946-1.0943-3.6968-1.4096-1.2023-0.3153-2.494-0.4787-3.8298-0.4788z"/>
  </g>
 </g>
</svg>
