<?xml version="1.0" encoding="UTF-8" standalone="no"?>
<!-- Created with Inkscape (http://www.inkscape.org/) -->
<svg id="svg6307" xmlns:rdf="http://www.w3.org/1999/02/22-rdf-syntax-ns#" xmlns="http://www.w3.org/2000/svg" height="96" width="96" version="1.1" xmlns:cc="http://creativecommons.org/ns#" xmlns:xlink="http://www.w3.org/1999/xlink" xmlns:dc="http://purl.org/dc/elements/1.1/">
 <defs id="defs6309">
  <filter id="filter6279-2" color-interpolation-filters="sRGB">
   <feGaussianBlur id="feGaussianBlur6281-1" stdDeviation="0.8"/>
  </filter>
  <linearGradient id="linearGradient6070" x1="48" gradientUnits="userSpaceOnUse" y1="1052.4" gradientTransform="translate(0 -.0000078516)" x2="48" y2="902.36">
   <stop id="stop3660" style="stop-color:#ff9604" offset="0"/>
   <stop id="stop3662" style="stop-color:#fff580" offset="1"/>
  </linearGradient>
  <linearGradient id="linearGradient3689-3" x1="48" xlink:href="#linearGradient3700-86" gradientUnits="userSpaceOnUse" x2="48" y1="90" y2="5.9877"/>
  <linearGradient id="linearGradient3700-86">
   <stop id="stop3702-048" style="stop-color:#dcdcdc" offset="0"/>
   <stop id="stop3704-88" style="stop-color:#f0f0f0" offset="1"/>
  </linearGradient>
  <linearGradient id="linearGradient3701-9" x1="48" xlink:href="#linearGradient3641-7" gradientUnits="userSpaceOnUse" y1="32" gradientTransform="translate(100)" x2="48" y2="80"/>
  <linearGradient id="linearGradient3641-7">
   <stop id="stop3643-7" offset="0"/>
   <stop id="stop3645-6" style="stop-opacity:0" offset="1"/>
  </linearGradient>
  <clipPath id="clipPath3696-4">
   <rect id="rect3698-3" style="fill:#f0f" rx="6" ry="6" height="84" width="84" y="6" x="106"/>
  </clipPath>
  <filter id="filter3665-0" color-interpolation-filters="sRGB">
   <feGaussianBlur id="feGaussianBlur3667-3" stdDeviation="0.69"/>
  </filter>
  <linearGradient id="linearGradient3635-0" y2="36" gradientUnits="userSpaceOnUse" y1="88" x2="48" x1="48">
   <stop id="stop3729-2" style="stop-color:#d5d5d5" offset="0"/>
   <stop id="stop3731-5" style="stop-color:#f1f1f1" offset="1"/>
  </linearGradient>
  <linearGradient id="linearGradient3707-4" x1="51" xlink:href="#linearGradient3641-7" gradientUnits="userSpaceOnUse" y1="62" gradientTransform="translate(100,-1)" x2="51" y2="21"/>
  <clipPath id="clipPath3703-4">
   <rect id="rect3705-6" style="fill:#f0f" rx="6" ry="6" height="84" width="84" y="6" x="106"/>
  </clipPath>
  <filter id="filter3649-9" color-interpolation-filters="sRGB">
   <feGaussianBlur id="feGaussianBlur3651-2" stdDeviation="1.38"/>
  </filter>
  <linearGradient id="linearGradient3627-2" x1="48" xlink:href="#linearGradient3700-86" gradientUnits="userSpaceOnUse" x2="48" y1="88" y2="32"/>
 </defs>
 <metadata id="metadata6312">
  <rdf:RDF>
   <cc:Work rdf:about="">
    <dc:format>image/svg+xml</dc:format>
    <dc:type rdf:resource="http://purl.org/dc/dcmitype/StillImage"/>
    <dc:title/>
   </cc:Work>
  </rdf:RDF>
 </metadata>
 <g id="layer1" transform="translate(0 -956.36)">
  <g id="g6829">
   <g id="g6841">
    <rect id="rect9283" style="filter:url(#filter6279-2)" transform="translate(0 -.0000078516)" rx="5" ry="5" height="80" width="80" y="964.36" x="8"/>
    <rect id="rect9285" style="opacity:.9;fill:url(#linearGradient6070)" rx="5" ry="5" height="80" width="80" y="964.36" x="8"/>
    <g id="layer1-5" transform="matrix(.65476 0 0 .65476 16.571 972.93)">
     <rect id="rect2419" style="fill:url(#linearGradient3689-3)" rx="6" ry="6" height="84" width="84" y="6" x="6"/>
     <path id="path3653" style="opacity:.3;filter:url(#filter3665-0);fill:url(#linearGradient3701-9)" clip-path="url(#clipPath3696-4)" transform="translate(-100,-1)" d="m112 89c-3.324 0-6-2.676-6-6v-6l42-42 42 42v6c0 3.324-2.676 6-6 6h-72z"/>
     <path id="path3619" style="fill:url(#linearGradient3635-0)" d="m12 90c-3.324 0-6-2.676-6-6v-6l42-42 42 42v6c0 3.324-2.676 6-6 6h-72z"/>
     <path id="path3718" style="opacity:.4;fill:#fff" d="m48 36-42 42v1l42-42 42 42v-1l-42-42z"/>
     <path id="path3637" style="opacity:.4;filter:url(#filter3649-9);fill:url(#linearGradient3707-4)" clip-path="url(#clipPath3703-4)" transform="translate(-100,1)" d="m112 7c-3.324 0-6 2.676-6 6v6l42 42 42-42v-6c0-3.324-2.676-6-6-6h-72z"/>
     <path id="path3613" style="fill:url(#linearGradient3627-2)" d="m12 6c-3.324 0-6 2.676-6 6v6l42 42 42-42v-6c0-3.324-2.676-6-6-6h-72z"/>
     <path id="path3709" style="opacity:.6;fill:#fff" d="m6 17v1l42 42 42-42v-1l-42 42-42-42z"/>
    </g>
   </g>
  </g>
 </g>
</svg>
