<?xml version="1.0" encoding="UTF-8" standalone="no"?>
<!-- Created with Inkscape (http://www.inkscape.org/) -->
<svg id="svg6307" xmlns:rdf="http://www.w3.org/1999/02/22-rdf-syntax-ns#" xmlns="http://www.w3.org/2000/svg" height="96" width="96" version="1.1" xmlns:cc="http://creativecommons.org/ns#" xmlns:xlink="http://www.w3.org/1999/xlink" xmlns:dc="http://purl.org/dc/elements/1.1/">
 <defs id="defs6309">
  <filter id="filter6279-2" color-interpolation-filters="sRGB">
   <feGaussianBlur id="feGaussianBlur6281-1" stdDeviation="0.8"/>
  </filter>
  <linearGradient id="linearGradient9181" x1="48" gradientUnits="userSpaceOnUse" y1="1052.4" gradientTransform="translate(0 -.0000078516)" x2="48" y2="902.36">
   <stop id="stop3702-64" style="stop-color:#e6e6e6" offset="0"/>
   <stop id="stop3704-00" style="stop-color:#f5f5f5" offset="1"/>
  </linearGradient>
  <linearGradient id="linearGradient3111-4" y2="138.66" gradientUnits="userSpaceOnUse" x2="48" y1="20.221" x1="48">
   <stop id="stop3739-2" style="stop-color:#fff" offset="0"/>
   <stop id="stop3741-1-5" style="stop-color:#fff;stop-opacity:0" offset="1"/>
  </linearGradient>
  <clipPath id="clipPath3613-17">
   <rect id="rect3615-43" style="fill:#fff" rx="6" ry="6" height="84" width="84" y="6" x="6"/>
  </clipPath>
  <filter id="filter3794-14" width="1.384" y="-.192" x="-.192" height="1.384" color-interpolation-filters="sRGB">
   <feGaussianBlur id="feGaussianBlur3796-69" stdDeviation="5.28"/>
  </filter>
  <linearGradient id="linearGradient6073" x1="-253.92" gradientUnits="userSpaceOnUse" x2="-132.57" gradientTransform="matrix(0 .62702 -.62702 0 17.989 1114.5)" y1="-47.862" y2="-47.862">
   <stop id="stop32" style="stop-color:#e1a075" offset="0"/>
   <stop id="stop34" style="stop-color:#81422a" offset=".7634"/>
  </linearGradient>
 </defs>
 <metadata id="metadata6312">
  <rdf:RDF>
   <cc:Work rdf:about="">
    <dc:format>image/svg+xml</dc:format>
    <dc:type rdf:resource="http://purl.org/dc/dcmitype/StillImage"/>
    <dc:title/>
   </cc:Work>
  </rdf:RDF>
 </metadata>
 <g id="layer1" transform="translate(0 -956.36)">
  <g id="g6866">
   <rect id="rect9283" ry="5" style="filter:url(#filter6279-2)" rx="5" transform="translate(0 -.0000078516)" height="80" width="80" y="964.36" x="8"/>
   <rect id="rect9285" style="fill:url(#linearGradient9181)" rx="5" ry="5" height="80" width="80" y="964.36" x="8"/>
   <g id="layer3" transform="translate(0 956.36)">
    <rect id="rect3171" style="opacity:.5;filter:url(#filter3794-14);stroke:#fff;stroke-linecap:round;stroke-width:.5;fill:url(#linearGradient3111-4)" clip-path="url(#clipPath3613-17)" rx="12" ry="12" height="66" width="66" y="15" x="15"/>
   </g>
   <path id="path3884" style="fill:url(#linearGradient6073)" d="m75.499 1020.4c0.07762-5.6481-3.2297-12.36-11.247-16.969-9.2736-5.3816-16.283-0.7446-16.283-0.7446s7.8009-1.7035 10.836 3.7621c3.0341 5.467 0.55413 8.6788-0.64661 10.757-4.0204 6.9643-0.17353 11.036 3.0763 12.913 3.2498 1.8767 9.2121 2.273 12.697-3.7621 0.97997-1.6977 1.5372-3.7465 1.5675-5.9567zm-11.463-33.78c0-3.7527-2.6515-9.1113-9.6208-9.1113-6.9699 0-15.033 6.963-15.009 19.829-0.02382 10.722 7.5046 14.48 7.5046 14.48s-5.372-5.8861-2.1554-11.247c3.2166-5.361 7.2395-4.8398 9.6404-4.8398 8.0415 0 9.6404-5.3586 9.6404-9.1114zm-8.5823 21.691s-2.4295 7.6081-8.6803 7.5047c-6.252-0.1055-7.7937-3.8592-8.9938-5.9371-4.0204-6.9649-9.4669-5.6774-12.717-3.8013-3.2498 1.876-6.5613 6.8567-3.0763 12.893 3.4831 6.035 13.558 9.5302 24.689 3.0763 9.2974-5.339 8.7782-13.736 8.7782-13.736z"/>
  </g>
 </g>
</svg>
