<?xml version="1.0" encoding="UTF-8" standalone="no"?>
<!-- Created with Inkscape (http://www.inkscape.org/) -->
<svg id="svg6307" xmlns:rdf="http://www.w3.org/1999/02/22-rdf-syntax-ns#" xmlns="http://www.w3.org/2000/svg" height="96" width="96" version="1.1" xmlns:cc="http://creativecommons.org/ns#" xmlns:xlink="http://www.w3.org/1999/xlink" xmlns:dc="http://purl.org/dc/elements/1.1/">
 <defs id="defs6309">
  <filter id="filter6279-2" color-interpolation-filters="sRGB">
   <feGaussianBlur id="feGaussianBlur6281-1" stdDeviation="0.8"/>
  </filter>
  <linearGradient id="linearGradient7022" x1="48" gradientUnits="userSpaceOnUse" y1="1052.4" gradientTransform="translate(0 -.0000078516)" x2="48" y2="902.36">
   <stop id="stop3702-388" style="stop-color:#ebebeb" offset="0"/>
   <stop id="stop3704-31" style="stop-color:#fafafa" offset="1"/>
  </linearGradient>
  <linearGradient id="linearGradient3083-1" x1="71.672" gradientUnits="userSpaceOnUse" x2="71.672" gradientTransform="matrix(1.3333 0 0 1.3333 -50.402 945.23)" y1="62.025" y2="26.414">
   <stop id="stop3699-7" style="stop-color:#bababa" offset="0"/>
   <stop id="stop3701-08" style="stop-color:#d2d2d2" offset="1"/>
  </linearGradient>
  <linearGradient id="linearGradient7014" y2="138.66" gradientUnits="userSpaceOnUse" y1="20.221" x2="48" x1="48">
   <stop id="stop3739-2" style="stop-color:#fff" offset="0"/>
   <stop id="stop3741-1-7" style="stop-color:#fff;stop-opacity:0" offset="1"/>
  </linearGradient>
  <clipPath id="clipPath3613-7">
   <rect id="rect3615-54" style="fill:#fff" rx="6" ry="6" height="84" width="84" y="6" x="6"/>
  </clipPath>
  <filter id="filter3794-81" width="1.384" y="-.192" x="-.192" height="1.384" color-interpolation-filters="sRGB">
   <feGaussianBlur id="feGaussianBlur3796-2" stdDeviation="5.28"/>
  </filter>
 </defs>
 <metadata id="metadata6312">
  <rdf:RDF>
   <cc:Work rdf:about="">
    <dc:format>image/svg+xml</dc:format>
    <dc:type rdf:resource="http://purl.org/dc/dcmitype/StillImage"/>
    <dc:title/>
   </cc:Work>
  </rdf:RDF>
 </metadata>
 <g id="layer1" transform="translate(0 -956.36)">
  <g id="g7042">
   <rect id="rect9283" ry="5" style="filter:url(#filter6279-2)" rx="5" transform="translate(0 -.0000078516)" height="80" width="80" y="964.36" x="8"/>
   <rect id="rect9285" style="fill:url(#linearGradient7022)" rx="5" ry="5" height="80" width="80" y="964.36" x="8"/>
   <path id="path3659" style="fill:url(#linearGradient3083-1)" d="m50.646 980.36c-1.6457 0.00005-3.0716 0.56957-4.25 1.6667-1.1784 1.0972-1.75 2.4142-1.75 3.9583-0.000011 1.5442 0.57158 2.8612 1.75 3.9583 1.1784 1.0769 2.6043 1.625 4.25 1.625 1.6457 0.00004 3.0502-0.54813 4.2083-1.625 1.1784-1.0971 1.75-2.4142 1.75-3.9583-0.00002-1.5441-0.57161-2.8612-1.75-3.9583-1.1581-1.0971-2.5626-1.6666-4.2083-1.6667zm-5.5833 16.25c-1.341 0.00003-2.7465 0.26241-4.25 0.75-1.5035 0.46733-3.1043 1.0379-4.75 1.7083l-0.66667 2.75c0.48762-0.1828 1.0795-0.3801 1.75-0.5833 0.69079-0.2032 1.3498-0.3333 2-0.3334 1.3206 0.0001 2.1994 0.2614 2.6667 0.7084 0.46729 0.447 0.70833 1.2372 0.70833 2.375-0.000007 0.6298-0.08747 1.3113-0.25 2.0833-0.14223 0.7518-0.31818 1.5634-0.54167 2.4167l-2.5 8.875c-0.2235 0.9346-0.35675 1.7899-0.45833 2.5416-0.1016 0.7315-0.16667 1.4556-0.16667 2.1667-0.000004 1.8286 0.65904 3.343 2 4.5417 1.3613 1.1784 3.2702 1.75 5.7083 1.75 1.5847 0 2.9679-0.1983 4.1667-0.625 1.1987-0.4064 2.8219-0.9993 4.8333-1.7917l0.66667-2.75c-0.34542 0.1626-0.89462 0.3598-1.6667 0.5833-0.77208 0.2032-1.4738 0.2917-2.0833 0.2917-1.3003 0-2.2218-0.1983-2.75-0.625-0.52827-0.4267-0.79168-1.2382-0.79167-2.4167-0.000015-0.4673 0.08744-1.169 0.25-2.0833 0.16252-0.9143 0.33848-1.7055 0.54167-2.4167l2.5-8.875c0.24379-0.8126 0.41872-1.6914 0.5-2.6666 0.10157-0.9752 0.12497-1.6556 0.125-2.0417-0.00002-1.8692-0.63772-3.3835-1.9583-4.5416-1.3003-1.1784-3.1656-1.7916-5.5833-1.7917z"/>
   <g id="layer3" transform="translate(0 956.36)">
    <rect id="rect3171" style="opacity:.5;filter:url(#filter3794-81);stroke:#fff;stroke-linecap:round;stroke-width:.5;fill:url(#linearGradient7014)" clip-path="url(#clipPath3613-7)" rx="12" ry="12" height="66" width="66" y="15" x="15"/>
   </g>
  </g>
 </g>
</svg>
