<?xml version="1.0" encoding="UTF-8" standalone="no"?>
<!-- Created with Inkscape (http://www.inkscape.org/) -->
<svg id="svg6307" xmlns:rdf="http://www.w3.org/1999/02/22-rdf-syntax-ns#" xmlns="http://www.w3.org/2000/svg" height="96" width="96" version="1.1" xmlns:cc="http://creativecommons.org/ns#" xmlns:xlink="http://www.w3.org/1999/xlink" xmlns:dc="http://purl.org/dc/elements/1.1/">
 <defs id="defs6309">
  <filter id="filter6279-2" color-interpolation-filters="sRGB">
   <feGaussianBlur id="feGaussianBlur6281-1" stdDeviation="0.8"/>
  </filter>
  <linearGradient id="linearGradient6968" x1="48" gradientUnits="userSpaceOnUse" y1="1052.4" gradientTransform="translate(0 -.0000078516)" x2="48" y2="902.36">
   <stop id="stop3702-388" style="stop-color:#ebebeb" offset="0"/>
   <stop id="stop3704-31" style="stop-color:#fafafa" offset="1"/>
  </linearGradient>
  <linearGradient id="linearGradient3062" x1="18" gradientUnits="userSpaceOnUse" x2="78" gradientTransform="matrix(0 -.91667 .91667 0 4.0001 1048.4)" y1="48" y2="48">
   <stop id="stop3699-91" style="stop-color:#bababa" offset="0"/>
   <stop id="stop3701-9" style="stop-color:#d2d2d2" offset="1"/>
  </linearGradient>
  <linearGradient id="linearGradient6960" y2="138.66" gradientUnits="userSpaceOnUse" y1="20.221" x2="48" x1="48">
   <stop id="stop3739-2" style="stop-color:#fff" offset="0"/>
   <stop id="stop3741-1-7" style="stop-color:#fff;stop-opacity:0" offset="1"/>
  </linearGradient>
  <clipPath id="clipPath3613-7">
   <rect id="rect3615-54" style="fill:#fff" rx="6" ry="6" height="84" width="84" y="6" x="6"/>
  </clipPath>
  <filter id="filter3794-81" width="1.384" y="-.192" x="-.192" height="1.384" color-interpolation-filters="sRGB">
   <feGaussianBlur id="feGaussianBlur3796-2" stdDeviation="5.28"/>
  </filter>
 </defs>
 <metadata id="metadata6312">
  <rdf:RDF>
   <cc:Work rdf:about="">
    <dc:format>image/svg+xml</dc:format>
    <dc:type rdf:resource="http://purl.org/dc/dcmitype/StillImage"/>
    <dc:title/>
   </cc:Work>
  </rdf:RDF>
 </metadata>
 <g id="layer1" transform="translate(0 -956.36)">
  <g id="g6988">
   <rect id="rect9283" ry="5" style="filter:url(#filter6279-2)" rx="5" transform="translate(0 -.0000078516)" height="80" width="80" y="964.36" x="8"/>
   <rect id="rect9285" style="fill:url(#linearGradient6968)" rx="5" ry="5" height="80" width="80" y="964.36" x="8"/>
   <path id="rect3267" style="display:block;fill:url(#linearGradient3062)" d="m20.5 1008.2c0 1.0823 0.89779 1.9586 1.9985 1.9586h3.8772c0.5156 1.9352 1.2944 3.7842 2.2783 5.476l-2.758 2.7579c-0.38918 0.3893-0.5953 0.8554-0.59957 1.3591-0.0044 0.5036 0.17696 1.0163 0.55959 1.3989l5.3961 5.3961c0.76527 0.7653 1.9796 0.7384 2.758-0.039l2.758-2.758c1.6918 0.9839 3.5409 1.7627 5.476 2.2784v3.8771c0 1.1007 0.87632 1.9986 1.9586 1.9986h7.5945c1.0823 0 1.9586-0.8979 1.9586-1.9986v-3.8771c1.9352-0.5157 3.7842-1.2945 5.476-2.2784l2.758 2.758c0.77835 0.7783 1.9927 0.8053 2.758 0.039l5.3961-5.3961c0.76527-0.7652 0.73838-1.9796-0.03997-2.758l-2.758-2.7579c0.98394-1.6918 1.7627-3.5408 2.2783-5.476h3.8772c1.1008 0 1.9985-0.8763 1.9985-1.9586v-7.5945c0-1.0822-0.89779-1.9586-1.9985-1.9586h-3.8772c-0.5156-1.9351-1.2944-3.7842-2.2783-5.476l2.758-2.758c0.77835-0.77835 0.80524-1.9927 0.03997-2.758l-5.3961-5.3961c-0.76527-0.76527-1.9796-0.73838-2.758 0.0399l-2.758 2.758c-1.6918-0.98394-3.5409-1.7627-5.476-2.2783v-3.8772c0-1.1007-0.87632-1.9985-1.9586-1.9985h-7.5945c-1.0823 0-1.9586 0.8978-1.9586 1.9985v3.8772c-1.9352 0.5156-3.7842 1.2944-5.476 2.2783l-2.758-2.758c-0.77835-0.77835-1.9927-0.80525-2.758-0.0399l-5.3961 5.3961c-0.76527 0.76528-0.73838 1.9796 0.03997 2.758l2.758 2.758c-0.98394 1.6918-1.7627 3.5409-2.2783 5.476h-3.8772c-1.1008 0-1.9985 0.8764-1.9985 1.9586v7.5945zm19.186-3.7972c0-4.5894 3.7247-8.314 8.314-8.314s8.314 3.7246 8.314 8.314c0 4.5892-3.7247 8.3139-8.314 8.3139s-8.314-3.7247-8.314-8.3139z"/>
   <g id="layer3" transform="translate(0 956.36)">
    <rect id="rect3171" style="opacity:.5;filter:url(#filter3794-81);stroke:#fff;stroke-linecap:round;stroke-width:.5;fill:url(#linearGradient6960)" clip-path="url(#clipPath3613-7)" rx="12" ry="12" height="66" width="66" y="15" x="15"/>
   </g>
  </g>
 </g>
</svg>
