<?xml version="1.0" encoding="UTF-8" standalone="no"?>
<!-- Created with Inkscape (http://www.inkscape.org/) -->
<svg id="svg6307" xmlns:rdf="http://www.w3.org/1999/02/22-rdf-syntax-ns#" xmlns="http://www.w3.org/2000/svg" height="96" width="96" version="1.1" xmlns:cc="http://creativecommons.org/ns#" xmlns:xlink="http://www.w3.org/1999/xlink" xmlns:dc="http://purl.org/dc/elements/1.1/">
 <defs id="defs6309">
  <filter id="filter6279-2" color-interpolation-filters="sRGB">
   <feGaussianBlur id="feGaussianBlur6281-1" stdDeviation="0.8"/>
  </filter>
  <linearGradient id="linearGradient7076" x1="48" gradientUnits="userSpaceOnUse" y1="1052.4" gradientTransform="translate(0 -.0000078516)" x2="48" y2="902.36">
   <stop id="stop3702-388" style="stop-color:#ebebeb" offset="0"/>
   <stop id="stop3704-31" style="stop-color:#fafafa" offset="1"/>
  </linearGradient>
  <linearGradient id="linearGradient3062" x1="-50.299" gradientUnits="userSpaceOnUse" x2="-50.299" gradientTransform="matrix(1.3298 0 0 1.3298 113.73 957.07)" y1="53.904" y2="17.808">
   <stop id="stop3699-75" style="stop-color:#bababa" offset="0"/>
   <stop id="stop3701-97" style="stop-color:#d2d2d2" offset="1"/>
  </linearGradient>
  <linearGradient id="linearGradient7068" y2="138.66" gradientUnits="userSpaceOnUse" y1="20.221" x2="48" x1="48">
   <stop id="stop3739-2" style="stop-color:#fff" offset="0"/>
   <stop id="stop3741-1-7" style="stop-color:#fff;stop-opacity:0" offset="1"/>
  </linearGradient>
  <clipPath id="clipPath3613-7">
   <rect id="rect3615-54" style="fill:#fff" rx="6" ry="6" height="84" width="84" y="6" x="6"/>
  </clipPath>
  <filter id="filter3794-81" width="1.384" y="-.192" x="-.192" height="1.384" color-interpolation-filters="sRGB">
   <feGaussianBlur id="feGaussianBlur3796-2" stdDeviation="5.28"/>
  </filter>
 </defs>
 <metadata id="metadata6312">
  <rdf:RDF>
   <cc:Work rdf:about="">
    <dc:format>image/svg+xml</dc:format>
    <dc:type rdf:resource="http://purl.org/dc/dcmitype/StillImage"/>
    <dc:title/>
   </cc:Work>
  </rdf:RDF>
 </metadata>
 <g id="layer1" transform="translate(0 -956.36)">
  <g id="g7096">
   <rect id="rect9283" ry="5" style="filter:url(#filter6279-2)" rx="5" transform="translate(0 -.0000078516)" height="80" width="80" y="964.36" x="8"/>
   <rect id="rect9285" style="fill:url(#linearGradient7076)" rx="5" ry="5" height="80" width="80" y="964.36" x="8"/>
   <path id="path3738" style="fill:url(#linearGradient3062)" d="m47.906 980.36c-8.4255 0-14.375 4.0964-14.375 9.9688 0 3.4468 2.5519 5.9375 6.0625 5.9375 3.2553 0 5.5-2.125 5.5-5.125 0-1.7234-0.69083-3.135-2.0312-4.1562-1.1489-0.89362-1.2188-0.95944-1.2188-1.4062 0-0.89362 1.3963-1.5938 3.375-1.5938 3.8298 0 6 2.5632 6 7.0312 0 2.617-0.96676 5.8777-2.5625 8.75-3.5106 6.2553-4 7.5339-4 10.406 0 0.6383 0.05984 1.6662 0.1875 2.6875h3.4375c0.19149-4.4681 0.76131-5.5612 4.7188-8.625 4.9149-3.766 5.4907-4.2108 5.9375-4.5938 2.234-1.9149 3.5312-4.8424 3.5312-7.9062 0-6.9574-5.6263-11.375-14.562-11.375zm-1.2188 36c-3.3191 0-6 2.6808-6 6 0 3.2553 2.6822 6 5.9375 6 3.383 0 6.0625-2.6809 6.0625-6 0-3.3192-2.6809-6-6-6z"/>
   <g id="layer3" transform="translate(0 956.36)">
    <rect id="rect3171" style="opacity:.5;filter:url(#filter3794-81);stroke:#fff;stroke-linecap:round;stroke-width:.5;fill:url(#linearGradient7068)" clip-path="url(#clipPath3613-7)" rx="12" ry="12" height="66" width="66" y="15" x="15"/>
   </g>
  </g>
 </g>
</svg>
