<?xml version="1.0" encoding="UTF-8" standalone="no"?>
<!-- Created with Inkscape (http://www.inkscape.org/) -->

<svg
   xmlns:dc="http://purl.org/dc/elements/1.1/"
   xmlns:cc="http://creativecommons.org/ns#"
   xmlns:rdf="http://www.w3.org/1999/02/22-rdf-syntax-ns#"
   xmlns:svg="http://www.w3.org/2000/svg"
   xmlns="http://www.w3.org/2000/svg"
   xmlns:sodipodi="http://sodipodi.sourceforge.net/DTD/sodipodi-0.dtd"
   xmlns:inkscape="http://www.inkscape.org/namespaces/inkscape"
   id="svg2"
   height="96"
   width="96"
   version="1.0"
   inkscape:version="0.48.1 r9760"
   sodipodi:docname="gpm-primary-000.svg.original">
  <sodipodi:namedview
     pagecolor="#ffffff"
     bordercolor="#666666"
     borderopacity="1"
     objecttolerance="10"
     gridtolerance="10"
     guidetolerance="10"
     inkscape:pageopacity="0"
     inkscape:pageshadow="2"
     inkscape:window-width="1280"
     inkscape:window-height="728"
     id="namedview24"
     showgrid="false"
     inkscape:zoom="2.8958333"
     inkscape:cx="48"
     inkscape:cy="48"
     inkscape:window-x="0"
     inkscape:window-y="25"
     inkscape:window-maximized="1"
     inkscape:current-layer="svg2" />
  <defs
     id="defs4">
    <linearGradient
       id="linearGradient3763"
       y2="24.267"
       gradientUnits="userSpaceOnUse"
       x2="39.196"
       y1="72"
       x1="39">
      <stop
         id="stop4083"
         style="stop-color:#aaa"
         offset="0" />
      <stop
         id="stop4085"
         style="stop-color:#f0f0f0"
         offset="1" />
    </linearGradient>
    <linearGradient
       id="linearGradient2927"
       y2="11.016"
       gradientUnits="userSpaceOnUse"
       x2="19"
       gradientTransform="matrix(0,-3,2.9653,0,13.336,19)"
       y1="11.016"
       x1="11">
      <stop
         id="stop3185"
         style="stop-color:#c80000"
         offset="0" />
      <stop
         id="stop3187"
         style="stop-color:#f3604d"
         offset="1" />
    </linearGradient>
  </defs>
  <metadata
     id="metadata7">
    <rdf:RDF>
      <cc:Work
         rdf:about="">
        <dc:format>image/svg+xml</dc:format>
        <dc:type
           rdf:resource="http://purl.org/dc/dcmitype/StillImage" />
        <dc:title></dc:title>
      </cc:Work>
    </rdf:RDF>
  </metadata>
  <g
     id="layer1"
     transform="matrix(0,-1,1,0,72.999775,97.000175)">
    <path
       id="path3797"
       style="opacity:0.07999998"
       d="m 12,-52.031 c -4.9542,0 -9.0312,4.077 -9.0312,9.0312 v 36 c 0,4.9542 4.077,9.0312 9.0312,9.0312 h 66 c 4.9542,0 9.0312,-4.077 9.0312,-9.0312 v -6.9688 h 0.96875 c 2.7526,0 5.0312,-2.2787 5.0312,-5.0312 v -12 c 0,-2.7526 -2.2787,-5.0312 -5.0312,-5.0312 H 87.0312 v -6.9688 c 0,-4.9542 -4.077,-9.0312 -9.0312,-9.0312 H 12 z m 4,12.062 h 58 c 0.6901,0 0.96875,0.27864 0.96875,0.96875 v 28 c 0,0.69011 -0.27864,0.96875 -0.96875,0.96875 H 16 c -0.69011,0 -0.96875,-0.27864 -0.96875,-0.96875 v -28 c 0,-0.6901 0.27864,-0.96875 0.96875,-0.96875 z"
       inkscape:connector-curvature="0" />
    <path
       id="path3793"
       style="opacity:0.1"
       d="m 12,-50.969 c -4.3781,0 -7.9688,3.5907 -7.9688,7.9688 v 36 c 0,4.3781 3.5907,7.9688 7.9688,7.9688 h 66 c 4.3781,0 7.9688,-3.5907 7.9688,-7.9688 v -8.0312 H 88 c 2.1707,0 3.9688,-1.7981 3.9688,-3.9688 v -12 c 0,-2.1707 -1.7981,-3.9688 -3.9688,-3.9688 h -2.0312 v -8.0312 c 0,-4.3781 -3.5907,-7.9688 -7.9688,-7.9688 H 12 z m 4,9.9375 h 58 c 1.1884,0 2.0312,0.84288 2.0312,2.0312 v 28 c 0,1.1884 -0.84288,2.0312 -2.0312,2.0312 H 16 c -1.1884,0 -2.0312,-0.84288 -2.0312,-2.0312 v -28 c 0,-1.1884 0.84288,-2.0312 2.0312,-2.0312 z"
       inkscape:connector-curvature="0" />
    <path
       id="path3789"
       style="opacity:0.15"
       d="m 12,-50.031 c -3.8714,0 -7.0312,3.1598 -7.0312,7.0312 v 36 c 0,3.8714 3.1598,7.0312 7.0312,7.0312 h 66 c 3.8714,0 7.0312,-3.1598 7.0312,-7.0312 v -8.9688 H 88 c 1.6533,0 3.0312,-1.3779 3.0312,-3.0312 v -12 c 0,-1.6533 -1.3779,-3.0312 -3.0312,-3.0312 h -2.9688 v -8.9688 c 0,-3.8714 -3.1598,-7.0312 -7.0312,-7.0312 H 12 z m 4,8.0625 h 58 c 1.6707,0 2.9688,1.2981 2.9688,2.9688 v 28 c 0,1.6707 -1.2981,2.9688 -2.9688,2.9688 H 16 c -1.6707,0 -2.9688,-1.2981 -2.9688,-2.9688 v -28 c 0,-1.6707 1.2981,-2.9688 2.9688,-2.9688 z"
       inkscape:connector-curvature="0" />
    <path
       id="path3783"
       style="opacity:0.3"
       d="m 12,-49 c -3.3273,0 -6,2.6727 -6,6 v 36 c 0,3.3273 2.6727,6 6,6 h 66 c 3.3273,0 6,-2.6727 6,-6 v -10 h 4 c 1.108,0 2,-0.892 2,-2 v -12 c 0,-1.108 -0.892,-2 -2,-2 h -4 v -10 c 0,-3.3273 -2.6727,-6 -6,-6 H 12 z m 4,6 h 58 c 2.216,0 4,1.784 4,4 v 28 c 0,2.216 -1.784,4 -4,4 H 16 c -2.216,0 -4,-1.784 -4,-4 v -28 c 0,-2.216 1.784,-4 4,-4 z"
       inkscape:connector-curvature="0" />
    <path
       id="rect2975"
       style="fill:url(#linearGradient3763)"
       transform="translate(0,-74)"
       d="m 12,24 c -3.3273,0 -6,2.6727 -6,6 v 36 c 0,3.3273 2.6727,6 6,6 h 66 c 3.3273,0 6,-2.6727 6,-6 V 56 h 4 c 1.108,0 2,-0.892 2,-2 V 42 c 0,-1.108 -0.892,-2 -2,-2 H 84 V 30 c 0,-3.3273 -2.6727,-6 -6,-6 H 12 z m 4,6 h 58 c 2.216,0 4,1.784 4,4 v 28 c 0,2.216 -1.784,4 -4,4 H 16 c -2.216,0 -4,-1.784 -4,-4 V 34 c 0,-2.216 1.784,-4 4,-4 z"
       inkscape:connector-curvature="0" />
    <path
       id="path3765"
       style="opacity:0.75;fill:#ffffff"
       transform="translate(0,-74)"
       d="m 12,24 c -3.3273,0 -6,2.6727 -6,6 v 1 c 0,-3.3273 2.6727,-6 6,-6 h 66 c 3.3273,0 6,2.6727 6,6 v -1 c 0,-3.3273 -2.6727,-6 -6,-6 H 12 z m 72,16 v 1 h 4 c 1.108,0 2,0.892 2,2 v -1 c 0,-1.108 -0.892,-2 -2,-2 H 84 z M 12,62 v 1 c 0,2.216 1.784,4 4,4 h 58 c 2.216,0 4,-1.784 4,-4 v -1 c 0,2.216 -1.784,4 -4,4 H 16 c -2.216,0 -4,-1.784 -4,-4 z"
       inkscape:connector-curvature="0" />
    <path
       id="path3774"
       style="opacity:0.15"
       transform="translate(0,-74)"
       d="m 16,29 c -2.216,0 -4,1.784 -4,4 v 1 c 0,-2.216 1.784,-4 4,-4 h 58 c 2.216,0 4,1.784 4,4 v -1 c 0,-2.216 -1.784,-4 -4,-4 H 16 z m 74,24 c 0,1.108 -0.892,2 -2,2 h -4 v 1 h 4 c 1.108,0 2,-0.892 2,-2 V 53 z M 6,65 v 1 c 0,3.3273 2.6727,6 6,6 h 66 c 3.3273,0 6,-2.6727 6,-6 v -1 c 0,3.3273 -2.6727,6 -6,6 H 12 C 8.6727,71 6,68.327 6,65 z"
       inkscape:connector-curvature="0" />
    <path
       id="path3761"
       style="opacity:0.1;fill-rule:evenodd"
       d="m 53.844,-38.969 c 7.23e-4,-8.4e-5 -0.09447,0.03137 -0.09375,0.03125 7.18e-4,-1.2e-4 -0.09446,1.55e-4 -0.09375,0 7.11e-4,-1.55e-4 -0.09445,0.03144 -0.09375,0.03125 10e-4,-2.62e-4 -0.126,0.03158 -0.125,0.03125 10e-4,-3.35e-4 -0.12598,0.06291 -0.125,0.0625 9.78e-4,-4.08e-4 -0.1572,0.06298 -0.15625,0.0625 9.46e-4,-4.78e-4 -0.12591,0.06305 -0.125,0.0625 9.08e-4,-5.45e-4 -0.09462,0.09436 -0.09375,0.09375 8.66e-4,-6.1e-4 -0.12582,0.06317 -0.125,0.0625 8.2e-4,-6.71e-4 -0.09452,0.09448 -0.09375,0.09375 5.77e-4,-5.47e-4 -0.06575,0.06523 -0.09375,0.09375 -0.0093,0.0095 -0.03143,0.03145 -0.03125,0.03125 l -6,6.0625 c 9.53e-4,-10e-4 -0.12585,0.15734 -0.125,0.15625 8.53e-4,-0.0011 -0.0945,0.12616 -0.09375,0.125 7.46e-4,-0.0012 -0.09438,0.15748 -0.09375,0.15625 6.32e-4,-0.0012 -0.09426,0.18878 -0.09375,0.1875 5.13e-4,-0.0013 -0.06289,0.15758 -0.0625,0.15625 3.89e-4,-0.0013 -0.03151,0.18886 -0.03125,0.1875 2.61e-4,-0.0014 -0.03138,0.18888 -0.03125,0.1875 1.31e-4,-0.0014 0,0.18888 0,0.1875 0,-0.0014 1.31e-4,0.18888 0,0.1875 -1.31e-4,-0.0014 0.03151,0.18886 0.03125,0.1875 -2.61e-4,-0.0014 0.03164,0.18883 0.03125,0.1875 -3.89e-4,-0.0013 0.06301,0.15754 0.0625,0.15625 -5.13e-4,-0.0013 0.09438,0.18873 0.09375,0.1875 -6.32e-4,-0.0012 0.0945,0.15742 0.09375,0.15625 -7.46e-4,-0.0012 0.0946,0.12609 0.09375,0.125 -8.53e-4,-0.0011 0.12595,0.15725 0.125,0.15625 l 4.5,4.5625 -4.5,4.5625 c 9.53e-4,-10e-4 -0.12585,0.15734 -0.125,0.15625 8.53e-4,-0.0011 -0.0945,0.12616 -0.09375,0.125 7.46e-4,-0.0012 -0.09438,0.15748 -0.09375,0.15625 6.32e-4,-0.0012 -0.09426,0.18878 -0.09375,0.1875 5.13e-4,-0.0013 -0.06289,0.15758 -0.0625,0.15625 3.89e-4,-0.0013 -0.03151,0.18886 -0.03125,0.1875 2.61e-4,-0.0014 -0.03138,0.18888 -0.03125,0.1875 1.31e-4,-0.0014 0,0.18888 0,0.1875 0,-0.0014 1.31e-4,0.18888 0,0.1875 -1.31e-4,-0.0014 0.03151,0.18886 0.03125,0.1875 -2.61e-4,-0.0014 0.03164,0.18883 0.03125,0.1875 -3.89e-4,-0.0013 0.06301,0.15754 0.0625,0.15625 -5.13e-4,-0.0013 0.09438,0.18873 0.09375,0.1875 -6.32e-4,-0.0012 0.0945,0.15742 0.09375,0.15625 -7.46e-4,-0.0012 0.0946,0.12609 0.09375,0.125 -8.53e-4,-0.0011 0.12595,0.15725 0.125,0.15625 l 6.0312,6.0938 c -9.87e-4,-0.001 0.12608,0.12593 0.125,0.125 -0.0011,-9.27e-4 0.15742,0.12582 0.15625,0.125 -0.0012,-8.17e-4 0.15749,0.09445 0.15625,0.09375 -0.0012,-6.99e-4 0.1888,0.09432 0.1875,0.09375 -0.0013,-5.74e-4 0.18885,0.06294 0.1875,0.0625 -0.0014,-4.44e-4 0.15764,0.06281 0.15625,0.0625 -0.0014,-3.1e-4 0.18892,0.03142 0.1875,0.03125 -0.0014,-1.72e-4 0.22018,3.3e-5 0.21875,0 -0.0014,-3.3e-5 0.18892,-1.06e-4 0.1875,0 -0.0014,1.06e-4 0.1889,-0.03149 0.1875,-0.03125 -0.0014,2.45e-4 0.18887,-0.03163 0.1875,-0.03125 -0.0014,3.81e-4 0.15758,-0.06301 0.15625,-0.0625 -0.0013,5.13e-4 0.18877,-0.06314 0.1875,-0.0625 -0.0013,6.41e-4 0.15746,-0.09451 0.15625,-0.09375 -0.0012,7.62e-4 0.15737,-0.12588 0.15625,-0.125 -0.0011,8.76e-4 0.15728,-0.12598 0.15625,-0.125 l 4.5938,-4.5625 4.4062,4.5 c -5.08e-4,-5.29e-4 0.06303,0.063 0.0625,0.0625 -5.34e-4,-5.03e-4 0.09431,0.06298 0.09375,0.0625 -5.59e-4,-4.76e-4 0.06308,0.06295 0.0625,0.0625 -5.82e-4,-4.47e-4 0.09435,0.06292 0.09375,0.0625 -6.04e-4,-4.17e-4 0.06312,0.06289 0.0625,0.0625 -6.24e-4,-3.86e-4 0.09439,0.06285 0.09375,0.0625 -6.43e-4,-3.54e-4 0.09441,0.03157 0.09375,0.03125 -6.6e-4,-3.21e-4 0.09443,0.03154 0.09375,0.03125 -6.75e-4,-2.88e-4 0.06319,0.0315 0.0625,0.03125 -6.89e-4,-2.53e-4 0.09445,0.03147 0.09375,0.03125 -7e-4,-2.18e-4 0.09446,0.03143 0.09375,0.03125 -7.11e-4,-1.83e-4 0.12572,0.0314 0.125,0.03125 -7.19e-4,-1.47e-4 0.09448,0.03136 0.09375,0.03125 -7.25e-4,-1.1e-4 0.09448,7.4e-5 0.09375,0 -7.3e-4,-7.4e-5 0.09448,3.7e-5 0.09375,0 -7.33e-4,-3.7e-5 0.09448,0 0.09375,0 -7.34e-4,0 0.09448,-3.7e-5 0.09375,0 -7.33e-4,3.7e-5 0.09448,-7.4e-5 0.09375,0 -7.3e-4,7.4e-5 0.09448,-1.1e-4 0.09375,0 -7.25e-4,1.1e-4 0.09447,-0.0314 0.09375,-0.03125 -7.19e-4,1.47e-4 0.12571,-0.03143 0.125,-0.03125 -7.11e-4,1.83e-4 0.09445,-0.03147 0.09375,-0.03125 -7e-4,2.18e-4 0.09444,-0.0315 0.09375,-0.03125 -6.89e-4,2.53e-4 0.06318,-0.03154 0.0625,-0.03125 -6.75e-4,2.88e-4 0.09441,-0.03157 0.09375,-0.03125 -6.6e-4,3.21e-4 0.09439,-0.0316 0.09375,-0.03125 -6.43e-4,3.54e-4 0.09437,-0.06289 0.09375,-0.0625 -6.24e-4,3.86e-4 0.0631,-0.06292 0.0625,-0.0625 -6.04e-4,4.17e-4 0.09433,-0.06295 0.09375,-0.0625 -5.82e-4,4.47e-4 0.06306,-0.06298 0.0625,-0.0625 -5.59e-4,4.76e-4 0.09428,-0.063 0.09375,-0.0625 -5.34e-4,5.03e-4 0.06301,-0.06303 0.0625,-0.0625 l 6.2188,-6.2812 c -9.82e-4,0.001 0.12588,-0.15737 0.125,-0.15625 -8.76e-4,0.0011 0.12576,-0.15746 0.125,-0.15625 -7.62e-4,0.0012 0.09439,-0.15752 0.09375,-0.15625 -6.41e-4,0.0013 0.06301,-0.18883 0.0625,-0.1875 -5.13e-4,0.0013 0.06288,-0.15762 0.0625,-0.15625 -3.81e-4,0.0014 0.0315,-0.1889 0.03125,-0.1875 -2.45e-4,0.0014 0.03136,-0.18892 0.03125,-0.1875 -1.06e-4,0.0014 -3.3e-5,-0.18892 0,-0.1875 3.3e-5,0.0014 -1.72e-4,-0.22016 0,-0.21875 1.72e-4,0.0014 -0.03156,-0.18889 -0.03125,-0.1875 3.1e-4,0.0014 -0.06294,-0.1576 -0.0625,-0.15625 4.44e-4,0.0014 -0.06307,-0.1888 -0.0625,-0.1875 5.74e-4,0.0013 -0.09445,-0.18874 -0.09375,-0.1875 6.99e-4,0.0012 -0.09457,-0.15742 -0.09375,-0.15625 8.17e-4,0.0012 -0.12593,-0.15733 -0.125,-0.15625 9.27e-4,0.0011 -0.12603,-0.12599 -0.125,-0.125 l -4.406,-4.313 4.4062,-4.3125 c -0.001,9.87e-4 0.12593,-0.12608 0.125,-0.125 -9.27e-4,0.0011 0.12582,-0.15742 0.125,-0.15625 -8.17e-4,0.0012 0.09445,-0.15749 0.09375,-0.15625 -6.99e-4,0.0012 0.09432,-0.1888 0.09375,-0.1875 -5.74e-4,0.0013 0.06294,-0.18885 0.0625,-0.1875 -4.44e-4,0.0014 0.06281,-0.15764 0.0625,-0.15625 -3.1e-4,0.0014 0.03142,-0.18892 0.03125,-0.1875 -1.72e-4,0.0014 3.3e-5,-0.22018 0,-0.21875 -3.3e-5,0.0014 -1.06e-4,-0.18892 0,-0.1875 1.06e-4,0.0014 -0.0315,-0.1889 -0.03125,-0.1875 2.45e-4,0.0014 -0.03163,-0.18887 -0.03125,-0.1875 3.81e-4,0.0014 -0.06301,-0.15758 -0.0625,-0.15625 5.13e-4,0.0013 -0.06314,-0.18877 -0.0625,-0.1875 6.41e-4,0.0013 -0.09451,-0.15746 -0.09375,-0.15625 7.62e-4,0.0012 -0.12588,-0.15737 -0.125,-0.15625 8.76e-4,0.0011 -0.12598,-0.15728 -0.125,-0.15625 l -6.2188,-6.2812 c 5.08e-4,5.29e-4 -0.06303,-0.063 -0.0625,-0.0625 5.34e-4,5.03e-4 -0.09431,-0.06298 -0.09375,-0.0625 5.59e-4,4.76e-4 -0.06308,-0.06295 -0.0625,-0.0625 5.82e-4,4.47e-4 -0.09435,-0.06292 -0.09375,-0.0625 6.04e-4,4.17e-4 -0.06312,-0.06289 -0.0625,-0.0625 6.24e-4,3.86e-4 -0.09439,-0.06285 -0.09375,-0.0625 6.43e-4,3.54e-4 -0.09441,-0.03157 -0.09375,-0.03125 6.6e-4,3.21e-4 -0.09443,-0.03154 -0.09375,-0.03125 6.75e-4,2.88e-4 -0.06319,-0.0315 -0.0625,-0.03125 6.89e-4,2.53e-4 -0.09445,-0.03147 -0.09375,-0.03125 7e-4,2.18e-4 -0.09446,-0.03143 -0.09375,-0.03125 7.11e-4,1.83e-4 -0.12572,-0.0314 -0.125,-0.03125 7.19e-4,1.47e-4 -0.09448,-0.03136 -0.09375,-0.03125 7.25e-4,1.1e-4 -0.09448,-7.4e-5 -0.09375,0 7.3e-4,7.4e-5 -0.09448,-3.7e-5 -0.09375,0 7.33e-4,3.7e-5 -0.09448,0 -0.09375,0 7.34e-4,0 -0.09448,3.7e-5 -0.09375,0 7.33e-4,-3.7e-5 -0.09448,7.4e-5 -0.09375,0 7.3e-4,-7.4e-5 -0.09448,1.1e-4 -0.09375,0 7.25e-4,-1.1e-4 -0.09447,0.0314 -0.09375,0.03125 7.19e-4,-1.47e-4 -0.12571,0.03143 -0.125,0.03125 7.11e-4,-1.83e-4 -0.09445,0.03147 -0.09375,0.03125 7e-4,-2.18e-4 -0.09444,0.0315 -0.09375,0.03125 6.89e-4,-2.53e-4 -0.06318,0.03154 -0.0625,0.03125 6.75e-4,-2.88e-4 -0.09441,0.03157 -0.09375,0.03125 6.6e-4,-3.21e-4 -0.09439,0.0316 -0.09375,0.03125 6.43e-4,-3.54e-4 -0.09437,0.06289 -0.09375,0.0625 6.24e-4,-3.86e-4 -0.0631,0.06292 -0.0625,0.0625 6.04e-4,-4.17e-4 -0.09433,0.06295 -0.09375,0.0625 5.82e-4,-4.47e-4 -0.06306,0.06298 -0.0625,0.0625 5.59e-4,-4.76e-4 -0.09428,0.063 -0.09375,0.0625 5.34e-4,-5.03e-4 -0.06301,0.06303 -0.0625,0.0625 l -4.4062,4.5 -4.5625,-4.5312 c 1.71e-4,1.72e-4 -0.02075,-0.0212 -0.03125,-0.03125 -0.021,-0.0201 -0.06286,-0.06283 -0.0625,-0.0625 5.39e-4,4.91e-4 -0.06306,-0.06296 -0.0625,-0.0625 5.63e-4,4.63e-4 -0.06309,-0.06294 -0.0625,-0.0625 5.85e-4,4.35e-4 -0.09436,-0.03166 -0.09375,-0.03125 6.06e-4,4.05e-4 -0.09438,-0.06287 -0.09375,-0.0625 6.26e-4,3.74e-4 -0.06314,-0.06284 -0.0625,-0.0625 6.44e-4,3.42e-4 -0.09441,-0.03156 -0.09375,-0.03125 6.6e-4,3.09e-4 -0.09443,-0.03153 -0.09375,-0.03125 6.75e-4,2.76e-4 -0.09444,-0.03149 -0.09375,-0.03125 6.88e-4,2.42e-4 -0.09445,-0.03146 -0.09375,-0.03125 6.99e-4,2.07e-4 -0.09446,-0.03142 -0.09375,-0.03125 7.08e-4,1.72e-4 -0.09447,-0.03139 -0.09375,-0.03125 7.16e-4,1.36e-4 -0.09447,-1e-4 -0.09375,0 7.22e-4,10e-5 -0.09448,-0.03131 -0.09375,-0.03125 7.26e-4,6.4e-5 -0.09448,-2.8e-5 -0.09375,0 7.28e-4,2.8e-5 -0.09448,9e-6 -0.09375,0 a 0.99658,0.99658 0 0 0 -0.0625,0 c 7.26e-4,-4.7e-5 -0.09447,8.4e-5 -0.09375,0 z"
       transform="translate(-14,0)"
       inkscape:connector-curvature="0" />
    <path
       id="path3757"
       style="opacity:0.15;fill-rule:evenodd"
       d="m 53.812,-37.938 a 0.95278,0.95278 0 0 0 -0.46875,0.28125 l -6.0312,6.0938 a 0.95278,0.95278 0 0 0 0,1.3125 l 5.188,5.25 -5.1875,5.25 a 0.95278,0.95278 0 0 0 0,1.3125 l 6.0312,6.0938 a 0.95278,0.95278 0 0 0 1.3438,0.03125 l 5.2812,-5.25 5.125,5.2188 a 0.95278,0.95278 0 0 0 1.375,0 l 6.22,-6.281 a 0.95278,0.95278 0 0 0 -0.03125,-1.3438 l -5.157,-5.031 5.156,-5.031 a 0.95278,0.95278 0 0 0 0.032,-1.344 l -6.2188,-6.2812 a 0.95278,0.95278 0 0 0 -1.375,0 l -5.125,5.2188 -5.2812,-5.25 a 0.95278,0.95278 0 0 0 -0.875,-0.25 z"
       transform="translate(-14,0)"
       inkscape:connector-curvature="0" />
    <path
       id="path3751"
       style="opacity:0.3;fill-rule:evenodd"
       d="M 34,-19.094 40.023,-13 45.954,-18.906 51.792,-13 58,-19.281 52.162,-25 58,-30.719 51.792,-37 45.954,-31.094 40.023,-37 l -6.0232,6.0938 5.8378,5.9063 -5.8378,5.9062 z"
       inkscape:connector-curvature="0" />
    <path
       id="path7165"
       style="fill:url(#linearGradient2927);fill-rule:evenodd"
       d="M 34,-20.094 40.023,-14 45.954,-19.906 51.792,-14 58,-20.281 52.162,-26 58,-31.719 51.792,-38 45.954,-32.094 40.023,-38 l -6.0232,6.0938 5.8378,5.9063 -5.8378,5.9062 z"
       inkscape:connector-curvature="0" />
    <path
       id="path2970"
       style="opacity:0.2;fill:#ffffff;fill-rule:evenodd"
       d="m 40.031,-38 -6.0312,6.0938 1,1 5.031,-5.094 5.938,5.906 5.812,-5.906 5.219,5.25 1,-0.969 -6.219,-6.281 -5.812,5.906 -5.938,-5.906 z m -0.19483,11.976 -5.8364,5.9304 1,1 4.8438,-4.9062 -0.0073,-2.0242 z m 12.343,0.04727 -0.02282,1.9769 4.8438,4.75 1,-1.0312 -5.8209,-5.6957 z"
       inkscape:connector-curvature="0" />
  </g>
</svg>
