<?xml version="1.0" encoding="UTF-8" standalone="no"?>
<!-- Created with Inkscape (http://www.inkscape.org/) -->

<svg
   xmlns:dc="http://purl.org/dc/elements/1.1/"
   xmlns:cc="http://creativecommons.org/ns#"
   xmlns:rdf="http://www.w3.org/1999/02/22-rdf-syntax-ns#"
   xmlns:svg="http://www.w3.org/2000/svg"
   xmlns="http://www.w3.org/2000/svg"
   xmlns:sodipodi="http://sodipodi.sourceforge.net/DTD/sodipodi-0.dtd"
   xmlns:inkscape="http://www.inkscape.org/namespaces/inkscape"
   id="svg2"
   height="96"
   width="96"
   version="1.0"
   inkscape:version="0.48.1 r9760"
   sodipodi:docname="gpm-primary-080.svg.original">
  <sodipodi:namedview
     pagecolor="#ffffff"
     bordercolor="#666666"
     borderopacity="1"
     objecttolerance="10"
     gridtolerance="10"
     guidetolerance="10"
     inkscape:pageopacity="0"
     inkscape:pageshadow="2"
     inkscape:window-width="640"
     inkscape:window-height="480"
     id="namedview20"
     showgrid="false"
     inkscape:zoom="2.8958333"
     inkscape:cx="48"
     inkscape:cy="48"
     inkscape:window-x="0"
     inkscape:window-y="25"
     inkscape:window-maximized="0"
     inkscape:current-layer="svg2" />
  <defs
     id="defs4">
    <linearGradient
       id="linearGradient3763"
       y2="24.267"
       gradientUnits="userSpaceOnUse"
       x2="39.196"
       y1="72"
       x1="39">
      <stop
         id="stop4083"
         style="stop-color:#aaa"
         offset="0" />
      <stop
         id="stop4085"
         style="stop-color:#f0f0f0"
         offset="1" />
    </linearGradient>
    <linearGradient
       id="linearGradient3807"
       y2="28"
       gradientUnits="userSpaceOnUse"
       x2="39"
       gradientTransform="matrix(0.77143,0,0,0.9,4.2857,-69.2)"
       y1="68"
       x1="39">
      <stop
         id="stop3297-2"
         style="stop-color:#559829"
         offset="0" />
      <stop
         id="stop3299-0"
         style="stop-color:#86c837"
         offset="1" />
    </linearGradient>
  </defs>
  <metadata
     id="metadata7">
    <rdf:RDF>
      <cc:Work
         rdf:about="">
        <dc:format>image/svg+xml</dc:format>
        <dc:type
           rdf:resource="http://purl.org/dc/dcmitype/StillImage" />
        <dc:title></dc:title>
      </cc:Work>
    </rdf:RDF>
  </metadata>
  <g
     id="layer1"
     transform="matrix(0,-1,1,0,72.999775,97.000175)">
    <rect
       id="rect3799"
       style="fill:url(#linearGradient3807)"
       height="36"
       width="54"
       y="-44"
       x="12" />
    <path
       id="path3797"
       style="opacity:0.07999998"
       d="m 12,-52.031 c -4.9542,0 -9.0312,4.077 -9.0312,9.0312 v 36 c 0,4.9542 4.077,9.0312 9.0312,9.0312 h 66 c 4.9542,0 9.0312,-4.077 9.0312,-9.0312 v -6.9688 h 0.96875 c 2.7526,0 5.0312,-2.2787 5.0312,-5.0312 v -12 c 0,-2.7526 -2.2787,-5.0312 -5.0312,-5.0312 H 87.0312 v -6.9688 c 0,-4.9542 -4.077,-9.0312 -9.0312,-9.0312 H 12 z m 4,12.062 h 58 c 0.6901,0 0.96875,0.27864 0.96875,0.96875 v 28 c 0,0.69011 -0.27864,0.96875 -0.96875,0.96875 H 16 c -0.69011,0 -0.96875,-0.27864 -0.96875,-0.96875 v -28 c 0,-0.6901 0.27864,-0.96875 0.96875,-0.96875 z"
       inkscape:connector-curvature="0" />
    <path
       id="path3793"
       style="opacity:0.1"
       d="m 12,-50.969 c -4.3781,0 -7.9688,3.5907 -7.9688,7.9688 v 36 c 0,4.3781 3.5907,7.9688 7.9688,7.9688 h 66 c 4.3781,0 7.9688,-3.5907 7.9688,-7.9688 v -8.0312 H 88 c 2.1707,0 3.9688,-1.7981 3.9688,-3.9688 v -12 c 0,-2.1707 -1.7981,-3.9688 -3.9688,-3.9688 h -2.0312 v -8.0312 c 0,-4.3781 -3.5907,-7.9688 -7.9688,-7.9688 H 12 z m 4,9.9375 h 58 c 1.1884,0 2.0312,0.84288 2.0312,2.0312 v 28 c 0,1.1884 -0.84288,2.0312 -2.0312,2.0312 H 16 c -1.1884,0 -2.0312,-0.84288 -2.0312,-2.0312 v -28 c 0,-1.1884 0.84288,-2.0312 2.0312,-2.0312 z"
       inkscape:connector-curvature="0" />
    <path
       id="path3789"
       style="opacity:0.15"
       d="m 12,-50.031 c -3.8714,0 -7.0312,3.1598 -7.0312,7.0312 v 36 c 0,3.8714 3.1598,7.0312 7.0312,7.0312 h 66 c 3.8714,0 7.0312,-3.1598 7.0312,-7.0312 v -8.9688 H 88 c 1.6533,0 3.0312,-1.3779 3.0312,-3.0312 v -12 c 0,-1.6533 -1.3779,-3.0312 -3.0312,-3.0312 h -2.9688 v -8.9688 c 0,-3.8714 -3.1598,-7.0312 -7.0312,-7.0312 H 12 z m 4,8.0625 h 58 c 1.6707,0 2.9688,1.2981 2.9688,2.9688 v 28 c 0,1.6707 -1.2981,2.9688 -2.9688,2.9688 H 16 c -1.6707,0 -2.9688,-1.2981 -2.9688,-2.9688 v -28 c 0,-1.6707 1.2981,-2.9688 2.9688,-2.9688 z"
       inkscape:connector-curvature="0" />
    <path
       id="path3783"
       style="opacity:0.3"
       d="m 12,-49 c -3.3273,0 -6,2.6727 -6,6 v 36 c 0,3.3273 2.6727,6 6,6 h 66 c 3.3273,0 6,-2.6727 6,-6 v -10 h 4 c 1.108,0 2,-0.892 2,-2 v -12 c 0,-1.108 -0.892,-2 -2,-2 h -4 v -10 c 0,-3.3273 -2.6727,-6 -6,-6 H 12 z m 4,6 h 58 c 2.216,0 4,1.784 4,4 v 28 c 0,2.216 -1.784,4 -4,4 H 16 c -2.216,0 -4,-1.784 -4,-4 v -28 c 0,-2.216 1.784,-4 4,-4 z"
       inkscape:connector-curvature="0" />
    <path
       id="rect2975"
       style="fill:url(#linearGradient3763)"
       transform="translate(0,-74)"
       d="m 12,24 c -3.3273,0 -6,2.6727 -6,6 v 36 c 0,3.3273 2.6727,6 6,6 h 66 c 3.3273,0 6,-2.6727 6,-6 V 56 h 4 c 1.108,0 2,-0.892 2,-2 V 42 c 0,-1.108 -0.892,-2 -2,-2 H 84 V 30 c 0,-3.3273 -2.6727,-6 -6,-6 H 12 z m 4,6 h 58 c 2.216,0 4,1.784 4,4 v 28 c 0,2.216 -1.784,4 -4,4 H 16 c -2.216,0 -4,-1.784 -4,-4 V 34 c 0,-2.216 1.784,-4 4,-4 z"
       inkscape:connector-curvature="0" />
    <path
       id="path3765"
       style="opacity:0.75;fill:#ffffff"
       transform="translate(0,-74)"
       d="m 12,24 c -3.3273,0 -6,2.6727 -6,6 v 1 c 0,-3.3273 2.6727,-6 6,-6 h 66 c 3.3273,0 6,2.6727 6,6 v -1 c 0,-3.3273 -2.6727,-6 -6,-6 H 12 z m 72,16 v 1 h 4 c 1.108,0 2,0.892 2,2 v -1 c 0,-1.108 -0.892,-2 -2,-2 H 84 z M 12,62 v 1 c 0,2.216 1.784,4 4,4 h 58 c 2.216,0 4,-1.784 4,-4 v -1 c 0,2.216 -1.784,4 -4,4 H 16 c -2.216,0 -4,-1.784 -4,-4 z"
       inkscape:connector-curvature="0" />
    <path
       id="path3774"
       style="opacity:0.15"
       transform="translate(0,-74)"
       d="m 16,29 c -2.216,0 -4,1.784 -4,4 v 1 c 0,-2.216 1.784,-4 4,-4 h 58 c 2.216,0 4,1.784 4,4 v -1 c 0,-2.216 -1.784,-4 -4,-4 H 16 z m 74,24 c 0,1.108 -0.892,2 -2,2 h -4 v 1 h 4 c 1.108,0 2,-0.892 2,-2 V 53 z M 6,65 v 1 c 0,3.3273 2.6727,6 6,6 h 66 c 3.3273,0 6,-2.6727 6,-6 v -1 c 0,3.3273 -2.6727,6 -6,6 H 12 C 8.6727,71 6,68.327 6,65 z"
       inkscape:connector-curvature="0" />
  </g>
</svg>
