<?xml version="1.0" encoding="UTF-8" standalone="no"?>
<!-- Created with Inkscape (http://www.inkscape.org/) -->
<svg id="svg2408" xmlns:rdf="http://www.w3.org/1999/02/22-rdf-syntax-ns#" xmlns="http://www.w3.org/2000/svg" height="96" width="96" version="1.0" xmlns:cc="http://creativecommons.org/ns#" xmlns:xlink="http://www.w3.org/1999/xlink" xmlns:dc="http://purl.org/dc/elements/1.1/">
 <defs id="defs2410">
  <linearGradient id="ButtonShadow" x1="45.448" gradientUnits="userSpaceOnUse" y1="92.54" gradientTransform="scale(1.0059 .99417)" x2="45.448" y2="7.0165">
   <stop id="stop3750" offset="0"/>
   <stop id="stop3752" style="stop-opacity:.58824" offset="1"/>
  </linearGradient>
  <linearGradient id="linearGradient3737">
   <stop id="stop3739" style="stop-color:#fff" offset="0"/>
   <stop id="stop3741" style="stop-color:#fff;stop-opacity:0" offset="1"/>
  </linearGradient>
  <filter id="filter3174" color-interpolation-filters="sRGB">
   <feGaussianBlur id="feGaussianBlur3176" stdDeviation="1.71"/>
  </filter>
  <linearGradient id="linearGradient3188" x1="36.357" xlink:href="#linearGradient3737" gradientUnits="userSpaceOnUse" x2="36.357" y1="6" y2="63.893"/>
  <filter id="filter3794" width="1.384" y="-.192" x="-.192" height="1.384" color-interpolation-filters="sRGB">
   <feGaussianBlur id="feGaussianBlur3796" stdDeviation="5.28"/>
  </filter>
  <linearGradient id="linearGradient3613" x1="48" xlink:href="#linearGradient3737" gradientUnits="userSpaceOnUse" x2="48" y1="20.221" y2="138.66"/>
  <radialGradient id="radialGradient3619" xlink:href="#linearGradient3737" gradientUnits="userSpaceOnUse" cy="90.172" cx="48" gradientTransform="matrix(1.1573 0 0 .99591 -7.551 .19713)" r="42"/>
  <clipPath id="clipPath3613">
   <rect id="rect3615" style="fill:#fff" rx="6" ry="6" height="84" width="84" y="6" x="6"/>
  </clipPath>
  <linearGradient id="linearGradient3617" x1="48" gradientUnits="userSpaceOnUse" y1="90" gradientTransform="matrix(1.0172 0 0 1.0172 -1.1034 -1.1034)" x2="48" y2="5.9877">
   <stop id="stop3189" style="stop-color:#302453" offset="0"/>
   <stop id="stop3191" style="stop-color:#65225a" offset="1"/>
  </linearGradient>
  <filter id="filter4087" width="1.7838" y="-.36637" x="-.39191" height="1.7327" color-interpolation-filters="sRGB">
   <feGaussianBlur id="feGaussianBlur4089" stdDeviation="9.3008"/>
  </filter>
  <filter id="filter4291" color-interpolation-filters="sRGB">
   <feGaussianBlur id="feGaussianBlur4293" stdDeviation="2.3403781"/>
  </filter>
  <filter id="filter3788" width="1.7683" y="-.50948" x="-.38415" height="2.019" color-interpolation-filters="sRGB">
   <feGaussianBlur id="feGaussianBlur3790" stdDeviation="13.178144"/>
  </filter>
  <clipPath id="clipPath3678">
   <rect id="rect3680" style="fill:#f0f" rx="7.8886" ry="7.8886" height="110.44" width="110.44" y="-22.817" x="7.9307"/>
  </clipPath>
  <radialGradient id="radialGradient3688" gradientUnits="userSpaceOnUse" cy="64" cx="63.604" r="32.396">
   <stop id="stop4273" style="stop-color:#fff" offset="0"/>
   <stop id="stop4275" style="stop-color:#ff9b9b;stop-opacity:.55469" offset=".23043"/>
   <stop id="stop4277" style="stop-color:#ff2d23;stop-opacity:.80469" offset=".45644"/>
   <stop id="stop4279" style="stop-color:#ff2727;stop-opacity:.27344" offset=".58917"/>
   <stop id="stop4281" style="stop-color:#f00;stop-opacity:0" offset="1"/>
  </radialGradient>
  <clipPath id="clipPath3690">
   <rect id="rect3692" style="fill:#f0f" rx="7.8886" ry="7.8886" height="110.44" width="110.44" y="-22.817" x="7.9307"/>
  </clipPath>
  <clipPath id="clipPath4356">
   <path id="path4358" style="fill:#fff" d="m14.155 5c-5.0718 0-9.155 4.0832-9.155 9.155v99.685c0 5.08 4.0832 9.16 9.155 9.16h99.69c5.08 0 9.16-4.08 9.16-9.16v-99.69c0-5.0668-4.08-9.15-9.16-9.15h-99.685z"/>
  </clipPath>
  <clipPath id="clipPath4342">
   <path id="path4344" style="fill:#fff" d="m14.155 5c-5.0718 0-9.155 4.0832-9.155 9.155v99.685c0 5.08 4.0832 9.16 9.155 9.16h99.69c5.08 0 9.16-4.08 9.16-9.16v-99.69c0-5.0668-4.08-9.15-9.16-9.15h-99.685z"/>
  </clipPath>
  <clipPath id="clipPath4346">
   <path id="path4348" style="fill:#fff" d="m14.155 5c-5.0718 0-9.155 4.0832-9.155 9.155v99.685c0 5.08 4.0832 9.16 9.155 9.16h99.69c5.08 0 9.16-4.08 9.16-9.16v-99.69c0-5.0668-4.08-9.15-9.16-9.15h-99.685z"/>
  </clipPath>
  <radialGradient id="radialGradient3743" xlink:href="#linearGradient3737" gradientUnits="userSpaceOnUse" cy="52.863" cx="64.613" gradientTransform="matrix(.56738 -1.596e-8 1.8114e-8 .64394 27.953 18.822)" r="107.43"/>
  <radialGradient id="radialGradient3745" xlink:href="#linearGradient3737" gradientUnits="userSpaceOnUse" cy="52.863" cx="64.613" gradientTransform="matrix(.47159 .31549 .35806 -.53522 9.0219 81.165)" r="107.43"/>
  <clipPath id="clipPath4407">
   <path id="path4409" style="fill:#fff" d="m14.155 5c-5.0718 0-9.155 4.0832-9.155 9.155v99.685c0 5.08 4.0832 9.16 9.155 9.16h99.69c5.08 0 9.16-4.08 9.16-9.16v-99.69c0-5.0668-4.08-9.15-9.16-9.15h-99.685z"/>
  </clipPath>
  <linearGradient id="ButtonShadow-0" x1="45.448" gradientUnits="userSpaceOnUse" y1="92.54" gradientTransform="matrix(1.0059 0 0 .99417 100 0)" x2="45.448" y2="7.0165">
   <stop id="stop3750-8" offset="0"/>
   <stop id="stop3752-5" style="stop-opacity:.58824" offset="1"/>
  </linearGradient>
  <linearGradient id="linearGradient3780" x1="32.251" xlink:href="#ButtonShadow-0" gradientUnits="userSpaceOnUse" y1="6.1317" gradientTransform="matrix(1.0238 0 0 1.0119 -1.1429 -98.071)" x2="32.251" y2="90.239"/>
  <linearGradient id="linearGradient3721" x1="32.251" xlink:href="#ButtonShadow-0" gradientUnits="userSpaceOnUse" y1="6.1317" gradientTransform="translate(0,-97)" x2="32.251" y2="90.239"/>
 </defs>
 <metadata id="metadata2413">
  <rdf:RDF>
   <cc:Work rdf:about="">
    <dc:format>image/svg+xml</dc:format>
    <dc:type rdf:resource="http://purl.org/dc/dcmitype/StillImage"/>
   </cc:Work>
  </rdf:RDF>
 </metadata>
 <g id="layer2" style="display:none">
  <rect id="rect3745" style="opacity:.9;filter:url(#filter3174);fill:url(#ButtonShadow)" rx="6" ry="6" height="85" width="86" y="7" x="5"/>
 </g>
 <g id="layer8">
  <path id="path3786" style="opacity:.08;fill:url(#linearGradient3780)" transform="scale(1,-1)" d="m12-95.031c-5.5111 0-10.031 4.5202-10.031 10.031v71c0 5.5111 4.5202 10.031 10.031 10.031h72c5.5111 0 10.031-4.5202 10.031-10.031v-71c0-5.5111-4.5202-10.031-10.031-10.031h-72z"/>
  <path id="path3778" style="opacity:.1;fill:url(#linearGradient3780)" transform="scale(1,-1)" d="m12-94.031c-4.9716 0-9.0312 4.0596-9.0312 9.0312v71c0 4.9716 4.0596 9.0312 9.0312 9.0312h72c4.9716 0 9.0312-4.0596 9.0312-9.0312v-71c0-4.9716-4.0596-9.0312-9.0312-9.0312h-72z"/>
  <path id="path3770" style="opacity:.2;fill:url(#linearGradient3780)" transform="scale(1,-1)" d="m12-93c-4.4091 0-8 3.5909-8 8v71c0 4.4091 3.5909 8 8 8h72c4.4091 0 8-3.5909 8-8v-71c0-4.4091-3.5909-8-8-8h-72z"/>
  <rect id="rect3723" style="opacity:.3;fill:url(#linearGradient3780)" transform="scale(1,-1)" rx="7" ry="7" height="85" width="86" y="-92" x="5"/>
  <rect id="rect3716" style="opacity:.45;fill:url(#linearGradient3721)" transform="scale(1,-1)" rx="6" ry="6" height="84" width="84" y="-91" x="6"/>
 </g>
 <g id="layer1">
  <rect id="rect2419" style="fill:url(#linearGradient3617)" rx="6" ry="6" height="84" width="84" y="6" x="6"/>
  <path id="rect3728" style="opacity:.35;fill:url(#linearGradient3188)" d="m12 6c-3.324 0-6 2.676-6 6v72c0 0.33472 0.04135 0.6507 0.09375 0.96875 0.0487 0.2956 0.09704 0.59692 0.1875 0.875 0.00988 0.03038 0.020892 0.0636 0.03125 0.09375 0.098865 0.28777 0.23488 0.54745 0.375 0.8125 0.14459 0.27351 0.31562 0.53562 0.5 0.78125 0.18438 0.24564 0.37378 0.47347 0.59375 0.6875 0.43995 0.42806 0.94291 0.81453 1.5 1.0938 0.27854 0.13961 0.57347 0.24695 0.875 0.34375-0.2562-0.10022-0.48671-0.23627-0.71875-0.375-0.00741-0.0044-0.023866 0.0045-0.03125 0-0.031933-0.0193-0.062293-0.04251-0.09375-0.0625-0.1204-0.0767-0.23102-0.16351-0.34375-0.25-0.10617-0.0808-0.21328-0.16111-0.3125-0.25-0.1778-0.162-0.3473-0.346-0.4999-0.531-0.1075-0.131-0.2183-0.266-0.3124-0.407-0.0251-0.038-0.0385-0.086-0.0626-0.125-0.0647-0.103-0.1302-0.204-0.1874-0.312-0.1011-0.195-0.2057-0.416-0.2813-0.625-0.008-0.022-0.0236-0.041-0.0313-0.063-0.0318-0.092-0.0358-0.187-0.0624-0.281-0.0304-0.107-0.0704-0.203-0.0938-0.313-0.0729-0.341-0.125-0.698-0.125-1.062v-72c0-2.782 2.2182-5 5-5h72c2.7818 0 5 2.2182 5 5v72c0 0.3643-0.05212 0.72099-0.125 1.0625-0.04415 0.20689-0.08838 0.39766-0.15625 0.59375-0.0077 0.02195-0.0233 0.04069-0.03125 0.0625-0.06274 0.17374-0.13838 0.36745-0.21875 0.53125-0.04158 0.0828-0.07904 0.16995-0.125 0.25-0.0546 0.09721-0.12677 0.18835-0.1875 0.28125-0.09411 0.14096-0.20492 0.276-0.3125 0.40625-0.14317 0.17445-0.30314 0.347-0.46875 0.5-0.01117 0.0102-0.01998 0.02115-0.03125 0.03125-0.13839 0.12556-0.28509 0.23444-0.4375 0.34375-0.10257 0.07315-0.20432 0.15336-0.3125 0.21875-0.0074 0.0045-0.02384-0.0044-0.03125 0-0.23204 0.13873-0.46255 0.27478-0.71875 0.375 0.30153-0.0968 0.59646-0.20414 0.875-0.34375 0.55709-0.27922 1.0601-0.66569 1.5-1.0938 0.21997-0.21403 0.40937-0.44186 0.59375-0.6875s0.35541-0.50774 0.5-0.78125c0.14012-0.26505 0.27614-0.52473 0.375-0.8125 0.01041-0.03078 0.02133-0.06274 0.03125-0.09375 0.09046-0.27808 0.1388-0.5794 0.1875-0.875 0.053-0.318 0.094-0.634 0.094-0.969v-72c0-3.324-2.676-6-6-6h-72z"/>
  <path id="path3615" style="opacity:.2;fill:url(#radialGradient3619)" d="m12 90c-3.324 0-6-2.676-6-6v-72c0-0.33472 0.04135-0.6507 0.09375-0.96875 0.0487-0.2956 0.09704-0.59692 0.1875-0.875 0.0099-0.03 0.0209-0.063 0.0313-0.094 0.0989-0.2873 0.2349-0.547 0.375-0.812 0.1446-0.2735 0.3156-0.5356 0.5-0.7812 0.1844-0.2457 0.3738-0.4735 0.5937-0.6876 0.44-0.428 0.943-0.8145 1.5-1.0937 0.2786-0.1396 0.5735-0.2469 0.8748-0.3437-0.256 0.1002-0.4865 0.2362-0.7185 0.375-0.00741 0.0044-0.023866-0.0045-0.03125 0-0.031933 0.0193-0.062293 0.04251-0.09375 0.0625-0.1204 0.0767-0.23102 0.16351-0.34375 0.25-0.10617 0.0808-0.21328 0.16111-0.3125 0.25-0.1779 0.1614-0.3474 0.3453-0.5 0.5312-0.1075 0.1303-0.2183 0.2653-0.3124 0.4063-0.0251 0.0383-0.0385 0.0858-0.0626 0.125-0.0647 0.103-0.1302 0.2045-0.1874 0.3124-0.1011 0.1948-0.2057 0.4158-0.2813 0.625-0.008 0.0219-0.0236 0.0406-0.0313 0.0626-0.0318 0.0919-0.0358 0.1868-0.0624 0.2812-0.0304 0.1066-0.0704 0.203-0.0938 0.3125-0.0729 0.3415-0.125 0.6985-0.125 1.0625v72c0 2.7818 2.2182 5 5 5h72c2.7818 0 5-2.2182 5-5v-72c0-0.364-0.052-0.721-0.125-1.0625-0.044-0.2069-0.088-0.3977-0.156-0.5937-0.008-0.022-0.024-0.0407-0.031-0.0626-0.063-0.1737-0.139-0.3674-0.219-0.5312-0.042-0.0828-0.079-0.17-0.125-0.25-0.055-0.0972-0.127-0.1884-0.188-0.2812-0.094-0.141-0.205-0.276-0.312-0.4063-0.143-0.1745-0.303-0.347-0.469-0.5-0.011-0.0102-0.02-0.0211-0.031-0.0313-0.139-0.1255-0.285-0.2344-0.438-0.3437-0.102-0.0731-0.204-0.1534-0.312-0.2187-0.0074-0.0045-0.02384 0.0044-0.03125 0-0.23204-0.13873-0.46255-0.27478-0.71875-0.375 0.30153 0.0968 0.59646 0.20414 0.875 0.34375 0.55709 0.27922 1.0601 0.66569 1.5 1.0938 0.21997 0.21403 0.40937 0.44186 0.59375 0.6875s0.35541 0.50774 0.5 0.78125c0.14012 0.26505 0.27614 0.52473 0.375 0.8125 0.01041 0.03078 0.02133 0.06274 0.03125 0.09375 0.09046 0.27808 0.1388 0.5794 0.1875 0.875 0.053 0.318 0.094 0.634 0.094 0.969v72c0 3.324-2.676 6-6 6h-72z"/>
 </g>
 <g id="layer3">
  <path id="path3878" style="opacity:.9305;filter:url(#filter4087);fill-opacity:.75;fill:#ffff8d;fill-rule:evenodd" clip-path="url(#clipPath3678)" transform="matrix(.76059 0 0 .76059 -.031991 23.355)" d="m52.65-11.067c-7.8861 0.45496-16.322-1.4024-23.675 2.3549-3.9505 1.9149-9.1441 3.2032-10.819 7.7723-1.0707 4.0098 2.1962 8.3863 6.324 8.5851 7.5605 2.2418 15.476 3.6512 22.484 7.4281 4.7064 3.6988 3.9808 10.275 6.0882 15.324 2.6699 5.6862 8.9164 8.0728 13.329 12.126 2.6982 2.2669 5.1676 4.8155 8.072 6.8298 1.818-1.393-2.364-3.656-2.921-5.34-6.938-8.462-10.021-19.689-9.13-30.528 0.427-3.98-0.22-8.0137-1.981-11.619-1.2947-3.1532-3.1946-6.1502-3.5162-9.6026-0.3572-1.8657-1.9201-5.0877-4.2543-3.3305z"/>
  <path id="path3699" style="opacity:.4;filter:url(#filter3788);fill-opacity:.75;fill:#f0f;fill-rule:evenodd" clip-path="url(#clipPath3690)" transform="matrix(.76059 0 0 .76059 -.03199 23.355)" d="m86.572-15.661c-8.788-1.9027-17.538 3.4682-22.443 10.493-4.7182 5.134-12.507 4.4664-18.626 2.758-4.4529-0.99031-7.8923-4.3851-12.307-5.4798-4.9902 0.72768-6.9207 6.0312-8.7259 10.046-3.3592 8.4259-5.8449 17.187-8.8757 25.716-1.1485 7.3778 3.3241 22.39 10.304 24.036 7.7236 2.4638 16.073 2.1837 23.999 1.096 4.6488-1.3541 9.6777-13.544 10.669-18.254 1.899-4.6001 6.895-7.3233 11.77-7.0948 4.6552-0.38095 9.1002 1.4226 13.23 3.2974 4.8986 0.73489 8.4504-4.0709 9.1384-8.4161 2.7289-7.7379 4.164-16.203 2.0905-24.281-0.84029-3.985-1.5828-8.0736-3.1518-11.833-1.4484-2.2053-4.6694-3.8331-7.0727-2.0839z"/>
  <path id="path4261" style="filter:url(#filter4291);fill:url(#radialGradient3688);fill-rule:evenodd" transform="matrix(.76059 0 0 .76059 -.031991 -.98432)" d="m96 64a32.396 32.396 0 1 1 -64.792 0 32.396 32.396 0 1 1 64.792 0z"/>
 </g>
 <g id="layer4">
  <g id="g3738" transform="matrix(.71186 0 0 .71186 2.4407 25.22)">
   <path id="path4298" style="opacity:.22394;fill:url(#radialGradient3743);fill-rule:evenodd" clip-path="url(#clipPath4346)" transform="translate(0,-32)" d="m58.827-64.784 4.9661 128.6-14.86-107.61 9.8938-20.988zm58.414 33.565-53.448 95.035 47.667-97.616 5.7815 2.5814zm9.9 30.965-63.347 64.07 72.397-80.991-9.05 16.921zm39.88 93.845-103.23-29.775 108.25 9.151-5.02 20.624zm-15.02 34.409-88.207-64.184 91.507 58.544-3.3 5.64zm-20.51 20.493-67.697-84.678 69.851 83.198-2.1535 1.4799zm-14.88 12.27-52.817-96.944 55.817 93.194-3 3.75zm-83.342-0.76 30.525-96.184-20.43 106.69-10.095-10.51zm-67.338-51.994 97.863-44.191-97.441 48.024-0.42223-3.8334zm-3.12-71.357 100.98 27.163-106.6-20.885 5.62-6.278zm21.619-40.116 79.364 67.279-88.27-63.32l8.9064-3.9586zm36.812-40.883 42.551 108.16-43.83-99.398 1.2786-8.7638z"/>
   <path id="path4332" style="opacity:.1;fill:url(#radialGradient3745);fill-rule:evenodd" clip-path="url(#clipPath4342)" transform="translate(0,-32)" d="m-11.805 167.82 75.634-104.12-72.187 81.18-3.447 22.94zm67.215 4.5828 8.4191-108.71-14.66 107.64 6.2407 1.0692zm25.449-20.23-17.03-88.473 15.14 107.57 1.89-19.1zm85.321-55.823-102.35-32.65 95.06 52.583 7.29-19.933zm6.6497-36.95-109 4.3008 108.61 2.2276 0.3934-6.5285zm-5.65-28.438-103.35 32.738 104.32-30.31-0.97-2.428zm-5.55-18.47-97.801 51.208 98.211-46.419-0.41-4.789zm-69.69-45.709-28.111 96.917 42.341-100.04-14.23 3.123zm-84.879 5.772 56.768 91.145-54.285-94.096-2.4828 2.951zm-42.269 57.571 99.037 33.574-100.22-41.918l1.1822 8.3447zm-4.3363 45.363 103.37-11.79-108.57 3.547 5.2015 8.2425zm7.8642 54.45 95.509-66.239-91.698 58.244-3.8102 7.995z"/>
   <path id="path4350" style="opacity:.1;fill:#ffe98f;fill-rule:evenodd" clip-path="url(#clipPath4356)" transform="translate(0,-32)" d="m63.829 63.697zm-84.326-95.918 84.326 95.918-70.093-99.04-14.233 3.122zm27.558 4.773 56.768 91.145-54.285-94.096-2.4828 2.951zm-19.781 23.09 76.549 68.055-77.731-76.399 1.1822 8.3447zm-20.827 23.376 97.376 44.679-102.58-52.921l5.2015 8.2425zm97.376 44.679z"/>
  </g>
 </g>
 <g id="layer6">
  <path id="path4361" style="opacity:.5;fill:#d7c5d7;fill-rule:evenodd" clip-path="url(#clipPath4407)" transform="matrix(.73812 0 0 .73812 2.3094 1.1689)" d="m64.595 26.576c-0.754-7.295-1.946-17.113-0.332-18.062 1.345 1.527 0.841 11.665 0.332 18.062zm23.572 58.607c4.6978 3.271 11.117 7.5749 10.807 8.9466-1.6221-0.02807-7.3166-5.4318-10.807-8.9466zm-6.047-13.162c4.034 1.7031 9.4957 3.9316 9.711 4.7645-1.0587 0.06771-6.385-2.8534-9.711-4.7645zm-43.559-0.531c-4.1582 1.3721-9.7373 3.2882-10.447 2.8027 0.75259-0.74763 6.6854-2.0531 10.447-2.8027zm3.0537-21.469c-4.8563-2.7634-11.431-6.4226-11.692-7.3583 1.2732 0.17843 7.687 4.5414 11.692 7.3583zm-9.0399 31.195c-4.6169 3.147-10.794 7.4439-11.749 7.267 0.71996-1.0651 7.4583-4.9079 11.749-7.267zm-5.0887 18.978c-5.126 5.25-11.911 12.44-13.673 11.81 0.31311-2.0104 8.4299-8.1069 13.673-11.806zm29.565-24.203c-1.9783 3.9064-4.5795 9.2008-5.4253 9.3579 0.0057-1.0608 3.2885-6.1722 5.4253-9.3579zm21.133-32.341c2.785-5.001 6.427-11.818 7.823-11.646 0.13406 1.6168-4.6739 7.8224-7.8227 11.646zm-54.518 3.7843c-4.2252-1.1496-9.9354-2.6294-10.26-3.4261 1.0402-0.20838 6.7086 1.9758 10.26 3.4261zm77.181 13.301c7.1952-1.4185 16.863-3.5057 17.956-1.9853-1.3967 1.4794-11.539 1.9062-17.956 1.9853zm-56.202 28.843c-2.8268 4.9778-6.5244 11.764-7.9188 11.581-0.12068-1.6179 4.7385-7.7835 7.9188-11.581zm12.553-7.2273c-1.3263 4.173-3.045 9.816-3.8547 10.107-0.16443-1.048 2.2563-6.6196 3.8547-10.107zm-3.463-43.424c-1.7473-4.015-4.1665-9.395-3.7482-10.147 0.81344 0.68092 2.657 6.4692 3.7482 10.147zm21.658 1.0738c2.3068-5.0891 5.3482-11.972 6.2561-12.317-0.06103 1.2842-3.818 8.0707-6.2561 12.317zm-31.892-6.144c-3.557-4.309-8.401-10.067-8.313-11.034 1.1266 0.61934 5.5706 6.9772 8.313 11.034zm-19.364-3.328c-5.692-4.625-13.48-10.722-13.01-12.534 2.0306 0.12759 8.8452 7.6516 13.01 12.534zm26.813 27.222c-4.0712-1.612-9.5817-3.7172-9.8156-4.545 1.0569-0.09149 6.4475 2.7091 9.8156 4.545zm34.142 18.081c5.2352 2.3156 12.357 5.317 12.314 6.7227-1.5977 0.28164-8.2178-3.9375-12.314-6.7227zm-8.764-53.942c0.75764-4.3127 1.708-10.135 2.4716-10.531 0.3028 1.0167-1.3528 6.8615-2.4716 10.531zm21.452 56.615c6.3042 3.7469 14.714 8.9522 16.253 7.8856-0.82044-1.8618-10.234-5.6616-16.253-7.8856zm-43.291-46.003c-0.99598-5.6372-2.2065-13.27-3.5817-13.564-0.65567 1.484 1.8573 8.9211 3.5817 13.564zm9.406 11.015c0.14823-4.3763 0.41921-10.269-0.24629-10.814-0.506 0.93236-0.09156 6.993 0.24629 10.814zm-17.809 39.755c-2.9914 3.1977-7.0731 7.4564-6.9307 8.3048 0.99454-0.36908 4.6706-5.2053 6.9307-8.3048zm20.767 6.2437c0.46873 5.5678 1.0288 13.072 1.7684 13.701 0.37268-1.2304-0.89372-8.8834-1.7684-13.701zm-32.107-4.896c-4.7949 2.8687-11.288 6.6704-11.529 7.6116 1.269-0.20616 7.5861-4.708 11.529-7.6116zm-19.361-3.35c-6.912 2.45-16.292 5.586-16.456 7.451 1.9556 0.56 10.897-4.246 16.456-7.451zm34.383-16.667c-4.376 0.15505-10.273 0.29261-10.771 0.99424 0.96515 0.44025 6.9825-0.39271 10.771-0.99424zm38.226-5.5989c5.7084-0.42805 13.424-0.87024 13.854-2.2092-1.4111-0.80059-9.062 0.95712-13.854 2.2092zm-26.327 47.89c-0.73087 4.3173-1.7857 10.121-1.1989 10.75 0.62589-0.85651 1.0239-6.9182 1.1989-10.75z"/>
 </g>
 <g id="layer5">
  <rect id="rect3171" style="opacity:.1;filter:url(#filter3794);stroke:#fff;stroke-linecap:round;stroke-width:.5;fill:url(#linearGradient3613)" clip-path="url(#clipPath3613)" rx="12" ry="12" height="66" width="66" y="15" x="15"/>
 </g>
 <g id="layer7">
  <path id="path3807" style="opacity:.08;fill-rule:evenodd" d="m48.062 21.969c-11.14-0.15-21.66 7.409-25.281 17.906-0.02594 0.07522-0.06852 0.14323-0.09375 0.21875-0.66096 1.2029-0.78163 2.5438-0.9375 3.7188-0.14411 1.0862-0.3657 1.7944-0.5625 2.1562-0.51818-0.0066-1.0709-0.0577-1.8125-0.03125-0.97169 0.03466-2.2157 0.35297-2.9375 1.4688a1.0849 1.0849 0 0 0 -0.062 0.094c-0.61618 1.1611-0.29053 2.4045 0.15625 3.25 0.44678 0.84548 0.98578 1.531 1.1875 2a1.0849 1.0849 0 0 0 0.0625 0.125c2.4401 4.143 4.7755 8.396 7.3438 12.531a1.0849 1.0849 0 0 0 0.125 0.1875c0.82461 0.83556 2.038 1.0174 3 0.71875 0.89253-0.27711 1.6213-0.94699 2-1.875h0.03125c0.034-0.061 0.059-0.128 0.093-0.188 2.703-4.741 5.551-9.427 8.187-14.25a1.0849 1.0849 0 0 0 0.09375 -0.21875c0.342-1.138-0.102-2.275-0.844-2.969-0.622-0.582-1.477-0.847-2.374-0.812-0.17112 0.0067-0.3262-0.06722-0.5-0.03125v0.03125c-0.40389-0.02592-0.77955-0.04122-1.0625 0 0.96783-4.8996 4.7396-8.9635 9.4375-10.625-0.37608 1.17-0.41327 2.3899-0.34375 3.4688 0.000274 0.0205-0.000262 0.042 0 0.0625 0.0459 3.588-0.09023 7.2591 0.09375 10.938a1.0849 1.0849 0 0 0 0.03125 0.125c0.26094 1.4636 1.1768 2.6042 2.3125 3.2812 1.0996 0.65557 2.4109 0.89843 3.6875 0.75v0.03125c3.194-0.04705 6.4532 0.09052 9.75-0.09375a1.0849 1.0849 0 0 0 0.094 -0.031c1.86-0.294 3.089-1.675 3.656-3.281-0.661 6.337-5.914 12.042-12.282 12.875a1.0849 1.0849 0 0 0 -0.0625 0c-0.44775 0.09562-1.3691 0.05314-2.3438 0.1875-0.48734 0.06718-0.99657 0.18525-1.5 0.5s-0.96451 0.85152-1.1875 1.5a1.0849 1.0849 0 0 0 -0.03125 0.21875c-0.30848 2.4504-0.07956 4.847-0.15625 7.0625a1.0849 1.0849 0 0 0 0 0.03125c-0.01003 1.1413 0.69514 2.079 1.5312 2.5625 0.77121 0.44597 1.6553 0.5637 2.5312 0.40625v0.03125c0.07428-0.0019 0.14455-0.02872 0.21875-0.03125 10.9-0.3711 20.946-7.9337 24.344-18.281 0.003-0.0092-0.003-0.02205 0-0.03125 3.4497-9.8334 0.51498-21.395-7.1875-28.406-0.0107-0.01004-0.02053-0.02123-0.03125-0.03125-4.9265-4.6072-11.588-7.2738-18.344-7.25-0.01044 0.000037-0.02081-0.000049-0.03125 0zm4.5625 13.375c5.0688 1.6546 8.9151 6.2059 9.7188 11.469-0.30158-0.61072-0.58382-1.2379-1.1875-1.6875-0.0079-0.0062-0.02336 0.0061-0.03125 0-1.176-0.90955-2.5335-1.1628-3.75-1.1875-1.2247-0.02486-2.3466 0.10673-3.2812 0.03125v0.03125c-0.34255-0.05629-0.6328-0.051-0.875-0.03125-0.08136 0.0066-0.11422-0.0062-0.1875 0-0.05943-2.5995 0.13664-5.3496-0.21875-8.1562h0.03125c0-0.029-0.029-0.035-0.031-0.063-0.0028-0.0215 0.0029-0.04099 0-0.0625h-0.03125c-0.015-0.149-0.117-0.213-0.156-0.344z"/>
  <path id="path3796" style="opacity:.1;fill-rule:evenodd" d="m48.062 23.062c-10.724-0.157-20.945 7.213-24.337 17.366-1.16 1.885-0.646 5.328-1.843 6.603-1.511 0.173-3.548-0.562-4.538 0.969-0.83855 1.5801 0.79731 2.9433 1.3842 4.308 2.4531 4.1652 4.7576 8.437 7.3033 12.536 1.0545 1.0685 2.8718 0.41011 3.3085-0.93947 2.7435-4.8194 5.6302-9.5794 8.2853-14.436 0.43496-1.4486-1.0614-2.7269-2.4598-2.4375-0.75287-0.20852-2.4758 0.42959-2.5878-0.33826 0.88498-6.9127 6.9103-12.705 13.86-13.287-2.2468 0.85995-2.5153 3.3694-2.375 5.4418 0.04876 3.6447-0.10084 7.3022 0.08103 10.938 0.40542 2.2739 2.796 3.4459 4.9345 3.1512 3.2347-0.04765 6.4821 0.09929 9.7083-0.08103 3.1342-0.49596 4.2837-4.992 1.7078-6.8867-1.858-1.454-4.324-0.731-6.498-0.907-0.757-0.186-2.434 0.549-2.058-0.77-0.089-2.811 0.194-5.657-0.177-8.441-0.044-1.547-3.651-2.956-0.718-2.234 7.217 1.218 12.936 8.048 12.769 15.383 0.174 7.552-5.851 14.59-13.343 15.569-1.404 0.3-3.617-0.289-4.219 1.462-0.287 2.283-0.045 4.652-0.125 6.969-0.01312 1.4926 1.6112 2.2365 2.9376 1.9184 10.506-0.2625 20.309-7.642 23.571-17.614 3.3169-9.4179 0.47595-20.575-6.9169-27.28-4.732-4.439-11.162-6.992-17.655-6.962z"/>
  <path id="path3792" style="opacity:.15;fill-rule:evenodd" d="m48.062 23.969c-13.443 0-24.374 10.662-24.938 23.969h-4.125a1.0193 1.0193 0 0 0 -0.875 1.5312l8.376 14.531a1.0193 1.0193 0 0 0 1.75 0l8.4062-14.531a1.0193 1.0193 0 0 0 -0.875 -1.5312h-4.2812c0.55251-8.7114 7.7087-15.594 16.562-15.594 9.2139 0 16.656 7.4424 16.656 16.656 0 9.2139-7.4424 16.656-16.656 16.656a1.0193 1.0193 0 0 0 -1.0312 1.0312v6.3125a1.0193 1.0193 0 0 0 1.0312 1.0312c13.804 0 25.031-11.228 25.031-25.031 0-13.804-11.228-25.031-25.031-25.031zm-0.0625 10c-1.655 0-3.0312 1.3762-3.0312 3.0312v12c0 1.655 1.3762 3.0312 3.0312 3.0312h10c1.655 0 3.0312-1.3762 3.0312-3.0312s-1.3762-3.0312-3.0312-3.0312h-6.9688v-8.9688c0-1.655-1.3762-3.0312-3.0312-3.0312z"/>
  <path id="path3788" style="opacity:.3;fill-rule:evenodd" d="m48.062 25c-13.246 0-23.989 10.725-24 23.969h-5.0625l8.375 14.531 8.4062-14.531h-5.4062c0.011-9.756 7.929-17.657 17.687-17.657 9.766 0 17.688 7.923 17.688 17.688 0 9.7651-7.9224 17.688-17.688 17.688v6.3125c13.253 0 24-10.747 24-24s-10.747-24-24-24zm-0.062 10c-1.108 0-2 0.892-2 2v12c0 1.108 0.892 2 2 2h10c1.108 0 2-0.892 2-2s-0.892-2-2-2h-8v-10c0-1.108-0.892-2-2-2z"/>
  <path id="path3772" style="fill:#fff;fill-rule:evenodd" d="m48.062 24c-13.246 0-23.989 10.725-24 23.969h-5.0625l8.375 14.531 8.4062-14.531h-5.4062c0.011-9.756 7.929-17.657 17.687-17.657 9.766 0 17.688 7.923 17.688 17.688 0 9.7651-7.9224 17.688-17.688 17.688v6.3125c13.253 0 24-10.747 24-24s-10.747-24-24-24zm-0.062 10c-1.108 0-2 0.892-2 2v12c0 1.108 0.892 2 2 2h10c1.108 0 2-0.892 2-2s-0.892-2-2-2h-8v-10c0-1.108-0.892-2-2-2z"/>
  <path id="path3781" style="fill:#f0f;fill-rule:evenodd" d="m-31.944 23.992c-13.246 0-23.998 10.745-24.008 23.989h-5.0544l8.3911 14.531 8.3911-14.531h-5.4098c0.01075-9.756 7.932-17.671 17.69-17.671 9.7651 0 17.69 7.9253 17.69 17.69 0 9.7651-7.9253 17.69-17.69 17.69v6.318c13.253 0 24.008-10.756 24.008-24.008 0-13.253-10.756-24.008-24.008-24.008z"/>
  <rect id="rect3783" style="fill:#f0f" rx="2" ry="2" height="16" width="4" y="34" x="-34"/>
  <rect id="rect3785" style="fill:#f0f" transform="rotate(90)" rx="2" ry="2" height="14" width="4" y="20" x="46"/>
 </g>
</svg>
