<?xml version="1.0" encoding="UTF-8" standalone="no"?>
<!-- Created with Inkscape (http://www.inkscape.org/) -->

<svg
   xmlns:dc="http://purl.org/dc/elements/1.1/"
   xmlns:cc="http://creativecommons.org/ns#"
   xmlns:rdf="http://www.w3.org/1999/02/22-rdf-syntax-ns#"
   xmlns:svg="http://www.w3.org/2000/svg"
   xmlns="http://www.w3.org/2000/svg"
   xmlns:xlink="http://www.w3.org/1999/xlink"
   xmlns:sodipodi="http://sodipodi.sourceforge.net/DTD/sodipodi-0.dtd"
   xmlns:inkscape="http://www.inkscape.org/namespaces/inkscape"
   width="96"
   height="96"
   id="svg2982"
   version="1.1"
   inkscape:version="0.48.1 r9760"
   sodipodi:docname="folder-open.svg">
  <defs
     id="defs2984">
    <filter
       color-interpolation-filters="sRGB"
       inkscape:collect="always"
       id="filter8262">
      <feGaussianBlur
         inkscape:collect="always"
         stdDeviation="0.78065245"
         id="feGaussianBlur8264" />
    </filter>
    <linearGradient
       inkscape:collect="always"
       xlink:href="#linearGradient3317-99"
       id="linearGradient6376"
       gradientUnits="userSpaceOnUse"
       gradientTransform="matrix(0.93225601,0,0,0.93225601,3.2517099,958.18159)"
       x1="48.035713"
       y1="25.910715"
       x2="48.035713"
       y2="85.821426" />
    <linearGradient
       x1="11.794092"
       y1="3.2126782"
       x2="11.794092"
       y2="20.137329"
       id="linearGradient3317-99"
       gradientUnits="userSpaceOnUse"
       gradientTransform="scale(1.0598527,0.9435274)">
      <stop
         id="stop3319-60"
         style="stop-color:#3c8fc2;stop-opacity:1"
         offset="0" />
      <stop
         id="stop3321-6"
         style="stop-color:#2174a6;stop-opacity:1"
         offset="1" />
    </linearGradient>
    <linearGradient
       y2="5.9877172"
       x2="48"
       y1="78"
       x1="48"
       gradientTransform="matrix(0.94416667,0,0,0.94540788,2.68,965.06074)"
       gradientUnits="userSpaceOnUse"
       id="linearGradient3075"
       xlink:href="#linearGradient3968-8"
       inkscape:collect="always" />
    <linearGradient
       id="linearGradient3968-8">
      <stop
         id="stop3970-7"
         style="stop-color:#b0b0b0;stop-opacity:1"
         offset="0" />
      <stop
         id="stop3972"
         style="stop-color:#d7d7d7;stop-opacity:1"
         offset="1" />
    </linearGradient>
    <linearGradient
       y2="5.9877172"
       x2="48"
       y1="78"
       x1="48"
       gradientTransform="matrix(0.94416667,0,0,0.94540788,2.68,965.06074)"
       gradientUnits="userSpaceOnUse"
       id="linearGradient6391"
       xlink:href="#linearGradient3968-8"
       inkscape:collect="always" />
    <linearGradient
       y2="96.024994"
       x2="45.5"
       y1="0.48100731"
       x1="45.5"
       gradientTransform="matrix(0.7053571,0,0,0.7053571,34.928572,10.589286)"
       gradientUnits="userSpaceOnUse"
       id="linearGradient3126"
       xlink:href="#linearGradient3948-58"
       inkscape:collect="always" />
    <linearGradient
       id="linearGradient3948-58">
      <stop
         id="stop3950-6"
         style="stop-color:#000000;stop-opacity:0.56910568"
         offset="0" />
      <stop
         id="stop3952-2"
         style="stop-color:#000000;stop-opacity:0"
         offset="0.07017544" />
      <stop
         id="stop3954-8"
         style="stop-color:#3c3c3c;stop-opacity:0.09019608"
         offset="0.20271669" />
      <stop
         id="stop3956-4"
         style="stop-color:#888888;stop-opacity:0.13725491"
         offset="0.26648945" />
      <stop
         id="stop3958-7"
         style="stop-color:#bbbbbb;stop-opacity:0.18431373"
         offset="0.35024518" />
      <stop
         id="stop3960-2"
         style="stop-color:#757575;stop-opacity:0.13725489"
         offset="0.43899667" />
      <stop
         id="stop3962-4"
         style="stop-color:#383838;stop-opacity:0.09019608"
         offset="0.49777371" />
      <stop
         id="stop3964-0"
         style="stop-color:#8a8a8a;stop-opacity:0.19215687"
         offset="0.65896344" />
      <stop
         id="stop3966-6"
         style="stop-color:#292929;stop-opacity:0.60975611"
         offset="1" />
    </linearGradient>
    <linearGradient
       y2="96.024994"
       x2="45.5"
       y1="0.48100731"
       x1="45.5"
       gradientTransform="matrix(0.7053571,0,0,0.7053571,34.928572,10.589286)"
       gradientUnits="userSpaceOnUse"
       id="linearGradient3085"
       xlink:href="#linearGradient3948-58"
       inkscape:collect="always" />
  </defs>
  <sodipodi:namedview
     id="base"
     pagecolor="#ffffff"
     bordercolor="#666666"
     borderopacity="1.0"
     inkscape:pageopacity="0.0"
     inkscape:pageshadow="2"
     inkscape:zoom="3.959798"
     inkscape:cx="36.39115"
     inkscape:cy="42.877139"
     inkscape:document-units="px"
     inkscape:current-layer="layer1"
     showgrid="false"
     inkscape:window-width="1280"
     inkscape:window-height="725"
     inkscape:window-x="0"
     inkscape:window-y="25"
     inkscape:window-maximized="1" />
  <metadata
     id="metadata2987">
    <rdf:RDF>
      <cc:Work
         rdf:about="">
        <dc:format>image/svg+xml</dc:format>
        <dc:type
           rdf:resource="http://purl.org/dc/dcmitype/StillImage" />
        <dc:title></dc:title>
      </cc:Work>
    </rdf:RDF>
  </metadata>
  <g
     inkscape:label="Layer 1"
     inkscape:groupmode="layer"
     id="layer1"
     transform="translate(0,-956.36218)">
    <g
       id="g7168">
      <path
         transform="matrix(1.0210423,0,0,1.0210423,-1.0100318,-21.123619)"
         d="m 17.070652,965.51435 c -2.595687,0 -4.679348,2.03609 -4.679348,4.56522 l 0,3.36685 c -2.158489,1.02387 -3.6521736,3.20738 -3.6521736,5.76359 l 0,57.52169 c 0,3.5408 2.8505216,6.3914 6.3913046,6.3914 l 65.73913,0 c 3.540783,0 6.391305,-2.8506 6.391305,-6.3914 l 0,-57.52169 c 0,-2.56541 -1.509597,-4.74452 -3.680707,-5.76359 -0.154897,-2.39074 -2.156759,-4.27989 -4.650815,-4.27989 l -37.063859,0 c -3.853525,-3.75472 -4.111223,-3.59107 -5.934782,-3.65218 l -18.860055,0 z"
         inkscape:connector-curvature="0"
         id="path3908-1"
         style="fill:#000000;fill-opacity:1;fill-rule:nonzero;stroke:none;display:inline;filter:url(#filter8262)" />
      <rect
         width="69.919197"
         height="58.432476"
         rx="5.5935359"
         ry="5.5935359"
         x="13.073692"
         y="979.75665"
         id="rect3352"
         style="fill:url(#linearGradient6376);fill-opacity:1;fill-rule:nonzero;stroke:none;display:inline" />
      <path
         d="m 17.23555,963.77513 c -2.582349,0 -4.66128,2.07893 -4.66128,4.66128 l 0,55.76059 c 0,2.2311 1.789204,4.0203 4.020354,4.0203 l 62.810749,0 c 2.231149,0 4.020354,-1.7892 4.020354,-4.0203 l 0,-52.03157 c 0,-2.58235 -2.078931,-4.66128 -4.66128,-4.66128 l -37.785502,0 c -3.833725,-3.83373 -4.070676,-3.66664 -5.884866,-3.72902 z"
         inkscape:connector-curvature="0"
         id="path3908"
         style="opacity:0.75;fill:#babdb6;fill-opacity:1;fill-rule:nonzero;stroke:none;display:inline" />
      <rect
         width="78.309006"
         height="70.851006"
         rx="5.5935006"
         ry="5.5935006"
         x="8.8452435"
         y="971.23358"
         id="rect2419"
         style="fill:#d3d7cf;fill-opacity:1;fill-rule:nonzero;stroke:#eeeeec;stroke-width:0.99999368;stroke-opacity:1" />
      <rect
         style="fill:url(#linearGradient6391);fill-opacity:1;fill-rule:nonzero;stroke:none;display:inline"
         id="rect2419-8"
         y="970.73315"
         x="8.3450003"
         ry="5.6724472"
         rx="5.665"
         height="71.850998"
         width="79.309998" />
    </g>
    <g
       transform="translate(0,956.36218)"
       id="g3094">
      <path
         d="m 53,11 c 1.662,0 3,1.338 3,3 l 0,5 0.09375,0 0,45.1875 0,14.125 12,-16.9375 11.96875,16.9375 0,-2.125 0,-12 L 80,14 c 0,-1.662 -1.338,-3 -3,-3 l -1.03125,0 -22,0 L 53,11 z"
         inkscape:connector-curvature="0"
         id="rect3204"
         style="fill:#646464;fill-opacity:1;stroke:none;display:inline" />
      <path
         d="M 54.875,11 C 56.047304,11 58,11.282513 58,13.125 L 58,71.59375 68.09375,58 l 9.875,13.59375 0,-58.46875 C 77.968726,11.952697 77.016054,11 75.84375,11 L 73.875,11 C 75.0473,11 76,11.952697 76,13.125 l 0,52.5625 -7.90625,-11.3125 -8.15625,11.3125 0,-52.5625 C 59.9375,11.148621 57.984804,11 56.8125,11 l -1.9375,0 z"
         inkscape:connector-curvature="0"
         id="path3173"
         style="fill:#828282;fill-opacity:1;stroke:none;display:inline" />
      <path
         d="m 53,11 c -1.662,0 -3,1.338 -3,3 l 0,0.03125 6,0 L 56,14 c 0,-1.662 -1.338,-3 -3,-3 z"
         inkscape:connector-curvature="0"
         id="rect3196"
         style="fill:#323232;fill-opacity:1;stroke:none;display:inline" />
      <path
         d="m 53,11 c 1.662,0 3,1.338 3,3 l 0,5 0.0937,0 0,45.1875 0,14.125 12,-16.9375 11.96875,16.9375 0,-2.125 0,-12 L 80,14 C 80,12.404025 78.75722,11.131797 77.1875,11.03125 77.11988,11.012462 77.06373,11.00275 77,11 L 53.96875,11 53,11 z"
         inkscape:connector-curvature="0"
         id="path3177"
         style="fill:url(#linearGradient3085);fill-opacity:1;stroke:none;display:inline" />
    </g>
  </g>
</svg>
