<?xml version="1.0" encoding="UTF-8" standalone="no"?>
<!-- Created with Inkscape (http://www.inkscape.org/) -->
<svg id="svg2982" xmlns:rdf="http://www.w3.org/1999/02/22-rdf-syntax-ns#" xmlns="http://www.w3.org/2000/svg" height="96" width="96" version="1.1" xmlns:cc="http://creativecommons.org/ns#" xmlns:xlink="http://www.w3.org/1999/xlink" xmlns:dc="http://purl.org/dc/elements/1.1/">
 <defs id="defs2984">
  <filter id="filter6279-2" color-interpolation-filters="sRGB">
   <feGaussianBlur id="feGaussianBlur6281-1" stdDeviation="0.8"/>
  </filter>
  <linearGradient id="linearGradient6145" y2="902.36" gradientUnits="userSpaceOnUse" x2="48" gradientTransform="translate(0 -.0000078516)" y1="1052.4" x1="48">
   <stop id="stop3726" style="stop-color:#ffa92a" offset="0"/>
   <stop id="stop3728" style="stop-color:#ffcf2a" offset="1"/>
  </linearGradient>
  <filter id="filter3276" color-interpolation-filters="sRGB">
   <feGaussianBlur id="feGaussianBlur3278" stdDeviation="0.56241694"/>
  </filter>
  <linearGradient id="linearGradient6989" y2="103.55" xlink:href="#linearGradient4842" gradientUnits="userSpaceOnUse" x2="69.921" gradientTransform="matrix(.82379 0 0 .82379 -4.7207 929.82)" y1="103.55" x1="87.229"/>
  <linearGradient id="linearGradient4842">
   <stop id="stop4844" style="stop-color:#e6e6e6" offset="0"/>
   <stop id="stop4846" style="stop-color:#f5f5f5" offset="1"/>
  </linearGradient>
  <linearGradient id="linearGradient6986" y2="97.972" xlink:href="#linearGradient4842" gradientUnits="userSpaceOnUse" x2="86.749" gradientTransform="matrix(.82379 0 0 .82379 -4.7207 929.82)" y1="87.433" x1="82.856"/>
  <linearGradient id="linearGradient6983" y2="68.296" xlink:href="#linearGradient4842" gradientUnits="userSpaceOnUse" x2="61.13" gradientTransform="matrix(.82379 0 0 .82379 -4.7207 929.82)" y1="76.541" x1="52.106"/>
  <linearGradient id="linearGradient6980" y2="80.815" xlink:href="#linearGradient4842" gradientUnits="userSpaceOnUse" x2="75.281" gradientTransform="matrix(.82379 0 0 .82379 -4.7207 929.82)" y1="63.589" x1="66.74"/>
  <linearGradient id="linearGradient6977" y2="93.471" xlink:href="#linearGradient4842" gradientUnits="userSpaceOnUse" x2="48.194" gradientTransform="matrix(.82379 0 0 .82379 -4.7207 929.82)" y1="104.22" x1="43.245"/>
  <linearGradient id="linearGradient7075" y2="110.66" xlink:href="#linearGradient4842" gradientUnits="userSpaceOnUse" y1="106.16" gradientTransform="matrix(.82379 0 0 .82379 -4.7207 929.82)" x2="46.921" x1="60.414"/>
 </defs>
 <metadata id="metadata2987">
  <rdf:RDF>
   <cc:Work rdf:about="">
    <dc:format>image/svg+xml</dc:format>
    <dc:type rdf:resource="http://purl.org/dc/dcmitype/StillImage"/>
    <dc:title/>
   </cc:Work>
  </rdf:RDF>
 </metadata>
 <g id="layer1" transform="translate(0 -956.36)">
  <g id="g6991">
   <rect id="rect9283" ry="5" style="filter:url(#filter6279-2)" rx="5" transform="translate(0 -.0000078516)" height="80" width="80" y="964.36" x="8"/>
   <rect id="rect9285" style="fill:url(#linearGradient6145)" rx="5" ry="5" height="80" width="80" y="964.36" x="8"/>
   <path id="path3270" d="m75.778 90.69 6.3317-11.357 0.0301 4.1536 13.326-0.03009c2.3811-0.25234 4.4687-1.2201 5.9805-3.0399-4.825 9.8683-6.2147 16.851-16.226 16.855h-3.0806l-0.0301 4.6151-6.3317-11.197zm14.5-8.9587-5.8802-10.835 11.881-7.1935 5.7497 11.518c0.17409 2.7563-4.2769 6.592-7.0396 6.5622l-4.712-0.05zm-36.131-24.001 6.07-9.096c5.8874-2.1923 9.2977 2.5406 11.45 5.524l-5.719 10.976-11.801-7.404zm23.982 4.5275c-1.221-2.878-2.852-6.17-4.892-9.032-1.826-2.563-4.033-4.798-5.704-5.797l15.353-0.03009c2.7572 0.24748 4.0968 1.8546 5.5591 4.0532l2.2076 3.8827 3.4117-2.1771-6.422 11.437-13.848 0.03009 4.3349-2.3677zm-21.244 4.2464 7.3428 10.731-3.7316-1.8255-5.9163 11.938c-0.83607 2.2434-0.90083 4.5431 0.05403 6.7077-6.682-8.719-12.313-13.077-7.852-22.038l1.3739-2.7568-4.1179-2.0852 12.847-0.67259zm1.6825 16.973 13.538-0.42958-0.07542 13.84-12.875 0.0086c-2.5451-1.0735-3.9936-6.7673-2.7347-9.2263l2.1465-4.1929z" style="opacity:.8;filter:url(#filter3276)" transform="matrix(.82379 0 0 .82379 -12.166 942.49)"/>
   <path id="path3280" d="m75.778 92.69 6.3317-11.357 0.0301 4.1536 13.326-0.03009c2.3811-0.25235 4.4687-1.2201 5.9805-3.0399-4.825 9.8683-6.2147 16.851-16.226 16.855h-3.0806l-0.0301 4.6151-6.3317-11.197zm14.5-8.9587-5.8802-10.835 11.881-7.1935 5.7497 11.518c0.17409 2.7563-4.2769 6.592-7.0396 6.5622l-4.712-0.05zm-36.131-24.001 6.07-9.096c5.8874-2.1923 9.2977 2.5406 11.45 5.524l-5.719 10.976-11.801-7.404zm23.982 4.5275c-1.221-2.878-2.852-6.17-4.892-9.032-1.826-2.563-4.033-4.798-5.704-5.797l15.353-0.03009c2.7572 0.24748 4.0968 1.8546 5.5591 4.0532l2.2076 3.8827 3.4117-2.1771-6.422 11.437-13.848 0.03009 4.3349-2.3677zm-21.244 4.2464 7.3428 10.731-3.7316-1.8255-5.9163 11.938c-0.83607 2.2434-0.90083 4.5431 0.05403 6.7077-6.682-8.719-12.313-13.077-7.852-22.038l1.3739-2.7568-4.1179-2.0852 12.847-0.67259zm1.6825 16.973 13.538-0.42959-0.07542 13.84-12.875 0.0086c-2.5451-1.0735-3.9936-6.7673-2.7347-9.2263l2.1465-4.1929z" style="opacity:.8;filter:url(#filter3276);fill:#fff" transform="matrix(.82379 0 0 .82379 -12.166 942.17)"/>
   <path id="path3292" style="fill:url(#linearGradient6989)" d="m50.259 1017.9 5.216-9.3559 0.0248 3.4217 10.978-0.025c1.9615-0.2079 3.6813-1.0051 4.9267-2.5042-3.9748 8.1294-5.1196 13.882-13.367 13.885h-2.5377l-0.0248 3.8019-5.216-9.2237z"/>
   <path id="path3290" style="fill:url(#linearGradient6986)" d="m62.204 1010.5-4.844-8.9261 9.7873-5.9259 4.7366 9.4881c0.14341 2.2706-3.5233 5.4304-5.7991 5.4058l-3.8807-0.042z"/>
   <path id="path3288" style="fill:url(#linearGradient6983)" d="m32.44 990.71 5.0004-7.4929c4.85-1.806 7.6594 2.0929 9.4325 4.5506l-4.7118 9.0418-9.7211-6.0995z"/>
   <path id="path3286" style="fill:url(#linearGradient6980)" d="m52.196 994.44c-1.0057-2.3707-2.3495-5.0824-4.0299-7.4401-1.5044-2.1109-3.3222-3.9526-4.6993-4.7754l12.647-0.0248c2.2713 0.20388 3.3749 1.5278 4.5795 3.339l1.8186 3.1985 2.8105-1.7935-5.2904 9.422-11.407 0.0248 3.571-1.9505z"/>
   <path id="path3284" style="fill:url(#linearGradient6977)" d="m34.695 997.94 6.0489 8.8404-3.0741-1.5038-4.8738 9.8348c-0.68874 1.848-0.7421 3.7426 0.04451 5.5257-5.5046-7.1827-10.143-10.773-6.4683-18.154l1.1318-2.271-3.3923-1.7178 10.583-0.55407z"/>
   <path id="path4068" style="fill:url(#linearGradient7075)" d="m36.081 1011.9 11.153-0.3539-0.06213 11.401-10.606 0.01c-2.0966-0.8843-3.2899-5.5748-2.2528-7.6005l1.7683-3.4541z"/>
  </g>
 </g>
</svg>
