<?xml version="1.0" encoding="UTF-8" standalone="no"?>
<!-- Created with Inkscape (http://www.inkscape.org/) -->

<svg
   xmlns:dc="http://purl.org/dc/elements/1.1/"
   xmlns:cc="http://creativecommons.org/ns#"
   xmlns:rdf="http://www.w3.org/1999/02/22-rdf-syntax-ns#"
   xmlns:svg="http://www.w3.org/2000/svg"
   xmlns="http://www.w3.org/2000/svg"
   xmlns:xlink="http://www.w3.org/1999/xlink"
   xmlns:sodipodi="http://sodipodi.sourceforge.net/DTD/sodipodi-0.dtd"
   xmlns:inkscape="http://www.inkscape.org/namespaces/inkscape"
   width="96"
   height="96"
   id="svg2982"
   version="1.1"
   inkscape:version="0.48.1 r9760"
   sodipodi:docname="user-trash-full.svg">
  <defs
     id="defs2984">
    <filter
       color-interpolation-filters="sRGB"
       inkscape:collect="always"
       id="filter6279-2">
      <feGaussianBlur
         inkscape:collect="always"
         stdDeviation="0.8"
         id="feGaussianBlur6281-1" />
    </filter>
    <linearGradient
       inkscape:collect="always"
       xlink:href="#linearGradient3724"
       id="linearGradient6145"
       gradientUnits="userSpaceOnUse"
       gradientTransform="translate(0,-7.8515622e-6)"
       x1="48"
       y1="1052.3622"
       x2="48"
       y2="902.36218" />
    <linearGradient
       id="linearGradient3724">
      <stop
         id="stop3726"
         style="stop-color:#ffa92a;stop-opacity:1"
         offset="0" />
      <stop
         id="stop3728"
         style="stop-color:#ffcf2a;stop-opacity:1"
         offset="1" />
    </linearGradient>
    <filter
       color-interpolation-filters="sRGB"
       id="filter3276">
      <feGaussianBlur
         id="feGaussianBlur3278"
         stdDeviation="0.56241694" />
    </filter>
    <filter
       color-interpolation-filters="sRGB"
       id="filter7021">
      <feGaussianBlur
         id="feGaussianBlur7023"
         stdDeviation="0.56241694" />
    </filter>
    <linearGradient
       inkscape:collect="always"
       xlink:href="#linearGradient4842"
       id="linearGradient6989"
       gradientUnits="userSpaceOnUse"
       x1="87.228699"
       y1="103.55167"
       x2="69.920662"
       y2="103.55167"
       gradientTransform="matrix(0.8237913,0,0,0.8237913,-4.7207424,929.81611)" />
    <linearGradient
       id="linearGradient4842">
      <stop
         id="stop4844"
         style="stop-color:#e6e6e6;stop-opacity:1"
         offset="0" />
      <stop
         id="stop4846"
         style="stop-color:#f5f5f5;stop-opacity:1"
         offset="1" />
    </linearGradient>
    <linearGradient
       inkscape:collect="always"
       xlink:href="#linearGradient4842"
       id="linearGradient6986"
       gradientUnits="userSpaceOnUse"
       x1="82.855774"
       y1="87.433334"
       x2="86.748848"
       y2="97.972473"
       gradientTransform="matrix(0.8237913,0,0,0.8237913,-4.7207424,929.81611)" />
    <linearGradient
       id="linearGradient7030">
      <stop
         id="stop7032"
         style="stop-color:#e6e6e6;stop-opacity:1"
         offset="0" />
      <stop
         id="stop7034"
         style="stop-color:#f5f5f5;stop-opacity:1"
         offset="1" />
    </linearGradient>
    <linearGradient
       inkscape:collect="always"
       xlink:href="#linearGradient4842"
       id="linearGradient6983"
       gradientUnits="userSpaceOnUse"
       x1="52.105541"
       y1="76.541229"
       x2="61.130371"
       y2="68.295815"
       gradientTransform="matrix(0.8237913,0,0,0.8237913,-4.7207424,929.81611)" />
    <linearGradient
       id="linearGradient7037">
      <stop
         id="stop7039"
         style="stop-color:#e6e6e6;stop-opacity:1"
         offset="0" />
      <stop
         id="stop7041"
         style="stop-color:#f5f5f5;stop-opacity:1"
         offset="1" />
    </linearGradient>
    <linearGradient
       inkscape:collect="always"
       xlink:href="#linearGradient4842"
       id="linearGradient6980"
       gradientUnits="userSpaceOnUse"
       x1="66.740204"
       y1="63.588692"
       x2="75.281227"
       y2="80.814972"
       gradientTransform="matrix(0.8237913,0,0,0.8237913,-4.7207424,929.81611)" />
    <linearGradient
       id="linearGradient7044">
      <stop
         id="stop7046"
         style="stop-color:#e6e6e6;stop-opacity:1"
         offset="0" />
      <stop
         id="stop7048"
         style="stop-color:#f5f5f5;stop-opacity:1"
         offset="1" />
    </linearGradient>
    <linearGradient
       inkscape:collect="always"
       xlink:href="#linearGradient4842"
       id="linearGradient6977"
       gradientUnits="userSpaceOnUse"
       x1="43.245415"
       y1="104.21532"
       x2="48.193569"
       y2="93.471298"
       gradientTransform="matrix(0.8237913,0,0,0.8237913,-4.7207424,929.81611)" />
    <linearGradient
       id="linearGradient7051">
      <stop
         id="stop7053"
         style="stop-color:#e6e6e6;stop-opacity:1"
         offset="0" />
      <stop
         id="stop7055"
         style="stop-color:#f5f5f5;stop-opacity:1"
         offset="1" />
    </linearGradient>
    <linearGradient
       inkscape:collect="always"
       xlink:href="#linearGradient4842"
       id="linearGradient6974"
       gradientUnits="userSpaceOnUse"
       x1="60.413662"
       y1="106.16137"
       x2="46.921165"
       y2="110.65887"
       gradientTransform="matrix(0.8237913,0,0,0.8237913,-4.7207424,929.81611)" />
    <linearGradient
       id="linearGradient7058">
      <stop
         id="stop7060"
         style="stop-color:#e6e6e6;stop-opacity:1"
         offset="0" />
      <stop
         id="stop7062"
         style="stop-color:#f5f5f5;stop-opacity:1"
         offset="1" />
    </linearGradient>
    <linearGradient
       y2="110.65887"
       x2="46.921165"
       y1="106.16137"
       x1="60.413662"
       gradientTransform="matrix(0.8237913,0,0,0.8237913,-4.7207424,929.81611)"
       gradientUnits="userSpaceOnUse"
       id="linearGradient7075"
       xlink:href="#linearGradient4842"
       inkscape:collect="always" />
    <filter
       color-interpolation-filters="sRGB"
       id="filter3276-4">
      <feGaussianBlur
         id="feGaussianBlur3278-4"
         stdDeviation="0.56241694" />
    </filter>
    <filter
       color-interpolation-filters="sRGB"
       id="filter3631">
      <feGaussianBlur
         id="feGaussianBlur3633"
         stdDeviation="0.56241694" />
    </filter>
    <linearGradient
       x1="87.228699"
       y1="103.55167"
       x2="69.920662"
       y2="103.55167"
       id="linearGradient3659"
       xlink:href="#linearGradient4360"
       gradientUnits="userSpaceOnUse" />
    <linearGradient
       id="linearGradient4360">
      <stop
         id="stop4362"
         style="stop-color:#6e6e6e;stop-opacity:1"
         offset="0" />
      <stop
         id="stop4364"
         style="stop-color:#8c8c8c;stop-opacity:1"
         offset="1" />
    </linearGradient>
    <linearGradient
       x1="82.855774"
       y1="87.433334"
       x2="86.748848"
       y2="97.972473"
       id="linearGradient3661"
       xlink:href="#linearGradient4368"
       gradientUnits="userSpaceOnUse" />
    <linearGradient
       id="linearGradient4368">
      <stop
         id="stop4370"
         style="stop-color:#828282;stop-opacity:1"
         offset="0" />
      <stop
         id="stop4372"
         style="stop-color:#5a5a5a;stop-opacity:1"
         offset="1" />
    </linearGradient>
    <linearGradient
       x1="52.105541"
       y1="76.541229"
       x2="61.130371"
       y2="68.295815"
       id="linearGradient3663"
       xlink:href="#linearGradient4368"
       gradientUnits="userSpaceOnUse" />
    <linearGradient
       id="linearGradient3644">
      <stop
         id="stop3646"
         style="stop-color:#828282;stop-opacity:1"
         offset="0" />
      <stop
         id="stop3648"
         style="stop-color:#5a5a5a;stop-opacity:1"
         offset="1" />
    </linearGradient>
    <linearGradient
       x1="66.740204"
       y1="63.588692"
       x2="75.281227"
       y2="80.814972"
       id="linearGradient3665"
       xlink:href="#linearGradient4360"
       gradientUnits="userSpaceOnUse" />
    <linearGradient
       id="linearGradient3651">
      <stop
         id="stop3653"
         style="stop-color:#6e6e6e;stop-opacity:1"
         offset="0" />
      <stop
         id="stop3655"
         style="stop-color:#8c8c8c;stop-opacity:1"
         offset="1" />
    </linearGradient>
    <linearGradient
       x1="43.245415"
       y1="104.21532"
       x2="48.193569"
       y2="93.471298"
       id="linearGradient3667"
       xlink:href="#linearGradient4360"
       gradientUnits="userSpaceOnUse" />
    <linearGradient
       id="linearGradient3658">
      <stop
         id="stop3660"
         style="stop-color:#6e6e6e;stop-opacity:1"
         offset="0" />
      <stop
         id="stop3662"
         style="stop-color:#8c8c8c;stop-opacity:1"
         offset="1" />
    </linearGradient>
    <linearGradient
       x1="60.413662"
       y1="106.16137"
       x2="46.921165"
       y2="110.65887"
       id="linearGradient3669"
       xlink:href="#linearGradient4368"
       gradientUnits="userSpaceOnUse" />
    <linearGradient
       id="linearGradient3666">
      <stop
         id="stop3668"
         style="stop-color:#828282;stop-opacity:1"
         offset="0" />
      <stop
         id="stop3670"
         style="stop-color:#5a5a5a;stop-opacity:1"
         offset="1" />
    </linearGradient>
    <radialGradient
       cx="65.547707"
       cy="32.811893"
       r="51.413425"
       fx="65.547707"
       fy="32.811893"
       id="radialGradient3354"
       xlink:href="#linearGradient7105"
       gradientUnits="userSpaceOnUse"
       gradientTransform="matrix(0.4586549,-2.5902411e-8,1.2820624e-8,0.2816917,17.665932,21.191203)" />
    <linearGradient
       id="linearGradient7105">
      <stop
         id="stop7107"
         style="stop-color:#515151;stop-opacity:1"
         offset="0" />
      <stop
         id="stop7113"
         style="stop-color:#272727;stop-opacity:1"
         offset="1" />
    </linearGradient>
    <linearGradient
       x1="48.972488"
       y1="23.557802"
       x2="48.972488"
       y2="48.325878"
       id="linearGradient3090"
       xlink:href="#linearGradient5036"
       gradientUnits="userSpaceOnUse"
       gradientTransform="matrix(1.1666667,0,0,1.1681397,-10.535808,-6.8598463)" />
    <linearGradient
       id="linearGradient5036">
      <stop
         id="stop5038"
         style="stop-color:#a2a2a2;stop-opacity:1"
         offset="0" />
      <stop
         id="stop5040"
         style="stop-color:#838383;stop-opacity:1"
         offset="1" />
    </linearGradient>
    <filter
       color-interpolation-filters="sRGB"
       id="filter5122">
      <feGaussianBlur
         id="feGaussianBlur5124"
         stdDeviation="0.59217069" />
    </filter>
    <linearGradient
       x1="43.475548"
       y1="27.053726"
       x2="43.475548"
       y2="45.451324"
       id="linearGradient3092"
       xlink:href="#linearGradient5044"
       gradientUnits="userSpaceOnUse"
       gradientTransform="translate(-0.2498611,0.9994442)" />
    <linearGradient
       id="linearGradient5044">
      <stop
         id="stop5046"
         style="stop-color:#dcdcdc;stop-opacity:1"
         offset="0" />
      <stop
         id="stop5048"
         style="stop-color:#a5a5a5;stop-opacity:1"
         offset="1" />
    </linearGradient>
    <filter
       color-interpolation-filters="sRGB"
       id="filter5114">
      <feGaussianBlur
         id="feGaussianBlur5116"
         stdDeviation="0.66463039" />
    </filter>
    <linearGradient
       x1="80.30378"
       y1="34.651314"
       x2="83.099548"
       y2="45.08527"
       id="linearGradient3094"
       xlink:href="#linearGradient5044"
       gradientUnits="userSpaceOnUse" />
    <linearGradient
       id="linearGradient3689">
      <stop
         id="stop3691"
         style="stop-color:#dcdcdc;stop-opacity:1"
         offset="0" />
      <stop
         id="stop3693"
         style="stop-color:#a5a5a5;stop-opacity:1"
         offset="1" />
    </linearGradient>
    <filter
       color-interpolation-filters="sRGB"
       id="filter5106">
      <feGaussianBlur
         id="feGaussianBlur5108"
         stdDeviation="0.59217069" />
    </filter>
    <linearGradient
       x1="32.251034"
       y1="6.1317081"
       x2="32.251034"
       y2="90.238609"
       id="linearGradient2918"
       xlink:href="#ButtonShadow-0"
       gradientUnits="userSpaceOnUse"
       gradientTransform="matrix(1.0238095,0,0,1.0119048,-1.1428571,-98.071429)" />
    <linearGradient
       x1="45.447727"
       y1="92.539597"
       x2="45.447727"
       y2="7.0165396"
       id="ButtonShadow-0"
       gradientUnits="userSpaceOnUse"
       gradientTransform="matrix(1.0058652,0,0,0.994169,100,0)">
      <stop
         id="stop3750-8"
         style="stop-color:#000000;stop-opacity:1"
         offset="0" />
      <stop
         id="stop3752-5"
         style="stop-color:#000000;stop-opacity:0.58823532"
         offset="1" />
    </linearGradient>
    <linearGradient
       x1="32.251034"
       y1="6.1317081"
       x2="32.251034"
       y2="90.238609"
       id="linearGradient3780"
       xlink:href="#ButtonShadow-0"
       gradientUnits="userSpaceOnUse"
       gradientTransform="matrix(1.0238095,0,0,1.0119048,-1.1428571,-98.071429)" />
    <linearGradient
       x1="45.447727"
       y1="92.539597"
       x2="45.447727"
       y2="7.0165396"
       id="linearGradient3702"
       gradientUnits="userSpaceOnUse"
       gradientTransform="matrix(1.0058652,0,0,0.994169,100,0)">
      <stop
         id="stop3704"
         style="stop-color:#000000;stop-opacity:1"
         offset="0" />
      <stop
         id="stop3706"
         style="stop-color:#000000;stop-opacity:0.58823532"
         offset="1" />
    </linearGradient>
    <linearGradient
       x1="32.251034"
       y1="6.1317081"
       x2="32.251034"
       y2="90.238609"
       id="linearGradient3772"
       xlink:href="#ButtonShadow-0"
       gradientUnits="userSpaceOnUse"
       gradientTransform="matrix(1.0238095,0,0,1.0119048,-1.1428571,-98.071429)" />
    <linearGradient
       x1="45.447727"
       y1="92.539597"
       x2="45.447727"
       y2="7.0165396"
       id="linearGradient3709"
       gradientUnits="userSpaceOnUse"
       gradientTransform="matrix(1.0058652,0,0,0.994169,100,0)">
      <stop
         id="stop3711"
         style="stop-color:#000000;stop-opacity:1"
         offset="0" />
      <stop
         id="stop3713"
         style="stop-color:#000000;stop-opacity:0.58823532"
         offset="1" />
    </linearGradient>
    <linearGradient
       x1="32.251034"
       y1="6.1317081"
       x2="32.251034"
       y2="90.238609"
       id="linearGradient3725"
       xlink:href="#ButtonShadow-0"
       gradientUnits="userSpaceOnUse"
       gradientTransform="matrix(1.0238095,0,0,1.0119048,-1.1428571,-98.071429)" />
    <linearGradient
       x1="45.447727"
       y1="92.539597"
       x2="45.447727"
       y2="7.0165396"
       id="linearGradient3716"
       gradientUnits="userSpaceOnUse"
       gradientTransform="matrix(1.0058652,0,0,0.994169,100,0)">
      <stop
         id="stop3718"
         style="stop-color:#000000;stop-opacity:1"
         offset="0" />
      <stop
         id="stop3720"
         style="stop-color:#000000;stop-opacity:0.58823532"
         offset="1" />
    </linearGradient>
    <linearGradient
       x1="32.251034"
       y1="6.1317081"
       x2="32.251034"
       y2="90.238609"
       id="linearGradient3721"
       xlink:href="#ButtonShadow-0"
       gradientUnits="userSpaceOnUse"
       gradientTransform="translate(0,-97)" />
    <linearGradient
       x1="45.447727"
       y1="92.539597"
       x2="45.447727"
       y2="7.0165396"
       id="linearGradient3723"
       gradientUnits="userSpaceOnUse"
       gradientTransform="matrix(1.0058652,0,0,0.994169,100,0)">
      <stop
         id="stop3725"
         style="stop-color:#000000;stop-opacity:1"
         offset="0" />
      <stop
         id="stop3727"
         style="stop-color:#000000;stop-opacity:0.58823532"
         offset="1" />
    </linearGradient>
    <linearGradient
       y2="90.238609"
       x2="32.251034"
       y1="6.1317081"
       x1="32.251034"
       gradientTransform="translate(0,-97)"
       gradientUnits="userSpaceOnUse"
       id="linearGradient3781"
       xlink:href="#ButtonShadow-0"
       inkscape:collect="always" />
    <radialGradient
       inkscape:collect="always"
       xlink:href="#linearGradient7105"
       id="radialGradient3440"
       gradientUnits="userSpaceOnUse"
       gradientTransform="matrix(0.41493721,-2.0783539e-8,1.1598598e-8,0.22602338,21.523927,978.2625)"
       cx="65.547707"
       cy="32.811893"
       fx="65.547707"
       fy="32.811893"
       r="51.413425" />
    <linearGradient
       inkscape:collect="always"
       xlink:href="#linearGradient5036"
       id="linearGradient3442"
       gradientUnits="userSpaceOnUse"
       gradientTransform="matrix(1.1666667,0,0,1.1681397,-10.535808,-6.8598463)"
       x1="48.972488"
       y1="23.557802"
       x2="48.972488"
       y2="48.325878" />
    <linearGradient
       inkscape:collect="always"
       xlink:href="#linearGradient5044"
       id="linearGradient3444"
       gradientUnits="userSpaceOnUse"
       gradientTransform="translate(-0.2498611,0.9994442)"
       x1="43.475548"
       y1="27.053726"
       x2="43.475548"
       y2="45.451324" />
    <linearGradient
       inkscape:collect="always"
       xlink:href="#linearGradient5044"
       id="linearGradient3446"
       gradientUnits="userSpaceOnUse"
       x1="80.30378"
       y1="34.651314"
       x2="83.099548"
       y2="45.08527" />
    <linearGradient
       inkscape:collect="always"
       xlink:href="#linearGradient5044"
       id="linearGradient3483"
       gradientUnits="userSpaceOnUse"
       x1="80.30378"
       y1="34.651314"
       x2="83.099548"
       y2="45.08527" />
    <linearGradient
       inkscape:collect="always"
       xlink:href="#linearGradient5044"
       id="linearGradient3494"
       gradientUnits="userSpaceOnUse"
       gradientTransform="translate(-0.2498611,0.9994442)"
       x1="43.475548"
       y1="27.053726"
       x2="43.475548"
       y2="45.451324" />
    <linearGradient
       inkscape:collect="always"
       xlink:href="#linearGradient5036"
       id="linearGradient3504"
       gradientUnits="userSpaceOnUse"
       gradientTransform="matrix(1.1666667,0,0,1.1681397,-10.535808,-6.8598463)"
       x1="48.972488"
       y1="23.557802"
       x2="48.972488"
       y2="48.325878" />
    <linearGradient
       inkscape:collect="always"
       xlink:href="#linearGradient4842"
       id="linearGradient3970"
       gradientUnits="userSpaceOnUse"
       gradientTransform="matrix(0.8237913,0,0,0.8237913,-4.7207424,929.81611)"
       x1="60.413662"
       y1="106.16137"
       x2="46.921165"
       y2="110.65887" />
    <linearGradient
       inkscape:collect="always"
       xlink:href="#linearGradient4842"
       id="linearGradient3973"
       gradientUnits="userSpaceOnUse"
       gradientTransform="matrix(0.8237913,0,0,0.8237913,-4.7207424,929.81611)"
       x1="43.245415"
       y1="104.21532"
       x2="48.193569"
       y2="93.471298" />
    <linearGradient
       inkscape:collect="always"
       xlink:href="#linearGradient4842"
       id="linearGradient3976"
       gradientUnits="userSpaceOnUse"
       gradientTransform="matrix(0.8237913,0,0,0.8237913,-4.7207424,929.81611)"
       x1="66.740204"
       y1="63.588692"
       x2="75.281227"
       y2="80.814972" />
    <linearGradient
       inkscape:collect="always"
       xlink:href="#linearGradient4842"
       id="linearGradient3979"
       gradientUnits="userSpaceOnUse"
       gradientTransform="matrix(0.8237913,0,0,0.8237913,-4.7207424,929.81611)"
       x1="52.105541"
       y1="76.541229"
       x2="61.130371"
       y2="68.295815" />
    <linearGradient
       inkscape:collect="always"
       xlink:href="#linearGradient4842"
       id="linearGradient3982"
       gradientUnits="userSpaceOnUse"
       gradientTransform="matrix(0.8237913,0,0,0.8237913,-4.7207424,929.81611)"
       x1="82.855774"
       y1="87.433334"
       x2="86.748848"
       y2="97.972473" />
    <linearGradient
       inkscape:collect="always"
       xlink:href="#linearGradient4842"
       id="linearGradient3985"
       gradientUnits="userSpaceOnUse"
       gradientTransform="matrix(0.8237913,0,0,0.8237913,-4.7207424,929.81611)"
       x1="87.228699"
       y1="103.55167"
       x2="69.920662"
       y2="103.55167" />
    <linearGradient
       inkscape:collect="always"
       xlink:href="#linearGradient5044"
       id="linearGradient3157"
       gradientUnits="userSpaceOnUse"
       gradientTransform="matrix(1.0084004,-0.14133313,0.19754097,0.72147257,-21.272513,1007.8478)"
       x1="80.30378"
       y1="34.651314"
       x2="83.099548"
       y2="45.08527" />
    <linearGradient
       inkscape:collect="always"
       xlink:href="#linearGradient5044"
       id="linearGradient3164"
       gradientUnits="userSpaceOnUse"
       gradientTransform="matrix(1.0084004,-0.14133313,0.19754097,0.72147257,-21.327041,1008.6041)"
       x1="43.475548"
       y1="27.053726"
       x2="43.475548"
       y2="45.451324" />
    <linearGradient
       inkscape:collect="always"
       xlink:href="#linearGradient4842"
       id="linearGradient3218"
       gradientUnits="userSpaceOnUse"
       gradientTransform="matrix(0.8237913,0,0,0.8237913,-4.7207424,935.81611)"
       x1="87.228699"
       y1="103.55167"
       x2="69.920662"
       y2="103.55167" />
    <linearGradient
       inkscape:collect="always"
       xlink:href="#linearGradient4842"
       id="linearGradient3220"
       gradientUnits="userSpaceOnUse"
       gradientTransform="matrix(0.8237913,0,0,0.8237913,-4.7207424,935.81611)"
       x1="60.413662"
       y1="106.16137"
       x2="46.921165"
       y2="110.65887" />
    <linearGradient
       inkscape:collect="always"
       xlink:href="#linearGradient5044"
       id="linearGradient3222"
       gradientUnits="userSpaceOnUse"
       gradientTransform="matrix(1.0084004,-0.14133313,0.19754097,0.72147257,-21.327041,1014.6041)"
       x1="43.475548"
       y1="27.053726"
       x2="43.475548"
       y2="45.451324" />
    <linearGradient
       inkscape:collect="always"
       xlink:href="#linearGradient5044"
       id="linearGradient3224"
       gradientUnits="userSpaceOnUse"
       gradientTransform="matrix(-1.0084004,-0.14133313,-0.19754097,0.72147257,155.01445,1016.3732)"
       x1="80.30378"
       y1="34.651314"
       x2="83.099548"
       y2="45.08527" />
  </defs>
  <sodipodi:namedview
     id="base"
     pagecolor="#ffffff"
     bordercolor="#666666"
     borderopacity="1.0"
     inkscape:pageopacity="0.0"
     inkscape:pageshadow="2"
     inkscape:zoom="3.959798"
     inkscape:cx="-6.0352566"
     inkscape:cy="42.877139"
     inkscape:document-units="px"
     inkscape:current-layer="layer1"
     showgrid="false"
     inkscape:window-width="1366"
     inkscape:window-height="731"
     inkscape:window-x="0"
     inkscape:window-y="0"
     inkscape:window-maximized="1" />
  <metadata
     id="metadata2987">
    <rdf:RDF>
      <cc:Work
         rdf:about="">
        <dc:format>image/svg+xml</dc:format>
        <dc:type
           rdf:resource="http://purl.org/dc/dcmitype/StillImage" />
        <dc:title />
      </cc:Work>
    </rdf:RDF>
  </metadata>
  <g
     inkscape:label="Layer 1"
     inkscape:groupmode="layer"
     id="layer1"
     transform="translate(0,-956.36218)">
    <rect
       ry="5"
       rx="5"
       style="fill:#000000;fill-opacity:1;stroke:none;filter:url(#filter6279-2)"
       id="rect9283"
       width="80"
       height="80"
       x="8"
       y="964.36218"
       transform="translate(0,-7.8515622e-6)" />
    <rect
       y="964.36218"
       x="8"
       height="80"
       width="80"
       id="rect9285"
       style="fill:#aa0000;fill-opacity:1;stroke:none"
       rx="5"
       ry="5" />
    <path
       d="m 75.778112,90.690282 6.331728,-11.357102 0.0301,4.153571 13.32572,-0.03009 c 2.381109,-0.252345 4.468715,-1.220077 5.98052,-3.03994 -4.82499,9.868303 -6.214719,16.850853 -16.225668,16.855073 l -3.080572,0 -0.0301,4.615066 -6.331728,-11.196576 z m 14.50003,-8.958701 -5.880177,-10.835396 11.880769,-7.193494 5.749716,11.517614 c 0.17409,2.756344 -4.276921,6.591993 -7.03956,6.562155 L 90.278142,81.73158 z M 54.147459,57.72989 60.217483,48.634238 c 5.887367,-2.192329 9.297705,2.540579 11.45008,5.523983 L 65.947946,65.134073 54.147459,57.72989 z m 23.98171,4.527497 C 76.908304,59.379646 75.277084,56.0879 73.237247,53.225804 71.411006,50.663411 69.204438,48.427773 67.532818,47.428945 l 15.352678,-0.03009 c 2.757154,0.247485 4.096834,1.8546 5.559059,4.053238 l 2.207565,3.882684 3.411713,-2.177108 -6.422024,11.437374 -13.84751,0.03009 4.33487,-2.367748 z m -21.24424,4.246398 7.342774,10.731394 -3.73163,-1.825529 -5.916252,11.938462 c -0.836067,2.24336 -0.900829,4.54314 0.05403,6.70769 C 47.951828,85.336772 42.32097,80.97894 46.782024,72.018375 l 1.373917,-2.756768 -4.117916,-2.085235 12.846904,-0.672587 z m 1.682452,16.972943 13.538353,-0.429582 -0.07542,13.840216 -12.87471,0.0086 c -2.545077,-1.07352 -3.993562,-6.76734 -2.734733,-9.22628 l 2.146512,-4.192914 z"
       inkscape:connector-curvature="0"
       transform="matrix(0.8237913,0,0,0.8237913,-12.166188,942.4896)"
       id="path3270"
       style="opacity:0.8;fill:#000000;fill-opacity:1;stroke:none;display:inline;filter:url(#filter3276)" />
    <path
       d="m 75.778112,92.690282 6.331728,-11.357102 0.0301,4.153572 13.32572,-0.03009 c 2.381109,-0.25235 4.468715,-1.22008 5.98052,-3.039943 -4.82499,9.868303 -6.214719,16.850853 -16.225668,16.855073 l -3.080572,0 -0.0301,4.615068 -6.331728,-11.196578 z m 14.50003,-8.958701 -5.880177,-10.835396 11.880769,-7.193494 5.749716,11.517614 c 0.17409,2.756344 -4.276921,6.591993 -7.03956,6.562155 L 90.278142,83.73158 z M 54.147459,59.72989 60.217483,50.634238 c 5.887367,-2.192329 9.297705,2.540579 11.45008,5.523983 L 65.947946,67.134073 54.147459,59.72989 z m 23.98171,4.527497 C 76.908304,61.379646 75.277084,58.0879 73.237247,55.225804 71.411006,52.663411 69.204438,50.427773 67.532818,49.428945 l 15.352678,-0.03009 c 2.757154,0.247485 4.096834,1.8546 5.559059,4.053238 l 2.207565,3.882684 3.411713,-2.177108 -6.422024,11.437374 -13.84751,0.03009 4.33487,-2.367748 z m -21.24424,4.246398 7.342774,10.731394 -3.73163,-1.825529 -5.916252,11.938462 c -0.836067,2.24336 -0.900829,4.54314 0.05403,6.70769 C 47.951828,87.336772 42.32097,82.97894 46.782024,74.018375 l 1.373917,-2.756768 -4.117916,-2.085235 12.846904,-0.672587 z m 1.682452,16.972947 13.538353,-0.42959 -0.07542,13.84022 -12.87471,0.0086 c -2.545077,-1.07352 -3.993562,-6.76734 -2.734733,-9.22628 l 2.146512,-4.19291 z"
       inkscape:connector-curvature="0"
       transform="matrix(0.8237913,0,0,0.8237913,-12.166188,942.16913)"
       id="path3280"
       style="opacity:0.8;fill:#ffffff;fill-opacity:1;stroke:none;display:inline;filter:url(#filter3276)" />
    <path
       style="fill:url(#linearGradient3985);fill-opacity:1;stroke:none;display:inline"
       id="path3292"
       inkscape:connector-curvature="0"
       d="m 50.25916,1017.863 5.216022,-9.3559 0.0248,3.4217 10.977613,-0.025 c 1.961536,-0.2079 3.681288,-1.0051 4.9267,-2.5042 -3.974785,8.1294 -5.119632,13.8815 -13.366564,13.885 l -2.537749,0 -0.0248,3.8019 -5.216022,-9.2237 z" />
    <path
       style="fill:url(#linearGradient3982);fill-opacity:1;stroke:none;display:inline"
       id="path3290"
       inkscape:connector-curvature="0"
       d="m 62.204158,1010.4829 -4.844038,-8.9261 9.787274,-5.92592 4.736563,9.48812 c 0.143413,2.2706 -3.523287,5.4304 -5.799125,5.4058 l -3.880674,-0.042 z" />
    <path
       style="fill:url(#linearGradient3979);fill-opacity:1;stroke:none;display:inline"
       id="path3288"
       inkscape:connector-curvature="0"
       d="m 32.440016,990.71054 5.000433,-7.49292 c 4.849962,-1.80602 7.659369,2.09291 9.432476,4.55061 l -4.71177,9.04181 -9.721139,-6.0995 z" />
    <path
       style="fill:url(#linearGradient3976);fill-opacity:1;stroke:none;display:inline"
       id="path3286"
       inkscape:connector-curvature="0"
       d="m 52.19594,994.44025 c -1.005738,-2.37066 -2.349523,-5.08237 -4.029923,-7.44014 -1.504441,-2.11088 -3.322193,-3.95257 -4.699259,-4.7754 l 12.647403,-0.0248 c 2.271319,0.20388 3.374936,1.52781 4.579504,3.33902 l 1.818573,3.19853 2.81054,-1.79349 -5.290408,9.42201 -11.407458,0.0248 3.571028,-1.95053 z" />
    <path
       style="fill:url(#linearGradient3973);fill-opacity:1;stroke:none;display:inline"
       id="path3284"
       inkscape:connector-curvature="0"
       d="m 34.69512,997.9384 6.048913,8.8404 -3.074084,-1.5038 -4.873757,9.8348 c -0.688745,1.848 -0.742095,3.7426 0.04451,5.5257 -5.50459,-7.1827 -10.143241,-10.7726 -6.468264,-18.1542 l 1.131821,-2.271 -3.392303,-1.71783 10.583167,-0.55407 z" />
    <path
       style="fill:url(#linearGradient3970);fill-opacity:1;stroke:none;display:inline"
       id="path4068"
       inkscape:connector-curvature="0"
       d="m 36.081109,1011.9206 11.152778,-0.3539 -0.06213,11.4014 -10.606074,0.01 c -2.096612,-0.8843 -3.289861,-5.5748 -2.252849,-7.6005 l 1.768278,-3.4541 z" />
    <path
       d="m 37.918655,1020.9915 5.615113,8.3459 2.668619,-6.1317 4.884014,5.3378 -2.425637,-8.859 -2.776145,3.0363 -7.965964,-1.7293 z"
       inkscape:connector-curvature="0"
       id="path5146"
       style="fill:#6c6c6c;fill-opacity:1;fill-rule:evenodd;stroke:none" />
    <path
       d="m 33.523423,1023.8576 -6.393578,3.6757 5.385263,-1.6151 c 0,0 2.974914,12.5543 2.763678,12.1207 -0.211241,-0.4337 -1.666281,-14.1938 -1.755363,-14.1813 z"
       inkscape:connector-curvature="0"
       id="path5144"
       style="fill:#696969;fill-opacity:1;fill-rule:evenodd;stroke:none" />
    <path
       d="m 63.229716,1018.5029 5.525864,1.9389 -5.276904,1.3352 -0.946404,-1.0917 2.014881,-0.5802 -1.317437,-1.6022 z"
       inkscape:connector-curvature="0"
       id="path5148"
       style="fill:#6b6b6b;fill-opacity:1;fill-rule:evenodd;stroke:none" />
    <path
       style="opacity:0.3;fill:#000000;fill-opacity:1;fill-rule:evenodd;stroke:none;filter:url(#filter5122)"
       id="path5126"
       d="m 54.15625,29.9375 -4,0.25 a 0.88348055,0.88348055 0 0 0 -0.75,0.5 l -2.75,5.90625 -1.59375,-1.4375 a 0.88348055,0.88348055 0 0 0 -1.40625,0.3125 l -1.1875,2.75 -4.09375,-4.5 a 0.88348055,0.88348055 0 0 0 -1.53125,0.59375 l 0,4.25 -0.875,0.5625 -1.78125,-2.5625 a 0.88348055,0.88348055 0 0 0 -1.15625,-0.28125 l -6.71875,3.75 a 0.88348055,0.88348055 0 0 0 -0.28125,1.3125 L 30.75,47.8125 a 0.88348055,0.88348055 0 0 0 0.59375,0.34375 l 31.5,4.75 a 0.88348055,0.88348055 0 0 0 0.96875,-0.625 l 1.75,-6 A 0.88348055,0.88348055 0 0 0 65.5,45.625 l -3,-5.96875 a 0.88348055,0.88348055 0 0 0 -0.34375,-0.375 L 57.75,36.75 58.9375,35.0625 a 0.88348055,0.88348055 0 0 0 -0.125,-1.15625 l -4,-3.75 A 0.88348055,0.88348055 0 0 0 54.15625,29.9375 z"
       inkscape:connector-curvature="0"
       transform="matrix(1.0084004,-0.14133313,0.19754097,0.72147257,-21.272513,1007.8478)" />
    <path
       style="fill:url(#linearGradient3164);fill-opacity:1;fill-rule:evenodd;stroke:none"
       id="path5026"
       inkscape:connector-curvature="0"
       d="m 19.817123,1037.5202 -6.070542,-4.016 6.062554,-3.6575 2.90929,2.0257 1.76889,-1.1839 -0.937798,-3.4251 6.125071,3.2596 0.973998,-3.1314 2.963818,1.2692 1.893464,-5.5065 3.981999,-0.7453 4.771727,2.139 -1.270141,2.0498 5.883454,1.4217 4.208107,3.9026 -0.579134,4.5737 -32.684757,1.0244 z" />
    <path
       d="m 31.042109,1028.3086 3.151085,6.4411 -0.629219,-5.3386 -2.521866,-1.1025 z"
       inkscape:connector-curvature="0"
       id="path5082"
       style="fill:#a6a6a6;fill-opacity:1;fill-rule:evenodd;stroke:none" />
    <path
       d="m 35.998421,1023.7755 3.173854,-0.9081 -1.672269,3.0139 4.535836,0.6879 -6.896826,4.5403 4.241835,-4.102 -4.053697,-0.954 0.671267,-2.278 z"
       inkscape:connector-curvature="0"
       id="path5078"
       style="fill:#f9f9f9;fill-opacity:1;fill-rule:evenodd;stroke:none" />
    <path
       d="m 24.294865,1028.3277 1.272062,4.9838 4.087603,-1.9627 -5.359671,-3.0211 z"
       inkscape:connector-curvature="0"
       id="path5080"
       style="fill:#e6e6e6;fill-opacity:1;fill-rule:evenodd;stroke:none" />
    <path
       style="opacity:0.3;fill:#000000;fill-opacity:1;fill-rule:evenodd;stroke:none;filter:url(#filter5114)"
       id="path5118"
       d="m 62.3125,26.1875 a 0.88348055,0.88348055 0 0 0 -0.34375,1.59375 l 5.71875,4.03125 -2.59375,1.84375 a 0.88348055,0.88348055 0 0 0 -0.28125,1.125 l 0.96875,1.8125 -4.03125,1 A 0.88348055,0.88348055 0 0 0 61.1875,38 l -3.25,5.96875 A 0.88348055,0.88348055 0 0 0 58,44.90625 l 4,5.625 a 0.88348055,0.88348055 0 0 0 0.625,0.375 l 20.5,2.5 a 0.88348055,0.88348055 0 0 0 0.46875,-0.09375 l 16.46875,-8 a 0.88348055,0.88348055 0 0 0 0.3125,-1.34375 L 95.8125,38.625 98.875,37.9375 A 0.88348055,0.88348055 0 0 0 99.25,36.375 L 95.375,33.25 95.3125,33.1875 95.25,33.125 93.125,30.5 a 0.88348055,0.88348055 0 0 0 -1.21875,-0.15625 l -3.75,2.75 a 0.88348055,0.88348055 0 0 0 -0.34375,0.625 l -0.21875,2 -1.625,-2.84375 A 0.88348055,0.88348055 0 0 0 85.3125,32.4375 l -3.96875,-0.5 A 0.88348055,0.88348055 0 0 0 80.5625,32.21875 L 78.9375,34 l -1.96875,-3.875 1,-1.59375 A 0.88348055,0.88348055 0 0 0 77.1875,27.1875 c 0,0 -1.432745,0.03127 -3.09375,0.03125 -1.661005,-1.7e-5 -3.574479,-0.04951 -4.375,-0.15625 -2.018317,-0.26911 -7.15625,-0.875 -7.15625,-0.875 a 0.88348055,0.88348055 0 0 0 -0.25,0 z"
       inkscape:connector-curvature="0"
       transform="matrix(1.0084004,-0.14133313,0.19754097,0.72147257,-21.272513,1007.8478)" />
    <path
       style="fill:url(#linearGradient3157);fill-opacity:1;fill-rule:evenodd;stroke:none"
       id="path5028"
       inkscape:connector-curvature="0"
       d="m 51.855058,1035.0889 -5.14191,-3.491 2.09089,-4.7855 4.918391,-1.6253 -2.067036,-1.8161 3.147507,-2.3598 -7.740719,-2.4716 c 0,0 5.287471,-0.2854 7.353613,-0.3755 1.939055,-0.085 7.709445,-0.987 7.709445,-0.987 l -0.864936,1.6187 3.85743,3.5775 1.976665,-2.3361 4.130076,-0.2045 4.060031,3.3619 -0.43388,-3.4957 3.236471,-2.5127 2.810574,1.6651 4.673016,1.7785 -4.337852,1.3567 6.82642,3.9101 -15.049909,8.0993 -21.154298,1.093 z" />
    <path
       d="m 60.431463,1019.0936 -4.674441,1.8464 6.29818,0.7056 -3.930548,2.5363 10.408886,4.2326 -7.453578,-4.2497 1.866053,-2.6441 -3.982066,-1.0302 1.467514,-1.3969 z"
       inkscape:connector-curvature="0"
       id="path5060"
       style="fill:#b3b3b3;fill-opacity:1;fill-rule:evenodd;stroke:none" />
    <path
       d="m 52.717288,1023.3514 3.003003,-2.2077 5.872055,0.5006 -8.875058,1.7071 z"
       inkscape:connector-curvature="0"
       id="path5064"
       style="fill:#ffffff;fill-opacity:1;fill-rule:evenodd;stroke:none" />
    <path
       d="m 67.649876,1020.7953 -2.203102,2.4265 5.187987,5.0968 -2.984885,-7.5233 z"
       inkscape:connector-curvature="0"
       id="path5066"
       style="fill:#f7f7f7;fill-opacity:1;fill-rule:evenodd;stroke:none" />
    <path
       d="m 69.125698,1021.1179 5.806072,6.0028 2.98921,-2.9338 -1.881839,-4.1703 4.639705,4.4456 -4.84147,6.3038 -6.711678,-9.6481 z"
       inkscape:connector-curvature="0"
       id="path5068"
       style="fill:#909090;fill-opacity:1;fill-rule:evenodd;stroke:none" />
    <path
       style="opacity:0.3;fill:#000000;fill-opacity:1;fill-rule:evenodd;stroke:none;filter:url(#filter5106)"
       id="path5110"
       d="m 55.5,37.6875 a 0.88788697,0.88788697 0 0 0 -0.28125,0.15625 l -4,2.75 A 0.88788697,0.88788697 0 0 0 51.03125,40.75 L 49.21875,42.9375 47.09375,42 a 0.88788697,0.88788697 0 0 0 -0.8125,0.03125 L 41.03125,45 a 0.88788697,0.88788697 0 0 0 -0.3125,1.25 l 3.5,5.5 a 0.88788697,0.88788697 0 0 0 0.34375,0.3125 l 13.5,7 A 0.88788697,0.88788697 0 0 0 58.75,59.125 l 22.5,-7.25 a 0.88788697,0.88788697 0 0 0 0.4375,-1.34375 l -7.5,-10.96875 a 0.88788697,0.88788697 0 0 0 -0.59375,-0.375 l -5.5,-0.75 a 0.88788697,0.88788697 0 0 0 -0.8125,0.3125 l -3.46875,4.1875 -0.75,-2.40625 a 0.88788697,0.88788697 0 0 0 -1.375,-0.4375 L 59.59375,41.625 56.375,37.96875 A 0.88788697,0.88788697 0 0 0 55.5,37.6875 z"
       inkscape:connector-curvature="0"
       transform="matrix(1.0084004,-0.14133313,0.19754097,0.72147257,-17.238911,1007.2824)" />
    <path
       style="fill:#f2f2f2;fill-opacity:1;fill-rule:evenodd;stroke:none"
       id="path5034"
       inkscape:connector-curvature="0"
       d="m 38.246288,1037.9322 -4.613311,-3.4715 4.698865,-2.9048 3.018348,0.5129 1.724708,-2.3008 3.488423,-2.5479 4.61848,2.5348 2.3767,-1.8306 2.049525,2.7077 3.449406,-4.6015 5.691196,-0.2361 9.730541,6.8724 -21.24501,8.406 -14.987871,-3.1406 z" />
    <path
       d="m 46.59296,1027.9159 3.545135,9.2316 0.377267,-7.068 c 0.548407,0.1716 -2.614934,-1.4424 -3.922402,-2.1636 z"
       inkscape:connector-curvature="0"
       id="path5070"
       style="fill:#c9c9c9;fill-opacity:1;fill-rule:evenodd;stroke:none" />
    <path
       d="m 53.264916,1028.6353 c 0,0 1.701019,7.9017 1.633045,7.3156 -0.06797,-0.5861 0.453554,-4.7623 0.453554,-4.7623 l -2.086599,-2.5533 z"
       inkscape:connector-curvature="0"
       id="path5072"
       style="fill:#c9c9c9;fill-opacity:1;fill-rule:evenodd;stroke:none" />
    <path
       d="m 59.507923,1026.4367 3.09042,4.5303 2.037736,-4.7196 -5.128156,0.1893 z"
       inkscape:connector-curvature="0"
       id="path5074"
       style="fill:#dbdbdb;fill-opacity:1;fill-rule:evenodd;stroke:none" />
    <path
       style="fill:#6c6c6c;fill-opacity:1;fill-rule:evenodd;stroke:none"
       id="path3178"
       inkscape:connector-curvature="0"
       d="m 37.918655,1026.9915 5.615113,8.3459 2.668619,-6.1317 4.884014,5.3378 -2.425637,-8.859 -2.776145,3.0363 -7.965964,-1.7293 z" />
    <path
       style="fill:#696969;fill-opacity:1;fill-rule:evenodd;stroke:none"
       id="path3180"
       inkscape:connector-curvature="0"
       d="m 33.523423,1029.8576 -6.393578,3.6757 5.385263,-1.6151 c 0,0 2.974914,12.5543 2.763678,12.1207 -0.211241,-0.4337 -1.666281,-14.1938 -1.755363,-14.1813 z" />
    <path
       style="fill:#6b6b6b;fill-opacity:1;fill-rule:evenodd;stroke:none"
       id="path3182"
       inkscape:connector-curvature="0"
       d="m 63.229716,1024.5029 5.525864,1.9389 -5.276904,1.3352 -0.946404,-1.0917 2.014881,-0.5802 -1.317437,-1.6022 z" />
    <path
       style="fill:#bdbdbd;fill-opacity:1;fill-rule:evenodd;stroke:none"
       id="path3184"
       inkscape:connector-curvature="0"
       d="m 33.313852,1022.6734 -10.219423,6.5943 3.598152,-0.3719 -2.07546,1.8792 8.729968,-1.2236 -6.123676,-0.068 6.090439,-6.8098 z" />
    <path
       transform="matrix(1.0084004,-0.14133313,0.19754097,0.72147257,-21.272513,1013.8478)"
       inkscape:connector-curvature="0"
       d="m 54.15625,29.9375 -4,0.25 a 0.88348055,0.88348055 0 0 0 -0.75,0.5 l -2.75,5.90625 -1.59375,-1.4375 a 0.88348055,0.88348055 0 0 0 -1.40625,0.3125 l -1.1875,2.75 -4.09375,-4.5 a 0.88348055,0.88348055 0 0 0 -1.53125,0.59375 l 0,4.25 -0.875,0.5625 -1.78125,-2.5625 a 0.88348055,0.88348055 0 0 0 -1.15625,-0.28125 l -6.71875,3.75 a 0.88348055,0.88348055 0 0 0 -0.28125,1.3125 L 30.75,47.8125 a 0.88348055,0.88348055 0 0 0 0.59375,0.34375 l 31.5,4.75 a 0.88348055,0.88348055 0 0 0 0.96875,-0.625 l 1.75,-6 A 0.88348055,0.88348055 0 0 0 65.5,45.625 l -3,-5.96875 a 0.88348055,0.88348055 0 0 0 -0.34375,-0.375 L 57.75,36.75 58.9375,35.0625 a 0.88348055,0.88348055 0 0 0 -0.125,-1.15625 l -4,-3.75 A 0.88348055,0.88348055 0 0 0 54.15625,29.9375 z"
       id="path3186"
       style="opacity:0.3;fill:#000000;fill-opacity:1;fill-rule:evenodd;stroke:none;filter:url(#filter5122)" />
    <path
       d="m 19.817123,1043.5202 -6.070542,-4.016 6.062554,-3.6575 2.90929,2.0257 1.76889,-1.1839 -0.937798,-3.4251 6.125071,3.2596 0.973998,-3.1314 2.963818,1.2692 1.893464,-5.5065 3.981999,-0.7453 4.771727,2.139 -1.270141,2.0498 5.883454,1.4217 4.208107,3.9026 -0.579134,4.5737 -32.684757,1.0244 z"
       inkscape:connector-curvature="0"
       id="path3188"
       style="fill:url(#linearGradient3222);fill-opacity:1;fill-rule:evenodd;stroke:none" />
    <path
       style="fill:#a6a6a6;fill-opacity:1;fill-rule:evenodd;stroke:none"
       id="path3190"
       inkscape:connector-curvature="0"
       d="m 31.042109,1034.3086 3.151085,6.4411 -0.629219,-5.3386 -2.521866,-1.1025 z" />
    <path
       style="fill:#f9f9f9;fill-opacity:1;fill-rule:evenodd;stroke:none"
       id="path3192"
       inkscape:connector-curvature="0"
       d="m 35.998421,1029.7755 3.173854,-0.9081 -1.672269,3.0139 4.535836,0.6879 -6.896826,4.5403 4.241835,-4.102 -4.053697,-0.954 0.671267,-2.278 z" />
    <path
       style="fill:#e6e6e6;fill-opacity:1;fill-rule:evenodd;stroke:none"
       id="path3194"
       inkscape:connector-curvature="0"
       d="m 24.294865,1034.3277 1.272062,4.9838 4.087603,-1.9627 -5.359671,-3.0211 z" />
    <path
       transform="matrix(1.0084004,-0.14133313,0.19754097,0.72147257,-21.272513,1013.8478)"
       inkscape:connector-curvature="0"
       d="m 62.3125,26.1875 a 0.88348055,0.88348055 0 0 0 -0.34375,1.59375 l 5.71875,4.03125 -2.59375,1.84375 a 0.88348055,0.88348055 0 0 0 -0.28125,1.125 l 0.96875,1.8125 -4.03125,1 A 0.88348055,0.88348055 0 0 0 61.1875,38 l -3.25,5.96875 A 0.88348055,0.88348055 0 0 0 58,44.90625 l 4,5.625 a 0.88348055,0.88348055 0 0 0 0.625,0.375 l 20.5,2.5 a 0.88348055,0.88348055 0 0 0 0.46875,-0.09375 l 16.46875,-8 a 0.88348055,0.88348055 0 0 0 0.3125,-1.34375 L 95.8125,38.625 98.875,37.9375 A 0.88348055,0.88348055 0 0 0 99.25,36.375 L 95.375,33.25 95.3125,33.1875 95.25,33.125 93.125,30.5 a 0.88348055,0.88348055 0 0 0 -1.21875,-0.15625 l -3.75,2.75 a 0.88348055,0.88348055 0 0 0 -0.34375,0.625 l -0.21875,2 -1.625,-2.84375 A 0.88348055,0.88348055 0 0 0 85.3125,32.4375 l -3.96875,-0.5 A 0.88348055,0.88348055 0 0 0 80.5625,32.21875 L 78.9375,34 l -1.96875,-3.875 1,-1.59375 A 0.88348055,0.88348055 0 0 0 77.1875,27.1875 c 0,0 -1.432745,0.03127 -3.09375,0.03125 -1.661005,-1.7e-5 -3.574479,-0.04951 -4.375,-0.15625 -2.018317,-0.26911 -7.15625,-0.875 -7.15625,-0.875 a 0.88348055,0.88348055 0 0 0 -0.25,0 z"
       id="path3196"
       style="opacity:0.3;fill:#000000;fill-opacity:1;fill-rule:evenodd;stroke:none;filter:url(#filter5114)" />
    <path
       d="m 81.886884,1043.6143 5.14191,-3.491 -2.09089,-4.7855 -4.918391,-1.6253 2.067036,-1.8161 -3.147507,-2.3598 7.740719,-2.4716 c 0,0 -5.287471,-0.2854 -7.353613,-0.3755 -1.939055,-0.085 -7.709445,-0.987 -7.709445,-0.987 l 0.864936,1.6187 -3.85743,3.5775 -1.976665,-2.3361 -4.130076,-0.2045 -4.060031,3.3619 0.43388,-3.4957 -3.236471,-2.5127 -2.810574,1.6651 -4.673012,1.7785 4.337848,1.3567 -6.826418,3.9101 15.049907,8.0993 21.154298,1.093 z"
       inkscape:connector-curvature="0"
       id="path3198"
       style="fill:url(#linearGradient3224);fill-opacity:1;fill-rule:evenodd;stroke:none" />
    <path
       style="fill:#b3b3b3;fill-opacity:1;fill-rule:evenodd;stroke:none"
       id="path3200"
       inkscape:connector-curvature="0"
       d="m 60.431463,1025.0936 -4.674441,1.8464 6.29818,0.7056 -3.930548,2.5363 10.408886,4.2326 -7.453578,-4.2497 1.866053,-2.6441 -3.982066,-1.0302 1.467514,-1.3969 z" />
    <path
       style="fill:#ffffff;fill-opacity:1;fill-rule:evenodd;stroke:none"
       id="path3202"
       inkscape:connector-curvature="0"
       d="m 52.717288,1029.3514 3.003003,-2.2077 5.872055,0.5006 -8.875058,1.7071 z" />
    <path
       style="fill:#f7f7f7;fill-opacity:1;fill-rule:evenodd;stroke:none"
       id="path3204"
       inkscape:connector-curvature="0"
       d="m 67.649876,1026.7953 -2.203102,2.4265 5.187987,5.0968 -2.984885,-7.5233 z" />
    <path
       style="fill:#909090;fill-opacity:1;fill-rule:evenodd;stroke:none"
       id="path3206"
       inkscape:connector-curvature="0"
       d="m 69.125698,1027.1179 5.806072,6.0028 2.98921,-2.9338 -1.881839,-4.1703 4.639705,4.4456 -4.84147,6.3038 -6.711678,-9.6481 z" />
    <path
       transform="matrix(1.0084004,-0.14133313,0.19754097,0.72147257,-17.238911,1013.2824)"
       inkscape:connector-curvature="0"
       d="m 55.5,37.6875 a 0.88788697,0.88788697 0 0 0 -0.28125,0.15625 l -4,2.75 A 0.88788697,0.88788697 0 0 0 51.03125,40.75 L 49.21875,42.9375 47.09375,42 a 0.88788697,0.88788697 0 0 0 -0.8125,0.03125 L 41.03125,45 a 0.88788697,0.88788697 0 0 0 -0.3125,1.25 l 3.5,5.5 a 0.88788697,0.88788697 0 0 0 0.34375,0.3125 l 13.5,7 A 0.88788697,0.88788697 0 0 0 58.75,59.125 l 22.5,-7.25 a 0.88788697,0.88788697 0 0 0 0.4375,-1.34375 l -7.5,-10.96875 a 0.88788697,0.88788697 0 0 0 -0.59375,-0.375 l -5.5,-0.75 a 0.88788697,0.88788697 0 0 0 -0.8125,0.3125 l -3.46875,4.1875 -0.75,-2.40625 a 0.88788697,0.88788697 0 0 0 -1.375,-0.4375 L 59.59375,41.625 56.375,37.96875 A 0.88788697,0.88788697 0 0 0 55.5,37.6875 z"
       id="path3208"
       style="opacity:0.3;fill:#000000;fill-opacity:1;fill-rule:evenodd;stroke:none;filter:url(#filter5106)" />
    <path
       d="m 38.246288,1043.9322 -4.613311,-3.4715 4.698865,-2.9048 3.018348,0.5129 1.724708,-2.3008 3.488423,-2.5479 4.61848,2.5348 2.3767,-1.8306 2.049525,2.7077 3.449406,-4.6015 5.691196,-0.2361 9.730541,6.8724 -21.24501,8.406 -14.987871,-3.1406 z"
       inkscape:connector-curvature="0"
       id="path3210"
       style="fill:#f2f2f2;fill-opacity:1;fill-rule:evenodd;stroke:none" />
    <path
       style="fill:#c9c9c9;fill-opacity:1;fill-rule:evenodd;stroke:none"
       id="path3212"
       inkscape:connector-curvature="0"
       d="m 46.59296,1033.9159 3.545135,9.2316 0.377267,-7.068 c 0.548407,0.1716 -2.614934,-1.4424 -3.922402,-2.1636 z" />
    <path
       style="fill:#c9c9c9;fill-opacity:1;fill-rule:evenodd;stroke:none"
       id="path3214"
       inkscape:connector-curvature="0"
       d="m 53.264916,1034.6353 c 0,0 1.701019,7.9017 1.633045,7.3156 -0.06797,-0.5861 0.453554,-4.7623 0.453554,-4.7623 l -2.086599,-2.5533 z" />
    <path
       style="fill:#dbdbdb;fill-opacity:1;fill-rule:evenodd;stroke:none"
       id="path3216"
       inkscape:connector-curvature="0"
       d="m 59.507923,1032.4367 3.09042,4.5303 2.037736,-4.7196 -5.128156,0.1893 z" />
    <path
       d="m 77.255487,1036.6239 -10.219423,6.5943 3.598152,-0.3719 -2.07546,1.8792 8.729968,-1.2236 -6.123676,-0.068 6.090439,-6.8098 z"
       inkscape:connector-curvature="0"
       id="path5142"
       style="fill:#bdbdbd;fill-opacity:1;fill-rule:evenodd;stroke:none" />
  </g>
</svg>
