<?xml version="1.0" encoding="UTF-8" standalone="no"?>
<!-- Created with Inkscape (http://www.inkscape.org/) -->

<svg
   xmlns:dc="http://purl.org/dc/elements/1.1/"
   xmlns:cc="http://creativecommons.org/ns#"
   xmlns:rdf="http://www.w3.org/1999/02/22-rdf-syntax-ns#"
   xmlns:svg="http://www.w3.org/2000/svg"
   xmlns="http://www.w3.org/2000/svg"
   xmlns:xlink="http://www.w3.org/1999/xlink"
   xmlns:sodipodi="http://sodipodi.sourceforge.net/DTD/sodipodi-0.dtd"
   xmlns:inkscape="http://www.inkscape.org/namespaces/inkscape"
   width="96"
   height="96"
   id="svg2982"
   version="1.1"
   inkscape:version="0.48.1 r9760"
   sodipodi:docname="templat-ikon-96x96.svg">
  <defs
     id="defs2984">
    <filter
       color-interpolation-filters="sRGB"
       inkscape:collect="always"
       id="filter6279-2">
      <feGaussianBlur
         inkscape:collect="always"
         stdDeviation="0.8"
         id="feGaussianBlur6281-1" />
    </filter>
    <linearGradient
       inkscape:collect="always"
       xlink:href="#linearGradient3700-2"
       id="linearGradient9181"
       gradientUnits="userSpaceOnUse"
       gradientTransform="translate(0,-7.8515622e-6)"
       x1="48"
       y1="1052.3622"
       x2="48"
       y2="902.36218" />
    <linearGradient
       id="linearGradient3700-2">
      <stop
         id="stop3702-83"
         style="stop-color:#bebebe;stop-opacity:1"
         offset="0" />
      <stop
         id="stop3704-80"
         style="stop-color:#dcdcdc;stop-opacity:1"
         offset="1" />
    </linearGradient>
    <linearGradient
       x1="49"
       y1="20"
       x2="49"
       y2="76"
       id="linearGradient3829-6"
       xlink:href="#StandardGradient"
       gradientUnits="userSpaceOnUse" />
    <linearGradient
       x1="11.998966"
       y1="0.92195445"
       x2="11.998966"
       y2="19.387045"
       id="StandardGradient"
       gradientUnits="userSpaceOnUse"
       gradientTransform="scale(0.9219544,1.0846523)">
      <stop
         id="stop3283-5"
         style="stop-color:#000000;stop-opacity:0.86274511"
         offset="0" />
      <stop
         id="stop2651"
         style="stop-color:#000000;stop-opacity:0.47058824"
         offset="1" />
    </linearGradient>
  </defs>
  <sodipodi:namedview
     id="base"
     pagecolor="#ffffff"
     bordercolor="#666666"
     borderopacity="1.0"
     inkscape:pageopacity="0.0"
     inkscape:pageshadow="2"
     inkscape:zoom="3.959798"
     inkscape:cx="36.39115"
     inkscape:cy="42.877139"
     inkscape:document-units="px"
     inkscape:current-layer="layer1"
     showgrid="false"
     inkscape:window-width="1280"
     inkscape:window-height="725"
     inkscape:window-x="0"
     inkscape:window-y="25"
     inkscape:window-maximized="1" />
  <metadata
     id="metadata2987">
    <rdf:RDF>
      <cc:Work
         rdf:about="">
        <dc:format>image/svg+xml</dc:format>
        <dc:type
           rdf:resource="http://purl.org/dc/dcmitype/StillImage" />
        <dc:title></dc:title>
      </cc:Work>
    </rdf:RDF>
  </metadata>
  <g
     inkscape:label="Layer 1"
     inkscape:groupmode="layer"
     id="layer1"
     transform="translate(0,-956.36218)">
    <g
       id="g6858">
      <rect
         transform="translate(0,-7.8515622e-6)"
         y="964.36218"
         x="8"
         height="80"
         width="80"
         id="rect9283"
         style="fill:#000000;fill-opacity:1;stroke:none;filter:url(#filter6279-2)"
         rx="5"
         ry="5" />
      <rect
         ry="5"
         rx="5"
         style="fill:url(#linearGradient9181);fill-opacity:1;stroke:none"
         id="rect9285"
         width="80"
         height="80"
         x="8"
         y="964.36218" />
      <g
         id="g3078"
         transform="matrix(0.91719745,0,0,0.91719745,3.9745223,961.65517)">
        <path
           d="m 48,20 c -8.301477,0 -14.954547,6.251954 -14.954547,13.999997 0.01872,0.825067 0.08037,2.017651 0.159096,3.02273 -1.419601,0.602502 -1.523191,3.365348 -0.318183,6.204543 0.477848,1.125889 1.086452,1.990381 1.75,2.704548 0.161223,0.79793 0.118923,1.156157 0.318179,2.068182 0.556032,1.668092 2.748224,4.937331 4.772727,7.636364 0.198518,2.072813 0.404452,4.164618 0,6.522727 -5.833473,4.839784 -20.863266,6.921433 -20.840907,11.931818 L 18.568182,76 77.431817,76 77.113622,74.090909 C 77.089706,69.802694 62.034664,67.169477 56.272724,62.159091 56.039587,60.241112 55.995145,58.320918 56.113647,56.431818 57.958409,53.584971 60.426146,49.857949 61.045461,48 c 0.222579,-0.940847 0.30359,-1.576251 0.47727,-2.386365 0.552785,-0.669592 1.02461,-1.426909 1.431821,-2.386365 1.144759,-2.697235 1.070764,-5.272078 -0.159077,-6.045453 0.07251,-1.086755 0.127145,-2.243102 0.159077,-3.18182 C 62.954552,26.251954 56.30149,20 48.000007,20 z"
           inkscape:connector-curvature="0"
           id="path3159"
           style="fill:url(#linearGradient3829-6);fill-opacity:1;stroke:none" />
        <path
           d="m 48,20 c -8.301477,0 -14.96875,6.251957 -14.96875,14 0.01872,0.825067 0.108774,2.026171 0.1875,3.03125 -1.419601,0.602502 -1.548758,3.348305 -0.34375,6.1875 0.477848,1.125889 1.086452,2.004583 1.75,2.71875 0.161223,0.79793 0.144494,1.150475 0.34375,2.0625 0.556032,1.668092 2.725497,4.925967 4.75,7.625 0.198518,2.072813 0.404452,4.173141 0,6.53125 -5.833473,4.839784 -20.866109,6.927115 -20.84375,11.9375 L 18.5625,76 77.4375,76 77.125,74.09375 C 77.101084,69.805535 62.04319,67.166636 56.28125,62.15625 56.048113,60.238271 56.006498,58.3266 56.125,56.4375 57.969762,53.590653 60.411935,49.857949 61.03125,48 c 0.222579,-0.940847 0.32632,-1.564886 0.5,-2.375 0.552785,-0.669592 1.030289,-1.446794 1.4375,-2.40625 1.144759,-2.697235 1.042341,-5.257875 -0.1875,-6.03125 C 62.85376,36.100745 62.936818,34.938718 62.96875,34 62.96875,26.251957 56.301483,20 48,20 z m 0,1 c 7.783097,0 13.950648,5.814429 13.96875,12.96875 2.7e-5,0.01054 0,0.0207 0,0.03125 -0.03157,0.903446 -0.115481,2.045601 -0.1875,3.125 A 1.0097464,1.0097464 0 0 0 62.25,38.03125 c 0.200523,0.126097 0.470198,0.616802 0.5,1.5 0.0298,0.883198 -0.195493,2.048374 -0.71875,3.28125 -0.372921,0.878663 -0.790926,1.562318 -1.28125,2.15625 a 1.0097464,1.0097464 0 0 0 -0.21875,0.4375 c -0.171448,0.799702 -0.239123,1.428986 -0.4375,2.28125 -5.17e-4,0.0022 -0.03073,-0.0022 -0.03125,0 -0.2479,0.743701 -0.969611,2.125526 -1.875,3.625 -0.905389,1.499474 -1.982811,3.137443 -2.90625,4.5625 a 1.0097464,1.0097464 0 0 0 -0.15625,0.5 c -0.122091,1.946317 -0.08485,3.922784 0.15625,5.90625 a 1.0097464,1.0097464 0 0 0 0.34375,0.625 c 3.143367,2.733365 8.380017,4.625183 12.84375,6.4375 2.231866,0.906158 4.257433,1.761851 5.65625,2.625 0.699408,0.431575 1.241045,0.877859 1.5625,1.25 0.321455,0.372141 0.436157,0.634115 0.4375,0.875 a 1.0097464,1.0097464 0 0 0 0,0.15625 l 0.125,0.75 -56.5,0 0.125,-0.75 a 1.0097464,1.0097464 0 0 0 0,-0.15625 c -0.0033,-0.747426 0.593099,-1.540901 1.96875,-2.4375 1.375651,-0.896599 3.401368,-1.786986 5.625,-2.65625 4.447264,-1.738529 9.716412,-3.416027 12.90625,-6.0625 a 1.0097464,1.0097464 0 0 0 0.34375,-0.625 c 0.430991,-2.512839 0.198371,-4.709968 0,-6.78125 a 1.0097464,1.0097464 0 0 0 -0.1875,-0.5 c -1.988308,-2.650779 -4.115893,-6.003581 -4.5625,-7.3125 -0.0022,-0.0065 -0.0291,-0.02481 -0.03125,-0.03125 C 35.778788,46.924498 35.792031,46.576674 35.625,45.75 a 1.0097464,1.0097464 0 0 0 -0.25,-0.5 c -0.591999,-0.63716 -1.131295,-1.421509 -1.5625,-2.4375 -0.551704,-1.299905 -0.798218,-2.557899 -0.75,-3.46875 0.04822,-0.910851 0.35032,-1.284947 0.5625,-1.375 A 1.0097464,1.0097464 0 0 0 34.21875,36.9375 C 34.141056,35.945602 34.05009,34.774512 34.03125,34 c -2e-4,-0.0082 1.84e-4,-0.02314 0,-0.03125 C 34.049352,26.814429 40.216909,21 48,21 z"
           inkscape:connector-curvature="0"
           id="path3840"
           style="opacity:0.15;fill:#000000;fill-opacity:1;stroke:none" />
      </g>
    </g>
  </g>
</svg>
