<?xml version="1.0" encoding="UTF-8" standalone="no"?>
<!-- Created with Inkscape (http://www.inkscape.org/) -->

<svg
   xmlns:dc="http://purl.org/dc/elements/1.1/"
   xmlns:cc="http://creativecommons.org/ns#"
   xmlns:rdf="http://www.w3.org/1999/02/22-rdf-syntax-ns#"
   xmlns:svg="http://www.w3.org/2000/svg"
   xmlns="http://www.w3.org/2000/svg"
   xmlns:xlink="http://www.w3.org/1999/xlink"
   xmlns:sodipodi="http://sodipodi.sourceforge.net/DTD/sodipodi-0.dtd"
   xmlns:inkscape="http://www.inkscape.org/namespaces/inkscape"
   width="96"
   height="96"
   id="svg2982"
   version="1.1"
   inkscape:version="0.48.1 r9760"
   sodipodi:docname="stock_people.svg">
  <defs
     id="defs2984">
    <filter
       color-interpolation-filters="sRGB"
       inkscape:collect="always"
       id="filter6279-2">
      <feGaussianBlur
         inkscape:collect="always"
         stdDeviation="0.8"
         id="feGaussianBlur6281-1" />
    </filter>
    <linearGradient
       inkscape:collect="always"
       xlink:href="#linearGradient3700-2"
       id="linearGradient9181"
       gradientUnits="userSpaceOnUse"
       gradientTransform="translate(0,-7.8515622e-6)"
       x1="48"
       y1="1052.3622"
       x2="48"
       y2="902.36218" />
    <linearGradient
       id="linearGradient3700-2">
      <stop
         id="stop3702-83"
         style="stop-color:#bebebe;stop-opacity:1"
         offset="0" />
      <stop
         id="stop3704-80"
         style="stop-color:#dcdcdc;stop-opacity:1"
         offset="1" />
    </linearGradient>
    <linearGradient
       x1="49"
       y1="20"
       x2="49"
       y2="76"
       id="linearGradient3886"
       xlink:href="#StandardGradient-5"
       gradientUnits="userSpaceOnUse"
       gradientTransform="matrix(0.85714286,0,0,0.85714286,14.857143,6.857143)" />
    <linearGradient
       x1="11.998966"
       y1="0.92195445"
       x2="11.998966"
       y2="19.387045"
       id="StandardGradient-5"
       gradientUnits="userSpaceOnUse"
       gradientTransform="scale(0.9219544,1.0846523)">
      <stop
         id="stop3283-0"
         style="stop-color:#000000;stop-opacity:0.86274511"
         offset="0" />
      <stop
         id="stop2651-4"
         style="stop-color:#000000;stop-opacity:0.47058824"
         offset="1" />
    </linearGradient>
    <linearGradient
       x1="49"
       y1="20"
       x2="49"
       y2="76"
       id="linearGradient3081"
       xlink:href="#StandardGradient-5"
       gradientUnits="userSpaceOnUse"
       gradientTransform="matrix(0.57142857,0,0,0.57142857,4.1623373,24.571429)" />
    <linearGradient
       x1="11.998966"
       y1="0.92195445"
       x2="11.998966"
       y2="19.387045"
       id="linearGradient6977"
       gradientUnits="userSpaceOnUse"
       gradientTransform="scale(0.9219544,1.0846523)">
      <stop
         id="stop6979"
         style="stop-color:#000000;stop-opacity:0.86274511"
         offset="0" />
      <stop
         id="stop6981"
         style="stop-color:#000000;stop-opacity:0.47058824"
         offset="1" />
    </linearGradient>
  </defs>
  <sodipodi:namedview
     id="base"
     pagecolor="#ffffff"
     bordercolor="#666666"
     borderopacity="1.0"
     inkscape:pageopacity="0.0"
     inkscape:pageshadow="2"
     inkscape:zoom="3.959798"
     inkscape:cx="36.39115"
     inkscape:cy="42.877139"
     inkscape:document-units="px"
     inkscape:current-layer="layer1"
     showgrid="false"
     inkscape:window-width="1280"
     inkscape:window-height="725"
     inkscape:window-x="0"
     inkscape:window-y="25"
     inkscape:window-maximized="1" />
  <metadata
     id="metadata2987">
    <rdf:RDF>
      <cc:Work
         rdf:about="">
        <dc:format>image/svg+xml</dc:format>
        <dc:type
           rdf:resource="http://purl.org/dc/dcmitype/StillImage" />
        <dc:title></dc:title>
      </cc:Work>
    </rdf:RDF>
  </metadata>
  <g
     inkscape:label="Layer 1"
     inkscape:groupmode="layer"
     id="layer1"
     transform="translate(0,-956.36218)">
    <g
       id="g6947">
      <g
         id="g6939">
        <rect
           ry="5"
           rx="5"
           style="fill:#000000;fill-opacity:1;stroke:none;filter:url(#filter6279-2)"
           id="rect9283"
           width="80"
           height="80"
           x="8"
           y="964.36218"
           transform="translate(0,-7.8515622e-6)" />
        <rect
           y="964.36218"
           x="8"
           height="80"
           width="80"
           id="rect9285"
           style="fill:url(#linearGradient9181);fill-opacity:1;stroke:none"
           rx="5"
           ry="5" />
        <g
           transform="matrix(0.81268973,0,0,0.81268973,8.9874299,965.84852)"
           id="g3050">
          <path
             style="fill:url(#linearGradient3886);fill-opacity:1;stroke:none"
             id="path3159"
             inkscape:connector-curvature="0"
             d="m 56.000001,24 c -7.115552,0 -12.818184,5.358818 -12.818184,11.999997 0.01605,0.707201 0.06889,1.729416 0.136368,2.590912 -1.2168,0.51643 -1.305592,2.884584 -0.272728,5.31818 0.409584,0.965047 0.931245,1.70604 1.5,2.318184 0.138191,0.68394 0.101934,0.990991 0.272725,1.772727 0.476599,1.429793 2.355621,4.231998 4.090909,6.545455 0.170158,1.776697 0.346673,3.569672 0,5.590909 -5.00012,4.148386 -17.8828,5.932657 -17.863635,10.227272 L 30.772728,72 81.227272,72 80.954534,70.363636 C 80.934034,66.688023 68.029713,64.43098 63.090907,60.136364 62.891075,58.492382 62.852982,56.846501 62.954555,55.227273 64.53578,52.787118 66.650983,49.592528 67.181824,48 c 0.190782,-0.80644 0.26022,-1.351072 0.409089,-2.045456 0.473816,-0.573936 0.878237,-1.223065 1.227275,-2.045455 0.981222,-2.311916 0.917798,-4.518924 -0.136352,-5.181817 0.06215,-0.931505 0.108982,-1.922659 0.136352,-2.727275 C 68.818188,29.358818 63.115563,24 56.000007,24 z" />
          <path
             style="opacity:0.6;fill:url(#linearGradient3081);fill-opacity:1;stroke:none"
             id="path3079"
             inkscape:connector-curvature="0"
             d="m 31.59375,36 c -4.743702,0 -8.5625,3.572546 -8.5625,8 0.01067,0.471466 0.04877,1.144418 0.09375,1.71875 -0.8112,0.344286 -0.844826,1.940103 -0.15625,3.5625 0.273056,0.643366 0.620831,1.123154 1,1.53125 0.09213,0.455962 0.04239,0.666343 0.15625,1.1875 0.317732,0.953196 1.59314,2.832695 2.75,4.375 0.11344,1.184464 0.231115,2.371258 0,3.71875 -3.333415,2.765591 -11.919027,3.949424 -11.90625,6.8125 L 14.78125,68 32.5,68 c 2.169385,-1.709154 6.406146,-3.065648 10.28125,-4.625 -2.385189,-0.9563 -4.972451,-1.98012 -6.46875,-3.28125 -0.133221,-1.095988 -0.161467,-2.201764 -0.09375,-3.28125 1.054149,-1.626769 2.458606,-3.750815 2.8125,-4.8125 0.127186,-0.537627 0.182004,-0.912078 0.28125,-1.375 0.315878,-0.382624 0.579808,-0.795488 0.8125,-1.34375 0.654148,-1.541277 0.609025,-3.026822 -0.09375,-3.46875 0.04144,-0.621004 0.07549,-1.276091 0.09375,-1.8125 -10e-7,-4.427454 -3.787546,-8 -8.53125,-8 z" />
          <path
             style="opacity:0.15;fill:#000000;fill-opacity:1;stroke:none"
             id="path3878"
             inkscape:connector-curvature="0"
             d="m 56,24 c -7.115552,0 -12.8125,5.358821 -12.8125,12 0.01605,0.707201 0.05752,1.732254 0.125,2.59375 -1.2168,0.51643 -1.314114,2.878904 -0.28125,5.3125 0.409584,0.965047 0.931245,1.700356 1.5,2.3125 0.138191,0.68394 0.110459,0.999514 0.28125,1.78125 0.476599,1.429793 2.358462,4.217793 4.09375,6.53125 0.170158,1.776697 0.346673,3.572513 0,5.59375 -1.509885,1.252687 -3.749866,2.29424 -6.125,3.25 -2.385189,-0.9563 -4.972451,-1.98012 -6.46875,-3.28125 -0.133221,-1.095988 -0.161467,-2.201764 -0.09375,-3.28125 1.054149,-1.626769 2.458606,-3.750815 2.8125,-4.8125 0.127186,-0.537627 0.182004,-0.912078 0.28125,-1.375 0.315878,-0.382624 0.579808,-0.795488 0.8125,-1.34375 0.654148,-1.541277 0.609025,-3.026822 -0.09375,-3.46875 0.04144,-0.621004 0.07549,-1.276091 0.09375,-1.8125 -10e-7,-4.427454 -3.787546,-8 -8.53125,-8 -4.743702,0 -8.5625,3.572546 -8.5625,8 0.01067,0.471466 0.04877,1.144418 0.09375,1.71875 -0.8112,0.344286 -0.844826,1.940103 -0.15625,3.5625 0.273056,0.643366 0.620831,1.123154 1,1.53125 0.09213,0.455962 0.04239,0.666343 0.15625,1.1875 0.317732,0.953196 1.59314,2.832695 2.75,4.375 0.11344,1.184464 0.231115,2.371258 0,3.71875 -3.333415,2.765591 -11.919027,3.949424 -11.90625,6.8125 L 14.78125,68 32.5,68 c -0.904248,0.712414 -1.472686,1.49307 -1.46875,2.375 l -0.25,1.625 50.4375,0 -0.25,-1.625 c -0.0205,-3.675613 -12.936194,-5.955384 -17.875,-10.25 -0.199832,-1.643982 -0.226573,-3.287022 -0.125,-4.90625 1.581225,-2.440155 3.687909,-5.626222 4.21875,-7.21875 0.190782,-0.80644 0.257381,-1.336866 0.40625,-2.03125 0.473816,-0.573936 0.869712,-1.24011 1.21875,-2.0625 0.981222,-2.311916 0.92915,-4.524607 -0.125,-5.1875 C 68.74965,37.787245 68.78513,36.804616 68.8125,36 68.8125,29.358821 63.115556,24 56,24 z m 0,0.96875 c 6.615391,0 11.82564,4.92996 11.84375,11 3.2e-5,0.01059 0,0.02065 0,0.03125 -0.02718,0.797524 -0.06494,1.756124 -0.125,2.65625 a 0.97330772,0.97330772 0 0 0 0.4375,0.875 c 0.120106,0.07553 0.357215,0.444229 0.375,1.1875 0.01779,0.743271 -0.180432,1.765027 -0.625,2.8125 -0.319483,0.752754 -0.654624,1.318437 -1.0625,1.8125 A 0.97330772,0.97330772 0 0 0 66.65625,45.75 c -0.150228,0.700722 -0.213179,1.232357 -0.375,1.9375 -5.03e-4,0.0022 -0.03075,-0.0022 -0.03125,0 -0.204856,0.61457 -0.846976,1.813965 -1.625,3.09375 -0.778024,1.279785 -1.675994,2.682864 -2.46875,3.90625 A 0.97330772,0.97330772 0 0 0 62,55.15625 c -0.104817,1.670935 -0.08295,3.382987 0.125,5.09375 a 0.97330772,0.97330772 0 0 0 0.34375,0.625 c 2.722046,2.366998 7.205561,3.943198 11.03125,5.5 1.912844,0.778401 3.655096,1.546717 4.84375,2.28125 0.594327,0.367266 1.047659,0.7245 1.3125,1.03125 0.264841,0.30675 0.342775,0.512734 0.34375,0.6875 a 0.97330772,0.97330772 0 0 0 0,0.15625 l 0.0625,0.5 -48.125,0 0.0625,-0.5 A 0.97330772,0.97330772 0 0 0 32,70.375 c -0.0021,-0.461198 0.305238,-1.003769 1.09375,-1.625 A 0.97330772,0.97330772 0 0 0 32.5,67.03125 l -16.5625,0 a 0.97330772,0.97330772 0 0 0 0,-0.125 c -10e-4,-0.229084 0.199737,-0.582139 0.9375,-1.0625 0.737763,-0.480361 1.893468,-0.975987 3.15625,-1.46875 2.525563,-0.985525 5.538565,-1.929859 7.46875,-3.53125 A 0.97330772,0.97330772 0 0 0 27.84375,60.25 c 0.256514,-1.495578 0.113232,-2.786454 0,-3.96875 a 0.97330772,0.97330772 0 0 0 -0.1875,-0.5 C 27.088673,55.024567 26.484916,54.190941 26,53.4375 c -0.484916,-0.753441 -0.841487,-1.461962 -0.9375,-1.75 -0.06315,-0.347388 -0.01728,-0.529371 -0.125,-1.0625 a 0.97330772,0.97330772 0 0 0 -0.25,-0.46875 c -0.32225,-0.346834 -0.587567,-0.72002 -0.8125,-1.25 -0.297228,-0.700318 -0.422837,-1.393123 -0.40625,-1.84375 0.01244,-0.33797 0.06994,-0.425305 0.0625,-0.4375 a 0.97330772,0.97330772 0 0 0 0.5625,-0.96875 C 24.050857,45.108566 24.010761,44.44 24,44 c -2.02e-4,-0.0083 1.84e-4,-0.02313 0,-0.03125 0.01822,-3.853336 3.350344,-7 7.59375,-7 4.243408,0 7.544448,3.142147 7.5625,7 5e-5,0.01061 0,0.02063 0,0.03125 -0.01801,0.517347 -0.05369,1.149715 -0.09375,1.75 A 0.97330772,0.97330772 0 0 0 39.5,46.625 c -0.05667,-0.03563 0.112729,0.09349 0.125,0.53125 0.01227,0.437765 -0.126253,1.090281 -0.40625,1.75 C 39.020809,49.372633 38.829001,49.677187 38.5625,50 a 0.97330772,0.97330772 0 0 0 -0.1875,0.40625 c -0.09896,0.461587 -0.148037,0.833261 -0.25,1.28125 l -0.03125,0 c -0.116383,0.349149 -0.516786,1.153749 -1.03125,2 -0.514464,0.846251 -1.127032,1.777057 -1.65625,2.59375 A 0.97330772,0.97330772 0 0 0 35.25,56.75 c -0.07138,1.13781 -0.04694,2.311282 0.09375,3.46875 a 0.97330772,0.97330772 0 0 0 0.34375,0.625 c 1.724721,1.499758 4.336497,2.482377 6.71875,3.4375 a 0.97330772,0.97330772 0 0 0 0.75,0 c 2.405707,-0.968063 4.70511,-2.020813 6.375,-3.40625 A 0.97330772,0.97330772 0 0 0 49.875,60.28125 c 0.372214,-2.170148 0.170002,-4.068683 0,-5.84375 a 0.97330772,0.97330772 0 0 0 -0.1875,-0.5 C 47.97476,51.654103 46.103583,48.748245 45.75,47.6875 45.621148,47.056496 45.646584,46.75673 45.5,46.03125 A 0.97330772,0.97330772 0 0 0 45.25,45.5625 c -0.506213,-0.544831 -0.949563,-1.17611 -1.3125,-2.03125 -0.467889,-1.102423 -0.662581,-2.175577 -0.625,-2.9375 0.03758,-0.761923 0.249302,-1.040402 0.375,-1.09375 a 0.97330772,0.97330772 0 0 0 0.59375,-0.96875 C 44.216833,37.708853 44.172349,36.689878 44.15625,36 c -1.98e-4,-0.0085 1.91e-4,-0.02285 0,-0.03125 0.01811,-6.07004 5.228363,-11 11.84375,-11 z" />
        </g>
      </g>
    </g>
  </g>
</svg>
