<?xml version="1.0" encoding="UTF-8" standalone="no"?>
<!-- Created with Inkscape (http://www.inkscape.org/) -->
<svg id="svg11037" xmlns:rdf="http://www.w3.org/1999/02/22-rdf-syntax-ns#" xmlns="http://www.w3.org/2000/svg" height="96" width="96" version="1.1" xmlns:cc="http://creativecommons.org/ns#" xmlns:xlink="http://www.w3.org/1999/xlink" xmlns:dc="http://purl.org/dc/elements/1.1/">
 <defs id="defs11039">
  <radialGradient id="radialGradient3229" gradientUnits="userSpaceOnUse" cy="90" cx="90" gradientTransform="matrix(0 -1.085 2 0 -90 187.65)" r="42">
   <stop id="stop3702" style="stop-color:#b4b4b4" offset="0"/>
   <stop id="stop3704" style="stop-color:#dcdcdc" offset="1"/>
  </radialGradient>
  <linearGradient id="linearGradient3234" y2="73" xlink:href="#linearGradient3236" gradientUnits="userSpaceOnUse" x2="24" y1="73" x1="6"/>
  <linearGradient id="linearGradient3236">
   <stop id="stop3238" style="stop-color:#818181" offset="0"/>
   <stop id="stop3242" style="stop-color:#f9f9f9" offset=".2"/>
   <stop id="stop3240" style="stop-color:#dcdcdc;stop-opacity:0" offset="1"/>
  </linearGradient>
  <linearGradient id="linearGradient3246" y2="73" xlink:href="#linearGradient3236" gradientUnits="userSpaceOnUse" x2="24" gradientTransform="matrix(-1,0,0,1,96,0)" y1="73" x1="6"/>
  <linearGradient id="linearGradient3223" y2="5.8332" gradientUnits="userSpaceOnUse" x2="38.748" y1="65.59" x1="38.748">
   <stop id="stop3201" style="stop-color:#dcdcdc" offset="0"/>
   <stop id="stop3203" style="stop-color:#fafafa" offset="1"/>
  </linearGradient>
  <linearGradient id="linearGradient3220" y2="27.429" xlink:href="#linearGradient3737" gradientUnits="userSpaceOnUse" x2="87.5" y1="74" x1="19.036"/>
  <linearGradient id="linearGradient3737">
   <stop id="stop3739" style="stop-color:#fff" offset="0"/>
   <stop id="stop3741" style="stop-color:#fff;stop-opacity:0" offset="1"/>
  </linearGradient>
  <linearGradient id="linearGradient3360" y2="59" xlink:href="#linearGradient3354" gradientUnits="userSpaceOnUse" x2="75.25" gradientTransform="translate(0,-1)" y1="59" x1="68.75"/>
  <linearGradient id="linearGradient3354">
   <stop id="stop3356" style="stop-color:#b4b4b4" offset="0"/>
   <stop id="stop3362" style="stop-color:#646464" offset=".20467"/>
   <stop id="stop3364" style="stop-color:#fff" offset=".49568"/>
   <stop id="stop3358" style="stop-color:#3c3c3c" offset="1"/>
  </linearGradient>
  <clipPath id="clipPath3235">
   <path id="path3237" style="fill:#fff" d="m66 6v55c0 1.662 1.338 3 3 3h6c1.662 0 3-1.338 3-3v-55h-4v2h-4v-2h-4z"/>
  </clipPath>
  <filter id="filter3243" height="1.0732" width="1.3323" color-interpolation-filters="sRGB" y="-.036610" x="-.16615">
   <feGaussianBlur id="feGaussianBlur3245" stdDeviation="0.9"/>
  </filter>
  <linearGradient id="linearGradient3393" y2="65" gradientUnits="userSpaceOnUse" x2="79" y1="64.163" x1="63.485">
   <stop id="stop3389" style="stop-color:#2f2f2f" offset="0"/>
   <stop id="stop3391" style="stop-color:#fff" offset=".43731"/>
   <stop id="stop3393" style="stop-color:#979797" offset=".62138"/>
   <stop id="stop3395" style="stop-color:#505050" offset=".77232"/>
   <stop id="stop3397" style="stop-color:#e6e6e6" offset="1"/>
  </linearGradient>
  <filter id="filter3429" height="1.1907" width="1.3237" color-interpolation-filters="sRGB" y="-.095354" x="-.16183">
   <feGaussianBlur id="feGaussianBlur3431" stdDeviation="0.53551312"/>
  </filter>
  <linearGradient id="linearGradient3516" y2="17.763" xlink:href="#linearGradient3435" gradientUnits="userSpaceOnUse" x2="75.971" gradientTransform="translate(0,-2)" y1="17.763" x1="68.029"/>
  <linearGradient id="linearGradient3435">
   <stop id="stop3437" style="stop-color:#ededed" offset="0"/>
   <stop id="stop3439" style="stop-color:#b0b0b0" offset="1"/>
  </linearGradient>
  <linearGradient id="linearGradient3489" y2="17.5" xlink:href="#linearGradient3435" gradientUnits="userSpaceOnUse" x2="75.062" gradientTransform="matrix(-1 0 0 1 144.03 -2)" y1="17.5" x1="68.969"/>
  <linearGradient id="linearGradient3530" y2="59" xlink:href="#linearGradient3354" gradientUnits="userSpaceOnUse" x2="72.251" gradientTransform="matrix(1.1263 0 0 1 -7.402 -49.5)" y1="59" x1="68.75"/>
  <linearGradient id="linearGradient3318" y2="64.02" gradientUnits="userSpaceOnUse" x2="25.975" y1="40" x1="25.975">
   <stop id="stop3314" style="stop-color:#323232" offset="0"/>
   <stop id="stop3316" style="stop-color:#141414" offset="1"/>
  </linearGradient>
  <linearGradient id="linearGradient3333" y2="54.868" xlink:href="#linearGradient3737" gradientUnits="userSpaceOnUse" x2="28.057" y1="40" x1="19.472"/>
  <linearGradient id="linearGradient3350" y2="45.192" gradientUnits="userSpaceOnUse" x2="32" y1="68.071" x1="32">
   <stop id="stop3346" style="stop-color:#2f2f2f" offset="0"/>
   <stop id="stop3348" style="stop-color:#fff" offset=".43731"/>
   <stop id="stop3350" style="stop-color:#979797" offset=".62138"/>
   <stop id="stop3352" style="stop-color:#505050" offset=".77232"/>
   <stop id="stop3354" style="stop-color:#e6e6e6" offset="1"/>
  </linearGradient>
  <linearGradient id="linearGradient3463" y2="54" gradientUnits="userSpaceOnUse" x2="73" gradientTransform="translate(0,-1)" y1="54" x1="69">
   <stop id="stop3292" style="stop-color:#fff" offset="0"/>
   <stop id="stop3304" style="stop-color:#8c8c8c" offset=".48973"/>
   <stop id="stop3306" style="stop-color:#cfcfcf" offset=".50045"/>
   <stop id="stop3298" style="stop-color:#fff" offset=".62277"/>
   <stop id="stop3300" style="stop-color:#c8c8c8" offset=".81696"/>
   <stop id="stop3294" style="stop-color:#505050" offset="1"/>
  </linearGradient>
  <linearGradient id="linearGradient3465" y2="54" gradientUnits="userSpaceOnUse" x2="73" gradientTransform="matrix(-1,0,0,1,144,-4)" y1="54" x1="69">
   <stop id="stop3606" style="stop-color:#2f2f2f" offset="0"/>
   <stop id="stop3608" style="stop-color:#fff" offset=".43731"/>
   <stop id="stop3610" style="stop-color:#979797" offset=".62138"/>
   <stop id="stop3612" style="stop-color:#505050" offset=".77232"/>
   <stop id="stop3614" style="stop-color:#e6e6e6" offset="1"/>
  </linearGradient>
  <clipPath id="clipPath3467" clipPathUnits="userSpaceOnUse">
   <rect id="rect3469" style="fill:url(#linearGradient3471)" rx="22.826" ry="22.826" height="84" width="84" y="6" x="6"/>
  </clipPath>
  <linearGradient id="linearGradient3471" y2="1046.1" gradientUnits="userSpaceOnUse" x2="48" gradientTransform="matrix(1.05 0 0 1.05 -2.4 -1006.6)" y1="962.62" x1="48">
   <stop id="stop3797" style="stop-color:#13a6fd" offset="0"/>
   <stop id="stop3799" style="stop-color:#2975b6" offset="1"/>
  </linearGradient>
  <clipPath id="clipPath3009" clipPathUnits="userSpaceOnUse">
   <path id="path3011" style="opacity:.15;fill:#fff" d="m-2 956.36h-96v33.562l96 25.687v-59.25z"/>
  </clipPath>
 </defs>
 <metadata id="metadata11042">
  <rdf:RDF>
   <cc:Work rdf:about="">
    <dc:format>image/svg+xml</dc:format>
    <dc:type rdf:resource="http://purl.org/dc/dcmitype/StillImage"/>
    <dc:title/>
   </cc:Work>
  </rdf:RDF>
 </metadata>
 <g id="layer1" transform="translate(0 -956.36)">
  <g id="g3110" clip-path="url(#clipPath3467)" transform="matrix(1.0952 0 0 1.0952 -4.5714 951.79)">
   <g id="layer1-2">
    <path id="rect2419" d="m12 6c-3.324 0-6 2.676-6 6v72c0 3.324 2.676 6 6 6h72c3.324 0 6-2.676 6-6v-72c0-3.324-2.676-6-6-6h-9v3h-6v-3h-57z" style="fill:url(#radialGradient3229)"/>
    <path id="rect3222" d="m6 56v28c0 3.324 2.676 6 6 6h12v-34h-18z" style="fill:url(#linearGradient3234)"/>
    <path id="path3244" d="m90 56v28c0 3.324-2.676 6-6 6h-12v-34h18z" style="fill:url(#linearGradient3246)"/>
    <path id="rect2412" d="m6 82v2c0 3.324 2.676 6 6 6h72c3.324 0 6-2.676 6-6v-2c0 3.324-2.676 6-6 6h-72c-3.324 0-6-2.676-6-6z" style="opacity:.15"/>
    <path id="path3187" d="m6 78v2c0 3.324 2.676 6 6 6h72c3.324 0 6-2.676 6-6v-2c0 3.324-2.676 6-6 6h-72c-3.324 0-6-2.676-6-6z" style="opacity:.8;fill:#fff"/>
    <path id="path3189" d="m6 76v2c0 3.324 2.676 6 6 6h72c3.324 0 6-2.676 6-6v-2c0 3.324-2.676 6-6 6h-72c-3.324 0-6-2.676-6-6z" style="opacity:.15"/>
    <path id="path3191" d="m6 72v2c0 3.324 2.676 6 6 6h72c3.324 0 6-2.676 6-6v-2c0 3.324-2.676 6-6 6h-72c-3.324 0-6-2.676-6-6z" style="opacity:.8;fill:#fff"/>
    <path id="path3193" d="m6 70v2c0 3.324 2.676 6 6 6h72c3.324 0 6-2.676 6-6v-2c0 3.324-2.676 6-6 6h-72c-3.324 0-6-2.676-6-6z" style="opacity:.15"/>
    <path id="rect3195" d="m12 6c-3.324 0-6 2.676-6 6v56c0 3.324 2.676 6 6 6h72c3.324 0 6-2.676 6-6v-56c0-3.324-2.676-6-6-6h-9v3h-6v-3h-57z" style="fill:url(#linearGradient3223)"/>
    <path id="rect3207" d="m12 6c-3.324 0-6 2.676-6 6v56c0 3.324 2.676 6 6 6h72c3.324 0 6-2.676 6-6v-56c0-3.324-2.676-6-6-6h-9v2h9c2.2458 0 4 1.7542 4 4v56c0 2.2458-1.7542 4-4 4h-72c-2.2458 0-4-1.754-4-4v-56c0-2.2458 1.7542-4 4-4h57v-2h-57z" style="fill:url(#linearGradient3220)"/>
   </g>
   <g id="layer3">
    <path id="rect3201" d="m66 6v55c0 1.662 1.338 3 3 3h6c1.662 0 3-1.338 3-3v-55h-4v2h-4v-2h-4z" style="fill:#252525"/>
    <rect id="rect3247" style="fill:#4d4d4d" height="49" width="4" y="8" x="70"/>
    <rect id="rect3211" style="stroke-opacity:.56364;stroke:#000;stroke-linecap:square;stroke-width:.5;fill:url(#linearGradient3360)" rx="1" ry="1" height="4" width="6" y="56" x="69"/>
    <path id="path3231" d="m66 6v55c0 1.662 1.338 3 3 3h6c1.662 0 3-1.338 3-3v-55h-4v2h-4v-2h-4z" style="filter:url(#filter3243);stroke:#000;stroke-linecap:square;stroke-width:2;fill:none" clip-path="url(#clipPath3235)"/>
    <path id="rect3249" d="m69.5 51c-0.27 0-0.5 0.218-0.5 0.5v3c0 0.28204 0.23023 0.5 0.5 0.5h1c0.26977 0 0.5-0.21796 0.5-0.5v-0.5h1.5c0.277 0 0.5-0.223 0.5-0.5v-1c0-0.277-0.223-0.5-0.5-0.5h-1.5v-0.5c0-0.282-0.23-0.5-0.5-0.5h-1z" style="stroke-opacity:.56364;stroke:#000;stroke-linecap:square;stroke-width:.5;fill:url(#linearGradient3463)"/>
    <use id="use3308" xlink:href="#rect3249" transform="translate(0,-6)" height="96" width="96" y="0" x="0"/>
    <use id="use3310" xlink:href="#use3308" transform="translate(0,-6)" height="96" width="96" y="0" x="0"/>
    <use id="use3312" xlink:href="#use3310" transform="translate(0,-6)" height="96" width="96" y="0" x="0"/>
    <use id="use3314" xlink:href="#use3312" transform="translate(0,-6)" height="96" width="96" y="0" x="0"/>
    <use id="use3316" xlink:href="#use3314" transform="translate(0,-6)" height="96" width="96" y="0" x="0"/>
    <use id="use3318" xlink:href="#use3316" transform="translate(0,-6)" height="96" width="96" y="0" x="0"/>
    <use id="use3320" xlink:href="#use3318" transform="translate(0,-6)" height="96" width="96" y="0" x="0"/>
    <path id="path3322" d="m74.5 48c0.26977 0 0.5 0.21796 0.5 0.5v3c0 0.28204-0.23023 0.5-0.5 0.5h-1c-0.27 0-0.5-0.218-0.5-0.5v-0.5h-1.5c-0.277 0-0.5-0.223-0.5-0.5v-1c0-0.277 0.223-0.5 0.5-0.5h1.5v-0.5c0-0.282 0.23-0.5 0.5-0.5h1z" style="stroke-opacity:.56364;stroke:#000;stroke-linecap:square;stroke-width:.5;fill:url(#linearGradient3465)"/>
    <use id="use3340" xlink:href="#path3322" transform="translate(0,-6)" height="96" width="96" y="0" x="0"/>
    <use id="use3342" xlink:href="#use3340" transform="translate(0,-6)" height="96" width="96" y="0" x="0"/>
    <use id="use3344" xlink:href="#use3342" transform="translate(0,-6)" height="96" width="96" y="0" x="0"/>
    <use id="use3346" xlink:href="#use3344" transform="translate(0,-6)" height="96" width="96" y="0" x="0"/>
    <use id="use3348" xlink:href="#use3346" transform="translate(0,-6)" height="96" width="96" y="0" x="0"/>
    <use id="use3350" xlink:href="#use3348" transform="translate(0,-6)" height="96" width="96" y="0" x="0"/>
    <path id="path3376" d="m65 6v55c0 2.2023 1.7977 4 4 4h6c2.2023 0 4-1.7977 4-4v-55h-1v55c0 1.662-1.338 3-3 3h-6c-1.662 0-3-1.338-3-3v-55h-1z" style="fill:url(#linearGradient3393)"/>
    <path id="path3433" d="m69.5 10.531c-1.0277 0-1.9688 0.7652-1.9688 1.8125v10.812c0 1.048 0.918 1.844 1.969 1.844h5c1.0507 0 1.9688-0.79645 1.9688-1.8438v-10.812c-0.000003-1.0473-0.94105-1.8125-1.9688-1.8125h-5zm1.0625 9.0625h2.875v1.75h-2.875v-1.75z" style="stroke-opacity:.56364;filter:url(#filter3429);stroke:#000;stroke-linecap:square;stroke-width:0.5" transform="translate(0,-2)"/>
    <path id="rect3403" d="m69.229 9.0214c-0.687 0-1.229 0.4824-1.229 1.0816l-0.005 10.815c0 0.6 0.542 1.082 1.229 1.082h5.5832c0.68714 0 1.2292-0.48237 1.2292-1.0815l0.0051-10.815c0-0.59918-0.54211-1.0815-1.2292-1.0815h-5.5832zm0.7043 7.9496h4.1013v3.1184h-4.1013v-3.1184z" style="fill:url(#linearGradient3516)"/>
    <path id="rect3470" d="m74.562 9.9688c0.277 0 0.5 0.223 0.5 0.5v10.062c0 0.277-0.223 0.5-0.5 0.5h-5.0938c-0.277 0-0.5-0.223-0.5-0.5v-10.062c0-0.277 0.223-0.5 0.5-0.5h5.0938zm-0.4375 6.9688h-4.125v3.125h4.125v-3.125z" style="fill:url(#linearGradient3489)"/>
    <rect id="rect3399" style="stroke-opacity:.56364;stroke:#000;stroke-linecap:square;fill:url(#linearGradient3530)" rx=".56313" ry=".5" height="5" width="3.3788" y="7.5" x="70.311"/>
    <rect id="rect3518" style="opacity:.3" height="1" width="4" y="16" x="69.985"/>
    <rect id="rect3335" style="opacity:.2;fill:#666" rx="4" ry="4" height="32" width="42" y="36" x="12"/>
    <rect id="rect3301" style="fill:url(#linearGradient3318)" rx="2.5" ry="2.5" height="24" width="20" y="40" x="16"/>
    <path id="path3310" d="m31.631 46.102c-0.7422 1.1719-1.4453 2.3086-2.1094 3.4102-0.65626 1.1016-1.2305 2.2109-1.7227 3.3281-0.4922 1.1094-0.88282 2.2539-1.1719 3.4336-0.281 1.171-0.422 2.414-0.422 3.726h-3.4336c-0.000004-1.3047 0.15234-2.543 0.45703-3.7148 0.3125-1.1797 0.73437-2.3281 1.2656-3.4453 0.53124-1.1172 1.1484-2.2187 1.8516-3.3047 0.70312-1.0937 1.4453-2.207 2.2266-3.3398h-8.2031v-2.707h11.262v2.6133" style="fill:#fff"/>
    <path id="text3303" d="m40 60v-2.1742l6.3281-7.8425h-6.2265v-2.2526h9.8593v2.2292l-6.293 7.7956h6.4568v2.2445h-10.125" style="fill:#1a1a1a"/>
    <path id="rect3320" d="m18.5 40c-1.385 0-2.5 1.115-2.5 2.5v19c0 1.385 1.115 2.5 2.5 2.5h15c1.385 0 2.5-1.115 2.5-2.5v-19c0-1.385-1.115-2.5-2.5-2.5h-15zm0 1h15c0.84285 0 1.5 0.65715 1.5 1.5v19c0 0.84285-0.65715 1.5-1.5 1.5h-15c-0.843 0-1.5-0.657-1.5-1.5v-19c0-0.843 0.657-1.5 1.5-1.5z" style="opacity:.2;fill:url(#linearGradient3333)"/>
    <path id="rect3337" d="m16 36c-2.216 0-4 1.784-4 4v24c0 2.216 1.784 4 4 4h34c2.216 0 4-1.784 4-4v-24c0-2.216-1.784-4-4-4h-34zm0 1.1562h34c1.593 0 2.8438 1.2507 2.8438 2.8438v24c0 1.593-1.2507 2.8438-2.8438 2.8438h-34c-1.593 0-2.8438-1.2507-2.8438-2.8438v-24c0-1.593 1.2507-2.8438 2.8438-2.8438z" style="opacity:.2;fill:url(#linearGradient3350)"/>
   </g>
  </g>
  <rect id="rect3003" style="opacity:.15;fill:#fff" transform="translate(98 3.8281e-7)" clip-path="url(#clipPath3009)" rx="25" ry="25" height="92" width="92" y="958.36" x="-96"/>
 </g>
</svg>
