/* XPM */
static char *noname[] = {
/* width height ncolors chars_per_pixel */
"32 32 334 2",
/* colors */
"   c #B9BDD0",
" . c #B7BDCE",
" X c #65739B",
" o c #7782A6",
" O c #4D5C8A",
" + c #38497C",
" @ c #7682A5",
" # c #616F97",
" $ c #37477B",
" % c #DDE1E9",
" & c #7580A4",
" * c #606D96",
" = c #4B5A88",
" - c #9EA6BF",
" ; c #5F6D95",
" : c #DCDFE8",
" > c #C7CCDA",
" , c #4A5887",
" < c #5E6B94",
" 1 c #B1B7CB",
" 2 c #9CA4BD",
" 3 c #EFF0F4",
" 4 c #DADDE6",
" 5 c #AEB3C8",
" 6 c #6E7CA0",
" 7 c #97A2BB",
" 8 c #ABB3C8",
" 9 c #586591",
" 0 c #435283",
" q c #6C789E",
" w c #BFC4D5",
" e c #AAB1C7",
" r c #959EB9",
" t c #808BAB",
" y c #6B789D",
" u c #FDFDFE",
" i c #A9B1C6",
" p c #6B769D",
" a c #FCFDFD",
" s c #BEC2D4",
" d c #A9AFC6",
" f c #6A769C",
" g c #D2D5E1",
" h c #BDC2D3",
" j c #939CB7",
" k c #69749B",
" l c #68749A",
" z c #D0D3DF",
" x c #68769D",
" c c #67749C",
" v c #66749B",
" b c #8F98B6",
" n c #7985A7",
" m c #647299",
" M c #CCD1DE",
" N c #647099",
" B c #4F5D8B",
" V c #3A4A7D",
" C c #A2A9C2",
" Z c #8D96B4",
" A c #394A7C",
" S c #E0E2EB",
" D c #B6BCCF",
" F c #A1A9C1",
" G c #7783A5",
" H c #627097",
" J c #CACFDC",
" K c #7781A5",
" L c #4D5B89",
" P c #B5BACE",
" I c #7681A4",
" U c #616E96",
" Y c #C9CDDB",
" T c #DDE0E8",
" R c #B3BACC",
" E c #DCDEE7",
" W c #C7CBD9",
" Q c #9DA5BD",
" ! c #B0B6CC",
" ~ c #8690B0",
" ^ c #717DA2",
" / c #AFB6CB",
" ( c #707DA1",
" ) c #EDEFF4",
" _ c #465585",
" ` c #314277",
" ' c #C2C9D7",
" ] c #6F7BA0",
" [ c #ECEDF3",
" { c #C2C7D7",
" } c #ADB4C9",
" | c #838EAD",
".  c #EBEDF2",
".. c #D6DAE4",
".X c #ACB4C8",
".o c #6E799F",
".O c #596691",
".+ c #C1C5D6",
".@ c #ACB2C8",
".# c #6D799E",
".$ c #586690",
".% c #D5D8E3",
".& c #C0C5D5",
".* c #E9EBF0",
".= c #D4D8E2",
".- c #AAB0C6",
".; c #6B779C",
".: c #6A759B",
".> c #55628D",
"., c #687399",
".< c #54628F",
".1 c #68759C",
".2 c #53628E",
".3 c #BAC1D2",
".4 c #67739B",
".5 c #52608D",
".6 c #66739A",
".7 c #E3E5ED",
".8 c #8F99B5",
".9 c #E2E5EC",
".0 c #8E97B4",
".q c #CCD0DD",
".w c #A2AAC1",
".e c #636F97",
".r c #DFE1E9",
".t c #B5BBCD",
".y c #B4BBCC",
".u c #7682A6",
".i c #7582A5",
".p c #495887",
".a c #727EA2",
".s c #C5CAD9",
".d c #B0B7CB",
".f c #485686",
".g c #B0B5CB",
".h c #5A6791",
".j c #C2C6D6",
".k c #EBECF1",
".l c #6E789E",
".z c #C0C4D4",
".x c #6E7AA1",
".c c #6D7AA0",
".v c #6C789F",
".b c #6A789D",
".n c #A8AFC6",
".m c #7E89AA",
".M c #54638E",
".N c #68769B",
".B c #69749C",
".V c #FAFBFC",
".C c #E5E8EE",
".Z c #68749B",
".A c #53618D",
".S c #67749A",
".D c #E4E6ED",
".F c #CFD3DF",
".G c #667299",
".H c #B9BED0",
".J c #8F98B4",
".K c #67769D",
".L c #CCD1DF",
".P c #8D96B5",
".I c #394A7D",
".U c #8C96B4",
".Y c #617097",
".T c #38487C",
".R c #7681A5",
".E c #B4BACE",
".W c #7581A4",
".Q c #606E96",
".! c #F2F3F7",
".~ c #C8CDDB",
".^ c #B3BACD",
"./ c #5F6C95",
".( c #4A5987",
".) c #C7CBDA",
"._ c #C6CBD9",
".` c #B1B8CB",
".' c #9CA5BD",
".] c #495786",
".[ c #727DA1",
".{ c #6F7BA1",
".} c #6E7BA0",
".| c #6D799F",
"X  c #586691",
"X. c #435383",
"XX c #ABB2C8",
"Xo c #6C799E",
"XO c #576690",
"X+ c #BFC5D5",
"X@ c #E8E9F0",
"X# c #D3D6E2",
"X$ c #BEC3D4",
"X% c #FCFCFD",
"X& c #E7E9EF",
"X* c #D2D6E1",
"X= c #6A759C",
"X- c #A8AEC5",
"X; c #939BB7",
"X: c #7E88A9",
"X> c #69759B",
"X, c #D1D4E0",
"X< c #A7AEC4",
"X1 c #929BB6",
"X2 c #68739A",
"X3 c #BBBFD1",
"X4 c #A6ACC3",
"X5 c #677399",
"X6 c #68759D",
"X7 c #E2E5ED",
"X8 c #647399",
"X9 c #CCD2DE",
"X0 c #8E97B5",
"Xq c #647199",
"Xw c #3A4B7D",
"Xe c #CCD0DE",
"Xr c #B7BDD0",
"Xt c #8D97B4",
"Xy c #637198",
"Xu c #7882A6",
"Xi c #39497C",
"Xp c #7782A5",
"Xa c #DFE1EA",
"Xs c #CACEDC",
"Xd c #7682A4",
"Xf c #F3F4F7",
"Xg c #DEE1E9",
"Xh c #C9CEDB",
"Xj c #4C5A88",
"Xk c #9FA6BF",
"Xl c #B3B9CC",
"Xz c #737EA1",
"Xx c #B2B9CE",
"Xc c #727EA3",
"Xv c #C5CADA",
"Xb c #D9DDE7",
"Xn c #AFB7CB",
"Xm c #475686",
"XM c #858FAF",
"XN c #707CA1",
"XB c #5B6993",
"XV c #D8DBE6",
"XC c #C3C8D8",
"XZ c #AEB5CA",
"XA c #6F7AA0",
"XS c #5A6792",
"XD c #98A0BB",
"XF c #6E7A9F",
"XG c #596791",
"XH c #D6D9E4",
"XJ c #C1C6D6",
"XK c #ACB3C8",
"XL c #6E789F",
"XP c #FFFFFF",
"XI c #EAECF1",
"XU c #ABB3C7",
"XY c #435282",
"XT c #6C789D",
"XR c #BFC4D4",
"XE c #6B769C",
"XW c #BEC2D3",
"XQ c #69749A",
"X! c #556390",
"X~ c #69769D",
"X^ c #54638F",
"X/ c #929CB8",
"X( c #E5E8EF",
"X) c #D0D5E1",
"X_ c #68749C",
"X` c #53618E",
"X' c #7C87A9",
"X] c #67749B",
"X[ c #3D4E7F",
"X{ c #E4E6EE",
"X} c #CED3DF",
"X| c #66729A",
"o  c #B9BED1",
"o. c #A4ABC3",
"oX c #8F98B5",
"oo c #7A85A7",
"oO c #657299",
"o+ c #B8BED0",
"o@ c #8E98B4",
"o# c #647298",
"o$ c #B8BCD0",
"o% c #647098",
"o& c #3A4A7C",
"o* c #B7BCCF",
"o= c #A2A9C1",
"o- c #8D96B3",
"o; c #E0E2EA",
"o: c #B6BCCE",
"o> c #CACFDE",
"o, c #7581A5",
"o< c #5E6C95",
"o1 c #F0F1F6",
"o2 c #B1B8CC",
"o3 c #9CA5BE",
"o4 c #495787",
"o5 c #DADEE7",
"o6 c #485786",
"o7 c #B0B6CB",
"o8 c #8690AF",
"o9 c #717DA1",
"o0 c #C4C9D8",
"oq c #AFB6CA",
"ow c #707DA0",
"oe c #475585",
"or c #C3C9D7",
"ot c #D8DAE5",
"oy c #99A1BB",
"ou c #D7DAE4",
"oi c #6E799E",
"op c #6D79A0",
"oa c #6C799F",
"os c #808AAC",
"od c #566490",
"of c #A9B0C7",
"og c #6A759D",
"oh c #FBFCFD",
"oj c #69759C",
"ok c #54628E",
"ol c #3F4F80",
"oz c #7D88A9",
"ox c #D0D4E0",
"oc c #BBC1D2",
"ov c #68739B",
"ob c #67739A",
"on c #BABFD1",
"om c #9099B5",
"oM c #51608B",
"oN c #B9BFD0",
"oB c #8F99B4",
"oV c None",
/* pixels */
"oVX^X2 pXEXEX=X=.:.: fojojojX>X> k kXQXQ l.Z.Z.Z.SobobobX5.e.>oV",
"XO M.!o1 3 ) [. .k.*X@X&.CX{X7.9 So;Xg T E 4XbXVouXH.%.=X* g 1X!",
"XA.!o1 3 ) [. .k.*X@X&.CX{X7.9 So;Xg T E 4XbXVouXH.%.=X* gX,.F v",
".ao1 3 ) [. .k.*X@X&X(X{X7.9 So;Xg T : 4XbXVotXH.%.=X* gX,.FX}X~",
" ^ 3 ).+././ < < *X)X{X7.9 ~ mXyXyXy H H.Y # # U.Q.Q.Q ; dX}Xe.N",
" ( ) [o@ ` ` ` ` + !X7.9 SXm ` ` ` ` ` ` ` ` ` ` ` ` ` `XdXe.q.B",
"ow [. oX ` ` ` ` V /.9 So;.] `.5 r r r r r r r r r r O ` @.q J.B",
"XN. .koX ` ` ` ` V.d So;Xg.] `XKXPXPXPXPXPXPXPXPXPXPXk `Xp JXs x",
"XN.kXI.8 ` ` ` `.I.go;Xg T.] `XKXPXPXPXPXPXPXPXPXPXPXk `.RXs.~.K",
" ^XIX@oB ` ` ` `o&o7Xg T :.] `.mXaXaXaXaXaXaXaXfXPXPXk `Xp.~ >X]",
"o9X@X& b ` ` ` `Xwoq T :o5.] ` ` ` ` ` ` ` ` `XaXPXPXk `Xp >.)oj",
"XNX&X(X0 ` ` ` ` $X. 0XYXYol ` _ I I I I I I IXIXPXPXk `Xp.).soj",
"XNX(X{.P ` ` ` ` ` ` ` ` ` ` `XXoh.V.V.V.V.V.VX%XPXPXk ` G.so0.1",
"XNX{.7.J ` ` ` ` ` ` ` ` ` ` `XKXPXPXPXPXPXPXPXPXPXPXk `Xpo0 '.,",
" ].7.9o- ` ` ` ` ` ` ` ` ` ` `XKXPXP 3o2o2o2o2o2o2o2XB ` K '.jov",
" ].9 So@ ` ` ` ` ` ` ` ` ` ` `XKXPXP.D ` ` ` ` ` ` ` ` ` G.jXJX_",
"XA So;Xt ` ` ` `.T B.hXGXGX[ `XKXPXPXI | | | | | | | _ `XuXJ.& c",
"XFo;.r.0 ` ` ` `.I i.%.=X*oe `XKXPXP uohohohohohoh a - ` o.& w.4",
"oi.r % Z ` ` ` ` A.n.=X* goe `XKXPXPXPXPXPXPXPXPXPXPXk ` G wX$X|",
"oi % :Xt ` ` ` ` AX<X* gX,oe `X'XgXgXgXgXgXgXgXgXgXg.[ ` oX$ hX|",
".} :o5.U ` ` ` `XiX4 gX,ox _ ` ` ` ` ` ` ` ` ` ` ` ` ` `.u hoc X",
" 6o5Xb.-Xj = = = Lo X,oxX}X6 , , ,.po4o4o4.]o6o6o6.f.f.fX1oc.3.6",
".|XbXVot...%.=X# gX,oxX}.L.q JXs.~ >.)Xvo0 ' {XJ.& wX$ hoc.3onX|",
".xXVot...%.=X# gX,oxX}.L.q JXs.~ >.)Xvo0 ' {XJ.& wX$ hoc.3onoNX|",
".xot..XCXU e Y so8XMXx.qXc.Q.[ >XWoOo< ~ {XDoz t  o$oy 7X-oNXr.G",
".o...%o: Fo=.z.@.io,o3 JX  = 9.) /X`.( *XJX:.{.WoqoqX/om 2o+ .X8",
"XL.%.=o*o. CX+.X noo QXs.<.MokXvo7oM.2 N.&os &XzoqXnX; j.' . Do#",
".|.=X# z W._X9o>X3.H.sXho:XZ Po0 ' 8of.t wo* 5 }.3.H.`oq.y D.EXq",
".|X# gX,oxX}.L.q JXsXh >.)Xvo0 ' {XJ.& wX$ hoc.3onoNo+ . D.E.^Xq",
" q gX,oxX}.L.q JXsXh >.)Xvo0 ' {XJ.& wX$ hoc.3onoNo+ . D.E.^Xlo%",
".OXRoxX}.L.q JXsXh >.)Xvo0or {XJ.& wX$ hococonoNo+ . D.E.^ R.wod",
"oVXS.|op.|oa.c.|.|oa.v.lXo q.#XoXoXTXT y y.;.b.b f pogogX= k.$oV"
};
