<?xml version="1.0" encoding="UTF-8" standalone="no"?>
<!-- Created with Inkscape (http://www.inkscape.org/) -->
<svg id="svg2" xmlns:rdf="http://www.w3.org/1999/02/22-rdf-syntax-ns#" xmlns="http://www.w3.org/2000/svg" height="96" width="96" version="1.1" xmlns:cc="http://creativecommons.org/ns#" xmlns:xlink="http://www.w3.org/1999/xlink" xmlns:dc="http://purl.org/dc/elements/1.1/">
 <defs id="defs4">
  <filter id="filter6279" color-interpolation-filters="sRGB">
   <feGaussianBlur id="feGaussianBlur6281" stdDeviation="0.8"/>
  </filter>
  <clipPath id="clipPath3613-5">
   <rect id="rect3615-0-2" style="fill:#fff" rx="6" ry="6" height="84" width="84" y="6" x="6"/>
  </clipPath>
  <filter id="filter3794-7-5" height="1.384" width="1.384" y="-.192" x="-.192" color-interpolation-filters="sRGB">
   <feGaussianBlur id="feGaussianBlur3796-7-9" stdDeviation="5.28"/>
  </filter>
  <linearGradient id="linearGradient3028" y2="138.66" gradientUnits="userSpaceOnUse" y1="20.221" x2="48" x1="48">
   <stop id="stop3739-5-3" style="stop-color:#fff" offset="0"/>
   <stop id="stop3741-9-8" style="stop-color:#fff;stop-opacity:0" offset="1"/>
  </linearGradient>
  <radialGradient id="radialGradient3040" gradientUnits="userSpaceOnUse" cy="-14.787" cx="48" gradientTransform="matrix(0 .99292 -1.0017 0 33.187 -41.554)" r="42">
   <stop id="stop3828-8" style="stop-color:#ff3920" offset="0"/>
   <stop id="stop3830-3" style="stop-color:#ff3920;stop-opacity:0" offset="1"/>
  </radialGradient>
  <linearGradient id="linearGradient3043" x1="48" gradientUnits="userSpaceOnUse" y1="1052.4" gradientTransform="translate(-.03 -956.33)" x2="48" y2="902.36">
   <stop id="stop3702-5" style="stop-color:#970303" offset="0"/>
   <stop id="stop3704-0-6" style="stop-color:#f31d0c" offset="1"/>
  </linearGradient>
  <linearGradient id="linearGradient31755" x1="310.57" xlink:href="#linearGradient18419" gradientUnits="userSpaceOnUse" x2="319.9" gradientTransform="matrix(.47414 0 0 .49148 553.18 144.4)" y1="761.12" y2="761.12"/>
  <linearGradient id="linearGradient18419">
   <stop id="stop18421" style="stop-color:#515a5d" offset="0"/>
   <stop id="stop18423" style="stop-color:#515a5d;stop-opacity:0" offset="1"/>
  </linearGradient>
  <linearGradient id="linearGradient31757" x1="310.57" xlink:href="#linearGradient18419" gradientUnits="userSpaceOnUse" x2="319.9" y1="761.12" y2="761.12"/>
  <linearGradient id="linearGradient31759" x1="310.57" xlink:href="#linearGradient18419" gradientUnits="userSpaceOnUse" x2="319.9" gradientTransform="matrix(.40318 0 0 .45735 -60.761 568.88)" y1="761.12" y2="761.12"/>
  <linearGradient id="linearGradient31761" x1="310.57" xlink:href="#linearGradient18419" gradientUnits="userSpaceOnUse" x2="319.9" gradientTransform="matrix(.73509 0 0 .36945 -357.56 658.59)" y1="761.12" y2="761.12"/>
  <linearGradient id="linearGradient31765" x1="-125.01" xlink:href="#linearGradient22890" gradientUnits="userSpaceOnUse" x2="-125.38" gradientTransform="matrix(1.8333 0 0 1.3764 791.39 -161.04)" y1="540.54" y2="557.44"/>
  <linearGradient id="linearGradient22890">
   <stop id="stop22892" style="stop-color:#e8d39f" offset="0"/>
   <stop id="stop22894" style="stop-color:#e8d39f;stop-opacity:0" offset="1"/>
  </linearGradient>
  <linearGradient id="linearGradient31767" x1="-125.01" xlink:href="#linearGradient22890" gradientUnits="userSpaceOnUse" x2="-125.38" gradientTransform="matrix(1.8333 0 0 -1.3764 791.39 1383.9)" y1="540.54" y2="557.44"/>
  <radialGradient id="radialGradient31897" cx="-355.08" gradientUnits="userSpaceOnUse" cy="1318.5" r="73.78" gradientTransform="matrix(1.4089 .15124 -.088260 .82216 261.77 265.09)">
   <stop id="stop25738" style="stop-color:#0a0700" offset="0"/>
   <stop id="stop25740" style="stop-color:#6c6661" offset="1"/>
  </radialGradient>
  <linearGradient id="linearGradient31899" x1="-315.77" spreadMethod="reflect" gradientUnits="userSpaceOnUse" x2="-274.71" gradientTransform="translate(.94251 -16.494)" y1="1274.1" y2="1274.1">
   <stop id="stop25728" style="stop-color:#010000" offset="0"/>
   <stop id="stop25730" style="stop-color:#010000;stop-opacity:0" offset="1"/>
  </linearGradient>
  <radialGradient id="radialGradient31901" cx="-138.37" gradientUnits="userSpaceOnUse" cy="892.23" r="6.5919" gradientTransform="matrix(1.7041 -.000022423 .000012579 .95599 97.419 39.262)">
   <stop id="stop26636" style="stop-color:#615d58" offset="0"/>
   <stop id="stop26638" style="stop-color:#615d58;stop-opacity:0" offset="1"/>
  </radialGradient>
  <linearGradient id="linearGradient31727" x1="-485.6" spreadMethod="reflect" gradientUnits="userSpaceOnUse" x2="-415.7" y1="1112.4" y2="1286.7">
   <stop id="stop29572" style="stop-color:#1b0d0b" offset="0"/>
   <stop id="stop30510" style="stop-color:#544444" offset=".5"/>
   <stop id="stop29574" style="stop-color:#e5e8ed" offset="1"/>
  </linearGradient>
  <linearGradient id="linearGradient31729" x1="-1340" xlink:href="#linearGradient29621" spreadMethod="reflect" gradientUnits="userSpaceOnUse" x2="-1340" gradientTransform="matrix(.46241 -1.9148e-8 -1.8132e-8 .31661 296.86 680.61)" y1="1265.2" y2="1298.4"/>
  <linearGradient id="linearGradient29621">
   <stop id="stop29623" style="stop-color:#fafdf2" offset="0"/>
   <stop id="stop29625" style="stop-color:#59544f;stop-opacity:.83505" offset="1"/>
  </linearGradient>
  <linearGradient id="linearGradient31731" x1="-1340" xlink:href="#linearGradient29621" spreadMethod="reflect" gradientUnits="userSpaceOnUse" x2="-1340" gradientTransform="matrix(.39163 6.7084e-8 2.6313e-8 .29459 252.11 805.17)" y1="1265.2" y2="1298.4"/>
  <linearGradient id="linearGradient31733" x1="-1340" xlink:href="#linearGradient29621" spreadMethod="reflect" gradientUnits="userSpaceOnUse" x2="-1340" gradientTransform="matrix(.46241 0 2.023e-8 .31661 35.349 806.33)" y1="1265.2" y2="1298.4"/>
  <radialGradient id="radialGradient31735" gradientUnits="userSpaceOnUse" cy="1158" cx="-1311.4" gradientTransform="matrix(3.4334 -.18432 .18420 3.431 2978 -3058.3)" r="186.03">
   <stop id="stop29517" style="stop-color:#fff" offset="0"/>
   <stop id="stop29519" style="stop-color:#eff0ef" offset="1"/>
  </radialGradient>
  <radialGradient id="radialGradient31685" cx="-278.02" xlink:href="#linearGradient16591" gradientUnits="userSpaceOnUse" cy="97.823" r="63.741" gradientTransform="matrix(3.2706 .43715 -.057914 .43329 638.93 174.97)"/>
  <linearGradient id="linearGradient16591">
   <stop id="stop16593" style="stop-color:#947251" offset="0"/>
   <stop id="stop16595" style="stop-color:#947251;stop-opacity:0" offset="1"/>
  </linearGradient>
  <radialGradient id="radialGradient31687" cx="-278.02" xlink:href="#linearGradient16591" gradientUnits="userSpaceOnUse" cy="97.823" r="63.741" gradientTransform="matrix(-3.2706 -.43715 .057914 -.43329 -1075.5 46.077)"/>
  <radialGradient id="radialGradient31689" cx="-238.87" xlink:href="#linearGradient17487" gradientUnits="userSpaceOnUse" cy="89.08" r="24.508" gradientTransform="matrix(3.1484 2.2659 -.10414 .12634 523.4 620.04)"/>
  <linearGradient id="linearGradient17487">
   <stop id="stop17489" style="stop-color:#e0e7cd" offset="0"/>
   <stop id="stop17491" style="stop-color:#e0e7cd;stop-opacity:0" offset="1"/>
  </linearGradient>
  <radialGradient id="radialGradient31691" cx="-238.87" xlink:href="#linearGradient17487" gradientUnits="userSpaceOnUse" cy="89.08" r="24.508" gradientTransform="matrix(1.4156 2.4835 -.14379 .045766 147.04 720.2)"/>
  <radialGradient id="radialGradient31693" cx="-238.87" xlink:href="#linearGradient17487" gradientUnits="userSpaceOnUse" cy="89.08" r="24.508" gradientTransform="matrix(-2.2477 1.5192 .074349 .084707 -741.21 452.11)"/>
  <radialGradient id="radialGradient31695" cx="-238.87" xlink:href="#linearGradient17487" gradientUnits="userSpaceOnUse" cy="89.08" r="24.508" gradientTransform="matrix(5.8441 2.1151 -.12321 .18389 1244.7 618.18)"/>
  <radialGradient id="radialGradient31697" cx="-238.87" xlink:href="#linearGradient17487" gradientUnits="userSpaceOnUse" cy="89.08" r="24.508" gradientTransform="matrix(6.1541 1.8357 -.11427 .20373 1208.8 514.17)"/>
  <linearGradient id="linearGradient31673" y2="743.16" gradientUnits="userSpaceOnUse" x2="1444.5" y1="918.64" x1="1352.9">
   <stop id="stop31432" style="stop-color:#2f322a" offset="0"/>
   <stop id="stop31434" style="stop-color:#717466" offset="1"/>
  </linearGradient>
 </defs>
 <metadata id="metadata7">
  <rdf:RDF>
   <cc:Work rdf:about="">
    <dc:format>image/svg+xml</dc:format>
    <dc:type rdf:resource="http://purl.org/dc/dcmitype/StillImage"/>
    <dc:title/>
   </cc:Work>
  </rdf:RDF>
 </metadata>
 <rect id="rect9283" style="filter:url(#filter6279)" rx="5" ry="5" height="80" width="80" y="8.03" x="7.97"/>
 <rect id="rect9285" style="fill:url(#linearGradient3043)" rx="5" ry="5" height="80" width="80" y="8.03" x="7.97"/>
 <path id="rect3819" style="opacity:.8;enable-background:new;fill:url(#radialGradient3040)" d="m12 6c-3.324 0-6 2.676-6 6v36h84v-36c0-3.324-2.676-6-6-6h-72z"/>
 <g id="layer1" transform="matrix(.18950 0 0 .18950 7.5209 15.964)">
  <g id="g31444" transform="matrix(.44089 0 0 .365 -549.08 -100.42)">
   <g id="g31438" transform="matrix(.51040 0 0 .58748 1142.8 294.04)">
    <path id="path30546" style="stroke:#393031;stroke-width:.629;stroke-opacity:.6828;fill:url(#linearGradient31673)" d="m1395.4 831.91c-94.435 0.74854-155.55 13.273-186.28 41.125-30.734 27.852-2.375 90.531-2.375 90.531h389.88s30.097-45.714 0-82.625c-31.906-39.13-97.671-49.031-194.94-49.031-2.1018 0-4.1956-0.0165-6.2813 0z"/>
    <path id="path30552" style="stroke:#393031;stroke-width:.629;stroke-opacity:.6828;fill:#0f0c0f" transform="matrix(1.0628 0 0 1 -87.989 85.247)" d="m1581.6 880.63c0 16.505-80.526 29.885-179.86 29.885s-179.86-13.38-179.86-29.885 80.526-29.885 179.86-29.885c99.139 0 179.58 13.33 179.86 29.802"/>
   </g>
   <g id="g28430" transform="matrix(1.3219 0 0 .54643 1446.9 541.97)">
    <rect id="rect28432" ry="1.6789" style="opacity:.41081;fill:url(#linearGradient31755)" transform="matrix(.77768 .62865 -.54106 .84098 0 0)" height="182.77" width="4.4239" y="427.09" x="700.44"/>
    <rect id="rect28434" style="opacity:.41081;fill:url(#linearGradient31757)" ry="3.416" height="371.88" width="9.3303" y="575.18" x="310.57"/>
    <rect id="rect28436" ry="1.5623" style="opacity:.41081;fill:url(#linearGradient31759)" transform="matrix(-.67338 .73930 .42810 .90373 0 0)" height="170.08" width="3.7618" y="831.94" x="64.454"/>
    <rect id="rect28438" ry="1.3122" style="opacity:.41081;fill:url(#linearGradient31761)" rx="0" transform="matrix(-.92520 .37948 .22682 .97394 0 0)" height="137.39" width="6.8586" y="871.09" x="-129.26"/>
    <rect id="rect28440" style="opacity:.41081;fill:url(#linearGradient31757)" ry="3.416" height="371.88" width="9.3303" y="575.18" x="310.57"/>
    <rect id="rect28442" style="fill:#d1d1cf" ry="1.8707" height="8.258" width="12.686" y="799.14" x="308.15"/>
    <rect id="rect28444" style="fill:#29342c" ry="5.4421" height="19.643" width="18.571" y="930.22" x="305.71"/>
    <rect id="rect28446" ry="3.7795" style="fill:#29342c" transform="matrix(.93801 -.34660 .3342 .94250 0 0)" height="13.642" width="10.478" y="1019.4" x="37.815"/>
    <rect id="rect28448" ry="3.7795" style="fill:#29342c" transform="matrix(.98869 -.14999 .13694 .99058 0 0)" height="13.642" width="10.478" y="964.56" x="207.66"/>
    <rect id="rect28450" ry="3.7795" style="fill:#29342c" transform="matrix(-.85635 -.51640 -.50507 .86308 0 0)" height="13.642" width="10.478" y="692.86" x="-675.23"/>
   </g>
  </g>
  <g id="g17519" transform="matrix(.64896 0 0 .60706 268.39 6.3204)">
   <path id="path13943" style="stroke:#fff;fill:#d6c886" transform="matrix(.69943 .13983 -.20058 .48757 24.628 11.311)" d="m-94.286 280.93c0 39.449-77.391 71.429-172.86 71.429-95.466 0-172.86-31.98-172.86-71.429s77.391-71.429 172.86-71.429c95.279 0 172.59 31.859 172.86 71.23"/>
   <path id="path14840" style="fill:url(#radialGradient31685)" d="m-277.56 67.969c-32.754 0.30825-56.586 6.6541-61.344 18.219-4.6811 11.379 10.132 25.281 36.844 37.5l88.538-16.932-51.6-38.6c-4.2724-0.14537-8.4157-0.22535-12.438-0.1875z"/>
   <path id="path16601" style="fill:url(#radialGradient31687)" d="m-159.01 153.08c32.754-0.30825 56.586-6.6541 61.344-18.219 4.6811-11.379-10.132-25.281-36.844-37.5l-81.387 11.335 44.449 44.196c4.2724 0.14537 8.4157 0.22535 12.438 0.1875z"/>
   <path id="path16605" style="fill:url(#radialGradient31689)" d="m-264.48 68.327c-3.6974 0.47262-1.6622 4.7434 1.0721 4.936 14.775 11.927 31.891 21.042 46.443 33.223 1.7617 1.6808 4.1702 0.96945 6.5167 2.0414 2.4957 0.48133 1.8873 0.94496-0.11442-0.24832-7.9937-9.8154-20.171-15.274-30.337-22.774-2.3995-1.894-4.8431-3.714-7.4506-5.3552-5.5164-3.7721-10.761-7.8728-16.13-11.823z"/>
   <path id="path17495" style="fill:url(#radialGradient31691)" d="m-214.59 108.46c-3.1719-0.92515-3.6086 2.4633-1.5241 3.492 6.0196 12.477 15.259 23.942 20.979 36.506 0.59317 1.652 2.8538 1.9983 4.206 3.4572 1.7555 1.1331 1.0477 1.226 0.0285-0.19572-1.6371-8.8869-8.7048-16.392-13.187-24.527-0.99838-1.9989-2.0675-3.9654-3.3533-5.8726-2.5756-4.2255-4.7768-8.5697-7.149-12.859z"/>
   <path id="path17499" style="fill:url(#radialGradient31693)" d="m-178.74 82.198c2.6396 0.31688 1.1867 3.1803-0.76536 3.3095-10.548 7.9971-22.768 14.108-33.156 22.275-1.2577 1.1269-2.9772 0.64999-4.6523 1.3687-1.7817 0.32272-1.3474 0.63357 0.0817-0.16649 5.7068-6.581 14.4-10.241 21.658-15.269 1.713-1.2699 3.4576-2.4901 5.319-3.5906 3.9382-2.5291 7.6826-5.2785 11.515-7.927z"/>
   <path id="path17503" style="opacity:.41081;fill:url(#radialGradient31695)" d="m-212.41 108.21c-5.7717 1.468-1.0169 6.374 3.4402 5.9722 27.875 11.558 58.531 19.015 86.137 30.945 3.4138 1.7042 7.0331 0.23909 11.174 1.0376 4.1746 0.0184 3.3593 0.7466-0.27018-0.28618-16.252-10.493-37.705-14.505-56.639-21.566-4.5121-1.8227-9.0693-3.5416-13.827-4.9965-10.17-3.4562-20.019-7.3906-30.015-11.106z"/>
   <path id="path17507" style="opacity:.41081;fill:url(#radialGradient31697)" d="m-324.43 74.918c-5.8368 1.9611-0.61404 6.8342 3.943 6.0962 29.454 10.315 61.489 16.084 90.691 26.813 3.6266 1.5696 7.2499-0.23791 11.563 0.31989 4.295-0.27226 3.5057 0.55737-0.29728-0.28476-17.427-9.9978-39.763-12.755-59.716-18.923-4.7643-1.6185-9.5679-3.1238-14.56-4.335-10.695-2.9562-21.091-6.4424-31.623-9.6862z"/>
   <path id="path17517" style="fill:#515a5d;fill-rule:evenodd" d="m-219.93 125.99c2.999-1.9994 2.3326-6.9977 5.3316-10.663 2.999-3.6655 6.6645-1.6661 6.6645-3.9987s-2.999-3.9987-6.6645-5.3316-4.9984-1.9994-7.9974 0-2.999 3.6655-3.9987 7.9974c-0.99968 4.3319-1.6661 6.3313 0 9.3303s3.6655 4.6652 6.6645 2.6658z"/>
  </g>
  <g id="g21070" transform="matrix(.64896 0 0 .53857 -80.923 -229.28)">
   <rect id="rect18427" style="opacity:.41081;fill:url(#linearGradient31755)" transform="matrix(.77768 .62865 -.54106 .84098 0 0)" ry="1.6789" height="182.77" width="4.4239" y="427.09" x="700.44"/>
   <rect id="rect17544" style="opacity:.41081;fill:url(#linearGradient31757)" ry="3.416" height="371.88" width="9.3303" y="575.18" x="310.57"/>
   <rect id="rect18431" style="opacity:.41081;fill:url(#linearGradient31759)" transform="matrix(-.67338 .73930 .42810 .90373 0 0)" ry="1.5623" height="170.08" width="3.7618" y="831.94" x="64.454"/>
   <rect id="rect18435" style="opacity:.41081;fill:url(#linearGradient31761)" transform="matrix(-.92520 .37948 .22682 .97394 0 0)" rx="0" ry="1.3122" height="137.39" width="6.8586" y="871.09" x="-129.26"/>
   <rect id="rect18439" style="opacity:.41081;fill:url(#linearGradient31757)" ry="3.416" height="371.88" width="9.3303" y="575.18" x="310.57"/>
   <rect id="rect18441" style="fill:#d1d1cf" ry="1.8707" height="8.258" width="12.686" y="799.14" x="308.15"/>
   <rect id="rect20189" style="fill:#29342c" ry="5.4421" height="19.643" width="18.571" y="930.22" x="305.71"/>
   <rect id="rect21064" style="fill:#29342c" transform="matrix(.93801 -.34660 .3342 .94250 0 0)" ry="3.7795" height="13.642" width="10.478" y="1019.4" x="37.815"/>
   <rect id="rect21066" style="fill:#29342c" transform="matrix(.98869 -.14999 .13694 .99058 0 0)" ry="3.7795" height="13.642" width="10.478" y="964.56" x="207.66"/>
   <rect id="rect21068" style="fill:#29342c" transform="matrix(-.85635 -.51640 -.50507 .86308 0 0)" ry="3.7795" height="13.642" width="10.478" y="692.86" x="-675.23"/>
  </g>
  <g id="g28600" transform="matrix(.64896 0 0 .60706 307.19 -396.55)">
   <g id="g28526" transform="matrix(-1.1345 .33004 .19102 1.9157 -618.14 -766.41)">
    <g id="g28528" transform="matrix(.97999 -.19904 .19904 .97999 -113.05 -396.27)">
     <path id="path28530" style="stroke:#2a3039;stroke-width:.96126;fill:url(#radialGradient31897)" d="m-335.47 1268.8c-21.526 0.575-43.645 0.3271-64.467 6.065-3.9311 0.4662-7.1738 5.7847-2.5799 7.9081 12.305 5.3164 26.391 5.1113 39.634 6.4127 31.352 1.348 63.213 1.8705 94.126-3.7667 3.632-0.9188 11.342-2.1703 9.7733-7.4325-4.8278-5.3105-13.324-4.8242-19.941-6.3325-18.669-2.428-37.69-2.9088-56.545-2.8541z"/>
     <path id="path28532" style="fill:#fff" d="m-335.65 1233.3c-36.455 0.2826-65.703 3.9462-68.469 8.5h-0.21875v0.5625c-0.002 0.036 0 0.09 0 0.125s-0.002 0.089 0 0.125v37.75c0.50742-5.0179 33.147-9.0625 73.281-9.0625 36.436 0 66.7 3.3464 72.344 7.7187v-35.031c0.62101-0.4811 0.9375-0.997 0.9375-1.5v-0.031c-0.11198-5.0636-32.902-9.1563-73.281-9.1563h-4.5938zm-68.688 47.312v1.2188h0.78125c-0.46721-0.4-0.7393-0.8039-0.78125-1.2188z"/>
     <path id="path28534" style="stroke:#2a3039;fill:url(#linearGradient31899)" d="m-335.65 1233.3c-36.455 0.2826-65.703 3.9462-68.469 8.5h-0.21875v0.5625c-0.002 0.036 0 0.09 0 0.125s-0.002 0.089 0 0.125v37.75c0.50742-5.0179 33.147-9.0625 73.281-9.0625 36.436 0 66.7 3.3464 72.344 7.7187v-35.031c0.62101-0.4811 0.9375-0.997 0.9375-1.5v-0.031c-0.11198-5.0636-32.902-9.1563-73.281-9.1563h-4.5938zm-68.688 47.312v1.2188h0.78125c-0.46721-0.4-0.7393-0.8039-0.78125-1.2188z"/>
    </g>
    <path id="path28536" style="stroke:#f4f4f6;stroke-width:.6531;stroke-opacity:.6828;fill:#615d58" d="m-195.68 886.44c-38.389 8.9844-67.284 20.762-64.888 26.533 0.006 0.0153 0.009 0.0217 0.0153 0.0369 4.6647-6.3862 32.069-16.677 66.659-24.593 38.263-8.7567 71.44-11.483 75.729-6.2344l0.26202 0.48576c0.66639-0.91231 0.90419-1.746 0.59874-2.4817l-0.33245-0.51008c-4.2894-5.2485-37.467-2.5223-75.729 6.2344-0.77209 0.1767-1.5496 0.35068-2.3143 0.52963z"/>
    <path id="path28538" style="stroke:#f4f4f6;fill:url(#radialGradient31901)" transform="matrix(.60394 0 0 .66278 -52.255 300.11)" d="m-132.28 892.23c0 3.5247-2.7274 6.382-6.0919 6.382s-6.0919-2.8573-6.0919-6.382 2.7274-6.382 6.0919-6.382c3.3579 0 6.0826 2.8465 6.0919 6.3643"/>
    <path id="path28540" style="stroke:#f4f4f6;fill:url(#radialGradient31901)" transform="matrix(.60394 0 0 .66278 -128.26 314.04)" d="m-132.28 892.23c0 3.5247-2.7274 6.382-6.0919 6.382s-6.0919-2.8573-6.0919-6.382 2.7274-6.382 6.0919-6.382c3.3579 0 6.0826 2.8465 6.0919 6.3643"/>
    <path id="path28542" style="stroke:#f4f4f6;stroke-width:.6531;stroke-opacity:.6828;fill:#615d58" d="m-194.63 892.82c-38.389 8.9844-67.284 20.762-64.888 26.533 0.006 0.0153 0.009 0.0217 0.0153 0.0369 4.6647-6.3862 32.069-16.677 66.659-24.593 38.263-8.7567 71.44-11.483 75.729-6.2344l0.26202 0.48576c0.66639-0.91231 0.90419-1.746 0.59874-2.4817l-0.33245-0.51008c-4.2894-5.2485-37.467-2.5223-75.729 6.2344-0.77209 0.1767-1.5496 0.35068-2.3143 0.52963z"/>
   </g>
   <g id="g28504" transform="matrix(1 0 0 .54643 -547.36 626.38)">
    <rect id="rect28506" ry="1.6789" style="opacity:.41081;fill:url(#linearGradient31755)" transform="matrix(.77768 .62865 -.54106 .84098 0 0)" height="182.77" width="4.4239" y="427.09" x="700.44"/>
    <rect id="rect28508" style="opacity:.41081;fill:url(#linearGradient31757)" ry="3.416" height="371.88" width="9.3303" y="575.18" x="310.57"/>
    <rect id="rect28510" ry="1.5623" style="opacity:.41081;fill:url(#linearGradient31759)" transform="matrix(-.67338 .73930 .42810 .90373 0 0)" height="170.08" width="3.7618" y="831.94" x="64.454"/>
    <rect id="rect28512" ry="1.3122" style="opacity:.41081;fill:url(#linearGradient31761)" rx="0" transform="matrix(-.92520 .37948 .22682 .97394 0 0)" height="137.39" width="6.8586" y="871.09" x="-129.26"/>
    <rect id="rect28514" style="opacity:.41081;fill:url(#linearGradient31757)" ry="3.416" height="371.88" width="9.3303" y="575.18" x="310.57"/>
    <rect id="rect28516" style="fill:#d1d1cf" ry="1.8707" height="8.258" width="12.686" y="799.14" x="308.15"/>
    <rect id="rect28518" style="fill:#29342c" ry="5.4421" height="19.643" width="18.571" y="930.22" x="305.71"/>
    <rect id="rect28520" ry="3.7795" style="fill:#29342c" transform="matrix(.93801 -.34660 .3342 .94250 0 0)" height="13.642" width="10.478" y="1019.4" x="37.815"/>
    <rect id="rect28522" ry="3.7795" style="fill:#29342c" transform="matrix(.98869 -.14999 .13694 .99058 0 0)" height="13.642" width="10.478" y="964.56" x="207.66"/>
    <rect id="rect28524" ry="3.7795" style="fill:#29342c" transform="matrix(-.85635 -.51640 -.50507 .86308 0 0)" height="13.642" width="10.478" y="692.86" x="-675.23"/>
   </g>
  </g>
  <g id="g30525" transform="matrix(.30621 0 0 .33524 392.56 -167.22)">
   <path id="path29563" style="stroke:#f4f4f6;stroke-width:.6169;stroke-opacity:.6828;fill:url(#linearGradient31727)" d="m-704.58 1032.3 1.3438 83.985c-20.658 27.686-32.75 61.232-32.75 97.392 0 37.966 13.327 73.066 35.906 101.51 0 0-94.196 96.241-1.6384 94.275 92.453-1.9641 131.45-10.702 131.45-10.702 77.996-30.778 202.83-38.838 205.69-185.08v-0.481c-0.27575-91.962-78.712-166.92-177.03-171.1l-0.0937-1.563-162.88-8.2362z"/>
   <rect id="rect29633" style="stroke:#a7a29f;stroke-width:.24067;stroke-opacity:.6828;fill:url(#linearGradient31729)" transform="matrix(.99987 .016233 -.19413 .98098 0 0)" height="13.569" width="137.4" y="1078" x="-391.48"/>
   <path id="path29535" style="stroke:#a7a29f;stroke-width:.629;stroke-opacity:.6828;fill:#a39e9e" d="m-679.03 1033.5c-85.871-0.5878-169.25 60.794-189.6 144.87-17.316 66.457 5.9219 141.48 58.134 185.91 53.246 47.479 133.06 63.722 200.55 39.268 61.534-21.16 112.55-73.737 126.4-138.06 13.618-58.176-2.7936-122.56-43.547-166.15-38.005-42.267-94.833-67.294-151.94-65.844z"/>
   <rect id="rect29619" style="stroke:#a7a29f;stroke-width:.21365;stroke-opacity:.6828;fill:url(#linearGradient31731)" transform="matrix(.9968 -.079940 -.13051 .99145 0 0)" height="12.625" width="116.37" y="1175" x="-330.86"/>
   <rect id="rect29629" style="stroke:#a7a29f;stroke-width:.24067;stroke-opacity:.6828;fill:url(#linearGradient31733)" transform="matrix(.96943 -.24535 .068691 .99764 0 0)" height="13.569" width="137.4" y="1203.7" x="-652.99"/>
   <path id="path29523" style="stroke:#f4f4f6;stroke-width:.629;stroke-opacity:.6828;fill:#353138" d="m-675.03 1041.5c-77.758-0.2265-153.75 51.045-179.12 125.03-19.896 55.852-9.8906 121.47 26.544 168.17 38.676 51.182 104 80.399 168.08 75.612 66.905-4.1726 131.08-44.535 160.35-105.28 24.919-50.593 24.674-113.19-2.5116-162.85-30.047-56.712-90.346-95.563-154.42-100.04-6.2894-0.5167-12.603-0.7494-18.913-0.6445z"/>
   <path id="path28640" style="stroke:#f4f4f6;stroke-width:.629;stroke-opacity:.6828;fill:url(#radialGradient31735)" transform="translate(582.86 105.71)" d="m-1065.7 1122.4c0 98.622-83.147 178.57-185.71 178.57-102.57 0-185.71-79.949-185.71-178.57 0-98.622 83.147-178.57 185.71-178.57 102.37 0 185.43 79.648 185.71 178.08"/>
   <path id="path29578" d="m-779.9 1142c-14.189 5.4428-7.9594 21.331-5.0304 31.652 2.0373 18.264 0.88967 36.869-0.64216 55.214-1.1956 12.024-3.0704 23.997-5.7229 35.819 5.4649-5.597 15.605-9.2345 14.611-18.501 3.1757-23.974 4.4279-48.196 3.5713-72.321 10.55 15.132 24.448 31.332 21.319 51.074-2.0403 15.874-5.1151 32.634-15.877 45.44-8.1667 5.0693-19.196 11.18-28.659 6.4586-4.7822-3.3208-2.5522-15.604-11.194-8.4988-13.629 8.1475 1.9379 27.299 14.649 21.013 16.551-4.2664 30.511-15.493 39.258-29.692 12.484-19.213 18.513-44.006 10.642-65.698-9.7161-18.872-22.381-36.138-36.28-52.268l-0.4092 0.196-0.236 0.113zm203.65 13.582c-12.276 3.8064-17.1 16.949-26.759 23.999-4.1905-12.33-18.984-5.2641-24.467 2.2898-5.5975 6.0115-10.789 12.517-14.332 19.885 1.2901-16.92-16.363-0.067-13.373 8.5159 2.5112 5.7231-6.5815 22.876 4.7257 18.298 9.2584-8.1306 10.794-21.175 19.5-29.993 4.2127-3.7769 12.727-22.268 13.584-9.2326-1.4453 6.3106 2.2875 17.085 8.4867 7.509 9.3743-8.0803 14.009-20.14 23.799-27.728 6.2329 0.01 0.90561 14.342-1.4473 19.353-6.1144 12.89-16.718 25.294-15.052 40.247 10.531 5.9693 13.966-12.456 14.623-20.073 4.8559-16.684 18.818-31.633 16.415-49.751-0.6373-2.3062-3.2001-4.2065-5.7038-3.3195zm-137.92 42.315c-17.473 15.464-28.161 39.185-24.428 62.056 9.5361 5.3549 14.624-11.56 18.367-18.31 4.8845-7.102 4.3099-21.425-3.7705-17.848 0.60848-9.3919 8.3871-21.368 18.987-14.528 7.4259 2.5766 24.05-15.222 9.2616-11.777-6.0541 1.3612-15.267 3.6168-18.417 0.4081zm54.882-8.6324c-14.142 9.1372-11.779 27.986-20.22 40.656-12.048 8.1577-10.745-14.536-7.8976-20.957 4.858-12.209-13.066 1.7189-12.612 7.4459-3.4475 8.619-3.8557 21.036 5.3054 26.379 9.5101 6.9975 17.605-16.574 20.358-2.9277 6.215 10.517 21.348-5.3994 20.456-8.3392-12.25 2.3689-11.387-12.073-7.9202-19.318 0.63083-6.2914 10.024-19.816 2.531-22.939z"/>
   <path id="path29591" d="m-565.44 1242c-6.9584 3.1852-17.888 5.6671-19.108 13.684 0.0393 8.5134-10.631 12.463-18.777 13.054-47.907 9.4594-97.168 14.041-144.48 25.71-14.622 4.4483-30.077 10.505-39.192 21.884-2.4257 7.8338 2.8475 17.399 11.649 19.797 7.4405-1.5941 16.267-6.5128 15.895-14.112-2.6867-4.207-6.5884-10.864-0.83205-14.54 10.264-5.488 23.092-3.3744 34.104-7.0183 37.775-8.0514 76.502-12.665 114.23-20.788 13.539-3.4211 27.712-6.6932 39.118-14.198 7.1291-5.7614 12.315-15.39 7.8529-23.675l-0.45906 0.2012z"/>
  </g>
  <g id="g28420" transform="matrix(.64896 0 0 .60706 395.16 -372.72)">
   <g id="g25750" transform="matrix(.97999 -.19904 .19904 .97999 -113.05 -396.27)">
    <path id="path25715" style="stroke:#2a3039;stroke-width:.96126;fill:url(#radialGradient31897)" d="m-335.47 1268.8c-21.526 0.575-43.645 0.3271-64.467 6.065-3.9311 0.4662-7.1738 5.7847-2.5799 7.9081 12.305 5.3164 26.391 5.1113 39.634 6.4127 31.352 1.348 63.213 1.8705 94.126-3.7667 3.632-0.9188 11.342-2.1703 9.7733-7.4325-4.8278-5.3105-13.324-4.8242-19.941-6.3325-18.669-2.428-37.69-2.9088-56.545-2.8541z"/>
    <path id="path25734" style="fill:#fff" d="m-335.65 1233.3c-36.455 0.2826-65.703 3.9462-68.469 8.5h-0.21875v0.5625c-0.002 0.036 0 0.09 0 0.125s-0.002 0.089 0 0.125v37.75c0.50742-5.0179 33.147-9.0625 73.281-9.0625 36.436 0 66.7 3.3464 72.344 7.7187v-35.031c0.62101-0.4811 0.9375-0.997 0.9375-1.5v-0.031c-0.11198-5.0636-32.902-9.1563-73.281-9.1563h-4.5938zm-68.688 47.312v1.2188h0.78125c-0.46721-0.4-0.7393-0.8039-0.78125-1.2188z"/>
    <path id="path25704" style="stroke:#2a3039;fill:url(#linearGradient31899)" d="m-335.65 1233.3c-36.455 0.2826-65.703 3.9462-68.469 8.5h-0.21875v0.5625c-0.002 0.036 0 0.09 0 0.125s-0.002 0.089 0 0.125v37.75c0.50742-5.0179 33.147-9.0625 73.281-9.0625 36.436 0 66.7 3.3464 72.344 7.7187v-35.031c0.62101-0.4811 0.9375-0.997 0.9375-1.5v-0.031c-0.11198-5.0636-32.902-9.1563-73.281-9.1563h-4.5938zm-68.688 47.312v1.2188h0.78125c-0.46721-0.4-0.7393-0.8039-0.78125-1.2188z"/>
   </g>
   <path id="path27540" style="stroke:#f4f4f6;stroke-width:.6531;stroke-opacity:.6828;fill:#615d58" d="m-195.68 886.44c-38.389 8.9844-67.284 20.762-64.888 26.533 0.006 0.0153 0.009 0.0217 0.0153 0.0369 4.6647-6.3862 32.069-16.677 66.659-24.593 38.263-8.7567 71.44-11.483 75.729-6.2344l0.26202 0.48576c0.66639-0.91231 0.90419-1.746 0.59874-2.4817l-0.33245-0.51008c-4.2894-5.2485-37.467-2.5223-75.729 6.2344-0.77209 0.1767-1.5496 0.35068-2.3143 0.52963z"/>
   <path id="path25759" style="stroke:#f4f4f6;fill:url(#radialGradient31901)" transform="matrix(.60394 0 0 .66278 -52.255 300.11)" d="m-132.28 892.23c0 3.5247-2.7274 6.382-6.0919 6.382s-6.0919-2.8573-6.0919-6.382 2.7274-6.382 6.0919-6.382c3.3579 0 6.0826 2.8465 6.0919 6.3643"/>
   <path id="path26642" style="stroke:#f4f4f6;fill:url(#radialGradient31901)" transform="matrix(.60394 0 0 .66278 -128.26 314.04)" d="m-132.28 892.23c0 3.5247-2.7274 6.382-6.0919 6.382s-6.0919-2.8573-6.0919-6.382 2.7274-6.382 6.0919-6.382c3.3579 0 6.0826 2.8465 6.0919 6.3643"/>
   <path id="path28418" style="stroke:#f4f4f6;stroke-width:.6531;stroke-opacity:.6828;fill:#615d58" d="m-194.63 892.82c-38.389 8.9844-67.284 20.762-64.888 26.533 0.006 0.0153 0.009 0.0217 0.0153 0.0369 4.6647-6.3862 32.069-16.677 66.659-24.593 38.263-8.7567 71.44-11.483 75.729-6.2344l0.26202 0.48576c0.66639-0.91231 0.90419-1.746 0.59874-2.4817l-0.33245-0.51008c-4.2894-5.2485-37.467-2.5223-75.729 6.2344-0.77209 0.1767-1.5496 0.35068-2.3143 0.52963z"/>
  </g>
  <g id="g24744" transform="matrix(.64896 0 0 .33172 79.931 -6.8263)">
   <rect id="rect24746" style="opacity:.41081;fill:url(#linearGradient31755)" transform="matrix(.77768 .62865 -.54106 .84098 0 0)" ry="1.6789" height="182.77" width="4.4239" y="427.09" x="700.44"/>
   <rect id="rect24748" style="opacity:.41081;fill:url(#linearGradient31757)" ry="3.416" height="371.88" width="9.3303" y="575.18" x="310.57"/>
   <rect id="rect24750" style="opacity:.41081;fill:url(#linearGradient31759)" transform="matrix(-.67338 .73930 .42810 .90373 0 0)" ry="1.5623" height="170.08" width="3.7618" y="831.94" x="64.454"/>
   <rect id="rect24752" style="opacity:.41081;fill:url(#linearGradient31761)" transform="matrix(-.92520 .37948 .22682 .97394 0 0)" rx="0" ry="1.3122" height="137.39" width="6.8586" y="871.09" x="-129.26"/>
   <rect id="rect24754" style="opacity:.41081;fill:url(#linearGradient31757)" ry="3.416" height="371.88" width="9.3303" y="575.18" x="310.57"/>
   <rect id="rect24756" style="fill:#d1d1cf" ry="1.8707" height="8.258" width="12.686" y="799.14" x="308.15"/>
   <rect id="rect24758" style="fill:#29342c" ry="5.4421" height="19.643" width="18.571" y="930.22" x="305.71"/>
   <rect id="rect24760" style="fill:#29342c" transform="matrix(.93801 -.34660 .3342 .94250 0 0)" ry="3.7795" height="13.642" width="10.478" y="1019.4" x="37.815"/>
   <rect id="rect24762" style="fill:#29342c" transform="matrix(.98869 -.14999 .13694 .99058 0 0)" ry="3.7795" height="13.642" width="10.478" y="964.56" x="207.66"/>
   <rect id="rect24764" style="fill:#29342c" transform="matrix(-.85635 -.51640 -.50507 .86308 0 0)" ry="3.7795" height="13.642" width="10.478" y="692.86" x="-675.23"/>
  </g>
  <g id="g24776" transform="matrix(-.51947 0 0 .49760 930.37 -319.88)">
   <g id="g21082" transform="translate(833.76 293.14)">
    <rect id="rect21084" ry="1.6789" style="opacity:.41081;fill:url(#linearGradient31755)" transform="matrix(.77768 .62865 -.54106 .84098 0 0)" height="182.77" width="4.4239" y="427.09" x="700.44"/>
    <rect id="rect21086" style="opacity:.41081;fill:url(#linearGradient31757)" ry="3.416" height="371.88" width="9.3303" y="575.18" x="310.57"/>
    <rect id="rect21088" ry="1.5623" style="opacity:.41081;fill:url(#linearGradient31759)" transform="matrix(-.67338 .73930 .42810 .90373 0 0)" height="170.08" width="3.7618" y="831.94" x="64.454"/>
    <rect id="rect21090" ry="1.3122" style="opacity:.41081;fill:url(#linearGradient31761)" rx="0" transform="matrix(-.92520 .37948 .22682 .97394 0 0)" height="137.39" width="6.8586" y="871.09" x="-129.26"/>
    <rect id="rect21092" style="opacity:.41081;fill:url(#linearGradient31757)" ry="3.416" height="371.88" width="9.3303" y="575.18" x="310.57"/>
    <rect id="rect21094" style="fill:#d1d1cf" ry="1.8707" height="8.258" width="12.686" y="799.14" x="308.15"/>
    <rect id="rect21096" style="fill:#29342c" ry="5.4421" height="19.643" width="18.571" y="930.22" x="305.71"/>
    <rect id="rect21098" ry="3.7795" style="fill:#29342c" transform="matrix(.93801 -.34660 .3342 .94250 0 0)" height="13.642" width="10.478" y="1019.4" x="37.815"/>
    <rect id="rect21100" ry="3.7795" style="fill:#29342c" transform="matrix(.98869 -.14999 .13694 .99058 0 0)" height="13.642" width="10.478" y="964.56" x="207.66"/>
    <rect id="rect21102" ry="3.7795" style="fill:#29342c" transform="matrix(-.85635 -.51640 -.50507 .86308 0 0)" height="13.642" width="10.478" y="692.86" x="-675.23"/>
   </g>
   <g id="g24731" transform="matrix(.66655 0 0 .741 779.85 464.11)">
    <path id="path21134" style="fill:#b2904d;fill-rule:evenodd" d="m382.98 608.46s35.437-6.3224 65.962-8.4299 34.736 4.215 56.138 0c21.403-4.2149 12.982-12.645 29.473-16.86s20.35-3.9515 36.49 0 8.7716 11.591 28.069 15.806c19.298 4.215 21.754-1.0538 49.121 1.0537s60.349 7.3762 60.349 7.3762l-325.6 1.0537z"/>
    <path id="path22011" style="fill:url(#linearGradient31765);fill-rule:evenodd" d="m550.43 583.06c-10.885 0.29969-21.522 4.6609-26.124 12.216-8.0498 4.546-7.784 5.1834 3.2654 4.478 20.828-0.10196 42.308-0.0897 62.732-0.26266-11.301-2.8355-13.601-13.717-25.78-14.969-4.6044-0.91031-9.3435-1.8086-14.093-1.4625z"/>
    <rect id="rect22900" style="fill:#4d4e47" ry="3.9125" height="19.02" width="40.7" y="564.71" x="531.75"/>
    <path id="path23791" style="fill:#b4904a;fill-rule:evenodd" d="m382.98 614.41s35.437 6.3224 65.962 8.4299 34.736-4.215 56.138 0c21.403 4.2149 12.982 12.645 29.473 16.86s20.35 3.9515 36.49 0 8.7716-11.591 28.069-15.806c19.298-4.215 21.754 1.0538 49.121-1.0537s60.349-7.3762 60.349-7.3762l-325.6-1.0537z"/>
    <path id="path23793" style="fill:url(#linearGradient31767);fill-rule:evenodd" d="m550.43 639.81c-10.885-0.29969-21.522-4.6609-26.124-12.216-8.0498-4.546-7.784-5.1834 3.2654-4.478 20.828 0.10196 42.308 0.0897 62.732 0.26266-11.301 2.8355-13.601 13.717-25.78 14.969-4.6044 0.91031-9.3435 1.8086-14.093 1.4625z"/>
    <rect id="rect23795" ry="3.9125" style="fill:#4d4e47" transform="scale(1,-1)" height="19.02" width="40.7" y="-658.15" x="531.75"/>
    <rect id="rect23799" style="fill:#4d4e47" ry="3.9125" height="28.53" width="18.245" y="646.5" x="542.43"/>
   </g>
  </g>
 </g>
 <rect id="rect3171" style="opacity:.1;stroke-width:.5;filter:url(#filter3794-7-5);stroke:#fff;stroke-linecap:round;enable-background:new;fill:url(#linearGradient3028)" clip-path="url(#clipPath3613-5)" rx="12" ry="12" height="66" width="66" y="15" x="15"/>
</svg>
