<?xml version="1.0" encoding="UTF-8" standalone="no"?>
<!-- Created with Inkscape (http://www.inkscape.org/) -->

<svg
   xmlns:dc="http://purl.org/dc/elements/1.1/"
   xmlns:cc="http://creativecommons.org/ns#"
   xmlns:rdf="http://www.w3.org/1999/02/22-rdf-syntax-ns#"
   xmlns:svg="http://www.w3.org/2000/svg"
   xmlns="http://www.w3.org/2000/svg"
   xmlns:xlink="http://www.w3.org/1999/xlink"
   xmlns:sodipodi="http://sodipodi.sourceforge.net/DTD/sodipodi-0.dtd"
   xmlns:inkscape="http://www.inkscape.org/namespaces/inkscape"
   width="96"
   height="96"
   id="svg2982"
   version="1.1"
   inkscape:version="0.48.1 r9760"
   sodipodi:docname="templat-ikon-96x96.svg">
  <defs
     id="defs2984">
    <linearGradient
       x1="32.251034"
       y1="6.1317081"
       x2="32.251034"
       y2="90.238609"
       id="linearGradient3721-3"
       xlink:href="#ButtonShadow-0-83"
       gradientUnits="userSpaceOnUse"
       gradientTransform="translate(0,-97)" />
    <linearGradient
       x1="45.447727"
       y1="92.539597"
       x2="45.447727"
       y2="7.0165396"
       id="ButtonShadow-0-83"
       gradientUnits="userSpaceOnUse"
       gradientTransform="matrix(1.0058652,0,0,0.994169,100,0)">
      <stop
         id="stop3750-8-79"
         style="stop-color:#000000;stop-opacity:1"
         offset="0" />
      <stop
         id="stop3752-5-37"
         style="stop-color:#000000;stop-opacity:0.58823532"
         offset="1" />
    </linearGradient>
    <linearGradient
       x1="32"
       y1="88"
       x2="32"
       y2="-8"
       id="linearGradient3617-8"
       xlink:href="#linearGradient4327"
       gradientUnits="userSpaceOnUse"
       gradientTransform="translate(0,-96)" />
    <linearGradient
       id="linearGradient4327">
      <stop
         id="stop4329"
         style="stop-color:#f0f0f0;stop-opacity:1"
         offset="0" />
      <stop
         id="stop4331-7"
         style="stop-color:#b4b4b4;stop-opacity:1"
         offset="1" />
    </linearGradient>
    <clipPath
       id="clipPath3919-4">
      <rect
         width="84"
         height="76"
         rx="6.0999999"
         ry="6.0999999"
         x="6"
         y="-82"
         transform="scale(1,-1)"
         id="rect3921-3"
         style="fill:#ff00ff;fill-opacity:1;fill-rule:nonzero;stroke:none" />
    </clipPath>
    <filter
       x="-0.21600001"
       y="-0.27000001"
       width="1.432"
       height="1.54"
       color-interpolation-filters="sRGB"
       id="filter3927-5">
      <feGaussianBlur
         id="feGaussianBlur3929-0"
         stdDeviation="7.2000001" />
    </filter>
    <linearGradient
       inkscape:collect="always"
       xlink:href="#linearGradient4384"
       id="linearGradient6653"
       gradientUnits="userSpaceOnUse"
       gradientTransform="matrix(1,0,0,-1,0,92)"
       x1="48"
       y1="88"
       x2="48"
       y2="-40" />
    <linearGradient
       id="linearGradient4384">
      <stop
         id="stop4386"
         style="stop-color:#ffffff;stop-opacity:1"
         offset="0" />
      <stop
         id="stop4388"
         style="stop-color:#ffffff;stop-opacity:0"
         offset="1" />
    </linearGradient>
    <linearGradient
       x1="90"
       y1="88"
       x2="48"
       y2="88"
       id="linearGradient3140-4"
       xlink:href="#linearGradient3892-6"
       gradientUnits="userSpaceOnUse"
       spreadMethod="reflect" />
    <linearGradient
       id="linearGradient3892-6">
      <stop
         id="stop3894-4"
         style="stop-color:#000000;stop-opacity:0.58823532"
         offset="0" />
      <stop
         id="stop3896-3"
         style="stop-color:#000000;stop-opacity:0.47058824"
         offset="0.11780351" />
      <stop
         id="stop3898-3"
         style="stop-color:#000000;stop-opacity:0.39215687"
         offset="0.23809524" />
      <stop
         id="stop3900-6"
         style="stop-color:#000000;stop-opacity:0.3137255"
         offset="1" />
    </linearGradient>
    <filter
       x="-0.11444673"
       y="-1.4149175"
       width="1.2288935"
       height="3.8298349"
       color-interpolation-filters="sRGB"
       id="filter4180">
      <feGaussianBlur
         id="feGaussianBlur4182"
         stdDeviation="3.5372897" />
    </filter>
    <radialGradient
       inkscape:collect="always"
       xlink:href="#linearGradient3313-1"
       id="radialGradient6655"
       gradientUnits="userSpaceOnUse"
       gradientTransform="matrix(1.0666667,0,0,0.04999999,-3.2000002,81.300245)"
       cx="48"
       cy="84"
       fx="48"
       fy="84"
       r="30" />
    <linearGradient
       id="linearGradient3313-1">
      <stop
         id="stop3315-9"
         style="stop-color:#4dbeff;stop-opacity:1"
         offset="0" />
      <stop
         id="stop4186"
         style="stop-color:#1379ff;stop-opacity:0.65040648"
         offset="0.67213112" />
      <stop
         id="stop3317-0"
         style="stop-color:#0066ff;stop-opacity:0"
         offset="1" />
    </linearGradient>
    <linearGradient
       x1="48"
       y1="20.220806"
       x2="48"
       y2="138.66119"
       id="linearGradient3613-98"
       xlink:href="#linearGradient3737-85"
       gradientUnits="userSpaceOnUse" />
    <linearGradient
       id="linearGradient3737-85">
      <stop
         id="stop3739-84"
         style="stop-color:#ffffff;stop-opacity:1"
         offset="0" />
      <stop
         id="stop3741-37"
         style="stop-color:#ffffff;stop-opacity:0"
         offset="1" />
    </linearGradient>
    <clipPath
       id="clipPath4355-1">
      <rect
         width="84"
         height="80"
         rx="6"
         ry="6"
         x="6"
         y="6"
         id="rect4357-3"
         style="fill:#ffffff;fill-opacity:1;fill-rule:nonzero;stroke:none" />
    </clipPath>
    <filter
       x="-0.192"
       y="-0.192"
       width="1.3839999"
       height="1.3839999"
       color-interpolation-filters="sRGB"
       id="filter3794-80">
      <feGaussianBlur
         id="feGaussianBlur3796-97"
         stdDeviation="5.28" />
    </filter>
    <linearGradient
       x1="105.55817"
       y1="62.97105"
       x2="24.668499"
       y2="62.97105"
       id="linearGradient3816"
       xlink:href="#linearGradient3767-80"
       gradientUnits="userSpaceOnUse"
       gradientTransform="matrix(0,0.6766374,-0.847943,0,101.39586,-4.6916286)" />
    <linearGradient
       id="linearGradient3767-80">
      <stop
         id="stop3769-3"
         style="stop-color:#4d4d4d;stop-opacity:0.70731705"
         offset="0" />
      <stop
         id="stop3771-7"
         style="stop-color:#4d4d4d;stop-opacity:0.25203252"
         offset="1" />
    </linearGradient>
    <clipPath
       id="clipPath3520">
      <path
         d="m 9.9375,33.6875 c -3.2232728,0 -5.84375,1.784 -5.84375,4 l 0,67.71875 c 0,2.216 2.6204767,4 5.84375,4 l 77.625,0 c 3.223273,0 5.843753,-1.784 5.84375,-4 l 0,-67.71875 c 0,-2.216 -2.62048,-4 -5.84375,-4 l -77.625,0 z M 47.90625,42 c 3.431866,0 6.21875,2.198129 6.21875,4.9375 0,2.181733 -1.764187,4.054067 -4.21875,4.71875 l 0,3.5625 c 0.01488,0.497551 0.298693,1.06729 0.6875,1.46875 0.09978,0.07533 8.192442,6.200116 8.21875,6.21875 0.0084,0.0065 0.02327,-0.0068 0.03125,0 0.02396,0.01835 0.04599,0.04881 0.0625,0.0625 0.0042,0.0036 0.02447,-0.006 0.03125,0 0.0068,0.006 0.03104,0.06226 0.03125,0.0625 2.6e-5,2.9e-5 0.06248,0.06248 0.0625,0.0625 0,0 10e-7,0.03125 0,0.03125 0.01173,0.01044 0.01956,0.02072 0.03125,0.03125 1.096118,0.988597 2.000001,2.355113 2,3.8125 l 0,4.09375 C 62.785851,71.690189 64,73.086119 64,74.71875 c 0,2.220106 -2.20417,4.031251 -4.9375,4.03125 -2.733338,0 -4.96875,-1.811144 -4.96875,-4.03125 0,-1.655395 1.236126,-3.071778 3,-3.6875 -2.35e-4,-1.047382 -10e-7,-2.379418 0,-4.09375 -0.01444,-0.497879 -0.297358,-1.034548 -0.6875,-1.4375 l -6.5,-4.9375 0,28.125 4.46875,0 L 48,98 l -6.375,-9.3125 4.3125,0 0,-21.96875 -6.53125,4.9375 c -0.394904,0.406057 -0.673191,0.908993 -0.6875,1.40625 0,2.101393 0,2.980142 0,3.8125 l 2.8125,0 0,7.90625 -9.53125,0 0,-7.90625 2.78125,0 0,-3.75 c 0,-1.44207 0.88924,-2.794493 1.96875,-3.78125 0,0 0.0213,-0.01152 0.03125,-0.03125 0.0043,-0.0039 -0.0044,-0.02734 0,-0.03125 0,0 0.03125,-0.03125 0.03125,-0.03125 1.5e-5,-2.1e-5 0.03122,-0.03122 0.03125,-0.03125 2.03e-4,-2.43e-4 0.05499,-0.08694 0.0625,-0.09375 0.0047,-0.004 -0.0046,-0.02742 0,-0.03125 0.01531,-0.01278 0.07133,-0.01367 0.09375,-0.03125 0.0079,-0.01061 0.02312,-0.02513 0.03125,-0.03125 0.01626,-0.01224 0.03151,-0.0079 0.0625,-0.03125 0.06197,-0.04673 0.166883,-0.13246 0.28125,-0.21875 0.228732,-0.172571 0.516577,-0.424672 0.90625,-0.71875 0.779348,-0.588157 1.839188,-1.343188 2.875,-2.125 2.046308,-1.544518 4.044131,-3.087545 4.09375,-3.125 0.392715,-0.403164 0.671626,-0.909306 0.6875,-1.40625 l 0,-6.15625 c -0.003,-0.04389 -4.59e-4,-0.02213 0,-0.03125 4.59e-4,-0.0091 -10e-7,-0.03827 0,-0.03125 l 0,-3.53125 C 43.481518,50.991635 41.687502,49.119667 41.6875,46.9375 41.6875,44.198126 44.473344,42 47.90625,42 z"
         inkscape:connector-curvature="0"
         id="path3522"
         style="fill:#ffffff;fill-opacity:1;fill-rule:nonzero;stroke:none" />
    </clipPath>
    <filter
       x="-0.24171428"
       y="-0.14338984"
       width="1.4834286"
       height="1.2867796"
       color-interpolation-filters="sRGB"
       id="filter3536">
      <feGaussianBlur
         id="feGaussianBlur3538"
         stdDeviation="3.525" />
    </filter>
  </defs>
  <sodipodi:namedview
     id="base"
     pagecolor="#ffffff"
     bordercolor="#666666"
     borderopacity="1.0"
     inkscape:pageopacity="0.0"
     inkscape:pageshadow="2"
     inkscape:zoom="3.959798"
     inkscape:cx="36.39115"
     inkscape:cy="42.877139"
     inkscape:document-units="px"
     inkscape:current-layer="layer1"
     showgrid="false"
     inkscape:window-width="1280"
     inkscape:window-height="725"
     inkscape:window-x="0"
     inkscape:window-y="25"
     inkscape:window-maximized="1" />
  <metadata
     id="metadata2987">
    <rdf:RDF>
      <cc:Work
         rdf:about="">
        <dc:format>image/svg+xml</dc:format>
        <dc:type
           rdf:resource="http://purl.org/dc/dcmitype/StillImage" />
        <dc:title></dc:title>
      </cc:Work>
    </rdf:RDF>
  </metadata>
  <g
     inkscape:label="Layer 1"
     inkscape:groupmode="layer"
     id="layer1"
     transform="translate(0,-956.36218)">
    <g
       transform="translate(3.7194823e-8,956.36218)"
       id="g7314">
      <g
         id="layer3"
         style="display:inline">
        <rect
           width="84"
           height="84"
           rx="6"
           ry="6"
           x="6"
           y="-91"
           transform="scale(1,-1)"
           id="rect3716"
           style="opacity:0.45;fill:url(#linearGradient3721-3);fill-opacity:1;fill-rule:nonzero;stroke:none;display:inline" />
      </g>
      <g
         id="layer1-9"
         style="display:inline">
        <rect
           width="84"
           height="84"
           rx="6.0999999"
           ry="6.0999999"
           x="6"
           y="-90"
           transform="scale(1,-1)"
           id="rect2419"
           style="fill:url(#linearGradient3617-8);fill-opacity:1;fill-rule:nonzero;stroke:none" />
      </g>
      <g
         id="layer7"
         style="display:inline">
        <g
           clip-path="url(#clipPath3919-4)"
           id="g3915"
           style="opacity:0.2;display:inline;filter:url(#filter3927-5)">
          <path
             d="m 48,36 a 16,20 0 1 1 -32,0 16,20 0 1 1 32,0 z"
             transform="matrix(1.25,0,0,1,-12,0)"
             id="path3911"
             style="opacity:0.35655739;color:#000000;fill:#000000;fill-opacity:1;fill-rule:nonzero;stroke:none;stroke-width:1.5;marker:none;visibility:visible;display:inline;overflow:visible;enable-background:accumulate"
             inkscape:connector-curvature="0" />
          <path
             d="m 80,52 a 24,28 0 1 1 -48,0 24,28 0 1 1 48,0 z"
             transform="matrix(1.1666667,0,0,1,-5.3333333,0)"
             id="path3913"
             style="opacity:0.2;color:#000000;fill:#000000;fill-opacity:1;fill-rule:nonzero;stroke:none;stroke-width:1.5;marker:none;visibility:visible;display:inline;overflow:visible;enable-background:accumulate"
             inkscape:connector-curvature="0" />
        </g>
      </g>
      <g
         id="layer8">
        <path
           d="m 6,73.90625 0,2 C 6,79.28565 8.7143501,82 12.09375,82 l 71.8125,0 C 87.28565,82 90,79.28565 90,75.90625 l 0,-2 C 90,77.28565 87.28565,80 83.90625,80 l -71.8125,0 C 8.7143501,80 6,77.28565 6,73.90625 z"
           inkscape:connector-curvature="0"
           id="rect4028"
           style="opacity:0.15;fill:#ffffff;fill-opacity:1;fill-rule:nonzero;stroke:none;display:inline" />
        <path
           d="M 12,82 C 8.676,82 6,79.324 6,76 L 6,12 C 6,8.676 8.676,6 12,6 l 72,0 c 3.324,0 6,2.676 6,6 l 0,64 c 0,3.324 -2.676,6 -6,6 z m 0,-0.96875 72,0 c 2.80489,0 5.03125,-2.22636 5.03125,-5.03125 l 0,-64 C 89.03125,9.19511 86.80489,6.96875 84,6.96875 l -72,0 C 9.1951102,6.96875 6.96875,9.19511 6.96875,12 l 0,64 c 0,2.80489 2.2263602,5.03125 5.03125,5.03125 z"
           inkscape:connector-curvature="0"
           id="rect4377"
           style="opacity:0.8;fill:url(#linearGradient6653);fill-opacity:1;fill-rule:nonzero;stroke:none;display:inline" />
      </g>
      <g
         id="layer4"
         style="display:inline">
        <g
           id="g6998">
          <path
             style="opacity:0.5;fill:url(#linearGradient3140-4);fill-opacity:1;fill-rule:nonzero;stroke:none;display:inline"
             id="path3888"
             inkscape:connector-curvature="0"
             d="m 6,76 0,8 c 0,3.324 2.676,6 6,6 l 72,0 c 3.324,0 6,-2.676 6,-6 l 0,-8 c 0,3.324 -2.676,6 -6,6 L 12,82 C 8.676,82 6,79.324 6,76 z" />
          <path
             style="opacity:0.8;fill:#000000;fill-opacity:1;fill-rule:nonzero;stroke:none;display:inline"
             id="path4010"
             inkscape:connector-curvature="0"
             d="m 6,78 0,4 c 0,3.324 2.676,6 6,6 l 72,0 c 3.324,0 6,-2.676 6,-6 l 0,-4 c 0,3.324 -2.676,6 -6,6 L 12,84 C 8.676,84 6,81.324 6,78 z" />
          <path
             style="opacity:0.4;fill:#ffffff;fill-opacity:1;fill-rule:nonzero;stroke:none;display:inline"
             id="path4054"
             inkscape:connector-curvature="0"
             d="m 6,82 0,1 c 0,3.324 2.676,6 6,6 l 72,0 c 3.324,0 6,-2.676 6,-6 l 0,-1 c 0,3.324 -2.676,6 -6,6 L 12,88 C 8.676,88 6,85.324 6,82 z" />
          <path
             style="opacity:0.2;fill:#000000;fill-opacity:1;fill-rule:nonzero;stroke:none;display:inline"
             id="path4059"
             inkscape:connector-curvature="0"
             d="m 6,77 0,1 c 0,3.324 2.676,6 6,6 l 72,0 c 3.324,0 6,-2.676 6,-6 l 0,-1 c 0,3.324 -2.676,6 -6,6 L 12,83 C 8.676,83 6,80.324 6,77 z" />
          <rect
             style="opacity:0.6;fill:#0066ff;fill-opacity:1;fill-rule:nonzero;stroke:none;display:inline;filter:url(#filter4180)"
             id="rect3323"
             transform="matrix(1,0,0,0.50000072,0,44.000184)"
             y="80.000008"
             x="10.910714"
             ry="5.9999933"
             rx="6.7435069"
             height="5.9999933"
             width="74.178574" />
          <rect
             style="fill:url(#radialGradient6655);fill-opacity:1;fill-rule:nonzero;stroke:none;display:inline"
             id="rect3311"
             y="84.000244"
             x="16"
             ry="3"
             rx="5.818182"
             height="3"
             width="64" />
        </g>
      </g>
      <rect
         width="66"
         height="62"
         rx="12"
         ry="12"
         x="15"
         y="15"
         clip-path="url(#clipPath4355-1)"
         id="rect3171"
         style="opacity:0.2;fill:url(#linearGradient3613-98);fill-opacity:1;fill-rule:nonzero;stroke:#ffffff;stroke-width:0.5;stroke-linecap:round;stroke-linejoin:miter;stroke-miterlimit:4;stroke-opacity:1;stroke-dasharray:none;stroke-dashoffset:0;display:inline;filter:url(#filter3794-80)" />
      <g
         id="layer4-0">
        <path
           style="fill:url(#linearGradient3816);fill-opacity:1;stroke:none;display:inline"
           id="path1334"
           inkscape:connector-curvature="0"
           d="m 64,44.713066 c 0,-1.632631 -1.214678,-3.031399 -2.938029,-3.659088 l 0,-4.076707 c 0,-1.457386 -0.911529,-2.829584 -2.007647,-3.818181 -0.01169,-0.01054 -0.01276,-0.02933 -0.02449,-0.03977 0,0 0,-0.01989 0,-0.01989 -1.7e-5,-2.1e-5 -0.04894,-0.05963 -0.04897,-0.05966 -2.1e-4,-2.41e-4 -0.04218,-0.05362 -0.04897,-0.05966 -0.0068,-0.006 -0.0203,0.0036 -0.02448,0 -0.0042,-0.0036 0.0041,-0.01646 0,-0.01988 -0.01651,-0.01369 -0.04949,-0.02143 -0.07345,-0.03977 -0.008,-0.0068 -0.01614,-0.01341 -0.02449,-0.01989 -0.02631,-0.01864 -8.126685,-6.149101 -8.226466,-6.224432 -0.388808,-0.40146 -0.670662,-0.954154 -0.685543,-1.451705 l 0,-3.559659 c 2.454562,-0.664683 4.235656,-2.531335 4.235656,-4.713068 C 54.133129,14.212331 51.346174,12 47.914308,12 c -3.432907,0 -6.218825,2.21233 -6.218825,4.951704 3e-6,2.182165 1.779675,4.048453 4.235657,4.713068 l 0,3.519886 c 0,-0.007 4.59e-4,0.03066 0,0.03977 -4.58e-4,0.0091 -0.003,-0.0041 0,0.03977 l 0,6.144886 c -0.01587,0.496942 -0.292826,1.008768 -0.685541,1.411932 -0.04962,0.03746 -2.042443,1.557754 -4.088751,3.102272 -1.035811,0.781812 -2.085229,1.559571 -2.864577,2.147728 -0.389673,0.294078 -0.701642,0.543337 -0.930374,0.715908 -0.114367,0.08629 -0.20735,0.152136 -0.26932,0.198864 -0.03098,0.02336 -0.05719,0.02753 -0.07345,0.03977 -0.0081,0.0061 -0.0166,0.02917 -0.02448,0.03977 -0.02242,0.01758 -0.05814,0.027 -0.07345,0.03977 -0.0046,0.0038 0.0047,0.01588 0,0.01989 -0.0047,0.004 -0.01698,-0.0068 -0.02448,0 -0.0075,0.0068 -0.04876,0.0793 -0.04897,0.07955 -2.7e-5,3.1e-5 -0.04895,0.03975 -0.04897,0.03977 0,0 0,0.01989 0,0.01989 0,0 -0.02448,0.01989 -0.02448,0.01989 -0.0044,0.0039 0.0043,0.01597 0,0.01989 -0.0099,0.01973 -0.02448,0.03977 -0.02448,0.03977 -1.07951,0.986759 -1.983169,2.336337 -1.983169,3.778407 l 0,3.738637 -2.76664,0 0,7.93466 9.517343,0 0,-7.93466 -2.784368,0 c 0,-0.832356 0,-1.696898 0,-3.798291 0.01431,-0.497258 0.290637,-1.005878 0.685541,-1.411935 l 6.512624,-4.931818 0,21.97443 -4.295589,0 L 48.000303,68 l 6.366392,-9.306822 -4.469222,0 0,-28.119315 6.512624,4.911931 c 0.39014,0.402952 0.671099,0.953826 0.68554,1.451705 0,1.714333 -2.35e-4,3.049209 0,4.096591 -1.763873,0.61572 -3.011477,2.023581 -3.011477,3.678976 0,2.220106 2.236826,4.036935 4.970164,4.036935 C 61.787655,48.750001 64,46.933172 64,44.713066 z" />
        <path
           style="opacity:0.4;fill:#000000;fill-opacity:1;stroke:none;display:inline"
           id="path3504"
           inkscape:connector-curvature="0"
           d="m 47.90625,12 c -3.432906,0 -6.21875,2.198126 -6.21875,4.9375 0,0.136983 0.04875,0.271976 0.0625,0.40625 C 42.123316,14.889905 44.729193,13 47.90625,13 c 3.204424,0 5.851363,1.920565 6.1875,4.40625 C 54.111832,17.252641 54.125,17.094713 54.125,16.9375 54.125,14.198127 51.338116,12 47.90625,12 z m 2,13.21875 0,1 c 0.01488,0.497551 0.298693,1.06729 0.6875,1.46875 0.09978,0.07533 8.192442,6.200116 8.21875,6.21875 0.0084,0.0065 0.02327,-0.0068 0.03125,0 0.02396,0.01835 0.04599,0.04881 0.0625,0.0625 0.0042,0.0036 0.02447,-0.006 0.03125,0 0.0068,0.006 0.03104,0.06226 0.03125,0.0625 2.6e-5,2.9e-5 0.06248,0.06248 0.0625,0.0625 0,0 10e-7,0.03125 0,0.03125 0.01173,0.01044 0.01956,0.02072 0.03125,0.03125 1.096118,0.988597 2.000001,2.355113 2,3.8125 l 0,-1 c 10e-7,-1.457387 -0.903882,-2.823903 -2,-3.8125 -0.01169,-0.01053 -0.01952,-0.02081 -0.03125,-0.03125 10e-7,10e-7 0,-0.03125 0,-0.03125 -1.6e-5,-2.1e-5 -0.06247,-0.06247 -0.0625,-0.0625 -2.08e-4,-2.41e-4 -0.02446,-0.05646 -0.03125,-0.0625 -0.0068,-0.006 -0.02707,0.0036 -0.03125,0 -0.01651,-0.01369 -0.03854,-0.04415 -0.0625,-0.0625 -0.008,-0.0068 -0.0229,0.0065 -0.03125,0 -0.02631,-0.01863 -8.118969,-6.143419 -8.21875,-6.21875 -0.388807,-0.40146 -0.672619,-0.971199 -0.6875,-1.46875 z m -3.96875,6.1875 c -0.01587,0.496942 -0.294785,1.003086 -0.6875,1.40625 -0.04962,0.03746 -2.047442,1.580482 -4.09375,3.125 -1.035812,0.781812 -2.095652,1.536843 -2.875,2.125 -0.389673,0.294078 -0.677518,0.546179 -0.90625,0.71875 -0.114367,0.08629 -0.21928,0.172022 -0.28125,0.21875 -0.03099,0.02336 -0.04624,0.01901 -0.0625,0.03125 -0.0081,0.0061 -0.02336,0.02064 -0.03125,0.03125 -0.02242,0.01758 -0.07844,0.01847 -0.09375,0.03125 -0.0046,0.0038 0.0047,0.02724 0,0.03125 -0.0075,0.0068 -0.0623,0.09351 -0.0625,0.09375 -2.8e-5,3.1e-5 -0.03124,0.03123 -0.03125,0.03125 0,10e-7 -0.03125,0.03125 -0.03125,0.03125 -0.0044,0.0039 0.0043,0.02733 0,0.03125 -0.0099,0.01973 -0.03125,0.03125 -0.03125,0.03125 -1.07951,0.986761 -1.96875,2.33918 -1.96875,3.78125 l 0,1 c 0,-1.44207 0.88924,-2.794489 1.96875,-3.78125 0,0 0.0213,-0.01152 0.03125,-0.03125 0.0043,-0.0039 -0.0044,-0.02734 0,-0.03125 0,0 0.03125,-0.03125 0.03125,-0.03125 1.5e-5,-2.1e-5 0.03122,-0.03122 0.03125,-0.03125 2.03e-4,-2.43e-4 0.05499,-0.08693 0.0625,-0.09375 0.0047,-0.004 -0.0046,-0.02742 0,-0.03125 0.01531,-0.01278 0.07133,-0.01367 0.09375,-0.03125 0.0079,-0.01061 0.02312,-0.02513 0.03125,-0.03125 0.01626,-0.01224 0.03151,-0.0079 0.0625,-0.03125 0.06197,-0.04673 0.166883,-0.132464 0.28125,-0.21875 0.228732,-0.172571 0.516577,-0.424672 0.90625,-0.71875 0.779348,-0.588157 1.839188,-1.343188 2.875,-2.125 2.046308,-1.544518 4.044131,-3.087545 4.09375,-3.125 0.392715,-0.403164 0.671626,-0.909306 0.6875,-1.40625 l 0,-1 z m 11.15625,9.625 c -1.763874,0.615722 -3,2.032105 -3,3.6875 0,0.182068 0.03337,0.355386 0.0625,0.53125 0.20676,-1.453138 1.339535,-2.660943 2.9375,-3.21875 -5.7e-5,-0.255849 1.2e-5,-0.708501 0,-1 z m 3.96875,0.03125 0,1 c 1.552786,0.565565 2.664589,1.762907 2.875,3.1875 C 63.966325,45.074136 64,44.900818 64,44.71875 64,43.086119 62.785851,41.690189 61.0625,41.0625 z M 32,46.875 l 0,1 2.78125,0 0,-1 -2.78125,0 z m 6.71875,0 c 0,0.24449 0,0.781678 0,1 l 2.8125,0 0,-1 -2.8125,0 z m 2.90625,11.8125 0.6875,1 3.625,0 0,-1 -4.3125,0 z m 8.28125,0 0,1 3.78125,0 0.6875,-1 -4.46875,0 z" />
        <path
           style="opacity:0.8;fill:none;stroke:#ffffff;stroke-width:3;stroke-miterlimit:4;stroke-opacity:1;stroke-dasharray:none;display:inline;filter:url(#filter3536)"
           id="path3518"
           clip-path="url(#clipPath3520)"
           transform="translate(0,-30)"
           inkscape:connector-curvature="0"
           d="m 64,74.713066 c 0,-1.632631 -1.214678,-3.031399 -2.938029,-3.659088 l 0,-4.076707 c 0,-1.457386 -0.911529,-2.829584 -2.007647,-3.818181 -0.01169,-0.01054 -0.01276,-0.02933 -0.02449,-0.03977 0,0 0,-0.01989 0,-0.01989 -1.7e-5,-2.1e-5 -0.04894,-0.05963 -0.04897,-0.05966 -2.1e-4,-2.41e-4 -0.04218,-0.05362 -0.04897,-0.05966 -0.0068,-0.006 -0.0203,0.0036 -0.02448,0 -0.0042,-0.0036 0.0041,-0.01646 0,-0.01988 -0.01651,-0.01369 -0.04949,-0.02143 -0.07345,-0.03977 -0.008,-0.0068 -0.01614,-0.01341 -0.02449,-0.01989 -0.02631,-0.01864 -8.126685,-6.149101 -8.226466,-6.224432 -0.388808,-0.40146 -0.670662,-0.954154 -0.685543,-1.451705 l 0,-3.559659 c 2.454562,-0.664683 4.235656,-2.531335 4.235656,-4.713068 C 54.133129,44.212331 51.346174,42 47.914308,42 c -3.432907,0 -6.218825,2.21233 -6.218825,4.951704 3e-6,2.182165 1.779675,4.048453 4.235657,4.713068 l 0,3.519886 c 0,-0.007 4.59e-4,0.03066 0,0.03977 -4.58e-4,0.0091 -0.003,-0.0041 0,0.03977 l 0,6.144886 c -0.01587,0.496942 -0.292826,1.008768 -0.685541,1.411932 -0.04962,0.03746 -2.042443,1.557754 -4.088751,3.102272 -1.035811,0.781812 -2.085229,1.559571 -2.864577,2.147728 -0.389673,0.294078 -0.701642,0.543337 -0.930374,0.715908 -0.114367,0.08629 -0.20735,0.152136 -0.26932,0.198864 -0.03098,0.02336 -0.05719,0.02753 -0.07345,0.03977 -0.0081,0.0061 -0.0166,0.02917 -0.02448,0.03977 -0.02242,0.01758 -0.05814,0.027 -0.07345,0.03977 -0.0046,0.0038 0.0047,0.01588 0,0.01989 -0.0047,0.004 -0.01698,-0.0068 -0.02448,0 -0.0075,0.0068 -0.04876,0.0793 -0.04897,0.07955 -2.7e-5,3.1e-5 -0.04895,0.03975 -0.04897,0.03977 0,0 0,0.01989 0,0.01989 0,0 -0.02448,0.01989 -0.02448,0.01989 -0.0044,0.0039 0.0043,0.01597 0,0.01989 -0.0099,0.01973 -0.02448,0.03977 -0.02448,0.03977 -1.07951,0.986759 -1.983169,2.336337 -1.983169,3.778407 l 0,3.738637 -2.76664,0 0,7.93466 9.517343,0 0,-7.93466 -2.784368,0 c 0,-0.832356 0,-1.696898 0,-3.798291 0.01431,-0.497258 0.290637,-1.005878 0.685541,-1.411935 l 6.512624,-4.931818 0,21.97443 -4.295589,0 L 48.000303,98 l 6.366392,-9.306822 -4.469222,0 0,-28.119315 6.512624,4.911931 c 0.39014,0.402952 0.671099,0.953826 0.68554,1.451705 0,1.714333 -2.35e-4,3.049209 0,4.096591 -1.763873,0.61572 -3.011477,2.023581 -3.011477,3.678976 0,2.220106 2.236826,4.036935 4.970164,4.036935 C 61.787655,78.750001 64,76.933172 64,74.713066 z" />
      </g>
    </g>
  </g>
</svg>
