<?xml version="1.0" encoding="UTF-8" standalone="no"?>
<!-- Created with Inkscape (http://www.inkscape.org/) -->
<svg id="svg2982" xmlns:rdf="http://www.w3.org/1999/02/22-rdf-syntax-ns#" xmlns="http://www.w3.org/2000/svg" height="96" width="96" version="1.1" xmlns:cc="http://creativecommons.org/ns#" xmlns:xlink="http://www.w3.org/1999/xlink" xmlns:dc="http://purl.org/dc/elements/1.1/">
 <defs id="defs2984">
  <linearGradient id="linearGradient3721-3" y2="90.239" gradientUnits="userSpaceOnUse" x2="32.251" gradientTransform="translate(0,-97)" y1="6.1317" x1="32.251">
   <stop id="stop3750-8-79" offset="0"/>
   <stop id="stop3752-5-37" style="stop-opacity:.58824" offset="1"/>
  </linearGradient>
  <linearGradient id="linearGradient3617-8" y2="-8" gradientUnits="userSpaceOnUse" x2="32" gradientTransform="translate(0,-96)" y1="88" x1="32">
   <stop id="stop4329" style="stop-color:#f0f0f0" offset="0"/>
   <stop id="stop4331-7" style="stop-color:#b4b4b4" offset="1"/>
  </linearGradient>
  <clipPath id="clipPath3919-4">
   <rect id="rect3921-3" style="fill:#f0f" transform="scale(1,-1)" rx="6.1" ry="6.1" height="76" width="84" y="-82" x="6"/>
  </clipPath>
  <filter id="filter3927-5" height="1.54" width="1.432" color-interpolation-filters="sRGB" y="-0.27" x="-0.216">
   <feGaussianBlur id="feGaussianBlur3929-0" stdDeviation="7.2000001"/>
  </filter>
  <linearGradient id="linearGradient6653" y2="-40" gradientUnits="userSpaceOnUse" x2="48" gradientTransform="matrix(1,0,0,-1,0,92)" y1="88" x1="48">
   <stop id="stop4386" style="stop-color:#fff" offset="0"/>
   <stop id="stop4388" style="stop-color:#fff;stop-opacity:0" offset="1"/>
  </linearGradient>
  <linearGradient id="linearGradient3140-4" y2="88" spreadMethod="reflect" gradientUnits="userSpaceOnUse" x2="48" y1="88" x1="90">
   <stop id="stop3894-4" style="stop-opacity:.58824" offset="0"/>
   <stop id="stop3896-3" style="stop-opacity:.47059" offset=".11780"/>
   <stop id="stop3898-3" style="stop-opacity:.39216" offset=".23810"/>
   <stop id="stop3900-6" style="stop-opacity:.31373" offset="1"/>
  </linearGradient>
  <filter id="filter4180" height="3.8298" width="1.2289" color-interpolation-filters="sRGB" y="-1.4149" x="-.11445">
   <feGaussianBlur id="feGaussianBlur4182" stdDeviation="3.5372897"/>
  </filter>
  <radialGradient id="radialGradient6655" gradientUnits="userSpaceOnUse" cy="84" cx="48" gradientTransform="matrix(1.0667 0 0 0.05 -3.2 81.3)" r="30">
   <stop id="stop3315-9" style="stop-color:#4dbeff" offset="0"/>
   <stop id="stop4186" style="stop-color:#1379ff;stop-opacity:.65041" offset=".67213"/>
   <stop id="stop3317-0" style="stop-color:#06f;stop-opacity:0" offset="1"/>
  </radialGradient>
  <linearGradient id="linearGradient3613-98" y2="138.66" gradientUnits="userSpaceOnUse" x2="48" y1="20.221" x1="48">
   <stop id="stop3739-84" style="stop-color:#fff" offset="0"/>
   <stop id="stop3741-37" style="stop-color:#fff;stop-opacity:0" offset="1"/>
  </linearGradient>
  <clipPath id="clipPath4355-1">
   <rect id="rect4357-3" style="fill:#fff" rx="6" ry="6" height="80" width="84" y="6" x="6"/>
  </clipPath>
  <filter id="filter3794-80" height="1.384" width="1.384" color-interpolation-filters="sRGB" y="-.192" x="-.192">
   <feGaussianBlur id="feGaussianBlur3796-97" stdDeviation="5.28"/>
  </filter>
  <linearGradient id="linearGradient3421-0" y2="66" gradientUnits="userSpaceOnUse" x2="16.92" gradientTransform="matrix(0 .70588 -.8125 0 101.62 4)" y1="66" x1="85">
   <stop id="stop3769-7" style="stop-color:#4d4d4d;stop-opacity:.70732" offset="0"/>
   <stop id="stop3771-6" style="stop-color:#4d4d4d;stop-opacity:.25203" offset="1"/>
  </linearGradient>
  <clipPath id="clipPath3532">
   <path id="path3534" style="fill:#fff" d="m12-14c-3.324 0-6 2.676-6 6v58c0 3.324 2.676 6 6 6h72c3.324 0 6-2.676 6-6v-58c0-3.324-2.676-6-6-6h-72zm53.281 10 8.719 7.5625-10.938 9.3435-8.718-7.4685 10.937-9.4375zm-33.312 0.375 3.3438 2.8125-10 8.6562l-3.313-2.8749 9.969-8.5938zm6.656 5.6875 3.313 2.8437-9.969 8.5938-3.313-2.844 9.969-8.5935zm9.2188 7.3125c5.9007-0.000001 10.688 4.1339 10.688 9.2188-0.000002 5.0849-4.7861 9.1875-10.688 9.1875-5.9014-0.00059-10.688-4.1032-10.688-9.1875s4.7861-9.2188 10.688-9.2188zm0 4.0625c-3.3048-0.000002-6 2.3099-6 5.1562-0.000684 2.8481 2.6952 5.1562 6 5.1562 3.3062-0.000001 5.9688-2.3081 5.9688-5.1562-0.000002-2.8464-2.6626-5.1562-5.9688-5.1562zm-7.0625 18.406h14.125v4.0625h-14.125v-4.0625zm0 8.0938h14.125v4.0625h-14.125v-4.0625z"/>
  </clipPath>
  <filter id="filter3548" height="1.2496" width="1.2311" color-interpolation-filters="sRGB" y="-.1248" x="-.11556">
   <feGaussianBlur id="feGaussianBlur3550" stdDeviation="2.6"/>
  </filter>
 </defs>
 <metadata id="metadata2987">
  <rdf:RDF>
   <cc:Work rdf:about="">
    <dc:format>image/svg+xml</dc:format>
    <dc:type rdf:resource="http://purl.org/dc/dcmitype/StillImage"/>
    <dc:title/>
   </cc:Work>
  </rdf:RDF>
 </metadata>
 <g id="layer1" transform="translate(0 -956.36)">
  <g id="g7006" transform="translate(3.7195e-8 956.36)">
   <g id="layer3">
    <rect id="rect3716" style="opacity:.45;fill:url(#linearGradient3721-3)" transform="scale(1,-1)" rx="6" ry="6" height="84" width="84" y="-91" x="6"/>
   </g>
   <g id="layer1-9">
    <rect id="rect2419" style="fill:url(#linearGradient3617-8)" transform="scale(1,-1)" rx="6.1" ry="6.1" height="84" width="84" y="-90" x="6"/>
   </g>
   <g id="layer7">
    <g id="g3915" style="opacity:.2;filter:url(#filter3927-5)" clip-path="url(#clipPath3919-4)">
     <path id="path3911" style="opacity:.35656;color:#000000" d="m48 36a16 20 0 1 1 -32 0 16 20 0 1 1 32 0z" transform="matrix(1.25,0,0,1,-12,0)"/>
     <path id="path3913" style="opacity:.2;color:#000000" d="m80 52a24 28 0 1 1 -48 0 24 28 0 1 1 48 0z" transform="matrix(1.1667 0 0 1 -5.3333 0)"/>
    </g>
   </g>
   <g id="layer8">
    <path id="rect4028" style="opacity:.15;fill:#fff" d="m6 73.906v2c0 3.38 2.7144 6.094 6.094 6.094h71.812c3.38 0 6.094-2.714 6.094-6.094v-2c0 3.38-2.714 6.094-6.094 6.094h-71.812c-3.3796 0-6.094-2.714-6.094-6.094z"/>
    <path id="rect4377" style="opacity:.8;fill:url(#linearGradient6653)" d="m12 82c-3.324 0-6-2.676-6-6v-64c0-3.324 2.676-6 6-6h72c3.324 0 6 2.676 6 6v64c0 3.324-2.676 6-6 6zm0-0.96875h72c2.8049 0 5.0312-2.2264 5.0312-5.0312v-64c0-2.8049-2.226-5.0312-5.031-5.0312h-72c-2.8049 0-5.0312 2.2263-5.0312 5.0312v64c0 2.8049 2.2264 5.0312 5.0312 5.0312z"/>
   </g>
   <g id="layer4">
    <g id="g6998">
     <path id="path3888" d="m6 76v8c0 3.324 2.676 6 6 6h72c3.324 0 6-2.676 6-6v-8c0 3.324-2.676 6-6 6h-72c-3.324 0-6-2.676-6-6z" style="opacity:.5;fill:url(#linearGradient3140-4)"/>
     <path id="path4010" d="m6 78v4c0 3.324 2.676 6 6 6h72c3.324 0 6-2.676 6-6v-4c0 3.324-2.676 6-6 6h-72c-3.324 0-6-2.676-6-6z" style="opacity:.8"/>
     <path id="path4054" d="m6 82v1c0 3.324 2.676 6 6 6h72c3.324 0 6-2.676 6-6v-1c0 3.324-2.676 6-6 6h-72c-3.324 0-6-2.676-6-6z" style="opacity:.4;fill:#fff"/>
     <path id="path4059" d="m6 77v1c0 3.324 2.676 6 6 6h72c3.324 0 6-2.676 6-6v-1c0 3.324-2.676 6-6 6h-72c-3.324 0-6-2.676-6-6z" style="opacity:.2"/>
     <rect id="rect3323" style="opacity:.6;filter:url(#filter4180);fill:#06f" rx="6.7435" ry="6" transform="matrix(1 0 0 0.5 0 44)" width="74.179" y="80" x="10.911" height="6"/>
     <rect id="rect3311" style="fill:url(#radialGradient6655)" rx="5.8182" ry="3" height="3" width="64" y="84" x="16"/>
    </g>
   </g>
   <rect id="rect3171" style="opacity:.2;filter:url(#filter3794-80);stroke:#fff;stroke-linecap:round;stroke-width:.5;fill:url(#linearGradient3613-98)" clip-path="url(#clipPath4355-1)" rx="12" ry="12" height="62" width="66" y="15" x="15"/>
   <g id="layer4-3">
    <path id="path2582" d="m37.156 38.587c0-5.0843 4.7842-9.2072 10.686-9.2072 5.9007 0 10.685 4.1223 10.685 9.2072s-4.7836 9.209-10.685 9.209c-5.9014-0.000589-10.686-4.1247-10.686-9.209m10.686 5.1569c3.3062 0 5.9822-2.3087 5.9822-5.1569 0-2.8464-2.676-5.1575-5.9822-5.1575-3.3048 0-5.9829 2.3111-5.9829 5.1575-0.000685 2.8481 2.6781 5.1569 5.9829 5.1569zm-7.0541 8.1024h14.103v4.0497h-14.103v-4.0497zm0 8.1h14.103v4.0533h-14.103v-4.0533zm-12.14-29.302 3.3253 2.8676 9.9747-8.5952-3.3247-2.867-9.9753 8.5946m-6.648-5.682 3.323 2.867 9.976-8.644-3.326-2.818-9.973 8.595m43.29-8.963-10.952 9.436 8.71 7.458 10.952-9.342-8.71-7.552" style="fill:url(#linearGradient3421-0)"/>
    <path id="path3512" d="m65.281 16-10.938 9.4375 0.59375 0.5l10.344-8.938 8.125 7.062 0.594-0.5-8.719-7.562zm-33.312 0.375-9.969 8.594l0.5625 0.5 9.4062-8.0938 2.75 2.3125 0.59375-0.5-3.3438-2.8125zm6.6562 5.6875-9.9688 8.5938 0.59375 0.5 9.375-8.0938 2.7188 2.3438 0.59375-0.5-3.3125-2.8438zm9.2188 7.3125c-5.9014 0-10.688 4.1345-10.688 9.2188 0 0.16943 0.02076 0.33282 0.03125 0.5 0.3043-4.8495 4.9515-8.7188 10.656-8.7188 5.7041-0.000001 10.352 3.8687 10.656 8.7188 0.01049-0.1672 0.03125-0.33055 0.03125-0.5 0-5.0849-4.7868-9.2188-10.688-9.2188zm-5.9688 9.75c-0.01596 0.15348-0.03125 0.31171-0.03125 0.46875-0.000684 2.8481 2.6952 5.1562 6 5.1562 3.3062-0.000001 5.9688-2.3081 5.9688-5.1562 0-0.15704-0.0153-0.31527-0.03125-0.46875-0.3061 2.6004-2.838 4.625-5.9375 4.625-3.0982 0-5.6629-2.0246-5.9688-4.625zm-1.0938 12.719v1h14.125v-1h-14.125zm0 8.0938v1h14.125v-1h-14.125z" style="opacity:.4"/>
    <path id="path3521" style="opacity:.8;filter:url(#filter3548);stroke:#fff;stroke-width:2;fill:none" d="m37.156 18.587c0-5.0843 4.7842-9.2072 10.686-9.2072 5.9007 0 10.685 4.1223 10.685 9.2072s-4.7836 9.209-10.685 9.209c-5.9014-0.000589-10.686-4.1247-10.686-9.209m10.686 5.1569c3.3062 0 5.9822-2.3087 5.9822-5.1569 0-2.8464-2.676-5.1575-5.9822-5.1575-3.3048 0-5.9829 2.3111-5.9829 5.1575-0.000685 2.8481 2.6781 5.1569 5.9829 5.1569zm-7.0541 8.1024h14.103v4.0497h-14.103v-4.0497zm0 8.1h14.103v4.0533h-14.103v-4.0533zm-12.14-29.302 3.3253 2.8676 9.9747-8.5952-3.3247-2.867-9.9753 8.5946m-6.648-5.6811 3.323 2.867 9.976-8.6436-3.326-2.8186-9.973 8.5952m43.29-8.9629-10.952 9.4362 8.71 7.4578 10.952-9.3416-8.71-7.5524" clip-path="url(#clipPath3532)" transform="translate(0,20)"/>
   </g>
  </g>
 </g>
</svg>
