<?xml version="1.0" encoding="UTF-8" standalone="no"?>
<!-- Created with Inkscape (http://www.inkscape.org/) -->

<svg
   xmlns:dc="http://purl.org/dc/elements/1.1/"
   xmlns:cc="http://creativecommons.org/ns#"
   xmlns:rdf="http://www.w3.org/1999/02/22-rdf-syntax-ns#"
   xmlns:svg="http://www.w3.org/2000/svg"
   xmlns="http://www.w3.org/2000/svg"
   xmlns:xlink="http://www.w3.org/1999/xlink"
   xmlns:sodipodi="http://sodipodi.sourceforge.net/DTD/sodipodi-0.dtd"
   xmlns:inkscape="http://www.inkscape.org/namespaces/inkscape"
   width="96"
   height="96"
   id="svg2982"
   version="1.1"
   inkscape:version="0.48.1 r9760"
   sodipodi:docname="templat-ikon-96x96.svg">
  <defs
     id="defs2984">
    <linearGradient
       x1="32.251034"
       y1="6.1317081"
       x2="32.251034"
       y2="90.238609"
       id="linearGradient3721-33"
       xlink:href="#ButtonShadow-0-37"
       gradientUnits="userSpaceOnUse"
       gradientTransform="translate(0,-97)" />
    <linearGradient
       x1="45.447727"
       y1="92.539597"
       x2="45.447727"
       y2="7.0165396"
       id="ButtonShadow-0-37"
       gradientUnits="userSpaceOnUse"
       gradientTransform="matrix(1.0058652,0,0,0.994169,100,0)">
      <stop
         id="stop3750-8-986"
         style="stop-color:#000000;stop-opacity:1"
         offset="0" />
      <stop
         id="stop3752-5-70"
         style="stop-color:#000000;stop-opacity:0.58823532"
         offset="1" />
    </linearGradient>
    <linearGradient
       x1="36.357143"
       y1="6"
       x2="36.357143"
       y2="63.893143"
       id="linearGradient3188-484"
       xlink:href="#linearGradient3737-81"
       gradientUnits="userSpaceOnUse" />
    <linearGradient
       id="linearGradient3737-81">
      <stop
         id="stop3739-685"
         style="stop-color:#ffffff;stop-opacity:1"
         offset="0" />
      <stop
         id="stop3741-21"
         style="stop-color:#ffffff;stop-opacity:0"
         offset="1" />
    </linearGradient>
    <linearGradient
       x1="6"
       y1="77.09375"
       x2="32.030617"
       y2="77.09375"
       id="linearGradient3287"
       xlink:href="#linearGradient3273-9"
       gradientUnits="userSpaceOnUse"
       gradientTransform="matrix(-1,0,0,1,96.030615,0)" />
    <linearGradient
       id="linearGradient3273-9">
      <stop
         id="stop3275-96"
         style="stop-color:#7a7a7a;stop-opacity:1"
         offset="0" />
      <stop
         id="stop3281-0"
         style="stop-color:#f9f9f9;stop-opacity:1"
         offset="0.14636412" />
      <stop
         id="stop3283-6"
         style="stop-color:#c9c9c9;stop-opacity:1"
         offset="0.37253973" />
      <stop
         id="stop3277-4"
         style="stop-color:#dedede;stop-opacity:0"
         offset="1" />
    </linearGradient>
    <linearGradient
       x1="6"
       y1="77.09375"
       x2="32"
       y2="77.09375"
       id="linearGradient3279"
       xlink:href="#linearGradient3322"
       gradientUnits="userSpaceOnUse" />
    <linearGradient
       id="linearGradient3322">
      <stop
         id="stop3324"
         style="stop-color:#7a7a7a;stop-opacity:1"
         offset="0" />
      <stop
         id="stop3326-9"
         style="stop-color:#f9f9f9;stop-opacity:1"
         offset="0.2032043" />
      <stop
         id="stop3328-9"
         style="stop-color:#c9c9c9;stop-opacity:1"
         offset="0.42969123" />
      <stop
         id="stop3330-0"
         style="stop-color:#dedede;stop-opacity:0"
         offset="1" />
    </linearGradient>
    <linearGradient
       x1="90"
       y1="81.915176"
       x2="21.335417"
       y2="81.915176"
       id="linearGradient3460-8"
       xlink:href="#linearGradient3448-9"
       gradientUnits="userSpaceOnUse" />
    <linearGradient
       id="linearGradient3448-9">
      <stop
         id="stop3450-3"
         style="stop-color:#000000;stop-opacity:1"
         offset="0" />
      <stop
         id="stop3452-1"
         style="stop-color:#000000;stop-opacity:0"
         offset="1" />
    </linearGradient>
    <linearGradient
       x1="46.178307"
       y1="80"
       x2="46.178307"
       y2="84.029495"
       id="linearGradient3317"
       xlink:href="#linearGradient4225"
       gradientUnits="userSpaceOnUse" />
    <linearGradient
       id="linearGradient4225">
      <stop
         id="stop4227"
         style="stop-color:#000000;stop-opacity:1"
         offset="0" />
      <stop
         id="stop4229-4"
         style="stop-color:#484848;stop-opacity:1"
         offset="1" />
    </linearGradient>
    <linearGradient
       x1="71.671959"
       y1="89"
       x2="71.671959"
       y2="85.982117"
       id="linearGradient3338"
       xlink:href="#linearGradient3448-9"
       gradientUnits="userSpaceOnUse" />
    <linearGradient
       id="linearGradient7920">
      <stop
         id="stop7922"
         style="stop-color:#000000;stop-opacity:1"
         offset="0" />
      <stop
         id="stop7924"
         style="stop-color:#000000;stop-opacity:0"
         offset="1" />
    </linearGradient>
    <linearGradient
       x1="46"
       y1="6"
       x2="46"
       y2="78.000145"
       id="linearGradient3179"
       xlink:href="#linearGradient4327-3"
       gradientUnits="userSpaceOnUse" />
    <linearGradient
       id="linearGradient4327-3">
      <stop
         id="stop4329-7"
         style="stop-color:#f0f0f0;stop-opacity:1"
         offset="0" />
      <stop
         id="stop4331-1"
         style="stop-color:#b4b4b4;stop-opacity:1"
         offset="1" />
    </linearGradient>
    <linearGradient
       x1="18.742928"
       y1="8.046936"
       x2="109.1929"
       y2="68.516502"
       id="linearGradient3551"
       xlink:href="#linearGradient3220-22"
       gradientUnits="userSpaceOnUse"
       gradientTransform="matrix(1,0,0,-1,0,84)" />
    <linearGradient
       id="linearGradient3220-22">
      <stop
         id="stop3222-1"
         style="stop-color:#ffffff;stop-opacity:1"
         offset="0" />
      <stop
         id="stop3224-5"
         style="stop-color:#bfbfbf;stop-opacity:0"
         offset="1" />
    </linearGradient>
    <linearGradient
       x1="6"
       y1="75.5"
       x2="45.219246"
       y2="75.5"
       id="linearGradient3454"
       xlink:href="#linearGradient3448-9"
       gradientUnits="userSpaceOnUse"
       gradientTransform="matrix(-1,0,0,1,96,-2)" />
    <linearGradient
       id="linearGradient7935">
      <stop
         id="stop7937"
         style="stop-color:#000000;stop-opacity:1"
         offset="0" />
      <stop
         id="stop7939"
         style="stop-color:#000000;stop-opacity:0"
         offset="1" />
    </linearGradient>
    <linearGradient
       x1="15.656256"
       y1="69.394279"
       x2="46.594883"
       y2="39.82095"
       id="linearGradient3781-0"
       xlink:href="#linearGradient3220-22"
       gradientUnits="userSpaceOnUse"
       gradientTransform="matrix(1.1165614,0,0,1.1165614,0.8046986,-5.6759082)" />
    <linearGradient
       id="linearGradient7942">
      <stop
         id="stop7944"
         style="stop-color:#ffffff;stop-opacity:1"
         offset="0" />
      <stop
         id="stop7946"
         style="stop-color:#bfbfbf;stop-opacity:0"
         offset="1" />
    </linearGradient>
    <clipPath
       id="clipPath3785">
      <rect
         width="84"
         height="72"
         rx="6"
         ry="6"
         x="6"
         y="6"
         id="rect3787"
         style="fill:#ffffff;fill-opacity:1;fill-rule:nonzero;stroke:none" />
    </clipPath>
    <filter
       x="-0.12267826"
       y="-0.17991199"
       width="1.2453564"
       height="1.3598239"
       color-interpolation-filters="sRGB"
       id="filter3829">
      <feGaussianBlur
         id="feGaussianBlur3831"
         stdDeviation="3.5487715" />
    </filter>
    <linearGradient
       x1="52.92857"
       y1="60"
       x2="52.92857"
       y2="19.986593"
       id="linearGradient3381"
       xlink:href="#linearGradient3767-11"
       gradientUnits="userSpaceOnUse"
       gradientTransform="translate(0,2.5000001e-6)" />
    <linearGradient
       id="linearGradient3767-11">
      <stop
         id="stop3769-30"
         style="stop-color:#4d4d4d;stop-opacity:0.70731705"
         offset="0" />
      <stop
         id="stop3771-3"
         style="stop-color:#4d4d4d;stop-opacity:0.25203252"
         offset="1" />
    </linearGradient>
    <clipPath
       id="clipPath3403">
      <path
         d="m -72.6875,6.90625 0,67.5 82.34375,0 0,-67.5 -82.34375,0 z M -32,20 c 13.248,0 24,8.96 24,20 0,11.040001 -10.752,20.000001 -24,20 -13.248,0 -24,-8.959998 -24,-20 0,-11.040001 10.752,-20 24,-20 z m 5.71875,2.25 -2.84375,8.90625 c 1.884334,0.423339 3.565705,1.226629 4.90625,2.34375 L -16.375,27 c -2.867015,-2.389179 -5.989834,-3.875501 -9.90625,-4.75 z M -32,32.5 c -4.967999,0 -8.999999,3.360001 -9,7.5 0,4.139999 4.032001,7.500001 9,7.5 4.967999,0 8.999999,-3.36 9,-7.5 0,-4.139999 -4.032,-7.500001 -9,-7.5 z m 0,2.5 c 3.311999,0 6,2.240001 6,5 -1e-6,2.759999 -2.688,5.000001 -6,5 -3.312,-10e-7 -6,-2.239999 -6,-5 0,-2.76 2.688,-5.000001 6,-5 z m 0,1.65625 c -2.208,0 -3.999999,1.503751 -4,3.34375 0,1.84 1.792,3.343748 4,3.34375 2.208,0 4,-1.50375 4,-3.34375 0,-1.84 -1.792,-3.343751 -4,-3.34375 z M -39.78125,46.5 -47.5625,53 c 2.867015,2.389177 5.989835,3.8755 9.90625,4.75 l 2.84375,-8.90625 C -36.712573,48.426166 -38.398383,47.621706 -39.75,46.5 l -0.03125,0 z"
         inkscape:connector-curvature="0"
         id="path3405"
         style="fill:#ffffff;fill-opacity:1;fill-rule:nonzero;stroke:none" />
    </clipPath>
    <filter
       x="-0.1104"
       y="-0.13142857"
       width="1.2208"
       height="1.2628571"
       color-interpolation-filters="sRGB"
       id="filter3407">
      <feGaussianBlur
         id="feGaussianBlur3409"
         stdDeviation="2.3" />
    </filter>
  </defs>
  <sodipodi:namedview
     id="base"
     pagecolor="#ffffff"
     bordercolor="#666666"
     borderopacity="1.0"
     inkscape:pageopacity="0.0"
     inkscape:pageshadow="2"
     inkscape:zoom="3.959798"
     inkscape:cx="36.39115"
     inkscape:cy="42.877139"
     inkscape:document-units="px"
     inkscape:current-layer="layer1"
     showgrid="false"
     inkscape:window-width="1280"
     inkscape:window-height="725"
     inkscape:window-x="0"
     inkscape:window-y="25"
     inkscape:window-maximized="1" />
  <metadata
     id="metadata2987">
    <rdf:RDF>
      <cc:Work
         rdf:about="">
        <dc:format>image/svg+xml</dc:format>
        <dc:type
           rdf:resource="http://purl.org/dc/dcmitype/StillImage" />
        <dc:title></dc:title>
      </cc:Work>
    </rdf:RDF>
  </metadata>
  <g
     inkscape:label="Layer 1"
     inkscape:groupmode="layer"
     id="layer1"
     transform="translate(0,-956.36218)">
    <g
       transform="translate(0,956.36218)"
       id="g3151">
      <g
         id="g3128"
         style="display:inline">
        <rect
           width="84"
           height="84"
           rx="6"
           ry="6"
           x="6"
           y="-91"
           transform="scale(1,-1)"
           id="rect3716"
           style="opacity:0.45;fill:url(#linearGradient3721-33);fill-opacity:1;fill-rule:nonzero;stroke:none;display:inline" />
      </g>
      <g
         id="layer1-2">
        <path
           style="opacity:0.5;fill:url(#linearGradient3188-484);fill-opacity:1;fill-rule:nonzero;stroke:none"
           id="rect3728"
           inkscape:connector-curvature="0"
           d="M 12,6 C 8.676,6 6,8.676 6,12 l 0,2 0,68 0,2 c 0,0.334721 0.04135,0.6507 0.09375,0.96875 0.0487,0.295596 0.09704,0.596915 0.1875,0.875 0.00988,0.03038 0.020892,0.0636 0.03125,0.09375 0.098865,0.287771 0.2348802,0.547452 0.375,0.8125 0.1445918,0.273507 0.3156161,0.535615 0.5,0.78125 0.1843839,0.245635 0.3737765,0.473472 0.59375,0.6875 0.439947,0.428056 0.94291,0.814526 1.5,1.09375 0.278545,0.139612 0.5734731,0.246947 0.875,0.34375 -0.2562018,-0.100222 -0.4867109,-0.236272 -0.71875,-0.375 -0.00741,-0.0044 -0.023866,0.0045 -0.03125,0 -0.031933,-0.0193 -0.062293,-0.04251 -0.09375,-0.0625 -0.120395,-0.0767 -0.2310226,-0.163513 -0.34375,-0.25 -0.1061728,-0.0808 -0.2132809,-0.161112 -0.3125,-0.25 C 8.4783201,88.557317 8.3087904,88.373362 8.15625,88.1875 8.0486711,88.057245 7.9378561,87.922215 7.84375,87.78125 7.818661,87.74287 7.805304,87.69538 7.78125,87.65625 7.716487,87.553218 7.6510225,87.451733 7.59375,87.34375 7.4927417,87.149044 7.3880752,86.928049 7.3125,86.71875 7.30454,86.69694 7.288911,86.6782 7.28125,86.65625 7.2494249,86.5643 7.2454455,86.469419 7.21875,86.375 7.1884177,86.268382 7.1483606,86.171969 7.125,86.0625 7.0521214,85.720988 7,85.364295 7,85 L 7,83 7,15 7,13 C 7,10.218152 9.2181517,8 12,8 l 2,0 68,0 2,0 c 2.781848,0 5,2.218152 5,5 l 0,2 0,68 0,2 c 0,0.364295 -0.05212,0.720988 -0.125,1.0625 -0.04415,0.206893 -0.08838,0.397658 -0.15625,0.59375 -0.0077,0.02195 -0.0233,0.04069 -0.03125,0.0625 -0.06274,0.173739 -0.138383,0.367449 -0.21875,0.53125 -0.04158,0.0828 -0.07904,0.169954 -0.125,0.25 -0.0546,0.09721 -0.126774,0.18835 -0.1875,0.28125 -0.09411,0.140965 -0.204921,0.275995 -0.3125,0.40625 -0.143174,0.17445 -0.303141,0.346998 -0.46875,0.5 -0.01117,0.0102 -0.01998,0.02115 -0.03125,0.03125 -0.138386,0.125556 -0.285091,0.234436 -0.4375,0.34375 -0.102571,0.07315 -0.204318,0.153364 -0.3125,0.21875 -0.0074,0.0045 -0.02384,-0.0044 -0.03125,0 -0.232039,0.138728 -0.462548,0.274778 -0.71875,0.375 0.301527,-0.0968 0.596455,-0.204138 0.875,-0.34375 0.55709,-0.279224 1.060053,-0.665694 1.5,-1.09375 0.219973,-0.214028 0.409366,-0.441865 0.59375,-0.6875 0.184384,-0.245635 0.355408,-0.507743 0.5,-0.78125 0.14012,-0.265048 0.276135,-0.524729 0.375,-0.8125 0.01041,-0.03078 0.02133,-0.06274 0.03125,-0.09375 0.09046,-0.278085 0.1388,-0.579404 0.1875,-0.875 C 89.95865,84.6507 90,84.334721 90,84 l 0,-2 0,-68 0,-2 C 90,8.676 87.324,6 84,6 L 12,6 z" />
        <path
           style="fill:#cacaca;fill-opacity:1;fill-rule:nonzero;stroke:none"
           id="rect3243"
           inkscape:connector-curvature="0"
           d="M 90,64.1875 90,84 c 0,3.324 -2.676,6 -6,6 L 12,90 C 8.676,90 6,87.324 6,84 l 0,-19.8125 84,0 z" />
        <path
           style="opacity:0.8;fill:url(#linearGradient3287);fill-opacity:1;fill-rule:nonzero;stroke:none"
           id="path3285"
           inkscape:connector-curvature="0"
           d="m 90.030615,64.1875 0,19.8125 c 0,3.324 -2.676,6 -6,6 L 64,90 l 0,-25.8125 26.030615,0 z" />
        <path
           style="opacity:0.8;fill:url(#linearGradient3279);fill-opacity:1;fill-rule:nonzero;stroke:none"
           id="path3263"
           inkscape:connector-curvature="0"
           d="M 6,64.1875 6,84 c 0,3.324 2.676,6 6,6 l 20,0 0,-25.8125 -26,0 z" />
        <path
           style="opacity:0.2;fill:url(#linearGradient3460-8);fill-opacity:1;fill-rule:nonzero;stroke:none"
           id="path3299"
           inkscape:connector-curvature="0"
           d="M 90,64.1875 90,84 c 0,3.324 -2.676,6 -6,6 L 12,90 C 8.676,90 6,87.324 6,84 l 0,-19.8125 84,0 z" />
        <rect
           style="fill:url(#linearGradient3317);fill-opacity:1;fill-rule:nonzero;stroke:none"
           id="rect3308"
           y="80"
           x="16"
           ry="2"
           rx="2"
           height="4"
           width="64" />
        <path
           style="fill:#ececec;fill-opacity:1;fill-rule:nonzero;stroke:none"
           id="rect3319"
           inkscape:connector-curvature="0"
           d="M 16.0625,82.5 C 16.021524,82.659999 16,82.826875 16,83 c 0,1.108 0.892,2 2,2 l 60,0 c 1.108,0 2,-0.892 2,-2 0,-0.173125 -0.02152,-0.340001 -0.0625,-0.5 C 79.71623,83.363997 78.934875,84 78,84 l -60,0 c -0.934875,0 -1.71623,-0.636003 -1.9375,-1.5 z" />
        <rect
           style="opacity:0.5;fill:url(#linearGradient3338);fill-opacity:1;fill-rule:nonzero;stroke:none"
           id="rect3330"
           y="85.052979"
           x="67"
           ry="0"
           rx="0"
           height="3.9470193"
           width="10" />
        <rect
           style="fill:#f2f2f2;fill-opacity:1;fill-rule:nonzero;stroke:none"
           id="rect3328"
           y="86"
           x="68"
           height="2"
           width="8" />
      </g>
      <g
         style="display:inline"
         id="layer3">
        <rect
           style="fill:url(#linearGradient3179);fill-opacity:1;fill-rule:nonzero;stroke:none"
           id="rect3171"
           y="6"
           x="6"
           ry="6"
           rx="6"
           height="70"
           width="84" />
        <path
           style="opacity:0.7;fill:url(#linearGradient3551);fill-opacity:1;fill-rule:nonzero;stroke:none"
           id="rect3213"
           inkscape:connector-curvature="0"
           d="M 12,76 C 8.676,76 6,73.324 6,70 L 6,12 C 6,8.676 8.676,6 12,6 l 72,0 c 3.324,0 6,2.676 6,6 l 0,58 c 0,3.324 -2.676,6 -6,6 l -72,0 z m 0,-2 72,0 c 2.781848,0 5,-2.195392 5,-4.9375 l 0,-57.125 C 89,9.195393 86.781848,6.999999 84,7 L 12,7 C 9.2181517,7 7,9.195389 7,11.9375 l 0,57.125 C 7,71.804608 9.2181517,74 12,74 z" />
        <path
           style="opacity:0.1;fill:url(#linearGradient3454);fill-opacity:1;fill-rule:nonzero;stroke:none"
           id="path3443"
           inkscape:connector-curvature="0"
           d="m 90,70 0,1 c 0,3.324 -2.676,6 -6,6 L 12,77 C 8.676,77 6,74.324 6,71 l 0,-1 c 0,2.984862 2.152831,5.43487 5,5.90625 C 11.326884,75.971636 11.652269,76 12,76 l 72,0 c 0.166304,0 0.337194,-0.01811 0.5,-0.03125 0.04161,-0.0041 0.08371,0.0051 0.125,0 C 84.752873,75.95584 84.874673,75.927 85,75.90625 87.847169,75.43487 90,72.984862 90,70 z" />
        <path
           style="opacity:0.3;fill:url(#linearGradient3781-0);fill-opacity:1;fill-rule:evenodd;stroke:none;filter:url(#filter3829)"
           id="path3295"
           clip-path="url(#clipPath3785)"
           transform="translate(0,-2)"
           inkscape:connector-curvature="0"
           d="M 72.785673,73.316552 C 37.497632,71.660468 32.655921,60.569503 56.214438,35.565764 29.558784,43.997531 16.947902,55.85465 7.5798689,63.939487 -2.370079,72.601777 6.9889853,83.779979 17.934257,82.851623 c 11.343001,-0.0075 45.801874,-2.097861 54.851416,-9.535071 z" />
      </g>
      <g
         style="display:inline"
         id="layer4">
        <path
           style="fill:url(#linearGradient3381);fill-opacity:1;fill-rule:nonzero;stroke:none"
           id="path3340"
           inkscape:connector-curvature="0"
           d="m 48,20 c -13.248,0 -24,8.959999 -24,20 0,11.040002 10.752,20 24,20 13.248,10e-7 24,-8.959999 24,-20 C 72,28.96 61.248,20 48,20 z m 5.71875,2.265625 c 3.916416,0.874499 7.039235,2.350404 9.90625,4.739583 l -7.84375,6.510417 C 54.440705,32.398504 52.759334,31.569172 50.875,31.145833 l 2.84375,-8.880208 z M 48,32.5 c 4.968,-10e-7 9,3.360001 9,7.5 -10e-7,4.14 -4.032001,7.5 -9,7.5 -4.967999,10e-7 -9,-3.360001 -9,-7.5 10e-7,-4.139999 4.032001,-7.5 9,-7.5 z m 0,2.5 c -3.312,-10e-7 -6,2.24 -6,5 0,2.760001 2.688,4.999999 6,5 3.312,10e-7 5.999999,-2.240001 6,-5 0,-2.759999 -2.688001,-5 -6,-5 z m 0,1.666667 c 2.208,0 4,1.493333 4,3.333333 0,1.84 -1.792,3.333333 -4,3.333333 C 45.792,43.33333 44,41.84 44,40 c 10e-7,-1.839999 1.792,-3.333333 4,-3.333333 z m -7.78125,9.817708 0.03125,0 c 1.351617,1.121706 3.037427,1.952208 4.9375,2.369792 l -2.84375,8.880208 c -3.916415,-0.8745 -7.039235,-2.350406 -9.90625,-4.739583 l 7.78125,-6.510417 z" />
        <path
           style="opacity:0.4;fill:#000000;fill-opacity:1;fill-rule:nonzero;stroke:none"
           id="path3383"
           inkscape:connector-curvature="0"
           d="m 48,20 c -13.248,0 -24,8.959999 -24,20 0,0.167119 -0.0049,0.333858 0,0.5 C 24.318728,29.69069 34.952543,21 48,21 61.047457,21 71.681272,29.690691 72,40.5 72.0049,40.333858 72,40.167119 72,40 72,28.96 61.248,20 48,20 z M 63,27.53125 55.78125,33.5 c -1.27094,-1.059117 -2.858841,-1.808973 -4.625,-2.25 L 50.875,32.15625 c 1.884334,0.423339 3.565705,1.226629 4.90625,2.34375 L 63.625,28 C 63.422335,27.831113 63.205411,27.69112 63,27.53125 z M 48,35 c -3.312,-10e-7 -6,2.24 -6,5 0,0.1725 0.01075,0.331982 0.03125,0.5 C 42.338691,37.979736 44.895,35.999999 48,36 c 3.104999,0 5.661308,1.979737 5.96875,4.5 C 53.989246,40.331982 54,40.1725 54,40 54,37.240001 51.311999,35 48,35 z m -8.96875,5.5 C 39.018523,40.663083 39,40.834251 39,41 c 0,4.139999 4.032001,7.500001 9,7.5 4.967999,0 8.999999,-3.36 9,-7.5 0,-0.165749 -0.01852,-0.336917 -0.03125,-0.5 -0.305161,3.910326 -4.19965,7 -8.96875,7 -4.7691,10e-7 -8.66359,-3.089675 -8.96875,-7 z m 5.03125,0 C 44.031334,40.667559 44,40.8252 44,41 c 0,1.84 1.792,3.343748 4,3.34375 2.208,0 4,-1.50375 4,-3.34375 0,-0.1748 -0.03133,-0.33244 -0.0625,-0.5 -0.296896,1.596225 -1.93926,2.84375 -3.9375,2.84375 -1.99824,-2e-6 -3.640604,-1.247525 -3.9375,-2.84375 z m 0.84375,9.25 -2.5625,8 C 38.70418,56.937317 35.762956,55.5705 33.0625,53.46875 L 32.4375,54 c 2.867015,2.389177 5.989835,3.8755 9.90625,4.75 L 45.1875,49.84375 C 45.08884,49.82207 45.003736,49.77389 44.90625,49.75 z" />
        <path
           style="opacity:0.8;fill:none;stroke:#ffffff;stroke-width:2;stroke-linecap:square;stroke-linejoin:miter;stroke-miterlimit:4;stroke-opacity:1;stroke-dasharray:none;stroke-dashoffset:0;filter:url(#filter3407)"
           id="path3401"
           clip-path="url(#clipPath3403)"
           transform="translate(80,0)"
           inkscape:connector-curvature="0"
           d="m -32,20 c -13.248,0 -24,8.959999 -24,20 0,11.040002 10.752,20 24,20 13.248,10e-7 24,-8.959999 24,-20 0,-11.04 -10.752,-20 -24,-20 z m 5.71875,2.265625 c 3.916416,0.874499 7.039235,2.350404 9.90625,4.739583 l -7.84375,6.510417 c -1.340545,-1.117121 -3.021916,-1.946453 -4.90625,-2.369792 l 2.84375,-8.880208 z M -32,32.5 c 4.968,-10e-7 9,3.360001 9,7.5 -1e-6,4.14 -4.032001,7.5 -9,7.5 -4.967999,10e-7 -9,-3.360001 -9,-7.5 10e-7,-4.139999 4.032001,-7.5 9,-7.5 z m 0,2.5 c -3.312,-10e-7 -6,2.24 -6,5 0,2.760001 2.688,4.999999 6,5 3.312,10e-7 5.999999,-2.240001 6,-5 0,-2.759999 -2.688001,-5 -6,-5 z m 0,1.666667 c 2.208,0 4,1.493333 4,3.333333 0,1.84 -1.792,3.333333 -4,3.333333 C -34.208,43.33333 -36,41.84 -36,40 c 10e-7,-1.839999 1.792,-3.333333 4,-3.333333 z m -7.78125,9.817708 0.03125,0 c 1.351617,1.121706 3.037427,1.952208 4.9375,2.369792 l -2.84375,8.880208 c -3.916415,-0.8745 -7.039235,-2.350406 -9.90625,-4.739583 l 7.78125,-6.510417 z" />
      </g>
    </g>
  </g>
</svg>
