<?xml version="1.0" encoding="UTF-8" standalone="no"?>
<!-- Created with Inkscape (http://www.inkscape.org/) -->

<svg
   xmlns:dc="http://purl.org/dc/elements/1.1/"
   xmlns:cc="http://creativecommons.org/ns#"
   xmlns:rdf="http://www.w3.org/1999/02/22-rdf-syntax-ns#"
   xmlns:svg="http://www.w3.org/2000/svg"
   xmlns="http://www.w3.org/2000/svg"
   xmlns:xlink="http://www.w3.org/1999/xlink"
   xmlns:sodipodi="http://sodipodi.sourceforge.net/DTD/sodipodi-0.dtd"
   xmlns:inkscape="http://www.inkscape.org/namespaces/inkscape"
   width="96"
   height="96"
   id="svg2982"
   version="1.1"
   inkscape:version="0.48.1 r9760"
   sodipodi:docname="templat-ikon-96x96.svg">
  <defs
     id="defs2984">
    <filter
       color-interpolation-filters="sRGB"
       inkscape:collect="always"
       id="filter6279-2">
      <feGaussianBlur
         inkscape:collect="always"
         stdDeviation="0.8"
         id="feGaussianBlur6281-1" />
    </filter>
    <linearGradient
       inkscape:collect="always"
       xlink:href="#linearGradient3250"
       id="linearGradient7218"
       gradientUnits="userSpaceOnUse"
       gradientTransform="translate(0,-7.8515622e-6)"
       x1="48"
       y1="1052.3622"
       x2="48"
       y2="902.36218" />
    <linearGradient
       id="linearGradient3250">
      <stop
         id="stop3252-2"
         style="stop-color:#60607c;stop-opacity:1"
         offset="0" />
      <stop
         id="stop3254"
         style="stop-color:#9d9db2;stop-opacity:1"
         offset="0.40000001" />
      <stop
         id="stop3256"
         style="stop-color:#60607c;stop-opacity:1"
         offset="0.60000002" />
      <stop
         id="stop3258-9"
         style="stop-color:#3d3d4f;stop-opacity:1"
         offset="1" />
    </linearGradient>
    <linearGradient
       x1="48"
       y1="90"
       x2="48"
       y2="5.9877172"
       id="linearGradient3617-7"
       xlink:href="#linearGradient3700-339"
       gradientUnits="userSpaceOnUse" />
    <linearGradient
       id="linearGradient3700-339">
      <stop
         id="stop3702-24"
         style="stop-color:#bebebe;stop-opacity:1"
         offset="0" />
      <stop
         id="stop3704-4"
         style="stop-color:#e6e6e6;stop-opacity:1"
         offset="1" />
    </linearGradient>
    <linearGradient
       inkscape:collect="always"
       xlink:href="#linearGradient3939"
       id="linearGradient10683"
       gradientUnits="userSpaceOnUse"
       x1="48"
       y1="88"
       x2="48"
       y2="-96" />
    <linearGradient
       id="linearGradient3939">
      <stop
         id="stop3941"
         style="stop-color:#6f6f91;stop-opacity:1"
         offset="0" />
      <stop
         id="stop3943"
         style="stop-color:#6f6f91;stop-opacity:0"
         offset="1" />
    </linearGradient>
    <linearGradient
       inkscape:collect="always"
       xlink:href="#linearGradient3987"
       id="linearGradient10687"
       gradientUnits="userSpaceOnUse"
       spreadMethod="reflect"
       x1="12"
       y1="48"
       x2="12"
       y2="90" />
    <linearGradient
       id="linearGradient3987">
      <stop
         id="stop3989"
         style="stop-color:#000000;stop-opacity:1"
         offset="0" />
      <stop
         id="stop3991"
         style="stop-color:#000000;stop-opacity:0"
         offset="1" />
    </linearGradient>
    <linearGradient
       inkscape:collect="always"
       xlink:href="#linearGradient3987"
       id="linearGradient10689"
       gradientUnits="userSpaceOnUse"
       gradientTransform="translate(71,0)"
       spreadMethod="reflect"
       x1="12"
       y1="48"
       x2="12"
       y2="90" />
    <linearGradient
       id="linearGradient10744">
      <stop
         id="stop10746"
         style="stop-color:#000000;stop-opacity:1"
         offset="0" />
      <stop
         id="stop10748"
         style="stop-color:#000000;stop-opacity:0"
         offset="1" />
    </linearGradient>
    <linearGradient
       x1="48"
       y1="20.220806"
       x2="48"
       y2="138.66119"
       id="linearGradient3613-5"
       xlink:href="#linearGradient3737-49"
       gradientUnits="userSpaceOnUse" />
    <linearGradient
       id="linearGradient3737-49">
      <stop
         id="stop3739-938"
         style="stop-color:#ffffff;stop-opacity:1"
         offset="0" />
      <stop
         id="stop3741-32"
         style="stop-color:#ffffff;stop-opacity:0"
         offset="1" />
    </linearGradient>
    <clipPath
       id="clipPath3613-39">
      <rect
         width="84"
         height="84"
         rx="6"
         ry="6"
         x="6"
         y="6"
         id="rect3615-49"
         style="fill:#ffffff;fill-opacity:1;fill-rule:nonzero;stroke:none" />
    </clipPath>
    <filter
       x="-0.192"
       y="-0.192"
       width="1.3839999"
       height="1.3839999"
       color-interpolation-filters="sRGB"
       id="filter3794-55">
      <feGaussianBlur
         id="feGaussianBlur3796-73"
         stdDeviation="5.28" />
    </filter>
    <linearGradient
       x1="40"
       y1="64"
       x2="72.331612"
       y2="8"
       id="linearGradient4107"
       xlink:href="#linearGradient4101"
       gradientUnits="userSpaceOnUse"
       gradientTransform="matrix(0.99144486,0.13052619,-0.13052619,0.99144486,8.6781261,-4.6936427)" />
    <linearGradient
       id="linearGradient4101">
      <stop
         id="stop4103"
         style="stop-color:#000000;stop-opacity:1"
         offset="0" />
      <stop
         id="stop4105"
         style="stop-color:#000000;stop-opacity:0"
         offset="1" />
    </linearGradient>
    <filter
       color-interpolation-filters="sRGB"
       id="filter4117">
      <feGaussianBlur
         id="feGaussianBlur4119"
         stdDeviation="0.24925597" />
    </filter>
    <linearGradient
       x1="40"
       y1="64"
       x2="66.009178"
       y2="18.950783"
       id="linearGradient4111"
       xlink:href="#linearGradient4101"
       gradientUnits="userSpaceOnUse"
       gradientTransform="matrix(0.79335334,0.60876143,-0.60876143,0.79335334,47.167905,-11.24319)" />
    <linearGradient
       id="linearGradient10765">
      <stop
         id="stop10767"
         style="stop-color:#000000;stop-opacity:1"
         offset="0" />
      <stop
         id="stop10769"
         style="stop-color:#000000;stop-opacity:0"
         offset="1" />
    </linearGradient>
    <filter
       color-interpolation-filters="sRGB"
       id="filter4121">
      <feGaussianBlur
         id="feGaussianBlur4123"
         stdDeviation="0.46576014" />
    </filter>
    <linearGradient
       x1="33"
       y1="15.5"
       x2="35"
       y2="15.5"
       id="linearGradient4063"
       xlink:href="#linearGradient4038"
       gradientUnits="userSpaceOnUse" />
    <linearGradient
       id="linearGradient4038">
      <stop
         id="stop4040"
         style="stop-color:#60607c;stop-opacity:1"
         offset="0" />
      <stop
         id="stop4048-7"
         style="stop-color:#9d9db2;stop-opacity:1"
         offset="0.40000001" />
      <stop
         id="stop4046-2"
         style="stop-color:#60607c;stop-opacity:1"
         offset="0.60000002" />
      <stop
         id="stop4042"
         style="stop-color:#3d3d4f;stop-opacity:1"
         offset="1" />
    </linearGradient>
    <linearGradient
       x1="31.999853"
       y1="41.5"
       x2="36.000145"
       y2="41.5"
       id="linearGradient4065-7"
       xlink:href="#linearGradient4025"
       gradientUnits="userSpaceOnUse" />
    <linearGradient
       id="linearGradient4025">
      <stop
         id="stop4027"
         style="stop-color:#d4d4d4;stop-opacity:1"
         offset="0" />
      <stop
         id="stop4035"
         style="stop-color:#ffffff;stop-opacity:1"
         offset="0.40000001" />
      <stop
         id="stop4033"
         style="stop-color:#e0e0e0;stop-opacity:1"
         offset="0.60000002" />
      <stop
         id="stop4029"
         style="stop-color:#868686;stop-opacity:1"
         offset="1" />
    </linearGradient>
    <linearGradient
       x1="31.5"
       y1="52.5"
       x2="36.5"
       y2="52.5"
       id="linearGradient4067"
       xlink:href="#linearGradient4038"
       gradientUnits="userSpaceOnUse" />
    <linearGradient
       id="linearGradient10786">
      <stop
         id="stop10788"
         style="stop-color:#60607c;stop-opacity:1"
         offset="0" />
      <stop
         id="stop10790"
         style="stop-color:#9d9db2;stop-opacity:1"
         offset="0.40000001" />
      <stop
         id="stop10792"
         style="stop-color:#60607c;stop-opacity:1"
         offset="0.60000002" />
      <stop
         id="stop10794"
         style="stop-color:#3d3d4f;stop-opacity:1"
         offset="1" />
    </linearGradient>
  </defs>
  <sodipodi:namedview
     id="base"
     pagecolor="#ffffff"
     bordercolor="#666666"
     borderopacity="1.0"
     inkscape:pageopacity="0.0"
     inkscape:pageshadow="2"
     inkscape:zoom="3.959798"
     inkscape:cx="36.39115"
     inkscape:cy="42.877139"
     inkscape:document-units="px"
     inkscape:current-layer="layer1"
     showgrid="false"
     inkscape:window-width="1280"
     inkscape:window-height="725"
     inkscape:window-x="0"
     inkscape:window-y="25"
     inkscape:window-maximized="1" />
  <metadata
     id="metadata2987">
    <rdf:RDF>
      <cc:Work
         rdf:about="">
        <dc:format>image/svg+xml</dc:format>
        <dc:type
           rdf:resource="http://purl.org/dc/dcmitype/StillImage" />
        <dc:title></dc:title>
      </cc:Work>
    </rdf:RDF>
  </metadata>
  <g
     inkscape:label="Layer 1"
     inkscape:groupmode="layer"
     id="layer1"
     transform="translate(0,-956.36218)">
    <g
       id="g10691">
      <rect
         transform="translate(0,-7.8515622e-6)"
         y="964.36218"
         x="8"
         height="80"
         width="80"
         id="rect9283"
         style="fill:#000000;fill-opacity:1;stroke:none;filter:url(#filter6279-2)"
         rx="5"
         ry="5" />
      <rect
         ry="5"
         rx="5"
         style="opacity:0.75;fill:url(#linearGradient7218);fill-opacity:1;stroke:none"
         id="rect9285"
         width="80"
         height="80"
         x="8"
         y="964.36218" />
      <g
         id="g3158"
         transform="matrix(0.61731,0,0,0.61731,18.29614,975.80428)">
        <g
           id="g3091">
          <path
             style="fill:url(#linearGradient3617-7);fill-opacity:1;fill-rule:nonzero;stroke:none"
             id="rect2419"
             inkscape:connector-curvature="0"
             d="M 12,6 C 8.676,6 6,8.676 6,12 l 0,2 c 0,2 2,3 2,5 l 0,58 c 0,2 -2,3 -2,5 l 0,2 c 0,3.324 2.676,6 6,6 l 72,0 c 3.324,0 6,-2.676 6,-6 l 0,-2 c 0,-2 -2,-3 -2,-5 l 0,-58 c 0,-2 2,-3 2,-5 l 0,-2 C 90,8.676 87.324,6 84,6 L 12,6 z" />
          <rect
             style="color:#000000;fill:url(#linearGradient10683);fill-opacity:1;fill-rule:nonzero;stroke:none;stroke-width:1.5;marker:none;visibility:visible;display:inline;overflow:visible;enable-background:accumulate"
             id="rect3937"
             y="6"
             x="12"
             height="84"
             width="72" />
          <rect
             style="opacity:0.2;color:#000000;fill:url(#linearGradient10687);fill-opacity:1;fill-rule:nonzero;stroke:none;stroke-width:1.5;marker:none;visibility:visible;display:inline;overflow:visible;enable-background:accumulate"
             id="rect3983"
             y="6"
             x="12"
             height="84"
             width="1" />
          <rect
             style="opacity:0.2;color:#000000;fill:url(#linearGradient10689);fill-opacity:1;fill-rule:nonzero;stroke:none;stroke-width:1.5;marker:none;visibility:visible;display:inline;overflow:visible;enable-background:accumulate"
             id="rect3995"
             y="6"
             x="83"
             height="84"
             width="1" />
          <path
             style="opacity:0.3;color:#000000;fill:#ffffff;fill-opacity:1;fill-rule:nonzero;stroke:none;stroke-width:1.5;marker:none;visibility:visible;display:inline;overflow:visible;enable-background:accumulate"
             id="rect3999"
             inkscape:connector-curvature="0"
             d="m 20,24 0,48 56,0 0,-48 -56,0 z m 1,1 54,0 0,46 -54,0 0,-46 z" />
          <rect
             style="opacity:0.1;color:#000000;fill:#54547e;fill-opacity:1;fill-rule:nonzero;stroke:none;stroke-width:1.5;marker:none;visibility:visible;display:inline;overflow:visible;enable-background:accumulate"
             id="rect4004"
             y="25"
             x="21"
             height="46"
             width="54" />
          <path
             style="opacity:0.4;color:#000000;fill:#ffffff;fill-opacity:1;fill-rule:nonzero;stroke:none;stroke-width:1.5;marker:none;visibility:visible;display:inline;overflow:visible;enable-background:accumulate"
             id="rect4006"
             inkscape:connector-curvature="0"
             d="m 40,76 0,4 16,0 0,-4 -16,0 z m 5.40625,0.90625 0.21875,0 L 46.78125,79 46.21875,79 46,78.59375 l -0.96875,0 -0.1875,0.40625 -0.5625,0 1.125,-2.09375 z m 2.84375,0 c 0.326641,2e-6 0.585522,0.02755 0.78125,0.125 l -0.21875,0.3125 c -0.112771,-0.08231 -0.281085,-0.124998 -0.53125,-0.125 -0.237206,2e-6 -0.442096,0.07305 -0.59375,0.21875 -0.151656,0.144754 -0.218751,0.340169 -0.21875,0.5625 -10e-7,0.222333 0.07876,0.40069 0.21875,0.53125 0.141285,0.130561 0.327886,0.1875 0.5625,0.1875 0.268312,0 0.473343,-0.07873 0.625,-0.21875 l 0.21875,0.3125 c -0.206098,0.15989 -0.508318,0.21875 -0.90625,0.21875 -0.397935,0 -0.685897,-0.09014 -0.90625,-0.28125 -0.220354,-0.191111 -0.34375,-0.451063 -0.34375,-0.78125 0,-0.307479 0.131314,-0.54375 0.375,-0.75 0.244981,-0.207193 0.556416,-0.312498 0.9375,-0.3125 z m 2.34375,0 c 0.409598,2e-6 0.721032,0.09582 0.9375,0.28125 0.216463,0.185436 0.343747,0.446334 0.34375,0.78125 -3e-6,0.334918 -0.116917,0.584463 -0.34375,0.78125 -0.225541,0.196788 -0.552671,0.28125 -0.96875,0.28125 -0.38238,0 -0.670201,-0.08635 -0.875,-0.28125 -0.203504,-0.194895 -0.3125,-0.442548 -0.3125,-0.78125 0,-0.296126 0.122099,-0.545642 0.34375,-0.75 0.222946,-0.2053 0.502989,-0.312498 0.875,-0.3125 z m -9.625,0.03125 0.53125,0 0.53125,1.25 0.5625,-1.25 0.21875,0 0.59375,1.25 0.53125,-1.25 0.53125,0 -0.9375,2.09375 -0.1875,0 -0.625,-1.3125 -0.59375,1.3125 -0.21875,0 -0.9375,-2.09375 z m 11.65625,0 0.28125,0 0.59375,1.40625 0.625,-1.40625 0.25,0 0.59375,2.0625 -0.5,0 -0.28125,-1.09375 -0.59375,1.125 -0.15625,0 -0.59375,-1.125 L 52.53125,79 52.0625,79 52.625,76.9375 z m -2.03125,0.28125 c -0.22554,2e-6 -0.379454,0.05505 -0.5,0.1875 -0.120547,0.131509 -0.187501,0.339223 -0.1875,0.5625 -10e-7,0.243147 0.04348,0.429101 0.15625,0.5625 0.112769,0.1334 0.28483,0.1875 0.5,0.1875 0.252758,0 0.430286,-0.05694 0.5625,-0.1875 0.133507,-0.13056 0.218748,-0.313676 0.21875,-0.5625 -2e-6,-0.487237 -0.257446,-0.749998 -0.75,-0.75 z m -5.0625,0.3125 -0.34375,0.78125 0.6875,0 -0.34375,-0.78125 z" />
          <g
             style="display:inline"
             id="layer5">
            <rect
               style="opacity:0.1;fill:url(#linearGradient3613-5);fill-opacity:1;fill-rule:nonzero;stroke:#ffffff;stroke-width:0.5;stroke-linecap:round;stroke-linejoin:miter;stroke-miterlimit:4;stroke-opacity:1;stroke-dasharray:none;stroke-dashoffset:0;filter:url(#filter3794-55)"
               id="rect3171"
               clip-path="url(#clipPath3613-39)"
               y="15"
               x="15"
               ry="12"
               rx="12"
               height="66"
               width="66" />
          </g>
        </g>
        <g
           id="layer4"
           style="display:inline">
          <path
             d="M 81.991846,7.763541 C 81.824486,7.785575 81.65964,7.8752174 81.548282,8.0203412 L 80.219153,9.7365373 C 79.77794,9.6892677 79.317088,9.8642411 79.01812,10.240331 l -23.008563,28.963315 -0.0269,-0.03506 c -0.290247,-0.222716 -0.708413,-0.160672 -0.931128,0.129571 0,0 -4.687031,7.205946 -7.099105,10.349422 -1.34004,1.746375 -4.164258,4.337312 -4.164258,4.337312 -0.222714,0.290248 -0.156592,0.677432 0.133651,0.900145 0,0 -4.591128,8.153867 -3.543303,8.957892 1.047825,0.804025 7.72006,-5.72884 7.72006,-5.72884 0.290247,0.222714 0.708414,0.160671 0.931128,-0.129572 0,0 1.759438,-3.36151 3.099479,-5.107886 2.412074,-3.143475 8.159805,-9.547865 8.159805,-9.547865 0.222714,-0.290247 0.160671,-0.708414 -0.129572,-0.931128 l -0.03098,-0.0041 22.04081,-29.752635 c 0.289236,-0.390632 0.303066,-0.8573 0.136254,-1.274368 L 83.6387,9.6193755 C 83.861416,9.3291279 83.795293,8.9419438 83.50505,8.7192297 L 82.479411,7.8907694 C 82.334287,7.7794123 82.159207,7.7415074 81.991846,7.763541 z"
             inkscape:connector-curvature="0"
             id="rect4071"
             style="opacity:0.15;color:#000000;fill:url(#linearGradient4107);fill-opacity:1;fill-rule:nonzero;stroke:none;stroke-width:1.5;marker:none;visibility:visible;display:inline;overflow:visible;filter:url(#filter4117);enable-background:accumulate" />
          <path
             d="m 104.43086,36.201907 c -0.15596,-0.0646 -0.34354,-0.06939 -0.51254,6.14e-4 l -2.00916,0.821704 c -0.35847,-0.261543 -0.84506,-0.340437 -1.29202,-0.164218 l -34.407658,13.578685 -0.0058,-0.04381 c -0.140003,-0.338001 -0.533168,-0.493352 -0.871166,-0.353352 0,0 -7.662061,3.897017 -11.322716,5.41331 -2.033697,0.842385 -5.77501,1.674093 -5.77501,1.674093 -0.338,0.140006 -0.474328,0.508378 -0.334327,0.846374 0,0 -8.052967,4.765892 -7.547536,5.986111 0.50543,1.220218 9.550188,-1.101291 9.550188,-1.101291 0.140004,0.337999 0.533169,0.493352 0.871166,0.353351 0,0 3.204473,-2.031434 5.238171,-2.873819 3.660655,-1.516293 11.840531,-4.188791 11.840531,-4.188791 0.337999,-0.140005 0.493352,-0.533169 0.353351,-0.871167 l -0.02478,-0.01904 33.964226,-14.746132 c 0.4458,-0.19368 0.69111,-0.590911 0.75518,-1.035508 l 2.02817,-0.846483 c 0.338,-0.140004 0.47433,-0.508377 0.33433,-0.846374 l -0.474,-1.230287 c -0.07,-0.169 -0.20268,-0.289367 -0.35863,-0.353966 z"
             inkscape:connector-curvature="0"
             id="path4109"
             style="opacity:0.2;color:#000000;fill:url(#linearGradient4111);fill-opacity:1;fill-rule:nonzero;stroke:none;stroke-width:1.5;marker:none;visibility:visible;display:inline;overflow:visible;filter:url(#filter4121);enable-background:accumulate" />
          <g
             transform="matrix(1.1438071,0.66037735,-0.66037735,1.1438071,45.736674,-35.279902)"
             id="g4058">
            <rect
               width="2"
               height="3"
               ry="0.5"
               x="33"
               y="14"
               id="rect4016"
               style="color:#000000;fill:url(#linearGradient4063);fill-opacity:1;fill-rule:nonzero;stroke:none;stroke-width:1.5;marker:none;visibility:visible;display:inline;overflow:visible;enable-background:accumulate" />
            <path
               d="m 33.5,16 c -0.554,0 -0.9905,0.446082 -1,1 L 32,46 c -0.0096,0.553918 0.446,1 1,1 l 2,0 c 0.554,0 1.0095,-0.446082 1,-1 L 35.5,17 c -0.0095,-0.553918 -0.446,-1 -1,-1 l -1,0 z M 32,60 c 0,0 1,7 2,7 1,0 2,-7 2,-7 l -4,0 z"
               inkscape:connector-curvature="0"
               id="rect4014"
               style="color:#000000;fill:url(#linearGradient4065-7);fill-opacity:1;fill-rule:nonzero;stroke:#8f8f8f;stroke-width:0.22714287;stroke-miterlimit:4;stroke-opacity:1;stroke-dasharray:none;marker:none;visibility:visible;display:inline;overflow:visible;enable-background:accumulate" />
            <path
               d="m 32,45 4,0 c 0.277,0 0.5,0.223 0.5,0.5 0,0 -0.5,6.5 -0.5,9.5 0,1.666667 0.5,4.5 0.5,4.5 0,0.277 -0.223,0.5 -0.5,0.5 l -4,0 c -0.277,0 -0.5,-0.223 -0.5,-0.5 0,0 0.5,-2.833333 0.5,-4.5 0,-3 -0.5,-9.5 -0.5,-9.5 0,-0.277 0.223,-0.5 0.5,-0.5 z"
               inkscape:connector-curvature="0"
               id="rect4018"
               style="color:#000000;fill:url(#linearGradient4067);fill-opacity:1;fill-rule:nonzero;stroke:#424255;stroke-width:0.22714287;stroke-miterlimit:4;stroke-opacity:1;stroke-dasharray:none;marker:none;visibility:visible;display:inline;overflow:visible;enable-background:accumulate" />
          </g>
        </g>
      </g>
    </g>
  </g>
</svg>
