<?xml version="1.0" encoding="UTF-8" standalone="no"?>
<!-- Created with Inkscape (http://www.inkscape.org/) -->

<svg
   xmlns:dc="http://purl.org/dc/elements/1.1/"
   xmlns:cc="http://creativecommons.org/ns#"
   xmlns:rdf="http://www.w3.org/1999/02/22-rdf-syntax-ns#"
   xmlns:svg="http://www.w3.org/2000/svg"
   xmlns="http://www.w3.org/2000/svg"
   xmlns:xlink="http://www.w3.org/1999/xlink"
   xmlns:sodipodi="http://sodipodi.sourceforge.net/DTD/sodipodi-0.dtd"
   xmlns:inkscape="http://www.inkscape.org/namespaces/inkscape"
   width="96"
   height="96"
   id="svg2982"
   version="1.1"
   inkscape:version="0.48.1 r9760"
   sodipodi:docname="templat-ikon-96x96.svg">
  <defs
     id="defs2984">
    <filter
       color-interpolation-filters="sRGB"
       inkscape:collect="always"
       id="filter6279-2">
      <feGaussianBlur
         inkscape:collect="always"
         stdDeviation="0.8"
         id="feGaussianBlur6281-1" />
    </filter>
    <linearGradient
       x1="25.220379"
       y1="61.92226"
       x2="94.567612"
       y2="61.92226"
       id="linearGradient4004-8"
       xlink:href="#linearGradient3362"
       gradientUnits="userSpaceOnUse" />
    <linearGradient
       id="linearGradient3362">
      <stop
         id="stop3364-90"
         style="stop-color:#4d4d4d;stop-opacity:1"
         offset="0" />
      <stop
         id="stop3366-6"
         style="stop-color:#ffffff;stop-opacity:1"
         offset="1" />
    </linearGradient>
    <radialGradient
       cx="59.893993"
       cy="61.92226"
       r="33.71384"
       fx="59.893993"
       fy="61.92226"
       id="radialGradient4012"
       xlink:href="#linearGradient3342-8"
       gradientUnits="userSpaceOnUse"
       gradientTransform="matrix(1,0,0,0.8375435,0,10.059672)" />
    <linearGradient
       id="linearGradient3342-8">
      <stop
         id="stop3344"
         style="stop-color:#000000;stop-opacity:0"
         offset="0" />
      <stop
         id="stop3350"
         style="stop-color:#000000;stop-opacity:0"
         offset="0.85000002" />
      <stop
         id="stop3346-7"
         style="stop-color:#000000;stop-opacity:1"
         offset="1" />
    </linearGradient>
    <linearGradient
       x1="26.180153"
       y1="61.92226"
       x2="93.607834"
       y2="61.92226"
       id="linearGradient4014"
       xlink:href="#linearGradient3330"
       gradientUnits="userSpaceOnUse" />
    <linearGradient
       id="linearGradient3330">
      <stop
         id="stop3332-9"
         style="stop-color:#ffffff;stop-opacity:0.203125"
         offset="0" />
      <stop
         id="stop3334"
         style="stop-color:#ffffff;stop-opacity:0.6796875"
         offset="1" />
    </linearGradient>
    <clipPath
       id="clipPath4031">
      <path
         d="M 48,32 C 28.117749,32 12,48.117749 12,68 12,87.882251 28.117749,104 48,104 67.882251,104 84,87.882251 84,68 84,48.117749 67.882251,32 48,32 z m 0,24 c 6.627417,0 12,5.372583 12,12 0,6.627417 -5.372583,12 -12,12 -6.627417,0 -12,-5.372583 -12,-12 0,-6.627417 5.372583,-12 12,-12 z"
         inkscape:connector-curvature="0"
         id="path4033"
         style="fill:#bbb1bf;fill-opacity:1;stroke:none" />
    </clipPath>
    <filter
       x="-0.19037074"
       y="-0.1707008"
       width="1.3807415"
       height="1.3414016"
       color-interpolation-filters="sRGB"
       id="filter4035">
      <feGaussianBlur
         id="feGaussianBlur4037"
         stdDeviation="4.9476562" />
    </filter>
    <clipPath
       id="clipPath4187">
      <path
         d="m 48,102 c -19.88225,0 -36,16.11775 -36,36 0,19.88225 16.11775,36 36,36 19.88225,0 36,-16.11775 36,-36 0,-19.88225 -16.11775,-36 -36,-36 z m 0,24 c 6.62742,0 12,5.37258 12,12 0,6.62742 -5.37258,12 -12,12 -6.62742,0 -12,-5.37258 -12,-12 0,-6.62742 5.37258,-12 12,-12 z"
         inkscape:connector-curvature="0"
         id="path4189"
         style="fill:#bbb1bf;fill-opacity:1;stroke:none" />
    </clipPath>
    <filter
       x="-0.18000001"
       y="-0.18000001"
       width="1.36"
       height="1.36"
       color-interpolation-filters="sRGB"
       id="filter4195">
      <feGaussianBlur
         id="feGaussianBlur4197"
         stdDeviation="5.2159999" />
    </filter>
  </defs>
  <sodipodi:namedview
     id="base"
     pagecolor="#ffffff"
     bordercolor="#666666"
     borderopacity="1.0"
     inkscape:pageopacity="0.0"
     inkscape:pageshadow="2"
     inkscape:zoom="3.959798"
     inkscape:cx="36.39115"
     inkscape:cy="42.877139"
     inkscape:document-units="px"
     inkscape:current-layer="layer1"
     showgrid="false"
     inkscape:window-width="1280"
     inkscape:window-height="725"
     inkscape:window-x="0"
     inkscape:window-y="25"
     inkscape:window-maximized="1" />
  <metadata
     id="metadata2987">
    <rdf:RDF>
      <cc:Work
         rdf:about="">
        <dc:format>image/svg+xml</dc:format>
        <dc:type
           rdf:resource="http://purl.org/dc/dcmitype/StillImage" />
        <dc:title></dc:title>
      </cc:Work>
    </rdf:RDF>
  </metadata>
  <g
     inkscape:label="Layer 1"
     inkscape:groupmode="layer"
     id="layer1"
     transform="translate(0,-956.36218)">
    <g
       id="g7315">
      <rect
         ry="5"
         rx="5"
         style="fill:#000000;fill-opacity:1;stroke:none;filter:url(#filter6279-2)"
         id="rect9283"
         width="80"
         height="80"
         x="8"
         y="964.36218"
         transform="translate(0,-7.8515622e-6)" />
      <rect
         y="964.36218"
         x="8"
         height="80"
         width="80"
         id="rect9285"
         style="opacity:0.9;fill:#ffffff;fill-opacity:1;stroke:none"
         rx="5"
         ry="5" />
      <g
         transform="matrix(0.75,0,0,0.75,12,968.36218)"
         id="layer6"
         style="display:inline">
        <path
           d="M 48,12 C 28.117749,12 12,28.117749 12,48 12,67.882251 28.117749,84 48,84 67.882251,84 84,67.882251 84,48 84,28.117749 67.882251,12 48,12 z m 0,24 c 6.627417,0 12,5.372583 12,12 0,6.627417 -5.372583,12 -12,12 -6.627417,0 -12,-5.372583 -12,-12 0,-6.627417 5.372583,-12 12,-12 z"
           inkscape:connector-curvature="0"
           id="path3978"
           style="fill:#bbb1bf;fill-opacity:1;stroke:none" />
        <path
           d="m 48,36 c -6.627417,0 -12,5.372583 -12,12 0,6.627417 5.372583,12 12,12 6.627417,0 12,-5.372583 12,-12 0,-6.627417 -5.372583,-12 -12,-12 z m 0,7 c 2.761424,0 5,2.238576 5,5 0,2.761424 -2.238576,5 -5,5 -2.761424,0 -5,-2.238576 -5,-5 0,-2.761424 2.238576,-5 5,-5 z"
           inkscape:connector-curvature="0"
           id="path3992"
           style="opacity:0.3;fill:#ffffff;fill-opacity:1;stroke:none" />
        <path
           inkscape:connector-curvature="0"
           d="m 92.579506,61.92226 a 32.685513,27.208481 0 1 1 -65.371025,0 32.685513,27.208481 0 1 1 65.371025,0 z"
           transform="matrix(0,0.16827027,-0.20214285,0,60.517143,37.921621)"
           id="path4002"
           style="opacity:0.6;fill:none;stroke:url(#linearGradient4004-8);stroke-width:5.4220953;stroke-linecap:round;stroke-linejoin:miter;stroke-miterlimit:4;stroke-opacity:1;stroke-dasharray:none;stroke-dashoffset:0;display:inline" />
        <path
           inkscape:connector-curvature="0"
           d="m 92.579506,61.92226 a 32.685513,27.208481 0 1 1 -65.371025,0 32.685513,27.208481 0 1 1 65.371025,0 z"
           transform="matrix(0,0.2906454,-0.34915584,0,69.620519,30.592193)"
           id="path4010"
           style="opacity:0.5;fill:url(#radialGradient4012);fill-opacity:1;fill-rule:evenodd;stroke:url(#linearGradient4014);stroke-width:3.13912511;stroke-linecap:round;stroke-linejoin:miter;stroke-miterlimit:4;stroke-opacity:1;stroke-dasharray:none;stroke-dashoffset:0;display:inline" />
        <path
           d="M 57.3125,33.21875 48,68 79.1875,50 C 74.413603,41.731368 66.53496,35.689901 57.3125,33.21875 z M 48,68 16.8125,86 c 4.773897,8.268632 12.65254,14.3101 21.875,16.78125 L 48,68 z"
           inkscape:connector-curvature="0"
           transform="translate(0,-20)"
           clip-path="url(#clipPath4031)"
           id="path4018"
           style="opacity:0.8;fill:#ffffff;fill-opacity:1;stroke:none;filter:url(#filter4035)" />
        <g
           transform="translate(0,-90)"
           clip-path="url(#clipPath4187)"
           id="g4175"
           style="opacity:0.6;filter:url(#filter4195)">
          <path
             inkscape:connector-curvature="0"
             d="m 60.947452,57.784124 a 20.708128,18.814091 0 0 1 -2.615496,2.905857 L 43.689098,47.38641 z"
             transform="matrix(1.5055399,0.86922388,-0.95672979,1.6571045,27.560302,21.500167)"
             id="path4039"
             style="fill:#7137c8;fill-opacity:1;stroke:none" />
          <path
             inkscape:connector-curvature="0"
             d="m 60.779363,58.010828 a 20.708128,18.814091 0 0 1 -3.384016,3.478847 L 43.689098,47.38641 z"
             transform="matrix(1.6792116,0.4499434,-0.49523981,1.8482599,-1.8956092,30.759984)"
             id="path4041"
             style="fill:#00ccff;fill-opacity:1;stroke:none" />
          <path
             inkscape:connector-curvature="0"
             d="m 62.72377,54.795738 a 20.708128,18.814091 0 0 1 -2.259683,3.622054 L 43.689098,47.38641 z"
             transform="matrix(1.7384478,0,-6.0266211e-8,1.9134595,-27.951218,47.328031)"
             id="path4043"
             style="fill:#ffcc00;fill-opacity:1;stroke:none" />
          <path
             inkscape:connector-curvature="0"
             d="m 61.622863,56.793455 a 20.708128,18.814091 0 0 1 -1.699251,2.272761 L 43.689098,47.38641 z"
             transform="matrix(1.6792116,-0.4499434,0.4952397,1.84826,-48.830877,70.075223)"
             id="path4045"
             style="fill:#ff0000;fill-opacity:1;stroke:none" />
          <path
             inkscape:connector-curvature="0"
             d="m 63.123303,53.883448 a 20.708128,18.814091 0 0 1 -2.370014,4.161918 L 43.689098,47.38641 z"
             transform="matrix(1.6792116,0.4499434,-0.49523981,1.8482599,-1.8956092,30.759984)"
             id="path4144"
             style="fill:#00ff00;fill-opacity:1;stroke:none" />
          <path
             inkscape:connector-curvature="0"
             d="m 60.947452,57.784124 a 20.708128,18.814091 0 0 1 -2.615496,2.905857 L 43.689098,47.38641 z"
             transform="matrix(-1.5055399,-0.86922388,0.95672979,-1.6571045,68.439684,254.49984)"
             id="path4155"
             style="fill:#7137c8;fill-opacity:1;stroke:none" />
          <path
             inkscape:connector-curvature="0"
             d="m 60.779363,58.010828 a 20.708128,18.814091 0 0 1 -3.384016,3.478847 L 43.689098,47.38641 z"
             transform="matrix(-1.6792116,-0.4499434,0.49523981,-1.8482599,97.895595,245.24003)"
             id="path4157"
             style="fill:#00ccff;fill-opacity:1;stroke:none" />
          <path
             inkscape:connector-curvature="0"
             d="m 62.72377,54.795738 a 20.708128,18.814091 0 0 1 -2.259683,3.622054 L 43.689098,47.38641 z"
             transform="matrix(-1.7384478,0,6.0266211e-8,-1.9134595,123.9512,228.67198)"
             id="path4159"
             style="fill:#ffcc00;fill-opacity:1;stroke:none" />
          <path
             inkscape:connector-curvature="0"
             d="m 61.622863,56.793455 a 20.708128,18.814091 0 0 1 -1.699251,2.272761 L 43.689098,47.38641 z"
             transform="matrix(-1.6792116,0.4499434,-0.4952397,-1.84826,144.83086,205.92479)"
             id="path4161"
             style="fill:#ff0000;fill-opacity:1;stroke:none" />
          <path
             inkscape:connector-curvature="0"
             d="m 63.123303,53.883448 a 20.708128,18.814091 0 0 1 -2.370014,4.161918 L 43.689098,47.38641 z"
             transform="matrix(-1.6792116,-0.4499434,0.49523981,-1.8482599,97.895595,245.24003)"
             id="path4163"
             style="fill:#00ff00;fill-opacity:1;stroke:none" />
        </g>
        <path
           d="m 48,33.5 c -8.008129,0 -14.5,6.491871 -14.5,14.5 0,8.008129 6.491871,14.5 14.5,14.5 8.008129,0 14.5,-6.491871 14.5,-14.5 0,-8.008129 -6.491871,-14.5 -14.5,-14.5 z m 0,2.5 c 6.627417,0 12,5.372583 12,12 0,6.627417 -5.372583,12 -12,12 -6.627417,0 -12,-5.372583 -12,-12 0,-6.627417 5.372583,-12 12,-12 z"
           inkscape:connector-curvature="0"
           id="path3986"
           style="opacity:0.2;fill:#000000;fill-opacity:1;stroke:none" />
      </g>
      <g
         style="font-size:13px;font-style:normal;font-variant:normal;font-weight:bold;font-stretch:normal;text-align:center;line-height:100%;writing-mode:lr-tb;text-anchor:middle;opacity:0.6;fill:#000000;fill-opacity:1;stroke:none;display:inline;font-family:MgOpen Moderna;-inkscape-font-specification:MgOpen Moderna Bold"
         id="text2947"
         transform="matrix(0.88631085,0,0,0.88631085,5.4677207,958.88887)">
        <path
           id="path2954"
           inkscape:connector-curvature="0"
           d="m 41.279181,71.489997 c -0.234009,1.100669 -0.758342,1.963002 -1.573,2.587 -0.814674,0.615334 -1.789673,0.923 -2.925,0.923 -1.38667,0 -2.509002,-0.498333 -3.367,-1.495 -0.814667,-0.944664 -1.222,-2.118996 -1.222,-3.523 0,-1.43866 0.420333,-2.621659 1.261,-3.549 0.875331,-0.96199 2.023663,-1.44299 3.445,-1.443 1.031327,1e-5 1.962993,0.316343 2.795,0.949 0.840658,0.624009 1.351991,1.434341 1.534,2.431 l -2.054,0 c -0.182007,-0.511326 -0.48534,-0.914326 -0.91,-1.209 -0.416006,-0.303325 -0.892672,-0.454992 -1.43,-0.455 -0.840671,8e-6 -1.50367,0.342341 -1.989,1.027 -0.433336,0.61534 -0.650002,1.360673 -0.65,2.236 -2e-6,0.875338 0.212331,1.625004 0.637,2.249 0.48533,0.710669 1.143996,1.066002 1.976,1.066 0.571994,2e-6 1.065994,-0.155998 1.482,-0.468 0.415993,-0.320664 0.732326,-0.762664 0.949,-1.326 l 2.041,0" />
        <path
           id="path2956"
           inkscape:connector-curvature="0"
           d="m 45.711571,65.249997 c 1.299995,1e-5 2.348661,0.433343 3.146,1.3 0.797326,0.866674 1.195992,1.958673 1.196,3.276 -8e-6,1.438671 -0.459341,2.617336 -1.378,3.536 -0.910006,0.910001 -2.084338,1.365 -3.523,1.365 l -3.185,0 0,-9.477 3.744,0 m -0.013,1.651 -1.807,0 0,6.123 1.56,0 c 0.840663,2e-6 1.503662,-0.294664 1.989,-0.884 0.450661,-0.554663 0.675994,-1.265329 0.676,-2.132 -6e-6,-0.797327 -0.195006,-1.49066 -0.585,-2.08 -0.450672,-0.684659 -1.061671,-1.026992 -1.833,-1.027" />
        <path
           id="path2958"
           inkscape:connector-curvature="0"
           d="m 54.906024,72.113997 -3.614,0 0,-1.768 3.614,0 0,1.768" />
        <path
           id="path2960"
           inkscape:connector-curvature="0"
           d="m 63.783806,74.726997 -2.132,0 c -0.07801,-0.129999 -0.143006,-0.294666 -0.195,-0.494 -0.04334,-0.207999 -0.06501,-0.493999 -0.065,-0.858 -6e-6,-0.112665 -6e-6,-0.220998 0,-0.325 -6e-6,-0.112665 0.0043,-0.225331 0.013,-0.338 -6e-6,-0.571997 -0.08667,-0.97933 -0.26,-1.222 -0.216672,-0.294663 -0.606672,-0.441996 -1.17,-0.442 l -2.067,0 0,3.679 -1.95,0 0,-9.477 4.602,0 c 0.866661,1e-5 1.58166,0.212343 2.145,0.637 0.615326,0.468009 0.922992,1.122341 0.923,1.963 -8e-6,0.502673 -0.125675,0.975006 -0.377,1.417 -0.251341,0.433339 -0.606674,0.736672 -1.066,0.91 0.389993,0.138671 0.680326,0.359671 0.871,0.663 0.225326,0.355337 0.337992,0.927337 0.338,1.716 l 0,0.572 c -8e-6,0.338002 0.01733,0.611001 0.052,0.819 0.04333,0.199334 0.155992,0.359667 0.338,0.481 l 0,0.299 m -3.497,-7.839 -2.379,0 0,2.483 2.288,0 c 0.407328,6e-6 0.749661,-0.09966 1.027,-0.299 0.311994,-0.225327 0.467994,-0.537327 0.468,-0.936 -6e-6,-0.381326 -0.134339,-0.684659 -0.403,-0.91 -0.268672,-0.225325 -0.602338,-0.337992 -1.001,-0.338" />
      </g>
    </g>
  </g>
</svg>
