<?xml version="1.0" encoding="UTF-8" standalone="no"?>
<!-- Created with Inkscape (http://www.inkscape.org/) -->

<svg
   xmlns:dc="http://purl.org/dc/elements/1.1/"
   xmlns:cc="http://creativecommons.org/ns#"
   xmlns:rdf="http://www.w3.org/1999/02/22-rdf-syntax-ns#"
   xmlns:svg="http://www.w3.org/2000/svg"
   xmlns="http://www.w3.org/2000/svg"
   xmlns:xlink="http://www.w3.org/1999/xlink"
   xmlns:sodipodi="http://sodipodi.sourceforge.net/DTD/sodipodi-0.dtd"
   xmlns:inkscape="http://www.inkscape.org/namespaces/inkscape"
   width="96"
   height="96"
   id="svg2982"
   version="1.1"
   inkscape:version="0.48.1 r9760"
   sodipodi:docname="templat-ikon-96x96.svg">
  <defs
     id="defs2984">
    <filter
       color-interpolation-filters="sRGB"
       inkscape:collect="always"
       id="filter6279-2">
      <feGaussianBlur
         inkscape:collect="always"
         stdDeviation="0.8"
         id="feGaussianBlur6281-1" />
    </filter>
    <linearGradient
       x1="25.220379"
       y1="61.92226"
       x2="94.567612"
       y2="61.92226"
       id="linearGradient4004-7"
       xlink:href="#linearGradient3362-8"
       gradientUnits="userSpaceOnUse" />
    <linearGradient
       id="linearGradient3362-8">
      <stop
         id="stop3364-7"
         style="stop-color:#4d4d4d;stop-opacity:1"
         offset="0" />
      <stop
         id="stop3366-2"
         style="stop-color:#ffffff;stop-opacity:1"
         offset="1" />
    </linearGradient>
    <radialGradient
       cx="59.893993"
       cy="61.92226"
       r="33.71384"
       fx="59.893993"
       fy="61.92226"
       id="radialGradient4012-6"
       xlink:href="#linearGradient3342-6"
       gradientUnits="userSpaceOnUse"
       gradientTransform="matrix(1,0,0,0.8375435,0,10.059672)" />
    <linearGradient
       id="linearGradient3342-6">
      <stop
         id="stop3344-2"
         style="stop-color:#000000;stop-opacity:0"
         offset="0" />
      <stop
         id="stop3350-9"
         style="stop-color:#000000;stop-opacity:0"
         offset="0.85000002" />
      <stop
         id="stop3346-70"
         style="stop-color:#000000;stop-opacity:1"
         offset="1" />
    </linearGradient>
    <linearGradient
       x1="26.180153"
       y1="61.92226"
       x2="93.607834"
       y2="61.92226"
       id="linearGradient4014-3"
       xlink:href="#linearGradient3330-7"
       gradientUnits="userSpaceOnUse" />
    <linearGradient
       id="linearGradient3330-7">
      <stop
         id="stop3332-2"
         style="stop-color:#ffffff;stop-opacity:0.203125"
         offset="0" />
      <stop
         id="stop3334-3"
         style="stop-color:#ffffff;stop-opacity:0.6796875"
         offset="1" />
    </linearGradient>
    <clipPath
       id="clipPath4031-5">
      <path
         d="M 48,32 C 28.117749,32 12,48.117749 12,68 12,87.882251 28.117749,104 48,104 67.882251,104 84,87.882251 84,68 84,48.117749 67.882251,32 48,32 z m 0,24 c 6.627417,0 12,5.372583 12,12 0,6.627417 -5.372583,12 -12,12 -6.627417,0 -12,-5.372583 -12,-12 0,-6.627417 5.372583,-12 12,-12 z"
         inkscape:connector-curvature="0"
         id="path4033-1"
         style="fill:#bbb1bf;fill-opacity:1;stroke:none" />
    </clipPath>
    <filter
       x="-0.19037074"
       y="-0.1707008"
       width="1.3807415"
       height="1.3414016"
       color-interpolation-filters="sRGB"
       id="filter4035-7">
      <feGaussianBlur
         id="feGaussianBlur4037-8"
         stdDeviation="4.9476562" />
    </filter>
    <clipPath
       id="clipPath4187-9">
      <path
         d="m 48,102 c -19.88225,0 -36,16.11775 -36,36 0,19.88225 16.11775,36 36,36 19.88225,0 36,-16.11775 36,-36 0,-19.88225 -16.11775,-36 -36,-36 z m 0,24 c 6.62742,0 12,5.37258 12,12 0,6.62742 -5.37258,12 -12,12 -6.62742,0 -12,-5.37258 -12,-12 0,-6.62742 5.37258,-12 12,-12 z"
         inkscape:connector-curvature="0"
         id="path4189-4"
         style="fill:#bbb1bf;fill-opacity:1;stroke:none" />
    </clipPath>
    <filter
       x="-0.18000001"
       y="-0.18000001"
       width="1.36"
       height="1.36"
       color-interpolation-filters="sRGB"
       id="filter4195-1">
      <feGaussianBlur
         id="feGaussianBlur4197-6"
         stdDeviation="5.2159999" />
    </filter>
  </defs>
  <sodipodi:namedview
     id="base"
     pagecolor="#ffffff"
     bordercolor="#666666"
     borderopacity="1.0"
     inkscape:pageopacity="0.0"
     inkscape:pageshadow="2"
     inkscape:zoom="3.959798"
     inkscape:cx="36.39115"
     inkscape:cy="42.877139"
     inkscape:document-units="px"
     inkscape:current-layer="layer1"
     showgrid="false"
     inkscape:window-width="1280"
     inkscape:window-height="725"
     inkscape:window-x="0"
     inkscape:window-y="25"
     inkscape:window-maximized="1" />
  <metadata
     id="metadata2987">
    <rdf:RDF>
      <cc:Work
         rdf:about="">
        <dc:format>image/svg+xml</dc:format>
        <dc:type
           rdf:resource="http://purl.org/dc/dcmitype/StillImage" />
        <dc:title></dc:title>
      </cc:Work>
    </rdf:RDF>
  </metadata>
  <g
     inkscape:label="Layer 1"
     inkscape:groupmode="layer"
     id="layer1"
     transform="translate(0,-956.36218)">
    <g
       id="g7775">
      <rect
         ry="5"
         rx="5"
         style="fill:#000000;fill-opacity:1;stroke:none;filter:url(#filter6279-2)"
         id="rect9283"
         width="80"
         height="80"
         x="8"
         y="964.36218"
         transform="translate(0,-7.8515622e-6)" />
      <rect
         y="964.36218"
         x="8"
         height="80"
         width="80"
         id="rect9285"
         style="opacity:0.9;fill:#ffffff;fill-opacity:1;stroke:none"
         rx="5"
         ry="5" />
      <g
         id="g3110"
         style="display:inline"
         transform="matrix(0.75,0,0,0.75,12,968.36218)">
        <path
           d="M 48,12 C 28.117749,12 12,28.117749 12,48 12,67.882251 28.117749,84 48,84 67.882251,84 84,67.882251 84,48 84,28.117749 67.882251,12 48,12 z m 0,24 c 6.627417,0 12,5.372583 12,12 0,6.627417 -5.372583,12 -12,12 -6.627417,0 -12,-5.372583 -12,-12 0,-6.627417 5.372583,-12 12,-12 z"
           inkscape:connector-curvature="0"
           id="path3978"
           style="fill:#ccbb98;fill-opacity:1;stroke:none" />
        <path
           d="m 48,36 c -6.627417,0 -12,5.372583 -12,12 0,6.627417 5.372583,12 12,12 6.627417,0 12,-5.372583 12,-12 0,-6.627417 -5.372583,-12 -12,-12 z m 0,7 c 2.761424,0 5,2.238576 5,5 0,2.761424 -2.238576,5 -5,5 -2.761424,0 -5,-2.238576 -5,-5 0,-2.761424 2.238576,-5 5,-5 z"
           inkscape:connector-curvature="0"
           id="path3992"
           style="opacity:0.3;fill:#ffffff;fill-opacity:1;stroke:none" />
        <path
           d="m 92.579506,61.92226 a 32.685513,27.208481 0 1 1 -65.371025,0 32.685513,27.208481 0 1 1 65.371025,0 z"
           transform="matrix(0,0.16827027,-0.20214285,0,60.517143,37.921621)"
           id="path4002"
           style="opacity:0.6;fill:none;stroke:url(#linearGradient4004-7);stroke-width:5.4220953;stroke-linecap:round;stroke-linejoin:miter;stroke-miterlimit:4;stroke-opacity:1;stroke-dasharray:none;stroke-dashoffset:0;display:inline"
           inkscape:connector-curvature="0" />
        <path
           d="m 92.579506,61.92226 a 32.685513,27.208481 0 1 1 -65.371025,0 32.685513,27.208481 0 1 1 65.371025,0 z"
           transform="matrix(0,0.2906454,-0.34915584,0,69.620519,30.592193)"
           id="path4010"
           style="opacity:0.5;fill:url(#radialGradient4012-6);fill-opacity:1;fill-rule:evenodd;stroke:url(#linearGradient4014-3);stroke-width:3.13912511;stroke-linecap:round;stroke-linejoin:miter;stroke-miterlimit:4;stroke-opacity:1;stroke-dasharray:none;stroke-dashoffset:0;display:inline"
           inkscape:connector-curvature="0" />
        <path
           d="M 57.3125,33.21875 48,68 79.1875,50 C 74.413603,41.731368 66.53496,35.689901 57.3125,33.21875 z M 48,68 16.8125,86 c 4.773897,8.268632 12.65254,14.3101 21.875,16.78125 L 48,68 z"
           inkscape:connector-curvature="0"
           transform="translate(0,-20)"
           clip-path="url(#clipPath4031-5)"
           id="path4018"
           style="opacity:0.8;fill:#ffffff;fill-opacity:1;stroke:none;filter:url(#filter4035-7)" />
        <g
           transform="translate(0,-90)"
           clip-path="url(#clipPath4187-9)"
           id="g4175"
           style="opacity:0.6;filter:url(#filter4195-1)">
          <path
             d="m 60.947452,57.784124 a 20.708128,18.814091 0 0 1 -2.615496,2.905857 L 43.689098,47.38641 z"
             transform="matrix(1.5055399,0.86922388,-0.95672979,1.6571045,27.560302,21.500167)"
             id="path4039"
             style="fill:#7137c8;fill-opacity:1;stroke:none"
             inkscape:connector-curvature="0" />
          <path
             d="m 60.779363,58.010828 a 20.708128,18.814091 0 0 1 -3.384016,3.478847 L 43.689098,47.38641 z"
             transform="matrix(1.6792116,0.4499434,-0.49523981,1.8482599,-1.8956092,30.759984)"
             id="path4041"
             style="fill:#00ccff;fill-opacity:1;stroke:none"
             inkscape:connector-curvature="0" />
          <path
             d="m 62.72377,54.795738 a 20.708128,18.814091 0 0 1 -2.259683,3.622054 L 43.689098,47.38641 z"
             transform="matrix(1.7384478,0,-6.0266211e-8,1.9134595,-27.951218,47.328031)"
             id="path4043"
             style="fill:#ffcc00;fill-opacity:1;stroke:none"
             inkscape:connector-curvature="0" />
          <path
             d="m 61.622863,56.793455 a 20.708128,18.814091 0 0 1 -1.699251,2.272761 L 43.689098,47.38641 z"
             transform="matrix(1.6792116,-0.4499434,0.4952397,1.84826,-48.830877,70.075223)"
             id="path4045"
             style="fill:#ff0000;fill-opacity:1;stroke:none"
             inkscape:connector-curvature="0" />
          <path
             d="m 63.123303,53.883448 a 20.708128,18.814091 0 0 1 -2.370014,4.161918 L 43.689098,47.38641 z"
             transform="matrix(1.6792116,0.4499434,-0.49523981,1.8482599,-1.8956092,30.759984)"
             id="path4144"
             style="fill:#00ff00;fill-opacity:1;stroke:none"
             inkscape:connector-curvature="0" />
          <path
             d="m 60.947452,57.784124 a 20.708128,18.814091 0 0 1 -2.615496,2.905857 L 43.689098,47.38641 z"
             transform="matrix(-1.5055399,-0.86922388,0.95672979,-1.6571045,68.439684,254.49984)"
             id="path4155"
             style="fill:#7137c8;fill-opacity:1;stroke:none"
             inkscape:connector-curvature="0" />
          <path
             d="m 60.779363,58.010828 a 20.708128,18.814091 0 0 1 -3.384016,3.478847 L 43.689098,47.38641 z"
             transform="matrix(-1.6792116,-0.4499434,0.49523981,-1.8482599,97.895595,245.24003)"
             id="path4157"
             style="fill:#00ccff;fill-opacity:1;stroke:none"
             inkscape:connector-curvature="0" />
          <path
             d="m 62.72377,54.795738 a 20.708128,18.814091 0 0 1 -2.259683,3.622054 L 43.689098,47.38641 z"
             transform="matrix(-1.7384478,0,6.0266211e-8,-1.9134595,123.9512,228.67198)"
             id="path4159"
             style="fill:#ffcc00;fill-opacity:1;stroke:none"
             inkscape:connector-curvature="0" />
          <path
             d="m 61.622863,56.793455 a 20.708128,18.814091 0 0 1 -1.699251,2.272761 L 43.689098,47.38641 z"
             transform="matrix(-1.6792116,0.4499434,-0.4952397,-1.84826,144.83086,205.92479)"
             id="path4161"
             style="fill:#ff0000;fill-opacity:1;stroke:none"
             inkscape:connector-curvature="0" />
          <path
             d="m 63.123303,53.883448 a 20.708128,18.814091 0 0 1 -2.370014,4.161918 L 43.689098,47.38641 z"
             transform="matrix(-1.6792116,-0.4499434,0.49523981,-1.8482599,97.895595,245.24003)"
             id="path4163"
             style="fill:#00ff00;fill-opacity:1;stroke:none"
             inkscape:connector-curvature="0" />
        </g>
        <path
           d="m 48,33.5 c -8.008129,0 -14.5,6.491871 -14.5,14.5 0,8.008129 6.491871,14.5 14.5,14.5 8.008129,0 14.5,-6.491871 14.5,-14.5 0,-8.008129 -6.491871,-14.5 -14.5,-14.5 z m 0,2.5 c 6.627417,0 12,5.372583 12,12 0,6.627417 -5.372583,12 -12,12 -6.627417,0 -12,-5.372583 -12,-12 0,-6.627417 5.372583,-12 12,-12 z"
           inkscape:connector-curvature="0"
           id="path3986"
           style="opacity:0.2;fill:#000000;fill-opacity:1;stroke:none" />
        <path
           d="m 44.649417,66.417828 -4.914749,0.01107 -3.697131,0 -0.376355,1.5663 2.800522,0.01107 0.647551,0 c 1.79774,0 2.8962,0.725935 2.590205,1.997998 -0.330243,1.394031 -1.907108,2.003536 -3.569834,2.003536 l -0.619878,0 0.802521,-3.425935 -2.783918,0 -1.189945,5.003303 3.962793,0 c 2.971366,0 5.809105,-1.563275 6.298407,-3.580904 0.09761,-0.36713 0.08873,-1.287466 -0.143901,-1.837496 0,-0.02455 -0.01555,-0.0341 -0.02767,-0.08302 -0.01254,-0.01214 -0.02124,-0.09878 0.02767,-0.110693 0.02466,-0.01235 0.07089,0.03748 0.08302,0.04981 0.02425,0.06114 0.03874,0.10516 0.03874,0.10516 l 2.518255,7.117531 6.420168,-7.239293 2.711969,0 0.653085,0 c 1.797739,0 2.895144,0.725935 2.601275,1.997998 -0.342367,1.394031 -1.917973,2.003536 -3.580904,2.003536 l -0.625413,0 0.808056,-3.425935 -2.789453,0 -1.18441,5.003303 3.962793,0 c 2.971778,0 5.821641,-1.563275 6.298406,-3.580904 0.489099,-2.005605 -1.61537,-3.575369 -4.599275,-3.575369 l -5.905448,0 c 0,0 -1.56597,1.848085 -1.859634,2.202784 -1.55278,1.870693 -1.837988,2.372582 -1.887308,2.507186 0.01233,-0.134604 -0.04815,-0.633766 -0.708433,-2.529324 -0.183103,-0.513656 -0.74164,-2.180646 -0.74164,-2.180646 l -2.020139,0 0,-0.01107 z m 2.545929,8.855403 c -7.533121,0 -13.637322,0.867902 -13.637322,1.931587 0,1.076215 6.104201,1.931582 13.637322,1.931582 7.532916,0 13.642857,-0.855367 13.642857,-1.931582 0,-1.063685 -6.109941,-1.931587 -13.642857,-1.931587 z m -0.492582,1.333845 c 1.724372,0 3.121531,0.282194 3.121531,0.636482 0,0.354699 -1.397159,0.647552 -3.121531,0.647552 -1.72458,0 -3.115995,-0.292853 -3.115995,-0.647552 0,-0.354288 1.391415,-0.636482 3.115995,-0.636482 z"
           inkscape:connector-curvature="0"
           id="path3745"
           style="opacity:0.6;fill-rule:evenodd" />
      </g>
    </g>
  </g>
</svg>
