<?xml version="1.0" encoding="UTF-8" standalone="no"?>
<!-- Created with Inkscape (http://www.inkscape.org/) -->

<svg
   xmlns:dc="http://purl.org/dc/elements/1.1/"
   xmlns:cc="http://creativecommons.org/ns#"
   xmlns:rdf="http://www.w3.org/1999/02/22-rdf-syntax-ns#"
   xmlns:svg="http://www.w3.org/2000/svg"
   xmlns="http://www.w3.org/2000/svg"
   xmlns:xlink="http://www.w3.org/1999/xlink"
   xmlns:sodipodi="http://sodipodi.sourceforge.net/DTD/sodipodi-0.dtd"
   xmlns:inkscape="http://www.inkscape.org/namespaces/inkscape"
   width="96"
   height="96"
   id="svg2982"
   version="1.1"
   inkscape:version="0.48.1 r9760"
   sodipodi:docname="templat-ikon-96x96.svg">
  <defs
     id="defs2984">
    <filter
       color-interpolation-filters="sRGB"
       inkscape:collect="always"
       id="filter6279-2">
      <feGaussianBlur
         inkscape:collect="always"
         stdDeviation="0.8"
         id="feGaussianBlur6281-1" />
    </filter>
    <linearGradient
       inkscape:collect="always"
       xlink:href="#linearGradient3682"
       id="linearGradient7218"
       gradientUnits="userSpaceOnUse"
       gradientTransform="translate(0,-7.8515622e-6)"
       x1="48"
       y1="1052.3622"
       x2="48"
       y2="902.36218" />
    <linearGradient
       id="linearGradient3682">
      <stop
         id="stop3684-8"
         style="stop-color:#ffffff;stop-opacity:1"
         offset="0" />
      <stop
         id="stop3686"
         style="stop-color:#dddddd;stop-opacity:1"
         offset="1" />
    </linearGradient>
    <linearGradient
       x1="48"
       y1="90"
       x2="48"
       y2="5.9877172"
       id="linearGradient3617-33"
       xlink:href="#linearGradient3700-38"
       gradientUnits="userSpaceOnUse" />
    <linearGradient
       id="linearGradient3700-38">
      <stop
         id="stop3702-60"
         style="stop-color:#1e1e1e;stop-opacity:1"
         offset="0" />
      <stop
         id="stop3704-48"
         style="stop-color:#434343;stop-opacity:1"
         offset="1" />
    </linearGradient>
    <linearGradient
       x1="48"
       y1="40"
       x2="48"
       y2="88"
       id="linearGradient3688-8"
       xlink:href="#linearGradient3682"
       gradientUnits="userSpaceOnUse"
       gradientTransform="matrix(0.9360134,0,0,0.95792792,3.1798569,3.7864872)" />
    <linearGradient
       id="linearGradient7307">
      <stop
         id="stop7309"
         style="stop-color:#ffffff;stop-opacity:1"
         offset="0" />
      <stop
         id="stop7311"
         style="stop-color:#dddddd;stop-opacity:1"
         offset="1" />
    </linearGradient>
    <linearGradient
       x1="48"
       y1="90"
       x2="48"
       y2="84"
       id="linearGradient3710-9"
       xlink:href="#linearGradient3704"
       gradientUnits="userSpaceOnUse"
       gradientTransform="matrix(1,0,0,0.66666667,0,30)" />
    <linearGradient
       id="linearGradient3704">
      <stop
         id="stop3706-7"
         style="stop-color:#ff3300;stop-opacity:1"
         offset="0" />
      <stop
         id="stop3708-7"
         style="stop-color:#ff481a;stop-opacity:1"
         offset="1" />
    </linearGradient>
    <linearGradient
       x1="48"
       y1="36"
       x2="47.800915"
       y2="6.0639906"
       id="linearGradient3760-6"
       xlink:href="#linearGradient3754-4"
       gradientUnits="userSpaceOnUse" />
    <linearGradient
       id="linearGradient3754-4">
      <stop
         id="stop3756-3"
         style="stop-color:#a4a4a4;stop-opacity:1"
         offset="0" />
      <stop
         id="stop3758-0"
         style="stop-color:#cecece;stop-opacity:1"
         offset="1" />
    </linearGradient>
    <linearGradient
       x1="51"
       y1="23"
       x2="75"
       y2="30"
       id="linearGradient3796"
       xlink:href="#linearGradient3737-30"
       gradientUnits="userSpaceOnUse"
       spreadMethod="reflect" />
    <linearGradient
       id="linearGradient3737-30">
      <stop
         id="stop3739-92"
         style="stop-color:#ffffff;stop-opacity:1"
         offset="0" />
      <stop
         id="stop3741-54"
         style="stop-color:#ffffff;stop-opacity:0"
         offset="1" />
    </linearGradient>
    <linearGradient
       x1="36"
       y1="37"
       x2="36"
       y2="5.9355507"
       id="linearGradient3733-0"
       xlink:href="#linearGradient3737-30"
       gradientUnits="userSpaceOnUse" />
    <linearGradient
       id="linearGradient7326">
      <stop
         id="stop7328"
         style="stop-color:#ffffff;stop-opacity:1"
         offset="0" />
      <stop
         id="stop7330"
         style="stop-color:#ffffff;stop-opacity:0"
         offset="1" />
    </linearGradient>
    <linearGradient
       x1="12"
       y1="79"
       x2="12"
       y2="85"
       id="linearGradient3835"
       xlink:href="#linearGradient3829-5"
       gradientUnits="userSpaceOnUse" />
    <linearGradient
       id="linearGradient3829-5">
      <stop
         id="stop3831-9"
         style="stop-color:#000000;stop-opacity:0.34108528"
         offset="0" />
      <stop
         id="stop3837"
         style="stop-color:#7f7f7f;stop-opacity:0"
         offset="0.5" />
      <stop
         id="stop3833-4"
         style="stop-color:#ffffff;stop-opacity:0.20155039"
         offset="1" />
    </linearGradient>
    <linearGradient
       y2="85"
       x2="12"
       y1="79"
       x1="12"
       gradientTransform="translate(70,0)"
       gradientUnits="userSpaceOnUse"
       id="linearGradient3188-69"
       xlink:href="#linearGradient3829-5"
       inkscape:collect="always" />
    <linearGradient
       id="linearGradient7338">
      <stop
         id="stop7340"
         style="stop-color:#000000;stop-opacity:0.34108528"
         offset="0" />
      <stop
         id="stop7342"
         style="stop-color:#7f7f7f;stop-opacity:0"
         offset="0.5" />
      <stop
         id="stop7344"
         style="stop-color:#ffffff;stop-opacity:0.20155039"
         offset="1" />
    </linearGradient>
  </defs>
  <sodipodi:namedview
     id="base"
     pagecolor="#ffffff"
     bordercolor="#666666"
     borderopacity="1.0"
     inkscape:pageopacity="0.0"
     inkscape:pageshadow="2"
     inkscape:zoom="3.959798"
     inkscape:cx="36.39115"
     inkscape:cy="42.877139"
     inkscape:document-units="px"
     inkscape:current-layer="layer1"
     showgrid="false"
     inkscape:window-width="1280"
     inkscape:window-height="725"
     inkscape:window-x="0"
     inkscape:window-y="25"
     inkscape:window-maximized="1" />
  <metadata
     id="metadata2987">
    <rdf:RDF>
      <cc:Work
         rdf:about="">
        <dc:format>image/svg+xml</dc:format>
        <dc:type
           rdf:resource="http://purl.org/dc/dcmitype/StillImage" />
        <dc:title></dc:title>
      </cc:Work>
    </rdf:RDF>
  </metadata>
  <g
     inkscape:label="Layer 1"
     inkscape:groupmode="layer"
     id="layer1"
     transform="translate(0,-956.36218)">
    <g
       id="g7260">
      <rect
         transform="translate(0,-7.8515622e-6)"
         y="964.36218"
         x="8"
         height="80"
         width="80"
         id="rect9283"
         style="fill:#000000;fill-opacity:1;stroke:none;filter:url(#filter6279-2)"
         rx="5"
         ry="5" />
      <rect
         ry="5"
         rx="5"
         style="fill:url(#linearGradient7218);fill-opacity:1;stroke:none"
         id="rect9285"
         width="80"
         height="80"
         x="8"
         y="964.36218" />
      <g
         id="g3092"
         transform="matrix(0.64285714,0,0,0.64285714,17.142857,973.50504)">
        <path
           d="M 12,6 C 8.676,6 6,8.676 6,12 l 0,72 c 0,3.324 2.676,6 6,6 l 72,0 c 3.324,0 6,-2.676 6,-6 L 90,16 C 90,13.819561 89.956128,14.06515 86,10 81.936351,5.8243665 82.289461,6.109022 80,6 L 12,6 z m -2,74 6,0 0,4 -6,0 0,-4 z m 70,0 6,0 0,4 -6,0 0,-4 z"
           inkscape:connector-curvature="0"
           id="rect2419"
           style="fill:url(#linearGradient3617-33);fill-opacity:1;fill-rule:nonzero;stroke:none" />
        <path
           d="m 18,6 0,26 c 0,2.216 1.784,4 4,4 l 52,0 c 2.216,0 4,-1.784 4,-4 L 78,6 18,6 z m 0.96875,0.96875 58.0625,0 0,25.03125 c 0,1.689388 -1.341862,3.03125 -3.03125,3.03125 l -52,0 c -1.689388,0 -3.03125,-1.341862 -3.03125,-3.03125 l 0,-25.03125 z"
           inkscape:connector-curvature="0"
           id="path3739"
           style="opacity:0.1;color:#000000;fill:#000000;fill-opacity:1;fill-rule:nonzero;stroke:none;stroke-width:0.5;marker:none;visibility:visible;display:inline;overflow:visible;enable-background:accumulate" />
        <path
           d="m 18,6 0,26 c 0,2.216 1.784,4 4,4 l 52,0 c 2.216,0 4,-1.784 4,-4 L 78,6 18,6 z"
           inkscape:connector-curvature="0"
           id="rect3712"
           style="opacity:0.1;color:#000000;fill:#000000;fill-opacity:1;fill-rule:nonzero;stroke:none;stroke-width:0.5;marker:none;visibility:visible;display:inline;overflow:visible;enable-background:accumulate" />
        <rect
           width="60"
           height="48"
           x="18"
           y="42"
           id="rect3680"
           style="color:#000000;fill:url(#linearGradient3688-8);fill-opacity:1;fill-rule:nonzero;stroke:none;stroke-width:0.5;marker:none;visibility:visible;display:inline;overflow:visible;enable-background:accumulate" />
        <rect
           width="52"
           height="4"
           x="22"
           y="86"
           id="rect3690"
           style="color:#000000;fill:url(#linearGradient3710-9);fill-opacity:1;fill-rule:nonzero;stroke:none;stroke-width:0.5;marker:none;visibility:visible;display:inline;overflow:visible;enable-background:accumulate" />
        <path
           d="m 32,6 0,26 c 0,2.216 1.784,4 4,4 l 38,0 c 2.216,0 4,-1.784 4,-4 L 78,6 32,6 z m 24,6 12,0 0,20 -12,0 0,-20 z"
           inkscape:connector-curvature="0"
           id="rect3746"
           style="color:#000000;fill:url(#linearGradient3760-6);fill-opacity:1;fill-rule:nonzero;stroke:none;stroke-width:0.5;marker:none;visibility:visible;display:inline;overflow:visible;enable-background:accumulate" />
        <path
           d="m 31,6 0,26 c 0,2.216 1.784,4 4,4 l 1,0 c -2.216,0 -4,-1.784 -4,-4 L 32,6 31,6 z"
           inkscape:connector-curvature="0"
           id="path3785"
           style="opacity:0.2;color:#000000;fill:#000000;fill-opacity:1;fill-rule:nonzero;stroke:none;stroke-width:0.5;marker:none;visibility:visible;display:inline;overflow:visible;enable-background:accumulate" />
        <path
           d="m 32,6 0,26 c 0,2.216 1.784,4 4,4 l 38,0 c 2.216,0 4,-1.784 4,-4 L 78,6 32,6 z m 24,6 12,0 0,20 -12,0 0,-20 z"
           inkscape:connector-curvature="0"
           id="path3794"
           style="opacity:0.5;color:#000000;fill:url(#linearGradient3796);fill-opacity:1;fill-rule:nonzero;stroke:none;stroke-width:0.5;marker:none;visibility:visible;display:inline;overflow:visible;enable-background:accumulate" />
        <rect
           width="52"
           height="1"
           x="22"
           y="80"
           id="rect3694"
           style="opacity:0.2;color:#000000;fill:#ff3300;fill-opacity:1;fill-rule:nonzero;stroke:none;stroke-width:0.5;marker:none;visibility:visible;display:inline;overflow:visible;enable-background:accumulate" />
        <rect
           width="52"
           height="1"
           x="22"
           y="72"
           id="rect3696"
           style="opacity:0.2;color:#000000;fill:#ff3300;fill-opacity:1;fill-rule:nonzero;stroke:none;stroke-width:0.5;marker:none;visibility:visible;display:inline;overflow:visible;enable-background:accumulate" />
        <rect
           width="52"
           height="1"
           x="22"
           y="64"
           id="rect3698"
           style="opacity:0.2;color:#000000;fill:#ff3300;fill-opacity:1;fill-rule:nonzero;stroke:none;stroke-width:0.5;marker:none;visibility:visible;display:inline;overflow:visible;enable-background:accumulate" />
        <rect
           width="52"
           height="1"
           x="22"
           y="56"
           id="rect3700"
           style="opacity:0.2;color:#000000;fill:#ff3300;fill-opacity:1;fill-rule:nonzero;stroke:none;stroke-width:0.5;marker:none;visibility:visible;display:inline;overflow:visible;enable-background:accumulate" />
        <rect
           width="52"
           height="1"
           x="22"
           y="48"
           id="rect3702"
           style="opacity:0.2;color:#000000;fill:#ff3300;fill-opacity:1;fill-rule:nonzero;stroke:none;stroke-width:0.5;marker:none;visibility:visible;display:inline;overflow:visible;enable-background:accumulate" />
        <path
           d="m 32,6 0,1 46,0 0,-1 -46,0 z m 24,26 0,1 12,0 0,-1 -12,0 z"
           inkscape:connector-curvature="0"
           id="path3762"
           style="opacity:0.6;color:#000000;fill:#ffffff;fill-opacity:1;fill-rule:nonzero;stroke:none;stroke-width:0.5;marker:none;visibility:visible;display:inline;overflow:visible;enable-background:accumulate" />
        <path
           d="m 17,6 0,26 c 0,2.755476 2.244524,5 5,5 l 52,0 c 2.755476,0 5,-2.244524 5,-5 l 0,-26 -1,0 0,26 c 0,2.216 -1.784,4 -4,4 l -52,0 c -2.216,0 -4,-1.784 -4,-4 L 18,6 17,6 z"
           inkscape:connector-curvature="0"
           id="path3719"
           style="opacity:0.1;color:#000000;fill:url(#linearGradient3733-0);fill-opacity:1;fill-rule:nonzero;stroke:none;stroke-width:0.5;marker:none;visibility:visible;display:inline;overflow:visible;enable-background:accumulate" />
        <path
           d="m 56,12 0,20 1,0 0,-19 10,0 0,19 1,0 0,-20 -12,0 z"
           inkscape:connector-curvature="0"
           id="rect3780"
           style="opacity:0.3;color:#000000;fill:#000000;fill-opacity:1;fill-rule:nonzero;stroke:none;stroke-width:0.5;marker:none;visibility:visible;display:inline;overflow:visible;enable-background:accumulate" />
        <path
           d="m 13,13 -3,5 2,0 0,6 2,0 0,-6 2,0 -3,-5 z"
           inkscape:connector-curvature="0"
           id="path3798"
           style="fill:#313131;fill-opacity:1;stroke:none" />
        <path
           d="m 13,13 -3,5 0.59375,0 L 13,14 15.40625,18 16,18 13,13 z"
           inkscape:connector-curvature="0"
           id="path3800"
           style="opacity:0.2;fill:#000000;fill-opacity:1;stroke:none" />
        <path
           d="M 10.59375,18 10,19 l 2,0 0,-1 -1.40625,0 z M 14,18 14,19 16,19 15.40625,18 14,18 z m -2,6 0,1 2,0 0,-1 -2,0 z"
           inkscape:connector-curvature="0"
           id="path3805"
           style="opacity:0.15;fill:#ffffff;fill-opacity:1;stroke:none" />
        <path
           d="m 9,79 0,6 8,0 0,-6 -8,0 z m 1,1 6,0 0,4 -6,0 0,-4 z"
           inkscape:connector-curvature="0"
           id="rect3824"
           style="color:#000000;fill:url(#linearGradient3835);fill-opacity:1;fill-rule:nonzero;stroke:none;stroke-width:0.5;marker:none;visibility:visible;display:inline;overflow:visible;enable-background:accumulate" />
        <path
           d="m 79,79 0,6 8,0 0,-6 -8,0 z m 1,1 6,0 0,4 -6,0 0,-4 z"
           inkscape:connector-curvature="0"
           id="path3839"
           style="color:#000000;fill:url(#linearGradient3188-69);fill-opacity:1;fill-rule:nonzero;stroke:none;stroke-width:0.5;marker:none;visibility:visible;display:inline;overflow:visible;enable-background:accumulate" />
      </g>
    </g>
  </g>
</svg>
