<?xml version="1.0" encoding="UTF-8" standalone="no"?>
<!-- Created with Inkscape (http://www.inkscape.org/) -->
<svg id="svg2982" xmlns:rdf="http://www.w3.org/1999/02/22-rdf-syntax-ns#" xmlns="http://www.w3.org/2000/svg" height="96" width="96" version="1.1" xmlns:cc="http://creativecommons.org/ns#" xmlns:xlink="http://www.w3.org/1999/xlink" xmlns:dc="http://purl.org/dc/elements/1.1/">
 <defs id="defs2984">
  <filter id="filter6279-2" color-interpolation-filters="sRGB">
   <feGaussianBlur id="feGaussianBlur6281-1" stdDeviation="0.8"/>
  </filter>
  <linearGradient id="linearGradient7218" y2="902.36" xlink:href="#linearGradient3682" gradientUnits="userSpaceOnUse" x2="48" gradientTransform="translate(0 -.0000078516)" y1="1052.4" x1="48"/>
  <linearGradient id="linearGradient3682">
   <stop id="stop3684-8" style="stop-color:#fff" offset="0"/>
   <stop id="stop3686" style="stop-color:#ddd" offset="1"/>
  </linearGradient>
  <linearGradient id="linearGradient3617-33" y2="5.9877" gradientUnits="userSpaceOnUse" x2="48" y1="90" x1="48">
   <stop id="stop3702-60" style="stop-color:#1e1e1e" offset="0"/>
   <stop id="stop3704-48" style="stop-color:#434343" offset="1"/>
  </linearGradient>
  <linearGradient id="linearGradient3688-8" y2="88" xlink:href="#linearGradient3682" gradientUnits="userSpaceOnUse" x2="48" gradientTransform="matrix(.93601 0 0 .95793 3.1799 3.7865)" y1="40" x1="48"/>
  <linearGradient id="linearGradient3710-9" y2="84" gradientUnits="userSpaceOnUse" x2="48" gradientTransform="matrix(1 0 0 .66667 0 30)" y1="90" x1="48">
   <stop id="stop3706-7" style="stop-color:#f30" offset="0"/>
   <stop id="stop3708-7" style="stop-color:#ff481a" offset="1"/>
  </linearGradient>
  <linearGradient id="linearGradient3760-6" y2="6.064" gradientUnits="userSpaceOnUse" x2="47.801" y1="36" x1="48">
   <stop id="stop3756-3" style="stop-color:#a4a4a4" offset="0"/>
   <stop id="stop3758-0" style="stop-color:#cecece" offset="1"/>
  </linearGradient>
  <linearGradient id="linearGradient3796" y2="30" xlink:href="#linearGradient3737-30" spreadMethod="reflect" gradientUnits="userSpaceOnUse" x2="75" y1="23" x1="51"/>
  <linearGradient id="linearGradient3737-30">
   <stop id="stop3739-92" style="stop-color:#fff" offset="0"/>
   <stop id="stop3741-54" style="stop-color:#fff;stop-opacity:0" offset="1"/>
  </linearGradient>
  <linearGradient id="linearGradient3733-0" y2="5.9356" xlink:href="#linearGradient3737-30" gradientUnits="userSpaceOnUse" x2="36" y1="37" x1="36"/>
  <linearGradient id="linearGradient3835" y2="85" xlink:href="#linearGradient3829-5" gradientUnits="userSpaceOnUse" x2="12" y1="79" x1="12"/>
  <linearGradient id="linearGradient3829-5">
   <stop id="stop3831-9" style="stop-opacity:.34109" offset="0"/>
   <stop id="stop3837" style="stop-color:#7f7f7f;stop-opacity:0" offset=".5"/>
   <stop id="stop3833-4" style="stop-color:#fff;stop-opacity:.20155" offset="1"/>
  </linearGradient>
  <linearGradient id="linearGradient3188-69" y2="85" xlink:href="#linearGradient3829-5" gradientUnits="userSpaceOnUse" y1="79" gradientTransform="translate(70)" x2="12" x1="12"/>
 </defs>
 <metadata id="metadata2987">
  <rdf:RDF>
   <cc:Work rdf:about="">
    <dc:format>image/svg+xml</dc:format>
    <dc:type rdf:resource="http://purl.org/dc/dcmitype/StillImage"/>
    <dc:title/>
   </cc:Work>
  </rdf:RDF>
 </metadata>
 <g id="layer1" transform="translate(0 -956.36)">
  <g id="g7260">
   <rect id="rect9283" ry="5" style="filter:url(#filter6279-2)" rx="5" transform="translate(0 -.0000078516)" height="80" width="80" y="964.36" x="8"/>
   <rect id="rect9285" style="fill:url(#linearGradient7218)" rx="5" ry="5" height="80" width="80" y="964.36" x="8"/>
   <g id="g3092" transform="matrix(.64286 0 0 .64286 17.143 973.51)">
    <path id="rect2419" style="fill:url(#linearGradient3617-33)" d="m12 6c-3.324 0-6 2.676-6 6v72c0 3.324 2.676 6 6 6h72c3.324 0 6-2.676 6-6v-68c0-2.18-0.044-1.935-4-6-4.064-4.1756-3.711-3.891-6-4h-68zm-2 74h6v4h-6v-4zm70 0h6v4h-6v-4z"/>
    <path id="path3739" style="opacity:.1;color:#000000" d="m18 6v26c0 2.216 1.784 4 4 4h52c2.216 0 4-1.784 4-4v-26h-60zm0.96875 0.96875h58.062v25.031c0 1.6894-1.3419 3.0312-3.0312 3.0312h-52c-1.6894 0-3.0312-1.3419-3.0312-3.0312v-25.031z"/>
    <path id="rect3712" style="opacity:.1;color:#000000" d="m18 6v26c0 2.216 1.784 4 4 4h52c2.216 0 4-1.784 4-4v-26h-60z"/>
    <rect id="rect3680" style="color:#000000;fill:url(#linearGradient3688-8)" height="48" width="60" y="42" x="18"/>
    <rect id="rect3690" style="color:#000000;fill:url(#linearGradient3710-9)" height="4" width="52" y="86" x="22"/>
    <path id="rect3746" style="color:#000000;fill:url(#linearGradient3760-6)" d="m32 6v26c0 2.216 1.784 4 4 4h38c2.216 0 4-1.784 4-4v-26h-46zm24 6h12v20h-12v-20z"/>
    <path id="path3785" style="opacity:.2;color:#000000" d="m31 6v26c0 2.216 1.784 4 4 4h1c-2.216 0-4-1.784-4-4v-26h-1z"/>
    <path id="path3794" style="opacity:.5;color:#000000;fill:url(#linearGradient3796)" d="m32 6v26c0 2.216 1.784 4 4 4h38c2.216 0 4-1.784 4-4v-26h-46zm24 6h12v20h-12v-20z"/>
    <rect id="rect3694" style="opacity:.2;color:#000000;fill:#f30" height="1" width="52" y="80" x="22"/>
    <rect id="rect3696" style="opacity:.2;color:#000000;fill:#f30" height="1" width="52" y="72" x="22"/>
    <rect id="rect3698" style="opacity:.2;color:#000000;fill:#f30" height="1" width="52" y="64" x="22"/>
    <rect id="rect3700" style="opacity:.2;color:#000000;fill:#f30" height="1" width="52" y="56" x="22"/>
    <rect id="rect3702" style="opacity:.2;color:#000000;fill:#f30" height="1" width="52" y="48" x="22"/>
    <path id="path3762" style="opacity:.6;color:#000000;fill:#fff" d="m32 6v1h46v-1h-46zm24 26v1h12v-1h-12z"/>
    <path id="path3719" style="opacity:.1;color:#000000;fill:url(#linearGradient3733-0)" d="m17 6v26c0 2.7555 2.2445 5 5 5h52c2.7555 0 5-2.2445 5-5v-26h-1v26c0 2.216-1.784 4-4 4h-52c-2.216 0-4-1.784-4-4v-26h-1z"/>
    <path id="rect3780" style="opacity:.3;color:#000000" d="m56 12v20h1v-19h10v19h1v-20h-12z"/>
    <path id="path3798" style="fill:#313131" d="m13 13-3 5h2v6h2v-6h2l-3-5z"/>
    <path id="path3800" style="opacity:.2" d="m13 13-3 5h0.59375l2.406-4 2.406 4h0.594l-3-5z"/>
    <path id="path3805" style="opacity:.15;fill:#fff" d="m10.594 18-0.594 1h2v-1h-1.4062zm3.406 0v1h2l-0.594-1h-1.406zm-2 6v1h2v-1h-2z"/>
    <path id="rect3824" style="color:#000000;fill:url(#linearGradient3835)" d="m9 79v6h8v-6h-8zm1 1h6v4h-6v-4z"/>
    <path id="path3839" style="color:#000000;fill:url(#linearGradient3188-69)" d="m79 79v6h8v-6h-8zm1 1h6v4h-6v-4z"/>
   </g>
  </g>
 </g>
</svg>
