<?xml version="1.0" encoding="UTF-8" standalone="no"?>
<!-- Created with Inkscape (http://www.inkscape.org/) -->

<svg
   xmlns:dc="http://purl.org/dc/elements/1.1/"
   xmlns:cc="http://creativecommons.org/ns#"
   xmlns:rdf="http://www.w3.org/1999/02/22-rdf-syntax-ns#"
   xmlns:svg="http://www.w3.org/2000/svg"
   xmlns="http://www.w3.org/2000/svg"
   xmlns:xlink="http://www.w3.org/1999/xlink"
   xmlns:sodipodi="http://sodipodi.sourceforge.net/DTD/sodipodi-0.dtd"
   xmlns:inkscape="http://www.inkscape.org/namespaces/inkscape"
   width="96"
   height="96"
   id="svg2982"
   version="1.1"
   inkscape:version="0.48.1 r9760"
   sodipodi:docname="templat-ikon-96x96.svg">
  <defs
     id="defs2984">
    <filter
       color-interpolation-filters="sRGB"
       inkscape:collect="always"
       id="filter6279-2">
      <feGaussianBlur
         inkscape:collect="always"
         stdDeviation="0.8"
         id="feGaussianBlur6281-1" />
    </filter>
    <linearGradient
       inkscape:collect="always"
       xlink:href="#linearGradient3700-38"
       id="linearGradient7218"
       gradientUnits="userSpaceOnUse"
       gradientTransform="translate(0,-7.8515622e-6)"
       x1="48"
       y1="1052.3622"
       x2="48"
       y2="902.36218" />
    <linearGradient
       id="linearGradient3700-38">
      <stop
         id="stop3702-60"
         style="stop-color:#1e1e1e;stop-opacity:1"
         offset="0" />
      <stop
         id="stop3704-48"
         style="stop-color:#434343;stop-opacity:1"
         offset="1" />
    </linearGradient>
    <linearGradient
       x1="32.251034"
       y1="6.1317081"
       x2="32.251034"
       y2="90.238609"
       id="linearGradient3721-48"
       xlink:href="#ButtonShadow-0-70"
       gradientUnits="userSpaceOnUse"
       gradientTransform="translate(0,-97)" />
    <linearGradient
       x1="45.447727"
       y1="92.539597"
       x2="45.447727"
       y2="7.0165396"
       id="ButtonShadow-0-70"
       gradientUnits="userSpaceOnUse"
       gradientTransform="matrix(1.0058652,0,0,0.994169,100,0)">
      <stop
         id="stop3750-8-86"
         style="stop-color:#000000;stop-opacity:1"
         offset="0" />
      <stop
         id="stop3752-5-24"
         style="stop-color:#000000;stop-opacity:0.58823532"
         offset="1" />
    </linearGradient>
    <linearGradient
       x1="48"
       y1="90"
       x2="48"
       y2="5.9877172"
       id="linearGradient3617-79"
       xlink:href="#linearGradient3700-39"
       gradientUnits="userSpaceOnUse" />
    <linearGradient
       id="linearGradient3700-39">
      <stop
         id="stop3702-28"
         style="stop-color:#bcbcbc;stop-opacity:1"
         offset="0" />
      <stop
         id="stop3704-30"
         style="stop-color:#dfdfdf;stop-opacity:1"
         offset="1" />
    </linearGradient>
    <radialGradient
       cx="48"
       cy="90.171875"
       r="42"
       fx="48"
       fy="90.171875"
       id="radialGradient3619-25"
       xlink:href="#linearGradient3737-78"
       gradientUnits="userSpaceOnUse"
       gradientTransform="matrix(1.1573129,0,0,0.99590774,-7.5510206,0.19713193)" />
    <linearGradient
       id="linearGradient3737-78">
      <stop
         id="stop3739-91"
         style="stop-color:#ffffff;stop-opacity:1"
         offset="0" />
      <stop
         id="stop3741-549"
         style="stop-color:#ffffff;stop-opacity:0"
         offset="1" />
    </linearGradient>
    <linearGradient
       x1="48"
       y1="20.220806"
       x2="48"
       y2="138.66119"
       id="linearGradient3613-99"
       xlink:href="#linearGradient3737-78"
       gradientUnits="userSpaceOnUse" />
    <linearGradient
       id="linearGradient8014">
      <stop
         id="stop8016"
         style="stop-color:#ffffff;stop-opacity:1"
         offset="0" />
      <stop
         id="stop8018"
         style="stop-color:#ffffff;stop-opacity:0"
         offset="1" />
    </linearGradient>
    <clipPath
       id="clipPath3613-35">
      <rect
         width="84"
         height="84"
         rx="6"
         ry="6"
         x="6"
         y="6"
         id="rect3615-7"
         style="fill:#ffffff;fill-opacity:1;fill-rule:nonzero;stroke:none" />
    </clipPath>
    <filter
       x="-0.192"
       y="-0.192"
       width="1.3839999"
       height="1.3839999"
       color-interpolation-filters="sRGB"
       id="filter3794-08">
      <feGaussianBlur
         id="feGaussianBlur3796-1"
         stdDeviation="5.28" />
    </filter>
    <linearGradient
       x1="41"
       y1="15.991676"
       x2="41"
       y2="76.068146"
       id="linearGradient4108"
       xlink:href="#linearGradient3465"
       gradientUnits="userSpaceOnUse" />
    <linearGradient
       id="linearGradient3465">
      <stop
         id="stop3467-9"
         style="stop-color:#c8c8c8;stop-opacity:1"
         offset="0" />
      <stop
         id="stop3469"
         style="stop-color:#fdfdfd;stop-opacity:1"
         offset="1" />
    </linearGradient>
    <radialGradient
       cx="48"
       cy="69.838715"
       r="32"
       fx="48"
       fy="69.838715"
       id="radialGradient4159"
       xlink:href="#linearGradient3224-9"
       gradientUnits="userSpaceOnUse"
       gradientTransform="matrix(1.40625,-8.9961053e-8,7.5993417e-8,1.1879112,-19.500005,-11.962183)" />
    <linearGradient
       id="linearGradient3224-9">
      <stop
         id="stop3226-7"
         style="stop-color:#4f445a;stop-opacity:1"
         offset="0" />
      <stop
         id="stop3228-8"
         style="stop-color:#000000;stop-opacity:1"
         offset="1" />
    </linearGradient>
    <linearGradient
       x1="142.47113"
       y1="16.125"
       x2="142.47113"
       y2="64.188072"
       id="linearGradient2935"
       xlink:href="#linearGradient3687-25"
       gradientUnits="userSpaceOnUse"
       gradientTransform="translate(-80,0)" />
    <linearGradient
       id="linearGradient3687-25">
      <stop
         id="stop3689-3"
         style="stop-color:#ffffff;stop-opacity:1"
         offset="0" />
      <stop
         id="stop3691-4"
         style="stop-color:#ffffff;stop-opacity:0"
         offset="1" />
    </linearGradient>
    <linearGradient
       x1="65.15625"
       y1="16.125"
       x2="65.15625"
       y2="69.687508"
       id="linearGradient2675"
       xlink:href="#linearGradient3737-2"
       gradientUnits="userSpaceOnUse" />
    <linearGradient
       id="linearGradient3737-2">
      <stop
         id="stop3739-8-9"
         style="stop-color:#ffffff;stop-opacity:1"
         offset="0" />
      <stop
         id="stop3741-1-0"
         style="stop-color:#ffffff;stop-opacity:0"
         offset="1" />
    </linearGradient>
    <linearGradient
       x1="48"
       y1="76"
       x2="48"
       y2="88"
       id="linearGradient3834"
       xlink:href="#linearGradient3980"
       gradientUnits="userSpaceOnUse"
       gradientTransform="translate(2,0)" />
    <linearGradient
       id="linearGradient3980">
      <stop
         id="stop3982"
         style="stop-color:#cacaca;stop-opacity:1"
         offset="0" />
      <stop
         id="stop3984"
         style="stop-color:#f3f3f3;stop-opacity:1"
         offset="1" />
    </linearGradient>
    <linearGradient
       x1="47"
       y1="9"
       x2="47"
       y2="13"
       id="linearGradient3826"
       xlink:href="#linearGradient2994"
       gradientUnits="userSpaceOnUse" />
    <linearGradient
       x1="45.447727"
       y1="92.539597"
       x2="45.447727"
       y2="7.0165396"
       id="linearGradient2994"
       gradientUnits="userSpaceOnUse"
       gradientTransform="matrix(1.0058652,0,0,0.994169,100,0)">
      <stop
         id="stop2996"
         style="stop-color:#000000;stop-opacity:1"
         offset="0" />
      <stop
         id="stop2998"
         style="stop-color:#000000;stop-opacity:0.3488372"
         offset="1" />
    </linearGradient>
    <linearGradient
       x1="45"
       y1="86"
       x2="45"
       y2="82"
       id="linearGradient4083"
       xlink:href="#linearGradient3885-20"
       gradientUnits="userSpaceOnUse"
       gradientTransform="matrix(0.66666666,0,0,0.66666666,18,26.666666)" />
    <linearGradient
       id="linearGradient3885-20">
      <stop
         id="stop3887-1"
         style="stop-color:#818181;stop-opacity:1"
         offset="0" />
      <stop
         id="stop3889-9"
         style="stop-color:#fdfdfd;stop-opacity:1"
         offset="1" />
    </linearGradient>
    <linearGradient
       x1="-84"
       y1="20"
       x2="-76"
       y2="20"
       id="linearGradient4090"
       xlink:href="#linearGradient3980"
       gradientUnits="userSpaceOnUse"
       gradientTransform="translate(161,0)" />
    <linearGradient
       id="linearGradient8053">
      <stop
         id="stop8055"
         style="stop-color:#cacaca;stop-opacity:1"
         offset="0" />
      <stop
         id="stop8057"
         style="stop-color:#f3f3f3;stop-opacity:1"
         offset="1" />
    </linearGradient>
    <linearGradient
       x1="16"
       y1="80"
       x2="27"
       y2="80"
       id="linearGradient4087-2"
       xlink:href="#linearGradient3849"
       gradientUnits="userSpaceOnUse"
       gradientTransform="matrix(0,-1,1,0,-60,101)" />
    <linearGradient
       id="linearGradient3849">
      <stop
         id="stop3851"
         style="stop-color:#000000;stop-opacity:1"
         offset="0" />
      <stop
         id="stop3853-0"
         style="stop-color:#000000;stop-opacity:0"
         offset="1" />
    </linearGradient>
    <linearGradient
       x1="-84"
       y1="20"
       x2="-76"
       y2="20"
       id="linearGradient4013"
       xlink:href="#linearGradient3980"
       gradientUnits="userSpaceOnUse"
       gradientTransform="translate(160,0)" />
    <linearGradient
       id="linearGradient8064">
      <stop
         id="stop8066"
         style="stop-color:#cacaca;stop-opacity:1"
         offset="0" />
      <stop
         id="stop8068"
         style="stop-color:#f3f3f3;stop-opacity:1"
         offset="1" />
    </linearGradient>
    <linearGradient
       x1="16"
       y1="80"
       x2="27"
       y2="80"
       id="linearGradient4015"
       xlink:href="#linearGradient3849"
       gradientUnits="userSpaceOnUse"
       gradientTransform="matrix(0,-1,1,0,-60,100)" />
    <linearGradient
       id="linearGradient8071">
      <stop
         id="stop8073"
         style="stop-color:#000000;stop-opacity:1"
         offset="0" />
      <stop
         id="stop8075"
         style="stop-color:#000000;stop-opacity:0"
         offset="1" />
    </linearGradient>
    <linearGradient
       x1="-84"
       y1="20"
       x2="-76"
       y2="20"
       id="linearGradient4025-9"
       xlink:href="#linearGradient3980"
       gradientUnits="userSpaceOnUse"
       gradientTransform="translate(160,0)" />
    <linearGradient
       id="linearGradient8078">
      <stop
         id="stop8080"
         style="stop-color:#cacaca;stop-opacity:1"
         offset="0" />
      <stop
         id="stop8082"
         style="stop-color:#f3f3f3;stop-opacity:1"
         offset="1" />
    </linearGradient>
    <linearGradient
       x1="16"
       y1="80"
       x2="27"
       y2="80"
       id="linearGradient4027"
       xlink:href="#linearGradient3849"
       gradientUnits="userSpaceOnUse"
       gradientTransform="matrix(0,-1,1,0,-60,100)" />
    <linearGradient
       id="linearGradient8085">
      <stop
         id="stop8087"
         style="stop-color:#000000;stop-opacity:1"
         offset="0" />
      <stop
         id="stop8089"
         style="stop-color:#000000;stop-opacity:0"
         offset="1" />
    </linearGradient>
    <linearGradient
       x1="-84"
       y1="20"
       x2="-76"
       y2="20"
       id="linearGradient4037"
       xlink:href="#linearGradient3980"
       gradientUnits="userSpaceOnUse"
       gradientTransform="translate(160,0)" />
    <linearGradient
       id="linearGradient8092">
      <stop
         id="stop8094"
         style="stop-color:#cacaca;stop-opacity:1"
         offset="0" />
      <stop
         id="stop8096"
         style="stop-color:#f3f3f3;stop-opacity:1"
         offset="1" />
    </linearGradient>
    <linearGradient
       x1="16"
       y1="80"
       x2="27"
       y2="80"
       id="linearGradient4039"
       xlink:href="#linearGradient3849"
       gradientUnits="userSpaceOnUse"
       gradientTransform="matrix(0,-1,1,0,-60,100)" />
    <linearGradient
       id="linearGradient8099">
      <stop
         id="stop8101"
         style="stop-color:#000000;stop-opacity:1"
         offset="0" />
      <stop
         id="stop8103"
         style="stop-color:#000000;stop-opacity:0"
         offset="1" />
    </linearGradient>
    <linearGradient
       x1="48"
       y1="76"
       x2="48"
       y2="96"
       id="linearGradient4054"
       xlink:href="#linearGradient3849"
       gradientUnits="userSpaceOnUse"
       gradientTransform="matrix(1,0,0,-1,2,164)" />
    <linearGradient
       id="linearGradient8106">
      <stop
         id="stop8108"
         style="stop-color:#000000;stop-opacity:1"
         offset="0" />
      <stop
         id="stop8110"
         style="stop-color:#000000;stop-opacity:0"
         offset="1" />
    </linearGradient>
  </defs>
  <sodipodi:namedview
     id="base"
     pagecolor="#ffffff"
     bordercolor="#666666"
     borderopacity="1.0"
     inkscape:pageopacity="0.0"
     inkscape:pageshadow="2"
     inkscape:zoom="3.959798"
     inkscape:cx="36.39115"
     inkscape:cy="42.877139"
     inkscape:document-units="px"
     inkscape:current-layer="layer1"
     showgrid="false"
     inkscape:window-width="1280"
     inkscape:window-height="725"
     inkscape:window-x="0"
     inkscape:window-y="25"
     inkscape:window-maximized="1" />
  <metadata
     id="metadata2987">
    <rdf:RDF>
      <cc:Work
         rdf:about="">
        <dc:format>image/svg+xml</dc:format>
        <dc:type
           rdf:resource="http://purl.org/dc/dcmitype/StillImage" />
        <dc:title></dc:title>
      </cc:Work>
    </rdf:RDF>
  </metadata>
  <g
     inkscape:label="Layer 1"
     inkscape:groupmode="layer"
     id="layer1"
     transform="translate(0,-956.36218)">
    <g
       id="g7936">
      <g
         id="g7714">
        <rect
           ry="5"
           rx="5"
           style="fill:#000000;fill-opacity:1;stroke:none;filter:url(#filter6279-2)"
           id="rect9283"
           width="80"
           height="80"
           x="8"
           y="964.36218"
           transform="translate(0,-7.8515622e-6)" />
        <rect
           y="964.36218"
           x="8"
           height="80"
           width="80"
           id="rect9285"
           style="fill:url(#linearGradient7218);fill-opacity:1;stroke:none"
           rx="5"
           ry="5" />
        <g
           id="g3111"
           transform="matrix(0.64285714,0,0,0.64285714,17.142857,972.86218)">
          <g
             id="g3228">
            <g
               id="layer3">
              <rect
                 width="84"
                 height="84"
                 rx="6"
                 ry="6"
                 x="6"
                 y="-91"
                 transform="scale(1,-1)"
                 id="rect3716"
                 style="opacity:0.45;fill:url(#linearGradient3721-48);fill-opacity:1;fill-rule:nonzero;stroke:none;display:inline" />
            </g>
            <g
               id="layer1-4">
              <rect
                 width="84"
                 height="84"
                 rx="6"
                 ry="6"
                 x="6"
                 y="6"
                 id="rect2419"
                 style="fill:url(#linearGradient3617-79);fill-opacity:1;fill-rule:nonzero;stroke:none" />
              <path
                 d="M 12,90 C 8.676,90 6,87.324 6,84 L 6,82 6,14 6,12 c 0,-0.334721 0.04135,-0.6507 0.09375,-0.96875 0.0487,-0.295596 0.09704,-0.596915 0.1875,-0.875 C 6.29113,10.12587 6.302142,10.09265 6.3125,10.0625 6.411365,9.774729 6.5473802,9.515048 6.6875,9.25 6.8320918,8.976493 7.0031161,8.714385 7.1875,8.46875 7.3718839,8.223115 7.5612765,7.995278 7.78125,7.78125 8.221197,7.353194 8.72416,6.966724 9.28125,6.6875 9.559795,6.547888 9.8547231,6.440553 10.15625,6.34375 9.9000482,6.443972 9.6695391,6.580022 9.4375,6.71875 c -0.00741,0.0044 -0.023866,-0.0045 -0.03125,0 -0.031933,0.0193 -0.062293,0.04251 -0.09375,0.0625 -0.120395,0.0767 -0.2310226,0.163513 -0.34375,0.25 -0.1061728,0.0808 -0.2132809,0.161112 -0.3125,0.25 C 8.4783201,7.442683 8.3087904,7.626638 8.15625,7.8125 8.0486711,7.942755 7.9378561,8.077785 7.84375,8.21875 7.818661,8.25713 7.805304,8.30462 7.78125,8.34375 7.716487,8.446782 7.6510225,8.548267 7.59375,8.65625 7.4927417,8.850956 7.3880752,9.071951 7.3125,9.28125 7.30454,9.30306 7.288911,9.3218 7.28125,9.34375 7.2494249,9.4357 7.2454455,9.530581 7.21875,9.625 7.1884177,9.731618 7.1483606,9.828031 7.125,9.9375 7.0521214,10.279012 7,10.635705 7,11 l 0,2 0,68 0,2 c 0,2.781848 2.2181517,5 5,5 l 2,0 68,0 2,0 c 2.781848,0 5,-2.218152 5,-5 l 0,-2 0,-68 0,-2 C 89,10.635705 88.94788,10.279012 88.875,9.9375 88.83085,9.730607 88.78662,9.539842 88.71875,9.34375 88.71105,9.3218 88.69545,9.30306 88.6875,9.28125 88.62476,9.107511 88.549117,8.913801 88.46875,8.75 88.42717,8.6672 88.38971,8.580046 88.34375,8.5 88.28915,8.40279 88.216976,8.31165 88.15625,8.21875 88.06214,8.077785 87.951329,7.942755 87.84375,7.8125 87.700576,7.63805 87.540609,7.465502 87.375,7.3125 87.36383,7.3023 87.35502,7.29135 87.34375,7.28125 87.205364,7.155694 87.058659,7.046814 86.90625,6.9375 86.803679,6.86435 86.701932,6.784136 86.59375,6.71875 c -0.0074,-0.0045 -0.02384,0.0044 -0.03125,0 -0.232039,-0.138728 -0.462548,-0.274778 -0.71875,-0.375 0.301527,0.0968 0.596455,0.204138 0.875,0.34375 0.55709,0.279224 1.060053,0.665694 1.5,1.09375 0.219973,0.214028 0.409366,0.441865 0.59375,0.6875 0.184384,0.245635 0.355408,0.507743 0.5,0.78125 0.14012,0.265048 0.276135,0.524729 0.375,0.8125 0.01041,0.03078 0.02133,0.06274 0.03125,0.09375 0.09046,0.278085 0.1388,0.579404 0.1875,0.875 C 89.95865,11.3493 90,11.665279 90,12 l 0,2 0,68 0,2 c 0,3.324 -2.676,6 -6,6 l -72,0 z"
                 inkscape:connector-curvature="0"
                 id="path3615"
                 style="opacity:0.2;fill:url(#radialGradient3619-25);fill-opacity:1;fill-rule:nonzero;stroke:none" />
            </g>
            <g
               id="layer5">
              <rect
                 width="66"
                 height="66"
                 rx="12"
                 ry="12"
                 x="15"
                 y="15"
                 clip-path="url(#clipPath3613-35)"
                 id="rect3171"
                 style="opacity:0.1;fill:url(#linearGradient3613-99);fill-opacity:1;fill-rule:nonzero;stroke:#ffffff;stroke-width:0.5;stroke-linecap:round;stroke-linejoin:miter;stroke-miterlimit:4;stroke-opacity:1;stroke-dasharray:none;stroke-dashoffset:0;filter:url(#filter3794-08)" />
            </g>
            <g
               id="layer4">
              <path
                 d="m 18,14.15625 c -2.104605,0 -3.84375,1.739145 -3.84375,3.84375 l 0,54 c 0,2.104605 1.739145,3.84375 3.84375,3.84375 l 60,0 c 2.104605,0 3.84375,-1.739145 3.84375,-3.84375 l 0,-54 c 0,-2.104605 -1.739145,-3.84375 -3.84375,-3.84375 l -60,0 z"
                 id="path4106"
                 style="color:#000000;fill:url(#linearGradient4108);fill-opacity:1;fill-rule:nonzero;stroke:none;stroke-width:0.5;marker:none;visibility:visible;display:inline;overflow:visible;enable-background:accumulate"
                 inkscape:connector-curvature="0" />
              <rect
                 width="64"
                 height="58.000004"
                 rx="2"
                 ry="2"
                 x="16"
                 y="16"
                 id="rect3664"
                 style="color:#000000;fill:url(#radialGradient4159);fill-opacity:1;fill-rule:nonzero;stroke:none;stroke-width:0.5;marker:none;visibility:visible;display:inline;overflow:visible;enable-background:accumulate" />
              <path
                 d="M 47.65625,16.125 67.65625,74 78,74 c 0.865625,0 1.595389,-0.545975 1.875,-1.3125 l 0,-55.375 C 79.67368,16.760602 79.239398,16.32632 78.6875,16.125 l -31.03125,0 z"
                 inkscape:connector-curvature="0"
                 id="path3664"
                 style="opacity:0.7;fill:url(#linearGradient2935);fill-opacity:1;fill-rule:evenodd;stroke:none;display:inline" />
              <path
                 d="m 18,16 c -1.108,0 -2,0.892 -2,2 l 0,54 c 0,1.108 0.892,2 2,2 l 60,0 c 1.108,0 2,-0.892 2,-2 l 0,-54 c 0,-1.108 -0.892,-2 -2,-2 l -60,0 z m 0,2 60,0 0,54 -60,0 0,-54 z"
                 inkscape:connector-curvature="0"
                 id="rect3721"
                 style="opacity:0.2;color:#000000;fill:#000000;fill-opacity:1;fill-rule:nonzero;stroke:none;stroke-width:0.5;marker:none;visibility:visible;display:inline;overflow:visible;enable-background:accumulate" />
              <path
                 d="m 47.65625,16.125 20,57.875 1,0 -20,-57.875 -1,0 z"
                 inkscape:connector-curvature="0"
                 id="path2669"
                 style="opacity:0.5;fill:url(#linearGradient2675);fill-opacity:1;fill-rule:evenodd;stroke:none;display:inline" />
              <path
                 d="m 18,16 c -1.108,0 -2,0.892 -2,2 l 0,54 c 0,1.108 0.892,2 2,2 l 60,0 c 1.108,0 2,-0.892 2,-2 l 0,-54 c 0,-1.108 -0.892,-2 -2,-2 l -60,0 z m 0,1.09375 60,0 c 0.527026,0 0.90625,0.379224 0.90625,0.90625 l 0,54 c 0,0.527026 -0.379224,0.90625 -0.90625,0.90625 l -60,0 c -0.527026,0 -0.90625,-0.379224 -0.90625,-0.90625 l 0,-54 c 0,-0.527026 0.379224,-0.90625 0.90625,-0.90625 z"
                 inkscape:connector-curvature="0"
                 id="rect3708"
                 style="opacity:0.4;color:#000000;fill:#000000;fill-opacity:1;fill-rule:nonzero;stroke:none;stroke-width:0.5;marker:none;visibility:visible;display:inline;overflow:visible;enable-background:accumulate" />
            </g>
          </g>
        </g>
        <g
           id="g3317"
           transform="matrix(0.64285714,0,0,0.64285714,17.142857,972.86218)">
          <g
             id="g3200">
            <rect
               width="20"
               height="12"
               rx="3"
               ry="3"
               x="38"
               y="76"
               id="rect3666"
               style="color:#000000;fill:url(#linearGradient3834);fill-opacity:1;fill-rule:nonzero;stroke:none;stroke-width:0.5;marker:none;visibility:visible;display:inline;overflow:visible;enable-background:accumulate" />
            <rect
               width="16"
               height="4"
               rx="2"
               ry="2"
               x="40"
               y="9"
               id="rect3811"
               style="opacity:0.4;color:#000000;fill:url(#linearGradient3826);fill-opacity:1;fill-rule:nonzero;stroke:none;stroke-width:0.5;marker:none;visibility:visible;display:inline;overflow:visible;enable-background:accumulate" />
            <rect
               width="14"
               height="2"
               rx="1"
               ry="1"
               x="41"
               y="10"
               id="rect3813"
               style="color:#000000;fill:#e6e6e6;fill-opacity:1;fill-rule:nonzero;stroke:none;stroke-width:0.5;marker:none;visibility:visible;display:inline;overflow:visible;enable-background:accumulate" />
            <path
               d="m 42,10 c -0.554,0 -1,0.446 -1,1 0,0.187901 0.06682,0.350135 0.15625,0.5 C 41.330483,11.208009 41.633901,11 42,11 l 12,0 c 0.366099,0 0.669517,0.208009 0.84375,0.5 C 54.933176,11.350135 55,11.187901 55,11 55,10.446 54.554,10 54,10 l -12,0 z"
               inkscape:connector-curvature="0"
               id="rect3815"
               style="opacity:0.6;color:#000000;fill:#ffffff;fill-opacity:1;fill-rule:nonzero;stroke:none;stroke-width:0.5;marker:none;visibility:visible;display:inline;overflow:visible;enable-background:accumulate" />
            <rect
               width="8"
               height="4"
               rx="0.66666663"
               ry="0.66666663"
               x="44"
               y="80"
               id="rect3875"
               style="color:#000000;fill:url(#linearGradient4083);fill-opacity:1;fill-rule:nonzero;stroke:#000000;stroke-width:0.5;stroke-opacity:0.42307691;marker:none;visibility:visible;display:inline;overflow:visible;enable-background:accumulate" />
            <rect
               width="8"
               height="8"
               rx="2"
               ry="2"
               x="77"
               y="16"
               transform="matrix(0,1,1,0,0,0)"
               id="rect3672"
               style="color:#000000;fill:url(#linearGradient4090);fill-opacity:1;fill-rule:nonzero;stroke:none;stroke-width:0.5;marker:none;visibility:visible;display:inline;overflow:visible;enable-background:accumulate" />
            <path
               d="m 16,83 c 0,1.108 0.892,2 2,2 l 4,0 c 1.108,0 2,-0.892 2,-2 l 0,-4 c 0,-1.108 -0.892,-2 -2,-2 l -4,0 c -1.108,0 -2,0.892 -2,2 l 0,4 z m 1,0 0,-4 c 0,-0.565728 0.434272,-1 1,-1 l 4,0 c 0.565728,0 1,0.434272 1,1 l 0,4 c 0,0.565728 -0.434272,1 -1,1 l -4,0 c -0.565728,0 -1,-0.434272 -1,-1 z"
               inkscape:connector-curvature="0"
               id="rect3965"
               style="opacity:0.5;color:#000000;fill:url(#linearGradient4087-2);fill-opacity:1;fill-rule:nonzero;stroke:none;stroke-width:0.5;marker:none;visibility:visible;display:inline;overflow:visible;enable-background:accumulate" />
            <path
               d="m 18,78 c -0.565728,0 -1,0.434272 -1,1 l 0,1 c 0,-0.565728 0.434272,-1 1,-1 l 4,0 c 0.565728,0 1,0.434272 1,1 l 0,-1 c 0,-0.565728 -0.434272,-1 -1,-1 l -4,0 z"
               inkscape:connector-curvature="0"
               id="rect3972"
               style="color:#000000;fill:#ffffff;fill-opacity:1;fill-rule:nonzero;stroke:none;stroke-width:0.5;marker:none;visibility:visible;display:inline;overflow:visible;enable-background:accumulate" />
            <g
               transform="translate(10,1)"
               id="g4005">
              <rect
                 width="8"
                 height="8"
                 rx="2"
                 ry="2"
                 x="76"
                 y="16"
                 transform="matrix(0,1,1,0,0,0)"
                 id="rect4007"
                 style="color:#000000;fill:url(#linearGradient4013);fill-opacity:1;fill-rule:nonzero;stroke:none;stroke-width:0.5;marker:none;visibility:visible;display:inline;overflow:visible;enable-background:accumulate" />
              <path
                 d="m 16,82 c 0,1.108 0.892,2 2,2 l 4,0 c 1.108,0 2,-0.892 2,-2 l 0,-4 c 0,-1.108 -0.892,-2 -2,-2 l -4,0 c -1.108,0 -2,0.892 -2,2 l 0,4 z m 1,0 0,-4 c 0,-0.565728 0.434272,-1 1,-1 l 4,0 c 0.565728,0 1,0.434272 1,1 l 0,4 c 0,0.565728 -0.434272,1 -1,1 l -4,0 c -0.565728,0 -1,-0.434272 -1,-1 z"
                 inkscape:connector-curvature="0"
                 id="path4009"
                 style="opacity:0.5;color:#000000;fill:url(#linearGradient4015);fill-opacity:1;fill-rule:nonzero;stroke:none;stroke-width:0.5;marker:none;visibility:visible;display:inline;overflow:visible;enable-background:accumulate" />
              <path
                 d="m 18,77 c -0.565728,0 -1,0.434272 -1,1 l 0,1 c 0,-0.565728 0.434272,-1 1,-1 l 4,0 c 0.565728,0 1,0.434272 1,1 l 0,-1 c 0,-0.565728 -0.434272,-1 -1,-1 l -4,0 z"
                 inkscape:connector-curvature="0"
                 id="path4011"
                 style="color:#000000;fill:#ffffff;fill-opacity:1;fill-rule:nonzero;stroke:none;stroke-width:0.5;marker:none;visibility:visible;display:inline;overflow:visible;enable-background:accumulate" />
            </g>
            <g
               transform="translate(56,1)"
               id="g4017">
              <rect
                 width="8"
                 height="8"
                 rx="2"
                 ry="2"
                 x="76"
                 y="16"
                 transform="matrix(0,1,1,0,0,0)"
                 id="rect4019"
                 style="color:#000000;fill:url(#linearGradient4025-9);fill-opacity:1;fill-rule:nonzero;stroke:none;stroke-width:0.5;marker:none;visibility:visible;display:inline;overflow:visible;enable-background:accumulate" />
              <path
                 d="m 16,82 c 0,1.108 0.892,2 2,2 l 4,0 c 1.108,0 2,-0.892 2,-2 l 0,-4 c 0,-1.108 -0.892,-2 -2,-2 l -4,0 c -1.108,0 -2,0.892 -2,2 l 0,4 z m 1,0 0,-4 c 0,-0.565728 0.434272,-1 1,-1 l 4,0 c 0.565728,0 1,0.434272 1,1 l 0,4 c 0,0.565728 -0.434272,1 -1,1 l -4,0 c -0.565728,0 -1,-0.434272 -1,-1 z"
                 inkscape:connector-curvature="0"
                 id="path4021"
                 style="opacity:0.5;color:#000000;fill:url(#linearGradient4027);fill-opacity:1;fill-rule:nonzero;stroke:none;stroke-width:0.5;marker:none;visibility:visible;display:inline;overflow:visible;enable-background:accumulate" />
              <path
                 d="m 18,77 c -0.565728,0 -1,0.434272 -1,1 l 0,1 c 0,-0.565728 0.434272,-1 1,-1 l 4,0 c 0.565728,0 1,0.434272 1,1 l 0,-1 c 0,-0.565728 -0.434272,-1 -1,-1 l -4,0 z"
                 inkscape:connector-curvature="0"
                 id="path4023"
                 style="color:#000000;fill:#ffffff;fill-opacity:1;fill-rule:nonzero;stroke:none;stroke-width:0.5;marker:none;visibility:visible;display:inline;overflow:visible;enable-background:accumulate" />
            </g>
            <g
               transform="translate(46,1)"
               id="g4029">
              <rect
                 width="8"
                 height="8"
                 rx="2"
                 ry="2"
                 x="76"
                 y="16"
                 transform="matrix(0,1,1,0,0,0)"
                 id="rect4031"
                 style="color:#000000;fill:url(#linearGradient4037);fill-opacity:1;fill-rule:nonzero;stroke:none;stroke-width:0.5;marker:none;visibility:visible;display:inline;overflow:visible;enable-background:accumulate" />
              <path
                 d="m 16,82 c 0,1.108 0.892,2 2,2 l 4,0 c 1.108,0 2,-0.892 2,-2 l 0,-4 c 0,-1.108 -0.892,-2 -2,-2 l -4,0 c -1.108,0 -2,0.892 -2,2 l 0,4 z m 1,0 0,-4 c 0,-0.565728 0.434272,-1 1,-1 l 4,0 c 0.565728,0 1,0.434272 1,1 l 0,4 c 0,0.565728 -0.434272,1 -1,1 l -4,0 c -0.565728,0 -1,-0.434272 -1,-1 z"
                 inkscape:connector-curvature="0"
                 id="path4033"
                 style="opacity:0.5;color:#000000;fill:url(#linearGradient4039);fill-opacity:1;fill-rule:nonzero;stroke:none;stroke-width:0.5;marker:none;visibility:visible;display:inline;overflow:visible;enable-background:accumulate" />
              <path
                 d="m 18,77 c -0.565728,0 -1,0.434272 -1,1 l 0,1 c 0,-0.565728 0.434272,-1 1,-1 l 4,0 c 0.565728,0 1,0.434272 1,1 l 0,-1 c 0,-0.565728 -0.434272,-1 -1,-1 l -4,0 z"
                 inkscape:connector-curvature="0"
                 id="path4035"
                 style="color:#000000;fill:#ffffff;fill-opacity:1;fill-rule:nonzero;stroke:none;stroke-width:0.5;marker:none;visibility:visible;display:inline;overflow:visible;enable-background:accumulate" />
            </g>
            <path
               d="m 41,88 c -1.662,0 -3,-1.338 -3,-3 l 0,-6 c 0,-1.662 1.338,-3 3,-3 l 14,0 c 1.662,0 3,1.338 3,3 l 0,6 c 0,1.662 -1.338,3 -3,3 l -14,0 z m 0,-1 14,0 c 1.132236,0 2,-0.867764 2,-2 l 0,-6 c 0,-1.132236 -0.867764,-2 -2,-2 l -14,0 c -1.132236,0 -2,0.867764 -2,2 l 0,6 c 0,1.132236 0.867764,2 2,2 z"
               inkscape:connector-curvature="0"
               id="rect4041"
               style="opacity:0.5;color:#000000;fill:url(#linearGradient4054);fill-opacity:1;fill-rule:nonzero;stroke:none;stroke-width:0.5;marker:none;visibility:visible;display:inline;overflow:visible;enable-background:accumulate" />
            <path
               d="m 41,77 c -1.132236,0 -2,0.867764 -2,2 l 0,1 c 0,-1.132236 0.867764,-2 2,-2 l 14,0 c 1.132236,0 2,0.867764 2,2 l 0,-1 c 0,-1.132236 -0.867764,-2 -2,-2 l -14,0 z"
               inkscape:connector-curvature="0"
               id="rect4069"
               style="color:#000000;fill:#ffffff;fill-opacity:1;fill-rule:nonzero;stroke:none;stroke-width:0.5;marker:none;visibility:visible;display:inline;overflow:visible;enable-background:accumulate" />
            <path
               d="m 18,84 c -0.565728,0 -1,-0.434272 -1,-1 l 0,-1 c 0,0.565728 0.434272,1 1,1 l 4,0 c 0.565728,0 1,-0.434272 1,-1 l 0,1 c 0,0.565728 -0.434272,1 -1,1 l -4,0 z"
               inkscape:connector-curvature="0"
               id="path4092"
               style="opacity:0.6;color:#000000;fill:#ffffff;fill-opacity:1;fill-rule:nonzero;stroke:none;stroke-width:0.5;marker:none;visibility:visible;display:inline;overflow:visible;enable-background:accumulate" />
            <path
               d="m 28,84 c -0.565728,0 -1,-0.434272 -1,-1 l 0,-1 c 0,0.565728 0.434272,1 1,1 l 4,0 c 0.565728,0 1,-0.434272 1,-1 l 0,1 c 0,0.565728 -0.434272,1 -1,1 l -4,0 z"
               inkscape:connector-curvature="0"
               id="path4094"
               style="opacity:0.6;color:#000000;fill:#ffffff;fill-opacity:1;fill-rule:nonzero;stroke:none;stroke-width:0.5;marker:none;visibility:visible;display:inline;overflow:visible;enable-background:accumulate" />
            <path
               d="m 64,84 c -0.565728,0 -1,-0.434272 -1,-1 l 0,-1 c 0,0.565728 0.434272,1 1,1 l 4,0 c 0.565728,0 1,-0.434272 1,-1 l 0,1 c 0,0.565728 -0.434272,1 -1,1 l -4,0 z"
               inkscape:connector-curvature="0"
               id="path4096"
               style="opacity:0.6;color:#000000;fill:#ffffff;fill-opacity:1;fill-rule:nonzero;stroke:none;stroke-width:0.5;marker:none;visibility:visible;display:inline;overflow:visible;enable-background:accumulate" />
            <path
               d="m 74,84 c -0.565728,0 -1,-0.434272 -1,-1 l 0,-1 c 0,0.565728 0.434272,1 1,1 l 4,0 c 0.565728,0 1,-0.434272 1,-1 l 0,1 c 0,0.565728 -0.434272,1 -1,1 l -4,0 z"
               inkscape:connector-curvature="0"
               id="path4098"
               style="opacity:0.6;color:#000000;fill:#ffffff;fill-opacity:1;fill-rule:nonzero;stroke:none;stroke-width:0.5;marker:none;visibility:visible;display:inline;overflow:visible;enable-background:accumulate" />
          </g>
        </g>
      </g>
    </g>
  </g>
</svg>
