<?xml version="1.0" encoding="UTF-8" standalone="no"?>
<!-- Created with Inkscape (http://www.inkscape.org/) -->
<svg id="svg11037" xmlns:rdf="http://www.w3.org/1999/02/22-rdf-syntax-ns#" xmlns="http://www.w3.org/2000/svg" height="96" width="96" version="1.1" xmlns:cc="http://creativecommons.org/ns#" xmlns:xlink="http://www.w3.org/1999/xlink" xmlns:dc="http://purl.org/dc/elements/1.1/">
 <defs id="defs11039">
  <linearGradient id="linearGradient11642" y2="1046.1" gradientUnits="userSpaceOnUse" y1="962.62" gradientTransform="matrix(1.15 0 0 1.15 -7.1999 -150.65)" x2="48" x1="48">
   <stop id="stop3599" style="stop-color:#dcdcdc" offset="0"/>
   <stop id="stop3601" style="stop-color:#f5f5f5" offset="1"/>
  </linearGradient>
  <linearGradient id="linearGradient3593" y2="18.868" xlink:href="#linearGradient3951" gradientUnits="userSpaceOnUse" x2="117.36" y1="121.33" x1="61.295"/>
  <linearGradient id="linearGradient3951">
   <stop id="stop3953" offset="0"/>
   <stop id="stop3955" style="stop-opacity:0" offset="1"/>
  </linearGradient>
  <filter id="filter3963" color-interpolation-filters="sRGB">
   <feGaussianBlur id="feGaussianBlur3965" stdDeviation="0.91605611"/>
  </filter>
  <linearGradient id="linearGradient3595" y2="41.347" xlink:href="#linearGradient3951" gradientUnits="userSpaceOnUse" x2="104.63" y1="121.33" x1="61.295"/>
  <linearGradient id="linearGradient3522" y2="115.49" gradientUnits="userSpaceOnUse" x2="149.53" y1="115.49" x1="136.41">
   <stop id="stop3487" style="stop-color:#e6605b" offset="0"/>
   <stop id="stop3489" style="stop-color:#f08682" offset="1"/>
  </linearGradient>
  <filter id="filter3495" height="1.3333" width="1.8571" color-interpolation-filters="sRGB" y="-.16667" x="-.42857">
   <feGaussianBlur id="feGaussianBlur3497" stdDeviation="0.55242721"/>
  </filter>
  <filter id="filter3509" height="1.3534" width="1.3669" color-interpolation-filters="sRGB" y="-.17668" x="-.18344">
   <feGaussianBlur id="feGaussianBlur3511" stdDeviation="0.65925"/>
  </filter>
  <linearGradient id="linearGradient3524" y2="116.47" xlink:href="#linearGradient3339" gradientUnits="userSpaceOnUse" x2="148.53" gradientTransform="matrix(1.0894 0 0 1 -13.276 0)" y1="116.47" x1="137.41"/>
  <linearGradient id="linearGradient3339">
   <stop id="stop3341" offset="0"/>
   <stop id="stop3347" style="stop-opacity:.49804" offset="0.7"/>
   <stop id="stop3343" style="stop-opacity:0" offset="1"/>
  </linearGradient>
  <linearGradient id="linearGradient3526" y2="60" gradientUnits="userSpaceOnUse" x2="150" gradientTransform="translate(-23.733)" y1="60" x1="136">
   <stop id="stop3280" style="stop-color:#945a00" offset="0"/>
   <stop id="stop3290" style="stop-color:#e28e0a" offset=".25"/>
   <stop id="stop3286" style="stop-color:#ffba14" offset="0.3"/>
   <stop id="stop3288" style="stop-color:#f3ac00" offset="0.7"/>
   <stop id="stop3292" style="stop-color:#ffd314" offset=".75"/>
   <stop id="stop3282" style="stop-color:#ffed94" offset="1"/>
  </linearGradient>
  <linearGradient id="linearGradient3528" y2="120.02" gradientUnits="userSpaceOnUse" x2="143" gradientTransform="translate(-23.733)" y1="0.0000024" x1="143">
   <stop id="stop3256" offset="0"/>
   <stop id="stop3266" offset=".065884"/>
   <stop id="stop3264" style="stop-color:#ad5f1b" offset=".07"/>
   <stop id="stop3268" style="stop-color:#ad601a" offset=".19137"/>
   <stop id="stop3262" style="stop-color:#785800" offset=".20983"/>
   <stop id="stop3258" style="stop-color:#785700" offset="1"/>
  </linearGradient>
  <linearGradient id="linearGradient3530" y2="4.9219" gradientUnits="userSpaceOnUse" x2="144.81" gradientTransform="translate(-23.733)" y1="4.9219" x1="141.25">
   <stop id="stop3396" offset="0"/>
   <stop id="stop3402" style="stop-color:#7d7d7d" offset=".5"/>
   <stop id="stop3398" offset="1"/>
  </linearGradient>
  <linearGradient id="linearGradient3532" y2="17.043" gradientUnits="userSpaceOnUse" x2="149" gradientTransform="translate(-23.733)" y1="17.043" x1="136.99">
   <stop id="stop3310" style="stop-color:#da8539" offset="0"/>
   <stop id="stop3312" style="stop-color:#fadfc7" offset="1"/>
  </linearGradient>
  <linearGradient id="linearGradient3534" y2="66" xlink:href="#linearGradient5452" gradientUnits="userSpaceOnUse" x2="146.08" gradientTransform="matrix(1 0 0 1.2654 -23.733 -54.364)" y1="118.94" x1="146.11"/>
  <linearGradient id="linearGradient5452">
   <stop id="stop5454" style="stop-color:#fff" offset="0"/>
   <stop id="stop5456" style="stop-color:#fff;stop-opacity:0" offset="1"/>
  </linearGradient>
  <linearGradient id="linearGradient3536" y2="66" xlink:href="#linearGradient5452" gradientUnits="userSpaceOnUse" x2="146.08" gradientTransform="matrix(1 0 0 1.2654 -29.858 -54.364)" y1="118.94" x1="146.11"/>
  <filter id="filter3382" height="1.2274" width="1.8632" color-interpolation-filters="sRGB" y="-.11371" x="-.43161">
   <feGaussianBlur id="feGaussianBlur3384" stdDeviation="0.73914765"/>
  </filter>
  <filter id="filter3390" height="1.2988" width="2.2196" color-interpolation-filters="sRGB" y="-.1494" x="-.60980">
   <feGaussianBlur id="feGaussianBlur3392" stdDeviation="0.77812506"/>
  </filter>
  <linearGradient id="linearGradient3538" y2="106" gradientUnits="userSpaceOnUse" x2="150" y1="106" x1="136">
   <stop id="stop3403" style="stop-color:#404040" offset="0"/>
   <stop id="stop3447" style="stop-color:#808080" offset=".2"/>
   <stop id="stop3410" style="stop-color:#efefef" offset="0.7"/>
   <stop id="stop3405" style="stop-color:#dcdcdc" offset="1"/>
  </linearGradient>
  <linearGradient id="linearGradient3540" y2="106" gradientUnits="userSpaceOnUse" x2="150" y1="106" x1="136">
   <stop id="stop3463" style="stop-color:#444542" offset="0"/>
   <stop id="stop3465" style="stop-color:#71746e" offset="1"/>
  </linearGradient>
  <linearGradient id="linearGradient3542" y2="98.951" xlink:href="#linearGradient3339" spreadMethod="reflect" gradientUnits="userSpaceOnUse" x2="148.96" gradientTransform="translate(.042252 1.5494)" y1="98.951" x1="142.96"/>
  <linearGradient id="linearGradient3544" y2="98.951" xlink:href="#linearGradient3355" spreadMethod="reflect" gradientUnits="userSpaceOnUse" x2="148.96" gradientTransform="translate(.042252 2.5494)" y1="98.951" x1="142.96"/>
  <linearGradient id="linearGradient3355">
   <stop id="stop3357" style="stop-color:#fff" offset="0"/>
   <stop id="stop3359" style="stop-color:#fff;stop-opacity:.49804" offset="0.7"/>
   <stop id="stop3361" style="stop-color:#fff;stop-opacity:0" offset="1"/>
  </linearGradient>
  <linearGradient id="linearGradient3546" y2="98.951" xlink:href="#linearGradient3339" spreadMethod="reflect" gradientUnits="userSpaceOnUse" x2="148.96" gradientTransform="translate(.042252 3.5494)" y1="98.951" x1="142.96"/>
  <linearGradient id="linearGradient3548" y2="98.951" xlink:href="#linearGradient3355" spreadMethod="reflect" gradientUnits="userSpaceOnUse" x2="148.96" gradientTransform="translate(.042252 4.5494)" y1="98.951" x1="142.96"/>
  <linearGradient id="linearGradient3550" y2="98.951" xlink:href="#linearGradient3339" spreadMethod="reflect" gradientUnits="userSpaceOnUse" x2="148.96" gradientTransform="translate(.042252 9.5494)" y1="98.951" x1="142.96"/>
  <linearGradient id="linearGradient3552" y2="98.951" xlink:href="#linearGradient3355" spreadMethod="reflect" gradientUnits="userSpaceOnUse" x2="148.96" gradientTransform="translate(.042252 10.549)" y1="98.951" x1="142.96"/>
  <linearGradient id="linearGradient3554" y2="98.951" xlink:href="#linearGradient3339" spreadMethod="reflect" gradientUnits="userSpaceOnUse" x2="148.96" gradientTransform="translate(.042252 11.549)" y1="98.951" x1="142.96"/>
  <linearGradient id="linearGradient3556" y2="98.951" xlink:href="#linearGradient3355" spreadMethod="reflect" gradientUnits="userSpaceOnUse" x2="148.96" gradientTransform="translate(.042252 12.549)" y1="98.951" x1="142.96"/>
  <linearGradient id="linearGradient3558" y2="106" spreadMethod="repeat" gradientUnits="userSpaceOnUse" x2="139.03" y1="106" x1="137">
   <stop id="stop3441" style="stop-color:#3d3d3d" offset="0"/>
   <stop id="stop3443" style="stop-color:#fff" offset="1"/>
  </linearGradient>
  <filter id="filter3451" height="1.2715" width="3.0699" color-interpolation-filters="sRGB" y="-.13574" x="-1.035">
   <feGaussianBlur id="feGaussianBlur3453" stdDeviation="0.9498173"/>
  </filter>
  <filter id="filter3457" height="1.2754" width="2.8667" color-interpolation-filters="sRGB" y="-.13770" x="-.93333">
   <feGaussianBlur id="feGaussianBlur3459" stdDeviation="0.92807767"/>
  </filter>
  <clipPath id="clipPath3009" clipPathUnits="userSpaceOnUse">
   <path id="path3011" style="opacity:.15;fill:#fff" d="m-2 956.36h-96v33.562l96 25.687v-59.25z"/>
  </clipPath>
 </defs>
 <metadata id="metadata11042">
  <rdf:RDF>
   <cc:Work rdf:about="">
    <dc:format>image/svg+xml</dc:format>
    <dc:type rdf:resource="http://purl.org/dc/dcmitype/StillImage"/>
    <dc:title/>
   </cc:Work>
  </rdf:RDF>
 </metadata>
 <g id="layer1" transform="translate(0 -956.36)">
  <rect id="rect3867" style="fill:url(#linearGradient11642)" rx="25" ry="25" height="92" width="92" y="958.36" x="2"/>
  <path id="flowRoot4411" style="fill:#00285a" d="m17.758 982.11c-0.8992 2.1139-1.6525 3.7191-2.2598 4.8155 0.18142 0.76511 0.41805 1.1477 0.7099 1.1477h0.4851l-0.10648 0.47327h-0.47326c-0.33918 0-0.6113-0.41805-0.81638-1.2542-0.48115 0.8361-0.8361 1.2542-1.0648 1.2542-0.18142 0-0.27213-0.1972-0.27213-0.59158 0-0.14198 0.01183-0.27607 0.03549-0.40228 0.05521-0.2524 0.18536-0.56002 0.39044-0.92286 0.24452-0.42594 0.45749-0.63891 0.63891-0.63891 0.16564 0 0.29973 0.20903 0.40228 0.62708 0.54425-1.0017 1.2502-2.5083 2.1179-4.5197-0.41805-0.071-0.62708-0.43777-0.62708-1.1003-0.000003-0.29184 0.04338-0.67045 0.13015-1.1358l0.20114-0.0237c-0.07888 0.38651-0.11832 0.69019-0.11832 0.91104-0.000003 0.56003 0.20508 0.85582 0.61524 0.88737 0.5127-1.2226 0.88736-1.8339 1.124-1.8339 0.1262 0.00001 0.1893 0.11438 0.1893 0.34311-0.000005 0.37074-0.12621 0.77695-0.37861 1.2187-0.27608 0.50482-0.5837 0.75328-0.92286 0.74539m1.0885-1.7156c-0.000005-0.0789-0.02367-0.11831-0.07099-0.11832-0.14987 0.00001-0.422 0.44961-0.81638 1.3488 0.20508-0.0394 0.40227-0.19718 0.59158-0.47326 0.19719-0.28395 0.29578-0.53636 0.29579-0.75722m-3.6205 6.5902c-0.08677-0.34706-0.18536-0.52059-0.29579-0.52059-0.11832 0-0.26818 0.14987-0.4496 0.4496-0.15776 0.25241-0.25241 0.45749-0.28396 0.61524-0.01577 0.071-0.02366 0.14592-0.02366 0.2248-0.000001 0.21297 0.05521 0.31945 0.16564 0.31945 0.17353 0 0.46932-0.36283 0.88737-1.0885m3.1742 1.0885h0.28396l-0.09465 0.47327h-2.0232l0.09465-0.47327h0.4496c0.02366-0.23663 0.12226-0.57974 0.29579-1.0294 0.1893-0.48114 0.33523-0.79665 0.43777-0.94652 0.22874-0.35495 0.50087-0.53242 0.81638-0.53243h0.08282c0.26029 0.00001 0.39044 0.12621 0.39044 0.37862-0.000002 0.22086-0.09071 0.57975-0.27213 1.0767-0.16564 0.44172-0.31946 0.79272-0.46143 1.053m0.52059-1.8812c-0.000001-0.10254-0.10254-0.15381-0.30762-0.15381-0.15776 0-0.28002 0.0197-0.36678 0.0592-0.20508 0.10254-0.43777 0.48115-0.69806 1.1358-0.14987 0.37862-0.2248 0.6113-0.2248 0.69807-0.000001 0.0947 0.05127 0.14198 0.15381 0.14198h0.18931 0.20114c0.22086 0 0.41016-0.17353 0.56792-0.52059 0.3234-0.71779 0.48509-1.1713 0.4851-1.3606m1.5614 1.7984c-0.000001 0.0552 0.03155 0.0828 0.09465 0.0828h0.4851l-0.10648 0.47327h-0.4851c-0.13409 0-0.20114-0.10649-0.20114-0.31945-0.000002-0.48904 0.3234-1.2896 0.97019-2.4018-0.3865 0.26819-0.69807 0.44172-0.9347 0.52059-0.59158 1.4671-1.0372 2.2007-1.337 2.2007h-0.4141l0.10648-0.47327h0.40227c0.20508 0 0.54425-0.56397 1.0175-1.6919-0.14198-0.008-0.21297-0.10649-0.21297-0.29579-0.000002-0.17353 0.07888-0.41411 0.23663-0.72173 0.15775-0.31551 0.31156-0.47326 0.46143-0.47326 0.07099 0 0.10648 0.0631 0.10648 0.1893-0.000002 0.15776-0.05916 0.41017-0.17747 0.75722 0.37072-0.15775 0.82426-0.46537 1.3606-0.92286 0.02366-0.0237 0.04338-0.0355 0.05916-0.0355 0.03155 0 0.04732 0.0394 0.04733 0.11831-0.000003 0.10255-0.0986 0.29974-0.29579 0.59158-0.1972 0.28396-0.42988 0.67835-0.69806 1.1832-0.3234 0.61525-0.4851 1.0215-0.4851 1.2187m-0.0355-2.6266c-0.13409 0.0473-0.25635 0.21297-0.36678 0.49693 0.03155 0.0315 0.07099 0.0473 0.11832 0.0473h0.07099c0.04733-0.1262 0.10648-0.30762 0.17747-0.54425m2.9368 3.1827h-1.3606c-0.1262 0-0.18536-0.13015-0.17748-0.39045-0.29185 0.2603-0.50482 0.39045-0.6389 0.39045h-0.2603l0.09465-0.47327c0.20508 0 0.36284-0.0276 0.47326-0.0828 0.07099-0.0316 0.1893-0.1262 0.35495-0.28396l0.0355-0.0237c0.07888-0.36283 0.20902-0.74144 0.39044-1.1358 0.22086-0.48904 0.44566-0.78877 0.6744-0.8992 0.11832-0.0552 0.27212-0.0828 0.46143-0.0828 0.29184 0 0.43777 0.10649 0.43777 0.31945-0.000002 0.24453-0.17353 0.54031-0.52059 0.88737-0.27607 0.24452-0.5482 0.48904-0.81638 0.73356-0.10254 0.10254-0.25635 0.24847-0.46143 0.43777 0 0.0868 0.01972 0.13015 0.05916 0.13015h1.3488l-0.09465 0.47326m0.20114-2.461c-0.07888-0.0315-0.19325-0.0473-0.34312-0.0473-0.14198 0-0.2603 0.0276-0.35495 0.0828-0.27607 0.15776-0.52454 0.60341-0.74539 1.337 0.08676-0.0868 0.22086-0.21297 0.40228-0.37861 0.24452-0.20508 0.59158-0.53636 1.0412-0.99385m3.2191 2.461h-0.15381c-0.06311 0.008-0.11043 0.0118-0.14198 0.0118-0.18142 0-0.27213-0.0986-0.27213-0.29579-0.000003-0.23663 0.11042-0.61524 0.33128-1.1358 0.22874-0.52847 0.34311-0.84004 0.34312-0.93469-0.000003-0.0868-0.05916-0.13015-0.17747-0.13015-0.21297 0-0.45355 0.21692-0.72173 0.65074-0.15776 0.25241-0.35889 0.65074-0.60341 1.195-0.18931 0.43383-0.29974 0.65074-0.33128 0.65074-0.03944 0-0.05916-0.0394-0.05916-0.11832-0.000001-0.071 0.01577-0.14592 0.04733-0.2248l0.54425-1.3961c0.11831-0.30762 0.17747-0.5127 0.17747-0.61524-0.000002-0.0947-0.04339-0.14198-0.13015-0.14198-0.42594 0-0.83216 0.50087-1.2187 1.5026v-0.0237c-0.31551 0.67046-0.6113 1.0057-0.88737 1.0057h-0.29579l0.09465-0.47327h0.29579c0.23663 0 0.51665-0.36677 0.84004-1.1003 0.18142-0.48904 0.36283-0.97414 0.54425-1.4553l0.13015 0.18931-0.09465 0.24846c0.21297-0.24452 0.44171-0.36678 0.68623-0.36678 0.16564 0 0.24846 0.12226 0.24846 0.36678-0.000003 0.1262-0.02367 0.27607-0.07099 0.4496 0.33917-0.54425 0.64285-0.81638 0.91103-0.81638 0.1893 0 0.28396 0.11437 0.28396 0.34312-0.000003 0.2524-0.11438 0.64285-0.34312 1.1713-0.22086 0.52848-0.33129 0.8361-0.33128 0.92287 0.03155 0.0394 0.18142 0.0552 0.4496 0.0473l-0.09465 0.47326m4.1165-4.0109c-0.10254 0-0.15381-0.0947-0.15381-0.28396-0.000002-0.22874 0.07888-0.52453 0.23663-0.88737 0.18142-0.41804 0.35889-0.62707 0.53242-0.62707 0.10254 0 0.15381 0.0947 0.15381 0.28396-0.000003 0.22875-0.07888 0.52848-0.23663 0.8992-0.17353 0.41016-0.351 0.61524-0.53242 0.61524m-0.34312 4.0109h-0.43777c-0.28396 0-0.42594-0.19325-0.42594-0.57975-0.000001-0.1262 0.01577-0.27607 0.04733-0.4496-0.35495 0.68624-0.7099 1.0294-1.0648 1.0294h-0.39044l0.09465-0.47326h0.39044c0.3865 0 0.80455-0.55214 1.2541-1.6564 0.20508-0.52058 0.32734-0.78088 0.36678-0.78088 0.03155 0 0.04732 0.0394 0.04733 0.11832-0.000002 0.0868-0.05522 0.28396-0.16564 0.59158-0.24452 0.67045-0.36678 1.1319-0.36678 1.3843-0.000001 0.18142 0.08676 0.29185 0.2603 0.33129 0.03155 0.008 0.19719 0.0118 0.49693 0.0118l-0.10648 0.47326m0.8992-5.2651c-0.000003-0.0473-0.01183-0.071-0.03549-0.071-0.08677 0.00001-0.18536 0.10649-0.29579 0.31945-0.11043 0.21298-0.16564 0.37073-0.16564 0.47327-0.000003 0.0394 0.01577 0.0592 0.04733 0.0592 0.07888 0 0.17353-0.10648 0.28396-0.31945 0.11042-0.21297 0.16564-0.36678 0.16564-0.46144m1.5074 5.2651h-0.81638c-0.04733 0-0.07099-0.0394-0.07099-0.11831-0.000002-0.23663 0.05916-0.35495 0.17747-0.35495 0.17353 0 0.33128-0.13409 0.47326-0.40227 0.03944-0.071 0.1262-0.28002 0.2603-0.62708 0.18142-0.47326 0.27212-0.75722 0.27213-0.85187-0.000002-0.10254-0.09465-0.15381-0.28396-0.15381-0.43383 0-0.74145 0.26029-0.92286 0.78088-0.22874 0.7099-0.57975 1.7747-1.053 3.1945-0.52059 1.5144-0.90315 2.2717-1.1477 2.2717-0.07099 0-0.10648-0.0631-0.10648-0.18931 0.000001-0.4496 0.42594-1.6525 1.2778-3.6086-0.04733 0.0394-0.20902 0.0592-0.4851 0.0592l0.10648-0.47327h0.33128c0.1262 0 0.28001-0.16958 0.46143-0.50876 0.0079-0.0237 0.07888-0.18536 0.21297-0.48509 0.13409-0.30762 0.34706-0.77694 0.63891-1.408 0.0631-0.11043 0.10648-0.16564 0.13015-0.16564 0.01577 0 0.02366 0.0316 0.02366 0.0947-0.000002 0.0631-0.0039 0.13015-0.01183 0.20113 0.18142-0.15775 0.39833-0.23663 0.65074-0.23663 0.26818 0 0.40227 0.12621 0.40227 0.37861-0.000002 0.21297-0.09465 0.57187-0.28396 1.0767-0.15776 0.4496-0.30762 0.8006-0.4496 1.053h0.30762l-0.09465 0.47326m-1.479-0.61525c-0.39439 0.89921-0.72962 1.6919-1.0057 2.3782-0.17353 0.44171-0.27213 0.69017-0.29579 0.74539-0.10254 0.28395-0.17353 0.5403-0.21297 0.76905 0.21297-0.10254 0.71778-1.4001 1.5144-3.8926m3.8236 0.61525h-1.0175c-0.04733 0-0.071-0.0434-0.07099-0.13015-0.000008-0.14198 0.04732-0.25241 0.14198-0.33128 0.0079-0.008 0.07098-0.0513 0.18931-0.13015 0.5127-0.30762 0.76904-0.64679 0.76905-1.0175-0.000009-0.10254-0.05522-0.33128-0.16564-0.68623-0.21298 0.46538-0.47327 0.91498-0.78089 1.3488-0.43383 0.63102-0.79272 0.94653-1.0767 0.94653h-0.36678l0.09465-0.47327h0.37861c0.23663 0 0.55608-0.29579 0.95836-0.88737 0.30761-0.44171 0.54819-0.85581 0.72173-1.2423-0.02367-0.1262-0.0355-0.24452-0.03549-0.35495-0.000009-0.0947 0.01182-0.1893 0.03549-0.28396 0.02365-0.1262 0.07887-0.27607 0.16564-0.4496 0.11042-0.20508 0.20902-0.30762 0.29579-0.30762 0.0631 0 0.09464 0.0592 0.09465 0.17747-0.000009 0.23664-0.0986 0.60342-0.29579 1.1003 0.1262 0.41805 0.1893 0.72567 0.1893 0.92286-0.000007 0.49693-0.20114 0.93865-0.60341 1.3251h0.47326l-0.09465 0.47327m0.09465-3.4903c-0.09466 0.11832-0.14199 0.23269-0.14198 0.34311-0.000008 0.0316-0.000008 0.0631 0 0.0947 0.0631-0.14986 0.11042-0.29578 0.14198-0.43777m2.6771 3.4903h-0.41411c-0.16564 0-0.24846-0.12226-0.24846-0.36678 0-0.17352 0.04339-0.41016 0.13015-0.70989-0.43382 0.71778-0.76905 1.0767-1.0057 1.0767-0.15775 0-0.23663-0.0986-0.23663-0.29579 0-0.23663 0.0986-0.57974 0.29579-1.0293 0.15776-0.33129 0.31552-0.66257 0.47326-0.99386-0.24452 0.42594-0.49298 0.85188-0.74539 1.2778-0.37861 0.65469-0.65074 0.9978-0.81638 1.0294-0.03155 0.008-0.11832 0.0118-0.2603 0.0118l0.09465-0.47326c0.17354-0.008 0.2879-0.0276 0.34312-0.0592 0.05522-0.0394 0.13804-0.14198 0.24846-0.30762 0.22086-0.3865 0.44566-0.77694 0.6744-1.1713 0.37073-0.63102 0.61524-0.94653 0.73356-0.94653 0.0631 0 0.09465 0.0434 0.09465 0.13015 0 0.20508-0.15381 0.59158-0.46143 1.1595-0.29973 0.56791-0.4496 0.93864-0.4496 1.1122 0 0.0552 0.03549 0.0828 0.10648 0.0828 0.20508 0 0.50087-0.33129 0.88737-0.99386 0.26818-0.47326 0.48904-0.91497 0.66257-1.3251 0.04733-0.11831 0.09071-0.17747 0.13015-0.17747s0.05916 0.0434 0.05916 0.13015c0 0.11043-0.12226 0.45354-0.36678 1.0294-0.24452 0.56791-0.36678 0.95836-0.36678 1.1713 0 0.11832 0.06705 0.17748 0.20114 0.17748 0.03944 0 0.09465-0.004 0.16564-0.0118h0.16564l-0.09465 0.47326m3.3544 0h-0.15381c-0.06311 0.008-0.11043 0.0118-0.14198 0.0118-0.18142 0-0.27213-0.0986-0.27213-0.29579 0-0.23663 0.11043-0.61524 0.33128-1.1358 0.22875-0.52848 0.34312-0.84004 0.34312-0.9347 0-0.0868-0.05916-0.13014-0.17748-0.13015-0.21297 0.00001-0.45355 0.21692-0.72173 0.65074-0.15776 0.25241-0.3589 0.65074-0.60341 1.195-0.1893 0.43383-0.29974 0.65074-0.33128 0.65074-0.03944 0-0.05916-0.0394-0.05916-0.11832 0-0.071 0.01578-0.14592 0.04733-0.2248l0.54425-1.3961c0.11832-0.30762 0.17747-0.5127 0.17747-0.61525 0-0.0947-0.04338-0.14197-0.13015-0.14198-0.42594 0.00001-0.83216 0.50088-1.2187 1.5026v-0.0237c-0.31551 0.67045-0.6113 1.0057-0.88737 1.0057h-0.29579l0.09465-0.47326h0.29579c0.23663 0 0.51665-0.36678 0.84004-1.1003 0.18142-0.48904 0.36283-0.97413 0.54425-1.4553l0.13015 0.18931-0.09465 0.24846c0.21297-0.24451 0.44172-0.36678 0.68623-0.36678 0.16564 0 0.24846 0.12227 0.24846 0.36678 0 0.12621-0.02366 0.27607-0.07099 0.4496 0.33917-0.54425 0.64285-0.81638 0.91103-0.81638 0.1893 0 0.28396 0.11438 0.28396 0.34312 0 0.25241-0.11437 0.64285-0.34312 1.1713-0.22085 0.52848-0.33128 0.8361-0.33128 0.92286 0.03155 0.0394 0.18142 0.0552 0.4496 0.0473l-0.09465 0.47327m3.5367-0.49693c0.01577 0.0158 0.18536 0.0237 0.50876 0.0237l-0.09465 0.47326h-0.37861c-0.16564 0-0.24846-0.10648-0.24846-0.31945 0-0.071 0.04338-0.29973 0.13015-0.68623-0.07099 0.11043-0.25636 0.27212-0.55608 0.48509-0.26819 0.17353-0.41805 0.34706-0.4496 0.52059h-0.97019l0.10648-0.47326h0.39044c0.04733-0.33129 0.19325-0.773 0.43777-1.3251 0.26818-0.63102 0.50876-0.9978 0.72173-1.1003 0.11042-0.0552 0.24846-0.0828 0.4141-0.0828 0.1893 0 0.30368 0.0986 0.34312 0.29579 0.67834-2.3742 1.4001-4.2436 2.1652-5.6082 0.16563-0.29973 0.29578-0.4496 0.39044-0.44961 0.06309 0.00001 0.09464 0.0631 0.09465 0.18931-0.000008 0.0947-0.01578 0.22086-0.04733 0.37861-0.16565 0.75723-0.48904 1.6919-0.97019 2.8041-0.41017 0.89921-0.82427 1.8063-1.2423 2.7213-0.41017 0.90709-0.65863 1.6249-0.74539 2.1534m2.7923-7.7615c-0.26819 0.29185-0.6823 1.1556-1.2423 2.5911-0.41017 1.0491-0.76512 2.0981-1.0648 3.1472 1.0806-2.2086 1.8497-4.1213 2.3072-5.7383m-2.6266 6.0578c0-0.20508-0.08282-0.30762-0.24846-0.30762s-0.2879 0.0197-0.36678 0.0592c-0.17354 0.0789-0.39044 0.45749-0.65074 1.1358-0.16564 0.41805-0.24846 0.66257-0.24846 0.73356 0 0.071 0.07099 0.10648 0.21297 0.10648 0.32339 0 0.68229-0.33522 1.0767-1.0057 0.03943-0.0631 0.09071-0.14987 0.15381-0.2603 0.04733-0.16564 0.07099-0.31945 0.07099-0.46143m2.0596 1.7274h0.28396l-0.09465 0.47327h-2.0232l0.09465-0.47327h0.4496c0.02366-0.23663 0.12226-0.57974 0.29579-1.0294 0.18931-0.48114 0.33523-0.79665 0.43777-0.94652 0.22875-0.35495 0.50087-0.53242 0.81638-0.53243h0.08282c0.2603 0.00001 0.39044 0.12621 0.39044 0.37862 0 0.22086-0.09071 0.57975-0.27213 1.0767-0.16564 0.44172-0.31945 0.79272-0.46143 1.053m0.52059-1.8812c0-0.10254-0.10254-0.15381-0.30762-0.15381-0.15776 0-0.28001 0.0197-0.36678 0.0592-0.20508 0.10254-0.43777 0.48115-0.69806 1.1358-0.14986 0.37862-0.2248 0.6113-0.2248 0.69807 0 0.0947 0.05127 0.14198 0.15381 0.14198h0.18931 0.20114c0.22085 0 0.41016-0.17353 0.56792-0.52059 0.3234-0.71779 0.4851-1.1713 0.4851-1.3606m1.2301 1.4671c-0.000009 0.22086 0.0631 0.35101 0.1893 0.39044 0.03155 0.0158 0.19324 0.0237 0.4851 0.0237l-0.10648 0.47327h-0.39044c-0.2603 0-0.39045-0.21297-0.39044-0.63891-0.000008-0.1262 0.01182-0.26424 0.03549-0.4141-0.42595 0.702-0.79666 1.053-1.1122 1.053h-0.29579l0.09465-0.47327h0.30762c0.26818 0 0.59157-0.32339 0.97019-0.97019 0.03943-0.071 0.09464-0.17353 0.16564-0.30762 0.03943-0.1262 0.09071-0.31945 0.15381-0.57975 0.34706-1.262 0.82032-2.6384 1.4198-4.1292 0.32339-0.78877 0.60735-1.404 0.85188-1.8457 0.15775-0.29184 0.28-0.43776 0.36678-0.43777 0.07098 0.00001 0.10648 0.0749 0.10648 0.2248-0.000008 0.46538-0.28002 1.3961-0.84004 2.7922-0.39439 1.0018-0.79666 1.9286-1.2068 2.7804-0.15776 0.33129-0.30763 0.62708-0.4496 0.88737-0.06311 0.11043-0.14593 0.27607-0.24846 0.49693-0.071 0.18142-0.10649 0.40622-0.10648 0.6744m2.6266-7.3829c-0.21298 0.22875-0.59554 1.0451-1.1477 2.4491-0.44172 1.1516-0.81639 2.2559-1.124 3.3128 0.85976-1.688 1.5381-3.301 2.035-4.8391 0.0631-0.20508 0.14197-0.5127 0.23663-0.92287m-0.24089 7.797h0.28396l-0.09465 0.47327h-2.0232l0.09465-0.47327h0.4496c0.02366-0.23663 0.12226-0.57974 0.29579-1.0294 0.18931-0.48114 0.33523-0.79665 0.43777-0.94652 0.22875-0.35495 0.50087-0.53242 0.81638-0.53243h0.08282c0.2603 0.00001 0.39044 0.12621 0.39044 0.37862 0 0.22086-0.09071 0.57975-0.27213 1.0767-0.16564 0.44172-0.31945 0.79272-0.46143 1.053m0.52059-1.8812c0-0.10254-0.10254-0.15381-0.30762-0.15381-0.15775 0-0.28001 0.0197-0.36678 0.0592-0.20508 0.10254-0.43777 0.48115-0.69806 1.1358-0.14986 0.37862-0.2248 0.6113-0.2248 0.69807 0 0.0947 0.05127 0.14198 0.15381 0.14198h0.1893 0.20114c0.22086 0 0.41017-0.17353 0.56792-0.52059 0.3234-0.71779 0.4851-1.1713 0.4851-1.3606m1.5614 1.7984c-0.000009 0.0552 0.03155 0.0828 0.09465 0.0828h0.4851l-0.10649 0.47327h-0.48509c-0.1341 0-0.20114-0.10649-0.20114-0.31945 0-0.48904 0.32339-1.2896 0.97019-2.4018-0.3865 0.26819-0.69807 0.44172-0.9347 0.52059-0.59158 1.4671-1.0372 2.2007-1.337 2.2007h-0.4141l0.10648-0.47327h0.40227c0.20508 0 0.54425-0.56397 1.0175-1.6919-0.14198-0.008-0.21297-0.10649-0.21297-0.29579 0-0.17353 0.07887-0.41411 0.23663-0.72173 0.15775-0.31551 0.31156-0.47326 0.46143-0.47326 0.07098 0 0.10648 0.0631 0.10648 0.1893-0.000008 0.15776-0.05917 0.41017-0.17747 0.75722 0.37072-0.15775 0.82426-0.46537 1.3606-0.92286 0.02365-0.0237 0.04338-0.0355 0.05916-0.0355 0.03155 0 0.04732 0.0394 0.04733 0.11831-0.000009 0.10255-0.0986 0.29974-0.29579 0.59158-0.1972 0.28396-0.42988 0.67835-0.69806 1.1832-0.3234 0.61525-0.4851 1.0215-0.4851 1.2187m-0.0355-2.6266c-0.13409 0.0473-0.25636 0.21297-0.36678 0.49693 0.03155 0.0315 0.07099 0.0473 0.11832 0.0473h0.07099c0.04732-0.1262 0.10648-0.30762 0.17747-0.54425m4.3904 3.1827h-1.0175c-0.04732 0-0.07099-0.0434-0.07099-0.13015 0-0.14198 0.04733-0.25241 0.14198-0.33129 0.0079-0.008 0.07099-0.0513 0.1893-0.13014 0.5127-0.30762 0.76905-0.6468 0.76905-1.0175 0-0.10254-0.05522-0.33128-0.16564-0.68623-0.21297 0.46538-0.47326 0.91498-0.78088 1.3488-0.43382 0.63102-0.79272 0.94653-1.0767 0.94653h-0.36678l0.09465-0.47327h0.37861c0.23663 0 0.55608-0.29579 0.95836-0.88737 0.30762-0.44171 0.5482-0.85581 0.72173-1.2423-0.02366-0.12621-0.03549-0.24452-0.03549-0.35495 0-0.0947 0.01183-0.18931 0.03549-0.28396 0.02366-0.1262 0.07887-0.27607 0.16564-0.4496 0.11042-0.20508 0.20902-0.30762 0.29579-0.30762 0.0631 0 0.09465 0.0592 0.09465 0.17747 0 0.23664-0.0986 0.60342-0.29579 1.1003 0.1262 0.41805 0.18931 0.72567 0.18931 0.92286 0 0.49693-0.20114 0.93864-0.60341 1.3251h0.47326l-0.09465 0.47327m0.09465-3.4903c-0.09465 0.11831-0.14198 0.23269-0.14198 0.34311v0.0947c0.0631-0.14986 0.11042-0.29578 0.14198-0.43777m2.4759-0.52059c-0.10255 0.00001-0.15381-0.0947-0.15381-0.28396 0-0.22874 0.07887-0.52453 0.23663-0.88737 0.18141-0.41804 0.35889-0.62706 0.53242-0.62707 0.10254 0.00001 0.15381 0.0947 0.15381 0.28396 0 0.22875-0.07888 0.52848-0.23663 0.8992-0.17354 0.41017-0.35101 0.61525-0.53242 0.61524m-0.34312 4.0109h-0.43777c-0.28396 0-0.42594-0.19325-0.42594-0.57974 0-0.12621 0.01577-0.27607 0.04733-0.44961-0.35495 0.68624-0.7099 1.0294-1.0648 1.0294h-0.39044l0.09465-0.47326h0.39044c0.3865 0 0.80455-0.55214 1.2541-1.6564 0.20508-0.52059 0.32734-0.78089 0.36678-0.78089 0.03155 0 0.04733 0.0394 0.04733 0.11832 0 0.0868-0.05522 0.28396-0.16564 0.59158-0.24452 0.67046-0.36678 1.1319-0.36678 1.3843 0 0.18142 0.08676 0.29185 0.2603 0.33129 0.03155 0.008 0.19719 0.0118 0.49693 0.0118l-0.10648 0.47326m0.8992-5.2651c0-0.0473-0.01183-0.071-0.03549-0.071-0.08677 0.00001-0.18537 0.10649-0.29579 0.31946-0.11043 0.21297-0.16564 0.37072-0.16564 0.47326 0 0.0394 0.01577 0.0592 0.04733 0.0592 0.07887 0 0.17353-0.10648 0.28396-0.31945 0.11042-0.21297 0.16564-0.36678 0.16564-0.46144m3.7199-3.3247-2.2007 5.6318h0.37861l-0.10648 0.47326h-0.46143l-0.27213 0.68623c-0.18142 0.46538-0.27213 0.78483-0.27213 0.95836 0 0.20508 0.10254 0.32734 0.30762 0.36678h0.55609l-0.10649 0.47327h-0.17747-0.18931c-0.41017 0-0.61524-0.1972-0.61524-0.59158 0-0.0631 0.0039-0.13015 0.01183-0.20114-0.34706 0.52848-0.6744 0.79272-0.98202 0.79272h-0.50876l0.10648-0.47327h0.49693c0.30762 0 0.6113-0.27212 0.91103-0.81638 0.13409-0.23663 0.30761-0.63496 0.52059-1.195h-0.36678l0.09465-0.47326h0.46143l2.2717-5.8212 0.14198 0.18931m1.9881 8.5897h-0.27213c-0.21297 0-0.31945-0.1341-0.31945-0.40228 0-0.11831 0.01972-0.26029 0.05916-0.42594-0.33128 0.51271-0.62708 0.76906-0.88737 0.76906-0.2603 0-0.37861-0.20114-0.35495-0.60341-0.14986 0.2524-0.26818 0.4141-0.35495 0.48509-0.13408 0.11832-0.31945 0.17748-0.55609 0.17748l0.10648-0.47327h0.20114c0.17354 0 0.37467-0.21691 0.60341-0.65074 0.33918-0.62313 0.5837-1.0293 0.73356-1.2186 0.37073-0.43382 0.79666-0.65074 1.2778-0.65074 0.10254 0 0.15381 0.0434 0.15381 0.13015 0 0.11832-0.13015 0.47721-0.39044 1.0767-0.2524 0.59159-0.37861 0.98203-0.37861 1.1713 0 0.0868 0.0631 0.13409 0.1893 0.14198h0.29579l-0.10648 0.47327m0.08282-2.5201h-0.04733c-0.28396-0.008-0.56397 0.10254-0.84004 0.33128-0.23663 0.1972-0.42594 0.44171-0.56792 0.73356l0.01183 0.0118c-0.1262 0.25241-0.1893 0.45749-0.1893 0.61524 0 0.1972 0.07888 0.29579 0.23663 0.29579 0.40227 0 0.86765-0.66257 1.3961-1.9877m3.3556 2.5201h-0.15381c-0.06311 0.008-0.11043 0.0118-0.14198 0.0118-0.18142 0-0.27214-0.0986-0.27213-0.29579-0.000008-0.23663 0.11042-0.61524 0.33128-1.1358 0.22874-0.52848 0.34311-0.84004 0.34312-0.9347-0.000009-0.0868-0.05917-0.13014-0.17747-0.13014-0.21298 0-0.45355 0.21691-0.72173 0.65073-0.15776 0.25241-0.3589 0.65074-0.60341 1.195-0.18931 0.43382-0.29974 0.65073-0.33128 0.65073-0.03944 0-0.05917-0.0394-0.05916-0.11831-0.000009-0.071 0.01577-0.14593 0.04733-0.2248l0.54425-1.3961c0.11831-0.30762 0.17746-0.5127 0.17747-0.61524-0.000009-0.0947-0.04339-0.14198-0.13015-0.14198-0.42595 0-0.83216 0.50087-1.2187 1.5026v-0.0237c-0.31552 0.67046-0.6113 1.0057-0.88737 1.0057h-0.29579l0.09465-0.47326h0.29579c0.23663 0 0.51664-0.36678 0.84004-1.1003 0.18141-0.48904 0.36283-0.97413 0.54426-1.4553l0.13015 0.18931-0.09465 0.24846c0.21296-0.24451 0.44171-0.36677 0.68623-0.36678 0.16563 0.00001 0.24846 0.12227 0.24846 0.36678-0.000008 0.12621-0.02367 0.27608-0.07099 0.4496 0.33917-0.54425 0.64284-0.81637 0.91103-0.81638 0.1893 0.00001 0.28395 0.11438 0.28396 0.34312-0.000008 0.25241-0.11438 0.64285-0.34312 1.1713-0.22086 0.52848-0.33129 0.8361-0.33128 0.92286 0.03155 0.0394 0.18141 0.0552 0.4496 0.0473l-0.09465 0.47327m2.4262 0h-1.3606c-0.1262 0-0.18536-0.13015-0.17748-0.39045-0.29184 0.2603-0.50481 0.39045-0.6389 0.39045h-0.2603l0.09465-0.47327c0.20508 0 0.36283-0.0276 0.47326-0.0828 0.07099-0.0316 0.1893-0.1262 0.35495-0.28395l0.03549-0.0237c0.07887-0.36284 0.20902-0.74145 0.39044-1.1358 0.22085-0.48904 0.44566-0.78877 0.6744-0.8992 0.11832-0.0552 0.27213-0.0828 0.46143-0.0828 0.29184 0 0.43776 0.10649 0.43777 0.31945-0.000009 0.24453-0.17354 0.54032-0.52059 0.88737-0.27607 0.24453-0.5482 0.48904-0.81638 0.73356-0.10254 0.10254-0.25635 0.24847-0.46143 0.43777 0 0.0868 0.01972 0.13015 0.05916 0.13015h1.3488l-0.09465 0.47326m0.20114-2.461c-0.07888-0.0315-0.19325-0.0473-0.34312-0.0473-0.14198 0-0.26029 0.0276-0.35495 0.0828-0.27607 0.15776-0.52454 0.60341-0.74539 1.337 0.08677-0.0868 0.22085-0.21296 0.40228-0.37861 0.24452-0.20508 0.59158-0.53636 1.0412-0.99385m4.3786-6.1288-2.2007 5.6318h0.37861l-0.10648 0.47326h-0.46143l-0.27213 0.68624c-0.18142 0.46537-0.27213 0.78483-0.27213 0.95836 0 0.20508 0.10254 0.32734 0.30762 0.36678h0.55608l-0.10648 0.47326h-0.17747-0.18931c-0.41016 0-0.61524-0.19719-0.61524-0.59158 0-0.0631 0.0039-0.13015 0.01183-0.20114-0.34706 0.52848-0.6744 0.79272-0.98202 0.79272h-0.50876l0.10648-0.47326h0.49693c0.30762 0 0.6113-0.27213 0.91103-0.81639 0.1341-0.23663 0.30762-0.63496 0.52059-1.195h-0.36678l0.09465-0.47326h0.46143l2.2717-5.8212 0.14198 0.18931m-2.033 9.2641-0.13015-0.18931c0.07887-0.19719 0.21297-0.48509 0.40227-0.8637 0.10254-0.14198 0.20508-0.28396 0.30762-0.42594 0.1262-0.1893 0.1893-0.34311 0.1893-0.46143 0-0.0394-0.01578-0.0592-0.04733-0.0592-0.12621 0-0.28396 0.24452-0.47326 0.73356l-0.13015-0.18931c0.2603-0.67834 0.49693-1.0175 0.7099-1.0175 0.10254 0.00001 0.15381 0.0947 0.15381 0.28396 0 0.36284-0.11043 0.70596-0.33128 1.0294-0.30762 0.4496-0.52454 0.8361-0.65074 1.1595m-58.378 8.6962-0.21297 0.27213c-0.0079-0.14987-0.03155-0.24057-0.07099-0.27213-0.03155-0.0315-0.13015-0.0473-0.29579-0.0473-0.34706 0.00001-0.66257 0.33918-0.94653 1.0175l0.01183 0.0118c-0.19719 0.42594-0.29579 0.72173-0.29579 0.88737 0 0.0789 0.04338 0.12226 0.13015 0.13015-0.10254-0.008-0.02761-0.0118 0.2248-0.0118h1.0293l-0.09465 0.47322h-1.124c-0.29974 0-0.42988-0.1617-0.39044-0.48505-0.20508 0.32335-0.40228 0.48505-0.59158 0.48505h-0.24846l0.09465-0.47322h0.2603c0.1893 0 0.41016-0.25635 0.66257-0.76905 0.16564-0.36284 0.33128-0.72567 0.49693-1.0885 0.25241-0.42594 0.5482-0.64285 0.88737-0.65074h0.11832c0.22085 0 0.33917 0.17353 0.35495 0.52059m1.2804 1.9877h0.28396l-0.09465 0.47322h-2.0232l0.09465-0.47322h0.4496c0.02366-0.23663 0.12226-0.57975 0.29579-1.0294 0.1893-0.48115 0.33523-0.79666 0.43777-0.94653 0.22874-0.35494 0.50087-0.53242 0.81638-0.53242h0.08282c0.26029 0 0.39044 0.12621 0.39044 0.37861-0.000003 0.22086-0.09071 0.57975-0.27213 1.0767-0.16564 0.44171-0.31946 0.79271-0.46143 1.053m0.52059-1.8812c-0.000002-0.10253-0.10254-0.1538-0.30762-0.15381-0.15776 0.00001-0.28002 0.0197-0.36678 0.0592-0.20508 0.10255-0.43777 0.48116-0.69806 1.1358-0.14987 0.37861-0.2248 0.6113-0.2248 0.69806-0.000001 0.0947 0.05127 0.14198 0.15381 0.14198h0.18931 0.20114c0.22086 0 0.41016-0.17353 0.56792-0.52059 0.3234-0.71778 0.48509-1.1713 0.4851-1.3606m2.4606 2.3545h-0.46143c-0.14198 0-0.21297-0.095-0.21297-0.284-0.000002-0.22083 0.09465-0.55212 0.28396-0.99383 0.1893-0.4496 0.28396-0.76905 0.28396-0.95836-0.000002-0.16564-0.06705-0.24846-0.20114-0.24846-0.45749 0-0.87948 0.50087-1.266 1.5026l-0.01183-0.0237c-0.30762 0.67044-0.60341 1.0056-0.88737 1.0056h-0.36678l0.10648-0.47322h0.35495c0.23663 0 0.51664-0.36677 0.84004-1.1003 0.18142-0.48904 0.36678-0.97414 0.55608-1.4553l0.13015 0.1893-0.11832 0.30763c0.25241-0.28396 0.50481-0.42594 0.75722-0.42594 0.21296 0 0.31945 0.16959 0.31945 0.50876-0.000003 0.26029-0.09466 0.61524-0.28396 1.0648-0.18142 0.4496-0.27213 0.72962-0.27213 0.84004-0.000002 0.0473 0.02761 0.071 0.08282 0.071h0.46143l-0.09465 0.47331m2.3234 0h-1.0175c-0.04733 0-0.07099-0.043-0.07099-0.1302-0.000002-0.142 0.04733-0.2524 0.14198-0.33127 0.0079-0.008 0.07099-0.0513 0.18931-0.13015 0.5127-0.30762 0.76905-0.64679 0.76905-1.0175-0.000003-0.10254-0.05522-0.33128-0.16564-0.68623-0.21297 0.46538-0.47326 0.91498-0.78088 1.3488-0.43383 0.63097-0.79272 0.94657-1.0767 0.94657h-0.36678l0.09465-0.47331h0.37861c0.23663 0 0.55608-0.29578 0.95836-0.88736 0.30762-0.44172 0.54819-0.85582 0.72173-1.2423-0.02366-0.1262-0.0355-0.24452-0.03549-0.35495-0.000001-0.0947 0.01183-0.1893 0.03549-0.28396 0.02366-0.1262 0.07888-0.27607 0.16564-0.4496 0.11042-0.20508 0.20902-0.30762 0.29579-0.30762 0.0631 0 0.09465 0.0592 0.09465 0.17747-0.000002 0.23664-0.0986 0.60342-0.29579 1.1003 0.1262 0.41805 0.1893 0.72567 0.18931 0.92287-0.000002 0.49692-0.20114 0.93864-0.60341 1.3251h0.47326l-0.09465 0.47331m0.09465-3.4904c-0.09466 0.11832-0.14198 0.23269-0.14198 0.34311-0.000002 0.0316-0.000002 0.0631 0 0.0947 0.0631-0.14986 0.11043-0.29578 0.14198-0.43776m2.334 3.4903h-1.3606c-0.12621 0-0.18536-0.1301-0.17748-0.39044-0.29185 0.26034-0.50482 0.39044-0.63891 0.39044h-0.2603l0.09465-0.47326c0.20508 0 0.36284-0.0276 0.47326-0.0828 0.07099-0.0316 0.1893-0.1262 0.35495-0.28396l0.0355-0.0237c0.07888-0.36283 0.20902-0.74144 0.39044-1.1358 0.22086-0.48904 0.44566-0.78877 0.6744-0.8992 0.11831-0.0552 0.27212-0.0828 0.46143-0.0828 0.29184 0 0.43777 0.10649 0.43777 0.31945-0.000003 0.24453-0.17353 0.54032-0.52059 0.88737-0.27607 0.24452-0.5482 0.48904-0.81638 0.73356-0.10254 0.10254-0.25635 0.24847-0.46143 0.43777-0.000001 0.0868 0.01972 0.13015 0.05916 0.13015h1.3488l-0.09465 0.47325m0.20114-2.461c-0.07888-0.0315-0.19325-0.0473-0.34312-0.0473-0.14198 0-0.2603 0.0276-0.35495 0.0828-0.27607 0.15776-0.52454 0.60341-0.74539 1.337 0.08676-0.0868 0.22086-0.21297 0.40227-0.37861 0.24452-0.20508 0.59158-0.53636 1.0412-0.99385m2.663 0-0.21297 0.27212c-0.0079-0.14986-0.03155-0.24057-0.07099-0.27212-0.03155-0.0315-0.13015-0.0473-0.29579-0.0473-0.34706 0-0.66257 0.33917-0.94653 1.0175l0.01183 0.0118c-0.1972 0.42594-0.29579 0.72173-0.29579 0.88737-0.000001 0.0789 0.04338 0.12226 0.13015 0.13015-0.10254-0.008-0.02761-0.0118 0.2248-0.0118h1.0293l-0.09465 0.47322h-1.124c-0.29974 0-0.42988-0.1617-0.39044-0.48505-0.20508 0.32335-0.40227 0.48505-0.59158 0.48505h-0.24846l0.09465-0.47322h0.2603c0.1893 0 0.41016-0.25635 0.66257-0.76905 0.16564-0.36284 0.33128-0.72567 0.49693-1.0885 0.2524-0.42593 0.5482-0.64285 0.88737-0.65074h0.11832c0.22085 0.00001 0.33917 0.17354 0.35495 0.52059m4.0727-6.1288-2.2007 5.6318h0.37861l-0.10648 0.47326h-0.46143l-0.27213 0.68623c-0.18142 0.46538-0.27213 0.78483-0.27213 0.95836-0.000001 0.20508 0.10254 0.32734 0.30762 0.36678h0.55608l-0.10648 0.47322h-0.17748-0.1893c-0.41016 0-0.61524-0.1972-0.61524-0.59153-0.000001-0.0631 0.0039-0.13015 0.01183-0.20114-0.34706 0.52847-0.6744 0.79267-0.98202 0.79267h-0.50876l0.10648-0.47322h0.49693c0.30762 0 0.6113-0.27212 0.91103-0.81638 0.13409-0.23663 0.30762-0.63496 0.52059-1.195h-0.36678l0.09465-0.47326h0.46143l2.2717-5.8212 0.14198 0.18931m0.22683 8.5897h-1.3606c-0.1262 0-0.18536-0.1301-0.17747-0.3904-0.29185 0.2603-0.50482 0.3904-0.63891 0.3904h-0.2603l0.09465-0.47322c0.20508 0 0.36284-0.0276 0.47326-0.0828 0.07099-0.0316 0.1893-0.1262 0.35495-0.28396l0.0355-0.0237c0.07888-0.36283 0.20902-0.74144 0.39044-1.1358 0.22086-0.48904 0.44566-0.78877 0.6744-0.8992 0.11832-0.0552 0.27212-0.0828 0.46143-0.0828 0.29184 0 0.43777 0.10649 0.43777 0.31945-0.000003 0.24452-0.17353 0.54031-0.52059 0.88737-0.27607 0.24452-0.5482 0.48904-0.81638 0.73356-0.10254 0.10254-0.25635 0.24847-0.46143 0.43777-0.000001 0.0868 0.01972 0.13015 0.05916 0.13015h1.3488l-0.09465 0.47321m0.20114-2.4609c-0.07888-0.0315-0.19325-0.0473-0.34312-0.0473-0.14198 0-0.2603 0.0276-0.35495 0.0828-0.27607 0.15776-0.52454 0.60341-0.74539 1.337 0.08676-0.0868 0.22086-0.21297 0.40227-0.37861 0.24452-0.20508 0.59158-0.53636 1.0412-0.99386m4.3786-6.1288-2.2007 5.6318h0.37861l-0.10648 0.47326h-0.46143l-0.27213 0.68623c-0.18142 0.46538-0.27213 0.78483-0.27213 0.95836 0 0.20508 0.10254 0.32734 0.30762 0.36678h0.55608l-0.10645 0.47321h-0.17748-0.1893c-0.41017 0-0.61524-0.1971-0.61524-0.59153 0-0.0631 0.0039-0.13014 0.01183-0.20113-0.34706 0.52846-0.6744 0.79266-0.98202 0.79266h-0.50876l0.10648-0.47321h0.49693c0.30762 0 0.6113-0.27213 0.91103-0.81638 0.13409-0.23663 0.30762-0.63496 0.52059-1.195h-0.36678l0.09465-0.47326h0.46143l2.2717-5.8212 0.14198 0.1893m0.56995 8.5897h-0.41411c-0.16565 0-0.24847-0.1222-0.24846-0.3667-0.000009-0.17355 0.04338-0.41019 0.13015-0.70992-0.43383 0.71782-0.76906 1.0766-1.0057 1.0766-0.15776 0-0.23664-0.099-0.23663-0.2957-0.000008-0.23667 0.09859-0.57978 0.29579-1.0294 0.15775-0.33129 0.31551-0.66257 0.47326-0.99386-0.24452 0.42594-0.49299 0.85188-0.74539 1.2778-0.37861 0.65469-0.65074 0.99783-0.81638 1.0293-0.03156 0.01-0.11832 0.012-0.2603 0.012l0.09465-0.47324c0.17353-0.008 0.2879-0.0276 0.34312-0.0592 0.05521-0.0394 0.13803-0.14198 0.24846-0.30762 0.22085-0.3865 0.44565-0.77694 0.6744-1.1713 0.37072-0.63102 0.61523-0.94653 0.73356-0.94653 0.0631 0 0.09464 0.0434 0.09465 0.13015-0.000008 0.20508-0.15382 0.59158-0.46143 1.1595-0.29974 0.56791-0.44961 0.93864-0.4496 1.1122-0.000009 0.0552 0.03549 0.0828 0.10648 0.0828 0.20508 0 0.50087-0.33129 0.88737-0.99386 0.26818-0.47326 0.48903-0.91497 0.66257-1.3251 0.04732-0.11831 0.09071-0.17747 0.13015-0.17747 0.03943 0 0.05915 0.0434 0.05916 0.13015-0.000008 0.11043-0.12226 0.45354-0.36678 1.0294-0.24452 0.56791-0.36679 0.95836-0.36678 1.1713-0.000008 0.11832 0.06704 0.17748 0.20114 0.17748 0.03943 0 0.09464-0.004 0.16564-0.0118h0.16564l-0.09465 0.47327m2.3606 0h-1.3606c-0.1262 0-0.18536-0.1302-0.17747-0.39045-0.29184 0.26025-0.50481 0.39045-0.63891 0.39045h-0.2603l0.09465-0.47327c0.20508 0 0.36284-0.0276 0.47326-0.0828 0.07099-0.0316 0.18931-0.12621 0.35495-0.28396l0.03549-0.0237c0.07888-0.36283 0.20903-0.74145 0.39044-1.1358 0.22086-0.48904 0.44566-0.78877 0.6744-0.8992 0.11832-0.0552 0.27213-0.0828 0.46143-0.0828 0.29184 0 0.43777 0.10648 0.43777 0.31945 0 0.24452-0.17353 0.54031-0.52059 0.88737-0.27606 0.24452-0.54819 0.48904-0.81638 0.73356-0.10254 0.10254-0.25635 0.24846-0.46143 0.43777 0 0.0868 0.01973 0.13014 0.05916 0.13014h1.3488l-0.09465 0.47327m0.20114-2.461c-0.07887-0.0315-0.19325-0.0473-0.34312-0.0473-0.14198 0-0.2603 0.0276-0.35495 0.0828-0.27606 0.15775-0.52453 0.60341-0.74539 1.337 0.08677-0.0868 0.22086-0.21297 0.40227-0.37862 0.24452-0.20508 0.59158-0.53636 1.0412-0.99385m1.681 1.9049c0 0.0552 0.03155 0.0828 0.09465 0.0828h0.4851l-0.10648 0.47328h-0.4851c-0.13409 0-0.20114-0.1065-0.20114-0.3195 0-0.48901 0.32339-1.2896 0.97019-2.4018-0.3865 0.26819-0.69806 0.44172-0.9347 0.52059-0.59158 1.4671-1.0372 2.2007-1.337 2.2007h-0.41411l0.10648-0.47328h0.40227c0.20508 0 0.54425-0.56397 1.0175-1.6919-0.14198-0.008-0.21297-0.10648-0.21297-0.29579 0-0.17353 0.07887-0.4141 0.23663-0.72173 0.15775-0.3155 0.31156-0.47326 0.46143-0.47326 0.07099 0 0.10648 0.0631 0.10648 0.1893 0 0.15776-0.05916 0.41017-0.17747 0.75723 0.37072-0.15776 0.82426-0.46538 1.3606-0.92287 0.02366-0.0237 0.04338-0.0355 0.05916-0.0355 0.03155 0.00001 0.04732 0.0394 0.04733 0.11832-0.000009 0.10254-0.0986 0.29973-0.29579 0.59158-0.1972 0.28396-0.42988 0.67834-0.69806 1.1832-0.3234 0.61524-0.4851 1.0215-0.4851 1.2186m-0.03549-2.6266c-0.13409 0.0473-0.25636 0.21297-0.36678 0.49692 0.03155 0.0315 0.07099 0.0473 0.11832 0.0473 0.02366 0.00001 0.04733 0.00001 0.07099 0 0.04733-0.1262 0.10648-0.30761 0.17747-0.54425m4.6981 3.1826h-0.27213c-0.21297 0-0.31945-0.134-0.31945-0.40222 0-0.11832 0.01972-0.2603 0.05916-0.42594-0.33128 0.51266-0.62707 0.76906-0.88737 0.76906s-0.37861-0.2011-0.35495-0.60342c-0.14986 0.25241-0.26818 0.41412-0.35495 0.48512-0.13409 0.1183-0.31945 0.1774-0.55608 0.1774l0.10648-0.47321h0.20114c0.17353 0 0.37466-0.21691 0.60341-0.65074 0.33917-0.62313 0.58369-1.0294 0.73356-1.2187 0.37073-0.43382 0.79666-0.65073 1.2778-0.65073 0.10254 0 0.15381 0.0434 0.15381 0.13014 0 0.11832-0.13015 0.47721-0.39044 1.0767-0.25241 0.59158-0.37861 0.98202-0.37861 1.1713 0 0.0868 0.0631 0.13409 0.18931 0.14198h0.29579l-0.10648 0.47321m0.08282-2.5201h-0.04733c-0.28396-0.008-0.56397 0.10254-0.84004 0.33128-0.23663 0.1972-0.42594 0.44172-0.56792 0.73356l0.01183 0.0118c-0.1262 0.25241-0.18931 0.45749-0.18931 0.61525 0 0.19719 0.07887 0.29579 0.23663 0.29579 0.40227 0 0.86765-0.66257 1.3961-1.9877m1.9239 2.0232c0.01578 0.0158 0.18536 0.0237 0.50876 0.0237l-0.09465 0.47331h-0.37861c-0.16564 0-0.24846-0.1065-0.24846-0.3195 0-0.071 0.04338-0.29973 0.13015-0.68623-0.07099 0.11043-0.25635 0.27213-0.55608 0.4851-0.26818 0.17353-0.41804 0.34703-0.4496 0.52063h-0.97019l0.10648-0.47331h0.39044c0.04733-0.33128 0.19325-0.77299 0.43777-1.3251 0.26819-0.63102 0.50876-0.9978 0.72173-1.1003 0.11043-0.0552 0.24846-0.0828 0.41411-0.0828 0.18931 0 0.30368 0.0986 0.34312 0.29579 0.67835-2.3742 1.4001-4.2436 2.1652-5.6082 0.16564-0.29973 0.29579-0.44959 0.39044-0.4496 0.0631 0.00001 0.09465 0.0631 0.09465 0.1893 0 0.0947-0.01578 0.22087-0.04733 0.37861-0.16564 0.75724-0.48904 1.6919-0.97019 2.8041-0.41016 0.89921-0.82426 1.8063-1.2423 2.7213-0.41016 0.90709-0.65862 1.6249-0.74539 2.1534m2.7923-7.7615c-0.26819 0.29186-0.68229 1.1556-1.2423 2.5911-0.41016 1.0491-0.76511 2.0981-1.0648 3.1472 1.0806-2.2086 1.8497-4.1213 2.3072-5.7383m-2.6266 6.0578c0-0.20508-0.08282-0.30762-0.24846-0.30762s-0.2879 0.0197-0.36678 0.0592c-0.17353 0.0789-0.39044 0.45749-0.65074 1.1358-0.16564 0.41805-0.24846 0.66257-0.24846 0.73356 0 0.071 0.07099 0.10649 0.21297 0.10649 0.3234 0 0.68229-0.33523 1.0767-1.0057 0.03944-0.0631 0.09071-0.14987 0.15381-0.2603 0.04733-0.16564 0.07099-0.31945 0.07099-0.46143m2.8405-1.8102c-0.10255 0-0.15382-0.0947-0.15381-0.28396-0.000009-0.22874 0.07887-0.52453 0.23663-0.88737 0.18141-0.41804 0.35889-0.62707 0.53242-0.62707 0.10254 0 0.1538 0.0947 0.15381 0.28395-0.000008 0.22875-0.07888 0.52849-0.23663 0.89921-0.17354 0.41016-0.35101 0.61524-0.53242 0.61524m-0.34312 4.0109h-0.43777c-0.28396 0-0.42594-0.1932-0.42594-0.57973 0-0.1262 0.01577-0.27607 0.04733-0.4496-0.35495 0.68623-0.7099 1.0293-1.0648 1.0293h-0.39044l0.09465-0.47324h0.39044c0.3865 0 0.80455-0.55214 1.2542-1.6564 0.20508-0.52059 0.32734-0.78088 0.36678-0.78088 0.03155 0 0.04732 0.0394 0.04733 0.11831-0.000009 0.0868-0.05522 0.28396-0.16564 0.59158-0.24452 0.67046-0.36678 1.1319-0.36678 1.3843 0 0.18142 0.08676 0.29185 0.2603 0.33128 0.03155 0.008 0.19719 0.0118 0.49693 0.0118l-0.10648 0.47328m0.8992-5.2651c-0.000009-0.0473-0.01184-0.071-0.0355-0.071-0.08677 0-0.18537 0.10649-0.29579 0.31945-0.11043 0.21297-0.16565 0.37073-0.16564 0.47326-0.000008 0.0394 0.01577 0.0592 0.04733 0.0592 0.07887 0.00001 0.17353-0.10648 0.28396-0.31945 0.11042-0.21296 0.16563-0.36677 0.16564-0.46143m1.5074 5.265h-0.81638c-0.04733 0-0.07099-0.039-0.07099-0.1183 0-0.2366 0.05916-0.35495 0.17747-0.35495 0.17354 0 0.33128-0.13409 0.47326-0.40227 0.03944-0.071 0.12621-0.28001 0.2603-0.62707 0.18142-0.47327 0.27213-0.75722 0.27213-0.85188 0-0.10254-0.09465-0.15381-0.28396-0.15381-0.43382 0-0.74144 0.2603-0.92286 0.78088-0.22874 0.7099-0.57975 1.7747-1.053 3.1945-0.52059 1.5145-0.90314 2.2717-1.1477 2.2717-0.07098 0-0.10648-0.063-0.10648-0.1893 0.000008-0.4496 0.42594-1.6525 1.2778-3.6086-0.04733 0.039-0.20902 0.059-0.4851 0.059l0.10648-0.4733h0.33128c0.12621 0 0.28002-0.16959 0.46143-0.50876 0.0079-0.0237 0.07888-0.18536 0.21297-0.4851 0.13409-0.30762 0.34706-0.77694 0.63891-1.408 0.06311-0.11042 0.10648-0.16564 0.13015-0.16564 0.01578 0 0.02366 0.0316 0.02366 0.0947s-0.0039 0.13015-0.01183 0.20114c0.18142-0.15775 0.39834-0.23663 0.65074-0.23663 0.26818 0 0.40228 0.1262 0.40228 0.37861 0 0.21297-0.09465 0.57186-0.28396 1.0767-0.15776 0.44961-0.30762 0.80061-0.4496 1.053h0.30762l-0.09465 0.47325m-1.479-0.61523c-0.39438 0.89923-0.72961 1.6919-1.0057 2.3781-0.17353 0.4417-0.27213 0.6902-0.29579 0.7454-0.10254 0.284-0.17353 0.5403-0.21297 0.7691 0.21298-0.1026 0.71779-1.4001 1.5144-3.8926m4.036-3.41c-0.10255 0.00001-0.15381-0.0947-0.15381-0.28395 0-0.22874 0.07887-0.52453 0.23663-0.88737 0.18141-0.41805 0.35889-0.62707 0.53242-0.62708 0.10254 0.00001 0.15381 0.0947 0.15381 0.28396 0 0.22875-0.07888 0.52848-0.23663 0.8992-0.17354 0.41017-0.35101 0.61525-0.53242 0.61524m-0.34312 4.0109h-0.43777c-0.28396 0-0.42594-0.1932-0.42594-0.57973 0-0.12621 0.01578-0.27607 0.04733-0.4496-0.35495 0.68623-0.7099 1.0293-1.0648 1.0293h-0.39044l0.09465-0.47325h0.39044c0.3865 0 0.80455-0.55214 1.2542-1.6564 0.20508-0.52059 0.32734-0.78089 0.36678-0.78089 0.03155 0 0.04733 0.0394 0.04733 0.11832 0 0.0868-0.05521 0.28396-0.16564 0.59158-0.24452 0.67046-0.36678 1.1319-0.36678 1.3843 0 0.18142 0.08677 0.29185 0.26029 0.33129 0.03155 0.008 0.19719 0.0118 0.49693 0.0118l-0.10648 0.47328m0.8992-5.2651c0-0.0473-0.01183-0.071-0.03549-0.071-0.08677 0.00001-0.18537 0.10649-0.29579 0.31946-0.11043 0.21297-0.16564 0.37072-0.16564 0.47326 0 0.0394 0.01577 0.0592 0.04733 0.0592 0.07887 0 0.17353-0.10648 0.28396-0.31946 0.11042-0.21296 0.16564-0.36677 0.16564-0.46143m1.4719 5.265h-1.0175c-0.04733 0-0.07099-0.043-0.07099-0.1301 0-0.142 0.04733-0.25244 0.14198-0.33132 0.0079-0.008 0.07099-0.0513 0.18931-0.13015 0.5127-0.30762 0.76905-0.64679 0.76905-1.0175 0-0.10254-0.05522-0.33129-0.16564-0.68624-0.21297 0.46538-0.47326 0.91498-0.78089 1.3488-0.43383 0.63101-0.79272 0.94651-1.0767 0.94651h-0.36678l0.09465-0.47325h0.37861c0.23663 0 0.55608-0.29579 0.95836-0.88737 0.30762-0.44171 0.54819-0.85582 0.72173-1.2423-0.02366-0.1262-0.03549-0.24451-0.03549-0.35495 0-0.0947 0.01183-0.1893 0.03549-0.28395 0.02366-0.1262 0.07887-0.27607 0.16564-0.4496 0.11042-0.20508 0.20902-0.30762 0.29579-0.30763 0.0631 0.00001 0.09465 0.0592 0.09465 0.17748 0 0.23663-0.0986 0.60341-0.29579 1.1003 0.1262 0.41805 0.18931 0.72567 0.18931 0.92286 0 0.49693-0.20114 0.93864-0.60341 1.3251h0.47326l-0.09465 0.47325m0.09465-3.4903c-0.09465 0.11832-0.14198 0.23269-0.14198 0.34312v0.0947c0.0631-0.14986 0.11042-0.29579 0.14198-0.43777m2.7717 1.0294-0.21297 0.27213c-0.0079-0.14987-0.03156-0.24058-0.07099-0.27213-0.03156-0.0315-0.13016-0.0473-0.29579-0.0473-0.34706 0-0.66257 0.33917-0.94653 1.0175l0.01183 0.0118c-0.1972 0.42594-0.29579 0.72172-0.29579 0.88737 0 0.0789 0.04338 0.12226 0.13015 0.13015-0.10255-0.008-0.02761-0.0118 0.2248-0.0118h1.0293l-0.09465 0.47327h-1.124c-0.29974 0-0.42988-0.1617-0.39044-0.48511-0.20508 0.32341-0.40227 0.48511-0.59158 0.48511h-0.24846l0.09465-0.47327h0.2603c0.1893 0 0.41016-0.25635 0.66257-0.76906 0.16564-0.36283 0.33128-0.72567 0.49693-1.0885 0.2524-0.42593 0.54819-0.64284 0.88737-0.65073h0.11832c0.22085 0 0.33917 0.17353 0.35495 0.52059m2.0613-1.5499c-0.10255 0-0.15381-0.0947-0.15381-0.28396 0-0.22874 0.07887-0.52453 0.23663-0.88737 0.18141-0.41804 0.35889-0.62707 0.53242-0.62707 0.10254 0 0.15381 0.0947 0.15381 0.28395 0 0.22875-0.07888 0.52849-0.23663 0.89921-0.17354 0.41016-0.35101 0.61524-0.53242 0.61524m-0.34312 4.0109h-0.43777c-0.28396 0-0.42594-0.1933-0.42594-0.57976 0-0.1262 0.01577-0.27607 0.04733-0.4496-0.35495 0.68626-0.7099 1.0294-1.0648 1.0294h-0.39044l0.09465-0.47327h0.39044c0.3865 0 0.80455-0.55214 1.2542-1.6564 0.20507-0.52059 0.32734-0.78088 0.36678-0.78088 0.03155 0 0.04733 0.0394 0.04733 0.11831 0 0.0868-0.05522 0.28396-0.16564 0.59158-0.24452 0.67046-0.36678 1.1319-0.36678 1.3843 0 0.18142 0.08676 0.29185 0.2603 0.33128 0.03155 0.008 0.19719 0.0118 0.49693 0.0118l-0.10648 0.47331m0.8992-5.2651c0-0.0473-0.01183-0.071-0.03549-0.071-0.08677 0-0.18537 0.10649-0.29579 0.31945-0.11043 0.21297-0.16564 0.37073-0.16564 0.47326 0 0.0394 0.01577 0.0592 0.04733 0.0592 0.07887 0.00001 0.17353-0.10648 0.28396-0.31945 0.11042-0.21296 0.16564-0.36677 0.16564-0.46143m1.9215 5.2651h-0.46143c-0.14199 0-0.21298-0.095-0.21297-0.284-0.000009-0.22083 0.09464-0.55211 0.28396-0.99382 0.1893-0.4496 0.28395-0.76906 0.28396-0.95836-0.000008-0.16564-0.06705-0.24846-0.20114-0.24847-0.45749 0.00001-0.87948 0.50088-1.266 1.5026l-0.01183-0.0237c-0.30762 0.67043-0.60341 1.0056-0.88737 1.0056h-0.36678l0.10648-0.47321h0.35495c0.23663 0 0.51664-0.36678 0.84004-1.1003 0.18141-0.48904 0.36678-0.97413 0.55608-1.4553l0.13015 0.18931-0.11832 0.30762c0.2524-0.28395 0.50481-0.42593 0.75722-0.42594 0.21296 0.00001 0.31944 0.16959 0.31945 0.50876-0.000009 0.2603-0.09466 0.61525-0.28396 1.0648-0.18142 0.4496-0.27214 0.72961-0.27213 0.84004-0.000008 0.0473 0.0276 0.071 0.08282 0.071h0.46143l-0.09465 0.4733m2.6784 0c-0.3865 0-0.67441 0.051-0.86371 0.1538-1.1201 2.3978-1.8024 3.5968-2.0469 3.5968-0.09465 0-0.14198-0.083-0.14198-0.2485 0-0.095 0.01577-0.2169 0.04733-0.3668 0.11042-0.489 0.31156-1.0135 0.60341-1.5736 0.29184-0.56 0.6113-1.0175 0.95836-1.3724-0.04733 0.016-0.09465 0.024-0.14198 0.024-0.18931 0-0.28396-0.1262-0.28396-0.3786 0-0.063 0.0079-0.1302 0.02366-0.2012-0.13409 0.1735-0.27607 0.284-0.42594 0.3313-0.08677 0.024-0.26819 0.035-0.54425 0.035l0.09465-0.47326h0.29579c0.31551 0 0.57186-0.21691 0.76905-0.65074 0.16564-0.40227 0.32734-0.80454 0.4851-1.2068 0.22085-0.43382 0.52848-0.65073 0.92286-0.65074h0.56792c0.01577-0.0316 0.03155-0.0473 0.04733-0.0473 0.02366 0.00001 0.03549 0.0158 0.03549 0.0473h0.05916l-0.10649 0.47327h-0.03549c-0.18142 0.47326-0.48904 1.1753-0.92286 2.106 0.13409-0.0473 0.36677-0.071 0.69806-0.071l-0.09465 0.47327m0.10648-2.5083h-0.50876c-0.14987 0-0.26819 0.0276-0.35495 0.0828-0.14987 0.0947-0.35495 0.46537-0.61524 1.1122-0.18142 0.45749-0.27213 0.74539-0.27213 0.8637 0 0.12623 0.05521 0.18933 0.16564 0.18933 0.41016 0 0.93863-0.74936 1.5854-2.248m-1.3015 2.8869c-0.35495 0.2918-0.69018 0.7059-1.0057 1.2423-0.30762 0.5442-0.51271 1.053-0.61524 1.5263-0.01578 0.039-0.02366 0.079-0.02366 0.1183l0.02366 0.012c0.16564-0.039 0.70595-1.0057 1.6209-2.8988m-51.244 11.453h-1.3606c-0.1262 0-0.18536-0.1301-0.17747-0.3904-0.29185 0.2603-0.50482 0.3904-0.63891 0.3904h-0.2603l0.09465-0.4732c0.20508 0 0.36284-0.028 0.47326-0.083 0.07099-0.032 0.1893-0.1262 0.35495-0.284l0.0355-0.024c0.07888-0.3628 0.20902-0.7414 0.39044-1.1358 0.22085-0.4891 0.44565-0.7888 0.6744-0.8992 0.11831-0.055 0.27212-0.083 0.46143-0.083 0.29184 0 0.43777 0.1065 0.43777 0.3194-0.000003 0.2446-0.17353 0.5403-0.52059 0.8874-0.27607 0.2445-0.5482 0.489-0.81638 0.7336-0.10254 0.1025-0.25635 0.2484-0.46143 0.4377-0.000002 0.087 0.01972 0.1302 0.05916 0.1302h1.3488l-0.09465 0.4732m0.20114-2.4609c-0.07888-0.032-0.19325-0.047-0.34312-0.047-0.14198 0-0.2603 0.028-0.35495 0.083-0.27607 0.1577-0.52454 0.6034-0.74539 1.3369 0.08676-0.087 0.22085-0.2129 0.40227-0.3786 0.24452-0.2051 0.59158-0.5363 1.0412-0.9938m1.3497 1.5736c-0.000002 0.2208 0.0631 0.351 0.1893 0.3904 0.03155 0.016 0.19325 0.024 0.4851 0.024l-0.10648 0.4733h-0.39044c-0.2603 0-0.39044-0.213-0.39044-0.6389-0.000001-0.1262 0.01183-0.2643 0.0355-0.4141-0.42594 0.702-0.79666 1.053-1.1122 1.053h-0.29579l0.09465-0.4733h0.30762c0.26818 0 0.59158-0.3234 0.97019-0.9702 0.03944-0.071 0.09465-0.1735 0.16564-0.3076 0.03944-0.1262 0.09071-0.3194 0.15381-0.5797 0.34706-1.2621 0.82032-2.6385 1.4198-4.1293 0.32339-0.7887 0.60735-1.404 0.85187-1.8457 0.15775-0.2918 0.28001-0.4378 0.36678-0.4378 0.07099 0 0.10648 0.075 0.10648 0.2248-0.000004 0.4654-0.28002 1.3962-0.84004 2.7923-0.39439 1.0017-0.79666 1.9285-1.2068 2.7804-0.15776 0.3313-0.30762 0.6271-0.4496 0.8874-0.0631 0.1104-0.14592 0.2761-0.24846 0.4969-0.07099 0.1814-0.10648 0.4062-0.10648 0.6744m2.6266-7.3829c-0.21297 0.2287-0.59553 1.0451-1.1477 2.4491-0.44172 1.1516-0.81638 2.2559-1.124 3.3129 0.85976-1.688 1.5381-3.301 2.035-4.8391 0.0631-0.2051 0.14197-0.5127 0.23663-0.9229m0.54 4.2594c-0.10254 0-0.15381-0.095-0.15381-0.284-0.000002-0.2287 0.07888-0.5245 0.23663-0.8874 0.18142-0.418 0.35889-0.627 0.53242-0.627 0.10254 0 0.15381 0.095 0.15381 0.2839-0.000003 0.2288-0.07888 0.5285-0.23663 0.8992-0.17353 0.4102-0.35101 0.6153-0.53242 0.6153m-0.34312 4.0109h-0.43777c-0.28396 0-0.42594-0.1933-0.42594-0.5798-0.000001-0.1262 0.01577-0.276 0.04733-0.4496-0.35495 0.6863-0.7099 1.0294-1.0648 1.0294h-0.39044l0.09465-0.4733h0.39044c0.3865 0 0.80455-0.5521 1.2542-1.6564 0.20508-0.5206 0.32734-0.7809 0.36678-0.7809 0.03155 0 0.04733 0.039 0.04733 0.1183-0.000001 0.087-0.05522 0.284-0.16564 0.5916-0.24452 0.6705-0.36678 1.1319-0.36678 1.3843-0.000002 0.1814 0.08676 0.2918 0.2603 0.3313 0.03155 0.01 0.19719 0.012 0.49693 0.012l-0.10648 0.4732m0.8992-5.265c-0.000003-0.047-0.01183-0.071-0.0355-0.071-0.08677 0-0.18537 0.1065-0.29579 0.3194-0.11043 0.213-0.16564 0.3708-0.16564 0.4733-0.000002 0.039 0.01577 0.059 0.04733 0.059 0.07887 0 0.17353-0.1065 0.28396-0.3194 0.11042-0.213 0.16564-0.3668 0.16564-0.4615m3.7199-3.3247-2.2007 5.6319h0.37861l-0.10648 0.4732h-0.46143l-0.27213 0.6863c-0.18142 0.4654-0.27213 0.7848-0.27213 0.9583-0.000002 0.2051 0.10254 0.3274 0.30762 0.3668h0.55608l-0.10648 0.4733h-0.17747-0.18931c-0.41016 0-0.61524-0.1972-0.61524-0.5916-0.000002-0.063 0.0039-0.1301 0.01183-0.2011-0.34706 0.5284-0.6744 0.7927-0.98202 0.7927h-0.50876l0.10648-0.4733h0.49693c0.30762 0 0.6113-0.2721 0.91103-0.8164 0.13409-0.2366 0.30762-0.6349 0.52059-1.195h-0.36678l0.09465-0.4732h0.46143l2.2717-5.8212 0.14198 0.1893m-1.82 8.5898c-0.10254 0-0.15381-0.095-0.15381-0.284 0-0.2287 0.07888-0.5285 0.23663-0.8992 0.18142-0.4101 0.35889-0.6152 0.53242-0.6152 0.10254 0 0.15381 0.095 0.15381 0.2839-0.000001 0.2288-0.07888 0.5246-0.23663 0.8874-0.18142 0.4181-0.35889 0.6271-0.53242 0.6271m0.55608-1.266c0-0.039-0.01183-0.059-0.0355-0.059-0.08676 0-0.18536 0.1065-0.29579 0.3195-0.11043 0.2129-0.16564 0.3667-0.16564 0.4614 0 0.047 0.01183 0.071 0.03549 0.071 0.08676 0 0.18536-0.1065 0.29579-0.3195 0.11043-0.2129 0.16564-0.3707 0.16564-0.4732m4.0407 0.7927c0.15775-0.032 0.39833-0.4772 0.72173-1.337l0.13015 0.1893c-0.41016 1.0806-0.72962 1.6209-0.95836 1.6209-0.07888 0-0.11832-0.067-0.11832-0.2011-0.000002-0.2208 0.09859-0.5837 0.29579-1.0885 0.20508-0.5127 0.49692-1.1871 0.87554-2.0232 0.45748-1.0175 0.75722-1.688 0.8992-2.0114 0.44171-1.0411 0.72567-1.8378 0.85188-2.39 0.03154-0.1577 0.04732-0.2721 0.04733-0.3431-0.000004-0.1419-0.05128-0.2129-0.15381-0.2129-0.06311 0-0.1617 0.075-0.29579 0.2248-0.1341 0.1498-0.21297 0.2603-0.23663 0.3312-0.02367 0.071-0.05128 0.1696-0.08282 0.2958-0.16565 0.6153-0.46538 1.4632-0.8992 2.5438-1.2699 3.2498-2.0232 4.8746-2.2598 4.8746-0.07888 0-0.11832-0.075-0.11832-0.2248-0.000001-0.095 0.01578-0.2169 0.04733-0.3667 0.13409-0.5758 0.41016-1.3883 0.82821-2.4373 0.72567-1.7984 1.4356-3.305 2.1297-4.5197 0.04732-0.079 0.11437-0.1933 0.20114-0.3431 0.03155-0.055 0.04732-0.1538 0.04733-0.2958-0.000005-0.063-0.01578-0.095-0.04733-0.095-0.1341 0-0.29579 0.1262-0.4851 0.3786-0.24452 0.3313-0.58764 0.9741-1.0293 1.9285-0.5127 1.1201-1.1437 2.6109-1.8931 4.4724-0.11832 0.3076-0.29973 0.7612-0.54425 1.3606-0.04733 0.1026-0.08677 0.1538-0.11832 0.1538-0.03944 0-0.05916-0.043-0.05916-0.1301 0-0.071 0.01578-0.142 0.04733-0.213l2.8751-7.3829c-0.10254 0.1025-0.19325 0.1538-0.27213 0.1538-0.11832 0-0.17748-0.095-0.17747-0.2839-0.000002-0.2051 0.07099-0.5246 0.21297-0.9584l0.16564 0.1183c-0.10254 0.284-0.15381 0.4733-0.15381 0.5679-0.000002 0.055 0.01577 0.083 0.04733 0.083 0.11042 0 0.24057-0.1222 0.39044-0.3668 0.15775-0.2524 0.24846-0.3786 0.27213-0.3786 0.03155 0 0.04732 0.035 0.04733 0.1065-0.000005 0.087-0.24452 0.7533-0.73356 1.9996 0.67045-1.3883 1.1753-2.0824 1.5144-2.0824 0.10254 0 0.15381 0.1025 0.15381 0.3076-0.000004 0.055-0.0039 0.1144-0.01183 0.1775 0.22874-0.3155 0.40622-0.4733 0.53242-0.4733 0.1893 0 0.28395 0.146 0.28396 0.4378-0.000006 0.4417-0.20509 1.1713-0.61524 2.1888-0.22086 0.568-0.57975 1.408-1.0767 2.5202-0.49693 1.1043-0.85582 1.9364-1.0767 2.4964-0.05522 0.142-0.12226 0.351-0.20114 0.6271m1.6801-6.5902c-0.7099 1.2857-1.4119 2.8159-2.106 4.5907-0.20508 0.5285-0.33129 0.8519-0.37861 0.9702-0.13409 0.3707-0.2248 0.7059-0.27213 1.0057 0.18142-0.284 0.46538-0.8677 0.85188-1.7511 0.87554-1.9877 1.5105-3.5929 1.9049-4.8155m1.4135 7.0635h-0.27213c-0.21297 0-0.31946-0.1341-0.31945-0.4023-0.000003-0.1183 0.01972-0.2603 0.05916-0.4259-0.33129 0.5127-0.62708 0.769-0.88737 0.769-0.2603 0-0.37861-0.2011-0.35495-0.6034-0.14987 0.2524-0.26818 0.4141-0.35495 0.4851-0.13409 0.1183-0.31946 0.1775-0.55609 0.1775l0.10648-0.4733h0.20114c0.17353 0 0.37467-0.2169 0.60341-0.6507 0.33917-0.6232 0.58369-1.0294 0.73356-1.2187 0.37072-0.4338 0.79666-0.6507 1.2778-0.6507 0.10254 0 0.15381 0.043 0.15381 0.1301-0.000003 0.1184-0.13015 0.4772-0.39044 1.0767-0.25241 0.5916-0.37861 0.982-0.37861 1.1713-0.000002 0.087 0.0631 0.1341 0.18931 0.142h0.29579l-0.10653 0.4733m0.08282-2.5201h-0.04733c-0.28396-0.01-0.56397 0.1025-0.84004 0.3313-0.23663 0.1971-0.42594 0.4417-0.56792 0.7335l0.01183 0.012c-0.12621 0.2524-0.18931 0.4575-0.18931 0.6153-0.000002 0.1971 0.07888 0.2957 0.23663 0.2957 0.40227 0 0.86765-0.6625 1.3961-1.9877m2.7048 2.5202h-0.41411c-0.16564 0-0.24846-0.1223-0.24846-0.3668-0.000002-0.1735 0.04338-0.4102 0.13015-0.7099-0.43383 0.7178-0.76906 1.0767-1.0057 1.0767-0.15776 0-0.23663-0.099-0.23663-0.2958 0-0.2367 0.09859-0.5798 0.29579-1.0294 0.15775-0.3313 0.31551-0.6625 0.47326-0.9938-0.24452 0.4259-0.49298 0.8518-0.74539 1.2778-0.37861 0.6547-0.65074 0.9978-0.81638 1.0293-0.03155 0.01-0.11832 0.012-0.2603 0.012l0.09465-0.4732c0.17353-0.01 0.2879-0.028 0.34312-0.059 0.05521-0.039 0.13803-0.142 0.24846-0.3077 0.22086-0.3864 0.44566-0.7769 0.6744-1.1713 0.37072-0.631 0.61524-0.9465 0.73356-0.9465 0.0631 0 0.09465 0.043 0.09465 0.1301-0.000002 0.2051-0.15381 0.5916-0.46143 1.1595-0.29974 0.568-0.4496 0.9387-0.4496 1.1122-0.000001 0.055 0.03549 0.083 0.10648 0.083 0.20508 0 0.50087-0.3313 0.88737-0.9938 0.26818-0.4733 0.48904-0.915 0.66257-1.3252 0.04732-0.1183 0.0907-0.1775 0.13015-0.1775 0.03943 0 0.05915 0.043 0.05916 0.1302-0.000008 0.1104-0.12226 0.4535-0.36678 1.0293-0.24452 0.568-0.36678 0.9584-0.36678 1.1714-0.000002 0.1183 0.06704 0.1774 0.20114 0.1774 0.03943 0 0.09465 0 0.16564-0.012h0.16564l-0.09465 0.4733m1.8163-0.5561c-0.000009 0.055 0.03155 0.083 0.09465 0.083h0.4851l-0.10648 0.4733h-0.4851c-0.1341 0-0.20114-0.1065-0.20114-0.3195 0-0.489 0.32339-1.2896 0.97019-2.4018-0.3865 0.2682-0.69807 0.4417-0.9347 0.5206-0.59158 1.4671-1.0372 2.2007-1.337 2.2007h-0.41411l0.10648-0.4733h0.40228c0.20508 0 0.54425-0.564 1.0175-1.6919-0.14198-0.01-0.21297-0.1065-0.21297-0.2958 0-0.1735 0.07887-0.4141 0.23663-0.7217 0.15775-0.3155 0.31156-0.4733 0.46143-0.4733 0.07098 0 0.10648 0.063 0.10648 0.1893-0.000008 0.1578-0.05917 0.4102-0.17747 0.7572 0.37072-0.1577 0.82426-0.4653 1.3606-0.9228 0.02366-0.024 0.04338-0.035 0.05916-0.035 0.03155 0 0.04732 0.039 0.04733 0.1183-0.000009 0.1025-0.0986 0.2997-0.29579 0.5916-0.1972 0.2839-0.42988 0.6783-0.69806 1.1831-0.3234 0.6153-0.4851 1.0215-0.4851 1.2187m-0.03549-2.6266c-0.13409 0.047-0.25636 0.2129-0.36678 0.4969 0.03155 0.032 0.07099 0.047 0.11832 0.047h0.07099c0.04732-0.1262 0.10648-0.3076 0.17747-0.5442m3.0788-0.8283c-0.10254 0-0.15381-0.095-0.15381-0.2839 0-0.2288 0.07887-0.5245 0.23663-0.8874 0.18141-0.418 0.35889-0.6271 0.53242-0.6271 0.10254 0 0.15381 0.095 0.15381 0.284 0 0.2287-0.07888 0.5285-0.23663 0.8992-0.17354 0.4102-0.35101 0.6152-0.53242 0.6152m-0.34312 4.011h-0.43777c-0.28396 0-0.42594-0.1933-0.42594-0.5798 0-0.1262 0.01577-0.2761 0.04733-0.4496-0.35495 0.6862-0.7099 1.0294-1.0648 1.0294h-0.39044l0.09465-0.4733h0.39044c0.3865 0 0.80455-0.5522 1.2541-1.6564 0.20508-0.5206 0.32734-0.7809 0.36678-0.7809 0.03155 0 0.04733 0.039 0.04733 0.1183 0 0.087-0.05522 0.284-0.16564 0.5916-0.24453 0.6704-0.36678 1.1319-0.36678 1.3843 0 0.1814 0.08676 0.2918 0.2603 0.3313 0.03155 0.01 0.19719 0.012 0.49693 0.012l-0.10648 0.4732m0.8992-5.265c0-0.047-0.01183-0.071-0.03549-0.071-0.08677 0-0.18537 0.1064-0.29579 0.3194-0.11043 0.213-0.16564 0.3707-0.16564 0.4733 0 0.039 0.01577 0.059 0.04733 0.059 0.07887 0 0.17353-0.1065 0.28396-0.3195 0.11042-0.2129 0.16564-0.3668 0.16564-0.4614m1.4719 5.2651h-1.0175c-0.04733 0-0.07099-0.043-0.07099-0.1302 0-0.142 0.04733-0.2524 0.14198-0.3313 0.0079-0.01 0.07099-0.051 0.1893-0.1301 0.5127-0.3076 0.76904-0.6468 0.76905-1.0175-0.000009-0.1026-0.05522-0.3313-0.16564-0.6863-0.21298 0.4654-0.47327 0.915-0.78089 1.3488-0.43383 0.631-0.79272 0.9466-1.0767 0.9466h-0.36678l0.09465-0.4733h0.37861c0.23663 0 0.55608-0.2958 0.95836-0.8874 0.30762-0.4417 0.54819-0.8558 0.72173-1.2423-0.02367-0.1262-0.0355-0.2445-0.03549-0.3549-0.000009-0.095 0.01182-0.1893 0.03549-0.284 0.02365-0.1262 0.07887-0.2761 0.16564-0.4496 0.11042-0.2051 0.20902-0.3076 0.29579-0.3076 0.0631 0 0.09464 0.059 0.09465 0.1774-0.000009 0.2367-0.0986 0.6035-0.29579 1.1004 0.1262 0.418 0.1893 0.7257 0.1893 0.9228-0.000008 0.497-0.20114 0.9387-0.60341 1.3252h0.47326l-0.09465 0.4733m0.09465-3.4904c-0.09466 0.1183-0.14199 0.2327-0.14198 0.3431-0.000008 0.031-0.000008 0.063 0 0.095 0.0631-0.1498 0.11042-0.2957 0.14198-0.4377m6.0356-5.0994-2.2007 5.6318h0.37861l-0.10648 0.4733h-0.46143l-0.27213 0.6862c-0.18142 0.4654-0.27213 0.7848-0.27213 0.9584 0 0.205 0.10254 0.3273 0.30762 0.3667h0.55608l-0.10648 0.4733h-0.17747-0.18931c-0.41017 0-0.61524-0.1972-0.61524-0.5916 0-0.063 0.0039-0.1301 0.01183-0.2011-0.34706 0.5285-0.6744 0.7927-0.98202 0.7927h-0.50876l0.10648-0.4733h0.49693c0.30762 0 0.6113-0.2721 0.91103-0.8163 0.13409-0.2367 0.30761-0.635 0.52059-1.195h-0.36678l0.09465-0.4733h0.46143l2.2717-5.8211 0.14198 0.1893m0.36881 4.5788c-0.10254 0-0.15381-0.095-0.15381-0.284 0-0.2287 0.07887-0.5245 0.23663-0.8873 0.18142-0.4181 0.3589-0.6271 0.53242-0.6271 0.10254 0 0.15381 0.095 0.15381 0.2839 0 0.2288-0.07888 0.5285-0.23663 0.8992-0.17353 0.4102-0.351 0.6153-0.53242 0.6153m-0.34312 4.0109h-0.43777c-0.28396 0-0.42594-0.1933-0.42594-0.5798 0-0.1262 0.01578-0.276 0.04733-0.4496-0.35495 0.6863-0.7099 1.0294-1.0648 1.0294h-0.39044l0.09465-0.4733h0.39044c0.3865 0 0.80455-0.5521 1.2541-1.6564 0.20508-0.5206 0.32734-0.7809 0.36678-0.7809 0.03155 0 0.04733 0.039 0.04733 0.1183 0 0.087-0.05521 0.284-0.16564 0.5916-0.24452 0.6705-0.36678 1.1319-0.36678 1.3843 0 0.1814 0.08677 0.2919 0.2603 0.3313 0.03155 0.01 0.19719 0.012 0.49693 0.012l-0.10648 0.4733m0.8992-5.2651c0-0.047-0.01183-0.071-0.03549-0.071-0.08677 0-0.18536 0.1065-0.29579 0.3195-0.11043 0.2129-0.16564 0.3707-0.16564 0.4732 0 0.039 0.01578 0.059 0.04733 0.059 0.07887 0 0.17353-0.1065 0.28396-0.3194 0.11043-0.213 0.16564-0.3668 0.16564-0.4615m1.9215 5.2651h-0.46143c-0.14198 0-0.21297-0.095-0.21297-0.284 0-0.2208 0.09465-0.5521 0.28396-0.9938 0.1893-0.4496 0.28396-0.7691 0.28396-0.9584 0-0.1656-0.06705-0.2484-0.20114-0.2484-0.45749 0-0.87948 0.5008-1.266 1.5026l-0.01183-0.024c-0.30762 0.6704-0.60341 1.0057-0.88737 1.0057h-0.36678l0.10649-0.4733h0.35495c0.23663 0 0.51664-0.3668 0.84004-1.1003 0.18142-0.4891 0.36678-0.9742 0.55609-1.4553l0.13015 0.1893-0.11832 0.3076c0.2524-0.284 0.50481-0.4259 0.75722-0.4259 0.21297 0 0.31945 0.1696 0.31945 0.5087 0 0.2603-0.09465 0.6153-0.28396 1.0649-0.18142 0.4496-0.27213 0.7296-0.27213 0.84 0 0.047 0.0276 0.071 0.08282 0.071h0.46143l-0.09465 0.4733m2.8559-2.461-0.21297 0.2721c-0.0079-0.1498-0.03156-0.2405-0.07099-0.2721-0.03156-0.031-0.13015-0.047-0.29579-0.047-0.34706 0-0.66257 0.3392-0.94653 1.0175l0.01183 0.012c-0.19719 0.426-0.29579 0.7217-0.29579 0.8874 0 0.079 0.04338 0.1222 0.13015 0.1301-0.10254-0.01-0.02761-0.012 0.2248-0.012h1.0293l-0.09465 0.4733h-1.124c-0.29974 0-0.42988-0.1617-0.39044-0.4851-0.20508 0.3234-0.40227 0.4851-0.59158 0.4851h-0.24846l0.09465-0.4733h0.2603c0.18931 0 0.41016-0.2563 0.66257-0.769 0.16564-0.3629 0.33128-0.7257 0.49693-1.0885 0.25241-0.426 0.5482-0.6429 0.88737-0.6508h0.11832c0.22085 0 0.33917 0.1736 0.35495 0.5206m2.0613-1.5499c-0.10254 0-0.15381-0.095-0.15381-0.284 0-0.2287 0.07887-0.5245 0.23663-0.8873 0.18142-0.4181 0.3589-0.6271 0.53242-0.6271 0.10254 0 0.15381 0.095 0.15381 0.2839 0 0.2288-0.07888 0.5285-0.23663 0.8992-0.17353 0.4102-0.351 0.6153-0.53242 0.6153m-0.34312 4.0109h-0.43777c-0.28396 0-0.42594-0.1933-0.42594-0.5798 0-0.1262 0.01578-0.276 0.04733-0.4496-0.35495 0.6863-0.7099 1.0294-1.0648 1.0294h-0.39044l0.09465-0.4733h0.39044c0.3865 0 0.80455-0.5521 1.2541-1.6564 0.20508-0.5206 0.32734-0.7809 0.36678-0.7809 0.03155 0 0.04733 0.039 0.04733 0.1183 0 0.087-0.05521 0.284-0.16564 0.5916-0.24452 0.6705-0.36678 1.1319-0.36678 1.3843 0 0.1814 0.08677 0.2919 0.26029 0.3313 0.03155 0.01 0.19719 0.012 0.49693 0.012l-0.10648 0.4733m0.8992-5.2651c0-0.047-0.01183-0.071-0.03549-0.071-0.08677 0-0.18536 0.1065-0.29579 0.3195-0.11043 0.2129-0.16564 0.3707-0.16564 0.4732 0 0.039 0.01578 0.059 0.04733 0.059 0.07887 0 0.17353-0.1065 0.28396-0.3194 0.11043-0.213 0.16564-0.3668 0.16564-0.4615m1.1288 4.7682c0.01578 0.016 0.18536 0.024 0.50876 0.024l-0.09465 0.4732h-0.37861c-0.16564 0-0.24846-0.1064-0.24846-0.3194 0-0.071 0.04338-0.2998 0.13015-0.6863-0.07099 0.1105-0.25635 0.2722-0.55608 0.4851-0.26818 0.1736-0.41805 0.3471-0.4496 0.5206h-0.97019l0.10648-0.4732h0.39044c0.04733-0.3313 0.19325-0.773 0.43777-1.3252 0.26818-0.631 0.50876-0.9978 0.72173-1.1003 0.11043-0.055 0.24846-0.083 0.41411-0.083 0.18931 0 0.30368 0.099 0.34312 0.2958 0.67834-2.3742 1.4001-4.2436 2.1652-5.6082 0.16564-0.2997 0.29579-0.4496 0.39044-0.4496 0.0631 0 0.09464 0.063 0.09465 0.1893-0.000009 0.095-0.01578 0.2209-0.04733 0.3786-0.16564 0.7573-0.48904 1.6919-0.97019 2.8041-0.41017 0.8992-0.82427 1.8063-1.2423 2.7213-0.41017 0.9071-0.65863 1.6249-0.74539 2.1533m2.7923-7.7615c-0.26819 0.2919-0.68229 1.1556-1.2423 2.5911-0.41017 1.0491-0.76512 2.0982-1.0648 3.1472 1.0806-2.2085 1.8497-4.1213 2.3072-5.7383m-2.6266 6.0578c0-0.2051-0.08282-0.3076-0.24846-0.3076s-0.2879 0.02-0.36678 0.059c-0.17353 0.079-0.39044 0.4574-0.65074 1.1358-0.16564 0.418-0.24846 0.6626-0.24846 0.7335 0 0.071 0.07099 0.1065 0.21297 0.1065 0.3234 0 0.68229-0.3352 1.0767-1.0057 0.03944-0.063 0.09071-0.1498 0.15381-0.2602 0.04733-0.1657 0.07099-0.3195 0.07099-0.4615m3.0416 2.2007h-0.41411c-0.16564 0-0.24846-0.1223-0.24846-0.3668 0-0.1735 0.04339-0.4101 0.13015-0.7099-0.43382 0.7178-0.76905 1.0767-1.0057 1.0767-0.15775 0-0.23663-0.099-0.23663-0.2958 0-0.2366 0.0986-0.5797 0.29579-1.0293 0.15776-0.3313 0.31552-0.6626 0.47326-0.9939-0.24452 0.4259-0.49298 0.8519-0.74539 1.2778-0.37861 0.6547-0.65074 0.9978-0.81638 1.0294-0.03155 0.01-0.11832 0.012-0.2603 0.012l0.09465-0.4733c0.17354-0.01 0.2879-0.028 0.34312-0.059 0.05522-0.039 0.13804-0.142 0.24846-0.3076 0.22086-0.3865 0.44566-0.777 0.6744-1.1713 0.37073-0.6311 0.61524-0.9466 0.73356-0.9466 0.0631 0 0.09465 0.043 0.09465 0.1302 0 0.2051-0.15381 0.5916-0.46143 1.1595-0.29973 0.5679-0.4496 0.9386-0.4496 1.1121 0 0.055 0.03549 0.083 0.10648 0.083 0.20508 0 0.50087-0.3312 0.88737-0.9938 0.26818-0.4733 0.48904-0.915 0.66257-1.3252 0.04733-0.1183 0.09071-0.1774 0.13015-0.1774s0.05916 0.043 0.05916 0.1301c0 0.1105-0.12226 0.4536-0.36678 1.0294-0.24452 0.5679-0.36678 0.9583-0.36678 1.1713 0 0.1183 0.06705 0.1775 0.20114 0.1775 0.03944 0 0.09465 0 0.16564-0.012h0.16564l-0.09465 0.4732m2.7155 0h-0.46143c-0.14198 0-0.21297-0.095-0.21297-0.2839 0-0.2209 0.09465-0.5522 0.28396-0.9939 0.1893-0.4496 0.28396-0.769 0.28396-0.9583 0-0.1657-0.06704-0.2485-0.20114-0.2485-0.45748 0-0.87948 0.5009-1.266 1.5026l-0.01183-0.024c-0.30762 0.6705-0.60341 1.0057-0.88737 1.0057h-0.36678l0.10648-0.4733h0.35495c0.23663 0 0.51665-0.3667 0.84004-1.1003 0.18142-0.489 0.36678-0.9741 0.55608-1.4553l0.13015 0.1893-0.11832 0.3076c0.25241-0.2839 0.50481-0.4259 0.75722-0.4259 0.21297 0 0.31945 0.1696 0.31945 0.5088 0 0.2603-0.09465 0.6152-0.28396 1.0648-0.18142 0.4496-0.27213 0.7296-0.27213 0.84 0 0.047 0.02761 0.071 0.08282 0.071h0.46143l-0.09465 0.4733m4.5714-8.5897-2.2007 5.6318h0.37861l-0.10648 0.4733h-0.46143l-0.27213 0.6862c-0.18142 0.4654-0.27213 0.7848-0.27213 0.9584 0 0.205 0.10254 0.3273 0.30762 0.3667h0.55608l-0.10648 0.4733h-0.17747-0.18931c-0.41016 0-0.61524-0.1972-0.61524-0.5916 0-0.063 0.0039-0.1301 0.01183-0.2011-0.34706 0.5285-0.6744 0.7927-0.98202 0.7927h-0.50876l0.10648-0.4733h0.49693c0.30762 0 0.6113-0.2721 0.91103-0.8163 0.13409-0.2367 0.30762-0.635 0.52059-1.195h-0.36678l0.09465-0.4733h0.46143l2.2717-5.8211 0.14198 0.1893m-50.399 20.421h-0.27213c-0.21297 0-0.31946-0.1341-0.31945-0.4023-0.000003-0.1183 0.01972-0.2603 0.05916-0.4259-0.33129 0.5127-0.62708 0.7691-0.88737 0.7691-0.2603 0-0.37861-0.2012-0.35495-0.6035-0.14987 0.2525-0.26818 0.4142-0.35495 0.4851-0.13409 0.1184-0.31945 0.1775-0.55608 0.1775l0.10648-0.4732h0.20114c0.17353 0 0.37467-0.217 0.60341-0.6508 0.33917-0.6231 0.58369-1.0293 0.73356-1.2187 0.37072-0.4338 0.79666-0.6507 1.2778-0.6507 0.10254 0 0.15381 0.043 0.15381 0.1302-0.000003 0.1183-0.13015 0.4772-0.39044 1.0766-0.25241 0.5916-0.37861 0.9821-0.37861 1.1714-0.000003 0.087 0.0631 0.1341 0.18931 0.142h0.29579l-0.10648 0.4732m0.08282-2.5201h-0.04733c-0.28396-0.01-0.56398 0.1025-0.84004 0.3313-0.23663 0.1972-0.42594 0.4417-0.56792 0.7335l0.01183 0.012c-0.1262 0.2524-0.18931 0.4575-0.1893 0.6153-0.000002 0.1972 0.07888 0.2958 0.23663 0.2958 0.40227 0 0.86765-0.6626 1.3961-1.9878m1.4862 1.6328c-0.000003 0.2209 0.0631 0.3511 0.1893 0.3905 0.03155 0.016 0.19325 0.024 0.4851 0.024l-0.10648 0.4732h-0.39044c-0.2603 0-0.39044-0.213-0.39044-0.6389-0.000002-0.1262 0.01183-0.2643 0.0355-0.4141-0.42594 0.702-0.79666 1.053-1.1122 1.053h-0.29579l0.09465-0.4732h0.30762c0.26818 0 0.59158-0.3235 0.97019-0.9703 0.03944-0.071 0.09465-0.1735 0.16564-0.3076 0.03944-0.1262 0.09071-0.3195 0.15381-0.5798 0.34706-1.262 0.82032-2.6384 1.4198-4.1292 0.32339-0.7887 0.60735-1.404 0.85188-1.8457 0.15775-0.2918 0.28001-0.4378 0.36678-0.4378 0.07099 0 0.10648 0.075 0.10648 0.2248-0.000004 0.4654-0.28002 1.3962-0.84004 2.7923-0.39439 1.0017-0.79666 1.9285-1.2068 2.7804-0.15776 0.3313-0.30762 0.6271-0.4496 0.8874-0.0631 0.1104-0.14592 0.276-0.24846 0.4969-0.07099 0.1814-0.10649 0.4062-0.10648 0.6744m2.6266-7.3829c-0.21297 0.2287-0.59553 1.0451-1.1477 2.4491-0.44172 1.1516-0.81638 2.2559-1.124 3.3129 0.85976-1.688 1.5381-3.301 2.035-4.8391 0.0631-0.2051 0.14198-0.5127 0.23663-0.9229m0.54 4.2594c-0.10254 0-0.15381-0.095-0.15381-0.284-0.000003-0.2287 0.07887-0.5245 0.23663-0.8874 0.18142-0.418 0.35889-0.627 0.53242-0.627 0.10254 0 0.15381 0.095 0.15381 0.2839-0.000004 0.2288-0.07888 0.5285-0.23663 0.8992-0.17353 0.4102-0.35101 0.6153-0.53242 0.6153m-0.34312 4.0109h-0.43777c-0.28396 0-0.42594-0.1932-0.42594-0.5797-0.000002-0.1263 0.01577-0.2761 0.04733-0.4497-0.35495 0.6863-0.7099 1.0294-1.0648 1.0294h-0.39044l0.09465-0.4732h0.39044c0.3865 0 0.80455-0.5522 1.2541-1.6565 0.20508-0.5206 0.32734-0.7809 0.36678-0.7809 0.03155 0 0.04732 0.039 0.04733 0.1183-0.000002 0.087-0.05522 0.284-0.16564 0.5916-0.24452 0.6705-0.36678 1.1319-0.36678 1.3843-0.000002 0.1815 0.08676 0.2919 0.26029 0.3313 0.03155 0.01 0.19719 0.012 0.49693 0.012l-0.10648 0.4732m0.8992-5.2651c-0.000003-0.047-0.01183-0.071-0.03549-0.071-0.08677 0-0.18536 0.1065-0.29579 0.3195-0.11043 0.2129-0.16564 0.3707-0.16564 0.4732-0.000002 0.039 0.01577 0.059 0.04733 0.059 0.07887 0 0.17353-0.1064 0.28396-0.3194 0.11042-0.213 0.16564-0.3668 0.16564-0.4615m1.4483 5.2651h-0.37861c-0.08677 0-0.14198-0.051-0.16564-0.1538-0.89132 2.5951-1.4711 3.8926-1.7392 3.8926-0.09465 0-0.14198-0.075-0.14198-0.2248 0-0.3628 0.31945-1.262 0.95836-2.6976 0.41016-0.915 0.82427-1.826 1.2423-2.7331 0.0631-0.1499 0.09465-0.2682 0.09465-0.355-0.000001-0.1577-0.11043-0.2366-0.33128-0.2366-0.15776 0-0.28002 0.02-0.36678 0.059-0.16564 0.079-0.38256 0.4575-0.65074 1.1358-0.16564 0.4102-0.24846 0.6587-0.24846 0.7454 0 0.071 0.05916 0.1025 0.17747 0.095l-0.09465 0.4732h-0.7099l0.09465-0.4732h0.33128c0.03944-0.3155 0.17747-0.7533 0.41411-1.3133 0.26818-0.6153 0.50087-0.982 0.69807-1.1004 0.11042-0.063 0.26424-0.095 0.46143-0.095 0.22085 0 0.36283 0.1065 0.42594 0.3195 0.07887-0.2288 0.14198-0.3431 0.1893-0.3431 0.03944 0 0.05916 0.039 0.05916 0.1183-0.000002 0.1025-0.1617 0.631-0.4851 1.5854-0.1262 0.3707-0.18931 0.5955-0.1893 0.6744-0.000002 0.1026 0.05916 0.1578 0.17748 0.1657-0.10254-0.01-0.0079-0.012 0.28396-0.012l-0.10648 0.4732m-0.56792-0.6744c-0.43383 0.9544-0.74145 1.6328-0.92287 2.0351-0.47326 1.0806-0.7099 1.7155-0.7099 1.9048h0.01183c0.03155 0 0.07888-0.055 0.14198-0.1656 0.14987-0.2682 0.35495-0.7336 0.61524-1.3961 0.28396-0.7257 0.57186-1.5184 0.86371-2.3782m3.3402 0.6744h-0.4141c-0.16564 0-0.24847-0.1222-0.24846-0.3668-0.000002-0.1735 0.04338-0.4101 0.13015-0.7099-0.43383 0.7178-0.76906 1.0767-1.0057 1.0767-0.15776 0-0.23663-0.099-0.23663-0.2958-0.000002-0.2366 0.09859-0.5797 0.29579-1.0293 0.15775-0.3313 0.31551-0.6626 0.47326-0.9939-0.24452 0.4259-0.49298 0.8519-0.74539 1.2778-0.37861 0.6547-0.65074 0.9978-0.81638 1.0294-0.03155 0.01-0.11832 0.012-0.2603 0.012l0.09465-0.4732c0.17353-0.01 0.2879-0.028 0.34312-0.059 0.05521-0.039 0.13804-0.142 0.24846-0.3077 0.22086-0.3864 0.44566-0.7769 0.6744-1.1713 0.37072-0.631 0.61524-0.9465 0.73356-0.9465 0.0631 0 0.09465 0.043 0.09465 0.1301-0.000003 0.2051-0.15381 0.5916-0.46143 1.1595-0.29974 0.568-0.4496 0.9387-0.4496 1.1122-0.000001 0.055 0.03549 0.083 0.10648 0.083 0.20508 0 0.50087-0.3313 0.88737-0.9938 0.26818-0.4733 0.48904-0.915 0.66257-1.3252 0.04732-0.1183 0.09071-0.1774 0.13015-0.1774s0.05916 0.043 0.05916 0.1301c-0.000003 0.1104-0.12226 0.4536-0.36678 1.0294-0.24452 0.5679-0.36678 0.9583-0.36678 1.1713-0.000001 0.1183 0.06705 0.1775 0.20114 0.1775 0.03944 0 0.09465 0 0.16564-0.012h0.16564l-0.09465 0.4732m2.5736 0h-0.27213c-0.21297 0-0.31945-0.1341-0.31945-0.4023-0.000002-0.1183 0.01972-0.2603 0.05916-0.4259-0.33129 0.5127-0.62707 0.7691-0.88737 0.7691s-0.37861-0.2012-0.35495-0.6035c-0.14987 0.2525-0.26818 0.4142-0.35495 0.4851-0.13409 0.1184-0.31945 0.1775-0.55608 0.1775l0.10648-0.4732h0.20114c0.17353 0 0.37467-0.217 0.60341-0.6508 0.33917-0.6231 0.58369-1.0294 0.73356-1.2187 0.37072-0.4338 0.79666-0.6507 1.2778-0.6507 0.10254 0 0.15381 0.043 0.15381 0.1301-0.000002 0.1184-0.13015 0.4773-0.39044 1.0767-0.25241 0.5916-0.37861 0.9821-0.37861 1.1714-0.000001 0.087 0.0631 0.1341 0.18931 0.142h0.29579l-0.10648 0.4732m0.08282-2.5201h-0.04733c-0.28396-0.01-0.56398 0.1025-0.84004 0.3312-0.23663 0.1972-0.42594 0.4418-0.56792 0.7336l0.01183 0.012c-0.1262 0.2524-0.18931 0.4575-0.18931 0.6152-0.000001 0.1972 0.07888 0.2958 0.23663 0.2958 0.40227 0 0.86765-0.6625 1.3961-1.9877m3.3556 2.5201h-0.15381c-0.06311 0.01-0.11043 0.012-0.14198 0.012-0.18142 0-0.27213-0.098-0.27213-0.2957-0.000003-0.2367 0.11043-0.6152 0.33128-1.1358 0.22874-0.5285 0.34311-0.8401 0.34312-0.9347-0.000004-0.087-0.05916-0.1302-0.17748-0.1302-0.21297 0-0.45355 0.2169-0.72173 0.6508-0.15776 0.2524-0.3589 0.6507-0.60341 1.195-0.18931 0.4337-0.29974 0.6506-0.33128 0.6506-0.03944 0-0.05916-0.039-0.05916-0.1183-0.000001-0.071 0.01577-0.1459 0.04733-0.2248l0.54425-1.3961c0.11831-0.3076 0.17747-0.5127 0.17747-0.6152-0.000001-0.095-0.04339-0.142-0.13015-0.142-0.42594 0-0.83216 0.5009-1.2187 1.5026v-0.024c-0.31551 0.6705-0.6113 1.0057-0.88737 1.0057h-0.29579l0.09465-0.4732h0.29579c0.23663 0 0.51665-0.3668 0.84004-1.1004 0.18142-0.489 0.36283-0.9741 0.54425-1.4553l0.13015 0.1893-0.09465 0.2485c0.21296-0.2445 0.44171-0.3668 0.68623-0.3668 0.16564 0 0.24846 0.1223 0.24846 0.3668-0.000002 0.1262-0.02367 0.2761-0.07099 0.4496 0.33917-0.5442 0.64285-0.8164 0.91103-0.8164 0.1893 0 0.28396 0.1144 0.28396 0.3431-0.000005 0.2524-0.11438 0.6429-0.34312 1.1714-0.22086 0.5285-0.33129 0.8361-0.33128 0.9228 0.03155 0.039 0.18141 0.055 0.4496 0.047l-0.09465 0.4732m4.1875 0h-0.27213c-0.21297 0-0.31945-0.1341-0.31945-0.4023 0-0.1183 0.01972-0.2602 0.05916-0.4259-0.33128 0.5127-0.62708 0.7691-0.88737 0.7691-0.2603 0-0.37861-0.2012-0.35495-0.6034-0.14987 0.2524-0.26819 0.4141-0.35495 0.485-0.13409 0.1184-0.31945 0.1775-0.55608 0.1775l0.10648-0.4732h0.20114c0.17353 0 0.37467-0.2169 0.60341-0.6508 0.33917-0.6231 0.58369-1.0293 0.73356-1.2186 0.37072-0.4339 0.79665-0.6508 1.2778-0.6508 0.10254 0 0.1538 0.043 0.15381 0.1302-0.000009 0.1183-0.13016 0.4772-0.39044 1.0767-0.25241 0.5915-0.37861 0.982-0.37861 1.1713 0 0.087 0.0631 0.1341 0.1893 0.142h0.29579l-0.10648 0.4732m0.08282-2.5201h-0.04733c-0.28396-0.01-0.56398 0.1025-0.84004 0.3313-0.23663 0.1972-0.42594 0.4417-0.56792 0.7335l0.01183 0.012c-0.12621 0.2525-0.18931 0.4575-0.18931 0.6153 0 0.1972 0.07888 0.2958 0.23663 0.2958 0.40228 0 0.86764-0.6626 1.3961-1.9877m2.7166 2.5201h-0.46143c-0.14198 0-0.21297-0.095-0.21297-0.2839 0-0.2209 0.09465-0.5522 0.28396-0.9939 0.1893-0.4496 0.28396-0.7691 0.28396-0.9584 0-0.1656-0.06705-0.2484-0.20114-0.2484-0.45749 0-0.87948 0.5008-1.266 1.5026l-0.01183-0.024c-0.30762 0.6704-0.60341 1.0056-0.88737 1.0056h-0.36678l0.10648-0.4732h0.35495c0.23663 0 0.51664-0.3668 0.84004-1.1003 0.18141-0.4891 0.36678-0.9742 0.55609-1.4553l0.13015 0.1893-0.11832 0.3076c0.2524-0.284 0.50481-0.4259 0.75722-0.4259 0.21297 0 0.31945 0.1695 0.31945 0.5087 0 0.2603-0.09465 0.6153-0.28396 1.0649-0.18142 0.4496-0.27213 0.7296-0.27213 0.84 0 0.047 0.0276 0.071 0.08282 0.071h0.46143l-0.09465 0.4732m4.5714-8.5897-2.2007 5.6319h0.37861l-0.10648 0.4732h-0.46143l-0.27213 0.6863c-0.18142 0.4653-0.27213 0.7848-0.27213 0.9583 0 0.2051 0.10254 0.3273 0.30762 0.3668h0.55609l-0.10648 0.4732h-0.17747-0.18931c-0.41017 0-0.61524-0.1972-0.61524-0.5916 0-0.063 0.0039-0.1301 0.01183-0.2011-0.34706 0.5285-0.6744 0.7927-0.98202 0.7927h-0.50876l0.10648-0.4732h0.49693c0.30762 0 0.6113-0.2721 0.91103-0.8164 0.13409-0.2366 0.30762-0.6349 0.52059-1.195h-0.36678l0.09465-0.4732h0.46143l2.2717-5.8212 0.14198 0.1893m0.22684 8.5897h-1.3606c-0.12621 0-0.18537-0.1301-0.17747-0.3904-0.29185 0.2603-0.50482 0.3904-0.6389 0.3904h-0.2603l0.09465-0.4732c0.20508 0 0.36283-0.028 0.47326-0.083 0.07099-0.031 0.1893-0.1261 0.35495-0.2839l0.0355-0.024c0.07887-0.3628 0.20902-0.7414 0.39044-1.1358 0.22085-0.4891 0.44565-0.7888 0.6744-0.8992 0.11831-0.055 0.27212-0.083 0.46143-0.083 0.29184 0 0.43776 0.1065 0.43777 0.3194-0.000008 0.2446-0.17354 0.5404-0.52059 0.8874-0.27607 0.2445-0.5482 0.489-0.81638 0.7336-0.10255 0.1025-0.25636 0.2484-0.46143 0.4377-0.000009 0.087 0.01972 0.1302 0.05916 0.1302h1.3488l-0.09465 0.4732m0.20114-2.4609c-0.07888-0.032-0.19325-0.047-0.34312-0.047-0.14199 0-0.2603 0.028-0.35495 0.083-0.27607 0.1577-0.52454 0.6034-0.74539 1.3369 0.08676-0.087 0.22085-0.2129 0.40227-0.3786 0.24452-0.205 0.59157-0.5363 1.0412-0.9938m0.1784 2.4609c-0.10254 0-0.15381-0.095-0.15381-0.2839 0-0.2288 0.07887-0.5285 0.23663-0.8992 0.18142-0.4102 0.35889-0.6152 0.53242-0.6153 0.10254 0.0001 0.15381 0.095 0.15381 0.284 0 0.2288-0.07888 0.5245-0.23663 0.8874-0.18142 0.418-0.35889 0.627-0.53242 0.627m0.55609-1.2659c0-0.039-0.01183-0.059-0.03549-0.059-0.08677 0-0.18536 0.1065-0.29579 0.3194-0.11043 0.213-0.16564 0.3668-0.16564 0.4615 0 0.047 0.01183 0.071 0.03549 0.071 0.08677 0 0.18536-0.1065 0.29579-0.3195s0.16564-0.3707 0.16564-0.4733m3.4136 0.4496-0.01183 0.024c0 0.213 0.06704 0.3195 0.20114 0.3195h0.74539l-0.10648 0.4732h-0.74539c-0.22875 0-0.33523-0.1853-0.31945-0.5561-0.33918 0.3708-0.63497 0.5561-0.88737 0.5561-0.24453 0-0.36678-0.2051-0.36678-0.6152 0-0.418 0.11042-0.9347 0.33128-1.5499 0.14198-0.3865 0.31156-0.7494 0.50876-1.0885 0.29973-0.5127 0.56397-0.7691 0.79272-0.7691 0.22085 0 0.33128 0.1814 0.33128 0.5443 0 0.2524-0.05522 0.6113-0.16564 1.0766-0.07888 0.355-0.1617 0.7139-0.24846 1.0767 0.52059-0.6862 1.0412-1.6091 1.5618-2.7686 0.52848-1.1595 0.88736-2.1691 1.0767-3.0289 0.05521-0.2681 0.08281-0.4929 0.08282-0.6744-0.000009-0.2918-0.07888-0.4377-0.23663-0.4377-0.30763 0-0.80849 0.5245-1.5026 1.5736l-0.05916-0.3668c0.74933-1.1201 1.3054-1.6801 1.6683-1.6801 0.23662 0 0.35494 0.2169 0.35495 0.6507-0.000008 0.2524-0.0355 0.5522-0.10648 0.8992-0.22086 0.9781-0.60736 2.0824-1.1595 3.3129-0.57581 1.2857-1.1556 2.2953-1.7392 3.0289m0.23663-2.3664c0-0.2445-0.06705-0.3667-0.20114-0.3667-0.22875 0-0.48904 0.3115-0.78089 0.9347-0.23663 0.489-0.39439 0.9189-0.47326 1.2896-0.03156 0.1735-0.04733 0.3234-0.04733 0.4496 0 0.2682 0.07887 0.4023 0.23663 0.4023 0.23663 0 0.51664-0.1854 0.84004-0.5561 0.01577-0.087 0.10254-0.4535 0.2603-1.1003 0.11042-0.4812 0.16564-0.8322 0.16564-1.0531m3.3831 3.1827h-0.41411c-0.16564 0-0.24846-0.1222-0.24846-0.3668 0-0.1735 0.04338-0.4101 0.13015-0.7098-0.43382 0.7177-0.76905 1.0766-1.0057 1.0766-0.15775 0-0.23663-0.099-0.23663-0.2958 0-0.2366 0.0986-0.5797 0.29579-1.0293 0.15776-0.3313 0.31551-0.6626 0.47326-0.9938-0.24452 0.4259-0.49298 0.8518-0.74539 1.2778-0.37861 0.6546-0.65074 0.9977-0.81638 1.0293-0.03155 0.01-0.11832 0.012-0.2603 0.012l0.09465-0.4732c0.17354-0.01 0.2879-0.028 0.34312-0.059 0.05522-0.039 0.13804-0.142 0.24846-0.3076 0.22086-0.3865 0.44566-0.7769 0.6744-1.1713 0.37073-0.631 0.61524-0.9466 0.73356-0.9466 0.06311 0 0.09465 0.043 0.09465 0.1302 0 0.2051-0.15381 0.5916-0.46143 1.1595-0.29974 0.5679-0.4496 0.9386-0.4496 1.1121 0 0.055 0.03549 0.083 0.10648 0.083 0.20508 0 0.50087-0.3312 0.88737-0.9938 0.26818-0.4732 0.48904-0.915 0.66257-1.3251 0.04733-0.1183 0.09071-0.1775 0.13015-0.1775s0.05916 0.043 0.05916 0.1302c0 0.1104-0.12226 0.4535-0.36678 1.0293-0.24452 0.5679-0.36678 0.9584-0.36678 1.1713 0 0.1183 0.06704 0.1775 0.20114 0.1775 0.03944 0 0.09465 0 0.16564-0.012h0.16564l-0.09465 0.4732m2.5026-4.0109c-0.10254 0-0.15381-0.095-0.15381-0.2839 0-0.2288 0.07887-0.5246 0.23663-0.8874 0.18142-0.418 0.3589-0.6271 0.53242-0.6271 0.10254 0 0.15381 0.095 0.15381 0.284 0 0.2287-0.07888 0.5285-0.23663 0.8992-0.17353 0.4102-0.351 0.6152-0.53242 0.6152m-0.34312 4.0109h-0.43777c-0.28396 0-0.42594-0.1932-0.42594-0.5797 0-0.1262 0.01578-0.2761 0.04733-0.4496-0.35495 0.6862-0.7099 1.0293-1.0648 1.0293h-0.39044l0.09465-0.4732h0.39044c0.3865 0 0.80455-0.5522 1.2541-1.6564 0.20508-0.5206 0.32734-0.7809 0.36678-0.7809 0.03155 0 0.04733 0.039 0.04733 0.1183 0 0.087-0.05521 0.284-0.16564 0.5916-0.24452 0.6704-0.36678 1.1319-0.36678 1.3843 0 0.1814 0.08677 0.2918 0.2603 0.3312 0.03155 0.01 0.19719 0.012 0.49693 0.012l-0.10648 0.4732m0.8992-5.265c0-0.047-0.01183-0.071-0.03549-0.071-0.08677 0-0.18536 0.1065-0.29579 0.3194-0.11043 0.213-0.16564 0.3708-0.16564 0.4733 0 0.039 0.01578 0.059 0.04733 0.059 0.07887 0 0.17353-0.1065 0.28396-0.3195 0.11043-0.2129 0.16564-0.3667 0.16564-0.4614m1.4719 5.2651h-1.0175c-0.04733 0-0.07099-0.043-0.07099-0.1301 0-0.142 0.04733-0.2524 0.14198-0.3313 0.0079-0.01 0.07099-0.051 0.18931-0.1302 0.5127-0.3076 0.76905-0.6468 0.76905-1.0175 0-0.1026-0.05522-0.3313-0.16564-0.6863-0.21297 0.4654-0.47326 0.915-0.78089 1.3488-0.43382 0.6311-0.79272 0.9466-1.0767 0.9466h-0.36678l0.09465-0.4732h0.37861c0.23663 0 0.55608-0.2959 0.95836-0.8875 0.30762-0.4417 0.54819-0.8558 0.72173-1.2423-0.02366-0.1262-0.03549-0.2445-0.03549-0.3549 0-0.095 0.01183-0.1893 0.03549-0.284 0.02366-0.1262 0.07887-0.276 0.16564-0.4496 0.11042-0.2051 0.20902-0.3076 0.29579-0.3076 0.0631 0 0.09465 0.059 0.09465 0.1775 0 0.2366-0.0986 0.6034-0.29579 1.1003 0.1262 0.4181 0.1893 0.7257 0.1893 0.9229 0 0.4969-0.20114 0.9386-0.60341 1.3252h0.47326l-0.09465 0.4732m0.09465-3.4903c-0.09465 0.1183-0.14198 0.2326-0.14198 0.3431v0.095c0.0631-0.1499 0.11042-0.2958 0.14198-0.4378m2.2157 3.4903h-0.37861c-0.08677 0-0.14198-0.051-0.16564-0.1538-0.89132 2.5951-1.4711 3.8926-1.7392 3.8926-0.09465 0-0.14198-0.075-0.14198-0.2248 0-0.3628 0.31945-1.262 0.95836-2.6976 0.41016-0.915 0.82426-1.826 1.2423-2.7331 0.0631-0.1499 0.09465-0.2682 0.09465-0.3549 0-0.1578-0.11043-0.2367-0.33128-0.2367-0.15776 0-0.28002 0.02-0.36678 0.059-0.16564 0.079-0.38256 0.4575-0.65074 1.1359-0.16564 0.4101-0.24846 0.6586-0.24846 0.7453 0 0.071 0.05916 0.1025 0.17747 0.095l-0.09465 0.4733h-0.7099l0.09465-0.4733h0.33128c0.03943-0.3154 0.17747-0.7532 0.4141-1.3132 0.26818-0.6152 0.50087-0.982 0.69806-1.1004 0.11042-0.063 0.26423-0.095 0.46143-0.095 0.22085 0.0001 0.36283 0.1065 0.42594 0.3195 0.07888-0.2287 0.14198-0.3431 0.18931-0.3431 0.03943 0 0.05916 0.039 0.05916 0.1183 0 0.1025-0.1617 0.631-0.4851 1.5854-0.12621 0.3708-0.18931 0.5956-0.18931 0.6744 0 0.1026 0.05916 0.1578 0.17747 0.1657-0.10255-0.01-0.0079-0.012 0.28396-0.012l-0.10648 0.4732m-0.56792-0.6744c-0.43383 0.9544-0.74145 1.6328-0.92286 2.0351-0.47326 1.0806-0.7099 1.7155-0.7099 1.9048h0.01183c0.03155 0 0.07887-0.055 0.14198-0.1656 0.14986-0.2682 0.35495-0.7336 0.61524-1.3961 0.28396-0.7257 0.57186-1.5184 0.86371-2.3782m3.3402 0.6744h-0.41411c-0.16564 0-0.24846-0.1222-0.24846-0.3668 0-0.1735 0.04338-0.4101 0.13015-0.7099-0.43382 0.7178-0.76905 1.0767-1.0057 1.0767-0.15775 0-0.23663-0.099-0.23663-0.2958 0-0.2366 0.0986-0.5797 0.29579-1.0293 0.15776-0.3313 0.31551-0.6626 0.47326-0.9939-0.24452 0.426-0.49298 0.8519-0.74539 1.2778-0.37861 0.6547-0.65074 0.9978-0.81638 1.0294-0.03155 0.01-0.11832 0.012-0.2603 0.012l0.09465-0.4732c0.17354-0.01 0.2879-0.028 0.34312-0.059 0.05522-0.039 0.13804-0.142 0.24846-0.3076 0.22086-0.3865 0.44566-0.777 0.6744-1.1714 0.37073-0.631 0.61524-0.9465 0.73356-0.9465 0.0631 0 0.09465 0.043 0.09465 0.1302 0 0.205-0.15381 0.5915-0.46143 1.1595-0.29974 0.5679-0.4496 0.9386-0.4496 1.1121 0 0.055 0.03549 0.083 0.10648 0.083 0.20508 0 0.50087-0.3312 0.88737-0.9938 0.26818-0.4733 0.48904-0.915 0.66257-1.3252 0.04733-0.1183 0.09071-0.1774 0.13015-0.1774s0.05916 0.043 0.05916 0.1301c0 0.1105-0.12226 0.4536-0.36678 1.0294-0.24452 0.5679-0.36678 0.9583-0.36678 1.1713 0 0.1183 0.06704 0.1775 0.20114 0.1775 0.03944 0 0.09465 0 0.16564-0.012h0.16564l-0.09465 0.4733m2.3606 0h-1.3606c-0.1262 0-0.18536-0.1301-0.17747-0.3904-0.29184 0.2603-0.50481 0.3904-0.63891 0.3904h-0.2603l0.09465-0.4733c0.20508 0 0.36283-0.028 0.47326-0.083 0.07099-0.031 0.18931-0.1262 0.35495-0.2839l0.0355-0.024c0.07887-0.3629 0.20902-0.7415 0.39044-1.1359 0.22085-0.489 0.44565-0.7887 0.6744-0.8992 0.11832-0.055 0.27213-0.083 0.46143-0.083 0.29184 0 0.43777 0.1065 0.43777 0.3195 0 0.2445-0.17353 0.5403-0.52059 0.8874-0.27607 0.2445-0.5482 0.489-0.81638 0.7335-0.10254 0.1026-0.25635 0.2485-0.46143 0.4378 0 0.087 0.01972 0.1302 0.05916 0.1302h1.3488l-0.09465 0.4732m0.20114-2.461c-0.07887-0.032-0.19325-0.047-0.34312-0.047-0.14198 0-0.2603 0.028-0.35495 0.083-0.27607 0.1578-0.52454 0.6034-0.74539 1.337 0.08677-0.087 0.22085-0.213 0.40227-0.3786 0.24452-0.2051 0.59158-0.5364 1.0412-0.9939m3.9865 2.461h-0.27213c-0.21298 0-0.31946-0.1341-0.31945-0.4023-0.000009-0.1183 0.01972-0.2603 0.05916-0.4259-0.33129 0.5127-0.62707 0.7691-0.88737 0.7691-0.26029 0-0.37861-0.2012-0.35495-0.6035-0.14987 0.2525-0.26819 0.4142-0.35495 0.4851-0.13409 0.1184-0.31945 0.1775-0.55608 0.1775l0.10648-0.4733h0.20114c0.17353 0 0.37466-0.2169 0.60341-0.6507 0.33917-0.6231 0.58369-1.0293 0.73356-1.2187 0.37072-0.4338 0.79666-0.6507 1.2778-0.6507 0.10254 0 0.1538 0.043 0.15381 0.1302-0.000009 0.1183-0.13016 0.4772-0.39044 1.0766-0.25241 0.5916-0.37862 0.9821-0.37861 1.1714-0.000008 0.087 0.0631 0.1341 0.18931 0.1419h0.29579l-0.10648 0.4733m0.08282-2.5201h-0.04733c-0.28397-0.01-0.56398 0.1025-0.84004 0.3313-0.23663 0.1972-0.42594 0.4417-0.56792 0.7335l0.01183 0.012c-0.12621 0.2524-0.18931 0.4575-0.18931 0.6153 0 0.1972 0.07887 0.2958 0.23663 0.2958 0.40226 0 0.86764-0.6626 1.3961-1.9878m1.8174 1.9641c0 0.055 0.03155 0.083 0.09465 0.083h0.4851l-0.10648 0.4733h-0.4851c-0.13409 0-0.20114-0.1065-0.20114-0.3194 0-0.4891 0.32339-1.2897 0.97019-2.4019-0.3865 0.2682-0.69806 0.4417-0.9347 0.5206-0.59158 1.4671-1.0372 2.2007-1.337 2.2007h-0.41411l0.10648-0.4733h0.40227c0.20508 0 0.54425-0.564 1.0175-1.6919-0.14198-0.01-0.21297-0.1065-0.21297-0.2958 0-0.1735 0.07888-0.4141 0.23663-0.7217 0.15775-0.3155 0.31156-0.4733 0.46143-0.4733 0.07099 0 0.10648 0.063 0.10648 0.1893 0 0.1578-0.05916 0.4102-0.17748 0.7572 0.37072-0.1577 0.82427-0.4653 1.3606-0.9228 0.02365-0.024 0.04338-0.035 0.05916-0.035 0.03155 0 0.04732 0.039 0.04733 0.1183-0.000008 0.1025-0.0986 0.2997-0.29579 0.5916-0.1972 0.2839-0.42988 0.6783-0.69806 1.1831-0.3234 0.6153-0.4851 1.0215-0.4851 1.2186m-0.03549-2.6265c-0.1341 0.047-0.25636 0.2129-0.36678 0.4969 0.03155 0.032 0.07099 0.047 0.11832 0.047h0.07099c0.04733-0.1262 0.10648-0.3076 0.17748-0.5443m3.3746 0.7218-0.21297 0.2721c-0.0079-0.1499-0.03155-0.2406-0.07099-0.2721-0.03156-0.032-0.13015-0.047-0.29579-0.047-0.34706 0-0.66257 0.3391-0.94653 1.0175l0.01183 0.012c-0.19719 0.4259-0.29579 0.7217-0.29579 0.8873 0 0.079 0.04338 0.1223 0.13015 0.1302-0.10254-0.01-0.02761-0.012 0.2248-0.012h1.0293l-0.09465 0.4732h-1.124c-0.29974 0-0.42988-0.1617-0.39044-0.4851-0.20508 0.3234-0.40227 0.4851-0.59158 0.4851h-0.24846l0.09465-0.4732h0.2603c0.18931 0 0.41016-0.2564 0.66257-0.7691 0.16564-0.3628 0.33128-0.7256 0.49693-1.0885 0.25241-0.4259 0.5482-0.6428 0.88737-0.6507h0.11832c0.22085 0 0.33917 0.1735 0.35495 0.5206m2.2624 2.4609h-0.41411c-0.16564 0-0.24846-0.1222-0.24846-0.3668 0-0.1735 0.04338-0.4101 0.13015-0.7098-0.43383 0.7177-0.76905 1.0766-1.0057 1.0766-0.15776 0-0.23663-0.099-0.23663-0.2958 0-0.2366 0.09859-0.5797 0.29579-1.0293 0.15775-0.3313 0.31551-0.6626 0.47326-0.9939-0.24453 0.426-0.49299 0.8519-0.74539 1.2779-0.37861 0.6546-0.65074 0.9977-0.81638 1.0293-0.03155 0.01-0.11832 0.012-0.2603 0.012l0.09465-0.4732c0.17353-0.01 0.28791-0.028 0.34312-0.059 0.05521-0.039 0.13803-0.142 0.24846-0.3076 0.22085-0.3865 0.44566-0.777 0.6744-1.1713 0.37072-0.6311 0.61524-0.9466 0.73356-0.9466 0.0631 0 0.09465 0.043 0.09465 0.1302 0 0.2051-0.15381 0.5916-0.46143 1.1595-0.29974 0.5679-0.4496 0.9386-0.4496 1.1121 0 0.055 0.03549 0.083 0.10648 0.083 0.20508 0 0.50086-0.3312 0.88737-0.9938 0.26818-0.4732 0.48903-0.915 0.66257-1.3251 0.04733-0.1183 0.09071-0.1775 0.13015-0.1775 0.03943 0 0.05916 0.043 0.05916 0.1301 0 0.1105-0.12226 0.4536-0.36678 1.0294-0.24452 0.5679-0.36678 0.9584-0.36678 1.1713 0 0.1183 0.06704 0.1775 0.20114 0.1775 0.03943 0 0.09465 0 0.16564-0.012h0.16564l-0.09465 0.4732m-58.942 11.832h-0.27213c-0.21297 0-0.31946-0.1341-0.31945-0.4023-0.000003-0.1183 0.01972-0.2602 0.05916-0.4259-0.33129 0.5127-0.62708 0.7691-0.88737 0.7691-0.2603 0-0.37861-0.2012-0.35495-0.6035-0.14987 0.2525-0.26818 0.4141-0.35495 0.4851-0.13409 0.1184-0.31945 0.1775-0.55608 0.1775l0.10648-0.4733h0.20114c0.17353 0 0.37467-0.2169 0.60341-0.6507 0.33917-0.6231 0.58369-1.0293 0.73356-1.2186 0.37072-0.4339 0.79666-0.6508 1.2778-0.6508 0.10254 0 0.15381 0.043 0.15381 0.1302-0.000003 0.1183-0.13015 0.4772-0.39044 1.0766-0.25241 0.5916-0.37861 0.9821-0.37861 1.1714-0.000003 0.087 0.0631 0.1341 0.18931 0.1419h0.29579l-0.10648 0.4733m0.08282-2.5201h-0.04733c-0.28396-0.01-0.56398 0.1025-0.84004 0.3313-0.23663 0.1972-0.42594 0.4417-0.56792 0.7335l0.01183 0.012c-0.1262 0.2524-0.18931 0.4574-0.1893 0.6152-0.000002 0.1972 0.07888 0.2958 0.23663 0.2958 0.40227 0 0.86765-0.6626 1.3961-1.9877m2.7166 2.5201h-0.46143c-0.14198 0-0.21297-0.095-0.21297-0.2839-0.000002-0.2209 0.09465-0.5522 0.28396-0.9939 0.1893-0.4496 0.28396-0.769 0.28396-0.9584-0.000002-0.1656-0.06705-0.2484-0.20114-0.2484-0.45749 0-0.87948 0.5008-1.266 1.5026l-0.01183-0.024c-0.30762 0.6705-0.60341 1.0057-0.88737 1.0057h-0.36678l0.10648-0.4733h0.35495c0.23663 0 0.51664-0.3667 0.84004-1.1003 0.18142-0.489 0.36678-0.9741 0.55608-1.4553l0.13015 0.1893-0.11832 0.3076c0.2524-0.2839 0.50481-0.4259 0.75722-0.4259 0.21297 0 0.31945 0.1696 0.31945 0.5088-0.000003 0.2603-0.09465 0.6152-0.28396 1.0648-0.18142 0.4496-0.27213 0.7296-0.27213 0.8401-0.000003 0.047 0.0276 0.071 0.08282 0.071h0.46143l-0.09465 0.4733m4.5714-8.5897-2.2007 5.6318h0.37861l-0.10648 0.4733h-0.46143l-0.27213 0.6862c-0.18142 0.4654-0.27213 0.7848-0.27213 0.9584-0.000001 0.2051 0.10254 0.3273 0.30762 0.3667h0.55608l-0.10648 0.4733h-0.17748-0.1893c-0.41016 0-0.61524-0.1972-0.61524-0.5916-0.000001-0.063 0.0039-0.1301 0.01183-0.2011-0.34706 0.5285-0.6744 0.7927-0.98202 0.7927h-0.50876l0.10649-0.4733h0.49693c0.30762 0 0.6113-0.2721 0.91103-0.8163 0.13409-0.2367 0.30762-0.635 0.52059-1.195h-0.36678l0.09465-0.4733h0.46143l2.2717-5.8211 0.14198 0.1893m0.22684 8.5897h-1.3606c-0.1262 0-0.18536-0.1301-0.17748-0.3904-0.29185 0.2603-0.50482 0.3904-0.63891 0.3904h-0.2603l0.09465-0.4733c0.20508 0 0.36284-0.028 0.47326-0.083 0.07099-0.032 0.18931-0.1262 0.35495-0.2839l0.03549-0.024c0.07888-0.3628 0.20902-0.7414 0.39044-1.1358 0.22086-0.4891 0.44566-0.7888 0.6744-0.8992 0.11832-0.055 0.27212-0.083 0.46143-0.083 0.29184 0 0.43777 0.1064 0.43777 0.3194-0.000002 0.2445-0.17353 0.5403-0.52059 0.8874-0.27607 0.2445-0.5482 0.489-0.81638 0.7335-0.10254 0.1026-0.25635 0.2485-0.46143 0.4378-0.000001 0.087 0.01972 0.1302 0.05916 0.1302h1.3488l-0.09465 0.4732m0.20114-2.461c-0.07888-0.032-0.19325-0.047-0.34312-0.047-0.14198 0-0.2603 0.028-0.35495 0.083-0.27607 0.1578-0.52454 0.6035-0.74539 1.337 0.08676-0.087 0.22086-0.213 0.40228-0.3786 0.24452-0.2051 0.59158-0.5364 1.0412-0.9939m-0.03457 3.1354-0.13015-0.1893c0.07888-0.1972 0.21297-0.4851 0.40227-0.8637 0.10254-0.142 0.20508-0.2839 0.30762-0.4259 0.1262-0.1893 0.1893-0.3431 0.18931-0.4615-0.000001-0.039-0.01578-0.059-0.04733-0.059-0.1262 0-0.28396 0.2445-0.47326 0.7335l-0.13017-0.1893c0.2603-0.6783 0.49693-1.0175 0.7099-1.0175 0.10254 0 0.15381 0.095 0.15381 0.284-0.000001 0.3628-0.11043 0.7059-0.33128 1.0293-0.30762 0.4496-0.52454 0.8361-0.65074 1.1595"/>
  <g id="layer3" transform="translate(-2 962.36)">
   <path id="path3589" style="opacity:.3;filter:url(#filter3963);fill:url(#linearGradient3593)" transform="matrix(.71418 .12539 -.12539 .71418 2.6569 -15.448)" d="m118.38 11.031c-0.52336-0.06895-1.0579-0.0102-1.5625 0.125-1.0064 0.26967-1.8855 0.91897-2.4375 1.875l-2.0625 3.5625a1.0492 1.0492 0 0 0 -0.84375 0.53125l-9.5 16.469-36 62.344a1.0492 1.0492 0 0 0 -0.09375 0.25l-6.386 24.032a1.0492 1.0492 0 0 0 1.75 1.03l17.625-17.53a1.0492 1.0492 0 0 0 0.156 -0.22l36-62.344 9.5-16.469a1.0492 1.0492 0 0 0 0.0625 -0.90625l2.0938-3.625c1.1113-1.9248 0.4576-4.4191-1.4688-5.5312l-5.3125-3.0625c-0.47927-0.2767-1.0079-0.4623-1.5312-0.53125z"/>
   <path id="path3712" style="opacity:.5;filter:url(#filter3963);fill:url(#linearGradient3595)" transform="matrix(.62741 .36350 -.36350 .62741 36.873 -19.139)" d="m118.38 11.031c-0.52336-0.06895-1.0579-0.0102-1.5625 0.125-1.0064 0.26967-1.8855 0.91897-2.4375 1.875l-2.0625 3.5625a1.0492 1.0492 0 0 0 -0.84375 0.53125l-9.5 16.469-36 62.344a1.0492 1.0492 0 0 0 -0.09375 0.25l-6.386 24.032a1.0492 1.0492 0 0 0 1.75 1.03l17.625-17.53a1.0492 1.0492 0 0 0 0.156 -0.22l36-62.344 9.5-16.469a1.0492 1.0492 0 0 0 0.0625 -0.90625l2.0938-3.625c1.1113-1.9248 0.4576-4.4191-1.4688-5.5312l-5.3125-3.0625c-0.47927-0.2767-1.0079-0.4623-1.5312-0.53125z"/>
   <g id="g3643" transform="matrix(-.62795 -.36255 .36255 -.62795 120.29 131.31)">
    <g id="g3537">
     <rect id="rect3483" style="stroke-linejoin:round;stroke:#df453f;stroke-width:1.3791;fill:url(#linearGradient3522)" rx="3" ry="3" height="16" width="12.116" y="107.49" x="136.91"/>
     <path id="path3493" style="opacity:.3;filter:url(#filter3495);fill:#701300" transform="matrix(1.8857 0 0 1 -123.51 -1.9445)" d="m141.24 118.19a1.5468 3.9775 0 1 1 -3.0936 0 1.5468 3.9775 0 1 1 3.0936 0z"/>
     <path id="path3499" style="opacity:.8;filter:url(#filter3509);fill:#fff;fill-rule:evenodd" d="m146.31 113.12c-0.85193 9.5067-3.9375 8.3125-6.5 8.9375 4.0763 0.0625 8.625-0.0625 8.625-0.0625-2.4375-0.5625-1.8125-2.375-2.125-8.875z"/>
     <rect id="rect3525" style="opacity:.2;fill:url(#linearGradient3524)" height="1" width="12.119" y="115.97" x="136.41"/>
    </g>
    <g id="g3311" transform="translate(23.733)">
     <path id="rect2480" style="stroke-linejoin:round;stroke:url(#linearGradient3528);stroke-width:1.3791;fill:url(#linearGradient3526)" d="m112.77 24.5 6.5-24 6.5 24v72h-13v-72z"/>
     <path id="path3272" style="fill:url(#linearGradient3530);fill-rule:evenodd" d="m117.69 8.0717 3.1426 0.022097-1.5824-5.7913"/>
     <path id="path3274" style="fill:url(#linearGradient3532);fill-rule:evenodd" d="m117.73 8.0902-3.77 13.91s-0.46779 1.6535-0.698 2.6083c-0.19122 0.64228 1.9589 1.6113 3.0182-1.6083 1.2153 4.5138 5.5759 3.438 5.9883 0.01105 0.3425 1.7015 1.754 2.95 2.9886 1.5219-0.23478-0.90874-0.43641-1.5219-0.43641-1.5219l-4.0217-14.921h-3.0715z"/>
     <path id="path3294" style="opacity:.5;stroke:url(#linearGradient3534);stroke-width:1.3791px;fill:none" d="m122.37 96.305v-67.217"/>
     <path id="path3304" style="opacity:.5;stroke:url(#linearGradient3536);stroke-width:1.3791px;fill:none" d="m116.25 96.305v-67.217"/>
     <path id="path3372" style="opacity:.4;filter:url(#filter3382);fill:#ac4311;fill-rule:evenodd" d="m118.7 5.9799-4.773 17.899 1.9887-0.83969 2.7842-17.059z"/>
     <path id="path3386" style="opacity:.15;stroke:#4d2600;stroke-width:1.3791px;fill:none" d="m113.08 24.625s1.4867 1.7649 3.25-1.5312c2 5.25 5.1686 2.0871 5.9375-0.03125 1.375 3.4375 3.125 1.4375 3.125 1.4375"/>
     <path id="path3388" style="opacity:.8;filter:url(#filter3390);fill:#fff;fill-rule:evenodd" transform="matrix(1.1224 0 0 1.345 -41.703 -4.7709)" d="m144.06 8.9375-0.375 12.5 3.0625-0.3125-2.6875-12.188z"/>
    </g>
    <g id="g3620">
     <rect id="rect3333" style="stroke-linejoin:round;stroke:url(#linearGradient3540);stroke-width:1.3791;fill:url(#linearGradient3538)" height="19" width="13" y="96.5" x="136.5"/>
     <rect id="rect3337" style="opacity:.4;fill:url(#linearGradient3542)" height="1" width="12" y="100" x="137"/>
     <rect id="rect3351" style="opacity:.6;fill:url(#linearGradient3544)" height="1" width="12" y="101" x="137"/>
     <rect id="rect3369" style="opacity:.4;fill:url(#linearGradient3546)" height="1" width="12" y="102" x="137"/>
     <rect id="rect3371" style="opacity:.6;fill:url(#linearGradient3548)" height="1" width="12" y="103" x="137"/>
     <rect id="rect3379" style="opacity:.4;fill:url(#linearGradient3550)" height="1" width="12" y="108" x="137"/>
     <rect id="rect3381" style="opacity:.6;fill:url(#linearGradient3552)" height="1" width="12" y="109" x="137"/>
     <rect id="rect3385" style="opacity:.4;fill:url(#linearGradient3554)" height="1" width="12" y="110" x="137"/>
     <rect id="rect3387" style="opacity:.6;fill:url(#linearGradient3556)" height="1" width="12" y="111" x="137"/>
     <rect id="rect3437" style="opacity:.3;fill:url(#linearGradient3558)" height="4" width="12" y="104" x="137"/>
     <path id="path3449" style="opacity:.6;filter:url(#filter3451)" transform="matrix(1.2554 0 0 1 -35.754 0)" d="m140 106.08a1.1013 8.3969 0 1 1 -2.2026 0 1.1013 8.3969 0 1 1 2.2026 0z"/>
     <path id="path3455" style="opacity:.8;filter:url(#filter3457);fill:#fff" d="m147.34 106.04a1.1932 8.0875 0 1 1 -2.3865 0 1.1932 8.0875 0 1 1 2.3865 0z"/>
    </g>
   </g>
  </g>
  <rect id="rect3003" style="opacity:.15;fill:#fff" transform="translate(98 3.8281e-7)" clip-path="url(#clipPath3009)" rx="25" ry="25" height="92" width="92" y="958.36" x="-96"/>
 </g>
</svg>
