<?xml version="1.0" encoding="UTF-8" standalone="no"?>
<!-- Created with Inkscape (http://www.inkscape.org/) -->
<svg id="svg11037" xmlns:rdf="http://www.w3.org/1999/02/22-rdf-syntax-ns#" xmlns="http://www.w3.org/2000/svg" height="96" width="96" version="1.1" xmlns:cc="http://creativecommons.org/ns#" xmlns:xlink="http://www.w3.org/1999/xlink" xmlns:dc="http://purl.org/dc/elements/1.1/">
 <defs id="defs11039">
  <linearGradient id="linearGradient11642" y2="1046.1" gradientUnits="userSpaceOnUse" y1="962.62" gradientTransform="matrix(1.15 0 0 1.15 -7.1999 -150.65)" x2="48" x1="48">
   <stop id="stop3797" style="stop-color:#c70000;stop-opacity:.38961" offset="0"/>
   <stop id="stop3799" style="stop-color:#3d0000" offset="1"/>
  </linearGradient>
  <clipPath id="clipPath3009" clipPathUnits="userSpaceOnUse">
   <path id="path3011" style="opacity:.15;fill:#fff" d="m-2 956.36h-96v33.562l96 25.687v-59.25z"/>
  </clipPath>
 </defs>
 <metadata id="metadata11042">
  <rdf:RDF>
   <cc:Work rdf:about="">
    <dc:format>image/svg+xml</dc:format>
    <dc:type rdf:resource="http://purl.org/dc/dcmitype/StillImage"/>
    <dc:title/>
   </cc:Work>
  </rdf:RDF>
 </metadata>
 <g id="layer1" transform="translate(0 -956.36)">
  <rect id="rect3867" style="fill:url(#linearGradient11642)" rx="25" ry="25" height="92" width="92" y="958.36" x="2"/>
  <g id="g3041" style="fill:#fff" transform="matrix(1.0741 0 0 1.0741 65.867 -82.796)">
   <g id="g3829" style="fill:#fff">
    <path id="path1929" style="fill:#fff;fill-rule:evenodd" d="m-16.634 981.91-34.912 60.469h0.60429c1.1948-0.026 1.6692-1.9821 2.2882-1.9821 0.40849 0 1.0006 0.3062 1.41 0.3062 0.77533 0 1.0011-4.1034 1.655-4.0897 0.65388 0.014 0.53059 3.5059 1.7613 3.5499 1.2762 0.046 0.43566-8.0492 1.684-8.0492 1.0859 0 0.54072 6.9063 2.0251 6.9518 1.4388 0.046 0.3248-11.962 1.7613-12.079 1.6731-0.1355 0.61319 11.176 2.3439 11.176 1.5109 0 0.51281-15.883 1.8499-15.883 1.3356 0 0.9317 15.346 2.2942 15.217 1.3118 0 0.04484-18.51 1.5576-18.51 1.9371 0 0.94556 18.372 2.2724 18.367 1.4953-0.01 0.27652-20.17 2.0172-20.17 1.8048 0 0.57454 20.366 2.0795 20.312 1.5854-0.057-0.07848-19.082 1.6678-19.082 1.6819 0 0.53745 19.347 2.0062 19.347 1.5517 0-0.11091-19.097 1.9199-18.964 1.9666 0.1289 0.67675 19.52 2.0828 19.52 1.3416 0 0.54054-16.941 2.1404-16.85 1.8755 0.107 0.78167 17.374 2.0767 17.374 1.2003 0 0.65557-13.784 2.2451-13.784 1.6802 0 0.41575 14.304 1.9616 14.24 1.5445-0.065 0.85523-10.907 2.3585-10.907 1.4388 0 0.24816 11.825 1.8743 11.825 1.6903 0 0.83534-8.2793 2.3269-8.2793 1.537 0 0.56915 9.0459 1.7454 9.0459 1.144 0 0.80993-5.6991 1.9393-5.6991 1.1304 0 0.60077 6.0309 1.5525 6.0309 0.98393 0 0.58146-3.4808 1.6241-3.4808 1.044 0 0.67126 3.7589 1.4719 3.803 0.71098 0.04 0.61988-2.37 1.2751-2.37 0.6666 0 0.38579 2.6784 1.3034 2.6765 0.88543 0 0.61324-1.4828 1.2438-1.4828 0.61918 0 0.63832 1.7408 1.3697 1.7408 0.5213-0.01 1.0743-0.7958 1.7369-0.7958 0.87156 0 1.1386 0.9726 3.3707 0.9726h0.92658l-34.912-60.469z"/>
   </g>
  </g>
  <rect id="rect3003" style="opacity:.15;fill:#fff" transform="translate(98)" clip-path="url(#clipPath3009)" rx="25" ry="25" height="92" width="92" y="958.36" x="-96"/>
 </g>
</svg>
