<?xml version="1.0" encoding="UTF-8" standalone="no"?>
<!-- Created with Inkscape (http://www.inkscape.org/) -->
<svg id="svg11037" xmlns:rdf="http://www.w3.org/1999/02/22-rdf-syntax-ns#" xmlns="http://www.w3.org/2000/svg" height="96" width="96" version="1.1" xmlns:cc="http://creativecommons.org/ns#" xmlns:xlink="http://www.w3.org/1999/xlink" xmlns:dc="http://purl.org/dc/elements/1.1/">
 <defs id="defs11039">
  <linearGradient id="linearGradient3617-6" y2="5.9877" gradientUnits="userSpaceOnUse" x2="48" y1="90" x1="48">
   <stop id="stop2843-4" style="stop-color:#f0bf39" offset="0"/>
   <stop id="stop2845-8" style="stop-color:#f8e699" offset="1"/>
  </linearGradient>
  <radialGradient id="radialGradient3619" gradientUnits="userSpaceOnUse" cy="90.172" cx="48" gradientTransform="matrix(1.1573 0 0 .99591 -7.551 .19713)" r="42">
   <stop id="stop3739" style="stop-color:#fff" offset="0"/>
   <stop id="stop3741" style="stop-color:#fff;stop-opacity:0" offset="1"/>
  </radialGradient>
  <clipPath id="clipPath4165-0">
   <rect id="rect4167-9" style="fill:#ff2a2a" rx="6" ry="6" height="84" width="84" y="6" x="6"/>
  </clipPath>
  <radialGradient id="radialGradient4393-7" xlink:href="#linearGradient3853-5" gradientUnits="userSpaceOnUse" cy="26.357" cx="24.821" r="8.0357"/>
  <linearGradient id="linearGradient3853-5">
   <stop id="stop3855-0" style="stop-color:#e88d01;stop-opacity:.18431" offset="0"/>
   <stop id="stop3863-4" style="stop-color:#e58907;stop-opacity:.41085" offset=".5"/>
   <stop id="stop4397-2" style="stop-color:#e48a0a;stop-opacity:.68217" offset=".75"/>
   <stop id="stop3859-5" style="stop-color:#e4870a" offset="1"/>
  </linearGradient>
  <radialGradient id="radialGradient4045-1" xlink:href="#linearGradient3853-5" gradientUnits="userSpaceOnUse" cy="30.464" cx="43.393" r="4.1071"/>
  <radialGradient id="radialGradient4047-3" xlink:href="#linearGradient3698-8" gradientUnits="userSpaceOnUse" cy="24.64" cx="53.542" r="2.1429"/>
  <linearGradient id="linearGradient3698-8">
   <stop id="stop3700-7" style="stop-color:#f0a801;stop-opacity:.18605" offset="0"/>
   <stop id="stop3711-7" style="stop-color:#f0a801;stop-opacity:.35659" offset=".5"/>
   <stop id="stop4395-0" style="stop-color:#e8a301;stop-opacity:.83721" offset=".75"/>
   <stop id="stop3703-2" style="stop-color:#e09201" offset="1"/>
  </linearGradient>
  <radialGradient id="radialGradient4051-9" xlink:href="#linearGradient3698-8" gradientUnits="userSpaceOnUse" cy="62.283" cx="30.529" r="6.6071"/>
  <radialGradient id="radialGradient4055-2" xlink:href="#linearGradient3698-8" gradientUnits="userSpaceOnUse" cy="56.426" cx="48.796" r="3.3929"/>
  <radialGradient id="radialGradient4125-0" xlink:href="#linearGradient3853-5" gradientUnits="userSpaceOnUse" cy="77.455" cx="12.211" r="7.8571"/>
  <radialGradient id="radialGradient4059-9" xlink:href="#linearGradient3698-8" gradientUnits="userSpaceOnUse" cy="87.036" cx="33.899" r="4.1071"/>
  <radialGradient id="radialGradient4061-2" xlink:href="#linearGradient3698-8" gradientUnits="userSpaceOnUse" cy="86.754" cx="50.864" r="5.3571"/>
  <radialGradient id="radialGradient4063-1" xlink:href="#linearGradient3853-5" gradientUnits="userSpaceOnUse" cy="13.679" cx="73.393" r="3.5714"/>
  <radialGradient id="radialGradient4065-1" xlink:href="#linearGradient3698-8" gradientUnits="userSpaceOnUse" cy="25.643" cx="80.714" r="9.2857"/>
  <radialGradient id="radialGradient4105-5" xlink:href="#linearGradient3853-5" gradientUnits="userSpaceOnUse" cy="79.565" cx="78.237" r="2.1429"/>
  <radialGradient id="radialGradient4102-9" xlink:href="#linearGradient3698-8" gradientUnits="userSpaceOnUse" cy="69.737" cx="82.598" r="4.8214"/>
  <radialGradient id="radialGradient4121-9" xlink:href="#linearGradient3698-8" gradientUnits="userSpaceOnUse" cy="34.283" cx="12.649" r="3.2143"/>
  <radialGradient id="radialGradient4073-3" xlink:href="#linearGradient3698-8" gradientUnits="userSpaceOnUse" cy="5.0426" cx="34.688" r="6.0714"/>
  <radialGradient id="radialGradient4119-4" xlink:href="#linearGradient3698-8" gradientUnits="userSpaceOnUse" cy="17.705" cx="3.023" gradientTransform="matrix(1 0 0 0.975 0 .37768)" r="7.1429"/>
  <radialGradient id="radialGradient4077-3" xlink:href="#linearGradient3698-8" gradientUnits="userSpaceOnUse" cy="7.8687" cx="60.239" r="2.7679"/>
  <radialGradient id="radialGradient4908" xlink:href="#linearGradient3698-8" gradientUnits="userSpaceOnUse" cy="37.607" cx="62.679" r="5.3571"/>
  <radialGradient id="radialGradient4910" xlink:href="#linearGradient3853-5" gradientUnits="userSpaceOnUse" cy="71.637" cx="65.731" r="8.2143"/>
  <clipPath id="clipPath4912" clipPathUnits="userSpaceOnUse">
   <rect id="rect4914" style="fill:url(#linearGradient4916)" rx="22.826" ry="22.826" height="84" width="84" y="6" x="6"/>
  </clipPath>
  <linearGradient id="linearGradient4916" y2="1046.1" gradientUnits="userSpaceOnUse" x2="48" gradientTransform="matrix(1.05 0 0 1.05 -2.4 -1006.6)" y1="962.62" x1="48">
   <stop id="stop2843" style="stop-color:#f0bf39" offset="0"/>
   <stop id="stop2845" style="stop-color:#f8e699" offset="1"/>
  </linearGradient>
  <clipPath id="clipPath3009" clipPathUnits="userSpaceOnUse">
   <path id="path3011" style="opacity:.15;fill:#fff" d="m-2 956.36h-96v33.562l96 25.687v-59.25z"/>
  </clipPath>
 </defs>
 <metadata id="metadata11042">
  <rdf:RDF>
   <cc:Work rdf:about="">
    <dc:format>image/svg+xml</dc:format>
    <dc:type rdf:resource="http://purl.org/dc/dcmitype/StillImage"/>
    <dc:title/>
   </cc:Work>
  </rdf:RDF>
 </metadata>
 <g id="layer1" transform="translate(0 -956.36)">
  <g id="g3381" clip-path="url(#clipPath4912)" transform="matrix(1.0952 0 0 1.0952 -4.5714 951.79)">
   <g id="layer1-4">
    <g id="g3377">
     <rect id="rect2419" style="fill:url(#linearGradient3617-6)" rx="6" ry="6" height="84" width="84" y="6" x="6"/>
     <path id="path3615" style="opacity:.2;fill:url(#radialGradient3619)" d="m12 90c-3.324 0-6-2.676-6-6v-2-68-2c0-0.33472 0.04135-0.6507 0.09375-0.96875 0.0487-0.2956 0.09704-0.59692 0.1875-0.875 0.0099-0.03 0.0209-0.063 0.0313-0.094 0.0989-0.2873 0.2349-0.547 0.375-0.812 0.1446-0.2735 0.3156-0.5356 0.5-0.7812 0.1844-0.2457 0.3738-0.4735 0.5937-0.6876 0.44-0.428 0.943-0.8145 1.5-1.0937 0.2786-0.1396 0.5735-0.2469 0.8748-0.3437-0.256 0.1002-0.4865 0.2362-0.7185 0.375-0.00741 0.0044-0.023866-0.0045-0.03125 0-0.031933 0.0193-0.062293 0.04251-0.09375 0.0625-0.1204 0.0767-0.23102 0.16351-0.34375 0.25-0.10617 0.0808-0.21328 0.16111-0.3125 0.25-0.1779 0.1614-0.3474 0.3453-0.5 0.5312-0.1075 0.1303-0.2183 0.2653-0.3124 0.4063-0.0251 0.0383-0.0385 0.0858-0.0626 0.125-0.0647 0.103-0.1302 0.2045-0.1874 0.3124-0.1011 0.1948-0.2057 0.4158-0.2813 0.625-0.008 0.0219-0.0236 0.0406-0.0313 0.0626-0.0318 0.0919-0.0358 0.1868-0.0624 0.2812-0.0304 0.1066-0.0704 0.203-0.0938 0.3125-0.0729 0.3415-0.125 0.6985-0.125 1.0625v2 68 2c0 2.7818 2.2182 5 5 5h2 68 2c2.7818 0 5-2.2182 5-5v-2-68-2c0-0.364-0.052-0.721-0.125-1.0625-0.044-0.2069-0.088-0.3977-0.156-0.5937-0.008-0.022-0.024-0.0407-0.031-0.0626-0.063-0.1737-0.139-0.3674-0.219-0.5312-0.042-0.0828-0.079-0.17-0.125-0.25-0.055-0.0972-0.127-0.1884-0.188-0.2812-0.094-0.141-0.205-0.276-0.312-0.4063-0.143-0.1745-0.303-0.347-0.469-0.5-0.011-0.0102-0.02-0.0211-0.031-0.0313-0.139-0.1255-0.285-0.2344-0.438-0.3437-0.102-0.0731-0.204-0.1534-0.312-0.2187-0.0074-0.0045-0.02384 0.0044-0.03125 0-0.23204-0.13873-0.46255-0.27478-0.71875-0.375 0.30153 0.0968 0.59646 0.20414 0.875 0.34375 0.55709 0.27922 1.0601 0.66569 1.5 1.0938 0.21997 0.21403 0.40937 0.44186 0.59375 0.6875s0.35541 0.50774 0.5 0.78125c0.14012 0.26505 0.27614 0.52473 0.375 0.8125 0.01041 0.03078 0.02133 0.06274 0.03125 0.09375 0.09046 0.27808 0.1388 0.5794 0.1875 0.875 0.053 0.318 0.094 0.634 0.094 0.969v2 68 2c0 3.324-2.676 6-6 6h-72z"/>
    </g>
   </g>
   <g id="layer3">
    <g id="g4127" clip-path="url(#clipPath4165-0)">
     <path id="path3620" d="m31.25 22.607a8.0357 8.0357 0 1 1 -16.071 0 8.0357 8.0357 0 1 1 16.071 0z" style="fill:url(#radialGradient4393-7)" transform="translate(2)"/>
     <path id="path3622" d="m46.786 28.679a4.1071 4.1071 0 1 1 -8.2143 0 4.1071 4.1071 0 1 1 8.2143 0z" style="fill:url(#radialGradient4045-1)"/>
     <path id="path3624" d="m55.179 23.5a2.1429 2.1429 0 1 1 -4.2857 0 2.1429 2.1429 0 1 1 4.2857 0z" style="fill:url(#radialGradient4047-3)"/>
     <path id="path3626" d="m67.321 35.821a5.3571 5.3571 0 1 1 -10.714 0 5.3571 5.3571 0 1 1 10.714 0z" style="fill:url(#radialGradient4908)"/>
     <path id="path3628" d="m36.25 59.75a6.6071 6.6071 0 1 1 -13.214 0 6.6071 6.6071 0 1 1 13.214 0z" style="fill:url(#radialGradient4051-9)"/>
     <path id="path3630" d="m72.679 67.964a8.2143 8.2143 0 1 1 -16.429 0 8.2143 8.2143 0 1 1 16.429 0z" style="fill:url(#radialGradient4910)" transform="matrix(1.1739 0 0 1.1739 -12.64 -13.248)"/>
     <path id="path3632" d="m51.429 55.286a3.3929 3.3929 0 1 1 -6.7857 0 3.3929 3.3929 0 1 1 6.7857 0z" style="fill:url(#radialGradient4055-2)"/>
     <path id="path3634" d="m18.929 74.036a7.8571 7.8571 0 1 1 -15.714 0 7.8571 7.8571 0 1 1 15.714 0z" style="fill:url(#radialGradient4125-0)" transform="translate(-1)"/>
     <path id="path3636" d="m37.5 85.643a4.1071 4.1071 0 1 1 -8.2143 0 4.1071 4.1071 0 1 1 8.2143 0z" style="fill:url(#radialGradient4059-9)" transform="translate(-1.4286 -2.1429)"/>
     <path id="path3638" d="m55.714 85.107a5.3571 5.3571 0 1 1 -10.714 0 5.3571 5.3571 0 1 1 10.714 0z" style="fill:url(#radialGradient4061-2)" transform="translate(1.4286 3.0357)"/>
     <path id="path3640" d="m76.429 12.786a3.5714 3.5714 0 1 1 -7.1429 0 3.5714 3.5714 0 1 1 7.1429 0z" style="fill:url(#radialGradient4063-1)"/>
     <path id="path3642" d="m88.929 22.071a9.2857 9.2857 0 1 1 -18.571 0 9.2857 9.2857 0 1 1 18.571 0z" style="fill:url(#radialGradient4065-1)" transform="translate(3.5714 6.6071)"/>
     <rect id="rect3644" style="fill:url(#radialGradient4105-5)" rx="6" ry="4.2857" height="4.2857" width="4.2857" y="76.536" x="75.714"/>
     <rect id="rect3646" style="fill:url(#radialGradient4102-9)" rx="6" ry="4.2857" height="9.6429" width="9.6429" y="63.143" x="77.143"/>
     <path id="path3648" d="m15.357 33.143a3.2143 3.2143 0 1 1 -6.4286 0 3.2143 3.2143 0 1 1 6.4286 0z" style="fill:url(#radialGradient4121-9)" transform="translate(2)"/>
     <path id="path3650" d="m40 3.1429a6.0714 6.0714 0 1 1 -12.143 0 6.0714 6.0714 0 1 1 12.143 0z" style="fill:url(#radialGradient4073-3)"/>
     <path id="path3652" d="m8.3929 15.107a7.1429 6.9643 0 1 1 -14.286 0 7.1429 6.9643 0 1 1 14.286 0z" style="fill:url(#radialGradient4119-4)" transform="translate(2 3.3929)"/>
     <path id="path3656" d="m62.5 6.9821a2.7679 2.7679 0 1 1 -5.5357 0 2.7679 2.7679 0 1 1 5.5357 0z" style="fill:url(#radialGradient4077-3)" transform="translate(5 -.71429)"/>
     <path id="path3989" d="m27.875 3.7812c-0.0076 0.12411-0.03125 0.24905-0.03125 0.375 0 3.3532 2.7406 6.0625 6.0938 6.0625s6.0625-2.7093 6.0625-6.0625c0-0.12595-0.02371-0.25089-0.03125-0.375-0.30994 3.0606-2.8877 5.4375-6.0312 5.4375-3.1436 0-5.7491-2.3769-6.0625-5.4375z" style="opacity:.5;fill:#fff"/>
     <path id="path3987" d="m62.031 6.8438c-0.0224 0.14297-0.0625 0.28836-0.0625 0.4375 0 1.5286 1.2214 2.75 2.75 2.75s2.7812-1.2214 2.7812-2.75c0-0.14914-0.03956-0.29453-0.0625-0.4375-0.26066 1.2578-1.3812 2.1875-2.7188 2.1875s-2.4328-0.92965-2.6875-2.1875z" style="opacity:.5;fill:#fff"/>
     <path id="path3985" d="m69.312 13.281c-0.02316 0.16461-0.03125 0.32884-0.03125 0.5 0 1.9724 1.5901 3.5625 3.5625 3.5625s3.5938-1.5901 3.5938-3.5625c0-0.17116-0.0077-0.33539-0.03125-0.5-0.24822 1.7324-1.7612 3.0625-3.5625 3.0625s-3.2876-1.3301-3.5312-3.0625z" style="opacity:.5;fill:#fff"/>
     <path id="path3983" d="m-3.875 19c-0.011957 0.16443-0.03125 0.33263-0.03125 0.5 0 3.8463 3.2114 6.9688 7.1562 6.9688 3.9449 0 7.1562-3.1225 7.1562-6.9688 0-0.16737-0.01929-0.33557-0.03125-0.5-0.26283 3.6143-3.3518 6.4688-7.125 6.4688s-6.8622-2.8544-7.125-6.4688z" style="opacity:.5;fill:#fff"/>
     <path id="path3981" d="m17.219 23.094c-0.01049 0.16819-0.03125 0.32915-0.03125 0.5 0 4.438 3.5932 8.0625 8.0312 8.0625s8.0312-3.6245 8.0312-8.0625c0-0.17085-0.02076-0.33181-0.03125-0.5-0.26209 4.2029-3.7328 7.5625-8 7.5625s-7.7379-3.3596-8-7.5625z" style="opacity:.5;fill:#fff"/>
     <path id="path3979" d="m50.969 24c-0.03759 0.16069-0.0625 0.32808-0.0625 0.5 0 1.1835 0.94153 2.1562 2.125 2.1562s2.1562-0.97278 2.1562-2.1562c0-0.17192-0.02378-0.33931-0.0625-0.5-0.22783 0.94548-1.0822 1.6562-2.0938 1.6562-1.0115 0-1.8413-0.71077-2.0625-1.6562z" style="opacity:.5;fill:#fff"/>
     <path id="path3977" d="m38.625 29.188c-0.01985 0.16316-0.0625 0.33172-0.0625 0.5 0 2.2683 1.8567 4.0938 4.125 4.0938s4.0938-1.8254 4.0938-4.0938c0-0.16828-0.04297-0.33684-0.0625-0.5-0.25193 2.0231-1.9376 3.5938-4.0312 3.5938s-3.8065-1.5706-4.0625-3.5938z" style="opacity:.5;fill:#fff"/>
     <path id="path3975" d="m73.969 29.188c-0.0091 0.16861-0.03125 0.3291-0.03125 0.5 0 5.1284 4.1529 9.2812 9.2812 9.2812 5.1284 0 9.2812-4.1529 9.2812-9.2812 0-0.1709-0.02214-0.33139-0.03125-0.5-0.26415 4.8912-4.2925 8.7812-9.25 8.7812s-8.9859-3.89-9.25-8.7812z" style="opacity:.5;fill:#fff"/>
     <path id="path3973" d="m11 33.656c-0.02537 0.16252-0.0625 0.33046-0.0625 0.5 0 1.7752 1.4435 3.1875 3.2188 3.1875 1.7752 0 3.1875-1.4123 3.1875-3.1875 0-0.16954-0.03765-0.33748-0.0625-0.5-0.23534 1.5343-1.5193 2.6875-3.125 2.6875s-2.916-1.1532-3.1562-2.6875z" style="opacity:.5;fill:#fff"/>
     <path id="path3971" d="m56.625 36.375c-0.01122 0.14103-0.03125 0.29355-0.03125 0.4375 0 2.9587 2.4163 5.375 5.375 5.375s5.3438-2.4163 5.3438-5.375c0-0.14395-0.02017-0.29647-0.03125-0.4375-0.27287 2.7033-2.5387 4.8125-5.3125 4.8125s-5.0674-2.1092-5.3438-4.8125z" style="opacity:.5;fill:#fff"/>
     <path id="path3969" d="m44.688 55.781c-0.02385 0.16294-0.03125 0.33009-0.03125 0.5 0 1.8738 1.5012 3.4062 3.375 3.4062s3.4062-1.5324 3.4062-3.4062c0-0.16991-0.0069-0.33706-0.03125-0.5-0.2438 1.6387-1.6711 2.9062-3.375 2.9062s-3.1046-1.2675-3.3438-2.9062z" style="opacity:.5;fill:#fff"/>
     <path id="path3967" d="m23.062 60.25c-0.0121 0.16287-0.03125 0.33401-0.03125 0.5 0 3.649 2.976 6.5938 6.625 6.5938s6.5938-2.9447 6.5938-6.5938c0-0.16599-0.01927-0.33713-0.03125-0.5-0.2513 3.4174-3.0795 6.0938-6.5625 6.0938s-6.3399-2.6763-6.5938-6.0938z" style="opacity:.5;fill:#fff"/>
     <path id="path3963" d="m77.156 68.5v1c0 2.3743 2.1414 4.2812 4.8125 4.2812s4.8125-1.907 4.8125-4.2812v-1c0 2.3743-2.1414 4.2812-4.8125 4.2812s-4.8125-1.907-4.8125-4.2812z" style="opacity:.5;fill:#fff"/>
     <path id="path3961" d="m2.25 74.531c-0.010235 0.16443-0.03125 0.33295-0.03125 0.5 0 4.3394 3.5044 7.875 7.8438 7.875s7.875-3.5356 7.875-7.875c0-0.16705-0.02093-0.33557-0.03125-0.5-0.25785 4.1089-3.6714 7.375-7.8438 7.375-4.1723 0-7.5569-3.2661-7.8125-7.375z" style="opacity:.5;fill:#fff"/>
     <path id="path3959" d="m75.781 79.188c-0.03747 0.16095-0.0625 0.32754-0.0625 0.5 0 1.1871 0.93786 2.125 2.125 2.125s2.1562-0.93786 2.1562-2.125c0-0.17246-0.0239-0.33905-0.0625-0.5-0.22711 0.94036-1.0791 1.625-2.0938 1.625s-1.842-0.68464-2.0625-1.625z" style="opacity:.5;fill:#fff"/>
     <path id="path3957" d="m27.906 84c-0.02136 0.16879-0.0625 0.32532-0.0625 0.5 0 2.2683 1.8567 4.0938 4.125 4.0938s4.0938-1.8254 4.0938-4.0938c0-0.17468-0.04148-0.33121-0.0625-0.5-0.25193 2.0231-1.9376 3.5938-4.0312 3.5938s-3.8065-1.5706-4.0625-3.5938z" style="opacity:.5;fill:#fff"/>
     <path id="path3658" d="m46.469 88.719c-0.01108 0.14117-0.03125 0.29355-0.03125 0.4375 0 2.9587 2.3851 5.3438 5.3438 5.3438s5.375-2.3851 5.375-5.3438c0-0.14395-0.02003-0.29633-0.03125-0.4375-0.2763 2.6999-2.57 4.7812-5.3438 4.7812s-5.0396-2.0814-5.3125-4.7812z" style="opacity:.5;fill:#fff"/>
     <path id="path3991" d="m53.438 67.031c-0.0089 0.16975-0.03125 0.32804-0.03125 0.5 0 5.3256 4.2994 9.6562 9.625 9.6562s9.6562-4.3306 9.6562-9.6562c0-0.17177-0.02238-0.33044-0.03125-0.5-0.25827 5.095-4.4658 9.1562-9.625 9.1562-5.159 0-9.3352-4.0615-9.5938-9.1562z" style="opacity:.5;fill:#fff"/>
    </g>
   </g>
  </g>
  <rect id="rect3003" style="opacity:.15;fill:#fff" transform="translate(98 3.8281e-7)" clip-path="url(#clipPath3009)" rx="25" ry="25" height="92" width="92" y="958.36" x="-96"/>
 </g>
</svg>
