<?xml version="1.0" encoding="UTF-8" standalone="no"?>
<!-- Created with Inkscape (http://www.inkscape.org/) -->
<svg id="svg11037" xmlns:rdf="http://www.w3.org/1999/02/22-rdf-syntax-ns#" xmlns="http://www.w3.org/2000/svg" height="96" width="96" version="1.1" xmlns:cc="http://creativecommons.org/ns#" xmlns:xlink="http://www.w3.org/1999/xlink" xmlns:dc="http://purl.org/dc/elements/1.1/">
 <defs id="defs11039">
  <linearGradient id="linearGradient11642" y2="1046.1" gradientUnits="userSpaceOnUse" y1="962.62" gradientTransform="matrix(1.15 0 0 1.15 -7.1999 -150.65)" x2="48" x1="48">
   <stop id="stop3702-5" style="stop-color:#cacaca" offset="0"/>
   <stop id="stop3704-86" style="stop-color:#fcfcfc" offset="1"/>
  </linearGradient>
  <radialGradient id="radialGradient3173" xlink:href="#linearGradient3829-1" gradientUnits="userSpaceOnUse" cy="34.401" cx="128" gradientTransform="matrix(1.3743,3.9449e-7,-4.0227e-7,1.3618,-142.9,-2.3333)" r="16"/>
  <linearGradient id="linearGradient3829-1">
   <stop id="stop3831-2" style="stop-color:#eaeb54" offset="0"/>
   <stop id="stop3833-4" style="stop-color:#92a10a" offset="1"/>
  </linearGradient>
  <radialGradient id="radialGradient3170" xlink:href="#linearGradient3900" gradientUnits="userSpaceOnUse" cy="63" cx="41" gradientTransform="translate(-8,-29)" r="17"/>
  <linearGradient id="linearGradient3900">
   <stop id="stop3902" style="stop-color:#66711a;stop-opacity:0" offset="0"/>
   <stop id="stop3908" style="stop-color:#5e6818;stop-opacity:0" offset=".88235"/>
   <stop id="stop3904" style="stop-color:#3c430f" offset="1"/>
  </linearGradient>
  <linearGradient id="linearGradient3167" x1="130.58" xlink:href="#linearGradient3914-5" gradientUnits="userSpaceOnUse" y1="7.3501" gradientTransform="matrix(.74672 0 0 .5 -62.58 14)" x2="130.58" y2="45.108"/>
  <linearGradient id="linearGradient3914-5">
   <stop id="stop3916-3" style="stop-color:#fff" offset="0"/>
   <stop id="stop3918-8" style="stop-color:#fff;stop-opacity:0" offset="1"/>
  </linearGradient>
  <linearGradient id="linearGradient3164" x1="45.147" xlink:href="#linearGradient3914-5" gradientUnits="userSpaceOnUse" y1="78.159" gradientTransform="translate(-8,-29)" x2="45.147" y2="65.369"/>
  <radialGradient id="radialGradient3125" gradientUnits="userSpaceOnUse" cy="34.401" cx="128" gradientTransform="matrix(1.3743,3.9449e-7,-4.0227e-7,1.3618,-112.9,5.6667)" r="16">
   <stop id="stop3993-8" style="stop-color:#787878" offset="0"/>
   <stop id="stop3995-9" style="stop-color:#141414" offset="1"/>
  </radialGradient>
  <radialGradient id="radialGradient3122" gradientUnits="userSpaceOnUse" cy="63" cx="41" gradientTransform="translate(22,-21)" r="17">
   <stop id="stop4027" style="stop-color:#464646;stop-opacity:0" offset="0"/>
   <stop id="stop4029" style="stop-color:#404040;stop-opacity:0" offset=".88235"/>
   <stop id="stop4031" style="stop-color:#141414" offset="1"/>
  </radialGradient>
  <linearGradient id="linearGradient3119" x1="130.58" xlink:href="#linearGradient3914-5" gradientUnits="userSpaceOnUse" y1="7.3501" gradientTransform="matrix(.74672 0 0 .5 -32.58 22)" x2="130.58" y2="45.108"/>
  <linearGradient id="linearGradient3116" x1="45.147" xlink:href="#linearGradient3914-5" gradientUnits="userSpaceOnUse" y1="78.159" gradientTransform="translate(22,-21)" x2="45.147" y2="65.369"/>
  <radialGradient id="radialGradient3149" xlink:href="#linearGradient3829-1" gradientUnits="userSpaceOnUse" cy="34.401" cx="128" gradientTransform="matrix(1.3743,3.9449e-7,-4.0227e-7,1.3618,-134.9,27.667)" r="16"/>
  <radialGradient id="radialGradient3146" xlink:href="#linearGradient3900" gradientUnits="userSpaceOnUse" cy="63" cx="41" gradientTransform="translate(0,1)" r="17"/>
  <linearGradient id="linearGradient3143-8" x1="130.58" xlink:href="#linearGradient3914-5" gradientUnits="userSpaceOnUse" y1="7.3501" gradientTransform="matrix(.74672 0 0 .5 -54.58 44)" x2="130.58" y2="45.108"/>
  <linearGradient id="linearGradient3152" y2="65.369" xlink:href="#linearGradient3914-5" gradientUnits="userSpaceOnUse" y1="78.159" gradientTransform="translate(0,1)" x2="45.147" x1="45.147"/>
  <clipPath id="clipPath3009" clipPathUnits="userSpaceOnUse">
   <path id="path3011" style="opacity:.15;fill:#fff" d="m-2 956.36h-96v33.562l96 25.687v-59.25z"/>
  </clipPath>
 </defs>
 <metadata id="metadata11042">
  <rdf:RDF>
   <cc:Work rdf:about="">
    <dc:format>image/svg+xml</dc:format>
    <dc:type rdf:resource="http://purl.org/dc/dcmitype/StillImage"/>
    <dc:title/>
   </cc:Work>
  </rdf:RDF>
 </metadata>
 <g id="layer1" transform="translate(0 -956.36)">
  <rect id="rect3867" style="fill:url(#linearGradient11642)" rx="25" ry="25" height="92" width="92" y="958.36" x="2"/>
  <g id="g3179" transform="matrix(.85938 0 0 .85938 6.75 962.3)">
   <path id="path3975" d="m50 34a17 17 0 0 1 -34 0 17 17 0 1 1 34 0z" style="color:#000000;fill:url(#radialGradient3173)"/>
   <path id="path3977" d="m33 17c-9.3888 0-17 7.6112-17 17s7.6112 17 17 17 17-7.6112 17-17-7.6112-17-17-17zm0 2c8.2843 0 15 6.7157 15 15s-6.7157 15-15 15-15-6.7157-15-15 6.7157-15 15-15z" style="color:#000000;fill:url(#radialGradient3170)"/>
   <path id="path3979" d="m44.948 26a11.948 8 0 0 1 -23.895 0 11.948 8 0 1 1 23.895 0z" style="color:#000000;fill:url(#linearGradient3167)"/>
   <path id="path3981" d="m18.031 33.5c-0.005 0.168-0.031 0.331-0.031 0.5 0 8.2843 6.7157 15 15 15s15-6.7157 15-15c0-0.16922-0.02569-0.33214-0.03125-0.5-0.267 8.05-6.854 14.5-14.969 14.5s-14.702-6.45-14.969-14.5z" style="opacity:.6;color:#000000;fill:url(#linearGradient3164)"/>
   <path id="path4009" d="m80 42a17 17 0 0 1 -34 0 17 17 0 1 1 34 0z" style="color:#000000;fill:url(#radialGradient3125)"/>
   <path id="path4011" d="m63 25c-9.3888 0-17 7.6112-17 17s7.6112 17 17 17 17-7.6112 17-17-7.6112-17-17-17zm0 2c8.2843 0 15 6.7157 15 15s-6.7157 15-15 15-15-6.7157-15-15 6.7157-15 15-15z" style="color:#000000;fill:url(#radialGradient3122)"/>
   <path id="path4013" d="m74.948 34a11.948 8 0 0 1 -23.895 0 11.948 8 0 1 1 23.895 0z" style="opacity:.9;color:#000000;fill:url(#linearGradient3119)"/>
   <path id="path4015" d="m48.031 41.5c-0.005 0.168-0.031 0.331-0.031 0.5 0 8.2843 6.7157 15 15 15s15-6.7157 15-15c0-0.16922-0.02569-0.33214-0.03125-0.5-0.267 8.05-6.854 14.5-14.969 14.5s-14.702-6.45-14.969-14.5z" style="opacity:.4;color:#000000;fill:url(#linearGradient3116)"/>
   <path id="path3825" d="m58 64a17 17 0 0 1 -34 0 17 17 0 1 1 34 0z" style="color:#000000;fill:url(#radialGradient3149)"/>
   <path id="path3837" d="m41 47c-9.3888 0-17 7.6112-17 17s7.6112 17 17 17 17-7.6112 17-17-7.6112-17-17-17zm0 2c8.2843 0 15 6.7157 15 15s-6.7157 15-15 15-15-6.7157-15-15 6.7157-15 15-15z" style="color:#000000;fill:url(#radialGradient3146)"/>
   <path id="path3910" d="m52.948 56a11.948 8 0 0 1 -23.895 0 11.948 8 0 1 1 23.895 0z" style="color:#000000;fill:url(#linearGradient3143-8)"/>
   <path id="path3926" d="m26.031 63.5c-0.005 0.168-0.031 0.331-0.031 0.5 0 8.2843 6.7157 15 15 15s15-6.7157 15-15c0-0.16922-0.02569-0.33214-0.03125-0.5-0.267 8.05-6.854 14.5-14.969 14.5s-14.702-6.45-14.969-14.5z" style="opacity:.6;color:#000000;fill:url(#linearGradient3152)"/>
  </g>
  <rect id="rect3003" style="opacity:.15;fill:#fff" transform="translate(98 3.8281e-7)" clip-path="url(#clipPath3009)" rx="25" ry="25" height="92" width="92" y="958.36" x="-96"/>
 </g>
</svg>
