<?xml version="1.0" encoding="UTF-8" standalone="no"?>
<!-- Created with Inkscape (http://www.inkscape.org/) -->
<svg id="svg11037" xmlns:rdf="http://www.w3.org/1999/02/22-rdf-syntax-ns#" xmlns="http://www.w3.org/2000/svg" height="96" width="96" version="1.1" xmlns:cc="http://creativecommons.org/ns#" xmlns:xlink="http://www.w3.org/1999/xlink" xmlns:dc="http://purl.org/dc/elements/1.1/">
 <defs id="defs11039">
  <linearGradient id="linearGradient5869" x1="47.917" gradientUnits="userSpaceOnUse" y1="33.305" gradientTransform="matrix(.92788 0 0 .92788 3.3213 959.3)" x2="76.624" y2="33.305">
   <stop id="stop3742-5" style="stop-color:#5cacf5" offset="0"/>
   <stop id="stop3744-3" style="stop-color:#abd4f4" offset="1"/>
  </linearGradient>
  <linearGradient id="linearGradient5871" x1="19.288" gradientUnits="userSpaceOnUse" y1="33.25" gradientTransform="matrix(.92788 0 0 .92788 3.3213 959.3)" x2="47.995" y2="33.25">
   <stop id="stop3751" style="stop-color:#5aabf2" offset="0"/>
   <stop id="stop3753-8" style="stop-color:#badaf5" offset="1"/>
  </linearGradient>
  <linearGradient id="linearGradient5873" x1="31" xlink:href="#linearGradient3707" gradientUnits="userSpaceOnUse" y1="47.979" gradientTransform="matrix(.92788 0 0 .92788 3.3213 959.3)" x2="48.035" y2="47.979"/>
  <linearGradient id="linearGradient3707">
   <stop id="stop3709" style="stop-color:#a8d4fb" offset="0"/>
   <stop id="stop3711" style="stop-color:#dff0fa" offset="1"/>
  </linearGradient>
  <linearGradient id="linearGradient5875" x1="27.395" xlink:href="#linearGradient3724-3" gradientUnits="userSpaceOnUse" y1="59.065" gradientTransform="matrix(.92788 0 0 .92788 3.3213 959.3)" x2="48.112" y2="59.065"/>
  <linearGradient id="linearGradient3724-3">
   <stop id="stop3726-1" style="stop-color:#0d82e4" offset="0"/>
   <stop id="stop3728-8" style="stop-color:#bcdbf7" offset="1"/>
  </linearGradient>
  <linearGradient id="linearGradient5877" x1="48.077" xlink:href="#linearGradient3707" gradientUnits="userSpaceOnUse" y1="47.979" gradientTransform="matrix(.92788 0 0 .92788 3.3213 959.3)" x2="65.112" y2="47.979"/>
  <linearGradient id="linearGradient5879" x1="48" xlink:href="#linearGradient3724-3" gradientUnits="userSpaceOnUse" y1="59.065" gradientTransform="matrix(.92788 0 0 .92788 3.3213 959.3)" x2="69.018" y2="59.065"/>
  <linearGradient id="linearGradient5881" x1="47.917" xlink:href="#linearGradient3757" gradientUnits="userSpaceOnUse" y1="53.65" gradientTransform="matrix(.92788 0 0 .92788 3.3213 959.3)" x2="76.734" y2="53.65"/>
  <linearGradient id="linearGradient3757">
   <stop id="stop3759" style="stop-color:#389bed" offset="0"/>
   <stop id="stop3761" style="stop-color:#c2e5fc" offset="1"/>
  </linearGradient>
  <linearGradient id="linearGradient5883" x1="19.069" xlink:href="#linearGradient3757" gradientUnits="userSpaceOnUse" y1="53.65" gradientTransform="matrix(.92788 0 0 .92788 3.3213 959.3)" x2="47.886" y2="53.65"/>
  <linearGradient id="linearGradient5885" x1="31.085" gradientUnits="userSpaceOnUse" y1="59.065" gradientTransform="matrix(.92788 0 0 .92788 3.3213 959.3)" x2="48.112" y2="59.065">
   <stop id="stop3786" style="stop-color:#1b8cee" offset="0"/>
   <stop id="stop3788-8" style="stop-color:#79b8e8" offset="1"/>
  </linearGradient>
  <linearGradient id="linearGradient3118" y2="59.065" gradientUnits="userSpaceOnUse" y1="59.065" gradientTransform="matrix(.92788 0 0 .92788 3.3213 959.3)" x2="69.018" x1="48">
   <stop id="stop3803-9" style="stop-color:#107cd9" offset="0"/>
   <stop id="stop3805-7" style="stop-color:#79b8e8" offset="1"/>
  </linearGradient>
  <clipPath id="clipPath3009" clipPathUnits="userSpaceOnUse">
   <path id="path3011" style="opacity:.15;fill:#fff" d="m-2 956.36h-96v33.562l96 25.687v-59.25z"/>
  </clipPath>
 </defs>
 <metadata id="metadata11042">
  <rdf:RDF>
   <cc:Work rdf:about="">
    <dc:format>image/svg+xml</dc:format>
    <dc:type rdf:resource="http://purl.org/dc/dcmitype/StillImage"/>
    <dc:title/>
   </cc:Work>
  </rdf:RDF>
 </metadata>
 <g id="layer1" transform="translate(0 -956.36)">
  <rect id="rect3867" style="fill:#0084c8" rx="25" ry="25" height="92" width="92" y="958.36" x="2"/>
  <g id="g5854" transform="matrix(1.1855 0 0 1.1855 -8.614 -186.16)">
   <path id="path2919" style="color:#000000;fill:#0b5a9a" d="m37.102 980.03c-0.03022 0.007 0.000777 0.0204-0.029 0.029-0.02978 0.009-0.02877-0.0103-0.05799 0s-0.000424 0.017-0.029 0.029c-0.02857 0.012-0.0012-0.0136-0.029 0-0.02783 0.0136-0.002 0.0138-0.029 0.029-0.02698 0.0152-0.003-0.0168-0.029 0a0.46393 0.46393 0 0 1 -0.029 0.029l-16.006 9.7428c-0.02678 0.0163-0.0032-0.0179-0.029 0-0.02577 0.0179-0.0044 0.01-0.029 0.029-0.02466 0.0194-0.0055 0.008-0.029 0.029-0.02348 0.0208-0.0068 0.007-0.029 0.029-0.02221 0.0222-0.0082 0.006-0.029 0.029-0.02087 0.0234-0.0095 0.004-0.029 0.029-0.01946 0.0246-0.01102 0.003-0.029 0.029-0.01797 0.0257 0.01642 0.002 0 0.029-0.01642 0.0267-0.01418 0.001-0.029 0.029-0.01482 0.0276-0.01583 0.0295-0.029 0.058s0.01146-0.0002 0 0.029-0.01927-0.00083-0.029 0.029c-0.0097 0.0298 0.008-0.001 0 0.029-0.008 0.0303 0.0061 0.0272 0 0.058s0.0044-0.002 0 0.029c-0.0044 0.0311-0.02652-0.002-0.029 0.029-0.0025 0.0313 0.000634 0.0266 0 0.058s-0.0012-0.002 0 0.029c0.0012 0.0313-0.0031 0.0268 0 0.058s0.0241-0.002 0.029 0.029-0.0067-0.002 0 0.029c0.0067 0.0306-0.0085 0.0278 0 0.058s0.01872-0.00064 0.029 0.029c0.01027 0.0296-0.012 0.00002 0 0.029 0.012 0.029 0.01531 0.00077 0.029 0.029 0.01369 0.0282-0.01533 0.0306 0 0.058s0.01208 0.003 0.029 0.029c0.01692 0.0264 0.01055 0.004 0.029 0.029 0.01845 0.0254 0.0091 0.005 0.029 0.029 0.0199 0.0242-0.0213 0.006 0 0.029s0.0064 0.007 0.029 0.029c0.02262 0.0217 0.0051 0.009 0.029 0.029l9.7428 8.235a0.46393 0.46393 0 0 1 0 0.69592l-9.9163 7.9742c-0.02437 0.02-0.0058 0.01-0.029 0.029-0.02318 0.021-0.0071 0.01-0.029 0.029-0.0219 0.022-0.0084 0.01-0.029 0.029-0.02055 0.024-0.0099 0-0.029 0.029-0.01912 0.025-0.01136 0-0.029 0.029-0.01764 0.026 0.01609 0.031 0 0.058s-0.0145 0-0.029 0.029c-0.01449 0.028-0.01616 0.0005-0.029 0.029-0.01283 0.029 0.01113-0.0002 0 0.029-0.01113 0.029-0.0196-0.0008-0.029 0.029-0.0094 0.03 0.0076 0.028 0 0.058s0.0058 0 0 0.029c-0.0058 0.031 0.004 0 0 0.029-0.004 0.031-0.02681 0.027-0.029 0.058-0.0022 0.031 0.000351 0 0 0.029-0.000351 0.031-0.0015 0.027 0 0.058s0.02567 0 0.029 0.029c0.0033 0.031-0.0051 0 0 0.029 0.0051 0.031-0.007 0.027 0 0.058 0.007 0.03-0.0087 0 0 0.029 0.0087 0.03 0.01852-0.0005 0.029 0.029 0.01048 0.029-0.01219 0.0002 0 0.029 0.01219 0.029 0.01513 0.03 0.029 0.058 0.01386 0.028-0.01549 0 0 0.029 0.01549 0.027 0.01194 0 0.029 0.029 0.01705 0.026 0.01043 0 0.029 0.029 0.01857 0.025 0.009 0 0.029 0.029 0.02001 0.024 0.0076 0.01 0.029 0.029 0.0214 0.023 0.0063 0.01 0.029 0.029 0.0227 0.022 0.0051 0.01 0.029 0.029 0.02392 0.02 0.0039 0.01 0.029 0.029 0.01254 0.01 0.02736 0 0.029 0l10.583 6.7272a0.46393 0.46393 0 0 1 0.20298 0.4059l-0.029 1.2759a0.46393 0.46393 0 0 1 -0.02969 0.1735c-0.0086 0.021-0.0213 0.01-0.029 0.029-0.0077 0.021 0.0068 0.01 0 0.029-0.0068 0.021 0.0058 0.01 0 0.029-0.0058 0.022 0.0049 0.01 0 0.029-0.0049 0.022-0.02501 0.01-0.029 0.029-0.004 0.022 0.0031 0.01 0 0.029-0.0031 0.022 0.0021 0.01 0 0.029-0.0021 0.023 0.0011 0.01 0 0.029-0.0011 0.023 0.000175 0.01 0 0.029-0.000174 0.023-0.000784 0.01 0 0.029 0.000784 0.023-0.0018 0.01 0 0.029 0.0018 0.023-0.0027 0.01 0 0.029 0.0027 0.022-0.0036 0.01 0 0.029 0.0036 0.022 0.02441 0.01 0.029 0.029 0.0056 0.022-0.0064 0.01 0 0.029 0.0064 0.022-0.0073 0.01 0 0.029 0.0073 0.021 0.02074 0.01 0.029 0.029 0.0083 0.021-0.0092 0.01 0 0.029 0.0092 0.021-0.01001 0.01 0 0.029 0.01001 0.02 0.01813 0.01 0.029 0.029 0.01087 0.02-0.01169 0.01 0 0.029s0.0165 0.01 0.029 0.029c0.01329 0.018 0.01494 0.011 0.029 0.029s0.01421 0.012 0.029 0.029-0.0155 0.013 0 0.029c0.01551 0.016 0.01282-0.016 0.029 0s0.01215 0.014 0.029 0.029c0.01684 0.015-0.01746 0.015 0 0.029s0.01094-0.014 0.029 0 0.01038 0.016 0.029 0.029l15.832 11.135c0.01669 0.012 0.01187-0.011 0.029 0s0.01145 0.019 0.029 0.029c0.01794 0.01 0.0107 0.02 0.029 0.029 0.0183 0.01 0.01037-0.01 0.029 0s0.01006-0.01 0.029 0 0.0098 0.022 0.029 0.029c0.01922 0.01 0.0095-0.01 0.029 0 0.01969 0.01 0.0091 0.024 0.029 0.029h0.116c0.02037 0 0.0086-0.0008 0.029 0 0.02041 0.0008 0.0085 0 0.029 0 0.02041-0.0008 0.0086 0 0.029 0h0.116c0.01988 0 0.0093-0.024 0.029-0.029 0.01947-0.01 0.0098 0.01 0.029 0 0.01922-0.01 0.01006-0.021 0.029-0.029 0.01894-0.01 0.01036 0.01 0.029 0 0.01863-0.01 0.0107 0.01 0.029 0s0.01106-0.019 0.029-0.029c0.01755-0.01 0.01187-0.018 0.029-0.029s0.0123 0.012 0.029 0l9.83-6.9591a0.46393 0.46393 0 0 1 0.029 0 0.46393 0.46393 0 0 1 0.05799 -0.058 0.46393 0.46393 0 0 1 0.029 0l0.05799-0.029 5.7122-4.0015a0.46393 0.46393 0 0 1 0.02876 -0.028c0.02105-0.013 0.0085 0.014 0.029 0 0.02045-0.014 0.0092-0.014 0.029-0.029a0.46393 0.46393 0 0 1 0.02876 -0.03c0.01697-0.01 0.01239 0.01 0.029 0 0.0083-0.01 0.02795 0.0006 0.029 0 0.001-0.0007-0.0081-0.024 0-0.029 0.01581-0.011 0.01361-0.017 0.029-0.029a0.46393 0.46393 0 0 1 0.05753 -0.058 0.46393 0.46393 0 0 1 0.02876 -0.029c0.01714-0.018-0.0163-0.011 0-0.029s0.01357-0.01 0.029-0.029 0.01447-0.01 0.029-0.029c0.01359-0.02 0.01637-0.01 0.029-0.029 0.01263-0.021-0.01164-0.01 0-0.029 0.01164-0.022 0.01837-0.01 0.029-0.029 0.01062-0.022-0.0096-0.01 0-0.029 0.0096-0.023 0.02047-0.01 0.029-0.029 0.0085-0.023-0.0074-0.01 0-0.029 0.0074-0.023-0.0064-0.01 0-0.029 0.0064-0.024-0.0053 0 0-0.029 0.0053-0.024 0.02486 0 0.029-0.029 0.0042-0.024-0.003 0 0-0.029 0.003-0.024-0.0019 0 0-0.029 0.0019-0.024-0.000741 0 0-0.029l-0.02969-1.8845a0.46393 0.46393 0 0 1 0.20298 -0.4059l10.265-6.5249c0.0017 0 0.01646 0.01 0.029 0 0.02506-0.019 0.0051-0.01 0.029-0.029 0.02392-0.02 0.0063-0.01 0.029-0.029 0.0227-0.021 0.0076-0.01 0.029-0.029 0.0214-0.023 0.009 0 0.029-0.029 0.02001-0.024 0.01043 0 0.029-0.029 0.01857-0.025 0.01194 0 0.029-0.029 0.01705-0.026 0.01351 0 0.029-0.029 0.01549-0.027-0.01386-0.0009 0-0.029 0.01386-0.028 0.0168-0.029 0.029-0.058 0.01219-0.029-0.01048 0.0005 0-0.029 0.01048-0.029 0.02026 0 0.029-0.029 0.0087-0.03-0.007 0 0-0.029 0.007-0.03-0.0051-0.027 0-0.058s-0.0033 0 0-0.029c0.0033-0.031 0.02751 0 0.029-0.029 0.0015-0.031 0.000351-0.027 0-0.058s0.0022 0 0-0.029c-0.0022-0.031-0.02498-0.027-0.029-0.058-0.004-0.031 0.0058 0 0-0.029-0.0058-0.031 0.0076 0 0-0.029-0.0076-0.03 0.0094-0.028 0-0.058s-0.01786 0.0002-0.029-0.029c-0.01113-0.029 0.01283-0.0005 0-0.029-0.01283-0.029-0.01451 0-0.029-0.029-0.01448-0.028-0.01291 0-0.029-0.029-0.01609-0.027 0.01764-0.032 0-0.058s-0.0099 0-0.029-0.029c-0.01913-0.025-0.0084-0.01-0.029-0.029-0.02055-0.024-0.0071-0.01-0.029-0.029-0.0219-0.022-0.0058-0.01-0.029-0.029-0.02317-0.021-0.0046-0.01-0.029-0.029l-9.8003-7.887a0.46393 0.46393 0 0 1 0 -0.69591l9.7428-8.293c0.02387-0.0204 0.0064-0.007 0.029-0.029 0.02262-0.0217 0.0077-0.006 0.029-0.029s-0.0199-0.005 0-0.029c0.0199-0.0242 0.01055-0.004 0.029-0.029 0.01845-0.0254 0.01208-0.003 0.029-0.029 0.01692-0.0264 0.01367-0.002 0.029-0.029 0.01533-0.0274-0.01369-0.0298 0-0.058s0.017-0.00002 0.029-0.029c0.012-0.029-0.01027 0.00064 0-0.029 0.01027-0.0296 0.02049 0.001 0.029-0.029 0.0085-0.0302-0.0067-0.0274 0-0.058s-0.0049 0.002 0-0.029 0.02594 0.002 0.029-0.029c0.0031-0.0312-0.0012-0.0267 0-0.058s0.000634 0.002 0-0.029c-0.000634-0.0314 0.0025-0.0267 0-0.058s-0.02467 0.002-0.029-0.029c-0.0044-0.0311 0.0061 0.002 0-0.029-0.0061-0.0308 0.008-0.0277 0-0.058s0.0097 0.00083 0-0.029c-0.0097-0.0298-0.01754 0.0002-0.029-0.029s0.01317-0.00053 0-0.029c-0.01317-0.0285-0.01418-0.0303-0.029-0.058-0.01482-0.0276-0.01257-0.002-0.029-0.029-0.01642-0.0267 0.01797-0.003 0-0.029-0.01797-0.0257-0.0095-0.004-0.029-0.029-0.01946-0.0246-0.0082-0.006-0.029-0.029-0.02087-0.0234-0.0068-0.007-0.029-0.029-0.02221-0.0222-0.0055-0.008-0.029-0.029-0.02349-0.0208-0.0044-0.01-0.029-0.029-0.02466-0.0194-0.0032-0.0111-0.029-0.029-0.02577-0.0179-0.0022 0.0163-0.029 0l-16.006-9.714c-0.01746-0.0107-0.01113-0.019-0.029-0.029-0.01786-0.01-0.01076 0.009-0.029 0-0.01823-0.009-0.01042-0.0204-0.029-0.029-0.01858-0.009-0.0101 0.008-0.029 0-0.01919-0.007-0.0095-0.0226-0.029-0.029-0.01945-0.006-0.0093 0.006-0.029 0-0.01968-0.006-0.0091 0.005-0.029 0-0.01988-0.005-0.0089 0.004-0.029 0-0.02006-0.004-0.0088 0.003-0.029 0s0.02031-0.0264 0-0.029c-0.02031-0.003-0.0086 0.002-0.029 0s-0.0085 0.001-0.029 0c-0.02045-0.001-0.0085 0.00021-0.029 0-0.02048-0.00021-0.0085-0.00057-0.029 0-0.02047 0.00057-0.0085-0.001-0.029 0-0.02043 0.001-0.0086-0.002-0.029 0-0.02037 0.002-0.0087-0.003-0.029 0-0.02027 0.003-0.0088 0.0253-0.029 0.029-0.01998 0.004-0.0092-0.005-0.029 0-0.01979 0.005-0.0094-0.006-0.029 0-0.01958 0.006-0.0097 0.0222-0.029 0.029-0.01933 0.007-0.0099-0.008-0.029 0-0.01906 0.008-0.01024-0.008-0.029 0-0.01875 0.008 0.01843 0.0201 0 0.029-0.01843 0.009-0.01093-0.01-0.029 0s-0.01131-0.0103-0.029 0-0.01173 0.018-0.029 0.029c-0.01683 0.0117-0.01262 0.0167-0.029 0.029s-0.01311-0.0129-0.029 0l-9.83 8.467a0.46393 0.46393 0 0 1 -0.57993 0l-9.9163-8.5245c-0.01969-0.0165-0.0085 0.0155-0.029 0-0.02046-0.0155-0.0078-0.0145-0.029-0.029-0.02118-0.0145-0.0071-0.0155-0.029-0.029-0.02186-0.0135-0.0065 0.0124-0.029 0-0.02249-0.0124-0.0059-0.0177-0.029-0.029-0.02306-0.0113-0.0054 0.0102-0.029 0-0.02358-0.0102-0.0049-0.02-0.029-0.029-0.02404-0.009-0.0045 0.008-0.029 0-0.02445-0.008-0.0042 0.007-0.029 0s-0.0039-0.0235-0.029-0.029c-0.0251-0.005-0.0037 0.004-0.029 0-0.02533-0.004-0.0035 0.003-0.029 0-0.02551-0.003-0.0033 0.002-0.029 0-0.02562-0.002-0.03231 0.00055-0.05799 0-0.02568-0.00054-0.0033-0.00069-0.029 0-0.0154 0.002-0.02703-0.00027-0.029 0-0.0019 0.00027-0.01371-0.003-0.029 0-0.03057 0.005 0.0012-0.007-0.029 0z"/>
   <path id="rect3683" style="color:#000000;fill:#fdfffe" d="m47.821 1006.6 15.813 11.154-15.813 11.154-15.812-11.154 15.812-11.154z"/>
   <path id="rect3688" style="color:#000000;fill:url(#linearGradient5869)" d="m58.423 980.74 15.997 9.7363-10.825 9.1833-15.812-9.7428 10.64-9.1768z"/>
   <path id="path3691" style="color:#000000;fill:url(#linearGradient5871)" d="m37.215 980.69-15.997 9.7372 10.825 9.1824 15.812-9.7428-10.64-9.1768z"/>
   <path id="path3698" style="fill:url(#linearGradient5873)" d="m32.086 1017.8 0.16012-18.329 15.647-9.5461v16.723l-15.807 11.152z"/>
   <path id="path3700" style="opacity:.6;fill:url(#linearGradient5875)" d="m47.821 1028.7 0.1429-19.379-15.79-9.8328v18.302l15.647 10.909z"/>
   <path id="path3702" style="fill:url(#linearGradient5877)" d="m63.637 1017.8-0.05846-18.329-15.698-9.5962v16.978l15.756 10.948z"/>
   <path id="path3704" style="opacity:.6;fill:url(#linearGradient5879)" d="m48.004 1028.7-0.14382-19.379 15.79-9.8328v18.302l-15.647 10.909z"/>
   <path id="rect3693" style="color:#000000;fill:url(#linearGradient5881)" d="m63.595 999.61 10.927 8.7759-15.915 10.15-10.824-9.1833 15.812-9.7427z"/>
   <path id="path3696" style="color:#000000;fill:url(#linearGradient5883)" d="m31.941 999.61-10.926 8.7759 15.914 10.15 10.825-9.1833-15.813-9.7427z"/>
   <path id="path3775" style="opacity:.2;color:#000000;fill:#fdfffe" d="m47.821 1006.6 15.813 11.154-15.813 11.154-15.812-11.154 15.812-11.154z"/>
   <path id="path3777" style="opacity:.6;fill:url(#linearGradient5885)" d="m32.173 999.75v15.745l4.7554 3.0446 10.815-9.1916-15.571-9.5981z"/>
   <path id="path3792" style="opacity:.6;fill:url(#linearGradient3118)" d="m63.605 999.6-12.034 7.4231-3.7115 2.2907v0.116l10.758 9.1049 5.0454-3.2187v-15.64l-0.058-0.06z"/>
  </g>
  <rect id="rect3003" style="opacity:.15;fill:#fff" transform="translate(98 3.8281e-7)" clip-path="url(#clipPath3009)" rx="25" ry="25" height="92" width="92" y="958.36" x="-96"/>
 </g>
</svg>
