<?xml version="1.0" encoding="UTF-8" standalone="no"?>
<!-- Created with Inkscape (http://www.inkscape.org/) -->
<svg id="svg11037" xmlns:rdf="http://www.w3.org/1999/02/22-rdf-syntax-ns#" xmlns="http://www.w3.org/2000/svg" height="96" width="96" version="1.1" xmlns:cc="http://creativecommons.org/ns#" xmlns:xlink="http://www.w3.org/1999/xlink" xmlns:dc="http://purl.org/dc/elements/1.1/">
 <defs id="defs11039">
  <linearGradient id="linearGradient11642" y2="1046.1" gradientUnits="userSpaceOnUse" y1="962.62" gradientTransform="matrix(1.15 0 0 1.15 -7.1999 -150.65)" x2="48" x1="48">
   <stop id="stop3189-9" style="stop-color:#95c2e6" offset="0"/>
   <stop id="stop3191-1" style="stop-color:#d9ecfd" offset="1"/>
  </linearGradient>
  <linearGradient id="linearGradient6146" x1="23.298" gradientUnits="userSpaceOnUse" y1="46.91" gradientTransform="matrix(1.0146,0,0,1.0146,100.33,953.48)" x2="48.157" y2="48.89">
   <stop id="stop4539" style="stop-color:#59af3f" offset="0"/>
   <stop id="stop4547" style="stop-color:#7dd06e" offset=".2808"/>
   <stop id="stop4545" style="stop-color:#95db83" offset=".42996"/>
   <stop id="stop4549" style="stop-color:#73b661" offset=".60335"/>
   <stop id="stop4541" style="stop-color:#2f7829" offset="1"/>
  </linearGradient>
  <linearGradient id="linearGradient6148" x1="45.076" gradientUnits="userSpaceOnUse" y1="55.112" gradientTransform="matrix(1.0146,0,0,1.0146,100.33,953.48)" x2="29.773" y2="34.607">
   <stop id="stop4531" style="stop-color:#2b6128" offset="0"/>
   <stop id="stop4533" style="stop-color:#59a24c" offset="1"/>
  </linearGradient>
  <radialGradient id="radialGradient6150" gradientUnits="userSpaceOnUse" cy="57.701" cx="44.895" gradientTransform="matrix(.61597 0 0 .91848 119.34 958)" r="13.273">
   <stop id="stop4583" style="stop-color:#2b6028" offset="0"/>
   <stop id="stop4585" style="stop-color:#2b6028;stop-opacity:0" offset="1"/>
  </radialGradient>
  <radialGradient id="radialGradient6152" gradientUnits="userSpaceOnUse" cy="26.462" cx="35.381" gradientTransform="matrix(1.2137,8.0009e-8,-8.1362e-8,1.2342,93.399,947.7)" r="7.2122">
   <stop id="stop4506" style="stop-color:#c7fbb5" offset="0"/>
   <stop id="stop4512-3" style="stop-color:#7dd067" offset=".4"/>
   <stop id="stop4508" style="stop-color:#387633" offset="1"/>
  </radialGradient>
  <linearGradient id="linearGradient6154" x1="42.437" gradientUnits="userSpaceOnUse" y1="33.535" gradientTransform="matrix(1.0146,0,0,1.0146,100.33,953.48)" x2="31.99" y2="23.088">
   <stop id="stop4523" style="stop-color:#2b6028" offset="0"/>
   <stop id="stop4525" style="stop-color:#2b6028;stop-opacity:0" offset="1"/>
  </linearGradient>
  <linearGradient id="linearGradient6156" x1="72.557" gradientUnits="userSpaceOnUse" y1="47.44" gradientTransform="matrix(1.0146,0,0,1.0146,69.887,953.48)" x2="98.411" y2="49.747">
   <stop id="stop4343" style="stop-color:#5aa6c8" offset="0"/>
   <stop id="stop4351" style="stop-color:#8bcae9" offset=".21075"/>
   <stop id="stop4349" style="stop-color:#8ad2eb" offset=".4"/>
   <stop id="stop4353" style="stop-color:#4e91bb" offset=".63987"/>
   <stop id="stop4345-0" style="stop-color:#27649a" offset="1"/>
  </linearGradient>
  <linearGradient id="linearGradient6158" x1="69.538" gradientUnits="userSpaceOnUse" y1="53.947" gradientTransform="matrix(1.0146,0,0,1.0146,100.33,953.48)" x2="42.846" y2="37.499">
   <stop id="stop4365" style="stop-color:#1c508a" offset="0"/>
   <stop id="stop4367" style="stop-color:#438dc6" offset="1"/>
  </linearGradient>
  <linearGradient id="linearGradient6160" x1="55.476" gradientUnits="userSpaceOnUse" y1="59.936" gradientTransform="matrix(1.0146,0,0,1.0146,100.33,953.48)" x2="54.166" y2="39.576">
   <stop id="stop4357-5" style="stop-color:#1a4a7f" offset="0"/>
   <stop id="stop4359-1" style="stop-color:#1a4a7f;stop-opacity:0" offset="1"/>
  </linearGradient>
  <radialGradient id="radialGradient6162" gradientUnits="userSpaceOnUse" cy="24.502" cx="51.742" gradientTransform="matrix(1.198,-2.1543e-8,2.1342e-8,1.1868,-10.245,-4.5773)" r="9.528">
   <stop id="stop4297-6" style="stop-color:#d8effd" offset="0"/>
   <stop id="stop4303" style="stop-color:#80bee7" offset=".4"/>
   <stop id="stop4299" style="stop-color:#276296" offset="1"/>
  </radialGradient>
  <linearGradient id="linearGradient6164" y2="20.141" gradientUnits="userSpaceOnUse" y1="33.647" x2="57.424" x1="70.929">
   <stop id="stop4468" style="stop-color:#1f669e" offset="0"/>
   <stop id="stop4470" style="stop-color:#1f669e;stop-opacity:0" offset="1"/>
  </linearGradient>
  <linearGradient id="linearGradient6166" y2="20.28" gradientUnits="userSpaceOnUse" y1="32.917" x2="58.63" x1="71.873">
   <stop id="stop4385" style="stop-color:#1b528b" offset="0"/>
   <stop id="stop4387" style="stop-color:#267bc4;stop-opacity:.22481" offset="1"/>
  </linearGradient>
  <linearGradient id="linearGradient6168" x1="19.018" gradientUnits="userSpaceOnUse" y1="47.671" gradientTransform="matrix(1.0146,0,0,1.0146,100.33,953.48)" x2="76.789" y2="47.671">
   <stop id="stop4914" style="stop-color:#f9a842" offset="0"/>
   <stop id="stop4916" style="stop-color:#f9be42" offset="1"/>
  </linearGradient>
  <filter id="filter4920" color-interpolation-filters="sRGB">
   <feGaussianBlur id="feGaussianBlur4922" stdDeviation="0.4564276"/>
  </filter>
  <clipPath id="clipPath3009" clipPathUnits="userSpaceOnUse">
   <path id="path3011" style="opacity:.15;fill:#fff" d="m-2 956.36h-96v33.562l96 25.687v-59.25z"/>
  </clipPath>
 </defs>
 <metadata id="metadata11042">
  <rdf:RDF>
   <cc:Work rdf:about="">
    <dc:format>image/svg+xml</dc:format>
    <dc:type rdf:resource="http://purl.org/dc/dcmitype/StillImage"/>
    <dc:title/>
   </cc:Work>
  </rdf:RDF>
 </metadata>
 <g id="layer1" transform="translate(0 -956.36)">
  <rect id="rect3867" style="fill:url(#linearGradient11642)" rx="25" ry="25" height="92" width="92" y="958.36" x="2"/>
  <g id="g6127" transform="matrix(1.107 0 0 1.107 -116.79 -97.315)">
   <path id="path4620" style="fill:#f9ac42" d="m177.8 989.61c-4.0704 6.309-10.044 8.4653-10.044 8.4653l0.86088 2.0087s8.9792-5.0808 9.1827-10.474z"/>
   <path id="path4630" style="fill:#fcd298" d="m174.84 994.16c-2.7698 2.6192-5.2704 3.8327-6.2461 4.2486l0.31706 0.7609c0.66899-0.4016 2.0986-1.2741 3.8364-2.7585 0.7724-0.6597 1.4216-1.4691 2.0926-2.2511z"/>
   <path id="path4494" style="stroke:url(#linearGradient6148);stroke-width:1px;fill:url(#linearGradient6146)" d="m127.9 1008.1s-2.7496 0.7174-3.3234-0.4304c-1.2913-15.352 10.044-18.652 10.044-18.652l6.6001 0.28696c3.7305-0.14349 10.188 7.0306 10.188 7.0306l-6.1697 15.783s-11.051 3.1515-16.931-0.4304c-1.2445-3.0182 1.2913-13.774 1.2913-13.774"/>
   <path id="path4571" style="fill:url(#radialGradient6150)" d="m127.9 1008.1s-2.7496 0.7174-3.3234-0.4304c-1.2913-15.352 10.044-18.652 10.044-18.652l6.6001 0.28696c3.7305-0.14349 10.188 7.0306 10.188 7.0306l-6.1697 15.783s-11.051 3.1515-16.931-0.4304c-1.2445-3.0182 1.2913-13.774 1.2913-13.774"/>
   <path id="path4492" style="color:#000000;fill:url(#radialGradient6152)" d="m145.23 982.37a7.4617 7.4617 0 1 1 -0.00004 -0.0238"/>
   <path id="path4514" style="color:#000000;fill:url(#linearGradient6154)" d="m137.77 974.91c-4.1211 0-7.451 3.3299-7.451 7.451s3.3299 7.4827 7.451 7.4827 7.451-3.3616 7.451-7.4827v-0.0317c-0.0132-4.1122-3.339-7.4198-7.4512-7.4198zm0.0317 0.91949c3.6006 0 6.4883 2.8956 6.4997 6.4997v0.0317c0 3.6125-2.8922 6.5315-6.4997 6.5315s-6.5315-2.924-6.5315-6.5315 2.924-6.5315 6.5315-6.5315z"/>
   <path id="path4593" style="opacity:.4;color:#000000;fill:#2b6128" d="m134.63 989.05s-0.48614 0.16291-1.1098 0.44388c1.2088 0.84341 2.6629 1.3634 4.2486 1.3634 1.6289 0 3.1484-0.54093 4.3755-1.4267-0.32113-0.0715-0.62739-0.10635-0.91949-0.0951l-6.5949-0.28535z"/>
   <path id="path4331" style="fill:url(#linearGradient6156)" d="m157.21 988.99c-0.48779-0.0207-0.9972 0.003-1.5219 0.0317-13.839-0.71225-12.111 21.466-12.111 21.466 0 0.7123 1.2366 0.6975 1.2366 0.6975l0.19023-0.1585c-0.0171 1.9955 0.147 3.8272 0.60242 5.1682 3.8668 4.8844 21.076 2.6375 21.687 0.6024 0.37855-0.9464 0.13023-2.0352 0.0951-2.1877 1.1238-0.034 2.227-0.3295 2.6317-1.3634 0 0 2.3123-23.614-12.809-24.255z"/>
   <path id="path4291" style="stroke:url(#linearGradient6158);stroke-width:1px;fill:none" d="m144.79 1011.2s-1.2211 0-1.2211-0.7123-1.7299-22.183 12.109-21.471c16.79-0.91619 14.347 24.218 14.347 24.218-0.91618 2.3407-5.4951 1.0177-5.4951 1.0177-0.20394-10.99-3.4598-16.587-3.4598-16.587"/>
   <path id="path4293" style="stroke:url(#linearGradient6160);stroke-width:1px;fill:none" d="m146.73 997.46s-2.9511 13.331-1.1193 18.723c3.8668 4.8845 21.064 2.6458 21.675 0.6106 0.40703-1.0175 0.10176-2.2387 0.10176-2.2387"/>
   <path id="path4289-2" style="opacity:.4;color:#000000;fill:#1a4a7f" d="m157.21 988.99c-0.48779-0.0207-0.9972 0.003-1.5219 0.0317-1.772-0.0912-3.2995 0.1962-4.5974 0.76095 1.4017 0.8534 3.0266 1.3634 4.7877 1.3634 1.8269 0 3.543-0.5453 4.9778-1.4585-1.0876-0.39164-2.294-0.64021-3.6465-0.69805z"/>
   <g id="g4319" transform="matrix(1.0146,0,0,1.0146,90.179,953.48)">
    <path id="path4289" d="m63.888 26.596a9.528 9.528 0 1 1 -0.000049 -0.0304" style="color:#000000;fill:url(#radialGradient6162)" transform="matrix(.95789 0 0 .95789 12.69 1.521)"/>
    <path id="path4311" style="opacity:.2;color:#000000;fill:url(#linearGradient6164)" d="m64.781 17.875c-5.0406 0-9.125 4.0844-9.125 9.125s4.0844 9.125 9.125 9.125 9.0938-4.0844 9.0938-9.125v-0.03125c-0.016-5.029-4.065-9.094-9.094-9.094zm0 1.9062c3.9992 0 7.1747 3.1809 7.1875 7.1875v0.03125c0 4.0158-3.1792 7.2188-7.1875 7.2188s-7.2188-3.2105-7.2188-7.2188 3.2105-7.2188 7.2188-7.2188z"/>
    <path id="path4305" style="color:#000000;fill:url(#linearGradient6166)" d="m64.75 17.875c-5.0406 0-9.125 4.0844-9.125 9.125s4.0844 9.125 9.125 9.125 9.125-4.0844 9.125-9.125v-0.03125c-0.016-5.029-4.096-9.094-9.125-9.094zm0.03125 0.96875c4.489 0 8.0794 3.6322 8.0938 8.125v0.031c0 4.5031-3.5946 8.125-8.0938 8.125-4.4991 0-8.1562-3.6259-8.1562-8.125s3.6571-8.1562 8.1562-8.1562z"/>
   </g>
   <path id="path4622" style="fill:url(#linearGradient6168)" d="m125 1007.7s-5.5374 0.3549-5.3801-6.3793c0.1078-4.6151 3.0181-7.5692 13.49-7.3226 10.598 0.24948 16.469 11.381 45.12 15.711-30.166 0.5053-32.529-12.636-46.63-13.344-7.8358-0.39671-9.9147 1.6599-10.618 4.5911-0.70307 2.9318 2.1402 5.3105 4.161 5.0218l-0.14348 1.7218z"/>
   <path id="path4626" d="m32.281 40.656c-5.0903-0.11984-8.2522 0.58195-10.062 1.7188-1.3011 0.81705-1.8275 1.949-2.125 3.25 0.47046-1.1717 1.1677-2.2852 2.5312-3 1.7544-0.9197 4.3211-1.2928 8.25-1.0938 7.1747 0.36019 11.381 3.8661 17.344 7.0938 4.5194 2.4462 10.134 4.7691 19 5.6562-8.8178-2.1505-14.914-4.9587-19.688-7.4688-6.3178-3.3219-10.281-6.0393-15.25-6.1562zm-12.281 8.813c0.38217 1.4706 1.1746 2.2485 1.9688 2.6875 0.6648 0.36754 1.2433 0.45567 1.6875 0.5l0.03125-0.3125c-1.0299-0.12504-2.0358-0.54823-2.8125-1.375-0.38704-0.41196-0.63782-0.95564-0.875-1.5z" style="filter:url(#filter4920);fill:#fde3c0" transform="matrix(1.0146,0,0,1.0146,100.33,953.48)"/>
  </g>
  <rect id="rect3003" style="opacity:.15;fill:#fff" transform="translate(98 3.8281e-7)" clip-path="url(#clipPath3009)" rx="25" ry="25" height="92" width="92" y="958.36" x="-96"/>
 </g>
</svg>
