<?xml version="1.0" encoding="UTF-8" standalone="no"?>
<!-- Created with Inkscape (http://www.inkscape.org/) -->
<svg id="svg11037" xmlns:rdf="http://www.w3.org/1999/02/22-rdf-syntax-ns#" xmlns="http://www.w3.org/2000/svg" height="96" width="96" version="1.1" xmlns:cc="http://creativecommons.org/ns#" xmlns:xlink="http://www.w3.org/1999/xlink" xmlns:dc="http://purl.org/dc/elements/1.1/">
 <defs id="defs11039">
  <linearGradient id="linearGradient11642" y2="1046.1" gradientUnits="userSpaceOnUse" y1="962.62" gradientTransform="matrix(1.15 0 0 1.15 -7.1999 -150.65)" x2="48" x1="48">
   <stop id="stop3201" style="stop-color:#63b01e" offset="0"/>
   <stop id="stop3203" style="stop-color:#a1e153" offset="1"/>
  </linearGradient>
  <linearGradient id="linearGradient3360-1" y2="59" xlink:href="#linearGradient3354-1" gradientUnits="userSpaceOnUse" x2="75.25" gradientTransform="translate(0,-1)" y1="59" x1="68.75"/>
  <linearGradient id="linearGradient3354-1">
   <stop id="stop3356-9" style="stop-color:#b4b4b4" offset="0"/>
   <stop id="stop3362-5" style="stop-color:#646464" offset=".20467"/>
   <stop id="stop3364-0" style="stop-color:#fff" offset=".49568"/>
   <stop id="stop3358-6" style="stop-color:#3c3c3c" offset="1"/>
  </linearGradient>
  <clipPath id="clipPath3235-6">
   <path id="path3237-9" style="fill:#fff" d="m66 6v55c0 1.662 1.338 3 3 3h6c1.662 0 3-1.338 3-3v-55h-4v2h-4v-2h-4z"/>
  </clipPath>
  <filter id="filter3243-8" height="1.0732" width="1.3323" color-interpolation-filters="sRGB" y="-.036610" x="-.16615">
   <feGaussianBlur id="feGaussianBlur3245-3" stdDeviation="0.9"/>
  </filter>
  <linearGradient id="linearGradient3393-2" y2="65" gradientUnits="userSpaceOnUse" x2="79" y1="64.163" x1="63.485">
   <stop id="stop3389-5" style="stop-color:#a2a2a2" offset="0"/>
   <stop id="stop3391-3" style="stop-color:#fff" offset="1"/>
  </linearGradient>
  <filter id="filter3429-2" height="1.1907" width="1.3237" color-interpolation-filters="sRGB" y="-.095354" x="-.16183">
   <feGaussianBlur id="feGaussianBlur3431-4" stdDeviation="0.53551312"/>
  </filter>
  <linearGradient id="linearGradient3516-4" y2="17.763" xlink:href="#linearGradient3435-3" gradientUnits="userSpaceOnUse" x2="75.971" gradientTransform="translate(0,-2)" y1="17.763" x1="68.029"/>
  <linearGradient id="linearGradient3435-3">
   <stop id="stop3437-3" style="stop-color:#ededed" offset="0"/>
   <stop id="stop3439-2" style="stop-color:#b0b0b0" offset="1"/>
  </linearGradient>
  <linearGradient id="linearGradient3489-3" y2="17.5" xlink:href="#linearGradient3435-3" gradientUnits="userSpaceOnUse" x2="75.062" gradientTransform="matrix(-1 0 0 1 144.03 -2)" y1="17.5" x1="68.969"/>
  <linearGradient id="linearGradient3530-0" y2="59" xlink:href="#linearGradient3354-1" gradientUnits="userSpaceOnUse" x2="72.251" gradientTransform="matrix(1.1263 0 0 1 -7.402 -49.5)" y1="59" x1="68.75"/>
  <linearGradient id="linearGradient4631" y2="54" gradientUnits="userSpaceOnUse" x2="73" gradientTransform="translate(0,-1)" y1="54" x1="69">
   <stop id="stop3292-6" style="stop-color:#fff" offset="0"/>
   <stop id="stop3304-2" style="stop-color:#8c8c8c" offset=".48973"/>
   <stop id="stop3306-9" style="stop-color:#cfcfcf" offset=".50045"/>
   <stop id="stop3298-6" style="stop-color:#fff" offset=".62277"/>
   <stop id="stop3300-0" style="stop-color:#c8c8c8" offset=".81696"/>
   <stop id="stop3294-3" style="stop-color:#505050" offset="1"/>
  </linearGradient>
  <linearGradient id="linearGradient4633" y2="54" gradientUnits="userSpaceOnUse" x2="73" gradientTransform="matrix(-1,0,0,1,144,-4)" y1="54" x1="69">
   <stop id="stop3606-7" style="stop-color:#2f2f2f" offset="0"/>
   <stop id="stop3608-9" style="stop-color:#fff" offset=".43731"/>
   <stop id="stop3610-6" style="stop-color:#979797" offset=".62138"/>
   <stop id="stop3612-9" style="stop-color:#505050" offset=".77232"/>
   <stop id="stop3614-7" style="stop-color:#e6e6e6" offset="1"/>
  </linearGradient>
  <clipPath id="clipPath3009" clipPathUnits="userSpaceOnUse">
   <path id="path3011" style="opacity:.15;fill:#fff" d="m-2 956.36h-96v33.562l96 25.687v-59.25z"/>
  </clipPath>
 </defs>
 <metadata id="metadata11042">
  <rdf:RDF>
   <cc:Work rdf:about="">
    <dc:format>image/svg+xml</dc:format>
    <dc:type rdf:resource="http://purl.org/dc/dcmitype/StillImage"/>
    <dc:title/>
   </cc:Work>
  </rdf:RDF>
 </metadata>
 <g id="layer1" transform="translate(0 -956.36)">
  <rect id="rect3867" style="fill:url(#linearGradient11642)" rx="25" ry="25" height="92" width="92" y="958.36" x="2"/>
  <g id="layer3" transform="translate(0 956.36)">
   <path id="rect3201" style="fill:#252525" d="m66 6v55c0 1.662 1.338 3 3 3h6c1.662 0 3-1.338 3-3v-55h-4v2h-4v-2h-4z"/>
   <rect id="rect3247" style="fill:#4d4d4d" height="49" width="4" y="8" x="70"/>
   <rect id="rect3211" style="stroke-opacity:.56364;stroke:#000;stroke-linecap:square;stroke-width:.5;fill:url(#linearGradient3360-1)" rx="1" ry="1" height="4" width="6" y="56" x="69"/>
   <path id="path3231" style="filter:url(#filter3243-8);stroke:#000;stroke-linecap:square;stroke-width:2;fill:none" clip-path="url(#clipPath3235-6)" d="m66 6v55c0 1.662 1.338 3 3 3h6c1.662 0 3-1.338 3-3v-55h-4v2h-4v-2h-4z"/>
   <path id="rect3249" style="stroke-opacity:.56364;stroke:#000;stroke-linecap:square;stroke-width:.5;fill:url(#linearGradient4631)" d="m69.5 51c-0.27 0-0.5 0.218-0.5 0.5v3c0 0.28204 0.23023 0.5 0.5 0.5h1c0.26977 0 0.5-0.21796 0.5-0.5v-0.5h1.5c0.277 0 0.5-0.223 0.5-0.5v-1c0-0.277-0.223-0.5-0.5-0.5h-1.5v-0.5c0-0.282-0.23-0.5-0.5-0.5h-1z"/>
   <use id="use3308" xlink:href="#rect3249" transform="translate(0,-6)" height="96" width="96" y="0" x="0"/>
   <use id="use3310" xlink:href="#use3308" transform="translate(0,-6)" height="96" width="96" y="0" x="0"/>
   <use id="use3312" xlink:href="#use3310" transform="translate(0,-6)" height="96" width="96" y="0" x="0"/>
   <use id="use3314" xlink:href="#use3312" transform="translate(0,-6)" height="96" width="96" y="0" x="0"/>
   <use id="use3316" xlink:href="#use3314" transform="translate(0,-6)" height="96" width="96" y="0" x="0"/>
   <use id="use3318" xlink:href="#use3316" transform="translate(0,-6)" height="96" width="96" y="0" x="0"/>
   <use id="use3320" xlink:href="#use3318" transform="translate(0,-6)" height="96" width="96" y="0" x="0"/>
   <path id="path3322" style="stroke-opacity:.56364;stroke:#000;stroke-linecap:square;stroke-width:.5;fill:url(#linearGradient4633)" d="m74.5 48c0.26977 0 0.5 0.21796 0.5 0.5v3c0 0.28204-0.23023 0.5-0.5 0.5h-1c-0.27 0-0.5-0.218-0.5-0.5v-0.5h-1.5c-0.277 0-0.5-0.223-0.5-0.5v-1c0-0.277 0.223-0.5 0.5-0.5h1.5v-0.5c0-0.282 0.23-0.5 0.5-0.5h1z"/>
   <use id="use3340" xlink:href="#path3322" transform="translate(0,-6)" height="96" width="96" y="0" x="0"/>
   <use id="use3342" xlink:href="#use3340" transform="translate(0,-6)" height="96" width="96" y="0" x="0"/>
   <use id="use3344" xlink:href="#use3342" transform="translate(0,-6)" height="96" width="96" y="0" x="0"/>
   <use id="use3346" xlink:href="#use3344" transform="translate(0,-6)" height="96" width="96" y="0" x="0"/>
   <use id="use3348" xlink:href="#use3346" transform="translate(0,-6)" height="96" width="96" y="0" x="0"/>
   <use id="use3350" xlink:href="#use3348" transform="translate(0,-6)" height="96" width="96" y="0" x="0"/>
   <path id="path3376" style="opacity:.6;fill:url(#linearGradient3393-2)" d="m65 6v55c0 2.2023 1.7977 4 4 4h6c2.2023 0 4-1.7977 4-4v-55h-1v55c0 1.662-1.338 3-3 3h-6c-1.662 0-3-1.338-3-3v-55h-1z"/>
   <path id="path3433" style="stroke-opacity:.56364;filter:url(#filter3429-2);stroke:#000;stroke-linecap:square;stroke-width:0.5" transform="translate(0,-2)" d="m69.5 10.531c-1.0277 0-1.9688 0.7652-1.9688 1.8125v10.812c0 1.048 0.918 1.844 1.969 1.844h5c1.0507 0 1.9688-0.79645 1.9688-1.8438v-10.812c-0.000003-1.0473-0.94105-1.8125-1.9688-1.8125h-5zm1.0625 9.0625h2.875v1.75h-2.875v-1.75z"/>
   <path id="rect3403" style="fill:url(#linearGradient3516-4)" d="m69.229 9.0214c-0.687 0-1.229 0.4824-1.229 1.0816l-0.005 10.815c0 0.6 0.542 1.082 1.229 1.082h5.5832c0.68714 0 1.2292-0.48237 1.2292-1.0815l0.0051-10.815c0-0.59918-0.54211-1.0815-1.2292-1.0815h-5.5832zm0.7043 7.9496h4.1013v3.1184h-4.1013v-3.1184z"/>
   <path id="rect3470" style="fill:url(#linearGradient3489-3)" d="m74.562 9.9688c0.277 0 0.5 0.223 0.5 0.5v10.062c0 0.277-0.223 0.5-0.5 0.5h-5.0938c-0.277 0-0.5-0.223-0.5-0.5v-10.062c0-0.277 0.223-0.5 0.5-0.5h5.0938zm-0.4375 6.9688h-4.125v3.125h4.125v-3.125z"/>
   <rect id="rect3399" style="stroke-opacity:.56364;stroke:#000;stroke-linecap:square;fill:url(#linearGradient3530-0)" rx=".56313" ry=".5" height="5" width="3.3788" y="7.5" x="70.311"/>
   <rect id="rect3518" style="opacity:.3" height="1" width="4" y="16" x="69.985"/>
  </g>
  <rect id="rect3003" style="opacity:.15;fill:#fff" transform="translate(98 3.8281e-7)" clip-path="url(#clipPath3009)" rx="25" ry="25" height="92" width="92" y="958.36" x="-96"/>
 </g>
</svg>
