<?xml version="1.0" encoding="UTF-8" standalone="no"?>
<!-- Created with Inkscape (http://www.inkscape.org/) -->
<svg id="svg11037" xmlns:rdf="http://www.w3.org/1999/02/22-rdf-syntax-ns#" xmlns="http://www.w3.org/2000/svg" height="96" width="96" version="1.1" xmlns:cc="http://creativecommons.org/ns#" xmlns:xlink="http://www.w3.org/1999/xlink" xmlns:dc="http://purl.org/dc/elements/1.1/">
 <defs id="defs11039">
  <clipPath id="clipPath3722">
   <rect id="rect3724" style="fill:url(#linearGradient3726)" rx="5.6574" ry="5.6574" height="79.203" width="79.203" y="15.052" x="8.3989"/>
  </clipPath>
  <radialGradient id="radialGradient7095" gradientUnits="userSpaceOnUse" cy="7.2266" cx="64.569" r="104.22">
   <stop id="stop13" style="stop-color:#67c5d5" offset="0"/>
   <stop id="stop15" style="stop-color:#66c2d3" offset=".1604"/>
   <stop id="stop17" style="stop-color:#62b9ce" offset=".27950"/>
   <stop id="stop19" style="stop-color:#5ca8c6" offset=".38520"/>
   <stop id="stop21" style="stop-color:#5392ba" offset=".48320"/>
   <stop id="stop23" style="stop-color:#4874aa" offset=".57590"/>
   <stop id="stop25" style="stop-color:#3a5097" offset=".66460"/>
   <stop id="stop27" style="stop-color:#2a2781" offset=".74850"/>
   <stop id="stop29" style="stop-color:#1b006d" offset=".81460"/>
   <stop id="stop31" style="stop-color:#596aad" offset="1"/>
  </radialGradient>
  <radialGradient id="radialGradient7097" gradientUnits="userSpaceOnUse" cy="14.175" cx="64.552" r="52.232">
   <stop id="stop36" style="stop-color:#0f80bc" offset="0"/>
   <stop id="stop38" style="stop-color:#0a5f9e" offset=".33760"/>
   <stop id="stop40" style="stop-color:#00145a" offset="1"/>
  </radialGradient>
  <radialGradient id="radialGradient7099" gradientUnits="userSpaceOnUse" cy="14.176" cx="64.554" r="52.229">
   <stop id="stop47" style="stop-color:#0f80bc" offset="0"/>
   <stop id="stop49" style="stop-color:#0a5f9e" offset=".33760"/>
   <stop id="stop51" style="stop-color:#00145a" offset="1"/>
  </radialGradient>
  <radialGradient id="radialGradient7101" gradientUnits="userSpaceOnUse" cy="14.172" cx="64.549" r="52.237">
   <stop id="stop56" style="stop-color:#0f80bc" offset="0"/>
   <stop id="stop58" style="stop-color:#0a5f9e" offset=".33760"/>
   <stop id="stop60" style="stop-color:#00145a" offset="1"/>
  </radialGradient>
  <radialGradient id="radialGradient7103" gradientUnits="userSpaceOnUse" cy="19.12" cx="65.405" r="57.383">
   <stop id="stop65" style="stop-color:#0f80bc" offset="0"/>
   <stop id="stop67" style="stop-color:#0b629b" offset=".26430"/>
   <stop id="stop69" style="stop-color:#031747" offset=".84390"/>
   <stop id="stop71" style="stop-color:#00022f" offset="1"/>
  </radialGradient>
  <radialGradient id="radialGradient7105" gradientUnits="userSpaceOnUse" cy="14.173" cx="64.551" r="52.233">
   <stop id="stop76" style="stop-color:#0f80bc" offset="0"/>
   <stop id="stop78" style="stop-color:#0a5f9e" offset=".33760"/>
   <stop id="stop80" style="stop-color:#00145a" offset="1"/>
  </radialGradient>
  <radialGradient id="radialGradient7107" gradientUnits="userSpaceOnUse" cy="14.165" cx="64.552" r="52.242">
   <stop id="stop85" style="stop-color:#0f80bc" offset="0"/>
   <stop id="stop87" style="stop-color:#0a5f9e" offset=".33760"/>
   <stop id="stop89" style="stop-color:#00145a" offset="1"/>
  </radialGradient>
  <linearGradient id="linearGradient7109" y2="18.029" gradientUnits="userSpaceOnUse" x2="93.232" y1="16.592" x1="76.372">
   <stop id="stop102" style="stop-color:#0f80bc" offset="0"/>
   <stop id="stop104" style="stop-color:#0a5f9e" offset=".33760"/>
   <stop id="stop106" style="stop-color:#00145a" offset="1"/>
  </linearGradient>
  <clipPath id="XMLID_68_">
   <use id="use99" xlink:href="#XMLID_8_" height="127.219" width="132.72" y="0" x="0"/>
  </clipPath>
  <linearGradient id="linearGradient7111" y2="32.832" gradientUnits="userSpaceOnUse" x2="29.174" y1="19.147" x1="38.492">
   <stop id="stop111" style="stop-color:#0f80bc" offset="0"/>
   <stop id="stop113" style="stop-color:#0a5f9e" offset=".33760"/>
   <stop id="stop115" style="stop-color:#00145a" offset="1"/>
  </linearGradient>
  <linearGradient id="linearGradient7113" y2="11.895" gradientUnits="userSpaceOnUse" x2="62.652" y1="34.546" x1="62.652">
   <stop id="stop120" style="stop-opacity:0" offset=".0137"/>
   <stop id="stop122" style="stop-color:#c4e0e3;stop-opacity:.2" offset="0.65"/>
   <stop id="stop124" style="stop-color:#c4e0e3" offset=".82240"/>
   <stop id="stop126" style="stop-color:#cde5e8" offset=".84980"/>
   <stop id="stop128" style="stop-color:#e8f4f7" offset=".9443"/>
   <stop id="stop130" style="stop-color:#f2fafc" offset="1"/>
  </linearGradient>
  <linearGradient id="linearGradient7115" y2="48.085" gradientUnits="userSpaceOnUse" x2="78.466" y1="56.301" x1="64.478">
   <stop id="stop149" style="stop-color:#df731b" offset="0"/>
   <stop id="stop151" style="stop-color:#df731b" offset=".5449"/>
   <stop id="stop153" style="stop-color:#ec8811" offset=".70140"/>
   <stop id="stop155" style="stop-color:#f4950b" offset=".85930"/>
   <stop id="stop157" style="stop-color:#f79a09" offset="1"/>
  </linearGradient>
  <linearGradient id="linearGradient7117" y2="37.892" gradientUnits="userSpaceOnUse" x2="52.697" y1="36.962" x1="41.839">
   <stop id="stop162" style="stop-color:#941403" offset=".0112"/>
   <stop id="stop164" style="stop-color:#e85c0a" offset=".89720"/>
  </linearGradient>
  <linearGradient id="linearGradient7119" y2="38.852" gradientUnits="userSpaceOnUse" x2="63.643" y1="33.953" x1="24.45">
   <stop id="stop169" style="stop-color:#941403" offset=".0112"/>
   <stop id="stop171" style="stop-color:#a32104" offset=".1357"/>
   <stop id="stop173" style="stop-color:#c84107" offset=".49780"/>
   <stop id="stop175" style="stop-color:#df5509" offset=".78930"/>
   <stop id="stop177" style="stop-color:#e85c0a" offset=".972"/>
  </linearGradient>
  <linearGradient id="linearGradient7121" y2="42.945" gradientUnits="userSpaceOnUse" x2="51.856" y1="44.32" x1="48.731">
   <stop id="stop182" style="stop-color:#f2c8a9" offset="0"/>
   <stop id="stop184" style="stop-color:#ffc" offset="1"/>
  </linearGradient>
  <linearGradient id="linearGradient7123" y2="84.747" gradientUnits="userSpaceOnUse" x2="91.339" y1="82.582" x1="38.768">
   <stop id="stop189" style="stop-color:#b30000" offset="0"/>
   <stop id="stop191" style="stop-color:#df731b" offset="1"/>
  </linearGradient>
  <linearGradient id="linearGradient7125" y2="84.212" gradientUnits="userSpaceOnUse" x2="78.689" y1="74.424" x1="51.278">
   <stop id="stop196" style="stop-color:#941403" offset="0"/>
   <stop id="stop198" style="stop-color:#df731b" offset="1"/>
  </linearGradient>
  <linearGradient id="linearGradient7127" y2="87.057" gradientUnits="userSpaceOnUse" x2="32.828" gradientTransform="matrix(.9988 .049 -.049 .9988 4.7153 -1.2399)" y1="87.057" x1="6.1064">
   <stop id="stop203" style="stop-color:#b30000" offset=".0562"/>
   <stop id="stop205" style="stop-color:#de5c01" offset="1"/>
  </linearGradient>
  <linearGradient id="linearGradient7129" y2="-85.619" gradientUnits="userSpaceOnUse" x2="224.26" gradientTransform="matrix(.9929 .1186 -.1186 .9929 -207.27 181.29)" y1="-130.66" x1="209.72">
   <stop id="stop210" style="stop-color:#de7210" offset=".0562"/>
   <stop id="stop212" style="stop-color:#f6c08f" offset="1"/>
  </linearGradient>
  <linearGradient id="linearGradient7131" y2="111.45" gradientUnits="userSpaceOnUse" x2="12.471" gradientTransform="matrix(.999 .0448 -.0448 .999 3.2321 -.6968)" y1="61.107" x1="12.471">
   <stop id="stop217" style="stop-color:#de7210" offset=".0562"/>
   <stop id="stop219" style="stop-color:#f6c08f" offset="1"/>
  </linearGradient>
  <linearGradient id="linearGradient7133" y2="16.85" gradientUnits="userSpaceOnUse" x2="12.886" y1="30.846" x1="18.348">
   <stop id="stop226" style="stop-color:#941403" offset=".0112"/>
   <stop id="stop228" style="stop-color:#e85c0a" offset=".47190"/>
   <stop id="stop230" style="stop-color:#f9bd5f" offset="1"/>
  </linearGradient>
  <linearGradient id="linearGradient7135" y2="16.853" gradientUnits="userSpaceOnUse" x2="54.792" y1="34.058" x1="41.704">
   <stop id="stop235" style="stop-color:#de7210" offset=".19660"/>
   <stop id="stop237" style="stop-color:#f9bd5f" offset=".8427"/>
   <stop id="stop239" style="stop-color:#fffccf" offset="1"/>
  </linearGradient>
  <linearGradient id="linearGradient7137" y2="84.079" gradientUnits="userSpaceOnUse" x2="48.052" y1="57.542" x1="34.784">
   <stop id="stop244" style="stop-color:#941403" offset=".0169"/>
   <stop id="stop246" style="stop-color:#e35100" offset=".5"/>
   <stop id="stop248" style="stop-color:#df731b" offset="1"/>
  </linearGradient>
  <linearGradient id="linearGradient7139" y2="44.27" gradientUnits="userSpaceOnUse" x2="58.139" y1="41.267" x1="54.825">
   <stop id="stop253" style="stop-color:#eea272" offset="0"/>
   <stop id="stop255" style="stop-color:#efa777" offset=".1865"/>
   <stop id="stop257" style="stop-color:#f2b585" offset=".4064"/>
   <stop id="stop259" style="stop-color:#f6cd9c" offset="0.643"/>
   <stop id="stop261" style="stop-color:#fceebb" offset=".88980"/>
   <stop id="stop263" style="stop-color:#ffc" offset="1"/>
  </linearGradient>
  <linearGradient id="linearGradient7141" y2="63.893" gradientUnits="userSpaceOnUse" x2="50.721" y1="48.361" x1="35.5">
   <stop id="stop268" style="stop-color:#df731b" offset=".19660"/>
   <stop id="stop270" style="stop-color:#f9bd5f" offset=".8427"/>
   <stop id="stop272" style="stop-color:#fffccf" offset="1"/>
  </linearGradient>
  <linearGradient id="linearGradient7143" y2="-1008" gradientUnits="userSpaceOnUse" x2="847.47" gradientTransform="matrix(.9673 .2537 -.2537 .9673 -1076.7 855.23)" y1="-1065" x1="847.47">
   <stop id="stop277" style="stop-color:#de7210" offset=".0562"/>
   <stop id="stop279" style="stop-color:#f6c08f" offset="1"/>
  </linearGradient>
  <linearGradient id="linearGradient7145" y2="67.833" gradientUnits="userSpaceOnUse" x2="-3.4365" gradientTransform="matrix(.9897 -.0801 .0949 1.1727 -3.8203 -4.9468)" y1="36.413" x1="15.856">
   <stop id="stop284" style="stop-color:#de7210" offset=".0562"/>
   <stop id="stop286" style="stop-color:#f2c06e" offset="1"/>
  </linearGradient>
  <linearGradient id="linearGradient7147" y2="71.76" gradientUnits="userSpaceOnUse" x2="60.433" y1="67.845" x1="80.929">
   <stop id="stop291" style="stop-color:#fffaee" offset=".0047"/>
   <stop id="stop293" style="stop-color:#f5f89b" offset=".2757"/>
   <stop id="stop295" style="stop-color:#f3ed91" offset=".31020"/>
   <stop id="stop297" style="stop-color:#ecc267" offset=".4668"/>
   <stop id="stop299" style="stop-color:#e6a046" offset=".6182"/>
   <stop id="stop301" style="stop-color:#e2872e" offset=".76110"/>
   <stop id="stop303" style="stop-color:#e07820" offset=".89210"/>
   <stop id="stop305" style="stop-color:#df731b" offset="1"/>
  </linearGradient>
  <linearGradient id="linearGradient7149" y2="475.32" gradientUnits="userSpaceOnUse" x2="-411.27" gradientTransform="matrix(.992 .1261 -.1261 .992 477.06 -332.39)" y1="427.63" x1="-411.27">
   <stop id="stop310" style="stop-color:#de7210" offset=".0562"/>
   <stop id="stop312" style="stop-color:#f2c06e" offset="1"/>
  </linearGradient>
  <linearGradient id="linearGradient7151" y2="470.37" gradientUnits="userSpaceOnUse" x2="-414.44" gradientTransform="matrix(.9324 .3616 -.3616 .9324 554.92 -207.71)" y1="422.68" x1="-414.44">
   <stop id="stop317" style="stop-color:#de7210" offset=".0562"/>
   <stop id="stop319" style="stop-color:#f2c06e" offset="1"/>
  </linearGradient>
  <linearGradient id="linearGradient7153" y2="75.716" gradientUnits="userSpaceOnUse" x2=".56920" gradientTransform="matrix(.8104 -.5859 .5859 .8104 -28.537 20.331)" y1="55.797" x1="13.848">
   <stop id="stop324" style="stop-color:#de7210" offset=".0562"/>
   <stop id="stop326" style="stop-color:#f2c072" offset="1"/>
  </linearGradient>
  <linearGradient id="linearGradient7155" y2="69.189" gradientUnits="userSpaceOnUse" x2="7.7561" gradientTransform="matrix(.8104 -.5859 .5859 .8104 -28.537 20.331)" y1="49.271" x1="21.035">
   <stop id="stop331" style="stop-color:#de7210" offset=".0562"/>
   <stop id="stop333" style="stop-color:#f2c072" offset="1"/>
  </linearGradient>
  <linearGradient id="linearGradient7157" y2="48.709" gradientUnits="userSpaceOnUse" x2="6.504" y1="37.865" x1="12.314">
   <stop id="stop338" style="stop-color:#de7210" offset=".0562"/>
   <stop id="stop340" style="stop-color:#eed8a5" offset="1"/>
  </linearGradient>
  <linearGradient id="linearGradient7159" y2="55.335" gradientUnits="userSpaceOnUse" x2="5.9211" y1="44.492" x1="11.73">
   <stop id="stop345" style="stop-color:#de7210" offset=".0562"/>
   <stop id="stop347" style="stop-color:#eed8a5" offset="1"/>
  </linearGradient>
  <linearGradient id="linearGradient7161" y2="53.833" gradientUnits="userSpaceOnUse" x2="12.698" y1="39.891" x1="18.313">
   <stop id="stop352" style="stop-color:#de7210" offset=".0562"/>
   <stop id="stop354" style="stop-color:#f2c072" offset="1"/>
  </linearGradient>
  <linearGradient id="linearGradient7163" y2="53.023" gradientUnits="userSpaceOnUse" x2="7.1675" y1="33.104" x1="20.447">
   <stop id="stop359" style="stop-color:#de7210" offset=".0562"/>
   <stop id="stop361" style="stop-color:#f2c072" offset="1"/>
  </linearGradient>
  <linearGradient id="linearGradient7165" y2="55.279" gradientUnits="userSpaceOnUse" x2="9.2385" y1="37.126" x1="21.341">
   <stop id="stop366" style="stop-color:#de7210" offset=".0562"/>
   <stop id="stop368" style="stop-color:#f2c072" offset="1"/>
  </linearGradient>
  <linearGradient id="linearGradient7167" y2="36.006" gradientUnits="userSpaceOnUse" x2="61.245" y1="34.297" x1="60.286">
   <stop id="stop373" style="stop-color:#8b8b89" offset="0"/>
   <stop id="stop375" style="stop-color:#120500" offset="1"/>
  </linearGradient>
  <linearGradient id="linearGradient7169" y2="23.245" gradientUnits="userSpaceOnUse" x2="22.56" y1="28.492" x1="22.56">
   <stop id="stop380" style="stop-color:#de7210" offset=".0562"/>
   <stop id="stop382" style="stop-color:#f6c08f" offset="1"/>
  </linearGradient>
  <linearGradient id="linearGradient7171" y2="21.918" gradientUnits="userSpaceOnUse" x2="33.993" gradientTransform="matrix(.9992 .0398 -.0398 .9992 .9958 -1.3319)" y1="34.751" x1="23.012">
   <stop id="stop387" style="stop-color:#de7210" offset=".0562"/>
   <stop id="stop389" style="stop-color:#f6c08f" offset="1"/>
  </linearGradient>
  <linearGradient id="linearGradient7173" y2="44.352" gradientUnits="userSpaceOnUse" x2="9.6995" y1="33.508" x1="15.509">
   <stop id="stop394" style="stop-color:#de7210" offset=".0562"/>
   <stop id="stop396" style="stop-color:#eed8a5" offset="1"/>
  </linearGradient>
  <linearGradient id="linearGradient7175" y2="23.268" gradientUnits="userSpaceOnUse" x2="27.067" gradientTransform="matrix(.9946 .1039 -.1039 .9946 3.786 -2.0567)" y1="35.805" x1="16.34">
   <stop id="stop401" style="stop-color:#de7210" offset=".0562"/>
   <stop id="stop403" style="stop-color:#f6c08f" offset="1"/>
  </linearGradient>
  <linearGradient id="linearGradient7177" y2="24.641" gradientUnits="userSpaceOnUse" x2="26.26" gradientTransform="matrix(.9959 .0903 -.0903 .9959 2.3457 -2.346)" y1="22.876" x1="13.372">
   <stop id="stop408" style="stop-color:#de7210" offset=".0562"/>
   <stop id="stop410" style="stop-color:#f6c08f" offset="1"/>
  </linearGradient>
  <linearGradient id="linearGradient7179" y2="25.601" gradientUnits="userSpaceOnUse" x2="25.178" y1="23.109" x1="6.9834">
   <stop id="stop415" style="stop-color:#de7210" offset=".0562"/>
   <stop id="stop417" style="stop-color:#f6c08f" offset="1"/>
  </linearGradient>
  <linearGradient id="linearGradient7181" y2="23.85" gradientUnits="userSpaceOnUse" x2="27.724" gradientTransform="matrix(.9959 .0903 -.0903 .9959 2.3457 -2.346)" y1="22.228" x1="15.881">
   <stop id="stop422" style="stop-color:#de7210" offset=".0562"/>
   <stop id="stop424" style="stop-color:#f6c08f" offset="1"/>
  </linearGradient>
  <linearGradient id="linearGradient7183" y2="25.844" gradientUnits="userSpaceOnUse" x2="4.5215" y1="26.94" x1="15.201">
   <stop id="stop429" style="stop-color:#de7210" offset=".0562"/>
   <stop id="stop431" style="stop-color:#f6c08f" offset="1"/>
  </linearGradient>
  <linearGradient id="linearGradient7185" y2="19.835" gradientUnits="userSpaceOnUse" x2="25.719" gradientTransform="matrix(.9946 .1039 -.1039 .9946 3.786 -2.0567)" y1="37.1" x1="10.945">
   <stop id="stop436" style="stop-color:#de7210" offset=".0562"/>
   <stop id="stop438" style="stop-color:#f6c08f" offset="1"/>
  </linearGradient>
  <linearGradient id="linearGradient7187" y2="72.741" gradientUnits="userSpaceOnUse" x2="117.26" y1="117.37" x1="88.331">
   <stop id="stop444" style="stop-color:#de5c01" offset="0"/>
   <stop id="stop446" style="stop-color:#fefd00" offset=".736"/>
   <stop id="stop448" style="stop-color:#fefe26" offset=".77830"/>
   <stop id="stop450" style="stop-color:#fffe54" offset=".8369"/>
   <stop id="stop452" style="stop-color:#ffff76" offset=".889"/>
   <stop id="stop454" style="stop-color:#ffff8b" offset="0.932"/>
   <stop id="stop456" style="stop-color:#ffff92" offset=".96070"/>
  </linearGradient>
  <linearGradient id="linearGradient7189" y2="14.417" gradientUnits="userSpaceOnUse" x2="86.211" y1="22.738" x1="105.16">
   <stop id="stop461" style="stop-color:#f79a09" offset="0"/>
   <stop id="stop463" style="stop-color:#fefd00" offset=".736"/>
   <stop id="stop465" style="stop-color:#fefe26" offset=".77830"/>
   <stop id="stop467" style="stop-color:#fffe54" offset=".8369"/>
   <stop id="stop469" style="stop-color:#ffff76" offset=".889"/>
   <stop id="stop471" style="stop-color:#ffff8b" offset="0.932"/>
   <stop id="stop473" style="stop-color:#ffff92" offset=".96070"/>
  </linearGradient>
  <linearGradient id="linearGradient7191" y2="17.106" gradientUnits="userSpaceOnUse" x2="91.359" y1="41.729" x1="117.88">
   <stop id="stop478" style="stop-color:#de5c01" offset="0"/>
   <stop id="stop480" style="stop-color:#fefd00" offset=".736"/>
   <stop id="stop482" style="stop-color:#fefe26" offset=".77830"/>
   <stop id="stop484" style="stop-color:#fffe54" offset=".8369"/>
   <stop id="stop486" style="stop-color:#ffff76" offset=".889"/>
   <stop id="stop488" style="stop-color:#ffff8b" offset="0.932"/>
   <stop id="stop490" style="stop-color:#ffff92" offset=".96070"/>
  </linearGradient>
  <linearGradient id="linearGradient7193" y2="133.96" gradientUnits="userSpaceOnUse" x2="-9.9659" gradientTransform="matrix(.9996 -.0282 .0282 .9996 104.78 -104.62)" y1="145.45" x1="1.1396">
   <stop id="stop495" style="stop-color:#f79a09" offset="0"/>
   <stop id="stop497" style="stop-color:#fefd00" offset=".736"/>
   <stop id="stop499" style="stop-color:#fefe26" offset=".77830"/>
   <stop id="stop501" style="stop-color:#fffe54" offset=".8369"/>
   <stop id="stop503" style="stop-color:#ffff76" offset=".889"/>
   <stop id="stop505" style="stop-color:#ffff8b" offset="0.932"/>
   <stop id="stop507" style="stop-color:#ffff92" offset=".96070"/>
  </linearGradient>
  <linearGradient id="linearGradient7195" y2="34.332" gradientUnits="userSpaceOnUse" x2="119.69" y1="55.834" x1="113.44">
   <stop id="stop512" style="stop-color:#f79a09" offset="0"/>
   <stop id="stop514" style="stop-color:#fefd00" offset=".736"/>
   <stop id="stop516" style="stop-color:#fefe26" offset=".77830"/>
   <stop id="stop518" style="stop-color:#fffe54" offset=".8369"/>
   <stop id="stop520" style="stop-color:#ffff76" offset=".889"/>
   <stop id="stop522" style="stop-color:#ffff8b" offset="0.932"/>
   <stop id="stop524" style="stop-color:#ffff92" offset=".96070"/>
  </linearGradient>
  <linearGradient id="linearGradient7197" y2="196.43" gradientUnits="userSpaceOnUse" x2="-52.194" gradientTransform="matrix(.9992 -.0412 .0412 .9992 151.9 -153.91)" y1="212.79" x1="-51.966">
   <stop id="stop529" style="stop-color:#f79a09" offset="0"/>
   <stop id="stop531" style="stop-color:#fefd00" offset=".736"/>
   <stop id="stop533" style="stop-color:#fefe26" offset=".77830"/>
   <stop id="stop535" style="stop-color:#fffe54" offset=".8369"/>
   <stop id="stop537" style="stop-color:#ffff76" offset=".889"/>
   <stop id="stop539" style="stop-color:#ffff8b" offset="0.932"/>
   <stop id="stop541" style="stop-color:#ffff92" offset=".96070"/>
  </linearGradient>
  <linearGradient id="linearGradient7199" y2="309.89" gradientUnits="userSpaceOnUse" x2="-161.46" gradientTransform="matrix(.9975 -.0707 .0707 .9975 254.6 -268.47)" y1="332.08" x1="-172.72">
   <stop id="stop546" style="stop-color:#f79a09" offset="0"/>
   <stop id="stop548" style="stop-color:#fefd00" offset=".736"/>
   <stop id="stop550" style="stop-color:#fefe26" offset=".77830"/>
   <stop id="stop552" style="stop-color:#fffe54" offset=".8369"/>
   <stop id="stop554" style="stop-color:#ffff76" offset=".889"/>
   <stop id="stop556" style="stop-color:#ffff8b" offset="0.932"/>
   <stop id="stop558" style="stop-color:#ffff92" offset=".96070"/>
  </linearGradient>
  <linearGradient id="linearGradient7201" y2="63.169" gradientUnits="userSpaceOnUse" x2="100.72" gradientTransform="matrix(.9975 -.0707 .0707 .9975 -10.967 13.651)" y1="87.747" x1="99.206">
   <stop id="stop563" style="stop-color:#de5c01" offset="0"/>
   <stop id="stop565" style="stop-color:#fefd00" offset=".736"/>
   <stop id="stop567" style="stop-color:#fefe26" offset=".77830"/>
   <stop id="stop569" style="stop-color:#fffe54" offset=".8369"/>
   <stop id="stop571" style="stop-color:#ffff76" offset=".889"/>
   <stop id="stop573" style="stop-color:#ffff8b" offset="0.932"/>
   <stop id="stop575" style="stop-color:#ffff92" offset=".96070"/>
  </linearGradient>
  <linearGradient id="linearGradient7203" y2="85.465" gradientUnits="userSpaceOnUse" x2="105.88" y1="113.86" x1="58.369">
   <stop id="stop580" style="stop-color:#b9120d" offset="0"/>
   <stop id="stop582" style="stop-color:#bb180d" offset=".078"/>
   <stop id="stop584" style="stop-color:#c0290c" offset=".1822"/>
   <stop id="stop586" style="stop-color:#c8450a" offset=".30130"/>
   <stop id="stop588" style="stop-color:#d36c08" offset=".4314"/>
   <stop id="stop590" style="stop-color:#e29e05" offset=".57060"/>
   <stop id="stop592" style="stop-color:#f4da02" offset=".71510"/>
   <stop id="stop594" style="stop-color:#fefd00" offset=".79210"/>
   <stop id="stop596" style="stop-color:#fefd07" offset=".8136"/>
   <stop id="stop598" style="stop-color:#fefd1b" offset=".84550"/>
   <stop id="stop600" style="stop-color:#fefe3c" offset=".88370"/>
   <stop id="stop602" style="stop-color:#fffe69" offset=".92680"/>
   <stop id="stop604" style="stop-color:#ffffa3" offset=".97360"/>
   <stop id="stop606" style="stop-color:#ffffc7" offset="1"/>
  </linearGradient>
  <linearGradient id="linearGradient7205" y2="100.18" gradientUnits="userSpaceOnUse" x2="102.91" gradientTransform="matrix(.9951 .0989 -.0989 .9951 10.384 -6.0754)" y1="93.582" x1="54.24">
   <stop id="stop612" style="stop-color:#de7210" offset=".0562"/>
   <stop id="stop614" style="stop-color:#f6c08f" offset="1"/>
  </linearGradient>
  <linearGradient id="linearGradient7207" y2="107.65" gradientUnits="userSpaceOnUse" x2="95.522" gradientTransform="matrix(.9895 .1448 -.1448 .9895 14.283 -5.8352)" y1="89.89" x1="39.013">
   <stop id="stop619" style="stop-color:#de7210" offset=".0562"/>
   <stop id="stop621" style="stop-color:#f6c08f" offset="1"/>
  </linearGradient>
  <linearGradient id="linearGradient7209" y2="680.4" gradientUnits="userSpaceOnUse" x2="-574.6" gradientTransform="matrix(.9837 -.1799 .1799 .9837 500.95 -643.73)" y1="628.96" x1="-601.47">
   <stop id="stop626" style="stop-color:#de7210" offset=".0562"/>
   <stop id="stop628" style="stop-color:#f6c08f" offset="1"/>
  </linearGradient>
  <clipPath id="clipPath5153" clipPathUnits="userSpaceOnUse">
   <rect id="rect5155" style="fill:url(#linearGradient5157)" rx="22.34" ry="22.34" height="82.213" width="82.213" y="7.7872" x="6.4468"/>
  </clipPath>
  <linearGradient id="linearGradient5157" y2="1046.1" gradientUnits="userSpaceOnUse" x2="48" gradientTransform="matrix(1.0277 0 0 1.0277 -1.7744 -983.25)" y1="962.62" x1="48">
   <stop id="stop3702" style="stop-color:#a8a8a8" offset="0"/>
   <stop id="stop3704" style="stop-color:#d7d7d7" offset="1"/>
  </linearGradient>
  <clipPath id="clipPath3009" clipPathUnits="userSpaceOnUse">
   <path id="path3011" style="opacity:.15;fill:#fff" d="m-2 956.36h-96v33.562l96 25.687v-59.25z"/>
  </clipPath>
 </defs>
 <metadata id="metadata11042">
  <rdf:RDF>
   <cc:Work rdf:about="">
    <dc:format>image/svg+xml</dc:format>
    <dc:type rdf:resource="http://purl.org/dc/dcmitype/StillImage"/>
    <dc:title/>
   </cc:Work>
  </rdf:RDF>
 </metadata>
 <g id="layer1" transform="translate(0 -956.36)">
  <g id="layer4" clip-path="url(#clipPath5153)" transform="matrix(1.119 0 0 1.119 -5.2143 949.65)">
   <g id="g6737" transform="matrix(1.0606 0 0 1.0606 -2.9075 -9.9633)" clip-path="url(#clipPath3722)">
    <path id="path6732" style="opacity:.05" transform="translate(0,-1)" d="m47.875 17.938c-13.239 0-25.141 5.5408-33.844 14.219-0.51528-1.0192-0.92539-2.1186-0.96875-3.25a1.0558 1.0558 0 0 0 -0.03125 -0.09375 1.0558 1.0558 0 0 0 0 -0.03125 1.0558 1.0558 0 0 0 0 -0.0625 1.0558 1.0558 0 0 0 0 -0.03125 1.0558 1.0558 0 0 0 -0.031 -0.032c0.000386 0.0022 0.0072-0.02848 0-0.0625a1.0558 1.0558 0 0 0 -0.03125 -0.03125 1.0558 1.0558 0 0 0 0 -0.03125c0.000226 0.000903 0.0024-0.02309 0-0.03125 0.000431 0.000957 0.0045-0.0224 0-0.03125a1.0558 1.0558 0 0 0 -0.031 -0.095 1.0558 1.0558 0 0 0 0 -0.03125 1.0558 1.0558 0 0 0 -0.032 -0.094c0.0015 0.0034-0.01043-0.05198-0.03125-0.09375 0.000647 0.0014-0.02228-0.01337-0.03125-0.03125-0.02093-0.04172-0.03303-0.09697-0.03125-0.09375a1.0558 1.0558 0 0 0 -0.062 -0.093 1.0558 1.0558 0 0 0 -0.031 -0.032 1.0558 1.0558 0 0 0 -0.031 -0.062 1.0558 1.0558 0 0 0 -0.032 -0.032 1.0558 1.0558 0 0 0 -0.094 -0.093 1.0558 1.0558 0 0 0 -0.031 -0.031c0.0017 0.0018-0.01149-0.0427-0.03125-0.0625 0.0027 0.0031-0.06544-0.09669-0.0625-0.09375 0.0029 0.0029-0.09687-0.06525-0.09375-0.0625 0.0031 0.0027-0.09704-0.09629-0.09375-0.09375a1.0558 1.0558 0 0 0 -0.0625 -0.03125c0.0012 0.000872-0.01528-0.02081-0.03125-0.03125a1.0558 1.0558 0 0 0 -0.09375 -0.03125 1.0558 1.0558 0 0 0 -0.15625 -0.0625c0.0022 0.0011-0.02758-0.01542-0.0625-0.03125s-0.06482-0.0322-0.0625-0.03125c0.0046 0.0019-0.12977-0.06403-0.125-0.0625 0.0048 0.0015-0.16112-0.0324-0.15625-0.03125 0.0049 0.0012-0.1612-0.03202-0.15625-0.03125 0.0049 0.000772-0.12999-0.03164-0.125-0.03125 0.005 0.000387-0.16126 0-0.15625 0 0.005 0-0.16124 0.000387-0.15625 0 0.005-0.000387-0.12995 0.03202-0.125 0.03125 0.0049-0.000772-0.16112 0.0324-0.15625 0.03125 0.0049-0.0012-0.16102 0.03278-0.15625 0.03125 0.0048-0.0015-0.12964 0.06439-0.125 0.0625 0.0046-0.0019-0.12948 0.06474-0.125 0.0625 0.0045-0.0022-0.16054 0.06508-0.15625 0.0625 0.0043-0.0026-0.12908 0.06541-0.125 0.0625a1.0558 1.0558 0 0 0 -0.0322 0.03s-1.7748 1.4506-3.25 4.3438c-1.4402 2.8244-2.673 7.1535-2.3125 13.219a1.0558 1.0558 0 0 0 0 0.09375 1.0558 1.0558 0 0 0 -0.03125 0.1875c-0.68223 0.9856-1.2527 1.9484-1.625 2.6875-0.21428 0.42539-0.40487 0.7833-0.53125 1.125-0.042 0.113-0.1032 0.295-0.1562 0.53-0.00304 0.01354-0.044403 0.09392-0.0625 0.21875-0.00241 0.01664 0.00226 0.01262 0 0.03125-1.383 2.9719-2.7265 7.0862-3.8125 13.219 0.0007452-0.0041-0.031726 0.12917-0.03125 0.125 0.0004756-0.0042-0.0002041 0.12919 0 0.125 0.0002041-0.0042 0.0000683 0.1292 0 0.125s0.0003404 0.12918 0 0.125c-0.0003404-0.0042 0.0006111 0.12915 0 0.125-0.0006111-0.0042 0.032129 0.12911 0.03125 0.125-0.0008792-0.0041 0.032394 0.12904 0.03125 0.125-0.00114-0.004 0.032653 0.09771 0.03125 0.09375-0.0014-0.004 0.064157 0.12886 0.0625 0.125-0.00166-0.0039 0.033154 0.12874 0.03125 0.125-0.0019-0.0037 0.064642 0.09736 0.0625 0.09375-0.00214-0.0036 0.096122 0.12846 0.09375 0.125-0.00237-0.0035 0.065092 0.09705 0.0625 0.09375-0.00259-0.0033 0.0653 0.09688 0.0625 0.09375-0.0028-0.0031 0.096747 0.09669 0.09375 0.09375-0.003-0.0029 0.096932 0.06524 0.09375 0.0625-0.00318-0.0027 0.097103 0.09628 0.09375 0.09375-0.00335-0.0025 0.09726 0.06481 0.09375 0.0625-0.00351-0.0023 0.12865 0.06457 0.125 0.0625-0.002809-0.0016 0.032265 0.04655 0.0625 0.0625-0.32498 2.9421-0.49166 6.295-0.21875 10.531-0.0002431-0.0045 0.031812 0.12952 0.03125 0.125-0.000562-0.0045 0.0008782 0.12947 0 0.125-0.0008782-0.0045 0.03244 0.16064 0.03125 0.15625-0.00119-0.0044 0.063996 0.1293 0.0625 0.125s0.033044 0.12918 0.03125 0.125c-0.001794-0.0042 0.064584 0.12905 0.0625 0.125-0.002084-0.004 0.064864 0.09764 0.0625 0.09375-0.002363-0.0039 0.065131 0.12872 0.0625 0.125-0.002631-0.0037 0.096636 0.09727 0.09375 0.09375-0.002886-0.0035 0.096876 0.12831 0.09375 0.125-0.003126-0.0033 0.097101 0.09683 0.09375 0.09375-0.003351-0.0031 0.097309 0.06534 0.09375 0.0625-0.003559-0.0028 0.12875 0.09633 0.125 0.09375-0.00375-0.0026 0.097672 0.06481 0.09375 0.0625-0.003922-0.0023 0.12907 0.06453 0.125 0.0625-0.0040748-0.002 0.12921 0.06424 0.125 0.0625-0.0042074-0.0017 0.12932 0.06394 0.125 0.0625-0.004319-0.0014 0.12941 0.03238 0.125 0.03125-0.00441-0.0011 0.16073 0.03207 0.15625 0.03125-0.004478-0.000818 0.12952 0.03175 0.125 0.03125-0.002262-0.000251 0.027745-0.0026 0.0625 0 0.88136 3.549 2.2519 7.3967 4.5312 11.656 0.24968 0.47232 0.52608 0.90069 0.78125 1.3438 0.015914 0.02763 0.015334 0.06619 0.03125 0.09375 0.019614 0.05355 0.052071 0.1344 0.0625 0.15625 0.01655 0.03467 0.046063 0.06274 0.0625 0.09375 0.025441 0.04378 0.068328 0.08136 0.09375 0.125 0.016672 0.02962 0.011412 0.05938 0.03125 0.09375 0.32289 0.55213 0.6464 1.0682 0.9375 1.5312 7.3011 11.751 17.73 18.713 29.375 21.25 0.11826 0.0267 0.2708 0.0564 0.15625 0.0312 0.98416 0.21075 1.9866 0.38107 3 0.53125 0.10508 0.0162 0.18055 0.0256 0.21875 0.0312 0.50608 0.0726 0.9445 0.12039 1.25 0.15625 0.63119 0.0775 1.2836 0.16132 2 0.21875 0.86623 0.0662 1.7443 0.13419 2.6562 0.15625 0.71039 0.0181 1.51 0.0472 2.3125 0.0312 0.82072-0.0151 1.5587-0.0834 2.25-0.125 0.28907-0.0187 0.55278-0.0365 0.8125-0.0625a1.0558 1.0558 0 0 0 0.0625 0 1.0558 1.0558 0 0 0 0.125 0c3.1026-0.20253 6.229-0.68326 9.3438-1.4375 20.658-5 30.076-20.237 34.093-33.904 4.016-13.662 2.906-26.031 2.906-26.031a1.0558 1.0558 0 0 0 -0.031 -0.094c0.000902 0.0055-0.03262-0.16162-0.03125-0.15625 0.0014 0.0054-0.03307-0.16148-0.03125-0.15625 0.0018 0.0052-0.06476-0.16131-0.0625-0.15625 0.0023 0.0051-0.09644-0.12985-0.09375-0.125 0.0027 0.0048-0.06559-0.16085-0.0625-0.15625 0.0031 0.0046-0.09722-0.12932-0.09375-0.125 0.0035 0.0043-0.12883-0.129-0.125-0.125 0.0038 0.004-0.12916-0.12866-0.125-0.125 0.0042 0.0037-0.12946-0.09704-0.125-0.09375 0.0045 0.0033-0.12972-0.09665-0.125-0.09375 0.0047 0.0029-0.1612-0.06499-0.15625-0.0625 0.005 0.0025-0.13015-0.06455-0.125-0.0625 0.0051 0.0021-0.16155-0.0641-0.15625-0.0625s-0.19292-0.06365-0.1875-0.0625c0.0054 0.0011-0.16175-0.000678-0.15625 0s-0.16179-0.03146-0.15625-0.03125c0.0055 0.000205-0.16178 0.000269-0.15625 0 0.0055-0.000269-0.16174 0.03199-0.15625 0.03125 0.0055-0.000742-0.19291 0.03246-0.1875 0.03125 0.0033-0.000744-0.04618 0.01849-0.09375 0.03125-0.61-3.607-1.351-7.445-2.344-9.969-1.529-3.883-2.635-5.924-3.531-7.093-0.457-0.596-0.901-0.99-1.313-1.25-0.256-0.162-0.507-0.255-0.718-0.313 0.1 0.028-0.058-0.069-0.438-0.094-0.03768-0.0025-0.17358-0.0084-0.28125 0-0.35158 0.02732-0.28199 0.06943-0.25 0.0625-0.06073 0.01316-0.09415 0.0234-0.125 0.03125-0.01543 0.0039-0.02077-0.0027-0.03125 0a1.0558 1.0558 0 0 0 -0.125 0.0625c-0.000115 0.000045-0.28118 0.12496-0.28125 0.125-0.000074 0.000044-0.53122 0.46871-0.53125 0.46875a1.0558 1.0558 0 0 0 -0.03125 0c0.0026-0.0033-0.06486 0.09721-0.0625 0.09375 0.0024-0.0035-0.06464 0.1286-0.0625 0.125 0.0021-0.0036-0.0644 0.09748-0.0625 0.09375 0.0015-0.003-0.04902 0.06514-0.0625 0.09375-1.5757-1.7027-3.443-3.3593-5.9375-4.6562-0.14341-0.12312-0.18795-0.14744-0.125-0.09375a1.0558 1.0558 0 0 0 -0.0625 -0.03125c-0.0064-0.0055-0.0248 0.0055-0.03125 0-0.0046-0.0039 0.0046-0.02733 0-0.03125a1.0558 1.0558 0 0 0 -0.09375 -0.0625c-0.0065-0.0055-0.02478 0.0055-0.03125 0-8.369-7.064-19.137-11.406-30.937-11.406z"/>
    <path id="path6728" style="opacity:.1" transform="translate(0,-1)" d="m47.875 19c-13.455 0-25.571 5.735-34.156 14.812-0.057-0.083-0.135-0.165-0.188-0.25-0.128-0.204-0.237-0.371-0.343-0.562-0.681-1.225-1.133-2.619-1.188-4.062a0.86161 0.86161 0 0 0 -0.03125 -0.0625 0.86161 0.86161 0 0 0 0 -0.03125 0.86161 0.86161 0 0 0 -0.03125 -0.125 0.86161 0.86161 0 0 0 0 -0.03125 0.86161 0.86161 0 0 0 -0.03125 -0.0625 0.86161 0.86161 0 0 0 0 -0.03125 0.86161 0.86161 0 0 0 -0.03125 -0.0625 0.86161 0.86161 0 0 0 -0.0625 -0.0625 0.86161 0.86161 0 0 0 -0.03125 -0.0625 0.86161 0.86161 0 0 0 -0.031 -0.032 0.86161 0.86161 0 0 0 -0.15625 -0.15625 0.86161 0.86161 0 0 0 -0.03125 0 0.86161 0.86161 0 0 0 -1 0s-1.5817 1.2485-2.9688 3.9688c-1.3819 2.7102-2.6098 6.9466-2.1875 13.031h-0.03125c-0.0009715 0.10314-0.022417 0.23868-0.03125 0.375-0.7471 1.056-1.3459 2.042-1.7182 2.781-0.2054 0.408-0.3682 0.76-0.4688 1.031-0.0502 0.136-0.0958 0.245-0.125 0.375-0.0091 0.041-0.0248 0.104-0.0312 0.157-1.3768 2.876-2.7349 7.02-3.8438 13.281a0.86161 0.86161 0 0 0 1.125 0.96875c-0.39277 3.0948-0.61116 6.7391-0.3125 11.375a0.86161 0.86161 0 0 0 1.4375 0.59375c0.82737 3.7248 2.2924 7.8451 4.75 12.438 0.32369 0.61231 0.66008 1.1977 1 1.7812-0.15529-0.26866-0.15672-0.23191 0.03125 0.09375 0.30278 0.51776 0.63673 1.0216 0.9375 1.5 7.1631 11.529 17.306 18.302 28.688 20.781 0.08987 0.0203 0.13832 0.0273 0.15625 0.0312 0.96198 0.206 1.9464 0.38438 2.9375 0.53125 0.08822 0.0136 0.15992 0.0225 0.21875 0.0312 0.44396 0.0637 0.85679 0.0825 1.2188 0.125 0.63783 0.0783 1.2869 0.16409 1.9688 0.21875 0.86916 0.0664 1.7205 0.13513 2.5938 0.15625 0.71867 0.0183 1.4875 0.0464 2.25 0.0312 0.77113-0.0142 1.5042-0.082 2.2188-0.125 0.31946-0.0206 0.63864-0.0631 1-0.0937v0.0312c3.041-0.19851 6.0993-0.66599 9.1562-1.4062 20.256-4.9092 29.391-19.742 33.344-33.188 3.9524-13.446 2.8438-25.625 2.8438-25.625a0.86161 0.86161 0 0 0 -1.6875 -0.0625l-0.25 1.5312c-0.11722-0.78846-0.07548-0.74467-0.21875-1.625-0.64257-3.9484-1.4904-8.4811-2.5312-11.125-1.5093-3.8334-2.6103-5.7741-3.4062-6.8125-0.39795-0.51922-0.73579-0.81325-1.0312-1-0.14773-0.09337-0.29571-0.14908-0.4375-0.1875-0.0709-0.01921-0.1408-0.0574-0.21875-0.0625-0.03898-0.0025-0.06736-0.0045-0.125 0-0.02882 0.0022-0.066 0.01847-0.125 0.03125-0.0295 0.0064-0.12477 0.03116-0.125 0.03125-0.000115 0.000045-0.12493 0.06246-0.125 0.0625-0.000074 0.000044-0.24997 0.21871-0.25 0.21875a0.86161 0.86161 0 0 0 -0.125 0.84375c0.44124 1.1241 0.76476 2.092 1 2.9688-1.712-2.6275-4.4535-5.8182-8.5938-7.9062-0.03944-0.03386-0.08545-0.06002-0.125-0.09375-0.02149-0.01062-0.04094-0.0207-0.0625-0.03125-8.21-6.983-18.801-11.252-30.407-11.252z"/>
    <path id="ellipse4980" style="opacity:.15" d="m47.875 18.875c-13.587 0-25.819 5.893-34.281 15.25-0.26621-0.35041-0.53771-0.70555-0.78125-1.0938-0.1287-0.20566-0.25522-0.40887-0.375-0.625-0.73212-1.3182-1.2509-2.8293-1.3125-4.4375 0 0-0.028 0.02873-0.0312 0.03125-0.002-0.03224 0.001-0.0614 0-0.09375 0 0-5.6958 4.3572-4.8438 16.312-0.002 0.21234-0.0251 0.39849-0.0312 0.59375-1.6789 2.293-2.4414 4.178-2.3439 4.282-1.3589 2.786-2.7531 6.946-3.875 13.281 0 0 0.79793-2.5114 2.375-5.3438-0.004 0.0202 0.004 0.0423 0 0.0625-1.1561 3.575-2.0658 9.109-1.5312 17.406 0 0 0.14738-1.8632 0.625-4.4375 0.37054 4.7228 1.8691 10.457 5.4375 17.125 0.3082 0.58301 0.6557 1.1589 1 1.75 0.0166 0.02872 0.0146 0.06499 0.0312 0.09375 0.29143 0.49834 0.60332 0.98689 0.90625 1.4688 7.051 11.349 16.989 17.973 28.156 20.406 0.0523 0.0118 0.10387 0.0197 0.15625 0.0312 0.9503 0.2035 1.9084 0.388 2.875 0.53125 0.0719 0.0111 0.14682 0.0205 0.21875 0.0312 0.39452 0.0566 0.79054 0.0784 1.1875 0.125 0.64537 0.0792 1.2871 0.16661 1.9375 0.21875 0.85188 0.0651 1.7016 0.10418 2.5625 0.125 0.72545 0.0185 1.4579 0.0457 2.1875 0.0312 0.72846-0.0134 1.4544-0.0809 2.1875-0.125 0.33453-0.0216 0.66494-0.0341 1-0.0625 2.9926-0.19535 6.0238-0.64674 9.0312-1.375 39.86-9.6604 35.531-57.906 35.531-57.906l-1.125 7.1562s-1.5832-13.239-3.5312-18.188c-2.9856-7.5826-4.3352-7.5109-4.3438-7.5 1.9995 5.0939 1.6562 7.8438 1.6562 7.8438s-2.9726-8.0677-10.625-11.812c-8.086-6.941-18.556-11.156-30.032-11.156z"/>
    <g id="Firefox" transform="matrix(.77953 0 0 .78139 -1.8296 19.88)">
     <g id="Globe">
      <ellipse id="ellipse10" style="fill:#110070" d="m 123.091,59.375 c 0,32.791907 -26.565632,59.375 -59.335999,59.375 C 30.984634,118.75 4.4190025,92.166907 4.4190025,59.375 4.4190025,26.583093 30.984634,0 63.755001,0 96.525368,0 123.091,26.583093 123.091,59.375 z" cx="63.755" rx="59.336" cy="59.375" ry="59.375"/>
      <ellipse id="ellipse33" style="fill:url(#radialGradient7095)" d="m 121.97,59.375 c 0,32.172797 -26.063742,58.254 -58.214999,58.254 C 31.603744,117.629 5.5400009,91.547797 5.5400009,59.375 5.5400009,27.202203 31.603744,1.1209984 63.755001,1.1209984 95.906258,1.1209984 121.97,27.202203 121.97,59.375 z" cx="63.755" rx="58.215" cy="59.375" ry="58.254"/>
      <path id="path42" style="fill:url(#radialGradient7097)" d="m55.405 89.446c-0.072-0.316-0.857-1.233-1.458-1.438-0.599-0.205-1.188 0.884-1.574-0.924-1.266 0.726-1.812-0.2-1.812-0.2s-1.365 0.08-1.629 1.751c-0.65 0.769-2.316 3.566-1.431 0.657 0.891-2.927-0.94-0.23-1.11 1.24-0.318 0.653-0.855 0.719-0.517-2.218-1.173-0.405-1.772-3.127-1.129-3.179-0.747-1.041-0.16-2.633 0.462-2.548 0.622 0.08 1.69-1.36 1.657-1.694-0.033-0.333 0.482-0.095 0.45-2.336-0.033-2.247 0.847-2.803 0.919-0.924 0.076 1.872 1.194-0.613 1.079-1.566-0.116-0.949 0.112-3.094 0.793-1.826-0.793-3.137-0.167-3.261 0.309-1.173 1.193 0.094 1.234 0.73 1.234 0.73 1.321-0.325 1.954 0.67 2.056 1.228 1.224-1.445 2.46 0.113 2.46 0.113s0.853-0.283 0.445 1.2c-0.41 1.478 1.772 0.678 1.251-0.384 1.073-0.543 2.666 1.102 3.168 2.224 0.502 1.127-0.86 2.723 0.202 3.109 1.068 0.384 0.6 2.242 0.6 2.242s2.232 1.238 0.683 2.301l-0.528 1.265s1.01 1.127 1.354 0.456c0.344-0.672 0.466 0.683 0.466 0.683-0.129-0.24 0.248 1.396 1.64 1.74 1.398 0.341 2.283 2.55 0.731 2.578-1.546 0.025-1.666-0.017-2.085 0.886-0.417 0.899-2.391 0.931-3.413-0.233-1.087 0.368-3.021-0.106-2.452-0.976-0.938 0.547-1.824-0.922-1.091-1.577 0.733-0.653-0.412-1.499-0.797-0.563-0.381 0.935-2.404 1.396-2.263-0.195 0.042-0.472 1.12-0.748 1.134-0.354 0.197 0.455 0.277-0.036 0.196-0.095z"/>
      <g id="g44">
       <path id="path53" style="fill:url(#radialGradient7099)" d="m103.54 43.916c0.309 0.306 0.917 0.238 1.254 0.144 0.339-0.097 0.291-0.337 0.583-0.431 0.287-0.097 1.397 0.431 1.107 1.584-0.673 0.094-0.917 0.912-0.917 0.912s-0.673 0.287-1.013 0.144c-0.338-0.144-0.338-0.097-0.821-0.05-0.483 0.05-1.643-0.622-0.387-0.622 1.257 0-0.143-0.577-0.675-0.577-0.53 0-0.097-0.528 0.532-0.384-0.436-0.72-0.195-1.251 0.337-0.72z"/>
       <path id="path62" style="fill:url(#radialGradient7101)" d="m99.188 46.524c-0.337 0.334 0.049 1.344 0.483 1.294 0.433-0.047 1.11-0.238 1.11-0.238s0.337 0.672 0 0.866c-0.337 0.19-1.319 0.106-0.047 0.575 1.304 0.479 1.64 0.334 1.737 0.094 0.097-0.238 0.53-1.054 0.773-1.006 0.193-0.431-0.676-0.815-0.192-1.105 0.479-0.288 0.096-1.343 0.096-1.343s-0.677 0.047-0.966 0.528c-0.29 0.48-0.674-0.047-0.964-0.047-0.049 0.287-0.243 0.527-0.243 0.527l-0.193-0.434c-0.001-0.001-1.354-0.047-1.594 0.289z"/>
      </g>
      <path id="path73" style="fill:url(#radialGradient7103)" d="m90.165 47.314c-0.042-0.123 0.384-0.62 0.27 0.024-0.262 0.458 1.058 0.87 1.428 0.36 1.241-1.7-1.17-2.522-2.216-1.732-1.056 0.797-1.638-0.912-0.425-1.155 1.209-0.245 1.311-2.43-0.021-2.438 1.176-0.58-0.453-2.318-1.799-2.615-0.217-1.87-2.189-3.059-3.226-2.38-1.047 0.681-1.137 0.561-2.671-0.37-1.528-0.927-2.264 1.928-1.14 3.175 1.131 1.256 0.311 3.281 0.358 2.935 0 0-0.426 0.766-0.398 1.053-1.294 0.439-1.672-1.383-2.475-1.786-0.585 0.763-1.53 1.17-1.53 1.17l0.071-1.553s-4.017-2.188-5.251-1.575c-1.521 0.47-1.881 3.991-0.5 4.506 1.383 0.521-1.735 1.818 1.393 5.116 3.213 3.386 4.455 3.483 5.111 2.932 0.162-0.139 0.442-0.347 0.784-0.578 0.031 0.13 0.083 0.255 0.163 0.373 0.804 1.209-1.869 2.162-2.242 3.894-0.379 1.751-0.03 5.007 1.556 5.118 0.302-1.735 3.27-1.122 1.655 0.45-1.644 1.603-0.491 1.886-0.491 1.886s0.078 3.003 2.592 2.043c-0.073 0.172-0.132 0.392-0.167 0.632-0.703-0.142-2.421-0.357-2.841 0.841-0.53 1.512-2.774-0.512-4.344 0.167-1.563 0.674-3.844 2.887-3.076 4.443 1.476-0.7 2.606 2.456 0.544 1.808-2.069-0.65-1.667 0.583-1.667 0.583s-2.154 1.699-0.137 3.508c-0.775 0.118-2.152 0.981-1.688 2.874 0 0-0.885 0.032-1.004 1.726-2.887 0.582-2.711 1.478 1.633 0.496-1.753 0.91 1.226 1.338 2.546 1.217 1.322-0.12 4.792 1.591 2.185 1.608-2.612 0.016-1.834 1.294 1.294 1.355 3.123 0.064 2.795 0.788 3.259 0.756s2.484 1.561 2.374 2.444c-0.113 0.884 2.116 1.801 3.566 0.788 0.074 0.919 3.886 0.202 4.45-1.455 4.128 0.631 4.033-0.139 3.114-0.629-2.067-0.316-5.86-3.063-1.746-1.65 4.093 1.411 0.15-1.11-0.929-2.079-2.35-0.457-2.47-2.416-2.47-2.416s1.298-0.739 0.274-2.586c2.539-0.471 1.006-1.364 1.291-2.215 0.285-0.854 1.574-1.942 2.016-2.03 0.084-0.115 0.775 0.023 0.134 0.283-0.554 0.006-0.161 1.566 0.502 1.646 2.242 0.273 1.586-2.654 0.269-3.243-1.32-0.594-0.135-2.204 0.792-1.12 0.927 1.082 2.993-0.133 2.218-1.504 1.232 0.854 1.896-1.909 1.372-3.495 1.648-1.429 1.595-4.278 0.32-4.915-0.627-0.313-0.93-0.516-1.082-0.905 0.757-0.358 1.761-0.622 2.155-0.269 0.641 0.579 2.425-1.018 2.312-2.885 0.751 0.412 1.947-3.395 0.931-4.727 2.326-3.252 1.699-3.547 0.921-3.002-1.17 1.622-5.013 3.563-2.034 0.688 2.892-2.791-0.769-0.675-1.994-0.222-1.441 1.805-2.97 0.938-2.97 0.938s0.065-1.479-1.796-1.509c0.86-2.373-0.526-1.516-1.011-2.164-0.486-0.647-0.661-2.229-0.512-2.634z"/>
      <path id="path82" style="fill:url(#radialGradient7105)" d="m60.007 23.541c-0.361 0.941 1.178 2.47 1.951 1.978 0.775-0.495 1.885-1.482 1.885-1.482s1.177 0.945 0.701 1.619c-0.479 0.672-2.386 1.428 0.374 1.122 2.831-0.313 3.347-0.897 3.333-1.437-0.015-0.538 0.141-2.469 0.631-2.603 0.015-0.99-1.925-0.898-1.253-1.889 0.672-0.986-0.905-2.606-0.905-2.606s-1.228 0.719-1.382 1.888c-0.155 1.167-1.304 0.538-1.848 0.806 0.141 0.584-0.026 1.212-0.026 1.212l-0.711-0.629c0.001-0.001-2.571 1.168-2.75 2.021z"/>
      <path id="path91" style="fill:url(#radialGradient7107)" d="m64.61 72.966c-0.337 0.334 0.05 1.343 0.483 1.296 0.434-0.049 1.11-0.24 1.11-0.24s0.337 0.672 0 0.865c-0.339 0.19-1.319 0.108-0.049 0.575 1.303 0.48 1.642 0.336 1.739 0.096 0.095-0.24 0.529-1.056 0.771-1.009 0.195-0.431-0.676-0.814-0.193-1.102 0.483-0.291 0.099-1.346 0.099-1.346s-0.676 0.048-0.966 0.529c-0.29 0.479-0.676-0.049-0.966-0.049-0.049 0.288-0.24 0.528-0.24 0.528l-0.193-0.431c-0.001 0-1.354-0.048-1.595 0.288z"/>
      <g id="g93">
       <defs id="defs95">
        <ellipse id="XMLID_8_" cx="63.755" rx="58.215" cy="59.375" ry="58.254"/>
       </defs>
       <clipPath id="clipPath3891">
        <use id="use3893" xlink:href="#XMLID_8_" height="127.219" width="132.72" y="0" x="0"/>
       </clipPath>
       <path id="path108" style="fill:url(#linearGradient7109)" clip-path="url(#XMLID_68_)" d="m65.061 1.002c-0.912 0.203 0.613 3.503 0.613 3.503s-0.055 2.216 0.321 2.329c0.374 0.113 2.852 0.733 4.147 2.345 1.301 1.614 0.625 2.463-0.458 1.997-1.084-0.465-0.797 0.959-0.797 0.959s3.27 1.063 0.8 0.995c-2.475-0.066 1.666 1.741 1.393 1.93-0.273 0.191-0.429 1.231-0.429 1.231s-2.183 0.182-0.333 0.959c6.26 2.637-0.669 1.925-0.669 1.925l-0.884 1.087 1.749 2.194 1.345 0.962s2.833-0.945 3.716-1.093c0.884-0.146 3.114-1.815 3.114-1.815s0.669 0.478 0.169-0.497c-0.501-0.976 1.841-0.54 2.425 0.186l4.134 1.867c0.054 0.144 0.146 0.274 0.292 0.375 0.806 0.565-0.729 1.535-0.573 2.562 0.156 1.016 1.093 2.704 2.121 2.526-0.18-0.969 1.851-1.086 1.144-0.006-0.706 1.077 0.077 1.056 0.077 1.056s0.653 1.521 2.034 0.676c-0.056 0.464 0.227 1.397 1.413 1.459 0 0-0.126 0.506 0.848 0.865-0.132 1.737 0.424 1.792 0.561-0.846 0.245 1.157 0.992-0.471 1.141-1.25 0.15-0.784 1.756-2.505 1.322-0.984-0.431 1.508 4.735 2.06 5.308 0.259 0.578-1.815 2.637-2.763 2.699-3.038 0.062-0.281-4.583-0.712-4.07-0.493 0.514 0.219 1.47-0.948 1.115-1.986 0.576 0.116 0.83-2.301-0.083-2.927 1.143-2.405 0.651-2.48 0.182-2.001-0.57 1.205-2.922 3.023-1.327 0.783 1.609-2.263-0.653-0.284-1.438 0.208-0.689 1.341-1.899 1.08-1.899 1.08s-0.222-0.911-1.516-0.607c0.151-1.612-0.653-0.838-1.12-1.154-0.285-0.193-0.558-0.627-0.726-0.999 1.115 0.452 2.612 0.933 2.354 0.104-0.167-0.542 2.112 0.643 2.192 0.396l2.848-0.396 2.769-1.75c-17.692-15.814-38.019-14.976-38.019-14.976z"/>
       <path id="path117" style="fill:url(#linearGradient7111)" clip-path="url(#XMLID_68_)" d="m38.752 6.095c-10.573 4.747-18.551 14.531-18.551 14.531s0.938 2.145 1.265 1.987c0.33-0.156-2.361 5.628-0.386 5.954 1.985 0.325 7.696-3.578 6.637-3.22-1.056 0.356 0.595-2.112 0.595-2.112s2.972-1.318 1.214 0.202c-1.743 1.511 2.318 0.187 2.255 0.496-0.064 0.311 0.525 1.147 0.525 1.147s-1.393 1.494 0.406 0.892c6.172-2.075 0.812 1.779 0.812 1.779l0.106 1.312 2.67 0.464 1.578-0.15s1.381-2.436 1.914-3.098c0.535-0.663 1.028-3.284 1.028-3.284s0.803-0.084-0.213-0.468c-1.016-0.385 0.972-1.583 1.886-1.434l4.303-1.336c0.138 0.068 0.292 0.103 0.47 0.082 0.985-0.114 0.489 1.603 1.294 2.25 0.796 0.644 2.627 1.264 3.283 0.469-0.784-0.594 0.674-2.011 0.86-0.751 0.187 1.249 0.767 0.723 0.767 0.723s1.543-2.654 2.036-4.177c0.27 0.377 2.788-3.309 2.025-5.067-0.771-1.78 0.479-3.456 0.34-3.715-0.143-0.256-0.896 0.528-0.34 0.34 0.561-0.192-1.589 0.772-1.874-2.061-0.288-2.89-0.707 0.243-0.985 1.169 0.377 1.508 4.29-6.093 4.29-6.093l5.044-2.057c0 0.004-11.481-0.957-25.254 5.226z"/>
      </g>
      <ellipse id="ellipse132" style="opacity:.5;fill:url(#linearGradient7113)" d="m 93.477001,23.271 c 0,11.029679 -13.800823,19.971001 -30.825001,19.971001 -17.024177,0 -30.825,-8.941322 -30.825,-19.971001 0,-11.029679 13.800823,-19.9710008 30.825,-19.9710008 17.024178,0 30.825001,8.9413218 30.825001,19.9710008 z" cx="62.652" rx="30.825" cy="23.271" ry="19.971"/>
     </g>
     <filter id="blurshadow" height="1.5" width="1.5" color-interpolation-filters="sRGB" y="-.25" x="-.25">
      <feGaussianBlur id="feGaussianBlur135" stdDeviation="1.5" result="blur" in="SourceAlpha"/>
      <feOffset id="feOffset137" in="blur" result="shift" dx="1" dy="1"/>
      <feMerge id="feMerge139">
       <feMergeNode id="feMergeNode141" in="shift"/>
       <feMergeNode id="feMergeNode143" in="SourceGraphic"/>
      </feMerge>
     </filter>
     <g id="Fox">
      <g id="g146">
       <path id="path159" style="fill:url(#linearGradient7115)" d="m125.32 43.084-1.426 9.15s-2.039-16.94-4.538-23.273c-3.83-9.704-5.534-9.626-5.545-9.612 2.565 6.519 2.1 10.021 2.1 10.021s-4.545-12.387-16.562-16.328c-14.232-4.665-21.482-2.979-21.428-2.914 0.054 0.066 14.709 2.562 17.308 6.133 0 0-6.225 0-12.42 1.785-0.28 0.08 22.793 2.882 27.51 25.938 0 0-2.529-5.277-5.657-6.173 2.057 6.258 1.529 18.133-0.43 24.035-0.252 0.759-0.51-3.281-4.369-5.021 1.236 8.857-0.074 22.905-6.219 26.775-0.479 0.301 3.852-13.868 0.871-8.39-17.797 27.287-38.956 11.04-47.538 5.249 6.888 1.688 14.205 0.472 18.441-2.423 4.275-2.922 6.804-5.058 9.075-4.553 2.27 0.507 3.781-1.771 2.018-3.792-1.765-2.025-6.051-4.808-11.849-3.291-4.089 1.071-9.156 5.595-16.891 1.014-6.599-3.91-6.554-7.085-6.554-9.108 0-2.024 1.8-5.1 5.076-4.595 2.934 0.453 1.388-1.27 4.545 0 0.86 0.346-0.086-4.129-1.31-6.996 2.357-4.919 10.004-6.381 10.575-6.812 1.034-0.782 0.465-1.172 0.818-2.35 0.33-1.097 0.541-4.062-8.017-3.243-3.938 0.377-6.443-4.726-7.264-5.965 0.266-1.577 0.693-3.018 1.271-4.338 0.587-1.203 1.228-2.305 1.868-3.139 0.2-0.261 0.374-0.49 0.532-0.703 1.276-1.488 2.842-2.76 4.722-3.818 0.981-0.554-10.969-0.035-16.346 6.974-1.443 0.188-3.423-0.228-5.636-0.228-2.774 0-4.953 0.303-6.97 0.81-0.323 0.081-0.844 0.037-1.481-0.115-1.775-1.839-6.797-6.259-7.027-12.254 0 0-7.302 5.612-6.209 20.912-0.096 8.461-2.594 6.042-3.879 10.634-0.598 2.176 0.899 3.815 0.899 3.879-0.002 0.033 1.796-1.946 1.796-1.946s-11.323 19.617 3.3 44.66c12.604 21.589 33.755 31.13 55.703 29.272 3.839-0.25 7.706-0.822 11.564-1.754 51.133-12.363 45.573-74.107 45.573-74.107z"/>
      </g>
      <path id="path166" style="fill:url(#linearGradient7117)" d="m45.469 27.61s2.21 6.039 7.167 6.019c9.457-0.038 9.646 0.093 9.707 1.243 0.188 3.5-1.54 4.647-2.201 5.145-0.663 0.497-9.668 5.718-9.999 7.211-0.331 1.492-10.391-14.198-10.391-14.198l5.717-5.42z"/>
      <path id="path179" style="fill:url(#linearGradient7119)" d="m50.504 34.12s3.072 3.922 0.749 5.491c-2.838 1.916 4.012 2.335 6.494 0.942s4.006-3.44 4.093-3.745 0.902-3.054-4.279-2.096c-3.276 0.606-4.476 0.746-7.057-0.592z"/>
      <path id="path186" style="fill:url(#linearGradient7121)" d="m60.143 40.017c0.502-0.378 1.616-1.137 2.042-3.011-0.311 0.126-0.34-0.23-0.707-0.076-6.955 7.255-7.221 2.203-11.017 3.22-3.46 0.947-4.237 2.246-4.383 2.347 0.051 0.073 0.104 0.148 0.155 0.221 0.997 0.506 1.953 2.122 2.671 3.564 0.702 0.836 1.173 1.248 1.241 0.945 0.33-1.493 9.335-6.714 9.998-7.21z"/>
      <path id="path193" style="fill:url(#linearGradient7123)" d="m8.18 45.782c-1.42 2.979-10.532 18.377 4.339 44.005 14.552 25.084 39.737 33.276 65.45 27.71 7.34-1.588 15.803-7.331 21.196-11.545-3.465-8.738-1.414-8.41-3.271-7.26-20.714 12.82-37.18 0.174-49.924-1.443-46.883-5.942-37.625-51.558-37.625-51.558l-0.165 0.093z"/>
      <path id="path200" style="fill:url(#linearGradient7125)" d="m47.219 80.933c4.419 1.325 14.06 0.183 18.201-2.897 2.79-2.074 4.898-3.638 6.671-4.292-3.134-2.129-3.184 0.889-9.774 2.415-13.728 3.185-20.393-3.695-20.393-3.695 0.972 5.444 4.372 8.095 5.902 9.036-0.406-0.36-0.619-0.571-0.607-0.567z"/>
      <path id="path207" style="fill:url(#linearGradient7127)" d="m32.332 105.79s-11.428-12.896-14.618-27.338c-4.704-4.443-8.042-8.2-10.259-10.917 1.28 10.277 6.52 26.232 24.877 38.255z"/>
      <path id="path214" style="fill:url(#linearGradient7129)" d="m22.799 94.082s-7.887-11.228-4.93-20.762c2.66-8.571-0.565-3.472-2.441-1.64-1.895 1.851-2.869-5.464-2.821-6.307 0.003-0.018 0.001-0.026-0.001-0.027-0.119-0.025-3.754 17.526 10.193 28.736z"/>
      <path id="path221" style="fill:url(#linearGradient7131)" d="m11.115 84.294s-1.798-22.788 3.885-26.009c9.025-5.115 0.753-3.919-1.864-2.499-2.645 1.433-2.4-8-2.026-8.896 0.367-0.883-9.315 8.918 0.005 37.404z"/>
      <path id="path223" style="fill:#a40000" d="m50.601 17.239s-7.145 7.257-7.092 7.282c0.054 0.026 0.205 9.315 0.438 11.948 0.856 1.011 3.524 7.588 1.482 6.128-2.086-1.49-0.582-1.522-0.4-0.765 0.005 0.025 0.005 0.037 0 0.037-0.138 0.064-5.185-10.923 5.572-24.63z"/>
      <path id="path232" style="fill:url(#linearGradient7133)" d="m16.613 11.647s-7.594 5.825-6.143 21.805c5.878-5.277 14.19-9.222 14.19-9.222-1.395-0.878-7.794-5.997-8.047-12.583z"/>
      <path id="path241" style="fill:url(#linearGradient7135)" d="m35.328 29.122 11.406 14.185c-3.291-13.93-0.761-22.288 7.34-26.847 1.199-0.676-16.925 0.243-18.746 12.662z"/>
      <path id="path250" style="fill:url(#linearGradient7137)" d="m27.292 64.164c1.945-12.256 19.002-10.454 19.002-10.454-0.761 0.565-3.683 0.903-4.52 3.241-2.762 7.719-0.128 24.581 17.078 31.653 1.815 0.748-34.434-6.328-31.56-24.44z"/>
      <path id="path265" style="fill:url(#linearGradient7139)" d="m62.087 37.338c-0.084-0.015-0.158-0.013-0.195 0.037-0.21 0.281-1.021 1.239-2.95 2.81-3.583 2.915-5.093 2.177-7.762 2.774-1.215 0.271-2.37 1.087-3.148 1.741 0.315 0.509 0.609 1.057 0.871 1.582 0.702 0.836 1.173 1.248 1.241 0.945 0.331-1.493 9.336-6.714 9.999-7.211 0.47-0.353 1.468-1.054 1.944-2.678z"/>
      <path id="path274" style="fill:url(#linearGradient7141)" d="m51.09 55.865c0.1-2.59-0.081-8.881-2.774-11.611-2.057-2.085-2.54-4.474-2.816-7.201-22.363 8.353-25.556 19.272-23.32 18.917 17.886-2.835 22.914-3.182 28.91-0.105z"/>
      <path id="path281" style="fill:url(#linearGradient7143)" d="m3.411 71.171s1.554-20.192 11.661-27.582c7.935-5.805 1.773-3.696-1.291-3.456-3.231 0.256-4.954 2.221-4.331 1.498 0.027-0.03 0.036-0.047 0.031-0.055-0.106-0.125-7.584 6.15-6.07 29.595z"/>
      <path id="path288" style="fill:url(#linearGradient7145)" d="m2.347 55.658s5.416-17.192 16.362-17.047c7.259 0.097 1.501-6.134-0.695-7.081-2.291-0.981-2.839-0.943-3.374-0.469-0.802 0.71-8.004 0.436-12.293 24.597z"/>
      <path id="path307" style="fill:url(#linearGradient7147)" d="m76.185 72.486c0.823-0.807 0.249-3.903-4.924-5.78-4.694-1.705-12.021 2.63-14.195 3.486 0 0 8.299-1.555 11.411-1.037 4.218 0.702 5.7 5.301 7.708 3.331z"/>
      <path id="path314" style="fill:url(#linearGradient7149)" d="m10.342 66.822s-0.899-16.902 6.676-24.121c5.947-5.67 1.069-3.255-1.444-2.724-2.65 0.562-3.865 2.377-3.426 1.71 0.019-0.028 0.023-0.043 0.019-0.049-0.103-0.091-5.619 5.919-1.825 25.184z"/>
      <path id="path321" style="fill:url(#linearGradient7151)" d="m4.508 61.453s3.201-16.621 12.293-21.801c7.138-4.069 1.823-2.901-0.745-2.991-2.708-0.093-4.324 1.375-3.738 0.834 0.025-0.022 0.033-0.037 0.03-0.042-0.076-0.115-6.878 4.389-7.84 24z"/>
      <path id="path328" style="fill:url(#linearGradient7153)" d="m15.303 68.275s-1.75-10.074 2.021-15.033c3.01-3.957 0.367-2.021-1.03-1.451-1.458 0.596-2.011 1.771-1.812 1.34 0.193-0.421-6.488 4.756 0.821 15.144z"/>
      <path id="path335" style="fill:url(#linearGradient7155)" d="m17.303 58.775s-1.75-10.074 2.021-15.033c3.01-3.957 0.367-2.021-1.03-1.451-1.458 0.596-2.011 1.771-1.812 1.34 0.193-0.421-6.488 4.756 0.821 15.144z"/>
      <path id="path342" style="fill:url(#linearGradient7157)" d="m6.725 45.003s4.087-8.375 9.52-10.024c4.336-1.315 1.35-1.296 0.014-1.622-1.396-0.338-2.431 0.234-2.054 0.022 0.368-0.207-7.33 0.049-7.48 11.624z"/>
      <path id="path349" style="fill:url(#linearGradient7159)" d="m6.142 51.631s4.087-8.375 9.52-10.024c4.336-1.315 1.35-1.296 0.014-1.622-1.396-0.338-2.431 0.234-2.054 0.022 0.367-0.208-7.331 0.049-7.48 11.624z"/>
      <path id="path356" style="fill:url(#linearGradient7161)" d="m9.109 49.803s7.209-14.774 16.794-17.684c7.65-2.32 2.382-2.287 0.024-2.86-2.462-0.597-4.288 0.414-3.624 0.039 0.65-0.367-12.93 0.085-13.194 20.505z"/>
      <path id="path363" style="fill:url(#linearGradient7163)" d="m14.037 41.846s4.484-9.189 10.445-10.999c4.758-1.443 1.481-1.422 0.015-1.779-1.532-0.371-2.667 0.257-2.254 0.024 0.404-0.228-8.042 0.053-8.206 12.754z"/>
      <path id="path370" style="fill:url(#linearGradient7165)" d="m15.499 45.092s4.087-8.375 9.52-10.024c4.336-1.315 1.35-1.296 0.014-1.622-1.396-0.338-2.431 0.234-2.054 0.022 0.367-0.208-7.331 0.049-7.48 11.624z"/>
      <path id="path377" style="fill:url(#linearGradient7167)" d="m62.344 34.872c-0.047-0.873-0.176-1.158-4.356-1.229 0.479 0.217 1.305 0.652 2.214 1.398 1.201 0.984 1.396 2.081 1.52 3.217 0.407-0.774 0.705-1.841 0.622-3.386z"/>
      <path id="path384" style="fill:url(#linearGradient7169)" d="m37.802 23.206-3.625 5.833s-14.496-2.273-26.785 9.616c-1.016 0.982 8.038-21.023 30.41-15.449z"/>
      <path id="path391" style="fill:url(#linearGradient7171)" d="m24.784 33.646s3.863-7.172 8.872-9.339c-2.589 0.082-8.403 2.106-8.872 9.339z"/>
      <path id="path398" style="fill:url(#linearGradient7173)" d="m9.92 40.646s4.087-8.375 9.52-10.024c4.336-1.315 1.35-1.296 0.014-1.622-1.396-0.338-2.431 0.234-2.054 0.022 0.368-0.207-7.331 0.049-7.48 11.624z"/>
      <path id="path405" style="fill:url(#linearGradient7175)" d="m18.482 34.745s4.217-6.751 9.235-8.548c-2.527-0.083-8.323 1.526-9.235 8.548z"/>
      <path id="path412" style="fill:url(#linearGradient7177)" d="m25.712 23.214s-3.18 1.389-8.787-0.942l4.999 2.513 3.788-1.571z"/>
      <path id="path419" style="fill:url(#linearGradient7179)" d="m24.175 24.105s-4.238 1.642-12.394-0.802l6.977 2.776c0.863-0.798 5.417-1.974 5.417-1.974z"/>
      <path id="path426" style="fill:url(#linearGradient7181)" d="m27.268 22.759s-2.813 0.856-8.009-1.154l4.999 2.513c0.528-0.467 3.01-1.359 3.01-1.359z"/>
      <path id="path433" style="fill:url(#linearGradient7183)" d="m18.496 25.993s-2.09 1.735-7.443 1.806l4.63 0.151 2.813-1.957z"/>
      <path id="path440" style="fill:url(#linearGradient7185)" d="m13.411 34.871s7.153-9.318 13.044-11.428c-2.968-0.097-11.975 3.186-13.044 11.428z"/>
     </g>
     <g id="Fire">
      <path id="path458" style="fill:url(#linearGradient7187)" d="m124.2 50.76s0.771 17.288-23.244 41.304c-2.669 2.668-17.16 16.244-16.65 20.317 0.179 1.439 38.021-5.805 39.894-61.621z"/>
      <path id="path475" style="fill:url(#linearGradient7189)" d="m77.64 10.096c28.926 2.222 34.528 23.021 34.53 21.748 0.073-20.22-27.444-21.755-34.53-21.748z"/>
      <path id="path492" style="fill:url(#linearGradient7191)" d="m86.449 18.003s20.053 4.099 25.709 25.354c0.75 2.815-2.416-17.267-1.439-15.361 0.975 1.916-8.071-9.358-24.27-9.993z"/>
      <path id="path509" style="fill:url(#linearGradient7193)" d="m94.464 17.483s18.11 3.775 18.29 32.509c0.127 20.338 3.141 7.635 6.131 3.064 2.578-3.948 0.816-8.76 0.754-8.748-0.01 0.003-1.305-3.743-0.432-2.156 0.039 0.07-1.216-1.034-1.207-1.035 0.201-0.03-0.697-20.652-23.536-23.634z"/>
      <path id="path526" style="fill:url(#linearGradient7195)" d="m114.86 21.376s6.505 16.945-0.389 25.371c-2.25 2.75-2.502 16.839 0.247 15.545 2.756-1.296 2.157 7.481 1.796 8.48-0.008 0.019-0.01 0.028-0.006 0.031 0.18 0.111 13.592-21.66-1.648-49.427z"/>
      <path id="path543" style="fill:url(#linearGradient7197)" d="m105.81 39.215s4.095 11.989-0.193 20.56l3.244 7.245c2.379-5.844 5.408-18.203-3.051-27.805z"/>
      <path id="path560" style="fill:url(#linearGradient7199)" d="m113.02 37.789s2.832 19.03-7.387 36.208c0.158 3.973-0.539 7.569-1.496 10.532 0.445 0.586 1.041 0.987 1.827 1.057-0.347 0.32-0.692 0.62-1.026 0.904-0.614 0.271-1.243 0.558-1.852 0.853-0.13 0.303-0.261 0.597-0.389 0.879 0.68-0.477 1.438-1.056 2.24-1.731 2.087-0.922 3.965-1.638 3.961-1.642 0 0-0.383 0.143-1.303 0.478-0.619 0.225-1.16 0.301-1.632 0.259 7.892-7.192 18.706-23.275 7.057-47.797zm-11.907 50.59c-0.902 0.529-1.558 1.025-1.698 1.408-0.103 0.279 0.512 0.118 1.575-0.479 0.055-0.319 0.1-0.632 0.123-0.929z"/>
      <path id="path577" style="fill:url(#linearGradient7201)" d="m100.41 58.065s8.057 22.932-17.693 44.432c-1.519 1.269 10.452 0.726 11.5 0.25 3.086-1.402 6.733-10.757 6.303-9.637-0.427 1.119 11.957-16.536-0.11-35.045z"/>
      <path id="path608" style="fill:url(#linearGradient7203)" d="m111.68 72.61s-4.86 29.744-38.461 32.137c-13.157 0.938-32.048-2.141-30.375 2.877 0.519 1.556 2.992 8.043 8.636 9.548 15.275 4.075 55.915 2.741 60.2-44.562z"/>
     </g>
     <g id="Layer_6">
      <path id="path616" style="fill:url(#linearGradient7205)" d="m83.657 95.119s-20.559 4.697-33.878-6.641c-12.187-10.377-6.141-1.643-4.488 2.665 1.698 4.418-7.853 1.042-9.289 0.332-1.431-0.701 22.623 14.384 47.655 3.644z"/>
      <path id="path623" style="fill:url(#linearGradient7207)" d="m70.408 106.32s-24.525-4.82-32.29-21.438c-6.635-14.197-4.879-3.779-5.178 0.962-0.314 4.877-7.191-1.783-8.11-2.942-0.026-0.028-0.044-0.047-0.046-0.042-0.137 0.09 12.649 20.134 45.624 23.46z"/>
      <path id="path630" style="fill:url(#linearGradient7209)" d="m43.617 104.18s-11.714-9.073-16.995-21.514c-4.438-1.542-10.339-5.067-10.456-5.67 1.875 9.667 11.746 20.954 27.451 27.184z"/>
     </g>
    </g>
   </g>
  </g>
  <rect id="rect3003" style="opacity:.15;fill:#fff" transform="translate(98 3.8281e-7)" clip-path="url(#clipPath3009)" rx="25" ry="25" height="92" width="92" y="958.36" x="-96"/>
 </g>
</svg>
