<?xml version="1.0" encoding="UTF-8" standalone="no"?>
<!-- Created with Inkscape (http://www.inkscape.org/) -->
<svg id="svg11037" xmlns:rdf="http://www.w3.org/1999/02/22-rdf-syntax-ns#" xmlns="http://www.w3.org/2000/svg" height="96" width="96" version="1.1" xmlns:cc="http://creativecommons.org/ns#" xmlns:xlink="http://www.w3.org/1999/xlink" xmlns:dc="http://purl.org/dc/elements/1.1/">
 <defs id="defs11039">
  <linearGradient id="linearGradient11642" y2="1046.1" gradientUnits="userSpaceOnUse" y1="962.62" gradientTransform="matrix(1.15 0 0 1.15 -7.1999 -150.65)" x2="48" x1="48">
   <stop id="stop3797-8" style="stop-color:#7d79a6" offset="0"/>
   <stop id="stop3799-1" style="stop-color:#3d3960" offset="1"/>
  </linearGradient>
  <clipPath id="clipPath3009" clipPathUnits="userSpaceOnUse">
   <path id="path3011" style="opacity:.15;fill:#fff" d="m-2 956.36h-96v33.562l96 25.687v-59.25z"/>
  </clipPath>
 </defs>
 <metadata id="metadata11042">
  <rdf:RDF>
   <cc:Work rdf:about="">
    <dc:format>image/svg+xml</dc:format>
    <dc:type rdf:resource="http://purl.org/dc/dcmitype/StillImage"/>
    <dc:title/>
   </cc:Work>
  </rdf:RDF>
 </metadata>
 <g id="layer1" transform="translate(0 -956.36)">
  <rect id="rect3867" style="fill:url(#linearGradient11642)" rx="25" ry="25" height="92" width="92" y="958.36" x="2"/>
  <path id="path3293" style="fill:#fff" d="m47.198 988.34-1.8639 1.9752 1.8639 1.9752 1.8639-1.9752-1.8639-1.9752zm0.89023 6.1482c-4.1929 2.4216-1.5403 6.9422-3.394 9.9594-2.6494 2.108-4.5113-0.499-5.87-2.8376-0.98339-1.6928-2.2169-2.5038-3.5888-2.5038-0.49248 0-0.90016 0.036-1.2519 0.112-0.98494 0.174-1.9274 0.86042-2.8654 2.0308-0.60973 0.747-0.94589 1.5276-0.94587 2.3368-0.000018 0.7596 0.26303 1.5188 0.77895 2.2534 0.74346 0.7244 1.3844 1.0732 1.8917 1.9196-0.000022 0.411-0.54658 0.9506-1.6136 1.5858-0.70353 0.4108-1.9252 0.7034-3.6722 0.8902-0.90285 0.1-1.8541 0.14-2.9211 0.14-2.0988 0-3.566-0.17-4.3399-0.5564-1.9464-0.9712-2.9211-2.1692-2.9211-3.5886-0.000006-1.9052 0.37847-3.4418 1.1406-4.5624-5.7262 5.577-0.89413 13.214 4.8963 13.214 6.2603 0 11.881-1.5914 12.714-7.1218 0.22668-1.506-0.47944-2.4918-1.3354-2.8654-0.76216-0.3362-1.1406-0.7934-1.1406-1.391-0.000022-0.4358 0.2513-0.762 0.77895-0.9738 1.6896-0.4192 3.0827-0.8272 3.6722 1.7528 1.4416 6.3096 6.5217 6.0568 8.9302 1.9196 2.5415 4.3814 6.882 3.527 7.6783-0.5564 0 0 3.0287 4.2842 7.7061 4.2842 7.9087 0 8.2934-9.5042 17.638-11.545-7.639-7.1478-13.68-0.7914-18.723-3.8114 5.0507 5.4568 9.7933 1.9364 13.632 3.9226-3.9256 0.4388-7.8127 7.7618-12.463 7.7618-2.7505 0-4.1072-0.5818-6.176-2.8098-1.3252-3.1716-1.8895-5.6026-0.58422-8.652-2.8573 2.5436-2.442 4.0498-2.5594 6.7602-0.1305 3.0114-2.2456 5.4072-4.2564 2.1978-1.7237-2.9224-2.5026-5.9964-0.83459-9.264zm25.817 12.936-1.8639 1.9752 1.8639 1.9752 1.8639-1.9752-1.8639-1.9752zm-21.366 3.5052-1.8639 1.9754 1.8639 2.003 1.8639-2.003-1.8639-1.9754zm5.3414 0-1.8639 1.9754 1.8639 2.003 1.8639-2.003-1.8639-1.9754zm-37.39 5.5084-1.8639 1.9752 1.8639 1.9752 1.8639-1.9752-1.8639-1.9752zm5.3414 0-1.8639 1.9752 1.8639 1.9752 1.8639-1.9752-1.8639-1.9752z"/>
  <rect id="rect3003" style="opacity:.15;fill:#fff" transform="translate(98)" clip-path="url(#clipPath3009)" rx="25" ry="25" height="92" width="92" y="958.36" x="-96"/>
 </g>
</svg>
