<?xml version="1.0" encoding="UTF-8" standalone="no"?>
<!-- Created with Inkscape (http://www.inkscape.org/) -->
<svg id="svg11037" xmlns:rdf="http://www.w3.org/1999/02/22-rdf-syntax-ns#" xmlns="http://www.w3.org/2000/svg" height="96" width="96" version="1.1" xmlns:cc="http://creativecommons.org/ns#" xmlns:xlink="http://www.w3.org/1999/xlink" xmlns:dc="http://purl.org/dc/elements/1.1/">
 <defs id="defs11039">
  <linearGradient id="linearGradient11642" y2="1046.1" gradientUnits="userSpaceOnUse" y1="962.62" gradientTransform="matrix(1.15 0 0 1.15 -7.1999 -150.65)" x2="48" x1="48">
   <stop id="stop3321" style="stop-color:#a79071" offset="0"/>
   <stop id="stop3323" style="stop-color:#6f5d45" offset="1"/>
  </linearGradient>
  <clipPath id="clipPath3009" clipPathUnits="userSpaceOnUse">
   <path id="path3011" style="opacity:.15;fill:#fff" d="m-2 956.36h-96v33.562l96 25.687v-59.25z"/>
  </clipPath>
  <filter id="filter6547" width="1.4964" y="-.72809" x="-.24821" height="2.4562" color-interpolation-filters="sRGB">
   <feGaussianBlur id="feGaussianBlur6549" stdDeviation="13.651596"/>
  </filter>
  <linearGradient id="linearGradient3403" y2="214.34" gradientUnits="userSpaceOnUse" x2="131.44" gradientTransform="matrix(2.2194 0 0 2.2194 294.79 -300.76)" y1="228.73" x1="126.9">
   <stop id="stop3205" style="stop-color:#db9f3b" offset="0"/>
   <stop id="stop3207" style="stop-color:#db9f3b;stop-opacity:0" offset="1"/>
  </linearGradient>
  <linearGradient id="linearGradient3405" y2="55.667" gradientUnits="userSpaceOnUse" x2="-31.62" gradientTransform="matrix(1.5721 3.9335 -2.6546 .96867 613.68 266.1)" y1="64.962" x1="-39.521">
   <stop id="stop3151" style="stop-color:#fff" offset="0"/>
   <stop id="stop3153" style="stop-color:#fff;stop-opacity:0" offset="1"/>
  </linearGradient>
  <linearGradient id="linearGradient3407" y2="64.907" gradientUnits="userSpaceOnUse" x2="-25.835" gradientTransform="matrix(1.5721 3.9335 -2.6546 .96867 613.68 266.1)" y1="64.838" x1="-20.933">
   <stop id="stop3172" style="stop-color:#f9f9f9" offset="0"/>
   <stop id="stop3174" style="stop-color:#f9f9f9;stop-opacity:0" offset="1"/>
  </linearGradient>
  <linearGradient id="linearGradient3409" y2="96.355" xlink:href="#linearGradient3181" gradientUnits="userSpaceOnUse" x2="75.733" gradientTransform="matrix(2.2053 0 0 2.2053 311.8 -1.0929)" y1="89.034" x1="75.689"/>
  <linearGradient id="linearGradient3181">
   <stop id="stop3183" style="stop-color:#f9f9f9" offset="0"/>
   <stop id="stop3185" style="stop-color:#f9f9f9;stop-opacity:0" offset="1"/>
  </linearGradient>
  <linearGradient id="linearGradient3411" y2="96.355" xlink:href="#linearGradient3181" gradientUnits="userSpaceOnUse" x2="75.733" gradientTransform="matrix(1.2967 0 0 1.2967 360.64 84.762)" y1="89.034" x1="75.689"/>
  <linearGradient id="linearGradient3413" y2="233.83" xlink:href="#linearGradient3159" gradientUnits="userSpaceOnUse" x2="96.607" gradientTransform="matrix(2.2194 0 0 2.2194 294.79 -300.76)" y1="199.97" x1="96.617"/>
  <linearGradient id="linearGradient3159">
   <stop id="stop3161" style="stop-color:#fff" offset="0"/>
   <stop id="stop3163" style="stop-color:#fff;stop-opacity:0" offset="1"/>
  </linearGradient>
  <linearGradient id="linearGradient3415-3" y2="239.92" gradientUnits="userSpaceOnUse" x2="88.72" gradientTransform="matrix(2.2194 0 0 2.2194 294.79 -300.76)" y1="261" x1="88.098">
   <stop id="stop3259-9" style="stop-color:#e0aa42" offset="0"/>
   <stop id="stop3261-1" style="stop-color:#e0aa42;stop-opacity:0" offset="1"/>
  </linearGradient>
  <linearGradient id="linearGradient3417" y2="98.309" gradientUnits="userSpaceOnUse" x2="85.113" gradientTransform="matrix(2.3118 0 0 2.3797 298.81 -23.966)" y1="115.95" x1="84.968">
   <stop id="stop3309" style="stop-color:#f9e07b" offset="0"/>
   <stop id="stop3311" style="stop-color:#f9e07b;stop-opacity:0" offset="1"/>
  </linearGradient>
  <linearGradient id="linearGradient3419" y2="97.914" gradientUnits="userSpaceOnUse" x2="83.087" gradientTransform="matrix(2.343 0 0 2.3789 296.39 -23.393)" y1="89.387" x1="83.087">
   <stop id="stop3301" style="stop-color:#c56a00" offset="0"/>
   <stop id="stop3303" style="stop-color:#c56a00;stop-opacity:0" offset="1"/>
  </linearGradient>
  <linearGradient id="linearGradient3421" y2="97.205" gradientUnits="userSpaceOnUse" x2="64.051" y1="105.09" x1="64.051">
   <stop id="stop3333" style="stop-color:#f9e07b" offset="0"/>
   <stop id="stop3335" style="stop-color:#f9e07b;stop-opacity:0" offset="1"/>
  </linearGradient>
  <linearGradient id="linearGradient3423" y2="92.445" gradientUnits="userSpaceOnUse" x2="65.5" y1="86.047" x1="65.411">
   <stop id="stop3343" style="stop-color:#be6518" offset="0"/>
   <stop id="stop3345" style="stop-color:#be6518;stop-opacity:0" offset="1"/>
  </linearGradient>
 </defs>
 <metadata id="metadata11042">
  <rdf:RDF>
   <cc:Work rdf:about="">
    <dc:format>image/svg+xml</dc:format>
    <dc:type rdf:resource="http://purl.org/dc/dcmitype/StillImage"/>
    <dc:title/>
   </cc:Work>
  </rdf:RDF>
 </metadata>
 <g id="layer1" transform="translate(0 -956.36)">
  <rect id="rect3867" style="fill:url(#linearGradient11642)" rx="25" ry="25" height="92" width="92" y="958.36" x="2"/>
  <g id="g7326" transform="matrix(.35588 0 0 .35588 -7.4397 929.06)">
   <path id="path6461" style="opacity:.54348;filter:url(#filter6547)" d="m214 270.5c0 12.426-29.549 22.5-66 22.5s-66-10.074-66-22.5 29.549-22.5 66-22.5 66 10.074 66 22.5z" transform="translate(12,-13)"/>
   <g id="g6359" transform="translate(-321,-6)">
    <path id="path2161" style="fill-rule:evenodd;stroke:#4b4b4b;stroke-width:2.219;fill:#c06f1c" d="m401.32 239.81c139.86 95.898 182.61-48.988 186.74-88.68 0.73411-7.0521-45.094 33.069-45.094 33.069-47.853-29.943-64.906-13.685-88.684-7.5156 0 0-27.744-16.451-24.893-11.843 10.754 17.38 2.419 56.922-13.084 47.652-0.80681 17.175-5.865 25.051-14.989 27.318z"/>
    <path id="path3193" style="fill:url(#linearGradient3403);fill-rule:evenodd" d="m560.58 216.94c-0.69594-15.387-6.2403-24.107-14.945-28.483l38.263-32.949c-2.1281 16.386-7.9209 41.802-23.319 61.432z"/>
    <path id="path3134" style="stroke-width:.64152;stroke:#4b4b4b" d="m-22.987 65.386c0 4.5623-3.6985 8.2608-8.2608 8.2608s-8.2608-3.6985-8.2608-8.2608 3.6985-8.2608 8.2608-8.2608 8.2608 3.6985 8.2608 8.2608z" transform="matrix(1.5721 3.9335 -2.6546 .96867 613.68 266.1)"/>
    <path id="path3136" style="fill:#e6e6e6" d="m94.82 98.309c0 6.4798-5.2529 11.733-11.733 11.733-6.4798 0-11.733-5.2529-11.733-11.733 0-6.4798 5.2529-11.733 11.733-11.733 6.4798 0 11.733 5.2529 11.733 11.733z" transform="matrix(2.2194 0 0 2.2194 306.49 -7.4104)"/>
    <path id="path3140" style="fill:#e6e6e6" d="m70.875 96.034c0 3.7689-3.0553 6.8241-6.8241 6.8241-3.7689 0-6.8241-3.0553-6.8241-6.8241 0-3.7689 3.0553-6.8241 6.8241-6.8241 3.7689 0 6.8241 3.0553 6.8241 6.8241z" transform="matrix(2.2194 0 0 2.2194 306.49 -3.6903)"/>
    <path id="path3142" d="m79.256 95.675c0 2.5126-2.0368 4.5494-4.5494 4.5494s-4.5494-2.0369-4.5494-4.5494c0-2.5126 2.0368-4.5494 4.5494-4.5494s4.5494 2.0368 4.5494 4.5494z" transform="matrix(2.4531 0 0 2.4531 293.28 -24.448)"/>
    <path id="path3144" d="m79.256 95.675c0 2.5126-2.0368 4.5494-4.5494 4.5494s-4.5494-2.0369-4.5494-4.5494c0-2.5126 2.0368-4.5494 4.5494-4.5494s4.5494 2.0368 4.5494 4.5494z" transform="matrix(1.5186 0 0 1.5186 343.97 63.366)"/>
    <path id="path3146" style="opacity:.60076;fill:url(#linearGradient3405)" d="m365.52 198.06c0.18313-6.9616 0.65314-19.232 12.478-24.021 13.919-5.6379 33.467 11.714 37.073 32.181-18.228 13.55-42.718 0.23225-49.551-8.16z"/>
    <path id="path3167" style="opacity:.86312;fill:url(#linearGradient3407)" d="m382.55 233.46c13.071-4.2488 29.705-8.369 33.511-12.698-1.1966 15.351-16.045 27.52-33.511 12.698z"/>
    <path id="path3178" style="fill:url(#linearGradient3409)" d="m486.58 209.9c-3.7875 3.9292-13.156-3.4183-20.065 0 0-5.5381 4.4947-10.033 10.033-10.033 5.5381 0 10.033 4.4947 10.033 10.033z"/>
    <path id="path3189" style="fill:url(#linearGradient3411)" d="m463.41 208.82c-2.227 2.3103-7.7354-2.01-11.798 0 0-3.2564 2.6428-5.8992 5.8992-5.8992 3.2563 0 5.8992 2.6428 5.8992 5.8992z"/>
    <path id="path3157" style="fill:url(#linearGradient3413);fill-rule:evenodd" d="m434.83 168.8c2.79 7.7722 2.9093 16.88 2.9229 26.04 9.6656-7.4755 18.317-3.7911 26.572 4.2515 11.042-28.329 59.811-23.862 55.8 19.132 29.971-3.881 58.718-33.593 54.472-57.129l-31.886 25.774c-34.381-17.521-45.768-23.22-88.483-7.44l-19.397-10.629z"/>
    <path id="path3247" style="fill:url(#linearGradient3415-3);fill-rule:evenodd" d="m404.83 240.02s8.5465-26.458 12.841-25.585c4.5549 0.92609 120.63-3.382 120.63-3.382l10.71 30.062c-15.011 18.98-64.883 57.259-144.18-1.0951z"/>
    <path id="path3271" style="stroke-width:5.6574;stroke:url(#linearGradient3417);fill:none" d="m518.02 209.98c0 15.412-12.151 27.921-27.124 27.921-14.972 0-27.124-12.509-27.124-27.921 3.7327-36.696 48.795-34.77 54.248 0z"/>
    <path id="path3289" style="stroke-width:3.0136;stroke:url(#linearGradient3419);fill:none" d="m518.55 210.48c-3.8376 36.741-49.443 34.82-54.979 0 0-15.407 12.315-27.911 27.49-27.911 15.174 0 27.49 12.504 27.49 27.911z"/>
    <path id="path3321" style="stroke-width:1.2664;stroke:url(#linearGradient3421);fill:none" d="m70.875 96.034c0 3.7689-3.0553 6.8241-6.8241 6.8241-3.7689 0-6.8241-3.0553-6.8241-6.8241 0-3.7689 3.0553-6.8241 6.8241-6.8241 3.7689 0 6.8241 3.0553 6.8241 6.8241z" transform="matrix(2.408 0 0 2.408 294.44 -21.706)"/>
    <path id="path3339" style="stroke-width:1.2664;stroke:url(#linearGradient3423);fill:none" d="m70.875 96.034c0 3.7689-3.0553 6.8241-6.8241 6.8241-3.7689 0-6.8241-3.0553-6.8241-6.8241 0-3.7689 3.0553-6.8241 6.8241-6.8241 3.7689 0 6.8241 3.0553 6.8241 6.8241z" transform="matrix(2.408 0 0 2.408 294.44 -21.706)"/>
    <path id="path3397" style="opacity:.62357;fill-rule:evenodd;fill:url(#linearGradient3413)" d="m434.83 168.8c2.79 7.7722 2.9093 16.88 2.9229 26.04 9.6656-7.4755 18.317-3.7911 26.572 4.2515 11.042-28.329 59.811-23.862 55.8 19.132 29.971-3.881 58.718-33.593 54.472-57.129l-31.886 25.774c-34.381-17.521-45.768-23.22-88.483-7.44l-19.397-10.629z"/>
   </g>
  </g>
  <rect id="rect3003" style="opacity:.15;fill:#fff" transform="translate(98 3.8281e-7)" clip-path="url(#clipPath3009)" rx="25" ry="25" height="92" width="92" y="958.36" x="-96"/>
 </g>
</svg>
