<?xml version="1.0" encoding="UTF-8" standalone="no"?>
<!-- Created with Inkscape (http://www.inkscape.org/) -->
<svg id="svg11037" xmlns:rdf="http://www.w3.org/1999/02/22-rdf-syntax-ns#" xmlns="http://www.w3.org/2000/svg" height="96" width="96" version="1.1" xmlns:cc="http://creativecommons.org/ns#" xmlns:xlink="http://www.w3.org/1999/xlink" xmlns:dc="http://purl.org/dc/elements/1.1/">
 <defs id="defs11039">
  <radialGradient id="radialGradient3205" xlink:href="#linearGradient3224" gradientUnits="userSpaceOnUse" cy="78.287" cx="47.098" gradientTransform="matrix(1.383 -1.035e-8 0 1.3124 -18.039 -24.219)" r="38.957"/>
  <linearGradient id="linearGradient3224">
   <stop id="stop3226" style="stop-color:#840000" offset="0"/>
   <stop id="stop3228" style="stop-color:#190000" offset="1"/>
  </linearGradient>
  <clipPath id="clipPath3794" clipPathUnits="userSpaceOnUse">
   <rect id="rect3796" style="fill:url(#linearGradient3798)" rx="21.174" ry="21.174" height="77.922" width="77.922" y="8.8493" x="8.1409"/>
  </clipPath>
  <linearGradient id="linearGradient3798" y2="1046.1" xlink:href="#linearGradient3224" gradientUnits="userSpaceOnUse" x2="48" gradientTransform="matrix(.97402 0 0 .97402 .34876 -930.46)" y1="962.62" x1="48"/>
 </defs>
 <metadata id="metadata11042">
  <rdf:RDF>
   <cc:Work rdf:about="">
    <dc:format>image/svg+xml</dc:format>
    <dc:type rdf:resource="http://purl.org/dc/dcmitype/StillImage"/>
    <dc:title/>
   </cc:Work>
  </rdf:RDF>
 </metadata>
 <g id="layer1" transform="translate(0 -956.36)">
  <g id="g3046" clip-path="url(#clipPath3794)" transform="matrix(1.1807 0 0 1.1807 -7.6117 947.91)">
   <path id="rect3222" d="m19 13c-3.2894 0-6 2.7106-6 6v58c0 3.2894 2.7106 6 6 6h58c3.2894 0 6-2.7106 6-6v-58c0-3.2894-2.7106-6-6-6h-58zm0 4h58c1.1426 0 2 0.85741 2 2v58c0 1.1426-0.85741 2-2 2h-58c-1.1426 0-2-0.85741-2-2v-58c0-1.1426 0.85741-2 2-2z" style="opacity:.15;block-progression:tb;text-indent:0;color:#000000;text-transform:none"/>
   <rect id="rect3461" style="fill:url(#radialGradient3205)" rx="5.8528" ry="6.1733" height="78.516" width="77.915" y="8.2544" x="8.1409"/>
   <path id="rect3256" d="m14 8.25c-3.2424 0-5.8438 2.7675-5.8438 6.1875v49.062c18.824-13.859 45.812-23.794 77.906-21.781v-27.281c0-3.42-2.6326-6.1875-5.875-6.1875l-66.187-0.0005z" style="opacity:0.08;fill:#d9c6ed"/>
   <path id="path3557" d="m36 38v4h12v-4h-12z" style="fill:#fff"/>
   <text id="text3643" style="font-size:18.69px;font-weight:bold;font-family:American Participants;line-height:125%;fill:#ffffff" transform="scale(.99450 1.0055)" y="39.058891" x="23.235619" xml:space="preserve"><tspan id="tspan3645" y="39.058891" x="23.235619">$</tspan></text>
  </g>
  <path id="rect3790" style="opacity:.15;fill:#fff" d="m96 956.36h-96v33.562l96 25.687v-59.25z"/>
 </g>
</svg>
