<?xml version="1.0" encoding="UTF-8" standalone="no"?>
<!-- Created with Inkscape (http://www.inkscape.org/) -->
<svg id="svg11037" xmlns:rdf="http://www.w3.org/1999/02/22-rdf-syntax-ns#" xmlns="http://www.w3.org/2000/svg" height="96" width="96" version="1.1" xmlns:cc="http://creativecommons.org/ns#" xmlns:xlink="http://www.w3.org/1999/xlink" xmlns:dc="http://purl.org/dc/elements/1.1/">
 <defs id="defs11039">
  <linearGradient id="linearGradient11642" y2="1046.1" gradientUnits="userSpaceOnUse" y1="962.62" gradientTransform="matrix(1.15 0 0 1.15 -7.1999 -150.65)" x2="48" x1="48">
   <stop id="stop3643" style="stop-color:#bdb8c4" offset="0"/>
   <stop id="stop3645" style="stop-color:#dbd9df" offset="1"/>
  </linearGradient>
  <linearGradient id="linearGradient3584" y2="138.66" gradientUnits="userSpaceOnUse" x2="48" y1="20.221" x1="48">
   <stop id="stop3763" style="stop-color:#fff" offset="0"/>
   <stop id="stop3765" style="stop-color:#fff;stop-opacity:0" offset="1"/>
  </linearGradient>
  <clipPath id="clipPath3613-34">
   <rect id="rect3615-8" style="fill:#fff" rx="6" ry="6" height="84" width="84" y="6" x="6"/>
  </clipPath>
  <filter id="filter3794-58" height="1.384" width="1.384" y="-.192" x="-.192" color-interpolation-filters="sRGB">
   <feGaussianBlur id="feGaussianBlur3796-2" stdDeviation="5.28"/>
  </filter>
  <linearGradient id="linearGradient3409" x1="16.162" gradientUnits="userSpaceOnUse" y1="44.482" gradientTransform="matrix(.7 .7 -.7 .7 46.611 -15.664)" x2="76.772" y2="44.482">
   <stop id="stop3721-4" style="stop-color:#4b4b4b" offset="0"/>
   <stop id="stop3723-0" style="stop-color:#232323" offset=".37373"/>
   <stop id="stop3725-0" style="stop-color:#5c5c5c" offset="1"/>
  </linearGradient>
  <linearGradient id="linearGradient3405-4" x1="16.162" gradientUnits="userSpaceOnUse" y1="44.482" gradientTransform="matrix(0 .89095 -.89095 0 87.632 6.6)" x2="76.772" y2="44.482">
   <stop id="stop3709" style="stop-color:#141414" offset="0"/>
   <stop id="stop3654" style="stop-color:#616161" offset="1"/>
  </linearGradient>
  <radialGradient id="radialGradient3397" gradientUnits="userSpaceOnUse" cy="48.001" cx="48" gradientTransform="matrix(1 0 0 .99997 0 .0016595)" r="27.002">
   <stop id="stop3734-6" style="stop-opacity:0" offset="0"/>
   <stop id="stop3740-2" style="stop-opacity:0" offset=".95"/>
   <stop id="stop3736-6" offset="1"/>
  </radialGradient>
  <linearGradient id="linearGradient3394" x1="16.162" gradientUnits="userSpaceOnUse" y1="44.482" gradientTransform="matrix(0 .64908 -.64908 0 76.872 17.839)" x2="76.772" y2="44.482">
   <stop id="stop3748-5" style="stop-color:#5d5d5d" offset="0"/>
   <stop id="stop3753-6" style="stop-color:#0a0a0a" offset=".6"/>
   <stop id="stop3751" style="stop-color:#4e4e4e" offset="1"/>
  </linearGradient>
  <clipPath id="clipPath3798">
   <path id="path3800" d="m61.367 45.997a13.637 13.637 0 1 1 -27.274 0 13.637 13.637 0 1 1 27.274 0z" style="fill:#f0f" transform="matrix(1.0266 0 0 1.0266 -1 .77836)"/>
  </clipPath>
  <filter id="filter3833" height="1.48" width="1.48" y="-0.24" x="-0.24" color-interpolation-filters="sRGB">
   <feGaussianBlur id="feGaussianBlur3835" stdDeviation="2.8000002"/>
  </filter>
  <filter id="filter3987" color-interpolation-filters="sRGB">
   <feGaussianBlur id="feGaussianBlur3989" stdDeviation="0.42020394"/>
  </filter>
  <linearGradient id="linearGradient9392" x1="53.511" gradientUnits="userSpaceOnUse" y1="59.608" gradientTransform="matrix(1.0266,0,0,1.0266,-1,50.778)" x2="61.491" y2="39.929">
   <stop id="stop3883-9" style="stop-color:#d40000;stop-opacity:0" offset="0"/>
   <stop id="stop3889-8" style="stop-color:#d40000" offset=".5"/>
   <stop id="stop3885-7" style="stop-color:#d40000;stop-opacity:0" offset="1"/>
  </linearGradient>
  <linearGradient id="linearGradient9394" x1="53.731" gradientUnits="userSpaceOnUse" y1="60.139" gradientTransform="matrix(.72593 .72593 -.72593 .72593 46.743 29.961)" x2="62.586" y2="38.831">
   <stop id="stop3893-2" style="stop-color:#d42aff;stop-opacity:0" offset="0"/>
   <stop id="stop3899-8" style="stop-color:#d42aff" offset=".5"/>
   <stop id="stop3895-2" style="stop-color:#d42aff;stop-opacity:0" offset="1"/>
  </linearGradient>
  <linearGradient id="linearGradient9396" x1="53.388" gradientUnits="userSpaceOnUse" y1="60.346" gradientTransform="matrix(0,1.0266,-1.0266,0,95.222,49)" x2="61.983" y2="39.437">
   <stop id="stop3903-9" style="stop-color:#60f;stop-opacity:0" offset="0"/>
   <stop id="stop3909" style="stop-color:#60f" offset=".5"/>
   <stop id="stop3905" style="stop-color:#60f;stop-opacity:0" offset="1"/>
  </linearGradient>
  <linearGradient id="linearGradient9398" x1="53.296" gradientUnits="userSpaceOnUse" y1="59.183" gradientTransform="matrix(-.72593 .72593 -.72593 -.72593 116.04 96.743)" x2="61.89" y2="40.223">
   <stop id="stop3913-9" style="stop-color:#2a7fff;stop-opacity:0" offset="0"/>
   <stop id="stop3919" style="stop-color:#2a7fff" offset=".5"/>
   <stop id="stop3915" style="stop-color:#2a7fff;stop-opacity:0" offset="1"/>
  </linearGradient>
  <linearGradient id="linearGradient9400" x1="53.879" gradientUnits="userSpaceOnUse" y1="61.33" gradientTransform="matrix(-1.0266,0,0,-1.0266,97,145.22)" x2="60.999" y2="39.683">
   <stop id="stop3923" style="stop-color:#5fd3bc;stop-opacity:0" offset="0"/>
   <stop id="stop3929" style="stop-color:#5fd3bc" offset=".5"/>
   <stop id="stop3925" style="stop-color:#5fd3bc;stop-opacity:0" offset="1"/>
  </linearGradient>
  <linearGradient id="linearGradient9402" x1="53.47" gradientUnits="userSpaceOnUse" y1="59.878" gradientTransform="matrix(-.72593 -.72593 .72593 -.72593 49.257 166.04)" x2="60.324" y2="39.701">
   <stop id="stop3853-6" style="stop-color:#55d400;stop-opacity:0" offset="0"/>
   <stop id="stop3859" style="stop-color:#55d400" offset=".5"/>
   <stop id="stop3855-0" style="stop-color:#55d400;stop-opacity:0" offset="1"/>
  </linearGradient>
  <linearGradient id="linearGradient9404" x1="61.628" gradientUnits="userSpaceOnUse" y1="39.683" gradientTransform="matrix(0 -1.0266 1.0266 0 .77836 147)" x2="52.881" y2="60.715">
   <stop id="stop3863" style="stop-color:#fc0;stop-opacity:0" offset="0"/>
   <stop id="stop3869-2" style="stop-color:#fc0" offset=".5"/>
   <stop id="stop3865" style="stop-color:#fc0;stop-opacity:0" offset="1"/>
  </linearGradient>
  <linearGradient id="linearGradient9406" x1="53.035" gradientUnits="userSpaceOnUse" y1="61.183" gradientTransform="matrix(.72593 -.72593 .72593 .72593 -20.039 99.257)" x2="61.803" y2="40.484">
   <stop id="stop3873" style="stop-color:#f60;stop-opacity:0" offset="0"/>
   <stop id="stop3879" style="stop-color:#f60" offset=".5"/>
   <stop id="stop3875-7" style="stop-color:#f60;stop-opacity:0" offset="1"/>
  </linearGradient>
  <radialGradient id="radialGradient9408" gradientUnits="userSpaceOnUse" cy="52" cx="41" gradientTransform="matrix(1 0 0 .61803 0 19.862)" r="9.7082">
   <stop id="stop3799-6" style="stop-color:#fff" offset="0"/>
   <stop id="stop3805-1" style="stop-color:#fff" offset=".5"/>
   <stop id="stop3801-3" style="stop-color:#fff;stop-opacity:0" offset="1"/>
  </radialGradient>
  <clipPath id="clipPath3009" clipPathUnits="userSpaceOnUse">
   <path id="path3011" style="opacity:.15;fill:#fff" d="m-2 956.36h-96v33.562l96 25.687v-59.25z"/>
  </clipPath>
 </defs>
 <metadata id="metadata11042">
  <rdf:RDF>
   <cc:Work rdf:about="">
    <dc:format>image/svg+xml</dc:format>
    <dc:type rdf:resource="http://purl.org/dc/dcmitype/StillImage"/>
    <dc:title/>
   </cc:Work>
  </rdf:RDF>
 </metadata>
 <g id="layer1" transform="translate(0 -956.36)">
  <rect id="rect3867" style="fill:url(#linearGradient11642)" rx="25" ry="25" height="92" width="92" y="958.36" x="2"/>
  <g id="g10220" transform="translate(-182.19 -40.404)">
   <g id="layer5" transform="translate(182.19,996.77)">
    <rect id="rect3171" style="opacity:.5;filter:url(#filter3794-58);stroke:#fff;stroke-linecap:round;stroke-width:.5;fill:url(#linearGradient3584)" clip-path="url(#clipPath3613-34)" rx="12" ry="12" height="66" width="66" y="15" x="15"/>
   </g>
   <g id="g3414" transform="matrix(.89489 0 0 .89489 187.26 1002.1)">
    <path id="path3648" d="m69.214 69.214a30 30 0 1 1 -42.426 -42.426 30 30 0 1 1 42.426 42.426z" style="fill:url(#linearGradient3409)"/>
    <path id="path3672" d="m48 77.75a29.75 29.75 0 1 1 0 -59.5 29.75 29.75 0 1 1 0 59.5z" style="stroke:#000;stroke-width:.5;fill:none"/>
    <path id="path3697" d="m48.001 75a27 27 0 1 1 0 -54 27 27 0 1 1 0 54z" style="fill:url(#linearGradient3405-4)"/>
    <g id="g3691" style="opacity:.2" transform="matrix(.92593 0 0 .92593 3.5556 3.5556)">
     <path id="path3676" d="m76.772 44.482a30.305 30.305 0 1 1 -60.609 0 30.305 30.305 0 1 1 60.609 0z" style="stroke:#000;stroke-width:.61176;fill:none" transform="matrix(0 .8827 -.8827 0 87.265 6.9833)"/>
     <path id="path3678" d="m76.772 44.482a30.305 30.305 0 1 1 -60.609 0 30.305 30.305 0 1 1 60.609 0z" style="stroke:#000;stroke-width:.66119;fill:none" transform="matrix(0 .81671 -.81671 0 84.329 10.05)"/>
     <path id="path3680" d="m76.772 44.482a30.305 30.305 0 1 1 -60.609 0 30.305 30.305 0 1 1 60.609 0z" style="stroke:#000;stroke-width:.63551;fill:none" transform="matrix(0 .84971 -.84971 0 85.797 8.5167)"/>
     <path id="path3682" d="m76.772 44.482a30.305 30.305 0 1 1 -60.609 0 30.305 30.305 0 1 1 60.609 0z" style="stroke:#000;stroke-width:.68903;fill:none" transform="matrix(0 .78371 -.78371 0 82.861 11.583)"/>
    </g>
    <path id="path3727" d="m48 21c-6.9099 0-13.822 2.6342-19.094 7.9062-10.544 10.544-10.544 27.643 0 38.188 10.544 10.544 27.643 10.544 38.188 0 10.544-10.544 10.544-27.643 0-38.188-5.272-5.272-12.184-7.906-19.094-7.906zm0 2.5c6.2701 0 12.529 2.4036 17.312 7.1875 9.5678 9.5678 9.5678 25.057 0 34.625-9.5678 9.5678-25.057 9.5678-34.625 0-9.5678-9.5678-9.5678-25.057 0-34.625 4.784-4.783 11.043-7.187 17.313-7.187z" style="opacity:.6;fill:url(#radialGradient3397)"/>
    <path id="path3742" d="m48 67.67a19.67 19.67 0 1 1 0 -39.34 19.67 19.67 0 1 1 0 39.34z" style="stroke:#1a1a1a;stroke-width:.99997;fill:url(#linearGradient3394)"/>
    <g id="layer6">
     <g id="g3786" style="opacity:.4;filter:url(#filter3833)" clip-path="url(#clipPath3798)">
      <path id="path3756" d="m61.367 45.997a13.637 13.637 0 0 1 -3.9942 9.6429l-9.643-9.643z" style="fill:#d40000" transform="matrix(1.0266 0 0 1.0266 -1 .77836)"/>
      <path id="path3772" d="m61.367 45.997a13.637 13.637 0 0 1 -3.9942 9.6429l-9.643-9.643z" style="fill:#d42aff" transform="matrix(.72593 .72593 -.72593 .72593 46.743 -20.039)"/>
      <path id="path3774" d="m61.367 45.997a13.637 13.637 0 0 1 -3.9942 9.6429l-9.643-9.643z" style="fill:#60f" transform="matrix(0,1.0266,-1.0266,0,95.222,-1)"/>
      <path id="path3776" d="m61.367 45.997a13.637 13.637 0 0 1 -3.9942 9.6429l-9.643-9.643z" style="fill:#2a7fff" transform="matrix(-.72593 .72593 -.72593 -.72593 116.04 46.743)"/>
      <path id="path3778" d="m61.367 45.997a13.637 13.637 0 0 1 -3.9942 9.6429l-9.643-9.643z" style="fill:#5fd3bc" transform="matrix(-1.0266,0,0,-1.0266,97,95.222)"/>
      <path id="path3780" d="m61.367 45.997a13.637 13.637 0 0 1 -3.9942 9.6429l-9.643-9.643z" style="fill:#55d400" transform="matrix(-.72593 -.72593 .72593 -.72593 49.257 116.04)"/>
      <path id="path3782" d="m61.367 45.997a13.637 13.637 0 0 1 -3.9942 9.6429l-9.643-9.643z" style="fill:#fc0" transform="matrix(0 -1.0266 1.0266 0 .77836 97)"/>
      <path id="path3784" d="m61.367 45.997a13.637 13.637 0 0 1 -3.9942 9.6429l-9.643-9.643z" style="fill:#f60" transform="matrix(.72593 -.72593 .72593 .72593 -20.039 49.257)"/>
     </g>
     <g id="g3957" style="opacity:.8;filter:url(#filter3987)" transform="translate(0,-50)">
      <path id="path3726" d="m61.531 94.375-0.96875 0.25c0.288 1.074 0.438 2.21 0.438 3.375 0 4.8078-2.6196 9.0009-6.5 11.25l0.5 0.875c5.4876-3.1682 8.1713-9.6294 6.5312-15.75z" style="opacity:.8;fill:url(#linearGradient9392)"/>
      <path id="path3728" d="m59.25 104.5c-2.2491 3.8804-6.4422 6.5-11.25 6.5-1.165 0-2.3007-0.15008-3.375-0.4375l-0.25 0.96875c6.1206 1.64 12.582-1.0437 15.75-6.5312l-0.875-0.5z" style="opacity:.8;fill:url(#linearGradient9394)"/>
      <path id="path3730" d="m36.75 104.5-0.875 0.5c3.1682 5.4876 9.6294 8.1712 15.75 6.5312l-0.25-0.96875c-1.074 0.29-2.21 0.44-3.375 0.44-4.8078 0-9.0009-2.6196-11.25-6.5z" style="fill:url(#linearGradient9396)"/>
      <path id="path3732" d="m34.469 94.375c-1.64 6.1206 1.0437 12.582 6.5312 15.75l0.5-0.875c-3.88-2.24-6.5-6.43-6.5-11.24 0-1.165 0.15008-2.3007 0.4375-3.375l-0.96875-0.25z" style="opacity:.9;fill:url(#linearGradient9398)"/>
      <path id="path3734" d="m41 85.875c-5.4876 3.1682-8.1713 9.6294-6.5312 15.75l0.96875-0.25c-0.288-1.07-0.438-2.205-0.438-3.37 0-4.808 2.62-9.001 6.5-11.25l-0.5-0.875z" style="fill:url(#linearGradient9400)"/>
      <path id="path3736" d="m48.156 84c-4.972-0.061-9.707 2.541-12.281 7l0.875 0.5c2.249-3.88 6.442-6.5 11.25-6.5 1.165 0 2.3007 0.15008 3.375 0.4375l0.25-0.96875c-1.148-0.308-2.321-0.455-3.469-0.469z" style="fill:url(#linearGradient9402)"/>
      <path id="path3738" d="m47.844 84c-1.1475 0.01398-2.3211 0.16125-3.4688 0.46875l0.25 0.96875c1.074-0.288 2.21-0.438 3.375-0.438 4.8078 0 9.0009 2.6196 11.25 6.5l0.875-0.5c-2.574-4.459-7.309-7.061-12.281-7z" style="fill:url(#linearGradient9404)"/>
      <path id="path3740" d="m55 85.875-0.5 0.875c3.8804 2.2491 6.5 6.4422 6.5 11.25 0 1.165-0.15008 2.3007-0.4375 3.375l0.96875 0.25c1.64-6.126-1.043-12.587-6.531-15.755z" style="opacity:.9;fill:url(#linearGradient9406)"/>
     </g>
     <path id="path3793" d="m50.708 52a9.7082 6 0 1 1 -19.416 0 9.7082 6 0 1 1 19.416 0z" style="fill:url(#radialGradient9408)" transform="matrix(.23288 -.23288 .23288 .23288 33.267 52.135)"/>
    </g>
   </g>
  </g>
  <rect id="rect3003" style="opacity:.15;fill:#fff" transform="translate(98 3.8281e-7)" clip-path="url(#clipPath3009)" rx="25" ry="25" height="92" width="92" y="958.36" x="-96"/>
 </g>
</svg>
