<?xml version="1.0" encoding="UTF-8" standalone="no"?>
<!-- Created with Inkscape (http://www.inkscape.org/) -->
<svg id="svg11037" xmlns:rdf="http://www.w3.org/1999/02/22-rdf-syntax-ns#" xmlns="http://www.w3.org/2000/svg" height="96" width="96" version="1.1" xmlns:cc="http://creativecommons.org/ns#" xmlns:xlink="http://www.w3.org/1999/xlink" xmlns:dc="http://purl.org/dc/elements/1.1/">
 <defs id="defs11039">
  <linearGradient id="linearGradient11642" y2="1046.1" gradientUnits="userSpaceOnUse" y1="962.62" gradientTransform="matrix(1.15 0 0 1.15 -7.1999 -150.65)" x2="48" x1="48">
   <stop id="stop3702-3-8" style="stop-color:#2f2f2f" offset="0"/>
   <stop id="stop3704-9" style="stop-color:#4f4f4f" offset="1"/>
  </linearGradient>
  <radialGradient id="radialGradient3513" xlink:href="#linearGradient4250" gradientUnits="userSpaceOnUse" cy="41.677" cx="32" gradientTransform="matrix(.90625 0 0 .78488 2.9999 9.1751)" r="16"/>
  <linearGradient id="linearGradient4250">
   <stop id="stop4252" style="stop-color:#66c7f1" offset="0"/>
   <stop id="stop4254-8" style="stop-color:#1677bb" offset="1"/>
  </linearGradient>
  <linearGradient id="linearGradient3515" x1="70" xlink:href="#linearGradient4146" gradientUnits="userSpaceOnUse" y1="71" gradientTransform="matrix(-.70711 -.70711 .70711 -.70711 20.294 182.77)" x2="77" y2="78"/>
  <linearGradient id="linearGradient4146">
   <stop id="stop4148" style="stop-color:#fff" offset="0"/>
   <stop id="stop4150" style="stop-color:#fff;stop-opacity:0" offset="1"/>
  </linearGradient>
  <linearGradient id="linearGradient3517" x1="15.949" xlink:href="#linearGradient4146" gradientUnits="userSpaceOnUse" x2="48" y1="32" y2="32"/>
  <radialGradient id="radialGradient3539" xlink:href="#linearGradient4350" gradientUnits="userSpaceOnUse" cy="41.677" cx="32" gradientTransform="matrix(.90625 0 0 .78488 2.9999 9.1751)" r="16"/>
  <linearGradient id="linearGradient4350">
   <stop id="stop4352" style="stop-color:#9ee82d" offset="0"/>
   <stop id="stop4356" style="stop-color:#328c22" offset="1"/>
  </linearGradient>
  <linearGradient id="linearGradient3541" x1="70" xlink:href="#linearGradient4146" gradientUnits="userSpaceOnUse" y1="71" gradientTransform="matrix(-.70711 -.70711 .70711 -.70711 74.294 182.77)" x2="77" y2="78"/>
  <radialGradient id="radialGradient3553" xlink:href="#linearGradient4426" gradientUnits="userSpaceOnUse" cy="41.677" cx="32" gradientTransform="matrix(.90625 0 0 .78488 2.9999 9.1751)" r="16"/>
  <linearGradient id="linearGradient4426">
   <stop id="stop4428-6" style="stop-color:#ff5b2a" offset="0"/>
   <stop id="stop4432" style="stop-color:#c21313" offset="1"/>
  </linearGradient>
  <linearGradient id="linearGradient3555" x1="70" xlink:href="#linearGradient4146" gradientUnits="userSpaceOnUse" y1="71" gradientTransform="matrix(-.70711 -.70711 .70711 -.70711 74.294 164.77)" x2="77" y2="78"/>
  <clipPath id="clipPath3009" clipPathUnits="userSpaceOnUse">
   <path id="path3011" style="opacity:.15;fill:#fff" d="m-2 956.36h-96v33.562l96 25.687v-59.25z"/>
  </clipPath>
 </defs>
 <metadata id="metadata11042">
  <rdf:RDF>
   <cc:Work rdf:about="">
    <dc:format>image/svg+xml</dc:format>
    <dc:type rdf:resource="http://purl.org/dc/dcmitype/StillImage"/>
    <dc:title/>
   </cc:Work>
  </rdf:RDF>
 </metadata>
 <g id="layer1" transform="translate(0 -956.36)">
  <rect id="rect3867" style="fill:url(#linearGradient11642)" rx="25" ry="25" height="92" width="92" y="958.36" x="2"/>
  <g id="g3613" transform="matrix(.77143 0 0 .77143 10.97 966.6)">
   <g id="g4256">
    <path id="path3976" d="m48 32a16 16 0 1 1 -32 0 16 16 0 1 1 32 0z" style="color:#000000;fill:url(#radialGradient3513)" transform="matrix(.5 0 0 .5 5 60)"/>
    <path id="path3979" d="m21 68c-4.4183 0-8 3.5817-8 8s3.5817 8 8 8 8-3.5817 8-8-3.5817-8-8-8zm0 1c3.866 0 7 3.134 7 7s-3.134 7-7 7-7-3.134-7-7 3.134-7 7-7z" style="opacity:.2;color:#000000"/>
    <path id="path3981" d="m16.051 80.95c2.7337 2.7337 7.1658 2.7337 9.8995 0s2.7337-7.1658 0-9.8995c-0.05931-0.05931-0.11592-0.12002-0.17678-0.17678 2.3604 2.5495 2.3013 6.5375-0.17678 9.0156-2.5384 2.5384-6.654 2.5384-9.1924 0-2.4781-2.4781-2.5371-6.4661-0.17678-9.0156-0.06086 0.05676-0.11746 0.11746-0.17678 0.17678-2.7337 2.7337-2.7337 7.1658 0 9.8995z" style="opacity:.3;color:#000000;fill:url(#linearGradient3515)"/>
    <path id="path4144" d="m48 32a16 16 0 1 1 -32 0 16 16 0 1 1 32 0z" style="color:#000000;fill:url(#linearGradient3517)" transform="matrix(0 .21971 -.30528 0 30.769 65.476)"/>
   </g>
   <g id="g4262" transform="translate(36)">
    <path id="path4264" d="m48 32a16 16 0 1 1 -32 0 16 16 0 1 1 32 0z" style="color:#000000;fill:url(#radialGradient3513)" transform="matrix(.5 0 0 .5 5 60)"/>
    <path id="path4266" d="m21 68c-4.4183 0-8 3.5817-8 8s3.5817 8 8 8 8-3.5817 8-8-3.5817-8-8-8zm0 1c3.866 0 7 3.134 7 7s-3.134 7-7 7-7-3.134-7-7 3.134-7 7-7z" style="opacity:.2;color:#000000"/>
    <path id="path4268" d="m16.051 80.95c2.7337 2.7337 7.1658 2.7337 9.8995 0s2.7337-7.1658 0-9.8995c-0.05931-0.05931-0.11592-0.12002-0.17678-0.17678 2.3604 2.5495 2.3013 6.5375-0.17678 9.0156-2.5384 2.5384-6.654 2.5384-9.1924 0-2.4781-2.4781-2.5371-6.4661-0.17678-9.0156-0.06086 0.05676-0.11746 0.11746-0.17678 0.17678-2.7337 2.7337-2.7337 7.1658 0 9.8995z" style="opacity:.3;color:#000000;fill:url(#linearGradient3515)"/>
    <path id="path4270" d="m48 32a16 16 0 1 1 -32 0 16 16 0 1 1 32 0z" style="color:#000000;fill:url(#linearGradient3517)" transform="matrix(0 .21971 -.30528 0 30.769 65.476)"/>
   </g>
   <g id="g4278" transform="translate(18,-18)">
    <path id="path4280" d="m48 32a16 16 0 1 1 -32 0 16 16 0 1 1 32 0z" style="color:#000000;fill:url(#radialGradient3513)" transform="matrix(.5 0 0 .5 5 60)"/>
    <path id="path4282" d="m21 68c-4.4183 0-8 3.5817-8 8s3.5817 8 8 8 8-3.5817 8-8-3.5817-8-8-8zm0 1c3.866 0 7 3.134 7 7s-3.134 7-7 7-7-3.134-7-7 3.134-7 7-7z" style="opacity:.2;color:#000000"/>
    <path id="path4284" d="m16.051 80.95c2.7337 2.7337 7.1658 2.7337 9.8995 0s2.7337-7.1658 0-9.8995c-0.05931-0.05931-0.11592-0.12002-0.17678-0.17678 2.3604 2.5495 2.3013 6.5375-0.17678 9.0156-2.5384 2.5384-6.654 2.5384-9.1924 0-2.4781-2.4781-2.5371-6.4661-0.17678-9.0156-0.06086 0.05676-0.11746 0.11746-0.17678 0.17678-2.7337 2.7337-2.7337 7.1658 0 9.8995z" style="opacity:.3;color:#000000;fill:url(#linearGradient3515)"/>
    <path id="path4286" d="m48 32a16 16 0 1 1 -32 0 16 16 0 1 1 32 0z" style="color:#000000;fill:url(#linearGradient3517)" transform="matrix(0 .21971 -.30528 0 30.769 65.476)"/>
   </g>
   <g id="g4294" transform="translate(36,-36)">
    <path id="path4296" d="m48 32a16 16 0 1 1 -32 0 16 16 0 1 1 32 0z" style="color:#000000;fill:url(#radialGradient3513)" transform="matrix(.5 0 0 .5 5 60)"/>
    <path id="path4298" d="m21 68c-4.4183 0-8 3.5817-8 8s3.5817 8 8 8 8-3.5817 8-8-3.5817-8-8-8zm0 1c3.866 0 7 3.134 7 7s-3.134 7-7 7-7-3.134-7-7 3.134-7 7-7z" style="opacity:.2;color:#000000"/>
    <path id="path4300" d="m16.051 80.95c2.7337 2.7337 7.1658 2.7337 9.8995 0s2.7337-7.1658 0-9.8995c-0.05931-0.05931-0.11592-0.12002-0.17678-0.17678 2.3604 2.5495 2.3013 6.5375-0.17678 9.0156-2.5384 2.5384-6.654 2.5384-9.1924 0-2.4781-2.4781-2.5371-6.4661-0.17678-9.0156-0.06086 0.05676-0.11746 0.11746-0.17678 0.17678-2.7337 2.7337-2.7337 7.1658 0 9.8995z" style="opacity:.3;color:#000000;fill:url(#linearGradient3515)"/>
    <path id="path4302" d="m48 32a16 16 0 1 1 -32 0 16 16 0 1 1 32 0z" style="color:#000000;fill:url(#linearGradient3517)" transform="matrix(0 .21971 -.30528 0 30.769 65.476)"/>
   </g>
   <g id="g4310" transform="translate(54,-54)">
    <path id="path4312" d="m48 32a16 16 0 1 1 -32 0 16 16 0 1 1 32 0z" style="color:#000000;fill:url(#radialGradient3513)" transform="matrix(.5 0 0 .5 5 60)"/>
    <path id="path4314" d="m21 68c-4.4183 0-8 3.5817-8 8s3.5817 8 8 8 8-3.5817 8-8-3.5817-8-8-8zm0 1c3.866 0 7 3.134 7 7s-3.134 7-7 7-7-3.134-7-7 3.134-7 7-7z" style="opacity:.2;color:#000000"/>
    <path id="path4316" d="m16.051 80.95c2.7337 2.7337 7.1658 2.7337 9.8995 0s2.7337-7.1658 0-9.8995c-0.05931-0.05931-0.11592-0.12002-0.17678-0.17678 2.3604 2.5495 2.3013 6.5375-0.17678 9.0156-2.5384 2.5384-6.654 2.5384-9.1924 0-2.4781-2.4781-2.5371-6.4661-0.17678-9.0156-0.06086 0.05676-0.11746 0.11746-0.17678 0.17678-2.7337 2.7337-2.7337 7.1658 0 9.8995z" style="opacity:.3;color:#000000;fill:url(#linearGradient3515)"/>
    <path id="path4318" d="m48 32a16 16 0 1 1 -32 0 16 16 0 1 1 32 0z" style="color:#000000;fill:url(#linearGradient3517)" transform="matrix(0 .21971 -.30528 0 30.769 65.476)"/>
   </g>
   <g id="g4358">
    <path id="path4328" d="m48 32a16 16 0 1 1 -32 0 16 16 0 1 1 32 0z" style="color:#000000;fill:url(#radialGradient3539)" transform="matrix(.5 0 0 .5 59 60)"/>
    <path id="path4330" d="m75 68c-4.4183 0-8 3.5817-8 8s3.5817 8 8 8 8-3.5817 8-8-3.5817-8-8-8zm0 1c3.866 0 7 3.134 7 7s-3.134 7-7 7-7-3.134-7-7 3.134-7 7-7z" style="opacity:.2;color:#000000"/>
    <path id="path4332" d="m70.051 80.95c2.7337 2.7337 7.1658 2.7337 9.8995 0s2.7337-7.1658 0-9.8995c-0.05931-0.05931-0.11592-0.12002-0.17678-0.17678 2.3604 2.5495 2.3013 6.5375-0.17678 9.0156-2.5384 2.5384-6.654 2.5384-9.1924 0-2.4781-2.4781-2.5371-6.4661-0.17678-9.0156-0.06086 0.05676-0.11746 0.11746-0.17678 0.17678-2.7337 2.7337-2.7337 7.1658 0 9.8995z" style="opacity:.3;color:#000000;fill:url(#linearGradient3541)"/>
    <path id="path4334" d="m48 32a16 16 0 1 1 -32 0 16 16 0 1 1 32 0z" style="color:#000000;fill:url(#linearGradient3517)" transform="matrix(0 .21971 -.30528 0 84.769 65.476)"/>
   </g>
   <g id="g4370" transform="translate(-36,-36)">
    <path id="path4372" d="m48 32a16 16 0 1 1 -32 0 16 16 0 1 1 32 0z" style="color:#000000;fill:url(#radialGradient3539)" transform="matrix(.5 0 0 .5 59 60)"/>
    <path id="path4374" d="m75 68c-4.4183 0-8 3.5817-8 8s3.5817 8 8 8 8-3.5817 8-8-3.5817-8-8-8zm0 1c3.866 0 7 3.134 7 7s-3.134 7-7 7-7-3.134-7-7 3.134-7 7-7z" style="opacity:.2;color:#000000"/>
    <path id="path4376" d="m70.051 80.95c2.7337 2.7337 7.1658 2.7337 9.8995 0s2.7337-7.1658 0-9.8995c-0.05931-0.05931-0.11592-0.12002-0.17678-0.17678 2.3604 2.5495 2.3013 6.5375-0.17678 9.0156-2.5384 2.5384-6.654 2.5384-9.1924 0-2.4781-2.4781-2.5371-6.4661-0.17678-9.0156-0.06086 0.05676-0.11746 0.11746-0.17678 0.17678-2.7337 2.7337-2.7337 7.1658 0 9.8995z" style="opacity:.3;color:#000000;fill:url(#linearGradient3541)"/>
    <path id="path4378" d="m48 32a16 16 0 1 1 -32 0 16 16 0 1 1 32 0z" style="color:#000000;fill:url(#linearGradient3517)" transform="matrix(0 .21971 -.30528 0 84.769 65.476)"/>
   </g>
   <g id="g4386" transform="translate(-54,-54)">
    <path id="path4388" d="m48 32a16 16 0 1 1 -32 0 16 16 0 1 1 32 0z" style="color:#000000;fill:url(#radialGradient3539)" transform="matrix(.5 0 0 .5 59 60)"/>
    <path id="path4390" d="m75 68c-4.4183 0-8 3.5817-8 8s3.5817 8 8 8 8-3.5817 8-8-3.5817-8-8-8zm0 1c3.866 0 7 3.134 7 7s-3.134 7-7 7-7-3.134-7-7 3.134-7 7-7z" style="opacity:.2;color:#000000"/>
    <path id="path4392" d="m70.051 80.95c2.7337 2.7337 7.1658 2.7337 9.8995 0s2.7337-7.1658 0-9.8995c-0.05931-0.05931-0.11592-0.12002-0.17678-0.17678 2.3604 2.5495 2.3013 6.5375-0.17678 9.0156-2.5384 2.5384-6.654 2.5384-9.1924 0-2.4781-2.4781-2.5371-6.4661-0.17678-9.0156-0.06086 0.05676-0.11746 0.11746-0.17678 0.17678-2.7337 2.7337-2.7337 7.1658 0 9.8995z" style="opacity:.3;color:#000000;fill:url(#linearGradient3541)"/>
    <path id="path4394" d="m48 32a16 16 0 1 1 -32 0 16 16 0 1 1 32 0z" style="color:#000000;fill:url(#linearGradient3517)" transform="matrix(0 .21971 -.30528 0 84.769 65.476)"/>
   </g>
   <g id="g4434">
    <path id="path4404" d="m48 32a16 16 0 1 1 -32 0 16 16 0 1 1 32 0z" style="color:#000000;fill:url(#radialGradient3553)" transform="matrix(.5 0 0 .5 59 42)"/>
    <path id="path4406" d="m75 50c-4.4183 0-8 3.5817-8 8s3.5817 8 8 8 8-3.5817 8-8-3.5817-8-8-8zm0 1c3.866 0 7 3.134 7 7s-3.134 7-7 7-7-3.134-7-7 3.134-7 7-7z" style="opacity:.2;color:#000000"/>
    <path id="path4408" d="m70.051 62.95c2.7337 2.7337 7.1658 2.7337 9.8995 0s2.7337-7.1658 0-9.8995c-0.05931-0.05931-0.11592-0.12002-0.17678-0.17678 2.3604 2.5495 2.3013 6.5375-0.17678 9.0156-2.5384 2.5384-6.654 2.5384-9.1924 0-2.4781-2.4781-2.5371-6.4661-0.17678-9.0156-0.06086 0.05676-0.11746 0.11746-0.17678 0.17678-2.7337 2.7337-2.7337 7.1658 0 9.8995z" style="opacity:.3;color:#000000;fill:url(#linearGradient3555)"/>
    <path id="path4410" d="m48 32a16 16 0 1 1 -32 0 16 16 0 1 1 32 0z" style="color:#000000;fill:url(#linearGradient3517)" transform="matrix(0 .21971 -.30528 0 84.769 47.476)"/>
   </g>
   <g id="g4446" transform="translate(-36,-36)">
    <path id="path4448" d="m48 32a16 16 0 1 1 -32 0 16 16 0 1 1 32 0z" style="color:#000000;fill:url(#radialGradient3553)" transform="matrix(.5 0 0 .5 59 42)"/>
    <path id="path4450" d="m75 50c-4.4183 0-8 3.5817-8 8s3.5817 8 8 8 8-3.5817 8-8-3.5817-8-8-8zm0 1c3.866 0 7 3.134 7 7s-3.134 7-7 7-7-3.134-7-7 3.134-7 7-7z" style="opacity:.2;color:#000000"/>
    <path id="path4452" d="m70.051 62.95c2.7337 2.7337 7.1658 2.7337 9.8995 0s2.7337-7.1658 0-9.8995c-0.05931-0.05931-0.11592-0.12002-0.17678-0.17678 2.3604 2.5495 2.3013 6.5375-0.17678 9.0156-2.5384 2.5384-6.654 2.5384-9.1924 0-2.4781-2.4781-2.5371-6.4661-0.17678-9.0156-0.06086 0.05676-0.11746 0.11746-0.17678 0.17678-2.7337 2.7337-2.7337 7.1658 0 9.8995z" style="opacity:.3;color:#000000;fill:url(#linearGradient3555)"/>
    <path id="path4454" d="m48 32a16 16 0 1 1 -32 0 16 16 0 1 1 32 0z" style="color:#000000;fill:url(#linearGradient3517)" transform="matrix(0 .21971 -.30528 0 84.769 47.476)"/>
   </g>
  </g>
  <rect id="rect3003" style="opacity:.15;fill:#fff" transform="translate(98 3.8281e-7)" clip-path="url(#clipPath3009)" rx="25" ry="25" height="92" width="92" y="958.36" x="-96"/>
 </g>
</svg>
