<?xml version="1.0" encoding="UTF-8" standalone="no"?>
<!-- Created with Inkscape (http://www.inkscape.org/) -->
<svg id="svg11037" xmlns:rdf="http://www.w3.org/1999/02/22-rdf-syntax-ns#" xmlns="http://www.w3.org/2000/svg" height="96" width="96" version="1.1" xmlns:cc="http://creativecommons.org/ns#" xmlns:xlink="http://www.w3.org/1999/xlink" xmlns:dc="http://purl.org/dc/elements/1.1/">
 <defs id="defs11039">
  <linearGradient id="linearGradient11642" y2="1046.1" gradientUnits="userSpaceOnUse" y1="962.62" gradientTransform="matrix(1.15 0 0 1.15 -7.1999 -150.65)" x2="48" x1="48">
   <stop id="stop3702-3-9" style="stop-color:#2f2f2f" offset="0"/>
   <stop id="stop3704-9" style="stop-color:#4f4f4f" offset="1"/>
  </linearGradient>
  <radialGradient id="radialGradient3035" gradientUnits="userSpaceOnUse" cy="26" cx="32" gradientTransform="matrix(1.1875,0,0,-1.125,-8,65.25)" r="16">
   <stop id="stop3929" style="stop-color:#5db1eb" offset="0"/>
   <stop id="stop3935-1" style="stop-color:#3ca0e6" offset=".71875"/>
   <stop id="stop3933-3" style="stop-color:#1b90e2" offset="1"/>
  </radialGradient>
  <linearGradient id="linearGradient3037" y2="38.502" xlink:href="#linearGradient3781-0" gradientUnits="userSpaceOnUse" x2="67.297" gradientTransform="translate(-36)" y1="15" x1="61"/>
  <linearGradient id="linearGradient3781-0">
   <stop id="stop3783-2" style="stop-color:#fff" offset="0"/>
   <stop id="stop3785" style="stop-color:#fff;stop-opacity:0" offset="1"/>
  </linearGradient>
  <radialGradient id="radialGradient3039" xlink:href="#linearGradient3957" gradientUnits="userSpaceOnUse" cy="40" cx="32" gradientTransform="matrix(1.1875,0,0,1.125,-6,-5)" r="16"/>
  <linearGradient id="linearGradient3957">
   <stop id="stop3959-9" style="stop-color:#f14848" offset="0"/>
   <stop id="stop3965" style="stop-color:#e42323" offset=".67188"/>
   <stop id="stop3963" style="stop-color:#c21313" offset="1"/>
  </linearGradient>
  <linearGradient id="linearGradient3041" y2="38.502" xlink:href="#linearGradient3781-0" gradientUnits="userSpaceOnUse" x2="67.297" y1="15" x1="61"/>
  <clipPath id="clipPath3009" clipPathUnits="userSpaceOnUse">
   <path id="path3011" style="opacity:.15;fill:#fff" d="m-2 956.36h-96v33.562l96 25.687v-59.25z"/>
  </clipPath>
 </defs>
 <metadata id="metadata11042">
  <rdf:RDF>
   <cc:Work rdf:about="">
    <dc:format>image/svg+xml</dc:format>
    <dc:type rdf:resource="http://purl.org/dc/dcmitype/StillImage"/>
    <dc:title/>
   </cc:Work>
  </rdf:RDF>
 </metadata>
 <g id="layer1" transform="translate(0 -956.36)">
  <rect id="rect3867" style="fill:url(#linearGradient11642)" rx="25" ry="25" height="92" width="92" y="958.36" x="2"/>
  <g id="g3097" transform="matrix(.79412 0 0 .79412 9.88 966.3)">
   <path id="path3663" style="color:#000000;fill:url(#radialGradient3035)" d="m46 30a16 16 0 1 0 -32 0 16 16 0 0 0 32 0z"/>
   <path id="path3789" style="opacity:.4;color:#000000;fill:url(#linearGradient3037)" d="m30 15c-8.2843 0-15 6.7157-15 15 0 3.6087 1.283 6.912 3.4062 9.5-1.525-2.296-2.406-5.038-2.406-8 0-8.008 6.492-14.5 14.5-14.5 7.753 0 14.073 6.096 14.469 13.75 0.012-0.251 0.031-0.496 0.031-0.75 0-8.284-6.716-15-15-15z"/>
   <path id="path3795" style="opacity:.2;color:#000000" d="m30 14c-8.8366 0-16 7.1634-16 16s7.1634 16 16 16 16-7.1634 16-16-7.1634-16-16-16zm0 0.96875c8.3201 0 15.031 6.7111 15.031 15.031 0 8.3201-6.7111 15.031-15.031 15.031-8.3201 0-15.031-6.7111-15.031-15.031 0-8.3201 6.7111-15.031 15.031-15.031z"/>
   <g id="g3967">
    <path id="path3667" d="m48 32a16 16 0 1 1 -32 0 16 16 0 1 1 32 0z" style="color:#000000;fill:url(#radialGradient3039)" transform="translate(34,-2)"/>
    <path id="path3764" style="opacity:.3;color:#000000;fill:url(#linearGradient3041)" d="m66 15c-8.2843 0-15 6.7157-15 15 0 3.6087 1.283 6.912 3.4062 9.5-1.525-2.296-2.406-5.038-2.406-8 0-8.008 6.492-14.5 14.5-14.5 7.753 0 14.073 6.096 14.469 13.75 0.012-0.251 0.031-0.496 0.031-0.75 0-8.284-6.716-15-15-15z"/>
    <path id="path3802" style="opacity:.2;color:#000000" d="m66 14c-8.8366 0-16 7.1634-16 16s7.1634 16 16 16 16-7.1634 16-16-7.1634-16-16-16zm0 0.96875c8.3201 0 15.031 6.7111 15.031 15.031 0 8.3201-6.7111 15.031-15.031 15.031-8.3201 0-15.031-6.7111-15.031-15.031 0-8.3201 6.7111-15.031 15.031-15.031z"/>
   </g>
   <g id="g3976" transform="translate(0,36)">
    <path id="path3978" d="m48 32a16 16 0 1 1 -32 0 16 16 0 1 1 32 0z" style="color:#000000;fill:url(#radialGradient3039)" transform="translate(34,-2)"/>
    <path id="path3980" style="opacity:.3;color:#000000;fill:url(#linearGradient3041)" d="m66 15c-8.2843 0-15 6.7157-15 15 0 3.6087 1.283 6.912 3.4062 9.5-1.525-2.296-2.406-5.038-2.406-8 0-8.008 6.492-14.5 14.5-14.5 7.753 0 14.073 6.096 14.469 13.75 0.012-0.251 0.031-0.496 0.031-0.75 0-8.284-6.716-15-15-15z"/>
    <path id="path3982" style="opacity:.2;color:#000000" d="m66 14c-8.8366 0-16 7.1634-16 16s7.1634 16 16 16 16-7.1634 16-16-7.1634-16-16-16zm0 0.96875c8.3201 0 15.031 6.7111 15.031 15.031 0 8.3201-6.7111 15.031-15.031 15.031-8.3201 0-15.031-6.7111-15.031-15.031 0-8.3201 6.7111-15.031 15.031-15.031z"/>
   </g>
   <g id="g3988" transform="translate(-36,36)">
    <path id="path3990" d="m48 32a16 16 0 1 1 -32 0 16 16 0 1 1 32 0z" style="color:#000000;fill:url(#radialGradient3039)" transform="translate(34,-2)"/>
    <path id="path3992" style="opacity:.3;color:#000000;fill:url(#linearGradient3041)" d="m66 15c-8.2843 0-15 6.7157-15 15 0 3.6087 1.283 6.912 3.4062 9.5-1.525-2.296-2.406-5.038-2.406-8 0-8.008 6.492-14.5 14.5-14.5 7.753 0 14.073 6.096 14.469 13.75 0.012-0.251 0.031-0.496 0.031-0.75 0-8.284-6.716-15-15-15z"/>
    <path id="path3994" style="opacity:.2;color:#000000" d="m66 14c-8.8366 0-16 7.1634-16 16s7.1634 16 16 16 16-7.1634 16-16-7.1634-16-16-16zm0 0.96875c8.3201 0 15.031 6.7111 15.031 15.031 0 8.3201-6.7111 15.031-15.031 15.031-8.3201 0-15.031-6.7111-15.031-15.031 0-8.3201 6.7111-15.031 15.031-15.031z"/>
   </g>
  </g>
  <rect id="rect3003" style="opacity:.15;fill:#fff" transform="translate(98 3.8281e-7)" clip-path="url(#clipPath3009)" rx="25" ry="25" height="92" width="92" y="958.36" x="-96"/>
 </g>
</svg>
