<?xml version="1.0" encoding="UTF-8" standalone="no"?>
<!-- Created with Inkscape (http://www.inkscape.org/) -->
<svg id="svg11037" xmlns:rdf="http://www.w3.org/1999/02/22-rdf-syntax-ns#" xmlns="http://www.w3.org/2000/svg" height="96" width="96" version="1.1" xmlns:cc="http://creativecommons.org/ns#" xmlns:xlink="http://www.w3.org/1999/xlink" xmlns:dc="http://purl.org/dc/elements/1.1/">
 <defs id="defs11039">
  <linearGradient id="linearGradient3617" y2="5.9877" gradientUnits="userSpaceOnUse" x2="48" y1="90" x1="48">
   <stop id="stop4083" style="stop-color:#8c8c8c" offset="0"/>
   <stop id="stop4085" style="stop-color:#dcdcdc" offset="1"/>
  </linearGradient>
  <linearGradient id="linearGradient3613" y2="138.66" gradientUnits="userSpaceOnUse" x2="48" y1="20.221" x1="48">
   <stop id="stop3739" style="stop-color:#fff" offset="0"/>
   <stop id="stop3741" style="stop-color:#fff;stop-opacity:0" offset="1"/>
  </linearGradient>
  <clipPath id="clipPath3613">
   <rect id="rect3615" style="fill:#fff" rx="6" ry="6" height="84" width="84" y="6" x="6"/>
  </clipPath>
  <filter id="filter3794" height="1.384" width="1.384" color-interpolation-filters="sRGB" y="-.192" x="-.192">
   <feGaussianBlur id="feGaussianBlur3796" stdDeviation="5.28"/>
  </filter>
  <clipPath id="clipPath4194-1">
   <rect id="rect4196-1" style="fill:#f0f" rx="6" ry="6" height="84" width="84" y="6" x="6"/>
  </clipPath>
  <linearGradient id="linearGradient4077-0" y2="66.233" xlink:href="#linearGradient4071-3" gradientUnits="userSpaceOnUse" x2="126.14" y1="48.047" x1="48.234"/>
  <linearGradient id="linearGradient4071-3">
   <stop id="stop4073-8" offset="0"/>
   <stop id="stop4075-4" style="stop-opacity:0" offset="1"/>
  </linearGradient>
  <linearGradient id="linearGradient4069-9" y2="62.839" xlink:href="#linearGradient4071-3" gradientUnits="userSpaceOnUse" x2="126.67" y1="48.032" x1="48.055"/>
  <linearGradient id="linearGradient4061-6" y2="60.29" xlink:href="#linearGradient4071-3" gradientUnits="userSpaceOnUse" x2="127.05" y1="48.029" x1="47.997"/>
  <linearGradient id="linearGradient4053-2" y2="57.665" xlink:href="#linearGradient4071-3" gradientUnits="userSpaceOnUse" x2="127.42" y1="48.029" x1="47.998"/>
  <radialGradient id="radialGradient3814-9" gradientUnits="userSpaceOnUse" cy="47.598" cx="48.41" gradientTransform="matrix(1 0 0 .98496 -30 .71591)" r="30.64">
   <stop id="stop3798-4" style="stop-color:#fff;stop-opacity:0" offset="0"/>
   <stop id="stop3800-9" style="stop-color:#fff" offset="1"/>
  </radialGradient>
  <radialGradient id="radialGradient5008" gradientUnits="userSpaceOnUse" cy="47.887" cx="48.265" gradientTransform="matrix(1 0 0 1.0138 -30 -.66141)" r="28.879">
   <stop id="stop3782-4" style="stop-opacity:0" offset="0"/>
   <stop id="stop3784-9" offset="1"/>
  </radialGradient>
  <linearGradient id="linearGradient4145-0" y2="66.233" xlink:href="#linearGradient4115-2" gradientUnits="userSpaceOnUse" x2="126.14" y1="48.047" x1="48.234"/>
  <linearGradient id="linearGradient4115-2">
   <stop id="stop4117-3" style="stop-color:#fff" offset="0"/>
   <stop id="stop4119-6" style="stop-color:#fff;stop-opacity:0" offset="1"/>
  </linearGradient>
  <linearGradient id="linearGradient4137-7" y2="62.839" xlink:href="#linearGradient4115-2" gradientUnits="userSpaceOnUse" x2="126.67" y1="48.032" x1="48.055"/>
  <linearGradient id="linearGradient4129-8" y2="60.29" xlink:href="#linearGradient4115-2" gradientUnits="userSpaceOnUse" x2="127.05" y1="48.029" x1="47.997"/>
  <linearGradient id="linearGradient4121-6" y2="57.665" xlink:href="#linearGradient4115-2" gradientUnits="userSpaceOnUse" x2="127.42" y1="48.029" x1="47.998"/>
  <linearGradient id="linearGradient4111" y2="80" gradientUnits="userSpaceOnUse" x2="48" y1="16" x1="48">
   <stop id="stop4283-9" style="stop-color:#1e1e1e" offset="0"/>
   <stop id="stop4285-8" style="stop-color:#505050" offset="1"/>
  </linearGradient>
  <clipPath id="clipPath3298" clipPathUnits="userSpaceOnUse">
   <rect id="rect3300" style="fill:url(#linearGradient3302)" rx="22.826" ry="22.826" height="84" width="84" y="6" x="6"/>
  </clipPath>
  <linearGradient id="linearGradient3302" y2="1046.1" gradientUnits="userSpaceOnUse" x2="48" gradientTransform="matrix(1.05 0 0 1.05 -2.4 -1006.6)" y1="962.62" x1="48">
   <stop id="stop3797" style="stop-color:#13a6fd" offset="0"/>
   <stop id="stop3799" style="stop-color:#2975b6" offset="1"/>
  </linearGradient>
  <clipPath id="clipPath3009" clipPathUnits="userSpaceOnUse">
   <path id="path3011" style="opacity:.15;fill:#fff" d="m-2 956.36h-96v33.562l96 25.687v-59.25z"/>
  </clipPath>
 </defs>
 <metadata id="metadata11042">
  <rdf:RDF>
   <cc:Work rdf:about="">
    <dc:format>image/svg+xml</dc:format>
    <dc:type rdf:resource="http://purl.org/dc/dcmitype/StillImage"/>
    <dc:title/>
   </cc:Work>
  </rdf:RDF>
 </metadata>
 <g id="layer1" transform="translate(0 -956.36)">
  <g id="g3111" clip-path="url(#clipPath3298)" transform="matrix(1.0952 0 0 1.0952 -4.5714 951.79)">
   <g id="layer1-2" style="opacity:.9">
    <rect id="rect2419" style="fill:url(#linearGradient3617)" rx="6" ry="6" height="84" width="84" y="6" x="6"/>
   </g>
   <g id="layer5">
    <rect id="rect3171" style="opacity:.3;filter:url(#filter3794);stroke:#fff;stroke-linecap:round;stroke-width:.5;fill:url(#linearGradient3613)" clip-path="url(#clipPath3613)" rx="12" ry="12" height="66" width="66" y="15" x="15"/>
   </g>
   <g id="layer7">
    <g id="g4165" clip-path="url(#clipPath4194-1)">
     <g id="g4011" style="opacity:.9" transform="matrix(.14137 .99272 -1.1652 .12045 96.937 -5.1947)">
      <path id="path4009" d="m108.9 48a60.896 60.896 0 0 1 -6.5462 27.467l-54.35-27.467z" style="opacity:.05;color:#000000;fill:url(#linearGradient4077-0)" transform="matrix(.99411 -.10837 .10837 .99411 -5.1582 5.4919)"/>
      <path id="path4007" d="m108.9 48a60.896 60.896 0 0 1 -4.4572 22.869l-56.44-22.869z" style="opacity:0.07;color:#000000;fill:url(#linearGradient4069-9)" transform="matrix(.99786 -.065374 .065374 .99786 -3.094 3.2416)"/>
      <path id="path4005" d="m108.9 48a60.896 60.896 0 0 1 -3.1299 19.272l-57.77-19.272z" style="opacity:.1;color:#000000;fill:url(#linearGradient4061-6)" transform="matrix(.99945 -.033121 .033121 .99945 -1.5635 1.6161)"/>
      <path id="path4003" d="m108.9 48a60.896 60.896 0 0 1 -2.075 15.761l-58.82-15.761z" style="opacity:.1;color:#000000;fill:url(#linearGradient4053-2)"/>
     </g>
     <g id="g3802" transform="matrix(1.8327 0 0 1.8327 14.258 -39.234)">
      <path id="path2875" d="m19.196 49.867c-3.7383 2.563-5.6052-4.8991-1.155-4.812 4.3871-0.23608 3.9791 6.8014-0.14484 6.6146-3.1737 0.24264-5.0987-3.8987-3.1036-6.2853 2.0277-2.9808 7.1712-1.6842 7.7389 1.8175 0.96896 3.6362-3.1572 7.0386-6.5673 5.5229-3.9462-1.2697-4.4898-7.147-1.1071-9.3662 3.5697-2.7958 9.3917 0.23728 9.2058 4.7583 0.25677 4.3508-4.6893 7.6722-8.6482 5.9348-4.7194-1.5512-5.692-8.4202-1.9094-11.473 3.6589-3.435 10.363-1.4582 11.675 3.3588 1.5931 4.5594-2.0643 9.9214-6.9194 10.009-4.9341 0.46502-9.3835-4.3388-8.5226-9.2263 0.48048-5.0458 6.044-8.5972 10.839-7.0428 5.1784 1.2462 7.9642 7.5811 5.6619 12.315-2.0703 5.1795-9.0655 7.066-13.621 4.0018-5.1937-3.019-5.9263-10.893-1.749-15.07 4.296-4.829 12.905-3.785 16.13 1.741 3.588 5.436 0.745 13.65-5.446 15.695-6.086 2.396-13.647-1.743-14.738-8.237-1.4747-6.41 3.513-13.362 10.125-13.808 6.547-0.848 13.055 4.594 13.184 11.238 0.523 6.584-5.016 12.887-11.659 13.025-6.796 0.538-13.3-5.181-13.44-12.038-0.5528-7.008 5.345-13.715 12.417-13.857 7.223-0.57 14.129 5.518 14.276 12.799 0.544 7.071-5.079 13.91-12.151 14.606-7.06 1.019-14.41-3.962-15.813-11.012-1.7657-7.233 2.7908-15.364 10.015-17.379 7.396-2.396 16.205 1.872 18.685 9.293 2.829 7.457-1.114 16.692-8.577 19.625-7.624 3.345-17.458-0.452-20.711-8.155-3.6267-7.73 0.0276-17.902 7.832-21.439 7.827-3.917 18.336-0.419 22.166 7.477 4.217 7.914 0.888 18.76-7.088 22.89-7.991 4.527-19.172 1.382-23.611-6.665-4.8441-8.058-1.8978-19.571 6.209-24.326 7.972-5.073 19.561-2.547 24.767 5.318 5.623 7.877 3.599 19.843-4.151 25.573-7.618 6.053-19.659 4.732-25.992-2.574-6.5371-7.045-6.3484-18.848 0.0056-25.943 5.9692-7.142 17.094-8.694 25.012-3.988 7.87 4.287 11.778 14.219 9.324 22.774-2.103 8.654-10.4 15.241-19.316 15.262-9.351 0.375-18.515-6.176-20.825-15.313-2.8403-9.826 2.3763-21.277 11.857-25.282 9.8-4.531 22.58-0.439 27.807 9.04 5.626 9.457 2.708 22.791-6.297 29.09-8.847 6.617-22.359 5.123-29.763-2.992-7.4444-7.667-7.9889-20.556-1.7346-29.099 5.6922-8.332 17.147-11.703 26.557-8.289 9.341 3.005 16.04 12.41 15.838 22.219 0.143 10.289-6.983 20.254-16.957 23.049-10.921 3.426-23.853-1.921-28.876-12.275-5.5969-10.683-1.9008-25.098 8.1677-31.748 9.8773-6.965 24.558-5.161 32.664 3.725 8.12 8.388 8.871 22.382 2.264 31.88-5.872 9.029-17.788 13.194-28.077 10.261-10.334-2.561-18.453-12.028-19.261-22.667-1.2474-11.537 5.8426-23.476 16.82-27.472 11.762-4.671 26.426 0.214 32.851 11.167 6.963 11.11 4.255 26.939-5.848 35.24-9.018 7.808-23.123 8.436-33.026 1.904-9.3102-5.773-14.27-17.436-12.265-28.169 1.6444-10.784 10.062-20.17 20.686-22.756 11.827-3.17 25.393 2.05 31.78 12.56 6.786 10.594 5.379 25.435-2.951 34.783-7.206 8.462-19.472 11.822-30.072 8.71-10.579-2.807-19.154-11.944-21.08-22.748-2.4683-12.198 3.3554-25.652 14.214-31.864 11.255-6.7882 26.724-4.9539 36.275 3.9991 8.6483 7.7558 11.835 20.656 8.3267 31.654-2.022 6.6789-6.3258 12.653-12.119 16.565" style="opacity:.2;stroke:url(#radialGradient3814-9);stroke-width:.47875;fill:none"/>
      <path id="path3650" d="m16.909 49.337c-3.8859-1.8589 1.3687-6.9414 3.4117-3.2373 2.279 3.4987-3.7071 6.5071-5.513 3.024-1.7078-2.4969 0.78598-6.0492 3.6983-5.5412 3.4169 0.25246 4.7939 5.102 2.1816 7.2332-2.5323 2.5254-7.2934 0.74614-7.6664-2.7808-0.83017-3.8513 3.7489-7.0916 7.1828-5.362 3.9974 1.6095 4.2675 7.8427 0.45822 9.8381-3.459 2.2788-8.5429-0.21377-8.9943-4.2978-0.96594-4.6215 4.2255-8.6861 8.5353-7.0233 4.5659 1.3792 6.1246 7.8364 2.7832 11.205-2.9956 3.4778-9.1468 3.0156-11.526-0.93872-2.7274-3.8401-0.88788-9.785 3.5439-11.399 4.3813-2.0023 9.9481 0.8892 10.947 5.5743 1.435 4.8543-2.4551 10.158-7.4458 10.512-5.2468 0.75731-10.124-4.1037-9.7664-9.3095 0.01802-5.7097 6.1502-10.054 11.573-8.6004 6.0158 1.2412 9.2475 8.8224 6.232 14.102-2.7696 5.5367-10.88 7.1-15.506 2.9765-4.8644-3.8703-5.051-12.061-0.2246-16.044 4.5753-4.26 12.667-3.4584 16.177 1.7717 3.809 4.9861 2.4225 12.928-2.9849 16.191-5.17 3.559-12.99 1.995-16.26-3.407-3.6723-5.338-2.0567-13.409 3.521-16.782 5.5054-3.7848 13.829-2.1176 17.306 3.6355 3.9019 5.6738 2.1722 14.252-3.7509 17.832-5.561 3.806-13.862 2.429-17.796-3.061-4.1935-5.327-3.5858-13.743 1.5496-18.248 5.114-4.8903 13.972-5.0041 19.064-0.0154 5.4857 4.9484 6.1591 14.227 1.2302 19.795-4.7938 5.8719-14.268 7.0146-20.228 2.2654-6.3771-4.685-7.9251-14.583-3.1307-20.921 4.6389-6.6583 14.748-8.4844 21.367-3.7419 6.9435 4.5805 9.0581 14.893 4.3795 21.797-4.5098 7.2319-15.018 9.6462-22.208 5.0438-7.5228-4.4262-10.247-15.123-5.7334-22.6 4.3297-7.8161 15.206-10.862 22.972-6.4494 7.9638 4.1507 11.391 14.89 7.3919 22.912-3.811 8.37-14.622 12.391-23.021 8.734-8.6022-3.393-13.237-13.932-10.232-22.616 2.6917-8.728 12.496-14.181 21.355-12.323 8.7143 1.5195 15.279 9.9382 15.168 18.692 0.21089 8.5145-6.1061 16.451-14.314 18.497-8.122 2.38-17.486-1.318-21.74-8.647-4.7527-7.518-3.7156-18.174 2.7072-24.416 6.7378-7.008 18.641-8.155 26.444-2.255 8.385 5.912 11.091 18.375 5.772 27.182-5.11 9.125-17.471 13.059-26.934 8.641-9.6501-4.137-14.842-15.969-11.681-25.919 2.7728-9.77 13.122-16.343 23.126-15.255 9.563 0.725 17.78 8.551 19.441 17.919 1.966 9.116-2.591 19.099-10.761 23.593-8.4 5.008-19.988 3.878-27.028-3.004-8.0092-7.36-9.7539-20.544-3.6191-29.599 6.1331-9.683 19.754-13.491 30.012-8.364 10.427 4.82 15.918 17.76 12.456 28.655-3.045 10.669-14.207 17.937-25.163 17.012-10.222-0.542-19.313-8.37-21.788-18.233-2.8025-9.722 1.1312-20.904 9.5037-26.624 8.9031-6.5096 22.099-6.3475 30.604 0.789 9.4344 7.4613 12.381 21.852 6.4198 32.345-5.836 11.011-20.151 16.303-31.784 11.933-10.712-3.712-17.932-15.023-17.261-26.278 0.3269-10.406 7.5699-20.031 17.356-23.48 9.658-3.772 21.383-1.303 28.559 6.212 8.23 8.228 10.38 21.874 4.764 32.125-5.494 10.62-18.378 16.514-30.03 14.1-10.389-1.91-18.983-10.409-21.459-20.612-2.717-10.041 0.7284-21.441 8.7055-28.16 8.8671-7.828 22.708-9.428 32.98-3.442 10.936 6.037 16.777 19.641 13.947 31.756-2.274 10.804-11.377 19.557-22.097 21.896-6.458 1.509-13.42 0.806-19.393-2.103" style="opacity:.1;stroke:url(#radialGradient5008);stroke-width:.47875;fill:none"/>
     </g>
     <g id="g4027" style="opacity:.9;fill:#fff" transform="matrix(1.0628 -.13088 -.74010 3.2275 32.525 -100.67)">
      <path id="path4029" d="m108.9 48a60.896 60.896 0 0 1 -6.5462 27.467l-54.35-27.467z" style="opacity:.2;color:#000000;fill:url(#linearGradient4145-0)" transform="matrix(.99411 -.10837 .10837 .99411 -5.1582 5.4919)"/>
      <path id="path4031" d="m108.9 48a60.896 60.896 0 0 1 -4.4572 22.869l-56.44-22.869z" style="opacity:.4;color:#000000;fill:url(#linearGradient4137-7)" transform="matrix(.99786 -.065374 .065374 .99786 -3.094 3.2416)"/>
      <path id="path4033" d="m108.9 48a60.896 60.896 0 0 1 -3.1299 19.272l-57.77-19.272z" style="opacity:.6;color:#000000;fill:url(#linearGradient4129-8)" transform="matrix(.99945 -.033121 .033121 .99945 -1.5635 1.6161)"/>
      <path id="path4035" d="m108.9 48a60.896 60.896 0 0 1 -2.075 15.761l-58.82-15.761z" style="opacity:.8;color:#000000;fill:url(#linearGradient4121-6)"/>
     </g>
     <g id="g4079" style="opacity:.5" transform="matrix(-.61679 .78713 -.78713 -.61679 115 40.012)">
      <path id="path4081" d="m108.9 48a60.896 60.896 0 0 1 -6.5462 27.467l-54.35-27.467z" style="opacity:.05;color:#000000;fill:url(#linearGradient4077-0)" transform="matrix(.99411 -.10837 .10837 .99411 -5.1582 5.4919)"/>
      <path id="path4083" d="m108.9 48a60.896 60.896 0 0 1 -4.4572 22.869l-56.44-22.869z" style="opacity:0.07;color:#000000;fill:url(#linearGradient4069-9)" transform="matrix(.99786 -.065374 .065374 .99786 -3.094 3.2416)"/>
      <path id="path4085" d="m108.9 48a60.896 60.896 0 0 1 -3.1299 19.272l-57.77-19.272z" style="opacity:.1;color:#000000;fill:url(#linearGradient4061-6)" transform="matrix(.99945 -.033121 .033121 .99945 -1.5635 1.6161)"/>
      <path id="path4087" d="m108.9 48a60.896 60.896 0 0 1 -2.075 15.761l-58.82-15.761z" style="opacity:.1;color:#000000;fill:url(#linearGradient4053-2)"/>
     </g>
     <g id="g4097" style="opacity:.8" transform="matrix(-.068172 -1.046 2.7107 .60163 -79.095 69.08)">
      <path id="path4099" d="m108.9 48a60.896 60.896 0 0 1 -6.5462 27.467l-54.35-27.467z" style="opacity:.05;color:#000000;fill:url(#linearGradient4077-0)" transform="matrix(.99411 -.10837 .10837 .99411 -5.1582 5.4919)"/>
      <path id="path4101" d="m108.9 48a60.896 60.896 0 0 1 -4.4572 22.869l-56.44-22.869z" style="opacity:0.07;color:#000000;fill:url(#linearGradient4069-9)" transform="matrix(.99786 -.065374 .065374 .99786 -3.094 3.2416)"/>
      <path id="path4103" d="m108.9 48a60.896 60.896 0 0 1 -3.1299 19.272l-57.77-19.272z" style="opacity:.1;color:#000000;fill:url(#linearGradient4061-6)" transform="matrix(.99945 -.033121 .033121 .99945 -1.5635 1.6161)"/>
      <path id="path4105" d="m108.9 48a60.896 60.896 0 0 1 -2.075 15.761l-58.82-15.761z" style="opacity:.1;color:#000000;fill:url(#linearGradient4053-2)"/>
     </g>
     <g id="g4147" style="opacity:.9;fill:#fff" transform="matrix(-1.0628 .13088 .74010 -3.2275 62.997 196.67)">
      <path id="path4149" d="m108.9 48a60.896 60.896 0 0 1 -6.5462 27.467l-54.35-27.467z" style="opacity:.2;color:#000000;fill:url(#linearGradient4145-0)" transform="matrix(.99411 -.10837 .10837 .99411 -5.1582 5.4919)"/>
      <path id="path4151" d="m108.9 48a60.896 60.896 0 0 1 -4.4572 22.869l-56.44-22.869z" style="opacity:.4;color:#000000;fill:url(#linearGradient4137-7)" transform="matrix(.99786 -.065374 .065374 .99786 -3.094 3.2416)"/>
      <path id="path4153" d="m108.9 48a60.896 60.896 0 0 1 -3.1299 19.272l-57.77-19.272z" style="opacity:.6;color:#000000;fill:url(#linearGradient4129-8)" transform="matrix(.99945 -.033121 .033121 .99945 -1.5635 1.6161)"/>
      <path id="path4155" d="m108.9 48a60.896 60.896 0 0 1 -2.075 15.761l-58.82-15.761z" style="opacity:.8;color:#000000;fill:url(#linearGradient4121-6)"/>
     </g>
    </g>
   </g>
   <g id="layer4">
    <path id="rect4223" d="m59.688 23.188c-3.1453 0.01609-4.9877 4.1855-2.882 6.522 2.1548 1.834 4.845 3.1049 6.5612 5.4713 5.9079 6.8039 6.1875 17.643 0.66457 24.757-1.7446 2.439-4.1555 4.2925-6.6948 5.8344-2.5148 1.8939-1.5 6.3422 1.5874 6.9581 2.5579 0.60082 4.5824-1.514 6.5183-2.8323 8.6102-6.6826 12.556-18.666 9.5745-29.158-1.949-7.316-6.971-13.86-13.73-17.33-0.511-0.182-1.059-0.258-1.599-0.222zm-24 0.03125c-2.1903 0.361-3.9154 2.0308-5.6562 3.3125-8.1776 6.6696-11.875 18.198-9.1387 28.384 1.8839 7.4558 6.9526 14.151 13.821 17.674 2.9036 1.1913 6.2578-1.897 5.2206-4.8925-0.911-2.765-4.29-3.251-5.963-5.434-6.459-6.104-7.877-16.659-3.284-24.263 1.8478-3.3041 4.7526-5.8611 7.9701-7.7797 2.4676-1.955 1.344-6.377-1.7575-6.917-0.39674-0.08965-0.8072-0.11827-1.2125-0.08453z" style="color:#000000;fill:url(#linearGradient4111)"/>
    <path id="path3313" d="m59.688 23.188a4.0004 4.0004 0 0 0 -3.75 4.5312 4.0004 4.0004 0 0 1 3.75 -3.5312 4.0004 4.0004 0 0 1 1.9688 0.375c0.11507 0.06431 0.22923 0.12138 0.34375 0.1875 2.5033 1.4453 4.6975 3.2258 6.5625 5.25 0.31083 0.33737 0.61391 0.68065 0.90625 1.0312 4.0702 4.8815 6.3303 11.01 6.5 17.281 0.05589-6.6156-2.2144-13.141-6.5-18.281-0.293-0.351-0.596-0.695-0.907-1.032-1.864-2.024-4.059-3.805-6.562-5.25-0.115-0.066-0.229-0.123-0.344-0.188a4.0004 4.0004 0 0 0 -1.9688 -0.375zm-24 0.03125a4.004 4.004 0 0 0 -1.1562 0.25 4.004 4.004 0 0 0 -0.032 0.031c-0.03238 0.01777-0.06144 0.0446-0.09375 0.0625-0.34974 0.19368-0.72065 0.38484-1.0625 0.59375-0.01246 0.0076-0.0188 0.02361-0.03125 0.03125-0.2906 0.17927-0.59169 0.34184-0.875 0.53125-0.45266 0.3013-0.90772 0.6401-1.3438 0.96875-0.36303 0.27362-0.7119 0.55141-1.0625 0.84375s-0.69388 0.59542-1.0312 0.90625c-0.33737 0.31083-0.67668 0.63964-1 0.96875s-0.62904 0.65283-0.9375 1c-0.21157 0.23812-0.42155 0.4734-0.625 0.71875-0.1331 0.16058-0.24509 0.33587-0.375 0.5-0.23043 0.29092-0.46854 0.57476-0.6875 0.875-0.06072 0.08337-0.12759 0.1658-0.1875 0.25-0.2174 0.30518-0.41966 0.62326-0.625 0.9375-0.281 0.429-0.553 0.862-0.813 1.312-2.588 4.483-3.772 9.406-3.719 14.25 0.113-4.516 1.31-9.078 3.719-13.25 0.25975-0.44989 0.53173-0.8826 0.8125-1.3125 0.20534-0.31424 0.4076-0.63232 0.625-0.9375 0.05991-0.0842 0.12678-0.16663 0.1875-0.25 0.21896-0.30024 0.45707-0.58408 0.6875-0.875 0.12991-0.16413 0.2419-0.33942 0.375-0.5 0.20345-0.24535 0.41343-0.48063 0.625-0.71875 0.30846-0.34717 0.61418-0.67089 0.9375-1s0.66263-0.65792 1-0.96875 0.68065-0.61391 1.0312-0.90625c0.3506-0.29234 0.69947-0.57013 1.0625-0.84375 0.43603-0.32865 0.89109-0.66744 1.3438-0.96875 0.28331-0.18941 0.5844-0.35198 0.875-0.53125 0.01245-0.0076 0.01879-0.02365 0.03125-0.03125 0.34185-0.20891 0.71276-0.40006 1.0625-0.59375 0.033-0.017 0.062-0.044 0.094-0.062a4.004 4.004 0 0 1 0.03125 -0.03125 4.004 4.004 0 0 1 1.1562 -0.25 4.004 4.004 0 0 1 4.2812 3.5 4.004 4.004 0 0 0 -4.2812 -4.5zm-7.688 25.062c-0.26556 7.1505 3.3374 14.185 10 18.031a4.0004 4.0004 0 0 1 0.28125 0.15625 4.0004 4.0004 0 0 1 1.7812 2.8125 4.0004 4.0004 0 0 0 -1.7812 -3.8125 4.0004 4.0004 0 0 0 -0.281 -0.156c-6.353-3.667-9.912-10.23-10-17.031zm40 0.4375c-0.117 3.161-0.988 6.338-2.688 9.282-0.17333 0.30022-0.34528 0.58727-0.53125 0.875-0.05313 0.08208-0.10197 0.16878-0.15625 0.25-0.18602 0.27897-0.39624 0.54575-0.59375 0.8125-0.06159 0.08287-0.12468 0.16814-0.1875 0.25-0.25994 0.33987-0.53464 0.6809-0.8125 1-0.03347 0.03843-0.06003 0.08687-0.09375 0.125-0.25473 0.28591-0.54186 0.54186-0.8125 0.8125-0.30974 0.3117-0.61064 0.6181-0.9375 0.90625-0.32677 0.28661-0.65454 0.54736-1 0.8125-0.26784 0.2068-0.53572 0.40176-0.8125 0.59375-0.08509 0.0588-0.16393 0.12998-0.25 0.1875-0.0505 0.03386-0.10548 0.06038-0.15625 0.09375-0.317 0.209-0.64 0.404-0.968 0.593a4.004 4.004 0 0 0 -0.34375 0.21875 4.004 4.004 0 0 0 -1.7188 3.8125 4.004 4.004 0 0 1 1.7188 -2.8125 4.004 4.004 0 0 1 0.344 -0.219c0.32806-0.18964 0.65089-0.38482 0.96875-0.59375 0.05077-0.03337 0.10575-0.05989 0.15625-0.09375 0.08607-0.05752 0.16491-0.1287 0.25-0.1875 0.27678-0.19199 0.54466-0.38695 0.8125-0.59375 0.34546-0.26514 0.67323-0.52589 1-0.8125 0.32686-0.28814 0.62776-0.59455 0.9375-0.90625 0.27064-0.27064 0.55777-0.52659 0.8125-0.8125 0.03372-0.03813 0.06028-0.08657 0.09375-0.125 0.27786-0.3191 0.55256-0.66013 0.8125-1 0.06282-0.08186 0.12591-0.16713 0.1875-0.25 0.19751-0.26675 0.40773-0.53353 0.59375-0.8125 0.05428-0.08122 0.10312-0.16792 0.15625-0.25 0.186-0.287 0.358-0.574 0.531-0.874 1.879-3.254 2.733-6.798 2.688-10.281z" style="opacity:.6;color:#000000"/>
    <path id="path4113" d="m59.688 23.188c-3.1453 0.01609-4.9807 4.1948-2.875 6.5312 2.1548 1.834 4.8463 3.1024 6.5625 5.4688 5.9079 6.8039 6.1792 17.637 0.65625 24.75-1.7446 2.439-4.1482 4.3019-6.6875 5.8438-2.5148 1.8939-1.4936 6.3216 1.5938 6.9375 2.5579 0.60082 4.564-1.4942 6.5-2.8125 8.61-6.684 12.575-18.666 9.593-29.158-1.948-7.315-6.991-13.873-13.75-17.344-0.51-0.182-1.053-0.254-1.593-0.218zm-24 0.03125c-2.1903 0.361-3.9154 2.0308-5.6562 3.3125-8.1776 6.6696-11.861 18.189-9.125 28.375 1.8839 7.4558 6.9443 14.165 13.812 17.688 2.9036 1.1913 6.2559-1.9107 5.2188-4.9062-0.91-2.767-4.296-3.256-5.969-5.439-6.459-6.104-7.874-16.646-3.281-24.25 1.8478-3.3041 4.7513-5.8627 7.9688-7.7812 2.4676-1.955 1.3515-6.3662-1.75-6.9062-0.39674-0.08965-0.81342-0.12749-1.2188-0.09375zm24 2a2.045 2.045 0 0 0 0.125 0c0.23838-0.01565 0.47015 0.0594 0.6875 0.125 6.1083 3.2057 10.779 9.2408 12.562 15.938a2.045 2.045 0 0 0 0 0.03125c2.7294 9.6043-0.92674 20.748-8.7812 26.906-0.02935 0.02301-0.06429 0.03963-0.09375 0.0625-1.0672 0.73647-1.9817 1.5074-2.7812 1.9688-0.82602 0.47656-1.3519 0.62097-2 0.46875a2.045 2.045 0 0 0 -0.0625 0c-1.319-0.263-1.831-2.455-0.782-3.281 0.0072-0.0057-0.0074-0.02568 0-0.03125 2.5934-1.5917 5.1348-3.5527 7.0625-6.2188h0.03125c0.015-0.019 0.019-0.044 0.033-0.063 6.074-7.88 5.792-19.546-0.657-27.125-0.009-0.013-0.021-0.018-0.031-0.031-0.034-0.04-0.059-0.086-0.094-0.125l-0.031 0.031c-2.0347-2.7034-4.7293-4.0636-6.5625-5.5625-0.8516-1.0091 0.05063-3.087 1.375-3.0938zm-23.688 0.031c0.14079 0.000677 0.30535 0.02558 0.46875 0.0625a2.045 2.045 0 0 0 0.09375 0c1.3292 0.23144 1.8713 2.4736 0.8125 3.3125-3.3334 2.0257-6.4092 4.7169-8.4375 8.3125-0.01212 0.02007-0.0192 0.04239-0.03125 0.0625-5.0208 8.3777-3.5434 19.681 3.4375 26.5 0.07946 0.07762 0.13786 0.17355 0.21875 0.25l0.03125-0.03125c1.1579 1.3702 2.5542 2.1111 3.5625 2.75 1.0756 0.68153 1.613 1.1425 1.8438 1.8438a2.045 2.045 0 0 0 0 0.03125c0.44505 1.2854-1.2322 2.8151-2.4688 2.3438-0.01004-0.0038-0.02127 0.0041-0.03125 0-6.213-3.252-10.898-9.446-12.625-16.282a2.045 2.045 0 0 0 0 -0.03125c-2.509-9.34 0.906-20.047 8.375-26.187 0.023-0.019 0.04-0.044 0.062-0.063 1.857-1.372 3.351-2.642 4.688-2.875z" style="opacity:.05;color:#000000"/>
    <path id="path4100" d="m59.688 23.188c-3.1453 0.01609-4.9877 4.1855-2.882 6.522 2.1548 1.834 4.845 3.1049 6.5612 5.4713 5.9079 6.8039 6.1875 17.643 0.66457 24.757-1.7446 2.439-4.1555 4.2925-6.6948 5.8344-2.5148 1.8939-1.5 6.3422 1.5874 6.9581 2.5579 0.60082 4.5824-1.514 6.5183-2.8323 8.6102-6.6826 12.556-18.666 9.5745-29.158-1.949-7.316-6.971-13.86-13.73-17.33-0.511-0.182-1.059-0.258-1.599-0.222zm-24 0.03125c-2.1903 0.361-3.9154 2.0308-5.6562 3.3125-8.1776 6.6696-11.875 18.198-9.1387 28.384 1.8839 7.4558 6.9526 14.151 13.821 17.674 2.9036 1.1913 6.2578-1.897 5.2206-4.8925-0.911-2.765-4.29-3.251-5.963-5.434-6.459-6.104-7.877-16.659-3.284-24.263 1.8478-3.3041 4.7526-5.8611 7.9701-7.7797 2.4676-1.955 1.344-6.377-1.7575-6.917-0.39674-0.08965-0.8072-0.11827-1.2125-0.08453zm24.062 1.0625c2.1726 0.05479 3.7647 1.936 5.4655 3.0635 8.8399 7.1693 12.127 20.237 7.7081 30.732-2.296 5.727-6.717 10.737-12.143 13.547-2.268 0.822-4.617-1.811-3.531-3.969 0.951-1.709 3.08-2.186 4.398-3.559 6.392-5.318 9.144-14.604 6.474-22.531-1.612-5.211-5.403-9.607-10.153-12.222-1.93-1.652-0.751-4.971 1.781-5.063zm-24 0.03125c2.4756-0.34927 4.2076 2.9697 2.4688 4.7812-1.6816 1.3716-3.6413 2.3224-5.125 4-6.6091 6.3287-8.1414 17.118-3.6179 25.065 1.927 3.6106 5.0281 6.5034 8.5554 8.4974 1.8584 1.5023 0.81627 4.8559-1.5625 5.0312-1.9947 0.18903-3.457-1.5291-5.0259-2.5091-8.635-6.581-12.439-18.677-9.157-29.021 2.054-6.678 6.75-12.691 13.058-15.782l0.187-0.031 0.219-0.032z" style="opacity:.2;color:#000000"/>
    <path id="path4090" d="m39.969 27.719a4.004 4.004 0 0 1 -1.625 2.75 4.004 4.004 0 0 1 -0.344 0.219c-0.32806 0.18964-0.65089 0.38482-0.96875 0.59375-0.13716 0.08988-0.27153 0.18816-0.40625 0.28125-0.27678 0.19199-0.54466 0.38695-0.8125 0.59375-0.34546 0.26514-0.67323 0.52589-1 0.8125-0.32686 0.28814-0.62776 0.59455-0.9375 0.90625-0.27178 0.27349-0.55485 0.52113-0.8125 0.8125-0.03437 0.03858-0.05967 0.08615-0.09375 0.125-0.27786 0.3191-0.55256 0.66013-0.8125 1-0.11828 0.15465-0.22936 0.30985-0.34375 0.46875-0.1916 0.26514-0.38366 0.53752-0.5625 0.8125-0.194 0.299-0.382 0.593-0.562 0.906-1.879 3.254-2.733 6.798-2.688 10.281 0.117-3.16 0.988-6.337 2.688-9.281 0.18064-0.31288 0.36814-0.60693 0.5625-0.90625 0.17884-0.27498 0.3709-0.54736 0.5625-0.8125 0.11439-0.1589 0.22547-0.3141 0.34375-0.46875 0.25994-0.33987 0.53464-0.6809 0.8125-1 0.03408-0.03885 0.05938-0.08642 0.09375-0.125 0.25765-0.29137 0.54072-0.53901 0.8125-0.8125 0.30974-0.3117 0.61064-0.6181 0.9375-0.90625 0.32677-0.28661 0.65454-0.54736 1-0.8125 0.26784-0.2068 0.53572-0.40176 0.8125-0.59375 0.13472-0.09309 0.26909-0.19137 0.40625-0.28125 0.317-0.209 0.64-0.404 0.968-0.593a4.004 4.004 0 0 0 0.34375 -0.21875 4.004 4.004 0 0 0 1.625 -3.75zm15.969 0a4.0004 4.0004 0 0 0 1.7812 3.8125c0.094 0.051 0.188 0.102 0.281 0.156 6.353 3.667 9.912 10.23 10 17.031 0.266-7.151-3.337-14.185-10-18.031-0.093-0.054-0.187-0.105-0.281-0.157a4.0004 4.0004 0 0 1 -1.7812 -2.8125zm-35.906 20.875c-0.124 9.814 4.896 19.418 13.968 24.656a4.0004 4.0004 0 0 0 0.34375 0.1875 4.0004 4.0004 0 0 0 1.9688 0.375 4.0004 4.0004 0 0 0 3.75 -4.5312 4.0004 4.0004 0 0 1 -3.75 3.5312 4.0004 4.0004 0 0 1 -1.9688 -0.375 4.0004 4.0004 0 0 1 -0.344 -0.188c-8.762-5.059-13.748-14.195-13.969-23.656zm55.906 1.031c-0.234 4.235-1.43 8.464-3.688 12.375-0.24088 0.41722-0.491 0.81871-0.75 1.2188-0.0738 0.11393-0.14336 0.23098-0.21875 0.34375-0.18927 0.2833-0.39565 0.56941-0.59375 0.84375-0.02194 0.03034-0.04044 0.0635-0.0625 0.09375-0.21965 0.3016-0.45752 0.58443-0.6875 0.875-0.29148 0.368-0.56573 0.74124-0.875 1.0938-0.34521 0.39352-0.69838 0.75436-1.0625 1.125-0.32332 0.32911-0.66263 0.65792-1 0.96875s-0.68065 0.61391-1.0312 0.90625c-0.3506 0.29234-0.69947 0.57013-1.0625 0.84375s-0.75037 0.55781-1.125 0.8125c-0.0739 0.05044-0.14434 0.1065-0.21875 0.15625-0.30108 0.20041-0.59833 0.37432-0.90625 0.5625-0.34185 0.20891-0.71276 0.40006-1.0625 0.59375a4.004 4.004 0 0 1 -0.094 0.062c-0.0123 0.0067-0.01895 0.02455-0.03125 0.03125a4.004 4.004 0 0 1 -5.5312 -3.1875 4.004 4.004 0 0 0 5.5312 4.1875c0.012-0.006 0.019-0.024 0.031-0.031a4.004 4.004 0 0 0 0.09375 -0.0625c0.34974-0.19368 0.72065-0.38484 1.0625-0.59375 0.30792-0.18818 0.60517-0.36209 0.90625-0.5625 0.07441-0.04975 0.14485-0.10581 0.21875-0.15625 0.37463-0.25469 0.76197-0.53888 1.125-0.8125s0.7119-0.55141 1.0625-0.84375 0.69388-0.59542 1.0312-0.90625c0.33737-0.31083 0.67668-0.63964 1-0.96875 0.36412-0.37064 0.71729-0.73148 1.0625-1.125 0.30927-0.35251 0.58352-0.72575 0.875-1.0938 0.22998-0.29057 0.46785-0.5734 0.6875-0.875 0.02206-0.03025 0.04056-0.06341 0.0625-0.09375 0.1981-0.27434 0.40448-0.56045 0.59375-0.84375 0.07539-0.11276 0.14496-0.22982 0.21875-0.34375 0.259-0.40004 0.50912-0.80153 0.75-1.2188 2.4354-4.2182 3.5982-8.8106 3.6875-13.375z" style="opacity:.6;color:#000000;fill:#fff"/>
   </g>
  </g>
  <rect id="rect3003" style="opacity:.15;fill:#fff" transform="translate(98 3.8281e-7)" clip-path="url(#clipPath3009)" rx="25" ry="25" height="92" width="92" y="958.36" x="-96"/>
 </g>
</svg>
