<?xml version="1.0" encoding="UTF-8" standalone="no"?>
<!-- Created with Inkscape (http://www.inkscape.org/) -->
<svg id="svg11037" xmlns:rdf="http://www.w3.org/1999/02/22-rdf-syntax-ns#" xmlns="http://www.w3.org/2000/svg" height="96" width="96" version="1.1" xmlns:cc="http://creativecommons.org/ns#" xmlns:xlink="http://www.w3.org/1999/xlink" xmlns:dc="http://purl.org/dc/elements/1.1/">
 <defs id="defs11039">
  <linearGradient id="linearGradient3617" y2="5.9877" gradientUnits="userSpaceOnUse" x2="48" y1="90" x1="48">
   <stop id="stop4083" style="stop-color:#8c8c8c" offset="0"/>
   <stop id="stop4085" style="stop-color:#dcdcdc" offset="1"/>
  </linearGradient>
  <linearGradient id="linearGradient3613" y2="138.66" gradientUnits="userSpaceOnUse" x2="48" y1="20.221" x1="48">
   <stop id="stop3739" style="stop-color:#fff" offset="0"/>
   <stop id="stop3741" style="stop-color:#fff;stop-opacity:0" offset="1"/>
  </linearGradient>
  <clipPath id="clipPath3613">
   <rect id="rect3615" style="fill:#fff" rx="6" ry="6" height="84" width="84" y="6" x="6"/>
  </clipPath>
  <filter id="filter3794" height="1.384" width="1.384" color-interpolation-filters="sRGB" y="-.192" x="-.192">
   <feGaussianBlur id="feGaussianBlur3796" stdDeviation="5.28"/>
  </filter>
  <clipPath id="clipPath4194-1">
   <rect id="rect4196-1" style="fill:#f0f" rx="6" ry="6" height="84" width="84" y="6" x="6"/>
  </clipPath>
  <linearGradient id="linearGradient4077-0" y2="66.233" xlink:href="#linearGradient4071-3" gradientUnits="userSpaceOnUse" x2="126.14" y1="48.047" x1="48.234"/>
  <linearGradient id="linearGradient4071-3">
   <stop id="stop4073-8" offset="0"/>
   <stop id="stop4075-4" style="stop-opacity:0" offset="1"/>
  </linearGradient>
  <linearGradient id="linearGradient4069-9" y2="62.839" xlink:href="#linearGradient4071-3" gradientUnits="userSpaceOnUse" x2="126.67" y1="48.032" x1="48.055"/>
  <linearGradient id="linearGradient4061-6" y2="60.29" xlink:href="#linearGradient4071-3" gradientUnits="userSpaceOnUse" x2="127.05" y1="48.029" x1="47.997"/>
  <linearGradient id="linearGradient4053-2" y2="57.665" xlink:href="#linearGradient4071-3" gradientUnits="userSpaceOnUse" x2="127.42" y1="48.029" x1="47.998"/>
  <radialGradient id="radialGradient3814-9" gradientUnits="userSpaceOnUse" cy="47.598" cx="48.41" gradientTransform="matrix(1 0 0 .98496 -30 .71591)" r="30.64">
   <stop id="stop3798-4" style="stop-color:#fff;stop-opacity:0" offset="0"/>
   <stop id="stop3800-9" style="stop-color:#fff" offset="1"/>
  </radialGradient>
  <radialGradient id="radialGradient5008" gradientUnits="userSpaceOnUse" cy="47.887" cx="48.265" gradientTransform="matrix(1 0 0 1.0138 -30 -.66141)" r="28.879">
   <stop id="stop3782-4" style="stop-opacity:0" offset="0"/>
   <stop id="stop3784-9" offset="1"/>
  </radialGradient>
  <linearGradient id="linearGradient4145-0" y2="66.233" xlink:href="#linearGradient4115-2" gradientUnits="userSpaceOnUse" x2="126.14" y1="48.047" x1="48.234"/>
  <linearGradient id="linearGradient4115-2">
   <stop id="stop4117-3" style="stop-color:#fff" offset="0"/>
   <stop id="stop4119-6" style="stop-color:#fff;stop-opacity:0" offset="1"/>
  </linearGradient>
  <linearGradient id="linearGradient4137-7" y2="62.839" xlink:href="#linearGradient4115-2" gradientUnits="userSpaceOnUse" x2="126.67" y1="48.032" x1="48.055"/>
  <linearGradient id="linearGradient4129-8" y2="60.29" xlink:href="#linearGradient4115-2" gradientUnits="userSpaceOnUse" x2="127.05" y1="48.029" x1="47.997"/>
  <linearGradient id="linearGradient4121-6" y2="57.665" xlink:href="#linearGradient4115-2" gradientUnits="userSpaceOnUse" x2="127.42" y1="48.029" x1="47.998"/>
  <linearGradient id="linearGradient3299" y2="47.996" gradientUnits="userSpaceOnUse" x2="79.996" gradientTransform="matrix(0 1 -1 0 70.996 .0042201)" y1="47.996" x1="15.996">
   <stop id="stop4283-9" style="stop-color:#1e1e1e" offset="0"/>
   <stop id="stop4285-8" style="stop-color:#505050" offset="1"/>
  </linearGradient>
  <clipPath id="clipPath3298" clipPathUnits="userSpaceOnUse">
   <rect id="rect3300" style="fill:url(#linearGradient3302)" rx="22.826" ry="22.826" height="84" width="84" y="6" x="6"/>
  </clipPath>
  <linearGradient id="linearGradient3302" y2="1046.1" gradientUnits="userSpaceOnUse" x2="48" gradientTransform="matrix(1.05 0 0 1.05 -2.4 -1006.6)" y1="962.62" x1="48">
   <stop id="stop3797" style="stop-color:#13a6fd" offset="0"/>
   <stop id="stop3799" style="stop-color:#2975b6" offset="1"/>
  </linearGradient>
  <clipPath id="clipPath3009" clipPathUnits="userSpaceOnUse">
   <path id="path3011" style="opacity:.15;fill:#fff" d="m-2 956.36h-96v33.562l96 25.687v-59.25z"/>
  </clipPath>
 </defs>
 <metadata id="metadata11042">
  <rdf:RDF>
   <cc:Work rdf:about="">
    <dc:format>image/svg+xml</dc:format>
    <dc:type rdf:resource="http://purl.org/dc/dcmitype/StillImage"/>
    <dc:title/>
   </cc:Work>
  </rdf:RDF>
 </metadata>
 <g id="layer1" transform="translate(0 -956.36)">
  <g id="g3111" clip-path="url(#clipPath3298)" transform="matrix(1.0952 0 0 1.0952 -4.5714 951.79)">
   <g id="layer1-4" style="opacity:.9">
    <rect id="rect2419" style="fill:url(#linearGradient3617)" rx="6" ry="6" height="84" width="84" y="6" x="6"/>
   </g>
   <g id="layer5">
    <rect id="rect3171" style="opacity:.3;filter:url(#filter3794);stroke:#fff;stroke-linecap:round;stroke-width:.5;fill:url(#linearGradient3613)" clip-path="url(#clipPath3613)" rx="12" ry="12" height="66" width="66" y="15" x="15"/>
   </g>
   <g id="layer7">
    <g id="g4165" clip-path="url(#clipPath4194-1)">
     <g id="g4011" style="opacity:.9" transform="matrix(.14137 .99272 -1.1652 .12045 96.937 -5.1947)">
      <path id="path4009" d="m108.9 48a60.896 60.896 0 0 1 -6.5462 27.467l-54.35-27.467z" style="opacity:.05;color:#000000;fill:url(#linearGradient4077-0)" transform="matrix(.99411 -.10837 .10837 .99411 -5.1582 5.4919)"/>
      <path id="path4007" d="m108.9 48a60.896 60.896 0 0 1 -4.4572 22.869l-56.44-22.869z" style="opacity:0.07;color:#000000;fill:url(#linearGradient4069-9)" transform="matrix(.99786 -.065374 .065374 .99786 -3.094 3.2416)"/>
      <path id="path4005" d="m108.9 48a60.896 60.896 0 0 1 -3.1299 19.272l-57.77-19.272z" style="opacity:.1;color:#000000;fill:url(#linearGradient4061-6)" transform="matrix(.99945 -.033121 .033121 .99945 -1.5635 1.6161)"/>
      <path id="path4003" d="m108.9 48a60.896 60.896 0 0 1 -2.075 15.761l-58.82-15.761z" style="opacity:.1;color:#000000;fill:url(#linearGradient4053-2)"/>
     </g>
     <g id="g3802" transform="matrix(1.8327 0 0 1.8327 14.258 -39.234)">
      <path id="path2875" d="m19.196 49.867c-3.7383 2.563-5.6052-4.8991-1.155-4.812 4.3871-0.23608 3.9791 6.8014-0.14484 6.6146-3.1737 0.24264-5.0987-3.8987-3.1036-6.2853 2.0277-2.9808 7.1712-1.6842 7.7389 1.8175 0.96896 3.6362-3.1572 7.0386-6.5673 5.5229-3.9462-1.2697-4.4898-7.147-1.1071-9.3662 3.5697-2.7958 9.3917 0.23728 9.2058 4.7583 0.25677 4.3508-4.6893 7.6722-8.6482 5.9348-4.7194-1.5512-5.692-8.4202-1.9094-11.473 3.6589-3.435 10.363-1.4582 11.675 3.3588 1.5931 4.5594-2.0643 9.9214-6.9194 10.009-4.9341 0.46502-9.3835-4.3388-8.5226-9.2263 0.48048-5.0458 6.044-8.5972 10.839-7.0428 5.1784 1.2462 7.9642 7.5811 5.6619 12.315-2.0703 5.1795-9.0655 7.066-13.621 4.0018-5.1937-3.019-5.9263-10.893-1.749-15.07 4.296-4.829 12.905-3.785 16.13 1.741 3.588 5.436 0.745 13.65-5.446 15.695-6.086 2.396-13.647-1.743-14.738-8.237-1.4747-6.41 3.513-13.362 10.125-13.808 6.547-0.848 13.055 4.594 13.184 11.238 0.523 6.584-5.016 12.887-11.659 13.025-6.796 0.538-13.3-5.181-13.44-12.038-0.5528-7.008 5.345-13.715 12.417-13.857 7.223-0.57 14.129 5.518 14.276 12.799 0.544 7.071-5.079 13.91-12.151 14.606-7.06 1.019-14.41-3.962-15.813-11.012-1.7657-7.233 2.7908-15.364 10.015-17.379 7.396-2.396 16.205 1.872 18.685 9.293 2.829 7.457-1.114 16.692-8.577 19.625-7.624 3.345-17.458-0.452-20.711-8.155-3.6267-7.73 0.0276-17.902 7.832-21.439 7.827-3.917 18.336-0.419 22.166 7.477 4.217 7.914 0.888 18.76-7.088 22.89-7.991 4.527-19.172 1.382-23.611-6.665-4.8441-8.058-1.8978-19.571 6.209-24.326 7.972-5.073 19.561-2.547 24.767 5.318 5.623 7.877 3.599 19.843-4.151 25.573-7.618 6.053-19.659 4.732-25.992-2.574-6.5371-7.045-6.3484-18.848 0.0056-25.943 5.9692-7.142 17.094-8.694 25.012-3.988 7.87 4.287 11.778 14.219 9.324 22.774-2.103 8.654-10.4 15.241-19.316 15.262-9.351 0.375-18.515-6.176-20.825-15.313-2.8403-9.826 2.3763-21.277 11.857-25.282 9.8-4.531 22.58-0.439 27.807 9.04 5.626 9.457 2.708 22.791-6.297 29.09-8.847 6.617-22.359 5.123-29.763-2.992-7.4444-7.667-7.9889-20.556-1.7346-29.099 5.6922-8.332 17.147-11.703 26.557-8.289 9.341 3.005 16.04 12.41 15.838 22.219 0.143 10.289-6.983 20.254-16.957 23.049-10.921 3.426-23.853-1.921-28.876-12.275-5.5969-10.683-1.9008-25.098 8.1677-31.748 9.8773-6.965 24.558-5.161 32.664 3.725 8.12 8.388 8.871 22.382 2.264 31.88-5.872 9.029-17.788 13.194-28.077 10.261-10.334-2.561-18.453-12.028-19.261-22.667-1.2474-11.537 5.8426-23.476 16.82-27.472 11.762-4.671 26.426 0.214 32.851 11.167 6.963 11.11 4.255 26.939-5.848 35.24-9.018 7.808-23.123 8.436-33.026 1.904-9.3102-5.773-14.27-17.436-12.265-28.169 1.6444-10.784 10.062-20.17 20.686-22.756 11.827-3.17 25.393 2.05 31.78 12.56 6.786 10.594 5.379 25.435-2.951 34.783-7.206 8.462-19.472 11.822-30.072 8.71-10.579-2.807-19.154-11.944-21.08-22.748-2.4683-12.198 3.3554-25.652 14.214-31.864 11.255-6.7882 26.724-4.9539 36.275 3.9991 8.6483 7.7558 11.835 20.656 8.3267 31.654-2.022 6.6789-6.3258 12.653-12.119 16.565" style="opacity:.2;stroke:url(#radialGradient3814-9);stroke-width:.47875;fill:none"/>
      <path id="path3650" d="m16.909 49.337c-3.8859-1.8589 1.3687-6.9414 3.4117-3.2373 2.279 3.4987-3.7071 6.5071-5.513 3.024-1.7078-2.4969 0.78598-6.0492 3.6983-5.5412 3.4169 0.25246 4.7939 5.102 2.1816 7.2332-2.5323 2.5254-7.2934 0.74614-7.6664-2.7808-0.83017-3.8513 3.7489-7.0916 7.1828-5.362 3.9974 1.6095 4.2675 7.8427 0.45822 9.8381-3.459 2.2788-8.5429-0.21377-8.9943-4.2978-0.96594-4.6215 4.2255-8.6861 8.5353-7.0233 4.5659 1.3792 6.1246 7.8364 2.7832 11.205-2.9956 3.4778-9.1468 3.0156-11.526-0.93872-2.7274-3.8401-0.88788-9.785 3.5439-11.399 4.3813-2.0023 9.9481 0.8892 10.947 5.5743 1.435 4.8543-2.4551 10.158-7.4458 10.512-5.2468 0.75731-10.124-4.1037-9.7664-9.3095 0.01802-5.7097 6.1502-10.054 11.573-8.6004 6.0158 1.2412 9.2475 8.8224 6.232 14.102-2.7696 5.5367-10.88 7.1-15.506 2.9765-4.8644-3.8703-5.051-12.061-0.2246-16.044 4.5753-4.26 12.667-3.4584 16.177 1.7717 3.809 4.9861 2.4225 12.928-2.9849 16.191-5.17 3.559-12.99 1.995-16.26-3.407-3.6723-5.338-2.0567-13.409 3.521-16.782 5.5054-3.7848 13.829-2.1176 17.306 3.6355 3.9019 5.6738 2.1722 14.252-3.7509 17.832-5.561 3.806-13.862 2.429-17.796-3.061-4.1935-5.327-3.5858-13.743 1.5496-18.248 5.114-4.8903 13.972-5.0041 19.064-0.0154 5.4857 4.9484 6.1591 14.227 1.2302 19.795-4.7938 5.8719-14.268 7.0146-20.228 2.2654-6.3771-4.685-7.9251-14.583-3.1307-20.921 4.6389-6.6583 14.748-8.4844 21.367-3.7419 6.9435 4.5805 9.0581 14.893 4.3795 21.797-4.5098 7.2319-15.018 9.6462-22.208 5.0438-7.5228-4.4262-10.247-15.123-5.7334-22.6 4.3297-7.8161 15.206-10.862 22.972-6.4494 7.9638 4.1507 11.391 14.89 7.3919 22.912-3.811 8.37-14.622 12.391-23.021 8.734-8.6022-3.393-13.237-13.932-10.232-22.616 2.6917-8.728 12.496-14.181 21.355-12.323 8.7143 1.5195 15.279 9.9382 15.168 18.692 0.21089 8.5145-6.1061 16.451-14.314 18.497-8.122 2.38-17.486-1.318-21.74-8.647-4.7527-7.518-3.7156-18.174 2.7072-24.416 6.7378-7.008 18.641-8.155 26.444-2.255 8.385 5.912 11.091 18.375 5.772 27.182-5.11 9.125-17.471 13.059-26.934 8.641-9.6501-4.137-14.842-15.969-11.681-25.919 2.7728-9.77 13.122-16.343 23.126-15.255 9.563 0.725 17.78 8.551 19.441 17.919 1.966 9.116-2.591 19.099-10.761 23.593-8.4 5.008-19.988 3.878-27.028-3.004-8.0092-7.36-9.7539-20.544-3.6191-29.599 6.1331-9.683 19.754-13.491 30.012-8.364 10.427 4.82 15.918 17.76 12.456 28.655-3.045 10.669-14.207 17.937-25.163 17.012-10.222-0.542-19.313-8.37-21.788-18.233-2.8025-9.722 1.1312-20.904 9.5037-26.624 8.9031-6.5096 22.099-6.3475 30.604 0.789 9.4344 7.4613 12.381 21.852 6.4198 32.345-5.836 11.011-20.151 16.303-31.784 11.933-10.712-3.712-17.932-15.023-17.261-26.278 0.3269-10.406 7.5699-20.031 17.356-23.48 9.658-3.772 21.383-1.303 28.559 6.212 8.23 8.228 10.38 21.874 4.764 32.125-5.494 10.62-18.378 16.514-30.03 14.1-10.389-1.91-18.983-10.409-21.459-20.612-2.717-10.041 0.7284-21.441 8.7055-28.16 8.8671-7.828 22.708-9.428 32.98-3.442 10.936 6.037 16.777 19.641 13.947 31.756-2.274 10.804-11.377 19.557-22.097 21.896-6.458 1.509-13.42 0.806-19.393-2.103" style="opacity:.1;stroke:url(#radialGradient5008);stroke-width:.47875;fill:none"/>
     </g>
     <g id="g4027" style="opacity:.9;fill:#fff" transform="matrix(1.0628 -.13088 -.74010 3.2275 32.525 -100.67)">
      <path id="path4029" d="m108.9 48a60.896 60.896 0 0 1 -6.5462 27.467l-54.35-27.467z" style="opacity:.2;color:#000000;fill:url(#linearGradient4145-0)" transform="matrix(.99411 -.10837 .10837 .99411 -5.1582 5.4919)"/>
      <path id="path4031" d="m108.9 48a60.896 60.896 0 0 1 -4.4572 22.869l-56.44-22.869z" style="opacity:.4;color:#000000;fill:url(#linearGradient4137-7)" transform="matrix(.99786 -.065374 .065374 .99786 -3.094 3.2416)"/>
      <path id="path4033" d="m108.9 48a60.896 60.896 0 0 1 -3.1299 19.272l-57.77-19.272z" style="opacity:.6;color:#000000;fill:url(#linearGradient4129-8)" transform="matrix(.99945 -.033121 .033121 .99945 -1.5635 1.6161)"/>
      <path id="path4035" d="m108.9 48a60.896 60.896 0 0 1 -2.075 15.761l-58.82-15.761z" style="opacity:.8;color:#000000;fill:url(#linearGradient4121-6)"/>
     </g>
     <g id="g4079" style="opacity:.5" transform="matrix(-.61679 .78713 -.78713 -.61679 115 40.012)">
      <path id="path4081" d="m108.9 48a60.896 60.896 0 0 1 -6.5462 27.467l-54.35-27.467z" style="opacity:.05;color:#000000;fill:url(#linearGradient4077-0)" transform="matrix(.99411 -.10837 .10837 .99411 -5.1582 5.4919)"/>
      <path id="path4083" d="m108.9 48a60.896 60.896 0 0 1 -4.4572 22.869l-56.44-22.869z" style="opacity:0.07;color:#000000;fill:url(#linearGradient4069-9)" transform="matrix(.99786 -.065374 .065374 .99786 -3.094 3.2416)"/>
      <path id="path4085" d="m108.9 48a60.896 60.896 0 0 1 -3.1299 19.272l-57.77-19.272z" style="opacity:.1;color:#000000;fill:url(#linearGradient4061-6)" transform="matrix(.99945 -.033121 .033121 .99945 -1.5635 1.6161)"/>
      <path id="path4087" d="m108.9 48a60.896 60.896 0 0 1 -2.075 15.761l-58.82-15.761z" style="opacity:.1;color:#000000;fill:url(#linearGradient4053-2)"/>
     </g>
     <g id="g4097" style="opacity:.8" transform="matrix(-.068172 -1.046 2.7107 .60163 -79.095 69.08)">
      <path id="path4099" d="m108.9 48a60.896 60.896 0 0 1 -6.5462 27.467l-54.35-27.467z" style="opacity:.05;color:#000000;fill:url(#linearGradient4077-0)" transform="matrix(.99411 -.10837 .10837 .99411 -5.1582 5.4919)"/>
      <path id="path4101" d="m108.9 48a60.896 60.896 0 0 1 -4.4572 22.869l-56.44-22.869z" style="opacity:0.07;color:#000000;fill:url(#linearGradient4069-9)" transform="matrix(.99786 -.065374 .065374 .99786 -3.094 3.2416)"/>
      <path id="path4103" d="m108.9 48a60.896 60.896 0 0 1 -3.1299 19.272l-57.77-19.272z" style="opacity:.1;color:#000000;fill:url(#linearGradient4061-6)" transform="matrix(.99945 -.033121 .033121 .99945 -1.5635 1.6161)"/>
      <path id="path4105" d="m108.9 48a60.896 60.896 0 0 1 -2.075 15.761l-58.82-15.761z" style="opacity:.1;color:#000000;fill:url(#linearGradient4053-2)"/>
     </g>
     <g id="g4147" style="opacity:.9;fill:#fff" transform="matrix(-1.0628 .13088 .74010 -3.2275 62.997 196.67)">
      <path id="path4149" d="m108.9 48a60.896 60.896 0 0 1 -6.5462 27.467l-54.35-27.467z" style="opacity:.2;color:#000000;fill:url(#linearGradient4145-0)" transform="matrix(.99411 -.10837 .10837 .99411 -5.1582 5.4919)"/>
      <path id="path4151" d="m108.9 48a60.896 60.896 0 0 1 -4.4572 22.869l-56.44-22.869z" style="opacity:.4;color:#000000;fill:url(#linearGradient4137-7)" transform="matrix(.99786 -.065374 .065374 .99786 -3.094 3.2416)"/>
      <path id="path4153" d="m108.9 48a60.896 60.896 0 0 1 -3.1299 19.272l-57.77-19.272z" style="opacity:.6;color:#000000;fill:url(#linearGradient4129-8)" transform="matrix(.99945 -.033121 .033121 .99945 -1.5635 1.6161)"/>
      <path id="path4155" d="m108.9 48a60.896 60.896 0 0 1 -2.075 15.761l-58.82-15.761z" style="opacity:.8;color:#000000;fill:url(#linearGradient4121-6)"/>
     </g>
    </g>
   </g>
   <g id="layer4">
    <path id="path3297" d="m47.25 20.031c-10.417 0.14876-20.356 6.6902-24.625 16.188-4.8322 10.092-2.75 22.958 5.0312 31 7.2288 7.8604 19.112 10.786 29.188 7.3438 10.341-3.2883 18.114-13.13 19-23.938 1.174-10.968-4.849-22.253-14.656-27.313-4.245-2.299-9.12-3.394-13.938-3.281zm0.75 7.969c8.7374-0.1349 17.006 6.1581 19.25 14.594 0.13923 0.46558 0.24331 0.9335 0.34375 1.4062h-39.188c0.47915-2.4374 1.4048-4.788 2.8125-6.875 3.609-5.6 10.1-9.199 16.782-9.125zm-19.562 24h39.125c-1.152 5.46-4.517 10.462-9.438 13.219-7.679 4.764-18.451 3.213-24.594-3.375-2.661-2.691-4.36-6.176-5.093-9.844z" style="color:#000000;fill:url(#linearGradient3299)"/>
    <path id="path4102" d="m47.25 20.031c-10.417 0.14876-20.356 6.6902-24.625 16.188-4.8322 10.092-2.75 22.958 5.0312 31 7.2288 7.8604 19.112 10.786 29.188 7.3438 10.341-3.2883 18.114-13.13 19-23.938 1.174-10.968-4.849-22.253-14.656-27.313-4.245-2.299-9.12-3.394-13.938-3.281zm0 1.0625a1.0593 1.0593 0 0 0 0.03125 0c4.6405-0.10922 9.3369 0.95119 13.406 3.1562 9.3946 4.8461 15.219 15.74 14.094 26.25a1.0593 1.0593 0 0 0 0 0.03125c-0.84914 10.357-8.3444 19.882-18.25 23.031a1.0593 1.0593 0 0 0 -0.03125 0c-9.661 3.301-21.137 0.469-28.062-7.062a1.0593 1.0593 0 0 0 -0.032 -0.031c-7.454-7.704-9.442-20.113-4.812-29.781a1.0593 1.0593 0 0 0 0 -0.03125c4.091-9.103 13.672-15.421 23.656-15.563zm0.71875 5.8438c-7.044-0.067-13.785 3.71-17.594 9.593h-0.03125c-0.0043 0.0067 0.0043 0.02451 0 0.03125-1.4847 2.2084-2.4664 4.6634-2.9688 7.2188a1.0593 1.0593 0 0 0 1.0312 1.2812h39.188a1.0593 1.0593 0 0 0 1.031 -1.281c-0.1-0.47-0.226-0.966-0.375-1.469-0.002-0.009 0.003-0.021 0-0.031-2.388-8.904-11.019-15.471-20.25-15.343-0.01046 0.000144-0.02079-0.000162-0.03125 0zm0.031 1.062c8.7374-0.1349 17.006 6.1581 19.25 14.594 0.13923 0.46558 0.24331 0.9335 0.34375 1.4062h-39.188c0.47915-2.4374 1.4048-4.788 2.8125-6.875 3.609-5.6 10.1-9.199 16.782-9.125zm-19.656 22.938a1.0593 1.0593 0 0 0 -0.9375 1.2812c0.76719 3.8359 2.5379 7.4927 5.3438 10.344 0.01007 0.0108 0.02115 0.02047 0.03125 0.03125 6.5026 6.9415 17.747 8.5798 25.875 3.5625 0.012-0.0074 0.01926-0.02381 0.03125-0.03125 5.1966-2.9278 8.6987-8.1804 9.9062-13.906a1.0593 1.0593 0 0 0 -1.031 -1.282h-39.125a1.0593 1.0593 0 0 0 -0.0625 0 1.0593 1.0593 0 0 0 -0.03125 0zm0.094 1.062h39.124c-1.151 5.46-4.516 10.462-9.437 13.219-7.679 4.764-18.451 3.213-24.594-3.375-2.661-2.691-4.36-6.176-5.093-9.844z" style="opacity:.2;color:#000000"/>
    <path id="path4109" d="m47.25 20.031c-10.417 0.14876-20.356 6.6902-24.625 16.188-4.8322 10.092-2.75 22.958 5.0312 31 7.2288 7.8604 19.112 10.786 29.188 7.3438 10.341-3.2883 18.114-13.13 19-23.938 1.174-10.968-4.849-22.253-14.656-27.313-4.245-2.299-9.12-3.394-13.938-3.281zm0.03125 2.1875a2.1967 2.1967 0 0 0 0.03125 0c4.4503-0.10475 8.9622 0.92798 12.844 3.0312a2.1967 2.1967 0 0 0 0.03125 0c8.9508 4.6172 14.542 15.137 13.469 25.156a2.1967 2.1967 0 0 0 0 0.03125c-0.809 9.874-8.031 19.032-17.468 22.033a2.1967 2.1967 0 0 0 -0.0625 0c-9.2151 3.1485-20.243 0.42747-26.844-6.75a2.1967 2.1967 0 0 0 -0.032 -0.031c-7.103-7.341-9.068-19.318-4.656-28.532a2.1967 2.1967 0 0 0 0.031 -0.031c3.9-8.678 13.138-14.77 22.656-14.906zm0.6875 3.5938c-7.4482-0.05945-14.543 3.8844-18.562 10.094-0.0081 0.01244-0.02322 0.01879-0.03125 0.03125-1.572 2.3417-2.5968 4.9382-3.125 7.625a2.1967 2.1967 0 0 0 2.1562 2.625h39.188a2.1967 2.1967 0 0 0 2.156 -2.656c-0.09894-0.4657-0.21752-0.96217-0.375-1.5-0.006-0.02246-0.0252-0.04007-0.03125-0.0625-2.5381-9.414-11.547-16.277-21.312-16.156-0.02104 0.00026-0.04145-0.000325-0.0625 0zm0.032 2.188c8.7374-0.1349 17.006 6.1581 19.25 14.594 0.13923 0.46558 0.24331 0.9335 0.34375 1.4062h-39.188c0.47915-2.4374 1.4048-4.788 2.8125-6.875 3.609-5.6 10.1-9.199 16.782-9.125zm-19.719 21.812a2.1967 2.1967 0 0 0 -2 2.625c0.80627 4.0313 2.6756 7.8784 5.6562 10.906 0.01018 0.01091 0.02105 0.02036 0.03125 0.03125 6.881 7.3474 18.597 9.0408 27.219 3.75 0.02807-0.01723 0.06574-0.01387 0.09375-0.03125v-0.03125c5.4816-3.1124 9.1712-8.5893 10.438-14.594a2.1967 2.1967 0 0 0 -2.157 -2.656h-39.125a2.1967 2.1967 0 0 0 -0.15625 0zm0.157 2.188h39.124c-1.151 5.46-4.516 10.462-9.437 13.219-7.679 4.764-18.451 3.213-24.594-3.375-2.661-2.691-4.36-6.176-5.093-9.844z" style="opacity:.05;color:#000000"/>
    <path id="path3316" d="m47.25 20.031c-10.417 0.14876-20.356 6.6902-24.625 16.188-1.8625 3.8897-2.6848 8.1897-2.5625 12.469 0.02522-3.9464 0.84514-7.8822 2.5625-11.469 4.2685-9.4973 14.208-16.039 24.625-16.188 4.8177-0.11339 9.6932 0.9814 13.938 3.2812 8.582 4.427 14.282 13.611 14.782 23.188-0.143-9.931-5.902-19.607-14.781-24.188-4.245-2.299-9.12-3.394-13.938-3.281zm-18.594 23.969c-0.08337 0.33307-0.18378 0.66315-0.25 1h39.188c-0.07151-0.3366-0.16342-0.66739-0.25-1h-38.688zm-0.21875 9c0.73364 3.6681 2.4329 7.153 5.0938 9.8438 6.1429 6.588 16.915 8.1389 24.594 3.375 4.921-2.757 8.286-7.759 9.437-13.219h-0.25c-1.3318 5.0701-4.5653 9.629-9.1875 12.219-7.6787 4.7639-18.451 3.213-24.594-3.375-2.418-2.447-4.047-5.544-4.874-8.844h-0.21875z" style="opacity:.6;color:#000000"/>
    <path id="path4093" d="m48 28c-6.682-0.07355-13.173 3.5246-16.781 9.125-1.4077 2.087-2.3334 4.4376-2.8125 6.875h0.25c0.51988-2.0769 1.3494-4.0764 2.5625-5.875 3.609-5.6 10.1-9.199 16.782-9.125 8.7374-0.1349 17.006 6.1581 19.25 14.594 0.04009 0.13408 0.05873 0.27172 0.09375 0.40625h0.25c-0.101-0.473-0.205-0.941-0.344-1.406-2.244-8.436-10.513-14.729-19.25-14.594zm27.969 20.562c-0.01802 0.68639-0.05159 1.377-0.125 2.0625-0.88609 10.807-8.6588 20.649-19 23.938-10.075 3.4425-21.959 0.51665-29.188-7.3438-4.7821-4.9421-7.3987-11.708-7.5938-18.531-0.04574 7.1578 2.578 14.348 7.5938 19.531 7.2288 7.8604 19.112 10.786 29.188 7.3438 10.341-3.2883 18.114-13.13 19-23.938 0.10901-1.0179 0.13724-2.0444 0.125-3.0625zm-47.531 3.438c0.06657 0.33285 0.13628 0.67062 0.21875 1h38.656c0.08608-0.32771 0.18009-0.66851 0.25-1h-39.125z" style="opacity:.6;color:#000000;fill:#fff"/>
   </g>
  </g>
  <rect id="rect3003" style="opacity:.15;fill:#fff" transform="translate(98 3.8281e-7)" clip-path="url(#clipPath3009)" rx="25" ry="25" height="92" width="92" y="958.36" x="-96"/>
 </g>
</svg>
