<?xml version="1.0" encoding="UTF-8" standalone="no"?>
<!-- Created with Inkscape (http://www.inkscape.org/) -->
<svg id="svg11037" xmlns:rdf="http://www.w3.org/1999/02/22-rdf-syntax-ns#" xmlns="http://www.w3.org/2000/svg" height="96" width="96" version="1.1" xmlns:cc="http://creativecommons.org/ns#" xmlns:xlink="http://www.w3.org/1999/xlink" xmlns:dc="http://purl.org/dc/elements/1.1/">
 <defs id="defs11039">
  <linearGradient id="linearGradient11642" y2="1046.1" gradientUnits="userSpaceOnUse" y1="962.62" gradientTransform="matrix(1.15 0 0 1.15 -7.1999 -150.65)" x2="48" x1="48">
   <stop id="stop3616" style="stop-color:#b9b9b9" offset="0"/>
   <stop id="stop3618" style="stop-color:#dedede" offset="1"/>
  </linearGradient>
  <linearGradient id="linearGradient9815" x1="36.182" gradientUnits="userSpaceOnUse" y1="19.556" gradientTransform="matrix(.70512 0 0 .70312 205.01 1010.5)" x2="36.182" y2="76.444">
   <stop id="stop3750-88" offset="0"/>
   <stop id="stop3752" style="stop-opacity:.58824" offset="1"/>
  </linearGradient>
  <linearGradient id="linearGradient9817" x1="22" gradientUnits="userSpaceOnUse" y1="76" gradientTransform="matrix(.83333 0 0 .83333 190.52 1004.3)" x2="22" y2="-.23647">
   <stop id="stop3992" style="stop-color:#5d5d5d" offset="0"/>
   <stop id="stop3994" style="stop-color:#909090" offset="1"/>
  </linearGradient>
  <linearGradient id="linearGradient9819" x1="22" gradientUnits="userSpaceOnUse" y1="21" gradientTransform="matrix(.83333 0 0 .83333 190.52 1004.3)" x2="22" y2="75.083">
   <stop id="stop3702-9" style="stop-color:#ebebeb" offset="0"/>
   <stop id="stop3704-77" style="stop-color:#c8c8c8" offset="1"/>
  </linearGradient>
  <linearGradient id="linearGradient9821" x1="21" gradientUnits="userSpaceOnUse" y1="21" gradientTransform="matrix(.83333 0 0 .83333 190.52 1004.3)" x2="21" y2="71">
   <stop id="stop3739-30" style="stop-color:#fff" offset="0"/>
   <stop id="stop3741-30" style="stop-color:#fff;stop-opacity:0" offset="1"/>
  </linearGradient>
  <linearGradient id="linearGradient9823" x1="23" gradientUnits="userSpaceOnUse" y1="42" gradientTransform="matrix(.83333 0 0 .83333 190.52 1004.3)" x2="23" y2="52">
   <stop id="stop3956" style="stop-color:#1a1a1a" offset="0"/>
   <stop id="stop3958" style="stop-color:#3a3a3a" offset="1"/>
  </linearGradient>
  <clipPath id="clipPath3009" clipPathUnits="userSpaceOnUse">
   <path id="path3011" style="opacity:.15;fill:#fff" d="m-2 956.36h-96v33.562l96 25.687v-59.25z"/>
  </clipPath>
 </defs>
 <metadata id="metadata11042">
  <rdf:RDF>
   <cc:Work rdf:about="">
    <dc:format>image/svg+xml</dc:format>
    <dc:type rdf:resource="http://purl.org/dc/dcmitype/StillImage"/>
    <dc:title/>
   </cc:Work>
  </rdf:RDF>
 </metadata>
 <g id="layer1" transform="translate(0 -956.36)">
  <rect id="rect3867" style="fill:url(#linearGradient11642)" rx="25" ry="25" height="92" width="92" y="958.36" x="2"/>
  <g id="g9852" transform="translate(-182.19 -40.404)">
   <g id="g9808" transform="translate(-.16666 .66663)">
    <path id="path3456" d="m236.53 1066.4c-2.1632-0.7198-3.421-1.4343-5.5451-3.1498-5.7013-4.6046-8.6691-11.393-7.0535-16.136 0.66736-1.9593 1.428-3.2008 2.8042-4.5769 2.3896-2.3895 6.1159-4.152 10.773-5.0957 7.2318-1.4653 12.927 0.362 13.372 4.2904 0.32333 2.8523-1.8712 5.4484-8.1979 9.6983-4.4911 3.0168-6.2405 4.6243-6.2405 5.7343 0 1.5955 1.9412 3.1953 3.8773 3.1953 1.2217 0 1.8492-0.6581 2.3894-2.5059 0.71529-2.4464 2.1772-3.3092 5.6612-3.3414 2.4406-0.023 3.1986 0.5414 3.3106 2.4628 0.0656 1.1254-0.0724 1.693-0.739 3.0393-1.0926 2.2067-3.6538 4.7405-5.9061 5.843-1.5369 0.7523-2.0114 0.853-4.3937 0.9325-2.0782 0.069-2.9906-0.017-4.1123-0.3906zm-13.995-26.899c-1.8431-1.609-2.6361-4.8213-1.4751-5.9756 1.7696-1.7594 4.0145-0.4634 4.728 2.7296 0.75199 3.3652-1.0531 5.1664-3.2529 3.246zm6.213-4.4838c-1.3207-1.3838-1.7607-2.4791-1.7732-4.415-0.0105-1.6413-0.0126-2.0939 0.85149-2.953 1.7147-1.7049 3.8686-0.4374 4.5323 3.1328 0.32643 1.7557-0.042 3.3464-1.0112 4.3655-0.89467 0.9407-1.6115 0.9048-2.5995-0.1303zm17.75 0.01c-0.85333-0.4459-1.7861-1.8511-2.0075-3.0244-0.42938-2.2757 1.2099-6.4003 3.1826-8.0074 3.22-2.6234 7.9716-2.9384 9.1833-0.6086 0.98582 1.8954-0.31354 5.2706-3.1986 8.3088-2.6707 2.8124-5.5707 4.1619-7.1598 3.3316zm-9.6358-1.8183c-1.0205-0.4897-1.757-2.4258-1.7633-4.6355-0.009-3.227 1.2774-4.9481 3.7006-4.9503 1.4782 0 2.3383 0.9928 2.5897 2.9931 0.30714 2.4442-1.2371 6.0799-2.8145 6.6267-0.95233 0.3301-0.95375 0.33-1.7125-0.034z" style="opacity:.8;fill:url(#linearGradient9815)"/>
    <path id="rect3935" d="m206.35 1018.4h6.6666c1.385 0 2.5 1.115 2.5 2.5v46.666c0 1.385-1.115 2.5-2.5 2.5h-6.67c-1.385 0-2.5-1.115-2.5-2.5v-46.7c0-1.385 1.115-2.5 2.5-2.5z" style="color:#000000;fill:url(#linearGradient9817)"/>
    <path id="path3939" d="m206.35 1019.2c-0.94708 0-1.6927 0.7456-1.6927 1.6926v46.666c0 0.9471 0.74567 1.6926 1.6927 1.6926h6.6666c0.94708 0 1.6927-0.7456 1.6927-1.6926v-46.666c0-0.9471-0.74566-1.6926-1.6927-1.6926h-6.67z" style="color:#000000;fill:url(#linearGradient9819)"/>
    <path id="path3949" d="m206.35 1019.2c-0.94708 0-1.6927 0.7456-1.6927 1.6926v46.666c0 0.9471 0.74567 1.6926 1.6927 1.6926h6.6666c0.94708 0 1.6927-0.7456 1.6927-1.6926v-46.666c0-0.9471-0.74566-1.6926-1.6927-1.6926h-6.67zm0 0.8854h6.6666c0.47978 0 0.80729 0.3275 0.80729 0.8073v46.666c0 0.4798-0.32751 0.8073-0.80729 0.8073h-6.67c-0.47977 0-0.80729-0.3275-0.80729-0.8073v-46.666c0-0.4798 0.32752-0.8073 0.80729-0.8073z" style="opacity:.8;color:#000000;fill:url(#linearGradient9821)"/>
    <path id="path4000" d="m206.35 1043.4 5.8333 4.1667v-8.3333l-5.83 4.1z" style="opacity:.8;fill:url(#linearGradient9823)"/>
   </g>
  </g>
  <rect id="rect3003" style="opacity:.15;fill:#fff" transform="translate(98 3.8281e-7)" clip-path="url(#clipPath3009)" rx="25" ry="25" height="92" width="92" y="958.36" x="-96"/>
 </g>
</svg>
