<?xml version="1.0" encoding="UTF-8" standalone="no"?>
<!-- Created with Inkscape (http://www.inkscape.org/) -->
<svg id="svg11037" xmlns:rdf="http://www.w3.org/1999/02/22-rdf-syntax-ns#" xmlns="http://www.w3.org/2000/svg" height="96" width="96" version="1.1" xmlns:cc="http://creativecommons.org/ns#" xmlns:xlink="http://www.w3.org/1999/xlink" xmlns:dc="http://purl.org/dc/elements/1.1/">
 <defs id="defs11039">
  <linearGradient id="linearGradient11642" y2="1046.1" gradientUnits="userSpaceOnUse" y1="962.62" gradientTransform="matrix(1.15 0 0 1.15 -7.1999 -150.65)" x2="48" x1="48">
   <stop id="stop3702-3-3" style="stop-color:#2f2f2f" offset="0"/>
   <stop id="stop3704-9" style="stop-color:#4f4f4f" offset="1"/>
  </linearGradient>
  <radialGradient id="radialGradient3418" xlink:href="#linearGradient3957" gradientUnits="userSpaceOnUse" cy="40" cx="32" gradientTransform="matrix(1.1875,0,0,1.125,-6,-5)" r="16"/>
  <linearGradient id="linearGradient3957">
   <stop id="stop3959-0" style="stop-color:#f14848" offset="0"/>
   <stop id="stop3965" style="stop-color:#e42323" offset=".67188"/>
   <stop id="stop3963" style="stop-color:#c21313" offset="1"/>
  </linearGradient>
  <linearGradient id="linearGradient3420-0" x1="70" xlink:href="#linearGradient3895-0" gradientUnits="userSpaceOnUse" x2="77" y1="71" y2="78"/>
  <linearGradient id="linearGradient3895-0">
   <stop id="stop3897-4" style="stop-color:#fff" offset="0"/>
   <stop id="stop3899-6" style="stop-color:#fff;stop-opacity:0" offset="1"/>
  </linearGradient>
  <radialGradient id="radialGradient3444" xlink:href="#linearGradient4035" gradientUnits="userSpaceOnUse" cy="40" cx="32" gradientTransform="matrix(1.1875,0,0,1.125,-6,-5)" r="16"/>
  <linearGradient id="linearGradient4035">
   <stop id="stop4037-9" style="stop-color:#8cd73e" offset="0"/>
   <stop id="stop4039-9" style="stop-color:#5db22b" offset=".71875"/>
   <stop id="stop4041-1" style="stop-color:#379b26" offset="1"/>
  </linearGradient>
  <clipPath id="clipPath3009" clipPathUnits="userSpaceOnUse">
   <path id="path3011" style="opacity:.15;fill:#fff" d="m-2 956.36h-96v33.562l96 25.687v-59.25z"/>
  </clipPath>
 </defs>
 <metadata id="metadata11042">
  <rdf:RDF>
   <cc:Work rdf:about="">
    <dc:format>image/svg+xml</dc:format>
    <dc:type rdf:resource="http://purl.org/dc/dcmitype/StillImage"/>
    <dc:title/>
   </cc:Work>
  </rdf:RDF>
 </metadata>
 <g id="layer1" transform="translate(0 -956.36)">
  <rect id="rect3867" style="fill:url(#linearGradient11642)" rx="25" ry="25" height="92" width="92" y="958.36" x="2"/>
  <g id="g3133" transform="matrix(.78571 0 0 .78571 10.28 965.9)">
   <g id="g3941">
    <path id="path2973" d="m48 32a16 16 0 1 1 -32 0 16 16 0 1 1 32 0z" style="color:#000000;fill:url(#radialGradient3418)" transform="matrix(.5 0 0 .5 59 60)"/>
    <path id="path3875" d="m75 68c-4.4183 0-8 3.5817-8 8s3.5817 8 8 8 8-3.5817 8-8-3.5817-8-8-8zm0 1c3.866 0 7 3.134 7 7s-3.134 7-7 7-7-3.134-7-7 3.134-7 7-7z" style="opacity:.2;color:#000000"/>
    <path id="path3888" d="m75 69c-3.866 0-7 3.134-7 7s3.134 7 7 7c0.08388 0 0.16683 0.0029 0.25 0-3.472-0.134-6.25-2.995-6.25-6.5 0-3.59 2.91-6.5 6.5-6.5 3.5046 0 6.3662 2.7782 6.5 6.25 0.0029-0.08317 0-0.16612 0-0.25 0-3.866-3.134-7-7-7z" style="opacity:.3;color:#000000;fill:url(#linearGradient3420-0)"/>
   </g>
   <g id="g3950" transform="translate(-18)">
    <path id="path3952" d="m48 32a16 16 0 1 1 -32 0 16 16 0 1 1 32 0z" style="color:#000000;fill:url(#radialGradient3418)" transform="matrix(.5 0 0 .5 59 60)"/>
    <path id="path3954" d="m75 68c-4.4183 0-8 3.5817-8 8s3.5817 8 8 8 8-3.5817 8-8-3.5817-8-8-8zm0 1c3.866 0 7 3.134 7 7s-3.134 7-7 7-7-3.134-7-7 3.134-7 7-7z" style="opacity:.2;color:#000000"/>
    <path id="path3956" d="m75 69c-3.866 0-7 3.134-7 7s3.134 7 7 7c0.08388 0 0.16683 0.0029 0.25 0-3.472-0.134-6.25-2.995-6.25-6.5 0-3.59 2.91-6.5 6.5-6.5 3.5046 0 6.3662 2.7782 6.5 6.25 0.0029-0.08317 0-0.16612 0-0.25 0-3.866-3.134-7-7-7z" style="opacity:.3;color:#000000;fill:url(#linearGradient3420-0)"/>
   </g>
   <g id="g3962" transform="translate(-36)">
    <path id="path3964" d="m48 32a16 16 0 1 1 -32 0 16 16 0 1 1 32 0z" style="color:#000000;fill:url(#radialGradient3418)" transform="matrix(.5 0 0 .5 59 60)"/>
    <path id="path3966" d="m75 68c-4.4183 0-8 3.5817-8 8s3.5817 8 8 8 8-3.5817 8-8-3.5817-8-8-8zm0 1c3.866 0 7 3.134 7 7s-3.134 7-7 7-7-3.134-7-7 3.134-7 7-7z" style="opacity:.2;color:#000000"/>
    <path id="path3968" d="m75 69c-3.866 0-7 3.134-7 7s3.134 7 7 7c0.08388 0 0.16683 0.0029 0.25 0-3.472-0.134-6.25-2.995-6.25-6.5 0-3.59 2.91-6.5 6.5-6.5 3.5046 0 6.3662 2.7782 6.5 6.25 0.0029-0.08317 0-0.16612 0-0.25 0-3.866-3.134-7-7-7z" style="opacity:.3;color:#000000;fill:url(#linearGradient3420-0)"/>
   </g>
   <g id="g3974" transform="translate(-54)">
    <path id="path3976" d="m48 32a16 16 0 1 1 -32 0 16 16 0 1 1 32 0z" style="color:#000000;fill:url(#radialGradient3418)" transform="matrix(.5 0 0 .5 59 60)"/>
    <path id="path3979" d="m75 68c-4.4183 0-8 3.5817-8 8s3.5817 8 8 8 8-3.5817 8-8-3.5817-8-8-8zm0 1c3.866 0 7 3.134 7 7s-3.134 7-7 7-7-3.134-7-7 3.134-7 7-7z" style="opacity:.2;color:#000000"/>
    <path id="path3981" d="m75 69c-3.866 0-7 3.134-7 7s3.134 7 7 7c0.08388 0 0.16683 0.0029 0.25 0-3.472-0.134-6.25-2.995-6.25-6.5 0-3.59 2.91-6.5 6.5-6.5 3.5046 0 6.3662 2.7782 6.5 6.25 0.0029-0.08317 0-0.16612 0-0.25 0-3.866-3.134-7-7-7z" style="opacity:.3;color:#000000;fill:url(#linearGradient3420-0)"/>
   </g>
   <g id="g3987" transform="translate(-36,-18)">
    <path id="path3989" d="m48 32a16 16 0 1 1 -32 0 16 16 0 1 1 32 0z" style="color:#000000;fill:url(#radialGradient3418)" transform="matrix(.5 0 0 .5 59 60)"/>
    <path id="path3991" d="m75 68c-4.4183 0-8 3.5817-8 8s3.5817 8 8 8 8-3.5817 8-8-3.5817-8-8-8zm0 1c3.866 0 7 3.134 7 7s-3.134 7-7 7-7-3.134-7-7 3.134-7 7-7z" style="opacity:.2;color:#000000"/>
    <path id="path3993" d="m75 69c-3.866 0-7 3.134-7 7s3.134 7 7 7c0.08388 0 0.16683 0.0029 0.25 0-3.472-0.134-6.25-2.995-6.25-6.5 0-3.59 2.91-6.5 6.5-6.5 3.5046 0 6.3662 2.7782 6.5 6.25 0.0029-0.08317 0-0.16612 0-0.25 0-3.866-3.134-7-7-7z" style="opacity:.3;color:#000000;fill:url(#linearGradient3420-0)"/>
   </g>
   <g id="g3999" transform="translate(-18,-36)">
    <path id="path4001" d="m48 32a16 16 0 1 1 -32 0 16 16 0 1 1 32 0z" style="color:#000000;fill:url(#radialGradient3418)" transform="matrix(.5 0 0 .5 59 60)"/>
    <path id="path4003" d="m75 68c-4.4183 0-8 3.5817-8 8s3.5817 8 8 8 8-3.5817 8-8-3.5817-8-8-8zm0 1c3.866 0 7 3.134 7 7s-3.134 7-7 7-7-3.134-7-7 3.134-7 7-7z" style="opacity:.2;color:#000000"/>
    <path id="path4005" d="m75 69c-3.866 0-7 3.134-7 7s3.134 7 7 7c0.08388 0 0.16683 0.0029 0.25 0-3.472-0.134-6.25-2.995-6.25-6.5 0-3.59 2.91-6.5 6.5-6.5 3.5046 0 6.3662 2.7782 6.5 6.25 0.0029-0.08317 0-0.16612 0-0.25 0-3.866-3.134-7-7-7z" style="opacity:.3;color:#000000;fill:url(#linearGradient3420-0)"/>
   </g>
   <g id="g4011" transform="translate(0,-54)">
    <path id="path4013" d="m48 32a16 16 0 1 1 -32 0 16 16 0 1 1 32 0z" style="color:#000000;fill:url(#radialGradient3418)" transform="matrix(.5 0 0 .5 59 60)"/>
    <path id="path4015" d="m75 68c-4.4183 0-8 3.5817-8 8s3.5817 8 8 8 8-3.5817 8-8-3.5817-8-8-8zm0 1c3.866 0 7 3.134 7 7s-3.134 7-7 7-7-3.134-7-7 3.134-7 7-7z" style="opacity:.2;color:#000000"/>
    <path id="path4017" d="m75 69c-3.866 0-7 3.134-7 7s3.134 7 7 7c0.08388 0 0.16683 0.0029 0.25 0-3.472-0.134-6.25-2.995-6.25-6.5 0-3.59 2.91-6.5 6.5-6.5 3.5046 0 6.3662 2.7782 6.5 6.25 0.0029-0.08317 0-0.16612 0-0.25 0-3.866-3.134-7-7-7z" style="opacity:.3;color:#000000;fill:url(#linearGradient3420-0)"/>
   </g>
   <g id="g4023" transform="translate(-54,-18)">
    <path id="path4025" d="m48 32a16 16 0 1 1 -32 0 16 16 0 1 1 32 0z" style="color:#000000;fill:url(#radialGradient3444)" transform="matrix(.5 0 0 .5 59 60)"/>
    <path id="path4027" d="m75 68c-4.4183 0-8 3.5817-8 8s3.5817 8 8 8 8-3.5817 8-8-3.5817-8-8-8zm0 1c3.866 0 7 3.134 7 7s-3.134 7-7 7-7-3.134-7-7 3.134-7 7-7z" style="opacity:.2;color:#000000"/>
    <path id="path4029" d="m75 69c-3.866 0-7 3.134-7 7s3.134 7 7 7c0.08388 0 0.16683 0.0029 0.25 0-3.472-0.134-6.25-2.995-6.25-6.5 0-3.59 2.91-6.5 6.5-6.5 3.5046 0 6.3662 2.7782 6.5 6.25 0.0029-0.08317 0-0.16612 0-0.25 0-3.866-3.134-7-7-7z" style="opacity:.3;color:#000000;fill:url(#linearGradient3420-0)"/>
   </g>
   <g id="g4043" transform="translate(-18,-18)">
    <path id="path4045" d="m48 32a16 16 0 1 1 -32 0 16 16 0 1 1 32 0z" style="color:#000000;fill:url(#radialGradient3444)" transform="matrix(.5 0 0 .5 59 60)"/>
    <path id="path4047" d="m75 68c-4.4183 0-8 3.5817-8 8s3.5817 8 8 8 8-3.5817 8-8-3.5817-8-8-8zm0 1c3.866 0 7 3.134 7 7s-3.134 7-7 7-7-3.134-7-7 3.134-7 7-7z" style="opacity:.2;color:#000000"/>
    <path id="path4049" d="m75 69c-3.866 0-7 3.134-7 7s3.134 7 7 7c0.08388 0 0.16683 0.0029 0.25 0-3.472-0.134-6.25-2.995-6.25-6.5 0-3.59 2.91-6.5 6.5-6.5 3.5046 0 6.3662 2.7782 6.5 6.25 0.0029-0.08317 0-0.16612 0-0.25 0-3.866-3.134-7-7-7z" style="opacity:.3;color:#000000;fill:url(#linearGradient3420-0)"/>
   </g>
   <g id="g4055" transform="translate(0,-18)">
    <path id="path4057" d="m48 32a16 16 0 1 1 -32 0 16 16 0 1 1 32 0z" style="color:#000000;fill:url(#radialGradient3444)" transform="matrix(.5 0 0 .5 59 60)"/>
    <path id="path4059" d="m75 68c-4.4183 0-8 3.5817-8 8s3.5817 8 8 8 8-3.5817 8-8-3.5817-8-8-8zm0 1c3.866 0 7 3.134 7 7s-3.134 7-7 7-7-3.134-7-7 3.134-7 7-7z" style="opacity:.2;color:#000000"/>
    <path id="path4061" d="m75 69c-3.866 0-7 3.134-7 7s3.134 7 7 7c0.08388 0 0.16683 0.0029 0.25 0-3.472-0.134-6.25-2.995-6.25-6.5 0-3.59 2.91-6.5 6.5-6.5 3.5046 0 6.3662 2.7782 6.5 6.25 0.0029-0.08317 0-0.16612 0-0.25 0-3.866-3.134-7-7-7z" style="opacity:.3;color:#000000;fill:url(#linearGradient3420-0)"/>
   </g>
   <g id="g4067" transform="translate(0,-36)">
    <path id="path4069" d="m48 32a16 16 0 1 1 -32 0 16 16 0 1 1 32 0z" style="color:#000000;fill:url(#radialGradient3444)" transform="matrix(.5 0 0 .5 59 60)"/>
    <path id="path4071" d="m75 68c-4.4183 0-8 3.5817-8 8s3.5817 8 8 8 8-3.5817 8-8-3.5817-8-8-8zm0 1c3.866 0 7 3.134 7 7s-3.134 7-7 7-7-3.134-7-7 3.134-7 7-7z" style="opacity:.2;color:#000000"/>
    <path id="path4073" d="m75 69c-3.866 0-7 3.134-7 7s3.134 7 7 7c0.08388 0 0.16683 0.0029 0.25 0-3.472-0.134-6.25-2.995-6.25-6.5 0-3.59 2.91-6.5 6.5-6.5 3.5046 0 6.3662 2.7782 6.5 6.25 0.0029-0.08317 0-0.16612 0-0.25 0-3.866-3.134-7-7-7z" style="opacity:.3;color:#000000;fill:url(#linearGradient3420-0)"/>
   </g>
  </g>
  <rect id="rect3003" style="opacity:.15;fill:#fff" transform="translate(98 3.8281e-7)" clip-path="url(#clipPath3009)" rx="25" ry="25" height="92" width="92" y="958.36" x="-96"/>
 </g>
</svg>
