<?xml version="1.0" encoding="UTF-8" standalone="no"?>
<!-- Created with Inkscape (http://www.inkscape.org/) -->
<svg id="svg11037" xmlns:rdf="http://www.w3.org/1999/02/22-rdf-syntax-ns#" xmlns="http://www.w3.org/2000/svg" height="96" width="96" version="1.1" xmlns:cc="http://creativecommons.org/ns#" xmlns:xlink="http://www.w3.org/1999/xlink" xmlns:dc="http://purl.org/dc/elements/1.1/">
 <defs id="defs11039">
  <radialGradient id="radialGradient3314" xlink:href="#radialGradient4290-2" gradientUnits="userSpaceOnUse" cy="69" cx="20" gradientTransform="matrix(1,0,0,1.5,0,-76.5)" r="14"/>
  <radialGradient id="radialGradient4290-2" gradientUnits="userSpaceOnUse" cy="69" cx="20" gradientTransform="matrix(1,0,0,1.5,1,-33.5)" r="14">
   <stop id="stop3711-4" style="stop-color:#d9bf83" offset="0"/>
   <stop id="stop3713-0" style="stop-color:#ebe5bd" offset="1"/>
  </radialGradient>
  <linearGradient id="linearGradient3309-7" x1="19" xlink:href="#linearGradient4292-4" gradientUnits="userSpaceOnUse" y1="90" gradientTransform="translate(-1,-43)" x2="19" y2="47.988"/>
  <linearGradient id="linearGradient4292-4" y2="47.988" gradientUnits="userSpaceOnUse" x2="19" y1="90" x1="19">
   <stop id="stop3740-6" style="stop-color:#a27a47" offset="0"/>
   <stop id="stop3742-3" style="stop-color:#d5aa65" offset="1"/>
  </linearGradient>
  <radialGradient id="radialGradient3294" xlink:href="#radialGradient4290-2" gradientUnits="userSpaceOnUse" cy="69" cx="20" gradientTransform="matrix(1,0,0,1.5,0,-34.5)" r="14"/>
  <linearGradient id="linearGradient3289-5" x1="19" xlink:href="#linearGradient4292-4" gradientUnits="userSpaceOnUse" y1="90" gradientTransform="translate(-1,-1)" x2="19" y2="47.988"/>
  <radialGradient id="radialGradient3302" xlink:href="#radialGradient4290-2" gradientUnits="userSpaceOnUse" cy="69" cx="20" gradientTransform="matrix(1,0,0,1.5,28,-76.5)" r="14"/>
  <linearGradient id="linearGradient3297-6" x1="19" xlink:href="#linearGradient4292-4" gradientUnits="userSpaceOnUse" y1="90" gradientTransform="translate(27,-43)" x2="19" y2="47.988"/>
  <radialGradient id="radialGradient3286" xlink:href="#radialGradient4290-2" gradientUnits="userSpaceOnUse" cy="69" cx="20" gradientTransform="matrix(1,0,0,1.5,28,-34.5)" r="14"/>
  <linearGradient id="linearGradient3281-2" x1="19" xlink:href="#linearGradient4292-4" gradientUnits="userSpaceOnUse" y1="90" gradientTransform="translate(27,-1)" x2="19" y2="47.988"/>
  <radialGradient id="radialGradient3322" xlink:href="#radialGradient4290-2" gradientUnits="userSpaceOnUse" cy="69" cx="20" gradientTransform="matrix(1,0,0,1.5,56,-76.5)" r="14"/>
  <linearGradient id="linearGradient3317" x1="19" xlink:href="#linearGradient4292-4" gradientUnits="userSpaceOnUse" y1="90" gradientTransform="translate(55,-43)" x2="19" y2="47.988"/>
  <radialGradient id="radialGradient3278" xlink:href="#radialGradient4290-2" gradientUnits="userSpaceOnUse" cy="69" cx="20" gradientTransform="matrix(1,0,0,1.5,56,-34.5)" r="14"/>
  <linearGradient id="linearGradient3273-4" x1="19" xlink:href="#linearGradient4292-4" gradientUnits="userSpaceOnUse" y1="90" gradientTransform="translate(55,-1)" x2="19" y2="47.988"/>
  <clipPath id="clipPath3009" clipPathUnits="userSpaceOnUse">
   <path id="path3011" style="opacity:.15;fill:#fff" d="m-2 956.36h-96v33.562l96 25.687v-59.25z"/>
  </clipPath>
 </defs>
 <metadata id="metadata11042">
  <rdf:RDF>
   <cc:Work rdf:about="">
    <dc:format>image/svg+xml</dc:format>
    <dc:type rdf:resource="http://purl.org/dc/dcmitype/StillImage"/>
    <dc:title/>
   </cc:Work>
  </rdf:RDF>
 </metadata>
 <g id="layer1" transform="translate(0 -956.36)">
  <rect id="rect3867" style="fill:#215c26" rx="25" ry="25" height="92" width="92" y="958.36" x="2"/>
  <g id="g26594" transform="matrix(1.1818 0 0 1.1818 -224.04 -230.37)">
   <g id="g3324" transform="matrix(.65476 0 0 .65476 199.41 1014)">
    <rect id="rect3173" style="color:#000000;fill:url(#radialGradient3314)" rx="5" ry="5" height="40" width="26" y="6" x="6"/>
    <path id="path3179" d="m11 5c-3.324 0-6 2.676-6 6v30c0 3.324 2.676 6 6 6h16c3.324 0 6-2.676 6-6v-30c0-3.324-2.676-6-6-6h-16zm0 1.0625h16c2.7455 0 4.9375 2.192 4.9375 4.9375v30c0 2.7455-2.192 4.9375-4.9375 4.9375h-16c-2.7455 0-4.9375-2.192-4.9375-4.938v-30c0-2.746 2.192-4.938 4.9375-4.938z" style="color:#000000;fill:url(#linearGradient3309-7)"/>
    <path id="rect3702" d="m11 5c-3.324 0-6 2.676-6 6v30c0 3.324 2.676 6 6 6h16c3.324 0 6-2.676 6-6v-30c0-3.324-2.676-6-6-6h-16zm0 1.0625h16c2.7455 0 4.9375 2.192 4.9375 4.9375v30c0 2.7455-2.192 4.9375-4.9375 4.9375h-16c-2.7455 0-4.9375-2.192-4.9375-4.938v-30c0-2.746 2.192-4.938 4.9375-4.938z" style="color:#000000;fill:url(#linearGradient3309-7)"/>
    <rect id="rect3159" style="color:#000000;fill:url(#radialGradient3294)" rx="5" ry="5" height="40" width="26" y="48" x="6"/>
    <path id="path3165" d="m11 47c-3.324 0-6 2.676-6 6v30c0 3.324 2.676 6 6 6h16c3.324 0 6-2.676 6-6v-30c0-3.324-2.676-6-6-6h-16zm0 1.0625h16c2.7455 0 4.9375 2.192 4.9375 4.9375v30c0 2.7455-2.192 4.9375-4.9375 4.9375h-16c-2.7455 0-4.9375-2.192-4.9375-4.938v-30c0-2.746 2.192-4.938 4.9375-4.938z" style="color:#000000;fill:url(#linearGradient3289-5)"/>
    <rect id="rect3145" style="color:#000000;fill:url(#radialGradient3302)" rx="5" ry="5" height="40" width="26" y="6" x="34"/>
    <path id="path3151" d="m39 5c-3.324 0-6 2.676-6 6v30c0 3.324 2.676 6 6 6h16c3.324 0 6-2.676 6-6v-30c0-3.324-2.676-6-6-6h-16zm0 1.0625h16c2.7455 0 4.9375 2.192 4.9375 4.9375v30c0 2.7455-2.192 4.9375-4.9375 4.9375h-16c-2.7455 0-4.9375-2.192-4.9375-4.938v-30c0-2.746 2.192-4.938 4.938-4.938z" style="color:#000000;fill:url(#linearGradient3297-6)"/>
    <rect id="rect3215" style="color:#000000;fill:url(#radialGradient3286)" rx="5" ry="5" height="40" width="26" y="48" x="34"/>
    <path id="path3221" d="m39 47c-3.324 0-6 2.676-6 6v30c0 3.324 2.676 6 6 6h16c3.324 0 6-2.676 6-6v-30c0-3.324-2.676-6-6-6h-16zm0 1.0625h16c2.7455 0 4.9375 2.192 4.9375 4.9375v30c0 2.7455-2.192 4.9375-4.9375 4.9375h-16c-2.7455 0-4.9375-2.192-4.9375-4.938v-30c0-2.7455 2.192-4.9375 4.9375-4.9375z" style="color:#000000;fill:url(#linearGradient3281-2)"/>
    <rect id="rect3201" style="color:#000000;fill:url(#radialGradient3322)" rx="5" ry="5" height="40" width="26" y="6" x="62"/>
    <path id="path3207" d="m67 5c-3.324 0-6 2.676-6 6v30c0 3.324 2.676 6 6 6h16c3.324 0 6-2.676 6-6v-30c0-3.324-2.676-6-6-6h-16zm0 1.0625h16c2.7455 0 4.9375 2.192 4.9375 4.9375v30c0 2.7455-2.192 4.9375-4.9375 4.9375h-16c-2.7455 0-4.9375-2.192-4.9375-4.938v-30c0-2.746 2.192-4.938 4.938-4.938z" style="color:#000000;fill:url(#linearGradient3317)"/>
    <rect id="rect3187" style="color:#000000;fill:url(#radialGradient3278)" rx="5" ry="5" height="40" width="26" y="48" x="62"/>
    <path id="path3193" d="m67 47c-3.324 0-6 2.676-6 6v30c0 3.324 2.676 6 6 6h16c3.324 0 6-2.676 6-6v-30c0-3.324-2.676-6-6-6h-16zm0 1.0625h16c2.7455 0 4.9375 2.192 4.9375 4.9375v30c0 2.7455-2.192 4.9375-4.9375 4.9375h-16c-2.7455 0-4.9375-2.192-4.9375-4.938v-30c0-2.7455 2.192-4.9375 4.9375-4.9375z" style="color:#000000;fill:url(#linearGradient3273-4)"/>
    <path id="path4352" d="m44.885 11.59c-0.17944 0.17944-0.2243 0.4486-0.2243 0.76262 0 0.58318 0.17944 1.3009 0.26916 1.5701 0 0 0.13458 3.1402 0.17944 3.4991-0.40374 0.04486-1.1215 0.08972-1.3907 0.17944h-0.35888c-0.76262 0.04486-1.4804 0.08972-1.7944 0.40374l-0.13458 0.13458 0.13458 0.17944c0.2243 0.26916 0.31402 1.0318 0.40374 1.8392 0.2243 1.6598 0.49346 3.7234 1.8392 4.5308l0.26916 0.13458v-0.31402s0.04486-0.13458 0.04486-0.31402c0-0.13458-0.04486-0.35888-0.08972-0.6729 0.35888 0.04486 1.1215 0.13458 1.3907 0.13458 0.04486 0.35888 1.2112 14.983 1.2112 14.983h0.4486s0.49346-14.445 0.49346-14.893c0.31402 0 1.7047 0.04486 2.1084 0.08972-0.08972 0.26916-0.4486 1.3907-0.4486 1.3907l0.62804-0.58318c0.17944-0.13458 4.0822-3.6785 3.5439-6.0112-0.17944-0.76262-0.80748-1.3009-1.8392-1.5701h-0.091c-0.58318 0-2.3776 0.04486-3.7234 0.13458 0.04486-1.1664 0.04486-1.7944 0.04486-2.1084v-0.40373c0-0.2243 0.2243-0.53832 0.40374-0.76262 0.17944-0.26916 0.40374-0.49346 0.40374-0.76262 0-0.08972-0.04486-0.17944-0.08972-0.26916-0.26916-0.40374-2.243-1.4355-3.0953-1.5252-0.26916 0.04486-0.4486 0.08972-0.53832 0.2243zm0.04486 7.357h0.2243c0 0.40374 0.13458 3.2299 0.17944 3.6336-0.35888-0.04486-1.2112-0.13458-1.4804-0.13458-0.13458-0.58318-0.17944-1.2112-0.2243-1.8392-0.04485-0.53832-0.08972-1.0766-0.17944-1.5701 0.40374 0 1.4804-0.08972 1.4804-0.08972zm2.7364 1.3907s0.04485-1.0766 0.04485-1.4355c0.58318 0.08972 1.3458 0.13458 2.0635 0.13458h0.80748c0 0.17944-0.04486 0.40374-0.04486 0.40374-0.08972 0.98692-0.2243 2.1533-0.62804 3.3196-0.26916 0-1.929-0.08972-2.2878-0.13458 0-0.31402 0.04486-2.2878 0.04486-2.2878z" style="fill:#a31717"/>
    <g id="g4024" transform="matrix(.42888 0 0 .42888 44.175 12.034)">
     <path id="path4356" d="m65.371 137.69c0 0.1-1.4 5.1-5.1 7.1-0.5-0.6-3.1-4.2-3.1-4.2l-0.9 0.5 4.4 11.4 1-0.2c0-2.2 1.1-3.5 2.4-4.9 1.8-2.1 3.8-4.5 2.3-9.7l-0.5-1.7-0.5 1.7z" style="fill:#004c00"/>
     <path id="path4358" d="m69.871 126.89s-0.5 4.9-1.9 7.8l-0.3 0.7 0.7 0.1c1.8 0.1 3.5-3.7 4.1-5.4 0.4 0 1.4 0.1 2 0.1-0.3 1.2-0.7 2.8-0.7 3.8 0 0.4 0 0.7 0.2 0.9l0.5 0.3c0.8 0.1 5.2-0.2 6.1-0.3v-1c-1.5-0.2-3.3-0.7-3.5-1.2-0.2-0.6 0.6-3 1.5-5l0.3-0.7-9-0.6v0.5z" style="fill:#004c00"/>
     <path id="path4360" d="m82.371 136.49-14.7 0.4s4.9 6.3 5.4 6.9c-2.6 2.4-4.9 4.2-7 5.4l-0.6 0.4 0.6 0.5c1.4 1.1 4.2-0.2 8.6-4.2 2.3 3.2 3.8 5.5 4.3 6.9l0.2 0.7 2.7-2.2v-0.5c0-0.5 0-2.1-4.7-7.3 3-3.1 5.6-6 5.6-6.1l0.7-0.9h-1.1zm-4.7 2.8c-0.8 0.9-1.7 1.8-2.1 2.3l-1.9-1.9c1.1-0.2 2.7-0.3 4-0.4z" style="fill:#004c00"/>
     <path id="path4362" d="m71.471 115.09-1.7 1.7-4.5-5.2h-0.2c-0.7 0-4.3 0.1-5.2 1.4-0.1 0.1-0.1 0.3-0.1 0.4v0.2c0.1 0.5 0.7 0.7 1.8 1.1 0.5 0.2 1.2 0.5 1.5 0.7-1.1 2.3-2.3 4.4-3.7 6.4-0.7-0.4-4.1-2.5-4.1-2.5l-0.6 0.8s2.8 3.1 3.3 3.6c-2.8 3.5-6.2 6.6-10.4 9.5l0.4 0.9c12.8-3.3 21.9-16.2 22.1-16.5l2.3 2.2c-3.2 2-6.2 3.8-6.2 3.8l0.5 0.9c2-0.8 4.8-1.9 7.6-3l11.1 10.8 10.8-3.8-0.1-1c-5.1-0.2-12-4.4-17.1-7.9 2.9-1 5.3-1.7 6.4-1.6 0.7 0 0.9-0.3 1-0.5 0.4-1.1-3.5-4.4-11.4-9.7l-0.5-0.3-0.2 0.6m1 8.8c0.7-1.2 1.6-2.9 1.9-3.3 0.5 0.3 1.8 1.1 2.5 1.6-0.4 0.2-1.9 1.1-3.7 2.3-0.2-0.2-0.4-0.4-0.7-0.6z" style="fill:#004c00"/>
     <path id="path4364" d="m67.271 125.29-6.2 3.5 0.3 0.9s1.1-0.1 1.8-0.1c-0.2 0.7-0.6 1.8-1.1 3.2-0.6 0-5-0.2-5-0.2l0.8 0.9c0.3 0.3 1.6 1.7 2.7 1.7 0 0 0.3-0.1 0.6-0.1-0.8 2-1.7 3.7-2.6 5l0.7 0.7c1.5-1.2 3.2-3.4 4.8-6.4 0.3-0.1 1.2-0.4 1.2-0.4l-0.1-1h-0.4c1.8-3.6 3.1-7.1 3.1-7.1l0.5-1.3-1.1 0.7z" style="fill:#004c00"/>
    </g>
    <g id="g4021" transform="matrix(.43093 0 0 .43093 86.922 52.563)">
     <path id="path4308" d="m-161.75 9.2732c0.4 0.5 0.9 2.3 0.9 8.6v2.8c-3.4 0.5-6.3 1-6.8 1.2l-0.6 0.2 2.8 2.7 0.2-0.1c1.1-0.3 2.6-0.5 4.2-0.7 0 0.7-0.4 7.3-0.4 7.9-4.9 0.4-9.2 1.1-12.7 1.9-3 0.8-4.8 2.6-5.2 5.4-0.1 0.4-0.1 0.9-0.1 1.4 0 7.1 6.9 16.9 7 16.9l0.8 0.5-0.3-0.9c0-0.1-2.8-9.4-2.8-15.6 0-1.8 0.2-3.3 0.8-4.3 0.4-0.6 0.8-0.9 1.4-1 1.3-0.2 2.7-0.4 4-0.6 0 0 3.1 4 3.7 4.7-0.5 0.1-1.4 0.3-1.4 0.3v0.3l0.2 2.2 0.4-0.1c0.6-0.2 1.8-0.5 3.2-0.7 0 0.6 0.1 2.4 0.2 2.9-1.7 0.5-3.2 1.1-3.8 1.4l-0.4 0.2 1.5 1.6 0.2-0.1c0.7-0.3 1.7-0.6 2.7-0.9 0 0.7 0.3 5.6 0.3 5.6h0.7l1.2-6c1.8-0.2 3.5-0.1 4.8 0.2l0.4 0.1v-3l-0.2-0.1c-0.8-0.4-2.3-0.4-4.5 0.1 0.1-0.7 0.4-2.1 0.5-2.5 1.6-0.1 2.9-0.2 3.8-0.1l0.5 0.1-0.7-2.6s-0.9 0-1.4 0.1c0.8-0.9 3.5-4.4 3.7-4.6 0.3 0 3.9 0.1 3.9 0.1 1.6 0.1 3 0.7 4.1 2 1.3 1.5 2 3.9 2 6.3 0 0.5 0 1.1-0.1 1.6l-0.1 0.7c-0.7 5.1-1.3 8.8-3.1 9.6-1.2 0.5-3.1-0.3-5.9-2.4l-0.5 0.5 5.5 9.6 0.3-0.1c6.7-2.4 7.7-3.8 10.4-15.4 1.2-5.1 0.8-9.1-1.3-11.8-2.5-3.3-6.3-3.7-6.5-3.7-0.1 0-6.7-0.3-14.6 0.2 0.2-0.8 2-7.5 2.1-7.9 2.5 0 4.7 0.1 5.7 0.5l0.4 0.1 0.4-4.7h-0.4c-1.1 0-2.8 0.1-5.1 0.3 1.3-4.4 1.9-5.8 2.1-6.2l0.2-0.3-8.1-4.7-0.2 0.3zm4.4 25.3c-0.1 0.7-0.7 4.3-0.7 4.7h-0.1c0-0.1 0.1-0.4 0.1-0.4l-4.4 0.4v0.6c-0.4 0.1-1 0.2-1.4 0.2v-5.1c2.2-0.1 4.3-0.3 6.5-0.4z" style="fill:#2c2c51"/>
    </g>
    <g id="g4026" transform="matrix(.46747 0 0 .46747 30.447 -8.3249)">
     <g id="use3830" transform="translate(18.409,161.82)">
      <path id="path3574" d="m18.01 0.14s-4.39 3.33-4.78 3.63c-0.32-0.33-3.2-3.27-3.2-3.27l2.22 8.92 0.6-0.03c0.75-4.76 4.35-6.63 5.33-7.05 0.14 0.2 0.26 0.42 0.26 0.72 0 0.09-0.01 0.18-0.02 0.28-0.21 1.67-2.39 4.64-6.68 7.21l-0.31 0.18 0.81 1.01 0.2-0.06c0.06-0.02 6.59-2.06 10.36-1.88l1.14 0.05-0.96-0.63c-0.08-0.05-1.95-1.25-3.93-1.03 0.28-0.63 2.26-2.56 4.15-4.16l0.31-0.26-5.32-3.77-0.18 0.14z" style="fill:#a81212"/>
      <path id="path3576" d="m33.78 24.64c-0.17-0.17-4.21-4.28-5.63-5.01-0.53-0.27-1.71-0.18-5.75 0.16 0 0-0.17 0.01-0.43 0.04 1.19-2.79 2.72-5.86 3.57-6.25l0.55-0.25-2.13-2.09-0.21 0.03c-5.11 0.87-13.08 2.09-14.11 1.9l-0.35-0.07-0.12 0.33c-0.2 0.56 0.32 4.93 0.86 7.37-4.58 0.4-10.03 0.86-10.03 0.86l0.3 0.56 0.68 1.27 0.32-0.09c1.72-0.51 2.52-0.57 4.6-0.54 0.19 0.49 2.6 6.77 2.6 6.77l0.79-0.2s-0.69-5.69-0.8-6.52c0.78 0.02 7.99 0.22 9.67 0.26-1.09 0.92-3.56 3.02-3.56 3.02l0.4 0.71s5.15-1.76 5.41-1.85c0.25 0.1 4.3 1.65 4.3 1.65s-2.13-2.57-2.81-3.38c3.78 0.2 4.75 0.42 5.01 0.74 0.33 0.39 0.5 0.96 0.5 1.6 0 1.16-0.58 2.57-1.8 3.73-1.82-0.46-5.17-2.34-5.21-2.36l-0.52 0.62 5.08 6.35 0.24-0.05c3.82-0.78 8.44-8.48 8.63-8.81l0.17-0.27-0.22-0.23zm-12.76-7.99c-1.22 0.16-2.77 0.37-3.21 0.43v-2c1.62-0.13 3.11-0.25 3.49-0.29-0.05 0.27-0.15 0.98-0.28 1.86zm-4.93-1.43c0.02 0.84 0.04 1.75 0.05 2.06-1.41 0.16-2.6 0.26-3.55 0.3 0.1-0.62 0.19-1.31 0.3-2.1 0.24-0.02 1.62-0.13 3.2-0.26zm-4.06 5.43c0.08-0.35 0.17-0.76 0.26-1.24 1.3-0.24 2.61-0.46 3.89-0.63 0.01 0.48 0.03 1.1 0.04 1.52-0.25 0.01-1.96 0.16-4.19 0.35zm5.77-0.48v-1.6c0.98-0.1 1.36-0.08 1.96-0.02l0.96 0.06c-0.07 0.46-0.14 0.92-0.2 1.35-1.09 0.08-2.33 0.18-2.72 0.21z" style="fill:#a81212"/>
     </g>
     <path id="path4268" d="m48.009 144.42s-2.9 3.2-3.1 3.4c-3.2 0.7-8.4 1.2-8.8-0.4-0.5-1.9 3.4-10.4 4.9-13.6l0.2-0.3-5.6-2.8-0.1 0.4c-0.1 0.2-0.4 1.3-0.9 3h-4.5c0-0.4-0.1-1.3-0.1-1.3-1.4-2.3-7.4-0.7-8.1-0.6l-0.4 0.1 0.2 0.4c0.2 0.4 0.4 0.9 0.5 1.4h-3.8l1.9 3.6s1.8-0.3 2.4-0.4v0.7c0 6.2-2.7 14.1-2.7 14.2l0.6 0.3c0.3-0.4 7.9-9.5 9.3-16.4 0.2 0 2.4-0.4 4.4-0.7-1.2 4.7-2.6 12.1-0.3 14.8 3.4 4 16.6 3.7 17.1 3.5l0.3-0.1-3.4-9.2z" style="fill:#3d3d6f"/>
    </g>
    <g id="g4008" transform="matrix(.47011 0 0 .47011 -103.77 -42.357)">
     <path id="use4098" d="m253.66 127.91c0-0.851-1.1375-1.5818-2.7846-1.9332v-6.4472c1.6471-0.3515 2.7846-1.0822 2.7846-1.9332 0-1.2025-2.2386-2.1738-5.005-2.1738s-5.005 0.97125-5.005 2.1738c0 0.851 1.1375 1.5818 2.7846 1.9332v6.4472c-1.6471 0.3515-2.7846 1.0822-2.7846 1.9332s1.1375 1.5818 2.7846 1.9332v6.438c-1.6471 0.36075-2.7846 1.0915-2.7846 1.9425 0 1.2025 2.2386 2.1738 5.005 2.1738s5.005-0.97125 5.005-2.1738c0-0.851-1.1375-1.5818-2.7846-1.9332v-6.438c1.6471-0.36075 2.7846-1.0915 2.7846-1.9425zm-5.005-11.128c1.2285 0 2.2204 0.36075 2.2204 0.814 0 0.37925-0.7098 0.69375-1.6653 0.78625v5.4945c0 0.4255-0.2548 0.777-0.5551 0.777s-0.5551-0.3515-0.5551-0.777v-5.4945c-0.9555-0.0925-1.6653-0.407-1.6653-0.78625 0-0.45325 0.9919-0.814 2.2204-0.814zm0 22.256c-1.2285 0-2.2204-0.36075-2.2204-0.814 0-0.37925 0.7098-0.69375 1.6653-0.78625v-5.4945c0-0.4255 0.2548-0.777 0.5551-0.777s0.5551 0.3515 0.5551 0.777v5.4945c0.9555 0.0925 1.6653 0.407 1.6653 0.78625 0 0.45325-0.9919 0.814-2.2204 0.814zm0-10.314c-1.6926 0-3.0576-0.36075-3.0576-0.814s1.365-0.814 3.0576-0.814 3.0576 0.36075 3.0576 0.814-1.365 0.814-3.0576 0.814z" style="fill:#0c6c0c"/>
     <path id="use4100" d="m253.66 162.91c0-0.851-1.1375-1.5818-2.7846-1.9332v-6.4472c1.6471-0.3515 2.7846-1.0822 2.7846-1.9332 0-1.2025-2.2386-2.1738-5.005-2.1738s-5.005 0.97125-5.005 2.1738c0 0.851 1.1375 1.5818 2.7846 1.9332v6.4472c-1.6471 0.3515-2.7846 1.0822-2.7846 1.9332s1.1375 1.5818 2.7846 1.9332v6.438c-1.6471 0.36075-2.7846 1.0915-2.7846 1.9425 0 1.2025 2.2386 2.1738 5.005 2.1738s5.005-0.97125 5.005-2.1738c0-0.851-1.1375-1.5818-2.7846-1.9332v-6.438c1.6471-0.36075 2.7846-1.0915 2.7846-1.9425zm-5.005-11.128c1.2285 0 2.2204 0.36075 2.2204 0.814 0 0.37925-0.7098 0.69375-1.6653 0.78625v5.4945c0 0.4255-0.2548 0.777-0.5551 0.777s-0.5551-0.3515-0.5551-0.777v-5.4945c-0.9555-0.0925-1.6653-0.407-1.6653-0.78625 0-0.45325 0.9919-0.814 2.2204-0.814zm0 22.256c-1.2285 0-2.2204-0.36075-2.2204-0.814 0-0.37925 0.7098-0.69375 1.6653-0.78625v-5.4945c0-0.4255 0.2548-0.777 0.5551-0.777s0.5551 0.3515 0.5551 0.777v5.4945c0.9555 0.0925 1.6653 0.407 1.6653 0.78625 0 0.45325-0.9919 0.814-2.2204 0.814zm0-10.314c-1.6926 0-3.0576-0.36075-3.0576-0.814s1.365-0.814 3.0576-0.814 3.0576 0.36075 3.0576 0.814-1.365 0.814-3.0576 0.814z" style="fill:#0c6c0c"/>
     <path id="use4108" d="m266.16 145.41c0-0.851-1.1375-1.5818-2.7846-1.9332v-6.4472c1.6471-0.3515 2.7846-1.0822 2.7846-1.9332 0-1.2025-2.2386-2.1738-5.005-2.1738s-5.005 0.97125-5.005 2.1738c0 0.851 1.1375 1.5818 2.7846 1.9332v6.4472c-1.6471 0.3515-2.7846 1.0822-2.7846 1.9332s1.1375 1.5818 2.7846 1.9332v6.438c-1.6471 0.36075-2.7846 1.0915-2.7846 1.9425 0 1.2025 2.2386 2.1738 5.005 2.1738s5.005-0.97125 5.005-2.1738c0-0.851-1.1375-1.5818-2.7846-1.9332v-6.438c1.6471-0.36075 2.7846-1.0915 2.7846-1.9425zm-5.005-11.128c1.2285 0 2.2204 0.36075 2.2204 0.814 0 0.37925-0.7098 0.69375-1.6653 0.78625v5.4945c0 0.4255-0.2548 0.777-0.5551 0.777s-0.5551-0.3515-0.5551-0.777v-5.4945c-0.9555-0.0925-1.6653-0.407-1.6653-0.78625 0-0.45325 0.9919-0.814 2.2204-0.814zm0 22.256c-1.2285 0-2.2204-0.36075-2.2204-0.814 0-0.37925 0.7098-0.69375 1.6653-0.78625v-5.4945c0-0.4255 0.2548-0.777 0.5551-0.777s0.5551 0.3515 0.5551 0.777v5.4945c0.9555 0.0925 1.6653 0.407 1.6653 0.78625 0 0.45325-0.9919 0.814-2.2204 0.814zm0-10.314c-1.6926 0-3.0576-0.36075-3.0576-0.814s1.365-0.814 3.0576-0.814 3.0576 0.36075 3.0576 0.814-1.365 0.814-3.0576 0.814z" style="fill:#9c0000"/>
     <path id="use4110" d="m278.66 127.91c0-0.851-1.1375-1.5818-2.7846-1.9332v-6.4472c1.6471-0.3515 2.7846-1.0822 2.7846-1.9332 0-1.2025-2.2386-2.1738-5.005-2.1738s-5.005 0.97125-5.005 2.1738c0 0.851 1.1375 1.5818 2.7846 1.9332v6.4472c-1.6471 0.3515-2.7846 1.0822-2.7846 1.9332s1.1375 1.5818 2.7846 1.9332v6.438c-1.6471 0.36075-2.7846 1.0915-2.7846 1.9425 0 1.2025 2.2386 2.1738 5.005 2.1738s5.005-0.97125 5.005-2.1738c0-0.851-1.1375-1.5818-2.7846-1.9332v-6.438c1.6471-0.36075 2.7846-1.0915 2.7846-1.9425zm-5.005-11.128c1.2285 0 2.2204 0.36075 2.2204 0.814 0 0.37925-0.7098 0.69375-1.6653 0.78625v5.4945c0 0.4255-0.2548 0.777-0.5551 0.777s-0.5551-0.3515-0.5551-0.777v-5.4945c-0.9555-0.0925-1.6653-0.407-1.6653-0.78625 0-0.45325 0.9919-0.814 2.2204-0.814zm0 22.256c-1.2285 0-2.2204-0.36075-2.2204-0.814 0-0.37925 0.7098-0.69375 1.6653-0.78625v-5.4945c0-0.4255 0.2548-0.777 0.5551-0.777s0.5551 0.3515 0.5551 0.777v5.4945c0.9555 0.0925 1.6653 0.407 1.6653 0.78625 0 0.45325-0.9919 0.814-2.2204 0.814zm0-10.314c-1.6926 0-3.0576-0.36075-3.0576-0.814s1.365-0.814 3.0576-0.814 3.0576 0.36075 3.0576 0.814-1.365 0.814-3.0576 0.814z" style="fill:#0c6c0c"/>
     <path id="use4112" d="m278.66 162.91c0-0.851-1.1375-1.5818-2.7846-1.9332v-6.4472c1.6471-0.3515 2.7846-1.0822 2.7846-1.9332 0-1.2025-2.2386-2.1738-5.005-2.1738s-5.005 0.97125-5.005 2.1738c0 0.851 1.1375 1.5818 2.7846 1.9332v6.4472c-1.6471 0.3515-2.7846 1.0822-2.7846 1.9332s1.1375 1.5818 2.7846 1.9332v6.438c-1.6471 0.36075-2.7846 1.0915-2.7846 1.9425 0 1.2025 2.2386 2.1738 5.005 2.1738s5.005-0.97125 5.005-2.1738c0-0.851-1.1375-1.5818-2.7846-1.9332v-6.438c1.6471-0.36075 2.7846-1.0915 2.7846-1.9425zm-5.005-11.128c1.2285 0 2.2204 0.36075 2.2204 0.814 0 0.37925-0.7098 0.69375-1.6653 0.78625v5.4945c0 0.4255-0.2548 0.777-0.5551 0.777s-0.5551-0.3515-0.5551-0.777v-5.4945c-0.9555-0.0925-1.6653-0.407-1.6653-0.78625 0-0.45325 0.9919-0.814 2.2204-0.814zm0 22.256c-1.2285 0-2.2204-0.36075-2.2204-0.814 0-0.37925 0.7098-0.69375 1.6653-0.78625v-5.4945c0-0.4255 0.2548-0.777 0.5551-0.777s0.5551 0.3515 0.5551 0.777v5.4945c0.9555 0.0925 1.6653 0.407 1.6653 0.78625 0 0.45325-0.9919 0.814-2.2204 0.814zm0-10.314c-1.6926 0-3.0576-0.36075-3.0576-0.814s1.365-0.814 3.0576-0.814 3.0576 0.36075 3.0576 0.814-1.365 0.814-3.0576 0.814z" style="fill:#0c6c0c"/>
    </g>
    <g id="g4015" transform="matrix(.51419 0 0 .51419 113.83 -56.387)">
     <g id="use3890" transform="translate(-94.522,132.23)">
      <path id="path3728-4" d="m9 1.42c-4.18 0-7.58 3.4-7.58 7.58s3.4 7.58 7.58 7.58 7.58-3.4 7.58-7.58-3.4-7.58-7.58-7.58zm0 13.69c-1.36 0-2.49-0.97-2.75-2.25 0.78 0.56 1.72 0.89 2.75 0.89s1.97-0.34 2.75-0.89c-0.26 1.28-1.39 2.25-2.75 2.25zm0-12.22c1.36 0 2.49 0.97 2.75 2.25-0.78-0.55-1.72-0.89-2.75-0.89s-1.97 0.34-2.75 0.89c0.26-1.28 1.39-2.25 2.75-2.25zm3.75 6.11c0 0.57-0.14 1.11-0.37 1.59-0.34-0.67-0.87-1.22-1.53-1.59 0.66-0.37 1.19-0.92 1.53-1.59 0.23 0.48 0.37 1.02 0.37 1.59zm-7.5 0c0-0.57 0.14-1.11 0.37-1.59 0.34 0.67 0.87 1.22 1.53 1.59-0.66 0.37-1.19 0.92-1.53 1.59-0.23-0.48-0.37-1.02-0.37-1.59zm6.34 2.7c-1.02-0.27-1.82-1.1-2.03-2.14 1.04 0.21 1.87 1.01 2.14 2.03l-0.11 0.11zm-5.29-0.11c0.27-1.02 1.1-1.82 2.15-2.03-0.21 1.04-1.01 1.87-2.03 2.14-0.05-0.04-0.08-0.07-0.12-0.11zm0.11-5.29c1.02 0.27 1.82 1.1 2.03 2.15-1.04-0.22-1.87-1.02-2.14-2.04l0.11-0.11zm5.29 0.11c-0.27 1.02-1.1 1.82-2.14 2.03 0.21-1.05 1.01-1.87 2.03-2.15 0.04 0.05 0.07 0.08 0.11 0.12zm-2.7 0.74c-0.37-0.66-0.92-1.19-1.59-1.53 0.48-0.23 1.02-0.37 1.59-0.37s1.11 0.14 1.59 0.37c-0.67 0.34-1.22 0.87-1.59 1.53zm0 3.7c0.37 0.66 0.92 1.19 1.59 1.53-0.49 0.23-1.02 0.37-1.59 0.37s-1.11-0.14-1.59-0.37c0.67-0.34 1.22-0.87 1.59-1.53zm-3.86 0.9c-1.28-0.26-2.25-1.39-2.25-2.75s0.97-2.49 2.25-2.75c-0.55 0.78-0.89 1.72-0.89 2.75s0.34 1.97 0.89 2.75zm7.72-5.5c1.28 0.26 2.25 1.39 2.25 2.75s-0.97 2.49-2.25 2.75c0.56-0.78 0.89-1.72 0.89-2.75s-0.34-1.97-0.89-2.75zm2.15 0.08c-0.59-0.6-1.38-0.99-2.25-1.09-0.11-0.88-0.49-1.66-1.09-2.25 1.48 0.66 2.68 1.86 3.34 3.34zm-8.68-3.34c-0.6 0.59-0.98 1.38-1.09 2.25-0.88 0.11-1.66 0.49-2.25 1.09 0.66-1.48 1.86-2.68 3.34-3.34zm-3.34 8.68c0.59 0.6 1.38 0.99 2.25 1.09 0.11 0.88 0.49 1.66 1.09 2.25-1.48-0.66-2.68-1.86-3.34-3.34zm8.68 3.34c0.6-0.59 0.99-1.38 1.09-2.25 0.88-0.11 1.66-0.49 2.25-1.09-0.66 1.48-1.86 2.68-3.34 3.34z" style="fill:#10106c"/>
      <path id="path3730" d="m9 0c-4.96 0-9 4.04-9 9s4.04 9 9 9 9-4.04 9-9-4.04-9-9-9zm0 17c-4.41 0-8-3.59-8-8s3.59-8 8-8 8 3.59 8 8-3.59 8-8 8z" style="fill:#2d2d4f"/>
     </g>
     <g id="use3894" transform="translate(-84.522,151.23)">
      <path id="path3722" d="m9 1.42c-4.18 0-7.58 3.4-7.58 7.58s3.4 7.58 7.58 7.58 7.58-3.4 7.58-7.58-3.4-7.58-7.58-7.58zm0 13.69c-1.36 0-2.49-0.97-2.75-2.25 0.78 0.56 1.72 0.89 2.75 0.89s1.97-0.34 2.75-0.89c-0.26 1.28-1.39 2.25-2.75 2.25zm0-12.22c1.36 0 2.49 0.97 2.75 2.25-0.78-0.55-1.72-0.89-2.75-0.89s-1.97 0.34-2.75 0.89c0.26-1.28 1.39-2.25 2.75-2.25zm3.75 6.11c0 0.57-0.14 1.11-0.37 1.59-0.34-0.67-0.87-1.22-1.53-1.59 0.66-0.37 1.19-0.92 1.53-1.59 0.23 0.48 0.37 1.02 0.37 1.59zm-7.5 0c0-0.57 0.14-1.11 0.37-1.59 0.34 0.67 0.87 1.22 1.53 1.59-0.66 0.37-1.19 0.92-1.53 1.59-0.23-0.48-0.37-1.02-0.37-1.59zm6.34 2.7c-1.02-0.27-1.82-1.1-2.03-2.14 1.04 0.21 1.87 1.01 2.14 2.03l-0.11 0.11zm-5.29-0.11c0.27-1.02 1.1-1.82 2.15-2.03-0.21 1.04-1.01 1.87-2.03 2.14-0.05-0.04-0.08-0.07-0.12-0.11zm0.11-5.29c1.02 0.27 1.82 1.1 2.03 2.15-1.04-0.22-1.87-1.02-2.14-2.04l0.11-0.11zm5.29 0.11c-0.27 1.02-1.1 1.82-2.14 2.03 0.21-1.05 1.01-1.87 2.03-2.15 0.04 0.05 0.07 0.08 0.11 0.12zm-2.7 0.74c-0.37-0.66-0.92-1.19-1.59-1.53 0.48-0.23 1.02-0.37 1.59-0.37s1.11 0.14 1.59 0.37c-0.67 0.34-1.22 0.87-1.59 1.53zm0 3.7c0.37 0.66 0.92 1.19 1.59 1.53-0.49 0.23-1.02 0.37-1.59 0.37s-1.11-0.14-1.59-0.37c0.67-0.34 1.22-0.87 1.59-1.53zm-3.86 0.9c-1.28-0.26-2.25-1.39-2.25-2.75s0.97-2.49 2.25-2.75c-0.55 0.78-0.89 1.72-0.89 2.75s0.34 1.97 0.89 2.75zm7.72-5.5c1.28 0.26 2.25 1.39 2.25 2.75s-0.97 2.49-2.25 2.75c0.56-0.78 0.89-1.72 0.89-2.75s-0.34-1.97-0.89-2.75zm2.15 0.08c-0.59-0.6-1.38-0.99-2.25-1.09-0.11-0.88-0.49-1.66-1.09-2.25 1.48 0.66 2.68 1.86 3.34 3.34zm-8.68-3.34c-0.6 0.59-0.98 1.38-1.09 2.25-0.88 0.11-1.66 0.49-2.25 1.09 0.66-1.48 1.86-2.68 3.34-3.34zm-3.34 8.68c0.59 0.6 1.38 0.99 2.25 1.09 0.11 0.88 0.49 1.66 1.09 2.25-1.48-0.66-2.68-1.86-3.34-3.34zm8.68 3.34c0.6-0.59 0.99-1.38 1.09-2.25 0.88-0.11 1.66-0.49 2.25-1.09-0.66 1.48-1.86 2.68-3.34 3.34z" style="fill:#9c0000"/>
      <path id="path3724" d="m9 0c-4.96 0-9 4.04-9 9s4.04 9 9 9 9-4.04 9-9-4.04-9-9-9zm0 17c-4.41 0-8-3.59-8-8s3.59-8 8-8 8 3.59 8 8-3.59 8-8 8z" style="fill:#9c0000"/>
     </g>
     <g id="use3898" transform="translate(-74.522,170.23)">
      <path id="path3716" d="m9 1.42c-4.18 0-7.58 3.4-7.58 7.58s3.4 7.58 7.58 7.58 7.58-3.4 7.58-7.58-3.4-7.58-7.58-7.58zm0 13.69c-1.36 0-2.49-0.97-2.75-2.25 0.78 0.56 1.72 0.89 2.75 0.89s1.97-0.34 2.75-0.89c-0.26 1.28-1.39 2.25-2.75 2.25zm0-12.22c1.36 0 2.49 0.97 2.75 2.25-0.78-0.55-1.72-0.89-2.75-0.89s-1.97 0.34-2.75 0.89c0.26-1.28 1.39-2.25 2.75-2.25zm3.75 6.11c0 0.57-0.14 1.11-0.37 1.59-0.34-0.67-0.87-1.22-1.53-1.59 0.66-0.37 1.19-0.92 1.53-1.59 0.23 0.48 0.37 1.02 0.37 1.59zm-7.5 0c0-0.57 0.14-1.11 0.37-1.59 0.34 0.67 0.87 1.22 1.53 1.59-0.66 0.37-1.19 0.92-1.53 1.59-0.23-0.48-0.37-1.02-0.37-1.59zm6.34 2.7c-1.02-0.27-1.82-1.1-2.03-2.14 1.04 0.21 1.87 1.01 2.14 2.03l-0.11 0.11zm-5.29-0.11c0.27-1.02 1.1-1.82 2.15-2.03-0.21 1.04-1.01 1.87-2.03 2.14-0.05-0.04-0.08-0.07-0.12-0.11zm0.11-5.29c1.02 0.27 1.82 1.1 2.03 2.15-1.04-0.22-1.87-1.02-2.14-2.04l0.11-0.11zm5.29 0.11c-0.27 1.02-1.1 1.82-2.14 2.03 0.21-1.05 1.01-1.87 2.03-2.15 0.04 0.05 0.07 0.08 0.11 0.12zm-2.7 0.74c-0.37-0.66-0.92-1.19-1.59-1.53 0.48-0.23 1.02-0.37 1.59-0.37s1.11 0.14 1.59 0.37c-0.67 0.34-1.22 0.87-1.59 1.53zm0 3.7c0.37 0.66 0.92 1.19 1.59 1.53-0.49 0.23-1.02 0.37-1.59 0.37s-1.11-0.14-1.59-0.37c0.67-0.34 1.22-0.87 1.59-1.53zm-3.86 0.9c-1.28-0.26-2.25-1.39-2.25-2.75s0.97-2.49 2.25-2.75c-0.55 0.78-0.89 1.72-0.89 2.75s0.34 1.97 0.89 2.75zm7.72-5.5c1.28 0.26 2.25 1.39 2.25 2.75s-0.97 2.49-2.25 2.75c0.56-0.78 0.89-1.72 0.89-2.75s-0.34-1.97-0.89-2.75zm2.15 0.08c-0.59-0.6-1.38-0.99-2.25-1.09-0.11-0.88-0.49-1.66-1.09-2.25 1.48 0.66 2.68 1.86 3.34 3.34zm-8.68-3.34c-0.6 0.59-0.98 1.38-1.09 2.25-0.88 0.11-1.66 0.49-2.25 1.09 0.66-1.48 1.86-2.68 3.34-3.34zm-3.34 8.68c0.59 0.6 1.38 0.99 2.25 1.09 0.11 0.88 0.49 1.66 1.09 2.25-1.48-0.66-2.68-1.86-3.34-3.34zm8.68 3.34c0.6-0.59 0.99-1.38 1.09-2.25 0.88-0.11 1.66-0.49 2.25-1.09-0.66 1.48-1.86 2.68-3.34 3.34z" style="fill:#2c2c50"/>
      <path id="path3718" d="m9 0c-4.96 0-9 4.04-9 9s4.04 9 9 9 9-4.04 9-9-4.04-9-9-9zm0 17c-4.41 0-8-3.59-8-8s3.59-8 8-8 8 3.59 8 8-3.59 8-8 8z" style="fill:#10106c"/>
     </g>
    </g>
   </g>
  </g>
  <rect id="rect3003" style="opacity:.15;fill:#fff" transform="translate(98 3.8281e-7)" clip-path="url(#clipPath3009)" rx="25" ry="25" height="92" width="92" y="958.36" x="-96"/>
 </g>
</svg>
