<?xml version="1.0" encoding="UTF-8" standalone="no"?>
<!-- Created with Inkscape (http://www.inkscape.org/) -->
<svg id="svg11037" xmlns:rdf="http://www.w3.org/1999/02/22-rdf-syntax-ns#" xmlns="http://www.w3.org/2000/svg" height="96" width="96" version="1.1" xmlns:cc="http://creativecommons.org/ns#" xmlns:xlink="http://www.w3.org/1999/xlink" xmlns:dc="http://purl.org/dc/elements/1.1/">
 <defs id="defs11039">
  <linearGradient id="linearGradient11642" y2="1046.1" gradientUnits="userSpaceOnUse" y1="962.62" gradientTransform="matrix(1.15 0 0 1.15 -7.1999 -150.65)" x2="48" x1="48">
   <stop id="stop3702" style="stop-color:#22193e" offset="0"/>
   <stop id="stop3704" style="stop-color:#9586af" offset="1"/>
  </linearGradient>
  <radialGradient id="radialGradient4004" gradientUnits="userSpaceOnUse" cy="-16.953" cx="64.145" r="60.306">
   <stop id="stop4000" style="stop-color:#fff" offset="0"/>
   <stop id="stop4002" style="stop-color:#fff;stop-opacity:0" offset="1"/>
  </radialGradient>
  <radialGradient id="radialGradient3916" gradientUnits="userSpaceOnUse" cy="-33.923" cx="46.972" gradientTransform="matrix(1.1642 0 0 1.1066 -7.7152 3.6173)" r="60.306">
   <stop id="stop4226-7" style="stop-color:#95d2f8" offset="0"/>
   <stop id="stop4240-8" style="stop-color:#357bb5" offset=".41"/>
   <stop id="stop4228-0" style="stop-color:#13324e" offset="1"/>
  </radialGradient>
  <radialGradient id="radialGradient3926" gradientUnits="userSpaceOnUse" cy="-19.96" cx="65.261" gradientTransform="matrix(1.1373 0 0 1.1082 -5.9284 3.6297)" r="60.306">
   <stop id="stop4465-1" style="stop-opacity:0" offset="0"/>
   <stop id="stop4467-3" style="stop-opacity:0" offset="0.91"/>
   <stop id="stop4469-1" offset="1"/>
  </radialGradient>
  <radialGradient id="radialGradient3146" gradientUnits="userSpaceOnUse" cy="19.781" cx="22.109" gradientTransform="matrix(1.5734 0 0 1.4686 8.6765 12.715)" r="19.19">
   <stop id="stop2314" style="stop-color:#e3ebf3" offset="0"/>
   <stop id="stop2316" style="stop-color:#cedceb;stop-opacity:.13178" offset="1"/>
  </radialGradient>
  <linearGradient id="linearGradient3977" y2="51.68" gradientUnits="userSpaceOnUse" x2="66.658" y1="-77.511" x1="66.658">
   <stop id="stop3739" style="stop-color:#fff" offset="0"/>
   <stop id="stop3741" style="stop-color:#fff;stop-opacity:0" offset="1"/>
  </linearGradient>
  <radialGradient id="radialGradient3093" gradientUnits="userSpaceOnUse" cy="-33.923" cx="46.972" gradientTransform="matrix(.59848 0 0 .56886 11.061 58.574)" r="60.306">
   <stop id="stop4473-6" style="stop-color:#fff" offset="0"/>
   <stop id="stop4544-9" style="stop-color:#f6f6f6" offset=".5"/>
   <stop id="stop4475-9" style="stop-color:#8aa6c6" offset="1"/>
  </radialGradient>
  <clipPath id="clipPath3009" clipPathUnits="userSpaceOnUse">
   <path id="path3011" style="opacity:.15;fill:#fff" d="m-2 956.36h-96v33.562l96 25.687v-59.25z"/>
  </clipPath>
 </defs>
 <metadata id="metadata11042">
  <rdf:RDF>
   <cc:Work rdf:about="">
    <dc:format>image/svg+xml</dc:format>
    <dc:type rdf:resource="http://purl.org/dc/dcmitype/StillImage"/>
    <dc:title/>
   </cc:Work>
  </rdf:RDF>
 </metadata>
 <g id="layer1" transform="translate(0 -956.36)">
  <rect id="rect3867" style="fill:url(#linearGradient11642)" rx="25" ry="25" height="92" width="92" y="958.36" x="2"/>
  <g id="g3156" transform="translate(1.6047e-7 956.36)">
   <path id="path3990" d="m124.45-16.953a60.306 60.306 0 1 1 -120.61 0 60.306 60.306 0 1 1 120.61 0z" style="opacity:.2;color:#000000;fill-rule:evenodd;fill:url(#radialGradient4004)" transform="matrix(.55997 0 0 .15985 12.081 78.349)"/>
   <g id="layer4">
    <g id="g3103">
     <path id="path3253" style="color:#000000;fill-rule:evenodd;fill:url(#radialGradient3916)" transform="matrix(.51404 0 0 .51404 15.027 56.714)" d="m124.45-16.953a60.306 60.306 0 1 1 -120.61 0 60.306 60.306 0 1 1 120.61 0z"/>
     <path id="path4449" style="color:#000000;fill-rule:evenodd;fill:url(#radialGradient3926)" transform="matrix(.51404 0 0 .51404 15.027 56.714)" d="m124.45-16.953a60.306 60.306 0 1 1 -120.61 0 60.306 60.306 0 1 1 120.61 0z"/>
     <path id="path4144" style="opacity:.6;fill:url(#radialGradient3146)" d="m47.975 18.302-3.43 0.39768-4.2254 1.1682-0.79536 0.7705 2.6346 1.8144v1.0439l-1.0439 1.0439 1.367 2.7092 0.91964-0.4971 1.1433-1.8393c1.767-0.54734 3.3661-1.1604 5.0456-1.9387l1.367-3.5046-2.9826-1.1682zm-8.0282 0.42254c-0.75557 0.21365-1.5066 0.45106-2.237 0.72079l-0.02485 0.02485c-0.01449 0.0053-0.03524-0.0054-0.04971 0-1.0082 0.37536-1.9788 0.81582-2.9329 1.2925l1.4913 0.2734 0.57166-0.52196 1.1433-0.24855c0.78358-0.38181 1.5795-0.65022 2.4109-0.91964l-0.372-0.623zm-6.8351 2.9577-0.2237 0.52196 0.09942 1.2925-0.89478 0.7705-0.57166 1.4416h1.1433l0.57166-1.2925c0.49327-0.34949 0.96404-0.7075 1.4664-1.0439l1.1433 0.39768c0.76218 0.5188 1.5239 1.023 2.2867 1.541l1.1682-1.0439-1.2676-0.4971-0.57167-1.1682-2.1872-0.2734-0.09942-0.64623-1.0439 0.24855-0.44739 0.91964-0.57166-1.1682zm29.304 1.0439-2.1872 0.52196-1.367 0.89478v0.7705l-2.1624 1.4416 0.44739 2.063 1.2676-0.89478 0.79536 0.89478 0.91964 0.52196 0.57166-1.541-0.34797-0.91963 0.34797-0.64623 1.2428-1.1682h0.57166l-0.57166 1.2925v1.1682c0.52553-0.1433 1.0778-0.18155 1.6156-0.24855l-1.4913 1.0191-0.12427 0.67109-1.715 1.4167-1.715-0.39768v-1.0191l-0.79536 0.4971 0.34797 0.91963h-1.2676l-0.67109 1.1682-0.86992 0.96934-1.541 0.32312 0.91964 0.91963 0.2237 0.89478h-1.1433l-1.4913 0.79536v2.3115h0.69594l0.62138 0.7208 1.4416-0.7208 0.57167-1.4167 1.0191-0.64623 0.2237-0.52196 1.715-0.39768 0.91964 1.0439 1.0191 0.52196-0.57166 1.1682 0.91964-0.24855 0.47225-1.1682-1.1433-1.3173h0.44739l1.1433 0.91964 0.2237 1.2925 1.0439 1.1682 0.2237-1.6901 0.57166-0.24855c0.5655 0.58817 1.015 1.2767 1.4913 1.9387l1.715 0.12428 1.0191 0.64623-0.44739 0.64623-1.0439 0.91964h-1.4664l-1.9635-0.64623-1.0191 0.12427-0.74565 0.84507-2.1127-2.1375-1.4913-0.39768-2.1624 0.2734-1.9635 0.52195c-1.091 1.2392-2.1488 2.4661-3.1814 3.7531l-1.2676 2.9826 0.57167 0.64623-1.0191 1.5659 1.1433 2.7092c0.97254 1.1022 1.9369 2.2027 2.908 3.3057l1.4167-1.2179 0.64623 0.7208 1.541-0.9942 0.52196 0.59652h1.541l0.86993 0.9942-0.54681 1.7896 1.0936 1.2428-0.04971 2.1375 0.79536 1.541-0.57166 1.3173c-0.05696 0.95438-0.09942 1.8789-0.09942 2.8335 0.46873 1.2932 0.92442 2.5998 1.367 3.9022l0.32311 2.063v1.0439h0.82022l1.2428-0.7705h1.4913l2.237-2.5352-0.29826-0.84508 1.4913-1.2925-1.0936-1.2428 1.3173-1.0936 1.2676-0.7705 0.57166-0.64624-0.34797-1.4416v-3.6288l1.0439-2.2121 1.2428-1.4167 1.367-3.3803v-0.89478c-0.67819 0.08559-1.325 0.15074-1.9884 0.19884l-0.0497 0.0497-0.0497-0.0497c-0.40158 0.02729-0.80497 0.0497-1.2179 0.0497-0.72835-1.5334-1.2846-3.0686-1.8393-4.6727l-0.96934-1.0936-0.4971-1.889 0.32312-0.37283 1.3173 1.4913 1.541 3.3057 0.91964 1.0191-0.44739 1.1682 0.86992 0.9942c0.03272-0.0022 0.06674 0.0024 0.09942 0l1.367-1.367 1.889-1.2925 1.0439-1.1682v-1.3173c-0.22894-0.43257-0.46544-0.85988-0.69595-1.2925l-0.91963 1.0439-0.69594-0.7705-1.0191-0.79536v-1.6653l1.193 1.3422 1.3173-0.17398c0.59917 0.54497 1.1895 1.0448 1.715 1.6653l0.843-0.946c-1.209-7.408-5.127-13.905-10.688-18.467l-0.2237 0.34797-1.1433 1.2925-1.4664-1.541h1.4664l0.62138-0.69594c-0.0513-0.03945-0.09757-0.08514-0.14913-0.12428l-2.5104-0.47224-1.4913-0.52196zm-31.268 0.09942c-0.40441 0.27612-0.77818 0.57501-1.1682 0.86993l-0.17398 0.44739s-0.31346 0.05249-0.54681 0.09942c-6.471 5.204-10.761 13.028-11.259 21.848 0.3107 0.53351 0.69594 1.1433 0.69594 1.1433l2.4109 1.4167 2.3861 0.67108 1.0439 1.2925 1.5907 1.1682 0.91964-0.14913 0.69594 0.32312v0.19884l-0.91964 2.4606-0.69594 1.0439 0.2237 0.52196-0.57166 1.9387 2.063 3.778 2.063 1.8144 0.91964 1.2925-0.12428 2.7341 0.69594 1.541-0.69594 2.9826s-0.01638 0.02201 0.02485 0.19884c0.96136 0.68163 1.9676 1.3214 3.0075 1.889 0.01628 0.0089 0.03341 0.01597 0.0497 0.02488 0.04472 0.021 0.10693 0.05541 0.14913 0.07455 0.36863 0.16733 0.6391 0.26602 0.69594 0.22369 0.22658-0.17246 0.42253-0.32311 0.42253-0.32311l-0.22369-0.64623 0.91964-0.91964 0.34797-0.89478 1.4664-0.52195 1.1433-2.8583-0.32312-0.7705 0.79536-1.1682 1.715-0.39768 0.91964-2.0878-0.2237-2.5849 1.367-1.9387 0.2237-1.9387c-1.88-0.931-3.755-1.896-5.619-2.857l-0.89478-1.8144-1.715-0.39768-0.91964-2.4606-2.2867 0.24855-1.9387-1.4167-2.063 1.8144v0.2734c-0.623-0.18-1.384-0.205-1.939-0.547l-0.47224-1.2925v-1.4167l-1.367 0.12427c0.11455-0.90834 0.23264-1.801 0.34797-2.7092h-0.82022l-0.79536 1.0191-0.79536 0.39768-1.1433-0.64623-0.12428-1.4416 0.24855-1.541 1.715-1.2925h1.367l0.2237-0.79536 1.715 0.39768 1.2676 1.5659 0.2237-2.6098 2.1624-1.8144 0.82022-1.9387 1.5907-0.64623 0.91964-1.2925 2.063-0.39768 1.0191-1.5659c-1.0295-0.000002-2.0525 0-3.082 0l1.9387-0.89478h1.367l1.9387-0.64623 0.24855-0.79536-0.69594-0.64623-0.79536-0.24855 0.2237-0.7705-0.57167-1.1682-1.367 0.4971 0.22369-1.0191-1.5907-0.91964-1.2676 2.2121 0.12428 0.7705-1.2676 0.52196-0.79536 1.6901-0.34797-1.5659-2.1624-0.89478-0.34797-1.1682 2.8583-1.6901 1.2428-1.1682 0.12428-1.4167-0.69594-0.39768-0.12428-0.02485zm19.909 1.5907-0.89478 0.4971-0.47225-0.12428-0.09942 0.79536 0.79536 0.4971 1.367-0.89478-0.69594-0.77051zm-15.087 0.24855-0.91964 0.64623 1.1433 0.77051h0.91964v-0.89478l-1.1433-0.52196zm18.07 2.9826v0.7705l0.47225 0.52196v1.1682l-0.24855 1.5659 1.2676-0.2734 0.91964-0.89478-0.79536-0.77051c-0.2689-0.71744-0.58308-1.3997-0.91964-2.0878h-0.69594zm-0.44739 1.5659-0.82022 0.24855 0.24855 1.4167 1.0191-0.4971-0.44739-1.1682zm-15.783 2.3364 0.32312 1.8144 0.69594-1.0439-1.0191-0.7705z"/>
     <path id="path3983" style="opacity:.1" d="m47.906 17.75-3.4375 0.375a0.56475 0.56475 0 0 0 -0.093 0.031l-3.5312 1a0.56475 0.56475 0 0 0 -0.0625 -0.09375l-0.375-0.625a0.56475 0.56475 0 0 0 -0.625 -0.25c-0.76806 0.21718-1.5046 0.44346-2.25 0.71875a0.56475 0.56475 0 0 0 -0.032 0.032 0.56475 0.56475 0 0 0 -0.03125 0c-0.02275 0.007-0.0032-0.01047-0.03125 0a0.56475 0.56475 0 0 0 -0.03125 0.03125c-1.015 0.379-2.011 0.802-2.969 1.281a0.56475 0.56475 0 0 0 0.03125 1.0312l-0.469 0.094a0.56475 0.56475 0 0 0 -0.3125 0.21875l-0.063-0.156a0.56475 0.56475 0 0 0 -1 0l-0.25 0.53125a0.56475 0.56475 0 0 0 -0.0625 0.3125l0.0625 0.5625a0.56475 0.56475 0 0 0 -0.124 -0.094l-0.6875-0.40625a0.56475 0.56475 0 0 0 -0.15625 -0.0625l-0.125-0.032a0.56475 0.56475 0 0 0 -0.4375 0.09375c-0.423 0.289-0.832 0.614-1.219 0.906a0.56475 0.56475 0 0 0 -0.1875 0.25l-0.0625 0.15625c-0.10478 0.01693-0.13991 0.0091-0.25 0.03125a0.56475 0.56475 0 0 0 -0.21875 0.125c-6.592 5.301-10.962 13.268-11.469 22.25a0.56475 0.56475 0 0 0 0.062 0.313c0.31928 0.54824 0.71875 1.1562 0.71875 1.1562a0.56475 0.56475 0 0 0 0.1875 0.1875l2.4062 1.4375a0.56475 0.56475 0 0 0 0.125 0.03125l2.25 0.625 0.90625 1.1562a0.56475 0.56475 0 0 0 0.09375 0.125l1.594 1.157a0.56475 0.56475 0 0 0 0.4375 0.09375l0.782-0.125 0.09375 0.0625-0.75 2.0312-0.0625 0.125-0.625 0.90625a0.56475 0.56475 0 0 0 -0.0625 0.53125l0.15625 0.375-0.5 1.7188a0.56475 0.56475 0 0 0 0.03125 0.4375l2.0625 3.7812a0.56475 0.56475 0 0 0 0.125 0.15625l2.0625 1.8125 0.71875 1-0.125 2.5625a0.56475 0.56475 0 0 0 0.063 0.282l0.625 1.3125-0.6875 2.8125s0.0015 0.08972 0 0.125-0.0029 0.0583 0 0.09375c0.0058 0.07091 0.0061 0.14216 0.03125 0.25a0.56475 0.56475 0 0 0 0.25 0.34375c0.97887 0.69404 1.9717 1.3279 3.0312 1.9062 0.06193 0.03386 0.09195 0.04735 0.0625 0.03125a0.56475 0.56475 0 0 0 0.03125 0c0.10838 0.05089 0.20651 0.07112 0.1875 0.0625 0.18198 0.08261 0.32246 0.16098 0.46875 0.21875 0.07315 0.02889 0.15638 0.07327 0.25 0.09375 0.09361 0.02048 0.24357 0.08923 0.53125-0.125 0.23557-0.1793 0.4375-0.34375 0.4375-0.34375a0.56475 0.56475 0 0 0 0.187 -0.656l-0.094-0.281 0.656-0.656a0.56475 0.56475 0 0 0 0.125 -0.21875l0.25-0.65625 1.2188-0.40625a0.56475 0.56475 0 0 0 0.34375 -0.3125l1.156-2.875a0.56475 0.56475 0 0 0 -0.031 -0.469l-0.188-0.438 0.469-0.718 1.531-0.344a0.56475 0.56475 0 0 0 0.407 -0.344l0.906-2.094a0.56475 0.56475 0 0 0 0.031 -0.281l-0.1875-2.375 1.25-1.7812a0.56475 0.56475 0 0 0 0.09375 -0.25l0.218-1.937a0.56475 0.56475 0 0 0 -0.312 -0.563c-1.8173-0.9029-3.6563-1.8466-5.4688-2.7812l-0.8125-1.6562a0.56475 0.56475 0 0 0 -0.375 -0.3125l-1.4375-0.3125-0.78125-2.1562a0.56475 0.56475 0 0 0 -0.59375 -0.375l-2.03 0.218-1.782-1.281a0.56475 0.56475 0 0 0 -0.718 0.031l-2.063 1.812c-0.426-0.086-0.866-0.161-1.125-0.281l-0.34375-0.96875v-1.3125a0.56475 0.56475 0 0 0 -0.625 -0.5625l-0.656 0.062c0.08538-0.67655 0.1639-1.3532 0.25-2.0312a0.56475 0.56475 0 0 0 -0.5625 -0.625h-0.8125a0.56475 0.56475 0 0 0 -0.4375 0.21875l-0.71875 0.9375-0.40625 0.1875-0.65625-0.34375-0.09375-1v-0.0625l0.21875-1.2812 1.375-1.0312h1.1875a0.56475 0.56475 0 0 0 0.532 -0.407l0.0625-0.25 1.0625 0.25 1.0938 1.375a0.56475 0.56475 0 0 0 1 -0.28125l0.21875-2.375 2-1.6875a0.56475 0.56475 0 0 0 0.156 -0.219l0.71875-1.7188 1.375-0.5625a0.56475 0.56475 0 0 0 0.25 -0.21875l0.75-1.0625 1.8438-0.375a0.56475 0.56475 0 0 0 0.375 -0.25l1.031-1.563a0.56475 0.56475 0 0 0 -0.03125 -0.65625 0.56475 0.56475 0 0 0 0 -0.03125l0.875-0.28125 0.28125 1.5625a0.56475 0.56475 0 0 0 1.0312 0.21875l0.718-1.063a0.56475 0.56475 0 0 0 -0.125 -0.78125l-0.625-0.469a0.56475 0.56475 0 0 0 0.09375 -0.1875l0.25-0.8125a0.56475 0.56475 0 0 0 -0.156 -0.564l-0.6875-0.625a0.56475 0.56475 0 0 0 -0.21875 -0.125l-0.25-0.09375 0.0625-0.21875a0.56475 0.56475 0 0 0 -0.031 -0.438l-0.594-1.156a0.56475 0.56475 0 0 0 -0.687 -0.281l-0.375 0.125a0.56475 0.56475 0 0 0 -0.0625 -0.40625 0.56475 0.56475 0 0 0 0.28125 0.0625h0.9375a0.56475 0.56475 0 0 0 0.5625 -0.5625v-0.40625c0.04301 0.02909 0.08198 0.06454 0.125 0.09375a0.56475 0.56475 0 0 0 0.687 -0.032l1.1875-1.0312a0.56475 0.56475 0 0 0 -0.157 -0.969l-1.093-0.438-0.469-0.968a0.56475 0.56475 0 0 0 -0.4375 -0.3125l-1.75-0.1875-0.03125-0.25a0.56475 0.56475 0 0 0 -0.03125 -0.0625l0.375 0.0625a0.56475 0.56475 0 0 0 0.467 -0.156l0.438-0.407 1.031-0.219a0.56475 0.56475 0 0 0 0.125 -0.0625c0.266-0.129 0.57-0.206 0.844-0.312a0.56475 0.56475 0 0 0 0.21875 0.65625l2.375 1.625v0.53125l-0.875 0.875a0.56475 0.56475 0 0 0 -0.094 0.656l1.344 2.719a0.56475 0.56475 0 0 0 0.781 0.25l0.9375-0.5a0.56475 0.56475 0 0 0 0.1875 -0.21875l1.0312-1.6875c1.699-0.53568 3.3084-1.1201 4.9375-1.875a0.56475 0.56475 0 0 0 0.281 -0.281l1.375-3.5a0.56475 0.56475 0 0 0 -0.34375 -0.75l-3-1.1562a0.56475 0.56475 0 0 0 -0.25 -0.03125zm0.0625 0.5625 3 1.1562-1.375 3.5c-1.6795 0.77829-3.2955 1.3902-5.0625 1.9375l-1.125 1.8438-0.9375 0.5-1.343-2.719 1.031-1.031v-1.0625l-2.625-1.8125 0.78125-0.75 4.2188-1.1875 3.4375-0.375zm-8.0312 0.40625 0.375 0.625c-0.831 0.27-1.622 0.525-2.406 0.907l-1.156 0.25-0.562 0.531-1.5-0.281c0.95408-0.47664 1.9293-0.90589 2.9375-1.2812 0.01447-0.0054 0.04801 0.0053 0.0625 0l0.03125-0.03125c0.73033-0.26974 1.4632-0.5051 2.2188-0.71875zm-6.8125 2.9688 0.5625 1.1562 0.4375-0.90625 1.0625-0.25 0.09375 0.65625 2.1875 0.25 0.5625 1.1875 1.2812 0.5-1.1875 1.0312c-0.762-0.517-1.518-1.011-2.28-1.53l-1.156-0.406c-0.5024 0.33641-0.94423 0.68176-1.4375 1.0312l-0.59375 1.3125h-1.125l0.5625-1.4375 0.906-0.781-0.125-1.281 0.25-0.531zm29.156 0.46875-2.1875 0.53125a0.56475 0.56475 0 0 0 -0.1875 0.09375l-1.342 0.907a0.56475 0.56475 0 0 0 -0.25 0.46875v0.4375l-1.9375 1.2812a0.56475 0.56475 0 0 0 -0.25 0.59375l0.46875 2.0625a0.56475 0.56475 0 0 0 0.5625 0.4375 0.56475 0.56475 0 0 0 0.03125 0.28125l0.0625 0.15625h-0.4375a0.56475 0.56475 0 0 0 -0.437 0.218l-0.25-0.21875c-0.26043-0.67933-0.55607-1.3479-0.875-2a0.56475 0.56475 0 0 0 -0.5 -0.3125h-0.71875a0.56475 0.56475 0 0 0 -0.5625 0.5625v0.75a0.56475 0.56475 0 0 0 0.03125 0.25 0.56475 0.56475 0 0 0 -0.0625 0.03125l-0.8125 0.25a0.56475 0.56475 0 0 0 -0.40625 0.625l0.25 1.4062a0.56475 0.56475 0 0 0 0.8125 0.40625l0.46875-0.25-0.0625 0.46875a0.56475 0.56475 0 0 0 0.03125 0.25l-0.125 0.03125a0.56475 0.56475 0 0 0 -0.28125 0.96875l0.8125 0.84375h-0.40625a0.56475 0.56475 0 0 0 -0.279 0.063l-1.5 0.8125a0.56475 0.56475 0 0 0 -0.28125 0.5v2.3125a0.56475 0.56475 0 0 0 0.5625 0.5625h0.40625l0.4375 0.5c-1.0567 1.2013-2.0848 2.3988-3.0938 3.6562a0.56475 0.56475 0 0 0 -0.09375 0.125l-1.25 2.9688a0.56475 0.56475 0 0 0 0.09375 0.59375l0.28 0.345-0.781 1.187a0.56475 0.56475 0 0 0 -0.0625 0.53125l1.1562 2.7188a0.56475 0.56475 0 0 0 0.09375 0.15625c0.97072 1.1002 1.9336 2.2077 2.9062 3.3125a0.56475 0.56475 0 0 0 0.8125 0.0625l1-0.875 0.28125 0.3125a0.56475 0.56475 0 0 0 0.72 0.095l1.125-0.75 0.21875 0.25a0.56475 0.56475 0 0 0 0.40625 0.1875h1.25l0.53125 0.59375-0.4375 1.4688a0.56475 0.56475 0 0 0 0.09375 0.53125l0.968 1.094-0.0625 1.875a0.56475 0.56475 0 0 0 0.0625 0.28125l0.65625 1.3125-0.46875 1.0938a0.56475 0.56475 0 0 0 -0.03 0.188c-0.05736 0.9611-0.09375 1.8747-0.09375 2.8438a0.56475 0.56475 0 0 0 0.03125 0.1875c0.45657 1.2596 0.9122 2.5451 1.3438 3.8125 0.01055 0.03098 0.02073 0.06278 0.03125 0.09375l0.28125 1.875v0.09375 0.96875a0.56475 0.56475 0 0 0 0.5625 0.5625h0.8125a0.56475 0.56475 0 0 0 0.3125 -0.09375l1.0938-0.6875h1.3438a0.56475 0.56475 0 0 0 0.4375 -0.1875l2.218-2.53a0.56475 0.56475 0 0 0 0.094 -0.563l-0.156-0.469 1.219-1.031a0.56475 0.56475 0 0 0 0.0625 -0.8125l-0.72-0.812 0.8125-0.6875 0.0625-0.03125 1.1875-0.75a0.56475 0.56475 0 0 0 0.0937 -0.09375l0.59375-0.65625a0.56475 0.56475 0 0 0 0.125 -0.53125l-0.34375-1.2812v-0.03125-3.4688l0.9375-1.9688 1.25-1.4062a0.56475 0.56475 0 0 0 0.0937 -0.15625l1.3438-3.375a0.56475 0.56475 0 0 0 0.031 -0.219v-0.90625a0.56475 0.56475 0 0 0 -0.625 -0.563c-0.13145 0.01659-0.24775 0.01511-0.375 0.03125l0.21875-0.21875 1.8125-1.2188a0.56475 0.56475 0 0 0 0.125 -0.09375l1.0312-1.1875a0.56475 0.56475 0 0 0 0.125 -0.375v-1.3125a0.56475 0.56475 0 0 0 -0.0312 -0.21875 0.56475 0.56475 0 0 0 0.78125 -0.0625l0.84375-0.9375a0.56475 0.56475 0 0 0 0.156 -0.468c-1.232-7.547-5.242-14.166-10.906-18.812a0.56475 0.56475 0 0 0 -0.53125 -0.09375 0.56475 0.56475 0 0 0 -0.21875 -0.5c-0.031-0.024-0.083-0.069-0.156-0.125a0.56475 0.56475 0 0 0 -0.25 -0.125l-2.406-0.437-0.094-0.031-1.4062-0.5a0.56475 0.56475 0 0 0 -0.3125 -0.03125zm0.125 0.5625 1.5 0.53125 2.5 0.46875c0.05153 0.03914 0.10495 0.08555 0.15625 0.125l-0.625 0.6875h-1.4688l1.4688 1.5625 1.1562-1.3125 0.21875-0.34375c5.562 4.562 9.48 11.061 10.689 18.469l-0.84375 0.9375c-0.525-0.621-1.119-1.112-1.718-1.656l-1.3125 0.1875-1.1875-1.3438v1.6562l1 0.78125 0.71875 0.78125 0.90625-1.0312c0.23051 0.43257 0.45855 0.84868 0.6875 1.2812v1.3125l-1.0312 1.1875-1.9062 1.2812-1.3438 1.375c0.66343-0.0481 1.2906-0.13316 1.9688-0.21875v0.90625l-1.3438 3.375-1.25 1.4062-1.0625 2.2188v3.625l0.375 1.4375-0.59375 0.65625-1.25 0.78125-1.3125 1.0938 1.0938 1.25-1.5 1.2812 0.28125 0.84375-2.2188 2.5312h-1.5l-1.25 0.78125h-0.8125v-1.0625l-0.3125-2.0625c-0.44261-1.3024-0.90627-2.6131-1.375-3.9062 0-0.95453 0.03679-1.8581 0.09375-2.8125l0.5625-1.3125-0.78125-1.5625 0.0625-2.125-1.0938-1.25 0.53125-1.7812-0.875-1h-1.5312l-0.53125-0.59375-1.5312 1-0.658-0.717-1.406 1.218c-0.97113-1.103-1.9337-2.2103-2.9062-3.3125l-1.156-2.719 1.0312-1.5625-0.5625-0.65625 1.25-2.9688c1.0327-1.287 2.0965-2.5108 3.1875-3.75l1.9688-0.53125 2.1562-0.28125 1.5 0.40625 2.0938 2.1562 0.75-0.875 1.0312-0.09375 1.9688 0.625h1.4688l1.03-0.905 0.438-0.657-1-0.656-1.719-0.125c-0.47628-0.66195-0.9345-1.3493-1.5-1.9375l-0.5625 0.25-0.218 1.688-1.062-1.156-0.219-1.282-1.157-0.937h-0.4375l1.1562 1.3125-0.46875 1.1875-0.9375 0.25 0.5625-1.1875-1-0.5-0.9375-1.0625-1.6875 0.40625-0.25 0.53125-1 0.625-0.59375 1.4375-1.4375 0.71875-0.625-0.71875h-0.6875v-2.3125l1.5-0.8125h1.1562l-0.25-0.875-0.90625-0.9375 1.5312-0.3125 0.875-0.96875 0.6875-1.1875h1.25l-0.34375-0.90625 0.78125-0.5v1.0312l1.7188 0.375 1.7188-1.4062 0.125-0.65625 1.5-1.0312c-0.53781 0.067-1.0995 0.1067-1.625 0.25v-1.1562l0.5625-1.3125h-0.5625l-1.25 1.1875-0.34375 0.625 0.34375 0.9375-0.5625 1.5312-0.90625-0.53125-0.8125-0.875-1.25 0.875-0.46875-2.0625 2.1875-1.4375v-0.75l1.3438-0.90625 2.1875-0.53125zm9.5625 26.938c-0.0327 0.0024-0.061-0.0022-0.0937 0l0.0312 0.03125 0.0625-0.03125zm-0.0937 0-0.875-1 0.4375-1.1875-0.90625-1-1.5625-3.3125-1.3125-1.5-0.3125 0.375 0.5 1.9062 0.96875 1.0938c0.55464 1.6042 1.1154 3.1229 1.8438 4.6562 0.41292 0 0.81717-0.004 1.2188-0.03125zm-40.719-26.844 0.125 0.03125 0.6875 0.40625-0.125 1.4062-1.25 1.1875-2.8438 1.6875 0.34375 1.1562 2.1562 0.90625 0.34375 1.5625 0.8125-1.6875 1.25-0.53125-0.125-0.78125 1.2812-2.1875 1.5938 0.90625-0.21875 1.0312 1.3438-0.5 0.59375 1.1562-0.25 0.78125 0.8125 0.25 0.6875 0.625-0.25 0.8125-1.9375 0.65625h-1.375l-1.9375 0.875h3.0938l-1.0312 1.5625-2.0625 0.40625-0.90625 1.2812-1.5938 0.65625-0.8125 1.9375-2.1562 1.8125-0.25 2.625-1.25-1.5625-1.7188-0.40625-0.21875 0.78125h-1.375l-1.7188 1.3125-0.25 1.5312 0.125 1.4375 1.1562 0.65625 0.78125-0.40625 0.8125-1.0312h0.8125c-0.11533 0.90818-0.2292 1.8104-0.34375 2.7188l1.375-0.125v1.4062l0.46875 1.3125c0.555 0.347 1.315 0.356 1.938 0.536v-0.25l2.0625-1.8125 1.9375 1.4062 2.2812-0.25 0.90625 2.4688 1.7188 0.375 0.90625 1.8125c1.8637 0.96052 3.7473 1.9421 5.625 2.875l-0.21875 1.9375-1.375 1.9375 0.21875 2.5938-0.90625 2.0938-1.7188 0.375-0.8125 1.1875 0.34375 0.75-1.1562 2.875-1.4688 0.5-0.34375 0.90625-0.9375 0.9375 0.25 0.625s-0.21092 0.17129-0.4375 0.34375c-0.05684 0.04233-0.31887-0.08267-0.6875-0.25-0.0422-0.01914-0.11153-0.0415-0.15625-0.0625-0.01629-0.0089-0.04622-0.02235-0.0625-0.03125-1.0398-0.56756-2.0386-1.1934-3-1.875-0.04-0.177-0.03-0.219-0.03-0.219l0.718-2.969-0.718-1.531 0.124-2.75-0.906-1.281-2.062-1.813-2.063-3.781 0.563-1.937-0.219-0.532 0.687-1.031 0.938-2.469v-0.1875l-0.688-0.343-0.937 0.156-1.594-1.156-1.031-1.313-2.406-0.656-2.406-1.437s-0.3768-0.59149-0.6875-1.125c0.49794-8.8195 4.7789-16.64 11.25-21.844 0.23336-0.04693 0.5625-0.09375 0.5625-0.09375l0.15625-0.46875c0.39-0.29491 0.78309-0.59888 1.1875-0.875zm19.781 1.0312a0.56475 0.56475 0 0 0 -0.15625 0.0625l-0.718 0.406-0.218-0.062a0.56475 0.56475 0 0 0 -0.719 0.469l-0.09375 0.8125a0.56475 0.56475 0 0 0 0.25 0.53125l0.78125 0.5a0.56475 0.56475 0 0 0 0.625 0l1.375-0.90625a0.56475 0.56475 0 0 0 0.125 -0.84375l-0.687-0.782a0.56475 0.56475 0 0 0 -0.5625 -0.1875zm-16.155 0.157l0.75 0.25-0.8125 0.59375a0.56475 0.56475 0 0 0 0.03125 0.9375l0.46875 0.34375-1.125-0.65625a0.56475 0.56475 0 0 0 -0.781 0.218l-0.15625 0.25 0.53125-1.1562c0.377-0.271 0.737-0.533 1.094-0.782zm16.281 0.40625 0.6875 0.78125-1.375 0.90625-0.78125-0.5 0.09375-0.8125 0.46875 0.125 0.90625-0.5zm-15.094 0.25 1.1562 0.53125v0.90625h-0.9375l-1.125-0.78125 0.90625-0.65625zm29.781 0.4375h0.1875a0.56475 0.56475 0 0 0 0.125 0l-0.155 0.156-0.156-0.156zm-34.625 1a0.56475 0.56475 0 0 0 0.40625 0.1875h1.125a0.56475 0.56475 0 0 0 0.375 -0.125l-1 1.7188a0.56475 0.56475 0 0 0 -0.0625 0.375l0.0625 0.34375-0.84375 0.34375a0.56475 0.56475 0 0 0 -0.28125 0.28125l-0.094 0.219a0.56475 0.56475 0 0 0 -0.34375 -0.375l-1.937-0.813-0.125-0.438 2.469-1.468a0.56475 0.56475 0 0 0 0.094 -0.094l0.156-0.156zm30.094 1.5h0.375a0.56475 0.56475 0 0 0 -0.093 0.218l-0.09375 0.46875-0.625 0.5 0.4375-1.1875zm-7.1875 0.0625h0.71875c0.33656 0.68811 0.63735 1.3763 0.90625 2.0938l0.78125 0.75-0.90625 0.90625-1.2812 0.28125 0.25-1.5938v-1.1562l-0.46875-0.53125v-0.75zm5.0312 1.3125 0.40625 0.25-0.40625-0.09375v-0.15625zm-5.4688 0.25 0.4375 1.1562-1 0.5-0.25-1.4062 0.8125-0.25zm-15.781 2.3438 1.0312 0.75-0.71875 1.0625-0.3125-1.8125zm20.5 3.4688l0.689 0.781a0.56475 0.56475 0 0 0 0.1875 0.125l0.5 0.25-0.3125 0.6875a0.56475 0.56475 0 0 0 0.65625 0.78125l0.9375-0.25a0.56475 0.56475 0 0 0 0.375 -0.3125l0.09375-0.25a0.56475 0.56475 0 0 0 0.09375 0.125l1.0625 1.1562a0.56475 0.56475 0 0 0 0.96875 -0.3125l0.15625-1.1562c0.37503 0.45224 0.72354 0.92297 1.0938 1.4375a0.56475 0.56475 0 0 0 0.435 0.22l1.5625 0.125 0.40625 0.25-0.03125 0.0625-0.03125 0.03125-0.84375 0.75h-1.1875-0.0625l-1.813-0.593a0.56475 0.56475 0 0 0 -0.219 -0.032l-1.031 0.094a0.56475 0.56475 0 0 0 -0.375 0.1875l-0.344 0.406-1.656-1.719a0.56475 0.56475 0 0 0 -0.25 -0.125l-1.5-0.40625a0.56475 0.56475 0 0 0 -0.219 -0.032l-2.156 0.282 0.531-1.282 0.844-0.531a0.56475 0.56475 0 0 0 0.1875 -0.21875l0.125-0.28125 1.125-0.25zm16.875 7.7812a0.56475 0.56475 0 0 0 -0.0625 0.03125l-0.5 0.5625-0.28125-0.3125a0.56475 0.56475 0 0 0 -0.0625 -0.0625l-0.125-0.09375a0.56475 0.56475 0 0 0 0.0625 0l0.96875-0.125zm-6.9688 0.34375 0.3125 0.375 0.3125 0.65625-0.5-0.5625-0.125-0.46875zm1.9062 3.6875 0.65625 0.75-0.15625 0.46875c-0.16873-0.40264-0.34437-0.81055-0.5-1.2188z"/>
     <path id="path3897" style="opacity:.6;color:#000000;fill-rule:evenodd;fill:url(#linearGradient3977)" transform="matrix(.36244 0 0 .24820 24.752 37.115)" d="m124.45-16.953a60.306 60.306 0 1 1 -120.61 0 60.306 60.306 0 1 1 120.61 0z"/>
     <path id="path4540" style="color:#000000;fill-rule:evenodd;fill:url(#radialGradient3093)" d="m48 18.292c-3.7043 0-7.2397 0.69708-10.511 1.9375 9.0048 0.15798 14.087 1.0932 18.697 3.6167 0.38419 0.21029 0.76684 0.42918 1.1464 0.66198 1.1386 0.69841 2.2709 1.5041 3.4391 2.4219 5.0348 3.956 5.4755 8.7701 9.7521 12.448 2.6036 2.2394 2.2512 2.0505 3.4552 2.0505 1.3177 0 1.9885-1.191 2.3089-2.4865-3.835-11.972-15.049-20.65-28.288-20.65zm-11.916 5.4573c-0.6296 0-1.257 0.06786-1.8729 0.19375-0.20529 0.04196-0.41022 0.09084-0.61354 0.14531-5.6929 1.5251-10.564 7.8055-12.158 10.689-0.10136 0.18339-0.21624 0.39895-0.32292 0.5974-0.84614 1.7966-1.5275 3.6797-2.0021 5.651 0.45582-0.5832 0.89943-1.1306 1.3401-1.6469 3.0847-3.614 5.9077-5.5703 9.962-5.5703 7.2342 0 8.1533 3.223 21.409 11.867 6.5241 4.2543 16.424 10.121 24.59 10.995 0.33498-1.0983 0.60033-2.2263 0.80729-3.3745-3.0551-0.22056-5.8073-1.3851-8.7833-3.3583-0.425-0.281-0.855-0.573-1.291-0.888-3.486-2.518-7.36-6.078-12.4-10.494-3.838-3.363-13.49-14.806-18.665-14.806zm-10.365 33.922c-2.2938 0-4.0053 1.1626-4.1979 3.7781 3.2156 6.313 8.6161 11.322 15.209 14.031-0.0874-0.12228-0.17036-0.2511-0.25833-0.3875-0.6158-0.95481-1.2109-2.2462-1.2109-3.7297 0-1.7259 1.1161-2.4057 2.3734-2.4057 1.6745 0 7.2017 2.6318 16.453 2.6318 4.6271 0 10.4-0.6778 14.628-2.3089 1.67-1.626 3.1394-3.4465 4.3917-5.425-2.7026 1.0956-7.7002 2.6802-14.208 2.6802-12.573 0-24.038-5.3665-27.351-7.088-0.87868-0.45665-3.131-1.776-5.8286-1.776z"/>
     <path id="path3870" style="opacity:.6;color:#000000;fill-rule:evenodd;fill:#fff" d="m48 18.284c-3.7043 0-7.25 0.701-10.521 1.9414 1.0055 0.01764 1.9683 0.05579 2.8808 0.09394 2.4367-0.65404 4.9971-1.0333 7.6404-1.0333 13.055-0.000001 24.137 8.4516 28.119 20.166 0.05544-0.16545 0.11412-0.32937 0.15657-0.50101-3.834-11.972-15.036-20.667-28.276-20.667zm-11.93 5.4798c-0.6296 0-1.2316 0.06198-1.8475 0.18788-0.20529 0.04196-0.42294 0.07078-0.62626 0.12525-5.6929 1.5251-10.556 7.826-12.149 10.709-0.10136 0.1834-0.23777 0.3965-0.34444 0.59495-0.84614 1.7966-1.4981 3.665-1.9727 5.6364 0.12569-0.16081 0.25173-0.28292 0.37576-0.43838 0.0028-0.0095-0.0028-0.02185 0-0.03131 0.43012-1.4354 0.96652-2.826 1.597-4.1646 0.10667-0.19844 0.24308-0.41155 0.34444-0.59495 1.5935-2.8831 6.4565-9.184 12.149-10.709 0.20332-0.05447 0.42097-0.08329 0.62626-0.12525 0.61588-0.12589 1.2179-0.18788 1.8475-0.18788 5.1751 0.000001 14.856 11.417 18.694 14.78 5.0401 4.4162 8.9142 8.003 12.4 10.521 0.43573 0.31478 0.85868 0.59488 1.2838 0.87677 2.9137 1.9318 5.6009 3.0646 8.5798 3.3192 0.06776-0.31976 0.12962-0.64754 0.18788-0.97071-3.0551-0.22056-5.7916-1.3773-8.7677-3.3505-0.425-0.282-0.848-0.563-1.284-0.877-3.486-2.519-7.36-6.105-12.4-10.522-3.838-3.362-13.519-14.779-18.694-14.779zm-10.365 33.912c-2.2938 0-4.0034 1.1734-4.196 3.7889 0.04272 0.08386 0.08177 0.1671 0.12525 0.2505 0.4383-2.095 2.0063-3.0374 4.0707-3.0374 2.6977 0 4.9769 1.3282 5.8555 1.7848 3.3126 1.7215 14.764 7.0768 27.336 7.0768 5.8745-0.000001 10.503-1.2913 13.339-2.3485 0.30766-0.43395 0.59145-0.89567 0.87677-1.3465-2.7026 1.0956-7.7081 2.6929-14.216 2.6929-12.573 0-24.024-5.3552-27.336-7.0768-0.87869-0.45665-3.1579-1.7848-5.8555-1.7848zm9.5818 14.31c-0.01337 0.12314-0.03131 0.23981-0.03131 0.37576 0 1.0471 0.29792 1.982 0.68889 2.7869 0.26064 0.11604 0.51828 0.23575 0.78283 0.34444-0.0874-0.12228-0.16253-0.27067-0.2505-0.40707-0.52936-0.82077-1.056-1.8736-1.1899-3.1z"/>
     <path id="path3888" style="opacity:.3;color:#000000;fill-rule:evenodd" d="m40.36 20.319c-0.97804 0.26252-1.9439 0.5528-2.8808 0.90808 9.0048 0.15798 14.084 1.1088 18.694 3.6323 0.38419 0.21029 0.77907 0.42477 1.1586 0.65758 1.1386 0.69841 2.2763 1.4933 3.4444 2.4111 5.0348 3.956 5.4618 8.7843 9.7384 12.463 2.6036 2.2394 2.2718 2.0354 3.4758 2.0354 1.3177 0 1.9655-1.1783 2.2859-2.4737-0.05334-0.16653-0.10039-0.33577-0.15657-0.50101-0.36298 1.0832-0.98618 1.9727-2.1293 1.9727-1.204-0.000001-0.87214 0.20405-3.4758-2.0354-4.276-3.678-4.703-8.507-9.738-12.463-1.168-0.917-2.306-1.712-3.444-2.411-0.38-0.233-0.775-0.447-1.159-0.657-4.095-2.242-8.554-3.235-15.813-3.539zm-9.9576 13.496c-4.0543 0.000001-6.8729 1.9598-9.9576 5.5737-0.31403 0.36792-0.61902 0.75737-0.93939 1.1586-0.0028 0.0094 0.0028 0.02184 0 0.03131-0.14384 0.48183-0.2571 0.94756-0.37576 1.4404 0.45583-0.5832 0.87448-1.112 1.3152-1.6283 3.0847-3.614 5.9032-5.5737 9.9576-5.5737 7.2342 0 8.1621 3.2235 21.418 11.868 6.5241 4.2543 16.415 10.117 24.581 10.991 0.33498-1.0983 0.60718-2.2337 0.81414-3.3818-0.06404-0.0046-0.1241-0.02586-0.18788-0.03131-0.17297 0.81629-0.38557 1.6219-0.62626 2.4111-8.166-0.874-18.056-6.737-24.581-10.991-13.256-8.644-14.183-11.868-21.418-11.868zm42.711 31.031c-0.2631 0.10666-0.57088 0.23043-0.87677 0.34444-1.0427 1.4707-2.2176 2.8465-3.5071 4.102-4.2282 1.6311-10.027 2.2859-14.655 2.2859-9.2509 0-14.765-2.6303-16.439-2.6303-1.2573 0-2.3798 0.68522-2.3798 2.4111 0 0.18544 0.01384 0.38448 0.03131 0.56364 0.17862-1.3959 1.2066-1.9727 2.3485-1.9727 1.6745 0 7.1885 2.6303 16.439 2.6303 4.6271 0 10.426-0.6548 14.655-2.2859 1.67-1.626 3.1316-3.4699 4.3838-5.4485z"/>
    </g>
   </g>
  </g>
  <rect id="rect3003" style="opacity:.15;fill:#fff" transform="translate(98 3.8281e-7)" clip-path="url(#clipPath3009)" rx="25" ry="25" height="92" width="92" y="958.36" x="-96"/>
 </g>
</svg>
