<?xml version="1.0" encoding="UTF-8" standalone="no"?>
<!-- Created with Inkscape (http://www.inkscape.org/) -->
<svg id="svg11037" xmlns:rdf="http://www.w3.org/1999/02/22-rdf-syntax-ns#" xmlns="http://www.w3.org/2000/svg" height="96" width="96" version="1.1" xmlns:cc="http://creativecommons.org/ns#" xmlns:xlink="http://www.w3.org/1999/xlink" xmlns:dc="http://purl.org/dc/elements/1.1/">
 <defs id="defs11039">
  <linearGradient id="linearGradient11642" y2="1046.1" gradientUnits="userSpaceOnUse" y1="962.62" gradientTransform="matrix(1.15 0 0 1.15 -7.1999 -150.65)" x2="48" x1="48">
   <stop id="stop3189" style="stop-color:#bd9c5b" offset="0"/>
   <stop id="stop3191" style="stop-color:#fadd96" offset="1"/>
  </linearGradient>
  <linearGradient id="linearGradient3599">
   <stop id="stop3601" style="stop-opacity:.41961" offset="0"/>
   <stop id="stop3603" style="stop-color:#98713b;stop-opacity:0" offset="1"/>
  </linearGradient>
  <linearGradient id="linearGradient3707" y2="82.75" xlink:href="#linearGradient3599" gradientUnits="userSpaceOnUse" x2="49" gradientTransform="matrix(.38570 .79852 .88419 -.16515 -36.613 11.166)" y1="96.263" x1="62.75"/>
  <linearGradient id="linearGradient4117" y2="117.1" xlink:href="#linearGradient3599" gradientUnits="userSpaceOnUse" x2="83.324" gradientTransform="matrix(.76699 0 0 .76699 -.81451 -3.7393)" y1="62.345" x1="66.3"/>
  <linearGradient id="linearGradient4119" y2="68.389" xlink:href="#linearGradient3599" gradientUnits="userSpaceOnUse" x2="62.394" gradientTransform="matrix(.76699 0 0 .76699 -.81451 -3.7393)" y1="65.389" x1="41.531"/>
  <linearGradient id="linearGradient4121" y2="43.248" gradientUnits="userSpaceOnUse" x2="74.153" gradientTransform="matrix(.76699 0 0 .76699 -.81451 -3.7393)" y1="23.205" x1="59.71">
   <stop id="stop3583" style="stop-color:#fff" offset="0"/>
   <stop id="stop3585" style="stop-color:#fff;stop-opacity:0" offset="1"/>
  </linearGradient>
  <linearGradient id="linearGradient4123" y2="82.75" xlink:href="#linearGradient3599" gradientUnits="userSpaceOnUse" x2="49" gradientTransform="matrix(.76699 0 0 .76699 -.81451 -3.7393)" y1="96.263" x1="62.75"/>
  <clipPath id="clipPath3009" clipPathUnits="userSpaceOnUse">
   <path id="path3011" style="opacity:.15;fill:#fff" d="m-2 956.36h-96v33.562l96 25.687v-59.25z"/>
  </clipPath>
 </defs>
 <metadata id="metadata11042">
  <rdf:RDF>
   <cc:Work rdf:about="">
    <dc:format>image/svg+xml</dc:format>
    <dc:type rdf:resource="http://purl.org/dc/dcmitype/StillImage"/>
    <dc:title/>
   </cc:Work>
  </rdf:RDF>
 </metadata>
 <g id="layer1" transform="translate(0 -956.36)">
  <rect id="rect3867" style="fill:url(#linearGradient11642)" rx="25" ry="25" height="92" width="92" y="958.36" x="2"/>
  <g id="g3173" transform="translate(4.0209e-7 956.36)">
   <g id="layer4">
    <g id="g3687" transform="matrix(.90234 0 0 .88119 4.0199 7.0433)">
     <path id="path3589" d="m40.028 33.46c-3.7293 0.82008-8.1459 1.3826-11.634 2.9148-3.0068 1.3208-7.9298 4.2834-10.146 6.8528-0.90226 4.5419 13.37 5.5216 17.304 6.3648 4.5159 0.7732 9.6176 0.22721 13.45 3.1943 2.0058 1.9473 2.8144 5.2524 1.8165 7.871-1.3275 3.1633-4.9693 1.0451-7.256 2.4415-2.2086 1.4652-1.6406 4.8624-0.64889 6.9057 1.3806 1.9953 4.202 2.2172 4.7322 4.9257 2.5832 2.0376 5.1453-2.1326 5.7932-3.9883 2.1147-3.1001 5.1528-4.3628 8.6631-3.8119 2.9183 0.11446 4.7263-4.427 1.621-5.6765-1.9501-1.1794-3.7216-2.221-3.8797-4.8616-0.4346-3.2173 5.646-4.2666 7.2221-6.6893 2.6177-4.8685-3.5591-11.931-6.6263-16.099-1.7701-2.706-4.2293-0.14907-6.2408 1.5326-3.4917-0.76815-4.3471 0.61395-6.3477 3.2285-2.8172-0.20121-3.4863-3.6813-5.9608-4.5261-0.59252-0.2712-1.2196-0.46756-1.8617-0.5792z" style="opacity:.7;fill:url(#linearGradient4117);fill-rule:evenodd"/>
     <path id="path3611" d="m40.603 41.897c-2.0817 3.8746-10.666 1.1438-9.4454 7.3598 2.3731 3.6 8.2844 4.4094 12.117 3.0004 3.781-2.065 6.7358-7.8075 3.0067-11.306-1.6876-1.8756-4.4762-0.98492-5.6779 0.94557z" style="fill:url(#linearGradient4119);fill-rule:evenodd"/>
     <path id="path3555" d="m46.138 14.737c-6.5852 2.9947-8.9528 7.6159-13.472 12.811-5.8473 6.968 2.864 3.1174 6.1255 0.3866 1.2476-1.058 2.4121-2.2838 3.943-2.9351 1.4429-0.0024 2.7861 1.6108 4.2206 0.52647 1.0888-0.98542 2.4738-1.0792 3.8478-1.2288 1.4579-0.22236 1.5922-2.3121 3.2973-1.9443 1.4586 0.28841 2.5377-1.2399 1.6214-2.4685-0.83462-1.3457-2.2645-2.1496-3.3421-3.2784-2.7518-2.5051-2.5364-3.2329-6.2412-1.869z" style="opacity:.7;fill:url(#linearGradient4121);fill-rule:evenodd"/>
     <path id="path3455" d="m81.015 40.447c0.28578 0.36307 2.9103 2.8313 0.33728 0.5659-5.9612-4.8948-16.775-13.368-21.968-19.11 1.4722 1.4858 3.1815 3.1481 0.69791 0.742-2.7507-2.595-5.3152-5.3772-7.8704-8.1622 1.2744 1.1866 3.5097 3.6984 1.0174 1.0187-2.6675-3.2976-7.7622-2.5137-10.159 0.67177-4.2198 3.8075-8.0871 8.0049-11.395 12.618-3.3272 3.8105-7.7175 6.4256-11.359 9.875-2.0222 2.7823-6.4248 6.5008-3.8389 10.117-1.2164-1.0479-4.2134-4.0417-0.75541-1.85 4.6809 1.565 10.799 1.739 13.623 6.4116 1.4379 3.7169-3.479 5.0294-5.269 7.4034-0.38987 3.0302-4.6663-2.5589-1.7949-0.6733 4.9272 1.073 9.7508 2.728 14.39 4.6735 4.2459 1.4233 5.6103 6.6939 1.3977 9.0083-0.6887 2.1366-1.3263 1.2386-2.2995-0.34256 2.6097 1.6738 5.5297 0.18627 8.3315 0.52358 3.1505 0.51143 4.3971 7.337 3.1946 7.8611-1.979-1.5896-1.4254-1.6507 0.66102-1.1891 5.7242 0.63404 3.9924 0.31574 7.2521-0.42172-2.5842 1.4631-5.7546 3.5122-8.7729 2.1688-2.3632-0.99667-3.0245-7.7372-2.4467-7.4398 3.9084 2.8708-3.3751 1.497-5.202 1.7003-3.0608-0.95188-6.2298-4.2638-2.3487-6.5832 2.1726-0.82878 0.47762-5.7592 2.722-2.4119 2.0902 1.8143-2.2644-1.5286-3.4722-1.4715-3.9576-1.452-8.0847-2.353-12.18-3.3177-5.0435-2.7232 0.398-7.0224 2.7364-9.2611 1.5122-1.4426-1.4777-4.1578 0.58928-1.7928 1.2954 1.3116 2.8621 2.5343 0.23291 0.87181-4.1704-1.8081-9.6562-1.3819-12.779-5.0861-2.6482-4.1085 0.42984-8.7102 3.2315-11.779 3.3235-3.1383 7.213-5.6305 10.325-9.0202 3.3598-3.2873 6.0007-7.2333 9.5015-10.403 2.7862-2.6553 5.536-6.6039 9.8847-6.1643 4.279 1.8586 7.3086 5.8698 10.505 9.1727 1.3695 1.679-3.6791-3.7286-0.69842-0.66451 1.7029 1.7154 6.008 5.9023 5.9837 6.0448-3.2222-3.1986 3.426 3.1537 4.6224 3.8477 4.1317 3.3158 13.074 10.258 16.56 14.286-1.0626-0.81253-2.1252-1.6251-3.1878-2.4376z" style="opacity:.8"/>
     <path id="path3459" d="m63.203 30.879c-1.021-0.67747-2.0135-1.3989-3.0061-2.1175-0.77723-0.51351-1.4585-1.1824-2.2748-1.636-0.44785-0.2227-0.74507 0.02356-1.0193 0.37466-0.21475 0.4347-0.35698 0.91277-0.48317 1.3824-0.1956 0.42384-0.33398 0.86927-0.56285 1.277-0.24374 0.48873-0.74711 0.77937-1.1868 1.0761-0.50693 0.32983-1.0165 0.3829-1.5562 0.11562-0.07985-0.05848-0.16903-0.10599-0.23956-0.17542-1.0048-0.98909-1.999-1.989-2.984-2.9978-0.17794-0.18225-0.1995-0.30611-0.33909-0.51431-0.08714-0.12997-0.2584-0.32238-0.35992-0.44065 0.85845 0.86897 1.7169 1.738 2.5754 2.6069-0.10075-0.07731-0.25974-0.29335-0.41574-0.27505-0.14207 0.01667-0.27125 0.19006-0.3513 0.26973-0.39729 0.63953-0.75388 1.3032-1.1777 1.9262-0.30075 0.4557-0.6011 0.90859-0.87832 1.3792-0.28932 0.44382-0.74872 0.59416-1.2451 0.67839-0.68534 0.07487-1.2295-0.29514-1.732-0.71252-1.7147-1.5666-3.2362-2.5131-3.5221-4.6472-0.1358-0.5415-0.1518-1.0916-0.58001-1.4894 0.87025 0.885 1.7482 1.7625 2.6108 2.655 0.0508 0.05255-0.11143-0.09563-0.17389-0.13358-0.26212-0.15926-0.57544-0.19897-0.87488-0.20752-0.41159 0.04445-0.82418 0.10855-1.1953 0.2992-0.33291 0.23983-0.68242 0.47875-0.9182 0.81987-0.24891 0.33696-0.49557 0.66894-0.80147 0.95711-1.7774 1.193-4.057 1.5103-6.0985 1.9781-4.5224 1.0046-8.828 2.7375-13.125 4.4268l-1.9366-2.096c4.1847-1.8 8.36-3.6644 12.76-4.8889 1.903-0.57429 3.9653-1.023 5.5729-2.2569 0.28083-0.27939 0.51575-0.59301 0.75306-0.90933 0.28744-0.37564 0.66488-0.65585 1.0378-0.94249 0.41127-0.24486 0.865-0.335 1.3333-0.41264 1.9704-0.27145 3.0255 1.7591 4.2566 3.1056 0.26425 0.50688 0.3353 1.0752 0.45094 1.6298 0.37675 1.7906 2.4446 3.1684-1.8865-1.0841 0.38601 0.41376 0.8493 0.82735 1.4313 0.90451 0.38573-0.03914 0.76188-0.08045 0.98666-0.43621 0.29381-0.4649 0.60586-0.91493 0.91782-1.3674 0.43335-0.64185 0.81637-1.314 1.2173-1.9756 0.26356-0.2946 0.57723-0.68587 1.0217-0.5269 0.07583 0.02711 0.15843 0.05178 0.21612 0.10797 1.007 0.98077 1.9795 1.9963 2.9692 2.9945 0.17447 0.23223 0.3294 0.47951 0.51161 0.70576 0.06379 0.0792 0.2725 0.30165 0.19967 0.23067-0.80433-0.78387-3.6031-3.56-2.396-2.3689 0.41861 0.37935 0.67909 0.48008 1.1997 0.18663 0.3951-0.25156 0.83517-0.5018 1.0429-0.93974 0.19997-0.39083 0.33245-0.81163 0.5063-1.2143 0.15873-0.50954 0.30671-1.0376 0.59635-1.4895 0.35665-0.44103 0.80021-0.86168 1.4129-0.72521 0.92982 0.34473 1.5946 1.1728 2.422 1.6944 0.937 0.69173 1.9104 1.3322 2.8485 2.02l2.4698 3.179z" style="opacity:.8"/>
     <path id="path3478" d="m24.471 68.96c-0.3658 0.34638-0.62194 0.75945-0.7787 1.2352-0.07974 0.36202-0.15656 0.78034 0.02738 1.1283 0.05705 0.10793 0.13914 0.20065 0.2087 0.30098 0.43915 0.5803 0.94948 1.0986 1.5384 1.5255 0.38936 0.29543 0.82732 0.46076 1.3067 0.5282 0.39753 0.03675 0.79635 0.02096 1.1865-0.06268 0.903-0.396 1.682-1.033 2.472-1.616l1.4935-2.2858c-0.74669 0.57386-1.5034 1.1469-2.327 1.6053-0.3649 0.09932-0.72858 0.14591-1.1091 0.12121-0.44387-0.03097-0.8504-0.15107-1.2142-0.41912-0.5746-0.38126-1.0729-0.86375-1.4579-1.4383-0.23834-0.48395-0.21294-0.76573-0.03702-1.2684 0.20856-0.45782 0.53272-0.82307 0.84189-1.2148l-2.1504 1.8599z" style="opacity:.8"/>
     <path id="path3482" d="m35.615 55.112c0.2082 0.25037 0.75909 0.77682 0.76848 0.84074-0.61708-0.56735-1.226-1.1442-1.8665-1.6854 0.82625 0.87731 1.9327 1.4446 3.1044 1.6966 1.0925 0.27999 2.177 0.59235 3.2562 0.9154 1.6375 0.35314 3.3159 0.45695 4.981 0.59797 0.72863-0.0081 1.924 0.18192 2.0991-0.78938 0.14703-0.83947-0.48197-1.4931-0.96888-2.0847 0.65198 0.5825 1.2726 1.2014 1.9278 1.7814-0.63094-0.57377-1.433-0.91601-2.2433-1.1516-0.62489-0.70836-1.2498-1.4167-1.8747-2.1251 1.0993 0.29937 2.1567 0.80363 2.9762 1.6096 0.78348 0.7058 1.6405 1.3918 2.1689 2.3195 0.36774 0.69552 0.42161 1.7594-0.33742 2.2163-0.79631 0.45587-1.7507 0.24333-2.6195 0.22728-1.8308-0.19363-3.7007-0.26109-5.4612-0.8474-1.4541-0.50971-3.0474-0.66007-4.379-1.4829-0.79069-0.50929-1.305-1.3299-2.0363-1.9135-0.47744-0.4156-1.0219-0.73858-1.4394-1.2208-0.51924-0.66918 0.54591 0.20125 0.81088 0.34099l1.1332 0.755z" style="opacity:.8"/>
     <path id="path3669" d="m36.768 59.729c1.9758 1.2628 4.4165 1.1994 6.6708 1.154 2.1691-0.03823 4.5258-0.11941 6.4234 1.1082 0.61735 0.43353 1.3213 0.92272 1.4384 1.7272 0.43915 1.7416-0.59017 3.4777-1.8895 4.5664-1.5214 1.2775-3.6017 2.1346-5.6019 1.6902-1.2709-0.27866-2.2566-1.333-2.6307-2.555-1.5763-2.5012-3.0032-5.0924-4.4106-7.6911z" style="fill:url(#linearGradient4123);fill-rule:evenodd"/>
     <path id="path3692" d="m55.453 36.627c2.4493 1.7852 3.6036 4.3398 4.6849 6.6966 1.0467 2.2665 2.1383 4.7376 4.5077 6.4489 0.81022 0.54938 1.7281 1.1769 2.7145 1.1256 2.2286 0.08218 3.7123-1.3633 4.314-2.9504 0.70764-1.8591 0.64957-4.2094-0.86856-6.1962-0.96034-1.2632-2.6714-2.0624-4.2682-2.1887-3.676-1.1026-7.3807-2.0302-11.084-2.9358z" style="fill:url(#linearGradient3707);fill-rule:evenodd"/>
    </g>
   </g>
  </g>
  <rect id="rect3003" style="opacity:.15;fill:#fff" transform="translate(98 3.8281e-7)" clip-path="url(#clipPath3009)" rx="25" ry="25" height="92" width="92" y="958.36" x="-96"/>
 </g>
</svg>
