<?xml version="1.0" encoding="UTF-8" standalone="no"?>
<!-- Created with Inkscape (http://www.inkscape.org/) -->
<svg id="svg11037" xmlns:rdf="http://www.w3.org/1999/02/22-rdf-syntax-ns#" xmlns="http://www.w3.org/2000/svg" height="96" width="96" version="1.1" xmlns:cc="http://creativecommons.org/ns#" xmlns:xlink="http://www.w3.org/1999/xlink" xmlns:dc="http://purl.org/dc/elements/1.1/">
 <defs id="defs11039">
  <linearGradient id="linearGradient11642" y2="1046.1" gradientUnits="userSpaceOnUse" y1="962.62" gradientTransform="matrix(1.15 0 0 1.15 -7.1999 -150.65)" x2="48" x1="48">
   <stop id="stop5343" style="stop-color:#6a2700" offset="0"/>
   <stop id="stop5345" style="stop-color:#c04700" offset="1"/>
  </linearGradient>
  <linearGradient id="linearGradient4015-2" y2="477.87" gradientUnits="userSpaceOnUse" x2="375.8" gradientTransform="matrix(.21272 0 0 .21526 -31.94 -59.159)" y1="597.84" x1="373">
   <stop id="stop3800-64" style="stop-color:#ff9d60" offset="0"/>
   <stop id="stop3802-2" style="stop-color:#ffe1ba" offset="1"/>
  </linearGradient>
  <radialGradient id="radialGradient4012-8" gradientUnits="userSpaceOnUse" cy="503.76" cx="370.52" gradientTransform="matrix(1.1494 -.0000027368 .0000027573 1.0867 -380.63 -516.48)" r="14.664">
   <stop id="stop5362-9-2" style="stop-color:#fbffce;stop-opacity:0.728" offset="0"/>
   <stop id="stop5364-4-20" style="stop-color:#ffb058;stop-opacity:0" offset="1"/>
  </radialGradient>
  <radialGradient id="radialGradient3991-6" gradientUnits="userSpaceOnUse" cy="505.23" cx="373.03" gradientTransform="matrix(-.24424 -.10895 .11715 -.26009 87.889 216.92)" r="14.664">
   <stop id="stop5362-9-5-2" style="stop-color:#fbffce" offset="0"/>
   <stop id="stop5364-4-6-03" style="stop-color:#fbffce;stop-opacity:0" offset="1"/>
  </radialGradient>
  <radialGradient id="radialGradient3988-1" gradientUnits="userSpaceOnUse" cy="505.23" cx="373.03" gradientTransform="matrix(-.13975 -.054165 .067034 -.12931 57.32 111.89)" r="14.664">
   <stop id="stop5362-9-5-8-1" style="stop-color:#fbffce;stop-opacity:0.64" offset="0"/>
   <stop id="stop5364-4-6-0-5" style="stop-color:#fbffce;stop-opacity:0" offset="1"/>
  </radialGradient>
  <clipPath id="clipPath3009" clipPathUnits="userSpaceOnUse">
   <path id="path3011" style="opacity:.15;fill:#fff" d="m-2 956.36h-96v33.562l96 25.687v-59.25z"/>
  </clipPath>
 </defs>
 <metadata id="metadata11042">
  <rdf:RDF>
   <cc:Work rdf:about="">
    <dc:format>image/svg+xml</dc:format>
    <dc:type rdf:resource="http://purl.org/dc/dcmitype/StillImage"/>
    <dc:title/>
   </cc:Work>
  </rdf:RDF>
 </metadata>
 <g id="layer1" transform="translate(0 -956.36)">
  <rect id="rect3867" style="fill:url(#linearGradient11642)" rx="25" ry="25" height="92" width="92" y="958.36" x="2"/>
  <g id="g3068" transform="translate(0 956.36)">
   <g id="layer4">
    <path id="path4111" d="m47.997 17c-5.792 0-11.439 2.376-15.536 6.532-4.096 4.156-6.461 9.902-6.461 15.781 0 5.8788 2.3649 11.618 6.4614 15.774 3.4707 3.5211 8.0543 5.7676 12.896 6.3703v1.0886h-7.9305v5.368h7.9305l1.6117 15.086h2.0614l1.6117-15.086h7.9305v-5.368h-7.9305v-1.0886c4.85-0.602 9.459-2.849 12.93-6.37 4.096-4.156 6.428-9.895 6.428-15.774s-2.332-11.625-6.428-15.781c-4.097-4.156-9.783-6.532-15.575-6.532zm0 2.1165c4.3454 0 8.8741 1.74 11.826 4.9711 6.7415 7.3794 6.4619 19.882 0 27.233-2.8889 3.2864-7.4805 4.9644-11.826 4.9644-4.3361 0-8.7151-1.86-11.786-4.9644h-0.03325c-6.6216-7.494-6.279-19.712 0-27.233 3.0718-3.1165 7.4739-4.9711 11.819-4.9711h0.000012z" style="opacity:.3;block-progression:tb;text-indent:0;color:#000000;text-transform:none;fill:#f95"/>
    <path id="path4107" d="m47.997 15c-5.792 0-11.439 2.376-15.536 6.532-4.096 4.156-6.461 9.902-6.461 15.781 0 5.8788 2.3649 11.618 6.4614 15.774 3.4707 3.5211 8.0543 5.7676 12.896 6.3703v1.0886h-7.9305v5.368h7.9305l1.6117 15.086h2.0614l1.6117-15.086h7.9305v-5.368h-7.9305v-1.0886c4.85-0.602 9.459-2.849 12.93-6.37 4.096-4.156 6.428-9.895 6.428-15.774s-2.332-11.625-6.428-15.781c-4.097-4.156-9.783-6.532-15.575-6.532zm0 2.1165c4.3454 0 8.8741 1.74 11.826 4.9711 6.7415 7.3794 6.4619 19.882 0 27.233-2.8889 3.2864-7.4805 4.9644-11.826 4.9644-4.3361 0-8.7151-1.86-11.786-4.9644h-0.03325c-6.6216-7.494-6.279-19.712 0-27.233 3.0718-3.1165 7.4739-4.9711 11.819-4.9711h0.000012z" style="block-progression:tb;text-indent:0;color:#000000;text-transform:none;fill:#520"/>
    <path id="path3939" d="m47.997 16c-5.792 0-11.439 2.376-15.536 6.532-4.096 4.156-6.461 9.902-6.461 15.781 0 5.8788 2.3649 11.618 6.4614 15.774 3.4707 3.5211 8.0543 5.7676 12.896 6.3703v1.0886h-7.9305v5.368h7.9305l1.6117 15.086h2.0614l1.6117-15.086h7.9305v-5.368h-7.9305v-1.0886c4.85-0.602 9.459-2.849 12.93-6.37 4.096-4.156 6.428-9.895 6.428-15.774s-2.332-11.625-6.428-15.781c-4.097-4.156-9.783-6.532-15.575-6.532zm0 2.1165c4.3454 0 8.8741 1.74 11.826 4.9711 6.7415 7.3794 6.4619 19.882 0 27.233-2.8889 3.2864-7.4805 4.9644-11.826 4.9644-4.3361 0-8.7151-1.86-11.786-4.9644h-0.03325c-6.6216-7.494-6.279-19.712 0-27.233 3.0718-3.1165 7.4739-4.9711 11.819-4.9711h0.000012z" style="block-progression:tb;text-indent:0;color:#000000;text-transform:none;fill:url(#linearGradient4015-2)"/>
    <path id="path5448" d="m46.547 50.911c-1.07-0.12994-2.952-0.53403-3.809-0.81782-2.4808-0.82149-5.1117-2.4464-6.7532-4.1709-1.2448-1.3077-2.8552-4.0666-3.5473-6.077-2.195-6.3761-1.2407-9.7461 2.4512-15.226 1.8184-2.6987 5.4769-5.0217 9.4448-5.9968 1.6862-0.41439 6.1529-0.38629 7.7897 0.0491 6.4416 1.7131 10.4 5.7335 12.203 12.393 1.0605 3.9182 0.81727 4.8714-0.61411 8.7931-1.8083 4.9545-4.8332 8.2327-9.1552 9.9221-2.3344 0.91249-5.7907 1.4005-8.0097 1.131v-0.000047z" style="fill:url(#radialGradient4012-8)"/>
    <path id="path5448-8" d="m58.019 41.229c0.21515 0.12845 0.57745 0.39022 0.73304 0.53038 0.44986 0.40586 0.85801 0.99096 1.046 1.5036 0.14209 0.38842 0.22754 1.1125 0.18696 1.5943-0.12819 1.5281-1.0357 3.0022-2.3311 3.7866-0.63792 0.38645-1.6321 0.52046-2.5662 0.34622-0.39668-0.07416-1.3434-0.50323-1.6506-0.74858-1.2088-0.96538-1.6753-2.1727-1.4372-3.7222 0.13995-0.91165 0.67105-1.9528 1.3409-2.6291 0.84608-0.8545 1.7949-1.246 2.8707-1.1863 0.58103 0.03212 1.361 0.2589 1.8074 0.52504z" style="fill:url(#radialGradient3991-6)"/>
    <path id="path5448-8-3" d="m40.229 24.546c0.12299 0.06378 0.33043 0.1941 0.41943 0.26368 0.25741 0.20174 0.49094 0.49266 0.59851 0.7475 0.08132 0.19311 0.13023 0.55312 0.10687 0.79262-0.07335 0.7597-0.59259 1.4926-1.3338 1.8826-0.365 0.19214-0.93383 0.25876-1.4683 0.17229-0.22699-0.03684-0.76868-0.25017-0.94445-0.37216-0.69172-0.47997-0.95859-1.0802-0.82236-1.8505 0.08006-0.45327 0.38397-0.97087 0.76725-1.3071 0.48411-0.42486 1.027-0.61951 1.6426-0.58982 0.33246 0.01649 0.77873 0.12867 1.0342 0.26104z" style="fill:url(#radialGradient3988-1)"/>
    <path id="path4115" d="m48 16c-5.792 0-11.435 2.375-15.531 6.531-4.097 4.156-6.469 9.903-6.469 15.781 0 5.8788 2.3722 11.625 6.4688 15.781 3.4707 3.5211 8.0331 5.7723 12.875 6.375v1.0625h-7.9062v5.375h7.9062l1.625 15.094h2.0625l1.625-15.094h7.9062v-5.375h-7.9062v-1.0625c4.8497-0.60269 9.4356-2.8539 12.906-6.375 4.096-4.155 6.437-9.902 6.437-15.781 0-5.878-2.341-11.625-6.438-15.781-4.096-4.156-9.77-6.531-15.562-6.531zm0 1c5.5188 0 10.938 2.2558 14.844 6.2188s6.156 9.48 6.156 15.093c0 5.6133-2.2495 11.13-6.1562 15.094-3.3111 3.3592-7.6886 5.4879-12.312 6.0625a1.0002 1.0002 0 0 0 -0.875 1v1.0625a1.0002 1.0002 0 0 0 1 1h6.9062v3.375h-6.9062a1.0002 1.0002 0 0 0 -1 0.90625l-1.532 14.189h-0.25l-1.531-14.188a1.0002 1.0002 0 0 0 -1 -0.90625h-6.9062v-3.375h6.9062a1.0002 1.0002 0 0 0 1 -1v-1.0625a1.0002 1.0002 0 0 0 -0.875 -1c-4.616-0.574-8.969-2.701-12.281-6.062-3.909-3.965-6.188-9.484-6.188-15.094 0-5.609 2.279-11.128 6.188-15.093 3.907-3.965 9.293-6.219 14.812-6.219zm0 0.125c-4.6296 0-9.2637 1.9662-12.531 5.2812a1.0002 1.0002 0 0 0 -0.0625 0.03125c-6.6086 7.9159-6.9584 20.621 0.03125 28.531a1.0002 1.0002 0 0 0 0.0625 0.0625 1.0002 1.0002 0 0 0 0.21875 0.15625c3.2513 3.1849 7.748 5.0938 12.281 5.0938 4.6035 0 9.4394-1.7597 12.562-5.3125 6.8233-7.7622 7.1298-20.758 0-28.562-3.172-3.474-7.949-5.281-12.561-5.281zm0 1c4.3454 0 8.8607 1.7376 11.812 4.9688 6.7415 7.3794 6.4619 19.868 0 27.219-2.8889 3.2864-7.4671 4.9688-11.812 4.9688-4.3361 0-8.7103-1.8643-11.781-4.9688h-0.03125c-6.6216-7.494-6.279-19.698 0-27.219 3.071-3.117 7.467-4.969 11.812-4.969z" style="opacity:.2;block-progression:tb;text-indent:0;color:#000000;text-transform:none;fill:#a14505"/>
   </g>
  </g>
  <rect id="rect3003" style="opacity:.15;fill:#fff" transform="translate(98 3.8281e-7)" clip-path="url(#clipPath3009)" rx="25" ry="25" height="92" width="92" y="958.36" x="-96"/>
 </g>
</svg>
