<?xml version="1.0" encoding="UTF-8" standalone="no"?>
<!-- Created with Inkscape (http://www.inkscape.org/) -->
<svg id="svg11037" xmlns:rdf="http://www.w3.org/1999/02/22-rdf-syntax-ns#" xmlns="http://www.w3.org/2000/svg" height="96" width="96" version="1.1" xmlns:cc="http://creativecommons.org/ns#" xmlns:xlink="http://www.w3.org/1999/xlink" xmlns:dc="http://purl.org/dc/elements/1.1/">
 <defs id="defs11039">
  <linearGradient id="linearGradient11642" y2="1046.1" gradientUnits="userSpaceOnUse" y1="962.62" gradientTransform="matrix(1.15 0 0 1.15 -7.1999 -150.65)" x2="48" x1="48">
   <stop id="stop3702" style="stop-color:#c8c8c8" offset="0"/>
   <stop id="stop3704" style="stop-color:#f0f0f0" offset="1"/>
  </linearGradient>
  <radialGradient id="radialGradient4024" gradientUnits="userSpaceOnUse" cy="48" cx="48" r="32">
   <stop id="stop4020" style="stop-color:#fff" offset="0"/>
   <stop id="stop4026" style="stop-color:#fff;stop-opacity:.49804" offset="0.7"/>
   <stop id="stop4022" style="stop-color:#fff;stop-opacity:0" offset="1"/>
  </radialGradient>
  <linearGradient id="linearGradient3979" y2="40" gradientUnits="userSpaceOnUse" x2="88" gradientTransform="matrix(0,-1,1,0,-8,104)" y1="64" x1="40">
   <stop id="stop3942" style="stop-color:#34870c" offset="0"/>
   <stop id="stop3944" style="stop-color:#a0ce72" offset="1"/>
  </linearGradient>
  <clipPath id="clipPath3009" clipPathUnits="userSpaceOnUse">
   <path id="path3011" style="opacity:.15;fill:#fff" d="m-2 956.36h-96v33.562l96 25.687v-59.25z"/>
  </clipPath>
 </defs>
 <metadata id="metadata11042">
  <rdf:RDF>
   <cc:Work rdf:about="">
    <dc:format>image/svg+xml</dc:format>
    <dc:type rdf:resource="http://purl.org/dc/dcmitype/StillImage"/>
    <dc:title/>
   </cc:Work>
  </rdf:RDF>
 </metadata>
 <g id="layer1" transform="translate(0 -956.36)">
  <rect id="rect3867" style="fill:url(#linearGradient11642)" rx="25" ry="25" height="92" width="92" y="958.36" x="2"/>
  <g id="g3096" transform="translate(-2.2222e-7 956.36)">
   <path id="path4016" d="m80 48a32 32 0 1 1 -64 0 32 32 0 1 1 64 0z" style="color:#000000;fill:url(#radialGradient4024)"/>
   <path id="path3938" d="m48 16c-3.4896 0-6.8559 0.56115-10 1.5938v30.406c0 5.5228 4.4772 10 10 10s10-4.4772 10-10c0-5.523-4.477-10-10-10v-10c11.046 0 20 8.954 20 20s-8.954 20-20 20-20-8.954-20-20v-24.969c-7.31 5.865-12 14.868-12 24.969 0 17.673 14.327 32 32 32s32-14.327 32-32-14.327-32-32-32z" style="color:#000000;fill:url(#linearGradient3979)"/>
   <path id="path3982" d="m48 28v1c10.878 0 19.735 8.6854 20 19.5 0.0041-0.16622 0-0.3328 0-0.5 0-11.046-8.954-20-20-20zm-10 20v1c0 5.5228 4.4772 10 10 10s10-4.4772 10-10c0-0.16738-0.02312-0.33464-0.03125-0.5-0.26 5.291-4.614 9.5-9.969 9.5-5.523 0-10-4.477-10-10zm42 0.5c-0.267 17.443-14.494 31.5-32 31.5-17.465 0-31.668-13.99-32-31.375-0.0015 0.12578 0 0.24888 0 0.375 0 17.673 14.327 32 32 32s32-14.327 32-32c0-0.16667 0.0025-0.33394 0-0.5z" style="opacity:.7;color:#000000;fill:#fff"/>
   <path id="path3991" d="m48 15c-3.4896 0-6.8559 0.56115-10 1.5938v1c3.144-1.033 6.51-1.594 10-1.594 17.506 0 31.733 14.057 32 31.5 0.003-0.166 0-0.333 0-0.5 0-17.673-14.327-32-32-32zm-20 7.031c-7.31 5.865-12 14.868-12 24.969 0 0.20834-0.004 0.41761 0 0.625 0.11533-9.9477 4.781-18.802 12-24.594v-1zm20 14.969v1c5.3555 0 9.7087 4.209 9.9688 9.5 0.008-0.165 0.031-0.333 0.031-0.5 0-5.523-4.477-10-10-10zm-20 10v1c0 11.046 8.9543 20 20 20s20-8.9543 20-20c0-0.1672 0.0041-0.33378 0-0.5-0.265 10.815-9.122 19.5-20 19.5-11.046 0-20-8.954-20-20z" style="opacity:.3;color:#000000"/>
   <path id="path4000" d="m48 16c-3.4896 0-6.8559 0.56115-10 1.5938v1c3.144-1.033 6.51-1.594 10-1.594 17.506 0 31.733 14.057 32 31.5 0.003-0.166 0-0.333 0-0.5 0-17.673-14.327-32-32-32zm-20 7.031c-7.31 5.865-12 14.868-12 24.969 0 0.20834-0.004 0.41761 0 0.625 0.11533-9.9477 4.781-18.802 12-24.594v-1zm20 14.969v1c5.3555 0 9.7087 4.209 9.9688 9.5 0.008-0.165 0.031-0.333 0.031-0.5 0-5.523-4.477-10-10-10zm-20 10v1c0 11.046 8.9543 20 20 20s20-8.9543 20-20c0-0.1672 0.0041-0.33378 0-0.5-0.265 10.815-9.122 19.5-20 19.5-11.046 0-20-8.954-20-20z" style="opacity:.3;color:#000000"/>
   <path id="path4009" d="m48 16c-3.4896 0-6.8559 0.56115-10 1.5938v30.406c0 5.5228 4.4772 10 10 10s10-4.4772 10-10c0-5.523-4.477-10-10-10v-10c11.046 0 20 8.954 20 20s-8.954 20-20 20-20-8.954-20-20v-24.969c-7.31 5.865-12 14.868-12 24.969 0 17.673 14.327 32 32 32s32-14.327 32-32-14.327-32-32-32zm0 1.0625c17.101 0 30.938 13.837 30.938 30.938s-13.837 30.938-30.938 30.938-30.938-13.837-30.938-30.938c0-8.8981 3.8664-16.794 9.875-22.438v22.438c0.001 11.618 9.445 21.062 21.063 21.062s21.062-9.444 21.062-21.062-9.444-21.062-21.062-21.062a1.0584 1.0584 0 0 0 -1.062 1.062v10a1.0584 1.0584 0 0 0 1.062 1.062c4.9509 0 8.9375 3.9866 8.9375 8.9375s-3.9866 8.9375-8.9375 8.9375-8.9375-3.9866-8.9375-8.9375v-29.594c2.836-0.856 5.822-1.344 8.938-1.344z" style="opacity:0.12;color:#000000"/>
  </g>
  <rect id="rect3003" style="opacity:.15;fill:#fff" transform="translate(98 3.8281e-7)" clip-path="url(#clipPath3009)" rx="25" ry="25" height="92" width="92" y="958.36" x="-96"/>
 </g>
</svg>
