<?xml version="1.0" encoding="UTF-8" standalone="no"?>
<!-- Created with Inkscape (http://www.inkscape.org/) -->
<svg id="svg11037" xmlns:rdf="http://www.w3.org/1999/02/22-rdf-syntax-ns#" xmlns="http://www.w3.org/2000/svg" height="96" width="96" version="1.1" xmlns:cc="http://creativecommons.org/ns#" xmlns:xlink="http://www.w3.org/1999/xlink" xmlns:dc="http://purl.org/dc/elements/1.1/">
 <defs id="defs11039">
  <linearGradient id="linearGradient11642" y2="1046.1" gradientUnits="userSpaceOnUse" y1="962.62" gradientTransform="matrix(1.15 0 0 1.15 -7.1999 -150.65)" x2="48" x1="48">
   <stop id="stop3702" style="stop-color:#e1e1e1" offset="0"/>
   <stop id="stop3704" style="stop-color:#f5f5f5" offset="1"/>
  </linearGradient>
  <radialGradient id="radialGradient3811" gradientUnits="userSpaceOnUse" cy="47.718" cx="47.728" gradientTransform="translate(0 956.36)" r="30.801">
   <stop id="stop3807" style="stop-color:#7aff06" offset="0"/>
   <stop id="stop3809" style="stop-color:#6eff06;stop-opacity:0" offset="1"/>
  </radialGradient>
  <radialGradient id="radialGradient3819" gradientUnits="userSpaceOnUse" cy="47.718" cx="47.728" gradientTransform="translate(0 956.36)" r="30.801">
   <stop id="stop3815" style="stop-color:#12d8ff" offset="0"/>
   <stop id="stop3817" style="stop-color:#12d8ff;stop-opacity:0" offset="1"/>
  </radialGradient>
  <radialGradient id="radialGradient3803" gradientUnits="userSpaceOnUse" cy="47.718" cx="47.728" gradientTransform="translate(0 956.36)" r="30.801">
   <stop id="stop3799-8" style="stop-color:#ffd80e" offset="0"/>
   <stop id="stop3801" style="stop-color:#ffee0e;stop-opacity:0" offset="1"/>
  </radialGradient>
  <radialGradient id="radialGradient3785" xlink:href="#linearGradient3765" gradientUnits="userSpaceOnUse" cy="47.718" cx="47.728" gradientTransform="translate(0 956.36)" r="30.801"/>
  <linearGradient id="linearGradient3765">
   <stop id="stop3767" style="stop-color:#fff" offset="0"/>
   <stop id="stop3769" style="stop-color:#fff;stop-opacity:0" offset="1"/>
  </linearGradient>
  <clipPath id="clipPath3009" clipPathUnits="userSpaceOnUse">
   <path id="path3011" style="opacity:.15;fill:#fff" d="m-2 956.36h-96v33.562l96 25.687v-59.25z"/>
  </clipPath>
 </defs>
 <metadata id="metadata11042">
  <rdf:RDF>
   <cc:Work rdf:about="">
    <dc:format>image/svg+xml</dc:format>
    <dc:type rdf:resource="http://purl.org/dc/dcmitype/StillImage"/>
    <dc:title/>
   </cc:Work>
  </rdf:RDF>
 </metadata>
 <g id="layer1" transform="translate(0 -956.36)">
  <rect id="rect3867" style="fill:url(#linearGradient11642)" rx="25" ry="25" height="92" width="92" y="958.36" x="2"/>
  <path id="path3731" style="color:#000000;fill:#f93538" d="m48 968.36c-5.0055 0-9.7626 1.029-14.094 2.875l27.094 24.4v-24.84c-4.0352-1.5647-8.4121-2.4375-13-2.4375z"/>
  <path id="path3729" style="color:#000000;fill:#fe7d08" d="m65 972.61v41.75h17.594c0.91477-3.1727 1.4062-6.5329 1.4062-10 0-13.734-7.6907-25.68-19-31.75z"/>
  <path id="path3727" style="color:#000000;fill:#9864ae" d="m30.031 973.17c-10.771 6.23-18.031 17.86-18.031 31.23 0 3.7735 0.57952 7.4259 1.6562 10.844l31.719-28.21-15.344-13.82z"/>
  <path id="path3723" style="color:#000000;fill:#1d58a6" d="m31 1005.1-15.781 14.031c3.2708 7.2232 8.8269 13.205 15.781 16.938v-30.969z"/>
  <path id="path3697" style="color:#000000;fill:#35a328" d="m35 1018.4v19.562c4.0352 1.5646 8.4121 2.4375 13 2.4375 14.912 0 27.691-9.0791 33.156-22h-46.156z"/>
  <path id="path3795" style="opacity:.8;color:#000000;fill:url(#radialGradient3785)" d="m47.719 973.27c-3.4189 0-6.7084 0.56549-9.7812 1.5938l23.062 20.78v-19.34c-4.0174-1.9201-8.5315-3.0312-13.281-3.0312z"/>
  <path id="path3793" style="opacity:.8;color:#000000;fill:url(#radialGradient3785)" d="m33.844 976.58c-10.039 5.0758-16.906 15.482-16.906 27.5 0 2.5564 0.31924 5.0312 0.90625 7.4063l27.531-24.51-11.531-10.41z"/>
  <path id="path3791" style="opacity:.8;color:#000000;fill:url(#radialGradient3803)" d="m65 978.58v35.781h11.75c1.1394-3.2168 1.7812-6.674 1.7812-10.281 0-10.607-5.3704-19.96-13.531-25.5z"/>
  <path id="path3789" style="opacity:.8;color:#000000;fill:url(#radialGradient3819)" d="m31 1005.1-11.812 10.5c2.3895 5.895 6.5393 10.863 11.812 14.281v-24.781z"/>
  <path id="path3763" style="opacity:.7;color:#000000;fill:url(#radialGradient3811)" d="m35 1018.4v13.75c3.8823 1.7658 8.1757 2.7812 12.719 2.7812 11.857 0 22.165-6.7102 27.312-16.531h-40.031z"/>
  <path id="path3846" style="opacity:.05;color:#000000" d="m48 968.36c-5.0055 0-9.7626 1.029-14.094 2.875l27.094 24.4v-24.84c-4.0352-1.5647-8.4121-2.4375-13-2.4375zm0 2.0312c3.8521 0 7.5181 0.72243 10.969 1.9062v18.812l-21.094-19c3.217-1.0146 6.567-1.7188 10.125-1.7188zm17 2.2188v41.75h17.594c0.91477-3.1727 1.4062-6.5329 1.4062-10 0-13.734-7.6907-25.68-19-31.75zm-34.969 0.5625c-10.771 6.23-18.031 17.86-18.031 31.23 0 3.7735 0.57952 7.4259 1.6562 10.844l31.719-28.21-15.344-13.82zm-0.1875 2.5312 12.5 11.281-27.469 24.438c-0.4835-2.2867-0.84375-4.6316-0.84375-7.0625 0-12.086 6.324-22.631 15.812-28.656zm37.188 0.5625c8.9971 6.1099 14.938 16.382 14.938 28.094 0 2.7553-0.38222 5.4056-1 7.9687h-13.938v-36.062zm-36.032 28.84-15.781 14.1c3.2708 7.2232 8.8269 13.205 15.781 16.938v-30.969zm-2.0312 4.5v22.75c-4.7292-3.2321-8.5813-7.6277-11.188-12.781l11.188-9.9688zm6.0312 8.7188v19.562c4.0352 1.5646 8.4121 2.4375 13 2.4375 14.912 0 27.691-9.0791 33.156-22h-46.156zm2.0312 2.0312h40.812c-5.7308 10.649-16.885 17.938-29.844 17.938-3.8521 0-7.5181-0.7224-10.969-1.9062v-16.031z"/>
  <path id="path3832" style="color:#000000;fill:#fff" d="m34.688 971.92c-0.25864 0.10325-0.52554 0.20351-0.78125 0.3125l27.093 24.41v-1l-26.312-23.719zm10.125 15.562-31.156 27.719c-1.0169-3.2281-1.5957-6.6678-1.6562-10.219-0.0013 0.1261 0 0.2486 0 0.375 0 3.7735 0.57952 7.4259 1.6562 10.844l31.719-28.219-0.5625-0.5zm39.156 17.375c-0.04498 3.2899-0.50435 6.4803-1.375 9.5h-17.594v1h17.594c0.91477-3.1727 1.4062-6.5329 1.4062-10 0-0.1677-0.02897-0.3329-0.03125-0.5zm-3.2812 14.5c-5.6933 12.379-18.169 21-32.688 21-4.5879 0-8.9648-0.8729-13-2.4375v1c4.0352 1.5646 8.4121 2.4375 13 2.4375 14.912 0 27.691-9.0791 33.156-22h-0.46875zm-65.125 0.5312-0.34375 0.2813c3.2708 7.2232 8.8269 13.205 15.781 16.938v-1c-6.7207-3.6071-12.129-9.32-15.438-16.219z"/>
  <path id="path3837" style="opacity:.3;color:#000000" d="m48 968.36c-5.0055 0-9.7626 1.029-14.094 2.875l0.78125 0.6875c4.1222-1.6456 8.6025-2.5625 13.312-2.5625 4.5879 0 8.9648 0.87284 13 2.4375v-1c-4.0352-1.5647-8.4121-2.4375-13-2.4375zm17 4.25v1c11.171 5.9958 18.784 17.728 18.969 31.25 0.0023-0.1668 0.03125-0.3328 0.03125-0.5 0-13.734-7.6907-25.68-19-31.75zm-34.969 0.5625c-10.771 6.23-18.031 17.86-18.031 31.23 0 0.2095-0.0036 0.4162 0 0.625 0.136-13.175 7.3618-24.65 18.031-30.813l14.781 13.312 0.5625-0.5-15.344-13.812zm0.969 31.93-15.781 14.1c0.10989 0.2427 0.22873 0.4789 0.34375 0.7187l15.438-13.75v-1zm4 13.219v1h45.688c0.15437-0.3357 0.32448-0.6589 0.46875-1h-46.156z"/>
  <path id="path3842" style="opacity:.1;color:#000000" d="m48 968.36c-5.0055 0-9.7626 1.029-14.094 2.875l27.094 24.4v-24.84c-4.0352-1.5647-8.4121-2.4375-13-2.4375zm0 1.0938c4.1885 0 8.1852 0.77126 11.906 2.125v21.625l-23.875-21.5c3.751-1.3799 7.7358-2.25 11.969-2.25zm17 3.1562v41.75h17.594c0.91477-3.1727 1.4062-6.5329 1.4062-10 0-13.734-7.6907-25.68-19-31.75zm-34.969 0.5625c-10.771 6.23-18.031 17.86-18.031 31.23 0 3.7735 0.57952 7.4259 1.6562 10.844l31.719-28.21-15.344-13.82zm-0.09375 1.375 13.812 12.438-29.469 26.188c-0.73227-2.8189-1.1875-5.7644-1.1875-8.8125 0-12.668 6.7585-23.689 16.844-29.813zm36.156 0c10.067 6.1268 16.812 17.156 16.812 29.813 0 3.0872-0.43624 6.0565-1.1875 8.9062h-15.625v-38.719zm-35.093 30.56-15.781 14.1c3.2708 7.2232 8.8269 13.205 15.781 16.938v-30.969zm-1.0938 2.4375v26.562c-5.7485-3.509-10.409-8.605-13.344-14.719l13.344-11.844zm5.094 10.9v19.562c4.0352 1.5646 8.4121 2.4375 13 2.4375 14.912 0 27.691-9.0791 33.156-22h-46.156zm1.0938 1.0937h43.281c-5.6383 11.702-17.506 19.812-31.375 19.812-4.1885 0-8.1852-0.7712-11.906-2.125v-17.688z"/>
  <rect id="rect3003" style="opacity:.15;fill:#fff" transform="translate(98 3.8281e-7)" clip-path="url(#clipPath3009)" rx="25" ry="25" height="92" width="92" y="958.36" x="-96"/>
 </g>
</svg>
