<?xml version="1.0" encoding="UTF-8" standalone="no"?>
<!-- Created with Inkscape (http://www.inkscape.org/) -->
<svg id="svg11037" xmlns:rdf="http://www.w3.org/1999/02/22-rdf-syntax-ns#" xmlns="http://www.w3.org/2000/svg" height="96" width="96" version="1.1" xmlns:cc="http://creativecommons.org/ns#" xmlns:xlink="http://www.w3.org/1999/xlink" xmlns:dc="http://purl.org/dc/elements/1.1/">
 <defs id="defs11039">
  <linearGradient id="linearGradient11642" y2="1046.1" gradientUnits="userSpaceOnUse" y1="962.62" gradientTransform="matrix(1.15 0 0 1.15 -7.1999 -150.65)" x2="48" x1="48">
   <stop id="stop3702" style="stop-color:#e1e1e1" offset="0"/>
   <stop id="stop3704" style="stop-color:#f5f5f5" offset="1"/>
  </linearGradient>
  <radialGradient id="radialGradient3785" xlink:href="#linearGradient3765" gradientUnits="userSpaceOnUse" cy="47.718" cx="47.728" r="30.801"/>
  <linearGradient id="linearGradient3765">
   <stop id="stop3767" style="stop-color:#fff" offset="0"/>
   <stop id="stop3769" style="stop-color:#fff;stop-opacity:0" offset="1"/>
  </linearGradient>
  <radialGradient id="radialGradient3803" gradientUnits="userSpaceOnUse" cy="47.718" cx="47.728" r="30.801">
   <stop id="stop3799-8" style="stop-color:#ffd80e" offset="0"/>
   <stop id="stop3801" style="stop-color:#ffee0e;stop-opacity:0" offset="1"/>
  </radialGradient>
  <radialGradient id="radialGradient3819" gradientUnits="userSpaceOnUse" cy="47.718" cx="47.728" r="30.801">
   <stop id="stop3815" style="stop-color:#12d8ff" offset="0"/>
   <stop id="stop3817" style="stop-color:#12d8ff;stop-opacity:0" offset="1"/>
  </radialGradient>
  <radialGradient id="radialGradient3811" gradientUnits="userSpaceOnUse" cy="47.718" cx="47.728" r="30.801">
   <stop id="stop3807" style="stop-color:#7aff06" offset="0"/>
   <stop id="stop3809" style="stop-color:#6eff06;stop-opacity:0" offset="1"/>
  </radialGradient>
  <clipPath id="clipPath3009" clipPathUnits="userSpaceOnUse">
   <path id="path3011" style="opacity:.15;fill:#fff" d="m-2 956.36h-96v33.562l96 25.687v-59.25z"/>
  </clipPath>
 </defs>
 <metadata id="metadata11042">
  <rdf:RDF>
   <cc:Work rdf:about="">
    <dc:format>image/svg+xml</dc:format>
    <dc:type rdf:resource="http://purl.org/dc/dcmitype/StillImage"/>
    <dc:title/>
   </cc:Work>
  </rdf:RDF>
 </metadata>
 <g id="layer1" transform="translate(0 -956.36)">
  <rect id="rect3867" style="fill:url(#linearGradient11642)" rx="25" ry="25" height="92" width="92" y="958.36" x="2"/>
  <g id="g3085" transform="translate(0 956.36)">
   <path id="path3731" d="m48 12c-5.0055 0-9.7626 1.029-14.094 2.875l27.094 24.406v-24.843c-4.035-1.565-8.412-2.438-13-2.438z" style="color:#000000;fill:#f93538"/>
   <path id="path3729" d="m65 16.25v41.75h17.594c0.915-3.173 1.406-6.533 1.406-10 0-13.734-7.691-25.68-19-31.75z" style="color:#000000;fill:#fe7d08"/>
   <path id="path3727" d="m30.031 16.812c-10.771 6.222-18.031 17.855-18.031 31.188 0 3.7735 0.57952 7.4259 1.6562 10.844l31.719-28.219-15.344-13.813z" style="color:#000000;fill:#9864ae"/>
   <path id="path3723" d="m31 48.781-15.781 14.031c3.271 7.224 8.827 13.205 15.781 16.938v-30.969z" style="color:#000000;fill:#1d58a6"/>
   <path id="path3697" d="m35 62v19.562c4.035 1.565 8.412 2.438 13 2.438 14.912 0 27.691-9.079 33.156-22h-46.156z" style="color:#000000;fill:#35a328"/>
   <path id="path3795" d="m47.719 16.906c-3.4189 0-6.7084 0.56549-9.7812 1.5938l23.062 20.781v-19.343c-4.017-1.921-8.532-3.032-13.281-3.032z" style="opacity:.8;color:#000000;fill:url(#radialGradient3785)"/>
   <path id="path3793" d="m33.844 20.219c-10.039 5.0758-16.906 15.482-16.906 27.5 0 2.5564 0.31924 5.0312 0.90625 7.4062l27.531-24.5-11.531-10.406z" style="opacity:.8;color:#000000;fill:url(#radialGradient3785)"/>
   <path id="path3791" d="m65 22.219v35.781h11.75c1.1394-3.2168 1.7812-6.674 1.7812-10.281 0-10.607-5.3704-19.96-13.531-25.5z" style="opacity:.8;color:#000000;fill:url(#radialGradient3803)"/>
   <path id="path3789" d="m31 48.781-11.812 10.5c2.389 5.895 6.539 10.863 11.812 14.281v-24.781z" style="opacity:.8;color:#000000;fill:url(#radialGradient3819)"/>
   <path id="path3763" d="m35 62v13.75c3.8823 1.7658 8.1757 2.7812 12.719 2.7812 11.857 0 22.165-6.7103 27.312-16.531h-40.031z" style="opacity:.7;color:#000000;fill:url(#radialGradient3811)"/>
   <path id="path3846" d="m48 12c-5.0055 0-9.7626 1.029-14.094 2.875l27.094 24.406v-24.843c-4.035-1.565-8.412-2.438-13-2.438zm0 2.0312c3.8521 0 7.5181 0.72243 10.969 1.9062v18.812l-21.094-19c3.217-1.014 6.567-1.718 10.125-1.718zm17 2.219v41.75h17.594c0.915-3.173 1.406-6.533 1.406-10 0-13.734-7.691-25.68-19-31.75zm-34.969 0.562c-10.771 6.222-18.031 17.855-18.031 31.188 0 3.7735 0.57952 7.4259 1.6562 10.844l31.719-28.219-15.344-13.813zm-0.1875 2.5312 12.5 11.281l-27.469 24.438c-0.484-2.286-0.844-4.631-0.844-7.062 0-12.086 6.324-22.631 15.812-28.656zm37.188 0.5625c8.9971 6.1099 14.938 16.382 14.938 28.094 0 2.7553-0.38222 5.4057-1 7.9688h-13.938v-36.062zm-36.032 28.875-15.781 14.031c3.271 7.224 8.827 13.205 15.781 16.938v-30.969zm-2.0312 4.5v22.75c-4.729-3.232-8.582-7.628-11.188-12.781l11.188-9.9688zm6.031 8.719v19.562c4.035 1.565 8.412 2.438 13 2.438 14.912 0 27.691-9.079 33.156-22h-46.156zm2.0312 2.0312h40.812c-5.73 10.649-16.884 17.938-29.843 17.938-3.8521 0-7.5181-0.72243-10.969-1.9062v-16.031z" style="opacity:.05;color:#000000"/>
   <path id="path3832" d="m34.688 15.562c-0.25864 0.10325-0.52554 0.20351-0.78125 0.3125l27.093 24.407v-1l-26.312-23.719zm10.124 15.563-31.156 27.719c-1.017-3.228-1.595-6.668-1.656-10.219-0.0013 0.12609 0 0.2486 0 0.375 0 3.7735 0.57952 7.4259 1.6562 10.844l31.719-28.219-0.563-0.5zm39.157 17.375c-0.04498 3.2899-0.50435 6.4804-1.375 9.5h-17.594v1h17.594c0.915-3.173 1.406-6.533 1.406-10 0-0.168-0.029-0.333-0.031-0.5zm-3.281 14.5c-5.694 12.379-18.17 21-32.688 21-4.588 0-8.965-0.873-13-2.438v1c4.035 1.565 8.412 2.438 13 2.438 14.912 0 27.691-9.079 33.156-22h-0.46875zm-65.125 0.53125-0.34375 0.28125c3.271 7.224 8.827 13.205 15.781 16.938v-1c-6.721-3.607-12.129-9.32-15.438-16.219z" style="color:#000000;fill:#fff"/>
   <path id="path3837" d="m48 12c-5.0055 0-9.7626 1.029-14.094 2.875l0.78125 0.6875c4.123-1.645 8.603-2.562 13.313-2.562 4.5879 0 8.9648 0.87284 13 2.4375v-1c-4.035-1.565-8.412-2.438-13-2.438zm17 4.25v1c11.171 5.996 18.784 17.728 18.969 31.25 0.002-0.167 0.031-0.333 0.031-0.5 0-13.734-7.691-25.68-19-31.75zm-34.969 0.562c-10.771 6.222-18.031 17.855-18.031 31.188 0 0.20954-0.0036 0.41623 0 0.625 0.136-13.175 7.3618-24.65 18.031-30.812l14.781 13.312 0.563-0.5-15.344-13.813zm0.969 31.969-15.781 14.031c0.10989 0.24269 0.22873 0.4789 0.34375 0.71875l15.437-13.75v-1zm4 13.219v1h45.688c0.15437-0.33564 0.32448-0.65891 0.46875-1h-46.157z" style="opacity:.3;color:#000000"/>
   <path id="path3842" d="m48 12c-5.0055 0-9.7626 1.029-14.094 2.875l27.094 24.406v-24.843c-4.035-1.565-8.412-2.438-13-2.438zm0 1.0938c4.1885 0 8.1852 0.77126 11.906 2.125v21.625l-23.875-21.5c3.751-1.3799 7.7358-2.25 11.969-2.25zm17 3.156v41.75h17.594c0.915-3.173 1.406-6.533 1.406-10 0-13.734-7.691-25.68-19-31.75zm-34.969 0.562c-10.771 6.222-18.031 17.855-18.031 31.188 0 3.7735 0.57952 7.4259 1.6562 10.844l31.719-28.219-15.344-13.813zm-0.093 1.376 13.812 12.437-29.469 26.187c-0.732-2.818-1.187-5.764-1.187-8.812 0-12.668 6.7585-23.689 16.844-29.812zm36.156 0c10.067 6.1268 16.812 17.156 16.812 29.812 0 3.0873-0.43624 6.0565-1.1875 8.9062h-15.625v-38.719zm-35.094 30.593-15.781 14.031c3.271 7.224 8.827 13.205 15.781 16.938v-30.969zm-1.0938 2.4375v26.562c-5.748-3.508-10.409-8.604-13.344-14.718l13.344-11.843zm5.094 10.782v19.562c4.035 1.565 8.412 2.438 13 2.438 14.912 0 27.691-9.079 33.156-22h-46.156zm1.0938 1.0938h43.281c-5.638 11.701-17.506 19.812-31.375 19.812-4.1885 0-8.1852-0.77126-11.906-2.125v-17.688z" style="opacity:.1;color:#000000"/>
   <g id="text2920" style="fill:#333">
    <path id="path2939" d="m43.724 49.728h7.8656l-1.952-10.191-5.914 10.191m-7.5642 7.7651 0.28706-1.5214h1.8803l11.511-19.908h2.4113l3.7893 19.908h2.0956l-0.28706 1.5214h-7.7938l0.28706-1.5214h2.3826l-0.87555-4.7079h-9.0138l-2.7128 4.7079h2.3539l-0.28706 1.5214h-6.0284"/>
   </g>
  </g>
  <rect id="rect3003" style="opacity:.15;fill:#fff" transform="translate(98 3.8281e-7)" clip-path="url(#clipPath3009)" rx="25" ry="25" height="92" width="92" y="958.36" x="-96"/>
 </g>
</svg>
