<?xml version="1.0" encoding="UTF-8" standalone="no"?>
<!-- Created with Inkscape (http://www.inkscape.org/) -->
<svg id="svg11037" xmlns:rdf="http://www.w3.org/1999/02/22-rdf-syntax-ns#" xmlns="http://www.w3.org/2000/svg" height="96" width="96" version="1.1" xmlns:cc="http://creativecommons.org/ns#" xmlns:xlink="http://www.w3.org/1999/xlink" xmlns:dc="http://purl.org/dc/elements/1.1/">
 <defs id="defs11039">
  <linearGradient id="linearGradient11642" y2="1046.1" gradientUnits="userSpaceOnUse" y1="962.62" gradientTransform="matrix(1.15 0 0 1.15 -7.1999 -150.65)" x2="48" x1="48">
   <stop id="stop3189" style="stop-color:#892a77" offset="0"/>
   <stop id="stop3191" style="stop-color:#c16bae" offset="1"/>
  </linearGradient>
  <clipPath id="clipPath3009" clipPathUnits="userSpaceOnUse">
   <path id="path3011" style="opacity:.15;fill:#fff" d="m-2 956.36h-96v33.562l96 25.687v-59.25z"/>
  </clipPath>
 </defs>
 <metadata id="metadata11042">
  <rdf:RDF>
   <cc:Work rdf:about="">
    <dc:format>image/svg+xml</dc:format>
    <dc:type rdf:resource="http://purl.org/dc/dcmitype/StillImage"/>
    <dc:title/>
   </cc:Work>
  </rdf:RDF>
 </metadata>
 <g id="layer1" transform="translate(0 -956.36)">
  <rect id="rect3867" style="fill:url(#linearGradient11642)" rx="25" ry="25" height="92" width="92" y="958.36" x="2"/>
  <g id="g3057" transform="translate(-.031217 963.39)">
   <path id="path4082" d="m55.344 16.031a0.9813 0.9813 0 0 0 -0.625 1.5312c1.3181 1.9113 2.4415 3.7743 3.375 5.625 0.93129 1.8463 1.6943 3.7339 2.2812 5.625a0.9813 0.9813 0 0 0 0 0.03125c0.6048 1.8962 1.0671 3.8106 1.3438 5.8125 0.27717 1.9892 0.40624 4.1159 0.40625 6.3438-0.000007 2.2449-0.12884 4.3678-0.40625 6.375-0.27657 1.9848-0.73852 3.8838-1.3438 5.7812a0.9813 0.9813 0 0 0 0 0.03125c-0.5865 1.8898-1.3504 3.7648-2.2812 5.5938-0.93445 1.8525-2.0565 3.728-3.375 5.6562a0.9813 0.9813 0 0 0 0.8125 1.5312h7.0625a0.9813 0.9813 0 0 0 0.8125 -0.40625c1.3143-1.8947 2.446-3.8013 3.4062-5.6875 0.95939-1.8845 1.7564-3.8246 2.375-5.8125 0.0029-0.0092-0.0028-0.02208 0-0.03125 0.63199-1.9868 1.1146-4.0745 1.4062-6.2188 0.30954-2.1669 0.43748-4.4261 0.4375-6.8438-0.000015-2.4231-0.13034-4.7156-0.4375-6.8438-0.0014-0.0103 0.0014-0.02095 0-0.03125-0.2921-2.1336-0.77699-4.195-1.4062-6.1562-0.0029-0.0092 0.0029-0.02204 0-0.03125-0.61905-1.989-1.4151-3.9129-2.375-5.7812-0.96025-1.8862-2.0919-3.7928-3.4062-5.6875a0.9813 0.9813 0 0 0 -0.8125 -0.40625h-7.0625a0.9813 0.9813 0 0 0 -0.1875 0zm-29.531 10a0.9813 0.9813 0 0 0 -0.782 0.969v8a0.9813 0.9813 0 0 0 0.969 0.969h8a0.9813 0.9813 0 0 0 0.969 -0.969v-8a0.9813 0.9813 0 0 0 -0.969 -0.969h-8a0.9813 0.9813 0 0 0 -0.1875 0zm14 11a0.9813 0.9813 0 0 0 -0.782 0.969v6a0.9813 0.9813 0 0 0 0.969 0.969h14a0.9813 0.9813 0 0 0 0.969 -0.969v-6a0.9813 0.9813 0 0 0 -0.969 -0.969h-14a0.9813 0.9813 0 0 0 -0.1875 0zm-13.875 9a0.9813 0.9813 0 0 0 -0.782 0.969v7.9062a0.9813 0.9813 0 0 0 0.969 0.969h2.4062c-0.03863 0.17048-0.02553 0.28933-0.09375 0.5625-0.16454 0.65879-0.43833 1.3379-0.75 2.0312-0.31566 0.70214-0.64477 1.3948-1.0625 2.0312a0.9813 0.9813 0 0 0 -0.03125 0c-0.41 0.651-0.85 1.272-1.344 1.875a0.9813 0.9813 0 0 0 0.75 1.594h5.0312a0.9813 0.9813 0 0 0 0.78125 -0.375c0.47532-0.6499 0.9485-1.3411 1.3438-2.0938 0.39691-0.75588 0.72782-1.6077 1-2.5 0.27378-0.87855 0.46075-1.8026 0.59375-2.8125 0.0014-0.01075-0.0014-0.02049 0-0.03125 0.15209-1.0329 0.21874-2.1826 0.21875-3.4062v-5.75a0.9813 0.9813 0 0 0 -0.968 -0.969h-7.875a0.9813 0.9813 0 0 0 -0.1875 0z" style="opacity:.15;fill:#5e1a50"/>
   <path id="path4078" d="m55.531 17c1.341 1.9445 2.482 3.8558 3.4375 5.75 0.95547 1.8942 1.7403 3.8368 2.3438 5.7812 0.62022 1.9445 1.09 3.9382 1.375 6 0.28496 2.0451 0.40624 4.2058 0.40625 6.4688-0.000007 2.2797-0.12129 4.4382-0.40625 6.5-0.28497 2.0451-0.75478 4.0243-1.375 5.9688-0.60346 1.9445-1.3883 3.8726-2.3438 5.75-0.95548 1.8942-2.0965 3.82-3.4375 5.7812h7.0625c1.2907-1.8607 2.405-3.7186 3.3438-5.5625 0.9387-1.8439 1.709-3.743 2.3125-5.6875 0.62021-1.9445 1.09-3.9672 1.375-6.0625 0.30171-2.1121 0.43748-4.3384 0.4375-6.7188-0.001-2.397-0.136-4.64-0.438-6.719-0.285-2.095-0.755-4.104-1.375-6.031-0.603-1.945-1.374-3.829-2.312-5.657-0.939-1.843-2.054-3.701-3.344-5.562h-7.0625zm-29.531 10v8h8v-8h-8zm14 11v6h14v-6h-14zm-13.875 9v7.9062h3.5312c-0.000009 0.71349-0.09861 1.0499-0.28125 1.7812-0.18266 0.73132-0.45249 1.4562-0.78125 2.1875-0.32878 0.73132-0.69964 1.4606-1.1562 2.1562-0.438 0.696-0.926 1.345-1.437 1.969h5.0312c0.45661-0.62431 0.88469-1.2731 1.25-1.9688 0.36528-0.69566 0.68178-1.4742 0.9375-2.3125 0.25569-0.82052 0.43464-1.7065 0.5625-2.6875 0.146-0.981 0.219-2.086 0.219-3.281v-5.75h-7.875z" style="opacity:.3;fill:#5e1a50"/>
   <path id="path4075" d="m55.531 16c1.341 1.9445 2.482 3.8558 3.4375 5.75 0.95547 1.8942 1.7403 3.8368 2.3438 5.7812 0.62022 1.9445 1.09 3.9382 1.375 6 0.28496 2.0451 0.40624 4.2058 0.40625 6.4688-0.000007 2.2797-0.12129 4.4382-0.40625 6.5-0.28497 2.0451-0.75478 4.0243-1.375 5.9688-0.60346 1.9445-1.3883 3.8726-2.3438 5.75-0.95548 1.8942-2.0965 3.82-3.4375 5.7812h7.0625c1.2907-1.8607 2.405-3.7186 3.3438-5.5625 0.9387-1.8439 1.709-3.743 2.3125-5.6875 0.62021-1.9445 1.09-3.9672 1.375-6.0625 0.30171-2.1121 0.43748-4.3384 0.4375-6.7188-0.001-2.397-0.136-4.64-0.438-6.719-0.285-2.095-0.755-4.104-1.375-6.031-0.603-1.945-1.374-3.829-2.312-5.657-0.939-1.843-2.054-3.701-3.344-5.562h-7.0625zm-29.531 10v8h8v-8h-8zm14 11v6h14v-6h-14zm-13.875 9v7.9062h3.5312c-0.000009 0.71349-0.09861 1.0499-0.28125 1.7812-0.18266 0.73132-0.45249 1.4562-0.78125 2.1875-0.32878 0.73132-0.69964 1.4606-1.1562 2.1562-0.438 0.696-0.926 1.345-1.437 1.969h5.0312c0.45661-0.62431 0.88469-1.2731 1.25-1.9688 0.36528-0.69566 0.68178-1.4742 0.9375-2.3125 0.25569-0.82052 0.43464-1.7065 0.5625-2.6875 0.146-0.981 0.219-2.086 0.219-3.281v-5.75h-7.875z" style="fill:#fff"/>
  </g>
  <rect id="rect3003" style="opacity:.15;fill:#fff" transform="translate(98 3.8281e-7)" clip-path="url(#clipPath3009)" rx="25" ry="25" height="92" width="92" y="958.36" x="-96"/>
 </g>
</svg>
