<?xml version="1.0" encoding="UTF-8" standalone="no"?>
<!-- Created with Inkscape (http://www.inkscape.org/) -->
<svg id="svg11037" xmlns:rdf="http://www.w3.org/1999/02/22-rdf-syntax-ns#" xmlns="http://www.w3.org/2000/svg" height="96" width="96" version="1.1" xmlns:cc="http://creativecommons.org/ns#" xmlns:xlink="http://www.w3.org/1999/xlink" xmlns:dc="http://purl.org/dc/elements/1.1/">
 <defs id="defs11039">
  <linearGradient id="linearGradient3617" y2="5.9877" gradientUnits="userSpaceOnUse" x2="48" y1="90" x1="48">
   <stop id="stop3702" style="stop-color:#502d16" offset="0"/>
   <stop id="stop3704" style="stop-color:#8a512c" offset="1"/>
  </linearGradient>
  <linearGradient id="linearGradient3792" y2="15.502" gradientUnits="userSpaceOnUse" x2="32" gradientTransform="matrix(1 0 0 .71875 0 13.5)" y1="80" x1="32">
   <stop id="stop3679-0" offset="0"/>
   <stop id="stop3681-3" style="stop-color:#311e12" offset="1"/>
  </linearGradient>
  <radialGradient id="radialGradient3619" gradientUnits="userSpaceOnUse" cy="90.172" cx="48" gradientTransform="matrix(1.1573 0 0 .99591 -7.551 .19713)" r="42">
   <stop id="stop3739" style="stop-color:#fff" offset="0"/>
   <stop id="stop3741" style="stop-color:#fff;stop-opacity:0" offset="1"/>
  </radialGradient>
  <linearGradient id="linearGradient4058" y2="15.5" xlink:href="#linearGradient4052" spreadMethod="reflect" gradientUnits="userSpaceOnUse" x2="90" y1="15.5" x1="47.997"/>
  <linearGradient id="linearGradient4052">
   <stop id="stop4054" style="stop-color:#f4a615" offset="0"/>
   <stop id="stop4056" style="stop-color:#f47d15" offset="1"/>
  </linearGradient>
  <linearGradient id="linearGradient4076" y2="25.5" xlink:href="#linearGradient4052" spreadMethod="reflect" gradientUnits="userSpaceOnUse" x2="90" y1="25.5" x1="47.973"/>
  <linearGradient id="linearGradient4122" y2="15.5" xlink:href="#linearGradient4052" spreadMethod="reflect" gradientUnits="userSpaceOnUse" x2="90" gradientTransform="matrix(1,0,0,-1,0,96)" y1="15.5" x1="47.997"/>
  <linearGradient id="linearGradient4074" y2="70.5" xlink:href="#linearGradient4052" spreadMethod="reflect" gradientUnits="userSpaceOnUse" x2="90" y1="70.5" x1="47.973"/>
  <clipPath id="clipPath3613">
   <rect id="rect3615" style="fill:#fff" rx="6" ry="6" height="84" width="84" y="6" x="6"/>
  </clipPath>
  <filter id="filter3794" height="1.384" width="1.384" color-interpolation-filters="sRGB" y="-.192" x="-.192">
   <feGaussianBlur id="feGaussianBlur3796" stdDeviation="5.28"/>
  </filter>
  <linearGradient id="linearGradient4148" y2="64.022" gradientUnits="userSpaceOnUse" x2="48" y1="41" x1="48">
   <stop id="stop4144" style="stop-color:#f4a615" offset="0"/>
   <stop id="stop4146" style="stop-color:#f4a615;stop-opacity:0" offset="1"/>
  </linearGradient>
  <linearGradient id="linearGradient4168" y2="43" xlink:href="#linearGradient4052" spreadMethod="reflect" gradientUnits="userSpaceOnUse" x2="58" y1="43" x1="48"/>
  <linearGradient id="linearGradient4176" y2="67" xlink:href="#linearGradient4052" gradientUnits="userSpaceOnUse" x2="48" y1="31.772" x1="48"/>
  <clipPath id="clipPath3915" clipPathUnits="userSpaceOnUse">
   <rect id="rect3917" style="fill:url(#linearGradient3919)" rx="22.826" ry="22.826" height="84" width="84" y="6" x="6"/>
  </clipPath>
  <linearGradient id="linearGradient3919" y2="1046.1" gradientUnits="userSpaceOnUse" x2="48" gradientTransform="matrix(1.05 0 0 1.05 -2.4 -1006.6)" y1="962.62" x1="48">
   <stop id="stop3702-3-5" style="stop-color:#502d16" offset="0"/>
   <stop id="stop3704-3-1" style="stop-color:#9b5b31" offset="1"/>
  </linearGradient>
  <clipPath id="clipPath3009" clipPathUnits="userSpaceOnUse">
   <path id="path3011" style="opacity:.15;fill:#fff" d="m-2 956.36h-96v33.562l96 25.687v-59.25z"/>
  </clipPath>
 </defs>
 <metadata id="metadata11042">
  <rdf:RDF>
   <cc:Work rdf:about="">
    <dc:format>image/svg+xml</dc:format>
    <dc:type rdf:resource="http://purl.org/dc/dcmitype/StillImage"/>
    <dc:title/>
   </cc:Work>
  </rdf:RDF>
 </metadata>
 <g id="layer1" transform="translate(0 -956.36)">
  <g id="g3116" clip-path="url(#clipPath3915)" transform="matrix(1.0952 0 0 1.0952 -4.5714 951.79)">
   <g id="layer1-2">
    <rect id="rect2419" style="fill:url(#linearGradient3617)" rx="6" ry="6" height="84" width="84" y="6" x="6"/>
    <rect id="rect3757" style="color:#000000;fill:url(#linearGradient3792)" height="46" width="84" y="25" x="6"/>
    <path id="path3615" d="m12 90c-3.324 0-6-2.676-6-6v-2-68-2c0-0.33472 0.04135-0.6507 0.09375-0.96875 0.0487-0.2956 0.09704-0.59692 0.1875-0.875 0.0099-0.03 0.0209-0.063 0.0313-0.094 0.0989-0.2873 0.2349-0.547 0.375-0.812 0.1446-0.2735 0.3156-0.5356 0.5-0.7812 0.1844-0.2457 0.3738-0.4735 0.5937-0.6876 0.44-0.428 0.943-0.8145 1.5-1.0937 0.2786-0.1396 0.5735-0.2469 0.8748-0.3437-0.256 0.1002-0.4865 0.2362-0.7185 0.375-0.00741 0.0044-0.023866-0.0045-0.03125 0-0.031933 0.0193-0.062293 0.04251-0.09375 0.0625-0.1204 0.0767-0.23102 0.16351-0.34375 0.25-0.10617 0.0808-0.21328 0.16111-0.3125 0.25-0.1779 0.1614-0.3474 0.3453-0.5 0.5312-0.1075 0.1303-0.2183 0.2653-0.3124 0.4063-0.0251 0.0383-0.0385 0.0858-0.0626 0.125-0.0647 0.103-0.1302 0.2045-0.1874 0.3124-0.1011 0.1948-0.2057 0.4158-0.2813 0.625-0.008 0.0219-0.0236 0.0406-0.0313 0.0626-0.0318 0.0919-0.0358 0.1868-0.0624 0.2812-0.0304 0.1066-0.0704 0.203-0.0938 0.3125-0.0729 0.3415-0.125 0.6985-0.125 1.0625v2 68 2c0 2.7818 2.2182 5 5 5h2 68 2c2.7818 0 5-2.2182 5-5v-2-68-2c0-0.364-0.052-0.721-0.125-1.0625-0.044-0.2069-0.088-0.3977-0.156-0.5937-0.008-0.022-0.024-0.0407-0.031-0.0626-0.063-0.1737-0.139-0.3674-0.219-0.5312-0.042-0.0828-0.079-0.17-0.125-0.25-0.055-0.0972-0.127-0.1884-0.188-0.2812-0.094-0.141-0.205-0.276-0.312-0.4063-0.143-0.1745-0.303-0.347-0.469-0.5-0.011-0.0102-0.02-0.0211-0.031-0.0313-0.139-0.1255-0.285-0.2344-0.438-0.3437-0.102-0.0731-0.204-0.1534-0.312-0.2187-0.0074-0.0045-0.02384 0.0044-0.03125 0-0.23204-0.13873-0.46255-0.27478-0.71875-0.375 0.30153 0.0968 0.59646 0.20414 0.875 0.34375 0.55709 0.27922 1.0601 0.66569 1.5 1.0938 0.21997 0.21403 0.40937 0.44186 0.59375 0.6875s0.35541 0.50774 0.5 0.78125c0.14012 0.26505 0.27614 0.52473 0.375 0.8125 0.01041 0.03078 0.02133 0.06274 0.03125 0.09375 0.09046 0.27808 0.1388 0.5794 0.1875 0.875 0.053 0.318 0.094 0.634 0.094 0.969v2 68 2c0 3.324-2.676 6-6 6h-72z" style="opacity:.15;fill:url(#radialGradient3619)"/>
    <path id="path3935" d="m6.9688 9v8 1h7v-1h-6v-7h12v0.03125h1v11.969h0.031 0.969 0.031 1 12 1v-8-1h-7v1h6v7h-12v-0.03125h-1v-11.969h-0.031-0.969-0.03125-1-12-1zm18 0v8 1h7v-1h-6v-7h12v0.03125h1v11.969h0.031 0.969 0.031 1 12 1v-8-1h-7v1h6v7h-12v-0.03125h-1v-11.969h-0.031-0.969-0.03125-1-12-1zm18 0v8 1h7v-1h-6v-7h12v0.03125h1v11.969h0.031 0.969 0.031 1 12 1v-8-1h-7v1h6v7h-12v-0.03125h-1v-11.969h-0.031-0.969-0.03125-1-12-1zm18 0v8 1h7v-1h-6v-7h12v0.03125h1v11.969h0.031 0.969 0.031 1 12 1v-8-1h-7v1h6v7h-12v-0.03125h-1v-11.969h-0.031-0.969-0.03125-1-12-1zm18 0v8 1h7v-1h-6v-7h9.6875c-0.123-0.3502-0.286-0.6833-0.468-1h-9.2188-1zm-67.969 4v1h6v7h-11v1h11 1v-8-1h-7z" style="color:#000000;fill:url(#linearGradient4058)"/>
    <path id="path3933" d="m6 26v-1h84v1h-84z" style="color:#000000;fill:url(#linearGradient4076)"/>
    <path id="path4060" d="m6.9688 87v-8-1h7v1h-6v7h12v-0.03125h1v-11.969h0.031 0.969 0.031 1 12 1v8 1h-7v-1h6v-7h-12v0.03125h-1v11.969h-0.031-0.969-0.03125-1-12-1zm18 0v-8-1h7v1h-6v7h12v-0.03125h1v-11.969h0.031 0.969 0.031 1 12 1v8 1h-7v-1h6v-7h-12v0.03125h-1v11.969h-0.031-0.969-0.03125-1-12-1zm18 0v-8-1h7v1h-6v7h12v-0.03125h1v-11.969h0.031 0.969 0.031 1 12 1v8 1h-7v-1h6v-7h-12v0.03125h-1v11.969h-0.031-0.969-0.03125-1-12-1zm18 0v-8-1h7v1h-6v7h12v-0.03125h1v-11.969h0.031 0.969 0.031 1 12 1v8 1h-7v-1h6v-7h-12v0.03125h-1v11.969h-0.031-0.969-0.03125-1-12-1zm18 0v-8-1h7v1h-6v7h9.6875c-0.12321 0.35023-0.28596 0.6833-0.46875 1h-9.2188-1zm-67.969-4v-1h6v-7h-11v-1h11 1v8 1h-7z" style="color:#000000;fill:url(#linearGradient4122)"/>
    <path id="path3931" d="m6 70v1h84v-1h-84z" style="color:#000000;fill:url(#linearGradient4074)"/>
   </g>
   <g id="layer5">
    <rect id="rect3171" style="opacity:.15;filter:url(#filter3794);stroke:#fff;stroke-linecap:round;stroke-width:.5;fill:#c87137" clip-path="url(#clipPath3613)" rx="12" ry="12" height="66" width="66" y="15" x="15"/>
   </g>
   <path id="rect4135" d="m42 41v21h1v-21h-1zm4 0v21h1v-21h-1zm4 0v21h1v-21h-1zm4 0v21h1v-21h-1z" style="color:#000000;fill:url(#linearGradient4148)"/>
   <rect id="rect4131" style="color:#000000;fill:url(#linearGradient4168)" height="2" width="20" y="42" x="38"/>
   <path id="path4126" d="m32 32v7h3c0-5.4522 2.2504-4.1983 8-4 0 0-10 7-10 15 0 10.593 9.6704 13.789 14.406 13.969 0.20536 0.01794 0.42724 0.02686 0.6875 0.03125 0.21815-0.0055 0.41633-0.01575 0.59375-0.03125 4.735-0.18 14.406-3.376 14.406-13.969 0-8-10-15-10-15 5.7496-0.19826 8-1.4522 8 4h3v-7h-13v3c9.7148 8.2279 9.9862 26.915-3 27-0.027-0.002-0.07 0-0.094 0-12.986-0.085-12.715-18.772-3-27v-3h-13z" style="fill:url(#linearGradient4176)"/>
   <path id="path4178" d="m32 32v1h13v-1h-13zm19.094 0v1h13v-1h-13zm-9.3125 3.9375c-2.631 2.123-8.782 7.755-8.782 14.062 0 0.19235 0.02496 0.375 0.03125 0.5625 0.352-7.816 9.969-14.562 9.969-14.562-0.438-0.015-0.821-0.039-1.219-0.062zm12.531 0c-0.39798 0.02393-0.7807 0.0474-1.2188 0.0625 0 0 9.6169 6.7463 9.9688 14.562 0.0063-0.1875 0.03125-0.37015 0.03125-0.5625 0-6.3074-6.1509-11.939-8.7812-14.062zm-16.344 15.031c-0.188 6.4 2.947 11.985 10.031 12.031 0.02419 0.000185 0.06721-0.0023 0.09375 0 7.084-0.046 10.218-5.631 10.031-12.031-0.154 5.972-3.318 10.987-10.031 11.031-0.027-0.002-0.07 0-0.094 0-6.714-0.044-9.877-5.059-10.031-11.031z" style="opacity:.3;fill:#fff"/>
   <rect id="rect4187" style="color:#000000;fill:#ffda45" height="1" width="1" y="41" x="42"/>
   <rect id="rect4189" style="color:#000000;fill:#ffda45" height="1" width="1" y="41" x="46"/>
   <rect id="rect4191" style="color:#000000;fill:#ffda45" height="1" width="1" y="41" x="50"/>
   <rect id="rect4193" style="color:#000000;fill:#ffda45" height="1" width="1" y="41" x="54"/>
  </g>
  <rect id="rect3003" style="opacity:.15;fill:#fff" transform="translate(98 3.8281e-7)" clip-path="url(#clipPath3009)" rx="25" ry="25" height="92" width="92" y="958.36" x="-96"/>
 </g>
</svg>
