<?xml version="1.0" encoding="UTF-8" standalone="no"?>
<!-- Created with Inkscape (http://www.inkscape.org/) -->
<svg id="svg11037" xmlns:rdf="http://www.w3.org/1999/02/22-rdf-syntax-ns#" xmlns="http://www.w3.org/2000/svg" height="96" width="96" version="1.1" xmlns:cc="http://creativecommons.org/ns#" xmlns:xlink="http://www.w3.org/1999/xlink" xmlns:dc="http://purl.org/dc/elements/1.1/">
 <defs id="defs11039">
  <linearGradient id="linearGradient3885" y2="5.9877" gradientUnits="userSpaceOnUse" x2="48" gradientTransform="matrix(1.0172 0 0 1.0172 -1.1034 -1.1034)" y1="90" x1="48">
   <stop id="stop3189" offset="0"/>
   <stop id="stop3191" style="stop-color:#515151" offset="1"/>
  </linearGradient>
  <radialGradient id="radialGradient3804" xlink:href="#linearGradient3806" gradientUnits="userSpaceOnUse" cy="48" cx="48" gradientTransform="matrix(1.1429 0 0 .85714 -6.8571 3.8571)" r="28"/>
  <linearGradient id="linearGradient3806">
   <stop id="stop3808" style="stop-color:#f7e0c0" offset="0"/>
   <stop id="stop3810" style="stop-color:#b67e35" offset="1"/>
  </linearGradient>
  <radialGradient id="radialGradient3834" xlink:href="#linearGradient3806" gradientUnits="userSpaceOnUse" cy="48" cx="48" gradientTransform="matrix(1.1429 0 0 .85714 -6.8571 57.857)" r="28"/>
  <radialGradient id="radialGradient3832" xlink:href="#linearGradient3806" gradientUnits="userSpaceOnUse" cy="48" cx="48" gradientTransform="matrix(1.1429 0 0 -.85714 -6.8571 38.143)" r="28"/>
  <clipPath id="clipPath3972">
   <path id="path3974" style="fill:#f00" d="m22 24c-1.108 0-2 0.93035-2 2.0938v9.906h56v-9.906c0-1.164-0.892-2.094-2-2.094h-52z"/>
  </clipPath>
  <linearGradient id="linearGradient3968" y2="52.388" gradientUnits="userSpaceOnUse" x2="48.495" y1="90.435" x1="48.495">
   <stop id="stop3923" style="stop-color:#6b3715" offset="0"/>
   <stop id="stop3925" style="stop-color:#6b3715;stop-opacity:0" offset="1"/>
  </linearGradient>
  <clipPath id="clipPath4000">
   <path id="path4002" style="fill:#f00" d="m22 72c-1.108 0-2-0.93035-2-2.0938v-9.906h56v9.9062c0 1.164-0.892 2.094-2 2.094h-52z"/>
  </clipPath>
  <linearGradient id="linearGradient3613" y2="138.66" xlink:href="#linearGradient3737" gradientUnits="userSpaceOnUse" x2="48" y1="20.221" x1="48"/>
  <linearGradient id="linearGradient3737">
   <stop id="stop3739" style="stop-color:#fff" offset="0"/>
   <stop id="stop3741" style="stop-color:#fff;stop-opacity:0" offset="1"/>
  </linearGradient>
  <clipPath id="clipPath3613">
   <rect id="rect3615" style="fill:#fff" rx="6" ry="6" height="84" width="84" y="6" x="6"/>
  </clipPath>
  <filter id="filter3794" height="1.384" width="1.384" color-interpolation-filters="sRGB" y="-.192" x="-.192">
   <feGaussianBlur id="feGaussianBlur3796" stdDeviation="5.28"/>
  </filter>
  <radialGradient id="radialGradient3619" xlink:href="#linearGradient3737" gradientUnits="userSpaceOnUse" cy="90.172" cx="48" gradientTransform="matrix(1.1573 0 0 .99591 -7.551 .19713)" r="42"/>
  <clipPath id="clipPath3162" clipPathUnits="userSpaceOnUse">
   <rect id="rect3164" style="fill:url(#linearGradient3166)" rx="22.826" ry="22.826" height="84" width="84" y="6" x="6"/>
  </clipPath>
  <linearGradient id="linearGradient3166" y2="1046.1" gradientUnits="userSpaceOnUse" x2="48" gradientTransform="matrix(1.05 0 0 1.05 -2.4 -1006.6)" y1="962.62" x1="48">
   <stop id="stop3797" style="stop-color:#13a6fd" offset="0"/>
   <stop id="stop3799" style="stop-color:#2975b6" offset="1"/>
  </linearGradient>
  <clipPath id="clipPath3009" clipPathUnits="userSpaceOnUse">
   <path id="path3011" style="opacity:.15;fill:#fff" d="m-2 956.36h-96v33.562l96 25.687v-59.25z"/>
  </clipPath>
 </defs>
 <metadata id="metadata11042">
  <rdf:RDF>
   <cc:Work rdf:about="">
    <dc:format>image/svg+xml</dc:format>
    <dc:type rdf:resource="http://purl.org/dc/dcmitype/StillImage"/>
    <dc:title/>
   </cc:Work>
  </rdf:RDF>
 </metadata>
 <g id="layer1" transform="translate(0 -956.36)">
  <g id="g3084" clip-path="url(#clipPath3162)" transform="matrix(1.0952 0 0 1.0952 -4.5714 951.79)">
   <g id="layer1-6">
    <path id="rect2419" d="m12 6c-3.324 0-6 2.676-6 6v72c0 3.324 2.676 6 6 6h72c3.324 0 6-2.676 6-6v-72c0-3.324-2.676-6-6-6h-72zm-2 4h6v4h-6v-4zm70 0h6v4h-6v-4zm-70 8h6v4h-6v-4zm70 0h6v4h-6v-4zm-70 8h6v4h-6v-4zm70 0h6v4h-6v-4zm-70 8h6v4h-6v-4zm70 0h6v4h-6v-4zm-70 8h6v4h-6v-4zm70 0h6v4h-6v-4zm-70 8h6v4h-6v-4zm70 0h6v4h-6v-4zm-70 8h6v4h-6v-4zm70 0h6v4h-6v-4zm-70 8h6v4h-6v-4zm70 0h6v4h-6v-4zm-70 8h6v4h-6v-4zm70 0h6v4h-6v-4zm-70 8h6v4h-6v-4zm70 0h6v4h-6v-4z" style="fill:url(#linearGradient3885)"/>
   </g>
   <g id="layer4">
    <rect id="rect3796" style="fill:url(#radialGradient3804)" rx="2" ry="2.1" height="48" width="56" y="24" x="20"/>
    <path id="rect3822" d="m22 78c-1.108 0-2 0.93035-2 2.0938v9.906h56v-9.906c0-1.164-0.892-2.094-2-2.094h-52z" style="fill:url(#radialGradient3834)"/>
    <path id="path3830" d="m22 18c-1.108 0-2-0.93035-2-2.0938v-9.906h56v9.906c0 1.164-0.892 2.094-2 2.094h-52z" style="fill:url(#radialGradient3832)"/>
    <path id="path3355" d="m82.204 73.388a9.1021 9.1021 0 1 1 -18.204 0 9.1021 9.1021 0 1 1 18.204 0z" style="fill:#915b22;fill-rule:evenodd" transform="matrix(2.0874 0 0 2.0874 -104.6 -105.19)"/>
    <path id="path3357" d="m82.204 73.388a9.1021 9.1021 0 1 1 -18.204 0 9.1021 9.1021 0 1 1 18.204 0z" style="fill:#bc8946;fill-rule:evenodd" transform="matrix(1.8677 0 0 1.8677 -88.532 -89.065)"/>
    <path id="path3359" d="m82.204 73.388a9.1021 9.1021 0 1 1 -18.204 0 9.1021 9.1021 0 1 1 18.204 0z" style="opacity:.6;fill:#d5c5aa;fill-rule:evenodd" transform="matrix(1.648 0 0 1.648 -72.47 -72.94)"/>
    <path id="path3381" d="m64.562 48.844a0.14528 0.14528 0 0 0 -0.031 0.031 0.14528 0.14528 0 0 0 -0.031 0.031 0.14528 0.14528 0 0 0 -0.031 0.032 0.14528 0.14528 0 0 0 -0.031 0.031 0.14528 0.14528 0 0 0 0 0.031v7.1562 7.125a0.14528 0.14528 0 0 0 0.03125 0.0625 0.14528 0.14528 0 0 0 0 0.03125 0.14528 0.14528 0 0 0 0.03125 0.03125 0.14528 0.14528 0 0 0 0.03125 0 0.14528 0.14528 0 0 0 0.0625 0.03125 0.14528 0.14528 0 0 0 0.03125 0 0.14528 0.14528 0 0 0 0.03125 -0.03125l0.843-0.468c2.0325-1.1367 4.8509-2.7671 7.1562-4.125 1.1527-0.67897 2.1677-1.3001 2.9062-1.75 0.36927-0.22493 0.66844-0.39842 0.875-0.53125 0.10328-0.06641 0.19282-0.11572 0.25-0.15625 0.02859-0.02027 0.04307-0.0462 0.0625-0.0625 0.0097-0.0082 0.02015-0.01907 0.03125-0.03125 0.0056-0.0061 0.02316 0.01299 0.03125 0 0.004-0.0065-0.000227-0.03066 0-0.03125 0.000227-0.000589 0.03124-0.06204 0.03125-0.0625 0.0019-0.10025-0.04772-0.16292-0.09375-0.25s-0.10876-0.196-0.1875-0.3125c-0.15748-0.23301-0.37618-0.50341-0.625-0.8125-0.49765-0.61818-1.1214-1.3075-1.625-1.7812-2.3097-2.1728-5.3757-3.6608-8.2812-3.9688-0.40654-0.04308-0.88113-0.12214-1.0625-0.15625l-0.343-0.063a0.14528 0.14528 0 0 0 -0.03125 0 0.14528 0.14528 0 0 0 -0.03125 0z" style="opacity:.6;fill:#f2ece2" transform="matrix(.93434 0 0 .98915 -11.272 -15.312)"/>
    <path id="path3361" d="m59.5 48c0 6.348-5.152 11.5-11.5 11.5s-11.5-5.152-11.5-11.5 5.152-11.5 11.5-11.5 11.5 5.152 11.5 11.5z" style="opacity:.5;stroke-linejoin:round;stroke:#2b1100;fill:none"/>
    <path id="path3363" d="m48 24v48h1v-48h-1z" style="opacity:.5;fill:#2b1100;fill-rule:evenodd"/>
    <path id="path3369" d="m76 47h-56v1h56v-1z" style="opacity:.5;fill:#2b1100;fill-rule:evenodd"/>
    <path id="path3374" d="m60.937 40.312-13.312 7.688l0.375 0.65625 13.359-7.7109c-0.15-0.204-0.298-0.413-0.422-0.633z" style="opacity:.5;fill:#2b1100;fill-rule:evenodd"/>
    <g id="text3865" style="fill:#20130b" transform="matrix(1.6856 0 0 1.6856 -33.044 -39.962)">
     <path id="path3870" d="m51.307 54.001c-0.000007 0.936-0.30801 1.668-0.924 2.196-0.584 0.488-1.352 0.732-2.304 0.732-0.936-0.000001-1.696-0.244-2.28-0.732-0.632-0.52-0.948-1.236-0.948-2.148-0.000001-0.152 0.008-0.304 0.024-0.456h2.208c-0.024 0.128-0.036 0.252-0.036 0.372-0.000003 0.328 0.092 0.592 0.276 0.792s0.44 0.3 0.768 0.3c0.312 0.000001 0.564-0.108 0.756-0.324 0.192-0.224 0.288-0.492 0.288-0.804-0.000005-0.336-0.108-0.604-0.324-0.804-0.208-0.2-0.48-0.296-0.816-0.288v-1.62c0.312 0.008 0.572-0.07999 0.78-0.264 0.216-0.18399 0.324-0.42799 0.324-0.732-0.000005-0.29599-0.096-0.53599-0.288-0.72-0.192-0.18399-0.436-0.27599-0.732-0.276-0.296 0.000007-0.536 0.08801-0.72 0.264-0.176 0.16801-0.272 0.39601-0.288 0.684h-2.028c-0.000001-0.83999 0.296-1.512 0.888-2.016 0.56-0.47999 1.268-0.71999 2.124-0.72 0.84 0.000009 1.548 0.23601 2.124 0.708 0.62399 0.49601 0.93599 1.156 0.936 1.98-0.000007 0.832-0.30401 1.444-0.912 1.836 0.73599 0.408 1.104 1.088 1.104 2.04" style="fill:#20130b"/>
    </g>
    <g id="g3946" transform="translate(0,54)" clip-path="url(#clipPath3972)">
     <path id="path3948" d="m82.204 73.388a9.1021 9.1021 0 1 1 -18.204 0 9.1021 9.1021 0 1 1 18.204 0z" style="fill:#915b22;fill-rule:evenodd" transform="matrix(2.0874 0 0 2.0874 -104.6 -105.19)"/>
     <path id="path3950" d="m82.204 73.388a9.1021 9.1021 0 1 1 -18.204 0 9.1021 9.1021 0 1 1 18.204 0z" style="fill:#bc8946;fill-rule:evenodd" transform="matrix(1.8677 0 0 1.8677 -88.532 -89.065)"/>
     <path id="path3952" d="m82.204 73.388a9.1021 9.1021 0 1 1 -18.204 0 9.1021 9.1021 0 1 1 18.204 0z" style="opacity:.6;fill:#d5c5aa;fill-rule:evenodd" transform="matrix(1.648 0 0 1.648 -72.47 -72.94)"/>
     <path id="path3954" d="m64.562 48.844a0.14528 0.14528 0 0 0 -0.031 0.031 0.14528 0.14528 0 0 0 -0.031 0.031 0.14528 0.14528 0 0 0 -0.031 0.032 0.14528 0.14528 0 0 0 -0.031 0.031 0.14528 0.14528 0 0 0 0 0.031v7.1562 7.125a0.14528 0.14528 0 0 0 0.03125 0.0625 0.14528 0.14528 0 0 0 0 0.03125 0.14528 0.14528 0 0 0 0.03125 0.03125 0.14528 0.14528 0 0 0 0.03125 0 0.14528 0.14528 0 0 0 0.0625 0.03125 0.14528 0.14528 0 0 0 0.03125 0 0.14528 0.14528 0 0 0 0.03125 -0.03125l0.843-0.468c2.0325-1.1367 4.8509-2.7671 7.1562-4.125 1.1527-0.67897 2.1677-1.3001 2.9062-1.75 0.36927-0.22493 0.66844-0.39842 0.875-0.53125 0.10328-0.06641 0.19282-0.11572 0.25-0.15625 0.02859-0.02027 0.04307-0.0462 0.0625-0.0625 0.0097-0.0082 0.02015-0.01907 0.03125-0.03125 0.0056-0.0061 0.02316 0.01299 0.03125 0 0.004-0.0065-0.000227-0.03066 0-0.03125 0.000227-0.000589 0.03124-0.06204 0.03125-0.0625 0.0019-0.10025-0.04772-0.16292-0.09375-0.25s-0.10876-0.196-0.1875-0.3125c-0.15748-0.23301-0.37618-0.50341-0.625-0.8125-0.49765-0.61818-1.1214-1.3075-1.625-1.7812-2.3097-2.1728-5.3757-3.6608-8.2812-3.9688-0.40654-0.04308-0.88113-0.12214-1.0625-0.15625l-0.343-0.063a0.14528 0.14528 0 0 0 -0.03125 0 0.14528 0.14528 0 0 0 -0.03125 0z" style="opacity:.6;fill:#f2ece2" transform="matrix(.93434 0 0 .98915 -11.272 -15.312)"/>
     <path id="path3956" d="m59.5 48c0 6.348-5.152 11.5-11.5 11.5s-11.5-5.152-11.5-11.5 5.152-11.5 11.5-11.5 11.5 5.152 11.5 11.5z" style="opacity:.5;stroke-linejoin:round;stroke:#2b1100;fill:none"/>
     <path id="path3958" d="m48 24v48h1v-48h-1z" style="opacity:.5;fill:#2b1100;fill-rule:evenodd"/>
     <path id="path3960" d="m76 47h-56v1h56v-1z" style="opacity:.5;fill:#2b1100;fill-rule:evenodd"/>
     <path id="path3962" d="m60.937 40.312-13.312 7.688l0.375 0.65625 13.359-7.7109c-0.15-0.204-0.298-0.413-0.422-0.633z" style="opacity:.5;fill:#2b1100;fill-rule:evenodd"/>
     <g id="g3964" transform="matrix(1.6856 0 0 1.6856 -33.044 -39.962)">
      <path id="path3966" d="m51.307 54.001c-0.000007 0.936-0.30801 1.668-0.924 2.196-0.584 0.488-1.352 0.732-2.304 0.732-0.936-0.000001-1.696-0.244-2.28-0.732-0.632-0.52-0.948-1.236-0.948-2.148-0.000001-0.152 0.008-0.304 0.024-0.456h2.208c-0.024 0.128-0.036 0.252-0.036 0.372-0.000003 0.328 0.092 0.592 0.276 0.792s0.44 0.3 0.768 0.3c0.312 0.000001 0.564-0.108 0.756-0.324 0.192-0.224 0.288-0.492 0.288-0.804-0.000005-0.336-0.108-0.604-0.324-0.804-0.208-0.2-0.48-0.296-0.816-0.288v-1.62c0.312 0.008 0.572-0.07999 0.78-0.264 0.216-0.18399 0.324-0.42799 0.324-0.732-0.000005-0.29599-0.096-0.53599-0.288-0.72-0.192-0.18399-0.436-0.27599-0.732-0.276-0.296 0.000007-0.536 0.08801-0.72 0.264-0.176 0.16801-0.272 0.39601-0.288 0.684h-2.028c-0.000001-0.83999 0.296-1.512 0.888-2.016 0.56-0.47999 1.268-0.71999 2.124-0.72 0.84 0.000009 1.548 0.23601 2.124 0.708 0.62399 0.49601 0.93599 1.156 0.936 1.98-0.000007 0.832-0.30401 1.444-0.912 1.836 0.73599 0.408 1.104 1.088 1.104 2.04"/>
     </g>
    </g>
    <path id="rect3912" d="m20 48v21.906c0 1.164 0.892 2.094 2 2.094h52c1.108 0 2-0.93035 2-2.0938v-21.906h-56zm2 30c-1.108 0-2 0.93035-2 2.0938v9.906h56v-9.906c0-1.164-0.892-2.094-2-2.094h-52z" style="opacity:.6;fill:url(#linearGradient3968)"/>
    <g id="g3976" transform="translate(0,-54)" clip-path="url(#clipPath4000)">
     <path id="path3978" d="m82.204 73.388a9.1021 9.1021 0 1 1 -18.204 0 9.1021 9.1021 0 1 1 18.204 0z" style="fill:#915b22;fill-rule:evenodd" transform="matrix(2.0874 0 0 2.0874 -104.6 -105.19)"/>
     <path id="path3980" d="m82.204 73.388a9.1021 9.1021 0 1 1 -18.204 0 9.1021 9.1021 0 1 1 18.204 0z" style="fill:#bc8946;fill-rule:evenodd" transform="matrix(1.8677 0 0 1.8677 -88.532 -89.065)"/>
     <path id="path3982" d="m82.204 73.388a9.1021 9.1021 0 1 1 -18.204 0 9.1021 9.1021 0 1 1 18.204 0z" style="opacity:.6;fill:#d5c5aa;fill-rule:evenodd" transform="matrix(1.648 0 0 1.648 -72.47 -72.94)"/>
     <path id="path3984" d="m64.562 48.844a0.14528 0.14528 0 0 0 -0.031 0.031 0.14528 0.14528 0 0 0 -0.031 0.031 0.14528 0.14528 0 0 0 -0.031 0.032 0.14528 0.14528 0 0 0 -0.031 0.031 0.14528 0.14528 0 0 0 0 0.031v7.1562 7.125a0.14528 0.14528 0 0 0 0.03125 0.0625 0.14528 0.14528 0 0 0 0 0.03125 0.14528 0.14528 0 0 0 0.03125 0.03125 0.14528 0.14528 0 0 0 0.03125 0 0.14528 0.14528 0 0 0 0.0625 0.03125 0.14528 0.14528 0 0 0 0.03125 0 0.14528 0.14528 0 0 0 0.03125 -0.03125l0.843-0.468c2.0325-1.1367 4.8509-2.7671 7.1562-4.125 1.1527-0.67897 2.1677-1.3001 2.9062-1.75 0.36927-0.22493 0.66844-0.39842 0.875-0.53125 0.10328-0.06641 0.19282-0.11572 0.25-0.15625 0.02859-0.02027 0.04307-0.0462 0.0625-0.0625 0.0097-0.0082 0.02015-0.01907 0.03125-0.03125 0.0056-0.0061 0.02316 0.01299 0.03125 0 0.004-0.0065-0.000227-0.03066 0-0.03125 0.000227-0.000589 0.03124-0.06204 0.03125-0.0625 0.0019-0.10025-0.04772-0.16292-0.09375-0.25s-0.10876-0.196-0.1875-0.3125c-0.15748-0.23301-0.37618-0.50341-0.625-0.8125-0.49765-0.61818-1.1214-1.3075-1.625-1.7812-2.3097-2.1728-5.3757-3.6608-8.2812-3.9688-0.40654-0.04308-0.88113-0.12214-1.0625-0.15625l-0.343-0.063a0.14528 0.14528 0 0 0 -0.03125 0 0.14528 0.14528 0 0 0 -0.03125 0z" style="opacity:.6;fill:#f2ece2" transform="matrix(.93434 0 0 .98915 -11.272 -15.312)"/>
     <path id="path3986" d="m59.5 48c0 6.348-5.152 11.5-11.5 11.5s-11.5-5.152-11.5-11.5 5.152-11.5 11.5-11.5 11.5 5.152 11.5 11.5z" style="opacity:.5;stroke-linejoin:round;stroke:#2b1100;fill:none"/>
     <path id="path3988" d="m48 24v48h1v-48h-1z" style="opacity:.5;fill:#2b1100;fill-rule:evenodd"/>
     <path id="path3990" d="m76 47h-56v1h56v-1z" style="opacity:.5;fill:#2b1100;fill-rule:evenodd"/>
     <path id="path3992" d="m60.937 40.312-13.312 7.688l0.375 0.65625 13.359-7.7109c-0.15-0.204-0.298-0.413-0.422-0.633z" style="opacity:.5;fill:#2b1100;fill-rule:evenodd"/>
     <g id="g3994" transform="matrix(1.6856 0 0 1.6856 -33.044 -39.962)">
      <path id="path3996" d="m51.307 54.001c-0.000007 0.936-0.30801 1.668-0.924 2.196-0.584 0.488-1.352 0.732-2.304 0.732-0.936-0.000001-1.696-0.244-2.28-0.732-0.632-0.52-0.948-1.236-0.948-2.148-0.000001-0.152 0.008-0.304 0.024-0.456h2.208c-0.024 0.128-0.036 0.252-0.036 0.372-0.000003 0.328 0.092 0.592 0.276 0.792s0.44 0.3 0.768 0.3c0.312 0.000001 0.564-0.108 0.756-0.324 0.192-0.224 0.288-0.492 0.288-0.804-0.000005-0.336-0.108-0.604-0.324-0.804-0.208-0.2-0.48-0.296-0.816-0.288v-1.62c0.312 0.008 0.572-0.07999 0.78-0.264 0.216-0.18399 0.324-0.42799 0.324-0.732-0.000005-0.29599-0.096-0.53599-0.288-0.72-0.192-0.18399-0.436-0.27599-0.732-0.276-0.296 0.000007-0.536 0.08801-0.72 0.264-0.176 0.16801-0.272 0.39601-0.288 0.684h-2.028c-0.000001-0.83999 0.296-1.512 0.888-2.016 0.56-0.47999 1.268-0.71999 2.124-0.72 0.84 0.000009 1.548 0.23601 2.124 0.708 0.62399 0.49601 0.93599 1.156 0.936 1.98-0.000007 0.832-0.30401 1.444-0.912 1.836 0.73599 0.408 1.104 1.088 1.104 2.04"/>
     </g>
    </g>
   </g>
   <g id="layer5">
    <rect id="rect3171" style="opacity:.1;filter:url(#filter3794);stroke:#fff;stroke-linecap:round;stroke-width:.5;fill:url(#linearGradient3613)" clip-path="url(#clipPath3613)" rx="12" ry="12" height="66" width="66" y="15" x="15"/>
    <path id="path3615" d="m12 90c-3.324 0-6-2.676-6-6v-2-68-2c0-0.33472 0.04135-0.6507 0.09375-0.96875 0.0487-0.2956 0.09704-0.59692 0.1875-0.875 0.0099-0.03 0.0209-0.063 0.0313-0.094 0.0989-0.2873 0.2349-0.547 0.375-0.812 0.1446-0.2735 0.3156-0.5356 0.5-0.7812 0.1844-0.2457 0.3738-0.4735 0.5937-0.6876 0.44-0.428 0.943-0.8145 1.5-1.0937 0.2786-0.1396 0.5735-0.2469 0.8748-0.3437-0.256 0.1002-0.4865 0.2362-0.7185 0.375-0.00741 0.0044-0.023866-0.0045-0.03125 0-0.031933 0.0193-0.062293 0.04251-0.09375 0.0625-0.1204 0.0767-0.23102 0.16351-0.34375 0.25-0.10617 0.0808-0.21328 0.16111-0.3125 0.25-0.1779 0.1614-0.3474 0.3453-0.5 0.5312-0.1075 0.1303-0.2183 0.2653-0.3124 0.4063-0.0251 0.0383-0.0385 0.0858-0.0626 0.125-0.0647 0.103-0.1302 0.2045-0.1874 0.3124-0.1011 0.1948-0.2057 0.4158-0.2813 0.625-0.008 0.0219-0.0236 0.0406-0.0313 0.0626-0.0318 0.0919-0.0358 0.1868-0.0624 0.2812-0.0304 0.1066-0.0704 0.203-0.0938 0.3125-0.0729 0.3415-0.125 0.6985-0.125 1.0625v2 68 2c0 2.7818 2.2182 5 5 5h2 68 2c2.7818 0 5-2.2182 5-5v-2-68-2c0-0.364-0.052-0.721-0.125-1.0625-0.044-0.2069-0.088-0.3977-0.156-0.5937-0.008-0.022-0.024-0.0407-0.031-0.0626-0.063-0.1737-0.139-0.3674-0.219-0.5312-0.042-0.0828-0.079-0.17-0.125-0.25-0.055-0.0972-0.127-0.1884-0.188-0.2812-0.094-0.141-0.205-0.276-0.312-0.4063-0.143-0.1745-0.303-0.347-0.469-0.5-0.011-0.0102-0.02-0.0211-0.031-0.0313-0.139-0.1255-0.285-0.2344-0.438-0.3437-0.102-0.0731-0.204-0.1534-0.312-0.2187-0.0074-0.0045-0.02384 0.0044-0.03125 0-0.23204-0.13873-0.46255-0.27478-0.71875-0.375 0.30153 0.0968 0.59646 0.20414 0.875 0.34375 0.55709 0.27922 1.0601 0.66569 1.5 1.0938 0.21997 0.21403 0.40937 0.44186 0.59375 0.6875s0.35541 0.50774 0.5 0.78125c0.14012 0.26505 0.27614 0.52473 0.375 0.8125 0.01041 0.03078 0.02133 0.06274 0.03125 0.09375 0.09046 0.27808 0.1388 0.5794 0.1875 0.875 0.053 0.318 0.094 0.634 0.094 0.969v2 68 2c0 3.324-2.676 6-6 6h-72z" style="opacity:.15;fill:url(#radialGradient3619)"/>
   </g>
  </g>
  <rect id="rect3003" style="opacity:.15;fill:#fff" transform="translate(98 3.8281e-7)" clip-path="url(#clipPath3009)" rx="25" ry="25" height="92" width="92" y="958.36" x="-96"/>
 </g>
</svg>
