<?xml version="1.0" encoding="UTF-8" standalone="no"?>
<!-- Created with Inkscape (http://www.inkscape.org/) -->
<svg id="svg11037" xmlns:rdf="http://www.w3.org/1999/02/22-rdf-syntax-ns#" xmlns="http://www.w3.org/2000/svg" height="96" width="96" version="1.1" xmlns:cc="http://creativecommons.org/ns#" xmlns:xlink="http://www.w3.org/1999/xlink" xmlns:dc="http://purl.org/dc/elements/1.1/">
 <defs id="defs11039">
  <radialGradient id="radialGradient3682" gradientUnits="userSpaceOnUse" cy="48" cx="37.646" gradientTransform="matrix(0,1,-1,0,96,10)" r="42">
   <stop id="stop3686" style="stop-color:#5c88bc" offset="0"/>
   <stop id="stop3690" style="stop-color:#5c88bc" offset=".78810"/>
   <stop id="stop3688" style="stop-color:#416da4" offset="1"/>
  </radialGradient>
  <radialGradient id="radialGradient3660" gradientUnits="userSpaceOnUse" cy="67.25" cx="48" gradientTransform="matrix(1 0 0 1.0435 0 -22.174)" r="40.25">
   <stop id="stop3656" style="stop-color:#75c624" offset="0"/>
   <stop id="stop3662" style="stop-color:#75c624" offset=".78260"/>
   <stop id="stop3658" style="stop-color:#60a914" offset="1"/>
  </radialGradient>
  <radialGradient id="radialGradient3650" gradientUnits="userSpaceOnUse" cy="48" cx="48" gradientTransform="matrix(7.3016e-8 -1.9167 2 7.619e-8 -48 140)" r="21">
   <stop id="stop3646" style="stop-color:#ef2929" offset="0"/>
   <stop id="stop3652" style="stop-color:#ef2929" offset=".80064"/>
   <stop id="stop3648" style="stop-color:#df1616" offset="1"/>
  </radialGradient>
  <radialGradient id="radialGradient3670" gradientUnits="userSpaceOnUse" cy="48" cx="48" gradientTransform="matrix(2 0 0 1.9167 -48 -44)" r="21">
   <stop id="stop3666" style="stop-color:#f8e076" offset="0"/>
   <stop id="stop3680" style="stop-color:#f8e076" offset=".79928"/>
   <stop id="stop3668" style="stop-color:#f3db44" offset="1"/>
  </radialGradient>
  <linearGradient id="linearGradient3764" y2="77.172" gradientUnits="userSpaceOnUse" x2="72.75" gradientTransform="matrix(0,-1,-1,0,96,96)" y1="77.172" x1="23.25">
   <stop id="stop3772" style="stop-color:#ff8080" offset="0"/>
   <stop id="stop3774" style="stop-color:#a00" offset="1"/>
  </linearGradient>
  <linearGradient id="linearGradient3768" y2="77.172" gradientUnits="userSpaceOnUse" x2="72.75" gradientTransform="matrix(0,-1,1,0,0,96)" y1="77.172" x1="23.25">
   <stop id="stop3760" style="stop-color:#fff6d5" offset="0"/>
   <stop id="stop3762" style="stop-color:#f1b31e" offset="1"/>
  </linearGradient>
  <radialGradient id="radialGradient3709" xlink:href="#linearGradient3703" gradientUnits="userSpaceOnUse" cy="48" cx="48" gradientTransform="matrix(.70857 .70857 -.69994 .69994 47.586 -19.608)" r="52.679"/>
  <linearGradient id="linearGradient3703">
   <stop id="stop3705" style="stop-color:#fff" offset="0"/>
   <stop id="stop3711" style="stop-color:#fff;stop-opacity:.47059" offset="0.6"/>
   <stop id="stop3707" style="stop-color:#fff;stop-opacity:0" offset="1"/>
  </linearGradient>
  <radialGradient id="radialGradient3661" xlink:href="#linearGradient3703" gradientUnits="userSpaceOnUse" cy="48" cx="48" gradientTransform="matrix(-.70857 .70857 -.69994 -.69994 115.61 47.586)" r="52.679"/>
  <radialGradient id="radialGradient3788" gradientUnits="userSpaceOnUse" cy="48.018" cx="25.873" gradientTransform="matrix(1 0 0 1.1951 0 -9.3703)" r="37.376">
   <stop id="stop3665" style="stop-color:#fff" offset="0"/>
   <stop id="stop3667" style="stop-color:#b9b9b9" offset="1"/>
  </radialGradient>
  <linearGradient id="linearGradient3786" y2="48.018" gradientUnits="userSpaceOnUse" x2="83.843" y1="48.018" x1="9.0914">
   <stop id="stop3782" style="stop-color:#fff" offset="0"/>
   <stop id="stop3784" style="stop-color:#fff;stop-opacity:0" offset="1"/>
  </linearGradient>
  <linearGradient id="linearGradient3613" y2="138.66" gradientUnits="userSpaceOnUse" x2="48" y1="20.221" x1="48">
   <stop id="stop3739" style="stop-color:#fff" offset="0"/>
   <stop id="stop3741" style="stop-color:#fff;stop-opacity:0" offset="1"/>
  </linearGradient>
  <clipPath id="clipPath3613">
   <rect id="rect3615" style="fill:#fff" rx="6" ry="6" height="84" width="84" y="6" x="6"/>
  </clipPath>
  <filter id="filter3794" height="1.384" width="1.384" color-interpolation-filters="sRGB" y="-.192" x="-.192">
   <feGaussianBlur id="feGaussianBlur3796" stdDeviation="5.28"/>
  </filter>
  <clipPath id="clipPath3162" clipPathUnits="userSpaceOnUse">
   <rect id="rect3164" style="fill:url(#linearGradient3166)" rx="22.826" ry="22.826" height="84" width="84" y="6" x="6"/>
  </clipPath>
  <linearGradient id="linearGradient3166" y2="1046.1" gradientUnits="userSpaceOnUse" x2="48" gradientTransform="matrix(1.05 0 0 1.05 -2.4 -1006.6)" y1="962.62" x1="48">
   <stop id="stop3797" style="stop-color:#13a6fd" offset="0"/>
   <stop id="stop3799" style="stop-color:#2975b6" offset="1"/>
  </linearGradient>
  <clipPath id="clipPath3009" clipPathUnits="userSpaceOnUse">
   <path id="path3011" style="opacity:.15;fill:#fff" d="m-2 956.36h-96v33.562l96 25.687v-59.25z"/>
  </clipPath>
 </defs>
 <metadata id="metadata11042">
  <rdf:RDF>
   <cc:Work rdf:about="">
    <dc:format>image/svg+xml</dc:format>
    <dc:type rdf:resource="http://purl.org/dc/dcmitype/StillImage"/>
    <dc:title/>
   </cc:Work>
  </rdf:RDF>
 </metadata>
 <g id="layer1" transform="translate(0 -956.36)">
  <g id="g3117" clip-path="url(#clipPath3162)" transform="matrix(1.0952 0 0 1.0952 -4.5714 951.79)">
   <g id="layer1-9">
    <rect id="rect2419" style="fill:url(#radialGradient3682)" rx="6" ry="6" height="74" width="84" y="16" x="6"/>
    <path id="path3754" d="m48 83c8.9573 0 17.916-3.4158 24.75-10.25l-1.4062-1.4062c-12.887 12.887-33.8 12.887-46.688 0l-1.406 1.406c6.834 6.834 15.793 10.25 24.75 10.25z" style="fill:#85a3c9"/>
    <path id="path2857" d="m12 6c-1.662 0-3.1655 0.6655-4.25 1.75l40.25 40.25 40.25-40.25c-1.084-1.0845-2.588-1.75-4.25-1.75h-72z" style="fill:url(#radialGradient3660)"/>
    <path id="path2861" d="m7.75 7.75c-1.0845 1.0845-1.75 2.588-1.75 4.25v72c0 1.662 0.6655 3.1655 1.75 4.25l40.25-40.25-40.25-40.25z" style="fill:url(#radialGradient3650)"/>
    <path id="path2859" d="m88.25 7.75-40.25 40.25 40.25 40.25c1.084-1.084 1.75-2.588 1.75-4.25v-72c0-1.662-0.666-3.1655-1.75-4.25z" style="fill:url(#radialGradient3670)"/>
    <path id="path3742" d="m48 13c-8.9573 0-17.916 3.4158-24.75 10.25l1.4062 1.4062c12.887-12.887 33.8-12.887 46.688 0l1.406-1.406c-6.834-6.834-15.793-10.25-24.75-10.25z" style="opacity:.3"/>
    <path id="path3756" d="m13 48c0-8.9573 3.4158-17.916 10.25-24.75l1.4062 1.4062c-12.887 12.887-12.887 33.8 0 46.688l-1.406 1.406c-6.834-6.834-10.25-15.793-10.25-24.75z" style="fill:url(#linearGradient3764)"/>
    <path id="path3766" d="m83 48c0-8.957-3.416-17.916-10.25-24.75l-1.4062 1.4062c12.887 12.887 12.887 33.8 0 46.688l1.406 1.406c6.834-6.834 10.25-15.793 10.25-24.75z" style="fill:url(#linearGradient3768)"/>
    <path id="rect3698" d="m8.9688 6.8438c-0.2936 0.1723-0.5852 0.3442-0.8438 0.5624l80.469 80.469c0.21822-0.25863 0.39011-0.55016 0.5625-0.84375l-80.187-80.187zm-1.5626 1.2812c-0.2182 0.2586-0.3901 0.5502-0.5624 0.8438l80.188 80.188c0.29359-0.17239 0.58512-0.34428 0.84375-0.5625l-80.47-80.469z" style="fill:url(#radialGradient3709)"/>
    <path id="rect3696" d="m8.125 7.4062c-0.2588 0.2184-0.5004 0.46-0.7188 0.7188l80.469 80.469c0.25877-0.21833 0.50042-0.45998 0.71875-0.71875l-80.469-80.469z" style="opacity:.2"/>
    <path id="path3657" d="m89.156 8.9688c-0.172-0.2936-0.344-0.5852-0.562-0.8438l-80.469 80.469c0.25863 0.21822 0.55016 0.39011 0.84375 0.5625l80.187-80.187zm-1.281-1.5626c-0.259-0.2182-0.55-0.3901-0.844-0.5624l-80.188 80.188c0.17239 0.29359 0.34428 0.58512 0.5625 0.84375l80.47-80.47z" style="fill:url(#radialGradient3661)"/>
    <path id="path3659" d="m88.594 8.125c-0.219-0.2588-0.46-0.5004-0.719-0.7188l-80.469 80.469c0.21833 0.25877 0.45998 0.50042 0.71875 0.71875l80.469-80.469z" style="opacity:.2"/>
    <path id="path2855" d="m83.843 48.018a37.376 37.376 0 1 1 -74.751 0 37.376 37.376 0 1 1 74.751 0z" style="fill:url(#radialGradient3788)" transform="matrix(0 -.88293 .88293 0 5.6038 89.027)"/>
    <path id="path3801" d="m55.652 69.792c-0.50124-0.15425-0.94536-0.46148-1.3909-0.9622-0.62784-0.70558-0.70678-0.74263-1.9346-0.9079-1.5402-0.20732-6.1378-0.21788-7.6912-0.0177-0.61419 0.0792-1.2459 0.26084-1.4038 0.40374-0.1579 0.14289-0.38635 0.25981-0.50768 0.25981s-0.61496 0.27161-1.097 0.60358c-1.3325 0.91775-2.2611 0.93384-4.3862 0.076-0.90122-0.36382-2.2635-0.80669-3.0273-0.98416-2.9257-0.6798-5.7275-1.4574-5.9667-1.6559-0.34788-0.28871-0.31384-0.69175 0.1789-2.1182 0.39756-1.1509 0.41859-1.3508 0.29395-2.7941-0.20656-2.3921-0.16431-2.7974 0.33654-3.2282 0.35056-0.30154 0.62705-0.37184 1.4624-0.37184 1.5011 0 1.9632-0.21437 2.5628-1.1889 0.48114-0.78195 0.5002-0.87137 0.3092-1.4501-0.29109-0.88201-0.08933-1.9855 0.56055-3.0659 0.94061-1.5637 1.3927-2.5693 2.0894-4.6482 0.85698-2.557 0.82539-2.4995 2.5903-4.7119 1.7785-2.2295 2.534-3.3456 2.684-3.9652 0.06091-0.25162 0.03121-1.7244-0.066-3.2727-0.28598-4.5551-0.25008-6.7339 0.13056-7.923 0.81914-2.559 2.3065-3.8637 4.8767-4.2776 2.1256-0.34232 4.9464 0.58391 6.4953 2.1328 0.88044 0.88044 1.6643 2.3926 1.909 3.6825 0.08832 0.46569 0.24399 2.159 0.34594 3.7629 0.15997 2.5167 0.24683 3.0754 0.63402 4.0782 0.72681 1.8824 2.5203 4.7961 4.0241 6.5375 1.2125 1.4041 1.4659 1.8109 2.026 3.2527 1.118 2.8778 1.3503 3.8058 1.4454 5.7733 0.05468 1.1316 0.0137 2.2155-0.10697 2.8288-0.18955 0.96347-0.18264 1.0097 0.22291 1.4917 0.31391 0.37306 0.41852 0.68234 0.41852 1.2374 0 0.40699 0.12117 0.99534 0.26927 1.3074 0.34437 0.72572 1.5197 1.9022 2.4378 2.4403 0.85027 0.49829 1.0227 0.90452 0.6406 1.5089-0.4197 0.66373-0.81974 0.94866-2.6113 1.8599-1.7711 0.90085-2.3772 1.326-4.0091 2.8123-1.7801 1.6213-3.0414 2.0184-4.7455 1.494z" style="opacity:.56855;fill:#777"/>
    <path id="path3778" d="m83.843 48.018a37.376 37.376 0 1 1 -74.751 0 37.376 37.376 0 1 1 74.751 0z" style="fill:url(#linearGradient3786)" transform="matrix(0 .35470 .59779 0 19.296 14.517)"/>
    <path id="path3732" d="m48 15c-18.225 0-33 14.775-33 33s14.775 33 33 33 33-14.775 33-33-14.775-33-33-33zm0 4.125c15.999 0 28.906 12.876 28.906 28.875s-12.907 28.875-28.906 28.875-28.875-12.876-28.875-28.875 12.876-28.875 28.875-28.875z" style="opacity:.05"/>
    <path id="path3735" d="m48 15c-18.225 0-33 14.775-33 33s14.775 33 33 33 33-14.775 33-33-14.775-33-33-33zm0 2.9688c16.615 0 30.031 13.416 30.031 30.031s-13.416 30.031-30.031 30.031-30-13.416-30-30.031 13.385-30.031 30-30.031z" style="opacity:0.08"/>
    <path id="path3738" d="m48 15c-18.225 0-33 14.775-33 33s14.775 33 33 33 33-14.775 33-33-14.775-33-33-33zm0 1.9375c17.183 0 31.094 13.879 31.094 31.062s-13.911 31.062-31.094 31.062-31.062-13.879-31.062-31.062 13.879-31.062 31.062-31.062z" style="opacity:.15"/>
    <path id="path3730" d="m48 15c-18.225 0-33 14.775-33 33s14.775 33 33 33 33-14.775 33-33-14.775-33-33-33zm0 0.96875c17.697 0 32.031 14.334 32.031 32.031s-14.334 32.031-32.031 32.031-32.031-14.334-32.031-32.031 14.334-32.031 32.031-32.031z" style="opacity:.3"/>
    <path id="path3790" d="m18.031 47c-0.011 0.336-0.031 0.662-0.031 1 0 16.569 13.431 30 30 30s30-13.431 30-30c0-0.338-0.02-0.664-0.031-1-0.533 16.101-13.739 29-29.969 29s-29.436-12.899-29.969-29z" style="opacity:.6;fill:#fff"/>
   </g>
   <g id="layer5">
    <g id="g3092">
     <rect id="rect3171" style="opacity:.1;filter:url(#filter3794);stroke:#fff;stroke-linecap:round;stroke-width:.5;fill:url(#linearGradient3613)" clip-path="url(#clipPath3613)" rx="12" ry="12" height="66" width="66" y="15" x="15"/>
    </g>
   </g>
  </g>
  <rect id="rect3003" style="opacity:.15;fill:#fff" transform="translate(98 3.8281e-7)" clip-path="url(#clipPath3009)" rx="25" ry="25" height="92" width="92" y="958.36" x="-96"/>
 </g>
</svg>
