<?xml version="1.0" encoding="UTF-8" standalone="no"?>
<!-- Created with Inkscape (http://www.inkscape.org/) -->
<svg id="svg11037" xmlns:rdf="http://www.w3.org/1999/02/22-rdf-syntax-ns#" xmlns="http://www.w3.org/2000/svg" height="96" width="96" version="1.1" xmlns:cc="http://creativecommons.org/ns#" xmlns:xlink="http://www.w3.org/1999/xlink" xmlns:dc="http://purl.org/dc/elements/1.1/">
 <defs id="defs11039">
  <linearGradient id="linearGradient11642" y2="1046.1" gradientUnits="userSpaceOnUse" y1="962.62" gradientTransform="matrix(1.15 0 0 1.15 -7.1999 -150.65)" x2="48" x1="48">
   <stop id="stop3702" style="stop-color:#b4b4b4" offset="0"/>
   <stop id="stop3704" style="stop-color:#e6e6e6" offset="1"/>
  </linearGradient>
  <linearGradient id="linearGradient3983" y2="804.8" gradientUnits="userSpaceOnUse" x2="184.46" y1="711.15" x1="184.46">
   <stop id="stop3979" style="stop-color:#f9f9f9" offset="0"/>
   <stop id="stop3981" style="stop-color:#f9f9f9;stop-opacity:0" offset="1"/>
  </linearGradient>
  <clipPath id="clipPath3983">
   <path id="path3985" style="color:#000000;enable-background:new;fill:#eeeeec;fill-rule:evenodd" d="m184.12 701.5a2.2363 2.2363 0 0 0 -1.4688 0.90625s-3.328 4.7671-4.0312 11.156c-5.0181-4.0229-10.75-5.0625-10.75-5.0625a2.2363 2.2363 0 0 0 -2.5938 2.5625s1.034 5.7649 5.0625 10.781c-6.3978 0.70283-11.188 4.0312-11.188 4.0312a2.2363 2.2363 0 0 0 0 3.625s4.7948 3.3031 11.188 4c-4.0285 5.0164-5.0625 10.781-5.0625 10.781a2.2363 2.2363 0 0 0 2.5938 2.5625s5.7319-1.0396 10.75-5.0625c0.70267 6.3934 4.0312 11.188 4.0312 11.188a2.2363 2.2363 0 0 0 3.625 0s3.3111-4.8145 4-11.219c5.0262 4.0467 10.781 5.0938 10.781 5.0938a2.2363 2.2363 0 0 0 2.5938 -2.5938s-1.0624-5.7373-5.0938-10.75c6.397-0.69632 11.219-4 11.219-4a2.2363 2.2363 0 0 0 0 -3.625s-4.8167-3.329-11.219-4.0312c4.0313-5.0127 5.0938-10.75 5.0938-10.75a2.2363 2.2363 0 0 0 -2.59 -2.6s-5.755 1.047-10.781 5.0938c-0.69265-6.3936-4-11.188-4-11.188a2.2363 2.2363 0 0 0 -2.16 -0.91z"/>
  </clipPath>
  <clipPath id="clipPath4169">
   <path id="path4171" style="color:#000000;enable-background:new;fill:#edd400;fill-rule:evenodd" d="m471.43 685.93c0 22.097-12.842 40.01-12.842 40.01s-12.842-17.913-12.842-40.01 12.842-40.01 12.842-40.01 12.842 17.913 12.842 40.01z"/>
  </clipPath>
  <filter id="filter4173" height="1.1585" width="1.4939" color-interpolation-filters="sRGB" y="-.079258" x="-.24693">
   <feGaussianBlur id="feGaussianBlur4175" stdDeviation="2.642588"/>
  </filter>
  <clipPath id="clipPath4145">
   <path id="path4147" style="color:#000000;enable-background:new;fill:#3465a4;fill-rule:evenodd" d="m401.43 865.8c0 22.097-12.842 40.01-12.842 40.01s-12.842-17.913-12.842-40.01 12.842-40.01 12.842-40.01 12.842 17.913 12.842 40.01z"/>
  </clipPath>
  <filter id="filter4149" height="1.1585" width="1.4939" color-interpolation-filters="sRGB" y="-.079258" x="-.24693">
   <feGaussianBlur id="feGaussianBlur4151" stdDeviation="2.642588"/>
  </filter>
  <clipPath id="clipPath4181">
   <path id="path4183" style="color:#000000;enable-background:new;fill:#ef2929;fill-rule:evenodd" d="m348.71 698.73c-22.064 0-39.951-12.861-39.951-12.861s17.887-12.861 39.951-12.861 39.951 12.861 39.951 12.861-17.887 12.861-39.951 12.861z"/>
  </clipPath>
  <filter id="filter4189" height="1.4928" width="1.1586" color-interpolation-filters="sRGB" y="-.24639" x="-.079315">
   <feGaussianBlur id="feGaussianBlur4191" stdDeviation="2.6406013"/>
  </filter>
  <clipPath id="clipPath4197">
   <path id="path4199" style="color:#000000;enable-background:new;fill:#75507b;fill-rule:evenodd" d="m299.47 763.2c-15.602 15.625-37.33 19.197-37.33 19.197s3.5672-21.76 19.169-37.385 37.33-19.197 37.33-19.197-3.5672 21.76-19.169 37.385z"/>
  </clipPath>
  <filter id="filter4201" height="1.2398" width="1.2402" color-interpolation-filters="sRGB" y="-.11991" x="-.12009">
   <feGaussianBlur id="feGaussianBlur4203" stdDeviation="2.8270453"/>
  </filter>
  <clipPath id="clipPath4133">
   <path id="path4135" style="color:#000000;enable-background:new;fill:#65c808;fill-rule:evenodd" d="m538.47 738.73c-22.064 0-39.951-12.861-39.951-12.861s17.887-12.861 39.951-12.861 39.951 12.861 39.951 12.861-17.887 12.861-39.951 12.861z"/>
  </clipPath>
  <filter id="filter4137" height="1.4928" width="1.1586" color-interpolation-filters="sRGB" y="-.24639" x="-.079315">
   <feGaussianBlur id="feGaussianBlur4139" stdDeviation="2.6406015"/>
  </filter>
  <clipPath id="clipPath4071">
   <path id="path4073" style="color:#000000;enable-background:new;fill:#afea2c;fill-rule:evenodd" d="m515.87 706.72c-15.602 15.625-37.33 19.197-37.33 19.197s3.5672-21.76 19.169-37.385 37.33-19.197 37.33-19.197-3.5672 21.76-19.169 37.385z"/>
  </clipPath>
  <filter id="filter4075" height="1.2398" width="1.2402" color-interpolation-filters="sRGB" y="-.11991" x="-.12009">
   <feGaussianBlur id="feGaussianBlur4077" stdDeviation="2.8270455"/>
  </filter>
  <clipPath id="clipPath4083">
   <path id="path4085" style="color:#000000;enable-background:new;fill:#729fcf;fill-rule:evenodd" d="m515.87 745.01c15.602 15.625 19.169 37.385 19.169 37.385s-21.729-3.5724-37.33-19.197c-15.602-15.625-19.169-37.385-19.169-37.385s21.729 3.5724 37.33 19.197z"/>
  </clipPath>
  <filter id="filter4087" height="1.2398" width="1.2402" color-interpolation-filters="sRGB" y="-.11991" x="-.12009">
   <feGaussianBlur id="feGaussianBlur4089" stdDeviation="2.8270455"/>
  </filter>
  <clipPath id="clipPath4157">
   <path id="path4159" style="color:#000000;enable-background:new;fill:#f57900;fill-rule:evenodd" d="m269.47 688.53c15.602 15.625 19.169 37.385 19.169 37.385s-21.729-3.5724-37.33-19.197c-15.602-15.625-19.169-37.385-19.169-37.385s21.729 3.5724 37.33 19.197z"/>
  </clipPath>
  <filter id="filter4161" height="1.2398" width="1.2402" color-interpolation-filters="sRGB" y="-.11991" x="-.12009">
   <feGaussianBlur id="feGaussianBlur4163" stdDeviation="2.8270453"/>
  </filter>
  <clipPath id="clipPath3009" clipPathUnits="userSpaceOnUse">
   <path id="path3011" style="opacity:.15;fill:#fff" d="m-2 956.36h-96v33.562l96 25.687v-59.25z"/>
  </clipPath>
 </defs>
 <metadata id="metadata11042">
  <rdf:RDF>
   <cc:Work rdf:about="">
    <dc:format>image/svg+xml</dc:format>
    <dc:type rdf:resource="http://purl.org/dc/dcmitype/StillImage"/>
    <dc:title/>
   </cc:Work>
  </rdf:RDF>
 </metadata>
 <g id="layer1" transform="translate(0 -956.36)">
  <rect id="rect3867" style="fill:url(#linearGradient11642)" rx="25" ry="25" height="92" width="92" y="958.36" x="2"/>
  <g id="layer4" transform="translate(-2.5473e-7 956.36)">
   <path id="path3979" style="color:#000000;fill:url(#linearGradient3983);enable-background:new;fill-rule:evenodd" d="m184.12 701.5a2.2363 2.2363 0 0 0 -1.4688 0.90625s-3.328 4.7671-4.0312 11.156c-5.0181-4.0229-10.75-5.0625-10.75-5.0625a2.2363 2.2363 0 0 0 -2.5938 2.5625s1.034 5.7649 5.0625 10.781c-6.3978 0.70283-11.188 4.0312-11.188 4.0312a2.2363 2.2363 0 0 0 0 3.625s4.7948 3.3031 11.188 4c-4.0285 5.0164-5.0625 10.781-5.0625 10.781a2.2363 2.2363 0 0 0 2.5938 2.5625s5.7319-1.0396 10.75-5.0625c0.70267 6.3934 4.0312 11.188 4.0312 11.188a2.2363 2.2363 0 0 0 3.625 0s3.3111-4.8145 4-11.219c5.0262 4.0467 10.781 5.0938 10.781 5.0938a2.2363 2.2363 0 0 0 2.5938 -2.5938s-1.0624-5.7373-5.0938-10.75c6.397-0.69632 11.219-4 11.219-4a2.2363 2.2363 0 0 0 0 -3.625s-4.8167-3.329-11.219-4.0312c4.0313-5.0127 5.0938-10.75 5.0938-10.75a2.2363 2.2363 0 0 0 -2.59 -2.6s-5.755 1.047-10.781 5.0938c-0.69265-6.3936-4-11.188-4-11.188a2.2363 2.2363 0 0 0 -2.16 -0.91z" clip-path="url(#clipPath3983)" transform="matrix(1.4427 0 0 1.4468 -218.12 -1004.8)"/>
   <path id="path3689" style="color:#000000;enable-background:new;fill:#d5be00;fill-rule:evenodd" d="m53.57 30.685c0 9.5849-5.5699 17.355-5.5699 17.355s-5.5699-7.7701-5.5699-17.355 5.5699-17.355 5.5699-17.355 5.5699 7.7701 5.5699 17.355z"/>
   <path id="path4165" style="color:#000000;filter:url(#filter4173);enable-background:new;fill:#edd400;fill-rule:evenodd" d="m471.43 685.93c0 22.097-12.842 40.01-12.842 40.01s-12.842-17.913-12.842-40.01 12.842-40.01 12.842-40.01 12.842 17.913 12.842 40.01z" clip-path="url(#clipPath4169)" transform="matrix(.43372 0 0 .43379 -150.9 -266.85)"/>
   <path id="path3691" style="color:#000000;enable-background:new;fill:#23446e;fill-rule:evenodd" d="m53.57 65.331c0 9.5849-5.5699 17.355-5.5699 17.355s-5.5699-7.7701-5.5699-17.355 5.5699-17.355 5.5699-17.355 5.5699 7.7701 5.5699 17.355z"/>
   <path id="path3693" style="color:#000000;enable-background:new;fill:#56aa07;fill-rule:evenodd" d="m65.295 53.59c-9.5699 0-17.328-5.5787-17.328-5.5787s7.7579-5.5787 17.328-5.5787c9.5699 0 17.328 5.5787 17.328 5.5787s-7.7579 5.5787-17.328 5.5787z"/>
   <path id="path3695" style="color:#000000;enable-background:new;fill:#ca0f0f;fill-rule:evenodd" d="m30.703 53.59c-9.5699 0-17.328-5.5787-17.328-5.5787s7.7579-5.5787 17.328-5.5787c9.5699 0 17.328 5.5787 17.328 5.5787s-7.7579 5.5787-17.328 5.5787z"/>
   <path id="path3697" style="color:#000000;enable-background:new;fill:#85b912;fill-rule:evenodd" d="m64.168 39.703c-6.7668 6.7776-16.191 8.327-16.191 8.327s1.5472-9.4391 8.3141-16.217c6.7669-6.7776 16.191-8.3274 16.191-8.3274s-1.5472 9.4391-8.3141 16.217z"/>
   <path id="path4141" style="color:#000000;filter:url(#filter4149);enable-background:new;fill:#3465a4;fill-rule:evenodd" d="m401.43 865.8c0 22.097-12.842 40.01-12.842 40.01s-12.842-17.913-12.842-40.01 12.842-40.01 12.842-40.01 12.842 17.913 12.842 40.01z" clip-path="url(#clipPath4145)" transform="matrix(.43372 0 0 .43379 -120.54 -310.23)"/>
   <path id="path4177" style="color:#000000;filter:url(#filter4189);enable-background:new;fill:#ef2929;fill-rule:evenodd" d="m348.71 698.73c-22.064 0-39.951-12.861-39.951-12.861s17.887-12.861 39.951-12.861 39.951 12.861 39.951 12.861-17.887 12.861-39.951 12.861z" clip-path="url(#clipPath4181)" transform="matrix(.43372 0 0 .43379 -120.54 -249.5)"/>
   <path id="path3699" style="color:#000000;enable-background:new;fill:#593d5e;fill-rule:evenodd" d="m39.708 64.205c-6.7668 6.7776-16.191 8.327-16.191 8.327s1.5472-9.4391 8.3141-16.217c6.7669-6.7776 16.191-8.3274 16.191-8.3274s-1.5472 9.4391-8.3141 16.217z"/>
   <path id="path3701" style="color:#000000;enable-background:new;fill:#c96300;fill-rule:evenodd" d="m39.708 31.815c6.7668 6.7776 8.3141 16.217 8.3141 16.217s-9.4241-1.5496-16.191-8.327c-6.7678-6.7758-8.3151-16.215-8.3151-16.215s9.4241 1.5496 16.191 8.3274z"/>
   <path id="path4193" style="color:#000000;filter:url(#filter4201);enable-background:new;fill:#75507b;fill-rule:evenodd" d="m299.47 763.2c-15.602 15.625-37.33 19.197-37.33 19.197s3.5672-21.76 19.169-37.385 37.33-19.197 37.33-19.197-3.5672 21.76-19.169 37.385z" clip-path="url(#clipPath4197)" transform="matrix(.43372 0 0 .43379 -90.18 -266.85)"/>
   <path id="path3703" style="color:#000000;enable-background:new;fill:#3f7bba;fill-rule:evenodd" d="m64.168 56.313c6.7668 6.7776 8.3141 16.217 8.3141 16.217s-9.4241-1.5496-16.191-8.327c-6.7668-6.7776-8.3141-16.217-8.3141-16.217s9.4241 1.5496 16.191 8.3274z"/>
   <path id="path4129" style="color:#000000;filter:url(#filter4137);enable-background:new;fill:#65c808;fill-rule:evenodd" d="m538.47 738.73c-22.064 0-39.951-12.861-39.951-12.861s17.887-12.861 39.951-12.861 39.951 12.861 39.951 12.861-17.887 12.861-39.951 12.861z" clip-path="url(#clipPath4133)" transform="matrix(.43372 0 0 .43379 -168.25 -266.85)"/>
   <path id="path4067" style="color:#000000;filter:url(#filter4075);enable-background:new;fill:#afea2c;fill-rule:evenodd" d="m515.87 706.72c-15.602 15.625-37.33 19.197-37.33 19.197s3.5672-21.76 19.169-37.385 37.33-19.197 37.33-19.197-3.5672 21.76-19.169 37.385z" clip-path="url(#clipPath4071)" transform="matrix(.43372 0 0 .43379 -159.58 -266.85)"/>
   <path id="path4079" style="color:#000000;filter:url(#filter4087);enable-background:new;fill:#729fcf;fill-rule:evenodd" d="m515.87 745.01c15.602 15.625 19.169 37.385 19.169 37.385s-21.729-3.5724-37.33-19.197c-15.602-15.625-19.169-37.385-19.169-37.385s21.729 3.5724 37.33 19.197z" clip-path="url(#clipPath4083)" transform="matrix(.43372 0 0 .43379 -159.58 -266.85)"/>
   <path id="path4153" style="color:#000000;filter:url(#filter4161);enable-background:new;fill:#f57900;fill-rule:evenodd" d="m269.47 688.53c15.602 15.625 19.169 37.385 19.169 37.385s-21.729-3.5724-37.33-19.197c-15.602-15.625-19.169-37.385-19.169-37.385s21.729 3.5724 37.33 19.197z" clip-path="url(#clipPath4157)" transform="matrix(.43372 0 0 .43379 -77.169 -266.85)"/>
   <path id="path3705" style="opacity:.1;color:#000000;enable-background:new;fill:#fff;fill-rule:evenodd" d="m55.393 47.912c0 4.2686-3.4504 7.7289-7.7068 7.7289s-7.7068-3.4603-7.7068-7.7289 3.4504-7.7289 7.7068-7.7289 7.7068 3.4603 7.7068 7.7289z"/>
   <path id="path3707" style="opacity:.1;color:#000000;enable-background:new;fill:#fff;fill-rule:evenodd" d="m64.27 47.816c0 9.1889-7.4276 16.638-16.591 16.638-9.1629 0-16.591-7.4487-16.591-16.638 0-9.1889 7.4276-16.638 16.591-16.638 9.1629 0 16.591 7.4487 16.591 16.638z"/>
   <path id="path3906" style="opacity:.1;color:#000000;enable-background:new;fill:#fff;fill-rule:evenodd" d="m47.691 23c-1.4473 0-2.8597 0.13234-4.2392 0.37053-0.60268 2.2231-1.0244 4.6978-1.0244 7.3125 0 1.7576 0.18452 3.4578 0.49038 5.0566-0.91259-1.3475-1.9737-2.6802-3.2149-3.9232-1.8732-1.8761-3.9487-3.348-5.972-4.5007-2.5067 1.7122-4.6838 3.8713-6.4187 6.3643 1.1548 2.0407 2.6363 4.1373 4.5227 6.0264 1.2388 1.2408 2.5586 2.302 3.9016 3.2149-1.5928-0.305-3.2844-0.49038-5.035-0.49038-2.6705 0-5.195 0.44149-7.4541 1.068-0.25623 1.435-0.4032 2.9157-0.4032 4.4247 0 1.5778 0.15629 3.1133 0.43591 4.6099 2.2507 0.62158 4.764 1.0571 7.4213 1.0571 1.7465 0 3.4342-0.1866 5.0238-0.49039-1.3388 0.91113-2.6553 1.9777-3.8904 3.2149-1.8565 1.8594-3.3214 3.9183-4.4679 5.9284 1.7586 2.5057 3.9668 4.6667 6.5059 6.3752 1.9776-1.1405 4.0017-2.582 5.8304-4.4135 1.2411-1.2431 2.3023-2.5758 3.2149-3.9232-0.30588 1.5988-0.49038 3.299-0.49038 5.0566 0 2.5375 0.39598 4.9443 0.96989 7.1162 1.3968 0.2444 2.8272 0.38144 4.2936 0.38144 1.6889 0 3.3424-0.17926 4.9366-0.5013 0.55654-2.1403 0.93721-4.506 0.93721-6.9962 0-1.7576-0.1845-3.4577-0.49038-5.0566 0.9127 1.3477 1.9736 2.68 3.2149 3.9232 1.7257 1.7284 3.6212 3.1191 5.4925 4.2284 2.5864-1.7896 4.8223-4.0498 6.5715-6.6695-1.1023-1.8558-2.4762-3.7377-4.1848-5.4489-1.2352-1.2372-2.5626-2.3037-3.9016-3.2149 1.5928 0.305 3.2735 0.49038 5.0238 0.49038 2.4095 0 4.7044-0.35344 6.7894-0.88271 0.30132-1.5509 0.45771-3.1448 0.45771-4.7842 0-1.5704-0.14796-3.1091-0.42503-4.5991-2.0938-0.53405-4.3996-0.89362-6.8219-0.89362-1.7582 0-3.4467 0.183-5.0458 0.49039 1.3453-0.91402 2.6821-1.9718 3.9232-3.2149 1.7384-1.7411 3.1275-3.6599 4.2392-5.5469-1.724-2.6051-3.9225-4.8658-6.4731-6.6587-1.9205 1.124-3.8723 2.5401-5.6453 4.3155-1.2413 1.2432-2.3022 2.5756-3.2149 3.9232 0.30591-1.5989 0.49039-3.299 0.49039-5.0566 0-2.5675-0.40659-5.0005-0.99172-7.1926-1.5776-0.31501-3.2124-0.49039-4.8822-0.49039z"/>
  </g>
  <rect id="rect3003" style="opacity:.15;fill:#fff" transform="translate(98 3.8281e-7)" clip-path="url(#clipPath3009)" rx="25" ry="25" height="92" width="92" y="958.36" x="-96"/>
 </g>
</svg>
