<?xml version="1.0" encoding="UTF-8" standalone="no"?>
<!-- Created with Inkscape (http://www.inkscape.org/) -->
<svg id="svg11037" xmlns:rdf="http://www.w3.org/1999/02/22-rdf-syntax-ns#" xmlns="http://www.w3.org/2000/svg" height="96" width="96" version="1.1" xmlns:cc="http://creativecommons.org/ns#" xmlns:xlink="http://www.w3.org/1999/xlink" xmlns:dc="http://purl.org/dc/elements/1.1/">
 <defs id="defs11039">
  <clipPath id="clipPath3146">
   <rect id="rect3148" style="fill:#f0f" rx="10.286" ry="10.286" height="144.01" width="144.01" y="-32.01" x="-8.0052"/>
  </clipPath>
  <radialGradient id="radialGradient3153" xlink:href="#linearGradient3915" gradientUnits="userSpaceOnUse" cy="65.949" cx="47.581" gradientTransform="matrix(1.9763 0 0 1.9962 -30.753 -110.38)" r="42"/>
  <linearGradient id="linearGradient3915">
   <stop id="stop3917" style="stop-color:#bdd84a" offset="0"/>
   <stop id="stop4331" style="stop-color:#96be2c;stop-opacity:.99608" offset=".61111"/>
   <stop id="stop3919" style="stop-color:#6fa40f;stop-opacity:.99608" offset="1"/>
  </linearGradient>
  <clipPath id="clipPath4252">
   <path id="path4254" style="fill:#f0f" d="m0 36v26.412c-0.0078133 1.7607 0 3.6404 0 5.6437v23.888c0 2.0033-0.0078133 3.883 0 5.6437v26.412h26.375 43.25 26.375v-26.412c0.0078-1.7607 0-3.6404 0-5.6437v-23.888c0-2.0033 0.0078-3.883 0-5.6437v-26.412h-26.375-43.25-26.375z"/>
  </clipPath>
  <filter id="filter4205" color-interpolation-filters="sRGB">
   <feGaussianBlur id="feGaussianBlur4207" stdDeviation="0.58615815"/>
  </filter>
  <linearGradient id="linearGradient3155" y2="93.218" spreadMethod="reflect" gradientUnits="userSpaceOnUse" x2="68.408" y1="87.346" x1="48.866">
   <stop id="stop3980" style="stop-color:#6d931d" offset="0"/>
   <stop id="stop3982" style="stop-color:#547d11" offset="1"/>
  </linearGradient>
  <linearGradient id="linearGradient3157" y2="75.955" spreadMethod="reflect" gradientUnits="userSpaceOnUse" x2="78.641" y1="72.181" x1="48.811">
   <stop id="stop3972" style="stop-color:#5d891a" offset="0"/>
   <stop id="stop3974" style="stop-color:#3b660d" offset="1"/>
  </linearGradient>
  <linearGradient id="linearGradient3159" y2="66.529" spreadMethod="reflect" gradientUnits="userSpaceOnUse" x2="84.611" y1="57.542" x1="51.072">
   <stop id="stop3964" style="stop-color:#4d8217" offset="0"/>
   <stop id="stop3966" style="stop-color:#305e0b" offset="1"/>
  </linearGradient>
  <radialGradient id="radialGradient3161" gradientUnits="userSpaceOnUse" cy="114.75" cx="3.9861" gradientTransform="matrix(.77877 0 0 .74469 38.017 21.82)" r="54.625">
   <stop id="stop3948" style="stop-color:#295a08" offset="0"/>
   <stop id="stop3950" style="stop-color:#153903;stop-opacity:.99608" offset="1"/>
  </radialGradient>
  <clipPath id="clipPath4194">
   <path id="path4196" style="block-progression:tb;text-indent:0;color:#000000;text-transform:none;fill:#f0f" d="m36.75 47.375c-7.0984 0.11676-14.606 0.93873-22.219 2.8438a5.0005 5.0005 0 1 0 2.4375 9.6875c30.881-7.7273 61.312 4.8125 61.312 4.8125a5.0144 5.0144 0 1 0 3.875 -9.25s-18.463-7.837-42.375-8.0938c-0.99635-0.0107-2.0172-0.01668-3.0312 0zm1.0312 18c-6.2737 0.03688-13.053 0.69638-20.188 2.4062a4.0136 4.0136 0 1 0 1.8438 7.8125c29.692-7.1162 52.719 4.9062 52.719 4.9062a4.0004 4.0004 0 1 0 3.6875 -7.0938s-14.429-7.5536-35.406-8.0312c-0.87406-0.0199-1.76-0.0053-2.6562 0zm-0.46875 16.906c-5.5063-0.02531-11.566 0.50718-18.031 1.9375a3.0099 3.0099 0 1 0 1.3125 5.875c27.496-6.0828 46.031 4.7812 46.031 4.7812a3.0041 3.0041 0 1 0 3.0312 -5.1875s-11.709-6.7613-30.031-7.375c-0.76344-0.02557-1.5259-0.02763-2.3125-0.03125zm-0.875 16.438c-25.109 0-46.125 19.576-46.125 44.094s21.016 44.094 46.125 44.094 46.125-19.576 46.125-44.094-21.016-44.094-46.125-44.094zm0 15.687c14.43 0 25.562 12.477 25.562 27.5s-11.132 27.531-25.562 27.531-25.562-12.508-25.562-27.531 11.132-27.5 25.562-27.5z"/>
  </clipPath>
  <filter id="filter4190" color-interpolation-filters="sRGB">
   <feGaussianBlur id="feGaussianBlur4192" stdDeviation="0.58615815"/>
  </filter>
  <clipPath id="clipPath3856" clipPathUnits="userSpaceOnUse">
   <rect id="rect3858" style="fill:url(#linearGradient3860)" rx="22.826" ry="22.826" height="84" width="84" y="6" x="6"/>
  </clipPath>
  <linearGradient id="linearGradient3860" y2="1046.1" xlink:href="#linearGradient3915" gradientUnits="userSpaceOnUse" x2="48" gradientTransform="matrix(1.05 0 0 1.05 -2.4 -1006.6)" y1="962.62" x1="48"/>
  <clipPath id="clipPath3009" clipPathUnits="userSpaceOnUse">
   <path id="path3011" style="opacity:.15;fill:#fff" d="m-2 956.36h-96v33.562l96 25.687v-59.25z"/>
  </clipPath>
 </defs>
 <metadata id="metadata11042">
  <rdf:RDF>
   <cc:Work rdf:about="">
    <dc:format>image/svg+xml</dc:format>
    <dc:type rdf:resource="http://purl.org/dc/dcmitype/StillImage"/>
    <dc:title/>
   </cc:Work>
  </rdf:RDF>
 </metadata>
 <g id="layer1" transform="translate(0 -956.36)">
  <g id="g3065" clip-path="url(#clipPath3856)" transform="matrix(1.0952 0 0 1.0952 -4.5714 951.79)">
   <g id="g3142" transform="matrix(.58329 0 0 .58329 10.669 24.671)" clip-path="url(#clipPath3146)">
    <path id="path8459" d="m-8-39.144v57.363c-0.01172 2.681 0 5.5433 0 8.5938v36.375c0 3.0504-0.01172 5.9127 0 8.5938v40.218h39.562 64.876 39.562v-40.219c0.0117-2.681 0-5.5433 0-8.5938v-36.375c0-3.0504 0.0117-5.9127 0-8.5938v-57.363h-39.562-64.875z" style="fill:url(#radialGradient3153)"/>
    <g id="g4209" transform="matrix(1.5 0 0 1.5227 -8 -76.818)" clip-path="url(#clipPath4252)">
     <path id="path4153-5" d="m36.75 47.375c-7.0984 0.11676-14.606 0.93873-22.219 2.8438a5.0005 5.0005 0 1 0 2.4375 9.6875c30.881-7.7273 61.312 4.8125 61.312 4.8125a5.0144 5.0144 0 1 0 3.875 -9.25s-18.463-7.837-42.375-8.0938c-0.99635-0.0107-2.0172-0.01668-3.0312 0zm1.0312 18c-6.2737 0.03688-13.053 0.69638-20.188 2.4062a4.0136 4.0136 0 1 0 1.8438 7.8125c29.692-7.1162 52.719 4.9062 52.719 4.9062a4.0004 4.0004 0 1 0 3.6875 -7.0938s-14.429-7.5536-35.406-8.0312c-0.87406-0.0199-1.76-0.0053-2.6562 0zm-0.46875 16.906c-5.5063-0.02531-11.566 0.50718-18.031 1.9375a3.0099 3.0099 0 1 0 1.3125 5.875c27.496-6.0828 46.031 4.7812 46.031 4.7812a3.0041 3.0041 0 1 0 3.0312 -5.1875s-11.709-6.7613-30.031-7.375c-0.76344-0.02557-1.5259-0.02763-2.3125-0.03125zm-0.875 16.438c-25.109 0-46.125 19.576-46.125 44.094s21.016 44.094 46.125 44.094 46.125-19.576 46.125-44.094-21.016-44.094-46.125-44.094zm0 15.687c14.43 0 25.562 12.477 25.562 27.5s-11.132 27.531-25.562 27.531-25.562-12.508-25.562-27.531 11.132-27.5 25.562-27.5z" style="opacity:.3;block-progression:tb;text-indent:0;filter:url(#filter4205);color:#000000;stroke:#fff;stroke-width:1.7144;text-transform:none;fill:#fff"/>
     <g id="g4180" transform="matrix(1.084 0 0 1.084 -7.2484 -9.1058)">
      <path id="path3767" d="m43.25 84.344c-5.634-0.1887-11.965 0.24209-18.781 1.75a2.771 2.771 0 1 0 1.219 5.406c25.364-5.6112 42.469 4.4062 42.469 4.4062a2.7677 2.7677 0 1 0 2.781 -4.781s-10.785-6.2151-27.688-6.7812z" style="block-progression:tb;text-indent:0;color:#000000;text-transform:none;fill:url(#linearGradient3155)"/>
      <path id="path37" d="m44 68.719c-6.45-0.147-13.572 0.416-21.094 2.219a3.6951 3.6951 0 1 0 1.719 7.187c27.39-6.564 48.625 4.531 48.625 4.531a3.6902 3.6902 0 1 0 3.406 -6.531s-13.305-6.9657-32.656-7.4062z" style="block-progression:tb;text-indent:0;color:#000000;text-transform:none;fill:url(#linearGradient3157)"/>
      <path id="path39" d="m43.375 52.094c-7.3528-0.07896-15.255 0.61664-23.281 2.625a4.6128 4.6128 0 1 0 2.25 8.9375c28.487-7.1282 56.562 4.4375 56.562 4.4375a4.6226 4.6226 0 1 0 3.5625 -8.5312s-17.035-7.2319-39.094-7.4688z" style="block-progression:tb;text-indent:0;color:#000000;text-transform:none;fill:url(#linearGradient3159)"/>
      <path id="path3943" d="m40.305 99.466c-23.162 0-42.54 18.05-42.54 40.667s19.379 40.691 42.54 40.691c23.162 0 42.54-18.074 42.54-40.691s-19.379-40.667-42.54-40.667zm0 14.48c13.311 0 23.582 11.5 23.582 25.359s-10.271 25.407-23.582 25.407-23.582-11.549-23.582-25.407c0-13.859 10.271-25.359 23.582-25.359z" style="block-progression:tb;text-indent:0;color:#000000;text-transform:none;fill:url(#radialGradient3161)"/>
     </g>
     <path id="path4153" d="m36.75 47.375c-7.0984 0.11676-14.606 0.93873-22.219 2.8438a5.0005 5.0005 0 1 0 2.4375 9.6875c30.881-7.7273 61.312 4.8125 61.312 4.8125a5.0144 5.0144 0 1 0 3.875 -9.25s-18.463-7.837-42.375-8.0938c-0.99635-0.0107-2.0172-0.01668-3.0312 0zm1.0312 18c-6.2737 0.03688-13.053 0.69638-20.188 2.4062a4.0136 4.0136 0 1 0 1.8438 7.8125c29.692-7.1162 52.719 4.9062 52.719 4.9062a4.0004 4.0004 0 1 0 3.6875 -7.0938s-14.429-7.5536-35.406-8.0312c-0.87406-0.0199-1.76-0.0053-2.6562 0zm-0.46875 16.906c-5.5063-0.02531-11.566 0.50718-18.031 1.9375a3.0099 3.0099 0 1 0 1.3125 5.875c27.496-6.0828 46.031 4.7812 46.031 4.7812a3.0041 3.0041 0 1 0 3.0312 -5.1875s-11.709-6.7613-30.031-7.375c-0.76344-0.02557-1.5259-0.02763-2.3125-0.03125zm-0.875 16.438c-25.109 0-46.125 19.576-46.125 44.094s21.016 44.094 46.125 44.094 46.125-19.576 46.125-44.094-21.016-44.094-46.125-44.094zm0 15.687c14.43 0 25.562 12.477 25.562 27.5s-11.132 27.531-25.562 27.531-25.562-12.508-25.562-27.531 11.132-27.5 25.562-27.5z" style="opacity:.4;block-progression:tb;text-indent:0;filter:url(#filter4190);color:#000000;stroke:#000;stroke-width:1.7144;text-transform:none;fill:none" clip-path="url(#clipPath4194)"/>
    </g>
   </g>
  </g>
  <rect id="rect3003" style="opacity:.15;fill:#fff" transform="translate(98 3.8281e-7)" clip-path="url(#clipPath3009)" rx="25" ry="25" height="92" width="92" y="958.36" x="-96"/>
 </g>
</svg>
