<?xml version="1.0" encoding="UTF-8" standalone="no"?>
<!-- Created with Inkscape (http://www.inkscape.org/) -->

<svg
   xmlns:dc="http://purl.org/dc/elements/1.1/"
   xmlns:cc="http://creativecommons.org/ns#"
   xmlns:rdf="http://www.w3.org/1999/02/22-rdf-syntax-ns#"
   xmlns:svg="http://www.w3.org/2000/svg"
   xmlns="http://www.w3.org/2000/svg"
   xmlns:xlink="http://www.w3.org/1999/xlink"
   xmlns:sodipodi="http://sodipodi.sourceforge.net/DTD/sodipodi-0.dtd"
   xmlns:inkscape="http://www.inkscape.org/namespaces/inkscape"
   id="svg11037"
   height="96"
   width="96"
   version="1.1"
   inkscape:version="0.48.4 r9939"
   sodipodi:docname="edit-find.svg">
  <sodipodi:namedview
     pagecolor="#ffffff"
     bordercolor="#666666"
     borderopacity="1"
     objecttolerance="10"
     gridtolerance="10"
     guidetolerance="10"
     inkscape:pageopacity="0"
     inkscape:pageshadow="2"
     inkscape:window-width="1366"
     inkscape:window-height="718"
     id="namedview18"
     showgrid="false"
     inkscape:zoom="2.4583333"
     inkscape:cx="1.4210855e-14"
     inkscape:cy="48"
     inkscape:window-x="0"
     inkscape:window-y="22"
     inkscape:window-maximized="1"
     inkscape:current-layer="svg11037" />
  <defs
     id="defs11039">
    <clipPath
       id="clipPath3009"
       clipPathUnits="userSpaceOnUse">
      <path
         id="path3011"
         style="opacity:.15;fill:#fff"
         d="m-2 956.36h-96v33.562l96 25.687v-59.25z" />
    </clipPath>
    <linearGradient
       id="linearGradient3018-7"
       y2="18.974"
       gradientUnits="userSpaceOnUse"
       x2="10.71"
       gradientTransform="matrix(2.8192,0,0,2.8192,15.4,18.516)"
       y1="1.9963"
       x1="10.71">
      <stop
         id="stop3639-52"
         style="stop-color:#f0f0f0"
         offset="0" />
      <stop
         id="stop3641-01"
         style="stop-color:#aaa"
         offset="1" />
    </linearGradient>
    <linearGradient
       inkscape:collect="always"
       xlink:href="#linearGradient3018-7"
       id="linearGradient3002"
       gradientUnits="userSpaceOnUse"
       gradientTransform="matrix(2.8192,0,0,2.8192,15.4,18.516)"
       x1="10.71"
       y1="1.9963"
       x2="10.71"
       y2="18.974" />
  </defs>
  <metadata
     id="metadata11042">
    <rdf:RDF>
      <cc:Work
         rdf:about="">
        <dc:format>image/svg+xml</dc:format>
        <dc:type
           rdf:resource="http://purl.org/dc/dcmitype/StillImage" />
        <dc:title />
      </cc:Work>
    </rdf:RDF>
  </metadata>
  <g
     id="g3070"
     transform="matrix(1.464882,0,0,1.464882,-22.336223,-23.04601)">
    <path
       inkscape:connector-curvature="0"
       style="opacity:0.3"
       d="m 40.938,25 c -4.3377,0 -8.6615,1.6424 -11.969,4.9375 -6.6144,6.5902 -6.6144,17.285 0,23.875 5.7663,5.7452 14.649,6.5218 21.219,2.25 1.1167,0.05582 2.9226,0.21423 3.5625,0.9375 0.87128,0.98479 -0.35845,3.2803 1.3125,4.7812 l 10.375,10.531 c 0,0 1.9349,2.0541 4.9375,-0.9375 3.0026,-2.9916 0.9375,-4.9062 0.9375,-4.9062 l -10.406,-10.53 c -1.506,-1.665 -3.824,-0.445 -4.812,-1.313 -0.726,-0.638 -0.85,-2.419 -0.906,-3.531 4.287,-6.546 3.516,-15.411 -2.25,-21.156 -3.308,-3.296 -7.663,-4.938 -12,-4.938 z M 41,30.625 c 6.2361,0 11.312,5.0367 11.312,11.25 0,6.2133 -5.0763,11.25 -11.312,11.25 -6.2361,3e-6 -11.281,-5.0367 -11.281,-11.25 0,-3.1067 1.2677,-5.9627 3.3125,-8 2.0448,-2.0373 4.8507,-3.25 7.9688,-3.25 z"
       id="path3921" />
    <path
       inkscape:connector-curvature="0"
       style="fill:url(#linearGradient3002)"
       d="m 40.938,24 c -4.3377,0 -8.6615,1.6424 -11.969,4.9375 -6.6144,6.5902 -6.6144,17.285 0,23.875 5.7663,5.7452 14.649,6.5218 21.219,2.25 1.1167,0.05582 2.9226,0.21423 3.5625,0.9375 0.87128,0.98479 -0.35845,3.2803 1.3125,4.7812 l 10.375,10.531 c 0,0 1.9349,2.0541 4.9375,-0.9375 3.0026,-2.9916 0.9375,-4.9062 0.9375,-4.9062 l -10.406,-10.53 c -1.506,-1.665 -3.824,-0.445 -4.812,-1.313 -0.726,-0.638 -0.85,-2.419 -0.906,-3.531 4.287,-6.546 3.516,-15.411 -2.25,-21.156 -3.308,-3.296 -7.663,-4.938 -12,-4.938 z M 41,29.625 c 6.2361,0 11.312,5.0367 11.312,11.25 0,6.2133 -5.0763,11.25 -11.312,11.25 -6.2361,3e-6 -11.281,-5.0367 -11.281,-11.25 0,-3.1067 1.2677,-5.9627 3.3125,-8 2.0448,-2.0373 4.8507,-3.25 7.9688,-3.25 z"
       id="Symbol" />
    <path
       inkscape:connector-curvature="0"
       style="opacity:0.75;fill:#ffffff"
       d="m 40.938,24 c -4.3377,0 -8.6615,1.6424 -11.969,4.9375 -3.4345,3.4219 -5.0696,7.9516 -4.9375,12.438 0.12234,-4.1535 1.7575,-8.2692 4.9375,-11.438 3.306,-3.296 7.63,-4.938 11.968,-4.938 4.3377,0 8.6928,1.6424 12,4.9375 3.1556,3.1441 4.8155,7.2223 4.9688,11.344 0.098,-4.458 -1.558,-8.945 -4.969,-12.344 -3.308,-3.296 -7.663,-4.938 -12,-4.938 z M 29.75,41.375 c -0.0073,0.16645 -0.03125,0.332 -0.03125,0.5 0,6.2133 5.0451,11.25 11.281,11.25 6.2362,0 11.312,-5.0367 11.312,-11.25 0,-0.168 -0.0239,-0.33379 -0.03125,-0.5 -0.26431,5.9806 -5.2137,10.75 -11.281,10.75 -6.0675,3e-6 -10.987,-4.7694 -11.25,-10.75 z m 25.5,9.6562 c -0.01563,0.02413 -0.04674,0.03843 -0.0625,0.0625 0.05601,1.1126 0.18032,2.8937 0.90625,3.5312 0.98841,0.86808 3.3061,-0.35233 4.8125,1.3125 l 10.406,10.532 c 0,0 0.50805,0.47948 0.65625,1.3125 0.2831,-1.459 -0.65625,-2.3125 -0.65625,-2.3125 l -10.406,-10.531 c -1.506,-1.665 -3.824,-0.445 -4.812,-1.313 -0.545,-0.478 -0.751,-1.594 -0.844,-2.594 z"
       id="path3903" />
    <path
       inkscape:connector-curvature="0"
       style="opacity:0.15"
       d="m 41,28.625 c -3.1181,0 -5.9239,1.2127 -7.9688,3.25 -2.0448,2.0373 -3.3125,4.8933 -3.3125,8 0,0.168 0.02395,0.33379 0.03125,0.5 0.12834,-2.9114 1.347,-5.5728 3.2812,-7.5 2.0448,-2.0373 4.8507,-3.25 7.9688,-3.25 6.0675,0 11.017,4.7694 11.281,10.75 0.0073,-0.16621 0.03125,-0.332 0.03125,-0.5 0,-6.2133 -5.0764,-11.25 -11.312,-11.25 z m 16.906,11.656 c -0.06806,3.0761 -0.96794,6.1396 -2.7188,8.8125 0.01354,0.26892 0.03345,0.58481 0.0625,0.90625 1.8986,-2.9419 2.7817,-6.3454 2.6562,-9.7188 z m -33.875,0.09375 c -0.13213,4.4859 1.503,9.0156 4.9375,12.438 5.7663,5.7452 14.649,6.5218 21.219,2.25 1.1167,0.05582 2.9226,0.21423 3.5625,0.9375 0.21782,0.2462 0.3104,0.56035 0.34375,0.9375 0.004,-0.784 0.049,-1.496 -0.343,-1.939 -0.64,-0.723 -2.446,-0.882 -3.562,-0.938 -6.57,4.272 -15.453,3.496 -21.219,-2.25 -3.18,-3.168 -4.815,-7.284 -4.938,-11.437 z m 30.062,16.812 c 0.04258,1.1072 -0.20092,2.5431 0.96875,3.5938 l 10.375,10.531 c 0,0 1.9349,2.0541 4.9375,-0.9375 1.5013,-1.4958 1.7347,-2.7099 1.5938,-3.5625 -0.14707,0.71906 -0.61097,1.5833 -1.5938,2.5625 -3.0026,2.9916 -4.9375,0.9375 -4.9375,0.9375 l -10.375,-10.531 c -0.835,-0.75 -0.958,-1.709 -0.968,-2.593 z"
       id="path3912" />
  </g>
</svg>
