<?xml version="1.0" encoding="UTF-8" standalone="no"?>
<!-- Created with Inkscape (http://www.inkscape.org/) -->
<svg id="svg11037" xmlns:rdf="http://www.w3.org/1999/02/22-rdf-syntax-ns#" xmlns="http://www.w3.org/2000/svg" height="96" width="96" version="1.1" xmlns:cc="http://creativecommons.org/ns#" xmlns:xlink="http://www.w3.org/1999/xlink" xmlns:dc="http://purl.org/dc/elements/1.1/">
 <defs id="defs11039">
  <linearGradient id="linearGradient3617" y2="88" xlink:href="#linearGradient3700" gradientUnits="userSpaceOnUse" x2="70.188" y1="8" x1="24"/>
  <linearGradient id="linearGradient3700">
   <stop id="stop3702" style="stop-color:#dcdcdc" offset="0"/>
   <stop id="stop3822" style="stop-color:#f0f0f0" offset="0.3"/>
   <stop id="stop3824" style="stop-color:#dcdcdc" offset="0.6"/>
   <stop id="stop3828" style="stop-color:#c8c8c8" offset="0.8"/>
   <stop id="stop3704" style="stop-color:#bebebe" offset="1"/>
  </linearGradient>
  <linearGradient id="linearGradient3890" y2="16" xlink:href="#linearGradient3850" gradientUnits="userSpaceOnUse" x2="67" y1="44" x1="67"/>
  <linearGradient id="linearGradient3850">
   <stop id="stop3852" offset="0"/>
   <stop id="stop3854" style="stop-opacity:0" offset="1"/>
  </linearGradient>
  <linearGradient id="linearGradient3864" y2="16" xlink:href="#linearGradient3850" gradientUnits="userSpaceOnUse" x2="73.569" y1="40" x1="80"/>
  <linearGradient id="linearGradient3856" y2="-24" xlink:href="#linearGradient3850" gradientUnits="userSpaceOnUse" x2="67" y1="44" x1="67"/>
  <linearGradient id="linearGradient3840" y2="48" xlink:href="#linearGradient3700" gradientUnits="userSpaceOnUse" x2="72" y1="8" x1="24"/>
  <linearGradient id="linearGradient3925" y2="16" xlink:href="#linearGradient3850" gradientUnits="userSpaceOnUse" x2="67" gradientTransform="translate(0,41)" y1="44" x1="67"/>
  <linearGradient id="linearGradient3931" y2="8" xlink:href="#linearGradient3850" gradientUnits="userSpaceOnUse" x2="71.426" y1="40" x1="80"/>
  <linearGradient id="linearGradient3915" y2="-40" xlink:href="#linearGradient3850" gradientUnits="userSpaceOnUse" x2="67" y1="44" x1="67"/>
  <linearGradient id="linearGradient3872" y2="88" gradientUnits="userSpaceOnUse" x2="72" y1="40" x1="24">
   <stop id="stop3868" style="stop-color:#fff" offset="0"/>
   <stop id="stop3880" style="stop-color:#d2d2d2" offset=".16667"/>
   <stop id="stop3878" style="stop-color:#c8c8c8" offset=".33333"/>
   <stop id="stop3876" style="stop-color:#dcdcdc" offset=".66667"/>
   <stop id="stop3874" style="stop-color:#cfcfcf" offset=".83333"/>
   <stop id="stop3870" style="stop-color:#bdbdbd" offset="1"/>
  </linearGradient>
  <linearGradient id="linearGradient3911" y2="32" xlink:href="#linearGradient3905" gradientUnits="userSpaceOnUse" x2="32" y1="16" x1="32"/>
  <linearGradient id="linearGradient3905">
   <stop id="stop3907" style="stop-color:#fff" offset="0"/>
   <stop id="stop3909" style="stop-color:#fff;stop-opacity:0" offset="1"/>
  </linearGradient>
  <linearGradient id="linearGradient3929" y2="32" xlink:href="#linearGradient3905" gradientUnits="userSpaceOnUse" x2="32" gradientTransform="translate(0,40)" y1="8" x1="32"/>
  <linearGradient id="linearGradient3875" y2="40" xlink:href="#linearGradient3850" gradientUnits="userSpaceOnUse" x2="48" gradientTransform="translate(0,36)" y1="32" x1="48"/>
  <filter id="filter4020" height="1.7971" width="1.2325" color-interpolation-filters="sRGB" y="-.39857" x="-.11625">
   <feGaussianBlur id="feGaussianBlur4022" stdDeviation="1.1625"/>
  </filter>
  <filter id="filter4078" height="1.3721" width="1.1294" color-interpolation-filters="sRGB" y="-.18604" x="-.064691">
   <feGaussianBlur id="feGaussianBlur4080" stdDeviation="0.7025"/>
  </filter>
  <linearGradient id="linearGradient4060" y2="32" xlink:href="#linearGradient4040" gradientUnits="userSpaceOnUse" x2="46" y1="26" x1="46"/>
  <linearGradient id="linearGradient4040">
   <stop id="stop4042" style="stop-color:#656565" offset="0"/>
   <stop id="stop4044" style="stop-color:#b9b9b9" offset="1"/>
  </linearGradient>
  <linearGradient id="linearGradient4058" y2="18" xlink:href="#linearGradient3967" gradientUnits="userSpaceOnUse" x2="45" gradientTransform="matrix(1,0,0,-1,0,45)" y1="30" x1="45"/>
  <linearGradient id="linearGradient3967">
   <stop id="stop3969" style="stop-color:#fff" offset="0"/>
   <stop id="stop3971" style="stop-color:#8e8e8e" offset=".75"/>
   <stop id="stop3973" style="stop-color:#cacaca" offset="1"/>
  </linearGradient>
  <linearGradient id="linearGradient3871" y2="40" xlink:href="#linearGradient3850" gradientUnits="userSpaceOnUse" x2="48" y1="32" x1="48"/>
  <linearGradient id="linearGradient4004" y2="17" xlink:href="#linearGradient4040" gradientUnits="userSpaceOnUse" x2="50" y1="31" x1="50"/>
  <linearGradient id="linearGradient3955" y2="30" xlink:href="#linearGradient3967" gradientUnits="userSpaceOnUse" x2="48" gradientTransform="translate(0,2)" y1="26" x1="48"/>
  <linearGradient id="linearGradient4100" y2="30" xlink:href="#linearGradient3967" gradientUnits="userSpaceOnUse" x2="48" gradientTransform="translate(0,38)" y1="26" x1="48"/>
  <clipPath id="clipPath3268" clipPathUnits="userSpaceOnUse">
   <rect id="rect3270" style="fill:url(#linearGradient3273)" rx="22.826" ry="22.826" height="84" width="84" y="6" x="6"/>
  </clipPath>
  <linearGradient id="linearGradient3273" y2="1046.1" gradientUnits="userSpaceOnUse" x2="48" gradientTransform="matrix(1.05 0 0 1.05 -2.4 -1006.6)" y1="962.62" x1="48">
   <stop id="stop3797" style="stop-color:#13a6fd" offset="0"/>
   <stop id="stop3799" style="stop-color:#2975b6" offset="1"/>
  </linearGradient>
  <clipPath id="clipPath3009" clipPathUnits="userSpaceOnUse">
   <path id="path3011" style="opacity:.15;fill:#fff" d="m-2 956.36h-96v33.562l96 25.687v-59.25z"/>
  </clipPath>
 </defs>
 <metadata id="metadata11042">
  <rdf:RDF>
   <cc:Work rdf:about="">
    <dc:format>image/svg+xml</dc:format>
    <dc:type rdf:resource="http://purl.org/dc/dcmitype/StillImage"/>
    <dc:title/>
   </cc:Work>
  </rdf:RDF>
 </metadata>
 <g id="layer1" transform="translate(0 -956.36)">
  <g id="g3223" clip-path="url(#clipPath3268)" transform="matrix(1.0952 0 0 1.0952 -4.5714 951.79)">
   <g id="g3096">
    <rect id="rect2419" style="fill:url(#linearGradient3617)" rx="6" ry="6" height="84" width="84" y="6" x="6"/>
    <path id="path3888" style="opacity:.05;color:#000000;fill:url(#linearGradient3890)" transform="translate(0,1)" d="m15 11.969c-1.6607 0-3.0312 1.3705-3.0312 3.0312v26c0 1.6607 1.3705 3.0312 3.0312 3.0312h66c1.6607 0 3.0312-1.3705 3.0312-3.0312v-26c0-1.6607-1.3705-3.0312-3.0312-3.0312h-66z"/>
    <path id="path3862" style="opacity:.1;color:#000000;fill:url(#linearGradient3864)" d="m15 11.969c-1.6607 0-3.0312 1.3705-3.0312 3.0312v26c0 1.6607 1.3705 3.0312 3.0312 3.0312h66c1.6607 0 3.0312-1.3705 3.0312-3.0312v-26c0-1.6607-1.3705-3.0312-3.0312-3.0312h-66z"/>
    <path id="path3846" style="opacity:.5;color:#000000;fill:url(#linearGradient3856)" d="m15 12.969c-1.1012 0-2.0312 0.93006-2.0312 2.0312v26c0 1.1012 0.93006 2.0312 2.0312 2.0312h66c1.1012 0 2.0312-0.93006 2.0312-2.0312v-26c0-1.1012-0.93006-2.0312-2.0312-2.0312h-66z"/>
    <rect id="rect3830" style="color:#000000;fill:url(#linearGradient3840)" rx="1" ry="1" height="28" width="68" y="14" x="14"/>
    <path id="path3923" style="opacity:.05;color:#000000;fill:url(#linearGradient3925)" d="m15 48.969c-1.6607 0-3.0312 1.3705-3.0312 3.0312v30c0 1.6607 1.3705 3.0312 3.0312 3.0312h66c1.6607 0 3.0312-1.3705 3.0312-3.0312v-30c0-1.6607-1.3705-3.0312-3.0312-3.0312z"/>
    <path id="path3918" style="opacity:.1;color:#000000;fill:url(#linearGradient3931)" transform="translate(0,40)" d="m15 7.9688c-1.6607 0-3.0312 1.3705-3.0312 3.0312v30c0 1.6607 1.3705 3.0312 3.0312 3.0312h66c1.6607 0 3.0312-1.3705 3.0312-3.0312v-30c0-1.6607-1.37-3.0312-3.031-3.0312z"/>
    <path id="path3913" style="opacity:.5;color:#000000;fill:url(#linearGradient3915)" transform="translate(0,40)" d="m15 8.9688c-1.1012 0-2.0312 0.93006-2.0312 2.0312v30c0 1.1012 0.93006 2.0312 2.0312 2.0312h66c1.1012 0 2.0312-0.93006 2.0312-2.0312v-30c0-1.1012-0.93-2.0312-2.031-2.0312z"/>
    <rect id="rect3832" style="color:#000000;fill:url(#linearGradient3872)" rx="1" ry="1" height="32" width="68" y="50" x="14"/>
    <path id="rect3892" style="opacity:.7;color:#000000;fill:url(#linearGradient3911)" d="m15 14c-0.554 0-1 0.446-1 1v26c0 0.554 0.446 1 1 1h66c0.554 0 1-0.446 1-1v-26c0-0.554-0.446-1-1-1zm0 0.90625h66c0.06312 0 0.09375 0.03063 0.09375 0.09375v26c0 0.06312-0.03063 0.09375-0.09375 0.09375h-66c-0.06312 0-0.09375-0.03063-0.09375-0.09375v-26c0-0.06312 0.03063-0.09375 0.09375-0.09375z"/>
    <path id="path3927" style="opacity:.7;color:#000000;fill:url(#linearGradient3929)" d="m15 50c-0.554 0-1 0.446-1 1v30c0 0.554 0.446 1 1 1h66c0.554 0 1-0.446 1-1v-30c0-0.554-0.446-1-1-1zm0 0.90625h66c0.06312 0 0.09375 0.03063 0.09375 0.09375v30c0 0.06312-0.03063 0.09375-0.09375 0.09375h-66c-0.06312 0-0.09375-0.03063-0.09375-0.09375v-30c0-0.06312 0.03063-0.09375 0.09375-0.09375z"/>
   </g>
   <g id="layer4">
    <path id="path3873" d="m38 65 2 7h20l-2-6.9282" style="opacity:.25;stroke-linejoin:round;filter:url(#filter4020);stroke:url(#linearGradient3875);stroke-width:3;fill:none"/>
    <g id="g4054" style="opacity:.2;filter:url(#filter4078)" transform="translate(0,5)">
     <path id="path4046" d="m37 21.969c-1.1143 0-2.0312 0.91693-2.0312 2.0312v1 1 2 1c0 1.1143 0.91693 2.0312 2.0312 2.0312h22c1.1143 0 2.0312-0.91693 2.0312-2.0312v-1-2-1-1c0-1.1143-0.91693-2.0312-2.0312-2.0312h-2c-1.1143 0-2.0312 0.91693-2.0312 2.0312v0.96875h-0.96875-12.969v-0.96875c0-1.1143-0.91693-2.0312-2.0312-2.0312h-2z" style="color:#000000;fill:url(#linearGradient4060)" transform="matrix(1,0,0,-1,0,45)"/>
     <path id="path4048" d="m37 22c-0.554 0-1-0.446-1-1v-1-1-2-1c0-0.554 0.446-1 1-1h22c0.554 0 1 0.446 1 1v1 2 1 1c0 0.554-0.446 1-1 1h-2c-0.554 0-1-0.446-1-1v-1c0-0.554-0.446-1-1-1h-1-13c-0.554 0-1 0.446-1 1v1c0 0.554-0.446 1-1 1h-2z" style="color:#000000;fill:url(#linearGradient4058)"/>
    </g>
    <path id="path4006" d="m38 29 2 7h20l-2-6.9282" style="opacity:.25;stroke-linejoin:round;filter:url(#filter4020);stroke:url(#linearGradient3871);stroke-width:3;fill:none"/>
    <path id="path3994" d="m37 21.969c-1.1143 0-2.0312 0.91693-2.0312 2.0312v1 1 2 1c0 1.1143 0.91693 2.0312 2.0312 2.0312h22c1.1143 0 2.0312-0.91693 2.0312-2.0312v-1-2-1-1c0-1.1143-0.91693-2.0312-2.0312-2.0312h-2c-1.1143 0-2.0312 0.91693-2.0312 2.0312v0.96875h-0.96875-12.969v-0.96875c0-1.1143-0.91693-2.0312-2.0312-2.0312h-2z" style="color:#000000;fill:url(#linearGradient4004)" transform="translate(0,2)"/>
    <path id="rect3934" d="m37 25c-0.554 0-1 0.446-1 1v1 1 2 1c0 0.554 0.446 1 1 1h22c0.554 0 1-0.446 1-1v-1-2-1-1c0-0.554-0.446-1-1-1h-2c-0.554 0-1 0.446-1 1v1c0 0.554-0.446 1-1 1h-1-13c-0.554 0-1-0.446-1-1v-1c0-0.554-0.446-1-1-1h-2z" style="color:#000000;fill:url(#linearGradient3955)"/>
    <g id="g4082" style="opacity:.2;filter:url(#filter4078)" transform="translate(0,41)">
     <path id="path4084" d="m37 21.969c-1.1143 0-2.0312 0.91693-2.0312 2.0312v1 1 2 1c0 1.1143 0.91693 2.0312 2.0312 2.0312h22c1.1143 0 2.0312-0.91693 2.0312-2.0312v-1-2-1-1c0-1.1143-0.91693-2.0312-2.0312-2.0312h-2c-1.1143 0-2.0312 0.91693-2.0312 2.0312v0.96875h-0.96875-12.969v-0.96875c0-1.1143-0.91693-2.0312-2.0312-2.0312h-2z" style="color:#000000;fill:url(#linearGradient4060)" transform="matrix(1,0,0,-1,0,45)"/>
     <path id="path4086" d="m37 22c-0.554 0-1-0.446-1-1v-1-1-2-1c0-0.554 0.446-1 1-1h22c0.554 0 1 0.446 1 1v1 2 1 1c0 0.554-0.446 1-1 1h-2c-0.554 0-1-0.446-1-1v-1c0-0.554-0.446-1-1-1h-1-13c-0.554 0-1 0.446-1 1v1c0 0.554-0.446 1-1 1h-2z" style="color:#000000;fill:url(#linearGradient4058)"/>
    </g>
    <path id="path4090" d="m37 21.969c-1.1143 0-2.0312 0.91693-2.0312 2.0312v1 1 2 1c0 1.1143 0.91693 2.0312 2.0312 2.0312h22c1.1143 0 2.0312-0.91693 2.0312-2.0312v-1-2-1-1c0-1.1143-0.91693-2.0312-2.0312-2.0312h-2c-1.1143 0-2.0312 0.91693-2.0312 2.0312v0.96875h-0.96875-12.969v-0.96875c0-1.1143-0.91693-2.0312-2.0312-2.0312h-2z" style="color:#000000;fill:url(#linearGradient4004)" transform="translate(0,38)"/>
    <path id="path4092" d="m37 61c-0.554 0-1 0.446-1 1v1 1 2 1c0 0.554 0.446 1 1 1h22c0.554 0 1-0.446 1-1v-1-2-1-1c0-0.554-0.446-1-1-1h-2c-0.554 0-1 0.446-1 1v1c0 0.554-0.446 1-1 1h-1-13c-0.554 0-1-0.446-1-1v-1c0-0.554-0.446-1-1-1h-2z" style="color:#000000;fill:url(#linearGradient4100)"/>
   </g>
  </g>
  <rect id="rect3003" style="opacity:.15;fill:#fff" transform="translate(98 3.8281e-7)" clip-path="url(#clipPath3009)" rx="25" ry="25" height="92" width="92" y="958.36" x="-96"/>
 </g>
</svg>
