<?xml version="1.0" encoding="UTF-8" standalone="no"?>
<!-- Created with Inkscape (http://www.inkscape.org/) -->
<svg id="svg11037" xmlns:rdf="http://www.w3.org/1999/02/22-rdf-syntax-ns#" xmlns="http://www.w3.org/2000/svg" height="96" width="96" version="1.1" xmlns:cc="http://creativecommons.org/ns#" xmlns:xlink="http://www.w3.org/1999/xlink" xmlns:dc="http://purl.org/dc/elements/1.1/">
 <defs id="defs11039">
  <radialGradient id="radialGradient3205" gradientUnits="userSpaceOnUse" cy="78.287" cx="47.098" gradientTransform="matrix(1.383 -1.035e-8 0 1.3124 -18.039 -24.219)" r="38.957">
   <stop id="stop3918" style="stop-color:#300b0b" offset="0"/>
   <stop id="stop3920" style="stop-color:#3f0000" offset="1"/>
  </radialGradient>
  <linearGradient id="linearGradient3914" y2="47.5" gradientUnits="userSpaceOnUse" x2="78" gradientTransform="matrix(0,1,1,0,0,0)" y1="47.5" x1="18">
   <stop id="stop2200" style="stop-color:#f00" offset="0"/>
   <stop id="stop2202" style="stop-color:#5a0000" offset="1"/>
  </linearGradient>
  <linearGradient id="linearGradient3946" y2="80" xlink:href="#linearGradient3940" spreadMethod="reflect" gradientUnits="userSpaceOnUse" x2="48" y1="64" x1="48"/>
  <linearGradient id="linearGradient3940">
   <stop id="stop3942" style="stop-color:#ffedb8" offset="0"/>
   <stop id="stop3944" style="stop-color:#fff;stop-opacity:0" offset="1"/>
  </linearGradient>
  <linearGradient id="linearGradient3950" y2="80" xlink:href="#linearGradient3940" spreadMethod="reflect" gradientUnits="userSpaceOnUse" x2="48" gradientTransform="translate(0,-32)" y1="64" x1="48"/>
  <linearGradient id="linearGradient3427" y2="5.9877" gradientUnits="userSpaceOnUse" x2="48" y1="90" x1="48">
   <stop id="stop3189" style="stop-color:#b4b4b4" offset="0"/>
   <stop id="stop3191" style="stop-color:#e6e6e6" offset="1"/>
  </linearGradient>
  <linearGradient id="linearGradient3279" y2="83.295" gradientUnits="userSpaceOnUse" x2="43.179" gradientTransform="matrix(1.0294 0 0 1.0294 -1.4118 -1.4118)" y1="13" x1="43.179">
   <stop id="stop3467" style="stop-color:#919191" offset="0"/>
   <stop id="stop3469" style="stop-color:#fdfdfd" offset="1"/>
  </linearGradient>
  <clipPath id="clipPath3613">
   <rect id="rect3615" style="fill:#fff" rx="6" ry="6" height="84" width="84" y="6" x="6"/>
  </clipPath>
  <filter id="filter3794" height="1.384" width="1.384" color-interpolation-filters="sRGB" y="-.192" x="-.192">
   <feGaussianBlur id="feGaussianBlur3796" stdDeviation="5.28"/>
  </filter>
  <linearGradient id="linearGradient3172" y2="138.66" gradientUnits="userSpaceOnUse" y1="20.221" x2="48" x1="48">
   <stop id="stop3739-8" style="stop-color:#fff" offset="0"/>
   <stop id="stop3741-71" style="stop-color:#fff;stop-opacity:0" offset="1"/>
  </linearGradient>
  <clipPath id="clipPath3114" clipPathUnits="userSpaceOnUse">
   <rect id="rect3116" style="fill:url(#linearGradient3118)" rx="22.826" ry="22.826" height="84" width="84" y="6" x="6"/>
  </clipPath>
  <linearGradient id="linearGradient3118" y2="1046.1" gradientUnits="userSpaceOnUse" x2="48" gradientTransform="matrix(1.05 0 0 1.05 -2.4 -1006.6)" y1="962.62" x1="48">
   <stop id="stop3797" style="stop-color:#13a6fd" offset="0"/>
   <stop id="stop3799" style="stop-color:#2975b6" offset="1"/>
  </linearGradient>
  <clipPath id="clipPath3009" clipPathUnits="userSpaceOnUse">
   <path id="path3011" style="opacity:.15;fill:#fff" d="m-2 956.36h-96v33.562l96 25.687v-59.25z"/>
  </clipPath>
 </defs>
 <metadata id="metadata11042">
  <rdf:RDF>
   <cc:Work rdf:about="">
    <dc:format>image/svg+xml</dc:format>
    <dc:type rdf:resource="http://purl.org/dc/dcmitype/StillImage"/>
    <dc:title/>
   </cc:Work>
  </rdf:RDF>
 </metadata>
 <g id="layer1" transform="translate(0 -956.36)">
  <g id="g3082" clip-path="url(#clipPath3114)" transform="matrix(1.0952 0 0 1.0952 -4.5714 951.79)">
   <g id="layer3">
    <rect id="rect3461" style="fill:url(#radialGradient3205)" rx="5.8528" ry="6.1733" height="78.516" width="77.915" y="8.2544" x="8.1409"/>
    <path id="path3717" d="m18 20c0-1.108 0.892-2 2-2h24c1.108 0 2 0.892 2 2v24c0 1.108-0.892 2-2 2h-24c-1.108 0-2-0.892-2-2v-24zm0 32c0-1.108 0.892-2 2-2h24c1.108 0 2 0.892 2 2v24c0 1.108-0.892 2-2 2h-24c-1.108 0-2-0.892-2-2v-24zm32-32c0-1.108 0.892-2 2-2h24c1.108 0 2 0.892 2 2v24c0 1.108-0.892 2-2 2h-24c-1.108 0-2-0.892-2-2v-24zm0 32c0-1.108 0.892-2 2-2h24c1.108 0 2 0.892 2 2v24c0 1.108-0.892 2-2 2h-24c-1.108 0-2-0.892-2-2v-24z" style="color:#000000;fill:url(#linearGradient3914)"/>
    <path id="path3213" d="m24 23v2.0011l4.0058 1.5466-4.006 1.516v1.936l5.973-2.458 0.027-1.921-6-2.621z" style="fill:#fff"/>
    <path id="path3557" d="m30 30v2h6v-2h-6z" style="fill:#fff"/>
    <path id="rect3222-3" d="m19 13c-3.2894 0-6 2.7106-6 6v58c0 3.2894 2.7106 6 6 6h58c3.2894 0 6-2.7106 6-6v-58c0-3.2894-2.7106-6-6-6h-58zm0 4h58c1.1426 0 2 0.85741 2 2v58c0 1.1426-0.85741 2-2 2h-58c-1.1426 0-2-0.85741-2-2v-58c0-1.1426 0.85741-2 2-2z" style="opacity:.15;block-progression:tb;text-indent:0;color:#000000;text-transform:none"/>
    <path id="rect3981" d="m17 14c-1.662 0-3 1.338-3 3v62c0 1.662 1.338 3 3 3h62c1.662 0 3-1.338 3-3v-62c0-1.662-1.338-3-3-3h-62zm0 1.9375h62c0.61816 0 1.0625 0.44434 1.0625 1.0625v62c0 0.61816-0.44434 1.0625-1.0625 1.0625h-62c-0.61816 0-1.0625-0.44434-1.0625-1.0625v-62c0-0.61816 0.44434-1.0625 1.0625-1.0625z" style="opacity:.3;color:#000000"/>
    <path id="rect3977" d="m17 14c-1.662 0-3 1.338-3 3v62c0 1.662 1.338 3 3 3h62c1.662 0 3-1.338 3-3v-62c0-1.662-1.338-3-3-3h-62zm0 0.96875h62c1.1401 0 2.0312 0.89117 2.0312 2.0312v62c0 1.1401-0.89117 2.0312-2.0312 2.0312h-62c-1.1401 0-2.0312-0.89117-2.0312-2.0312v-62c0-1.1401 0.89117-2.0312 2.0312-2.0312z" style="opacity:.6;color:#000000"/>
    <path id="path3729" d="m56 23v2.0011l4.0058 1.5466-4.006 1.516v1.936l5.973-2.458 0.027-1.921-6-2.621z" style="fill:#fff"/>
    <path id="path3731" d="m62 30v2h6v-2h-6z" style="fill:#fff"/>
    <path id="path3733" d="m24 55v2.0011l4.0058 1.5466-4.006 1.516v1.936l5.973-2.458 0.027-1.921-6-2.621z" style="fill:#fff"/>
    <path id="path3735" d="m30 62v2h6v-2h-6z" style="fill:#fff"/>
    <path id="path3737" d="m56 55v2.0011l4.0058 1.5466-4.006 1.516v1.936l5.973-2.458 0.027-1.921-6-2.621z" style="fill:#fff"/>
    <path id="path3739" d="m62 62v2h6v-2h-6z" style="fill:#fff"/>
    <path id="path3741" d="m20 18c-1.108 0-2 0.892-2 2v24c0 1.108 0.892 2 2 2h24c1.108 0 2-0.892 2-2v-24c0-1.108-0.892-2-2-2h-24zm32 0c-1.108 0-2 0.892-2 2v24c0 1.108 0.892 2 2 2h24c1.108 0 2-0.892 2-2v-24c0-1.108-0.892-2-2-2h-24zm-32 1.2812h24c0.41998 0 0.71875 0.29877 0.71875 0.71875v24c0 0.41998-0.29877 0.71875-0.71875 0.71875h-24c-0.41998 0-0.71875-0.29877-0.71875-0.71875v-24c0-0.41998 0.29877-0.71875 0.71875-0.71875zm32 0h24c0.41998 0 0.71875 0.29877 0.71875 0.71875v24c0 0.41998-0.29877 0.71875-0.71875 0.71875h-24c-0.41998 0-0.71875-0.29877-0.71875-0.71875v-24c0-0.41998 0.29877-0.71875 0.71875-0.71875zm-32 30.719c-1.108 0-2 0.892-2 2v24c0 1.108 0.892 2 2 2h24c1.108 0 2-0.892 2-2v-24c0-1.108-0.892-2-2-2h-24zm32 0c-1.108 0-2 0.892-2 2v24c0 1.108 0.892 2 2 2h24c1.108 0 2-0.892 2-2v-24c0-1.108-0.892-2-2-2h-24zm-32 1.2812h24c0.41998 0 0.71875 0.29877 0.71875 0.71875v24c0 0.41998-0.29877 0.71875-0.71875 0.71875h-24c-0.41998 0-0.71875-0.29877-0.71875-0.71875v-24c0-0.41998 0.29877-0.71875 0.71875-0.71875zm32 0h24c0.41998 0 0.71875 0.29877 0.71875 0.71875v24c0 0.41998-0.29877 0.71875-0.71875 0.71875h-24c-0.41998 0-0.71875-0.29877-0.71875-0.71875v-24c0-0.41998 0.29877-0.71875 0.71875-0.71875z" style="opacity:.3;color:#000000;fill:#2b0000"/>
    <path id="rect3922" d="m18.281 51c-0.17 0.295-0.281 0.634-0.281 1h28c0-0.3661-0.11087-0.70545-0.28125-1h-27.438zm32 0c-0.17 0.295-0.281 0.634-0.281 1h28c0-0.3661-0.11087-0.70545-0.28125-1h-27.438zm-32.281 4v1h28v-1h-28zm32 0v1h28v-1h-28zm-32 4v1h28v-1h-28zm32 0v1h28v-1h-28zm-32 4v1h28v-1h-28zm32 0v1h28v-1h-28zm-32 4v1h28v-1h-28zm32 0v1h28v-1h-28zm-32 4v1h28v-1h-28zm32 0v1h28v-1h-28zm-32 4v1h28v-1h-28zm32 0v1h28v-1h-28z" style="opacity:.3;color:#000000;fill:url(#linearGradient3946)"/>
    <path id="path3948" d="m18.281 19c-0.17 0.295-0.281 0.634-0.281 1h28c0-0.3661-0.11087-0.70545-0.28125-1h-27.438zm32 0c-0.17 0.295-0.281 0.634-0.281 1h28c0-0.3661-0.11087-0.70545-0.28125-1h-27.438zm-32.281 4v1h28v-1h-28zm32 0v1h28v-1h-28zm-32 4v1h28v-1h-28zm32 0v1h28v-1h-28zm-32 4v1h28v-1h-28zm32 0v1h28v-1h-28zm-32 4v1h28v-1h-28zm32 0v1h28v-1h-28zm-32 4v1h28v-1h-28zm32 0v1h28v-1h-28zm-32 4v1h28v-1h-28zm32 0v1h28v-1h-28z" style="opacity:.3;color:#000000;fill:url(#linearGradient3950)"/>
    <path id="rect3256" d="m14 8.25c-3.2424 0-5.8438 2.7675-5.8438 6.1875v44.062c18.824-13.859 45.812-23.794 77.906-21.781v-22.281c0-3.42-2.6326-6.1875-5.875-6.1875l-66.187-0.0005z" style="opacity:.2;fill:#fca"/>
   </g>
   <path id="rect2419" d="m12 6c-3.324 0-6 2.676-6 6v72c0 3.324 2.676 6 6 6h72c3.324 0 6-2.676 6-6v-72c0-3.324-2.676-6-6-6h-72zm5 7h62c2.216 0 4 1.784 4 4v62c0.000001 2.216-1.784 4-4 4h-62c-2.216 0.000001-4-1.784-4-4v-62c0-2.216 1.784-4 4-4z" style="fill:url(#linearGradient3427)"/>
   <path id="rect3425" d="m17 12c-2.7527 0-5 2.2473-5 5v62c0 2.7527 2.2473 5 5 5h62c2.7527 0 5-2.2473 5-5v-62c0-2.7527-2.2473-5-5-5h-62zm0 2h62c1.6793 0 3 1.3207 3 3v62c0.000001 1.6793-1.3207 3-3 3h-62c-1.6793 0-3-1.3207-3-3v-62c0-1.6793 1.3207-3 3-3z" style="fill:url(#linearGradient3279)"/>
   <rect id="rect3171" style="opacity:.1;filter:url(#filter3794);stroke:#fff;stroke-linecap:round;stroke-width:.5;fill:url(#linearGradient3172)" clip-path="url(#clipPath3613)" rx="12" ry="12" height="66" width="66" y="15" x="15"/>
  </g>
  <rect id="rect3003" style="opacity:.15;fill:#fff" transform="translate(98 3.8281e-7)" clip-path="url(#clipPath3009)" rx="25" ry="25" height="92" width="92" y="958.36" x="-96"/>
 </g>
</svg>
