<?xml version="1.0" encoding="UTF-8" standalone="no"?>
<!-- Created with Inkscape (http://www.inkscape.org/) -->
<svg id="svg11037" xmlns:rdf="http://www.w3.org/1999/02/22-rdf-syntax-ns#" xmlns="http://www.w3.org/2000/svg" height="96" width="96" version="1.1" xmlns:cc="http://creativecommons.org/ns#" xmlns:xlink="http://www.w3.org/1999/xlink" xmlns:dc="http://purl.org/dc/elements/1.1/">
 <defs id="defs11039">
  <linearGradient id="linearGradient3643" y2="7.2913" xlink:href="#ButtonShadow-9" gradientUnits="userSpaceOnUse" x2="40.716" y1="91.151" x1="40.716"/>
  <linearGradient id="ButtonShadow-9" y2="7.0165" gradientUnits="userSpaceOnUse" x2="45.448" gradientTransform="scale(1.0059 .99417)" y1="92.54" x1="45.448">
   <stop id="stop3750-7" offset="0"/>
   <stop id="stop3752-3" style="stop-opacity:.58824" offset="1"/>
  </linearGradient>
  <linearGradient id="linearGradient3652" y2="7.2913" xlink:href="#ButtonShadow-9" gradientUnits="userSpaceOnUse" x2="40.716" gradientTransform="matrix(1.0238 0 0 1.0119 -1.1429 -.083333)" y1="91.151" x1="40.716"/>
  <linearGradient id="linearGradient2982" y2="5.9877" gradientUnits="userSpaceOnUse" x2="48" y1="90" x1="48">
   <stop id="stop3189-4" style="stop-color:#dcdcdc" offset="0"/>
   <stop id="stop3191-0" style="stop-color:#f5f5f5" offset="1"/>
  </linearGradient>
  <linearGradient id="linearGradient2984" y2="74.093" xlink:href="#linearGradient3737-1" gradientUnits="userSpaceOnUse" x2="31.714" y1="6" x1="31.714"/>
  <linearGradient id="linearGradient3737-1">
   <stop id="stop3739-1" style="stop-color:#fff" offset="0"/>
   <stop id="stop3741-0" style="stop-color:#fff;stop-opacity:0" offset="1"/>
  </linearGradient>
  <radialGradient id="radialGradient2986" xlink:href="#linearGradient3737-1" gradientUnits="userSpaceOnUse" cy="89.689" cx="47.967" gradientTransform="matrix(1.3341 0 0 .95759 -16.026 2.1113)" r="42"/>
  <clipPath id="clipPath4200">
   <rect id="rect4202" style="fill:#fff" height="37.781" width="37.781" y="60.829" x="134.06"/>
  </clipPath>
  <radialGradient id="radialGradient3831" gradientUnits="userSpaceOnUse" cy="123.5" cx="111.25" gradientTransform="matrix(.20504 0 0 .20504 131.79 56.733)" r="91">
   <stop id="stop5" offset="0"/>
   <stop id="stop7" offset=".5"/>
   <stop id="stop9" style="stop-opacity:0" offset="1"/>
  </radialGradient>
  <radialGradient id="radialGradient3827" gradientUnits="userSpaceOnUse" cy="175.67" cx="151.75" gradientTransform="matrix(.20504 0 0 .20504 131.79 56.733)" r="126.3">
   <stop id="stop12" style="stop-color:#f2be7f" offset="0"/>
   <stop id="stop14" style="stop-color:#ffffdc" offset="1"/>
  </radialGradient>
  <linearGradient id="linearGradient3824" y2="45.62" gradientUnits="userSpaceOnUse" x2="94.45" gradientTransform="matrix(.20504 0 0 .20504 131.79 56.733)" y1="79.08" x1="100.13">
   <stop id="stop17" style="stop-color:#c3ad7b" offset="0"/>
   <stop id="stop19" style="stop-color:#a25f00" offset="1"/>
  </linearGradient>
  <radialGradient id="radialGradient3820" gradientUnits="userSpaceOnUse" cy="87" cx="149.75" gradientTransform="matrix(.20504 0 0 .20504 131.79 56.733)" r="90.87">
   <stop id="stop22" style="stop-color:#f2be7f" offset="0"/>
   <stop id="stop24" style="stop-color:#ffffdc" offset="1"/>
  </radialGradient>
  <linearGradient id="linearGradient3817" y2="164.25" gradientUnits="userSpaceOnUse" x2="82.47" gradientTransform="matrix(.20504 0 0 .20504 131.79 56.733)" y1="171.37" x1="80.16">
   <stop id="stop27" style="stop-color:#aa944b" offset="0"/>
   <stop id="stop29" style="stop-color:#aa944b;stop-opacity:0" offset="1"/>
  </linearGradient>
  <linearGradient id="linearGradient3812" y2="58.06" gradientUnits="userSpaceOnUse" x2="34.92" gradientTransform="matrix(.20504 0 0 .20504 131.79 56.733)" y1="84.02" x1="34.92">
   <stop id="stop32" style="stop-color:#d2b170" offset=".01"/>
   <stop id="stop34" style="stop-color:#a25f00" offset="1"/>
  </linearGradient>
  <linearGradient id="linearGradient3809" y2="71.33" gradientUnits="userSpaceOnUse" x2="85.49" gradientTransform="matrix(.20504 0 0 .20504 131.79 56.733)" y1="124.25" x1="85.49">
   <stop id="stop37" style="stop-color:#a25f00;stop-opacity:0" offset="0"/>
   <stop id="stop39" style="stop-color:#a25f00" offset="1"/>
  </linearGradient>
  <linearGradient id="linearGradient3805" y2="165.83" gradientUnits="userSpaceOnUse" x2="29.23" gradientTransform="matrix(.20504 0 0 .20504 131.79 56.733)" y1="187.64" x1="29.23">
   <stop id="stop42" style="stop-color:#a4d8e5" offset="0"/>
   <stop id="stop44" style="stop-color:#0c418f" offset=".5"/>
   <stop id="stop46" style="stop-color:#000060" offset="1"/>
  </linearGradient>
  <linearGradient id="linearGradient3802" y2="141.59" gradientUnits="userSpaceOnUse" x2="15.71" gradientTransform="matrix(.20504 0 0 .20504 131.79 56.733)" y1="170.38" x1="15.71">
   <stop id="stop49" style="stop-color:#a4d8e5" offset="0"/>
   <stop id="stop51" style="stop-color:#0c418f" offset=".5"/>
   <stop id="stop53" style="stop-color:#000060" offset="1"/>
  </linearGradient>
  <radialGradient id="radialGradient3799" gradientUnits="userSpaceOnUse" cy="67" cx="41.75" gradientTransform="matrix(.20504 0 0 .20504 131.79 56.733)" r="77.83">
   <stop id="stop56" style="stop-color:#000060" offset="0"/>
   <stop id="stop58" style="stop-color:#0c418f" offset=".5"/>
   <stop id="stop60" style="stop-color:#a4d8e5" offset="1"/>
  </radialGradient>
  <radialGradient id="radialGradient3795" gradientUnits="userSpaceOnUse" cy="54.25" cx="57.5" gradientTransform="matrix(.20504 0 0 .20504 131.79 56.733)" r="71.42">
   <stop id="stop63" style="stop-color:#000060" offset="0"/>
   <stop id="stop65" style="stop-color:#0c418f" offset=".5"/>
   <stop id="stop67" style="stop-color:#a4d8e5" offset="1"/>
  </radialGradient>
  <linearGradient id="linearGradient3792" y2="90.3" gradientUnits="userSpaceOnUse" x2="9.22" gradientTransform="matrix(.20504 0 0 .20504 131.79 56.733)" y1="25.34" x1="46.73">
   <stop id="stop70" style="stop-color:#1b609d" offset=".01"/>
   <stop id="stop72" style="stop-color:#9fd2e5" offset=".5"/>
   <stop id="stop74" style="stop-color:#4187b8" offset="1"/>
  </linearGradient>
  <linearGradient id="linearGradient3906" y2="81.38" gradientUnits="userSpaceOnUse" x2="123.46" gradientTransform="matrix(.20504 0 0 .20504 131.79 36.733)" y1="24.35" x1="66.43">
   <stop id="stop77" style="stop-color:#a4d8e5" offset="0"/>
   <stop id="stop79" style="stop-color:#0c418f" offset="0.67"/>
   <stop id="stop81" style="stop-color:#000040" offset="1"/>
  </linearGradient>
  <linearGradient id="linearGradient3908" y2="8.88" gradientUnits="userSpaceOnUse" x2="61.5" gradientTransform="matrix(.20504 0 0 .20504 131.79 36.733)" y1="36.5" x1="71.55">
   <stop id="stop84" style="stop-color:#a4d8e5" offset="0"/>
   <stop id="stop86" style="stop-color:#0c418f" offset="1"/>
  </linearGradient>
  <linearGradient id="linearGradient3910" y2="30.65" gradientUnits="userSpaceOnUse" x2="94.57" gradientTransform="matrix(.20504 0 0 .20504 131.79 36.733)" y1="74.9" x1="50.32">
   <stop id="stop132" style="stop-color:#a5b4d3" offset="0"/>
   <stop id="stop134" style="stop-color:#a5b4d3;stop-opacity:0.33" offset="1"/>
  </linearGradient>
  <linearGradient id="linearGradient3912" y2="28.5" gradientUnits="userSpaceOnUse" x2="92.41" gradientTransform="matrix(.20504 0 0 .20504 131.79 36.733)" y1="72.75" x1="48.16">
   <stop id="stop137" style="stop-color:#264b92" offset="0"/>
   <stop id="stop139" style="stop-color:#264b92;stop-opacity:0.33" offset="1"/>
  </linearGradient>
  <radialGradient id="radialGradient3914" gradientUnits="userSpaceOnUse" cy="67.17" cx="58.58" gradientTransform="matrix(.20504 0 0 .20504 131.79 36.733)" r="8.51">
   <stop id="stop142" style="stop-color:#600000" offset="0"/>
   <stop id="stop144" style="stop-color:#c00000" offset=".5"/>
   <stop id="stop146" style="stop-color:#f6aa00" offset="1"/>
  </radialGradient>
  <radialGradient id="radialGradient3916" gradientUnits="userSpaceOnUse" cy="65.11" cx="59.61" gradientTransform="matrix(.20504 0 0 .20504 131.79 36.733)" r="3.8">
   <stop id="stop149" style="stop-color:#fff" offset=".01"/>
   <stop id="stop151" offset="1"/>
  </radialGradient>
  <radialGradient id="radialGradient3918" gradientUnits="userSpaceOnUse" cy="87.5" cx="51.5" gradientTransform="matrix(.20504 0 0 .20504 131.79 36.733)" r="12.97">
   <stop id="stop154" style="stop-color:#769eb8" offset="0"/>
   <stop id="stop156" style="stop-color:#fff" offset="1"/>
  </radialGradient>
  <radialGradient id="radialGradient3920" gradientUnits="userSpaceOnUse" cy="82.5" cx="47.25" gradientTransform="matrix(.20504 0 0 .20504 131.79 36.733)" r="3.78">
   <stop id="stop159" style="stop-color:#fff" offset=".01"/>
   <stop id="stop161" offset="1"/>
  </radialGradient>
  <clipPath id="clipPath4196">
   <rect id="rect4198" style="fill:#fff" height="37.781" width="37.781" y="60.829" x="154.06"/>
  </clipPath>
  <linearGradient id="linearGradient3958" y2="126.46" gradientUnits="userSpaceOnUse" x2="170.24" gradientTransform="matrix(.20504 0 0 .20504 151.79 56.733)" y1="222.04" x1="115.05">
   <stop id="stop89" style="stop-color:#b4b4dc" offset=".01"/>
   <stop id="stop91" offset="1"/>
  </linearGradient>
  <linearGradient id="linearGradient3960" y2="173.9" gradientUnits="userSpaceOnUse" x2="168.19" gradientTransform="matrix(.20504 0 0 .20504 151.79 56.733)" y1="224.1" x1="139.21">
   <stop id="stop94" style="stop-color:#b4b4dc" offset=".01"/>
   <stop id="stop96" offset="1"/>
  </linearGradient>
  <linearGradient id="linearGradient3962" y2="72.25" gradientUnits="userSpaceOnUse" x2="185.79" gradientTransform="matrix(.20504 0 0 .20504 151.79 56.733)" y1="171.82" x1="185.79">
   <stop id="stop99" style="stop-color:#6498c1" offset="0"/>
   <stop id="stop101" style="stop-color:#0c418f" offset=".2"/>
   <stop id="stop103" style="stop-color:#000040" offset="1"/>
  </linearGradient>
  <linearGradient id="linearGradient3964" y2="60.68" gradientUnits="userSpaceOnUse" x2="185.2" gradientTransform="matrix(.20504 0 0 .20504 151.79 56.733)" y1="149.75" x1="185.2">
   <stop id="stop106" style="stop-color:#a4d8e5" offset="0"/>
   <stop id="stop108" style="stop-color:#0c418f" offset=".2"/>
   <stop id="stop110" style="stop-color:#000040" offset=".5"/>
  </linearGradient>
  <linearGradient id="linearGradient3966" y2="83.48" gradientUnits="userSpaceOnUse" x2="151.2" gradientTransform="matrix(.20504 0 0 .20504 151.79 56.733)" y1="134.73" x1="151.2">
   <stop id="stop113" style="stop-color:#a4d8e5" offset="0"/>
   <stop id="stop115" style="stop-color:#0c418f" offset=".5"/>
   <stop id="stop117" style="stop-color:#000060" offset="1"/>
  </linearGradient>
  <linearGradient id="linearGradient3968" y2="88.06" gradientUnits="userSpaceOnUse" x2="171.09" gradientTransform="matrix(.20504 0 0 .20504 151.79 56.733)" y1="33.56" x1="132.09">
   <stop id="stop120" style="stop-color:#4187b8" offset="0"/>
   <stop id="stop122" style="stop-color:#074e92" offset="1"/>
  </linearGradient>
  <linearGradient id="linearGradient3970" y2="23.41" gradientUnits="userSpaceOnUse" x2="134.68" gradientTransform="matrix(.20504 0 0 .20504 151.79 56.733)" y1="71.09" x1="162.21">
   <stop id="stop125" style="stop-color:#1b609d" offset=".01"/>
   <stop id="stop127" style="stop-color:#9fd2e5" offset=".5"/>
   <stop id="stop129" style="stop-color:#4187b8" offset="1"/>
  </linearGradient>
  <clipPath id="clipPath4175">
   <path id="path4177" style="fill:url(#linearGradient4179)" d="m11.098 2.9904c-4.5114 0-8.1709 3.4413-8.5275 7.8578 3.528 0.02442 6.3844 2.8954 6.3844 6.4291 0 3.5489-2.8802 6.4291-6.4291 6.4291v10.001c3.5489 0 6.4291 2.8802 6.4291 6.4291s-2.8802 6.4291-6.4291 6.4291v10.001c3.5489 0 6.4291 2.8802 6.4291 6.4291s-2.8802 6.4291-6.4291 6.4291v10.001c3.5489 0 6.4291 2.8802 6.4291 6.4291s-2.8802 6.4291-6.4291 6.4291v10.001c3.5489-0.00001 6.4291 2.8802 6.4291 6.4291 0 3.5337-2.8564 6.4047-6.3844 6.4291 0.3566 4.42 4.0162 7.86 8.5275 7.86 0-3.5489 2.8802-6.4291 6.4291-6.4291s6.4291 2.8802 6.4291 6.4291h10.001c0-3.5489 2.8802-6.4291 6.4291-6.4291s6.4291 2.8802 6.4291 6.4291h10.001c0-3.5489 2.8802-6.4291 6.4291-6.4291s6.4291 2.8802 6.4291 6.4291h10.001c0-3.5489 2.8802-6.4291 6.4291-6.4291s6.4291 2.8802 6.4291 6.4291h10.001c-0.00001-3.5489 2.8802-6.4291 6.4291-6.4291 3.5034 0 6.3567 2.809 6.4291 6.2952 3.8411-0.63593 6.7806-3.7817 7.0988-7.7238-3.528-0.0244-6.3844-2.8954-6.3844-6.4291 0-3.5489 2.8802-6.4291 6.4291-6.4291v-10.001c-3.5489 0.000002-6.4291-2.8802-6.4291-6.4291s2.8802-6.4291 6.4291-6.4291v-10.001c-3.5489 0.000001-6.4291-2.8802-6.4291-6.4291s2.8802-6.4291 6.4291-6.4291v-10.001c-3.5489 0.000002-6.4291-2.8802-6.4291-6.4291s2.8802-6.4291 6.4291-6.4291v-10.001c-3.5489 0.000001-6.4291-2.8802-6.4291-6.4291 0-3.5337 2.8564-6.4047 6.3844-6.4291-0.31823-3.9421-3.2577-7.0879-7.0988-7.7238-0.0724 3.4862-2.9256 6.2951-6.4291 6.2951-3.5489 0-6.4291-2.8802-6.4291-6.4291h-10.001c0.000001 3.5489-2.8802 6.4291-6.4291 6.4291s-6.4291-2.8802-6.4291-6.4291h-10.001c0.000002 3.5489-2.8802 6.4291-6.4291 6.4291s-6.4291-2.8802-6.4291-6.4291h-10.001c0.000001 3.5489-2.8802 6.4291-6.4291 6.4291s-6.4291-2.8802-6.4291-6.4291h-10.001c0.000002 3.5489-2.8802 6.4291-6.4291 6.4291s-6.4291-2.8802-6.4291-6.4291z"/>
  </clipPath>
  <linearGradient id="linearGradient3613" y2="138.66" gradientUnits="userSpaceOnUse" x2="48" y1="20.221" x1="48">
   <stop id="stop3739" style="stop-color:#fff" offset="0"/>
   <stop id="stop3741" style="stop-color:#fff;stop-opacity:0" offset="1"/>
  </linearGradient>
  <clipPath id="clipPath3613">
   <rect id="rect3615" style="fill:#fff" rx="6" ry="6" height="84" width="84" y="6" x="6"/>
  </clipPath>
  <filter id="filter3794" height="1.384" width="1.384" color-interpolation-filters="sRGB" y="-.192" x="-.192">
   <feGaussianBlur id="feGaussianBlur3796" stdDeviation="5.28"/>
  </filter>
  <clipPath id="clipPath3452" clipPathUnits="userSpaceOnUse">
   <rect id="rect3454" style="fill:url(#linearGradient3456)" rx="23.37" ry="23.37" height="86" width="86" y="6" x="5"/>
  </clipPath>
  <linearGradient id="linearGradient3456" y2="1046.1" gradientUnits="userSpaceOnUse" x2="48" gradientTransform="matrix(1.075 0 0 1.075 -3.5999 -1030.7)" y1="962.62" x1="48">
   <stop id="stop3797" style="stop-color:#13a6fd" offset="0"/>
   <stop id="stop3799" style="stop-color:#2975b6" offset="1"/>
  </linearGradient>
  <clipPath id="clipPath3009" clipPathUnits="userSpaceOnUse">
   <path id="path3011" style="opacity:.15;fill:#fff" d="m-2 956.36h-96v33.562l96 25.687v-59.25z"/>
  </clipPath>
 </defs>
 <metadata id="metadata11042">
  <rdf:RDF>
   <cc:Work rdf:about="">
    <dc:format>image/svg+xml</dc:format>
    <dc:type rdf:resource="http://purl.org/dc/dcmitype/StillImage"/>
    <dc:title/>
   </cc:Work>
  </rdf:RDF>
 </metadata>
 <g id="layer1" transform="translate(0 -956.36)">
  <g id="g3217" clip-path="url(#clipPath3452)" transform="matrix(1.0698 0 0 1.0698 -3.3488 951.94)">
   <path id="path2860" d="m12 7c-3.1577 0-5.7192 2.4087-5.9688 5.5 2.4695 0.017 4.4688 2.027 4.4688 4.5 0 2.484-2.016 4.5-4.5 4.5v7c2.484 0 4.5 2.016 4.5 4.5s-2.016 4.5-4.5 4.5v7c2.484 0 4.5 2.016 4.5 4.5s-2.016 4.5-4.5 4.5v7c2.484 0 4.5 2.016 4.5 4.5s-2.016 4.5-4.5 4.5v7c2.484-0.000004 4.5 2.016 4.5 4.5 0 2.4734-1.9993 4.4829-4.4688 4.5 0.2496 3.091 2.8111 5.5 5.9688 5.5 0-2.484 2.016-4.5 4.5-4.5s4.5 2.016 4.5 4.5h7c0-2.484 2.016-4.5 4.5-4.5s4.5 2.016 4.5 4.5h7c0-2.484 2.016-4.5 4.5-4.5s4.5 2.016 4.5 4.5h7c0-2.484 2.016-4.5 4.5-4.5s4.5 2.016 4.5 4.5h7c-0.000004-2.484 2.016-4.5 4.5-4.5 2.4522 0 4.4493 1.9661 4.5 4.4062 2.689-0.445 4.746-2.647 4.969-5.406-2.47-0.017-4.469-2.027-4.469-4.5 0-2.484 2.016-4.5 4.5-4.5v-7c-2.484 0.000001-4.5-2.016-4.5-4.5s2.016-4.5 4.5-4.5v-7c-2.484 0.000001-4.5-2.016-4.5-4.5s2.016-4.5 4.5-4.5v-7c-2.484 0.000001-4.5-2.016-4.5-4.5s2.016-4.5 4.5-4.5v-7c-2.484 0.000001-4.5-2.016-4.5-4.5 0-2.4734 1.9993-4.4829 4.4688-4.5-0.223-2.7593-2.28-4.9611-4.969-5.4062-0.051 2.4401-2.048 4.4062-4.5 4.4062-2.484 0-4.5-2.016-4.5-4.5h-7c0.000001 2.484-2.016 4.5-4.5 4.5s-4.5-2.016-4.5-4.5h-7c0.000001 2.484-2.016 4.5-4.5 4.5s-4.5-2.016-4.5-4.5h-7c0.000001 2.484-2.016 4.5-4.5 4.5s-4.5-2.016-4.5-4.5h-7c0.000001 2.484-2.016 4.5-4.5 4.5s-4.5-2.016-4.5-4.5z" style="opacity:.45;fill:url(#linearGradient3643)"/>
   <path id="path3645" d="m20.344 7c0 2.5136-2.0506 4.5625-4.5938 4.5625-2.5214 0-4.559-2.016-4.5938-4.5-2.9961 0.35852-5.3943 2.5891-6 5.5 2.4704 0.08203 4.4375 2.1009 4.4375 4.5625 0 2.5136-2.0506 4.5625-4.5938 4.5625v7.062c2.5431 0 4.5938 2.0489 4.5938 4.5625s-2.0506 4.5625-4.5938 4.5625v7.0625c2.5431 0 4.5938 2.0489 4.5938 4.5625s-2.0506 4.5625-4.5938 4.5625v7.0625c2.5431 0 4.5938 2.0489 4.5938 4.5625 0 2.513-2.0507 4.562-4.5938 4.562v7.0625c2.5431-0.000004 4.5938 2.0489 4.5938 4.5625 0 2.4615-1.9671 4.4805-4.4375 4.5625 0.60574 2.9109 3.0039 5.1415 6 5.5 0.03479-2.484 2.0723-4.5 4.5938-4.5 2.5431 0 4.5938 2.0489 4.5938 4.5625h7.1875c0-2.5136 2.0506-4.5625 4.5938-4.5625s4.625 2.0489 4.625 4.5625h7.1562c0-2.5136 2.0506-4.5625 4.5938-4.5625s4.625 2.0489 4.625 4.5625h7.1562c0-2.5136 2.0818-4.5625 4.625-4.5625 2.5431 0 4.5938 2.0489 4.5938 4.5625h7.1562c-0.00001-2.5136 2.0819-4.5625 4.625-4.5625 2.456 0 4.4276 1.9182 4.5625 4.3125 2.5226-0.68216 4.4631-2.7322 5-5.3125-2.4704-0.08204-4.4375-2.1009-4.4375-4.5625 0-2.5136 2.0506-4.5625 4.5938-4.5625l-0.001-7.062c-2.5431 0.000001-4.5938-2.0489-4.5938-4.5625s2.0506-4.5625 4.5938-4.5625v-7.0625c-2.5431 0.000001-4.5938-2.0489-4.5938-4.5625s2.0506-4.5625 4.5938-4.5625v-7.0625c-2.5431 0.000001-4.5938-2.0489-4.5938-4.5625s2.0506-4.5625 4.5938-4.5625v-7.0625c-2.5431 0.000001-4.5938-2.0489-4.5938-4.5625 0-2.4616 1.9671-4.4805 4.4375-4.5625-0.53694-2.5803-2.4774-4.6303-5-5.3125-0.13492 2.3943-2.1065 4.3125-4.5625 4.3125-2.5432 0-4.625-2.0489-4.625-4.5625l-7.156 0.002c0 2.5136-2.0506 4.5625-4.5938 4.5625s-4.625-2.0489-4.625-4.5625h-7.156c0 2.5136-2.0818 4.5625-4.625 4.5625-2.5431 0-4.5938-2.0489-4.5938-4.5625h-7.156c0.00001 2.5136-2.0819 4.5625-4.625 4.5625s-4.5938-2.0489-4.5938-4.5625h-7.1875z" style="opacity:.3;fill:url(#linearGradient3652)"/>
   <g id="layer1-5">
    <path id="rect2419" d="m12 6c-3.1577 0-5.7192 2.4087-5.9688 5.5 2.4695 0.017 4.4688 2.027 4.4688 4.5 0 2.484-2.016 4.5-4.5 4.5v7c2.484 0 4.5 2.016 4.5 4.5s-2.016 4.5-4.5 4.5v7c2.484 0 4.5 2.016 4.5 4.5s-2.016 4.5-4.5 4.5v7c2.484 0 4.5 2.016 4.5 4.5s-2.016 4.5-4.5 4.5v7c2.484-0.000004 4.5 2.016 4.5 4.5 0 2.4734-1.9993 4.4829-4.4688 4.5 0.2496 3.091 2.8111 5.5 5.9688 5.5 0-2.484 2.016-4.5 4.5-4.5s4.5 2.016 4.5 4.5h7c0-2.484 2.016-4.5 4.5-4.5s4.5 2.016 4.5 4.5h7c0-2.484 2.016-4.5 4.5-4.5s4.5 2.016 4.5 4.5h7c0-2.484 2.016-4.5 4.5-4.5s4.5 2.016 4.5 4.5h7c-0.000004-2.484 2.016-4.5 4.5-4.5 2.4522 0 4.4493 1.9661 4.5 4.4062 2.689-0.445 4.746-2.647 4.969-5.406-2.47-0.017-4.469-2.027-4.469-4.5 0-2.484 2.016-4.5 4.5-4.5v-7c-2.484 0.000001-4.5-2.016-4.5-4.5s2.016-4.5 4.5-4.5v-7c-2.484 0.000001-4.5-2.016-4.5-4.5s2.016-4.5 4.5-4.5v-7c-2.484 0.000001-4.5-2.016-4.5-4.5s2.016-4.5 4.5-4.5v-7c-2.484 0.000001-4.5-2.016-4.5-4.5 0-2.4734 1.9993-4.4829 4.4688-4.5-0.223-2.7593-2.28-4.9611-4.969-5.4062-0.051 2.4401-2.048 4.4062-4.5 4.4062-2.484 0-4.5-2.016-4.5-4.5h-7c0.000001 2.484-2.016 4.5-4.5 4.5s-4.5-2.016-4.5-4.5h-7c0.000001 2.484-2.016 4.5-4.5 4.5s-4.5-2.016-4.5-4.5h-7c0.000001 2.484-2.016 4.5-4.5 4.5s-4.5-2.016-4.5-4.5h-7c0.000001 2.484-2.016 4.5-4.5 4.5s-4.5-2.016-4.5-4.5z" style="fill:url(#linearGradient2982)"/>
    <path id="path3421" d="m12 6c-3.1577 0-5.7192 2.4087-5.9688 5.5 0.38756 0.0027 0.76651 0.06132 1.125 0.15625 0.5061-1.9477 2.0913-3.3645 4.1248-3.656 0.51358 2.4581 2.6136 4.375 5.2188 4.375 2.6501 0 4.7867-1.9789 5.25-4.5h5.5c0.46326 2.5211 2.5999 4.5 5.25 4.5s4.7867-1.9789 5.25-4.5h5.5c0.46326 2.5211 2.5999 4.5 5.25 4.5s4.7867-1.9789 5.25-4.5h5.5c0.46326 2.5211 2.5999 4.5 5.25 4.5s4.7867-1.9789 5.25-4.5h5.5c0.46326 2.5211 2.5999 4.5 5.25 4.5 2.5338 0 4.5992-1.7976 5.1875-4.1562 1.5651 0.55239 2.7347 1.8127 3.1562 3.4375 0.35849-0.09493 0.73744-0.15357 1.125-0.15625-0.223-2.7593-2.28-4.9611-4.969-5.4062-0.051 2.4401-2.048 4.4062-4.5 4.4062-2.484 0-4.5-2.016-4.5-4.5h-7c0.000001 2.484-2.016 4.5-4.5 4.5s-4.5-2.016-4.5-4.5h-7c0.000001 2.484-2.016 4.5-4.5 4.5s-4.5-2.016-4.5-4.5h-7c0.000001 2.484-2.016 4.5-4.5 4.5s-4.5-2.016-4.5-4.5h-7c0.000001 2.484-2.016 4.5-4.5 4.5s-4.5-2.016-4.5-4.5zm-3.9688 6c1.4653 0.742 2.4688 2.246 2.4688 4 0 2.484-2.016 4.5-4.5 4.5v7c0.32107 0 0.63541 0.02973 0.9375 0.09375v-5.4062c2.5211-0.46326 4.5-2.5999 4.5-5.25 0-2.2513-1.4321-4.1336-3.4062-4.9375zm79.938 0c-1.9742 0.80387-3.4062 2.6862-3.4062 4.9375 0 2.6501 1.9789 4.7867 4.5 5.25v5.4062c0.302-0.064 0.616-0.094 0.937-0.094v-7c-2.484 0.000001-4.5-2.016-4.5-4.5 0-1.7538 1.0035-3.2576 2.4688-4zm-79.782 16.094c1.3692 0.772 2.3125 2.223 2.3125 3.906 0 2.484-2.016 4.5-4.5 4.5v7c0.32107 0 0.63541 0.02973 0.9375 0.09375v-5.4062c2.5211-0.46326 4.5-2.5999 4.5-5.25 0-2.1892-1.3591-4.0092-3.25-4.8438zm79.625 0c-1.8909 0.83456-3.25 2.6546-3.25 4.8438 0 2.6501 1.9789 4.7867 4.5 5.25v5.4062c0.303-0.064 0.617-0.094 0.938-0.094v-7c-2.484 0.000001-4.5-2.016-4.5-4.5 0-1.6828 0.94331-3.1343 2.3125-3.9062zm-79.625 16c1.3697 0.772 2.313 2.223 2.313 3.906 0 2.484-2.016 4.5-4.5 4.5v7c0.32107 0 0.63541 0.02973 0.9375 0.09375v-5.4062c2.5211-0.46326 4.5-2.5999 4.5-5.25 0-2.1892-1.3591-4.0092-3.25-4.8438zm79.625 0c-1.8909 0.83456-3.25 2.6546-3.25 4.8438 0 2.6501 1.9789 4.7867 4.5 5.25v5.4062c0.303-0.064 0.617-0.094 0.938-0.094v-7c-2.484 0.000001-4.5-2.016-4.5-4.5 0-1.6828 0.94331-3.1343 2.3125-3.9062zm-79.625 16c1.3697 0.772 2.313 2.223 2.313 3.906 0 2.484-2.016 4.5-4.5 4.5v7c0.32107-0.000001 0.63541 0.02973 0.9375 0.09375v-5.4062c2.5211-0.46326 4.5-2.5999 4.5-5.25 0-2.1892-1.3591-4.0092-3.25-4.8438zm79.625 0c-1.8909 0.83456-3.25 2.6546-3.25 4.8438 0 2.6501 1.9789 4.7867 4.5 5.25v5.4062c0.303-0.064 0.617-0.094 0.938-0.094v-7c-2.484 0.000001-4.5-2.016-4.5-4.5 0-1.6828 0.94331-3.1343 2.3125-3.9062zm-79.625 16c1.3697 0.772 2.313 2.223 2.313 3.906 0 2.473-1.9993 4.483-4.4688 4.5 0.2496 3.091 2.8111 5.5 5.9688 5.5 0-2.1629 1.5274-3.975 3.5625-4.4062-2.1542 0.40051-3.8319 2.1304-4.2812 4.2812-2.0542-0.29442-3.6355-1.7406-4.125-3.7188 2.4131-0.54808 4.2812-2.6458 4.2812-5.2188 0-2.1892-1.3591-4.0092-3.25-4.8438zm79.625 0c-1.8909 0.83456-3.25 2.6546-3.25 4.8438 0 2.5729 1.8681 4.6707 4.2812 5.2188-0.40866 1.6533-1.5722 2.9409-3.1562 3.5-0.51472-2.0638-2.1492-3.6862-4.25-4.0625 2.0106 0.42121 3.5184 2.1881 3.5625 4.3125 2.689-0.446 4.746-2.648 4.969-5.407-2.47-0.017-4.469-2.027-4.469-4.5 0-1.6828 0.94331-3.1343 2.3125-3.9062zm-70.344 9.5c2.021 0.442 3.532 2.254 3.532 4.406h0.75c-0.40535-2.2059-2.0906-3.993-4.2812-4.4062zm14.062 0c-2.189 0.413-3.875 2.2-4.28 4.406h0.75c0-2.1524 1.5111-3.9637 3.5312-4.4062zm1.9375 0c2.021 0.442 3.532 2.254 3.532 4.406h0.75c-0.40535-2.2059-2.0906-3.993-4.2812-4.4062zm14.062 0c-2.189 0.413-3.875 2.2-4.28 4.406h0.75c0-2.1524 1.5111-3.9637 3.5312-4.4062zm1.9375 0c2.021 0.442 3.532 2.254 3.532 4.406h0.75c-0.40535-2.2059-2.0906-3.993-4.2812-4.4062zm14.062 0c-2.189 0.413-3.875 2.2-4.28 4.406h0.75c0-2.1524 1.5111-3.9637 3.5312-4.4062zm1.9375 0c2.021 0.442 3.532 2.254 3.532 4.406h0.75c-0.40535-2.2059-2.0906-3.993-4.2812-4.4062zm14.062 0c-2.189 0.413-3.875 2.2-4.28 4.406h0.75c-0.000003-2.1524 1.5111-3.9637 3.5312-4.4062z" style="opacity:.8;fill:url(#linearGradient2984)"/>
    <path id="path2901" d="m6.5312 9.5625c-0.266 0.6015-0.4444 1.2485-0.5 1.9375 2.1261 0.015 3.8906 1.507 4.3438 3.5 0.074-0.323 0.125-0.655 0.125-1 0-2.302-1.7373-4.172-3.9688-4.4375zm82.938 0c-2.232 0.2655-3.969 2.1355-3.969 4.4375 0 0.34535 0.05123 0.6769 0.125 1 0.45319-1.993 2.2177-3.4853 4.3438-3.5-0.05569-0.68982-0.23378-1.3361-0.5-1.9375zm-83.469 15.938v2c2.1387 0 3.9181 1.4991 4.375 3.5 0.07377-0.3231 0.125-0.65465 0.125-1 0-2.484-2.016-4.5-4.5-4.5zm84 0c-2.484 0-4.5 2.016-4.5 4.5 0 0.34535 0.05123 0.6769 0.125 1 0.45687-2.0009 2.2363-3.5 4.375-3.5v-2zm-84 16v2c2.1387 0 3.9181 1.4991 4.375 3.5 0.07377-0.3231 0.125-0.65465 0.125-1 0-2.484-2.016-4.5-4.5-4.5zm84 0c-2.484 0-4.5 2.016-4.5 4.5 0 0.34535 0.05123 0.6769 0.125 1 0.45687-2.0009 2.2363-3.5 4.375-3.5v-2zm-84 16v2c2.1387 0 3.9181 1.4991 4.375 3.5 0.07377-0.3231 0.125-0.65465 0.125-1 0-2.484-2.016-4.5-4.5-4.5zm84 0c-2.484 0-4.5 2.016-4.5 4.5 0 0.34535 0.05123 0.6769 0.125 1 0.45687-2.0009 2.2363-3.5 4.375-3.5v-2zm-84 16v2c2.1387-0.000003 3.9181 1.4991 4.375 3.5 0.07318-0.32183 0.125-0.65612 0.125-1 0-2.484-2.016-4.5-4.5-4.5zm84 0c-2.484 0-4.5 2.016-4.5 4.5 0 0.34388 0.05182 0.67817 0.125 1 0.45687-2.0009 2.2363-3.5 4.375-3.5v-2zm-73.5 10c-2.484 0-4.5 2.016-4.5 4.5-2.4543 0-4.5404-1.463-5.4688-3.562-0.1656 0.019-0.3293 0.061-0.5 0.062 0.2496 3.091 2.8111 5.5 5.9688 5.5 0-2.484 2.016-4.5 4.5-4.5s4.5 2.016 4.5 4.5h7c0-2.484 2.016-4.5 4.5-4.5s4.5 2.016 4.5 4.5h7c0-2.484 2.016-4.5 4.5-4.5s4.5 2.016 4.5 4.5h7c0-2.484 2.016-4.5 4.5-4.5s4.5 2.016 4.5 4.5h7c-0.000004-2.484 2.016-4.5 4.5-4.5 2.4522 0 4.4493 1.9661 4.5 4.4062 2.6885-0.44512 4.746-2.647 4.9688-5.4062-0.17068-0.0012-0.33432-0.04279-0.5-0.0625-0.799 1.804-2.453 3.134-4.469 3.468-0.051-2.44-2.048-4.406-4.5-4.406-2.484 0-4.5 2.016-4.5 4.5h-7c0-2.484-2.016-4.5-4.5-4.5s-4.5 2.016-4.5 4.5h-7c0-2.484-2.016-4.5-4.5-4.5s-4.5 2.016-4.5 4.5h-7c0-2.484-2.016-4.5-4.5-4.5s-4.5 2.016-4.5 4.5h-7c0-2.484-2.016-4.5-4.5-4.5z" style="opacity:.3;fill:url(#radialGradient2986)"/>
   </g>
   <g id="layer3">
    <rect id="rect2411" style="fill:#92b6c8" height="64" width="64" y="16" x="16"/>
    <g id="g3938" transform="matrix(1.694 0 0 1.694 -211.1 -87.043)" clip-path="url(#clipPath4200)">
     <path id="path163" d="m173.26 82.056c0 10.305-8.3534 18.659-18.653 18.659-10.299 0-18.663-8.3534-18.663-18.659 0-10.305 8.3534-18.659 18.659-18.659 10.305 0 18.657 8.3534 18.657 18.659z" style="fill:url(#radialGradient3831)"/>
     <path id="path165" d="m138.08 67.348-5.2409 6.709 2.7804 14.148 25.587 8.2858 6.1205-10.398-1.7941-15.579-19.645-9.0649-7.6645 5.7166-0.14353 0.18249z" style="fill:#340000"/>
     <path id="path167" d="m165.76 76.079-19.565 7.361-8.9932-14.302-3.9245 5.0236 2.6963 13.728 25.046 8.1094 5.8847-9.9958-1.1441-9.9241z" style="fill:url(#radialGradient3827)"/>
     <path id="path169" d="m145.95 85.234-7.4492-10.595c-4.1685 3.6908 0.2727 8.4068-0.33627 9.0916-0.41146 0.4552-1.3697-0.06903-2.8747-1.5727-2.2575-2.2555 0.41009 2.6656 1.6404 4.3736 0.82017 1.14-0.15925 1.0717-2.9383-0.20504l-0.82222-13.395 3.6395-4.4084 36.206 5.0236-10.662 6.1513-16.403 5.5362z" style="fill:url(#linearGradient3824)"/>
     <path id="path171" d="m172.08 73.701-25.887 9.7395-9.3807-14.917-0.34652 0.21734 9.5591 15.202 26.198-9.8585-0.14353-0.38343z" style="fill:#340000"/>
     <path id="path173" d="m165.76 76.079-0.38753-3.3627-27.779-4.0783-0.14763 0.18659-0.244 0.31372 8.9932 14.302 19.565-7.361z" style="fill:url(#radialGradient3820)"/>
     <path id="path175" d="m135.97 87.89 25.046 8.1094 0.69304-1.179-26.077-8.6549 0.33833 1.7244z" style="fill:url(#linearGradient3817)"/>
     <path id="path177" d="m165.76 72.524-0.39163 0.19274 0.38753 3.3627-4.5889 1.7265c2.2637 4.8493 0.55567 10.914 0.56182 10.914 3.5083-1.8761 4.4269-7.2585 4.5971-11.351l-0.56592-4.8452z" style="fill:#7b5516"/>
     <path id="path179" d="m154.92 72.101c3.539 0.9637 5.1671 3.3791 6.2579 5.7043l4.5848-1.7265-0.38753-3.3627-3.6621-0.53721-0.24195 1.1626-6.5511-1.2405z" style="fill:#7b5516"/>
     <path id="path181" d="m140.4 69.05-2.8091-0.41214-0.14763 0.18659-0.244 0.31372 3.0326 4.8226 0.0164-0.002c0.13328-0.81197 0.39163-1.4538 0.39778-1.4538 0.006 0 0.0144 0.03896 0.0513 0.10252l-0.039-0.89399c-0.0164-0.72585-0.21325-1.7121-0.2522-2.6635h-0.006z" style="fill:url(#linearGradient3812)"/>
     <path id="path183" d="m154.92 72.101s-2.7783-0.60488-4.7201-0.74226-4.3633 1.7798-5.1261 2.2391c-0.40598 0.244-0.86323 0.4921-1.3492 0.75046 0.039 1.9295 0.50645 6.1144 3.658 7.8613-0.008-10.252 7.5374-10.109 7.5435-10.109h-0.006z" style="fill:url(#linearGradient3809)"/>
     <path id="path185" d="m144.65 90.701-8.6815-2.8111-1.0293-4.3141-1.8208-0.59667s1.8966 5.9462 5.2778 10.724c6.8546 4.7775 5.1794 2.4503 5.1855 2.4503 1.2262 0.71765 2.0463 0.71765 2.0525 0.71765-0.004-0.71765-3.0798-0.87143-3.945-5.7412 0.9186 1.8454 4.6094 2.8706 4.8206 2.6656 0.13533-0.1367-0.44972-1.1448-1.7552-3.0244l-0.10457-0.06972z"/>
     <path id="path187" d="m142.09 95.538s-4.3777-0.29731-8.1033-7.685c-2.2001-7.6419 2.9034 4.3961 8.1094 7.685h-0.006z" style="fill:url(#linearGradient3805)"/>
     <path id="path189" d="m131.82 78.681s0.52901 11.525 6.3789 13.422c-2.9772-4.0496-3.822-11.944-3.8158-11.944l-2.563-1.4784z" style="fill:url(#linearGradient3802)"/>
     <path id="path191" d="m135.27 86.003c-1.2303 0.2563-3.5616-4.0496-3.4796-8.5093 0.0492-2.9731 0.55977-5.3482 1.5317-7.1252l1.0252 8.458s0 5.7925 0.92884 7.1765h-0.006z" style="fill:url(#radialGradient3799)"/>
     <path id="path193" d="m151.01 59.296s-14.045 2.2555-17.679 11.072c-2.4913 6.2292 3.1474 11.56 3.9983 10.713-0.004 0-3.0613-3.9799-0.0492-9.9261 2.004-3.9642 6.5805-7.9174 13.73-11.86z"/>
     <path id="path195" d="m151.01 59.296s-14.045 2.2555-17.679 11.072c-2.4913 6.2292 3.1474 11.56 3.9983 10.713-0.004 0-3.8999-4.6135-0.4593-10.867 2.2883-4.1692 7.0015-7.8087 14.14-10.919z" style="fill:url(#radialGradient3795)"/>
     <path id="path197" d="m133.31 72.044c-0.75251 5.0236 0.86528 3.1433 2.1242-0.75251-1.2528 2.1694-2.1242 1.5891-2.1181 0.75251h-0.006zm1.5665-3.4775c-2.237 4.5622-0.12713 3.2602 2.2534-0.07587-1.8515 1.6916-2.5077 0.87348-2.2473 0.07587h-0.006zm4.4699-4.6647c-3.2561 2.8932-1.1585 2.5446 1.8146 0.67049-2.0217 0.74226-2.2739-0.11892-1.8085-0.67049h-0.006zm-2.3067 2.0607c-3.2581 3.5616-0.98626 2.9362 2.075 0.53106-2.1406 1.0498-2.52 0.12918-2.0689-0.53106h-0.006zm6.3256-2.8809c-1.7716 0.4962-1.9294-0.25835-1.4927-0.69715-2.9875 2.2473-1.1708 2.0935 1.4989 0.69715h-0.006z" style="fill:url(#linearGradient3792)"/>
    </g>
    <g id="g3891" transform="matrix(1.694 0 0 1.694 -211.1 -53.163)">
     <path id="path199" d="m164.77 41.576c-1.0662-0.99651-3.5411-1.6629-4.9436-1.9479-1.2077-0.24195-2.4933-0.31987-3.7113-0.41009-0.84067-0.05946-3.2356-0.01435-4.2526 0.09022-2.5671 0.26656-3.5944 1.2139-5.6592 2.6738-1.8926 1.3307-4.677 2.7804-5.4992 5.1076-0.65204 1.2918-0.0656 3.3545-0.0349 4.6237l0.0349 0.89399c-0.039-0.06356-0.0574-0.10252-0.0513-0.10252 0.006 0-1.14 2.8275 0.13327 4.1009 0.0123-0.11482 0.039-0.2276 0.0841-0.33832l-0.082 0.33832s0.55566-1.017 1.5768-1.5481c1.0211-0.53106 1.9582-1.0006 2.7209-1.4599 0.76276-0.4593 3.1536-2.3744 5.1015-2.2391 1.2986 0.09159 5.0577 0.75251 11.277 1.9828l0.64999-3.1433-1.177-0.88784c0.12508-0.33012 0.22145-0.68074 0.40394-0.9801 0.44699-0.76891 0.50235-1.4394 0.49415-2.317 1.0375-0.24605 2.2001-0.67254 2.8788-1.5542 0.57822-0.77096 0.85708-2.1324 0.0615-2.8829h-0.006z"/>
     <path id="path201" d="m164.77 41.576c-1.0662-0.99651-3.5411-1.6629-4.9436-1.9479-1.2077-0.24195-2.4933-0.31987-3.7113-0.41009-0.84067-0.05946-3.2356-0.01435-4.2526 0.09022-2.5671 0.26656-3.5944 1.2139-5.6592 2.6738-1.8926 1.3307-4.677 2.7804-5.4992 5.1076-0.65204 1.2918-0.0656 3.3545-0.0349 4.6237l0.0349 0.89399c-0.039-0.06356-0.0574-0.10252-0.0513-0.10252 0.006 0-1.14 2.8275 0.13327 4.1009 0.13738-1.3328 2.2555-2.358 2.2616-2.358l1.5604-0.78532c0.23785-0.16198 0.89194-0.55977 1.1011-0.76891 1.2446-0.7197 2.2883-1.5112 3.7605-1.6567 1.9418-0.19479 3.7789 0.66844 5.7166 0.4593 1.587-0.17224 3.7584-0.39778 5.1384-1.2774 0.64794-0.41624 0.66639-1.261 1.0416-1.8884 0.44699-0.76686 0.50236-1.4394 0.49416-2.317 1.0375-0.24605 2.2001-0.67254 2.8788-1.5542 0.55361-0.77096 0.83247-2.1324 0.0369-2.8829h-0.006z" style="fill:url(#linearGradient3906)"/>
     <path id="path203" d="m150.19 38.169c-0.22349 0.09432-0.45109 0.22555-0.67459 0.38343 0.2276-0.15788 0.4552-0.29116 0.68074-0.38343h-0.006zc-1.9746 1.2815-2.7004 3.9307-2.6943 3.9307 0.20094-0.08612 0.49825-0.4634 0.89809-0.92474-0.2399 0.27681-0.44495 0.52491-0.60693 0.6951 0.0102-0.04921 0.81402-2.1837 2.4092-3.701h-0.006zm-0.62-1.436c-4.4084 3.2212-4.2054 5.8068-4.1993 5.8068 0.0636-0.03281 0.14559-0.09227 0.24606-0.17224-0.008-0.0021-0.12508-1.991 3.9594-5.6346h-0.006zm1.0929 2.563c-1.017 1.4353-0.23785 1.7429-0.2317 1.7429 0.006 0-0.28911-0.47775 0.2317-1.7429zm-1.0847 0.66844c0.32601-0.26451 0.68689-0.50236 1.0908-0.66844-0.42033 0.17429-0.77916 0.41009-1.0847 0.66844-0.006 0-0.006 0 0 0h-0.006z" style="fill:#484848"/>
     <path id="path205" d="m141.16 46.147c2.7927-8.5277 8.415-9.4135 8.4211-9.4135-4.4125 3.2212-4.2095 5.8068-4.2034 5.8068 0.72176-0.36498 3.0346-3.619 4.8185-4.3715-1.9766 1.2815-2.7045 3.9307-2.6984 3.9307 0.49005-0.20504 1.5173-2.1099 3.1802-2.8029-1.0191 1.4353-0.24195 1.7429-0.2358 1.7429l-9.2823 5.1076z" style="fill:url(#linearGradient3908)"/>
     <path id="path235" d="m142.82 52.813c4.7672-0.15378 2.2391-3.4017 8.6016-9.5529-5.1835 3.008-10.582 2.9403-8.5954 9.5529h-0.006z" style="fill:url(#linearGradient3910)"/>
     <path id="path237" d="m142.82 52.813c0.83863-1.2139 3.6744-5.9298 8.6016-9.5529-5.1835 3.008-10.582 2.9403-8.5954 9.5529h-0.006z" style="fill:url(#linearGradient3912)"/>
     <path id="path239" d="m145.28 50.916c-0.89603 0.89604-1.9684 0.68689-2.0525-0.49415-0.13123-1.669 1.6588-1.8454 2.438-1.5911 0.26245 0.75661-0.0697 1.4948-0.37933 2.0853" style="fill:#000064"/>
     <path id="path241" d="m145.37 50.693c-0.28911 0.53926-0.9637 0.75661-1.3369 0.55362-0.38138-0.20299-0.37933-0.88168-0.0841-1.4209 0.28501-0.53926 1.544-0.29731 1.5501-0.29731 0.006 0 0.15993 0.62743-0.12918 1.1646z" style="fill:url(#radialGradient3914)"/>
     <path id="path243" d="m144.09 50.725c0.26245 0.32807 0.66434 0.44494 0.90219 0.2604 0.22759-0.18659 0.33216-0.73405 0.0738-1.0621-0.26656-0.33012-0.79762-0.31372-1.0232-0.12918-0.24195 0.18454-0.21735 0.60283 0.0533 0.9309h-0.006z" style="fill:url(#radialGradient3916)"/>
     <path id="path245" d="m143.1 54.178s0-0.51261-0.14763-1.0252c-1.7654 0.59872-2.3108-0.64794-2.3047-0.64794 0.006 0-1.1421 2.8275 0.13122 4.1009 0.13738-1.3328 2.2555-2.358 2.2616-2.358" style="fill:url(#radialGradient3918)"/>
     <path id="path247" d="m143.03 54.248 0.0697-0.06972s0-0.51261-0.14763-1.0252c-2.807 1.503-2.1755 3.4529-2.1694 3.4529 0.12918-1.3328 2.2473-2.358 2.2534-2.358h-0.006z" style="fill:#484848"/>
     <path id="path249" d="m140.77 54.342s0.0143-0.84683 0.39984-1.0006c-0.004 0.16608 0.19274 0.29526 0.39163 0.29526-0.53722 0.05331-0.79147 0.70535-0.78532 0.70535h-0.006z" style="fill:url(#radialGradient3920)"/>
     <path id="path251" d="m141.16 46.147 0.004-0.0021c-0.19069 0.29936-0.35267 0.61103-0.46544 0.94525-0.55977 1.1072-0.20915 2.7804-0.0738 4.0332 0.11688 0.44084 0.25425 0.89399 0.50236 1.1421l0.30346 0.10252c-0.006-0.6992 0.24195-1.3471 0.21119-2.0504-0.0472-0.85298-0.27065-1.708-0.0984-2.563 0.14148-0.75251 0.58848-1.4045 0.77096-2.1509 0.2194-0.92884 0.19274-1.9295 0.32397-2.8768-0.55156 0.976-1.0498 2.1058-1.4722 3.4201" style="fill:#fff;fill-opacity:.25"/>
    </g>
    <g id="g3922" transform="matrix(1.694 0 0 1.694 -244.98 -87.043)" clip-path="url(#clipPath4196)">
     <path id="path207" d="m194.57 75.284-8.9542-3.7359-0.76891 8.6631c0.0984 0.55977 0.16403 1.1646 0.20709 1.8044-0.0103-0.10662-0.0164-0.20914-0.0185-0.31372-0.74431 11.907-7.808 18.005-11.353 19.577 4.4556 0.30757 7.1929-1.2426 7.1991-1.2426 0.006 0-0.59667 0.72995-2.1858 1.7039 1.9992 0 6.9715-1.8966 7.9516-3.8958l0.5085 0.20504c-0.002 0 9.6862-6.7664 7.4205-22.766h-0.006z"/>
     <path id="path209" d="m185.03 81.701c-0.74021 11.907-7.8039 18.005-11.349 19.577 8.743-1.9028 11.845-12.848 11.355-19.577h-0.006z" style="fill:url(#linearGradient3958)"/>
     <path id="path211" d="m178.7 101.74s7.0227-2.7681 7.849-9.0732c3.2745 0.46135-3.4406 8.0992-7.8429 9.0732h-0.006z" style="fill:url(#linearGradient3960)"/>
     <path id="path213" d="m179.93 70.933c-2.2842-3.3381-5.8027-4.392-9.0854-4.392 5.9565 0.75251 14.722 9.2105 9.8072 18.591 2.9055-3.902 1.9151-10.342-0.7156-14.199h-0.006z"/>
     <path id="path215" d="m185.06 81.312c-1.5932 3.4365-4.4105 3.8199-4.4043 3.8199 0.006 0 2.3539 0.41009 4.3018-1.9479 0.27886-0.34037 0.28911-0.99651 0.10868-1.872h-0.006z"/>
     <path id="path217" d="m194.57 75.284-8.9542-3.7359-0.76891 8.6631c0.082 0.46955 0.14148 0.9719 0.18454 1.4989-0.002-0.0041-0.002-0.0082 0.004-0.0082 0.004 0.10457 0.0102 0.20709 0.0225 0.31372-0.0103-0.10252-0.0185-0.20299-0.0205-0.30346-0.0308 0.43264-0.0677 0.85708-0.10457 1.2754-0.11483 1.8659-0.13123 5.3291 1.0232 7.4267 0.78532-1.1872 1.5747-2.6697 1.8495-4.1542 0.12303 1.5071-0.59052 3.4447-1.2897 4.9477 0.2317 0.26246 0.50235 0.4798 0.81402 0.63973 0.11687 0.04921 0.2358 0.08612 0.36088 0.11688 0.98215-1.2139 2.5774-3.4591 2.9916-5.7043 0.14353 1.7716-0.86528 4.1398-1.6547 5.694 3.3668-0.92064 5.6612-8.3063 5.7084-8.4375-0.004-0.0021-0.004-0.0021 0.002-0.0041 0.26246-2.4134 0.26861-5.1486-0.16198-8.2284h-0.006z" style="fill:url(#linearGradient3962)"/>
     <path id="path219" d="m189.84 90.114c-0.26861 0.67049-0.56797 1.3041-0.83453 1.8413 1.2138-0.33422 2.2903-1.5112 3.1761-2.8829-0.79762 0.57412-1.7695 0.89194-2.3354 1.0416h-0.006z" style="fill:#0c418f"/>
     <path id="path221" d="m186.83 90.459c-0.10868 0.25835-0.22145 0.51056-0.32807 0.74841 0.23375 0.26246 0.50235 0.4798 0.81402 0.63973 0.11687 0.04921 0.2358 0.08612 0.36087 0.11688 0.98216-1.2139 2.5774-3.4591 2.9916-5.7043-1.1236 2.8809-2.8214 3.8651-3.8322 4.1993h-0.006z" style="fill:#0c418f"/>
     <path id="path223" d="m187.57 79.339c0.56387 3.2807-1.6403 8.0992-1.6342 8.0992 0.006 0 3.293-0.64589 4.7467-7.6522 0 0-0.30961 4.8657-0.9514 6.0119-0.004 0 3.1741-1.4866 3.8466-7.5353 0.67254-6.0488-3.6949-9.7395-5.0789-9.0219-0.92269 0.47843-1.2323 3.8446-0.92884 10.098z" style="fill:url(#linearGradient3964)"/>
     <path id="path225" d="m194.69 75.985c0-0.002 0-0.002 0.006-0.0041-0.33217-2.1468-0.90834-4.187-1.6834-6.0221-1.9951-4.6791-5.3086-7.5353-9.1429-8.7143-8.7184-0.82017-13.024 5.2963-13.018 5.2963 3.2848 0 6.8033 1.0539 9.0936 4.392 2.6328 3.8569 3.6231 10.297 0.71765 14.199-0.004 0 6.0447-0.82017 5.4357-10.867-0.004 0 2.1488 4.2034-0.61308 9.9958-0.004 0 5.5833-1.384 3.8466-12.149-0.004 0 1.2774 2.4605 0.87348 8.1505-0.004 0 2.3026-1.6034 2.3088-6.5101-0.004 0 1.585 5.1773 0.002 8.458-0.004 0 0.0226-0.09022 0.14353-0.18044 0.49416-0.41829 2.4339-2.075 2.0361-6.0447h-0.006z" style="fill:url(#linearGradient3966)"/>
     <path id="path227" d="m180.32 71.537c1.1093 1.8392 1.7818 3.9553 2.0197 6.0857 0.15994 0.43469 0.57617 1.1318 1.1503 0.9719 0.47159-0.13533 0.90013-0.67869 1.179-1.0703 0.35268-0.51056 0.4921-1.1318 0.83043-1.6506 0.15788-0.2563 0.37932-0.48185 0.41008-0.79762 0.006-0.11072-0.0328-0.76686 0.19479-0.74636-0.006-0.02255-0.006-0.04306-0.002-0.06561-0.004 0 0.0102 0.03076 0.041 0.08407 0.15583 0.13533 0.21529 0.4511 0.28091 0.63974 0.0882 0.29731 0.16813 0.59872 0.2481 0.90014 0.12508 0.51671 0.4798 1.4476 1.1421 0.87143 0.30141-0.26861 0.488-0.67664 0.65204-1.0437 0.14968-0.35677 0.2399-0.71355 0.29936-1.099 0.0984-0.72995 0.0677-1.7265 0.61103-2.3026-0.0144-0.06766-0.0246-0.13533-0.0287-0.20299-0.004 0 0.0369 0.07997 0.10867 0.2399 0.24195 0.16198 0.58027 0.31576 0.87144 0.15583 0.2645-0.14968 0.38138-0.488 0.45929-0.76686 0.10662-0.42649 0.14558-0.87348 0.2358-1.3082 0.0943-0.49825 0.19479-1.0088 0.15994-1.5173 0.21734 0.50236 0.45519 0.99036 0.65203 1.5071 0.15378 0.42854 0.31167 0.86118 0.34652 1.3205 0.0267 0.38958 0.0185 0.78121 0.0718 1.1708 0.0349 0.30962 0.10662 0.691 0.38343 0.88784 0.11892-1.6629 0.37523-3.4632-0.15788-5.081-0.87144-1.6896-2.0012-3.252-3.4058-4.5314-1.4845-1.343-3.2458-2.358-5.1507-2.9444-8.7184-0.82017-13.024 5.2983-13.018 5.2983 1.7716 0 3.5657 0.30756 5.1896 1.0621 1.749 0.84478 3.1966 2.2268 4.2321 3.9327h-0.006z" style="fill:url(#linearGradient3968)"/>
     <path id="path229" d="m177.37 63.383c0.58848 0.79762-0.0759 1.0662-1.4456 0.93705 4.1091 1.2815 3.1659 0.14968 1.4517-0.93705h-0.006zm3.8794-0.58027c3.8671 0.42239 2.8357-0.41829 1.1298-1.0826 0.65409 0.60488 0.11278 0.95755-1.1236 1.0826h-0.006zm2.7742 2.887c0.54541 0.88784-0.17429 1.1113-1.6014 0.85503 4.1972 1.708 3.3094 0.43674 1.6075-0.85503h-0.006zm1.9418-1.0539c0.54747 0.88989-0.17223 1.1113-1.5993 0.85503 4.1972 1.708 3.3094 0.43674 1.6055-0.85503h-0.006zm-8.7328 0.84683c4.2034 1.708 3.3155 0.43674 1.6137-0.85503 0.53927 0.88784-0.18043 1.1093-1.6055 0.85503h-0.008zm3.9245 0.42444c0.54541 0.88784-0.17429 1.1093-1.6014 0.85503 4.1972 1.708 3.3094 0.43674 1.6075-0.85503h-0.006zm3.5534-2.155c-0.30962-0.2399-0.80582-0.51671-1.3656-0.77916 0.71766 0.75456 0.0595 1.1216-1.3881 1.1728 3.1454 0.55362 3.5103 0.19274 2.7783-0.38343 4.4064 0.76891 3.2725-0.28296 1.3451-1.181 0.70124 0.74636 0.0595 1.1134-1.3635 1.1708h-0.006zm-4.515 1.6732c4.4699 0.78532 3.332-0.27066 1.3964-1.1728 0.7156 0.75251 0.0574 1.1216-1.3902 1.1728h-0.006zm0.0103-2.3026c0.28296 0.51056-0.29321 0.7402-1.384 0.7402 3.6436 0.77506 2.928-0.05741 1.425-0.86118-0.0431-0.2563-0.57822-0.73815-1.2528-1.22 0.48801 0.74636-0.12302 0.9555-1.3512 0.77506 1.6608 0.61923 2.397 0.72995 2.5692 0.56592h-0.006zm6.4404 4.2731c4.0434 2.52 3.3524 1.0457 1.8208-0.59668 0.40188 1.017-0.38343 1.1175-1.8146 0.59668h-0.006zm-2.1488 0.9391c4.0434 2.52 3.3504 1.0457 1.8208-0.59668 0.39983 1.017-0.38548 1.1175-1.8146 0.59668h-0.006zm-9.0752-3.6395c0.54746 0.88784-0.17224 1.1113-1.5993 0.85503 4.1972 1.708 3.3094 0.43674 1.6055-0.85503h-0.006zm13.451-0.0082c0.38753 0.9678-0.35882 1.0642-1.7203 0.56797 3.8446 2.399 3.1843 0.99446 1.7265-0.56797h-0.006zm-7.2032 3.8056c4.2444 2.6471 3.5185 1.099 1.911-0.62538 0.42034 1.0662-0.40393 1.1728-1.9048 0.62538h-0.006zm-4.3674-2.3272c0.54541 0.88784-0.17429 1.1093-1.6014 0.85503 4.1972 1.708 3.3094 0.43674 1.6075-0.85503h-0.006zm2.9034 1.6055c0.54746 0.88989-0.17224 1.1113-1.5993 0.85503 4.1972 1.708 3.3094 0.43674 1.6055-0.85503h-0.006zm-0.50646 2.6697c3.7892 3.6375 3.3771 1.8905 2.0996-0.2317 0.20094 1.1913-0.66844 1.1195-2.0935 0.2317h-0.006z" style="fill:url(#linearGradient3970)"/>
     <path id="path231" d="m183.55 78.741c-1.4025-0.92269-1.2303-3.211-1.2241-3.211 0.11483 0.6992 1.1052 0.52901 1.1113 0.52901-0.20915-0.64999-0.1907-4.187-0.18454-4.187 1.3963 5.2635 2.3908 4.6114 1.9664-0.56387-0.0123 0 2.1242 3.9471-1.6629 7.4328h-0.006z" style="fill:#4a6eaa"/>
     <path id="path233" d="m186.9 75.735c0.35882-0.87143-0.2399-3.9655-0.23375-3.9655 0.006 0 0.4757 0.92269 1.1585 0.68484 0 0 0.17019-1.505-0.9514-2.2555-0.004 0 1.1585 0.30756 1.4722-0.34242-0.0102 0 2.4154 3.8958-1.4394 5.8786h-0.006z" style="fill:#4a6eaa"/>
    </g>
    <path id="rect4183" d="m16.432 16c-0.25624 0.05454-0.43753 0.28353-0.43182 0.54545v62.909c0.000029 0.30124 0.24422 0.54542 0.54545 0.54545h62.909c0.30124-0.000029 0.54542-0.24422 0.54545-0.54545v-62.909c-0.000028-0.30123-0.24422-0.54542-0.54545-0.54545h-13.409c0.68448 0.33271 1.2935 0.69009 1.7727 1.0909h11.091v61.818h-61.818v-61.818h14.705c0.25949-0.38692 0.53155-0.73989 0.79545-1.0909h-16.045c-0.03777-0.004-0.07586-0.004-0.11364 0zm19.977 0c-0.21104 0.40817-0.3608 0.77738-0.47727 1.0909h1.1364c0.30107-0.32888 0.66262-0.72293 1-1.0909h-1.6591z" style="fill:#3e69a6"/>
   </g>
   <g id="layer4">
    <g id="g4297" style="opacity:.4" transform="matrix(.69994 0 0 .69994 4.232 3.9069)" clip-path="url(#clipPath4175)">
     <path id="path4086" d="m78.328 146.13c24.652-4.62 40.942-28.38 36.322-53.035-4.61-24.652-28.403-40.907-53.054-36.289s-40.912 28.375-36.294 53.024c4.6178 24.651 28.376 40.912 53.027 36.295zm-0.27619-1.4744c-23.853 4.46-46.808-11.25-51.276-35.1-4.468-23.857 11.243-46.812 35.096-51.28 23.853-4.4684 46.839 11.237 51.307 35.091 4.4684 23.853-11.274 46.814-35.127 51.282z"/>
     <path id="path4088" d="m76.058 133.99c17.941-3.36 29.792-20.68 26.432-38.616-3.36-17.941-20.673-29.772-38.614-26.411s-29.776 20.651-26.415 38.597c3.3608 17.941 20.656 29.798 38.597 26.437zm-0.27884-1.4886c-17.143 3.2114-33.64-8.0801-36.852-25.223-3.2114-17.143 8.0801-33.64 25.223-36.852 17.143-3.2114 33.663 8.0759 36.874 25.219 3.2114 17.143-8.1023 33.644-25.246 36.856z"/>
     <path id="path4090" d="m80.565 102.03a44.7 44.7 0 1 1 -89.399 0 44.7 44.7 0 1 1 89.399 0z" style="fill:none" transform="matrix(-.77311 .14482 -.14482 -.77311 112.48 175.15)"/>
     <path id="text4092" d="m30.263 108.52-0.55415-4.6704 0.9877-0.1172 0.19935 1.6801 4.0798-0.48408 0.15505 1.3068-4.0798 0.48408 0.19975 1.6835-0.9877 0.11719m2.2617-9.7969 2.3306 0.04837-0.02553 1.2302-0.37931-0.0079-1.3976-0.02901c-0.33489-0.0069-0.56514-0.0038-0.69078 0.0096-0.12558 0.01107-0.21836 0.03421-0.27836 0.06943-0.08073 0.0462-0.14358 0.10984-0.18857 0.19095-0.04726 0.0811-0.07198 0.17401-0.07416 0.2788-0.0053 0.25515 0.08965 0.45769 0.28482 0.6076 0.1929 0.14987 0.46362 0.22842 0.81218 0.23566l1.8829 0.0391-0.02539 1.2234-5.3172-0.11037 0.02539-1.2234 2.0503 0.0426c-0.21943-0.18916-0.37939-0.38849-0.47988-0.59798-0.10277-0.20953-0.15155-0.43959-0.14635-0.69019 0.0092-0.44197 0.15168-0.77404 0.4275-0.99623 0.27588-0.22446 0.67239-0.33133 1.1895-0.3206m0.96155-1.2962-2.3066-0.3811 0.20058-1.214 0.37769 0.0624c0.20459 0.0338 0.46182 0.07746 0.77169 0.13096 0.30763 0.05314 0.51315 0.08825 0.61656 0.10533 0.3035 0.05015 0.524 0.0785 0.66149 0.08504 0.13524 0.0062 0.23637-0.0048 0.30339-0.03302 0.08686-0.03646 0.15814-0.0905 0.21386-0.16213 0.05609-0.07388 0.09267-0.16252 0.10976-0.26594 0.0416-0.25179-0.02238-0.4656-0.19195-0.64143-0.16957-0.17582-0.42634-0.29215-0.77031-0.34899l-1.8649-0.30812 0.19947-1.2073 3.7769 0.62403-0.19947 1.2073-0.5463-0.09026c0.19023 0.21851 0.32128 0.43878 0.39314 0.66082 0.06998 0.21942 0.08473 0.45166 0.04425 0.69671-0.07206 0.43615-0.2608 0.74677-0.56622 0.93188-0.30505 0.18286-0.71274 0.23214-1.2231 0.14782m1.3127-9.0821 2.2225 0.70309-0.37113 1.1732-0.36173-0.11443-1.3394-0.42371c-0.31502-0.09965-0.53467-0.16078-0.65897-0.18337-0.12361-0.02476-0.21916-0.0287-0.28664-0.01181-0.09047 0.02157-0.16872 0.06493-0.23474 0.13008-0.06819 0.06447-0.11809 0.14667-0.14971 0.2466-0.07697 0.24333-0.04295 0.4644 0.10207 0.66324 0.14285 0.19815 0.38048 0.3498 0.71287 0.45495l1.7956 0.56804-0.36907 1.1666-3.6498-1.1546 0.36907-1.1666 0.53444 0.16907c-0.15723-0.24333-0.25455-0.47965-0.29194-0.70897-0.03956-0.23-0.02155-0.46449 0.05405-0.70347 0.13334-0.42146 0.36363-0.69993 0.69089-0.8354 0.32795-0.13763 0.7385-0.12845 1.2317 0.02756m0.8323-4.1264-1.8479-0.88934 0.53361-1.1087 4.7922 2.3064-0.5336 1.1087-0.49894-0.24012c0.13015 0.24977 0.19847 0.48875 0.20497 0.71694 0.0065 0.2282-0.04805 0.46241-0.16367 0.70263-0.20455 0.42502-0.5409 0.69304-1.0091 0.80406-0.47021 0.11003-0.97121 0.03708-1.503-0.21885-0.53178-0.25593-0.90033-0.60147-1.1056-1.0366-0.20736-0.43612-0.20876-0.8667-0.0042-1.2917 0.11463-0.23817 0.26417-0.42541 0.44861-0.5617 0.18338-0.13933 0.41225-0.23655 0.68659-0.29165m1.8831 1.8015c0.11364-0.23612 0.11387-0.45728 0.000685-0.66348-0.11219-0.20825-0.33255-0.39143-0.66107-0.54954-0.32852-0.1581-0.60915-0.21603-0.8419-0.1738-0.23176 0.04019-0.40446 0.17835-0.5181 0.41447-0.11265 0.23407-0.11288 0.45523-0.000683 0.66348 0.11318 0.2062 0.33403 0.38835 0.66255 0.54646s0.60866 0.21707 0.84042 0.17688c0.23275-0.04224 0.40545-0.1804 0.5181-0.41447m2.7028-6.7683 0.29036 0.19297-1.5835 2.3826c0.25552 0.13425 0.49224 0.16708 0.71018 0.09851s0.41519-0.23569 0.59176-0.50138c0.14252-0.21444 0.25688-0.45445 0.34308-0.72001 0.08556-0.26871 0.14264-0.56456 0.17125-0.88755l0.78568 0.52215c-0.06908 0.30156-0.16094 0.58798-0.27557 0.85926-0.11273 0.27255-0.24919 0.52933-0.40936 0.77035-0.38342 0.57692-0.82782 0.92863-1.3332 1.0551-0.50604 0.12334-1.0238 0.0091-1.5533-0.34282-0.51999-0.34558-0.8249-0.77394-0.91475-1.2851-0.08858-0.51304 0.05-1.0447 0.41576-1.5951 0.33297-0.501 0.74996-0.80117 1.251-0.90048 0.50228-0.1012 1.0058 0.01593 1.5106 0.35142m-1.035 0.82244c-0.19357-0.12864-0.38703-0.17513-0.58036-0.13946-0.19397 0.03252-0.3515 0.13986-0.47258 0.32204-0.13117 0.19737-0.18176 0.39494-0.15177 0.5927 0.02809 0.19651 0.13642 0.37931 0.325 0.54841l0.87971-1.3237m2.945-4.44c-0.10746 0.04936-0.20448 0.10755-0.29106 0.17456-0.08685 0.06381-0.16488 0.13659-0.23407 0.21833-0.20316 0.24002-0.28256 0.49075-0.23818 0.75222 0.04411 0.25826 0.20965 0.50884 0.49662 0.75175l1.3461 1.1395-0.79057 0.93396-2.9219-2.4733 0.79057-0.93396 0.48002 0.40633c-0.08973-0.28194-0.11256-0.53712-0.0685-0.76552 0.0438-0.23161 0.15771-0.45611 0.34174-0.67352 0.0265-0.0313 0.05695-0.06374 0.09134-0.09733 0.03266-0.03505 0.08278-0.08368 0.15036-0.14589l0.84746 0.71288m3.5-0.62187c0.19205-0.17828 0.27306-0.38406 0.24305-0.61736-0.02835-0.23484-0.16655-0.48587-0.41459-0.75307s-0.48811-0.42366-0.7202-0.46938c-0.23042-0.04726-0.44166 0.01825-0.63371 0.19652-0.19205 0.17828-0.27396 0.38646-0.24573 0.62452 0.02835 0.23485 0.16577 0.48504 0.41226 0.75057s0.48656 0.42199 0.7202 0.46938c0.23376 0.04417 0.44667-0.02289 0.63872-0.20117m-2.2821-1.2627c-0.02834-0.27838-0.003-0.52574 0.07597-0.74208 0.07744-0.21801 0.21386-0.4177 0.40924-0.59909 0.34569-0.3209 0.75749-0.44666 1.2354-0.3773 0.47635 0.0677 0.91529 0.31782 1.3168 0.75035 0.40151 0.43254 0.61911 0.88967 0.6528 1.3714 0.03213 0.48007-0.12465 0.88055-0.47034 1.2015-0.19539 0.18138-0.4039 0.30342-0.62551 0.36612-0.22316 0.06103-0.4725 0.06708-0.748 0.01814l0.37671 0.40581-0.8968 0.83249-3.6183-3.8978 0.8968-0.83249 1.3952 1.503m2.7961-3.1528 0.9796-0.73325 2.294 3.0647-0.9796 0.73325-2.294-3.0647m-0.89301-1.193 0.9796-0.73325 0.59807 0.799-0.9796 0.73325-0.59807-0.799m6.0649-1.0323c-0.11739 0.01426-0.22752 0.04012-0.33042 0.07756-0.10217 0.03431-0.19866 0.07985-0.28947 0.13661-0.26664 0.16669-0.41867 0.3813-0.45609 0.64385-0.03669 0.25942 0.04461 0.54853 0.2439 0.86734l0.93487 1.4955-1.0376 0.64861-2.0292-3.2461 1.0376-0.64861 0.33336 0.53328c0.000458-0.29588 0.05647-0.54587 0.16805-0.74998 0.1123-0.20724 0.28921-0.38636 0.53073-0.53734 0.03478-0.02174 0.07366-0.04336 0.11666-0.06486 0.04178-0.02343 0.10434-0.05447 0.18767-0.09313l0.58991 0.93723m2.9904-2.0084-0.86832-1.8579 1.1147-0.52099 2.2518 4.8181-1.1147 0.52099-0.23445-0.50163c-0.05725 0.27576-0.15554 0.50406-0.29488 0.68488-0.13934 0.18083-0.32978 0.32768-0.5713 0.44056-0.42731 0.19971-0.85736 0.19446-1.2901-0.01577-0.43375-0.21229-0.77556-0.58577-1.0254-1.1204-0.24988-0.53466-0.31666-1.0354-0.20034-1.5023 0.11536-0.46893 0.3867-0.80325 0.81401-1.003 0.23946-0.11191 0.47372-0.16229 0.7028-0.15114 0.23017 0.0081 0.46891 0.07765 0.71622 0.20855m0.31845 2.5865c0.23739-0.11095 0.3775-0.28207 0.42032-0.51336 0.04488-0.23225-0.0099-0.51353-0.16423-0.84382-0.15437-0.33029-0.33504-0.55271-0.542-0.66726-0.2049-0.11551-0.42605-0.11779-0.66345-0.0068-0.23533 0.10999-0.37544 0.28111-0.42032 0.51336-0.04282 0.23129 0.01296 0.51208 0.16733 0.84237s0.334 0.55319 0.5389 0.66871c0.20696 0.11455 0.42811 0.11683 0.66345 0.0068m4.6446-6.4022 1.6422-0.32908 1.6761 2.4494 0.60956-2.9074 1.6388-0.3284 1.0027 5.0036-1.2199 0.24446-0.73337-3.6597-0.61224 2.9289-0.81773 0.16387-1.6935-2.4668 0.73337 3.6597-1.2232 0.24513-1.0027-5.0036m9.4797 2.0518c-0.25508 0.0083-0.44612 0.0578-0.57312 0.14856-0.12473 0.09068-0.18436 0.22029-0.17888 0.38882 0.005 0.15487 0.06022 0.27505 0.16559 0.36054 0.10757 0.08314 0.25359 0.12172 0.43807 0.11573 0.23002-0.0075 0.42094-0.09574 0.57276-0.26482 0.15174-0.17135 0.22359-0.38115 0.21553-0.6294l-0.0045-0.14006-0.63541 0.02063m1.8537-0.52185 0.07086 2.1829-1.2332 0.04003-0.01841-0.56708c-0.15644 0.23762-0.3354 0.41328-0.5369 0.52698-0.20157 0.11142-0.44925 0.17189-0.74304 0.18143-0.39628 0.01286-0.72227-0.09168-0.97798-0.31365-0.25351-0.22432-0.38625-0.52094-0.39822-0.88989-0.01456-0.44866 0.12848-0.78274 0.42913-1.0022 0.30293-0.21958 0.78462-0.34009 1.4451-0.36153l0.72081-0.0234-0.0031-0.09565c-0.0063-0.19358-0.08716-0.3323-0.24264-0.41618-0.15555-0.08614-0.39502-0.12396-0.71842-0.11347-0.26191 0.0085-0.50474 0.04261-0.72851 0.1023-0.22377 0.0597-0.43074 0.14508-0.62092 0.25612l-0.03028-0.93261c0.25984-0.07227 0.52133-0.12863 0.78448-0.1691 0.26307-0.04273 0.5267-0.06839 0.79089-0.07697 0.69006-0.0224 1.1921 0.09809 1.5062 0.36148 0.31625 0.26104 0.48432 0.69787 0.50421 1.3105m1.4824-1.5541 1.2207 0.08508-0.26618 3.8189-1.2207-0.08508 0.26618-3.8189m0.10362-1.4866 1.2207 0.08508-0.0694 0.99563-1.2207-0.08508 0.0694-0.99563m2.7621 0.24586 1.2119 0.16904-0.73469 5.2674-1.2119-0.16904 0.73469-5.2674m8.0152 7.1423c-0.26853 0.04405-0.53724 0.05567-0.80613 0.03487-0.2689-0.0208-0.5387-0.07546-0.80943-0.16399-0.80785-0.26416-1.3742-0.69868-1.699-1.3036-0.32413-0.60704-0.35977-1.2972-0.10694-2.0703 0.25354-0.77535 0.69003-1.3111 1.3095-1.6072 0.62016-0.29826 1.3341-0.31531 2.142-0.05115 0.27072 0.08853 0.5207 0.20384 0.74994 0.34592 0.22922 0.14209 0.43916 0.31023 0.62979 0.50441l-0.331 1.004c-0.18-0.234-0.37-0.424-0.572-0.571-0.201-0.148-0.426-0.262-0.675-0.344-0.44615-0.14589-0.84375-0.11768-1.1928 0.08464s-0.60573 0.55471-0.77002 1.0572c-0.1636 0.5003-0.16436 0.93517-0.0023 1.3046 0.16208 0.36945 0.46619 0.62713 0.91236 0.77302 0.24906 0.08144 0.49826 0.12217 0.74758 0.12219 0.24932 0.000017 0.5157-0.04114 0.79914-0.12346l-0.32826 1.0038m3.0392-4.1309 1.1156 0.50264-2.1846 4.8489-1.1156-0.50264 2.1846-4.8489m1.7988 2.4987 1.0788 0.57742-1.8065 3.3751-1.0788-0.57742 1.8065-3.3751m0.70323-1.3139 1.0788 0.57742-0.47097 0.87993-1.0788-0.57742 0.47097-0.87993m3.858 6.364-0.195 0.289-2.373-1.597c-0.13575 0.25472-0.16998 0.49124-0.1027 0.70958s0.23324 0.41657 0.49788 0.59471c0.2136 0.14378 0.45293 0.25955 0.71797 0.34732 0.2682 0.08714 0.56372 0.14597 0.88653 0.17648l-0.52678 0.78258c-0.30114-0.07086-0.58702-0.16441-0.85762-0.28063-0.27188-0.11434-0.52786-0.2523-0.76792-0.4139-0.57465-0.38681-0.92374-0.83329-1.0472-1.3394-0.12034-0.50676-0.003-1.0238 0.35198-1.5512 0.34863-0.51794 0.77878-0.82033 1.2905-0.90716 0.51355-0.08556 1.0444 0.05617 1.5926 0.42516 0.49903 0.33591 0.79673 0.75467 0.89309 1.2563 0.09824 0.50287-0.02186 1.0057-0.36032 1.5085m-0.81632-1.0398c0.12978-0.19281 0.17741-0.38599 0.14288-0.57953-0.03137-0.19416-0.13779-0.35231-0.31925-0.47446-0.1966-0.13233-0.39387-0.18408-0.5918-0.15526-0.19667 0.02693-0.38011 0.13419-0.55032 0.32176l1.3185 0.8875m4.8915 4.0427-1.5545 1.737-0.91689-0.82058 0.25301-0.28271 0.93683-1.0468c0.22034-0.2462 0.36636-0.42132 0.43806-0.52534 0.07339-0.1025 0.11626-0.18799 0.1286-0.25645 0.01752-0.09134 0.01016-0.18049-0.02209-0.26746-0.03074-0.08867-0.08516-0.16795-0.16326-0.23785-0.19017-0.17019-0.40569-0.23006-0.64657-0.17959-0.23936 0.04877-0.47528 0.20305-0.70778 0.46283l-1.256 1.4034-0.91181-0.81603 2.5529-2.8526 0.9118 0.81603-0.37382 0.4177c0.28645-0.04331 0.54189-0.03487 0.7663 0.0253 0.22593 0.05848 0.43228 0.1713 0.61906 0.33846 0.32939 0.2948 0.48858 0.61922 0.47755 0.97323-0.0093 0.35554-0.18649 0.72602-0.53144 1.1115m3.7868 0.3371-0.81537 0.71873 0.83401 0.94612-0.6564 0.5786-0.83399-0.94612-1.2179 1.0736c-0.13333 0.11753-0.20057 0.22388-0.20172 0.31906 0.000555 0.09367 0.07014 0.21914 0.20877 0.3764l0.41587 0.47178-0.65638 0.5786-0.69387-0.78715c-0.31944-0.36238-0.471-0.68594-0.45468-0.97066 0.01954-0.28453 0.21049-0.58651 0.57288-0.90594l1.2179-1.0736-0.4023-0.45639 0.65639-0.5786 0.4023 0.45639 0.81536-0.71873 0.80915 0.91792"/>
     <g id="g4118" transform="matrix(1.1 -.86862 .86862 1.1 -60.967 18.73)">
      <path id="path4102" d="m29.682 99.378-2.3266 1.8416 0.98506 2.8318-2.4704-1.6437-2.3888 1.8119 0.79983-2.8574-2.4614-1.712 2.9647-0.12231 0.86754-2.87 1.0325 2.7818z" transform="matrix(1.5606 .41815 -.41815 1.5606 33.235 -70.873)"/>
      <path id="path4104" d="m29.682 99.378-2.3266 1.8416 0.98506 2.8318-2.4704-1.6437-2.3888 1.8119 0.79983-2.8574-2.4614-1.712 2.9647-0.12231 0.86754-2.87 1.0325 2.7818z" transform="matrix(1.5606 .41815 -.41815 1.5606 47.387 -67.081)"/>
      <path id="path4106" d="m29.682 99.378-2.3266 1.8416 0.98506 2.8318-2.4704-1.6437-2.3888 1.8119 0.79983-2.8574-2.4614-1.712 2.9647-0.12231 0.86754-2.87 1.0325 2.7818z" transform="matrix(1.5606 .41815 -.41815 1.5606 36.915 -57.344)"/>
     </g>
    </g>
   </g>
   <g id="layer5">
    <rect id="rect3171" style="opacity:.1;filter:url(#filter3794);stroke:#fff;stroke-linecap:round;stroke-width:.5;fill:url(#linearGradient3613)" clip-path="url(#clipPath3613)" rx="12" ry="12" height="66" width="66" y="15" x="15"/>
   </g>
  </g>
  <rect id="rect3003" style="opacity:.15;fill:#fff" transform="translate(98 3.8281e-7)" clip-path="url(#clipPath3009)" rx="25" ry="25" height="92" width="92" y="958.36" x="-96"/>
 </g>
</svg>
