<?xml version="1.0" encoding="UTF-8" standalone="no"?>
<!-- Created with Inkscape (http://www.inkscape.org/) -->
<svg id="svg2" xmlns:rdf="http://www.w3.org/1999/02/22-rdf-syntax-ns#" xmlns="http://www.w3.org/2000/svg" height="96" width="96" version="1.1" xmlns:cc="http://creativecommons.org/ns#" xmlns:xlink="http://www.w3.org/1999/xlink" xmlns:dc="http://purl.org/dc/elements/1.1/">
 <defs id="defs4">
  <filter id="filter6279" color-interpolation-filters="sRGB">
   <feGaussianBlur id="feGaussianBlur6281" stdDeviation="0.8"/>
  </filter>
  <linearGradient id="linearGradient3003" y2="902.36" gradientUnits="userSpaceOnUse" x2="48" gradientTransform="translate(2.861e-8 -1052.3)" y1="1052.4" x1="48">
   <stop id="stop3177" style="stop-color:#4490e6" offset="0"/>
   <stop id="stop3179-5" style="stop-color:#103d8f" offset="1"/>
  </linearGradient>
 </defs>
 <metadata id="metadata7">
  <rdf:RDF>
   <cc:Work rdf:about="">
    <dc:format>image/svg+xml</dc:format>
    <dc:type rdf:resource="http://purl.org/dc/dcmitype/StillImage"/>
    <dc:title/>
   </cc:Work>
  </rdf:RDF>
 </metadata>
 <rect id="rect9283" style="filter:url(#filter6279)" rx="5" ry="5" height="80" width="80" y="8" x="8"/>
 <rect id="rect9285" style="fill:url(#linearGradient3003)" rx="5" ry="5" transform="scale(1,-1)" width="80" y="-88.04" x="8" height="80"/>
 <g id="layer1" transform="matrix(.071746 .061143 -.061143 .071746 59.441 -12.35)">
  <g id="g2284" transform="matrix(2.3696 0 0 2.3696 -725.49 -13.255)">
   <g id="g2276" transform="translate(-1.9643 -.71429)">
    <path id="path10072" style="fill-rule:evenodd;stroke:#000;stroke-width:.88538px;fill:#999" d="m433.16 89.081-0.55216 0.3277-4.9592-1.7809 3.6919-5.349 3.4376 4.5965-0.19092 0.83181 1.8152 1.2564-1.1706 1.696-2.0718-1.5787z"/>
    <path id="path10066" style="fill-rule:evenodd;stroke:#000;stroke-width:.88538px;fill:#999" d="m438.01 82.638-0.55217 0.3277-4.9592-1.7809 3.6919-5.349 3.4376 4.5965-0.19092 0.83181 1.8152 1.2564-1.1706 1.696-2.0718-1.5787z"/>
    <path id="path10064" style="fill-rule:evenodd;stroke:#000;stroke-width:.88538px;fill:#999" d="m442.95 76.193-0.55217 0.3277-4.9592-1.7809 3.6919-5.349 3.4376 4.5965-0.19092 0.83181 1.8152 1.2564-1.1706 1.696-2.0718-1.5787z"/>
    <path id="path10058" style="fill-rule:evenodd;stroke:#000;stroke-width:.88538px;fill:#999" d="m447.35 69.769-0.55216 0.3277-4.9592-1.7809 3.6919-5.349 3.4376 4.5966-0.19093 0.83178 1.8152 1.2565-1.1706 1.696-2.0718-1.5787z"/>
    <path id="path10060" style="fill-rule:evenodd;stroke:#000;stroke-width:.88538px;fill:#999" d="m452.47 62.949-0.55217 0.3277-4.9592-1.7809 3.6919-5.349 3.4376 4.5965-0.19093 0.83181 1.8152 1.2564-1.1706 1.696-2.0718-1.5786z"/>
    <path id="path10062" style="fill-rule:evenodd;stroke:#000;stroke-width:.88538px;fill:#999" d="m457.41 56.321-0.55217 0.3277-4.9592-1.7809 3.6919-5.349 3.4376 4.5965-0.19093 0.83181 1.8152 1.2564-1.1706 1.696-2.0718-1.5787z"/>
   </g>
   <path id="path10052" style="fill-rule:evenodd;stroke:#000;stroke-width:.72854px;fill:#800000" d="m436.37 247.76c-3.0581 5.05-7.0058 8.8516-12.953 9.8474-5.8377 1.4298-5.5109 5.6875-5.9417 9.5977 2.524 13.066 3.8645 22.914 4.8865 31.895 5.4739 4.6029-37.538 70.831-54.397 107.01-0.39201 1.9566-1.7756 4.8002 1.6628 3.3302 48.29-7.3238 93.88-20.735 133.99-46.489 2.9061-0.69199 1.8121-4.3768 1.3242-7.6081-6.9289-17.892-14.004-35.704-19.618-54.314l23.669-75.149c-1.2442-3.9661-3.6414-4.7531-6.1415-5.2564l-34.152 30.418c-9.7356 1.0516-11.21-5.2872-13.086-11.266l-19.249 7.986z"/>
   <path id="path10054" style="fill-rule:evenodd;stroke:#000;stroke-width:.72854px" d="m437.96 105.11c-1.4708-6.1655-4.8865-8.8296-9.1325-9.9987l29.087-40.12c5.5956-7.7913 10.944-7.6557 16.87-7.2379 2.0804 1.5237 1.5122 3.1417 0.51544 4.775-10.086 14.703-18.859 30.862-23.398 51.716l-13.943 0.86543z"/>
   <path id="path10056" style="fill-rule:evenodd;stroke:#000;stroke-width:.72854px;fill:#fff" d="m501.45 224.72-27.124 26.517-13.321 6.3408-0.14129 16.431-22.717 0.93964 0.6046 19.533 21.946-0.65144 2.66 27.151 10.654-0.11883 31.787-94.21c-0.71142-3.8157-2.4265-3.319-4.3489-1.9308z"/>
   <path id="path10068" style="fill-rule:evenodd;stroke:#000;stroke-width:.85031px;fill:#c87137" d="m436.85 106.73-1.3485 152.66 20.564-0.73257-4.5554-152.08-14.66 0.15355z"/>
   <rect id="rect10070" style="fill-rule:evenodd;stroke:#000;stroke-width:.19988;fill:#ccc" transform="matrix(.99937 -.035602 .030938 .99952 0 0)" ry=".13283" height=".61047" width="20.66" y="271.95" x="427.43"/>
   <rect id="rect10074" style="fill-rule:evenodd;stroke:#000;stroke-width:.84743;fill:#1a1a1a" transform="matrix(.99937 -.035602 .030938 .99952 0 0)" ry="1.7557" height="16.979" width="29.151" y="275.02" x="423.21"/>
   <rect id="rect10076" style="fill-rule:evenodd;stroke:#000;stroke-width:0.555;fill:#333" transform="matrix(.99937 -.035602 .030938 .99952 0 0)" ry=".67832" height="5.155" width="24.328" y="284.31" x="426.12"/>
   <rect id="rect10078" style="fill-rule:evenodd;stroke:#000;stroke-width:0.555;fill:#333" transform="matrix(.99937 -.035602 .030938 .99952 0 0)" ry=".67832" height="5.155" width="24.328" y="277.17" x="426"/>
   <rect id="rect10080" style="fill-rule:evenodd;stroke:#000;stroke-width:.19988;fill:#ccc" transform="matrix(.99937 -.035602 .030938 .99952 0 0)" ry=".13283" height=".61047" width="20.66" y="268.94" x="427.46"/>
   <rect id="rect10082" style="fill-rule:evenodd;stroke:#000;stroke-width:.19856;fill:#ccc" transform="matrix(.99937 -.035602 .030938 .99952 0 0)" ry=".13311" height=".61179" width="20.345" y="265.41" x="427.53"/>
   <rect id="rect10084" style="fill-rule:evenodd;stroke:#000;stroke-width:.19988;fill:#ccc" transform="matrix(.99937 -.035602 .030938 .99952 0 0)" ry=".13283" height=".61047" width="20.66" y="261.94" x="427.35"/>
   <rect id="rect10086" style="fill-rule:evenodd;stroke:#000;stroke-width:.19988;fill:#ccc" transform="matrix(.99937 -.035602 .030938 .99952 0 0)" ry=".13283" height=".61047" width="20.66" y="258.14" x="427.48"/>
   <rect id="rect10088" style="fill-rule:evenodd;stroke:#000;stroke-width:.19856;fill:#ccc" transform="matrix(.99937 -.035602 .030938 .99952 0 0)" ry=".13311" height=".61179" width="20.345" y="253.58" x="427.82"/>
   <rect id="rect10090" style="fill-rule:evenodd;stroke:#000;stroke-width:.19790;fill:#ccc" transform="matrix(.99937 -.035602 .030938 .99952 0 0)" ry=".13326" height=".61245" width="20.188" y="248.15" x="428.32"/>
   <rect id="rect10092" style="fill-rule:evenodd;stroke:#000;stroke-width:.19922;fill:#ccc" transform="matrix(.99937 -.035602 .030938 .99952 0 0)" ry=".13297" height=".61113" width="20.502" y="243.69" x="428.09"/>
   <rect id="rect10094" style="fill-rule:evenodd;stroke:#000;stroke-width:.19724;fill:#ccc" transform="matrix(.99937 -.035602 .030938 .99952 0 0)" ry=".13340" height=".61311" width="20.031" y="238.33" x="428.37"/>
   <rect id="rect10096" style="fill-rule:evenodd;stroke:#000;stroke-width:.19724;fill:#ccc" transform="matrix(.99937 -.035602 .030938 .99952 0 0)" ry=".13340" height=".61311" width="20.031" y="232.26" x="428.56"/>
   <rect id="rect10098" style="fill-rule:evenodd;stroke:#000;stroke-width:.19590;fill:#ccc" transform="matrix(.99937 -.035602 .030938 .99952 0 0)" ry=".13369" height=".61446" width="19.716" y="226.51" x="428.71"/>
   <rect id="rect10100" style="fill-rule:evenodd;stroke:#000;stroke-width:.19179;fill:#ccc" transform="matrix(.99937 -.035602 .030938 .99952 0 0)" ry=".13459" height=".61857" width="18.773" y="219.67" x="429.19"/>
   <rect id="rect10102" style="fill-rule:evenodd;stroke:#000;stroke-width:.19249;fill:#ccc" transform="matrix(.99937 -.035602 .030938 .99952 0 0)" ry=".13444" height=".61787" width="18.93" y="213.71" x="429.34"/>
   <rect id="rect10104" style="fill-rule:evenodd;stroke:#000;stroke-width:.19386;fill:#ccc" transform="matrix(.99937 -.035602 .030938 .99952 0 0)" ry=".13414" height=".61650" width="19.245" y="206.3" x="429.32"/>
   <rect id="rect10106" style="fill-rule:evenodd;stroke:#000;stroke-width:.18317;fill:#ccc" transform="matrix(.99937 -.035602 .030938 .99952 0 0)" ry=".13647" height=".62720" width="16.887" y="132.07" x="432.07"/>
   <rect id="rect10108" style="fill-rule:evenodd;stroke:#000;stroke-width:.43138;fill:#ccc" transform="matrix(.99937 -.035602 .030938 .99952 0 0)" ry=".13850" height="2.2279" width="15.512" y="120.73" x="433.17"/>
   <rect id="rect10110" style="fill-rule:evenodd;stroke:#000;stroke-width:.18755;fill:#ccc" transform="matrix(.99937 -.035602 .030938 .99952 0 0)" ry=".13551" height=".62281" width="17.83" y="153.6" x="431.02"/>
   <rect id="rect10112" style="fill-rule:evenodd;stroke:#000;stroke-width:.18391;fill:#ccc" transform="matrix(.99937 -.035602 .030938 .99952 0 0)" ry=".13630" height=".62646" width="17.044" y="142.99" x="431.49"/>
   <rect id="rect10114" style="fill-rule:evenodd;stroke:#000;stroke-width:.18611;fill:#ccc" transform="matrix(.99937 -.035602 .030938 .99952 0 0)" ry=".13583" height=".62426" width="17.516" y="163.74" x="431.18"/>
   <rect id="rect10116" style="fill-rule:evenodd;stroke:#000;stroke-width:.18755;fill:#ccc" transform="matrix(.99937 -.035602 .030938 .99952 0 0)" ry=".13551" height=".62281" width="17.83" y="173.24" x="430.86"/>
   <rect id="rect10118" style="fill-rule:evenodd;stroke:#000;stroke-width:.18611;fill:#ccc" transform="matrix(.99937 -.035602 .030938 .99952 0 0)" ry=".13583" height=".62426" width="17.516" y="181.94" x="430.7"/>
   <rect id="rect10120" style="fill-rule:evenodd;stroke:#000;stroke-width:.19110;fill:#ccc" transform="matrix(.99937 -.035602 .030938 .99952 0 0)" ry=".13474" height=".61927" width="18.616" y="190.86" x="430.08"/>
   <rect id="rect10122" style="fill-rule:evenodd;stroke:#000;stroke-width:.19179;fill:#ccc" transform="matrix(.99937 -.035602 .030938 .99952 0 0)" ry=".13459" height=".61857" width="18.773" y="198.59" x="429.82"/>
   <rect id="rect10124" style="fill-rule:evenodd;stroke:#000;stroke-width:.85127;fill:#1a1a1a" transform="matrix(.99937 -.035602 .030938 .99952 0 0)" ry="1.7553" height="16.975" width="29.423" y="310.25" x="421.99"/>
   <rect id="rect10126" style="fill-rule:evenodd;stroke:#000;stroke-width:0.555;fill:#333" transform="matrix(.99937 -.035602 .030938 .99952 0 0)" ry=".67832" height="5.155" width="24.328" y="319.95" x="425.03"/>
   <rect id="rect10128" style="fill-rule:evenodd;stroke:#000;stroke-width:0.555;fill:#333" transform="matrix(.99937 -.035602 .030938 .99952 0 0)" ry=".67832" height="5.155" width="24.328" y="312.81" x="424.91"/>
   <rect id="rect10130" style="fill-rule:evenodd;stroke:#000;stroke-width:.91986;fill:#1a1a1a" transform="matrix(.99987 -.016239 .011684 .99993 0 0)" ry="3.7729" height="8.0408" width="34.696" y="333.85" x="424.99"/>
   <path id="path10132" style="fill-rule:evenodd;stroke:#000;stroke-width:.2;fill:#4d4d4d" d="m333.39 369.59c0 1.7259-1.3991 3.125-3.125 3.125s-3.125-1.3991-3.125-3.125 1.3991-3.125 3.125-3.125 3.125 1.3991 3.125 3.125z" transform="matrix(.76158 -.012369 .0089264 .76391 177.83 52.555)"/>
   <path id="path10134" style="fill-rule:evenodd;stroke:#000;stroke-width:.2;fill:#4d4d4d" d="m333.39 369.59c0 1.7259-1.3991 3.125-3.125 3.125s-3.125-1.3991-3.125-3.125 1.3991-3.125 3.125-3.125 3.125 1.3991 3.125 3.125z" transform="matrix(.76158 -.012369 .0089264 .76391 205.06 52.271)"/>
   <g id="g10136" transform="matrix(.64978 -.0013984 -.0015102 .65181 176.28 -22.979)">
    <rect id="rect10138" ry="5.1811" style="fill-rule:evenodd;stroke:#000;stroke-width:1.2409;fill:#1a1a1a" transform="rotate(-3.0897)" height="11.042" width="45.981" y="538.41" x="364.84"/>
    <path id="path10140" style="fill-rule:evenodd;stroke:#000;stroke-width:.2;fill:#4d4d4d" d="m333.39 369.59c0 1.7259-1.3991 3.125-3.125 3.125s-3.125-1.3991-3.125-3.125 1.3991-3.125 3.125-3.125 3.125 1.3991 3.125 3.125z" transform="matrix(.90430 0 0 .90430 100.64 188.77)"/>
    <path id="path10142" style="fill-rule:evenodd;stroke:#000;stroke-width:.2;fill:#4d4d4d" d="m333.39 369.59c0 1.7259-1.3991 3.125-3.125 3.125s-3.125-1.3991-3.125-3.125 1.3991-3.125 3.125-3.125 3.125 1.3991 3.125 3.125z" transform="matrix(.90430 0 0 .90430 134.78 186.93)"/>
   </g>
   <path id="path10144" style="stroke:#555;stroke-width:.44367;fill:none" d="m435.77 89.102 2.9829 16.55-0.73828 222.14"/>
   <path id="path10146" style="stroke:#555;stroke-width:.44386;fill:none" d="m440.24 82.629 1.1611 23.669-0.14643 221.15"/>
   <path id="path10148" style="stroke:#555;stroke-width:.44410;fill:none" d="m445.02 76.054-1.4841 29.958 1.4219 221.42"/>
   <path id="path10150" style="stroke:#555;stroke-width:.44394;fill:none" d="m449.33 69.809-3.4943 36.341 2.1489 221.5"/>
   <path id="path10152" style="stroke:#555;stroke-width:.44384;fill:none" d="m454.48 62.503-6.485 43.417 3.4448 221.35"/>
   <path id="path10154" style="stroke:#555;stroke-width:.44421;fill:none" d="m459.63 55.867-9.2746 49.81 4.0929 221.89"/>
   <rect id="rect10156" style="fill:#333;fill-rule:evenodd" transform="matrix(.99995 -.010182 .016271 .99987 0 0)" ry="3.4856" height="6.9712" width="21.453" y="331.75" x="429.98"/>
   <path id="path10158" style="fill:#b3b3b3" d="m255.36 205.58c0 1.8738-1.519 3.3929-3.3929 3.3929-1.8738 0-3.3929-1.519-3.3929-3.3929 0-1.8738 1.519-3.3929 3.3929-3.3929 1.8738 0 3.3929 1.519 3.3929 3.3929z" transform="matrix(.45919 -.016359 .014256 .46056 317.15 -1.1633)"/>
   <path id="path10160" style="fill:#b3b3b3" d="m255.36 205.58c0 1.8738-1.519 3.3929-3.3929 3.3929-1.8738 0-3.3929-1.519-3.3929-3.3929 0-1.8738 1.519-3.3929 3.3929-3.3929 1.8738 0 3.3929 1.519 3.3929 3.3929z" transform="matrix(.45919 -.016359 .014256 .46056 321.75 -7.8453)"/>
   <path id="path10162" style="fill:#b3b3b3" d="m255.36 205.58c0 1.8738-1.519 3.3929-3.3929 3.3929-1.8738 0-3.3929-1.519-3.3929-3.3929 0-1.8738 1.519-3.3929 3.3929-3.3929 1.8738 0 3.3929 1.519 3.3929 3.3929z" transform="matrix(.45919 -.016359 .014256 .46056 326.36 -14.397)"/>
   <path id="path10164" style="fill:#b3b3b3" d="m255.36 205.58c0 1.8738-1.519 3.3929-3.3929 3.3929-1.8738 0-3.3929-1.519-3.3929-3.3929 0-1.8738 1.519-3.3929 3.3929-3.3929 1.8738 0 3.3929 1.519 3.3929 3.3929z" transform="matrix(.45919 -.016359 .014256 .46056 330.84 -20.814)"/>
   <path id="path10166" style="fill:#b3b3b3" d="m255.36 205.58c0 1.8738-1.519 3.3929-3.3929 3.3929-1.8738 0-3.3929-1.519-3.3929-3.3929 0-1.8738 1.519-3.3929 3.3929-3.3929 1.8738 0 3.3929 1.519 3.3929 3.3929z" transform="matrix(.45919 -.016359 .014256 .46056 335.82 -27.77)"/>
   <path id="path10168" style="fill:#b3b3b3" d="m255.36 205.58c0 1.8738-1.519 3.3929-3.3929 3.3929-1.8738 0-3.3929-1.519-3.3929-3.3929 0-1.8738 1.519-3.3929 3.3929-3.3929 1.8738 0 3.3929 1.519 3.3929 3.3929z" transform="matrix(.45919 -.016359 .014256 .46056 340.94 -34.601)"/>
  </g>
 </g>
</svg>
