<?xml version="1.0" encoding="UTF-8" standalone="no"?>
<!-- Created with Inkscape (http://www.inkscape.org/) -->

<svg
   xmlns:dc="http://purl.org/dc/elements/1.1/"
   xmlns:cc="http://creativecommons.org/ns#"
   xmlns:rdf="http://www.w3.org/1999/02/22-rdf-syntax-ns#"
   xmlns:svg="http://www.w3.org/2000/svg"
   xmlns="http://www.w3.org/2000/svg"
   xmlns:xlink="http://www.w3.org/1999/xlink"
   xmlns:sodipodi="http://sodipodi.sourceforge.net/DTD/sodipodi-0.dtd"
   xmlns:inkscape="http://www.inkscape.org/namespaces/inkscape"
   width="48"
   height="48"
   id="svg2"
   version="1.1"
   inkscape:version="0.48.3.1 r9886"
   sodipodi:docname="unetbootin.svg">
  <defs
     id="defs4">
    <inkscape:perspective
       sodipodi:type="inkscape:persp3d"
       inkscape:vp_x="0 : 24 : 1"
       inkscape:vp_y="0 : 1000 : 0"
       inkscape:vp_z="48 : 24 : 1"
       inkscape:persp3d-origin="24 : 16 : 1"
       id="perspective3014" />
    <linearGradient
       id="linearGradient3795">
      <stop
         style="stop-color:#5281cc;stop-opacity:1;"
         offset="0"
         id="stop3797" />
      <stop
         style="stop-color:#599fe1;stop-opacity:1;"
         offset="1"
         id="stop3799" />
    </linearGradient>
    <linearGradient
       inkscape:collect="always"
       id="linearGradient3914">
      <stop
         style="stop-color:#59b3e1;stop-opacity:1;"
         offset="0"
         id="stop3916" />
      <stop
         style="stop-color:#59b3e1;stop-opacity:0;"
         offset="1"
         id="stop3918" />
    </linearGradient>
    <linearGradient
       id="linearGradient3698">
      <stop
         id="stop3700"
         offset="0"
         style="stop-color:#96d0e1;stop-opacity:1" />
      <stop
         style="stop-color:#89b7e1;stop-opacity:1"
         offset="0.67819428"
         id="stop3706" />
      <stop
         id="stop3702"
         offset="1"
         style="stop-color:#699dd3;stop-opacity:1" />
    </linearGradient>
    <linearGradient
       id="linearGradient3708">
      <stop
         id="stop3710"
         offset="0"
         style="stop-color:#658db6;stop-opacity:1" />
      <stop
         style="stop-color:#527fab;stop-opacity:1;"
         offset="0.76777935"
         id="stop3716" />
      <stop
         id="stop3712"
         offset="1"
         style="stop-color:#4071a0;stop-opacity:1" />
    </linearGradient>
    <linearGradient
       id="linearGradient3750">
      <stop
         style="stop-color:#d0e2f1;stop-opacity:1"
         offset="0"
         id="stop3752" />
      <stop
         id="stop3756"
         offset="0.85580856"
         style="stop-color:#cadef0;stop-opacity:1" />
      <stop
         style="stop-color:#95bee3;stop-opacity:1"
         offset="1"
         id="stop3754" />
    </linearGradient>
    <linearGradient
       id="linearGradient3803">
      <stop
         id="stop3805"
         offset="0"
         style="stop-color:#d7def0;stop-opacity:1;" />
      <stop
         style="stop-color:#ffffff;stop-opacity:1"
         offset="0.5"
         id="stop3811" />
      <stop
         id="stop3807"
         offset="1"
         style="stop-color:#d5def0;stop-opacity:1" />
    </linearGradient>
    <linearGradient
       inkscape:collect="always"
       xlink:href="#linearGradient3914"
       id="linearGradient3920"
       x1="6.8000002"
       y1="25.0625"
       x2="45.325001"
       y2="25.0625"
       gradientUnits="userSpaceOnUse" />
    <linearGradient
       inkscape:collect="always"
       xlink:href="#linearGradient4010"
       id="linearGradient4016"
       x1="25.011299"
       y1="1050.813"
       x2="25.011299"
       y2="1006.2652"
       gradientUnits="userSpaceOnUse" />
    <linearGradient
       inkscape:collect="always"
       id="linearGradient4010">
      <stop
         style="stop-color:#1d1d1d;stop-opacity:1"
         offset="0"
         id="stop4012" />
      <stop
         style="stop-color:#656565;stop-opacity:1"
         offset="1"
         id="stop4014" />
    </linearGradient>
    <linearGradient
       inkscape:collect="always"
       xlink:href="#linearGradient4010"
       id="linearGradient859"
       x1="24.270184"
       y1="1052.1753"
       x2="24.270184"
       y2="1004.9759"
       gradientUnits="userSpaceOnUse" />
  </defs>
  <sodipodi:namedview
     id="base"
     pagecolor="#ffff27"
     bordercolor="#666666"
     borderopacity="1.0"
     inkscape:pageopacity="0"
     inkscape:pageshadow="2"
     inkscape:zoom="5.6568545"
     inkscape:cx="-2.5530033"
     inkscape:cy="28.633201"
     inkscape:document-units="px"
     inkscape:current-layer="layer1"
     showgrid="false"
     inkscape:window-width="1366"
     inkscape:window-height="718"
     inkscape:window-x="0"
     inkscape:window-y="22"
     inkscape:window-maximized="1"
     showguides="true"
     inkscape:guide-bbox="true" />
  <metadata
     id="metadata7">
    <rdf:RDF>
      <cc:Work
         rdf:about="">
        <dc:format>image/svg+xml</dc:format>
        <dc:type
           rdf:resource="http://purl.org/dc/dcmitype/StillImage" />
        <dc:title></dc:title>
      </cc:Work>
    </rdf:RDF>
  </metadata>
  <g
     inkscape:label="Capa 1"
     inkscape:groupmode="layer"
     id="layer1"
     transform="translate(0,-1004.3622)">
    <g
       id="g3017">
      <rect
         ry="19.975765"
         y="1004.4872"
         x="-0.12499999"
         height="48"
         width="48"
         id="rect2991"
         style="fill:url(#linearGradient859);fill-opacity:1;stroke:none" />
      <path
         id="rect1933"
         d="m 19.103495,1026.8709 a 1.3258157,1.1281953 0 0 0 0.963862,1.1162 c -0.01075,0.5829 -0.03504,0.9338 -0.03504,1.5465 0,0.4157 0.268443,0.7577 0.595842,1.0696 0.3274,0.312 0.737118,0.6101 1.141615,0.9267 0.808991,0.633 1.563086,1.3193 1.657341,2.1709 a 0.38339515,0.32624793 0 0 0 0.0075,0.03 l 0,0.4561 a 1.9924291,1.6954461 0 0 0 0.425602,3.3487 1.9924291,1.6954461 0 0 0 0.340481,-3.3638 l 0,-2.8569 0.0075,0 c 0,-0.9223 0.477375,-1.4445 1.159139,-1.9876 0.681763,-0.5432 1.573008,-1.0586 2.190595,-1.8875 a 0.38325723,0.32613055 0 0 0 0.01004,-0.014 c 0.08757,-0.1304 0.08441,-0.2013 0.100144,-0.3046 0.01574,-0.1027 0.02538,-0.2227 0.03254,-0.3557 0.01433,-0.2667 0.01579,-0.5892 0.01251,-0.9077 -0.0015,-0.1496 -0.0041,-0.2964 -0.0075,-0.4366 l 0.941332,0 0,-2.316 -2.728859,0 0,2.316 1.021445,0 c 0.0035,0.1424 0.0059,0.292 0.0075,0.443 0.0032,0.3121 6.41e-4,0.6263 -0.01251,0.8713 -0.0066,0.1224 -0.01637,0.2292 -0.02754,0.3026 -0.0056,0.036 -0.01698,0.065 -0.02253,0.081 3.21e-4,0 -3.79e-4,0 0,0 -0.513704,0.6702 -1.311821,1.1496 -2.040384,1.7299 -0.227659,0.1815 -0.447636,0.377 -0.643409,0.5943 l 0,-7.7375 0.893764,0 c 0,0 -1.201258,-2.2322 -1.231742,-2.2667 -0.03048,-0.035 -1.269294,2.2667 -1.269294,2.2667 l 0.841189,0 0,10.3728 c -0.343019,-0.3897 -0.757134,-0.7285 -1.146621,-1.0333 -0.416556,-0.3259 -0.814381,-0.6203 -1.08904,-0.8818 -0.274657,-0.2619 -0.400566,-0.4745 -0.400566,-0.6348 0,-0.6032 0.02626,-0.9556 0.03756,-1.5573 a 1.3258157,1.1281953 0 0 0 -0.405574,-2.2007 1.3258157,1.1281953 0 0 0 -1.326875,1.0948 z"
         style="fill:#0ecefd;fill-opacity:1;fill-rule:nonzero;stroke:none"
         inkscape:connector-curvature="0" />
      <path
         transform="translate(0,1004.3622)"
         id="path3793"
         d="M 23.875 10.562503 C 23.875 10.562503 23.875 10.562503 23.875 10.562503 C 31.365361 10.562503 37.437499 16.634641 37.437499 24.125002 L 37.437499 24.125002 L 37.437499 24.125002 C 37.437499 31.615363 31.365361 37.687501 23.875 37.687501 C 16.943845 37.687501 11.227059 32.488173 10.412096 25.776972 "
         style="fill:none;stroke:#0ecefd;stroke-width:1;stroke-miterlimit:4;stroke-opacity:1;stroke-dasharray:none" />
      <path
         inkscape:transform-center-y="-3.8707615e-05"
         inkscape:transform-center-x="0.81002772"
         transform="matrix(0.58174586,0.33587113,-0.33587113,0.58174586,23.131705,1006.1841)"
         d="m 9.3022257,14.161725 -8.35445237,0 4.17722617,-7.2351684 z"
         inkscape:randomized="0"
         inkscape:rounded="0"
         inkscape:flatsided="true"
         sodipodi:arg2="1.5707963"
         sodipodi:arg1="0.52359878"
         sodipodi:r2="2.4117227"
         sodipodi:r1="4.8234453"
         sodipodi:cy="11.750002"
         sodipodi:cx="5.1249995"
         sodipodi:sides="3"
         id="path3795"
         style="fill:#0ecefd;fill-opacity:1;stroke:none"
         sodipodi:type="star" />
      <path
         id="rect4280"
         d="m 1.9375,1004.3622 c -1.077277,0 -1.9375,0.8602 -1.9375,1.9375 l 0,44.125 c 0,1.0773 0.860223,1.9375 1.9375,1.9375 l 44.125,0 c 1.077277,0 1.9375,-0.8602 1.9375,-1.9375 l 0,-44.125 c 0,-1.0773 -0.860223,-1.9375 -1.9375,-1.9375 L 1.9375,1004.3622 z m 0.59375,0.6563 42.9375,0 c 1.048101,0 1.875,0.8268 1.875,1.875 l 0,42.9375 c 0,1.0481 -0.826899,1.875 -1.875,1.875 l -42.9375,0 c -1.048101,0 -1.875,-0.8269 -1.875,-1.875 l 0,-42.9375 C 0.65625,1005.8453 1.483149,1005.0185 2.53125,1005.0185 Z"
         style="fill:#000000;fill-opacity:0.25490196;stroke:none"
         inkscape:connector-curvature="0" />
      <path
         transform="translate(0,1004.3622)"
         id="rect3790"
         d="M 0 0 L 0 48 L 16.78125 48 L 29.625 0 L 0 0 z "
         style="fill:#ffffff;stroke:none;fill-opacity:1;opacity:0.15" />
    </g>
  </g>
</svg>
