<?xml version="1.0" encoding="UTF-8" standalone="no"?>
<!-- Created with Inkscape (http://www.inkscape.org/) -->
<svg id="svg11037" xmlns:rdf="http://www.w3.org/1999/02/22-rdf-syntax-ns#" xmlns="http://www.w3.org/2000/svg" height="96" width="96" version="1.1" xmlns:cc="http://creativecommons.org/ns#" xmlns:xlink="http://www.w3.org/1999/xlink" xmlns:dc="http://purl.org/dc/elements/1.1/">
 <defs id="defs11039">
  <clipPath id="clipPath3009" clipPathUnits="userSpaceOnUse">
   <path id="path3011" style="opacity:.15;fill:#fff" d="m-2 956.36h-96v33.562l96 25.687v-59.25z"/>
  </clipPath>
  <radialGradient id="radialGradient3024" gradientUnits="userSpaceOnUse" cy="78.287" cx="47.098" gradientTransform="matrix(1.383 -1.035e-8 0 1.3124 -18.039 -25.318)" r="38.957">
   <stop id="stop3226" style="stop-color:#42394b" offset="0"/>
   <stop id="stop3228" offset="1"/>
  </radialGradient>
  <clipPath id="clipPath3032" clipPathUnits="userSpaceOnUse">
   <rect id="rect3034" style="fill:url(#linearGradient3036)" rx="21.174" ry="21.174" height="77.922" width="77.922" y="7.1554" x="87.75"/>
  </clipPath>
  <linearGradient id="linearGradient3036" y2="1046.1" gradientUnits="userSpaceOnUse" x2="48" gradientTransform="matrix(.97402 0 0 .97402 79.958 -932.15)" y1="962.62" x1="48">
   <stop id="stop3797" style="stop-color:#13a6fd" offset="0"/>
   <stop id="stop3799" style="stop-color:#2975b6" offset="1"/>
  </linearGradient>
 </defs>
 <metadata id="metadata11042">
  <rdf:RDF>
   <cc:Work rdf:about="">
    <dc:format>image/svg+xml</dc:format>
    <dc:type rdf:resource="http://purl.org/dc/dcmitype/StillImage"/>
    <dc:title/>
   </cc:Work>
  </rdf:RDF>
 </metadata>
 <g id="layer1" transform="translate(0 -956.36)">
  <g id="layer3" clip-path="url(#clipPath3032)" transform="matrix(1.1807 0 0 1.1807 -101.6 949.91)">
   <g id="g3018" transform="translate(79.616 -.59487)">
    <rect id="rect3461" style="fill:url(#radialGradient3024)" clip-path="none" rx="5.8528" ry="6.1733" height="78.516" width="77.915" y="7.1554" x="8.1409"/>
    <path id="rect3256" d="m14 8.25c-3.2424 0-5.8438 2.7675-5.8438 6.1875v49.062c18.824-13.859 45.812-23.794 77.906-21.781v-27.281c0-3.42-2.6326-6.1875-5.875-6.1875l-66.187-0.0005z" style="opacity:0.08;fill:#d9c6ed"/>
    <path id="path3213" d="m24 24v4.0022l8.0116 3.0931-8.012 3.033v3.872l11.947-4.916 0.053-3.843-12-5.241z" style="fill:#fff"/>
    <path id="path3557" d="m36 38v4h12v-4h-12z" style="fill:#fff"/>
   </g>
  </g>
  <rect id="rect3003" style="opacity:.15;fill:#fff" transform="translate(98 -.0000026172)" clip-path="url(#clipPath3009)" rx="25" ry="25" height="92" width="92" y="958.36" x="-96"/>
 </g>
</svg>
