<?xml version="1.0" encoding="UTF-8" standalone="no"?>
<!-- Created with Inkscape (http://www.inkscape.org/) -->
<svg id="svg11037" xmlns:rdf="http://www.w3.org/1999/02/22-rdf-syntax-ns#" xmlns="http://www.w3.org/2000/svg" height="96" width="96" version="1.1" xmlns:cc="http://creativecommons.org/ns#" xmlns:xlink="http://www.w3.org/1999/xlink" xmlns:dc="http://purl.org/dc/elements/1.1/">
 <defs id="defs11039">
  <linearGradient id="linearGradient3936">
   <stop id="stop3938" offset="0"/>
   <stop id="stop3940" style="stop-opacity:0" offset="1"/>
  </linearGradient>
  <linearGradient id="linearGradient3202">
   <stop id="stop3204" style="stop-color:#2b2b2b" offset="0"/>
   <stop id="stop3250" style="stop-color:#828383" offset=".5"/>
   <stop id="stop3206" style="stop-color:#dadbdb" offset="1"/>
  </linearGradient>
  <linearGradient id="linearGradient3258" y2="5.9877" gradientUnits="userSpaceOnUse" x2="48" y1="90" x1="48">
   <stop id="stop3599" style="stop-color:#dcdcdc" offset="0"/>
   <stop id="stop3601" style="stop-color:#f5f5f5" offset="1"/>
  </linearGradient>
  <linearGradient id="linearGradient3260" y2="63.893" gradientUnits="userSpaceOnUse" x2="36.357" y1="6" x1="36.357">
   <stop id="stop3739" style="stop-color:#fff" offset="0"/>
   <stop id="stop3741" style="stop-color:#fff;stop-opacity:0" offset="1"/>
  </linearGradient>
  <radialGradient id="radialGradient3262" gradientUnits="userSpaceOnUse" cy="90.172" cx="48" gradientTransform="matrix(1.1573 0 0 .99591 -7.551 .19713)" r="42">
   <stop id="stop3739-6" style="stop-color:#fff" offset="0"/>
   <stop id="stop3741-4" style="stop-color:#fff;stop-opacity:0" offset="1"/>
  </radialGradient>
  <linearGradient id="linearGradient3264" y2="-10.067" gradientUnits="userSpaceOnUse" x2="84" y1="80" x1="32">
   <stop id="stop4163" offset="0"/>
   <stop id="stop4165" style="stop-opacity:0" offset="1"/>
  </linearGradient>
  <linearGradient id="linearGradient3266" y2="27.597" xlink:href="#linearGradient3936" gradientUnits="userSpaceOnUse" x2="144.1" gradientTransform="matrix(.83325 .25728 -.25728 .83325 -22.973 -24.07)" y1="78.68" x1="102.76"/>
  <radialGradient id="radialGradient3268" gradientUnits="userSpaceOnUse" cy="356.62" cx="425.51" gradientTransform="matrix(-.021224 -.017025 .22621 -0.282 -136.43 244.92)" r="143.34">
   <stop id="stop3296" style="stop-color:#7bade5" offset="0"/>
   <stop id="stop3302" style="stop-color:#255995" offset=".50094"/>
   <stop id="stop3298" style="stop-color:#062951" offset="1"/>
  </radialGradient>
  <radialGradient id="radialGradient3270" xlink:href="#linearGradient3202" gradientUnits="userSpaceOnUse" cy="390.45" cx="289.44" gradientTransform="matrix(.087305 .069485 -.10650 .13382 -66.303 90.119)" r="17.677"/>
  <radialGradient id="radialGradient3272" xlink:href="#linearGradient3202" gradientUnits="userSpaceOnUse" cy="382.15" cx="283.51" gradientTransform="matrix(.087305 .069485 -.10650 .13382 -44.944 65.935)" r="17.677"/>
  <radialGradient id="radialGradient3274" gradientUnits="userSpaceOnUse" cy="181.19" cx="418.46" gradientTransform="matrix(-.013803 -.012573 .35517 -.38992 -103.15 193.49)" r="63.069">
   <stop id="stop3244" style="stop-color:#282828" offset="0"/>
   <stop id="stop3252" style="stop-color:#969696" offset=".39253"/>
   <stop id="stop3246" style="stop-color:#e3e3e3" offset="1"/>
  </radialGradient>
  <linearGradient id="linearGradient3276" y2="36.917" xlink:href="#linearGradient3936" gradientUnits="userSpaceOnUse" x2="137.93" gradientTransform="matrix(.69627 .52508 -.52508 .69627 12.351 -40.127)" y1="79.295" x1="103.95"/>
  <clipPath id="clipPath3278" clipPathUnits="userSpaceOnUse">
   <rect id="rect3280" style="fill:url(#linearGradient3282)" rx="22.826" ry="22.826" height="84" width="84" y="962.36" x="6"/>
  </clipPath>
  <linearGradient id="linearGradient3282" y2="1046.1" gradientUnits="userSpaceOnUse" x2="48" gradientTransform="matrix(1.05 0 0 1.05 -2.4 -50.217)" y1="962.62" x1="48">
   <stop id="stop3797" style="stop-color:#13a6fd" offset="0"/>
   <stop id="stop3799" style="stop-color:#2975b6" offset="1"/>
  </linearGradient>
  <clipPath id="clipPath3009" clipPathUnits="userSpaceOnUse">
   <path id="path3011" style="opacity:.15;fill:#fff" d="m-2 956.36h-96v33.562l96 25.687v-59.25z"/>
  </clipPath>
 </defs>
 <metadata id="metadata11042">
  <rdf:RDF>
   <cc:Work rdf:about="">
    <dc:format>image/svg+xml</dc:format>
    <dc:type rdf:resource="http://purl.org/dc/dcmitype/StillImage"/>
    <dc:title/>
   </cc:Work>
  </rdf:RDF>
 </metadata>
 <g id="layer1" transform="translate(0 -956.36)">
  <g id="g3241" clip-path="url(#clipPath3278)" transform="matrix(1.0952 0 0 1.0952 -4.5714 -95.654)">
   <g id="layer1-2" transform="translate(0 956.36)">
    <path id="rect2419" d="m12 6c-3.324 0-6 2.676-6 6v72c0 3.324 2.676 6 6 6h72c3.324 0 6-2.676 6-6v-72c0-3.324-2.676-6-6-6h-4v3.5c1.4703 0.7406 2.5 2.2424 2.5 4 0 2.484-2.016 4.5-4.5 4.5s-4.5-2.016-4.5-4.5c0-1.7576 1.0297-3.2594 2.5-4v-3.5h-8v3.5c1.4703 0.7406 2.5 2.2424 2.5 4 0 2.484-2.016 4.5-4.5 4.5s-4.5-2.016-4.5-4.5c0-1.7576 1.0297-3.2594 2.5-4v-3.5h-8v3.5c1.4703 0.7406 2.5 2.2424 2.5 4 0 2.484-2.016 4.5-4.5 4.5s-4.5-2.016-4.5-4.5c0-1.7576 1.0297-3.2594 2.5-4v-3.5h-8v3.5c1.4703 0.7406 2.5 2.2424 2.5 4 0 2.484-2.016 4.5-4.5 4.5s-4.5-2.016-4.5-4.5c0-1.7576 1.0297-3.2594 2.5-4v-3.5h-8v3.5c1.4703 0.7406 2.5 2.2424 2.5 4 0 2.484-2.016 4.5-4.5 4.5s-4.5-2.016-4.5-4.5c0-1.7576 1.0297-3.2594 2.5-4v-3.5h-8v3.5c1.4703 0.7406 2.5 2.2424 2.5 4 0 2.484-2.016 4.5-4.5 4.5s-4.5-2.016-4.5-4.5c0-1.7576 1.0297-3.2594 2.5-4v-3.5h-4z" style="fill:url(#linearGradient3258)"/>
    <path id="rect3728" d="m12 6c-3.324 0-6 2.676-6 6v2 68 2c0 0.33472 0.04135 0.6507 0.09375 0.96875 0.0487 0.2956 0.09704 0.59692 0.1875 0.875 0.00988 0.03038 0.020892 0.0636 0.03125 0.09375 0.098865 0.28777 0.23488 0.54745 0.375 0.8125 0.14459 0.27351 0.31562 0.53562 0.5 0.78125 0.18438 0.24564 0.37378 0.47347 0.59375 0.6875 0.43995 0.42806 0.94291 0.81453 1.5 1.0938 0.27854 0.13961 0.57347 0.24695 0.875 0.34375-0.2562-0.10022-0.48671-0.23627-0.71875-0.375-0.00741-0.0044-0.023866 0.0045-0.03125 0-0.031933-0.0193-0.062293-0.04251-0.09375-0.0625-0.1204-0.0767-0.23102-0.16351-0.34375-0.25-0.10617-0.0808-0.21328-0.16111-0.3125-0.25-0.1778-0.162-0.3473-0.346-0.4999-0.531-0.1075-0.131-0.2183-0.266-0.3124-0.407-0.0251-0.038-0.0385-0.086-0.0626-0.125-0.0647-0.103-0.1302-0.204-0.1874-0.312-0.1011-0.195-0.2057-0.416-0.2813-0.625-0.008-0.022-0.0236-0.041-0.0313-0.063-0.0318-0.092-0.0358-0.187-0.0624-0.281-0.0304-0.107-0.0704-0.203-0.0938-0.313-0.0729-0.341-0.125-0.698-0.125-1.062v-2-68-2c0-2.782 2.2182-5 5-5h2 2v-2h-4zm8 0v2h8v-2h-8zm12 0v2h8v-2h-8zm12 0v2h8v-2h-8zm12 0v2h8v-2h-8zm12 0v2h8v-2h-8zm12 0v2h2 2c2.7818 0 5 2.2182 5 5v2 68 2c0 0.3643-0.05212 0.72099-0.125 1.0625-0.04415 0.20689-0.08838 0.39766-0.15625 0.59375-0.0077 0.02195-0.0233 0.04069-0.03125 0.0625-0.06274 0.17374-0.13838 0.36745-0.21875 0.53125-0.04158 0.0828-0.07904 0.16995-0.125 0.25-0.0546 0.09721-0.12677 0.18835-0.1875 0.28125-0.09411 0.14096-0.20492 0.276-0.3125 0.40625-0.14317 0.17445-0.30314 0.347-0.46875 0.5-0.01117 0.0102-0.01998 0.02115-0.03125 0.03125-0.13839 0.12556-0.28509 0.23444-0.4375 0.34375-0.10257 0.07315-0.20432 0.15336-0.3125 0.21875-0.0074 0.0045-0.02384-0.0044-0.03125 0-0.23204 0.13873-0.46255 0.27478-0.71875 0.375 0.30153-0.0968 0.59646-0.20414 0.875-0.34375 0.55709-0.27922 1.0601-0.66569 1.5-1.0938 0.21997-0.21403 0.40937-0.44186 0.59375-0.6875s0.35541-0.50774 0.5-0.78125c0.14012-0.26505 0.27614-0.52473 0.375-0.8125 0.01041-0.03078 0.02133-0.06274 0.03125-0.09375 0.09046-0.27808 0.1388-0.5794 0.1875-0.875 0.053-0.318 0.094-0.634 0.094-0.969v-2-68-2c0-3.324-2.676-6-6-6h-4z" style="opacity:.5;fill:url(#linearGradient3260)"/>
    <path id="path3615" d="m12 90c-3.324 0-6-2.676-6-6v-2-68-2c0-0.33472 0.04135-0.6507 0.09375-0.96875 0.0487-0.2956 0.09704-0.59692 0.1875-0.875 0.0099-0.03 0.0209-0.063 0.0313-0.094 0.0989-0.2873 0.2349-0.547 0.375-0.812 0.1446-0.2735 0.3156-0.5356 0.5-0.7812 0.1844-0.2457 0.3738-0.4735 0.5937-0.6876 0.44-0.428 0.943-0.8145 1.5-1.0937 0.2786-0.1396 0.5735-0.2469 0.8748-0.3437-0.256 0.1002-0.4865 0.2362-0.7185 0.375-0.00741 0.0044-0.023866-0.0045-0.03125 0-0.031933 0.0193-0.062293 0.04251-0.09375 0.0625-0.1204 0.0767-0.23102 0.16351-0.34375 0.25-0.10617 0.0808-0.21328 0.16111-0.3125 0.25-0.1779 0.1614-0.3474 0.3453-0.5 0.5312-0.1075 0.1303-0.2183 0.2653-0.3124 0.4063-0.0251 0.0383-0.0385 0.0858-0.0626 0.125-0.0647 0.103-0.1302 0.2045-0.1874 0.3124-0.1011 0.1948-0.2057 0.4158-0.2813 0.625-0.008 0.0219-0.0236 0.0406-0.0313 0.0626-0.0318 0.0919-0.0358 0.1868-0.0624 0.2812-0.0304 0.1066-0.0704 0.203-0.0938 0.3125-0.0729 0.3415-0.125 0.6985-0.125 1.0625v2 68 2c0 2.7818 2.2182 5 5 5h2 68 2c2.7818 0 5-2.2182 5-5v-2-68-2c0-0.364-0.052-0.721-0.125-1.0625-0.044-0.2069-0.088-0.3977-0.156-0.5937-0.008-0.022-0.024-0.0407-0.031-0.0626-0.063-0.1737-0.139-0.3674-0.219-0.5312-0.042-0.0828-0.079-0.17-0.125-0.25-0.055-0.0972-0.127-0.1884-0.188-0.2812-0.094-0.141-0.205-0.276-0.312-0.4063-0.143-0.1745-0.303-0.347-0.469-0.5-0.011-0.0102-0.02-0.0211-0.031-0.0313-0.139-0.1255-0.285-0.2344-0.438-0.3437-0.102-0.0731-0.204-0.1534-0.312-0.2187-0.0074-0.0045-0.02384 0.0044-0.03125 0-0.23204-0.13873-0.46255-0.27478-0.71875-0.375 0.30153 0.0968 0.59646 0.20414 0.875 0.34375 0.55709 0.27922 1.0601 0.66569 1.5 1.0938 0.21997 0.21403 0.40937 0.44186 0.59375 0.6875s0.35541 0.50774 0.5 0.78125c0.14012 0.26505 0.27614 0.52473 0.375 0.8125 0.01041 0.03078 0.02133 0.06274 0.03125 0.09375 0.09046 0.27808 0.1388 0.5794 0.1875 0.875 0.053 0.318 0.094 0.634 0.094 0.969v2 68 2c0 3.324-2.676 6-6 6h-72z" style="opacity:.6;fill:url(#radialGradient3262)"/>
    <path id="text1485-8" d="m52.966 46.384c0.1787 0.20186 0.65308 0.65003 1.4232 1.3445 10.81 10.765 16.006 16.793 15.587 18.083-0.30052 0.94893-1.1668 1.7536-2.5987 2.414-1.4296 0.62196-2.7175 0.90398-3.8638 0.84608-0.90756-0.04583-5.2167-4.5826-12.927-13.61-1.5559-1.891-2.4697-2.9591-2.7414-3.2043-1.1297 1.177-2.8185 3.5984-5.0662 7.264-2.1975 3.6297-3.7236 6.5027-4.5781 8.6191 1.4945-0.8886 2.7195-1.3088 3.6748-1.2605 0.47761 0.02413 0.79469 0.31009 0.95125 0.85788 0.20673 0.51178 0.21874 1.0716 0.03603 1.6793-0.17045 0.4156-1.3233 1.2058-3.4584 2.3705-1.5374 0.80932-2.5083 1.3773-2.9125 1.704-1.2508 0.82379-2.1154 1.9756-2.5936 3.4554-0.66598 2.1645-2.3602 3.178-5.0827 3.0405-1.4329-0.07237-2.3133-0.54103-2.6412-1.406-0.32787-0.86496-0.19379-2.2079 0.40222-4.0289 1.1442-3.6443 6.6471-12.487 16.509-26.527-0.05609-0.61982-1.4691-2.87-4.239-6.7506-2.7699-3.8805-4.969-6.5753-6.5973-8.0845-1.7642-1.6316-2.4985-2.8834-2.2029-3.7555 0.66595-2.1644 2.7662-3.1574 6.3007-2.979 1.7195 0.0869 4.7841 3.481 9.194 10.182 1.8837 2.7561 3.1175 4.438 3.7014 5.046 1.0169-0.91269 2.4665-2.5941 4.3488-5.0443 1.8847-2.4885 3.188-4.5051 3.9101-6.0498 0.71459-1.4293 1.8418-2.5678 3.3817-3.4156 1.5398-0.84771 3.0023-1.2366 4.3875-1.1667 2.1493 0.10859 2.9272 1.0541 2.3337 2.8366-0.66601 2.1645-4.5413 6.9242-11.626 14.279-1.8478 1.912-2.8519 2.9989-3.0124 3.2607" style="opacity:.9;fill:url(#linearGradient3264)"/>
   </g>
   <g id="layer3" transform="translate(0 956.36)">
    <path id="path3902" d="m100.25 29.75s-0.24013 0.14795-0.2466 0.15203c-1.9141-0.29277-7.1955 0.91161-21.816 10.52-0.01299-0.01637-0.10607-0.11832-0.10607-0.11832l-0.57743 0.39214c0.06463 0.07623 0.12254 0.15214 0.18611 0.22859-9.7526 6.0787-20.272 13.297-21.112 13.874-0.000561-0.0011-0.01797-0.03404-0.01795-0.03407l-0.0099-0.06012-0.04208 0.04405c-0.000504-0.0013-0.01795-0.03408-0.01795-0.03408l-0.7639 0.53422c0.0057 0.01107 0.01225 0.023 0.01795 0.03407l-0.03403 0.01801 0.01795 0.03408c0.000029 0.000055 0.0337 0.06347 0.03601 0.06816-9.1302 7.1584-14.957 12.691-14.846 13.442 0.14916 1.01 17.551-8.0295 18.283-8.5014 0.02452 0.02613 0.15004 0.16033 0.15011 0.16044l0.026 0.008 0.8401-0.59625-0.01796-0.03407c-0.00012-0.000112-0.0566-0.07086-0.06199-0.07618 1.753-1.0129 11.335-6.5877 21.48-13.219 0.12222 0.21449 0.23399 0.44303 0.23399 0.44303l0.57743-0.39214c-0.01577-0.032-0.03746-0.06962-0.05395-0.10223 0.75304-0.44455 16.638-9.8447 18.862-14.255 0.20235-0.11206 0.28623-0.16781 0.48515-0.27802 0 0 0.17913-1.5841-1.4724-2.2515z" style="opacity:.25;fill:url(#linearGradient3266)"/>
    <g id="g3861" transform="matrix(.77031 .12230 -.12230 .77031 140.21 -59.201)">
     <g id="g4820" transform="matrix(.21052 0 0 .21052 -139.34 79.703)">
      <path id="path4824" d="m279.48 404.24c-0.007-0.004-7.446-4.112-16.804-11.401-8.082-6.285-13.538-12.214-13.544-12.22l-0.122-0.133 3.646-4.669 0.157-0.205 0.169 0.197c0.017 0.01 5.4 6.295 13.725 12.78 7.913 6.157 16.594 10.586 16.612 10.595l0.229 0.117-3.911 5.026-0.157-0.087zm-16.542-11.737c8.545 6.656 15.469 10.644 16.589 11.275l3.372-4.334c-1.423-0.743-9.253-4.919-16.453-10.521-7.504-5.845-12.637-11.533-13.614-12.645l-3.264 4.184c0.849 0.905 6.01 6.32 13.37 12.041z" style="fill:#4d4d4d"/>
     </g>
     <path id="path3254" d="m-80.52 164.42s11.205-12.022 22.174-25.259l0.47909 0.14793s22.747-24.929 17.183-26.947c0 0-2.782-5.5094-24.601 21.001l-0.04196 0.39783c-10.067 11.61-21.253 25.766-21.253 25.766-8.64 12.42-13.77 21.6-13.346 22.487 0.57673 1.2059 19.44-17.473 19.407-17.594z" style="fill-rule:evenodd;stroke:#07213e;stroke-width:.64106;fill:url(#radialGradient3268)"/>
     <path id="path2430" d="m-86.948 159.76c2.4493 2.5072 6.4415 5.0529 6.4415 5.0529l0.79072-1.0029c-2.709-1.4158-6.48-5.0143-6.48-5.0143l-0.75215 0.96428z" style="fill:url(#radialGradient3270);fill-rule:evenodd"/>
     <path id="path3236" d="m-65.762 133.69c4.32 2.7579 7.7143 6.0943 7.7143 6.0943l0.57857-0.675c-2.304-2.4379-7.7233-6.1263-7.7233-6.1263l-0.56961 0.70696z" style="fill:url(#radialGradient3272);fill-rule:evenodd"/>
     <path id="path3240" d="m-42.031 111.66c2.2757 0.19285 2.6614 2.1986 2.6614 2.1986-10.376 10.8-25.573 26.499-25.573 26.499l-0.77143-0.65572c13.384-16.046 23.683-28.042 23.683-28.042" style="fill:url(#radialGradient3274);fill-rule:evenodd"/>
    </g>
    <path id="path3944" d="m109.96 52.358s-0.2761 0.05757-0.28358 0.05921c-1.7008-0.9257-7.0772-1.5874-24.092 2.4817-0.0067-0.0198-0.05957-0.14732-0.05957-0.14732l-0.67631 0.17263c0.03489 0.09365 0.06356 0.18473 0.09737 0.27823-11.238 2.4035-23.584 5.6188-24.57 5.876-0.000132-0.0012-0.0053-0.03811-0.0053-0.03814l0.0111-0.0599-0.05454 0.02713c-0.000017-0.0014-0.0053-0.03813-0.0053-0.03813l-0.89996 0.24289c0.0016 0.01234 0.0038 0.0258 0.0053 0.03814l-0.03814 0.0054 0.0053 0.03814c0.000008 0.000062 0.01014 0.07114 0.0107 0.07634-11.019 3.6305-18.379 6.8541-18.53 7.598-0.20288 1.0006 19.235-1.5886 20.084-1.7837 0.01418 0.0329 0.08664 0.20177 0.08667 0.2019l0.02172 0.0164 0.99271-0.27535-0.0053-0.03814c-0.000073-0.000147-0.02917-0.08588-0.03242-0.09271 1.9929-0.35707 12.899-2.3447 24.693-5.1344 0.04208 0.24326 0.06954 0.49617 0.06954 0.49617l0.67631-0.17262c-0.004-0.03545-0.01157-0.07822-0.01601-0.11448 0.8593-0.16228 18.993-3.6062 22.583-6.9986 0.2284-0.03664 0.32621-0.06058 0.55076-0.09665 0 0 0.70669-1.429-0.61989-2.6178z" style="opacity:.4;fill:url(#linearGradient3276)"/>
   </g>
  </g>
  <rect id="rect3003" style="opacity:.15;fill:#fff" transform="translate(98 3.8281e-7)" clip-path="url(#clipPath3009)" rx="25" ry="25" height="92" width="92" y="958.36" x="-96"/>
 </g>
</svg>
