<?xml version="1.0" encoding="UTF-8" standalone="no"?>
<!-- Created with Inkscape (http://www.inkscape.org/) -->
<svg id="svg11037" xmlns:rdf="http://www.w3.org/1999/02/22-rdf-syntax-ns#" xmlns="http://www.w3.org/2000/svg" height="96" width="96" version="1.1" xmlns:cc="http://creativecommons.org/ns#" xmlns:xlink="http://www.w3.org/1999/xlink" xmlns:dc="http://purl.org/dc/elements/1.1/">
 <defs id="defs11039">
  <radialGradient id="radialGradient3205" gradientUnits="userSpaceOnUse" cy="78.287" cx="47.098" gradientTransform="matrix(1.383 -1.035e-8 0 1.3124 -18.039 -24.219)" r="38.957">
   <stop id="stop3226" style="stop-color:#42394b" offset="0"/>
   <stop id="stop3228" offset="1"/>
  </radialGradient>
  <clipPath id="clipPath3036" clipPathUnits="userSpaceOnUse">
   <rect id="rect3038" style="fill:url(#linearGradient3040)" rx="21.174" ry="21.174" height="77.922" width="77.922" y="8.8493" x="8.1409"/>
  </clipPath>
  <linearGradient id="linearGradient3040" y2="1046.1" gradientUnits="userSpaceOnUse" x2="48" gradientTransform="matrix(.97402 0 0 .97402 .34876 -930.46)" y1="962.62" x1="48">
   <stop id="stop3797" style="stop-color:#13a6fd" offset="0"/>
   <stop id="stop3799" style="stop-color:#2975b6" offset="1"/>
  </linearGradient>
  <clipPath id="clipPath3009" clipPathUnits="userSpaceOnUse">
   <path id="path3011" style="opacity:.15;fill:#fff" d="m-2 956.36h-96v33.562l96 25.687v-59.25z"/>
  </clipPath>
 </defs>
 <metadata id="metadata11042">
  <rdf:RDF>
   <cc:Work rdf:about="">
    <dc:format>image/svg+xml</dc:format>
    <dc:type rdf:resource="http://purl.org/dc/dcmitype/StillImage"/>
    <dc:title/>
   </cc:Work>
  </rdf:RDF>
 </metadata>
 <g id="layer1" transform="translate(0 -956.36)">
  <g id="g3050" clip-path="url(#clipPath3036)" transform="matrix(1.1807 0 0 1.1807 -7.6117 947.91)">
   <path id="path3927" d="m24 17.5a1.4854 1.4854 0 0 0 -1.25 2.3125l18.469 28.688-18.469 27.688a1.4854 1.4854 0 0 0 1.25 2.312h4a1.4854 1.4854 0 0 0 1.2188 -0.6875l15.688-23.406 14.875 23.406a1.4854 1.4854 0 0 0 1.25 0.6875h12a1.4854 1.4854 0 0 0 1.25 -2.3125l-18.47-28.688 18.469-27.688a1.4854 1.4854 0 0 0 -1.25 -2.3125h-4a1.4854 1.4854 0 0 0 -1.219 0.688l-15.687 23.406-14.875-23.406a1.4854 1.4854 0 0 0 -1.25 -0.688h-12z" style="opacity:.2;fill:#f0f"/>
   <rect id="rect3461" style="fill:url(#radialGradient3205)" rx="5.8528" ry="6.1733" height="78.516" width="77.915" y="8.2544" x="8.1409"/>
   <path id="path3889" d="m24 19 19 29.509-19 28.491h4l23.031-34.374-15.031-23.626h-12zm45.031 0-23.031 34.374 15.031 23.626h12l-19-29.509 19-28.491h-4z" style="opacity:.2;fill:#fff"/>
   <path id="rect3256" d="m14 8.25c-3.2424 0-5.8438 2.7675-5.8438 6.1875v49.062c18.824-13.859 45.812-23.794 77.906-21.781v-27.281c0-3.42-2.6326-6.1875-5.875-6.1875l-66.187-0.0005z" style="opacity:0.08;fill:#d9c6ed"/>
   <path id="path3883" d="m23.812 24.062a0.94074 0.94074 0 0 0 -0.75 0.938v4a0.94074 0.94074 0 0 0 0.59375 0.875l5.719 2.219-5.719 2.156a0.94074 0.94074 0 0 0 -0.59375 0.875v3.875a0.94074 0.94074 0 0 0 1.2812 0.875l11.938-4.9062a0.94074 0.94074 0 0 0 0.59375 -0.875l0.063-3.844a0.94074 0.94074 0 0 0 -0.563 -0.875l-12-5.25a0.94074 0.94074 0 0 0 -0.5625 -0.0625zm12.094 14a0.94074 0.94074 0 0 0 -0.844 0.938v4a0.94074 0.94074 0 0 0 0.938 0.938h12a0.94074 0.94074 0 0 0 0.938 -0.938v-4a0.94074 0.94074 0 0 0 -0.938 -0.938h-12a0.94074 0.94074 0 0 0 -0.09375 0z" style="opacity:.1"/>
   <path id="path3874" d="m24 25v4l8 3.0938-8 3.031v3.875l11.938-4.906 0.062-3.844-12-5.25zm12 14v4h12v-4h-12z" style="opacity:.2"/>
   <path id="path3213" d="m24 24v4.0022l8.0116 3.0931-8.012 3.033v3.872l11.947-4.916 0.053-3.843-12-5.241z" style="fill:#fff"/>
   <path id="path3557" d="m36 38v4h12v-4h-12z" style="fill:#fff"/>
   <path id="rect3222-3" d="m19 13c-3.2894 0-6 2.7106-6 6v58c0 3.2894 2.7106 6 6 6h58c3.2894 0 6-2.7106 6-6v-58c0-3.2894-2.7106-6-6-6h-58zm0 4h58c1.1426 0 2 0.85741 2 2v58c0 1.1426-0.85741 2-2 2h-58c-1.1426 0-2-0.85741-2-2v-58c0-1.1426 0.85741-2 2-2z" style="opacity:.15;block-progression:tb;text-indent:0;color:#000000;text-transform:none"/>
   <path id="rect3981" d="m17 14c-1.662 0-3 1.338-3 3v62c0 1.662 1.338 3 3 3h62c1.662 0 3-1.338 3-3v-62c0-1.662-1.338-3-3-3h-62zm0 1.9375h62c0.61816 0 1.0625 0.44434 1.0625 1.0625v62c0 0.61816-0.44434 1.0625-1.0625 1.0625h-62c-0.61816 0-1.0625-0.44434-1.0625-1.0625v-62c0-0.61816 0.44434-1.0625 1.0625-1.0625z" style="opacity:.3;color:#000000"/>
   <path id="rect3977" d="m17 14c-1.662 0-3 1.338-3 3v62c0 1.662 1.338 3 3 3h62c1.662 0 3-1.338 3-3v-62c0-1.662-1.338-3-3-3h-62zm0 0.96875h62c1.1401 0 2.0312 0.89117 2.0312 2.0312v62c0 1.1401-0.89117 2.0312-2.0312 2.0312h-62c-1.1401 0-2.0312-0.89117-2.0312-2.0312v-62c0-1.1401 0.89117-2.0312 2.0312-2.0312z" style="opacity:.6;color:#000000"/>
  </g>
  <rect id="rect3003" style="opacity:.15;fill:#fff" transform="translate(98 3.8281e-7)" clip-path="url(#clipPath3009)" rx="25" ry="25" height="92" width="92" y="958.36" x="-96"/>
 </g>
</svg>
