<?xml version="1.0" encoding="UTF-8" standalone="no"?>
<!-- Created with Inkscape (http://www.inkscape.org/) -->
<svg id="svg11037" xmlns:rdf="http://www.w3.org/1999/02/22-rdf-syntax-ns#" xmlns="http://www.w3.org/2000/svg" height="96" width="96" version="1.1" xmlns:cc="http://creativecommons.org/ns#" xmlns:xlink="http://www.w3.org/1999/xlink" xmlns:dc="http://purl.org/dc/elements/1.1/">
 <defs id="defs11039">
  <linearGradient id="linearGradient11642" y2="1046.1" gradientUnits="userSpaceOnUse" y1="962.62" gradientTransform="matrix(1.1137 0 0 1.1137 -5.4568 -114.18)" x2="48" x1="48">
   <stop id="stop3679" style="stop-color:#190e07" offset="0"/>
   <stop id="stop3681" style="stop-color:#311e12" offset="1"/>
  </linearGradient>
  <clipPath id="clipPath3009" clipPathUnits="userSpaceOnUse">
   <path id="path3011" style="opacity:.15;fill:#fff" d="m-2 956.36h-96v33.562l96 25.687v-59.25z"/>
  </clipPath>
  <linearGradient id="linearGradient4052">
   <stop id="stop4054" style="stop-color:#f4a615" offset="0"/>
   <stop id="stop4056" style="stop-color:#f47d15" offset="1"/>
  </linearGradient>
  <linearGradient id="linearGradient3957" y2="908.58" xlink:href="#linearGradient4052" gradientUnits="userSpaceOnUse" x2="-111.05" y1="908.58" x1="-166.93"/>
  <filter id="filter4005" height="1.8045" width="1.4786" y="-.40224" x="-.23929">
   <feGaussianBlur id="feGaussianBlur4007" stdDeviation="5.5713365"/>
  </filter>
  <filter id="filter4035" height="1.8045" width="1.4786" y="-.40224" x="-.23929">
   <feGaussianBlur id="feGaussianBlur4037" stdDeviation="5.5713365"/>
  </filter>
 </defs>
 <metadata id="metadata11042">
  <rdf:RDF>
   <cc:Work rdf:about="">
    <dc:format>image/svg+xml</dc:format>
    <dc:type rdf:resource="http://purl.org/dc/dcmitype/StillImage"/>
    <dc:title/>
   </cc:Work>
  </rdf:RDF>
 </metadata>
 <g id="layer1" transform="translate(0 -956.36)">
  <rect id="rect3867" style="stroke:#000;stroke-width:2.9053;fill:url(#linearGradient11642)" rx="24.211" ry="24.211" height="89.095" width="89.095" y="959.81" x="3.4526"/>
  <g id="g4009" style="filter:url(#filter4035);fill:url(#linearGradient3957)" transform="matrix(1.0738 0 0 1.0718 197.24 30.704)">
   <path id="path4011" style="fill:url(#linearGradient3957)" d="m-113.98 897.66-1.5039 2.832-3.1445-1.6406 1.4648-2.8516 3.1836 1.6602m2.9297 18.184c-0.00002 1.4323-0.612 2.9167-1.8359 4.4531-1.0677 1.3542-2.3958 2.5195-3.9844 3.4961-1.5104 0.9375-2.7539 1.4062-3.7305 1.4062-0.89845 0-1.8685-0.13021-2.9102-0.39062-0.79427-0.19532-1.7448-0.50131-2.8516-0.91797-0.9375-0.35157-1.8685-0.70313-2.793-1.0547l0.33203-0.78125c0.85938 0.16927 1.7513 0.33854 2.6758 0.50781 0.93749 0.18229 1.7838 0.27344 2.5391 0.27344 1.6667 0 3.4049-0.53385 5.2148-1.6016 1.6406-0.97656 3.0404-2.207 4.1992-3.6914 1.1588-1.4974 1.7383-2.845 1.7383-4.043-0.00002-1.0286-0.29949-2.1094-0.89844-3.2422-0.48178-0.91145-1.1589-1.849-2.0312-2.8125l1.1133-3.0664c1.0677 0.9896 1.8554 1.9792 2.3633 2.9688 0.57289 1.1198 0.85935 2.3698 0.85937 3.75v4.7461"/>
   <path id="path4013" style="fill:url(#linearGradient3957)" d="m-130.62 915.85h-17.129v-3.3984h14.863c-0.91147-1.3802-1.9531-2.5781-3.125-3.5938-1.1719-1.0286-2.7539-2.1354-4.7461-3.3203l-0.64453 0.60547-2.3047-1.7578c-0.80729-0.67707-1.2109-1.2044-1.2109-1.582 0-2.2396 0.54688-3.9974 1.6406-5.2734 1.0156-1.1718 2.7669-2.2265 5.2539-3.1641l5.5078-2.1484v3.3789l-4.082 1.3672c-1.6276 0.53388-2.9427 1.0222-3.9453 1.4648-1.276 0.55992-1.9141 0.9896-1.9141 1.2891s0.41666 0.76174 1.25 1.3867c0.52083 0.39064 1.0482 0.78127 1.582 1.1719 1.9792 1.4974 3.7044 3.0664 5.1758 4.707 1.5885 1.7578 2.8646 3.5807 3.8281 5.4688v3.3984"/>
   <path id="path4015" style="fill:url(#linearGradient3957)" d="m-146.42 915.85h-2.7344c-0.88542 0.00001-1.595-0.35806-2.1289-1.0742-0.46876-0.62499-0.82683-1.556-1.0742-2.793-0.23438-1.237-0.41667-2.7604-0.54688-4.5703-0.0781-1.4713-0.16276-2.9818-0.2539-4.5312-0.0781-1.5495-0.18881-2.7213-0.33203-3.5156-0.13021-0.80727-0.31251-1.4648-0.54688-1.9727-0.28646-0.62497-0.68359-1.1718-1.1914-1.6406l2.4024-3.7891c0.50781 1.5625 0.86588 3.431 1.0742 5.6055 0.1302 1.3542 0.26041 4.5573 0.39062 9.6094 0.23437 2.3177 0.57291 3.8021 1.0156 4.4531 0.36458 0.54689 0.76171 0.82032 1.1914 0.82032h2.7344v3.3984"/>
   <path id="path4017" style="fill:url(#linearGradient3957)" d="m-157.79 897.6-1.5234 2.8125-3.1641-1.6797 1.4648-2.793 3.2227 1.6602m-4.4922 1.7578-1.4844 2.832-3.1641-1.6406 1.4453-2.832 3.2031 1.6406m6.2109 10.723c-0.00001 1.836-0.29949 3.2162-0.89844 4.1406-0.92448 1.4323-2.6172 2.1484-5.0781 2.1484-0.95053 0-1.7383-0.1888-2.3633-0.56641-0.71615-0.42968-1.0742-1.0417-1.0742-1.8359 0-0.91145 0.22786-1.9661 0.68359-3.1641 0.41667-1.0156 0.83984-2.0378 1.2695-3.0664l-0.29297-0.0781 1.1914-3.3008c2.3568 1.237 3.763 2.0182 4.2188 2.3438 1.5625 1.0938 2.3437 2.2201 2.3438 3.3789m-1.6992 1.5234c-0.00001-0.49478-0.71615-1.1523-2.1484-1.9726-0.61198-0.35155-1.2695-0.69661-1.9726-1.0352-0.58594 0.63803-0.93751 1.0352-1.0547 1.1914-0.36459 0.50782-0.54688 0.98959-0.54687 1.4453-0.00001 0.66407 0.18228 1.1849 0.54687 1.5625 0.3776 0.36459 0.8789 0.54688 1.5039 0.54687 0.72916 0.00001 1.5234-0.20181 2.3828-0.60547 0.85937-0.41665 1.289-0.79426 1.2891-1.1328"/>
  </g>
  <text id="text3843" style="font-size:40px;letter-spacing:0px;line-height:125%;word-spacing:0px;font-family:Cantarell;fill:#000000" xml:space="preserve" transform="translate(0 956.36)" y="68.473343" x="-97.22718"><tspan id="tspan3845" x="-97.22718" y="68.473343"/></text>
  <g id="text3938" style="fill:url(#linearGradient3957)" transform="matrix(1.0738 0 0 1.0718 197.24 30.704)">
   <path id="path3943" style="fill:url(#linearGradient3957)" d="m-113.98 897.66-1.5039 2.832-3.1445-1.6406 1.4648-2.8516 3.1836 1.6602m2.9297 18.184c-0.00002 1.4323-0.612 2.9167-1.8359 4.4531-1.0677 1.3542-2.3958 2.5195-3.9844 3.4961-1.5104 0.9375-2.7539 1.4062-3.7305 1.4062-0.89845 0-1.8685-0.13021-2.9102-0.39062-0.79427-0.19532-1.7448-0.50131-2.8516-0.91797-0.9375-0.35157-1.8685-0.70313-2.793-1.0547l0.33203-0.78125c0.85938 0.16927 1.7513 0.33854 2.6758 0.50781 0.93749 0.18229 1.7838 0.27344 2.5391 0.27344 1.6667 0 3.4049-0.53385 5.2148-1.6016 1.6406-0.97656 3.0404-2.207 4.1992-3.6914 1.1588-1.4974 1.7383-2.845 1.7383-4.043-0.00002-1.0286-0.29949-2.1094-0.89844-3.2422-0.48178-0.91145-1.1589-1.849-2.0312-2.8125l1.1133-3.0664c1.0677 0.9896 1.8554 1.9792 2.3633 2.9688 0.57289 1.1198 0.85935 2.3698 0.85937 3.75v4.7461"/>
   <path id="path3945" style="fill:url(#linearGradient3957)" d="m-130.62 915.85h-17.129v-3.3984h14.863c-0.91147-1.3802-1.9531-2.5781-3.125-3.5938-1.1719-1.0286-2.7539-2.1354-4.7461-3.3203l-0.64453 0.60547-2.3047-1.7578c-0.80729-0.67707-1.2109-1.2044-1.2109-1.582 0-2.2396 0.54688-3.9974 1.6406-5.2734 1.0156-1.1718 2.7669-2.2265 5.2539-3.1641l5.5078-2.1484v3.3789l-4.082 1.3672c-1.6276 0.53388-2.9427 1.0222-3.9453 1.4648-1.276 0.55992-1.9141 0.9896-1.9141 1.2891s0.41666 0.76174 1.25 1.3867c0.52083 0.39064 1.0482 0.78127 1.582 1.1719 1.9792 1.4974 3.7044 3.0664 5.1758 4.707 1.5885 1.7578 2.8646 3.5807 3.8281 5.4688v3.3984"/>
   <path id="path3947" style="fill:url(#linearGradient3957)" d="m-146.42 915.85h-2.7344c-0.88542 0.00001-1.595-0.35806-2.1289-1.0742-0.46876-0.62499-0.82683-1.556-1.0742-2.793-0.23438-1.237-0.41667-2.7604-0.54688-4.5703-0.0781-1.4713-0.16276-2.9818-0.2539-4.5312-0.0781-1.5495-0.18881-2.7213-0.33203-3.5156-0.13021-0.80727-0.31251-1.4648-0.54688-1.9727-0.28646-0.62497-0.68359-1.1718-1.1914-1.6406l2.4024-3.7891c0.50781 1.5625 0.86588 3.431 1.0742 5.6055 0.1302 1.3542 0.26041 4.5573 0.39062 9.6094 0.23437 2.3177 0.57291 3.8021 1.0156 4.4531 0.36458 0.54689 0.76171 0.82032 1.1914 0.82032h2.7344v3.3984"/>
   <path id="path3949" style="fill:url(#linearGradient3957)" d="m-157.79 897.6-1.5234 2.8125-3.1641-1.6797 1.4648-2.793 3.2227 1.6602m-4.4922 1.7578-1.4844 2.832-3.1641-1.6406 1.4453-2.832 3.2031 1.6406m6.2109 10.723c-0.00001 1.836-0.29949 3.2162-0.89844 4.1406-0.92448 1.4323-2.6172 2.1484-5.0781 2.1484-0.95053 0-1.7383-0.1888-2.3633-0.56641-0.71615-0.42968-1.0742-1.0417-1.0742-1.8359 0-0.91145 0.22786-1.9661 0.68359-3.1641 0.41667-1.0156 0.83984-2.0378 1.2695-3.0664l-0.29297-0.0781 1.1914-3.3008c2.3568 1.237 3.763 2.0182 4.2188 2.3438 1.5625 1.0938 2.3437 2.2201 2.3438 3.3789m-1.6992 1.5234c-0.00001-0.49478-0.71615-1.1523-2.1484-1.9726-0.61198-0.35155-1.2695-0.69661-1.9726-1.0352-0.58594 0.63803-0.93751 1.0352-1.0547 1.1914-0.36459 0.50782-0.54688 0.98959-0.54687 1.4453-0.00001 0.66407 0.18228 1.1849 0.54687 1.5625 0.3776 0.36459 0.8789 0.54688 1.5039 0.54687 0.72916 0.00001 1.5234-0.20181 2.3828-0.60547 0.85937-0.41665 1.289-0.79426 1.2891-1.1328"/>
  </g>
  <g id="g3967" style="filter:url(#filter4005);fill:url(#linearGradient3957)" transform="matrix(1.0738 0 0 1.0718 197.24 30.704)">
   <path id="path3969" d="m-113.98 897.66-1.5039 2.832-3.1445-1.6406 1.4648-2.8516 3.1836 1.6602m2.9297 18.184c-0.00002 1.4323-0.612 2.9167-1.8359 4.4531-1.0677 1.3542-2.3958 2.5195-3.9844 3.4961-1.5104 0.9375-2.7539 1.4062-3.7305 1.4062-0.89845 0-1.8685-0.13021-2.9102-0.39062-0.79427-0.19532-1.7448-0.50131-2.8516-0.91797-0.9375-0.35157-1.8685-0.70313-2.793-1.0547l0.33203-0.78125c0.85938 0.16927 1.7513 0.33854 2.6758 0.50781 0.93749 0.18229 1.7838 0.27344 2.5391 0.27344 1.6667 0 3.4049-0.53385 5.2148-1.6016 1.6406-0.97656 3.0404-2.207 4.1992-3.6914 1.1588-1.4974 1.7383-2.845 1.7383-4.043-0.00002-1.0286-0.29949-2.1094-0.89844-3.2422-0.48178-0.91145-1.1589-1.849-2.0312-2.8125l1.1133-3.0664c1.0677 0.9896 1.8554 1.9792 2.3633 2.9688 0.57289 1.1198 0.85935 2.3698 0.85937 3.75v4.7461" style="fill:url(#linearGradient3957)"/>
   <path id="path3971" d="m-130.62 915.85h-17.129v-3.3984h14.863c-0.91147-1.3802-1.9531-2.5781-3.125-3.5938-1.1719-1.0286-2.7539-2.1354-4.7461-3.3203l-0.64453 0.60547-2.3047-1.7578c-0.80729-0.67707-1.2109-1.2044-1.2109-1.582 0-2.2396 0.54688-3.9974 1.6406-5.2734 1.0156-1.1718 2.7669-2.2265 5.2539-3.1641l5.5078-2.1484v3.3789l-4.082 1.3672c-1.6276 0.53388-2.9427 1.0222-3.9453 1.4648-1.276 0.55992-1.9141 0.9896-1.9141 1.2891s0.41666 0.76174 1.25 1.3867c0.52083 0.39064 1.0482 0.78127 1.582 1.1719 1.9792 1.4974 3.7044 3.0664 5.1758 4.707 1.5885 1.7578 2.8646 3.5807 3.8281 5.4688v3.3984" style="fill:url(#linearGradient3957)"/>
   <path id="path3973" d="m-146.42 915.85h-2.7344c-0.88542 0.00001-1.595-0.35806-2.1289-1.0742-0.46876-0.62499-0.82683-1.556-1.0742-2.793-0.23438-1.237-0.41667-2.7604-0.54688-4.5703-0.0781-1.4713-0.16276-2.9818-0.2539-4.5312-0.0781-1.5495-0.18881-2.7213-0.33203-3.5156-0.13021-0.80727-0.31251-1.4648-0.54688-1.9727-0.28646-0.62497-0.68359-1.1718-1.1914-1.6406l2.4024-3.7891c0.50781 1.5625 0.86588 3.431 1.0742 5.6055 0.1302 1.3542 0.26041 4.5573 0.39062 9.6094 0.23437 2.3177 0.57291 3.8021 1.0156 4.4531 0.36458 0.54689 0.76171 0.82032 1.1914 0.82032h2.7344v3.3984" style="fill:url(#linearGradient3957)"/>
   <path id="path3975" d="m-157.79 897.6-1.5234 2.8125-3.1641-1.6797 1.4648-2.793 3.2227 1.6602m-4.4922 1.7578-1.4844 2.832-3.1641-1.6406 1.4453-2.832 3.2031 1.6406m6.2109 10.723c-0.00001 1.836-0.29949 3.2162-0.89844 4.1406-0.92448 1.4323-2.6172 2.1484-5.0781 2.1484-0.95053 0-1.7383-0.1888-2.3633-0.56641-0.71615-0.42968-1.0742-1.0417-1.0742-1.8359 0-0.91145 0.22786-1.9661 0.68359-3.1641 0.41667-1.0156 0.83984-2.0378 1.2695-3.0664l-0.29297-0.0781 1.1914-3.3008c2.3568 1.237 3.763 2.0182 4.2188 2.3438 1.5625 1.0938 2.3437 2.2201 2.3438 3.3789m-1.6992 1.5234c-0.00001-0.49478-0.71615-1.1523-2.1484-1.9726-0.61198-0.35155-1.2695-0.69661-1.9726-1.0352-0.58594 0.63803-0.93751 1.0352-1.0547 1.1914-0.36459 0.50782-0.54688 0.98959-0.54687 1.4453-0.00001 0.66407 0.18228 1.1849 0.54687 1.5625 0.3776 0.36459 0.8789 0.54688 1.5039 0.54687 0.72916 0.00001 1.5234-0.20181 2.3828-0.60547 0.85937-0.41665 1.289-0.79426 1.2891-1.1328" style="fill:url(#linearGradient3957)"/>
  </g>
  <rect id="rect3003" style="opacity:.15;fill:#fff" transform="translate(98)" clip-path="url(#clipPath3009)" rx="25" ry="25" height="92" width="92" y="958.36" x="-96"/>
 </g>
</svg>
