<?xml version="1.0" encoding="UTF-8" standalone="no"?>
<!-- Created with Inkscape (http://www.inkscape.org/) -->
<svg id="svg11037" xmlns:rdf="http://www.w3.org/1999/02/22-rdf-syntax-ns#" xmlns="http://www.w3.org/2000/svg" height="96" width="96" version="1.1" xmlns:cc="http://creativecommons.org/ns#" xmlns:xlink="http://www.w3.org/1999/xlink" xmlns:dc="http://purl.org/dc/elements/1.1/">
 <defs id="defs11039">
  <linearGradient id="linearGradient3999" y2="48" gradientUnits="userSpaceOnUse" x2="72" y1="88" x1="72">
   <stop id="stop4163" style="stop-color:#737373" offset="0"/>
   <stop id="stop4165" style="stop-color:#989898" offset="1"/>
  </linearGradient>
  <linearGradient id="linearGradient4143" y2="8" gradientUnits="userSpaceOnUse" x2="64" y1="64" x1="64">
   <stop id="stop48" style="stop-color:#d8d8d8" offset="0"/>
   <stop id="stop50" style="stop-color:#f9f9f9" offset="1"/>
  </linearGradient>
  <linearGradient id="linearGradient4159" y2="48" gradientUnits="userSpaceOnUse" x2="24" y1="88" x1="24">
   <stop id="stop3702" style="stop-color:#b5b5b5" offset="0"/>
   <stop id="stop3704" style="stop-color:#dedede" offset="1"/>
  </linearGradient>
  <linearGradient id="linearGradient4007" y2="8" gradientUnits="userSpaceOnUse" x2="24" y1="64" x1="24">
   <stop id="stop3327" style="stop-color:#f06805" offset="0"/>
   <stop id="stop3329" style="stop-color:#ffb03c" offset="1"/>
  </linearGradient>
  <clipPath id="clipPath3060" clipPathUnits="userSpaceOnUse">
   <rect id="rect3062" style="fill:url(#linearGradient3064)" rx="22.826" ry="22.826" height="84" width="84" y="6" x="6"/>
  </clipPath>
  <linearGradient id="linearGradient3064" y2="1046.1" gradientUnits="userSpaceOnUse" x2="48" gradientTransform="matrix(1.05 0 0 1.05 -2.4 -1006.6)" y1="962.62" x1="48">
   <stop id="stop3797" style="stop-color:#13a6fd" offset="0"/>
   <stop id="stop3799" style="stop-color:#2975b6" offset="1"/>
  </linearGradient>
  <clipPath id="clipPath3009" clipPathUnits="userSpaceOnUse">
   <path id="path3011" style="opacity:.15;fill:#fff" d="m-2 956.36h-96v33.562l96 25.687v-59.25z"/>
  </clipPath>
 </defs>
 <metadata id="metadata11042">
  <rdf:RDF>
   <cc:Work rdf:about="">
    <dc:format>image/svg+xml</dc:format>
    <dc:type rdf:resource="http://purl.org/dc/dcmitype/StillImage"/>
    <dc:title/>
   </cc:Work>
  </rdf:RDF>
 </metadata>
 <g id="layer1" transform="translate(0 -956.36)">
  <g id="g3058" clip-path="url(#clipPath3060)" transform="matrix(1.0952 0 0 1.0952 -4.5714 951.79)">
   <rect id="rect2419" style="fill:#323232" rx="6" ry="6" height="84" width="84" y="6" x="6"/>
   <path id="path4111" d="m49.531 49.531v4.2812 3.1875 9.5312c-0.0036 0.19833-0.1308 0.38918-0.3125 0.46875-1.1043 0.55215-2.8403 0.43068-5.2812-1.375-0.35901-0.1895-0.85305-0.4818-1.375-0.71875s-1.066-0.40102-1.375-0.40625c-1.2867 0-2.4743 0.75019-3.375 2.0625-0.90072 1.3123-1.4688 3.1615-1.4688 5.2188s0.56863 3.9146 1.4688 5.2188c0.88538 1.2828 2.0484 2.0073 3.3125 2.0312 0.02105 0.000399 0.0414 0 0.0625 0 0.94925-0.1261 2.3515-0.80388 2.6875-1.0625 2.4847-1.8635 4.2363-1.96 5.3438-1.4062 0.1817 0.07957 0.30894 0.27042 0.3125 0.46875v12.968h34.469c3.324 0 6-2.676 6-6v-34.469h-17.781c-0.23229 0.73497-0.15399 1.9301 1.375 3.9688 0.47058 0.61134 1.1989 1.9643 1.3438 3.25 0.0012 0.02081 0.0012 0.04169 0 0.0625 0 1.6956-1.0143 3.2088-2.5312 4.25-1.517 1.0412-3.562 1.6562-5.8125 1.6562s-4.303-0.61445-5.8125-1.6562-2.5-2.5562-2.5-4.25c0.01027-0.60633 0.26979-1.2366 0.53125-1.8125 0.26146-0.57593 0.54238-1.1034 0.71875-1.4375 0.01902-0.02255 0.03995-0.04348 0.0625-0.0625 1.529-2.0387 1.6073-3.2338 1.375-3.9688h-4.9688-3.1875z" style="color:#000000;fill:url(#linearGradient3999)"/>
   <path id="path4113" d="m49.406 6v15.844c0.76355 0.28246 2.0183 0.22843 4.1562-1.375 0.58554-0.45072 1.9677-1.1403 3.2188-1.2812 0.01041-0.00039 0.02084-0.00039 0.03125 0 1.6547 0 3.1291 0.97223 4.1562 2.4688 1.0271 1.4965 1.625 3.5188 1.625 5.75s-0.59737 4.2611-1.625 5.75-2.503 2.4375-4.1562 2.4375c-0.5766-0.0098-1.1795-0.24099-1.75-0.5-0.57053-0.25901-1.1009-0.54107-1.4375-0.71875-0.02166-0.0086-0.04259-0.01911-0.0625-0.03125-2.1379-1.6034-3.3927-1.6575-4.1562-1.375v7.0312 3.1875 5.4062h3.4062 3.1875 5.375c0.15215-0.0028 0.30257 0.08491 0.375 0.21875 0.53183 1.0637 0.42872 2.7557-1.375 5.1875-0.0083 0.01577-0.02255 0.04613-0.03125 0.0625-0.18791 0.35351-0.45869 0.83973-0.6875 1.3438-0.2394 0.52735-0.43176 1.0675-0.4375 1.4062 0 1.3276 0.79222 2.554 2.125 3.4688 1.3328 0.91477 3.2046 1.5 5.2812 1.5s3.9565-0.58571 5.2812-1.5c1.3143-0.9071 2.0818-2.1206 2.0938-3.4375-0.000971-0.0086 0.0011-0.02256 0-0.03125-0.11994-0.98112-0.84254-2.3831-1.125-2.75-1.8508-2.4677-1.908-4.184-1.375-5.25 0.07243-0.13384 0.22285-0.22158 0.375-0.21875h18.125v-36.594c0-3.324-2.676-6-6-6z" style="color:#000000;fill:url(#linearGradient4143)"/>
   <path id="path4109" d="m6 49.531v34.469c0 3.324 2.676 6 6 6h36.469v-12.562c-0.73497-0.23229-1.9301-0.15399-3.9688 1.375-0.62256 0.47921-1.9739 1.1688-3.25 1.3125-0.02081 0.0012-0.04169 0.0012-0.0625 0-1.6938 0-3.2082-0.99053-4.25-2.5s-1.6562-3.562-1.6562-5.8125 0.61505-4.2955 1.6562-5.8125 2.5544-2.5312 4.25-2.5312c0.606 0.01 1.236 0.27 1.812 0.531 0.57593 0.26146 1.1034 0.54238 1.4375 0.71875 0.02255 0.01902 0.04348 0.03995 0.0625 0.0625 2.0407 1.5305 3.2385 1.6309 3.9688 1.4062v-9.1875-3.1875-4.2812h-4.2812-3.1875-14.781c-0.23229 0.73497-0.15399 1.9301 1.375 3.9688 0.47058 0.61134 1.1989 1.9643 1.3438 3.25 0.0012 0.02081 0.0012 0.04169 0 0.0625 0 1.6956-1.0143 3.2088-2.5312 4.25-1.517 1.0412-3.562 1.6562-5.8125 1.6562s-4.303-0.61445-5.8125-1.6562-2.5-2.5562-2.5-4.25c0.01027-0.60633 0.26979-1.2366 0.53125-1.8125 0.26146-0.57593 0.54238-1.1034 0.71875-1.4375 0.01902-0.02255 0.03995-0.04348 0.0625-0.0625 1.529-2.0387 1.6073-3.2338 1.375-3.9688z" style="color:#000000;fill:url(#linearGradient4159)"/>
   <path id="path4115" d="m12 6c-3.324 0-6 2.676-6 6v36.594h9.375c0.15215-0.0028 0.30257 0.08491 0.375 0.21875 0.53183 1.0637 0.42872 2.7557-1.375 5.1875-0.0083 0.01577-0.02255 0.04613-0.03125 0.0625-0.18791 0.35351-0.45869 0.83973-0.6875 1.3438-0.2394 0.52735-0.43176 1.0675-0.4375 1.4062 0 1.3276 0.79222 2.554 2.125 3.4688 1.3328 0.91477 3.2046 1.5 5.2812 1.5s3.9565-0.58571 5.2812-1.5c1.3143-0.9071 2.0818-2.1206 2.0938-3.4375-0.000971-0.0086 0.0011-0.02256 0-0.03125-0.11994-0.98112-0.84254-2.3831-1.125-2.75-1.8508-2.4677-1.908-4.184-1.375-5.25 0.07243-0.13384 0.22285-0.22158 0.375-0.21875h14.125 4.1875 4.4062v-5.4062-3.1875-7.3125c-0.0028-0.15215 0.08491-0.30257 0.21875-0.375 1.0568-0.5284 2.7538-0.46072 5.1875 1.3438 0.02114 0.01567 0.04125 0.01531 0.0625 0.03125 0.35734 0.19056 0.83932 0.48258 1.3438 0.71875 0.52755 0.247 1.0723 0.43184 1.4062 0.4375 1.3276 0 2.554-0.79222 3.4688-2.125 0.91477-1.3328 1.5-3.2046 1.5-5.2812s-0.58571-3.9565-1.5-5.2812c-0.9071-1.3143-2.1206-2.0818-3.4375-2.0938-0.01043-0.000095-0.0208 0-0.03125 0-0.98112 0.11994-2.3831 0.84255-2.75 1.125-2.4677 1.8508-4.184 1.908-5.25 1.375-0.13384-0.07243-0.22158-0.22285-0.21875-0.375v-16.188z" style="color:#000000;fill:url(#linearGradient4007)"/>
   <path id="path4237" d="m44 17.406c-0.00002 0.13452-0.03568 0.25807-0.10681 0.37059-0.07135 0.11256-0.14952 0.16884-0.23468 0.16882-0.70294 0.07896-1.2775 0.34606-1.7236 0.80137-0.44624 0.45536-0.90662 1.324-1.3812 2.6059l-7.264 19.377c-0.047 0.18-0.18 0.27-0.399 0.27-0.171 0-0.303-0.09-0.398-0.27l-4.073-10.086-4.686 10.086c-0.094 0.18-0.227 0.27-0.398 0.27-0.209 0-0.347-0.09-0.413-0.27l-7.135-19.378c-0.4462-1.2037-0.91614-2.0443-1.4099-2.522-0.49372-0.47761-1.1821-0.77269-2.0652-0.88526-0.07589 0.000013-0.14706-0.04787-0.21338-0.1436-0.067-0.095-0.1-0.205-0.1-0.329 0-0.31496 0.07589-0.47246 0.22773-0.47248 0.63625 0.000025 1.3009 0.03401 1.994 0.10189 0.64553 0.06724 1.2531 0.10088 1.8227 0.10088 0.5789 0.000012 1.2624-0.03364 2.0505-0.10088 0.82632-0.06789 1.5573-0.10191 2.193-0.10191 0.15236 0.000025 0.2286 0.15752 0.2286 0.47248 0 0.31501-0.04761 0.4725-0.1425 0.47249-0.63627 0.05636-1.1372 0.24741-1.5029 0.57336-0.36566 0.326-0.54848 0.75319-0.54846 1.2816-0.00002 0.26972 0.07628 0.60701 0.22859 1.0119l5.8958 15.769 3.3465-7.4877-3.1187-7.7409c-0.56035-1.3835-1.0209-2.2747-1.3816-2.6738-0.36073-0.39904-0.90675-0.64352-1.638-0.73343-0.06604 0.000012-0.12997-0.04787-0.19166-0.1436-0.06165-0.09576-0.0926-0.20532-0.0926-0.32889 0-0.31496 0.0664-0.47246 0.19904-0.47248 0.63625 0.000025 1.2201 0.03401 1.7515 0.10189 0.51282 0.06724 1.0587 0.10088 1.6376 0.10088 0.56959 0.000012 1.1725-0.03364 1.8088-0.10088 0.65538-0.06789 1.3009-0.10191 1.9366-0.10191 0.15236 0.000025 0.22859 0.15752 0.2286 0.47248-0.000018 0.31501-0.04744 0.4725-0.1425 0.47249-1.2725 0.10088-1.9088 0.52808-1.9088 1.2816-0.00002 0.33766 0.14724 0.86058 0.44155 1.5688l2.0653 4.9585 2.0505-4.5375c0.28509-0.64026 0.42763-1.1796 0.42764-1.6182-0.000016-1.0348-0.63627-1.5859-1.9088-1.6532-0.11365 0.000011-0.1704-0.15748-0.1704-0.47249-0.000018-0.11256 0.02828-0.2194 0.0852-0.32065 0.05675-0.10113 0.11384-0.1518 0.17116-0.15182 0.45544 0.000025 1.0155 0.03401 1.6802 0.10189 0.63625 0.06725 1.1584 0.10088 1.5663 0.10088 0.29435 0.000013 0.72636-0.02809 1.296-0.08444 0.72143-0.07896 1.3244-0.11833 1.8088-0.11833 0.11345 0.000025 0.17038 0.1352 0.17038 0.40556-0.000036 0.35963-0.10436 0.53942-0.31292 0.53941-0.74059 0.08985-1.3363 0.33165-1.7871 0.72519-0.45085 0.39359-1.0135 1.2876-1.688 2.6821l-2.7337 5.9869 3.702 8.9381 5.4691-15.061c0.19004-0.55035 0.28507-1.0561 0.28511-1.5173-0.00004-1.1021-0.63629-1.6868-1.9088-1.7541-0.11421 0.000013-0.17134-0.15748-0.17114-0.47249-0.000019-0.31496 0.08539-0.47246 0.25642-0.47248 0.46529 0.000025 1.0161 0.03401 1.6524 0.10189 0.58872 0.06724 1.0824 0.10088 1.4811 0.10088 0.41778 0.000013 0.90191-0.03363 1.4525-0.10088 0.56959-0.06788 1.0821-0.10189 1.5376-0.10189 0.1332 0.000025 0.19988 0.1352 0.19992 0.40556z" style="opacity:.3;fill:#fff"/>
   <path id="text2810" d="m44 16.406c-0.00002 0.13452-0.03568 0.25807-0.10681 0.37059-0.07135 0.11256-0.14952 0.16884-0.23468 0.16882-0.70294 0.07896-1.2775 0.34606-1.7236 0.80137-0.44624 0.45536-0.90662 1.324-1.3812 2.6059l-7.264 19.377c-0.047 0.18-0.18 0.27-0.399 0.27-0.171 0-0.303-0.09-0.398-0.27l-4.073-10.086-4.686 10.086c-0.094 0.18-0.227 0.27-0.398 0.27-0.209 0-0.347-0.09-0.413-0.27l-7.135-19.378c-0.4462-1.2037-0.91614-2.0443-1.4099-2.522-0.49372-0.47761-1.1821-0.77269-2.0652-0.88526-0.07589 0.000013-0.14706-0.04787-0.21338-0.1436-0.067-0.095-0.1-0.205-0.1-0.329 0-0.31496 0.07589-0.47246 0.22773-0.47248 0.63625 0.000025 1.3009 0.03401 1.994 0.10189 0.64553 0.06724 1.2531 0.10088 1.8227 0.10088 0.5789 0.000012 1.2624-0.03364 2.0505-0.10088 0.82632-0.06789 1.5573-0.10191 2.193-0.10191 0.15236 0.000025 0.2286 0.15752 0.2286 0.47248 0 0.31501-0.04761 0.4725-0.1425 0.47249-0.63627 0.05636-1.1372 0.24741-1.5029 0.57336-0.36566 0.326-0.54848 0.75319-0.54846 1.2816-0.00002 0.26972 0.07628 0.60701 0.22859 1.0119l5.8958 15.769 3.3465-7.4877-3.1187-7.7409c-0.56035-1.3835-1.0209-2.2747-1.3816-2.6738-0.36073-0.39904-0.90675-0.64352-1.638-0.73343-0.06604 0.000012-0.12997-0.04787-0.19166-0.1436-0.06165-0.09576-0.0926-0.20532-0.0926-0.32889 0-0.31496 0.0664-0.47246 0.19904-0.47248 0.63625 0.000025 1.2201 0.03401 1.7515 0.10189 0.51282 0.06724 1.0587 0.10088 1.6376 0.10088 0.56959 0.000012 1.1725-0.03364 1.8088-0.10088 0.65538-0.06789 1.3009-0.10191 1.9366-0.10191 0.15236 0.000025 0.22859 0.15752 0.2286 0.47248-0.000018 0.31501-0.04744 0.4725-0.1425 0.47249-1.2725 0.10088-1.9088 0.52808-1.9088 1.2816-0.00002 0.33766 0.14724 0.86058 0.44155 1.5688l2.0653 4.9585 2.0505-4.5375c0.28509-0.64026 0.42763-1.1796 0.42764-1.6182-0.000016-1.0348-0.63627-1.5859-1.9088-1.6532-0.11365 0.000011-0.1704-0.15748-0.1704-0.47249-0.000018-0.11256 0.02828-0.2194 0.0852-0.32065 0.05675-0.10113 0.11384-0.1518 0.17116-0.15182 0.45544 0.000025 1.0155 0.03401 1.6802 0.10189 0.63625 0.06725 1.1584 0.10088 1.5663 0.10088 0.29435 0.000013 0.72636-0.02809 1.296-0.08444 0.72143-0.07896 1.3244-0.11833 1.8088-0.11833 0.11345 0.000025 0.17038 0.1352 0.17038 0.40556-0.000036 0.35963-0.10436 0.53942-0.31292 0.53941-0.74059 0.08985-1.3363 0.33165-1.7871 0.72519-0.45085 0.39359-1.0135 1.2876-1.688 2.6821l-2.7337 5.9869 3.702 8.9381 5.4691-15.061c0.19004-0.55035 0.28507-1.0561 0.28511-1.5173-0.00004-1.1021-0.63629-1.6868-1.9088-1.7541-0.11421 0.000013-0.17134-0.15748-0.17114-0.47249-0.000019-0.31496 0.08539-0.47246 0.25642-0.47248 0.46529 0.000025 1.0161 0.03401 1.6524 0.10189 0.58872 0.06724 1.0824 0.10088 1.4811 0.10088 0.41778 0.000013 0.90191-0.03363 1.4525-0.10088 0.56959-0.06788 1.0821-0.10189 1.5376-0.10189 0.1332 0.000025 0.19988 0.1352 0.19992 0.40556z" style="fill:#803300"/>
   <path id="path3927" d="m56.812 20.062c-0.98112 0.11994-2.3831 0.84255-2.75 1.125-2.4677 1.8508-4.184 1.908-5.25 1.375-0.13384-0.07243-0.22158-0.22285-0.21875-0.375v1c-0.0028 0.15215 0.08491 0.30257 0.21875 0.375 1.066 0.53299 2.7823 0.4758 5.25-1.375 0.36695-0.28245 1.7689-1.0051 2.75-1.125 0.01045 0 0.02082-0.000095 0.03125 0 1.3169 0.012 2.5304 0.77944 3.4375 2.0938 0.84108 1.2187 1.384 2.902 1.4688 4.7812 0.0074-0.16348 0.03125-0.33372 0.03125-0.5 0-2.0766-0.58571-3.9565-1.5-5.2812-0.9071-1.3143-2.1206-2.0818-3.4375-2.0938-0.01043-0.000095-0.0208 0-0.03125 0zm-40.843 30.563c-0.135 0.914-0.591 2.023-1.594 3.375-0.0083 0.01577-0.02255 0.04613-0.03125 0.0625-0.18791 0.35351-0.45869 0.83973-0.6875 1.3438-0.2394 0.52735-0.43176 1.0675-0.4375 1.4062 0 0.22035 0.02 0.44244 0.0625 0.65625 0.07081-0.31437 0.2012-0.67966 0.375-1.0625 0.22881-0.50402 0.49959-0.99024 0.6875-1.3438 0.0087-0.01637 0.02295-0.04673 0.03125-0.0625 1.399-1.8862 1.7437-3.3269 1.5938-4.375zm9.2812 0c-0.16969 1.0589 0.17906 2.5096 1.625 4.4375 0.25447 0.33059 0.85607 1.4913 1.0625 2.4375 0.04266-0.21195 0.06051-0.43768 0.0625-0.65625-0.000971-0.0086 0.0011-0.02256 0-0.03125-0.11994-0.98112-0.84254-2.3831-1.125-2.75-1.0296-1.3728-1.4984-2.5124-1.625-3.4375z" style="opacity:.4;color:#000000;fill:#fff"/>
   <path id="path3946" d="m6 49.531v1h8.9688c0.01452 0.04594 0.01944 0.10663 0.03125 0.15625 0.08661-0.4802 0.06367-0.8559-0.03125-1.1562h-8.9688zm20.219 0c-0.09492 0.30035-0.11786 0.67605-0.03125 1.1562 0.01181-0.04962 0.01673-0.11032 0.03125-0.15625h14.781 3.1875 4.2812v-1h-4.2812-3.1875-14.781zm-13.907 7.969c-0.0143 0.10157-0.02955 0.21189-0.03125 0.3125 0 1.6938 0.99053 3.2082 2.5 4.25s3.562 1.6562 5.8125 1.6562 4.2955-0.61505 5.8125-1.6562 2.5312-2.5544 2.5312-4.25c0.0012-0.02081 0.0012-0.04169 0-0.0625-0.0083-0.07351-0.05056-0.14495-0.0625-0.21875-0.2424 1.3992-1.1718 2.6411-2.4688 3.5312-1.517 1.0412-3.562 1.6562-5.8125 1.6562s-4.303-0.61445-5.8125-1.6562c-1.301-0.898-2.241-2.148-2.468-3.562zm23 14.812c-0.0067 0.16447-0.03125 0.33314-0.03125 0.5 0 2.2505 0.61445 4.303 1.6562 5.8125s2.5562 2.5 4.25 2.5c0.02081 0.0012 0.04169 0.0012 0.0625 0 1.2761-0.14372 2.6274-0.83329 3.25-1.3125 2.0387-1.529 3.2338-1.6073 3.9688-1.375v-1c-0.73497-0.23229-1.9301-0.15399-3.9688 1.375-0.62256 0.47921-1.9739 1.1688-3.25 1.3125-0.02081 0.0012-0.04169 0.0012-0.0625 0-1.6938 0-3.2082-0.99053-4.25-2.5-0.96455-1.3976-1.5416-3.2578-1.625-5.3125z" style="opacity:.7;color:#000000;fill:#fff"/>
   <path id="path3955" d="m62.562 27.906c-0.08399 2.0289-0.64524 3.8757-1.5938 5.25-1.0276 1.4889-2.503 2.4375-4.1562 2.4375-0.5766-0.0098-1.1795-0.24099-1.75-0.5-0.57053-0.25901-1.1009-0.54107-1.4375-0.71875-0.02166-0.0086-0.04259-0.01911-0.0625-0.03125-2.1379-1.6034-3.3927-1.6575-4.1562-1.375v1c0.76355-0.28246 2.0183-0.22843 4.1562 1.375 0.01991 0.01214 0.04084 0.02265 0.0625 0.03125 0.33663 0.17768 0.86697 0.45974 1.4375 0.71875s1.1734 0.4902 1.75 0.5c1.6533 0 3.1286-0.94855 4.1562-2.4375 1.0276-1.4889 1.625-3.5188 1.625-5.75 0-0.17179-0.02424-0.33083-0.03125-0.5zm-0.593 22.719c-0.135 0.914-0.591 2.023-1.594 3.375-0.0083 0.01577-0.02255 0.04613-0.03125 0.0625-0.18791 0.35351-0.45869 0.83973-0.6875 1.3438-0.2394 0.52735-0.43176 1.0675-0.4375 1.4062 0 0.22035 0.02 0.44244 0.0625 0.65625 0.07081-0.31437 0.2012-0.67966 0.375-1.0625 0.22881-0.50402 0.49959-0.99024 0.6875-1.3438 0.0087-0.01637 0.02295-0.04673 0.03125-0.0625 1.399-1.8862 1.7437-3.3269 1.5938-4.375zm9.2812 0c-0.16969 1.0589 0.17906 2.5096 1.625 4.4375 0.25447 0.33059 0.85607 1.4913 1.0625 2.4375 0.04266-0.21195 0.06051-0.43768 0.0625-0.65625-0.000971-0.0086 0.0011-0.02256 0-0.03125-0.11994-0.98112-0.84254-2.3831-1.125-2.75-1.0296-1.3728-1.4984-2.5124-1.625-3.4375z" style="color:#000000;fill:#fff"/>
   <path id="path3965" d="m49.531 49.531v1h3.2812 3.1875 4.9688c0.01452 0.04594 0.01944 0.10663 0.03125 0.15625 0.08661-0.4802 0.06368-0.8559-0.03125-1.1562h-4.9688-3.1875-3.2812zm22.688 0c-0.09493 0.30035-0.11786 0.67605-0.03125 1.1562 0.01181-0.04962 0.01673-0.11032 0.03125-0.15625h17.781v-1h-17.781zm-13.907 7.969c-0.0143 0.10157-0.02955 0.21189-0.03125 0.3125 0 1.6938 0.99053 3.2082 2.5 4.25s3.562 1.6562 5.8125 1.6562 4.2955-0.61505 5.8125-1.6562 2.5312-2.5544 2.5312-4.25c0.0012-0.02081 0.0012-0.04169 0-0.0625-0.0083-0.07351-0.05056-0.14495-0.0625-0.21875-0.2424 1.3992-1.1718 2.6411-2.4688 3.5312-1.517 1.0412-3.562 1.6562-5.8125 1.6562s-4.303-0.61445-5.8125-1.6562c-1.301-0.898-2.241-2.148-2.468-3.562zm-17.125 7c-1.2867 0-2.4743 0.75019-3.375 2.0625-0.90072 1.3123-1.4688 3.1615-1.4688 5.2188 0 0.17159 0.02348 0.3314 0.03125 0.5 0.08535-1.8518 0.61191-3.5159 1.4375-4.7188 0.90072-1.3123 2.0883-2.0625 3.375-2.0625 0.30898 0.0052 0.85305 0.1693 1.375 0.40625s1.016 0.52925 1.375 0.71875c2.4409 1.8057 4.177 1.9272 5.2812 1.375 0.1817-0.07957 0.3089-0.27042 0.3125-0.46875v-1c-0.003 0.199-0.131 0.389-0.312 0.469-1.105 0.552-2.841 0.431-5.281-1.375-0.36-0.189-0.854-0.482-1.376-0.719-0.521-0.237-1.066-0.401-1.374-0.406z" style="opacity:.3;color:#000000;fill:#fff"/>
  </g>
  <rect id="rect3003" style="opacity:.15;fill:#fff" transform="translate(98 3.8281e-7)" clip-path="url(#clipPath3009)" rx="25" ry="25" height="92" width="92" y="958.36" x="-96"/>
 </g>
</svg>
