<?xml version="1.0" encoding="UTF-8" standalone="no"?>
<!-- Created with Inkscape (http://www.inkscape.org/) -->

<svg
   xmlns:dc="http://purl.org/dc/elements/1.1/"
   xmlns:cc="http://creativecommons.org/ns#"
   xmlns:rdf="http://www.w3.org/1999/02/22-rdf-syntax-ns#"
   xmlns:svg="http://www.w3.org/2000/svg"
   xmlns="http://www.w3.org/2000/svg"
   xmlns:xlink="http://www.w3.org/1999/xlink"
   xmlns:sodipodi="http://sodipodi.sourceforge.net/DTD/sodipodi-0.dtd"
   xmlns:inkscape="http://www.inkscape.org/namespaces/inkscape"
   width="96"
   height="96"
   id="svg4267">
  <defs
     id="defs4269">
    <linearGradient
       inkscape:collect="always"
       id="linearGradient3844">
      <stop
         style="stop-color:#ef2929;stop-opacity:1;"
         offset="0"
         id="stop3846" />
      <stop
         style="stop-color:#ef2929;stop-opacity:0;"
         offset="1"
         id="stop3848" />
    </linearGradient>
    <linearGradient
       inkscape:collect="always"
       id="linearGradient3800">
      <stop
         style="stop-color:#eeeeec;stop-opacity:1;"
         offset="0"
         id="stop3802" />
      <stop
         style="stop-color:#eeeeec;stop-opacity:0;"
         offset="1"
         id="stop3804" />
    </linearGradient>
    <linearGradient
       inkscape:collect="always"
       xlink:href="#linearGradient3800"
       id="linearGradient3070"
       gradientUnits="userSpaceOnUse"
       gradientTransform="matrix(0,1,-1,0,1053.0227,957.01008)"
       x1="15.402001"
       y1="1005.0164"
       x2="80.610611"
       y2="1005.0164" />
    <linearGradient
       inkscape:collect="always"
       xlink:href="#linearGradient3844"
       id="linearGradient3858"
       gradientUnits="userSpaceOnUse"
       gradientTransform="matrix(0,1,-1,0,1136.7871,1014.3771)"
       x1="49.205006"
       y1="1075.5821"
       x2="73.205006"
       y2="1075.5821" />
  </defs>
  <sodipodi:namedview
     id="base"
     pagecolor="#ffffff"
     bordercolor="#666666"
     borderopacity="1.0"
     inkscape:pageopacity="0.0"
     inkscape:pageshadow="2"
     inkscape:zoom="2.5208333"
     inkscape:cx="48"
     inkscape:cy="48"
     inkscape:document-units="px"
     inkscape:current-layer="layer1"
     showgrid="false"
     showguides="true"
     inkscape:guide-bbox="true"
     inkscape:window-width="678"
     inkscape:window-height="434"
     inkscape:window-x="65"
     inkscape:window-y="47"
     inkscape:window-maximized="0">
    <inkscape:grid
       type="xygrid"
       id="grid5403"
       empspacing="5"
       visible="true"
       enabled="true"
       snapvisiblegridlinesonly="true" />
  </sodipodi:namedview>
  <metadata
     id="metadata4272">
    <rdf:RDF>
      <cc:Work
         rdf:about="">
        <dc:format>image/svg+xml</dc:format>
        <dc:type
           rdf:resource="http://purl.org/dc/dcmitype/StillImage" />
        <dc:title></dc:title>
      </cc:Work>
    </rdf:RDF>
  </metadata>
  <g
     inkscape:label="Layer 1"
     inkscape:groupmode="layer"
     id="layer1"
     transform="translate(0,-956.36218)">
    <path
       inkscape:connector-curvature="0"
       style="fill:#bfbfbf;fill-opacity:1;stroke:none"
       d="m 26.78125,984.39343 0,6.28125 -15.03125,5.65625 0,17.40627 15.03125,5.6875 0,6.2187 9.5,0 0,-41.24997 -9.5,0 z"
       id="path2998" />
    <path
       inkscape:connector-curvature="0"
       style="fill:url(#linearGradient3070);fill-opacity:1;stroke:none"
       d="m 26.767394,984.39585 0,6.27276 -15.0265,5.66421 0,17.41398 15.0265,5.6642 0,6.2259 9.5028,0 0,-41.24105 z"
       id="path3798"
       sodipodi:nodetypes="ccccccccc" />
    <g
       id="g3852"
       transform="translate(0,-70.551939)">
      <path
         inkscape:connector-curvature="0"
         d="m 55.048756,1061.6134 c 7.23e-4,-10e-5 -0.09447,0.031 -0.09375,0.031 7.18e-4,-10e-5 -0.09446,2e-4 -0.09375,0 7.11e-4,-2e-4 -0.09445,0.031 -0.09375,0.031 0.001,-3e-4 -0.126005,0.032 -0.125,0.031 0.001,-3e-4 -0.125978,0.063 -0.125,0.063 9.78e-4,-4e-4 -0.157196,0.063 -0.15625,0.063 9.46e-4,-5e-4 -0.125908,0.063 -0.125,0.063 9.08e-4,-5e-4 -0.09462,0.094 -0.09375,0.094 8.66e-4,-7e-4 -0.12582,0.063 -0.125,0.063 8.2e-4,-7e-4 -0.09452,0.094 -0.09375,0.094 5.77e-4,-5e-4 -0.06575,0.065 -0.09375,0.094 -0.0093,0.01 -0.03143,0.031 -0.03125,0.031 l -6,6.0625 c 9.53e-4,-10e-4 -0.125853,0.1573 -0.125,0.1563 8.53e-4,0 -0.0945,0.1261 -0.09375,0.125 7.46e-4,0 -0.09438,0.1574 -0.09375,0.1562 6.32e-4,0 -0.09426,0.1888 -0.09375,0.1875 5.13e-4,0 -0.06289,0.1576 -0.0625,0.1563 3.89e-4,0 -0.03151,0.1888 -0.03125,0.1875 2.61e-4,0 -0.03138,0.1888 -0.03125,0.1875 1.31e-4,0 0,0.1888 0,0.1875 0,0 1.31e-4,0.1888 0,0.1875 -1.31e-4,0 0.03151,0.1888 0.03125,0.1875 -2.61e-4,0 0.03164,0.1888 0.03125,0.1875 -3.89e-4,0 0.06301,0.1575 0.0625,0.1562 -5.13e-4,0 0.09438,0.1887 0.09375,0.1875 -6.32e-4,0 0.0945,0.1574 0.09375,0.1563 -7.46e-4,0 0.0946,0.126 0.09375,0.125 -8.53e-4,0 0.125953,0.1572 0.125,0.1562 l 4.5,4.5625 -4.5,4.5625 c 9.53e-4,-10e-4 -0.125853,0.1573 -0.125,0.1563 8.53e-4,0 -0.0945,0.1261 -0.09375,0.125 7.46e-4,0 -0.09438,0.1574 -0.09375,0.1562 6.32e-4,0 -0.09426,0.1888 -0.09375,0.1875 5.13e-4,0 -0.06289,0.1576 -0.0625,0.1563 3.89e-4,0 -0.03151,0.1888 -0.03125,0.1875 2.61e-4,0 -0.03138,0.1888 -0.03125,0.1875 1.31e-4,0 0,0.1888 0,0.1875 0,0 1.31e-4,0.1888 0,0.1875 -1.31e-4,0 0.03151,0.1888 0.03125,0.1875 -2.61e-4,0 0.03164,0.1888 0.03125,0.1875 -3.89e-4,0 0.06301,0.1575 0.0625,0.1562 -5.13e-4,0 0.09438,0.1887 0.09375,0.1875 -6.32e-4,0 0.0945,0.1574 0.09375,0.1563 -7.46e-4,0 0.0946,0.126 0.09375,0.125 -8.53e-4,0 0.125953,0.1572 0.125,0.1562 l 6.03125,6.0938 c -9.87e-4,-10e-4 0.126082,0.1259 0.125,0.125 -0.0011,-10e-4 0.157418,0.1258 0.15625,0.125 -0.0012,-9e-4 0.157492,0.094 0.15625,0.094 -0.0012,-7e-4 0.188805,0.094 0.1875,0.094 -0.0013,-6e-4 0.188854,0.063 0.1875,0.063 -0.0014,-5e-4 0.157641,0.063 0.15625,0.063 -0.0014,-4e-4 0.188915,0.031 0.1875,0.031 -0.0014,-2e-4 0.220175,0 0.21875,0 -0.0014,0 0.188921,-10e-5 0.1875,0 -0.0014,10e-5 0.188904,-0.032 0.1875,-0.031 -0.0014,2e-4 0.188874,-0.032 0.1875,-0.031 -0.0014,4e-4 0.15758,-0.063 0.15625,-0.063 -0.0013,5e-4 0.188773,-0.063 0.1875,-0.063 -0.0013,6e-4 0.157455,-0.095 0.15625,-0.094 -0.0012,7e-4 0.157374,-0.1259 0.15625,-0.125 -0.0011,8e-4 0.157283,-0.126 0.15625,-0.125 l 4.59375,-4.5625 4.40625,4.5 c -5.08e-4,-6e-4 0.06303,0.063 0.0625,0.063 -5.34e-4,-6e-4 0.09431,0.063 0.09375,0.063 -5.59e-4,-5e-4 0.06308,0.063 0.0625,0.063 -5.82e-4,-5e-4 0.09435,0.063 0.09375,0.063 -6.04e-4,-5e-4 0.06312,0.063 0.0625,0.063 -6.24e-4,-4e-4 0.09439,0.063 0.09375,0.063 -6.43e-4,-4e-4 0.09441,0.032 0.09375,0.031 -6.6e-4,-3e-4 0.09443,0.031 0.09375,0.031 -6.75e-4,-3e-4 0.06319,0.032 0.0625,0.031 -6.89e-4,-3e-4 0.09445,0.031 0.09375,0.031 -7e-4,-3e-4 0.09446,0.031 0.09375,0.031 -7.11e-4,-2e-4 0.125719,0.031 0.125,0.031 -7.19e-4,-2e-4 0.09448,0.031 0.09375,0.031 -7.25e-4,-10e-5 0.09448,10e-5 0.09375,0 -7.3e-4,-10e-5 0.09448,0 0.09375,0 -7.33e-4,0 0.09448,0 0.09375,0 -7.34e-4,0 0.09448,0 0.09375,0 -7.33e-4,0 0.09448,-10e-5 0.09375,0 -7.3e-4,10e-5 0.09448,-10e-5 0.09375,0 -7.25e-4,10e-5 0.09447,-0.031 0.09375,-0.031 -7.19e-4,10e-5 0.125711,-0.032 0.125,-0.031 -7.11e-4,2e-4 0.09445,-0.032 0.09375,-0.031 -7e-4,2e-4 0.09444,-0.032 0.09375,-0.031 -6.89e-4,3e-4 0.06318,-0.032 0.0625,-0.031 -6.75e-4,2e-4 0.09441,-0.032 0.09375,-0.031 -6.6e-4,3e-4 0.09439,-0.032 0.09375,-0.031 -6.43e-4,3e-4 0.09437,-0.063 0.09375,-0.063 -6.24e-4,3e-4 0.0631,-0.063 0.0625,-0.063 -6.04e-4,4e-4 0.09433,-0.063 0.09375,-0.063 -5.82e-4,4e-4 0.06306,-0.063 0.0625,-0.063 -5.59e-4,4e-4 0.09428,-0.063 0.09375,-0.063 -5.34e-4,5e-4 0.06301,-0.063 0.0625,-0.063 l 6.21875,-6.2813 c -9.82e-4,10e-4 0.125876,-0.1574 0.125,-0.1562 -8.76e-4,0 0.125762,-0.1575 0.125,-0.1563 -7.62e-4,0 0.09439,-0.1575 0.09375,-0.1562 -6.41e-4,0 0.06301,-0.1889 0.0625,-0.1875 -5.13e-4,0 0.06288,-0.1577 0.0625,-0.1563 -3.81e-4,0 0.0315,-0.1889 0.03125,-0.1875 -2.45e-4,0 0.03136,-0.1889 0.03125,-0.1875 -1.06e-4,0 -3.3e-5,-0.1889 0,-0.1875 3.3e-5,0 -1.72e-4,-0.2202 0,-0.2187 1.72e-4,0 -0.03156,-0.1889 -0.03125,-0.1875 3.1e-4,0 -0.06294,-0.1577 -0.0625,-0.1563 4.44e-4,0 -0.06307,-0.1888 -0.0625,-0.1875 5.74e-4,0 -0.09445,-0.1887 -0.09375,-0.1875 6.99e-4,0 -0.09457,-0.1574 -0.09375,-0.1562 8.17e-4,0 -0.125927,-0.1574 -0.125,-0.1563 9.27e-4,0 -0.126029,-0.126 -0.125,-0.125 l -4.40625,-4.3125 4.40625,-4.3125 c -10e-4,10e-4 0.125927,-0.1261 0.125,-0.125 -9.27e-4,0 0.125817,-0.1574 0.125,-0.1562 -8.17e-4,0 0.09445,-0.1575 0.09375,-0.1563 -6.99e-4,0 0.09432,-0.1888 0.09375,-0.1875 -5.74e-4,0 0.06294,-0.1889 0.0625,-0.1875 -4.44e-4,0 0.06281,-0.1576 0.0625,-0.1562 -3.1e-4,0 0.03142,-0.189 0.03125,-0.1875 -1.72e-4,0 3.3e-5,-0.2202 0,-0.2188 -3.3e-5,0 -1.06e-4,-0.1889 0,-0.1875 1.06e-4,0 -0.0315,-0.1889 -0.03125,-0.1875 2.45e-4,0 -0.03163,-0.1889 -0.03125,-0.1875 3.81e-4,0 -0.06301,-0.1576 -0.0625,-0.1562 5.13e-4,0 -0.06314,-0.1888 -0.0625,-0.1875 6.41e-4,0 -0.09451,-0.1575 -0.09375,-0.1563 7.62e-4,0 -0.125876,-0.1574 -0.125,-0.1562 8.76e-4,0 -0.125982,-0.1573 -0.125,-0.1563 l -6.21875,-6.2812 c 5.08e-4,5e-4 -0.06303,-0.063 -0.0625,-0.063 5.34e-4,5e-4 -0.09431,-0.063 -0.09375,-0.063 5.59e-4,4e-4 -0.06308,-0.063 -0.0625,-0.063 5.82e-4,4e-4 -0.09435,-0.063 -0.09375,-0.063 6.04e-4,4e-4 -0.06312,-0.063 -0.0625,-0.063 6.24e-4,3e-4 -0.09439,-0.063 -0.09375,-0.063 6.43e-4,3e-4 -0.09441,-0.032 -0.09375,-0.031 6.6e-4,3e-4 -0.09443,-0.032 -0.09375,-0.031 6.75e-4,2e-4 -0.06319,-0.032 -0.0625,-0.031 6.89e-4,3e-4 -0.09445,-0.032 -0.09375,-0.031 7e-4,2e-4 -0.09446,-0.032 -0.09375,-0.031 7.11e-4,2e-4 -0.125719,-0.031 -0.125,-0.031 7.19e-4,10e-5 -0.09448,-0.031 -0.09375,-0.031 7.25e-4,10e-5 -0.09448,-10e-5 -0.09375,0 7.3e-4,10e-5 -0.09448,0 -0.09375,0 7.33e-4,0 -0.09448,0 -0.09375,0 7.34e-4,0 -0.09448,0 -0.09375,0 7.33e-4,0 -0.09448,10e-5 -0.09375,0 7.3e-4,-10e-5 -0.09448,10e-5 -0.09375,0 7.25e-4,-10e-5 -0.09447,0.031 -0.09375,0.031 7.19e-4,-2e-4 -0.125711,0.031 -0.125,0.031 7.11e-4,-2e-4 -0.09445,0.031 -0.09375,0.031 7e-4,-3e-4 -0.09444,0.032 -0.09375,0.031 6.89e-4,-3e-4 -0.06318,0.031 -0.0625,0.031 6.75e-4,-3e-4 -0.09441,0.032 -0.09375,0.031 6.6e-4,-3e-4 -0.09439,0.032 -0.09375,0.031 6.43e-4,-4e-4 -0.09437,0.063 -0.09375,0.063 6.24e-4,-4e-4 -0.0631,0.063 -0.0625,0.063 6.04e-4,-5e-4 -0.09433,0.063 -0.09375,0.063 5.82e-4,-5e-4 -0.06306,0.063 -0.0625,0.063 5.59e-4,-5e-4 -0.09428,0.063 -0.09375,0.063 5.34e-4,-6e-4 -0.06301,0.063 -0.0625,0.063 l -4.40625,4.5 -4.5625,-4.5313 c 1.71e-4,2e-4 -0.02075,-0.021 -0.03125,-0.031 -0.021,-0.02 -0.06286,-0.063 -0.0625,-0.063 5.39e-4,4e-4 -0.06306,-0.063 -0.0625,-0.063 5.63e-4,4e-4 -0.06309,-0.063 -0.0625,-0.063 5.85e-4,4e-4 -0.09436,-0.032 -0.09375,-0.031 6.06e-4,4e-4 -0.09438,-0.063 -0.09375,-0.063 6.26e-4,4e-4 -0.06314,-0.063 -0.0625,-0.063 6.44e-4,3e-4 -0.09441,-0.032 -0.09375,-0.031 6.6e-4,3e-4 -0.09443,-0.032 -0.09375,-0.031 6.75e-4,3e-4 -0.09444,-0.032 -0.09375,-0.031 6.88e-4,2e-4 -0.09445,-0.032 -0.09375,-0.031 6.99e-4,2e-4 -0.09446,-0.031 -0.09375,-0.031 7.08e-4,10e-5 -0.09447,-0.031 -0.09375,-0.031 7.16e-4,10e-5 -0.09447,-10e-5 -0.09375,0 7.22e-4,10e-5 -0.09448,-0.031 -0.09375,-0.031 7.26e-4,0 -0.09448,-10e-5 -0.09375,0 7.28e-4,0 -0.09448,0 -0.09375,0 a 0.9965754,0.9965754 0 0 0 -0.0625,0 c 7.26e-4,-10e-5 -0.09447,0 -0.09375,0 z"
         id="path3761"
         style="opacity:0.2;fill:#2e3436;fill-opacity:1;fill-rule:evenodd;stroke:none;display:inline" />
      <path
         inkscape:connector-curvature="0"
         d="m 55.017506,1062.6446 a 0.95278301,0.95278301 0 0 0 -0.46875,0.2813 l -6.03125,6.0937 a 0.95278301,0.95278301 0 0 0 0,1.3125 l 5.1875,5.25 -5.1875,5.25 a 0.95278301,0.95278301 0 0 0 0,1.3125 l 6.03125,6.0938 a 0.95278301,0.95278301 0 0 0 1.34375,0.031 l 5.28125,-5.25 5.125,5.2188 a 0.95278301,0.95278301 0 0 0 1.375,0 l 6.21875,-6.2813 a 0.95278301,0.95278301 0 0 0 -0.03125,-1.3437 l -5.15625,-5.0313 5.15625,-5.0312 a 0.95278301,0.95278301 0 0 0 0.03125,-1.3438 l -6.21875,-6.2812 a 0.95278301,0.95278301 0 0 0 -1.375,0 l -5.125,5.2187 -5.28125,-5.25 a 0.95278301,0.95278301 0 0 0 -0.875,-0.25 z"
         id="path3757"
         style="opacity:0.4;fill:#000000;fill-opacity:1;fill-rule:evenodd;stroke:none;display:inline" />
      <path
         d="m 49.205006,1081.4884 6.023165,6.0937 5.930504,-5.9062 5.837833,5.9062 6.208498,-6.2812 -5.83784,-5.7188 5.83784,-5.7187 -6.208498,-6.2813 -5.837833,5.9063 -5.930504,-5.9063 -6.023165,6.0938 5.837841,5.9062 -5.837841,5.9063 z"
         inkscape:connector-curvature="0"
         id="path3751"
         style="fill:#a40000;fill-opacity:1;fill-rule:evenodd;stroke:none;display:inline" />
      <path
         style="fill:url(#linearGradient3858);fill-opacity:1;fill-rule:evenodd;stroke:none;display:inline"
         id="path3842"
         inkscape:connector-curvature="0"
         d="m 49.205006,1081.4884 6.0232,6.0937 5.9305,-5.9062 5.8378,5.9062 6.2085,-6.2812 -5.8378,-5.7188 5.8378,-5.7187 -6.2085,-6.2813 -5.8378,5.9063 -5.9305,-5.9063 -6.0232,6.0938 5.8378,5.9062 -5.8378,5.9063 z" />
    </g>
  </g>
</svg>
