<?xml version="1.0" encoding="UTF-8" standalone="no"?>
<!-- Created with Inkscape (http://www.inkscape.org/) -->
<svg id="svg2" xmlns:rdf="http://www.w3.org/1999/02/22-rdf-syntax-ns#" xmlns="http://www.w3.org/2000/svg" height="96" width="96" xmlns:cc="http://creativecommons.org/ns#" xmlns:xlink="http://www.w3.org/1999/xlink" xmlns:dc="http://purl.org/dc/elements/1.1/">
 <defs id="defs4">
  <linearGradient id="linearGradient3014" y2="1003.4" gradientUnits="userSpaceOnUse" x2="85.655" gradientTransform="matrix(0 1 -1 0 1052 954.71)" y1="1003.4" x1="11.655">
   <stop id="stop3945" style="stop-color:#eeeeec" offset="0"/>
   <stop id="stop3947" style="stop-color:#eeeeec;stop-opacity:0" offset="1"/>
  </linearGradient>
  <linearGradient id="linearGradient3799" y2="1007.3" gradientUnits="userSpaceOnUse" x2="74.261" gradientTransform="matrix(0 1 -1 0 1056 958.68)" y1="1007.3" x1="23.049">
   <stop id="stop3795" style="stop-color:#8ae234" offset="0"/>
   <stop id="stop3797" style="stop-color:#8ae234;stop-opacity:0" offset="1"/>
  </linearGradient>
 </defs>
 <metadata id="metadata7">
  <rdf:RDF>
   <cc:Work rdf:about="">
    <dc:format>image/svg+xml</dc:format>
    <dc:type rdf:resource="http://purl.org/dc/dcmitype/StillImage"/>
    <dc:title/>
   </cc:Work>
  </rdf:RDF>
 </metadata>
 <g id="layer1" transform="translate(0 -956.36)">
  <g id="g3801">
   <path id="path3017" style="fill:#4e9a06" d="m39.886 981.73h17.537c1.6457 0 2.9404 1.2947 2.9404 2.9404v45.296c0 1.6457-1.2947 2.9754-2.9404 2.9754h-17.537c-1.6457 0-2.9404-1.3297-2.9404-2.9754v-45.296c0-1.6457 1.2947-2.9404 2.9404-2.9404z"/>
   <path id="rect3022" d="m42.862 966.36c-1.9553 0-3.5005 1.5802-3.5005 3.5355v4.3756h-6.5109c-2.132 0-3.8505 1.7185-3.8505 3.8505v58.388c0 2.132 1.7185 3.8505 3.8505 3.8505h31.609c2.132 0 3.8505-1.7185 3.8505-3.8505v-58.388c0-2.132-1.7185-3.8505-3.8505-3.8505h-6.5109v-4.3756c0-1.9552-1.5802-3.5355-3.5355-3.5355h-11.552zm-2.9754 15.367h17.537c1.6457 0 2.9404 1.2947 2.9404 2.9404v45.296c0 1.6457-1.2947 2.9754-2.9404 2.9754h-17.537c-1.6457 0-2.9404-1.3297-2.9404-2.9754v-45.296c0-1.6457 1.2947-2.9404 2.9404-2.9404z" style="fill:#bfbfbf"/>
   <path id="path3813" style="fill:url(#linearGradient3014)" d="m42.862 966.36c-1.9552 0-3.5004 1.5802-3.5004 3.5355v4.3756h-6.5109c-2.132 0-3.8506 1.7185-3.8506 3.8506v58.388c0 2.132 1.7186 3.8505 3.8506 3.8505h31.609c2.132 0 3.8505-1.7185 3.8505-3.8505v-58.388c0-2.132-1.7185-3.8506-3.8505-3.8506h-6.5109v-4.3756c0-1.9552-1.5802-3.5355-3.5355-3.5355h-11.552zm-2.9754 15.367h17.537c1.6457 0 2.9404 1.2947 2.9404 2.9404v45.296c0 1.6457-1.2947 2.9754-2.9404 2.9754h-17.537c-1.6457 0-2.9404-1.3297-2.9404-2.9754v-45.296c0-1.6457 1.2947-2.9404 2.9404-2.9404z"/>
   <path id="path3023" style="fill:url(#linearGradient3799)" d="m57.424 1032.9h-17.537c-1.6458 0-2.9404-1.2947-2.9404-2.9404v-45.296c0-1.6457 1.2946-2.9754 2.9404-2.9754h17.537c1.6457 0 2.9404 1.3297 2.9404 2.9754v45.296c0 1.6457-1.2947 2.9404-2.9404 2.9404z"/>
   <path id="path3672" style="opacity:.25;fill:#2e3436" d="m38.662 1009.6a0.70582 0.92483 30.385 0 1 0.04471 -0.1075c1.0918-2.3073 2.3219-4.587 3.4361-6.8259 3.0438-5.9596 6.041-11.942 9.1159-17.898a0.70582 0.92483 30.385 0 1 0.03374 -0.0538c1.2209-2.0733 3.9369-1.7889 3.9822 0.40311a0.70582 0.92483 30.385 0 1 -0.0046 0.13437c-0.21526 1.8702-0.69753 3.6682-1.0045 5.3747a0.70582 0.92483 30.385 0 1 -0.0055 0.0269l-1.9898 9.7551c1.7907 0 3.609-0.029 5.4137 0.027a0.70582 0.92483 30.385 0 1 0.08636 0.027c1.4571 0.2598 1.7475 2.2287 0.84544 3.7354-0.03112 0.052-0.04536 0.1107-0.07918 0.1613-4.1636 8.4933-8.2927 17.011-12.481 25.503a0.70582 0.92483 30.385 0 1 -0.03921 0.081c-1.2563 2.1304-4.0738 1.72-3.9952-0.5643a0.70582 0.92483 30.385 0 1 0.02741 -0.1344c0.49628-2.9614 1.1677-5.919 1.7289-8.8145l1.628-7.9814c-1.783 0-3.5936 0.029-5.3907-0.027a0.70582 0.92483 30.385 0 1 -0.10936 -0.027c-1.0335-0.2275-1.623-1.3509-1.2659-2.6873a0.70582 0.92483 30.385 0 1 0.02193 -0.1075z"/>
   <path id="path3662" style="fill:#edd400" d="m40.045 1009.8a0.72259 0.9468 30.385 0 1 0.08467 -0.1881l12.26-24.079a0.72259 0.9468 30.385 0 1 1.4093 0.29561l-3.3274 16.312h6.5903a0.72259 0.9468 30.385 0 1 0.49361 1.1824l-12.61 25.799a0.72259 0.9468 30.385 0 1 -1.4322 -0.2957l3.6782-18.032h-6.5903a0.72259 0.9468 30.385 0 1 -0.55491 -0.9943z"/>
   <path id="path3877" style="fill:#eeeeec" d="m40.045 1009.8a0.72259 0.9468 30.385 0 1 0.0847 -0.1881l12.26-24.079a0.72259 0.9468 30.385 0 1 1.4093 0.29561l-3.3273 16.312h6.5902a0.72259 0.9468 30.385 0 1 0.4937 1.1824l-12.61 25.799a0.72259 0.9468 30.385 0 1 -1.4322 -0.2957l3.6782-18.032h-6.5904a0.72259 0.9468 30.385 0 1 -0.55491 -0.9943z"/>
  </g>
 </g>
</svg>
