<?xml version="1.0" encoding="UTF-8" standalone="no"?>
<!-- Created with Inkscape (http://www.inkscape.org/) -->
<svg id="svg2982" xmlns:rdf="http://www.w3.org/1999/02/22-rdf-syntax-ns#" xmlns="http://www.w3.org/2000/svg" height="96" width="96" version="1.1" xmlns:cc="http://creativecommons.org/ns#" xmlns:xlink="http://www.w3.org/1999/xlink" xmlns:dc="http://purl.org/dc/elements/1.1/">
 <defs id="defs2984">
  <filter id="filter6279-2" color-interpolation-filters="sRGB">
   <feGaussianBlur id="feGaussianBlur6281-1" stdDeviation="0.8"/>
  </filter>
  <linearGradient id="linearGradient3017" y2="1004.4" gradientUnits="userSpaceOnUse" x2="88" gradientTransform="translate(-1052.4 -956.36)" y1="1004.4" x1="8">
   <stop id="stop2883" style="stop-color:#1e57ae" offset="0"/>
   <stop id="stop2885" style="stop-color:#7da8e9" offset="1"/>
  </linearGradient>
  <linearGradient id="linearGradient4037" y2="16.973" gradientUnits="userSpaceOnUse" x2="46.655" gradientTransform="translate(234.54 1317.4)" y1="75.562" x1="48.082">
   <stop id="stop3733-1" style="stop-color:#dcdcdc" offset="0"/>
   <stop id="stop3757-2" style="stop-color:#ebebeb" offset=".30654"/>
   <stop id="stop3737-8" style="stop-color:#fff" offset=".70706"/>
   <stop id="stop3759-9" style="stop-color:#fafafa" offset=".84501"/>
   <stop id="stop3735-0" style="stop-color:#f0f0f0" offset="1"/>
  </linearGradient>
 </defs>
 <metadata id="metadata2987">
  <rdf:RDF>
   <cc:Work rdf:about="">
    <dc:format>image/svg+xml</dc:format>
    <dc:type rdf:resource="http://purl.org/dc/dcmitype/StillImage"/>
    <dc:title/>
   </cc:Work>
  </rdf:RDF>
 </metadata>
 <g id="layer1" transform="translate(0 -956.36)">
  <g id="g4144">
   <rect id="rect9283" ry="5" style="filter:url(#filter6279-2)" rx="5" transform="translate(0 .0000047513)" height="80" width="80" y="964.36" x="8"/>
   <rect id="rect9285" style="fill:url(#linearGradient3017)" rx="5" transform="rotate(-90)" ry="5" width="80" y="8" x="-1044.4" height="80"/>
   <g id="g4029" transform="matrix(.94992 0 0 .94992 -220.4 -292.98)">
    <path id="path4916" style="opacity:.05" d="m282.54 1331.4c-13.668-0.123-28.134 6.6392-34.406 19.531-0.00005 0 0.001 0.028 0 0.031h0.0313c-0.0296 0.06-0.0334 0.1276-0.0625 0.1875-0.0121 0.04-0.0277 0.069-0.0313 0.094-4.7772 9.9601-2.3507 22.295 5.3438 30.031a0.99107 0.99107 0 0 0 0.125 0.1563 0.99107 0.99107 0 0 0 0.0313 0.063c0.005 0.01 0.0259-0.01 0.0313 0 1.904 1.9933 4.0604 3.6757 6.3438 5.1562-0.95348 2.6244-3.3345 4.8383-6.0625 5.4063a0.99107 0.99107 0 0 0 -0.0313 0c-0.00072 0.0001-0.1243 0.031-0.125 0.031-0.00071 0.0002-0.12431 0.062-0.125 0.063-0.00069 0.0003-0.12433 0.031-0.125 0.031-0.00067 0.0003-0.12435 0.062-0.125 0.063-0.00065 0.0003-0.12437 0.062-0.125 0.063-0.00063 0.0003-0.0931 0.062-0.0937 0.063-0.0006 0.0004-0.0932 0.093-0.0937 0.094-0.00048 0.0004-0.0712 0.074-0.0937 0.094-0.004 0-0.0312-0.0001-0.0313 0l0.0313 0.031c-1.1311 1.0344-1.9565 2.3642-1.6875 3.8438 0.26524 1.4591 1.389 2.3214 2.375 2.8125 1.6879 0.8406 3.6555 1.0163 5.4375 0.6562 0.0302-0.01 0.0637 0.01 0.0937 0a0.99107 0.99107 0 0 0 0.21875 0.031c6.1674-0.3525 12.073-2.9685 16.594-7.1563 14.974 2.4823 31.802-3.3499 39.906-16.875 5.8211-9.8365 4.4772-23.006-3.2188-31.469-0.006-0.01 0.006-0.025 0-0.031-0.006-0.01-0.0452-0.084 0-0.031-7.4644-8.716-18.989-12.99-30.125-12.969z"/>
    <path id="path4912" style="opacity:.05" d="m282.54 1332.4c-13.334-0.12-27.432 6.4957-33.5 18.969-0.004 0.01 0.004 0.023 0 0.031-4.7897 9.6771-2.3663 21.888 5.25 29.375v0.031c2.0386 2.1375 4.3756 3.9501 6.875 5.5-0.87146 3.2839-3.7569 6.024-7.0938 6.7187a1.0247 1.0247 0 0 0 -0.46875 0.25c-1.004 0.9121-1.5631 1.9339-1.375 2.9688 0.18812 1.0348 1.0084 1.7089 1.8438 2.125 1.5945 0.794 3.6165 0.9708 5.25 0.5312v0.031c6.0838-0.3478 11.951-2.9661 16.344-7.1875 14.724 2.6287 31.432-3.0877 39.375-16.344 5.5921-9.4496 4.3072-22.222-3.0938-30.344-0.01-0.011-0.0217-0.02-0.0313-0.031-7.2395-8.4534-18.495-12.646-29.375-12.625zm-6.3125 17c-0.2145 0.4989-0.44664 1.0373-0.625 1.4063-0.26111 0.5401-0.48537 0.7004-0.4375 0.6875 0.0239-0.01 0.0321 0.01-0.125-0.063-0.12197-0.056-0.37072-0.2471-0.625-0.4688-0.12298-0.2557-0.1728-0.3784-0.0625-0.5625 0.12849-0.2144 0.50169-0.5125 1.0312-0.7812 0.27007-0.1371 0.52507-0.1132 0.84375-0.2188zm11.875 0.5938c2.3089 1.6438 3.4915 4.8998 1.9375 7.4687a1.0247 1.0247 0 0 0 -0.0625 0.125c-0.31008 0.7463-1.3827 1.7386-2.5312 2.5625 1.5863-3.1287 1.7679-6.8218 0.65625-10.156zm-6.9062 26.594a1.0247 1.0247 0 0 0 0.21875 0.031c0.74809-0.053 0.79543 0.085 0.875 0.25 0.0796 0.1649 0.0919 0.618-0.0937 1.0312-0.18566 0.4132-0.52358 0.7138-0.75 0.7813-0.21227 0.063-0.46337 0.02-0.9375-0.4688-0.27675-0.3818-0.30184-0.8646-0.15625-1.1875 0.14936-0.3312 0.28778-0.5249 0.84375-0.4375z"/>
    <path id="path4906" d="m282.54 1333.4c-12.996-0.117-26.751 6.3469-32.601 18.398-4.5943 9.2526-2.2338 21.092 5.0792 28.266 2.1633 2.2716 4.6651 4.2117 7.3652 5.8042-0.72552 4.0163-4.1318 7.3002-8.0938 8.125-3.4662 3.1491 2.4256 4.6878 4.9731 3.882 6.0034-0.3431 11.845-2.9667 16.089-7.2257 14.448 2.7732 31.047-2.8367 38.816-15.802 5.356-9.0507 4.0842-21.393-3.0187-29.159-7.0042-8.2016-17.98-12.309-28.61-12.289zm-3.8438 14.312c-2.2177 0.9804-1.8318 7.0921-5.1897 3.8089-1.4065-2.537 3.4756-3.8309 5.1897-3.8089zm7 0.2187c4.5261 0.5657 7.6943 5.9626 5.2313 10.034-1.0606 2.5525-5.9044 4.9709-6.8897 5.0317 3.8596-3.4002 4.9134-9.4764 2.7177-14.069-0.28383-0.4003-0.6833-0.6917-1.0593-0.9969zm-3.1875 16.062c-0.98774 1.3955-0.99683 4.729-1.3216 1.23-0.0161-0.7152 0.70706-1.1252 1.3216-1.23zm-1.1562 11.562c4.0799-0.2902 1.2254 6.4705-1.6613 3.2942-1.07-1.385-0.25114-3.5947 1.6613-3.2942z" style="opacity:0.12"/>
    <path id="path4902" style="opacity:0.24" d="m282.54 1334.4c-18.678 0-34.031 12.444-34.031 28.031 0 9.6705 6.039 18.081 14.969 23.094-0.20989 1.1888-0.65532 2.8369-1.75 4.5312-1.2505 1.9355-3.2682 3.797-6.75 4.7813a1.0234 1.0234 0 0 0 0.15625 2.0312c9.7051 1.0548 16.303-3.5216 19.906-7.1562 2.4222 0.4513 4.9111 0.75 7.5 0.75 18.678 0 34.031-12.444 34.031-28.031 0-15.588-15.353-28.031-34.031-28.031zm-0.90625 12.125c1.6468 0 3.1599 0.2062 4.5312 0.5937 1.368 0.3718 2.5376 0.89 3.5 1.5938a1.0234 1.0234 0 0 0 0 0.031c0.9547 0.684 1.6848 1.5164 2.2188 2.5 0.52095 0.9597 0.78123 2.0302 0.78125 3.3125-0.00002 1.2045-0.17005 2.2532-0.53125 3.1563a1.0234 1.0234 0 0 0 -0.0313 0c-0.35217 0.9156-0.86046 1.7548-1.5938 2.5312-0.74421 0.788-1.681 1.5241-2.8438 2.2188-1.1644 0.6894-2.5287 1.3739-4.125 2.0312a1.0234 1.0234 0 0 0 -0.625 0.7188l-0.8125 3.6562h-1.3125l-0.75-4.5c1.1224-0.5141 2.195-1.0431 3-1.7187 0.96008-0.823 1.7601-1.7027 2.3438-2.6875 0.57875-0.9646 1.001-2.0049 1.2188-3.0938 0.20613-1.0307 0.31248-2.0548 0.3125-3.0937-0.00002-0.8495-0.0859-1.6457-0.25-2.375-0.16209-0.7383-0.41053-1.4372-0.8125-2.0313-0.008-0.013-0.0228-0.018-0.0313-0.031-0.40653-0.6252-0.97396-1.0864-1.5938-1.4063-0.65888-0.3513-1.3945-0.5-2.1875-0.5-0.88818 0-1.7149 0.2192-2.4062 0.6875-0.62411 0.4228-1.1796 0.9821-1.5625 1.6875-0.37064 0.6828-0.59237 1.458-0.75 2.2813a1.0234 1.0234 0 0 0 0 0.031c-0.079 0.4644-0.0927 0.9531-0.125 1.4375-0.58918-0.032-1.2133-0.039-1.7188-0.125-0.76961-0.1307-1.3736-0.3329-1.9062-0.5625h-0.0313c-0.47967-0.2306-0.80333-0.4801-1.0312-0.75-0.008-0.01-0.0237-0.022-0.0313-0.031-0.19185-0.2588-0.28125-0.5438-0.28125-0.875 0-0.6227 0.13976-1.1434 0.46875-1.6875 0.31734-0.5371 0.83479-1.0607 1.5625-1.5 0.73038-0.4328 1.7259-0.7897 2.9688-1.0625 1.2212-0.283 2.6903-0.4375 4.4375-0.4375zm-0.28125 28.156c0.4699 0 0.89786 0.054 1.2812 0.1563 0.36111 0.093 0.66197 0.2357 0.90625 0.4375 0.23622 0.1951 0.44376 0.4433 0.59375 0.8125a1.0234 1.0234 0 0 0 0 0.031c0.13279 0.2941 0.21874 0.7963 0.21875 1.4688-0.00001 0.6546-0.0827 1.1362-0.21875 1.4375-0.15245 0.3635-0.37113 0.6598-0.59375 0.8437-0.21775 0.1799-0.50616 0.303-0.90625 0.4063a1.0234 1.0234 0 0 0 -0.0313 0.031c-0.38385 0.1152-0.79921 0.1562-1.25 0.1563-0.4695-0.0001-0.8728-0.038-1.2812-0.1563a1.0234 1.0234 0 0 0 -0.0313 -0.031c-0.40012-0.1033-0.68855-0.2265-0.90625-0.4063-0.20659-0.1784-0.40319-0.4638-0.5625-0.8437-0.1395-0.3327-0.21876-0.7977-0.21875-1.4375-0.00001-0.6579 0.0821-1.143 0.21875-1.4688a1.0234 1.0234 0 0 0 0 -0.031c0.15652-0.3853 0.34246-0.6225 0.5625-0.8125 0.24424-0.2018 0.54512-0.3444 0.90625-0.4375 0.40759-0.1052 0.82444-0.1563 1.3125-0.1563z"/>
    <path id="path3620" d="m282.54 1334.4c-18.225 0-33 12.088-33 27 0 9.4984 5.9998 17.844 15.062 22.656-0.34463 2.5087-1.914 8.6498-9.3438 10.75 9.6229 1.0458 16.014-3.6464 19.406-7.1875 2.5235 0.5055 5.1611 0.7812 7.875 0.7812 18.225 0 33-12.088 33-27s-14.775-27-33-27zm-0.90625 10.062c1.7291 0 3.3395 0.2088 4.8125 0.625 1.473 0.4003 2.7398 0.9968 3.8125 1.7813 1.0727 0.7685 1.9228 1.723 2.5312 2.8437 0.60838 1.1208 0.90622 2.3876 0.90625 3.8125-0.00003 1.3129-0.20875 2.4906-0.625 3.5313-0.40029 1.0407-0.99598 1.9791-1.8125 2.8437-0.81656 0.8646-1.8297 1.6698-3.0625 2.4063-1.2168 0.7204-2.6482 1.4213-4.2812 2.0937l-1 4.4688h-3l-0.96875-6.0625c1.4089-0.5604 2.5409-1.2163 3.4375-1.9688 0.89658-0.7685 1.6126-1.5729 2.125-2.4375 0.52834-0.8806 0.90161-1.7893 1.0938-2.75 0.19211-0.9606 0.28123-1.9296 0.28125-2.9062-0.00002-0.7845-0.0747-1.5158-0.21875-2.1563-0.14411-0.6564-0.3673-1.2232-0.6875-1.6875-0.30422-0.4803-0.72243-0.8375-1.2188-1.0937-0.48033-0.2562-1.0463-0.375-1.7188-0.375-0.7365 0-1.3474 0.1638-1.8438 0.5-0.49634 0.3362-0.91456 0.7834-1.2188 1.3437-0.30421 0.5604-0.51216 1.2163-0.65625 1.9688-0.12809 0.7525-0.18751 1.5424-0.1875 2.375-1.0087 0-1.9639-0.075-2.8125-0.2188-0.84857-0.1441-1.5631-0.3528-2.1875-0.625-0.60841-0.2882-1.0853-0.6302-1.4375-1.0625-0.33623-0.4323-0.53125-0.9548-0.53125-1.5312 0-0.8006 0.20872-1.5303 0.625-2.2188 0.41627-0.7044 1.0577-1.3314 1.9062-1.8437 0.86457-0.5124 1.9684-0.8993 3.2812-1.1875 1.3129-0.3042 2.847-0.4688 4.6562-0.4688zm-0.28125 28.156c0.54435 0 1.0509 0.059 1.5312 0.1875 0.49632 0.128 0.94424 0.352 1.3125 0.6562 0.36823 0.3042 0.66685 0.7064 0.875 1.2188 0.22413 0.4963 0.31248 1.1225 0.3125 1.875-0.00002 0.7364-0.0884 1.3474-0.3125 1.8437-0.20815 0.4963-0.50677 0.9145-0.875 1.2188-0.36826 0.3042-0.81618 0.4969-1.3125 0.625-0.48033 0.144-0.9869 0.2187-1.5312 0.2187-0.56039 0-1.0662-0.075-1.5625-0.2187-0.49634-0.1281-0.94426-0.3208-1.3125-0.625-0.35224-0.3043-0.63562-0.7225-0.84375-1.2188-0.20815-0.4963-0.31251-1.1073-0.3125-1.8437-0.00001-0.7525 0.10435-1.3787 0.3125-1.875 0.20813-0.5124 0.49151-0.9146 0.84375-1.2188 0.36824-0.3042 0.81616-0.5282 1.3125-0.6562 0.49632-0.1281 1.0021-0.1875 1.5625-0.1875z" style="fill:url(#linearGradient4037)"/>
    <path id="path4889" d="m282.54 1334.4c-18.225 0-33 12.088-33 27 0 0.1352-0.002 0.2715 0 0.4063 0.39113-14.634 15.02-26.406 33-26.406 18.018 0 32.67 11.822 33 26.5 0.004-0.1686 0-0.3306 0-0.5 0-14.912-14.775-27-33-27zm-0.5 13.031c-0.7365 0-1.3474 0.1638-1.8438 0.5-0.49634 0.3362-0.91456 0.7834-1.2188 1.3437-0.30421 0.5604-0.51216 1.2163-0.65625 1.9688-0.12809 0.7525-0.18751 1.5424-0.1875 2.375-1.0087 0-1.9639-0.075-2.8125-0.2188-0.84857-0.1441-1.5631-0.3528-2.1875-0.625-0.60841-0.2882-1.0853-0.6302-1.4375-1.0625-0.25217-0.3242-0.42939-0.7146-0.5-1.125-0.0261 0.1917-0.0313 0.3936-0.0313 0.5938 0 0.5764 0.19502 1.0989 0.53125 1.5312 0.35223 0.4323 0.82909 0.7743 1.4375 1.0625 0.62441 0.2722 1.3389 0.4809 2.1875 0.625 0.84856 0.1441 1.8038 0.2188 2.8125 0.2188-0.00001-0.8326 0.0594-1.6225 0.1875-2.375 0.14409-0.7525 0.35204-1.4084 0.65625-1.9688 0.30419-0.5603 0.72241-1.0075 1.2188-1.3437 0.49632-0.3362 1.1072-0.5 1.8438-0.5 0.67243 0 1.2384 0.1188 1.7188 0.375 0.49632 0.2562 0.91453 0.6134 1.2188 1.0937 0.3202 0.4643 0.54339 1.0311 0.6875 1.6875 0.11603 0.5158 0.16425 1.1048 0.1875 1.7188 0.007-0.1866 0.0313-0.3754 0.0313-0.5625-0.00002-0.7845-0.0747-1.5158-0.21875-2.1563-0.14411-0.6564-0.3673-1.2232-0.6875-1.6875-0.30422-0.4803-0.72243-0.8375-1.2188-1.0937-0.48033-0.2562-1.0463-0.375-1.7188-0.375zm11.625 6.75c-0.0587 1.0523-0.24803 2.0106-0.59375 2.875-0.40029 1.0407-0.99598 1.9791-1.8125 2.8437-0.81656 0.8646-1.8297 1.6698-3.0625 2.4063-1.2168 0.7204-2.6482 1.4213-4.2812 2.0937l-1 4.4688h-3l-0.8125-5.125c-0.0535 0.022-0.10197 0.041-0.15625 0.063l0.96875 6.0625h3l1-4.4688c1.6331-0.6724 3.0644-1.3733 4.2812-2.0937 1.2328-0.7365 2.2459-1.5417 3.0625-2.4063 0.81652-0.8646 1.4122-1.803 1.8125-2.8437 0.41625-1.0407 0.62497-2.2184 0.625-3.5313 0-0.119-0.0271-0.227-0.0313-0.3437zm-16.312 22.875c-0.0122 0.1671-0.0313 0.318-0.0313 0.5-0.00001 0.7364 0.10435 1.3474 0.3125 1.8437 0.20813 0.4963 0.49151 0.9145 0.84375 1.2188 0.36824 0.3042 0.81616 0.4969 1.3125 0.625 0.49632 0.144 1.0021 0.2187 1.5625 0.2187 0.54435 0 1.0509-0.075 1.5312-0.2187 0.49632-0.1281 0.94424-0.3208 1.3125-0.625 0.36823-0.3043 0.66685-0.7225 0.875-1.2188 0.22413-0.4963 0.31248-1.1073 0.3125-1.8437 0-0.1825-0.0202-0.3325-0.0313-0.5-0.0354 0.5057-0.11315 0.9715-0.28125 1.3437-0.20815 0.4963-0.50677 0.9145-0.875 1.2188-0.36826 0.3042-0.81618 0.4969-1.3125 0.625-0.48033 0.144-0.9869 0.2187-1.5312 0.2187-0.56039 0-1.0662-0.075-1.5625-0.2187-0.49634-0.1281-0.94426-0.3208-1.3125-0.625-0.35224-0.3043-0.63562-0.7225-0.84375-1.2188-0.15626-0.3726-0.24222-0.8373-0.28125-1.3437zm-12.906 7.9062c-0.58097 2.8496-2.5274 7.9611-9.1875 9.8438 0.79077 0.086 1.5652 0.1127 2.3125 0.125 5.4552-2.5882 6.7258-7.6518 7.0312-9.875-0.0542-0.029-0.10226-0.065-0.15625-0.094z" style="opacity:.8;fill:#fff"/>
   </g>
  </g>
 </g>
</svg>
