<?xml version="1.0" encoding="UTF-8" standalone="no"?>
<!-- Created with Inkscape (http://www.inkscape.org/) -->
<svg id="svg2408" xmlns:rdf="http://www.w3.org/1999/02/22-rdf-syntax-ns#" xmlns="http://www.w3.org/2000/svg" height="96" width="96" version="1.0" xmlns:cc="http://creativecommons.org/ns#" xmlns:xlink="http://www.w3.org/1999/xlink" xmlns:dc="http://purl.org/dc/elements/1.1/">
 <defs id="defs2410">
  <linearGradient id="linearGradient3091" y2="10.985" gradientUnits="userSpaceOnUse" x2="31.725" gradientTransform="matrix(.90090 0 0 .90090 3.4189 6.0953)" y1="79.814" x1="31.725">
   <stop id="stop4083" style="stop-color:#aaa" offset="0"/>
   <stop id="stop4085-9" style="stop-color:#f0f0f0" offset="1"/>
  </linearGradient>
 </defs>
 <metadata id="metadata2413">
  <rdf:RDF>
   <cc:Work rdf:about="">
    <dc:format>image/svg+xml</dc:format>
    <dc:type rdf:resource="http://purl.org/dc/dcmitype/StillImage"/>
    <dc:title/>
   </cc:Work>
  </rdf:RDF>
 </metadata>
 <g id="g3081" transform="matrix(1.5221 0 0 1.5221 -27.265 -22.854)">
  <path id="path3764" style="opacity:.05" d="m72.75 15.969c-1.012 0-1.9983 0.42139-2.8438 1.0938-0.06006 0.04776-0.12938 0.07382-0.1875 0.125-0.12758 0.0728-0.22512 0.14187-0.25 0.15625-0.0023 0.0013-0.03121-0.000039-0.03125 0l-11.312 11.344h-4.375c-1.205-0.0098-2.4014 0.46535-3.3125 1.375l-8.0938 8.0625a1.0237 1.0237 0 0 0 0 0.03125 1.0237 1.0237 0 0 0 -0.21875 0.3125 1.0237 1.0237 0 0 0 -0.03125 0.09375c-1.3792 1.697-1.3919 4.0738-0.03125 5.7812 0.11076 0.13899 0.15234 0.30942 0.28125 0.4375 0.0013 0.0023-0.00004 0.03121 0 0.03125l9.9062 9.875c0.83773 0.83703 1.937 1.3016 3.0938 1.3438 0.02083 0.000759 0.04164-0.000474 0.0625 0 0.000058 0.000007 0.08447 0.03077 0.09375 0.03125 0.0209 0.000018 0.04158 0.000269 0.0625 0a1.0237 1.0237 0 0 0 0.09375 0c0.04322-0.000798 0.0818-0.02924 0.125-0.03125a1.0237 1.0237 0 0 0 0.094 -0.033c1.0828-0.0735 2.1428-0.48783 2.9688-1.3125l8.125-8.125c0.8725-0.87385 1.3849-2.0434 1.375-3.2812v-4.4062l11.312-11.281a1.0237 1.0237 0 0 0 0 -0.03125 1.0237 1.0237 0 0 0 0.21875 -0.3125 1.0237 1.0237 0 0 0 0.03125 -0.09375c1.4915-1.8352 1.4625-4.5172-0.25-6.2188l-3.5625-3.5938h-0.03125c-0.096-0.098-0.21-0.134-0.312-0.22-0.047-0.027-0.125-0.062-0.125-0.063-0.875-0.69-1.89-1.093-2.875-1.093z"/>
  <path id="path3760" style="opacity:.1" d="m72.75 17c-0.91362 0-1.8576 0.35385-2.5625 1.0625-0.0063 0.0063-0.02498-0.0064-0.03125 0l-11.625 11.656h-4.7812c-0.94129-0.0076-1.8788 0.34864-2.5938 1.0625l-8.0938 8.0625v0.03125c-1.4328 1.4237-1.4328 3.7638 0 5.1875 0.0064 0.0064-0.0065 0.02491 0 0.03125l9.9062 9.875c0.70104 0.70046 1.6304 1.0749 2.5938 1.0625-0.01189 0.000098 0.02369 0.000716 0.0625 0 0.90805-0.01677 1.8053-0.36883 2.5-1.0625l8.125-8.125c0.68625-0.68731 1.0702-1.6028 1.0625-2.5625v-4.8125l11.625-11.594v-0.03125c1.4328-1.4237 1.4328-3.7638 0-5.1875l-3.562-3.594c-0.0064-0.0066-0.02476 0.0065-0.03125 0-0.732-0.735-1.7-1.062-2.594-1.062z"/>
  <path id="path3859" style="opacity:.15" d="m72.75 17.906c-0.71037 0-1.4174 0.25-1.9375 0.78125l-11.937 11.938h-5.125c-0.72857-0.0059-1.4331 0.2464-1.9688 0.78125l-8.093 8.094c-1.1111 1.0878-1.1111 2.8497 0 3.9375l9.9062 9.9062c0.51896 0.51854 1.236 0.79068 1.9688 0.78125 0.0099-0.000082 0.02138 0.000182 0.03125 0 0.70187-0.01296 1.3909-0.26668 1.9062-0.78125l8.125-8.125c0.51192-0.51272 0.78706-1.2094 0.78125-1.9375v-5.1562l11.906-11.906c1.1111-1.0878 1.1111-2.8497 0-3.9375l-3.593-3.594c-0.543-0.555-1.259-0.782-1.969-0.782z"/>
  <path id="path3853" style="opacity:.3" d="m72.75 18.906c-0.45848 0-0.89696 0.17133-1.2188 0.5l-12.219 12.219h-5.5625c-0.45801-0.0037-0.92588 0.17638-1.25 0.5l-8.0938 8.0938c-0.65734 0.64358-0.65734 1.8564 0 2.5l9.906 9.906c0.33069 0.33042 0.78266 0.5112 1.25 0.5 0.44862-0.0037 0.90127-0.18301 1.2188-0.5l8.125-8.125c0.32362-0.32412 0.50366-0.76074 0.5-1.2188v-5.5938l12.188-12.187c0.65734-0.64358 0.65734-1.8564 0-2.5l-3.594-3.594c-0.32179-0.32867-0.79152-0.5-1.25-0.5z"/>
  <path id="path2984" style="fill:url(#linearGradient3091)" d="m72.75 17.906c-0.45848 0-0.89696 0.17133-1.2188 0.5l-12.219 12.219h-5.5625c-0.45801-0.0037-0.92588 0.17638-1.25 0.5l-8.0938 8.0938c-0.65734 0.64358-0.65734 1.8564 0 2.5l9.906 9.906c0.33069 0.33042 0.78266 0.5112 1.25 0.5 0.44862-0.0037 0.90127-0.18301 1.2188-0.5l8.125-8.125c0.32362-0.32412 0.50366-0.76074 0.5-1.2188v-5.5938l12.188-12.187c0.65734-0.64358 0.65734-1.8564 0-2.5l-3.594-3.594c-0.32179-0.32867-0.79152-0.5-1.25-0.5z"/>
  <path id="path3804" style="opacity:.2;fill:#fff" d="m40.438 43.875c-0.44862 0.0037-0.90127 0.21426-1.2188 0.53125l-8.125 8.094c-0.32362 0.32412-0.50366 0.79199-0.5 1.25v5.5625l-12.188 12.219c-0.65734 0.64358-0.65734 1.8252 0 2.4688l3.594 3.593c0.64358 0.65734 1.8252 0.65734 2.4688 0l12.219-12.188h5.5625c0.45801 0.0037 0.92588-0.17638 1.25-0.5l8.0938-8.125c0.65734-0.64358 0.65734-1.8252 0-2.4688l-9.907-9.906c-0.33069-0.33042-0.78266-0.54246-1.25-0.53125z"/>
  <path id="path3835" style="opacity:.75;fill:#fff" d="m72.75 17.906c-0.45848 0-0.89696 0.17133-1.2188 0.5l-12.219 12.219h-5.5625c-0.45801-0.0037-0.92588 0.17638-1.25 0.5l-8.0938 8.0938c-0.44749 0.43813-0.59929 1.1434-0.4375 1.75 0.07587-0.28444 0.22766-0.54455 0.4375-0.75l8.094-8.094c0.32412-0.32362 0.79199-0.5037 1.25-0.5h5.5625l12.219-12.219c0.32179-0.32867 0.76028-0.5 1.2188-0.5 0.45848 0 0.92821 0.17133 1.25 0.5l3.593 3.594c0.20984 0.20545 0.36163 0.46556 0.4375 0.75 0.16179-0.60657 0.01-1.3119-0.4375-1.75l-3.594-3.594c-0.32179-0.32867-0.79152-0.5-1.25-0.5z"/>
  <path id="path3844" style="opacity:0.14" d="m78.031 22.75c-0.07587 0.28444-0.22766 0.54455-0.4375 0.75l-12.188 12.188v1l12.188-12.188c0.44749-0.43813 0.59929-1.1434 0.4375-1.75zm-34.062 17.219c-0.16179 0.60657-0.01 1.3119 0.4375 1.75l9.906 9.906c0.33069 0.33042 0.78266 0.5112 1.25 0.5 0.44862-0.0037 0.90127-0.18301 1.2188-0.5l8.125-8.125c0.32362-0.32412 0.50366-0.76074 0.5-1.2188v-1c0.0037 0.45801-0.17638 0.89463-0.5 1.2188l-8.125 8.125c-0.31748 0.31699-0.77012 0.4963-1.2188 0.5-0.46734 0.0112-0.91931-0.16958-1.25-0.5l-9.9062-9.9062c-0.20984-0.20545-0.36163-0.46556-0.4375-0.75z"/>
 </g>
</svg>
