<?xml version="1.0" encoding="UTF-8" standalone="no"?>
<!-- Created with Inkscape (http://www.inkscape.org/) -->
<svg id="svg2" xmlns:rdf="http://www.w3.org/1999/02/22-rdf-syntax-ns#" xmlns="http://www.w3.org/2000/svg" height="96" width="96" version="1.1" xmlns:cc="http://creativecommons.org/ns#" xmlns:xlink="http://www.w3.org/1999/xlink" xmlns:dc="http://purl.org/dc/elements/1.1/">
 <defs id="defs4">
  <linearGradient id="linearGradient3785" y2="1003.4" gradientUnits="userSpaceOnUse" x2="85.655" gradientTransform="matrix(0 1 -1 0 1052 954.71)" y1="1003.4" x1="11.655">
   <stop id="stop3781" style="stop-color:#ef2929" offset="0"/>
   <stop id="stop3783" style="stop-color:#ef2929;stop-opacity:0" offset="1"/>
  </linearGradient>
 </defs>
 <metadata id="metadata7">
  <rdf:RDF>
   <cc:Work rdf:about="">
    <dc:format>image/svg+xml</dc:format>
    <dc:type rdf:resource="http://purl.org/dc/dcmitype/StillImage"/>
    <dc:title/>
   </cc:Work>
  </rdf:RDF>
 </metadata>
 <g id="layer1" transform="translate(0 -956.36)">
  <g id="g3795">
   <path id="rect3022" d="m42.862 966.36c-1.9553 0-3.5005 1.5802-3.5005 3.5355v4.3756h-6.5109c-2.132 0-3.8505 1.7185-3.8505 3.8505v58.388c0 2.132 1.7185 3.8505 3.8505 3.8505h31.609c2.132 0 3.8505-1.7185 3.8505-3.8505v-58.388c0-2.132-1.7185-3.8505-3.8505-3.8505h-6.5109v-4.3756c0-1.9552-1.5802-3.5355-3.5355-3.5355h-11.552zm-2.9754 15.367h17.537c1.6457 0 2.9404 1.2947 2.9404 2.9404v45.296c0 1.6457-1.2947 2.9754-2.9404 2.9754h-17.537c-1.6457 0-2.9404-1.3297-2.9404-2.9754v-45.296c0-1.6457 1.2947-2.9404 2.9404-2.9404z" style="fill:#a40000"/>
   <path id="path3813" style="fill:url(#linearGradient3785)" d="m42.862 966.36c-1.9552 0-3.5004 1.5802-3.5004 3.5355v4.3756h-6.5109c-2.132 0-3.8506 1.7185-3.8506 3.8506v58.388c0 2.132 1.7186 3.8505 3.8506 3.8505h31.609c2.132 0 3.8505-1.7185 3.8505-3.8505v-58.388c0-2.132-1.7185-3.8506-3.8505-3.8506h-6.5109v-4.3756c0-1.9552-1.5802-3.5355-3.5355-3.5355h-11.552zm-2.9754 15.367h17.537c1.6457 0 2.9404 1.2947 2.9404 2.9404v45.296c0 1.6457-1.2947 2.9754-2.9404 2.9754h-17.537c-1.6457 0-2.9404-1.3297-2.9404-2.9754v-45.296c0-1.6457 1.2947-2.9404 2.9404-2.9404z"/>
  </g>
 </g>
</svg>
