<?xml version="1.0" encoding="UTF-8" standalone="no"?>
<!-- Created with Inkscape (http://www.inkscape.org/) -->
<svg id="svg2982" xmlns:rdf="http://www.w3.org/1999/02/22-rdf-syntax-ns#" xmlns="http://www.w3.org/2000/svg" height="96" width="96" version="1.1" xmlns:cc="http://creativecommons.org/ns#" xmlns:xlink="http://www.w3.org/1999/xlink" xmlns:dc="http://purl.org/dc/elements/1.1/">
 <defs id="defs2984">
  <filter id="filter6279-2" color-interpolation-filters="sRGB">
   <feGaussianBlur id="feGaussianBlur6281-1" stdDeviation="0.8"/>
  </filter>
  <radialGradient id="radialGradient3819" gradientUnits="userSpaceOnUse" cy="1004.4" cx="48" gradientTransform="translate(0 .00072671)" r="29.023">
   <stop id="stop3815" style="stop-color:#888a85" offset="0"/>
   <stop id="stop3817" style="stop-color:#888a85;stop-opacity:0" offset="1"/>
  </radialGradient>
  <linearGradient id="linearGradient3829" y2="1004.4" gradientUnits="userSpaceOnUse" x2="77.023" gradientTransform="matrix(0 -1 1 0 -956.36 1052.4)" y1="1004.4" x1="18.977">
   <stop id="stop3825" style="stop-color:#2e3436" offset="0"/>
   <stop id="stop3827" style="stop-color:#2e3436;stop-opacity:0" offset="1"/>
  </linearGradient>
 </defs>
 <metadata id="metadata2987">
  <rdf:RDF>
   <cc:Work rdf:about="">
    <dc:format>image/svg+xml</dc:format>
    <dc:type rdf:resource="http://purl.org/dc/dcmitype/StillImage"/>
    <dc:title/>
   </cc:Work>
  </rdf:RDF>
 </metadata>
 <g id="layer1" transform="translate(0 -956.36)">
  <rect id="rect9283" style="filter:url(#filter6279-2)" transform="translate(0 .0000047513)" rx="5" ry="5" height="80" width="80" y="964.36" x="8"/>
  <rect id="rect9285" style="fill:#eeeeec" rx="5" ry="5" height="80" width="80" y="964.36" x="8"/>
  <path id="rect3802" d="m16 972.36v8h8v-8h-8zm8 8v8h8v-8h-8zm8 0h8v-8h-8v8zm8 0v8h8v-8h-8zm8 0h8v-8h-8v8zm8 0v8h8v-8h-8zm8 0h8v-8h-8v8zm8 0v8h8v-8h-8zm0 8h-8v8h8v-8zm0 8v8h8v-8h-8zm0 8h-8v8h8v-8zm0 8v8h8v-8h-8zm0 8h-8v8h8v-8zm0 8v8h8v-8h-8zm-8 0h-8v8h8v-8zm-8 0v-8h-8v8h8zm-8 0h-8v8h8v-8zm-8 0v-8h-8v8h8zm-8 0h-8v8h8v-8zm-8 0v-8h-8v8h8zm0-8h8v-8h-8v8zm0-8v-8h-8v8h8zm0-8h8v-8h-8v8zm0-8v-8h-8v8h8zm8 0h8v-8h-8v8zm8 0v8h8v-8h-8zm8 0h8v-8h-8v8zm8 0v8h8v-8h-8zm0 8h-8v8h8v-8zm0 8v8h8v-8h-8zm-8 0h-8v8h8v-8zm-8 0v-8h-8v8h8z" style="color:#000000;fill:#dcdcdc"/>
  <path id="path3821" d="m18.977 1004.2 0.32029 1.1743 1.0274 0.6672 0.34696 0.04h13.664l1.1476-0.4403 0.5471-1.0942-0.3203-1.1876-1.0274-0.6673-0.3469-0.027h-13.664l-1.1476 0.4403-0.54711 1.0942zm3.6696-13.317 0.56044 1.0942 0.28016 0.2135 11.836 6.8322 1.2144 0.1868 1.0141-0.6672 0.3203-1.1876-0.5605-1.0942-0.28-0.2002-11.836-6.8321-1.2144-0.1869-1.0274 0.6672-0.30695 1.1743zm0.0667 26.622 0.0803 1.2277 0.86728 0.8673 1.2277 0.067 0.30695-0.1601 11.836-6.8322 0.7739-0.9474-0.08-1.2277-0.854-0.854-1.2277-0.067-0.3203 0.1468-11.836 6.8322-0.77393 0.9474zm9.9548 10.889 0.6804 1.0275 1.1877 0.3069 1.0942-0.5471 0.2002-0.2936 6.8321-11.836 0.1868-1.2143-0.6804-1.0142-1.1744-0.3069-1.0942 0.5471-0.2001 0.2803-6.8322 11.836-0.2001 1.2143zm0.053-47.158 0.1468 0.32026 6.8321 11.836 0.9474 0.774 1.2277-0.067 0.8674-0.8807 0.067-1.2143-0.1602-0.3202-6.8321-11.836-0.9474-0.77396-1.2277 0.0801-0.8541 0.86737-0.067 1.2143zm13.571 50.467 0.4404 1.1476 1.0942 0.5471 1.1742-0.3202 0.6673-1.0275 0.04-0.347v-13.664l-0.4404-1.1476-1.0942-0.5471-1.1876 0.3202-0.6673 1.0275-0.027 0.347v13.664zm0-40.993 0.4404 1.1476 1.0942 0.5471 1.1742-0.3202 0.6673-1.0275 0.04-0.347v-13.664l-0.4404-1.1476-1.0942-0.54711-1.1876 0.32026-0.6673 1.0275-0.027 0.34695v13.664zm6.8724 2.1885 0.6805 1.0141 1.1876 0.3203 1.0942-0.5605 0.2002-0.2802 6.8321-11.836 0.1868-1.2143-0.6804-1.0275-1.1744-0.30692-1.0942 0.56045-0.2002 0.28023-6.8321 11.836-0.2001 1.2143zm0.053 23.846 0.1469 0.3202 6.8321 11.823 0.9474 0.774 1.2277-0.067 0.8674-0.8673 0.067-1.2277-0.1602-0.3202-6.8321-11.823-0.9474-0.774-1.2277 0.067-0.8541 0.8673-0.067 1.2277zm4.9374-5.3643 0.5471 1.0942 0.2803 0.2135 11.836 6.8322 1.2143 0.1868 1.0276-0.6672 0.3068-1.1877-0.5471-1.0942-0.2935-0.2001-11.836-6.8322-1.2144-0.1868-1.0141 0.6672-0.3069 1.1743zm0.067-14.372 0.067 1.2276 0.8674 0.8674 1.2276 0.067 0.3203-0.1601 11.823-6.8322 0.7739-0.9474-0.067-1.2277-0.8674-0.854-1.2277-0.067-0.3202 0.1468-11.823 6.8321-0.7741 0.9475zm1.7482 7.1924 0.3203 1.1743 1.0274 0.6672 0.3469 0.04h13.664l1.1476-0.4403 0.5471-1.0942-0.3202-1.1876-1.0275-0.6673-0.347-0.027h-13.664l-1.1475 0.4403-0.5471 1.0942z" style="block-progression:tb;text-indent:0;color:#000000;text-transform:none;fill:url(#linearGradient3829)"/>
  <path id="path3803" style="block-progression:tb;text-indent:0;color:#000000;text-transform:none;fill:url(#radialGradient3819)" d="m48.173 975.34-1.1743 0.32029-0.66721 1.0274-0.04003 0.34696v13.664l0.44036 1.1476 1.0942 0.5471 1.1876-0.3203 0.66721-1.0274 0.02669-0.347v-13.664l-0.44036-1.1476-1.0942-0.54711zm13.317 3.6696-1.0942 0.56044-0.21351 0.28016-6.8322 11.836-0.18682 1.2144 0.6672 1.0141 1.1876 0.3203 1.0942-0.5605 0.20016-0.2801 6.8322-11.836 0.18682-1.2144-0.6672-1.0274-1.1743-0.30695zm-26.621 0.0667-1.2277 0.0803-0.86737 0.86728-0.06672 1.2277 0.16013 0.30695 6.8322 11.836 0.94743 0.7739 1.2277-0.08 0.85402-0.854 0.06672-1.2276-0.14678-0.3203-6.8322-11.836-0.94743-0.77393zm-10.889 9.9548-1.0275 0.6804-0.30691 1.1877 0.54711 1.0942 0.29357 0.2002 11.836 6.8321 1.2143 0.1868 1.0142-0.6804 0.30691-1.1744-0.54711-1.0942-0.28023-0.2001-11.836-6.8322-1.2143-0.2001zm47.158 0.053-0.32026 0.1468-11.836 6.8321-0.77396 0.9474 0.06672 1.2277 0.88071 0.8674 1.2143 0.067 0.32026-0.1602 11.836-6.8321 0.77396-0.9474-0.08006-1.2277-0.86736-0.8541-1.2143-0.067zm-50.467 13.571-1.1476 0.4404-0.54711 1.0942 0.32026 1.1742 1.0275 0.6673 0.34694 0.04h13.664l1.1476-0.4404 0.54711-1.0942-0.32026-1.1876-1.0275-0.6673-0.34695-0.027h-13.664zm40.993 0-1.1476 0.4404-0.54711 1.0942 0.32026 1.1742 1.0275 0.6673 0.34695 0.04h13.664l1.1476-0.4404 0.54711-1.0942-0.32026-1.1876-1.0275-0.6673-0.34695-0.027h-13.664zm-2.1884 6.8724-1.0142 0.6805-0.32026 1.1876 0.56045 1.0942 0.28022 0.2002 11.836 6.8321 1.2143 0.1868 1.0275-0.6804 0.30692-1.1744-0.56045-1.0942-0.28023-0.2002-11.836-6.8321-1.2143-0.2001zm-23.846 0.053-0.32026 0.1469-11.823 6.8321-0.77396 0.9474 0.06673 1.2277 0.86737 0.8674 1.2277 0.067 0.32026-0.1602 11.823-6.8321 0.77396-0.9474-0.06672-1.2277-0.86737-0.8541-1.2277-0.067zm5.3643 4.9374-1.0942 0.5471-0.21351 0.2803-6.8322 11.836-0.18682 1.2143 0.66721 1.0276 1.1876 0.3068 1.0942-0.5471 0.20016-0.2935 6.8322-11.836 0.18682-1.2144-0.6672-1.0141-1.1743-0.3069zm14.372 0.067-1.2277 0.067-0.86737 0.8674-0.06672 1.2276 0.16013 0.3203 6.8322 11.823 0.94743 0.7739 1.2277-0.067 0.85402-0.8674 0.06672-1.2277-0.14679-0.3202-6.8322-11.823-0.94743-0.7741zm-7.1925 1.7482-1.1743 0.3203-0.6672 1.0274-0.04003 0.3469v13.664l0.44036 1.1476 1.0942 0.5471 1.1876-0.3202 0.6672-1.0275 0.02669-0.347v-13.664l-0.44036-1.1475-1.0942-0.5471z"/>
 </g>
</svg>
