<?xml version="1.0" encoding="UTF-8" standalone="no"?>
<!-- Created with Inkscape (http://www.inkscape.org/) -->

<svg
   xmlns:dc="http://purl.org/dc/elements/1.1/"
   xmlns:cc="http://creativecommons.org/ns#"
   xmlns:rdf="http://www.w3.org/1999/02/22-rdf-syntax-ns#"
   xmlns:svg="http://www.w3.org/2000/svg"
   xmlns="http://www.w3.org/2000/svg"
   xmlns:xlink="http://www.w3.org/1999/xlink"
   xmlns:sodipodi="http://sodipodi.sourceforge.net/DTD/sodipodi-0.dtd"
   xmlns:inkscape="http://www.inkscape.org/namespaces/inkscape"
   width="96"
   height="96"
   id="svg2982"
   version="1.1"
   inkscape:version="0.48.1 r9760"
   sodipodi:docname="dialog-information.svg">
  <defs
     id="defs2984">
    <filter
       color-interpolation-filters="sRGB"
       inkscape:collect="always"
       id="filter6279-2">
      <feGaussianBlur
         inkscape:collect="always"
         stdDeviation="0.8"
         id="feGaussianBlur6281-1" />
    </filter>
    <linearGradient
       inkscape:collect="always"
       xlink:href="#linearGradient3614"
       id="linearGradient3014"
       gradientUnits="userSpaceOnUse"
       gradientTransform="translate(-1052.3622,-956.36218)"
       x1="8"
       y1="1004.3622"
       x2="88"
       y2="1004.3622" />
    <linearGradient
       id="linearGradient3614">
      <stop
         offset="0"
         style="stop-color:#65a31b;stop-opacity:1"
         id="stop3616" />
      <stop
         offset="1"
         style="stop-color:#a0de42;stop-opacity:1"
         id="stop3618" />
    </linearGradient>
    <linearGradient
       id="linearGradient3731">
      <stop
         offset="0"
         style="stop-color:#dcdcdc;stop-opacity:1"
         id="stop3733" />
      <stop
         offset="0.30654153"
         style="stop-color:#ebebeb;stop-opacity:1"
         id="stop3757" />
      <stop
         offset="0.70706075"
         style="stop-color:#ffffff;stop-opacity:1"
         id="stop3737" />
      <stop
         offset="0.84501493"
         style="stop-color:#fafafa;stop-opacity:1"
         id="stop3759" />
      <stop
         offset="1"
         style="stop-color:#f0f0f0;stop-opacity:1"
         id="stop3735" />
    </linearGradient>
    <linearGradient
       id="linearGradient3739">
      <stop
         offset="0"
         style="stop-color:#ffffff;stop-opacity:1"
         id="stop3742" />
      <stop
         offset="1"
         style="stop-color:#ffffff;stop-opacity:0"
         id="stop3744" />
    </linearGradient>
    <linearGradient
       inkscape:collect="always"
       xlink:href="#linearGradient3731"
       id="linearGradient4006"
       gradientUnits="userSpaceOnUse"
       gradientTransform="translate(129.06522,1027.8622)"
       x1="48.082497"
       y1="75.561722"
       x2="46.654823"
       y2="16.972879" />
    <linearGradient
       inkscape:collect="always"
       xlink:href="#linearGradient3739"
       id="linearGradient4008"
       gradientUnits="userSpaceOnUse"
       gradientTransform="translate(129.06522,1026.8622)"
       x1="15"
       y1="48.272732"
       x2="81"
       y2="48.272732" />
  </defs>
  <sodipodi:namedview
     id="base"
     pagecolor="#ffffff"
     bordercolor="#666666"
     borderopacity="1.0"
     inkscape:pageopacity="0.0"
     inkscape:pageshadow="2"
     inkscape:zoom="2.875"
     inkscape:cx="48"
     inkscape:cy="48"
     inkscape:document-units="px"
     inkscape:current-layer="layer1"
     showgrid="false"
     inkscape:window-width="584"
     inkscape:window-height="467"
     inkscape:window-x="132"
     inkscape:window-y="153"
     inkscape:window-maximized="0" />
  <metadata
     id="metadata2987">
    <rdf:RDF>
      <cc:Work
         rdf:about="">
        <dc:format>image/svg+xml</dc:format>
        <dc:type
           rdf:resource="http://purl.org/dc/dcmitype/StillImage" />
        <dc:title></dc:title>
      </cc:Work>
    </rdf:RDF>
  </metadata>
  <g
     inkscape:label="Layer 1"
     inkscape:groupmode="layer"
     id="layer1"
     transform="translate(0,-956.36218)">
    <g
       id="g4010">
      <rect
         transform="translate(0,4.7513198e-6)"
         y="964.36218"
         x="8"
         height="80"
         width="80"
         id="rect9283"
         style="fill:#000000;fill-opacity:1;stroke:none;filter:url(#filter6279-2)"
         rx="5"
         ry="5" />
      <rect
         transform="matrix(0,-1,1,0,0,0)"
         ry="5"
         rx="5"
         style="fill:url(#linearGradient3014);fill-opacity:1;stroke:none"
         id="rect9285"
         width="80"
         height="80"
         x="-1044.3622"
         y="8" />
      <g
         transform="translate(-129.06529,-71.717087)"
         id="g3998">
        <path
           style="opacity:0.05;fill:#000000;fill-opacity:1;stroke:none;display:inline"
           id="path3724"
           d="m 177.06522,1041.6122 c -20.1169,0 -37.25,13.5556 -37.25,31.25 0,10.0823 5.91798,18.6976 14.34375,24.2813 -0.15691,0.5253 -0.26659,1.039 -0.625,1.5937 -0.91988,1.4238 -2.13206,2.6471 -4.84375,3.4375 -0.0112,0 -0.02,0 -0.0312,0 -0.0171,0 -0.0136,-0.01 -0.0312,0 -0.0602,0.017 -0.12731,0.032 -0.125,0.031 0.003,-10e-4 -0.10648,0.043 -0.15625,0.062 -0.0124,0 -0.0319,0.032 -0.0312,0.031 l -0.125,0.031 a 1.2011555,1.2011555 0 0 0 -0.0312,0 l 0,0.031 a 1.2011555,1.2011555 0 0 0 -0.0625,0 1.2011555,1.2011555 0 0 0 0,0.031 1.2011555,1.2011555 0 0 0 -0.0312,0 1.2011555,1.2011555 0 0 0 -0.125,0.062 1.2011555,1.2011555 0 0 0 -0.0937,0.031 c 0,0 -0.043,0.062 -0.0937,0.094 a 1.2011555,1.2011555 0 0 0 -0.0312,0 c -0.012,0.01 -0.0194,0.024 -0.0312,0.031 -0.007,0 -0.0244,0 -0.0312,0 3.1e-4,0 -0.0294,5e-4 -0.0312,0 -0.0114,0.01 0.006,0.028 0,0.031 -0.006,0 -0.0256,0 -0.0312,0 -0.0173,0.01 -0.0138,0 -0.0625,0.031 a 1.2011555,1.2011555 0 0 0 -0.0625,0.031 c -0.0226,0.016 -0.003,0.01 -0.0312,0.031 -0.0834,0.05 -0.0186,0.03 -0.0625,0.062 2.6e-4,0 -0.0294,4e-4 -0.0312,0 a 1.2011555,1.2011555 0 0 0 -0.0625,0.062 c -0.0213,0.013 0.004,0.01 -0.0312,0.031 -0.0223,0.016 -0.002,-0.022 -0.0312,0 a 1.2011555,1.2011555 0 0 0 -0.0625,0.031 c -2e-4,10e-4 -0.004,0.033 0,0.031 0.004,0 -0.035,0 -0.0312,0 a 1.2011555,1.2011555 0 0 0 -0.21875,0.1875 c 0,0 -0.0392,0.063 -0.0937,0.125 -0.0273,0.031 -0.0712,0.037 -0.0937,0.062 -0.006,0.01 0.005,0.025 0,0.031 -0.005,0.01 -0.0266,-0.01 -0.0312,0 -10e-4,7e-4 0.003,0.029 0,0.031 -0.008,0.01 0.007,0.024 0,0.031 a 1.2011555,1.2011555 0 0 0 -0.0312,0.031 1.2011555,1.2011555 0 0 0 -0.0312,0 c -0.005,0 0.004,0.027 0,0.031 a 1.2011555,1.2011555 0 0 0 -0.0312,0 c -0.003,0 0.002,0.03 0,0.031 -0.002,0 -0.0312,-10e-5 -0.0312,0 a 1.2011555,1.2011555 0 0 0 -0.0625,0.062 c 0,0 -0.0545,0.07 -0.0937,0.125 -0.0196,0.027 -0.014,0.038 -0.0312,0.062 -0.005,0.01 -0.0338,0.037 -0.0312,0.031 a 1.2011555,1.2011555 0 0 0 -0.0312,0.031 1.2011555,1.2011555 0 0 0 0,0.031 c -0.0116,0.018 0.006,-0.03 -0.0312,0.031 a 1.2011555,1.2011555 0 0 0 -0.0312,0.031 c 0.008,-0.011 -0.0341,0.088 0,0.031 -0.007,0.01 -0.0242,-0.011 -0.0312,0 -0.006,0.01 0.006,0.022 0,0.031 a 1.2011555,1.2011555 0 0 0 -0.0625,0.062 1.2011555,1.2011555 0 0 0 -0.0625,0.125 c -0.002,0 1e-5,0.031 0,0.031 -0.008,0.018 -0.037,0.068 -0.0625,0.125 -0.0154,0.035 -0.0187,0.065 -0.0312,0.094 -0.0126,0.028 -0.006,-0.047 -0.0625,0.094 0.10388,-0.2598 0.0586,-0.1621 -0.0312,0.062 -0.0102,0.021 -0.0223,0.01 -0.0312,0.031 -0.008,0.02 0.007,0.012 0,0.031 l -0.0625,0.1562 a 1.2011555,1.2011555 0 0 0 -0.0625,0.3125 1.2011555,1.2011555 0 0 0 0,0.031 c -0.008,0.011 -0.0625,0.062 -0.0625,0.062 -0.006,0.028 0.004,0.01 0,0.031 -0.003,0.011 0.002,0.02 0,0.031 -0.004,0.016 -0.028,0.015 -0.0312,0.031 -0.004,0.021 0.003,0.012 0,0.031 l -0.0312,0.1562 a 1.2011555,1.2011555 0 0 0 0,0.031 c -0.006,0.027 0.004,0.01 0,0.031 -0.003,0.011 0.002,0.02 0,0.031 -0.005,0.023 0.003,0.011 0,0.031 -0.001,0.01 -0.03,-0.01 -0.0312,0 -0.0254,0.1267 -0.001,0.1141 0,0.1875 a 1.2011555,1.2011555 0 0 0 -0.0312,0.3125 l 0,0.1875 a 1.2011555,1.2011555 0 0 0 0,0.094 1.2011555,1.2011555 0 0 0 0,0.031 l 0,0.031 a 1.2011555,1.2011555 0 0 0 0,0.094 1.2011555,1.2011555 0 0 0 0,0.062 c 0,0 -0.008,0.062 0,0.125 0.004,0.031 0.0278,0.035 0.0312,0.062 0.004,0.027 -0.0492,-0.09 0,0.1563 0.003,0.016 0.0271,0.015 0.0312,0.031 0.002,0.01 -0.003,0.022 0,0.031 0.004,0.023 -0.006,0 0,0.031 a 1.2011555,1.2011555 0 0 0 0,0.031 l 0.0312,0.1562 a 1.2011555,1.2011555 0 0 0 0.125,0.2813 1.2011555,1.2011555 0 0 0 0,0.031 c -7.1e-4,0.017 0,0.094 0,0.094 0.009,0.022 0.0211,0.01 0.0312,0.031 0.0102,0.021 0.02,0.011 0.0312,0.031 -5.4e-4,0 0.0414,0.1347 0,0.031 a 1.2011555,1.2011555 0 0 0 0,0.031 l 0.0625,0.1562 a 1.2011555,1.2011555 0 0 0 0,0.031 c 0.009,0.022 0.0211,0.01 0.0312,0.031 0.0102,0.021 0.0201,0.011 0.0312,0.031 0.004,0.01 -0.005,0.022 0,0.031 a 1.2011555,1.2011555 0 0 0 0,0.031 1.2011555,1.2011555 0 0 0 0.0312,0.031 1.2011555,1.2011555 0 0 0 0,0.031 1.2011555,1.2011555 0 0 0 0.0312,0.031 1.2011555,1.2011555 0 0 0 0.0625,0.125 1.2011555,1.2011555 0 0 0 0,0.031 1.2011555,1.2011555 0 0 0 0.0312,0.094 l 0.0937,0.1563 c -0.002,0 0.12745,0.1907 0.125,0.1875 l 0.0937,0.125 a 1.2011555,1.2011555 0 0 0 0.25,0.25 1.2011555,1.2011555 0 0 0 0.0625,0.031 c 0.034,0.039 -0.0159,0.015 0.0312,0.062 a 1.2011555,1.2011555 0 0 0 0.0937,0.094 c 0,0 0.0241,0.032 0.0625,0.062 0.006,0 0.0293,0 0.0312,0 l 0.0312,0.031 c 0.002,0 0.0173,0.021 0.0312,0.031 a 1.2011555,1.2011555 0 0 0 0.0312,0.031 c 4e-5,0 0.0277,0 0.0312,0 0.002,0 -0.003,0.029 0,0.031 a 1.2011555,1.2011555 0 0 0 0.0937,0.094 l 0.0312,0 a 1.2011555,1.2011555 0 0 0 0.0937,0.094 c -0.26162,-0.1962 -0.1894,-0.1343 0.0312,0.031 0.0462,0.035 0.0306,0.011 0.0625,0.031 a 1.2011555,1.2011555 0 0 0 0.21875,0.1562 c 0,0 0.087,0.032 0.15625,0.062 0.0346,0.015 0.0654,0.019 0.0937,0.031 0.0284,0.013 -0.0474,0.01 0.0937,0.062 -0.26005,-0.1041 -0.16189,-0.059 0.0625,0.031 0.0212,0.01 0.009,0.022 0.0312,0.031 0.02,0.01 0.0118,-0.01 0.0312,0 l 0.15625,0.062 0.15625,0.062 a 1.2011555,1.2011555 0 0 0 0.3125,0.062 c 0.004,0 0.0282,0 0.0312,0 0.0109,0.01 0.0625,0.062 0.0625,0.062 0.0275,0.01 0.008,0 0.0312,0 0.01,0 0.0214,0 0.0312,0 0.0162,0 0.0148,0.028 0.0312,0.031 0.0211,0 0.0117,0 0.0312,0 l 0.15625,0.031 a 1.2011555,1.2011555 0 0 0 0.1875,0 c -0.002,-2e-4 0.12728,0 0.125,0 -0.002,0 0.0565,0 0.0937,0 0.0112,0 0.02,0 0.0312,0 -2e-5,8e-4 2e-5,0.031 0,0.031 0.009,0 0.0195,0 0.0312,0 0.0118,0 0.0538,0 0.0625,0 l 0,-0.031 c 9.75377,0.9583 16.71711,-3.1404 20.90625,-6.9375 2.09126,0.3347 4.23592,0.5937 6.53125,0.5937 20.1169,0 37.25,-13.5556 37.25,-31.25 0,-17.6944 -17.1331,-31.25 -37.25,-31.25 z m -27.5625,68.5 a 1.2011555,1.2011555 0 0 0 0.0312,0 l 0,0.1563 -0.0312,-0.1563 z"
           inkscape:connector-curvature="0" />
        <path
           style="opacity:0.05;fill:#000000;fill-opacity:1;stroke:none;display:inline"
           id="path3720"
           d="m 177.06522,1042.7997 c -19.5792,0 -36.0625,13.1484 -36.0625,30.0625 0,9.945 5.97643,18.4908 14.59375,23.875 -0.21998,0.8336 -0.43648,1.6873 -1.0625,2.6563 -1.03136,1.5963 -2.54799,3.0757 -5.53125,3.9375 -0.0108,0 -0.0204,0 -0.0312,0 a 1.0827956,1.0827956 0 0 0 -0.1875,0.062 l -0.15625,0.062 0.40625,1 c -0.21083,-0.4987 -0.43017,-1.003 -0.4375,-1 -0.0147,0.01 -0.0117,0.023 -0.0312,0.031 -0.0195,0.01 -0.0479,0.025 -0.0625,0.031 -0.0146,0.01 -0.0312,0 -0.0312,0 0,0 -0.23834,0.1475 -0.25,0.1562 -0.0117,0.01 -0.0469,0.019 -0.0625,0.031 0.0147,-0.01 -0.0625,0.031 -0.0625,0.031 -0.0113,0.01 -0.0225,0.026 -0.0312,0.031 -0.0146,0.01 -0.0312,0 -0.0312,0 0,0 -0.082,0.085 -0.0937,0.094 -0.0117,0.01 -0.0469,0.019 -0.0625,0.031 -0.0156,0.012 -0.0196,0.022 -0.0312,0.031 -0.0117,0.01 -0.0312,0 -0.0312,0 0,0 -0.21001,0.2383 -0.21875,0.25 -0.009,0.012 -0.0195,0.016 -0.0312,0.031 -0.006,0.01 0.006,0.025 0,0.031 -0.002,0 -0.0291,0 -0.0312,0 -0.0133,0.016 -0.0312,0.031 -0.0312,0.031 -0.0117,0.012 -0.0312,0.031 -0.0312,0.031 0,0 -0.14748,0.2041 -0.15625,0.2188 -0.009,0.015 -0.0195,0.043 -0.0312,0.062 -0.0117,0.02 -0.0225,0.017 -0.0312,0.031 -0.009,0.015 -0.0312,0.031 -0.0312,0.031 -0.004,0.01 0.004,0.027 0,0.031 -0.009,0.012 -0.0312,0 -0.0312,0 0,0 -0.11916,0.2666 -0.125,0.2813 -0.006,0.015 -0.0234,0.043 -0.0312,0.062 -0.008,0.02 -0.0254,0.017 -0.0312,0.031 -0.006,0.015 0,0.031 0,0.031 l -0.0625,0.1562 1,0.4063 1.03125,0.3437 c 0,0 -2.09083,-0.5458 -2.09375,-0.5312 -0.003,0.014 0.004,0.043 0,0.062 -0.004,0.02 -0.0283,0.017 -0.0312,0.031 -0.003,0.015 0,0.031 0,0.031 l -0.0312,0.1562 0.71875,0.1563 c -0.32438,-0.054 -0.71776,-0.13 -0.71875,-0.125 -0.003,0.015 0.004,0.043 0,0.062 -0.004,0.02 -0.0283,0.017 -0.0312,0.031 -0.003,0.015 0,0.031 0,0.031 l 1.0625,0.2187 -1.09375,0 0,0.1875 1.09375,0 c -0.5413,0.01 -1.09375,0.024 -1.09375,0.031 0,0.015 0,0.043 0,0.062 0,0.02 0,0.017 0,0.031 0,0.015 0,0.031 0,0.031 0,0 0.0283,0.2353 0.0312,0.25 0.003,0.015 0.0273,0.012 0.0312,0.031 0.004,0.019 -0.003,0.048 0,0.062 0.003,0.015 0,0.031 0,0.031 l 0.0312,0.1562 1.0625,-0.2187 1.03125,-0.2813 c 0,0 -2.03709,0.7041 -2.03125,0.7188 0.006,0.015 0.0234,0.012 0.0312,0.031 0.008,0.019 0.0254,0.048 0.0312,0.062 0.006,0.015 0,0.031 0,0.031 l 0.0625,0.1562 0.8125,-0.3437 c -0.39954,0.1764 -0.81494,0.3689 -0.8125,0.375 0.006,0.015 0.0234,0.012 0.0312,0.031 0.008,0.019 0.0254,0.048 0.0312,0.062 0.006,0.015 0,0.031 0,0.031 l 1,-0.4063 -0.9375,0.5625 0.0937,0.1563 a 1.0827956,1.0827956 0 0 0 0.0625,0.094 l 0.0937,0.125 0.875,-0.6562 0.84375,-0.6875 c 0,0 -1.60544,1.457 -1.59375,1.4687 0.0117,0.012 0.0469,0.016 0.0625,0.031 0.0156,0.016 0.0195,0.051 0.0312,0.062 0,0 0.14459,0.1162 0.15625,0.125 0.0117,0.01 0.0156,0.02 0.0312,0.031 0.007,0.01 0.0234,0.023 0.0312,0.031 0.008,0.01 0.0263,0 0.0312,0 0.007,0.01 -0.006,0.025 0,0.031 0.0117,0.012 0.0312,0.031 0.0312,0.031 0,0 0.11328,0.085 0.125,0.094 0.0117,0.01 0.0156,0.019 0.0312,0.031 0.0156,0.012 0.0508,0.022 0.0625,0.031 0.0117,0.01 0,0.031 0,0.031 0,0 0.26667,0.1191 0.28125,0.125 0.0146,0.01 0.043,0.023 0.0625,0.031 0.0195,0.01 0.0166,0.025 0.0312,0.031 0.0147,0.01 0.0312,0 0.0312,0 l 0.15625,0.062 0.15625,0.062 0.40625,-1 0.3125,-1.0313 c 0,0 -0.5146,2.0908 -0.5,2.0938 0.0146,0 0.043,0 0.0625,0 0.0195,0 0.0166,0.028 0.0312,0.031 0.0146,0 0.0312,0 0.0312,0 l 0.15625,0.031 a 1.0827956,1.0827956 0 0 0 0.125,0 1.0827956,1.0827956 0 0 0 0.0625,0.031 c -0.001,0 0.0948,0 0.0937,0 l 0,-0.031 c 9.7462,1.0016 16.57999,-3.2481 20.5625,-7 2.2149,0.3695 4.48871,0.6562 6.875,0.6562 19.5792,0 36.0625,-13.1484 36.0625,-30.0625 0,-16.9141 -16.4833,-30.0625 -36.0625,-30.0625 z m 2.78125,15.125 c 0.60149,0 0.59144,-0.013 1,0.375 0.0155,0.015 0.0144,0.015 0.0312,0.031 a 1.0827956,1.0827956 0 0 0 0.0312,0.031 c 0.46322,0.4365 0.34374,0.1713 0.34375,0.7188 -1e-5,0.5575 0.0835,0.3637 -0.3125,0.7187 -0.0141,0.013 -0.018,0.019 -0.0312,0.031 -0.37162,0.3389 -0.46074,0.375 -1.0625,0.375 -0.6068,0 -0.713,-0.035 -1.09375,-0.375 -0.0239,-0.022 -0.0103,-0.012 -0.0312,-0.031 -0.39602,-0.355 -0.3125,-0.1612 -0.3125,-0.7187 0,-0.587 -0.13266,-0.3065 0.34375,-0.75 0.43891,-0.4087 0.47447,-0.4063 1.09375,-0.4063 z m -3.46875,12.375 c 0.51469,0.092 1.13578,0.1416 1.34375,0.3125 -0.002,0 0.0954,0.095 0.0937,0.094 0.25852,0.2267 0.33586,0.3165 0.375,0.4062 0.0391,0.09 0.0625,0.2701 0.0625,0.6875 -1e-5,0.2233 0.0325,0.6067 -0.0312,1.2188 a 1.0827956,1.0827956 0 0 0 -0.0312,0.031 c -0.0421,0.5047 -0.12211,0.9799 -0.25,1.4063 a 1.0827956,1.0827956 0 0 0 0,0.031 l -1.875,6.625 0,0.031 c -0.17716,0.6223 -0.36212,1.318 -0.5,2.0937 -0.13701,0.7706 -0.25002,1.4556 -0.25,2.125 -1e-5,0.7131 0.15869,1.5417 0.46875,2.3438 -0.70023,-0.093 -1.17268,-0.2396 -1.4375,-0.4688 -0.522,-0.4765 -0.46875,-0.3718 -0.46875,-1.0937 0,-0.3548 0.002,-0.7818 0.0625,-1.2188 0.0607,-0.4494 0.19785,-1.0149 0.34375,-1.625 a 1.0827956,1.0827956 0 0 0 0.0312,-0.3125 l 1.65625,-5.9375 a 1.0827956,1.0827956 0 0 0 0.0312,-0.031 1.0827956,1.0827956 0 0 0 0.0937,-0.2813 1.0827956,1.0827956 0 0 0 0,-0.062 l 0.0312,0 a 1.0827956,1.0827956 0 0 0 0,-0.031 c 0.01,-0.04 0.0261,-0.074 0.0312,-0.094 a 1.0827956,1.0827956 0 0 0 0,-0.062 c 0.14901,-0.5767 0.29577,-1.1715 0.40625,-1.75 0.0835,-0.4373 0.079,-0.449 0,-0.031 0.14704,-0.7173 0.24999,-1.4238 0.25,-2.125 0,-0.695 -0.15336,-1.4965 -0.4375,-2.2813 z"
           inkscape:connector-curvature="0" />
        <path
           style="opacity:0.12000002;fill:#000000;fill-opacity:1;stroke:none;display:inline"
           id="path3716"
           d="m 177.06522,1043.8935 c -19.09686,0 -34.96875,12.7615 -34.96875,28.9687 0,9.8126 6.01523,18.3102 14.8125,23.5 -0.22779,1.0474 -0.61321,2.3008 -1.46875,3.625 -1.14903,1.7784 -2.94705,3.4814 -6.21875,4.4063 a 0.98625776,0.98625776 0 0 0 -0.0312,0 c 1e-4,-10e-5 -0.15635,0.062 -0.15625,0.062 1e-4,-10e-5 -0.15635,0.062 -0.15625,0.062 1e-4,-10e-5 -0.12509,0.094 -0.125,0.094 9e-5,-10e-5 -0.15634,0.094 -0.15625,0.094 9e-5,-10e-5 -0.12508,0.094 -0.125,0.094 8e-5,-10e-5 -0.0938,0.1251 -0.0937,0.125 7e-5,-10e-5 -0.12507,0.1251 -0.125,0.125 7e-5,-10e-5 -0.0938,0.1563 -0.0937,0.1563 6e-5,-10e-5 -0.0938,0.125 -0.0937,0.125 5e-5,-10e-5 -0.0625,0.1563 -0.0625,0.1562 4e-5,-10e-5 -0.0625,0.1564 -0.0625,0.1563 3e-5,-2e-4 -0.0313,0.1563 -0.0312,0.1562 3e-5,-10e-5 -0.0313,0.1564 -0.0312,0.1563 2e-5,-2e-4 -0.0313,0.1563 -0.0312,0.1562 1e-5,-10e-5 0,0.1876 0,0.1875 0,-10e-5 1e-5,0.1564 0,0.1563 -1e-5,-2e-4 0.0313,0.1563 0.0312,0.1562 -2e-5,-10e-5 0.0313,0.1564 0.0312,0.1563 -3e-5,-2e-4 0.0625,0.1563 0.0625,0.1562 -4e-5,-10e-5 0.0625,0.1564 0.0625,0.1563 -5e-5,-10e-5 0.0625,0.1563 0.0625,0.1562 -6e-5,-10e-5 0.0938,0.1563 0.0937,0.1563 -6e-5,-10e-5 0.0938,0.125 0.0937,0.125 -7e-5,-10e-5 0.12508,0.125 0.125,0.125 -8e-5,-10e-5 0.12508,0.094 0.125,0.094 -8e-5,-10e-5 0.12509,0.1251 0.125,0.125 -9e-5,-10e-5 0.12509,0.094 0.125,0.094 -9e-5,-10e-5 0.15635,0.062 0.15625,0.062 -1e-4,-10e-5 0.15635,0.062 0.15625,0.062 -1e-4,-10e-5 0.15635,0.062 0.15625,0.062 -1e-4,-10e-5 0.15636,0.031 0.15625,0.031 -1.1e-4,0 0.15636,0.031 0.15625,0.031 a 0.98625776,0.98625776 0 0 0 0.0312,0 c 9.75463,1.0601 16.45215,-3.3593 20.25,-7.0625 2.33075,0.4103 4.72797,0.6875 7.21875,0.6875 19.09686,0 34.96875,-12.7615 34.96875,-28.9688 0,-16.2072 -15.87189,-28.9687 -34.96875,-28.9687 z m 2.78125,12.9375 c 0.79039,0 1.21453,0.1818 1.78125,0.7187 a 0.98625776,0.98625776 0 0 0 0.0312,0 0.98625776,0.98625776 0 0 0 0,0.031 c 0.54253,0.5112 0.68749,0.8025 0.6875,1.5 -1e-5,0.7096 -0.1205,1.0033 -0.6875,1.5312 -0.53838,0.4935 -1.01389,0.6875 -1.8125,0.6875 -0.80026,0 -1.29258,-0.1912 -1.84375,-0.6875 -0.56701,-0.5279 -0.6875,-0.8217 -0.6875,-1.5312 0,-0.7096 0.12045,-1.0033 0.6875,-1.5313 0.5686,-0.5294 1.05188,-0.7187 1.84375,-0.7187 z m -4.1875,12.1875 c 1.4004,0 2.20912,0.3055 2.75,0.75 a 0.98625776,0.98625776 0 0 0 0.0312,0.031 0.98625776,0.98625776 0 0 0 0.0937,0.094 c 0.625,0.5481 0.81249,0.9324 0.8125,1.9062 -1e-5,0.1953 0.007,0.6714 -0.0625,1.3438 -0.0493,0.5911 -0.16629,1.1376 -0.3125,1.625 l -1.875,6.6562 c -0.173,0.6054 -0.33681,1.2578 -0.46875,2 -0.13266,0.7461 -0.21877,1.3796 -0.21875,1.9375 -1e-5,1.1526 0.24507,2.4816 1.3125,3.3438 -0.38105,0.057 -0.65868,0.1875 -1.125,0.1875 -1.51633,0 -2.38457,-0.3381 -2.96875,-0.8438 -0.63406,-0.5788 -0.84375,-1.0145 -0.84375,-1.9062 0,-0.3997 0.0249,-0.8791 0.0937,-1.375 0.0693,-0.5131 0.19431,-1.0939 0.34375,-1.7188 l -0.0312,0 1.84375,-6.5625 a 0.98625776,0.98625776 0 0 0 0,-0.031 l 0.0312,0 a 0.98625776,0.98625776 0 0 0 0,-0.062 c 0.0114,-0.044 0.02,-0.082 0.0312,-0.125 0.15396,-0.5958 0.30098,-1.1675 0.40625,-1.7188 0.002,-0.01 -0.002,-0.022 0,-0.031 0.13951,-0.673 0.21874,-1.3185 0.21875,-1.9375 -1e-5,-1.1022 -0.19817,-2.3322 -1.125,-3.2188 -0.0648,-0.062 -0.15111,-0.07 -0.21875,-0.125 0.42556,-0.08 0.91404,-0.2187 1.28125,-0.2187 z"
           inkscape:connector-curvature="0" />
        <path
           style="opacity:0.23999999;fill:#000000;fill-opacity:1;stroke:none;display:inline"
           id="path3712"
           d="m 177.06522,1044.8935 c -18.65968,0 -33.96875,12.4083 -33.96875,27.9687 0,9.6667 5.99804,18.0893 14.9375,23.0938 -0.21052,1.1926 -0.65132,2.8619 -1.75,4.5625 -1.25507,1.9425 -3.29009,3.8256 -6.78125,4.8125 a 0.98224108,0.98224108 0 0 0 0.1875,1.9062 c 9.69048,1.0532 16.24568,-3.4959 19.84375,-7.125 2.42886,0.4545 4.93436,0.7188 7.53125,0.7188 18.65968,0 33.96875,-12.4084 33.96875,-27.9688 0,-15.5604 -15.30907,-27.9687 -33.96875,-27.9687 z m 2.78125,10.9375 c 1.0077,0 1.76478,0.3331 2.46875,1 a 0.98224108,0.98224108 0 0 0 0.0312,0 c 0.71283,0.6637 0.99999,1.3343 1,2.25 -1e-5,0.9157 -0.28719,1.5863 -1,2.25 -0.70031,0.6511 -1.48384,0.9687 -2.5,0.9687 -1.01619,0 -1.81617,-0.3153 -2.53125,-0.9687 -0.71283,-0.6637 -1.00001,-1.3343 -1,-2.25 -1e-5,-0.9157 0.28715,-1.5863 1,-2.25 0.71868,-0.6691 1.52353,-1 2.53125,-1 z m -4.1875,12.1875 c 1.64725,0 2.77666,0.4099 3.53125,1.0937 a 0.98224108,0.98224108 0 0 0 0,0.031 c 0.7892,0.692 1.15624,1.4777 1.15625,2.6562 -2e-5,0.2499 -0.0208,0.7374 -0.0937,1.4375 -0.0553,0.6639 -0.17974,1.2658 -0.34375,1.8125 l -1.875,6.6563 c -0.16412,0.5743 -0.31132,1.1964 -0.4375,1.9062 -0.12645,0.7112 -0.18751,1.277 -0.1875,1.75 -1e-5,1.0302 0.19184,1.9603 0.9375,2.5625 0.71475,0.5773 1.61239,0.6875 2.6875,0.6875 0.32408,0 0.70232,-0.099 1.0625,-0.1562 -1.02085,0.3902 -2.02344,0.7748 -2.6875,1 a 0.98224108,0.98224108 0 0 0 -0.0312,0 c -0.76479,0.2722 -1.67463,0.4375 -2.78125,0.4375 -1.67508,0 -2.82876,-0.4045 -3.625,-1.0938 -0.80405,-0.7269 -1.1875,-1.5302 -1.1875,-2.6562 0,-0.4735 0.0531,-0.9824 0.125,-1.5 0.0742,-0.5489 0.18711,-1.1575 0.34375,-1.8125 l 1.84375,-6.5938 a 0.98224108,0.98224108 0 0 0 0,-0.031 c 0.17427,-0.6655 0.32733,-1.2927 0.4375,-1.875 0.13127,-0.6236 0.18749,-1.1867 0.1875,-1.75 -1e-5,-0.9921 -0.16613,-1.8817 -0.8125,-2.5 -0.65672,-0.6282 -1.56746,-0.7813 -2.6875,-0.7813 -0.33666,0 -0.64828,0.096 -0.96875,0.1563 0.85579,-0.3253 1.7067,-0.6597 2.5,-0.9063 a 0.98224108,0.98224108 0 0 0 0.0312,0 c 1.0551,-0.3422 1.99738,-0.5312 2.875,-0.5312 z"
           inkscape:connector-curvature="0" />
        <path
           style="fill:url(#linearGradient4006);fill-opacity:1;stroke:none;display:inline"
           id="path3620"
           inkscape:connector-curvature="0"
           d="m 177.06522,1044.8622 c -18.2254,0 -33,12.0883 -33,27 0,9.4984 5.99976,17.8435 15.0625,22.6563 -0.34463,2.5087 -1.91401,8.6498 -9.34375,10.75 9.62292,1.0458 16.0136,-3.6464 19.40625,-7.1875 2.52351,0.5055 5.16107,0.7812 7.875,0.7812 18.2254,0 33,-12.0883 33,-27 0,-14.9117 -14.7746,-27 -33,-27 z m 2.78125,9 c 1.23427,0 2.28766,0.4272 3.15625,1.25 0.88379,0.8229 1.31248,1.8107 1.3125,2.9688 -2e-5,1.1581 -0.42871,2.1459 -1.3125,2.9687 -0.86859,0.8076 -1.92198,1.2188 -3.15625,1.2188 -1.2343,0 -2.3037,-0.4112 -3.1875,-1.2188 -0.88382,-0.8228 -1.31251,-1.8106 -1.3125,-2.9687 -1e-5,-1.1581 0.42868,-2.1459 1.3125,-2.9688 0.8838,-0.8228 1.9532,-1.25 3.1875,-1.25 z m -4.1875,12.1875 c 1.81332,0 3.21225,0.46 4.1875,1.3438 0.99046,0.8685 1.46874,2.0043 1.46875,3.4062 -2e-5,0.2895 -0.0176,0.7998 -0.0937,1.5313 -0.061,0.7314 -0.19216,1.3904 -0.375,2 l -1.875,6.6562 c -0.15239,0.5333 -0.28436,1.1268 -0.40625,1.8125 -0.12192,0.6857 -0.18751,1.212 -0.1875,1.5625 -1e-5,0.8838 0.19755,1.4925 0.59375,1.8125 0.39618,0.32 1.08725,0.4688 2.0625,0.4688 0.45713,0 0.98344,-0.066 1.5625,-0.2188 0.57903,-0.1676 0.99094,-0.3156 1.25,-0.4375 l -0.5,2.0625 c -1.50859,0.5943 -2.72597,1.039 -3.625,1.3438 -0.89906,0.32 -1.93644,0.4687 -3.125,0.4687 -1.82858,0 -3.2603,-0.4287 -4.28125,-1.3125 -1.00572,-0.899 -1.5,-2.0348 -1.5,-3.4062 0,-0.5334 0.0488,-1.0765 0.125,-1.625 0.0762,-0.5638 0.17613,-1.2053 0.34375,-1.9063 l 1.875,-6.6562 c 0.16761,-0.64 0.29958,-1.2487 0.40625,-1.8125 0.1219,-0.5791 0.1875,-1.0902 0.1875,-1.5625 0,-0.8534 -0.18078,-1.446 -0.53125,-1.7813 -0.35048,-0.3352 -1.00953,-0.5312 -2,-0.5312 -0.48762,0 -0.98191,0.098 -1.5,0.25 -0.50286,0.1524 -0.94679,0.3003 -1.3125,0.4375 l 0.5,-2.0625 c 1.23428,-0.5029 2.43488,-0.9308 3.5625,-1.2813 1.12761,-0.3657 2.18178,-0.5625 3.1875,-0.5625 z" />
        <path
           style="fill:url(#linearGradient4008);fill-opacity:1;stroke:none;display:inline"
           id="path3666"
           inkscape:connector-curvature="0"
           d="m 177.06522,1044.8622 c -18.2254,0 -33,12.0883 -33,27 0,0.2084 0.0255,0.4177 0.0312,0.625 0.88384,-14.266 15.3129,-25.625 32.96875,-25.625 17.8111,0 32.31803,11.5574 32.96875,26 0.0151,-0.3359 0.0312,-0.661 0.0312,-1 0,-14.9117 -14.7746,-27 -33,-27 z m -1.59375,14.2188 c -0.0773,0.3159 -0.125,0.6537 -0.125,1 -1e-5,1.1581 0.42868,2.1459 1.3125,2.9687 0.8838,0.8076 1.9532,1.2188 3.1875,1.2188 1.23427,0 2.28766,-0.4112 3.15625,-1.2188 0.88379,-0.8228 1.31248,-1.8106 1.3125,-2.9687 0,-0.3463 -0.0477,-0.6841 -0.125,-1 -0.18135,0.7408 -0.56793,1.3919 -1.1875,1.9687 -0.86859,0.8076 -1.92198,1.2188 -3.15625,1.2188 -1.2343,0 -2.3037,-0.4112 -3.1875,-1.2188 -0.61959,-0.5768 -1.00615,-1.2279 -1.1875,-1.9687 z m -4.25,10.1875 c -0.31552,0 -0.64301,0.055 -0.96875,0.125 -0.44524,0.1653 -0.88731,0.314 -1.34375,0.5 l -0.5,2.0625 c 0.36571,-0.1372 0.80964,-0.2851 1.3125,-0.4375 0.51809,-0.1524 1.01238,-0.25 1.5,-0.25 0.99047,0 1.64952,0.196 2,0.5312 0.19739,0.1888 0.34975,0.4598 0.4375,0.8125 0.0564,-0.3612 0.0937,-0.7138 0.0937,-1.0312 0,-0.8534 -0.18078,-1.446 -0.53125,-1.7813 -0.35048,-0.3352 -1.00953,-0.5312 -2,-0.5312 z m 10.03125,2.75 c -0.011,0.1311 -0.0157,0.1628 -0.0312,0.3125 -0.061,0.7314 -0.19216,1.3904 -0.375,2 l -1.875,6.6562 c -0.15239,0.5333 -0.28436,1.1268 -0.40625,1.8125 -0.12192,0.6857 -0.18751,1.212 -0.1875,1.5625 0,0.3737 0.0543,0.6945 0.125,0.9688 0.0258,-0.1728 0.0269,-0.3309 0.0625,-0.5313 0.12189,-0.6857 0.25386,-1.2792 0.40625,-1.8125 l 1.875,-6.6562 c 0.18284,-0.6096 0.31404,-1.2686 0.375,-2 0.0762,-0.7315 0.0937,-1.2418 0.0937,-1.5313 0,-0.2735 -0.0259,-0.5281 -0.0625,-0.7812 z m -10.375,13.9062 c -0.0457,0.4086 -0.0625,0.8193 -0.0625,1.2188 0,1.3714 0.49428,2.5072 1.5,3.4062 1.02095,0.8838 2.45267,1.3125 4.28125,1.3125 1.18856,0 2.22594,-0.1487 3.125,-0.4687 0.89903,-0.3048 2.11641,-0.7495 3.625,-1.3438 l 0.5,-2.0625 c -0.25906,0.1219 -0.67097,0.2699 -1.25,0.4375 -0.18875,0.05 -0.35428,0.062 -0.53125,0.094 -0.84103,0.317 -1.76198,0.6777 -2.34375,0.875 -0.89906,0.32 -1.93644,0.4687 -3.125,0.4687 -1.82858,0 -3.2603,-0.4287 -4.28125,-1.3125 -0.80328,-0.7181 -1.27801,-1.6054 -1.4375,-2.625 z m -12.125,10.375 c -0.78887,2.9258 -2.94211,7.2652 -8.96875,8.9688 1.4386,0.1563 2.79885,0.1708 4.09375,0.094 3.95088,-2.7354 4.98141,-6.8885 5.25,-8.8437 -0.1292,-0.069 -0.24706,-0.1488 -0.375,-0.2188 z" />
      </g>
    </g>
  </g>
</svg>
