<?xml version="1.0" encoding="UTF-8" standalone="no"?>
<!-- Created with Inkscape (http://www.inkscape.org/) -->
<svg id="svg2982" xmlns:rdf="http://www.w3.org/1999/02/22-rdf-syntax-ns#" xmlns="http://www.w3.org/2000/svg" height="96" width="96" version="1.1" xmlns:cc="http://creativecommons.org/ns#" xmlns:xlink="http://www.w3.org/1999/xlink" xmlns:dc="http://purl.org/dc/elements/1.1/">
 <defs id="defs2984">
  <filter id="filter6279-2" color-interpolation-filters="sRGB">
   <feGaussianBlur id="feGaussianBlur6281-1" stdDeviation="0.8"/>
  </filter>
  <linearGradient id="linearGradient3014" y2="1004.4" gradientUnits="userSpaceOnUse" x2="88" gradientTransform="translate(-1052.4 -956.36)" y1="1004.4" x1="8">
   <stop id="stop2883-3" style="stop-color:#df880b" offset="0"/>
   <stop id="stop2885-3" style="stop-color:#f7c15a" offset="1"/>
  </linearGradient>
  <linearGradient id="linearGradient3021" y2="16.973" gradientUnits="userSpaceOnUse" x2="46.655" gradientTransform="translate(9.5367e-7 956.12)" y1="75.562" x1="48.082">
   <stop id="stop3733-2" style="stop-color:#dcdcdc" offset="0"/>
   <stop id="stop3757-0" style="stop-color:#ebebeb" offset=".30654"/>
   <stop id="stop3737-6" style="stop-color:#fff" offset=".70706"/>
   <stop id="stop3759-8" style="stop-color:#fafafa" offset=".84501"/>
   <stop id="stop3735-9" style="stop-color:#f0f0f0" offset="1"/>
  </linearGradient>
 </defs>
 <metadata id="metadata2987">
  <rdf:RDF>
   <cc:Work rdf:about="">
    <dc:format>image/svg+xml</dc:format>
    <dc:type rdf:resource="http://purl.org/dc/dcmitype/StillImage"/>
    <dc:title/>
   </cc:Work>
  </rdf:RDF>
 </metadata>
 <g id="layer1" transform="translate(0 -956.36)">
  <g id="g3812">
   <rect id="rect9283" ry="5" style="filter:url(#filter6279-2)" rx="5" transform="translate(0 .0000047513)" height="80" width="80" y="964.36" x="8"/>
   <rect id="rect9285" style="fill:url(#linearGradient3014)" rx="5" transform="rotate(-90)" ry="5" width="80" y="8" x="-1044.4" height="80"/>
   <path id="path3724" style="opacity:.05" d="m48 969.87c-20.117 0-37.25 13.556-37.25 31.25 0 10.082 5.918 18.698 14.344 24.281-0.15691 0.5253-0.26659 1.039-0.625 1.5937-0.91988 1.4238-2.1321 2.6471-4.8438 3.4375h-0.03125c-0.01706 0-0.01361-0.01-0.03125 0-0.06018 0.017-0.12731 0.032-0.125 0.031 0.0027-0.0009-0.10648 0.043-0.15625 0.062-0.01244 0-0.03191 0.031-0.03125 0.031l-0.125 0.031a1.2012 1.2012 0 0 0 -0.03125 0v0.031a1.2012 1.2012 0 0 0 -0.0625 0 1.2012 1.2012 0 0 0 0 0.031 1.2012 1.2012 0 0 0 -0.03125 0 1.2012 1.2012 0 0 0 -0.125 0.062 1.2012 1.2012 0 0 0 -0.09375 0.031s-0.04304 0.062-0.09375 0.094a1.2012 1.2012 0 0 0 -0.03125 0c-0.01203 0.01-0.0194 0.024-0.03125 0.031h-0.03125c0.000311 0-0.02944 0.0005-0.03125 0-0.01135 0.01 0.0064 0.028 0 0.031h-0.03125c-0.0173 0.01-0.0138 0-0.0625 0.031a1.2012 1.2012 0 0 0 -0.0625 0.031c-0.02259 0.016-0.0032 0.01-0.03125 0.031-0.08339 0.05-0.01856 0.03-0.0625 0.062 0.000255 0-0.02938 0.0005-0.03125 0a1.2012 1.2012 0 0 0 -0.0625 0.062c-0.02131 0.013 0.0037 0.01-0.03125 0.031-0.02227 0.016-0.0025-0.022-0.03125 0a1.2012 1.2012 0 0 0 -0.0625 0.031c-0.0002 0.001-0.0036 0.033 0 0.031h-0.03125a1.2012 1.2012 0 0 0 -0.21875 0.1875s-0.03924 0.063-0.09375 0.125c-0.02725 0.031-0.07117 0.037-0.09375 0.062-0.0056 0.01 0.0051 0.025 0 0.031-0.0051 0.01-0.02656-0.01-0.03125 0-0.0011 0.0007 0.0026 0.029 0 0.031-0.0076 0.01 0.0073 0.024 0 0.031a1.2012 1.2012 0 0 0 -0.03125 0.031 1.2012 1.2012 0 0 0 -0.03125 0c-0.0052 0 0.0042 0.027 0 0.031a1.2012 1.2012 0 0 0 -0.03125 0c-0.0029 0 0.0016 0.03 0 0.031h-0.03125a1.2012 1.2012 0 0 0 -0.0625 0.062s-0.05453 0.07-0.09375 0.125c-0.01961 0.027-0.01399 0.038-0.03125 0.062-0.0048 0.01-0.03376 0.037-0.03125 0.031a1.2012 1.2012 0 0 0 -0.03125 0.031 1.2012 1.2012 0 0 0 0 0.031c-0.01159 0.018 0.0056-0.03-0.03125 0.031a1.2012 1.2012 0 0 0 -0.03125 0.031c0.0038-0.01 0.0052 0.015 0 0.031-0.0066 0.01-0.02415-0.011-0.03125 0-0.006 0.01 0.0056 0.022 0 0.031a1.2012 1.2012 0 0 0 -0.0625 0.062 1.2012 1.2012 0 0 0 -0.0625 0.125c-0.0021 0 0.000015 0.031 0 0.031-0.0078 0.017-0.03697 0.068-0.0625 0.125-0.01543 0.035-0.01866 0.065-0.03125 0.094-0.01259 0.028-0.0061-0.047-0.0625 0.094 0.10388-0.2597 0.05856-0.162-0.03125 0.062-0.01017 0.021-0.02229 0.01-0.03125 0.031-0.008 0.02 0.0069 0.012 0 0.031l-0.0625 0.1562a1.2012 1.2012 0 0 0 -0.0625 0.3125 1.2012 1.2012 0 0 0 0 0.031c-0.0082 0.011-0.0625 0.062-0.0625 0.062-0.0055 0.028 0.004 0.01 0 0.031-0.0027 0.011 0.0023 0.02 0 0.031-0.0042 0.016-0.02797 0.015-0.03125 0.031-0.0042 0.021 0.0032 0.012 0 0.031l-0.03125 0.1562a1.2012 1.2012 0 0 0 0 0.031c-0.0055 0.027 0.004 0.01 0 0.031-0.0027 0.011 0.0023 0.02 0 0.031-0.0046 0.023 0.0033 0.011 0 0.031-0.0014 0.01-0.02995-0.01-0.03125 0-0.02535 0.1268-0.001 0.1141 0 0.1875a1.2012 1.2012 0 0 0 -0.03125 0.3125v0.1875a1.2012 1.2012 0 0 0 0 0.094 1.2012 1.2012 0 0 0 0 0.031v0.031a1.2012 1.2012 0 0 0 0 0.094 1.2012 1.2012 0 0 0 0 0.062s-0.0077 0.063 0 0.125c0.0038 0.031 0.02777 0.035 0.03125 0.062 0.0035 0.027-0.04918-0.09 0 0.1563 0.0033 0.016 0.02708 0.015 0.03125 0.031 0.0025 0.01-0.0028 0.022 0 0.031 0.004 0.023-0.0055 0 0 0.031a1.2012 1.2012 0 0 0 0 0.031l0.03125 0.1562a1.2012 1.2012 0 0 0 0.125 0.2813 1.2012 1.2012 0 0 0 0 0.031c-0.00071 0.017-0.000002 0.094 0 0.094 0.009 0.023 0.02105 0.01 0.03125 0.031s0.02005 0.011 0.03125 0.031c-0.000134 0-0.0032 0.02 0 0.031a1.2012 1.2012 0 0 0 0 0.031l0.0625 0.1562a1.2012 1.2012 0 0 0 0 0.031c0.009 0.022 0.02108 0.01 0.03125 0.031s0.02007 0.011 0.03125 0.031c0.0044 0.01-0.0048 0.022 0 0.031a1.2012 1.2012 0 0 0 0 0.031 1.2012 1.2012 0 0 0 0.03125 0.031 1.2012 1.2012 0 0 0 0 0.031 1.2012 1.2012 0 0 0 0.03125 0.031 1.2012 1.2012 0 0 0 0.0625 0.125 1.2012 1.2012 0 0 0 0 0.031 1.2012 1.2012 0 0 0 0.03125 0.094l0.09375 0.1563c-0.0021 0 0.12745 0.1908 0.125 0.1875l0.09375 0.125a1.2012 1.2012 0 0 0 0.25 0.25 1.2012 1.2012 0 0 0 0.0625 0.031c0.03396 0.039-0.01591 0.015 0.03125 0.062a1.2012 1.2012 0 0 0 0.09375 0.094s0.02413 0.032 0.0625 0.062h0.03125l0.03125 0.031c0.0017 0 0.01733 0.021 0.03125 0.031a1.2012 1.2012 0 0 0 0.03125 0.031c0.000044 0.0001 0.02773 0 0.03125 0 0.0022 0-0.0033 0.029 0 0.031a1.2012 1.2012 0 0 0 0.09375 0.094h0.03125c0.02037 0.014 0.0076 0.029 0.09375 0.094 0.01734 0.013 0.01135 0.016 0.03125 0.031 0.04616 0.035 0.03062 0.011 0.0625 0.031a1.2012 1.2012 0 0 0 0.21875 0.1562s0.08702 0.032 0.15625 0.062c0.03462 0.015 0.06536 0.019 0.09375 0.031 0.02839 0.013-0.04735 0.01 0.09375 0.062-0.26005-0.104-0.16189-0.059 0.0625 0.031 0.02117 0.01 0.0089 0.022 0.03125 0.031 0.02002 0.01 0.01185-0.01 0.03125 0l0.15625 0.062 0.15625 0.062a1.2012 1.2012 0 0 0 0.3125 0.062h0.03125c0.01094 0.01 0.06249 0.062 0.0625 0.062 0.02753 0.01 0.0078 0 0.03125 0h0.03125c0.01622 0 0.01484 0.028 0.03125 0.031h0.03125l0.15625 0.031a1.2012 1.2012 0 0 0 0.1875 0c-0.0023-0.0001 0.12728 0 0.125 0h0.09375 0.03125c-0.000022 0.0008 0.000018 0.031 0 0.031h0.03125 0.0625v-0.031c9.7538 0.9583 16.717-3.1403 20.906-6.9375 2.0913 0.3347 4.2359 0.5937 6.5312 0.5937 20.117 0 37.25-13.556 37.25-31.25s-17.133-31.25-37.25-31.25zm-7.8438 19.25 5.8438 5.8438a2.8128 2.8128 0 0 0 4 0l5.8438-5.8438 3.1562 3.1562-5.8438 5.8438a2.8128 2.8128 0 0 0 0 4l5.8438 5.8438-3.1562 3.1562-5.8438-5.8437a2.8128 2.8128 0 0 0 -4 0l-5.8438 5.8437-3.1562-3.1562 5.8438-5.8438a2.8128 2.8128 0 0 0 0 -4l-5.8438-5.8438 3.1562-3.1562zm-19.719 49.25a1.2012 1.2012 0 0 0 0.03125 0v0.1563l-0.03125-0.1563z"/>
   <path id="path3720" style="opacity:.05" d="m48 971.06c-19.579 0-36.062 13.148-36.062 30.062 0 9.945 5.9764 18.491 14.594 23.875-0.21998 0.8336-0.43648 1.6874-1.0625 2.6563-1.0314 1.5963-2.548 3.0757-5.5312 3.9375h-0.03125a1.0828 1.0828 0 0 0 -0.1875 0.062l-0.15625 0.062 0.40625 1c-0.21083-0.4987-0.43017-1.0029-0.4375-1-0.01466 0.01-0.01172 0.023-0.03125 0.031-0.01953 0.01-0.0479 0.025-0.0625 0.031-0.0146 0.01-0.03125 0-0.03125 0s-0.23834 0.1475-0.25 0.1562c-0.01166 0.01-0.04687 0.02-0.0625 0.031 0.01466-0.01-0.0625 0.031-0.0625 0.031-0.01125 0.01-0.02248 0.026-0.03125 0.031-0.01461 0.01-0.03125 0-0.03125 0s-0.08203 0.085-0.09375 0.094c-0.01172 0.01-0.04687 0.02-0.0625 0.031-0.01563 0.012-0.01957 0.023-0.03125 0.031-0.01168 0.01-0.03125 0-0.03125 0s-0.21001 0.2384-0.21875 0.25c-0.0087 0.012-0.01953 0.016-0.03125 0.031-0.006 0.01 0.0063 0.025 0 0.031h-0.03125c-0.01328 0.016-0.03125 0.031-0.03125 0.031l-0.03125 0.031s-0.14748 0.2042-0.15625 0.2188c-0.0088 0.015-0.01953 0.043-0.03125 0.062s-0.02245 0.017-0.03125 0.031c-0.0088 0.015-0.03125 0.031-0.03125 0.031-0.0043 0.01 0.0035 0.027 0 0.031-0.0087 0.012-0.03125 0-0.03125 0s-0.11916 0.2667-0.125 0.2813c-0.0058 0.015-0.02343 0.043-0.03125 0.062-0.0078 0.019-0.02538 0.017-0.03125 0.031-0.0059 0.015 0 0.031 0 0.031l-0.0625 0.1562 1 0.4063 1.0312 0.3437s-2.0908-0.5458-2.0938-0.5312c-0.0029 0.015 0.0039 0.043 0 0.062s-0.02832 0.017-0.03125 0.031c-0.0029 0.015 0 0.031 0 0.031l-0.03125 0.1562 0.71875 0.1563c-0.32438-0.054-0.71776-0.13-0.71875-0.125-0.0029 0.015 0.0039 0.043 0 0.062s-0.02833 0.017-0.03125 0.031c-0.0029 0.015 0 0.031 0 0.031l1.0625 0.2187h-1.0938v0.1875h1.0938c-0.5413 0.01-1.0938 0.024-1.0938 0.031v0.062 0.031 0.031s0.02833 0.2354 0.03125 0.25c0.0029 0.015 0.02734 0.012 0.03125 0.031 0.0039 0.02-0.0029 0.048 0 0.062 0.0029 0.015 0 0.031 0 0.031l0.03125 0.1562 1.0625-0.2187 1.0312-0.2813s-2.0371 0.7042-2.0312 0.7188c0.0058 0.015 0.02344 0.012 0.03125 0.031 0.0078 0.02 0.02539 0.048 0.03125 0.062 0.0059 0.015 0 0.031 0 0.031l0.0625 0.1562 0.8125-0.3437c-0.39954 0.1764-0.81494 0.3689-0.8125 0.375 0.0059 0.015 0.02343 0.012 0.03125 0.031 0.0078 0.02 0.02541 0.048 0.03125 0.062 0.0058 0.015 0 0.031 0 0.031l1-0.4063-0.9375 0.5625 0.09375 0.1563a1.0828 1.0828 0 0 0 0.0625 0.094l0.09375 0.125 0.875-0.6562 0.84375-0.6875s-1.6054 1.457-1.5938 1.4687c0.01169 0.012 0.04687 0.016 0.0625 0.031 0.01563 0.016 0.01953 0.051 0.03125 0.062 0 0 0.14459 0.1162 0.15625 0.125 0.01166 0.01 0.01562 0.019 0.03125 0.031l0.03125 0.031c0.0078 0.01 0.02631 0 0.03125 0 0.0073 0.01-0.0058 0.025 0 0.031l0.03125 0.031 0.125 0.094c0.01172 0.01 0.01562 0.02 0.03125 0.031 0.01563 0.012 0.05082 0.023 0.0625 0.031 0.01168 0.01 0 0.031 0 0.031s0.26667 0.1192 0.28125 0.125c0.01458 0.01 0.04297 0.023 0.0625 0.031 0.01953 0.01 0.01657 0.025 0.03125 0.031 0.01468 0.01 0.03125 0 0.03125 0l0.15625 0.062 0.15625 0.062 0.40625-1 0.3125-1.0313s-0.5146 2.0909-0.5 2.0938h0.0625c0.01953 0 0.0166 0.028 0.03125 0.031h0.03125l0.15625 0.031a1.0828 1.0828 0 0 0 0.125 0 1.0828 1.0828 0 0 0 0.0625 0.031h0.09375v-0.031c9.7462 1.0017 16.58-3.2481 20.562-7 2.2149 0.3695 4.4887 0.6562 6.875 0.6562 19.579 0 36.062-13.148 36.062-30.062s-16.483-30.062-36.062-30.062zm-7.8438 17 6.375 6.375a2.0984 2.0984 0 0 0 2.9375 0l6.375-6.375 4.2188 4.2188-6.375 6.375a2.0984 2.0984 0 0 0 0 2.9375l6.375 6.375-4.2188 4.2187-6.375-6.375a2.0984 2.0984 0 0 0 -2.9375 0l-6.375 6.375-4.2188-4.2187 6.375-6.375a2.0984 2.0984 0 0 0 0 -2.9375l-6.375-6.375 4.2188-4.2188z"/>
   <path id="path3716" style="opacity:0.12" d="m48 972.15c-19.097 0-34.969 12.762-34.969 28.969 0 9.8127 6.0152 18.31 14.812 23.5-0.22779 1.0475-0.61321 2.3009-1.4688 3.625-1.149 1.7785-2.9471 3.4815-6.2188 4.4063a0.98626 0.98626 0 0 0 -0.03125 0l-0.15625 0.062c0.000101-0.0001-0.15635 0.062-0.15625 0.062 0.000097-0.0001-0.12509 0.094-0.125 0.094 0.000092 0-0.15634 0.094-0.15625 0.094 0.000087-0.0001-0.12508 0.094-0.125 0.094 0.000081 0-0.09382 0.1251-0.09375 0.125 0.000074 0-0.12507 0.1251-0.125 0.125 0.000067 0-0.09381 0.1564-0.09375 0.1563s-0.0938 0.1251-0.09375 0.125c0.000052-0.0001-0.06254 0.1563-0.0625 0.1562l-0.0625 0.1563c0.000035-0.0001-0.03128 0.1563-0.03125 0.1562l-0.03125 0.1563c0.000017-0.0001-0.03126 0.1564-0.03125 0.1562v0.1875c-0.000002-0.0001 0.000011 0.1564 0 0.1563s0.03127 0.1563 0.03125 0.1562l0.03125 0.1563c-0.000029-0.0001 0.06254 0.1563 0.0625 0.1562l0.0625 0.1563c-0.000046-0.0001 0.06255 0.1563 0.0625 0.1562l0.09375 0.1563 0.09375 0.125c-0.00007-0.0001 0.12508 0.1251 0.125 0.125-0.000077-0.0001 0.12508 0.094 0.125 0.094-0.000083 0 0.12509 0.1251 0.125 0.125-0.000089 0 0.12509 0.094 0.125 0.094-0.000094-0.0001 0.15635 0.062 0.15625 0.062l0.15625 0.062 0.15625 0.062c-0.000105 0 0.15636 0.031 0.15625 0.031l0.15625 0.031a0.98626 0.98626 0 0 0 0.03125 0c9.7546 1.0601 16.452-3.3592 20.25-7.0625 2.3307 0.4104 4.728 0.6875 7.2188 0.6875 19.097 0 34.969-12.762 34.969-28.969s-15.872-28.969-34.969-28.969zm-7.8438 15.031 6.8125 6.8125a1.4734 1.4734 0 0 0 2.0625 0l6.8125-6.8125 5.0938 5.0938-6.8125 6.8125a1.4734 1.4734 0 0 0 0 2.0625l6.8125 6.8125-5.0938 5.0937-6.8125-6.8125a1.4734 1.4734 0 0 0 -2.0625 0l-6.8125 6.8125-5.0938-5.0937 6.8125-6.8125a1.4734 1.4734 0 0 0 0 -2.0625l-6.8125-6.8125 5.0938-5.0938z"/>
   <path id="path3712" style="opacity:0.24" d="m48 973.15c-18.66 0-33.969 12.408-33.969 27.969 0 9.6667 5.998 18.089 14.938 23.094-0.21052 1.1926-0.65132 2.862-1.75 4.5625-1.2551 1.9426-3.2901 3.8256-6.7812 4.8125a0.98224 0.98224 0 0 0 0.1875 1.9062c9.6905 1.0532 16.246-3.4959 19.844-7.125 2.4289 0.4545 4.9344 0.7188 7.5312 0.7188 18.66 0 33.969-12.408 33.969-27.969 0-15.56-15.309-27.969-33.969-27.969zm-7.8438 12.969 7.3438 7.3438a0.71436 0.71436 0 0 0 1 0l7.3438-7.3438 6.1562 6.1562-7.3438 7.3438a0.71436 0.71436 0 0 0 0 0.99996l7.3438 7.3438-6.1562 6.1562-7.3438-7.3437a0.71436 0.71436 0 0 0 -1 0l-7.3438 7.3437-6.1562-6.1562 7.3438-7.3438a0.71436 0.71436 0 0 0 0 -0.99996l-7.3438-7.3438 6.1562-6.1562z"/>
   <path id="path3620" style="fill:url(#linearGradient3021)" d="m48 973.12c-18.225 0-33 12.088-33 27 0 9.4985 5.9998 17.844 15.062 22.656-0.34462 2.5087-1.914 8.6498-9.3438 10.75 9.6229 1.0458 16.014-3.6463 19.406-7.1875 2.5235 0.5055 5.1611 0.7812 7.875 0.7812 18.225 0 33-12.088 33-27s-14.775-27-33-27zm-7.8438 11 7.8438 7.8438 7.8438-7.8438 7.1562 7.1562-7.8438 7.8438 7.8438 7.8438-7.1562 7.1562-7.8438-7.8437-7.8438 7.8437-7.1562-7.1562 7.8438-7.8438-7.8438-7.8438 7.1562-7.1562z"/>
   <path id="path3735" style="opacity:.8;fill:#fff" d="m48 973.12c-18.225 0-33 12.088-33 27 0 0.2084 0.0255 0.4178 0.03125 0.625 0.88384-14.266 15.313-25.625 32.969-25.625 17.811 0 32.318 11.557 32.969 26 0.01514-0.3359 0.03125-0.661 0.03125-1 0-14.912-14.775-27-33-27zm-14 19.156-1 1 6.8438 6.8437 1-0.99996-6.8438-6.8438zm28 0-6.8438 6.8438 1 0.99996 6.8438-6.8437-1-1zm-14 14-7.8438 7.8437-6.1562-6.1562-1 1 7.1562 7.1562 7.8438-7.8437 7.8438 7.8437 7.1562-7.1562-1-1-6.1562 6.1562-7.8438-7.8437zm-18.312 18.281c-0.78888 2.9259-2.9421 7.2652-8.9688 8.9688 1.4386 0.1563 2.7988 0.1709 4.0938 0.094 3.9509-2.7354 4.9814-6.8885 5.25-8.8437-0.1292-0.069-0.24706-0.1487-0.375-0.2188z"/>
  </g>
 </g>
</svg>
