<?xml version="1.0" encoding="UTF-8" standalone="no"?>
<!-- Created with Inkscape (http://www.inkscape.org/) -->
<svg id="svg2408" xmlns:rdf="http://www.w3.org/1999/02/22-rdf-syntax-ns#" xmlns="http://www.w3.org/2000/svg" height="96" width="96" version="1.0" xmlns:cc="http://creativecommons.org/ns#" xmlns:dc="http://purl.org/dc/elements/1.1/">
 <metadata id="metadata2413">
  <rdf:RDF>
   <cc:Work rdf:about="">
    <dc:format>image/svg+xml</dc:format>
    <dc:type rdf:resource="http://purl.org/dc/dcmitype/StillImage"/>
    <dc:title/>
   </cc:Work>
  </rdf:RDF>
 </metadata>
 <path id="path3804" d="m87.476-2.5e-7c-0.73136 0-1.4308 0.27331-1.9442 0.7976l-11.516 11.515h-8.8733c-0.73062-0.0059-1.477 0.28136-1.994 0.7976l-12.911 12.911c-1.0486 1.0266-1.0486 2.9614 0 3.988l15.802 15.802c0.52751 0.52708 1.2485 0.81548 1.994 0.7976 0.71565-0.0059 1.4377-0.29194 1.9442-0.7976l12.961-12.961c0.51624-0.51704 0.80344-1.2135 0.7976-1.9442v-8.9232l11.466-11.466c1.0486-1.0266 1.0486-2.9614 0-3.988l-5.733-5.7324c-0.514-0.52429-1.263-0.7976-1.994-0.7976zm-59.521 49.401c-0.71565 0.0059-1.4377 0.34178-1.9442 0.84745l-12.961 12.912c-0.51624 0.51704-0.80344 1.2634-0.7976 1.994v8.8733l-11.466 11.515c-1.0486 1.0266-1.0486 2.9115 0 3.9382l5.7328 5.7328c1.0266 1.0486 2.9115 1.0486 3.9382 0l11.515-11.466h8.8733c0.73062 0.0059 1.477-0.28136 1.994-0.7976l12.912-12.96c1.0486-1.0266 1.0486-2.9115 0-3.9382l-15.802-15.802c-0.52751-0.52708-1.2485-0.86532-1.994-0.84745z" style="opacity:.2;fill:#fff"/>
</svg>
