<?xml version="1.0" encoding="UTF-8" standalone="no"?>
<!-- Created with Inkscape (http://www.inkscape.org/) -->

<svg
   xmlns:dc="http://purl.org/dc/elements/1.1/"
   xmlns:cc="http://creativecommons.org/ns#"
   xmlns:rdf="http://www.w3.org/1999/02/22-rdf-syntax-ns#"
   xmlns:svg="http://www.w3.org/2000/svg"
   xmlns="http://www.w3.org/2000/svg"
   xmlns:xlink="http://www.w3.org/1999/xlink"
   xmlns:sodipodi="http://sodipodi.sourceforge.net/DTD/sodipodi-0.dtd"
   xmlns:inkscape="http://www.inkscape.org/namespaces/inkscape"
   version="1.0"
   width="96"
   height="96"
   id="svg2408"
   inkscape:version="0.48.1 r9760"
   sodipodi:docname="nm-no-connection.svg">
  <sodipodi:namedview
     pagecolor="#ffffff"
     bordercolor="#666666"
     borderopacity="1"
     objecttolerance="10"
     gridtolerance="10"
     guidetolerance="10"
     inkscape:pageopacity="0"
     inkscape:pageshadow="2"
     inkscape:window-width="640"
     inkscape:window-height="480"
     id="namedview64"
     showgrid="false"
     inkscape:zoom="3.1041667"
     inkscape:cx="48.000001"
     inkscape:cy="48.000001"
     inkscape:window-x="0"
     inkscape:window-y="25"
     inkscape:window-maximized="0"
     inkscape:current-layer="svg2408" />
  <defs
     id="defs2410">
    <linearGradient
       id="linearGradient3183-0">
      <stop
         id="stop3185-9"
         style="stop-color:#c80000;stop-opacity:1"
         offset="0" />
      <stop
         id="stop3187-6"
         style="stop-color:#f3604d;stop-opacity:1"
         offset="1" />
    </linearGradient>
    <linearGradient
       inkscape:collect="always"
       xlink:href="#linearGradient3183-0"
       id="linearGradient3088"
       gradientUnits="userSpaceOnUse"
       gradientTransform="matrix(0,-3.0000004,2.9652505,0,33.335916,111.00001)"
       x1="11"
       y1="11.015625"
       x2="19"
       y2="11.015625" />
  </defs>
  <metadata
     id="metadata2413">
    <rdf:RDF>
      <cc:Work
         rdf:about="">
        <dc:format>image/svg+xml</dc:format>
        <dc:type
           rdf:resource="http://purl.org/dc/dcmitype/StillImage" />
        <dc:title />
      </cc:Work>
    </rdf:RDF>
  </metadata>
  <g
     id="g3080"
     transform="matrix(1.5230536,0,0,1.5230536,-27.282837,-27.272178)">
    <path
       d="m 72.75,17.90625 c -0.458475,0 -0.896962,0.171332 -1.21875,0.5 l -7.21875,7.21875 -5.5625,0 c -0.45801,-0.0037 -0.925877,0.176379 -1.25,0.5 l -8.09375,8.09375 c -0.657336,0.643577 -0.657336,1.856423 0,2.5 L 59.3125,46.625 c 0.330688,0.330415 0.782663,0.511205 1.25,0.5 0.448625,-0.0037 0.901269,-0.183008 1.21875,-0.5 l 8.125,-8.125 c 0.323621,-0.324123 0.503658,-0.76074 0.5,-1.21875 l 0,-5.59375 7.1875,-7.1875 c 0.657336,-0.643577 0.657336,-1.856423 0,-2.5 L 74,18.40625 c -0.321788,-0.328668 -0.791525,-0.5 -1.25,-0.5 z M 35.4375,48.875 c -0.448625,0.0037 -0.901269,0.214258 -1.21875,0.53125 L 26.09375,57.5 c -0.323621,0.324123 -0.503658,0.79199 -0.5,1.25 l 0,5.5625 -7.1875,7.21875 c -0.657336,0.643577 -0.657336,1.825173 0,2.46875 L 22,77.59375 c 0.643577,0.657336 1.825173,0.657336 2.46875,0 l 7.21875,-7.1875 5.5625,0 c 0.45801,0.0037 0.925877,-0.176379 1.25,-0.5 l 8.09375,-8.125 c 0.657336,-0.643577 0.657336,-1.825173 0,-2.46875 L 36.6875,49.40625 c -0.330688,-0.330415 -0.782663,-0.542455 -1.25,-0.53125 z"
       inkscape:connector-curvature="0"
       id="path3804"
       style="opacity:0.2;fill:#ffffff;fill-opacity:1;stroke:none" />
    <path
       d="m 59.84375,53.03125 c 7.23e-4,-8.4e-5 -0.09447,0.03137 -0.09375,0.03125 7.18e-4,-1.2e-4 -0.09446,1.55e-4 -0.09375,0 7.11e-4,-1.55e-4 -0.09445,0.03144 -0.09375,0.03125 10e-4,-2.62e-4 -0.126005,0.03158 -0.125,0.03125 10e-4,-3.35e-4 -0.125978,0.06291 -0.125,0.0625 9.78e-4,-4.08e-4 -0.157196,0.06298 -0.15625,0.0625 9.46e-4,-4.78e-4 -0.125908,0.06305 -0.125,0.0625 9.08e-4,-5.45e-4 -0.09462,0.09436 -0.09375,0.09375 8.66e-4,-6.1e-4 -0.12582,0.06317 -0.125,0.0625 8.2e-4,-6.71e-4 -0.09452,0.09448 -0.09375,0.09375 5.77e-4,-5.47e-4 -0.06575,0.06523 -0.09375,0.09375 -0.0093,0.0095 -0.03143,0.03145 -0.03125,0.03125 l -6,6.0625 c 9.53e-4,-10e-4 -0.125853,0.157339 -0.125,0.15625 8.53e-4,-0.0011 -0.0945,0.126165 -0.09375,0.125 7.46e-4,-0.0012 -0.09438,0.15748 -0.09375,0.15625 6.32e-4,-0.0012 -0.09426,0.188785 -0.09375,0.1875 5.13e-4,-0.0013 -0.06289,0.157577 -0.0625,0.15625 3.89e-4,-0.0013 -0.03151,0.188858 -0.03125,0.1875 2.61e-4,-0.0014 -0.03138,0.188877 -0.03125,0.1875 1.31e-4,-0.0014 0,0.188883 0,0.1875 0,-0.0014 1.31e-4,0.188877 0,0.1875 -1.31e-4,-0.0014 0.03151,0.188858 0.03125,0.1875 -2.61e-4,-0.0014 0.03164,0.188827 0.03125,0.1875 -3.89e-4,-0.0013 0.06301,0.157535 0.0625,0.15625 -5.13e-4,-0.0013 0.09438,0.18873 0.09375,0.1875 -6.32e-4,-0.0012 0.0945,0.157415 0.09375,0.15625 -7.46e-4,-0.0012 0.0946,0.126089 0.09375,0.125 -8.53e-4,-0.0011 0.125953,0.157253 0.125,0.15625 l 4.5,4.5625 -4.5,4.5625 c 9.53e-4,-0.001 -0.125853,0.157339 -0.125,0.15625 8.53e-4,-0.0011 -0.0945,0.126165 -0.09375,0.125 7.46e-4,-0.0012 -0.09438,0.15748 -0.09375,0.15625 6.32e-4,-0.0012 -0.09426,0.188785 -0.09375,0.1875 5.13e-4,-0.0013 -0.06289,0.157577 -0.0625,0.15625 3.89e-4,-0.0013 -0.03151,0.188858 -0.03125,0.1875 2.61e-4,-0.0014 -0.03138,0.188877 -0.03125,0.1875 1.31e-4,-0.0014 0,0.188883 0,0.1875 0,-0.0014 1.31e-4,0.188877 0,0.1875 -1.31e-4,-0.0014 0.03151,0.188858 0.03125,0.1875 -2.61e-4,-0.0014 0.03164,0.188827 0.03125,0.1875 -3.89e-4,-0.0013 0.06301,0.157535 0.0625,0.15625 -5.13e-4,-0.0013 0.09438,0.18873 0.09375,0.1875 -6.32e-4,-0.0012 0.0945,0.157415 0.09375,0.15625 -7.46e-4,-0.0012 0.0946,0.126089 0.09375,0.125 -8.53e-4,-0.0011 0.125953,0.157253 0.125,0.15625 l 6.03125,6.09375 c -9.87e-4,-0.001 0.126082,0.125927 0.125,0.125 -0.0011,-9.27e-4 0.157418,0.125817 0.15625,0.125 -0.0012,-8.17e-4 0.157492,0.09445 0.15625,0.09375 -0.0012,-6.99e-4 0.188805,0.09432 0.1875,0.09375 -0.0013,-5.74e-4 0.188854,0.06294 0.1875,0.0625 -0.0014,-4.44e-4 0.157641,0.06281 0.15625,0.0625 -0.0014,-3.1e-4 0.188915,0.03142 0.1875,0.03125 -0.0014,-1.72e-4 0.220175,3.3e-5 0.21875,0 -0.0014,-3.3e-5 0.188921,-1.06e-4 0.1875,0 -0.0014,1.06e-4 0.188904,-0.03149 0.1875,-0.03125 -0.0014,2.45e-4 0.188874,-0.03163 0.1875,-0.03125 -0.0014,3.81e-4 0.15758,-0.06301 0.15625,-0.0625 -0.0013,5.13e-4 0.188773,-0.06314 0.1875,-0.0625 -0.0013,6.41e-4 0.157455,-0.09451 0.15625,-0.09375 -0.0012,7.62e-4 0.157374,-0.125876 0.15625,-0.125 -0.0011,8.76e-4 0.157283,-0.125982 0.15625,-0.125 l 4.59375,-4.5625 4.40625,4.5 c -5.08e-4,-5.29e-4 0.06303,0.063 0.0625,0.0625 -5.34e-4,-5.03e-4 0.09431,0.06298 0.09375,0.0625 -5.59e-4,-4.76e-4 0.06308,0.06295 0.0625,0.0625 -5.82e-4,-4.47e-4 0.09435,0.06292 0.09375,0.0625 -6.04e-4,-4.17e-4 0.06312,0.06289 0.0625,0.0625 -6.24e-4,-3.86e-4 0.09439,0.06285 0.09375,0.0625 -6.43e-4,-3.54e-4 0.09441,0.03157 0.09375,0.03125 -6.6e-4,-3.21e-4 0.09443,0.03154 0.09375,0.03125 -6.75e-4,-2.88e-4 0.06319,0.0315 0.0625,0.03125 -6.89e-4,-2.53e-4 0.09445,0.03147 0.09375,0.03125 -7e-4,-2.18e-4 0.09446,0.03143 0.09375,0.03125 -7.11e-4,-1.83e-4 0.125719,0.0314 0.125,0.03125 -7.19e-4,-1.47e-4 0.09448,0.03136 0.09375,0.03125 -7.25e-4,-1.1e-4 0.09448,7.4e-5 0.09375,0 -7.3e-4,-7.4e-5 0.09448,3.7e-5 0.09375,0 -7.33e-4,-3.7e-5 0.09448,0 0.09375,0 -7.34e-4,0 0.09448,-3.7e-5 0.09375,0 -7.33e-4,3.7e-5 0.09448,-7.4e-5 0.09375,0 -7.3e-4,7.4e-5 0.09448,-1.1e-4 0.09375,0 -7.25e-4,1.1e-4 0.09447,-0.0314 0.09375,-0.03125 -7.19e-4,1.47e-4 0.125711,-0.03143 0.125,-0.03125 -7.11e-4,1.83e-4 0.09445,-0.03147 0.09375,-0.03125 -7e-4,2.18e-4 0.09444,-0.0315 0.09375,-0.03125 -6.89e-4,2.53e-4 0.06318,-0.03154 0.0625,-0.03125 -6.75e-4,2.88e-4 0.09441,-0.03157 0.09375,-0.03125 -6.6e-4,3.21e-4 0.09439,-0.0316 0.09375,-0.03125 -6.43e-4,3.54e-4 0.09437,-0.06289 0.09375,-0.0625 -6.24e-4,3.86e-4 0.0631,-0.06292 0.0625,-0.0625 -6.04e-4,4.17e-4 0.09433,-0.06295 0.09375,-0.0625 -5.82e-4,4.47e-4 0.06306,-0.06298 0.0625,-0.0625 -5.59e-4,4.76e-4 0.09428,-0.063 0.09375,-0.0625 -5.34e-4,5.03e-4 0.06301,-0.06303 0.0625,-0.0625 l 6.21875,-6.28125 c -9.82e-4,0.001 0.125876,-0.157374 0.125,-0.15625 -8.76e-4,0.0011 0.125762,-0.157455 0.125,-0.15625 -7.62e-4,0.0012 0.09439,-0.157523 0.09375,-0.15625 -6.41e-4,0.0013 0.06301,-0.18883 0.0625,-0.1875 -5.13e-4,0.0013 0.06288,-0.157624 0.0625,-0.15625 -3.81e-4,0.0014 0.0315,-0.188904 0.03125,-0.1875 -2.45e-4,0.0014 0.03136,-0.188921 0.03125,-0.1875 -1.06e-4,0.0014 -3.3e-5,-0.188925 0,-0.1875 3.3e-5,0.0014 -1.72e-4,-0.220165 0,-0.21875 1.72e-4,0.0014 -0.03156,-0.188891 -0.03125,-0.1875 3.1e-4,0.0014 -0.06294,-0.157604 -0.0625,-0.15625 4.44e-4,0.0014 -0.06307,-0.188805 -0.0625,-0.1875 5.74e-4,0.0013 -0.09445,-0.188742 -0.09375,-0.1875 6.99e-4,0.0012 -0.09457,-0.157418 -0.09375,-0.15625 8.17e-4,0.0012 -0.125927,-0.157332 -0.125,-0.15625 9.27e-4,0.0011 -0.126029,-0.125987 -0.125,-0.125 L 74.9375,67 79.34375,62.6875 c -0.001,9.87e-4 0.125927,-0.126082 0.125,-0.125 -9.27e-4,0.0011 0.125817,-0.157418 0.125,-0.15625 -8.17e-4,0.0012 0.09445,-0.157492 0.09375,-0.15625 -6.99e-4,0.0012 0.09432,-0.188805 0.09375,-0.1875 -5.74e-4,0.0013 0.06294,-0.188854 0.0625,-0.1875 -4.44e-4,0.0014 0.06281,-0.157641 0.0625,-0.15625 -3.1e-4,0.0014 0.03142,-0.188915 0.03125,-0.1875 -1.72e-4,0.0014 3.3e-5,-0.220175 0,-0.21875 -3.3e-5,0.0014 -1.06e-4,-0.188921 0,-0.1875 1.06e-4,0.0014 -0.0315,-0.188904 -0.03125,-0.1875 2.45e-4,0.0014 -0.03163,-0.188874 -0.03125,-0.1875 3.81e-4,0.0014 -0.06301,-0.15758 -0.0625,-0.15625 5.13e-4,0.0013 -0.06314,-0.188773 -0.0625,-0.1875 6.41e-4,0.0013 -0.09451,-0.157455 -0.09375,-0.15625 7.62e-4,0.0012 -0.125876,-0.157374 -0.125,-0.15625 8.76e-4,0.0011 -0.125982,-0.157283 -0.125,-0.15625 L 73.1875,53.65625 c 5.08e-4,5.29e-4 -0.06303,-0.063 -0.0625,-0.0625 5.34e-4,5.03e-4 -0.09431,-0.06298 -0.09375,-0.0625 5.59e-4,4.76e-4 -0.06308,-0.06295 -0.0625,-0.0625 5.82e-4,4.47e-4 -0.09435,-0.06292 -0.09375,-0.0625 6.04e-4,4.17e-4 -0.06312,-0.06289 -0.0625,-0.0625 6.24e-4,3.86e-4 -0.09439,-0.06285 -0.09375,-0.0625 6.43e-4,3.54e-4 -0.09441,-0.03157 -0.09375,-0.03125 6.6e-4,3.21e-4 -0.09443,-0.03154 -0.09375,-0.03125 6.75e-4,2.88e-4 -0.06319,-0.0315 -0.0625,-0.03125 6.89e-4,2.53e-4 -0.09445,-0.03147 -0.09375,-0.03125 7e-4,2.18e-4 -0.09446,-0.03143 -0.09375,-0.03125 7.11e-4,1.83e-4 -0.125719,-0.0314 -0.125,-0.03125 7.19e-4,1.47e-4 -0.09448,-0.03136 -0.09375,-0.03125 7.25e-4,1.1e-4 -0.09448,-7.4e-5 -0.09375,0 7.3e-4,7.4e-5 -0.09448,-3.7e-5 -0.09375,0 7.33e-4,3.7e-5 -0.09448,0 -0.09375,0 7.34e-4,0 -0.09448,3.7e-5 -0.09375,0 7.33e-4,-3.7e-5 -0.09448,7.4e-5 -0.09375,0 7.3e-4,-7.4e-5 -0.09448,1.1e-4 -0.09375,0 7.25e-4,-1.1e-4 -0.09447,0.0314 -0.09375,0.03125 7.19e-4,-1.47e-4 -0.125711,0.03143 -0.125,0.03125 7.11e-4,-1.83e-4 -0.09445,0.03147 -0.09375,0.03125 7e-4,-2.18e-4 -0.09444,0.0315 -0.09375,0.03125 6.89e-4,-2.53e-4 -0.06318,0.03154 -0.0625,0.03125 6.75e-4,-2.88e-4 -0.09441,0.03157 -0.09375,0.03125 6.6e-4,-3.21e-4 -0.09439,0.0316 -0.09375,0.03125 6.43e-4,-3.54e-4 -0.09437,0.06289 -0.09375,0.0625 6.24e-4,-3.86e-4 -0.0631,0.06292 -0.0625,0.0625 6.04e-4,-4.17e-4 -0.09433,0.06295 -0.09375,0.0625 5.82e-4,-4.47e-4 -0.06306,0.06298 -0.0625,0.0625 5.59e-4,-4.76e-4 -0.09428,0.063 -0.09375,0.0625 5.34e-4,-5.03e-4 -0.06301,0.06303 -0.0625,0.0625 l -4.40625,4.5 -4.5625,-4.53125 c 1.71e-4,1.72e-4 -0.02075,-0.0212 -0.03125,-0.03125 -0.021,-0.0201 -0.06286,-0.06283 -0.0625,-0.0625 5.39e-4,4.91e-4 -0.06306,-0.06296 -0.0625,-0.0625 5.63e-4,4.63e-4 -0.06309,-0.06294 -0.0625,-0.0625 5.85e-4,4.35e-4 -0.09436,-0.03166 -0.09375,-0.03125 6.06e-4,4.05e-4 -0.09438,-0.06287 -0.09375,-0.0625 6.26e-4,3.74e-4 -0.06314,-0.06284 -0.0625,-0.0625 6.44e-4,3.42e-4 -0.09441,-0.03156 -0.09375,-0.03125 6.6e-4,3.09e-4 -0.09443,-0.03153 -0.09375,-0.03125 6.75e-4,2.76e-4 -0.09444,-0.03149 -0.09375,-0.03125 6.88e-4,2.42e-4 -0.09445,-0.03146 -0.09375,-0.03125 6.99e-4,2.07e-4 -0.09446,-0.03142 -0.09375,-0.03125 7.08e-4,1.72e-4 -0.09447,-0.03139 -0.09375,-0.03125 7.16e-4,1.36e-4 -0.09447,-1e-4 -0.09375,0 7.22e-4,1e-4 -0.09448,-0.03131 -0.09375,-0.03125 7.26e-4,6.4e-5 -0.09448,-2.8e-5 -0.09375,0 7.28e-4,2.8e-5 -0.09448,9e-6 -0.09375,0 a 0.9965754,0.9965754 0 0 0 -0.0625,0 c 7.26e-4,-4.7e-5 -0.09447,8.4e-5 -0.09375,0 z"
       id="path3761"
       style="opacity:0.1;fill:#000000;fill-opacity:1;fill-rule:evenodd;stroke:none;display:inline"
       inkscape:connector-curvature="0" />
    <path
       d="m 59.8125,54.0625 a 0.95278301,0.95278301 0 0 0 -0.46875,0.28125 L 53.3125,60.4375 a 0.95278301,0.95278301 0 0 0 0,1.3125 L 58.5,67 53.3125,72.25 a 0.95278301,0.95278301 0 0 0 0,1.3125 l 6.03125,6.09375 a 0.95278301,0.95278301 0 0 0 1.34375,0.03125 l 5.28125,-5.25 5.125,5.21875 a 0.95278301,0.95278301 0 0 0 1.375,0 L 78.6875,73.375 A 0.95278301,0.95278301 0 0 0 78.65625,72.03125 L 73.5,67 78.65625,61.96875 A 0.95278301,0.95278301 0 0 0 78.6875,60.625 l -6.21875,-6.28125 a 0.95278301,0.95278301 0 0 0 -1.375,0 l -5.125,5.21875 -5.28125,-5.25 a 0.95278301,0.95278301 0 0 0 -0.875,-0.25 z"
       id="path3757"
       style="opacity:0.15;fill:#000000;fill-opacity:1;fill-rule:evenodd;stroke:none;display:inline"
       inkscape:connector-curvature="0" />
    <path
       d="M 54.000005,72.906252 60.02317,79 65.953669,73.093752 71.791502,79 78,72.718752 72.16216,67.000002 78,61.281252 71.791502,55 65.953669,60.90625 60.02317,55 l -6.023165,6.093751 5.837841,5.906251 -5.837841,5.90625 z"
       inkscape:connector-curvature="0"
       id="path3751"
       style="opacity:0.3;fill:#000000;fill-opacity:1;fill-rule:evenodd;stroke:none;display:inline" />
    <path
       d="M 54.000005,71.906252 60.02317,78 65.953669,72.093752 71.791502,78 78,71.718752 72.16216,66.000002 78,60.281252 71.791502,54 65.953669,59.90625 60.02317,54 l -6.023165,6.093751 5.837841,5.906251 -5.837841,5.90625 z"
       inkscape:connector-curvature="0"
       id="path7165"
       style="fill:url(#linearGradient3088);fill-opacity:1;fill-rule:evenodd;stroke:none;display:inline" />
    <path
       d="m 60.031255,54 -6.03125,6.09375 1,1 L 60.031255,56 65.96875,61.90625 71.78125,56 77,61.25 78,60.28125 71.78125,54 65.96875,59.90625 60.031255,54 z m -0.194826,11.975812 -5.836424,5.930438 1,1 4.84375,-4.90625 -0.0073,-2.024188 z m 12.34264,0.04727 L 72.156249,68 l 4.84375,4.75 1,-1.03125 -5.820931,-5.695668 z"
       inkscape:connector-curvature="0"
       id="path2970"
       style="opacity:0.2;fill:#ffffff;fill-opacity:1;fill-rule:evenodd;stroke:none;display:inline" />
  </g>
</svg>
