<?xml version="1.0" encoding="UTF-8" standalone="no"?>
<!-- Created with Inkscape (http://www.inkscape.org/) -->
<svg id="svg2" xmlns:rdf="http://www.w3.org/1999/02/22-rdf-syntax-ns#" xmlns="http://www.w3.org/2000/svg" height="96" width="96" version="1.0" xmlns:cc="http://creativecommons.org/ns#" xmlns:xlink="http://www.w3.org/1999/xlink" xmlns:dc="http://purl.org/dc/elements/1.1/">
 <defs id="defs4">
  <linearGradient id="linearGradient3702" x1="48" gradientUnits="userSpaceOnUse" y1="68" gradientTransform="translate(0,10)" x2="48" y2="8">
   <stop id="stop4083" style="stop-color:#aaa" offset="0"/>
   <stop id="stop4085" style="stop-color:#f0f0f0" offset="1"/>
  </linearGradient>
 </defs>
 <metadata id="metadata7">
  <rdf:RDF>
   <cc:Work rdf:about="">
    <dc:format>image/svg+xml</dc:format>
    <dc:type rdf:resource="http://purl.org/dc/dcmitype/StillImage"/>
    <dc:title/>
   </cc:Work>
  </rdf:RDF>
 </metadata>
 <g id="layer1" transform="translate(0,74)">
  <path id="path3770" style="opacity:.08;color:#000000" d="m12-57.969c-1.7833-0.0501-3.5595 0.72881-4.875 1.9688-1.3231 1.2471-2.2163 3.0595-1.8438 5a0.9767 0.9767 0 0 0 0.25 0.46875c-0.012267 0.03022-0.00916-0.0022-0.0625 0.09375-0.10001 0.17986-0.24923 0.4386-0.375 0.8125-0.097183 0.28892-0.06311 0.67436 0 1.0625h-0.0625c0.020916 15.626-0.04181 31.246 0.03125 46.875a0.9767 0.9767 0 0 0 0.1876 0.562c0.29313 0.41077 0.24221 0.43356 0.21875 0.59375-0.023457 0.16019-0.19985 0.54488-0.40625 1.1875a0.9767 0.9767 0 0 0 -0.0313 0.2813c-0.16151 4.4175 4.1127 7.5689 8.25 7.0312 0.05211-0.00677 0.10419 0.00795 0.15625 0 23.727-0.02029 47.456 0.041129 71.188-0.03125a0.9767 0.9767 0 0 0 0.0625 0c1.968-0.1166 3.755-1.2493 4.937-2.8125s1.78-3.6659 0.937-5.625a0.9767 0.9767 0 0 0 -0.03125 -0.0625c0.0245-0.054601 0.02181-0.085191 0.09375-0.21875 0.11416-0.21195 0.27226-0.49012 0.375-0.875 0.07242-0.27131-0.02319-0.62227-0.09375-0.96875h0.0625c-0.02092-15.555 0.04181-31.128-0.03125-46.688a0.9767 0.9767 0 0 0 -0.0625 -0.34375c-0.20912-0.54104-0.38711-0.8927-0.40625-0.96875s-0.09482 0.06866 0.125-0.21875a0.9767 0.9767 0 0 0 0.1875 -0.53125c0.16148-2.0642-0.9087-3.8523-2.4062-5.0312-1.4645-1.1529-3.3566-1.7776-5.2188-1.5625h-71.156z"/>
  <path id="path3764" style="opacity:.1;color:#000000" d="m12-57c-2.9394-0.0985-6.3441 2.7177-5.75 5.8125 0.9366 0.84476-0.64453 1.4977-0.25 2.6099 0.0209 15.629-0.0418 31.267 0.0312 46.89 0.7601 1.0656 0.3375 1.5087-0.0312 2.6568-0.139 3.8025 3.6699 6.5809 7.267 6.0312 23.781-0.0207 47.565 0.0414 71.345-0.0311 3.22-0.1908 6.4-3.9408 5.044-7.0939-0.663-0.62543 0.817-1.52 0.344-2.5086-0.021-15.558 0.042-31.125-0.031-46.678-0.343-0.887-0.816-1.263-0.157-2.126 0.264-3.374-3.476-5.995-6.657-5.562h-71.155z"/>
  <path id="path3760" style="opacity:.15;color:#000000" d="m12-56.031c-2.3948 0-4.3767 1.6925-4.875 3.9375a1.0342 1.0342 0 0 0 0.28125 0.9375l39.875 39.875a1.0342 1.0342 0 0 0 1.4375 0l39.875-39.875a1.0342 1.0342 0 0 0 0.28125 -0.9375c-0.49831-2.245-2.4802-3.9375-4.875-3.9375h-72zm-4.125 6a1.0342 1.0342 0 0 0 -0.9062 1.031v47a1.0342 1.0342 0 0 0 1.75 0.71875l20.781-20.781 0.062 0.062-22.281 22.281a1.0342 1.0342 0 0 0 -0.3122 0.719c0 2.771 2.2603 5.0312 5.0312 5.0312h72c2.771 0 5.0312-2.2603 5.0312-5.0312a1.0342 1.0342 0 0 0 -0.312 -0.71875l-22.281-22.281 0.062-0.062 20.781 20.781a1.0342 1.0342 0 0 0 1.75 -0.719v-47a1.0342 1.0342 0 0 0 -1.75 -0.71875l-39.281 39.281-39.281-39.281a1.0342 1.0342 0 0 0 -0.844 -0.312z"/>
  <path id="path3753" style="opacity:.3;color:#000000" d="m12-55c-1.9146 0-3.4774 1.3335-3.875 3.125l39.875 39.875 39.875-39.875c-0.398-1.791-1.96-3.125-3.875-3.125h-72zm-4 6v47l21.5-21.5 1.5 1.5-23 23c0 2.216 1.784 4 4 4h72c2.216 0 4-1.784 4-4l-23-23 1.5-1.5 21.5 21.5v-47l-40 40-40-40z"/>
  <path id="rect2922" d="m12 18c-1.9146 0-3.4774 1.3335-3.875 3.125l39.875 39.875 39.875-39.875c-0.398-1.791-1.96-3.125-3.875-3.125h-72zm-4 6v47l21.5-21.5 1.5 1.5-23 23c0 2.216 1.784 4 4 4h72c2.216 0 4-1.784 4-4l-23-23 1.5-1.5 21.5 21.5v-47l-40 40-40-40z" style="color:#000000;fill:url(#linearGradient3702)" transform="translate(0,-74)"/>
  <path id="path3734" d="m12 18c-1.9146 0-3.4774 1.3335-3.875 3.125l0.25 0.25c0.6152-1.4 1.99-2.375 3.625-2.375h72c1.6353 0 3.0098 0.97489 3.625 2.375l0.25-0.25c-0.398-1.791-1.96-3.125-3.875-3.125h-72zm-4 6v1l40 40 40-40v-1l-40 40-40-40zm22.5 27.5-22.5 22.5c0 0.30138 0.062407 0.593 0.125 0.875l22.875-22.875-0.5-0.5zm35 0l-0.5 0.5 22.875 22.875c0.063-0.282 0.125-0.574 0.125-0.875l-22.5-22.5z" style="opacity:.75;color:#000000;fill:#fff" transform="translate(0,-74)"/>
  <path id="path3744" d="m8.375 20.375c-0.10507 0.23913-0.19199 0.48866-0.25 0.75l39.875 39.875 39.875-39.875c-0.05801-0.26134-0.14493-0.51087-0.25-0.75l-39.625 39.625-39.625-39.625zm21.125 28.125-21.5 21.5v1l21.5-21.5 1 1 0.5-0.5-1.5-1.5zm37 0-1.5 1.5 0.5 0.5 1-1l21.5 21.5v-1l-21.5-21.5zm-58.375 25.375-0.125 0.125c0 2.216 1.784 4 4 4h72c2.216 0 4-1.784 4-4l-0.125-0.125c-0.398 1.791-1.96 3.125-3.875 3.125h-72c-1.915 0-3.4774-1.334-3.875-3.125z" style="opacity:.15;color:#000000" transform="translate(0,-74)"/>
 </g>
</svg>
