<?xml version="1.0" encoding="UTF-8" standalone="no"?>
<!-- Created with Inkscape (http://www.inkscape.org/) -->

<svg
   xmlns:dc="http://purl.org/dc/elements/1.1/"
   xmlns:cc="http://creativecommons.org/ns#"
   xmlns:rdf="http://www.w3.org/1999/02/22-rdf-syntax-ns#"
   xmlns:svg="http://www.w3.org/2000/svg"
   xmlns="http://www.w3.org/2000/svg"
   xmlns:xlink="http://www.w3.org/1999/xlink"
   xmlns:sodipodi="http://sodipodi.sourceforge.net/DTD/sodipodi-0.dtd"
   xmlns:inkscape="http://www.inkscape.org/namespaces/inkscape"
   width="96"
   height="96"
   id="svg2"
   version="1.1"
   inkscape:version="0.48.3.1 r9886">
  <defs
     id="defs4">
    <linearGradient
       inkscape:collect="always"
       id="linearGradient4019">
      <stop
         style="stop-color:#4e9a06;stop-opacity:1;"
         offset="0"
         id="stop4021" />
      <stop
         style="stop-color:#4e9a06;stop-opacity:0;"
         offset="1"
         id="stop4023" />
    </linearGradient>
    <linearGradient
       inkscape:collect="always"
       id="linearGradient3879">
      <stop
         style="stop-color:#cc0000;stop-opacity:1;"
         offset="0"
         id="stop3881" />
      <stop
         style="stop-color:#cc0000;stop-opacity:0;"
         offset="1"
         id="stop3883" />
    </linearGradient>
    <linearGradient
       inkscape:collect="always"
       id="linearGradient3943">
      <stop
         style="stop-color:#eeeeec;stop-opacity:1;"
         offset="0"
         id="stop3945" />
      <stop
         style="stop-color:#eeeeec;stop-opacity:0;"
         offset="1"
         id="stop3947" />
    </linearGradient>
    <linearGradient
       id="linearGradient4081-3">
      <stop
         offset="0"
         style="stop-color:#aaaaaa;stop-opacity:1"
         id="stop4083-3" />
      <stop
         offset="1"
         style="stop-color:#ebebeb;stop-opacity:1"
         id="stop4085-4" />
    </linearGradient>
    <linearGradient
       inkscape:collect="always"
       xlink:href="#linearGradient3943"
       id="linearGradient3004"
       gradientUnits="userSpaceOnUse"
       gradientTransform="matrix(0,1,-1,0,1052.0174,954.70704)"
       x1="11.655163"
       y1="1003.3622"
       x2="85.655163"
       y2="1003.3622" />
    <linearGradient
       inkscape:collect="always"
       xlink:href="#linearGradient4081-3"
       id="linearGradient3875"
       x1="38.647625"
       y1="1031.0662"
       x2="38.647625"
       y2="984.35065"
       gradientUnits="userSpaceOnUse" />
    <linearGradient
       inkscape:collect="always"
       xlink:href="#linearGradient3879"
       id="linearGradient3885"
       x1="20.512938"
       y1="1007.3565"
       x2="58.666485"
       y2="1007.3565"
       gradientUnits="userSpaceOnUse"
       gradientTransform="matrix(0,-1,1,0,-958.51864,1056.1943)" />
    <linearGradient
       inkscape:collect="always"
       xlink:href="#linearGradient4081-3"
       id="linearGradient4013"
       gradientUnits="userSpaceOnUse"
       x1="38.647625"
       y1="1031.0662"
       x2="38.647625"
       y2="984.35065" />
    <linearGradient
       inkscape:collect="always"
       xlink:href="#linearGradient3943"
       id="linearGradient4016"
       gradientUnits="userSpaceOnUse"
       gradientTransform="matrix(0,1,-1,0,1052.0174,954.70704)"
       x1="11.655163"
       y1="1003.3622"
       x2="85.655163"
       y2="1003.3622" />
    <linearGradient
       inkscape:collect="always"
       xlink:href="#linearGradient4019"
       id="linearGradient4025"
       x1="26.456535"
       y1="1007.3564"
       x2="71.219115"
       y2="1007.3564"
       gradientUnits="userSpaceOnUse"
       gradientTransform="matrix(0,-1,1,0,-958.51862,1056.1943)" />
  </defs>
  <sodipodi:namedview
     id="base"
     pagecolor="#ffffff"
     bordercolor="#666666"
     borderopacity="1.0"
     inkscape:pageopacity="0.0"
     inkscape:pageshadow="2"
     inkscape:zoom="2.5208333"
     inkscape:cx="48"
     inkscape:cy="48"
     inkscape:document-units="px"
     inkscape:current-layer="layer1"
     showgrid="false"
     inkscape:window-width="564"
     inkscape:window-height="434"
     inkscape:window-x="337"
     inkscape:window-y="193"
     inkscape:window-maximized="0" />
  <metadata
     id="metadata7">
    <rdf:RDF>
      <cc:Work
         rdf:about="">
        <dc:format>image/svg+xml</dc:format>
        <dc:type
           rdf:resource="http://purl.org/dc/dcmitype/StillImage" />
        <dc:title></dc:title>
      </cc:Work>
    </rdf:RDF>
  </metadata>
  <g
     inkscape:label="Layer 1"
     inkscape:groupmode="layer"
     id="layer1"
     transform="translate(0,-956.36218)">
    <g
       id="g4028">
      <path
         inkscape:connector-curvature="0"
         id="rect3022"
         d="m 42.861879,966.36218 c -1.955251,0 -3.500475,1.58023 -3.500475,3.53548 l 0,4.37559 -6.510882,0 c -2.132,0 -3.850522,1.71852 -3.850522,3.85053 l 0,58.38792 c 0,2.132 1.718522,3.8505 3.850522,3.8505 l 31.609283,0 c 2.132,0 3.850522,-1.7185 3.850522,-3.8505 l 0,-58.38792 c 0,-2.13201 -1.718522,-3.85053 -3.850522,-3.85053 l -6.510882,0 0,-4.37559 c 0,-1.95525 -1.580228,-3.53548 -3.535479,-3.53548 l -11.551565,0 z m -2.975403,15.36708 17.537376,0 c 1.645716,0 2.940399,1.29469 2.940399,2.9404 l 0,45.29614 c 0,1.6457 -1.294683,2.9754 -2.940399,2.9754 l -17.537376,0 c -1.645716,0 -2.9404,-1.3297 -2.9404,-2.9754 l 0,-45.29614 c 0,-1.64571 1.294684,-2.9404 2.9404,-2.9404 z"
         style="fill:#bfbfbf;fill-opacity:1;stroke:none" />
      <path
         style="fill:url(#linearGradient4016);fill-opacity:1;stroke:none"
         d="m 42.861853,966.36221 c -1.9552,0 -3.5004,1.58024 -3.5004,3.53548 l 0,4.37558 -6.5109,0 c -2.132,0 -3.8506,1.71853 -3.8506,3.85055 l 0,58.38788 c 0,2.132 1.7186,3.8505 3.8506,3.8505 l 31.60927,0 c 2.132,0 3.85052,-1.7185 3.85052,-3.8505 l 0,-58.38788 c 0,-2.13202 -1.71852,-3.85055 -3.85052,-3.85055 l -6.51088,0 0,-4.37558 c 0,-1.95524 -1.58023,-3.53548 -3.53548,-3.53548 l -11.55161,0 z m -2.9754,15.36707 17.53742,0 c 1.64571,0 2.9404,1.29469 2.9404,2.9404 l 0,45.29612 c 0,1.6457 -1.29469,2.9754 -2.9404,2.9754 l -17.53742,0 c -1.6457,0 -2.9404,-1.3297 -2.9404,-2.9754 l 0,-45.29612 c 0,-1.64571 1.2947,-2.9404 2.9404,-2.9404 z"
         id="path3813"
         inkscape:connector-curvature="0" />
      <path
         inkscape:connector-curvature="0"
         d="m 38.661699,1009.6346 a 0.70582264,0.92483138 30.385494 0 1 0.04471,-0.1075 c 1.091772,-2.3073 2.321854,-4.587 3.436051,-6.8259 3.043832,-5.95961 6.040957,-11.94205 9.11589,-17.89779 a 0.70582264,0.92483138 30.385494 0 1 0.03374,-0.0538 c 1.220914,-2.07332 3.93694,-1.78891 3.982208,0.40311 a 0.70582264,0.92483138 30.385494 0 1 -0.0046,0.13437 c -0.215262,1.87016 -0.697533,3.66819 -1.004477,5.37471 a 0.70582264,0.92483138 30.385494 0 1 -0.0055,0.0269 l -1.989834,9.7551 c 1.79071,0 3.608994,-0.029 5.413703,0.027 a 0.70582264,0.92483138 30.385494 0 1 0.08636,0.027 c 1.457105,0.2598 1.747462,2.2287 0.84544,3.7354 -0.03112,0.052 -0.04536,0.1107 -0.07918,0.1613 -4.163562,8.4933 -8.29273,17.0114 -12.481208,25.503 a 0.70582264,0.92483138 30.385494 0 1 -0.03921,0.081 c -1.256279,2.1304 -4.073805,1.72 -3.99517,-0.5643 a 0.70582264,0.92483138 30.385494 0 1 0.02741,-0.1344 c 0.496283,-2.9614 1.167669,-5.919 1.728906,-8.8145 l 1.628046,-7.9814 c -1.782995,0 -3.59358,0.029 -5.390704,-0.027 a 0.70582264,0.92483138 30.385494 0 1 -0.109359,-0.027 c -1.033525,-0.2275 -1.622963,-1.3509 -1.265852,-2.6873 a 0.70582264,0.92483138 30.385494 0 1 0.02193,-0.1075 z"
         id="path3672"
         style="fill:url(#linearGradient4013);fill-opacity:1;stroke:none" />
      <path
         inkscape:connector-curvature="0"
         d="m 40.045406,1009.7935 a 0.72258538,0.94679542 30.385494 0 1 0.08467,-0.1881 l 12.259606,-24.07875 a 0.72258538,0.94679542 30.385494 0 1 1.409314,0.29561 l -3.327354,16.31224 6.590254,0 a 0.72258538,0.94679542 30.385494 0 1 0.493614,1.1824 l -12.610432,25.7987 a 0.72258538,0.94679542 30.385494 0 1 -1.432239,-0.2957 l 3.678178,-18.0321 -6.590327,0 a 0.72258538,0.94679542 30.385494 0 1 -0.554911,-0.9943 z"
         id="path3662"
         style="fill:#edd400;fill-opacity:1;stroke:none" />
      <path
         style="fill:url(#linearGradient4025);fill-opacity:1;stroke:none"
         id="path3877"
         d="m 40.045424,1009.7936 a 0.72258538,0.94679542 30.385494 0 1 0.0847,-0.1881 l 12.25956,-24.07875 a 0.72258538,0.94679542 30.385494 0 1 1.4093,0.29561 l -3.3273,16.31224 6.5902,0 a 0.72258538,0.94679542 30.385494 0 1 0.4937,1.1824 l -12.6105,25.7987 a 0.72258538,0.94679542 30.385494 0 1 -1.4322,-0.2957 l 3.6782,-18.0321 -6.59035,0 a 0.72258538,0.94679542 30.385494 0 1 -0.55491,-0.9943 z"
         inkscape:connector-curvature="0" />
    </g>
  </g>
</svg>
