<?xml version="1.0" encoding="UTF-8" standalone="no"?>
<!-- Created with Inkscape (http://www.inkscape.org/) -->
<svg id="svg4267" xmlns:rdf="http://www.w3.org/1999/02/22-rdf-syntax-ns#" xmlns="http://www.w3.org/2000/svg" height="96" width="96" version="1.1" xmlns:cc="http://creativecommons.org/ns#" xmlns:xlink="http://www.w3.org/1999/xlink" xmlns:dc="http://purl.org/dc/elements/1.1/">
 <defs id="defs4269">
  <linearGradient id="linearGradient3004" y2="1005" gradientUnits="userSpaceOnUse" x2="80.611" gradientTransform="matrix(0 1 -1 0 1053 957.01)" y1="1005" x1="15.402">
   <stop id="stop3802" style="stop-color:#eeeeec" offset="0"/>
   <stop id="stop3804" style="stop-color:#eeeeec;stop-opacity:0" offset="1"/>
  </linearGradient>
 </defs>
 <metadata id="metadata4272">
  <rdf:RDF>
   <cc:Work rdf:about="">
    <dc:format>image/svg+xml</dc:format>
    <dc:type rdf:resource="http://purl.org/dc/dcmitype/StillImage"/>
    <dc:title/>
   </cc:Work>
  </rdf:RDF>
 </metadata>
 <g id="layer1" transform="translate(0 -956.36)">
  <g id="g3008">
   <path id="path5263" style="fill:#bfbfbf" d="m70.911 972.41-5.2897 5.2897c14.883 15.201 14.946 39.325 0.23406 54.629l5.2897 5.2897c17.572-18.173 17.511-47.143-0.23406-65.209zm-9.3623 9.3623-5.3365 5.3365c9.6826 10.031 9.8063 25.736 0.28087 35.858l5.2897 5.2898c12.391-12.995 12.315-33.586-0.23406-46.484zm-34.781 2.6214v6.2728l-15.027 5.6642v17.414l15.027 5.6642v6.2259h9.5028v-41.241h-9.5028zm25.559 6.6004-5.2897 5.2897c4.5801 4.9188 4.6249 12.414 0.18725 17.414l5.2897 5.2898c7.2942-7.8854 7.2594-20.201-0.18725-27.993z"/>
   <path id="path3798" style="fill:url(#linearGradient3004)" d="m70.911 972.41-5.2897 5.2897c14.883 15.201 14.946 39.325 0.23406 54.629l5.2897 5.2897c17.572-18.173 17.511-47.143-0.23406-65.209zm-9.3623 9.3623-5.3365 5.3365c9.6826 10.031 9.8063 25.736 0.28087 35.858l5.2897 5.2898c12.391-12.995 12.315-33.586-0.23406-46.484zm-34.781 2.6214v6.2728l-15.026 5.6642v17.414l15.026 5.6642v6.2259h9.5028v-41.241h-9.5028zm25.559 6.6004-5.2897 5.2897c4.58 4.9188 4.6249 12.414 0.1872 17.414l5.2897 5.2898c7.2942-7.8854 7.2594-20.202-0.1872-27.993z"/>
  </g>
 </g>
</svg>
