<?xml version="1.0" encoding="UTF-8" standalone="no"?>
<!-- Created with Inkscape (http://www.inkscape.org/) -->

<svg
   xmlns:dc="http://purl.org/dc/elements/1.1/"
   xmlns:cc="http://creativecommons.org/ns#"
   xmlns:rdf="http://www.w3.org/1999/02/22-rdf-syntax-ns#"
   xmlns:svg="http://www.w3.org/2000/svg"
   xmlns="http://www.w3.org/2000/svg"
   xmlns:xlink="http://www.w3.org/1999/xlink"
   xmlns:sodipodi="http://sodipodi.sourceforge.net/DTD/sodipodi-0.dtd"
   xmlns:inkscape="http://www.inkscape.org/namespaces/inkscape"
   width="96"
   height="96"
   id="svg2">
  <defs
     id="defs4">
    <linearGradient
       inkscape:collect="always"
       id="linearGradient3865">
      <stop
         style="stop-color:#fce94f;stop-opacity:1;"
         offset="0"
         id="stop3867" />
      <stop
         style="stop-color:#fce94f;stop-opacity:0;"
         offset="1"
         id="stop3869" />
    </linearGradient>
    <linearGradient
       inkscape:collect="always"
       id="linearGradient3943">
      <stop
         style="stop-color:#eeeeec;stop-opacity:1;"
         offset="0"
         id="stop3945" />
      <stop
         style="stop-color:#eeeeec;stop-opacity:0;"
         offset="1"
         id="stop3947" />
    </linearGradient>
    <linearGradient
       inkscape:collect="always"
       xlink:href="#linearGradient3943"
       id="linearGradient3851"
       gradientUnits="userSpaceOnUse"
       gradientTransform="matrix(0,1,-1,0,1052.0174,954.70704)"
       x1="11.655163"
       y1="1003.3622"
       x2="85.655163"
       y2="1003.3622" />
    <linearGradient
       inkscape:collect="always"
       xlink:href="#linearGradient3865"
       id="linearGradient3871"
       x1="32.828125"
       y1="1017.1121"
       x2="64.515625"
       y2="1017.1121"
       gradientUnits="userSpaceOnUse"
       gradientTransform="matrix(0,1,-1,0,1065.784,968.44027)" />
  </defs>
  <sodipodi:namedview
     id="base"
     pagecolor="#ffffff"
     bordercolor="#666666"
     borderopacity="1.0"
     inkscape:pageopacity="0.0"
     inkscape:pageshadow="2"
     inkscape:zoom="2.5208333"
     inkscape:cx="48"
     inkscape:cy="48"
     inkscape:document-units="px"
     inkscape:current-layer="g3951"
     showgrid="false"
     inkscape:window-width="564"
     inkscape:window-height="434"
     inkscape:window-x="458"
     inkscape:window-y="210"
     inkscape:window-maximized="0" />
  <metadata
     id="metadata7">
    <rdf:RDF>
      <cc:Work
         rdf:about="">
        <dc:format>image/svg+xml</dc:format>
        <dc:type
           rdf:resource="http://purl.org/dc/dcmitype/StillImage" />
        <dc:title></dc:title>
      </cc:Work>
    </rdf:RDF>
  </metadata>
  <g
     inkscape:label="Layer 1"
     inkscape:groupmode="layer"
     id="layer1"
     transform="translate(0,-956.36218)">
    <g
       id="g3951">
      <g
         id="g3873">
        <path
           style="fill:#bfbfbf;fill-opacity:1;stroke:none"
           d="m 42.861879,966.36218 c -1.955251,0 -3.500475,1.58023 -3.500475,3.53548 l 0,4.37559 -6.510882,0 c -2.132,0 -3.850522,1.71852 -3.850522,3.85053 l 0,58.38792 c 0,2.132 1.718522,3.8505 3.850522,3.8505 l 31.609283,0 c 2.132,0 3.850522,-1.7185 3.850522,-3.8505 l 0,-58.38792 c 0,-2.13201 -1.718522,-3.85053 -3.850522,-3.85053 l -6.510882,0 0,-4.37559 c 0,-1.95525 -1.580228,-3.53548 -3.535479,-3.53548 l -11.551565,0 z m -2.975403,15.36708 17.537376,0 c 1.645716,0 2.940399,1.29469 2.940399,2.9404 l 0,45.29614 c 0,1.6457 -1.294683,2.9754 -2.940399,2.9754 l -17.537376,0 c -1.645716,0 -2.9404,-1.3297 -2.9404,-2.9754 l 0,-45.29614 c 0,-1.64571 1.294684,-2.9404 2.9404,-2.9404 z"
           id="rect3022"
           inkscape:connector-curvature="0" />
        <path
           style="fill:#73d216;fill-opacity:1;stroke:none"
           d="m 36.96875,1001.2684 0,28.8438 c 0,1.57 1.273753,2.8437 2.84375,2.8437 l 17.71875,0 c 1.569997,0 2.84375,-1.2737 2.84375,-2.8437 l 0,-28.8438 z"
           id="rect3030"
           inkscape:connector-curvature="0"
           sodipodi:nodetypes="ccssccc" />
        <path
           inkscape:connector-curvature="0"
           id="path3813"
           d="m 42.861868,966.36221 c -1.9552,0 -3.5004,1.58024 -3.5004,3.53548 l 0,4.37558 -6.5109,0 c -2.132,0 -3.8506,1.71853 -3.8506,3.85055 l 0,58.38788 c 0,2.132 1.7186,3.8505 3.8506,3.8505 l 31.60927,0 c 2.132,0 3.85052,-1.7185 3.85052,-3.8505 l 0,-58.38788 c 0,-2.13202 -1.71852,-3.85055 -3.85052,-3.85055 l -6.51088,0 0,-4.37558 c 0,-1.95524 -1.58023,-3.53548 -3.53548,-3.53548 l -11.55161,0 z m -2.9754,15.36707 17.53742,0 c 1.64571,0 2.9404,1.29469 2.9404,2.9404 l 0,45.29612 c 0,1.6457 -1.29469,2.9754 -2.9404,2.9754 l -17.53742,0 c -1.6457,0 -2.9404,-1.3297 -2.9404,-2.9754 l 0,-45.29612 c 0,-1.64571 1.2947,-2.9404 2.9404,-2.9404 z"
           style="fill:url(#linearGradient3851);fill-opacity:1;stroke:none" />
        <path
           sodipodi:nodetypes="ccssccc"
           inkscape:connector-curvature="0"
           id="path3855"
           d="m 36.968725,1001.2684 0,28.8438 c 0,1.57 1.2738,2.8437 2.8438,2.8437 l 17.7187,0 c 1.57,0 2.8438,-1.2737 2.8438,-2.8437 l 0,-28.8438 z"
           style="fill:url(#linearGradient3871);fill-opacity:1;stroke:none" />
      </g>
    </g>
  </g>
</svg>
