<?xml version="1.0" encoding="UTF-8" standalone="no"?>
<!-- Created with Inkscape (http://www.inkscape.org/) -->
<svg id="svg2408" xmlns:rdf="http://www.w3.org/1999/02/22-rdf-syntax-ns#" xmlns="http://www.w3.org/2000/svg" height="96" width="96" version="1.0" xmlns:cc="http://creativecommons.org/ns#" xmlns:xlink="http://www.w3.org/1999/xlink" xmlns:dc="http://purl.org/dc/elements/1.1/">
 <defs id="defs2410">
  <linearGradient id="linearGradient3737">
   <stop id="stop3739" style="stop-color:#fff" offset="0"/>
   <stop id="stop3741" style="stop-color:#fff;stop-opacity:0" offset="1"/>
  </linearGradient>
  <linearGradient id="linearGradient3135" y2="40.661" gradientUnits="userSpaceOnUse" x2="45.899" y1="92.401" x1="59.323">
   <stop id="stop3244-3-7" style="stop-color:#eef87e" offset="0"/>
   <stop id="stop3246-9-9" style="stop-color:#cde34f" offset=".26238"/>
   <stop id="stop3248-3-7" style="stop-color:#93b723" offset=".66094"/>
   <stop id="stop3250-3-2" style="stop-color:#5a7e0d" offset="1"/>
  </linearGradient>
  <linearGradient id="linearGradient3137" y2="54.336" gradientUnits="userSpaceOnUse" x2="43.705" y1="24" x1="32">
   <stop id="stop3773" style="stop-color:#fdffb0" offset="0"/>
   <stop id="stop3775" style="stop-color:#fff;stop-opacity:0" offset="1"/>
  </linearGradient>
  <linearGradient id="linearGradient3139" y2="48" xlink:href="#linearGradient3737" gradientUnits="userSpaceOnUse" x2="48" y1="16" x1="16"/>
  <linearGradient id="linearGradient3141" y2="48" xlink:href="#linearGradient3737" gradientUnits="userSpaceOnUse" x2="48" y1="80" x1="80"/>
 </defs>
 <metadata id="metadata2413">
  <rdf:RDF>
   <cc:Work rdf:about="">
    <dc:format>image/svg+xml</dc:format>
    <dc:type rdf:resource="http://purl.org/dc/dcmitype/StillImage"/>
    <dc:title/>
   </cc:Work>
  </rdf:RDF>
 </metadata>
 <g id="g3121" transform="matrix(1.3727 0 0 1.3727 -17.887 -17.887)">
  <path id="path3789" style="opacity:.1;fill:#5a691d" d="m33.406 13.031c-11.201 0-20.375 9.174-20.375 20.375 0 3.0781 0.81359 5.943 2.0312 8.5312-0.36216 1.9699-0.625 3.9843-0.625 6.0625 0 18.491 15.072 33.562 33.562 33.562 2.0782 0 4.0926-0.26284 6.0625-0.625 2.5932 1.2252 5.4487 2.0312 8.5312 2.0312 11.201 0 20.375-9.174 20.375-20.375 0-3.0826-0.80604-5.9381-2.0312-8.5312 0.36216-1.9699 0.625-3.9843 0.625-6.0625 0-18.491-15.072-33.562-33.562-33.562-2.1185 0-4.1356 0.32069-6.0625 0.6875-2.5622-1.2185-5.4179-2.0938-8.5312-2.0938z"/>
  <path id="path3785" style="opacity:.15;fill:#5a691d" d="m33.406 14.031c-10.663 0-19.375 8.7122-19.375 19.375 0 3.0389 0.77865 5.8806 2.0312 8.4375-0.38296 2.0108-0.625 4.0575-0.625 6.1562 0 17.955 14.607 32.562 32.562 32.562 2.0988 0 4.1455-0.24204 6.1562-0.625 2.5621 1.261 5.3918 2.0312 8.4375 2.0312 10.663 0 19.375-8.7122 19.375-19.375 0-3.0457-0.77022-5.8754-2.0312-8.4375 0.384-2.01 0.626-4.056 0.626-6.155 0-17.955-14.607-32.562-32.562-32.562-2.1229 0-4.1814 0.30251-6.1562 0.6875-2.5383-1.2527-5.3733-2.0938-8.4375-2.0938z"/>
  <path id="path3818" style="fill:url(#linearGradient3135)" d="m33.406 16c-9.6 0-17.406 7.806-17.406 17.406 0 2.9652 0.72093 5.7437 2.0312 8.1875-0.43745 2.0593-0.625 4.2172-0.625 6.4062 0 16.896 13.698 30.594 30.594 30.594 2.189 0 4.347-0.18755 6.4062-0.625 2.452 1.322 5.208 2.031 8.188 2.031 9.6 0 17.406-7.806 17.406-17.406 0-2.98-0.709-5.736-2.031-8.188 0.437-2.059 0.625-4.217 0.625-6.406 0-16.896-13.698-30.594-30.594-30.594-2.1896 0-4.3465 0.24984-6.4062 0.6875-2.444-1.311-5.222-2.094-8.188-2.094z"/>
  <path id="path3727" style="opacity:.6;fill:url(#linearGradient3137)" d="m33.406 16c-9.6 0-17.406 7.806-17.406 17.406 0 2.9652 0.72093 5.7437 2.0312 8.1875-0.43745 2.0593-0.625 4.2172-0.625 6.4062 0 4.3817 0.93294 8.5426 2.5938 12.312l57.75-19.593c-3.269-13.387-15.361-23.313-29.75-23.313-2.1896 0-4.3465 0.24984-6.4062 0.6875-2.444-1.311-5.222-2.094-8.188-2.094z"/>
  <path id="path3781" style="fill:#6d9114" d="m33.406 15.062c-10.104 0-18.344 8.2401-18.344 18.344 0 2.9972 0.74773 5.8076 2.0312 8.3125-0.40864 2.0419-0.625 4.1454-0.625 6.2812 0 17.398 14.133 31.531 31.531 31.531 2.1358 0 4.2393-0.21636 6.2812-0.625 2.511 1.2931 5.3055 2.0312 8.3125 2.0312 10.104 0 18.344-8.2401 18.344-18.344 0-3.007-0.73818-5.8015-2.0312-8.3125 0.40864-2.0419 0.625-4.1454 0.625-6.2812 0-17.398-14.133-31.531-31.531-31.531-2.1532 0-4.2541 0.27619-6.2812 0.6875-2.495-1.283-5.303-2.0938-8.3125-2.0938zm0 0.9375c-0.6 0-1.1967 0.03423-1.7812 0.09375-0.49975 0.05089-0.98231 0.12635-1.4688 0.21875 0.48778-0.0922 0.96772-0.16804 1.4688-0.21875 0.585-0.059 1.181-0.094 1.781-0.094zm3.4062 0.34375c0.64612 0.13139 1.2859 0.29786 1.9062 0.5-0.61832-0.20328-1.2599-0.36655-1.9062-0.5zm-7.1562 0.0625c-0.47838 0.10565-0.94344 0.23078-1.4062 0.375 0.45955-0.14201 0.93146-0.27078 1.4062-0.375zm-1.625 0.4375c-0.47068 0.15341-0.95405 0.33971-1.4062 0.53125 0.46235-0.19546 0.92461-0.37551 1.4062-0.53125zm18.344 0.594c-0.54231 0.03026-1.0898 0.09767-1.625 0.15625 0.54057-0.0614 1.0801-0.125 1.625-0.15625zm-12.969 0.5c2.6228 0 5.094 0.70209 7.2812 1.875a1.9466 1.9466 0 0 0 1.313 0.187c1.9368-0.41154 3.9585-0.65625 6-0.65625 15.844 0 28.656 12.812 28.656 28.656 0 2.0779-0.19023 4.1005-0.59375 6a1.9466 1.9466 0 0 0 0.1875 1.3438c1.171 2.1718 1.8125 4.5795 1.8125 7.25 0 8.5448-6.9239 15.469-15.469 15.469-2.6705 0-5.0782-0.64156-7.25-1.8125a1.9466 1.9466 0 0 0 -1.344 -0.188c-1.8995 0.40352-3.9221 0.59375-6 0.59375-15.844 0-28.656-12.812-28.656-28.656 0-2.0779 0.19023-4.1005 0.59375-6a1.9466 1.9466 0 0 0 -0.188 -1.312c-1.1605-2.1643-1.8125-4.6316-1.8125-7.2812 0-8.5448 6.9239-15.469 15.469-15.469zm-8.281 0.156c-0.49323 0.26823-0.97443 0.56193-1.4375 0.875-0.40779 0.2757-0.80524 0.56667-1.1875 0.875 0.38072-0.30562 0.78143-0.60172 1.1875-0.875 0.46302-0.3116 0.94431-0.60813 1.4375-0.875zm34.781 1.7188c0.91539 0.38739 1.8201 0.80986 2.6875 1.2812-0.86698-0.47098-1.7725-0.89421-2.6875-1.2812zm-37.562 0.15625c-0.42998 0.35498-0.85605 0.73106-1.25 1.125-0.29 0.29-0.575 0.596-0.844 0.906 0.27183-0.31322 0.55037-0.61332 0.84375-0.90625 0.39793-0.3973 0.8151-0.7676 1.25-1.125zm43.969 3.5c0.78574 0.58774 1.5251 1.2161 2.25 1.875-0.72441-0.65841-1.4647-1.2877-2.25-1.875zm4.3438 3.9688c0.65888 0.72488 1.2873 1.4643 1.875 2.25-0.58729-0.78529-1.2166-1.5256-1.875-2.25zm-53.875 0.8125c-0.16675 0.53514-0.32249 1.0692-0.4375 1.625 0.11385-0.55592 0.27193-1.0897 0.4375-1.625zm58.125 5.1562c0.47139 0.86739 0.89386 1.7721 1.2812 2.6875-0.38704-0.91504-0.81027-1.8205-1.2812-2.6875zm-55.094 26.5c0.38704 0.91504 0.81027 1.8205 1.2812 2.6875-0.47139-0.86739-0.89386-1.7721-1.2812-2.6875zm60.093 4.469c-0.0595 0.58452-0.1339 1.1526-0.25 1.7188 0.1161-0.5661 0.19048-1.1342 0.25-1.7188zm-0.25 1.75c-0.11501 0.55577-0.27075 1.0899-0.4375 1.625 0.16675-0.53514 0.32249-1.0692 0.4375-1.625zm-56.188 0.1875c0.58729 0.78529 1.2166 1.5256 1.875 2.25-0.65888-0.72488-1.2873-1.4643-1.875-2.25zm3.9688 4.3438c0.72441 0.65841 1.4647 1.2877 2.25 1.875-0.78574-0.58774-1.5251-1.2161-2.25-1.875zm5.9688 4.25c0.86698 0.47098 1.7725 0.89421 2.6875 1.2812-0.91539-0.38739-1.8201-0.80986-2.6875-1.2812z"/>
  <path id="path3750" style="opacity:.1;fill:#6e8511;fill-rule:evenodd" d="m47.423 26.388c-5.1738 0-9.4685 1.1203-12.57 3.4952-3.1123 2.3833-4.8419 6.0282-4.8419 10.293 0 4.9246 3.3455 8.162 7.2148 10.004 3.8251 1.8214 8.2955 2.6161 11.672 3.0783 0.01857 0.0026 0.04562-0.0026 0.06413 0 2.8465 0.77949 4.2663 1.5516 4.5213 1.7957 0.2213 0.21192 0.1942 0.17909 0.25652 0.44892 0.05213 0.22567 0.0962 0.67286 0.0962 1.3147 0 0.48838-0.11695 0.78916-0.35272 1.0902-0.23577 0.30107-0.62282 0.60386-1.1864 0.89784-1.0678 0.55697-2.6871 0.89784-3.8479 0.89784-3.9761 0-5.2361-1.1557-6.6376-2.6294-0.68144-0.71657-1.3399-1.5764-2.2767-2.3408-0.95934-0.7829-2.263-1.4109-3.8799-1.4109-1.4116 0-2.8856 0.21752-3.9761 1.2826-1.0925 1.0669-1.4109 2.6173-1.4109 4.3609 0 1.3332 0.5879 2.5854 1.475 3.7517 0.88507 1.1635 2.1085 2.318 3.6555 3.3348 3.0914 2.0318 7.4674 3.5593 12.73 3.5593 5.1381 0 9.5093-0.96035 12.73-3.1424 3.2384-2.194 5.1305-5.7046 5.1305-10.004 0-4.4191-1.9811-7.6489-5.0343-9.748-2.9199-2.0074-6.7305-3.1231-10.838-4.2327-0.02361-0.0064-0.0405-0.02569-0.06413-0.03207-0.02363-0.0064-0.04048-0.02569-0.06413-0.03206a0.65372 0.65372 0 0 0 -0.03207 0 0.65372 0.65372 0 0 0 -0.03207 -0.03207c-0.000132-0.000064-0.01837 0.0063-0.03207 0s0.000135-0.032 0-0.03207c-0.000269-0.000116-0.06385 0.000103-0.06413 0-0.000274-0.000102-0.06385-0.03197-0.06413-0.03207-0.000279-0.000091-0.06384 0.000078-0.06413 0-0.000169-0.000046-0.01524-0.02786-0.03207-0.03207-0.01138-0.0028-0.02071 0.0028-0.03207 0-2.799-0.68023-5.0155-1.2966-6.1887-1.8919-0.57332-0.29091-0.87076-0.59233-1.0582-0.83371-0.20859-0.26866-0.22446-0.23744-0.22446-0.60925 0-1.1046 0.36017-1.507 1.2826-2.0522 0.85466-0.50516 2.2513-0.83371 3.431-0.83371 2.0128 0 3.2441 0.28876 4.0723 0.67338 0.82815 0.38457 1.2921 0.879 1.8277 1.5071 0.49799 0.58394 1.0349 1.3806 1.8919 2.1163 0.90093 0.77342 2.1615 1.3147 3.7196 1.3147 1.299 0 2.7073-0.07118 3.912-0.96197 1.2561-0.92881 1.7636-2.5025 1.7636-4.3289 0-2.4425-1.7161-4.8451-4.5213-6.7338-2.819-1.898-6.8952-3.2707-12.121-3.2707z"/>
  <path id="path3746" style="opacity:.3;fill:#6e8511;fill-rule:evenodd" d="m47.423 27.029c-5.0786 0-9.2372 1.1096-12.185 3.3669-2.9514 2.2601-4.5854 5.6893-4.5854 9.78 0 4.6306 3.124 7.6473 6.8621 9.4273 3.7309 1.7766 8.1827 2.5559 11.544 3.0142 2.937 0.79759 4.3836 1.4864 4.874 1.956 0.2651 0.25387 0.36915 0.42423 0.44892 0.76958 0.07791 0.33733 0.0962 0.82101 0.0962 1.475 0 1.2181-0.67475 1.9304-1.8919 2.5653-1.2018 0.62689-2.8611 0.96197-4.1365 0.96197-4.1151 0-5.6837-1.3129-7.1186-2.8218-0.71226-0.74898-1.3468-1.5702-2.2125-2.2767-0.8751-0.71415-2.0175-1.2826-3.4631-1.2826-1.3363 0-2.6145 0.23089-3.5272 1.1223-0.91311 0.89178-1.2185 2.2163-1.2185 3.8799 0 1.1365 0.51298 2.2708 1.3468 3.3669 0.83403 1.0964 2.0043 2.1946 3.4952 3.1745 2.9807 1.9591 7.2423 3.4631 12.377 3.4631 5.0546 0 9.311-0.96877 12.377-3.0462 3.0721-2.0813 4.8419-5.3471 4.8419-9.4594 0-4.2267-1.8662-7.2012-4.7778-9.2028-2.8347-1.9488-6.6102-3.0788-10.774-4.2006a0.67293 0.67293 0 0 0 -0.03206 -0.03206c-0.01035-0.0028-0.02171 0.0028-0.03207 0a0.67293 0.67293 0 0 0 -0.22446 -0.0962c-2.8252-0.6859-5.048-1.2959-6.349-1.956-0.64442-0.32699-1.0329-0.67235-1.2826-0.99404-0.25059-0.32275-0.35272-0.55901-0.35272-1.0261 0-1.2983 0.57695-2.0228 1.6033-2.6294 1.0094-0.59663 2.4696-0.89784 3.7517-0.89784 2.0759 0 3.4208 0.30092 4.3609 0.73751 0.94016 0.43659 1.5008 1.0208 2.0522 1.6674 0.53978 0.63293 1.0227 1.3886 1.7957 2.0522 0.78721 0.6758 1.8925 1.1544 3.3028 1.1544 1.2716 0 2.508-0.08 3.5272-0.83371 1.0393-0.76854 1.5071-2.1089 1.5071-3.8158 0-2.1271-1.5394-4.3753-4.2327-6.1887-2.6984-1.8168-6.6583-3.1745-11.768-3.1745z"/>
  <path id="path3742" style="opacity:.6;fill:#6e8511;fill-rule:evenodd" d="m47.423 27.702c-4.9793 0-8.9781 1.1021-11.768 3.2386-2.79 2.1365-4.3289 5.3205-4.3289 9.2349 0 4.3338 2.8672 7.099 6.4773 8.8181 3.6101 1.719 8.0132 2.4949 11.351 2.95 3.0305 0.81683 4.5674 1.4863 5.2588 2.1484 0.349 0.33421 0.51032 0.66194 0.60925 1.0902 0.09893 0.42829 0.12826 0.9618 0.12826 1.6354 0 1.4912-0.90761 2.4771-2.2446 3.1745-1.337 0.69737-3.0751 1.0261-4.4571 1.0261-4.2716 0-6.1197-1.4901-7.5996-3.0462-0.73994-0.77809-1.3579-1.5674-2.1484-2.2125-0.7905-0.64511-1.7681-1.1223-3.0462-1.1223-1.2586 0-2.3174 0.21809-3.0462 0.9299-0.72885 0.71182-1.0261 1.8198-1.0261 3.399 0 0.92315 0.43899 1.9253 1.2185 2.95 0.7795 1.0248 1.9005 2.0714 3.3348 3.0142 2.8687 1.8855 6.9904 3.3669 11.993 3.3669 4.9688 0 9.0874-0.94976 11.993-2.918 2.9051-1.9682 4.5533-4.9904 4.5533-8.9143 0-4.0359-1.7166-6.7516-4.4892-8.6577s-6.5633-3.0551-10.838-4.2006a0.4798 0.4798 0 0 0 0 -0.03207c-2.8309-0.68727-5.0535-1.2656-6.4773-1.9881-0.71188-0.36122-1.2131-0.76652-1.5392-1.1864-0.32602-0.41991-0.48099-0.85719-0.48099-1.443 0-1.523 0.76293-2.5203 1.9239-3.2066 1.161-0.68624 2.7224-0.99404 4.1044-0.99404 4.2856 0 5.7737 1.278 6.9262 2.6294 0.57626 0.6757 1.0508 1.4037 1.7315 1.9881 0.68072 0.58438 1.5888 0.99404 2.8538 0.99404 1.2352 0 2.324-0.10024 3.1424-0.70544 0.81846-0.60521 1.2185-1.6763 1.2185-3.2707 0-1.7821-1.3708-3.9109-3.9441-5.6436-2.5733-1.7326-6.3916-3.0462-11.383-3.0462z"/>
  <path id="path3757" style="fill:#fff;fill-rule:evenodd" d="m47.42 28.169c-9.8149 0-15.615 4.4167-15.615 12.001 0 8.2502 10.754 10.381 17.399 11.287 6.2199 1.6666 6.4243 2.6366 6.4243 5.3536 0 3.3862-4.2761 4.6844-7.1827 4.6844-8.7757 0-8.1278-6.3797-12.804-6.3797-2.4091 0-3.569 0.80304-3.569 3.8367s6.2458 8.878 16.061 8.878c9.8149 0 16.061-3.7921 16.061-11.376 0-7.8078-6.4601-10.117-14.99-12.402-5.6738-1.3775-8.8334-2.3689-8.8334-5.0859 0-3.3862 3.6069-4.6844 6.5135-4.6844 8.7757 0 6.834 5.6213 11.51 5.6213 2.4091 0 3.8813-0.49074 3.8813-3.5244s-5.0413-8.2088-14.856-8.2088z"/>
  <path id="path3760" style="opacity:.6;fill:url(#linearGradient3139)" d="m33.406 16c-9.601 0-17.406 7.805-17.406 17.406 0 2.8437 0.68416 5.5212 1.9062 7.9062 0.09573 0.18024 0.12928 0.39278 0.09375 0.59375-0.39701 1.9838-0.59375 4.0203-0.59375 6.0938 0 8.4253 3.4288 16.03 8.9375 21.562-4.938-5.432-7.938-12.641-7.938-20.562 0-0.16581-0.0025-0.33467 0-0.5-0.0027-0.16603 0-0.33332 0-0.5 0-1.9241 0.19127-3.7969 0.53125-5.5938 0.000176-0.01042 0.000176-0.02083 0-0.03125-0.009-0.021-0.02-0.042-0.031-0.063-1.222-2.385-1.906-5.062-1.906-7.906 0-0.12654 0.02855-0.2491 0.03125-0.375-0.008-0.21-0.031-0.412-0.031-0.625 0-9.043 7.363-16.406 16.406-16.406 0.21131 0 0.41564 0.02261 0.625 0.03125 0.126-0.002 0.249-0.031 0.375-0.031 2.8437 0 5.4898 0.7422 7.875 1.9688 0.02043 0.0112 0.04128 0.02163 0.0625 0.03125 0.01042 0.000176 0.02083 0.000176 0.03125 0 1.6431-0.32128 3.3369-0.52498 5.0625-0.5625 0.18618-0.004 0.37574-0.03125 0.5625-0.03125 0.16668 0 0.33397-0.0027 0.5 0 0.16537-0.0032 0.33412 0 0.5 0 7.921 0 15.13 2.9997 20.562 7.9375-5.532-5.509-13.137-8.938-21.562-8.938-2.0743 0-4.1094 0.25364-6.0938 0.65625-0.2107 0.04282-0.43613 0.009-0.625-0.09375-2.385-1.226-5.031-1.968-7.875-1.968z"/>
  <path id="path3765" style="opacity:.6;fill:url(#linearGradient3141)" d="m62.594 80c9.601 0 17.406-7.805 17.406-17.406 0-2.844-0.684-5.521-1.906-7.906-0.096-0.181-0.13-0.393-0.094-0.594 0.397-1.984 0.594-4.021 0.594-6.094 0-8.4253-3.4288-16.03-8.9375-21.562 4.9378 5.4329 7.9375 12.641 7.9375 20.562 0 0.16581 0.0025 0.33467 0 0.5 0.0027 0.16603 0 0.33332 0 0.5 0 1.9241-0.19127 3.7969-0.53125 5.5938-0.000176 0.01042-0.000176 0.02083 0 0.03125 0.0096 0.02122 0.02005 0.04207 0.03125 0.0625 1.222 2.385 1.906 5.062 1.906 7.906 0 0.12654-0.02855 0.2491-0.03125 0.375 0.008 0.21 0.031 0.412 0.031 0.625 0 9.043-7.363 16.406-16.406 16.406-0.212 0-0.416-0.023-0.625-0.031-0.126 0.002-0.249 0.031-0.375 0.031-2.844 0-5.49-0.742-7.875-1.969-0.021-0.011-0.042-0.021-0.063-0.031-0.01042-0.000176-0.02083-0.000176-0.03125 0-1.6431 0.32128-3.3369 0.52498-5.0625 0.5625-0.18618 0.004-0.37574 0.03125-0.5625 0.03125-0.16668 0-0.33397 0.0027-0.5 0-0.16537 0.0032-0.33412 0-0.5 0-7.921 0-15.13-2.9997-20.562-7.9375 5.5324 5.5087 13.137 8.9375 21.562 8.9375 2.0743 0 4.1094-0.25364 6.0938-0.65625 0.2107-0.04282 0.43613-0.009 0.625 0.09375 2.385 1.227 5.031 1.969 7.875 1.969z"/>
  <path id="path3783" style="fill:#688c13" d="m33.406 16.938c-8.5448 0-15.469 6.9239-15.469 15.469 0 0.21747 0.02255 0.44131 0.03125 0.65625 0.18354-8.3853 7.0081-15.125 15.438-15.125 2.6228 0 5.094 0.70209 7.2812 1.875a1.9466 1.9466 0 0 0 1.313 0.187c1.9368-0.41154 3.9585-0.65625 6-0.65625 15.676 0 28.388 12.546 28.656 28.156 0.0024-0.16542 0-0.33384 0-0.5 0-15.844-12.812-28.656-28.656-28.656-2.0415 0-4.0632 0.24471-6 0.65625a1.9466 1.9466 0 0 1 -1.3125 -0.1875c-2.1872-1.1729-4.6584-1.875-7.2812-1.875zm-18.312 16.125c-0.0022 0.11551-0.03125 0.22774-0.03125 0.34375 0 2.8901 0.70577 5.5949 1.9062 8.0312 0.04255-0.24084 0.07713-0.47955 0.125-0.71875-1.1899-2.3222-1.8999-4.9036-2-7.6562zm4.8125 8.0312c-0.38975 1.8718-0.5625 3.8632-0.5625 5.9062 0 0.16848-0.0029 0.33222 0 0.5 0.02813-1.9032 0.2225-3.7524 0.59375-5.5a1.9466 1.9466 0 0 0 -0.031 -0.906zm-3.437 6.406c-0.0026 0.16704 0 0.33255 0 0.5 0 17.398 14.133 31.531 31.531 31.531 2.1358 0 4.2393-0.21636 6.2812-0.625 2.511 1.2931 5.3055 2.0312 8.3125 2.0312 10.104 0 18.344-8.2401 18.344-18.344 0-0.21938-0.02346-0.43916-0.03125-0.65625-0.18622 9.9445-8.3249 18-18.312 18-3.007 0-5.8015-0.7382-8.3125-2.0312-2.0419 0.40864-4.1454 0.625-6.2812 0.625-17.231 0-31.263-13.864-31.531-31.031zm63.062 0c-0.03113 1.9635-0.2484 3.8994-0.625 5.7812 0.0462 0.08972 0.08022 0.19081 0.125 0.28125 0.32071-1.8151 0.5-3.6769 0.5-5.5625 0-0.16723 0.0026-0.33338 0-0.5zm-3.4375 6.4062c-0.007 0.032-0.025 0.062-0.032 0.094a1.9466 1.9466 0 0 0 0.1875 1.3438c1.0748 1.9936 1.6853 4.1818 1.7812 6.5938 0.0025-0.1148 0.03125-0.22834 0.03125-0.34375 0-2.6705-0.64155-5.0782-1.8125-7.25a1.9466 1.9466 0 0 1 -0.15625 -0.4375z"/>
 </g>
</svg>
