<?xml version="1.0" encoding="UTF-8" standalone="no"?>
<!-- Created with Inkscape (http://www.inkscape.org/) -->
<svg id="svg2408" xmlns:rdf="http://www.w3.org/1999/02/22-rdf-syntax-ns#" xmlns="http://www.w3.org/2000/svg" height="96" width="96" version="1.0" xmlns:cc="http://creativecommons.org/ns#" xmlns:xlink="http://www.w3.org/1999/xlink" xmlns:dc="http://purl.org/dc/elements/1.1/">
 <defs id="defs2410">
  <linearGradient id="linearGradient3737">
   <stop id="stop3739" style="stop-color:#fff" offset="0"/>
   <stop id="stop3741" style="stop-color:#fff;stop-opacity:0" offset="1"/>
  </linearGradient>
  <linearGradient id="linearGradient3141" y2="34.627" gradientUnits="userSpaceOnUse" x2="46.654" y1="85.224" x1="60.211">
   <stop id="stop2852" style="stop-color:#bbb" offset="0"/>
   <stop id="stop2854" style="stop-color:#999" offset=".26238"/>
   <stop id="stop2856" style="stop-color:#6d6d6d" offset=".66094"/>
   <stop id="stop2858" style="stop-color:#454545" offset="1"/>
  </linearGradient>
  <linearGradient id="linearGradient3143" y2="54.013" gradientUnits="userSpaceOnUse" x2="43.705" y1="24" x1="32">
   <stop id="stop2874" style="stop-color:#fff" offset="0"/>
   <stop id="stop2876" style="stop-color:#fff;stop-opacity:0" offset="1"/>
  </linearGradient>
  <linearGradient id="linearGradient3145" y2="48" xlink:href="#linearGradient3737" gradientUnits="userSpaceOnUse" x2="48" y1="16" x1="16"/>
  <linearGradient id="linearGradient3147" y2="48" xlink:href="#linearGradient3737" gradientUnits="userSpaceOnUse" x2="48" y1="80" x1="80"/>
 </defs>
 <metadata id="metadata2413">
  <rdf:RDF>
   <cc:Work rdf:about="">
    <dc:format>image/svg+xml</dc:format>
    <dc:type rdf:resource="http://purl.org/dc/dcmitype/StillImage"/>
    <dc:title/>
   </cc:Work>
  </rdf:RDF>
 </metadata>
 <g id="g3127" transform="matrix(1.3727 0 0 1.3727 -17.887 -17.887)">
  <path id="path3789" style="opacity:.1;fill:#4d4d4d" d="m33.406 13.031c-11.201 0-20.375 9.174-20.375 20.375 0 3.0781 0.81359 5.943 2.0312 8.5312-0.36216 1.9699-0.625 3.9843-0.625 6.0625 0 18.491 15.072 33.562 33.562 33.562 2.0782 0 4.0926-0.26284 6.0625-0.625 2.5932 1.2252 5.4487 2.0312 8.5312 2.0312 11.201 0 20.375-9.174 20.375-20.375 0-3.0826-0.80604-5.9381-2.0312-8.5312 0.36216-1.9699 0.625-3.9843 0.625-6.0625 0-18.491-15.072-33.562-33.562-33.562-2.1185 0-4.1356 0.32069-6.0625 0.6875-2.5622-1.2185-5.4179-2.0938-8.5312-2.0938z"/>
  <path id="path3785" style="opacity:.15;fill:#4d4d4d" d="m33.406 14.031c-10.663 0-19.375 8.7122-19.375 19.375 0 3.0389 0.77865 5.8806 2.0312 8.4375-0.38296 2.0108-0.625 4.0575-0.625 6.1562 0 17.955 14.607 32.562 32.562 32.562 2.0988 0 4.1455-0.24204 6.1562-0.625 2.5621 1.261 5.3918 2.0312 8.4375 2.0312 10.663 0 19.375-8.7122 19.375-19.375 0-3.0457-0.77022-5.8754-2.0312-8.4375 0.384-2.01 0.626-4.056 0.626-6.155 0-17.955-14.607-32.562-32.562-32.562-2.1229 0-4.1814 0.30251-6.1562 0.6875-2.5383-1.2527-5.3733-2.0938-8.4375-2.0938z"/>
  <path id="path3818" style="fill:url(#linearGradient3141)" d="m33.406 16c-9.6 0-17.406 7.806-17.406 17.406 0 2.9652 0.72093 5.7437 2.0312 8.1875-0.43745 2.0593-0.625 4.2172-0.625 6.4062 0 16.896 13.698 30.594 30.594 30.594 2.189 0 4.347-0.18755 6.4062-0.625 2.452 1.322 5.208 2.031 8.188 2.031 9.6 0 17.406-7.806 17.406-17.406 0-2.98-0.709-5.736-2.031-8.188 0.437-2.059 0.625-4.217 0.625-6.406 0-16.896-13.698-30.594-30.594-30.594-2.1896 0-4.3465 0.24984-6.4062 0.6875-2.444-1.311-5.222-2.094-8.188-2.094z"/>
  <path id="path3727" style="opacity:.6;fill:url(#linearGradient3143)" d="m33.406 16c-9.6 0-17.406 7.806-17.406 17.406 0 2.9652 0.72093 5.7437 2.0312 8.1875-0.43745 2.0593-0.625 4.2172-0.625 6.4062 0 4.3817 0.93294 8.5426 2.5938 12.312l57.75-19.593c-3.269-13.387-15.361-23.313-29.75-23.313-2.1896 0-4.3465 0.24984-6.4062 0.6875-2.444-1.311-5.222-2.094-8.188-2.094z"/>
  <path id="path3781" style="fill:#666" d="m33.406 15.062c-10.104 0-18.344 8.2401-18.344 18.344 0 2.9972 0.74773 5.8076 2.0312 8.3125-0.40864 2.0419-0.625 4.1454-0.625 6.2812 0 17.398 14.133 31.531 31.531 31.531 2.1358 0 4.2393-0.21636 6.2812-0.625 2.511 1.2931 5.3055 2.0312 8.3125 2.0312 10.104 0 18.344-8.2401 18.344-18.344 0-3.007-0.73818-5.8015-2.0312-8.3125 0.40864-2.0419 0.625-4.1454 0.625-6.2812 0-17.398-14.133-31.531-31.531-31.531-2.1532 0-4.2541 0.27619-6.2812 0.6875-2.495-1.283-5.303-2.0938-8.3125-2.0938zm0 0.9375c-0.6 0-1.1967 0.03423-1.7812 0.09375-0.49975 0.05089-0.98231 0.12635-1.4688 0.21875 0.48778-0.0922 0.96772-0.16804 1.4688-0.21875 0.585-0.059 1.181-0.094 1.781-0.094zm3.4062 0.34375c0.64612 0.13139 1.2859 0.29786 1.9062 0.5-0.61832-0.20328-1.2599-0.36655-1.9062-0.5zm-7.1562 0.0625c-0.47838 0.10565-0.94344 0.23078-1.4062 0.375 0.45955-0.14201 0.93146-0.27078 1.4062-0.375zm-1.625 0.4375c-0.47068 0.15341-0.95405 0.33971-1.4062 0.53125 0.46235-0.19546 0.92461-0.37551 1.4062-0.53125zm18.344 0.594c-0.54231 0.03026-1.0898 0.09767-1.625 0.15625 0.54057-0.0614 1.0801-0.125 1.625-0.15625zm-12.969 0.5c2.6228 0 5.094 0.70209 7.2812 1.875a1.9466 1.9466 0 0 0 1.313 0.187c1.9368-0.41154 3.9585-0.65625 6-0.65625 15.844 0 28.656 12.812 28.656 28.656 0 2.0779-0.19023 4.1005-0.59375 6a1.9466 1.9466 0 0 0 0.1875 1.3438c1.171 2.1718 1.8125 4.5795 1.8125 7.25 0 8.5448-6.9239 15.469-15.469 15.469-2.6705 0-5.0782-0.64156-7.25-1.8125a1.9466 1.9466 0 0 0 -1.344 -0.188c-1.8995 0.40352-3.9221 0.59375-6 0.59375-15.844 0-28.656-12.812-28.656-28.656 0-2.0779 0.19023-4.1005 0.59375-6a1.9466 1.9466 0 0 0 -0.188 -1.312c-1.1605-2.1643-1.8125-4.6316-1.8125-7.2812 0-8.5448 6.9239-15.469 15.469-15.469zm-8.281 0.156c-0.49323 0.26823-0.97443 0.56193-1.4375 0.875-0.40779 0.2757-0.80524 0.56667-1.1875 0.875 0.38072-0.30562 0.78143-0.60172 1.1875-0.875 0.46302-0.3116 0.94431-0.60813 1.4375-0.875zm34.781 1.7188c0.91539 0.38739 1.8201 0.80986 2.6875 1.2812-0.86698-0.47098-1.7725-0.89421-2.6875-1.2812zm-37.562 0.15625c-0.42998 0.35498-0.85605 0.73106-1.25 1.125-0.29 0.29-0.575 0.596-0.844 0.906 0.27183-0.31322 0.55037-0.61332 0.84375-0.90625 0.39793-0.3973 0.8151-0.7676 1.25-1.125zm43.969 3.5c0.78574 0.58774 1.5251 1.2161 2.25 1.875-0.72441-0.65841-1.4647-1.2877-2.25-1.875zm4.3438 3.9688c0.65888 0.72488 1.2873 1.4643 1.875 2.25-0.58729-0.78529-1.2166-1.5256-1.875-2.25zm-53.875 0.8125c-0.16675 0.53514-0.32249 1.0692-0.4375 1.625 0.11385-0.55592 0.27193-1.0897 0.4375-1.625zm58.125 5.1562c0.47139 0.86739 0.89386 1.7721 1.2812 2.6875-0.38704-0.91504-0.81027-1.8205-1.2812-2.6875zm-55.094 26.5c0.38704 0.91504 0.81027 1.8205 1.2812 2.6875-0.47139-0.86739-0.89386-1.7721-1.2812-2.6875zm60.093 4.469c-0.0595 0.58452-0.1339 1.1526-0.25 1.7188 0.1161-0.5661 0.19048-1.1342 0.25-1.7188zm-0.25 1.75c-0.11501 0.55577-0.27075 1.0899-0.4375 1.625 0.16675-0.53514 0.32249-1.0692 0.4375-1.625zm-56.188 0.1875c0.58729 0.78529 1.2166 1.5256 1.875 2.25-0.65888-0.72488-1.2873-1.4643-1.875-2.25zm3.9688 4.3438c0.72441 0.65841 1.4647 1.2877 2.25 1.875-0.78574-0.58774-1.5251-1.2161-2.25-1.875zm5.9688 4.25c0.86698 0.47098 1.7725 0.89421 2.6875 1.2812-0.91539-0.38739-1.8201-0.80986-2.6875-1.2812z"/>
  <path id="path3760" style="opacity:.6;fill:url(#linearGradient3145)" d="m33.406 16c-9.601 0-17.406 7.805-17.406 17.406 0 2.8437 0.68416 5.5212 1.9062 7.9062 0.09573 0.18024 0.12928 0.39278 0.09375 0.59375-0.39701 1.9838-0.59375 4.0203-0.59375 6.0938 0 8.4253 3.4288 16.03 8.9375 21.562-4.938-5.432-7.938-12.641-7.938-20.562 0-0.16581-0.0025-0.33467 0-0.5-0.0027-0.16603 0-0.33332 0-0.5 0-1.9241 0.19127-3.7969 0.53125-5.5938 0.000176-0.01042 0.000176-0.02083 0-0.03125-0.009-0.021-0.02-0.042-0.031-0.063-1.222-2.385-1.906-5.062-1.906-7.906 0-0.12654 0.02855-0.2491 0.03125-0.375-0.008-0.21-0.031-0.412-0.031-0.625 0-9.043 7.363-16.406 16.406-16.406 0.21131 0 0.41564 0.02261 0.625 0.03125 0.126-0.002 0.249-0.031 0.375-0.031 2.8437 0 5.4898 0.7422 7.875 1.9688 0.02043 0.0112 0.04128 0.02163 0.0625 0.03125 0.01042 0.000176 0.02083 0.000176 0.03125 0 1.6431-0.32128 3.3369-0.52498 5.0625-0.5625 0.18618-0.004 0.37574-0.03125 0.5625-0.03125 0.16668 0 0.33397-0.0027 0.5 0 0.16537-0.0032 0.33412 0 0.5 0 7.921 0 15.13 2.9997 20.562 7.9375-5.532-5.509-13.137-8.938-21.562-8.938-2.0743 0-4.1094 0.25364-6.0938 0.65625-0.2107 0.04282-0.43613 0.009-0.625-0.09375-2.385-1.226-5.031-1.968-7.875-1.968z"/>
  <path id="path3765" style="opacity:.6;fill:url(#linearGradient3147)" d="m62.594 80c9.601 0 17.406-7.805 17.406-17.406 0-2.844-0.684-5.521-1.906-7.906-0.096-0.181-0.13-0.393-0.094-0.594 0.397-1.984 0.594-4.021 0.594-6.094 0-8.4253-3.4288-16.03-8.9375-21.562 4.9378 5.4329 7.9375 12.641 7.9375 20.562 0 0.16581 0.0025 0.33467 0 0.5 0.0027 0.16603 0 0.33332 0 0.5 0 1.9241-0.19127 3.7969-0.53125 5.5938-0.000176 0.01042-0.000176 0.02083 0 0.03125 0.0096 0.02122 0.02005 0.04207 0.03125 0.0625 1.222 2.385 1.906 5.062 1.906 7.906 0 0.12654-0.02855 0.2491-0.03125 0.375 0.008 0.21 0.031 0.412 0.031 0.625 0 9.043-7.363 16.406-16.406 16.406-0.212 0-0.416-0.023-0.625-0.031-0.126 0.002-0.249 0.031-0.375 0.031-2.844 0-5.49-0.742-7.875-1.969-0.021-0.011-0.042-0.021-0.063-0.031-0.01042-0.000176-0.02083-0.000176-0.03125 0-1.6431 0.32128-3.3369 0.52498-5.0625 0.5625-0.18618 0.004-0.37574 0.03125-0.5625 0.03125-0.16668 0-0.33397 0.0027-0.5 0-0.16537 0.0032-0.33412 0-0.5 0-7.921 0-15.13-2.9997-20.562-7.9375 5.5324 5.5087 13.137 8.9375 21.562 8.9375 2.0743 0 4.1094-0.25364 6.0938-0.65625 0.2107-0.04282 0.43613-0.009 0.625 0.09375 2.385 1.227 5.031 1.969 7.875 1.969z"/>
  <path id="path3783" style="fill:#666" d="m33.406 16.938c-8.5448 0-15.469 6.9239-15.469 15.469 0 0.21747 0.02255 0.44131 0.03125 0.65625 0.18354-8.3853 7.0081-15.125 15.438-15.125 2.6228 0 5.094 0.70209 7.2812 1.875a1.9466 1.9466 0 0 0 1.313 0.187c1.9368-0.41154 3.9585-0.65625 6-0.65625 15.676 0 28.388 12.546 28.656 28.156 0.0024-0.16542 0-0.33384 0-0.5 0-15.844-12.812-28.656-28.656-28.656-2.0415 0-4.0632 0.24471-6 0.65625a1.9466 1.9466 0 0 1 -1.3125 -0.1875c-2.1872-1.1729-4.6584-1.875-7.2812-1.875zm-18.312 16.125c-0.0022 0.11551-0.03125 0.22774-0.03125 0.34375 0 2.8901 0.70577 5.5949 1.9062 8.0312 0.04255-0.24084 0.07713-0.47955 0.125-0.71875-1.1899-2.3222-1.8999-4.9036-2-7.6562zm4.8125 8.0312c-0.38975 1.8718-0.5625 3.8632-0.5625 5.9062 0 0.16848-0.0029 0.33222 0 0.5 0.02813-1.9032 0.2225-3.7524 0.59375-5.5a1.9466 1.9466 0 0 0 -0.031 -0.906zm-3.437 6.406c-0.0026 0.16704 0 0.33255 0 0.5 0 17.398 14.133 31.531 31.531 31.531 2.1358 0 4.2393-0.21636 6.2812-0.625 2.511 1.2931 5.3055 2.0312 8.3125 2.0312 10.104 0 18.344-8.2401 18.344-18.344 0-0.21938-0.02346-0.43916-0.03125-0.65625-0.18622 9.9445-8.3249 18-18.312 18-3.007 0-5.8015-0.7382-8.3125-2.0312-2.0419 0.40864-4.1454 0.625-6.2812 0.625-17.231 0-31.263-13.864-31.531-31.031zm63.062 0c-0.03113 1.9635-0.2484 3.8994-0.625 5.7812 0.0462 0.08972 0.08022 0.19081 0.125 0.28125 0.32071-1.8151 0.5-3.6769 0.5-5.5625 0-0.16723 0.0026-0.33338 0-0.5zm-3.4375 6.4062c-0.007 0.032-0.025 0.062-0.032 0.094a1.9466 1.9466 0 0 0 0.1875 1.3438c1.0748 1.9936 1.6853 4.1818 1.7812 6.5938 0.0025-0.1148 0.03125-0.22834 0.03125-0.34375 0-2.6705-0.64155-5.0782-1.8125-7.25a1.9466 1.9466 0 0 1 -0.15625 -0.4375z"/>
  <path id="path3749" style="opacity:.1;color:#000000;fill:#4d4d4d" d="m35.531 29.906c-1.4248 0-2.8711 0.5586-3.9688 1.6562-2.1824 2.1824-2.1824 5.7551 0 7.9375l8.5 8.5-8.5 8.5c-2.1824 2.1824-2.1824 5.7551 0 7.9375s5.7551 2.1824 7.9375 0l8.5-8.5 8.5 8.5c2.1824 2.1824 5.7551 2.1824 7.9375 0s2.1824-5.7551 0-7.9375l-8.5-8.5 8.5-8.5c2.1824-2.1824 2.1824-5.7551 0-7.9375s-5.7551-2.1824-7.9375 0l-8.5 8.5-8.5-8.5c-1.0977-1.0977-2.5439-1.6562-3.9688-1.6562z"/>
  <path id="path3745" style="opacity:.3;color:#000000;fill:#4d4d4d" d="m35.531 30.688c-1.233 0-2.4929 0.46163-3.4375 1.4062-1.8836 1.8836-1.8836 4.9914 0 6.875l9.031 9.031-9.031 9.031c-1.8836 1.8836-1.8836 4.9914 0 6.875s4.9914 1.8836 6.875 0l9.031-9.031 9.0312 9.0312c1.8836 1.8836 4.9914 1.8836 6.875 0s1.8836-4.9914 0-6.875l-9.031-9.031 9.031-9.031c1.8836-1.8836 1.8836-4.9914 0-6.875s-4.9914-1.8836-6.875 0l-9.031 9.031-9.031-9.031c-0.945-0.945-2.205-1.406-3.438-1.406z"/>
  <path id="path3741" style="opacity:.6;color:#000000;fill:#4d4d4d" d="m35.531 31.469c-1.0346 0-2.0819 0.3944-2.875 1.1875-1.5834 1.5834-1.5834 4.1666 0 5.75l9.594 9.594-9.594 9.594c-1.5834 1.5834-1.5834 4.1666 0 5.75 1.5834 1.5833 4.1666 1.5833 5.75 0l9.594-9.594 9.5938 9.5938c1.5834 1.5833 4.1666 1.5833 5.75 0 1.5834-1.5834 1.5834-4.1666 0-5.75l-9.594-9.594 9.594-9.594c1.5834-1.5834 1.5834-4.1666 0-5.75s-4.1666-1.5834-5.75 0l-9.594 9.594-9.594-9.594c-0.7931-0.7931-1.8404-1.1875-2.875-1.1875z"/>
  <path id="path3737" style="color:#000000;fill:#fff" d="m35.538 31.995c-0.90193 0-1.8104 0.35496-2.5015 1.0461-1.3822 1.3822-1.3822 3.6207 0 5.0029l9.9604 9.9604-9.9604 9.9604c-1.3822 1.3822-1.3822 3.6207 0 5.0029s3.6207 1.3822 5.0029 0l9.9604-9.9604 9.9604 9.9604c1.3822 1.3822 3.6207 1.3822 5.0029 0s1.3822-3.6207 0-5.0029l-9.9604-9.9604 9.9604-9.9604c1.3822-1.3822 1.3822-3.6207 0-5.0029s-3.6207-1.3822-5.0029 0l-9.9604 9.9604-9.9604-9.9604c-0.691-0.691-1.599-1.046-2.501-1.046z"/>
 </g>
</svg>
