<?xml version="1.0" encoding="UTF-8" standalone="no"?>
<!-- Created with Inkscape (http://www.inkscape.org/) -->

<svg
   xmlns:dc="http://purl.org/dc/elements/1.1/"
   xmlns:cc="http://creativecommons.org/ns#"
   xmlns:rdf="http://www.w3.org/1999/02/22-rdf-syntax-ns#"
   xmlns:svg="http://www.w3.org/2000/svg"
   xmlns="http://www.w3.org/2000/svg"
   xmlns:xlink="http://www.w3.org/1999/xlink"
   xmlns:sodipodi="http://sodipodi.sourceforge.net/DTD/sodipodi-0.dtd"
   xmlns:inkscape="http://www.inkscape.org/namespaces/inkscape"
   width="96"
   height="96"
   id="svg2"
   version="1.1"
   inkscape:version="0.48.1 r9760"
   sodipodi:docname="appoinment-soon.svg">
  <defs
     id="defs4">
    <linearGradient
       inkscape:collect="always"
       id="linearGradient3806">
      <stop
         style="stop-color:#ffffff;stop-opacity:1;"
         offset="0"
         id="stop3808" />
      <stop
         style="stop-color:#ffffff;stop-opacity:0;"
         offset="1"
         id="stop3810" />
    </linearGradient>
    <linearGradient
       inkscape:collect="always"
       xlink:href="#linearGradient3806"
       id="linearGradient3818"
       gradientUnits="userSpaceOnUse"
       gradientTransform="matrix(0,1,-1,0,1050.9872,953.61219)"
       x1="12.75"
       y1="1002.2997"
       x2="84.625"
       y2="1002.2997" />
  </defs>
  <sodipodi:namedview
     id="base"
     pagecolor="#ffffff"
     bordercolor="#666666"
     borderopacity="1.0"
     inkscape:pageopacity="0.0"
     inkscape:pageshadow="2"
     inkscape:zoom="2.4583333"
     inkscape:cx="48"
     inkscape:cy="48"
     inkscape:document-units="px"
     inkscape:current-layer="layer1"
     showgrid="false"
     inkscape:window-width="564"
     inkscape:window-height="426"
     inkscape:window-x="263"
     inkscape:window-y="162"
     inkscape:window-maximized="0" />
  <metadata
     id="metadata7">
    <rdf:RDF>
      <cc:Work
         rdf:about="">
        <dc:format>image/svg+xml</dc:format>
        <dc:type
           rdf:resource="http://purl.org/dc/dcmitype/StillImage" />
        <dc:title></dc:title>
      </cc:Work>
    </rdf:RDF>
  </metadata>
  <g
     inkscape:label="Layer 1"
     inkscape:groupmode="layer"
     id="layer1"
     transform="translate(0,-956.36218)">
    <g
       id="g3814"
       transform="matrix(1.0295649,0,0,1.0295649,-3.1269422,-26.570399)">
      <path
         id="path2985"
         transform="translate(0,956.36218)"
         d="M 48.6875,10 C 28.845907,10 12.75,26.09589 12.75,45.9375 12.75,65.7791 28.845907,81.875 48.6875,81.875 68.529093,81.875 84.625,65.7791 84.625,45.9375 84.625,26.09589 68.529093,10 48.6875,10 z m 0,7.5625 c 15.667269,0 28.375,12.70771 28.375,28.375 0,15.6672 -12.707731,28.375 -28.375,28.375 -15.667269,0 -28.375,-12.7078 -28.375,-28.375 0,-15.66729 12.707731,-28.375 28.375,-28.375 z M 47.53125,22 c -1.903313,0 -3.4375,1.53419 -3.4375,3.4375 l 0,13.21875 c 1.333242,-0.844135 2.899009,-1.34375 4.59375,-1.34375 0.779592,0 1.531681,0.118653 2.25,0.3125 l 0,-12.1875 C 50.9375,23.53419 49.434563,22 47.53125,22 z m 1.15625,17.5625 c -3.519219,0 -6.375,2.855781 -6.375,6.375 0,3.519219 2.855781,6.375 6.375,6.375 3.519219,0 6.375,-2.855781 6.375,-6.375 0,-3.519219 -2.855781,-6.375 -6.375,-6.375 z M 57,43.6875 c 0.193847,0.718319 0.3125,1.470408 0.3125,2.25 0,1.704375 -0.490756,3.287011 -1.34375,4.625 l 11.21875,0 c 1.903313,0 3.4375,-1.5342 3.4375,-3.4375 0,-1.9033 -1.534187,-3.4375 -3.4375,-3.4375 l -10.1875,0 z"
         style="fill:#bfbfbf;fill-opacity:1;stroke:none"
         inkscape:connector-curvature="0" />
      <path
         inkscape:connector-curvature="0"
         style="fill:url(#linearGradient3818);fill-opacity:1;stroke:none"
         d="m 48.68749,966.36219 c -19.8416,0 -35.9375,16.09589 -35.9375,35.93751 0,19.8416 16.0959,35.9375 35.9375,35.9375 19.84161,0 35.93752,-16.0959 35.93752,-35.9375 0,-19.84162 -16.09591,-35.93751 -35.93752,-35.93751 z m 0,7.5625 c 15.66729,0 28.37502,12.70771 28.37502,28.37501 0,15.6672 -12.70773,28.375 -28.37502,28.375 -15.6672,0 -28.375,-12.7078 -28.375,-28.375 0,-15.6673 12.7078,-28.37501 28.375,-28.37501 z m -1.1562,4.4375 c -1.9033,0 -3.4375,1.53419 -3.4375,3.4375 l 0,13.21875 c 1.3332,-0.84414 2.899,-1.34375 4.5937,-1.34375 0.7796,0 1.5317,0.11865 2.25,0.3125 l 0,-12.1875 c 0,-1.90331 -1.5029,-3.4375 -3.4062,-3.4375 z m 1.1562,17.5625 c -3.5192,0 -6.375,2.85578 -6.375,6.37501 0,3.5192 2.8558,6.375 6.375,6.375 3.51924,0 6.37502,-2.8558 6.37502,-6.375 0,-3.51923 -2.85578,-6.37501 -6.37502,-6.37501 z m 8.31252,4.12501 c 0.19385,0.7183 0.3125,1.4704 0.3125,2.25 0,1.7044 -0.49076,3.287 -1.34375,4.625 l 11.21875,0 c 1.90331,0 3.4375,-1.5342 3.4375,-3.4375 0,-1.9033 -1.53419,-3.4375 -3.4375,-3.4375 l -10.1875,0 z"
         id="path3804" />
    </g>
  </g>
</svg>
