<?xml version="1.0" encoding="UTF-8" standalone="no"?>
<!-- Created with Inkscape (http://www.inkscape.org/) -->
<svg id="svg2408" xmlns:rdf="http://www.w3.org/1999/02/22-rdf-syntax-ns#" xmlns="http://www.w3.org/2000/svg" height="64" width="64" version="1.0" xmlns:cc="http://creativecommons.org/ns#" xmlns:xlink="http://www.w3.org/1999/xlink" xmlns:dc="http://purl.org/dc/elements/1.1/">
 <defs id="defs2410">
  <linearGradient id="linearGradient4420">
   <stop id="stop4422" style="stop-color:#4d4d4d" offset="0"/>
   <stop id="stop4424" style="stop-color:#4d4d4d;stop-opacity:0" offset="1"/>
  </linearGradient>
  <linearGradient id="linearGradient4097">
   <stop id="stop4099" offset="0"/>
   <stop id="stop4101" style="stop-opacity:0" offset="1"/>
  </linearGradient>
  <linearGradient id="ButtonShadow-0" y2="7.0165" gradientUnits="userSpaceOnUse" x2="45.448" gradientTransform="matrix(1.0059 0 0 .99417 100 0)" y1="92.54" x1="45.448">
   <stop id="stop3750-8" offset="0"/>
   <stop id="stop3752-5" style="stop-opacity:.58824" offset="1"/>
  </linearGradient>
  <linearGradient id="linearGradient3151" y2="90.239" xlink:href="#ButtonShadow-0" gradientUnits="userSpaceOnUse" x2="32.251" gradientTransform="matrix(.68254 0 0 -.67460 -.76190 65.378)" y1="6.1317" x1="32.251"/>
  <linearGradient id="linearGradient3159" y2="90.239" xlink:href="#ButtonShadow-0" gradientUnits="userSpaceOnUse" x2="32.251" gradientTransform="matrix(.66667 0 0 -.66667 0 64.664)" y1="6.1317" x1="32.251"/>
  <linearGradient id="linearGradient3161" y2="46.297" gradientUnits="userSpaceOnUse" x2="45.703" gradientTransform="matrix(0 -1 1 0 -14.297 78.297)" y1="46.297" x1="18.297">
   <stop id="stop4039" style="stop-color:#93a7ac" offset="0"/>
   <stop id="stop4041" style="stop-color:#93a7ac;stop-opacity:0" offset="1"/>
  </linearGradient>
  <linearGradient id="linearGradient3163" y2="40.028" gradientUnits="userSpaceOnUse" x2="39.433" gradientTransform="matrix(0 -1 1 0 -5.6875 69.688)" y1="61.919" x1="11.862">
   <stop id="stop4447" offset="0"/>
   <stop id="stop4449" style="stop-opacity:0" offset="1"/>
  </linearGradient>
  <linearGradient id="linearGradient3165" y2="36.703" gradientUnits="userSpaceOnUse" x2="40.59" gradientTransform="matrix(0 1 -1 0 68.7 4.7062)" y1="36.703" x1=".51610">
   <stop id="stop4386" style="stop-color:#5fbcd3" offset="0"/>
   <stop id="stop4388" style="stop-color:#5fbcd3;stop-opacity:0" offset="1"/>
  </linearGradient>
  <radialGradient id="radialGradient3167" gradientUnits="userSpaceOnUse" cy="36.703" cx="31.997" gradientTransform="matrix(1 0 0 .89653 -5e-7 3.7978)" r="21.133">
   <stop id="stop4378" style="stop-color:#afdde9" offset="0"/>
   <stop id="stop4380" style="stop-color:#afdde9;stop-opacity:0" offset="1"/>
  </radialGradient>
  <linearGradient id="linearGradient3169" y2="10.576" xlink:href="#linearGradient4097" gradientUnits="userSpaceOnUse" x2="9.6344" gradientTransform="matrix(-1 0 0 1 19.531 0)" y1="10.576" x1="6.5938"/>
  <linearGradient id="linearGradient3171" y2="10.576" xlink:href="#linearGradient4097" gradientUnits="userSpaceOnUse" x2="9.6344" gradientTransform="translate(44.482)" y1="10.576" x1="6.5938"/>
  <linearGradient id="linearGradient3173" y2="16.266" gradientUnits="userSpaceOnUse" x2="58.75" gradientTransform="matrix(-1 0 0 1.2017 63.406 -3.0848)" y1="16.266" x1="4.6562">
   <stop id="stop4080" style="stop-color:#fff" offset="0"/>
   <stop id="stop4088" style="stop-color:#fff" offset=".25"/>
   <stop id="stop4086" style="stop-color:#999" offset=".78653"/>
   <stop id="stop4090" style="stop-color:#fff" offset=".95057"/>
   <stop id="stop4082" style="stop-color:#fff;stop-opacity:0" offset="1"/>
  </linearGradient>
  <linearGradient id="linearGradient3175" y2="20.109" gradientUnits="userSpaceOnUse" x2="33.906" gradientTransform="matrix(0 1 -1 0 52.031 -11.812)" y1="20.109" x1="29.938">
   <stop id="stop4439" style="stop-color:#4d4d4d" offset="0"/>
   <stop id="stop4441" style="stop-color:#4d4d4d;stop-opacity:0" offset="1"/>
  </linearGradient>
  <linearGradient id="linearGradient3177" y2="21.794" xlink:href="#linearGradient4420" gradientUnits="userSpaceOnUse" x2="6.6314" gradientTransform="matrix(0 1 -1 0 24.573 13.332)" y1="17.49" x1="1.6007"/>
  <radialGradient id="radialGradient3179" gradientUnits="userSpaceOnUse" cy="39.562" cx="31.997" gradientTransform="matrix(1 0 0 1.0001 0 .86227)" r="14.77">
   <stop id="stop4817" style="stop-color:#fff" offset="0"/>
   <stop id="stop4819" style="stop-color:#fff;stop-opacity:0" offset="1"/>
  </radialGradient>
  <linearGradient id="linearGradient3181" y2="11.018" gradientUnits="userSpaceOnUse" x2="15.885" y1="7.6099" x1="9.8519">
   <stop id="stop4905" offset="0"/>
   <stop id="stop4907" style="stop-opacity:0" offset="1"/>
  </linearGradient>
  <linearGradient id="linearGradient3183" y2="4.7736" gradientUnits="userSpaceOnUse" x2="18.087" y1="6.3187" x1="13.065">
   <stop id="stop4915" offset="0"/>
   <stop id="stop4917" style="stop-opacity:0" offset="1"/>
  </linearGradient>
  <radialGradient id="radialGradient3185" gradientUnits="userSpaceOnUse" cy="14.962" cx="7.1619" gradientTransform="matrix(1.8931 -.41596 .16155 .73525 -7.9285 6.4103)" r="3.0978">
   <stop id="stop5103" style="stop-color:#a80" offset="0"/>
   <stop id="stop5105" style="stop-color:#a80;stop-opacity:0" offset="1"/>
  </radialGradient>
  <radialGradient id="radialGradient3187" gradientUnits="userSpaceOnUse" cy="11.598" cx="11.638" gradientTransform="matrix(1 0 0 1.14 0 -1.6233)" r="2.9381">
   <stop id="stop5116" style="stop-color:#2b2200" offset="0"/>
   <stop id="stop5118" style="stop-color:#2b2200;stop-opacity:0" offset="1"/>
  </radialGradient>
  <linearGradient id="linearGradient3189" y2="12.751" gradientUnits="userSpaceOnUse" x2="17.059" y1="18.8" x1="20.604">
   <stop id="stop4865" style="stop-color:#d35f5f" offset="0"/>
   <stop id="stop4867" style="stop-color:#d35f5f;stop-opacity:0" offset="1"/>
  </linearGradient>
  <linearGradient id="linearGradient3191" y2="10.924" gradientUnits="userSpaceOnUse" x2="44.01" gradientTransform="matrix(0 1.133 -1.018 0 51.623 -35.826)" y1="10.924" x1="36.951">
   <stop id="stop4841" style="stop-color:#d3bc5f" offset="0"/>
   <stop id="stop4843" style="stop-color:#d3bc5f;stop-opacity:0" offset="1"/>
  </linearGradient>
  <linearGradient id="linearGradient3193" y2="11.684" gradientUnits="userSpaceOnUse" x2="43.905" gradientTransform="matrix(0 1.133 -1.018 0 52.397 -34.964)" y1="11.684" x1="37.711">
   <stop id="stop4853" style="stop-color:#a0892c" offset="0"/>
   <stop id="stop4855" style="stop-color:#a0892c;stop-opacity:0" offset="1"/>
  </linearGradient>
  <linearGradient id="linearGradient3195" y2="12.751" gradientUnits="userSpaceOnUse" x2="47.173" gradientTransform="matrix(0 1.133 -1.018 0 56.495 -38.666)" y1="12.751" x1="43.111">
   <stop id="stop4877" style="stop-color:#504416" offset="0"/>
   <stop id="stop4879" style="stop-color:#504416;stop-opacity:0" offset="1"/>
  </linearGradient>
  <linearGradient id="linearGradient3197" y2="21.794" xlink:href="#linearGradient4420" gradientUnits="userSpaceOnUse" x2="6.6314" gradientTransform="matrix(0 1 1 0 39.463 13.332)" y1="17.49" x1="1.6007"/>
 </defs>
 <metadata id="metadata2413">
  <rdf:RDF>
   <cc:Work rdf:about="">
    <dc:format>image/svg+xml</dc:format>
    <dc:type rdf:resource="http://purl.org/dc/dcmitype/StillImage"/>
    <dc:title/>
   </cc:Work>
  </rdf:RDF>
 </metadata>
 <g id="g3116" transform="translate(.15660 -.84375)">
  <path id="path3786" d="m8 2.6562c-0.5789 0.0094-1.13-0.0025-1.4375 0.375l-4.1875 5.125c-0.35638 0.41808-1.0493 1.2363-1.0312 1.75l3.9688 46.75c0.15517 3.6708 3.0134 6.6875 6.6875 6.6875h40c3.6741 0 6.5323-3.0167 6.6875-6.6875l3.437-34.031 0.063-1.625 0.468-11.094c0.0181-0.51369-0.67487-1.3319-1.0312-1.75l-4.1875-5.125c-0.308-0.3773-0.859-0.3654-1.438-0.3748h-11.031-3.5312z" style="opacity:0.08;fill:url(#linearGradient3151)"/>
  <path id="path3778" d="m8 3.3125c-0.4237-0.0039-0.7429 0.0978-0.9375 0.375l-3.9375 5.0313c-0.5254 0.6162-1.0944 1.3452-1.0938 1.8432l3.9375 46.094c0.14 3.312 2.7169 6.032 6.0313 6.032h40c3.3144 0 5.8913-2.7198 6.0312-6.0312l3.438-34.032 0.062-1.625 0.438-10.438c0-0.498-0.569-1.227-1.094-1.8432l-3.937-5.0313c-0.195-0.2772-0.514-0.3789-0.938-0.375h-11.031-3.5312z" style="opacity:.1;fill:url(#linearGradient3151)"/>
  <path id="path3770" d="m8.625 4c-0.3692 0.0005-0.8536 0.1925-1.1875 0.625l-3.625 4.8438c-0.72314 0.96402-1.0812 1.4699-1.0625 2.375l3.9062 44.812c0.1242 2.937 2.4044 5.344 5.3438 5.344h40c2.9394 0 5.2196-2.407 5.3438-5.3438l3.437-34.031 0.063-1.625 0.406-9.156c0.0187-0.90507-0.33936-1.411-1.0625-2.375l-3.626-4.844c-0.333-0.4325-0.818-0.6245-1.187-0.625h-10.406-3.531z" style="opacity:.2;fill:url(#linearGradient3151)"/>
  <path id="rect3723" d="m9.125 4.6562c-0.5194 0.003-0.8826 0.2237-1.25 0.7813l-3.5312 5.2812c-0.74668 1.2033-0.83505 2.0288-0.8125 3.1875l3.8125 42.75c0.10919 2.583 2.0709 4.6875 4.6562 4.6875h40c2.5853 0 4.5471-2.1045 4.6562-4.6875l3.4375-34.031 0.125-3.2812 0.25-5.4375c0.0226-1.1587-0.0658-1.9842-0.8125-3.1875l-3.531-5.2805c-0.367-0.5576-0.731-0.7783-1.25-0.7813h-9.1562-4.2812z" style="opacity:.3;fill:url(#linearGradient3151)"/>
  <path id="rect3716" d="m9.6875 4.6562-4.8125 7.5c-0.4424 0.739-0.6182 1.546-0.625 2.469l3.75 42.031c0.092253 2.2141 1.784 4 4 4h40c2.216 0 3.9077-1.7859 4-4l3.5-35.656h-0.031l0.281-6.375c-0.007-0.92316-0.18262-1.7303-0.625-2.4688l-4.8125-7.5h-9.3438-3.5312z" style="opacity:.45;fill:url(#linearGradient3159)"/>
  <path id="rect3181" d="m8.5425 6.2996h46.901l2.2061 3.6906-3.9523 45.117c-0.12715 1.4515-1.1308 2.5878-2.5878 2.5878h-38.22c-1.4571 0-2.4609-1.1363-2.5878-2.5878l-3.9579-45.255z" style="fill:#afdde9"/>
  <path id="path3244" d="m11.844 4c-0.924 0-1.9434 0.0916-2.8128 1.5l-3.7187 6.031c-0.50226 0.79283-1.1147 1.4206-1 4.0312l3.6875 40.438c0.092253 2.2141 1.784 4 4 4h40c2.216 0 3.9077-1.7859 4-4l3.5312-36.875 0.15625-3.5625c0.11475-2.6107-0.49774-3.2384-1-4.0312l-3.718-6.031c-0.87-1.4084-1.889-1.5-2.813-1.5zm-0.375 2.3125h41.062l4.2188 7.3438c0.43861 0.74573 0.25735 1.186-0.4375 1.1875l1.125 0.03125-0.1875 4.25-3.5625 35.969c-0.06299 1.4557-1.1054 2.5938-2.5625 2.5938h-38.25c-1.4571 0-2.4995-1.1381-2.5625-2.5938l-3.7495-40.219 1.125-0.031c-0.6949-0.002-0.8761-0.442-0.4375-1.188z" style="fill:#fff"/>
  <path id="path4027" d="m5 32.594 3 23.406c0.28172 2.198 1.784 4 4 4h40c2.216 0 3.7198-1.8018 4-4l2.9831-23.406h-2.3125l-2.9831 22.5c-0.1915 1.4444-1.1054 2.5938-2.5625 2.5938h-38.25c-1.4571 0-2.3699-1.1495-2.5625-2.5938l-3-22.5z" style="opacity:.5;fill:url(#linearGradient3161)"/>
  <path id="path4321" d="m6.6875 17.688 3.625 37.406c0.06299 1.4557 1.1054 2.5938 2.5625 2.5938h38.25c1.4571 0 2.4995-1.1381 2.5625-2.5938l3.625-37.406h-0.375l-5.25 35.406c-0.133 1.451-1.1054 2.5938-2.5625 2.5938h-34.25c-1.4571 0-2.4297-1.1428-2.5625-2.5938l-5.2495-35.406z" style="opacity:.23223;fill:url(#linearGradient3163)"/>
  <path id="rect4366" d="m10.864 17.757 2.5961 37.893h6.0673l-2.5961-37.893h-6.0673zm11.201 0 2.5961 37.893h6.0673l-2.5961-37.893h-6.0673zm13.797 0-2.5961 37.893h6.0673l2.5961-37.893h-6.0673zm11.201 0-2.5961 37.893h6.0673l2.5961-37.893h-6.0673z" style="fill:url(#linearGradient3165)"/>
  <path id="path4374" style="fill:url(#radialGradient3167)" d="m10.864 17.757 2.5961 37.893h6.0673l-2.5961-37.893h-6.0673zm11.201 0 2.5961 37.893h6.0673l-2.5961-37.893h-6.0673zm13.797 0-2.5961 37.893h6.0673l2.5961-37.893h-6.0673zm11.201 0-2.5961 37.893h6.0673l2.5961-37.893h-6.0673z"/>
  <path id="path41" d="m30.57 23.67c1.5846 0.40216 2.8248 3.1871 2.8438 3.2188 0.49435 0.82778 1.875 3.625 1.875 3.625l-3.4688 2.1875 8.2812 0.65625 3.2188-8-3.8125 2.7188s-1.6136-3.8749-2.7812-4.1875c-1.1677-0.3126-6.1562-0.21875-6.1562-0.21875zm-1.5312 0.28125c-2.0138 0-4.5625 4.9375-4.5625 4.9375l5.625 3.6562 2.75-5.375c-0.86896-1.4338-1.7817-3.2188-3.8125-3.2188zm-4.125 8.4688-7.6875 0.53125 3.1562 2.375s-2.1779 3.145-1.875 4.3438c0.30294 1.1987 2 6.1562 2 6.1562-0.42986-1.616 1.3573-4.0613 1.375-4.0938 0.46353-0.84635 2.4062-4.125 2.4062-4.125l3.25 1.9062-2.625-7.0938zm19.844 2.625-5.9375 3.0938 3.0625 5.1562c1.6451-0.02825 3.6127 0.10036 4.6562-1.6875 1.0348-1.7729-1.7812-6.5625-1.7812-6.5625zm-7.875 4.875-5.3438 6.5312 5.0938 6.75 0.09375-4.25s3.7637 0.36736 4.625-0.5c0.86133-0.86736 4.4375-5.25 4.4375-5.25-1.1504 1.1884-4.12 0.84337-4.1562 0.84375-0.94601 0.0098-4.6875-0.0625-4.6875-0.0625l-0.0625-4.0625zm-8.7188 2.3125-5.875 0.1875c-0.79669 1.4773-1.8957 3.1488-0.90625 4.9688 0.9812 1.8047 6.4375 1.6875 6.4375 1.6875l0.34375-6.8438z" style="opacity:.5;fill:#164450;fill-rule:evenodd"/>
  <rect id="rect3281" style="opacity:.97156;fill:#fff" rx="0" ry="0" height="2.9071" width="54.079" y="14.77" x="4.665"/>
  <path id="rect3273" d="m11.528 6.3091-4.0354 6.9579c-0.92032 1.5435-0.15364 1.5734 0.62218 1.5734h48.282c0.53871-0.03092 0.73775-0.36202 0.48745-0.92416l-4.412-7.6069z" style="opacity:.97156;fill:#4d4d4d"/>
  <path id="path4092" d="m11.535 6.3091-4.9412 8.5349h6.3438z" style="opacity:.97156;fill:url(#linearGradient3169)"/>
  <path id="path4105" style="opacity:.97156;fill:url(#linearGradient3171)" d="m52.479 6.3091 4.941 8.5347h-6.3438z"/>
  <path id="rect3283" d="m4.6562 14.753h54.094v3.4173h-54.094v-3.4173z" style="opacity:.97156;fill:url(#linearGradient3173)"/>
  <path id="rect4432" d="m6.6875 18.125v3.9688h50.469v-3.9688h-50.469z" style="opacity:.68720;fill:url(#linearGradient3175)"/>
  <path id="path4408" d="m6.6861 18.133c-1.4988-0.0061-2.3682-1.644-2.368-3.2833l0.28887 7.9734 2.483 2.8658z" style="fill:url(#linearGradient3177)"/>
  <path id="path4813" style="fill:url(#radialGradient3179);fill-rule:evenodd" d="m30.57 25.67c1.5846 0.40216 2.8248 3.1871 2.8438 3.2188 0.49435 0.82778 1.875 3.625 1.875 3.625l-3.4688 2.1875 8.2812 0.65625 3.2188-8-3.8125 2.7188s-1.6136-3.8749-2.7812-4.1875c-1.1677-0.3126-6.1562-0.21875-6.1562-0.21875zm-1.5312 0.28125c-2.0138 0-4.5625 4.9375-4.5625 4.9375l5.625 3.6562 2.75-5.375c-0.86896-1.4338-1.7817-3.2188-3.8125-3.2188zm-4.125 8.4688-7.6875 0.53125 3.1562 2.375s-2.1779 3.145-1.875 4.3438c0.30294 1.1987 2 6.1562 2 6.1562-0.42986-1.616 1.3573-4.0613 1.375-4.0938 0.46353-0.84635 2.4062-4.125 2.4062-4.125l3.25 1.9062-2.625-7.0938zm19.844 2.625-5.9375 3.0938 3.0625 5.1562c1.6451-0.02825 3.6127 0.10036 4.6562-1.6875 1.0348-1.7729-1.7812-6.5625-1.7812-6.5625zm-7.875 4.875-5.3438 6.5312 5.0938 6.75 0.09375-4.25s3.7637 0.36736 4.625-0.5c0.86133-0.86736 4.4375-5.25 4.4375-5.25-1.1504 1.1884-4.12 0.84337-4.1562 0.84375-0.94601 0.0098-4.6875-0.0625-4.6875-0.0625l-0.0625-4.0625zm-8.7188 2.3125-5.875 0.1875c-0.79669 1.4773-1.8957 3.1488-0.90625 4.9688 0.9812 1.8047 6.4375 1.6875 6.4375 1.6875l0.34375-6.8438z"/>
  <path id="path4883" d="m28.488 10.448-14.837-7.6377-2.8 1.6241-0.66773 2.9849 7.6377 4.1261z" style="fill:#59f"/>
  <path id="path4885" d="m10.193 7.4726 2.7818-1.1953 6.9328 3.5425-3.7815 0.80412z" style="opacity:.86256;fill:url(#linearGradient3181)"/>
  <path id="path4911" d="m13.656 2.7854 8.6119 4.4309-1.5224 3.0448-7.7257-3.9537z" style="opacity:.51185;fill:url(#linearGradient3183)"/>
  <path id="path5097" style="fill:#ffd42a" d="m12.391 12.32c0 1.7109-1.3869 3.0978-3.0978 3.0978s-3.0978-1.3869-3.0978-3.0978 1.3869-3.0978 3.0978-3.0978 3.0978 1.3869 3.0978 3.0978z" transform="matrix(1.1951 0 0 1.1951 .45333 -3.0083)"/>
  <path id="path5099" style="fill:url(#radialGradient3185)" d="m12.391 12.32c0 1.7109-1.3869 3.0978-3.0978 3.0978s-3.0978-1.3869-3.0978-3.0978 1.3869-3.0978 3.0978-3.0978 3.0978 1.3869 3.0978 3.0978z" transform="matrix(1.1951 0 0 1.1951 .45333 -3.0083)"/>
  <path id="path5109" d="m11.033 8.249c-0.193 1.843 1.127 4.475 3.544 4.491-2.252-0.743-3.063-2.492-3.544-4.491zm-2.3327 1.7453c2.4777 0.8177 3.3557 2.7547 3.8847 4.9537 0.213-2.028-1.227-4.936-3.8847-4.9537z" style="opacity:.37441;fill:url(#radialGradient3187)"/>
  <path id="path4859" d="m25.424 10.695c-6.7875 0.17031-13.444 1.0454-19.564 9.404 2.3786 0 2.4888 1.7012 3.7332 2.5518 2.5641-5.3027 8.6048-7.9437 13.373-7.8445 0.355-2.1439 1.3559-3.2114 2.4573-4.1113z" style="fill:#e9afaf"/>
  <path id="path4861" style="fill:url(#linearGradient3189)" d="m25.424 10.695c-6.7875 0.17031-13.444 1.0454-19.564 9.404 2.3786 0 2.4888 1.7012 3.7332 2.5518 2.5641-5.3027 8.6048-7.9437 13.373-7.8445 0.355-2.1439 1.3559-3.2114 2.4573-4.1113z"/>
  <path id="path4823" d="m43.243 4.8674c-0.432 0.0431-0.825 0.3278-1.082 0.9206-2.637-1.974-3.409 1.0933-3.786 3.1157-0.048-4.2519-2.888-3.8584-4.835-2.8679-4.449-2.059-6.272 0.8771-5.313 3.9652-3.927-0.5937-5.586 1.338-5.885 4.78h35.185l0.2545-1.3455c2.436-4.1573-0.634-9.4572-3.659-7.8959-2.086-1.61-2.492 1.2902-2.164 2.266-2.707-2.2749-3.352-0.0807-3.976 1.5579 0.404-2.478-1.529-4.1374-2.8-2.089 0.112-1.434-0.989-2.5024-1.94-2.4076z" style="fill:#fea"/>
  <path id="path4829" style="fill:url(#linearGradient3191)" d="m43.243 6.0449c-0.432 0.038-0.825 0.2889-1.082 0.8112-2.637-1.7395-3.409 0.9636-3.786 2.7458-0.048-3.747-2.888-3.4002-4.835-2.5273-4.449-1.8145-6.272 0.7729-5.313 3.4944-3.9267-0.52348-5.5858 1.1783-5.8854 4.2122h35.185l0.2545-1.1856c2.436-3.6627-0.634-8.3331-3.659-6.9573-2.086-1.4188-2.492 1.137-2.164 1.9969-2.707-2.0047-3.352-0.0712-3.976 1.3724 0.404-2.1833-1.529-3.6455-2.8-1.8404 0.112-1.2637-0.989-2.2052-1.94-2.1217z"/>
  <path id="path4847" style="fill:url(#linearGradient3193)" d="m43.243 7.767c-0.432 0.0305-0.825 0.232-1.082 0.6513-2.637-1.3966-3.409 0.7736-3.786 2.2047-0.048-3.0085-2.888-2.7301-4.835-2.0293-4.449-1.4568-6.272 0.6206-5.313 2.8053-3.927-0.42-5.586 0.946-5.885 3.382h35.185l0.2545-0.95193c2.436-2.941-0.634-6.6907-3.659-5.586-2.086-1.1391-2.492 0.9128-2.164 1.6032-2.707-1.6095-3.352-0.0571-3.976 1.1018 0.404-1.7528-1.529-2.9268-2.8-1.4775 0.112-1.0146-0.989-1.7705-1.94-1.7035z"/>
  <path id="path4871" style="opacity:.45972;fill:url(#linearGradient3195)" d="m45.555 10.183c-0.32187 0.01999-0.61389 0.15207-0.80546 0.42701-1.9638-0.91564-2.5385 0.50716-2.8191 1.4453-0.0358-1.9723-2.1505-1.7897-3.6009-1.3303-3.3132-0.95509-4.6707 0.40685-3.9562 1.8394-2.924-0.27555-4.1595 0.62024-4.3826 2.2172h26.201l0.18952-0.62409c1.8147-1.9283-0.47188-4.3866-2.7243-3.6624-1.5533-0.74682-1.8557 0.59844-1.6109 1.0511-2.016-1.0552-2.4965-0.03748-2.9612 0.72263 0.30114-1.1494-1.1386-1.9191-2.0847-0.96898 0.08343-0.66517-0.73696-1.1608-1.4451-1.1168z"/>
  <path id="path4428" style="fill:url(#linearGradient3197)" d="m57.351 18.133c1.4988-0.0061 2.3682-1.644 2.368-3.2833l-0.28887 7.9734-2.483 2.8658z"/>
 </g>
</svg>
