<?xml version="1.0" encoding="UTF-8" standalone="no"?>
<!-- Created with Inkscape (http://www.inkscape.org/) -->
<svg id="svg2408" xmlns:rdf="http://www.w3.org/1999/02/22-rdf-syntax-ns#" xmlns="http://www.w3.org/2000/svg" height="96" width="96" version="1.0" xmlns:cc="http://creativecommons.org/ns#" xmlns:xlink="http://www.w3.org/1999/xlink" xmlns:dc="http://purl.org/dc/elements/1.1/">
 <defs id="defs2410">
  <filter id="filter4045" color-interpolation-filters="sRGB">
   <feGaussianBlur id="feGaussianBlur4047" stdDeviation="0.46710064"/>
  </filter>
  <filter id="filter4057" color-interpolation-filters="sRGB">
   <feGaussianBlur id="feGaussianBlur4059" stdDeviation="0.4121875"/>
  </filter>
  <filter id="filter4082" color-interpolation-filters="sRGB">
   <feGaussianBlur id="feGaussianBlur4084" stdDeviation="0.3846875"/>
  </filter>
  <linearGradient id="linearGradient3814-9-2">
   <stop id="stop3816-9-4" style="stop-color:#fff" offset="0"/>
   <stop id="stop3818-8-0" style="stop-color:#fff;stop-opacity:0" offset="1"/>
  </linearGradient>
  <linearGradient id="linearGradient3594" y2="29.471" xlink:href="#linearGradient3814-9-2" gradientUnits="userSpaceOnUse" x2="44.586" gradientTransform="matrix(-.72330 .21005 .21005 .72330 87.392 14.068)" y1="7.2745" x1="38.14"/>
  <linearGradient id="linearGradient3596" y2="49.975" xlink:href="#linearGradient3814-9-2" gradientUnits="userSpaceOnUse" x2="45.967" gradientTransform="matrix(.75319 0 0 .75319 36.807 14.775)" y1="20.126" x1="45.967"/>
  <linearGradient id="linearGradient3598" y2="89.995" xlink:href="#linearGradient3814-9-2" gradientUnits="userSpaceOnUse" x2="35.838" gradientTransform="translate(-10,-3)" y1="56.924" x1="35.838"/>
  <linearGradient id="linearGradient3600" y2="56.865" xlink:href="#linearGradient3814-9-2" gradientUnits="userSpaceOnUse" x2="76.758" gradientTransform="matrix(-1 0 0 1 80.942 38.325)" y1="27.41" x1="76.758"/>
  <linearGradient id="linearGradient3602" y2="76.55" gradientUnits="userSpaceOnUse" x2="75.918" gradientTransform="matrix(-1 0 0 1 85.594 12)" y1="63.139" x1="75.918">
   <stop id="stop3864-9-4" style="stop-color:#fff" offset="0"/>
   <stop id="stop3866-2-7" style="stop-color:#fff;stop-opacity:0" offset="1"/>
  </linearGradient>
  <radialGradient id="radialGradient3119" gradientUnits="userSpaceOnUse" cy="32" cx="64" gradientTransform="matrix(1.0312 0 0 1.0312 -18 10)" r="32">
   <stop id="stop3754-6" style="stop-color:#fff" offset="0"/>
   <stop id="stop3756-2" style="stop-color:#fff" offset=".77642"/>
   <stop id="stop3758-7" style="stop-color:#bebdc7;stop-opacity:0" offset="1"/>
  </radialGradient>
  <radialGradient id="radialGradient3121" gradientUnits="userSpaceOnUse" cy="43.852" cx="52.148" gradientTransform="matrix(1.0666 -4.4233e-8 4.4761e-8 1.0793 -17.623 5.6686)" r="32">
   <stop id="stop3361" style="stop-color:#d3d7cf" offset="0"/>
   <stop id="stop3363" style="stop-color:#888a85" offset="0.8"/>
   <stop id="stop3365" style="stop-color:#2e3436" offset="1"/>
  </radialGradient>
  <linearGradient id="linearGradient3123" y2="43" gradientUnits="userSpaceOnUse" x2="75" gradientTransform="matrix(0 1 -1 0 91 -5)" y1="43" x1="21">
   <stop id="stop4143" style="stop-color:#2e3436" offset="0"/>
   <stop id="stop4145" style="stop-color:#eeeeec" offset="1"/>
  </linearGradient>
  <linearGradient id="linearGradient3125" y2="87.368" gradientUnits="userSpaceOnUse" x2="28.572" y1="22.918" x1="59.578">
   <stop id="stop4137" style="stop-color:#2e3436" offset="0"/>
   <stop id="stop4139" style="stop-color:#eeeeec" offset="1"/>
  </linearGradient>
  <linearGradient id="linearGradient3127" y2="55.536" gradientUnits="userSpaceOnUse" x2="64.996" gradientTransform="matrix(.58747 0 0 .37002 10.402 18.734)" y1="-.90906" x1="64.996">
   <stop id="stop4092" style="stop-color:#fff" offset="0"/>
   <stop id="stop4094" style="stop-color:#fff;stop-opacity:0" offset="1"/>
  </linearGradient>
 </defs>
 <metadata id="metadata2413">
  <rdf:RDF>
   <cc:Work rdf:about="">
    <dc:format>image/svg+xml</dc:format>
    <dc:type rdf:resource="http://purl.org/dc/dcmitype/StillImage"/>
    <dc:title/>
   </cc:Work>
  </rdf:RDF>
 </metadata>
 <g id="g3110" transform="matrix(1.4545 0 0 1.4545 -21.818 -14.545)">
  <path id="path3651" d="m81 43a33 33 0 0 1 -66 0 33 33 0 1 1 66 0z" style="opacity:.25;color:#000000;fill:url(#radialGradient3119)"/>
  <path id="path3695" d="m75 43a27 27 0 0 1 -54 0 27 27 0 1 1 54 0z" style="color:#000000;fill:url(#radialGradient3121)"/>
  <path id="path3695-8" d="m75 43c0-14.912-12.088-27-27-27s-27 12.088-27 27 12.088 27 27 27 27-12.088 27-27zm-1 0c0 14.359-11.641 26-26 26s-26-11.641-26-26 11.641-26 26-26 26 11.641 26 26z" style="opacity:.6;color:#000000;fill:url(#linearGradient3123)"/>
  <path id="path3907" d="m41.125 16.875c-2.6301 0.69019-5.0914 1.7882-7.3438 3.1875-0.68559 0.94402-1.3241 1.9093-2 2.8125-0.44835 0.97474-1.8406 0.83498-3 1.1875-0.06669 0.06767-0.15277 0.11914-0.21875 0.1875-1.5872 2.0861-3.4998 4.031-4.5 6.4688-1.2855 2.5334 4.1736 2.0034 1.4375 4.5-1.0401 1.5092-0.61372 4.8138 1.25 5.875 1.601 1.5614-3.1816 3.1704-1 5.1562 2.0378 0.73589 4.2898-0.98819 6.2188-0.25 1.3054 1.4218-0.7982 3.0113 0.59375 4.3438-1.7701-0.07326-3.5754 0.4308-2.9688 2.6562-0.29197 2.7503 4.4792 2.6209 3.875-0.3125 0.1098-1.3721 1.5049-2.7989 2.3438-0.84375-0.12123 2.0713 3.7972 0.92391 2.0312 3.25-3.68 0.0401-1.4122 5.5623 0.84375 3.625 0.19786-2.1792 2.2637-1.9169 3.5312-1.0625 3.1599-0.74717-0.3395-4.4046 0.78125-6.0625 1.1605 0.02707 1.3284 2.549 2.375 0.3125 1.4659-2.6601-0.73326-4.896-3.1562-5.625-2.399-0.83518-0.7641-3.1485-1-4.5625-2.1749-1.6884-3.1512 0.84978-2.9688 2.5938-2.6243 0.40125-1.9803-3.0004-3.9375-4.0938-1.3587-0.98452-4.425-0.96683-2.5625-3.5625 1.8829-0.8553 4.1589-1.6 3.4688-4.25 0.90293-2.5218-4.2017-1.5295-2.0625-3.8125 2.7269-0.04313 4.4938-2.2037 3.7812-4.9062 0.6186-1.8762 3.3812-1.4157 4.2812-2.9375 0.24257 0.33937 0.51576 0.67548 0.875 0.90625 0.51749 0.48859 1.3315 0.07499 1.8438-0.25 0.03671-0.5471 0.08066-1.4451 0.9375-1.25 0.89458 0.08748 1.8053 0.04968 2.6562-0.1875 0.13244-0.62698-0.82857-1.4179-1.5938-1.3438-0.69089 0.2469-1.5754-0.2789-2.125 0.25-0.68361 0.000591-1.3789 0.000185-2.0625 0 0.03031-0.71964-0.21557-1.434-0.625-2zm12.156 2.875c-0.49783 0.14127-0.77761 0.55806-0.6875 1.0938 0.28182 0.50293 0.65538 0.80476 1 1.4688 0.72553 0.77285 1.1719 1.6062 1.5625 2.5625 0.67915 0.63615 0.92496 2.0582 2.125 1.7812 0.89226-0.13706 1.7511 0.04415 2.625 0.1875 0.81732-0.11595 1.5191 1.0114 2.3438 0.5625 1.2188 0.20939 1.1796-1.2451 0.53125-1.875-0.72764-0.82903-2.0189-0.21868-3-0.40625-0.6743 0.40594-2.7682 0.25916-1.9688-0.8125 0.06822-1.3448-0.9582-2.0785-2.2188-2.2188-0.715-0.339-0.21-0.622 0.219-0.844 0.155-1.303-1.634-1.243-2.531-1.5zm-2.906 2.812c-1.7691 0.20815-1.5697 3.3208-2.5312 4.4688-1.7814 0.71071-2.7896-1.271-2.5312-2.625-0.95357-0.68666-1.3939-0.9838-1.625 0.28125-1.4811 0.99581-2.7795-1.9018-4.4062-1.2812 1.6504-0.29336-2.3793 1.4411-0.96875 2.6562 0.88257 1.3337 0.54781 2.8096-1.2188 2.7812-1.7682 0.77981-0.9348 2.3716 0.625 2.375 1.9278 2.2716-2.1462 3.9386-0.96875 6.4062 0.8291 2.8137 4.2936-0.08276 2.75-2.125-0.63476-3.1038 3.5167-2.0519 3.1875 0.46875 1.0975 0.71463 4.2437 0.75758 2.8125 3.125-1.9898 0.4136-1.6349 3.0069 0 3.6562-1.2734 0.81022-1.0704 4.5212 0.6875 2.5938 2.5503-2.294 2.2384 3.3449 5.0312 1.8125 1.476-2.1551-1.9225-3.2937-2.9375-4.7188-1.6957-2.3202 3.5134-1.2581 1.4688-3.2188-2.2168-1.0744-0.91523-3.6625 1.2812-2.625 2.5979 0.48816-1.2498-3.7752 1.4688-2.6562 0.21477 1.8354 3.6296 1.4258 1.5938-0.375-0.55258-2.0387 2.8375-3.7251 0.75-5.875-2.498-0.742-1.952-3.633-3.593-5.031-0.343-0.103-0.622-0.123-0.875-0.094zm14.5 9.1875c-0.15918 0.0062-0.35248 0.04505-0.53125 0.09375-1.1362 1.201-2.4506 1.5776-4.0625 1.125-0.45334-0.25339-1.4925-0.72051-1.9062-0.5625-1.6014-0.15718-1.201 1.5848-1.375 2.4062-1.0836 0.16904-1.8586 0.98938-0.90625 1.9688 0.59466 1.888-1.7501 0.54745-2.5625 0.75-1.5429 0.59052 0.94523 1.3236-0.34375 2.1875-1.1489 0.11566-3.0841 1.5388-1.625 2.4688 1.0596 0.31895 3.3659-0.85616 3 1.2812-0.63107 1.4577 2.5559 3.1035 1.9062 0.90625-0.55365-1.031-1.9648-3.6495 0.34375-3.125 0.43383 0.71075 0.81144 1.1619 1.875 0.78125 0.29434-1.512 2.4246-1.1232 3.4375-0.40625 1.8148 0.38138 0.40729-2.7539 2.3125-2.9375 1.2841-1.0528 0.56874-3.0046-0.75-3.625 0.19235-1.5172 2.5911-1.4186 3.6875-1.6875-0.73147-0.75719-1.3858-1.6682-2.5-1.625zm9.7812 7c-0.25994 0.02868-0.53625 0.30012-0.6875 0.5-0.29098 0.5982-1.001 0.52622-1.2188 0.9375-0.14153 0.37803-0.49505 0.10317-0.6875 0.46875-0.19099-0.13956-1.3073-0.02574-0.8125 0.25-0.6862 0.34335-0.16029 1.299-0.3125 1.9062-0.17303 0.70354 0.44968 1.0582 0.65625 1.625 0.16489 0.17637 0.42437-0.04738 0.53125 0.3125 0.0051 0.32446 0.59115 0.02429 0.625 0.375-0.43559 0.20829 0.82273 0.4871 0.875 0 0.28535-0.36319 0.63666-1.0147 0.96875-1.4062 0.064-0.147 0.23-0.202 0.407-0.25 0.003-0.158 0-0.31 0-0.469 0-1.443-0.126-2.868-0.344-4.25zm-8.1875 0.875c-0.37996 0.04703-0.73359 0.29326-0.875 0.75-0.49716 0.76901-0.63786 2.0665-1.75 2.0938-0.56535 0.2637-1.0696 0.83367-1.75 0.75-0.85311-0.52782-2.0506-0.57879-2.9062-0.03125-0.97964 0.62659 0.92095 1.6452-0.28125 2-1.1816 0.04876-1.2901 1.3639-0.53125 2.0312 0.7827 0.69818 2.1469 0.7128 2.5625 1.8125 0.27615 0.72932 0.98701 1.4634 0.65625 2.3125-0.47251 0.90254-1.5361 0.13307-2.25 0.4375-1.0299 0.43094-0.52332 1.8332 0.53125 1.5 1.2136 0.13831 1.8731 1.5249 1.5312 2.625-0.05927 0.9616-1.4506 1.4808-0.96875 2.5 0.35582 0.69829 1.6231 1.1316 2.0312 0.28125 0.0049-0.93472 0.77327-1.6486 0.875-2.5938 0.16108-0.88259 0.16206-1.9097-0.3125-2.6875-0.95486-0.70967-0.23324-1.9177 0.46875-2.5 0.57935-0.41083 1.0879-1.2863 1.625-1.5 0.57674 0.35422 1.4761 1.6638 1.8125 0.34375 0.42309-1.0331 0.17236-2.3017 0.9375-3.1875 0.51083-0.51359 2.0839-0.10724 1.6562-1.25-0.525-0.733-1.841-0.14-1.842-1.281-0.245-1.288 0.356-2.66-0.188-3.906-0.24769-0.40748-0.65129-0.54703-1.0312-0.5zm8.2188 7.4375c-0.09061 0.0746-0.09338 0.09269-0.3125 0.25l0.188-0.062c-0.07924 0.07122-0.07566 0.05184-0.1875 0.15625-1.077 0.99467-1.6564 2.5292-2.8438 3.1875-1.889 0.0592-0.73836-2.535-2-3-1.6473 0.06331-0.88277 2.2333-1.8125 3.0312-1.082 0.62902-2.4987 1.7262-1.1562 2.9375 0.876 1.0467 0.49585 2.4916 0.34375 3.7188-0.5717 0.71729-0.30535 2.4183 0.84375 1.5625 0.395-1.2407-0.22737-2.9684 1-3.9062 0.75973-1.1888 2.4825-0.54026 3.5938-1.1562 0.14132 0.04149 0.25163 0.04979 0.375 0.0625 0.92284-2.1 1.6058-4.3171 1.9688-6.6562l-0.09375 0.03125c0.0398-0.03553 0.05177-0.05233 0.09375-0.09375 0.003-0.01994-0.003-0.04254 0-0.0625z" style="opacity:.4;filter:url(#filter4045);fill:url(#linearGradient3125)"/>
  <path id="path3986" d="m62.25 24.094c-0.7621 0-1.375 0.6129-1.375 1.375s0.6129 1.375 1.375 1.375 1.375-0.6129 1.375-1.375-0.6129-1.375-1.375-1.375zm-20.406 1.625c-0.6288 0.12867-1.0938 0.70816-1.0938 1.375 0 0.7621 0.6129 1.375 1.375 1.375s1.375-0.6129 1.375-1.375-0.6129-1.375-1.375-1.375c-0.09526 0-0.19142-0.01838-0.28125 0zm-9.938 0.156c-0.493 0-0.906 0.382-0.906 0.875 0 0.49312 0.41313 0.90625 0.90625 0.90625s0.875-0.41313 0.875-0.90625-0.38188-0.875-0.875-0.875zm28 2.5938c-0.80693 0-1.4688 0.66182-1.4688 1.4688 0 0.80693 0.66182 1.4375 1.4688 1.4375 0.80693 0 1.4688-0.63057 1.4688-1.4375s-0.66182-1.4688-1.4688-1.4688zm-3.9688 2.75c-0.40346 0-0.75 0.34654-0.75 0.75s0.34654 0.71875 0.75 0.71875 0.71875-0.31529 0.71875-0.71875-0.31529-0.75-0.71875-0.75zm-10.062 0.156c-0.40346 0-0.75 0.34654-0.75 0.75s0.34654 0.71875 0.75 0.71875 0.71875-0.31529 0.71875-0.71875-0.31529-0.75-0.71875-0.75zm-15.438 0.5c-1.0311 0-1.875 0.84393-1.875 1.875s0.84393 1.8438 1.875 1.8438 1.875-0.81268 1.875-1.8438-0.84393-1.875-1.875-1.875zm38 4.875c-0.58278 0-1.0625 0.47972-1.0625 1.0625s0.47972 1.0312 1.0625 1.0312 1.0312-0.44847 1.0312-1.0312c0-0.58278-0.44847-1.0625-1.0312-1.0625zm-31.093 2.75c-0.62761 0-1.1562 0.52864-1.1562 1.1562 0 0.62761 0.52864 1.125 1.1562 1.125 0.62761 0 1.125-0.49739 1.125-1.125s-0.49739-1.1562-1.125-1.1562zm26.375 0.65625c-0.85176 0-1.5312 0.67949-1.5312 1.5312 0 0.85176 0.67949 1.5625 1.5312 1.5625 0.85176 0 1.5312-0.71074 1.5312-1.5625s-0.67949-1.5312-1.5312-1.5312zm-34.688 3.25c-0.43521 0-0.78125 0.19977-0.78125 0.46875s0.34604 0.5 0.78125 0.5 0.78125-0.23102 0.78125-0.5-0.34604-0.46875-0.78125-0.46875zm9.5938 2.75c-0.71727 0-1.2812 0.59523-1.2812 1.3125s0.56398 1.2812 1.2812 1.2812c0.71727 0 1.3125-0.56398 1.3125-1.2812 0-0.71727-0.59523-1.3125-1.3125-1.3125zm-10.125 1.782c-0.49312 0-0.90625 0.41313-0.90625 0.90625s0.41313 0.875 0.90625 0.875 0.875-0.38188 0.875-0.875-0.38188-0.90625-0.875-0.90625zm29.375 0c-0.49312 0-0.90625 0.41313-0.90625 0.90625s0.41313 0.875 0.90625 0.875 0.90625-0.38188 0.90625-0.875-0.41313-0.90625-0.90625-0.90625zm-4.3125 0.5c-0.80693 0-1.4375 0.66182-1.4375 1.4688 0 0.80693 0.63057 1.4375 1.4375 1.4375s1.4688-0.63057 1.4688-1.4375-0.66182-1.4688-1.4688-1.4688zm4.0625 6.1562c-0.44829 0-0.8125 0.36421-0.8125 0.8125s0.36421 0.8125 0.8125 0.8125 0.8125-0.36421 0.8125-0.8125-0.36421-0.8125-0.8125-0.8125zm-27.843 0.656c-0.85176 0-1.5312 0.67949-1.5312 1.5312 0 0.85176 0.67949 1.5625 1.5312 1.5625 0.85176 0 1.5625-0.71074 1.5625-1.5625s-0.71074-1.5312-1.5625-1.5312zm5.375 3.0938c-0.40346 0-0.75 0.31529-0.75 0.71875s0.34654 0.75 0.75 0.75 0.71875-0.34654 0.71875-0.75-0.31529-0.71875-0.71875-0.71875zm17.688 3.875c-0.67244 0-1.2188 0.54631-1.2188 1.2188 0 0.67244 0.54631 1.2188 1.2188 1.2188 0.67244 0 1.2188-0.54631 1.2188-1.2188 0-0.67244-0.54631-1.2188-1.2188-1.2188z" style="opacity:.4;color:#000000;filter:url(#filter4057);fill:#2e3436"/>
  <path id="path4061" d="m57.469 28.469c-0.53795 0-0.96875 0.4308-0.96875 0.96875s0.4308 0.96875 0.96875 0.96875 0.96875-0.4308 0.96875-0.96875-0.4308-0.96875-0.96875-0.96875zm-15.031 7.781c-1.2104 0-2.1875 0.97711-2.1875 2.1875s0.97711 2.2188 2.1875 2.2188 2.2188-1.0084 2.2188-2.2188-1.0084-2.1875-2.2188-2.1875zm-7.938 0.5c-0.58278 0-1.0625 0.47972-1.0625 1.0625s0.47972 1.0312 1.0625 1.0312 1.0625-0.44847 1.0625-1.0312c0-0.58278-0.47972-1.0625-1.0625-1.0625zm-10.406 3.0938c-1.0311 0-1.8438 0.81268-1.8438 1.8438s0.81268 1.875 1.8438 1.875 1.875-0.84393 1.875-1.875-0.84393-1.8438-1.875-1.8438zm0.656 5.344c-0.67244 0-1.2188 0.54631-1.2188 1.2188 0 0.67244 0.54631 1.2188 1.2188 1.2188 0.67244 0 1.2188-0.54631 1.2188-1.2188 0-0.67244-0.54631-1.2188-1.2188-1.2188zm30.438 0.15625c-0.53795 0-0.96875 0.4308-0.96875 0.96875s0.4308 1 0.96875 1 0.96875-0.46205 0.96875-1-0.4308-0.96875-0.96875-0.96875zm-5.8438 7c-0.80693 0-1.4375 0.63057-1.4375 1.4375s0.63057 1.4688 1.4375 1.4688 1.4688-0.66182 1.4688-1.4688c0-0.80693-0.66182-1.4375-1.4688-1.4375zm-3.9688 6.8125c-1.3897 0-2.5312 1.1103-2.5312 2.5s1.1415 2.5312 2.5312 2.5312 2.5312-1.1415 2.5312-2.5312-1.1415-2.5-2.5312-2.5zm15.5 0.46875c-0.80693 0-1.4688 0.66182-1.4688 1.4688 0 0.80693 0.66182 1.4688 1.4688 1.4688 0.80693 0 1.4688-0.66182 1.4688-1.4688 0-0.80693-0.66182-1.4688-1.4688-1.4688zm-21.094 1.7812c-1.0759 0-1.9688 0.89285-1.9688 1.9688 0 1.0759 0.89285 1.9375 1.9688 1.9375 1.0759 0 1.9375-0.8616 1.9375-1.9375s-0.8616-1.9688-1.9375-1.9688z" style="opacity:.5;color:#000000;filter:url(#filter4082);fill:#fff"/>
  <path id="path4086" d="m66.799 30.574a18.799 11.841 0 0 1 -37.598 0 18.799 11.841 0 1 1 37.598 0z" style="opacity:.5;color:#000000;fill:url(#linearGradient3127)"/>
 </g>
 <g id="g3585" transform="translate(116.94 -20.697)">
  <g id="g3334" transform="translate(-116.94 15.463)">
   <path id="path3870" style="color:#000000;fill:url(#linearGradient3594)" d="m51.041 30.85c1.0315-0.29955 2.1148 0.27717 2.4143 1.3086 0.19792 0.68151 0.01241 1.3829-0.43807 1.8674 0.44178 0.36052 0.82078 0.79547 1.1339 1.2883 0.50861-0.3554 1.0518-0.66435 1.6515-0.89626-0.05239-0.10544-0.10968-0.20887-0.14367-0.32592-0.30764-1.0594 0.30397-2.1716 1.3633-2.4792 0.77618-0.22541 1.5741 0.04925 2.0687 0.62472 0.53963-1.0088 1.4533-1.8164 2.6255-2.184-0.27526-0.94784 0.27113-1.9415 1.219-2.2167 0.89248-0.25918 1.8124 0.22034 2.1482 1.0673 0.24424-0.17767 0.52882-0.32514 0.83558-0.41423 1.4218-0.41289 2.9122 0.40669 3.3251 1.8285 0.01353 0.04658 0.0059 0.09551 0.01678 0.14218 0.42322-0.1844 0.85376-0.34598 1.3073-0.4777 1.207-0.35051 2.4089-0.47617 3.5998-0.43268 0.59658-1.0204 1.5721-1.8291 2.7969-2.1848 2.5369-0.73673 5.1843 0.71906 5.921 3.2559 0.11051 0.38053 0.17057 0.76802 0.18603 1.1469 1.6187-0.24885 3.201 0.72592 3.67 2.341 0.09209 0.31711 0.12942 0.62942 0.12695 0.94351 0.19748 0.09178 0.38924 0.18767 0.57678 0.29818 0.47627-0.72648 1.2005-1.3045 2.1173-1.5708 1.9793-0.57481 4.0185 0.50287 4.5691 2.3986 0.55052 1.8957-0.59424 3.898-2.5736 4.4728-0.29735 0.08635-0.59649 0.12156-0.89174 0.13642 0.09722 2.9294-1.7794 5.6638-4.7244 6.519-0.92562 0.26881-1.8675 0.31787-2.7635 0.1898-1.4461 2.1015-3.5763 3.7346-6.2171 4.5016-3.5682 1.0362-7.2327 0.24901-10.008-1.7995-0.44062 0.46521-1.0041 0.8308-1.6638 1.0224-1.7557 0.50987-3.5812-0.31448-4.3729-1.8918-0.02223 0.0066-0.04548 0.01321-0.06781 0.01969-2.6135 0.75899-5.287 0.09189-7.2326-1.527-0.64372 1.2065-1.7597 2.1532-3.1767 2.5647-2.5585 0.743-5.2376-0.53311-6.2848-2.9052-0.30003 0.17111-0.60888 0.32388-0.95516 0.42444-2.3696 0.68815-4.8537-0.67782-5.5418-3.0474-0.68815-2.3696 0.67782-4.8537 3.0474-5.5418 0.2477-0.07194 0.49576-0.1142 0.743-0.14224 0.2532-0.45804 0.65647-0.80338 1.1695-0.95237 0.5305-0.15406 1.0864-0.06189 1.556 0.20987-0.09707-2.4286 1.4527-4.711 3.8918-5.4194 0.53079-0.15415 1.0613-0.1989 1.5866-0.19116-0.04811-0.8829 0.50259-1.7146 1.3882-1.9717z"/>
   <path id="path3772" style="color:#000000;fill:url(#linearGradient3596)" d="m74.325 28.826c-1.352 0-2.4758 1.0054-2.6597 2.3066-0.74584 0.29962-1.4282 0.68426-2.0477 1.1769-0.36391-0.38298-0.86575-0.6355-1.4358-0.6355-1.1031 0-2.0007 0.89754-2.0007 2.0007 0 0.0081-0.000098 0.01548 0 0.02354-0.7801 0.05128-1.5268 0.20094-2.236 0.4472-0.41446-0.47982-1.0344-0.77672-1.7182-0.77672-1.2328 0-2.2349 0.98557-2.2596 2.2125-0.03274-0.0017-0.06099-0.02354-0.09415-0.02354-0.90659 0-1.6746 0.65516-1.8594 1.5064-1.848 0.12506-3.4365 1.1447-4.3544 2.6362-0.37102-0.15693-0.77221-0.23537-1.2004-0.23537-1.7127 0-3.1069 1.3942-3.1069 3.1069s1.3942 3.0834 3.1069 3.0834c0.40239 0 0.77699-0.07236 1.1298-0.21183 0.96864 1.6444 2.755 2.7303 4.8016 2.7303 0.66112 0 1.2946-0.11818 1.883-0.32952 1.571 1.8154 3.8835 2.9657 6.4727 2.9657 2.692 0 5.0903-1.2357 6.661-3.1775 0.91516 1.0419 2.2467 1.7182 3.7424 1.7182 1.1634 0 2.2344-0.41557 3.0834-1.0827 0.79651 0.41363 1.7002 0.65904 2.6597 0.65904 1.1666 0 2.2455-0.34718 3.154-0.94148 0.37512 0.19366 0.7962 0.30598 1.2475 0.30598 1.313 0 2.42-0.9309 2.6832-2.1654 0.17784 1.16 1.1675 2.0477 2.3772 2.0477 1.3353 0 2.4243-1.0654 2.4243-2.4008 0-1.2164-0.90183-2.2312-2.0713-2.4008 0.0345-0.19482 0.07057-0.40724 0.07057-0.61196 0-1.8869-1.526-3.4129-3.4129-3.4129-0.63274 0-1.2336 0.19448-1.7417 0.49428-0.1687-0.24092-0.33879-0.49404-0.54135-0.70611 0.07979-0.18866 0.11769-0.39424 0.11769-0.61196 0-0.87088-0.7061-1.577-1.577-1.577-0.0702 0-0.14408 0.01465-0.21183 0.02354-0.01295-1.3533-1.1151-2.4479-2.4714-2.4479-0.3596 0-0.70391 0.07369-1.0121 0.21183-1.074-1.899-2.884-3.324-5.038-3.906-0.302-1.149-1.321-2.001-2.565-2.001z"/>
  </g>
  <g id="g3313" transform="matrix(.73719 0 0 .73719 -100.06 29.342)">
   <path id="path3739" style="color:#000000;fill:url(#linearGradient3598)" d="m20.5 50.312c-0.95045 0-1.8285 0.30559-2.5312 0.8125-0.58004-0.08942-1.1762-0.15625-1.7812-0.15625-2.6437 0-5.0504 0.91554-7 2.4062-0.2257-0.035-0.4522-0.062-0.688-0.062-2.3125 0-4.1875 1.7719-4.1875 3.9688 0 0.82384 0.26727 1.5839 0.71875 2.2188-0.268 0.97769-0.40625 1.9997-0.40625 3.0625 0 1.0735 0.13301 2.1073 0.40625 3.0938-0.6199-0.279-1.3073-0.437-2.0312-0.437-2.7365 0-4.9375 2.201-4.9375 4.9375s2.201 4.9688 4.9375 4.9688c0.36612 0 0.719-0.04965 1.0625-0.125-0.000643 0.04129 0 0.08355 0 0.125 0 4.3167 3.4958 7.8125 7.8125 7.8125 2.786 0 5.2097-1.4621 6.5938-3.6562 2.0411 1.841 4.7536 2.9688 7.7188 2.9688 4.015 0 7.533-2.072 9.5938-5.1875 1.2942 0.97115 2.8824 1.5625 4.625 1.5625 2.725 0 5.1192-1.4353 6.5-3.5625 0.69317 0.55616 1.5421 0.90625 2.5 0.90625 1.3093 0 2.4789-0.6295 3.2188-1.5938 0.32267 0.20323 0.71549 0.34375 1.125 0.34375 1.1563 0 2.0938-0.93749 2.0938-2.0938s-0.93749-2.0938-2.0938-2.0938c-0.18067 0-0.36401 0.01947-0.53125 0.0625-0.509-1.456-1.821-2.527-3.408-2.688-0.086-1.348-1.192-2.406-2.562-2.406-0.3812 0-0.73681 0.07047-1.0625 0.21875-1.4183-1.5835-3.4881-2.5938-5.7812-2.5938-1.0245 0-1.9799 0.20126-2.875 0.5625-0.22426-2.3734-2.2241-4.25-4.6562-4.25-0.28018 0-0.54588 0.04651-0.8125 0.09375 0.03207-0.21766 0.0625-0.42967 0.0625-0.65625 0-2.5052-2.0573-4.5312-4.5625-4.5312-0.93946 0-1.8073 0.2609-2.5312 0.75-0.12466-0.14758-0.24323-0.29637-0.375-0.4375 0.01212-0.12327 0.03125-0.24872 0.03125-0.375 0-2.1969-1.875-3.9688-4.1875-3.9688z"/>
   <path id="path3671" style="opacity:.8;color:#000000;fill:url(#linearGradient3600)" d="m10.661 61.763c3.0264 0.30734 5.375 2.8925 5.375 6 0 0.50225-0.07128 0.97124-0.1875 1.4375 1.3556-0.82923 2.9508-1.3125 4.6562-1.3125 0.69713 0 1.3801 0.09893 2.0312 0.25 0.47506-1.3625 1.7568-2.3438 3.2812-2.3438 1.9271 0 3.4688 1.5729 3.4688 3.5 0 0.92305-0.35225 1.751-0.9375 2.375 0.19649-0.02238 0.39127 0 0.59375 0 2.8907 0 5.25 2.3281 5.25 5.2188s-2.3593 5.25-5.25 5.25c-0.40398 0-0.77855-0.06962-1.1562-0.15625-1.0117 1.427-2.4356 2.5193-4.0938 3.1562 0.0042 0.11543 0.03125 0.2273 0.03125 0.34375 0 5.2417-4.2583 9.4688-9.5 9.4688-1.5304 0-2.9698-0.3566-4.25-1-2.6246 1.7834-5.8064 2.8438-9.2188 2.8438-6.8387 0-12.693-4.2051-15.156-10.156-4.7852-0.59661-8.5-4.647-8.5-9.5938 0-5.3573 4.3302-9.7188 9.6875-9.7188 1.1595 0 2.2818 0.22061 3.3125 0.59375 0.85422-0.73119 1.7894-1.3932 2.7812-1.9375-0.0827-0.23333-0.15625-0.48833-0.15625-0.75 0-1.2333 1.0166-2.2188 2.25-2.2188 0.94828 0 1.7699 0.57244 2.0938 1.4062 1.0568-0.24278 2.1573-0.40621 3.2813-0.4375 0.31043-1.2856 1.4628-2.2188 2.8438-2.2188 1.1744 0 2.1886 0.6901 2.6562 1.6875 1.0788-1.0542 2.5545-1.6875 4.1875-1.6875 0.20716 0 0.42324-0.02049 0.625 0z"/>
   <path id="path3713" style="opacity:.8;color:#000000;fill:url(#linearGradient3602)" d="m7.6562 74.656c3.5005 0 6.464 2.1862 7.625 5.2812 2.9227 0.05208 5.2812 2.4399 5.2812 5.375 0 2.9677-2.4073 5.375-5.375 5.375-1.1753 0-2.2405-0.3911-3.125-1.0312-1.2736 0.82112-2.7782 1.3125-4.4062 1.3125-0.41217 0-0.82299-0.03481-1.2188-0.09375-0.4608 0.55836-1.157 0.9375-1.9375 0.9375-1.11 0-2.0426-0.72039-2.375-1.7188-0.573 0.1721-1.1834 0.28125-1.8125 0.28125-3.4688 0-6.2812-2.8125-6.2812-6.2812 0-2.9051 1.9776-5.3448 4.6562-6.0625-0.02473-0.15323-0.0625-0.30854-0.0625-0.46875 0-1.6188 1.3187-2.9062 2.9375-2.9062 0.86619 0 1.6509 0.37137 2.1875 0.96875 1.1569-0.62848 2.4971-0.96875 3.9062-0.96875z"/>
  </g>
 </g>
</svg>
