<?xml version="1.0" encoding="UTF-8" standalone="no"?>
<!-- Created with Inkscape (http://www.inkscape.org/) -->
<svg id="svg2408" xmlns:rdf="http://www.w3.org/1999/02/22-rdf-syntax-ns#" xmlns="http://www.w3.org/2000/svg" height="96" width="96" version="1.0" xmlns:cc="http://creativecommons.org/ns#" xmlns:xlink="http://www.w3.org/1999/xlink" xmlns:dc="http://purl.org/dc/elements/1.1/">
 <defs id="defs2410">
  <linearGradient id="linearGradient3825">
   <stop id="stop3827" style="stop-color:#eeeeec" offset="0"/>
   <stop id="stop3829" style="stop-color:#eeeeec;stop-opacity:0" offset="1"/>
  </linearGradient>
  <filter id="filter3821">
   <feGaussianBlur id="feGaussianBlur3823" stdDeviation="1.3320312"/>
  </filter>
  <filter id="filter3849">
   <feGaussianBlur id="feGaussianBlur3851" stdDeviation="1.3320312"/>
  </filter>
  <linearGradient id="linearGradient3864" y2="30.078" gradientUnits="userSpaceOnUse" x2="56.917" gradientTransform="matrix(0 1 -1 0 77.438 -17.281)" y1="30.078" x1="17.599">
   <stop id="stop3799" style="stop-color:#eeeeec" offset="0"/>
   <stop id="stop3801" style="stop-color:#eeeeec;stop-opacity:0" offset="1"/>
  </linearGradient>
  <radialGradient id="radialGradient3774" xlink:href="#linearGradient3825" gradientUnits="userSpaceOnUse" cy="45.612" cx="47.359" gradientTransform="matrix(1 0 0 .50418 0 22.615)" r="40.577"/>
  <linearGradient id="linearGradient3776" y2="78.817" xlink:href="#linearGradient3825" gradientUnits="userSpaceOnUse" x2="25.762" y1="25.58" x1="25.762"/>
 </defs>
 <metadata id="metadata2413">
  <rdf:RDF>
   <cc:Work rdf:about="">
    <dc:format>image/svg+xml</dc:format>
    <dc:type rdf:resource="http://purl.org/dc/dcmitype/StillImage"/>
    <dc:title/>
   </cc:Work>
  </rdf:RDF>
 </metadata>
 <g id="g3778">
  <path id="path3012" d="m49.844 13.531c-5.7315 0-10.663 3.3779-12.938 8.25-1.148-0.341-2.334-0.531-3.594-0.531-1.778 0-3.495 0.37126-5.0312 1.0312-0.49504-4.4138-4.2665-7.8438-8.8125-7.8438-4.8828 0-8.8438 3.9609-8.8438 8.8438 0 4.8828 3.9609 8.8438 8.8438 8.8438 0.4364 0 0.86178-0.06393 1.2812-0.125-0.09605 0.62953-0.15625 1.2811-0.15625 1.9375 0 7.0113 5.7075 12.688 12.719 12.688 4.4704 0 8.3631-2.3204 10.625-5.8125 1.8001 0.81869 3.7998 1.2812 5.9062 1.2812 2.2706 0 4.4063-0.55718 6.3125-1.5 1.4449 2.5277 4.1612 4.2188 7.2812 4.2188 4.6324 0 8.4062-3.7426 8.4062-8.375 0-1.233-0.27221-2.4143-0.75-3.4688 2.1059-0.62471 3.8365-2.1439 4.7188-4.125 0.85954 0.62425 1.9189 1 3.0625 1 2.8796 0 5.2188-2.3391 5.2188-5.2188 0-2.8796-2.3391-5.1875-5.2188-5.1875-1.588 0-3.0124 0.69267-3.9688 1.8125-1.3675-1.78-3.5193-2.9375-5.9375-2.9375-2.6078 0-4.8798 1.3518-6.2188 3.375-2.2925-4.8242-7.2097-8.1562-12.906-8.1562z" style="opacity:.7;filter:url(#filter3821);fill:url(#linearGradient3864)" transform="matrix(1.2021 0 0 1.2234 -8.9291 -12.643)"/>
  <path id="path3025" d="m44.875 52.511c5.7315 0 10.663 3.3779 12.938 8.25 1.1483-0.34142 2.3346-0.53125 3.5938-0.53125 1.778 0 3.495 0.37126 5.0312 1.0312 0.49504-4.4138 4.2665-7.8438 8.8125-7.8438 4.8828 0 8.8438 3.9609 8.8438 8.8438 0 4.8828-3.9609 8.8438-8.8438 8.8438-0.4364 0-0.86178-0.06393-1.2812-0.125 0.09605 0.62953 0.15625 1.2811 0.15625 1.9375 0 7.0113-5.7075 12.688-12.719 12.688-4.4704 0-8.3631-2.3204-10.625-5.8125-1.8001 0.81869-3.7998 1.2812-5.9062 1.2812-2.2706 0-4.4063-0.55718-6.3125-1.5-1.4449 2.5277-4.1612 4.2188-7.2812 4.2188-4.6324 0-8.4062-3.7426-8.4062-8.375 0-1.233 0.27221-2.4143 0.75-3.4688-2.1059-0.62471-3.8365-2.1439-4.7188-4.125-0.85954 0.62425-1.9189 1-3.0625 1-2.8796 0-5.2188-2.3391-5.2188-5.2188 0-2.8796 2.3391-5.1875 5.2188-5.1875 1.5881 0 3.0124 0.69267 3.9688 1.8125 1.3675-1.78 3.5193-2.9375 5.9375-2.9375 2.6078 0 4.8798 1.3518 6.2188 3.375 2.2925-4.8242 7.2097-8.1562 12.906-8.1562z" style="opacity:.7;filter:url(#filter3849);fill:url(#linearGradient3776)" transform="matrix(1.2021 0 0 1.2234 -8.9291 -12.643)"/>
  <path id="path3853" d="m44.875 29.065c5.7315 0 10.663 3.3779 12.938 8.25 1.1483-0.34142 2.3346-0.53125 3.5938-0.53125 1.778 0 3.495 0.37126 5.0312 1.0312 0.49504-4.4138 4.2665-7.8438 8.8125-7.8438 4.8828 0 8.8438 3.9609 8.8438 8.8438 0 4.8828-3.9609 8.8438-8.8438 8.8438-0.4364 0-0.86178-0.06393-1.2812-0.125 0.09605 0.62953 0.15625 1.2811 0.15625 1.9375 0 7.0113-5.7075 12.688-12.719 12.688-4.4704 0-8.3631-2.3204-10.625-5.8125-1.8001 0.81869-3.7998 1.2812-5.9062 1.2812-2.2706 0-4.4063-0.55718-6.3125-1.5-1.4449 2.5277-4.1612 4.2188-7.2812 4.2188-4.6324 0-8.4062-3.7426-8.4062-8.375 0-1.233 0.27221-2.4143 0.75-3.4688-2.1059-0.62471-3.8365-2.1439-4.7188-4.125-0.85954 0.62425-1.9189 1-3.0625 1-2.8796 0-5.2188-2.3391-5.2188-5.2188 0-2.8796 2.3391-5.1875 5.2188-5.1875 1.5881 0 3.0124 0.69267 3.9688 1.8125 1.3675-1.78 3.5193-2.9375 5.9375-2.9375 2.6078 0 4.8798 1.3518 6.2188 3.375 2.2925-4.8242 7.2097-8.1562 12.906-8.1562z" style="opacity:.7;filter:url(#filter3849);fill:url(#radialGradient3774)" transform="matrix(1.2021 0 0 1.2234 -8.9291 -12.643)"/>
 </g>
</svg>
