<?xml version="1.0" encoding="UTF-8" standalone="no"?>
<!-- Created with Inkscape (http://www.inkscape.org/) -->
<svg id="svg2408" xmlns:rdf="http://www.w3.org/1999/02/22-rdf-syntax-ns#" xmlns="http://www.w3.org/2000/svg" height="96" width="96" version="1.0" xmlns:cc="http://creativecommons.org/ns#" xmlns:xlink="http://www.w3.org/1999/xlink" xmlns:dc="http://purl.org/dc/elements/1.1/">
 <defs id="defs2410">
  <linearGradient id="linearGradient3862-9">
   <stop id="stop3864-9" style="stop-color:#fff" offset="0"/>
   <stop id="stop3866-2" style="stop-color:#fff;stop-opacity:0" offset="1"/>
  </linearGradient>
  <linearGradient id="linearGradient3305" y2="76.55" xlink:href="#linearGradient3862-9" gradientUnits="userSpaceOnUse" x2="75.918" gradientTransform="matrix(.72676 0 0 .98080 7.1963 -58.764)" y1="63.139" x1="75.918"/>
  <linearGradient id="linearGradient3307" y2="73.401" xlink:href="#linearGradient3862-9" gradientUnits="userSpaceOnUse" x2="29.3" gradientTransform="matrix(-.72676 0 0 .98080 83.687 -18.551)" y1="52.948" x1="29.3"/>
  <linearGradient id="linearGradient3309" y2="44.721" xlink:href="#linearGradient3862-9" gradientUnits="userSpaceOnUse" x2="38.535" gradientTransform="matrix(.72676 0 0 .98080 10.12 -7.7851)" y1="8.6325" x1="38.535"/>
  <linearGradient id="linearGradient3311" y2="91.666" xlink:href="#linearGradient3862-9" gradientUnits="userSpaceOnUse" x2="46.77" gradientTransform="matrix(.72676 0 0 .98080 25.365 -34.244)" y1="78.496" x1="46.77"/>
  <linearGradient id="linearGradient3313" y2="86.111" xlink:href="#linearGradient3862-9" gradientUnits="userSpaceOnUse" x2="35.838" gradientTransform="matrix(.72676 0 0 .98080 1.3822 -12.667)" y1="56.924" x1="35.838"/>
  <linearGradient id="linearGradient3315" y2="48.086" xlink:href="#linearGradient3862-9" gradientUnits="userSpaceOnUse" x2="45.967" gradientTransform="matrix(.72676 0 0 .98080 -.59638 -4.5915)" y1="18.874" x1="45.967"/>
  <linearGradient id="linearGradient3317" y2="56.865" xlink:href="#linearGradient3862-9" gradientUnits="userSpaceOnUse" x2="76.758" gradientTransform="matrix(.72676 0 0 .98080 20.531 -11.367)" y1="27.41" x1="76.758"/>
  <linearGradient id="linearGradient3319" y2="33.077" xlink:href="#linearGradient3862-9" gradientUnits="userSpaceOnUse" x2="45.634" gradientTransform="matrix(-.69792 .27353 .20268 .94189 84.552 26.663)" y1="13.056" x1="39.819"/>
  <linearGradient id="linearGradient3321" y2="76.55" xlink:href="#linearGradient3862-9" gradientUnits="userSpaceOnUse" x2="75.918" gradientTransform="matrix(.72676 0 0 .98080 -29.142 -29.34)" y1="63.139" x1="75.918"/>
  <linearGradient id="linearGradient3323" y2="39.188" xlink:href="#linearGradient3862-9" gradientUnits="userSpaceOnUse" x2="76.758" gradientTransform="matrix(.71753 0 0 .98080 -8.8347 9.2299)" y1="27.41" x1="76.758"/>
  <linearGradient id="linearGradient3325" y2="56.865" xlink:href="#linearGradient3862-9" gradientUnits="userSpaceOnUse" x2="76.758" gradientTransform="matrix(-.72676 0 0 .98080 75.469 -20.194)" y1="27.41" x1="76.758"/>
  <linearGradient id="linearGradient3327" y2="91.666" xlink:href="#linearGradient3862-9" gradientUnits="userSpaceOnUse" x2="46.77" gradientTransform="matrix(.72676 0 0 .98080 44.261 -73.476)" y1="78.496" x1="46.77"/>
  <linearGradient id="linearGradient3329" y2="73.401" xlink:href="#linearGradient3862-9" gradientUnits="userSpaceOnUse" x2="29.3" gradientTransform="matrix(.49162 0 0 .66347 10.535 17.685)" y1="52.948" x1="29.3"/>
  <linearGradient id="linearGradient3331" y2="91.666" xlink:href="#linearGradient3862-9" gradientUnits="userSpaceOnUse" x2="46.77" gradientTransform="matrix(.72676 0 0 .98080 19.551 -69.553)" y1="78.496" x1="46.77"/>
  <linearGradient id="linearGradient3132-0" y2="23.566" gradientUnits="userSpaceOnUse" x2="56.658" gradientTransform="matrix(1.1579 0 0 1.1556 -2.3913 20.812)" y1="51.02" x1="56.658">
   <stop id="stop3781" style="stop-color:#d00000" offset="0"/>
   <stop id="stop3783" style="stop-color:#ff3c22" offset="1"/>
  </linearGradient>
 </defs>
 <metadata id="metadata2413">
  <rdf:RDF>
   <cc:Work rdf:about="">
    <dc:format>image/svg+xml</dc:format>
    <dc:type rdf:resource="http://purl.org/dc/dcmitype/StillImage"/>
    <dc:title/>
   </cc:Work>
  </rdf:RDF>
 </metadata>
 <g id="g3289" transform="matrix(1 0 0 .91325 0 13)">
  <path id="path3874" d="m63.838 2.6891c-2.544 0-4.6978 2.1443-5.5415 5.1798-2.1241 0.05108-3.8382 2.393-3.8382 5.2718 0 2.9108 1.7495 5.2718 3.9063 5.2718 0.85419 0 1.6283-0.38359 2.2711-1.0114 0.92561 0.80535 2.0191 1.2873 3.2023 1.2873 0.29955 0 0.59811-0.03414 0.88573-0.09195 0.33489 0.54764 0.84087 0.9195 1.4081 0.9195 0.80671 0 1.4845-0.70656 1.726-1.6857 0.41643 0.1688 0.86008 0.27585 1.3172 0.27585 2.521 0 4.5649-2.7585 4.5649-6.1606 0-2.8493-1.4372-5.2421-3.384-5.9461 0.01797-0.15029 0.04542-0.30261 0.04542-0.45975 0-1.5877-0.9584-2.8504-2.1348-2.8504-0.62951 0-1.1998 0.36424-1.5898 0.95015-0.841-0.6176-1.815-0.9513-2.839-0.9513z" style="opacity:.2;color:#000000;fill:url(#linearGradient3305)"/>
  <path id="path3646" d="m63.747 27.699c1.5966 0 2.907 1.7378 2.907 3.8925 0 0.73343-0.17071 1.4062-0.43151 1.9922 0.28814 0.45359 0.57484 0.90773 0.8176 1.4099 0.49531-0.13321 1.0185-0.1839 1.5444-0.1839 1.7023 0 3.2603 0.72507 4.5195 1.9616 0.85368-2.3901 2.5645-4.0151 4.5422-4.0151 2.8291 0 5.1327 3.3275 5.1327 7.4479 0 1.875-0.48766 3.5933-1.2718 4.904 1.0384 1.6186 1.6806 3.7268 1.6806 6.0074 0 5.1411-3.1871 9.2869-7.1086 9.2869-1.3659 0-2.6418-0.50299-3.7246-1.3792-0.84236 1.2895-1.9402 2.3061-3.1796 2.8504-1.8743 2.6424-4.5248 4.291-7.4493 4.291-3.1226 0-5.9245-1.8802-7.8126-4.8427-1.3845-0.35909-2.6364-1.2471-3.6565-2.452-0.11306 0.01106-0.22552 0.03065-0.34067 0.03065-1.5334 0-2.8968-1.0028-3.7473-2.5439-0.2519 0.04283-0.51101 0.09195-0.77218 0.09195-3.1652 0-5.7232-3.257-5.7232-7.264s2.558-7.264 5.7232-7.264c0.06109 0 0.12106 0.02825 0.18169 0.03065 0.10045-2.2274 1.5149-3.9845 3.2704-3.9845 0.03963 0 0.07427 0.02887 0.11356 0.03065 1.3746-5.3612 5.1213-9.195 9.5614-9.195 0.99299 0 1.9546 0.19274 2.8616 0.5517 0.52284-1.0063 1.3821-1.6551 2.362-1.6551z" style="opacity:.5;color:#000000;fill:url(#linearGradient3307)"/>
  <path id="path3686" d="m48.32 6.4515e-8c-1.036 0-1.885 1.1146-1.885 2.5133 0 0.92412 0.36064 1.7339 0.90845 2.1761-0.31235 0.61129-0.54649 1.2928-0.70405 2.0229-0.56693-0.25973-1.1534-0.44883-1.7715-0.52105 0.02017-0.15088 0.04542-0.30102 0.04542-0.45975 0-1.4365-0.86604-2.6052-1.9304-2.6052-0.77988 0-1.4454 0.63327-1.7488 1.5325-0.7715-1.0656-1.8355-1.7437-3.0206-1.7777 0-1.2853-0.77368-2.3294-1.726-2.3294-0.89674 0-1.6202 0.93375-1.7033 2.1148-0.27412-0.13348-0.57751-0.21455-0.88574-0.21455-1.4285 0-2.5891 1.5662-2.5891 3.4941 0 0.063154 0.02025 0.12157 0.02271 0.1839-0.44179-0.076905-0.88422-0.1226-1.34-0.1226-1.2127 0-2.3603 0.27937-3.4521 0.76625-0.82741-1.0594-1.949-1.7164-3.1796-1.7164-2.549 0-4.6104 2.782-4.6104 6.2219 0 0.516 0.04863 1.0224 0.13627 1.5018-1.5669 0.27666-2.7708 2.0703-2.7708 4.2603 0 0.43 0.04945 0.83411 0.13627 1.226-0.1583 0.18649-0.31018 0.37604-0.45422 0.58235-0.63682-0.73552-1.4634-1.1953-2.3847-1.1953-1.9888 0-3.5884 2.0883-3.5884 4.6588s1.5996 4.6588 3.5884 4.6588c0.29877 0 0.58544-0.06461 0.86302-0.15325 0.69822 3.6987 3.173 6.4365 6.132 6.4365 0.93004 0 1.8161-0.28073 2.6118-0.76625 1.9055 2.1028 4.3189 3.3715 6.9723 3.3715 3.5852 0 6.769-2.3153 8.7892-5.8848 0.53348 0.42174 1.154 0.6743 1.8169 0.6743 1.7641 0 3.2338-1.6938 3.5429-3.9538 0.02239 0.000262 0.0457 0 0.06813 0 2.626 0 4.9238-1.8052 6.291-4.5362 0.92117 1.2751 2.21 2.0535 3.6338 2.0535 2.5707 0 4.7099-2.5688 5.0419-5.9154 0.32406 0.10502 0.65136 0.1839 0.99929 0.1839 2.3809 0 4.3151-2.6103 4.3151-5.8235s-1.9342-5.8235-4.3151-5.8235c-0.24888 0-0.49012 0.037231-0.72676 0.09195-0.356-0.4816-0.823-0.7671-1.338-0.7671-0.53303 0-1.0233 0.31714-1.3854 0.82755-0.56358-3.0722-2.6138-5.3637-5.0646-5.3637-0.53333 0-1.037 0.13671-1.5216 0.33715-0.193-1.1216-0.927-1.9616-1.817-1.9616z" style="opacity:.3;color:#000000;fill:url(#linearGradient3309)"/>
  <path id="path3724" d="m57.411 42.749c-0.91502 0-1.6962 0.67855-2.1121 1.6857-1.394 0.13023-2.6247 1.0052-3.4748 2.36-0.38812-0.70619-1.0018-1.1647-1.7033-1.1647-1.1764 0-2.1348 1.2934-2.1348 2.8811 0 0.43579 0.07581 0.82526 0.2044 1.1953-1.1545 0.3502-2.0213 1.7078-2.0213 3.3715 0 1.9279 1.1378 3.4941 2.5664 3.4941 1.1224 0 2.0722-0.98075 2.4301-2.3294 0.83006 2.1982 2.5206 3.7086 4.4741 3.7086 0.79596 0 1.557-0.26004 2.2257-0.70495 0.41568 0.51711 0.97987 0.82755 1.5898 0.82755 1.2042 0 2.1693-1.2393 2.2938-2.8198 0.22466 0.04644 0.44705 0.09195 0.68134 0.09195 1.1026 0 2.1231-0.55439 2.907-1.4405 0.52039 0.79453 1.2873 1.2873 2.1348 1.2873 1.5686 0 2.8389-1.7143 2.8389-3.8312s-1.2703-3.8312-2.8389-3.8312c-0.22966 0-0.46746 0.05316-0.68133 0.1226-0.52013-2.5893-2.2773-4.5055-4.3605-4.5055-1.0907 0-2.0813 0.54087-2.8616 1.4099-0.402-1.073-1.209-1.81-2.158-1.81z" style="opacity:.3;color:#000000;fill:url(#linearGradient3311)"/>
  <path id="path3739" d="m23.548 39.622c-0.69074 0-1.3289 0.29972-1.8396 0.7969-0.42155-0.0877-0.85479-0.15325-1.2945-0.15325-1.9214 0-3.6704 0.89796-5.0873 2.36-0.16366-0.03491-0.32826-0.0613-0.49964-0.0613-1.6806 0-3.0433 1.7378-3.0433 3.8925 0 0.80802 0.19424 1.5535 0.52236 2.1761-0.19477 0.95892-0.29524 1.9613-0.29524 3.0037 0 1.0529 0.09667 2.0668 0.29524 3.0343-0.45053-0.27366-0.95011-0.4291-1.4762-0.4291-1.9888 0-3.5884 2.1588-3.5884 4.8427s1.5996 4.8733 3.5884 4.8733c0.26608 0 0.52254-0.0487 0.77218-0.1226-0.000467 0.0405 0 0.08195 0 0.1226 0 4.2338 2.5406 7.6625 5.6778 7.6625 2.0247 0 3.7862-1.434 4.7921-3.586 1.4834 1.8056 3.4547 2.9117 5.6097 2.9117 2.9179 0 5.4746-2.0323 6.9723-5.0879 0.94054 0.9525 2.0948 1.5325 3.3612 1.5325 1.9804 0 3.7204-1.4078 4.7239-3.4941 0.50376 0.54548 1.1208 0.88885 1.8169 0.88885 0.95154 0 1.8016-0.61742 2.3392-1.5631 0.2345 0.19933 0.51999 0.33715 0.8176 0.33715 0.84032 0 1.5216-0.91949 1.5216-2.0535 0-1.1341-0.68133-2.0535-1.5216-2.0535-0.1313 0-0.26455 0.0191-0.38609 0.0613-0.36871-1.4281-1.3225-2.4779-2.4755-2.6359-0.06267-1.3222-0.86678-2.36-1.8623-2.36-0.27704 0-0.53548 0.06912-0.77218 0.21455-1.0308-1.5531-2.535-2.5439-4.2016-2.5439-0.74453 0-1.4389 0.1974-2.0894 0.5517-0.16298-2.3279-1.6164-4.1684-3.384-4.1684-0.20362 0-0.39672 0.04562-0.59049 0.09195 0.02331-0.21348 0.04542-0.42142 0.04542-0.64365 0-2.4571-1.4951-4.4442-3.3158-4.4442-0.68276 0-1.3135 0.25589-1.8396 0.7356-0.0906-0.14475-0.17677-0.29068-0.27253-0.4291 0.0088-0.12091 0.02271-0.24394 0.02271-0.3678 0-2.1547-1.3626-3.8925-3.0433-3.8925z" style="opacity:.5;color:#000000;fill:url(#linearGradient3313)"/>
  <path id="path3772" d="m35.605 13.707c-1.3046 0-2.3889 1.3092-2.5664 3.0037-0.71966 0.39017-1.3781 0.89105-1.9759 1.5325-0.35114-0.49872-0.83537-0.82755-1.3854-0.82755-1.0644 0-1.9304 1.1688-1.9304 2.6052 0 0.01052-0.000092 0.02015 0 0.03065-0.75272 0.06678-1.4732 0.26167-2.1576 0.58235-0.39991-0.62482-0.99812-1.0114-1.6579-1.0114-1.1896 0-2.1565 1.2834-2.1803 2.8811-0.03159-0.0022-0.05885-0.03065-0.09085-0.03065-0.87477 0-1.6158 0.85315-1.7942 1.9616-1.7832 0.16286-3.3159 1.4906-4.2016 3.4328-0.358-0.20435-0.74511-0.3065-1.1583-0.3065-1.6526 0-2.9979 1.8155-2.9979 4.0458s1.3452 4.0151 2.9979 4.0151c0.38827 0 0.74972-0.09423 1.0901-0.27585 0.93465 2.1414 2.6583 3.5554 4.6331 3.5554 0.63792 0 1.2492-0.1539 1.8169-0.4291 1.5159 2.3641 3.7472 3.8619 6.2456 3.8619 2.5976 0 4.9117-1.6091 6.4273-4.1377 0.88305 1.3567 2.1679 2.2374 3.6111 2.2374 1.1226 0 2.156-0.54116 2.9752-1.4099 0.76856 0.53863 1.6405 0.8582 2.5664 0.8582 1.1257 0 2.1667-0.45209 3.0433-1.226 0.36196 0.25219 0.76826 0.39845 1.2037 0.39845 1.267 0 2.335-1.2122 2.5891-2.8198 0.1716 1.5106 1.1265 2.6665 2.2938 2.6665 1.2885 0 2.3392-1.3874 2.3392-3.1263 0-1.5841-0.87018-2.9054-1.9986-3.1263 0.03331-0.25369 0.06813-0.5303 0.06813-0.7969 0-2.4571-1.4724-4.4442-3.2931-4.4442-0.61053 0-1.1903 0.25326-1.6806 0.64365-0.16277-0.31372-0.3269-0.64333-0.52236-0.9195 0.07699-0.24567 0.11356-0.51338 0.11356-0.7969 0-1.1341-0.68133-2.0535-1.5216-2.0535-0.06772 0-0.13902 0.01908-0.2044 0.03065-0.01249-1.7622-1.0759-3.1876-2.3847-3.1876-0.34698 0-0.67921 0.09596-0.97658 0.27585-1.0357-2.4745-2.7816-4.33-4.8602-5.0879-0.29168-1.4966-1.275-2.6052-2.4755-2.6052z" style="opacity:.5;color:#000000;fill:url(#linearGradient3315)"/>
  <path id="path3671" d="m71.608 11.621c-2.1994 0.30144-3.9063 2.837-3.9063 5.8848 0 0.4926 0.0518 0.95259 0.13627 1.4099-0.98516-0.81331-2.1445-1.2873-3.384-1.2873-0.50664 0-1.003 0.09703-1.4762 0.2452-0.34525-1.3364-1.2767-2.2987-2.3847-2.2987-1.4005 0-2.5209 1.5427-2.5209 3.4328 0 0.90533 0.256 1.7173 0.68134 2.3294-0.1428-0.02195-0.28436 0-0.43151 0-2.1008 0-3.8155 2.2834-3.8155 5.1185 0 2.8352 1.7147 5.1492 3.8155 5.1492 0.2936 0 0.56582-0.06828 0.84031-0.15325 0.73529 1.3996 1.7701 2.471 2.9752 3.0956-0.0031 0.11321-0.02271 0.22294-0.02271 0.33715 0 5.1411 3.0947 9.2869 6.9042 9.2869 1.1122 0 2.1584-0.34975 3.0887-0.9808 1.9074 1.7492 4.2198 2.7891 6.6998 2.7891 4.97 0 9.225-4.1244 11.015-9.9612 3.478-0.586 6.178-4.559 6.178-9.411 0-5.2545-3.147-9.5321-7.0405-9.5321-0.8427 0-1.6583 0.21637-2.4074 0.58235-0.62081-0.71715-1.3004-1.3665-2.0213-1.9003 0.0601-0.22885 0.11356-0.47895 0.11356-0.7356 0-1.2097-0.73886-2.1761-1.6352-2.1761-0.68917 0-1.2863 0.56145-1.5216 1.3792-0.76806-0.23812-1.5678-0.39841-2.3847-0.4291-0.22561-1.2609-1.0631-2.1761-2.0667-2.1761-0.85354 0-1.5906 0.67685-1.9304 1.6551-0.78401-1.034-1.8565-1.6551-3.0433-1.6551-0.15056 0-0.30759-0.0201-0.45422 0z" style="opacity:.5;color:#000000;fill:url(#linearGradient3317)"/>
  <path id="path3870" d="m49.476 48.517c0.99528-0.39007 2.0406 0.36093 2.3296 1.7041 0.19097 0.88746 0.01198 1.8008-0.4227 2.4317 0.42628 0.46947 0.79197 1.0359 1.0941 1.6777 0.49076-0.4628 1.0148-0.86512 1.5935-1.1671-0.05055-0.1373-0.10583-0.27199-0.13863-0.42441-0.29685-1.3795 0.2933-2.8278 1.3155-3.2285 0.74894-0.29353 1.5189 0.06413 1.9961 0.81351 0.52069-1.3137 1.4023-2.3653 2.5334-2.844-0.2656-1.2343 0.26161-2.5282 1.1762-2.8866 0.86116-0.33751 1.7488 0.28692 2.0728 1.3898 0.23566-0.23136 0.51026-0.4234 0.80626-0.5394 1.3719-0.53767 2.81 0.5296 3.2084 2.381 0.01305 0.06065 0.0057 0.12437 0.01619 0.18515 0.40837-0.24013 0.8238-0.45053 1.2615-0.62206 1.1646-0.45644 2.3244-0.62007 3.4735-0.56343 0.57565-1.3288 1.5169-2.3818 2.6987-2.845 2.4478-0.95937 5.0023 0.93636 5.7132 4.2399 0.10663 0.49552 0.16458 1.0001 0.1795 1.4935 1.5619-0.32406 3.0886 0.94529 3.5412 3.0485 0.08886 0.41294 0.12488 0.81963 0.1225 1.2286 0.19056 0.11952 0.37558 0.24438 0.55654 0.38829 0.45956-0.94602 1.1584-1.6987 2.043-2.0454 1.9098-0.74852 3.8775 0.65484 4.4087 3.1234s-0.57339 5.076-2.4832 5.8245c-0.28692 0.11245-0.57556 0.1583-0.86045 0.17765 0.09381 3.8147-1.717 7.3753-4.5586 8.489-0.89314 0.35004-1.802 0.41393-2.6665 0.24716-1.3954 2.7365-3.4508 4.8632-5.999 5.8619-3.443 1.3494-6.9789 0.32426-9.6566-2.3433-0.42516 0.6058-0.96884 1.0819-1.6055 1.3314-1.6941 0.66395-3.4555-0.40951-4.2194-2.4635-0.02145 0.0086-0.04389 0.0172-0.06543 0.02564-2.5218 0.98836-5.1015 0.11966-6.9788-1.9885-0.62113 1.5712-1.698 2.8039-3.0652 3.3397-2.4687 0.96754-5.0538-0.69421-6.0643-3.7831-0.2895 0.22282-0.58752 0.42176-0.92164 0.55271-2.2864 0.89611-4.6833-0.88266-5.3473-3.9683-0.664-3.0857 0.65404-6.3204 2.9405-7.2165 0.23901-0.09368 0.47837-0.14871 0.71692-0.18523 0.24431-0.59646 0.63343-1.0462 1.1284-1.2402 0.51188-0.20062 1.0483-0.08059 1.5014 0.2733-0.09366-3.1625 1.4017-6.1347 3.7552-7.0571 0.51217-0.20073 1.0241-0.259 1.5309-0.24893-0.04642-1.1497 0.48495-2.2327 1.3394-2.5676z" style="opacity:.2;color:#000000;fill:url(#linearGradient3319)"/>
  <path id="path3713" d="m27.5 32.113c-2.544 0-4.6978 2.1443-5.5415 5.1798-2.1241 0.05108-3.8382 2.393-3.8382 5.2718 0 2.9108 1.7495 5.2718 3.9063 5.2718 0.85419 0 1.6283-0.38359 2.2711-1.0114 0.92561 0.80535 2.0191 1.2873 3.2023 1.2873 0.29955 0 0.59811-0.03414 0.88573-0.09195 0.33489 0.54764 0.84087 0.9195 1.4081 0.9195 0.80671 0 1.4845-0.70656 1.726-1.6857 0.41643 0.1688 0.86008 0.27585 1.3172 0.27585 2.521 0 4.5649-2.7585 4.5649-6.1606 0-2.8493-1.4372-5.2421-3.384-5.9461 0.01797-0.15029 0.04542-0.30261 0.04542-0.45975 0-1.5877-0.9584-2.8504-2.1348-2.8504-0.62951 0-1.1998 0.36424-1.5898 0.95015-0.84081-0.61641-1.8148-0.95015-2.8389-0.95015z" style="opacity:.5;color:#000000;fill:url(#linearGradient3321)"/>
  <path id="path4199" d="m41.594 32.217c-2.1715 0.30144-3.8567 2.837-3.8567 5.8848 0 0.4926 0.05114 0.95259 0.13454 1.4099-0.97265-0.81331-2.1173-1.2873-3.341-1.2873-0.50021 0-0.99024 0.09703-1.4575 0.2452-0.34086-1.3364-1.2605-2.2987-2.3544-2.2987-1.3827 0-2.4889 1.5427-2.4889 3.4328 0 0.90533 0.25275 1.7173 0.67268 2.3294-0.14099-0.02195-0.28074 0-0.42603 0-2.0741 0-3.767 2.2834-3.767 5.1185 0 2.8352 1.6929 5.1492 3.767 5.1492 0.28987 0 0.55863-0.06828 0.82964-0.15325 0.72595 1.3996 1.7476 2.471 2.9374 3.0956-0.003 0.11321-0.02242 0.22294-0.02242 0.33715 0 5.1411 3.0554 9.2869 6.8165 9.2869 1.0981 0 2.1309-0.34975 3.0495-0.9808 1.8832 1.7492 4.1662 2.7891 6.6147 2.7891 4.9069 0 9.1078-4.1244 10.875-9.9612 3.4335-0.58515 6.099-4.5578 6.099-9.4095 0-5.2545-3.107-9.5321-6.951-9.5321-0.83199 0-1.6372 0.21637-2.3768 0.58235-0.61293-0.71715-1.2839-1.3665-1.9956-1.9003 0.05934-0.22885 0.11211-0.47896 0.11211-0.7356 0-1.2097-0.72947-2.1761-1.6144-2.1761-0.68042 0-1.2699 0.56145-1.5023 1.3792-0.75831-0.23812-1.5479-0.39841-2.3544-0.4291-0.22274-1.2609-1.0496-2.1761-2.0405-2.1761-0.8427 0-1.5704 0.67685-1.9059 1.6551-0.77406-1.034-1.8329-1.6551-3.0046-1.6551-0.14865 0-0.30369-0.0201-0.44846 0z" style="opacity:.2;color:#000000;fill:url(#linearGradient3323)"/>
  <path id="path4203" d="m24.392 2.7934c2.1994 0.30144 3.9063 2.837 3.9063 5.8848 0 0.4926-0.0518 0.95259-0.13627 1.4099 0.98516-0.81331 2.1445-1.2873 3.384-1.2873 0.50664 0 1.003 0.09703 1.4762 0.2452 0.34525-1.3364 1.2767-2.2987 2.3847-2.2987 1.4005 0 2.5209 1.5427 2.5209 3.4328 0 0.90533-0.256 1.7173-0.68134 2.3294 0.1428-0.02195 0.28436 0 0.43151 0 2.1008 0 3.8155 2.2834 3.8155 5.1185 0 2.8352-1.7147 5.1492-3.8155 5.1492-0.2936 0-0.56582-0.06828-0.84031-0.15325-0.73529 1.3996-1.7701 2.471-2.9752 3.0956 0.0031 0.11321 0.02271 0.22294 0.02271 0.33715 0 5.1411-3.0947 9.2869-6.9042 9.2869-1.1122 0-2.1584-0.34975-3.0887-0.9808-1.9074 1.7492-4.2198 2.7891-6.6998 2.7891-4.97 0-9.225-4.1244-11.015-9.9612-3.4782-0.585-6.178-4.558-6.178-9.41-4.0655e-8 -5.254 3.147-9.5319 7.0405-9.5319 0.8427 0 1.6583 0.21637 2.4074 0.58235 0.6211-0.7171 1.3001-1.3664 2.0211-1.9002-0.06-0.2289-0.113-0.479-0.113-0.7356 0-1.2097 0.73886-2.1761 1.6352-2.1761 0.68917 0 1.2863 0.56145 1.5216 1.3792 0.76806-0.23812 1.5678-0.39841 2.3847-0.4291 0.22561-1.2609 1.0631-2.1761 2.0667-2.1761 0.85354 0 1.5906 0.67685 1.9304 1.6551 0.78401-1.034 1.8565-1.6551 3.0433-1.6551 0.15056 0 0.30759-0.020097 0.45422 0z" style="opacity:.3;color:#000000;fill:url(#linearGradient3325)"/>
  <path id="path4207" d="m76.306 3.5166c-0.91502 0-1.6962 0.67855-2.1121 1.6857-1.394 0.13023-2.6247 1.0052-3.4748 2.36-0.38812-0.70619-1.0018-1.1647-1.7033-1.1647-1.1764 0-2.1348 1.2934-2.1348 2.8811 0 0.43579 0.07581 0.82526 0.2044 1.1953-1.1545 0.3502-2.0213 1.7078-2.0213 3.3715 0 1.9279 1.1378 3.4941 2.5664 3.4941 1.1224 0 2.0722-0.98075 2.4301-2.3294 0.83006 2.1982 2.5206 3.7086 4.4741 3.7086 0.79596 0 1.557-0.26004 2.2257-0.70495 0.41568 0.51711 0.97987 0.82755 1.5898 0.82755 1.2042 0 2.1693-1.2393 2.2938-2.8198 0.22466 0.04644 0.44705 0.09195 0.68133 0.09195 1.1026 0 2.1231-0.55439 2.907-1.4405 0.52039 0.79453 1.2873 1.2873 2.1348 1.2873 1.5686 0 2.8389-1.7143 2.8389-3.8312s-1.2703-3.8312-2.8389-3.8312c-0.22966 0-0.46746 0.053159-0.68133 0.1226-0.52013-2.5893-2.2773-4.5055-4.3605-4.5055-1.0907 0-2.0813 0.54087-2.8616 1.4099-0.401-1.0717-1.208-1.8096-2.158-1.8096z" style="opacity:.3;color:#000000;fill:url(#linearGradient3327)"/>
  <path id="path3714" d="m24.024 48.972c-1.08 0-1.9665 1.1756-1.9665 2.6332 0 0.49614 0.11548 0.95121 0.2919 1.3477-0.19492 0.30684-0.38886 0.61405-0.55308 0.95374-0.33506-0.09011-0.689-0.1244-1.0447-0.1244-1.1515 0-2.2054 0.49048-3.0573 1.3269-0.57748-1.6168-1.7348-2.7161-3.0726-2.7161-1.9138 0-3.4721 2.2509-3.4721 5.0383 0 1.2684 0.32988 2.4308 0.86034 3.3174-0.70245 1.095-1.1369 2.5211-1.1369 4.0638 0 3.4777 2.1559 6.2823 4.8087 6.2823 0.92398 0 1.7871-0.34025 2.5196-0.93301 0.56982 0.87229 1.3125 1.56 2.1509 1.9282 1.2679 1.7875 3.0609 2.9027 5.0391 2.9027 2.1123 0 4.0077-1.2719 5.2849-3.2759 0.93654-0.24291 1.7834-0.84361 2.4735-1.6587 0.07648 0.0075 0.15256 0.02073 0.23045 0.02073 1.0373 0 1.9596-0.67837 2.5349-1.7209 0.1704 0.02897 0.34568 0.0622 0.52235 0.0622 2.1411 0 3.8715-2.2033 3.8715-4.9138 0-2.7106-1.7304-4.9138-3.8715-4.9138-0.04132 0-0.08189 0.01911-0.12291 0.02073-0.06795-1.5068-1.0247-2.6954-2.2123-2.6954-0.02681 0-0.05024 0.01953-0.07682 0.02073-0.92985-3.6266-3.4644-6.22-6.4679-6.22-0.67172 0-1.3222 0.13038-1.9358 0.3732-0.35368-0.68072-0.93496-1.1196-1.5978-1.1196z" style="opacity:.2;color:#000000;fill:url(#linearGradient3329)"/>
  <path id="path3718" d="m51.597 7.4398c-0.91502 0-1.6962 0.67855-2.1121 1.6857-1.394 0.13023-2.6247 1.0052-3.4748 2.36-0.38812-0.70619-1.0018-1.1647-1.7033-1.1647-1.1764 0-2.1348 1.2934-2.1348 2.8811 0 0.43579 0.07581 0.82526 0.2044 1.1953-1.1545 0.3502-2.0213 1.7078-2.0213 3.3715 0 1.9279 1.1378 3.4941 2.5664 3.4941 1.1224 0 2.0722-0.98075 2.4301-2.3294 0.83006 2.1982 2.5206 3.7086 4.4741 3.7086 0.79596 0 1.557-0.26004 2.2257-0.70495 0.41568 0.51711 0.97987 0.82755 1.5898 0.82755 1.2042 0 2.1693-1.2393 2.2938-2.8198 0.22466 0.04644 0.44705 0.09195 0.68133 0.09195 1.1026 0 2.1231-0.55439 2.907-1.4405 0.52039 0.79453 1.2873 1.2873 2.1348 1.2873 1.5686 0 2.8389-1.7143 2.8389-3.8312s-1.2703-3.8312-2.8389-3.8312c-0.22966 0-0.46746 0.05316-0.68133 0.1226-0.52013-2.5893-2.2773-4.5055-4.3605-4.5055-1.0907 0-2.0813 0.54087-2.8616 1.4099-0.402-1.0717-1.209-1.8096-2.158-1.8096z" style="opacity:.3;color:#000000;fill:url(#linearGradient3331)"/>
 </g>
 <g id="g3150" transform="translate(7.041 -6.9688)">
  <path id="path3777" style="opacity:.05;color:#000000" d="m61.406 46.062c-1.39 0.147-2.574 0.712-3.406 1.344a1.0195 1.0195 0 0 0 -0.031 0.032c-1.766 1.526-2.487 3.577-3.469 5.093a1.0195 1.0195 0 0 0 -0.03125 0.0625c-4.257 7.337-8.4808 14.712-12.75 22.031a1.0195 1.0195 0 0 0 -0.0625 0.09375c-0.8492 1.953-0.86228 4.2155 0.3125 6.125 0.0075 0.01322 0.02369 0.01812 0.03125 0.03125 1.2754 2.2162 3.8014 3.2487 6.2188 3.0625v0.03125c9.555-0.023 19.1-0.041 28.656-0.063a1.0195 1.0195 0 0 0 0.0625 0c2.603-0.182 4.941-1.945 5.718-4.468 0.663-2.038 0.192-4.205-0.968-5.938-0.012-0.02-0.02-0.042-0.032-0.062-4.753-8.175-9.542-16.326-14.281-24.5a1.0195 1.0195 0 0 0 -0.063 -0.094c-1.333-1.857-3.547-2.994-5.906-2.782z"/>
  <path id="path3767" style="opacity:.1;color:#000000" d="m61.512 47.054c-1.1638 0.12298-2.1945 0.62291-2.8948 1.1556-1.5099 1.3058-2.2077 3.249-3.2749 4.8968-4.255 7.3336-8.4831 14.683-12.755 22.007-0.74397 1.711-0.74694 3.6289 0.2533 5.2363 1.0524 1.8622 3.2836 2.7878 5.3841 2.5982 9.5553-0.02315 19.111-0.0487 28.666-0.07035 2.1804-0.15231 4.1684-1.6646 4.8126-3.7557 0.55772-1.7154 0.1329-3.5964-0.90237-5.1117-4.764-8.191-9.543-16.373-14.296-24.571-1.136-1.582-3.024-2.561-4.993-2.384z"/>
  <path id="path3763" style="opacity:.15;color:#000000" d="m61.765 47.993c-0.05105 0.0028-0.2387 0.03021-0.28948 0.03611-0.05079 0.0059-0.23916 0.02706-0.28948 0.03611-0.05032 0.009-0.20364 0.06007-0.2533 0.07222-0.04965 0.01216-0.24068 0.05702-0.28948 0.07223-0.04881 0.01521-0.20554 0.05401-0.2533 0.07222s-0.20676 0.0872-0.2533 0.10834-0.20817 0.12046-0.2533 0.14445c-0.04512 0.02399-0.20975 0.0816-0.2533 0.10834-0.04354 0.02674-0.17532 0.15117-0.21711 0.18056-0.04179 0.0294-0.17723 0.11252-0.21711 0.14445s-0.1793 0.14622-0.21711 0.18056-0.18151 0.18005-0.21711 0.21667c-0.03559 0.03662-0.14768 0.1418-0.18092 0.18056s-0.15016 0.17592-0.18092 0.21667c-0.03077 0.04075-0.11657 0.2102-0.14474 0.25279-0.02817 0.04258-0.11928 0.17243-0.14474 0.21667l-14.51 25.062c-0.02701 0.04648-0.12084 0.20465-0.14474 0.25279s-0.08786 0.2393-0.10856 0.2889c-0.02069 0.0496-0.09116 0.20194-0.10856 0.25279-0.01739 0.05085-0.05835 0.23703-0.07237 0.2889s-0.06179 0.23622-0.07237 0.2889c-0.01054 0.05267-0.06526 0.23564-0.07237 0.2889-0.0071 0.05325 0.0036 0.23529 0 0.2889s-0.03612 0.23517-0.03618 0.2889c-0.000074 0.05372 0.03273 0.23528 0.03618 0.2889 0.0035 0.05362-0.0069 0.23562 0 0.2889 0.0069 0.05327 0.06193 0.23619 0.07237 0.2889 0.01042 0.05271 0.0223 0.23699 0.03619 0.2889 0.01388 0.05191 0.0913 0.23801 0.10856 0.2889 0.01725 0.05089 0.088 0.20313 0.10856 0.25279 0.02055 0.04966 0.08478 0.2407 0.10856 0.2889 0.02377 0.0482 0.11786 0.20624 0.14474 0.25279 0.02689 0.04655 0.11487 0.2081 0.14474 0.25279s0.14818 0.17403 0.18092 0.21668c0.03275 0.04264 0.14545 0.21238 0.18092 0.25279 0.03548 0.04041 0.14287 0.17867 0.18093 0.21667 0.03805 0.03801 0.17665 0.14512 0.21711 0.18056 0.04047 0.03544 0.21059 0.14785 0.2533 0.18056 0.0427 0.03271 0.17235 0.15071 0.21711 0.18056 0.04475 0.02986 0.20668 0.11758 0.2533 0.14445s0.20501 0.12069 0.2533 0.14445c0.04828 0.02376 0.23974 0.08778 0.28948 0.10834 0.04973 0.02056 0.20232 0.09107 0.2533 0.10834 0.05098 0.01726 0.23748 0.09445 0.28948 0.10834s0.23668 0.02565 0.28948 0.03611c0.0528 0.01052 0.2361 0.06523 0.28948 0.07222 0.05338 0.007 0.23576 0.03262 0.28948 0.03611 0.05372 0.0035 0.23565 0.00003 0.28948 0l29.057-0.07223c0.05383 0.00003 0.23576 0.0035 0.28948 0s0.2361-0.02912 0.28948-0.03611c0.05338-0.0071 0.23668-0.06177 0.28948-0.07223 0.0528-0.01052 0.23748-0.02222 0.28948-0.03611s0.2385-0.09107 0.28948-0.10834c0.05098-0.01726 0.20356-0.08778 0.2533-0.10834s0.2412-0.08458 0.28948-0.10834 0.20668-0.11758 0.2533-0.14445 0.20854-0.11459 0.2533-0.14445c0.04475-0.02986 0.17441-0.14785 0.21711-0.18056s0.21283-0.14512 0.2533-0.18056c0.04046-0.03544 0.17906-0.14256 0.21711-0.18056 0.03805-0.03801 0.14545-0.17626 0.18092-0.21668 0.03548-0.04041 0.14818-0.21014 0.18092-0.25279 0.03275-0.04264 0.15104-0.17198 0.18093-0.21667s0.11786-0.20624 0.14474-0.25279c0.02689-0.04655 0.12097-0.20458 0.14474-0.25279 0.02377-0.0482 0.088-0.23924 0.10856-0.2889 0.02055-0.04966 0.0913-0.2019 0.10856-0.25279 0.01725-0.05089 0.09467-0.23699 0.10856-0.2889 0.01388-0.05191 0.02574-0.23619 0.03619-0.2889 0.01042-0.05271 0.06541-0.23562 0.07237-0.2889 0.0069-0.05327-0.0035-0.23528 0-0.2889s0.03625-0.23517 0.03618-0.2889c-0.000074-0.05372-0.03258-0.23529-0.03618-0.2889s0.0071-0.23564 0-0.2889c-0.0071-0.05325-0.06179-0.23622-0.07237-0.2889-0.01054-0.05267-0.05835-0.23703-0.07237-0.2889s-0.05498-0.23806-0.07237-0.2889c-0.01739-0.05085-0.08786-0.20319-0.10856-0.25279-0.02069-0.0496-0.08466-0.24076-0.10856-0.2889s-0.11773-0.20631-0.14474-0.25279l-14.547-24.99c-0.02814-0.04887-0.11331-0.20596-0.14474-0.25279-0.03143-0.04682-0.14634-0.20822-0.18092-0.25279-0.03459-0.04456-0.17954-0.17458-0.21711-0.21667-0.03756-0.04209-0.17674-0.21337-0.21711-0.25279-0.04038-0.03942-0.17412-0.14401-0.21711-0.18056s-0.20789-0.18316-0.2533-0.21667c-0.0454-0.03352-0.20569-0.11413-0.2533-0.14445-0.0476-0.03032-0.20371-0.15357-0.2533-0.18056-0.04958-0.02699-0.23816-0.12092-0.28948-0.14445s-0.20047-0.08838-0.2533-0.10834c-0.05282-0.01996-0.23541-0.09205-0.28948-0.10834-0.05407-0.01628-0.2706-0.05969-0.32566-0.07223s-0.23368-0.02738-0.28948-0.03611c-0.0558-0.0088-0.23321-0.03122-0.28948-0.03611-0.05626-0.0049-0.26919-0.0351-0.32566-0.03611-0.05647-0.001-0.23307-0.0029-0.28948 0z"/>
  <path id="path3757" style="opacity:.3;color:#000000" d="m61.801 49.004a3.4697 3.4628 0 0 0 -2.8224 1.7334l-14.511 25.063a3.4697 3.4628 0 0 0 3.0034 5.2002l29.057-0.07222a3.4697 3.4628 0 0 0 3.0034 -5.2002l-14.546-24.99a3.4697 3.4628 0 0 0 -3.1843 -1.7334z"/>
  <path id="path3746" style="color:#000000;fill:url(#linearGradient3132-0)" d="m61.801 48.004a3.4697 3.4628 0 0 0 -2.8224 1.7334l-14.511 25.063a3.4697 3.4628 0 0 0 3.0034 5.2002l29.057-0.07222a3.4697 3.4628 0 0 0 3.0034 -5.2002l-14.546-24.99a3.4697 3.4628 0 0 0 -3.1843 -1.7334z"/>
  <path id="path3787" style="color:#000000;fill:#fff" d="m61.906 50c-1.152 0.05532-1.4218 1.2789-1.9688 2.0625-4.6014 7.9371-9.1687 15.882-13.781 23.812-0.4613 0.81992 0.13962 2.0623 1.125 2.0938 2.6346 0.07861 5.2945 0.01355 7.9375 0.03125 7.1315-0.02183 14.275-0.03044 21.406-0.0625 1.0177-0.03644 1.7121-1.2001 1.25-2.125-1.8511-3.0767-3.6637-6.2811-5.5-9.4062-3.037-5.237-6.141-10.47-9.155-15.717-0.289-0.435-0.786-0.706-1.313-0.688zm0.0625 2c2.9432 5.1145 5.9584 10.198 8.9062 15.281 1.735 2.9528 3.481 5.9796 5.25 8.9375-6.9616 0.03024-13.939 0.04117-20.906 0.0625-2.4771-0.01658-4.8933 0.02123-7.2812-0.03125 4.4913-7.7254 8.9291-15.464 13.406-23.188 0.02593-0.04474 0.06781-0.08026 0.09375-0.125 0.272-0.41648 0.41573-0.72113 0.53125-0.9375z"/>
  <path id="path3802" style="opacity:.3;color:#000000;fill:#fff" d="m61.812 48a3.4697 3.4628 0 0 0 -2.8438 1.75l-14.5 25.062a3.4697 3.4628 0 0 0 -0.4375 2.2188 3.4697 3.4628 0 0 1 0.4375 -1.2188l14.5-25.062a3.4697 3.4628 0 0 1 2.844 -1.75 3.4697 3.4628 0 0 1 3.188 1.75l14.531 24.969a3.4697 3.4628 0 0 1 0.4375 1.25 3.4697 3.4628 0 0 0 -0.4375 -2.25l-14.531-24.969a3.4697 3.4628 0 0 0 -3.188 -1.75z"/>
  <path id="path3815" style="opacity:.4;color:#000000;fill:#500" d="m79.969 75.969a3.4697 3.4628 0 0 1 -3.4375 2.9688l-29.063 0.062a3.4697 3.4628 0 0 1 -3.438 -2.969 3.4697 3.4628 0 0 0 3.438 3.969l29.062-0.0625a3.4697 3.4628 0 0 0 3.4375 -3.9688z"/>
  <rect id="rect3826" style="color:#000000;fill:#fff" rx="1.9171" ry="2" height="10" width="4" y="59" x="60"/>
  <path id="path3828" style="color:#000000;fill:#fff" d="m64 72a2 2 0 0 1 -4 0 2 2 0 1 1 4 0z"/>
 </g>
</svg>
