<?xml version="1.0" encoding="UTF-8" standalone="no"?>
<!-- Created with Inkscape (http://www.inkscape.org/) -->
<svg id="svg2408" xmlns:rdf="http://www.w3.org/1999/02/22-rdf-syntax-ns#" xmlns="http://www.w3.org/2000/svg" height="96" width="96" version="1.0" xmlns:cc="http://creativecommons.org/ns#" xmlns:xlink="http://www.w3.org/1999/xlink" xmlns:dc="http://purl.org/dc/elements/1.1/">
 <defs id="defs2410">
  <linearGradient id="linearGradient4810">
   <stop id="stop4812" style="stop-color:#fff" offset="0"/>
   <stop id="stop4814" style="stop-color:#fff;stop-opacity:0" offset="1"/>
  </linearGradient>
  <linearGradient id="linearGradient3437" y2="73.401" xlink:href="#linearGradient4810" gradientUnits="userSpaceOnUse" x2="29.3" gradientTransform="matrix(-1 0 0 1 96.25 -27)" y1="52.948" x1="29.3"/>
  <linearGradient id="linearGradient3439" y2="86.111" xlink:href="#linearGradient4810" gradientUnits="userSpaceOnUse" x2="35.838" gradientTransform="translate(-23,-31)" y1="56.924" x1="35.838"/>
  <linearGradient id="linearGradient3441" y2="38.688" xlink:href="#linearGradient4810" gradientUnits="userSpaceOnUse" x2="45.967" gradientTransform="translate(-24.723 -5.7668)" y1="18.874" x1="45.967"/>
  <linearGradient id="linearGradient3443" y2="44.915" xlink:href="#linearGradient4810" gradientUnits="userSpaceOnUse" x2="76.758" gradientTransform="translate(12.348 -14.675)" y1="27.41" x1="76.758"/>
  <linearGradient id="linearGradient3445" y2="33.077" xlink:href="#linearGradient4810" gradientUnits="userSpaceOnUse" x2="45.634" gradientTransform="matrix(-.96032 .27889 .27889 .96032 101.44 15.295)" y1="13.056" x1="39.819"/>
  <linearGradient id="linearGradient3447" y2="76.55" gradientUnits="userSpaceOnUse" x2="75.918" gradientTransform="matrix(-1 0 0 1 148.59 -34)" y1="63.139" x1="75.918">
   <stop id="stop3864-9-8" style="stop-color:#fff" offset="0"/>
   <stop id="stop3866-2-4" style="stop-color:#fff;stop-opacity:0" offset="1"/>
  </linearGradient>
  <linearGradient id="linearGradient3449" y2="38.688" xlink:href="#linearGradient4810" gradientUnits="userSpaceOnUse" x2="45.967" gradientTransform="translate(46.277 18.233)" y1="18.874" x1="45.967"/>
  <radialGradient id="radialGradient3473" xlink:href="#linearGradient4810" gradientUnits="userSpaceOnUse" cy="59" cx="27" gradientTransform="translate(2,-6)" r="3"/>
  <radialGradient id="radialGradient3475" xlink:href="#linearGradient4810" gradientUnits="userSpaceOnUse" cy="59" cx="27" gradientTransform="matrix(1.3333 0 0 1.3333 2 -8.6667)" r="3"/>
  <radialGradient id="radialGradient3477" xlink:href="#linearGradient4810" gradientUnits="userSpaceOnUse" cy="59" cx="27" gradientTransform="matrix(1.3333 0 0 1.3333 40 -8.6667)" r="3"/>
  <radialGradient id="radialGradient3479" xlink:href="#linearGradient4810" gradientUnits="userSpaceOnUse" cy="59" cx="27" gradientTransform="matrix(1.3333 0 0 1.3333 -18 -14.667)" r="3"/>
  <radialGradient id="radialGradient3481" xlink:href="#linearGradient4810" gradientUnits="userSpaceOnUse" cy="59" cx="27" gradientTransform="matrix(1.3333 0 0 1.3333 -8 1.3333)" r="3"/>
  <radialGradient id="radialGradient3483" xlink:href="#linearGradient4810" gradientUnits="userSpaceOnUse" cy="59" cx="27" gradientTransform="translate(29,-3)" r="3"/>
  <radialGradient id="radialGradient3485" xlink:href="#linearGradient4810" gradientUnits="userSpaceOnUse" cy="59" cx="27" gradientTransform="translate(16,26)" r="3"/>
  <radialGradient id="radialGradient3487" xlink:href="#linearGradient4810" gradientUnits="userSpaceOnUse" cy="59" cx="27" gradientTransform="translate(56)" r="3"/>
  <radialGradient id="radialGradient3489" xlink:href="#linearGradient4810" gradientUnits="userSpaceOnUse" cy="59" cx="27" gradientTransform="matrix(1.3333 0 0 1.3333 27 -14.667)" r="3"/>
  <radialGradient id="radialGradient3491" xlink:href="#linearGradient4810" gradientUnits="userSpaceOnUse" cy="59" cx="27" gradientTransform="matrix(1.3333 0 0 1.3333 24 .33333)" r="3"/>
  <radialGradient id="radialGradient3493" xlink:href="#linearGradient4810" gradientUnits="userSpaceOnUse" cy="59" cx="27" gradientTransform="translate(19,5)" r="3"/>
  <radialGradient id="radialGradient3495" xlink:href="#linearGradient4810" gradientUnits="userSpaceOnUse" cy="59" cx="27" gradientTransform="translate(-14,18)" r="3"/>
  <radialGradient id="radialGradient3497" xlink:href="#linearGradient4810" gradientUnits="userSpaceOnUse" cy="59" cx="27" gradientTransform="translate(53,21)" r="3"/>
 </defs>
 <metadata id="metadata2413">
  <rdf:RDF>
   <cc:Work rdf:about="">
    <dc:format>image/svg+xml</dc:format>
    <dc:type rdf:resource="http://purl.org/dc/dcmitype/StillImage"/>
    <dc:title/>
   </cc:Work>
  </rdf:RDF>
 </metadata>
 <g id="g3499">
  <g id="g3323" transform="matrix(-1,0,0,1,96,-4)">
   <path id="path5193" style="color:#000000;fill:url(#radialGradient3473)" d="m32 53a3 3 0 0 1 -6 0 3 3 0 1 1 6 0z"/>
   <path id="path5203" style="color:#000000;fill:url(#radialGradient3475)" d="m42 70a4 4 0 0 1 -8 0 4 4 0 1 1 8 0z"/>
   <path id="path5211" style="color:#000000;fill:url(#radialGradient3477)" d="m80 70a4 4 0 0 1 -8 0 4 4 0 1 1 8 0z"/>
   <path id="path5215" style="color:#000000;fill:url(#radialGradient3479)" d="m22 64a4 4 0 0 1 -8 0 4 4 0 1 1 8 0z"/>
   <path id="path5219" style="color:#000000;fill:url(#radialGradient3481)" d="m32 80a4 4 0 0 1 -8 0 4 4 0 1 1 8 0z"/>
   <path id="path5223" style="color:#000000;fill:url(#radialGradient3483)" d="m59 56a3 3 0 0 1 -6 0 3 3 0 1 1 6 0z"/>
   <path id="path5227" style="color:#000000;fill:url(#radialGradient3485)" d="m46 85a3 3 0 0 1 -6 0 3 3 0 1 1 6 0z"/>
   <path id="path5231" style="color:#000000;fill:url(#radialGradient3487)" d="m86 59a3 3 0 0 1 -6 0 3 3 0 1 1 6 0z"/>
   <path id="path5235" style="color:#000000;fill:url(#radialGradient3489)" d="m67 64a4 4 0 0 1 -8 0 4 4 0 1 1 8 0z"/>
   <path id="path5237" style="color:#000000;fill:url(#radialGradient3491)" d="m64 79a4 4 0 0 1 -8 0 4 4 0 1 1 8 0z"/>
   <path id="path5243" style="color:#000000;fill:url(#radialGradient3493)" d="m49 64a3 3 0 0 1 -6 0 3 3 0 1 1 6 0z"/>
   <path id="path5247" style="color:#000000;fill:url(#radialGradient3495)" d="m16 77a3 3 0 0 1 -6 0 3 3 0 1 1 6 0z"/>
   <path id="path5251" style="color:#000000;fill:url(#radialGradient3497)" d="m83 80a3 3 0 0 1 -6 0 3 3 0 1 1 6 0z"/>
  </g>
  <g id="g3338" transform="matrix(.69473 0 0 .69473 10.377 3.61)">
   <path id="path3646" style="opacity:.5;color:#000000;fill:url(#linearGradient3437)" d="m68.812 20.156c2.1969 0 4 1.7719 4 3.9688 0 0.74779-0.2349 1.4337-0.59375 2.0312 0.39647 0.46247 0.79097 0.9255 1.125 1.4375 0.68153-0.13582 1.4015-0.1875 2.125-0.1875 2.3423 0 4.4861 0.73926 6.2188 2 1.1746-2.4369 3.5287-4.0938 6.25-4.0938 3.8928 0 7.0625 3.3927 7.0625 7.5938 0 1.9117-0.67101 3.6637-1.75 5 1.4288 1.6503 2.3125 3.7998 2.3125 6.125 0 5.2417-4.3854 9.4688-9.7812 9.4688-1.8794 0-3.6351-0.51283-5.125-1.4062-1.1591 1.3147-2.6697 2.3513-4.375 2.9062-2.5789 2.6941-6.226 4.375-10.25 4.375-4.2967 0-8.152-1.917-10.75-4.9375-1.905-0.36612-3.6277-1.2715-5.0312-2.5-0.15556 0.01128-0.31031 0.03125-0.46875 0.03125-2.1099 0-3.9859-1.0224-5.1562-2.5938-0.34661 0.04367-0.70314 0.09375-1.0625 0.09375-4.3553 0-7.875-3.3208-7.875-7.4062 0-4.0855 3.5197-7.4062 7.875-7.4062 0.08406 0 0.16657 0.0288 0.25 0.03125 0.13822-2.2711 2.0844-4.0625 4.5-4.0625 0.05453 0 0.10219 0.02943 0.15625 0.03125 1.8914-5.4662 7.0468-9.375 13.156-9.375 1.3663 0 2.6895 0.19651 3.9375 0.5625 0.71942-1.026 1.9018-1.6875 3.25-1.6875z"/>
   <path id="path3739" style="opacity:.5;color:#000000;fill:url(#linearGradient3439)" d="m7.5 22.312c-0.95045 0-1.8285 0.30559-2.5312 0.8125-0.58004-0.08942-1.1762-0.15625-1.7812-0.15625-2.6437 0-5.0504 0.91554-7 2.4062-0.2252-0.03559-0.45167-0.0625-0.6875-0.0625-2.3125 0-4.1875 1.7719-4.1875 3.9688 0 0.82384 0.26727 1.5839 0.71875 2.2188-0.268 0.97769-0.40625 1.9997-0.40625 3.0625 0 1.0735 0.13301 2.1073 0.40625 3.0938-0.61992-0.27902-1.3073-0.4375-2.0312-0.4375-2.7365 0-4.9375 2.201-4.9375 4.9375s2.201 4.9688 4.9375 4.9688c0.36612 0 0.719-0.04965 1.0625-0.125-0.000643 0.04129 0 0.08355 0 0.125 0 4.3167 3.4958 7.8125 7.8125 7.8125 2.786 0 5.2097-1.4621 6.5938-3.6562 2.0411 1.841 4.7536 2.9688 7.7188 2.9688 4.015 0 7.533-2.072 9.5938-5.1875 1.2942 0.97115 2.8824 1.5625 4.625 1.5625 2.725 0 5.1192-1.4353 6.5-3.5625 0.69317 0.55616 1.5421 0.90625 2.5 0.90625 1.3093 0 2.4789-0.6295 3.2188-1.5938 0.32267 0.20323 0.71549 0.34375 1.125 0.34375 1.1563 0 2.0938-0.93749 2.0938-2.0938s-0.93749-2.0938-2.0938-2.0938c-0.18067 0-0.36401 0.01947-0.53125 0.0625-0.508-1.456-1.82-2.527-3.407-2.688-0.086-1.348-1.192-2.406-2.562-2.406-0.3812 0-0.73681 0.07047-1.0625 0.21875-1.4183-1.5835-3.4881-2.5938-5.7812-2.5938-1.0245 0-1.9799 0.20126-2.875 0.5625-0.22426-2.3734-2.2241-4.25-4.6562-4.25-0.28018 0-0.54588 0.04651-0.8125 0.09375 0.03207-0.21766 0.0625-0.42967 0.0625-0.65625 0-2.5052-2.0573-4.5312-4.5625-4.5312-0.93946 0-1.8073 0.2609-2.5312 0.75-0.12466-0.14758-0.24323-0.29637-0.375-0.4375 0.01212-0.12327 0.03125-0.24872 0.03125-0.375 0-2.1969-1.875-3.9688-4.1875-3.9688z"/>
   <path id="path3772" style="opacity:.5;color:#000000;fill:url(#linearGradient3441)" d="m25.09 12.889c-1.7951 0-3.2871 1.3348-3.5312 3.0625-0.99024 0.39781-1.8962 0.90849-2.7188 1.5625-0.48316-0.50848-1.1494-0.84375-1.9062-0.84375-1.4646 0-2.6562 1.1917-2.6562 2.6562 0 0.01073-0.000127 0.02055 0 0.03125-1.0357 0.06809-2.0271 0.26679-2.9688 0.59375-0.55027-0.63705-1.3734-1.0312-2.2812-1.0312-1.6368 0-2.9673 1.3085-3 2.9375-0.04347-0.0022-0.08097-0.03125-0.125-0.03125-1.2037 0-2.2233 0.86986-2.4688 2-2.4536 0.16605-4.5626 1.5198-5.7812 3.5-0.4926-0.20835-1.0253-0.3125-1.5938-0.3125-2.274 0-4.125 1.851-4.125 4.125s1.851 4.0938 4.125 4.0938c0.53425 0 1.0316-0.09607 1.5-0.28125 1.2861 2.1833 3.6578 3.625 6.375 3.625 0.87777 0 1.7188-0.15691 2.5-0.4375 2.0858 2.4103 5.156 3.9375 8.5938 3.9375 3.5742 0 6.7584-1.6406 8.8438-4.2188 1.2151 1.3833 2.9829 2.2812 4.9688 2.2812 1.5447 0 2.9666-0.55175 4.0938-1.4375 1.0575 0.54918 2.2573 0.875 3.5312 0.875 1.5489 0 2.9813-0.46094 4.1875-1.25 0.49805 0.25713 1.0571 0.40625 1.6562 0.40625 1.7433 0 3.213-1.236 3.5625-2.875 0.23611 1.5401 1.5501 2.7188 3.1562 2.7188 1.7729 0 3.2188-1.4146 3.2188-3.1875 0-1.6151-1.1974-2.9623-2.75-3.1875 0.04583-0.25866 0.09375-0.54069 0.09375-0.8125 0-2.5052-2.026-4.5312-4.5312-4.5312-0.84007 0-1.6378 0.25822-2.3125 0.65625-0.22397-0.31986-0.4498-0.65593-0.71875-0.9375 0.10594-0.25048 0.15625-0.52343 0.15625-0.8125 0-1.1563-0.93749-2.0938-2.0938-2.0938-0.09318 0-0.19129 0.01945-0.28125 0.03125-0.01718-1.7967-1.4805-3.25-3.2812-3.25-0.47744 0-0.93457 0.09784-1.3438 0.28125-1.4251-2.523-3.8275-4.4148-6.6875-5.1875-0.40134-1.5259-1.7544-2.6562-3.4062-2.6562z"/>
   <path id="path3671" style="opacity:.4;color:#000000;fill:url(#linearGradient3443)" d="m82.629 8.7626c-3.0264 0.30734-5.375 2.8925-5.375 6 0 0.50225 0.07128 0.97124 0.1875 1.4375-1.3556-0.82923-2.9508-1.3125-4.6562-1.3125-0.69713 0-1.3801 0.09893-2.0312 0.25-0.47506-1.3625-1.7568-2.3438-3.2812-2.3438-1.9271 0-3.4688 1.5729-3.4688 3.5 0 0.92305 0.35225 1.751 0.9375 2.375-0.19649-0.02238-0.39127 0-0.59375 0-2.8907 0-5.25 2.3281-5.25 5.2188s2.3593 5.25 5.25 5.25c0.40398 0 0.77855-0.06962 1.1562-0.15625 1.0117 1.427 2.4356 2.5193 4.0938 3.1562-0.0042 0.11543-0.03125 0.2273-0.03125 0.34375 0 5.2417 4.2583 9.4688 9.5 9.4688 1.5304 0 2.9698-0.3566 4.25-1 2.6246 1.7834 5.8064 2.8438 9.2188 2.8438 6.8387 0 12.693-4.2051 15.156-10.156 4.7852-0.59661 8.5-4.647 8.5-9.5938 0-5.3573-4.3302-9.7188-9.6875-9.7188-1.1595 0-2.2818 0.22061-3.3125 0.59375-0.85422-0.73119-1.7894-1.3932-2.7812-1.9375 0.0827-0.23333 0.15625-0.48833 0.15625-0.75 0-1.2333-1.0166-2.2188-2.25-2.2188-0.94828 0-1.7699 0.57244-2.0938 1.4062-1.0568-0.24278-2.1573-0.40621-3.2812-0.4375-0.31043-1.2856-1.4628-2.2187-2.8438-2.2187-1.1744 0-2.1886 0.6901-2.6562 1.6875-1.0788-1.0542-2.5545-1.6875-4.1875-1.6875-0.20716 0-0.42324-0.02049-0.625 0z"/>
   <path id="path3870" style="opacity:.4;color:#000000;fill:url(#linearGradient3445)" d="m53.176 37.577c1.3695-0.39771 2.8078 0.36799 3.2055 1.7375 0.26277 0.90483 0.01648 1.8361-0.58162 2.4793 0.58655 0.47866 1.0897 1.0561 1.5055 1.7105 0.67528-0.47186 1.3964-0.88205 2.1926-1.19-0.06956-0.13999-0.14562-0.27731-0.19075-0.43272-0.40846-1.4065 0.40358-2.8832 1.8101-3.2917 1.0305-0.29927 2.09 0.06539 2.7465 0.82944 0.71646-1.3394 1.9296-2.4116 3.4859-2.8997-0.36546-1.2584 0.35998-2.5777 1.6184-2.9431 1.1849-0.34412 2.4063 0.29254 2.8521 1.4171 0.32427-0.23589 0.70211-0.43169 1.1094-0.54996 1.8877-0.54819 3.8665 0.53996 4.4147 2.4276 0.01796 0.06184 0.0078 0.1268 0.02228 0.18878 0.5619-0.24483 1.1335-0.45935 1.7357-0.63424 1.6025-0.46537 3.1983-0.63221 4.7794-0.57446 0.79208-1.3548 2.0873-2.4285 3.7134-2.9007 3.3682-0.97815 6.8831 0.9547 7.8612 4.3229 0.14672 0.50522 0.22646 1.0197 0.24699 1.5228 2.1491-0.3304 4.2499 0.9638 4.8726 3.1082 0.12227 0.42102 0.17183 0.83567 0.16855 1.2527 0.2622 0.12185 0.51679 0.24917 0.76579 0.39589 0.63234-0.96454 1.5939-1.732 2.8112-2.0855 2.6279-0.76317 5.3354 0.66766 6.0663 3.1845 0.73092 2.5169-0.78897 5.1754-3.4169 5.9385-0.39479 0.11465-0.79196 0.1614-1.184 0.18113 0.12908 3.8894-2.3625 7.5197-6.2725 8.6552-1.2289 0.3569-2.4795 0.42203-3.669 0.252-1.92 2.7901-4.7482 4.9584-8.2544 5.9767-4.7374 1.3758-9.6028 0.33061-13.287-2.3892-0.58501 0.61766-1.3331 1.103-2.2091 1.3574-2.331 0.67695-4.7547-0.41753-5.8058-2.5117-0.02951 0.0088-0.06039 0.01754-0.09003 0.02614-3.47 1.0077-7.0196 0.12201-9.6027-2.0274-0.85466 1.6019-2.3363 2.8588-4.2177 3.4051-3.3969 0.98648-6.954-0.7078-8.3443-3.8572-0.39834 0.22718-0.80841 0.43002-1.2682 0.56353-3.1461 0.91365-6.4442-0.89994-7.3578-4.046-0.91365-3.1461 0.89994-6.4442 4.046-7.3578 0.32887-0.09551 0.65822-0.15163 0.98647-0.18886 0.33617-0.60813 0.87158-1.0666 1.5527-1.2644 0.70433-0.20454 1.4424-0.08217 2.0659 0.27864-0.12887-3.2244 1.9287-6.2548 5.1671-7.1953 0.70473-0.20466 1.4091-0.26407 2.1065-0.25381-0.06387-1.1722 0.66728-2.2764 1.843-2.6179z"/>
   <path id="path4236" style="opacity:.3;color:#000000;fill:url(#linearGradient3447)" d="m70.656 28.656c3.5005 0 6.464 2.1862 7.625 5.2812 2.9227 0.05208 5.2812 2.4399 5.2812 5.375 0 2.9677-2.4073 5.375-5.375 5.375-1.1753 0-2.2405-0.3911-3.125-1.0312-1.2736 0.82112-2.7782 1.3125-4.4062 1.3125-0.41217 0-0.82299-0.03481-1.2188-0.09375-0.4608 0.55836-1.157 0.9375-1.9375 0.9375-1.11 0-2.0426-0.72039-2.375-1.7188-0.573 0.1721-1.1834 0.28125-1.8125 0.28125-3.4688 0-6.2812-2.8125-6.2812-6.2812 0-2.9051 1.9776-5.3448 4.6562-6.0625-0.02473-0.15323-0.0625-0.30854-0.0625-0.46875 0-1.6188 1.3187-2.9062 2.9375-2.9062 0.86619 0 1.6509 0.37137 2.1875 0.96875 1.1569-0.62848 2.4971-0.96875 3.9062-0.96875z"/>
   <path id="path4240" style="opacity:.5;color:#000000;fill:url(#linearGradient3449)" d="m96.09 36.889c-1.7951 0-3.2871 1.3348-3.5312 3.0625-0.99024 0.39781-1.8962 0.90849-2.7188 1.5625-0.48316-0.50848-1.1494-0.84375-1.9062-0.84375-1.4646 0-2.6562 1.1917-2.6562 2.6562 0 0.01073-0.00013 0.02055 0 0.03125-1.0357 0.06809-2.0271 0.26679-2.9688 0.59375-0.55027-0.63705-1.3734-1.0312-2.2812-1.0312-1.6368 0-2.9673 1.3085-3 2.9375-0.04347-0.0022-0.08097-0.03125-0.125-0.03125-1.2037 0-2.2233 0.86986-2.4688 2-2.4536 0.16605-4.5626 1.5198-5.7812 3.5-0.4926-0.20835-1.0253-0.3125-1.5938-0.3125-2.274 0-4.125 1.851-4.125 4.125s1.851 4.0938 4.125 4.0938c0.53425 0 1.0316-0.09607 1.5-0.28125 1.2861 2.1833 3.6578 3.625 6.375 3.625 0.87777 0 1.7188-0.15691 2.5-0.4375 2.0858 2.4103 5.156 3.9375 8.5938 3.9375 3.5742 0 6.7584-1.6406 8.8438-4.2188 1.215 1.3833 2.9829 2.2812 4.9688 2.2812 1.5447 0 2.9666-0.55175 4.0938-1.4375 1.0575 0.54918 2.2573 0.875 3.5312 0.875 1.5489 0 2.9813-0.46094 4.1875-1.25 0.49805 0.25713 1.0571 0.40625 1.6562 0.40625 1.7433 0 3.213-1.236 3.5625-2.875 0.23611 1.5401 1.5501 2.7188 3.1562 2.7188 1.7729 0 3.2188-1.4146 3.2188-3.1875 0-1.6151-1.1974-2.9623-2.75-3.1875 0.0458-0.25866 0.0937-0.54069 0.0937-0.8125 0-2.5052-2.026-4.5312-4.5312-4.5312-0.84008 0-1.6378 0.25822-2.3125 0.65625-0.22398-0.31986-0.44981-0.65593-0.71875-0.9375 0.10594-0.25048 0.15625-0.52343 0.15625-0.8125 0-1.1563-0.93749-2.0938-2.0938-2.0938-0.0932 0-0.1913 0.01945-0.28125 0.03125-0.0172-1.7967-1.4805-3.25-3.2812-3.25-0.47744 0-0.93457 0.09784-1.3438 0.28125-1.4251-2.523-3.8275-4.4148-6.6875-5.1875-0.40134-1.5259-1.7544-2.6562-3.4062-2.6562z"/>
  </g>
 </g>
</svg>
