<?xml version="1.0" encoding="UTF-8" standalone="no"?>
<!-- Created with Inkscape (http://www.inkscape.org/) -->

<svg
   xmlns:dc="http://purl.org/dc/elements/1.1/"
   xmlns:cc="http://creativecommons.org/ns#"
   xmlns:rdf="http://www.w3.org/1999/02/22-rdf-syntax-ns#"
   xmlns:svg="http://www.w3.org/2000/svg"
   xmlns="http://www.w3.org/2000/svg"
   xmlns:xlink="http://www.w3.org/1999/xlink"
   xmlns:sodipodi="http://sodipodi.sourceforge.net/DTD/sodipodi-0.dtd"
   xmlns:inkscape="http://www.inkscape.org/namespaces/inkscape"
   version="1.0"
   width="24"
   height="24"
   id="svg2"
   style="display:inline"
   inkscape:version="0.48.3.1 r9886"
   sodipodi:docname="battery-040.svg">
  <sodipodi:namedview
     pagecolor="#ffffff"
     bordercolor="#666666"
     borderopacity="1"
     objecttolerance="10"
     gridtolerance="10"
     guidetolerance="10"
     inkscape:pageopacity="0"
     inkscape:pageshadow="2"
     inkscape:window-width="1366"
     inkscape:window-height="691"
     id="namedview22"
     showgrid="false"
     inkscape:zoom="5.875"
     inkscape:cx="-3.7446808"
     inkscape:cy="48"
     inkscape:window-x="0"
     inkscape:window-y="24"
     inkscape:window-maximized="1"
     inkscape:current-layer="svg2" />
  <defs
     id="defs4">
    <linearGradient
       id="linearGradient4081">
      <stop
         id="stop4083"
         style="stop-color:#aaaaaa;stop-opacity:1"
         offset="0" />
      <stop
         id="stop4085"
         style="stop-color:#f0f0f0;stop-opacity:1"
         offset="1" />
    </linearGradient>
    <linearGradient
       id="linearGradient3295-9">
      <stop
         id="stop3297-2"
         style="stop-color:#559829;stop-opacity:1"
         offset="0" />
      <stop
         id="stop3299-0"
         style="stop-color:#86c837;stop-opacity:1"
         offset="1" />
    </linearGradient>
    <linearGradient
       x1="39"
       y1="72"
       x2="39.196381"
       y2="24.266857"
       id="linearGradient3763"
       xlink:href="#linearGradient4081"
       gradientUnits="userSpaceOnUse" />
    <linearGradient
       x1="39"
       y1="68"
       x2="39"
       y2="28"
       id="linearGradient3807"
       xlink:href="#linearGradient3295-9"
       gradientUnits="userSpaceOnUse" />
    <linearGradient
       id="linearGradient3959">
      <stop
         offset="0"
         style="stop-color:#a6d200;stop-opacity:1"
         id="stop3961" />
      <stop
         offset="1"
         style="stop-color:#e1ff00;stop-opacity:1"
         id="stop3963" />
    </linearGradient>
    <linearGradient
       gradientTransform="matrix(0.6,0,0,0.9,6,-69.2)"
       gradientUnits="userSpaceOnUse"
       xlink:href="#linearGradient3959"
       id="linearGradient3807-9"
       y2="28"
       x2="39"
       y1="68"
       x1="39" />
    <linearGradient
       gradientUnits="userSpaceOnUse"
       xlink:href="#linearGradient4081-6"
       id="linearGradient3763-0"
       y2="24.266857"
       x2="39.196381"
       y1="72"
       x1="39" />
    <linearGradient
       id="linearGradient4081-6">
      <stop
         offset="0"
         style="stop-color:#aaaaaa;stop-opacity:1"
         id="stop4083-7" />
      <stop
         offset="1"
         style="stop-color:#f0f0f0;stop-opacity:1"
         id="stop4085-2" />
    </linearGradient>
    <linearGradient
       y2="24.266857"
       x2="39.196381"
       y1="72"
       x1="39"
       gradientUnits="userSpaceOnUse"
       id="linearGradient3789"
       xlink:href="#linearGradient4081-3"
       inkscape:collect="always" />
    <linearGradient
       y2="24.266857"
       x2="39.196381"
       y1="72"
       x1="39"
       gradientUnits="userSpaceOnUse"
       id="linearGradient3002"
       xlink:href="#linearGradient4081-3"
       inkscape:collect="always" />
    <linearGradient
       id="linearGradient3279">
      <stop
         offset="0"
         style="stop-color:#f08e00;stop-opacity:1"
         id="stop3281" />
      <stop
         offset="1"
         style="stop-color:#ffd200;stop-opacity:1"
         id="stop3283" />
    </linearGradient>
    <linearGradient
       gradientTransform="matrix(0.4,0,0,0.9,8,-69.2)"
       gradientUnits="userSpaceOnUse"
       xlink:href="#linearGradient3279"
       id="linearGradient3807-7"
       y2="28"
       x2="39"
       y1="68"
       x1="39" />
    <linearGradient
       gradientUnits="userSpaceOnUse"
       xlink:href="#linearGradient4081-3"
       id="linearGradient3763-03"
       y2="24.266857"
       x2="39.196381"
       y1="72"
       x1="39" />
    <linearGradient
       id="linearGradient4081-3">
      <stop
         offset="0"
         style="stop-color:#aaaaaa;stop-opacity:1"
         id="stop4083-3" />
      <stop
         offset="1"
         style="stop-color:#f0f0f0;stop-opacity:1"
         id="stop4085-3" />
    </linearGradient>
    <linearGradient
       inkscape:collect="always"
       xlink:href="#linearGradient4081-3"
       id="linearGradient4105"
       gradientUnits="userSpaceOnUse"
       x1="39"
       y1="72"
       x2="39.196381"
       y2="24.266857"
       gradientTransform="translate(-4.0851064,-4.5744681)" />
  </defs>
  <metadata
     id="metadata7">
    <rdf:RDF>
      <cc:Work
         rdf:about="">
        <dc:format>image/svg+xml</dc:format>
        <dc:type
           rdf:resource="http://purl.org/dc/dcmitype/StillImage" />
        <dc:title />
      </cc:Work>
    </rdf:RDF>
  </metadata>
  <g
     id="g4112"
     transform="matrix(0.24965996,0,0,0.24965996,1.0362094,0.90872346)">
    <rect
       width="28"
       height="36"
       x="7.9148936"
       y="25.425531"
       id="rect3799"
       style="opacity:0.9;fill:#ffffff;fill-opacity:1;stroke:none" />
    <path
       d="m 7.9148936,17.394282 c -4.9542317,0 -9.03125,4.077018 -9.03125,9.03125 l 0,36 c 0,4.954232 4.0770182,9.03125 9.03125,9.03125 l 66.0000004,0 c 4.954232,0 9.03125,-4.077018 9.03125,-9.03125 l 0,-6.96875 0.96875,0 c 2.75259,0 5.03125,-2.27866 5.03125,-5.03125 l 0,-12 c 0,-2.75259 -2.27866,-5.03125 -5.03125,-5.03125 l -0.96875,0 0,-6.96875 c 0,-4.954232 -4.077018,-9.03125 -9.03125,-9.03125 l -66.0000004,0 z m 4.0000004,12.0625 58,0 c 0.690105,0 0.96875,0.278645 0.96875,0.96875 l 0,28 c 0,0.690106 -0.278643,0.96875 -0.96875,0.96875 l -58,0 c -0.690107,0 -0.96875,-0.278644 -0.96875,-0.96875 l 0,-28 c 0,-0.690105 0.278645,-0.96875 0.96875,-0.96875 z"
       id="path3797"
       style="opacity:0.07999998;fill:#000000;fill-opacity:1;stroke:none"
       inkscape:connector-curvature="0" />
    <path
       d="m 7.9148936,18.456782 c -4.3780676,0 -7.96875,3.590682 -7.96875,7.96875 l 0,36 c 0,4.378068 3.5906824,7.96875 7.96875,7.96875 l 66.0000004,0 c 4.378068,0 7.96875,-3.590682 7.96875,-7.96875 l 0,-8.03125 2.03125,0 c 2.170657,0 3.96875,-1.798093 3.96875,-3.96875 l 0,-12 c 0,-2.170657 -1.798093,-3.96875 -3.96875,-3.96875 l -2.03125,0 0,-8.03125 c 0,-4.378068 -3.590682,-7.96875 -7.96875,-7.96875 l -66.0000004,0 z m 4.0000004,9.9375 58,0 c 1.188373,0 2.03125,0.842877 2.03125,2.03125 l 0,28 c 0,1.188374 -0.842876,2.03125 -2.03125,2.03125 l -58,0 c -1.188374,0 -2.0312504,-0.842876 -2.0312504,-2.03125 l 0,-28 c 0,-1.188373 0.8428774,-2.03125 2.0312504,-2.03125 z"
       id="path3793"
       style="opacity:0.1;fill:#000000;fill-opacity:1;stroke:none"
       inkscape:connector-curvature="0" />
    <path
       d="m 7.9148936,19.394282 c -3.8714401,0 -7.03125,3.15981 -7.03125,7.03125 l 0,36 c 0,3.87144 3.1598099,7.03125 7.03125,7.03125 l 66.0000004,0 c 3.87144,0 7.03125,-3.15981 7.03125,-7.03125 l 0,-8.96875 2.96875,0 c 1.653332,0 3.03125,-1.377918 3.03125,-3.03125 l 0,-12 c 0,-1.653332 -1.377918,-3.03125 -3.03125,-3.03125 l -2.96875,0 0,-8.96875 c 0,-3.87144 -3.15981,-7.03125 -7.03125,-7.03125 l -66.0000004,0 z m 4.0000004,8.0625 58,0 c 1.670668,0 2.96875,1.298082 2.96875,2.96875 l 0,28 c 0,1.670668 -1.298082,2.96875 -2.96875,2.96875 l -58,0 c -1.670668,0 -2.9687504,-1.298082 -2.9687504,-2.96875 l 0,-28 c 0,-1.670668 1.2980824,-2.96875 2.9687504,-2.96875 z"
       id="path3789"
       style="opacity:0.15;fill:#000000;fill-opacity:1;stroke:none"
       inkscape:connector-curvature="0" />
    <path
       d="m 7.9148936,20.425532 c -3.327333,0 -6,2.672667 -6,6 l 0,36 c 0,3.327333 2.672667,6 6,6 l 66.0000004,0 c 3.327333,0 6,-2.672667 6,-6 l 0,-10 4,0 c 1.108,0 2,-0.892 2,-2 l 0,-12 c 0,-1.108 -0.892,-2 -2,-2 l -4,0 0,-10 c 0,-3.327333 -2.672667,-6 -6,-6 l -66.0000004,0 z m 4.0000004,6 58,0 c 2.216,0 4,1.784 4,4 l 0,28 c 0,2.216 -1.784,4 -4,4 l -58,0 c -2.2160004,0 -4.0000004,-1.784 -4.0000004,-4 l 0,-28 c 0,-2.216 1.784,-4 4.0000004,-4 z"
       inkscape:connector-curvature="0"
       id="path3783"
       style="opacity:0.3;fill:#000000;fill-opacity:1;stroke:none" />
    <path
       d="m 7.9148936,19.425532 c -3.327333,0 -6,2.672667 -6,6 l 0,36 c 0,3.327333 2.672667,6 6,6 l 66.0000004,0 c 3.327333,0 6,-2.672667 6,-6 l 0,-10 4,0 c 1.108,0 2,-0.892 2,-2 l 0,-12 c 0,-1.108 -0.892,-2 -2,-2 l -4,0 0,-10 c 0,-3.327333 -2.672667,-6 -6,-6 l -66.0000004,0 z m 4.0000004,6 58,0 c 2.216,0 4,1.784 4,4 l 0,28 c 0,2.216 -1.784,4 -4,4 l -58,0 c -2.2160004,0 -4.0000004,-1.784 -4.0000004,-4 l 0,-28 c 0,-2.216 1.784,-4 4.0000004,-4 z"
       inkscape:connector-curvature="0"
       id="rect2975"
       style="fill:url(#linearGradient4105);fill-opacity:1;stroke:none" />
    <path
       d="m 7.9148936,19.425532 c -3.327333,0 -6,2.672667 -6,6 l 0,1 c 0,-3.327333 2.672667,-6 6,-6 l 66.0000004,0 c 3.327333,0 6,2.672667 6,6 l 0,-1 c 0,-3.327333 -2.672667,-6 -6,-6 l -66.0000004,0 z m 72.0000004,16 0,1 4,0 c 1.108,0 2,0.892 2,2 l 0,-1 c 0,-1.108 -0.892,-2 -2,-2 l -4,0 z m -72.0000004,22 0,1 c 0,2.216 1.784,4 4.0000004,4 l 58,0 c 2.216,0 4,-1.784 4,-4 l 0,-1 c 0,2.216 -1.784,4 -4,4 l -58,0 c -2.2160004,0 -4.0000004,-1.784 -4.0000004,-4 z"
       inkscape:connector-curvature="0"
       id="path3765"
       style="opacity:0.75;fill:#ffffff;fill-opacity:1;stroke:none" />
    <path
       d="m 11.914894,24.425532 c -2.2160004,0 -4.0000004,1.784 -4.0000004,4 l 0,1 c 0,-2.216 1.784,-4 4.0000004,-4 l 58,0 c 2.216,0 4,1.784 4,4 l 0,-1 c 0,-2.216 -1.784,-4 -4,-4 l -58,0 z m 74,24 c 0,1.108 -0.892,2 -2,2 l -4,0 0,1 4,0 c 1.108,0 2,-0.892 2,-2 l 0,-1 z m -84.0000004,12 0,1 c 0,3.327333 2.672667,6 6,6 l 66.0000004,0 c 3.327333,0 6,-2.672667 6,-6 l 0,-1 c 0,3.327333 -2.672667,6 -6,6 l -66.0000004,0 c -3.327333,0 -6,-2.672667 -6,-6 z"
       inkscape:connector-curvature="0"
       id="path3774"
       style="opacity:0.15;fill:#000000;fill-opacity:1;stroke:none" />
  </g>
</svg>
