<?xml version="1.0" encoding="UTF-8" standalone="no"?>
<!-- Created with Inkscape (http://www.inkscape.org/) -->
<svg id="svg2408" xmlns:rdf="http://www.w3.org/1999/02/22-rdf-syntax-ns#" xmlns="http://www.w3.org/2000/svg" height="96" width="96" version="1.0" xmlns:cc="http://creativecommons.org/ns#" xmlns:xlink="http://www.w3.org/1999/xlink" xmlns:dc="http://purl.org/dc/elements/1.1/">
 <defs id="defs2410">
  <linearGradient id="ButtonShadow" y2="7.0165" gradientUnits="userSpaceOnUse" x2="45.448" gradientTransform="scale(1.0059 .99417)" y1="92.54" x1="45.448">
   <stop id="stop3750" offset="0"/>
   <stop id="stop3752" style="stop-opacity:.58824" offset="1"/>
  </linearGradient>
  <linearGradient id="linearGradient3737">
   <stop id="stop3739" style="stop-color:#fff" offset="0"/>
   <stop id="stop3741" style="stop-color:#fff;stop-opacity:0" offset="1"/>
  </linearGradient>
  <filter id="filter3174" color-interpolation-filters="sRGB">
   <feGaussianBlur id="feGaussianBlur3176" stdDeviation="1.71"/>
  </filter>
  <linearGradient id="linearGradient3188" y2="63.893" xlink:href="#linearGradient3737" gradientUnits="userSpaceOnUse" x2="36.357" y1="6" x1="36.357"/>
  <filter id="filter3794" height="1.384" width="1.384" color-interpolation-filters="sRGB" y="-.192" x="-.192">
   <feGaussianBlur id="feGaussianBlur3796" stdDeviation="5.28"/>
  </filter>
  <linearGradient id="linearGradient3613" y2="138.66" xlink:href="#linearGradient3737" gradientUnits="userSpaceOnUse" x2="48" y1="20.221" x1="48"/>
  <radialGradient id="radialGradient3619" xlink:href="#linearGradient3737" gradientUnits="userSpaceOnUse" cy="90.172" cx="48" gradientTransform="matrix(1.1573 0 0 .99591 -7.551 .19713)" r="42"/>
  <clipPath id="clipPath3613">
   <rect id="rect3615" style="fill:#fff" rx="6" ry="6" height="84" width="84" y="6" x="6"/>
  </clipPath>
  <clipPath id="clipPath3625">
   <path id="path3627" style="fill:#fff" d="m0 0v96h96v-96h-96zm12 6h72c3.324 0 6 2.676 6 6v72c0 3.324-2.676 6-6 6h-72c-3.324 0-6-2.676-6-6v-72c0-3.324 2.676-6 6-6z"/>
  </clipPath>
  <linearGradient id="linearGradient3643" y2="90.015" gradientUnits="userSpaceOnUse" x2="44.512" y1="6" x1="44.512">
   <stop id="stop3639" style="stop-color:#f0f0f0" offset="0"/>
   <stop id="stop3641" style="stop-color:#dcdcdc" offset="1"/>
  </linearGradient>
  <linearGradient id="linearGradient4081">
   <stop id="stop4083" style="stop-color:#aaa" offset="0"/>
   <stop id="stop4085" style="stop-color:#f0f0f0" offset="1"/>
  </linearGradient>
  <linearGradient id="linearGradient3701" y2="36.371" xlink:href="#linearGradient4081" gradientUnits="userSpaceOnUse" x2="49.89" y1="59.364" x1="49.89"/>
  <linearGradient id="linearGradient3709" y2="18.192" xlink:href="#linearGradient4081" gradientUnits="userSpaceOnUse" x2="53.464" y1="29.586" x1="53.464"/>
  <linearGradient id="linearGradient3717" y2="65.891" xlink:href="#linearGradient4081" gradientUnits="userSpaceOnUse" x2="43.293" y1="78.061" x1="43.293"/>
  <linearGradient id="linearGradient3725" y2="38.645" xlink:href="#linearGradient4081" gradientUnits="userSpaceOnUse" x2="71.303" y1="56.586" x1="71.303"/>
  <linearGradient id="linearGradient3733" y2="38.677" xlink:href="#linearGradient4081" gradientUnits="userSpaceOnUse" x2="26.334" y1="57.135" x1="26.334"/>
 </defs>
 <metadata id="metadata2413">
  <rdf:RDF>
   <cc:Work rdf:about="">
    <dc:format>image/svg+xml</dc:format>
    <dc:type rdf:resource="http://purl.org/dc/dcmitype/StillImage"/>
   </cc:Work>
  </rdf:RDF>
 </metadata>
 <g id="layer2">
  <rect id="rect3745" style="opacity:.9;filter:url(#filter3174);fill:url(#ButtonShadow)" clip-path="url(#clipPath3625)" rx="6" ry="6" height="85" width="86" y="7" x="5"/>
 </g>
 <g id="layer1">
  <rect id="rect2419" style="opacity:.7" rx="5.4286" ry="5.4286" height="76" width="76" y="10" x="10"/>
  <path id="rect3726" style="opacity:0.08" d="m14 10c-2.216 0-4 1.784-4 4v68c0 2.216 1.784 4 4 4h68c2.216 0 4-1.784 4-4v-68c0-2.216-1.784-4-4-4h-68zm0 3.0625h68c0.57877 0 0.9375 0.35873 0.9375 0.9375v68c0 0.57877-0.35873 0.9375-0.9375 0.9375h-68c-0.57877 0-0.9375-0.35873-0.9375-0.9375v-68c0-0.57877 0.35873-0.9375 0.9375-0.9375z"/>
  <path id="rect3629" style="fill:url(#linearGradient3643)" d="m12 6c-3.324 0-6 2.676-6 6v72c0 3.324 2.676 6 6 6h72c3.324 0 6-2.676 6-6v-72c0-3.324-2.676-6-6-6h-72zm2 4h68c2.216 0 4 1.784 4 4v68c0 2.216-1.784 4-4 4h-68c-2.216 0-4-1.784-4-4v-68c0-2.216 1.784-4 4-4z"/>
  <path id="rect3728" style="fill:url(#linearGradient3188)" d="m12 6c-3.324 0-6 2.676-6 6v2 68 2c0 0.33472 0.04135 0.6507 0.09375 0.96875 0.0487 0.2956 0.09704 0.59692 0.1875 0.875 0.00988 0.03038 0.020892 0.0636 0.03125 0.09375 0.098865 0.28777 0.23488 0.54745 0.375 0.8125 0.14459 0.27351 0.31562 0.53562 0.5 0.78125 0.18438 0.24564 0.37378 0.47347 0.59375 0.6875 0.43995 0.42806 0.94291 0.81453 1.5 1.0938 0.27854 0.13961 0.57347 0.24695 0.875 0.34375-0.2562-0.10022-0.48671-0.23627-0.71875-0.375-0.00741-0.0044-0.023866 0.0045-0.03125 0-0.031933-0.0193-0.062293-0.04251-0.09375-0.0625-0.1204-0.0767-0.23102-0.16351-0.34375-0.25-0.10617-0.0808-0.21328-0.16111-0.3125-0.25-0.1778-0.162-0.3473-0.346-0.4999-0.531-0.1075-0.131-0.2183-0.266-0.3124-0.407-0.0251-0.038-0.0385-0.086-0.0626-0.125-0.0647-0.103-0.1302-0.204-0.1874-0.312-0.1011-0.195-0.2057-0.416-0.2813-0.625-0.008-0.022-0.0236-0.041-0.0313-0.063-0.0318-0.092-0.0358-0.187-0.0624-0.281-0.0304-0.107-0.0704-0.203-0.0938-0.313-0.0729-0.341-0.125-0.698-0.125-1.062v-2-68-2c0-2.782 2.2182-5 5-5h2 68 2c2.7818 0 5 2.2182 5 5v2 68 2c0 0.3643-0.05212 0.72099-0.125 1.0625-0.04415 0.20689-0.08838 0.39766-0.15625 0.59375-0.0077 0.02195-0.0233 0.04069-0.03125 0.0625-0.06274 0.17374-0.13838 0.36745-0.21875 0.53125-0.04158 0.0828-0.07904 0.16995-0.125 0.25-0.0546 0.09721-0.12677 0.18835-0.1875 0.28125-0.09411 0.14096-0.20492 0.276-0.3125 0.40625-0.14317 0.17445-0.30314 0.347-0.46875 0.5-0.01117 0.0102-0.01998 0.02115-0.03125 0.03125-0.13839 0.12556-0.28509 0.23444-0.4375 0.34375-0.10257 0.07315-0.20432 0.15336-0.3125 0.21875-0.0074 0.0045-0.02384-0.0044-0.03125 0-0.23204 0.13873-0.46255 0.27478-0.71875 0.375 0.30153-0.0968 0.59646-0.20414 0.875-0.34375 0.55709-0.27922 1.0601-0.66569 1.5-1.0938 0.21997-0.21403 0.40937-0.44186 0.59375-0.6875s0.35541-0.50774 0.5-0.78125c0.14012-0.26505 0.27614-0.52473 0.375-0.8125 0.01041-0.03078 0.02133-0.06274 0.03125-0.09375 0.09046-0.27808 0.1388-0.5794 0.1875-0.875 0.053-0.318 0.094-0.634 0.094-0.969v-2-68-2c0-3.324-2.676-6-6-6h-72z"/>
  <path id="path3615" style="opacity:.6;fill:url(#radialGradient3619)" d="m12 90c-3.324 0-6-2.676-6-6v-2-68-2c0-0.33472 0.04135-0.6507 0.09375-0.96875 0.0487-0.2956 0.09704-0.59692 0.1875-0.875 0.0099-0.03 0.0209-0.063 0.0313-0.094 0.0989-0.2873 0.2349-0.547 0.375-0.812 0.1446-0.2735 0.3156-0.5356 0.5-0.7812 0.1844-0.2457 0.3738-0.4735 0.5937-0.6876 0.44-0.428 0.943-0.8145 1.5-1.0937 0.2786-0.1396 0.5735-0.2469 0.8748-0.3437-0.256 0.1002-0.4865 0.2362-0.7185 0.375-0.00741 0.0044-0.023866-0.0045-0.03125 0-0.031933 0.0193-0.062293 0.04251-0.09375 0.0625-0.1204 0.0767-0.23102 0.16351-0.34375 0.25-0.10617 0.0808-0.21328 0.16111-0.3125 0.25-0.1779 0.1614-0.3474 0.3453-0.5 0.5312-0.1075 0.1303-0.2183 0.2653-0.3124 0.4063-0.0251 0.0383-0.0385 0.0858-0.0626 0.125-0.0647 0.103-0.1302 0.2045-0.1874 0.3124-0.1011 0.1948-0.2057 0.4158-0.2813 0.625-0.008 0.0219-0.0236 0.0406-0.0313 0.0626-0.0318 0.0919-0.0358 0.1868-0.0624 0.2812-0.0304 0.1066-0.0704 0.203-0.0938 0.3125-0.0729 0.3415-0.125 0.6985-0.125 1.0625v2 68 2c0 2.7818 2.2182 5 5 5h2 68 2c2.7818 0 5-2.2182 5-5v-2-68-2c0-0.364-0.052-0.721-0.125-1.0625-0.044-0.2069-0.088-0.3977-0.156-0.5937-0.008-0.022-0.024-0.0407-0.031-0.0626-0.063-0.1737-0.139-0.3674-0.219-0.5312-0.042-0.0828-0.079-0.17-0.125-0.25-0.055-0.0972-0.127-0.1884-0.188-0.2812-0.094-0.141-0.205-0.276-0.312-0.4063-0.143-0.1745-0.303-0.347-0.469-0.5-0.011-0.0102-0.02-0.0211-0.031-0.0313-0.139-0.1255-0.285-0.2344-0.438-0.3437-0.102-0.0731-0.204-0.1534-0.312-0.2187-0.0074-0.0045-0.02384 0.0044-0.03125 0-0.23204-0.13873-0.46255-0.27478-0.71875-0.375 0.30153 0.0968 0.59646 0.20414 0.875 0.34375 0.55709 0.27922 1.0601 0.66569 1.5 1.0938 0.21997 0.21403 0.40937 0.44186 0.59375 0.6875s0.35541 0.50774 0.5 0.78125c0.14012 0.26505 0.27614 0.52473 0.375 0.8125 0.01041 0.03078 0.02133 0.06274 0.03125 0.09375 0.09046 0.27808 0.1388 0.5794 0.1875 0.875 0.053 0.318 0.094 0.634 0.094 0.969v2 68 2c0 3.324-2.676 6-6 6h-72z"/>
  <path id="path3709" style="opacity:0.16" d="m14.089 10c-2.216 0-4 1.784-4 4v68c0 2.216 1.784 4 4 4h68c2.216 0 4-1.784 4-4v-68c0-2.216-1.784-4-4-4h-68zm0 2h68c1.1403 0 2 0.8597 2 2v68c0 1.1403-0.8597 2-2 2h-68c-1.1403 0-2-0.8597-2-2v-68c0-1.1403 0.8597-2 2-2z"/>
  <path id="path3707" style="opacity:0.36" d="m14 10c-2.216 0-4 1.784-4 4v68c0 2.216 1.784 4 4 4h68c2.216 0 4-1.784 4-4v-68c0-2.216-1.784-4-4-4h-68zm0 1h68c1.6738 0 3 1.3262 3 3v68c0 1.6738-1.3262 3-3 3h-68c-1.6738 0-3-1.3262-3-3v-68c0-1.6738 1.3262-3 3-3z"/>
 </g>
 <g id="layer5" style="display:none">
  <rect id="rect3171" style="opacity:.1;filter:url(#filter3794);stroke:#fff;stroke-linecap:round;stroke-width:.5;fill:url(#linearGradient3613)" clip-path="url(#clipPath3613)" rx="12" ry="12" height="66" width="66" y="15" x="15"/>
 </g>
 <g id="layer3">
  <path id="path3746" style="opacity:.2" d="m47.844 16.969c-0.000001 0-0.03125 0.03125-0.03125 0.03125h-0.03125-0.03125c-0.000001 0-0.0625 0.03125-0.0625 0.03125-0.01025 0.0033-0.03125 0-0.03125 0-0.000001 0-0.03125 0.03125-0.03125 0.03125h-0.03125c-0.000001 0-0.03125 0.03125-0.03125 0.03125h-0.0625c-0.000001 0-0.03125 0.03125-0.03125 0.03125-0.000001 0-0.03125 0.03125-0.03125 0.03125-0.000001 0-0.03125 0.03125-0.03125 0.03125h-0.03125c-0.000001 0-0.03125 0.03125-0.03125 0.03125-0.000001 0-0.03125 0.03125-0.03125 0.03125-0.000001 0-0.03125 0.03125-0.03125 0.03125 0 0.000001-0.03125 0.03125-0.03125 0.03125 0 0.000001-0.03125 0.03125-0.03125 0.03125 0 0.000001-0.03125 0.03125-0.03125 0.03125l-9 12c-0.000001 0.000001-0.03125 0.0625-0.03125 0.0625-0.000001 0.000001-0.03125 0.0625-0.03125 0.0625-0.000001 0.000001-0.03125 0.0625-0.03125 0.0625-0.000001 0.000001-0.03125 0.0625-0.03125 0.0625 0 0.000001-0.03125 0.0625-0.03125 0.0625 0 0.000001-0.03125 0.0625-0.03125 0.0625v0.09375 0.0625 0.0625 0.0625 0.09375 0.0625c0 0.000001 0.03125 0.0625 0.03125 0.0625v0.0625c0 0.000001 0.03125 0.0625 0.03125 0.0625 0 0.000001 0.03125 0.0625 0.03125 0.0625 0.000001 0.000001 0.03125 0.0625 0.03125 0.0625 0.000001 0.000001 0.03125 0.0625 0.03125 0.0625l0.0625 0.0625c0.000001 0.000001 0.03125 0.0625 0.03125 0.0625 0.000001 0.000001 0.0625 0.03125 0.0625 0.03125 0.000001 0.000001 0.03125 0.0625 0.03125 0.0625 0.000001 0.000001 0.0625 0.03125 0.0625 0.03125 0.000001 0.000001 0.0625 0.03125 0.0625 0.03125l0.0625 0.0625c0.000001 0.000001 0.0625 0.03125 0.0625 0.03125h0.0625c0.000001 0 0.0625 0.03125 0.0625 0.03125 0.000001 0 0.0625 0.03125 0.0625 0.03125h0.09375 0.0625 0.0625 18 0.0625 0.0625 0.09375c0.000001 0 0.0625-0.03125 0.0625-0.03125 0.000001 0 0.0625-0.03125 0.0625-0.03125h0.0625c0.000001 0 0.0625-0.03125 0.0625-0.03125l0.0625-0.0625c0.000001-0.000001 0.0625-0.03125 0.0625-0.03125 0.000001-0.000001 0.0625-0.03125 0.0625-0.03125 0.000001-0.000001 0.03125-0.0625 0.03125-0.0625 0.000001-0.000001 0.0625-0.03125 0.0625-0.03125 0.000001-0.000001 0.03125-0.0625 0.03125-0.0625l0.0625-0.0625c0.000001-0.000001 0.03125-0.0625 0.03125-0.0625 0.000001-0.000001 0.03125-0.0625 0.03125-0.0625 0.000001-0.000001 0.03125-0.0625 0.03125-0.0625 0-0.000001 0.03125-0.0625 0.03125-0.0625v-0.0625c0-0.000001 0.03125-0.0625 0.03125-0.0625v-0.0625-0.09375-0.0625-0.0625-0.0625-0.09375c0-0.000001-0.03125-0.0625-0.03125-0.0625 0-0.000001-0.03125-0.0625-0.03125-0.0625 0-0.000001-0.03125-0.0625-0.03125-0.0625-0.000001-0.000001-0.03125-0.0625-0.03125-0.0625-0.000001-0.000001-0.03125-0.0625-0.03125-0.0625-0.000001-0.000001-0.03125-0.0625-0.03125-0.0625l-9-11.969s0.0063-0.02253 0-0.03125c-0.0095-0.01309-0.03125-0.03125-0.03125-0.03125l-0.03125-0.03125-0.03125-0.03125c-0.000001-0.000001-0.03125-0.0625-0.03125-0.0625-0.000001-0.000001-0.0625-0.03125-0.0625-0.03125l-0.03125-0.03125c-0.000001-0.000001-0.0625-0.03125-0.0625-0.03125l-0.03125-0.03125c-0.000001 0-0.0625-0.03125-0.0625-0.03125h-0.03125c-0.000001 0-0.0625-0.03125-0.0625-0.03125-0.000001 0-0.0625-0.03125-0.0625-0.03125h-0.03125c-0.000001 0-0.0625-0.03125-0.0625-0.03125h-0.0625-0.0625a0.50513 0.50513 0 0 0 -0.0625 0h-0.03125-0.03125-0.03125-0.0625zm-9.438 18.031c-1.876 0-3.406 1.53-3.406 3.406v21.594 0.0625 0.03125 0.0625c0 0.000001 0.03125 0.03125 0.03125 0.03125v0.0625 0.03125c0 0.000001 0.03125 0.0625 0.03125 0.0625v0.03125c0 0.000001 0.03125 0.0625 0.03125 0.0625 0 0.000001 0.03125 0.03125 0.03125 0.03125v0.0625c0 0.000001 0.03125 0.03125 0.03125 0.03125 0 0.000001 0.03125 0.03125 0.03125 0.03125 0 0.000001 0.03125 0.03125 0.03125 0.03125 0.000001 0.000001 0.03125 0.0625 0.03125 0.0625l0.03125 0.03125 0.03125 0.03125c0.000001 0.000001 0.0625 0.03125 0.0625 0.03125l0.03125 0.03125c0.000001 0 0.03125 0.03125 0.03125 0.03125 0.000001 0 0.03125 0.03125 0.03125 0.03125h0.0625c0.000001 0 0.03125 0.03125 0.03125 0.03125 0.000001 0 0.0625 0.03125 0.0625 0.03125h0.03125c0.000001 0 0.0625 0.03125 0.0625 0.03125h0.03125 0.0625c0.000001 0 0.03125 0.03125 0.03125 0.03125h0.0625 0.03125 0.0625 24 0.0625 0.03125 0.0625c0.000001 0 0.03125-0.03125 0.03125-0.03125h0.0625 0.03125c0.000001 0 0.0625-0.03125 0.0625-0.03125h0.03125c0.000001 0 0.0625-0.03125 0.0625-0.03125 0.000001 0 0.03125-0.03125 0.03125-0.03125h0.0625c0.000001 0 0.03125-0.03125 0.03125-0.03125 0.000001 0 0.03125-0.03125 0.03125-0.03125 0.000001 0 0.03125-0.03125 0.03125-0.03125 0.000001-0.000001 0.0625-0.03125 0.0625-0.03125l0.03125-0.03125 0.03125-0.03125c0.000001-0.000001 0.03125-0.0625 0.03125-0.0625l0.03125-0.03125c0-0.000001 0.03125-0.03125 0.03125-0.03125 0-0.000001 0.03125-0.03125 0.03125-0.03125v-0.0625c0-0.000001 0.03125-0.03125 0.03125-0.03125 0-0.000001 0.03125-0.0625 0.03125-0.0625v-0.03125c0-0.000001 0.03125-0.0625 0.03125-0.0625v-0.03125-0.0625c0-0.000001 0.03125-0.03125 0.03125-0.03125v-0.0625-0.03125-0.0625-21.594c0-1.876-1.53-3.406-3.406-3.406h-19.188zm-8.4688 2.9688c-0.000001 0-0.0147 0.02964-0.03125 0.03125-0.01103 0.0011-0.03125 0-0.03125 0s-0.01699-0.0022-0.03125 0c-0.000001 0-0.01563-0.000484-0.03125 0 0 0-0.01714-0.003-0.03125 0a0.50513 0.50513 0 0 0 -0.031 0 0.50513 0.50513 0 0 0 -0.188 0.062h-0.03125c-0.000001 0-0.03125 0.03125-0.03125 0.03125-0.000001 0-0.03125 0.03125-0.03125 0.03125h-0.03125c-0.000001 0-0.03125 0.03125-0.03125 0.03125-0.000001 0-0.03125 0.03125-0.03125 0.03125l-0.03125 0.03125-0.03125 0.03125-11.937 8.938-0.03125 0.03125c-0.000001 0.000001-0.0625 0.03125-0.0625 0.03125-0.000001 0.000001-0.03125 0.0625-0.03125 0.0625l-0.03125 0.03125c-0.000001 0.000001-0.03125 0.0625-0.03125 0.0625l-0.03125 0.03125c-0.000001 0.000001-0.03125 0.0625-0.03125 0.0625 0 0.000001-0.03125 0.03125-0.03125 0.03125 0 0.000001-0.03125 0.0625-0.03125 0.0625 0 0.000001-0.03125 0.0625-0.03125 0.0625v0.0625c0 0.000001-0.03125 0.0625-0.03125 0.0625v0.03125c0 0.000001-0.03125 0.0625-0.03125 0.0625v0.0625 0.0625 0.0625 0.0625c0 0.000001 0.03125 0.0625 0.03125 0.0625v0.03125c0 0.000001 0.03125 0.0625 0.03125 0.0625v0.0625c0 0.000001 0.03125 0.0625 0.03125 0.0625 0 0.000001 0.03125 0.0625 0.03125 0.0625 0 0.000001 0.03125 0.03125 0.03125 0.03125 0 0.000001 0.03125 0.0625 0.03125 0.0625l0.03125 0.03125c0.000001 0.000001 0.03125 0.0625 0.03125 0.0625l0.03125 0.03125c0.000001 0.000001 0.03125 0.0625 0.03125 0.0625 0.000001 0.000001 0.0625 0.03125 0.0625 0.03125l0.03125 0.03125 12 9c0.000001 0.000001 0.0625 0.03125 0.0625 0.03125 0.000001 0.000001 0.0625 0.03125 0.0625 0.03125 0.000001 0.000001 0.0625 0.03125 0.0625 0.03125 0.000001 0.000001 0.0625 0.03125 0.0625 0.03125 0.000001 0 0.0625 0.03125 0.0625 0.03125 0.000001 0 0.0625 0.03125 0.0625 0.03125h0.09375 0.0625 0.0625 0.0625 0.09375 0.0625c0.000001 0 0.0625-0.03125 0.0625-0.03125h0.0625c0.000001 0 0.0625-0.03125 0.0625-0.03125 0.000001 0 0.0625-0.03125 0.0625-0.03125 0.000001-0.000001 0.0625-0.03125 0.0625-0.03125 0.000001-0.000001 0.0625-0.03125 0.0625-0.03125l0.0625-0.0625c0.000001-0.000001 0.0625-0.03125 0.0625-0.03125 0.000001-0.000001 0.03125-0.0625 0.03125-0.0625 0.000001-0.000001 0.0625-0.03125 0.0625-0.03125 0.000001-0.000001 0.03125-0.0625 0.03125-0.0625 0.000001-0.000001 0.03125-0.0625 0.03125-0.0625l0.0625-0.0625c0.000001-0.000001 0.03125-0.0625 0.03125-0.0625v-0.0625c0-0.000001 0.03125-0.0625 0.03125-0.0625 0-0.000001 0.03125-0.0625 0.03125-0.0625v-0.09375-0.0625-0.0625-18-0.0625-0.03125-0.0625c0-0.000001-0.03125-0.0625-0.03125-0.0625v-0.0625c0-0.000001-0.03125-0.0625-0.03125-0.0625v-0.03125c0-0.000001-0.03125-0.0625-0.03125-0.0625 0-0.000001-0.03125-0.0625-0.03125-0.0625 0-0.000001-0.03125-0.03125-0.03125-0.03125-0.000001-0.000001-0.03125-0.0625-0.03125-0.0625l-0.03125-0.03125c-0.000001-0.000001-0.03125-0.0625-0.03125-0.0625l-0.03125-0.03125c-0.000001-0.000001-0.0625-0.03125-0.0625-0.03125-0.000001-0.000001-0.03125-0.0625-0.03125-0.0625l-0.03125-0.03125c-0.000001-0.000001-0.0625-0.03125-0.0625-0.03125-0.000001-0.000001-0.0625-0.03125-0.0625-0.03125h-0.03125c-0.000001 0-0.0625-0.03125-0.0625-0.03125-0.000001 0-0.0625-0.03125-0.0625-0.03125h-0.03125c-0.000001 0-0.0625-0.03125-0.0625-0.03125h-0.0625-0.0625c-0.000001 0-0.0625-0.03125-0.0625-0.03125h-0.0625-0.03125zm36 0c-0.000001 0-0.01466 0.02951-0.03125 0.03125-0.01106 0.0012-0.03125 0-0.03125 0s-0.01696-0.0023-0.03125 0c-0.000001 0-0.01563-0.000484-0.03125 0 0 0-0.01711-0.0031-0.03125 0a0.50513 0.50513 0 0 0 -0.031 0 0.50513 0.50513 0 0 0 -0.125 0.031c-0.000001 0-0.03125 0.03125-0.03125 0.03125h-0.03125c-0.000001 0-0.0625 0.03125-0.0625 0.03125h-0.03125c-0.000001 0-0.03125 0.03125-0.03125 0.03125-0.000001 0-0.03125 0.03125-0.03125 0.03125h-0.03125c-0.000001 0-0.03125 0.03125-0.03125 0.03125-0.000001 0-0.03125 0.03125-0.03125 0.03125l-0.03125 0.03125v0.03125l-0.03125 0.03125-0.03125 0.03125c0 0.000001-0.03125 0.03125-0.03125 0.03125 0 0.000001-0.03125 0.03125-0.03125 0.03125v0.03125c0 0.000001-0.03125 0.03125-0.03125 0.03125 0 0.000001-0.03125 0.03125-0.03125 0.03125v0.03125c0 0.000001-0.03125 0.03125-0.03125 0.03125v0.03125c0 0.000001-0.03125 0.0625-0.03125 0.0625v0.03125 0.03125 0.03125c0 0.000001-0.03125 0.0625-0.03125 0.0625v0.03125 0.03125 0.03125 0.0625 0.03125 0.03125 17.969 0.0625 0.0625 0.09375c0 0.000001 0.03125 0.0625 0.03125 0.0625 0 0.000001 0.03125 0.0625 0.03125 0.0625v0.0625c0 0.000001 0.03125 0.0625 0.03125 0.0625l0.0625 0.0625c0.000001 0.000001 0.03125 0.0625 0.03125 0.0625 0.000001 0.000001 0.03125 0.0625 0.03125 0.0625 0.000001 0.000001 0.0625 0.03125 0.0625 0.03125 0.000001 0.000001 0.03125 0.0625 0.03125 0.0625 0.000001 0.000001 0.0625 0.03125 0.0625 0.03125l0.0625 0.0625c0.000001 0.000001 0.0625 0.03125 0.0625 0.03125 0.000001 0.000001 0.0625 0.03125 0.0625 0.03125 0.000001 0.000001 0.0625 0.03125 0.0625 0.03125 0.000001 0 0.0625 0.03125 0.0625 0.03125h0.0625c0.000001 0 0.0625 0.03125 0.0625 0.03125h0.0625 0.09375 0.0625 0.0625 0.0625 0.09375c0.000001 0 0.0625-0.03125 0.0625-0.03125 0.000001 0 0.0625-0.03125 0.0625-0.03125 0.000001 0 0.0625-0.03125 0.0625-0.03125 0.000001-0.000001 0.0625-0.03125 0.0625-0.03125 0.000001-0.000001 0.0625-0.03125 0.0625-0.03125 0.000001-0.000001 0.0625-0.03125 0.0625-0.03125l12-9 0.03125-0.03125c0.000001-0.000001 0.0625-0.03125 0.0625-0.03125 0.000001-0.000001 0.03125-0.0625 0.03125-0.0625l0.03125-0.03125c0.000001-0.000001 0.03125-0.0625 0.03125-0.0625l0.03125-0.03125c0.000001-0.000001 0.03125-0.0625 0.03125-0.0625 0-0.000001 0.03125-0.03125 0.03125-0.03125 0-0.000001 0.03125-0.0625 0.03125-0.0625 0-0.000001 0.03125-0.0625 0.03125-0.0625v-0.0625c0-0.000001 0.03125-0.0625 0.03125-0.0625v-0.03125c0-0.000001 0.03125-0.0625 0.03125-0.0625v-0.0625-0.0625-0.0625-0.0625c0-0.000001-0.03125-0.0625-0.03125-0.0625v-0.03125c0-0.000001-0.03125-0.0625-0.03125-0.0625v-0.0625c0-0.000001-0.03125-0.0625-0.03125-0.0625 0-0.000001-0.03125-0.0625-0.03125-0.0625 0-0.000001-0.03125-0.03125-0.03125-0.03125 0-0.000001-0.03125-0.0625-0.03125-0.0625l-0.03125-0.03125c-0.000001-0.000001-0.03125-0.0625-0.03125-0.0625l-0.03125-0.03125c-0.000001-0.000001-0.03125-0.0625-0.03125-0.0625-0.000001-0.000001-0.0625-0.03125-0.0625-0.03125l-0.03125-0.03125-12-9-0.03125-0.03125c-0.000001-0.000001-0.0625-0.03125-0.0625-0.03125-0.000001-0.000001-0.0625-0.03125-0.0625-0.03125-0.000001 0-0.03125-0.03125-0.03125-0.03125h-0.0625c-0.000001 0-0.0625-0.03125-0.0625-0.03125h-0.03125c-0.000001 0-0.0625-0.03125-0.0625-0.03125h-0.0625c-0.000001 0-0.0625-0.03125-0.0625-0.03125h-0.0625-0.0625-0.03125zm-24.843 5.031h13.906v11.969h-13.906v-11.969zm-2.375 22c-0.000001 0-0.0625 0.03125-0.0625 0.03125-0.000001 0-0.0625 0.03125-0.0625 0.03125-0.000001 0-0.0625 0.03125-0.0625 0.03125-0.000001 0-0.0625 0.03125-0.0625 0.03125l-0.03125 0.03125c-0.000001 0.000001-0.0625 0.03125-0.0625 0.03125-0.000001 0.000001-0.0625 0.03125-0.0625 0.03125l-0.03125 0.03125-0.0625 0.0625-0.03125 0.03125c-0.000001 0.000001-0.03125 0.0625-0.03125 0.0625-0.000001 0.000001-0.03125 0.0625-0.03125 0.0625l-0.03125 0.03125c0 0.000001-0.03125 0.0625-0.03125 0.0625 0 0.000001-0.03125 0.0625-0.03125 0.0625 0 0.000001-0.03125 0.0625-0.03125 0.0625v0.0625 0.0625c0 0.000001-0.03125 0.0625-0.03125 0.0625v0.0625 0.0625 0.0625 0.0625c0 0.000001 0.03125 0.0625 0.03125 0.0625v0.0625c0 0.000001 0.03125 0.0625 0.03125 0.0625v0.0625c0 0.000001 0.03125 0.0625 0.03125 0.0625 0 0.000001 0.03125 0.03125 0.03125 0.03125 0.000001 0.000001 0.03125 0.0625 0.03125 0.0625 0.000001 0.000001 0.03125 0.0625 0.03125 0.0625 0 0.000001 0.01996 0.017 0.03125 0.03125l9 12 0.03125 0.03125c0.000001 0.000001 0.03125 0.0625 0.03125 0.0625 0.000001 0.000001 0.0625 0.03125 0.0625 0.03125l0.03125 0.03125c0.000001 0.000001 0.0625 0.03125 0.0625 0.03125l0.03125 0.03125c0.000001 0.000001 0.0625 0.03125 0.0625 0.03125 0.000001 0 0.03125 0.03125 0.03125 0.03125 0.000001 0 0.0625 0.03125 0.0625 0.03125 0.000001 0 0.0625 0.03125 0.0625 0.03125h0.0625c0.000001 0 0.0625 0.03125 0.0625 0.03125h0.03125c0.000001 0 0.0625 0.03125 0.0625 0.03125h0.0625 0.0625 0.0625 0.0625c0.000001 0 0.0625-0.03125 0.0625-0.03125h0.03125c0.000001 0 0.0625-0.03125 0.0625-0.03125h0.0625c0.000001 0 0.0625-0.03125 0.0625-0.03125 0.000001 0 0.0625-0.03125 0.0625-0.03125 0.000001 0 0.03125-0.03125 0.03125-0.03125 0.000001 0 0.0625-0.03125 0.0625-0.03125l0.03125-0.03125c0.000001-0.000001 0.0625-0.03125 0.0625-0.03125l0.03125-0.03125c0.000001-0.000001 0.0625-0.03125 0.0625-0.03125 0.000001-0.000001 0.03125-0.0625 0.03125-0.0625l0.03125-0.03125 9-12c0.000001-0.000001 0.03125-0.0625 0.03125-0.0625 0.000001-0.000001 0.03125-0.0625 0.03125-0.0625 0.000001-0.000001 0.03125-0.0625 0.03125-0.0625 0.000001-0.000001 0.03125-0.0625 0.03125-0.0625 0-0.000001 0.03125-0.0625 0.03125-0.0625 0-0.000001 0.03125-0.0625 0.03125-0.0625v-0.09375-0.0625-0.0625-0.0625-0.09375-0.0625c0-0.000001-0.03125-0.0625-0.03125-0.0625v-0.0625c0-0.000001-0.03125-0.0625-0.03125-0.0625 0-0.000001-0.03125-0.0625-0.03125-0.0625-0.000001-0.000001-0.03125-0.0625-0.03125-0.0625-0.000001-0.000001-0.03125-0.0625-0.03125-0.0625l-0.0625-0.0625c-0.000001-0.000001-0.03125-0.0625-0.03125-0.0625-0.000001-0.000001-0.0625-0.03125-0.0625-0.03125-0.000001-0.000001-0.03125-0.0625-0.03125-0.0625-0.000001-0.000001-0.0625-0.03125-0.0625-0.03125-0.000001-0.000001-0.0625-0.03125-0.0625-0.03125l-0.0625-0.0625c-0.000001-0.000001-0.0625-0.03125-0.0625-0.03125h-0.0625c-0.000001 0-0.0625-0.03125-0.0625-0.03125-0.000001 0-0.0625-0.03125-0.0625-0.03125h-0.09375-0.0625-0.0625-17.969-0.031-0.0625c-0.000001 0-0.01563 0.000484-0.03125 0h-0.03125-0.0625a0.50513 0.50513 0 0 0 -0.09375 0z"/>
  <path id="path3742" style="opacity:.4" d="m47.875 17.5a0.50513 0.50513 0 0 0 -0.28125 0.1875l-9 12a0.50513 0.50513 0 0 0 0.406 0.812h18a0.50513 0.50513 0 0 0 0.40625 -0.8125l-9-12a0.50513 0.50513 0 0 0 -0.531 -0.188zm-9.4688 18c-1.602 0-2.906 1.304-2.906 2.906v21.594a0.50513 0.50513 0 0 0 0.5 0.5h24a0.50513 0.50513 0 0 0 0.5 -0.5v-21.594c0-1.602-1.304-2.906-2.906-2.906h-19.188zm-8.5312 3a0.50513 0.50513 0 0 0 -0.1875 0.09375l-12 9a0.50513 0.50513 0 0 0 0 0.8125l12 9a0.50513 0.50513 0 0 0 0.812 -0.406v-18a0.50513 0.50513 0 0 0 -0.625 -0.5zm19.125 0c0.28292 0 0.5 0.21708 0.5 0.5s-0.21708 0.5-0.5 0.5-0.5-0.21708-0.5-0.5 0.21708-0.5 0.5-0.5zm4 0c0.28292 0 0.5 0.21708 0.5 0.5s-0.21708 0.5-0.5 0.5-0.5-0.21708-0.5-0.5 0.21708-0.5 0.5-0.5zm4 0c0.28292 0 0.5 0.21708 0.5 0.5s-0.21708 0.5-0.5 0.5-0.5-0.21708-0.5-0.5 0.21708-0.5 0.5-0.5zm8.875 0a0.50513 0.50513 0 0 0 -0.375 0.5v18a0.50513 0.50513 0 0 0 0.8125 0.40625l12-9a0.50513 0.50513 0 0 0 0 -0.8125l-12-9a0.50513 0.50513 0 0 0 -0.437 -0.094zm-25.281 4h14.906v12.969h-14.906v-12.969zm-1.6875 23a0.50513 0.50513 0 0 0 -0.3125 0.8125l9 12a0.50513 0.50513 0 0 0 0.8125 0l9-12a0.50513 0.50513 0 0 0 -0.406 -0.812h-18a0.50513 0.50513 0 0 0 -0.09375 0z"/>
  <path id="path2887" style="fill:url(#linearGradient3709)" d="m48 18-9 12h18l-9-12z"/>
  <path id="path2885" style="fill:url(#linearGradient3701)" d="m38.406 36c-1.329 0-2.406 1.077-2.406 2.406v21.594h24v-21.594c0-1.329-1.077-2.406-2.406-2.406h-19.188zm10.594 2c0.554 0 1 0.446 1 1s-0.446 1-1 1-1-0.446-1-1 0.446-1 1-1zm4 0c0.554 0 1 0.446 1 1s-0.446 1-1 1-1-0.446-1-1 0.446-1 1-1zm4 0c0.554 0 1 0.446 1 1s-0.446 1-1 1-1-0.446-1-1 0.446-1 1-1zm-16.906 4h15.906v13.969h-15.906v-13.969z"/>
  <path id="path2877" style="fill:url(#linearGradient3733)" d="m30 39-12 9 12 9v-18z"/>
  <path id="path2875" style="fill:url(#linearGradient3725)" d="m66 39v18l12-9-12-9z"/>
  <path id="path3330" style="fill:url(#linearGradient3717)" d="m39 66 9 12 9-12h-18z"/>
  <path id="path2893" d="m-42 18-9 12h18l-9-12zm-9.5938 18c-1.329 0-2.406 1.077-2.406 2.406v21.594h24v-21.594c0-1.329-1.077-2.406-2.406-2.406h-19.188zm10.594 2c0.554 0 1 0.446 1 1s-0.446 1-1 1-1-0.446-1-1 0.446-1 1-1zm4 0c0.554 0 1 0.446 1 1s-0.446 1-1 1-1-0.446-1-1 0.446-1 1-1zm4 0c0.554 0 1 0.446 1 1s-0.446 1-1 1-1-0.446-1-1 0.446-1 1-1zm-27 1-12 9 12 9v-18zm36 0v18l12-9-12-9zm-25.906 3h15.906v13.969h-15.906v-13.969zm-1.094 24l9 12 9-12h-18z"/>
  <path id="path3735" style="opacity:.6;fill:#fff" d="m48 18-9 12h1.5l7.5-10 7.5 10h1.5l-9-12zm-9.594 18c-1.329 0-2.406 1.077-2.406 2.406v2c0-1.329 1.077-2.406 2.406-2.406h10.594 4 4 0.59375c1.329 0 2.406 1.077 2.406 2.406v-2c0-1.329-1.077-2.406-2.406-2.406h-19.188zm-8.406 3-12 9 1.344 1 10.656-8v-2zm36 0v2l10.656 8 1.344-1-12-9zm-17 1c-0.554 0-1 0.446-1 1s0.446 1 1 1 1-0.446 1-1-0.446-1-1-1zm4 0c-0.554 0-1 0.446-1 1s0.446 1 1 1 1-0.446 1-1-0.446-1-1-1zm4 0c-0.554 0-1 0.446-1 1s0.446 1 1 1 1-0.446 1-1-0.446-1-1-1zm-16.906 15.969v2h15.906v-2h-15.906zm-1.094 10.031l1.5 2h15l1.5-2h-18z"/>
 </g>
</svg>
