<?xml version="1.0" encoding="UTF-8" standalone="no"?>
<!-- Created with Inkscape (http://www.inkscape.org/) -->

<svg
   xmlns:dc="http://purl.org/dc/elements/1.1/"
   xmlns:cc="http://creativecommons.org/ns#"
   xmlns:rdf="http://www.w3.org/1999/02/22-rdf-syntax-ns#"
   xmlns:svg="http://www.w3.org/2000/svg"
   xmlns="http://www.w3.org/2000/svg"
   xmlns:xlink="http://www.w3.org/1999/xlink"
   xmlns:sodipodi="http://sodipodi.sourceforge.net/DTD/sodipodi-0.dtd"
   xmlns:inkscape="http://www.inkscape.org/namespaces/inkscape"
   width="96"
   height="96"
   id="svg2982"
   version="1.1"
   inkscape:version="0.48.1 r9760"
   sodipodi:docname="folder-remote.svg">
  <defs
     id="defs2984">
    <filter
       color-interpolation-filters="sRGB"
       inkscape:collect="always"
       id="filter8262">
      <feGaussianBlur
         inkscape:collect="always"
         stdDeviation="0.78065245"
         id="feGaussianBlur8264" />
    </filter>
    <linearGradient
       inkscape:collect="always"
       xlink:href="#linearGradient3317-99"
       id="linearGradient6358"
       gradientUnits="userSpaceOnUse"
       gradientTransform="matrix(0.93225601,0,0,0.93225601,3.2517099,958.18159)"
       x1="48.035713"
       y1="25.910715"
       x2="48.035713"
       y2="85.821426" />
    <linearGradient
       x1="11.794092"
       y1="3.2126782"
       x2="11.794092"
       y2="20.137329"
       id="linearGradient3317-99"
       gradientUnits="userSpaceOnUse"
       gradientTransform="scale(1.0598527,0.9435274)">
      <stop
         id="stop3319-60"
         style="stop-color:#3c8fc2;stop-opacity:1"
         offset="0" />
      <stop
         id="stop3321-6"
         style="stop-color:#2174a6;stop-opacity:1"
         offset="1" />
    </linearGradient>
    <linearGradient
       inkscape:collect="always"
       xlink:href="#linearGradient3187-4"
       id="linearGradient7205"
       x1="48.005402"
       y1="1042.5925"
       x2="48.003235"
       y2="902.36261"
       gradientUnits="userSpaceOnUse" />
    <linearGradient
       id="linearGradient3187-4">
      <stop
         id="stop3189-77"
         style="stop-color:#c29656;stop-opacity:1"
         offset="0" />
      <stop
         id="stop3191-54"
         style="stop-color:#ddc08b;stop-opacity:1"
         offset="1" />
    </linearGradient>
    <linearGradient
       inkscape:collect="always"
       xlink:href="#linearGradient3874-37"
       id="linearGradient6361"
       gradientUnits="userSpaceOnUse"
       x1="48.021698"
       y1="22.933374"
       x2="48.021698"
       y2="81.481377" />
    <linearGradient
       id="linearGradient3874-37">
      <stop
         id="stop3876-61"
         style="stop-color:#ffffff;stop-opacity:1"
         offset="0" />
      <stop
         id="stop3878-87"
         style="stop-color:#ffffff;stop-opacity:0"
         offset="1" />
    </linearGradient>
    <clipPath
       id="clipPath3860-3">
      <rect
         width="84"
         height="72"
         rx="6"
         ry="6"
         x="6"
         y="18"
         id="rect3862-7"
         style="fill:#ff00ff;fill-opacity:1;fill-rule:nonzero;stroke:none" />
    </clipPath>
    <filter
       x="-0.16558799"
       y="-0.19715989"
       width="1.331176"
       height="1.3943198"
       color-interpolation-filters="sRGB"
       id="filter3870-1">
      <feGaussianBlur
         id="feGaussianBlur3872-9"
         stdDeviation="5.1703125" />
    </filter>
  </defs>
  <sodipodi:namedview
     id="base"
     pagecolor="#ffffff"
     bordercolor="#666666"
     borderopacity="1.0"
     inkscape:pageopacity="0.0"
     inkscape:pageshadow="2"
     inkscape:zoom="3.959798"
     inkscape:cx="36.39115"
     inkscape:cy="42.877139"
     inkscape:document-units="px"
     inkscape:current-layer="layer1"
     showgrid="false"
     inkscape:window-width="1280"
     inkscape:window-height="725"
     inkscape:window-x="0"
     inkscape:window-y="25"
     inkscape:window-maximized="1" />
  <metadata
     id="metadata2987">
    <rdf:RDF>
      <cc:Work
         rdf:about="">
        <dc:format>image/svg+xml</dc:format>
        <dc:type
           rdf:resource="http://purl.org/dc/dcmitype/StillImage" />
        <dc:title></dc:title>
      </cc:Work>
    </rdf:RDF>
  </metadata>
  <g
     inkscape:label="Layer 1"
     inkscape:groupmode="layer"
     id="layer1"
     transform="translate(0,-956.36218)">
    <g
       id="g7207">
      <path
         transform="matrix(1.0210423,0,0,1.0210423,-1.0100318,-21.123619)"
         d="m 17.070652,965.51435 c -2.595687,0 -4.679348,2.03609 -4.679348,4.56522 l 0,3.36685 c -2.158489,1.02387 -3.6521736,3.20738 -3.6521736,5.76359 l 0,57.52169 c 0,3.5408 2.8505216,6.3914 6.3913046,6.3914 l 65.73913,0 c 3.540783,0 6.391305,-2.8506 6.391305,-6.3914 l 0,-57.52169 c 0,-2.56541 -1.509597,-4.74452 -3.680707,-5.76359 -0.154897,-2.39074 -2.156759,-4.27989 -4.650815,-4.27989 l -37.063859,0 c -3.853525,-3.75472 -4.111223,-3.59107 -5.934782,-3.65218 l -18.860055,0 z"
         inkscape:connector-curvature="0"
         id="path3908-1"
         style="fill:#000000;fill-opacity:1;fill-rule:nonzero;stroke:none;display:inline;filter:url(#filter8262)" />
      <rect
         width="69.919197"
         height="58.432476"
         rx="5.5935359"
         ry="5.5935359"
         x="13.073692"
         y="979.75665"
         id="rect3352"
         style="fill:url(#linearGradient6358);fill-opacity:1;fill-rule:nonzero;stroke:none;display:inline" />
      <path
         d="m 17.23555,963.77513 c -2.582349,0 -4.66128,2.07893 -4.66128,4.66128 l 0,55.76059 c 0,2.2311 1.789204,4.0203 4.020354,4.0203 l 62.810749,0 c 2.231149,0 4.020354,-1.7892 4.020354,-4.0203 l 0,-52.03157 c 0,-2.58235 -2.078931,-4.66128 -4.66128,-4.66128 l -37.785502,0 c -3.833725,-3.83373 -4.070676,-3.66664 -5.884866,-3.72902 z"
         inkscape:connector-curvature="0"
         id="path3908"
         style="opacity:0.75;fill:#906e4c;fill-opacity:1;fill-rule:nonzero;stroke:none;display:inline" />
      <rect
         width="78.309502"
         height="70.851456"
         rx="5.5935359"
         ry="5.5935359"
         x="8.8452463"
         y="971.23315"
         id="rect2419"
         style="fill:url(#linearGradient7205);fill-opacity:1;fill-rule:nonzero;stroke:#b49372;stroke-opacity:1" />
      <g
         style="display:inline"
         id="layer5"
         transform="translate(0,952.36218)">
        <path
           style="opacity:0.15;fill:url(#linearGradient6361);fill-opacity:1;fill-rule:nonzero;stroke:none;filter:url(#filter3870-1)"
           id="path3850"
           clip-path="url(#clipPath3860-3)"
           inkscape:connector-curvature="0"
           d="m 15.96875,22.53125 c -2.845903,0.0043 -5.433244,2.591597 -5.4375,5.4375 l 0,48.0625 c 0.0043,2.845903 2.591597,5.433244 5.4375,5.4375 l 64.0625,0 c 2.845903,-0.0043 5.433244,-2.591597 5.4375,-5.4375 l 0,-48.0625 c -0.0043,-2.845903 -2.591597,-5.433244 -5.4375,-5.4375 z" />
      </g>
    </g>
    <path
       style="opacity:0.25;fill:#ffffff;fill-opacity:1;stroke:none"
       id="path3717"
       inkscape:connector-curvature="0"
       d="m 48,988.36218 c -10.74874,0 -21.48649,4.11149 -29.6875,12.31252 l 4.9375,4.9375 c 13.66835,-13.66837 35.83165,-13.66837 49.5,0 l 4.9375,-4.9375 C 69.48649,992.47367 58.74874,988.36218 48,988.36218 z m 0,14.00002 c -7.16583,0 -14.34516,2.7201 -19.8125,8.1875 l 4.96875,4.9687 c 8.20101,-8.201 21.48649,-8.201 29.6875,0 l 4.96875,-4.9687 C 62.34516,1005.0823 55.16582,1002.3622 48,1002.3622 z m 0,14 c -3.58291,0 -7.17258,1.3601 -9.90625,4.0937 l 9.90625,9.9063 9.90625,-9.9063 c -2.73367,-2.7336 -6.32334,-4.0937 -9.90625,-4.0937 z" />
  </g>
</svg>
