<?xml version="1.0" encoding="UTF-8" standalone="no"?>
<!-- Created with Inkscape (http://www.inkscape.org/) -->

<svg
   xmlns:dc="http://purl.org/dc/elements/1.1/"
   xmlns:cc="http://creativecommons.org/ns#"
   xmlns:rdf="http://www.w3.org/1999/02/22-rdf-syntax-ns#"
   xmlns:svg="http://www.w3.org/2000/svg"
   xmlns="http://www.w3.org/2000/svg"
   xmlns:xlink="http://www.w3.org/1999/xlink"
   xmlns:sodipodi="http://sodipodi.sourceforge.net/DTD/sodipodi-0.dtd"
   xmlns:inkscape="http://www.inkscape.org/namespaces/inkscape"
   width="96"
   height="96"
   id="svg2982"
   version="1.1"
   inkscape:version="0.48.1 r9760"
   sodipodi:docname="folder-templates.svg">
  <defs
     id="defs2984">
    <filter
       color-interpolation-filters="sRGB"
       inkscape:collect="always"
       id="filter8262">
      <feGaussianBlur
         inkscape:collect="always"
         stdDeviation="0.78065245"
         id="feGaussianBlur8264" />
    </filter>
    <linearGradient
       inkscape:collect="always"
       xlink:href="#linearGradient3317-99"
       id="linearGradient6358"
       gradientUnits="userSpaceOnUse"
       gradientTransform="matrix(0.93225601,0,0,0.93225601,3.2517099,958.18159)"
       x1="48.035713"
       y1="25.910715"
       x2="48.035713"
       y2="85.821426" />
    <linearGradient
       x1="11.794092"
       y1="3.2126782"
       x2="11.794092"
       y2="20.137329"
       id="linearGradient3317-99"
       gradientUnits="userSpaceOnUse"
       gradientTransform="scale(1.0598527,0.9435274)">
      <stop
         id="stop3319-60"
         style="stop-color:#3c8fc2;stop-opacity:1"
         offset="0" />
      <stop
         id="stop3321-6"
         style="stop-color:#2174a6;stop-opacity:1"
         offset="1" />
    </linearGradient>
    <linearGradient
       inkscape:collect="always"
       xlink:href="#linearGradient3187-4"
       id="linearGradient7205"
       x1="48.005402"
       y1="1042.5925"
       x2="48.003235"
       y2="902.36261"
       gradientUnits="userSpaceOnUse" />
    <linearGradient
       id="linearGradient3187-4">
      <stop
         id="stop3189-77"
         style="stop-color:#c29656;stop-opacity:1"
         offset="0" />
      <stop
         id="stop3191-54"
         style="stop-color:#ddc08b;stop-opacity:1"
         offset="1" />
    </linearGradient>
    <linearGradient
       inkscape:collect="always"
       xlink:href="#linearGradient3874-37"
       id="linearGradient6361"
       gradientUnits="userSpaceOnUse"
       x1="48.021698"
       y1="22.933374"
       x2="48.021698"
       y2="81.481377" />
    <linearGradient
       id="linearGradient3874-37">
      <stop
         id="stop3876-61"
         style="stop-color:#ffffff;stop-opacity:1"
         offset="0" />
      <stop
         id="stop3878-87"
         style="stop-color:#ffffff;stop-opacity:0"
         offset="1" />
    </linearGradient>
    <clipPath
       id="clipPath3860-3">
      <rect
         width="84"
         height="72"
         rx="6"
         ry="6"
         x="6"
         y="18"
         id="rect3862-7"
         style="fill:#ff00ff;fill-opacity:1;fill-rule:nonzero;stroke:none" />
    </clipPath>
    <filter
       x="-0.16558799"
       y="-0.19715989"
       width="1.331176"
       height="1.3943198"
       color-interpolation-filters="sRGB"
       id="filter3870-1">
      <feGaussianBlur
         id="feGaussianBlur3872-9"
         stdDeviation="5.1703125" />
    </filter>
  </defs>
  <sodipodi:namedview
     id="base"
     pagecolor="#ffffff"
     bordercolor="#666666"
     borderopacity="1.0"
     inkscape:pageopacity="0.0"
     inkscape:pageshadow="2"
     inkscape:zoom="3.959798"
     inkscape:cx="36.39115"
     inkscape:cy="42.877139"
     inkscape:document-units="px"
     inkscape:current-layer="layer1"
     showgrid="false"
     inkscape:window-width="1280"
     inkscape:window-height="725"
     inkscape:window-x="0"
     inkscape:window-y="25"
     inkscape:window-maximized="1" />
  <metadata
     id="metadata2987">
    <rdf:RDF>
      <cc:Work
         rdf:about="">
        <dc:format>image/svg+xml</dc:format>
        <dc:type
           rdf:resource="http://purl.org/dc/dcmitype/StillImage" />
        <dc:title></dc:title>
      </cc:Work>
    </rdf:RDF>
  </metadata>
  <g
     inkscape:label="Layer 1"
     inkscape:groupmode="layer"
     id="layer1"
     transform="translate(0,-956.36218)">
    <g
       id="g7207">
      <path
         transform="matrix(1.0210423,0,0,1.0210423,-1.0100318,-21.123619)"
         d="m 17.070652,965.51435 c -2.595687,0 -4.679348,2.03609 -4.679348,4.56522 l 0,3.36685 c -2.158489,1.02387 -3.6521736,3.20738 -3.6521736,5.76359 l 0,57.52169 c 0,3.5408 2.8505216,6.3914 6.3913046,6.3914 l 65.73913,0 c 3.540783,0 6.391305,-2.8506 6.391305,-6.3914 l 0,-57.52169 c 0,-2.56541 -1.509597,-4.74452 -3.680707,-5.76359 -0.154897,-2.39074 -2.156759,-4.27989 -4.650815,-4.27989 l -37.063859,0 c -3.853525,-3.75472 -4.111223,-3.59107 -5.934782,-3.65218 l -18.860055,0 z"
         inkscape:connector-curvature="0"
         id="path3908-1"
         style="fill:#000000;fill-opacity:1;fill-rule:nonzero;stroke:none;display:inline;filter:url(#filter8262)" />
      <rect
         width="69.919197"
         height="58.432476"
         rx="5.5935359"
         ry="5.5935359"
         x="13.073692"
         y="979.75665"
         id="rect3352"
         style="fill:url(#linearGradient6358);fill-opacity:1;fill-rule:nonzero;stroke:none;display:inline" />
      <path
         d="m 17.23555,963.77513 c -2.582349,0 -4.66128,2.07893 -4.66128,4.66128 l 0,55.76059 c 0,2.2311 1.789204,4.0203 4.020354,4.0203 l 62.810749,0 c 2.231149,0 4.020354,-1.7892 4.020354,-4.0203 l 0,-52.03157 c 0,-2.58235 -2.078931,-4.66128 -4.66128,-4.66128 l -37.785502,0 c -3.833725,-3.83373 -4.070676,-3.66664 -5.884866,-3.72902 z"
         inkscape:connector-curvature="0"
         id="path3908"
         style="opacity:0.75;fill:#906e4c;fill-opacity:1;fill-rule:nonzero;stroke:none;display:inline" />
      <rect
         width="78.309502"
         height="70.851456"
         rx="5.5935359"
         ry="5.5935359"
         x="8.8452463"
         y="971.23315"
         id="rect2419"
         style="fill:url(#linearGradient7205);fill-opacity:1;fill-rule:nonzero;stroke:#b49372;stroke-opacity:1" />
      <g
         style="display:inline"
         id="layer5"
         transform="translate(0,952.36218)">
        <path
           style="opacity:0.15;fill:url(#linearGradient6361);fill-opacity:1;fill-rule:nonzero;stroke:none;filter:url(#filter3870-1)"
           id="path3850"
           clip-path="url(#clipPath3860-3)"
           inkscape:connector-curvature="0"
           d="m 15.96875,22.53125 c -2.845903,0.0043 -5.433244,2.591597 -5.4375,5.4375 l 0,48.0625 c 0.0043,2.845903 2.591597,5.433244 5.4375,5.4375 l 64.0625,0 c 2.845903,-0.0043 5.433244,-2.591597 5.4375,-5.4375 l 0,-48.0625 c -0.0043,-2.845903 -2.591597,-5.433244 -5.4375,-5.4375 z" />
      </g>
    </g>
    <path
       style="opacity:0.25;fill:#ffffff;fill-opacity:1;stroke:none;display:inline"
       id="rect2957"
       inkscape:connector-curvature="0"
       d="m 47,984.36218 c -0.554,0 -1,0.446 -1,1 l 0,7.34375 c -2.331167,0.82325 -4,3.04325 -4,5.65625 0,1.28274 0.408105,2.46222 1.09375,3.43752 l -2.5625,8.5625 -4.53125,0 c -0.554,0 -1,0.446 -1,1 0,0.554 0.446,1 1,1 l 3.9375,0 -2.21875,7.4375 c -2.21709,7.4323 -2.279783,13.929 -0.15625,14.5625 l 6.5625,-22 7.78125,0 6.5625,22 c 2.123533,-0.6335 2.06084,-7.1302 -0.15625,-14.5625 l -2.21875,-7.4375 3.90625,0 c 0.554,0 1,-0.446 1,-1 0,-0.554 -0.446,-1 -1,-1 l -4.5,0 -2.5625,-8.5938 C 53.608022,1000.7999 54,999.62936 54,998.36218 c 0,-2.613 -1.668833,-4.833 -4,-5.65625 l 0,-7.34375 c 0,-0.554 -0.446,-1 -1,-1 l -2,0 z m 1,10 c 2.209139,0 4,1.79086 4,4 0,0.32165 -0.05331,0.63782 -0.125,0.9375 -0.04599,0.19224 -0.08362,0.38216 -0.15625,0.5625 -0.06614,0.16372 -0.163714,0.31732 -0.25,0.46872 -0.0069,0.012 -0.02425,0.019 -0.03125,0.031 -0.08536,0.1461 -0.178481,0.3045 -0.28125,0.4375 -0.111333,0.1441 -0.213775,0.2792 -0.34375,0.4062 -0.129975,0.1271 -0.29075,0.2355 -0.4375,0.3438 -0.2935,0.2164 -0.61934,0.4003 -0.96875,0.5312 -0.174705,0.065 -0.345366,0.1148 -0.53125,0.1563 -0.281517,0.063 -0.574557,0.125 -0.875,0.125 -0.286746,0 -0.5741,-0.036 -0.84375,-0.094 -0.246154,-0.052 -0.492656,-0.1238 -0.71875,-0.2187 -0.02134,-0.01 -0.04135,-0.022 -0.0625,-0.031 -0.182004,-0.081 -0.364757,-0.1753 -0.53125,-0.2812 -0.06329,-0.04 -0.12669,-0.081 -0.1875,-0.125 -0.04295,-0.031 -0.08339,-0.061 -0.125,-0.094 -0.112094,-0.087 -0.210417,-0.1826 -0.3125,-0.2812 -0.131263,-0.129 -0.262613,-0.2913 -0.375,-0.4375 -0.05088,-0.066 -0.109517,-0.1181 -0.15625,-0.1875 -0.02564,-0.038 -0.03814,-0.086 -0.0625,-0.125 -0.02843,-0.046 -0.06712,-0.078 -0.09375,-0.125 -0.09638,-0.1677 -0.178359,-0.3494 -0.25,-0.53127 -0.06905,-0.175 -0.111651,-0.34483 -0.15625,-0.53125 C 44.053306,999 44,998.68383 44,998.36218 c 0,-2.20914 1.790861,-4 4,-4 z m -1.40625,9.81252 c 0.451017,0.1083 0.922012,0.1875 1.40625,0.1875 0.505602,0 0.999675,-0.07 1.46875,-0.1875 l 1.84375,6.1875 -6.5625,0 1.84375,-6.1875 z" />
  </g>
</svg>
