<?xml version="1.0" encoding="UTF-8" standalone="no"?>
<!-- Created with Inkscape (http://www.inkscape.org/) -->

<svg
   xmlns:dc="http://purl.org/dc/elements/1.1/"
   xmlns:cc="http://creativecommons.org/ns#"
   xmlns:rdf="http://www.w3.org/1999/02/22-rdf-syntax-ns#"
   xmlns:svg="http://www.w3.org/2000/svg"
   xmlns="http://www.w3.org/2000/svg"
   xmlns:xlink="http://www.w3.org/1999/xlink"
   xmlns:sodipodi="http://sodipodi.sourceforge.net/DTD/sodipodi-0.dtd"
   xmlns:inkscape="http://www.inkscape.org/namespaces/inkscape"
   width="96"
   height="96"
   id="svg2982"
   version="1.1"
   inkscape:version="0.48.1 r9760"
   sodipodi:docname="templat-ikon-96x96.svg">
  <defs
     id="defs2984">
    <filter
       color-interpolation-filters="sRGB"
       inkscape:collect="always"
       id="filter6279-2">
      <feGaussianBlur
         inkscape:collect="always"
         stdDeviation="0.8"
         id="feGaussianBlur6281-1" />
    </filter>
    <linearGradient
       inkscape:collect="always"
       xlink:href="#linearGradient4074"
       id="linearGradient9181"
       gradientUnits="userSpaceOnUse"
       gradientTransform="translate(0,-7.8515622e-6)"
       x1="48"
       y1="1052.3622"
       x2="48"
       y2="902.36218" />
    <linearGradient
       id="linearGradient4074">
      <stop
         id="stop4076-6"
         style="stop-color:#8c8c8c;stop-opacity:1"
         offset="0" />
      <stop
         id="stop4078-2"
         style="stop-color:#f5f5f5;stop-opacity:1"
         offset="1" />
    </linearGradient>
    <linearGradient
       x1="48"
       y1="80"
       x2="48"
       y2="5.9877172"
       id="linearGradient4065"
       xlink:href="#linearGradient3641"
       gradientUnits="userSpaceOnUse" />
    <linearGradient
       id="linearGradient3641">
      <stop
         id="stop3643"
         style="stop-color:#0c0c0c;stop-opacity:1"
         offset="0" />
      <stop
         id="stop3645"
         style="stop-color:#373737;stop-opacity:1"
         offset="1" />
    </linearGradient>
    <linearGradient
       x1="47"
       y1="23"
       x2="47"
       y2="17"
       id="linearGradient4241-2"
       xlink:href="#linearGradient4235"
       gradientUnits="userSpaceOnUse"
       gradientTransform="translate(0,-2)" />
    <linearGradient
       id="linearGradient4235">
      <stop
         id="stop4237"
         style="stop-color:#5dbc1e;stop-opacity:1"
         offset="0" />
      <stop
         id="stop4239"
         style="stop-color:#acc837;stop-opacity:1"
         offset="1" />
    </linearGradient>
    <linearGradient
       x1="16.162441"
       y1="44.48222"
       x2="76.771591"
       y2="44.48222"
       id="linearGradient3707"
       xlink:href="#linearGradient4127"
       gradientUnits="userSpaceOnUse" />
    <linearGradient
       id="linearGradient4127">
      <stop
         id="stop4129"
         style="stop-color:#a4a4a4;stop-opacity:1"
         offset="0" />
      <stop
         id="stop4131"
         style="stop-color:#bfbfbf;stop-opacity:1"
         offset="1" />
    </linearGradient>
    <linearGradient
       x1="16.162441"
       y1="44.48222"
       x2="76.771591"
       y2="44.48222"
       id="linearGradient3744-8"
       xlink:href="#linearGradient3746-3"
       gradientUnits="userSpaceOnUse" />
    <linearGradient
       id="linearGradient3746-3">
      <stop
         id="stop3748-8"
         style="stop-color:#4c4c4c;stop-opacity:1"
         offset="0" />
      <stop
         id="stop3753-0"
         style="stop-color:#0a0a0a;stop-opacity:1"
         offset="0.60000002" />
      <stop
         id="stop3751"
         style="stop-color:#4e4e4e;stop-opacity:1"
         offset="1" />
    </linearGradient>
    <linearGradient
       x1="15.343399"
       y1="44.48222"
       x2="77.590637"
       y2="44.48222"
       id="linearGradient4139"
       xlink:href="#linearGradient4133"
       gradientUnits="userSpaceOnUse" />
    <linearGradient
       id="linearGradient4133">
      <stop
         id="stop4135"
         style="stop-color:#1a1a1a;stop-opacity:1"
         offset="0" />
      <stop
         id="stop4137"
         style="stop-color:#292929;stop-opacity:1"
         offset="1" />
    </linearGradient>
    <radialGradient
       cx="47.729706"
       cy="45.997448"
       r="13.637059"
       fx="47.729706"
       fy="45.997448"
       id="radialGradient3687"
       xlink:href="#linearGradient3681"
       gradientUnits="userSpaceOnUse" />
    <linearGradient
       id="linearGradient3681">
      <stop
         id="stop3683-4"
         style="stop-color:#ffffff;stop-opacity:0.18548387"
         offset="0" />
      <stop
         id="stop3689"
         style="stop-color:#ffffff;stop-opacity:0.10887097"
         offset="0.3086735" />
      <stop
         id="stop3691"
         style="stop-color:#000000;stop-opacity:0"
         offset="0.43622452" />
      <stop
         id="stop3693"
         style="stop-color:#000000;stop-opacity:0"
         offset="0.54464293" />
      <stop
         id="stop3695"
         style="stop-color:#ffffff;stop-opacity:0"
         offset="0.58290821" />
      <stop
         id="stop3697-0"
         style="stop-color:#000000;stop-opacity:0.1814516"
         offset="0.61479598" />
      <stop
         id="stop3699-9"
         style="stop-color:#000000;stop-opacity:0.43145162"
         offset="0.69132656" />
      <stop
         id="stop3701-1"
         style="stop-color:#ffffff;stop-opacity:0.08064516"
         offset="0.78061229" />
      <stop
         id="stop3703"
         style="stop-color:#000000;stop-opacity:0"
         offset="0.87627554" />
      <stop
         id="stop3685-9"
         style="stop-color:#ffffff;stop-opacity:0"
         offset="1" />
    </linearGradient>
    <linearGradient
       x1="33.199345"
       y1="45.997448"
       x2="67.957489"
       y2="45.997448"
       id="linearGradient3733"
       xlink:href="#linearGradient3727-6"
       gradientUnits="userSpaceOnUse" />
    <linearGradient
       id="linearGradient3727-6">
      <stop
         id="stop3729-2"
         style="stop-color:#ffffff;stop-opacity:1"
         offset="0" />
      <stop
         id="stop3731-5"
         style="stop-color:#ffffff;stop-opacity:0"
         offset="1" />
    </linearGradient>
    <filter
       color-interpolation-filters="sRGB"
       id="filter3774">
      <feGaussianBlur
         id="feGaussianBlur3776"
         stdDeviation="0.27274118" />
    </filter>
    <linearGradient
       x1="40.068184"
       y1="58.17598"
       x2="31.793724"
       y2="49.665066"
       id="linearGradient3767"
       xlink:href="#linearGradient3761"
       gradientUnits="userSpaceOnUse" />
    <linearGradient
       id="linearGradient3761">
      <stop
         id="stop3763"
         style="stop-color:#ffffff;stop-opacity:1"
         offset="0" />
      <stop
         id="stop3765"
         style="stop-color:#ffffff;stop-opacity:0"
         offset="1" />
    </linearGradient>
    <linearGradient
       x1="40.068184"
       y1="58.17598"
       x2="40.068184"
       y2="41.697067"
       id="linearGradient3771"
       xlink:href="#linearGradient3761"
       gradientUnits="userSpaceOnUse" />
    <linearGradient
       id="linearGradient7111">
      <stop
         id="stop7113"
         style="stop-color:#ffffff;stop-opacity:1"
         offset="0" />
      <stop
         id="stop7115"
         style="stop-color:#ffffff;stop-opacity:0"
         offset="1" />
    </linearGradient>
    <linearGradient
       x1="40.068184"
       y1="58.17598"
       x2="40.068184"
       y2="41.697067"
       id="linearGradient3775"
       xlink:href="#linearGradient3761"
       gradientUnits="userSpaceOnUse" />
    <linearGradient
       id="linearGradient7118">
      <stop
         id="stop7120"
         style="stop-color:#ffffff;stop-opacity:1"
         offset="0" />
      <stop
         id="stop7122"
         style="stop-color:#ffffff;stop-opacity:0"
         offset="1" />
    </linearGradient>
    <linearGradient
       x1="40.068184"
       y1="58.17598"
       x2="40.068184"
       y2="41.697067"
       id="linearGradient3779-0"
       xlink:href="#linearGradient3761"
       gradientUnits="userSpaceOnUse" />
    <linearGradient
       id="linearGradient7125">
      <stop
         id="stop7127"
         style="stop-color:#ffffff;stop-opacity:1"
         offset="0" />
      <stop
         id="stop7129"
         style="stop-color:#ffffff;stop-opacity:0"
         offset="1" />
    </linearGradient>
    <linearGradient
       x1="40.068184"
       y1="58.17598"
       x2="40.068184"
       y2="41.697067"
       id="linearGradient3791-9"
       xlink:href="#linearGradient3761"
       gradientUnits="userSpaceOnUse" />
    <linearGradient
       id="linearGradient7132">
      <stop
         id="stop7134"
         style="stop-color:#ffffff;stop-opacity:1"
         offset="0" />
      <stop
         id="stop7136"
         style="stop-color:#ffffff;stop-opacity:0"
         offset="1" />
    </linearGradient>
    <linearGradient
       x1="64.072342"
       y1="64.036171"
       x2="46.604744"
       y2="46.568573"
       id="linearGradient4192"
       xlink:href="#linearGradient3761"
       gradientUnits="userSpaceOnUse" />
    <linearGradient
       id="linearGradient7139">
      <stop
         id="stop7141"
         style="stop-color:#ffffff;stop-opacity:1"
         offset="0" />
      <stop
         id="stop7143"
         style="stop-color:#ffffff;stop-opacity:0"
         offset="1" />
    </linearGradient>
    <radialGradient
       cx="41"
       cy="52"
       r="9.7082043"
       fx="41"
       fy="52"
       id="radialGradient3803"
       xlink:href="#linearGradient3797"
       gradientUnits="userSpaceOnUse"
       gradientTransform="matrix(1,0,0,0.61803397,0,19.862234)" />
    <linearGradient
       id="linearGradient3797">
      <stop
         id="stop3799-7"
         style="stop-color:#ffffff;stop-opacity:1"
         offset="0" />
      <stop
         id="stop3805-4"
         style="stop-color:#ffffff;stop-opacity:1"
         offset="0.5" />
      <stop
         id="stop3801-3"
         style="stop-color:#ffffff;stop-opacity:0"
         offset="1" />
    </linearGradient>
  </defs>
  <sodipodi:namedview
     id="base"
     pagecolor="#ffffff"
     bordercolor="#666666"
     borderopacity="1.0"
     inkscape:pageopacity="0.0"
     inkscape:pageshadow="2"
     inkscape:zoom="3.959798"
     inkscape:cx="36.39115"
     inkscape:cy="42.877139"
     inkscape:document-units="px"
     inkscape:current-layer="layer1"
     showgrid="false"
     inkscape:window-width="1280"
     inkscape:window-height="725"
     inkscape:window-x="0"
     inkscape:window-y="25"
     inkscape:window-maximized="1" />
  <metadata
     id="metadata2987">
    <rdf:RDF>
      <cc:Work
         rdf:about="">
        <dc:format>image/svg+xml</dc:format>
        <dc:type
           rdf:resource="http://purl.org/dc/dcmitype/StillImage" />
        <dc:title></dc:title>
      </cc:Work>
    </rdf:RDF>
  </metadata>
  <g
     inkscape:label="Layer 1"
     inkscape:groupmode="layer"
     id="layer1"
     transform="translate(0,-956.36218)">
    <g
       id="g7018">
      <rect
         transform="translate(0,-7.8515622e-6)"
         y="964.36218"
         x="8"
         height="80"
         width="80"
         id="rect9283"
         style="fill:#000000;fill-opacity:1;stroke:none;filter:url(#filter6279-2)"
         rx="5"
         ry="5" />
      <rect
         ry="5"
         rx="5"
         style="fill:url(#linearGradient9181);fill-opacity:1;stroke:none"
         id="rect9285"
         width="80"
         height="80"
         x="8"
         y="964.36218" />
      <g
         id="g3171"
         transform="matrix(0.70311328,0,0,0.70311328,14.250563,974.11312)">
        <path
           d="M 31.21875,6 C 28.106818,18.061157 16.646384,26.714381 16.03125,46.34375 16.003603,46.889164 16,47.447715 16,48 16,65.673112 30.326888,80 48,80 65.673112,80 80,65.673112 80,48 80,47.447715 79.996397,46.889164 79.96875,46.34375 79.353616,26.714381 67.893182,18.061157 64.78125,6 l -33.5625,0 z"
           inkscape:connector-curvature="0"
           id="rect4063"
           style="fill:url(#linearGradient4065);fill-opacity:1;fill-rule:nonzero;stroke:none;display:inline" />
        <path
           d="m 16,47.5 c -0.0012,0.167276 0,0.333332 0,0.5 0,17.673112 14.326888,32 32,32 17.673112,0 32,-14.326888 32,-32 0,-0.166668 0.0012,-0.332724 0,-0.5 C 79.733293,64.942958 65.506444,79 48,79 30.493556,79 16.266707,64.942958 16,47.5 z"
           inkscape:connector-curvature="0"
           id="path4082"
           style="fill:#000000;fill-opacity:1;fill-rule:nonzero;stroke:none;display:inline" />
        <path
           d="m 42,21 6,-2 6,2 -6,-6 z"
           inkscape:connector-curvature="0"
           id="path4225"
           style="fill:url(#linearGradient4241-2);fill-opacity:1;stroke:none;display:inline" />
        <path
           d="M 48,14 42,20 43.5,19.5 48,15 52.5,19.5 54,20 48,14 z"
           inkscape:connector-curvature="0"
           id="path4243"
           style="opacity:0.4;fill:#000000;fill-opacity:1;stroke:none;display:inline" />
        <path
           d="M 48,15 42,21 43.5,20.5 48,16 52.5,20.5 54,21 48,15 z"
           inkscape:connector-curvature="0"
           id="path4252"
           style="opacity:0.3;fill:#ffffff;fill-opacity:1;stroke:none;display:inline" />
        <g
           id="layer3"
           style="display:inline">
          <path
             d="m 46.46875,10.375 c -18.81247,0 -34.125,15.276639 -34.125,34.09375 0,18.816893 15.308107,34.125 34.125,34.125 18.816893,0 34.125,-15.308107 34.125,-34.125 0,-18.817111 -15.31253,-34.09375 -34.125,-34.09375 z"
             transform="matrix(0,-0.75896127,-0.75896127,0,81.760282,84.266667)"
             id="path4184"
             style="opacity:0.05;fill:#000000;fill-opacity:1;stroke:none"
             inkscape:connector-curvature="0" />
          <path
             d="m 46.46875,11.75 c -18.061089,0 -32.75,14.654652 -32.75,32.71875 0,18.064028 14.685972,32.75 32.75,32.75 18.064028,0 32.75,-14.685972 32.75,-32.75 0,-18.064098 -14.688911,-32.71875 -32.75,-32.71875 z"
             transform="matrix(0,-0.75896127,-0.75896127,0,81.760282,84.266667)"
             id="path4180"
             style="opacity:0.07999998;fill:#000000;fill-opacity:1;stroke:none"
             inkscape:connector-curvature="0" />
          <path
             d="m 46.46875,12.8125 c -17.480704,0 -31.6875,14.17383 -31.6875,31.65625 0,17.48242 14.20508,31.6875 31.6875,31.6875 17.48242,0 31.6875,-14.20508 31.6875,-31.6875 0,-17.48242 -14.206796,-31.65625 -31.6875,-31.65625 z"
             transform="matrix(0,-0.75896127,-0.75896127,0,81.760282,84.266667)"
             id="path4176"
             style="opacity:0.15;fill:#000000;fill-opacity:1;stroke:none"
             inkscape:connector-curvature="0" />
          <path
             d="m 76.771595,44.48222 a 30.304577,30.304577 0 1 1 -60.609154,0 30.304577,30.304577 0 1 1 60.609154,0 z"
             transform="matrix(0,-0.75896127,-0.75896127,0,81.760282,84.266667)"
             id="path4170"
             style="opacity:0.3;fill:#000000;fill-opacity:1;stroke:none"
             inkscape:connector-curvature="0" />
          <path
             d="m 76.771595,44.48222 a 30.304577,30.304577 0 1 1 -60.609154,0 30.304577,30.304577 0 1 1 60.609154,0 z"
             transform="matrix(0,-0.75896127,-0.75896127,0,81.760282,83.266667)"
             id="path3697"
             style="fill:url(#linearGradient3707);fill-opacity:1;stroke:none"
             inkscape:connector-curvature="0" />
          <path
             d="m 76.771595,44.48222 a 30.304577,30.304577 0 1 1 -60.609154,0 30.304577,30.304577 0 1 1 60.609154,0 z"
             transform="matrix(0,0.61046884,-0.61046884,0,75.155009,19.633333)"
             id="path3742"
             style="fill:url(#linearGradient3744-8);fill-opacity:1;stroke:url(#linearGradient4139);stroke-width:1.63808525;stroke-miterlimit:4;stroke-dasharray:none"
             inkscape:connector-curvature="0" />
          <path
             d="m 48,25 c -12.702549,0 -23,10.297451 -23,23 0,0.167023 -0.0035,0.333826 0,0.5 C 25.265891,36.028237 35.464474,26 48,26 60.535526,26 70.734109,36.028237 71,48.5 71.003543,48.333826 71,48.167023 71,48 71,35.297451 60.702549,25 48,25 z M 29.03125,48.5 C 29.026845,48.668301 29,48.830636 29,49 29,59.49341 37.50659,68 48,68 58.49341,68 67,59.49341 67,49 67,48.830636 66.973155,48.668301 66.96875,48.5 66.70026,58.759276 58.324046,67 48,67 37.675954,67 29.29974,58.759276 29.03125,48.5 z"
             inkscape:connector-curvature="0"
             id="path4158"
             style="opacity:0.3;fill:#ffffff;fill-opacity:1;stroke:none" />
        </g>
        <g
           id="layer4"
           style="display:inline">
          <path
             d="m 61.366765,45.997448 a 13.637059,13.637059 0 1 1 -27.274118,0 13.637059,13.637059 0 1 1 27.274118,0 z"
             transform="matrix(1.0266143,0,0,1.0266143,-0.999999,0.7783622)"
             id="path3757"
             style="fill:#000000;fill-opacity:1;stroke:none"
             inkscape:connector-curvature="0" />
          <path
             d="M 47.5,33 C 39.491871,33 33,39.491871 33,47.5 33,55.508129 39.491871,62 47.5,62 c 0.08504,0 0.165309,0.0015 0.25,0 C 40.133878,61.866031 34,55.648102 34,48 c 0,-7.731986 6.268014,-14 14,-14 7.648102,0 13.866031,6.133878 14,13.75 0.0015,-0.08469 0,-0.164961 0,-0.25 C 62,39.491871 55.508129,33 47.5,33 z"
             inkscape:connector-curvature="0"
             id="path3760"
             style="opacity:0.6;fill:#000000;fill-opacity:1;stroke:none" />
          <path
             d="m 61.366765,45.997448 a 13.637059,13.637059 0 1 1 -27.274118,0 13.637059,13.637059 0 1 1 27.274118,0 z"
             transform="matrix(1.0266143,0,0,1.0266143,-0.999999,0.778362)"
             id="path2907"
             style="fill:url(#radialGradient3687);fill-opacity:1;stroke:none"
             inkscape:connector-curvature="0" />
          <path
             d="m 61.366765,45.997448 a 13.637059,13.637059 0 1 1 -27.274118,0 13.637059,13.637059 0 1 1 27.274118,0 z"
             transform="matrix(0,0.97161711,-0.97161711,0,92.69191,1.6250011)"
             id="path3705"
             style="fill:none;stroke:url(#linearGradient3733);stroke-width:0.514606;stroke-miterlimit:4;stroke-opacity:1;stroke-dasharray:none;filter:url(#filter3774)"
             inkscape:connector-curvature="0" />
          <path
             d="m 41.34375,47.375 c 0.07082,-0.767299 0.285421,-1.486362 0.59375,-2.15625 L 37.34375,42.8125 c -0.603997,1.243084 -1.018186,2.621977 -1.15625,4.0625 l 5.15625,0.5 z m 1.375,-3.4375 c 1.071033,-1.389071 2.667628,-2.34897 4.5,-2.5625 L 46.625,36.21875 c -3.598468,0.417087 -6.654118,2.435762 -8.53125,5.3125 l 4.625,2.40625 z"
             inkscape:connector-curvature="0"
             id="path3735"
             style="opacity:0.6;fill:#ffffff;fill-opacity:1;stroke:none" />
          <path
             d="m 50.708204,52 a 9.7082043,6 0 1 1 -19.416408,0 9.7082043,6 0 1 1 19.416408,0 z"
             transform="matrix(0.58268801,-0.58268801,0.58268801,0.58268801,-0.74355667,46.935862)"
             id="path3759"
             style="opacity:0.4314516;fill:url(#linearGradient3767);fill-opacity:1;stroke:none"
             inkscape:connector-curvature="0" />
          <path
             d="m 50.708204,52 a 9.7082043,6 0 1 1 -19.416408,0 9.7082043,6 0 1 1 19.416408,0 z"
             transform="matrix(0.15076894,-0.15076894,0.15076894,0.15076894,37.387737,49.649792)"
             id="path3769"
             style="opacity:0.3;fill:url(#linearGradient3771);fill-opacity:1;stroke:none"
             inkscape:connector-curvature="0" />
          <path
             d="m 50.708204,52 a 9.7082043,6 0 1 1 -19.416408,0 9.7082043,6 0 1 1 19.416408,0 z"
             transform="matrix(-0.10757707,0.10757707,-0.10757707,-0.10757707,55.999137,47.076819)"
             id="path3773"
             style="opacity:0.3;fill:url(#linearGradient3775);fill-opacity:1;stroke:none"
             inkscape:connector-curvature="0" />
          <path
             d="m 50.708204,52 a 9.7082043,6 0 1 1 -19.416408,0 9.7082043,6 0 1 1 19.416408,0 z"
             transform="matrix(-0.19358861,0.19358861,-0.19358861,-0.19358861,59.194255,43.21899)"
             id="path3777"
             style="opacity:0.4314516;fill:url(#linearGradient3779-0);fill-opacity:1;stroke:none"
             inkscape:connector-curvature="0" />
          <path
             d="m 50.708204,52 a 9.7082043,6 0 1 1 -19.416408,0 9.7082043,6 0 1 1 19.416408,0 z"
             transform="matrix(0.08968638,-0.08968638,0.08968638,0.08968638,40.497472,47.750757)"
             id="path3789"
             style="opacity:0.6;fill:url(#linearGradient3791-9);fill-opacity:1;stroke:none"
             inkscape:connector-curvature="0" />
          <path
             d="m 48,32 c -8.836556,0 -16,7.163444 -16,16 0,8.836556 7.163444,16 16,16 8.836556,0 16,-7.163444 16,-16 0,-8.836556 -7.163444,-16 -16,-16 z m 0,1 c 8.284271,0 15,6.715729 15,15 0,8.284271 -6.715729,15 -15,15 -8.284271,0 -15,-6.715729 -15,-15 0,-8.284271 6.715729,-15 15,-15 z"
             inkscape:connector-curvature="0"
             id="path3806"
             style="opacity:0.5;fill:url(#linearGradient4192);fill-opacity:1;stroke:none;display:inline" />
        </g>
        <g
           id="layer6"
           style="display:inline">
          <path
             d="m 50.708204,52 a 9.7082043,6 0 1 1 -19.416408,0 9.7082043,6 0 1 1 19.416408,0 z"
             transform="matrix(0.23287504,-0.23287504,0.23287504,0.23287504,33.266783,52.13527)"
             id="path3793"
             style="fill:url(#radialGradient3803);fill-opacity:1;stroke:none;display:inline"
             inkscape:connector-curvature="0" />
          <path
             d="m 61.366765,45.997448 a 13.637059,13.637059 0 1 1 -27.274118,0 13.637059,13.637059 0 1 1 27.274118,0 z"
             transform="matrix(1.0266143,0,0,1.0266143,-0.999999,0.7783622)"
             id="path3285"
             style="opacity:0.3;fill:#5f8dd3;fill-opacity:1;stroke:none;display:inline"
             inkscape:connector-curvature="0" />
        </g>
      </g>
    </g>
  </g>
</svg>
