<?xml version="1.0" encoding="UTF-8" standalone="no"?>
<!-- Created with Inkscape (http://www.inkscape.org/) -->
<svg id="svg2982" xmlns:rdf="http://www.w3.org/1999/02/22-rdf-syntax-ns#" xmlns="http://www.w3.org/2000/svg" height="96" width="96" version="1.1" xmlns:cc="http://creativecommons.org/ns#" xmlns:xlink="http://www.w3.org/1999/xlink" xmlns:dc="http://purl.org/dc/elements/1.1/">
 <defs id="defs2984">
  <filter id="filter6279-2" color-interpolation-filters="sRGB">
   <feGaussianBlur id="feGaussianBlur6281-1" stdDeviation="0.8"/>
  </filter>
  <linearGradient id="linearGradient3721-3" x1="32.251" gradientUnits="userSpaceOnUse" y1="6.1317" gradientTransform="translate(0,-97)" x2="32.251" y2="90.239">
   <stop id="stop3750-8-79" offset="0"/>
   <stop id="stop3752-5-37" style="stop-opacity:.58824" offset="1"/>
  </linearGradient>
  <linearGradient id="linearGradient3617-8" x1="32" gradientUnits="userSpaceOnUse" y1="88" gradientTransform="translate(0,-96)" x2="32" y2="-8">
   <stop id="stop4329" style="stop-color:#f0f0f0" offset="0"/>
   <stop id="stop4331-7" style="stop-color:#b4b4b4" offset="1"/>
  </linearGradient>
  <clipPath id="clipPath3919-4">
   <rect id="rect3921-3" style="fill:#f0f" transform="scale(1,-1)" rx="6.1" ry="6.1" height="76" width="84" y="-82" x="6"/>
  </clipPath>
  <filter id="filter3927-5" width="1.432" y="-.27" x="-.216" height="1.54" color-interpolation-filters="sRGB">
   <feGaussianBlur id="feGaussianBlur3929-0" stdDeviation="7.2000001"/>
  </filter>
  <linearGradient id="linearGradient6653" x1="48" gradientUnits="userSpaceOnUse" y1="88" gradientTransform="matrix(1,0,0,-1,0,92)" x2="48" y2="-40">
   <stop id="stop4386" style="stop-color:#fff" offset="0"/>
   <stop id="stop4388" style="stop-color:#fff;stop-opacity:0" offset="1"/>
  </linearGradient>
  <linearGradient id="linearGradient3140-4" x1="90" spreadMethod="reflect" gradientUnits="userSpaceOnUse" y1="88" x2="48" y2="88">
   <stop id="stop3894-4" style="stop-opacity:.58824" offset="0"/>
   <stop id="stop3896-3" style="stop-opacity:.47059" offset=".1178"/>
   <stop id="stop3898-3" style="stop-opacity:.39216" offset=".2381"/>
   <stop id="stop3900-6" style="stop-opacity:.31373" offset="1"/>
  </linearGradient>
  <linearGradient id="linearGradient3613-98" y2="138.66" gradientUnits="userSpaceOnUse" y1="20.221" x2="48" x1="48">
   <stop id="stop3739-84" style="stop-color:#fff" offset="0"/>
   <stop id="stop3741-37" style="stop-color:#fff;stop-opacity:0" offset="1"/>
  </linearGradient>
  <clipPath id="clipPath4355-1">
   <rect id="rect4357-3" style="fill:#fff" rx="6" ry="6" height="80" width="84" y="6" x="6"/>
  </clipPath>
  <filter id="filter3794-80" width="1.384" y="-.192" x="-.192" height="1.384" color-interpolation-filters="sRGB">
   <feGaussianBlur id="feGaussianBlur3796-97" stdDeviation="5.28"/>
  </filter>
  <clipPath id="clipPath3807">
   <path id="path3809" style="fill:url(#linearGradient3811)" d="m112 6c-3.324 0-6 2.676-6 6v58c0 3.324 2.676 6 6 6h72c3.324 0 6-2.676 6-6v-58c0-3.324-2.676-6-6-6h-72zm36 18 16 18h-32l16-18zm-16 22h32v8h-32v-8z"/>
  </clipPath>
  <filter id="filter3813" width="1.372" y="-.1984" x="-.186" height="1.3968" color-interpolation-filters="sRGB">
   <feGaussianBlur id="feGaussianBlur3815" stdDeviation="2.48"/>
  </filter>
  <linearGradient id="linearGradient3761" x1="48" gradientUnits="userSpaceOnUse" y1="51.959" gradientTransform="translate(0,2)" x2="48" y2="24">
   <stop id="stop3769-8" style="stop-color:#4d4d4d;stop-opacity:.70732" offset="0"/>
   <stop id="stop3771-9" style="stop-color:#4d4d4d;stop-opacity:.25203" offset="1"/>
  </linearGradient>
 </defs>
 <metadata id="metadata2987">
  <rdf:RDF>
   <cc:Work rdf:about="">
    <dc:format>image/svg+xml</dc:format>
    <dc:type rdf:resource="http://purl.org/dc/dcmitype/StillImage"/>
    <dc:title/>
   </cc:Work>
  </rdf:RDF>
 </metadata>
 <g id="layer1" transform="translate(0 -956.36)">
  <g id="g7590" transform="translate(0 956.36)">
   <rect id="rect9283" style="filter:url(#filter6279-2)" transform="translate(0 -956.36)" rx="5" ry="5" height="80" width="80" y="964.36" x="8"/>
   <g id="g7492">
    <g id="g7468">
     <g id="layer3">
      <rect id="rect3716" style="opacity:.45;fill:url(#linearGradient3721-3)" rx="6" transform="scale(1,-1)" ry="6" width="84" y="-91" x="6" height="84"/>
     </g>
     <g id="layer1-9">
      <rect id="rect2419" style="fill:url(#linearGradient3617-8)" rx="6.1" transform="scale(1,-1)" ry="6.1" width="84" y="-90" x="6" height="84"/>
     </g>
     <g id="layer7">
      <g id="g3915" style="opacity:.2;filter:url(#filter3927-5)" clip-path="url(#clipPath3919-4)">
       <path id="path3911" style="opacity:.35656;color:#000000" transform="matrix(1.25,0,0,1,-12,0)" d="m48 36a16 20 0 1 1 -32 0 16 20 0 1 1 32 0z"/>
       <path id="path3913" style="opacity:.2;color:#000000" transform="matrix(1.1667 0 0 1 -5.3333 0)" d="m80 52a24 28 0 1 1 -48 0 24 28 0 1 1 48 0z"/>
      </g>
     </g>
     <g id="layer8">
      <path id="rect4028" style="opacity:.15;fill:#fff" d="m6 73.906v2c0 3.38 2.7144 6.094 6.094 6.094h71.812c3.38 0 6.094-2.714 6.094-6.094v-2c0 3.38-2.714 6.094-6.094 6.094h-71.812c-3.3796 0-6.094-2.714-6.094-6.094z"/>
      <path id="rect4377" style="opacity:.8;fill:url(#linearGradient6653)" d="m12 82c-3.324 0-6-2.676-6-6v-64c0-3.324 2.676-6 6-6h72c3.324 0 6 2.676 6 6v64c0 3.324-2.676 6-6 6zm0-0.96875h72c2.8049 0 5.0312-2.2264 5.0312-5.0312v-64c0-2.8049-2.226-5.0312-5.031-5.0312h-72c-2.8049 0-5.0312 2.2263-5.0312 5.0312v64c0 2.8049 2.2264 5.0312 5.0312 5.0312z"/>
     </g>
     <g id="layer4">
      <g id="g6998">
       <path id="path3888" style="opacity:.5;fill:url(#linearGradient3140-4)" d="m6 76v8c0 3.324 2.676 6 6 6h72c3.324 0 6-2.676 6-6v-8c0 3.324-2.676 6-6 6h-72c-3.324 0-6-2.676-6-6z"/>
       <path id="path4010" style="opacity:.8" d="m6 78v4c0 3.324 2.676 6 6 6h72c3.324 0 6-2.676 6-6v-4c0 3.324-2.676 6-6 6h-72c-3.324 0-6-2.676-6-6z"/>
       <path id="path4054" style="opacity:.4;fill:#fff" d="m6 82v1c0 3.324 2.676 6 6 6h72c3.324 0 6-2.676 6-6v-1c0 3.324-2.676 6-6 6h-72c-3.324 0-6-2.676-6-6z"/>
       <path id="path4059" style="opacity:.2" d="m6 77v1c0 3.324 2.676 6 6 6h72c3.324 0 6-2.676 6-6v-1c0 3.324-2.676 6-6 6h-72c-3.324 0-6-2.676-6-6z"/>
      </g>
     </g>
     <rect id="rect3171" style="opacity:.2;filter:url(#filter3794-80);stroke:#fff;stroke-linecap:round;stroke-width:.5;fill:url(#linearGradient3613-98)" clip-path="url(#clipPath4355-1)" rx="12" ry="12" height="62" width="66" y="15" x="15"/>
     <g id="layer4-2">
      <path id="path3798" style="opacity:.8;filter:url(#filter3813);stroke:#fff;stroke-width:3;fill:none" clip-path="url(#clipPath3807)" transform="translate(-100)" d="m148 24-16 18h32l-16-18zm-16 22v8h32v-8h-32z"/>
      <path id="rect3750" style="fill:url(#linearGradient3761)" d="m48 24-16 18h32l-16-18zm-16 22v8h32v-8h-32z"/>
      <path id="path3763" style="opacity:.4" d="m48 24-16 18h0.875l15.125-17 15.125 17h0.875l-16-18zm-16 22v1h32v-1h-32z"/>
     </g>
    </g>
   </g>
  </g>
 </g>
</svg>
