<?xml version="1.0" encoding="UTF-8" standalone="no"?>
<!-- Created with Inkscape (http://www.inkscape.org/) -->
<svg id="svg6307" xmlns:rdf="http://www.w3.org/1999/02/22-rdf-syntax-ns#" xmlns="http://www.w3.org/2000/svg" height="96" width="96" version="1.1" xmlns:cc="http://creativecommons.org/ns#" xmlns:xlink="http://www.w3.org/1999/xlink" xmlns:dc="http://purl.org/dc/elements/1.1/">
 <defs id="defs6309">
  <filter id="filter6279" color-interpolation-filters="sRGB">
   <feGaussianBlur id="feGaussianBlur6281" stdDeviation="0.8"/>
  </filter>
  <linearGradient id="linearGradient9768" y2="902.36" gradientUnits="userSpaceOnUse" x2="48" gradientTransform="translate(0 -.0000078516)" y1="1052.4" x1="48">
   <stop id="stop3201-00" style="stop-color:#e5a824" offset="0"/>
   <stop id="stop3203-40" style="stop-color:#ffe680" offset="1"/>
  </linearGradient>
  <linearGradient id="linearGradient23608" y2="59" xlink:href="#linearGradient3354" gradientUnits="userSpaceOnUse" x2="75.25" gradientTransform="translate(-113.72 970.25)" y1="59" x1="68.75"/>
  <linearGradient id="linearGradient3354">
   <stop id="stop3356-9" style="stop-color:#b4b4b4" offset="0"/>
   <stop id="stop3362-7" style="stop-color:#646464" offset=".20467"/>
   <stop id="stop3364-5" style="stop-color:#fff" offset=".49568"/>
   <stop id="stop3358" style="stop-color:#3c3c3c" offset="1"/>
  </linearGradient>
  <clipPath id="clipPath3235">
   <path id="path3237" d="m66 6v55c0 1.662 1.338 3 3 3h6c1.662 0 3-1.338 3-3v-55h-4v2h-4v-2h-4z" style="fill:#fff"/>
  </clipPath>
  <filter id="filter3243" width="1.3323" y="-.03661" x="-.16615" height="1.0732" color-interpolation-filters="sRGB">
   <feGaussianBlur id="feGaussianBlur3245" stdDeviation="0.9"/>
  </filter>
  <filter id="filter3429" width="1.3237" y="-.095354" x="-.16183" height="1.1907" color-interpolation-filters="sRGB">
   <feGaussianBlur id="feGaussianBlur3431" stdDeviation="0.53551312"/>
  </filter>
  <linearGradient id="linearGradient23614" y2="17.763" xlink:href="#linearGradient3435" gradientUnits="userSpaceOnUse" x2="75.971" gradientTransform="translate(-113.72 969.25)" y1="17.763" x1="68.029"/>
  <linearGradient id="linearGradient3435">
   <stop id="stop3437-6" style="stop-color:#ededed" offset="0"/>
   <stop id="stop3439" style="stop-color:#b0b0b0" offset="1"/>
  </linearGradient>
  <linearGradient id="linearGradient23616" y2="17.5" xlink:href="#linearGradient3435" gradientUnits="userSpaceOnUse" x2="75.062" gradientTransform="matrix(-1 0 0 1 30.311 969.25)" y1="17.5" x1="68.969"/>
  <linearGradient id="linearGradient23618" y2="59" xlink:href="#linearGradient3354" gradientUnits="userSpaceOnUse" x2="72.251" gradientTransform="matrix(1.1263 0 0 1 -121.12 921.75)" y1="59" x1="68.75"/>
  <linearGradient id="linearGradient9977" y2="138.66" gradientUnits="userSpaceOnUse" x2="48" y1="20.221" x1="48">
   <stop id="stop3739-89" style="stop-color:#fff" offset="0"/>
   <stop id="stop3741-02" style="stop-color:#fff;stop-opacity:0" offset="1"/>
  </linearGradient>
  <clipPath id="clipPath3613-47">
   <rect id="rect3615-657" style="fill:#fff" rx="6" ry="6" height="84" width="84" y="6" x="6"/>
  </clipPath>
  <filter id="filter3794-13" width="1.384" y="-.192" x="-.192" height="1.384" color-interpolation-filters="sRGB">
   <feGaussianBlur id="feGaussianBlur3796-33" stdDeviation="5.28"/>
  </filter>
  <linearGradient id="linearGradient3386" y2="54" gradientUnits="userSpaceOnUse" x2="73" gradientTransform="translate(-113.72 970.25)" y1="54" x1="69">
   <stop id="stop3292-7" style="stop-color:#fff" offset="0"/>
   <stop id="stop3304-8" style="stop-color:#8c8c8c" offset=".48973"/>
   <stop id="stop3306-5" style="stop-color:#cfcfcf" offset=".50045"/>
   <stop id="stop3298-3" style="stop-color:#fff" offset=".62277"/>
   <stop id="stop3300-3" style="stop-color:#c8c8c8" offset=".81696"/>
   <stop id="stop3294-8" style="stop-color:#505050" offset="1"/>
  </linearGradient>
  <linearGradient id="linearGradient3388" y2="54" gradientUnits="userSpaceOnUse" x2="73" gradientTransform="matrix(-1 0 0 1 30.281 967.25)" y1="54" x1="69">
   <stop id="stop3606" style="stop-color:#2f2f2f" offset="0"/>
   <stop id="stop3608" style="stop-color:#fff" offset=".43731"/>
   <stop id="stop3610" style="stop-color:#979797" offset=".62138"/>
   <stop id="stop3612-2" style="stop-color:#505050" offset=".77232"/>
   <stop id="stop3614-2" style="stop-color:#e6e6e6" offset="1"/>
  </linearGradient>
 </defs>
 <metadata id="metadata6312">
  <rdf:RDF>
   <cc:Work rdf:about="">
    <dc:format>image/svg+xml</dc:format>
    <dc:type rdf:resource="http://purl.org/dc/dcmitype/StillImage"/>
    <dc:title/>
   </cc:Work>
  </rdf:RDF>
 </metadata>
 <g id="layer1" transform="translate(0 -956.36)">
  <g id="g9847">
   <g id="g23632">
    <g id="g9923">
     <g id="g10092">
      <g id="g10036">
       <g id="g13141">
        <rect id="rect9283" ry="5" style="filter:url(#filter6279)" rx="5" transform="translate(0 -.0000078516)" height="80" width="80" y="964.36" x="8"/>
        <rect id="rect9285" style="fill:url(#linearGradient9768)" rx="5" ry="5" height="80" width="80" y="964.36" x="8"/>
        <g id="g6873" transform="matrix(.91604 0 0 .91604 86.128 82.603)">
         <path id="rect3201" style="fill:#252525" d="m-47.719 977.25v55c0 1.662 1.338 3 3 3h6c1.662 0 3-1.338 3-3v-55h-4v2h-4v-2h-4z"/>
         <rect id="rect3247" style="fill:#4d4d4d" height="49" width="4" y="979.25" x="-43.719"/>
         <rect id="rect3211" style="stroke:#000;stroke-width:.5;stroke-linecap:square;stroke-opacity:.56364;fill:url(#linearGradient23608)" rx="1" ry="1" height="4" width="6" y="1027.3" x="-44.719"/>
         <path id="path3231" style="filter:url(#filter3243);stroke:#000;stroke-width:2;stroke-linecap:square;fill:none" d="m66 6v55c0 1.662 1.338 3 3 3h6c1.662 0 3-1.338 3-3v-55h-4v2h-4v-2h-4z" clip-path="url(#clipPath3235)" transform="translate(-113.72 971.25)"/>
         <path id="rect3249" style="stroke:#000;stroke-width:.5;stroke-linecap:square;stroke-opacity:.56364;fill:url(#linearGradient3386)" d="m-44.219 1022.3c-0.27 0-0.5 0.218-0.5 0.5v3c0 0.282 0.23023 0.5 0.5 0.5h1c0.26977 0 0.5-0.218 0.5-0.5v-0.5h1.5c0.277 0 0.5-0.223 0.5-0.5v-1c0-0.277-0.223-0.5-0.5-0.5h-1.5v-0.5c0-0.282-0.23-0.5-0.5-0.5h-1z"/>
         <use id="use3308" xlink:href="#rect3249" transform="translate(0,-6)" height="96" width="96" y="0" x="0"/>
         <use id="use3310" xlink:href="#use3308" transform="translate(0,-6)" height="96" width="96" y="0" x="0"/>
         <use id="use3312" xlink:href="#use3310" transform="translate(0,-6)" height="96" width="96" y="0" x="0"/>
         <use id="use3314" xlink:href="#use3312" transform="translate(0,-6)" height="96" width="96" y="0" x="0"/>
         <use id="use3316" xlink:href="#use3314" transform="translate(0,-6)" height="96" width="96" y="0" x="0"/>
         <use id="use3318" xlink:href="#use3316" transform="translate(0,-6)" height="96" width="96" y="0" x="0"/>
         <use id="use3320" xlink:href="#use3318" transform="translate(0,-6)" height="96" width="96" y="0" x="0"/>
         <path id="path3322" style="stroke:#000;stroke-width:.5;stroke-linecap:square;stroke-opacity:.56364;fill:url(#linearGradient3388)" d="m-39.219 1019.3c0.26977 0 0.5 0.2179 0.5 0.5v3c0 0.282-0.23023 0.5-0.5 0.5h-1c-0.27 0-0.5-0.218-0.5-0.5v-0.5h-1.5c-0.277 0-0.5-0.223-0.5-0.5v-1c0-0.277 0.223-0.5 0.5-0.5h1.5v-0.5c0-0.282 0.23-0.5 0.5-0.5h1z"/>
         <use id="use3340" xlink:href="#path3322" transform="translate(0,-6)" height="96" width="96" y="0" x="0"/>
         <use id="use3342" xlink:href="#use3340" transform="translate(0,-6)" height="96" width="96" y="0" x="0"/>
         <use id="use3344" xlink:href="#use3342" transform="translate(0,-6)" height="96" width="96" y="0" x="0"/>
         <use id="use3346" xlink:href="#use3344" transform="translate(0,-6)" height="96" width="96" y="0" x="0"/>
         <use id="use3348" xlink:href="#use3346" transform="translate(0,-6)" height="96" width="96" y="0" x="0"/>
         <use id="use3350" xlink:href="#use3348" transform="translate(0,-6)" height="96" width="96" y="0" x="0"/>
         <path id="path3433" style="filter:url(#filter3429);stroke:#000;stroke-width:.5;stroke-linecap:square;stroke-opacity:.56364" d="m-44.219 979.78c-1.0277 0-1.9688 0.7652-1.9688 1.8125v10.812c0 1.048 0.918 1.844 1.969 1.844h5c1.0507 0 1.9688-0.79645 1.9688-1.8438v-10.812c-0.000003-1.0473-0.94105-1.8125-1.9688-1.8125h-5zm1.0625 9.0625h2.875v1.75h-2.875v-1.75z"/>
         <path id="rect3403" style="fill:url(#linearGradient23614)" d="m-44.49 980.28c-0.687 0-1.229 0.4824-1.229 1.0816l-0.005 10.815c0 0.6 0.542 1.082 1.229 1.082h5.5832c0.68714 0 1.2292-0.48237 1.2292-1.0815l0.0051-10.815c0-0.59918-0.54211-1.0815-1.2292-1.0815h-5.5832zm0.7043 7.9496h4.1013v3.1184h-4.1013v-3.1184z"/>
         <path id="rect3470" style="fill:url(#linearGradient23616)" d="m-39.157 981.22c0.277 0 0.5 0.223 0.5 0.5v10.062c0 0.277-0.223 0.5-0.5 0.5h-5.0938c-0.277 0-0.5-0.223-0.5-0.5v-10.062c0-0.277 0.223-0.5 0.5-0.5h5.0938zm-0.4375 6.9688h-4.125v3.125h4.125v-3.125z"/>
         <rect id="rect3399" style="stroke:#000;stroke-linecap:square;stroke-opacity:.56364;fill:url(#linearGradient23618)" rx=".56313" ry=".5" height="5" width="3.3788" y="978.75" x="-43.408"/>
         <rect id="rect3518" style="opacity:.3" height="1" width="4" y="987.25" x="-43.734"/>
        </g>
        <rect id="rect3171" style="opacity:.1;filter:url(#filter3794-13);stroke:#fff;stroke-linecap:round;stroke-width:.5;fill:url(#linearGradient9977)" clip-path="url(#clipPath3613-47)" rx="12" ry="12" transform="translate(0 956.36)" width="66" y="15" x="15" height="66"/>
        <path id="path3312" d="m21.032 1018.6v1.6839h5.0813c-0.1616 0.2379-0.32186 0.5008-0.47268 0.7386-0.14006 0.2379-0.26277 0.4593-0.41359 0.709l-4.727 8.3v1.8612h7.5628v-1.743h-5.8198c0.33397-0.5113 0.67846-1.0422 1.034-1.6248 0.35552-0.5828 0.71878-1.1661 1.0635-1.7725 0.35551-0.6065 0.68923-1.2252 1.034-1.8317 0.34474-0.6065 0.69201-1.196 1.0044-1.7431 0.31242-0.5471 0.59816-1.0429 0.85673-1.5066 0.26932-0.4756 0.48555-0.8783 0.67947-1.2113v-1.8021h-6.8834zm8.9218 0v13.235h1.7135v-13.235h-1.7135zm3.7814 0v13.235h1.7135v-5.2881h1.9202c0.2616 0 0.55331-0.035 0.88627-0.059 0.34484-0.036 0.67148-0.094 1.0044-0.1772 0.33295-0.095 0.64807-0.1998 0.94535-0.3545 0.29727-0.1546 0.56018-0.3707 0.73856-0.6204 0.30917-0.4162 0.51912-0.8714 0.64993-1.3589 0.14268-0.4994 0.20679-0.9778 0.2068-1.4773-0.000009-0.3091-0.01152-0.6185-0.05908-0.9157-0.04758-0.3092-0.14698-0.6185-0.26588-0.9159-0.17838-0.4638-0.38833-0.8194-0.64993-1.0931-0.24972-0.2735-0.53567-0.5071-0.85673-0.6499-0.32107-0.1427-0.68301-0.2302-1.0635-0.2658-0.38053-0.047-0.7655-0.059-1.1817-0.059h-3.9882zm1.743 1.6839h2.3929c0.16647 0 0.36491 0.018 0.59085 0.029 0.23782 0 0.43625 0.029 0.59085 0.089 0.19026 0.072 0.34187 0.1705 0.47268 0.325 0.1308 0.1427 0.24172 0.312 0.32496 0.5022 0.08323 0.1902 0.14157 0.3945 0.17725 0.6204 0.03567 0.214 0.05907 0.4359 0.05908 0.6499-0.000007 0.7491-0.26292 1.3212-0.73856 1.7136-0.46377 0.3805-1.0821 0.5908-1.8907 0.5908h-1.9793v-4.5201z" style="fill:#7a4b21"/>
       </g>
      </g>
     </g>
    </g>
   </g>
  </g>
 </g>
</svg>
