<?xml version="1.0" encoding="UTF-8" standalone="no"?>
<!-- Created with Inkscape (http://www.inkscape.org/) -->

<svg
   xmlns:dc="http://purl.org/dc/elements/1.1/"
   xmlns:cc="http://creativecommons.org/ns#"
   xmlns:rdf="http://www.w3.org/1999/02/22-rdf-syntax-ns#"
   xmlns:svg="http://www.w3.org/2000/svg"
   xmlns="http://www.w3.org/2000/svg"
   xmlns:xlink="http://www.w3.org/1999/xlink"
   xmlns:sodipodi="http://sodipodi.sourceforge.net/DTD/sodipodi-0.dtd"
   xmlns:inkscape="http://www.inkscape.org/namespaces/inkscape"
   width="96"
   height="96"
   id="svg6307"
   version="1.1"
   inkscape:version="0.48.1 r9760"
   sodipodi:docname="application-x-rar.svg">
  <defs
     id="defs6309">
    <filter
       color-interpolation-filters="sRGB"
       inkscape:collect="always"
       id="filter6279">
      <feGaussianBlur
         inkscape:collect="always"
         stdDeviation="0.8"
         id="feGaussianBlur6281" />
    </filter>
    <linearGradient
       inkscape:collect="always"
       xlink:href="#linearGradient3199-05"
       id="linearGradient9768"
       gradientUnits="userSpaceOnUse"
       gradientTransform="translate(0,-7.8515622e-6)"
       x1="48"
       y1="1052.3622"
       x2="48"
       y2="902.36218" />
    <linearGradient
       id="linearGradient3199-05">
      <stop
         id="stop3201-92"
         style="stop-color:#853798;stop-opacity:1"
         offset="0" />
      <stop
         id="stop3203-6"
         style="stop-color:#c78bd5;stop-opacity:1"
         offset="1" />
    </linearGradient>
    <linearGradient
       inkscape:collect="always"
       xlink:href="#linearGradient3354"
       id="linearGradient23705"
       gradientUnits="userSpaceOnUse"
       gradientTransform="translate(-113.7193,970.25379)"
       x1="68.75"
       y1="59"
       x2="75.25"
       y2="59" />
    <linearGradient
       id="linearGradient3354">
      <stop
         id="stop3356-9"
         style="stop-color:#b4b4b4"
         offset="0" />
      <stop
         id="stop3362-7"
         style="stop-color:#646464"
         offset=".20467" />
      <stop
         id="stop3364-5"
         style="stop-color:#fff"
         offset=".49568" />
      <stop
         id="stop3358"
         style="stop-color:#3c3c3c"
         offset="1" />
    </linearGradient>
    <clipPath
       id="clipPath3235">
      <path
         inkscape:connector-curvature="0"
         id="path3237"
         style="fill:#ffffff"
         d="m 66,6 v 55 c 0,1.662 1.338,3 3,3 h 6 c 1.662,0 3,-1.338 3,-3 V 6 H 74 V 8 H 70 V 6 h -4 z" />
    </clipPath>
    <filter
       id="filter3243"
       height="1.0732"
       width="1.3322999"
       color-interpolation-filters="sRGB"
       y="-0.03661"
       x="-0.16615">
      <feGaussianBlur
         id="feGaussianBlur3245"
         stdDeviation="0.9" />
    </filter>
    <linearGradient
       inkscape:collect="always"
       xlink:href="#linearGradient3372-9"
       id="linearGradient23725"
       gradientUnits="userSpaceOnUse"
       gradientTransform="translate(-113.7193,970.25379)"
       x1="69"
       y1="54"
       x2="73"
       y2="54" />
    <linearGradient
       id="linearGradient3372-9"
       y2="54"
       gradientUnits="userSpaceOnUse"
       x2="73"
       gradientTransform="translate(0,-1)"
       y1="54"
       x1="69">
      <stop
         id="stop3292-7"
         style="stop-color:#fff"
         offset="0" />
      <stop
         id="stop3304-8"
         style="stop-color:#8c8c8c"
         offset=".48973" />
      <stop
         id="stop3306-5"
         style="stop-color:#cfcfcf"
         offset=".50045" />
      <stop
         id="stop3298-3"
         style="stop-color:#fff"
         offset=".62277" />
      <stop
         id="stop3300-3"
         style="stop-color:#c8c8c8"
         offset=".81696" />
      <stop
         id="stop3294-8"
         style="stop-color:#505050"
         offset="1" />
    </linearGradient>
    <linearGradient
       inkscape:collect="always"
       xlink:href="#linearGradient3372-9"
       id="linearGradient5900"
       gradientUnits="userSpaceOnUse"
       gradientTransform="translate(-113.7193,970.25379)"
       x1="69"
       y1="54"
       x2="73"
       y2="54" />
    <linearGradient
       id="linearGradient5902"
       y2="54"
       gradientUnits="userSpaceOnUse"
       x2="73"
       gradientTransform="translate(0,-1)"
       y1="54"
       x1="69">
      <stop
         id="stop5904"
         style="stop-color:#fff"
         offset="0" />
      <stop
         id="stop5906"
         style="stop-color:#8c8c8c"
         offset=".48973" />
      <stop
         id="stop5908"
         style="stop-color:#cfcfcf"
         offset=".50045" />
      <stop
         id="stop5910"
         style="stop-color:#fff"
         offset=".62277" />
      <stop
         id="stop5912"
         style="stop-color:#c8c8c8"
         offset=".81696" />
      <stop
         id="stop5914"
         style="stop-color:#505050"
         offset="1" />
    </linearGradient>
    <linearGradient
       inkscape:collect="always"
       xlink:href="#linearGradient3372-9"
       id="linearGradient5916"
       gradientUnits="userSpaceOnUse"
       gradientTransform="translate(-113.7193,970.25379)"
       x1="69"
       y1="54"
       x2="73"
       y2="54" />
    <linearGradient
       id="linearGradient5918"
       y2="54"
       gradientUnits="userSpaceOnUse"
       x2="73"
       gradientTransform="translate(0,-1)"
       y1="54"
       x1="69">
      <stop
         id="stop5920"
         style="stop-color:#fff"
         offset="0" />
      <stop
         id="stop5922"
         style="stop-color:#8c8c8c"
         offset=".48973" />
      <stop
         id="stop5924"
         style="stop-color:#cfcfcf"
         offset=".50045" />
      <stop
         id="stop5926"
         style="stop-color:#fff"
         offset=".62277" />
      <stop
         id="stop5928"
         style="stop-color:#c8c8c8"
         offset=".81696" />
      <stop
         id="stop5930"
         style="stop-color:#505050"
         offset="1" />
    </linearGradient>
    <linearGradient
       inkscape:collect="always"
       xlink:href="#linearGradient3372-9"
       id="linearGradient5932"
       gradientUnits="userSpaceOnUse"
       gradientTransform="translate(-113.7193,970.25379)"
       x1="69"
       y1="54"
       x2="73"
       y2="54" />
    <linearGradient
       id="linearGradient5934"
       y2="54"
       gradientUnits="userSpaceOnUse"
       x2="73"
       gradientTransform="translate(0,-1)"
       y1="54"
       x1="69">
      <stop
         id="stop5936"
         style="stop-color:#fff"
         offset="0" />
      <stop
         id="stop5938"
         style="stop-color:#8c8c8c"
         offset=".48973" />
      <stop
         id="stop5940"
         style="stop-color:#cfcfcf"
         offset=".50045" />
      <stop
         id="stop5942"
         style="stop-color:#fff"
         offset=".62277" />
      <stop
         id="stop5944"
         style="stop-color:#c8c8c8"
         offset=".81696" />
      <stop
         id="stop5946"
         style="stop-color:#505050"
         offset="1" />
    </linearGradient>
    <linearGradient
       inkscape:collect="always"
       xlink:href="#linearGradient3372-9"
       id="linearGradient5948"
       gradientUnits="userSpaceOnUse"
       gradientTransform="translate(-113.7193,970.25379)"
       x1="69"
       y1="54"
       x2="73"
       y2="54" />
    <linearGradient
       id="linearGradient5950"
       y2="54"
       gradientUnits="userSpaceOnUse"
       x2="73"
       gradientTransform="translate(0,-1)"
       y1="54"
       x1="69">
      <stop
         id="stop5952"
         style="stop-color:#fff"
         offset="0" />
      <stop
         id="stop5954"
         style="stop-color:#8c8c8c"
         offset=".48973" />
      <stop
         id="stop5956"
         style="stop-color:#cfcfcf"
         offset=".50045" />
      <stop
         id="stop5958"
         style="stop-color:#fff"
         offset=".62277" />
      <stop
         id="stop5960"
         style="stop-color:#c8c8c8"
         offset=".81696" />
      <stop
         id="stop5962"
         style="stop-color:#505050"
         offset="1" />
    </linearGradient>
    <linearGradient
       inkscape:collect="always"
       xlink:href="#linearGradient3372-9"
       id="linearGradient5964"
       gradientUnits="userSpaceOnUse"
       gradientTransform="translate(-113.7193,970.25379)"
       x1="69"
       y1="54"
       x2="73"
       y2="54" />
    <linearGradient
       id="linearGradient5966"
       y2="54"
       gradientUnits="userSpaceOnUse"
       x2="73"
       gradientTransform="translate(0,-1)"
       y1="54"
       x1="69">
      <stop
         id="stop5968"
         style="stop-color:#fff"
         offset="0" />
      <stop
         id="stop5970"
         style="stop-color:#8c8c8c"
         offset=".48973" />
      <stop
         id="stop5972"
         style="stop-color:#cfcfcf"
         offset=".50045" />
      <stop
         id="stop5974"
         style="stop-color:#fff"
         offset=".62277" />
      <stop
         id="stop5976"
         style="stop-color:#c8c8c8"
         offset=".81696" />
      <stop
         id="stop5978"
         style="stop-color:#505050"
         offset="1" />
    </linearGradient>
    <linearGradient
       inkscape:collect="always"
       xlink:href="#linearGradient3372-9"
       id="linearGradient5980"
       gradientUnits="userSpaceOnUse"
       gradientTransform="translate(-113.7193,970.25379)"
       x1="69"
       y1="54"
       x2="73"
       y2="54" />
    <linearGradient
       id="linearGradient5982"
       y2="54"
       gradientUnits="userSpaceOnUse"
       x2="73"
       gradientTransform="translate(0,-1)"
       y1="54"
       x1="69">
      <stop
         id="stop5984"
         style="stop-color:#fff"
         offset="0" />
      <stop
         id="stop5986"
         style="stop-color:#8c8c8c"
         offset=".48973" />
      <stop
         id="stop5988"
         style="stop-color:#cfcfcf"
         offset=".50045" />
      <stop
         id="stop5990"
         style="stop-color:#fff"
         offset=".62277" />
      <stop
         id="stop5992"
         style="stop-color:#c8c8c8"
         offset=".81696" />
      <stop
         id="stop5994"
         style="stop-color:#505050"
         offset="1" />
    </linearGradient>
    <linearGradient
       inkscape:collect="always"
       xlink:href="#linearGradient3372-9"
       id="linearGradient5996"
       gradientUnits="userSpaceOnUse"
       gradientTransform="translate(-113.7193,970.25379)"
       x1="69"
       y1="54"
       x2="73"
       y2="54" />
    <linearGradient
       id="linearGradient5998"
       y2="54"
       gradientUnits="userSpaceOnUse"
       x2="73"
       gradientTransform="translate(0,-1)"
       y1="54"
       x1="69">
      <stop
         id="stop6000"
         style="stop-color:#fff"
         offset="0" />
      <stop
         id="stop6002"
         style="stop-color:#8c8c8c"
         offset=".48973" />
      <stop
         id="stop6004"
         style="stop-color:#cfcfcf"
         offset=".50045" />
      <stop
         id="stop6006"
         style="stop-color:#fff"
         offset=".62277" />
      <stop
         id="stop6008"
         style="stop-color:#c8c8c8"
         offset=".81696" />
      <stop
         id="stop6010"
         style="stop-color:#505050"
         offset="1" />
    </linearGradient>
    <linearGradient
       inkscape:collect="always"
       xlink:href="#linearGradient3602"
       id="linearGradient23727"
       gradientUnits="userSpaceOnUse"
       gradientTransform="matrix(-1,0,0,1,30.2807,967.25379)"
       x1="69"
       y1="54"
       x2="73"
       y2="54" />
    <linearGradient
       id="linearGradient3602"
       y2="54"
       gradientUnits="userSpaceOnUse"
       x2="73"
       gradientTransform="matrix(-1,0,0,1,144,-4)"
       y1="54"
       x1="69">
      <stop
         id="stop3606"
         style="stop-color:#2f2f2f"
         offset="0" />
      <stop
         id="stop3608"
         style="stop-color:#fff"
         offset=".43731" />
      <stop
         id="stop3610"
         style="stop-color:#979797"
         offset=".62138" />
      <stop
         id="stop3612-2"
         style="stop-color:#505050"
         offset=".77232" />
      <stop
         id="stop3614-2"
         style="stop-color:#e6e6e6"
         offset="1" />
    </linearGradient>
    <linearGradient
       inkscape:collect="always"
       xlink:href="#linearGradient3602"
       id="linearGradient6019"
       gradientUnits="userSpaceOnUse"
       gradientTransform="matrix(-1,0,0,1,30.2807,967.25379)"
       x1="69"
       y1="54"
       x2="73"
       y2="54" />
    <linearGradient
       id="linearGradient6021"
       y2="54"
       gradientUnits="userSpaceOnUse"
       x2="73"
       gradientTransform="matrix(-1,0,0,1,144,-4)"
       y1="54"
       x1="69">
      <stop
         id="stop6023"
         style="stop-color:#2f2f2f"
         offset="0" />
      <stop
         id="stop6025"
         style="stop-color:#fff"
         offset=".43731" />
      <stop
         id="stop6027"
         style="stop-color:#979797"
         offset=".62138" />
      <stop
         id="stop6029"
         style="stop-color:#505050"
         offset=".77232" />
      <stop
         id="stop6031"
         style="stop-color:#e6e6e6"
         offset="1" />
    </linearGradient>
    <linearGradient
       inkscape:collect="always"
       xlink:href="#linearGradient3602"
       id="linearGradient6033"
       gradientUnits="userSpaceOnUse"
       gradientTransform="matrix(-1,0,0,1,30.2807,967.25379)"
       x1="69"
       y1="54"
       x2="73"
       y2="54" />
    <linearGradient
       id="linearGradient6035"
       y2="54"
       gradientUnits="userSpaceOnUse"
       x2="73"
       gradientTransform="matrix(-1,0,0,1,144,-4)"
       y1="54"
       x1="69">
      <stop
         id="stop6037"
         style="stop-color:#2f2f2f"
         offset="0" />
      <stop
         id="stop6039"
         style="stop-color:#fff"
         offset=".43731" />
      <stop
         id="stop6041"
         style="stop-color:#979797"
         offset=".62138" />
      <stop
         id="stop6043"
         style="stop-color:#505050"
         offset=".77232" />
      <stop
         id="stop6045"
         style="stop-color:#e6e6e6"
         offset="1" />
    </linearGradient>
    <linearGradient
       inkscape:collect="always"
       xlink:href="#linearGradient3602"
       id="linearGradient6047"
       gradientUnits="userSpaceOnUse"
       gradientTransform="matrix(-1,0,0,1,30.2807,967.25379)"
       x1="69"
       y1="54"
       x2="73"
       y2="54" />
    <linearGradient
       id="linearGradient6049"
       y2="54"
       gradientUnits="userSpaceOnUse"
       x2="73"
       gradientTransform="matrix(-1,0,0,1,144,-4)"
       y1="54"
       x1="69">
      <stop
         id="stop6051"
         style="stop-color:#2f2f2f"
         offset="0" />
      <stop
         id="stop6053"
         style="stop-color:#fff"
         offset=".43731" />
      <stop
         id="stop6055"
         style="stop-color:#979797"
         offset=".62138" />
      <stop
         id="stop6057"
         style="stop-color:#505050"
         offset=".77232" />
      <stop
         id="stop6059"
         style="stop-color:#e6e6e6"
         offset="1" />
    </linearGradient>
    <linearGradient
       inkscape:collect="always"
       xlink:href="#linearGradient3602"
       id="linearGradient6061"
       gradientUnits="userSpaceOnUse"
       gradientTransform="matrix(-1,0,0,1,30.2807,967.25379)"
       x1="69"
       y1="54"
       x2="73"
       y2="54" />
    <linearGradient
       id="linearGradient6063"
       y2="54"
       gradientUnits="userSpaceOnUse"
       x2="73"
       gradientTransform="matrix(-1,0,0,1,144,-4)"
       y1="54"
       x1="69">
      <stop
         id="stop6065"
         style="stop-color:#2f2f2f"
         offset="0" />
      <stop
         id="stop6067"
         style="stop-color:#fff"
         offset=".43731" />
      <stop
         id="stop6069"
         style="stop-color:#979797"
         offset=".62138" />
      <stop
         id="stop6071"
         style="stop-color:#505050"
         offset=".77232" />
      <stop
         id="stop6073"
         style="stop-color:#e6e6e6"
         offset="1" />
    </linearGradient>
    <linearGradient
       inkscape:collect="always"
       xlink:href="#linearGradient3602"
       id="linearGradient6075"
       gradientUnits="userSpaceOnUse"
       gradientTransform="matrix(-1,0,0,1,30.2807,967.25379)"
       x1="69"
       y1="54"
       x2="73"
       y2="54" />
    <linearGradient
       id="linearGradient6077"
       y2="54"
       gradientUnits="userSpaceOnUse"
       x2="73"
       gradientTransform="matrix(-1,0,0,1,144,-4)"
       y1="54"
       x1="69">
      <stop
         id="stop6079"
         style="stop-color:#2f2f2f"
         offset="0" />
      <stop
         id="stop6081"
         style="stop-color:#fff"
         offset=".43731" />
      <stop
         id="stop6083"
         style="stop-color:#979797"
         offset=".62138" />
      <stop
         id="stop6085"
         style="stop-color:#505050"
         offset=".77232" />
      <stop
         id="stop6087"
         style="stop-color:#e6e6e6"
         offset="1" />
    </linearGradient>
    <linearGradient
       inkscape:collect="always"
       xlink:href="#linearGradient3602"
       id="linearGradient6089"
       gradientUnits="userSpaceOnUse"
       gradientTransform="matrix(-1,0,0,1,30.2807,967.25379)"
       x1="69"
       y1="54"
       x2="73"
       y2="54" />
    <linearGradient
       id="linearGradient6091"
       y2="54"
       gradientUnits="userSpaceOnUse"
       x2="73"
       gradientTransform="matrix(-1,0,0,1,144,-4)"
       y1="54"
       x1="69">
      <stop
         id="stop6093"
         style="stop-color:#2f2f2f"
         offset="0" />
      <stop
         id="stop6095"
         style="stop-color:#fff"
         offset=".43731" />
      <stop
         id="stop6097"
         style="stop-color:#979797"
         offset=".62138" />
      <stop
         id="stop6099"
         style="stop-color:#505050"
         offset=".77232" />
      <stop
         id="stop6101"
         style="stop-color:#e6e6e6"
         offset="1" />
    </linearGradient>
    <filter
       id="filter3429"
       height="1.1907001"
       width="1.3237"
       color-interpolation-filters="sRGB"
       y="-0.095353998"
       x="-0.16182999">
      <feGaussianBlur
         id="feGaussianBlur3431"
         stdDeviation="0.53551312" />
    </filter>
    <linearGradient
       inkscape:collect="always"
       xlink:href="#linearGradient3435"
       id="linearGradient23711"
       gradientUnits="userSpaceOnUse"
       gradientTransform="translate(-113.7193,969.25379)"
       x1="68.028999"
       y1="17.763"
       x2="75.971001"
       y2="17.763" />
    <linearGradient
       id="linearGradient3435">
      <stop
         id="stop3437-6"
         style="stop-color:#ededed"
         offset="0" />
      <stop
         id="stop3439"
         style="stop-color:#b0b0b0"
         offset="1" />
    </linearGradient>
    <linearGradient
       inkscape:collect="always"
       xlink:href="#linearGradient3435"
       id="linearGradient23713"
       gradientUnits="userSpaceOnUse"
       gradientTransform="matrix(-1,0,0,1,30.3107,969.25379)"
       x1="68.969002"
       y1="17.5"
       x2="75.061996"
       y2="17.5" />
    <linearGradient
       id="linearGradient6110">
      <stop
         id="stop6112"
         style="stop-color:#ededed"
         offset="0" />
      <stop
         id="stop6114"
         style="stop-color:#b0b0b0"
         offset="1" />
    </linearGradient>
    <linearGradient
       inkscape:collect="always"
       xlink:href="#linearGradient3354"
       id="linearGradient23715"
       gradientUnits="userSpaceOnUse"
       gradientTransform="matrix(1.1263,0,0,1,-121.1213,921.75379)"
       x1="68.75"
       y1="59"
       x2="72.250999"
       y2="59" />
    <linearGradient
       id="linearGradient6117">
      <stop
         id="stop6119"
         style="stop-color:#b4b4b4"
         offset="0" />
      <stop
         id="stop6121"
         style="stop-color:#646464"
         offset=".20467" />
      <stop
         id="stop6123"
         style="stop-color:#fff"
         offset=".49568" />
      <stop
         id="stop6125"
         style="stop-color:#3c3c3c"
         offset="1" />
    </linearGradient>
    <linearGradient
       inkscape:collect="always"
       xlink:href="#linearGradient3737-25"
       id="linearGradient9977"
       gradientUnits="userSpaceOnUse"
       x1="48"
       y1="20.221001"
       x2="48"
       y2="138.66" />
    <linearGradient
       id="linearGradient3737-25">
      <stop
         id="stop3739-89"
         style="stop-color:#fff"
         offset="0" />
      <stop
         id="stop3741-02"
         style="stop-color:#fff;stop-opacity:0"
         offset="1" />
    </linearGradient>
    <clipPath
       id="clipPath3613-47">
      <rect
         id="rect3615-657"
         style="fill:#ffffff"
         rx="6"
         ry="6"
         height="84"
         width="84"
         y="6"
         x="6" />
    </clipPath>
    <filter
       id="filter3794-13"
       height="1.3839999"
       width="1.3839999"
       color-interpolation-filters="sRGB"
       y="-0.192"
       x="-0.192">
      <feGaussianBlur
         id="feGaussianBlur3796-33"
         stdDeviation="5.28" />
    </filter>
    <linearGradient
       inkscape:collect="always"
       xlink:href="#linearGradient3372-9"
       id="linearGradient3382"
       gradientUnits="userSpaceOnUse"
       gradientTransform="translate(-113.7193,970.25379)"
       x1="69"
       y1="54"
       x2="73"
       y2="54" />
    <linearGradient
       inkscape:collect="always"
       xlink:href="#linearGradient3602"
       id="linearGradient3384"
       gradientUnits="userSpaceOnUse"
       gradientTransform="matrix(-1,0,0,1,30.2807,967.25379)"
       x1="69"
       y1="54"
       x2="73"
       y2="54" />
  </defs>
  <sodipodi:namedview
     id="base"
     pagecolor="#ffffff"
     bordercolor="#666666"
     borderopacity="1.0"
     inkscape:pageopacity="0.0"
     inkscape:pageshadow="2"
     inkscape:zoom="2.8"
     inkscape:cx="49.094001"
     inkscape:cy="51.854206"
     inkscape:document-units="px"
     inkscape:current-layer="layer1"
     showgrid="false"
     inkscape:window-width="1280"
     inkscape:window-height="725"
     inkscape:window-x="0"
     inkscape:window-y="25"
     inkscape:window-maximized="1" />
  <metadata
     id="metadata6312">
    <rdf:RDF>
      <cc:Work
         rdf:about="">
        <dc:format>image/svg+xml</dc:format>
        <dc:type
           rdf:resource="http://purl.org/dc/dcmitype/StillImage" />
        <dc:title></dc:title>
      </cc:Work>
    </rdf:RDF>
  </metadata>
  <g
     inkscape:label="Layer 1"
     inkscape:groupmode="layer"
     id="layer1"
     transform="translate(0,-956.36218)">
    <g
       id="g23729">
      <g
         id="g9923">
        <g
           id="g10092">
          <g
             id="g10182">
            <rect
               ry="5"
               rx="5"
               style="fill:#000000;fill-opacity:1;stroke:none;filter:url(#filter6279)"
               id="rect9283"
               width="80"
               height="80"
               x="8"
               y="964.36218"
               transform="translate(0,-7.8515622e-6)" />
            <rect
               y="964.36218"
               x="8"
               height="80"
               width="80"
               id="rect9285"
               style="fill:url(#linearGradient9768);fill-opacity:1;stroke:none"
               rx="5"
               ry="5" />
            <g
               id="g6873"
               transform="matrix(0.91603591,0,0,0.91603591,86.128285,82.602523)">
              <path
                 inkscape:connector-curvature="0"
                 id="rect3201"
                 style="fill:#252525"
                 d="m -47.7193,977.25379 v 55.00001 c 0,1.662 1.338,3 3,3 h 6 c 1.662,0 3,-1.338 3,-3 v -55.00001 h -4 v 2 h -4 v -2 h -4 z" />
              <rect
                 id="rect3247"
                 style="fill:#4d4d4d"
                 height="49"
                 width="4"
                 y="979.25378"
                 x="-43.719299" />
              <rect
                 id="rect3211"
                 style="fill:url(#linearGradient23705);stroke:#000000;stroke-width:0.5;stroke-linecap:square;stroke-opacity:0.56363998"
                 rx="1"
                 ry="1"
                 height="4"
                 width="6"
                 y="1027.2538"
                 x="-44.719299" />
              <path
                 transform="translate(-113.7193,971.25379)"
                 inkscape:connector-curvature="0"
                 id="path3231"
                 style="fill:none;stroke:#000000;stroke-width:2;stroke-linecap:square;filter:url(#filter3243)"
                 clip-path="url(#clipPath3235)"
                 d="m 66,6 v 55 c 0,1.662 1.338,3 3,3 h 6 c 1.662,0 3,-1.338 3,-3 V 6 H 74 V 8 H 70 V 6 h -4 z" />
              <path
                 inkscape:connector-curvature="0"
                 id="rect3249"
                 style="fill:url(#linearGradient3382);stroke:#000000;stroke-width:0.5;stroke-linecap:square;stroke-opacity:0.56363998"
                 d="m -44.2193,1022.2538 c -0.27,0 -0.5,0.218 -0.5,0.5 v 3 c 0,0.282 0.23023,0.5 0.5,0.5 h 1 c 0.26977,0 0.5,-0.218 0.5,-0.5 v -0.5 h 1.5 c 0.277,0 0.5,-0.223 0.5,-0.5 v -1 c 0,-0.277 -0.223,-0.5 -0.5,-0.5 h -1.5 v -0.5 c 0,-0.282 -0.23,-0.5 -0.5,-0.5 h -1 z" />
              <use
                 id="use3308"
                 xlink:href="#rect3249"
                 transform="translate(0,-6)"
                 height="96"
                 width="96"
                 y="0"
                 x="0" />
              <use
                 id="use3310"
                 xlink:href="#use3308"
                 transform="translate(0,-6)"
                 height="96"
                 width="96"
                 y="0"
                 x="0" />
              <use
                 id="use3312"
                 xlink:href="#use3310"
                 transform="translate(0,-6)"
                 height="96"
                 width="96"
                 y="0"
                 x="0" />
              <use
                 id="use3314"
                 xlink:href="#use3312"
                 transform="translate(0,-6)"
                 height="96"
                 width="96"
                 y="0"
                 x="0" />
              <use
                 id="use3316"
                 xlink:href="#use3314"
                 transform="translate(0,-6)"
                 height="96"
                 width="96"
                 y="0"
                 x="0" />
              <use
                 id="use3318"
                 xlink:href="#use3316"
                 transform="translate(0,-6)"
                 height="96"
                 width="96"
                 y="0"
                 x="0" />
              <use
                 id="use3320"
                 xlink:href="#use3318"
                 transform="translate(0,-6)"
                 height="96"
                 width="96"
                 y="0"
                 x="0" />
              <path
                 inkscape:connector-curvature="0"
                 id="path3322"
                 style="fill:url(#linearGradient3384);stroke:#000000;stroke-width:0.5;stroke-linecap:square;stroke-opacity:0.56363998"
                 d="m -39.2193,1019.2538 c 0.26977,0 0.5,0.2179 0.5,0.5 v 3 c 0,0.282 -0.23023,0.5 -0.5,0.5 h -1 c -0.27,0 -0.5,-0.218 -0.5,-0.5 v -0.5 h -1.5 c -0.277,0 -0.5,-0.223 -0.5,-0.5 v -1 c 0,-0.277 0.223,-0.5 0.5,-0.5 h 1.5 v -0.5 c 0,-0.282 0.23,-0.5 0.5,-0.5 h 1 z" />
              <use
                 id="use3340"
                 xlink:href="#path3322"
                 transform="translate(0,-6)"
                 height="96"
                 width="96"
                 y="0"
                 x="0" />
              <use
                 id="use3342"
                 xlink:href="#use3340"
                 transform="translate(0,-6)"
                 height="96"
                 width="96"
                 y="0"
                 x="0" />
              <use
                 id="use3344"
                 xlink:href="#use3342"
                 transform="translate(0,-6)"
                 height="96"
                 width="96"
                 y="0"
                 x="0" />
              <use
                 id="use3346"
                 xlink:href="#use3344"
                 transform="translate(0,-6)"
                 height="96"
                 width="96"
                 y="0"
                 x="0" />
              <use
                 id="use3348"
                 xlink:href="#use3346"
                 transform="translate(0,-6)"
                 height="96"
                 width="96"
                 y="0"
                 x="0" />
              <use
                 id="use3350"
                 xlink:href="#use3348"
                 transform="translate(0,-6)"
                 height="96"
                 width="96"
                 y="0"
                 x="0" />
              <path
                 inkscape:connector-curvature="0"
                 id="path3433"
                 style="stroke:#000000;stroke-width:0.5;stroke-linecap:square;stroke-opacity:0.56363998;filter:url(#filter3429)"
                 d="m -44.2193,979.78479 c -1.0277,0 -1.9688,0.7652 -1.9688,1.8125 v 10.812 c 0,1.048 0.918,1.844 1.969,1.844 h 5 c 1.0507,0 1.9688,-0.79645 1.9688,-1.8438 v -10.812 c -3e-6,-1.0473 -0.94105,-1.8125 -1.9688,-1.8125 h -5 z m 1.0625,9.0625 h 2.875 v 1.75 h -2.875 v -1.75 z" />
              <path
                 inkscape:connector-curvature="0"
                 id="rect3403"
                 style="fill:url(#linearGradient23711)"
                 d="m -44.4903,980.27519 c -0.687,0 -1.229,0.4824 -1.229,1.0816 l -0.005,10.815 c 0,0.6 0.542,1.082 1.229,1.082 h 5.5832 c 0.68714,0 1.2292,-0.48237 1.2292,-1.0815 l 0.0051,-10.815 c 0,-0.59918 -0.54211,-1.0815 -1.2292,-1.0815 h -5.5832 z m 0.7043,7.9496 h 4.1013 v 3.1184 h -4.1013 v -3.1184 z" />
              <path
                 inkscape:connector-curvature="0"
                 id="rect3470"
                 style="fill:url(#linearGradient23713)"
                 d="m -39.1573,981.22259 c 0.277,0 0.5,0.223 0.5,0.5 v 10.062 c 0,0.277 -0.223,0.5 -0.5,0.5 h -5.0938 c -0.277,0 -0.5,-0.223 -0.5,-0.5 v -10.062 c 0,-0.277 0.223,-0.5 0.5,-0.5 h 5.0938 z m -0.4375,6.9688 h -4.125 v 3.125 h 4.125 v -3.125 z" />
              <rect
                 id="rect3399"
                 style="fill:url(#linearGradient23715);stroke:#000000;stroke-linecap:square;stroke-opacity:0.56363998"
                 rx="0.56313002"
                 ry="0.5"
                 height="5"
                 width="3.3787999"
                 y="978.75378"
                 x="-43.408302" />
              <rect
                 id="rect3518"
                 style="opacity:0.3"
                 height="1"
                 width="4"
                 y="987.25378"
                 x="-43.734299" />
            </g>
            <rect
               x="15"
               y="15"
               width="66"
               height="66"
               ry="12"
               rx="12"
               clip-path="url(#clipPath3613-47)"
               style="opacity:0.1;fill:url(#linearGradient9977);stroke:#ffffff;stroke-width:0.5;stroke-linecap:round;filter:url(#filter3794-13)"
               id="rect3171"
               transform="translate(0,956.36218)" />
            <path
               style="font-size:18.86792374px;font-style:normal;font-variant:normal;font-weight:bold;font-stretch:normal;text-align:start;line-height:120.00000477%;writing-mode:lr-tb;text-anchor:start;fill:#43134e;fill-opacity:1;stroke:none;display:inline;font-family:BabelSans;-inkscape-font-specification:BabelSans Bold"
               id="path3335"
               inkscape:connector-curvature="0"
               d="m 20.5,1023.0752 0,8.7868 1.137569,0 0,-3.8638 0.764918,0 c 0.189467,0 0.340576,0.027 0.451104,0.059 0.118417,0.024 0.238439,0.086 0.372652,0.1962 0.08684,0.071 0.207108,0.2027 0.333425,0.3922 0.126311,0.1816 0.250158,0.3829 0.392266,0.6277 0.142099,0.2368 0.289383,0.5082 0.431491,0.7844 0.149994,0.2685 0.28556,0.5202 0.411879,0.765 0.134204,0.2368 0.258298,0.4381 0.353038,0.6276 0.09473,0.1895 0.156655,0.333 0.196133,0.4119 l 1.392541,0 -1.274861,-2.5301 c -0.14211,-0.2763 -0.297041,-0.5398 -0.470718,-0.7846 -0.165793,-0.2526 -0.375001,-0.4812 -0.627625,-0.6864 0.55262,-0.15 0.963142,-0.4291 1.255249,-0.8238 0.299991,-0.4026 0.451098,-0.914 0.451105,-1.5298 -6e-6,-0.4816 -0.09684,-0.9115 -0.294199,-1.3142 -0.118425,-0.2446 -0.253992,-0.4462 -0.411879,-0.5883 -0.157898,-0.15 -0.320478,-0.2545 -0.509944,-0.3335 -0.181582,-0.079 -0.39486,-0.1332 -0.608012,-0.1568 -0.213159,-0.024 -0.430014,-0.039 -0.66685,-0.039 l -3.079282,0 z m 9.904696,0 -2.667403,8.7868 1.235636,0 0.745303,-2.589 2.588951,0 0.78453,2.589 1.294475,0 -2.843923,-8.7868 -1.137569,0 z m 5.158288,0 0,8.7868 1.137568,0 0,-3.8638 0.764917,0 c 0.18947,0 0.340578,0.027 0.451106,0.059 0.118415,0.024 0.258053,0.086 0.392265,0.1962 0.08684,0.071 0.187494,0.2027 0.313812,0.3922 0.12631,0.1816 0.250158,0.3829 0.392265,0.6277 0.142099,0.2368 0.289384,0.5082 0.431492,0.7844 0.149993,0.2685 0.285559,0.5202 0.411878,0.765 0.134204,0.2368 0.258298,0.4381 0.353039,0.6276 0.09473,0.1895 0.156654,0.333 0.196133,0.4119 l 1.392541,0 -1.274862,-2.5301 c -0.142108,-0.2763 -0.297042,-0.5398 -0.470718,-0.7846 -0.165794,-0.2526 -0.375001,-0.4812 -0.627624,-0.6864 0.552619,-0.15 0.982755,-0.4291 1.274861,-0.8238 0.299991,-0.4026 0.4511,-0.914 0.451106,-1.5298 -6e-6,-0.4816 -0.116452,-0.9115 -0.313813,-1.3142 -0.118424,-0.2446 -0.253991,-0.4462 -0.411878,-0.5883 -0.1579,-0.15 -0.320479,-0.2545 -0.509945,-0.3335 -0.18158,-0.079 -0.375247,-0.1332 -0.588398,-0.1568 -0.213159,-0.024 -0.449628,-0.039 -0.686464,-0.039 l -3.079281,0 z m -13.905801,1.0591 1.980938,0 c 0.434202,0 0.759609,0.1162 0.980664,0.3531 0.221044,0.2369 0.33342,0.5857 0.333425,1.0198 -5e-6,0.4975 -0.143466,0.8578 -0.411879,1.0788 -0.260527,0.2132 -0.628492,0.3139 -1.117956,0.3139 l -1.765192,0 0,-2.7656 z m 15.062983,0 1.980939,0 c 0.434201,0 0.759608,0.1162 0.980663,0.3531 0.221046,0.2369 0.333421,0.5857 0.333425,1.0198 -4e-6,0.4975 -0.123852,0.8578 -0.392264,1.0788 -0.260529,0.2132 -0.648106,0.3139 -1.13757,0.3139 l -1.765193,0 0,-2.7656 z m -5.746686,0.7257 c 0.142102,0.5606 0.304928,1.1224 0.470719,1.6672 0.173678,0.5447 0.332435,1.0832 0.490331,1.6279 l -1.882873,0 c 0.165786,-0.5447 0.344155,-1.0911 0.509945,-1.6279 0.165787,-0.5448 0.293457,-1.0987 0.411878,-1.6672 z" />
          </g>
        </g>
      </g>
    </g>
  </g>
</svg>
