<?xml version="1.0" encoding="UTF-8" standalone="no"?>
<!-- Created with Inkscape (http://www.inkscape.org/) -->
<svg id="svg6307" xmlns:rdf="http://www.w3.org/1999/02/22-rdf-syntax-ns#" xmlns="http://www.w3.org/2000/svg" height="96" width="96" version="1.1" xmlns:cc="http://creativecommons.org/ns#" xmlns:xlink="http://www.w3.org/1999/xlink" xmlns:dc="http://purl.org/dc/elements/1.1/">
 <defs id="defs6309">
  <filter id="filter6279-2" color-interpolation-filters="sRGB">
   <feGaussianBlur id="feGaussianBlur6281-1" stdDeviation="0.8"/>
  </filter>
  <linearGradient id="linearGradient9181" y2="902.36" gradientUnits="userSpaceOnUse" x2="48" gradientTransform="translate(0 -.0000078516)" y1="1052.4" x1="48">
   <stop id="stop3702-10" style="stop-color:#e6e6e6" offset="0"/>
   <stop id="stop3704-9" style="stop-color:#f5f5f5" offset="1"/>
  </linearGradient>
  <linearGradient id="linearGradient6828" y2="1044.8" xlink:href="#linearGradient3742" gradientUnits="userSpaceOnUse" x2="262.69" y1="1044.8" x1="197.69"/>
  <linearGradient id="linearGradient3742">
   <stop id="stop3744-2" style="stop-color:#778aa6" offset="0"/>
   <stop id="stop3746-9" style="stop-color:#a0afc5" offset="1"/>
  </linearGradient>
  <linearGradient id="linearGradient3098" y2="15.618" gradientUnits="userSpaceOnUse" x2="57.801" gradientTransform="scale(.99772 1.0023)" y1="69.276" x1="57.801">
   <stop id="stop3744-3" style="stop-color:#778aa6" offset="0"/>
   <stop id="stop3746-7" style="stop-color:#a0afc5" offset="1"/>
  </linearGradient>
 </defs>
 <metadata id="metadata6312">
  <rdf:RDF>
   <cc:Work rdf:about="">
    <dc:format>image/svg+xml</dc:format>
    <dc:type rdf:resource="http://purl.org/dc/dcmitype/StillImage"/>
    <dc:title/>
   </cc:Work>
  </rdf:RDF>
 </metadata>
 <g id="layer1" transform="translate(0 -956.36)">
  <g id="g6876">
   <rect id="rect9283" ry="5" style="filter:url(#filter6279-2)" rx="5" transform="translate(0 -.0000078516)" height="80" width="80" y="964.36" x="8"/>
   <rect id="rect9285" style="fill:url(#linearGradient9181)" rx="5" ry="5" height="80" width="80" y="964.36" x="8"/>
   <g id="g26594" style="fill:url(#linearGradient6828)" transform="translate(-182.19 -40.406)">
    <path id="rect3789-1-5" style="fill:url(#linearGradient6828)" transform="translate(0 956.36)" d="m201.75 55.906c-2.2506 0-4.0625 1.8119-4.0625 4.0625v56.875c0 2.2506 1.8119 4.0625 4.0625 4.0625h56.875c2.2506 0 4.0625-1.8119 4.0625-4.0625v-56.875c0-2.2506-1.8119-4.0625-4.0625-4.0625h-56.875zm4.375 5h48.125c1.9044 0 3.4375 1.5331 3.4375 3.4375v48.125c0 1.9044-1.5331 3.4375-3.4375 3.4375h-48.125c-1.9044 0-3.4375-1.5331-3.4375-3.4375v-48.125c0-1.9044 1.5331-3.4375 3.4375-3.4375z"/>
   </g>
   <g id="g3102" transform="matrix(0.75 0 0 0.75 6 967.66)">
    <path id="path4431" d="m36.684 16h34.308l1.2397 11.614h-2.0181c-0.84573-2.1046-2.047-4.0644-3.6038-5.8794-1.5569-1.8343-2.9792-2.8866-4.2669-3.1569-0.57664-0.11581-1.3262-0.19305-2.2488-0.2317-0.9226-0.03858-1.8644-0.05789-2.8254-0.05792h-12.512l16.722 22.041v0.78199l-18.999 22.794h22.978c1.0186-0.000006 1.9604-0.25102 2.8254-0.75303 0.86488-0.48272 1.6241-1.1102 2.2776-1.8826 0.6919-0.81096 1.3069-1.7185 1.8452-2.7225 0.53813-1.004 0.9802-1.9308 1.3262-2.7804l1.9316 0.60822-3.402 12.715h-35.923v-1.4192l20.066-24.3-19.72-26.066v-1.3033" style="opacity:.8;fill:url(#linearGradient3098)"/>
    <g id="g4423" style="fill:#394557">
     <path id="path4408" d="m41.386 79.934h-2.4103v-0.34806c0.15998-0.01758 0.29507-0.03515 0.40528-0.05274 0.11376-0.01758 0.17064-0.06329 0.17064-0.13711-0.000004-0.03164-0.01778-0.08086-0.05333-0.14766-0.03556-0.0668-0.0711-0.12832-0.10665-0.18457-0.08888-0.13711-0.21153-0.31993-0.36795-0.54845-0.15287-0.23204-0.34129-0.50802-0.56526-0.82795-0.18487 0.22852-0.35551 0.45177-0.51193 0.66974-0.15643 0.21446-0.31996 0.44298-0.4906 0.68556-0.02489 0.03515-0.05155 0.07911-0.07999 0.13184-0.02489 0.05274-0.03733 0.09493-0.03733 0.12657-0.000002 0.07735 0.04977 0.14239 0.14931 0.19512 0.1031 0.04922 0.25596 0.08262 0.45861 0.1002v0.33751h-1.9464v-0.32696c0.24174-0.07032 0.4355-0.15469 0.58126-0.25313 0.14931-0.10195 0.28618-0.22676 0.41061-0.37442 0.1102-0.14063 0.26307-0.33399 0.4586-0.58009 0.19908-0.2461 0.45505-0.58009 0.7679-1.002-0.182-0.258-0.404-0.571-0.667-0.94-0.26-0.372-0.475-0.682-0.645-0.928-0.093-0.133-0.2-0.241-0.32-0.322-0.118-0.084-0.285-0.126-0.502-0.126v-0.34805h2.2877v0.34805c-0.11376 0.000005-0.22575 0.0071-0.33596 0.02109-0.11021 0.01407-0.16531 0.0457-0.16531 0.09493-0.000002 0.03164 0.01066 0.06681 0.032 0.10547 0.02133 0.03867 0.04799 0.08087 0.07998 0.12656 0.07821 0.11954 0.19908 0.30411 0.36262 0.55372 0.16708 0.24962 0.34662 0.5133 0.53859 0.79104 0.12442-0.16875 0.26841-0.36563 0.43194-0.59064 0.16708-0.225 0.31995-0.43946 0.4586-0.64338 0.01422-0.0246 0.02844-0.05449 0.04266-0.08965 0.01422-0.03866 0.02133-0.07558 0.02133-0.11074-0.000003-0.07383-0.06221-0.13184-0.18664-0.17403-0.12088-0.04569-0.23642-0.07734-0.34662-0.09493v-0.33751h1.9411v0.32696c-0.27375 0.07032-0.48705 0.1547-0.63992 0.25313-0.15287 0.09493-0.28263 0.20567-0.38928 0.33224-0.11732 0.14415-0.25775 0.32169-0.42128 0.53263-0.15998 0.21095-0.38573 0.50626-0.67724 0.88596 0.32351 0.45001 0.58658 0.81916 0.78923 1.1074 0.20264 0.28829 0.40705 0.58537 0.61325 0.89123 0.10309 0.15469 0.21686 0.27774 0.34129 0.36915 0.12798 0.08789 0.30218 0.13887 0.5226 0.15293v0.34806" style="fill:#394557"/>
     <path id="path4410" d="m50.361 77.679h-2.405v2.3784h-0.67724v-2.3784h-2.405v-0.6592h2.405v-2.3784h0.67724v2.3784h2.405v0.6592" style="fill:#394557"/>
     <path id="path4412" d="m53.752 81.632c0-0.17579 0.048-0.31993 0.14398-0.43243 0.09954-0.10899 0.22219-0.16348 0.36795-0.16348 0.11376-0.000001 0.21153 0.02109 0.29329 0.06329 0.08176 0.04218 0.15464 0.09668 0.21864 0.16348 0.05333 0.05273 0.11021 0.12481 0.17064 0.21622s0.10843 0.167 0.14398 0.22676c0.17775-0.09493 0.38928-0.34278 0.63458-0.74357 0.24885-0.40079 0.42839-0.75236 0.5386-1.0547-0.33774-0.83322-0.64347-1.5786-0.91721-2.236-0.27374-0.65744-0.55993-1.3377-0.85855-2.0409-0.06754-0.16172-0.18131-0.28653-0.34129-0.37442-0.15998-0.0914-0.31996-0.14941-0.47994-0.17403v-0.34805h2.3997v0.36915c-0.10665 0.0035-0.23464 0.02637-0.38395 0.06856-0.14932 0.03867-0.22397 0.09317-0.22397 0.16348-0.000002 0.000005 0.0089 0.02637 0.02666 0.0791 0.02133 0.05275 0.03911 0.10372 0.05333 0.15293 0.13509 0.34806 0.34129 0.85081 0.61858 1.5082 0.27729 0.65392 0.49238 1.1778 0.64525 1.5715 0.15998-0.37618 0.32529-0.76466 0.49593-1.1655 0.1742-0.4043 0.36795-0.88068 0.58126-1.4291 0.02488-0.0668 0.06043-0.1582 0.10665-0.27422 0.04621-0.11953 0.06933-0.22149 0.06933-0.30587-0.000004-0.0914-0.08177-0.17578-0.2453-0.25313-0.15998-0.08086-0.31285-0.13008-0.45861-0.14766v-0.33751h1.9517v0.32696c-0.10666 0.01758-0.24708 0.07911-0.42128 0.18458-0.1742 0.10196-0.30396 0.24786-0.38928 0.43771-0.42306 0.97034-0.7999 1.8545-1.1305 2.6526-0.32707 0.79807-0.57593 1.3852-0.74657 1.7614-0.22397 0.4922-0.42484 0.87541-0.60259 1.1496-0.1742 0.27774-0.34484 0.49571-0.51193 0.65392-0.16354 0.14766-0.31285 0.2461-0.44794 0.29532-0.13154 0.05273-0.26841 0.0791-0.41061 0.0791-0.2773-0.000002-0.49594-0.06505-0.65591-0.19512-0.15642-0.13008-0.23464-0.2795-0.23464-0.44825" style="fill:#394557"/>
     <path id="path4414" d="m67.99 76.882h-5.3806v-0.6592h5.3806v0.6592m0 1.9618h-5.3806v-0.6592h5.3806v0.6592" style="fill:#394557"/>
     <path id="path4416" d="m76 79.934h-4.2554v-0.2795l2.9756-4.4931h-0.7359c-0.30929 0.000004-0.55104 0.0053-0.72524 0.01582-0.1742 0.01055-0.33418 0.0457-0.47994 0.10547-0.09954 0.03867-0.19375 0.14942-0.28263 0.33223-0.08532 0.18282-0.15998 0.42189-0.22397 0.7172h-0.32529v-1.5979h4.0208v0.21622l-3.0236 4.5564c0.12798 0.0035 0.26841 0.0071 0.42128 0.01055h0.49593c0.1422 0 0.28974-0.0018 0.44261-0.0053 0.15642-0.0035 0.3555-0.0123 0.59725-0.02636 0.1422-0.0071 0.24885-0.0545 0.31996-0.14239 0.07465-0.08789 0.13153-0.18809 0.17064-0.30059 0.0391-0.10195 0.08531-0.24258 0.13865-0.42188 0.05688-0.1793 0.10665-0.35333 0.14931-0.52208h0.31996v1.8352" style="fill:#394557"/>
    </g>
   </g>
  </g>
 </g>
</svg>
