<?xml version="1.0" encoding="UTF-8" standalone="no"?>
<!-- Created with Inkscape (http://www.inkscape.org/) -->

<svg
   xmlns:dc="http://purl.org/dc/elements/1.1/"
   xmlns:cc="http://creativecommons.org/ns#"
   xmlns:rdf="http://www.w3.org/1999/02/22-rdf-syntax-ns#"
   xmlns:svg="http://www.w3.org/2000/svg"
   xmlns="http://www.w3.org/2000/svg"
   xmlns:xlink="http://www.w3.org/1999/xlink"
   xmlns:sodipodi="http://sodipodi.sourceforge.net/DTD/sodipodi-0.dtd"
   xmlns:inkscape="http://www.inkscape.org/namespaces/inkscape"
   width="96"
   height="96"
   id="svg6307"
   version="1.1"
   inkscape:version="0.48.1 r9760"
   sodipodi:docname="application-x-glade.svg">
  <defs
     id="defs6309">
    <filter
       color-interpolation-filters="sRGB"
       inkscape:collect="always"
       id="filter6279-2">
      <feGaussianBlur
         inkscape:collect="always"
         stdDeviation="0.8"
         id="feGaussianBlur6281-1" />
    </filter>
    <linearGradient
       inkscape:collect="always"
       xlink:href="#linearGradient3700-6"
       id="linearGradient9181"
       gradientUnits="userSpaceOnUse"
       gradientTransform="translate(0,-7.8515622e-6)"
       x1="48"
       y1="1052.3622"
       x2="48"
       y2="902.36218" />
    <linearGradient
       id="linearGradient3700-6">
      <stop
         id="stop3702-9"
         style="stop-color:#4885bd;stop-opacity:1"
         offset="0" />
      <stop
         id="stop3704-22"
         style="stop-color:#91b5d7;stop-opacity:1"
         offset="1" />
    </linearGradient>
    <linearGradient
       x1="48"
       y1="20.220806"
       x2="48"
       y2="138.66119"
       id="linearGradient2919"
       xlink:href="#linearGradient3737-9-1"
       gradientUnits="userSpaceOnUse" />
    <linearGradient
       id="linearGradient3737-9-1">
      <stop
         id="stop3739-2"
         style="stop-color:#ffffff;stop-opacity:1"
         offset="0" />
      <stop
         id="stop3741-1-1"
         style="stop-color:#ffffff;stop-opacity:0"
         offset="1" />
    </linearGradient>
    <clipPath
       id="clipPath3613-03">
      <rect
         width="84"
         height="84"
         rx="6"
         ry="6"
         x="6"
         y="6"
         id="rect3615-40"
         style="fill:#ffffff;fill-opacity:1;fill-rule:nonzero;stroke:none" />
    </clipPath>
    <filter
       x="-0.192"
       y="-0.192"
       width="1.3839999"
       height="1.3839999"
       color-interpolation-filters="sRGB"
       id="filter3794-39">
      <feGaussianBlur
         id="feGaussianBlur3796-1"
         stdDeviation="5.28" />
    </filter>
    <linearGradient
       x1="10"
       y1="11.5"
       x2="69"
       y2="11.5"
       id="linearGradient3710-9"
       xlink:href="#linearGradient3704"
       gradientUnits="userSpaceOnUse"
       gradientTransform="matrix(1.3572023,0,0,1,-5.5720228,13)" />
    <linearGradient
       id="linearGradient3704">
      <stop
         id="stop3706-6"
         style="stop-color:#ffffff;stop-opacity:0"
         offset="0" />
      <stop
         id="stop3714-9"
         style="stop-color:#ffffff;stop-opacity:1"
         offset="0.15000001" />
      <stop
         id="stop3716"
         style="stop-color:#ffffff;stop-opacity:1"
         offset="0.69999999" />
      <stop
         id="stop3708-3"
         style="stop-color:#ffffff;stop-opacity:0"
         offset="1" />
    </linearGradient>
    <linearGradient
       x1="10"
       y1="11.5"
       x2="69"
       y2="11.5"
       id="linearGradient3720"
       xlink:href="#linearGradient3704"
       gradientUnits="userSpaceOnUse"
       gradientTransform="matrix(1.0006748,0,0,0.83641517,5.9932514,-25.118774)" />
    <linearGradient
       id="linearGradient6256">
      <stop
         id="stop6258"
         style="stop-color:#ffffff;stop-opacity:0"
         offset="0" />
      <stop
         id="stop6260"
         style="stop-color:#ffffff;stop-opacity:1"
         offset="0.15000001" />
      <stop
         id="stop6262"
         style="stop-color:#ffffff;stop-opacity:1"
         offset="0.69999999" />
      <stop
         id="stop6264"
         style="stop-color:#ffffff;stop-opacity:0"
         offset="1" />
    </linearGradient>
    <linearGradient
       x1="10"
       y1="11.5"
       x2="69"
       y2="11.5"
       id="linearGradient3726"
       xlink:href="#linearGradient3704"
       gradientUnits="userSpaceOnUse"
       gradientTransform="matrix(0.99976188,0,0,0.83078806,7.0023809,-90.054063)" />
    <linearGradient
       id="linearGradient6267">
      <stop
         id="stop6269"
         style="stop-color:#ffffff;stop-opacity:0"
         offset="0" />
      <stop
         id="stop6271"
         style="stop-color:#ffffff;stop-opacity:1"
         offset="0.15000001" />
      <stop
         id="stop6273"
         style="stop-color:#ffffff;stop-opacity:1"
         offset="0.69999999" />
      <stop
         id="stop6275"
         style="stop-color:#ffffff;stop-opacity:0"
         offset="1" />
    </linearGradient>
    <linearGradient
       x1="10"
       y1="11.5"
       x2="69"
       y2="11.5"
       id="linearGradient3729"
       xlink:href="#linearGradient3704"
       gradientUnits="userSpaceOnUse"
       gradientTransform="matrix(1.1016949,0,0,1,-96.016948,-86)" />
    <linearGradient
       id="linearGradient6278">
      <stop
         id="stop6280"
         style="stop-color:#ffffff;stop-opacity:0"
         offset="0" />
      <stop
         id="stop6282"
         style="stop-color:#ffffff;stop-opacity:1"
         offset="0.15000001" />
      <stop
         id="stop6284"
         style="stop-color:#ffffff;stop-opacity:1"
         offset="0.69999999" />
      <stop
         id="stop6286"
         style="stop-color:#ffffff;stop-opacity:0"
         offset="1" />
    </linearGradient>
    <linearGradient
       x1="10"
       y1="11.5"
       x2="69"
       y2="11.5"
       id="linearGradient4204"
       xlink:href="#linearGradient3704"
       gradientUnits="userSpaceOnUse"
       gradientTransform="matrix(1.2301174,0,0,1,-2.3011741,21)" />
    <linearGradient
       id="linearGradient6289">
      <stop
         id="stop6291"
         style="stop-color:#ffffff;stop-opacity:0"
         offset="0" />
      <stop
         id="stop6293"
         style="stop-color:#ffffff;stop-opacity:1"
         offset="0.15000001" />
      <stop
         id="stop6295"
         style="stop-color:#ffffff;stop-opacity:1"
         offset="0.69999999" />
      <stop
         id="stop6297"
         style="stop-color:#ffffff;stop-opacity:0"
         offset="1" />
    </linearGradient>
    <linearGradient
       x1="38"
       y1="41"
       x2="78"
       y2="41"
       id="linearGradient4238"
       xlink:href="#linearGradient4232"
       gradientUnits="userSpaceOnUse" />
    <linearGradient
       id="linearGradient4232">
      <stop
         id="stop4234"
         style="stop-color:#ffffff;stop-opacity:1"
         offset="0" />
      <stop
         id="stop4236-2"
         style="stop-color:#ffffff;stop-opacity:0"
         offset="1" />
    </linearGradient>
    <linearGradient
       y2="41"
       x2="78"
       y1="41"
       x1="38"
       gradientUnits="userSpaceOnUse"
       id="linearGradient3459"
       xlink:href="#linearGradient4232"
       inkscape:collect="always" />
    <linearGradient
       id="linearGradient6304">
      <stop
         id="stop6306"
         style="stop-color:#ffffff;stop-opacity:1"
         offset="0" />
      <stop
         id="stop6308"
         style="stop-color:#ffffff;stop-opacity:0"
         offset="1" />
    </linearGradient>
    <linearGradient
       y2="41"
       x2="78"
       y1="41"
       x1="38"
       gradientUnits="userSpaceOnUse"
       id="linearGradient3461-0"
       xlink:href="#linearGradient4232"
       inkscape:collect="always" />
    <linearGradient
       id="linearGradient6311">
      <stop
         id="stop6313"
         style="stop-color:#ffffff;stop-opacity:1"
         offset="0" />
      <stop
         id="stop6315"
         style="stop-color:#ffffff;stop-opacity:0"
         offset="1" />
    </linearGradient>
    <linearGradient
       y2="41"
       x2="78"
       y1="41"
       x1="38"
       gradientUnits="userSpaceOnUse"
       id="linearGradient3463-2"
       xlink:href="#linearGradient4232"
       inkscape:collect="always" />
    <linearGradient
       id="linearGradient6318">
      <stop
         id="stop6320"
         style="stop-color:#ffffff;stop-opacity:1"
         offset="0" />
      <stop
         id="stop6322"
         style="stop-color:#ffffff;stop-opacity:0"
         offset="1" />
    </linearGradient>
    <linearGradient
       y2="41"
       x2="78"
       y1="41"
       x1="38"
       gradientUnits="userSpaceOnUse"
       id="linearGradient3465"
       xlink:href="#linearGradient4232"
       inkscape:collect="always" />
    <linearGradient
       id="linearGradient6325">
      <stop
         id="stop6327"
         style="stop-color:#ffffff;stop-opacity:1"
         offset="0" />
      <stop
         id="stop6329"
         style="stop-color:#ffffff;stop-opacity:0"
         offset="1" />
    </linearGradient>
    <linearGradient
       y2="41"
       x2="78"
       y1="41"
       x1="38"
       gradientUnits="userSpaceOnUse"
       id="linearGradient3467"
       xlink:href="#linearGradient4232"
       inkscape:collect="always" />
    <linearGradient
       id="linearGradient6332">
      <stop
         id="stop6334"
         style="stop-color:#ffffff;stop-opacity:1"
         offset="0" />
      <stop
         id="stop6336"
         style="stop-color:#ffffff;stop-opacity:0"
         offset="1" />
    </linearGradient>
    <linearGradient
       y2="41"
       x2="78"
       y1="41"
       x1="38"
       gradientUnits="userSpaceOnUse"
       id="linearGradient3469-8"
       xlink:href="#linearGradient4232"
       inkscape:collect="always" />
    <linearGradient
       id="linearGradient6339">
      <stop
         id="stop6341"
         style="stop-color:#ffffff;stop-opacity:1"
         offset="0" />
      <stop
         id="stop6343"
         style="stop-color:#ffffff;stop-opacity:0"
         offset="1" />
    </linearGradient>
    <linearGradient
       y2="41"
       x2="78"
       y1="41"
       x1="38"
       gradientUnits="userSpaceOnUse"
       id="linearGradient3471"
       xlink:href="#linearGradient4232"
       inkscape:collect="always" />
    <linearGradient
       id="linearGradient6346">
      <stop
         id="stop6348"
         style="stop-color:#ffffff;stop-opacity:1"
         offset="0" />
      <stop
         id="stop6350"
         style="stop-color:#ffffff;stop-opacity:0"
         offset="1" />
    </linearGradient>
    <linearGradient
       x1="38"
       y1="41"
       x2="89"
       y2="41"
       id="linearGradient4292"
       xlink:href="#linearGradient4232"
       gradientUnits="userSpaceOnUse" />
    <linearGradient
       id="linearGradient6353">
      <stop
         id="stop6355"
         style="stop-color:#ffffff;stop-opacity:1"
         offset="0" />
      <stop
         id="stop6357"
         style="stop-color:#ffffff;stop-opacity:0"
         offset="1" />
    </linearGradient>
    <linearGradient
       y2="41"
       x2="78"
       y1="41"
       x1="38"
       gradientUnits="userSpaceOnUse"
       id="linearGradient3473"
       xlink:href="#linearGradient4232"
       inkscape:collect="always" />
    <linearGradient
       id="linearGradient6360">
      <stop
         id="stop6362"
         style="stop-color:#ffffff;stop-opacity:1"
         offset="0" />
      <stop
         id="stop6364"
         style="stop-color:#ffffff;stop-opacity:0"
         offset="1" />
    </linearGradient>
    <linearGradient
       y2="41"
       x2="78"
       y1="41"
       x1="38"
       gradientUnits="userSpaceOnUse"
       id="linearGradient3475"
       xlink:href="#linearGradient4232"
       inkscape:collect="always" />
    <linearGradient
       id="linearGradient6367">
      <stop
         id="stop6369"
         style="stop-color:#ffffff;stop-opacity:1"
         offset="0" />
      <stop
         id="stop6371"
         style="stop-color:#ffffff;stop-opacity:0"
         offset="1" />
    </linearGradient>
    <linearGradient
       y2="41"
       x2="78"
       y1="41"
       x1="38"
       gradientUnits="userSpaceOnUse"
       id="linearGradient3477"
       xlink:href="#linearGradient4232"
       inkscape:collect="always" />
    <linearGradient
       id="linearGradient6374">
      <stop
         id="stop6376"
         style="stop-color:#ffffff;stop-opacity:1"
         offset="0" />
      <stop
         id="stop6378"
         style="stop-color:#ffffff;stop-opacity:0"
         offset="1" />
    </linearGradient>
    <linearGradient
       x1="36"
       y1="51.313709"
       x2="89"
       y2="51"
       id="linearGradient4290"
       xlink:href="#linearGradient4232"
       gradientUnits="userSpaceOnUse" />
    <linearGradient
       id="linearGradient6381">
      <stop
         id="stop6383"
         style="stop-color:#ffffff;stop-opacity:1"
         offset="0" />
      <stop
         id="stop6385"
         style="stop-color:#ffffff;stop-opacity:0"
         offset="1" />
    </linearGradient>
    <linearGradient
       y2="51"
       x2="89"
       y1="51.313709"
       x1="36"
       gradientUnits="userSpaceOnUse"
       id="linearGradient3479-3"
       xlink:href="#linearGradient4232"
       inkscape:collect="always" />
    <linearGradient
       id="linearGradient6388">
      <stop
         id="stop6390"
         style="stop-color:#ffffff;stop-opacity:1"
         offset="0" />
      <stop
         id="stop6392"
         style="stop-color:#ffffff;stop-opacity:0"
         offset="1" />
    </linearGradient>
    <linearGradient
       y2="51"
       x2="89"
       y1="51.313709"
       x1="36"
       gradientUnits="userSpaceOnUse"
       id="linearGradient3481"
       xlink:href="#linearGradient4232"
       inkscape:collect="always" />
    <linearGradient
       id="linearGradient6395">
      <stop
         id="stop6397"
         style="stop-color:#ffffff;stop-opacity:1"
         offset="0" />
      <stop
         id="stop6399"
         style="stop-color:#ffffff;stop-opacity:0"
         offset="1" />
    </linearGradient>
    <linearGradient
       y2="51"
       x2="89"
       y1="51.313709"
       x1="36"
       gradientUnits="userSpaceOnUse"
       id="linearGradient3483-8"
       xlink:href="#linearGradient4232"
       inkscape:collect="always" />
    <linearGradient
       id="linearGradient6402">
      <stop
         id="stop6404"
         style="stop-color:#ffffff;stop-opacity:1"
         offset="0" />
      <stop
         id="stop6406"
         style="stop-color:#ffffff;stop-opacity:0"
         offset="1" />
    </linearGradient>
    <linearGradient
       y2="51"
       x2="89"
       y1="51.313709"
       x1="36"
       gradientUnits="userSpaceOnUse"
       id="linearGradient3485-0"
       xlink:href="#linearGradient4232"
       inkscape:collect="always" />
    <linearGradient
       id="linearGradient6409">
      <stop
         id="stop6411"
         style="stop-color:#ffffff;stop-opacity:1"
         offset="0" />
      <stop
         id="stop6413"
         style="stop-color:#ffffff;stop-opacity:0"
         offset="1" />
    </linearGradient>
    <linearGradient
       y2="51"
       x2="89"
       y1="51.313709"
       x1="36"
       gradientUnits="userSpaceOnUse"
       id="linearGradient3487-4"
       xlink:href="#linearGradient4232"
       inkscape:collect="always" />
    <linearGradient
       id="linearGradient6416">
      <stop
         id="stop6418"
         style="stop-color:#ffffff;stop-opacity:1"
         offset="0" />
      <stop
         id="stop6420"
         style="stop-color:#ffffff;stop-opacity:0"
         offset="1" />
    </linearGradient>
    <linearGradient
       y2="51"
       x2="89"
       y1="51.313709"
       x1="36"
       gradientUnits="userSpaceOnUse"
       id="linearGradient3489"
       xlink:href="#linearGradient4232"
       inkscape:collect="always" />
    <linearGradient
       id="linearGradient6423">
      <stop
         id="stop6425"
         style="stop-color:#ffffff;stop-opacity:1"
         offset="0" />
      <stop
         id="stop6427"
         style="stop-color:#ffffff;stop-opacity:0"
         offset="1" />
    </linearGradient>
    <linearGradient
       y2="51"
       x2="89"
       y1="51.313709"
       x1="36"
       gradientUnits="userSpaceOnUse"
       id="linearGradient3491"
       xlink:href="#linearGradient4232"
       inkscape:collect="always" />
    <linearGradient
       id="linearGradient6430">
      <stop
         id="stop6432"
         style="stop-color:#ffffff;stop-opacity:1"
         offset="0" />
      <stop
         id="stop6434"
         style="stop-color:#ffffff;stop-opacity:0"
         offset="1" />
    </linearGradient>
    <linearGradient
       y2="51"
       x2="89"
       y1="51.313709"
       x1="36"
       gradientUnits="userSpaceOnUse"
       id="linearGradient3493"
       xlink:href="#linearGradient4232"
       inkscape:collect="always" />
    <linearGradient
       id="linearGradient6437">
      <stop
         id="stop6439"
         style="stop-color:#ffffff;stop-opacity:1"
         offset="0" />
      <stop
         id="stop6441"
         style="stop-color:#ffffff;stop-opacity:0"
         offset="1" />
    </linearGradient>
    <linearGradient
       y2="51"
       x2="89"
       y1="51.313709"
       x1="36"
       gradientUnits="userSpaceOnUse"
       id="linearGradient3495"
       xlink:href="#linearGradient4232"
       inkscape:collect="always" />
    <linearGradient
       id="linearGradient6444">
      <stop
         id="stop6446"
         style="stop-color:#ffffff;stop-opacity:1"
         offset="0" />
      <stop
         id="stop6448"
         style="stop-color:#ffffff;stop-opacity:0"
         offset="1" />
    </linearGradient>
    <linearGradient
       y2="51"
       x2="89"
       y1="51.313709"
       x1="36"
       gradientUnits="userSpaceOnUse"
       id="linearGradient3497"
       xlink:href="#linearGradient4232"
       inkscape:collect="always" />
    <linearGradient
       id="linearGradient6451">
      <stop
         id="stop6453"
         style="stop-color:#ffffff;stop-opacity:1"
         offset="0" />
      <stop
         id="stop6455"
         style="stop-color:#ffffff;stop-opacity:0"
         offset="1" />
    </linearGradient>
    <linearGradient
       y2="51"
       x2="89"
       y1="51.313709"
       x1="36"
       gradientUnits="userSpaceOnUse"
       id="linearGradient3499"
       xlink:href="#linearGradient4232"
       inkscape:collect="always" />
    <linearGradient
       id="linearGradient6458">
      <stop
         id="stop6460"
         style="stop-color:#ffffff;stop-opacity:1"
         offset="0" />
      <stop
         id="stop6462"
         style="stop-color:#ffffff;stop-opacity:0"
         offset="1" />
    </linearGradient>
    <linearGradient
       y2="51"
       x2="89"
       y1="51.313709"
       x1="36"
       gradientUnits="userSpaceOnUse"
       id="linearGradient3501-0"
       xlink:href="#linearGradient4232"
       inkscape:collect="always" />
    <linearGradient
       id="linearGradient6465">
      <stop
         id="stop6467"
         style="stop-color:#ffffff;stop-opacity:1"
         offset="0" />
      <stop
         id="stop6469"
         style="stop-color:#ffffff;stop-opacity:0"
         offset="1" />
    </linearGradient>
  </defs>
  <sodipodi:namedview
     id="base"
     pagecolor="#ffffff"
     bordercolor="#666666"
     borderopacity="1.0"
     inkscape:pageopacity="0.0"
     inkscape:pageshadow="2"
     inkscape:zoom="3.959798"
     inkscape:cx="12.34108"
     inkscape:cy="47.453592"
     inkscape:document-units="px"
     inkscape:current-layer="layer1"
     showgrid="false"
     inkscape:window-width="1280"
     inkscape:window-height="725"
     inkscape:window-x="0"
     inkscape:window-y="25"
     inkscape:window-maximized="1" />
  <metadata
     id="metadata6312">
    <rdf:RDF>
      <cc:Work
         rdf:about="">
        <dc:format>image/svg+xml</dc:format>
        <dc:type
           rdf:resource="http://purl.org/dc/dcmitype/StillImage" />
        <dc:title></dc:title>
      </cc:Work>
    </rdf:RDF>
  </metadata>
  <g
     inkscape:label="Layer 1"
     inkscape:groupmode="layer"
     id="layer1"
     transform="translate(0,-956.36218)">
    <g
       id="g7233">
      <rect
         transform="translate(0,-7.8515622e-6)"
         y="964.36218"
         x="8"
         height="80"
         width="80"
         id="rect9283"
         style="fill:#000000;fill-opacity:1;stroke:none;filter:url(#filter6279-2)"
         rx="5"
         ry="5" />
      <rect
         ry="5"
         rx="5"
         style="fill:url(#linearGradient9181);fill-opacity:1;stroke:none"
         id="rect9285"
         width="80"
         height="80"
         x="8"
         y="964.36218" />
      <g
         id="g3110"
         style="display:inline"
         transform="matrix(0.6547619,0,0,0.6547619,16.571429,972.93361)">
        <path
           d="m 6,16 0,1 84,0 0,-1 -84,0 z m 0,16 0,1 84,0 0,-1 -84,0 z m 0,16 0,1 84,0 0,-1 -84,0 z m 0,16 0,1 84,0 0,-1 -84,0 z m 0,16 0,1 84,0 0,-1 -84,0 z"
           inkscape:connector-curvature="0"
           id="rect3679"
           style="opacity:0.1;color:#000000;fill:#ffffff;fill-opacity:1;fill-rule:nonzero;stroke:none;stroke-width:1;marker:none;visibility:visible;display:inline;overflow:visible;enable-background:accumulate" />
        <path
           d="m 80,6 -1,0 0,84 1,0 0,-84 z m -16,0 -1,0 0,84 1,0 0,-84 z m -16,0 -1,0 0,84 1,0 0,-84 z m -16,0 -1,0 0,84 1,0 0,-84 z m -16,0 -1,0 0,84 1,0 0,-84 z"
           inkscape:connector-curvature="0"
           id="rect3689"
           style="opacity:0.1;color:#000000;fill:#ffffff;fill-opacity:1;fill-rule:nonzero;stroke:none;stroke-width:1;marker:none;visibility:visible;display:inline;overflow:visible;enable-background:accumulate" />
        <g
           id="layer4">
          <rect
             width="66"
             height="66"
             rx="12"
             ry="12"
             x="15"
             y="15"
             clip-path="url(#clipPath3613-03)"
             id="rect3171"
             style="opacity:0.15;fill:url(#linearGradient2919);fill-opacity:1;fill-rule:nonzero;stroke:#ffffff;stroke-width:0.5;stroke-linecap:round;stroke-linejoin:miter;stroke-miterlimit:4;stroke-opacity:1;stroke-dasharray:none;stroke-dashoffset:0;display:inline;filter:url(#filter3794-39)" />
        </g>
        <g
           id="layer3">
          <rect
             width="80.074936"
             height="1"
             x="8"
             y="24"
             id="rect3702"
             style="opacity:0.7;color:#000000;fill:url(#linearGradient3710-9);fill-opacity:1;fill-rule:nonzero;stroke:none;stroke-width:1;marker:none;visibility:visible;display:inline;overflow:visible;enable-background:accumulate" />
          <rect
             width="59.039818"
             height="0.83641517"
             x="16"
             y="-15.918207"
             transform="matrix(0,1,-1,0,0,0)"
             id="rect3718"
             style="opacity:0.7;color:#000000;fill:url(#linearGradient3720);fill-opacity:1;fill-rule:nonzero;stroke:none;stroke-width:1;marker:none;visibility:visible;display:inline;overflow:visible;enable-background:accumulate" />
          <rect
             width="58.985954"
             height="0.83078808"
             x="17"
             y="-80.915398"
             transform="matrix(0,1,-1,0,0,0)"
             id="rect3722"
             style="opacity:0.7;color:#000000;fill:url(#linearGradient3726);fill-opacity:1;fill-rule:nonzero;stroke:none;stroke-width:1;marker:none;visibility:visible;display:inline;overflow:visible;enable-background:accumulate" />
          <rect
             width="65"
             height="1"
             x="-85"
             y="-75"
             transform="scale(-1,-1)"
             id="rect3724"
             style="opacity:0.7;color:#000000;fill:url(#linearGradient3729);fill-opacity:1;fill-rule:nonzero;stroke:none;stroke-width:1;marker:none;visibility:visible;display:inline;overflow:visible;enable-background:accumulate" />
          <rect
             width="72.576927"
             height="1"
             x="10"
             y="32"
             id="rect4202"
             style="opacity:0.5;color:#000000;fill:url(#linearGradient4204);fill-opacity:1;fill-rule:nonzero;stroke:none;stroke-width:1;marker:none;visibility:visible;display:inline;overflow:visible;enable-background:accumulate" />
          <path
             d="m 76,29 a 2,2 0 1 1 -4,0 2,2 0 1 1 4,0 z"
             transform="translate(2,0)"
             id="path4214"
             style="opacity:0.6;color:#000000;fill:#ffffff;stroke:none;stroke-width:1;marker:none;visibility:visible;display:inline;overflow:visible;enable-background:accumulate"
             inkscape:connector-curvature="0" />
          <path
             d="m 76,29 a 2,2 0 1 1 -4,0 2,2 0 1 1 4,0 z"
             transform="translate(-4,0)"
             id="path4216"
             style="opacity:0.4;color:#000000;fill:#ffffff;stroke:none;stroke-width:1;marker:none;visibility:visible;display:inline;overflow:visible;enable-background:accumulate"
             inkscape:connector-curvature="0" />
          <path
             d="m 76,29 a 2,2 0 1 1 -4,0 2,2 0 1 1 4,0 z"
             transform="translate(-10,0)"
             id="path4218"
             style="opacity:0.4;color:#000000;fill:#ffffff;stroke:none;stroke-width:1;marker:none;visibility:visible;display:inline;overflow:visible;enable-background:accumulate"
             inkscape:connector-curvature="0" />
          <path
             d="m 30,43 a 3,3 0 1 1 -6,0 3,3 0 1 1 6,0 z"
             transform="matrix(0.83333333,0,0,0.83333333,2.5000001,5.1666668)"
             id="path4220"
             style="opacity:0.6;color:#000000;fill:none;stroke:#ffffff;stroke-width:1.20000005;marker:none;visibility:visible;display:inline;overflow:visible;enable-background:accumulate"
             inkscape:connector-curvature="0" />
          <path
             d="m 30,43 a 3,3 0 1 1 -6,0 3,3 0 1 1 6,0 z"
             transform="matrix(0.83333333,0,0,0.83333333,2.5000001,15.166667)"
             id="path4222"
             style="opacity:0.6;color:#000000;fill:none;stroke:#ffffff;stroke-width:1.20000005;marker:none;visibility:visible;display:inline;overflow:visible;enable-background:accumulate"
             inkscape:connector-curvature="0" />
          <g
             id="text4224"
             style="font-size:5.70656776px;font-style:normal;font-variant:normal;font-weight:bold;font-stretch:normal;text-align:start;line-height:125%;letter-spacing:0px;word-spacing:0px;writing-mode:lr-tb;text-anchor:start;opacity:0.6;fill:url(#linearGradient4238);fill-opacity:1;stroke:none;font-family:Ubuntu;-inkscape-font-specification:Ubuntu Bold">
            <path
               d="m 31.456525,43 0,-3.954651 2.647848,0 0,0.74756 -1.757623,0 0,0.827452 1.5636,0 0,0.747561 -1.5636,0 0,1.632078 -0.890225,0"
               inkscape:connector-curvature="0"
               id="path4243"
               style="fill:url(#linearGradient3459)" />
            <path
               d="m 35.526557,43 -0.850279,0 0,-3.001655 0.850279,0 0,3.001655 m 0.07989,-3.869053 c -2e-6,0.155983 -0.05136,0.279625 -0.154078,0.370927 -0.09891,0.0875 -0.21685,0.131254 -0.353807,0.131251 -0.136958,3e-6 -0.256796,-0.04375 -0.359514,-0.131251 -0.09891,-0.0913 -0.148371,-0.214944 -0.14837,-0.370927 -10e-7,-0.155975 0.04946,-0.277715 0.14837,-0.36522 0.102718,-0.0913 0.222556,-0.136954 0.359514,-0.136958 0.136957,4e-6 0.254892,0.04566 0.353807,0.136958 0.102717,0.08751 0.154076,0.209245 0.154078,0.36522"
               inkscape:connector-curvature="0"
               id="path4245"
               style="fill:url(#linearGradient3461-0)" />
            <path
               d="m 38.134815,40.751612 c -0.07609,-0.01902 -0.165493,-0.03804 -0.268209,-0.05707 -0.10272,-0.02282 -0.213047,-0.03424 -0.330981,-0.03424 -0.05326,3e-6 -0.117937,0.0057 -0.194023,0.01712 -0.07229,0.0076 -0.127448,0.01712 -0.165491,0.02853 l 0,2.29404 -0.850278,0 0,-2.841871 c 0.152174,-0.05326 0.33098,-0.102715 0.536417,-0.148371 0.20924,-0.04945 0.441307,-0.07418 0.696201,-0.07418 0.04565,3e-6 0.100815,0.0038 0.165491,0.01141 0.06467,0.0038 0.129347,0.01142 0.194023,0.02283 0.06467,0.0076 0.129347,0.01902 0.194023,0.03424 0.06467,0.01142 0.119836,0.02663 0.165491,0.04565 l -0.142664,0.701908"
               inkscape:connector-curvature="0"
               id="path4247"
               style="fill:url(#linearGradient3463-2)" />
            <path
               d="m 39.594983,42.389397 c 0.155978,10e-7 0.266305,-0.01522 0.330981,-0.04565 0.06467,-0.03043 0.09701,-0.0894 0.09701,-0.176904 -10e-7,-0.06848 -0.04185,-0.127446 -0.125544,-0.176903 -0.0837,-0.05326 -0.211144,-0.112229 -0.38234,-0.176904 -0.133154,-0.04946 -0.254894,-0.100815 -0.36522,-0.154077 -0.106524,-0.05326 -0.197829,-0.116033 -0.273916,-0.188317 -0.07609,-0.07609 -0.135056,-0.165489 -0.176903,-0.268209 -0.04185,-0.102716 -0.06277,-0.226358 -0.06277,-0.370927 0,-0.281521 0.10462,-0.504077 0.313862,-0.667668 0.20924,-0.163585 0.49647,-0.24538 0.861691,-0.245383 0.182609,3e-6 0.35761,0.01712 0.525005,0.05136 0.16739,0.03044 0.300543,0.06468 0.399459,0.102718 l -0.14837,0.661962 c -0.09892,-0.03424 -0.207341,-0.06467 -0.325275,-0.0913 -0.114133,-0.02663 -0.243482,-0.03994 -0.388046,-0.03995 -0.266308,2e-6 -0.399461,0.07419 -0.39946,0.222556 -10e-7,0.03424 0.0057,0.06468 0.01712,0.0913 0.01141,0.02663 0.03424,0.05326 0.06848,0.07989 0.03424,0.02283 0.07989,0.04946 0.136958,0.07989 0.06087,0.02663 0.136956,0.05707 0.228263,0.0913 0.186412,0.06848 0.34049,0.136959 0.462232,0.205436 0.121738,0.06468 0.216847,0.136959 0.285328,0.21685 0.07228,0.07609 0.121738,0.161687 0.148371,0.256795 0.03043,0.09511 0.04565,0.205438 0.04565,0.330981 -2e-6,0.296742 -0.112231,0.5212 -0.336687,0.673375 -0.220656,0.152175 -0.534517,0.228263 -0.941584,0.228263 -0.266307,0 -0.488863,-0.02283 -0.667668,-0.06848 -0.175002,-0.04565 -0.296742,-0.0837 -0.365221,-0.114131 l 0.142665,-0.690495 c 0.144566,0.05707 0.292936,0.102719 0.445112,0.136958 0.152174,0.03044 0.302447,0.04565 0.450819,0.04565"
               inkscape:connector-curvature="0"
               id="path4249"
               style="fill:url(#linearGradient3465)" />
            <path
               d="m 41.468877,39.250785 0.850278,-0.136958 0,0.884518 1.021476,0 0,0.707615 -1.021476,0 0,1.055715 c -1e-6,0.178807 0.03043,0.321471 0.09131,0.427992 0.06467,0.106524 0.192119,0.159785 0.38234,0.159784 0.0913,10e-7 0.18451,-0.0076 0.279621,-0.02283 0.09891,-0.01902 0.188315,-0.04375 0.268209,-0.07418 l 0.119838,0.661961 c -0.10272,0.04185 -0.216852,0.07799 -0.342394,0.108425 -0.125546,0.03043 -0.279624,0.04565 -0.462232,0.04565 -0.232068,0 -0.424189,-0.03044 -0.576363,-0.09131 -0.152176,-0.06468 -0.273916,-0.152175 -0.365221,-0.262502 -0.0913,-0.114131 -0.15598,-0.251089 -0.194023,-0.410873 -0.03424,-0.159783 -0.05136,-0.336687 -0.05136,-0.530711 l 0,-2.522303"
               inkscape:connector-curvature="0"
               id="path4251"
               style="fill:url(#linearGradient3467)" />
            <path
               d="m 48.206015,41.493466 c -3e-6,0.235873 -0.03424,0.452722 -0.102718,0.650549 -0.06848,0.194024 -0.167395,0.361416 -0.296741,0.502178 -0.129352,0.136958 -0.285331,0.24348 -0.467939,0.319568 -0.178808,0.07609 -0.38044,0.114131 -0.604896,0.114131 -0.220656,0 -0.422287,-0.03804 -0.604896,-0.114131 -0.178807,-0.07609 -0.332884,-0.18261 -0.462232,-0.319568 -0.12935,-0.140762 -0.230166,-0.308154 -0.302448,-0.502178 -0.07228,-0.197827 -0.108425,-0.414676 -0.108425,-0.650549 0,-0.23587 0.03614,-0.450817 0.108425,-0.644842 0.07609,-0.194021 0.178805,-0.359511 0.308154,-0.496471 0.133153,-0.136955 0.289132,-0.243478 0.467939,-0.319568 0.182609,-0.07608 0.380436,-0.114129 0.593483,-0.114132 0.216847,3e-6 0.414675,0.03805 0.593483,0.114132 0.182608,0.07609 0.338587,0.182613 0.467938,0.319568 0.129346,0.13696 0.230162,0.30245 0.302449,0.496471 0.07228,0.194025 0.108421,0.408972 0.108424,0.644842 m -0.867398,0 c -2e-6,-0.2625 -0.05326,-0.467936 -0.159784,-0.616309 -0.10272,-0.152173 -0.251091,-0.228261 -0.445112,-0.228263 -0.194025,2e-6 -0.344298,0.07609 -0.450819,0.228263 -0.106524,0.148373 -0.159785,0.353809 -0.159784,0.616309 -10e-7,0.262503 0.05326,0.471744 0.159784,0.627723 0.106521,0.152175 0.256794,0.228263 0.450819,0.228262 0.194021,10e-7 0.342392,-0.07609 0.445112,-0.228262 0.10652,-0.155979 0.159782,-0.36522 0.159784,-0.627723"
               inkscape:connector-curvature="0"
               id="path4253"
               style="fill:url(#linearGradient3469-8)" />
            <path
               d="m 50.787791,41.521999 c -3e-6,-0.2625 -0.05897,-0.471741 -0.176904,-0.627723 -0.117938,-0.159781 -0.292939,-0.239673 -0.525004,-0.239675 -0.07609,2e-6 -0.14647,0.0038 -0.211143,0.01141 -0.06468,0.0038 -0.117937,0.0095 -0.159784,0.01712 l 0,1.535067 c 0.05326,0.03424 0.121739,0.06277 0.205436,0.0856 0.0875,0.02283 0.175,0.03424 0.262502,0.03424 0.403262,1e-6 0.604894,-0.272012 0.604897,-0.816039 m 0.867398,-0.02283 c -3e-6,0.232068 -0.02854,0.443211 -0.0856,0.633429 -0.05707,0.190219 -0.140765,0.353807 -0.251089,0.490765 -0.110329,0.136957 -0.247287,0.24348 -0.410872,0.319567 -0.163591,0.07609 -0.351908,0.114132 -0.564951,0.114132 -0.117937,0 -0.228264,-0.01141 -0.330981,-0.03424 C 49.908978,43 49.810064,42.967663 49.714956,42.925815 l 0,1.1299 -0.850279,0 0,-3.954651 c 0.07609,-0.02282 0.163588,-0.04375 0.262502,-0.06277 0.09891,-0.02282 0.201632,-0.04185 0.308155,-0.05707 0.110326,-0.01521 0.220653,-0.02663 0.330981,-0.03424 0.11413,-0.01141 0.222555,-0.01712 0.325274,-0.01712 0.247283,3e-6 0.467937,0.03805 0.661962,0.114131 0.194021,0.07229 0.357609,0.176906 0.490765,0.313861 0.13315,0.133156 0.233966,0.296744 0.302448,0.490765 0.07228,0.194025 0.108422,0.410875 0.108425,0.650549"
               inkscape:connector-curvature="0"
               id="path4255"
               style="fill:url(#linearGradient3471)" />
            <path
               d="m 52.280149,39.250785 0.850278,-0.136958 0,0.884518 1.021476,0 0,0.707615 -1.021476,0 0,1.055715 c -10e-7,0.178807 0.03043,0.321471 0.09131,0.427992 0.06467,0.106524 0.19212,0.159785 0.38234,0.159784 0.0913,10e-7 0.184511,-0.0076 0.279622,-0.02283 0.09891,-0.01902 0.188315,-0.04375 0.268209,-0.07418 l 0.119838,0.661961 c -0.102721,0.04185 -0.216852,0.07799 -0.342394,0.108425 -0.125547,0.03043 -0.279624,0.04565 -0.462232,0.04565 -0.232069,0 -0.42419,-0.03044 -0.576364,-0.09131 -0.152176,-0.06468 -0.273916,-0.152175 -0.36522,-0.262502 -0.09131,-0.114131 -0.15598,-0.251089 -0.194023,-0.410873 -0.03424,-0.159783 -0.05136,-0.336687 -0.05136,-0.530711 l 0,-2.522303"
               inkscape:connector-curvature="0"
               id="path4257"
               style="fill:url(#linearGradient4292)" />
            <path
               d="m 55.68902,43 -0.850279,0 0,-3.001655 0.850279,0 0,3.001655 m 0.07989,-3.869053 c -2e-6,0.155983 -0.05136,0.279625 -0.154078,0.370927 -0.09891,0.0875 -0.21685,0.131254 -0.353807,0.131251 -0.136958,3e-6 -0.256796,-0.04375 -0.359514,-0.131251 -0.09891,-0.0913 -0.148371,-0.214944 -0.14837,-0.370927 -10e-7,-0.155975 0.04946,-0.277715 0.14837,-0.36522 0.102718,-0.0913 0.222556,-0.136954 0.359514,-0.136958 0.136957,4e-6 0.254893,0.04566 0.353807,0.136958 0.102717,0.08751 0.154076,0.209245 0.154078,0.36522"
               inkscape:connector-curvature="0"
               id="path4259"
               style="fill:url(#linearGradient3473)" />
            <path
               d="m 59.295928,41.493466 c -3e-6,0.235873 -0.03424,0.452722 -0.102718,0.650549 -0.06848,0.194024 -0.167396,0.361416 -0.296742,0.502178 -0.129352,0.136958 -0.285331,0.24348 -0.467939,0.319568 -0.178807,0.07609 -0.380439,0.114131 -0.604896,0.114131 -0.220655,0 -0.422287,-0.03804 -0.604896,-0.114131 -0.178807,-0.07609 -0.332884,-0.18261 -0.462232,-0.319568 -0.129349,-0.140762 -0.230165,-0.308154 -0.302448,-0.502178 -0.07228,-0.197827 -0.108425,-0.414676 -0.108425,-0.650549 0,-0.23587 0.03614,-0.450817 0.108425,-0.644842 0.07609,-0.194021 0.178805,-0.359511 0.308155,-0.496471 0.133152,-0.136955 0.289131,-0.243478 0.467938,-0.319568 0.182609,-0.07608 0.380437,-0.114129 0.593483,-0.114132 0.216848,3e-6 0.414675,0.03805 0.593483,0.114132 0.182608,0.07609 0.338587,0.182613 0.467939,0.319568 0.129346,0.13696 0.230162,0.30245 0.302448,0.496471 0.07228,0.194025 0.108422,0.408972 0.108425,0.644842 m -0.867399,0 c -2e-6,-0.2625 -0.05326,-0.467936 -0.159783,-0.616309 -0.102721,-0.152173 -0.251091,-0.228261 -0.445113,-0.228263 -0.194025,2e-6 -0.344297,0.07609 -0.450819,0.228263 -0.106523,0.148373 -0.159785,0.353809 -0.159783,0.616309 -2e-6,0.262503 0.05326,0.471744 0.159783,0.627723 0.106522,0.152175 0.256794,0.228263 0.450819,0.228262 0.194022,10e-7 0.342392,-0.07609 0.445113,-0.228262 0.10652,-0.155979 0.159781,-0.36522 0.159783,-0.627723"
               inkscape:connector-curvature="0"
               id="path4261"
               style="fill:url(#linearGradient3475)" />
            <path
               d="m 59.95459,40.101064 c 0.144566,-0.04185 0.33098,-0.07989 0.559243,-0.114132 0.228262,-0.03804 0.467938,-0.05706 0.719028,-0.05707 0.254891,3e-6 0.466034,0.03424 0.633429,0.102718 0.171194,0.06468 0.30625,0.157884 0.405166,0.279622 0.09891,0.121742 0.169292,0.266309 0.211143,0.433699 0.04185,0.167394 0.06277,0.353809 0.06277,0.559243 l 0,1.694851 -0.850279,0 0,-1.592132 c -2e-6,-0.273914 -0.03614,-0.467937 -0.108425,-0.58207 -0.07229,-0.114129 -0.20734,-0.171195 -0.405166,-0.171197 -0.06087,2e-6 -0.125546,0.0038 -0.194023,0.01141 -0.06848,0.0038 -0.129351,0.0095 -0.182611,0.01712 l 0,2.316867 -0.850278,0 0,-2.898936"
               inkscape:connector-curvature="0"
               id="path4263"
               style="fill:url(#linearGradient3477)" />
          </g>
          <g
             id="text4228"
             style="font-size:5.70656776px;font-style:normal;font-variant:normal;font-weight:bold;font-stretch:normal;text-align:start;line-height:125%;letter-spacing:0px;word-spacing:0px;writing-mode:lr-tb;text-anchor:start;opacity:0.6;fill:url(#linearGradient4290);fill-opacity:1;stroke:none;font-family:Ubuntu;-inkscape-font-specification:Ubuntu Bold">
            <path
               d="m 32.535067,52.320918 c 0.125543,1e-6 0.228261,-0.0095 0.308154,-0.02853 0.08369,-0.02283 0.150271,-0.05136 0.19973,-0.0856 0.04945,-0.03804 0.08369,-0.08179 0.102718,-0.131251 0.01902,-0.04946 0.02853,-0.104619 0.02853,-0.16549 -2e-6,-0.129348 -0.06087,-0.235871 -0.18261,-0.319568 -0.121742,-0.0875 -0.330982,-0.180707 -0.627722,-0.279622 -0.12935,-0.04565 -0.258699,-0.09701 -0.388047,-0.154077 -0.12935,-0.06087 -0.245383,-0.135054 -0.348101,-0.222557 -0.102718,-0.0913 -0.186415,-0.199727 -0.251089,-0.325274 -0.06467,-0.129346 -0.09701,-0.285326 -0.09701,-0.467938 0,-0.182608 0.03424,-0.346196 0.102718,-0.490765 0.06848,-0.148368 0.16549,-0.273912 0.291035,-0.376634 0.125544,-0.102714 0.277719,-0.180704 0.456525,-0.233969 0.178805,-0.05706 0.380437,-0.08559 0.604897,-0.0856 0.266304,5e-6 0.496469,0.02854 0.690494,0.0856 0.194021,0.05707 0.353805,0.119842 0.479352,0.188317 l -0.256796,0.701908 c -0.110329,-0.05706 -0.233971,-0.10652 -0.370926,-0.148371 -0.133156,-0.04565 -0.294842,-0.06848 -0.485059,-0.06848 -0.213046,3e-6 -0.367124,0.03044 -0.462232,0.0913 -0.09131,0.05707 -0.136959,0.146472 -0.136957,0.268209 -2e-6,0.07229 0.01712,0.133156 0.05136,0.18261 0.03424,0.04946 0.08179,0.09511 0.142664,0.136958 0.06467,0.03805 0.136956,0.07419 0.21685,0.108424 0.08369,0.03044 0.174999,0.06278 0.273915,0.09701 0.205434,0.07609 0.38424,0.152177 0.536417,0.228263 0.152173,0.07229 0.277717,0.157883 0.376634,0.256795 0.102715,0.09892 0.178802,0.214949 0.228262,0.348101 0.04945,0.133155 0.07418,0.29484 0.07419,0.485058 -3e-6,0.369026 -0.129352,0.656256 -0.388047,0.861692 -0.2587,0.201632 -0.648648,0.302448 -1.169846,0.302448 -0.175003,0 -0.332885,-0.01141 -0.473645,-0.03424 -0.140763,-0.01902 -0.266308,-0.04375 -0.376634,-0.07419 -0.106523,-0.03043 -0.19973,-0.06277 -0.279622,-0.09701 -0.07609,-0.03424 -0.140762,-0.06658 -0.194023,-0.09701 l 0.251089,-0.707615 c 0.117935,0.06468 0.262501,0.123644 0.433699,0.176904 0.175,0.04946 0.388045,0.07419 0.639136,0.07418"
               inkscape:connector-curvature="0"
               id="path4266"
               style="fill:url(#linearGradient3479-3)" />
            <path
               d="m 34.578196,51.521999 c 0,-0.266305 0.03995,-0.498372 0.119838,-0.696201 0.0837,-0.20163 0.192121,-0.369022 0.325275,-0.502178 0.133152,-0.133151 0.285327,-0.233967 0.456525,-0.302448 0.175,-0.06848 0.353806,-0.102716 0.536418,-0.102719 0.426088,3e-6 0.762775,0.131254 1.010062,0.393754 0.247282,0.2587 0.370924,0.641039 0.370927,1.14702 -3e-6,0.04946 -0.0019,0.104622 -0.0057,0.16549 -0.0038,0.05707 -0.0076,0.108426 -0.01141,0.154077 l -1.92882,0 c 0.01902,0.175003 0.100815,0.313863 0.245383,0.41658 0.144565,0.102719 0.338588,0.154078 0.58207,0.154077 0.155977,10e-7 0.308152,-0.01331 0.456525,-0.03995 0.152173,-0.03043 0.275815,-0.06658 0.370927,-0.108424 l 0.114131,0.690494 c -0.04566,0.02283 -0.106525,0.04565 -0.18261,0.06848 -0.07609,0.02283 -0.161689,0.04185 -0.256795,0.05707 -0.09131,0.01902 -0.190222,0.03424 -0.296742,0.04565 -0.106525,0.01141 -0.213047,0.01712 -0.319568,0.01712 -0.270112,0 -0.505983,-0.03995 -0.707614,-0.119838 -0.197829,-0.07989 -0.363319,-0.188316 -0.496472,-0.325274 -0.129349,-0.140762 -0.22636,-0.306252 -0.291034,-0.496472 -0.06087,-0.190218 -0.09131,-0.395654 -0.09131,-0.616309 m 1.997299,-0.325274 c -0.0038,-0.07228 -0.01712,-0.142663 -0.03995,-0.211143 -0.01902,-0.06848 -0.05136,-0.129347 -0.09701,-0.182611 -0.04185,-0.05326 -0.09701,-0.09701 -0.165491,-0.131251 -0.06468,-0.03424 -0.14647,-0.05136 -0.245382,-0.05136 -0.09511,3e-6 -0.176905,0.01712 -0.245383,0.05136 -0.06848,0.03044 -0.125546,0.07229 -0.171197,0.125545 -0.04565,0.05326 -0.08179,0.116035 -0.108425,0.188317 -0.02283,0.06848 -0.03995,0.138861 -0.05136,0.211143 l 1.124194,0"
               inkscape:connector-curvature="0"
               id="path4268"
               style="fill:url(#linearGradient3481)" />
            <path
               d="m 37.910743,51.499173 c 0,-0.216848 0.03424,-0.420382 0.102718,-0.610603 0.07228,-0.194021 0.175001,-0.361414 0.308155,-0.502178 0.133152,-0.144564 0.294838,-0.258695 0.485058,-0.342394 0.190218,-0.08369 0.407067,-0.125542 0.650549,-0.125545 0.159782,3e-6 0.30625,0.01522 0.439405,0.04565 0.133151,0.02663 0.2625,0.06658 0.388047,0.119838 l -0.176904,0.679081 c -0.07989,-0.03043 -0.167394,-0.05706 -0.262502,-0.07989 -0.09511,-0.02282 -0.201634,-0.03424 -0.319567,-0.03424 -0.251091,2e-6 -0.439408,0.07799 -0.564951,0.233969 -0.121741,0.155982 -0.182611,0.361418 -0.18261,0.61631 -10e-7,0.270112 0.05707,0.479352 0.171197,0.627722 0.117935,0.148372 0.321469,0.222557 0.610603,0.222556 0.102716,10e-7 0.213043,-0.0095 0.330981,-0.02853 0.117933,-0.01902 0.226358,-0.04946 0.325274,-0.0913 l 0.119838,0.696202 c -0.09892,0.04185 -0.222558,0.07799 -0.370927,0.108424 -0.148373,0.03043 -0.311961,0.04565 -0.490765,0.04565 -0.273916,0 -0.509788,-0.03995 -0.707614,-0.119838 -0.197829,-0.0837 -0.361417,-0.195925 -0.490765,-0.336687 -0.125545,-0.140762 -0.218752,-0.306252 -0.279622,-0.496472 -0.05707,-0.194022 -0.0856,-0.403263 -0.0856,-0.627722"
               inkscape:connector-curvature="0"
               id="path4270"
               style="fill:url(#linearGradient3483-8)" />
            <path
               d="m 43.569429,51.493466 c -3e-6,0.235873 -0.03424,0.452722 -0.102718,0.650549 -0.06848,0.194024 -0.167396,0.361416 -0.296742,0.502178 -0.129351,0.136958 -0.285331,0.24348 -0.467938,0.319568 -0.178808,0.07609 -0.38044,0.114131 -0.604896,0.114131 -0.220656,0 -0.422288,-0.03804 -0.604897,-0.114131 -0.178806,-0.07609 -0.332883,-0.18261 -0.462232,-0.319568 -0.129349,-0.140762 -0.230165,-0.308154 -0.302448,-0.502178 -0.07228,-0.197827 -0.108425,-0.414676 -0.108424,-0.650549 -1e-6,-0.23587 0.03614,-0.450817 0.108424,-0.644842 0.07609,-0.194021 0.178806,-0.359511 0.308155,-0.496471 0.133153,-0.136955 0.289132,-0.243478 0.467939,-0.319568 0.182608,-0.07608 0.380436,-0.114129 0.593483,-0.114132 0.216847,3e-6 0.414675,0.03805 0.593483,0.114132 0.182607,0.07609 0.338587,0.182613 0.467938,0.319568 0.129346,0.13696 0.230162,0.30245 0.302448,0.496471 0.07228,0.194025 0.108422,0.408972 0.108425,0.644842 m -0.867398,0 c -2e-6,-0.2625 -0.05326,-0.467936 -0.159784,-0.616309 -0.10272,-0.152173 -0.251091,-0.228261 -0.445112,-0.228263 -0.194025,2e-6 -0.344298,0.07609 -0.450819,0.228263 -0.106524,0.148373 -0.159785,0.353809 -0.159784,0.616309 -10e-7,0.262503 0.05326,0.471744 0.159784,0.627723 0.106521,0.152175 0.256794,0.228263 0.450819,0.228262 0.194021,10e-7 0.342392,-0.07609 0.445112,-0.228262 0.10652,-0.155979 0.159782,-0.36522 0.159784,-0.627723"
               inkscape:connector-curvature="0"
               id="path4272"
               style="fill:url(#linearGradient3485-0)" />
            <path
               d="m 44.228092,50.101064 c 0.144566,-0.04185 0.33098,-0.07989 0.559244,-0.114132 0.228261,-0.03804 0.467937,-0.05706 0.719027,-0.05707 0.254892,3e-6 0.466035,0.03424 0.633429,0.102718 0.171195,0.06468 0.30625,0.157884 0.405167,0.279622 0.09891,0.121742 0.169292,0.266309 0.211143,0.433699 0.04185,0.167394 0.06277,0.353809 0.06277,0.559243 l 0,1.694851 -0.850279,0 0,-1.592132 c -2e-6,-0.273914 -0.03614,-0.467937 -0.108425,-0.58207 -0.07228,-0.114129 -0.20734,-0.171195 -0.405166,-0.171197 -0.06087,2e-6 -0.125546,0.0038 -0.194023,0.01141 -0.06848,0.0038 -0.12935,0.0095 -0.18261,0.01712 l 0,2.316867 -0.850279,0 0,-2.898936"
               inkscape:connector-curvature="0"
               id="path4274"
               style="fill:url(#linearGradient3487-4)" />
            <path
               d="m 48.318808,51.476346 c -10e-7,0.262504 0.05897,0.473647 0.176904,0.633429 0.117934,0.159785 0.292935,0.239677 0.525004,0.239676 0.07609,10e-7 0.146467,-0.0019 0.211143,-0.0057 0.06467,-0.0076 0.117934,-0.01522 0.159784,-0.02283 l 0,-1.546479 c -0.05326,-0.03424 -0.123644,-0.06277 -0.211143,-0.0856 -0.0837,-0.02282 -0.169297,-0.03424 -0.256796,-0.03424 -0.403265,2e-6 -0.604897,0.273917 -0.604896,0.821745 m 1.923114,1.426642 c -0.07609,0.02283 -0.163592,0.04565 -0.262503,0.06848 -0.09892,0.01902 -0.203536,0.03614 -0.313861,0.05136 -0.106525,0.01522 -0.216852,0.02663 -0.330981,0.03424 -0.110329,0.01141 -0.216851,0.01712 -0.319567,0.01712 -0.247287,0 -0.46794,-0.03614 -0.661962,-0.108424 -0.194025,-0.07228 -0.357613,-0.175002 -0.490765,-0.308155 -0.133154,-0.136957 -0.235872,-0.300545 -0.308155,-0.490765 -0.06848,-0.194022 -0.102718,-0.410872 -0.102718,-0.650549 0,-0.243478 0.03043,-0.46223 0.0913,-0.656255 0.06087,-0.197825 0.14837,-0.365218 0.262502,-0.502178 0.114131,-0.136955 0.25299,-0.241575 0.41658,-0.313861 0.167391,-0.07228 0.35761,-0.108422 0.570656,-0.108425 0.117934,3e-6 0.222555,0.01142 0.313862,0.03424 0.09511,0.02283 0.190216,0.05517 0.285328,0.09701 l 0,-1.358163 0.850279,-0.136958 0,4.331285"
               inkscape:connector-curvature="0"
               id="path4276"
               style="fill:url(#linearGradient3489)" />
            <path
               d="m 55.216622,51.493466 c -3e-6,0.235873 -0.03424,0.452722 -0.102718,0.650549 -0.06848,0.194024 -0.167396,0.361416 -0.296742,0.502178 -0.129351,0.136958 -0.285331,0.24348 -0.467938,0.319568 -0.178808,0.07609 -0.38044,0.114131 -0.604896,0.114131 -0.220656,0 -0.422288,-0.03804 -0.604897,-0.114131 -0.178806,-0.07609 -0.332883,-0.18261 -0.462232,-0.319568 -0.129349,-0.140762 -0.230165,-0.308154 -0.302448,-0.502178 -0.07228,-0.197827 -0.108425,-0.414676 -0.108424,-0.650549 -10e-7,-0.23587 0.03614,-0.450817 0.108424,-0.644842 0.07609,-0.194021 0.178806,-0.359511 0.308155,-0.496471 0.133152,-0.136955 0.289132,-0.243478 0.467939,-0.319568 0.182608,-0.07608 0.380436,-0.114129 0.593483,-0.114132 0.216847,3e-6 0.414675,0.03805 0.593483,0.114132 0.182607,0.07609 0.338587,0.182613 0.467938,0.319568 0.129346,0.13696 0.230162,0.30245 0.302448,0.496471 0.07228,0.194025 0.108422,0.408972 0.108425,0.644842 m -0.867398,0 c -3e-6,-0.2625 -0.05326,-0.467936 -0.159784,-0.616309 -0.10272,-0.152173 -0.251091,-0.228261 -0.445112,-0.228263 -0.194025,2e-6 -0.344298,0.07609 -0.450819,0.228263 -0.106524,0.148373 -0.159785,0.353809 -0.159784,0.616309 -10e-7,0.262503 0.05326,0.471744 0.159784,0.627723 0.106521,0.152175 0.256794,0.228263 0.450819,0.228262 0.194021,10e-7 0.342392,-0.07609 0.445112,-0.228262 0.10652,-0.155979 0.159781,-0.36522 0.159784,-0.627723"
               inkscape:connector-curvature="0"
               id="path4278"
               style="fill:url(#linearGradient3491)" />
            <path
               d="m 57.798399,51.521999 c -2e-6,-0.2625 -0.05897,-0.471741 -0.176903,-0.627723 -0.117938,-0.159781 -0.292939,-0.239673 -0.525004,-0.239675 -0.07609,2e-6 -0.146471,0.0038 -0.211143,0.01141 -0.06468,0.0038 -0.117938,0.0095 -0.159784,0.01712 l 0,1.535067 c 0.05326,0.03424 0.121738,0.06277 0.205436,0.0856 0.0875,0.02283 0.175,0.03424 0.262502,0.03424 0.403262,1e-6 0.604894,-0.272012 0.604896,-0.816039 m 0.867399,-0.02283 c -4e-6,0.232068 -0.02854,0.443211 -0.0856,0.633429 -0.05707,0.190219 -0.140765,0.353807 -0.251089,0.490765 -0.11033,0.136957 -0.247287,0.24348 -0.410873,0.319567 -0.16359,0.07609 -0.351907,0.114132 -0.56495,0.114132 -0.117937,0 -0.228264,-0.01141 -0.330981,-0.03424 C 56.919586,53 56.820673,52.967663 56.725565,52.925815 l 0,1.1299 -0.850279,0 0,-3.954651 c 0.07609,-0.02282 0.163588,-0.04375 0.262502,-0.06277 0.09891,-0.02282 0.201631,-0.04185 0.308155,-0.05707 0.110326,-0.01521 0.220653,-0.02663 0.330981,-0.03424 0.11413,-0.01141 0.222554,-0.01712 0.325274,-0.01712 0.247283,3e-6 0.467937,0.03805 0.661962,0.114131 0.194021,0.07229 0.357609,0.176906 0.490765,0.313861 0.13315,0.133156 0.233966,0.296744 0.302448,0.490765 0.07228,0.194025 0.108421,0.410875 0.108425,0.650549"
               inkscape:connector-curvature="0"
               id="path4280"
               style="fill:url(#linearGradient3493)" />
            <path
               d="m 59.290755,49.250785 0.850279,-0.136958 0,0.884518 1.021476,0 0,0.707615 -1.021476,0 0,1.055715 c -10e-7,0.178807 0.03043,0.321471 0.09131,0.427992 0.06467,0.106524 0.19212,0.159785 0.38234,0.159784 0.0913,10e-7 0.184511,-0.0076 0.279622,-0.02283 0.09891,-0.01902 0.188314,-0.04375 0.268209,-0.07418 l 0.119837,0.661961 c -0.10272,0.04185 -0.216851,0.07799 -0.342394,0.108425 -0.125546,0.03043 -0.279623,0.04565 -0.462232,0.04565 -0.232068,0 -0.424189,-0.03044 -0.576363,-0.09131 -0.152176,-0.06468 -0.273916,-0.152175 -0.36522,-0.262502 -0.09131,-0.114131 -0.15598,-0.251089 -0.194024,-0.410873 -0.03424,-0.159783 -0.05136,-0.336687 -0.05136,-0.530711 l 0,-2.522303"
               inkscape:connector-curvature="0"
               id="path4282"
               style="fill:url(#linearGradient3495)" />
            <path
               d="m 62.699627,53 -0.850279,0 0,-3.001655 0.850279,0 0,3.001655 m 0.07989,-3.869053 c -2e-6,0.155983 -0.05136,0.279625 -0.154078,0.370927 -0.09892,0.0875 -0.21685,0.131254 -0.353807,0.131251 -0.136958,3e-6 -0.256796,-0.04375 -0.359514,-0.131251 -0.09891,-0.0913 -0.148371,-0.214944 -0.148371,-0.370927 0,-0.155975 0.04946,-0.277715 0.148371,-0.36522 0.102718,-0.0913 0.222556,-0.136954 0.359514,-0.136958 0.136957,4e-6 0.254892,0.04566 0.353807,0.136958 0.102717,0.08751 0.154076,0.209245 0.154078,0.36522"
               inkscape:connector-curvature="0"
               id="path4284"
               style="fill:url(#linearGradient3497)" />
            <path
               d="m 66.306536,51.493466 c -3e-6,0.235873 -0.03424,0.452722 -0.102718,0.650549 -0.06848,0.194024 -0.167395,0.361416 -0.296741,0.502178 -0.129352,0.136958 -0.285331,0.24348 -0.467939,0.319568 -0.178808,0.07609 -0.38044,0.114131 -0.604896,0.114131 -0.220656,0 -0.422287,-0.03804 -0.604896,-0.114131 -0.178807,-0.07609 -0.332884,-0.18261 -0.462232,-0.319568 -0.12935,-0.140762 -0.230166,-0.308154 -0.302448,-0.502178 -0.07228,-0.197827 -0.108425,-0.414676 -0.108425,-0.650549 0,-0.23587 0.03614,-0.450817 0.108425,-0.644842 0.07609,-0.194021 0.178805,-0.359511 0.308154,-0.496471 0.133153,-0.136955 0.289132,-0.243478 0.467939,-0.319568 0.182609,-0.07608 0.380436,-0.114129 0.593483,-0.114132 0.216848,3e-6 0.414675,0.03805 0.593483,0.114132 0.182608,0.07609 0.338587,0.182613 0.467939,0.319568 0.129345,0.13696 0.230161,0.30245 0.302448,0.496471 0.07228,0.194025 0.108421,0.408972 0.108424,0.644842 m -0.867398,0 c -2e-6,-0.2625 -0.05326,-0.467936 -0.159784,-0.616309 -0.10272,-0.152173 -0.251091,-0.228261 -0.445112,-0.228263 -0.194025,2e-6 -0.344298,0.07609 -0.450819,0.228263 -0.106524,0.148373 -0.159785,0.353809 -0.159784,0.616309 -1e-6,0.262503 0.05326,0.471744 0.159784,0.627723 0.106521,0.152175 0.256794,0.228263 0.450819,0.228262 0.194021,10e-7 0.342392,-0.07609 0.445112,-0.228262 0.106521,-0.155979 0.159782,-0.36522 0.159784,-0.627723"
               inkscape:connector-curvature="0"
               id="path4286"
               style="fill:url(#linearGradient3499)" />
            <path
               d="m 66.965198,50.101064 c 0.144566,-0.04185 0.330981,-0.07989 0.559244,-0.114132 0.228262,-0.03804 0.467937,-0.05706 0.719028,-0.05707 0.254891,3e-6 0.466034,0.03424 0.633429,0.102718 0.171194,0.06468 0.306249,0.157884 0.405166,0.279622 0.09891,0.121742 0.169292,0.266309 0.211143,0.433699 0.04185,0.167394 0.06277,0.353809 0.06277,0.559243 l 0,1.694851 -0.850278,0 0,-1.592132 c -3e-6,-0.273914 -0.03614,-0.467937 -0.108425,-0.58207 -0.07229,-0.114129 -0.207341,-0.171195 -0.405167,-0.171197 -0.06087,2e-6 -0.125546,0.0038 -0.194023,0.01141 -0.06848,0.0038 -0.12935,0.0095 -0.18261,0.01712 l 0,2.316867 -0.850279,0 0,-2.898936"
               inkscape:connector-curvature="0"
               id="path4288"
               style="fill:url(#linearGradient3501-0)" />
          </g>
          <rect
             width="17"
             height="5"
             x="56.5"
             y="61.5"
             id="rect4294"
             style="opacity:0.5;color:#000000;fill:none;stroke:#ffffff;stroke-width:1;stroke-linecap:round;stroke-linejoin:miter;stroke-miterlimit:4;stroke-opacity:1;stroke-dasharray:none;stroke-dashoffset:8.6;marker:none;visibility:visible;display:inline;overflow:visible;enable-background:accumulate" />
          <rect
             width="17"
             height="5"
             x="34.5"
             y="61.5"
             id="rect4296"
             style="opacity:0.3;color:#000000;fill:none;stroke:#ffffff;stroke-width:1;stroke-linecap:round;stroke-linejoin:miter;stroke-miterlimit:4;stroke-opacity:1;stroke-dasharray:none;stroke-dashoffset:8.6;marker:none;visibility:visible;display:inline;overflow:visible;enable-background:accumulate" />
        </g>
      </g>
    </g>
  </g>
</svg>
