<?xml version="1.0" encoding="UTF-8" standalone="no"?>
<!-- Created with Inkscape (http://www.inkscape.org/) -->

<svg
   xmlns:dc="http://purl.org/dc/elements/1.1/"
   xmlns:cc="http://creativecommons.org/ns#"
   xmlns:rdf="http://www.w3.org/1999/02/22-rdf-syntax-ns#"
   xmlns:svg="http://www.w3.org/2000/svg"
   xmlns="http://www.w3.org/2000/svg"
   xmlns:xlink="http://www.w3.org/1999/xlink"
   xmlns:sodipodi="http://sodipodi.sourceforge.net/DTD/sodipodi-0.dtd"
   xmlns:inkscape="http://www.inkscape.org/namespaces/inkscape"
   width="96"
   height="96"
   id="svg6307"
   version="1.1"
   inkscape:version="0.48.1 r9760"
   sodipodi:docname="application-x-ace.svg">
  <defs
     id="defs6309">
    <filter
       color-interpolation-filters="sRGB"
       inkscape:collect="always"
       id="filter6279">
      <feGaussianBlur
         inkscape:collect="always"
         stdDeviation="0.8"
         id="feGaussianBlur6281" />
    </filter>
    <linearGradient
       inkscape:collect="always"
       xlink:href="#linearGradient3199-64"
       id="linearGradient9768"
       gradientUnits="userSpaceOnUse"
       gradientTransform="translate(0,-7.8515622e-6)"
       x1="48"
       y1="1052.3622"
       x2="48"
       y2="902.36218" />
    <linearGradient
       id="linearGradient3199-64">
      <stop
         id="stop3201-8"
         style="stop-color:#3771c8;stop-opacity:1"
         offset="0" />
      <stop
         id="stop3203-0"
         style="stop-color:#afc6e9;stop-opacity:1"
         offset="1" />
    </linearGradient>
    <linearGradient
       inkscape:collect="always"
       xlink:href="#linearGradient3354"
       id="linearGradient23326"
       gradientUnits="userSpaceOnUse"
       gradientTransform="translate(-113.7193,970.25379)"
       x1="68.75"
       y1="59"
       x2="75.25"
       y2="59" />
    <linearGradient
       id="linearGradient3354">
      <stop
         id="stop3356-9"
         style="stop-color:#b4b4b4"
         offset="0" />
      <stop
         id="stop3362-7"
         style="stop-color:#646464"
         offset=".20467" />
      <stop
         id="stop3364-5"
         style="stop-color:#fff"
         offset=".49568" />
      <stop
         id="stop3358"
         style="stop-color:#3c3c3c"
         offset="1" />
    </linearGradient>
    <clipPath
       id="clipPath3235">
      <path
         inkscape:connector-curvature="0"
         id="path3237"
         style="fill:#ffffff"
         d="m 66,6 v 55 c 0,1.662 1.338,3 3,3 h 6 c 1.662,0 3,-1.338 3,-3 V 6 H 74 V 8 H 70 V 6 h -4 z" />
    </clipPath>
    <filter
       id="filter3243"
       height="1.0732"
       width="1.3322999"
       color-interpolation-filters="sRGB"
       y="-0.03661"
       x="-0.16615">
      <feGaussianBlur
         id="feGaussianBlur3245"
         stdDeviation="0.9" />
    </filter>
    <linearGradient
       inkscape:collect="always"
       xlink:href="#linearGradient3372-9"
       id="linearGradient23346"
       gradientUnits="userSpaceOnUse"
       gradientTransform="translate(-113.7193,970.25379)"
       x1="69"
       y1="54"
       x2="73"
       y2="54" />
    <linearGradient
       id="linearGradient3372-9"
       y2="54"
       gradientUnits="userSpaceOnUse"
       x2="73"
       gradientTransform="translate(0,-1)"
       y1="54"
       x1="69">
      <stop
         id="stop3292-7"
         style="stop-color:#fff"
         offset="0" />
      <stop
         id="stop3304-8"
         style="stop-color:#8c8c8c"
         offset=".48973" />
      <stop
         id="stop3306-5"
         style="stop-color:#cfcfcf"
         offset=".50045" />
      <stop
         id="stop3298-3"
         style="stop-color:#fff"
         offset=".62277" />
      <stop
         id="stop3300-3"
         style="stop-color:#c8c8c8"
         offset=".81696" />
      <stop
         id="stop3294-8"
         style="stop-color:#505050"
         offset="1" />
    </linearGradient>
    <linearGradient
       inkscape:collect="always"
       xlink:href="#linearGradient3372-9"
       id="linearGradient5881"
       gradientUnits="userSpaceOnUse"
       gradientTransform="translate(-113.7193,970.25379)"
       x1="69"
       y1="54"
       x2="73"
       y2="54" />
    <linearGradient
       id="linearGradient5883"
       y2="54"
       gradientUnits="userSpaceOnUse"
       x2="73"
       gradientTransform="translate(0,-1)"
       y1="54"
       x1="69">
      <stop
         id="stop5885"
         style="stop-color:#fff"
         offset="0" />
      <stop
         id="stop5887"
         style="stop-color:#8c8c8c"
         offset=".48973" />
      <stop
         id="stop5889"
         style="stop-color:#cfcfcf"
         offset=".50045" />
      <stop
         id="stop5891"
         style="stop-color:#fff"
         offset=".62277" />
      <stop
         id="stop5893"
         style="stop-color:#c8c8c8"
         offset=".81696" />
      <stop
         id="stop5895"
         style="stop-color:#505050"
         offset="1" />
    </linearGradient>
    <linearGradient
       inkscape:collect="always"
       xlink:href="#linearGradient3372-9"
       id="linearGradient5897"
       gradientUnits="userSpaceOnUse"
       gradientTransform="translate(-113.7193,970.25379)"
       x1="69"
       y1="54"
       x2="73"
       y2="54" />
    <linearGradient
       id="linearGradient5899"
       y2="54"
       gradientUnits="userSpaceOnUse"
       x2="73"
       gradientTransform="translate(0,-1)"
       y1="54"
       x1="69">
      <stop
         id="stop5901"
         style="stop-color:#fff"
         offset="0" />
      <stop
         id="stop5903"
         style="stop-color:#8c8c8c"
         offset=".48973" />
      <stop
         id="stop5905"
         style="stop-color:#cfcfcf"
         offset=".50045" />
      <stop
         id="stop5907"
         style="stop-color:#fff"
         offset=".62277" />
      <stop
         id="stop5909"
         style="stop-color:#c8c8c8"
         offset=".81696" />
      <stop
         id="stop5911"
         style="stop-color:#505050"
         offset="1" />
    </linearGradient>
    <linearGradient
       inkscape:collect="always"
       xlink:href="#linearGradient3372-9"
       id="linearGradient5913"
       gradientUnits="userSpaceOnUse"
       gradientTransform="translate(-113.7193,970.25379)"
       x1="69"
       y1="54"
       x2="73"
       y2="54" />
    <linearGradient
       id="linearGradient5915"
       y2="54"
       gradientUnits="userSpaceOnUse"
       x2="73"
       gradientTransform="translate(0,-1)"
       y1="54"
       x1="69">
      <stop
         id="stop5917"
         style="stop-color:#fff"
         offset="0" />
      <stop
         id="stop5919"
         style="stop-color:#8c8c8c"
         offset=".48973" />
      <stop
         id="stop5921"
         style="stop-color:#cfcfcf"
         offset=".50045" />
      <stop
         id="stop5923"
         style="stop-color:#fff"
         offset=".62277" />
      <stop
         id="stop5925"
         style="stop-color:#c8c8c8"
         offset=".81696" />
      <stop
         id="stop5927"
         style="stop-color:#505050"
         offset="1" />
    </linearGradient>
    <linearGradient
       inkscape:collect="always"
       xlink:href="#linearGradient3372-9"
       id="linearGradient5929"
       gradientUnits="userSpaceOnUse"
       gradientTransform="translate(-113.7193,970.25379)"
       x1="69"
       y1="54"
       x2="73"
       y2="54" />
    <linearGradient
       id="linearGradient5931"
       y2="54"
       gradientUnits="userSpaceOnUse"
       x2="73"
       gradientTransform="translate(0,-1)"
       y1="54"
       x1="69">
      <stop
         id="stop5933"
         style="stop-color:#fff"
         offset="0" />
      <stop
         id="stop5935"
         style="stop-color:#8c8c8c"
         offset=".48973" />
      <stop
         id="stop5937"
         style="stop-color:#cfcfcf"
         offset=".50045" />
      <stop
         id="stop5939"
         style="stop-color:#fff"
         offset=".62277" />
      <stop
         id="stop5941"
         style="stop-color:#c8c8c8"
         offset=".81696" />
      <stop
         id="stop5943"
         style="stop-color:#505050"
         offset="1" />
    </linearGradient>
    <linearGradient
       inkscape:collect="always"
       xlink:href="#linearGradient3372-9"
       id="linearGradient5945"
       gradientUnits="userSpaceOnUse"
       gradientTransform="translate(-113.7193,970.25379)"
       x1="69"
       y1="54"
       x2="73"
       y2="54" />
    <linearGradient
       id="linearGradient5947"
       y2="54"
       gradientUnits="userSpaceOnUse"
       x2="73"
       gradientTransform="translate(0,-1)"
       y1="54"
       x1="69">
      <stop
         id="stop5949"
         style="stop-color:#fff"
         offset="0" />
      <stop
         id="stop5951"
         style="stop-color:#8c8c8c"
         offset=".48973" />
      <stop
         id="stop5953"
         style="stop-color:#cfcfcf"
         offset=".50045" />
      <stop
         id="stop5955"
         style="stop-color:#fff"
         offset=".62277" />
      <stop
         id="stop5957"
         style="stop-color:#c8c8c8"
         offset=".81696" />
      <stop
         id="stop5959"
         style="stop-color:#505050"
         offset="1" />
    </linearGradient>
    <linearGradient
       inkscape:collect="always"
       xlink:href="#linearGradient3372-9"
       id="linearGradient5961"
       gradientUnits="userSpaceOnUse"
       gradientTransform="translate(-113.7193,970.25379)"
       x1="69"
       y1="54"
       x2="73"
       y2="54" />
    <linearGradient
       id="linearGradient5963"
       y2="54"
       gradientUnits="userSpaceOnUse"
       x2="73"
       gradientTransform="translate(0,-1)"
       y1="54"
       x1="69">
      <stop
         id="stop5965"
         style="stop-color:#fff"
         offset="0" />
      <stop
         id="stop5967"
         style="stop-color:#8c8c8c"
         offset=".48973" />
      <stop
         id="stop5969"
         style="stop-color:#cfcfcf"
         offset=".50045" />
      <stop
         id="stop5971"
         style="stop-color:#fff"
         offset=".62277" />
      <stop
         id="stop5973"
         style="stop-color:#c8c8c8"
         offset=".81696" />
      <stop
         id="stop5975"
         style="stop-color:#505050"
         offset="1" />
    </linearGradient>
    <linearGradient
       inkscape:collect="always"
       xlink:href="#linearGradient3372-9"
       id="linearGradient5977"
       gradientUnits="userSpaceOnUse"
       gradientTransform="translate(-113.7193,970.25379)"
       x1="69"
       y1="54"
       x2="73"
       y2="54" />
    <linearGradient
       id="linearGradient5979"
       y2="54"
       gradientUnits="userSpaceOnUse"
       x2="73"
       gradientTransform="translate(0,-1)"
       y1="54"
       x1="69">
      <stop
         id="stop5981"
         style="stop-color:#fff"
         offset="0" />
      <stop
         id="stop5983"
         style="stop-color:#8c8c8c"
         offset=".48973" />
      <stop
         id="stop5985"
         style="stop-color:#cfcfcf"
         offset=".50045" />
      <stop
         id="stop5987"
         style="stop-color:#fff"
         offset=".62277" />
      <stop
         id="stop5989"
         style="stop-color:#c8c8c8"
         offset=".81696" />
      <stop
         id="stop5991"
         style="stop-color:#505050"
         offset="1" />
    </linearGradient>
    <linearGradient
       inkscape:collect="always"
       xlink:href="#linearGradient3602"
       id="linearGradient23348"
       gradientUnits="userSpaceOnUse"
       gradientTransform="matrix(-1,0,0,1,30.2807,967.25379)"
       x1="69"
       y1="54"
       x2="73"
       y2="54" />
    <linearGradient
       id="linearGradient3602"
       y2="54"
       gradientUnits="userSpaceOnUse"
       x2="73"
       gradientTransform="matrix(-1,0,0,1,144,-4)"
       y1="54"
       x1="69">
      <stop
         id="stop3606"
         style="stop-color:#2f2f2f"
         offset="0" />
      <stop
         id="stop3608"
         style="stop-color:#fff"
         offset=".43731" />
      <stop
         id="stop3610"
         style="stop-color:#979797"
         offset=".62138" />
      <stop
         id="stop3612-2"
         style="stop-color:#505050"
         offset=".77232" />
      <stop
         id="stop3614-2"
         style="stop-color:#e6e6e6"
         offset="1" />
    </linearGradient>
    <linearGradient
       inkscape:collect="always"
       xlink:href="#linearGradient3602"
       id="linearGradient6000"
       gradientUnits="userSpaceOnUse"
       gradientTransform="matrix(-1,0,0,1,30.2807,967.25379)"
       x1="69"
       y1="54"
       x2="73"
       y2="54" />
    <linearGradient
       id="linearGradient6002"
       y2="54"
       gradientUnits="userSpaceOnUse"
       x2="73"
       gradientTransform="matrix(-1,0,0,1,144,-4)"
       y1="54"
       x1="69">
      <stop
         id="stop6004"
         style="stop-color:#2f2f2f"
         offset="0" />
      <stop
         id="stop6006"
         style="stop-color:#fff"
         offset=".43731" />
      <stop
         id="stop6008"
         style="stop-color:#979797"
         offset=".62138" />
      <stop
         id="stop6010"
         style="stop-color:#505050"
         offset=".77232" />
      <stop
         id="stop6012"
         style="stop-color:#e6e6e6"
         offset="1" />
    </linearGradient>
    <linearGradient
       inkscape:collect="always"
       xlink:href="#linearGradient3602"
       id="linearGradient6014"
       gradientUnits="userSpaceOnUse"
       gradientTransform="matrix(-1,0,0,1,30.2807,967.25379)"
       x1="69"
       y1="54"
       x2="73"
       y2="54" />
    <linearGradient
       id="linearGradient6016"
       y2="54"
       gradientUnits="userSpaceOnUse"
       x2="73"
       gradientTransform="matrix(-1,0,0,1,144,-4)"
       y1="54"
       x1="69">
      <stop
         id="stop6018"
         style="stop-color:#2f2f2f"
         offset="0" />
      <stop
         id="stop6020"
         style="stop-color:#fff"
         offset=".43731" />
      <stop
         id="stop6022"
         style="stop-color:#979797"
         offset=".62138" />
      <stop
         id="stop6024"
         style="stop-color:#505050"
         offset=".77232" />
      <stop
         id="stop6026"
         style="stop-color:#e6e6e6"
         offset="1" />
    </linearGradient>
    <linearGradient
       inkscape:collect="always"
       xlink:href="#linearGradient3602"
       id="linearGradient6028"
       gradientUnits="userSpaceOnUse"
       gradientTransform="matrix(-1,0,0,1,30.2807,967.25379)"
       x1="69"
       y1="54"
       x2="73"
       y2="54" />
    <linearGradient
       id="linearGradient6030"
       y2="54"
       gradientUnits="userSpaceOnUse"
       x2="73"
       gradientTransform="matrix(-1,0,0,1,144,-4)"
       y1="54"
       x1="69">
      <stop
         id="stop6032"
         style="stop-color:#2f2f2f"
         offset="0" />
      <stop
         id="stop6034"
         style="stop-color:#fff"
         offset=".43731" />
      <stop
         id="stop6036"
         style="stop-color:#979797"
         offset=".62138" />
      <stop
         id="stop6038"
         style="stop-color:#505050"
         offset=".77232" />
      <stop
         id="stop6040"
         style="stop-color:#e6e6e6"
         offset="1" />
    </linearGradient>
    <linearGradient
       inkscape:collect="always"
       xlink:href="#linearGradient3602"
       id="linearGradient6042"
       gradientUnits="userSpaceOnUse"
       gradientTransform="matrix(-1,0,0,1,30.2807,967.25379)"
       x1="69"
       y1="54"
       x2="73"
       y2="54" />
    <linearGradient
       id="linearGradient6044"
       y2="54"
       gradientUnits="userSpaceOnUse"
       x2="73"
       gradientTransform="matrix(-1,0,0,1,144,-4)"
       y1="54"
       x1="69">
      <stop
         id="stop6046"
         style="stop-color:#2f2f2f"
         offset="0" />
      <stop
         id="stop6048"
         style="stop-color:#fff"
         offset=".43731" />
      <stop
         id="stop6050"
         style="stop-color:#979797"
         offset=".62138" />
      <stop
         id="stop6052"
         style="stop-color:#505050"
         offset=".77232" />
      <stop
         id="stop6054"
         style="stop-color:#e6e6e6"
         offset="1" />
    </linearGradient>
    <linearGradient
       inkscape:collect="always"
       xlink:href="#linearGradient3602"
       id="linearGradient6056"
       gradientUnits="userSpaceOnUse"
       gradientTransform="matrix(-1,0,0,1,30.2807,967.25379)"
       x1="69"
       y1="54"
       x2="73"
       y2="54" />
    <linearGradient
       id="linearGradient6058"
       y2="54"
       gradientUnits="userSpaceOnUse"
       x2="73"
       gradientTransform="matrix(-1,0,0,1,144,-4)"
       y1="54"
       x1="69">
      <stop
         id="stop6060"
         style="stop-color:#2f2f2f"
         offset="0" />
      <stop
         id="stop6062"
         style="stop-color:#fff"
         offset=".43731" />
      <stop
         id="stop6064"
         style="stop-color:#979797"
         offset=".62138" />
      <stop
         id="stop6066"
         style="stop-color:#505050"
         offset=".77232" />
      <stop
         id="stop6068"
         style="stop-color:#e6e6e6"
         offset="1" />
    </linearGradient>
    <linearGradient
       inkscape:collect="always"
       xlink:href="#linearGradient3602"
       id="linearGradient6070"
       gradientUnits="userSpaceOnUse"
       gradientTransform="matrix(-1,0,0,1,30.2807,967.25379)"
       x1="69"
       y1="54"
       x2="73"
       y2="54" />
    <linearGradient
       id="linearGradient6072"
       y2="54"
       gradientUnits="userSpaceOnUse"
       x2="73"
       gradientTransform="matrix(-1,0,0,1,144,-4)"
       y1="54"
       x1="69">
      <stop
         id="stop6074"
         style="stop-color:#2f2f2f"
         offset="0" />
      <stop
         id="stop6076"
         style="stop-color:#fff"
         offset=".43731" />
      <stop
         id="stop6078"
         style="stop-color:#979797"
         offset=".62138" />
      <stop
         id="stop6080"
         style="stop-color:#505050"
         offset=".77232" />
      <stop
         id="stop6082"
         style="stop-color:#e6e6e6"
         offset="1" />
    </linearGradient>
    <filter
       id="filter3429"
       height="1.1907001"
       width="1.3237"
       color-interpolation-filters="sRGB"
       y="-0.095353998"
       x="-0.16182999">
      <feGaussianBlur
         id="feGaussianBlur3431"
         stdDeviation="0.53551312" />
    </filter>
    <linearGradient
       inkscape:collect="always"
       xlink:href="#linearGradient3435"
       id="linearGradient23332"
       gradientUnits="userSpaceOnUse"
       gradientTransform="translate(-113.7193,969.25379)"
       x1="68.028999"
       y1="17.763"
       x2="75.971001"
       y2="17.763" />
    <linearGradient
       id="linearGradient3435">
      <stop
         id="stop3437-6"
         style="stop-color:#ededed"
         offset="0" />
      <stop
         id="stop3439"
         style="stop-color:#b0b0b0"
         offset="1" />
    </linearGradient>
    <linearGradient
       inkscape:collect="always"
       xlink:href="#linearGradient3435"
       id="linearGradient23334"
       gradientUnits="userSpaceOnUse"
       gradientTransform="matrix(-1,0,0,1,30.3107,969.25379)"
       x1="68.969002"
       y1="17.5"
       x2="75.061996"
       y2="17.5" />
    <linearGradient
       id="linearGradient6091">
      <stop
         id="stop6093"
         style="stop-color:#ededed"
         offset="0" />
      <stop
         id="stop6095"
         style="stop-color:#b0b0b0"
         offset="1" />
    </linearGradient>
    <linearGradient
       inkscape:collect="always"
       xlink:href="#linearGradient3354"
       id="linearGradient23336"
       gradientUnits="userSpaceOnUse"
       gradientTransform="matrix(1.1263,0,0,1,-121.1213,921.75379)"
       x1="68.75"
       y1="59"
       x2="72.250999"
       y2="59" />
    <linearGradient
       id="linearGradient6098">
      <stop
         id="stop6100"
         style="stop-color:#b4b4b4"
         offset="0" />
      <stop
         id="stop6102"
         style="stop-color:#646464"
         offset=".20467" />
      <stop
         id="stop6104"
         style="stop-color:#fff"
         offset=".49568" />
      <stop
         id="stop6106"
         style="stop-color:#3c3c3c"
         offset="1" />
    </linearGradient>
    <linearGradient
       inkscape:collect="always"
       xlink:href="#linearGradient3737-25"
       id="linearGradient9726"
       gradientUnits="userSpaceOnUse"
       x1="48"
       y1="20.221001"
       x2="48"
       y2="138.66" />
    <linearGradient
       id="linearGradient3737-25">
      <stop
         id="stop3739-89"
         style="stop-color:#fff"
         offset="0" />
      <stop
         id="stop3741-02"
         style="stop-color:#fff;stop-opacity:0"
         offset="1" />
    </linearGradient>
    <clipPath
       id="clipPath3613-47">
      <rect
         id="rect3615-657"
         style="fill:#ffffff"
         rx="6"
         ry="6"
         height="84"
         width="84"
         y="6"
         x="6" />
    </clipPath>
    <filter
       id="filter3794-13"
       height="1.3839999"
       width="1.3839999"
       color-interpolation-filters="sRGB"
       y="-0.192"
       x="-0.192">
      <feGaussianBlur
         id="feGaussianBlur3796-33"
         stdDeviation="5.28" />
    </filter>
    <linearGradient
       inkscape:collect="always"
       xlink:href="#linearGradient3372-9"
       id="linearGradient3378"
       gradientUnits="userSpaceOnUse"
       gradientTransform="translate(-113.7193,970.25379)"
       x1="69"
       y1="54"
       x2="73"
       y2="54" />
    <linearGradient
       inkscape:collect="always"
       xlink:href="#linearGradient3602"
       id="linearGradient3380"
       gradientUnits="userSpaceOnUse"
       gradientTransform="matrix(-1,0,0,1,30.2807,967.25379)"
       x1="69"
       y1="54"
       x2="73"
       y2="54" />
  </defs>
  <sodipodi:namedview
     id="base"
     pagecolor="#ffffff"
     bordercolor="#666666"
     borderopacity="1.0"
     inkscape:pageopacity="0.0"
     inkscape:pageshadow="2"
     inkscape:zoom="3.959798"
     inkscape:cx="46.953454"
     inkscape:cy="51.819805"
     inkscape:document-units="px"
     inkscape:current-layer="layer1"
     showgrid="false"
     inkscape:window-width="1280"
     inkscape:window-height="725"
     inkscape:window-x="0"
     inkscape:window-y="25"
     inkscape:window-maximized="1" />
  <metadata
     id="metadata6312">
    <rdf:RDF>
      <cc:Work
         rdf:about="">
        <dc:format>image/svg+xml</dc:format>
        <dc:type
           rdf:resource="http://purl.org/dc/dcmitype/StillImage" />
        <dc:title></dc:title>
      </cc:Work>
    </rdf:RDF>
  </metadata>
  <g
     inkscape:label="Layer 1"
     inkscape:groupmode="layer"
     id="layer1"
     transform="translate(0,-956.36218)">
    <g
       id="g23350">
      <g
         id="g5898">
        <rect
           ry="5"
           rx="5"
           style="fill:#000000;fill-opacity:1;stroke:none;filter:url(#filter6279)"
           id="rect9283"
           width="80"
           height="80"
           x="8"
           y="964.36218"
           transform="translate(0,-7.8515622e-6)" />
        <rect
           y="964.36218"
           x="8"
           height="80"
           width="80"
           id="rect9285"
           style="fill:url(#linearGradient9768);fill-opacity:1;stroke:none"
           rx="5"
           ry="5" />
        <g
           id="g6873"
           transform="matrix(0.91603591,0,0,0.91603591,86.128285,82.602523)">
          <path
             inkscape:connector-curvature="0"
             id="rect3201"
             style="fill:#252525"
             d="m -47.7193,977.25379 v 55.00001 c 0,1.662 1.338,3 3,3 h 6 c 1.662,0 3,-1.338 3,-3 v -55.00001 h -4 v 2 h -4 v -2 h -4 z" />
          <rect
             id="rect3247"
             style="fill:#4d4d4d"
             height="49"
             width="4"
             y="979.25378"
             x="-43.719299" />
          <rect
             id="rect3211"
             style="fill:url(#linearGradient23326);stroke:#000000;stroke-width:0.5;stroke-linecap:square;stroke-opacity:0.56363998"
             rx="1"
             ry="1"
             height="4"
             width="6"
             y="1027.2538"
             x="-44.719299" />
          <path
             transform="translate(-113.7193,971.25379)"
             inkscape:connector-curvature="0"
             id="path3231"
             style="fill:none;stroke:#000000;stroke-width:2;stroke-linecap:square;filter:url(#filter3243)"
             clip-path="url(#clipPath3235)"
             d="m 66,6 v 55 c 0,1.662 1.338,3 3,3 h 6 c 1.662,0 3,-1.338 3,-3 V 6 H 74 V 8 H 70 V 6 h -4 z" />
          <path
             inkscape:connector-curvature="0"
             id="rect3249"
             style="fill:url(#linearGradient3378);stroke:#000000;stroke-width:0.5;stroke-linecap:square;stroke-opacity:0.56363998"
             d="m -44.2193,1022.2538 c -0.27,0 -0.5,0.218 -0.5,0.5 v 3 c 0,0.282 0.23023,0.5 0.5,0.5 h 1 c 0.26977,0 0.5,-0.218 0.5,-0.5 v -0.5 h 1.5 c 0.277,0 0.5,-0.223 0.5,-0.5 v -1 c 0,-0.277 -0.223,-0.5 -0.5,-0.5 h -1.5 v -0.5 c 0,-0.282 -0.23,-0.5 -0.5,-0.5 h -1 z" />
          <use
             id="use3308"
             xlink:href="#rect3249"
             transform="translate(0,-6)"
             height="96"
             width="96"
             y="0"
             x="0" />
          <use
             id="use3310"
             xlink:href="#use3308"
             transform="translate(0,-6)"
             height="96"
             width="96"
             y="0"
             x="0" />
          <use
             id="use3312"
             xlink:href="#use3310"
             transform="translate(0,-6)"
             height="96"
             width="96"
             y="0"
             x="0" />
          <use
             id="use3314"
             xlink:href="#use3312"
             transform="translate(0,-6)"
             height="96"
             width="96"
             y="0"
             x="0" />
          <use
             id="use3316"
             xlink:href="#use3314"
             transform="translate(0,-6)"
             height="96"
             width="96"
             y="0"
             x="0" />
          <use
             id="use3318"
             xlink:href="#use3316"
             transform="translate(0,-6)"
             height="96"
             width="96"
             y="0"
             x="0" />
          <use
             id="use3320"
             xlink:href="#use3318"
             transform="translate(0,-6)"
             height="96"
             width="96"
             y="0"
             x="0" />
          <path
             inkscape:connector-curvature="0"
             id="path3322"
             style="fill:url(#linearGradient3380);stroke:#000000;stroke-width:0.5;stroke-linecap:square;stroke-opacity:0.56363998"
             d="m -39.2193,1019.2538 c 0.26977,0 0.5,0.2179 0.5,0.5 v 3 c 0,0.282 -0.23023,0.5 -0.5,0.5 h -1 c -0.27,0 -0.5,-0.218 -0.5,-0.5 v -0.5 h -1.5 c -0.277,0 -0.5,-0.223 -0.5,-0.5 v -1 c 0,-0.277 0.223,-0.5 0.5,-0.5 h 1.5 v -0.5 c 0,-0.282 0.23,-0.5 0.5,-0.5 h 1 z" />
          <use
             id="use3340"
             xlink:href="#path3322"
             transform="translate(0,-6)"
             height="96"
             width="96"
             y="0"
             x="0" />
          <use
             id="use3342"
             xlink:href="#use3340"
             transform="translate(0,-6)"
             height="96"
             width="96"
             y="0"
             x="0" />
          <use
             id="use3344"
             xlink:href="#use3342"
             transform="translate(0,-6)"
             height="96"
             width="96"
             y="0"
             x="0" />
          <use
             id="use3346"
             xlink:href="#use3344"
             transform="translate(0,-6)"
             height="96"
             width="96"
             y="0"
             x="0" />
          <use
             id="use3348"
             xlink:href="#use3346"
             transform="translate(0,-6)"
             height="96"
             width="96"
             y="0"
             x="0" />
          <use
             id="use3350"
             xlink:href="#use3348"
             transform="translate(0,-6)"
             height="96"
             width="96"
             y="0"
             x="0" />
          <path
             inkscape:connector-curvature="0"
             id="path3433"
             style="stroke:#000000;stroke-width:0.5;stroke-linecap:square;stroke-opacity:0.56363998;filter:url(#filter3429)"
             d="m -44.2193,979.78479 c -1.0277,0 -1.9688,0.7652 -1.9688,1.8125 v 10.812 c 0,1.048 0.918,1.844 1.969,1.844 h 5 c 1.0507,0 1.9688,-0.79645 1.9688,-1.8438 v -10.812 c -3e-6,-1.0473 -0.94105,-1.8125 -1.9688,-1.8125 h -5 z m 1.0625,9.0625 h 2.875 v 1.75 h -2.875 v -1.75 z" />
          <path
             inkscape:connector-curvature="0"
             id="rect3403"
             style="fill:url(#linearGradient23332)"
             d="m -44.4903,980.27519 c -0.687,0 -1.229,0.4824 -1.229,1.0816 l -0.005,10.815 c 0,0.6 0.542,1.082 1.229,1.082 h 5.5832 c 0.68714,0 1.2292,-0.48237 1.2292,-1.0815 l 0.0051,-10.815 c 0,-0.59918 -0.54211,-1.0815 -1.2292,-1.0815 h -5.5832 z m 0.7043,7.9496 h 4.1013 v 3.1184 h -4.1013 v -3.1184 z" />
          <path
             inkscape:connector-curvature="0"
             id="rect3470"
             style="fill:url(#linearGradient23334)"
             d="m -39.1573,981.22259 c 0.277,0 0.5,0.223 0.5,0.5 v 10.062 c 0,0.277 -0.223,0.5 -0.5,0.5 h -5.0938 c -0.277,0 -0.5,-0.223 -0.5,-0.5 v -10.062 c 0,-0.277 0.223,-0.5 0.5,-0.5 h 5.0938 z m -0.4375,6.9688 h -4.125 v 3.125 h 4.125 v -3.125 z" />
          <rect
             id="rect3399"
             style="fill:url(#linearGradient23336);stroke:#000000;stroke-linecap:square;stroke-opacity:0.56363998"
             rx="0.56313002"
             ry="0.5"
             height="5"
             width="3.3787999"
             y="978.75378"
             x="-43.408302" />
          <rect
             id="rect3518"
             style="opacity:0.3"
             height="1"
             width="4"
             y="987.25378"
             x="-43.734299" />
        </g>
        <rect
           x="15"
           y="15"
           width="66"
           height="66"
           ry="12"
           rx="12"
           clip-path="url(#clipPath3613-47)"
           style="opacity:0.1;fill:url(#linearGradient9726);stroke:#ffffff;stroke-width:0.5;stroke-linecap:round;filter:url(#filter3794-13)"
           id="rect3171"
           transform="translate(0,956.36218)" />
      </g>
      <path
         d="m 31.590083,1022.0042 c -0.446137,0 -0.836467,0.075 -1.188223,0.2201 -0.343183,0.1373 -0.658211,0.3233 -0.924174,0.5721 -0.257386,0.2488 -0.479956,0.532 -0.660124,0.8582 -0.180171,0.3175 -0.32855,0.6739 -0.440083,1.0342 -0.111532,0.3604 -0.190569,0.7227 -0.242045,1.1002 -0.04291,0.3776 -0.06602,0.7351 -0.06602,1.0781 -2e-6,0.3605 0.02312,0.7498 0.06602,1.1444 0.04291,0.3861 0.117087,0.7533 0.220041,1.1222 0.111533,0.3689 0.268491,0.7215 0.440083,1.0561 0.18017,0.3261 0.380732,0.6095 0.638121,0.8582 0.265961,0.2488 0.585835,0.4483 0.946176,0.594 0.360336,0.146 0.768936,0.2202 1.232231,0.2202 0.480449,0 0.902472,-0.084 1.254235,-0.264 0.360335,-0.1802 0.666784,-0.4259 0.924174,-0.7262 0.25738,-0.3088 0.461678,-0.6616 0.616117,-1.0562 0.163005,-0.3946 0.301692,-0.8167 0.396074,-1.2542 l -1.210227,-0.3741 c -0.06007,0.3431 -0.130518,0.6679 -0.242046,0.9682 -0.102961,0.3003 -0.233069,0.5471 -0.396074,0.7701 -0.163016,0.2231 -0.362469,0.3995 -0.594111,0.5281 -0.22307,0.1288 -0.505295,0.198 -0.814153,0.198 -0.463298,0 -0.830511,-0.1117 -1.122211,-0.3521 -0.283128,-0.2487 -0.51912,-0.5686 -0.682129,-0.9461 -0.163011,-0.3774 -0.270007,-0.7946 -0.330062,-1.2322 -0.06005,-0.4461 -0.08802,-0.873 -0.08801,-1.2763 -1e-6,-0.4031 0.02797,-0.8032 0.08801,-1.2322 0.06863,-0.429 0.189054,-0.8144 0.352068,-1.1663 0.171586,-0.3602 0.412425,-0.6704 0.704132,-0.9021 0.291698,-0.2317 0.667493,-0.3521 1.12221,-0.3521 0.265961,0 0.493374,0.06 0.682128,0.154 0.197324,0.086 0.360237,0.2026 0.506095,0.3742 0.145846,0.163 0.257686,0.3625 0.352067,0.5941 0.102947,0.2317 0.208832,0.5004 0.286052,0.792 l 1.210228,-0.3299 c -0.102962,-0.4119 -0.246497,-0.7877 -0.418078,-1.1223 -0.171597,-0.3432 -0.380741,-0.64 -0.63812,-0.8802 -0.248811,-0.2488 -0.554149,-0.4434 -0.880165,-0.5721 -0.326025,-0.1373 -0.688396,-0.1981 -1.100207,-0.1981 z m -8.185538,0.1541 -2.904545,9.5498 1.342251,0 0.79215,-2.8165 2.816528,0 0.858163,2.8165 1.408263,0 -3.102582,-9.5498 -1.210228,0 z m 12.696384,0 0,9.5498 5.699071,0 0,-1.2102 -4.466838,0 0,-3.1246 3.718698,0 0,-1.2102 -3.718698,0 0,-2.7945 4.290805,0 0,-1.2103 -5.523038,0 z m -12.080268,1.9364 c 0.154428,0.6092 0.303918,1.2123 0.484091,1.8043 0.188745,0.5921 0.378509,1.1906 0.550103,1.7825 l -2.046385,0 c 0.180168,-0.5919 0.369933,-1.177 0.550105,-1.7605 0.180166,-0.592 0.333392,-1.2084 0.462086,-1.8263 z"
         inkscape:connector-curvature="0"
         id="path3348"
         style="font-size:18.27676201px;font-style:normal;font-variant:normal;font-weight:bold;font-stretch:normal;text-align:start;line-height:120.00000477%;writing-mode:lr-tb;text-anchor:start;fill:#1e3d6d;fill-opacity:1;stroke:none;display:inline;font-family:BabelSans;-inkscape-font-specification:BabelSans Bold" />
    </g>
  </g>
</svg>
