<?xml version="1.0" encoding="UTF-8" standalone="no"?>
<!-- Created with Inkscape (http://www.inkscape.org/) -->

<svg
   xmlns:dc="http://purl.org/dc/elements/1.1/"
   xmlns:cc="http://creativecommons.org/ns#"
   xmlns:rdf="http://www.w3.org/1999/02/22-rdf-syntax-ns#"
   xmlns:svg="http://www.w3.org/2000/svg"
   xmlns="http://www.w3.org/2000/svg"
   xmlns:xlink="http://www.w3.org/1999/xlink"
   xmlns:sodipodi="http://sodipodi.sourceforge.net/DTD/sodipodi-0.dtd"
   xmlns:inkscape="http://www.inkscape.org/namespaces/inkscape"
   width="96"
   height="96"
   id="svg6307"
   version="1.1"
   inkscape:version="0.48.1 r9760"
   sodipodi:docname="application-pdf.svg">
  <defs
     id="defs6309">
    <filter
       color-interpolation-filters="sRGB"
       inkscape:collect="always"
       id="filter6279-2">
      <feGaussianBlur
         inkscape:collect="always"
         stdDeviation="0.8"
         id="feGaussianBlur6281-1" />
    </filter>
    <linearGradient
       inkscape:collect="always"
       xlink:href="#linearGradient3700-9"
       id="linearGradient9181"
       gradientUnits="userSpaceOnUse"
       gradientTransform="translate(0,-7.8515622e-6)"
       x1="48"
       y1="1052.3622"
       x2="48"
       y2="902.36218" />
    <linearGradient
       id="linearGradient3700-9">
      <stop
         id="stop3702-14"
         style="stop-color:#e6e6e6;stop-opacity:1"
         offset="0" />
      <stop
         id="stop3704-9"
         style="stop-color:#f5f5f5;stop-opacity:1"
         offset="1" />
    </linearGradient>
    <linearGradient
       y2="138.66119"
       x2="48"
       y1="20.220806"
       x1="48"
       gradientUnits="userSpaceOnUse"
       id="linearGradient3183"
       xlink:href="#linearGradient3737-9-6"
       inkscape:collect="always" />
    <linearGradient
       id="linearGradient3737-9-6">
      <stop
         id="stop3739-2"
         style="stop-color:#ffffff;stop-opacity:1"
         offset="0" />
      <stop
         id="stop3741-1-0"
         style="stop-color:#ffffff;stop-opacity:0"
         offset="1" />
    </linearGradient>
    <clipPath
       id="clipPath3613-66">
      <rect
         width="84"
         height="84"
         rx="6"
         ry="6"
         x="6"
         y="6"
         id="rect3615-46"
         style="fill:#ffffff;fill-opacity:1;fill-rule:nonzero;stroke:none" />
    </clipPath>
    <filter
       x="-0.192"
       y="-0.192"
       width="1.3839999"
       height="1.3839999"
       color-interpolation-filters="sRGB"
       id="filter3794-28">
      <feGaussianBlur
         id="feGaussianBlur3796-96"
         stdDeviation="5.28" />
    </filter>
    <linearGradient
       gradientTransform="matrix(0.65326218,0,0,0.6532612,16.580426,973.06854)"
       y2="6.398416"
       x2="56.633896"
       y1="89.164001"
       x1="56.633896"
       gradientUnits="userSpaceOnUse"
       id="linearGradient3100-1"
       xlink:href="#linearGradient3174"
       inkscape:collect="always" />
    <linearGradient
       id="linearGradient3174">
      <stop
         id="stop3176"
         style="stop-color:#c30000;stop-opacity:1"
         offset="0" />
      <stop
         id="stop3178"
         style="stop-color:#f12300;stop-opacity:1"
         offset="1" />
    </linearGradient>
  </defs>
  <sodipodi:namedview
     id="base"
     pagecolor="#ffffff"
     bordercolor="#666666"
     borderopacity="1.0"
     inkscape:pageopacity="0.0"
     inkscape:pageshadow="2"
     inkscape:zoom="2.8"
     inkscape:cx="76.31375"
     inkscape:cy="55.807849"
     inkscape:document-units="px"
     inkscape:current-layer="layer1"
     showgrid="false"
     inkscape:window-width="1280"
     inkscape:window-height="725"
     inkscape:window-x="0"
     inkscape:window-y="25"
     inkscape:window-maximized="1" />
  <metadata
     id="metadata6312">
    <rdf:RDF>
      <cc:Work
         rdf:about="">
        <dc:format>image/svg+xml</dc:format>
        <dc:type
           rdf:resource="http://purl.org/dc/dcmitype/StillImage" />
        <dc:title></dc:title>
      </cc:Work>
    </rdf:RDF>
  </metadata>
  <g
     inkscape:label="Layer 1"
     inkscape:groupmode="layer"
     id="layer1"
     transform="translate(0,-956.36218)">
    <g
       id="g6881">
      <rect
         transform="translate(0,-7.8515622e-6)"
         y="964.36218"
         x="8"
         height="80"
         width="80"
         id="rect9283"
         style="fill:#000000;fill-opacity:1;stroke:none;filter:url(#filter6279-2)"
         rx="5"
         ry="5" />
      <rect
         ry="5"
         rx="5"
         style="fill:url(#linearGradient9181);fill-opacity:1;stroke:none"
         id="rect9285"
         width="80"
         height="80"
         x="8"
         y="964.36218" />
      <g
         id="layer5"
         transform="translate(0,956.36218)">
        <rect
           style="opacity:0.5;fill:url(#linearGradient3183);fill-opacity:1;fill-rule:nonzero;stroke:#ffffff;stroke-width:0.5;stroke-linecap:round;stroke-linejoin:miter;stroke-miterlimit:4;stroke-opacity:1;stroke-dasharray:none;stroke-dashoffset:0;display:inline;filter:url(#filter3794-28)"
           id="rect3171"
           clip-path="url(#clipPath3613-66)"
           y="15"
           x="15"
           ry="12"
           rx="12"
           height="66"
           width="66" />
      </g>
      <path
         d="m 54.967505,976.98847 c -2.579172,5.67809 -4.533581,11.51911 -5.830322,17.4052 -0.67308,0.53562 -1.35701,1.0361 -2.057762,1.54332 -7.994788,5.78711 -17.584986,9.56821 -26.579421,9.34581 l 0,4.287 c 7.959018,0.7513 13.253758,2.0983 16.858132,6.8918 3.564877,4.7412 5.56087,9.4291 5.56087,15.4006 l 2.743684,0 c 0,-5.9537 -2.583306,-13.0261 -6.075312,-17.0296 -3.450962,-3.9565 -7.809334,-5.7891 -13.68575,-7.1492 7.858452,-1.052 15.661066,-4.5461 22.378159,-9.34562 -1.937202,11.24952 -1.621442,22.67342 0.771659,33.52442 l 18.948558,0 c -9.468155,-8.5845 -13.563952,-23.9728 -13.546937,-38.49739 5.33899,-4.97005 9.488029,-10.66842 11.660654,-16.37634 l -2.915162,0 c -1.806391,4.18116 -4.834111,8.47176 -8.659747,12.43231 0.232935,-4.37603 0.931051,-8.56482 1.886281,-12.43231 l -1.457584,0 z"
         inkscape:connector-curvature="0"
         id="path4144"
         style="fill:url(#linearGradient3100-1);fill-opacity:1;fill-rule:evenodd;stroke:none;display:inline" />
      <path
         d="m 20.5,976.96218 0,17.9375 8.09375,-17.9375 -8.09375,0 z m 9.90625,0 8.09375,17.9375 0,-17.9375 -8.09375,0 z m -0.90625,7.03125 -3.03125,7 2.928571,0 1.71875,3.96875 3.227679,0 -2.375,-5.28125 -0.0625,-0.125 -2.40625,-5.5625 z"
         inkscape:connector-curvature="0"
         id="rect3362"
         style="opacity:0.5;fill:#999999;fill-opacity:1;fill-rule:nonzero;stroke:none" />
    </g>
  </g>
</svg>
