<?xml version="1.0" encoding="UTF-8" standalone="no"?>
<!-- Created with Inkscape (http://www.inkscape.org/) -->

<svg
   xmlns:dc="http://purl.org/dc/elements/1.1/"
   xmlns:cc="http://creativecommons.org/ns#"
   xmlns:rdf="http://www.w3.org/1999/02/22-rdf-syntax-ns#"
   xmlns:svg="http://www.w3.org/2000/svg"
   xmlns="http://www.w3.org/2000/svg"
   xmlns:xlink="http://www.w3.org/1999/xlink"
   xmlns:sodipodi="http://sodipodi.sourceforge.net/DTD/sodipodi-0.dtd"
   xmlns:inkscape="http://www.inkscape.org/namespaces/inkscape"
   width="96"
   height="96"
   id="svg6307"
   version="1.1"
   inkscape:version="0.48.1 r9760"
   sodipodi:docname="application-x-msdownload.svg">
  <defs
     id="defs6309">
    <filter
       color-interpolation-filters="sRGB"
       inkscape:collect="always"
       id="filter6279-2">
      <feGaussianBlur
         inkscape:collect="always"
         stdDeviation="0.8"
         id="feGaussianBlur6281-1" />
    </filter>
    <linearGradient
       inkscape:collect="always"
       xlink:href="#linearGradient3700-81"
       id="linearGradient9218"
       gradientUnits="userSpaceOnUse"
       gradientTransform="translate(0,-7.8515622e-6)"
       x1="48"
       y1="1052.3622"
       x2="48"
       y2="902.36218" />
    <linearGradient
       id="linearGradient3700-81">
      <stop
         id="stop3702-2"
         style="stop-color:#e1e1e1;stop-opacity:1"
         offset="0" />
      <stop
         id="stop3704-89"
         style="stop-color:#f5f5f5;stop-opacity:1"
         offset="1" />
    </linearGradient>
    <linearGradient
       inkscape:collect="always"
       xlink:href="#linearGradient3737-9-3"
       id="linearGradient8808"
       gradientUnits="userSpaceOnUse"
       x1="48"
       y1="20.220806"
       x2="48"
       y2="138.66119" />
    <linearGradient
       id="linearGradient3737-9-3">
      <stop
         id="stop3739-2"
         style="stop-color:#ffffff;stop-opacity:1"
         offset="0" />
      <stop
         id="stop3741-1-9"
         style="stop-color:#ffffff;stop-opacity:0"
         offset="1" />
    </linearGradient>
    <clipPath
       id="clipPath3613-41">
      <rect
         width="84"
         height="84"
         rx="6"
         ry="6"
         x="6"
         y="6"
         id="rect3615-54"
         style="fill:#ffffff;fill-opacity:1;fill-rule:nonzero;stroke:none" />
    </clipPath>
    <filter
       x="-0.192"
       y="-0.192"
       width="1.3839999"
       height="1.3839999"
       color-interpolation-filters="sRGB"
       id="filter3794-15">
      <feGaussianBlur
         id="feGaussianBlur3796-549"
         stdDeviation="5.28" />
    </filter>
    <linearGradient
       x1="48"
       y1="72"
       x2="48"
       y2="24"
       id="linearGradient5987"
       xlink:href="#linearGradient3697-7"
       gradientUnits="userSpaceOnUse"
       gradientTransform="matrix(1.0172185,0,0,1.0088125,-0.44503011,0.86721983)" />
    <linearGradient
       id="linearGradient3697-7">
      <stop
         id="stop3699-6"
         style="stop-color:#bababa;stop-opacity:1"
         offset="0" />
      <stop
         id="stop3701-6-6"
         style="stop-color:#d2d2d2;stop-opacity:1"
         offset="1" />
    </linearGradient>
    <linearGradient
       x1="206.6895"
       y1="-167.532"
       x2="206.6895"
       y2="-167.532"
       id="linearGradient5067"
       xlink:href="#SVGID_14_-1"
       gradientUnits="userSpaceOnUse"
       gradientTransform="matrix(0.7283166,0,0,-0.7283166,-121.99117,-75.64398)" />
    <linearGradient
       x1="206.6895"
       y1="-167.532"
       x2="206.6895"
       y2="-167.532"
       id="SVGID_14_-1"
       gradientUnits="userSpaceOnUse"
       gradientTransform="matrix(1,0,0,-1,-270.96,-122.0747)">
      <stop
         id="stop3506-5"
         style="stop-color:#7e9ec4;stop-opacity:1"
         offset="0" />
      <stop
         id="stop3508-0"
         style="stop-color:#151d89;stop-opacity:1"
         offset="1" />
    </linearGradient>
    <linearGradient
       x1="206.6895"
       y1="-167.532"
       x2="206.6895"
       y2="-167.532"
       id="linearGradient8577"
       xlink:href="#SVGID_14_-1"
       gradientUnits="userSpaceOnUse"
       gradientTransform="matrix(0.7283166,0,0,-0.7283166,-201.99117,-74.64398)" />
    <linearGradient
       x1="206.6895"
       y1="-167.532"
       x2="206.6895"
       y2="-167.532"
       id="linearGradient6441"
       gradientUnits="userSpaceOnUse"
       gradientTransform="matrix(1,0,0,-1,-270.96,-122.0747)">
      <stop
         id="stop6443"
         style="stop-color:#7e9ec4;stop-opacity:1"
         offset="0" />
      <stop
         id="stop6445"
         style="stop-color:#151d89;stop-opacity:1"
         offset="1" />
    </linearGradient>
  </defs>
  <sodipodi:namedview
     id="base"
     pagecolor="#ffffff"
     bordercolor="#666666"
     borderopacity="1.0"
     inkscape:pageopacity="0.0"
     inkscape:pageshadow="2"
     inkscape:zoom="3.959798"
     inkscape:cx="26.346324"
     inkscape:cy="45.797864"
     inkscape:document-units="px"
     inkscape:current-layer="layer1"
     showgrid="false"
     inkscape:window-width="1280"
     inkscape:window-height="725"
     inkscape:window-x="0"
     inkscape:window-y="25"
     inkscape:window-maximized="1" />
  <metadata
     id="metadata6312">
    <rdf:RDF>
      <cc:Work
         rdf:about="">
        <dc:format>image/svg+xml</dc:format>
        <dc:type
           rdf:resource="http://purl.org/dc/dcmitype/StillImage" />
        <dc:title></dc:title>
      </cc:Work>
    </rdf:RDF>
  </metadata>
  <g
     inkscape:label="Layer 1"
     inkscape:groupmode="layer"
     id="layer1"
     transform="translate(0,-956.36218)">
    <g
       id="g9262">
      <rect
         transform="translate(0,-7.8515622e-6)"
         y="964.36218"
         x="8"
         height="80"
         width="80"
         id="rect9283"
         style="fill:#000000;fill-opacity:1;stroke:none;filter:url(#filter6279-2)"
         rx="5"
         ry="5" />
      <rect
         ry="5"
         rx="5"
         style="fill:url(#linearGradient9218);fill-opacity:1;stroke:none"
         id="rect9285"
         width="80"
         height="80"
         x="8"
         y="964.36218" />
      <g
         id="layer7"
         style="display:inline"
         transform="translate(0,956.36218)">
        <rect
           style="opacity:0.5;fill:url(#linearGradient8808);fill-opacity:1;fill-rule:nonzero;stroke:#ffffff;stroke-width:0.5;stroke-linecap:round;stroke-linejoin:miter;stroke-miterlimit:4;stroke-opacity:1;stroke-dasharray:none;stroke-dashoffset:0;display:inline;filter:url(#filter3794-15)"
           id="rect3171"
           clip-path="url(#clipPath3613-41)"
           y="15"
           x="15"
           ry="12"
           rx="12"
           height="66"
           width="66" />
      </g>
      <g
         id="layer4"
         style="display:inline"
         transform="translate(0,955.866)">
        <path
           style="fill:url(#linearGradient5987);fill-opacity:1"
           id="path3359-8"
           inkscape:connector-curvature="0"
           d="m 42.627818,27.00177 c -2.36423,0.03618 -5.18482,0.647943 -8.678146,2.080675 l -4.577484,15.762696 c 3.703545,-1.516493 6.610329,-2.225884 9.059603,-2.206777 3.713917,0.02719 6.312451,1.561034 8.741722,3.184064 L 51.782784,30.122783 C 49.260629,28.431056 46.568201,26.94147 42.627818,27.00177 z m 11.57086,4.791859 -4.577483,15.762696 c 4.024336,2.706028 8.882145,4.934569 17.801325,0.977287 l 4.577483,-15.73117 C 62.69706,36.614981 58.225978,34.484228 54.198678,31.793629 z M 37.255632,45.664801 c -2.362211,0.05699 -5.164699,0.658413 -8.646357,2.080676 l -0.06358,0 L 24,63.445122 c 9.321464,-3.822091 13.730383,-1.621675 17.769536,1.071863 l 4.64106,-15.825746 c -2.51521,-1.693563 -5.217948,-3.121422 -9.154967,-3.026438 z m 11.602649,4.539657 -4.609271,15.668119 c 4.031744,2.711172 8.52202,4.891016 17.833112,1.071864 L 66.500665,51.654626 C 57.01399,54.871295 52.894471,52.897262 48.858281,50.204458 z" />
        <path
           style="fill:url(#linearGradient5067)"
           id="path3510-1"
           inkscape:connector-curvature="0"
           d="" />
        <path
           style="fill:url(#linearGradient8577)"
           id="path6922"
           inkscape:connector-curvature="0"
           d="" />
        <path
           style="opacity:0.2;fill:#000000;fill-opacity:1"
           id="path5989"
           inkscape:connector-curvature="0"
           d="m 42.625,27 c -2.36423,0.03618 -5.194174,0.661018 -8.6875,2.09375 l -4.5625,15.75 c 0.110923,-0.04542 0.202997,-0.08103 0.3125,-0.125 l 4.25,-14.625 C 37.430826,28.661018 40.26077,28.03618 42.625,28 c 3.814441,-0.05837 6.453105,1.344935 8.90625,2.96875 l 0.25,-0.84375 C 49.259095,28.433273 46.565383,26.9397 42.625,27 z M 54.1875,31.78125 49.625,47.5625 c 0.08067,0.05424 0.168637,0.102438 0.25,0.15625 l 4.3125,-14.9375 c 3.980238,2.659157 8.416785,4.787682 17.5,1.15625 L 72,32.8125 C 62.697057,36.625039 58.2148,34.471849 54.1875,31.78125 z M 37.25,45.65625 c -2.362211,0.05699 -5.174592,0.671487 -8.65625,2.09375 l -0.0625,0 L 24,63.4375 c 0.108928,-0.04466 0.204906,-0.08197 0.3125,-0.125 l 4.21875,-14.5625 0.0625,0 c 3.481658,-1.422263 6.294039,-2.03676 8.65625,-2.09375 3.808309,-0.09188 6.460325,1.254908 8.90625,2.875 l 0.25,-0.84375 C 43.89104,46.993937 41.187019,45.561266 37.25,45.65625 z M 48.84375,50.21875 44.25,65.875 c 0.082,0.05514 0.167588,0.101597 0.25,0.15625 l 4.34375,-14.8125 c 3.990442,2.662282 8.084219,4.595693 17.34375,1.53125 L 66.5,51.65625 c -9.486675,3.216669 -13.62006,1.255304 -17.65625,-1.4375 z" />
        <path
           style="fill:#ffffff;fill-opacity:1"
           id="path5998"
           inkscape:connector-curvature="0"
           d="M 51.53125,30.96875 47.1875,45.8125 c -2.429271,-1.62303 -5.036083,-3.16031 -8.75,-3.1875 -2.375917,-0.01853 -5.20338,0.669507 -8.75,2.09375 l -0.3125,1.125 c 3.703545,-1.516493 6.613226,-2.237857 9.0625,-2.21875 3.713917,0.02719 6.320729,1.56447 8.75,3.1875 L 51.78125,31.125 c -0.08061,-0.05407 -0.169004,-0.102636 -0.25,-0.15625 z M 72,33.8125 c -0.108712,0.04455 -0.205101,0.08206 -0.3125,0.125 l -4.25,14.59375 c -8.740397,3.877959 -13.584816,1.81828 -17.5625,-0.8125 l -0.25,0.84375 c 4.024336,2.706028 8.89332,4.926032 17.8125,0.96875 L 72,33.8125 z m -25.84375,15.71875 -4.375,15 C 37.789298,61.869188 33.412177,59.673437 24.3125,63.3125 L 24,64.4375 c 9.321464,-3.822091 13.742097,-1.599788 17.78125,1.09375 l 4.625,-15.84375 c -0.08223,-0.05537 -0.167335,-0.101495 -0.25,-0.15625 z M 66.5,52.65625 C 66.392473,52.69271 66.293655,52.71487 66.1875,52.75 L 62.09375,66.9375 C 52.972023,70.67898 48.469787,68.663895 44.5,66.03125 L 44.25,66.875 c 4.031744,2.711172 8.532658,4.881652 17.84375,1.0625 L 66.5,52.65625 z" />
      </g>
    </g>
  </g>
</svg>
