<?xml version="1.0" encoding="UTF-8" standalone="no"?>
<!-- Created with Inkscape (http://www.inkscape.org/) -->

<svg
   xmlns:dc="http://purl.org/dc/elements/1.1/"
   xmlns:cc="http://creativecommons.org/ns#"
   xmlns:rdf="http://www.w3.org/1999/02/22-rdf-syntax-ns#"
   xmlns:svg="http://www.w3.org/2000/svg"
   xmlns="http://www.w3.org/2000/svg"
   xmlns:xlink="http://www.w3.org/1999/xlink"
   xmlns:sodipodi="http://sodipodi.sourceforge.net/DTD/sodipodi-0.dtd"
   xmlns:inkscape="http://www.inkscape.org/namespaces/inkscape"
   width="96"
   height="96"
   id="svg6307"
   version="1.1"
   inkscape:version="0.48.1 r9760"
   sodipodi:docname="application-default-icon.svg">
  <defs
     id="defs6309">
    <filter
       color-interpolation-filters="sRGB"
       inkscape:collect="always"
       id="filter6279">
      <feGaussianBlur
         inkscape:collect="always"
         stdDeviation="0.8"
         id="feGaussianBlur6281" />
    </filter>
    <linearGradient
       inkscape:collect="always"
       xlink:href="#ButtonColor-7"
       id="linearGradient7294"
       gradientUnits="userSpaceOnUse"
       gradientTransform="translate(0,-3.4765625e-5)"
       x1="48"
       y1="1052.3622"
       x2="48"
       y2="902.36218" />
    <linearGradient
       x1="10.31979"
       y1="21"
       x2="10.31979"
       y2="0.99929649"
       id="ButtonColor-7"
       gradientUnits="userSpaceOnUse">
      <stop
         id="stop3189-7"
         style="stop-color:#787878;stop-opacity:1"
         offset="0" />
      <stop
         id="stop3191-85"
         style="stop-color:#b4b4b4;stop-opacity:1"
         offset="1" />
    </linearGradient>
    <linearGradient
       inkscape:collect="always"
       xlink:href="#linearGradient3309-2-0"
       id="linearGradient7290-6"
       gradientUnits="userSpaceOnUse"
       gradientTransform="matrix(1.2790652,0,0,1.2790652,17.302433,974.94368)"
       x1="20.758585"
       y1="1"
       x2="20.758585"
       y2="45.017357" />
    <linearGradient
       x1="63.9995"
       y1="3.1001"
       x2="63.9995"
       y2="122.8994"
       id="linearGradient3309-2-0"
       gradientUnits="userSpaceOnUse">
      <stop
         id="stop3311-8-4"
         style="stop-color:#f0f0f0;stop-opacity:1"
         offset="0" />
      <stop
         id="stop3313-3-1"
         style="stop-color:#aaaaaa;stop-opacity:1"
         offset="1" />
    </linearGradient>
    <clipPath
       id="clipPath4403-0">
      <path
         d="m 30.916245,135.971 c -0.937266,0.54113 -1.228304,1.74752 -0.677924,2.7008 l 1.9375,3.35585 c -1.418086,1.4141 -2.622273,3.01198 -3.595451,4.71 l -3.783634,-0.99095 c -0.531629,-0.14245 -1.037926,-0.11751 -1.476221,0.13061 -0.438159,0.24835 -0.796545,0.66758 -0.936598,1.19027 l -1.978825,7.38507 c -0.280102,1.04538 0.365953,2.06538 1.429126,2.35032 l 3.772195,1.03363 c -0.0062,1.95711 0.237711,3.94301 0.758755,5.87671 l -3.355849,1.9375 c -0.95328,0.55037 -1.304431,1.74066 -0.763301,2.67792 l 3.8125,6.60344 c 0.54113,0.93727 1.747521,1.2283 2.700801,0.67793 l 3.355849,-1.9375 c 1.414106,1.41808 3.011983,2.62227 4.709995,3.59545 l -0.990945,3.78363 c -0.284894,1.06325 0.275431,2.13275 1.320874,2.41282 l 7.385075,1.97883 c 1.045371,0.28011 2.065425,-0.36588 2.35032,-1.42913 l 1.033633,-3.77219 c 1.957118,0.006 3.943015,-0.23771 5.876701,-0.75876 l 1.9375,3.35585 c 0.550375,0.95328 1.740658,1.30443 2.677924,0.7633 l 6.603444,-3.8125 c 0.937258,-0.54113 1.228299,-1.74752 0.677924,-2.7008 l -1.9375,-3.35585 c 1.418087,-1.4141 2.622272,-3.01197 3.595452,-4.70999 l 3.783633,0.99094 c 1.063244,0.2849 2.132709,-0.27549 2.41282,-1.32087 l 1.978825,-7.38508 c 0.280102,-1.04537 -0.365953,-2.06538 -1.429127,-2.35032 l -3.772195,-1.03363 c 0.0062,-1.95711 -0.237701,-3.94301 -0.758754,-5.8767 l 3.355848,-1.9375 c 0.953272,-0.55037 1.304431,-1.74066 0.763301,-2.67793 l -3.8125,-6.60344 c -0.54113,-0.93726 -1.747529,-1.2283 -2.700801,-0.67792 l -3.355849,1.9375 c -1.414093,-1.4181 -3.011984,-2.62228 -4.709995,-3.59546 l 0.990945,-3.78363 c 0.284894,-1.06324 -0.275422,-2.13275 -1.320874,-2.41282 l -7.385074,-1.97882 c -1.045381,-0.28011 -2.065426,0.36588 -2.35032,1.42912 l -1.033633,3.7722 c -1.95712,-0.006 -3.943015,0.2377 -5.876702,0.75875 l -1.9375,-3.35585 c -0.55038,-0.95328 -1.740666,-1.30442 -2.677924,-0.7633 l -6.603444,3.8125 z m 10.051722,9.7851 c 6.696096,-3.866 15.258361,-1.57175 19.124356,5.12435 3.865995,6.6961 1.57174,15.25836 -5.124356,19.12436 -6.696096,3.86599 -15.258361,1.57174 -19.124356,-5.12436 -3.865995,-6.6961 -1.57174,-15.25836 5.124356,-19.12435 z"
         inkscape:connector-curvature="0"
         id="path4405-4"
         style="fill:url(#linearGradient4407);fill-opacity:1;fill-rule:nonzero;stroke:none;stroke-width:1;marker:none;visibility:visible;display:block;overflow:visible;enable-background:accumulate" />
    </clipPath>
    <linearGradient
       inkscape:collect="always"
       xlink:href="#linearGradient4071-3-8"
       id="linearGradient7223-0"
       gradientUnits="userSpaceOnUse"
       x1="48.233639"
       y1="48.047016"
       x2="126.13924"
       y2="66.232674" />
    <linearGradient
       id="linearGradient4071-3-8">
      <stop
         id="stop4073-8-8"
         style="stop-color:#000000;stop-opacity:1"
         offset="0" />
      <stop
         id="stop4075-4-8"
         style="stop-color:#000000;stop-opacity:0"
         offset="1" />
    </linearGradient>
    <linearGradient
       inkscape:collect="always"
       xlink:href="#linearGradient4047-2-9"
       id="linearGradient7225-4"
       gradientUnits="userSpaceOnUse"
       x1="48.055065"
       y1="48.031517"
       x2="126.67282"
       y2="62.838562" />
    <linearGradient
       id="linearGradient4047-2-9">
      <stop
         id="stop4049-0-7"
         style="stop-color:#000000;stop-opacity:1"
         offset="0" />
      <stop
         id="stop4051-5-7"
         style="stop-color:#000000;stop-opacity:0"
         offset="1" />
    </linearGradient>
    <linearGradient
       inkscape:collect="always"
       xlink:href="#linearGradient4047-2-9"
       id="linearGradient7227-8"
       gradientUnits="userSpaceOnUse"
       x1="47.997307"
       y1="48.028725"
       x2="127.05216"
       y2="60.289631" />
    <linearGradient
       id="linearGradient5942">
      <stop
         id="stop5944"
         style="stop-color:#000000;stop-opacity:1"
         offset="0" />
      <stop
         id="stop5946"
         style="stop-color:#000000;stop-opacity:0"
         offset="1" />
    </linearGradient>
    <linearGradient
       inkscape:collect="always"
       xlink:href="#linearGradient4047-2-9"
       id="linearGradient7229-0"
       gradientUnits="userSpaceOnUse"
       x1="47.99826"
       y1="48.028797"
       x2="127.41583"
       y2="57.664623" />
    <linearGradient
       id="linearGradient5949">
      <stop
         id="stop5951"
         style="stop-color:#000000;stop-opacity:1"
         offset="0" />
      <stop
         id="stop5953"
         style="stop-color:#000000;stop-opacity:0"
         offset="1" />
    </linearGradient>
    <linearGradient
       inkscape:collect="always"
       xlink:href="#linearGradient4115-2-6"
       id="linearGradient7231-8"
       gradientUnits="userSpaceOnUse"
       x1="48.233643"
       y1="48.04702"
       x2="126.13924"
       y2="66.232674" />
    <linearGradient
       id="linearGradient4115-2-6">
      <stop
         id="stop4117-3-4"
         style="stop-color:#ffffff;stop-opacity:1"
         offset="0" />
      <stop
         id="stop4119-6-3"
         style="stop-color:#ffffff;stop-opacity:0"
         offset="1" />
    </linearGradient>
    <linearGradient
       inkscape:collect="always"
       xlink:href="#linearGradient4115-2-6"
       id="linearGradient7233-6"
       gradientUnits="userSpaceOnUse"
       x1="48.055069"
       y1="48.031521"
       x2="126.67282"
       y2="62.838566" />
    <linearGradient
       id="linearGradient5960">
      <stop
         id="stop5962"
         style="stop-color:#ffffff;stop-opacity:1"
         offset="0" />
      <stop
         id="stop5964"
         style="stop-color:#ffffff;stop-opacity:0"
         offset="1" />
    </linearGradient>
    <linearGradient
       inkscape:collect="always"
       xlink:href="#linearGradient4115-2-6"
       id="linearGradient7235-2"
       gradientUnits="userSpaceOnUse"
       x1="47.997311"
       y1="48.028728"
       x2="127.05216"
       y2="60.289635" />
    <linearGradient
       id="linearGradient5967">
      <stop
         id="stop5969"
         style="stop-color:#ffffff;stop-opacity:1"
         offset="0" />
      <stop
         id="stop5971"
         style="stop-color:#ffffff;stop-opacity:0"
         offset="1" />
    </linearGradient>
    <linearGradient
       inkscape:collect="always"
       xlink:href="#linearGradient4115-2-6"
       id="linearGradient7237-4"
       gradientUnits="userSpaceOnUse"
       x1="47.998264"
       y1="48.028801"
       x2="127.41583"
       y2="57.664627" />
    <linearGradient
       id="linearGradient5974">
      <stop
         id="stop5976"
         style="stop-color:#ffffff;stop-opacity:1"
         offset="0" />
      <stop
         id="stop5978"
         style="stop-color:#ffffff;stop-opacity:0"
         offset="1" />
    </linearGradient>
    <linearGradient
       inkscape:collect="always"
       xlink:href="#linearGradient4071-3-8"
       id="linearGradient7239-7"
       gradientUnits="userSpaceOnUse"
       x1="48.233639"
       y1="48.047016"
       x2="126.13924"
       y2="66.232674" />
    <linearGradient
       id="linearGradient5981">
      <stop
         id="stop5983"
         style="stop-color:#000000;stop-opacity:1"
         offset="0" />
      <stop
         id="stop5985"
         style="stop-color:#000000;stop-opacity:0"
         offset="1" />
    </linearGradient>
    <linearGradient
       inkscape:collect="always"
       xlink:href="#linearGradient4047-2-9"
       id="linearGradient7241-9"
       gradientUnits="userSpaceOnUse"
       x1="48.055065"
       y1="48.031517"
       x2="126.67282"
       y2="62.838562" />
    <linearGradient
       id="linearGradient5988">
      <stop
         id="stop5990"
         style="stop-color:#000000;stop-opacity:1"
         offset="0" />
      <stop
         id="stop5992"
         style="stop-color:#000000;stop-opacity:0"
         offset="1" />
    </linearGradient>
    <linearGradient
       inkscape:collect="always"
       xlink:href="#linearGradient4047-2-9"
       id="linearGradient7243-3"
       gradientUnits="userSpaceOnUse"
       x1="47.997307"
       y1="48.028725"
       x2="127.05216"
       y2="60.289631" />
    <linearGradient
       id="linearGradient5995">
      <stop
         id="stop5997"
         style="stop-color:#000000;stop-opacity:1"
         offset="0" />
      <stop
         id="stop5999"
         style="stop-color:#000000;stop-opacity:0"
         offset="1" />
    </linearGradient>
    <linearGradient
       inkscape:collect="always"
       xlink:href="#linearGradient4047-2-9"
       id="linearGradient7245-9"
       gradientUnits="userSpaceOnUse"
       x1="47.99826"
       y1="48.028797"
       x2="127.41583"
       y2="57.664623" />
    <linearGradient
       id="linearGradient6002">
      <stop
         id="stop6004"
         style="stop-color:#000000;stop-opacity:1"
         offset="0" />
      <stop
         id="stop6006"
         style="stop-color:#000000;stop-opacity:0"
         offset="1" />
    </linearGradient>
    <linearGradient
       inkscape:collect="always"
       xlink:href="#linearGradient4071-3-8"
       id="linearGradient7247-2"
       gradientUnits="userSpaceOnUse"
       x1="48.233639"
       y1="48.047016"
       x2="126.13924"
       y2="66.232674" />
    <linearGradient
       id="linearGradient6009">
      <stop
         id="stop6011"
         style="stop-color:#000000;stop-opacity:1"
         offset="0" />
      <stop
         id="stop6013"
         style="stop-color:#000000;stop-opacity:0"
         offset="1" />
    </linearGradient>
    <linearGradient
       inkscape:collect="always"
       xlink:href="#linearGradient4047-2-9"
       id="linearGradient7249-8"
       gradientUnits="userSpaceOnUse"
       x1="48.055065"
       y1="48.031517"
       x2="126.67282"
       y2="62.838562" />
    <linearGradient
       id="linearGradient6016">
      <stop
         id="stop6018"
         style="stop-color:#000000;stop-opacity:1"
         offset="0" />
      <stop
         id="stop6020"
         style="stop-color:#000000;stop-opacity:0"
         offset="1" />
    </linearGradient>
    <linearGradient
       inkscape:collect="always"
       xlink:href="#linearGradient4047-2-9"
       id="linearGradient7251-3"
       gradientUnits="userSpaceOnUse"
       x1="47.997307"
       y1="48.028725"
       x2="127.05216"
       y2="60.289631" />
    <linearGradient
       id="linearGradient6023">
      <stop
         id="stop6025"
         style="stop-color:#000000;stop-opacity:1"
         offset="0" />
      <stop
         id="stop6027"
         style="stop-color:#000000;stop-opacity:0"
         offset="1" />
    </linearGradient>
    <linearGradient
       inkscape:collect="always"
       xlink:href="#linearGradient4047-2-9"
       id="linearGradient7253-0"
       gradientUnits="userSpaceOnUse"
       x1="47.99826"
       y1="48.028797"
       x2="127.41583"
       y2="57.664623" />
    <linearGradient
       id="linearGradient6030">
      <stop
         id="stop6032"
         style="stop-color:#000000;stop-opacity:1"
         offset="0" />
      <stop
         id="stop6034"
         style="stop-color:#000000;stop-opacity:0"
         offset="1" />
    </linearGradient>
    <linearGradient
       inkscape:collect="always"
       xlink:href="#linearGradient4115-2-6"
       id="linearGradient7255-1"
       gradientUnits="userSpaceOnUse"
       x1="48.233643"
       y1="48.04702"
       x2="126.13924"
       y2="66.232674" />
    <linearGradient
       id="linearGradient6037">
      <stop
         id="stop6039"
         style="stop-color:#ffffff;stop-opacity:1"
         offset="0" />
      <stop
         id="stop6041"
         style="stop-color:#ffffff;stop-opacity:0"
         offset="1" />
    </linearGradient>
    <linearGradient
       inkscape:collect="always"
       xlink:href="#linearGradient4115-2-6"
       id="linearGradient7257-7"
       gradientUnits="userSpaceOnUse"
       x1="48.055069"
       y1="48.031521"
       x2="126.67282"
       y2="62.838566" />
    <linearGradient
       id="linearGradient6044">
      <stop
         id="stop6046"
         style="stop-color:#ffffff;stop-opacity:1"
         offset="0" />
      <stop
         id="stop6048"
         style="stop-color:#ffffff;stop-opacity:0"
         offset="1" />
    </linearGradient>
    <linearGradient
       inkscape:collect="always"
       xlink:href="#linearGradient4115-2-6"
       id="linearGradient7259-8"
       gradientUnits="userSpaceOnUse"
       x1="47.997311"
       y1="48.028728"
       x2="127.05216"
       y2="60.289635" />
    <linearGradient
       id="linearGradient6051">
      <stop
         id="stop6053"
         style="stop-color:#ffffff;stop-opacity:1"
         offset="0" />
      <stop
         id="stop6055"
         style="stop-color:#ffffff;stop-opacity:0"
         offset="1" />
    </linearGradient>
    <linearGradient
       inkscape:collect="always"
       xlink:href="#linearGradient4115-2-6"
       id="linearGradient7261-4"
       gradientUnits="userSpaceOnUse"
       x1="47.998264"
       y1="48.028801"
       x2="127.41583"
       y2="57.664627" />
    <linearGradient
       id="linearGradient6058">
      <stop
         id="stop6060"
         style="stop-color:#ffffff;stop-opacity:1"
         offset="0" />
      <stop
         id="stop6062"
         style="stop-color:#ffffff;stop-opacity:0"
         offset="1" />
    </linearGradient>
    <linearGradient
       y2="138.66119"
       x2="48"
       y1="20.220806"
       x1="48"
       gradientUnits="userSpaceOnUse"
       id="linearGradient4355-8"
       xlink:href="#linearGradient3737-92"
       inkscape:collect="always" />
    <linearGradient
       id="linearGradient3737-92">
      <stop
         id="stop3739-57"
         style="stop-color:#ffffff;stop-opacity:1"
         offset="0" />
      <stop
         id="stop3741-49"
         style="stop-color:#ffffff;stop-opacity:0"
         offset="1" />
    </linearGradient>
    <clipPath
       id="clipPath3613-94">
      <rect
         width="84"
         height="84"
         rx="6"
         ry="6"
         x="6"
         y="6"
         id="rect3615-59"
         style="fill:#ffffff;fill-opacity:1;fill-rule:nonzero;stroke:none" />
    </clipPath>
    <filter
       x="-0.192"
       y="-0.192"
       width="1.3839999"
       height="1.3839999"
       color-interpolation-filters="sRGB"
       id="filter3794-35">
      <feGaussianBlur
         id="feGaussianBlur3796-70"
         stdDeviation="5.28" />
    </filter>
  </defs>
  <sodipodi:namedview
     id="base"
     pagecolor="#ffffff"
     bordercolor="#666666"
     borderopacity="1.0"
     inkscape:pageopacity="0.0"
     inkscape:pageshadow="2"
     inkscape:zoom="2.8"
     inkscape:cx="102.94176"
     inkscape:cy="57.899196"
     inkscape:document-units="px"
     inkscape:current-layer="layer1"
     showgrid="false"
     inkscape:window-width="1280"
     inkscape:window-height="725"
     inkscape:window-x="0"
     inkscape:window-y="25"
     inkscape:window-maximized="1" />
  <metadata
     id="metadata6312">
    <rdf:RDF>
      <cc:Work
         rdf:about="">
        <dc:format>image/svg+xml</dc:format>
        <dc:type
           rdf:resource="http://purl.org/dc/dcmitype/StillImage" />
        <dc:title></dc:title>
      </cc:Work>
    </rdf:RDF>
  </metadata>
  <g
     inkscape:label="Layer 1"
     inkscape:groupmode="layer"
     id="layer1"
     transform="translate(0,-956.36218)">
    <g
       id="g7970">
      <rect
         transform="translate(0,-7.8515622e-6)"
         y="964.36218"
         x="8"
         height="80"
         width="80"
         id="rect9283"
         style="fill:#000000;fill-opacity:1;stroke:none;filter:url(#filter6279)"
         rx="5"
         ry="5" />
      <rect
         ry="5"
         rx="5"
         style="fill:url(#linearGradient7294);fill-opacity:1;stroke:none"
         id="rect9285"
         width="80"
         height="80"
         x="8"
         y="964.36218" />
      <g
         id="g7506">
        <path
           d="m 44.1875,976.86218 c -1.082262,0 -1.9375,0.89924 -1.9375,2 l 0,3.875 c -1.935147,0.5156 -3.776942,1.29731 -5.46875,2.28125 L 34,982.26843 c -0.389179,-0.38918 -0.840116,-0.62073 -1.34375,-0.625 -0.503633,-0.004 -1.023619,0.17987 -1.40625,0.5625 l -5.40625,5.40625 c -0.765262,0.76527 -0.715766,1.97165 0.0625,2.75 l 2.75,2.78125 c -0.983934,1.6918 -1.76564,3.5336 -2.28125,5.46875 l -3.875,0 c -1.100753,0 -2,0.85524 -2,1.93752 l 0,7.625 c 0,1.0822 0.899247,1.9375 2,1.9375 l 3.875,0 c 0.51561,1.9351 1.297316,3.7769 2.28125,5.4687 l -2.75,2.7813 c -0.778348,0.7783 -0.827844,1.9847 -0.0625,2.75 l 5.40625,5.4062 c 0.765262,0.7653 1.971652,0.7159 2.75,-0.062 l 2.78125,-2.75 c 1.691808,0.984 3.533603,1.7657 5.46875,2.2813 l 0,3.875 c 0,1.1007 0.855238,2 1.9375,2 l 7.625,0 c 1.082252,0 1.9375,-0.8993 1.9375,-2 l 0,-3.875 c 1.935147,-0.5156 3.776941,-1.2973 5.46875,-2.2813 l 2.78125,2.75 c 0.778348,0.7784 1.984727,0.8278 2.75,0.062 l 5.40625,-5.4062 c 0.765263,-0.7653 0.715767,-1.9717 -0.0625,-2.75 l -2.75,-2.7813 c 0.983933,-1.6918 1.765651,-3.5336 2.28125,-5.4687 l 3.875,0 c 1.100744,0 2,-0.8553 2,-1.9375 l 0,-7.625 c 0,-1.08228 -0.899256,-1.93752 -2,-1.93752 l -3.875,0 c -0.515595,-1.93515 -1.297317,-3.77695 -2.28125,-5.46875 l 2.75,-2.78125 c 0.778348,-0.77835 0.827855,-1.98473 0.0625,-2.75 L 64.75,982.20593 c -0.765273,-0.76527 -1.971652,-0.71585 -2.75,0.0625 l -2.78125,2.75 c -1.691809,-0.98394 -3.533603,-1.76565 -5.46875,-2.28125 l 0,-3.875 c 0,-1.10076 -0.855248,-2 -1.9375,-2 l -7.625,0 z m 3.8125,13.5 c 7.731986,0 14,6.26801 14,14.00002 0,7.732 -6.268014,14 -14,14 -7.731986,0 -14,-6.268 -14,-14 0,-7.73201 6.268014,-14.00002 14,-14.00002 z"
           inkscape:connector-curvature="0"
           id="rect3267"
           style="fill:url(#linearGradient7290-6);fill-opacity:1;fill-rule:nonzero;stroke:none;stroke-width:1;marker:none;visibility:visible;display:block;overflow:visible;enable-background:accumulate" />
        <g
           transform="matrix(0.8660254,0.5,-0.5,0.8660254,85.39875,843.64971)"
           clip-path="url(#clipPath4403-0)"
           id="g4176">
          <g
             transform="matrix(0.1413721,0.99271966,-1.1651755,0.12044784,96.937266,104.80532)"
             id="g4011"
             style="opacity:0.9">
            <path
               inkscape:connector-curvature="0"
               d="m 108.8959,48 a 60.895905,60.895905 0 0 1 -6.54616,27.466658 L 48,48 z"
               transform="matrix(0.99411049,-0.1083712,0.1083712,0.99411049,-5.1582185,5.4918915)"
               id="path4009"
               style="opacity:0.05;color:#000000;fill:url(#linearGradient7223-0);fill-opacity:1;fill-rule:nonzero;stroke:none;stroke-width:2;marker:none;visibility:visible;display:inline;overflow:visible;enable-background:accumulate" />
            <path
               inkscape:connector-curvature="0"
               d="m 108.8959,48 a 60.895905,60.895905 0 0 1 -4.45721,22.86887 L 48,48 z"
               transform="matrix(0.99786084,-0.06537382,0.06537382,0.99786084,-3.0940115,3.2415713)"
               id="path4007"
               style="opacity:0.07000002;color:#000000;fill:url(#linearGradient7225-4);fill-opacity:1;fill-rule:nonzero;stroke:none;stroke-width:2;marker:none;visibility:visible;display:inline;overflow:visible;enable-background:accumulate" />
            <path
               inkscape:connector-curvature="0"
               d="m 108.8959,48 a 60.895905,60.895905 0 0 1 -3.12994,19.271878 L 48,48 z"
               transform="matrix(0.99945136,-0.0331207,0.0331207,0.99945136,-1.5634586,1.6161281)"
               id="path4005"
               style="opacity:0.1;color:#000000;fill:url(#linearGradient7227-8);fill-opacity:1;fill-rule:nonzero;stroke:none;stroke-width:2;marker:none;visibility:visible;display:inline;overflow:visible;enable-background:accumulate" />
            <path
               inkscape:connector-curvature="0"
               d="m 108.8959,48 a 60.895905,60.895905 0 0 1 -2.07497,15.76102 L 48,48 z"
               id="path4003"
               style="opacity:0.05;color:#000000;fill:url(#linearGradient7229-0);fill-opacity:1;fill-rule:nonzero;stroke:none;stroke-width:2;marker:none;visibility:visible;display:inline;overflow:visible;enable-background:accumulate" />
          </g>
          <g
             transform="matrix(1.062807,-0.13087531,-0.74010065,3.227468,32.525111,9.33226)"
             id="g4027"
             style="opacity:0.9;fill:#ffffff">
            <path
               inkscape:connector-curvature="0"
               d="m 108.8959,48 a 60.895905,60.895905 0 0 1 -6.54616,27.466658 L 48,48 z"
               transform="matrix(0.99411049,-0.1083712,0.1083712,0.99411049,-5.1582185,5.4918915)"
               id="path4029"
               style="opacity:0.2;color:#000000;fill:url(#linearGradient7231-8);fill-opacity:1;fill-rule:nonzero;stroke:none;stroke-width:2;marker:none;visibility:visible;display:inline;overflow:visible;enable-background:accumulate" />
            <path
               inkscape:connector-curvature="0"
               d="m 108.8959,48 a 60.895905,60.895905 0 0 1 -4.45721,22.86887 L 48,48 z"
               transform="matrix(0.99786084,-0.06537382,0.06537382,0.99786084,-3.0940115,3.2415713)"
               id="path4031"
               style="opacity:0.4;color:#000000;fill:url(#linearGradient7233-6);fill-opacity:1;fill-rule:nonzero;stroke:none;stroke-width:2;marker:none;visibility:visible;display:inline;overflow:visible;enable-background:accumulate" />
            <path
               inkscape:connector-curvature="0"
               d="m 108.8959,48 a 60.895905,60.895905 0 0 1 -3.12994,19.271878 L 48,48 z"
               transform="matrix(0.99945136,-0.0331207,0.0331207,0.99945136,-1.5634586,1.6161281)"
               id="path4033"
               style="opacity:0.6;color:#000000;fill:url(#linearGradient7235-2);fill-opacity:1;fill-rule:nonzero;stroke:none;stroke-width:2;marker:none;visibility:visible;display:inline;overflow:visible;enable-background:accumulate" />
            <path
               inkscape:connector-curvature="0"
               d="m 108.8959,48 a 60.895905,60.895905 0 0 1 -2.07497,15.76102 L 48,48 z"
               id="path4035"
               style="opacity:0.8;color:#000000;fill:url(#linearGradient7237-4);fill-opacity:1;fill-rule:nonzero;stroke:none;stroke-width:2;marker:none;visibility:visible;display:inline;overflow:visible;enable-background:accumulate" />
          </g>
          <g
             transform="matrix(-0.61678932,0.78712829,-0.78712829,-0.61678932,115.00148,150.01193)"
             id="g4079"
             style="opacity:0.5">
            <path
               inkscape:connector-curvature="0"
               d="m 108.8959,48 a 60.895905,60.895905 0 0 1 -6.54616,27.466658 L 48,48 z"
               transform="matrix(0.99411049,-0.1083712,0.1083712,0.99411049,-5.1582185,5.4918915)"
               id="path4081"
               style="opacity:0.05;color:#000000;fill:url(#linearGradient7239-7);fill-opacity:1;fill-rule:nonzero;stroke:none;stroke-width:2;marker:none;visibility:visible;display:inline;overflow:visible;enable-background:accumulate" />
            <path
               inkscape:connector-curvature="0"
               d="m 108.8959,48 a 60.895905,60.895905 0 0 1 -4.45721,22.86887 L 48,48 z"
               transform="matrix(0.99786084,-0.06537382,0.06537382,0.99786084,-3.0940115,3.2415713)"
               id="path4083"
               style="opacity:0.07000002;color:#000000;fill:url(#linearGradient7241-9);fill-opacity:1;fill-rule:nonzero;stroke:none;stroke-width:2;marker:none;visibility:visible;display:inline;overflow:visible;enable-background:accumulate" />
            <path
               inkscape:connector-curvature="0"
               d="m 108.8959,48 a 60.895905,60.895905 0 0 1 -3.12994,19.271878 L 48,48 z"
               transform="matrix(0.99945136,-0.0331207,0.0331207,0.99945136,-1.5634586,1.6161281)"
               id="path4085"
               style="opacity:0.1;color:#000000;fill:url(#linearGradient7243-3);fill-opacity:1;fill-rule:nonzero;stroke:none;stroke-width:2;marker:none;visibility:visible;display:inline;overflow:visible;enable-background:accumulate" />
            <path
               inkscape:connector-curvature="0"
               d="m 108.8959,48 a 60.895905,60.895905 0 0 1 -2.07497,15.76102 L 48,48 z"
               id="path4087"
               style="opacity:0.1;color:#000000;fill:url(#linearGradient7245-9);fill-opacity:1;fill-rule:nonzero;stroke:none;stroke-width:2;marker:none;visibility:visible;display:inline;overflow:visible;enable-background:accumulate" />
          </g>
          <g
             transform="matrix(-0.06817198,-1.0460056,2.710673,0.60162586,-79.095447,179.08013)"
             id="g4097"
             style="opacity:0.8">
            <path
               inkscape:connector-curvature="0"
               d="m 108.8959,48 a 60.895905,60.895905 0 0 1 -6.54616,27.466658 L 48,48 z"
               transform="matrix(0.99411049,-0.1083712,0.1083712,0.99411049,-5.1582185,5.4918915)"
               id="path4099"
               style="opacity:0.05;color:#000000;fill:url(#linearGradient7247-2);fill-opacity:1;fill-rule:nonzero;stroke:none;stroke-width:2;marker:none;visibility:visible;display:inline;overflow:visible;enable-background:accumulate" />
            <path
               inkscape:connector-curvature="0"
               d="m 108.8959,48 a 60.895905,60.895905 0 0 1 -4.45721,22.86887 L 48,48 z"
               transform="matrix(0.99786084,-0.06537382,0.06537382,0.99786084,-3.0940115,3.2415713)"
               id="path4101"
               style="opacity:0.07000002;color:#000000;fill:url(#linearGradient7249-8);fill-opacity:1;fill-rule:nonzero;stroke:none;stroke-width:2;marker:none;visibility:visible;display:inline;overflow:visible;enable-background:accumulate" />
            <path
               inkscape:connector-curvature="0"
               d="m 108.8959,48 a 60.895905,60.895905 0 0 1 -3.12994,19.271878 L 48,48 z"
               transform="matrix(0.99945136,-0.0331207,0.0331207,0.99945136,-1.5634586,1.6161281)"
               id="path4103"
               style="opacity:0.1;color:#000000;fill:url(#linearGradient7251-3);fill-opacity:1;fill-rule:nonzero;stroke:none;stroke-width:2;marker:none;visibility:visible;display:inline;overflow:visible;enable-background:accumulate" />
            <path
               inkscape:connector-curvature="0"
               d="m 108.8959,48 a 60.895905,60.895905 0 0 1 -2.07497,15.76102 L 48,48 z"
               id="path4105"
               style="opacity:0.1;color:#000000;fill:url(#linearGradient7253-0);fill-opacity:1;fill-rule:nonzero;stroke:none;stroke-width:2;marker:none;visibility:visible;display:inline;overflow:visible;enable-background:accumulate" />
          </g>
          <g
             transform="matrix(-1.062807,0.1308753,0.74010064,-3.227468,62.996694,306.66774)"
             id="g4147"
             style="opacity:0.9;fill:#ffffff">
            <path
               inkscape:connector-curvature="0"
               d="m 108.8959,48 a 60.895905,60.895905 0 0 1 -6.54616,27.466658 L 48,48 z"
               transform="matrix(0.99411049,-0.1083712,0.1083712,0.99411049,-5.1582185,5.4918915)"
               id="path4149"
               style="opacity:0.2;color:#000000;fill:url(#linearGradient7255-1);fill-opacity:1;fill-rule:nonzero;stroke:none;stroke-width:2;marker:none;visibility:visible;display:inline;overflow:visible;enable-background:accumulate" />
            <path
               inkscape:connector-curvature="0"
               d="m 108.8959,48 a 60.895905,60.895905 0 0 1 -4.45721,22.86887 L 48,48 z"
               transform="matrix(0.99786084,-0.06537382,0.06537382,0.99786084,-3.0940115,3.2415713)"
               id="path4151"
               style="opacity:0.4;color:#000000;fill:url(#linearGradient7257-7);fill-opacity:1;fill-rule:nonzero;stroke:none;stroke-width:2;marker:none;visibility:visible;display:inline;overflow:visible;enable-background:accumulate" />
            <path
               inkscape:connector-curvature="0"
               d="m 108.8959,48 a 60.895905,60.895905 0 0 1 -3.12994,19.271878 L 48,48 z"
               transform="matrix(0.99945136,-0.0331207,0.0331207,0.99945136,-1.5634586,1.6161281)"
               id="path4153"
               style="opacity:0.6;color:#000000;fill:url(#linearGradient7259-8);fill-opacity:1;fill-rule:nonzero;stroke:none;stroke-width:2;marker:none;visibility:visible;display:inline;overflow:visible;enable-background:accumulate" />
            <path
               inkscape:connector-curvature="0"
               d="m 108.8959,48 a 60.895905,60.895905 0 0 1 -2.07497,15.76102 L 48,48 z"
               id="path4155"
               style="opacity:0.8;color:#000000;fill:url(#linearGradient7261-4);fill-opacity:1;fill-rule:nonzero;stroke:none;stroke-width:2;marker:none;visibility:visible;display:inline;overflow:visible;enable-background:accumulate" />
          </g>
        </g>
      </g>
      <g
         id="layer5"
         transform="translate(0,956.36218)">
        <rect
           style="opacity:0.15;fill:url(#linearGradient4355-8);fill-opacity:1;fill-rule:nonzero;stroke:#ffffff;stroke-width:0.5;stroke-linecap:round;stroke-linejoin:miter;stroke-miterlimit:4;stroke-opacity:1;stroke-dasharray:none;stroke-dashoffset:0;filter:url(#filter3794-35)"
           id="rect3171"
           clip-path="url(#clipPath3613-94)"
           y="15"
           x="15"
           ry="12"
           rx="12"
           height="66"
           width="66" />
      </g>
    </g>
  </g>
</svg>
