<?xml version="1.0" encoding="UTF-8" standalone="no"?>
<!-- Created with Inkscape (http://www.inkscape.org/) -->

<svg
   xmlns:dc="http://purl.org/dc/elements/1.1/"
   xmlns:cc="http://creativecommons.org/ns#"
   xmlns:rdf="http://www.w3.org/1999/02/22-rdf-syntax-ns#"
   xmlns:svg="http://www.w3.org/2000/svg"
   xmlns="http://www.w3.org/2000/svg"
   xmlns:xlink="http://www.w3.org/1999/xlink"
   xmlns:sodipodi="http://sodipodi.sourceforge.net/DTD/sodipodi-0.dtd"
   xmlns:inkscape="http://www.inkscape.org/namespaces/inkscape"
   width="96"
   height="96"
   id="svg6307"
   version="1.1"
   inkscape:version="0.48.1 r9760"
   sodipodi:docname="application-vnd.scribus.svg">
  <defs
     id="defs6309">
    <filter
       color-interpolation-filters="sRGB"
       inkscape:collect="always"
       id="filter6279-2">
      <feGaussianBlur
         inkscape:collect="always"
         stdDeviation="0.8"
         id="feGaussianBlur6281-1" />
    </filter>
    <linearGradient
       inkscape:collect="always"
       xlink:href="#linearGradient3700-38"
       id="linearGradient9181"
       gradientUnits="userSpaceOnUse"
       gradientTransform="translate(0,-7.8515622e-6)"
       x1="48"
       y1="1052.3622"
       x2="48"
       y2="902.36218" />
    <linearGradient
       id="linearGradient3700-38">
      <stop
         id="stop3702-83"
         style="stop-color:#e6e6e6;stop-opacity:1"
         offset="0" />
      <stop
         id="stop3704-1"
         style="stop-color:#f5f5f5;stop-opacity:1"
         offset="1" />
    </linearGradient>
    <linearGradient
       y2="138.66119"
       x2="48"
       y1="20.220806"
       x1="48"
       gradientUnits="userSpaceOnUse"
       id="linearGradient3172"
       xlink:href="#linearGradient3737-9-0"
       inkscape:collect="always" />
    <linearGradient
       id="linearGradient3737-9-0">
      <stop
         id="stop3739-2"
         style="stop-color:#ffffff;stop-opacity:1"
         offset="0" />
      <stop
         id="stop3741-1-5"
         style="stop-color:#ffffff;stop-opacity:0"
         offset="1" />
    </linearGradient>
    <clipPath
       id="clipPath3613-66">
      <rect
         width="84"
         height="84"
         rx="6"
         ry="6"
         x="6"
         y="6"
         id="rect3615-40"
         style="fill:#ffffff;fill-opacity:1;fill-rule:nonzero;stroke:none" />
    </clipPath>
    <filter
       x="-0.192"
       y="-0.192"
       width="1.3839999"
       height="1.3839999"
       color-interpolation-filters="sRGB"
       id="filter3794-04">
      <feGaussianBlur
         id="feGaussianBlur3796-62"
         stdDeviation="5.28" />
    </filter>
    <linearGradient
       inkscape:collect="always"
       xlink:href="#linearGradient11508"
       id="linearGradient6930"
       gradientUnits="userSpaceOnUse"
       gradientTransform="matrix(1.0642506,0.22253363,-0.33932139,0.69795647,25.389673,15.671146)"
       x1="43.700191"
       y1="82.473648"
       x2="77.923637"
       y2="16.211916" />
    <linearGradient
       id="linearGradient11508">
      <stop
         id="stop11510"
         style="stop-color:#000000;stop-opacity:1"
         offset="0" />
      <stop
         id="stop11512"
         style="stop-color:#000000;stop-opacity:0"
         offset="1" />
    </linearGradient>
    <linearGradient
       inkscape:collect="always"
       xlink:href="#linearGradient11508"
       id="linearGradient6932"
       gradientUnits="userSpaceOnUse"
       gradientTransform="matrix(1.037083,0.14898509,-0.15896024,0.97200342,11.601829,-3.9991775)"
       x1="43.700191"
       y1="82.473648"
       x2="87.732079"
       y2="6.208179" />
    <linearGradient
       id="linearGradient6115">
      <stop
         id="stop6117"
         style="stop-color:#000000;stop-opacity:1"
         offset="0" />
      <stop
         id="stop6119"
         style="stop-color:#000000;stop-opacity:0"
         offset="1" />
    </linearGradient>
    <linearGradient
       inkscape:collect="always"
       xlink:href="#linearGradient10394"
       id="linearGradient6934"
       gradientUnits="userSpaceOnUse"
       x1="60.899021"
       y1="35.60585"
       x2="68.2229"
       y2="39.53442" />
    <linearGradient
       id="linearGradient10394">
      <stop
         id="stop10396"
         style="stop-color:#1a1a1a;stop-opacity:1"
         offset="0" />
      <stop
         id="stop10404"
         style="stop-color:#636363;stop-opacity:1"
         offset="0.35185185" />
      <stop
         id="stop10402"
         style="stop-color:#c7c7c7;stop-opacity:1"
         offset="0.5" />
      <stop
         id="stop10406"
         style="stop-color:#636363;stop-opacity:1"
         offset="0.64999998" />
      <stop
         id="stop10398"
         style="stop-color:#000000;stop-opacity:1"
         offset="1" />
    </linearGradient>
    <linearGradient
       inkscape:collect="always"
       xlink:href="#linearGradient6531"
       id="linearGradient6936"
       gradientUnits="userSpaceOnUse"
       gradientTransform="matrix(0.72549189,-0.19431313,0.19481343,0.72674756,26.254071,18.267752)"
       x1="24.248737"
       y1="77.502068"
       x2="13.405647"
       y2="67.6745" />
    <linearGradient
       id="linearGradient6531">
      <stop
         id="stop6533"
         style="stop-color:#c38125;stop-opacity:1"
         offset="0" />
      <stop
         id="stop10377"
         style="stop-color:#c68d31;stop-opacity:1"
         offset="0.62962961" />
      <stop
         id="stop6535"
         style="stop-color:#fffce6;stop-opacity:1"
         offset="1" />
    </linearGradient>
    <linearGradient
       inkscape:collect="always"
       xlink:href="#linearGradient10386"
       id="linearGradient6938"
       gradientUnits="userSpaceOnUse"
       x1="58.651787"
       y1="68.171875"
       x2="47.450871"
       y2="57.993305" />
    <linearGradient
       id="linearGradient10386">
      <stop
         id="stop10388"
         style="stop-color:#ffffff;stop-opacity:1"
         offset="0" />
      <stop
         id="stop10390"
         style="stop-color:#ffffff;stop-opacity:0"
         offset="1" />
    </linearGradient>
    <radialGradient
       inkscape:collect="always"
       xlink:href="#linearGradient10410"
       id="radialGradient6940"
       gradientUnits="userSpaceOnUse"
       gradientTransform="matrix(1,0,0,0.125,0,36.491262)"
       cx="59.85154"
       cy="41.7043"
       fx="59.85154"
       fy="41.7043"
       r="18.182745" />
    <linearGradient
       id="linearGradient10410">
      <stop
         id="stop10412"
         style="stop-color:#ffffff;stop-opacity:1"
         offset="0" />
      <stop
         id="stop10414-2"
         style="stop-color:#ffffff;stop-opacity:0"
         offset="1" />
    </linearGradient>
    <linearGradient
       inkscape:collect="always"
       xlink:href="#linearGradient3715"
       id="linearGradient6942"
       gradientUnits="userSpaceOnUse"
       gradientTransform="translate(0.75761471,1.7677667)"
       x1="39.479939"
       y1="81.5"
       x2="39.479939"
       y2="6.2799916" />
    <linearGradient
       id="linearGradient3715">
      <stop
         id="stop3717-4"
         style="stop-color:#3767a3;stop-opacity:1"
         offset="0" />
      <stop
         id="stop3719-7"
         style="stop-color:#6593c6;stop-opacity:0"
         offset="1" />
    </linearGradient>
  </defs>
  <sodipodi:namedview
     id="base"
     pagecolor="#ffffff"
     bordercolor="#666666"
     borderopacity="1.0"
     inkscape:pageopacity="0.0"
     inkscape:pageshadow="2"
     inkscape:zoom="3.959798"
     inkscape:cx="59.272325"
     inkscape:cy="52.447434"
     inkscape:document-units="px"
     inkscape:current-layer="layer1"
     showgrid="false"
     inkscape:window-width="1280"
     inkscape:window-height="725"
     inkscape:window-x="0"
     inkscape:window-y="25"
     inkscape:window-maximized="1" />
  <metadata
     id="metadata6312">
    <rdf:RDF>
      <cc:Work
         rdf:about="">
        <dc:format>image/svg+xml</dc:format>
        <dc:type
           rdf:resource="http://purl.org/dc/dcmitype/StillImage" />
        <dc:title></dc:title>
      </cc:Work>
    </rdf:RDF>
  </metadata>
  <g
     inkscape:label="Layer 1"
     inkscape:groupmode="layer"
     id="layer1"
     transform="translate(0,-956.36218)">
    <g
       id="g6971">
      <rect
         transform="translate(0,-7.8515622e-6)"
         y="964.36218"
         x="8"
         height="80"
         width="80"
         id="rect9283"
         style="fill:#000000;fill-opacity:1;stroke:none;filter:url(#filter6279-2)"
         rx="5"
         ry="5" />
      <rect
         ry="5"
         rx="5"
         style="fill:url(#linearGradient9181);fill-opacity:1;stroke:none"
         id="rect9285"
         width="80"
         height="80"
         x="8"
         y="964.36218" />
      <g
         id="layer4"
         style="display:inline"
         transform="translate(0,956.36218)">
        <rect
           style="opacity:0.5;fill:url(#linearGradient3172);fill-opacity:1;fill-rule:nonzero;stroke:#ffffff;stroke-width:0.5;stroke-linecap:round;stroke-linejoin:miter;stroke-miterlimit:4;stroke-opacity:1;stroke-dasharray:none;stroke-dashoffset:0;display:inline;filter:url(#filter3794-04)"
           id="rect3171"
           clip-path="url(#clipPath3613-66)"
           y="15"
           x="15"
           ry="12"
           rx="12"
           height="66"
           width="66" />
      </g>
      <g
         style="display:inline"
         id="layer3"
         transform="matrix(0.63028985,0,0,0.63028985,16.273914,977.92994)">
        <g
           transform="matrix(1.04,0,0,1.04,-2.0134288,-0.94763762)"
           id="g6917">
          <path
             d="m 90,46.84375 c -4.526662,2.457077 -8.946706,4.898258 -12.9375,7.625 -5.360923,3.662891 -9.118267,7.330519 -10.84375,10.125 -0.0078,0.01278 -0.02345,0.01851 -0.03125,0.03125 -1.050372,0.629696 -8.581418,5.17354 -12.40625,7.8125 -4.175684,2.88103 -11.21875,10.25 -11.21875,10.25 l 0.8125,0.5 C 50.296394,79.960341 64.21875,76.75 64.21875,76.75 l 0.46875,-0.125 -0.125,-0.3125 c 0,0 -0.06096,-0.130401 0,-0.53125 0.06098,-0.400847 0.267268,-1.031355 0.78125,-1.875 1.116828,-1.833167 3.938519,-3.767858 5.84375,-4.9375 4.394188,-1.084722 10.610709,-3.97765 16.40625,-7.9375 C 88.416922,60.468811 89.206604,59.8947 90,59.3125 l 0,-12.46875 z"
             inkscape:connector-curvature="0"
             id="path10456"
             style="opacity:0.3;fill:url(#linearGradient6930);fill-opacity:1;stroke:none" />
          <path
             d="m 90,15.625 c -7.159846,8.93153 -15.447803,16.153769 -21.8125,24.71875 -4.155827,5.592495 -6.804396,10.995428 -7.78125,14.9375 -0.0044,0.01801 -0.02686,0.04455 -0.03125,0.0625 -0.833902,0.97909 -6.790683,7.975987 -9.75,12 -3.230781,4.393139 -8.125,15.125 -8.125,15.125 l 0.875,0.5625 c 5.700905,-5.22894 17.875,-11.375 17.875,-11.375 L 61.65625,71.4375 61.5,71.03125 c 0,0 -0.09207,-0.178891 -0.125,-0.71875 -0.03294,-0.539858 -0.0072,-1.404602 0.28125,-2.59375 C 62.28307,65.13484 64.493548,62.187348 66,60.375 69.83462,58.333623 74.944757,53.67089 79.4375,47.625 83.299307,42.428166 86.519301,36.783917 90,30.96875 L 90,15.625 z"
             inkscape:connector-curvature="0"
             id="path10430"
             style="opacity:0.2;fill:url(#linearGradient6932);fill-opacity:1;stroke:none" />
          <path
             d="M 71.440927,41.872208 C 66.467416,52.005602 59.449178,59.212086 56.894083,57.839372 54.168688,56.375122 55.48627,47.036106 60.589469,36.638483 65.691468,26.243298 73.641414,17.23361 78.866448,5.6272039 c 0.995766,-2.2119026 2.9241,-5.47971613 5.661833,-4.0917255 2.83771,1.4386772 2.067811,4.1308529 0.568563,7.1888151 C 79.307055,20.533515 76.414446,31.738809 71.440927,41.872208 z"
             inkscape:connector-curvature="0"
             id="path10375"
             style="fill:url(#linearGradient6934);fill-opacity:1;stroke:#000000" />
          <path
             inkscape:connector-curvature="0"
             d="m 60.457628,78.05204 a 5.4800777,7.7781744 0 1 1 -10.960155,0 5.4800777,7.7781744 0 1 1 10.960155,0 z"
             transform="matrix(0.63302987,-0.16954844,0.23046163,0.42762767,6.3123365,29.06751)"
             id="path4343"
             style="fill:none;stroke:#2e3436;stroke-width:3.53770852;stroke-linecap:round;stroke-miterlimit:4;stroke-opacity:1;stroke-dasharray:none" />
          <path
             d="m 42.944049,82.580725 c 0,0 2.9568,-11.53222 5.258149,-16.279482 2.301347,-4.747261 7.742418,-14.190941 7.742418,-14.190941 0,0 1.569862,-2.348209 4.104002,-1.099201 2.53414,1.249007 1.802655,3.648061 1.802655,3.648061 0,0 -3.821624,5.755643 -4.139564,10.196655 -0.183273,2.559974 0.416839,3.606144 0.416839,3.606144 0,0 -10.524782,7.913669 -15.184499,14.118764 z"
             inkscape:connector-curvature="0"
             id="path4341"
             style="fill:url(#linearGradient6936);fill-opacity:1;fill-rule:evenodd;stroke:#c17d11;stroke-width:1;stroke-linecap:butt;stroke-linejoin:miter;stroke-miterlimit:4;stroke-opacity:1;stroke-dasharray:none" />
          <path
             inkscape:connector-curvature="0"
             d="m -27.930719,71.864853 a 1.237437,3.0052039 0 1 1 -2.474874,0 1.237437,3.0052039 0 1 1 2.474874,0 z"
             transform="matrix(0.49816294,0.21338024,-0.22864746,0.45310119,80.994343,39.610695)"
             id="path6537"
             style="fill:#000000;fill-opacity:0.6;stroke:#c17d11;stroke-width:0.63874686;stroke-linecap:round;stroke-miterlimit:4;stroke-opacity:1;stroke-dasharray:none" />
          <path
             d="m 43.003422,82.289431 c 2.086404,-5.378172 3.575502,-9.907884 6.18441,-14.875218"
             inkscape:connector-curvature="0"
             id="path8007"
             style="fill:#c17d11;fill-opacity:1;fill-rule:evenodd;stroke:#c17d11;stroke-width:0.34297702;stroke-linecap:butt;stroke-linejoin:miter;stroke-miterlimit:4;stroke-opacity:1;stroke-dasharray:none" />
          <path
             d="m 59.6875,52.65625 c -0.218866,0.177715 -0.364551,0.362516 -0.375,0.375 -6.1e-5,1.07e-4 -0.03118,-1.23e-4 -0.03125,0 -0.07544,0.130951 -5.410002,9.430862 -7.625,14 -0.754704,1.556817 -1.65246,4.069602 -2.46875,6.65625 3.376613,-3.039337 6.273524,-5.217456 7.0625,-5.8125 -0.150656,-0.740855 -0.255031,-1.776466 -0.15625,-3.15625 0.188582,-2.634122 1.305989,-5.290338 2.34375,-7.375 0.939337,-1.886948 1.678929,-2.997095 1.84375,-3.25 0.011,-0.04406 0.05429,-0.211139 0,-0.53125 -0.05032,-0.296727 -0.105839,-0.58654 -0.59375,-0.90625 z"
             inkscape:connector-curvature="0"
             id="path10381"
             style="fill:url(#linearGradient6938);fill-opacity:1;fill-rule:evenodd;stroke:none" />
          <path
             inkscape:connector-curvature="0"
             d="m 78.034285,41.7043 a 18.182745,2.2728431 0 1 1 -36.36549,0 18.182745,2.2728431 0 1 1 36.36549,0 z"
             transform="matrix(0.46309937,-0.88630637,0.88630637,0.46309937,0.97992031,69.376951)"
             id="path10408"
             style="fill:url(#radialGradient6940);fill-opacity:1;stroke:none" />
          <path
             d="m 66.65625,29.34375 c -0.77115,0 -1.522939,0.133966 -2.25,0.34375 -0.34567,0.578188 -0.664891,1.168334 -1,1.75 0.410501,-0.06213 0.827002,-0.09375 1.25,-0.09375 3.561545,0 6.757094,2.358001 8.84375,6.03125 0.439471,-1.027772 0.86359,-2.078075 1.28125,-3.125 -2.065732,-3.019569 -4.942489,-4.90625 -8.125,-4.90625 z"
             inkscape:connector-curvature="0"
             id="path10418"
             style="opacity:0.6;fill:#ffffff;fill-opacity:1;stroke:none" />
          <path
             d="M 24.15625,5.9999997 C 40.185121,27.143001 6.5735019,41.380202 11.09375,58.25 15.494305,74.673093 35.367001,73.845561 42.53125,82.78125 37.586125,73.177898 30.822843,73.663263 28.15625,64.65625 21.375792,41.753735 91.859602,30.312441 68.96875,5.9999997 l -44.8125,0 z"
             inkscape:connector-curvature="0"
             id="path8185"
             style="fill:url(#linearGradient6942);fill-opacity:1;stroke:none;display:inline" />
        </g>
      </g>
    </g>
  </g>
</svg>
