<?xml version="1.0" encoding="UTF-8" standalone="no"?>
<!-- Created with Inkscape (http://www.inkscape.org/) -->

<svg
   xmlns:dc="http://purl.org/dc/elements/1.1/"
   xmlns:cc="http://creativecommons.org/ns#"
   xmlns:rdf="http://www.w3.org/1999/02/22-rdf-syntax-ns#"
   xmlns:svg="http://www.w3.org/2000/svg"
   xmlns="http://www.w3.org/2000/svg"
   xmlns:xlink="http://www.w3.org/1999/xlink"
   xmlns:sodipodi="http://sodipodi.sourceforge.net/DTD/sodipodi-0.dtd"
   xmlns:inkscape="http://www.inkscape.org/namespaces/inkscape"
   width="96"
   height="96"
   id="svg6307"
   version="1.1"
   inkscape:version="0.48.1 r9760"
   sodipodi:docname="audio-x-mpeg.svg">
  <defs
     id="defs6309">
    <filter
       color-interpolation-filters="sRGB"
       inkscape:collect="always"
       id="filter6279-2">
      <feGaussianBlur
         inkscape:collect="always"
         stdDeviation="0.8"
         id="feGaussianBlur6281-1" />
    </filter>
    <linearGradient
       inkscape:collect="always"
       xlink:href="#linearGradient3700-88"
       id="linearGradient6162"
       gradientUnits="userSpaceOnUse"
       gradientTransform="translate(0,-7.8515622e-6)"
       x1="48"
       y1="1052.3622"
       x2="48"
       y2="902.36218" />
    <linearGradient
       id="linearGradient3700-88">
      <stop
         id="stop3702-89"
         style="stop-color:#e6e6e6;stop-opacity:1"
         offset="0" />
      <stop
         id="stop3704-77"
         style="stop-color:#f5f5f5;stop-opacity:1"
         offset="1" />
    </linearGradient>
    <linearGradient
       inkscape:collect="always"
       xlink:href="#linearGradient3737-9-6"
       id="linearGradient7079"
       gradientUnits="userSpaceOnUse"
       x1="48"
       y1="20.220806"
       x2="48"
       y2="138.66119" />
    <linearGradient
       id="linearGradient3737-9-6">
      <stop
         id="stop3739-2"
         style="stop-color:#ffffff;stop-opacity:1"
         offset="0" />
      <stop
         id="stop3741-1-9"
         style="stop-color:#ffffff;stop-opacity:0"
         offset="1" />
    </linearGradient>
    <clipPath
       id="clipPath3613-33">
      <rect
         width="84"
         height="84"
         rx="6"
         ry="6"
         x="6"
         y="6"
         id="rect3615-8"
         style="fill:#ffffff;fill-opacity:1;fill-rule:nonzero;stroke:none" />
    </clipPath>
    <filter
       x="-0.192"
       y="-0.192"
       width="1.3839999"
       height="1.3839999"
       color-interpolation-filters="sRGB"
       id="filter3794-05">
      <feGaussianBlur
         id="feGaussianBlur3796-664"
         stdDeviation="5.28" />
    </filter>
    <radialGradient
       cx="61"
       cy="24.63372"
       r="19.007999"
       fx="61"
       fy="24.63372"
       id="radialGradient4110-3"
       xlink:href="#linearGradient3798-9"
       gradientUnits="userSpaceOnUse"
       gradientTransform="matrix(1.2626263,-0.2104377,0.09520749,0.57124497,-18.365519,22.764811)" />
    <linearGradient
       id="linearGradient3798-9">
      <stop
         id="stop3800-7"
         style="stop-color:#0a85ff;stop-opacity:1"
         offset="0" />
      <stop
         id="stop3802-2"
         style="stop-color:#006ad3;stop-opacity:0"
         offset="1" />
    </linearGradient>
    <filter
       color-interpolation-filters="sRGB"
       id="filter3810-7">
      <feGaussianBlur
         id="feGaussianBlur3812-6-2"
         stdDeviation="0.42" />
    </filter>
    <radialGradient
       cx="41.752941"
       cy="36.95731"
       r="19"
       fx="41.752941"
       fy="36.95731"
       id="radialGradient4112-9"
       xlink:href="#linearGradient3816-0"
       gradientUnits="userSpaceOnUse"
       gradientTransform="matrix(3.3630994,-0.59089075,0.30096298,1.7129535,-109.78914,2.6805672)" />
    <linearGradient
       id="linearGradient3816-0">
      <stop
         id="stop3818-1"
         style="stop-color:#51acff;stop-opacity:1"
         offset="0" />
      <stop
         id="stop3824-4-1"
         style="stop-color:#6abaee;stop-opacity:0.67450982"
         offset="0.5" />
      <stop
         id="stop3820-9"
         style="stop-color:#318fe4;stop-opacity:0"
         offset="1" />
    </linearGradient>
    <linearGradient
       x1="80"
       y1="37"
       x2="77"
       y2="37"
       id="linearGradient4114-6"
       xlink:href="#linearGradient3860-0"
       gradientUnits="userSpaceOnUse"
       gradientTransform="translate(4.4049615e-7,3)" />
    <linearGradient
       id="linearGradient3860-0">
      <stop
         id="stop3862-6"
         style="stop-color:#002767;stop-opacity:1"
         offset="0" />
      <stop
         id="stop3868-9"
         style="stop-color:#003180;stop-opacity:0.36434108"
         offset="0.5" />
      <stop
         id="stop3864-9-7"
         style="stop-color:#002767;stop-opacity:0"
         offset="1" />
    </linearGradient>
    <linearGradient
       x1="52"
       y1="10"
       x2="51.631207"
       y2="8.0840635"
       id="linearGradient4116-8"
       xlink:href="#linearGradient3828-5-8"
       gradientUnits="userSpaceOnUse"
       gradientTransform="translate(4.4049615e-7,3)" />
    <linearGradient
       id="linearGradient3828-5-8">
      <stop
         id="stop3830-2"
         style="stop-color:#a2d7fb;stop-opacity:1"
         offset="0" />
      <stop
         id="stop3832-4"
         style="stop-color:#a2d7fb;stop-opacity:0"
         offset="1" />
    </linearGradient>
    <radialGradient
       cx="40.284538"
       cy="39.106094"
       r="19"
       fx="40.284538"
       fy="39.106094"
       id="radialGradient4118-2"
       xlink:href="#linearGradient3816-0"
       gradientUnits="userSpaceOnUse"
       gradientTransform="matrix(3.3729562,-0.5317483,0.18746453,1.1891145,-71.604806,16.442362)" />
    <linearGradient
       id="linearGradient6235">
      <stop
         id="stop6237"
         style="stop-color:#51acff;stop-opacity:1"
         offset="0" />
      <stop
         id="stop6239"
         style="stop-color:#6abaee;stop-opacity:0.67450982"
         offset="0.5" />
      <stop
         id="stop6241"
         style="stop-color:#318fe4;stop-opacity:0"
         offset="1" />
    </linearGradient>
    <radialGradient
       cx="46"
       cy="50.608784"
       r="1.5"
       fx="46"
       fy="50.608784"
       id="radialGradient4120-9"
       xlink:href="#linearGradient3879-2-4"
       gradientUnits="userSpaceOnUse"
       gradientTransform="matrix(2.6666667,-6.9565204e-8,8.0000011e-7,30.666677,-76.666707,-1477.0032)" />
    <linearGradient
       id="linearGradient3879-2-4">
      <stop
         id="stop3881-1"
         style="stop-color:#002767;stop-opacity:1"
         offset="0" />
      <stop
         id="stop3883-8"
         style="stop-color:#003180;stop-opacity:0.36434108"
         offset="0.5" />
      <stop
         id="stop3885-8"
         style="stop-color:#002767;stop-opacity:0"
         offset="1" />
    </linearGradient>
    <radialGradient
       cx="39.768967"
       cy="69.843796"
       r="11"
       fx="39.768967"
       fy="69.843796"
       id="radialGradient4122-5"
       xlink:href="#linearGradient3958-2"
       gradientUnits="userSpaceOnUse"
       gradientTransform="matrix(1.1597853,-0.1400901,0.07244171,0.58349276,-11.414104,33.34065)" />
    <linearGradient
       id="linearGradient3958-2">
      <stop
         id="stop3960-9"
         style="stop-color:#01a3f1;stop-opacity:1"
         offset="0" />
      <stop
         id="stop3962-3"
         style="stop-color:#01a3f1;stop-opacity:0"
         offset="1" />
    </linearGradient>
    <linearGradient
       x1="40"
       y1="70"
       x2="41.884232"
       y2="62.967953"
       id="linearGradient4124-7"
       xlink:href="#linearGradient3934-2"
       gradientUnits="userSpaceOnUse" />
    <linearGradient
       id="linearGradient3934-2">
      <stop
         id="stop3936-2-1"
         style="stop-color:#003d9e;stop-opacity:1"
         offset="0" />
      <stop
         id="stop3938-6"
         style="stop-color:#003d9e;stop-opacity:0"
         offset="1" />
    </linearGradient>
    <linearGradient
       x1="40"
       y1="69"
       x2="42"
       y2="64"
       id="linearGradient4126-6"
       xlink:href="#linearGradient3934-2"
       gradientUnits="userSpaceOnUse" />
    <linearGradient
       id="linearGradient6257">
      <stop
         id="stop6259"
         style="stop-color:#003d9e;stop-opacity:1"
         offset="0" />
      <stop
         id="stop6261"
         style="stop-color:#003d9e;stop-opacity:0"
         offset="1" />
    </linearGradient>
    <linearGradient
       x1="31"
       y1="61"
       x2="36"
       y2="70"
       id="linearGradient4128-2"
       xlink:href="#linearGradient3894-2"
       gradientUnits="userSpaceOnUse"
       gradientTransform="translate(4.4049615e-7,3)" />
    <linearGradient
       id="linearGradient3894-2">
      <stop
         id="stop3896-5"
         style="stop-color:#93ddf7;stop-opacity:1"
         offset="0" />
      <stop
         id="stop3898-2"
         style="stop-color:#93ddf7;stop-opacity:0"
         offset="1" />
    </linearGradient>
    <radialGradient
       cx="39.768967"
       cy="69.843796"
       r="11"
       fx="39.768967"
       fy="69.843796"
       id="radialGradient4130-6"
       xlink:href="#linearGradient3958-2"
       gradientUnits="userSpaceOnUse"
       gradientTransform="matrix(1.1597853,-0.1400901,0.07244171,0.58349276,-11.414104,33.34065)" />
    <linearGradient
       id="linearGradient6268">
      <stop
         id="stop6270"
         style="stop-color:#01a3f1;stop-opacity:1"
         offset="0" />
      <stop
         id="stop6272"
         style="stop-color:#01a3f1;stop-opacity:0"
         offset="1" />
    </linearGradient>
    <linearGradient
       x1="40"
       y1="70"
       x2="41.884232"
       y2="62.967953"
       id="linearGradient4132-1"
       xlink:href="#linearGradient3934-2"
       gradientUnits="userSpaceOnUse"
       gradientTransform="translate(34,-5.0000001)" />
    <linearGradient
       id="linearGradient6275">
      <stop
         id="stop6277"
         style="stop-color:#003d9e;stop-opacity:1"
         offset="0" />
      <stop
         id="stop6279"
         style="stop-color:#003d9e;stop-opacity:0"
         offset="1" />
    </linearGradient>
    <linearGradient
       x1="40"
       y1="69"
       x2="42"
       y2="64"
       id="linearGradient4134-1"
       xlink:href="#linearGradient3934-2"
       gradientUnits="userSpaceOnUse"
       gradientTransform="translate(34,-5.0000001)" />
    <linearGradient
       id="linearGradient6282">
      <stop
         id="stop6284"
         style="stop-color:#003d9e;stop-opacity:1"
         offset="0" />
      <stop
         id="stop6286"
         style="stop-color:#003d9e;stop-opacity:0"
         offset="1" />
    </linearGradient>
    <linearGradient
       x1="31"
       y1="61"
       x2="36"
       y2="70"
       id="linearGradient4136-2"
       xlink:href="#linearGradient3894-2"
       gradientUnits="userSpaceOnUse"
       gradientTransform="translate(34,-2.0000001)" />
    <linearGradient
       id="linearGradient6289">
      <stop
         id="stop6291"
         style="stop-color:#93ddf7;stop-opacity:1"
         offset="0" />
      <stop
         id="stop6293"
         style="stop-color:#93ddf7;stop-opacity:0"
         offset="1" />
    </linearGradient>
  </defs>
  <sodipodi:namedview
     id="base"
     pagecolor="#ffffff"
     bordercolor="#666666"
     borderopacity="1.0"
     inkscape:pageopacity="0.0"
     inkscape:pageshadow="2"
     inkscape:zoom="3.959798"
     inkscape:cx="74.882914"
     inkscape:cy="47.186405"
     inkscape:document-units="px"
     inkscape:current-layer="layer1"
     showgrid="false"
     inkscape:window-width="1280"
     inkscape:window-height="725"
     inkscape:window-x="0"
     inkscape:window-y="25"
     inkscape:window-maximized="1" />
  <metadata
     id="metadata6312">
    <rdf:RDF>
      <cc:Work
         rdf:about="">
        <dc:format>image/svg+xml</dc:format>
        <dc:type
           rdf:resource="http://purl.org/dc/dcmitype/StillImage" />
        <dc:title></dc:title>
      </cc:Work>
    </rdf:RDF>
  </metadata>
  <g
     inkscape:label="Layer 1"
     inkscape:groupmode="layer"
     id="layer1"
     transform="translate(0,-956.36218)">
    <g
       id="g6334">
      <rect
         transform="translate(0,-7.8515622e-6)"
         y="964.36218"
         x="8"
         height="80"
         width="80"
         id="rect9283"
         style="fill:#000000;fill-opacity:1;stroke:none;filter:url(#filter6279-2)"
         rx="5"
         ry="5" />
      <rect
         ry="5"
         rx="5"
         style="fill:url(#linearGradient6162);fill-opacity:1;stroke:none"
         id="rect9285"
         width="80"
         height="80"
         x="8"
         y="964.36218" />
      <g
         id="layer4"
         style="display:inline"
         transform="translate(0,956.36218)">
        <rect
           style="opacity:0.5;fill:url(#linearGradient7079);fill-opacity:1;fill-rule:nonzero;stroke:#ffffff;stroke-width:0.5;stroke-linecap:round;stroke-linejoin:miter;stroke-miterlimit:4;stroke-opacity:1;stroke-dasharray:none;stroke-dashoffset:0;display:inline;filter:url(#filter3794-05)"
           id="rect3171"
           clip-path="url(#clipPath3613-33)"
           y="15"
           x="15"
           ry="12"
           rx="12"
           height="66"
           width="66" />
      </g>
      <g
         id="g3123"
         style="display:inline"
         transform="matrix(0.72424099,0,0,0.72424099,15.408437,969.52594)">
        <path
           style="font-size:15.8311348px;font-style:normal;font-variant:normal;font-weight:bold;font-stretch:normal;text-align:start;line-height:125%;writing-mode:lr-tb;text-anchor:start;fill:#666666;fill-opacity:1;stroke:none;font-family:BabelSans;-inkscape-font-specification:BabelSans Medium"
           id="path3844"
           inkscape:connector-curvature="0"
           d="m 43.331682,83.79419 0,-11.746702 -1.899736,0 c -0.189981,0.686026 -0.40634,1.456474 -0.649077,2.311345 -0.232196,0.844336 -0.464386,1.688662 -0.69657,2.532982 -0.232196,0.833779 -0.453831,1.614781 -0.664907,2.343008 -0.200533,0.717682 -0.364122,1.292879 -0.490765,1.725594 -0.08444,-0.284958 -0.184702,-0.63852 -0.300792,-1.060686 -0.1161,-0.432714 -0.242749,-0.90237 -0.379947,-1.408971 -0.137208,-0.506591 -0.284965,-1.039572 -0.443272,-1.598945 -0.147761,-0.569914 -0.300795,-1.134557 -0.459103,-1.693931 -0.147761,-0.569912 -0.295518,-1.124001 -0.443272,-1.66227 -0.137206,-0.538248 -0.263855,-1.034289 -0.379947,-1.488126 l -2.08971,0 0,11.746702 1.519789,0 0,-8.311346 2.23219,8.311346 1.408971,0 2.184697,-8.010554 0,8.010554 1.551451,0" />
        <path
           style="font-size:15.8311348px;font-style:normal;font-variant:normal;font-weight:bold;font-stretch:normal;text-align:start;line-height:125%;writing-mode:lr-tb;text-anchor:start;fill:#666666;fill-opacity:1;stroke:none;font-family:BabelSans;-inkscape-font-specification:BabelSans Medium"
           id="path3846"
           inkscape:connector-curvature="0"
           d="m 53.497143,75.498675 c -8e-6,-0.274398 -0.02112,-0.543527 -0.06332,-0.807388 -0.04223,-0.274397 -0.116103,-0.543526 -0.221636,-0.807388 -0.158319,-0.411599 -0.35357,-0.738775 -0.585752,-0.98153 -0.221643,-0.242733 -0.474941,-0.427429 -0.759895,-0.55409 -0.284966,-0.126637 -0.596311,-0.205793 -0.934037,-0.237467 -0.337736,-0.0422 -0.691297,-0.06331 -1.060686,-0.06332 l -3.530343,0 0,11.746702 1.519789,0 0,-4.701847 1.693932,0 c 0.232185,4e-6 0.496037,-0.01055 0.791556,-0.03166 0.306064,-0.03166 0.606855,-0.08443 0.902375,-0.158311 0.295509,-0.08443 0.575192,-0.195246 0.83905,-0.332454 0.263846,-0.137198 0.474927,-0.316617 0.633246,-0.538258 0.274398,-0.369388 0.469649,-0.770443 0.585752,-1.203167 0.126641,-0.443264 0.189965,-0.886535 0.189973,-1.329815 m -1.53562,0.01583 c -6e-6,0.664915 -0.211088,1.171511 -0.633245,1.519789 -0.411615,0.337737 -0.976258,0.506603 -1.693932,0.506597 l -1.757256,0 0,-3.989446 2.121372,0 c 0.147753,1e-5 0.321895,0.0053 0.522428,0.01583 0.211076,10e-6 0.385219,0.02639 0.522427,0.07916 0.16886,0.06333 0.31134,0.163599 0.427441,0.300792 0.116089,0.126659 0.211076,0.274416 0.28496,0.443272 0.07387,0.168874 0.126643,0.353571 0.158312,0.554089 0.03166,0.189983 0.04749,0.379956 0.04749,0.569921" />
        <path
           style="font-size:15.8311348px;font-style:normal;font-variant:normal;font-weight:bold;font-stretch:normal;text-align:start;line-height:125%;writing-mode:lr-tb;text-anchor:start;fill:#666666;fill-opacity:1;stroke:none;font-family:BabelSans;-inkscape-font-specification:BabelSans Medium"
           id="path3848"
           inkscape:connector-curvature="0"
           d="m 61.224911,80.295509 c -7e-6,-0.263849 -0.02639,-0.532978 -0.07916,-0.807388 -0.04222,-0.284956 -0.121378,-0.548808 -0.237467,-0.791557 -0.105547,-0.253293 -0.253304,-0.485482 -0.443272,-0.69657 -0.179425,-0.211076 -0.40106,-0.379941 -0.664907,-0.506596 0.348279,-0.284954 0.601577,-0.627961 0.759894,-1.029024 0.16886,-0.401048 0.253292,-0.817934 0.253298,-1.250659 -6e-6,-0.390493 -0.06333,-0.775717 -0.189973,-1.155673 -0.116101,-0.379937 -0.290243,-0.722945 -0.522428,-1.029024 -0.232195,-0.306058 -0.522432,-0.554078 -0.870712,-0.744063 -0.337735,-0.189962 -0.728236,-0.284949 -1.171504,-0.284961 -0.432721,1.2e-5 -0.812668,0.07917 -1.139842,0.237467 -0.327179,0.158323 -0.606862,0.374682 -0.83905,0.649077 -0.221637,0.274417 -0.406333,0.596316 -0.55409,0.965699 -0.147758,0.369403 -0.253298,0.759904 -0.316622,1.171504 l 1.393139,0.316623 c 0.08443,-0.580466 0.232188,-1.0554 0.443272,-1.424802 0.211079,-0.379938 0.54881,-0.569911 1.013193,-0.569921 0.211078,1e-5 0.395774,0.05278 0.55409,0.158311 0.158307,0.095 0.290233,0.221646 0.395778,0.379947 0.116091,0.158321 0.200523,0.343018 0.253298,0.55409 0.05277,0.200537 0.07915,0.406341 0.07916,0.617414 -5e-6,0.591037 -0.158316,1.05014 -0.474934,1.377309 -0.306073,0.327184 -0.807392,0.490772 -1.503958,0.490765 l -0.03166,1.361478 c 0.232187,-0.0211 0.411606,-0.03693 0.538258,-0.04749 0.126646,-0.01055 0.248018,-0.01582 0.364116,-0.01583 0.253295,6e-6 0.47493,0.06333 0.664908,0.189974 0.200523,0.126654 0.364112,0.290242 0.490765,0.490765 0.126644,0.200532 0.221631,0.432722 0.284961,0.69657 0.06332,0.253302 0.09498,0.5066 0.09499,0.759895 -5e-6,0.274409 -0.03694,0.548815 -0.110818,0.823219 -0.07388,0.263854 -0.184701,0.506598 -0.332453,0.728232 -0.137208,0.221637 -0.31135,0.401056 -0.522428,0.538258 -0.200531,0.137204 -0.437998,0.205806 -0.712401,0.205805 -0.253301,10e-7 -0.46966,-0.05805 -0.649076,-0.174142 -0.179422,-0.116094 -0.332457,-0.274405 -0.459103,-0.474934 -0.116097,-0.200526 -0.216361,-0.432716 -0.300792,-0.69657 -0.07388,-0.26385 -0.131928,-0.54881 -0.174142,-0.854882 l -1.408971,0.221636 c 0.03166,0.453829 0.121371,0.886546 0.269129,1.298153 0.147756,0.401057 0.343007,0.754619 0.585752,1.060686 0.253297,0.295515 0.554088,0.527705 0.902375,0.69657 0.358836,0.179419 0.770445,0.269129 1.234828,0.26913 0.517147,-10e-7 0.970972,-0.110819 1.361478,-0.332454 0.390496,-0.221636 0.717672,-0.506596 0.98153,-0.854882 0.263846,-0.348283 0.459097,-0.744061 0.585752,-1.187335 0.137197,-0.443269 0.205798,-0.88654 0.205805,-1.329815" />
        <g
           style="display:inline"
           id="g4093"
           transform="matrix(0.73972603,0,0,0.73972603,6.534248,7.5616441)">
          <path
             style="fill:#0046b5;fill-opacity:1;stroke:none;display:inline"
             id="path3011"
             inkscape:connector-curvature="0"
             d="M 80,5.9999999 40,13 40,62.4375 c -2.319276,-0.626158 -5.061972,-0.588893 -7.78125,0.28125 -5.876605,1.880457 -9.378261,6.887462 -7.843749,11.1875 1.534512,4.300038 7.529643,6.255457 13.406249,4.375 C 42.801019,76.674972 46.069487,72.780254 45.96875,69 L 46,69 46,29 74,24 74,57.4375 c -2.319276,-0.626158 -5.061972,-0.588893 -7.78125,0.28125 -5.876606,1.880457 -9.378262,6.887462 -7.84375,11.1875 1.534512,4.300038 7.529644,6.255457 13.40625,4.375 C 76.801019,71.674972 80.069487,67.780254 79.96875,64 L 80,64 80,5.9999999 z" />
          <path
             style="fill:url(#radialGradient4110-3);fill-opacity:1;stroke:none;display:inline;filter:url(#filter3810-7)"
             id="path3796"
             inkscape:connector-curvature="0"
             d="M 42,16 42,29 78,22 78,8.9999999 42,16 z" />
          <path
             style="fill:url(#radialGradient4112-9);fill-opacity:1;stroke:none;display:inline"
             id="path3814"
             inkscape:connector-curvature="0"
             d="M 79,7.9999999 41,15 41,62.75 c 0.722607,0.272294 1.402627,0.590247 2,1 L 43,30 c 0,-4 0.417188,-5.500626 4,-7 10.867162,-4.547809 27,-2 32,-15.0000001 z" />
          <path
             style="fill:url(#linearGradient4114-6);fill-opacity:1;stroke:none;display:inline"
             id="path3850"
             inkscape:connector-curvature="0"
             d="M 80,5.9999999 77,6.5312499 77,70.25 C 78.916539,68.443002 80.027571,66.207324 79.96875,64 L 80,64 80,5.9999999 z" />
          <path
             style="fill:url(#linearGradient4116-8);fill-opacity:1;stroke:none;display:inline"
             id="path3826"
             inkscape:connector-curvature="0"
             d="m 40,13 1,2 38,-7.0000001 1,-2 L 40,13 z" />
          <path
             style="fill:url(#radialGradient4118-2);fill-opacity:1;stroke:none;display:inline"
             id="path3841"
             inkscape:connector-curvature="0"
             d="M 77.0625,23.4375 75,23.78125 75,57.75 c 0.722607,0.272294 1.402627,0.590247 2,1 L 77,25 c 0,-0.579491 0.03663,-1.080328 0.0625,-1.5625 z" />
          <path
             style="fill:url(#radialGradient4120-9);fill-opacity:1;stroke:none;display:inline"
             id="path3870"
             inkscape:connector-curvature="0"
             d="M 46,29 43,29.53125 43,75.25 C 44.916539,73.443002 46.027571,71.207324 45.96875,69 L 46,69 46,29 z" />
          <path
             inkscape:connector-curvature="0"
             style="color:#000000;fill:url(#radialGradient4122-5);fill-opacity:1;fill-rule:nonzero;stroke:none;stroke-width:1.5;marker:none;visibility:visible;display:inline;overflow:visible;enable-background:accumulate"
             id="path3906"
             transform="matrix(0.9673215,-0.30953355,0.34730992,0.97323843,-26.26801,19.620844)"
             d="m 51,65 a 11,8 0 1 1 -22,0 11,8 0 1 1 22,0 z" />
          <path
             style="opacity:0.2;color:#000000;fill:url(#linearGradient4124-7);fill-opacity:1;fill-rule:nonzero;stroke:none;stroke-width:1.5;marker:none;visibility:visible;display:inline;overflow:visible;enable-background:accumulate"
             id="path3927"
             inkscape:connector-curvature="0"
             d="m 36.59375,62 c -1.413615,0.01337 -2.905848,0.248636 -4.375,0.71875 -5.876605,1.880457 -9.378261,6.887462 -7.843749,11.1875 1.534512,4.300038 7.529643,6.255457 13.406249,4.375 5.876606,-1.880457 9.378262,-6.887462 7.84375,-11.1875 C 44.474116,63.868722 40.834595,61.959906 36.59375,62 z m 0.09375,1.84375 c 1.225586,-0.01097 2.347709,0.174813 3.34375,0.5 1.992081,0.650375 3.312347,1.823394 3.84375,3.3125 0.531403,1.489106 0.260889,3.182456 -0.90625,4.84375 -1.167139,1.661294 -3.221645,3.202202 -5.8125,4.03125 -2.590855,0.829048 -5.195419,0.775375 -7.187499,0.125 -1.992081,-0.650375 -3.312347,-1.823394 -3.84375,-3.3125 -0.531403,-1.489106 -0.260889,-3.182456 0.90625,-4.84375 1.167139,-1.661294 3.221645,-3.202202 5.812499,-4.03125 1.295427,-0.414524 2.618164,-0.614034 3.84375,-0.625 z" />
          <path
             style="opacity:0.5;color:#000000;fill:url(#linearGradient4126-6);fill-opacity:1;fill-rule:nonzero;stroke:none;stroke-width:1.5;marker:none;visibility:visible;display:inline;overflow:visible;enable-background:accumulate"
             id="path3920"
             inkscape:connector-curvature="0"
             d="m 36.59375,62 c -1.413615,0.01337 -2.905848,0.248636 -4.375,0.71875 -5.876605,1.880457 -9.378261,6.887462 -7.843749,11.1875 1.534512,4.300038 7.529643,6.255457 13.406249,4.375 5.876606,-1.880457 9.378262,-6.887462 7.84375,-11.1875 C 44.474116,63.868722 40.834595,61.959906 36.59375,62 z m 0.03125,1.03125 c 1.308148,-0.01099 2.561427,0.173812 3.65625,0.53125 2.189647,0.714875 3.768044,2.055356 4.40625,3.84375 0.638206,1.788394 0.220391,3.767696 -1.0625,5.59375 -1.282891,1.826054 -3.439308,3.433105 -6.1875,4.3125 -2.748192,0.879395 -5.529103,0.839875 -7.718749,0.125 -2.189647,-0.714875 -3.768044,-2.055356 -4.40625,-3.84375 -0.638206,-1.788394 -0.220391,-3.767696 1.0625,-5.59375 1.282891,-1.826054 3.439308,-3.433105 6.187499,-4.3125 1.374096,-0.439698 2.754352,-0.645258 4.0625,-0.65625 z" />
          <path
             style="color:#000000;fill:url(#linearGradient4128-2);fill-opacity:1;fill-rule:nonzero;stroke:none;stroke-width:1.5;marker:none;visibility:visible;display:inline;overflow:visible;enable-background:accumulate"
             id="path3891"
             inkscape:connector-curvature="0"
             d="m 40,65 c 1.220869,2.476881 -1.444191,5.171368 -5.407201,7.124758 -3.963009,1.95339 -7.723257,2.425975 -8.944126,-0.05091 -1.220869,-2.476881 1.002075,-6.068326 4.965085,-8.021716 3.963009,-1.95339 8.165373,-1.529017 9.386242,0.947864 z" />
          <path
             inkscape:connector-curvature="0"
             style="color:#000000;fill:url(#radialGradient4130-6);fill-opacity:1;fill-rule:nonzero;stroke:none;stroke-width:1.5;marker:none;visibility:visible;display:inline;overflow:visible;enable-background:accumulate"
             id="path3966"
             transform="matrix(0.9673215,-0.30953355,0.34730992,0.97323843,7.7319904,14.620844)"
             d="m 51,65 a 11,8 0 1 1 -22,0 11,8 0 1 1 22,0 z" />
          <path
             style="opacity:0.2;color:#000000;fill:url(#linearGradient4132-1);fill-opacity:1;fill-rule:nonzero;stroke:none;stroke-width:1.5;marker:none;visibility:visible;display:inline;overflow:visible;enable-background:accumulate"
             id="path3968"
             inkscape:connector-curvature="0"
             d="m 70.59375,57 c -1.413615,0.01337 -2.905848,0.248636 -4.375,0.71875 -5.876606,1.880457 -9.378262,6.887462 -7.84375,11.1875 1.534512,4.300038 7.529644,6.255457 13.40625,4.375 5.876606,-1.880457 9.378262,-6.887462 7.84375,-11.1875 C 78.474116,58.868722 74.834595,56.959906 70.59375,57 z m 0.09375,1.84375 c 1.225586,-0.01097 2.347709,0.174813 3.34375,0.5 1.992081,0.650375 3.312347,1.823394 3.84375,3.3125 0.531403,1.489106 0.260889,3.182456 -0.90625,4.84375 -1.167139,1.661294 -3.221645,3.202202 -5.8125,4.03125 -2.590855,0.829048 -5.195419,0.775375 -7.1875,0.125 -1.992081,-0.650375 -3.312347,-1.823394 -3.84375,-3.3125 -0.531403,-1.489106 -0.260889,-3.182456 0.90625,-4.84375 1.167139,-1.661294 3.221645,-3.202202 5.8125,-4.03125 1.295427,-0.414524 2.618164,-0.614034 3.84375,-0.625 z" />
          <path
             style="opacity:0.5;color:#000000;fill:url(#linearGradient4134-1);fill-opacity:1;fill-rule:nonzero;stroke:none;stroke-width:1.5;marker:none;visibility:visible;display:inline;overflow:visible;enable-background:accumulate"
             id="path3970"
             inkscape:connector-curvature="0"
             d="m 70.59375,57 c -1.413615,0.01337 -2.905848,0.248636 -4.375,0.71875 -5.876606,1.880457 -9.378262,6.887462 -7.84375,11.1875 1.534512,4.300038 7.529644,6.255457 13.40625,4.375 5.876606,-1.880457 9.378262,-6.887462 7.84375,-11.1875 C 78.474116,58.868722 74.834595,56.959906 70.59375,57 z m 0.03125,1.03125 c 1.308148,-0.01099 2.561427,0.173812 3.65625,0.53125 2.189647,0.714875 3.768044,2.055356 4.40625,3.84375 0.638206,1.788394 0.220391,3.767696 -1.0625,5.59375 -1.282891,1.826054 -3.439308,3.433105 -6.1875,4.3125 -2.748192,0.879395 -5.529103,0.839875 -7.71875,0.125 C 61.529103,71.722625 59.950706,70.382144 59.3125,68.59375 58.674294,66.805356 59.092109,64.826054 60.375,63 c 1.282891,-1.826054 3.439308,-3.433105 6.1875,-4.3125 1.374096,-0.439698 2.754352,-0.645258 4.0625,-0.65625 z" />
          <path
             style="color:#000000;fill:url(#linearGradient4136-2);fill-opacity:1;fill-rule:nonzero;stroke:none;stroke-width:1.5;marker:none;visibility:visible;display:inline;overflow:visible;enable-background:accumulate"
             id="path3972"
             inkscape:connector-curvature="0"
             d="m 74,60 c 1.220869,2.476881 -1.444191,5.171368 -5.407201,7.124758 -3.96301,1.95339 -7.723258,2.425975 -8.944127,-0.05091 -1.220869,-2.476881 1.002075,-6.068326 4.965085,-8.021716 3.96301,-1.95339 8.165374,-1.529017 9.386243,0.947864 z" />
        </g>
      </g>
    </g>
  </g>
</svg>
