<?xml version="1.0" encoding="UTF-8" standalone="no"?>
<!-- Created with Inkscape (http://www.inkscape.org/) -->
<svg id="svg6307" xmlns:rdf="http://www.w3.org/1999/02/22-rdf-syntax-ns#" xmlns="http://www.w3.org/2000/svg" height="96" width="96" version="1.1" xmlns:cc="http://creativecommons.org/ns#" xmlns:xlink="http://www.w3.org/1999/xlink" xmlns:dc="http://purl.org/dc/elements/1.1/">
 <defs id="defs6309">
  <filter id="filter6279-2" color-interpolation-filters="sRGB">
   <feGaussianBlur id="feGaussianBlur6281-1" stdDeviation="0.8"/>
  </filter>
  <linearGradient id="linearGradient6162" y2="902.36" gradientUnits="userSpaceOnUse" x2="48" gradientTransform="translate(0 -.0000078516)" y1="1052.4" x1="48">
   <stop id="stop3702-89" style="stop-color:#e6e6e6" offset="0"/>
   <stop id="stop3704-77" style="stop-color:#f5f5f5" offset="1"/>
  </linearGradient>
  <linearGradient id="linearGradient7079" y2="138.66" gradientUnits="userSpaceOnUse" x2="48" y1="20.221" x1="48">
   <stop id="stop3739-2" style="stop-color:#fff" offset="0"/>
   <stop id="stop3741-1-9" style="stop-color:#fff;stop-opacity:0" offset="1"/>
  </linearGradient>
  <clipPath id="clipPath3613-33">
   <rect id="rect3615-8" style="fill:#fff" rx="6" ry="6" height="84" width="84" y="6" x="6"/>
  </clipPath>
  <filter id="filter3794-05" height="1.384" width="1.384" color-interpolation-filters="sRGB" y="-.192" x="-.192">
   <feGaussianBlur id="feGaussianBlur3796-664" stdDeviation="5.28"/>
  </filter>
  <radialGradient id="radialGradient4110-3" gradientUnits="userSpaceOnUse" cy="24.634" cx="61" gradientTransform="matrix(1.2626 -.21044 .095207 .57124 -18.366 22.765)" r="19.008">
   <stop id="stop3800-7" style="stop-color:#0a85ff" offset="0"/>
   <stop id="stop3802-2" style="stop-color:#006ad3;stop-opacity:0" offset="1"/>
  </radialGradient>
  <filter id="filter3810-7" color-interpolation-filters="sRGB">
   <feGaussianBlur id="feGaussianBlur3812-6-2" stdDeviation="0.42"/>
  </filter>
  <radialGradient id="radialGradient4112-9" xlink:href="#linearGradient3816-0" gradientUnits="userSpaceOnUse" cy="36.957" cx="41.753" gradientTransform="matrix(3.3631 -.59089 .30096 1.713 -109.79 2.6806)" r="19"/>
  <linearGradient id="linearGradient3816-0">
   <stop id="stop3818-1" style="stop-color:#51acff" offset="0"/>
   <stop id="stop3824-4-1" style="stop-color:#6abaee;stop-opacity:.67451" offset=".5"/>
   <stop id="stop3820-9" style="stop-color:#318fe4;stop-opacity:0" offset="1"/>
  </linearGradient>
  <linearGradient id="linearGradient4114-6" y2="37" gradientUnits="userSpaceOnUse" x2="77" gradientTransform="translate(4.405e-7 3)" y1="37" x1="80">
   <stop id="stop3862-6" style="stop-color:#002767" offset="0"/>
   <stop id="stop3868-9" style="stop-color:#003180;stop-opacity:.36434" offset=".5"/>
   <stop id="stop3864-9-7" style="stop-color:#002767;stop-opacity:0" offset="1"/>
  </linearGradient>
  <linearGradient id="linearGradient4116-8" y2="8.0841" gradientUnits="userSpaceOnUse" x2="51.631" gradientTransform="translate(4.405e-7 3)" y1="10" x1="52">
   <stop id="stop3830-2" style="stop-color:#a2d7fb" offset="0"/>
   <stop id="stop3832-4" style="stop-color:#a2d7fb;stop-opacity:0" offset="1"/>
  </linearGradient>
  <radialGradient id="radialGradient4118-2" xlink:href="#linearGradient3816-0" gradientUnits="userSpaceOnUse" cy="39.106" cx="40.285" gradientTransform="matrix(3.373 -.53175 .18746 1.1891 -71.605 16.442)" r="19"/>
  <radialGradient id="radialGradient4120-9" gradientUnits="userSpaceOnUse" cy="50.609" cx="46" gradientTransform="matrix(2.6667 -6.9565e-8 8e-7 30.667 -76.667 -1477)" r="1.5">
   <stop id="stop3881-1" style="stop-color:#002767" offset="0"/>
   <stop id="stop3883-8" style="stop-color:#003180;stop-opacity:.36434" offset=".5"/>
   <stop id="stop3885-8" style="stop-color:#002767;stop-opacity:0" offset="1"/>
  </radialGradient>
  <radialGradient id="radialGradient4122-5" xlink:href="#linearGradient3958-2" gradientUnits="userSpaceOnUse" cy="69.844" cx="39.769" gradientTransform="matrix(1.1598 -.14009 .072442 .58349 -11.414 33.341)" r="11"/>
  <linearGradient id="linearGradient3958-2">
   <stop id="stop3960-9" style="stop-color:#01a3f1" offset="0"/>
   <stop id="stop3962-3" style="stop-color:#01a3f1;stop-opacity:0" offset="1"/>
  </linearGradient>
  <linearGradient id="linearGradient4124-7" y2="62.968" xlink:href="#linearGradient3934-2" gradientUnits="userSpaceOnUse" x2="41.884" y1="70" x1="40"/>
  <linearGradient id="linearGradient3934-2">
   <stop id="stop3936-2-1" style="stop-color:#003d9e" offset="0"/>
   <stop id="stop3938-6" style="stop-color:#003d9e;stop-opacity:0" offset="1"/>
  </linearGradient>
  <linearGradient id="linearGradient4126-6" y2="64" xlink:href="#linearGradient3934-2" gradientUnits="userSpaceOnUse" x2="42" y1="69" x1="40"/>
  <linearGradient id="linearGradient4128-2" y2="70" xlink:href="#linearGradient3894-2" gradientUnits="userSpaceOnUse" x2="36" gradientTransform="translate(4.405e-7 3)" y1="61" x1="31"/>
  <linearGradient id="linearGradient3894-2">
   <stop id="stop3896-5" style="stop-color:#93ddf7" offset="0"/>
   <stop id="stop3898-2" style="stop-color:#93ddf7;stop-opacity:0" offset="1"/>
  </linearGradient>
  <linearGradient id="linearGradient4132-1" y2="62.968" xlink:href="#linearGradient3934-2" gradientUnits="userSpaceOnUse" x2="41.884" gradientTransform="translate(34 -5)" y1="70" x1="40"/>
  <linearGradient id="linearGradient4134-1" y2="64" xlink:href="#linearGradient3934-2" gradientUnits="userSpaceOnUse" x2="42" gradientTransform="translate(34 -5)" y1="69" x1="40"/>
  <linearGradient id="linearGradient4136-2" y2="70" xlink:href="#linearGradient3894-2" gradientUnits="userSpaceOnUse" x2="36" gradientTransform="translate(34 -2)" y1="61" x1="31"/>
 </defs>
 <metadata id="metadata6312">
  <rdf:RDF>
   <cc:Work rdf:about="">
    <dc:format>image/svg+xml</dc:format>
    <dc:type rdf:resource="http://purl.org/dc/dcmitype/StillImage"/>
    <dc:title/>
   </cc:Work>
  </rdf:RDF>
 </metadata>
 <g id="layer1" transform="translate(0 -956.36)">
  <g id="g6334">
   <rect id="rect9283" ry="5" style="filter:url(#filter6279-2)" rx="5" transform="translate(0 -.0000078516)" height="80" width="80" y="964.36" x="8"/>
   <rect id="rect9285" style="fill:url(#linearGradient6162)" rx="5" ry="5" height="80" width="80" y="964.36" x="8"/>
   <g id="layer4" transform="translate(0 956.36)">
    <rect id="rect3171" style="opacity:.5;filter:url(#filter3794-05);stroke:#fff;stroke-linecap:round;stroke-width:.5;fill:url(#linearGradient7079)" clip-path="url(#clipPath3613-33)" rx="12" ry="12" height="66" width="66" y="15" x="15"/>
   </g>
   <g id="g3123" transform="matrix(.72424 0 0 .72424 15.408 969.53)">
    <path id="path3844" d="m43.332 83.794v-11.747h-1.8997c-0.18998 0.68603-0.40634 1.4565-0.64908 2.3113-0.2322 0.84434-0.46439 1.6887-0.69657 2.533-0.2322 0.83378-0.45383 1.6148-0.66491 2.343-0.20053 0.71768-0.36412 1.2929-0.49076 1.7256-0.08444-0.28496-0.1847-0.63852-0.30079-1.0607-0.1161-0.43271-0.24275-0.90237-0.37995-1.409-0.13721-0.50659-0.28496-1.0396-0.44327-1.5989-0.14776-0.56991-0.3008-1.1346-0.4591-1.6939-0.14776-0.56991-0.29552-1.124-0.44327-1.6623-0.13721-0.53825-0.26386-1.0343-0.37995-1.4881h-2.0897v11.747h1.5198v-8.3113l2.2322 8.3113h1.409l2.1847-8.0106v8.0106h1.5515" style="fill:#666"/>
    <path id="path3846" d="m53.497 75.499c-0.000008-0.2744-0.02112-0.54353-0.06332-0.80739-0.04223-0.2744-0.1161-0.54353-0.22164-0.80739-0.15832-0.4116-0.35357-0.73878-0.58575-0.98153-0.22164-0.24273-0.47494-0.42743-0.7599-0.55409-0.28497-0.12664-0.59631-0.20579-0.93404-0.23747-0.33774-0.0422-0.6913-0.06331-1.0607-0.06332h-3.5303v11.747h1.5198v-4.7018h1.6939c0.23218 0.000004 0.49604-0.01055 0.79156-0.03166 0.30606-0.03166 0.60686-0.08443 0.90238-0.15831 0.29551-0.08443 0.57519-0.19525 0.83905-0.33245 0.26385-0.1372 0.47493-0.31662 0.63325-0.53826 0.2744-0.36939 0.46965-0.77044 0.58575-1.2032 0.12664-0.44326 0.18996-0.88654 0.18997-1.3298m-1.5356 0.01583c-0.000006 0.66492-0.21109 1.1715-0.63324 1.5198-0.41162 0.33774-0.97626 0.5066-1.6939 0.5066h-1.7573v-3.9894h2.1214c0.14775 0.00001 0.3219 0.0053 0.52243 0.01583 0.21108 0.00001 0.38522 0.02639 0.52243 0.07916 0.16886 0.06333 0.31134 0.1636 0.42744 0.30079 0.11609 0.12666 0.21108 0.27442 0.28496 0.44327 0.07387 0.16887 0.12664 0.35357 0.15831 0.55409 0.03166 0.18998 0.04749 0.37996 0.04749 0.56992" style="fill:#666"/>
    <path id="path3848" d="m61.225 80.296c-0.000007-0.26385-0.02639-0.53298-0.07916-0.80739-0.04222-0.28496-0.12138-0.54881-0.23747-0.79156-0.10555-0.25329-0.2533-0.48548-0.44327-0.69657-0.17942-0.21108-0.40106-0.37994-0.66491-0.5066 0.34828-0.28495 0.60158-0.62796 0.75989-1.029 0.16886-0.40105 0.25329-0.81793 0.2533-1.2507-0.000006-0.39049-0.06333-0.77572-0.18997-1.1557-0.1161-0.37994-0.29024-0.72294-0.52243-1.029-0.2322-0.30606-0.52243-0.55408-0.87071-0.74406-0.33774-0.18996-0.72824-0.28495-1.1715-0.28496-0.43272 0.000012-0.81267 0.07917-1.1398 0.23747-0.32718 0.15832-0.60686 0.37468-0.83905 0.64908-0.22164 0.27442-0.40633 0.59632-0.55409 0.9657-0.14776 0.3694-0.2533 0.7599-0.31662 1.1715l1.3931 0.31662c0.08443-0.58047 0.23219-1.0554 0.44327-1.4248 0.21108-0.37994 0.54881-0.56991 1.0132-0.56992 0.21108 0.00001 0.39577 0.05278 0.55409 0.15831 0.15831 0.095 0.29023 0.22165 0.39578 0.37995 0.11609 0.15832 0.20052 0.34302 0.2533 0.55409 0.05277 0.20054 0.07915 0.40634 0.07916 0.61741-0.000005 0.59104-0.15832 1.0501-0.47493 1.3773-0.30607 0.32718-0.80739 0.49077-1.504 0.49076l-0.03166 1.3615c0.23219-0.0211 0.41161-0.03693 0.53826-0.04749 0.12665-0.01055 0.24802-0.01582 0.36412-0.01583 0.2533 0.000006 0.47493 0.06333 0.66491 0.18997 0.20052 0.12665 0.36411 0.29024 0.49076 0.49076 0.12664 0.20053 0.22163 0.43272 0.28496 0.69657 0.06332 0.2533 0.09498 0.5066 0.09499 0.7599-0.000005 0.27441-0.03694 0.54882-0.11082 0.82322-0.07388 0.26385-0.1847 0.5066-0.33245 0.72823-0.13721 0.22164-0.31135 0.40106-0.52243 0.53826-0.20053 0.1372-0.438 0.20581-0.7124 0.2058-0.2533 0.000001-0.46966-0.05805-0.64908-0.17414s-0.33246-0.2744-0.4591-0.47493c-0.1161-0.20053-0.21636-0.43272-0.30079-0.69657-0.07388-0.26385-0.13193-0.54881-0.17414-0.85488l-1.409 0.22164c0.03166 0.45383 0.12137 0.88655 0.26913 1.2982 0.14776 0.40106 0.34301 0.75462 0.58575 1.0607 0.2533 0.29552 0.55409 0.5277 0.90238 0.69657 0.35884 0.17942 0.77044 0.26913 1.2348 0.26913 0.51715-0.000001 0.97097-0.11082 1.3615-0.33245 0.3905-0.22164 0.71767-0.5066 0.98153-0.85488 0.26385-0.34828 0.4591-0.74406 0.58575-1.1873 0.1372-0.44327 0.2058-0.88654 0.2058-1.3298" style="fill:#666"/>
    <g id="g4093" transform="matrix(.73973 0 0 .73973 6.5342 7.5616)">
     <path id="path3011" d="m80 6-40 7v49.438c-2.3193-0.62616-5.062-0.58889-7.7812 0.28125-5.8766 1.8805-9.3783 6.8875-7.8437 11.188 1.5345 4.3 7.5296 6.2555 13.406 4.375 5.02-1.607 8.288-5.502 8.188-9.282h0.031v-40l28-5v33.438c-2.3193-0.62616-5.062-0.58889-7.7812 0.28125-5.8766 1.8805-9.3783 6.8875-7.8438 11.188 1.5345 4.3 7.5296 6.2555 13.406 4.375 5.02-1.607 8.288-5.502 8.188-9.282h0.031v-58z" style="fill:#0046b5"/>
     <path id="path3796" d="m42 16v13l36-7v-13l-36 7z" style="filter:url(#filter3810-7);fill:url(#radialGradient4110-3)"/>
     <path id="path3814" d="m79 8-38 7v47.75c0.72261 0.27229 1.4026 0.59025 2 1v-33.75c0-4 0.41719-5.5006 4-7 10.867-4.5478 27-2 32-15z" style="fill:url(#radialGradient4112-9)"/>
     <path id="path3850" d="m80 6-3 0.5312v63.719c1.917-1.807 3.028-4.043 2.969-6.25h0.031v-58z" style="fill:url(#linearGradient4114-6)"/>
     <path id="path3826" d="m40 13 1 2 38-7 1-2l-40 7z" style="fill:url(#linearGradient4116-8)"/>
     <path id="path3841" d="m77.062 23.438-2.062 0.343v33.969c0.72261 0.27229 1.4026 0.59025 2 1v-33.75c0-0.57949 0.03663-1.0803 0.0625-1.5625z" style="fill:url(#radialGradient4118-2)"/>
     <path id="path3870" d="m46 29-3 0.531v45.719c1.917-1.807 3.028-4.043 2.969-6.25h0.031v-40z" style="fill:url(#radialGradient4120-9)"/>
     <path id="path3906" d="m51 65a11 8 0 1 1 -22 0 11 8 0 1 1 22 0z" style="color:#000000;fill:url(#radialGradient4122-5)" transform="matrix(.96732 -.30953 .34731 .97324 -26.268 19.621)"/>
     <path id="path3927" d="m36.594 62c-1.4136 0.01337-2.9058 0.24864-4.375 0.71875-5.8766 1.8805-9.3783 6.8875-7.8437 11.188 1.5345 4.3 7.5296 6.2555 13.406 4.375 5.8766-1.8805 9.3783-6.8875 7.8438-11.188-1.151-3.225-4.79-5.134-9.031-5.094zm0.09375 1.8438c1.2256-0.01097 2.3477 0.17481 3.3438 0.5 1.9921 0.65038 3.3123 1.8234 3.8438 3.3125 0.5314 1.4891 0.26089 3.1825-0.90625 4.8438s-3.2216 3.2022-5.8125 4.0312c-2.5909 0.82905-5.1954 0.77538-7.1875 0.125s-3.3123-1.8234-3.8438-3.3125c-0.5314-1.4891-0.26089-3.1825 0.90625-4.8438s3.2216-3.2022 5.8125-4.0312c1.2954-0.41452 2.6182-0.61403 3.8438-0.625z" style="opacity:.2;color:#000000;fill:url(#linearGradient4124-7)"/>
     <path id="path3920" d="m36.594 62c-1.4136 0.01337-2.9058 0.24864-4.375 0.71875-5.8766 1.8805-9.3783 6.8875-7.8437 11.188 1.5345 4.3 7.5296 6.2555 13.406 4.375 5.8766-1.8805 9.3783-6.8875 7.8438-11.188-1.151-3.225-4.79-5.134-9.031-5.094zm0.03125 1.0312c1.3081-0.01099 2.5614 0.17381 3.6562 0.53125 2.1896 0.71488 3.768 2.0554 4.4062 3.8438 0.63821 1.7884 0.22039 3.7677-1.0625 5.5938s-3.4393 3.4331-6.1875 4.3125-5.5291 0.83988-7.7187 0.125-3.768-2.0554-4.4062-3.8438c-0.63821-1.7884-0.22039-3.7677 1.0625-5.5938s3.4393-3.4331 6.1875-4.3125c1.3741-0.4397 2.7544-0.64526 4.0625-0.65625z" style="opacity:.5;color:#000000;fill:url(#linearGradient4126-6)"/>
     <path id="path3891" d="m40 65c1.2209 2.4769-1.4442 5.1714-5.4072 7.1248s-7.7233 2.426-8.9441-0.05091c-1.2209-2.4769 1.0021-6.0683 4.9651-8.0217s8.1654-1.529 9.3862 0.94786z" style="color:#000000;fill:url(#linearGradient4128-2)"/>
     <path id="path3966" d="m51 65a11 8 0 1 1 -22 0 11 8 0 1 1 22 0z" style="color:#000000;fill:url(#radialGradient4122-5)" transform="matrix(.96732 -.30953 .34731 .97324 7.732 14.621)"/>
     <path id="path3968" d="m70.594 57c-1.4136 0.01337-2.9058 0.24864-4.375 0.71875-5.8766 1.8805-9.3783 6.8875-7.8438 11.188 1.5345 4.3 7.5296 6.2555 13.406 4.375 5.8766-1.8805 9.3783-6.8875 7.8438-11.188-1.151-3.225-4.79-5.134-9.031-5.094zm0.09375 1.8438c1.2256-0.01097 2.3477 0.17481 3.3438 0.5 1.9921 0.65038 3.3123 1.8234 3.8438 3.3125 0.5314 1.4891 0.26089 3.1825-0.90625 4.8438s-3.2216 3.2022-5.8125 4.0312c-2.5909 0.82905-5.1954 0.77538-7.1875 0.125s-3.3123-1.8234-3.8438-3.3125c-0.5314-1.4891-0.26089-3.1825 0.90625-4.8438s3.2216-3.2022 5.8125-4.0312c1.2954-0.41452 2.6182-0.61403 3.8438-0.625z" style="opacity:.2;color:#000000;fill:url(#linearGradient4132-1)"/>
     <path id="path3970" d="m70.594 57c-1.4136 0.01337-2.9058 0.24864-4.375 0.71875-5.8766 1.8805-9.3783 6.8875-7.8438 11.188 1.5345 4.3 7.5296 6.2555 13.406 4.375 5.8766-1.8805 9.3783-6.8875 7.8438-11.188-1.151-3.225-4.79-5.134-9.031-5.094zm0.03125 1.0312c1.3081-0.01099 2.5614 0.17381 3.6562 0.53125 2.1896 0.71488 3.768 2.0554 4.4062 3.8438 0.63821 1.7884 0.22039 3.7677-1.0625 5.5938s-3.4393 3.4331-6.1875 4.3125-5.5291 0.83988-7.7188 0.125c-2.19-0.714-3.768-2.055-4.407-3.843-0.638-1.789-0.22-3.768 1.063-5.594 1.2829-1.8261 3.4393-3.4331 6.1875-4.3125 1.3741-0.4397 2.7544-0.64526 4.0625-0.65625z" style="opacity:.5;color:#000000;fill:url(#linearGradient4134-1)"/>
     <path id="path3972" d="m74 60c1.2209 2.4769-1.4442 5.1714-5.4072 7.1248s-7.7233 2.426-8.9441-0.05091c-1.2209-2.4769 1.0021-6.0683 4.9651-8.0217s8.1654-1.529 9.3862 0.94786z" style="color:#000000;fill:url(#linearGradient4136-2)"/>
    </g>
   </g>
  </g>
 </g>
</svg>
