<?xml version="1.0" encoding="UTF-8" standalone="no"?>
<!-- Created with Inkscape (http://www.inkscape.org/) -->
<svg id="svg6307" xmlns:rdf="http://www.w3.org/1999/02/22-rdf-syntax-ns#" xmlns="http://www.w3.org/2000/svg" height="96" width="96" version="1.1" xmlns:cc="http://creativecommons.org/ns#" xmlns:xlink="http://www.w3.org/1999/xlink" xmlns:dc="http://purl.org/dc/elements/1.1/">
 <defs id="defs6309">
  <filter id="filter6279-2" color-interpolation-filters="sRGB">
   <feGaussianBlur id="feGaussianBlur6281-1" stdDeviation="0.8"/>
  </filter>
  <clipPath id="clipPath3613-42">
   <rect id="rect3615-9" style="fill:#fff" rx="6" ry="6" height="84" width="84" y="6" x="6"/>
  </clipPath>
  <filter id="filter3794-61" height="1.384" width="1.384" color-interpolation-filters="sRGB" y="-.192" x="-.192">
   <feGaussianBlur id="feGaussianBlur3796-04" stdDeviation="5.28"/>
  </filter>
  <linearGradient id="linearGradient3111" y2="902.36" gradientUnits="userSpaceOnUse" x2="48" gradientTransform="translate(0 -.0000078516)" y1="1052.4" x1="48">
   <stop id="stop3702-69" style="stop-color:#e6e6e6" offset="0"/>
   <stop id="stop3704-33" style="stop-color:#f5f5f5" offset="1"/>
  </linearGradient>
  <linearGradient id="linearGradient3113" y2="138.66" gradientUnits="userSpaceOnUse" x2="48" y1="20.221" x1="48">
   <stop id="stop3739-2" style="stop-color:#fff" offset="0"/>
   <stop id="stop3741-1-0" style="stop-color:#fff;stop-opacity:0" offset="1"/>
  </linearGradient>
  <linearGradient id="linearGradient3115" y2="24" gradientUnits="userSpaceOnUse" x2="48" gradientTransform="translate(0 956.36)" y1="72" x1="48">
   <stop id="stop3699-9" style="stop-color:#bababa" offset="0"/>
   <stop id="stop3701-08" style="stop-color:#d2d2d2" offset="1"/>
  </linearGradient>
 </defs>
 <metadata id="metadata6312">
  <rdf:RDF>
   <cc:Work rdf:about="">
    <dc:format>image/svg+xml</dc:format>
    <dc:type rdf:resource="http://purl.org/dc/dcmitype/StillImage"/>
    <dc:title/>
   </cc:Work>
  </rdf:RDF>
 </metadata>
 <g id="layer1" transform="translate(0 -956.36)">
  <g id="g6866">
   <rect id="rect9283" ry="5" style="filter:url(#filter6279-2)" rx="5" transform="translate(0 -.0000078516)" height="80" width="80" y="964.36" x="8"/>
   <rect id="rect9285" style="fill:url(#linearGradient3111)" rx="5" ry="5" height="80" width="80" y="964.36" x="8"/>
   <g id="layer3" transform="translate(0 956.36)">
    <rect id="rect3171" style="opacity:.5;filter:url(#filter3794-61);stroke:#fff;stroke-linecap:round;stroke-width:.5;fill:url(#linearGradient3113)" clip-path="url(#clipPath3613-42)" rx="12" ry="12" height="66" width="66" y="15" x="15"/>
   </g>
   <path id="path3159" d="m48 980.36c-7.1156 0-12.818 5.3588-12.818 12 0.01605 0.7072 0.06889 1.7294 0.13637 2.5909-1.2168 0.51643-1.3056 2.8846-0.27273 5.3182 0.40958 0.965 0.93125 1.706 1.5 2.3181 0.13819 0.684 0.10193 0.991 0.27273 1.7728 0.4766 1.4298 2.3556 4.232 4.0909 6.5454 0.17016 1.7767 0.34667 3.5697 0 5.5909-5.0001 4.1484-17.883 5.9327-17.864 10.227l-0.27273 1.6364h50.455l-0.27274-1.6364c-0.02049-3.6756-12.925-5.9326-17.864-10.227-0.19983-1.6439-0.23792-3.2898-0.13635-4.909 1.5812-2.4402 3.6964-5.6348 4.2273-7.2273 0.19078-0.8065 0.26022-1.3511 0.40909-2.0455 0.47382-0.5739 0.87824-1.223 1.2273-2.0454 0.98122-2.312 0.9178-4.519-0.13635-5.1818 0.06215-0.9315 0.10898-1.9227 0.13635-2.7273 0-6.6412-5.7026-12-12.818-12z" style="fill:url(#linearGradient3115)"/>
  </g>
 </g>
</svg>
