<?xml version="1.0" encoding="UTF-8" standalone="no"?>
<!-- Created with Inkscape (http://www.inkscape.org/) -->
<svg id="svg6307" xmlns:rdf="http://www.w3.org/1999/02/22-rdf-syntax-ns#" xmlns="http://www.w3.org/2000/svg" height="96" width="96" version="1.1" xmlns:cc="http://creativecommons.org/ns#" xmlns:xlink="http://www.w3.org/1999/xlink" xmlns:dc="http://purl.org/dc/elements/1.1/">
 <defs id="defs6309">
  <filter id="filter6279-2" color-interpolation-filters="sRGB">
   <feGaussianBlur id="feGaussianBlur6281-1" stdDeviation="0.8"/>
  </filter>
  <linearGradient id="linearGradient9181" y2="902.36" gradientUnits="userSpaceOnUse" x2="48" gradientTransform="translate(0 -.0000078516)" y1="1052.4" x1="48">
   <stop id="stop3702-11" style="stop-color:#e6e6e6" offset="0"/>
   <stop id="stop3704-08" style="stop-color:#f5f5f5" offset="1"/>
  </linearGradient>
  <linearGradient id="linearGradient3079" y2="138.66" gradientUnits="userSpaceOnUse" y1="20.221" x2="48" x1="48">
   <stop id="stop3739-2-5" style="stop-color:#fff" offset="0"/>
   <stop id="stop3741-1-2" style="stop-color:#fff;stop-opacity:0" offset="1"/>
  </linearGradient>
  <clipPath id="clipPath3613-58">
   <rect id="rect3615-628" style="fill:#fff" rx="6" ry="6" height="84" width="84" y="6" x="6"/>
  </clipPath>
  <filter id="filter3794-47" height="1.384" width="1.384" color-interpolation-filters="sRGB" y="-.192" x="-.192">
   <feGaussianBlur id="feGaussianBlur3796-2" stdDeviation="5.28"/>
  </filter>
 </defs>
 <metadata id="metadata6312">
  <rdf:RDF>
   <cc:Work rdf:about="">
    <dc:format>image/svg+xml</dc:format>
    <dc:type rdf:resource="http://purl.org/dc/dcmitype/StillImage"/>
    <dc:title/>
   </cc:Work>
  </rdf:RDF>
 </metadata>
 <g id="layer1" transform="translate(0 -956.36)">
  <g id="g6089">
   <rect id="rect9283" ry="5" style="filter:url(#filter6279-2)" rx="5" transform="translate(0 -.0000078516)" height="80" width="80" y="964.36" x="8"/>
   <rect id="rect9285" style="fill:url(#linearGradient9181)" rx="5" ry="5" height="80" width="80" y="964.36" x="8"/>
   <g id="layer3" transform="translate(0 956.36)">
    <rect id="rect3171" style="opacity:.5;filter:url(#filter3794-47);stroke:#fff;stroke-linecap:round;stroke-width:.5;fill:url(#linearGradient3079)" clip-path="url(#clipPath3613-58)" rx="12" ry="12" height="66" width="66" y="15" x="15"/>
   </g>
   <g id="layer5" transform="matrix(.75734 0 0 .75734 11.648 967.25)">
    <path id="path2536" d="m61.407 32.926c0.04371 1.1733-0.34237 1.7434-0.69154 2.7516l-0.62792 0.31226c-0.51331 0.99749 0.05099 0.63326-0.31663 1.4263-0.80226 0.71242-2.4311 2.2286-2.9526 2.3675-0.38122-0.0083 0.25787-0.4497 0.3414-0.62209-1.0728 0.73622-0.86102 1.1053-2.502 1.5535l-0.04759-0.10732c-4.0453 1.9037-9.665-1.8682-9.5912-7.014-0.04274 0.32634-0.12287 0.24476-0.21222 0.37588-0.20882-2.6472 1.2228-5.306 3.6374-6.3933 2.3616-1.1684 5.1302-0.6896 6.8207 0.88822-0.92853-1.217-2.7783-2.5073-4.969-2.3878-2.147 0.03497-4.156 1.3991-4.8262 2.8808-1.0995 0.69202-1.2277 2.669-1.7065 3.0313-0.6454 4.7398 1.2126 6.7867 4.3561 9.1959 0.4934 0.33314 0.13889 0.38413 0.20494 0.63763-1.0441-0.48854-1.9998-1.2267-2.7866-2.1305 0.41764 0.61044 0.86782 1.2039 1.4501 1.6701-0.98535-0.33266-2.3009-2.3859-2.6841-2.4694 1.6973 3.0391 6.8853 5.3298 9.6034 4.1929-1.2578 0.04662-2.855 0.02574-4.2672-0.49632-0.5949-0.30546-1.4006-0.93727-1.2563-1.0553 3.7083 1.3845 7.538 1.048 10.746-1.5234 0.81683-0.63618 1.7085-1.7177 1.9663-1.7322-0.38802 0.58373 0.06653 0.2807-0.23165 0.79595 0.81198-1.3117-0.35403-0.5342 0.84014-2.265l0.44096 0.60704c-0.16512-1.0898 1.3525-2.4116 1.1981-4.1337 0.3482-0.52642 0.38802 0.56722 0.01894 1.7784 0.51234-1.3437 0.13549-1.5598 0.26661-2.669 0.14132 0.37296 0.32926 0.76876 0.42493 1.1626-0.33411-1.2991 0.3414-2.1868 0.50943-2.942-0.16609-0.07285-0.51526 0.57402-0.59587-0.95961 0.01214-0.66629 0.186-0.34917 0.25253-0.51331-0.13015-0.07527-0.47349-0.58616-0.68183-1.5657 0.15006-0.23068 0.40404 0.59684 0.60995 0.63035-0.13258-0.77847-0.36034-1.3724-0.37005-1.9702-0.60218-1.2578-0.21319 0.16803-0.70077-0.54002-0.64103-1.9979 0.53128-0.46378 0.61092-1.3709 0.97029 1.4059 1.5234 3.5864 1.7784 4.4892-0.19425-1.1009-0.50749-2.1679-0.89065-3.1998 0.29575 0.12481-0.47543-2.2645 0.38414-0.68231-0.91736-3.3727-3.9229-6.5245-6.6886-8.0027 0.33751 0.30935 0.76438 0.69785 0.6119 0.75904-1.3763-0.81829-1.1344-0.88288-1.3316-1.2286-1.1194-0.45601-1.1942 0.03739-1.9348 0.000971-2.1125-1.1208-2.5195-1.0019-4.4634-1.7031l0.08838 0.41376c-1.3991-0.46621-1.6303 0.1758-3.142 0.000972-0.09179-0.07139 0.48466-0.2603 0.95961-0.32877-1.353 0.17871-1.2898-0.2671-2.6137 0.04905 0.32586-0.22873 0.67163-0.38074 1.0193-0.57499-1.1029 0.06702-2.6341 0.642-2.1615 0.11849-1.7993 0.80324-4.9952 1.9304-6.7886 3.6121l-0.05633-0.37685c-0.82169 0.98632-3.5835 2.9458-3.8035 4.2245l-0.21999 0.05099c-0.42687 0.72408-0.70417 1.5443-1.0431 2.2888-0.55896 0.9533-0.81974 0.36714-0.7401 0.51671-1.1 2.23-1.6473 4.1036-2.1188 5.6411 0.33606 0.50263 0.0083 3.0265 0.13501 5.0462-0.55168 9.9768 7.0018 19.663 15.259 21.899 1.2102 0.43367 3.0095 0.41813 4.5402 0.46086-1.8056-0.51671-2.0387-0.27341-3.7986-0.88676-1.269-0.5983-1.5467-1.2806-2.4461-2.061l0.35597 0.62889c-1.762-0.625-1.024-0.773-2.458-1.227l0.38025-0.49583c-0.57159-0.04371-1.5137-0.96252-1.7711-1.4729l-0.62549 0.02477c-0.75079-0.92561-1.1514-1.5943-1.1218-2.1125l-0.20202 0.36034c-0.22873-0.39288-2.7637-3.4762-1.4486-2.7584-0.24427-0.22242-0.56916-0.36277-0.92124-1.0033l0.26758-0.30546c-0.63181-0.8144-1.1645-1.858-1.1238-2.2057 0.33751 0.45552 0.57159 0.54099 0.80372 0.61918-1.5982-3.9647-1.6881-0.21805-2.8978-4.0356l0.25544-0.0204c-0.19571-0.29672-0.31566-0.61675-0.47301-0.93193l0.1117-1.1097c-1.15-1.3287-0.32149-5.6552-0.15492-8.0275 0.11412-0.96446 0.96009-1.9916 1.6026-3.6024l-0.39142-0.06702c0.74884-1.3054 4.2745-5.2443 5.9082-5.0423 0.79109-0.9936-0.15734-0.0039-0.31226-0.2535 1.7381-1.7983 2.2844-1.2704 3.4572-1.5943 1.2641-0.7503-1.0854 0.29332-0.48612-0.28604 2.1868-0.55799 1.5492-1.2694 4.4013-1.5526 0.30109 0.17094-0.69785 0.26418-0.94844 0.48612 1.8211-0.89162 5.764-0.68814 8.3262 0.49437 2.9706 1.3894 6.3103 5.4944 6.4424 9.3567l0.15006 0.04031c-0.07576 1.5356 0.23504 3.3115-0.30449 4.9423l0.36471-0.77264" style="fill:#d70751"/>
    <g id="g2608" transform="matrix(.48563 0 0 .48563 21.592 14.005)">
     <path id="path2550" d="m13.437 125.51c-0.045 0.047-0.045 7.506-0.138 9.453-0.092 1.574-0.232 4.957-3.568 4.957-3.429 0-4.263-3.939-4.541-5.652-0.324-1.9-0.324-3.477-0.324-4.17 0-2.225 0.139-8.436 5.375-8.436 1.576 0 2.456 0.465 3.151 0.834l0.045 3.014zm-13.437 5.47c0 13.066 6.951 13.066 7.97 13.066 2.873 0 4.727-1.576 5.514-4.309l0.093 4.123c0.881-0.047 1.761-0.139 3.197-0.139 0.51 0 0.926 0 1.298 0.047 0.371 0 0.741 0.045 1.158 0.092-0.741-1.482-1.297-4.818-1.297-12.049 0-7.043 0-18.951 0.602-22.566-1.667 0.789-3.105 1.299-6.256 1.576 1.251 1.344 1.251 2.039 1.251 8.154-0.879-0.277-1.992-0.602-3.892-0.602-8.294 0-9.638 7.23-9.638 12.61"/>
     <path id="path2552" d="m25.13 128.61c0.047-3.846 0.835-7.275 4.124-7.275 3.615 0 3.891 3.984 3.799 7.275h-7.923zm12.51 0.465c0-5.422-1.065-10.752-7.923-10.752-9.452 0-9.452 10.475-9.452 12.697 0 9.406 4.216 13.113 11.306 13.113 3.149 0 4.68-0.461 5.514-0.695-0.046-1.668 0.185-2.734 0.465-4.17-0.975 0.604-2.226 1.391-5.006 1.391-7.229 0-7.322-6.582-7.322-8.852h12.328l0.09-2.732"/>
     <path id="path2554" d="m52.715 131.07c0 4.309-0.787 10.102-6.162 10.102-0.742 0-1.668-0.141-2.27-0.279-0.093-1.668-0.093-4.541-0.093-7.877 0-3.986 0.416-6.068 0.742-7.09 0.972-3.289 3.15-3.334 3.566-3.334 3.522 0 4.217 4.865 4.217 8.478zm-13.298 5.051c0 3.43 0 5.375-0.556 6.857 1.9 0.742 4.262 1.158 7.09 1.158 1.807 0 7.043 0 9.869-5.791 1.344-2.688 1.807-6.303 1.807-9.037 0-1.668-0.186-5.328-1.529-7.646-1.296-2.176-3.382-3.289-5.605-3.289-4.449 0-5.746 3.707-6.44 5.607 0-2.363 0.045-10.611 0.415-14.828-3.011 1.391-4.866 1.621-6.857 1.807 1.807 0.74 1.807 3.801 1.807 13.764v11.398"/>
     <path id="path2556" d="m66.535 143.86c-0.928-0.139-1.578-0.232-2.922-0.232-1.48 0-2.502 0.094-3.566 0.232 0.463-0.881 0.648-1.299 0.787-4.309 0.186-4.125 0.232-15.154-0.092-17.471-0.232-1.762-0.648-2.039-1.297-2.502 3.799-0.371 4.865-0.648 6.625-1.482-0.369 2.037-0.418 3.059-0.418 6.162-0.091 15.989-0.138 17.702 0.883 19.602"/>
     <path id="path2558" d="m81.373 130.74c-0.092 2.92-0.139 4.959-0.928 6.58-0.973 2.086-2.594 2.688-3.799 2.688-2.783 0-3.383-2.316-3.383-4.586 0-4.355 3.893-4.682 5.652-4.682h2.458zm-12.744 5.701c0 2.92 0.881 5.838 3.477 7.09 1.158 0.51 2.316 0.51 2.688 0.51 4.264 0 5.699-3.152 6.58-5.098-0.047 2.039 0 3.289 0.139 4.912 0.834-0.047 1.668-0.139 3.059-0.139 0.787 0 1.529 0.092 2.316 0.139-0.51-0.787-0.787-1.252-0.928-3.059-0.092-1.76-0.092-3.521-0.092-5.977l0.047-9.453c0-3.523-0.928-6.998-7.879-6.998-4.586 0-7.273 1.391-8.617 2.086 0.557 1.02 1.02 1.898 1.436 3.893 1.809-1.576 4.172-2.41 6.58-2.41 3.848 0 3.848 2.549 3.848 6.162-0.881-0.045-1.623-0.137-2.875-0.137-5.887 0.001-9.779 2.268-9.779 8.479"/>
     <path id="path2560" d="m108.06 139.27c0.047 1.576 0.047 3.244 0.695 4.588-1.021-0.092-1.623-0.232-3.521-0.232-1.113 0-1.715 0.094-2.596 0.232 0.184-0.602 0.279-0.834 0.371-1.623 0.139-1.064 0.232-4.633 0.232-5.885v-5.004c0-2.178 0-5.33-0.141-6.441-0.092-0.787-0.322-2.918-3.012-2.918-2.641 0-3.521 1.945-3.846 3.521-0.369 1.621-0.369 3.383-0.369 10.24 0.045 5.932 0.045 6.486 0.508 8.109-0.787-0.092-1.76-0.184-3.15-0.184-1.113 0-1.854 0.045-2.779 0.184 0.324-0.742 0.51-1.113 0.602-3.707 0.094-2.549 0.279-15.061-0.141-18.025-0.23-1.809-0.695-2.225-1.203-2.688 3.754-0.186 4.957-0.789 6.117-1.389v4.91c0.555-1.438 1.713-4.635 6.348-4.635 5.793 0 5.838 4.217 5.885 6.996v13.951"/>
     <path id="path2562" d="m66.926 111.53-3.838 3.836-3.836-3.836 3.836-3.836 3.838 3.836" style="fill:#d70751"/>
    </g>
   </g>
  </g>
 </g>
</svg>
