<?xml version="1.0" encoding="UTF-8" standalone="no"?>
<!-- Created with Inkscape (http://www.inkscape.org/) -->

<svg
   xmlns:dc="http://purl.org/dc/elements/1.1/"
   xmlns:cc="http://creativecommons.org/ns#"
   xmlns:rdf="http://www.w3.org/1999/02/22-rdf-syntax-ns#"
   xmlns:svg="http://www.w3.org/2000/svg"
   xmlns="http://www.w3.org/2000/svg"
   xmlns:xlink="http://www.w3.org/1999/xlink"
   xmlns:sodipodi="http://sodipodi.sourceforge.net/DTD/sodipodi-0.dtd"
   xmlns:inkscape="http://www.inkscape.org/namespaces/inkscape"
   width="96"
   height="96"
   id="svg6307"
   version="1.1"
   inkscape:version="0.48.1 r9760"
   sodipodi:docname="image-tiff.svg">
  <defs
     id="defs6309">
    <filter
       color-interpolation-filters="sRGB"
       inkscape:collect="always"
       id="filter6279-2">
      <feGaussianBlur
         inkscape:collect="always"
         stdDeviation="0.8"
         id="feGaussianBlur6281-1" />
    </filter>
    <linearGradient
       inkscape:collect="always"
       xlink:href="#linearGradient3700-9"
       id="linearGradient8644"
       gradientUnits="userSpaceOnUse"
       gradientTransform="translate(0,-7.8515622e-6)"
       x1="48"
       y1="1052.3622"
       x2="48"
       y2="902.36218" />
    <linearGradient
       id="linearGradient3700-9">
      <stop
         id="stop3702-469"
         style="stop-color:#e6e6e6;stop-opacity:1"
         offset="0" />
      <stop
         id="stop3704-22"
         style="stop-color:#f5f5f5;stop-opacity:1"
         offset="1" />
    </linearGradient>
    <clipPath
       id="clipPath2951">
      <rect
         width="72"
         height="55.999996"
         rx="3"
         ry="3"
         x="12"
         y="20"
         id="rect2953"
         style="opacity:0.65163933;color:#000000;fill:#ff0000;fill-opacity:1;fill-rule:nonzero;stroke:none;stroke-width:1;marker:none;visibility:visible;display:inline;overflow:visible;enable-background:accumulate" />
    </clipPath>
    <linearGradient
       x1="48"
       y1="48"
       x2="48"
       y2="72"
       id="linearGradient3938-21"
       xlink:href="#linearGradient3940-5"
       gradientUnits="userSpaceOnUse"
       spreadMethod="reflect" />
    <linearGradient
       id="linearGradient3940-5">
      <stop
         id="stop3942-6"
         style="stop-color:#e36dbf;stop-opacity:1"
         offset="0" />
      <stop
         id="stop3944-50"
         style="stop-color:#901649;stop-opacity:1"
         offset="1" />
    </linearGradient>
    <radialGradient
       cx="56"
       cy="24"
       r="16"
       fx="56"
       fy="24"
       id="radialGradient3934-0"
       xlink:href="#linearGradient3928-34"
       gradientUnits="userSpaceOnUse" />
    <linearGradient
       id="linearGradient3928-34">
      <stop
         id="stop3930-6"
         style="stop-color:#7a28a6;stop-opacity:1"
         offset="0" />
      <stop
         id="stop3932-6"
         style="stop-color:#650080;stop-opacity:0"
         offset="1" />
    </linearGradient>
    <radialGradient
       cx="60.562889"
       cy="49.720657"
       r="19.437111"
       fx="60.562889"
       fy="49.720657"
       id="radialGradient3867-0"
       xlink:href="#linearGradient3739-2"
       gradientUnits="userSpaceOnUse" />
    <linearGradient
       id="linearGradient3739-2">
      <stop
         id="stop3742-5"
         style="stop-color:#e296c4;stop-opacity:1"
         offset="0" />
      <stop
         id="stop3745-8"
         style="stop-color:#c03589;stop-opacity:0"
         offset="1" />
    </linearGradient>
    <radialGradient
       cx="47.977352"
       cy="64.057671"
       r="24.022646"
       fx="47.977352"
       fy="64.057671"
       id="radialGradient3747-95"
       xlink:href="#linearGradient3739-2"
       gradientUnits="userSpaceOnUse" />
    <linearGradient
       id="linearGradient6390">
      <stop
         id="stop6392"
         style="stop-color:#e296c4;stop-opacity:1"
         offset="0" />
      <stop
         id="stop6394"
         style="stop-color:#c03589;stop-opacity:0"
         offset="1" />
    </linearGradient>
    <radialGradient
       cx="60.562889"
       cy="49.720657"
       r="19.437111"
       fx="60.562889"
       fy="49.720657"
       id="radialGradient3758-0"
       xlink:href="#linearGradient3751-83"
       gradientUnits="userSpaceOnUse" />
    <linearGradient
       id="linearGradient3751-83">
      <stop
         id="stop3754-7"
         style="stop-color:#ffb441;stop-opacity:1"
         offset="0" />
      <stop
         id="stop3756-8"
         style="stop-color:#ff7945;stop-opacity:0"
         offset="1" />
    </linearGradient>
    <radialGradient
       cx="58.5"
       cy="37.5"
       r="2.5"
       fx="58.5"
       fy="37.5"
       id="radialGradient3833-2"
       xlink:href="#linearGradient3827-1"
       gradientUnits="userSpaceOnUse" />
    <linearGradient
       id="linearGradient3827-1">
      <stop
         id="stop3829-05"
         style="stop-color:#ffffff;stop-opacity:1"
         offset="0" />
      <stop
         id="stop3831-85"
         style="stop-color:#ffffff;stop-opacity:0"
         offset="1" />
    </linearGradient>
    <radialGradient
       cx="58.5"
       cy="37.5"
       r="2.5"
       fx="58.5"
       fy="37.5"
       id="radialGradient3837-50"
       xlink:href="#linearGradient3827-1"
       gradientUnits="userSpaceOnUse" />
    <linearGradient
       id="linearGradient6405">
      <stop
         id="stop6407"
         style="stop-color:#ffffff;stop-opacity:1"
         offset="0" />
      <stop
         id="stop6409"
         style="stop-color:#ffffff;stop-opacity:0"
         offset="1" />
    </linearGradient>
    <radialGradient
       cx="58.5"
       cy="37.5"
       r="2.5"
       fx="58.5"
       fy="37.5"
       id="radialGradient3841-2"
       xlink:href="#linearGradient3827-1"
       gradientUnits="userSpaceOnUse" />
    <linearGradient
       id="linearGradient6412">
      <stop
         id="stop6414"
         style="stop-color:#ffffff;stop-opacity:1"
         offset="0" />
      <stop
         id="stop6416"
         style="stop-color:#ffffff;stop-opacity:0"
         offset="1" />
    </linearGradient>
    <radialGradient
       cx="58.5"
       cy="37.5"
       r="2.5"
       fx="58.5"
       fy="37.5"
       id="radialGradient3845-6"
       xlink:href="#linearGradient3827-1"
       gradientUnits="userSpaceOnUse" />
    <linearGradient
       id="linearGradient6419">
      <stop
         id="stop6421"
         style="stop-color:#ffffff;stop-opacity:1"
         offset="0" />
      <stop
         id="stop6423"
         style="stop-color:#ffffff;stop-opacity:0"
         offset="1" />
    </linearGradient>
    <radialGradient
       cx="58.5"
       cy="37.5"
       r="2.5"
       fx="58.5"
       fy="37.5"
       id="radialGradient3849-9"
       xlink:href="#linearGradient3827-1"
       gradientUnits="userSpaceOnUse" />
    <linearGradient
       id="linearGradient6426">
      <stop
         id="stop6428"
         style="stop-color:#ffffff;stop-opacity:1"
         offset="0" />
      <stop
         id="stop6430"
         style="stop-color:#ffffff;stop-opacity:0"
         offset="1" />
    </linearGradient>
    <radialGradient
       cx="58.5"
       cy="37.5"
       r="2.5"
       fx="58.5"
       fy="37.5"
       id="radialGradient3853-8"
       xlink:href="#linearGradient3827-1"
       gradientUnits="userSpaceOnUse" />
    <linearGradient
       id="linearGradient6433">
      <stop
         id="stop6435"
         style="stop-color:#ffffff;stop-opacity:1"
         offset="0" />
      <stop
         id="stop6437"
         style="stop-color:#ffffff;stop-opacity:0"
         offset="1" />
    </linearGradient>
    <radialGradient
       cx="58.5"
       cy="37.5"
       r="2.5"
       fx="58.5"
       fy="37.5"
       id="radialGradient3857-7"
       xlink:href="#linearGradient3827-1"
       gradientUnits="userSpaceOnUse" />
    <linearGradient
       id="linearGradient6440">
      <stop
         id="stop6442"
         style="stop-color:#ffffff;stop-opacity:1"
         offset="0" />
      <stop
         id="stop6444"
         style="stop-color:#ffffff;stop-opacity:0"
         offset="1" />
    </linearGradient>
    <radialGradient
       cx="58.5"
       cy="37.5"
       r="2.5"
       fx="58.5"
       fy="37.5"
       id="radialGradient3861-2"
       xlink:href="#linearGradient3827-1"
       gradientUnits="userSpaceOnUse" />
    <linearGradient
       id="linearGradient6447">
      <stop
         id="stop6449"
         style="stop-color:#ffffff;stop-opacity:1"
         offset="0" />
      <stop
         id="stop6451"
         style="stop-color:#ffffff;stop-opacity:0"
         offset="1" />
    </linearGradient>
    <linearGradient
       x1="64"
       y1="80"
       x2="64"
       y2="-40.066647"
       id="linearGradient3984"
       xlink:href="#linearGradient3718-5-9"
       gradientUnits="userSpaceOnUse"
       gradientTransform="translate(-20,0)" />
    <linearGradient
       id="linearGradient3718-5-9">
      <stop
         id="stop3720-2-7"
         style="stop-color:#000000;stop-opacity:1"
         offset="0" />
      <stop
         id="stop3722-8"
         style="stop-color:#000000;stop-opacity:0"
         offset="1" />
    </linearGradient>
  </defs>
  <sodipodi:namedview
     id="base"
     pagecolor="#ffffff"
     bordercolor="#666666"
     borderopacity="1.0"
     inkscape:pageopacity="0.0"
     inkscape:pageshadow="2"
     inkscape:zoom="3.959798"
     inkscape:cx="74.691807"
     inkscape:cy="59.668174"
     inkscape:document-units="px"
     inkscape:current-layer="layer1"
     showgrid="false"
     inkscape:window-width="1280"
     inkscape:window-height="725"
     inkscape:window-x="0"
     inkscape:window-y="25"
     inkscape:window-maximized="1" />
  <metadata
     id="metadata6312">
    <rdf:RDF>
      <cc:Work
         rdf:about="">
        <dc:format>image/svg+xml</dc:format>
        <dc:type
           rdf:resource="http://purl.org/dc/dcmitype/StillImage" />
        <dc:title></dc:title>
      </cc:Work>
    </rdf:RDF>
  </metadata>
  <g
     inkscape:label="Layer 1"
     inkscape:groupmode="layer"
     id="layer1"
     transform="translate(0,-956.36218)">
    <g
       id="g8868">
      <rect
         transform="translate(0,-7.8515622e-6)"
         y="964.36218"
         x="8"
         height="80"
         width="80"
         id="rect9283"
         style="fill:#000000;fill-opacity:1;stroke:none;filter:url(#filter6279-2)"
         rx="5"
         ry="5" />
      <rect
         ry="5"
         rx="5"
         style="fill:url(#linearGradient8644);fill-opacity:1;stroke:none"
         id="rect9285"
         width="80"
         height="80"
         x="8"
         y="964.36218" />
      <g
         id="g3315"
         style="display:inline"
         transform="matrix(0.76388889,0,0,0.76388889,11.333333,967.04274)">
        <g
           id="layer3">
          <g
             id="g3148">
            <g
               id="g3871"
               clip-path="url(#clipPath2951)">
              <rect
                 style="color:#000000;fill:url(#linearGradient3938-21);fill-opacity:1;fill-rule:nonzero;stroke:none;stroke-width:1;marker:none;visibility:visible;display:inline;overflow:visible;enable-background:accumulate"
                 id="rect3966"
                 y="20"
                 x="12"
                 height="55.999996"
                 width="72" />
              <path
                 style="opacity:0.62065573;color:#000000;fill:url(#radialGradient3934-0);fill-opacity:1;fill-rule:nonzero;stroke:none;stroke-width:1;marker:none;visibility:visible;display:inline;overflow:visible;enable-background:accumulate"
                 id="path3918"
                 transform="matrix(2.75,0,0,2.75,-126,-40)"
                 d="m 72,24 a 16,16 0 1 1 -32,0 16,16 0 1 1 32,0 z"
                 inkscape:connector-curvature="0" />
              <path
                 style="opacity:0.69672134;color:#000000;fill:url(#radialGradient3867-0);fill-opacity:1;fill-rule:nonzero;stroke:none;stroke-width:1;marker:none;visibility:visible;display:inline;overflow:visible;enable-background:accumulate"
                 id="path3865"
                 transform="matrix(0.92606356,0,0,0.92606356,20.477805,-0.04448889)"
                 d="m 80,49.720657 a 19.437111,19.437111 0 1 1 -38.874222,0 19.437111,19.437111 0 1 1 38.874222,0 z"
                 inkscape:connector-curvature="0" />
              <path
                 style="color:#000000;fill:url(#radialGradient3747-95);fill-opacity:1;fill-rule:nonzero;stroke:none;stroke-width:1;marker:none;visibility:visible;display:inline;overflow:visible;enable-background:accumulate"
                 id="path3737"
                 transform="translate(-23.999998,-16.057671)"
                 d="m 71.999998,64.057671 a 24.022646,24.022646 0 1 1 -48.045292,0 24.022646,24.022646 0 1 1 48.045292,0 z"
                 inkscape:connector-curvature="0" />
              <path
                 style="opacity:0.43442622;color:#000000;fill:url(#radialGradient3758-0);fill-opacity:1;fill-rule:nonzero;stroke:none;stroke-width:1;marker:none;visibility:visible;display:inline;overflow:visible;enable-background:accumulate"
                 id="path3749"
                 transform="translate(-12.562889,-5.1577682)"
                 d="m 80,49.720657 a 19.437111,19.437111 0 1 1 -38.874222,0 19.437111,19.437111 0 1 1 38.874222,0 z"
                 inkscape:connector-curvature="0" />
              <path
                 style="opacity:0.4;color:#000000;fill:#ffffff;fill-opacity:1;fill-rule:nonzero;stroke:none;stroke-width:1;marker:none;visibility:visible;display:inline;overflow:visible;enable-background:accumulate"
                 id="path3779"
                 d="m 61,37.5 a 2.5,2.5 0 1 1 -5,0 2.5,2.5 0 1 1 5,0 z"
                 inkscape:connector-curvature="0" />
              <path
                 style="opacity:0.50409833;color:#000000;fill:#ffffff;fill-opacity:1;fill-rule:nonzero;stroke:none;stroke-width:1;marker:none;visibility:visible;display:inline;overflow:visible;enable-background:accumulate"
                 id="path3781"
                 transform="translate(-33.5,10)"
                 d="m 61,37.5 a 2.5,2.5 0 1 1 -5,0 2.5,2.5 0 1 1 5,0 z"
                 inkscape:connector-curvature="0" />
              <path
                 style="opacity:0.3;color:#000000;fill:#ffffff;fill-opacity:1;fill-rule:nonzero;stroke:none;stroke-width:1;marker:none;visibility:visible;display:inline;overflow:visible;enable-background:accumulate"
                 id="path3783"
                 transform="translate(4,13.5)"
                 d="m 61,37.5 a 2.5,2.5 0 1 1 -5,0 2.5,2.5 0 1 1 5,0 z"
                 inkscape:connector-curvature="0" />
              <path
                 style="opacity:0.50409833;color:#000000;fill:#ffffff;fill-opacity:1;fill-rule:nonzero;stroke:none;stroke-width:1;marker:none;visibility:visible;display:inline;overflow:visible;enable-background:accumulate"
                 id="path3785"
                 transform="translate(17,8.5)"
                 d="m 61,37.5 a 2.5,2.5 0 1 1 -5,0 2.5,2.5 0 1 1 5,0 z"
                 inkscape:connector-curvature="0" />
              <path
                 style="opacity:0.50409833;color:#000000;fill:#ffffff;fill-opacity:1;fill-rule:nonzero;stroke:none;stroke-width:1;marker:none;visibility:visible;display:inline;overflow:visible;enable-background:accumulate"
                 id="path3787"
                 transform="translate(-17,7.5)"
                 d="m 61,37.5 a 2.5,2.5 0 1 1 -5,0 2.5,2.5 0 1 1 5,0 z"
                 inkscape:connector-curvature="0" />
              <path
                 style="opacity:0.50409833;color:#000000;fill:#ffffff;fill-opacity:1;fill-rule:nonzero;stroke:none;stroke-width:1;marker:none;visibility:visible;display:inline;overflow:visible;enable-background:accumulate"
                 id="path3789"
                 transform="translate(-42,3.5)"
                 d="m 61,37.5 a 2.5,2.5 0 1 1 -5,0 2.5,2.5 0 1 1 5,0 z"
                 inkscape:connector-curvature="0" />
              <path
                 style="opacity:0.3;color:#000000;fill:#ffffff;fill-opacity:1;fill-rule:nonzero;stroke:none;stroke-width:1;marker:none;visibility:visible;display:inline;overflow:visible;enable-background:accumulate"
                 id="path3791"
                 transform="translate(-42,3.5)"
                 d="m 61,37.5 a 2.5,2.5 0 1 1 -5,0 2.5,2.5 0 1 1 5,0 z"
                 inkscape:connector-curvature="0" />
              <path
                 style="opacity:0.50409833;color:#000000;fill:#ffffff;fill-opacity:1;fill-rule:nonzero;stroke:none;stroke-width:1;marker:none;visibility:visible;display:inline;overflow:visible;enable-background:accumulate"
                 id="path3793"
                 transform="matrix(0.4,0,0,0.4,-6.4,35)"
                 d="m 61,37.5 a 2.5,2.5 0 1 1 -5,0 2.5,2.5 0 1 1 5,0 z"
                 inkscape:connector-curvature="0" />
              <path
                 style="opacity:0.50409833;color:#000000;fill:#ffffff;fill-opacity:1;fill-rule:nonzero;stroke:none;stroke-width:1;marker:none;visibility:visible;display:inline;overflow:visible;enable-background:accumulate"
                 id="path3795"
                 transform="matrix(0.4,0,0,0.4,7.6,38)"
                 d="m 61,37.5 a 2.5,2.5 0 1 1 -5,0 2.5,2.5 0 1 1 5,0 z"
                 inkscape:connector-curvature="0" />
              <path
                 style="opacity:0.50409833;color:#000000;fill:#ffffff;fill-opacity:1;fill-rule:nonzero;stroke:none;stroke-width:1;marker:none;visibility:visible;display:inline;overflow:visible;enable-background:accumulate"
                 id="path3797"
                 transform="matrix(0.4,0,0,0.4,9.6,34)"
                 d="m 61,37.5 a 2.5,2.5 0 1 1 -5,0 2.5,2.5 0 1 1 5,0 z"
                 inkscape:connector-curvature="0" />
              <path
                 style="opacity:0.3;color:#000000;fill:#ffffff;fill-opacity:1;fill-rule:nonzero;stroke:none;stroke-width:1;marker:none;visibility:visible;display:inline;overflow:visible;enable-background:accumulate"
                 id="path3799"
                 transform="matrix(0.4,0,0,0.4,16.6,36)"
                 d="m 61,37.5 a 2.5,2.5 0 1 1 -5,0 2.5,2.5 0 1 1 5,0 z"
                 inkscape:connector-curvature="0" />
              <path
                 style="opacity:0.50409833;color:#000000;fill:#ffffff;fill-opacity:1;fill-rule:nonzero;stroke:none;stroke-width:1;marker:none;visibility:visible;display:inline;overflow:visible;enable-background:accumulate"
                 id="path3801"
                 transform="matrix(0.4,0,0,0.4,28.6,28)"
                 d="m 61,37.5 a 2.5,2.5 0 1 1 -5,0 2.5,2.5 0 1 1 5,0 z"
                 inkscape:connector-curvature="0" />
              <path
                 style="opacity:0.50409833;color:#000000;fill:#ffffff;fill-opacity:1;fill-rule:nonzero;stroke:none;stroke-width:1;marker:none;visibility:visible;display:inline;overflow:visible;enable-background:accumulate"
                 id="path3803"
                 transform="matrix(0.4,0,0,0.4,45.6,33)"
                 d="m 61,37.5 a 2.5,2.5 0 1 1 -5,0 2.5,2.5 0 1 1 5,0 z"
                 inkscape:connector-curvature="0" />
              <path
                 style="opacity:0.50409833;color:#000000;fill:#ffffff;fill-opacity:1;fill-rule:nonzero;stroke:none;stroke-width:1;marker:none;visibility:visible;display:inline;overflow:visible;enable-background:accumulate"
                 id="path3805"
                 transform="matrix(0.4,0,0,0.4,47.6,29)"
                 d="m 61,37.5 a 2.5,2.5 0 1 1 -5,0 2.5,2.5 0 1 1 5,0 z"
                 inkscape:connector-curvature="0" />
              <path
                 style="opacity:0.50409833;color:#000000;fill:#ffffff;fill-opacity:1;fill-rule:nonzero;stroke:none;stroke-width:1;marker:none;visibility:visible;display:inline;overflow:visible;enable-background:accumulate"
                 id="path3807"
                 transform="matrix(0.4,0,0,0.4,55.6,23)"
                 d="m 61,37.5 a 2.5,2.5 0 1 1 -5,0 2.5,2.5 0 1 1 5,0 z"
                 inkscape:connector-curvature="0" />
              <path
                 style="opacity:0.50409833;color:#000000;fill:#ffffff;fill-opacity:1;fill-rule:nonzero;stroke:none;stroke-width:1;marker:none;visibility:visible;display:inline;overflow:visible;enable-background:accumulate"
                 id="path3809"
                 transform="matrix(0.4,0,0,0.4,38.6,30)"
                 d="m 61,37.5 a 2.5,2.5 0 1 1 -5,0 2.5,2.5 0 1 1 5,0 z"
                 inkscape:connector-curvature="0" />
              <path
                 style="opacity:0.50409833;color:#000000;fill:#ffffff;fill-opacity:1;fill-rule:nonzero;stroke:none;stroke-width:1;marker:none;visibility:visible;display:inline;overflow:visible;enable-background:accumulate"
                 id="path3811"
                 transform="matrix(0.4,0,0,0.4,38.6,30)"
                 d="m 61,37.5 a 2.5,2.5 0 1 1 -5,0 2.5,2.5 0 1 1 5,0 z"
                 inkscape:connector-curvature="0" />
              <path
                 style="opacity:0.50409833;color:#000000;fill:#ffffff;fill-opacity:1;fill-rule:nonzero;stroke:none;stroke-width:1;marker:none;visibility:visible;display:inline;overflow:visible;enable-background:accumulate"
                 id="path3813"
                 transform="matrix(0.6,0,0,0.6,-1.1,21)"
                 d="m 61,37.5 a 2.5,2.5 0 1 1 -5,0 2.5,2.5 0 1 1 5,0 z"
                 inkscape:connector-curvature="0" />
              <path
                 style="opacity:0.50409833;color:#000000;fill:#ffffff;fill-opacity:1;fill-rule:nonzero;stroke:none;stroke-width:1;marker:none;visibility:visible;display:inline;overflow:visible;enable-background:accumulate"
                 id="path3815"
                 transform="matrix(0.6,0,0,0.6,-6.6,18.5)"
                 d="m 61,37.5 a 2.5,2.5 0 1 1 -5,0 2.5,2.5 0 1 1 5,0 z"
                 inkscape:connector-curvature="0" />
              <path
                 style="opacity:0.50409833;color:#000000;fill:#ffffff;fill-opacity:1;fill-rule:nonzero;stroke:none;stroke-width:1;marker:none;visibility:visible;display:inline;overflow:visible;enable-background:accumulate"
                 id="path3817"
                 transform="matrix(0.6,0,0,0.6,15.9,31)"
                 d="m 61,37.5 a 2.5,2.5 0 1 1 -5,0 2.5,2.5 0 1 1 5,0 z"
                 inkscape:connector-curvature="0" />
              <path
                 style="opacity:0.50409833;color:#000000;fill:#ffffff;fill-opacity:1;fill-rule:nonzero;stroke:none;stroke-width:1;marker:none;visibility:visible;display:inline;overflow:visible;enable-background:accumulate"
                 id="path3819"
                 transform="matrix(0.6,0,0,0.6,19.4,26.5)"
                 d="m 61,37.5 a 2.5,2.5 0 1 1 -5,0 2.5,2.5 0 1 1 5,0 z"
                 inkscape:connector-curvature="0" />
              <path
                 style="opacity:0.50409833;color:#000000;fill:#ffffff;fill-opacity:1;fill-rule:nonzero;stroke:none;stroke-width:1;marker:none;visibility:visible;display:inline;overflow:visible;enable-background:accumulate"
                 id="path3821"
                 transform="matrix(0.6,0,0,0.6,19.4,26.5)"
                 d="m 61,37.5 a 2.5,2.5 0 1 1 -5,0 2.5,2.5 0 1 1 5,0 z"
                 inkscape:connector-curvature="0" />
              <path
                 style="opacity:0.50409833;color:#000000;fill:#ffffff;fill-opacity:1;fill-rule:nonzero;stroke:none;stroke-width:1;marker:none;visibility:visible;display:inline;overflow:visible;enable-background:accumulate"
                 id="path3823"
                 transform="matrix(0.6,0,0,0.6,37.9,29)"
                 d="m 61,37.5 a 2.5,2.5 0 1 1 -5,0 2.5,2.5 0 1 1 5,0 z"
                 inkscape:connector-curvature="0" />
              <path
                 style="opacity:0.3;color:#000000;fill:url(#radialGradient3833-2);fill-opacity:1;fill-rule:nonzero;stroke:none;stroke-width:1;marker:none;visibility:visible;display:inline;overflow:visible;enable-background:accumulate"
                 id="path3825"
                 transform="matrix(1.6,0,0,1.6,-43.6,-16)"
                 d="m 61,37.5 a 2.5,2.5 0 1 1 -5,0 2.5,2.5 0 1 1 5,0 z"
                 inkscape:connector-curvature="0" />
              <path
                 style="opacity:0.3;color:#000000;fill:url(#radialGradient3837-50);fill-opacity:1;fill-rule:nonzero;stroke:none;stroke-width:1;marker:none;visibility:visible;display:inline;overflow:visible;enable-background:accumulate"
                 id="path3835"
                 transform="matrix(1.6,0,0,1.6,-23.6,-10)"
                 d="m 61,37.5 a 2.5,2.5 0 1 1 -5,0 2.5,2.5 0 1 1 5,0 z"
                 inkscape:connector-curvature="0" />
              <path
                 style="opacity:0.3;color:#000000;fill:url(#radialGradient3841-2);fill-opacity:1;fill-rule:nonzero;stroke:none;stroke-width:1;marker:none;visibility:visible;display:inline;overflow:visible;enable-background:accumulate"
                 id="path3839"
                 transform="matrix(1.6,0,0,1.6,-72.6,-15)"
                 d="m 61,37.5 a 2.5,2.5 0 1 1 -5,0 2.5,2.5 0 1 1 5,0 z"
                 inkscape:connector-curvature="0" />
              <path
                 style="opacity:0.3;color:#000000;fill:url(#radialGradient3845-6);fill-opacity:1;fill-rule:nonzero;stroke:none;stroke-width:1;marker:none;visibility:visible;display:inline;overflow:visible;enable-background:accumulate"
                 id="path3843"
                 transform="matrix(1.6,0,0,1.6,-59.6,-9)"
                 d="m 61,37.5 a 2.5,2.5 0 1 1 -5,0 2.5,2.5 0 1 1 5,0 z"
                 inkscape:connector-curvature="0" />
              <path
                 style="opacity:0.3;color:#000000;fill:url(#radialGradient3849-9);fill-opacity:1;fill-rule:nonzero;stroke:none;stroke-width:1;marker:none;visibility:visible;display:inline;overflow:visible;enable-background:accumulate"
                 id="path3847"
                 transform="translate(-27,2.5)"
                 d="m 61,37.5 a 2.5,2.5 0 1 1 -5,0 2.5,2.5 0 1 1 5,0 z"
                 inkscape:connector-curvature="0" />
              <path
                 style="opacity:0.3;color:#000000;fill:url(#radialGradient3853-8);fill-opacity:1;fill-rule:nonzero;stroke:none;stroke-width:1;marker:none;visibility:visible;display:inline;overflow:visible;enable-background:accumulate"
                 id="path3851"
                 transform="translate(9,4.5)"
                 d="m 61,37.5 a 2.5,2.5 0 1 1 -5,0 2.5,2.5 0 1 1 5,0 z"
                 inkscape:connector-curvature="0" />
              <path
                 style="opacity:0.3;color:#000000;fill:url(#radialGradient3857-7);fill-opacity:1;fill-rule:nonzero;stroke:none;stroke-width:1;marker:none;visibility:visible;display:inline;overflow:visible;enable-background:accumulate"
                 id="path3855"
                 transform="translate(21,6.5)"
                 d="m 61,37.5 a 2.5,2.5 0 1 1 -5,0 2.5,2.5 0 1 1 5,0 z"
                 inkscape:connector-curvature="0" />
              <path
                 style="opacity:0.3;color:#000000;fill:url(#radialGradient3861-2);fill-opacity:1;fill-rule:nonzero;stroke:none;stroke-width:1;marker:none;visibility:visible;display:inline;overflow:visible;enable-background:accumulate"
                 id="path3859"
                 transform="translate(-35,12.5)"
                 d="m 61,37.5 a 2.5,2.5 0 1 1 -5,0 2.5,2.5 0 1 1 5,0 z"
                 inkscape:connector-curvature="0" />
              <path
                 style="opacity:0.50409833;color:#000000;fill:#ffffff;fill-opacity:1;fill-rule:nonzero;stroke:none;stroke-width:1;marker:none;visibility:visible;display:inline;overflow:visible;enable-background:accumulate"
                 id="path3863"
                 transform="matrix(0.4,0,0,0.4,39.6,24)"
                 d="m 61,37.5 a 2.5,2.5 0 1 1 -5,0 2.5,2.5 0 1 1 5,0 z"
                 inkscape:connector-curvature="0" />
            </g>
          </g>
        </g>
        <g
           id="layer4"
           style="display:inline">
          <g
             id="g3117">
            <g
               style="display:inline"
               id="layer5">
              <path
                 style="font-size:21.56334305px;font-style:normal;font-variant:normal;font-weight:bold;font-stretch:normal;text-align:start;line-height:125%;writing-mode:lr-tb;text-anchor:start;opacity:0.7;fill:#ffffff;fill-opacity:1;stroke:none;font-family:BabelSans;-inkscape-font-specification:BabelSans Medium"
                 id="path3747"
                 inkscape:connector-curvature="0"
                 d="m 52.102426,58.02695 0,-2.026954 -10.113208,0 0,2.026954 4.010782,0 0,13.973047 2.070081,0 0,-13.973047 4.032345,0" />
              <path
                 style="font-size:21.56334305px;font-style:normal;font-variant:normal;font-weight:bold;font-stretch:normal;text-align:start;line-height:125%;writing-mode:lr-tb;text-anchor:start;opacity:0.7;fill:#ffffff;fill-opacity:1;stroke:none;font-family:BabelSans;-inkscape-font-specification:BabelSans Medium"
                 id="path3750"
                 inkscape:connector-curvature="0"
                 d="m 56.070081,71.999997 0,-16.000001 -2.070081,0 0,16.000001 2.070081,0" />
              <path
                 style="font-size:21.56334305px;font-style:normal;font-variant:normal;font-weight:bold;font-stretch:normal;text-align:start;line-height:125%;writing-mode:lr-tb;text-anchor:start;opacity:0.7;fill:#ffffff;fill-opacity:1;stroke:none;font-family:BabelSans;-inkscape-font-specification:BabelSans Medium"
                 id="path3752"
                 inkscape:connector-curvature="0"
                 d="m 68.56267,58.02695 0,-2.026954 -8.690028,0 0,16.000001 2.070081,0 0,-7.999997 5.714286,0 0,-2.026954 -5.714286,0 0,-3.946096 6.619947,0" />
              <path
                 style="font-size:21.56334305px;font-style:normal;font-variant:normal;font-weight:bold;font-stretch:normal;text-align:start;line-height:125%;writing-mode:lr-tb;text-anchor:start;opacity:0.7;fill:#ffffff;fill-opacity:1;stroke:none;font-family:BabelSans;-inkscape-font-specification:BabelSans Medium"
                 id="path3754"
                 inkscape:connector-curvature="0"
                 d="m 80.670486,58.02695 0,-2.026954 -8.690027,0 0,16.000001 2.070081,0 0,-7.999997 5.714286,0 0,-2.026954 -5.714286,0 0,-3.946096 6.619946,0" />
            </g>
            <path
               style="opacity:0.3;color:#000000;fill:url(#linearGradient3984);fill-opacity:1;fill-rule:nonzero;stroke:none;stroke-width:0.5;marker:none;visibility:visible;display:inline;overflow:visible;enable-background:accumulate"
               id="rect2960"
               inkscape:connector-curvature="0"
               d="m 15,20 c -1.662,0 -3,1.338 -3,3 l 0,50 c 0,1.662 1.338,3 3,3 l 66,0 c 1.662,0 3,-1.338 3,-3 l 0,-50 c 0,-1.662 -1.338,-3 -3,-3 l -66,0 z m 0,0.96875 66,0 c 1.14652,0 2.03125,0.884731 2.03125,2.03125 l 0,50 c 0,1.146519 -0.88473,2.03125 -2.03125,2.03125 l -66,0 c -1.146519,0 -2.03125,-0.884731 -2.03125,-2.03125 l 0,-50 c 0,-1.146519 0.884731,-2.03125 2.03125,-2.03125 z" />
            <path
               style="opacity:0.7;color:#000000;fill:#ffffff;fill-opacity:1;fill-rule:nonzero;stroke:none;stroke-width:0.5;marker:none;visibility:visible;display:inline;overflow:visible;enable-background:accumulate"
               id="rect3750"
               inkscape:connector-curvature="0"
               d="m 12,73 0,1 c 0,1.662 1.338,3 3,3 l 66,0 c 1.662,0 3,-1.338 3,-3 l 0,-1 c 0,1.662 -1.338,3 -3,3 l -66,0 c -1.662,0 -3,-1.338 -3,-3 z" />
          </g>
        </g>
      </g>
    </g>
  </g>
</svg>
