<?xml version="1.0" encoding="UTF-8" standalone="no"?>
<!-- Created with Inkscape (http://www.inkscape.org/) -->
<svg id="svg6307" xmlns:rdf="http://www.w3.org/1999/02/22-rdf-syntax-ns#" xmlns="http://www.w3.org/2000/svg" height="96" width="96" version="1.1" xmlns:cc="http://creativecommons.org/ns#" xmlns:xlink="http://www.w3.org/1999/xlink" xmlns:dc="http://purl.org/dc/elements/1.1/">
 <defs id="defs6309">
  <filter id="filter6279-2" color-interpolation-filters="sRGB">
   <feGaussianBlur id="feGaussianBlur6281-1" stdDeviation="0.8"/>
  </filter>
  <linearGradient id="linearGradient6047" y2="902.36" gradientUnits="userSpaceOnUse" x2="48" gradientTransform="translate(0 -.0000078516)" y1="1052.4" x1="48">
   <stop id="stop3702-39" style="stop-color:#e6e6e6" offset="0"/>
   <stop id="stop3704-1" style="stop-color:#f5f5f5" offset="1"/>
  </linearGradient>
  <linearGradient id="linearGradient6050" y2="138.66" gradientUnits="userSpaceOnUse" x2="48" y1="20.221" x1="48">
   <stop id="stop3739-2" style="stop-color:#fff" offset="0"/>
   <stop id="stop3741-1-3" style="stop-color:#fff;stop-opacity:0" offset="1"/>
  </linearGradient>
  <clipPath id="clipPath3613-7">
   <rect id="rect3615-32" style="fill:#fff" rx="6" ry="6" height="84" width="84" y="6" x="6"/>
  </clipPath>
  <filter id="filter3794-65" height="1.384" width="1.384" color-interpolation-filters="sRGB" y="-.192" x="-.192">
   <feGaussianBlur id="feGaussianBlur3796-2" stdDeviation="5.28"/>
  </filter>
  <linearGradient id="linearGradient6081" y2="35.372" gradientUnits="userSpaceOnUse" y1="75.753" gradientTransform="matrix(.93083 0 0 .93083 5.7983 960.62)" x2="46.882" x1="46.882">
   <stop id="stop3823" style="stop-color:#de6a07" offset="0"/>
   <stop id="stop3825" style="stop-color:#f8a425" offset="1"/>
  </linearGradient>
 </defs>
 <metadata id="metadata6312">
  <rdf:RDF>
   <cc:Work rdf:about="">
    <dc:format>image/svg+xml</dc:format>
    <dc:type rdf:resource="http://purl.org/dc/dcmitype/StillImage"/>
    <dc:title/>
   </cc:Work>
  </rdf:RDF>
 </metadata>
 <g id="layer1" transform="translate(0 -956.36)">
  <g id="g9636">
   <rect id="rect9283" ry="5" style="filter:url(#filter6279-2)" rx="5" transform="translate(0 -.0000078516)" height="80" width="80" y="964.36" x="8"/>
   <rect id="rect9285" style="fill:url(#linearGradient6047)" rx="5" ry="5" height="80" width="80" y="964.36" x="8"/>
   <g id="layer4" transform="translate(0 956.36)">
    <rect id="rect3171" style="opacity:.5;filter:url(#filter3794-65);stroke:#fff;stroke-linecap:round;stroke-width:.5;fill:url(#linearGradient6050)" clip-path="url(#clipPath3613-7)" rx="12" ry="12" height="66" width="66" y="15" x="15"/>
   </g>
   <path id="rect3362" d="m20.5 976.86v17.938l8.0938-17.938h-8.0938zm9.9062 0 8.0938 17.938v-17.938h-8.0938zm-0.90625 7.0312-3.0312 7h2.9286l1.7188 3.9688h3.2277l-2.375-5.2812-0.0625-0.125-2.4062-5.5625z" style="opacity:.5;fill:#999"/>
   <path id="path3799" d="m41.984 994.13-11.984 37.27h7.883l2.5598-8.8139h12.712l2.5016 8.8139h7.9121l-12.043-37.233h-9.541zm28.972 0.0287c-0.55332 0.00009-1.0954 0.0569-1.5999 0.17452-0.48823 0.11776-0.9056 0.33752-1.2799 0.63996-0.35804 0.28575-0.6611 0.67614-0.87266 1.1635-0.21157 0.47074-0.29089 1.0809-0.29089 1.8035-0.000004 0.70593 0.07931 1.287 0.29089 1.7744 0.21156 0.48751 0.51462 0.89021 0.87266 1.1926 0.3743 0.2858 0.79167 0.4765 1.2799 0.6109 0.50449 0.1177 1.0465 0.2037 1.5999 0.2036 0.55331 0.0001 1.0535-0.086 1.5417-0.2036 0.48821-0.1344 0.92186-0.3251 1.2799-0.6109 0.37429-0.3024 0.69017-0.7051 0.90174-1.1926 0.22783-0.4874 0.31996-1.0685 0.31998-1.7744-0.000012-0.7226-0.09216-1.3328-0.31998-1.8035-0.21157-0.48739-0.52745-0.87778-0.90174-1.1635-0.35804-0.30244-0.79169-0.5222-1.2799-0.63996-0.48823-0.11757-0.98838-0.17443-1.5417-0.17452zm-24.173 5.2069 4.5378 16.58h-8.9884c1.4502-5.5289 3.3644-10.958 4.4505-16.58zm20.42 5.9631v26.034h7.4758v-26.034h-7.4758z" style="fill:url(#linearGradient6081)"/>
  </g>
 </g>
</svg>
