<?xml version="1.0" encoding="UTF-8" standalone="no"?>
<!-- Created with Inkscape (http://www.inkscape.org/) -->

<svg
   xmlns:dc="http://purl.org/dc/elements/1.1/"
   xmlns:cc="http://creativecommons.org/ns#"
   xmlns:rdf="http://www.w3.org/1999/02/22-rdf-syntax-ns#"
   xmlns:svg="http://www.w3.org/2000/svg"
   xmlns="http://www.w3.org/2000/svg"
   xmlns:xlink="http://www.w3.org/1999/xlink"
   xmlns:sodipodi="http://sodipodi.sourceforge.net/DTD/sodipodi-0.dtd"
   xmlns:inkscape="http://www.inkscape.org/namespaces/inkscape"
   width="96"
   height="96"
   id="svg6307"
   version="1.1"
   inkscape:version="0.48.1 r9760"
   sodipodi:docname="image-bmp.svg">
  <defs
     id="defs6309">
    <filter
       color-interpolation-filters="sRGB"
       inkscape:collect="always"
       id="filter6279-2">
      <feGaussianBlur
         inkscape:collect="always"
         stdDeviation="0.8"
         id="feGaussianBlur6281-1" />
    </filter>
    <linearGradient
       inkscape:collect="always"
       xlink:href="#linearGradient3700-9"
       id="linearGradient9181"
       gradientUnits="userSpaceOnUse"
       gradientTransform="translate(0,-7.8515622e-6)"
       x1="48"
       y1="1052.3622"
       x2="48"
       y2="902.36218" />
    <linearGradient
       id="linearGradient3700-9">
      <stop
         id="stop3702-469"
         style="stop-color:#e6e6e6;stop-opacity:1"
         offset="0" />
      <stop
         id="stop3704-22"
         style="stop-color:#f5f5f5;stop-opacity:1"
         offset="1" />
    </linearGradient>
    <clipPath
       id="clipPath2950">
      <rect
         width="72"
         height="55.999996"
         rx="3"
         ry="3"
         x="12"
         y="20"
         id="rect2952"
         style="opacity:0.65163933;color:#000000;fill:#ff0000;fill-opacity:1;fill-rule:nonzero;stroke:none;stroke-width:1;marker:none;visibility:visible;display:inline;overflow:visible;enable-background:accumulate" />
    </clipPath>
    <linearGradient
       inkscape:collect="always"
       xlink:href="#linearGradient3940-20"
       id="linearGradient7515"
       gradientUnits="userSpaceOnUse"
       spreadMethod="reflect"
       x1="48"
       y1="48"
       x2="48"
       y2="72" />
    <linearGradient
       id="linearGradient3940-20">
      <stop
         id="stop3942-5"
         style="stop-color:#51cfcc;stop-opacity:1"
         offset="0" />
      <stop
         id="stop3944-5"
         style="stop-color:#126176;stop-opacity:1"
         offset="1" />
    </linearGradient>
    <radialGradient
       inkscape:collect="always"
       xlink:href="#linearGradient3928"
       id="radialGradient7517"
       gradientUnits="userSpaceOnUse"
       cx="56"
       cy="24"
       fx="56"
       fy="24"
       r="16" />
    <linearGradient
       id="linearGradient3928">
      <stop
         id="stop3930"
         style="stop-color:#13ce00;stop-opacity:1"
         offset="0" />
      <stop
         id="stop3932"
         style="stop-color:#008065;stop-opacity:0"
         offset="1" />
    </linearGradient>
    <radialGradient
       inkscape:collect="always"
       xlink:href="#linearGradient3739"
       id="radialGradient7519"
       gradientUnits="userSpaceOnUse"
       cx="60.562889"
       cy="49.720657"
       fx="60.562889"
       fy="49.720657"
       r="19.437111" />
    <linearGradient
       id="linearGradient3739">
      <stop
         id="stop3742-2"
         style="stop-color:#4ce6a9;stop-opacity:1"
         offset="0" />
      <stop
         id="stop3745-9"
         style="stop-color:#2a9b84;stop-opacity:0"
         offset="1" />
    </linearGradient>
    <radialGradient
       inkscape:collect="always"
       xlink:href="#linearGradient3739"
       id="radialGradient7521"
       gradientUnits="userSpaceOnUse"
       cx="47.977352"
       cy="64.057671"
       fx="47.977352"
       fy="64.057671"
       r="24.022646" />
    <linearGradient
       id="linearGradient6176">
      <stop
         id="stop6178"
         style="stop-color:#4ce6a9;stop-opacity:1"
         offset="0" />
      <stop
         id="stop6180"
         style="stop-color:#2a9b84;stop-opacity:0"
         offset="1" />
    </linearGradient>
    <radialGradient
       inkscape:collect="always"
       xlink:href="#linearGradient3751-8"
       id="radialGradient7523"
       gradientUnits="userSpaceOnUse"
       cx="60.562889"
       cy="49.720657"
       fx="60.562889"
       fy="49.720657"
       r="19.437111" />
    <linearGradient
       id="linearGradient3751-8">
      <stop
         id="stop3754"
         style="stop-color:#fcff7d;stop-opacity:1"
         offset="0" />
      <stop
         id="stop3756-3"
         style="stop-color:#009a0e;stop-opacity:0"
         offset="1" />
    </linearGradient>
    <radialGradient
       inkscape:collect="always"
       xlink:href="#linearGradient3827-8"
       id="radialGradient7525"
       gradientUnits="userSpaceOnUse"
       cx="58.5"
       cy="37.5"
       fx="58.5"
       fy="37.5"
       r="2.5" />
    <linearGradient
       id="linearGradient3827-8">
      <stop
         id="stop3829-0"
         style="stop-color:#ffffff;stop-opacity:1"
         offset="0" />
      <stop
         id="stop3831-4"
         style="stop-color:#ffffff;stop-opacity:0"
         offset="1" />
    </linearGradient>
    <radialGradient
       inkscape:collect="always"
       xlink:href="#linearGradient3827-8"
       id="radialGradient7527"
       gradientUnits="userSpaceOnUse"
       cx="58.5"
       cy="37.5"
       fx="58.5"
       fy="37.5"
       r="2.5" />
    <linearGradient
       id="linearGradient6191">
      <stop
         id="stop6193"
         style="stop-color:#ffffff;stop-opacity:1"
         offset="0" />
      <stop
         id="stop6195"
         style="stop-color:#ffffff;stop-opacity:0"
         offset="1" />
    </linearGradient>
    <radialGradient
       inkscape:collect="always"
       xlink:href="#linearGradient3827-8"
       id="radialGradient7529"
       gradientUnits="userSpaceOnUse"
       cx="58.5"
       cy="37.5"
       fx="58.5"
       fy="37.5"
       r="2.5" />
    <linearGradient
       id="linearGradient6198">
      <stop
         id="stop6200"
         style="stop-color:#ffffff;stop-opacity:1"
         offset="0" />
      <stop
         id="stop6202"
         style="stop-color:#ffffff;stop-opacity:0"
         offset="1" />
    </linearGradient>
    <radialGradient
       inkscape:collect="always"
       xlink:href="#linearGradient3827-8"
       id="radialGradient7531"
       gradientUnits="userSpaceOnUse"
       cx="58.5"
       cy="37.5"
       fx="58.5"
       fy="37.5"
       r="2.5" />
    <linearGradient
       id="linearGradient6205">
      <stop
         id="stop6207"
         style="stop-color:#ffffff;stop-opacity:1"
         offset="0" />
      <stop
         id="stop6209"
         style="stop-color:#ffffff;stop-opacity:0"
         offset="1" />
    </linearGradient>
    <radialGradient
       inkscape:collect="always"
       xlink:href="#linearGradient3827-8"
       id="radialGradient7533"
       gradientUnits="userSpaceOnUse"
       cx="58.5"
       cy="37.5"
       fx="58.5"
       fy="37.5"
       r="2.5" />
    <linearGradient
       id="linearGradient6212">
      <stop
         id="stop6214"
         style="stop-color:#ffffff;stop-opacity:1"
         offset="0" />
      <stop
         id="stop6216"
         style="stop-color:#ffffff;stop-opacity:0"
         offset="1" />
    </linearGradient>
    <radialGradient
       inkscape:collect="always"
       xlink:href="#linearGradient3827-8"
       id="radialGradient7535"
       gradientUnits="userSpaceOnUse"
       cx="58.5"
       cy="37.5"
       fx="58.5"
       fy="37.5"
       r="2.5" />
    <linearGradient
       id="linearGradient6219">
      <stop
         id="stop6221"
         style="stop-color:#ffffff;stop-opacity:1"
         offset="0" />
      <stop
         id="stop6223"
         style="stop-color:#ffffff;stop-opacity:0"
         offset="1" />
    </linearGradient>
    <radialGradient
       inkscape:collect="always"
       xlink:href="#linearGradient3827-8"
       id="radialGradient7537"
       gradientUnits="userSpaceOnUse"
       cx="58.5"
       cy="37.5"
       fx="58.5"
       fy="37.5"
       r="2.5" />
    <linearGradient
       id="linearGradient6226">
      <stop
         id="stop6228"
         style="stop-color:#ffffff;stop-opacity:1"
         offset="0" />
      <stop
         id="stop6230"
         style="stop-color:#ffffff;stop-opacity:0"
         offset="1" />
    </linearGradient>
    <radialGradient
       inkscape:collect="always"
       xlink:href="#linearGradient3827-8"
       id="radialGradient7539"
       gradientUnits="userSpaceOnUse"
       cx="58.5"
       cy="37.5"
       fx="58.5"
       fy="37.5"
       r="2.5" />
    <linearGradient
       id="linearGradient6233">
      <stop
         id="stop6235"
         style="stop-color:#ffffff;stop-opacity:1"
         offset="0" />
      <stop
         id="stop6237"
         style="stop-color:#ffffff;stop-opacity:0"
         offset="1" />
    </linearGradient>
  </defs>
  <sodipodi:namedview
     id="base"
     pagecolor="#ffffff"
     bordercolor="#666666"
     borderopacity="1.0"
     inkscape:pageopacity="0.0"
     inkscape:pageshadow="2"
     inkscape:zoom="3.959798"
     inkscape:cx="44.408849"
     inkscape:cy="54.530818"
     inkscape:document-units="px"
     inkscape:current-layer="layer1"
     showgrid="false"
     inkscape:window-width="1280"
     inkscape:window-height="725"
     inkscape:window-x="0"
     inkscape:window-y="25"
     inkscape:window-maximized="1" />
  <metadata
     id="metadata6312">
    <rdf:RDF>
      <cc:Work
         rdf:about="">
        <dc:format>image/svg+xml</dc:format>
        <dc:type
           rdf:resource="http://purl.org/dc/dcmitype/StillImage" />
        <dc:title></dc:title>
      </cc:Work>
    </rdf:RDF>
  </metadata>
  <g
     inkscape:label="Layer 1"
     inkscape:groupmode="layer"
     id="layer1"
     transform="translate(0,-956.36218)">
    <g
       id="g7541">
      <rect
         transform="translate(0,-7.8515622e-6)"
         y="964.36218"
         x="8"
         height="80"
         width="80"
         id="rect9283"
         style="fill:#000000;fill-opacity:1;stroke:none;filter:url(#filter6279-2)"
         rx="5"
         ry="5" />
      <rect
         ry="5"
         rx="5"
         style="fill:url(#linearGradient9181);fill-opacity:1;stroke:none"
         id="rect9285"
         width="80"
         height="80"
         x="8"
         y="964.36218" />
      <g
         transform="matrix(0.76388889,0,0,0.76388889,71.680554,212.04385)"
         id="g7470">
        <g
           id="layer3"
           transform="translate(-78.999998,989.36218)">
          <g
             clip-path="url(#clipPath2950)"
             id="g3871">
            <rect
               width="72"
               height="55.999996"
               x="12"
               y="20"
               id="rect3966"
               style="color:#000000;fill:url(#linearGradient7515);fill-opacity:1;fill-rule:nonzero;stroke:none;stroke-width:1;marker:none;visibility:visible;display:inline;overflow:visible;enable-background:accumulate" />
            <path
               d="m 72,24 a 16,16 0 1 1 -32,0 16,16 0 1 1 32,0 z"
               transform="matrix(2.75,0,0,2.75,-126,-40)"
               id="path3918"
               style="opacity:0.5;color:#000000;fill:url(#radialGradient7517);fill-opacity:1;fill-rule:nonzero;stroke:none;stroke-width:1;marker:none;visibility:visible;display:inline;overflow:visible;enable-background:accumulate"
               inkscape:connector-curvature="0" />
            <path
               d="m 80,49.720657 a 19.437111,19.437111 0 1 1 -38.874222,0 19.437111,19.437111 0 1 1 38.874222,0 z"
               transform="matrix(0.92606356,0,0,0.92606356,20.477805,-0.04448889)"
               id="path3865"
               style="opacity:0.75672153;color:#000000;fill:url(#radialGradient7519);fill-opacity:1;fill-rule:nonzero;stroke:none;stroke-width:1;marker:none;visibility:visible;display:inline;overflow:visible;enable-background:accumulate"
               inkscape:connector-curvature="0" />
            <path
               d="m 71.999998,64.057671 a 24.022646,24.022646 0 1 1 -48.045292,0 24.022646,24.022646 0 1 1 48.045292,0 z"
               transform="translate(-23.999998,-16.057671)"
               id="path3737"
               style="color:#000000;fill:url(#radialGradient7521);fill-opacity:1;fill-rule:nonzero;stroke:none;stroke-width:1;marker:none;visibility:visible;display:inline;overflow:visible;enable-background:accumulate"
               inkscape:connector-curvature="0" />
            <path
               d="m 80,49.720657 a 19.437111,19.437111 0 1 1 -38.874222,0 19.437111,19.437111 0 1 1 38.874222,0 z"
               transform="translate(-12.562889,-5.1577682)"
               id="path3749"
               style="opacity:0.43442622;color:#000000;fill:url(#radialGradient7523);fill-opacity:1;fill-rule:nonzero;stroke:none;stroke-width:1;marker:none;visibility:visible;display:inline;overflow:visible;enable-background:accumulate"
               inkscape:connector-curvature="0" />
            <path
               d="m 61,37.5 a 2.5,2.5 0 1 1 -5,0 2.5,2.5 0 1 1 5,0 z"
               id="path3779"
               style="opacity:0.4;color:#000000;fill:#ffffff;fill-opacity:1;fill-rule:nonzero;stroke:none;stroke-width:1;marker:none;visibility:visible;display:inline;overflow:visible;enable-background:accumulate"
               inkscape:connector-curvature="0" />
            <path
               d="m 61,37.5 a 2.5,2.5 0 1 1 -5,0 2.5,2.5 0 1 1 5,0 z"
               transform="translate(-33.5,10)"
               id="path3781"
               style="opacity:0.50409833;color:#000000;fill:#ffffff;fill-opacity:1;fill-rule:nonzero;stroke:none;stroke-width:1;marker:none;visibility:visible;display:inline;overflow:visible;enable-background:accumulate"
               inkscape:connector-curvature="0" />
            <path
               d="m 61,37.5 a 2.5,2.5 0 1 1 -5,0 2.5,2.5 0 1 1 5,0 z"
               transform="translate(4,13.5)"
               id="path3783"
               style="opacity:0.3;color:#000000;fill:#ffffff;fill-opacity:1;fill-rule:nonzero;stroke:none;stroke-width:1;marker:none;visibility:visible;display:inline;overflow:visible;enable-background:accumulate"
               inkscape:connector-curvature="0" />
            <path
               d="m 61,37.5 a 2.5,2.5 0 1 1 -5,0 2.5,2.5 0 1 1 5,0 z"
               transform="translate(17,8.5)"
               id="path3785"
               style="opacity:0.50409833;color:#000000;fill:#ffffff;fill-opacity:1;fill-rule:nonzero;stroke:none;stroke-width:1;marker:none;visibility:visible;display:inline;overflow:visible;enable-background:accumulate"
               inkscape:connector-curvature="0" />
            <path
               d="m 61,37.5 a 2.5,2.5 0 1 1 -5,0 2.5,2.5 0 1 1 5,0 z"
               transform="translate(-17,7.5)"
               id="path3787"
               style="opacity:0.50409833;color:#000000;fill:#ffffff;fill-opacity:1;fill-rule:nonzero;stroke:none;stroke-width:1;marker:none;visibility:visible;display:inline;overflow:visible;enable-background:accumulate"
               inkscape:connector-curvature="0" />
            <path
               d="m 61,37.5 a 2.5,2.5 0 1 1 -5,0 2.5,2.5 0 1 1 5,0 z"
               transform="translate(-42,3.5)"
               id="path3789"
               style="opacity:0.50409833;color:#000000;fill:#ffffff;fill-opacity:1;fill-rule:nonzero;stroke:none;stroke-width:1;marker:none;visibility:visible;display:inline;overflow:visible;enable-background:accumulate"
               inkscape:connector-curvature="0" />
            <path
               d="m 61,37.5 a 2.5,2.5 0 1 1 -5,0 2.5,2.5 0 1 1 5,0 z"
               transform="translate(-42,3.5)"
               id="path3791"
               style="opacity:0.3;color:#000000;fill:#ffffff;fill-opacity:1;fill-rule:nonzero;stroke:none;stroke-width:1;marker:none;visibility:visible;display:inline;overflow:visible;enable-background:accumulate"
               inkscape:connector-curvature="0" />
            <path
               d="m 61,37.5 a 2.5,2.5 0 1 1 -5,0 2.5,2.5 0 1 1 5,0 z"
               transform="matrix(0.4,0,0,0.4,-6.4,35)"
               id="path3793"
               style="opacity:0.50409833;color:#000000;fill:#ffffff;fill-opacity:1;fill-rule:nonzero;stroke:none;stroke-width:1;marker:none;visibility:visible;display:inline;overflow:visible;enable-background:accumulate"
               inkscape:connector-curvature="0" />
            <path
               d="m 61,37.5 a 2.5,2.5 0 1 1 -5,0 2.5,2.5 0 1 1 5,0 z"
               transform="matrix(0.4,0,0,0.4,7.6,38)"
               id="path3795"
               style="opacity:0.50409833;color:#000000;fill:#ffffff;fill-opacity:1;fill-rule:nonzero;stroke:none;stroke-width:1;marker:none;visibility:visible;display:inline;overflow:visible;enable-background:accumulate"
               inkscape:connector-curvature="0" />
            <path
               d="m 61,37.5 a 2.5,2.5 0 1 1 -5,0 2.5,2.5 0 1 1 5,0 z"
               transform="matrix(0.4,0,0,0.4,9.6,34)"
               id="path3797"
               style="opacity:0.50409833;color:#000000;fill:#ffffff;fill-opacity:1;fill-rule:nonzero;stroke:none;stroke-width:1;marker:none;visibility:visible;display:inline;overflow:visible;enable-background:accumulate"
               inkscape:connector-curvature="0" />
            <path
               d="m 61,37.5 a 2.5,2.5 0 1 1 -5,0 2.5,2.5 0 1 1 5,0 z"
               transform="matrix(0.4,0,0,0.4,16.6,36)"
               id="path3799"
               style="opacity:0.3;color:#000000;fill:#ffffff;fill-opacity:1;fill-rule:nonzero;stroke:none;stroke-width:1;marker:none;visibility:visible;display:inline;overflow:visible;enable-background:accumulate"
               inkscape:connector-curvature="0" />
            <path
               d="m 61,37.5 a 2.5,2.5 0 1 1 -5,0 2.5,2.5 0 1 1 5,0 z"
               transform="matrix(0.4,0,0,0.4,28.6,28)"
               id="path3801"
               style="opacity:0.50409833;color:#000000;fill:#ffffff;fill-opacity:1;fill-rule:nonzero;stroke:none;stroke-width:1;marker:none;visibility:visible;display:inline;overflow:visible;enable-background:accumulate"
               inkscape:connector-curvature="0" />
            <path
               d="m 61,37.5 a 2.5,2.5 0 1 1 -5,0 2.5,2.5 0 1 1 5,0 z"
               transform="matrix(0.4,0,0,0.4,45.6,33)"
               id="path3803"
               style="opacity:0.50409833;color:#000000;fill:#ffffff;fill-opacity:1;fill-rule:nonzero;stroke:none;stroke-width:1;marker:none;visibility:visible;display:inline;overflow:visible;enable-background:accumulate"
               inkscape:connector-curvature="0" />
            <path
               d="m 61,37.5 a 2.5,2.5 0 1 1 -5,0 2.5,2.5 0 1 1 5,0 z"
               transform="matrix(0.4,0,0,0.4,47.6,29)"
               id="path3805"
               style="opacity:0.50409833;color:#000000;fill:#ffffff;fill-opacity:1;fill-rule:nonzero;stroke:none;stroke-width:1;marker:none;visibility:visible;display:inline;overflow:visible;enable-background:accumulate"
               inkscape:connector-curvature="0" />
            <path
               d="m 61,37.5 a 2.5,2.5 0 1 1 -5,0 2.5,2.5 0 1 1 5,0 z"
               transform="matrix(0.4,0,0,0.4,55.6,23)"
               id="path3807"
               style="opacity:0.50409833;color:#000000;fill:#ffffff;fill-opacity:1;fill-rule:nonzero;stroke:none;stroke-width:1;marker:none;visibility:visible;display:inline;overflow:visible;enable-background:accumulate"
               inkscape:connector-curvature="0" />
            <path
               d="m 61,37.5 a 2.5,2.5 0 1 1 -5,0 2.5,2.5 0 1 1 5,0 z"
               transform="matrix(0.4,0,0,0.4,38.6,30)"
               id="path3809"
               style="opacity:0.50409833;color:#000000;fill:#ffffff;fill-opacity:1;fill-rule:nonzero;stroke:none;stroke-width:1;marker:none;visibility:visible;display:inline;overflow:visible;enable-background:accumulate"
               inkscape:connector-curvature="0" />
            <path
               d="m 61,37.5 a 2.5,2.5 0 1 1 -5,0 2.5,2.5 0 1 1 5,0 z"
               transform="matrix(0.4,0,0,0.4,38.6,30)"
               id="path3811"
               style="opacity:0.50409833;color:#000000;fill:#ffffff;fill-opacity:1;fill-rule:nonzero;stroke:none;stroke-width:1;marker:none;visibility:visible;display:inline;overflow:visible;enable-background:accumulate"
               inkscape:connector-curvature="0" />
            <path
               d="m 61,37.5 a 2.5,2.5 0 1 1 -5,0 2.5,2.5 0 1 1 5,0 z"
               transform="matrix(0.6,0,0,0.6,-1.1,21)"
               id="path3813"
               style="opacity:0.50409833;color:#000000;fill:#ffffff;fill-opacity:1;fill-rule:nonzero;stroke:none;stroke-width:1;marker:none;visibility:visible;display:inline;overflow:visible;enable-background:accumulate"
               inkscape:connector-curvature="0" />
            <path
               d="m 61,37.5 a 2.5,2.5 0 1 1 -5,0 2.5,2.5 0 1 1 5,0 z"
               transform="matrix(0.6,0,0,0.6,-6.6,18.5)"
               id="path3815"
               style="opacity:0.50409833;color:#000000;fill:#ffffff;fill-opacity:1;fill-rule:nonzero;stroke:none;stroke-width:1;marker:none;visibility:visible;display:inline;overflow:visible;enable-background:accumulate"
               inkscape:connector-curvature="0" />
            <path
               d="m 61,37.5 a 2.5,2.5 0 1 1 -5,0 2.5,2.5 0 1 1 5,0 z"
               transform="matrix(0.6,0,0,0.6,15.9,31)"
               id="path3817"
               style="opacity:0.50409833;color:#000000;fill:#ffffff;fill-opacity:1;fill-rule:nonzero;stroke:none;stroke-width:1;marker:none;visibility:visible;display:inline;overflow:visible;enable-background:accumulate"
               inkscape:connector-curvature="0" />
            <path
               d="m 61,37.5 a 2.5,2.5 0 1 1 -5,0 2.5,2.5 0 1 1 5,0 z"
               transform="matrix(0.6,0,0,0.6,19.4,26.5)"
               id="path3819"
               style="opacity:0.50409833;color:#000000;fill:#ffffff;fill-opacity:1;fill-rule:nonzero;stroke:none;stroke-width:1;marker:none;visibility:visible;display:inline;overflow:visible;enable-background:accumulate"
               inkscape:connector-curvature="0" />
            <path
               d="m 61,37.5 a 2.5,2.5 0 1 1 -5,0 2.5,2.5 0 1 1 5,0 z"
               transform="matrix(0.6,0,0,0.6,19.4,26.5)"
               id="path3821"
               style="opacity:0.50409833;color:#000000;fill:#ffffff;fill-opacity:1;fill-rule:nonzero;stroke:none;stroke-width:1;marker:none;visibility:visible;display:inline;overflow:visible;enable-background:accumulate"
               inkscape:connector-curvature="0" />
            <path
               d="m 61,37.5 a 2.5,2.5 0 1 1 -5,0 2.5,2.5 0 1 1 5,0 z"
               transform="matrix(0.6,0,0,0.6,37.9,29)"
               id="path3823"
               style="opacity:0.50409833;color:#000000;fill:#ffffff;fill-opacity:1;fill-rule:nonzero;stroke:none;stroke-width:1;marker:none;visibility:visible;display:inline;overflow:visible;enable-background:accumulate"
               inkscape:connector-curvature="0" />
            <path
               d="m 61,37.5 a 2.5,2.5 0 1 1 -5,0 2.5,2.5 0 1 1 5,0 z"
               transform="matrix(1.6,0,0,1.6,-43.6,-16)"
               id="path3825"
               style="opacity:0.3;color:#000000;fill:url(#radialGradient7525);fill-opacity:1;fill-rule:nonzero;stroke:none;stroke-width:1;marker:none;visibility:visible;display:inline;overflow:visible;enable-background:accumulate"
               inkscape:connector-curvature="0" />
            <path
               d="m 61,37.5 a 2.5,2.5 0 1 1 -5,0 2.5,2.5 0 1 1 5,0 z"
               transform="matrix(1.6,0,0,1.6,-23.6,-10)"
               id="path3835"
               style="opacity:0.3;color:#000000;fill:url(#radialGradient7527);fill-opacity:1;fill-rule:nonzero;stroke:none;stroke-width:1;marker:none;visibility:visible;display:inline;overflow:visible;enable-background:accumulate"
               inkscape:connector-curvature="0" />
            <path
               d="m 61,37.5 a 2.5,2.5 0 1 1 -5,0 2.5,2.5 0 1 1 5,0 z"
               transform="matrix(1.6,0,0,1.6,-72.6,-15)"
               id="path3839"
               style="opacity:0.3;color:#000000;fill:url(#radialGradient7529);fill-opacity:1;fill-rule:nonzero;stroke:none;stroke-width:1;marker:none;visibility:visible;display:inline;overflow:visible;enable-background:accumulate"
               inkscape:connector-curvature="0" />
            <path
               d="m 61,37.5 a 2.5,2.5 0 1 1 -5,0 2.5,2.5 0 1 1 5,0 z"
               transform="matrix(1.6,0,0,1.6,-59.6,-9)"
               id="path3843"
               style="opacity:0.3;color:#000000;fill:url(#radialGradient7531);fill-opacity:1;fill-rule:nonzero;stroke:none;stroke-width:1;marker:none;visibility:visible;display:inline;overflow:visible;enable-background:accumulate"
               inkscape:connector-curvature="0" />
            <path
               d="m 61,37.5 a 2.5,2.5 0 1 1 -5,0 2.5,2.5 0 1 1 5,0 z"
               transform="translate(-27,2.5)"
               id="path3847"
               style="opacity:0.3;color:#000000;fill:url(#radialGradient7533);fill-opacity:1;fill-rule:nonzero;stroke:none;stroke-width:1;marker:none;visibility:visible;display:inline;overflow:visible;enable-background:accumulate"
               inkscape:connector-curvature="0" />
            <path
               d="m 61,37.5 a 2.5,2.5 0 1 1 -5,0 2.5,2.5 0 1 1 5,0 z"
               transform="translate(9,4.5)"
               id="path3851"
               style="opacity:0.3;color:#000000;fill:url(#radialGradient7535);fill-opacity:1;fill-rule:nonzero;stroke:none;stroke-width:1;marker:none;visibility:visible;display:inline;overflow:visible;enable-background:accumulate"
               inkscape:connector-curvature="0" />
            <path
               d="m 61,37.5 a 2.5,2.5 0 1 1 -5,0 2.5,2.5 0 1 1 5,0 z"
               transform="translate(21,6.5)"
               id="path3855"
               style="opacity:0.3;color:#000000;fill:url(#radialGradient7537);fill-opacity:1;fill-rule:nonzero;stroke:none;stroke-width:1;marker:none;visibility:visible;display:inline;overflow:visible;enable-background:accumulate"
               inkscape:connector-curvature="0" />
            <path
               d="m 61,37.5 a 2.5,2.5 0 1 1 -5,0 2.5,2.5 0 1 1 5,0 z"
               transform="translate(-35,12.5)"
               id="path3859"
               style="opacity:0.3;color:#000000;fill:url(#radialGradient7539);fill-opacity:1;fill-rule:nonzero;stroke:none;stroke-width:1;marker:none;visibility:visible;display:inline;overflow:visible;enable-background:accumulate"
               inkscape:connector-curvature="0" />
            <path
               d="m 61,37.5 a 2.5,2.5 0 1 1 -5,0 2.5,2.5 0 1 1 5,0 z"
               transform="matrix(0.4,0,0,0.4,39.6,24)"
               id="path3863"
               style="opacity:0.50409833;color:#000000;fill:#ffffff;fill-opacity:1;fill-rule:nonzero;stroke:none;stroke-width:1;marker:none;visibility:visible;display:inline;overflow:visible;enable-background:accumulate"
               inkscape:connector-curvature="0" />
          </g>
        </g>
        <g
           id="layer5"
           style="display:inline"
           transform="translate(-78.999998,989.36218)">
          <path
             d="m 50.629667,67.256061 c -1.1e-5,-0.776275 -0.183312,-1.509428 -0.549902,-2.199461 -0.351336,-0.690019 -0.908875,-1.221915 -1.672617,-1.595687 0.488792,-0.402507 0.855392,-0.884088 1.099804,-1.444744 0.259664,-0.575012 0.389502,-1.16441 0.389514,-1.768194 -1.2e-5,-1.336915 -0.412437,-2.379142 -1.23728,-3.126685 -0.809586,-0.747514 -1.909388,-1.121278 -3.29941,-1.121294 l -5.109504,0 0,16.000001 5.178242,0 c 1.619147,-10e-7 2.886974,-0.395328 3.803487,-1.185984 0.931767,-0.790654 1.397655,-1.976637 1.397666,-3.557952 m -2.886984,-6.857143 c -8e-6,0.891295 -0.221496,1.487881 -0.664465,1.789758 -0.442983,0.301896 -1.13036,0.452839 -2.062131,0.45283 l -2.566208,0 0,-4.592992 2.359995,0 c 0.50407,1.3e-5 0.939409,0.02876 1.306017,0.08625 0.366594,0.05752 0.664457,0.17252 0.89359,0.345014 0.244393,0.172519 0.427693,0.416904 0.549902,0.733153 0.122192,0.301899 0.183292,0.697227 0.1833,1.185984 m 0.641553,6.943397 c -1e-5,0.94879 -0.24441,1.624441 -0.733203,2.026954 -0.48881,0.402517 -1.222011,0.603775 -2.199607,0.603773 l -3.001547,0 0,-5.261455 2.749509,0 c 1.023421,7e-6 1.810085,0.194077 2.359995,0.58221 0.549892,0.388146 0.824843,1.070985 0.824853,2.048518"
             inkscape:connector-curvature="0"
             id="path3747"
             style="font-size:21.56334305px;font-style:normal;font-variant:normal;font-weight:bold;font-stretch:normal;text-align:start;line-height:125%;writing-mode:lr-tb;text-anchor:start;opacity:0.7;fill:#ffffff;fill-opacity:1;stroke:none;font-family:BabelSans;-inkscape-font-specification:BabelSans Medium" />
          <path
             d="m 66.375494,71.999997 0,-16.000001 -2.680819,0 c -0.268094,0.934426 -0.573409,1.983841 -0.915948,3.148248 -0.327665,1.150057 -0.65532,2.3001 -0.982967,3.450135 -0.327664,1.135677 -0.640426,2.199468 -0.938286,3.191375 -0.282983,0.977543 -0.513832,1.76101 -0.692546,2.350404 -0.119154,-0.388136 -0.260641,-0.869717 -0.424462,-1.444744 -0.163835,-0.589392 -0.342556,-1.229104 -0.536164,-1.919137 -0.193622,-0.69002 -0.402128,-1.415985 -0.625524,-2.177898 -0.208514,-0.77627 -0.42447,-1.545362 -0.647866,-2.307278 -0.208513,-0.776268 -0.417021,-1.530984 -0.625525,-2.264151 -0.193618,-0.733139 -0.37234,-1.40879 -0.536163,-2.026954 l -2.948901,0 0,16.000001 2.144655,0 0,-11.320755 3.149963,11.320755 1.988275,0 3.082942,-10.911052 0,10.911052 2.189336,0"
             inkscape:connector-curvature="0"
             id="path3750"
             style="font-size:21.56334305px;font-style:normal;font-variant:normal;font-weight:bold;font-stretch:normal;text-align:start;line-height:125%;writing-mode:lr-tb;text-anchor:start;opacity:0.7;fill:#ffffff;fill-opacity:1;stroke:none;font-family:BabelSans;-inkscape-font-specification:BabelSans Medium" />
          <path
             d="m 79.790805,60.700805 c -1.1e-5,-0.373753 -0.02876,-0.74033 -0.08625,-1.099731 -0.05751,-0.373752 -0.158142,-0.740328 -0.301887,-1.09973 -0.215643,-0.560633 -0.481591,-1.006275 -0.797843,-1.336927 -0.301896,-0.330623 -0.64691,-0.582196 -1.035041,-0.754717 -0.388148,-0.172492 -0.812227,-0.280308 -1.272237,-0.323451 -0.460025,-0.05749 -0.941606,-0.08624 -1.444744,-0.08625 l -4.808626,0 0,16.000001 2.070081,0 0,-6.404313 2.307278,0 c 0.316257,6e-6 0.675645,-0.01437 1.078167,-0.04313 0.416885,-0.04312 0.826588,-0.114998 1.229111,-0.215633 0.402507,-0.114998 0.783459,-0.265942 1.142857,-0.452831 0.35938,-0.186875 0.646891,-0.431259 0.862534,-0.733153 0.373754,-0.503137 0.639702,-1.049408 0.797843,-1.638814 0.172496,-0.603764 0.25875,-1.207537 0.258761,-1.811321 m -2.091645,0.02156 c -8e-6,0.905671 -0.287519,1.595697 -0.862533,2.070081 -0.560655,0.460027 -1.329746,0.690035 -2.307278,0.690027 l -2.393531,0 0,-5.433962 2.889488,0 c 0.201251,1.3e-5 0.438448,0.0072 0.71159,0.02156 0.287504,1.4e-5 0.524701,0.03595 0.71159,0.107817 0.230002,0.08627 0.424072,0.222834 0.582211,0.409703 0.158123,0.17252 0.287503,0.373778 0.38814,0.603774 0.10062,0.230021 0.172498,0.481593 0.215633,0.754717 0.04312,0.258771 0.06468,0.517531 0.06469,0.77628"
             inkscape:connector-curvature="0"
             id="path3752"
             style="font-size:21.56334305px;font-style:normal;font-variant:normal;font-weight:bold;font-stretch:normal;text-align:start;line-height:125%;writing-mode:lr-tb;text-anchor:start;opacity:0.7;fill:#ffffff;fill-opacity:1;stroke:none;font-family:BabelSans;-inkscape-font-specification:BabelSans Medium" />
        </g>
      </g>
    </g>
  </g>
</svg>
