<?xml version="1.0" encoding="UTF-8" standalone="no"?>
<!-- Created with Inkscape (http://www.inkscape.org/) -->

<svg
   xmlns:dc="http://purl.org/dc/elements/1.1/"
   xmlns:cc="http://creativecommons.org/ns#"
   xmlns:rdf="http://www.w3.org/1999/02/22-rdf-syntax-ns#"
   xmlns:svg="http://www.w3.org/2000/svg"
   xmlns="http://www.w3.org/2000/svg"
   xmlns:xlink="http://www.w3.org/1999/xlink"
   xmlns:sodipodi="http://sodipodi.sourceforge.net/DTD/sodipodi-0.dtd"
   xmlns:inkscape="http://www.inkscape.org/namespaces/inkscape"
   width="96"
   height="96"
   id="svg6307"
   version="1.1"
   inkscape:version="0.48.1 r9760"
   sodipodi:docname="image-jpeg.svg">
  <defs
     id="defs6309">
    <filter
       color-interpolation-filters="sRGB"
       inkscape:collect="always"
       id="filter6279-2">
      <feGaussianBlur
         inkscape:collect="always"
         stdDeviation="0.8"
         id="feGaussianBlur6281-1" />
    </filter>
    <linearGradient
       inkscape:collect="always"
       xlink:href="#linearGradient3700-9"
       id="linearGradient7965"
       gradientUnits="userSpaceOnUse"
       gradientTransform="translate(0,-7.8515622e-6)"
       x1="48"
       y1="1052.3622"
       x2="48"
       y2="902.36218" />
    <linearGradient
       id="linearGradient3700-9">
      <stop
         id="stop3702-469"
         style="stop-color:#e6e6e6;stop-opacity:1"
         offset="0" />
      <stop
         id="stop3704-22"
         style="stop-color:#f5f5f5;stop-opacity:1"
         offset="1" />
    </linearGradient>
    <clipPath
       id="clipPath2941">
      <rect
         width="72"
         height="55.999996"
         rx="3"
         ry="3"
         x="12"
         y="20"
         id="rect2943"
         style="opacity:0.65163933;color:#000000;fill:#ff0000;fill-opacity:1;fill-rule:nonzero;stroke:none;stroke-width:1;marker:none;visibility:visible;display:inline;overflow:visible;enable-background:accumulate" />
    </clipPath>
    <linearGradient
       x1="48"
       y1="48"
       x2="48"
       y2="72"
       id="linearGradient3938-3"
       xlink:href="#linearGradient3940-46"
       gradientUnits="userSpaceOnUse"
       spreadMethod="reflect" />
    <linearGradient
       id="linearGradient3940-46">
      <stop
         id="stop3942-3"
         style="stop-color:#96c924;stop-opacity:1"
         offset="0" />
      <stop
         id="stop3944-6"
         style="stop-color:#20691d;stop-opacity:1"
         offset="1" />
    </linearGradient>
    <radialGradient
       cx="56"
       cy="24"
       r="16"
       fx="56"
       fy="24"
       id="radialGradient3934-33"
       xlink:href="#linearGradient3740-4"
       gradientUnits="userSpaceOnUse" />
    <linearGradient
       id="linearGradient3740-4">
      <stop
         id="stop3743-4"
         style="stop-color:#3391aa;stop-opacity:1"
         offset="0" />
      <stop
         id="stop3746-39"
         style="stop-color:#2c606a;stop-opacity:0"
         offset="1" />
    </linearGradient>
    <radialGradient
       cx="60.562889"
       cy="49.720657"
       r="19.437111"
       fx="60.562889"
       fy="49.720657"
       id="radialGradient3867-72"
       xlink:href="#linearGradient3739-5"
       gradientUnits="userSpaceOnUse" />
    <linearGradient
       id="linearGradient3739-5">
      <stop
         id="stop3742-8"
         style="stop-color:#e1d683;stop-opacity:1"
         offset="0" />
      <stop
         id="stop3745-90"
         style="stop-color:#c6d76d;stop-opacity:0"
         offset="1" />
    </linearGradient>
    <radialGradient
       cx="47.977352"
       cy="64.057671"
       r="24.022646"
       fx="47.977352"
       fy="64.057671"
       id="radialGradient3747-2"
       xlink:href="#linearGradient3739-5"
       gradientUnits="userSpaceOnUse" />
    <linearGradient
       id="linearGradient6270">
      <stop
         id="stop6272"
         style="stop-color:#e1d683;stop-opacity:1"
         offset="0" />
      <stop
         id="stop6274"
         style="stop-color:#c6d76d;stop-opacity:0"
         offset="1" />
    </linearGradient>
    <radialGradient
       cx="60.562889"
       cy="49.720657"
       r="19.437111"
       fx="60.562889"
       fy="49.720657"
       id="radialGradient3758-6"
       xlink:href="#linearGradient3928-5"
       gradientUnits="userSpaceOnUse" />
    <linearGradient
       id="linearGradient3928-5">
      <stop
         id="stop3930-7"
         style="stop-color:#e9842b;stop-opacity:1"
         offset="0" />
      <stop
         id="stop3932-1"
         style="stop-color:#efae16;stop-opacity:0"
         offset="1" />
    </linearGradient>
    <radialGradient
       cx="58.5"
       cy="37.5"
       r="2.5"
       fx="58.5"
       fy="37.5"
       id="radialGradient3833-3"
       xlink:href="#linearGradient3827-3"
       gradientUnits="userSpaceOnUse" />
    <linearGradient
       id="linearGradient3827-3">
      <stop
         id="stop3829-3"
         style="stop-color:#ffffff;stop-opacity:1"
         offset="0" />
      <stop
         id="stop3831-8"
         style="stop-color:#ffffff;stop-opacity:0"
         offset="1" />
    </linearGradient>
    <radialGradient
       cx="58.5"
       cy="37.5"
       r="2.5"
       fx="58.5"
       fy="37.5"
       id="radialGradient3837-5"
       xlink:href="#linearGradient3827-3"
       gradientUnits="userSpaceOnUse" />
    <linearGradient
       id="linearGradient6285">
      <stop
         id="stop6287"
         style="stop-color:#ffffff;stop-opacity:1"
         offset="0" />
      <stop
         id="stop6289"
         style="stop-color:#ffffff;stop-opacity:0"
         offset="1" />
    </linearGradient>
    <radialGradient
       cx="58.5"
       cy="37.5"
       r="2.5"
       fx="58.5"
       fy="37.5"
       id="radialGradient3841-7"
       xlink:href="#linearGradient3827-3"
       gradientUnits="userSpaceOnUse" />
    <linearGradient
       id="linearGradient6292">
      <stop
         id="stop6294"
         style="stop-color:#ffffff;stop-opacity:1"
         offset="0" />
      <stop
         id="stop6296"
         style="stop-color:#ffffff;stop-opacity:0"
         offset="1" />
    </linearGradient>
    <radialGradient
       cx="58.5"
       cy="37.5"
       r="2.5"
       fx="58.5"
       fy="37.5"
       id="radialGradient3845-3"
       xlink:href="#linearGradient3827-3"
       gradientUnits="userSpaceOnUse" />
    <linearGradient
       id="linearGradient6299">
      <stop
         id="stop6301"
         style="stop-color:#ffffff;stop-opacity:1"
         offset="0" />
      <stop
         id="stop6303"
         style="stop-color:#ffffff;stop-opacity:0"
         offset="1" />
    </linearGradient>
    <radialGradient
       cx="58.5"
       cy="37.5"
       r="2.5"
       fx="58.5"
       fy="37.5"
       id="radialGradient3849-0"
       xlink:href="#linearGradient3827-3"
       gradientUnits="userSpaceOnUse" />
    <linearGradient
       id="linearGradient6306">
      <stop
         id="stop6308"
         style="stop-color:#ffffff;stop-opacity:1"
         offset="0" />
      <stop
         id="stop6310"
         style="stop-color:#ffffff;stop-opacity:0"
         offset="1" />
    </linearGradient>
    <radialGradient
       cx="58.5"
       cy="37.5"
       r="2.5"
       fx="58.5"
       fy="37.5"
       id="radialGradient3853-1"
       xlink:href="#linearGradient3827-3"
       gradientUnits="userSpaceOnUse" />
    <linearGradient
       id="linearGradient6313">
      <stop
         id="stop6315"
         style="stop-color:#ffffff;stop-opacity:1"
         offset="0" />
      <stop
         id="stop6317"
         style="stop-color:#ffffff;stop-opacity:0"
         offset="1" />
    </linearGradient>
    <radialGradient
       cx="58.5"
       cy="37.5"
       r="2.5"
       fx="58.5"
       fy="37.5"
       id="radialGradient3857-1"
       xlink:href="#linearGradient3827-3"
       gradientUnits="userSpaceOnUse" />
    <linearGradient
       id="linearGradient6320">
      <stop
         id="stop6322"
         style="stop-color:#ffffff;stop-opacity:1"
         offset="0" />
      <stop
         id="stop6324"
         style="stop-color:#ffffff;stop-opacity:0"
         offset="1" />
    </linearGradient>
    <radialGradient
       cx="58.5"
       cy="37.5"
       r="2.5"
       fx="58.5"
       fy="37.5"
       id="radialGradient3861-9"
       xlink:href="#linearGradient3827-3"
       gradientUnits="userSpaceOnUse" />
    <linearGradient
       id="linearGradient6327">
      <stop
         id="stop6329"
         style="stop-color:#ffffff;stop-opacity:1"
         offset="0" />
      <stop
         id="stop6331"
         style="stop-color:#ffffff;stop-opacity:0"
         offset="1" />
    </linearGradient>
    <linearGradient
       x1="64"
       y1="80"
       x2="64"
       y2="-40.066647"
       id="linearGradient3944-4"
       xlink:href="#linearGradient3718-5-1"
       gradientUnits="userSpaceOnUse"
       gradientTransform="translate(-20,0)" />
    <linearGradient
       id="linearGradient3718-5-1">
      <stop
         id="stop3720-2-5"
         style="stop-color:#000000;stop-opacity:1"
         offset="0" />
      <stop
         id="stop3722-2-0"
         style="stop-color:#000000;stop-opacity:0"
         offset="1" />
    </linearGradient>
  </defs>
  <sodipodi:namedview
     id="base"
     pagecolor="#ffffff"
     bordercolor="#666666"
     borderopacity="1.0"
     inkscape:pageopacity="0.0"
     inkscape:pageshadow="2"
     inkscape:zoom="3.959798"
     inkscape:cx="36.456253"
     inkscape:cy="49.111871"
     inkscape:document-units="px"
     inkscape:current-layer="layer1"
     showgrid="false"
     inkscape:window-width="1280"
     inkscape:window-height="725"
     inkscape:window-x="0"
     inkscape:window-y="25"
     inkscape:window-maximized="1" />
  <metadata
     id="metadata6312">
    <rdf:RDF>
      <cc:Work
         rdf:about="">
        <dc:format>image/svg+xml</dc:format>
        <dc:type
           rdf:resource="http://purl.org/dc/dcmitype/StillImage" />
        <dc:title></dc:title>
      </cc:Work>
    </rdf:RDF>
  </metadata>
  <g
     inkscape:label="Layer 1"
     inkscape:groupmode="layer"
     id="layer1"
     transform="translate(0,-956.36218)">
    <g
       id="g8202">
      <rect
         transform="translate(0,-7.8515622e-6)"
         y="964.36218"
         x="8"
         height="80"
         width="80"
         id="rect9283"
         style="fill:#000000;fill-opacity:1;stroke:none;filter:url(#filter6279-2)"
         rx="5"
         ry="5" />
      <rect
         ry="5"
         rx="5"
         style="fill:url(#linearGradient7965);fill-opacity:1;stroke:none"
         id="rect9285"
         width="80"
         height="80"
         x="8"
         y="964.36218" />
      <g
         id="g3345"
         style="display:inline"
         transform="matrix(0.76388889,0,0,0.76388889,11.333333,967.04274)">
        <g
           id="g3174">
          <g
             id="g3871"
             clip-path="url(#clipPath2941)"
             style="display:inline">
            <rect
               style="color:#000000;fill:url(#linearGradient3938-3);fill-opacity:1;fill-rule:nonzero;stroke:none;stroke-width:1;marker:none;visibility:visible;display:inline;overflow:visible;enable-background:accumulate"
               id="rect3966"
               y="20"
               x="12"
               height="55.999996"
               width="72" />
            <path
               style="opacity:0.5;color:#000000;fill:url(#radialGradient3934-33);fill-opacity:1;fill-rule:nonzero;stroke:none;stroke-width:1;marker:none;visibility:visible;display:inline;overflow:visible;enable-background:accumulate"
               id="path3918"
               transform="matrix(2.4668467,0,0,2.4668467,-110.14342,-33.204321)"
               d="m 72,24 a 16,16 0 1 1 -32,0 16,16 0 1 1 32,0 z"
               inkscape:connector-curvature="0" />
            <path
               style="opacity:0.69672134;color:#000000;fill:url(#radialGradient3867-72);fill-opacity:1;fill-rule:nonzero;stroke:none;stroke-width:1;marker:none;visibility:visible;display:inline;overflow:visible;enable-background:accumulate"
               id="path3865"
               transform="matrix(0.92606356,0,0,0.92606356,20.477805,-0.04448889)"
               d="m 80,49.720657 a 19.437111,19.437111 0 1 1 -38.874222,0 19.437111,19.437111 0 1 1 38.874222,0 z"
               inkscape:connector-curvature="0" />
            <path
               style="color:#000000;fill:url(#radialGradient3747-2);fill-opacity:1;fill-rule:nonzero;stroke:none;stroke-width:1;marker:none;visibility:visible;display:inline;overflow:visible;enable-background:accumulate"
               id="path3737"
               transform="translate(-23.999998,-16.057671)"
               d="m 71.999998,64.057671 a 24.022646,24.022646 0 1 1 -48.045292,0 24.022646,24.022646 0 1 1 48.045292,0 z"
               inkscape:connector-curvature="0" />
            <path
               style="opacity:0.43442622;color:#000000;fill:url(#radialGradient3758-6);fill-opacity:1;fill-rule:nonzero;stroke:none;stroke-width:1;marker:none;visibility:visible;display:inline;overflow:visible;enable-background:accumulate"
               id="path3749"
               transform="translate(-12.562889,-5.1577682)"
               d="m 80,49.720657 a 19.437111,19.437111 0 1 1 -38.874222,0 19.437111,19.437111 0 1 1 38.874222,0 z"
               inkscape:connector-curvature="0" />
            <path
               style="opacity:0.4;color:#000000;fill:#ffffff;fill-opacity:1;fill-rule:nonzero;stroke:none;stroke-width:1;marker:none;visibility:visible;display:inline;overflow:visible;enable-background:accumulate"
               id="path3779"
               d="m 61,37.5 a 2.5,2.5 0 1 1 -5,0 2.5,2.5 0 1 1 5,0 z"
               inkscape:connector-curvature="0" />
            <path
               style="opacity:0.50409833;color:#000000;fill:#ffffff;fill-opacity:1;fill-rule:nonzero;stroke:none;stroke-width:1;marker:none;visibility:visible;display:inline;overflow:visible;enable-background:accumulate"
               id="path3781"
               transform="translate(-33.5,10)"
               d="m 61,37.5 a 2.5,2.5 0 1 1 -5,0 2.5,2.5 0 1 1 5,0 z"
               inkscape:connector-curvature="0" />
            <path
               style="opacity:0.3;color:#000000;fill:#ffffff;fill-opacity:1;fill-rule:nonzero;stroke:none;stroke-width:1;marker:none;visibility:visible;display:inline;overflow:visible;enable-background:accumulate"
               id="path3783"
               transform="translate(4,13.5)"
               d="m 61,37.5 a 2.5,2.5 0 1 1 -5,0 2.5,2.5 0 1 1 5,0 z"
               inkscape:connector-curvature="0" />
            <path
               style="opacity:0.50409833;color:#000000;fill:#ffffff;fill-opacity:1;fill-rule:nonzero;stroke:none;stroke-width:1;marker:none;visibility:visible;display:inline;overflow:visible;enable-background:accumulate"
               id="path3785"
               transform="translate(17,8.5)"
               d="m 61,37.5 a 2.5,2.5 0 1 1 -5,0 2.5,2.5 0 1 1 5,0 z"
               inkscape:connector-curvature="0" />
            <path
               style="opacity:0.50409833;color:#000000;fill:#ffffff;fill-opacity:1;fill-rule:nonzero;stroke:none;stroke-width:1;marker:none;visibility:visible;display:inline;overflow:visible;enable-background:accumulate"
               id="path3787"
               transform="translate(-17,7.5)"
               d="m 61,37.5 a 2.5,2.5 0 1 1 -5,0 2.5,2.5 0 1 1 5,0 z"
               inkscape:connector-curvature="0" />
            <path
               style="opacity:0.50409833;color:#000000;fill:#ffffff;fill-opacity:1;fill-rule:nonzero;stroke:none;stroke-width:1;marker:none;visibility:visible;display:inline;overflow:visible;enable-background:accumulate"
               id="path3789"
               transform="translate(-42,3.5)"
               d="m 61,37.5 a 2.5,2.5 0 1 1 -5,0 2.5,2.5 0 1 1 5,0 z"
               inkscape:connector-curvature="0" />
            <path
               style="opacity:0.3;color:#000000;fill:#ffffff;fill-opacity:1;fill-rule:nonzero;stroke:none;stroke-width:1;marker:none;visibility:visible;display:inline;overflow:visible;enable-background:accumulate"
               id="path3791"
               transform="translate(-42,3.5)"
               d="m 61,37.5 a 2.5,2.5 0 1 1 -5,0 2.5,2.5 0 1 1 5,0 z"
               inkscape:connector-curvature="0" />
            <path
               style="opacity:0.50409833;color:#000000;fill:#ffffff;fill-opacity:1;fill-rule:nonzero;stroke:none;stroke-width:1;marker:none;visibility:visible;display:inline;overflow:visible;enable-background:accumulate"
               id="path3793"
               transform="matrix(0.4,0,0,0.4,-6.4,35)"
               d="m 61,37.5 a 2.5,2.5 0 1 1 -5,0 2.5,2.5 0 1 1 5,0 z"
               inkscape:connector-curvature="0" />
            <path
               style="opacity:0.50409833;color:#000000;fill:#ffffff;fill-opacity:1;fill-rule:nonzero;stroke:none;stroke-width:1;marker:none;visibility:visible;display:inline;overflow:visible;enable-background:accumulate"
               id="path3795"
               transform="matrix(0.4,0,0,0.4,7.6,38)"
               d="m 61,37.5 a 2.5,2.5 0 1 1 -5,0 2.5,2.5 0 1 1 5,0 z"
               inkscape:connector-curvature="0" />
            <path
               style="opacity:0.50409833;color:#000000;fill:#ffffff;fill-opacity:1;fill-rule:nonzero;stroke:none;stroke-width:1;marker:none;visibility:visible;display:inline;overflow:visible;enable-background:accumulate"
               id="path3797"
               transform="matrix(0.4,0,0,0.4,9.6,34)"
               d="m 61,37.5 a 2.5,2.5 0 1 1 -5,0 2.5,2.5 0 1 1 5,0 z"
               inkscape:connector-curvature="0" />
            <path
               style="opacity:0.3;color:#000000;fill:#ffffff;fill-opacity:1;fill-rule:nonzero;stroke:none;stroke-width:1;marker:none;visibility:visible;display:inline;overflow:visible;enable-background:accumulate"
               id="path3799"
               transform="matrix(0.4,0,0,0.4,16.6,36)"
               d="m 61,37.5 a 2.5,2.5 0 1 1 -5,0 2.5,2.5 0 1 1 5,0 z"
               inkscape:connector-curvature="0" />
            <path
               style="opacity:0.50409833;color:#000000;fill:#ffffff;fill-opacity:1;fill-rule:nonzero;stroke:none;stroke-width:1;marker:none;visibility:visible;display:inline;overflow:visible;enable-background:accumulate"
               id="path3801"
               transform="matrix(0.4,0,0,0.4,28.6,28)"
               d="m 61,37.5 a 2.5,2.5 0 1 1 -5,0 2.5,2.5 0 1 1 5,0 z"
               inkscape:connector-curvature="0" />
            <path
               style="opacity:0.50409833;color:#000000;fill:#ffffff;fill-opacity:1;fill-rule:nonzero;stroke:none;stroke-width:1;marker:none;visibility:visible;display:inline;overflow:visible;enable-background:accumulate"
               id="path3803"
               transform="matrix(0.4,0,0,0.4,45.6,33)"
               d="m 61,37.5 a 2.5,2.5 0 1 1 -5,0 2.5,2.5 0 1 1 5,0 z"
               inkscape:connector-curvature="0" />
            <path
               style="opacity:0.50409833;color:#000000;fill:#ffffff;fill-opacity:1;fill-rule:nonzero;stroke:none;stroke-width:1;marker:none;visibility:visible;display:inline;overflow:visible;enable-background:accumulate"
               id="path3805"
               transform="matrix(0.4,0,0,0.4,47.6,29)"
               d="m 61,37.5 a 2.5,2.5 0 1 1 -5,0 2.5,2.5 0 1 1 5,0 z"
               inkscape:connector-curvature="0" />
            <path
               style="opacity:0.50409833;color:#000000;fill:#ffffff;fill-opacity:1;fill-rule:nonzero;stroke:none;stroke-width:1;marker:none;visibility:visible;display:inline;overflow:visible;enable-background:accumulate"
               id="path3807"
               transform="matrix(0.4,0,0,0.4,55.6,23)"
               d="m 61,37.5 a 2.5,2.5 0 1 1 -5,0 2.5,2.5 0 1 1 5,0 z"
               inkscape:connector-curvature="0" />
            <path
               style="opacity:0.50409833;color:#000000;fill:#ffffff;fill-opacity:1;fill-rule:nonzero;stroke:none;stroke-width:1;marker:none;visibility:visible;display:inline;overflow:visible;enable-background:accumulate"
               id="path3809"
               transform="matrix(0.4,0,0,0.4,38.6,30)"
               d="m 61,37.5 a 2.5,2.5 0 1 1 -5,0 2.5,2.5 0 1 1 5,0 z"
               inkscape:connector-curvature="0" />
            <path
               style="opacity:0.50409833;color:#000000;fill:#ffffff;fill-opacity:1;fill-rule:nonzero;stroke:none;stroke-width:1;marker:none;visibility:visible;display:inline;overflow:visible;enable-background:accumulate"
               id="path3811"
               transform="matrix(0.4,0,0,0.4,38.6,30)"
               d="m 61,37.5 a 2.5,2.5 0 1 1 -5,0 2.5,2.5 0 1 1 5,0 z"
               inkscape:connector-curvature="0" />
            <path
               style="opacity:0.50409833;color:#000000;fill:#ffffff;fill-opacity:1;fill-rule:nonzero;stroke:none;stroke-width:1;marker:none;visibility:visible;display:inline;overflow:visible;enable-background:accumulate"
               id="path3813"
               transform="matrix(0.6,0,0,0.6,-1.1,21)"
               d="m 61,37.5 a 2.5,2.5 0 1 1 -5,0 2.5,2.5 0 1 1 5,0 z"
               inkscape:connector-curvature="0" />
            <path
               style="opacity:0.50409833;color:#000000;fill:#ffffff;fill-opacity:1;fill-rule:nonzero;stroke:none;stroke-width:1;marker:none;visibility:visible;display:inline;overflow:visible;enable-background:accumulate"
               id="path3815"
               transform="matrix(0.6,0,0,0.6,-6.6,18.5)"
               d="m 61,37.5 a 2.5,2.5 0 1 1 -5,0 2.5,2.5 0 1 1 5,0 z"
               inkscape:connector-curvature="0" />
            <path
               style="opacity:0.50409833;color:#000000;fill:#ffffff;fill-opacity:1;fill-rule:nonzero;stroke:none;stroke-width:1;marker:none;visibility:visible;display:inline;overflow:visible;enable-background:accumulate"
               id="path3817"
               transform="matrix(0.6,0,0,0.6,15.9,31)"
               d="m 61,37.5 a 2.5,2.5 0 1 1 -5,0 2.5,2.5 0 1 1 5,0 z"
               inkscape:connector-curvature="0" />
            <path
               style="opacity:0.50409833;color:#000000;fill:#ffffff;fill-opacity:1;fill-rule:nonzero;stroke:none;stroke-width:1;marker:none;visibility:visible;display:inline;overflow:visible;enable-background:accumulate"
               id="path3819"
               transform="matrix(0.6,0,0,0.6,19.4,26.5)"
               d="m 61,37.5 a 2.5,2.5 0 1 1 -5,0 2.5,2.5 0 1 1 5,0 z"
               inkscape:connector-curvature="0" />
            <path
               style="opacity:0.50409833;color:#000000;fill:#ffffff;fill-opacity:1;fill-rule:nonzero;stroke:none;stroke-width:1;marker:none;visibility:visible;display:inline;overflow:visible;enable-background:accumulate"
               id="path3821"
               transform="matrix(0.6,0,0,0.6,19.4,26.5)"
               d="m 61,37.5 a 2.5,2.5 0 1 1 -5,0 2.5,2.5 0 1 1 5,0 z"
               inkscape:connector-curvature="0" />
            <path
               style="opacity:0.50409833;color:#000000;fill:#ffffff;fill-opacity:1;fill-rule:nonzero;stroke:none;stroke-width:1;marker:none;visibility:visible;display:inline;overflow:visible;enable-background:accumulate"
               id="path3823"
               transform="matrix(0.6,0,0,0.6,37.9,29)"
               d="m 61,37.5 a 2.5,2.5 0 1 1 -5,0 2.5,2.5 0 1 1 5,0 z"
               inkscape:connector-curvature="0" />
            <path
               style="opacity:0.3;color:#000000;fill:url(#radialGradient3833-3);fill-opacity:1;fill-rule:nonzero;stroke:none;stroke-width:1;marker:none;visibility:visible;display:inline;overflow:visible;enable-background:accumulate"
               id="path3825"
               transform="matrix(1.6,0,0,1.6,-43.6,-16)"
               d="m 61,37.5 a 2.5,2.5 0 1 1 -5,0 2.5,2.5 0 1 1 5,0 z"
               inkscape:connector-curvature="0" />
            <path
               style="opacity:0.3;color:#000000;fill:url(#radialGradient3837-5);fill-opacity:1;fill-rule:nonzero;stroke:none;stroke-width:1;marker:none;visibility:visible;display:inline;overflow:visible;enable-background:accumulate"
               id="path3835"
               transform="matrix(1.6,0,0,1.6,-23.6,-10)"
               d="m 61,37.5 a 2.5,2.5 0 1 1 -5,0 2.5,2.5 0 1 1 5,0 z"
               inkscape:connector-curvature="0" />
            <path
               style="opacity:0.3;color:#000000;fill:url(#radialGradient3841-7);fill-opacity:1;fill-rule:nonzero;stroke:none;stroke-width:1;marker:none;visibility:visible;display:inline;overflow:visible;enable-background:accumulate"
               id="path3839"
               transform="matrix(1.6,0,0,1.6,-72.6,-15)"
               d="m 61,37.5 a 2.5,2.5 0 1 1 -5,0 2.5,2.5 0 1 1 5,0 z"
               inkscape:connector-curvature="0" />
            <path
               style="opacity:0.3;color:#000000;fill:url(#radialGradient3845-3);fill-opacity:1;fill-rule:nonzero;stroke:none;stroke-width:1;marker:none;visibility:visible;display:inline;overflow:visible;enable-background:accumulate"
               id="path3843"
               transform="matrix(1.6,0,0,1.6,-59.6,-9)"
               d="m 61,37.5 a 2.5,2.5 0 1 1 -5,0 2.5,2.5 0 1 1 5,0 z"
               inkscape:connector-curvature="0" />
            <path
               style="opacity:0.3;color:#000000;fill:url(#radialGradient3849-0);fill-opacity:1;fill-rule:nonzero;stroke:none;stroke-width:1;marker:none;visibility:visible;display:inline;overflow:visible;enable-background:accumulate"
               id="path3847"
               transform="translate(-27,2.5)"
               d="m 61,37.5 a 2.5,2.5 0 1 1 -5,0 2.5,2.5 0 1 1 5,0 z"
               inkscape:connector-curvature="0" />
            <path
               style="opacity:0.3;color:#000000;fill:url(#radialGradient3853-1);fill-opacity:1;fill-rule:nonzero;stroke:none;stroke-width:1;marker:none;visibility:visible;display:inline;overflow:visible;enable-background:accumulate"
               id="path3851"
               transform="translate(9,4.5)"
               d="m 61,37.5 a 2.5,2.5 0 1 1 -5,0 2.5,2.5 0 1 1 5,0 z"
               inkscape:connector-curvature="0" />
            <path
               style="opacity:0.3;color:#000000;fill:url(#radialGradient3857-1);fill-opacity:1;fill-rule:nonzero;stroke:none;stroke-width:1;marker:none;visibility:visible;display:inline;overflow:visible;enable-background:accumulate"
               id="path3855"
               transform="translate(21,6.5)"
               d="m 61,37.5 a 2.5,2.5 0 1 1 -5,0 2.5,2.5 0 1 1 5,0 z"
               inkscape:connector-curvature="0" />
            <path
               style="opacity:0.3;color:#000000;fill:url(#radialGradient3861-9);fill-opacity:1;fill-rule:nonzero;stroke:none;stroke-width:1;marker:none;visibility:visible;display:inline;overflow:visible;enable-background:accumulate"
               id="path3859"
               transform="translate(-35,12.5)"
               d="m 61,37.5 a 2.5,2.5 0 1 1 -5,0 2.5,2.5 0 1 1 5,0 z"
               inkscape:connector-curvature="0" />
            <path
               style="opacity:0.50409833;color:#000000;fill:#ffffff;fill-opacity:1;fill-rule:nonzero;stroke:none;stroke-width:1;marker:none;visibility:visible;display:inline;overflow:visible;enable-background:accumulate"
               id="path3863"
               transform="matrix(0.4,0,0,0.4,39.6,24)"
               d="m 61,37.5 a 2.5,2.5 0 1 1 -5,0 2.5,2.5 0 1 1 5,0 z"
               inkscape:connector-curvature="0" />
          </g>
          <g
             style="display:inline"
             id="layer5">
            <path
               style="font-size:20.88772774px;font-style:normal;font-variant:normal;font-weight:bold;font-stretch:normal;text-align:start;line-height:125%;writing-mode:lr-tb;text-anchor:start;opacity:0.7;fill:#ffffff;fill-opacity:1;stroke:none;font-family:BabelSans;-inkscape-font-specification:BabelSans Medium"
               id="path3796"
               inkscape:connector-curvature="0"
               d="m 74.9375,56 c -1.106319,1.5e-5 -2.056973,0.24871 -2.8125,0.75 -0.755535,0.487395 -1.353787,1.126455 -1.8125,1.90625 -0.458717,0.765896 -0.797626,1.632926 -1,2.59375 -0.202375,0.960845 -0.281251,1.910774 -0.28125,2.84375 -10e-7,0.946917 0.09663,1.896846 0.3125,2.84375 0.215866,0.932989 0.576799,1.748044 1.0625,2.5 0.485696,0.751959 1.105974,1.370295 1.875,1.84375 C 73.050269,71.754704 73.969672,72 75.0625,72 c 0.55315,0 1.094552,-0.141672 1.59375,-0.40625 0.512674,-0.250652 0.978775,-0.502747 1.4375,-0.78125 l 0,0.9375 1.9375,0 0,-7.96875 -5.3125,0 0,1.9375 3.375,0 0,2.8125 c -0.188892,0.20888 -0.41341,0.395401 -0.65625,0.5625 -0.242858,0.167104 -0.497934,0.312176 -0.78125,0.4375 -0.269841,0.125329 -0.546942,0.211626 -0.84375,0.28125 -0.283332,0.06963 -0.573924,0.125002 -0.84375,0.125 -0.76903,2e-6 -1.393574,-0.183119 -1.90625,-0.53125 C 72.549813,69.044199 72.122805,68.570934 71.8125,68 71.515682,67.429073 71.291164,66.803938 71.15625,66.09375 71.034823,65.383574 70.999998,64.67894 71,63.96875 c -2e-6,-0.710174 0.03482,-1.446058 0.15625,-2.15625 0.134914,-0.710173 0.359432,-1.335308 0.65625,-1.90625 0.310305,-0.584844 0.719555,-1.058108 1.21875,-1.40625 0.512677,-0.36204 1.137221,-0.531236 1.90625,-0.53125 0.485692,1.4e-5 0.912702,0.08292 1.25,0.25 0.350775,0.15319 0.632143,0.38116 0.875,0.6875 0.256333,0.306366 0.494341,0.662082 0.65625,1.09375 0.175381,0.43169 0.316065,0.925679 0.4375,1.46875 L 79.875,60.875 c -0.148419,-0.724096 -0.368669,-1.401206 -0.625,-2 -0.24286,-0.598768 -0.564012,-1.099556 -0.96875,-1.53125 -0.391267,-0.431665 -0.853102,-0.777182 -1.40625,-1 C 76.321835,56.107038 75.679533,56.000015 74.9375,56 z m -34.90625,0.25 0,10.84375 c -6e-6,0.278507 -0.01736,0.589375 -0.03125,0.9375 -0.01393,0.334207 -0.05878,0.645074 -0.15625,0.9375 -0.08356,0.29243 -0.245952,0.541125 -0.46875,0.75 -0.208882,0.194954 -0.4851,0.312502 -0.875,0.3125 -0.320282,2e-6 -0.586301,-0.09682 -0.78125,-0.25 -0.194955,-0.153175 -0.357352,-0.36042 -0.46875,-0.625 -0.111404,-0.2785 -0.176977,-0.606693 -0.21875,-0.96875 -0.04178,-0.36205 -0.07983,-0.721167 -0.09375,-1.125 l -1.84375,0.3125 0,0.375 c 0,0.529159 0.05878,1.047272 0.15625,1.5625 0.111401,0.515233 0.280596,0.971172 0.53125,1.375 0.264577,0.389905 0.630819,0.700773 1.0625,0.9375 C 37.275428,71.875653 37.831589,72 38.5,72 c 0.793729,0 1.415465,-0.183121 1.875,-0.53125 0.473449,-0.348128 0.843091,-0.766019 1.09375,-1.28125 0.250646,-0.529154 0.399117,-1.106041 0.46875,-1.71875 0.06962,-0.626628 0.09374,-1.206915 0.09375,-1.75 l 0,-10.46875 -2,0 z m 5.875,0 0,15.5 2.03125,0 0,-6.21875 2.21875,0 c 0.306348,6e-6 0.67259,-0.0034 1.0625,-0.03125 0.403822,-0.04177 0.797589,-0.121268 1.1875,-0.21875 0.389897,-0.111395 0.745613,-0.256466 1.09375,-0.4375 0.34812,-0.18102 0.634863,-0.395065 0.84375,-0.6875 0.362044,-0.487373 0.628063,-1.02281 0.78125,-1.59375 0.167091,-0.584847 0.249989,-1.165133 0.25,-1.75 C 55.374989,60.450457 55.33694,60.09814 55.28125,59.75 55.22554,59.387958 55.139242,59.035641 55,58.6875 54.791113,58.144432 54.525094,57.695292 54.21875,57.375 c -0.292437,-0.320264 -0.62403,-0.551633 -1,-0.71875 -0.375987,-0.167086 -0.804403,-0.270709 -1.25,-0.3125 C 51.523138,56.28806 51.049874,56.25001 50.5625,56.25 l -4.65625,0 z m 12.15625,0 0,15.5 9.25,0 0,-1.96875 -7.25,0 0,-5.0625 6.0625,0 0,-1.9375 -6.0625,0 0,-4.5625 7,0 0,-1.96875 -9,0 z m -10.125,2 2.8125,0 c 0.194946,1.3e-5 0.422916,-0.01389 0.6875,0 0.278496,1.4e-5 0.506466,0.05539 0.6875,0.125 0.222795,0.08356 0.409316,0.193986 0.5625,0.375 0.153169,0.167114 0.277516,0.37096 0.375,0.59375 0.09747,0.222815 0.176966,0.454184 0.21875,0.71875 0.04177,0.250664 0.06249,0.499358 0.0625,0.75 -9e-6,0.877294 -0.286752,1.571729 -0.84375,2.03125 -0.543088,0.445613 -1.303096,0.656258 -2.25,0.65625 l -2.3125,0 0,-5.25 z" />
          </g>
        </g>
        <g
           id="layer4"
           style="display:inline">
          <path
             d="m 15,20 c -1.662,0 -3,1.338 -3,3 l 0,50 c 0,1.662 1.338,3 3,3 l 66,0 c 1.662,0 3,-1.338 3,-3 l 0,-50 c 0,-1.662 -1.338,-3 -3,-3 l -66,0 z m 0,0.96875 66,0 c 1.14652,0 2.03125,0.884731 2.03125,2.03125 l 0,50 c 0,1.146519 -0.88473,2.03125 -2.03125,2.03125 l -66,0 c -1.146519,0 -2.03125,-0.884731 -2.03125,-2.03125 l 0,-50 c 0,-1.146519 0.884731,-2.03125 2.03125,-2.03125 z"
             inkscape:connector-curvature="0"
             id="rect2960"
             style="opacity:0.3;color:#000000;fill:url(#linearGradient3944-4);fill-opacity:1;fill-rule:nonzero;stroke:none;stroke-width:0.5;marker:none;visibility:visible;display:inline;overflow:visible;enable-background:accumulate" />
          <path
             d="m 12,73 0,1 c 0,1.662 1.338,3 3,3 l 66,0 c 1.662,0 3,-1.338 3,-3 l 0,-1 c 0,1.662 -1.338,3 -3,3 l -66,0 c -1.662,0 -3,-1.338 -3,-3 z"
             inkscape:connector-curvature="0"
             id="rect3750"
             style="opacity:0.7;color:#000000;fill:#ffffff;fill-opacity:1;fill-rule:nonzero;stroke:none;stroke-width:0.5;marker:none;visibility:visible;display:inline;overflow:visible;enable-background:accumulate" />
        </g>
      </g>
    </g>
  </g>
</svg>
