<?xml version="1.0" encoding="UTF-8" standalone="no"?>
<!-- Created with Inkscape (http://www.inkscape.org/) -->

<svg
   xmlns:dc="http://purl.org/dc/elements/1.1/"
   xmlns:cc="http://creativecommons.org/ns#"
   xmlns:rdf="http://www.w3.org/1999/02/22-rdf-syntax-ns#"
   xmlns:svg="http://www.w3.org/2000/svg"
   xmlns="http://www.w3.org/2000/svg"
   xmlns:xlink="http://www.w3.org/1999/xlink"
   xmlns:sodipodi="http://sodipodi.sourceforge.net/DTD/sodipodi-0.dtd"
   xmlns:inkscape="http://www.inkscape.org/namespaces/inkscape"
   width="96"
   height="96"
   id="svg6307"
   version="1.1"
   inkscape:version="0.48.1 r9760"
   sodipodi:docname="opera-widget.svg">
  <defs
     id="defs6309">
    <filter
       color-interpolation-filters="sRGB"
       inkscape:collect="always"
       id="filter6279-2">
      <feGaussianBlur
         inkscape:collect="always"
         stdDeviation="0.8"
         id="feGaussianBlur6281-1" />
    </filter>
    <linearGradient
       inkscape:collect="always"
       xlink:href="#linearGradient3700-87"
       id="linearGradient9181"
       gradientUnits="userSpaceOnUse"
       gradientTransform="translate(0,-7.8515622e-6)"
       x1="48"
       y1="1052.3622"
       x2="48"
       y2="902.36218" />
    <linearGradient
       id="linearGradient3700-87">
      <stop
         id="stop3702-2"
         style="stop-color:#ebebeb;stop-opacity:1"
         offset="0" />
      <stop
         id="stop3704-82"
         style="stop-color:#fafafa;stop-opacity:1"
         offset="1" />
    </linearGradient>
    <linearGradient
       y2="138.66119"
       x2="48"
       y1="20.220806"
       x1="48"
       gradientUnits="userSpaceOnUse"
       id="linearGradient3119"
       xlink:href="#linearGradient3737-9-0"
       inkscape:collect="always" />
    <linearGradient
       id="linearGradient3737-9-0">
      <stop
         id="stop3739-2"
         style="stop-color:#ffffff;stop-opacity:1"
         offset="0" />
      <stop
         id="stop3741-1-4"
         style="stop-color:#ffffff;stop-opacity:0"
         offset="1" />
    </linearGradient>
    <clipPath
       id="clipPath3613-091">
      <rect
         width="84"
         height="84"
         rx="6"
         ry="6"
         x="6"
         y="6"
         id="rect3615-9"
         style="fill:#ffffff;fill-opacity:1;fill-rule:nonzero;stroke:none" />
    </clipPath>
    <filter
       x="-0.192"
       y="-0.192"
       width="1.3839999"
       height="1.3839999"
       color-interpolation-filters="sRGB"
       id="filter3794-625">
      <feGaussianBlur
         id="feGaussianBlur3796-44"
         stdDeviation="5.28" />
    </filter>
    <linearGradient
       y2="47.999897"
       x2="78.000175"
       y1="47.999897"
       x1="18.000002"
       gradientTransform="matrix(0,0.91666667,0.91666667,0,4.0000923,960.36113)"
       gradientUnits="userSpaceOnUse"
       id="linearGradient3065"
       xlink:href="#linearGradient3971"
       inkscape:collect="always" />
    <linearGradient
       x1="628"
       y1="667"
       x2="628"
       y2="779"
       id="linearGradient3971"
       gradientUnits="userSpaceOnUse"
       gradientTransform="translate(-564,-664)">
      <stop
         id="stop3973"
         style="stop-color:#4a91d6;stop-opacity:1"
         offset="0" />
      <stop
         id="stop3977"
         style="stop-color:#225c95;stop-opacity:1"
         offset="1" />
    </linearGradient>
    <linearGradient
       y2="47.999897"
       x2="78.000175"
       y1="47.999897"
       x1="18.000002"
       gradientTransform="matrix(0,0.91666667,0.91666667,0,4.0000923,960.36113)"
       gradientUnits="userSpaceOnUse"
       id="linearGradient6073"
       xlink:href="#linearGradient3971"
       inkscape:collect="always" />
  </defs>
  <sodipodi:namedview
     id="base"
     pagecolor="#ffffff"
     bordercolor="#666666"
     borderopacity="1.0"
     inkscape:pageopacity="0.0"
     inkscape:pageshadow="2"
     inkscape:zoom="3.959798"
     inkscape:cx="19.55753"
     inkscape:cy="53.125606"
     inkscape:document-units="px"
     inkscape:current-layer="layer1"
     showgrid="false"
     inkscape:window-width="1280"
     inkscape:window-height="725"
     inkscape:window-x="0"
     inkscape:window-y="25"
     inkscape:window-maximized="1" />
  <metadata
     id="metadata6312">
    <rdf:RDF>
      <cc:Work
         rdf:about="">
        <dc:format>image/svg+xml</dc:format>
        <dc:type
           rdf:resource="http://purl.org/dc/dcmitype/StillImage" />
        <dc:title></dc:title>
      </cc:Work>
    </rdf:RDF>
  </metadata>
  <g
     inkscape:label="Layer 1"
     inkscape:groupmode="layer"
     id="layer1"
     transform="translate(0,-956.36218)">
    <g
       id="g6866">
      <rect
         transform="translate(0,-7.8515622e-6)"
         y="964.36218"
         x="8"
         height="80"
         width="80"
         id="rect9283"
         style="fill:#000000;fill-opacity:1;stroke:none;filter:url(#filter6279-2)"
         rx="5"
         ry="5" />
      <rect
         ry="5"
         rx="5"
         style="fill:url(#linearGradient9181);fill-opacity:1;stroke:none"
         id="rect9285"
         width="80"
         height="80"
         x="8"
         y="964.36218" />
      <g
         style="display:inline"
         id="layer3"
         transform="translate(0,956.36218)">
        <rect
           style="opacity:0.5;fill:url(#linearGradient3119);fill-opacity:1;fill-rule:nonzero;stroke:#ffffff;stroke-width:0.5;stroke-linecap:round;stroke-linejoin:miter;stroke-miterlimit:4;stroke-opacity:1;stroke-dasharray:none;stroke-dashoffset:0;display:inline;filter:url(#filter3794-625)"
           id="rect3171"
           clip-path="url(#clipPath3613-091)"
           y="15"
           x="15"
           ry="12"
           rx="12"
           height="66"
           width="66" />
      </g>
      <path
         style="fill:url(#linearGradient6073);fill-opacity:1;fill-rule:nonzero;stroke:none;stroke-width:1;marker:none;visibility:visible;display:block;overflow:visible;enable-background:accumulate"
         id="rect3267"
         inkscape:connector-curvature="0"
         d="m 20.5,1000.564 c 0,-1.08234 0.897787,-1.95864 1.998546,-1.95864 l 3.877179,0 c 0.515599,-1.93513 1.294401,-3.78417 2.278343,-5.47598 l -2.757994,-2.75801 c -0.389177,-0.38918 -0.595296,-0.85537 -0.599566,-1.359 -0.0044,-0.50364 0.176958,-1.01635 0.559594,-1.39898 l 5.396076,-5.39608 c 0.765273,-0.76527 1.97964,-0.73838 2.757994,0.0399 l 2.757994,2.75799 c 1.691809,-0.98394 3.540858,-1.76273 5.476016,-2.27835 l 0,-3.87718 c 0,-1.10075 0.876316,-1.99854 1.958575,-1.99854 l 7.594477,0 c 1.082258,0 1.958575,0.89779 1.958575,1.99855 l 0,3.87717 c 1.935158,0.51562 3.784207,1.29441 5.476017,2.27835 l 2.757994,-2.75799 c 0.778353,-0.77835 1.992719,-0.80525 2.757992,-0.0399 l 5.396076,5.39608 c 0.765274,0.76526 0.73838,1.97963 -0.03997,2.75798 l -2.757993,2.75801 c 0.983942,1.69181 1.762743,3.54085 2.278342,5.47598 l 3.87718,0 c 1.100759,0 1.998547,0.8763 1.998547,1.95864 l 0,7.5945 c 0,1.0823 -0.897788,1.9586 -1.998546,1.9586 l -3.87718,0 c -0.515599,1.9351 -1.2944,3.7842 -2.278342,5.476 l 2.757993,2.7579 c 0.778354,0.7784 0.805244,1.9928 0.03997,2.758 l -5.396075,5.3961 c -0.765274,0.7653 -1.979641,0.7384 -2.757993,-0.039 l -2.757994,-2.758 c -1.691809,0.9839 -3.540858,1.7627 -5.476017,2.2784 l 0,3.8771 c 0,1.1007 -0.876315,1.9986 -1.958575,1.9986 l -7.594477,0 c -1.082258,0 -1.958576,-0.8979 -1.958576,-1.9986 l 0,-3.8771 c -1.935157,-0.5157 -3.784206,-1.2945 -5.476015,-2.2784 l -2.757995,2.758 c -0.778353,0.7783 -1.99272,0.8053 -2.757993,0.039 l -5.396076,-5.3961 c -0.765273,-0.7652 -0.738381,-1.9796 0.03997,-2.758 l 2.757995,-2.7579 c -0.983942,-1.6918 -1.762744,-3.5409 -2.278344,-5.476 l -3.877179,0 c -1.100759,0 -1.998545,-0.8763 -1.998545,-1.9586 l 0,-7.5945 z m 19.186043,3.7972 c 0,4.5893 3.724651,8.314 8.313953,8.314 4.589301,0 8.313952,-3.7247 8.313952,-8.314 0,-4.58934 -3.724651,-8.31396 -8.313952,-8.31396 -4.589302,0 -8.313953,3.72462 -8.313953,8.31396 z" />
    </g>
  </g>
</svg>
