<?xml version="1.0" encoding="UTF-8" standalone="no"?>
<!-- Created with Inkscape (http://www.inkscape.org/) -->

<svg
   xmlns:dc="http://purl.org/dc/elements/1.1/"
   xmlns:cc="http://creativecommons.org/ns#"
   xmlns:rdf="http://www.w3.org/1999/02/22-rdf-syntax-ns#"
   xmlns:svg="http://www.w3.org/2000/svg"
   xmlns="http://www.w3.org/2000/svg"
   xmlns:xlink="http://www.w3.org/1999/xlink"
   xmlns:sodipodi="http://sodipodi.sourceforge.net/DTD/sodipodi-0.dtd"
   xmlns:inkscape="http://www.inkscape.org/namespaces/inkscape"
   width="96"
   height="96"
   id="svg6307"
   version="1.1"
   inkscape:version="0.48.1 r9760"
   sodipodi:docname="opera-unite-application.svg">
  <defs
     id="defs6309">
    <filter
       color-interpolation-filters="sRGB"
       inkscape:collect="always"
       id="filter6279-2">
      <feGaussianBlur
         inkscape:collect="always"
         stdDeviation="0.8"
         id="feGaussianBlur6281-1" />
    </filter>
    <linearGradient
       inkscape:collect="always"
       xlink:href="#linearGradient3700-056"
       id="linearGradient9181"
       gradientUnits="userSpaceOnUse"
       gradientTransform="translate(0,-7.8515622e-6)"
       x1="48"
       y1="1052.3622"
       x2="48"
       y2="902.36218" />
    <linearGradient
       id="linearGradient3700-056">
      <stop
         id="stop3702-64"
         style="stop-color:#e6e6e6;stop-opacity:1"
         offset="0" />
      <stop
         id="stop3704-00"
         style="stop-color:#f5f5f5;stop-opacity:1"
         offset="1" />
    </linearGradient>
    <linearGradient
       y2="138.66119"
       x2="48"
       y1="20.220806"
       x1="48"
       gradientUnits="userSpaceOnUse"
       id="linearGradient3111-4"
       xlink:href="#linearGradient3737-9-3"
       inkscape:collect="always" />
    <linearGradient
       id="linearGradient3737-9-3">
      <stop
         id="stop3739-2"
         style="stop-color:#ffffff;stop-opacity:1"
         offset="0" />
      <stop
         id="stop3741-1-5"
         style="stop-color:#ffffff;stop-opacity:0"
         offset="1" />
    </linearGradient>
    <clipPath
       id="clipPath3613-17">
      <rect
         width="84"
         height="84"
         rx="6"
         ry="6"
         x="6"
         y="6"
         id="rect3615-43"
         style="fill:#ffffff;fill-opacity:1;fill-rule:nonzero;stroke:none" />
    </clipPath>
    <filter
       x="-0.192"
       y="-0.192"
       width="1.3839999"
       height="1.3839999"
       color-interpolation-filters="sRGB"
       id="filter3794-14">
      <feGaussianBlur
         id="feGaussianBlur3796-69"
         stdDeviation="5.28" />
    </filter>
    <linearGradient
       y2="-47.862404"
       x2="-132.57481"
       y1="-47.862404"
       x1="-253.91658"
       gradientTransform="matrix(0,0.62701686,-0.62701686,0,17.989465,1114.4888)"
       gradientUnits="userSpaceOnUse"
       id="linearGradient3089-0"
       xlink:href="#SVGID_4_"
       inkscape:collect="always" />
    <linearGradient
       x1="211.5"
       y1="-150"
       x2="211.5"
       y2="-262.00049"
       id="SVGID_4_"
       gradientUnits="userSpaceOnUse"
       gradientTransform="matrix(1,0,0,-1,-147.5,-142)">
      <stop
         id="stop32"
         style="stop-color:#e1a075;stop-opacity:1"
         offset="0" />
      <stop
         id="stop34"
         style="stop-color:#81422a;stop-opacity:1"
         offset="0.76340002" />
    </linearGradient>
    <linearGradient
       y2="-47.862404"
       x2="-132.57481"
       y1="-47.862404"
       x1="-253.91658"
       gradientTransform="matrix(0,0.62701686,-0.62701686,0,17.989465,1114.4888)"
       gradientUnits="userSpaceOnUse"
       id="linearGradient6073"
       xlink:href="#SVGID_4_"
       inkscape:collect="always" />
  </defs>
  <sodipodi:namedview
     id="base"
     pagecolor="#ffffff"
     bordercolor="#666666"
     borderopacity="1.0"
     inkscape:pageopacity="0.0"
     inkscape:pageshadow="2"
     inkscape:zoom="3.959798"
     inkscape:cx="22.580554"
     inkscape:cy="48.698117"
     inkscape:document-units="px"
     inkscape:current-layer="layer1"
     showgrid="false"
     inkscape:window-width="1280"
     inkscape:window-height="725"
     inkscape:window-x="0"
     inkscape:window-y="25"
     inkscape:window-maximized="1" />
  <metadata
     id="metadata6312">
    <rdf:RDF>
      <cc:Work
         rdf:about="">
        <dc:format>image/svg+xml</dc:format>
        <dc:type
           rdf:resource="http://purl.org/dc/dcmitype/StillImage" />
        <dc:title></dc:title>
      </cc:Work>
    </rdf:RDF>
  </metadata>
  <g
     inkscape:label="Layer 1"
     inkscape:groupmode="layer"
     id="layer1"
     transform="translate(0,-956.36218)">
    <g
       id="g6866">
      <rect
         transform="translate(0,-7.8515622e-6)"
         y="964.36218"
         x="8"
         height="80"
         width="80"
         id="rect9283"
         style="fill:#000000;fill-opacity:1;stroke:none;filter:url(#filter6279-2)"
         rx="5"
         ry="5" />
      <rect
         ry="5"
         rx="5"
         style="fill:url(#linearGradient9181);fill-opacity:1;stroke:none"
         id="rect9285"
         width="80"
         height="80"
         x="8"
         y="964.36218" />
      <g
         style="display:inline"
         id="layer3"
         transform="translate(0,956.36218)">
        <rect
           style="opacity:0.5;fill:url(#linearGradient3111-4);fill-opacity:1;fill-rule:nonzero;stroke:#ffffff;stroke-width:0.5;stroke-linecap:round;stroke-linejoin:miter;stroke-miterlimit:4;stroke-opacity:1;stroke-dasharray:none;stroke-dashoffset:0;filter:url(#filter3794-14)"
           id="rect3171"
           clip-path="url(#clipPath3613-17)"
           y="15"
           x="15"
           ry="12"
           rx="12"
           height="66"
           width="66" />
      </g>
      <path
         d="m 75.498667,1020.4166 c 0.07762,-5.6481 -3.229723,-12.3596 -11.247115,-16.9686 -9.273578,-5.38163 -16.282843,-0.7446 -16.282843,-0.7446 0,0 7.800873,-1.7035 10.835634,3.7621 3.034136,5.467 0.554127,8.6788 -0.64661,10.7573 -4.020432,6.9643 -0.173527,11.0359 3.076301,12.9126 3.249829,1.8767 9.212132,2.273 12.697091,-3.7621 0.979968,-1.6977 1.537173,-3.7465 1.567542,-5.9567 z m -11.46265,-33.78044 c 0,-3.7527 -2.651498,-9.11134 -9.620791,-9.11134 -6.969919,0 -15.033043,6.96302 -15.009216,19.82941 -0.02382,10.72197 7.504608,14.48017 7.504608,14.48017 0,0 -5.371967,-5.8861 -2.15537,-11.2471 3.216596,-5.36101 7.239536,-4.83979 9.640384,-4.83979 8.041491,0 9.640385,-5.35865 9.640385,-9.11135 z m -8.582294,21.69084 c 0,0 -2.429533,7.6081 -8.680265,7.5047 -6.251986,-0.1055 -7.793663,-3.8592 -8.993773,-5.9371 -4.020432,-6.9649 -9.466857,-5.6774 -12.716686,-3.8013 -3.249828,1.876 -6.561261,6.8567 -3.076301,12.893 3.483079,6.035 13.557986,9.5302 24.688788,3.0763 9.297407,-5.339 8.778237,-13.7356 8.778237,-13.7356 z"
         inkscape:connector-curvature="0"
         id="path3884"
         style="fill:url(#linearGradient6073);fill-opacity:1;display:inline" />
    </g>
  </g>
</svg>
