<?xml version="1.0" encoding="UTF-8" standalone="no"?>
<!-- Created with Inkscape (http://www.inkscape.org/) -->

<svg
   xmlns:dc="http://purl.org/dc/elements/1.1/"
   xmlns:cc="http://creativecommons.org/ns#"
   xmlns:rdf="http://www.w3.org/1999/02/22-rdf-syntax-ns#"
   xmlns:svg="http://www.w3.org/2000/svg"
   xmlns="http://www.w3.org/2000/svg"
   xmlns:xlink="http://www.w3.org/1999/xlink"
   xmlns:sodipodi="http://sodipodi.sourceforge.net/DTD/sodipodi-0.dtd"
   xmlns:inkscape="http://www.inkscape.org/namespaces/inkscape"
   width="96"
   height="96"
   id="svg6307"
   version="1.1"
   inkscape:version="0.48.1 r9760"
   sodipodi:docname="opera-extension.svg">
  <defs
     id="defs6309">
    <filter
       color-interpolation-filters="sRGB"
       inkscape:collect="always"
       id="filter6279-2">
      <feGaussianBlur
         inkscape:collect="always"
         stdDeviation="0.8"
         id="feGaussianBlur6281-1" />
    </filter>
    <linearGradient
       inkscape:collect="always"
       xlink:href="#linearGradient3700-7-1"
       id="linearGradient6105"
       gradientUnits="userSpaceOnUse"
       gradientTransform="translate(0,-7.8515622e-6)"
       x1="48"
       y1="1052.3622"
       x2="48"
       y2="902.36218" />
    <linearGradient
       id="linearGradient3700-7-1">
      <stop
         id="stop3702-2"
         style="stop-color:#e6e6e6;stop-opacity:1"
         offset="0" />
      <stop
         id="stop3704-9"
         style="stop-color:#f5f5f5;stop-opacity:1"
         offset="1" />
    </linearGradient>
    <linearGradient
       y2="64"
       x2="40"
       y1="24"
       x1="40"
       gradientTransform="translate(70,0)"
       gradientUnits="userSpaceOnUse"
       id="linearGradient3070-88"
       xlink:href="#linearGradient3960"
       inkscape:collect="always" />
    <linearGradient
       x1="483.10059"
       y1="724.99017"
       x2="483.10059"
       y2="836.99017"
       id="linearGradient3960"
       gradientUnits="userSpaceOnUse"
       gradientTransform="translate(-400.0996,-607.9902)">
      <stop
         id="stop3962"
         style="stop-color:#d174f0;stop-opacity:1"
         offset="0" />
      <stop
         id="stop3964-3"
         style="stop-color:#8a1cc2;stop-opacity:1"
         offset="1" />
    </linearGradient>
    <clipPath
       id="clipPath3144">
      <path
         d="m 118.5,17 c -3.58985,0 -6.5,2.014719 -6.5,4.5 0.10443,0.9272 0.69059,2.098034 1,2.5 1.5,2 1.5,3.25 1.125,4 L 102,28 c -2.216,0 -4,1.784 -4,4 l 0,10.125 c 0.75,0.375 2,0.375 4,-1.125 0.40197,-0.309411 1.5728,-0.89557 2.5,-1 2.48528,0 4.5,2.910149 4.5,6.5 0,3.589851 -2.01472,6.5 -4.5,6.5 -0.76276,-0.01292 -1.92237,-0.695105 -2.5,-1 -2,-1.5 -3.25,-1.5 -4,-1.125 L 98,64 c 0,2.216 1.784,4 4,4 l 16.125,0 C 118.5,67.25 118.5,66 117,64 c -0.30941,-0.401966 -0.89557,-1.5728 -1,-2.5 0,-2.485281 2.91015,-4.5 6.5,-4.5 3.58985,0 6.5,2.014719 6.5,4.5 -0.0129,0.762762 -0.6951,1.922371 -1,2.5 -1.5,2 -1.5,3.25 -1.125,4 L 134,68 c 2.216,0 4,-1.784 4,-4 l 0,-11.125 c 0.75,-0.375 2,-0.375 4,1.125 0.57763,0.304895 1.73724,0.987081 2.5,1 2.48528,0 4.5,-2.910149 4.5,-6.5 0,-3.589851 -2.01472,-6.5 -4.5,-6.5 -0.9272,0.10443 -2.09803,0.690589 -2.5,1 -2,1.5 -3.25,1.5 -4,1.125 L 138,32 c 0,-2.216 -1.784,-4 -4,-4 l -11.125,0 C 122.5,27.25 122.5,26 124,24 c 0.3049,-0.577629 0.98708,-1.737238 1,-2.5 0,-2.485281 -2.91015,-4.5 -6.5,-4.5 z"
         inkscape:connector-curvature="0"
         id="path3146"
         style="color:#000000;fill:url(#linearGradient3148);fill-opacity:1;fill-rule:nonzero;stroke:none;stroke-width:2;marker:none;visibility:visible;display:inline;overflow:visible;enable-background:accumulate" />
    </clipPath>
    <linearGradient
       y2="64"
       x2="40"
       y1="24"
       x1="40"
       gradientTransform="translate(70,0)"
       gradientUnits="userSpaceOnUse"
       id="linearGradient6068"
       xlink:href="#linearGradient3960"
       inkscape:collect="always" />
  </defs>
  <sodipodi:namedview
     id="base"
     pagecolor="#ffffff"
     bordercolor="#666666"
     borderopacity="1.0"
     inkscape:pageopacity="0.0"
     inkscape:pageshadow="2"
     inkscape:zoom="3.959798"
     inkscape:cx="36.456253"
     inkscape:cy="43.033009"
     inkscape:document-units="px"
     inkscape:current-layer="layer1"
     showgrid="false"
     inkscape:window-width="1280"
     inkscape:window-height="725"
     inkscape:window-x="0"
     inkscape:window-y="25"
     inkscape:window-maximized="1" />
  <metadata
     id="metadata6312">
    <rdf:RDF>
      <cc:Work
         rdf:about="">
        <dc:format>image/svg+xml</dc:format>
        <dc:type
           rdf:resource="http://purl.org/dc/dcmitype/StillImage" />
        <dc:title></dc:title>
      </cc:Work>
    </rdf:RDF>
  </metadata>
  <g
     inkscape:label="Layer 1"
     inkscape:groupmode="layer"
     id="layer1"
     transform="translate(0,-956.36218)">
    <g
       id="g6108">
      <rect
         transform="translate(0,-7.8515622e-6)"
         y="964.36218"
         x="8"
         height="80"
         width="80"
         id="rect9283"
         style="fill:#000000;fill-opacity:1;stroke:none;filter:url(#filter6279-2)"
         rx="5"
         ry="5" />
      <rect
         ry="5"
         rx="5"
         style="fill:url(#linearGradient6105);fill-opacity:1;stroke:none"
         id="rect9285"
         width="80"
         height="80"
         x="8"
         y="964.36218" />
      <path
         d="m 118.5,17 c -3.58985,0 -6.5,2.014719 -6.5,4.5 0.10443,0.9272 0.69059,2.098034 1,2.5 1.5,2 1.5,3.25 1.125,4 L 102,28 c -2.216,0 -4,1.784 -4,4 l 0,10.125 c 0.75,0.375 2,0.375 4,-1.125 0.40197,-0.309411 1.5728,-0.89557 2.5,-1 2.48528,0 4.5,2.910149 4.5,6.5 0,3.589851 -2.01472,6.5 -4.5,6.5 -0.76276,-0.01292 -1.92237,-0.695105 -2.5,-1 -2,-1.5 -3.25,-1.5 -4,-1.125 L 98,64 c 0,2.216 1.784,4 4,4 l 16.125,0 C 118.5,67.25 118.5,66 117,64 c -0.30941,-0.401966 -0.89557,-1.5728 -1,-2.5 0,-2.485281 2.91015,-4.5 6.5,-4.5 3.58985,0 6.5,2.014719 6.5,4.5 -0.0129,0.762762 -0.6951,1.922371 -1,2.5 -1.5,2 -1.5,3.25 -1.125,4 L 134,68 c 2.216,0 4,-1.784 4,-4 l 0,-11.125 c 0.75,-0.375 2,-0.375 4,1.125 0.57763,0.304895 1.73724,0.987081 2.5,1 2.48528,0 4.5,-2.910149 4.5,-6.5 0,-3.589851 -2.01472,-6.5 -4.5,-6.5 -0.9272,0.10443 -2.09803,0.690589 -2.5,1 -2,1.5 -3.25,1.5 -4,1.125 L 138,32 c 0,-2.216 -1.784,-4 -4,-4 l -11.125,0 C 122.5,27.25 122.5,26 124,24 c 0.3049,-0.577629 0.98708,-1.737238 1,-2.5 0,-2.485281 -2.91015,-4.5 -6.5,-4.5 z"
         inkscape:connector-curvature="0"
         transform="translate(-72,956.36218)"
         clip-path="url(#clipPath3144)"
         id="rect4096-3"
         style="color:#000000;fill:url(#linearGradient6068);fill-opacity:1;fill-rule:nonzero;stroke:none;stroke-width:2;marker:none;visibility:visible;display:inline;overflow:visible;enable-background:accumulate" />
    </g>
  </g>
</svg>
