<?xml version="1.0" encoding="UTF-8" standalone="no"?>
<!-- Created with Inkscape (http://www.inkscape.org/) -->
<svg id="svg6307" xmlns:rdf="http://www.w3.org/1999/02/22-rdf-syntax-ns#" xmlns="http://www.w3.org/2000/svg" height="96" width="96" version="1.1" xmlns:cc="http://creativecommons.org/ns#" xmlns:xlink="http://www.w3.org/1999/xlink" xmlns:dc="http://purl.org/dc/elements/1.1/">
 <defs id="defs6309">
  <filter id="filter6279-2" color-interpolation-filters="sRGB">
   <feGaussianBlur id="feGaussianBlur6281-1" stdDeviation="0.8"/>
  </filter>
  <linearGradient id="linearGradient9181" y2="902.36" gradientUnits="userSpaceOnUse" x2="48" gradientTransform="translate(0 -.0000078516)" y1="1052.4" x1="48">
   <stop id="stop3702-89" style="stop-color:#e6e6e6" offset="0"/>
   <stop id="stop3704-64" style="stop-color:#f5f5f5" offset="1"/>
  </linearGradient>
  <linearGradient id="linearGradient3092-1" y2="138.66" gradientUnits="userSpaceOnUse" y1="20.221" x2="48" x1="48">
   <stop id="stop3739-2" style="stop-color:#fff" offset="0"/>
   <stop id="stop3741-1-6" style="stop-color:#fff;stop-opacity:0" offset="1"/>
  </linearGradient>
  <clipPath id="clipPath3613-80">
   <rect id="rect3615-21" style="fill:#fff" rx="6" ry="6" height="84" width="84" y="6" x="6"/>
  </clipPath>
  <filter id="filter3794-05" height="1.384" width="1.384" color-interpolation-filters="sRGB" y="-.192" x="-.192">
   <feGaussianBlur id="feGaussianBlur3796-1" stdDeviation="5.28"/>
  </filter>
  <linearGradient id="linearGradient5994" y2="675.35" gradientUnits="userSpaceOnUse" x2="141" gradientTransform="matrix(.54585 0 0 .54585 161.7 660.67)" y1="723.35" x1="141.71">
   <stop id="stop4562" style="stop-color:#444" offset="0"/>
   <stop id="stop4564" style="stop-color:#888" offset="1"/>
  </linearGradient>
  <linearGradient id="linearGradient5962" y2="678.83" gradientUnits="userSpaceOnUse" y1="706.88" gradientTransform="matrix(.53546 0 0 .53509 162.72 668.59)" x2="120.5" x1="120.5">
   <stop id="stop3835" style="stop-color:#8fd400" offset="0"/>
   <stop id="stop3837" style="stop-color:#daff31" offset="1"/>
  </linearGradient>
 </defs>
 <metadata id="metadata6312">
  <rdf:RDF>
   <cc:Work rdf:about="">
    <dc:format>image/svg+xml</dc:format>
    <dc:type rdf:resource="http://purl.org/dc/dcmitype/StillImage"/>
    <dc:title/>
   </cc:Work>
  </rdf:RDF>
 </metadata>
 <g id="layer1" transform="translate(0 -956.36)">
  <g id="g6878">
   <rect id="rect9283" ry="5" style="filter:url(#filter6279-2)" rx="5" transform="translate(0 -.0000078516)" height="80" width="80" y="964.36" x="8"/>
   <rect id="rect9285" style="fill:url(#linearGradient9181)" rx="5" ry="5" height="80" width="80" y="964.36" x="8"/>
   <g id="layer3" transform="translate(0 956.36)">
    <rect id="rect3171" style="opacity:.5;filter:url(#filter3794-05);stroke:#fff;stroke-linecap:round;stroke-width:.5;fill:url(#linearGradient3092-1)" clip-path="url(#clipPath3613-80)" rx="12" ry="12" height="66" width="66" y="15" x="15"/>
   </g>
   <g id="g5990" transform="matrix(.98214 0 0 .98214 -177.59 -20.648)">
    <path id="path3610" style="fill:url(#linearGradient5994)" d="m201.69 1048.9c1.2187 1.5865 11.611 8.9748 25.271 8.9748s27.434-6.3214 30.729-9.5104c-2.041-3.0557-13.786-19.319-30.639-19.028-18.116 0.3132-25.101 18.403-25.361 19.564z"/>
    <path id="path3614" style="fill:url(#linearGradient5962)" d="m226.75 1031.8c-0.68335 0-1.3599 0.064-2.0115 0.1755v2.5047c-1.0738 0.2384-2.0694 0.6715-2.9693 1.2444l-1.788-1.7868c-1.1167 0.7829-2.0872 1.758-2.8735 2.8716l1.788 1.7868c-0.57322 0.8993-1.0066 1.8942-1.2452 2.9673h-2.5224c-0.11421 0.6603-0.17463 1.3337-0.17463 2.0264 0 0.6929 0.0608 1.3818 0.1756 2.042h2.5224c0.23856 1.0731 0.67198 2.068 1.2452 2.9673l-1.788 1.7868c0.78762 1.1154 1.7706 2.0721 2.8895 2.8556l1.772-1.7708c0.89991 0.5728 1.8955 1.0059 2.9693 1.2443v2.4887c0.65137 0.1113 1.3278 0.1754 2.0116 0.1754 0.70264 0 1.3905-0.058 2.0594-0.1755v-2.4887c1.0738-0.2384 2.0694-0.6715 2.9693-1.2444l1.7401 1.7549c1.1162-0.7871 2.1054-1.7535 2.8895-2.8716l-1.756-1.7549c0.57322-0.8993 1.0066-1.8942 1.2452-2.9673h2.4585c0.11348-0.6602 0.1739-1.3492 0.1739-2.0418s-0.0604-1.3661-0.17537-2.0263h-2.4585c-0.23857-1.0732-0.67198-2.068-1.2452-2.9674l1.756-1.7548c-0.78326-1.1163-1.7596-2.1008-2.8737-2.887l-1.756 1.7708c-0.8999-0.5728-1.8955-1.0059-2.9693-1.2444v-2.4887c-0.66906-0.1179-1.3573-0.1915-2.0595-0.1915zm-0.016 6.3654c2.9974 0 5.4437 2.4288 5.4437 5.4241 0 2.9954-2.4464 5.4241-5.4437 5.4241-2.9974 0.0001-5.4278-2.4287-5.4278-5.4241 0-2.9953 2.4304-5.4241 5.4278-5.4241z"/>
   </g>
  </g>
 </g>
</svg>
