<?xml version="1.0" encoding="UTF-8" standalone="no"?>
<!-- Created with Inkscape (http://www.inkscape.org/) -->

<svg
   xmlns:dc="http://purl.org/dc/elements/1.1/"
   xmlns:cc="http://creativecommons.org/ns#"
   xmlns:rdf="http://www.w3.org/1999/02/22-rdf-syntax-ns#"
   xmlns:svg="http://www.w3.org/2000/svg"
   xmlns="http://www.w3.org/2000/svg"
   xmlns:xlink="http://www.w3.org/1999/xlink"
   xmlns:sodipodi="http://sodipodi.sourceforge.net/DTD/sodipodi-0.dtd"
   xmlns:inkscape="http://www.inkscape.org/namespaces/inkscape"
   width="96"
   height="96"
   id="svg6307"
   version="1.1"
   inkscape:version="0.48.1 r9760"
   sodipodi:docname="text-x-makefile.svg">
  <defs
     id="defs6309">
    <filter
       color-interpolation-filters="sRGB"
       inkscape:collect="always"
       id="filter6279-2">
      <feGaussianBlur
         inkscape:collect="always"
         stdDeviation="0.8"
         id="feGaussianBlur6281-1" />
    </filter>
    <linearGradient
       inkscape:collect="always"
       xlink:href="#linearGradient3700-5"
       id="linearGradient6968"
       gradientUnits="userSpaceOnUse"
       gradientTransform="translate(0,-7.8515622e-6)"
       x1="48"
       y1="1052.3622"
       x2="48"
       y2="902.36218" />
    <linearGradient
       id="linearGradient3700-5">
      <stop
         id="stop3702-388"
         style="stop-color:#ebebeb;stop-opacity:1"
         offset="0" />
      <stop
         id="stop3704-31"
         style="stop-color:#fafafa;stop-opacity:1"
         offset="1" />
    </linearGradient>
    <linearGradient
       y2="47.999897"
       x2="78.000175"
       y1="47.999897"
       x1="18.000002"
       gradientTransform="matrix(0,-0.91666667,0.91666667,0,4.0000923,1048.3613)"
       gradientUnits="userSpaceOnUse"
       id="linearGradient3062"
       xlink:href="#linearGradient3697-0"
       inkscape:collect="always" />
    <linearGradient
       id="linearGradient3697-0">
      <stop
         id="stop3699-91"
         style="stop-color:#bababa;stop-opacity:1"
         offset="0" />
      <stop
         id="stop3701-9"
         style="stop-color:#d2d2d2;stop-opacity:1"
         offset="1" />
    </linearGradient>
    <linearGradient
       inkscape:collect="always"
       xlink:href="#linearGradient3737-9-4"
       id="linearGradient6960"
       gradientUnits="userSpaceOnUse"
       x1="48"
       y1="20.220806"
       x2="48"
       y2="138.66119" />
    <linearGradient
       id="linearGradient3737-9-4">
      <stop
         id="stop3739-2"
         style="stop-color:#ffffff;stop-opacity:1"
         offset="0" />
      <stop
         id="stop3741-1-7"
         style="stop-color:#ffffff;stop-opacity:0"
         offset="1" />
    </linearGradient>
    <clipPath
       id="clipPath3613-7">
      <rect
         width="84"
         height="84"
         rx="6"
         ry="6"
         x="6"
         y="6"
         id="rect3615-54"
         style="fill:#ffffff;fill-opacity:1;fill-rule:nonzero;stroke:none" />
    </clipPath>
    <filter
       x="-0.192"
       y="-0.192"
       width="1.3839999"
       height="1.3839999"
       color-interpolation-filters="sRGB"
       id="filter3794-81">
      <feGaussianBlur
         id="feGaussianBlur3796-2"
         stdDeviation="5.28" />
    </filter>
  </defs>
  <sodipodi:namedview
     id="base"
     pagecolor="#ffffff"
     bordercolor="#666666"
     borderopacity="1.0"
     inkscape:pageopacity="0.0"
     inkscape:pageshadow="2"
     inkscape:zoom="3.959798"
     inkscape:cx="39.840333"
     inkscape:cy="49.623106"
     inkscape:document-units="px"
     inkscape:current-layer="layer1"
     showgrid="false"
     inkscape:window-width="1280"
     inkscape:window-height="725"
     inkscape:window-x="0"
     inkscape:window-y="25"
     inkscape:window-maximized="1" />
  <metadata
     id="metadata6312">
    <rdf:RDF>
      <cc:Work
         rdf:about="">
        <dc:format>image/svg+xml</dc:format>
        <dc:type
           rdf:resource="http://purl.org/dc/dcmitype/StillImage" />
        <dc:title></dc:title>
      </cc:Work>
    </rdf:RDF>
  </metadata>
  <g
     inkscape:label="Layer 1"
     inkscape:groupmode="layer"
     id="layer1"
     transform="translate(0,-956.36218)">
    <g
       id="g6988">
      <rect
         transform="translate(0,-7.8515622e-6)"
         y="964.36218"
         x="8"
         height="80"
         width="80"
         id="rect9283"
         style="fill:#000000;fill-opacity:1;stroke:none;filter:url(#filter6279-2)"
         rx="5"
         ry="5" />
      <rect
         ry="5"
         rx="5"
         style="fill:url(#linearGradient6968);fill-opacity:1;stroke:none"
         id="rect9285"
         width="80"
         height="80"
         x="8"
         y="964.36218" />
      <path
         style="fill:url(#linearGradient3062);fill-opacity:1;fill-rule:nonzero;stroke:none;stroke-width:1;marker:none;visibility:visible;display:block;overflow:visible;enable-background:accumulate"
         id="rect3267"
         inkscape:connector-curvature="0"
         d="m 20.5,1008.1585 c 0,1.0823 0.897787,1.9586 1.998546,1.9586 l 3.877179,0 c 0.515599,1.9352 1.294401,3.7842 2.278343,5.476 l -2.757994,2.7579 c -0.389177,0.3893 -0.595296,0.8554 -0.599566,1.3591 -0.0044,0.5036 0.176958,1.0163 0.559594,1.3989 l 5.396076,5.3961 c 0.765273,0.7653 1.97964,0.7384 2.757994,-0.039 l 2.757994,-2.758 c 1.691809,0.9839 3.540858,1.7627 5.476016,2.2784 l 0,3.8771 c 0,1.1007 0.876316,1.9986 1.958575,1.9986 l 7.594477,0 c 1.082258,0 1.958575,-0.8979 1.958575,-1.9986 l 0,-3.8771 c 1.935158,-0.5157 3.784207,-1.2945 5.476017,-2.2784 l 2.757994,2.758 c 0.778353,0.7783 1.992719,0.8053 2.757992,0.039 l 5.396076,-5.3961 c 0.765274,-0.7652 0.73838,-1.9796 -0.03997,-2.758 l -2.757993,-2.7579 c 0.983942,-1.6918 1.762743,-3.5408 2.278342,-5.476 l 3.87718,0 c 1.100759,0 1.998547,-0.8763 1.998547,-1.9586 l 0,-7.5945 c 0,-1.08222 -0.897788,-1.95862 -1.998546,-1.95862 l -3.87718,0 c -0.515599,-1.93512 -1.2944,-3.78417 -2.278342,-5.47598 l 2.757993,-2.758 c 0.778354,-0.77835 0.805244,-1.99272 0.03997,-2.75799 l -5.396075,-5.39607 c -0.765274,-0.76527 -1.979641,-0.73838 -2.757993,0.0399 l -2.757994,2.75798 c -1.691809,-0.98394 -3.540858,-1.76273 -5.476017,-2.27834 l 0,-3.87719 c 0,-1.10074 -0.876315,-1.99854 -1.958575,-1.99854 l -7.594477,0 c -1.082258,0 -1.958576,0.8978 -1.958576,1.99854 l 0,3.87719 c -1.935157,0.5156 -3.784206,1.2944 -5.476015,2.27833 l -2.757995,-2.75798 c -0.778353,-0.77835 -1.99272,-0.80525 -2.757993,-0.0399 l -5.396076,5.39607 c -0.765273,0.76528 -0.738381,1.97965 0.03997,2.758 l 2.757995,2.758 c -0.983942,1.69181 -1.762744,3.54086 -2.278344,5.47598 l -3.877179,0 c -1.100759,0 -1.998545,0.8764 -1.998545,1.95862 l 0,7.5945 z m 19.186043,-3.7972 c 0,-4.58942 3.724651,-8.31403 8.313953,-8.31403 4.589301,0 8.313952,3.72461 8.313952,8.31403 0,4.5892 -3.724651,8.3139 -8.313952,8.3139 -4.589302,0 -8.313953,-3.7247 -8.313953,-8.3139 z" />
      <g
         id="layer3"
         style="display:inline"
         transform="translate(0,956.36218)">
        <rect
           style="opacity:0.5;fill:url(#linearGradient6960);fill-opacity:1;fill-rule:nonzero;stroke:#ffffff;stroke-width:0.5;stroke-linecap:round;stroke-linejoin:miter;stroke-miterlimit:4;stroke-opacity:1;stroke-dasharray:none;stroke-dashoffset:0;display:inline;filter:url(#filter3794-81)"
           id="rect3171"
           clip-path="url(#clipPath3613-7)"
           y="15"
           x="15"
           ry="12"
           rx="12"
           height="66"
           width="66" />
      </g>
    </g>
  </g>
</svg>
