<?xml version="1.0" encoding="UTF-8" standalone="no"?>
<!-- Created with Inkscape (http://www.inkscape.org/) -->

<svg
   xmlns:dc="http://purl.org/dc/elements/1.1/"
   xmlns:cc="http://creativecommons.org/ns#"
   xmlns:rdf="http://www.w3.org/1999/02/22-rdf-syntax-ns#"
   xmlns:svg="http://www.w3.org/2000/svg"
   xmlns="http://www.w3.org/2000/svg"
   xmlns:xlink="http://www.w3.org/1999/xlink"
   xmlns:sodipodi="http://sodipodi.sourceforge.net/DTD/sodipodi-0.dtd"
   xmlns:inkscape="http://www.inkscape.org/namespaces/inkscape"
   width="96"
   height="96"
   id="svg6307"
   version="1.1"
   inkscape:version="0.48.1 r9760"
   sodipodi:docname="text-x-sql.svg">
  <defs
     id="defs6309">
    <filter
       color-interpolation-filters="sRGB"
       inkscape:collect="always"
       id="filter6279-2">
      <feGaussianBlur
         inkscape:collect="always"
         stdDeviation="0.8"
         id="feGaussianBlur6281-1" />
    </filter>
    <linearGradient
       inkscape:collect="always"
       xlink:href="#linearGradient3700-05"
       id="linearGradient9181"
       gradientUnits="userSpaceOnUse"
       gradientTransform="translate(0,-7.8515622e-6)"
       x1="48"
       y1="1052.3622"
       x2="48"
       y2="902.36218" />
    <linearGradient
       id="linearGradient3700-05">
      <stop
         id="stop3702-11"
         style="stop-color:#e6e6e6;stop-opacity:1"
         offset="0" />
      <stop
         id="stop3704-08"
         style="stop-color:#f5f5f5;stop-opacity:1"
         offset="1" />
    </linearGradient>
    <radialGradient
       cx="90"
       cy="90"
       r="42"
       fx="90"
       fy="90"
       id="radialGradient3197"
       xlink:href="#linearGradient3700-6"
       gradientUnits="userSpaceOnUse"
       gradientTransform="matrix(0,-1.085034,2,0,-90,187.65306)" />
    <linearGradient
       id="linearGradient3700-6">
      <stop
         id="stop3702-2"
         style="stop-color:#b4b4b4;stop-opacity:1"
         offset="0" />
      <stop
         id="stop3704-67"
         style="stop-color:#dcdcdc;stop-opacity:1"
         offset="1" />
    </linearGradient>
    <linearGradient
       x1="6"
       y1="73"
       x2="24"
       y2="73"
       id="linearGradient3234-5"
       xlink:href="#linearGradient3236"
       gradientUnits="userSpaceOnUse" />
    <linearGradient
       id="linearGradient3236">
      <stop
         id="stop3238-6"
         style="stop-color:#818181;stop-opacity:1"
         offset="0" />
      <stop
         id="stop3242"
         style="stop-color:#f9f9f9;stop-opacity:1"
         offset="0.2" />
      <stop
         id="stop3240"
         style="stop-color:#dcdcdc;stop-opacity:0"
         offset="1" />
    </linearGradient>
    <linearGradient
       x1="6"
       y1="73"
       x2="24"
       y2="73"
       id="linearGradient3246-9"
       xlink:href="#linearGradient3236"
       gradientUnits="userSpaceOnUse"
       gradientTransform="matrix(-1,0,0,1,96,0)" />
    <linearGradient
       id="linearGradient6082">
      <stop
         id="stop6084"
         style="stop-color:#818181;stop-opacity:1"
         offset="0" />
      <stop
         id="stop6086"
         style="stop-color:#f9f9f9;stop-opacity:1"
         offset="0.2" />
      <stop
         id="stop6088"
         style="stop-color:#dcdcdc;stop-opacity:0"
         offset="1" />
    </linearGradient>
    <linearGradient
       x1="38.748035"
       y1="32.029934"
       x2="38.748035"
       y2="5.8331571"
       id="linearGradient3685"
       xlink:href="#linearGradient3199-2"
       gradientUnits="userSpaceOnUse" />
    <linearGradient
       id="linearGradient3199-2">
      <stop
         id="stop3201-8"
         style="stop-color:#dcdcdc;stop-opacity:1"
         offset="0" />
      <stop
         id="stop3203-2"
         style="stop-color:#fafafa;stop-opacity:1"
         offset="1" />
    </linearGradient>
    <linearGradient
       x1="24"
       y1="34"
       x2="88"
       y2="14"
       id="linearGradient3220-9"
       xlink:href="#linearGradient3737-96"
       gradientUnits="userSpaceOnUse" />
    <linearGradient
       id="linearGradient3737-96">
      <stop
         id="stop3739-02"
         style="stop-color:#ffffff;stop-opacity:1"
         offset="0" />
      <stop
         id="stop3741-76"
         style="stop-color:#ffffff;stop-opacity:0"
         offset="1" />
    </linearGradient>
    <linearGradient
       inkscape:collect="always"
       xlink:href="#linearGradient3700-05"
       id="linearGradient3120"
       gradientUnits="userSpaceOnUse"
       gradientTransform="translate(0,-7.8515622e-6)"
       x1="48"
       y1="1052.3622"
       x2="48"
       y2="902.36218" />
    <filter
       color-interpolation-filters="sRGB"
       inkscape:collect="always"
       id="filter6279-2-3">
      <feGaussianBlur
         inkscape:collect="always"
         stdDeviation="0.8"
         id="feGaussianBlur6281-1-1" />
    </filter>
    <linearGradient
       inkscape:collect="always"
       xlink:href="#linearGradient3700-05-8"
       id="linearGradient6148"
       gradientUnits="userSpaceOnUse"
       gradientTransform="translate(0,-7.8515622e-6)"
       x1="48"
       y1="1052.3622"
       x2="48"
       y2="902.36218" />
    <linearGradient
       id="linearGradient3700-05-8">
      <stop
         id="stop3702-11-9"
         style="stop-color:#e6e6e6;stop-opacity:1"
         offset="0" />
      <stop
         id="stop3704-08-6"
         style="stop-color:#f5f5f5;stop-opacity:1"
         offset="1" />
    </linearGradient>
    <radialGradient
       inkscape:collect="always"
       xlink:href="#linearGradient3700-6-4"
       id="radialGradient6210"
       gradientUnits="userSpaceOnUse"
       gradientTransform="matrix(0,-0.71043892,1.3095238,0,-42.357142,1095.8017)"
       cx="90"
       cy="90"
       fx="90"
       fy="90"
       r="42" />
    <linearGradient
       id="linearGradient3700-6-4">
      <stop
         id="stop3702-2-3"
         style="stop-color:#b4b4b4;stop-opacity:1"
         offset="0" />
      <stop
         id="stop3704-67-3"
         style="stop-color:#dcdcdc;stop-opacity:1"
         offset="1" />
    </linearGradient>
    <linearGradient
       inkscape:collect="always"
       xlink:href="#linearGradient3236-3"
       id="linearGradient6207"
       gradientUnits="userSpaceOnUse"
       x1="6"
       y1="73"
       x2="24"
       y2="73"
       gradientTransform="matrix(0.6547619,0,0,0.6547619,16.571429,972.93361)" />
    <linearGradient
       id="linearGradient3236-3">
      <stop
         id="stop3238-6-8"
         style="stop-color:#818181;stop-opacity:1"
         offset="0" />
      <stop
         id="stop3242-6"
         style="stop-color:#f9f9f9;stop-opacity:1"
         offset="0.2" />
      <stop
         id="stop3240-0"
         style="stop-color:#dcdcdc;stop-opacity:0"
         offset="1" />
    </linearGradient>
    <linearGradient
       inkscape:collect="always"
       xlink:href="#linearGradient3236-3"
       id="linearGradient6204"
       gradientUnits="userSpaceOnUse"
       gradientTransform="matrix(-0.6547619,0,0,0.6547619,79.428571,972.93361)"
       x1="6"
       y1="73"
       x2="24"
       y2="73" />
    <linearGradient
       id="linearGradient7025">
      <stop
         id="stop7027"
         style="stop-color:#818181;stop-opacity:1"
         offset="0" />
      <stop
         id="stop7029"
         style="stop-color:#f9f9f9;stop-opacity:1"
         offset="0.2" />
      <stop
         id="stop7031"
         style="stop-color:#dcdcdc;stop-opacity:0"
         offset="1" />
    </linearGradient>
    <linearGradient
       inkscape:collect="always"
       xlink:href="#linearGradient3199-2-4"
       id="linearGradient6194"
       gradientUnits="userSpaceOnUse"
       x1="38.748035"
       y1="32.029934"
       x2="38.748035"
       y2="5.8331571"
       gradientTransform="matrix(0.6547619,0,0,0.6547619,16.571429,972.93361)" />
    <linearGradient
       id="linearGradient3199-2-4">
      <stop
         id="stop3201-8-8"
         style="stop-color:#dcdcdc;stop-opacity:1"
         offset="0" />
      <stop
         id="stop3203-2-8"
         style="stop-color:#fafafa;stop-opacity:1"
         offset="1" />
    </linearGradient>
    <linearGradient
       inkscape:collect="always"
       xlink:href="#linearGradient3700-6-4"
       id="linearGradient6191"
       gradientUnits="userSpaceOnUse"
       x1="47.964882"
       y1="34.101242"
       x2="48.004547"
       y2="5.9818187"
       gradientTransform="matrix(0.6547619,0,0,0.6547619,16.571429,972.93361)" />
    <linearGradient
       id="linearGradient7038">
      <stop
         id="stop7040"
         style="stop-color:#b4b4b4;stop-opacity:1"
         offset="0" />
      <stop
         id="stop7042"
         style="stop-color:#dcdcdc;stop-opacity:1"
         offset="1" />
    </linearGradient>
  </defs>
  <sodipodi:namedview
     id="base"
     pagecolor="#ffffff"
     bordercolor="#666666"
     borderopacity="1.0"
     inkscape:pageopacity="0.0"
     inkscape:pageshadow="2"
     inkscape:zoom="5.6"
     inkscape:cx="33.177528"
     inkscape:cy="49.030735"
     inkscape:document-units="px"
     inkscape:current-layer="layer1"
     showgrid="false"
     inkscape:window-width="1280"
     inkscape:window-height="725"
     inkscape:window-x="0"
     inkscape:window-y="25"
     inkscape:window-maximized="1" />
  <metadata
     id="metadata6312">
    <rdf:RDF>
      <cc:Work
         rdf:about="">
        <dc:format>image/svg+xml</dc:format>
        <dc:type
           rdf:resource="http://purl.org/dc/dcmitype/StillImage" />
        <dc:title></dc:title>
      </cc:Work>
    </rdf:RDF>
  </metadata>
  <g
     inkscape:label="Layer 1"
     inkscape:groupmode="layer"
     id="layer1"
     transform="translate(0,-956.36218)">
    <g
       id="g6980">
      <rect
         transform="translate(0,-7.8515622e-6)"
         y="964.36218"
         x="8"
         height="80"
         width="80"
         id="rect9283"
         style="fill:#000000;fill-opacity:1;stroke:none;filter:url(#filter6279-2-3)"
         rx="5"
         ry="5" />
      <rect
         ry="5"
         rx="5"
         style="fill:url(#linearGradient6148);fill-opacity:1;stroke:none"
         id="rect9285"
         width="80"
         height="80"
         x="8"
         y="964.36218" />
      <rect
         width="55"
         height="55"
         rx="3.9285715"
         ry="3.9285715"
         x="20.5"
         y="976.86218"
         id="rect2419"
         style="fill:url(#radialGradient6210);fill-opacity:1;fill-rule:nonzero;stroke:none" />
      <path
         d="m 20.5,989.95742 0,37.97618 c 0,2.1764 1.752143,3.9286 3.928572,3.9286 l 7.857143,0 0,-41.90478 -11.785715,0 z"
         inkscape:connector-curvature="0"
         id="rect3222"
         style="fill:url(#linearGradient6207);fill-opacity:1;fill-rule:nonzero;stroke:none" />
      <path
         d="m 75.5,989.95742 0,37.97618 c 0,2.1764 -1.752143,3.9286 -3.928571,3.9286 l -7.857143,0 0,-41.90478 11.785714,0 z"
         inkscape:connector-curvature="0"
         id="path3244"
         style="fill:url(#linearGradient6204);fill-opacity:1;fill-rule:nonzero;stroke:none" />
      <path
         d="m 20.5,1026.6241 0,1.3095 c 0,2.1764 1.752143,3.9286 3.928572,3.9286 l 47.142857,0 c 2.176428,0 3.928571,-1.7522 3.928571,-3.9286 l 0,-1.3095 c 0,2.1764 -1.752143,3.9286 -3.928571,3.9286 l -47.142857,0 c -2.176429,0 -3.928572,-1.7522 -3.928572,-3.9286 z"
         inkscape:connector-curvature="0"
         id="rect2412"
         style="opacity:0.15;fill:#000000;fill-opacity:1;fill-rule:nonzero;stroke:none" />
      <g
         transform="matrix(0.6547619,0,0,0.6547619,16.571429,971.62409)"
         id="g3687">
        <path
           d="m 6,58 0,2 c 0,3.324 2.676,6 6,6 l 72,0 c 3.324,0 6,-2.676 6,-6 l 0,-2 c 0,3.324 -2.676,6 -6,6 L 12,64 C 8.676,64 6,61.324 6,58 z"
           inkscape:connector-curvature="0"
           id="path3187"
           style="opacity:0.8;fill:#ffffff;fill-opacity:1;fill-rule:nonzero;stroke:none" />
        <path
           d="m 6,56 0,2 c 0,3.324 2.676,6 6,6 l 72,0 c 3.324,0 6,-2.676 6,-6 l 0,-2 c 0,3.324 -2.676,6 -6,6 L 12,62 C 8.676,62 6,59.324 6,56 z"
           inkscape:connector-curvature="0"
           id="path3189"
           style="opacity:0.15;fill:#000000;fill-opacity:1;fill-rule:nonzero;stroke:none" />
      </g>
      <g
         transform="matrix(0.6547619,0,0,0.6547619,16.571429,972.93361)"
         id="g3691">
        <path
           d="m 6,42 0,2 c 0,3.324 2.676,6 6,6 l 72,0 c 3.324,0 6,-2.676 6,-6 l 0,-2 c 0,3.324 -2.676,6 -6,6 L 12,48 C 8.676,48 6,45.324 6,42 z"
           inkscape:connector-curvature="0"
           id="path3191"
           style="opacity:0.8;fill:#ffffff;fill-opacity:1;fill-rule:nonzero;stroke:none" />
        <path
           d="m 6,40 0,2 c 0,3.324 2.676,6 6,6 l 72,0 c 3.324,0 6,-2.676 6,-6 l 0,-2 c 0,3.324 -2.676,6 -6,6 L 12,46 C 8.676,46 6,43.324 6,40 z"
           inkscape:connector-curvature="0"
           id="path3193"
           style="opacity:0.15;fill:#000000;fill-opacity:1;fill-rule:nonzero;stroke:none" />
      </g>
      <path
         d="m 24.428572,976.86218 47.142857,0 c 2.176428,0 3.928571,1.75214 3.928571,3.92857 l 0,10.47619 c 0,2.17643 -1.752143,3.92857 -3.928571,3.92857 l -47.142857,0 c -2.176429,0 -3.928572,-1.75214 -3.928572,-3.92857 l 0,-10.47619 c 0,-2.17643 1.752143,-3.92857 3.928572,-3.92857 z"
         inkscape:connector-curvature="0"
         id="rect3195"
         style="fill:url(#linearGradient6194);fill-opacity:1;fill-rule:nonzero;stroke:none" />
      <path
         sodipodi:nodetypes="ssssssssssssssssss"
         d="m 24.428572,976.86218 c -2.176429,0 -3.928572,1.75214 -3.928572,3.92857 l 0,10.47619 c 0,2.17643 1.752185,3.91506 3.928572,3.92857 58.728688,0.36453 31.428571,0 47.142857,0 2.176428,0 3.928571,-1.75214 3.928571,-3.92857 l 0,-10.47619 c 0,-2.17643 -1.752143,-3.92857 -3.928571,-3.92857 z m 0,1.30953 47.142857,0 c 1.470465,0 2.619047,1.14858 2.619047,2.61904 l 0,10.47619 c 0,1.47047 -1.148582,2.61905 -2.619047,2.61905 l -47.142857,0 c -1.470466,0 -2.619048,-1.14858 -2.619048,-2.61905 l 0,-10.47619 c 0,-1.47046 1.148582,-2.61904 2.619048,-2.61904 z"
         inkscape:connector-curvature="0"
         id="rect3207"
         style="fill:url(#linearGradient6191);fill-opacity:1;fill-rule:nonzero;stroke:none" />
      <g
         transform="matrix(0.6547619,0,0,0.6547619,16.571429,980.79075)"
         id="g3695">
        <path
           d="m 6,58 0,2 c 0,3.324 2.676,6 6,6 l 72,0 c 3.324,0 6,-2.676 6,-6 l 0,-2 c 0,3.324 -2.676,6 -6,6 L 12,64 C 8.676,64 6,61.324 6,58 z"
           inkscape:connector-curvature="0"
           id="path3697"
           style="opacity:0.8;fill:#ffffff;fill-opacity:1;fill-rule:nonzero;stroke:none" />
        <path
           d="m 6,56 0,2 c 0,3.324 2.676,6 6,6 l 72,0 c 3.324,0 6,-2.676 6,-6 l 0,-2 c 0,3.324 -2.676,6 -6,6 L 12,62 C 8.676,62 6,59.324 6,56 z"
           inkscape:connector-curvature="0"
           id="path3699"
           style="opacity:0.15;fill:#000000;fill-opacity:1;fill-rule:nonzero;stroke:none" />
      </g>
    </g>
  </g>
</svg>
