<?xml version="1.0" encoding="UTF-8" standalone="no"?>
<!-- Created with Inkscape (http://www.inkscape.org/) -->
<svg id="svg6307" xmlns:rdf="http://www.w3.org/1999/02/22-rdf-syntax-ns#" xmlns="http://www.w3.org/2000/svg" height="96" width="96" version="1.1" xmlns:cc="http://creativecommons.org/ns#" xmlns:xlink="http://www.w3.org/1999/xlink" xmlns:dc="http://purl.org/dc/elements/1.1/">
 <defs id="defs6309">
  <filter id="filter6279-2" color-interpolation-filters="sRGB">
   <feGaussianBlur id="feGaussianBlur6281-1" stdDeviation="0.8"/>
  </filter>
  <linearGradient id="linearGradient9181" y2="902.36" gradientUnits="userSpaceOnUse" x2="48" gradientTransform="translate(0 -.0000078516)" y1="1052.4" x1="48">
   <stop id="stop3702-388" style="stop-color:#ebebeb" offset="0"/>
   <stop id="stop3704-31" style="stop-color:#fafafa" offset="1"/>
  </linearGradient>
  <linearGradient id="linearGradient3111-89" y2="138.66" gradientUnits="userSpaceOnUse" y1="20.221" x2="48" x1="48">
   <stop id="stop3739-2" style="stop-color:#fff" offset="0"/>
   <stop id="stop3741-1-7" style="stop-color:#fff;stop-opacity:0" offset="1"/>
  </linearGradient>
  <clipPath id="clipPath3613-7">
   <rect id="rect3615-54" style="fill:#fff" rx="6" ry="6" height="84" width="84" y="6" x="6"/>
  </clipPath>
  <filter id="filter3794-81" height="1.384" width="1.384" color-interpolation-filters="sRGB" y="-.192" x="-.192">
   <feGaussianBlur id="feGaussianBlur3796-2" stdDeviation="5.28"/>
  </filter>
  <clipPath id="clipPath4049">
   <path id="path4051" style="fill:#f0f" d="m-88 6c-3.324 0-6 2.676-6 6v72c0 3.324 2.676 6 6 6h72c3.324 0 6-2.676 6-6v-72c0-3.324-2.676-6-6-6h-72zm55.938 22 8 8l-31.938 31.938-19.938-20.063 7.938-7.937 12 12 23.938-23.938z"/>
  </clipPath>
  <filter id="filter4053" height="1.331" width="1.2549" color-interpolation-filters="sRGB" y="-.16552" x="-.12743">
   <feGaussianBlur id="feGaussianBlur4055" stdDeviation="2.7540384"/>
  </filter>
  <linearGradient id="linearGradient3089-2" y2="28" gradientUnits="userSpaceOnUse" y1="68" x2="49" x1="49">
   <stop id="stop3699-9" style="stop-color:#bababa" offset="0"/>
   <stop id="stop3701-2" style="stop-color:#d2d2d2" offset="1"/>
  </linearGradient>
 </defs>
 <metadata id="metadata6312">
  <rdf:RDF>
   <cc:Work rdf:about="">
    <dc:format>image/svg+xml</dc:format>
    <dc:type rdf:resource="http://purl.org/dc/dcmitype/StillImage"/>
    <dc:title/>
   </cc:Work>
  </rdf:RDF>
 </metadata>
 <g id="layer1" transform="translate(0 -956.36)">
  <g id="g6878">
   <rect id="rect9283" ry="5" style="filter:url(#filter6279-2)" rx="5" transform="translate(0 -.0000078516)" height="80" width="80" y="964.36" x="8"/>
   <rect id="rect9285" style="fill:url(#linearGradient9181)" rx="5" ry="5" height="80" width="80" y="964.36" x="8"/>
   <g id="layer3" transform="translate(0 956.36)">
    <rect id="rect3171" style="opacity:.5;filter:url(#filter3794-81);stroke:#fff;stroke-linecap:round;stroke-width:.5;fill:url(#linearGradient3111-89)" clip-path="url(#clipPath3613-7)" rx="12" ry="12" height="66" width="66" y="15" x="15"/>
   </g>
   <g id="g3064" transform="translate(0 956.36)">
    <path id="path4040" style="opacity:.6;filter:url(#filter4053);stroke:#fff;stroke-width:2;fill:none" d="m-75.934 47.868 7.934-7.934l12 12 23.934-23.934 8 8-31.934 31.934-19.934-20.066z" clip-path="url(#clipPath4049)" transform="translate(100)"/>
    <path id="path3977" style="fill:url(#linearGradient3089-2)" d="m24.066 47.868 7.934-7.934l12 12 23.934-23.934 8 8-31.934 31.934-19.934-20.066z"/>
   </g>
  </g>
 </g>
</svg>
