<?xml version="1.0" encoding="UTF-8" standalone="no"?>
<!-- Created with Inkscape (http://www.inkscape.org/) -->
<svg id="svg6307" xmlns:rdf="http://www.w3.org/1999/02/22-rdf-syntax-ns#" xmlns="http://www.w3.org/2000/svg" height="96" width="96" version="1.1" xmlns:cc="http://creativecommons.org/ns#" xmlns:xlink="http://www.w3.org/1999/xlink" xmlns:dc="http://purl.org/dc/elements/1.1/">
 <defs id="defs6309">
  <filter id="filter6279-2" color-interpolation-filters="sRGB">
   <feGaussianBlur id="feGaussianBlur6281-1" stdDeviation="0.8"/>
  </filter>
  <linearGradient id="linearGradient6914" y2="902.36" gradientUnits="userSpaceOnUse" x2="48" gradientTransform="translate(0 -.0000078516)" y1="1052.4" x1="48">
   <stop id="stop3702-388" style="stop-color:#ebebeb" offset="0"/>
   <stop id="stop3704-31" style="stop-color:#fafafa" offset="1"/>
  </linearGradient>
  <linearGradient id="linearGradient6906" y2="138.66" gradientUnits="userSpaceOnUse" x2="48" y1="20.221" x1="48">
   <stop id="stop3739-2" style="stop-color:#fff" offset="0"/>
   <stop id="stop3741-1-7" style="stop-color:#fff;stop-opacity:0" offset="1"/>
  </linearGradient>
  <clipPath id="clipPath3613-7">
   <rect id="rect3615-54" style="fill:#fff" rx="6" ry="6" height="84" width="84" y="6" x="6"/>
  </clipPath>
  <filter id="filter3794-81" height="1.384" width="1.384" color-interpolation-filters="sRGB" y="-.192" x="-.192">
   <feGaussianBlur id="feGaussianBlur3796-2" stdDeviation="5.28"/>
  </filter>
  <linearGradient id="linearGradient6083" y2="23.99" gradientUnits="userSpaceOnUse" y1="72" gradientTransform="translate(0 956.36)" x2="48" x1="48">
   <stop id="stop3699-6" style="stop-color:#bababa" offset="0"/>
   <stop id="stop3701-1" style="stop-color:#d2d2d2" offset="1"/>
  </linearGradient>
 </defs>
 <metadata id="metadata6312">
  <rdf:RDF>
   <cc:Work rdf:about="">
    <dc:format>image/svg+xml</dc:format>
    <dc:type rdf:resource="http://purl.org/dc/dcmitype/StillImage"/>
    <dc:title/>
   </cc:Work>
  </rdf:RDF>
 </metadata>
 <g id="layer1" transform="translate(0 -956.36)">
  <g id="g6934">
   <rect id="rect9283" ry="5" style="filter:url(#filter6279-2)" rx="5" transform="translate(0 -.0000078516)" height="80" width="80" y="964.36" x="8"/>
   <rect id="rect9285" style="fill:url(#linearGradient6914)" rx="5" ry="5" height="80" width="80" y="964.36" x="8"/>
   <g id="layer3" transform="translate(0 956.36)">
    <rect id="rect3171" style="opacity:.5;filter:url(#filter3794-81);stroke:#fff;stroke-linecap:round;stroke-width:.5;fill:url(#linearGradient6906)" clip-path="url(#clipPath3613-7)" rx="12" ry="12" height="66" width="66" y="15" x="15"/>
   </g>
   <path id="path3836" style="color:#000000;fill:url(#linearGradient6083)" d="m48 980.36c-13.255 0-24 10.745-24 24s10.745 24 24 24 24-10.745 24-24-10.745-24-24-24zm0 6c9.9411 0 18 8.0589 18 18s-8.0589 18-18 18-18-8.0589-18-18c0-9.9412 8.0589-18 18-18zm0.46875 4c-2.2915 0.00003-4.2695 0.34348-5.9688 1-1.6864 0.6437-3.0804 1.5399-4.1875 2.75-1.1071 1.1973-1.9464 2.6628-2.5 4.375-0.54069 1.7122-0.8125 3.6259-0.8125 5.75-0.000002 2.0469 0.27181 3.9312 0.8125 5.6562 0.55356 1.7251 1.38 3.2384 2.5 4.5 1.1329 1.2488 2.5562 2.2295 4.2812 2.9375 1.725 0.6952 3.7691 1.0313 6.125 1.0313 1.8023 0 3.3928-0.2186 4.7188-0.6563 1.3388-0.4505 2.472-1.0291 3.4375-1.75 0.96549-0.7209 1.7625-1.5602 2.4062-2.5 0.64365-0.9397 1.1634-1.8966 1.5625-2.875l-4.9375-1.875c-0.24462 0.6308-0.58256 1.2571-0.96875 1.875-0.37336 0.618-0.82696 1.1671-1.4062 1.6563-0.56646 0.4892-1.246 0.8785-2.0312 1.1875-0.77243 0.2961-1.7128 0.4687-2.7812 0.4687-1.4161 0-2.608-0.2424-3.625-0.7187-1.0041-0.4763-1.8563-1.1504-2.5-2-0.64369-0.8497-1.0973-1.8598-1.4062-3.0313-0.2961-1.1843-0.43751-2.4901-0.4375-3.9062-0.000007-1.429 0.1414-2.698 0.4375-3.8438 0.30896-1.1586 0.77544-2.1448 1.4062-2.9687 0.64367-0.82389 1.4462-1.4685 2.4375-1.9062 0.99125-0.45055 2.185-0.68748 3.5625-0.6875 0.97838 0.00002 1.8526 0.1488 2.625 0.40625 0.7724 0.24462 1.4335 0.55682 2 0.96875 0.57929 0.41198 1.0641 0.89683 1.4375 1.4375 0.37331 0.52784 0.6635 1.077 0.84375 1.6562l5-1.375c-0.36049-1.1071-0.85635-2.1172-1.5-3.0312-0.63083-0.92687-1.4279-1.7056-2.4062-2.375-0.96554-0.68227-2.1299-1.2204-3.4688-1.5938-1.326-0.37331-2.8797-0.56247-4.6562-0.5625z"/>
  </g>
 </g>
</svg>
