<?xml version="1.0" encoding="UTF-8" standalone="no"?>
<!-- Created with Inkscape (http://www.inkscape.org/) -->
<svg id="svg6307" xmlns:rdf="http://www.w3.org/1999/02/22-rdf-syntax-ns#" xmlns="http://www.w3.org/2000/svg" height="96" width="96" version="1.1" xmlns:cc="http://creativecommons.org/ns#" xmlns:xlink="http://www.w3.org/1999/xlink" xmlns:dc="http://purl.org/dc/elements/1.1/">
 <defs id="defs6309">
  <filter id="filter6279-2" color-interpolation-filters="sRGB">
   <feGaussianBlur id="feGaussianBlur6281-1" stdDeviation="0.8"/>
  </filter>
  <linearGradient id="linearGradient9181" y2="902.36" gradientUnits="userSpaceOnUse" x2="48" gradientTransform="translate(0 -.0000078516)" y1="1052.4" x1="48">
   <stop id="stop3702-89" style="stop-color:#e6e6e6" offset="0"/>
   <stop id="stop3704-77" style="stop-color:#f5f5f5" offset="1"/>
  </linearGradient>
  <linearGradient id="linearGradient3198" y2="138.66" gradientUnits="userSpaceOnUse" y1="20.221" x2="48" x1="48">
   <stop id="stop3739-2" style="stop-color:#fff" offset="0"/>
   <stop id="stop3741-1-1" style="stop-color:#fff;stop-opacity:0" offset="1"/>
  </linearGradient>
  <clipPath id="clipPath3613-32">
   <rect id="rect3615-159" style="fill:#fff" rx="6" ry="6" height="84" width="84" y="6" x="6"/>
  </clipPath>
  <filter id="filter3794-91" height="1.384" width="1.384" color-interpolation-filters="sRGB" y="-.192" x="-.192">
   <feGaussianBlur id="feGaussianBlur3796-49" stdDeviation="5.28"/>
  </filter>
  <linearGradient id="linearGradient3724-4" y2="7" xlink:href="#linearGradient3763" gradientUnits="userSpaceOnUse" x2="62" gradientTransform="matrix(1.2318 0 0 1.2318 -157.82 7.1708)" y1="60" x1="64"/>
  <linearGradient id="linearGradient3763">
   <stop id="stop3765" style="stop-color:#f70" offset="0"/>
   <stop id="stop3767-7" style="stop-color:#ffb15d" offset="1"/>
  </linearGradient>
  <clipPath id="clipPath3716">
   <path id="path3718" style="fill:#f0f" d="m-118 6c-3.324 0-6 2.676-6 6v72c0 3.324 2.676 6 6 6h72c3.324 0 6-2.676 6-6v-72c0-3.324-2.676-6-6-6h-72zm42.531 9.4375s6.7428 6.7843-6.4375 17.188c-10.57 8.3484-2.4063 13.092 0 18.531-6.1703-5.5666-10.692-10.439-7.6562-15 4.4579-6.6937 16.822-9.9706 14.094-20.719zm8.125 13.344c-14.198 8.2338-11.546 10.6-8.125 15.406 3.6612 5.1562-4.3125 9.25-4.3125 9.25s3.9546-3.2268 0.8125-6.8438c-10.644-12.265 11.625-17.812 11.625-17.812zm3.5938 21.875c6.5984-0.33848 10.188 8.958-4.5938 12.844-0.000144 0 0.16215-0.19253 0.21875-0.34375 12.215-6.3458 6.5673-12.446 2.625-11.625-0.96404 0.20119-1.4062 0.375-1.4062 0.375s0.37857-0.57041 1.0625-0.8125c0.73117-0.25693 1.4112-0.40248 2.0938-0.4375zm-26.406 0.625c0.51912-0.01358 0.8125 0 0.8125 0s-11.829 2.8221-4.1875 3.8438c3.2277 0.4319 9.6308 0.3154 15.625-0.1875 4.8974-0.41102 9.8125-1.25 9.8125-1.25s-1.7194 0.70993-2.9688 1.5625c-12.017 3.1607-35.246 1.7002-28.562-1.5312 4.237-2.0497 7.9114-2.3968 9.4688-2.4375zm-1.9375 7.4062s-2.8236 2.0596 1.4375 2.5c5.5116 0.569 9.873 0.6373 17.406-0.8125 0 0 1.0505 1.0479 2.6875 1.625-15.408 4.5068-32.555 0.34636-21.531-3.3125zm1.5312 7.125s-2.4767 1.4491 1.7812 1.9375c5.1592 0.58902 7.8163 0.51185 13.5-0.5625 0 0 1.475 0.90751 3.5625 1.7188-12.746 5.4606-28.854-0.29683-18.844-3.0938zm-6.4688 4.7188c0.61452 0.02364 1.1458 0.14762 1.4688 0.375 0 0-0.85262-0.05906-2.2812 0.25-1.3702 0.29595-5.6961 1.6765-3.375 2.6875 6.4614 2.8106 29.707 2.1653 37.062-0.0625 3.868-1.1734 2.0312-2.7188 2.0312-2.7188 6.7392 3.0409-14.609 9.1494-40.594 4.9375-8.3374-1.353 1.3859-5.6342 5.6875-5.4688zm39.032 3.843c-0.42614 5.5473-18.434 6.7182-30.156 5.9688-7.7042-0.49584-9.1875-1.7188-9.1875-1.7188 7.3187 1.2084 19.65 1.4151 29.656-0.46875 8.87-1.668 9.688-3.781 9.688-3.781z"/>
  </clipPath>
  <filter id="filter3720" height="1.2502" width="1.3393" color-interpolation-filters="sRGB" y="-.12508" x="-.16966">
   <feGaussianBlur id="feGaussianBlur3722" stdDeviation="3.3931715"/>
  </filter>
  <linearGradient id="linearGradient3070-2" y2="7" xlink:href="#linearGradient3763" gradientUnits="userSpaceOnUse" x2="62" gradientTransform="matrix(1.2318 0 0 1.2318 -27.816 7.1708)" y1="60" x1="64"/>
 </defs>
 <metadata id="metadata6312">
  <rdf:RDF>
   <cc:Work rdf:about="">
    <dc:format>image/svg+xml</dc:format>
    <dc:type rdf:resource="http://purl.org/dc/dcmitype/StillImage"/>
    <dc:title/>
   </cc:Work>
  </rdf:RDF>
 </metadata>
 <g id="layer1" transform="translate(0 -956.36)">
  <g id="g6898">
   <rect id="rect9283" ry="5" style="filter:url(#filter6279-2)" rx="5" transform="translate(0 -.0000078516)" height="80" width="80" y="964.36" x="8"/>
   <rect id="rect9285" style="fill:url(#linearGradient9181)" rx="5" ry="5" height="80" width="80" y="964.36" x="8"/>
   <g id="layer3" transform="translate(0 956.36)">
    <rect id="rect3171" style="opacity:.5;filter:url(#filter3794-91);stroke:#fff;stroke-linecap:round;stroke-width:.5;fill:url(#linearGradient3198)" clip-path="url(#clipPath3613-32)" rx="12" ry="12" height="66" width="66" y="15" x="15"/>
   </g>
   <g id="g3133" transform="matrix(.75429 0 0 .75429 11.794 968.2)">
    <path id="path3707" style="opacity:.6;fill-rule:evenodd;filter:url(#filter3720);stroke:#fff;stroke-width:2;fill:url(#linearGradient3724-4)" d="m-75.476 15.447c2.7282 10.748-9.6311 14.016-14.089 20.71-3.0357 4.5607 1.4901 9.4462 7.6604 15.013-2.4063-5.4393-10.57-10.206 0-18.554 13.18-10.403 6.4286-17.169 6.4286-17.169zm8.1223 13.319c0.000144 0-22.269 5.5577-11.625 17.823 3.1421 3.6169-0.80838 6.852-0.80838 6.852s7.9725-4.0825 4.3114-9.2387c-3.4207-4.8062-6.0754-7.2025 8.1223-15.436zm3.6185 21.903c-0.68259 0.03502-1.386 0.16651-2.1172 0.42344-0.68393 0.24209-1.0394 0.80838-1.0394 0.80838s0.42176-0.18376 1.3858-0.38494c3.9423-0.82146 9.5975 5.2796-2.6176 11.625-0.0566 0.15122-0.23111 0.34645-0.23097 0.34645 14.782-3.8858 11.218-13.157 4.6193-12.819zm-26.407 0.61591c-1.5573 0.04074-5.2327 0.37542-9.4696 2.4252-6.683 3.2314 16.546 4.7005 28.563 1.5398 1.2493-0.85257 2.9641-1.5783 2.9641-1.5783s-4.9187 0.8593-9.8161 1.2703c-5.9942 0.5029-12.401 0.62437-15.629 0.19247-7.6419-1.0216 4.1959-3.8494 4.1959-3.8494s-0.28927-0.01358-0.80838 0zm-1.9632 7.3909c-11.024 3.6589 6.1493 7.8173 21.557 3.3105-1.637-0.57707-2.6946-1.6168-2.6946-1.6168-7.5333 1.4498-11.888 1.3774-17.399 0.80838-4.2611-0.4404-1.4628-2.5021-1.4628-2.5021zm1.5398 7.1215c-10.01 2.7969 6.1168 8.5787 18.862 3.1181-2.0875-0.81124-3.58-1.7323-3.58-1.7323-5.6837 1.0744-8.3524 1.1664-13.512 0.57742-4.258-0.48836-1.7707-1.9632-1.7707-1.9632zm-6.4671 4.7348c-4.3016-0.16549-14.035 4.1132-5.6972 5.4662 25.985 4.2119 47.351-1.8864 40.612-4.9273 0 0 1.8278 1.5212-2.0402 2.6946-7.355 2.2278-30.609 2.8876-37.07 0.07699-2.3211-1.011 2.0174-2.3987 3.3875-2.6946 1.4286-0.30906 2.2712-0.23097 2.2712-0.23097-0.3229-0.22738-0.84827-0.3613-1.4628-0.38494zm39.033 3.849s-0.83098 2.1039-9.7006 3.7725c-10.006 1.8839-22.322 1.6704-29.641 0.46193 0 0 1.4959 1.2364 9.2002 1.7323 11.723 0.749 29.716-0.42 30.142-5.967z" clip-path="url(#clipPath3716)" transform="translate(130)"/>
    <g id="g3103">
     <g id="g3073">
      <path id="path2907" d="m54.524 15.447c2.7282 10.748-9.6311 14.016-14.089 20.71-3.0357 4.5607 1.4901 9.4462 7.6604 15.013-2.4063-5.4393-10.57-10.206 0-18.554 13.18-10.403 6.4286-17.169 6.4286-17.169zm8.1223 13.319c0.000144 0-22.269 5.5577-11.625 17.823 3.1421 3.6169-0.80838 6.852-0.80838 6.852s7.9725-4.0825 4.3114-9.2387c-3.4207-4.8062-6.0754-7.2025 8.1223-15.436zm3.6185 21.903c-0.68259 0.03502-1.386 0.16651-2.1172 0.42344-0.68393 0.24209-1.0394 0.80838-1.0394 0.80838s0.42176-0.18376 1.3858-0.38494c3.9423-0.82146 9.5975 5.2796-2.6176 11.625-0.0566 0.15122-0.23111 0.34645-0.23097 0.34645 14.782-3.8858 11.218-13.157 4.6193-12.819zm-26.407 0.616c-1.5573 0.04074-5.2327 0.37542-9.4696 2.4252-6.683 3.2314 16.546 4.7005 28.563 1.5398 1.2493-0.85257 2.9641-1.5783 2.9641-1.5783s-4.9187 0.8593-9.8161 1.2703c-5.9942 0.5029-12.401 0.62437-15.629 0.19247-7.6419-1.0216 4.1959-3.8494 4.1959-3.8494s-0.28927-0.01358-0.80838 0zm-1.9632 7.3909c-11.024 3.6589 6.1493 7.8173 21.557 3.3105-1.637-0.57707-2.6946-1.6168-2.6946-1.6168-7.5333 1.4498-11.888 1.3774-17.399 0.80838-4.2611-0.4404-1.4628-2.5021-1.4628-2.5021zm1.5398 7.1215c-10.01 2.7969 6.1168 8.5787 18.862 3.1181-2.0875-0.81124-3.58-1.7323-3.58-1.7323-5.6837 1.0744-8.3524 1.1664-13.512 0.57742-4.258-0.48836-1.7707-1.9632-1.7707-1.9632zm-6.4671 4.7348c-4.3016-0.16549-14.035 4.1132-5.6972 5.4662 25.985 4.2119 47.351-1.8864 40.612-4.9273 0 0 1.8278 1.5212-2.0402 2.6946-7.355 2.2278-30.609 2.8876-37.07 0.07699-2.3211-1.011 2.0174-2.3987 3.3875-2.6946 1.4286-0.30906 2.2712-0.23097 2.2712-0.23097-0.3229-0.22738-0.84827-0.3613-1.4628-0.38494zm39.033 3.849s-0.83098 2.1039-9.7006 3.7725c-10.006 1.8839-22.322 1.6704-29.641 0.46193 0 0 1.4959 1.2364 9.2002 1.7323 11.723 0.749 29.716-0.42 30.142-5.967z" style="fill:url(#linearGradient3070-2);fill-rule:evenodd"/>
      <path id="path3672" d="m54.524 15.447c2.7282 10.748-9.6311 14.016-14.089 20.71-3.0357 4.5607 1.4901 9.4462 7.6604 15.013-2.4063-5.4393-10.57-10.206 0-18.554 13.18-10.403 6.4286-17.169 6.4286-17.169zm8.1223 13.319c0.000144 0-22.269 5.5577-11.625 17.823 3.1421 3.6169-0.80838 6.852-0.80838 6.852s7.9725-4.0825 4.3114-9.2387c-3.4207-4.8062-6.0754-7.2025 8.1223-15.436zm3.6185 21.903c-0.68259 0.03502-1.386 0.16651-2.1172 0.42344-0.68393 0.24209-1.0394 0.80838-1.0394 0.80838s0.42176-0.18376 1.3858-0.38494c3.9423-0.82146 9.5975 5.2796-2.6176 11.625-0.0566 0.15122-0.23111 0.34645-0.23097 0.34645 14.782-3.8858 11.218-13.157 4.6193-12.819zm-26.407 0.616c-1.5573 0.04074-5.2327 0.37542-9.4696 2.4252-6.683 3.2314 16.546 4.7005 28.563 1.5398 1.2493-0.85257 2.9641-1.5783 2.9641-1.5783s-4.9187 0.8593-9.8161 1.2703c-5.9942 0.5029-12.401 0.62437-15.629 0.19247-7.6419-1.0216 4.1959-3.8494 4.1959-3.8494s-0.28927-0.01358-0.80838 0zm-1.9632 7.3909c-11.024 3.6589 6.1493 7.8173 21.557 3.3105-1.637-0.57707-2.6946-1.6168-2.6946-1.6168-7.5333 1.4498-11.888 1.3774-17.399 0.80838-4.2611-0.4404-1.4628-2.5021-1.4628-2.5021zm1.5398 7.1215c-10.01 2.7969 6.1168 8.5787 18.862 3.1181-2.0875-0.81124-3.58-1.7323-3.58-1.7323-5.6837 1.0744-8.3524 1.1664-13.512 0.57742-4.258-0.48836-1.7707-1.9632-1.7707-1.9632zm-6.4671 4.7348c-4.3016-0.16549-14.035 4.1132-5.6972 5.4662 25.985 4.2119 47.351-1.8864 40.612-4.9273 0 0 1.8278 1.5212-2.0402 2.6946-7.355 2.2278-30.609 2.8876-37.07 0.07699-2.3211-1.011 2.0174-2.3987 3.3875-2.6946 1.4286-0.30906 2.2712-0.23097 2.2712-0.23097-0.3229-0.22738-0.84827-0.3613-1.4628-0.38494zm39.033 3.849s-0.83098 2.1039-9.7006 3.7725c-10.006 1.8839-22.322 1.6704-29.641 0.46193 0 0 1.4959 1.2364 9.2002 1.7323 11.723 0.749 29.716-0.42 30.142-5.967z" style="fill-rule:evenodd;fill:url(#linearGradient3070-2)"/>
     </g>
    </g>
   </g>
  </g>
 </g>
</svg>
