<?xml version="1.0" encoding="UTF-8" standalone="no"?>
<!-- Created with Inkscape (http://www.inkscape.org/) -->
<svg id="svg6307" xmlns:rdf="http://www.w3.org/1999/02/22-rdf-syntax-ns#" xmlns="http://www.w3.org/2000/svg" height="96" width="96" version="1.1" xmlns:cc="http://creativecommons.org/ns#" xmlns:xlink="http://www.w3.org/1999/xlink" xmlns:dc="http://purl.org/dc/elements/1.1/">
 <defs id="defs6309">
  <filter id="filter6279-2-3" color-interpolation-filters="sRGB">
   <feGaussianBlur id="feGaussianBlur6281-1-1" stdDeviation="0.8"/>
  </filter>
  <linearGradient id="linearGradient6148" y2="902.36" gradientUnits="userSpaceOnUse" x2="48" gradientTransform="translate(0 -.0000078516)" y1="1052.4" x1="48">
   <stop id="stop3702-11-9" style="stop-color:#e6e6e6" offset="0"/>
   <stop id="stop3704-08-6" style="stop-color:#f5f5f5" offset="1"/>
  </linearGradient>
  <radialGradient id="radialGradient6210" xlink:href="#linearGradient3700-6-4" gradientUnits="userSpaceOnUse" cy="90" cx="90" gradientTransform="matrix(0 -.71044 1.3095 0 -42.357 1095.8)" r="42"/>
  <linearGradient id="linearGradient3700-6-4">
   <stop id="stop3702-2-3" style="stop-color:#b4b4b4" offset="0"/>
   <stop id="stop3704-67-3" style="stop-color:#dcdcdc" offset="1"/>
  </linearGradient>
  <linearGradient id="linearGradient6207" y2="73" xlink:href="#linearGradient3236-3" gradientUnits="userSpaceOnUse" x2="24" gradientTransform="matrix(.65476 0 0 .65476 16.571 972.93)" y1="73" x1="6"/>
  <linearGradient id="linearGradient3236-3">
   <stop id="stop3238-6-8" style="stop-color:#818181" offset="0"/>
   <stop id="stop3242-6" style="stop-color:#f9f9f9" offset=".2"/>
   <stop id="stop3240-0" style="stop-color:#dcdcdc;stop-opacity:0" offset="1"/>
  </linearGradient>
  <linearGradient id="linearGradient6204" y2="73" xlink:href="#linearGradient3236-3" gradientUnits="userSpaceOnUse" x2="24" gradientTransform="matrix(-.65476 0 0 .65476 79.429 972.93)" y1="73" x1="6"/>
  <linearGradient id="linearGradient6194" y2="5.8332" gradientUnits="userSpaceOnUse" x2="38.748" gradientTransform="matrix(.65476 0 0 .65476 16.571 972.93)" y1="32.03" x1="38.748">
   <stop id="stop3201-8-8" style="stop-color:#dcdcdc" offset="0"/>
   <stop id="stop3203-2-8" style="stop-color:#fafafa" offset="1"/>
  </linearGradient>
  <linearGradient id="linearGradient6191" y2="5.9818" xlink:href="#linearGradient3700-6-4" gradientUnits="userSpaceOnUse" x2="48.005" gradientTransform="matrix(.65476 0 0 .65476 16.571 972.93)" y1="34.101" x1="47.965"/>
 </defs>
 <metadata id="metadata6312">
  <rdf:RDF>
   <cc:Work rdf:about="">
    <dc:format>image/svg+xml</dc:format>
    <dc:type rdf:resource="http://purl.org/dc/dcmitype/StillImage"/>
    <dc:title/>
   </cc:Work>
  </rdf:RDF>
 </metadata>
 <g id="layer1" transform="translate(0 -956.36)">
  <g id="g6980">
   <rect id="rect9283" ry="5" style="filter:url(#filter6279-2-3)" rx="5" transform="translate(0 -.0000078516)" height="80" width="80" y="964.36" x="8"/>
   <rect id="rect9285" style="fill:url(#linearGradient6148)" rx="5" ry="5" height="80" width="80" y="964.36" x="8"/>
   <rect id="rect2419" style="fill:url(#radialGradient6210)" rx="3.9286" ry="3.9286" height="55" width="55" y="976.86" x="20.5"/>
   <path id="rect3222" style="fill:url(#linearGradient6207)" d="m20.5 989.96v37.976c0 2.1764 1.7521 3.9286 3.9286 3.9286h7.8571v-41.905h-11.786z"/>
   <path id="path3244" style="fill:url(#linearGradient6204)" d="m75.5 989.96v37.976c0 2.1764-1.7521 3.9286-3.9286 3.9286h-7.8571v-41.905h11.786z"/>
   <path id="rect2412" style="opacity:.15" d="m20.5 1026.6v1.3095c0 2.1764 1.7521 3.9286 3.9286 3.9286h47.143c2.1764 0 3.9286-1.7522 3.9286-3.9286v-1.3095c0 2.1764-1.7521 3.9286-3.9286 3.9286h-47.143c-2.1764 0-3.9286-1.7522-3.9286-3.9286z"/>
   <g id="g3687" transform="matrix(.65476 0 0 .65476 16.571 971.62)">
    <path id="path3187" style="opacity:.8;fill:#fff" d="m6 58v2c0 3.324 2.676 6 6 6h72c3.324 0 6-2.676 6-6v-2c0 3.324-2.676 6-6 6h-72c-3.324 0-6-2.676-6-6z"/>
    <path id="path3189" style="opacity:.15" d="m6 56v2c0 3.324 2.676 6 6 6h72c3.324 0 6-2.676 6-6v-2c0 3.324-2.676 6-6 6h-72c-3.324 0-6-2.676-6-6z"/>
   </g>
   <g id="g3691" transform="matrix(.65476 0 0 .65476 16.571 972.93)">
    <path id="path3191" style="opacity:.8;fill:#fff" d="m6 42v2c0 3.324 2.676 6 6 6h72c3.324 0 6-2.676 6-6v-2c0 3.324-2.676 6-6 6h-72c-3.324 0-6-2.676-6-6z"/>
    <path id="path3193" style="opacity:.15" d="m6 40v2c0 3.324 2.676 6 6 6h72c3.324 0 6-2.676 6-6v-2c0 3.324-2.676 6-6 6h-72c-3.324 0-6-2.676-6-6z"/>
   </g>
   <path id="rect3195" style="fill:url(#linearGradient6194)" d="m24.429 976.86h47.143c2.1764 0 3.9286 1.7521 3.9286 3.9286v10.476c0 2.1764-1.7521 3.9286-3.9286 3.9286h-47.143c-2.1764 0-3.9286-1.7521-3.9286-3.9286v-10.476c0-2.1764 1.7521-3.9286 3.9286-3.9286z"/>
   <path id="rect3207" style="fill:url(#linearGradient6191)" d="m24.429 976.86c-2.1764 0-3.9286 1.7521-3.9286 3.9286v10.476c0 2.1764 1.7522 3.9151 3.9286 3.9286 58.729 0.36453 31.429 0 47.143 0 2.1764 0 3.9286-1.7521 3.9286-3.9286v-10.476c0-2.1764-1.7521-3.9286-3.9286-3.9286zm0 1.3095h47.143c1.4705 0 2.619 1.1486 2.619 2.619v10.476c0 1.4705-1.1486 2.619-2.619 2.619h-47.143c-1.4705 0-2.619-1.1486-2.619-2.619v-10.476c0-1.4705 1.1486-2.619 2.619-2.619z"/>
   <g id="g3695" transform="matrix(.65476 0 0 .65476 16.571 980.79)">
    <path id="path3697" style="opacity:.8;fill:#fff" d="m6 58v2c0 3.324 2.676 6 6 6h72c3.324 0 6-2.676 6-6v-2c0 3.324-2.676 6-6 6h-72c-3.324 0-6-2.676-6-6z"/>
    <path id="path3699" style="opacity:.15" d="m6 56v2c0 3.324 2.676 6 6 6h72c3.324 0 6-2.676 6-6v-2c0 3.324-2.676 6-6 6h-72c-3.324 0-6-2.676-6-6z"/>
   </g>
  </g>
 </g>
</svg>
