<?xml version="1.0" encoding="UTF-8" standalone="no"?>
<!-- Created with Inkscape (http://www.inkscape.org/) -->

<svg
   xmlns:dc="http://purl.org/dc/elements/1.1/"
   xmlns:cc="http://creativecommons.org/ns#"
   xmlns:rdf="http://www.w3.org/1999/02/22-rdf-syntax-ns#"
   xmlns:svg="http://www.w3.org/2000/svg"
   xmlns="http://www.w3.org/2000/svg"
   xmlns:xlink="http://www.w3.org/1999/xlink"
   xmlns:sodipodi="http://sodipodi.sourceforge.net/DTD/sodipodi-0.dtd"
   xmlns:inkscape="http://www.inkscape.org/namespaces/inkscape"
   width="96"
   height="96"
   id="svg6307"
   version="1.1"
   inkscape:version="0.48.1 r9760"
   sodipodi:docname="text-x-java.svg">
  <defs
     id="defs6309">
    <filter
       color-interpolation-filters="sRGB"
       inkscape:collect="always"
       id="filter6279-2">
      <feGaussianBlur
         inkscape:collect="always"
         stdDeviation="0.8"
         id="feGaussianBlur6281-1" />
    </filter>
    <linearGradient
       inkscape:collect="always"
       xlink:href="#linearGradient3700-88"
       id="linearGradient9181"
       gradientUnits="userSpaceOnUse"
       gradientTransform="translate(0,-7.8515622e-6)"
       x1="48"
       y1="1052.3622"
       x2="48"
       y2="902.36218" />
    <linearGradient
       id="linearGradient3700-88">
      <stop
         id="stop3702-89"
         style="stop-color:#e6e6e6;stop-opacity:1"
         offset="0" />
      <stop
         id="stop3704-77"
         style="stop-color:#f5f5f5;stop-opacity:1"
         offset="1" />
    </linearGradient>
    <linearGradient
       y2="138.66119"
       x2="48"
       y1="20.220806"
       x1="48"
       gradientUnits="userSpaceOnUse"
       id="linearGradient3198"
       xlink:href="#linearGradient3737-9-6"
       inkscape:collect="always" />
    <linearGradient
       id="linearGradient3737-9-6">
      <stop
         id="stop3739-2"
         style="stop-color:#ffffff;stop-opacity:1"
         offset="0" />
      <stop
         id="stop3741-1-1"
         style="stop-color:#ffffff;stop-opacity:0"
         offset="1" />
    </linearGradient>
    <clipPath
       id="clipPath3613-32">
      <rect
         width="84"
         height="84"
         rx="6"
         ry="6"
         x="6"
         y="6"
         id="rect3615-159"
         style="fill:#ffffff;fill-opacity:1;fill-rule:nonzero;stroke:none" />
    </clipPath>
    <filter
       x="-0.192"
       y="-0.192"
       width="1.3839999"
       height="1.3839999"
       color-interpolation-filters="sRGB"
       id="filter3794-91">
      <feGaussianBlur
         id="feGaussianBlur3796-49"
         stdDeviation="5.28" />
    </filter>
    <linearGradient
       x1="64"
       y1="60"
       x2="62"
       y2="7"
       id="linearGradient3724-4"
       xlink:href="#linearGradient3763"
       gradientUnits="userSpaceOnUse"
       gradientTransform="matrix(1.231823,0,0,1.231823,-157.81615,7.1708322)" />
    <linearGradient
       id="linearGradient3763">
      <stop
         id="stop3765"
         style="stop-color:#ff7700;stop-opacity:1"
         offset="0" />
      <stop
         id="stop3767-7"
         style="stop-color:#ffb15d;stop-opacity:1"
         offset="1" />
    </linearGradient>
    <clipPath
       id="clipPath3716">
      <path
         d="m -118,6 c -3.324,0 -6,2.676 -6,6 l 0,72 c 0,3.324 2.676,6 6,6 l 72,0 c 3.324,0 6,-2.676 6,-6 l 0,-72 c 0,-3.324 -2.676,-6 -6,-6 l -72,0 z m 42.53125,9.4375 c 0,0 6.742786,6.784262 -6.4375,17.1875 -10.569721,8.348428 -2.406258,13.091934 0,18.53125 -6.170339,-5.566626 -10.691951,-10.439321 -7.65625,-15 4.457852,-6.693689 16.821977,-9.970594 14.09375,-20.71875 z m 8.125,13.34375 c -14.197756,8.233791 -11.545654,10.600025 -8.125,15.40625 3.661158,5.156183 -4.3125,9.25 -4.3125,9.25 0,0 3.954627,-3.226804 0.8125,-6.84375 -10.643745,-12.265213 11.625144,-17.8125 11.625,-17.8125 z m 3.59375,21.875 c 6.598371,-0.338475 10.187997,8.957958 -4.59375,12.84375 -1.44e-4,0 0.16215,-0.192534 0.21875,-0.34375 12.215092,-6.34575 6.567276,-12.446464 2.625,-11.625 -0.964039,0.201189 -1.40625,0.375 -1.40625,0.375 0,0 0.378571,-0.570411 1.0625,-0.8125 0.731171,-0.256932 1.41116,-0.40248 2.09375,-0.4375 z m -26.40625,0.625 c 0.519115,-0.01358 0.8125,0 0.8125,0 0,0 -11.82939,2.822105 -4.1875,3.84375 3.227673,0.431901 9.630792,0.315402 15.625,-0.1875 4.897387,-0.41102 9.8125,-1.25 9.8125,-1.25 0,0 -1.719415,0.709928 -2.96875,1.5625 -12.017218,3.160705 -35.24553,1.700167 -28.5625,-1.53125 4.236968,-2.049735 7.911406,-2.39676 9.46875,-2.4375 z m -1.9375,7.40625 c 0,0 -2.823626,2.059601 1.4375,2.5 5.511613,0.569005 9.87295,0.637302 17.40625,-0.8125 0,0 1.050477,1.047931 2.6875,1.625 -15.407629,4.506818 -32.55548,0.346355 -21.53125,-3.3125 z m 1.53125,7.125 c 0,0 -2.476708,1.449143 1.78125,1.9375 5.159208,0.589021 7.816289,0.511854 13.5,-0.5625 0,0 1.474997,0.907513 3.5625,1.71875 -12.745505,5.460632 -28.85383,-0.296827 -18.84375,-3.09375 z m -6.46875,4.71875 c 0.614519,0.02364 1.14585,0.147618 1.46875,0.375 0,0 -0.852618,-0.05906 -2.28125,0.25 -1.370161,0.295952 -5.69609,1.676512 -3.375,2.6875 6.461397,2.810602 29.707491,2.165274 37.0625,-0.0625 3.867966,-1.173437 2.03125,-2.71875 2.03125,-2.71875 6.739204,3.040884 -14.609199,9.149373 -40.59375,4.9375 -8.33743,-1.353006 1.38587,-5.63424 5.6875,-5.46875 z M -58,74.375 c -0.426144,5.547328 -18.43383,6.718207 -30.15625,5.96875 -7.704246,-0.495845 -9.1875,-1.71875 -9.1875,-1.71875 7.318718,1.208433 19.649918,1.415115 29.65625,-0.46875 C -58.817879,76.487689 -58,74.375 -58,74.375 z"
         inkscape:connector-curvature="0"
         id="path3718"
         style="fill:#ff00ff;fill-opacity:1;fill-rule:nonzero;stroke:none;display:inline" />
    </clipPath>
    <filter
       x="-0.16965857"
       y="-0.1250829"
       width="1.3393171"
       height="1.2501658"
       color-interpolation-filters="sRGB"
       id="filter3720">
      <feGaussianBlur
         id="feGaussianBlur3722"
         stdDeviation="3.3931715" />
    </filter>
    <linearGradient
       inkscape:collect="always"
       xlink:href="#linearGradient3763"
       id="linearGradient3070-2"
       gradientUnits="userSpaceOnUse"
       gradientTransform="matrix(1.231823,0,0,1.231823,-27.816151,7.1708322)"
       x1="64"
       y1="60"
       x2="62"
       y2="7" />
    <linearGradient
       id="linearGradient6088">
      <stop
         id="stop6090"
         style="stop-color:#ff7700;stop-opacity:1"
         offset="0" />
      <stop
         id="stop6092"
         style="stop-color:#ffb15d;stop-opacity:1"
         offset="1" />
    </linearGradient>
    <linearGradient
       inkscape:collect="always"
       xlink:href="#linearGradient3763"
       id="linearGradient3066"
       gradientUnits="userSpaceOnUse"
       gradientTransform="matrix(1.231823,0,0,1.231823,-27.816151,7.1708322)"
       x1="64"
       y1="60"
       x2="62"
       y2="7" />
    <linearGradient
       id="linearGradient6095">
      <stop
         id="stop6097"
         style="stop-color:#ff7700;stop-opacity:1"
         offset="0" />
      <stop
         id="stop6099"
         style="stop-color:#ffb15d;stop-opacity:1"
         offset="1" />
    </linearGradient>
  </defs>
  <sodipodi:namedview
     id="base"
     pagecolor="#ffffff"
     bordercolor="#666666"
     borderopacity="1.0"
     inkscape:pageopacity="0.0"
     inkscape:pageshadow="2"
     inkscape:zoom="3.959798"
     inkscape:cx="12.120081"
     inkscape:cy="47.485879"
     inkscape:document-units="px"
     inkscape:current-layer="layer1"
     showgrid="false"
     inkscape:window-width="1280"
     inkscape:window-height="725"
     inkscape:window-x="0"
     inkscape:window-y="25"
     inkscape:window-maximized="1" />
  <metadata
     id="metadata6312">
    <rdf:RDF>
      <cc:Work
         rdf:about="">
        <dc:format>image/svg+xml</dc:format>
        <dc:type
           rdf:resource="http://purl.org/dc/dcmitype/StillImage" />
        <dc:title></dc:title>
      </cc:Work>
    </rdf:RDF>
  </metadata>
  <g
     inkscape:label="Layer 1"
     inkscape:groupmode="layer"
     id="layer1"
     transform="translate(0,-956.36218)">
    <g
       id="g6898">
      <rect
         transform="translate(0,-7.8515622e-6)"
         y="964.36218"
         x="8"
         height="80"
         width="80"
         id="rect9283"
         style="fill:#000000;fill-opacity:1;stroke:none;filter:url(#filter6279-2)"
         rx="5"
         ry="5" />
      <rect
         ry="5"
         rx="5"
         style="fill:url(#linearGradient9181);fill-opacity:1;stroke:none"
         id="rect9285"
         width="80"
         height="80"
         x="8"
         y="964.36218" />
      <g
         id="layer3"
         style="display:inline"
         transform="translate(0,956.36218)">
        <rect
           style="opacity:0.5;fill:url(#linearGradient3198);fill-opacity:1;fill-rule:nonzero;stroke:#ffffff;stroke-width:0.5;stroke-linecap:round;stroke-linejoin:miter;stroke-miterlimit:4;stroke-opacity:1;stroke-dasharray:none;stroke-dashoffset:0;display:inline;filter:url(#filter3794-91)"
           id="rect3171"
           clip-path="url(#clipPath3613-32)"
           y="15"
           x="15"
           ry="12"
           rx="12"
           height="66"
           width="66" />
      </g>
      <g
         id="g3133"
         style="display:inline"
         transform="matrix(0.75429316,0,0,0.75429316,11.793929,968.20474)">
        <path
           style="opacity:0.6;fill:url(#linearGradient3724-4);fill-opacity:1;fill-rule:evenodd;stroke:#ffffff;stroke-width:2;stroke-miterlimit:4;stroke-dasharray:none;filter:url(#filter3720)"
           id="path3707"
           clip-path="url(#clipPath3716)"
           transform="translate(130,0)"
           inkscape:connector-curvature="0"
           d="m -75.476487,15.447143 c 2.728227,10.748156 -9.631123,14.016333 -14.088975,20.710022 -3.035701,4.560679 1.49006,9.446216 7.660399,15.012842 -2.406258,-5.439316 -10.569721,-10.205905 0,-18.554333 13.180286,-10.403238 6.428576,-17.168531 6.428576,-17.168531 z m 8.122332,13.319085 c 1.44e-4,0 -22.269074,5.557725 -11.625329,17.822938 3.142127,3.616946 -0.808384,6.852015 -0.808384,6.852015 0,0 7.972539,-4.082489 4.311381,-9.238672 -3.420654,-4.806225 -6.075424,-7.20249 8.122332,-15.436281 z m 3.61848,21.903351 c -0.68259,0.03502 -1.386025,0.166507 -2.117196,0.423439 -0.683929,0.242089 -1.03935,0.808384 -1.03935,0.808384 0,0 0.421762,-0.183755 1.385801,-0.384944 3.942276,-0.821464 9.597468,5.279579 -2.617624,11.625329 -0.0566,0.151216 -0.231111,0.34645 -0.230967,0.34645 14.781747,-3.885792 11.217707,-13.157133 4.619336,-12.818658 z m -26.407204,0.615911 c -1.557344,0.04074 -5.23267,0.375417 -9.469638,2.425152 -6.683033,3.231417 16.545675,4.700484 28.562893,1.539779 1.249335,-0.852572 2.964075,-1.578274 2.964075,-1.578274 0,0 -4.918703,0.859298 -9.81609,1.270318 -5.994208,0.502902 -12.40108,0.624374 -15.628753,0.192473 -7.641888,-1.021645 4.195897,-3.849448 4.195897,-3.849448 0,0 -0.289269,-0.01358 -0.808384,0 z m -1.963218,7.390938 c -11.024233,3.658855 6.149272,7.817342 21.556901,3.310524 -1.637023,-0.577069 -2.694613,-1.616767 -2.694613,-1.616767 -7.5333,1.449802 -11.887885,1.377389 -17.399498,0.808384 -4.261126,-0.440399 -1.46279,-2.502141 -1.46279,-2.502141 z m 1.539779,7.121476 c -10.010082,2.796923 6.116784,8.578684 18.862289,3.118052 -2.087503,-0.811237 -3.579986,-1.732251 -3.579986,-1.732251 -5.683711,1.074354 -8.35235,1.166439 -13.511558,0.577418 -4.257958,-0.488357 -1.770745,-1.963219 -1.770745,-1.963219 z m -6.467071,4.73482 c -4.301631,-0.16549 -14.034611,4.113208 -5.697181,5.466214 25.984551,4.211873 47.350866,-1.886407 40.611662,-4.927291 0,0 1.82776,1.521175 -2.040206,2.694612 -7.355009,2.227774 -30.608779,2.887592 -37.070176,0.07699 -2.32109,-1.010988 2.017357,-2.39866 3.387518,-2.694612 1.428632,-0.309057 2.271173,-0.230967 2.271173,-0.230967 -0.3229,-0.227382 -0.848271,-0.361304 -1.46279,-0.384945 z M -58,74.382171 c 0,0 -0.830984,2.103896 -9.700605,3.772457 -10.006332,1.883865 -22.322021,1.670367 -29.640739,0.461934 0,0 1.495931,1.236406 9.200177,1.732251 C -76.418747,81.09827 -58.426144,79.929499 -58,74.382171 z" />
        <g
           id="g3103">
          <g
             id="g3073">
            <path
               style="fill:url(#linearGradient3070-2);fill-opacity:1;fill-rule:evenodd"
               id="path2907"
               inkscape:connector-curvature="0"
               d="m 54.523513,15.447143 c 2.728227,10.748156 -9.631123,14.016333 -14.088975,20.710022 -3.035701,4.560679 1.49006,9.446216 7.660399,15.012842 -2.406258,-5.439316 -10.569721,-10.205905 0,-18.554333 13.180286,-10.403238 6.428576,-17.168531 6.428576,-17.168531 z m 8.122332,13.319085 c 1.44e-4,0 -22.269074,5.557725 -11.625329,17.822938 3.142127,3.616946 -0.808384,6.852015 -0.808384,6.852015 0,0 7.972539,-4.082489 4.311381,-9.238672 -3.420654,-4.806225 -6.075424,-7.20249 8.122332,-15.436281 z m 3.61848,21.903351 c -0.68259,0.03502 -1.386025,0.166507 -2.117196,0.423439 -0.683929,0.242089 -1.03935,0.808384 -1.03935,0.808384 0,0 0.421762,-0.183755 1.385801,-0.384944 3.942276,-0.821464 9.597468,5.279579 -2.617624,11.625329 -0.0566,0.151216 -0.231111,0.34645 -0.230967,0.34645 14.781747,-3.885792 11.217707,-13.157133 4.619336,-12.818658 z M 39.857121,51.28549 c -1.557344,0.04074 -5.23267,0.375417 -9.469638,2.425152 -6.683034,3.231417 16.545675,4.700484 28.562893,1.539779 1.249335,-0.852572 2.964075,-1.578274 2.964075,-1.578274 0,0 -4.918703,0.859298 -9.81609,1.270318 -5.994208,0.502902 -12.40108,0.624374 -15.628753,0.192473 -7.641888,-1.021645 4.195897,-3.849448 4.195897,-3.849448 0,0 -0.289269,-0.01358 -0.808384,0 z m -1.963218,7.390938 c -11.024233,3.658855 6.149272,7.817342 21.556901,3.310524 -1.637023,-0.577069 -2.694613,-1.616767 -2.694613,-1.616767 -7.5333,1.449802 -11.887885,1.377389 -17.399498,0.808384 -4.261126,-0.440399 -1.46279,-2.502141 -1.46279,-2.502141 z m 1.539779,7.121476 c -10.010078,2.796923 6.116784,8.578684 18.862289,3.118052 -2.087503,-0.811237 -3.579986,-1.732251 -3.579986,-1.732251 -5.683711,1.074354 -8.35235,1.166439 -13.511558,0.577418 -4.257958,-0.488357 -1.770745,-1.963219 -1.770745,-1.963219 z m -6.467071,4.73482 c -4.30163,-0.16549 -14.034609,4.113208 -5.697181,5.466214 25.984551,4.211873 47.350866,-1.886407 40.611662,-4.927291 0,0 1.82776,1.521175 -2.040206,2.694612 -7.355009,2.227774 -30.608779,2.887592 -37.070171,0.07699 -2.321097,-1.010988 2.017352,-2.39866 3.387513,-2.694612 1.428632,-0.309057 2.271173,-0.230967 2.271173,-0.230967 -0.3229,-0.227382 -0.848271,-0.361304 -1.46279,-0.384945 z M 72,74.382171 c 0,0 -0.830984,2.103896 -9.700605,3.772457 -10.006332,1.883865 -22.322021,1.670367 -29.640739,0.461934 0,0 1.495931,1.236406 9.200177,1.732251 C 53.581253,81.09827 71.573856,79.929499 72,74.382171 z" />
            <path
               style="fill:url(#linearGradient3066);fill-opacity:1;fill-rule:evenodd"
               id="path3672"
               inkscape:connector-curvature="0"
               d="m 54.523513,15.447143 c 2.728227,10.748156 -9.631123,14.016333 -14.088975,20.710022 -3.035701,4.560679 1.49006,9.446216 7.660399,15.012842 -2.406258,-5.439316 -10.569721,-10.205905 0,-18.554333 13.180286,-10.403238 6.428576,-17.168531 6.428576,-17.168531 z m 8.122332,13.319085 c 1.44e-4,0 -22.269074,5.557725 -11.625329,17.822938 3.142127,3.616946 -0.808384,6.852015 -0.808384,6.852015 0,0 7.972539,-4.082489 4.311381,-9.238672 -3.420654,-4.806225 -6.075424,-7.20249 8.122332,-15.436281 z m 3.61848,21.903351 c -0.68259,0.03502 -1.386025,0.166507 -2.117196,0.423439 -0.683929,0.242089 -1.03935,0.808384 -1.03935,0.808384 0,0 0.421762,-0.183755 1.385801,-0.384944 3.942276,-0.821464 9.597468,5.279579 -2.617624,11.625329 -0.0566,0.151216 -0.231111,0.34645 -0.230967,0.34645 14.781747,-3.885792 11.217707,-13.157133 4.619336,-12.818658 z M 39.857121,51.28549 c -1.557344,0.04074 -5.23267,0.375417 -9.469638,2.425152 -6.683034,3.231417 16.545675,4.700484 28.562893,1.539779 1.249335,-0.852572 2.964075,-1.578274 2.964075,-1.578274 0,0 -4.918703,0.859298 -9.81609,1.270318 -5.994208,0.502902 -12.40108,0.624374 -15.628753,0.192473 -7.641888,-1.021645 4.195897,-3.849448 4.195897,-3.849448 0,0 -0.289269,-0.01358 -0.808384,0 z m -1.963218,7.390938 c -11.024233,3.658855 6.149272,7.817342 21.556901,3.310524 -1.637023,-0.577069 -2.694613,-1.616767 -2.694613,-1.616767 -7.5333,1.449802 -11.887885,1.377389 -17.399498,0.808384 -4.261126,-0.440399 -1.46279,-2.502141 -1.46279,-2.502141 z m 1.539779,7.121476 c -10.010078,2.796923 6.116784,8.578684 18.862289,3.118052 -2.087503,-0.811237 -3.579986,-1.732251 -3.579986,-1.732251 -5.683711,1.074354 -8.35235,1.166439 -13.511558,0.577418 -4.257958,-0.488357 -1.770745,-1.963219 -1.770745,-1.963219 z m -6.467071,4.73482 c -4.30163,-0.16549 -14.034609,4.113208 -5.697181,5.466214 25.984551,4.211873 47.350866,-1.886407 40.611662,-4.927291 0,0 1.82776,1.521175 -2.040206,2.694612 -7.355009,2.227774 -30.608779,2.887592 -37.070171,0.07699 -2.321097,-1.010988 2.017352,-2.39866 3.387513,-2.694612 1.428632,-0.309057 2.271173,-0.230967 2.271173,-0.230967 -0.3229,-0.227382 -0.848271,-0.361304 -1.46279,-0.384945 z M 72,74.382171 c 0,0 -0.830984,2.103896 -9.700605,3.772457 -10.006332,1.883865 -22.322021,1.670367 -29.640739,0.461934 0,0 1.495931,1.236406 9.200177,1.732251 C 53.581253,81.09827 71.573856,79.929499 72,74.382171 z" />
          </g>
        </g>
      </g>
    </g>
  </g>
</svg>
