<?xml version="1.0" encoding="UTF-8" standalone="no"?>
<!-- Created with Inkscape (http://www.inkscape.org/) -->
<svg id="svg6307" xmlns:rdf="http://www.w3.org/1999/02/22-rdf-syntax-ns#" xmlns="http://www.w3.org/2000/svg" height="96" width="96" version="1.1" xmlns:cc="http://creativecommons.org/ns#" xmlns:xlink="http://www.w3.org/1999/xlink" xmlns:dc="http://purl.org/dc/elements/1.1/">
 <defs id="defs6309">
  <filter id="filter6279-2" color-interpolation-filters="sRGB">
   <feGaussianBlur id="feGaussianBlur6281-1" stdDeviation="0.8"/>
  </filter>
  <linearGradient id="linearGradient9181" y2="902.36" gradientUnits="userSpaceOnUse" x2="48" gradientTransform="translate(0 -.0000078516)" y1="1052.4" x1="48">
   <stop id="stop3702-11" style="stop-color:#e6e6e6" offset="0"/>
   <stop id="stop3704-08" style="stop-color:#f5f5f5" offset="1"/>
  </linearGradient>
  <linearGradient id="linearGradient3129" y2="138.66" gradientUnits="userSpaceOnUse" y1="20.221" x2="48" x1="48">
   <stop id="stop3739-2" style="stop-color:#fff" offset="0"/>
   <stop id="stop3741-1-5" style="stop-color:#fff;stop-opacity:0" offset="1"/>
  </linearGradient>
  <clipPath id="clipPath3613-11">
   <rect id="rect3615-08" style="fill:#fff" rx="6" ry="6" height="84" width="84" y="6" x="6"/>
  </clipPath>
  <filter id="filter3794-50" height="1.384" width="1.384" color-interpolation-filters="sRGB" y="-.192" x="-.192">
   <feGaussianBlur id="feGaussianBlur3796-64" stdDeviation="5.28"/>
  </filter>
  <linearGradient id="linearGradient3915-8" y2="67" xlink:href="#linearGradient3909-8" gradientUnits="userSpaceOnUse" x2="28" gradientTransform="translate(2)" y1="60" x1="28"/>
  <linearGradient id="linearGradient3909-8">
   <stop id="stop3911-3" style="stop-color:#fff" offset="0"/>
   <stop id="stop3913-1" style="stop-color:#fff;stop-opacity:0" offset="1"/>
  </linearGradient>
  <linearGradient id="linearGradient3919" y2="67" xlink:href="#linearGradient3909-8" gradientUnits="userSpaceOnUse" x2="28" gradientTransform="translate(38)" y1="60" x1="28"/>
  <linearGradient id="linearGradient3924" y2="67" xlink:href="#linearGradient3909-8" gradientUnits="userSpaceOnUse" x2="28" gradientTransform="translate(20,-40)" y1="60" x1="28"/>
  <linearGradient id="linearGradient3930" y2="67" xlink:href="#linearGradient3909-8" gradientUnits="userSpaceOnUse" x2="28" gradientTransform="translate(20,-20)" y1="60" x1="28"/>
 </defs>
 <metadata id="metadata6312">
  <rdf:RDF>
   <cc:Work rdf:about="">
    <dc:format>image/svg+xml</dc:format>
    <dc:type rdf:resource="http://purl.org/dc/dcmitype/StillImage"/>
    <dc:title/>
   </cc:Work>
  </rdf:RDF>
 </metadata>
 <g id="layer1" transform="translate(0 -956.36)">
  <g id="g6133">
   <rect id="rect9283" ry="5" style="filter:url(#filter6279-2)" rx="5" transform="translate(0 -.0000078516)" height="80" width="80" y="964.36" x="8"/>
   <rect id="rect9285" style="fill:url(#linearGradient9181)" rx="5" ry="5" height="80" width="80" y="964.36" x="8"/>
   <g id="layer3" transform="translate(0 956.36)">
    <rect id="rect3171" style="opacity:.5;filter:url(#filter3794-50);stroke:#fff;stroke-linecap:round;stroke-width:.5;fill:url(#linearGradient3129)" clip-path="url(#clipPath3613-11)" rx="12" ry="12" height="66" width="66" y="15" x="15"/>
   </g>
   <g id="layer4" transform="matrix(.98214 0 0 .98214 .85714 959.24)">
    <path id="rect3887" d="m55 46v1h13v13h1v-13-1h-14z" style="opacity:.4;color:#000000"/>
    <path id="rect3885" d="m29 46v1 13h1v-13h12v-1h-13z" style="opacity:.4;color:#000000"/>
    <rect id="rect3881" style="opacity:.4;color:#000000" height="9" width="1" y="32" x="48"/>
    <rect id="rect3857" style="color:#000000;fill:#9edbec" height="12" width="20" y="19.9" x="38"/>
    <rect id="rect3859" style="color:#000000;fill:#f95" height="12" width="20" y="59.9" x="20"/>
    <rect id="rect3861" style="color:#000000;fill:#fac" height="12" width="20" y="59.9" x="56"/>
    <path id="path3863" d="m38 47 10.5-7 10.5 7-10.5 7z" style="fill:#a8e97c"/>
    <rect id="rect3907" style="opacity:.5;color:#000000;fill:url(#linearGradient3915-8)" height="7.1" width="20" y="59.9" x="20"/>
    <path id="path3872" d="m20 59.906v12h20v-12h-20zm1 1h18v10h-18v-10z" style="opacity:.6;color:#000000;fill:#a35c2d"/>
    <rect id="rect3917" style="opacity:.5;color:#000000;fill:url(#linearGradient3919)" height="7.1" width="20" y="59.9" x="56"/>
    <path id="path3874" d="m56 59.906v12h20v-12h-20zm1 1h18v10h-18v-10z" style="opacity:.5;color:#000000;fill:#d33a78"/>
    <rect id="rect3921" style="opacity:.5;color:#000000;fill:url(#linearGradient3924)" height="7.1" width="20" y="19.9" x="38"/>
    <path id="rect3867" d="m38 19.906v12h20v-12h-20zm1 1h18v10h-18v-10z" style="opacity:.5;color:#000000;fill:#2e72a8"/>
    <path id="rect3928" d="m48.5 40-10.5 7h20v-0.656l-9.5-6.344z" style="opacity:.5;color:#000000;fill:url(#linearGradient3930)"/>
    <path id="path3876" d="m48.5 40-10.5 7 10.5 7 10.5-7-10.5-7zm0 1 8.925 6-8.925 6-8.925-6 8.925-6z" style="opacity:.5;fill:#3f701f"/>
   </g>
  </g>
 </g>
</svg>
