<?xml version="1.0" encoding="UTF-8" standalone="no"?>
<!-- Created with Inkscape (http://www.inkscape.org/) -->
<svg id="svg2408" xmlns:rdf="http://www.w3.org/1999/02/22-rdf-syntax-ns#" xmlns="http://www.w3.org/2000/svg" height="96" width="96" version="1.0" xmlns:cc="http://creativecommons.org/ns#" xmlns:xlink="http://www.w3.org/1999/xlink" xmlns:dc="http://purl.org/dc/elements/1.1/">
 <defs id="defs2410">
  <linearGradient id="ButtonShadow" x1="45.448" gradientUnits="userSpaceOnUse" y1="92.54" gradientTransform="scale(1.0059 .99417)" x2="45.448" y2="7.0165">
   <stop id="stop3750" offset="0"/>
   <stop id="stop3752" style="stop-opacity:.58824" offset="1"/>
  </linearGradient>
  <linearGradient id="linearGradient3737">
   <stop id="stop3739" style="stop-color:#fff" offset="0"/>
   <stop id="stop3741" style="stop-color:#fff;stop-opacity:0" offset="1"/>
  </linearGradient>
  <filter id="filter3174" color-interpolation-filters="sRGB">
   <feGaussianBlur id="feGaussianBlur3176" stdDeviation="1.71"/>
  </filter>
  <linearGradient id="linearGradient3188" x1="36.357" xlink:href="#linearGradient3737" gradientUnits="userSpaceOnUse" x2="36.357" y1="6" y2="63.893"/>
  <radialGradient id="radialGradient3619" xlink:href="#linearGradient3737" gradientUnits="userSpaceOnUse" cy="90.172" cx="48" gradientTransform="matrix(1.1573 0 0 .99591 -7.551 .19713)" r="42"/>
  <linearGradient id="linearGradient2843" x1="48" gradientUnits="userSpaceOnUse" y1="90" gradientTransform="translate(0,100)" x2="48" y2="5.9877">
   <stop id="stop3702" style="stop-color:#2276c5" offset="0"/>
   <stop id="stop3704" style="stop-color:#68baf4" offset="1"/>
  </linearGradient>
  <clipPath id="clipPath3625" clipPathUnits="userSpaceOnUse">
   <path id="path3627" style="fill:#fff" d="m0 0v96h96v-96h-96zm12 6h72c3.324 0 6 2.676 6 6v72c0 3.324-2.676 6-6 6h-72c-3.324 0-6-2.676-6-6v-72c0-3.324 2.676-6 6-6z"/>
  </clipPath>
  <linearGradient id="linearGradient3643" y2="90.015" gradientUnits="userSpaceOnUse" y1="6" x2="44.512" x1="44.512">
   <stop id="stop3639" style="stop-color:#f0f0f0" offset="0"/>
   <stop id="stop3641" style="stop-color:#dcdcdc" offset="1"/>
  </linearGradient>
  <clipPath id="clipPath3649" clipPathUnits="userSpaceOnUse">
   <rect id="rect3651" style="fill:#fff" rx="4" ry="4" height="76" width="76" y="10" x="10"/>
  </clipPath>
  <filter id="filter3657" color-interpolation-filters="sRGB">
   <feGaussianBlur id="feGaussianBlur3659" stdDeviation="1.14"/>
  </filter>
  <linearGradient id="ButtonShadow-0" x1="45.448" gradientUnits="userSpaceOnUse" y1="92.54" gradientTransform="matrix(1.0059 0 0 .99417 100 0)" x2="45.448" y2="7.0165">
   <stop id="stop3750-8" offset="0"/>
   <stop id="stop3752-5" style="stop-opacity:.58824" offset="1"/>
  </linearGradient>
  <linearGradient id="linearGradient3780" x1="32.251" xlink:href="#ButtonShadow-0" gradientUnits="userSpaceOnUse" y1="6.1317" gradientTransform="matrix(1.0238 0 0 -1.0119 -1.1429 98.071)" x2="32.251" y2="90.239"/>
  <linearGradient id="linearGradient3721-6" x1="32.251" xlink:href="#ButtonShadow-0" gradientUnits="userSpaceOnUse" y1="6.1317" gradientTransform="matrix(1,0,0,-1,0,97)" x2="32.251" y2="90.239"/>
  <linearGradient id="linearGradient3181" x1="18.449" gradientUnits="userSpaceOnUse" y1="17.478" gradientTransform="matrix(2.4659 0 0 2.8992 10.507 21.327)" x2="18.449" y2=".92195">
   <stop id="stop4083" style="stop-color:#aaa" offset="0"/>
   <stop id="stop4085" style="stop-color:#f0f0f0" offset="1"/>
  </linearGradient>
 </defs>
 <metadata id="metadata2413">
  <rdf:RDF>
   <cc:Work rdf:about="">
    <dc:format>image/svg+xml</dc:format>
    <dc:type rdf:resource="http://purl.org/dc/dcmitype/StillImage"/>
    <dc:title/>
   </cc:Work>
  </rdf:RDF>
 </metadata>
 <g id="layer2" style="display:none">
  <rect id="rect3745" style="opacity:.9;filter:url(#filter3174);fill:url(#ButtonShadow)" clip-path="url(#clipPath3625)" rx="6" ry="6" height="85" width="86" y="7" x="5"/>
 </g>
 <g id="layer6">
  <path id="path3786" style="opacity:.08;fill:url(#linearGradient3780)" d="m12 3.9688c-5.5111 0-10.031 4.5201-10.031 10.031v71c0 5.5111 4.5202 10.031 10.031 10.031h72c5.5111 0 10.031-4.5202 10.031-10.031v-71c0-5.5111-4.52-10.031-10.031-10.031h-72zm0 2.0312h72c3.324 0 6 2.676 6 6v72c0 3.324-2.676 6-6 6h-72c-3.324 0-6-2.676-6-6v-72c0-3.324 2.676-6 6-6z"/>
  <path id="path3778" style="opacity:.1;fill:url(#linearGradient3780)" d="m12 4.9688c-4.9716 0-9.0312 4.0596-9.0312 9.0312v71c0 4.9716 4.0596 9.0312 9.0312 9.0312h72c4.9716 0 9.0312-4.0596 9.0312-9.0312v-71c0-4.9716-4.059-9.0312-9.031-9.0312h-72zm0 1.0312h72c3.324 0 6 2.676 6 6v72c0 3.324-2.676 6-6 6h-72c-3.324 0-6-2.676-6-6v-72c0-3.324 2.676-6 6-6z"/>
  <path id="path3770" style="opacity:.2;fill:url(#linearGradient3780)" d="m11.188 6.0312c-4.028 0.4107-7.188 3.8352-7.188 7.9688v71c0 4.4091 3.5909 8 8 8h72c4.4091 0 8-3.5909 8-8v-71c0-4.1971-3.259-7.646-7.375-7.9688 3.033 0.3062 5.375 2.8526 5.375 5.9688v72c0 3.324-2.676 6-6 6h-72c-3.324 0-6-2.676-6-6v-72c0-3.1162 2.3421-5.6626 5.375-5.9688-0.06227 0.00488-0.12563-0.00631-0.1875 0z"/>
  <path id="rect3723" style="opacity:.3;fill:url(#linearGradient3780)" d="m6.4375 9.75c-0.8995 1.177-1.4375 2.647-1.4375 4.25v71c0 3.878 3.122 7 7 7h72c3.878 0 7-3.122 7-7v-71c0-1.603-0.538-3.073-1.438-4.25 0.28 0.694 0.438 1.454 0.438 2.25v72c0 3.324-2.676 6-6 6h-72c-3.324 0-6-2.676-6-6v-72c0-0.796 0.1582-1.556 0.4375-2.25z"/>
  <path id="rect3716" style="opacity:.45;fill:url(#linearGradient3721-6)" d="m6 84v1c0 3.324 2.676 6 6 6h72c3.324 0 6-2.676 6-6v-1c0 3.324-2.676 6-6 6h-72c-3.324 0-6-2.676-6-6z"/>
 </g>
 <g id="layer1" style="display:none">
  <rect id="rect2419" style="opacity:.7" rx="6" ry="6" height="84" width="84" y="6" x="6"/>
  <path id="rect3726" style="opacity:.08" d="m14 10c-2.216 0-4 1.784-4 4v68c0 2.216 1.784 4 4 4h68c2.216 0 4-1.784 4-4v-68c0-2.216-1.784-4-4-4h-68zm0 3.0625h68c0.57877 0 0.9375 0.35873 0.9375 0.9375v68c0 0.57877-0.35873 0.9375-0.9375 0.9375h-68c-0.57877 0-0.9375-0.35873-0.9375-0.9375v-68c0-0.57877 0.35873-0.9375 0.9375-0.9375z"/>
  <path id="rect3629" style="fill:url(#linearGradient3643)" d="m12 6c-3.324 0-6 2.676-6 6v72c0 3.324 2.676 6 6 6h72c3.324 0 6-2.676 6-6v-72c0-3.324-2.676-6-6-6h-72zm2 4h68c2.216 0 4 1.784 4 4v68c0 2.216-1.784 4-4 4h-68c-2.216 0-4-1.784-4-4v-68c0-2.216 1.784-4 4-4z"/>
  <path id="rect3728" style="fill:url(#linearGradient3188)" d="m12 6c-3.324 0-6 2.676-6 6v72c0 0.33472 0.04135 0.6507 0.09375 0.96875 0.0487 0.2956 0.09704 0.59692 0.1875 0.875 0.00988 0.03038 0.020892 0.0636 0.03125 0.09375 0.098865 0.28777 0.23488 0.54745 0.375 0.8125 0.14459 0.27351 0.31562 0.53562 0.5 0.78125 0.18438 0.24564 0.37378 0.47347 0.59375 0.6875 0.43995 0.42806 0.94291 0.81453 1.5 1.0938 0.27854 0.13961 0.57347 0.24695 0.875 0.34375-0.2562-0.10022-0.48671-0.23627-0.71875-0.375-0.00741-0.0044-0.023866 0.0045-0.03125 0-0.031933-0.0193-0.062293-0.04251-0.09375-0.0625-0.1204-0.0767-0.23102-0.16351-0.34375-0.25-0.10617-0.0808-0.21328-0.16111-0.3125-0.25-0.1778-0.162-0.3473-0.346-0.4999-0.531-0.1075-0.131-0.2183-0.266-0.3124-0.407-0.0251-0.038-0.0385-0.086-0.0626-0.125-0.0647-0.103-0.1302-0.204-0.1874-0.312-0.1011-0.195-0.2057-0.416-0.2813-0.625-0.008-0.022-0.0236-0.041-0.0313-0.063-0.0318-0.092-0.0358-0.187-0.0624-0.281-0.0304-0.107-0.0704-0.203-0.0938-0.313-0.0729-0.341-0.125-0.698-0.125-1.062v-72c0-2.782 2.2182-5 5-5h72c2.7818 0 5 2.2182 5 5v72c0 0.3643-0.05212 0.72099-0.125 1.0625-0.04415 0.20689-0.08838 0.39766-0.15625 0.59375-0.0077 0.02195-0.0233 0.04069-0.03125 0.0625-0.06274 0.17374-0.13838 0.36745-0.21875 0.53125-0.04158 0.0828-0.07904 0.16995-0.125 0.25-0.0546 0.09721-0.12677 0.18835-0.1875 0.28125-0.09411 0.14096-0.20492 0.276-0.3125 0.40625-0.14317 0.17445-0.30314 0.347-0.46875 0.5-0.01117 0.0102-0.01998 0.02115-0.03125 0.03125-0.13839 0.12556-0.28509 0.23444-0.4375 0.34375-0.10257 0.07315-0.20432 0.15336-0.3125 0.21875-0.0074 0.0045-0.02384-0.0044-0.03125 0-0.23204 0.13873-0.46255 0.27478-0.71875 0.375 0.30153-0.0968 0.59646-0.20414 0.875-0.34375 0.55709-0.27922 1.0601-0.66569 1.5-1.0938 0.21997-0.21403 0.40937-0.44186 0.59375-0.6875s0.35541-0.50774 0.5-0.78125c0.14012-0.26505 0.27614-0.52473 0.375-0.8125 0.01041-0.03078 0.02133-0.06274 0.03125-0.09375 0.09046-0.27808 0.1388-0.5794 0.1875-0.875 0.053-0.318 0.094-0.634 0.094-0.969v-72c0-3.324-2.676-6-6-6h-72z"/>
  <path id="path3615" style="opacity:.6;fill:url(#radialGradient3619)" d="m12 90c-3.324 0-6-2.676-6-6v-72c0-0.33472 0.04135-0.6507 0.09375-0.96875 0.0487-0.2956 0.09704-0.59692 0.1875-0.875 0.0099-0.03 0.0209-0.063 0.0313-0.094 0.0989-0.2873 0.2349-0.547 0.375-0.812 0.1446-0.2735 0.3156-0.5356 0.5-0.7812 0.1844-0.2457 0.3738-0.4735 0.5937-0.6876 0.44-0.428 0.943-0.8145 1.5-1.0937 0.2786-0.1396 0.5735-0.2469 0.8748-0.3437-0.256 0.1002-0.4865 0.2362-0.7185 0.375-0.00741 0.0044-0.023866-0.0045-0.03125 0-0.031933 0.0193-0.062293 0.04251-0.09375 0.0625-0.1204 0.0767-0.23102 0.16351-0.34375 0.25-0.10617 0.0808-0.21328 0.16111-0.3125 0.25-0.1779 0.1614-0.3474 0.3453-0.5 0.5312-0.1075 0.1303-0.2183 0.2653-0.3124 0.4063-0.0251 0.0383-0.0385 0.0858-0.0626 0.125-0.0647 0.103-0.1302 0.2045-0.1874 0.3124-0.1011 0.1948-0.2057 0.4158-0.2813 0.625-0.008 0.0219-0.0236 0.0406-0.0313 0.0626-0.0318 0.0919-0.0358 0.1868-0.0624 0.2812-0.0304 0.1066-0.0704 0.203-0.0938 0.3125-0.0729 0.3415-0.125 0.6985-0.125 1.0625v72c0 2.7818 2.2182 5 5 5h72c2.7818 0 5-2.2182 5-5v-72c0-0.364-0.052-0.721-0.125-1.0625-0.044-0.2069-0.088-0.3977-0.156-0.5937-0.008-0.022-0.024-0.0407-0.031-0.0626-0.063-0.1737-0.139-0.3674-0.219-0.5312-0.042-0.0828-0.079-0.17-0.125-0.25-0.055-0.0972-0.127-0.1884-0.188-0.2812-0.094-0.141-0.205-0.276-0.312-0.4063-0.143-0.1745-0.303-0.347-0.469-0.5-0.011-0.0102-0.02-0.0211-0.031-0.0313-0.139-0.1255-0.285-0.2344-0.438-0.3437-0.102-0.0731-0.204-0.1534-0.312-0.2187-0.0074-0.0045-0.02384 0.0044-0.03125 0-0.23204-0.13873-0.46255-0.27478-0.71875-0.375 0.30153 0.0968 0.59646 0.20414 0.875 0.34375 0.55709 0.27922 1.0601 0.66569 1.5 1.0938 0.21997 0.21403 0.40937 0.44186 0.59375 0.6875s0.35541 0.50774 0.5 0.78125c0.14012 0.26505 0.27614 0.52473 0.375 0.8125 0.01041 0.03078 0.02133 0.06274 0.03125 0.09375 0.09046 0.27808 0.1388 0.5794 0.1875 0.875 0.053 0.318 0.094 0.634 0.094 0.969v72c0 3.324-2.676 6-6 6h-72z"/>
  <rect id="rect2841" style="fill:url(#linearGradient2843)" rx="6" ry="6" height="84" width="84" y="106" x="6"/>
  <rect id="rect3634" style="fill:#f00" rx="4" ry="4" height="76" width="76" y="110" x="10"/>
  <path id="rect3647" style="block-progression:tb;text-indent:0;filter:url(#filter3657);color:#000000;text-transform:none;display:inline" clip-path="url(#clipPath3649)" transform="translate(-110)" d="m14 9c-2.7527 0-5 2.2473-5 5v68c0 2.7527 2.2473 5 5 5h68c2.7527 0 5-2.2473 5-5v-68c0-2.753-2.247-5-5-5h-68zm0 2h68c1.6793 0 3 1.3207 3 3v68c0 1.6793-1.3207 3-3 3h-68c-1.6793 0-3-1.3207-3-3v-68c0-1.6793 1.3207-3 3-3z"/>
  <path id="path3709" style="opacity:.16" d="m14.089 10c-2.216 0-4 1.784-4 4v68c0 2.216 1.784 4 4 4h68c2.216 0 4-1.784 4-4v-68c0-2.216-1.784-4-4-4h-68zm0 2h68c1.1403 0 2 0.8597 2 2v68c0 1.1403-0.8597 2-2 2h-68c-1.1403 0-2-0.8597-2-2v-68c0-1.1403 0.8597-2 2-2z"/>
  <path id="path3707" style="opacity:.36" d="m14 10c-2.216 0-4 1.784-4 4v68c0 2.216 1.784 4 4 4h68c2.216 0 4-1.784 4-4v-68c0-2.216-1.784-4-4-4h-68zm0 1h68c1.6738 0 3 1.3262 3 3v68c0 1.6738-1.3262 3-3 3h-68c-1.6738 0-3-1.3262-3-3v-68c0-1.6738 1.3262-3 3-3z"/>
 </g>
 <g id="layer9">
  <rect id="rect2419-8" style="opacity:.6" rx="6" ry="6" height="84" width="84" y="6" x="6"/>
  <path id="rect3728-6" style="opacity:.01;fill:url(#linearGradient3188)" d="m12 6c-3.324 0-6 2.676-6 6v72c0 0.33472 0.04135 0.6507 0.09375 0.96875 0.0487 0.2956 0.09704 0.59692 0.1875 0.875 0.00988 0.03038 0.020892 0.0636 0.03125 0.09375 0.098865 0.28777 0.23488 0.54745 0.375 0.8125 0.14459 0.27351 0.31562 0.53562 0.5 0.78125 0.18438 0.24564 0.37378 0.47347 0.59375 0.6875 0.43995 0.42806 0.94291 0.81453 1.5 1.0938 0.27854 0.13961 0.57347 0.24695 0.875 0.34375-0.2562-0.10022-0.48671-0.23627-0.71875-0.375-0.00741-0.0044-0.023866 0.0045-0.03125 0-0.031933-0.0193-0.062293-0.04251-0.09375-0.0625-0.1204-0.0767-0.23102-0.16351-0.34375-0.25-0.10617-0.0808-0.21328-0.16111-0.3125-0.25-0.1778-0.162-0.3473-0.346-0.4999-0.531-0.1075-0.131-0.2183-0.266-0.3124-0.407-0.0251-0.038-0.0385-0.086-0.0626-0.125-0.0647-0.103-0.1302-0.204-0.1874-0.312-0.1011-0.195-0.2057-0.416-0.2813-0.625-0.008-0.022-0.0236-0.041-0.0313-0.063-0.0318-0.092-0.0358-0.187-0.0624-0.281-0.0304-0.107-0.0704-0.203-0.0938-0.313-0.0729-0.341-0.125-0.698-0.125-1.062v-72c0-2.782 2.2182-5 5-5h72c2.7818 0 5 2.2182 5 5v72c0 0.3643-0.05212 0.72099-0.125 1.0625-0.04415 0.20689-0.08838 0.39766-0.15625 0.59375-0.0077 0.02195-0.0233 0.04069-0.03125 0.0625-0.06274 0.17374-0.13838 0.36745-0.21875 0.53125-0.04158 0.0828-0.07904 0.16995-0.125 0.25-0.0546 0.09721-0.12677 0.18835-0.1875 0.28125-0.09411 0.14096-0.20492 0.276-0.3125 0.40625-0.14317 0.17445-0.30314 0.347-0.46875 0.5-0.01117 0.0102-0.01998 0.02115-0.03125 0.03125-0.13839 0.12556-0.28509 0.23444-0.4375 0.34375-0.10257 0.07315-0.20432 0.15336-0.3125 0.21875-0.0074 0.0045-0.02384-0.0044-0.03125 0-0.23204 0.13873-0.46255 0.27478-0.71875 0.375 0.30153-0.0968 0.59646-0.20414 0.875-0.34375 0.55709-0.27922 1.0601-0.66569 1.5-1.0938 0.21997-0.21403 0.40937-0.44186 0.59375-0.6875s0.35541-0.50774 0.5-0.78125c0.14012-0.26505 0.27614-0.52473 0.375-0.8125 0.01041-0.03078 0.02133-0.06274 0.03125-0.09375 0.09046-0.27808 0.1388-0.5794 0.1875-0.875 0.053-0.318 0.094-0.634 0.094-0.969v-72c0-3.324-2.676-6-6-6h-72z"/>
  <path id="path3615-5" style="opacity:.15;fill:url(#radialGradient3619)" d="m12 90c-3.324 0-6-2.676-6-6v-72c0-0.33472 0.04135-0.6507 0.09375-0.96875 0.0487-0.2956 0.09704-0.59692 0.1875-0.875 0.0099-0.03 0.0209-0.063 0.0313-0.094 0.0989-0.2873 0.2349-0.547 0.375-0.812 0.1446-0.2735 0.3156-0.5356 0.5-0.7812 0.1844-0.2457 0.3738-0.4735 0.5937-0.6876 0.44-0.428 0.943-0.8145 1.5-1.0937 0.2786-0.1396 0.5735-0.2469 0.8748-0.3437-0.256 0.1002-0.4865 0.2362-0.7185 0.375-0.00741 0.0044-0.023866-0.0045-0.03125 0-0.031933 0.0193-0.062293 0.04251-0.09375 0.0625-0.1204 0.0767-0.23102 0.16351-0.34375 0.25-0.10617 0.0808-0.21328 0.16111-0.3125 0.25-0.1779 0.1614-0.3474 0.3453-0.5 0.5312-0.1075 0.1303-0.2183 0.2653-0.3124 0.4063-0.0251 0.0383-0.0385 0.0858-0.0626 0.125-0.0647 0.103-0.1302 0.2045-0.1874 0.3124-0.1011 0.1948-0.2057 0.4158-0.2813 0.625-0.008 0.0219-0.0236 0.0406-0.0313 0.0626-0.0318 0.0919-0.0358 0.1868-0.0624 0.2812-0.0304 0.1066-0.0704 0.203-0.0938 0.3125-0.0729 0.3415-0.125 0.6985-0.125 1.0625v72c0 2.7818 2.2182 5 5 5h72c2.7818 0 5-2.2182 5-5v-72c0-0.364-0.052-0.721-0.125-1.0625-0.044-0.2069-0.088-0.3977-0.156-0.5937-0.008-0.022-0.024-0.0407-0.031-0.0626-0.063-0.1737-0.139-0.3674-0.219-0.5312-0.042-0.0828-0.079-0.17-0.125-0.25-0.055-0.0972-0.127-0.1884-0.188-0.2812-0.094-0.141-0.205-0.276-0.312-0.4063-0.143-0.1745-0.303-0.347-0.469-0.5-0.011-0.0102-0.02-0.0211-0.031-0.0313-0.139-0.1255-0.285-0.2344-0.438-0.3437-0.102-0.0731-0.204-0.1534-0.312-0.2187-0.0074-0.0045-0.02384 0.0044-0.03125 0-0.23204-0.13873-0.46255-0.27478-0.71875-0.375 0.30153 0.0968 0.59646 0.20414 0.875 0.34375 0.55709 0.27922 1.0601 0.66569 1.5 1.0938 0.21997 0.21403 0.40937 0.44186 0.59375 0.6875s0.35541 0.50774 0.5 0.78125c0.14012 0.26505 0.27614 0.52473 0.375 0.8125 0.01041 0.03078 0.02133 0.06274 0.03125 0.09375 0.09046 0.27808 0.1388 0.5794 0.1875 0.875 0.053 0.318 0.094 0.634 0.094 0.969v72c0 3.324-2.676 6-6 6h-72z"/>
 </g>
 <g id="layer3">
  <path id="path3996" style="opacity:.1" d="m33.344 23c-3.5851-0.10718-6.4475 3.4058-6 6.8827v11.899c-3.3037 0.26787-5.7515 3.5226-5.3438 6.7577 0.01738 4.3432-0.03524 8.688 0.02719 13.03-0.0968 3.1973 3.4929 4.7072 5.3166 5.7473-0.19159 2.4799 0.35127 5.2526 2.6484 6.6571 2.3516 1.5912 5.2602 0.85787 7.9124 1.0265 8.4819-0.0255 16.967 0.05118 25.447-0.03865 1.8167-0.56612 2.8437-1.1362 4.5234 0.0074 3.3371 0.31538 6.7512-3.1861 5.9935-6.5375 0.203-1.38-2.696-2.268-1.603-3.245 2.259-2.082 1.655-5.274 1.735-8.01-0.05799-3.5453 0.1242-7.1052-0.10707-10.64-0.15586-2.9635-3.6114-4.1456-5.2367-5.1948-0.04248-4.4164 0.08732-8.8413-0.0693-13.252-0.413-3.304-3.772-5.484-6.961-5.088h-28.282zm3.3125 9.3438h22.688c0.29794 1.343-0.26266 1.5105-1.4765 1.3125-6.9757 0.02084-13.958-0.04168-20.93 0.03125-0.56082 0.40923-0.15914-1.1053-0.28125-1.3438zm12.75 11.75c2.2295 0.32518-0.12412 0.2491-1.0505 0.25-0.64662 0.06748 1.0668-0.31367 1.0505-0.25zm15.938 8.25c2.5921 1.6796-2.5898 1.5662 0 0zm-3.9375 5.5312c0.97286 0.26842-0.39586 1.002 0 0zm-5.031 4.844c0.83975 0.01241 1.0938 2.7691 1.1433 2.9375h-20.862c-0.24838-1.1272 0.18429-1.5734 1.3241-1.3125 1.5101-0.10775 3.0951 0.23805 4.5509-0.21875 1.0923-1.9614 2.7773 0.01574 4.556 0.07084 3.1441 0.60635 6.4947 0.10228 9.2878-1.4771z"/>
  <path id="path3992" style="opacity:.15" transform="translate(0,1)" d="m33.344 22.938c-2.7945 0-5.0625 2.268-5.0625 5.0625v13.594h-0.28125c-2.7945 0-5.0625 2.268-5.0625 5.0625v13.344c0 2.7945 2.268 5.0625 5.0625 5.0625h0.28125v2.9375c0 2.7945 2.268 5.0625 5.0625 5.0625h29.312c0.80017 0 1.5544-0.17803 2.2188-0.5a1.0781 1.0781 0 0 0 0.53125 -1.3438l1.032 1.032s0.61834 0.62388 1.5938 0.78125c0.97541 0.15736 2.2678-0.20989 3.5312-1.4688 1.2644-1.2598 1.6277-2.5543 1.4688-3.5312-0.157-0.961-0.762-1.543-0.782-1.562l-2.25-2.281a1.0781 1.0781 0 0 0 1.0625 -0.125c1.2267-0.9216 2-2.4089 2-4.0625v-13.344c0-2.7945-2.268-5.0625-5.0625-5.0625h-0.28125v-13.594c0-2.7945-2.268-5.0625-5.0625-5.0625h-29.312zm2.656 7.468h24c0.18039 0 0.28125 0.10001 0.28125 0.25v10.719a1.0781 1.0781 0 0 0 0.15625 0.59375c0.0838 0.12665 0.10861 0.27738 0.1875 0.40625-0.53905-0.87224-1.024-1.7768-1.7812-2.5312-0.54187-0.53989-1.113-1.0098-1.7188-1.4375a1.0781 1.0781 0 0 0 0.1875 0h1.4375a1.0781 1.0781 0 0 0 1.0625 -1.0625v-2.6875a1.0781 1.0781 0 0 0 -1.062 -1.062h-21.406a1.0781 1.0781 0 0 0 -1.0625 1.0625v2.6875a1.0781 1.0781 0 0 0 1.0625 1.0625h4.0625a1.0781 1.0781 0 0 0 0.21875 0c-0.61057 0.43087-1.203 0.89248-1.75 1.4375-0.17691 0.17626-0.3038 0.379-0.46875 0.5625a1.0781 1.0781 0 0 0 -1 -1.4688h-1.0625a1.0781 1.0781 0 0 0 -1.063 1.063v1.4062a1.0781 1.0781 0 0 0 1.6875 0.875c-0.59562 0.96149-1.0461 1.9772-1.375 3.0312a1.0781 1.0781 0 0 0 -0.875 -1.0312v-13.625c0-0.14999 0.10086-0.25 0.28125-0.25zm11.969 5.8125c-0.95445 0.09952-1.8936 0.22852-2.8125 0.53125 0.91588-0.30684 1.8616-0.43055 2.8125-0.53125zm2.8125 0c0.93194 0.10283 1.8495 0.2314 2.75 0.53125-0.89812-0.29244-1.82-0.43101-2.75-0.53125zm-1.375 5.9375c2.0228 0 3.8298 0.84881 5.125 2.1875a1.0781 1.0781 0 0 0 -0.407 -0.063h-9.5312a1.0781 1.0781 0 0 0 -0.344 0.031c0.02601-0.02678 0.03608-0.06742 0.0625-0.09375 1.2885-1.2838 3.1013-2.0625 5.0938-2.0625zm12.531 3.032c0.03072 0.09618 0.06531 0.1845 0.09375 0.28125-0.02889-0.09555-0.06268-0.18624-0.09375-0.28125zm3.4062 6.5312c0.14259 0 0.25 0.10814 0.25 0.28125 0.000001 0.1731-0.10741 0.28125-0.25 0.28125s-0.28125-0.13866-0.28125-0.28125 0.13866-0.28125 0.28125-0.28125zm-4.282 5.843a1.0781 1.0781 0 0 0 0.3125 0.21875c-0.04966-0.0016-0.14983 0.0035-0.1875 0-0.1695-0.01575-0.13127-0.0604-0.0625 0 0.02916 0.02561-0.03661-0.16234-0.0625-0.21875zm-19.656 2.25c4.3819 3.2892 10.206 3.7162 14.844 0.9375 0.35096 0.02097 0.73766 0.0631 1.0625 0.125 0.39192 0.07468 0.64193 0.24603 0.5625 0.15625-0.06521-0.07371-0.04486-0.1048-0.03125 0.0625s0.02975 0.47925 0.03125 0.84375c0.0029 0.7097 0.11897 1.8098 0.96875 2.625 0.02311 0.02217 0.03831 0.04077 0.0625 0.0625l1 1.0312a1.0781 1.0781 0 0 0 -0.375 -0.0625h-23.531c-0.18039 0-0.28125-0.10001-0.28125-0.25v-2.9376h5.875a1.0781 1.0781 0 0 0 0.594 -1.966c-0.27969-0.17833-0.51449-0.42866-0.78125-0.625z"/>
  <path id="path3986" style="opacity:.3" transform="translate(0,1)" d="m33.344 24c-2.216 0-4 1.784-4 4v14.656h-1.3438c-2.216 0-4 1.784-4 4v13.344c0 2.216 1.784 4 4 4h1.3438v4c0 2.216 1.784 4 4 4h29.312c0.6281 0 1.2221-0.15039 1.75-0.40625l-4.875-4.9375h-23.531c-0.73867 0-1.3438-0.57383-1.3438-1.3125v-4h6.9375c-0.85-0.542-1.662-1.165-2.406-1.906-3.823-3.809-5.045-9.244-3.657-14.094h-0.875v-14.688c0-0.73867 0.60508-1.3125 1.3438-1.3125h24c0.73867 0 1.3438 0.57383 1.3438 1.3125v10.719c2.9726 4.4926 3.0887 10.299 0.4375 14.969 0.01474 0.16684 0.03977 0.32118 0.0625 0.46875 0.09179 0.000772 0.10692-0.002 0.21875 0 0.78271 0.01369 2.2541 0.20064 3.3125 1.3125 0.02179 0.02289 0.04107 0.03881 0.0625 0.0625l4.9688 5c0.969-0.728 1.593-1.875 1.593-3.187v-13.344c0-2.216-1.784-4-4-4h-1.3438v-14.656c0-2.216-1.784-4-4-4h-29.312zm4 10.656v2.6875h4.0625c2.397-1.5949 5.166-2.4062 7.9375-2.4062 2.7716 0 5.562 0.81023 7.9688 2.4062h1.4375v-2.6875h-21.406zm12 2.3438c-3.1629 0-6.3072 1.1911-8.7188 3.5938-4.823 4.8054-4.823 12.601 0 17.406 4.2046 4.1892 10.678 4.7711 15.469 1.6562 0.81426 0.04071 2.1272 0.12887 2.5938 0.65625 0.63531 0.71808-0.2809 2.4056 0.9375 3.5l7.593 7.688s1.4044 1.4939 3.5938-0.6875c2.189-2.181 0.687-3.593 0.687-3.593l-7.594-7.657c-1.0984-1.2139-2.7793-0.33578-3.5-0.96875-0.52932-0.46488-0.64666-1.7512-0.6875-2.5625 3.1263-4.7728 2.5796-11.248-1.625-15.438-2.412-2.402-5.587-3.593-8.75-3.593zm-12 3v1.4062c0.321-0.486 0.675-0.954 1.062-1.406h-1.0625zm12.062 1.0938c4.5472 0 8.2188 3.6882 8.2188 8.2188 0 4.5305-3.6716 8.2188-8.2188 8.2188-4.5472 0.000002-8.25-3.6882-8.25-8.2188 0.000001-2.2653 0.91523-4.3582 2.4062-5.8438s3.5702-2.375 5.8438-2.375zm-4.8125 4.25c-0.87053 1.0664-1.375 2.4691-1.375 3.9688 0 3.4152 2.7472 6.1563 6.1875 6.1562 3.4403 0 6.1562-2.7316 6.1562-6.1562 0-1.5146-0.54727-2.9016-1.4375-3.9688h-9.5312zm20.75 5.3125c0.736 0 1.3125 0.60775 1.3125 1.3438 0.000004 0.736-0.5765 1.3438-1.3125 1.3438s-1.344-0.608-1.344-1.344c0.000002-0.736 0.60775-1.3438 1.3438-1.3438z"/>
  <path id="Symbol" style="fill:url(#linearGradient3181)" d="m33.344 24c-2.216 0-4 1.784-4 4v14.656h-1.344c-2.216 0-4 1.784-4 4v13.344c0 2.216 1.784 4 4 4h1.344v4c0 2.216 1.784 4 4 4h29.312c0.628 0 1.222-0.15 1.75-0.406l-4.875-4.938h-23.531c-0.739 0-1.344-0.574-1.344-1.312v-4h6.938c-0.85-0.542-1.662-1.165-2.406-1.906-3.823-3.809-5.045-9.244-3.657-14.094h-0.875v-14.688c0-0.738 0.605-1.312 1.344-1.312h24c0.739 0 1.344 0.574 1.344 1.312v10.719c2.972 4.493 3.088 10.299 0.437 14.969 0.015 0.167 0.04 0.321 0.063 0.468 0.092 0.001 0.107-0.001 0.218 0 0.783 0.014 2.255 0.201 3.313 1.313 0.022 0.023 0.041 0.039 0.063 0.063l4.968 5c0.97-0.729 1.594-1.876 1.594-3.188v-13.344c0-2.216-1.784-4-4-4h-1.344v-14.656c0-2.216-1.784-4-4-4h-29.312zm4 10.656v2.688h4.062c2.397-1.595 5.166-2.406 7.938-2.406 2.771 0 5.562 0.81 7.968 2.406h1.438v-2.688h-21.406zm12 2.344c-3.163 0-6.307 1.191-8.719 3.594-4.823 4.805-4.823 12.601 0 17.406 4.205 4.189 10.678 4.771 15.469 1.656 0.814 0.041 2.127 0.129 2.594 0.656 0.635 0.719-0.281 2.406 0.937 3.5l7.594 7.688s1.404 1.494 3.593-0.688c2.19-2.181 0.688-3.593 0.688-3.593l-7.594-7.657c-1.098-1.213-2.779-0.335-3.5-0.968-0.529-0.465-0.646-1.751-0.687-2.563 3.126-4.773 2.579-11.248-1.625-15.437-2.412-2.403-5.587-3.594-8.75-3.594zm-12 3v1.406c0.321-0.486 0.675-0.954 1.062-1.406h-1.062zm12.062 1.094c4.547 0 8.219 3.688 8.219 8.218 0 4.531-3.672 8.219-8.219 8.219s-8.25-3.688-8.25-8.219c0-2.265 0.915-4.358 2.406-5.843 1.492-1.486 3.571-2.375 5.844-2.375zm-4.812 4.25c-0.871 1.066-1.375 2.469-1.375 3.968 0 3.416 2.747 6.157 6.187 6.157 3.441 0 6.156-2.732 6.156-6.157 0-1.514-0.547-2.901-1.437-3.968h-9.531zm20.75 5.312c0.736 0 1.312 0.608 1.312 1.344s-0.576 1.344-1.312 1.344-1.344-0.608-1.344-1.344 0.608-1.344 1.344-1.344z"/>
  <path id="path3184" style="opacity:.75;fill:#fff" d="m33.344 24c-2.216 0-4 1.784-4 4v1c0-2.216 1.784-4 4-4h29.312c2.216 0 4 1.784 4 4v-1c0-2.216-1.784-4-4-4h-29.312zm4 10.656v1h7.531c1.453-0.48 2.954-0.718 4.469-0.718s3.039 0.238 4.5 0.718h4.906v-1h-21.406zm12 2.344c-3.163 0-6.307 1.191-8.719 3.594-2.539 2.529-3.727 5.873-3.594 9.187 0.124-2.978 1.313-5.915 3.594-8.187 2.412-2.403 5.556-3.594 8.719-3.594s6.338 1.191 8.75 3.594c2.277 2.269 3.465 5.211 3.594 8.187 0.124-3.31-1.062-6.664-3.594-9.187-2.412-2.403-5.587-3.594-8.75-3.594zm-12 3v1h0.281c0.244-0.342 0.503-0.675 0.781-1h-1.062zm-9.344 2.656c-2.216 0-4 1.784-4 4v1c0-2.216 1.784-4 4-4h1.344v-1h-1.344zm38.656 0v1h1.344c2.216 0 4 1.784 4 4v-1c0-2.216-1.784-4-4-4h-1.344zm-32 2.688v1h0.625c0.071-0.339 0.155-0.666 0.25-1h-0.875zm9.938 0c-0.871 1.066-1.375 2.469-1.375 3.968 0 0.214 0.01 0.418 0.031 0.626 0.078-1.355 0.548-2.619 1.344-3.594h9.531c0.779 0.934 1.289 2.111 1.406 3.406 0.011-0.147 0.031-0.288 0.031-0.438 0-1.514-0.547-2.901-1.437-3.968h-9.531zm-9.594 4.375c-0.157 3.866 1.233 7.775 4.188 10.719 0.329 0.328 0.677 0.621 1.031 0.906h1.375c-0.85-0.542-1.662-1.165-2.406-1.906-2.7-2.69-4.086-6.186-4.188-9.719zm28.656 0.062c-0.093 2.273-0.715 4.52-1.875 6.563 0.015 0.167 0.04 0.321 0.063 0.468 0.092 0.001 0.107-0.001 0.218 0 1.129-2.196 1.658-4.63 1.594-7.031zm-22.468 0.031c-0.01 0.166-0.032 0.333-0.032 0.5 0 4.531 3.703 8.219 8.25 8.219s8.219-3.688 8.219-8.219c0-0.167-0.021-0.334-0.031-0.5-0.259 4.299-3.809 7.719-8.188 7.719-4.378 0-7.958-3.42-8.218-7.719zm22.906 2.719c-0.054 0.145-0.094 0.307-0.094 0.469 0 0.736 0.608 1.344 1.344 1.344s1.312-0.608 1.312-1.344c0-0.162-0.042-0.324-0.094-0.469-0.196 0.482-0.666 0.813-1.218 0.813s-1.045-0.331-1.25-0.813zm-4.282 4.344c-0.033 0.052-0.059 0.105-0.093 0.156 0.041 0.812 0.158 2.098 0.687 2.563 0.721 0.633 2.402-0.245 3.5 0.968l7.594 7.657s0.3 0.282 0.438 0.781c0.246-1.106-0.438-1.781-0.438-1.781l-7.594-7.657c-1.098-1.213-2.779-0.335-3.5-0.968-0.368-0.323-0.511-1.037-0.594-1.719zm-25.156 8.469v1c0 0.738 0.605 1.312 1.344 1.312h23.531l4.157 4.219c0.248-0.067 0.492-0.172 0.718-0.281l-4.875-4.938h-23.531c-0.739 0-1.344-0.574-1.344-1.312z"/>
  <path id="path3973" style="opacity:.15" d="m36 28.344c-0.739 0-1.344 0.574-1.344 1.312v1c0-0.738 0.605-1.312 1.344-1.312h24c0.739 0 1.344 0.574 1.344 1.312v-1c0-0.738-0.605-1.312-1.344-1.312h-24zm8.875 6.312c-1.205 0.399-2.382 0.965-3.469 1.688h-4.062v1h4.062c2.397-1.595 5.166-2.406 7.938-2.406 2.771 0 5.562 0.81 7.968 2.406h1.438v-1h-1.438c-1.09-0.724-2.257-1.289-3.468-1.688h-8.969zm-7.25 5.344c-0.096 0.134-0.19 0.269-0.281 0.406v1c0.321-0.486 0.675-0.954 1.062-1.406h-0.781zm11.781 0.094c-2.273 0-4.352 0.889-5.844 2.375-1.491 1.485-2.406 3.578-2.406 5.843 0 0.168 0.021 0.335 0.032 0.5 0.123-2.071 0.994-3.968 2.374-5.343 1.492-1.486 3.571-2.375 5.844-2.375 4.379 0 7.929 3.42 8.188 7.718 0.01-0.165 0.031-0.332 0.031-0.5 0-4.53-3.672-8.218-8.219-8.218zm11.938 0.281v1c1.486 2.246 2.243 4.809 2.312 7.406 0.12-2.922-0.64-5.879-2.312-8.406zm-26.063 4.969c-0.231 1.106-0.314 2.25-0.281 3.375 0.046-1.136 0.216-2.274 0.531-3.375h-0.25zm1.75 3.437c-0.137 3.319 1.052 6.686 3.594 9.219 4.205 4.189 10.678 4.771 15.469 1.656 0.814 0.041 2.127 0.129 2.594 0.656 0.139 0.158 0.221 0.36 0.25 0.594-0.003-0.648 0.067-1.234-0.25-1.594-0.467-0.527-1.78-0.615-2.594-0.656-4.791 3.115-11.264 2.533-15.469-1.656-2.285-2.276-3.473-5.236-3.594-8.219zm24.657 0c-0.083 2.186-0.726 4.352-1.969 6.25 0.012 0.248 0.057 0.545 0.093 0.844 1.364-2.152 1.982-4.634 1.876-7.094zm-18.438 0.157c-0.007 0.126-0.031 0.246-0.031 0.374 0 3.416 2.747 6.157 6.187 6.157 3.441 0 6.156-2.732 6.156-6.157 0-0.126-0.023-0.25-0.031-0.374-0.311 3.121-2.899 5.531-6.125 5.531-3.225 0-5.842-2.416-6.156-5.531zm22.094 0.718c-0.736 0-1.344 0.608-1.344 1.344 0 0.162 0.04 0.324 0.094 0.469 0.205-0.482 0.698-0.813 1.25-0.813s1.022 0.331 1.218 0.813c0.052-0.145 0.094-0.307 0.094-0.469 0-0.736-0.576-1.344-1.312-1.344zm-3.282 6.156c-0.092 0.18-0.18 0.355-0.281 0.532 0.015 0.167 0.04 0.321 0.063 0.468 0.092 0.001 0.107-0.001 0.218 0 0.783 0.014 2.255 0.201 3.313 1.313 0.022 0.023 0.041 0.039 0.063 0.063l4.968 5c0.97-0.729 1.594-1.876 1.594-3.188v-1c0 1.312-0.624 2.459-1.594 3.188l-4.968-5c-0.022-0.024-0.041-0.04-0.063-0.063-1.058-1.112-2.53-1.299-3.313-1.313zm-38.062 3.188v1c0 2.216 1.784 4 4 4h1.344v-1h-1.344c-2.216 0-4-1.784-4-4zm10.656 1.344v1h6.938c-0.474-0.302-0.931-0.642-1.375-1h-5.563zm24.282 0.656c0.067 0.829-0.227 1.992 0.687 2.812l7.594 7.688s1.404 1.494 3.593-0.688c1.22-1.214 1.299-2.185 1.126-2.812-0.116 0.519-0.427 1.116-1.126 1.812-2.189 2.182-3.593 0.688-3.593 0.688l-7.594-7.688c-0.581-0.521-0.678-1.19-0.687-1.812zm-29.594 6v1c0 2.216 1.784 4 4 4h29.312c0.628 0 1.222-0.15 1.75-0.406l-0.718-0.719c-0.331 0.09-0.673 0.125-1.032 0.125h-29.312c-2.216 0-4-1.784-4-4z"/>
 </g>
</svg>
