<?xml version="1.0" encoding="UTF-8" standalone="no"?>
<!-- Created with Inkscape (http://www.inkscape.org/) -->
<svg id="svg2408" xmlns:rdf="http://www.w3.org/1999/02/22-rdf-syntax-ns#" xmlns="http://www.w3.org/2000/svg" height="96" width="96" version="1.0" xmlns:cc="http://creativecommons.org/ns#" xmlns:xlink="http://www.w3.org/1999/xlink" xmlns:dc="http://purl.org/dc/elements/1.1/">
 <defs id="defs2410">
  <linearGradient id="ButtonShadow" x1="45.448" gradientUnits="userSpaceOnUse" y1="92.54" gradientTransform="scale(1.0059 .99417)" x2="45.448" y2="7.0165">
   <stop id="stop3750" offset="0"/>
   <stop id="stop3752" style="stop-opacity:.58824" offset="1"/>
  </linearGradient>
  <linearGradient id="linearGradient3737">
   <stop id="stop3739" style="stop-color:#fff" offset="0"/>
   <stop id="stop3741" style="stop-color:#fff;stop-opacity:0" offset="1"/>
  </linearGradient>
  <filter id="filter3174" color-interpolation-filters="sRGB">
   <feGaussianBlur id="feGaussianBlur3176" stdDeviation="1.71"/>
  </filter>
  <linearGradient id="linearGradient3188" x1="36.357" xlink:href="#linearGradient3737" gradientUnits="userSpaceOnUse" x2="36.357" y1="6" y2="63.893"/>
  <radialGradient id="radialGradient3619" xlink:href="#linearGradient3737" gradientUnits="userSpaceOnUse" cy="90.172" cx="48" gradientTransform="matrix(1.1573 0 0 .99591 -7.551 .19713)" r="42"/>
  <linearGradient id="linearGradient2843" x1="48" gradientUnits="userSpaceOnUse" y1="90" gradientTransform="translate(0,100)" x2="48" y2="5.9877">
   <stop id="stop3702" style="stop-color:#2276c5" offset="0"/>
   <stop id="stop3704" style="stop-color:#68baf4" offset="1"/>
  </linearGradient>
  <clipPath id="clipPath3625">
   <path id="path3627" style="fill:#fff" d="m0 0v96h96v-96h-96zm12 6h72c3.324 0 6 2.676 6 6v72c0 3.324-2.676 6-6 6h-72c-3.324 0-6-2.676-6-6v-72c0-3.324 2.676-6 6-6z"/>
  </clipPath>
  <linearGradient id="linearGradient3643" y2="90.015" gradientUnits="userSpaceOnUse" y1="6" x2="44.512" x1="44.512">
   <stop id="stop3639" style="stop-color:#f0f0f0" offset="0"/>
   <stop id="stop3641" style="stop-color:#dcdcdc" offset="1"/>
  </linearGradient>
  <clipPath id="clipPath3649">
   <rect id="rect3651" style="fill:#fff" rx="4" ry="4" height="76" width="76" y="10" x="10"/>
  </clipPath>
  <filter id="filter3657" color-interpolation-filters="sRGB">
   <feGaussianBlur id="feGaussianBlur3659" stdDeviation="1.14"/>
  </filter>
  <linearGradient id="linearGradient4081">
   <stop id="stop4083" style="stop-color:#aaa" offset="0"/>
   <stop id="stop4085" style="stop-color:#f0f0f0" offset="1"/>
  </linearGradient>
  <linearGradient id="linearGradient3038" x1="56.692" xlink:href="#linearGradient4081" gradientUnits="userSpaceOnUse" y1="66.53" gradientTransform="translate(0,-80)" x2="56.692" y2="26.511"/>
  <linearGradient id="linearGradient2923" x1="49" gradientUnits="userSpaceOnUse" y1="66.118" gradientTransform="matrix(-1,0,0,1,26,-90)" x2="49" y2="28">
   <stop id="stop4083-2" style="stop-color:#aaa" offset="0"/>
   <stop id="stop4085-0" style="stop-color:#f0f0f0" offset="1"/>
  </linearGradient>
  <linearGradient id="linearGradient2941" x1="29.827" gradientUnits="userSpaceOnUse" y1="51.954" gradientTransform="translate(79.953 3.0469)" x2="65.694" y2="51.954">
   <stop id="stop3177-6" style="stop-opacity:.86275" offset="0"/>
   <stop id="stop3179-8" style="stop-opacity:.47059" offset="1"/>
  </linearGradient>
  <linearGradient id="linearGradient3722" x1="55" xlink:href="#linearGradient4081" gradientUnits="userSpaceOnUse" x2="55" y1="72" y2="23.99"/>
 </defs>
 <metadata id="metadata2413">
  <rdf:RDF>
   <cc:Work rdf:about="">
    <dc:format>image/svg+xml</dc:format>
    <dc:type rdf:resource="http://purl.org/dc/dcmitype/StillImage"/>
   </cc:Work>
  </rdf:RDF>
 </metadata>
 <g id="layer2">
  <rect id="rect3745" style="opacity:.9;filter:url(#filter3174);fill:url(#ButtonShadow)" clip-path="url(#clipPath3625)" rx="6" ry="6" height="85" width="86" y="7" x="5"/>
 </g>
 <g id="layer1">
  <rect id="rect2419" style="opacity:.7" rx="6" ry="6" height="84" width="84" y="6" x="6"/>
  <path id="rect3726" style="opacity:.08" d="m14 10c-2.216 0-4 1.784-4 4v68c0 2.216 1.784 4 4 4h68c2.216 0 4-1.784 4-4v-68c0-2.216-1.784-4-4-4h-68zm0 3.0625h68c0.57877 0 0.9375 0.35873 0.9375 0.9375v68c0 0.57877-0.35873 0.9375-0.9375 0.9375h-68c-0.57877 0-0.9375-0.35873-0.9375-0.9375v-68c0-0.57877 0.35873-0.9375 0.9375-0.9375z"/>
  <path id="rect3629" style="fill:url(#linearGradient3643)" d="m12 6c-3.324 0-6 2.676-6 6v72c0 3.324 2.676 6 6 6h72c3.324 0 6-2.676 6-6v-72c0-3.324-2.676-6-6-6h-72zm2 4h68c2.216 0 4 1.784 4 4v68c0 2.216-1.784 4-4 4h-68c-2.216 0-4-1.784-4-4v-68c0-2.216 1.784-4 4-4z"/>
  <path id="rect3728" style="fill:url(#linearGradient3188)" d="m12 6c-3.324 0-6 2.676-6 6v72c0 0.33472 0.04135 0.6507 0.09375 0.96875 0.0487 0.2956 0.09704 0.59692 0.1875 0.875 0.00988 0.03038 0.020892 0.0636 0.03125 0.09375 0.098865 0.28777 0.23488 0.54745 0.375 0.8125 0.14459 0.27351 0.31562 0.53562 0.5 0.78125 0.18438 0.24564 0.37378 0.47347 0.59375 0.6875 0.43995 0.42806 0.94291 0.81453 1.5 1.0938 0.27854 0.13961 0.57347 0.24695 0.875 0.34375-0.2562-0.10022-0.48671-0.23627-0.71875-0.375-0.00741-0.0044-0.023866 0.0045-0.03125 0-0.031933-0.0193-0.062293-0.04251-0.09375-0.0625-0.1204-0.0767-0.23102-0.16351-0.34375-0.25-0.10617-0.0808-0.21328-0.16111-0.3125-0.25-0.1778-0.162-0.3473-0.346-0.4999-0.531-0.1075-0.131-0.2183-0.266-0.3124-0.407-0.0251-0.038-0.0385-0.086-0.0626-0.125-0.0647-0.103-0.1302-0.204-0.1874-0.312-0.1011-0.195-0.2057-0.416-0.2813-0.625-0.008-0.022-0.0236-0.041-0.0313-0.063-0.0318-0.092-0.0358-0.187-0.0624-0.281-0.0304-0.107-0.0704-0.203-0.0938-0.313-0.0729-0.341-0.125-0.698-0.125-1.062v-72c0-2.782 2.2182-5 5-5h72c2.7818 0 5 2.2182 5 5v72c0 0.3643-0.05212 0.72099-0.125 1.0625-0.04415 0.20689-0.08838 0.39766-0.15625 0.59375-0.0077 0.02195-0.0233 0.04069-0.03125 0.0625-0.06274 0.17374-0.13838 0.36745-0.21875 0.53125-0.04158 0.0828-0.07904 0.16995-0.125 0.25-0.0546 0.09721-0.12677 0.18835-0.1875 0.28125-0.09411 0.14096-0.20492 0.276-0.3125 0.40625-0.14317 0.17445-0.30314 0.347-0.46875 0.5-0.01117 0.0102-0.01998 0.02115-0.03125 0.03125-0.13839 0.12556-0.28509 0.23444-0.4375 0.34375-0.10257 0.07315-0.20432 0.15336-0.3125 0.21875-0.0074 0.0045-0.02384-0.0044-0.03125 0-0.23204 0.13873-0.46255 0.27478-0.71875 0.375 0.30153-0.0968 0.59646-0.20414 0.875-0.34375 0.55709-0.27922 1.0601-0.66569 1.5-1.0938 0.21997-0.21403 0.40937-0.44186 0.59375-0.6875s0.35541-0.50774 0.5-0.78125c0.14012-0.26505 0.27614-0.52473 0.375-0.8125 0.01041-0.03078 0.02133-0.06274 0.03125-0.09375 0.09046-0.27808 0.1388-0.5794 0.1875-0.875 0.053-0.318 0.094-0.634 0.094-0.969v-72c0-3.324-2.676-6-6-6h-72z"/>
  <path id="path3615" style="opacity:.6;fill:url(#radialGradient3619)" d="m12 90c-3.324 0-6-2.676-6-6v-72c0-0.33472 0.04135-0.6507 0.09375-0.96875 0.0487-0.2956 0.09704-0.59692 0.1875-0.875 0.0099-0.03 0.0209-0.063 0.0313-0.094 0.0989-0.2873 0.2349-0.547 0.375-0.812 0.1446-0.2735 0.3156-0.5356 0.5-0.7812 0.1844-0.2457 0.3738-0.4735 0.5937-0.6876 0.44-0.428 0.943-0.8145 1.5-1.0937 0.2786-0.1396 0.5735-0.2469 0.8748-0.3437-0.256 0.1002-0.4865 0.2362-0.7185 0.375-0.00741 0.0044-0.023866-0.0045-0.03125 0-0.031933 0.0193-0.062293 0.04251-0.09375 0.0625-0.1204 0.0767-0.23102 0.16351-0.34375 0.25-0.10617 0.0808-0.21328 0.16111-0.3125 0.25-0.1779 0.1614-0.3474 0.3453-0.5 0.5312-0.1075 0.1303-0.2183 0.2653-0.3124 0.4063-0.0251 0.0383-0.0385 0.0858-0.0626 0.125-0.0647 0.103-0.1302 0.2045-0.1874 0.3124-0.1011 0.1948-0.2057 0.4158-0.2813 0.625-0.008 0.0219-0.0236 0.0406-0.0313 0.0626-0.0318 0.0919-0.0358 0.1868-0.0624 0.2812-0.0304 0.1066-0.0704 0.203-0.0938 0.3125-0.0729 0.3415-0.125 0.6985-0.125 1.0625v72c0 2.7818 2.2182 5 5 5h72c2.7818 0 5-2.2182 5-5v-72c0-0.364-0.052-0.721-0.125-1.0625-0.044-0.2069-0.088-0.3977-0.156-0.5937-0.008-0.022-0.024-0.0407-0.031-0.0626-0.063-0.1737-0.139-0.3674-0.219-0.5312-0.042-0.0828-0.079-0.17-0.125-0.25-0.055-0.0972-0.127-0.1884-0.188-0.2812-0.094-0.141-0.205-0.276-0.312-0.4063-0.143-0.1745-0.303-0.347-0.469-0.5-0.011-0.0102-0.02-0.0211-0.031-0.0313-0.139-0.1255-0.285-0.2344-0.438-0.3437-0.102-0.0731-0.204-0.1534-0.312-0.2187-0.0074-0.0045-0.02384 0.0044-0.03125 0-0.23204-0.13873-0.46255-0.27478-0.71875-0.375 0.30153 0.0968 0.59646 0.20414 0.875 0.34375 0.55709 0.27922 1.0601 0.66569 1.5 1.0938 0.21997 0.21403 0.40937 0.44186 0.59375 0.6875s0.35541 0.50774 0.5 0.78125c0.14012 0.26505 0.27614 0.52473 0.375 0.8125 0.01041 0.03078 0.02133 0.06274 0.03125 0.09375 0.09046 0.27808 0.1388 0.5794 0.1875 0.875 0.053 0.318 0.094 0.634 0.094 0.969v72c0 3.324-2.676 6-6 6h-72z"/>
  <rect id="rect2841" style="fill:url(#linearGradient2843)" rx="6" ry="6" height="84" width="84" y="106" x="6"/>
  <rect id="rect3634" style="fill:#f00" rx="4" ry="4" height="76" width="76" y="110" x="10"/>
  <path id="rect3647" clip-path="url(#clipPath3649)" style="block-progression:tb;filter:url(#filter3657);text-transform:none;color:#000000;text-indent:0" transform="translate(-110)" d="m14 9c-2.7527 0-5 2.2473-5 5v68c0 2.7527 2.2473 5 5 5h68c2.7527 0 5-2.2473 5-5v-68c0-2.753-2.247-5-5-5h-68zm0 2h68c1.6793 0 3 1.3207 3 3v68c0 1.6793-1.3207 3-3 3h-68c-1.6793 0-3-1.3207-3-3v-68c0-1.6793 1.3207-3 3-3z"/>
  <path id="path3709" style="opacity:.16" d="m14.089 10c-2.216 0-4 1.784-4 4v68c0 2.216 1.784 4 4 4h68c2.216 0 4-1.784 4-4v-68c0-2.216-1.784-4-4-4h-68zm0 2h68c1.1403 0 2 0.8597 2 2v68c0 1.1403-0.8597 2-2 2h-68c-1.1403 0-2-0.8597-2-2v-68c0-1.1403 0.8597-2 2-2z"/>
  <path id="path3707" style="opacity:.36" d="m14 10c-2.216 0-4 1.784-4 4v68c0 2.216 1.784 4 4 4h68c2.216 0 4-1.784 4-4v-68c0-2.216-1.784-4-4-4h-68zm0 1h68c1.6738 0 3 1.3262 3 3v68c0 1.6738-1.3262 3-3 3h-68c-1.6738 0-3-1.3262-3-3v-68c0-1.6738 1.3262-3 3-3z"/>
 </g>
 <g id="layer3">
  <path id="path3753" style="opacity:.1" d="m48 22.938c-14.377 0-26.062 11.685-26.062 26.062s11.685 26.062 26.062 26.062 26.062-11.685 26.062-26.062-11.685-26.062-26.062-26.062z"/>
  <path id="path3749" style="opacity:.15" d="m48 24.031c-13.786 0-24.969 11.183-24.969 24.969s11.183 24.969 24.969 24.969 24.969-11.183 24.969-24.969-11.183-24.969-24.969-24.969zm-1.0938 8h2.0625v12.062h-2.0625v-12.062zm6 5.1875c4.6817 1.9592 8.0625 6.4997 8.0625 11.906 0 7.1724-5.7964 12.969-12.969 12.969-7.1724 0-12.969-5.7964-12.969-12.969 0-5.3628 3.3117-9.8288 7.9375-11.812v2.1562c-3.4907 1.8399-5.875 5.4616-5.875 9.6562 0 6.023 4.8833 10.906 10.906 10.906 6.023 0 10.906-4.8833 10.906-10.906 0-4.2401-2.4554-7.8976-6-9.7188v-2.1875z"/>
  <path id="path3743" style="opacity:.3" d="m48 25c-13.255 0-24 10.745-24 24s10.745 24 24 24 24-10.745 24-24-10.745-24-24-24zm-2.0625 6.0625h4v14h-4v-14zm6 4.625c5.7859 1.7028 10 7.1004 10 13.438 0 7.7024-6.2351 13.938-13.938 13.938-7.7024 0-13.938-6.2351-13.938-13.938 0-6.2924 4.1443-11.633 9.875-13.375v4.25c-3.4747 1.5599-5.875 5.0786-5.875 9.125 0 5.4933 4.4442 9.9375 9.9375 9.9375s9.9375-4.4442 9.9375-9.9375c0-4.0954-2.4665-7.6563-6-9.1875v-4.25z"/>
  <path id="path3710" style="opacity:.1" d="m-26.219-65.062c-1.349 0.126-2.0743 1.5477-1.875 2.7927v4.3323c-0.55368-1.341-2.3799-1.6039-3.4567-0.71258-7.0951 3.7303-11.443 11.99-10.412 19.952 0.83702 8.1629 7.2066 15.357 15.192 17.218 7.3991 1.9046 15.702-0.93654 20.419-6.9382 5.1075-6.166 5.9037-15.465 1.8739-22.394-2.07-3.6167-5.2586-6.727-9.1159-8.3439-0.93412-0.18299-1.9307 0.33908-2.3125 1.2188-0.0926-1.3296 0.22609-4.7308-0.25-6-0.8377-1.5457-2.7389-1.0406-4.1734-1.125h-5.8891zm-1.875 16.031c0.04901 1.5402-0.10627 3.0967 0.09375 4.625 0.3917 1.3913 1.9331 1.619 3.1648 1.5 2.4124-0.03959 4.837 0.08053 7.2414-0.0625 1.4486-0.23449 1.8422-1.8258 1.6875-3.0796v-2.9829c0.70493 1.1923 1.9947 1.9701 2.5718 3.2797 2.6162 4.4239 0.93399 10.678-3.516 13.23-4.2497 2.69-10.413 1.4474-13.236-2.7316-2.8969-3.9139-2.2513-9.9145 1.4929-13.06 0.20912-0.20044 0.38075-0.45752 0.5-0.71875z"/>
  <path id="path3705" style="opacity:.15" d="m-26.219-64.031c-0.47854 0.10405-0.8508 0.57283-0.84375 1.0625v17.969c0.0047 0.55504 0.50746 1.0578 1.0625 1.0625h8c0.55504-0.0047 1.0578-0.50746 1.0625-1.0625v-17.969c-0.0047-0.55504-0.50746-1.0578-1.0625-1.0625h-8c-0.07266-0.0075-0.14609-0.0075-0.21875 0zm-3.9062 5.875c-0.11874 0.01182-0.23545 0.04365-0.34375 0.09375-6.2682 3.1227-10.594 9.5947-10.594 17.062 0 10.516 8.5468 19.062 19.062 19.062 10.516 0 19.062-8.5468 19.062-19.062 0-7.4678-4.3256-13.94-10.594-17.062-0.65011-0.30877-1.5318 0.24904-1.5312 0.96875v7.2188c-0.0073 0.303 0.12122 0.60673 0.34375 0.8125 2.2353 1.9981 3.6562 4.832 3.6562 8.0625 0 6.0484-4.8891 10.938-10.938 10.938-6.0484 0-10.938-4.8891-10.938-10.938 0-3.2305 1.4209-6.0644 3.6562-8.0625 0.22253-0.20577 0.35104-0.5095 0.34375-0.8125v-7.2188c-0.0015-0.59887-0.59214-1.1273-1.1875-1.0625z"/>
  <path id="path2927" style="opacity:.3" d="m-40-41c0 9.936 8.064 18 18 18s18-8.064 18-18c0-7.0543-4.0831-13.146-10-16.094v7.2188c2.4477 2.1879 4 5.3316 4 8.875 0 6.6274-5.3726 12-12 12s-12-5.3726-12-12c0-3.5434 1.5523-6.6871 4-8.875v-7.2188c-5.9169 2.9477-10 9.0394-10 16.094zm14-19.969v15.969h8v-15.969h4-12z"/>
  <path id="path3689" style="opacity:.1;filter:url(#filter4022)" transform="translate(0,-80)" d="m45.688 26.094c-0.0082 0.0014-0.17948 0.06038-0.1875 0.0625-0.008 0.0021-0.14845 0.02843-0.15625 0.03125-0.0078 0.0028-0.14873 0.059-0.15625 0.0625-0.0075 0.0035-0.14907 0.0896-0.15625 0.09375-0.0072 0.0042-0.11821 0.08898-0.125 0.09375-0.0068 0.0048-0.11866 0.0884-0.125 0.09375-0.0063 0.0054-0.11916 0.11911-0.125 0.125-0.0058 0.0059-0.11971 0.11861-0.125 0.125-0.0053 0.0064-0.08904 0.11817-0.09375 0.125-0.0047 0.0068-0.08967 0.11778-0.09375 0.125-0.0041 0.0072-0.05907 0.1487-0.0625 0.15625-0.0034 0.0076-0.05976 0.14842-0.0625 0.15625-0.0027 0.0078-0.06046 0.14821-0.0625 0.15625-0.002 0.008-0.02993 0.17931-0.03125 0.1875-0.0013 0.0082-0.03066 0.14798-0.03125 0.15625-0.000588 0.0083-0.000147 0.14796 0 0.15625v14c-0.000016 0.0046-0.000211 0.08915 0 0.09375s-0.000438 0.08916 0 0.09375c0.000438 0.0046 0.03059 0.08919 0.03125 0.09375 0.000664 0.0046-0.000888 0.08923 0 0.09375 0.000888 0.0045 0.03014 0.08928 0.03125 0.09375 0.0011 0.0045 0.02992 0.08933 0.03125 0.09375 0.0013 0.0044 0.0297 0.05816 0.03125 0.0625 0.0015 0.0043 0.02949 0.08949 0.03125 0.09375 0.0018 0.0043 0.02929 0.08958 0.03125 0.09375 0.002 0.0042 0.02908 0.08968 0.03125 0.09375 0.0022 0.0041 0.06013 0.05854 0.0625 0.0625 0.0024 0.004 0.02869 0.08991 0.03125 0.09375 0.0026 0.0038 0.05976 0.0588 0.0625 0.0625 0.0027 0.0037 0.05958 0.09018 0.0625 0.09375 0.0029 0.0036 0.0594 0.05908 0.0625 0.0625 0.0031 0.0034 0.05924 0.05924 0.0625 0.0625 0.0033 0.0033 0.05908 0.0594 0.0625 0.0625 0.0034 0.0031 0.05893 0.05958 0.0625 0.0625 0.0036 0.0029 0.09005 0.05976 0.09375 0.0625 0.0037 0.0027 0.05866 0.05994 0.0625 0.0625 0.0038 0.0026 0.08979 0.02888 0.09375 0.03125 0.004 0.0024 0.05843 0.06033 0.0625 0.0625 0.0041 0.0022 0.08958 0.02929 0.09375 0.03125 0.0042 0.002 0.08949 0.02949 0.09375 0.03125 0.0043 0.0018 0.08941 0.0297 0.09375 0.03125 0.0043 0.0015 0.05808 0.02992 0.0625 0.03125 0.0044 0.0013 0.08928 0.03014 0.09375 0.03125 0.0045 0.0011 0.08923 0.03036 0.09375 0.03125 0.0045 0.000888 0.08919-0.000664 0.09375 0 0.0046 0.000664 0.08916 0.03081 0.09375 0.03125 0.0046 0.000438 0.08915-0.000211 0.09375 0s0.08914 0.000016 0.09375 0h4c0.0046 0.000016 0.08915 0.000211 0.09375 0s0.08916 0.000438 0.09375 0c0.0046-0.000438 0.08919-0.03059 0.09375-0.03125 0.0046-0.000664 0.08923 0.000888 0.09375 0 0.0045-0.000888 0.08928-0.03014 0.09375-0.03125 0.0045-0.0011 0.08933-0.02992 0.09375-0.03125 0.0044-0.0013 0.05816-0.0297 0.0625-0.03125 0.0043-0.0015 0.08949-0.02949 0.09375-0.03125 0.0043-0.0018 0.08958-0.02929 0.09375-0.03125 0.0042-0.002 0.08968-0.02908 0.09375-0.03125 0.0041-0.0022 0.05854-0.06013 0.0625-0.0625 0.004-0.0024 0.08991-0.02869 0.09375-0.03125 0.0038-0.0026 0.0588-0.05976 0.0625-0.0625 0.0037-0.0027 0.09018-0.05958 0.09375-0.0625 0.0036-0.0029 0.05908-0.0594 0.0625-0.0625 0.0034-0.0031 0.05924-0.05924 0.0625-0.0625 0.0033-0.0033 0.0594-0.05908 0.0625-0.0625 0.0031-0.0034 0.05958-0.05893 0.0625-0.0625 0.0029-0.0036 0.05976-0.09005 0.0625-0.09375 0.0027-0.0037 0.05994-0.05866 0.0625-0.0625 0.0026-0.0038 0.02888-0.08979 0.03125-0.09375 0.0024-0.004 0.06033-0.05843 0.0625-0.0625 0.0022-0.0041 0.02929-0.08958 0.03125-0.09375 0.002-0.0042 0.02949-0.08949 0.03125-0.09375 0.0018-0.0043 0.0297-0.08941 0.03125-0.09375 0.0015-0.0043 0.02992-0.05808 0.03125-0.0625 0.0013-0.0044 0.03014-0.08928 0.03125-0.09375 0.0011-0.0045 0.03036-0.08923 0.03125-0.09375 0.000888-0.0045-0.000664-0.08919 0-0.09375 0.000664-0.0046 0.03081-0.08916 0.03125-0.09375 0.000438-0.0046-0.000211-0.08915 0-0.09375s0.000016-0.08914 0-0.09375v-14c0.000016-0.0046 0.000211-0.08914 0-0.09375-0.000211-0.0046 0.000438-0.08916 0-0.09375-0.000438-0.0046-0.03059-0.08919-0.03125-0.09375-0.000664-0.0046 0.000888-0.08923 0-0.09375-0.000888-0.0045-0.03014-0.08928-0.03125-0.09375-0.0011-0.0045-0.02992-0.08933-0.03125-0.09375-0.0013-0.0044-0.0297-0.05816-0.03125-0.0625-0.0015-0.0043-0.02949-0.08949-0.03125-0.09375-0.0018-0.0043-0.02929-0.08958-0.03125-0.09375-0.002-0.0042-0.02908-0.08968-0.03125-0.09375-0.0022-0.0041-0.06013-0.05854-0.0625-0.0625-0.0024-0.004-0.02869-0.08992-0.03125-0.09375-0.0026-0.0038-0.05976-0.05879-0.0625-0.0625-0.0027-0.0037-0.05958-0.09019-0.0625-0.09375-0.0029-0.0036-0.0594-0.05908-0.0625-0.0625-0.0031-0.0034-0.05924-0.05924-0.0625-0.0625-0.0033-0.0033-0.05908-0.05941-0.0625-0.0625-0.0034-0.0031-0.05893-0.05958-0.0625-0.0625-0.0036-0.0029-0.09005-0.05976-0.09375-0.0625-0.0037-0.0027-0.05866-0.05994-0.0625-0.0625-0.0038-0.0026-0.08979-0.02888-0.09375-0.03125-0.004-0.0024-0.05843-0.06033-0.0625-0.0625-0.0041-0.0022-0.08958-0.02929-0.09375-0.03125-0.0042-0.002-0.08949-0.02949-0.09375-0.03125-0.0043-0.0018-0.08941-0.0297-0.09375-0.03125-0.0043-0.0015-0.05808-0.02992-0.0625-0.03125-0.0044-0.0013-0.08928-0.03014-0.09375-0.03125-0.0045-0.0011-0.08923-0.03036-0.09375-0.03125-0.0045-0.000888-0.08919 0.000664-0.09375 0-0.0046-0.000664-0.08916-0.03081-0.09375-0.03125-0.0046-0.000438-0.08915 0.000211-0.09375 0s-0.08914-0.000016-0.09375 0h-3.9688c-0.0016-0.000069-0.02073 0.000042-0.03125 0-0.02104-0.000083-0.03255-0.000028-0.0625 0-0.0032-0.000138-0.03255 0.000028-0.0625 0-0.04493-0.000042-0.08893-0.000208-0.09375 0a0.80955 0.80955 0 0 0 -0.09375 0zm-3.9688 4.0625c-0.0048 0.000845-0.12024 0.03016-0.125 0.03125-0.0048 0.0011-0.08905 0.02991-0.09375 0.03125-0.0047 0.0013-0.08913 0.02966-0.09375 0.03125-0.0032 0.0011-0.03599 0.02133-0.0625 0.03125-0.01136 0.0042-0.02989-0.000548-0.03125 0-7.702 2.748-13.219 10.092-13.219 18.719 0 10.965 8.9413 19.906 19.906 19.906s19.906-8.9413 19.906-19.906c0-8.6375-5.5338-15.979-13.25-18.719-0.0053-0.002-0.08834-0.02961-0.09375-0.03125-0.0054-0.0016-0.1195-0.02994-0.125-0.03125-0.0055-0.0013-0.11943-0.03027-0.125-0.03125-0.0056-0.000976-0.08813-0.03061-0.09375-0.03125-0.0056-0.000638-0.11936 0.000298-0.125 0-0.0056-0.000298-0.11935-0.000044-0.125 0-0.0057 0.000044-0.08811-0.000385-0.09375 0-0.0056 0.000385-0.1194-0.000725-0.125 0s-0.11945 0.03019-0.125 0.03125c-0.0056 0.0011-0.08827 0.02986-0.09375 0.03125-0.0055 0.0014-0.11962 0.02953-0.125 0.03125-0.0054 0.0017-0.08848 0.0292-0.09375 0.03125-0.0053 0.002-0.11986 0.02889-0.125 0.03125-0.0051 0.0024-0.08877 0.05983-0.09375 0.0625-0.005 0.0027-0.08894 0.05954-0.09375 0.0625-0.0048 0.003-0.08913 0.05925-0.09375 0.0625-0.0046 0.0032-0.08933 0.05898-0.09375 0.0625-0.0044 0.0035-0.08955 0.08997-0.09375 0.09375-0.0042 0.0038-0.05854 0.05847-0.0625 0.0625-0.004 0.004-0.09004 0.08949-0.09375 0.09375-0.0037 0.0043-0.05905 0.08927-0.0625 0.09375-0.0034 0.0045-0.05933 0.08907-0.0625 0.09375-0.0032 0.0047-0.05962 0.08889-0.0625 0.09375-0.0029 0.0049-0.05991 0.08872-0.0625 0.09375-0.0026 0.005-0.06022 0.08858-0.0625 0.09375-0.0023 0.0052-0.02929 0.1197-0.03125 0.125-0.002 0.0053-0.02961 0.08834-0.03125 0.09375-0.0016 0.0054-0.02994 0.1195-0.03125 0.125-0.0013 0.0055-0.03028 0.08818-0.03125 0.09375-0.000972 0.0056-0.03062 0.11938-0.03125 0.125-0.000634 0.0056 0.000294 0.11936 0 0.125-0.000294 0.0056-0.000048 0.0881 0 0.09375v4.3125c0.000102 0.0065-0.000555 0.14976 0 0.15625 0.000555 0.0065 0.03024 0.11856 0.03125 0.125 0.001 0.0064 0.0298 0.11865 0.03125 0.125 0.0015 0.0063 0.02936 0.11877 0.03125 0.125 0.0019 0.0062 0.02893 0.11891 0.03125 0.125 0.0023 0.0061 0.05976 0.11909 0.0625 0.125 0.0027 0.0059 0.05936 0.1193 0.0625 0.125 0.0031 0.0057 0.05897 0.08828 0.0625 0.09375 0.0035 0.0055 0.0586 0.11979 0.0625 0.125 0.0039 0.0052 0.08949 0.08882 0.09375 0.09375 0.0043 0.0049 0.08916 0.08913 0.09375 0.09375 0.0046 0.0046 0.08885 0.08946 0.09375 0.09375 0.0049 0.0043 0.08856 0.08981 0.09375 0.09375 0.0052 0.0039 0.11955 0.05893 0.125 0.0625 0.0054 0.0036 0.08807 0.05932 0.09375 0.0625 0.0057 0.0032 0.11911 0.05972 0.125 0.0625 4.0838 1.9454 6.9062 6.101 6.9062 10.938 0 6.7076-5.3862 12.094-12.094 12.094-6.7076 0-12.094-5.3862-12.094-12.094 0-4.8365 2.8225-8.9921 6.9062-10.938 0.0059-0.0028 0.11932-0.05932 0.125-0.0625 0.0057-0.0032 0.0883-0.05893 0.09375-0.0625 0.0054-0.0036 0.11981-0.05856 0.125-0.0625 0.0052-0.0039 0.08885-0.08946 0.09375-0.09375 0.0049-0.0043 0.08916-0.08913 0.09375-0.09375 0.0046-0.0046 0.08949-0.08882 0.09375-0.09375 0.0043-0.0049 0.08985-0.08854 0.09375-0.09375 0.0039-0.0052 0.05897-0.11953 0.0625-0.125 0.0035-0.0055 0.05936-0.08805 0.0625-0.09375 0.0031-0.0057 0.05976-0.11909 0.0625-0.125 0.0027-0.0059 0.06018-0.11891 0.0625-0.125 0.0023-0.0061 0.02936-0.11877 0.03125-0.125 0.0019-0.0062 0.0298-0.11865 0.03125-0.125 0.0015-0.0063 0.03024-0.11856 0.03125-0.125 0.001-0.0064 0.0307-0.11851 0.03125-0.125 0.000555-0.0065-0.000102-0.14974 0-0.15625v-4.3125c0.000072-0.0051 0.000202-0.08869 0-0.09375-0.000202-0.0051 0.000475-0.08871 0-0.09375-0.000475-0.005-0.0305-0.08874-0.03125-0.09375-0.000747-0.005 0.001-0.12004 0-0.125-0.001-0.005-0.02997-0.08885-0.03125-0.09375-0.0013-0.0049-0.0297-0.08893-0.03125-0.09375-0.0015-0.0048-0.02944-0.08902-0.03125-0.09375-0.0018-0.0047-0.02919-0.08912-0.03125-0.09375-0.0021-0.0046-0.06019-0.08924-0.0625-0.09375-0.0023-0.0045-0.0287-0.08938-0.03125-0.09375-0.0025-0.0044-0.05972-0.08952-0.0625-0.09375-0.0028-0.0042-0.05949-0.08967-0.0625-0.09375-0.003-0.0041-0.05928-0.05859-0.0625-0.0625-0.0032-0.0039-0.05907-0.09002-0.0625-0.09375-0.0034-0.0037-0.05888-0.05897-0.0625-0.0625-0.0036-0.0035-0.08994-0.05917-0.09375-0.0625-0.0038-0.0033-0.05851-0.05938-0.0625-0.0625-0.004-0.0031-0.0896-0.0596-0.09375-0.0625-0.0041-0.0029-0.08945-0.05983-0.09375-0.0625-0.0043-0.0027-0.08931-0.06006-0.09375-0.0625-0.0044-0.0024-0.08919-0.02906-0.09375-0.03125-0.0046-0.0022-0.08908-0.06056-0.09375-0.0625-0.0047-0.0019-0.08898-0.02956-0.09375-0.03125-0.0048-0.0017-0.08889-0.02982-0.09375-0.03125-0.0049-0.0014-0.08882-0.03009-0.09375-0.03125-0.0049-0.0012-0.08877 0.000893-0.09375 0-0.005-0.000893-0.08873-0.03063-0.09375-0.03125-0.005-0.000622-0.11995 0.00035-0.125 0-0.005-0.00035-0.08869 0.000076-0.09375 0-0.0051-0.000076-0.08869-0.000198-0.09375 0-0.0051 0.000198-0.11996-0.000472-0.125 0-0.005 0.000472-0.08874-0.000744-0.09375 0z"/>
  <path id="path3685" style="opacity:.15;filter:url(#filter4022)" transform="translate(0,-80)" d="m45.906 26.906a1.09 1.09 0 0 0 -1 1.0938v14a1.09 1.09 0 0 0 1.094 1.094h4a1.09 1.09 0 0 0 1.094 -1.094v-14a1.09 1.09 0 0 0 -1.094 -1.094h-4a1.09 1.09 0 0 0 -0.09375 0zm-4.0625 4.0625a1.09 1.09 0 0 0 -0.219 0.063c-7.401 2.629-12.719 9.678-12.719 17.969 0 10.526 8.5681 19.094 19.094 19.094s19.094-8.5681 19.094-19.094c0-8.2914-5.3174-15.34-12.719-17.969a1.09 1.09 0 0 0 -1.4688 1.0312v4.3125a1.09 1.09 0 0 0 0.625 0.96875c4.3564 2.0753 7.375 6.5036 7.375 11.656 0 7.143-5.7633 12.906-12.906 12.906-7.143 0-12.906-5.7633-12.906-12.906 0-5.1526 3.0186-9.581 7.375-11.656a1.09 1.09 0 0 0 0.625 -0.96875v-4.3125a1.09 1.09 0 0 0 -1.25 -1.0938z"/>
  <path id="path3679" style="opacity:.3;filter:url(#filter4022)" d="m42-47.938c-6.9787 2.4783-12 9.1123-12 16.938 0 9.936 8.064 18 18 18s18-8.064 18-18c0-7.8252-5.0213-14.459-12-16.938v4.3125c4.7225 2.2497 8 7.0456 8 12.625 0 7.732-6.268 14-14 14s-14-6.268-14-14c0-5.5794 3.2775-10.375 8-12.625v-4.3125zm4-4.062v14h4v-14h-4z"/>
  <path id="path3771" style="filter:url(#filter4022);fill:url(#linearGradient3038)" d="m42-48.938c-6.9787 2.4783-12 9.1123-12 16.938 0 9.936 8.064 18 18 18s18-8.064 18-18c0-7.8252-5.0213-14.459-12-16.938v4.3125c4.7225 2.2497 8 7.0456 8 12.625 0 7.732-6.268 14-14 14s-14-6.268-14-14c0-5.5794 3.2775-10.375 8-12.625v-4.3125zm4-4.062v14h4v-14h-4z"/>
  <path id="path3831" style="fill:#fff" d="m46-53v1h4v-1h-4zm-4 4.0625c-6.9787 2.4783-12 9.1123-12 16.938 0 0.15801 0.0272 0.31171 0.03125 0.46875 0.225-7.589 5.152-13.985 11.969-16.407v-1zm12 0v1c6.8174 2.421 11.744 8.8173 11.969 16.406 0.004-0.156 0.031-0.31 0.031-0.468 0-7.825-5.021-14.459-12-16.938zm-19.969 17.344c-0.008 0.199-0.031 0.393-0.031 0.594 0 7.732 6.268 14 14 14s14-6.268 14-14c0-0.20091-0.02284-0.39495-0.03125-0.59375-0.217 7.543-6.374 13.594-13.969 13.594s-13.752-6.051-13.969-13.594z"/>
  <path id="path3697" style="fill:url(#linearGradient2923)" d="m-40-42c0 9.936 8.064 18 18 18s18-8.064 18-18c0-7.0543-4.0831-13.146-10-16.094v7.2188c2.4477 2.1879 4 5.3316 4 8.875 0 6.6274-5.3726 12-12 12s-12-5.3726-12-12c0-3.5434 1.5523-6.6871 4-8.875v-7.2188c-5.9169 2.9477-10 9.0394-10 16.094zm14-21.969v17.969h8v-17.969h-8z"/>
  <path id="path2922" style="fill:#fff" d="m-26-63.969v1h8v-1h-8zm-4 5.875c-5.9169 2.9477-10 9.0394-10 16.094 0 0.15801 0.0272 0.31171 0.03125 0.46875 0.20006-6.8269 4.2016-12.689 9.9688-15.562v-1zm16 0v1c5.7672 2.8731 9.7687 8.7356 9.9688 15.562 0.004-0.156 0.0312-0.31 0.0312-0.468 0-7.0543-4.0831-13.146-10-16.094zm-19.969 16.562c-0.008 0.178-0.031 0.353-0.031 0.532 0 6.6274 5.3726 12 12 12s12-5.3726 12-12c0-0.17938-0.02338-0.354-0.03125-0.53125-0.25 6.406-5.501 11.531-11.969 11.531s-11.719-5.1245-11.969-11.531z"/>
  <path id="path2914" style="fill:url(#linearGradient3722)" d="m48 24c-13.255 0-24 10.745-24 24s10.745 24 24 24 24-10.745 24-24-10.745-24-24-24zm-2.0625 6.0625h4v14h-4v-14zm6 4.625c5.7859 1.7028 10 7.1004 10 13.438 0 7.7024-6.2351 13.938-13.938 13.938-7.7024 0-13.938-6.2351-13.938-13.938 0-6.2924 4.1443-11.633 9.875-13.375v4.25c-3.4747 1.5599-5.875 5.0786-5.875 9.125 0 5.4933 4.4442 9.9375 9.9375 9.9375s9.9375-4.4442 9.9375-9.9375c0-4.0954-2.4665-7.6563-6-9.1875v-4.25z"/>
  <path id="path2939" style="opacity:.8;fill:url(#linearGradient2941)" d="m114.05 48.109c0 7.7024 6.2664 13.938 13.969 13.938 7.7024 0 13.938-6.2351 13.938-13.938 0-6.3371-4.2141-11.703-10-13.406v4.25c3.5335 1.5312 6 5.0608 6 9.1562 0 5.4933-4.4442 9.9375-9.9375 9.9375s-9.9688-4.4442-9.9688-9.9375c0-4.0464 2.4315-7.5338 5.9062-9.0938v-4.2812c-5.7307 1.742-9.9062 7.0826-9.9062 13.375zm11.906-16.031v9.9688h4v-9.9688h-4z"/>
  <path id="path3724" style="opacity:.75;fill:#fff" d="m48 24c-13.255 0-24 10.745-24 24 0 0.16558-0.0033 0.33522 0 0.5 0.264-13.026 10.911-23.5 24-23.5s23.736 10.474 24 23.5c0.003-0.165 0-0.334 0-0.5 0-13.255-10.745-24-24-24zm3.9375 14.938v1c3.3127 1.4355 5.6848 4.6662 5.9688 8.4375 0.002-0.08306 0.03125-0.16644 0.03125-0.25 0-4.0954-2.4665-7.6563-6-9.1875zm-8 0.0625c-3.4747 1.5599-5.875 5.0786-5.875 9.125 0 0.08355 0.02921 0.16694 0.03125 0.25 0.27642-3.7264 2.5862-6.9126 5.8438-8.375v-1zm2 5.0625v1h4v-1h-4zm-11.844 4.625c-0.0046 0.14784-0.03125 0.28855-0.03125 0.4375 0 7.7024 6.2351 13.938 13.938 13.938 7.7024 0 13.938-6.2351 13.938-13.938 0-0.14606-0.02681-0.29247-0.03125-0.4375-0.29489 7.4411-6.3923 13.375-13.906 13.375-7.5139 0-13.611-5.9339-13.906-13.375z"/>
  <path id="path3733" style="opacity:.15" d="m45.938 29.062v1h4v-1h-4zm6 4.625v1c5.6526 1.6636 9.7803 6.8527 9.9688 13 0.0074-0.18665 0.03125-0.37403 0.03125-0.5625 0-6.3371-4.2141-11.735-10-13.438zm-8 0.0625c-5.7307 1.742-9.875 7.0826-9.875 13.375 0 0.18847 0.02385 0.37585 0.03125 0.5625 0.19016-6.098 4.2487-11.237 9.8438-12.938v-1zm-19.938 13.75c-0.0033 0.16478 0 0.33442 0 0.5 0 13.255 10.745 24 24 24s24-10.745 24-24c0-0.16558 0.0033-0.33522 0-0.5-0.264 13.026-10.911 23.5-24 23.5s-23.736-10.474-24-23.5zm14.094 0.03125c-0.0116 0.19754-0.03125 0.39345-0.03125 0.59375 0 5.4933 4.4442 9.9375 9.9375 9.9375s9.9375-4.4442 9.9375-9.9375c0-0.20273-0.01933-0.39382-0.03125-0.59375-0.212 5.306-4.549 9.531-9.907 9.531-5.3579 0-9.6946-4.2258-9.9062-9.5312z"/>
 </g>
</svg>
