<?xml version="1.0" encoding="UTF-8" standalone="no"?>
<!-- Created with Inkscape (http://www.inkscape.org/) -->

<svg
   xmlns:dc="http://purl.org/dc/elements/1.1/"
   xmlns:cc="http://creativecommons.org/ns#"
   xmlns:rdf="http://www.w3.org/1999/02/22-rdf-syntax-ns#"
   xmlns:svg="http://www.w3.org/2000/svg"
   xmlns="http://www.w3.org/2000/svg"
   xmlns:xlink="http://www.w3.org/1999/xlink"
   xmlns:sodipodi="http://sodipodi.sourceforge.net/DTD/sodipodi-0.dtd"
   xmlns:inkscape="http://www.inkscape.org/namespaces/inkscape"
   width="96"
   height="96"
   id="svg6307"
   version="1.1"
   inkscape:version="0.48.1 r9760"
   sodipodi:docname="applications-photography.svg">
  <defs
     id="defs6309">
    <filter
       color-interpolation-filters="sRGB"
       inkscape:collect="always"
       id="filter6279-2">
      <feGaussianBlur
         inkscape:collect="always"
         stdDeviation="0.8"
         id="feGaussianBlur6281-1" />
    </filter>
    <linearGradient
       inkscape:collect="always"
       xlink:href="#linearGradient3641"
       id="linearGradient9181"
       gradientUnits="userSpaceOnUse"
       gradientTransform="translate(0,-7.8515622e-6)"
       x1="48"
       y1="1052.3622"
       x2="48"
       y2="902.36218" />
    <linearGradient
       id="linearGradient3641">
      <stop
         id="stop3643"
         style="stop-color:#0c0c0c;stop-opacity:1"
         offset="0" />
      <stop
         id="stop3645"
         style="stop-color:#373737;stop-opacity:1"
         offset="1" />
    </linearGradient>
    <linearGradient
       x1="16.162441"
       y1="52.098946"
       x2="76.838295"
       y2="52.098946"
       id="linearGradient3670"
       xlink:href="#linearGradient3664"
       gradientUnits="userSpaceOnUse" />
    <linearGradient
       id="linearGradient3664">
      <stop
         id="stop3666"
         style="stop-color:#000000;stop-opacity:0.68992245"
         offset="0" />
      <stop
         id="stop3804"
         style="stop-color:#7f7f7f;stop-opacity:0"
         offset="0.5" />
      <stop
         id="stop3668-4"
         style="stop-color:#ffffff;stop-opacity:0.21705426"
         offset="1" />
    </linearGradient>
    <linearGradient
       x1="16.162441"
       y1="44.48222"
       x2="76.771591"
       y2="44.48222"
       id="linearGradient3674-0"
       xlink:href="#linearGradient3719"
       gradientUnits="userSpaceOnUse" />
    <linearGradient
       id="linearGradient3719">
      <stop
         id="stop3721-5"
         style="stop-color:#4b4b4b;stop-opacity:1"
         offset="0" />
      <stop
         id="stop3723-9"
         style="stop-color:#232323;stop-opacity:1"
         offset="0.37373093" />
      <stop
         id="stop3725-4"
         style="stop-color:#5c5c5c;stop-opacity:1"
         offset="1" />
    </linearGradient>
    <linearGradient
       x1="16.162441"
       y1="44.48222"
       x2="76.771591"
       y2="44.48222"
       id="linearGradient3707"
       xlink:href="#linearGradient3650"
       gradientUnits="userSpaceOnUse" />
    <linearGradient
       id="linearGradient3650">
      <stop
         id="stop3709"
         style="stop-color:#141414;stop-opacity:1"
         offset="0" />
      <stop
         id="stop3654"
         style="stop-color:#616161;stop-opacity:1"
         offset="1" />
    </linearGradient>
    <radialGradient
       cx="48"
       cy="48.000935"
       r="27.001867"
       fx="48"
       fy="48.000935"
       id="radialGradient3738"
       xlink:href="#linearGradient3732"
       gradientUnits="userSpaceOnUse"
       gradientTransform="matrix(1.0369653,0,0,1.0369653,-1.774336,-1.7753043)" />
    <linearGradient
       id="linearGradient3732">
      <stop
         id="stop3734-6"
         style="stop-color:#000000;stop-opacity:0"
         offset="0" />
      <stop
         id="stop3740-9"
         style="stop-color:#000000;stop-opacity:0"
         offset="0.94999999" />
      <stop
         id="stop3736-2"
         style="stop-color:#000000;stop-opacity:1"
         offset="1" />
    </linearGradient>
    <linearGradient
       x1="16.162441"
       y1="44.48222"
       x2="76.771591"
       y2="44.48222"
       id="linearGradient3744-2"
       xlink:href="#linearGradient3746-4"
       gradientUnits="userSpaceOnUse" />
    <linearGradient
       id="linearGradient3746-4">
      <stop
         id="stop3748-7"
         style="stop-color:#5d5d5d;stop-opacity:1"
         offset="0" />
      <stop
         id="stop3753-75"
         style="stop-color:#0a0a0a;stop-opacity:1"
         offset="0.60000002" />
      <stop
         id="stop3751"
         style="stop-color:#4e4e4e;stop-opacity:1"
         offset="1" />
    </linearGradient>
    <radialGradient
       cx="47.729706"
       cy="45.997448"
       r="13.637059"
       fx="47.729706"
       fy="45.997448"
       id="radialGradient3687"
       xlink:href="#linearGradient3681"
       gradientUnits="userSpaceOnUse" />
    <linearGradient
       id="linearGradient3681">
      <stop
         id="stop3683-4"
         style="stop-color:#ffffff;stop-opacity:0.18548387"
         offset="0" />
      <stop
         id="stop3689"
         style="stop-color:#ffffff;stop-opacity:0.10887097"
         offset="0.3086735" />
      <stop
         id="stop3691"
         style="stop-color:#000000;stop-opacity:0"
         offset="0.43622452" />
      <stop
         id="stop3693"
         style="stop-color:#000000;stop-opacity:0"
         offset="0.54464293" />
      <stop
         id="stop3695"
         style="stop-color:#ffffff;stop-opacity:0"
         offset="0.58290821" />
      <stop
         id="stop3697-8"
         style="stop-color:#000000;stop-opacity:0.1814516"
         offset="0.61479598" />
      <stop
         id="stop3699-1"
         style="stop-color:#000000;stop-opacity:0.43145162"
         offset="0.69132656" />
      <stop
         id="stop3701-2"
         style="stop-color:#ffffff;stop-opacity:0.08064516"
         offset="0.78061229" />
      <stop
         id="stop3703"
         style="stop-color:#000000;stop-opacity:0"
         offset="0.87627554" />
      <stop
         id="stop3685-8"
         style="stop-color:#ffffff;stop-opacity:0"
         offset="1" />
    </linearGradient>
    <linearGradient
       x1="33.199345"
       y1="45.997448"
       x2="67.957489"
       y2="45.997448"
       id="linearGradient3733"
       xlink:href="#linearGradient3727-9"
       gradientUnits="userSpaceOnUse" />
    <linearGradient
       id="linearGradient3727-9">
      <stop
         id="stop3729-3"
         style="stop-color:#ffffff;stop-opacity:1"
         offset="0" />
      <stop
         id="stop3731-6"
         style="stop-color:#ffffff;stop-opacity:0"
         offset="1" />
    </linearGradient>
    <filter
       color-interpolation-filters="sRGB"
       id="filter3774">
      <feGaussianBlur
         id="feGaussianBlur3776"
         stdDeviation="0.27274118" />
    </filter>
    <linearGradient
       x1="40.068184"
       y1="58.17598"
       x2="31.793724"
       y2="49.665066"
       id="linearGradient3767"
       xlink:href="#linearGradient3761"
       gradientUnits="userSpaceOnUse" />
    <linearGradient
       id="linearGradient3761">
      <stop
         id="stop3763"
         style="stop-color:#ffffff;stop-opacity:1"
         offset="0" />
      <stop
         id="stop3765"
         style="stop-color:#ffffff;stop-opacity:0"
         offset="1" />
    </linearGradient>
    <linearGradient
       x1="40.068184"
       y1="58.17598"
       x2="40.068184"
       y2="41.697067"
       id="linearGradient3771"
       xlink:href="#linearGradient3761"
       gradientUnits="userSpaceOnUse" />
    <linearGradient
       id="linearGradient6268">
      <stop
         id="stop6270"
         style="stop-color:#ffffff;stop-opacity:1"
         offset="0" />
      <stop
         id="stop6272"
         style="stop-color:#ffffff;stop-opacity:0"
         offset="1" />
    </linearGradient>
    <linearGradient
       x1="40.068184"
       y1="58.17598"
       x2="40.068184"
       y2="41.697067"
       id="linearGradient3775"
       xlink:href="#linearGradient3761"
       gradientUnits="userSpaceOnUse" />
    <linearGradient
       id="linearGradient6275">
      <stop
         id="stop6277"
         style="stop-color:#ffffff;stop-opacity:1"
         offset="0" />
      <stop
         id="stop6279"
         style="stop-color:#ffffff;stop-opacity:0"
         offset="1" />
    </linearGradient>
    <linearGradient
       x1="40.068184"
       y1="58.17598"
       x2="40.068184"
       y2="41.697067"
       id="linearGradient3779-0"
       xlink:href="#linearGradient3761"
       gradientUnits="userSpaceOnUse" />
    <linearGradient
       id="linearGradient6282">
      <stop
         id="stop6284"
         style="stop-color:#ffffff;stop-opacity:1"
         offset="0" />
      <stop
         id="stop6286"
         style="stop-color:#ffffff;stop-opacity:0"
         offset="1" />
    </linearGradient>
    <linearGradient
       x1="40.068184"
       y1="58.17598"
       x2="40.068184"
       y2="41.697067"
       id="linearGradient3791-1"
       xlink:href="#linearGradient3761"
       gradientUnits="userSpaceOnUse" />
    <linearGradient
       id="linearGradient6289">
      <stop
         id="stop6291"
         style="stop-color:#ffffff;stop-opacity:1"
         offset="0" />
      <stop
         id="stop6293"
         style="stop-color:#ffffff;stop-opacity:0"
         offset="1" />
    </linearGradient>
    <linearGradient
       x1="64.072342"
       y1="64.036171"
       x2="46.604744"
       y2="46.568573"
       id="linearGradient3817"
       xlink:href="#linearGradient3761"
       gradientUnits="userSpaceOnUse" />
    <linearGradient
       id="linearGradient6296">
      <stop
         id="stop6298"
         style="stop-color:#ffffff;stop-opacity:1"
         offset="0" />
      <stop
         id="stop6300"
         style="stop-color:#ffffff;stop-opacity:0"
         offset="1" />
    </linearGradient>
    <clipPath
       id="clipPath3798">
      <path
         inkscape:connector-curvature="0"
         d="m 61.366765,45.997448 a 13.637059,13.637059 0 1 1 -27.274118,0 13.637059,13.637059 0 1 1 27.274118,0 z"
         transform="matrix(1.0266143,0,0,1.0266143,-0.999999,0.778362)"
         id="path3800"
         style="fill:#ff00ff;fill-opacity:1;stroke:none" />
    </clipPath>
    <filter
       x="-0.23999999"
       y="-0.24000001"
       width="1.48"
       height="1.48"
       color-interpolation-filters="sRGB"
       id="filter3833">
      <feGaussianBlur
         id="feGaussianBlur3835"
         stdDeviation="2.8000002" />
    </filter>
    <filter
       color-interpolation-filters="sRGB"
       id="filter3987">
      <feGaussianBlur
         id="feGaussianBlur3989"
         stdDeviation="0.42020394" />
    </filter>
    <linearGradient
       x1="53.510502"
       y1="59.608364"
       x2="61.49099"
       y2="39.92907"
       id="linearGradient3967"
       xlink:href="#linearGradient3881"
       gradientUnits="userSpaceOnUse"
       gradientTransform="matrix(1.0266143,0,0,1.0266143,-0.9999987,50.778362)" />
    <linearGradient
       id="linearGradient3881">
      <stop
         id="stop3883-0"
         style="stop-color:#d40000;stop-opacity:0"
         offset="0" />
      <stop
         id="stop3889-6"
         style="stop-color:#d40000;stop-opacity:1"
         offset="0.5" />
      <stop
         id="stop3885-4"
         style="stop-color:#d40000;stop-opacity:0"
         offset="1" />
    </linearGradient>
    <linearGradient
       x1="53.730709"
       y1="60.139374"
       x2="62.58559"
       y2="38.831467"
       id="linearGradient3969"
       xlink:href="#linearGradient3891"
       gradientUnits="userSpaceOnUse"
       gradientTransform="matrix(0.72592593,0.72592593,-0.72592593,0.72592593,46.742509,29.961028)" />
    <linearGradient
       id="linearGradient3891">
      <stop
         id="stop3893-6"
         style="stop-color:#d42aff;stop-opacity:0"
         offset="0" />
      <stop
         id="stop3899-2"
         style="stop-color:#d42aff;stop-opacity:1"
         offset="0.5" />
      <stop
         id="stop3895-5"
         style="stop-color:#d42aff;stop-opacity:0"
         offset="1" />
    </linearGradient>
    <linearGradient
       x1="53.387505"
       y1="60.34634"
       x2="61.982975"
       y2="39.437084"
       id="linearGradient3971"
       xlink:href="#linearGradient3901-86"
       gradientUnits="userSpaceOnUse"
       gradientTransform="matrix(0,1.0266143,-1.0266143,0,95.221638,49.000001)" />
    <linearGradient
       id="linearGradient3901-86">
      <stop
         id="stop3903-2"
         style="stop-color:#6600ff;stop-opacity:0"
         offset="0" />
      <stop
         id="stop3909"
         style="stop-color:#6600ff;stop-opacity:1"
         offset="0.5" />
      <stop
         id="stop3905"
         style="stop-color:#6600ff;stop-opacity:0"
         offset="1" />
    </linearGradient>
    <linearGradient
       x1="53.295853"
       y1="59.182693"
       x2="61.88982"
       y2="40.223007"
       id="linearGradient3973"
       xlink:href="#linearGradient3911"
       gradientUnits="userSpaceOnUse"
       gradientTransform="matrix(-0.72592593,0.72592593,-0.72592593,-0.72592593,116.03897,96.742509)" />
    <linearGradient
       id="linearGradient3911">
      <stop
         id="stop3913-8"
         style="stop-color:#2a7fff;stop-opacity:0"
         offset="0" />
      <stop
         id="stop3919"
         style="stop-color:#2a7fff;stop-opacity:1"
         offset="0.5" />
      <stop
         id="stop3915"
         style="stop-color:#2a7fff;stop-opacity:0"
         offset="1" />
    </linearGradient>
    <linearGradient
       x1="53.87949"
       y1="61.330303"
       x2="60.999012"
       y2="39.683075"
       id="linearGradient3975"
       xlink:href="#linearGradient3921"
       gradientUnits="userSpaceOnUse"
       gradientTransform="matrix(-1.0266143,0,0,-1.0266143,96.999997,145.22164)" />
    <linearGradient
       id="linearGradient3921">
      <stop
         id="stop3923"
         style="stop-color:#5fd3bc;stop-opacity:0"
         offset="0" />
      <stop
         id="stop3929"
         style="stop-color:#5fd3bc;stop-opacity:1"
         offset="0.5" />
      <stop
         id="stop3925"
         style="stop-color:#5fd3bc;stop-opacity:0"
         offset="1" />
    </linearGradient>
    <linearGradient
       x1="53.469795"
       y1="59.878456"
       x2="60.324341"
       y2="39.70118"
       id="linearGradient3977"
       xlink:href="#linearGradient3851-4"
       gradientUnits="userSpaceOnUse"
       gradientTransform="matrix(-0.72592593,-0.72592593,0.72592593,-0.72592593,49.25749,166.03897)" />
    <linearGradient
       id="linearGradient3851-4">
      <stop
         id="stop3853-7"
         style="stop-color:#55d400;stop-opacity:0"
         offset="0" />
      <stop
         id="stop3859"
         style="stop-color:#55d400;stop-opacity:1"
         offset="0.5" />
      <stop
         id="stop3855-2"
         style="stop-color:#55d400;stop-opacity:0"
         offset="1" />
    </linearGradient>
    <linearGradient
       x1="61.628212"
       y1="39.683075"
       x2="52.881298"
       y2="60.715324"
       id="linearGradient3979"
       xlink:href="#linearGradient3861"
       gradientUnits="userSpaceOnUse"
       gradientTransform="matrix(0,-1.0266143,1.0266143,0,0.77836254,147)" />
    <linearGradient
       id="linearGradient3861">
      <stop
         id="stop3863"
         style="stop-color:#ffcc00;stop-opacity:0"
         offset="0" />
      <stop
         id="stop3869-4"
         style="stop-color:#ffcc00;stop-opacity:1"
         offset="0.5" />
      <stop
         id="stop3865"
         style="stop-color:#ffcc00;stop-opacity:0"
         offset="1" />
    </linearGradient>
    <linearGradient
       x1="53.034939"
       y1="61.183025"
       x2="61.802849"
       y2="40.483921"
       id="linearGradient3981"
       xlink:href="#linearGradient3871-0"
       gradientUnits="userSpaceOnUse"
       gradientTransform="matrix(0.72592593,-0.72592593,0.72592593,0.72592593,-20.03897,99.25749)" />
    <linearGradient
       id="linearGradient3871-0">
      <stop
         id="stop3873"
         style="stop-color:#ff6600;stop-opacity:0"
         offset="0" />
      <stop
         id="stop3879"
         style="stop-color:#ff6600;stop-opacity:1"
         offset="0.5" />
      <stop
         id="stop3875-6"
         style="stop-color:#ff6600;stop-opacity:0"
         offset="1" />
    </linearGradient>
    <radialGradient
       cx="41"
       cy="52"
       r="9.7082043"
       fx="41"
       fy="52"
       id="radialGradient3803"
       xlink:href="#linearGradient3797"
       gradientUnits="userSpaceOnUse"
       gradientTransform="matrix(1,0,0,0.61803397,0,19.862234)" />
    <linearGradient
       id="linearGradient3797">
      <stop
         id="stop3799-2"
         style="stop-color:#ffffff;stop-opacity:1"
         offset="0" />
      <stop
         id="stop3805-9"
         style="stop-color:#ffffff;stop-opacity:1"
         offset="0.5" />
      <stop
         id="stop3801-9"
         style="stop-color:#ffffff;stop-opacity:0"
         offset="1" />
    </linearGradient>
  </defs>
  <sodipodi:namedview
     id="base"
     pagecolor="#ffffff"
     bordercolor="#666666"
     borderopacity="1.0"
     inkscape:pageopacity="0.0"
     inkscape:pageshadow="2"
     inkscape:zoom="3.959798"
     inkscape:cx="55.217227"
     inkscape:cy="42.509985"
     inkscape:document-units="px"
     inkscape:current-layer="layer1"
     showgrid="false"
     inkscape:window-width="1280"
     inkscape:window-height="747"
     inkscape:window-x="0"
     inkscape:window-y="0"
     inkscape:window-maximized="1" />
  <metadata
     id="metadata6312">
    <rdf:RDF>
      <cc:Work
         rdf:about="">
        <dc:format>image/svg+xml</dc:format>
        <dc:type
           rdf:resource="http://purl.org/dc/dcmitype/StillImage" />
        <dc:title></dc:title>
      </cc:Work>
    </rdf:RDF>
  </metadata>
  <g
     inkscape:label="Layer 1"
     inkscape:groupmode="layer"
     id="layer1"
     transform="translate(0,-956.36218)">
    <g
       id="g9596">
      <rect
         transform="translate(0,-7.8515622e-6)"
         y="964.36218"
         x="8"
         height="80"
         width="80"
         id="rect9283"
         style="fill:#000000;fill-opacity:1;stroke:none;filter:url(#filter6279-2)"
         rx="5"
         ry="5" />
      <rect
         ry="5"
         rx="5"
         style="fill:url(#linearGradient9181);fill-opacity:1;stroke:none"
         id="rect9285"
         width="80"
         height="80"
         x="8"
         y="964.36218" />
      <g
         transform="translate(-182.1875,-40.40625)"
         id="g26594">
        <g
           id="g9524">
          <g
             transform="matrix(0.76388887,0,0,0.76388887,193.52084,1008.1018)"
             id="g3239">
            <g
               id="layer3">
              <path
                 inkscape:connector-curvature="0"
                 style="fill:url(#linearGradient3670);fill-opacity:1;stroke:none"
                 id="path3660"
                 transform="matrix(0,1.1879394,-1.1879394,0,100.84218,-7.2000033)"
                 d="m 76.771595,44.48222 a 30.304577,30.304577 0 1 1 -60.609154,0 30.304577,30.304577 0 1 1 60.609154,0 z" />
              <path
                 inkscape:connector-curvature="0"
                 style="fill:url(#linearGradient3674-0);fill-opacity:1;stroke:none"
                 id="path3648"
                 transform="matrix(0.79333332,0.79333332,-0.79333332,0.79333332,46.425393,-24.15306)"
                 d="m 76.771595,44.48222 a 30.304577,30.304577 0 1 1 -60.609154,0 30.304577,30.304577 0 1 1 60.609154,0 z" />
              <path
                 inkscape:connector-curvature="0"
                 style="fill:none;stroke:#000000;stroke-width:0.44895676;stroke-miterlimit:4;stroke-dasharray:none"
                 id="path3672"
                 transform="matrix(0,1.1136932,-1.1136932,0,97.53954,-3.75)"
                 d="m 76.771595,44.48222 a 30.304577,30.304577 0 1 1 -60.609154,0 30.304577,30.304577 0 1 1 60.609154,0 z" />
              <path
                 inkscape:connector-curvature="0"
                 style="fill:url(#linearGradient3707);fill-opacity:1;stroke:none"
                 id="path3697"
                 transform="matrix(0,0.92395284,-0.92395284,0,89.099473,5.0666664)"
                 d="m 76.771595,44.48222 a 30.304577,30.304577 0 1 1 -60.609154,0 30.304577,30.304577 0 1 1 60.609154,0 z" />
              <g
                 style="opacity:0.2"
                 id="g3691"
                 transform="matrix(0.92592592,0,0,0.92592592,3.555556,3.5555557)">
                <path
                   inkscape:connector-curvature="0"
                   style="fill:none;stroke:#000000;stroke-width:0.61175603;stroke-miterlimit:4;stroke-dasharray:none"
                   id="path3676"
                   transform="matrix(0,0.88270495,-0.88270495,0,87.264675,6.9833334)"
                   d="m 76.771595,44.48222 a 30.304577,30.304577 0 1 1 -60.609154,0 30.304577,30.304577 0 1 1 60.609154,0 z" />
                <path
                   inkscape:connector-curvature="0"
                   style="fill:none;stroke:#000000;stroke-width:0.66119081;stroke-miterlimit:4;stroke-dasharray:none"
                   id="path3678"
                   transform="matrix(0,0.81670832,-0.81670832,0,84.328998,10.05)"
                   d="m 76.771595,44.48222 a 30.304577,30.304577 0 1 1 -60.609154,0 30.304577,30.304577 0 1 1 60.609154,0 z" />
                <path
                   inkscape:connector-curvature="0"
                   style="fill:none;stroke:#000000;stroke-width:0.63551354;stroke-miterlimit:4;stroke-dasharray:none"
                   id="path3680"
                   transform="matrix(0,0.84970663,-0.84970663,0,85.796836,8.5166669)"
                   d="m 76.771595,44.48222 a 30.304577,30.304577 0 1 1 -60.609154,0 30.304577,30.304577 0 1 1 60.609154,0 z" />
                <path
                   inkscape:connector-curvature="0"
                   style="fill:none;stroke:#000000;stroke-width:0.68903041;stroke-miterlimit:4;stroke-dasharray:none"
                   id="path3682"
                   transform="matrix(0,0.78371,-0.78371,0,82.861159,11.583334)"
                   d="m 76.771595,44.48222 a 30.304577,30.304577 0 1 1 -60.609154,0 30.304577,30.304577 0 1 1 60.609154,0 z" />
              </g>
              <path
                 style="opacity:0.6;fill:url(#radialGradient3738);fill-opacity:1;stroke:none"
                 id="path3727"
                 inkscape:connector-curvature="0"
                 d="m 48,20 c -7.16533,0 -14.332595,2.731639 -19.799557,8.19879 -10.933924,10.934302 -10.933924,28.666181 0,39.600483 10.933924,10.934303 28.66519,10.934303 39.599114,0 10.933924,-10.934302 10.933924,-28.666181 0,-39.600483 C 62.332595,22.731639 55.16533,20 48,20 z m 0,2.592503 c 6.501873,0 12.9917,2.492512 17.952462,7.453446 9.921524,9.921866 9.921524,25.9843 0,35.906166 -9.921523,9.921867 -25.983401,9.921867 -35.904924,0 -9.921524,-9.921866 -9.921524,-25.9843 0,-35.906166 C 35.0083,25.085015 41.498127,22.592503 48,22.592503 z" />
              <path
                 inkscape:connector-curvature="0"
                 style="fill:url(#linearGradient3744-2);fill-opacity:1;stroke:#1a1a1a;stroke-width:1.54064822;stroke-miterlimit:4;stroke-dasharray:none"
                 id="path3742"
                 transform="matrix(0,0.64907743,-0.64907743,0,76.872405,17.839307)"
                 d="m 76.771595,44.48222 a 30.304577,30.304577 0 1 1 -60.609154,0 30.304577,30.304577 0 1 1 60.609154,0 z" />
              <g
                 style="font-size:4px;font-style:normal;font-variant:normal;font-weight:normal;font-stretch:normal;text-align:start;line-height:125%;writing-mode:lr-tb;text-anchor:start;opacity:0.70995669;fill:#b3b3b3;fill-opacity:1;stroke:none;font-family:Liberation Sans;-inkscape-font-specification:Liberation Sans"
                 id="text3845"
                 transform="matrix(-0.5,0.8660254,-0.8660254,-0.5,113.57328,30.437809)">
                <path
                   id="path3853"
                   inkscape:connector-curvature="0"
                   d="m 45.682364,77.430433 2.189583,0.08937 -0.01139,0.279065 -1.7628,2.097825 1.531928,0.06253 -0.01243,0.304434 -1.955403,-0.07981 0.01107,-0.271258 1.763118,-2.105631 -1.766108,-0.07208 0.01243,-0.304434" />
                <path
                   id="path3855"
                   inkscape:connector-curvature="0"
                   d="m 42.472517,78.425885 c 0.02879,-0.212908 0.08593,-0.402272 0.171412,-0.568093 0.0842,-0.165997 0.19274,-0.303081 0.325617,-0.411252 0.132881,-0.108172 0.287729,-0.184466 0.464543,-0.228884 0.176819,-0.04442 0.37168,-0.05223 0.584585,-0.02345 0.224521,0.03036 0.416587,0.0918 0.5762,0.184334 0.159441,0.09382 0.286829,0.210906 0.382165,0.351247 0.09516,0.141631 0.159443,0.302738 0.19284,0.483321 0.0334,0.180581 0.03623,0.373454 0.0085,0.57862 -0.02879,0.212905 -0.08446,0.401153 -0.167018,0.564745 -0.08256,0.163589 -0.189371,0.297621 -0.320437,0.402098 -0.131239,0.105763 -0.285092,0.179564 -0.461561,0.221404 -0.177931,0.04295 -0.375931,0.04968 -0.594001,0.0202 -0.216775,-0.02931 -0.404587,-0.08821 -0.563437,-0.176695 -0.160134,-0.08866 -0.288778,-0.201318 -0.385932,-0.33796 -0.09844,-0.136822 -0.165735,-0.295051 -0.20189,-0.47469 -0.03615,-0.179643 -0.04001,-0.374626 -0.01157,-0.58495 m 0.377425,0.05103 c -0.02215,0.163872 -0.02101,0.315785 0.0034,0.455739 0.02315,0.139777 0.06956,0.262991 0.139229,0.369644 0.06838,0.106475 0.159731,0.193719 0.274042,0.261734 0.114316,0.06801 0.250829,0.112747 0.409539,0.134208 0.162585,0.02198 0.308657,0.01545 0.438217,-0.01959 0.129562,-0.03504 0.242088,-0.09472 0.337579,-0.179039 0.0942,-0.0845 0.171021,-0.19105 0.230455,-0.319661 0.05815,-0.128789 0.0983,-0.275119 0.120452,-0.438991 0.02216,-0.163875 0.02184,-0.316991 -9.62e-4,-0.459349 -0.02426,-0.141244 -0.07032,-0.267039 -0.138182,-0.377386 -0.06932,-0.109232 -0.160878,-0.19979 -0.274669,-0.271674 -0.115254,-0.07077 -0.252238,-0.116881 -0.410951,-0.13834 -0.170324,-0.02303 -0.320529,-0.01509 -0.450615,0.02382 -0.131372,0.03874 -0.243045,0.101816 -0.335017,0.18924 -0.09343,0.08854 -0.168106,0.198668 -0.224021,0.330386 -0.0572,0.131541 -0.09671,0.277959 -0.118517,0.439253" />
                <path
                   id="path3857"
                   inkscape:connector-curvature="0"
                   d="m 39.301436,77.678216 c 0.05112,-0.208676 0.127935,-0.390946 0.230457,-0.546811 0.101263,-0.156174 0.223674,-0.281027 0.367232,-0.374559 0.143564,-0.09353 0.305604,-0.153043 0.48612,-0.178537 0.180521,-0.02549 0.375118,-0.01268 0.583792,0.03843 0.220058,0.0539 0.404561,0.135289 0.553507,0.244163 0.148639,0.110139 0.262948,0.240021 0.342928,0.389647 0.07967,0.150891 0.126575,0.317886 0.140711,0.500986 0.01414,0.183099 -0.0034,0.375192 -0.05268,0.57628 -0.05111,0.208673 -0.126357,0.389988 -0.225734,0.543945 -0.09938,0.153953 -0.219747,0.275954 -0.361115,0.366003 -0.141676,0.09131 -0.302464,0.148447 -0.482364,0.171414 -0.181473,0.02392 -0.379076,0.0097 -0.592812,-0.04265 -0.212467,-0.05205 -0.393008,-0.130451 -0.541622,-0.235219 -0.149874,-0.105082 -0.2659,-0.230693 -0.348077,-0.376833 -0.08344,-0.146453 -0.133644,-0.310906 -0.150623,-0.493359 -0.01697,-0.182456 -2.14e-4,-0.376756 0.05028,-0.5829 m 0.369924,0.09061 c -0.03934,0.160615 -0.05425,0.311799 -0.04474,0.453551 0.0083,0.14144 0.04139,0.268868 0.09941,0.382282 0.05676,0.113102 0.138377,0.209507 0.244865,0.289216 0.106493,0.0797 0.237517,0.138609 0.393072,0.176713 0.159354,0.03903 0.305298,0.04797 0.437834,0.02681 0.132539,-0.02116 0.250739,-0.06862 0.354602,-0.142382 0.1026,-0.07407 0.190243,-0.171917 0.262929,-0.293531 0.07142,-0.121927 0.126805,-0.263198 0.166146,-0.423814 0.03934,-0.160617 0.0552,-0.312911 0.04756,-0.456881 -0.0092,-0.143016 -0.04172,-0.272973 -0.09755,-0.38987 -0.0574,-0.115943 -0.138876,-0.215664 -0.244439,-0.299165 -0.107134,-0.08255 -0.238481,-0.14287 -0.39404,-0.180972 -0.166938,-0.04089 -0.317142,-0.04886 -0.45061,-0.02391 -0.134729,0.02464 -0.25244,0.07558 -0.353131,0.152797 -0.102262,0.07818 -0.18815,0.1798 -0.257665,0.304875 -0.07077,0.124764 -0.125524,0.26619 -0.164248,0.424278" />
                <path
                   id="path3859"
                   inkscape:connector-curvature="0"
                   d="m 36.93709,75.37391 -0.630016,1.724455 c -0.02278,0.06237 -0.04663,0.125747 -0.07154,0.190121 -0.0249,0.06437 -0.04841,0.123018 -0.07052,0.175938 -0.02523,0.06148 -0.05041,0.120902 -0.07552,0.178268 0.03991,-0.05612 0.08021,-0.111404 0.120894,-0.165851 0.03512,-0.04678 0.0734,-0.09656 0.114863,-0.14934 0.03979,-0.052 0.07758,-0.0985 0.113345,-0.139497 l 1.311189,-1.517182 0.245826,0.08981 0.03352,2.00846 c 6.37e-4,0.02103 7.68e-4,0.04533 3.91e-4,0.07292 -0.0016,0.02714 -0.0024,0.05595 -0.0025,0.08643 -0.0017,0.03126 -0.0028,0.06274 -0.0033,0.09444 -0.0022,0.03248 -0.0041,0.06435 -0.0058,0.09561 -0.0029,0.07241 -0.0073,0.147052 -0.01319,0.223915 0.0238,-0.06894 0.04676,-0.137485 0.06889,-0.205643 0.01856,-0.05838 0.03884,-0.119587 0.06085,-0.183629 0.02157,-0.06282 0.04106,-0.118081 0.05849,-0.165777 l 0.630016,-1.724456 0.31187,0.113939 -0.944354,2.584849 -0.460466,-0.168228 -0.03313,-2.043669 c 3.78e-4,-0.02759 0.0016,-0.06319 0.0037,-0.106789 0.0016,-0.04238 0.0043,-0.08576 0.008,-0.130144 0.0037,-0.04438 0.008,-0.08648 0.01287,-0.126299 0.0032,-0.03904 0.0065,-0.06902 0.01,-0.08993 -0.01082,0.01823 -0.02782,0.0439 -0.05101,0.07702 -0.02319,0.03312 -0.04827,0.06762 -0.07525,0.103511 -0.0282,0.03545 -0.05534,0.06989 -0.08142,0.103335 -0.02608,0.03345 -0.04848,0.06061 -0.0672,0.0815 l -1.32992,1.545688 -0.449459,-0.164206 0.944354,-2.584848 0.315538,0.115279" />
                <path
                   id="path3861"
                   inkscape:connector-curvature="0"
                   d="m 35.016377,74.508208 -1.277834,2.43729 -0.330392,-0.173219 1.136356,-2.167442 -1.231619,-0.645719 0.141478,-0.269849 1.562011,0.818939" />
                <path
                   id="path3863"
                   inkscape:connector-curvature="0"
                   d="m 33.052264,73.45796 -1.475751,2.322801 -1.762295,-1.119644 0.16339,-0.257173 1.447423,0.919595 0.473414,-0.745142 -1.348511,-0.856753 0.161296,-0.253876 1.34851,0.856752 0.514261,-0.809436 -1.515013,-0.962537 0.16339,-0.257173 1.829886,1.162586" />
                <path
                   id="path3865"
                   inkscape:connector-curvature="0"
                   d="m 29.39996,70.908274 -0.273684,2.754447 c 0.03706,-0.052 0.07321,-0.103884 0.108446,-0.155651 0.03068,-0.04377 0.06386,-0.08971 0.09956,-0.137827 0.03387,-0.04788 0.06478,-0.08983 0.09272,-0.125828 l 1.120895,-1.444173 0.262296,0.203582 -1.687331,2.173973 -0.342528,-0.265853 0.270922,-2.776371 c -0.03603,0.0528 -0.07207,0.105595 -0.108102,0.158391 -0.03147,0.0448 -0.06574,0.0932 -0.102804,0.145196 -0.03786,0.05303 -0.07475,0.102686 -0.11068,0.148973 l -1.106525,1.425657 -0.265382,-0.205977 1.687331,-2.173973 0.354871,0.275434" />
                <path
                   id="path3867"
                   inkscape:connector-curvature="0"
                   d="m 26.456345,69.279934 c 0.07932,-0.08449 0.169006,-0.146739 0.269069,-0.186749 0.09912,-0.0409 0.207358,-0.05537 0.324723,-0.04342 0.116476,0.0129 0.24074,0.05365 0.372792,0.122251 0.130213,0.06866 0.266519,0.169826 0.408917,0.303501 0.249675,0.23438 0.403294,0.46074 0.460857,0.67908 0.05756,0.218341 0.0278,0.427927 -0.08929,0.628758 L 27.890512,70.58874 c 0.03572,-0.06469 0.05987,-0.131317 0.07244,-0.199881 0.01257,-0.06856 0.01031,-0.140343 -0.0068,-0.215339 -0.01895,-0.07494 -0.05505,-0.153477 -0.108314,-0.235621 -0.05326,-0.08214 -0.128304,-0.168665 -0.225137,-0.259566 -0.08069,-0.07575 -0.160978,-0.138615 -0.240858,-0.188599 -0.08077,-0.04903 -0.158729,-0.08203 -0.233882,-0.09901 -0.07515,-0.01697 -0.146958,-0.01562 -0.215426,0.004 -0.07031,0.01972 -0.134868,0.06091 -0.193687,0.12357 -0.06149,0.06551 -0.09621,0.132926 -0.10415,0.202264 -0.0089,0.06845 0.0012,0.141361 0.0304,0.218739 0.02916,0.07738 0.07277,0.160287 0.130836,0.248727 0.05807,0.08844 0.122864,0.185879 0.194392,0.292317 0.04443,0.06492 0.08843,0.131236 0.132026,0.198947 0.04175,0.06777 0.07938,0.136128 0.112875,0.205079 0.03166,0.06901 0.05735,0.138666 0.07707,0.208973 0.01973,0.07031 0.02838,0.140042 0.02595,0.209207 -0.0033,0.07011 -0.01909,0.139239 -0.04734,0.207378 -0.02914,0.06909 -0.0749,0.136856 -0.137279,0.20331 -0.08912,0.09493 -0.184298,0.158276 -0.285546,0.190033 -0.103085,0.03181 -0.209301,0.03747 -0.318649,0.01698 -0.109344,-0.0205 -0.219891,-0.06444 -0.331643,-0.131842 -0.111746,-0.0674 -0.221732,-0.151897 -0.329959,-0.25349 -0.124359,-0.116745 -0.221327,-0.226524 -0.290903,-0.329339 -0.07046,-0.101866 -0.117802,-0.200778 -0.142025,-0.296735 -0.02421,-0.09596 -0.02718,-0.189824 -0.0089,-0.281597 0.01645,-0.09172 0.0494,-0.185796 0.09886,-0.282239 l 0.311825,0.204319 c -0.03216,0.06089 -0.05324,0.122356 -0.06326,0.184391 -0.01096,0.06114 -0.0081,0.123692 0.0087,0.187645 0.01676,0.06395 0.04833,0.130199 0.09471,0.198743 0.04544,0.06765 0.107549,0.138462 0.186341,0.21243 0.09304,0.08733 0.179377,0.152312 0.259021,0.194934 0.07781,0.04268 0.14954,0.06805 0.215195,0.07611 0.06471,0.0072 0.123878,-6.92e-4 0.177502,-0.02357 0.05179,-0.02282 0.09862,-0.05654 0.140506,-0.101162 0.05615,-0.05981 0.08777,-0.122988 0.09488,-0.189536 0.0053,-0.06649 -0.0057,-0.136614 -0.0329,-0.210369 -0.0272,-0.07376 -0.06648,-0.150814 -0.117845,-0.231175 -0.05136,-0.08036 -0.106992,-0.164733 -0.1669,-0.253115 -0.04834,-0.07217 -0.09576,-0.144362 -0.142256,-0.216586 -0.04834,-0.07217 -0.09071,-0.144982 -0.127115,-0.218447 -0.03729,-0.07251 -0.06723,-0.145262 -0.0898,-0.218243 -0.02352,-0.07387 -0.0346,-0.147675 -0.03325,-0.221412 0.0014,-0.07374 0.01747,-0.147018 0.04832,-0.219845 0.02991,-0.07372 0.07918,-0.147125 0.147798,-0.220224" />
                <path
                   id="path3869"
                   inkscape:connector-curvature="0"
                   d="m 18.630854,41.246205 0.610015,0.126766 -0.06756,0.325086 -0.610014,-0.126766 -0.263863,1.269749 -0.267718,-0.05563 -1.560346,-1.610929 0.07511,-0.36142 1.812833,0.37672 0.07868,-0.37863 0.271543,0.05643 -0.07868,0.37863 m -1.76374,-0.02739 c 0.0058,0.0039 0.01727,0.0129 0.03427,0.02707 0.01573,0.01391 0.03374,0.02962 0.05404,0.04714 0.0203,0.01752 0.0411,0.03581 0.06241,0.05486 0.0203,0.01752 0.03704,0.03297 0.05021,0.04634 l 0.873873,0.901738 c 0.0089,0.0085 0.02027,0.02084 0.0342,0.03703 0.01419,0.01492 0.02888,0.03061 0.04408,0.04706 0.01393,0.01619 0.02785,0.03239 0.04177,0.04858 0.01392,0.01619 0.02455,0.02904 0.03189,0.03854 l 0.197897,-0.952311 -1.424642,-0.296051" />
                <path
                   id="path3871"
                   inkscape:connector-curvature="0"
                   d="m 19.399774,40.683288 -0.238326,-0.06876 c -0.127964,-0.106035 -0.234444,-0.220778 -0.319439,-0.344229 -0.08588,-0.125063 -0.159246,-0.251257 -0.220086,-0.378581 -0.06209,-0.127684 -0.117659,-0.252132 -0.166711,-0.373345 -0.04869,-0.122462 -0.100265,-0.234917 -0.154731,-0.337365 -0.05446,-0.102444 -0.117193,-0.190335 -0.188189,-0.263672 -0.07063,-0.07458 -0.159744,-0.127399 -0.267336,-0.158443 -0.07506,-0.02166 -0.143991,-0.02935 -0.206787,-0.02307 -0.06404,0.0059 -0.121594,0.02455 -0.172651,0.05589 -0.05105,0.03135 -0.09463,0.07434 -0.130719,0.128974 -0.03698,0.05303 -0.06594,0.115819 -0.08687,0.188378 -0.01949,0.06756 -0.02852,0.13407 -0.02708,0.199533 0.0018,0.06421 0.01479,0.124881 0.03897,0.181997 0.02418,0.05712 0.06008,0.108811 0.107717,0.155078 0.04675,0.04466 0.105762,0.08201 0.177045,0.112064 l -0.131524,0.336087 c -0.09183,-0.03869 -0.173699,-0.09077 -0.245611,-0.15624 -0.07191,-0.06547 -0.12867,-0.143506 -0.17029,-0.234115 -0.04287,-0.09097 -0.06782,-0.192355 -0.07487,-0.304159 -0.0067,-0.113052 0.0093,-0.236511 0.04791,-0.370375 0.0379,-0.131359 0.08729,-0.243821 0.148161,-0.337385 0.06088,-0.09356 0.13207,-0.166528 0.213583,-0.218903 0.08188,-0.05362 0.173268,-0.0862 0.27417,-0.09775 0.100906,-0.01154 0.210158,-3.48e-4 0.327755,0.03358 0.08883,0.02563 0.16858,0.06626 0.239262,0.121883 0.07105,0.05438 0.135087,0.118933 0.192126,0.193661 0.0574,0.07348 0.109775,0.154997 0.157118,0.244545 0.04734,0.08955 0.09253,0.181869 0.135571,0.276951 0.04179,0.09472 0.08339,0.190072 0.124816,0.286044 0.04018,0.09561 0.08224,0.187029 0.126188,0.274244 0.04431,0.08597 0.09186,0.165412 0.142647,0.238337 0.04953,0.07256 0.105625,0.134147 0.168272,0.184746 l 0.397946,-1.379288 0.287117,0.08284 -0.505148,1.750851" />
                <path
                   id="path3873"
                   inkscape:connector-curvature="0"
                   d="m 20.097629,38.396989 -0.403551,-0.141786 0.126248,-0.359327 0.403551,0.141787 -0.126248,0.359326" />
                <path
                   id="path3875"
                   inkscape:connector-curvature="0"
                   d="m 20.293152,35.445622 c 0.127403,0.05309 0.235975,0.1209 0.325717,0.203432 0.08974,0.08254 0.157297,0.17769 0.202668,0.285461 0.04417,0.107275 0.06375,0.226165 0.05874,0.356672 -0.0045,0.129308 -0.03757,0.267879 -0.09917,0.415713 -0.05559,0.133413 -0.119797,0.243488 -0.192615,0.330225 -0.07232,0.08554 -0.149793,0.151289 -0.232426,0.19726 -0.08384,0.04547 -0.170925,0.07336 -0.26127,0.08368 -0.08984,0.0091 -0.180338,0.0046 -0.271484,-0.01368 l 0.09886,-0.343898 c 0.05359,0.0068 0.108224,0.0077 0.163913,0.0027 0.05449,-0.0055 0.108273,-0.02118 0.161359,-0.04702 0.05238,-0.02754 0.101914,-0.06685 0.14859,-0.117936 0.04597,-0.05278 0.08699,-0.122443 0.123051,-0.208981 0.03506,-0.08413 0.05424,-0.165713 0.05755,-0.244741 0.0021,-0.07953 -0.01207,-0.153845 -0.04251,-0.222957 -0.02995,-0.07031 -0.07607,-0.133965 -0.138367,-0.190959 -0.0623,-0.05699 -0.140923,-0.10527 -0.235874,-0.144837 -0.07812,-0.03255 -0.154897,-0.04973 -0.230318,-0.05154 -0.07662,-0.0023 -0.148136,0.01022 -0.214544,0.03755 -0.06761,0.02684 -0.128907,0.06901 -0.183897,0.126499 -0.05449,0.05629 -0.09976,0.127704 -0.135822,0.21424 -0.02254,0.05409 -0.03851,0.10597 -0.04793,0.155648 -0.0094,0.04968 -0.01397,0.09786 -0.01367,0.144531 8.02e-4,0.04547 0.0059,0.08919 0.01517,0.13116 0.0086,0.04027 0.01918,0.07923 0.0317,0.116888 l -0.132218,0.317305 -1.331266,-0.654175 0.601743,-1.444098 0.275839,0.11494 -0.47854,1.148427 0.785599,0.384482 c -0.02043,-0.07622 -0.02824,-0.164112 -0.02343,-0.263673 0.0036,-0.100058 0.0302,-0.209583 0.07979,-0.328574 0.05259,-0.126199 0.119146,-0.231766 0.199676,-0.316702 0.08053,-0.08493 0.171027,-0.148081 0.271488,-0.189447 0.09926,-0.04186 0.205581,-0.06174 0.318962,-0.05964 0.113381,0.0021 0.228365,0.02745 0.34495,0.07603" />
                <path
                   id="path3877"
                   inkscape:connector-curvature="0"
                   d="M 21.868617,34.296638 20.68612,33.666653 c -0.09078,-0.04836 -0.169691,-0.08303 -0.23672,-0.103985 -0.06703,-0.02095 -0.126275,-0.02744 -0.177743,-0.01945 -0.052,0.0062 -0.09711,0.0272 -0.135312,0.06291 -0.03935,0.0351 -0.07587,0.08425 -0.109539,0.147452 -0.0349,0.06551 -0.05321,0.131728 -0.05494,0.198669 -0.0029,0.06633 0.01028,0.131622 0.0395,0.19587 0.02867,0.06249 0.0737,0.123359 0.135077,0.182614 0.06084,0.05749 0.137803,0.111038 0.230885,0.160627 l 1.080796,0.575804 -0.164385,0.308552 -1.466916,-0.781513 c -0.03907,-0.02081 -0.08017,-0.04197 -0.123305,-0.06348 -0.04367,-0.02326 -0.08477,-0.04442 -0.123305,-0.06348 -0.03968,-0.01966 -0.07362,-0.03627 -0.101815,-0.04982 -0.02819,-0.01354 -0.04662,-0.02188 -0.05527,-0.02502 l 0.156119,-0.293038 c 0.0064,0.0019 0.02248,0.009 0.04838,0.02135 0.02589,0.01232 0.05581,0.02678 0.08975,0.04339 0.0334,0.01485 0.06765,0.03088 0.102733,0.04809 0.03394,0.01661 0.0624,0.03103 0.08538,0.04328 l 0.0028,-0.0052 c -0.03932,-0.05635 -0.07224,-0.112252 -0.09877,-0.167695 -0.02652,-0.05544 -0.0434,-0.11238 -0.05063,-0.170819 -0.0078,-0.0602 -0.005,-0.122162 0.0083,-0.185895 0.01276,-0.06549 0.03874,-0.135011 0.07792,-0.20856 0.07531,-0.141345 0.162847,-0.237815 0.262623,-0.289409 0.100391,-0.05274 0.220638,-0.06244 0.360741,-0.02911 l 0.0028,-0.0052 c -0.03932,-0.05635 -0.07163,-0.1134 -0.09693,-0.171142 -0.0253,-0.05774 -0.04065,-0.11755 -0.04604,-0.179438 -0.0065,-0.06249 -0.0025,-0.126757 0.01198,-0.19279 0.01337,-0.06664 0.03965,-0.136733 0.07884,-0.210283 0.0502,-0.09423 0.106006,-0.168511 0.167409,-0.222846 0.06202,-0.05548 0.131087,-0.09097 0.207214,-0.106481 0.07613,-0.0155 0.161645,-0.01125 0.256554,0.01275 0.09376,0.0234 0.198099,0.06571 0.313016,0.126928 l 1.242829,0.662128 -0.163466,0.306829 -1.182497,-0.629986 c -0.09078,-0.04836 -0.169691,-0.08303 -0.236719,-0.103984 -0.06703,-0.02095 -0.126276,-0.02744 -0.177743,-0.01945 -0.052,0.0062 -0.09711,0.0272 -0.135312,0.06291 -0.03935,0.0351 -0.07587,0.08425 -0.109539,0.147452 -0.0349,0.06551 -0.05379,0.131423 -0.05667,0.197751 -0.004,0.06572 0.008,0.130399 0.03605,0.194033 0.02867,0.06249 0.0737,0.123361 0.135077,0.182614 0.06199,0.05811 0.140676,0.112569 0.236057,0.163382 l 1.080795,0.575804 -0.163465,0.306828" />
                <path
                   id="path3879"
                   inkscape:connector-curvature="0"
                   d="M 23.584114,31.437572 22.48027,30.678158 c -0.08475,-0.0583 -0.159236,-0.101646 -0.223471,-0.130035 -0.06424,-0.02839 -0.122372,-0.04151 -0.174413,-0.03939 -0.05237,3.21e-4 -0.09956,0.01607 -0.141546,0.04723 -0.04306,0.03043 -0.08489,0.07515 -0.12548,0.134149 -0.04207,0.06115 -0.06774,0.12488 -0.07701,0.191199 -0.01035,0.06558 -0.0046,0.131942 0.01714,0.199075 0.02144,0.06533 0.05931,0.130889 0.113605,0.196692 0.05396,0.06399 0.124392,0.12588 0.211282,0.185658 l 1.008907,0.6941 -0.198156,0.288029 -1.369346,-0.942072 c -0.03647,-0.02509 -0.07492,-0.05075 -0.115353,-0.07699 -0.04076,-0.02804 -0.07921,-0.05371 -0.115353,-0.07699 -0.03721,-0.02402 -0.06906,-0.04435 -0.09554,-0.06099 -0.02648,-0.01664 -0.04385,-0.027 -0.0521,-0.0311 l 0.188193,-0.273547 c 0.0061,0.0026 0.02132,0.01151 0.04566,0.02667 0.02434,0.01516 0.05243,0.03291 0.08428,0.05324 0.03151,0.01852 0.06373,0.03831 0.09665,0.05938 0.03185,0.02033 0.0585,0.03788 0.07995,0.05263 l 0.0033,-0.0048 c -0.0327,-0.06043 -0.05911,-0.119687 -0.07921,-0.17777 -0.0201,-0.05808 -0.03044,-0.11656 -0.03103,-0.175441 -9.19e-4,-0.06069 0.0088,-0.121945 0.02923,-0.18377 0.02007,-0.06363 0.05373,-0.129777 0.100956,-0.198434 0.09078,-0.131944 0.188646,-0.217918 0.293608,-0.257922 0.105701,-0.04107 0.226275,-0.03714 0.361722,0.01178 l 0.0033,-0.0048 c -0.03271,-0.06043 -0.05837,-0.120759 -0.077,-0.180988 -0.01862,-0.06022 -0.02712,-0.121386 -0.02549,-0.183486 5.57e-4,-0.06283 0.01178,-0.126235 0.03366,-0.190207 0.02081,-0.0647 0.05483,-0.131385 0.102063,-0.200043 0.06052,-0.08796 0.124348,-0.15547 0.19149,-0.202529 0.06788,-0.04812 0.140517,-0.0756 0.217907,-0.08242 0.07739,-0.0068 0.161882,0.0071 0.253476,0.04163 0.09052,0.03383 0.189418,0.08765 0.296692,0.161443 L 24.473049,30.145463 24.276,30.431884 23.172156,29.67247 c -0.08475,-0.0583 -0.159237,-0.101645 -0.223471,-0.130036 -0.06424,-0.02838 -0.122373,-0.04151 -0.174413,-0.03939 -0.05237,3.22e-4 -0.09956,0.01607 -0.141546,0.04723 -0.04306,0.03043 -0.08489,0.07515 -0.125481,0.134148 -0.04207,0.06115 -0.06827,0.124513 -0.07862,0.190092 -0.01142,0.06485 -0.0068,0.130467 0.01392,0.196861 0.02144,0.06533 0.05931,0.13089 0.113605,0.196692 0.05504,0.06473 0.127072,0.127726 0.216109,0.188979 l 1.008907,0.6941 -0.197049,0.28642" />
                <path
                   id="path3881"
                   inkscape:connector-curvature="0"
                   d="m 24.787912,28.352718 -0.23516,-0.205805 0.643142,-0.734876 0.235161,0.205805 -0.643143,0.734876" />
                <path
                   id="path3883"
                   inkscape:connector-curvature="0"
                   d="m 27.872659,25.20214 c 0.09453,0.100568 0.165856,0.206864 0.213976,0.318889 0.04812,0.112029 0.07083,0.226493 0.06814,0.343395 -0.0036,0.115955 -0.03437,0.23245 -0.09233,0.349485 -0.05702,0.116144 -0.143878,0.229062 -0.260572,0.338753 -0.105311,0.09899 -0.208932,0.173163 -0.310863,0.222515 -0.100984,0.04846 -0.19858,0.07676 -0.292789,0.0849 -0.0951,0.0072 -0.185981,-0.003 -0.272638,-0.03054 -0.08571,-0.02844 -0.166417,-0.06963 -0.242126,-0.123555 l 0.230914,-0.273348 c 0.04611,0.02814 0.09559,0.05132 0.148458,0.06953 0.05197,0.01727 0.107462,0.02497 0.166474,0.02311 0.05907,-0.0037 0.120346,-0.01931 0.183836,-0.04682 0.06355,-0.02935 0.129474,-0.07613 0.197784,-0.140346 0.06641,-0.06243 0.117291,-0.129016 0.152642,-0.199774 0.03446,-0.0717 0.05193,-0.145316 0.05243,-0.220836 0.0014,-0.07641 -0.0146,-0.153362 -0.04813,-0.230856 -0.03353,-0.07749 -0.08552,-0.153712 -0.15597,-0.228665 -0.05797,-0.06167 -0.120992,-0.108752 -0.189073,-0.141257 -0.06897,-0.03345 -0.13935,-0.05129 -0.211131,-0.05351 -0.07267,-0.0032 -0.145858,0.01023 -0.219556,0.04019 -0.07275,0.02907 -0.143278,0.07571 -0.211587,0.139918 -0.04269,0.04013 -0.0785,0.08094 -0.107417,0.122415 -0.02892,0.04148 -0.05279,0.08357 -0.07161,0.126285 -0.01787,0.04182 -0.03115,0.08378 -0.03982,0.125888 -0.0086,0.04027 -0.01491,0.08014 -0.0189,0.119626 l -0.250467,0.235436 -0.947096,-1.141588 1.139909,-1.071504 0.204669,0.217736 -0.906519,0.85212 0.559531,0.672247 c 0.01254,-0.07791 0.04138,-0.161302 0.0865,-0.250181 0.04423,-0.08982 0.113309,-0.178881 0.207234,-0.267172 0.09962,-0.09364 0.203542,-0.162733 0.311774,-0.207287 0.108231,-0.04455 0.216643,-0.06515 0.325236,-0.06179 0.107699,0.0024 0.212847,0.02777 0.315444,0.07608 0.102595,0.04831 0.197145,0.118481 0.283651,0.210507" />
                <path
                   id="path3885"
                   inkscape:connector-curvature="0"
                   d="m 29.355132,23.367427 c 0.166083,0.20563 0.286234,0.394797 0.360453,0.567502 0.07441,0.170877 0.112865,0.327279 0.115359,0.469207 0.0027,0.140099 -0.02642,0.265704 -0.08731,0.376815 -0.06089,0.111113 -0.143002,0.208395 -0.246321,0.291845 -0.104334,0.08427 -0.216712,0.144073 -0.337135,0.179409 -0.120424,0.03534 -0.248834,0.03695 -0.38523,0.0049 -0.135384,-0.03292 -0.278774,-0.103728 -0.430171,-0.212425 -0.151201,-0.110527 -0.310252,-0.269111 -0.477155,-0.475752 -0.174265,-0.215756 -0.299519,-0.40917 -0.375764,-0.580242 -0.07605,-0.1729 -0.114598,-0.328386 -0.115652,-0.466461 -0.001,-0.138069 0.03051,-0.260635 0.09467,-0.367698 0.06335,-0.108071 0.148709,-0.20547 0.25608,-0.292196 0.102308,-0.08263 0.21194,-0.142725 0.328895,-0.180285 0.117152,-0.03939 0.243107,-0.04404 0.377867,-0.01397 0.134761,0.03008 0.278657,0.100479 0.43169,0.211198 0.152214,0.109712 0.315454,0.272446 0.48972,0.4882 m -0.278053,0.224582 c -0.137449,-0.170173 -0.26171,-0.303297 -0.372783,-0.399373 -0.111892,-0.09708 -0.214588,-0.1631 -0.308091,-0.19805 -0.09432,-0.03596 -0.181395,-0.04429 -0.261223,-0.02501 -0.07963,0.01746 -0.155915,0.05564 -0.228847,0.114541 -0.07698,0.06218 -0.133396,0.131178 -0.16924,0.206991 -0.03584,0.07582 -0.04661,0.164021 -0.03232,0.264612 0.01449,0.09876 0.05743,0.213052 0.1288,0.342862 0.07056,0.128802 0.174149,0.277782 0.310779,0.446942 0.132541,0.164098 0.254347,0.294183 0.36542,0.390256 0.112087,0.09526 0.215699,0.16137 0.310838,0.198342 0.09533,0.03514 0.184141,0.04459 0.266424,0.02834 0.08146,-0.01726 0.159168,-0.05575 0.233113,-0.115476 0.07192,-0.05809 0.124884,-0.125137 0.158896,-0.201148 0.03319,-0.07702 0.04213,-0.16542 0.02682,-0.265196 -0.01512,-0.101605 -0.05745,-0.217217 -0.126988,-0.346836 -0.06853,-0.130434 -0.169065,-0.277701 -0.301605,-0.441799" />
                <path
                   id="path3887"
                   inkscape:connector-curvature="0"
                   d="M 31.579813,23.488032 30.839466,22.37131 c -0.05684,-0.08573 -0.109752,-0.153761 -0.158736,-0.204087 -0.04899,-0.05032 -0.09801,-0.08421 -0.147082,-0.101676 -0.0487,-0.01926 -0.09835,-0.02228 -0.148945,-0.009 -0.05131,0.01215 -0.106812,0.03801 -0.166501,0.07758 -0.06186,0.04101 -0.109475,0.09055 -0.142849,0.148601 -0.03409,0.05697 -0.05358,0.120664 -0.05845,0.191071 -0.0045,0.06861 0.0061,0.143568 0.03193,0.224888 0.02616,0.07952 0.06838,0.163229 0.126655,0.251133 l 0.676673,1.020677 -0.29139,0.193181 -0.918418,-1.385321 c -0.02446,-0.0369 -0.05055,-0.07506 -0.07825,-0.1145 -0.02734,-0.04124 -0.05342,-0.07941 -0.07825,-0.1145 -0.02555,-0.03618 -0.0475,-0.06693 -0.06585,-0.09226 -0.01835,-0.02532 -0.03059,-0.04143 -0.03671,-0.04831 l 0.276739,-0.183468 c 0.0047,0.0047 0.01548,0.01864 0.03239,0.04179 0.01692,0.02316 0.03635,0.05011 0.0583,0.08086 0.02232,0.02895 0.04481,0.05934 0.06748,0.09118 0.02195,0.03076 0.04012,0.05698 0.05451,0.07869 l 0.0049,-0.0032 c -0.0078,-0.06827 -0.01013,-0.133102 -0.0071,-0.194489 0.003,-0.06138 0.01529,-0.119494 0.03674,-0.174333 0.02181,-0.05664 0.05373,-0.109825 0.09575,-0.159556 0.04238,-0.05153 0.0983,-0.100321 0.167761,-0.14637 0.133486,-0.08849 0.256382,-0.131695 0.36869,-0.129604 0.113392,0.0014 0.223774,0.05005 0.331146,0.146026 l 0.0049,-0.0032 c -0.0078,-0.06827 -0.009,-0.133821 -0.0038,-0.196648 0.0052,-0.06282 0.02018,-0.122731 0.04488,-0.179729 0.02398,-0.05808 0.05807,-0.112702 0.10226,-0.163873 0.04347,-0.05225 0.09993,-0.1014 0.16939,-0.14745 0.08899,-0.05899 0.173414,-0.09778 0.253273,-0.116357 0.08094,-0.01929 0.158582,-0.01765 0.232919,0.0049 0.07433,0.02258 0.14753,0.06701 0.219588,0.133281 0.07134,0.06519 0.142978,0.152046 0.214928,0.260568 l 0.77812,1.173697 -0.289762,0.192102 -0.740347,-1.116722 c -0.05684,-0.08573 -0.109752,-0.153761 -0.158736,-0.204087 -0.04899,-0.05032 -0.09801,-0.08421 -0.147081,-0.101676 -0.0487,-0.01926 -0.09835,-0.02228 -0.148945,-0.009 -0.05131,0.01215 -0.106814,0.03801 -0.166501,0.07758 -0.06186,0.04101 -0.109836,0.09 -0.143929,0.146973 -0.03481,0.05589 -0.05502,0.118494 -0.06061,0.187815 -0.0045,0.06861 0.0061,0.143569 0.03193,0.224888 0.02688,0.0806 0.07017,0.165943 0.129893,0.256016 l 0.676672,1.020678 -0.289761,0.192101" />
                <path
                   id="path3889"
                   inkscape:connector-curvature="0"
                   d="m 34.448904,21.789158 -0.609488,-1.193191 c -0.04679,-0.0916 -0.09168,-0.165173 -0.134671,-0.220709 -0.04299,-0.05553 -0.08787,-0.09474 -0.134657,-0.117637 -0.04622,-0.02464 -0.09521,-0.03325 -0.14697,-0.02581 -0.05236,0.0063 -0.110422,0.0257 -0.174197,0.05828 -0.0661,0.03376 -0.119002,0.0776 -0.158718,0.131517 -0.04031,0.05276 -0.06686,0.113841 -0.07966,0.183247 -0.01223,0.06766 -0.01012,0.143342 0.0063,0.227054 0.01701,0.08196 0.0495,0.169907 0.09748,0.263831 l 0.557069,1.09057 -0.311343,0.159035 -0.756085,-1.480183 c -0.02014,-0.03942 -0.04174,-0.08029 -0.06482,-0.122605 -0.02251,-0.04406 -0.04411,-0.08493 -0.06482,-0.122605 -0.0213,-0.03883 -0.03963,-0.07187 -0.05501,-0.09911 -0.01537,-0.02723 -0.02572,-0.04462 -0.03102,-0.05214 l 0.295689,-0.15104 c 0.0041,0.0052 0.01328,0.02027 0.02747,0.04519 0.01419,0.02492 0.03045,0.0539 0.04879,0.08693 0.0189,0.03129 0.03782,0.06402 0.05675,0.09822 0.01834,0.03304 0.03343,0.06115 0.04527,0.08434 l 0.0052,-0.0027 c -9e-6,-0.06871 0.005,-0.133394 0.01493,-0.194045 0.01,-0.06065 0.02869,-0.117002 0.0562,-0.169068 0.02807,-0.05381 0.06579,-0.103054 0.113156,-0.147721 0.04793,-0.04642 0.109007,-0.08858 0.183219,-0.126487 0.142627,-0.07285 0.269616,-0.101897 0.380968,-0.08713 0.112512,0.01417 0.21669,0.07501 0.312536,0.182492 l 0.0052,-0.0027 c -1e-5,-0.06871 0.0061,-0.133986 0.01841,-0.195821 0.01228,-0.06183 0.03391,-0.119667 0.06489,-0.173511 0.03039,-0.055 0.07043,-0.105423 0.120114,-0.151275 0.04909,-0.04701 0.110745,-0.08947 0.184959,-0.127376 0.09508,-0.04857 0.183347,-0.07757 0.264794,-0.08701 0.0826,-0.01002 0.15956,3.77e-4 0.230871,0.03121 0.07131,0.03083 0.139019,0.08324 0.203131,0.157228 0.06352,0.07283 0.124892,0.167221 0.184125,0.283175 l 0.640584,1.254068 -0.309603,0.158147 -0.609489,-1.193191 c -0.04679,-0.0916 -0.09168,-0.165173 -0.134671,-0.220709 -0.04299,-0.05553 -0.08788,-0.09474 -0.134657,-0.117636 -0.04622,-0.02464 -0.09521,-0.03325 -0.14697,-0.02581 -0.05236,0.0063 -0.110423,0.0257 -0.174197,0.05828 -0.0661,0.03376 -0.119299,0.07702 -0.159607,0.129777 -0.0409,0.0516 -0.06805,0.111522 -0.08143,0.179768 -0.01223,0.06766 -0.01012,0.143343 0.0063,0.227055 0.0176,0.08312 0.05098,0.172806 0.100147,0.269048 l 0.557069,1.09057 -0.309604,0.158147" />
                <path
                   id="path3891"
                   inkscape:connector-curvature="0"
                   d="m 42.744275,18.955546 -0.04478,-0.295454 0.693255,-0.105066 -0.317246,-2.093284 -0.547647,0.531421 -0.04975,-0.328283 0.576028,-0.539672 0.320559,-0.04858 0.367584,2.425428 0.662358,-0.100383 0.04478,0.295454 -1.705138,0.258421" />
                <path
                   id="path3893"
                   inkscape:connector-curvature="0"
                   d="m 44.849923,16.947576 -0.03792,-0.402515 0.379181,-0.03572 0.03792,0.402515 -0.379181,0.03572 m 0.16027,1.701453 -0.03791,-0.402515 0.379181,-0.03572 0.03791,0.402515 -0.379181,0.03572" />
                <path
                   id="path3895"
                   inkscape:connector-curvature="0"
                   d="m 46.054835,18.552163 -0.01133,-0.298614 0.700668,-0.02658 -0.08025,-2.115666 -0.603843,0.466582 -0.01259,-0.331793 0.632971,-0.471596 0.323985,-0.01229 0.09298,2.451363 0.66944,-0.02539 0.01133,0.298613 -1.72337,0.06537" />
                <path
                   id="path3897"
                   inkscape:connector-curvature="0"
                   d="m 48.342118,18.501344 0.0076,-0.427668 0.3808,0.0067 -0.0076,0.427668 -0.380799,-0.0067" />
                <path
                   id="path3899"
                   inkscape:connector-curvature="0"
                   d="m 50.84888,18.003867 -0.04578,0.621362 -0.331133,-0.0244 0.04578,-0.621362 -1.293369,-0.09529 0.02009,-0.272698 1.392697,-1.757888 0.368143,0.02712 -0.13605,1.846558 0.385673,0.02841 -0.02038,0.276594 -0.385673,-0.02841 M 50.64504,16.251727 c -0.0031,0.0063 -0.01053,0.01881 -0.02235,0.03752 -0.01173,0.01742 -0.02495,0.03733 -0.03965,0.05975 -0.01471,0.02242 -0.03011,0.04544 -0.04621,0.06906 -0.01471,0.02242 -0.02783,0.04104 -0.03937,0.05585 l -0.779521,0.984446 c -0.0073,0.0099 -0.018,0.02283 -0.03223,0.03875 -0.01293,0.01602 -0.02656,0.03264 -0.04088,0.04987 -0.01423,0.01592 -0.02846,0.03185 -0.04269,0.04777 -0.01423,0.01593 -0.02557,0.02815 -0.03404,0.03666 l 0.970027,0.07147 0.106917,-1.451144" />
              </g>
            </g>
            <g
               style="display:inline"
               id="layer4">
              <path
                 inkscape:connector-curvature="0"
                 style="fill:#000000;fill-opacity:1;stroke:none"
                 id="path3757"
                 transform="matrix(1.0266143,0,0,1.0266143,-0.999999,0.7783622)"
                 d="m 61.366765,45.997448 a 13.637059,13.637059 0 1 1 -27.274118,0 13.637059,13.637059 0 1 1 27.274118,0 z" />
              <path
                 style="opacity:0.6;fill:#000000;fill-opacity:1;stroke:none"
                 id="path3760"
                 inkscape:connector-curvature="0"
                 d="M 47.5,33 C 39.491871,33 33,39.491871 33,47.5 33,55.508129 39.491871,62 47.5,62 c 0.08504,0 0.165309,0.0015 0.25,0 C 40.133878,61.866031 34,55.648102 34,48 c 0,-7.731986 6.268014,-14 14,-14 7.648102,0 13.866031,6.133878 14,13.75 0.0015,-0.08469 0,-0.164961 0,-0.25 C 62,39.491871 55.508129,33 47.5,33 z" />
              <path
                 inkscape:connector-curvature="0"
                 style="fill:url(#radialGradient3687);fill-opacity:1;stroke:none"
                 id="path2907"
                 transform="matrix(1.0266143,0,0,1.0266143,-0.999999,0.778362)"
                 d="m 61.366765,45.997448 a 13.637059,13.637059 0 1 1 -27.274118,0 13.637059,13.637059 0 1 1 27.274118,0 z" />
              <path
                 inkscape:connector-curvature="0"
                 style="fill:none;stroke:url(#linearGradient3733);stroke-width:0.514606;stroke-miterlimit:4;stroke-opacity:1;stroke-dasharray:none;filter:url(#filter3774)"
                 id="path3705"
                 transform="matrix(0,0.97161711,-0.97161711,0,92.69191,1.6250011)"
                 d="m 61.366765,45.997448 a 13.637059,13.637059 0 1 1 -27.274118,0 13.637059,13.637059 0 1 1 27.274118,0 z" />
              <path
                 style="opacity:0.6;fill:#ffffff;fill-opacity:1;stroke:none"
                 id="path3735"
                 inkscape:connector-curvature="0"
                 d="m 41.34375,47.375 c 0.07082,-0.767299 0.285421,-1.486362 0.59375,-2.15625 L 37.34375,42.8125 c -0.603997,1.243084 -1.018186,2.621977 -1.15625,4.0625 l 5.15625,0.5 z m 1.375,-3.4375 c 1.071033,-1.389071 2.667628,-2.34897 4.5,-2.5625 L 46.625,36.21875 c -3.598468,0.417087 -6.654118,2.435762 -8.53125,5.3125 l 4.625,2.40625 z" />
              <path
                 inkscape:connector-curvature="0"
                 style="opacity:0.4314516;fill:url(#linearGradient3767);fill-opacity:1;stroke:none"
                 id="path3759"
                 transform="matrix(0.58268801,-0.58268801,0.58268801,0.58268801,-0.74355667,46.935862)"
                 d="m 50.708204,52 a 9.7082043,6 0 1 1 -19.416408,0 9.7082043,6 0 1 1 19.416408,0 z" />
              <path
                 inkscape:connector-curvature="0"
                 style="opacity:0.3;fill:url(#linearGradient3771);fill-opacity:1;stroke:none"
                 id="path3769"
                 transform="matrix(0.15076894,-0.15076894,0.15076894,0.15076894,37.387737,49.649792)"
                 d="m 50.708204,52 a 9.7082043,6 0 1 1 -19.416408,0 9.7082043,6 0 1 1 19.416408,0 z" />
              <path
                 inkscape:connector-curvature="0"
                 style="opacity:0.3;fill:url(#linearGradient3775);fill-opacity:1;stroke:none"
                 id="path3773"
                 transform="matrix(-0.10757707,0.10757707,-0.10757707,-0.10757707,55.999137,47.076819)"
                 d="m 50.708204,52 a 9.7082043,6 0 1 1 -19.416408,0 9.7082043,6 0 1 1 19.416408,0 z" />
              <path
                 inkscape:connector-curvature="0"
                 style="opacity:0.4314516;fill:url(#linearGradient3779-0);fill-opacity:1;stroke:none"
                 id="path3777"
                 transform="matrix(-0.19358861,0.19358861,-0.19358861,-0.19358861,59.194255,43.21899)"
                 d="m 50.708204,52 a 9.7082043,6 0 1 1 -19.416408,0 9.7082043,6 0 1 1 19.416408,0 z" />
              <path
                 inkscape:connector-curvature="0"
                 style="opacity:0.6;fill:url(#linearGradient3791-1);fill-opacity:1;stroke:none"
                 id="path3789"
                 transform="matrix(0.08968638,-0.08968638,0.08968638,0.08968638,40.497472,47.750757)"
                 d="m 50.708204,52 a 9.7082043,6 0 1 1 -19.416408,0 9.7082043,6 0 1 1 19.416408,0 z" />
              <path
                 style="opacity:0.7;fill:url(#linearGradient3817);fill-opacity:1;stroke:none;display:inline"
                 id="path3806"
                 inkscape:connector-curvature="0"
                 d="m 48,32 c -8.836556,0 -16,7.163444 -16,16 0,8.836556 7.163444,16 16,16 8.836556,0 16,-7.163444 16,-16 0,-8.836556 -7.163444,-16 -16,-16 z m 0,1.5 c 8.008129,0 14.5,6.491871 14.5,14.5 0,8.008129 -6.491871,14.5 -14.5,14.5 -8.008129,0 -14.5,-6.491871 -14.5,-14.5 0,-8.008129 6.491871,-14.5 14.5,-14.5 z" />
            </g>
            <g
               style="display:inline"
               id="layer6">
              <g
                 style="opacity:0.4;display:inline;filter:url(#filter3833)"
                 id="g3786"
                 clip-path="url(#clipPath3798)">
                <path
                   inkscape:connector-curvature="0"
                   style="fill:#d40000;fill-opacity:1;stroke:none"
                   id="path3756"
                   transform="matrix(1.0266143,0,0,1.0266143,-0.9999987,0.7783622)"
                   d="m 61.366765,45.997448 a 13.637059,13.637059 0 0 1 -3.994202,9.642857 l -9.642857,-9.642857 z" />
                <path
                   inkscape:connector-curvature="0"
                   style="fill:#d42aff;fill-opacity:1;stroke:none"
                   id="path3772"
                   transform="matrix(0.72592593,0.72592593,-0.72592593,0.72592593,46.742509,-20.038972)"
                   d="m 61.366765,45.997448 a 13.637059,13.637059 0 0 1 -3.994202,9.642857 l -9.642857,-9.642857 z" />
                <path
                   inkscape:connector-curvature="0"
                   style="fill:#6600ff;fill-opacity:1;stroke:none"
                   id="path3774"
                   transform="matrix(0,1.0266143,-1.0266143,0,95.221638,-0.99999877)"
                   d="m 61.366765,45.997448 a 13.637059,13.637059 0 0 1 -3.994202,9.642857 l -9.642857,-9.642857 z" />
                <path
                   inkscape:connector-curvature="0"
                   style="fill:#2a7fff;fill-opacity:1;stroke:none"
                   id="path3776"
                   transform="matrix(-0.72592593,0.72592593,-0.72592593,-0.72592593,116.03897,46.742509)"
                   d="m 61.366765,45.997448 a 13.637059,13.637059 0 0 1 -3.994202,9.642857 l -9.642857,-9.642857 z" />
                <path
                   inkscape:connector-curvature="0"
                   style="fill:#5fd3bc;fill-opacity:1;stroke:none"
                   id="path3778"
                   transform="matrix(-1.0266143,0,0,-1.0266143,96.999997,95.221637)"
                   d="m 61.366765,45.997448 a 13.637059,13.637059 0 0 1 -3.994202,9.642857 l -9.642857,-9.642857 z" />
                <path
                   inkscape:connector-curvature="0"
                   style="fill:#55d400;fill-opacity:1;stroke:none"
                   id="path3780"
                   transform="matrix(-0.72592593,-0.72592593,0.72592593,-0.72592593,49.25749,116.03897)"
                   d="m 61.366765,45.997448 a 13.637059,13.637059 0 0 1 -3.994202,9.642857 l -9.642857,-9.642857 z" />
                <path
                   inkscape:connector-curvature="0"
                   style="fill:#ffcc00;fill-opacity:1;stroke:none"
                   id="path3782"
                   transform="matrix(0,-1.0266143,1.0266143,0,0.77836254,96.999997)"
                   d="m 61.366765,45.997448 a 13.637059,13.637059 0 0 1 -3.994202,9.642857 l -9.642857,-9.642857 z" />
                <path
                   inkscape:connector-curvature="0"
                   style="fill:#ff6600;fill-opacity:1;stroke:none"
                   id="path3784"
                   transform="matrix(0.72592593,-0.72592593,0.72592593,0.72592593,-20.03897,49.25749)"
                   d="m 61.366765,45.997448 a 13.637059,13.637059 0 0 1 -3.994202,9.642857 l -9.642857,-9.642857 z" />
              </g>
              <g
                 style="opacity:0.8;filter:url(#filter3987)"
                 id="g3957"
                 transform="translate(0,-50)">
                <path
                   style="opacity:0.8;fill:url(#linearGradient3967);fill-opacity:1;stroke:none"
                   id="path3726"
                   inkscape:connector-curvature="0"
                   d="m 61.53125,94.375 -0.96875,0.25 C 60.849921,95.699342 61,96.835019 61,98 c 0,4.80784 -2.619633,9.00086 -6.5,11.25 l 0.5,0.875 c 5.487553,-3.16824 8.171252,-9.62943 6.53125,-15.75 z" />
                <path
                   style="opacity:0.8;fill:url(#linearGradient3969);fill-opacity:1;stroke:none"
                   id="path3728"
                   inkscape:connector-curvature="0"
                   d="m 59.25,104.5 c -2.249137,3.88037 -6.442164,6.5 -11.25,6.5 -1.164981,0 -2.300658,-0.15008 -3.375,-0.4375 l -0.25,0.96875 c 6.120569,1.64 12.58176,-1.0437 15.75,-6.53125 l -0.875,-0.5 z" />
                <path
                   style="fill:url(#linearGradient3971);fill-opacity:1;stroke:none"
                   id="path3730"
                   inkscape:connector-curvature="0"
                   d="m 36.75,104.5 -0.875,0.5 c 3.16824,5.48755 9.629431,8.17125 15.75,6.53125 l -0.25,-0.96875 C 50.300658,110.84992 49.164981,111 48,111 c -4.807836,0 -9.000863,-2.61963 -11.25,-6.5 z" />
                <path
                   style="opacity:0.9;fill:url(#linearGradient3973);fill-opacity:1;stroke:none"
                   id="path3732"
                   inkscape:connector-curvature="0"
                   d="m 34.46875,94.375 c -1.640002,6.12057 1.043697,12.58176 6.53125,15.75 l 0.5,-0.875 C 37.619633,107.00086 35,102.80784 35,98 c 0,-1.164981 0.150079,-2.300658 0.4375,-3.375 l -0.96875,-0.25 z" />
                <path
                   style="fill:url(#linearGradient3975);fill-opacity:1;stroke:none"
                   id="path3734"
                   inkscape:connector-curvature="0"
                   d="m 41,85.875 c -5.487553,3.16824 -8.171252,9.629431 -6.53125,15.75 l 0.96875,-0.25 C 35.150079,100.30066 35,99.164981 35,98 35,93.192164 37.619633,88.999137 41.5,86.75 L 41,85.875 z" />
                <path
                   style="fill:url(#linearGradient3977);fill-opacity:1;stroke:none"
                   id="path3736"
                   inkscape:connector-curvature="0"
                   d="M 48.15625,84 C 43.183834,83.93941 38.449195,86.541364 35.875,91 l 0.875,0.5 C 38.999137,87.619633 43.192164,85 48,85 c 1.164981,0 2.300658,0.150079 3.375,0.4375 l 0.25,-0.96875 C 50.477393,84.16125 49.303731,84.013982 48.15625,84 z" />
                <path
                   style="fill:url(#linearGradient3979);fill-opacity:1;stroke:none"
                   id="path3738"
                   inkscape:connector-curvature="0"
                   d="m 47.84375,84 c -1.147481,0.01398 -2.321143,0.16125 -3.46875,0.46875 l 0.25,0.96875 C 45.699342,85.150079 46.835019,85 48,85 c 4.807836,0 9.000863,2.619633 11.25,6.5 L 60.125,91 C 57.550805,86.541363 52.816166,83.939411 47.84375,84 z" />
                <path
                   style="opacity:0.9;fill:url(#linearGradient3981);fill-opacity:1;stroke:none"
                   id="path3740"
                   inkscape:connector-curvature="0"
                   d="m 55,85.875 -0.5,0.875 c 3.880367,2.249137 6.5,6.442164 6.5,11.25 0,1.164981 -0.150079,2.30066 -0.4375,3.375 l 0.96875,0.25 C 63.171252,95.504431 60.487553,89.04324 55,85.875 z" />
              </g>
              <path
                 inkscape:connector-curvature="0"
                 style="fill:url(#radialGradient3803);fill-opacity:1;stroke:none;display:inline"
                 id="path3793"
                 transform="matrix(0.23287504,-0.23287504,0.23287504,0.23287504,33.266783,52.13527)"
                 d="m 50.708204,52 a 9.7082043,6 0 1 1 -19.416408,0 9.7082043,6 0 1 1 19.416408,0 z" />
            </g>
          </g>
        </g>
      </g>
    </g>
  </g>
</svg>
