<?xml version="1.0" encoding="UTF-8" standalone="no"?>
<!-- Created with Inkscape (http://www.inkscape.org/) -->

<svg
   xmlns:dc="http://purl.org/dc/elements/1.1/"
   xmlns:cc="http://creativecommons.org/ns#"
   xmlns:rdf="http://www.w3.org/1999/02/22-rdf-syntax-ns#"
   xmlns:svg="http://www.w3.org/2000/svg"
   xmlns="http://www.w3.org/2000/svg"
   xmlns:xlink="http://www.w3.org/1999/xlink"
   xmlns:sodipodi="http://sodipodi.sourceforge.net/DTD/sodipodi-0.dtd"
   xmlns:inkscape="http://www.inkscape.org/namespaces/inkscape"
   width="96"
   height="96"
   id="svg6307"
   version="1.1"
   inkscape:version="0.48.1 r9760"
   sodipodi:docname="templat-96x96.svg">
  <defs
     id="defs6309">
    <filter
       color-interpolation-filters="sRGB"
       inkscape:collect="always"
       id="filter6279-2">
      <feGaussianBlur
         inkscape:collect="always"
         stdDeviation="0.8"
         id="feGaussianBlur6281-1" />
    </filter>
    <linearGradient
       inkscape:collect="always"
       xlink:href="#linearGradient4283-9"
       id="linearGradient6165"
       gradientUnits="userSpaceOnUse"
       gradientTransform="translate(0,-7.8515622e-6)"
       x1="48"
       y1="1052.3622"
       x2="48"
       y2="902.36218" />
    <linearGradient
       id="linearGradient4283-9">
      <stop
         id="stop4285"
         style="stop-color:#dfdfdf;stop-opacity:1"
         offset="0" />
      <stop
         id="stop4287-2"
         style="stop-color:#434343;stop-opacity:1"
         offset="1" />
    </linearGradient>
    <linearGradient
       inkscape:collect="always"
       xlink:href="#linearGradient3187"
       id="linearGradient8738"
       gradientUnits="userSpaceOnUse"
       x1="48"
       y1="90"
       x2="48"
       y2="5.9877172" />
    <linearGradient
       id="linearGradient3187">
      <stop
         id="stop3189-97"
         style="stop-color:#282828;stop-opacity:1"
         offset="0" />
      <stop
         id="stop3191-7"
         style="stop-color:#5a5a5a;stop-opacity:1"
         offset="1" />
    </linearGradient>
    <radialGradient
       inkscape:collect="always"
       xlink:href="#linearGradient3386"
       id="radialGradient8740"
       gradientUnits="userSpaceOnUse"
       gradientTransform="matrix(1.0164118,0,0,1.2415079,-19.337623,-31.113008)"
       cx="53.419292"
       cy="66.597893"
       fx="53.419292"
       fy="66.597893"
       r="47.724609" />
    <linearGradient
       id="linearGradient3386">
      <stop
         id="stop3388-6"
         style="stop-color:#eeeeec;stop-opacity:1"
         offset="0" />
      <stop
         id="stop3390"
         style="stop-color:#eeeeec;stop-opacity:0"
         offset="1" />
    </linearGradient>
    <radialGradient
       inkscape:collect="always"
       xlink:href="#linearGradient3386"
       id="radialGradient8742"
       gradientUnits="userSpaceOnUse"
       gradientTransform="matrix(1.0220726,0,0,1.2415079,-19.896446,-47.863009)"
       cx="53.419292"
       cy="66.597893"
       fx="53.419292"
       fy="66.597893"
       r="47.724609" />
    <linearGradient
       id="linearGradient6995">
      <stop
         id="stop6997"
         style="stop-color:#eeeeec;stop-opacity:1"
         offset="0" />
      <stop
         id="stop6999"
         style="stop-color:#eeeeec;stop-opacity:0"
         offset="1" />
    </linearGradient>
    <radialGradient
       inkscape:collect="always"
       xlink:href="#linearGradient3386"
       id="radialGradient8744"
       gradientUnits="userSpaceOnUse"
       gradientTransform="matrix(1.4750367,0,0,0.847859,-55.736923,-9.8942437)"
       cx="53.419292"
       cy="66.597893"
       fx="53.419292"
       fy="66.597893"
       r="47.724609" />
    <linearGradient
       id="linearGradient7002">
      <stop
         id="stop7004"
         style="stop-color:#eeeeec;stop-opacity:1"
         offset="0" />
      <stop
         id="stop7006"
         style="stop-color:#eeeeec;stop-opacity:0"
         offset="1" />
    </linearGradient>
    <radialGradient
       inkscape:collect="always"
       xlink:href="#linearGradient3386"
       id="radialGradient8746"
       gradientUnits="userSpaceOnUse"
       gradientTransform="matrix(1.0199392,0,0,0.85846172,-19.873341,-11.926904)"
       cx="53.419292"
       cy="66.597893"
       fx="53.419292"
       fy="66.597893"
       r="47.724609" />
    <linearGradient
       id="linearGradient7009">
      <stop
         id="stop7011"
         style="stop-color:#eeeeec;stop-opacity:1"
         offset="0" />
      <stop
         id="stop7013"
         style="stop-color:#eeeeec;stop-opacity:0"
         offset="1" />
    </linearGradient>
    <radialGradient
       cx="53.419292"
       cy="66.597893"
       r="47.724609"
       fx="53.419292"
       fy="66.597893"
       id="radialGradient3937"
       xlink:href="#linearGradient3386"
       gradientUnits="userSpaceOnUse"
       gradientTransform="matrix(1.4750367,0,0,0.847859,-77.736923,-9.8942437)" />
    <linearGradient
       id="linearGradient7016">
      <stop
         id="stop7018"
         style="stop-color:#eeeeec;stop-opacity:1"
         offset="0" />
      <stop
         id="stop7020"
         style="stop-color:#eeeeec;stop-opacity:0"
         offset="1" />
    </linearGradient>
    <linearGradient
       x1="43.476658"
       y1="26"
       x2="43.476658"
       y2="34.001266"
       id="linearGradient4262"
       xlink:href="#linearGradient3260"
       gradientUnits="userSpaceOnUse"
       gradientTransform="matrix(0.72413795,0,0,0.75,1.6551725,4.5)" />
    <linearGradient
       id="linearGradient3260"
       gradientUnits="userSpaceOnUse">
      <stop
         id="stop3262-4"
         style="stop-color:#000000;stop-opacity:1"
         offset="0" />
      <stop
         id="stop3266-3"
         style="stop-color:#000000;stop-opacity:0.3548387"
         offset="0.2" />
      <stop
         id="stop3268-0"
         style="stop-color:#000000;stop-opacity:0"
         offset="0.55254942" />
      <stop
         id="stop3264-3"
         style="stop-color:#000000;stop-opacity:0"
         offset="1" />
    </linearGradient>
    <linearGradient
       x1="50.464287"
       y1="16.035713"
       x2="50.464287"
       y2="20.329885"
       id="linearGradient4320"
       xlink:href="#linearGradient4314"
       gradientUnits="userSpaceOnUse"
       gradientTransform="translate(0,-0.67856979)" />
    <linearGradient
       id="linearGradient4314">
      <stop
         id="stop4316"
         style="stop-color:#ffffff;stop-opacity:1"
         offset="0" />
      <stop
         id="stop4322"
         style="stop-color:#ffffff;stop-opacity:0.49803922"
         offset="0.30000001" />
      <stop
         id="stop4318"
         style="stop-color:#ffffff;stop-opacity:0"
         offset="1" />
    </linearGradient>
    <linearGradient
       x1="48"
       y1="16"
       x2="48"
       y2="11.924657"
       id="linearGradient4310"
       xlink:href="#linearGradient3260"
       gradientUnits="userSpaceOnUse"
       gradientTransform="matrix(1,0,0,1.25,0,-4.5982122)" />
    <linearGradient
       id="linearGradient7034"
       gradientUnits="userSpaceOnUse">
      <stop
         id="stop7036"
         style="stop-color:#000000;stop-opacity:1"
         offset="0" />
      <stop
         id="stop7038"
         style="stop-color:#000000;stop-opacity:0.3548387"
         offset="0.2" />
      <stop
         id="stop7040"
         style="stop-color:#000000;stop-opacity:0"
         offset="0.55254942" />
      <stop
         id="stop7042"
         style="stop-color:#000000;stop-opacity:0"
         offset="1" />
    </linearGradient>
    <linearGradient
       x1="48"
       y1="16"
       x2="48"
       y2="11.924657"
       id="linearGradient4326"
       xlink:href="#linearGradient3260"
       gradientUnits="userSpaceOnUse"
       gradientTransform="matrix(1,0,0,1.25,0,4.4017878)" />
    <linearGradient
       id="linearGradient7045"
       gradientUnits="userSpaceOnUse">
      <stop
         id="stop7047"
         style="stop-color:#000000;stop-opacity:1"
         offset="0" />
      <stop
         id="stop7049"
         style="stop-color:#000000;stop-opacity:0.3548387"
         offset="0.2" />
      <stop
         id="stop7051"
         style="stop-color:#000000;stop-opacity:0"
         offset="0.55254942" />
      <stop
         id="stop7053"
         style="stop-color:#000000;stop-opacity:0"
         offset="1" />
    </linearGradient>
    <linearGradient
       x1="11"
       y1="10.441942"
       x2="16"
       y2="24"
       id="linearGradient4371"
       xlink:href="#linearGradient3273-0"
       gradientUnits="userSpaceOnUse"
       gradientTransform="matrix(0.81330712,0,0,0.81132563,3.9935431,2.0281849)" />
    <linearGradient
       id="linearGradient3273-0">
      <stop
         id="stop3275-92"
         style="stop-color:#5d5d5d;stop-opacity:1"
         offset="0" />
      <stop
         id="stop3277-5"
         style="stop-color:#171717;stop-opacity:1"
         offset="1" />
    </linearGradient>
    <linearGradient
       x1="13.125"
       y1="9.9419422"
       x2="19.25"
       y2="24.5"
       id="linearGradient4373"
       xlink:href="#linearGradient3289-4"
       gradientUnits="userSpaceOnUse"
       gradientTransform="matrix(0.81330712,0,0,0.81132563,3.9935431,2.0281849)" />
    <linearGradient
       id="linearGradient3289-4">
      <stop
         id="stop3291-0"
         style="stop-color:#919191;stop-opacity:1"
         offset="0" />
      <stop
         id="stop3293-5"
         style="stop-color:#232323;stop-opacity:1"
         offset="1" />
    </linearGradient>
    <radialGradient
       cx="11.3125"
       cy="14.9375"
       r="1.4375"
       fx="11.3125"
       fy="14.9375"
       id="radialGradient4379"
       xlink:href="#linearGradient3299-9"
       gradientUnits="userSpaceOnUse" />
    <linearGradient
       id="linearGradient3299-9">
      <stop
         id="stop3301-4"
         style="stop-color:#dfdfdf;stop-opacity:1"
         offset="0" />
      <stop
         id="stop3303-6"
         style="stop-color:#434343;stop-opacity:1"
         offset="1" />
    </linearGradient>
    <radialGradient
       cx="11.3125"
       cy="14.9375"
       r="1.4375"
       fx="11.3125"
       fy="14.9375"
       id="radialGradient4377"
       xlink:href="#linearGradient3299-9"
       gradientUnits="userSpaceOnUse" />
    <linearGradient
       id="linearGradient7068">
      <stop
         id="stop7070"
         style="stop-color:#dfdfdf;stop-opacity:1"
         offset="0" />
      <stop
         id="stop7072"
         style="stop-color:#434343;stop-opacity:1"
         offset="1" />
    </linearGradient>
    <radialGradient
       cx="11.3125"
       cy="14.9375"
       r="1.4375"
       fx="11.3125"
       fy="14.9375"
       id="radialGradient4375"
       xlink:href="#linearGradient3299-9"
       gradientUnits="userSpaceOnUse" />
    <linearGradient
       id="linearGradient7075">
      <stop
         id="stop7077"
         style="stop-color:#dfdfdf;stop-opacity:1"
         offset="0" />
      <stop
         id="stop7079"
         style="stop-color:#434343;stop-opacity:1"
         offset="1" />
    </linearGradient>
    <linearGradient
       inkscape:collect="always"
       xlink:href="#linearGradient3277-4"
       id="linearGradient3104-2"
       gradientUnits="userSpaceOnUse"
       gradientTransform="matrix(1.0513134,0,0,1.0513134,-120.2285,31.416155)"
       x1="70.782135"
       y1="83.017471"
       x2="75.404488"
       y2="22.02951" />
    <linearGradient
       id="linearGradient3277-4">
      <stop
         id="stop3279-7"
         style="stop-color:#3d9119;stop-opacity:1"
         offset="0" />
      <stop
         id="stop3281-75"
         style="stop-color:#76e62b;stop-opacity:1"
         offset="1" />
    </linearGradient>
    <radialGradient
       inkscape:collect="always"
       xlink:href="#linearGradient3266-4"
       id="radialGradient3106"
       gradientUnits="userSpaceOnUse"
       gradientTransform="matrix(0.9847961,0.02597927,-0.01823822,0.6913564,1.9937062,24.820256)"
       cx="40.846539"
       cy="75.263962"
       fx="40.846539"
       fy="75.263962"
       r="14.672466" />
    <linearGradient
       id="linearGradient3266-4">
      <stop
         id="stop3269-8"
         style="stop-color:#87ff2b;stop-opacity:1"
         offset="0" />
      <stop
         id="stop3271-1"
         style="stop-color:#87ff2b;stop-opacity:0"
         offset="1" />
    </linearGradient>
    <radialGradient
       inkscape:collect="always"
       xlink:href="#linearGradient3266-4"
       id="radialGradient3108"
       gradientUnits="userSpaceOnUse"
       gradientTransform="matrix(0.9847961,0.02597927,-0.01823822,0.6913564,1.9937062,24.820256)"
       cx="40.846539"
       cy="75.263962"
       fx="40.846539"
       fy="75.263962"
       r="14.672466" />
    <linearGradient
       id="linearGradient7090">
      <stop
         id="stop7092"
         style="stop-color:#87ff2b;stop-opacity:1"
         offset="0" />
      <stop
         id="stop7094"
         style="stop-color:#87ff2b;stop-opacity:0"
         offset="1" />
    </linearGradient>
    <radialGradient
       inkscape:collect="always"
       xlink:href="#linearGradient3266-4"
       id="radialGradient3110"
       gradientUnits="userSpaceOnUse"
       gradientTransform="matrix(1.543369,0.28142051,-0.32722971,1.7945958,-138.17549,-6.0460513)"
       cx="54.75"
       cy="25.072803"
       fx="54.75"
       fy="25.072803"
       r="13" />
    <linearGradient
       id="linearGradient7097">
      <stop
         id="stop7099"
         style="stop-color:#87ff2b;stop-opacity:1"
         offset="0" />
      <stop
         id="stop7101"
         style="stop-color:#87ff2b;stop-opacity:0"
         offset="1" />
    </linearGradient>
    <radialGradient
       inkscape:collect="always"
       xlink:href="#linearGradient3266-4"
       id="radialGradient3112"
       gradientUnits="userSpaceOnUse"
       gradientTransform="matrix(0.88267832,0,-2.2566243e-8,1.115007,-69.080446,51.097006)"
       cx="56.496048"
       cy="31.701607"
       fx="56.496048"
       fy="31.701607"
       r="13" />
    <linearGradient
       id="linearGradient7104">
      <stop
         id="stop7106"
         style="stop-color:#87ff2b;stop-opacity:1"
         offset="0" />
      <stop
         id="stop7108"
         style="stop-color:#87ff2b;stop-opacity:0"
         offset="1" />
    </linearGradient>
  </defs>
  <sodipodi:namedview
     id="base"
     pagecolor="#ffffff"
     bordercolor="#666666"
     borderopacity="1.0"
     inkscape:pageopacity="0.0"
     inkscape:pageshadow="2"
     inkscape:zoom="3.959798"
     inkscape:cx="70.786968"
     inkscape:cy="52.795493"
     inkscape:document-units="px"
     inkscape:current-layer="layer1"
     showgrid="false"
     inkscape:window-width="1280"
     inkscape:window-height="747"
     inkscape:window-x="0"
     inkscape:window-y="0"
     inkscape:window-maximized="1" />
  <metadata
     id="metadata6312">
    <rdf:RDF>
      <cc:Work
         rdf:about="">
        <dc:format>image/svg+xml</dc:format>
        <dc:type
           rdf:resource="http://purl.org/dc/dcmitype/StillImage" />
        <dc:title></dc:title>
      </cc:Work>
    </rdf:RDF>
  </metadata>
  <g
     inkscape:label="Layer 1"
     inkscape:groupmode="layer"
     id="layer1"
     transform="translate(0,-956.36218)">
    <g
       id="g6936">
      <rect
         transform="translate(0,-7.8515622e-6)"
         y="964.36218"
         x="8"
         height="80"
         width="80"
         id="rect9283"
         style="fill:#000000;fill-opacity:1;stroke:none;filter:url(#filter6279-2)"
         rx="5"
         ry="5" />
      <rect
         ry="5"
         rx="5"
         style="fill:url(#linearGradient6165);fill-opacity:1;stroke:none"
         id="rect9285"
         width="80"
         height="80"
         x="8"
         y="964.36218" />
      <g
         transform="translate(-182.1875,-40.40625)"
         id="g26594">
        <g
           id="g3991"
           transform="matrix(0.6547619,0,0,0.6547619,198.75893,1012.621)">
          <g
             id="layer1-2">
            <g
               id="g3928">
              <rect
                 style="fill:url(#linearGradient8738);fill-opacity:1;fill-rule:nonzero;stroke:none"
                 id="rect2419"
                 y="6"
                 x="6"
                 ry="6"
                 rx="6"
                 height="84"
                 width="84" />
              <path
                 style="font-size:6px;font-style:normal;font-variant:normal;font-weight:bold;font-stretch:normal;text-align:start;line-height:125%;writing-mode:lr-tb;text-anchor:start;opacity:0.8;fill:url(#radialGradient8740);fill-opacity:1;stroke:none;display:inline;font-family:DejaVu Sans;-inkscape-font-specification:DejaVu Sans Bold"
                 id="path3842"
                 inkscape:connector-curvature="0"
                 d="m 40,39 41,0 0,1 -41,0 0,-1 z" />
              <path
                 style="font-size:6px;font-style:normal;font-variant:normal;font-weight:bold;font-stretch:normal;text-align:start;line-height:125%;writing-mode:lr-tb;text-anchor:start;opacity:0.8;fill:url(#radialGradient8742);fill-opacity:1;stroke:none;display:inline;font-family:DejaVu Sans;-inkscape-font-specification:DejaVu Sans Bold"
                 id="path3840"
                 inkscape:connector-curvature="0"
                 d="m 15,69 66,0 0,1 -66,0 0,-1 z" />
              <path
                 style="font-size:6px;font-style:normal;font-variant:normal;font-weight:bold;font-stretch:normal;text-align:start;line-height:125%;writing-mode:lr-tb;text-anchor:start;opacity:0.8;fill:url(#radialGradient8744);fill-opacity:1;stroke:none;display:inline;font-family:DejaVu Sans;-inkscape-font-specification:DejaVu Sans Bold"
                 id="text3348"
                 inkscape:connector-curvature="0"
                 d="m 59,70 0,14 -1,0 0,-14 1,0 z" />
              <path
                 style="font-size:6px;font-style:normal;font-variant:normal;font-weight:bold;font-stretch:normal;text-align:start;line-height:125%;writing-mode:lr-tb;text-anchor:start;opacity:0.8;fill:url(#radialGradient8746);fill-opacity:1;stroke:none;display:inline;font-family:DejaVu Sans;-inkscape-font-specification:DejaVu Sans Bold"
                 id="path3870"
                 inkscape:connector-curvature="0"
                 d="m 41.78125,62.875 c -0.364641,3e-6 -0.649276,0.05669 -0.84375,0.21875 -0.194473,0.162065 -0.28125,0.417586 -0.28125,0.71875 0,0.240395 0.07964,0.420696 0.21875,0.5625 0.140454,0.141805 0.353733,0.24767 0.65625,0.3125 l 0.3125,0.0625 c 0.183669,0.04051 0.28298,0.07368 0.34375,0.125 0.06212,0.05132 0.09375,0.12421 0.09375,0.21875 -2e-6,0.105341 -0.03452,0.19328 -0.125,0.25 -0.09049,0.05671 -0.204835,0.09375 -0.375,0.09375 -0.167466,0 -0.350281,-0.04243 -0.53125,-0.09375 -0.17962,-0.05267 -0.369376,-0.11611 -0.5625,-0.21875 l 0,0.65625 c 0.193124,0.07157 0.369376,0.11979 0.5625,0.15625 0.193125,0.03647 0.401974,0.0625 0.59375,0.0625 0.406504,0 0.709071,-0.08794 0.90625,-0.25 0.19852,-0.163413 0.281247,-0.41642 0.28125,-0.75 -3e-6,-0.253896 -0.0457,-0.424745 -0.1875,-0.5625 C 42.701942,64.299749 42.461277,64.19253 42.125,64.125 L 41.78125,64.0625 C 41.623237,64.03009 41.52952,63.98207 41.46875,63.9375 41.40933,63.891583 41.375,63.83103 41.375,63.75 c 0,-0.10804 0.03586,-0.19868 0.125,-0.25 0.08913,-0.05131 0.219875,-0.0625 0.40625,-0.0625 0.140451,0 0.310736,-0.0066 0.46875,0.03125 0.158008,0.03782 0.302634,0.11322 0.46875,0.1875 l 0,-0.65625 C 42.656025,62.950032 42.488067,62.93057 42.3125,62.90625 42.136931,62.88059 41.947363,62.875003 41.78125,62.875 z m 3.0625,0 C 44.505191,62.92793 44.220809,63.069558 44,63.28125 c -0.294414,0.28091 -0.4375,0.672764 -0.4375,1.15625 0,0.482137 0.143086,0.873991 0.4375,1.15625 C 44.294412,65.874658 44.683754,66 45.1875,66 c 0.168813,0 0.344688,-0.02468 0.5,-0.0625 0.155308,-0.03781 0.294342,-0.08197 0.4375,-0.15625 l 0,-0.625 c -0.144508,0.09859 -0.265799,0.17283 -0.40625,0.21875 -0.140457,0.04592 -0.313442,0.0625 -0.46875,0.0625 -0.278209,10e-7 -0.49689,-0.102981 -0.65625,-0.28125 -0.159363,-0.178269 -0.218751,-0.406778 -0.21875,-0.71875 -10e-7,-0.313321 0.05939,-0.57173 0.21875,-0.75 0.15936,-0.178264 0.378041,-0.249998 0.65625,-0.25 0.155308,0 0.328293,0.01659 0.46875,0.0625 0.140451,0.04592 0.261742,0.12016 0.40625,0.21875 l 0,-0.625 c -0.143158,-0.07428 -0.282192,-0.14969 -0.4375,-0.1875 -0.155312,-0.0378 -0.331187,-0.03125 -0.5,-0.03125 -0.125937,10e-7 -0.230897,-0.01764 -0.34375,0 z m -18.875,0.03125 0,0.59375 1,0 0,2.4375 0.78125,0 0,-2.4375 1,0 0,-0.59375 -2.78125,0 z m 3.1875,0 0,3.03125 2.15625,0 0,-0.59375 -1.375,0 0,-0.6875 1.25,0 0,-0.59375 -1.25,0 0,-0.5625 1.3125,0 0,-0.59375 -2.09375,0 z m 17.625,0 0,3.03125 2.15625,0 0,-0.59375 -1.375,0 0,-0.6875 1.25,0 0,-0.59375 -1.25,0 0,-0.5625 1.3125,0 0,-0.59375 -2.09375,0 z m 2.84375,0 0,3.03125 0.71875,0 0,-2.0625 1.125,2.0625 0.84375,0 0,-3.03125 -0.71875,0 0,2.09375 -1.09375,-2.09375 -0.875,0 z m 3.46875,0 0,3.03125 2.15625,0 0,-0.59375 -1.375,0 0,-0.6875 1.25,0 0,-0.59375 -1.25,0 0,-0.5625 1.3125,0 0,-0.59375 -2.09375,0 z m 11.65625,0 0,0.59375 1,0 0,2.4375 0.78125,0 0,-2.4375 1,0 0,-0.59375 -2.78125,0 z m 6.09375,0 0,3.03125 0.78125,0 0,-1.1875 1.1875,1.1875 0.96875,0 -1.59375,-1.59375 1.4375,-1.4375 -0.90625,0 -1.09375,1.125 0,-1.125 -0.78125,0 z m 3.1875,0 0,3.03125 2.15625,0 0,-0.59375 -1.375,0 0,-0.6875 1.25,0 0,-0.59375 -1.25,0 0,-0.5625 1.34375,0 0,-0.59375 -2.125,0 z M 20,62.9375 l 0,3.03125 0.8125,0 c 0.453773,0 0.80436,-0.06017 1.03125,-0.125 0.226885,-0.06618 0.431684,-0.15584 0.59375,-0.3125 0.141802,-0.136402 0.24362,-0.290479 0.3125,-0.46875 0.06887,-0.179617 0.09375,-0.39676 0.09375,-0.625 -2e-6,-0.225535 -0.02487,-0.415479 -0.09375,-0.59375 C 22.68112,63.665484 22.579302,63.511405 22.4375,63.375 22.276784,63.218343 22.069286,63.09608 21.84375,63.03125 21.619563,62.96508 21.271675,62.9375 20.8125,62.9375 l -0.8125,0 z m 4.1875,0 -1.09375,3.03125 0.78125,0 0.1875,-0.5625 1.21875,0 0.1875,0.5625 0.78125,0 -1.125,-3.03125 -0.9375,0 z m 44.1875,0 -1.125,3.03125 0.78125,0 0.21875,-0.5625 1.21875,0 0.1875,0.5625 0.78125,0 -1.125,-3.03125 -0.9375,0 z m -47.59375,0.59375 0.28125,0 c 0.320071,2e-6 0.551284,0.06209 0.71875,0.21875 0.167457,0.156663 0.249997,0.387686 0.25,0.6875 -3e-6,0.301167 -0.08119,0.52949 -0.25,0.6875 -0.167467,0.158017 -0.400029,0.25 -0.71875,0.25 l -0.28125,0 0,-1.84375 z m 3.875,0.09375 0.4375,1.21875 -0.84375,0 0.40625,-1.21875 z m 44.1875,0 0.40625,1.21875 -0.8125,0 0.40625,-1.21875 z" />
              <path
                 style="font-size:6px;font-style:normal;font-variant:normal;font-weight:bold;font-stretch:normal;text-align:start;line-height:125%;writing-mode:lr-tb;text-anchor:start;opacity:0.8;fill:url(#radialGradient3937);fill-opacity:1;stroke:none;display:inline;font-family:DejaVu Sans;-inkscape-font-specification:DejaVu Sans Bold"
                 id="path3935"
                 inkscape:connector-curvature="0"
                 d="m 37,70 0,14 -1,0 0,-14 1,0 z" />
            </g>
          </g>
          <g
             id="layer3">
            <path
               d="M 12,6 C 8.676,6 6,8.676 6,12 l 0,12 84,0 0,-12 C 90,8.676 87.324,6 84,6 L 12,6 z"
               inkscape:connector-curvature="0"
               id="rect4237"
               style="fill:#000000;fill-opacity:1;fill-rule:nonzero;stroke:none" />
            <rect
               width="84"
               height="6"
               x="6"
               y="24"
               id="rect3250"
               style="opacity:0.8;fill:url(#linearGradient4262);fill-opacity:1;fill-rule:evenodd;stroke:none" />
            <rect
               width="84"
               height="5"
               x="6"
               y="15"
               id="rect4289"
               style="opacity:0.3;fill:url(#linearGradient4320);fill-opacity:1;fill-rule:evenodd;stroke:none" />
            <g
               transform="translate(1,0)"
               id="g4299">
              <path
                 d="M 28.333333,6 23,15 28.333333,24 39,24 33.666667,15 39,6 28.333333,6 z"
                 inkscape:connector-curvature="0"
                 id="path4293"
                 style="fill:#f0f0f0;fill-opacity:1;fill-rule:evenodd;stroke:none" />
              <path
                 d="M 50.333333,6 45,15 50.333333,24 61,24 55.666667,15 61,6 50.333333,6 z"
                 inkscape:connector-curvature="0"
                 id="path4295"
                 style="fill:#f0f0f0;fill-opacity:1;fill-rule:evenodd;stroke:none" />
              <path
                 d="M 72.333333,6 67,15 72.333333,24 83,24 77.666667,15 83,6 72.333333,6 z"
                 inkscape:connector-curvature="0"
                 id="path4297"
                 style="fill:#f0f0f0;fill-opacity:1;fill-rule:evenodd;stroke:none" />
            </g>
            <rect
               width="84"
               height="5"
               x="6"
               y="10"
               id="rect4291"
               style="opacity:0.7;fill:url(#linearGradient4310);fill-opacity:1;fill-rule:evenodd;stroke:none" />
            <rect
               width="84"
               height="5"
               x="6"
               y="19"
               id="rect4324"
               style="opacity:0.7;fill:url(#linearGradient4326);fill-opacity:1;fill-rule:evenodd;stroke:none" />
            <path
               d="m 12.005391,10.5 c 1.109513,0 1.770155,0.983693 6.03003,4.302704 4.304387,3.353689 5.477493,3.726472 5.477493,5.074645 0,1.348423 -1.088205,1.622651 -2.439921,1.622651 l -8.133072,0 C 11.588205,21.5 10.5,20.414446 10.5,19.066023 l 0,-6.490605 C 10.5,11.226995 10.967611,10.5 12.005391,10.5 z"
               inkscape:connector-curvature="0"
               id="path4333"
               style="fill:url(#linearGradient4371);fill-opacity:1;fill-rule:evenodd;stroke:url(#linearGradient4373);stroke-width:1;stroke-linecap:butt;stroke-linejoin:round;stroke-miterlimit:4;stroke-opacity:1;stroke-dasharray:none;stroke-dashoffset:0" />
            <path
               d="m 12.75,14.9375 a 1.4375,1.4375 0 1 1 -2.875,0 1.4375,1.4375 0 1 1 2.875,0 z"
               transform="matrix(0.81330712,0,0,0.81132563,3.5868895,1.0746776)"
               id="path4335"
               style="fill:url(#radialGradient4379);fill-opacity:1;fill-rule:evenodd;stroke:none"
               inkscape:connector-curvature="0" />
            <path
               d="m 12.75,14.9375 a 1.4375,1.4375 0 1 1 -2.875,0 1.4375,1.4375 0 1 1 2.875,0 z"
               transform="matrix(0.81330712,0,0,0.81132563,3.5868895,7.09897)"
               id="path4337"
               style="fill:url(#radialGradient4377);fill-opacity:1;fill-rule:evenodd;stroke:none"
               inkscape:connector-curvature="0" />
            <path
               d="m 12.75,14.9375 a 1.4375,1.4375 0 1 1 -2.875,0 1.4375,1.4375 0 1 1 2.875,0 z"
               transform="matrix(0.81330712,0,0,0.81132563,11.618297,7.09897)"
               id="path4339"
               style="fill:url(#radialGradient4375);fill-opacity:1;fill-rule:evenodd;stroke:none"
               inkscape:connector-curvature="0" />
          </g>
          <g
             id="g4513"
             transform="matrix(0.6394564,0,0,0.6394564,81.520854,-0.3027837)">
            <path
               style="fill:url(#linearGradient3104-2);fill-opacity:1;stroke:#34870e;stroke-width:2.34574246;stroke-miterlimit:4;stroke-opacity:1;stroke-dasharray:none"
               id="path3261"
               inkscape:connector-curvature="0"
               d="m -65.015175,50.278074 0,54.903746 c -3.855793,-1.50998 -8.894464,-1.76801 -14.09417,-0.36139 -9.717741,2.62883 -16.233352,10.00877 -14.521267,16.45962 1.712085,6.45086 10.979991,9.56093 20.697733,6.9321 8.256133,-2.23343 14.170779,-7.8963 14.718388,-13.50281 l 0.06571,0 0,-40.377001 35.186145,4.369521 0,39.09572 c -3.855791,-1.50998 -8.894464,-1.76801 -14.09417,-0.36139 -9.717739,2.62883 -16.233352,10.00876 -14.521267,16.45962 1.712087,6.45086 10.979991,9.56093 20.697733,6.9321 8.256135,-2.23343 14.170779,-7.8963 14.718388,-13.50281 l 0.06571,0 0,-70.542025 -48.918927,-6.505001 z m 6.866391,13.212595 35.186145,4.960885 0,4.435229 -35.186145,-4.369522 0,-5.026592 z" />
            <path
               inkscape:connector-curvature="0"
               style="fill:url(#radialGradient3106);fill-opacity:1;stroke:none"
               id="path2494"
               transform="matrix(1.0233043,-0.24105639,0.24105639,1.0233043,-138.19892,40.809487)"
               d="m 56.391766,82.480003 a 14.672467,9.2807773 0 1 1 -29.344933,0 14.672467,9.2807773 0 1 1 29.344933,0 z" />
            <path
               inkscape:connector-curvature="0"
               style="fill:url(#radialGradient3108);fill-opacity:1;stroke:none"
               id="path3278"
               transform="matrix(1.0233043,-0.24105639,0.24105639,1.0233043,-96.754882,53.447131)"
               d="m 56.391766,82.480003 a 14.672467,9.2807773 0 1 1 -29.344933,0 14.672467,9.2807773 0 1 1 29.344933,0 z" />
            <path
               style="fill:none;stroke:url(#radialGradient3110);stroke-width:3.12765646;stroke-linecap:butt;stroke-linejoin:miter;stroke-miterlimit:4;stroke-opacity:1;stroke-dasharray:none"
               id="path3282"
               inkscape:connector-curvature="0"
               d="m -61.35495,88.196416 0,-33.510614 24.18021,3.942425" />
            <path
               style="fill:none;stroke:url(#radialGradient3112);stroke-width:4.93222046;stroke-linecap:butt;stroke-linejoin:miter;stroke-miterlimit:4;stroke-opacity:1;stroke-dasharray:none"
               id="path3292"
               inkscape:connector-curvature="0"
               d="m -19.212614,107.89627 0,-42.617148" />
          </g>
        </g>
      </g>
    </g>
  </g>
</svg>
