<?xml version="1.0" encoding="UTF-8" standalone="no"?>
<!-- Created with Inkscape (http://www.inkscape.org/) -->
<svg id="svg6307" xmlns:rdf="http://www.w3.org/1999/02/22-rdf-syntax-ns#" xmlns="http://www.w3.org/2000/svg" height="96" width="96" version="1.1" xmlns:cc="http://creativecommons.org/ns#" xmlns:xlink="http://www.w3.org/1999/xlink" xmlns:dc="http://purl.org/dc/elements/1.1/">
 <defs id="defs6309">
  <filter id="filter6279-2" color-interpolation-filters="sRGB">
   <feGaussianBlur id="feGaussianBlur6281-1" stdDeviation="0.8"/>
  </filter>
  <linearGradient id="linearGradient8717" y2="138.66" gradientUnits="userSpaceOnUse" y1="20.221" x2="48" x1="48">
   <stop id="stop3739-40" style="stop-color:#fff" offset="0"/>
   <stop id="stop3741-04-2" style="stop-color:#fff;stop-opacity:0" offset="1"/>
  </linearGradient>
  <clipPath id="clipPath3613-62">
   <rect id="rect3615-67" style="fill:#fff" rx="6" ry="6" height="84" width="84" y="6" x="6"/>
  </clipPath>
  <filter id="filter3794-5-1" width="1.384" y="-.192" x="-.192" height="1.384" color-interpolation-filters="sRGB">
   <feGaussianBlur id="feGaussianBlur3796-69" stdDeviation="5.28"/>
  </filter>
  <linearGradient id="linearGradient8319" x1="8" xlink:href="#linearGradient4370-8" gradientUnits="userSpaceOnUse" x2="8" y1="38.127" y2="71.877"/>
  <linearGradient id="linearGradient4370-8">
   <stop id="stop4372" style="stop-color:#8a5b30" offset="0"/>
   <stop id="stop4374" style="stop-color:#8a5b30;stop-opacity:0" offset="1"/>
  </linearGradient>
  <linearGradient id="linearGradient8321" y2="39.853" gradientUnits="userSpaceOnUse" y1="90" x2="54.187" x1="54.187">
   <stop id="stop4291" style="stop-color:#996c3b" offset="0"/>
   <stop id="stop4293" style="stop-color:#c19e6d" offset="1"/>
  </linearGradient>
  <radialGradient id="radialGradient8323" gradientUnits="userSpaceOnUse" cy="73.146" cx="48" gradientTransform="matrix(.86776 0 0 .095238 6.3473 36.19)" r="42">
   <stop id="stop4428-3" style="stop-color:#71461e" offset="0"/>
   <stop id="stop4430-1" style="stop-color:#71461e;stop-opacity:0" offset="1"/>
  </radialGradient>
  <linearGradient id="linearGradient8325" x1="8" xlink:href="#linearGradient4370-8" gradientUnits="userSpaceOnUse" y1="38.127" gradientTransform="matrix(-1,0,0,1,96,0)" x2="8" y2="87.03"/>
  <linearGradient id="linearGradient8327" x1="10" xlink:href="#linearGradient3737-33" gradientUnits="userSpaceOnUse" y1="40.263" gradientTransform="matrix(-1,0,0,1,96,0)" x2="10" y2="89.666"/>
  <linearGradient id="linearGradient3737-33">
   <stop id="stop3739-86" style="stop-color:#fff" offset="0"/>
   <stop id="stop3741-04" style="stop-color:#fff;stop-opacity:0" offset="1"/>
  </linearGradient>
  <linearGradient id="linearGradient8329" x1="10" xlink:href="#linearGradient3737-33" gradientUnits="userSpaceOnUse" x2="10" y1="40.263" y2="89.666"/>
  <linearGradient id="linearGradient8331" y2="9.4099" gradientUnits="userSpaceOnUse" y1="32.783" x2="6.5963" x1="47.079">
   <stop id="stop5094" style="stop-color:#be9f6a" offset="0"/>
   <stop id="stop5096" style="stop-color:#e5d2b2" offset="1"/>
  </linearGradient>
  <filter id="filter4362" width="1.6231" y="-.42628" x="-.31156" height="1.8526" color-interpolation-filters="sRGB">
   <feGaussianBlur id="feGaussianBlur4364" stdDeviation="6.2124381"/>
  </filter>
  <linearGradient id="linearGradient8333" x1="48" xlink:href="#linearGradient4295" gradientUnits="userSpaceOnUse" x2="6.7813" y1="42" y2="18.202"/>
  <linearGradient id="linearGradient4295">
   <stop id="stop4297-7" style="stop-color:#b88f56" offset="0"/>
   <stop id="stop4299" style="stop-color:#d9bd98" offset="1"/>
  </linearGradient>
  <linearGradient id="linearGradient8335" x1="47.227" xlink:href="#linearGradient4295" gradientUnits="userSpaceOnUse" y1="29.04" gradientTransform="matrix(-1,0,0,1,96,0)" x2="6.3304" y2="18.082"/>
  <linearGradient id="linearGradient8337" x1="23.143" xlink:href="#linearGradient3737-33" gradientUnits="userSpaceOnUse" x2="66.964" y1="42" y2="6"/>
  <linearGradient id="linearGradient8339" x1="8.9651" xlink:href="#linearGradient4414-2" gradientUnits="userSpaceOnUse" x2="8.9651" y1="44.04" y2="52.263"/>
  <linearGradient id="linearGradient4414-2">
   <stop id="stop4416-5" style="stop-color:#dac3a2" offset="0"/>
   <stop id="stop4418-4" style="stop-color:#dac3a2;stop-opacity:0" offset="1"/>
  </linearGradient>
  <linearGradient id="linearGradient8341" x1="8.9651" xlink:href="#linearGradient4414-2" gradientUnits="userSpaceOnUse" y1="44.04" gradientTransform="matrix(-1 0 0 1 96.087 0)" x2="8.9651" y2="52.263"/>
  <radialGradient id="radialGradient8343" gradientUnits="userSpaceOnUse" cy="90.172" cx="48" gradientTransform="matrix(1.1573 0 0 .99591 -7.551 .19713)" r="42">
   <stop id="stop3739-1-2" style="stop-color:#fff" offset="0"/>
   <stop id="stop3741-8-2" style="stop-color:#fff;stop-opacity:0" offset="1"/>
  </radialGradient>
  <linearGradient id="linearGradient8345" x1="48.401" xlink:href="#linearGradient3928" gradientUnits="userSpaceOnUse" x2="48.401" y1="61.991" y2="4.6666"/>
  <linearGradient id="linearGradient3928">
   <stop id="stop3930" style="stop-color:#3a240f" offset="0"/>
   <stop id="stop3932" style="stop-color:#3a240f;stop-opacity:0" offset="1"/>
  </linearGradient>
  <linearGradient id="linearGradient8347" x1="46.796" xlink:href="#linearGradient3928" gradientUnits="userSpaceOnUse" x2="46.796" y1="60.307" y2="6.0179"/>
  <linearGradient id="linearGradient8349" x1="50.499" gradientUnits="userSpaceOnUse" y1="19.882" gradientTransform="matrix(1.0201 0 0 1.0201 -5.2982 5.7562)" x2="50.499" y2="47.295">
   <stop id="stop4311-0" style="stop-color:#d8cab2" offset="0"/>
   <stop id="stop4321-6" style="stop-color:#d2b98c" offset=".45711"/>
   <stop id="stop4323-2" style="stop-color:#f9f7ef" offset=".4859"/>
   <stop id="stop4325-6" style="stop-color:#fff" offset=".4911"/>
   <stop id="stop4327-6" style="stop-color:#fbf9f4" offset=".4918"/>
   <stop id="stop4329-8" style="stop-color:#efe7d0" offset=".4946"/>
   <stop id="stop4331-3" style="stop-color:#e4d6b0" offset=".4977"/>
   <stop id="stop4333-3" style="stop-color:#dac894" offset=".5011"/>
   <stop id="stop4335-4" style="stop-color:#c7a572" offset=".5049"/>
   <stop id="stop4347-8" style="stop-color:#d7c198" offset="1"/>
  </linearGradient>
  <linearGradient id="linearGradient3341" x1="20.759" gradientUnits="userSpaceOnUse" y1="1" gradientTransform="matrix(.83721 0 0 .83721 47.907 54.744)" x2="20.759" y2="45.017">
   <stop id="stop3311-7" style="stop-color:#f0f0f0" offset="0"/>
   <stop id="stop3313-7" style="stop-color:#aaa" offset="1"/>
  </linearGradient>
  <clipPath id="clipPath3770">
   <path id="path3772" style="display:block;fill:url(#linearGradient3774)" d="m30.916 135.97c-0.93726 0.54113-1.2283 1.7475-0.67792 2.7008l1.9375 3.3558c-1.4181 1.4141-2.6223 3.012-3.5955 4.71l-3.7836-0.99094c-0.53163-0.14245-1.0379-0.11751-1.4762 0.13061-0.43816 0.24835-0.79654 0.66758-0.9366 1.1903l-1.9788 7.3851c-0.2801 1.0454 0.36595 2.0654 1.4291 2.3503l3.7722 1.0336c-0.0062 1.9571 0.23771 3.943 0.75875 5.8767l-3.3558 1.9375c-0.95328 0.55038-1.3044 1.7407-0.7633 2.6779l3.8125 6.6034c0.54113 0.93726 1.7475 1.2283 2.7008 0.67792l3.3558-1.9375c1.4141 1.4181 3.012 2.6223 4.71 3.5954l-0.99094 3.7836c-0.2849 1.0632 0.27544 2.1327 1.3209 2.4128l7.3851 1.9788c1.0454 0.28012 2.0654-0.36588 2.3503-1.4291l1.0336-3.7722c1.9571 0.006 3.943-0.2377 5.8767-0.75875l1.9375 3.3558c0.55038 0.95327 1.7407 1.3044 2.6779 0.7633l6.6034-3.8125c0.93726-0.54113 1.2283-1.7475 0.67792-2.7008l-1.9375-3.3558c1.4181-1.4141 2.6223-3.012 3.5955-4.71l3.7836 0.99095c1.0632 0.28489 2.1327-0.2755 2.4128-1.3209l1.9788-7.3851c0.2801-1.0454-0.36595-2.0654-1.4291-2.3503l-3.7722-1.0336c0.0062-1.9571-0.2377-3.943-0.75876-5.8767l3.3558-1.9375c0.95327-0.55037 1.3044-1.7407 0.7633-2.6779l-3.8125-6.6034c-0.54113-0.93727-1.7475-1.2283-2.7008-0.67793l-3.3558 1.9375c-1.4141-1.4181-3.012-2.6223-4.71-3.5954l0.99094-3.7836c0.2849-1.0632-0.27542-2.1328-1.3209-2.4128l-7.3851-1.9788c-1.0454-0.28011-2.0654 0.36588-2.3503 1.4291l-1.0336 3.7722c-1.9571-0.006-3.943 0.23771-5.8767 0.75876l-1.9375-3.3558c-0.55038-0.95329-1.7407-1.3044-2.6779-0.7633l-6.6034 3.8125zm13.052 14.981c3.8263-2.2091 8.7191-0.89814 10.928 2.9282 2.2091 3.8263 0.89814 8.7191-2.9282 10.928-3.8263 2.2091-8.7191 0.89814-10.928-2.9282-2.2091-3.8264-0.89814-8.7191 2.9282-10.928z"/>
  </clipPath>
  <linearGradient id="linearGradient3271" x1="48.234" xlink:href="#linearGradient4071-3" gradientUnits="userSpaceOnUse" x2="126.14" y1="48.047" y2="66.233"/>
  <linearGradient id="linearGradient4071-3">
   <stop id="stop4073-8" offset="0"/>
   <stop id="stop4075-4" style="stop-opacity:0" offset="1"/>
  </linearGradient>
  <linearGradient id="linearGradient3273-64" x1="48.055" xlink:href="#linearGradient4071-3" gradientUnits="userSpaceOnUse" x2="126.67" y1="48.032" y2="62.839"/>
  <linearGradient id="linearGradient3275-3" x1="47.997" xlink:href="#linearGradient4071-3" gradientUnits="userSpaceOnUse" x2="127.05" y1="48.029" y2="60.29"/>
  <linearGradient id="linearGradient3277-2" x1="47.998" xlink:href="#linearGradient4071-3" gradientUnits="userSpaceOnUse" x2="127.42" y1="48.029" y2="57.665"/>
  <linearGradient id="linearGradient3279" x1="48.234" xlink:href="#linearGradient3737-33" gradientUnits="userSpaceOnUse" x2="126.14" y1="48.047" y2="66.233"/>
  <linearGradient id="linearGradient3281-4" x1="48.055" xlink:href="#linearGradient3737-33" gradientUnits="userSpaceOnUse" x2="126.67" y1="48.032" y2="62.839"/>
  <linearGradient id="linearGradient3283-5" x1="47.997" xlink:href="#linearGradient3737-33" gradientUnits="userSpaceOnUse" x2="127.05" y1="48.029" y2="60.29"/>
  <linearGradient id="linearGradient3286" x1="47.998" xlink:href="#linearGradient3737-33" gradientUnits="userSpaceOnUse" x2="127.42" y1="48.029" y2="57.665"/>
 </defs>
 <metadata id="metadata6312">
  <rdf:RDF>
   <cc:Work rdf:about="">
    <dc:format>image/svg+xml</dc:format>
    <dc:type rdf:resource="http://purl.org/dc/dcmitype/StillImage"/>
    <dc:title/>
   </cc:Work>
  </rdf:RDF>
 </metadata>
 <g id="layer1" transform="translate(0 -956.36)">
  <g id="g9755">
   <rect id="rect9283" ry="5" style="filter:url(#filter6279-2)" rx="5" transform="translate(0 -.0000078516)" height="80" width="80" y="964.36" x="8"/>
   <g id="layer5" transform="translate(0 956.36)">
    <rect id="rect3171" style="opacity:.1;filter:url(#filter3794-5-1);stroke:#fff;stroke-linecap:round;stroke-width:.5;fill:url(#linearGradient8717)" clip-path="url(#clipPath3613-62)" rx="12" ry="12" height="66" width="66" y="15" x="15"/>
   </g>
   <rect id="rect9285" style="fill:#825023" rx="5" ry="5" height="80" width="80" y="964.36" x="8"/>
   <g id="g26594" transform="translate(-182.19 -40.406)">
    <g id="layer1-7" transform="matrix(.65476 0 0 .65476 198.76 1013.8)">
     <path id="rect5138" style="fill:url(#linearGradient8319)" d="m6 36v48c0 1.7818 0.77457 3.3717 2 4.4688v-52.469h-2z"/>
     <rect id="rect2419" style="fill:url(#linearGradient8321)" rx="6" ry="6" height="84" width="84" y="6" x="6"/>
     <path id="path3287" style="fill:url(#radialGradient8323)" d="m6 36v2c0 3.324 2.676 6 6 6h72c3.324 0 6-2.676 6-6v-2c0 3.324-2.676 6-6 6h-72c-3.324 0-6-2.676-6-6z"/>
     <path id="path4396" style="fill:url(#linearGradient8325)" d="m90 36v48c0 1.7818-0.77457 3.3717-2 4.4688v-52.469h2z"/>
     <rect id="rect2483" style="fill:#3c2510" rx="6" ry="6" height="24" width="84" y="18" x="6"/>
     <path id="path4398" style="opacity:.3;fill:url(#linearGradient8327)" d="m88 36v52.469c-0.57686 0.51642-1.2549 0.92309-2 1.1875v-53.656h2z"/>
     <path id="path4378" style="opacity:.3;fill:url(#linearGradient8329)" d="m8 36v52.469c0.57686 0.51642 1.2549 0.92309 2 1.1875v-53.656h-2z"/>
     <path id="path5055" style="fill:url(#linearGradient8331)" d="m12 6c-3.2266 0-6 2.2593-6 7v22.656l42 0.035v-29.691h-36z"/>
     <rect id="rect4356" style="opacity:.3;filter:url(#filter4362);fill:#dac7a8" rx="6" transform="matrix(1 0 0 .85560 10 8.5841)" ry="6" width="47.856" y="41.957" x="12.753" height="34.977"/>
     <path id="rect2481" style="fill:url(#linearGradient8333)" d="m12 6c-3.324 0-6 2.676-6 6v24c0 3.324 2.676 6 6 6l36-2v-36l-36 2z"/>
     <path id="path3262" style="fill:url(#linearGradient8335)" d="m84 6c3.324 0 6 2.676 6 6v24c0 3.324-2.676 6-6 6l-36-2v-36l36 2z"/>
     <path id="rect3266" style="opacity:.3;fill:url(#linearGradient8337)" d="m12 6c-3.324 0-6 2.676-6 6v24c0 3.324 2.676 6 6 6l36-2 36 2c3.324 0 6-2.676 6-6v-24c0-3.324-2.676-6-6-6l-36-2-36 2zm0 2 36-2 36 2c2.2458 0 4 1.7542 4 4v24c0 2.2458-1.7542 4-4 4l-36-2-36 2c-2.2458 0-4-1.754-4-4v-24c0-2.2458 1.7542-4 4-4z"/>
     <path id="path4404" style="fill:url(#linearGradient8339);fill-rule:evenodd" d="m6.1872 37.285c2.3991 5.5558 1.894 16.036 1.894 16.036l1.8309-0.252c-0.2525-8.208 0.4419-11.238 4.9879-11.365-7.1692-1.195-8.7128-4.419-8.7128-4.419z"/>
     <path id="path4422" style="fill:url(#linearGradient8341);fill-rule:evenodd" d="m89.9 37.285c-2.3991 5.5558-1.894 16.036-1.894 16.036l-1.831-0.252c0.252-8.208-0.442-11.238-4.988-11.365 7.169-1.195 8.713-4.419 8.713-4.419z"/>
     <path id="path3615" style="opacity:.2;fill:url(#radialGradient8343)" d="m12 90c-3.324 0-6-2.676-6-6v-72c0-0.33472 0.04135-0.6507 0.09375-0.96875 0.0487-0.2956 0.09704-0.59692 0.1875-0.875 0.0099-0.03 0.0209-0.063 0.0313-0.094 0.0989-0.2873 0.2349-0.547 0.375-0.812 0.1446-0.2735 0.3156-0.5356 0.5-0.7812 0.1844-0.2457 0.3738-0.4735 0.5937-0.6876 0.44-0.428 0.943-0.8145 1.5-1.0937 0.2786-0.1396 0.5735-0.2469 0.8748-0.3437-0.256 0.1002-0.4865 0.2362-0.7185 0.375-0.00741 0.0044-0.023866-0.0045-0.03125 0-0.031933 0.0193-0.062293 0.04251-0.09375 0.0625-0.1204 0.0767-0.23102 0.16351-0.34375 0.25-0.10617 0.0808-0.21328 0.16111-0.3125 0.25-0.1779 0.1614-0.3474 0.3453-0.5 0.5312-0.1075 0.1303-0.2183 0.2653-0.3124 0.4063-0.0251 0.0383-0.0385 0.0858-0.0626 0.125-0.0647 0.103-0.1302 0.2045-0.1874 0.3124-0.1011 0.1948-0.2057 0.4158-0.2813 0.625-0.008 0.0219-0.0236 0.0406-0.0313 0.0626-0.0318 0.0919-0.0358 0.1868-0.0624 0.2812-0.0304 0.1066-0.0704 0.203-0.0938 0.3125-0.0729 0.3415-0.125 0.6985-0.125 1.0625v72c0 2.7818 2.2182 5 5 5h72c2.7818 0 5-2.2182 5-5v-72c0-0.364-0.052-0.721-0.125-1.0625-0.044-0.2069-0.088-0.3977-0.156-0.5937-0.008-0.022-0.024-0.0407-0.031-0.0626-0.063-0.1737-0.139-0.3674-0.219-0.5312-0.042-0.0828-0.079-0.17-0.125-0.25-0.055-0.0972-0.127-0.1884-0.188-0.2812-0.094-0.141-0.205-0.276-0.312-0.4063-0.143-0.1745-0.303-0.347-0.469-0.5-0.011-0.0102-0.02-0.0211-0.031-0.0313-0.139-0.1255-0.285-0.2344-0.438-0.3437-0.102-0.0731-0.204-0.1534-0.312-0.2187-0.0074-0.0045-0.02384 0.0044-0.03125 0-0.23204-0.13873-0.46255-0.27478-0.71875-0.375 0.30153 0.0968 0.59646 0.20414 0.875 0.34375 0.55709 0.27922 1.0601 0.66569 1.5 1.0938 0.21997 0.21403 0.40937 0.44186 0.59375 0.6875s0.35541 0.50774 0.5 0.78125c0.14012 0.26505 0.27614 0.52473 0.375 0.8125 0.01041 0.03078 0.02133 0.06274 0.03125 0.09375 0.09046 0.27808 0.1388 0.5794 0.1875 0.875 0.053 0.318 0.094 0.634 0.094 0.969v72c0 3.324-2.676 6-6 6h-72z"/>
     <path id="path5008" style="opacity:.5;fill:#3a240f" d="m54.12 7h-12.12l0.06 24.062 0.135 28.938 5.687-0.495 6.044-0.525 0.032-5.551 0.102-22.367 0.06-24.062z"/>
     <path id="path3926" style="opacity:.1;fill:url(#linearGradient8345)" d="m41.688 5.125c0.0042-0.0007112-0.19165 0.032337-0.1875 0.03125 0.0042-0.00109-0.16029 0.063954-0.15625 0.0625 0.004-0.00145-0.16014 0.064309-0.15625 0.0625 0.0039-0.00181-0.12871 0.06465-0.125 0.0625 0.0037-0.00215-0.15976 0.096223-0.15625 0.09375 0.0035-0.00247-0.12827 0.12778-0.125 0.125 0.0033-0.00278-0.12801 0.096809-0.125 0.09375 0.003-0.00306-0.12772 0.12832-0.125 0.125 0.0027-0.00332-0.09617 0.1598-0.09375 0.15625 0.0024-0.00355-0.09584 0.12875-0.09375 0.125 0.0021-0.00375-0.06424 0.16017-0.0625 0.15625 0.0017-0.00392-0.06389 0.16031-0.0625 0.15625 0.0014-0.00406-0.03227 0.16042-0.03125 0.15625 0.001-0.00417-0.06314 0.16049-0.0625 0.15625 0.000642-0.00424-0.00026 0.19178 0 0.1875 0.000208-0.00343 0.000769 0.08233 0 0.125v0.03125l0.062 24.031 0.124 28.938a1.0058 1.0058 0 0 0 0 0.03125c-0.000042-0.0025 0.000168 0.0962 0 0.09375-0.000168-0.0025 0.000294 0.09619 0 0.09375-0.000294-0.0024 0.03167 0.09617 0.03125 0.09375-0.000419-0.0024 0.000542 0.09615 0 0.09375s0.03191 0.09611 0.03125 0.09375c-0.000664-0.0024 0.03204 0.09608 0.03125 0.09375-0.000785-0.0023 0.03215 0.06479 0.03125 0.0625-0.000903-0.0023 0.03227 0.09599 0.03125 0.09375-0.001-0.0022 0.06363 0.09593 0.0625 0.09375-0.0011-0.0022 0.03249 0.09587 0.03125 0.09375-0.0012-0.0021 0.06385 0.06455 0.0625 0.0625-0.0014-0.0021 0.0327 0.09573 0.03125 0.09375-0.0015-0.002 0.06405 0.0644 0.0625 0.0625-0.0016-0.0019 0.06415 0.09557 0.0625 0.09375-0.0016-0.0018 0.06424 0.06423 0.0625 0.0625-0.0017-0.0017 0.09558 0.06414 0.09375 0.0625-0.0018-0.0016 0.06441 0.06405 0.0625 0.0625-0.0019-0.0015 0.06448 0.06395 0.0625 0.0625-0.002-0.0014 0.09581 0.06384 0.09375 0.0625-0.0021-0.0013 0.06462 0.03249 0.0625 0.03125-0.0021-0.0012 0.09593 0.06363 0.09375 0.0625-0.0022-0.0011 0.09599 0.03226 0.09375 0.03125-0.0022-0.001 0.09604 0.03215 0.09375 0.03125-0.0023-0.000897 0.09608 0.03203 0.09375 0.03125-0.0023-0.000779 0.09612 0.03191 0.09375 0.03125-0.0024-0.000658 0.09615 0.03179 0.09375 0.03125-0.0024-0.000536 0.09617 0.000412 0.09375 0-0.0024-0.000412 0.09619 0.03154 0.09375 0.03125-0.0024-0.000288 0.0962 0.000162 0.09375 0-0.0025-0.000162 0.09621 0.000036 0.09375 0-0.0025-0.000036 0.0962-0.00009 0.09375 0-0.0025 0.00009 0.0962-0.000216 0.09375 0l5.6875-0.5 6.0312-0.53125c-0.000893 0.000051 0.02019 0.0012 0.03125 0 0.04424-0.0047 0.12854-0.000537 0.125 0-0.0044 0.000671 0.19184-0.06358 0.1875-0.0625-0.0043 0.0011 0.16047-0.03273 0.15625-0.03125-0.0042 0.0015 0.16031-0.06437 0.15625-0.0625-0.0041 0.0019 0.16012-0.09599 0.15625-0.09375-0.0039 0.0022 0.1599-0.09634 0.15625-0.09375-0.0036 0.0026 0.12839-0.09667 0.125-0.09375-0.0034 0.0029 0.1281-0.12822 0.125-0.125-0.0031 0.0032 0.12779-0.1285 0.125-0.125-0.0028 0.0035 0.0962-0.15999 0.09375-0.15625-0.0025 0.0037 0.09584-0.1602 0.09375-0.15625-0.0021 0.004 0.09546-0.16038 0.09375-0.15625-0.0017 0.0041 0.06382-0.16052 0.0625-0.15625-0.0013 0.0043 0.03217-0.16063 0.03125-0.15625-0.000916 0.0044 0.03175-0.19194 0.03125-0.1875-0.000504 0.0044 0.000087-0.16072 0-0.15625a1.0058 1.0058 0 0 0 0 -0.03125l0.031-5.531 0.094-22.376 0.062-24.062c-0.000073 0.00479-0.000406-0.16103 0-0.15625s-0.03213-0.19221-0.03125-0.1875c0.000881 0.00471-0.0326-0.1921-0.03125-0.1875 0.0013 0.0046-0.0643-0.19194-0.0625-0.1875s-0.09599-0.16049-0.09375-0.15625c0.0022 0.00424-0.0964-0.16025-0.09375-0.15625 0.0026 0.004-0.09678-0.15996-0.09375-0.15625 0.003 0.00371-0.12839-0.15964-0.125-0.15625 0.0034 0.00339-0.15996-0.12803-0.15625-0.125 0.004 0.0029-0.16-0.0965-0.156-0.0939 0.004 0.0027-0.16-0.096-0.156-0.0937 0.004 0.0022-0.161-0.0956-0.156-0.0938 0.0044 0.0018-0.1921-0.063848-0.1875-0.0625 0.0046 0.00135-0.19221-0.032132-0.1875-0.03125 0.0047 0.0008815-0.19228-0.031656-0.1875-0.03125 0.0048 0.0004063-0.16104 0.000073-0.15625 0h-12.031c0.0026 0.0002364-0.04386 0.00229-0.09375 0-0.03326-0.00153-0.06424 0-0.0625 0 0.0043 0-0.19183 0.000394-0.1875 0a1.0058 1.0058 0 0 0 -0.0625 0z"/>
     <path id="path3922" style="opacity:.2;fill:url(#linearGradient8347)" d="m42 6.125a0.86198 0.86198 0 0 0 -0.875 0.875l0.063 24.062 0.124 28.938a0.86198 0.86198 0 0 0 0.9375 0.84375l5.6875-0.5 6.062-0.532a0.86198 0.86198 0 0 0 0.8125 -0.84375l0.032-5.53 0.094-22.376 0.062-24.062a0.86198 0.86198 0 0 0 -0.875 -0.875h-12.125z"/>
     <path id="polygon120" style="fill:url(#linearGradient8349)" d="m54.06 4.3687-6.06-0.442-6.06 0.442 0.06 25.693 0.135 28.938l5.6868-0.49473 6.0439-0.52533 0.03264-5.5512 0.10201-22.367 0.06018-25.694z"/>
     <rect id="rect4363" style="opacity:.2;fill:#8d6137" height="35.714" width="1" y="4.125" x="47"/>
     <rect id="rect4365" style="opacity:.2;fill:#fff" height="35.714" width="1" y="4.125" x="48"/>
    </g>
   </g>
   <g id="g3346" transform="translate(-20 930.36)">
    <path id="rect3267" style="display:block;fill:url(#linearGradient3341)" d="m65.505 56c-0.70838 0-1.2682 0.5886-1.2682 1.3091v2.5364c-1.2666 0.33748-2.4722 0.84915-3.5795 1.4932l-1.8205-1.8c-0.25473-0.25473-0.54989-0.4063-0.87954-0.40909-0.32965-0.0028-0.67001 0.11773-0.92046 0.36818l-3.5386 3.5386c-0.5009 0.5009-0.46851 1.2905 0.0409 1.8l1.8 1.8205c-0.64403 1.1074-1.1557 2.3129-1.4932 3.5795h-2.5364c-0.72049 0-1.3091 0.5598-1.3091 1.2682v4.9909c0 0.70838 0.5886 1.2682 1.3091 1.2682h2.5364c0.33749 1.2666 0.84916 2.4722 1.4932 3.5795l-1.8 1.8205c-0.50947 0.50946-0.54186 1.2991-0.0409 1.8l3.5386 3.5386c0.5009 0.5009 1.2905 0.46856 1.8-0.04091l1.8205-1.8c1.1074 0.64403 2.3129 1.1557 3.5795 1.4932v2.5364c-0.002 0.722 0.558 1.311 1.267 1.311h4.9909c0.70838 0 1.2682-0.5886 1.2682-1.3091v-2.5364c1.2666-0.33748 2.4722-0.84915 3.5796-1.4932l1.8204 1.8c0.50947 0.50947 1.2991 0.54181 1.8 0.04091l3.5386-3.5386c0.5009-0.5009 0.4685-1.2905-0.0409-1.8l-1.8-1.8205c0.64403-1.1074 1.1557-2.3129 1.4932-3.5795h2.5364c0.72048 0 1.3091-0.5598 1.3091-1.2682v-4.9909c0-0.70838-0.58861-1.2682-1.3091-1.2682h-2.5364c-0.338-1.267-0.85-2.473-1.494-3.58l1.8-1.8205c0.50947-0.50947 0.54187-1.2991 0.0409-1.8l-3.538-3.538c-0.5009-0.5009-1.2905-0.46856-1.8 0.04091l-1.8204 1.8c-1.1074-0.64403-2.3129-1.1557-3.5796-1.4932v-2.5364c0-0.72049-0.5598-1.3091-1.2682-1.3091h-4.9909zm2.495 12.764c2.892 0 5.2364 2.3444 5.2364 5.2364s-2.3444 5.2364-5.2364 5.2364-5.2364-2.3444-5.2364-5.2364 2.3444-5.2364 5.2364-5.2364z"/>
    <g id="g4176" clip-path="url(#clipPath3770)" transform="matrix(.56685 .32727 -.32727 .56685 92.479 -31.194)">
     <g id="g4011" style="opacity:.9" transform="matrix(.14137 .99272 -1.1652 .12045 96.937 104.81)">
      <path id="path4009" style="opacity:.05;color:#000000;fill:url(#linearGradient3271)" transform="matrix(.99411 -.10837 .10837 .99411 -5.1582 5.4919)" d="m108.9 48a60.896 60.896 0 0 1 -6.5462 27.467l-54.35-27.467z"/>
      <path id="path4007" style="opacity:.07;color:#000000;fill:url(#linearGradient3273-64)" transform="matrix(.99786 -.065374 .065374 .99786 -3.094 3.2416)" d="m108.9 48a60.896 60.896 0 0 1 -4.4572 22.869l-56.44-22.869z"/>
      <path id="path4005" style="opacity:.1;color:#000000;fill:url(#linearGradient3275-3)" transform="matrix(.99945 -.033121 .033121 .99945 -1.5635 1.6161)" d="m108.9 48a60.896 60.896 0 0 1 -3.1299 19.272l-57.77-19.272z"/>
      <path id="path4003" style="opacity:.05;color:#000000;fill:url(#linearGradient3277-2)" d="m108.9 48a60.896 60.896 0 0 1 -2.075 15.761l-58.82-15.761z"/>
     </g>
     <g id="g4027" style="opacity:.9;fill:#fff" transform="matrix(1.0628 -.13088 -.74010 3.2275 32.525 9.3323)">
      <path id="path4029" style="opacity:.2;color:#000000;fill:url(#linearGradient3279)" transform="matrix(.99411 -.10837 .10837 .99411 -5.1582 5.4919)" d="m108.9 48a60.896 60.896 0 0 1 -6.5462 27.467l-54.35-27.467z"/>
      <path id="path4031-1" style="opacity:.4;color:#000000;fill:url(#linearGradient3281-4)" transform="matrix(.99786 -.065374 .065374 .99786 -3.094 3.2416)" d="m108.9 48a60.896 60.896 0 0 1 -4.4572 22.869l-56.44-22.869z"/>
      <path id="path4033" style="opacity:.6;color:#000000;fill:url(#linearGradient3283-5)" transform="matrix(.99945 -.033121 .033121 .99945 -1.5635 1.6161)" d="m108.9 48a60.896 60.896 0 0 1 -3.1299 19.272l-57.77-19.272z"/>
      <path id="path4035" style="opacity:.8;color:#000000;fill:url(#linearGradient3286)" d="m108.9 48a60.896 60.896 0 0 1 -2.075 15.761l-58.82-15.761z"/>
     </g>
     <g id="g4079" style="opacity:.5" transform="matrix(-.61679 .78713 -.78713 -.61679 115 150.01)">
      <path id="path4081" style="opacity:.05;color:#000000;fill:url(#linearGradient3271)" transform="matrix(.99411 -.10837 .10837 .99411 -5.1582 5.4919)" d="m108.9 48a60.896 60.896 0 0 1 -6.5462 27.467l-54.35-27.467z"/>
      <path id="path4083" style="opacity:.07;color:#000000;fill:url(#linearGradient3273-64)" transform="matrix(.99786 -.065374 .065374 .99786 -3.094 3.2416)" d="m108.9 48a60.896 60.896 0 0 1 -4.4572 22.869l-56.44-22.869z"/>
      <path id="path4085" style="opacity:.1;color:#000000;fill:url(#linearGradient3275-3)" transform="matrix(.99945 -.033121 .033121 .99945 -1.5635 1.6161)" d="m108.9 48a60.896 60.896 0 0 1 -3.1299 19.272l-57.77-19.272z"/>
      <path id="path4087" style="opacity:.1;color:#000000;fill:url(#linearGradient3277-2)" d="m108.9 48a60.896 60.896 0 0 1 -2.075 15.761l-58.82-15.761z"/>
     </g>
     <g id="g4097" style="opacity:.8" transform="matrix(-.068172 -1.046 2.7107 .60163 -79.095 179.08)">
      <path id="path4099" style="opacity:.05;color:#000000;fill:url(#linearGradient3271)" transform="matrix(.99411 -.10837 .10837 .99411 -5.1582 5.4919)" d="m108.9 48a60.896 60.896 0 0 1 -6.5462 27.467l-54.35-27.467z"/>
      <path id="path4101" style="opacity:.07;color:#000000;fill:url(#linearGradient3273-64)" transform="matrix(.99786 -.065374 .065374 .99786 -3.094 3.2416)" d="m108.9 48a60.896 60.896 0 0 1 -4.4572 22.869l-56.44-22.869z"/>
      <path id="path4103" style="opacity:.1;color:#000000;fill:url(#linearGradient3275-3)" transform="matrix(.99945 -.033121 .033121 .99945 -1.5635 1.6161)" d="m108.9 48a60.896 60.896 0 0 1 -3.1299 19.272l-57.77-19.272z"/>
      <path id="path4105" style="opacity:.1;color:#000000;fill:url(#linearGradient3277-2)" d="m108.9 48a60.896 60.896 0 0 1 -2.075 15.761l-58.82-15.761z"/>
     </g>
     <g id="g4147" style="opacity:.9;fill:#fff" transform="matrix(-1.0628 .13088 .74010 -3.2275 62.997 306.67)">
      <path id="path4149" style="opacity:.2;color:#000000;fill:url(#linearGradient3279)" transform="matrix(.99411 -.10837 .10837 .99411 -5.1582 5.4919)" d="m108.9 48a60.896 60.896 0 0 1 -6.5462 27.467l-54.35-27.467z"/>
      <path id="path4151" style="opacity:.4;color:#000000;fill:url(#linearGradient3281-4)" transform="matrix(.99786 -.065374 .065374 .99786 -3.094 3.2416)" d="m108.9 48a60.896 60.896 0 0 1 -4.4572 22.869l-56.44-22.869z"/>
      <path id="path4153" style="opacity:.6;color:#000000;fill:url(#linearGradient3283-5)" transform="matrix(.99945 -.033121 .033121 .99945 -1.5635 1.6161)" d="m108.9 48a60.896 60.896 0 0 1 -3.1299 19.272l-57.77-19.272z"/>
      <path id="path4155" style="opacity:.8;color:#000000;fill:url(#linearGradient3286)" d="m108.9 48a60.896 60.896 0 0 1 -2.075 15.761l-58.82-15.761z"/>
     </g>
    </g>
    <path id="path4405" style="display:block;fill:url(#linearGradient4407)" d="m65.505 56c-0.70838-0.000001-1.2682 0.5886-1.2682 1.3091v2.5364c-1.2666 0.33748-2.4722 0.84915-3.5795 1.4932l-1.8205-1.8c-0.25473-0.25474-0.54989-0.4063-0.87954-0.40909-0.32965-0.0026-0.67 0.11773-0.92046 0.36818l-3.5386 3.5386c-0.5009 0.50091-0.4685 1.2905 0.0409 1.8l1.8 1.8205c-0.64403 1.1074-1.1557 2.3129-1.4932 3.5796h-2.5364c-0.72049-0.000004-1.3091 0.55979-1.3091 1.2682v4.9909c0 0.70839 0.5886 1.2682 1.3091 1.2682h2.5364c0.33749 1.2666 0.84916 2.4722 1.4932 3.5795l-1.8 1.8205c-0.50947 0.50947-0.54186 1.2991-0.0409 1.8l3.5386 3.5386c0.5009 0.5009 1.2905 0.46856 1.8-0.04091l1.8205-1.8c1.1074 0.64391 2.3129 1.1557 3.5795 1.4932v2.5364c0 0.72049 0.5598 1.3091 1.2682 1.3091l4.9909 0.000001c0.70839-0.000003 1.2682-0.5886 1.2682-1.3091v-2.5364c1.2666-0.33749 2.4722-0.84915 3.5796-1.4932l1.8204 1.8c0.50947 0.50947 1.2991 0.54182 1.8 0.04091l3.5386-3.5386c0.5009-0.5009 0.4685-1.2905-0.0409-1.8l-1.8-1.8205c0.64403-1.1074 1.1557-2.3129 1.4932-3.5795h2.5364c0.72048 0.000001 1.3091-0.55979 1.3091-1.2682v-4.9909c0-0.70838-0.5886-1.2682-1.3091-1.2682h-2.5364c-0.33747-1.2666-0.84915-2.4722-1.4932-3.5796l1.8-1.8205c0.50947-0.50946 0.54187-1.2991 0.0409-1.8l-3.5386-3.5386c-0.5009-0.50091-1.2905-0.46856-1.8 0.0409l-1.8204 1.8c-1.1074-0.64391-2.3129-1.1557-3.5796-1.4932v-2.5364c0-0.72049-0.5598-1.3091-1.2682-1.3091h-4.9909zm2.495 8.836c5.0609-0.000004 9.1636 4.1027 9.1636 9.1636s-4.1027 9.1636-9.1636 9.1636c-5.0609-0.000001-9.1636-4.1027-9.1636-9.1636s4.1027-9.1636 9.1636-9.1636z"/>
   </g>
  </g>
 </g>
</svg>
