<?xml version="1.0" encoding="UTF-8" standalone="no"?>
<!-- Created with Inkscape (http://www.inkscape.org/) -->

<svg
   xmlns:dc="http://purl.org/dc/elements/1.1/"
   xmlns:cc="http://creativecommons.org/ns#"
   xmlns:rdf="http://www.w3.org/1999/02/22-rdf-syntax-ns#"
   xmlns:svg="http://www.w3.org/2000/svg"
   xmlns="http://www.w3.org/2000/svg"
   xmlns:xlink="http://www.w3.org/1999/xlink"
   xmlns:sodipodi="http://sodipodi.sourceforge.net/DTD/sodipodi-0.dtd"
   xmlns:inkscape="http://www.inkscape.org/namespaces/inkscape"
   width="96"
   height="96"
   id="svg6307"
   version="1.1"
   inkscape:version="0.48.1 r9760"
   sodipodi:docname="applications-science.svg">
  <defs
     id="defs6309">
    <filter
       color-interpolation-filters="sRGB"
       inkscape:collect="always"
       id="filter6279-2">
      <feGaussianBlur
         inkscape:collect="always"
         stdDeviation="0.8"
         id="feGaussianBlur6281-1" />
    </filter>
    <linearGradient
       inkscape:collect="always"
       xlink:href="#linearGradient3187"
       id="linearGradient9181"
       gradientUnits="userSpaceOnUse"
       gradientTransform="translate(0,-7.8515622e-6)"
       x1="48"
       y1="1052.3622"
       x2="48"
       y2="902.36218" />
    <linearGradient
       id="linearGradient3187">
      <stop
         id="stop3189-8"
         style="stop-color:#bf8445;stop-opacity:1"
         offset="0" />
      <stop
         id="stop3191-3"
         style="stop-color:#e8bd81;stop-opacity:1"
         offset="1" />
    </linearGradient>
    <linearGradient
       inkscape:collect="always"
       xlink:href="#linearGradient3437"
       id="linearGradient3081"
       gradientUnits="userSpaceOnUse"
       gradientTransform="matrix(4.2857143,0,0,4.2857143,-95.14286,0.857143)"
       x1="4.1767769"
       y1="11"
       x2="18"
       y2="11" />
    <linearGradient
       id="linearGradient3437">
      <stop
         id="stop3439"
         style="stop-color:#275a39;stop-opacity:1"
         offset="0" />
      <stop
         id="stop5117"
         style="stop-color:#448459;stop-opacity:1"
         offset="1" />
    </linearGradient>
    <linearGradient
       x1="27.5"
       y1="62.08614"
       x2="99.467018"
       y2="62.08614"
       id="linearGradient3950"
       xlink:href="#linearGradient5149-7"
       gradientUnits="userSpaceOnUse"
       gradientTransform="translate(-1.75,-32.750002)" />
    <linearGradient
       id="linearGradient5149-7">
      <stop
         id="stop5151-5"
         style="stop-color:#d8e8c2;stop-opacity:1"
         offset="0" />
      <stop
         id="stop5153-1"
         style="stop-color:#d8e8c2;stop-opacity:0"
         offset="1" />
    </linearGradient>
    <filter
       color-interpolation-filters="sRGB"
       id="filter4005">
      <feGaussianBlur
         id="feGaussianBlur4007"
         stdDeviation="1.2531246" />
    </filter>
    <linearGradient
       x1="77"
       y1="92.866791"
       x2="81.5"
       y2="45.616791"
       id="linearGradient5169-4"
       xlink:href="#linearGradient5149-7"
       gradientUnits="userSpaceOnUse"
       gradientTransform="translate(-5.25,-43.250002)" />
    <linearGradient
       id="linearGradient6182">
      <stop
         id="stop6184"
         style="stop-color:#d8e8c2;stop-opacity:1"
         offset="0" />
      <stop
         id="stop6186"
         style="stop-color:#d8e8c2;stop-opacity:0"
         offset="1" />
    </linearGradient>
    <filter
       color-interpolation-filters="sRGB"
       id="filter4009">
      <feGaussianBlur
         id="feGaussianBlur4011"
         stdDeviation="1.2531246" />
    </filter>
    <radialGradient
       r="42"
       fy="90.171875"
       fx="48"
       cy="90.171875"
       cx="48"
       gradientTransform="matrix(1.1573129,0,0,0.99590774,174.63648,996.96586)"
       gradientUnits="userSpaceOnUse"
       id="radialGradient3197"
       xlink:href="#linearGradient3737-54"
       inkscape:collect="always" />
    <linearGradient
       id="linearGradient3737-54">
      <stop
         id="stop3739-812"
         style="stop-color:#ffffff;stop-opacity:1"
         offset="0" />
      <stop
         id="stop3741-89"
         style="stop-color:#ffffff;stop-opacity:0"
         offset="1" />
    </linearGradient>
  </defs>
  <sodipodi:namedview
     id="base"
     pagecolor="#ffffff"
     bordercolor="#666666"
     borderopacity="1.0"
     inkscape:pageopacity="0.0"
     inkscape:pageshadow="2"
     inkscape:zoom="3.959798"
     inkscape:cx="21.511676"
     inkscape:cy="56.845341"
     inkscape:document-units="px"
     inkscape:current-layer="layer1"
     showgrid="false"
     inkscape:window-width="1280"
     inkscape:window-height="747"
     inkscape:window-x="0"
     inkscape:window-y="0"
     inkscape:window-maximized="1" />
  <metadata
     id="metadata6312">
    <rdf:RDF>
      <cc:Work
         rdf:about="">
        <dc:format>image/svg+xml</dc:format>
        <dc:type
           rdf:resource="http://purl.org/dc/dcmitype/StillImage" />
        <dc:title />
      </cc:Work>
    </rdf:RDF>
  </metadata>
  <g
     inkscape:label="Layer 1"
     inkscape:groupmode="layer"
     id="layer1"
     transform="translate(0,-956.36218)">
    <g
       id="g6141">
      <rect
         transform="translate(0,-7.8515622e-6)"
         y="964.36218"
         x="8"
         height="80"
         width="80"
         id="rect9283"
         style="fill:#000000;fill-opacity:1;stroke:none;filter:url(#filter6279-2)"
         rx="5"
         ry="5" />
      <rect
         ry="5"
         rx="5"
         style="fill:url(#linearGradient9181);fill-opacity:1;stroke:none"
         id="rect9285"
         width="80"
         height="80"
         x="8"
         y="964.36218" />
      <g
         transform="translate(-182.1875,-40.40625)"
         id="g26594">
        <g
           id="g6089">
          <g
             id="g10387">
            <g
               id="g3086"
               transform="matrix(0.91666667,0,0,0.91666667,186.1875,1000.7684)">
              <rect
                 style="fill:url(#linearGradient3081);fill-opacity:1;fill-rule:evenodd;stroke:none;display:inline"
                 id="rect3427"
                 transform="matrix(0,-1,1,0,0,0)"
                 y="18"
                 x="-78"
                 ry="5"
                 rx="5"
                 height="60"
                 width="60" />
              <g
                 id="layer3">
                <path
                   d="m 33.872047,41.136428 -0.192312,3.077003 c -0.455861,9e-6 -1.225111,0.007 -2.307751,0.02136 -1.01143,0.0285 -1.78068,0.04275 -2.307752,0.04274 -0.854728,9e-6 -1.623979,-0.02849 -2.307753,-0.08548 l -0.0641,1.495764 c 1.794913,-0.08547 3.098365,-0.320512 3.910357,-0.705145 l 0.363258,2.927425 c -0.954449,0.470109 -2.49295,0.755016 -4.615506,0.85473 l -0.256417,1.132508 0.811986,0 c 2.122558,3e-6 4.316343,0.05698 6.581367,0.170944 L 33.231008,53.14528 C 31.079947,53.031317 28.451677,52.974335 25.346188,52.974335 24.448729,52.974335 24,52.418766 24,51.307626 c 0,-0.284907 0.156699,-1.232223 0.470097,-2.841955 0.142453,-0.641036 0.235048,-1.474391 0.277785,-2.500064 0.05698,-1.510002 0.0926,-2.343356 0.10684,-2.500064 0.07122,-0.726504 0.156699,-1.225092 0.256418,-1.495766 0.199433,-0.541312 0.562691,-0.811974 1.08977,-0.811986 0.24217,1.2e-5 0.612549,0.03562 1.11114,0.106839 0.498584,0.07123 0.868965,0.106852 1.11114,0.106842 0.612546,1e-5 1.524251,-0.03561 2.735114,-0.106842 1.225095,-0.08546 2.129676,-0.128196 2.713745,-0.128208 m 7.434088,2.457329 -0.363259,3.077002 c -1.182373,-0.11395 -2.898941,-0.270649 -5.149709,-0.470092 l 0.299153,-3.077003 c 1.182366,0.08548 2.920299,0.242182 5.213812,0.470099 m 0.170944,3.888989 -0.277786,3.077003 c -1.481525,-0.113961 -2.478701,-0.170942 -2.991529,-0.170944 -1.082652,2e-6 -2.037092,0.113965 -2.863323,0.341888 l -0.128208,-3.034266 c 0.911703,-0.256411 1.96586,-0.38462 3.162475,-0.384626 0.612547,6e-6 1.645335,0.05698 3.098371,0.170945 m 11.328084,1.346189 c -1.2e-5,0.59831 -0.04275,1.360437 -0.128209,2.286384 -0.113973,1.267839 -0.178078,2.022845 -0.192312,2.265016 l -1.88039,0 c 0.01423,-0.1567 0.09259,-0.804864 0.235047,-1.944495 0.09971,-0.797739 0.149568,-1.453026 0.149577,-1.965863 -9e-6,-1.566986 -0.427369,-2.350482 -1.282085,-2.350489 -0.398877,7e-6 -0.890341,0.163829 -1.474396,0.491467 0.113958,0.726519 0.170938,1.531382 0.170945,2.414592 -7e-6,0.569818 -0.05698,1.773552 -0.170945,3.611205 l -1.880391,0 c 0.11396,-1.766427 0.170941,-2.906056 0.170945,-3.418892 -4e-6,-1.139627 -0.106844,-1.937368 -0.320521,-2.393225 -0.142458,-0.05697 -0.284912,-0.08547 -0.427363,-0.08548 -0.541325,6e-6 -0.990056,0.277791 -1.346187,0.833355 -0.05698,1.709449 -0.299156,3.518611 -0.726514,5.42749 l -1.730812,-0.769249 c 0.242171,-1.153875 0.420237,-2.528553 0.534201,-4.124038 0.07122,-1.381797 0.149577,-2.763597 0.235048,-4.145407 l 1.880391,0 -0.02136,0.128209 c 0.512831,-0.256409 1.004297,-0.384617 1.474396,-0.384626 0.470095,9e-6 0.85472,0.13534 1.153877,0.405994 0.797736,-0.68377 1.730808,-1.025659 2.799217,-1.025668 1.851891,9e-6 2.777839,1.581245 2.77785,4.743713 m 12.241236,-3.974461 -0.44873,3.034266 c -1.666718,-0.398865 -4.024326,-0.598301 -7.072831,-0.598307 -1.025671,6e-6 -1.510014,0.612558 -1.453031,1.837655 l 0.04274,0.683778 c 1.367554,0.44161 2.678128,0.662413 3.931726,0.66241 0.527073,3e-6 1.787787,-0.09259 3.782148,-0.277784 l -0.128207,3.077002 c -2.67814,0.156699 -4.373339,0.235049 -5.085602,0.235049 -1.410296,0 -2.464454,-0.235049 -3.162476,-0.705146 -0.840477,-0.58406 -1.260716,-1.545622 -1.260716,-2.88469 0,-1.510006 0.220804,-2.749354 0.662411,-3.718046 0.598304,-1.324811 1.552743,-1.987221 2.863323,-1.98723 3.09124,9e-6 5.534321,0.213689 7.329248,0.641043 m 6.953591,-1.939917 c -6e-6,1.300405 -0.380053,2.106285 -1.140139,2.417644 -0.119056,0.04579 -0.883728,0.119056 -2.294015,0.219787 -0.915778,0.0641 -1.488135,0.444153 -1.717078,1.14014 0.329678,-0.0092 0.874563,-0.04579 1.634657,-0.109894 0.695986,-0.0641 1.24087,-0.09616 1.634658,-0.09616 0.63188,2e-6 1.19508,0.06868 1.689605,0.20605 l -0.288468,1.964336 c -0.412106,-0.09158 -0.915781,-0.137367 -1.511029,-0.137367 -0.393788,0 -0.979883,0.02748 -1.758288,0.08243 -0.769253,0.05495 -1.350768,0.08242 -1.744551,0.08242 -0.357152,0 -0.618146,-0.2381 -0.782987,-0.714304 -0.11905,-0.338835 -0.178574,-0.737197 -0.178575,-1.195086 10e-7,-1.217977 0.325098,-2.046752 0.975298,-2.486328 0.412099,-0.274727 1.121824,-0.439567 2.129176,-0.494518 1.053138,-0.05494 1.758284,-0.18315 2.11544,-0.384626 0.04578,-0.494512 -0.421261,-0.741771 -1.401136,-0.741777 -0.467048,6e-6 -1.053142,0.06411 -1.758287,0.192313 -0.760092,0.137371 -1.327872,0.297632 -1.703341,0.480781 L 65.66742,41.444739 c 1.071456,-0.521985 2.229908,-0.782981 3.475366,-0.782988 0.833348,7e-6 1.497285,0.160269 1.991809,0.480781 0.576934,0.384633 0.8654,0.975307 0.865407,1.772024"
                   inkscape:connector-curvature="0"
                   id="text5124"
                   style="font-size:28px;font-style:normal;font-variant:normal;font-weight:normal;font-stretch:normal;text-align:start;line-height:125%;writing-mode:lr-tb;text-anchor:start;fill:#c2dca8;fill-opacity:1;stroke:none;display:inline;font-family:Field Day Filter;-inkscape-font-specification:Field Day Filter" />
                <path
                   d="m 30.75,40.761723 c 3.565538,-4.634878 7.275947,-9.169139 11.032425,-13.637169 1.452285,-2.114017 3.252379,-7.761581 5.349628,-6.722975 -0.306666,3.934457 -2.221919,7.53437 -2.567028,11.478146 -0.780494,4.220651 -1.470779,8.466721 -1.773593,12.751813 1.656627,4.242254 5.714172,-0.805782 6.553121,-3.180192 4.234865,-7.13377 5.171904,-15.981204 10.798894,-22.326413 3.825389,-5.775628 6.781815,-12.113971 11.071604,-17.582348 2.64891,3.82531 -1.262406,7.940981 -0.792921,11.979324 -2.13941,13.455853 -3.805371,27.038161 -7.461345,40.193114 -0.773785,4.302425 4.933414,4.512645 5.810635,0.780482 9.843488,-11.151008 14.793858,-25.452263 19.637564,-39.245507 1.277092,-2.856443 0.715912,-6.694493 3.473767,-8.755925 1.519306,4.540136 0.500562,9.400817 0.492909,14.072643 -0.729533,6.870966 -2.979281,13.459387 -4.112007,20.261178 -0.155202,0.648712 -0.324387,1.294183 -0.513653,1.933829"
                   inkscape:connector-curvature="0"
                   transform="matrix(0.67476106,0,0,0.67476106,5.001097,25.72406)"
                   id="path5141"
                   style="fill:none;stroke:url(#linearGradient3950);stroke-width:11.85604858;stroke-linecap:round;stroke-linejoin:round;stroke-miterlimit:4;stroke-opacity:0.29090905;stroke-dasharray:none;display:inline;filter:url(#filter4005)" />
                <path
                   d="m 43.75,46.749998 c 0,-0.333333 0,-0.333333 0,0 0,12.26357 1.373705,-7.739643 2,-12.75 1.466509,-11.732076 4.567454,-30.567454 12.75,-38.7500005 1.62743,-1.62743 0.510796,7.9460185 -1,15.5000005 -0.151043,0.755214 -10.946643,53.3755 -2,32.5 5.804522,-13.543886 14.533014,-25.066027 21,-38 0.484481,-0.968963 0,2.166667 0,3.25 0,12.618641 -0.641136,27.665227 0.25,39.25 0.24277,3.156012 1.148717,-5.797434 3.5,-10.5 0.305508,-0.611016 13.75,-32.193642 13.75,-18 0,9 0,18 0,27"
                   inkscape:connector-curvature="0"
                   transform="matrix(0.67476106,0,0,0.67476106,5.001097,25.72406)"
                   id="path5161"
                   style="opacity:0.2;fill:none;stroke:url(#linearGradient5169-4);stroke-width:11.85604858;stroke-linecap:round;stroke-linejoin:round;stroke-miterlimit:4;stroke-opacity:1;stroke-dasharray:none;display:inline;filter:url(#filter4009)" />
              </g>
            </g>
            <path
               style="opacity:0.2;fill:url(#radialGradient3197);fill-opacity:1;fill-rule:nonzero;stroke:none"
               id="path3615"
               inkscape:connector-curvature="0"
               d="m 194.1875,1086.7688 c -3.324,0 -6,-2.676 -6,-6 l 0,-2 0,-68 0,-2 c 0,-0.3347 0.0413,-0.6507 0.0937,-0.9688 0.0487,-0.2956 0.097,-0.5969 0.1875,-0.875 0.01,-0.03 0.0209,-0.064 0.0312,-0.094 0.0989,-0.2878 0.23488,-0.5475 0.375,-0.8126 0.14459,-0.2735 0.31562,-0.5356 0.5,-0.7812 0.18438,-0.2456 0.37378,-0.4735 0.59375,-0.6875 0.43995,-0.4281 0.94291,-0.8145 1.5,-1.0938 0.27854,-0.1396 0.57347,-0.2469 0.875,-0.3437 -0.2562,0.1002 -0.48671,0.2363 -0.71875,0.375 -0.007,0 -0.0239,0 -0.0312,0 -0.0319,0.019 -0.0623,0.043 -0.0937,0.062 -0.1204,0.077 -0.23102,0.1635 -0.34375,0.25 -0.10617,0.081 -0.21328,0.1611 -0.3125,0.25 -0.17793,0.1614 -0.34746,0.3454 -0.5,0.5312 -0.10758,0.1303 -0.21839,0.2653 -0.3125,0.4063 -0.0251,0.038 -0.0385,0.086 -0.0625,0.125 -0.0648,0.103 -0.13023,0.2045 -0.1875,0.3125 -0.10101,0.1947 -0.20567,0.4157 -0.28125,0.625 -0.008,0.022 -0.0236,0.041 -0.0312,0.062 -0.0318,0.092 -0.0358,0.1868 -0.0625,0.2813 -0.0303,0.1066 -0.0704,0.203 -0.0937,0.3125 -0.0729,0.3415 -0.125,0.6982 -0.125,1.0625 l 0,2 0,68 0,2 c 0,2.7818 2.21815,5 5,5 l 2,0 68,0 2,0 c 2.78185,0 5,-2.2182 5,-5 l 0,-2 0,-68 0,-2 c 0,-0.3643 -0.0521,-0.721 -0.125,-1.0625 -0.0442,-0.207 -0.0884,-0.3977 -0.15625,-0.5938 -0.008,-0.022 -0.0233,-0.041 -0.0312,-0.062 -0.0627,-0.1738 -0.13838,-0.3675 -0.21875,-0.5313 -0.0416,-0.083 -0.079,-0.1699 -0.125,-0.25 -0.0546,-0.097 -0.12677,-0.1883 -0.1875,-0.2812 -0.0941,-0.141 -0.20492,-0.276 -0.3125,-0.4063 -0.14317,-0.1744 -0.30314,-0.347 -0.46875,-0.5 -0.0112,-0.01 -0.02,-0.021 -0.0312,-0.031 -0.13839,-0.1255 -0.28509,-0.2344 -0.4375,-0.3437 -0.10257,-0.073 -0.20432,-0.1534 -0.3125,-0.2188 -0.007,0 -0.0238,0 -0.0312,0 -0.23204,-0.1387 -0.46255,-0.2747 -0.71875,-0.375 0.30153,0.097 0.59645,0.2042 0.875,0.3438 0.55709,0.2792 1.06005,0.6657 1.5,1.0937 0.21997,0.2141 0.40937,0.4419 0.59375,0.6875 0.18438,0.2457 0.35541,0.5078 0.5,0.7813 0.14012,0.265 0.27613,0.5247 0.375,0.8125 0.0104,0.031 0.0213,0.063 0.0312,0.094 0.0905,0.2781 0.1388,0.5794 0.1875,0.875 0.0524,0.3181 0.0937,0.6341 0.0937,0.9688 l 0,2 0,68 0,2 c 0,3.324 -2.676,6 -6,6 l -72,0 z" />
          </g>
        </g>
      </g>
    </g>
  </g>
</svg>
