<?xml version="1.0" encoding="UTF-8" standalone="no"?>
<!-- Created with Inkscape (http://www.inkscape.org/) -->
<svg id="svg2982" xmlns:rdf="http://www.w3.org/1999/02/22-rdf-syntax-ns#" xmlns="http://www.w3.org/2000/svg" height="96" width="96" version="1.1" xmlns:cc="http://creativecommons.org/ns#" xmlns:xlink="http://www.w3.org/1999/xlink" xmlns:dc="http://purl.org/dc/elements/1.1/">
 <defs id="defs2984">
  <filter id="filter8262" color-interpolation-filters="sRGB">
   <feGaussianBlur id="feGaussianBlur8264" stdDeviation="0.78065245"/>
  </filter>
  <linearGradient id="linearGradient7278" x1="48.036" gradientUnits="userSpaceOnUse" y1="25.911" gradientTransform="matrix(.93226 0 0 .93226 3.2517 958.18)" x2="48.036" y2="85.821">
   <stop id="stop3319-60" style="stop-color:#3c8fc2" offset="0"/>
   <stop id="stop3321-6" style="stop-color:#2174a6" offset="1"/>
  </linearGradient>
  <linearGradient id="linearGradient7274" y2="902.36" gradientUnits="userSpaceOnUse" y1="1042.6" x2="48.003" x1="48.005">
   <stop id="stop3887-1" style="stop-color:#eb7731" offset="0"/>
   <stop id="stop3889-1" style="stop-color:#e59343" offset=".5"/>
   <stop id="stop3891-4" style="stop-color:#e5b66b" offset="1"/>
  </linearGradient>
  <linearGradient id="linearGradient7281" y2="81.481" gradientUnits="userSpaceOnUse" y1="22.933" x2="48.022" x1="48.022">
   <stop id="stop3876-61" style="stop-color:#fff" offset="0"/>
   <stop id="stop3878-87" style="stop-color:#fff;stop-opacity:0" offset="1"/>
  </linearGradient>
  <clipPath id="clipPath3860-3">
   <rect id="rect3862-7" style="fill:#f0f" rx="6" ry="6" height="72" width="84" y="18" x="6"/>
  </clipPath>
  <filter id="filter3870-1" width="1.3312" y="-.19716" x="-.16559" height="1.3943" color-interpolation-filters="sRGB">
   <feGaussianBlur id="feGaussianBlur3872-9" stdDeviation="5.1703125"/>
  </filter>
 </defs>
 <metadata id="metadata2987">
  <rdf:RDF>
   <cc:Work rdf:about="">
    <dc:format>image/svg+xml</dc:format>
    <dc:type rdf:resource="http://purl.org/dc/dcmitype/StillImage"/>
    <dc:title/>
   </cc:Work>
  </rdf:RDF>
 </metadata>
 <g id="layer1" transform="translate(0 -956.36)">
  <g id="g7302">
   <path id="path3908-1" d="m17.071 965.51c-2.5957 0-4.6793 2.0361-4.6793 4.5652v3.3668c-2.1585 1.0239-3.6522 3.2074-3.6522 5.7636v57.522c0 3.5408 2.8505 6.3914 6.3913 6.3914h65.739c3.5408 0 6.3913-2.8506 6.3913-6.3914v-57.522c0-2.5654-1.5096-4.7445-3.6807-5.7636-0.1549-2.3907-2.1568-4.2799-4.6508-4.2799h-37.064c-3.8535-3.7547-4.1112-3.5911-5.9348-3.6522h-18.86z" style="filter:url(#filter8262)" transform="matrix(1.021 0 0 1.021 -1.01 -21.124)"/>
   <rect id="rect3352" style="fill:url(#linearGradient7278)" rx="5.5935" ry="5.5935" height="58.432" width="69.919" y="979.76" x="13.074"/>
   <path id="path3908" style="opacity:.75;fill:#e07a1f" d="m17.236 963.78c-2.5823 0-4.6613 2.0789-4.6613 4.6613v55.761c0 2.2311 1.7892 4.0203 4.0204 4.0203h62.811c2.2311 0 4.0204-1.7892 4.0204-4.0203v-52.032c0-2.5824-2.0789-4.6613-4.6613-4.6613h-37.786c-3.8337-3.8337-4.0707-3.6666-5.8849-3.729z"/>
   <rect id="rect2419" style="stroke:#faa546;fill:url(#linearGradient7274)" rx="5.5935" ry="5.5935" height="70.851" width="78.31" y="971.23" x="8.8452"/>
   <g id="layer5" transform="translate(0 952.36)">
    <path id="path3850" style="opacity:.15;filter:url(#filter3870-1);fill:url(#linearGradient7281)" clip-path="url(#clipPath3860-3)" d="m15.969 22.531c-2.8459 0.0043-5.4332 2.5916-5.4375 5.4375v48.062c0.0043 2.8459 2.5916 5.4332 5.4375 5.4375h64.062c2.8459-0.0043 5.4332-2.5916 5.4375-5.4375v-48.062c-0.0043-2.8459-2.5916-5.4332-5.4375-5.4375z"/>
   </g>
  </g>
  <path id="path4090" style="opacity:.25;color:#000000;fill:#fff" d="m48 986.36c-12.15 0-22 9.8497-22 22h-4l3.5 6 3.5 6 3.5-6 3.5-6h-4c0-8.8366 7.1634-16 16-16s16 7.1634 16 16c0 8.8365-7.1634 16-16 16-2.9184 0-5.6444-0.7914-8-2.1563l-3 5.2188c3.2343 1.8694 6.9957 2.9375 11 2.9375 12.15 0 22-9.8498 22-22s-9.8497-22-22-22zm0 8c-1.108 0-2 0.892-2 2v11.344c-0.19861 0.5344-0.08906 1.1893 0.3125 1.75 0.0771 0.1197 0.18109 0.2124 0.28125 0.3125l7.0625 7.0938c0.78347 0.7834 1.9259 0.8865 2.5625 0.25l0.53125-0.5313c0.63657-0.6365 0.53347-1.779-0.25-2.5625l-6.5-6.4687v-11.188c0-1.108-0.892-2-2-2z"/>
 </g>
</svg>
