<?xml version="1.0" encoding="UTF-8" standalone="no"?>
<!-- Created with Inkscape (http://www.inkscape.org/) -->
<svg id="svg2982" xmlns:rdf="http://www.w3.org/1999/02/22-rdf-syntax-ns#" xmlns="http://www.w3.org/2000/svg" height="96" width="96" version="1.1" xmlns:cc="http://creativecommons.org/ns#" xmlns:xlink="http://www.w3.org/1999/xlink" xmlns:dc="http://purl.org/dc/elements/1.1/">
 <defs id="defs2984">
  <filter id="filter8262-2" color-interpolation-filters="sRGB">
   <feGaussianBlur id="feGaussianBlur8264-1" stdDeviation="0.78065245"/>
  </filter>
  <linearGradient id="linearGradient6377-7" y2="85.821" gradientUnits="userSpaceOnUse" x2="48.036" gradientTransform="matrix(.93226 0 0 .93226 3.2517 958.18)" y1="25.911" x1="48.036">
   <stop id="stop3319-60-5" style="stop-color:#3c8fc2" offset="0"/>
   <stop id="stop3321-6-7" style="stop-color:#2174a6" offset="1"/>
  </linearGradient>
  <linearGradient id="linearGradient7237-4" y2="902.36" gradientUnits="userSpaceOnUse" x2="48.005" y1="1042.6" x1="48.003">
   <stop id="stop4537-8" style="stop-color:#617ec4" offset="0"/>
   <stop id="stop4539-5" style="stop-color:#244c8d" offset="1"/>
  </linearGradient>
  <linearGradient id="linearGradient6380" y2="81.481" gradientUnits="userSpaceOnUse" x2="48.022" y1="22.933" x1="48.022">
   <stop id="stop3876-61" style="stop-color:#fff" offset="0"/>
   <stop id="stop3878-87" style="stop-color:#fff;stop-opacity:0" offset="1"/>
  </linearGradient>
  <clipPath id="clipPath3860-3">
   <rect id="rect3862-7" style="fill:#f0f" rx="6" ry="6" height="72" width="84" y="18" x="6"/>
  </clipPath>
  <filter id="filter3870-1" height="1.3943" width="1.3312" color-interpolation-filters="sRGB" y="-.19716" x="-.16559">
   <feGaussianBlur id="feGaussianBlur3872-9" stdDeviation="5.1703125"/>
  </filter>
 </defs>
 <metadata id="metadata2987">
  <rdf:RDF>
   <cc:Work rdf:about="">
    <dc:format>image/svg+xml</dc:format>
    <dc:type rdf:resource="http://purl.org/dc/dcmitype/StillImage"/>
    <dc:title/>
   </cc:Work>
  </rdf:RDF>
 </metadata>
 <g id="layer1" transform="translate(0 -956.36)">
  <g id="g6385">
   <g id="g7247">
    <path id="path3908-1" d="m17.071 965.51c-2.5957 0-4.6793 2.0361-4.6793 4.5652v3.3668c-2.1585 1.0239-3.6522 3.2074-3.6522 5.7636v57.522c0 3.5408 2.8505 6.3914 6.3913 6.3914h65.739c3.5408 0 6.3913-2.8506 6.3913-6.3914v-57.522c0-2.5654-1.5096-4.7445-3.6807-5.7636-0.1549-2.3907-2.1568-4.2799-4.6508-4.2799h-37.064c-3.8535-3.7547-4.1112-3.5911-5.9348-3.6522h-18.86z" style="filter:url(#filter8262-2)" transform="matrix(1.021 0 0 1.021 -1.01 -21.124)"/>
    <rect id="rect3352" style="fill:url(#linearGradient6377-7)" rx="5.5935" ry="5.5935" height="58.432" width="69.919" y="979.76" x="13.074"/>
    <path id="path3908" d="m17.236 963.78c-2.5823 0-4.6613 2.0789-4.6613 4.6613v55.761c0 2.2311 1.7892 4.0203 4.0204 4.0203h62.811c2.2311 0 4.0204-1.7892 4.0204-4.0203v-52.032c0-2.5824-2.0789-4.6613-4.6613-4.6613h-37.786c-3.8337-3.8337-4.0707-3.6666-5.8849-3.729z" style="opacity:.75;fill:#204a87"/>
    <rect id="rect2419" style="stroke:#729fcf;fill:url(#linearGradient7237-4)" rx="5.5935" ry="5.5935" height="70.851" width="78.31" y="971.23" x="8.8452"/>
   </g>
   <g id="layer5" transform="translate(0 952.36)">
    <path id="path3850" d="m15.969 22.531c-2.8459 0.0043-5.4332 2.5916-5.4375 5.4375v48.062c0.0043 2.8459 2.5916 5.4332 5.4375 5.4375h64.062c2.8459-0.0043 5.4332-2.5916 5.4375-5.4375v-48.062c-0.0043-2.8459-2.5916-5.4332-5.4375-5.4375z" style="opacity:.15;filter:url(#filter3870-1);fill:url(#linearGradient6380)" clip-path="url(#clipPath3860-3)"/>
   </g>
  </g>
  <path id="path3729" d="m38 986.36c-6.6274 0-12 5.3726-12 12 0 4.4567 2.4537 8.3365 6.0625 10.406-0.03983 0.1957-0.0625 0.386-0.0625 0.5938v2.0312c-0.16304-0.027-0.32688-0.031-0.5-0.031-1.385 0-2.5 0.892-2.5 2s1.115 2 2.5 2c0.17312 0 0.33696 0 0.5-0.031v6.0313c0 1.662 1.338 3 3 3h1 3.5625l-3.1875 4.1875c-0.56205 0.7298 0.26436 1.8192 1.375 1.8125h9 9.0312c1.1106 0.01 1.937-1.0827 1.375-1.8125l-3.1875-4.1875h4.0312 1c1.662 0 3-1.338 3-3v-3.0313h0.40625l5.1562 3.5938c0.48553 0.4311 1.1093 0.4341 1.5938 0 0.48441-0.4341 0.81119-1.2889 0.8125-2.1563v-4.9375-3.9375c0.01059-1.4204-0.90359-2.6814-1.8125-2.5-0.20856 0.043-0.41157 0.1495-0.59375 0.3125l-5.1562 3.625h-0.40625v-2.9687c0-0.6233-0.17716-1.2089-0.5-1.6875 2.731-2.1969 4.5-5.5325 4.5-9.3125 0-6.6274-5.3726-12-12-12-3.0781 0-5.8765 1.1536-8 3.0625-2.1235-1.9089-4.9219-3.0625-8-3.0625zm0 6c1.864 0 3.5245 0.85402 4.625 2.1875 0.42797 0.51858 0.76324 1.1077 1 1.75 0.10094 0.27569 0.19006 0.55081 0.25 0.84375 0.01086 0.0522 0.02176 0.10358 0.03125 0.15625 0.0054 0.0304-0.0049 0.0632 0 0.0937 0.05186 0.31583 0.09375 0.63805 0.09375 0.96875s-0.04189 0.65292-0.09375 0.96875c-0.005 0.0303 0.0054 0.0636 0 0.0937-0.04415 0.24929-0.11359 0.48111-0.1875 0.71872-0.02933 0.094-0.06 0.1897-0.09375 0.2813-0.23676 0.6422-0.57203 1.2314-1 1.75-1.1005 1.3335-2.761 2.1875-4.625 2.1875-3.3137 0-6-2.6863-6-6s2.6863-6 6-6zm16 0c3.3137 0 6 2.6863 6 6s-2.6863 6-6 6c-1.864 0-3.5245-0.854-4.625-2.1875-0.42797-0.5186-0.76324-1.1078-1-1.75-0.11186-0.3055-0.21996-0.61107-0.28125-0.93752-0.0095-0.0499 0.0083-0.1059 0-0.15625-0.052-0.31-0.094-0.64-0.094-0.97 0-0.3307 0.04189-0.65292 0.09375-0.96875 0.0083-0.0503-0.0095-0.10633 0-0.15625 0.06129-0.32645 0.16939-0.63201 0.28125-0.9375 0.23676-0.64226 0.57203-1.2314 1-1.75 1.1005-1.3335 2.761-2.1875 4.625-2.1875zm-16 2c-2.2091 0-4 1.7909-4 4s1.7909 4 4 4 4-1.7909 4-4-1.7909-4-4-4zm16 0c-2.2091 0-4 1.7909-4 4s1.7909 4 4 4 4-1.7909 4-4-1.7909-4-4-4z" style="opacity:.25;fill:#fff"/>
 </g>
</svg>
