<?xml version="1.0" encoding="UTF-8" standalone="no"?>
<!-- Created with Inkscape (http://www.inkscape.org/) -->
<svg id="svg2982" xmlns:rdf="http://www.w3.org/1999/02/22-rdf-syntax-ns#" xmlns="http://www.w3.org/2000/svg" height="96" width="96" version="1.1" xmlns:cc="http://creativecommons.org/ns#" xmlns:xlink="http://www.w3.org/1999/xlink" xmlns:dc="http://purl.org/dc/elements/1.1/">
 <defs id="defs2984">
  <filter id="filter6279-2" color-interpolation-filters="sRGB">
   <feGaussianBlur id="feGaussianBlur6281-1" stdDeviation="0.8"/>
  </filter>
  <linearGradient id="linearGradient9181" x1="48" gradientUnits="userSpaceOnUse" y1="1052.4" gradientTransform="translate(0 -.0000078516)" x2="48" y2="902.36">
   <stop id="stop3702-76" style="stop-color:#4c6d37" offset="0"/>
   <stop id="stop3704-1" style="stop-color:#75ac54" offset="1"/>
  </linearGradient>
  <linearGradient id="linearGradient3122-1" y2="138.66" gradientUnits="userSpaceOnUse" x2="48" y1="20.221" x1="48">
   <stop id="stop3739-74" style="stop-color:#fff" offset="0"/>
   <stop id="stop3741-19" style="stop-color:#fff;stop-opacity:0" offset="1"/>
  </linearGradient>
  <clipPath id="clipPath3613-098">
   <rect id="rect3615-8" style="fill:#fff" rx="6" ry="6" height="84" width="84" y="6" x="6"/>
  </clipPath>
  <filter id="filter3794-58" width="1.384" y="-.192" x="-.192" height="1.384" color-interpolation-filters="sRGB">
   <feGaussianBlur id="feGaussianBlur3796-437" stdDeviation="5.28"/>
  </filter>
  <linearGradient id="linearGradient3100-0" x1="37.875" gradientUnits="userSpaceOnUse" x2="37.875" gradientTransform="matrix(.88889 0 0 .88889 5.3333 71.111)" y1="-62" y2="8.875">
   <stop id="stop4090" style="stop-color:#d5b742" offset="0"/>
   <stop id="stop4094" style="stop-color:#f5e6aa" offset=".34921"/>
   <stop id="stop4096" style="stop-color:#e0bf55" offset=".57143"/>
   <stop id="stop4092" style="stop-color:#8a6e24" offset="1"/>
  </linearGradient>
 </defs>
 <metadata id="metadata2987">
  <rdf:RDF>
   <cc:Work rdf:about="">
    <dc:format>image/svg+xml</dc:format>
    <dc:type rdf:resource="http://purl.org/dc/dcmitype/StillImage"/>
    <dc:title/>
   </cc:Work>
  </rdf:RDF>
 </metadata>
 <g id="layer1" transform="translate(0 -956.36)">
  <g id="g6939">
   <rect id="rect9283" ry="5" style="filter:url(#filter6279-2)" rx="5" transform="translate(0 -.0000078516)" height="80" width="80" y="964.36" x="8"/>
   <rect id="rect9285" style="fill:url(#linearGradient9181)" rx="5" ry="5" height="80" width="80" y="964.36" x="8"/>
   <g id="layer5" transform="translate(0 956.36)">
    <rect id="rect3171" style="opacity:.1;filter:url(#filter3794-58);stroke:#fff;stroke-linecap:round;stroke-width:.5;fill:url(#linearGradient3122-1)" clip-path="url(#clipPath3613-098)" rx="12" ry="12" height="66" width="66" y="15" x="15"/>
   </g>
   <g id="layer4" transform="matrix(.84863 0 0 .84863 7.2898 963.7)">
    <path id="path3104" style="fill:url(#linearGradient3100-0)" d="m51.68 72.838v7.1622h-7.3593v-7.0308c-4.294-0.525-7.667-2.102-10.12-4.731-2.453-2.672-3.745-6.176-3.877-10.513l11.893 0.06571c0.04379 1.577 0.61326 2.8255 1.7084 3.7454 1.0951 0.91993 2.4531 1.3799 4.0739 1.3799 1.4018 0.000008 2.6283-0.35044 3.6797-1.0513 1.2265-0.74469 1.8398-1.7741 1.8398-3.0883-0.000026-1.9274-1.9713-3.6139-5.9138-5.0595-5.87-2.1465-9.5277-3.7235-10.973-4.731-3.9425-2.6283-5.9138-6.3737-5.9138-11.236-0.000004-3.9863 1.2923-7.3374 3.8768-10.053 2.4969-2.5845 5.7385-4.1396 9.7248-4.6653v-7.0308h7.3593v7.0308c8.5421 1.5332 12.857 6.5928 12.945 15.179h-11.63c-0.000026-1.6646-0.48189-3.0226-1.4456-4.0739-0.96375-1.0951-2.2779-1.6427-3.9425-1.6427-1.3142 0.000037-2.4531 0.37238-3.4168 1.117-1.0952 0.78854-1.6427 1.8399-1.6427 3.154-0.000015 1.6646 1.9931 3.2635 5.9795 4.7967 5.8261 2.1465 9.5496 3.7892 11.17 4.9281 3.9863 2.6722 5.9794 6.3518 5.9795 11.039-0.000038 4.1615-1.3142 7.6222-3.9425 10.382-2.497 2.5845-5.8481 4.2272-10.053 4.9281"/>
   </g>
  </g>
 </g>
</svg>
