<?xml version="1.0" encoding="UTF-8" standalone="no"?>
<!-- Created with Inkscape (http://www.inkscape.org/) -->
<svg id="svg2982" xmlns:rdf="http://www.w3.org/1999/02/22-rdf-syntax-ns#" xmlns="http://www.w3.org/2000/svg" height="96" width="96" version="1.1" xmlns:cc="http://creativecommons.org/ns#" xmlns:xlink="http://www.w3.org/1999/xlink" xmlns:dc="http://purl.org/dc/elements/1.1/">
 <defs id="defs2984">
  <filter id="filter6279-2" color-interpolation-filters="sRGB">
   <feGaussianBlur id="feGaussianBlur6281-1" stdDeviation="0.8"/>
  </filter>
  <linearGradient id="linearGradient9181" x1="48" gradientUnits="userSpaceOnUse" y1="1052.4" gradientTransform="translate(0 -.0000078516)" x2="48" y2="902.36">
   <stop id="stop3189-4" style="stop-color:#c8c8c8" offset="0"/>
   <stop id="stop3191-0-8" style="stop-color:#e6e6e6" offset="1"/>
  </linearGradient>
 </defs>
 <metadata id="metadata2987">
  <rdf:RDF>
   <cc:Work rdf:about="">
    <dc:format>image/svg+xml</dc:format>
    <dc:type rdf:resource="http://purl.org/dc/dcmitype/StillImage"/>
    <dc:title/>
   </cc:Work>
  </rdf:RDF>
 </metadata>
 <g id="layer1" transform="translate(0 -956.36)">
  <g id="g6857">
   <rect id="rect9283" ry="5" style="filter:url(#filter6279-2)" rx="5" transform="translate(0 -.0000078516)" height="80" width="80" y="964.36" x="8"/>
   <rect id="rect9285" style="fill:url(#linearGradient9181)" rx="5" ry="5" height="80" width="80" y="964.36" x="8"/>
   <g id="layer1-2" transform="matrix(.76389 0 0 .76389 11.333 1024.5)">
    <path id="Symbol" style="opacity:.4" d="m48.25-53.625c-14.72-0.000003-26.731 11.504-27.625 26h-8.625l13.875 20.75 13.875-20.75h-9.875c0.85226-9.4051 8.7448-16.75 18.375-16.75 3.562 0.000001 6.9328 1.0072 9.75 2.75l4.75-7.875c-4.2173-2.5929-9.1897-4.125-14.5-4.125zm21.875 8-13.875 20.75h9.875c-0.85226 9.4051-8.7448 16.75-18.375 16.75-3.562 0-6.9328-1.0072-9.75-2.75l-4.75 7.875c4.2173 2.5929 9.1897 4.125 14.5 4.125 14.72 0.000004 26.731-11.504 27.625-26h8.625l-13.875-20.75z"/>
   </g>
  </g>
 </g>
</svg>
