<?xml version="1.0" encoding="UTF-8" standalone="no"?>
<!-- Created with Inkscape (http://www.inkscape.org/) -->
<svg id="svg2982" xmlns:rdf="http://www.w3.org/1999/02/22-rdf-syntax-ns#" xmlns="http://www.w3.org/2000/svg" height="96" width="96" version="1.1" xmlns:cc="http://creativecommons.org/ns#" xmlns:xlink="http://www.w3.org/1999/xlink" xmlns:dc="http://purl.org/dc/elements/1.1/">
 <defs id="defs2984">
  <filter id="filter6279-2" color-interpolation-filters="sRGB">
   <feGaussianBlur id="feGaussianBlur6281-1" stdDeviation="0.8"/>
  </filter>
  <linearGradient id="linearGradient9181" x1="48" gradientUnits="userSpaceOnUse" y1="1052.4" gradientTransform="translate(0 -.0000078516)" x2="48" y2="902.36">
   <stop id="stop3189-4" style="stop-color:#c8c8c8" offset="0"/>
   <stop id="stop3191-0-7" style="stop-color:#e6e6e6" offset="1"/>
  </linearGradient>
  <filter id="filter3986" color-interpolation-filters="sRGB">
   <feGaussianBlur id="feGaussianBlur3988" stdDeviation="0.87773437"/>
  </filter>
  <linearGradient id="linearGradient3069" x1="32" xlink:href="#linearGradient3904" gradientUnits="userSpaceOnUse" x2="32" y1="36" y2="68"/>
  <linearGradient id="linearGradient3904" y2="18.083" gradientUnits="userSpaceOnUse" y1="3.9375" x2="11" x1="11">
   <stop id="stop3906" style="stop-color:#323232" offset="0"/>
   <stop id="stop3908" style="stop-color:#787878" offset="1"/>
  </linearGradient>
  <linearGradient id="linearGradient3066" x1="64" xlink:href="#linearGradient3904" gradientUnits="userSpaceOnUse" x2="64" y1="24" y2="72"/>
 </defs>
 <metadata id="metadata2987">
  <rdf:RDF>
   <cc:Work rdf:about="">
    <dc:format>image/svg+xml</dc:format>
    <dc:type rdf:resource="http://purl.org/dc/dcmitype/StillImage"/>
    <dc:title/>
   </cc:Work>
  </rdf:RDF>
 </metadata>
 <g id="layer1" transform="translate(0 -956.36)">
  <g id="g6895">
   <rect id="rect9283" ry="5" style="filter:url(#filter6279-2)" rx="5" transform="translate(0 -.0000078516)" height="80" width="80" y="964.36" x="8"/>
   <rect id="rect9285" style="fill:url(#linearGradient9181)" rx="5" ry="5" height="80" width="80" y="964.36" x="8"/>
   <g id="g3119" transform="matrix(.71203 0 0 .71203 14.034 970.17)">
    <path id="path3979" style="opacity:.2;filter:url(#filter3986);stroke:#fff;stroke-width:4;fill:none" d="m57 24c-7.1156 0-12.812 5.3588-12.812 12 0.01606 0.7072 0.05752 1.7323 0.125 2.5938-1.2168 0.51643-1.3141 2.8789-0.28125 5.3125 0.40958 0.96505 0.93125 1.7004 1.5 2.3125 0.13819 0.68394 0.11046 0.99951 0.28125 1.7812 0.4766 1.4298 2.3585 4.2178 4.0938 6.5312 0.17016 1.7767 0.34667 3.5725 0 5.5938-1.7892 1.4844-4.582 2.6789-7.4375 3.7812-2.6836-1.1147-5.9754-2.2694-7.75-3.8125-0.133-1.094-0.162-2.2-0.094-3.28 1.054-1.626 2.49-3.75 2.844-4.812 0.12719-0.53763 0.15075-0.91208 0.25-1.375 0.31588-0.38262 0.57981-0.79549 0.8125-1.3438 0.65415-1.5413 0.64027-3.0268-0.0625-3.4688 0.04143-0.621 0.04426-1.2761 0.0625-1.8125-0.000002-4.4275-3.7875-8-8.5312-8s-8.5312 3.5725-8.5312 8c0.01071 0.47147 0.01752 1.1444 0.0625 1.7188-0.8112 0.34429-0.84482 1.9401-0.15625 3.5625 0.27306 0.64336 0.62083 1.1232 1 1.5312 0.09213 0.45596 0.04239 0.66634 0.15625 1.1875 0.31773 0.9532 1.5931 2.8327 2.75 4.375 0.11344 1.1845 0.23112 2.3713 0 3.7188-3.3334 2.7656-11.919 3.9494-11.906 6.8125l-0.187 1.094h20.312c-0.90425 0.71241-1.4727 1.4931-1.4688 2.375l-0.25 1.625h50.438l-0.25-1.625c-0.02049-3.6756-12.936-5.9554-17.875-10.25-0.19983-1.644-0.22657-3.287-0.125-4.9062 1.5812-2.4402 3.6879-5.6262 4.2188-7.2188 0.19078-0.80644 0.25738-1.3369 0.40625-2.0312 0.47382-0.57394 0.86971-1.2401 1.2188-2.0625 0.98122-2.3119 0.92915-4.5246-0.125-5.1875 0.062-0.932 0.097-1.914 0.124-2.719 0-6.641-5.696-12-12.812-12z"/>
    <g id="g3089">
     <path id="path3151" style="opacity:.6;fill:url(#linearGradient3069)" d="m30 36c-4.7437 0-8.5455 3.5725-8.5455 8 0.01071 0.47147 0.04593 1.1529 0.09091 1.7273-0.8112 0.34429-0.8704 1.9231-0.18182 3.5455 0.27306 0.64336 0.62083 1.1374 1 1.5455 0.09213 0.45596 0.06796 0.66066 0.18182 1.1818 0.31773 0.9532 1.5704 2.8213 2.7273 4.3636 0.11344 1.1845 0.23112 2.3798 0 3.7273-3.3334 2.7656-11.922 3.9551-11.909 6.8182l-0.182 1.091h33.636l-0.182-1.091c-0.01366-2.4504-8.6165-3.9551-11.909-6.8182-0.13322-1.096-0.15862-2.1932-0.0909-3.2727 1.0542-1.6268 2.4643-3.7565 2.8182-4.8182 0.12719-0.53763 0.17348-0.90071 0.27273-1.3636 0.31588-0.38262 0.58549-0.81538 0.81818-1.3636 0.65415-1.5413 0.61187-3.0126-0.0909-3.4545 0.04143-0.621 0.07266-1.2818 0.0909-1.8182 0-4.426-3.801-7.999-8.545-7.999z"/>
     <path id="path3159" style="fill:url(#linearGradient3066)" d="m57 24c-7.1156 0-12.818 5.3588-12.818 12 0.01606 0.7072 0.06889 1.7294 0.13637 2.5909-1.2168 0.51643-1.3056 2.8846-0.27273 5.3182 0.40958 0.96505 0.93125 1.706 1.5 2.3182 0.13819 0.68394 0.10193 0.99099 0.27273 1.7727 0.4766 1.4298 2.3556 4.232 4.0909 6.5455 0.17016 1.7767 0.34667 3.5697 0 5.5909-5.0001 4.1484-17.883 5.9327-17.864 10.227l-0.272 1.636h50.454l-0.272-1.636c-0.021-3.676-12.925-5.933-17.864-10.228-0.2-1.644-0.238-3.289-0.136-4.909 1.581-2.44 3.696-5.634 4.227-7.227 0.19078-0.80644 0.26022-1.3511 0.40909-2.0455 0.47382-0.57394 0.87824-1.2231 1.2273-2.0455 0.98122-2.3119 0.9178-4.5189-0.13635-5.1818 0.06215-0.9315 0.10898-1.9227 0.13635-2.7273 0-6.641-5.702-12-12.818-12z"/>
    </g>
   </g>
  </g>
 </g>
</svg>
