<?xml version="1.0" encoding="UTF-8" standalone="no"?>
<!-- Created with Inkscape (http://www.inkscape.org/) -->
<svg id="svg2982" xmlns:rdf="http://www.w3.org/1999/02/22-rdf-syntax-ns#" xmlns="http://www.w3.org/2000/svg" height="96" width="96" version="1.1" xmlns:cc="http://creativecommons.org/ns#" xmlns:xlink="http://www.w3.org/1999/xlink" xmlns:dc="http://purl.org/dc/elements/1.1/">
 <defs id="defs2984">
  <filter id="filter6279-2" color-interpolation-filters="sRGB">
   <feGaussianBlur id="feGaussianBlur6281-1" stdDeviation="0.8"/>
  </filter>
  <linearGradient id="linearGradient9181" x1="48" gradientUnits="userSpaceOnUse" y1="1052.4" gradientTransform="translate(0 -.0000078516)" x2="48" y2="902.36">
   <stop id="stop3189-4" style="stop-color:#c8c8c8" offset="0"/>
   <stop id="stop3191-0-7" style="stop-color:#e6e6e6" offset="1"/>
  </linearGradient>
  <linearGradient id="linearGradient2938" x1="8.7405" gradientUnits="userSpaceOnUse" y1="4.5356" gradientTransform="matrix(4.5356 0 0 3.5277 4 -70)" x2="8.7405" y2="20.492">
   <stop id="stop3906" style="stop-color:#323232" offset="0"/>
   <stop id="stop3908" style="stop-color:#787878" offset="1"/>
  </linearGradient>
  <clipPath id="clipPath3732">
   <path id="path3734" style="opacity:.3;color:#000000;fill:#f00" d="m-100-74v96h96v-96h-96zm72.344 20 11.656 11.688-44.094 44.312h-0.031l-27.875-28 11.656-11.719 16.219 16.313 32.469-32.594z"/>
  </clipPath>
  <filter id="filter3736" color-interpolation-filters="sRGB">
   <feGaussianBlur id="feGaussianBlur3738" stdDeviation="0.96"/>
  </filter>
 </defs>
 <metadata id="metadata2987">
  <rdf:RDF>
   <cc:Work rdf:about="">
    <dc:format>image/svg+xml</dc:format>
    <dc:type rdf:resource="http://purl.org/dc/dcmitype/StillImage"/>
    <dc:title/>
   </cc:Work>
  </rdf:RDF>
 </metadata>
 <g id="layer1" transform="translate(0 -956.36)">
  <g id="g6877">
   <rect id="rect9283" ry="5" style="filter:url(#filter6279-2)" rx="5" transform="translate(0 -.0000078516)" height="80" width="80" y="964.36" x="8"/>
   <rect id="rect9285" style="fill:url(#linearGradient9181)" rx="5" ry="5" height="80" width="80" y="964.36" x="8"/>
   <g id="g3045" transform="matrix(.74434 0 0 .74434 12.272 968.59)">
    <g id="layer1-9" transform="translate(0,74)">
     <path id="Symbol" style="fill:url(#linearGradient2938)" d="m72.351-54-32.461 32.579-16.241-16.29-11.649 11.7 27.868 28.011 0.022-0.0224 0.023 0.0224 44.087-44.301-11.649-11.699z"/>
     <path id="path2943" style="opacity:.2;filter:url(#filter3736);stroke:#fff;stroke-width:4;fill:none" clip-path="url(#clipPath3732)" transform="translate(100)" d="m-27.649-54-32.461 32.579-16.241-16.29-11.649 11.7 27.868 28.011 0.022-0.0224 0.023 0.0224 44.087-44.301-11.649-11.699z"/>
    </g>
   </g>
  </g>
 </g>
</svg>
