<?xml version="1.0" encoding="UTF-8" standalone="no"?>
<!-- Created with Inkscape (http://www.inkscape.org/) -->
<svg id="svg2982" xmlns:rdf="http://www.w3.org/1999/02/22-rdf-syntax-ns#" xmlns="http://www.w3.org/2000/svg" height="96" width="96" version="1.1" xmlns:cc="http://creativecommons.org/ns#" xmlns:xlink="http://www.w3.org/1999/xlink" xmlns:dc="http://purl.org/dc/elements/1.1/">
 <defs id="defs2984">
  <filter id="filter6279-2" color-interpolation-filters="sRGB">
   <feGaussianBlur id="feGaussianBlur6281-1" stdDeviation="0.8"/>
  </filter>
  <linearGradient id="linearGradient9181" x1="48" gradientUnits="userSpaceOnUse" y1="1052.4" gradientTransform="translate(0 -.0000078516)" x2="48" y2="902.36">
   <stop id="stop3189-4" style="stop-color:#c8c8c8" offset="0"/>
   <stop id="stop3191-0-1" style="stop-color:#e6e6e6" offset="1"/>
  </linearGradient>
  <filter id="filter3899" color-interpolation-filters="sRGB">
   <feGaussianBlur id="feGaussianBlur3901" stdDeviation="0.57"/>
  </filter>
  <linearGradient id="linearGradient3182" x1="12" gradientUnits="userSpaceOnUse" y1="4.5" gradientTransform="matrix(4,0,0,4,0,-82)" x2="12" y2="20.5">
   <stop id="stop3657" style="stop-color:#ad0707" offset="0"/>
   <stop id="stop3659" style="stop-color:#f75535" offset="1"/>
  </linearGradient>
 </defs>
 <metadata id="metadata2987">
  <rdf:RDF>
   <cc:Work rdf:about="">
    <dc:format>image/svg+xml</dc:format>
    <dc:type rdf:resource="http://purl.org/dc/dcmitype/StillImage"/>
    <dc:title/>
   </cc:Work>
  </rdf:RDF>
 </metadata>
 <g id="layer1" transform="translate(0 -956.36)">
  <g id="g6847">
   <rect id="rect9283" ry="5" style="filter:url(#filter6279-2)" rx="5" transform="translate(0 -.0000078516)" height="80" width="80" y="964.36" x="8"/>
   <rect id="rect9285" style="fill:url(#linearGradient9181)" rx="5" ry="5" height="80" width="80" y="964.36" x="8"/>
   <g id="g3073" transform="matrix(.87966 0 0 .87966 5.7762 962.29)">
    <g id="layer2" transform="translate(0,80)">
     <path id="path3129" style="opacity:.2;color:#000000;filter:url(#filter3899);stroke:#fff;stroke-width:4;fill:none" d="m43-62c-1.662 0-3 1.338-3 3v30c0 1.662 1.338 3 3 3h10c1.662 0 3-1.338 3-3v-30c0-1.662-1.4233-2.4744-3-3h-7zm0 44c-1.662 0-3 1.338-3 3v10c0 1.662 1.4233 2.4744 3 3h10c1.662 0 3-1.338 3-3v-10c0-1.662-1.338-3-3-3h-7z"/>
     <path id="rect3734" style="color:#000000;fill:url(#linearGradient3182)" d="m43-62c-1.662 0-3 1.338-3 3v30c0 1.662 1.338 3 3 3h10c1.662 0 3-1.338 3-3v-30c0-1.662-1.4233-2.4744-3-3h-7zm0 44c-1.662 0-3 1.338-3 3v10c0 1.662 1.4233 2.4744 3 3h10c1.662 0 3-1.338 3-3v-10c0-1.662-1.338-3-3-3h-7z"/>
    </g>
   </g>
  </g>
 </g>
</svg>
