<?xml version="1.0" encoding="UTF-8" standalone="no"?>
<!-- Created with Inkscape (http://www.inkscape.org/) -->

<svg
   xmlns:dc="http://purl.org/dc/elements/1.1/"
   xmlns:cc="http://creativecommons.org/ns#"
   xmlns:rdf="http://www.w3.org/1999/02/22-rdf-syntax-ns#"
   xmlns:svg="http://www.w3.org/2000/svg"
   xmlns="http://www.w3.org/2000/svg"
   xmlns:xlink="http://www.w3.org/1999/xlink"
   xmlns:sodipodi="http://sodipodi.sourceforge.net/DTD/sodipodi-0.dtd"
   xmlns:inkscape="http://www.inkscape.org/namespaces/inkscape"
   width="96"
   height="96"
   id="svg2982"
   version="1.1"
   inkscape:version="0.48.1 r9760"
   sodipodi:docname="emblem-generic.svg">
  <defs
     id="defs2984">
    <filter
       color-interpolation-filters="sRGB"
       inkscape:collect="always"
       id="filter6279-2">
      <feGaussianBlur
         inkscape:collect="always"
         stdDeviation="0.8"
         id="feGaussianBlur6281-1" />
    </filter>
    <linearGradient
       inkscape:collect="always"
       xlink:href="#ButtonColor-6"
       id="linearGradient9181"
       gradientUnits="userSpaceOnUse"
       gradientTransform="translate(0,-7.8515622e-6)"
       x1="48"
       y1="1052.3622"
       x2="48"
       y2="902.36218" />
    <linearGradient
       x1="10.31979"
       y1="21"
       x2="10.31979"
       y2="0.99929649"
       id="ButtonColor-6"
       gradientUnits="userSpaceOnUse">
      <stop
         id="stop3189-4"
         style="stop-color:#c8c8c8;stop-opacity:1"
         offset="0" />
      <stop
         id="stop3191-0-0"
         style="stop-color:#e6e6e6;stop-opacity:1"
         offset="1" />
    </linearGradient>
    <clipPath
       id="clipPath2986">
      <path
         d="m -100,-74 0,96 96,0 0,-96 -96,0 z m 48,16 c 17.673112,0 32,14.326888 32,32 0,17.673112 -14.326888,32 -32,32 -17.673112,0 -32,-14.326888 -32,-32 0,-17.673112 14.326888,-32 32,-32 z m 0,8 c -13.254834,0 -24,10.745166 -24,24 0,13.254832 10.745166,24 24,24 13.254832,0 24,-10.745168 24,-24 0,-13.254834 -10.745168,-24 -24,-24 z m 0,4 c 2.216,0 4,1.784 4,4 l 0,9 7.875,-4.5 c 1.919112,-1.108 4.392,-0.419112 5.5,1.5 1.108,1.919112 0.419112,4.392 -1.5,5.5 l -7.75,4.5 7.75,4.5 c 1.919112,1.108 2.608,3.580888 1.5,5.5 -1.108,1.919112 -3.580888,2.608 -5.5,1.5 L -48,-19 l 0,9 c 0,2.216 -1.784,4 -4,4 -2.216,0 -4,-1.784 -4,-4 l 0,-9 -7.875,4.5 c -1.919112,1.108 -4.392,0.419112 -5.5,-1.5 -1.108,-1.919112 -0.419112,-4.392 1.5,-5.5 l 7.75,-4.5 -7.75,-4.5 c -1.919112,-1.108 -2.608,-3.580888 -1.5,-5.5 1.108,-1.919112 3.580888,-2.608 5.5,-1.5 l 7.875,4.5 0,-9 c 0,-2.216 1.784,-4 4,-4 z"
         inkscape:connector-curvature="0"
         id="path2988"
         style="opacity:0.3;color:#000000;fill:#ff0000;fill-opacity:1;fill-rule:nonzero;stroke:none;stroke-width:4;marker:none;visibility:visible;display:inline;overflow:visible;enable-background:accumulate" />
    </clipPath>
    <filter
       color-interpolation-filters="sRGB"
       id="filter3762">
      <feGaussianBlur
         id="feGaussianBlur3764"
         stdDeviation="0.96" />
    </filter>
    <linearGradient
       x1="8"
       y1="3"
       x2="8"
       y2="19.031219"
       id="linearGradient2975"
       xlink:href="#linearGradient5004"
       gradientUnits="userSpaceOnUse"
       gradientTransform="matrix(4,0,0,4,4,-70)" />
    <linearGradient
       x1="7.1904788"
       y1="6.9551144"
       x2="7.1904788"
       y2="18.319494"
       id="linearGradient5004"
       gradientUnits="userSpaceOnUse"
       gradientTransform="scale(1.1467263,0.8720476)">
      <stop
         id="stop5006"
         style="stop-color:#323232;stop-opacity:1"
         offset="0" />
      <stop
         id="stop5008"
         style="stop-color:#787878;stop-opacity:1"
         offset="1" />
    </linearGradient>
  </defs>
  <sodipodi:namedview
     id="base"
     pagecolor="#ffffff"
     bordercolor="#666666"
     borderopacity="1.0"
     inkscape:pageopacity="0.0"
     inkscape:pageshadow="2"
     inkscape:zoom="3.959798"
     inkscape:cx="36.39115"
     inkscape:cy="42.877139"
     inkscape:document-units="px"
     inkscape:current-layer="layer1"
     showgrid="false"
     inkscape:window-width="1280"
     inkscape:window-height="725"
     inkscape:window-x="0"
     inkscape:window-y="25"
     inkscape:window-maximized="1" />
  <metadata
     id="metadata2987">
    <rdf:RDF>
      <cc:Work
         rdf:about="">
        <dc:format>image/svg+xml</dc:format>
        <dc:type
           rdf:resource="http://purl.org/dc/dcmitype/StillImage" />
        <dc:title></dc:title>
      </cc:Work>
    </rdf:RDF>
  </metadata>
  <g
     inkscape:label="Layer 1"
     inkscape:groupmode="layer"
     id="layer1"
     transform="translate(0,-956.36218)">
    <g
       id="g6851">
      <rect
         transform="translate(0,-7.8515622e-6)"
         y="964.36218"
         x="8"
         height="80"
         width="80"
         id="rect9283"
         style="fill:#000000;fill-opacity:1;stroke:none;filter:url(#filter6279-2)"
         rx="5"
         ry="5" />
      <rect
         ry="5"
         rx="5"
         style="fill:url(#linearGradient9181);fill-opacity:1;stroke:none"
         id="rect9285"
         width="80"
         height="80"
         x="8"
         y="964.36218" />
      <g
         id="g3113"
         style="display:inline"
         transform="matrix(0.82635522,0,0,0.82635522,8.280949,1025.6514)">
        <path
           d="m -52,-58 c -17.673112,0 -32,14.326888 -32,32 0,17.673112 14.326888,32 32,32 17.673112,0 32,-14.326888 32,-32 0,-17.673112 -14.326888,-32 -32,-32 z m 0,8 c 13.254832,0 24,10.745166 24,24 0,13.254832 -10.745168,24 -24,24 -13.254834,0 -24,-10.745168 -24,-24 0,-13.254834 10.745166,-24 24,-24 z m 0,4 c -2.216,0 -4,1.784 -4,4 l 0,9 -7.875,-4.5 c -1.919112,-1.108 -4.392,-0.419112 -5.5,1.5 -1.108,1.919112 -0.419112,4.392 1.5,5.5 l 7.75,4.5 -7.75,4.5 c -1.919112,1.108 -2.608,3.580888 -1.5,5.5 1.108,1.919112 3.580888,2.608 5.5,1.5 L -56,-19 l 0,9 c 0,2.216 1.784,4 4,4 2.216,0 4,-1.784 4,-4 l 0,-9 7.875,4.5 c 1.919112,1.108 4.392,0.419112 5.5,-1.5 1.108,-1.919112 0.419112,-4.392 -1.5,-5.5 l -7.75,-4.5 7.75,-4.5 c 1.919112,-1.108 2.608,-3.580888 1.5,-5.5 -1.108,-1.919112 -3.580888,-2.608 -5.5,-1.5 L -48,-33 l 0,-9 c 0,-2.216 -1.784,-4 -4,-4 z"
           inkscape:connector-curvature="0"
           transform="translate(100,0)"
           clip-path="url(#clipPath2986)"
           id="path2977"
           style="opacity:0.2;color:#000000;fill:none;stroke:#ffffff;stroke-width:4;stroke-miterlimit:4;stroke-dasharray:none;marker:none;visibility:visible;display:inline;overflow:visible;filter:url(#filter3762);enable-background:accumulate" />
        <g
           id="g3092">
          <path
             style="color:#000000;fill:url(#linearGradient2975);fill-opacity:1;stroke:none;stroke-width:1;marker:none;visibility:visible;display:inline;overflow:visible;enable-background:accumulate"
             id="path2932"
             inkscape:connector-curvature="0"
             d="M 48,-58 C 30.326888,-58 16,-43.673112 16,-26 16,-8.326888 30.326888,6 48,6 65.673112,6 80,-8.326888 80,-26 80,-43.673112 65.673112,-58 48,-58 z m 0,8 c 13.254832,0 24,10.745166 24,24 0,13.254832 -10.745168,24 -24,24 -13.254834,0 -24,-10.745168 -24,-24 0,-13.254834 10.745166,-24 24,-24 z m 0,4 c -2.216,0 -4,1.784 -4,4 l 0,9 -7.875,-4.5 c -1.919112,-1.108 -4.392,-0.419112 -5.5,1.5 -1.108,1.919112 -0.419112,4.392 1.5,5.5 l 7.75,4.5 -7.75,4.5 c -1.919112,1.108 -2.608,3.580888 -1.5,5.5 1.108,1.919112 3.580888,2.608 5.5,1.5 L 44,-19 l 0,9 c 0,2.216 1.784,4 4,4 2.216,0 4,-1.784 4,-4 l 0,-9 7.875,4.5 c 1.919112,1.108 4.392,0.419112 5.5,-1.5 1.108,-1.919112 0.419112,-4.392 -1.5,-5.5 l -7.75,-4.5 7.75,-4.5 c 1.919112,-1.108 2.608,-3.580888 1.5,-5.5 -1.108,-1.919112 -3.580888,-2.608 -5.5,-1.5 L 52,-33 l 0,-9 c 0,-2.216 -1.784,-4 -4,-4 z" />
        </g>
      </g>
    </g>
  </g>
</svg>
