<?xml version="1.0" encoding="UTF-8" standalone="no"?>
<!-- Created with Inkscape (http://www.inkscape.org/) -->
<svg id="svg2982" xmlns:rdf="http://www.w3.org/1999/02/22-rdf-syntax-ns#" xmlns="http://www.w3.org/2000/svg" height="96" width="96" version="1.1" xmlns:cc="http://creativecommons.org/ns#" xmlns:xlink="http://www.w3.org/1999/xlink" xmlns:dc="http://purl.org/dc/elements/1.1/">
 <defs id="defs2984">
  <filter id="filter6279-2" color-interpolation-filters="sRGB">
   <feGaussianBlur id="feGaussianBlur6281-1" stdDeviation="0.8"/>
  </filter>
  <linearGradient id="linearGradient9181" x1="48" gradientUnits="userSpaceOnUse" y1="1052.4" gradientTransform="translate(0 -.0000078516)" x2="48" y2="902.36">
   <stop id="stop3189-4" style="stop-color:#c8c8c8" offset="0"/>
   <stop id="stop3191-0-0" style="stop-color:#e6e6e6" offset="1"/>
  </linearGradient>
  <clipPath id="clipPath3647">
   <path id="path3649" style="opacity:.3;color:#000000;fill:#f00" d="m-100-74v96h96v-96h-96zm39.875 20.312h16.125v19.75h19.688v16.188h-19.688v19.438h-16.125v-19.438h-19.562v-16.188h19.562v-19.75z"/>
  </clipPath>
  <filter id="filter3651" color-interpolation-filters="sRGB">
   <feGaussianBlur id="feGaussianBlur3653" stdDeviation="0.83069354"/>
  </filter>
  <linearGradient id="linearGradient2862" x1="11.64" gradientUnits="userSpaceOnUse" y1="4.0776" gradientTransform="matrix(4,0,0,4,4,-70)" x2="11.64" y2="17.924">
   <stop id="stop3974" style="stop-color:#323232" offset="0"/>
   <stop id="stop3976" style="stop-color:#787878" offset="1"/>
  </linearGradient>
 </defs>
 <metadata id="metadata2987">
  <rdf:RDF>
   <cc:Work rdf:about="">
    <dc:format>image/svg+xml</dc:format>
    <dc:type rdf:resource="http://purl.org/dc/dcmitype/StillImage"/>
    <dc:title/>
   </cc:Work>
  </rdf:RDF>
 </metadata>
 <g id="layer1" transform="translate(0 -956.36)">
  <g id="g6852">
   <rect id="rect9283" ry="5" style="filter:url(#filter6279-2)" rx="5" transform="translate(0 -.0000078516)" height="80" width="80" y="964.36" x="8"/>
   <rect id="rect9285" style="fill:url(#linearGradient9181)" rx="5" ry="5" height="80" width="80" y="964.36" x="8"/>
   <g id="g3071" transform="matrix(.94687 0 0 .94687 2.5504 958.91)">
    <g id="layer3" transform="translate(0,74)">
     <path id="path3638" style="opacity:.2;filter:url(#filter3651);stroke:#fff;stroke-width:4;fill:none" clip-path="url(#clipPath3647)" transform="translate(100)" d="m-60.12-53.69v19.741h-19.57v16.19h19.57v19.448h16.12v-19.448h19.69v-16.19h-19.69v-19.741h-16.12z"/>
     <path id="Symbol" style="fill:url(#linearGradient2862)" d="m39.88-53.69v19.741h-19.57v16.19h19.57v19.448h16.12v-19.448h19.69v-16.19h-19.69v-19.741h-16.12z"/>
    </g>
   </g>
  </g>
 </g>
</svg>
