<?xml version="1.0" encoding="UTF-8" standalone="no"?>
<!-- Created with Inkscape (http://www.inkscape.org/) -->
<svg id="svg2982" xmlns:rdf="http://www.w3.org/1999/02/22-rdf-syntax-ns#" xmlns="http://www.w3.org/2000/svg" height="96" width="96" version="1.1" xmlns:cc="http://creativecommons.org/ns#" xmlns:xlink="http://www.w3.org/1999/xlink" xmlns:dc="http://purl.org/dc/elements/1.1/">
 <defs id="defs2984">
  <filter id="filter6279-2" color-interpolation-filters="sRGB">
   <feGaussianBlur id="feGaussianBlur6281-1" stdDeviation="0.8"/>
  </filter>
  <linearGradient id="linearGradient9181" x1="48" gradientUnits="userSpaceOnUse" y1="1052.4" gradientTransform="translate(0 -.0000078516)" x2="48" y2="902.36">
   <stop id="stop3189-4" style="stop-color:#c8c8c8" offset="0"/>
   <stop id="stop3191-0-2" style="stop-color:#e6e6e6" offset="1"/>
  </linearGradient>
  <filter id="filter3998" color-interpolation-filters="sRGB">
   <feGaussianBlur id="feGaussianBlur4000" stdDeviation="0.78264169"/>
  </filter>
  <linearGradient id="linearGradient3714" x1="14" gradientUnits="userSpaceOnUse" y1="1" gradientTransform="matrix(3.1351 0 0 3.1351 9.3243 -60.135)" x2="14" y2="21.025">
   <stop id="stop4530" style="stop-color:#323232" offset="0"/>
   <stop id="stop4532" style="stop-color:#787878" offset="1"/>
  </linearGradient>
 </defs>
 <metadata id="metadata2987">
  <rdf:RDF>
   <cc:Work rdf:about="">
    <dc:format>image/svg+xml</dc:format>
    <dc:type rdf:resource="http://purl.org/dc/dcmitype/StillImage"/>
    <dc:title/>
   </cc:Work>
  </rdf:RDF>
 </metadata>
 <g id="layer1" transform="translate(0 -956.36)">
  <g id="g6873">
   <rect id="rect9283" ry="5" style="filter:url(#filter6279-2)" rx="5" transform="translate(0 -.0000078516)" height="80" width="80" y="964.36" x="8"/>
   <rect id="rect9285" style="fill:url(#linearGradient9181)" rx="5" ry="5" height="80" width="80" y="964.36" x="8"/>
   <g id="g3043" transform="matrix(.84937 0 0 .84937 6.4321 963.41)">
    <g id="layer1-0" transform="translate(0,74)">
     <path id="path3996" style="opacity:.2;color:#000000;filter:url(#filter3998);stroke:#fff;stroke-width:4;fill:none" d="m50.081-57v41.835c-3.322-1.3023-7.5024-1.4231-11.659 0-7.495 2.567-11.917 9.0121-9.797 14.5 2.12 5.4888 9.944 7.8574 17.439 5.291 6.134-2.1001 10.186-6.7973 10.287-11.463 0.0069-0.32328 0.03135-0.65821 0-0.97973v-33.703c5.513 3.5012 12.655 10.782 12.541 25.277 4.645-28.611-9.893-25.521-18.811-40.756z"/>
     <path id="path2928" style="color:#000000;fill:url(#linearGradient3714)" d="m50.081-57v41.835c-3.322-1.3023-7.5024-1.4231-11.659 0-7.495 2.567-11.917 9.0121-9.797 14.5 2.12 5.4888 9.944 7.8574 17.439 5.291 6.134-2.1001 10.186-6.7973 10.287-11.463 0.0069-0.32328 0.03135-0.65821 0-0.97973v-33.703c5.513 3.5012 12.655 10.782 12.541 25.277 4.645-28.611-9.893-25.521-18.811-40.756z"/>
    </g>
   </g>
  </g>
 </g>
</svg>
